<svg xmlns="http://www.w3.org/2000/svg" xml:space="preserve" style="enable-background:new 0 0 64 64" viewBox="0 0 64 64"><linearGradient id="a" x1="32" x2="32" y1="2" y2="62" gradientUnits="userSpaceOnUse"><stop offset="0" style="stop-color:#00abf1"/><stop offset=".229" style="stop-color:#00a7ef"/><stop offset=".467" style="stop-color:#009ae9"/><stop offset=".708" style="stop-color:#0086e0"/><stop offset=".95" style="stop-color:#0069d3"/><stop offset="1" style="stop-color:#0062d0"/></linearGradient><path d="M62 54c0 4.4-3.6 8-8 8H10c-4.4 0-8-3.6-8-8V10c0-4.4 3.6-8 8-8h44c4.4 0 8 3.6 8 8v44z" style="fill:url(#a)"/><path d="M30.24 42.45 37.35 35c1.78-1.89 3.04-3.61 3.8-5.15.75-1.54 1.13-3.24 1.13-5.1 0-1.78-.44-3.32-1.31-4.64-.87-1.32-2.12-2.33-3.75-3.04-1.63-.72-3.53-1.07-5.69-1.07-2.04 0-4.06.32-6.04.95-1.98.64-3.61 1.5-4.88 2.6l2.22 4.97c1.42-1.01 2.84-1.77 4.24-2.28 1.41-.52 2.77-.78 4.1-.78 1.39 0 2.46.31 3.2.93s1.11 1.55 1.11 2.8c0 1.04-.27 2.08-.82 3.13-.55 1.05-1.37 2.18-2.46 3.4L21.68 42.9V48h21.7v-5.55H30.24z" style="fill:#fff"/></svg>