<svg xmlns="http://www.w3.org/2000/svg" xml:space="preserve" style="enable-background:new 0 0 64 64" viewBox="0 0 64 64"><linearGradient id="a" x1="32" x2="32" y1="2" y2="62" gradientUnits="userSpaceOnUse"><stop offset="0" style="stop-color:#00abf1"/><stop offset=".229" style="stop-color:#00a7ef"/><stop offset=".467" style="stop-color:#009ae9"/><stop offset=".708" style="stop-color:#0086e0"/><stop offset=".95" style="stop-color:#0069d3"/><stop offset="1" style="stop-color:#0062d0"/></linearGradient><path d="M62 54c0 4.4-3.6 8-8 8H10c-4.4 0-8-3.6-8-8V10c0-4.4 3.6-8 8-8h44c4.4 0 8 3.6 8 8v44z" style="fill:url(#a)"/><path d="M41.7 34.08c-1-1.24-2.44-2.05-4.23-2.52 1.53-.52 2.77-1.32 3.63-2.49.95-1.29 1.43-2.84 1.43-4.65 0-1.7-.43-3.18-1.29-4.45-.86-1.27-2.09-2.25-3.67-2.94S34.13 16 32 16c-2.05 0-4.06.31-6.03.94-1.98.63-3.59 1.49-4.85 2.57l2.19 4.92c1.32-.99 2.69-1.75 4.1-2.26 1.42-.51 2.8-.77 4.15-.77 1.41 0 2.5.34 3.29 1.01.79.67 1.19 1.65 1.19 2.94 0 1.32-.44 2.28-1.32 2.9-.88.61-2.24.92-4.08.92h-3.69v5.31h4.48c1.9 0 3.29.32 4.15.97.86.64 1.29 1.65 1.29 3.03 0 1.46-.43 2.52-1.29 3.16-.86.64-2.25.97-4.15.97-1.46 0-2.91-.25-4.34-.75-1.43-.5-2.84-1.26-4.22-2.28l-2.19 4.92c1.26 1.08 2.88 1.94 4.87 2.57s4.05.93 6.19.93c3.57 0 6.39-.79 8.47-2.37 2.08-1.58 3.12-3.75 3.12-6.5 0-2.02-.55-3.7-1.63-5.05z" style="fill:#fff"/></svg>