<svg xmlns="http://www.w3.org/2000/svg" xml:space="preserve" style="enable-background:new 0 0 64 64" viewBox="0 0 64 64"><linearGradient id="a" x1="32" x2="32" y1="2" y2="62" gradientUnits="userSpaceOnUse"><stop offset="0" style="stop-color:#f90"/><stop offset=".287" style="stop-color:#ff9500"/><stop offset=".585" style="stop-color:#f80"/><stop offset=".887" style="stop-color:#ff7400"/><stop offset="1" style="stop-color:#ff6a00"/></linearGradient><circle cx="32" cy="32" r="30" style="fill:url(#a)"/><path d="M39.12 28.65c-1.42-.86-3.05-1.29-4.89-1.29-1.26 0-2.43.23-3.53.68-1.1.45-2.02 1.09-2.76 1.91-.32.35-.57.74-.8 1.15.12-2.95.66-5.28 1.66-6.91 1.14-1.86 2.79-2.78 4.95-2.78 1.11 0 2.32.23 3.64.7 1.32.47 2.68 1.24 4.08 2.32l2.24-4.91c-1.29-1.14-2.84-2.01-4.65-2.61-1.81-.6-3.68-.9-5.61-.9-2.72 0-5.06.66-7.04 1.97-1.97 1.31-3.49 3.2-4.54 5.65s-1.58 5.39-1.58 8.81c0 5 1.11 8.84 3.33 11.53C25.84 46.66 28.97 48 33 48c2.08 0 3.92-.45 5.53-1.36 1.61-.9 2.86-2.15 3.77-3.75.91-1.59 1.36-3.41 1.36-5.46 0-1.96-.4-3.7-1.21-5.22-.8-1.51-1.91-2.7-3.33-3.56zm-3.13 12.64c-.85.91-1.97 1.36-3.37 1.36-.91 0-1.72-.21-2.43-.64-.72-.42-1.27-1-1.67-1.73-.4-.73-.59-1.59-.59-2.59 0-.99.2-1.87.59-2.63.39-.76.95-1.34 1.67-1.75.71-.41 1.53-.61 2.43-.61 1.43 0 2.56.45 3.4 1.36.83.91 1.25 2.12 1.25 3.64-.01 1.49-.44 2.69-1.28 3.59z" style="fill:#fff"/></svg>