<svg xmlns="http://www.w3.org/2000/svg" xml:space="preserve" style="enable-background:new 0 0 64 64" viewBox="0 0 64 64"><linearGradient id="a" x1="32" x2="32" y1="57.499" y2="7.311" gradientUnits="userSpaceOnUse"><stop offset="0" style="stop-color:#7a869c"/><stop offset="1" style="stop-color:#97a4be"/></linearGradient><path d="M32 7C18.213 7 7 18.217 7 32c0 13.785 11.213 25 25 25 13.785 0 25-11.215 25-25C57 18.217 45.785 7 32 7zm0 45.002c-11.03 0-20.002-8.973-20.002-20.002 0-11.027 8.973-19.998 20.002-19.998 11.027 0 19.998 8.97 19.998 19.998 0 11.03-8.97 20.002-19.998 20.002z" style="fill:url(#a)"/><linearGradient id="b" x1="31" x2="31" y1="45" y2="19" gradientUnits="userSpaceOnUse"><stop offset="0" style="stop-color:#7a869c"/><stop offset="1" style="stop-color:#97a4be"/></linearGradient><path d="M33.139 23.452c1.185 0 2.319.196 3.4.587 1.081.393 2.191 1.016 3.33 1.87l1.746-3.989c-.998-.926-2.256-1.643-3.774-2.155A15.028 15.028 0 0 0 33.03 19c-2.588 0-4.831.533-6.733 1.603-1.898 1.068-3.359 2.577-4.38 4.523-1.022 1.946-1.533 4.226-1.533 6.838 0 2.636.51 4.933 1.534 6.892 1.02 1.96 2.481 3.473 4.38 4.541 1.9 1.07 4.144 1.603 6.733 1.603 1.684 0 3.287-.255 4.809-.765 1.518-.51 2.776-1.23 3.774-2.155l-1.746-3.99c-1.139.855-2.249 1.478-3.33 1.87a9.914 9.914 0 0 1-3.4.588c-2.258 0-4.003-.73-5.238-2.19-1.235-1.46-1.852-3.591-1.852-6.394 0-2.802.617-4.92 1.852-6.357 1.235-1.438 2.98-2.155 5.238-2.155z" style="fill:url(#b)"/></svg>