<svg xmlns="http://www.w3.org/2000/svg" xml:space="preserve" style="enable-background:new 0 0 64 64" viewBox="0 0 64 64"><linearGradient id="a" x1="32" x2="32" y1="57" y2="7" gradientUnits="userSpaceOnUse"><stop offset="0" style="stop-color:#7a869c"/><stop offset="1" style="stop-color:#97a4be"/></linearGradient><path d="M32 7C18.215 7 7 18.217 7 32c0 13.785 11.215 25 25 25s25-11.215 25-25C57 18.217 45.785 7 32 7zm0 45.002c-11.03 0-20.002-8.973-20.002-20.002 0-11.027 8.973-19.998 20.002-19.998 11.027 0 19.998 8.97 19.998 19.998 0 11.03-8.97 20.002-19.998 20.002z" style="fill:url(#a)"/><linearGradient id="b" x1="33" x2="33" y1="45" y2="19" gradientUnits="userSpaceOnUse"><stop offset="0" style="stop-color:#7a869c"/><stop offset="1" style="stop-color:#97a4be"/></linearGradient><path d="M39.134 34.483c-.508-.38-1.081-.576-1.682-.687 1.157-.35 2.156-.877 2.98-1.595 1.605-1.4 2.41-3.256 2.41-5.57 0-2.433-.781-4.315-2.338-5.642-1.557-1.326-3.858-1.989-6.9-1.989h-11.58v26h5.626V34.52h3.688c.755 0 1.423.128 2.009.383.582.256 1.01.736 1.278 1.442L37.948 45h6.027l-3.141-8.07c-.416-1.096-.981-1.91-1.7-2.447zm-6.372-4.31h-5.147v-6.791h5.147c1.656 0 2.856.273 3.596.821.743.549 1.115 1.406 1.115 2.576 0 1.144-.378 1.995-1.133 2.555s-1.946.84-3.578.84z" style="fill:url(#b)"/></svg>