<svg xmlns="http://www.w3.org/2000/svg" xml:space="preserve" style="enable-background:new 0 0 64 64" viewBox="0 0 64 64"><linearGradient id="a" x1="-62" x2="-62" y1="8" y2="68" gradientTransform="matrix(1 0 0 -1 94 70)" gradientUnits="userSpaceOnUse"><stop offset="0" style="stop-color:#dbc7b6"/><stop offset=".327" style="stop-color:#eadccc"/><stop offset=".734" style="stop-color:#f9f1e2"/><stop offset=".997" style="stop-color:#fff8ea"/></linearGradient><path d="M53 56.35c0 3.11-2.54 5.65-5.65 5.65h-30.7C13.54 62 11 59.46 11 56.35V7.65C11 4.54 13.54 2 16.65 2h30.71C50.46 2 53 4.54 53 7.65v48.7z" style="fill:url(#a)"/><linearGradient id="b" x1="-62.083" x2="-62.083" y1="47.899" y2="66.279" gradientTransform="matrix(1 0 0 -1 94 70)" gradientUnits="userSpaceOnUse"><stop offset=".6" style="stop-color:#fff;stop-opacity:0"/><stop offset="1" style="stop-color:#fff;stop-opacity:.5"/></linearGradient><path d="M51.16 20.13V8.25c0-2.49-2.04-4.53-4.53-4.53H17.21c-2.49 0-4.53 2.04-4.53 4.53v11.88h38.48z" style="fill:url(#b)"/><linearGradient id="c" x1="32.083" x2="32.083" y1="60.279" y2="43.868" gradientUnits="userSpaceOnUse"><stop offset="0" style="stop-color:#e8d8ca"/><stop offset="0" style="stop-color:#e8d8ca"/><stop offset=".5" style="stop-color:#e8d8ca;stop-opacity:0"/></linearGradient><path d="M12.84 43.87v11.88c0 2.49 2.04 4.53 4.53 4.53h29.42c2.49 0 4.53-2.04 4.53-4.53V43.87H12.84z" style="fill:url(#c)"/><linearGradient id="d" x1="-62.002" x2="-62.002" y1="60.001" y2="16" gradientTransform="matrix(1 0 0 -1 94 70)" gradientUnits="userSpaceOnUse"><stop offset="0" style="stop-color:#ff3b3b"/><stop offset=".256" style="stop-color:#fb3737"/><stop offset=".521" style="stop-color:#f02b2a"/><stop offset=".789" style="stop-color:#dd1616"/><stop offset="1" style="stop-color:#c90100"/></linearGradient><path d="M27.85 10.07c1.8-.35 2.41.72 3.98 1.15 1.51.41 3.37.07 3.54 1.38.14 1.1-1.19 1.3-1.44 2.19-.49 1.73.28 3.49.11 5.4 3.08.13 5.83-.91 8.18 0 1.32.51 3.97 2.72 3.76 4.83-.1 1.05-1.34 1.5-1.66 2.3-.66 1.64-.48 4.08-.89 6.21-.34 1.79-.9 4.62-2.21 4.83-1.38.22-2-1.49-2.76-1.96-1.47-.9-2.76-.67-4.86-.57-.75 4.38-.22 15.57-2.98 18.17.36-6.21-.29-12.24-.55-18.17-1.36.13-5.61-.28-6.86 1.03-.88.94-.31 2.63-1.99 2.3-.58-1.03-.29-1.78-.44-2.99-.36-2.81-1.37-6.63-2.1-9.66-.27-1.14-.77-2.58-.66-3.22.2-1.17 1.74-1.78 2.87-1.84.44 0 .31.6.33 1.04 2.33-.8 4.91-1.34 7.96-1.38.14-2.42.6-5.11-.11-7.36-.43-1.36-2.82-2.3-1.22-3.68zm6.09 13.57c-.27 3.02.04 6.63-.33 9.55 1.39-.1 5 .26 6.47 1.06.47-3.12 2.36-7.24 1.27-10.49-2.33-.4-5.19.16-7.41-.12zm-12.06 1.72c.4 2.88.66 5.9.77 9.08 1.67-1.36 4.23-1.81 7.3-1.72.05-3.08-.21-5.84-.33-8.74-3.12-.1-5.37.7-7.74 1.38z" style="fill:url(#d)"/></svg>