<svg xmlns="http://www.w3.org/2000/svg" xml:space="preserve" style="enable-background:new 0 0 64 64" viewBox="0 0 64 64"><linearGradient id="a" x1="32" x2="32" y1="64" y2="0" gradientUnits="userSpaceOnUse"><stop offset="0" style="stop-color:#c90100"/><stop offset=".211" style="stop-color:#dd1616"/><stop offset=".479" style="stop-color:#f02b2a"/><stop offset=".744" style="stop-color:#fb3737"/><stop offset="1" style="stop-color:#ff3b3b"/></linearGradient><path d="M54.66 34.99 64 32l-9.34-2.99 8.26-5.29-9.8-.47 6.6-7.26-9.58 2.1 8.35-12.58-12.58 8.35 2.1-9.57-7.26 6.59-.47-9.8-5.29 8.26L32 0l-2.99 9.34-5.29-8.26-.47 9.8-7.26-6.6 2.1 9.58L5.51 5.51l8.35 12.58-9.57-2.1 6.59 7.26-9.8.47 8.26 5.29L0 32l9.34 2.99-8.26 5.29 9.8.47-6.6 7.26 9.58-2.1-8.35 12.58 12.58-8.35-2.1 9.57 7.26-6.59.47 9.8 5.29-8.26L32 64l2.99-9.34 5.29 8.26.47-9.8 7.26 6.59-2.1-9.57 12.58 8.35-8.35-12.58 9.57 2.1-6.59-7.26 9.8-.47z" style="fill:url(#a)"/><path d="M18.86 40.53c-.62 0-1.24-.07-1.86-.22-.62-.15-1.2-.36-1.74-.63s-1.01-.6-1.39-.97l1.03-3.11c.61.53 1.25.93 1.94 1.19.68.27 1.37.4 2.06.4.71 0 1.25-.13 1.62-.4.37-.26.55-.62.55-1.07 0-.27-.06-.5-.19-.71-.13-.21-.37-.41-.72-.58-.35-.18-.85-.36-1.51-.55-.9-.23-1.64-.51-2.23-.83-.59-.32-1.05-.69-1.38-1.1-.33-.41-.57-.88-.7-1.39-.13-.51-.2-1.09-.2-1.73 0-1.01.22-1.93.65-2.74.43-.81 1.03-1.45 1.8-1.92s1.67-.7 2.7-.7a7.176 7.176 0 0 1 3.39.85c.5.27.9.6 1.22.97l-1.02 3.11c-.56-.53-1.14-.93-1.75-1.19-.61-.27-1.21-.4-1.8-.4-.59 0-1.07.15-1.44.46-.36.3-.54.71-.54 1.23 0 .25.06.48.18.68.12.2.36.39.71.57.35.18.88.37 1.59.57.86.23 1.58.51 2.16.84.58.33 1.03.7 1.37 1.11.33.41.57.87.71 1.38.14.51.21 1.06.21 1.67 0 1.07-.21 2-.63 2.78-.42.78-1.03 1.38-1.84 1.8-.82.42-1.8.63-2.95.63zm13.18 0c-1.28 0-2.4-.35-3.34-1.05-.94-.7-1.66-1.69-2.17-2.97-.51-1.28-.76-2.79-.76-4.54 0-1.73.26-3.23.77-4.51.51-1.28 1.24-2.26 2.17-2.96.93-.69 2.04-1.04 3.33-1.04 1.28 0 2.39.35 3.32 1.04.93.69 1.65 1.68 2.15 2.96.51 1.28.76 2.78.76 4.51 0 1.75-.25 3.26-.76 4.54-.51 1.28-1.23 2.27-2.15 2.97-.93.7-2.03 1.05-3.32 1.05zm0-3.34c.91 0 1.64-.44 2.18-1.31.54-.87.81-2.17.81-3.91 0-1.71-.27-3-.81-3.87-.54-.86-1.27-1.3-2.18-1.3-.91 0-1.63.43-2.17 1.29-.54.86-.81 2.15-.81 3.88 0 1.75.27 3.05.81 3.92.54.87 1.26 1.3 2.17 1.3zm12.68 3.34c-.62 0-1.24-.07-1.86-.22-.62-.15-1.2-.36-1.74-.63s-1.01-.6-1.39-.97l1.03-3.11c.61.53 1.25.93 1.94 1.19.68.27 1.37.4 2.06.4.71 0 1.25-.13 1.62-.4.37-.26.55-.62.55-1.07 0-.27-.06-.5-.19-.71-.13-.21-.37-.41-.72-.58-.35-.18-.85-.36-1.51-.55-.9-.23-1.64-.51-2.23-.83-.59-.32-1.05-.69-1.38-1.1-.33-.41-.57-.88-.7-1.39-.13-.51-.2-1.09-.2-1.73 0-1.01.22-1.93.65-2.74.43-.81 1.03-1.45 1.8-1.92s1.67-.7 2.7-.7a7.176 7.176 0 0 1 3.39.85c.5.27.9.6 1.22.97l-1.02 3.11c-.56-.53-1.14-.93-1.75-1.19-.61-.27-1.21-.4-1.8-.4-.59 0-1.07.15-1.44.46-.36.3-.54.71-.54 1.23 0 .25.06.48.18.68.12.2.36.39.71.57.35.18.88.37 1.59.57.86.23 1.58.51 2.16.84.58.33 1.03.7 1.37 1.11.33.41.57.87.71 1.38.14.51.21 1.06.21 1.67 0 1.07-.21 2-.63 2.78-.42.78-1.03 1.38-1.84 1.8-.81.42-1.79.63-2.95.63z" style="fill:#fff"/></svg>