<svg xmlns="http://www.w3.org/2000/svg" xml:space="preserve" style="enable-background:new 0 0 64 64" viewBox="0 0 64 64"><linearGradient id="a" x1="32" x2="32" y1="2" y2="62" gradientUnits="userSpaceOnUse"><stop offset="0" style="stop-color:#bc2af7"/><stop offset=".216" style="stop-color:#b928f3"/><stop offset=".44" style="stop-color:#b121e6"/><stop offset=".668" style="stop-color:#a217d2"/><stop offset=".896" style="stop-color:#8e08b5"/><stop offset=".995" style="stop-color:#8400a6"/></linearGradient><path d="M62 54c0 4.4-3.6 8-8 8H10c-4.4 0-8-3.6-8-8V10c0-4.4 3.6-8 8-8h44c4.4 0 8 3.6 8 8v44z" style="fill:url(#a)"/><path d="M12.03 17h6.57v30h-6.57zm32.68 1.77C42.36 17.59 39.54 17 36.26 17H24.63v30h11.63c3.31 0 6.14-.6 8.49-1.79 2.35-1.19 4.14-2.91 5.37-5.14 1.23-2.23 1.85-4.94 1.85-8.11 0-3.14-.62-5.83-1.87-8.07-1.25-2.23-3.05-3.94-5.39-5.12zM43 39.27c-1.6 1.62-4 2.42-7.2 2.42h-4.6V22.31h4.59c6.41 0 9.6 3.22 9.6 9.65.01 3.26-.79 5.69-2.39 7.31z" style="fill:#fff"/></svg>