<svg xmlns="http://www.w3.org/2000/svg" xml:space="preserve" style="enable-background:new 0 0 64 64" viewBox="0 0 64 64"><linearGradient id="a" x1="32" x2="32" y1="61.975" y2="2.1" gradientUnits="userSpaceOnUse"><stop offset="0" style="stop-color:#0062d0"/><stop offset="1" style="stop-color:#00abf1"/></linearGradient><path d="M5.18 21.69 60.13 6.96c1.1-.3 1.87-1.3 1.87-2.44C62 3.13 60.87 2 59.48 2H4.52C3.13 2 2 3.13 2 4.52v14.72c0 1.67 1.57 2.88 3.18 2.45z" style="fill:url(#a)"/><linearGradient id="b" x1="32" x2="32" y1="61.975" y2="2.1" gradientUnits="userSpaceOnUse"><stop offset="0" style="stop-color:#0062d0"/><stop offset="1" style="stop-color:#00abf1"/></linearGradient><path d="M58.82 42.31 3.87 57.04C2.77 57.33 2 58.33 2 59.48 2 60.87 3.13 62 4.52 62h54.95c1.39 0 2.52-1.13 2.52-2.52V44.75a2.513 2.513 0 0 0-3.17-2.44z" style="fill:url(#b)"/><linearGradient id="c" x1="12.949" x2="12.949" y1="61.975" y2="2.1" gradientUnits="userSpaceOnUse"><stop offset="0" style="stop-color:#0062d0"/><stop offset="1" style="stop-color:#00abf1"/></linearGradient><path d="M17.9 30.4v-3.78L8 29.27v18.32l3.69-.99v-7.43l5.81-1.56v-3.76l-5.81 1.56v-3.34z" style="fill:url(#c)"/><linearGradient id="d" x1="25.796" x2="25.796" y1="61.975" y2="2.1" gradientUnits="userSpaceOnUse"><stop offset="0" style="stop-color:#0062d0"/><stop offset="1" style="stop-color:#00abf1"/></linearGradient><path d="M30.04 32.87c.9-1.26 1.34-2.72 1.34-4.36 0-1.75-.43-2.99-1.29-3.72-.86-.73-2.15-.87-3.87-.4l-6.59 1.77v18.32l3.68-.99v-7.13l1.36-.36c.32-.09.62-.09.9-.01s.48.29.6.64l1.83 5.6 3.96-1.06-1.67-5.01c-.23-.7-.54-1.18-.95-1.46a1.53 1.53 0 0 0-.88-.28c.61-.41 1.14-.93 1.58-1.55zm-2.67-1.68c-.35.41-.93.73-1.74.94l-2.35.63v-3.94l2.35-.63c.81-.22 1.39-.22 1.74 0 .35.22.53.67.53 1.38 0 .67-.18 1.21-.53 1.62z" style="fill:url(#d)"/><linearGradient id="e" x1="38.911" x2="38.911" y1="61.975" y2="2.1" gradientUnits="userSpaceOnUse"><stop offset="0" style="stop-color:#0062d0"/><stop offset="1" style="stop-color:#00abf1"/></linearGradient><path d="M43.97 23.34v-3.71l-10.12 2.71v18.32l10.12-2.71v-3.7l-6.47 1.73v-3.75l6.05-1.63v-3.7l-6.05 1.62v-3.45z" style="fill:url(#e)"/><linearGradient id="f" x1="50.941" x2="50.941" y1="61.975" y2="2.1" gradientUnits="userSpaceOnUse"><stop offset="0" style="stop-color:#0062d0"/><stop offset="1" style="stop-color:#00abf1"/></linearGradient><path d="M56 20.11v-3.7l-10.12 2.71v18.32L56 34.73v-3.71l-6.47 1.74V29l6.05-1.62v-3.71l-6.05 1.63v-3.45z" style="fill:url(#f)"/></svg>