<svg xmlns="http://www.w3.org/2000/svg" xml:space="preserve" style="enable-background:new 0 0 64 64" viewBox="0 0 64 64"><linearGradient id="a" x1="-62" x2="-62" y1="67.113" y2="8.887" gradientTransform="matrix(1 0 0 -1 94 70)" gradientUnits="userSpaceOnUse"><stop offset="0" style="stop-color:#00abf1"/><stop offset="1" style="stop-color:#0062d0"/></linearGradient><path d="M62 53.11c0 4.4-3.6 8-8 8H10c-4.4 0-8-3.6-8-8V26.86a7.39 7.39 0 0 1 3.02-5.96L27.63 4.32a7.382 7.382 0 0 1 8.74 0L58.98 20.9c1.9 1.39 3.02 3.6 3.02 5.96v26.25z" style="fill:url(#a)"/><path d="M22.58 40.47c0 1.26-.28 2.24-.85 2.93s-1.37 1.03-2.42 1.03c-1.08 0-1.9-.34-2.47-1.03-.56-.69-.84-1.67-.84-2.93V30.03h-4.56V40.3c0 2.53.66 4.44 1.99 5.75 1.33 1.3 3.29 1.96 5.88 1.96 2.54 0 4.49-.66 5.85-1.98 1.35-1.32 2.03-3.23 2.03-5.72V30.03h-4.61v10.44zm16.13-10.44h-8.45v17.75h4.69v-6.93h3.76c2.03 0 3.6-.49 4.71-1.47 1.11-.98 1.67-2.29 1.67-3.94s-.55-2.96-1.65-3.94c-1.09-.98-2.67-1.47-4.73-1.47zm1.38 6.84c-.42.32-1.09.49-2.01.49h-3.14v-3.79h3.14c.93 0 1.6.16 2.02.49.42.32.62.8.62 1.43.01.59-.21 1.06-.63 1.38zm7.34 6.27h4.71v4.64h-4.71zm3.74-1.52 1.4-11.59-5.56-.03 1.42 11.62z" style="fill:#fff"/></svg>