<svg xmlns="http://www.w3.org/2000/svg" xml:space="preserve" style="enable-background:new 0 0 64 64" viewBox="0 0 64 64"><linearGradient id="a" x1="32" x2="32" y1="64" y2="0" gradientUnits="userSpaceOnUse"><stop offset="0" style="stop-color:#ff6a00"/><stop offset=".113" style="stop-color:#ff7400"/><stop offset=".415" style="stop-color:#f80"/><stop offset=".713" style="stop-color:#ff9500"/><stop offset="1" style="stop-color:#f90"/></linearGradient><path d="M54.66 34.99 64 32l-9.34-2.99 8.26-5.29-9.8-.47 6.6-7.26-9.58 2.1 8.35-12.58-12.58 8.35 2.1-9.57-7.26 6.59-.47-9.8-5.29 8.26L32 0l-2.99 9.34-5.29-8.26-.47 9.8-7.26-6.6 2.1 9.58L5.51 5.51l8.35 12.58-9.57-2.1 6.59 7.26-9.8.47 8.26 5.29L0 32l9.34 2.99-8.26 5.29 9.8.47-6.6 7.26 9.58-2.1-8.35 12.58 12.58-8.35-2.1 9.57 7.26-6.59.47 9.8 5.29-8.26L32 64l2.99-9.34 5.29 8.26.47-9.8 7.26 6.59-2.1-9.57 12.58 8.35-8.35-12.58 9.57 2.1-6.59-7.26 9.8-.47z" style="fill:url(#a)"/><path d="M29.88 23.29 24.8 34.98l-5.03-11.69H15l7.93 17.42h3.65l7.93-17.42zm18.83 10.44c-.2-.53-.53-1.01-.99-1.44-.47-.43-1.1-.82-1.91-1.16-.81-.34-1.81-.64-3.02-.88-1-.21-1.74-.41-2.23-.6s-.82-.39-.99-.6a1.11 1.11 0 0 1-.26-.71c0-.54.25-.97.76-1.29.5-.32 1.17-.48 2.01-.48.83 0 1.67.14 2.52.42.85.28 1.66.69 2.45 1.25l1.42-3.25c-.44-.39-1.01-.73-1.7-1.02-.69-.29-1.45-.51-2.26-.66-.82-.15-1.64-.23-2.47-.23-1.44 0-2.69.24-3.77.73s-1.92 1.16-2.52 2.01c-.61.85-.91 1.8-.91 2.86 0 .67.09 1.27.28 1.81.19.54.51 1.02.98 1.46.46.43 1.11.82 1.93 1.15.82.33 1.86.62 3.12.87.91.2 1.62.39 2.11.58.49.19.82.39 1 .61.18.22.27.47.27.75 0 .47-.26.85-.77 1.13-.51.28-1.27.42-2.26.42a10.242 10.242 0 0 1-5.58-1.67l-1.44 3.25c.54.39 1.19.73 1.95 1.02.76.29 1.57.51 2.43.66.86.15 1.73.23 2.6.23 1.62 0 2.99-.22 4.11-.66 1.13-.44 1.98-1.07 2.57-1.89.57-.83.86-1.8.86-2.92 0-.64-.1-1.22-.29-1.75z" style="fill:#fff"/></svg>