<svg xmlns="http://www.w3.org/2000/svg" xml:space="preserve" style="enable-background:new 0 0 64 64" viewBox="0 0 64 64"><linearGradient id="a" x1="12.436" x2="12.436" y1="61.698" y2="1.864" gradientUnits="userSpaceOnUse"><stop offset="0" style="stop-color:#0062d0"/><stop offset=".05" style="stop-color:#0069d3"/><stop offset=".292" style="stop-color:#0086e0"/><stop offset=".533" style="stop-color:#009ae9"/><stop offset=".771" style="stop-color:#00a7ef"/><stop offset="1" style="stop-color:#00abf1"/></linearGradient><path d="M13.62 31.36c.55-.15 1.09-.17 1.61-.05.53.11 1.06.37 1.61.78l1.02-3.64c-.48-.48-1.11-.79-1.89-.94-.78-.14-1.59-.1-2.43.12-1.34.36-2.5 1.05-3.48 2.08s-1.74 2.31-2.27 3.83C7.27 35.08 7 36.76 7 38.6c0 1.86.27 3.41.8 4.66s1.29 2.13 2.27 2.63 2.14.58 3.48.22c.84-.22 1.65-.62 2.43-1.18.78-.56 1.41-1.21 1.89-1.95l-1.02-3.09c-.55.7-1.09 1.25-1.61 1.65-.53.39-1.06.66-1.61.81-1.02.27-1.8.02-2.36-.76-.56-.78-.83-2.08-.83-3.9 0-1.82.28-3.26.83-4.32s1.33-1.74 2.35-2.01z" style="fill:url(#a)"/><linearGradient id="b" x1="25.408" x2="25.408" y1="61.698" y2="1.864" gradientUnits="userSpaceOnUse"><stop offset="0" style="stop-color:#0062d0"/><stop offset=".05" style="stop-color:#0069d3"/><stop offset=".292" style="stop-color:#0086e0"/><stop offset=".533" style="stop-color:#009ae9"/><stop offset=".771" style="stop-color:#00a7ef"/><stop offset="1" style="stop-color:#00abf1"/></linearGradient><path d="M28.83 24.67c-.95-.5-2.08-.57-3.4-.21-1.32.35-2.45 1.03-3.41 2.04s-1.7 2.27-2.22 3.8c-.53 1.53-.79 3.22-.79 5.1 0 1.89.26 3.46.78 4.7.52 1.24 1.26 2.12 2.23 2.62.96.5 2.1.58 3.42.22 1.32-.35 2.45-1.04 3.4-2.05.95-1.01 1.69-2.28 2.21-3.8s.78-3.23.78-5.12c0-1.87-.26-3.43-.78-4.68-.54-1.26-1.27-2.13-2.22-2.62zm-1.17 12.62c-.56 1.09-1.3 1.77-2.23 2.02-.93.25-1.67-.02-2.23-.81-.55-.79-.83-2.13-.83-4.02 0-1.87.27-3.35.83-4.42.55-1.07 1.29-1.74 2.23-1.99.93-.25 1.68.02 2.23.81.56.79.83 2.11.83 3.96 0 1.88-.27 3.36-.83 4.45z" style="fill:url(#b)"/><linearGradient id="c" x1="39.851" x2="39.851" y1="61.698" y2="1.864" gradientUnits="userSpaceOnUse"><stop offset="0" style="stop-color:#0062d0"/><stop offset=".05" style="stop-color:#0069d3"/><stop offset=".292" style="stop-color:#0086e0"/><stop offset=".533" style="stop-color:#009ae9"/><stop offset=".771" style="stop-color:#00a7ef"/><stop offset="1" style="stop-color:#00abf1"/></linearGradient><path d="M43.27 20.8c-.95-.5-2.08-.57-3.4-.21-1.32.35-2.45 1.03-3.41 2.04s-1.7 2.27-2.22 3.8c-.53 1.53-.79 3.22-.79 5.1 0 1.89.26 3.46.78 4.7.52 1.24 1.26 2.12 2.23 2.62.96.5 2.1.58 3.42.22 1.32-.35 2.45-1.04 3.4-2.05.95-1.01 1.69-2.28 2.21-3.8s.78-3.23.78-5.12c0-1.87-.26-3.43-.78-4.68-.53-1.26-1.27-2.13-2.22-2.62zM42.1 33.42c-.56 1.09-1.3 1.77-2.23 2.02-.93.25-1.67-.02-2.23-.81-.55-.79-.82-2.13-.82-4.02 0-1.87.27-3.35.82-4.42.55-1.07 1.29-1.74 2.23-1.99.93-.25 1.68.02 2.23.81.56.79.83 2.11.83 3.96.01 1.88-.27 3.36-.83 4.45z" style="fill:url(#c)"/><linearGradient id="d" x1="52.613" x2="52.613" y1="61.698" y2="1.864" gradientUnits="userSpaceOnUse"><stop offset="0" style="stop-color:#0062d0"/><stop offset=".05" style="stop-color:#0069d3"/><stop offset=".292" style="stop-color:#0086e0"/><stop offset=".533" style="stop-color:#009ae9"/><stop offset=".771" style="stop-color:#00a7ef"/><stop offset="1" style="stop-color:#00abf1"/></linearGradient><path d="m51.6 17.67-3.37.9v18.02L57 34.24v-3.85l-5.4 1.45z" style="fill:url(#d)"/><linearGradient id="e" x1="32" x2="32" y1="4.025" y2="63.9" gradientTransform="matrix(1 0 0 -1 0 66)" gradientUnits="userSpaceOnUse"><stop offset="0" style="stop-color:#0062d0"/><stop offset="1" style="stop-color:#00abf1"/></linearGradient><path d="M5.18 21.69 60.13 6.96c1.1-.3 1.87-1.3 1.87-2.44C62 3.13 60.87 2 59.48 2H4.52C3.13 2 2 3.13 2 4.52v14.72c0 1.67 1.57 2.88 3.18 2.45z" style="fill:url(#e)"/><linearGradient id="f" x1="31.995" x2="31.995" y1="4.025" y2="63.9" gradientTransform="matrix(1 0 0 -1 0 66)" gradientUnits="userSpaceOnUse"><stop offset="0" style="stop-color:#0062d0"/><stop offset="1" style="stop-color:#00abf1"/></linearGradient><path d="M58.82 42.31 3.87 57.04C2.77 57.33 2 58.33 2 59.48 2 60.87 3.13 62 4.52 62h54.95c1.39 0 2.52-1.13 2.52-2.52V44.75a2.513 2.513 0 0 0-3.17-2.44z" style="fill:url(#f)"/></svg>