<svg xmlns="http://www.w3.org/2000/svg" xml:space="preserve" style="enable-background:new 0 0 64 64" viewBox="0 0 64 64"><path d="M32 2S6.53 8 2 32c0 17.2 14.48 31.02 31.91 29.94 14.94-.93 27.1-13.09 28.03-28.03C63.02 16.48 49.2 2 32 2z" style="fill:#003893"/><path d="M32 2c-4.69 0-9.13 1.09-13.09 3.01L11 11l-5.99 7.91A29.896 29.896 0 0 0 2 32h12V17l12 15h6v-7.5L23.6 14H32V2z" style="fill:#fcfcfc"/><path d="M15.43 14 30 32h2v-4.94L21.43 14z" style="fill:red"/><path d="M18.91 5A30.153 30.153 0 0 0 5 18.91V32h6V11h21V5H18.91z" style="fill:red"/><path d="M49.35 28.14c.55-1.45 1.83-2.31 2.88-1.92.29.11.53.3.71.55-.05-.88-.46-1.61-1.15-1.87-1.05-.39-2.34.47-2.88 1.92-.4 1.05-.29 2.13.2 2.79-.02-.46.05-.97.24-1.47zm-7.46-3.25c-1.05-.39-2.34.47-2.88 1.92-.24.64-.28 1.27-.17 1.83-.48.37-1.13.62-1.87.67-.53.03-1.04-.04-1.48-.2.49.66 1.49 1.07 2.61 1 1.55-.1 2.74-1.08 2.67-2.2-.03-.4-.22-.76-.52-1.06.61-.62 1.39-.89 2.07-.64.29.11.53.3.71.55-.04-.89-.45-1.62-1.14-1.87zm16.68 2.89c-.91-1.08-2.16-1.3-2.79-.5-.17.22-.28.5-.33.8-.27-.82-.22-1.65.19-2.18.64-.8 1.88-.58 2.79.5.66.78.96 1.8.83 2.61a3.87 3.87 0 0 0-.69-1.23zm-22.26-.38c.5-1.04.23-2.06-.6-2.26-.23-.06-.47-.04-.72.02.52-.48 1.16-.73 1.71-.6.83.2 1.09 1.21.6 2.26-.36.76-1.02 1.33-1.67 1.5.27-.24.51-.56.68-.92z" style="fill:#fcfcfc"/><path d="M42.41 31.84s.05 4.82.13 5.26c.07.45.34 3.21 4.33 4.87 0 0 3.08-1.31 3.86-3.12.78-1.81.63-5.22.63-5.22v-1.86l-8.95.07" style="fill:#1a1626"/><path d="M42.74 32.2s.05 4.48.12 4.89c.07.41.32 2.98 4.02 4.53 0 0 2.86-1.21 3.59-2.9.73-1.68.58-4.85.58-4.85v-1.73l-8.31.06" style="fill:#fcfcfc"/><path d="m51.09 33.65-1.22-.37-1.5.68-1.52-.53-1.35.53-1.57-.68-1.19.44.01 1.55 1.19-.45 1.57.69 1.35-.54 1.52.54 1.49-.69 1.22.38v-1.55m-7.53 5.45c.14-.04 1.99.61 1.99.61l1.35-.54 1.51.54s1.76-.67 1.89-.64c.45.1-2.61 2.54-3.39 2.54-.78 0-3.75-2.38-3.35-2.51m7.16-1.33c-.23-.11-.95-.25-.95-.25l-1.47.69-1.49-.54-1.32.54-1.54-.69s-.77.21-1 .34c-.1.06-.18-1.18-.18-1.18l1.17-.44 1.54.69 1.33-.53 1.49.53 1.47-.69 1.2.38c-.01-.01-.1 1.22-.25 1.15" style="fill:#1b81b6"/><path d="m44.23 28.46.61 1.42h3.99l.61-1.42-2.6-6.04z" style="fill:#1a1626"/><path d="m44.5 28.34.55 1.27h3.58l.54-1.27-2.33-5.42z" style="fill:#7ed16d"/><path d="m46.65 29.25-3.06.9 1.45 1.73-.01 1.57 1.52-.24s.72-1.4.82-1.42c.1-.03 1.44.45 1.44.45l.31-.78 1.72-.6-2.96-.71.11-.73-1.34-.17z" style="fill:#6baaa7"/><path d="M44.78 34.45s.34.06.34-.25l.06-.03-.23-.22c-.08-.03.02-.07.02-.17s.04-.13.11-.05h.28l.3-.13c.08.06.37.09.64.08.27 0 .29-.08.21-.11-.08-.03-.79-.27-.9-.31-.11-.04-.33.01-.41.07-.09.07-.28.07-.26.02l.13-.16.32-.16-.26.06c-.11.03-.11-.04-.22-.03-.12.01-.26.17-.31.24l-.24.03c-.07-.07-.3-.1-.41-.07-.11.04-.82.28-.9.31-.08.03-.06.11.21.11s.56-.02.64-.08l.3.13h.28c.07-.07.11-.04.11.05 0 .1.1.14.02.17l-.23.22.06.03c0 .31.34.25.34.25zm6.06-.88c-.08-.03-.79-.27-.9-.31-.11-.04-.33.01-.41.07-.09.07-.28.07-.26.02l.12-.16.32-.16-.26.06c-.11.03-.11-.04-.22-.03-.12.01-.26.17-.31.24l-.24.03c-.07-.07-.3-.1-.41-.07-.11.04-.82.28-.9.31-.08.03-.05.11.22.11s.56-.02.64-.08l.3.13h.28c.07-.07.11-.04.11.05 0 .1.1.14.02.17l-.23.22.06.03c0 .3.34.25.34.25s.34.06.34-.25l.06-.03-.23-.22c-.08-.03.02-.07.02-.17s.04-.13.11-.05h.28l.3-.13c.08.06.37.09.64.08.27 0 .29-.07.21-.11zm-1.61 5.86c-.1-.04-1.03-.36-1.18-.41-.15-.05-.43.01-.54.08-.12.09-.36.09-.34.03l.16-.22.42-.21-.35.07c-.15.04-.14-.05-.29-.04-.15.01-.35.22-.41.32s-.22.12-.31.03-.39-.14-.54-.08c-.15.05-1.08.37-1.18.41-.1.04-.07.14.28.15.35.01.73-.03.84-.11.11-.08.28.08.39.17.11.09.27.1.36 0 .09-.1.14-.06.15.07.01.13.13.18.03.22-.1.04-.35.24-.3.29l.08.04c0 .4.44.33.44.33s.44.07.44-.33l.08-.04c.05-.05-.2-.25-.3-.29-.1-.04.02-.09.03-.22 0-.13.05-.17.15-.07.09.1.26.09.36 0 .11-.09.28-.25.39-.17.11.08.49.11.84.11.37.01.4-.09.3-.13z" style="fill:#d9d9d9"/><path d="M48.36 26.96c-.11.04-.15-.06-.15-.06l-.07.61.19-.03.19.03.1-.52c.01.01-.15-.07-.26-.03z" style="fill:#fff"/><path d="M45.66 25.78h-.11l.11 2.75.11-.01zm1.81-.1h-.1l.05 2.17.11-.01zm.71 1.11-.22 1.29.11.02.21-1.29zm-1.52-1.35h-.1l.1 3.08h.11z" style="fill:#94664b"/><path d="M48.39 27.86c-.83-.25-1.41.08-1.41.08s-.02.93.89 1.49h.28s-.04-.56.34-.97c.13-.14-.13-.26-.1-.6z" style="fill:#815a41"/><path d="M47.37 28.46c0-.16.25-.57.25-.57-.33 0-.63.05-.63.05s-.11.25-.17.4c-.06.16-1.23.06-1.32.03-.4-.14-1.04-.7-1.04-.7s.62.72.87.94c.33.29.26.63.65.83h1.9c-.42-.37-.51-.82-.51-.98z" style="fill:#94664b"/><path d="m47.13 27.02.03-.06-.87.05c-.07 0 .03.21.14.21.11.01.04-.1.11-.03l.27-.02c.07-.07-.01-.04.13-.04l.1-.03.09.07c.1.07.05-.02.12.04l.29-.02c.07-.07-.02-.04.14-.04s.22-.17.22-.17l-.77.04zm-1.69-.18c.11.01.04-.09.11-.03l.26-.02c.06-.07-.01-.04.13-.04s.2-.17.2-.17l-.84.05c-.07.01.03.2.14.21zm.99-.29c.12.01.04-.1.12-.03l.29-.02c.07-.08-.02-.04.14-.04l.05-.01.1.07c.11.01.04-.08.11-.01l.27-.02c.07-.07-.01-.04.13-.04.15 0 .2-.17.2-.17l-.66.04.02-.04-.92.05c-.07-.01.04.21.15.22zm-1.02.99c.13.01.05-.11.13-.04l.32-.03c.08-.09-.02-.05.16-.05s.24-.2.24-.2l-1.02.06c-.08.01.04.25.17.26z" style="fill:#fff"/><path d="M43.11 38.29c.15.41.37.81.68 1.2l3.26-3.33 3.05 3.23c.32-.42.54-.86.68-1.32l-3.75-3.96-3.92 4.18zm.43-11.35c-.37-1.06-1.15-1.82-1.95-2.01.32.34.59.77.76 1.28.52 1.46.08 2.95-.98 3.32-.29.1-.59.11-.9.04.6.64 1.39.94 2.08.69 1.07-.38 1.5-1.86.99-3.32zm-6.88 2.24c-.55-.19-.78-.97-.51-1.74.09-.26.23-.49.4-.67-.1.03-.21.07-.31.13-.3.18-.56.51-.71.92-.27.77-.04 1.55.51 1.74.36.13.77-.03 1.09-.36-.16.03-.32.03-.47-.02zm19.19-1.84c-.24.15-.5.28-.79.35-1.24.31-2.39-.33-2.57-1.43-.05-.3-.02-.6.07-.89-.59.51-.92 1.24-.8 1.96.18 1.1 1.33 1.74 2.57 1.43.9-.22 1.6-.88 1.84-1.64-.07.06-.16.11-.24.17-.2-.77.83-1.66 1.92-1.49-1.82-1.44-3.34.63-2 1.54zm-4.59 2.56c-.53.33-1.13.43-1.7.35.7-.14 1.3-.64 1.51-1.38.22-.76-.03-1.55-.59-2.04.09.34.1.71-.01 1.07-.3 1.05-1.47 1.82-2.45 1.34-.47-.23-.55-.82-.6-1.17-.32.65-.34 1.42-.05 2.11-.06.1-.12.19-.16.29a1.79 1.79 0 0 0 2.91 1.94c-.31.06-.65.03-.96-.09-.54-.21-.92-.66-1.07-1.18.81.66 1.98.77 2.92.19a2.5 2.5 0 0 0 1.16-2.44c-.19.4-.5.75-.91 1.01z" style="fill:#288549"/><path d="M40.49 31.76s.91-1.01 1.61-1.15c.69-.14 1.13-.02 1.34.15.21.17.89.71.97 1.13l-.91.04s-.19-.4-.79-.38c-.6.03-.69.24-.66.29.04.05.06.22-.18.33-.24.11-.35.37-.35.37l-1.03-.78z" style="fill:#decfc3"/><path d="M44.42 42.2c-.05-.17-.12-.37-.39-.45-.27-.08-.22.04-.37-.23s-.58-.91-1.03-1.07c-.45-.16-.41-.82-.99-1.01-.58-.19-1.67-.18-2.12.21-.45.38-1.2.23-1.44.43-.23.2-.55 1.25-1.05 1.33-.5.08-1.32.25-1.28.53.03.27.53.52.87.5.33-.03 1.05.13 1.64.38.58.25.95-.08 1.33 0 .38.08.82.22 1.22.09s.57-.26 1.1-.23c.53.03 1.01.07 1.31 0 .28-.06 1.26-.28 1.2-.48z" style="fill:#74938e"/><path d="M38.99 37.76c-1.7 2.66-1.24 3.78-.63 3.15 1.81-1.88.63-3.15.63-3.15" style="fill:#decfc3"/><path d="M38.64 37.64c.02.28.06.63.07 1.01.13-.11.25-.21.36-.32 2.38-2.19 2.35-4.18 2.32-4.68-.12.09-3.37-.23-2.75 3.99" style="fill:#e5c6ab"/><path d="M38.68 37.26c-.28.37-1.12 1.37-1.47 1.71-.47 1.24-.12 1.68-.71 2.39-.58.69 1.03.16 1.16.01 1.64-1.93 1.03-3.99 1.02-4.11zm2.41-8.73c-.52 0-1.28.64-1.44 1.12-.1.28-.04.61-.11.91l-.48.76c.85.89.95 1.71.96 2.67.01.55.93.13 1.36-.16.5-.35.56 1.39.58 1.65.02.32-.16 1.1.41 1.1.25 0 .59-.81.69-1 .17-.32.15-2.19-.23-2.39-.42-.23-.58-.8-1.05-1.02-.28-.13-.69-.19-.75-.49.06-.97.44-1.02.5-1.73.05-.66.58-1.42-.44-1.42" style="fill:#f4e4d7"/><path d="M37.41 32.3c-1.24 1.67-2.28 3.03-2.07 5.16.14 1.48-.05 3.75.93 2.76.73-.73 1.45-1.41 2.09-2.22 1.24-1.57 1.79-3.02 1.85-5 .08-2.45-1.52-2.42-2.8-.7z" style="fill:#8d4400"/><path d="M53.4 31.76s-.91-1.01-1.61-1.15c-.69-.14-1.13-.02-1.34.15-.21.17-.89.71-.97 1.13l.91.04s.19-.4.79-.38c.6.03.69.24.66.29-.04.05-.06.22.18.33.24.11.35.37.35.37l1.03-.78z" style="fill:#decfc3"/><path d="M49.47 42.2c.05-.17.12-.37.39-.45.27-.08.22.04.37-.23s.58-.91 1.03-1.07c.45-.16.41-.82.99-1.01.58-.19 1.67-.18 2.12.21.45.38 1.2.23 1.44.43.23.2.55 1.25 1.05 1.33.5.08 1.32.25 1.28.53-.03.27-.53.52-.87.5-.33-.03-1.05.13-1.64.38-.58.25-.95-.08-1.33 0-.38.08-.82.22-1.22.09s-.57-.26-1.1-.23c-.53.03-1.01.07-1.31 0-.29-.06-1.26-.28-1.2-.48z" style="fill:#74938e"/><path d="M54.9 37.76c1.7 2.66 1.24 3.78.63 3.15-1.81-1.88-.63-3.15-.63-3.15" style="fill:#decfc3"/><path d="M55.25 37.64c-.02.28-.06.63-.07 1.01-.13-.11-.25-.21-.36-.32-2.38-2.19-2.35-4.18-2.32-4.68.11.09 3.37-.23 2.75 3.99" style="fill:#e5c6ab"/><path d="M55.21 37.26c.28.37 1.12 1.37 1.47 1.71.47 1.24.12 1.68.71 2.39.58.69-1.03.16-1.16.01-1.64-1.93-1.03-3.99-1.02-4.11zm-2.41-8.73c.52 0 1.28.64 1.44 1.12.1.28.04.61.11.91l.48.76c-.85.89-.95 1.71-.96 2.67-.01.55-.93.13-1.36-.16-.5-.35-.56 1.39-.58 1.65-.02.32.16 1.1-.41 1.1-.25 0-.59-.81-.69-1-.17-.32-.15-2.19.23-2.39.42-.23.58-.8 1.05-1.02.28-.13.69-.19.75-.49-.06-.97-.44-1.02-.5-1.73-.06-.66-.58-1.42.44-1.42" style="fill:#f4e4d7"/><path d="M56.48 32.3c1.24 1.67 2.28 3.03 2.07 5.16-.14 1.48.05 3.75-.94 2.76-.73-.73-1.45-1.41-2.09-2.22-1.24-1.57-1.79-3.02-1.85-5-.07-2.45 1.53-2.42 2.81-.7z" style="fill:#8d4400"/><linearGradient id="a" x1="32" x2="32" y1="62" y2="2" gradientUnits="userSpaceOnUse"><stop offset="0" style="stop-color:#1a1a1a"/><stop offset=".102" style="stop-color:#393939;stop-opacity:.949"/><stop offset=".347" style="stop-color:#7f7f7f;stop-opacity:.8262"/><stop offset=".569" style="stop-color:#b6b6b6;stop-opacity:.7156"/><stop offset=".758" style="stop-color:#dedede;stop-opacity:.6209"/><stop offset=".908" style="stop-color:#f6f6f6;stop-opacity:.5459"/><stop offset="1" style="stop-color:#fff;stop-opacity:.5"/></linearGradient><circle cx="32" cy="32" r="30" style="opacity:.1;fill:url(#a)"/></svg>