<svg xmlns="http://www.w3.org/2000/svg" xml:space="preserve" style="enable-background:new 0 0 64 64" viewBox="0 0 64 64"><path d="M62 32c0-13.06-8.35-24.17-20-28.29v56.57C53.65 56.17 62 45.06 62 32z" style="fill:#079935"/><path d="M2 32c0 13.06 8.35 24.17 20 28.29V3.71C10.35 7.83 2 18.94 2 32z" style="fill:#1a1626"/><path d="M42 3.71a30.086 30.086 0 0 0-20 0v56.57C25.13 61.39 28.49 62 32 62s6.87-.61 10-1.71V3.71z" style="fill:#e81c27"/><path d="m47.84 36.06-.62.09.95-1.02-.17-.02-.52.04-.05-.04.42-.65.17-.99-.22-1.21-.17.09.38-.61.02-.05-.07.05-.26.09.4-.64-.63.14.05-.09.32-1.01-.22.1.05-.11.16-.64.01-.18-.08.15-.21.27-.14.11.07-.19.14-1.51-.02-.09-.14.35-.23.24.08-.43-.03.03-.24.16-.06.02.1-.11.31-.55.59-.46-.68-.03.22-.64-.4.39.35-.89-.17.1.09-.9-.32.09-.21.26v-.4l-.08.15-.13.04-.09-.8-.13.24-.07-.68-.11-.06-.08.16-.16-.95-.08.32-.17-.89-.06.1-.11-.04-.09-.51-.08.24-.07-.05-.5-1.16-.1.15-.17.4-.02.09-.51-1.26-.19.31-.13.61-.02-.02-.41-1.11-.32.7-.13-.25-2.07-2.3.01.27.32 1.22.06.1-.17-.06-.97-.17-.52.02 1.59 1.14.36.47-.26.16.18.07.93.8-.07.01.02.02.47.4-.37-.04.42.54.02.06-.26-.02.51.61-.15-.04-.08.07.39.55-.57-.34.06.47.32.59-.1.05-.15-.08.11.18.45.5.05.04-.08-.01-.3-.13.3.44-.01.13-.1-.02.37.48.34.29-.24-.11h-.18l.29.4.09.22-.11-.15-.75-.67-.11-.02.49 1.62.06.11-.06.16-.06.43.53 1.7-.32-.13.19.61-.15-.09-.11-.1.26.84-.29-.15.28.86-.36-.38-.06-.1v.1l.18.73-.36-.21-.27-.06.31.8-.92 1.97-.07.82-.08.11-.02.68-.23-.33-.14.82-.18-.38-.11.85-.09-.29-.07.14-.03.19-.05-.19.03-.8-.4.38-.37 1.45.03.24-.12-.01-.55.08-1.57.77-.2.38.81-.52 1.46-.55 4.18 1.69.6-.2-.17.37-1.4 1.19-.73-.06L39 40.67l-1.12.54-.08.17-.01-.11.04-.13-.13.25-.01.24-.06.07-.13.1-.29.52h-.08l.51-1.47-.01-.22-.13.18-.78.69-.41.14.32-.68-.03-.84-.05.07-1.29 1.17-.48.94-.05-.11-.64-.48h-4.16l-.64.48-.05.11-.48-.94-1.29-1.17-.05-.07-.03.84.32.68-.41-.14-.77-.69-.13-.18v.22l.51 1.47h-.08l-.29-.52-.13-.1-.06-.07-.01-.24-.13-.25.04.13-.01.11-.08-.17-1.16-.54-3.74 2.08-.73.06-1.4-1.19-.17-.37.6.2 4.18-1.69 1.46.55.81.52-.2-.38-1.57-.77-.55-.08-.12.01.03-.24-.37-1.45-.4-.38.03.8-.05.19-.03-.19-.07-.14-.09.29-.11-.85-.18.38-.14-.82-.23.33-.02-.68-.08-.11-.07-.82-.92-1.97.31-.8-.27.06-.36.21.18-.73v-.1l-.06.1-.36.38.25-.68.03-.18-.29.15.26-.84-.11.1-.15.09.19-.61-.32.13.53-1.7-.06-.43-.06-.16.06-.11.49-1.62-.11.02-.75.67-.11.15.09-.22.29-.4h-.18l-.24.11.34-.29.37-.48-.1.02-.01-.13.3-.44-.29.13-.08.01.05-.04.45-.5.11-.18-.15.08-.1-.05.32-.59.06-.47-.57.34.39-.55-.08-.07-.15.04.51-.61-.26.02.02-.06.42-.54-.37.04.47-.4.02-.02-.07-.01.93-.8.18-.07-.26-.16.36-.47 1.59-1.14-.52-.02-1 .2-.16.06.06-.1.32-1.22.01-.27-2.07 2.3-.13.25-.32-.7-.41 1.11-.02.02-.13-.61-.19-.31-.51 1.26-.02-.09-.17-.4-.1-.15-.5 1.16-.07.05-.08-.24-.09.51-.11.04-.06-.1-.17.89-.08-.32-.16.95-.08-.16-.11.06-.08.68-.14-.26-.09.8-.13-.04-.08-.15v.4l-.21-.26-.32-.09.09.9-.17-.1.35.89-.4-.39.22.64-.68.03.59.46.31.55.1.11-.06-.02-.24-.16-.03-.03.08.43-.23-.24-.14-.35-.02.09.14 1.51.07.19-.14-.11-.21-.27-.08-.15.01.18.16.64.05.11-.22-.1.32 1.01.05.09-.63-.14.4.64-.26-.09-.07-.05.02.05.38.61-.17-.09-.22 1.21.17.99.42.65-.05.04-.51-.02-.17.02.95 1.02-.62-.09-.22.02.92.92-.11.05-.46.52 1.13 2.2.44.31-.54-1.26.46.46.49.24.29.22-.27-.03v.05l.41.35-.03.05-.12-.03.04.06.21.19-.46-.02-.37.15.87.65.04.13.21.44 1.12 1.09-1.97-.21-.16-.07.42.49 1.37.66 1.12.03-1.13.26-.66-.01-.13-.03.04.05 1.01.62 1.54-.1.27.2.21-.15.12-.04.21.03.23-.42.22-.04.66.28-.06.09-.47.01-.71.28-.13.03.53.16.63.05.14-.02-.44.37.74-.02-.33.2.85-.11-.18.15.83-.13-.11.06-.1.09.83-.09-.22.14 1.06-.16-.54.4-.69-.1-2.09.25-1.93-.47-.27-.12.06.24.44.89 1.01.67-2.01-.06.06.15.46.27-.06-.07.18.02 1.68-.12.46-.25-.2-.07-1.67-1.11-.08-.17 1.03.38.69.05 2.14-.25.48.07-.5.56.18 1.06 1.8.24 2.01-.29.6.35.06.26-.07.26-.18.16-.34.07-3.96-.71-3.06.12-.96-.41 1.14.68 2.87-.15 4.22.73.52-.39.05-.36-.07-.39-.32-.4 2.42.37 2.42-.36-.32.4-.07.39.05.36.52.38 4.27-.76 2.87.15 1.14-.68-.96.41-3.06-.12-3.96.71-.34-.07-.18-.16-.06-.26.06-.26.6-.35 2.01.29 1.8-.24.18-1.06-.5-.56.48-.07 2.14.25.69-.05 1.03-.38-.08.17-1.67 1.11-.2.07.46.25 1.68.12.18-.02-.06.07.46-.27.06-.15-2.01.06 1.01-.67.44-.89.06-.24-.27.12-1.93.47-2.08-.25-.69.1-.54-.4 1.06.16-.22-.14.83.09-.1-.09-.11-.06.83.13-.22-.13.85.11-.33-.2.74.02-.44-.37.14.02.63-.05.53-.16-.84-.31-.47-.01-.06-.09.66-.28.22.04.23.42.21-.03.12.04.21.15.27-.2 1.54.1 1.01-.62.04-.05-.13.03-.66.01-1.13-.26 1.12-.03 1.37-.66.42-.49-.16.07-1.97.21 1.12-1.09.21-.44.04-.13.87-.65-.37-.15-.46.02.21-.19.04-.06-.12.03-.03-.05.41-.35v-.05l-.26.03.29-.22.49-.24.46-.46-.54 1.26.44-.31 1.13-2.2-.46-.52-.15-.04.92-.91-.22-.03zm-31.13-8.35-.28-.21 1.08-.06-.25-1.55.01-.09.07.13L20.43 29l-.15 1.66-.18.49-.08-.05-.36-.71-2.95-2.68zm2.14 7.7-1.88-.2-.75-.86-.13-1.4.05-.16.05.13.68.72 3.06.28 1.4 1.39.4 1.06-.04.14-.76-.93-2.08-.17zm6.87 12.16-.4-.49.52-.58h.86l2.26.76-3.24.31zm12.96-.5-.4.49-3.24-.3 2.26-.76h.86l.52.57zm-.55-.88.03.06-.68-.04-3.67 1.15-1.8.2-1.8-.2-3.67-1.15-.68.04.03-.06 2.01-1.76 4.12.6 4.12-.6 1.99 1.76zm5.59-15.53L43.57 29l3.08-3.07.07-.13.01.09-.25 1.55 1.08.06-3.22 2.9-.36.71-.08.05-.18-.5zm3.32 4.55-3.97.37-.76.93-.04-.14.4-1.06 1.4-1.39 3.06-.28.68-.72.05-.13.05.16-.13 1.4-.74.86zm-3.99 12.44.05-.06-.22.13zm-22.1 0 .17.07-.22-.13z" style="opacity:.7;fill:#fcfcfc"/><path d="m26.1 40.88-.09-.05.16.31zm11.8 0-.07.26.16-.31zm-.47-5.31h-1.6c0 .72-.13 1.27-.61 1.73h3.07c-.5-.39-.85-1.09-.86-1.73zm-10.84-8.63 10.91.02.9-1.03-2.79-.03-1.36-1.01-4.39-.02-1.26 1.04h-2.89zm7.36-2.21c.51-.29.67-1.21.67-1.72 0-1.52-1-2.24-2-2.28-.15-.01-.32-.13-.36-.28-.1-.33-.07-.54-.18-.53-.1 0-.07.19-.15.5-.05.16-.21.31-.37.31-1.25.07-2.05 1.03-2.01 2.27.02.82.11 1.31.65 1.72l3.75.01zm.96 11 .02-.8-.47-.31v-.78l-.74-.34-.01-.76-.62-.19.02-.75-.86-.29-.43-.29.03-.5-2.74-.02v-.44c-.02-1.47 1.77-2.64 2.93-2.68 1.34-.04 3.01 1.28 3.01 2.69l.01 1.41h.2v-1.43c-.01-1.29-1.47-2.82-2.99-2.82l5.11-.01-.01-.16h-10.6v.16l5.04.01c-.85-.01-2.92 1.03-2.88 2.81v5.04h1.06l.01.91-1.47.01c-.21.02-.35-.22-.35-.63h-1.45c0 .72-.38 1.22-.97 1.81h4.26l-.01-1.18h1.19l.23 1.09.97.01-.41-1.11h.92l.69 1.12h1.39l-.94-1.12h1.5l-.64-.46zm-2.93.47-.79-.01-.17-.93H30v-.93h.81l.2.93h.67l-.29-.92.44.01.52.91h-.65l.28.94zm.93-.01-.55-.93.79-.01.88.93h-1.12z" style="opacity:.7;fill:#fcfcfc"/><path d="M35.05 32.41h.19v1.44h-.19zm-10.01-2.68 1.81 3.24v.93h1.52v-1.77h-1.52v.4l-2.99-5.36.1-.28c0-.23-.17-.42-.39-.42s-.39.19-.39.42c0 .23.17.42.39.42l.11-.02.1.17c-.59 2.21-3.26 1.88-2.22 5.24.43.34.98 1.11 1.24 1.37-.28-2.79 1.56-2.68 2.24-4.34zm1.82-7.74h1.38v.33h-1.38zm0 .64h1.38v2.81h-1.38zm.69-2.16c-.3.01-.78.6-.77 1.13l1.53.01c.06-.55-.46-1.15-.76-1.14zm-.76 7.25h1.54v2.27h-1.54z" style="opacity:.7;fill:#fcfcfc"/><path d="M26.88 31.28h1.48v.48h-1.48zm-.15 2.98h1.66v.99h-1.66zm.21-3.4h1.34l.27-.47H26.7zm1.82-2.98-.01 1.24c.24-.53.57-.92.94-1.24h-.93zm8.59 4.24h-1.52v1.77h1.52v-.93l1.8-3.24c.54 2.26 2.19 1.8 2.25 4.34.26-.27.81-1.04 1.24-1.37.43-2.9-2.02-2.7-2.22-5.24l.1-.17.11.02c.22 0 .39-.19.39-.42 0-.23-.18-.42-.39-.42-.22 0-.39.19-.39.42l.1.28-2.99 5.36v-.4zm-1.4-10.13h1.38v.33h-1.38zm0 .64h1.38v2.81h-1.38zm.69-2.16c-.3-.01-.82.59-.76 1.14l1.53-.01c.01-.53-.47-1.12-.77-1.13zm-.78 7.25h1.54v2.27h-1.54z" style="opacity:.7;fill:#fcfcfc"/><path d="M35.83 31.28h1.49v.48h-1.49zm-.04 2.98h1.66v.99h-1.66zm-.14-3.87.26.47h1.34l.24-.47zm-.21-1.27-.01-1.24h-.92c.36.32.7.71.93 1.24zm3.28 8.66H25.43L24 39.02l16.15.02zM32 17.12c5.27 0 6.78 2.41 6.78 2.41.13-.28.21-.58.21-.88 0-2.01-3.13-3.65-6.99-3.65s-6.99 1.63-6.99 3.65c0 .3.08.6.21.88 0 0 1.51-2.41 6.78-2.41z" style="opacity:.7;fill:#fcfcfc"/><linearGradient id="a" x1="32" x2="32" y1="62" y2="2" gradientUnits="userSpaceOnUse"><stop offset="0" style="stop-color:#1a1a1a"/><stop offset=".102" style="stop-color:#393939;stop-opacity:.949"/><stop offset=".347" style="stop-color:#7f7f7f;stop-opacity:.8262"/><stop offset=".569" style="stop-color:#b6b6b6;stop-opacity:.7156"/><stop offset=".758" style="stop-color:#dedede;stop-opacity:.6209"/><stop offset=".908" style="stop-color:#f6f6f6;stop-opacity:.5459"/><stop offset="1" style="stop-color:#fff;stop-opacity:.5"/></linearGradient><circle cx="32" cy="32" r="30" style="opacity:.1;fill:url(#a)"/></svg>