<svg xmlns="http://www.w3.org/2000/svg" xml:space="preserve" style="enable-background:new 0 0 64 64" viewBox="0 0 64 64"><path d="M52.39 10C47.04 5.04 39.87 2 32 2c-7.88 0-15.04 3.04-20.39 8h40.78zM11.61 54c5.35 4.96 12.51 8 20.39 8 7.87 0 15.04-3.04 20.39-8H11.61z" style="fill:navy"/><path d="M2 32c0 4.27.9 8.32 2.5 12h55c1.61-3.68 2.5-7.73 2.5-12s-.9-8.32-2.5-12h-55C2.9 23.68 2 27.73 2 32z" style="fill:#ce1126"/><path d="M11.63 54h40.74c3.01-2.79 5.46-6.18 7.13-10h-55c1.67 3.82 4.12 7.21 7.13 10zm40.74-44H11.63A30.084 30.084 0 0 0 4.5 20h55a30.084 30.084 0 0 0-7.13-10z" style="fill:#fcfcfc"/><linearGradient id="a" x1="32" x2="32" y1="62" y2="2" gradientUnits="userSpaceOnUse"><stop offset="0" style="stop-color:#1a1a1a"/><stop offset=".102" style="stop-color:#393939;stop-opacity:.949"/><stop offset=".347" style="stop-color:#7f7f7f;stop-opacity:.8262"/><stop offset=".569" style="stop-color:#b6b6b6;stop-opacity:.7156"/><stop offset=".758" style="stop-color:#dedede;stop-opacity:.6209"/><stop offset=".908" style="stop-color:#f6f6f6;stop-opacity:.5459"/><stop offset="1" style="stop-color:#fff;stop-opacity:.5"/></linearGradient><circle cx="32" cy="32" r="30" style="opacity:.1;fill:url(#a)"/></svg>