<svg xmlns="http://www.w3.org/2000/svg" xml:space="preserve" style="enable-background:new 0 0 64 64" viewBox="0 0 64 64"><path d="M32 62c13.06 0 24.17-8.35 28.29-20H3.71C7.83 53.65 18.94 62 32 62z" style="fill:#e81c27"/><path d="M32 2C18.94 2 7.83 10.35 3.71 22h56.57C56.17 10.35 45.06 2 32 2z" style="fill:#079935"/><path d="M60.29 42a30.086 30.086 0 0 0 0-20H3.71a30.086 30.086 0 0 0 0 20h56.58z" style="fill:#fff300"/><circle cx="32" cy="32" r="14" style="fill:#0038b8"/><path d="m35.79 33.29 6.06-4.32-7.51-.02L32 22l-2.34 6.95-7.51.02 6.06 4.32-2.3 6.97L32 35.98l6.09 4.28-2.3-6.97zm3.52-3.51-3.79 2.7-.9-2.72 4.69.02zm-10.12 3.21 1.07-3.22h3.47l1.07 3.22-2.8 1.98-2.81-1.98zM32 24.6l1.46 4.35h-2.93L32 24.6zm-7.31 5.18 4.7-.01-.91 2.72-3.79-2.71zm2.79 8.38 1.44-4.36 2.37 1.68-3.81 2.68zm9.04 0-3.81-2.68 2.37-1.68 1.44 4.36z" style="fill:#fff300"/><path d="M31.58 37.27V42h.84v-4.73l-.42-.29zm-5.67-4.61L22 33.8l.24.78 4.51-1.32zm3.14-4.52.28-.81-3.11-3.84-.65.5 3.35 4.15zm6.03 0 3.35-4.15-.65-.5-3.11 3.84.28.81zm3.01 4.52-.84.6 4.51 1.32.24-.78z" style="fill:#fff300"/><linearGradient id="a" x1="32" x2="32" y1="62" y2="2" gradientUnits="userSpaceOnUse"><stop offset="0" style="stop-color:#1a1a1a"/><stop offset=".102" style="stop-color:#393939;stop-opacity:.949"/><stop offset=".347" style="stop-color:#7f7f7f;stop-opacity:.8262"/><stop offset=".569" style="stop-color:#b6b6b6;stop-opacity:.7156"/><stop offset=".758" style="stop-color:#dedede;stop-opacity:.6209"/><stop offset=".908" style="stop-color:#f6f6f6;stop-opacity:.5459"/><stop offset="1" style="stop-color:#fff;stop-opacity:.5"/></linearGradient><circle cx="32" cy="32" r="30" style="opacity:.1;fill:url(#a)"/></svg>