<svg xmlns="http://www.w3.org/2000/svg" xml:space="preserve" style="enable-background:new 0 0 64 64" viewBox="0 0 64 64"><path d="M62 32H2c0 5.47 1.47 10.59 4.02 15h51.95C60.53 42.59 62 37.47 62 32z" style="fill:#0038b8"/><path d="M32 2C15.43 2 2 15.43 2 32h60C62 15.43 48.57 2 32 2z" style="fill:#ffe000"/><path d="M32 62c11.1 0 20.79-6.04 25.98-15H6.02C11.21 55.96 20.9 62 32 62z" style="fill:red"/><path d="m20.05 25.64-.95-.97-2.1-.49L18.07 26l1.18.54c-.59.59-1.32 1.11-2.03 1.11.38.84 1.57 1.48 2.54.98-.08-.48.2-1.13.56-1.72l21.69 15.8.69.81 1.25.29-.64-1.08-.99-.42-21.73-15.83c.38-.57.76-1 .76-1l-.79-.57s-.19.31-.51.73zm2.03-3.42-.86-.83-1.79-.52 1.02 1.52 1.02.51c-.46.43-1.03.8-1.63.75.37.7 1.42 1.28 2.19.94-.1-.39.1-.89.35-1.34l20.03 14.59.64.69 1.06.31-.61-.9-.86-.4-20.06-14.61c.29-.43.57-.75.57-.75l-.69-.51c0 .01-.15.24-.38.55z" style="fill:#bcbcbc"/><path d="m43.95 25.64.95-.97 2.1-.48-1.07 1.82-1.18.54c.59.59 1.32 1.11 2.03 1.11-.37.84-1.57 1.48-2.54.98.08-.48-.2-1.13-.56-1.72l-21.69 15.8-.69.81-1.25.29.64-1.08.99-.42L43.41 26.5c-.39-.57-.76-1-.76-1l.79-.57c0-.02.19.29.51.71zm-2.03-3.42.86-.83 1.79-.52-1.02 1.52-1.02.51c.45.43 1.03.8 1.63.75-.37.7-1.42 1.28-2.19.94.1-.39-.1-.89-.35-1.34l-20.03 14.6-.63.69-1.06.31.6-.9.86-.4 20.06-14.61c-.28-.43-.56-.75-.56-.75l.7-.51c-.01 0 .13.23.36.54z" style="fill:#bcbcbc"/><path d="M23.65 23.49v9.69c0 5.12 8.91 7.48 11-2.02l-11-7.67z" style="fill:#fad700"/><path d="M25.58 24.84s-.02 3.69-.02 6.55c0 4.52 7.35 7.44 9.08-.23l-9.06-6.32z" style="fill:#0038b8"/><path d="M23.54 22.72h.65v2.9h-.65z" style="fill:red"/><path d="M23.08 22.52h.65v2.9h-.65z" style="fill:#0038b8"/><path d="M22.14 27.35v9.69c0 5.12 8.91 7.48 11-2.02l-11-7.67z" style="fill:#ffe000"/><path d="M24.07 28.7s-.02 3.69-.02 6.55c0 4.53 7.35 7.44 9.08-.23l-9.06-6.32z" style="fill:#0038b8"/><path d="M26.05 30.09v4.89c0 3.25 7.47 7.19 7.47.55l-7.47-5.44z" style="fill:#ed1c24"/><path d="M22.03 26.59h.65v2.9h-.65z" style="fill:red"/><path d="M21.57 26.39h.65v2.9h-.65z" style="fill:#0038b8"/><path d="M40.35 23.49v9.69c0 5.12-8.91 7.48-11-2.02l11-7.67z" style="fill:#fad700"/><path d="M38.41 24.84s.02 3.69.02 6.55c0 4.52-7.35 7.44-9.08-.23l9.06-6.32z" style="fill:#0038b8"/><path d="M39.81 22.72h.65v2.9h-.65z" style="fill:red"/><path d="M40.26 22.52h.65v2.9h-.65z" style="fill:#0038b8"/><path d="M41.86 27.35v9.69c0 5.12-8.91 7.48-11-2.02l11-7.67z" style="fill:#ffe000"/><path d="M39.92 28.7s.02 3.69.02 6.55c0 4.53-7.35 7.44-9.08-.23l9.06-6.32z" style="fill:#0038b8"/><path d="M37.94 30.09v4.89c0 3.25-7.79 7.11-7.79.47l7.79-5.36zm3.37-3.5h.65v2.9h-.65z" style="fill:red"/><path d="M41.77 26.39h.65v2.9h-.65z" style="fill:#0038b8"/><path d="M43.45 19.64c-.35-.23-.82-.52-1.03-.6-.36-.13-3.75-2.04-7.19-1.87-1.19.06-1.02 1.01-1.02 1.01s-1.33.61-1.6.72a.87.87 0 0 0-.19-.1c-.19-.05-1.01-.52-1.99.26-.04-.01-.62-.4-.89-.44-.02-.21-.19-1.4-.61-1.45-.42-.05-1.36.04-1.52-.02-.17-.06-.69-.28-1.67-.01-.61.17-8.54 2.85-4.77 2.43 0 .04.05.1.32.11.12 0 .27 0 .45-.03-.07.06-.13.11-.14.15-.04.09.55.03 1.34-.17-.25.15-.35.31.22.32 0 0 .37-.08.89-.23-.15.13-.3.29-.23.31.09.03.36.2 1.25-.17-.16.14-.31.31-.28.34.04.03.43-.01.94-.19l-.28.38s.09.43 1.17-.26c-.16.2-.33.45-.3.52.04.08.42.08.86-.14-.15.22-.31.48-.24.53.08.07.43.08.81-.15-.11.18-.26.45-.21.5.06.05.31.18.66-.01-.06.19-.12.42-.04.46.11.05.35 0 .59-.26-.01.23-.01.48.06.5.11.03.39-.16.57-.54-.01.1-.06.66.02.72.08.06.28.08.53-.33-.01.23-.01.51.01.54.02.02.1.04.18.01-1.7 2.21-1.59 3.22-1.47 3.23.06 0 .18-.13.31-.34.1.39.62.07.92-.65 0 .01.26.3.55-.16.04.61.55.38.73-.23.66.93 1.35-.96 1.35-.96s.57.6.88-.58c.01-.05.38.39.3-.79.22.39.42.38.5.33.06-.04.06-.35.05-.55.17.27.44.41.55.4.09-.01.08-.31.06-.51.24.29.48.35.6.3.09-.03.04-.27-.02-.46.34.21.6.09.66.04.05-.05-.09-.32-.19-.51.37.24.71.24.8.18.07-.05-.09-.33-.24-.55.44.25.83.26.87.18.04-.06-.13-.32-.28-.53 1.05.73 1.16.31 1.16.31l-.25-.35c.5.16.88.2.92.17.03-.02-.05-.11-.16-.22.82.28 1.06.1 1.14.07.08-.03-.11-.19-.27-.31.47.16.79.25.79.25.62.02.46-.16.18-.33.69.22 1.18.3 1.15.22-.03-.11-.31-.32-.55-.48.51.23.86.34 1.09.39.48.11.26-.07.26-.07l-.61-.35c.28.11.49.17.65.2.48.11.26-.07.26-.07l-.86-.48c1.31.62 1.74.52 1.5.37z" style="fill:#452c25"/><path d="M30.54 19.89s-.03-.34.06-.38c0 0 .03-.31.45-.27 0 0 .14-.23.37-.11 0 0 .21-.11.34-.04.12.06.28.17.29.19 0 0 .18-.04.27.03.08.07.05.29.05.29s.2.16.22.29c.02.14.02.19-.03.23 0 0 .09.07.07.18-.02.1-.1.26-.12.26-.02 0 .01.27-.08.36-.09.09-.17.11-.21.12-.04.01-.14.16-.24.18-.1.02-.23-.15-.24-.2-.01-.05-.14-.11-.14-.11s-.29.31-.49.26c-.2-.05-.29-.21-.31-.24-.02-.03-.07-.26-.07-.26s-.22-.13-.2-.25c.02-.12.11-.27.11-.27l-.1-.26z" style="fill:#dcddde"/><path d="M28.82 20.67s-.19-.33.34-.49c0 0 .16.09.2.15 0 0-.09.15-.39.19-.01 0-.15.04-.15.15z" style="fill:#d9c0b9"/><path d="M28.87 20.62s.21.04.36-.06c.12-.09.16-.05.19-.04 0 0 .01-.11-.07-.19 0 0-.15.12-.26.16-.11.03-.19.02-.22.13z" style="fill:#d9c0b9"/><path d="M31.45 19.6s-.45.08-.57.11c-.12.03-.39.05-.49.05-.09 0-.24-.08-.34-.09-.1-.02-.43-.05-.55.07-.12.12-.2.17-.23.21-.04.04-.19.18-.2.24-.01.06.04.15.11.15.08 0 .23.16.23.19 0 .06.21.12.4.12.35 0 .53-.18 1.06-.12.29.03.82-.19.91-.33.09-.14.15-.28.06-.44-.08-.18-.36-.16-.39-.16z" style="fill:#dba05f"/><path d="M29.96 19.67s-.01-.15-.15-.2c-.14-.05-.3-.06-.35-.05-.06.01-.07.03-.14.04-.07.01-.15.05-.15.05s0-.01-.04.06c-.04.07-.1.1-.07.17.03.06.01.07.05.08.04.01-.02-.02-.02-.02s-.24.08-.18.23c.06.15.12.09.14.09.02 0 .14-.06.14-.06l.2-.18s.23-.09.26-.1c.02-.01.14 0 .14 0l.17-.11z" style="fill:#c6262c"/><path d="M29.78 20.01c0 .04-.04.08-.08.11-.04.02-.08.01-.08-.03s.04-.08.08-.1c.04-.03.08-.01.08.02"/><path d="M38.32 30.57c.03-.03.06-.05.1-.08.5-.42.99-.85 1.47-1.29-.08-1-.47-4.22-1.2-5.28.02.04.45.71.68 3.1-.58-1.88-1.44-3.28-1.44-3.28.38.81.98 2.51 1.38 4.07-.68-2.04-1.79-3.94-1.79-3.94.57 1.05.98 2.32 1.26 3.43-.77-1.73-1.78-3.34-1.98-3.66.21.36 1.14 2.23 1.52 3.32.04.13.09.27.14.43-.67-1.49-1.55-3.13-2.41-3.97 0 0 1.55 2.44 2.03 4.11.01.04.03.09.04.15-.76-1.18-1.63-2.31-2.05-2.85.53.73 1.31 2.11 1.89 3.56-.67-1.09-1.36-2.01-1.36-2.01.88 1.19 1.57 3.11 1.72 4.19zm-12.67 0c-.03-.03-.06-.05-.1-.08-.5-.42-.99-.85-1.47-1.29.08-1 .47-4.22 1.2-5.28-.02.04-.45.71-.68 3.1.58-1.88 1.44-3.28 1.44-3.28-.38.81-.98 2.51-1.38 4.07.68-2.04 1.79-3.94 1.79-3.94-.57 1.05-.98 2.32-1.26 3.43.77-1.73 1.78-3.34 1.98-3.66-.21.36-1.14 2.23-1.52 3.32-.05.13-.09.27-.14.43.67-1.49 1.55-3.13 2.41-3.97 0 0-1.55 2.44-2.03 4.11-.01.04-.03.09-.04.15.76-1.18 1.62-2.31 2.05-2.85-.53.73-1.31 2.11-1.89 3.56.67-1.09 1.36-2.01 1.36-2.01-.88 1.19-1.57 3.11-1.72 4.19z" style="fill:#009c4f"/><path d="M30.74 41.23c-.46.01-1.3.12-1.3.12s-1.48 2-1.51 2.42c-.03.42-.03.76.94.62 0 0 .47-.09.86-.12.43-.14.48-.04.52-.01.03-.15.12-.52.22-.94.2-.84.46-1.92.54-2.03v-.03c-.02-.03-.12-.04-.27-.03zm5.05 2.53c-.04-.42-1.51-2.42-1.51-2.42s-.85-.11-1.3-.12c-.15 0-.25 0-.28.02v.03c.08.11.34 1.19.54 2.03.1.42.18.79.22.94.05-.03.09-.13.52.01.39.03.86.12.86.12.99.16.99-.19.95-.61z" style="fill:#fd0"/><path d="M33.15 46.62c-.03-.11-.11-.24-.27-.41 0 0-.25-.29-.23-.6-.02-.16-.04-.45-.08-.8-.1-1.04-.25-2.6-.26-2.83-.02-.34-.05-.93-.05-.93l.39-.19c-.03-.23-.05-.37-.05-.37l-.73.56-.73-.56s-.02.14-.05.37l.39.19s-.04.58-.05.93c-.01.23-.16 1.79-.26 2.83-.03.35-.06.64-.08.8.02.32-.22.6-.22.6-.17.16-.25.3-.27.41 0 .03-.01.06-.01.09v.04c.04.19.3.26.47.24.28-.04.82-.38.82-.38l.01-.59.01.59s.53.35.82.38c.17.02.43-.05.47-.24v-.04c-.03-.02-.04-.05-.04-.09z" style="fill:#ed1c24"/><path d="M31.02 41.25c.01.01.01.02 0 .02-.08.11-.34 1.19-.54 2.03-.1.42-.22.93-.26 1.08-.04.09-.79.97-.8 1.25-.01.12.09.19.34.17.39-.02.67-.1.86-.15.25-.06.37-.09.44.07 0 0 0-.05.01-.13.02-.16.05-.45.08-.8.1-1.04.25-2.6.26-2.83.02-.34.05-.93.05-.93l-.39-.19c-.01.14-.03.27-.05.41zm2.49 3.14c-.03-.15-.16-.66-.26-1.08-.2-.84-.46-1.92-.54-2.03-.01-.01-.01-.02 0-.02-.02-.14-.04-.27-.05-.38l-.39.19s.04.58.05.93c.01.23.16 1.79.26 2.83.03.35.06.64.08.8.01.08.01.13.01.13.07-.16.19-.14.43-.07.2.05.47.12.86.15.26.02.35-.05.34-.17-.01-.31-.75-1.18-.79-1.28z" style="fill:#0045e3"/><path d="M26.3 31.31c0 4.03 2.54 7.3 5.67 7.3s5.67-3.27 5.67-7.3c0-4.03-2.54-7.3-5.67-7.3s-5.67 3.27-5.67 7.3" style="fill:#00c5ff"/><path d="M29.65 31.99c-.07.05-.07.12-.04.19.25.84 1.86.96 3.3.96-.43.23-1.01.07-1.31.3-.08.06 1.17.38 1.39.38.51.01 1.27-.04 1.75.16-.33.07-.74.04-1.01.24-.16.12-.03.18.02.22.71.49 2.01.45 2.78.8.37-1.03.7-2.2.81-3.29.04-.37-1.82-.1-2.1-.06-.31.04-.86-.09-1.21-.11-.49-.02-.99 0-1.49-.02-.98-.05-1.91.27-2.89.23m-.68 2.02c.17.05.66-.03.88-.12.15-.06-1.06-.39-1.23-.41.43.05 1.16-.08 1.53-.24-.1.04-1.11-.87-1.1-.87.22-.12.09-.51.09-.51s-2.57-.34-2.57-.18c0 1.23.26 2.58.87 3.65.34-.05 1.59-.26 1.52-.57.19.03.45.08.63.03.21-.05-.37-.39-.42-.39-.33-.03-.85-.13-1.16-.23.24.08.65-.25.96-.16z" style="fill:#6dbe45"/><path d="M26.57 31.82c.27-.25 5.19.74 5.19.03 0 0 4.94.04 5.48.12.02-.25.23-1.05-.09-1.08-1.67-.16-3.21-.85-4.9-.79-.72.02-1.61.11-2.29-.13-.91-.32-2.43-.33-3.32.03l-.07 1.82z" style="fill:#557176"/><path d="M26.45 29.89c.37-.08.5.15.76.15.44 0 .83.04 1.27-.04.17-.03.35-.05.52-.07.19-.02.04.18.14.22.09.04.59.37.64.36.32-.08.67-.28.99-.17.34.12 1.35.4 1.7.15.16-.12 1.16-.07 1.35.02.37.19 1.39.21 1.8.13-1.3-.43-2.26-.9-3.36-1.72-.51-.38-2.28-.98-2.84-.61-.88.56-1.86 1.51-2.94 1.55" style="fill:#fff"/><path d="M36.52 27.71c.06.11.3.91.3.91-.8-.9-2.68-1.53-4.86-1.53-2.16 0-4.02.62-4.84 1.5-.01.01.13-.4.29-.8.16-.39.35-.76.36-.77.96-.6 2.49-.99 4.2-.99 1.72 0 3.25.39 4.22 1-.02 0 .28.48.33.68z" style="fill:#949699"/><path d="M33.31 26.58s-.32-.1-.49-.14c.12-.08.33-.21.4-.3 0 0-.41.01-.56.04.07-.1.25-.35.3-.47 0 0-.38.17-.51.26.03-.12.1-.42.1-.56 0 0-.34.36-.39.46h-.01c-.01-.07-.08-.45-.14-.58 0 0-.12.34-.15.51-.07-.12-.21-.35-.29-.43 0 0 0 .47.04.6 0 0-.01 0-.01.01-.08-.06-.36-.26-.49-.31 0 0 .17.37.26.5-.12-.03-.41-.1-.54-.09 0 0 .27.26.4.36-.13.02-.4.06-.52.1 0 0 .37.16.52.2-.11.06-.37.21-.46.3 0 0 .41.01.56-.02-.08.09-.27.34-.32.46 0 0 .42-.16.53-.24.01.01.02.01.03.02-.02.1-.1.43-.1.58 0 0 .33-.36.38-.47.01.08.08.45.14.58 0 0 .16-.47.17-.59h.01c.04.06.26.37.37.46 0 0-.04-.48-.09-.59.01-.01.02-.01.03-.02.08.05.39.21.52.25 0 0-.2-.33-.3-.46.13.02.41.05.53.04 0 0-.28-.22-.43-.31.15-.03.41-.09.51-.15z" style="fill:#fd0"/><path d="M34.4 24.12s-1.09-.67-2.51-.66c-1.04.01-2.23.61-2.23.61-1.19.71-2.17 1.98-2.78 3.53-.43 1.1-.68 2.34-.68 3.68 0 3.81 2.12 6.86 4.76 7.59 0 0 .39.17.93.17s1.03-.07 1.03-.07c2.7-.67 4.83-3.79 4.83-7.65 0-5.01-3.87-7.53-3.35-7.2m-1.47 14.35s-.54.1-1.03.1c-.48 0-.95-.12-.95-.12-2.38-.66-4.27-3.55-4.27-7.04 0-1.22.27-2.43.66-3.44.55-1.42 1.48-2.52 2.55-3.17 0 0 1.08-.67 2.02-.68 1.28-.01 2.25.73 2.25.73 1.8 1.14 3.04 3.64 3.04 6.55 0 3.51-1.84 6.45-4.27 7.07" style="fill:#c69024"/><path d="m26.1 41.25-.7.25-1.04-.87 1.03-.9.67.26c-.06-.86-.21-1.75-.51-2.19.43-.49 1.14-.3 1.38.72-.19.36-.27 1.09-.31 1.81l11.32-.03.55-.26.62.52-.61.53-.55-.25-11.35.03c-.02.72.01 1.31.01 1.31l-.51.01c-.01-.01.01-.39 0-.94z" style="fill:#bcbcbc"/><path d="M27.97 38.96h8.07v3.33h-8.07z" style="fill:#f59e01"/><linearGradient id="a" x1="32" x2="32" y1="62" y2="2" gradientUnits="userSpaceOnUse"><stop offset="0" style="stop-color:#1a1a1a"/><stop offset=".102" style="stop-color:#393939;stop-opacity:.949"/><stop offset=".347" style="stop-color:#7f7f7f;stop-opacity:.8262"/><stop offset=".569" style="stop-color:#b6b6b6;stop-opacity:.7156"/><stop offset=".758" style="stop-color:#dedede;stop-opacity:.6209"/><stop offset=".908" style="stop-color:#f6f6f6;stop-opacity:.5459"/><stop offset="1" style="stop-color:#fff;stop-opacity:.5"/></linearGradient><circle cx="32" cy="32" r="30" style="opacity:.1;fill:url(#a)"/></svg>