<svg xmlns="http://www.w3.org/2000/svg" xml:space="preserve" style="enable-background:new 0 0 64 64" viewBox="0 0 64 64"><path d="M32 2S6.53 8 2 32c0 17.2 14.48 31.02 31.91 29.94 14.94-.93 27.1-13.09 28.03-28.03C63.02 16.48 49.2 2 32 2z" style="fill:#003893"/><path d="M32 2c-4.69 0-9.13 1.09-13.09 3.01L11 11l-5.99 7.91A29.896 29.896 0 0 0 2 32h12V17l12 15h6v-7.5L23.6 14H32V2z" style="fill:#fcfcfc"/><path d="M15.43 14 30 32h2v-4.94L21.43 14z" style="fill:red"/><path d="M18.91 5A30.153 30.153 0 0 0 5 18.91V32h6V11h21V5H18.91z" style="fill:red"/><path d="M39 31.27c0 9.92.79 13.44 3.51 16.17 2.72 2.72 3.74 3.15 4.5 3.57.87-.48 1.88-1.01 4.34-3.47 2.43-2.43 3.61-5.94 3.61-16.43-1.77.76-2.65 1.01-4.2 1-1.15.11-2.92-.62-3.97-1.1-.69.44-1.69.97-3.5 1.02-2.08.08-2.74-.25-4.29-.76z" style="fill:#cc3"/><path d="M39.48 31.9c0 3.07-.18 7.25.47 9.67.65 2.43.8 2.79 1.29 3.64l11.41-.08c.71-1.22.74-1.98 1.26-3.93.52-1.94.65-6.28.67-9.51-1.15.58-2.65.99-4.11.81-1.17-.08-2.25-.34-3.51-1.02-1.09.62-1.47.91-3.27.98-1.4.07-2.54.17-4.21-.56z" style="fill:#fff"/><path d="M41.27 45.14c.81 1.63 4.64 4.75 5.76 5.4 1.28-.74 4.66-3.82 5.6-5.4H41.27z" style="fill:#00b9ff"/><path d="M47.25 36.44c.36.81 1.52 1.7 1.84 2.14-.4.44-.49.39-.43 1.2.7-.7.72-.78 1.17-.67.99.94.18 2.97-.64 3.41-.82.47-.67-.02-1.9.57.56.46 1.22-.07 1.75.07.29.33-.14.93.09 1.49.47-.04.42-.95.52-1.28.34-1.21 2.41-2.05 2.52-3.15.44-.2.87-.06 1.4.22-.26-1.04-1.14-1.02-1.37-1.35-.56-.81-1.05-1.74-2.24-1.98-.9-.18-.84.05-1.42-.32-.37-.25-1.47-.76-1.29-.35z" style="fill:#f90"/><path d="M44.35 39.87c.58-.68.87-2.08 1.13-2.55.59.14.59.23 1.32-.2-.98-.27-1.05-.24-1.17-.67.41-1.28 2.67-1.54 3.46-1.05.82.47.3.57 1.42 1.33.16-.69-.63-.99-.75-1.51.17-.4.92-.32 1.34-.77-.26-.38-1.08.09-1.43.16-1.28.27-3.03-1.08-4.1-.65-.38-.28-.46-.71-.45-1.29-.84.71-.42 1.44-.61 1.79-.49.85-1.12 1.7-.79 2.82.25.85.44.68.36 1.34-.07.43-.03 1.59.27 1.25z" style="fill:#f90"/><path d="M49.08 40.35c-.91-.12-2.31.36-2.87.4-.19-.56-.1-.6-.86-.97.27.94.33.98 0 1.3-1.36.32-2.76-1.38-2.74-2.28 0-.91.36-.54.46-1.85-.7.22-.57 1.03-.97 1.39-.44.07-.76-.59-1.38-.69-.2.41.64.83.88 1.09.91.9.6 3.03 1.54 3.68-.05.46-.39.74-.92 1.03 1.07.32 1.51-.4 1.92-.43 1.02-.04 2.11.04 2.94-.81.63-.65.38-.71 1.02-.99.42-.16 1.44-.8.98-.87z" style="fill:#f90"/><path d="M49.66 37.18c.1 0 .19.08.19.18 0 .1-.08.18-.19.18-.1 0-.19-.08-.19-.18 0-.1.09-.18.19-.18zm-5.75.31c-.05-.09-.01-.2.08-.24.09-.05.21-.01.25.08.05.09.01.2-.08.24-.08.05-.2.01-.25-.08zm3.26 4.45c-.05.08-.17.11-.26.06a.171.171 0 0 1-.06-.25c.05-.09.17-.11.26-.06.09.06.12.17.06.25z" style="fill:#fff"/><linearGradient id="a" x1="32" x2="32" y1="62" y2="2" gradientUnits="userSpaceOnUse"><stop offset="0" style="stop-color:#1a1a1a"/><stop offset=".102" style="stop-color:#393939;stop-opacity:.949"/><stop offset=".347" style="stop-color:#7f7f7f;stop-opacity:.8262"/><stop offset=".569" style="stop-color:#b6b6b6;stop-opacity:.7156"/><stop offset=".758" style="stop-color:#dedede;stop-opacity:.6209"/><stop offset=".908" style="stop-color:#f6f6f6;stop-opacity:.5459"/><stop offset="1" style="stop-color:#fff;stop-opacity:.5"/></linearGradient><circle cx="32" cy="32" r="30" style="opacity:.1;fill:url(#a)"/></svg>