<svg xmlns="http://www.w3.org/2000/svg" xml:space="preserve" style="enable-background:new 0 0 64 64" viewBox="0 0 64 64"><path d="M32 2S6.53 8 2 32c0 17.2 14.48 31.02 31.91 29.94 14.94-.93 27.1-13.09 28.03-28.03C63.02 16.48 49.2 2 32 2z" style="fill:#003893"/><path d="M32 2c-4.69 0-9.13 1.09-13.09 3.01L11 11l-5.99 7.91A29.896 29.896 0 0 0 2 32h12V17l12 15h6v-7.5L23.6 14H32V2z" style="fill:#fcfcfc"/><path d="M15.43 14 30 32h2v-4.94L21.43 14z" style="fill:red"/><path d="M18.91 5A30.153 30.153 0 0 0 5 18.91V32h6V11h21V5H18.91z" style="fill:red"/><path d="M54.6 24.66H38.03l-.07 10.73c-.05 8.12 8.35 10.25 8.35 10.25s8.4-2.2 8.35-10.31l-.06-10.67z" style="fill:#2a7fff"/><path d="M43.74 34.42c-.29-.09-.14-.36.03-.48.1-.41.17-.82.22-1.23.01-.15.03.15-.01.14-.36-.05-.49-.57-.73-.65-.15-.04-.42-.1-.67-.36-.26-.26-.45-.62-.62-.95-.06-.65-.07-1.3-.03-1.95l-.1-.1c-.13-.37-.31-.71-.52-1.03-.19-.05-1.03.19-1.07-.1-.03-.18-.12-.34-.13-.53.33-.37 1.11-1.6 1.58-1.68 1.45-.25 2.46.56 3.56 1.55 1.58.18 4.05-.62 5.52-.03.24.1.66.38.88.6.18.18.41.67.55 1.15.08.28.1.49.07.65-.04.19-.1.22-.17.08-.29-.56 0 .59.05.76-.02.2-.04.4-.04.6l-.09.03c-.16.21-.26.46-.29.74l-.11.09c-.04.45.19.87.13 1.33-.05.2-.13.38-.23.55.04.11.07.23.09.35 0 .06 0 .07-.09.09l-.49-.03c.06-.27.13-.54.22-.81.01-.05 0-.18-.02-.31-.04-.28-.1-.43-.29-.66-.5-.62-.27-.09-.65.06-.05.02-.05.02-.05.16.02.16.06.32.12.47-.12.31-.26.62-.43.91.06.09.17.39-.01.43-.84.2-.44-.87-.18-1.3-.08-.23-.2-.61-.39-.78-.11-.09-.25-.12-.34-.25-.2.12-.4.15-.62.17-.12.06-.25.1-.39.13l-.07-.05-.06.04c-.27.2-2.06.06-2.13-.07l-.43.38-.08.08c-.15.07-.13 1.13-.15 1.29.08.1.22.35.09.44-.09.07-.26.11-.41.09-.11-.01-.13-.02-.2-.1l-.08-.08.1-.14c.37-.53-.1-1.98-.19-1.12-.02.35-.1.69-.25 1l.06.16c.07.18.06.2-.07.26-.06.03-.29.04-.39.01z" style="fill:#e5e5e5"/><path d="M55.37 45.67c-.13-.27-.51-.51-.82-.51l-.1-.02c0-.01.08-.16.17-.34.09-.18.17-.35.17-.37 0-.02-.08-.09-.18-.16-.5-.33-.61-.49-.88-1.24-.08-.23-.18-.46-.22-.51-.2-.29-.8-.39-1.26-.21-.23.09-.61.32-.87.53-.27.21-.66.6-.89.9l-.19.24.02.4c.03.58.12 1.11.23 1.37l.03.11c0 .03-.48.18-.9.3-.51.14-1.31.27-2 .34-.43.04-2.13.04-2.58 0-.72-.07-1.36-.16-1.88-.29-.34-.08-.99-.28-1.03-.31-.01-.01 0-.11.05-.24.13-.37.19-.77.23-1.5l.01-.23-.21-.26c-.48-.61-1.07-1.09-1.64-1.36-.29-.13-.42-.16-.69-.15-.35.02-.6.14-.73.35-.03.05-.1.27-.16.49-.19.73-.32.94-.84 1.3-.13.09-.25.18-.26.19-.02.02.07.21.21.42l.08.16-.17.03c-.28.04-.51.19-.66.43-.12.18-.1.21.29.69.08.1.18.24.23.31.1.16.23.52.29.76.06.26.08.3.21.43.31.31.91.53 1.35.49.47-.04.87-.26 1.28-.7l.19-.19.35.13c1.12.49 3.04.82 5.28.78 1.72-.03 3.17-.31 4.39-.73l.23-.08.2.19c.39.4.74.59 1.14.65.16.03.46.01.66-.04.25-.06.62-.25.78-.4.16-.15.16-.16.3-.63.1-.35.23-.61.44-.88.08-.11.2-.25.25-.33.14-.14.15-.21.1-.31zm-15.79.89s-.09.02-.19.04-.19.03-.2.04l-.03-.01-.22-.47c-.03-.1-.08-.29-.09-.36l-.01-.04.08.08c.2.19.47.42.65.55l.08.06-.07.11zm1.43-2.36c-.04.35-.13.64-.27.88l-.05.07-.1-.07c-.21-.15-.4-.31-.57-.48l-.1-.11.03-.08c.06-.24.21-.42.42-.5.23-.09.41-.05.59.12l.07.06-.02.11zm11.72.38-.17.15-.36.27-.11.08-.09.04c-.15-.24-.22-.51-.25-.85l-.01-.09.07-.06c.18-.17.36-.21.59-.12.21.08.36.26.42.5l-.09.08zm1.16 1.32c-.01.07-.08.25-.11.34l-.2.45-.03.01c-.01 0-.09-.02-.18-.04s-.17-.03-.17-.03l-.06-.09.07-.06c.17-.13.42-.36.6-.54l.07-.08.01.04z" style="fill:#eed3a6"/><path d="M52.87 44.54c.08-.08.18-.2.27-.31.23-.3.41-.62.49-.91.03-.1.04-.16.04-.26l-.01-.15c-.04-.2-.1-.33-.2-.43a.748.748 0 0 0-.32-.18c-.15-.05-.28-.07-.43-.07-.24.01-.44.07-.75.25l-.24.14v.05c.01.13.01.24.01.77 0 .39 0 .57.01.63l.01.1.04-.03.18-.13c.13-.07.27-.07.44 0 .18.07.32.21.39.4l.04.15.01.03.02-.05z" style="fill:#e6ba74"/><path d="M39.08 42.9c-.17 1.06-.67 1.31-1.15 1.6 0 0 1.52 3.74 8.47 3.7 5.92 0 7.8-2.28 8.4-3.8-1-.55-.91-1.01-1.15-1.5.22.98-1.9 3.65-7.23 3.65-6.22.01-7.43-3.09-7.34-3.65z" style="fill:#faecbd"/><path d="m38.98 47.62-.32-.97.58.33.08.18-.02.17-.03.11-.09.09z" style="fill:#e6ba74"/><path d="M37.36 45.61c-.07.11-.01.15 0 .22 0 0 .45.49.61.78.13.23.27.75.27.75-.04-.19.31-.49.56-.51.19-.02.45.13.49.32.03.17-.09.4-.3.44.59-.13.3-.7.19-.97 0 0-.17-.3-.23-.46-.11-.32-.21-.99-.21-.99-.72-.26-1.1-.01-1.38.42z" style="fill:#faecbd"/><path d="M39.88 44.47c-.08-.08-.18-.2-.27-.31-.23-.3-.41-.62-.49-.91a.783.783 0 0 1-.04-.26l.01-.15c.04-.2.1-.33.2-.43.08-.08.17-.13.32-.18.15-.05.28-.07.43-.07.24.01.44.07.75.25l.24.14v.05c-.01.13-.01.24-.01.77 0 .39 0 .57-.01.63l-.01.09-.04-.03-.18-.13c-.13-.07-.27-.07-.44 0a.67.67 0 0 0-.39.4l-.04.15-.01.03-.02-.04zm13.89 3.21.32-.96-.58.33-.08.18.02.17.04.11.08.09z" style="fill:#e6ba74"/><path d="M55.39 45.68c.07.11.01.15 0 .22 0 0-.45.49-.61.78-.13.23-.27.76-.27.76.04-.19-.31-.49-.56-.51-.19-.02-.45.13-.49.32-.03.17.09.4.3.44-.59-.13-.3-.7-.19-.97 0 0 .17-.3.23-.46.11-.32.21-.99.21-.99.73-.27 1.11-.02 1.38.41z" style="fill:#faecbd"/><path d="m40.27 45.25-.09-.06c-.04.11-.08.22-.15.33l-.19.33c-.07.12-.13.21-.2.27l.24.14c.14.08.27.1.41.07.14-.03.24-.12.32-.25.18-.31.07-.59-.34-.83zm.19.74c-.13.22-.32.26-.59.13l.42-.73c.11.07.19.16.22.26.03.12.01.23-.05.34zm.73.47.16-.12-.32-.15.14-.32.07.03.18.15.15-.12-.53-.25c-.02.11-.06.22-.11.33l-.16.34c-.07.14-.13.25-.18.31l.51.24.17-.16-.23-.03c-.03-.01-.1-.03-.22-.08l.15-.34.22.17zm.88-.35-.24-.01-.17.17.02.24.13.2.04.18-.1.09h-.14l-.1-.08-.05-.12-.07.19.17.12c.09.04.18.04.27.02.09-.03.15-.09.19-.18l-.02-.24-.13-.2-.04-.18.08-.08h.11l.09.07.06.1.07-.18-.17-.11zm.43.17c0 .09-.03.2-.06.31l-.15.46-.12.25.23.07c0-.1.02-.19.05-.28l.14-.45c.04-.12.08-.21.13-.29l-.22-.07zm.9.32c-.06-.05-.17-.09-.31-.13l-.11-.03c-.01.11-.02.21-.04.3l-.12.44c-.04.13-.07.23-.12.3l.23.06c0-.11.02-.22.05-.34l.04-.14c.09.24.18.44.27.58l.19.05c-.11-.2-.19-.39-.24-.58.15-.02.24-.09.27-.21.02-.13-.01-.23-.11-.3zm-.07.26-.12.14-.18.01.11-.42c.16.05.22.14.19.27zm.79-.02.21.1.12-.15-.57-.12c0 .11-.01.23-.03.34l-.08.37c-.03.16-.07.27-.11.34l.55.12.13-.19-.23.03c-.03 0-.11-.01-.23-.03l.08-.37c.1.03.17.06.23.11l.13-.15-.34-.07.07-.34.07.01zm.92.17.18-.04.18-.01-.02.63c-.01.18-.02.31-.05.39l.25.01c-.02-.09-.03-.22-.02-.38l.02-.64.15.02.14.06.06-.18-.83-.03-.06.17zm1.94.58-.01-.42c0-.12.01-.23.03-.33l-.25.01c.03.11.04.22.05.34v.15l-.48.01-.01-.21c0-.08.01-.17.03-.28l-.25.01c.03.1.04.22.05.36l.01.45c0 .13-.01.24-.03.33l.25-.01c-.03-.12-.05-.24-.05-.36v-.15l.48-.01.01.29c0 .06-.01.14-.03.23l.25-.01c-.03-.11-.05-.24-.05-.4zm.59.22-.03-.4c.11 0 .2.01.27.04l.09-.19-.37.03-.03-.37.08-.01.25.04.07-.19-.62.05c.04.11.06.23.07.36l.03.4c.01.17.01.3-.01.38l.59-.05.08-.23-.22.1c-.04.01-.12.02-.25.04zm1.86-.95c-.03-.13-.1-.21-.23-.23a.923.923 0 0 0-.35.03l-.12.03c.05.11.08.21.1.3l.1.46c.03.14.04.25.03.33l.24-.05c-.05-.1-.08-.21-.11-.34l-.03-.15c.19.18.36.32.52.41l.19-.04a2.95 2.95 0 0 1-.49-.41c.12-.1.17-.21.15-.34zm-.22.23-.16.1-.09-.44c.17-.02.27.03.3.16l-.05.18zm.73-.35c-.03-.12-.05-.23-.05-.33l-.24.06c.05.08.09.19.12.31l.13.48c.02.09.04.19.04.29l.24-.06c-.05-.09-.09-.18-.11-.27l-.13-.48zm1.26-.02-.02-.15-.23.08.12.22.05.14-.19.12c-.11.04-.21.03-.3-.03a.469.469 0 0 1-.18-.26.536.536 0 0 1-.01-.33c.04-.11.11-.18.22-.22a.53.53 0 0 1 .33-.01l-.06-.18c-.11 0-.2.02-.28.05-.16.06-.28.16-.35.3-.07.14-.08.3-.02.46.06.16.15.27.29.33.13.06.27.06.44 0 .11-.04.23-.1.34-.19l-.08-.18-.07-.15zm.86-.83c-.05-.11-.09-.21-.1-.31l-.22.11c.07.09.13.18.18.28l.06.13-.42.21-.09-.19c-.03-.07-.06-.16-.08-.26l-.22.11c.07.08.13.18.18.3l.19.4c.06.12.09.22.11.31l.22-.11c-.07-.09-.13-.19-.19-.3l-.06-.13.42-.21.12.25c.03.05.05.12.06.21l.22-.11c-.07-.08-.13-.19-.2-.32l-.18-.37zm.82-.02-.33-.52.13-.08.15-.04-.05-.18-.68.45.05.18.12-.13.14-.11.33.52c.09.15.15.26.17.34l.2-.14c-.06-.06-.14-.16-.23-.29zm-12.8-18.63.07-.09.08.04h.07v-.08l.07.08c-.01.04-.03.08-.13.09l-.14.12-.02-.16z"/><path d="M42.64 26.86c-.03-.12-.06-.23.01-.37.04-.12.21-.22.34-.24.21-.03.54.01.62.18.05.12.08.27-.15.35-.17.06-.34.28-.53.3-.09-.07-.12-.16-.29-.22z" style="fill:#d6b39d"/><path d="m42.81 26.77.11.12c.19-.15.4-.32.47-.29.03-.19-.55-.27-.58.17z" style="fill:#181818"/><path d="m40.35 27.61-.08-.01-.03-.01-.02-.01h.02l.03.01.07.01h.06l.06-.01h.01l-.05.02z"/><path d="M52.57 33.7c-.33-.28-.6-.05-.88.1.33-.16.38-.37.48-.58-.37-.07-.72.14-1.07.59.18-.21.31-.4.34-.54-.33.03-.51.1-.7.43.06-.17.08-.29.11-.38-.2-.04-.41.18-.61.36.13-.19.12-.28.02-.32-.07.11-.24.22-.49.32.02-.14 0-.3-.09-.48-.33.15-.2.44-.23.68-.04-.22.03-.47-.24-.63-.05.18-.07.36-.02.56-.07-.16-.12-.23-.32-.39-.07.07-.13.17-.15.31-.18-.18-.38-.04-.58.04.26-.18.16-.31.2-.46-.23.03-.38.14-.53.26.13-.12.21-.25.29-.43-.39-.03-1.1.58-1.1.58l.31-.42c-.33.03-.55.25-.8.41l.34-.53c-.39.07-.58.31-.8.49.14-.14.26-.3.29-.48-.39.08-.66.26-.83.53.09-.14.1-.3.1-.46-.49.24-.71.56-.87.9l.25-.69c-.39.16-.54.42-.76.64.14-.13.15-.26.16-.39-.22.07-.34.19-.46.32.09-.16.1-.26.06-.32-.21.02-.4.08-.46.34.02-.2-.01-.5-.07-.68-.13.16-.2.36-.27.56 0-.28-.01-.55-.12-.77-.14.2-.19.34-.22.55-.04-.27-.07-.55-.25-.73-.15.26-.1.46-.08.66l-.4-.62c-.02.39-.04.6.28.99-.19-.26-.37-.48-.59-.68-.01.33.04.65.24.93l-.53.2-.05.8 11.09.19.03-.73-.81-.74c.32-.01.62-.09.79-.29z" style="fill:#3d6c1e"/><path d="M54.66 35.19c-.34.01-1.25-1.05-2.44-1.05s-1.98 1.04-3.03.99c-1.05-.04-1.73-.99-2.92-.99s-1.59 1.04-2.78 1.04-1.59-1.04-2.78-1.04c-1.19 0-1.59 1.04-2.78 1.04v2.08c.21-.07 1.98-1.04 2.78-1.04.79 0 1.98 1.04 2.78 1.04.79 0 1.97-1.04 2.78-1.04.79 0 2.25 1.04 3.17 1.04 1.19 0 1.74-1.04 2.78-1.04.79 0 1.75 1.02 2.38 1.04 0-.69.09-1.98.09-1.98l-.03-.09zm-5.1 9.12c-1.6 0-2.06-1.01-3.18-1.04h-.11c-1.21.04-1.65 1.04-3.29 1.04 0 .08 2.88 1.38 3.29 1.38.41.01 4-1.45 3.29-1.38zm-.15-4.84c-1.59 0-1.99-1.04-3.18-1.04-1.19 0-1.59 1.04-2.78 1.04-1.19 0-1.89-1.05-2.73-1.05-.81.01-2.16 1.09-2.27 1.11.11.05 1.04 1.67 1.04 1.67s.38-.22 1.19-.35c.81-.13 1.66.74 2.62.89.95.15 2.12-.89 2.94-.89.79 0 1.88 1.09 2.92.89 1.05-.2 1.46-1.32 2.44-1.28.99.04 1.38.39 1.38.39l1.19-1.38s-1.19-.94-2.18-.99c-.99-.05-1.39.99-2.58.99z" style="fill:#fff"/><path d="M51.89 39.71c-.54.03-1.16.53-1.16-.23v-.43c-.09-.02-.63-.04-.85.02.09-.07.15-.16.17-.29-.01.07-.32-.47-.26-.34-.16-.38-.11-1.58.19-1.77-.21.13-.68.25-.94.25-.08 0-.06-.22.04-.37 0-.01.89-.72.63-.64-.21.06-.48.18-.7.18v-.75c-.06-.01-.55.05-.33.13-.23-.08-.9.13-1.21.23.32.08.81-.03 1.07.11.16.08.21.2.16.38-.13.03-.76.13-.8.24-.06.22.8.13.82.59-.17.05-1.14.23-1.08.38.11.29.07.21.03.71-.02.27.42 1.11.13 1.2-.44.13.93.19.93.45-.06.32.25 1.83-.06 2.09-.79.35-1.16.77-2.11.75 0-.81 0-1.63.01-2.44.01-.93.3-.48.8-.97l.35-.47c-.15-.4-.54-.73-.41-1.26.03-.13.53-1.03.43-1.07-.24-.09-.91.21-1.17.28-.02-.1.01-.54.16-.48.17.07.27.06.4-.06.13-.11.26-.38.22-.43-.08-.08-.66.14-.78.17l.03-.86c-.07-.01-.48-.04-.33.11-.24-.24-1.75.11-2.04.27.23-.04.46-.05.65.1.41.34.7-.12 1.17.11.91.45-.96.4-.47.78.32.25.58-.25.72.35-.27.07-.88.39-.87.39-.4.13-.19 2.16-.12 2.26.18.29.71-.03.86.12.45.45.12 2.43.13 3.05-.54-.11-1.02-.16-1.46-.51-.91-.72-.67-1.39-.69-2.45l1.06-.72c.05-.09-.51-.97-.29-1.42 0 0 .38-.59.24-.59-.3 0-.68.18-.97.26-.18.05.12-.76.26-.62.2.2.37-.15.45-.25.18-.22-.74.05-.78.05-.02 0 .01-.77.02-.87-.05.02-.38-.05-.38.06l.08.11c-.13.14-1.31.02-1.6.14-.21.09-.22.13-.01.08.41-.09.46.38.89.17.21-.1.7-.09.7.26v.13c-.22.03-1 .12-.72.41.11.11.26.12.37.01l.09-.08c.77.71-.44.45-.81.78-.36.33.39 1.47.39 1.76 0 .1-.45 0-.37.2l.74.11.1-.08c.19.16.38 1.54.2 1.54-.29 0-2.43-.82-2.51-1.15-.03-.11-.12-.82-.24-.82-.22 0 .16.67.06.77-.2.2-1.68-1.03-1.91-.8-.07.07 1.83.91 1.95 1 .01 0 .26 1.12.32.97l-.1-.86c.13.05.75.23.71.4-.06.24.27.68.52.64.43-.08.47.8.61 1.09.55 1.1 1.5 1.87 2.72 2.1 2.29.43 4.25-1.02 4.96-3.14.35.01.73.05 1.08.01-.27.03.1-1.32.1-1.43-.03-.11-.03-.11-.19-.1zm-3.18-.79c-.01.14-.02.15-.27.22-.35.1-.4.09-.26-.03.05-.05.56-.56.53-.19zm-1.34-.18.05-.01-.05.01zm-.82-.09c.12 0 .97.06.8.09-.27.06-.54.14-.8.22v-.31zm-.28.39-.33.09c-.25.17-.36.18-.34.02.07-.08.51-.39.6-.42.1-.05.08.25.07.31zm-2.63.12c.04-.01.11-.03 0 0-.1.02-.23.06-.29.07-.1.03-.1.03-.02-.06.14-.13.3-.24.47-.32.16 0-.1.29-.16.31zm.46-.39c.12 0 .67.07.8.03-.05.02-.19.06-.35.11-.08.05-.45.19-.45-.02v-.12zm.82.02-.01.01.01-.01zm-.34.11h-.02.02zm-.02.01h-.01.01zm4.42-.15c.09-.15.54.03.73.01-.1.04-.2.07-.31.1-.02.01-.62.21-.42-.11zm.46.1-.02.01.02-.01zm1.18 1.1c-.3.05-1.06.04-1.29.25-.09.08-.03.22.01.3 0-.12.15.46.04.48l-.09.01-.23.48s-.07-1.32-.06-1.6c.02-.46.47-.54.77-.73 0 .15.71.09.75.11.16.04.19.68.1.7z" style="fill:#fec618"/><path d="M54.84 24.3H37.78v11.44c-.05 8.12 8.66 10.07 8.66 10.07s8.58-2.01 8.53-10.13l-.13-11.38zm-8.41 21.15s-8.37-1.95-8.32-10.06l.06-10.73h16.3l.11 10.67c.05 8.11-8.15 10.12-8.15 10.12z" style="fill:#a02c2c"/><path d="m41.68 26.36-.13.1-.13-.1.13-.09z"/><linearGradient id="a" x1="32" x2="32" y1="62" y2="2" gradientUnits="userSpaceOnUse"><stop offset="0" style="stop-color:#1a1a1a"/><stop offset=".102" style="stop-color:#393939;stop-opacity:.949"/><stop offset=".347" style="stop-color:#7f7f7f;stop-opacity:.8262"/><stop offset=".569" style="stop-color:#b6b6b6;stop-opacity:.7156"/><stop offset=".758" style="stop-color:#dedede;stop-opacity:.6209"/><stop offset=".908" style="stop-color:#f6f6f6;stop-opacity:.5459"/><stop offset="1" style="stop-color:#fff;stop-opacity:.5"/></linearGradient><circle cx="32" cy="32" r="30" style="opacity:.1;fill:url(#a)"/></svg>