<svg xmlns="http://www.w3.org/2000/svg" xml:space="preserve" style="enable-background:new 0 0 64 64" viewBox="0 0 64 64"><path d="M48 6.63A29.831 29.831 0 0 0 32 2c-5.88 0-11.37 1.7-16 4.63v50.74A29.831 29.831 0 0 0 32 62c5.88 0 11.37-1.7 16-4.63V6.63z" style="fill:#fcfcfc"/><path d="M48 6.63v50.74C56.41 52.13 62 42.53 62 32S56.41 11.87 48 6.63zm-32 0C7.59 11.87 2 21.47 2 32s5.59 20.13 14 25.37V6.63zm29.64 24.75c-.54-.26-.57-.8-.51-1.16l1.29-5.02-4.34 1c-.15.02-.57-.01-.78-.96l-.38-1.71-3.01 3.83s-1.95 2.34-1.34-1.23l1.31-7.64-2.42 1.33c-.14.06-.61.14-1.25-1.19L32 14l-2.21 4.63c-.63 1.33-1.11 1.25-1.25 1.19l-2.42-1.33 1.31 7.64c.61 3.58-1.34 1.23-1.34 1.23l-3.01-3.83-.38 1.71c-.21.94-.63.98-.78.96l-4.34-1 1.29 5.02c.06.36.03.9-.51 1.16l-1.36.66s4.98 4.41 6.61 5.91c.32.29 1.09 1.14.82 2.06l-.58 2 6.82-1.15c.35-.03 1.1.04 1.05 1.26L31.4 50h1.19l-.32-7.88c-.05-1.22.7-1.29 1.05-1.26l6.82 1.15-.58-2c-.26-.91.5-1.77.82-2.06 1.63-1.5 6.61-5.91 6.61-5.91l-1.35-.66z" style="fill:red"/><linearGradient id="a" x1="32" x2="32" y1="62" y2="2" gradientUnits="userSpaceOnUse"><stop offset="0" style="stop-color:#1a1a1a"/><stop offset=".102" style="stop-color:#393939;stop-opacity:.949"/><stop offset=".347" style="stop-color:#7f7f7f;stop-opacity:.8262"/><stop offset=".569" style="stop-color:#b6b6b6;stop-opacity:.7156"/><stop offset=".758" style="stop-color:#dedede;stop-opacity:.6209"/><stop offset=".908" style="stop-color:#f6f6f6;stop-opacity:.5459"/><stop offset="1" style="stop-color:#fff;stop-opacity:.5"/></linearGradient><circle cx="32" cy="32" r="30" style="opacity:.1;fill:url(#a)"/></svg>