<svg xmlns="http://www.w3.org/2000/svg" xml:space="preserve" style="enable-background:new 0 0 64 64" viewBox="0 0 64 64"><path d="M61.72 28a29.39 29.39 0 0 0-.55-3H2.83c-.24.98-.41 1.98-.55 3h59.44zM2.28 36c.14 1.02.32 2.02.55 3h58.34c.24-.98.41-1.98.55-3H2.28z" style="fill:#ffe000"/><path d="M20 4.49c-1.03.45-2.03.95-3 1.51v52c.97.56 1.97 1.06 3 1.51V4.49zm8-2.23v59.47c.99.13 1.98.23 3 .26V2c-1.02.03-2.01.13-3 .26z" style="fill:#ffe000"/><path d="M2 32c0 1.36.1 2.69.27 4h59.45c.18-1.31.28-2.64.28-4 0-1.36-.1-2.69-.27-4H2.27C2.1 29.31 2 30.64 2 32z" style="fill:#e81c27"/><path d="M20 59.5a29.48 29.48 0 0 0 8 2.23V2.27c-2.81.38-5.49 1.13-8 2.23v55z" style="fill:#e81c27"/><path d="M17 25V6.02C9.98 10.08 4.77 16.9 2.83 25H17zm0 14.02V58C9.98 53.94 4.77 47.12 2.83 39.02H17zM32 2c-.34 0-.67.01-1 .03V25h30.17C58.01 11.81 46.16 2 32 2zm-1 37v22.97c.33.01.66.03 1 .03 14.16 0 26.01-9.81 29.17-23H31z" style="fill:#0038b8"/><linearGradient id="a" x1="32" x2="32" y1="62" y2="2" gradientUnits="userSpaceOnUse"><stop offset="0" style="stop-color:#1a1a1a"/><stop offset=".102" style="stop-color:#393939;stop-opacity:.949"/><stop offset=".347" style="stop-color:#7f7f7f;stop-opacity:.8262"/><stop offset=".569" style="stop-color:#b6b6b6;stop-opacity:.7156"/><stop offset=".758" style="stop-color:#dedede;stop-opacity:.6209"/><stop offset=".908" style="stop-color:#f6f6f6;stop-opacity:.5459"/><stop offset="1" style="stop-color:#fff;stop-opacity:.5"/></linearGradient><circle cx="32" cy="32" r="30" style="opacity:.1;fill:url(#a)"/></svg>