<svg xmlns="http://www.w3.org/2000/svg" xml:space="preserve" style="enable-background:new 0 0 64 64" viewBox="0 0 64 64"><path d="M12 12h21.53v21.53H12z" style="fill:#003893"/><path d="M18.91 8.14V14H11.6L26 32h6v-7.5z" style="fill:#fcfcfc"/><path d="M32 2v30H2c0 16.57 13.43 30 30 30s30-13.43 30-30S48.57 2 32 2z" style="fill:#0fb4d4"/><path d="M11 18.91H5.01C3.09 22.87 2 27.31 2 32h12V13.91h-3v5z" style="fill:#fcfcfc"/><path d="M32 27.06 19 11h-6l17 21h2z" style="fill:red"/><path d="M18.91 5.01V11H11v3h21V2c-4.69 0-9.13 1.09-13.09 3.01z" style="fill:#fcfcfc"/><path d="M32 5H18.91A30.153 30.153 0 0 0 5 18.91V32h6V11h21V5z" style="fill:red"/><path d="M39.15 26.89v13.15c0 4.3 7.77 6.85 7.77 6.85s7.77-2.55 7.77-6.85V26.89H39.15z" style="fill:#fcfcfc"/><path d="M54.69 31.97v-5.08H39.15v5.08h6.69v5.46h-6.69v2.16h6.69v6.89l1.08.41 1.07-.41v-6.89h6.7v-2.16h-6.7v-5.46z" style="fill:red"/><path d="M54.18 30.61c0-.13-.35-.14-.38-.33-.06-.49-.24-.68-.5-.75-.27-.07-.44.04-.44.04-.08.11-.47.11-.7.12-.22.01-.66-.53-.72-.56.29 0 .5-.13.82-.47.35-.37.6-.23.6-.23-.17.34.06.31.06.31.47-.24-.07-1.13-.21-1.1-.62.87-.61-.11-1.51-.16-.48-.03-1.55.21-1.9.35-.35.14-1.47-.18-2.14-.1-1.45.18-1.5-.58-1.5-.58s-.95.81.86 1.63c0 0-.7-.69 2.71-.49.78-.13 2.12-.66 2.48-.32 0 0 .04.27.19.34 0 0 .02.3-.99.25-2.45-.14-5.95 1.09-6.38.24-.27-.54.74-.74.74-.74-.23-.28-.71-.13-.71-.13.01-.34-.13-.74-.13-.74-.48.05-.75.45-.75.45-.02-.35-.47-.55-.47-.55.17.2.06 2.02-1.16 1.46 0 0-.68-.4-.92-.39-.24.01-1.52.61-1.17.95 0 0 .99-.63 1.47-.12.57.61 1.54.57 1.54.57-.12.26-.47 1.06-.47 1.06h.01c0 .01-.01.01-.01.02 0 0-.54.19-.78.45 0 0-1.71-1.35-1.84-.05-.03.31 1.4.75 2.44.41.59-.14.79-.38.79-.38.19-.04 2.79.22 5.56-1.2.57-.82 1.43-.39 1.43-.39s-1.37.03-1.25.9c.03.19.63.35.47.6l-.01.01c-.26.36-.97-.43-1.32-.53-.16-.04-.66.11-.24.61.45.55 1.31 1.29 2.67-.12.23-.24-.27-.37-.38-.52-.11-.15.03-.12.03-.12.42.23.46-.5.46-.5.04.42.41.54.41.54.23-.23.06-.7.06-.7.55.98.88.82.88.82-.29-.18-.15-.43-.15-.43.27 1.04 1.35.13 1.35.13-.05.15 0 .24.1.33.1.1.21.14.16.32-.05.22-.55.18-.55.18s-.49-.03-.45.39c.03.09 1.84.21 1.84-.78z" style="fill:#ffe000"/><path d="M45.06 44.65c.03.01.02 0 0 0zm-.84-1.01c-.03-.3-.41-1.01-.41-1.01 1.06.14 1.46-.98 1.46-.98-.27.11-.93-.2-.93-.2.97-.09.93-1.1.93-1.1-.16.67-1.45.58-1.45.58.37-.16.58-.9.58-.9-.08.26-.78.48-1.22.73-.44.25-.21.96-.21.96-.13-.08-.37-.47-.41-.8-.05-.33-.18-.47-.48-.51-.3-.04-.48.3-.48.3l-.45.23.46.02s.33.11.33.37-.29 1.28.19 1.86c.32.39 1.46.61 1.54.63l.44 1.06.38-.42.77.04c-.29-.04-1.04-.86-1.04-.86z" style="fill:#bcbcbc"/><path d="M53.46 40.19s-.31-.09-.79-.28c-.48-.19-1.02.52-1.02.52-.22.38.38.37.4.3.02-.07.21-.26.44-.4s.47.34.73.34c.24 0 .24-.47.24-.48z" style="fill:red"/><path d="M50.03 41.17s0-.95.85-.98c.54-.02 1.72.6 1.84 1.13.12.55-.26.93-.6 1.1" style="fill:#ffe000"/><path d="m53.21 33.38.93.01c-.24-.42-1.02-.44-1.65-.34.39-.13.88-.26.96-.28-.2-.14-1.01-.65-2.05.38h-.02c-1.04-1.03-1.86-.52-2.05-.38.08.01.56.15.96.28-.63-.1-1.42-.08-1.65.34l.93-.01c-.39.19-.6.21-.66.66.02-.01.51-.14 1-.27-.27.13-.51.3-.62.46.44.04.83-.08 1.12-.22-.18.23-.29.49-.28.63.22-.04.44-.23.63-.42-.11.43-.1.87.02 1.05.18-.14.31-.38.41-.64l-.01.25h.39l-.02-.36c.1.3.24.59.44.74.13-.18.13-.62.02-1.05.18.2.41.38.63.42.02-.15-.1-.4-.28-.63.29.14.68.26 1.12.22-.11-.17-.35-.33-.62-.46.49.13.98.26 1 .27-.05-.45-.26-.47-.65-.65z" style="fill:#00a650"/><path d="M51.07 34.22h.63V37h-.63z" style="fill:red"/><path d="M49.96 41.16c-.64 0-.14 1.41-.43 1.25-.41-.22-.63 1.06.01 1.49 1.03.69 1.85-.15 1.72-.38-.21-.38.93-.57.93-.86.01-.82-1.55-1.49-2.23-1.5zm-6.1-6.89c-.01-.02-.01-.05-.02-.07-.02-.22-.09-.39-.24-.46-.23-.28-.47-.12-.68.19-.13.09-.22.17-.28.25.02-.87.15-1.67 1.27-.56 0 0 .03-.45-.62-.94-.67-.51-.95.12-1.02.91-.09-.15-.29-.38-.74-.57-.81-.35-.91.36-.79 1.13-.32-.39-.72-.57-1.09-.02-.41.6-.23.89-.23.89.72-1.39 1.12-.53 1.47.13-.46-.36-1.09-.67-1.21-.02-.08.5.13.64.13.64.06-1.58 1.2.07 1.53-.08 0 0 .01 0 .01-.01.01-.01.02-.03.02-.05.11-.16.14-.63.24-.97.33.23.66.88.87.83 0 0 .01 0 .01-.01.01-.01.03-.02.04-.05.11-.11.21-.39.32-.67.37-.05.38 1 .61 1.01h.01c.01 0 .03-.01.04-.03.36-.18 1.22-1.7 1.22-.17 0 0 .19-.19.13-.7-.07-.66-.6-.26-1 .2.31-.75.68-1.7 1.24-.37 0 0 .16-.34-.17-.91-.35-.63-.77-.16-1.07.48zm-2.42-.07c-.1-.02-.19 0-.27.06-.02-.11-.03-.22-.04-.32.32-.3.54-.29.69-.12-.17.01-.29.16-.38.38zm-.2.44c.03-.02.05-.04.07-.05-.02.07-.03.14-.04.21-.01-.06-.02-.11-.03-.16zm1.49-.37c-.04.08-.07.17-.1.25v-.19c.03-.02.07-.04.1-.06zm-.47-.56c0-.01-.01-.02-.01-.02s.01 0 .01.01v.01zm-.52.64c.07-.1.16-.14.29-.09.05.17.1.36.14.54-.13-.17-.28-.34-.43-.45zm1.25.08c.08-.15.16-.27.25-.33.37.01.27.57.19 1.04-.08-.33-.23-.66-.44-.71z" style="fill:#00a650"/><path d="M49.61 44.13c-.04-.03.12-.1.12-.12 0-.05-.09-.15-.12-.13 0 0-.1.16-.12.15-.62-.41-1.02 1.28-1.02 1.28s1.8-.7 1.14-1.18zm-8.55-8.76.21 1.41.32-.04-.21-1.41z" style="fill:red"/><path d="M41.6 35.71h1.56v.33H41.6z" style="fill:red" transform="rotate(-85.429 42.38 35.871)"/><path d="m42.85 36.58.24.11.58-1.19-.24-.11z" style="fill:red"/><linearGradient id="a" x1="31.998" x2="31.998" y1="62" y2="2" gradientUnits="userSpaceOnUse"><stop offset="0" style="stop-color:#1a1a1a"/><stop offset=".102" style="stop-color:#393939;stop-opacity:.949"/><stop offset=".347" style="stop-color:#7f7f7f;stop-opacity:.8262"/><stop offset=".569" style="stop-color:#b6b6b6;stop-opacity:.7156"/><stop offset=".758" style="stop-color:#dedede;stop-opacity:.6209"/><stop offset=".908" style="stop-color:#f6f6f6;stop-opacity:.5459"/><stop offset="1" style="stop-color:#fff;stop-opacity:.5"/></linearGradient><circle cx="32" cy="32" r="30" style="opacity:.1;fill:url(#a)"/></svg>