<svg xmlns="http://www.w3.org/2000/svg" xml:space="preserve" style="enable-background:new 0 0 64 64" viewBox="0 0 64 64"><path d="M32 2S6.53 8 2 32c0 17.2 14.48 31.02 31.91 29.94 14.94-.93 27.1-13.09 28.03-28.03C63.02 16.48 49.2 2 32 2z" style="fill:#003893"/><path d="M32 2c-4.69 0-9.13 1.09-13.09 3.01L11 11l-5.99 7.91A29.896 29.896 0 0 0 2 32h12V17l12 15h6v-7.5L23.6 14H32V2z" style="fill:#fcfcfc"/><path d="M15.43 14 30 32h2v-4.94L21.43 14z" style="fill:red"/><path d="M18.91 5A30.153 30.153 0 0 0 5 18.91V32h6V11h21V5H18.91z" style="fill:red"/><path d="m47.35 22.2-.38 1.88 1.23-1.47 1.23 1.47-.38-1.88 1.91-.04-1.71-.87 1.17-1.53-1.75.79-.47-1.86-.47 1.86-1.75-.79 1.16 1.53-1.71.87zm11.93 7.6-1.71-.87 1.16-1.53-1.74.79-.47-1.86-.47 1.86-1.75-.79 1.16 1.53-1.71.87 1.92.04-.38 1.88 1.23-1.47 1.23 1.47-.39-1.88zM39.9 31.42l1.16-1.53-1.74.8-.48-1.86-.47 1.86-1.74-.8 1.16 1.53-1.71.87 1.92.05-.39 1.88 1.23-1.47 1.24 1.47-.39-1.88 1.92-.05zm9.35 14.81 1.17-1.52-1.75.79-.47-1.86-.47 1.86-1.75-.79 1.16 1.52-1.71.88 1.92.04-.38 1.88 1.23-1.47 1.23 1.47-.38-1.88 1.91-.04zm3.04-11.16-.35-1.08-.35 1.08h-1.13l.92.67-.36 1.07.92-.66.92.66-.35-1.07.91-.67zM6.46 39.52 5.77 43 8 40.29 10.22 43l-.68-3.48 3.46-.09-3.08-1.62 2.09-2.83-3.16 1.46L8 33l-.86 3.44-3.15-1.46 2.09 2.83L3 39.43z" style="fill:#fcfcfc"/><linearGradient id="a" x1="32" x2="32" y1="62" y2="2" gradientUnits="userSpaceOnUse"><stop offset="0" style="stop-color:#1a1a1a"/><stop offset=".102" style="stop-color:#393939;stop-opacity:.949"/><stop offset=".347" style="stop-color:#7f7f7f;stop-opacity:.8262"/><stop offset=".569" style="stop-color:#b6b6b6;stop-opacity:.7156"/><stop offset=".758" style="stop-color:#dedede;stop-opacity:.6209"/><stop offset=".908" style="stop-color:#f6f6f6;stop-opacity:.5459"/><stop offset="1" style="stop-color:#fff;stop-opacity:.5"/></linearGradient><circle cx="32" cy="32" r="30" style="opacity:.1;fill:url(#a)"/></svg>