<svg xmlns="http://www.w3.org/2000/svg" xml:space="preserve" style="enable-background:new 0 0 64 64" viewBox="0 0 64 64"><path d="M62 32C62 15.43 48.57 2 32 2v60c16.57 0 30-13.43 30-30z" style="fill:#fcfcfc"/><path d="M2 32c0 16.57 13.43 30 30 30V2C15.43 2 2 15.43 2 32z" style="fill:#007934"/><path d="m40.65 39-.01-5.36L46 32l-5.36-1.64.01-5.36-3.3 4.34L32 27.67 35.32 32 32 36.33l5.35-1.67z" style="fill:#e81c27"/><path d="M37.25 44c-6.55 0-11.87-5.37-11.87-12s5.31-12 11.87-12c2.51 0 4.83.79 6.75 2.13C41.28 18.99 37.29 17 32.83 17 24.64 17 18 23.71 18 32c0 8.28 6.64 15 14.83 15 4.46 0 8.45-1.99 11.17-5.13A11.744 11.744 0 0 1 37.25 44z" style="fill:#e81c27"/><linearGradient id="a" x1="32" x2="32" y1="62" y2="2" gradientUnits="userSpaceOnUse"><stop offset="0" style="stop-color:#1a1a1a"/><stop offset=".102" style="stop-color:#393939;stop-opacity:.949"/><stop offset=".347" style="stop-color:#7f7f7f;stop-opacity:.8262"/><stop offset=".569" style="stop-color:#b6b6b6;stop-opacity:.7156"/><stop offset=".758" style="stop-color:#dedede;stop-opacity:.6209"/><stop offset=".908" style="stop-color:#f6f6f6;stop-opacity:.5459"/><stop offset="1" style="stop-color:#fff;stop-opacity:.5"/></linearGradient><circle cx="32" cy="32" r="30" style="opacity:.1;fill:url(#a)"/></svg>