<svg xmlns="http://www.w3.org/2000/svg" xml:space="preserve" style="enable-background:new 0 0 64 64" viewBox="0 0 64 64"><path d="M17 6.02C2.66 14.31-2.26 32.65 6.02 47l51.96-30C49.69 2.66 31.35-2.26 17 6.02z" style="fill:#ffe000"/><path d="M47 57.98C61.34 49.69 66.26 31.35 57.98 17L6.02 47C14.31 61.34 32.65 66.26 47 57.98z" style="fill:#ff4e12"/><path d="M51.75 24.11a1.741 1.741 0 0 0 0 3.48c.96 0 1.74-.78 1.74-1.74.01-.96-.77-1.74-1.74-1.74zM30.33 37.45c-.93 0-1.69.75-1.69 1.69s.75 1.69 1.69 1.69c.93 0 1.68-.75 1.68-1.69s-.75-1.69-1.68-1.69zm-3.92 8.44c-1.08 0-1.96.88-1.96 1.96s.88 1.96 1.96 1.96 1.96-.88 1.96-1.96-.87-1.96-1.96-1.96z" style="fill:#fff"/><path d="M54.53 26.82c-.38-.08-.09-1.35-1.46-1.09.58.35.14 1.06.62 1.38-.3 0-.67.12-.81.51a.581.581 0 0 0-.14-.52c.01-.29-.63-1-1.23-.74.43.09.19.79.5 1.06-.23.01-.46.13-.6.33-.16-.29-.74-.59-1.09-.62 0-.1-.02-.3-.06-.4-.16-.3-.29-.66-.23-1.12-.3.33-.55.78-.7 1.11-.48-.33-1.66.15-2.21.28-.55.13-2.41-.18-2.84-.63-.43-.45-1.26-.73-2.04-.96-1.03-.3-1.08-1.39-2.12-2.18-.02-.25-.01-.5.04-.76.71.47.85 1.53 1.87 1.91 1.16.43 1.27 1.46 2.21 1.21-.88-.24-.82-1.26-1.74-1.51-1-.27-1.43-1.72-2.17-2.12.12-.21.32-.49.44-.6.75-.65-2.9-1.33-4.91-1.1-.26-.23-.55-.15-.76.26-.11.22-.14.42-.1.58-.17.02-.31.18-.4.46-.08.25-.07.47.02.62-.14.08-.22.27-.21.56.01.32.12.56.3.63-.32.12-.58.58-.63 1-.09.69-1.07.92-.53 1.96.11-.67.55-1.03.91-1.06.22-.02.51-.05.75-.18-.11.27-.06.63.13.89.2.26.5.38.77.31-.19.28-.16.74.11 1.1.1.13.26.21.44.25-.05.07-.1.14-.15.22-.29.49-1.18-.14-1.48.52.41-.18.83.2 1.02.33.3.2.77.26 1.14.12-.05.13-.07.25-.06.35.01.15.11.39.27.59-.18-.04-.37-.05-.51-.02-.35.09-1.03-.01-1.18-.39-.13.3.06.63.57.79.3.1.36.29.32.43h-.04c-.02-.16-.24-.3-.4-.35-.17-.06-.4 0-.45.14h-.01c0-.29-.17-.64-.73-.78-.5-.13-.83.03-.9.15.14-.19.05-.55-.4-.74-.3-.13-.55-.04-.69.11a.518.518 0 0 0-.27-.53c-.51-.25-.33-.91-.65-1.03-.33-.13-.64-.35-.65-.58-.16.31-.06.6.16.8.11.1.07.33.04.57a.686.686 0 0 0-.38-.23.531.531 0 0 0-.55.16c-.06-.17-.24-.3-.48-.36a.53.53 0 0 0-.56.21c-.08-.18-.27-.31-.54-.33a.514.514 0 0 0-.49.23c-.1-.35-.43-.69-.78-.75-.44-.08-.96-.08-1.13-.52-.11.38.18.62.5.83.21.13.13.4.17.66-.25-.21-.67-.22-.93-.12-.33.13-.57.6-.42.99-.01 0-.02.01-.02.01-.29-.31-.84-.23-1.09.04-.17.19-.22.44-.15.64-.5-.42-1.02-.37-1.33-.13-.67.53-1.31.23-1.33.75.4-.31.75.06 1.08-.05.14-.05.26.04.42.13-.13.09-.2.23-.17.44-.17.08-.25.51-.01.8-.34-.04-.75.28-.83.69-.06.28-.02.62.1.87-.92.21-1.58 1.54-2.64 1.24.46.73 1.57 0 1.99.08.04.01.08.01.13.02-.22.15-.31.43-.38.91-.04.28.03.5.16.63-.41.2-.73.75-.67 1.06-.66.1-.89.79-1.48.6.1.25.51.43.94.51-.31.19-.53.56-.96.42.02.21.14.46.38.62-.47-.04-1 .21-1.4.06 0 .2.06.45.21.67-.83-.28-1.97-.25-2.19.19.42-.03.78.12.86.36-.63-.39-1.62.2-2.2-.16-1.4-.88-1.68-.18-2.39-.55-.7-.38-1.39-.06-1.41.33.65-.53 1.18.51 1.84.38 1.36-.27 1.84.54 2.72.71-.7-.07-1.43-.13-2.3.37-.88.51-2.29.09-2.36.83.6-.33 1.28.14 1.81-.14s1.09-.36 1.36-.24c-.94 1.13-1.79.38-2.77 1.28-.63.58-1.42.21-1.96.78-.53.55-.86.77-1.36.83.87.55 1.72-.69 2.49-.68.62.01 1.24-.16 1.79-.53-.45 1.07-1.79.53-2.97 1.73-.74.75-1.23 1.43-2.46 1.61.57.64 2.14-.84 3.41-.85 1.66-.02 1.75-1.41 2.58-1.33.83.08 1.16-1.01 1.84-1.01.68 0 .96-1.19 1.48-1.01-.73.33-.73 1.38-1.66 1.56.99.39 1.41-1.01 2.57-1.08.14-.01.28-.04.41-.08-.84 1.18-1.62.69-1.82 1.61 1.06-.85 1.89-.29 2.51-1.13.96-1.28 1.74-1.1 2.11-1.96.34-.79 1.42-1.07 2.18-1.68.23.07.42.05.56-.02.11.12.47.17.73.04.03.36-.01.75-.14 1.09-.29-.12-.76-.15-.96-.03-.25.15-.16.19.14.21.3.02.69.51.04.54-.3.01-.2.74-.83.79.26.31.99.11 1.26-.24-.05.28.33.54.18.88.45.05.21-.89.87-.89l.01.02c-.23.1-.1.66.37.54v.01c-.27.16-.11.5.23.41-.21.07-.29.33-.03.5-.09.21-.23.42-.14.62-1.23.18-1.66 1.04-1.36 1.97-.06.34.45.74.5 1.14 0-1.08.88-1.96 1.96-1.96.13.16.8.58 1.3.5.01.18.1.47.28.62.01.26-.09.58-.36.75.49.21.87.04.97-.45.21-.24.25-.79.08-1.09.1-.4-.16-1.01-.5-1.16.21.08.46.03.64-.13.1.23.39.39.69.36-.06.34.52.43.54.84.01.23.05.6.01.87.38-.49.5-1.26.15-1.89.03-.65-.3-1.18-.96-1.13-.3-.38-.88-.3-1.06.02-.2-.2-.51-.27-.75-.23.1-.5-.1-.77-.38-.78.02-.43-.23-.83-.7-.93-.22-.99.02-1.63.17-2.35.33.23.75.2.94.17.2.53.84.52 1.12.8.28.29 1.22.26 1.5.1-.25-.02-.58-.18-.89-.44-.38-.32-.2-.96-.5-1.18.23-.25.26-.67.21-.83.24-.14.42-.37.44-.48.42-.03.78-.24.93-.4.21.2.75-.06 1.04.28.06-.83-.73-1.27-1.26-.99-.21-.11-.78-.04-.88.11-.16-.07-.6.14-.84.3.2-.16.23-.53.13-.67.21-.09.45-.38.48-.59.3.05.75-.15.96-.1-.33-.43-.87-.58-1.42-.54-.57.03-.82.43-.89.87-.34.2-.45.88-.33 1.12-.19-.01-.38.18-.45.29-.13-.06-.3-.11-.46-.14-.08-.21-.17-.44-.3-.69-.02-.04-.04-.09-.06-.13-.07-.3.07-.56.14-.8.1-.34.12-.55.03-.66.08-.06.15-.15.17-.3.03-.22 0-.39-.06-.5.11-.04.22-.12.31-.29.05-.1.07-.2.07-.29.13.02.26-.01.37-.13.16-.16.26-.35.26-.53.17.1.39.13.67.03a.58.58 0 0 0 .37-.38c.14.1.33.17.6.16.26 0 .43-.1.52-.23.18.28.56.47 1.35.3.22.19.53.32.91.26.25.23.63.39 1.18.39.24.18.58.31 1.1.34.16.01.29-.01.4-.05.21.22.63.39 1.39.42.14.01.25-.01.34-.04.11.09.25.16.41.19.26.05.45.02.58-.07.18.1.41.17.73.19-.16.31-.24.65-.03.89v.01c-.52-.33-.76.23-1.04.01s-.66-.25-.8-.03c.53.02.27.43 1.29.53-1.02.07-.84 1.21-1.52 1.16.73.69 1.11-.62 1.7-.4-.18.05.28.47-.04 1.02.41-.01.63-.48.73-.85.05.03.11.05.18.06-.03.4.5.72.89.54-.01.42.69.69.99.53.13.43 1.04.53 1.2.28-.01.34.95.62 1.31.45.73-.33 1.01.48 1.51.33-.59.4-.53.98-.1 1.38-.03.58.35 1.13.91 1.16.15.68 1.23.86 1.79.68-1.13-.38-.58-.96-1.23-1.06.1-.3.23-.8-.2-1.03.28-.3.63-.91.5-1.26.45 0 .84-.38.96-.83.3.3.98.13 1.18-.08.1.23.45.23.8.1.15.23.53.2.63.75.33-.53.03-1.23-.43-1.51-.15-.4-.47-.48-.8-.38-.13-.11-.63-.2-.88.02-.06-.11-.2-.09-.37-.03.31-.17.52-.43.39-.8.68.08.65-.78 1.46-.55-.45-.53-1.36-.5-1.81-.15-.53-.18-1.08.28-.96.88-.4-.18-.85.15-.83.6-.25-.08-.6.05-.78.4-.33-.35-.68-.4-1.01-.35-.38-.4-.73-.5-1.16-.3-.13-.15-.48-.2-.73-.08-.1-.28-.6-.6-.96-.48-.08-.81.17-1.09.38-1.31.55-.58.42-.74.86-1.31.84-1.11 1.17-2.66 1.04-4.06.51-.38 1.18-.55 1.67-.24.1.41.01.97-.54 1.14.34.21.84.01 1.12-.45-.41.92-.14 1.75.52 1.91-.31-.64.39-.94.16-1.36.42.18.78.74.77 1.09.49-.55-.24-1.26-.25-1.81.57.04 1.15-.02 1.54-.3.91-.63 1.33-.96 1.74-.88.3.45.67.67 1.12.7.14.15.63.28.91.24.4.1.89-.02 1.28-.45.6.09 1.17-.36 1.38-1.04.56-.03.6-.75.19-1.23z" style="fill:#f0f0f0"/><path d="M47.77 38.25c-1.19 0-2.15.96-2.15 2.15s.96 2.15 2.15 2.15 2.15-.96 2.15-2.15-.96-2.15-2.15-2.15z" style="fill:#fff"/><path d="M54.15 22.89c.03-.65-.67-1.25-1.18-.86.47-.06.87.81-.05 1.16.18-.65-.47-1.25-1.15-.96.43.13.87.85-.1 1.13-.61.18-1.5-.05-2.17-.45-.66-.4-4.39-1.86-3.57-.75 1.61.4 2.88.75 3.67 1.21.79.45 2.01.58 3.09.28 1.07-.3 3.14-.58 3.04.75.56-.67-.15-1.39-1.58-1.51z" style="fill:#f0f0f0"/><path d="M53.92 18.74c-.35.21-.71.15-1.12.19.29-.13.54-.37.81-.69.55-.65 1.82-.29 1.99-1.31-.94.72-2.06-.23-2.59.58-.13.2-.33.3-.56.47.27-1.3.82-1.28.76-2.15-.1-1.46 1.4-1.58 1.03-2.49-.05.4-.65.8-.93 1.01-.86.62-.13 1.16-1.03 1.96-1 .89-.29 1.24-.82 2.01-.22-.02-.46.06-.66.16-.12-.25-.45-.24-.93 0-.35-.31-.87-.54-1.33-.46-.16-.65-.64-1.16-1.23-.99-.13.04-.23.12-.3.24-.61-.57-1.45-.72-2.18-.29-.66-.92-1.74-.69-2.25-1.22-.83-.85-2.93-1.65-3.8-1.06.9-.05 1.56.24 2.11.61-.05.04-.09.08-.13.12-.52-.29-1-.4-1.32-.21.52.03.84.23 1.14.49-.07.16-.13.35-.16.58-1.25-.92-2.6-1.14-3.04-.52-.71-.19-1.49-.12-1.68.41.89-.43 1.72-.02 2.35.24-.15.05-.28.13-.39.25-.56-.11-1.05-.08-1.29.23.23-.09.64-.11 1.14 0-.11.22-.16.51-.13.88-2.11-.85-3.63-.57-3.95.28-.35.93.96 1.45 1.18.86-.24.1-1.06-.18-.63-.7.41-.51 2.46-.16 4.47.84-.09.03-.18.05-.26.08-.82-.43-2.18.14-2.5-.84-.14.44-.03.71.22.87-.79.03-1.58.25-2.1.82-1.44-.06-2.42.15-2.57.92 1.11-.99 2.97-.18 3.72-.38.5-.13 1.9-.1 3.05.05.13.06.27.11.44.16-.16.04-.3.14-.39.32-.28.5-.68.91-1.21 1.43-.89.89-2.74-.65-4.1 2.16.78-.78 1.61-.96 2.92-.88 2.69.16 2.24-1.63 3.27-2.26.66-.4 1.31.55 2.77.58-.55.53-1.66.03-2.36.93 1.61-.5 1.53.23 3.5-.28-.5.1-.3.83-1.08.88-.85.06-.48.3-1.46.45.78-.06 1.43.48 1.86-.1.43-.58 1.11-.78 1.63-.63.63.18 1.08.14 1.43-.06.75.09 1.41.54 1.89 1.22.07.1.16.18.28.25-.38.18-.5.78-.96.81.52.28.93.07 1.26-.25-.13.39-.04.82.42.98-.29-.4.17-.64.37-.93.15.3.55.46.38.84.53-.12.63-1.08.2-1.41.21-.21.24-.55.08-.78-.13-.27-.38-.52-.7-.61.46-.41.97-.49 1.22-.78-.06.17-.07.42.02.83.09.4.25 1.06-.03 1.71.81-.59.29-1.83.65-2.3.18-.23.4-.58.49-.88-.19.53-.18 1.51.34 1.76-.4-.93.97-1.71.2-2.75.22-.02.3-.21-.06-.39.35.11.6-.14.11-.37.28.11.51-.03.37-.2.66-.01 1.91-.38 2.42-.76.88-.65 2.91.1 3.27-.78-1.38.43-2-.68-3.53.25zm-14.95-.67c-.43-.29-.85-.66-.8-.97.42.16.86.4 1.28.73-.21.02-.38.12-.48.24zm.92-.57c-.43-.21-.99-.46-1.55-.65.1-.08.26-.15.47-.21.53.16.9.51 1.15.8-.02.02-.05.04-.07.06zm-1.92-1.49c-.14-.08-.3-.15-.46-.2.62-.29 1.47.06 2.46 1.06-.77-.6-1.34-.49-2-.86zm3.08 1.01c-.1-.34-.15-.69-.09-.97.12.11.25.21.4.31.39.25.46.56.64.74-.33-.04-.64-.09-.95-.08zm1.66.1c-.46-.55-1.01-1.07-1.55-1.44.03-.03.07-.07.11-.09.44.35.83.71 1.26.92.28.14.57.33.88.5-.26.06-.49.1-.7.11zm6.33 5.44a2.1 2.1 0 0 0-.98.75c-.37-.16-.58-.55-.92-.58-.33-.02-.56-.56-.94-.75.04-.08.08-.17.12-.26.31-.65.77-.93 1.31-.95.1.23.17.59.08.81.22-.13.52-.44.67-.69.17.06.35.13.53.23.09.22.04.49-.24.65.26 0 .68 0 .97-.22.06.03.12.05.18.06-.26.27-.12.69-.78.95zm3.05-3.43c.01-.03.01-.05.01-.08h.16c-.05.02-.11.05-.17.08z" style="fill:#fff"/><path d="M47.02 18.8c-.14-.1-.56.46-.18.81.19-.14.39-.25.55-.3a1.25 1.25 0 0 0-.37-.51zm.82-.26c.13-.28.42-.51.71-.53-.28-.3-.88-.07-.71.53z"/><linearGradient id="a" x1="32" x2="32" y1="62" y2="2" gradientUnits="userSpaceOnUse"><stop offset="0" style="stop-color:#1a1a1a"/><stop offset=".102" style="stop-color:#393939;stop-opacity:.949"/><stop offset=".347" style="stop-color:#7f7f7f;stop-opacity:.8262"/><stop offset=".569" style="stop-color:#b6b6b6;stop-opacity:.7156"/><stop offset=".758" style="stop-color:#dedede;stop-opacity:.6209"/><stop offset=".908" style="stop-color:#f6f6f6;stop-opacity:.5459"/><stop offset="1" style="stop-color:#fff;stop-opacity:.5"/></linearGradient><circle cx="32" cy="32" r="30" style="opacity:.1;fill:url(#a)"/></svg>