<svg xmlns="http://www.w3.org/2000/svg" xml:space="preserve" style="enable-background:new 0 0 64 64" viewBox="0 0 64 64"><linearGradient id="a" x1="32" x2="32" y1="2" y2="62" gradientUnits="userSpaceOnUse"><stop offset="0" style="stop-color:#f90"/><stop offset=".287" style="stop-color:#ff9500"/><stop offset=".585" style="stop-color:#f80"/><stop offset=".887" style="stop-color:#ff7400"/><stop offset="1" style="stop-color:#ff6a00"/></linearGradient><circle cx="32" cy="32" r="30" style="fill:url(#a)"/><path d="M33.63 21.48c1.46 0 2.86.24 4.19.72s2.7 1.25 4.1 2.3l2.15-4.91c-1.23-1.14-2.78-2.02-4.65-2.65-1.87-.63-3.85-.94-5.92-.94-3.19 0-5.95.66-8.29 1.97-2.34 1.31-4.14 3.17-5.39 5.57s-1.88 5.2-1.88 8.42c0 3.24.63 6.07 1.88 8.48s3.05 4.27 5.39 5.59c2.34 1.32 5.1 1.97 8.29 1.97 2.07 0 4.05-.31 5.92-.94 1.87-.63 3.42-1.51 4.65-2.65l-2.15-4.91c-1.4 1.05-2.77 1.82-4.1 2.3-1.33.48-2.72.72-4.19.72-2.78 0-4.92-.9-6.44-2.7-1.52-1.8-2.28-4.42-2.28-7.87s.76-6.06 2.28-7.82c1.52-1.77 3.66-2.65 6.44-2.65z" style="fill:#fff"/></svg>