<svg xmlns="http://www.w3.org/2000/svg" xml:space="preserve" viewBox="0 0 64 64"><path fill="#E81C27" d="M2 32c0 13.061 8.35 24.166 20 28.285V3.713C10.35 7.832 2 18.939 2 32z"/><path fill="#079935" d="M32 2c-3.51 0-6.87.619-10 1.729V22h38.286C56.167 10.35 45.061 2 32 2z"/><path fill="#FCFCFC" d="M60.286 22H22v20h38.286C61.392 38.871 62 35.508 62 32s-.608-6.871-1.714-10z"/><path fill="#1A1626" d="M22 42v18.271A29.894 29.894 0 0 0 32 62c13.061 0 24.167-8.35 28.286-20H22z"/><linearGradient id="a" x1="32.001" x2="32.001" y1="62" y2="2.001" gradientUnits="userSpaceOnUse"><stop offset="0" style="stop-color:#1a1a1a"/><stop offset=".102" style="stop-color:#393939;stop-opacity:.949"/><stop offset=".347" style="stop-color:#7f7f7f;stop-opacity:.8262"/><stop offset=".569" style="stop-color:#b6b6b6;stop-opacity:.7156"/><stop offset=".758" style="stop-color:#dedede;stop-opacity:.6209"/><stop offset=".908" style="stop-color:#f6f6f6;stop-opacity:.5459"/><stop offset="1" style="stop-color:#fff;stop-opacity:.5"/></linearGradient><circle cx="32" cy="32" r="30" fill="url(#a)" opacity=".1"/></svg>