<svg xmlns="http://www.w3.org/2000/svg" xml:space="preserve" style="enable-background:new 0 0 64 64" viewBox="0 0 64 64"><path d="M22 60.29V3.71C10.35 7.83 2 18.94 2 32c0 13.06 8.35 24.17 20 28.29z" style="fill:#e81c27"/><path d="M22 32h40C62 15.43 48.57 2 32 2c-3.51 0-6.87.61-10 1.71V32z" style="fill:#ffe000"/><path d="M22 32v28.29c3.13 1.1 6.49 1.71 10 1.71 16.57 0 30-13.43 30-30H22z" style="fill:#00a650"/><path d="M13 35.72 17.32 39l-1.63-5.34L20 30.25h-5.34L13 25l-1.62 5.25H6l4.31 3.41L8.68 39z" style="fill:#1a1626"/><linearGradient id="a" x1="32" x2="32" y1="62.001" y2="2.001" gradientUnits="userSpaceOnUse"><stop offset="0" style="stop-color:#1a1a1a"/><stop offset=".102" style="stop-color:#393939;stop-opacity:.949"/><stop offset=".347" style="stop-color:#7f7f7f;stop-opacity:.8262"/><stop offset=".569" style="stop-color:#b6b6b6;stop-opacity:.7156"/><stop offset=".758" style="stop-color:#dedede;stop-opacity:.6209"/><stop offset=".908" style="stop-color:#f6f6f6;stop-opacity:.5459"/><stop offset="1" style="stop-color:#fff;stop-opacity:.5"/></linearGradient><circle cx="32" cy="32" r="30" style="opacity:.1;fill:url(#a)"/></svg>