<svg xmlns="http://www.w3.org/2000/svg" xml:space="preserve" style="enable-background:new 0 0 64 64" viewBox="0 0 64 64"><path d="M2 32c0 5.88 1.7 11.37 4.63 16h50.74C60.3 43.37 62 37.88 62 32s-1.7-11.37-4.63-16H6.63A29.831 29.831 0 0 0 2 32z" style="fill:#fcd70b"/><path d="M57.37 16C52.06 7.59 42.68 2 32 2S11.94 7.59 6.63 16h50.74zM6.63 48C11.94 56.41 21.32 62 32 62s20.06-5.59 25.37-14H6.63z" style="fill:#ce1126"/><path d="M9.24 28.71h3.2v1.76h-3.2zM9.2 41.89h3.29v1.65H9.2z" style="fill:#c8b100"/><path d="M8.94 39.06c-.32.19-.54.38-.51.48.02.09.12.15.27.25.23.16.37.45.26.58.19-.16.31-.39.31-.64a.802.802 0 0 0-.33-.67" style="fill:#ce1126"/><path d="M9.67 30.46H12v11.43H9.67z" style="fill:#ccc"/><path d="M14.39 34.73c-.51-.21-1.38-.37-2.37-.4-.34 0-.72.04-1.12.1-1.4.23-2.46.79-2.38 1.24l.01.04L8 34.49c-.09-.5 1.09-1.12 2.63-1.38a8.7 8.7 0 0 1 1.38-.11c.99 0 1.85.13 2.37.32l.01 1.41" style="fill:#ce1126"/><path d="M9.67 36.17c-.65-.05-1.09-.22-1.14-.49-.04-.22.18-.46.57-.67.17.02.37.04.57.04v1.12m2.34-.88c.4.06.71.16.86.29l.01.03c.07.15-.28.46-.88.81l.01-1.13" style="fill:#ce1126"/><path d="M8.22 38.38c-.06-.19.57-.55 1.46-.88.41-.14.74-.3 1.16-.48 1.24-.55 2.15-1.18 2.04-1.41l-.01-.02.17 1.18c.11.21-.73.83-1.87 1.38-.37.17-1.13.46-1.5.59-.65.23-1.3.65-1.24.81l-.21-1.17" style="fill:#ce1126"/><path d="M30.66 28.71h3.2v1.76h-3.2zm-.04 13.18h3.29v1.65h-3.29z" style="fill:#c8b100"/><path d="M8.84 42.74h4v1.34h-4zm21.42 0h4v1.34h-4z" style="fill:#0039f0"/><path d="M34.16 39.06c.33.19.55.38.51.48-.02.09-.12.15-.27.25-.23.16-.37.45-.26.58a.841.841 0 0 1-.31-.64c-.01-.27.12-.51.33-.67" style="fill:#ce1126"/><path d="M31.1 30.46h2.33v11.43H31.1z" style="fill:#ccc"/><path d="M28.71 34.73c.51-.21 1.38-.37 2.37-.4.34 0 .72.04 1.12.1 1.39.23 2.46.79 2.38 1.24l-.01.04.53-1.22c.09-.5-1.09-1.12-2.63-1.38a8.7 8.7 0 0 0-1.38-.11c-.99 0-1.85.13-2.37.32l-.01 1.41" style="fill:#ce1126"/><path d="M33.43 36.17c.65-.05 1.09-.22 1.14-.49.04-.22-.18-.46-.57-.67-.17.02-.37.04-.57.04v1.12m-2.34-.88c-.4.06-.71.16-.86.29l-.01.03c-.07.15.28.46.88.81l-.01-1.13" style="fill:#ce1126"/><path d="M34.88 38.38c.06-.19-.57-.55-1.46-.88-.41-.14-.74-.3-1.16-.48-1.24-.55-2.15-1.18-2.04-1.41l.01-.02-.17 1.18c-.11.21.72.83 1.86 1.38.37.17 1.14.46 1.5.59.65.23 1.3.65 1.24.81l.22-1.17m-13.42-16.1c1.92 0 5.78.44 7.19 1.77-1.49 3.6-3.92 2.12-7.16 2.12s-5.68 1.48-7.17-2.12c1.4-1.32 5.23-1.77 7.14-1.77.95 0-.96 0 0 0z" style="fill:#ce1126"/><path d="M26.45 26.28c-1.24-.7-2.99-.84-4.92-.85-1.93.01-3.66.15-4.91.85l.45 1.69c1.13.34 2.7.55 4.46.55 1.76 0 3.34-.21 4.46-.55l.46-1.69zm1.67-4.24c-.38-.33-1.16-.55-1.94-.55-.31 0-.61.03-.88.1.04.04-.55-.83-1.96-.83-.49 0-.95.12-1.3.32l-.01-.06c-.05-.22-.27-.39-.52-.39s-.48.17-.53.39l-.01.06c-.35-.2-.8-.32-1.29-.32-1.38 0-2 .87-1.96.83-.27-.06-.57-.1-.88-.1-4.62 0-2.25 3.11-2.25 3.11l.38-.62c-1.07-1.4-.14-2.25 1.88-2.25.25 0 .5.02.72.07-.69 1.03.6 1.88.6 1.88l.3-.49c-.73-.46-.79-2.2 1.21-2.2.5 0 .95.14 1.26.35-.01.11-.1 1.45-.21 1.73l.78.74.77-.74c-.1-.27-.2-1.62-.2-1.73.32-.22.77-.35 1.26-.35 2.05 0 2.13 1.73 1.21 2.2l.3.49s1.09-.87.6-1.88c.23-.04.47-.07.72-.07 2.39.04 2.55 1.78 1.88 2.25l.38.62s1.04-1.38-.31-2.56z" style="fill:#c8b100"/><path d="M20.88 20.06c0-.33.29-.6.64-.6.35 0 .64.27.64.6 0 .33-.29.6-.64.6a.605.605 0 0 1-.64-.6" style="fill:#0039f0"/><path d="M21.35 18.38v.32H21v.33h.35v.95h-.44l-.03.08.05.24h1.17l.05-.24-.03-.08h-.42v-.95h.34v-.33h-.34v-.32z" style="fill:#c8b100"/><path d="M21.53 28.29c-1.59 0-3.03-.19-4.12-.47 1.09-.28 2.53-.46 4.12-.46 1.59 0 3.03.18 4.13.46-1.1.28-2.54.47-4.13.47" style="fill:#ce1126"/><path d="M21.58 45.63c-1.88 0-3.74-.46-5.3-1.23-1.15-.57-1.92-1.72-1.92-3.04v-4.78h14.42v4.78c0 1.32-.76 2.47-1.92 3.04-1.57.76-3.4 1.23-5.28 1.23m-.03-17.06h7.23v8h-7.23z" style="fill:#ccc"/><path d="M21.55 41.35c0 1.89-1.6 3.42-3.6 3.42-1.99 0-3.61-1.53-3.61-3.42v-4.79h7.21v4.79" style="fill:#ce1126"/><path d="M15.92 44.17c.22.12.54.32.87.4l-.02-8.18h-.85v7.78zm-1.59-2.88c.02 1.01.42 1.76.82 2.25v-7.1h-.81l-.01 4.85zm3.2 3.46c.33.03.58.03.84 0v-8.36h-.84v8.36zm1.58-.18c.33-.07.7-.27.87-.38v-7.8h-.84l-.03 8.18z" style="fill:#c8b100"/><path d="M14.35 28.57h7.21v8h-7.21z" style="fill:#ce1126"/><path d="M20.76 43.46c.35-.31.68-1.02.8-1.83l.02-5.23h-.84l.02 7.06z" style="fill:#c8b100"/><path d="M28.78 36.56v4.79c0 1.89-1.62 3.42-3.62 3.42-1.99 0-3.61-1.53-3.61-3.42v-4.79h7.23" style="fill:#ce1126"/><path d="M26.17 29.96c.26.6.25 2.08-.65 1.76.17.06.26.81.57 1.16.53.6 1.11.06.96-.58-.25-1.1-.12-1.81.11-2.89.02.14.5.12.68-.11-.13.29-.16.69-.05.7-.18.29-.72.77-.76 1.09-.07.7.97 2.05-.21 2.32-.78.18-.31.8.02 1.11-.01-.01-.36 1.28-.21 1.22-.84.3-.57-.38-.57-.38.36-1.15-.65-1.27-.57-1.47-1-.05.13.94-.82.94-.16 0-.57.17-.58.17-1.1-.09-.45-1.14-.13-.99.31.15.59.65.64-.05 0 0-.51-.81.76-.8-.47 0-.84-.45-1-.9-.17.13-.55.61-1.62.69 0 0-.34-1.07-.01-.92.37.16.65.17.98-.21-.24-.25-1.4-.72-1.23-1.43.05-.19.59-.48.59-.48-.09.49.17.97.81 1.05.83.1.49-.2.56-.45.06-.22.68.08.53-.42-.02-.07-.71-.23-.49-.45.58-.5 1.26-.19 1.69.32" style="fill:#ed72aa"/><path d="m21.61 44.61-.24-.53.24-.54.23.54-.23.53" style="fill:#ce1126"/><path d="M16.46 30.28v.53h.23v.37h-.5v1.06h.27v2.13h-.54v1.09H20v-1.09h-.53v-2.13h.27v-1.06h-.5v-.37h.23v-.53h-.99v.53h.23v.37h-.5v-1.16h.27v-.53h-1.03v.53h.26v1.16h-.49v-.37h.23v-.53zm11.29 12.33v-4.99h-5.17v4.99L25 43.72h.33l2.42-1.11zm-2.76-4.65v1.74l-1.74-1.74h1.74zm-2.07.15 2 2-2 2v-4zm.14 4.35L25 40.52v2.82l-1.94-.88zm2.28.88v-2.82l1.94 1.94-1.94.88zm2.07-1.23-2-2 2-2v4zm-2.07-4.15h1.74l-1.74 1.74v-1.74z" style="fill:#c8b100"/><path d="M19.24 36.53c0-1.45 1.04-2.63 2.33-2.63s2.33 1.18 2.33 2.63-1.04 2.63-2.33 2.63-2.33-1.18-2.33-2.63" style="fill:#ce1126"/><path d="M19.93 36.53c0-1.06.74-1.93 1.64-1.93.91 0 1.64.86 1.64 1.93 0 1.06-.74 1.93-1.64 1.93-.91 0-1.64-.87-1.64-1.93" style="fill:#0039f0"/><path d="m20.79 35.2-.42 1.1.29.1-.13.38h.54l-.14-.38.29-.1-.43-1.1m1.53 0-.42 1.1.29.1-.14.38h.55l-.14-.38.29-.1-.43-1.1m-.76 1.32-.43 1.09.29.1-.13.38h.54l-.13-.38.29-.1-.43-1.09" style="fill:#c8b100"/><linearGradient id="a" x1="32" x2="32" y1="62" y2="2" gradientUnits="userSpaceOnUse"><stop offset="0" style="stop-color:#1a1a1a"/><stop offset=".102" style="stop-color:#393939;stop-opacity:.949"/><stop offset=".347" style="stop-color:#7f7f7f;stop-opacity:.8262"/><stop offset=".569" style="stop-color:#b6b6b6;stop-opacity:.7156"/><stop offset=".758" style="stop-color:#dedede;stop-opacity:.6209"/><stop offset=".908" style="stop-color:#f6f6f6;stop-opacity:.5459"/><stop offset="1" style="stop-color:#fff;stop-opacity:.5"/></linearGradient><circle cx="32" cy="32" r="30" style="opacity:.1;fill:url(#a)"/></svg>