<svg xmlns="http://www.w3.org/2000/svg" xml:space="preserve" style="enable-background:new 0 0 64 64" viewBox="0 0 64 64"><path d="M2 32c0 13.06 8.35 24.17 20 28.29V3.71C10.35 7.83 2 18.94 2 32zm60 0c0-13.06-8.35-24.17-20-28.29v56.57C53.65 56.17 62 45.06 62 32z" style="fill:navy"/><path d="M22 60.29a30.086 30.086 0 0 0 20 0V3.71a30.086 30.086 0 0 0-20 0v56.58z" style="fill:#ffe000"/><path d="m40.71 23.29-.79-.79v.01-.01l-4.75 4.75h2.21c-.58 1.68-1.07 3.8-1.18 6.37h-3.11v-6.37h1.29L32 20.12l-2.38 7.13h1.29v6.37H27.8c-.11-2.58-.6-4.69-1.18-6.37h2.21l-4.75-4.75-1.58 1.58c.03.04 3.15 3.65 3.15 10.69v1.15h5.26v7.96h2.18v-7.96h5.26v-1.15c0-7.05 3.12-10.66 3.15-10.69l-.79-.79z" style="fill:#1a1626"/><linearGradient id="a" x1="32" x2="32" y1="62" y2="2" gradientUnits="userSpaceOnUse"><stop offset="0" style="stop-color:#1a1a1a"/><stop offset=".102" style="stop-color:#393939;stop-opacity:.949"/><stop offset=".347" style="stop-color:#7f7f7f;stop-opacity:.8262"/><stop offset=".569" style="stop-color:#b6b6b6;stop-opacity:.7156"/><stop offset=".758" style="stop-color:#dedede;stop-opacity:.6209"/><stop offset=".908" style="stop-color:#f6f6f6;stop-opacity:.5459"/><stop offset="1" style="stop-color:#fff;stop-opacity:.5"/></linearGradient><circle cx="32" cy="32" r="30" style="opacity:.1;fill:url(#a)"/></svg>