<svg xmlns="http://www.w3.org/2000/svg" xml:space="preserve" viewBox="0 0 64 64"><path fill="#00A650" d="M32 2C18.939 2 7.833 10.35 3.714 22h56.572C56.167 10.35 45.061 2 32 2z"/><path fill="red" d="M32 62c13.061 0 24.167-8.35 28.286-20H3.714C7.833 53.65 18.939 62 32 62z"/><path fill="#FCFCFC" d="M3.714 22C2.607 25.129 2 28.492 2 32s.607 6.871 1.714 10h56.572C61.393 38.871 62 35.508 62 32s-.607-6.871-1.714-10H3.714z"/><path fill="red" d="M36.509 33.881a6.842 6.842 0 0 0-2.045-7.299 7.5 7.5 0 0 1-1.805 10.265l.227-5.6v-4.409a2.31 2.31 0 0 1-.886-.742 2.31 2.31 0 0 1-.886.742v4.409l.227 5.6a7.5 7.5 0 0 1-1.805-10.265 6.843 6.843 0 0 0-2.045 7.299 6.819 6.819 0 0 0 3.333 3.945 7.528 7.528 0 0 1-2.936.447 6.816 6.816 0 0 0 3.519.188l.01.236.583.803.583-.803.01-.236a6.816 6.816 0 0 0 3.519-.188 7.528 7.528 0 0 1-2.936-.447 6.825 6.825 0 0 0 3.333-3.945z"/><path fill="red" d="M38.731 29.133a5.728 5.728 0 0 0-3.569-2.69 7.496 7.496 0 0 1 1.487 10.501l-.012.018a5.732 5.732 0 0 0 2.094-7.829zm-9.894-2.691a5.73 5.73 0 0 0-1.474 10.518l-.013-.018a7.497 7.497 0 0 1 1.487-10.5zm1.655-.414A1.081 1.081 0 0 0 32 25.765a1.083 1.083 0 0 0 1.891-1.023 1.022 1.022 0 0 1-1.89.323 1.023 1.023 0 0 1-1.89-.323 1.08 1.08 0 0 0 .381 1.286z"/><path fill="#FCFCFC" d="M4.233 21.834h4.199v.332H4.233zm0 20h4.199v.332H4.233zM13.634 21h1.333v-.334h-1v-.6H15.5V21h2.2v-2.267h-.334v1.933h-.599v-1.933h-.334v1.933h-.6v-1.933H15.5v1h-1.866zm-3.801-.334h.467V21h-.467z"/><path fill="#FCFCFC" d="M8.899 18.8h6.067v.333H8.899zm4.134 2.2v-1.267H11.7v.333h1v.6h-1.533v-.933h-2.2v1.333H9.3v-1h1.533V21zm-4.134.834H13.1v.332H8.899zm4.667 0h4.2v.332h-4.2zm-4.667 20H13.1v.332H8.899zm4.667 0h4.2v.332h-4.2zM8.899 43h6.067v.334H8.899zm.934 1.867h.467v.333h-.467z"/><path fill="#FCFCFC" d="M17.366 44.867h-.599v-1.933h-.334v1.933h-.6v-1.933H15.5v1h-1.866V45.2h1.333v-.333h-1v-.6H15.5v.933h2.2v-2.266h-.334zm-5.666-.6h1v.6h-1.533v-.933h-2.2v1.333H9.3v-1h1.533v.933h2.2v-1.266H11.7zm7.467-23.601h.467V21h-.467zm3.8.334H24.3v-.334h-1v-.6h1.533V21h2.2v-2.267H26.7v1.933h-.599v-1.933h-.334v1.933h-.6v-1.933h-.334v1h-1.866z"/><path fill="#FCFCFC" d="M22.366 21v-1.267h-1.333v.333h1v.6H20.5v-.933h-2.2v1.333h.334v-1h1.533V21zm-4.133-2.2h6.066v.333h-6.066zm4.666 3.034H27.1v.332h-4.201zm-4.666 0h4.199v.332h-4.199zm4.666 20H27.1v.332h-4.201zm-4.666 0h4.199v.332h-4.199zm0 1.166h6.066v.334h-6.066zm.934 1.867h.467v.333h-.467z"/><path fill="#FCFCFC" d="M21.033 44.267h1v.6H20.5v-.933h-2.2v1.333h.334v-1h1.533v.933h2.199v-1.266h-1.333zm5.667.6h-.599v-1.933h-.334v1.933h-.6v-1.933h-.334v1h-1.866V45.2H24.3v-.333h-1v-.6h1.533v.933h2.2v-2.266H26.7zm1.8-24.201h.467V21H28.5zm-.934-1.866h6.067v.333h-6.067z"/><path fill="#FCFCFC" d="M31.7 21v-1.267h-1.334v.333h1v.6h-1.533v-.933h-2.199v1.333h.333v-1H29.5V21zm.6 0h1.334v-.334h-1v-.6h1.533V21h2.199v-2.267h-.333v1.933h-.6v-1.933h-.332v1.933H34.5v-1.933h-.333v1H32.3zm-4.734.834h4.2v.332h-4.2zm4.667 0h4.199v.332h-4.199zm-4.667 20h4.2v.332h-4.2zm4.667 0h4.199v.332h-4.199zm3.8 3.033h-.6v-1.933h-.332v1.933H34.5v-1.933h-.333v1H32.3V45.2h1.334v-.333h-1v-.6h1.533v.933h2.199v-2.266h-.333zm-7.533 0h.467v.333H28.5z"/><path fill="#FCFCFC" d="M27.566 43h6.067v.334h-6.067zm2.8 1.267h1v.6h-1.533v-.933h-2.199v1.333h.333v-1H29.5v.933h2.2v-1.266h-1.334zM41.634 21h1.333v-.334h-1v-.6H43.5V21h2.2v-2.267h-.334v1.933h-.599v-1.933h-.334v1.933h-.6v-1.933H43.5v1h-1.866z"/><path fill="#FCFCFC" d="M36.899 18.8h6.067v.333h-6.067zm4.134 2.2v-1.267H39.7v.333h1v.6h-1.533v-.933h-2.2v1.333h.333v-1h1.533V21z"/><path fill="#FCFCFC" d="M37.833 20.666h.467V21h-.467zm3.734 1.168h4.199v.332h-4.199zm-4.668 0H41.1v.332h-4.201zm4.668 20h4.199v.332h-4.199zm-4.668 0H41.1v.332h-4.201zm8.467 3.033h-.599v-1.933h-.334v1.933h-.6v-1.933H43.5v1h-1.866V45.2h1.333v-.333h-1v-.6H43.5v.933h2.2v-2.266h-.334z"/><path fill="#FCFCFC" d="M36.899 43h6.067v.334h-6.067zm2.801 1.267h1v.6h-1.533v-.933h-2.2v1.333h.333v-1h1.533v.933h2.2v-1.266H39.7z"/><path fill="#FCFCFC" d="M37.833 44.867h.467v.333h-.467zm9.334-24.201h.467V21h-.467zm-.934-1.866h6.066v.333h-6.066z"/><path fill="#FCFCFC" d="M50.366 21v-1.267h-1.333v.333h1v.6H48.5v-.933h-2.2v1.333h.334v-1h1.533V21zm.601 0H52.3v-.334h-1v-.6h1.533V21h2.2v-2.267H54.7v1.933h-.599v-1.933h-.334v1.933h-.6v-1.933h-.334v1h-1.866zm-4.734.834h4.199v.332h-4.199zm4.666 0H55.1v.332h-4.201zm0 20H55.1v.332h-4.201zm-4.666 0h4.199v.332h-4.199zm8.467 3.033h-.599v-1.933h-.334v1.933h-.6v-1.933h-.334v1h-1.866V45.2H52.3v-.333h-1v-.6h1.533v.933h2.2v-2.266H54.7zm-5.667-.6h1v.6H48.5v-.933h-2.2v1.333h.334v-1h1.533v.933h2.199v-1.266h-1.333z"/><path fill="#FCFCFC" d="M46.233 43h6.066v.334h-6.066zm.934 1.867h.467v.333h-.467zM56.5 20.666h.467V21H56.5zm-.933 1.168h4.199v.332h-4.199zm0 20h4.199v.332h-4.199zm.933 3.033h.467v.333H56.5zM5.634 18.8h-.579c-.055.11-.109.221-.161.333h.74V18.8z"/><path fill="#FCFCFC" d="M6.167 21h2.199v-2.267h-.333v1.933h-.6v-1.933h-.332v1.933H6.5v-1.933h-.333v1H4.615c-.05.11-.098.222-.146.333h1.697V21z"/><path fill="#FCFCFC" d="M5.634 20.666H4.217c-.046.111-.092.223-.136.334h1.553v-.334zm0 22.334H4.081c.044.111.09.223.136.334h1.417V43z"/><path fill="#FCFCFC" d="M8.033 44.867h-.6v-1.934h-.332v1.934H6.5v-1.934h-.333v1H4.47c.048.111.096.223.146.333h1.552v.934h2.199v-2.267h-.334v1.934z"/><path fill="#FCFCFC" d="M5.055 45.2h.579v-.333h-.74c.052.112.106.223.161.333zm53.89-26.4h-3.378v.333h3.539a12.77 12.77 0 0 0-.161-.333zm-1.112.933h-2.199v1.333h.333v-1H57.5V21h2.419c-.044-.111-.09-.223-.136-.334h-1.95v-.933z"/><path fill="#FCFCFC" d="M58.366 20.066h1.164c-.048-.111-.096-.223-.146-.333h-1.019v.333zm0 24.201h1.019c.05-.11.098-.222.146-.333h-1.164v.333zm-.533-.333h-2.199v1.333h.333v-1H57.5v.933h1.445l.161-.333h-1.273v-.933zm-2.266-.6h4.216c.046-.111.092-.223.136-.334h-4.352v.334z"/><linearGradient id="a" x1="32.001" x2="32.001" y1="62" y2="2.001" gradientUnits="userSpaceOnUse"><stop offset="0" style="stop-color:#1a1a1a"/><stop offset=".102" style="stop-color:#393939;stop-opacity:.949"/><stop offset=".347" style="stop-color:#7f7f7f;stop-opacity:.8262"/><stop offset=".569" style="stop-color:#b6b6b6;stop-opacity:.7156"/><stop offset=".758" style="stop-color:#dedede;stop-opacity:.6209"/><stop offset=".908" style="stop-color:#f6f6f6;stop-opacity:.5459"/><stop offset="1" style="stop-color:#fff;stop-opacity:.5"/></linearGradient><circle cx="32" cy="32" r="30" fill="url(#a)" opacity=".1"/></svg>