<svg xmlns="http://www.w3.org/2000/svg" xml:space="preserve" style="enable-background:new 0 0 64 64" viewBox="0 0 64 64"><path d="M13.01 55.23c11.02 9.03 26.95 9.03 37.97 0L32 36.24 13.01 55.23z" style="fill:#e81c27"/><path d="M8.77 13.02c-9.03 11.02-9.03 26.96 0 37.97L27.76 32 8.77 13.02z" style="fill:#22cb41"/><path d="M50.99 8.77c-11.02-9.03-26.96-9.03-37.97 0L32 27.76 50.99 8.77z" style="fill:#e81c27"/><path d="M55.23 13.01 36.24 32l18.99 18.99c9.03-11.02 9.03-26.96 0-37.98z" style="fill:#22cb41"/><path d="M55.23 13.01c-.63-.77-1.3-1.51-2.02-2.23-.72-.71-1.46-1.39-2.23-2.01L32 27.76 13.01 8.77c-.77.63-1.51 1.3-2.23 2.01-.72.72-1.39 1.46-2.02 2.23l19 18.99L8.77 50.99c.63.77 1.3 1.51 2.02 2.23s1.46 1.39 2.23 2.02l18.98-19 18.99 18.99c.77-.63 1.51-1.3 2.23-2.02s1.39-1.46 2.02-2.23L36.24 32l18.99-18.99z" style="fill:#fcfcfc"/><circle cx="32" cy="32" r="15" style="fill:#fcfcfc"/><path d="M35 24.78h-2L32 23l-1 1.78h-2l1 1.78-1 1.78h2l1 1.78 1-1.78h2l-1-1.78 1-1.78z" style="fill:#e81c27"/><path d="m32 30.37-1.07-1.91h-2.14l1.07-1.9-1.07-1.9h2.14L32 22.75l1.08 1.91h2.14l-1.07 1.9 1.07 1.9h-2.14L32 30.37zm-2.79-2.16h1.86l.93 1.65.93-1.65h1.86l-.93-1.65.93-1.65h-1.86L32 23.25l-.93 1.65h-1.86l.93 1.65-.93 1.66z" style="fill:#22cb41"/><path d="M29 33.67h-2l-1-1.78-1 1.78h-2l1 1.78-1 1.78h2L26 39l1-1.78h2l-1-1.78 1-1.77z" style="fill:#e81c27"/><path d="m26 39.25-1.07-1.91h-2.14l1.07-1.9-1.07-1.9h2.14L26 31.63l1.08 1.91h2.14l-1.07 1.9 1.07 1.9h-2.14L26 39.25zm-2.79-2.15h1.86l.93 1.65.93-1.65h1.86l-.93-1.65.93-1.65h-1.86L26 32.14l-.93 1.65h-1.86l.93 1.65-.93 1.66z" style="fill:#22cb41"/><path d="M41 33.67h-2l-1-1.78-1 1.78h-2l1 1.78-1 1.78h2L38 39l1-1.78h2l-1-1.78 1-1.77z" style="fill:#e81c27"/><path d="m38 39.25-1.07-1.91h-2.14l1.07-1.9-1.07-1.9h2.14L38 31.63l1.08 1.91h2.14l-1.07 1.9 1.07 1.9h-2.14L38 39.25zm-2.79-2.15h1.86l.93 1.65.93-1.65h1.86l-.93-1.65.93-1.65h-1.86L38 32.14l-.93 1.65h-1.86l.93 1.65-.93 1.66z" style="fill:#22cb41"/><linearGradient id="a" x1="32" x2="32" y1="62" y2="2" gradientUnits="userSpaceOnUse"><stop offset="0" style="stop-color:#1a1a1a"/><stop offset=".102" style="stop-color:#393939;stop-opacity:.949"/><stop offset=".347" style="stop-color:#7f7f7f;stop-opacity:.8262"/><stop offset=".569" style="stop-color:#b6b6b6;stop-opacity:.7156"/><stop offset=".758" style="stop-color:#dedede;stop-opacity:.6209"/><stop offset=".908" style="stop-color:#f6f6f6;stop-opacity:.5459"/><stop offset="1" style="stop-color:#fff;stop-opacity:.5"/></linearGradient><circle cx="32" cy="32" r="30" style="opacity:.1;fill:url(#a)"/></svg>