<svg xmlns="http://www.w3.org/2000/svg" xml:space="preserve" style="enable-background:new 0 0 64 64" viewBox="0 0 64 64"><path d="M32 2C19.32 2 8.5 9.88 4.11 21h55.78C55.5 9.88 44.68 2 32 2zm0 60c12.68 0 23.5-7.88 27.89-19H4.11C8.5 54.12 19.32 62 32 62z" style="fill:#69b4e9"/><path d="M60.62 23c-.11-.33-.21-.67-.33-1-.12-.34-.27-.67-.4-1H4.11c-.13.33-.28.66-.4 1-.12.33-.22.67-.33 1a30.038 30.038 0 0 0 0 18c.11.33.21.67.33 1 .12.34.27.67.4 1h55.78c.13-.33.28-.66.4-1 .12-.33.22-.67.33-1a30.038 30.038 0 0 0 0-18z" style="fill:#fcfcfc"/><path d="M32 42c-.18 0-.26-.17-.26-.32l-.19-4.93c0 .06-.01.12-.01.18-.04.47-.07.95-.42 1.63-.42.83-.4 1.26-.39 1.64.01.21.02.41-.04.65-.14.56-.49.89-.75.89a.25.25 0 0 1-.18-.08c-.12-.14 0-.28.07-.37.09-.11.21-.24.23-.48.01-.12-.01-.27-.03-.45-.06-.51-.14-1.22.29-2.03.26-.5.28-1 .3-1.52 0-.12.01-.23.01-.35l-2.1 4.58c-.04.1-.14.21-.27.21-.03 0-.06-.01-.09-.02-.17-.07-.18-.26-.12-.4l1.72-4.64c-.03.06-.06.11-.09.17-.21.42-.43.85-1.01 1.34-.71.6-.86 1.01-.99 1.37-.07.2-.14.39-.29.59-.31.42-.67.57-.89.57-.14 0-.25-.06-.28-.16-.06-.18.11-.26.21-.31.13-.06.29-.14.39-.35.05-.11.1-.25.15-.43.14-.5.34-1.18 1.05-1.77.44-.36.64-.82.86-1.29.05-.11.1-.21.15-.32l-3.7 3.43c-.01.02-.12.11-.24.11-.06 0-.12-.02-.17-.07-.13-.13-.07-.31.04-.42l3.36-3.62c-.05.04-.09.08-.14.12-.36.31-.73.62-1.45.85-.89.29-1.18.6-1.44.89-.14.16-.28.3-.49.43-.32.19-.59.23-.75.23-.18 0-.33-.05-.41-.14a.234.234 0 0 1-.07-.17c.01-.19.2-.2.31-.21.14-.01.32-.02.5-.18.09-.08.19-.2.3-.34.32-.4.76-.96 1.64-1.23.54-.17.91-.51 1.29-.86.08-.08.17-.16.26-.24l-4.73 1.75c-.01 0-.08.03-.16.03-.11 0-.2-.06-.24-.15-.04-.1-.01-.21.08-.29.05-.04.11-.07.12-.07l4.49-2.06c-.06.02-.11.04-.17.05-.38.12-.76.25-1.33.25-.11 0-.22 0-.33-.01-.14-.01-.28-.02-.41-.02-.65 0-.96.15-1.26.29-.19.09-.37.17-.62.21-.09.01-.19.02-.27.02-.45 0-.72-.17-.81-.32-.05-.08-.06-.17-.02-.24.04-.07.1-.11.19-.11.06 0 .11.02.18.04.08.03.19.06.31.06.07 0 .14-.01.22-.03.11-.04.25-.11.4-.2.4-.22.95-.52 1.72-.52.09 0 .18 0 .27.01.07.01.14.01.2.01.48 0 .89-.15 1.32-.31l.33-.12-5.04-.19c-.01 0-.07 0-.13-.02-.11-.04-.18-.13-.18-.24 0-.18.17-.26.32-.26l4.93-.19c-.06-.01-.12-.01-.18-.01-.47-.04-.95-.07-1.63-.42-.68-.35-1.09-.4-1.4-.4-.09 0-.16 0-.24.01-.08 0-.15.01-.22.01-.16 0-.29-.02-.43-.05-.53-.13-.83-.43-.88-.67-.03-.1 0-.2.06-.26.04-.03.09-.05.13-.05.09 0 .16.06.23.12.11.09.24.21.48.23.12.01.27-.01.45-.03.19-.02.41-.05.65-.05.5 0 .95.11 1.38.34.5.26 1 .28 1.52.3.12 0 .23.01.35.02l-4.58-2.1c-.01 0-.06-.03-.11-.07-.09-.08-.13-.19-.08-.29.04-.1.13-.15.24-.15.08 0 .15.03.16.03l4.64 1.72c-.06-.03-.11-.06-.17-.09-.42-.21-.85-.43-1.34-1.01-.6-.71-1.01-.86-1.37-.99-.2-.07-.39-.14-.59-.29-.44-.33-.6-.71-.56-.95.02-.11.08-.19.16-.21.02-.01.05-.01.07-.01.13 0 .19.12.24.22.06.13.14.29.35.39.11.05.25.1.42.15.5.14 1.18.34 1.77 1.05.36.44.81.64 1.29.86.11.05.21.1.32.15l-3.43-3.7s-.05-.05-.08-.11a.24.24 0 0 1 .04-.3c.05-.05.11-.07.17-.07.13 0 .23.09.25.11l3.62 3.36c-.04-.05-.08-.09-.12-.14-.31-.36-.62-.73-.85-1.45-.29-.89-.6-1.18-.89-1.44a1.87 1.87 0 0 1-.43-.49c-.27-.46-.28-.88-.16-1.09.05-.09.13-.15.22-.15.2.01.21.2.22.31.01.14.02.32.18.5.08.09.2.19.34.3.4.32.96.76 1.23 1.64.17.54.51.91.86 1.29.08.08.16.17.24.26l-1.75-4.73c0-.01-.02-.06-.03-.13-.01-.12.05-.22.15-.27.03-.01.06-.02.09-.02.14 0 .23.12.27.22l2.06 4.49c-.02-.06-.04-.11-.05-.17-.15-.45-.3-.91-.24-1.66.08-.93-.11-1.32-.27-1.67-.09-.19-.17-.37-.21-.62-.07-.48.06-.83.2-1 .1-.12.24-.16.34-.11.17.08.11.26.07.36-.05.13-.1.3-.03.53.04.11.11.25.2.4.25.45.59 1.07.51 1.99-.05.57.12 1.03.3 1.52l.12.33.19-5.04c0-.01 0-.07.02-.13.07-.1.16-.17.27-.17.18 0 .26.17.26.32l.19 4.93c0-.06.01-.12.01-.18.04-.47.07-.95.42-1.63.42-.83.4-1.26.39-1.64-.01-.21-.02-.41.04-.65.14-.56.49-.89.75-.89.07 0 .13.03.18.08.12.14 0 .28-.07.37-.09.11-.21.24-.23.48-.01.12.01.27.03.45.06.51.14 1.22-.29 2.03-.26.5-.28 1-.3 1.52 0 .12-.01.23-.01.35l2.1-4.58c.04-.1.14-.21.27-.21.03 0 .06.01.09.02.17.07.18.26.12.4l-1.72 4.64c.03-.06.06-.11.09-.17.21-.42.43-.85 1.01-1.34.71-.6.86-1.01.99-1.37.07-.2.14-.39.29-.59.31-.42.67-.57.89-.57.14 0 .25.06.28.16.06.18-.11.26-.21.31-.13.06-.29.14-.39.35-.05.11-.1.25-.15.43-.14.5-.34 1.18-1.05 1.77-.44.37-.64.82-.86 1.29-.05.11-.1.21-.15.32l3.7-3.43c.01-.02.12-.11.24-.11.07 0 .12.02.17.07.13.13.07.31-.04.42l-3.36 3.62c.05-.04.09-.08.14-.12.36-.31.73-.62 1.45-.85.89-.29 1.18-.6 1.44-.89.14-.16.28-.3.49-.43.32-.19.59-.23.75-.23.18 0 .33.05.41.14.05.05.07.11.07.17-.01.19-.2.2-.31.21-.14.01-.32.02-.5.18-.09.08-.19.2-.3.34-.32.4-.76.96-1.64 1.23-.54.17-.91.51-1.29.86-.08.08-.17.16-.26.24l4.73-1.75c.01 0 .08-.03.16-.03.11 0 .2.06.24.15.04.1.01.21-.08.29-.05.04-.11.07-.12.07l-4.49 2.06c.06-.02.11-.04.17-.05.38-.12.76-.25 1.33-.25.11 0 .22 0 .33.01.14.01.28.02.41.02.65 0 .96-.15 1.26-.29.19-.09.37-.17.62-.21.09-.01.18-.02.27-.02.45 0 .72.17.81.32.05.08.06.17.02.24-.04.07-.1.11-.19.11-.06 0-.11-.02-.18-.04a.898.898 0 0 0-.31-.06c-.07 0-.14.01-.22.03-.11.04-.25.11-.4.2-.4.22-.95.52-1.72.52-.09 0-.18 0-.27-.01-.07-.01-.14-.01-.2-.01-.48 0-.89.15-1.32.31l-.33.12 5.04.19c.01 0 .07 0 .13.02.11.04.18.13.18.24 0 .18-.17.26-.32.26l-4.93.19c.06.01.12.01.18.01.47.04.95.07 1.63.42.68.35 1.09.4 1.4.4.08 0 .16 0 .24-.01.08 0 .15-.01.22-.01.16 0 .29.02.43.05.53.13.83.43.88.67.03.1 0 .2-.06.26a.21.21 0 0 1-.13.05c-.09 0-.16-.06-.23-.12-.11-.09-.24-.21-.48-.23-.12-.01-.27.01-.45.03-.19.02-.41.05-.65.05-.5 0-.95-.11-1.38-.34-.5-.26-1-.28-1.52-.3-.12 0-.23-.01-.35-.02l4.58 2.1c.01 0 .06.03.11.07.09.08.13.19.08.29-.04.1-.13.15-.24.15-.08 0-.15-.03-.16-.03l-4.64-1.72c.06.03.11.06.17.09.42.21.85.43 1.34 1.01.6.71 1.01.86 1.37.99.2.07.39.14.59.29.44.33.6.71.56.95-.02.11-.08.19-.16.21-.02.01-.05.01-.07.01-.13 0-.19-.12-.24-.22-.06-.13-.14-.29-.35-.39-.11-.05-.25-.1-.42-.15-.5-.14-1.18-.34-1.77-1.05-.36-.44-.81-.64-1.29-.86-.11-.05-.21-.1-.32-.15l3.43 3.7c.11.11.17.28.04.41-.05.05-.11.07-.17.07-.13 0-.23-.09-.25-.11l-3.62-3.36c.04.05.08.09.12.14.31.36.62.73.85 1.45.29.89.6 1.18.89 1.44.16.14.31.28.43.49.27.46.28.88.16 1.08-.05.09-.13.15-.22.15-.2-.01-.21-.2-.22-.31-.01-.14-.02-.32-.18-.5-.08-.09-.2-.19-.34-.3-.4-.32-.96-.76-1.23-1.64-.17-.54-.51-.91-.86-1.29-.08-.08-.16-.17-.24-.26l1.75 4.73c.01.02.06.15.01.27-.02.06-.07.1-.13.13-.03.01-.06.02-.09.02-.14 0-.23-.12-.27-.22l-2.06-4.49c.02.06.04.11.05.17.15.45.3.91.24 1.66-.08.93.11 1.32.27 1.67.09.19.17.37.21.62.07.48-.06.83-.2 1-.1.12-.24.16-.34.11-.17-.08-.11-.26-.07-.37.05-.13.1-.3.03-.53-.04-.11-.11-.25-.2-.4-.25-.45-.59-1.07-.51-1.99.05-.57-.12-1.03-.3-1.52l-.12-.33-.19 5.04c0 .01 0 .07-.02.13-.07.12-.16.19-.27.19z" style="fill:#843511"/><path d="m41.68 31.88-6.18-.23c1.18-.06 1.89-.77 3.01-.67 1.19.11 1.87-.55 2.33-.7.47-.15.74.16.81.03.07-.14-.3-.44-.96-.34-.66.1-.86.6-2.32.48-1.33-.11-1.74.48-2.81.45l5.42-2.49s.17-.07.12-.18c-.05-.11-.21-.04-.21-.04l-5.8 2.15c1.07-.5 1.46-1.43 2.53-1.77 1.15-.36 1.52-1.22 1.89-1.54.37-.32.75-.13.76-.28.01-.15-.44-.29-1.02.06-.57.34-.56.88-1.96 1.33-1.28.41-1.42 1.11-2.43 1.49l4.06-4.38s.13-.13.04-.21c-.09-.09-.21.04-.21.04l-4.53 4.2c.79-.87.8-1.88 1.66-2.6.92-.77.93-1.71 1.16-2.15.22-.44.64-.41.59-.55-.05-.14-.52-.1-.92.44s-.18 1.03-1.3 1.98c-1.02.87-.89 1.57-1.67 2.31l2.08-5.6s.07-.17-.04-.21c-.11-.05-.18.12-.18.12l-2.58 5.62c.4-1.11.02-2.04.54-3.03.56-1.06.21-1.94.25-2.43.04-.49.44-.62.34-.74-.1-.11-.52.11-.68.76-.16.65.23 1.02-.44 2.32-.61 1.19-.22 1.79-.66 2.77l-.22-5.96s0-.18-.12-.18-.12.18-.12.18l-.23 6.18c-.05-1.18-.76-1.89-.66-3.01.11-1.2-.55-1.87-.7-2.34-.15-.47.17-.74.03-.81-.14-.07-.44.3-.34.96.1.66.6.86.48 2.32-.11 1.33.48 1.74.45 2.81l-2.49-5.42s-.07-.17-.18-.12c-.11.05-.04.21-.04.21l2.15 5.8c-.5-1.07-1.43-1.46-1.77-2.53-.36-1.15-1.22-1.52-1.54-1.89-.32-.37-.13-.75-.28-.76-.15-.01-.29.45.06 1.02.34.57.88.56 1.33 1.96.41 1.27 1.11 1.42 1.49 2.43l-4.38-4.06s-.13-.13-.21-.04c-.08.09.04.21.04.21l4.21 4.53c-.87-.8-1.88-.8-2.6-1.66-.77-.92-1.71-.93-2.15-1.16-.44-.22-.41-.64-.55-.59-.14.05-.1.52.44.92s1.03.18 1.98 1.3c.87 1.02 1.57.89 2.31 1.67l-5.6-2.08s-.17-.07-.21.04c-.05.11.12.18.12.18l5.62 2.58c-1.11-.4-2.04-.02-3.03-.54-1.06-.56-1.94-.21-2.43-.25-.49-.04-.62-.44-.74-.34-.11.1.11.52.76.68.65.16 1.02-.23 2.32.44 1.19.61 1.79.22 2.77.66l-5.96.22s-.18 0-.18.12.18.12.18.12l6.18.23c-1.18.06-1.89.77-3.01.67-1.19-.11-1.87.55-2.33.7-.47.15-.74-.16-.81-.03-.07.14.3.44.96.34.66-.1.86-.6 2.32-.48 1.33.11 1.74-.48 2.81-.45l-5.42 2.49s-.17.07-.12.18c.05.11.21.04.21.04l5.8-2.15c-1.07.5-1.46 1.43-2.53 1.77-1.15.36-1.52 1.22-1.89 1.54-.37.32-.75.13-.76.28-.01.15.44.29 1.02-.06.57-.34.56-.88 1.96-1.33 1.28-.41 1.42-1.11 2.43-1.49l-4.06 4.38s-.13.13-.04.21c.09.09.21-.04.21-.04l4.53-4.2c-.79.87-.8 1.88-1.66 2.6-.92.77-.93 1.71-1.16 2.15-.22.44-.64.41-.59.55.05.14.52.1.92-.44s.18-1.03 1.3-1.98c1.02-.87.89-1.57 1.67-2.31l-2.08 5.6s-.07.17.04.21c.11.05.18-.12.18-.12l2.58-5.62c-.4 1.11-.02 2.04-.54 3.04-.56 1.06-.21 1.94-.25 2.43-.04.49-.44.62-.34.74.1.11.52-.11.68-.76.16-.65-.23-1.02.44-2.32.61-1.19.22-1.79.66-2.77l.22 5.96s0 .18.12.18.12-.18.12-.18l.23-6.18c.05 1.18.76 1.89.66 3.01-.11 1.2.55 1.87.7 2.34.15.46-.17.74-.03.81.14.07.44-.3.34-.96-.1-.66-.6-.86-.48-2.32.11-1.33-.48-1.74-.45-2.81l2.49 5.42s.07.17.18.12c.11-.05.04-.21.04-.21l-2.15-5.8c.5 1.07 1.43 1.46 1.77 2.53.36 1.15 1.22 1.52 1.54 1.89.32.37.13.75.28.76.15.01.29-.45-.06-1.02-.34-.57-.88-.56-1.33-1.96-.41-1.27-1.11-1.42-1.49-2.43l4.38 4.06s.13.13.21.04c.08-.09-.04-.21-.04-.21l-4.21-4.53c.87.8 1.88.8 2.6 1.66.77.92 1.71.93 2.15 1.16.44.22.41.64.55.59.14-.05.1-.52-.44-.92s-1.03-.18-1.98-1.3c-.87-1.02-1.57-.89-2.31-1.67l5.6 2.08s.17.07.21-.04c.05-.11-.12-.18-.12-.18L35.37 33c1.11.4 2.04.02 3.03.54 1.06.56 1.94.21 2.43.25.49.04.62.44.74.34.11-.1-.11-.52-.76-.68-.65-.16-1.02.23-2.32-.44-1.19-.61-1.79-.22-2.77-.66l5.96-.22s.18 0 .18-.12c0-.13-.18-.13-.18-.13z" style="fill:#ffd000"/><path d="M38.48 33.32c-.64-.56-1.44-.31-2.46-.61.04-.2.06-.4.06-.61l2.58-.1-2.57-.09c0-.2-.02-.4-.06-.6.92-.2 1.48-.69 2.46-.57-.8-.27-1.45.26-2.5.38-.04-.2-.1-.4-.18-.59l2.34-1.07-2.41.9c-.08-.18-.18-.36-.28-.53.77-.54 1.1-1.21 2.06-1.47-.85.06-1.24.8-2.17 1.31-.12-.17-.25-.33-.39-.47l1.75-1.89-1.89 1.75c-.14-.14-.3-.27-.46-.38.51-.79.56-1.54 1.34-2.15-.76.38-.84 1.21-1.5 2.04-.17-.11-.35-.21-.54-.29l.9-2.41-1.07 2.34c-.19-.07-.38-.13-.57-.18.17-.92-.08-1.63.41-2.5-.56.64-.31 1.44-.61 2.46-.2-.04-.4-.06-.61-.06L32 25.35l-.09 2.57c-.2 0-.4.02-.6.06-.2-.92-.69-1.48-.57-2.46-.27.8.26 1.45.38 2.5-.2.04-.4.1-.59.18l-1.07-2.34.9 2.41c-.18.08-.36.18-.53.28-.54-.77-1.21-1.1-1.47-2.06.06.85.8 1.24 1.31 2.17-.17.12-.33.25-.47.39l-1.89-1.75 1.75 1.89c-.14.14-.27.3-.38.46-.79-.51-1.54-.56-2.15-1.34.38.76 1.21.84 2.04 1.5-.11.17-.21.35-.29.54l-2.41-.9 2.34 1.07c-.07.19-.13.38-.18.58-.92-.17-1.63.08-2.5-.41.64.56 1.44.31 2.46.61-.04.2-.06.4-.06.61l-2.59.09 2.57.09c0 .2.02.4.06.6-.92.2-1.48.69-2.46.57.8.27 1.45-.26 2.5-.38.04.2.1.4.18.59l-2.34 1.07 2.41-.9c.08.18.18.36.28.53-.77.54-1.1 1.21-2.06 1.47.85-.06 1.24-.8 2.17-1.31.12.17.25.33.39.47l-1.75 1.89 1.89-1.75c.14.14.3.27.46.38-.51.79-.56 1.54-1.34 2.15.76-.38.84-1.21 1.5-2.04.17.11.35.21.54.29l-.9 2.41 1.07-2.34c.19.07.38.13.57.18-.17.92.08 1.63-.41 2.5.56-.64.31-1.44.61-2.46.2.04.4.06.61.06l.11 2.58.09-2.57c.2 0 .4-.02.6-.06.2.92.69 1.48.57 2.46.27-.8-.26-1.45-.38-2.5.2-.04.4-.1.59-.18l1.07 2.34-.9-2.41c.18-.08.36-.18.53-.28.54.77 1.21 1.1 1.47 2.06-.06-.85-.8-1.24-1.31-2.17.17-.12.33-.25.47-.39l1.89 1.75-1.75-1.89c.14-.14.27-.3.38-.46.79.51 1.54.56 2.15 1.34-.38-.76-1.21-.84-2.04-1.5.11-.17.21-.35.29-.54l2.41.9-2.34-1.07c.07-.19.13-.38.18-.58.94.17 1.65-.07 2.51.42z" style="fill:#843511"/><path d="M32 28.06c2.18 0 3.94 1.77 3.94 3.94s-1.77 3.94-3.94 3.94c-2.18 0-3.94-1.77-3.94-3.94s1.76-3.94 3.94-3.94z" style="fill:#ffd000"/><path d="M34.09 31.49c-.2-.21-.48-.33-.75-.33s-.53.12-.68.36c.31.27.98.3 1.43-.03zm-.21-.04c-.12.13-.25.2-.4.23a.265.265 0 0 0 .01-.45c.2.03.36.13.39.22zm-.72-.21c-.06.05-.1.13-.1.21 0 .1.06.19.14.24a.831.831 0 0 1-.42-.18c.1-.14.24-.23.38-.27z" style="fill:#843511"/><path d="M33.39 30.97c-.39 0-.48.09-.67.24-.18.15-.27.12-.3.15-.03.03 0 .12.06.09s.18-.09.36-.24.36-.15.55-.15c.55 0 .85.45.91.42.07-.03-.3-.51-.91-.51zm1.1.18z" style="fill:#843511"/><path d="M32.24 30.85c-.04.11-.07.23-.09.35-.08.45.01.92.25 1.38.03-.03.09-.06.12-.06-.27-.38-.38-.76-.32-1.1.03-.18.11-.35.23-.51.49-.46 1.36-.36 2.06.24-.67-.91-1.58-.85-2.25-.3z" style="fill:#843511"/><path d="M32.91 31.76c-.24-.12-.3-.18-.36-.18s-.06.06.24.24.82.21 1.33-.18c-.6.24-.97.24-1.21.12zm-.33 1.14c-.1 0-.18-.08-.18-.17-.03.06-.15.23-.38.24a.48.48 0 0 1-.38-.24c-.01.1-.09.17-.18.17a.18.18 0 0 1-.18-.18c0-.08.05-.15.12-.17a.27.27 0 0 0-.22.27c0 .15.13.27.27.27.09 0 .17-.04.22-.11.11.08.25.09.33.09h.04c.08 0 .22-.01.33-.09.05.07.13.11.22.11.15 0 .28-.12.28-.27a.27.27 0 0 0-.22-.27c.07.03.12.1.12.17-.01.1-.09.18-.19.18zm-.58.63c.13 0 .31-.15.52-.03.21.12.34.24.49.3-.27-.18-.4-.46-.7-.46-.06 0-.18.03-.3.09a.795.795 0 0 0-.3-.09c-.3 0-.42.27-.7.46.15-.06.27-.18.48-.3.2-.11.38.03.51.03z" style="fill:#843511"/><path d="M32 33.75c-.12 0-.21-.04-.41-.04-.12 0-.27.03-.49.09H31c.64.06.33.43 1 .43.67 0 .37-.36 1-.43-.04 0-.08-.01-.11-.01-.59-.16-.71-.04-.89-.04zm0 .39c-.52 0-.36-.34-.89-.34h-.01c.53-.11.65.07.89.07s.36-.18.88-.07c-.51 0-.36.34-.87.34zm0 .1c-.3 0-.55.24-.55.55.06-.25.29-.43.55-.43.26 0 .49.18.54.43a.54.54 0 0 0-.54-.55zm-2.45-3.09zm2.06-.24c.12.16.2.33.23.51.06.35-.05.72-.32 1.1.03 0 .09.03.12.06.24-.46.33-.93.25-1.38a2.25 2.25 0 0 0-.09-.35c-.67-.55-1.58-.61-2.24.3.69-.61 1.57-.7 2.05-.24z" style="fill:#843511"/><path d="M31.19 31.21c.18.15.3.21.36.24s.09-.06.06-.09-.12 0-.3-.15-.27-.24-.67-.24c-.61 0-.97.49-.91.52.06.03.36-.42.91-.42.18-.01.36-.01.55.14z" style="fill:#843511"/><path d="M29.94 31.52c.16.15.43.22.71.21h.01c.24-.01.5-.09.7-.24-.2-.21-.48-.33-.75-.33-.26 0-.52.11-.67.36zm.13 0a.6.6 0 0 1 .43-.28c-.07.05-.12.13-.12.22 0 .11.06.2.16.25a.977.977 0 0 1-.47-.19zm1.09-.07c-.1.11-.21.18-.33.21.06-.05.11-.13.11-.21 0-.09-.04-.16-.1-.21.16.04.29.13.32.21z" style="fill:#843511"/><path d="M31.49 31.58c-.06 0-.12.06-.36.18s-.61.12-1.21-.12c.52.39 1.03.36 1.33.18.3-.18.3-.24.24-.24z" style="fill:#843511"/><linearGradient id="a" x1="32" x2="32" y1="62" y2="2" gradientUnits="userSpaceOnUse"><stop offset="0" style="stop-color:#1a1a1a"/><stop offset=".102" style="stop-color:#393939;stop-opacity:.949"/><stop offset=".347" style="stop-color:#7f7f7f;stop-opacity:.8262"/><stop offset=".569" style="stop-color:#b6b6b6;stop-opacity:.7156"/><stop offset=".758" style="stop-color:#dedede;stop-opacity:.6209"/><stop offset=".908" style="stop-color:#f6f6f6;stop-opacity:.5459"/><stop offset="1" style="stop-color:#fff;stop-opacity:.5"/></linearGradient><circle cx="32" cy="32" r="30" style="opacity:.1;fill:url(#a)"/></svg>