<svg xmlns="http://www.w3.org/2000/svg" xml:space="preserve" style="enable-background:new 0 0 64 64" viewBox="0 0 64 64"><path d="M10.79 10.79C1.03 20.54-.59 35.34 5.89 46.78L46.78 5.89c-11.45-6.48-26.24-4.86-35.99 4.9zm42.42 42.42c9.76-9.76 11.38-24.56 4.88-36.01L17.2 58.09c11.45 6.5 26.25 4.88 36.01-4.88z" style="fill:#007fff"/><path d="M48.54 6.97c-.58-.38-1.17-.74-1.77-1.08L5.89 46.78c.34.6.69 1.19 1.08 1.77L48.54 6.97zM15.45 57.03c.57.38 1.16.73 1.75 1.06L58.09 17.2c-.33-.59-.69-1.18-1.07-1.75L15.45 57.03z" style="fill:#ffe000"/><path d="M10.79 53.21c1.45 1.45 3.02 2.72 4.67 3.82l41.58-41.58a29.908 29.908 0 0 0-3.82-4.67 30.595 30.595 0 0 0-4.67-3.82L6.97 48.54c1.09 1.65 2.36 3.22 3.82 4.67z" style="fill:#e81c27"/><path d="m17.21 21.58 3.71 2.81-1.4-4.58 3.69-2.92h-4.57l-1.43-4.5-1.38 4.5h-4.62l3.69 2.92-1.4 4.58z" style="fill:#ffe000"/><linearGradient id="a" x1="32" x2="32" y1="62" y2="2" gradientUnits="userSpaceOnUse"><stop offset="0" style="stop-color:#1a1a1a"/><stop offset=".102" style="stop-color:#393939;stop-opacity:.949"/><stop offset=".347" style="stop-color:#7f7f7f;stop-opacity:.8262"/><stop offset=".569" style="stop-color:#b6b6b6;stop-opacity:.7156"/><stop offset=".758" style="stop-color:#dedede;stop-opacity:.6209"/><stop offset=".908" style="stop-color:#f6f6f6;stop-opacity:.5459"/><stop offset="1" style="stop-color:#fff;stop-opacity:.5"/></linearGradient><circle cx="32" cy="32" r="30" style="opacity:.1;fill:url(#a)"/></svg>