<svg xmlns="http://www.w3.org/2000/svg" xml:space="preserve" style="enable-background:new 0 0 64 64" viewBox="0 0 64 64"><linearGradient id="a" x1="32" x2="32" y1="2" y2="62" gradientUnits="userSpaceOnUse"><stop offset="0" style="stop-color:#f90"/><stop offset=".287" style="stop-color:#ff9500"/><stop offset=".585" style="stop-color:#f80"/><stop offset=".887" style="stop-color:#ff7400"/><stop offset="1" style="stop-color:#ff6a00"/></linearGradient><circle cx="32" cy="32" r="30" style="fill:url(#a)"/><path d="M40.83 17.89c-2.5-1.26-5.51-1.89-9.01-1.89h-12.4v32h12.41c3.53 0 6.55-.64 9.06-1.91 2.5-1.27 4.41-3.1 5.73-5.48 1.32-2.38 1.98-5.26 1.98-8.65 0-3.36-.67-6.22-2-8.61-1.35-2.38-3.27-4.2-5.77-5.46zm-1.82 21.86c-1.71 1.72-4.27 2.58-7.69 2.58h-4.9V21.66h4.9c6.83 0 10.25 3.43 10.25 10.29 0 3.48-.85 6.08-2.56 7.8z" style="fill:#fff"/></svg>