<svg xmlns="http://www.w3.org/2000/svg" xml:space="preserve" style="enable-background:new 0 0 64 64" viewBox="0 0 64 64"><path d="M32 62c9.81 0 18.53-4.71 24-12H8c5.47 7.29 14.19 12 24 12zm0-60C15.43 2 2 15.43 2 32h60C62 15.43 48.57 2 32 2z" style="fill:navy"/><path d="M61.4 38c.39-1.94.6-3.94.6-6H2c0 2.06.21 4.06.6 6h58.8z" style="fill:#fcfcfc"/><path d="M4.5 44h55c.83-1.91 1.48-3.91 1.9-6H2.6c.43 2.09 1.07 4.09 1.9 6z" style="fill:#e81c27"/><path d="M4.5 44c.94 2.14 2.11 4.15 3.5 6h48c1.39-1.85 2.56-3.86 3.5-6h-55z" style="fill:#fcfcfc"/><path d="m25 26.06 1.24.94-.47-1.53 1.23-.94-1.53-.01L25 23l-.47 1.52-1.53.01 1.23.94-.47 1.53zm0 30 1.24.94-.47-1.53 1.23-.94-1.53-.01L25 53l-.47 1.52-1.53.01 1.23.94-.47 1.53zm13-20 1.24.94-.47-1.53 1.23-.94-1.53-.01L38 33l-.47 1.52-1.53.01 1.23.94-.47 1.53zm-21-7 1.24.94-.47-1.53 1.23-.94-1.53-.01L17 26l-.47 1.52-1.53.01 1.23.94-.47 1.53zm16 0 1.24.94-.47-1.53 1.23-.94-1.53-.01L33 26l-.47 1.52-1.53.01 1.23.94-.47 1.53zm-22 7 1.24.94-.47-1.53 1.23-.94-1.53-.01L11 33l-.47 1.52-1.53.01 1.23.94L9.76 37zm27 12 1.24.94-.47-1.53 1.23-.94-1.53-.01L38 45l-.47 1.52-1.53.01 1.23.94-.47 1.53zm-27 0 1.24.94-.47-1.53 1.23-.94-1.53-.01L11 45l-.47 1.52-1.53.01 1.23.94L9.76 49zm21 6 1.24.94-.47-1.53 1.23-.94-1.53-.01L32 51l-.47 1.52-1.53.01 1.23.94-.47 1.53zm-15 0 1.24.94-.47-1.53 1.23-.94-1.53-.01L17 51l-.47 1.52-1.53.01 1.23.94-.47 1.53z" style="fill:#ffe000"/><linearGradient id="a" x1="32" x2="32" y1="62" y2="2" gradientUnits="userSpaceOnUse"><stop offset="0" style="stop-color:#1a1a1a"/><stop offset=".102" style="stop-color:#393939;stop-opacity:.949"/><stop offset=".347" style="stop-color:#7f7f7f;stop-opacity:.8262"/><stop offset=".569" style="stop-color:#b6b6b6;stop-opacity:.7156"/><stop offset=".758" style="stop-color:#dedede;stop-opacity:.6209"/><stop offset=".908" style="stop-color:#f6f6f6;stop-opacity:.5459"/><stop offset="1" style="stop-color:#fff;stop-opacity:.5"/></linearGradient><circle cx="32" cy="32" r="30" style="opacity:.1;fill:url(#a)"/></svg>