<svg xmlns="http://www.w3.org/2000/svg" xml:space="preserve" style="enable-background:new 0 0 64 64" viewBox="0 0 64 64"><path d="M32 62c13.06 0 24.17-8.35 28.29-20H3.71C7.83 53.65 18.94 62 32 62zm0-60C18.94 2 7.83 10.35 3.71 22h56.57C56.17 10.35 45.06 2 32 2z" style="fill:#0072ce"/><path d="M60.29 42a30.086 30.086 0 0 0 0-20H3.71a30.086 30.086 0 0 0 0 20h56.58z" style="fill:#fcfcfc"/><path d="M32 33.59 33.85 35l-.7-2.29L35 31.29h-2.29L32 29l-.71 2.29H29l1.85 1.42-.7 2.29zm-10-5L23.85 30l-.7-2.29L25 26.29l-2.29-.01L22 24l-.71 2.28-2.29.01 1.85 1.42-.7 2.29zm20 0L43.85 30l-.7-2.29L45 26.29l-2.29-.01L42 24l-.71 2.28-2.29.01 1.85 1.42-.7 2.29zm-20 10L23.85 40l-.7-2.29L25 36.29l-2.29-.01L22 34l-.71 2.28-2.29.01 1.85 1.42-.7 2.29zm20 0L43.85 40l-.7-2.29L45 36.29l-2.29-.01L42 34l-.71 2.28-2.29.01 1.85 1.42-.7 2.29z" style="fill:#0072ce"/><linearGradient id="a" x1="32" x2="32" y1="62" y2="2" gradientUnits="userSpaceOnUse"><stop offset="0" style="stop-color:#1a1a1a"/><stop offset=".102" style="stop-color:#393939;stop-opacity:.949"/><stop offset=".347" style="stop-color:#7f7f7f;stop-opacity:.8262"/><stop offset=".569" style="stop-color:#b6b6b6;stop-opacity:.7156"/><stop offset=".758" style="stop-color:#dedede;stop-opacity:.6209"/><stop offset=".908" style="stop-color:#f6f6f6;stop-opacity:.5459"/><stop offset="1" style="stop-color:#fff;stop-opacity:.5"/></linearGradient><circle cx="32" cy="32" r="30" style="opacity:.1;fill:url(#a)"/></svg>