<svg xmlns="http://www.w3.org/2000/svg" xml:space="preserve" viewBox="0 0 64 64"><path fill="#E81C27" d="M2.423 37C4.058 46.742 10.381 54.895 19 59.045V37H2.423zm59.155-10C59.195 12.813 46.865 2 32 2c-1.012 0-2.013.052-3 .15V27h32.578zM19 4.956C10.381 9.106 4.058 17.258 2.423 27H19V4.956zM29 61.85c.987.098 1.988.15 3 .15 14.866 0 27.196-10.813 29.579-25H29v24.85z"/><path fill="#FCFCFC" d="M61.578 27H29V2.15a29.807 29.807 0 0 0-10 2.806V27H2.423A30.068 30.068 0 0 0 2 32c0 1.705.149 3.373.423 5H19v22.045a29.793 29.793 0 0 0 10 2.805V37h32.579c.273-1.627.421-3.295.421-5s-.148-3.373-.422-5z"/><linearGradient id="a" x1="32.001" x2="32.001" y1="62" y2="2.001" gradientUnits="userSpaceOnUse"><stop offset="0" style="stop-color:#1a1a1a"/><stop offset=".102" style="stop-color:#393939;stop-opacity:.949"/><stop offset=".347" style="stop-color:#7f7f7f;stop-opacity:.8262"/><stop offset=".569" style="stop-color:#b6b6b6;stop-opacity:.7156"/><stop offset=".758" style="stop-color:#dedede;stop-opacity:.6209"/><stop offset=".908" style="stop-color:#f6f6f6;stop-opacity:.5459"/><stop offset="1" style="stop-color:#fff;stop-opacity:.5"/></linearGradient><circle cx="32" cy="32" r="30" fill="url(#a)" opacity=".1"/></svg>