<svg xmlns="http://www.w3.org/2000/svg" xml:space="preserve" viewBox="0 0 64 64"><path fill="#E81C27" d="M32 2C18.939 2 7.834 10.35 3.715 22h56.572C56.168 10.35 45.061 2 32 2z"/><path fill="#1A1626" d="M32 62c13.061 0 24.168-8.35 28.287-20H3.715C7.834 53.65 18.939 62 32 62z"/><path fill="#FCFCFC" d="M3.715 22C2.607 25.129 2 28.492 2 32s.607 6.871 1.715 10h56.572C61.393 38.871 62 35.508 62 32s-.607-6.871-1.713-10H3.715z"/><path fill="#00A650" d="M44.725 26.572c-.178-.094-.377-.244-.445-.334-.098-.141-.041-.145.371-.033.734.199 1.211.121 1.682-.277l.416-.352.488.25c.27.135.557.23.637.209.213-.057.652-.621.637-.814-.016-.242.188-.182.285.084.195.518-.088 1.111-.592 1.242-.246.064-.473.041-.844-.088-.457-.16-.535-.158-.764.018-.514.394-1.231.431-1.871.095zm1.818-1.664c-.178-.229-.393-1.088-.322-1.299.061-.182.123-.221.289-.168.293.092.359.293.314.973-.033.555-.113.701-.281.494zm-21.439-.619c-.059.418.738 1.451 1.098 1.639-.244.109-.549.061-.771.184-1.256 1.254-5.834 5.719-6.67 6.785 2.477.049 5.223-.035 7.545-.139 0-1.684 1.594-1.771 2.662-2.383.549.865 1.93.799 2.104 2.102l.002 5.602H9.916c-.373 1.645-1.855 2.898-3.924 2.383.639-.668 1.717-.898 2.102-1.82.326-2.023-.65-3.27-1.279-4.416 1.043-.381 1.201-.475 2.262-1.189-.744 2.262 1.934 2.014 3.922 1.963.066-.768.029-1.674-.561-1.785.76-.277.887-.371 2.104-1.402v3.047c4.725 0 9.826-.037 14.65-.037 0-.951.252-2.482-.502-2.482-.721 0-.033 1.959-.594 1.959H16.782c0-.422-.012-1.303-.012-1.938.48-.479.424-.438 3.699-3.715.326-.329 2.625-2.407 4.635-4.358zm28.281-.08c.791.426 1.416 1.014 2.383 1.262-.111.4-.469.559-.561.98v8.545c1.08.238 1.309-.373 1.822-.699.139 1.367 1.01 2.707.98 3.781h-4.625l.001-13.869zm-6.164 4.576s1.682-1.418 1.682-1.473v7.457l1.211-.002c0-2.84-.035-5.723-.035-8.363.488-.492 1.453-1.205 1.693-1.701v13.355c-3.412 0-9.779.004-10.621.004-.154-2.771-.182-5.643 3.049-5.027v-1.129c-.098-.193-.275.047-.316-.205.514-.514.688-.645 2.076-1.857 0 1.465.027 4.92.027 4.92l1.225.002.009-5.981zm-3.987 5.908c.227.342 1.002.336.965-.238-.129-.475-1.146-.295-.965.238z"/><circle cx="12.49" cy="39.653" r=".649" fill="#00A650"/><path fill="#00A650" d="M32.504 24.223c.791.426 1.416 1.014 2.383 1.262-.111.398-.469.559-.563.979v8.547c1.08.238 1.307-.375 1.822-.701.141 1.369 1.012 2.709.98 3.783h-4.623l.001-13.87z"/><linearGradient id="a" x1="32.001" x2="32.001" y1="62" y2="2.001" gradientUnits="userSpaceOnUse"><stop offset="0" style="stop-color:#1a1a1a"/><stop offset=".102" style="stop-color:#393939;stop-opacity:.949"/><stop offset=".347" style="stop-color:#7f7f7f;stop-opacity:.8262"/><stop offset=".569" style="stop-color:#b6b6b6;stop-opacity:.7156"/><stop offset=".758" style="stop-color:#dedede;stop-opacity:.6209"/><stop offset=".908" style="stop-color:#f6f6f6;stop-opacity:.5459"/><stop offset="1" style="stop-color:#fff;stop-opacity:.5"/></linearGradient><circle cx="32" cy="32" r="30" fill="url(#a)" opacity=".1"/></svg>