<svg xmlns="http://www.w3.org/2000/svg" xml:space="preserve" style="enable-background:new 0 0 64 64" viewBox="0 0 64 64"><path d="M11.01 32v21.42C16.42 58.72 23.82 62 32 62c16.57 0 30-13.43 30-30H11.01z" style="fill:#22cb41"/><path d="M11.01 32H62C62 15.43 48.57 2 32 2c-8.18 0-15.58 3.28-20.99 8.58V32z" style="fill:#00b9ff"/><path d="M11.01 10.58C5.45 16.02 2 23.61 2 32s3.45 15.98 9.01 21.42L32.43 32 11.01 10.58z" style="fill:#fcfcfc"/><path d="M14 35.71 18.32 39l-1.63-5.34L21 30.25h-5.34L14 25l-1.62 5.25H7l4.31 3.41L9.68 39z" style="fill:#e81c27"/><linearGradient id="a" x1="32" x2="32" y1="62" y2="2" gradientUnits="userSpaceOnUse"><stop offset="0" style="stop-color:#1a1a1a"/><stop offset=".102" style="stop-color:#393939;stop-opacity:.949"/><stop offset=".347" style="stop-color:#7f7f7f;stop-opacity:.8262"/><stop offset=".569" style="stop-color:#b6b6b6;stop-opacity:.7156"/><stop offset=".758" style="stop-color:#dedede;stop-opacity:.6209"/><stop offset=".908" style="stop-color:#f6f6f6;stop-opacity:.5459"/><stop offset="1" style="stop-color:#fff;stop-opacity:.5"/></linearGradient><path d="M62 32c0 16.57-13.43 30-30 30S2 48.57 2 32 15.43 2 32 2s30 13.43 30 30z" style="opacity:.1;fill:url(#a)"/></svg>