<svg xmlns="http://www.w3.org/2000/svg" xml:space="preserve" style="enable-background:new 0 0 64 64" viewBox="0 0 64 64"><circle cx="32" cy="32" r="30" style="fill:#fcfcfc"/><path d="M12.47 36.95s-.16 1.37.4 2.02c.57.65 1.94 1.37 2.42 1.45.48.08-.56-1.78-.56-1.78s-1.53-1.93-2.26-1.69zm.25 3.48s.16 1.29 1.05 1.45c.89.16 1.7.08 1.7.08s-.01-1.45-2.75-1.53zm2.91-2.67s.89.32.89 1.13c0 .8-.08 1.61-.08 1.61s-.65-.81-.65-1.21c0-.4-.16-1.53-.16-1.53zm-.34 4.86s-.11.8.8.8c.92 0 .12-1.03-.8-.8zm-.05 1.26s.97-.29 2.11-.06c1.14.23 1.71 1.09 1.71 1.09s-1.2.34-2.57 0c-1.36-.35-1.25-1.03-1.25-1.03zm.63-2.86s1.37-.4 2.68 2.57c0 0-2.51-.63-2.68-2.57zm1.42-.63s1.54-.86 2.8 3.14c0 .01-1.77-.68-2.8-3.14zm2.06 3.72s1.54-.57 3.54 1.77c-3.26-.12-3.54-1.77-3.54-1.77zm1.03-1.09s-.07.9.53.9c.6 0 .08-1.16-.53-.9zm-1.11 2.34s-.06.79.41.79c.47-.01.06-1.02-.41-.79zm4.71 2.43s-.08.9.53.9c.6 0 .07-1.16-.53-.9zm1.43-2.69s-.08.9.53.9c.6 0 .07-1.15-.53-.9zm-3.78-1.56s2.17-.57 3.08 2.17c-2.62-.41-3.08-2.17-3.08-2.17zm-1.94 3.02s2.45-.63 3.6.23c1.14.86-2.17 1.2-3.6-.23zm4.29.06s1.65-.8 3.48.97c-3.43.46-3.48-.97-3.48-.97zm2.79-1.09s1.66-.51 3.25 2.51c-3.59-.51-3.25-2.51-3.25-2.51zm2.86 3.32s-1.83 1.26-4.11-.06c0 0 .74-1.54 4.11.06zm21.89-11.92s.16 1.37-.4 2.02c-.56.65-1.94 1.37-2.42 1.45-.48.08.57-1.78.57-1.78s1.53-1.94 2.25-1.69zm-.24 3.47s-.16 1.29-1.05 1.46c-.89.16-1.7.08-1.7.08s.01-1.46 2.75-1.54zm-2.9-2.67s-.89.32-.89 1.13.08 1.62.08 1.62.65-.81.65-1.21c-.01-.41.16-1.54.16-1.54zm.32 4.86s.12.8-.8.8-.11-1.02.8-.8zm.06 1.26s-.97-.29-2.11-.06c-1.14.23-1.71 1.09-1.71 1.09s1.2.34 2.57 0c1.37-.34 1.25-1.03 1.25-1.03zm-.63-2.86s-1.37-.4-2.68 2.57c0 0 2.51-.62 2.68-2.57zm-1.42-.62s-1.54-.86-2.8 3.14c0 0 1.77-.69 2.8-3.14zm-2.06 3.71s-1.54-.57-3.54 1.77c3.25-.12 3.54-1.77 3.54-1.77zm-1.03-1.09s.08.9-.53.9-.08-1.16.53-.9zm1.11 2.34s.06.79-.41.79-.06-1.02.41-.79zm-4.71 2.43s.07.9-.53.9c-.6 0-.07-1.16.53-.9zm-1.43-2.69s.08.9-.53.9c-.6 0-.07-1.15.53-.9zm3.78-1.56s-2.17-.57-3.08 2.17c2.62-.4 3.08-2.17 3.08-2.17zm1.94 3.02s-2.45-.63-3.6.23c-1.14.86 2.17 1.2 3.6-.23zm-4.29.06s-1.66-.8-3.48.97c3.43.46 3.48-.97 3.48-.97zm-2.79-1.08s-1.66-.51-3.26 2.51c3.6-.52 3.26-2.51 3.26-2.51zm-2.86 3.31s1.83 1.26 4.11-.06c0 0-.74-1.54-4.11.06zm-2.72.73s-1.25 1.7-1.25 1.54c0-.16-.89-.89-.89-.89l1.54-1.13-.61-.29.32-.36 1.13.48" style="fill:#006952"/><path d="M32 49.54s1.25 1.7 1.25 1.54c0-.16.89-.89.89-.89l-1.54-1.13.61-.28-.32-.36-1.13.48m-.19.73h.53" style="fill:#006952"/><path d="M18.04 29.52s.44 1.14.93 1.14 1.8.11 1.8.11.65-.11.87-.71c.22-.6.82-3.1 3.81-1.58 3 1.53 3.16-2.61 3.16-2.61l-.49-.71.11-1.36s1.63 1.14 2.67 1.09c1.04-.05 1.8.33 2.12.33.33 0 1.36.33 1.36.33l2.67.11s.44-.38.87-.33c.44.05.44-.27 1.25-.27.82 0 1.63-1.04 1.63-1.04s.22-.22 1.42 0c0 0 .82-.65 2.02-1.04 1.2-.38 1.04-.87 1.04-.87s.87-.16 1.25-.11.6-.65.6-.65l.93-.11.38-.54.93-.17s1.09-.76 1.25-1.25c.16-.49 1.42-.11 1.42-.11s.54-.49.6-.76c.05-.27.54-.05.54-.05l-.05.87-.6.33v.54h-.93l-.05.54-.76.06-.11.65-.16.27-.22.11h-.54l-.22.33-.54.38-.38.49-.76-.05-.49.65-.33-.06-.49.82-.38.49-.22.33-.38.11-.11.44-.65.16-.87.22-.33.38s-.93 1.85.05 2.51c.98.65 1.04 1.36 1.04 1.36l.49.33.38.65.16.76s-.16.11-.38.05c-.22-.05-.6-.11-.6-.11l-.44-.38-.82-.05-.44.49s-.22.33-.22.54c0 .22-.11.16-.38 0s-.71-.44-.71-.44l-.6-.16-.05-.27-.38.22s-.11.33-.33.22c-.22-.11-.44-.11-.44-.11h-.38s-.87.65-.76 2.78l-.98.16-.49.44-.27.27h-.71l-.39.32-.71.27-.33.44-.87.05-.38.27-.16.38-.6-.38-.82-.22-.71.16s-.22.06-.44.22-.82.27-.82.27-.38.11-.38.33c0 .22-.11.6-.11.6v.82s-.11.54-.54.54c-.44 0-.33 0-.55-.05-.22-.05-.16-.54-.16-.54v-.6l-.87-.82-.54-.22-.6.06-.54.33-.49.33s.11.38-.27.11-.65-.38-.65-.38l-.49-.27-.65-.16-.49-.6-1.25-.05-1.09-1.25-.33-.33-.05-.98-.71-.11v-.54l-.27-.54.11-.98-.65-.27-.27-.93-.24-1.44z" style="fill:#ff8200"/><linearGradient id="a" x1="32" x2="32" y1="62" y2="2" gradientUnits="userSpaceOnUse"><stop offset="0" style="stop-color:#1a1a1a"/><stop offset=".102" style="stop-color:#393939;stop-opacity:.949"/><stop offset=".347" style="stop-color:#7f7f7f;stop-opacity:.8262"/><stop offset=".569" style="stop-color:#b6b6b6;stop-opacity:.7156"/><stop offset=".758" style="stop-color:#dedede;stop-opacity:.6209"/><stop offset=".908" style="stop-color:#f6f6f6;stop-opacity:.5459"/><stop offset="1" style="stop-color:#fff;stop-opacity:.5"/></linearGradient><circle cx="32" cy="32" r="30" style="opacity:.1;fill:url(#a)"/></svg>