<svg xmlns="http://www.w3.org/2000/svg" xml:space="preserve" style="enable-background:new 0 0 64 64" viewBox="0 0 64 64"><path d="M2 32c0 16.57 13.43 30 30 30 11.74 0 21.91-6.75 26.83-16.58L5.17 18.58A29.94 29.94 0 0 0 2 32z" style="fill:#0000b3"/><path d="M32 2C20.25 2 10.09 8.75 5.17 18.58l53.66 26.83C60.86 41.38 62 36.82 62 32 62 15.43 48.57 2 32 2z" style="fill:#079935"/><path d="M32 20.78c6.2 0 11.22 5.02 11.22 11.22S38.2 43.22 32 43.22 20.78 38.2 20.78 32 25.81 20.78 32 20.78z" style="fill:#fcd70b"/><path d="M25.15 26.96c.77 1.05 1.93 2.82 2.87 2.36.73 0 1.11.05 1.21.54 1.72.29 4.62-.43 6.41-2.78 0 0 .15.02.1-.87.01-.39.53-.31.54-.18.07.19.06.34.16.34.22-.07.52-.57.78-.89.07-.14.03-.29.05-.46.13-.33.47-.26.54-.09.06.11.06.2.13.31.34.22.95.01 1 .01.06-.28.24-.25.24-.25.23-.05.14-.03.29.05-.13 1.49.29 1.56.26 2.32.02.86-.26 1.1-.26 1.42.08.4 1.34.41.9.75-.39.21 0 .6-.58.75-1.71.87-2.03 1.61-2.03 1.61l-.48.81c-.29.54-.65.25-.85.51-.1.33-.21 1.06-.01 1.44.1.52-.01.81-.14 1.33-.11 1.09-.55 1.26-.6 1.64-.2.41.04 2.33-.15 2.33-1.27.02-2.24-.24-2.74-.34.49-2.11.3-3.96.3-4.15-.13-1.51-2.26-1.14-2.59-1.34-.27-.06-.44-.28-.54-.37-.3-.03-.41-.1-.71-.13-.15.08-.06.15-.4.26-.85.1-1.23-.74-1.23-.74.04-.29-1.91.06-2.98-.19-.44.24-.63.96-.98 1.05-.01.22-.59-.19-.71-.4-.02-.64.56-.92.56-.92.46-.32.73-.38.95-.6.11-.55.05-.97.29-1.38.2-.32.5-.17.7-.31.21-.14.31-1.08.11-1.33l-.91-.83c-.28-.82.33-1.34.5-1.28z" style="fill:#079935"/><path d="M60.52 26.75c-.15-.33-.62-.44-.96-.67-.49-.12-.83-.15-1.17.05-.11.06-.21.12-.32.17l-.53-.07c-1.15.03-1.34-3.79-1.87-5.35-.35-1.03-2.89-3.1-4.78-4.39-.45-.26-.71-.06-.62.35.25.35.45.74.7 1.1.08.24.21.41.29.65l.09.46c.6.57.72 1.08.72 1.08.37.59.69 1.02 1.29 1.48.66.34.29 1.61.36 2.26.03.41-.27.39-.53.36-2.18-1.71-4.2-1.56-6.02-1.96-.7-.02-.69.31-.45.48 1.35 1.23 2.59 2.05 4.19 2.68l.81.42.94.67c.72.39.81.79.81.83.08.83-.31 1.51-.42 1.78-.17.9-3.01 2.85-8.18 3.88-.1-.04-.68.1.02.3 5.34-.41 9.46-3.19 9.73-3.3.8-.51 3.09-1.19 3.59-1.67.61-.1 1.24-.23 1.25-.76.19-.15.49-.08.68-.52.47-.14.38-.31.38-.31z" style="fill:#fcd70b"/><path d="m12.2 28.2-.76-.72-.77.71.08-1.05-1.03-.16.87-.59-.52-.9 1 .31.39-.97.38.97 1-.3-.53.91.86.59-1.03.15zm2.71 8.65-.82-.55-.8.58.28-.94-.81-.56.99-.03.3-.92.34.91.99-.01-.79.6zm-2.55 7.44-.77-.71-.77.7.08-1.04-1.03-.16.87-.59-.52-.91 1 .31.39-.97.38.98 1-.3-.53.9.86.6-1.03.15zM5.5 35.57l-.76-.72-.77.71.08-1.04-1.03-.17.86-.58-.51-.91.99.31.39-.97.38.98 1-.3-.52.9.86.59-1.04.16.07 1.04zm13.19-2.29-.76-.71-.77.7.08-1.04-1.03-.16.86-.59-.51-.91 1 .31.39-.96.37.97 1-.3-.52.9.86.6-1.04.15z" style="fill:#fcfcfc"/><linearGradient id="a" x1="32" x2="32" y1="62" y2="2" gradientUnits="userSpaceOnUse"><stop offset="0" style="stop-color:#1a1a1a"/><stop offset=".102" style="stop-color:#393939;stop-opacity:.949"/><stop offset=".347" style="stop-color:#7f7f7f;stop-opacity:.8262"/><stop offset=".569" style="stop-color:#b6b6b6;stop-opacity:.7156"/><stop offset=".758" style="stop-color:#dedede;stop-opacity:.6209"/><stop offset=".908" style="stop-color:#f6f6f6;stop-opacity:.5459"/><stop offset="1" style="stop-color:#fff;stop-opacity:.5"/></linearGradient><path d="M62 32c0 16.57-13.43 30-30 30S2 48.57 2 32 15.43 2 32 2s30 13.43 30 30z" style="opacity:.1;fill:url(#a)"/></svg>