<svg xmlns="http://www.w3.org/2000/svg" xml:space="preserve" style="enable-background:new 0 0 64 64" viewBox="0 0 64 64"><circle cx="32" cy="32" r="30" style="fill:#002395"/><path d="m32 11.8.72 2.21h2.32l-1.88 1.36.72 2.2L32 16.21l-1.87 1.36.71-2.2-1.88-1.36h2.33zm0 33.98.72 2.2h2.32l-1.88 1.37.72 2.2L32 50.19l-1.88 1.36.72-2.2-1.88-1.37h2.32zm8.42-2.75.72 2.21h2.32l-1.88 1.36.72 2.21-1.88-1.37-1.88 1.37.72-2.21-1.88-1.36h2.32zm5.8-5.8.72 2.21h2.31l-1.87 1.36.72 2.21-1.88-1.37-1.88 1.37.72-2.21-1.88-1.36h2.32zm2.74-8.44.72 2.2H52l-1.88 1.37.72 2.2-1.88-1.36-1.87 1.36.71-2.2-1.87-1.37h2.32zm-2.74-8.45.72 2.21h2.31l-1.87 1.36.72 2.21-1.88-1.36-1.88 1.36.72-2.21-1.88-1.36h2.32zm-5.8-5.8.72 2.21h2.32l-1.88 1.37.71 2.2-1.87-1.36-1.88 1.36.72-2.2-1.88-1.37h2.32zM23.58 43.03l-.72 2.21h-2.32l1.88 1.36-.72 2.21 1.88-1.37 1.88 1.37-.72-2.21 1.88-1.36H24.3zm-5.8-5.8-.72 2.21h-2.32l1.88 1.36-.72 2.21 1.88-1.37 1.88 1.37-.72-2.21 1.87-1.36H18.5zm-2.74-8.44-.72 2.2H12l1.88 1.37-.72 2.2 1.88-1.36 1.87 1.36-.71-2.2 1.87-1.37h-2.32zm2.74-8.45-.72 2.21h-2.32l1.88 1.36-.72 2.21 1.88-1.36 1.88 1.36-.72-2.21 1.87-1.36H18.5zm5.8-5.8-.72 2.21h-2.32l1.88 1.37-.72 2.2 1.88-1.36 1.88 1.36-.72-2.2 1.88-1.37H24.3z" style="fill:#ffe000"/><linearGradient id="a" x1="32" x2="32" y1="62" y2="2" gradientUnits="userSpaceOnUse"><stop offset="0" style="stop-color:#1a1a1a"/><stop offset=".102" style="stop-color:#393939;stop-opacity:.949"/><stop offset=".347" style="stop-color:#7f7f7f;stop-opacity:.8262"/><stop offset=".569" style="stop-color:#b6b6b6;stop-opacity:.7156"/><stop offset=".758" style="stop-color:#dedede;stop-opacity:.6209"/><stop offset=".908" style="stop-color:#f6f6f6;stop-opacity:.5459"/><stop offset="1" style="stop-color:#fff;stop-opacity:.5"/></linearGradient><circle cx="32" cy="32" r="30" style="opacity:.1;fill:url(#a)"/></svg>