<svg xmlns="http://www.w3.org/2000/svg" xml:space="preserve" style="enable-background:new 0 0 64 64" viewBox="0 0 64 64"><path d="M2 32c0 12.68 7.88 23.52 19 27.91V4.09C9.88 8.48 2 19.32 2 32z" style="fill:#0038b8"/><path d="M62 32c0-12.68-7.88-23.52-19-27.91v55.82C54.13 55.52 62 44.68 62 32z" style="fill:#e81c27"/><path d="M32 2c-3.88 0-7.59.75-11 2.09v55.82C24.41 61.25 28.12 62 32 62s7.59-.75 11-2.09V4.09A30.018 30.018 0 0 0 32 2z" style="fill:#ffe000"/><path d="M42.49 28.91c.04-.27-.05-1.23-.81-1.89-.25-.22-.65-.43-1.02-.44-.07 0-.14 0-.21.01-.15.02-.31.07-.44.16.02-.06.04-.15.04-.21-.03-.23-.21-.42-.44-.4-.17.01-.24.21-.21.37-.04-.07-.15-.22-.15-.31 0-.35.17-.57.38-.84.5-.64.99-.87 1.2-1.62.02-.07.05-.17.05-.24.01-.21-.13-.43-.31-.55-.08-.05-.13-.05-.19-.07-.05-.02-.09-.14-.12-.18-.04-.07-.07-.09-.12-.15a.634.634 0 0 0-.41-.18c-.04 0-.07-.1-.11-.15-.16-.19-.29-.28-.53-.28-.12 0-.34.09-.38.09-.08 0-.08-.13-.16-.17a.442.442 0 0 0-.25-.06c-.13 0-.19.08-.31.08-.06 0-.08-.04-.13-.08-.09-.07-.16-.08-.27-.08-.18 0-.27.07-.4.18-.06.05-.03.13-.09.16-.05.03-.14-.02-.19-.01-.28.09-.48.29-.48.58 0 .26.29.46.54.48-.47.49-1.23.48-1.32.47-.41-.01-1.03-.17-1.03-.63 0-.19.07-.3.14-.47.15-.37.21-.54.3-.94.05-.21-.04-.57-.15-.76-.19-.33-.42-.45-.79-.45-.37 0-.57.1-.89.28-.46.26-.76.44-1.28.44-.85 0-1.19-.75-2.04-.75-.31 0-.53.06-.72.32-.18.25-.21.44-.21.75 0 .39.08.61.23.97.08.2.2.32.2.54 0 .47-.57.67-1.03.67-.5 0-.85-.08-1.24-.4.12-.04.21-.03.31-.11a.48.48 0 0 0 .16-.39c0-.31-.21-.5-.5-.6-.06-.02-.11-.01-.17-.04-.1-.06-.12-.15-.22-.21-.11-.07-.18-.11-.3-.11-.13 0-.19.04-.3.12-.04.02-.05.07-.09.07-.12 0-.2-.07-.32-.07-.11 0-.15.02-.24.07a.8.8 0 0 0-.16.13c-.01.01-.08-.05-.11-.06-.11-.04-.17-.04-.28-.04-.23 0-.36.09-.5.26-.05.06-.06.12-.13.17-.13.09-.23.06-.35.17-.07.06-.12.1-.17.18-.03.05-.03.12-.08.15-.06.04-.14 0-.2.04-.21.13-.33.3-.33.55 0 .84.64 1.15 1.15 1.81.24.3.44.5.44.89 0 .1-.03.17-.08.26-.08-.15-.15-.3-.31-.3-.23 0-.39.21-.39.45 0 .06.03.09.03.15 0 .05-.08-.02-.12-.04a.698.698 0 0 0-.32-.09c-.08-.01-.13-.01-.21-.01-.28 0-.43.08-.68.19-.3.13-.44.29-.64.55-.34.44-.44.78-.51 1.34-.01.07-.01.11-.01.18 0 .27.04.43.12.69.06.22.09.35.22.54.19.29.29.49.58.67.19.12.34.13.51.29-.21.1-.33.28-.33.52 0 .32.24.6.56.6.16 0 .27-.04.38-.15.12.12.14.24.2.41.08.23.1.38.1.63 0 .35-.08.57-.26.87-.11.18-.16.33-.35.42-.1-.17-.22-.28-.42-.28-.23 0-.35.17-.45.38-.03.07-.09.08-.12.14-.05.1-.02.17-.04.28-.02.08-.09.09-.13.16-.05.1-.06.18-.06.29 0 .31.2.51.49.62.11.04.19 0 .31.03-.45.47-.71.87-.71 1.53 0 .11 0 .17.01.28.15 1.26.86 2 1.99 2.54.33.16.54.17.9.23.47.08.74.13 1.21.16.6.04.94.04 1.54.08.78.05 1.32.15 1.87.71-.29.14-.49.34-.49.67 0 .37.21.62.55.77.09.04.16.02.24.07.08.05.09.12.17.17.15.1.26.12.44.12.29 0 .44-.12.69-.28.17.2.28.3.49.46.13.1.21.2.37.2.1 0 .15-.07.24-.12.27-.16.35-.34.6-.55.21.21.41.29.71.29.17 0 .28-.02.42-.11.08-.05.08-.15.16-.19.07-.04.12-.02.2-.04.32-.11.53-.35.53-.7 0-.34-.18-.53-.45-.73.56-.58 1.11-.69 1.9-.75.6-.04.95-.04 1.55-.08.47-.03.74-.07 1.2-.16.72-.14 1.16-.27 1.76-.71.39-.28.56-.52.78-.96.22-.45.3-.76.3-1.27 0-.08 0-.12-.01-.19-.05-.4-.1-.63-.31-.97-.14-.23-.29-.32-.48-.51.1-.01.15.03.25.03.33 0 .63-.24.63-.58 0-.12-.01-.2-.06-.31-.03-.07-.1-.08-.13-.15-.05-.11.01-.2-.05-.31-.04-.07-.09-.08-.13-.15-.03-.05-.01-.1-.03-.15-.08-.18-.24-.24-.44-.24s-.32.13-.43.3c-.21-.19-.29-.34-.41-.59-.11-.24-.16-.4-.16-.67 0-.45.06-.77.37-1.09.11.11.22.15.38.15.28 0 .49-.24.49-.53 0-.26-.19-.47-.46-.59 1.45-.41 1.39-1.49 1.48-2.09z" style="fill:#c7b37f"/><path d="M38.77 35.51V24.02H25.23V35.5s0 .17.02.28c.04.31.09.5.23.78s.24.42.46.64c.22.22.37.32.64.46s.43.18.72.25.46.08.75.1c.27.01.42 0 .7-.02.29-.02.45-.06.74-.09.24-.02.38-.04.62-.04.25 0 .39 0 .63.05.23.04.36.07.57.16.29.12.63.34.7.43.07-.1.4-.31.7-.43.21-.09.34-.12.57-.16.24-.04.38-.05.63-.05.24 0 .38.02.62.04.29.03.45.07.74.09.27.02.42.03.7.02.3-.01.47-.03.75-.1.29-.07.46-.11.72-.25.27-.14.42-.24.64-.46.21-.22.32-.36.46-.64s.19-.47.23-.78v-.27z" style="fill:#b5a374"/><path d="m26.85 38.25-.23-.06c-.07-.02-.08-.03-.13-.05-.01 0-.03 0-.03.01-.01.05.12.04.08.18l-.16.57c-.04.16-.13.09-.14.13-.01.03.02.03.03.03.06.02.11.03.17.05.05.01.08.03.1.03.03.01.04 0 .04-.01.01-.05-.11-.03-.07-.17l.06-.22c.01-.04.01-.06.07-.04.06.02.07.04.08.1l.04.23c.01.09.03.18.12.21.04.01.13.01.14-.03 0-.01 0-.02-.01-.02h-.04c-.01 0-.03-.01-.03-.03-.03-.19-.08-.4-.08-.41 0-.01.04-.01.08-.03.04-.02.09-.06.11-.14.02-.06.05-.25-.2-.33zm.05.32c-.02.08-.05.15-.22.09-.03-.01-.08-.02-.07-.06l.07-.26c.02-.08.06-.07.1-.05.12.04.16.15.12.28zm2.44.25c-.01 0-.05.01-.06.01-.03-.01-.07-.07-.17-.08-.14-.02-.25.07-.27.23-.02.14.04.2.13.27.17.13.24.16.22.27-.02.11-.1.16-.19.14-.13-.02-.18-.16-.2-.29 0-.02 0-.03-.02-.03-.03 0-.02.04-.02.06l.01.19c0 .03 0 .04.03.06.06.03.12.07.19.08.15.03.28-.07.31-.25.03-.17-.04-.24-.15-.32-.14-.1-.21-.13-.19-.22.02-.09.08-.13.15-.12.2.03.18.28.2.29.03 0 .03-.01.03-.04l.02-.18c-.01-.05 0-.07-.02-.07zm-1.44-.29c-.11-.03-.18-.04-.35-.08-.17-.04-.24-.07-.35-.09-.02 0-.02.01-.03.03l-.06.17c0 .02-.02.04 0 .05.05.01.06-.17.19-.14l.1.02c.05.01.06.02.04.08l-.14.61c-.04.16-.15.06-.16.11-.01.03.01.03.03.04.05.01.09.02.16.03.08.02.11.03.16.04.03.01.06.02.06-.01.01-.04-.15-.03-.11-.2l.14-.59c.02-.06.03-.07.08-.06l.1.02c.13.03.06.16.11.18.03.01.03-.05.03-.06l.01-.12c0-.01.01-.03-.01-.03zm-1.81.31.19-.61c.04-.12.11-.05.12-.09 0-.02 0-.02-.03-.03-.06-.02-.11-.03-.15-.04-.04-.01-.08-.03-.13-.05-.01 0-.04-.02-.04 0 0-.01-.01-.02-.03-.02l-.09-.03c-.03-.01-.06-.03-.09-.04-.01-.01-.04-.02-.05 0-.01.04.11.04.07.16-.01.02-.03.06-.09.14l-.29.33-.02.02c-.01 0-.01-.02-.01-.03v-.46c0-.09.01-.15.02-.19.02-.05.08-.01.09-.04.01-.02 0-.02-.03-.04-.02-.01-.05-.01-.12-.04-.04-.01-.07-.03-.11-.05-.02-.01-.05-.03-.06 0 0 .01.01.02.01.02.04.03.05.05.05.11l.01.84c0 .06.01.08.02.08s.02 0 .04-.03l.58-.64c.06-.06.1-.04.11-.07 0 .04.12.05.09.16l-.19.62c-.04.12-.11.06-.12.11 0 .01 0 .02.01.02.03.01.08.02.13.04.09.03.13.05.17.06.03.01.04.01.04-.01 0-.06-.15-.05-.1-.2zm2.7-.11c0-.02-.01-.02-.04-.03-.03-.01-.07-.01-.1-.01a.355.355 0 0 0-.1-.02c-.01 0-.05-.01-.05.01-.01.05.12.02.1.14 0 .02-.01.07-.07.15l-.23.37c-.01.01-.01.03-.02.02-.01 0-.01-.02-.01-.03l-.07-.46c-.01-.09-.02-.15-.01-.19.01-.06.08-.02.08-.06 0-.02 0-.02-.04-.03-.02 0-.05 0-.13-.02l-.12-.03c-.02 0-.05-.02-.06.01 0 .01.01.02.02.02.04.02.06.04.07.1l.15.83c.01.06.02.07.03.08.01 0 .02 0 .04-.04l.46-.74c.05-.06.1-.04.1-.07zm7.5.57c-.01 0-.02.01-.03.02-.01 0-.03.01-.05-.01-.12-.14-.26-.31-.26-.32 0-.01.03-.03.05-.07.03-.04.05-.1.03-.18-.01-.06-.08-.24-.33-.18l-.23.06c-.07.02-.08.01-.14.03-.01 0-.02.01-.02.03.01.05.13-.03.16.11l.13.58c.04.17-.07.15-.06.19.01.03.03.02.04.01.06-.01.11-.03.18-.05.05-.01.08-.01.1-.02.03-.01.03-.02.03-.03-.01-.05-.11.03-.14-.11l-.05-.23c-.01-.05-.02-.05.04-.07.06-.01.08-.01.12.04l.14.18c.05.07.11.14.2.12.05-.01.12-.06.11-.1 0 0-.01-.01-.02 0zm-.54-.3c-.03.01-.08.02-.08-.01l-.06-.26c-.02-.08.02-.09.06-.1.12-.03.2.05.23.18.02.07.03.15-.15.19zm.94.09-.15-.59c-.02-.06-.01-.07.04-.08l.1-.03c.13-.04.13.11.18.1.03-.01 0-.06 0-.07l-.04-.12c0-.01-.01-.03-.03-.03-.11.03-.18.05-.35.1-.17.04-.24.06-.35.09-.02 0-.01.02-.01.04l.03.18c0 .02 0 .05.03.04.05-.01-.03-.18.1-.21l.09-.03c.05-.01.06-.01.08.05l.15.61c.04.16-.11.13-.09.18.01.03.03.02.05.02.04-.01.08-.03.16-.05l.16-.04c.03-.01.06-.01.05-.04-.02-.04-.16.04-.2-.12zm.64-.15-.17-.62c-.03-.12.07-.1.05-.15 0-.02-.01-.02-.04-.01-.07.02-.1.04-.15.05l-.13.03c-.01 0-.04.01-.03.03.01.05.13-.03.16.09l.17.62c.03.12-.06.11-.05.16 0 .01.01.02.02.01.03-.01.08-.03.13-.04.09-.03.13-.03.18-.04.02-.01.03-.02.03-.03-.02-.04-.13.06-.17-.1zm.34-.96c-.27.09-.35.36-.26.64.08.26.29.38.52.3.36-.12.32-.46.26-.64-.09-.27-.31-.38-.52-.3zm.27.87c-.2.07-.36-.17-.42-.36-.06-.19-.06-.38.13-.45.14-.05.33.05.42.33.07.22.06.41-.13.48zm1.2-.48c0-.01-.01-.02-.02-.01-.01 0-.02.02-.03.02-.01 0-.03.01-.05 0-.14-.13-.3-.27-.31-.28 0-.01.02-.04.04-.08s.04-.1 0-.18c-.02-.06-.11-.23-.35-.13-.07.03-.15.07-.22.1s-.08.03-.13.05c-.01.01-.02.02-.02.03.02.04.12-.05.17.09l.21.55c.06.16-.04.15-.03.19.01.03.03.01.04.01.06-.02.11-.05.17-.07.05-.02.08-.03.1-.03.03-.01.03-.02.03-.03-.02-.05-.11.05-.16-.08l-.08-.22c-.02-.04-.03-.05.03-.07.05-.02.08-.02.13.03l.17.16c.06.06.13.12.21.09.06-.05.12-.1.1-.14zm-.59-.23c-.03.01-.08.03-.09 0l-.1-.25c-.03-.08 0-.09.05-.11.11-.04.21.02.25.15.03.07.05.14-.11.21zm-3.65.56c-.28.05-.39.3-.34.59.05.27.24.42.47.37.37-.07.38-.41.35-.59-.05-.28-.25-.42-.48-.37zm.15.9c-.21.04-.33-.22-.36-.41-.04-.19-.01-.39.19-.43.15-.03.32.1.37.39.04.22 0 .41-.2.45zm-2.28-.41c.03 0 .02-.05.01-.07l-.01-.12c0-.01 0-.03-.02-.03-.11 0-.19.01-.36.01h-.36c-.02 0-.02.02-.02.03l-.01.17c0 .02-.01.05.02.05.05 0 .02-.18.15-.18h.1c.05 0 .06.01.06.07l.01.63c0 .16-.13.1-.13.15 0 .03.02.03.04.03.05 0 .08-.01.16-.01h.17c.04 0 .06 0 .06-.03 0-.04-.15 0-.15-.16l-.01-.61c0-.06.01-.07.06-.07h.1c.12-.01.09.14.13.14zm1.69-.38c0-.01-.01-.02-.03-.02-.1.01-.18.03-.27.04-.18.02-.27.03-.31.04-.02 0-.02.01-.02.03.01.05.13-.01.15.11l.08.63c.02.16-.08.1-.07.16 0 .01.01.01.02.01.06-.01.11-.02.15-.03.05-.01.1-.01.14-.01.03 0 .06 0 .05-.03 0-.04-.13.02-.15-.13l-.03-.2c-.01-.08-.02-.09.04-.1l.09-.01c.12-.02.11.13.14.12.03 0 .02-.05.01-.07l-.04-.24c-.01-.04-.02-.03-.03-.03-.02 0-.01.13-.11.14l-.08.01c-.05.01-.05 0-.06-.06l-.03-.19c-.01-.09-.01-.09.13-.11.23-.03.16.14.21.13.03 0 .02-.05.01-.06l.01-.13zm-.95.94-.38-.8c-.02-.04-.02-.04-.03-.04-.02 0-.02.03-.03.05l-.26.84c-.02.08-.08.07-.08.11 0 .02.02.01.04.01.03 0 .07-.01.1-.01h.11c.02 0 .06 0 .06-.02 0-.04-.13 0-.13-.1 0-.03.01-.08.02-.11.02-.09.04-.1.06-.1l.23-.02c.03 0 .04.01.08.11.02.04.03.06.03.09.01.08-.08.07-.07.11 0 .02.02.01.04.01.04 0 .08-.01.13-.02.08-.01.11 0 .15-.01.03 0 .04 0 .04-.02-.01-.05-.07.01-.11-.08zm-.34-.27-.16.01c-.02 0-.04 0-.04-.01 0-.02 0-.03.01-.05l.07-.25c.01-.01.01-.02.01-.02.01 0 0 0 .01.01l.12.23c.01.02.01.03.02.05 0 .02-.01.02-.04.03zm-1.34.28v-.64c0-.13.09-.08.09-.13 0-.02 0-.02-.04-.02h-.15c-.04 0-.09-.01-.13-.01-.01 0-.04 0-.04.02 0 .05.13.01.13.13v.65c0 .13-.09.09-.09.14 0 .01 0 .02.01.02h.13c.09 0 .14.01.18.01.03 0 .04 0 .04-.02 0-.05-.14.02-.13-.15zm-.36-.8c-.01 0-.05.01-.13 0-.08 0-.12-.01-.13-.01-.02 0-.02.01-.02.02 0 .04.14.02.14.14v.45c0 .03 0 .05-.01.05s-.02-.02-.04-.04l-.47-.6c-.02-.03-.01-.03-.04-.04h-.13c-.02 0-.04-.01-.06-.01h-.14c-.04 0-.07-.01-.1-.01-.02 0-.05-.01-.05.02 0 .05.12.01.11.13 0 .02-.01.07-.05.16l-.19.4c0 .01-.01.03-.02.03s-.01-.02-.01-.03l-.12-.44a.89.89 0 0 1-.03-.19c0-.06.07-.03.08-.07 0-.02-.01-.02-.04-.02h-.13c-.04 0-.08-.01-.12-.02-.02 0-.05-.02-.06.02 0 .01.02.02.02.02.05.02.06.03.08.09l.23.8c.02.06.03.07.04.07.01 0 .02-.01.04-.04l.38-.78c.02-.05.05-.06.07-.07.03.02.12 0 .12.21v.51c0 .14-.11.11-.11.17 0 .02.02.02.04.02.03 0 .06-.01.1 0 .04 0 .08.01.14.01.02 0 .04 0 .04-.02 0-.06-.15.03-.15-.23v-.46c0-.01 0-.02.01-.02l.02.02.56.71c.01.01.01.02.03.02.01 0 .01-.01.01-.04l.01-.76c0-.14.1-.11.1-.15.01-.01.01-.02-.02-.02z" style="fill:#703d29"/><path d="M25.91 24.72h5.78v5.92h-5.78z" style="fill:#e81c27"/><path d="m28.36 29.29-.17.19c0 .16-.11.52-.35.57-.44.09-.5-.49-.66-.81-.12-.23-.35-.5-.73-.38-.29.1-.38.44-.34.62.09.48.53.53.53.53l.21-.27s-.2-.07-.29-.2c-.08-.13-.08-.26.02-.34.17-.13.43.07.53.44.09.35.27.78.65.81.14.01.28-.03.42-.12.09-.06.19-.15.27-.28.06-.1.06-.1.13-.29.06-.17.06-.38.06-.38l-.01-.01-.27-.08zm.26.1zm.36 0v-.01zm2.18-.52c-.37-.13-.61.15-.73.38-.16.32-.23.9-.66.81-.24-.05-.35-.4-.35-.57l-.17-.19-.26.08-.01.01s0 .21.06.38c.07.2.07.2.13.29.08.13.18.22.27.28.14.09.28.14.42.12.39-.04.56-.47.65-.81.09-.37.36-.57.52-.44.1.08.1.21.02.34-.09.14-.29.2-.29.2l.21.27s.44-.06.53-.53c.03-.18-.05-.52-.34-.62z" style="fill:#fff"/><path d="M31.34 25.15c-.37-.4-.89-.17-1.02.06-.05 0-.08 0-.13.01s-.09.02-.13.02c-.02.04-.02.05-.04.08-.01.04-.01.06-.02.1l.23-.02c-.01.04-.02.05-.02.09-.01.04 0 .06-.01.1l-.21.05.01.08.03.08.16-.02c0 .15-.11.25-.11.25l-.76.84-3.04 3.38.23.22 3.02-3.35.78-.86c.09-.08.14-.18.17-.26.03-.11.02-.17.04-.27.01-.1 0-.16.04-.25.07-.15.19-.24.34-.22.17.02.29.13.31.33.01.15-.15.3-.34.18l-.14.28c.13.11.29.16.48.08.34-.17.39-.7.13-.98z" style="fill:#ffe000"/><path d="M27.09 27.16s.19.97.84 2.41c.33-.12.52-.2.87-.2s.54.07.87.2c.64-1.45.83-2.41.83-2.41l-1.7-2.25-1.71 2.25z" style="fill:#fff"/><path d="M28.09 29.14c.19-.04.35-.08.54-.1v-3.37l-1.18 1.56s.16.76.64 1.91zm.87-3.47v3.37c.2.01.36.05.54.1.48-1.14.64-1.9.64-1.9l-1.18-1.57zm3.34-.95h5.78v5.92H32.3z" style="fill:#ffe000"/><path d="M33.11 24.72h.86v5.92h-.86v-5.92zm1.66 0h.86v5.92h-.86v-5.92zm1.65 0h.86v5.92h-.86v-5.92z" style="fill:#e81c27"/><path d="M25.93 35.78c.02.11.05.29.15.48.1.17.07.16.3.43.12.13.3.25.44.33.14.08.25.12.48.18.46.12.78.13 1.17.12.3-.01.53-.05.72-.08.27-.04.47-.06.78-.07.15-.01.29-.01.43 0 .17.01.34.04.51.07.38.08.77.23.77.23v-6.19H25.9v4.23c.01 0 .02.2.03.27z" style="fill:#ffe000"/><path d="m26.6 36.87.27.16.37.14v-5.89h-.64v5.59zm3.21.26v-5.86h-.64v5.95s.44-.06.64-.07v-.02zm1.29-5.85h-.64v5.88c.22.02.43.06.64.12v-6zm-2.57 0v6.02s-.43.02-.64 0v-6.02h.64z" style="fill:#e81c27"/><path d="m26.6 36.87-.01.02.27.16.4.15v-5.93h-.68v5.62l.01.01.01-.03h.02V31.3h.61v5.84l-.34-.13-.27-.16-.02.02h.02-.02zm3.21.26h.02v-5.87h-.68v5.99h.02s.11-.01.25-.03c.13-.02.29-.03.4-.04h.02v-.04h-.05v.02h.02v-.03c-.2.02-.64.08-.64.08v.02h.02V31.3h.61v5.84h.01zm1.29-5.85v-.02h-.66v5.91h.02c.22.02.43.06.64.12l.02.01v-6.04h-.02v.02h-.02v6h.02v-.02c-.21-.06-.43-.1-.65-.12v.02h.02V31.3h.62v-.02h-.02.03zm-2.57 0h-.02v6.02h.02v-.02c-.01 0-.19.01-.37.01-.1 0-.19 0-.27-.01v.02h.02v-6h.63v-.02h-.02.01v-.02h-.66v6.05h.02c.08.01.17.01.27.01.09 0 .19 0 .26-.01h.15v-6.05h-.02v.02z" style="fill:#e81c27"/><path d="M38.09 31.28h-5.78v6.19s.39-.15.78-.23c.18-.04.35-.06.51-.07.14-.01.28-.01.43 0 .31.01.51.04.78.07.19.03.42.06.72.08.39.02.71.01 1.17-.12.23-.06.34-.1.48-.18.14-.08.32-.19.44-.32.24-.27.2-.27.3-.43.1-.19.14-.37.15-.48.01-.07.02-.28.02-.28v-4.23z" style="fill:#ffe000"/><path d="M36.83 32.67c.01 0 .02-.01.02-.01.08-.05.11-.06.17-.18a.36.36 0 0 0 .02-.11c0-.02 0-.05-.01-.07 0-.03-.01-.05-.02-.07a.21.21 0 0 0-.04-.06c-.05-.07-.13-.08-.19-.11-.1-.04-.18-.03-.29-.04-.12-.01-.18-.01-.3 0-.14.01-.22.04-.36.05-.14.02-.21.03-.34.03-.16 0-.31-.03-.41-.02-.17.02-.18.06-.44.08-.09.01-.18.01-.27.01l-.15-.05c.06-.02.08-.03.1-.07.02-.03.02-.05.04-.08.02-.02.03-.04.06-.07a.09.09 0 0 0-.07-.03c-.03-.01-.04 0-.07 0-.04 0-.06.01-.09.02-.02.01-.04.03-.06.04 0 0-.09-.06-.15-.09a.65.65 0 0 0-.21-.07s-.03.01-.04.02c-.02.02-.03.04-.05.06-.03.03-.05.04-.09.06-.02.01-.03.02-.04.03-.02.02-.01.05-.02.07-.01.03-.03.04-.05.07-.03.03-.05.04-.08.07-.03.03-.04.05-.08.07-.01.01-.02.01-.02.01h-.04c-.03.01-.04.04-.06.05.01.02.01.03.02.04.01.02.05.09.06.1.01.02.02.05.04.06.04.01.06.01.09.01.06.01.09.01.14.03.04.02.06.04.1.06.03.01.05.02.09.03.03 0 .04.01.07.01.02 0 .03-.01.04-.01h.01v.03l.15.07c-.01.01-.01.02-.01.03-.01.02-.01.05 0 .06.04.14.08.22.1.23.04.02.06.06.08.11-.01.01-.02.01-.02.02-.04.04-.08.07-.12.13-.05.09-.09.09-.02.2.04.07.06.08.11.17.03.05.04.09.05.14.01.05.02.09.02.14l.09.06.05-.05.04-.09v-.07c-.02-.01-.02-.03-.02-.06s.04-.02.05-.05c.02-.03-.02-.05-.04-.08-.04-.05-.1-.06-.11-.13 0-.02.01-.03.03-.05.06-.06.08-.07.14-.13.02.01.04.01.07.01.02 0 .04.01.1.03.04.01.06.01.09 0l.02-.01c0 .01.01.03.01.05 0 .08-.01.22.01.25l.02.04c.01.02.01.03.02.05v.14c0 .05-.01.08-.02.13 0 .03-.01.05-.03.08-.02.03-.04.03-.07.05l-.01.07.08.03.09.02.05-.02c0-.02 0-.03.01-.04.01-.02.02-.03.03-.04.03-.01.05.01.06-.01.01-.02 0-.02 0-.05 0-.05-.01-.07-.02-.12-.01-.08-.02-.12-.01-.2 0-.04 0-.07.01-.11.01-.06.03-.09.05-.16.02-.07.02-.12.03-.18.22.03.41.03.66-.03.01 0 .05-.02.05-.02.06.05.12.09.19.12v.07c0 .02 0 .04.01.05.01.01.01.02.03.02.02 0 .03 0 .05-.01.02-.01.01-.03.02-.05v-.05h.12v.03c0 .02-.01.03 0 .05.01.02.02.03.04.03.01 0 .03 0 .04-.01.02-.01.02-.04.02-.06v-.06c.02 0 .06-.02.07-.03 0 .02 0 .04-.01.06 0 .02-.01.05-.02.07-.01.04-.03.06-.05.1-.03.05-.04.07-.07.11-.01.02-.03.03-.04.05-.02.02-.03.04-.04.06a.5.5 0 0 1-.07.08c-.05.04-.08.01-.15.06l-.02.07.1.04.09.02.03-.02c0-.02 0-.04.02-.05.01-.02.03-.03.05-.03.03 0 .05 0 .07-.02.02-.02.02-.07.04-.11.06-.12.12-.18.21-.28.04-.04.08-.05.12-.1.02-.02.04-.03.04-.06 0-.02-.01-.03-.02-.05-.01-.03-.01-.07-.01-.07.11.05.07.05.09.1.02.04 0 .08 0 .12.01.05.03.08.04.14.01.06-.01.1-.02.17-.01.06-.01.09-.03.15-.02.05-.04.08-.08.11-.01.01-.03.02-.04.03l-.01.07.08.03.11.03.03-.02c.01-.05 0-.12.03-.12s.05 0 .05-.02c0-.01 0-.02.01-.05.02-.14.03-.26.04-.32.02-.07.02-.09.03-.14.01-.05-.01-.02.03-.12.05-.15-.02-.17-.08-.26a.345.345 0 0 1-.05-.11c-.01-.06.01-.11.01-.2v-.2zm-2.91-.03zm2.91 2.67c.01 0 .02-.01.02-.01.08-.05.11-.06.17-.18a.36.36 0 0 0 .02-.11c0-.02 0-.05-.01-.07 0-.03-.01-.05-.02-.07a.21.21 0 0 0-.04-.06c-.05-.07-.13-.08-.19-.11-.1-.04-.18-.03-.29-.04-.12-.01-.18-.01-.3 0-.14.01-.22.04-.36.05-.14.02-.21.03-.34.03-.16 0-.31-.03-.41-.02-.17.02-.18.05-.44.08-.09.01-.18.01-.27.01l-.15-.05c.06-.02.08-.04.1-.07.02-.03.02-.05.04-.08.02-.02.03-.05.06-.07a.09.09 0 0 0-.07-.03h-.07c-.04 0-.06.01-.09.02-.02.01-.04.03-.06.04 0 0-.09-.06-.15-.09-.08-.03-.11-.05-.21-.07 0 0-.03.01-.04.02-.02.02-.03.04-.05.06-.03.03-.05.04-.09.06-.02.01-.03.02-.04.03-.02.02-.01.05-.02.07-.01.03-.03.04-.05.07-.03.03-.05.04-.08.07-.03.03-.04.05-.08.07-.01 0-.02.01-.02.01h-.04c-.03.01-.04.04-.06.05.01.02.01.03.02.04.01.02.05.09.06.1.01.02.02.05.04.06.04.01.06.01.09.01.06.01.09.01.14.03.04.02.06.04.1.06.03.02.05.02.09.03.03.01.04.01.07.01.02 0 .03-.01.04-.01h.01v.03l.15.07c-.01.01-.01.02-.01.03-.01.02-.01.05 0 .06.04.14.08.22.1.23.04.02.06.06.08.11-.01.01-.02.01-.02.02-.04.04-.08.07-.12.13-.05.09-.09.09-.02.2.04.07.06.08.11.17.03.05.04.08.05.14.01.05.02.09.02.14l.07.03.05-.05.04-.09v-.06c-.02-.02-.02-.03-.02-.06s.04-.02.05-.04c.02-.03-.02-.05-.04-.08-.04-.05-.1-.06-.11-.13 0-.02.01-.03.03-.05.06-.06.08-.07.14-.13.02.01.04.01.07.01.02 0 .04.01.1.03.04.01.06.01.09 0l.02-.01c0 .02.01.03.01.05 0 .08-.01.22.01.25l.02.04c.01.02.01.03.02.05v.14c0 .05-.01.07-.02.13 0 .03-.01.05-.03.08-.02.03-.04.03-.07.05l-.01.07.08.03.09.02.05-.02c0-.02 0-.03.01-.05.01-.02.02-.03.03-.04.03-.01.05.01.06-.01.01-.02 0-.02 0-.05 0-.05-.01-.07-.02-.12-.01-.08-.02-.12-.01-.2 0-.05 0-.07.01-.11.01-.06.03-.09.05-.16.02-.07.02-.12.03-.18.22.03.41.03.66-.03.01 0 .05-.02.05-.02.06.05.12.09.19.12v.07c0 .02 0 .03.01.05.01.01.01.02.03.02.02 0 .03 0 .05-.01.02-.01.01-.03.02-.05v-.05h.12v.03c0 .02-.01.03 0 .05.01.02.02.03.04.03.01 0 .03 0 .04-.01.02-.01.02-.04.02-.06V36c.02-.01.06-.02.07-.03 0 .02 0 .04-.01.06 0 .02-.01.05-.02.07-.01.04-.03.06-.05.1-.03.05-.04.07-.07.11-.01.02-.03.03-.04.05-.02.02-.03.04-.04.07a.5.5 0 0 1-.07.08c-.05.04-.08.01-.15.06l-.02.07.1.04.09.02.03-.02c0-.02 0-.04.02-.05.01-.02.03-.03.05-.03.03 0 .05 0 .07-.02.02-.02.02-.07.04-.11.06-.13.12-.19.21-.28.04-.04.08-.05.12-.1.02-.02.04-.03.04-.06 0-.02-.01-.03-.02-.05-.01-.03-.01-.07-.01-.07.11.05.07.05.09.1.02.04 0 .08 0 .12.01.06.03.08.04.14.01.06-.01.1-.02.17-.01.06-.01.09-.03.14-.02.05-.04.08-.08.11-.01.01-.03.02-.04.03l-.01.07.08.03.11.03.03-.02c.01-.05 0-.12.03-.12s.05 0 .05-.02c0-.01 0-.02.01-.04.02-.14.03-.26.04-.33.02-.07.02-.08.03-.14.01-.05-.01-.02.03-.12.05-.15-.02-.17-.08-.26a.345.345 0 0 1-.05-.11c-.01-.06.01-.11.01-.2.02-.04.02-.11.02-.18zm-2.91-.03z" style="fill:#e81c27"/><linearGradient id="a" x1="32" x2="32" y1="62" y2="2" gradientUnits="userSpaceOnUse"><stop offset="0" style="stop-color:#1a1a1a"/><stop offset=".102" style="stop-color:#393939;stop-opacity:.949"/><stop offset=".347" style="stop-color:#7f7f7f;stop-opacity:.8262"/><stop offset=".569" style="stop-color:#b6b6b6;stop-opacity:.7156"/><stop offset=".758" style="stop-color:#dedede;stop-opacity:.6209"/><stop offset=".908" style="stop-color:#f6f6f6;stop-opacity:.5459"/><stop offset="1" style="stop-color:#fff;stop-opacity:.5"/></linearGradient><circle cx="32" cy="32" r="30" style="opacity:.1;fill:url(#a)"/></svg>