<svg xmlns="http://www.w3.org/2000/svg" xml:space="preserve" viewBox="0 0 64 64"><path fill="#00B9FF" d="M32 2C18.939 2 7.834 10.35 3.715 22h56.572C56.168 10.35 45.061 2 32 2z"/><path fill="#00A650" d="M32 62c13.061 0 24.168-8.35 28.287-20H3.715C7.834 53.65 18.939 62 32 62z"/><path fill="red" d="M3.715 22C2.607 25.129 2 28.492 2 32s.607 6.871 1.715 10h56.572C61.393 38.871 62 35.508 62 32s-.607-6.871-1.713-10H3.715z"/><path fill="#FCFCFC" d="M31.607 40.192c-4.514 0-8.172-3.668-8.172-8.192 0-4.523 3.658-8.191 8.172-8.191 1.076 0 2.1.214 3.039.591a9.46 9.46 0 0 0-5.764-1.958c-5.262 0-9.529 4.28-9.529 9.559 0 5.279 4.268 9.559 9.529 9.559a9.46 9.46 0 0 0 5.764-1.957 8.15 8.15 0 0 1-3.039.589zm8.817-6.765-2.227 1.427 1.387-2.252L37 32.035l2.574-.611-1.428-2.228 2.254 1.388.565-2.584.611 2.573 2.227-1.427-1.385 2.252 2.582.567-2.574.611 1.428 2.228-2.252-1.388L41.035 36z"/><linearGradient id="a" x1="32.001" x2="32.001" y1="62" y2="2.001" gradientUnits="userSpaceOnUse"><stop offset="0" style="stop-color:#1a1a1a"/><stop offset=".102" style="stop-color:#393939;stop-opacity:.949"/><stop offset=".347" style="stop-color:#7f7f7f;stop-opacity:.8262"/><stop offset=".569" style="stop-color:#b6b6b6;stop-opacity:.7156"/><stop offset=".758" style="stop-color:#dedede;stop-opacity:.6209"/><stop offset=".908" style="stop-color:#f6f6f6;stop-opacity:.5459"/><stop offset="1" style="stop-color:#fff;stop-opacity:.5"/></linearGradient><circle cx="32" cy="32" r="30" fill="url(#a)" opacity=".1"/></svg>