<svg xmlns="http://www.w3.org/2000/svg" xml:space="preserve" style="enable-background:new 0 0 64 64" viewBox="0 0 64 64"><circle cx="32" cy="32" r="30" style="fill:#e81c27"/><path d="M48.92 41.89c-.9-1.61-3.42-.41-4.72-.36.65-.55 2.54-1.88 3.49-1.92-.66-.55-2.03-.12-2.52.47-1.79 2.14-2.95.98-5.54.23 2.11-2.18-6.01-3.76-3.43-5.55.54-.38 1.44 3.08 2.84 2.52.6-.24-2.33-2.46-.78-3 .54-.19 2.54 5.71 3.93 3.31.52-.9-3.09-1.68-2.07-3.49-.74 1.31 8.81 6.19 7.58 3.02-.57-1.48-6.36-.41-5.86-4.32-.13 1.05 6.74 4.21 5.97 1.25-.17-.65-6.89-.19-5.71-3.37.18-.49 5.89 3.87 5.69.65-.08-1.17-6.08-.26-5.48-2.92.01-.05 6.21 2.58 5.48-.18-.1-.38-6.87.38-5.63-1.96-.57 1.08 8.12.55 5.53-1.57-.9-.74-4.73 2.7-5.46-.32.1.4 7.5-.59 5.41-2.72-.54-.56-5.17 3.09-5.34.7-.04-.46 6.2-3.36 5.26-4.88-1.14-1.84-7.19 3.18-7.9 3.51-4.67 2.17.05.9-2.33 3.69-1.38 1.63-2.46-.92-2.07-2 .84-2.31 5.58-2.05 5.8-3.52-.71.45-1.38.44-1.98-.05.1-.01 5.05-.74 3.41-1.41-.19-.08-.75.25-1.38.57.1-2.44-6.43-.58-7.08-.54 2.72 2.29-2.17.97.61 2.15-.72.13-1.35.45-1.88.94 1.29.23-.75 1.66-.75 1.66s-2.05-1.42-.75-1.66c-.53-.49-1.16-.81-1.88-.94 2.78-1.19-2.11.13.61-2.15-.65-.04-7.18-1.9-7.08.54-.63-.31-1.19-.65-1.38-.57-1.64.67 3.32 1.41 3.41 1.41-.61.48-1.27.5-1.98.05.22 1.47 4.96 1.21 5.8 3.52.39 1.07-.69 3.62-2.07 2-2.37-2.79 2.34-1.52-2.33-3.69-.71-.33-6.76-5.35-7.9-3.51-.95 1.52 5.29 4.41 5.26 4.88-.17 2.39-4.8-1.26-5.34-.7-2.08 2.13 5.31 3.13 5.41 2.72-.73 3.02-4.56-.42-5.46.32-2.59 2.13 6.1 2.66 5.53 1.57 1.24 2.34-5.53 1.58-5.63 1.96-.73 2.76 5.47.13 5.48.18.6 2.66-5.41 1.75-5.48 2.92-.21 3.21 5.51-1.14 5.69-.65 1.18 3.18-5.54 2.72-5.71 3.37-.77 2.96 6.11-.21 5.97-1.25.5 3.91-5.28 2.84-5.86 4.32-1.23 3.17 8.32-1.71 7.58-3.02 1.02 1.81-2.59 2.59-2.07 3.49 1.39 2.4 3.4-3.5 3.94-3.31 1.54.54-1.38 2.76-.78 3 1.4.56 2.3-2.89 2.84-2.52 2.58 1.8-5.53 3.38-3.43 5.55-2.59.75-3.75 1.91-5.54-.23-.49-.59-1.86-1.02-2.52-.47.96.04 2.85 1.37 3.5 1.92-1.3-.04-3.81-1.24-4.72.36 1.13-.46 3.6.02 4.7.1-1.2 1.02-3.39.29-2.98 2.76.6-1.99 6.59-3.53 7.3-.65.72-1.28-2.12-2-2.74-2.18.42-.13 5.08-.13 5.08-.13s2.6-5.14 3.76-3.87c2.79 3.04-4.65 4.65-4.9 5.27-.78 1.92 3.76.18 3.63.06 1.25 1.15-3.03 2.06-3.02 2.43.05 2.08 3.49-.81 3.65-.78 1.63.38-2.29 2.84-2.25 2.54-.33 2.24 3.4-.69 3.34-1.19.39.55.37 1.14-.06 1.77-1.34 2.33-.1 2.58 1.39 4.96 1.49-2.38 2.73-2.63 1.39-4.96-.43-.63-.44-1.21-.06-1.77-.06.5 3.67 3.42 3.34 1.19.04.3-3.88-2.17-2.25-2.54.16-.04 3.6 2.85 3.65.78.01-.37-4.27-1.29-3.02-2.43-.13.12 4.4 1.86 3.62-.06-.25-.62-7.69-2.23-4.9-5.27 1.16-1.27 3.76 3.87 3.76 3.87s4.67-.01 5.09.13c-.61.17-3.46.9-2.74 2.18.71-2.88 6.71-1.34 7.3.65.41-2.47-1.78-1.73-2.98-2.76 1.1-.08 3.57-.57 4.7-.1zM41 18.31c-.58.28-1.2.53-1.64.42.38-.48 1.14-.98 1.64-.42zm-3.18-.44c1.02.22 1.02.46 0 .71-1.01-.24-1.01-.48 0-.71zM23 18.31c.5-.56 1.26-.06 1.64.42-.44.11-1.06-.14-1.64-.42zm3.18.27c-1.02-.26-1.02-.49 0-.71 1.01.23 1.01.47 0 .71z" style="fill:#1a1626"/><linearGradient id="a" x1="32" x2="32" y1="62" y2="2" gradientUnits="userSpaceOnUse"><stop offset="0" style="stop-color:#1a1a1a"/><stop offset=".102" style="stop-color:#393939;stop-opacity:.949"/><stop offset=".347" style="stop-color:#7f7f7f;stop-opacity:.8262"/><stop offset=".569" style="stop-color:#b6b6b6;stop-opacity:.7156"/><stop offset=".758" style="stop-color:#dedede;stop-opacity:.6209"/><stop offset=".908" style="stop-color:#f6f6f6;stop-opacity:.5459"/><stop offset="1" style="stop-color:#fff;stop-opacity:.5"/></linearGradient><circle cx="32" cy="32" r="30" style="opacity:.1;fill:url(#a)"/></svg>