<svg xmlns="http://www.w3.org/2000/svg" xml:space="preserve" style="enable-background:new 0 0 64 64" viewBox="0 0 64 64"><linearGradient id="a" x1="32" x2="32" y1="2" y2="62" gradientUnits="userSpaceOnUse"><stop offset="0" style="stop-color:#f90"/><stop offset=".287" style="stop-color:#ff9500"/><stop offset=".585" style="stop-color:#f80"/><stop offset=".887" style="stop-color:#ff7400"/><stop offset="1" style="stop-color:#ff6a00"/></linearGradient><circle cx="32" cy="32" r="30" style="fill:url(#a)"/><path d="M40.26 31.44c1.5-.53 2.71-1.36 3.6-2.52.99-1.3 1.48-2.84 1.48-4.61 0-2.58-.97-4.61-2.92-6.09-1.95-1.48-4.57-2.22-7.87-2.22H19.81v32H35c3.48 0 6.21-.79 8.2-2.36 1.99-1.57 2.99-3.71 2.99-6.4 0-2.07-.56-3.79-1.68-5.17-1.02-1.25-2.45-2.11-4.25-2.63zM26.69 21.39h6.7c1.8 0 3.13.31 4 .92.87.61 1.3 1.58 1.3 2.9 0 1.29-.43 2.25-1.28 2.88-.85.63-2.2.94-4.02.94h-6.7v-7.64zM38.3 41.66c-.85.63-2.22.94-4.11.94h-7.51v-8.18h7.51c1.89 0 3.26.34 4.11 1.01.85.67 1.28 1.72 1.28 3.12 0 1.45-.42 2.48-1.28 3.11z" style="fill:#fff"/></svg>