<svg xmlns="http://www.w3.org/2000/svg" xml:space="preserve" style="enable-background:new 0 0 64 64" viewBox="0 0 64 64"><path d="M32 2C19.32 2 8.5 9.88 4.11 21h55.78C55.5 9.88 44.68 2 32 2z" style="fill:#e81c27"/><path d="M32 62c12.68 0 23.5-7.88 27.89-19H4.11C8.5 54.12 19.32 62 32 62z" style="fill:#007934"/><path d="M62 32c0-3.14-.49-6.16-1.38-9H3.38a30.038 30.038 0 0 0 0 18h57.23c.9-2.84 1.39-5.86 1.39-9z" style="fill:#002395"/><path d="M60.29 22c-.12-.34-.27-.67-.4-1H4.11c-.13.33-.28.66-.4 1-.12.33-.22.66-.33 1h57.23c-.1-.34-.21-.67-.32-1zM3.71 42c.12.34.27.67.4 1h55.78c.13-.33.28-.66.4-1 .12-.33.22-.66.33-1H3.38c.11.34.22.67.33 1z" style="fill:#fcfcfc"/><linearGradient id="a" x1="32" x2="32" y1="62" y2="2" gradientUnits="userSpaceOnUse"><stop offset="0" style="stop-color:#1a1a1a"/><stop offset=".102" style="stop-color:#393939;stop-opacity:.949"/><stop offset=".347" style="stop-color:#7f7f7f;stop-opacity:.8262"/><stop offset=".569" style="stop-color:#b6b6b6;stop-opacity:.7156"/><stop offset=".758" style="stop-color:#dedede;stop-opacity:.6209"/><stop offset=".908" style="stop-color:#f6f6f6;stop-opacity:.5459"/><stop offset="1" style="stop-color:#fff;stop-opacity:.5"/></linearGradient><circle cx="32" cy="32" r="30" style="opacity:.1;fill:url(#a)"/></svg>