<svg xmlns="http://www.w3.org/2000/svg" xml:space="preserve" style="enable-background:new 0 0 64 64" viewBox="0 0 64 64"><path d="M32 2C19.7 1.99 9.14 9.4 4.51 20H59.5C54.86 9.4 44.3 2 32 2z" style="fill:#1a1626"/><path d="M4.5 44C9.13 54.6 19.7 62 32 62s22.87-7.41 27.49-18H4.5z" style="fill:#007934"/><path d="M60.29 42c.23-.65.43-1.33.61-2H3.1c.18.67.38 1.35.62 2 .24.68.51 1.34.79 2H59.5c.28-.66.55-1.32.79-2zm0-20c-.24-.68-.51-1.35-.8-2H4.51c-.29.66-.55 1.32-.8 2-.23.66-.43 1.33-.61 2h57.81c-.19-.68-.39-1.35-.62-2z" style="fill:#fcfcfc"/><path d="M60.34 22.17H3.65A30.128 30.128 0 0 0 2 32c0 3.45.59 6.75 1.66 9.83h56.69C61.41 38.75 62 35.45 62 32s-.59-6.75-1.66-9.83z" style="fill:#ce1126"/><path d="m20.21 52.28.71.41L40.2 19.31c1.13-.3 1.75-1.38 2.37-2.45.41-.71 2.06-3.57 2.78-7.29-2.86 2.48-4.51 5.34-4.92 6.05-.62 1.07-1.24 2.14-.94 3.27L20.21 52.28z" style="fill:#fcfcfc"/><path d="m43.79 52.28-.71.41L23.8 19.31c-1.13-.3-1.75-1.38-2.37-2.45-.41-.71-2.06-3.57-2.78-7.29 2.86 2.48 4.51 5.34 4.92 6.05.62 1.07 1.24 2.14.94 3.27l19.28 33.39z" style="fill:#fcfcfc"/><path d="M40 32c0 11.04-8 20-8 20s-8-8.96-8-20c0-11.05 8-20 8-20s8 8.95 8 20z" style="fill:#ce1126"/><path d="M26.13 40c1.72-1.65 2.87-4.61 2.87-8 0-3.39-1.15-6.35-2.87-8-.71 2.34-1.13 5.07-1.13 8 0 2.93.42 5.66 1.13 8zm11.74-16C36.15 25.65 35 28.61 35 32c0 3.39 1.15 6.35 2.87 8 .71-2.34 1.13-5.07 1.13-8 0-2.93-.42-5.66-1.13-8z" style="fill:#1a1626"/><path d="M32 29.59c.89 0 1.61 1.08 1.61 2.41s-.72 2.41-1.61 2.41c-.89 0-1.61-1.08-1.61-2.41s.72-2.41 1.61-2.41zm-.57-16.84c-.58 1.74-.96 4.86-.96 8.43 0 3.57.38 6.69.96 8.43.24-2.47.38-5.35.38-8.43 0-3.09-.14-5.97-.38-8.43zm1.14 0c.57 1.74.96 4.86.96 8.43 0 3.57-.38 6.69-.96 8.43-.24-2.47-.38-5.35-.38-8.43 0-3.09.14-5.97.38-8.43zm-1.14 21.66c-.58 1.74-.96 4.86-.96 8.43 0 3.57.38 6.69.96 8.43.24-2.47.38-5.35.38-8.43s-.14-5.96-.38-8.43zm1.14 0c.57 1.74.96 4.86.96 8.43 0 3.57-.38 6.69-.96 8.43-.24-2.47-.38-5.35-.38-8.43s.14-5.96.38-8.43z" style="fill:#fcfcfc"/><linearGradient id="a" x1="32" x2="32" y1="62" y2="2" gradientUnits="userSpaceOnUse"><stop offset="0" style="stop-color:#1a1a1a"/><stop offset=".102" style="stop-color:#393939;stop-opacity:.949"/><stop offset=".347" style="stop-color:#7f7f7f;stop-opacity:.8262"/><stop offset=".569" style="stop-color:#b6b6b6;stop-opacity:.7156"/><stop offset=".758" style="stop-color:#dedede;stop-opacity:.6209"/><stop offset=".908" style="stop-color:#f6f6f6;stop-opacity:.5459"/><stop offset="1" style="stop-color:#fff;stop-opacity:.5"/></linearGradient><circle cx="32" cy="32" r="30" style="opacity:.1;fill:url(#a)"/></svg>