<svg xmlns="http://www.w3.org/2000/svg" xml:space="preserve" style="enable-background:new 0 0 64 64" viewBox="0 0 64 64"><path d="M32 2S6.53 8 2 32c0 17.2 14.48 31.02 31.91 29.94 14.94-.93 27.1-13.09 28.03-28.03C63.02 16.48 49.2 2 32 2z" style="fill:#003893"/><path d="M32 2c-4.69 0-9.13 1.09-13.09 3.01L11 11l-5.99 7.91A29.896 29.896 0 0 0 2 32h12V17l12 15h6v-7.5L23.6 14H32V2z" style="fill:#fcfcfc"/><path d="M15.43 14 30 32h2v-4.94L21.43 14z" style="fill:red"/><path d="M18.91 5A30.153 30.153 0 0 0 5 18.91V32h6V11h21V5H18.91z" style="fill:red"/><path d="m35.05 22.15 19.47-.07-.04 17.34s.69 2.64-8.17 6.65c3.18-.32 6.65-3.72 6.65-3.72s1.41-1.81 2.09-.79c.69 1.01 1.34 1.52 1.84 1.91.51.4.9 1.48.14 2.28-.76.79-1.95.9-2.28-.07-.51.25-3.61 4.01-9.97 4.19-6.47-.11-10.01-4.23-10.01-4.23s-.87 1.37-2.1.29c-1.19-1.41-.29-2.31-.29-2.31s1.01-.58 1.3-.98c.47-.54.62-1.26 1.41-1.26.94.07 1.3.83 1.3.83s3.25 3.43 6.76 3.87c-7.91-3.79-8.2-6.14-8.17-6.72l.07-17.21z" style="fill:#fcfcfc"/><path d="m35.52 22.62 18.57-.11V39.2c.04 2.17-3.61 4.37-9.32 7.19-5.89-3.04-9.29-4.88-9.32-7.23l.07-16.54z" style="fill:#006b00"/><path d="M44.33 24.41c.12.38-.3.64-.27.81.05.26.13.8.45.92.6.21.13.81-.08 1.26.63-.06 1.27-.13 1.9-.2-.58-.93-.5-1.55-.54-2.65-.03-.7-1.55-.92-1.46-.14zm-.35 2.81c-.76.41-.72 1.65-.82 2.4-.07.56-1.03 1.32-1.34 1.83-.36.58-.91 1.02-.9 1.74.01 1.24.59.57.86-.13.2-.51-.28-.64.28-1.05.5-.37 1.36-.84 1.64-1.42.4-.84.2-2.43.28-3.37z" style="fill:#ffc6b5"/><path d="M44.69 26.64c.4.79.81-.05 1.29-.05.51 0 .76.39 1.05.77.47.62-.24.52-.47 1-.28.55.31 1.37-.01 1.75-.28.32-.05 1.81-.06 2.35-.01.85.04 1.41.21 2.19.4 1.8.74 3.33 1.22 4.99.13.45-.05.92.06 1.3.12.45.46.91-.21.93-.29.01-.26.16-.53.15-.21-.01-.44-.05-.66-.04.2-.01-.9.37-.65.11-.15.15.14.61-.54.36-.19-.07-.14-.84-.54-.6.06-.03.29.27.06.45-.39.3-.46-.36-.89-.3-.22.03-1.39.55-1.39.03 0-1.05.28-2.03.28-3.17v-.54c0-.1-.28-.05-.27-.26.03-.51.1-1.02.16-1.52.13-1.1.29-2.16.51-3.24h-.2c-.14-.92.65-2.26.65-3.28 0-.72-.93-1.08-.34-1.78.41-.5.5-1.47 1.27-1.6 0 0-.45.07 0 0z" style="fill:#fcfcfc"/><path d="M47.19 27.82c.54 0 .64 3.22.4 3.58-.39.58-.69 1.18-1.03 1.79-.22.4-.01.88-.1 1.21-.31.91-1.33-.13-.78-.81.34-.42.51-1.09.73-1.59.27-.6.73-1.23.38-1.88-.4-.75-.69-1.98.4-2.3z" style="fill:#ffc6b5"/><path d="M44.29 24.34c.97-.09 1.95 2.65 2.29 1.49.87-2.93-2.78-2.44-2.29-1.49z" style="fill:#9c5100"/><path d="M46.85 42.94c.51-.63.32-.9.32-.9l-1.13-.62-.33.7.2.42c-.01 0 .44 1.03.94.4zm-3.72.02c.17-.05 1.37-.68 1.37-.68l-.15-.17-.33-.29s-1.26.45-1.16.44c-.13.08.11.75.27.7z" style="fill:#f7c600"/><path d="M56.91 43.97c-1.01-.36-1.84-2.06-2.42-2.2-.58-.14-1.3.87-1.27.9.04.04-3.32 3.79-8.53 3.94-4.66.29-8.85-4.52-8.85-4.52s-.69-.62-1.05-.25c-.18.65-1.77 1.88-1.77 1.88s-.65.4-.58 1.01c.07.61 1.01 1.23 1.23 1.27.21.04.65-.43.65-.43l.4-.43s4.55 4.37 10.08 4.33c5.35.18 9.97-4.33 9.97-4.33s.29-.11.44.47c.14.58 1.12.18 1.34.04.21-.16.86-.88.36-1.68z" style="fill:#f7c600"/><path d="M48.76 41.18c-.37-.02-.11-1.46.25-1.45-.17.87.29 1.48-.25 1.45z" style="fill:#ff2300"/><path d="M52.08 41.71c-.12-.5 1.37-.92.53-1.05-.59-.09-1.07.56-1.68.26-.03-.49-1.11-.44-1.11-.02-.59 0-.78.24-1.37.12.26.78 1.36.38 1.11 1.21.57 0 1.15-.01 1.73 0a.42.42 0 0 0-.18-.37c.69-.09.76-.93 1.43-.97.15.03-1.04.55-.46.82z" style="fill:#f7c600"/><path d="M48.72 37.89c-.37-.02-.11-1.46.25-1.45-.16.86.3 1.48-.25 1.45z" style="fill:#ff2300"/><path d="M52.05 38.42c-.12-.5 1.37-.92.53-1.05-.59-.09-1.06.56-1.68.26-.03-.49-1.11-.44-1.11-.02-.59 0-.78.24-1.37.12.26.78 1.36.38 1.11 1.21.57 0 1.15-.01 1.73 0a.42.42 0 0 0-.18-.37c.69-.09.76-.93 1.43-.97.15.02-1.04.54-.46.82z" style="fill:#f7c600"/><path d="M48.76 34.95c-.37-.02-.11-1.46.25-1.45-.17.87.29 1.48-.25 1.45z" style="fill:#ff2300"/><path d="M52.08 35.48c-.12-.5 1.37-.92.53-1.06-.59-.09-1.07.56-1.68.26-.03-.49-1.11-.43-1.11-.02-.59 0-.78.24-1.37.12.26.78 1.36.38 1.11 1.21.57 0 1.15-.01 1.73 0a.42.42 0 0 0-.18-.37c.69-.09.76-.93 1.43-.97.15.04-1.04.56-.46.83z" style="fill:#f7c600"/><path d="M48.72 31.68c-.37-.02-.11-1.46.25-1.45-.16.86.3 1.48-.25 1.45z" style="fill:#ff2300"/><path d="M52.05 32.21c-.12-.5 1.37-.92.53-1.06-.59-.09-1.06.56-1.68.26-.03-.49-1.11-.43-1.11-.02-.59 0-.78.24-1.37.12.26.78 1.36.38 1.11 1.21.57 0 1.15-.01 1.73 0a.42.42 0 0 0-.18-.37c.69-.09.76-.93 1.43-.97.15.03-1.04.56-.46.83z" style="fill:#f7c600"/><path d="M48.75 28.45c-.36-.02-.1-1.46.25-1.45-.16.87.3 1.48-.25 1.45z" style="fill:#ff2300"/><path d="M52.08 28.98c-.12-.5 1.37-.92.53-1.05-.59-.09-1.07.56-1.68.26-.03-.49-1.11-.44-1.11-.02-.59 0-.78.24-1.37.12.26.78 1.36.38 1.11 1.21.57 0 1.15-.01 1.73 0a.42.42 0 0 0-.18-.37c.69-.09.76-.93 1.43-.97.15.03-1.04.55-.46.82z" style="fill:#f7c600"/><path d="M48.89 25.25c-.37-.02-.11-1.46.25-1.45-.16.86.3 1.48-.25 1.45z" style="fill:#ff2300"/><path d="M52.22 25.78c-.12-.5 1.37-.92.53-1.05-.59-.09-1.07.56-1.68.26-.03-.49-1.11-.44-1.11-.02-.59 0-.78.24-1.37.12.26.78 1.36.38 1.11 1.21.57 0 1.15-.01 1.73 0a.42.42 0 0 0-.18-.37c.69-.09.76-.93 1.43-.97.15.02-1.04.54-.46.82z" style="fill:#f7c600"/><path d="M37.46 25.25c-.37-.02-.11-1.46.25-1.45-.17.86.29 1.48-.25 1.45z" style="fill:#ff2300"/><path d="M40.78 25.78c-.12-.5 1.37-.92.53-1.05-.59-.09-1.06.56-1.68.26-.03-.49-1.11-.44-1.11-.02-.59 0-.78.24-1.37.12.26.78 1.36.38 1.11 1.21.57 0 1.15-.01 1.73 0a.42.42 0 0 0-.18-.37c.69-.09.76-.93 1.43-.97.15.02-1.04.54-.46.82z" style="fill:#f7c600"/><path d="M37.32 28.45c-.37-.02-.11-1.46.25-1.45-.16.87.3 1.48-.25 1.45z" style="fill:#ff2300"/><path d="M40.65 28.98c-.12-.5 1.37-.92.53-1.05-.59-.09-1.07.56-1.68.26-.03-.49-1.11-.44-1.11-.02-.59 0-.78.24-1.37.12.26.78 1.36.38 1.11 1.21.57 0 1.15-.01 1.73 0a.42.42 0 0 0-.18-.37c.69-.09.76-.93 1.43-.97.15.03-1.04.55-.46.82z" style="fill:#f7c600"/><path d="M37.32 31.68c-.37-.02-.11-1.46.25-1.45-.16.86.3 1.48-.25 1.45z" style="fill:#ff2300"/><path d="M40.65 32.21c-.12-.5 1.37-.92.53-1.06-.59-.09-1.07.56-1.68.26-.03-.49-1.11-.43-1.11-.02-.59 0-.78.24-1.37.12.26.78 1.36.38 1.11 1.21.57 0 1.15-.01 1.73 0a.42.42 0 0 0-.18-.37c.69-.09.76-.93 1.43-.97.15.03-1.04.56-.46.83z" style="fill:#f7c600"/><path d="M39.46 34.95c-.37-.02-.11-1.46.25-1.45-.16.87.3 1.48-.25 1.45z" style="fill:#ff2300"/><path d="M42.78 35.48c-.12-.5 1.37-.92.53-1.06-.59-.09-1.06.56-1.68.26-.03-.49-1.11-.43-1.11-.02-.59 0-.78.24-1.37.12.26.78 1.36.38 1.11 1.21.57 0 1.15-.01 1.73 0a.42.42 0 0 0-.18-.37c.69-.09.76-.93 1.43-.97.15.04-1.04.56-.46.83z" style="fill:#f7c600"/><path d="M37.03 37.89c-.37-.02-.11-1.46.25-1.45-.16.86.3 1.48-.25 1.45z" style="fill:#ff2300"/><path d="M40.36 38.42c-.12-.5 1.37-.92.53-1.06-.59-.09-1.06.56-1.68.26-.03-.49-1.11-.43-1.11-.02-.59 0-.78.24-1.37.12.26.78 1.36.38 1.11 1.21.57 0 1.15-.01 1.73 0a.42.42 0 0 0-.18-.37c.69-.09.76-.93 1.43-.97.15.03-1.04.56-.46.83z" style="fill:#f7c600"/><path d="M37.15 41.18c-.37-.02-.11-1.46.25-1.45-.16.87.3 1.48-.25 1.45z" style="fill:#ff2300"/><path d="M40.47 41.71c-.12-.5 1.37-.92.53-1.06-.59-.09-1.06.56-1.68.26-.03-.49-1.11-.43-1.11-.02-.59 0-.78.24-1.37.12.26.78 1.36.38 1.11 1.21.57 0 1.15-.01 1.73 0a.42.42 0 0 0-.18-.37c.69-.09.76-.93 1.43-.97.15.04-1.04.56-.46.83z" style="fill:#f7c600"/><linearGradient id="a" x1="32" x2="32" y1="62" y2="2" gradientUnits="userSpaceOnUse"><stop offset="0" style="stop-color:#1a1a1a"/><stop offset=".102" style="stop-color:#393939;stop-opacity:.949"/><stop offset=".347" style="stop-color:#7f7f7f;stop-opacity:.8262"/><stop offset=".569" style="stop-color:#b6b6b6;stop-opacity:.7156"/><stop offset=".758" style="stop-color:#dedede;stop-opacity:.6209"/><stop offset=".908" style="stop-color:#f6f6f6;stop-opacity:.5459"/><stop offset="1" style="stop-color:#fff;stop-opacity:.5"/></linearGradient><circle cx="32" cy="32" r="30" style="opacity:.1;fill:url(#a)"/></svg>