<svg xmlns="http://www.w3.org/2000/svg" xml:space="preserve" style="enable-background:new 0 0 64 64" viewBox="0 0 64 64"><path d="M32 2v30H2c0 16.57 13.43 30 30 30s30-13.43 30-30S48.57 2 32 2z" style="fill:red"/><path d="M32 2C15.43 2 2 15.43 2 32h30V2z" style="fill:navy"/><path d="m19 13.06 1.24.94-.47-1.52 1.23-.95-1.52-.01L19 10l-.48 1.52-1.52.01 1.23.95-.47 1.52zm0 14 1.24.94-.47-1.53 1.23-.94-1.52-.01L19 24l-.48 1.52-1.52.01 1.23.94-.47 1.53zm-5-9 1.24.94-.47-1.53 1.23-.94-1.53-.01L14 15l-.47 1.52-1.53.01 1.23.94-.47 1.53zm10 0 1.23.94-.46-1.53 1.23-.94-1.53-.01L24 15l-.47 1.52-1.53.01 1.23.94-.47 1.53zm-2 4.47.63.47-.24-.76.63-.47-.78-.01L22 21l-.24.76-.78.01.63.47-.24.76z" style="fill:#fcfcfc"/><linearGradient id="a" x1="32" x2="32" y1="62" y2="2" gradientUnits="userSpaceOnUse"><stop offset="0" style="stop-color:#1a1a1a"/><stop offset=".102" style="stop-color:#393939;stop-opacity:.949"/><stop offset=".347" style="stop-color:#7f7f7f;stop-opacity:.8262"/><stop offset=".569" style="stop-color:#b6b6b6;stop-opacity:.7156"/><stop offset=".758" style="stop-color:#dedede;stop-opacity:.6209"/><stop offset=".908" style="stop-color:#f6f6f6;stop-opacity:.5459"/><stop offset="1" style="stop-color:#fff;stop-opacity:.5"/></linearGradient><circle cx="32" cy="32" r="30" style="opacity:.1;fill:url(#a)"/></svg>