<svg xmlns="http://www.w3.org/2000/svg" xml:space="preserve" style="enable-background:new 0 0 64 64" viewBox="0 0 64 64"><circle cx="32" cy="32" r="30" style="fill:#0000b3"/><path d="M32.42 22.79c.33.38.54.76.54 1.23-.27.14-.65.19-.87.44 1.36-.19 1.63 1.39 3.15.79.06.22.27.41.54.33l.16-.44c.6-.16.43.82 1.09.63.33.27.11.74.33 1.06 0 .38.16.71.33 1.03.16-.19.27-.46.65-.38.27.3.49.57.54.9-.11.63-.27 1.17.38 1.5v.19c.44.19 1.41-.19 1.41.57-.06.27.27.03.38.19.27-.11.65-.05.98-.05.27.57-.33.98-.49 1.5.27.27.16.76.11 1.09l-.16.08c.43.08.98-.05 1.36.19l.71.27c.33-.19.7-.22 1.14-.19.33.25-.11.65.16.84.38 0 .71.06.76.38l.06.11c.27-.49 1.03-.16 1.36-.52.54 0 .65.6.92.93.11.85-.92 1.23-.6 2.07-.22.41-.65.73-.98 1.12.11.06.05.19.05.27-.33.19-.05.76-.49.82-.05.36-.7.22-.49.6.44.57-.21.93-.21 1.44-.27.3-.82-.27-.82.3-.33.08-.65-.3-.87.03-.11.38.22.52.16.9.54-.06.7.49.92.82l.54.54c-.54.44-1.25-.06-1.9.19-.16-.08 0-.3-.16-.38-.16-.19-.49-.19-.76-.25.05.25-.44.33-.22.62 0 .08.11.33-.11.33-.44.14-.38-.38-.76-.19-.49.19-.11.93-.81.84.11.66-1.09 1.09-.27 1.66.11.11.05.33.05.49-.49.44-1.36.27-1.9.11-.44-.11-.16-.66-.33-.95-.16-.27-.65-.46-.65-.85-.33-.13-.6-.22-.82-.49-.76.73-1.69 1.44-2.77 1.47-.49.25-.76 1.23-1.52.82-.3.49-1.2 0-1.25.71-.35.14-.19.6-.41.82-.08.54 0 1.01.46 1.34.19.41-.41.41-.16.79.06.13 0 .33-.08.38-.16.08-.22.16-.16.33-.14 0-.19.08-.3.19-.14.27-.57.41-.87.6-.3.08-.52-.13-.71-.33-.06.3-.3.46-.6.46-.44 0-.35-.38-.68-.55.14-.49-.3-.71-.16-1.14.35-.27.95-.46.79-1.04-.38-.46-.24-1.14-.62-1.69-.24-.22-.65-.54-.52-1.06.35-.41 0-.9-.19-1.33-.08-.36-.3-.68-.3-1.09-.6-.35-.63-1.28-1.47-1.36-.6 0-.71-.76-1.3-.71-.06-.11-.19-.19-.3-.3-.43.3-.98-.08-1.52.05-.35-.6.3-1.41-.65-1.77v-.38c.11.05.16-.06.19-.11.05-.41-.68-.46-.38-.92-.16-.14-.35-.19-.24-.46-.41-.84-1.63-.76-1.9-1.61.22-.19.22-.38.3-.55-.19-.33-.24-.68-.19-1.03.19-.06.3-.3.41-.49-.24-.16-.54-.41-.82-.33-.49-.08-.84-.46-1.28-.68-.11-.11-.05-.3-.05-.43.6-.19-.08-1.04.65-.93.19-.25.6-.33.9-.52.3-.05.54.06.84.14.24.33.68.19.92.46.24-.06.54-.19.84-.06 0-.46.22-.74.54-1.06.05-.19.35-.33.6-.44.46.11 1.01.11 1.33-.22.22.14.41-.14.65-.14.3-.06.54.03.76.16.03-.55.98-.08 1.17-.74.22-.44-.6-.6-.54-.98-.14-.44.19-.65.35-.95.19-.08.41-.19.65-.14.63-.22.14-1.5 1.14-1.03 0 .14-.06.3.03.33.35 0 .41-.41.65-.55.11-.38-.14-.84.19-1.14.16-.03.3-.08.41-.22 0-.3-.16-.46-.41-.65-.08.14-.3.03-.43.08 0-.33-.19-.54-.24-.85-.16-.08-.24-.22-.19-.41.24-.25 0-.84.57-.71.22-.19.6-.05.82-.38.57-.33 1.33-.33 1.77-.93.19.03.41-.16.6 0 .05.38.57.24.57.57" style="fill:#f90"/><path d="m36.63 15.4-.75-2.31-.74 2.31H32.7l1.97 1.43-.75 2.32 1.96-1.43 1.97 1.43-.76-2.32 1.97-1.43zm7.65 1.35-.76-2.31-.74 2.31h-2.43l1.97 1.43-.75 2.32 1.95-1.43 1.97 1.43-.75-2.32 1.97-1.43zm7.29 2.66-.74-2.31-.75 2.31h-2.44l1.97 1.43-.75 2.32 1.97-1.43 1.95 1.43-.75-2.32L54 19.41zM28.86 15.4l-.74-2.31-.75 2.31h-2.43l1.97 1.43-.76 2.32 1.97-1.43 1.96 1.43-.75-2.32 1.97-1.43zm-7.64 1.35-.74-2.31-.76 2.31h-2.43l1.97 1.43-.75 2.32 1.97-1.43 1.95 1.43-.75-2.32 1.97-1.43zm-7.3 2.66-.75-2.31-.74 2.31H10l1.97 1.43-.75 2.32 1.95-1.43 1.97 1.43-.75-2.32 1.97-1.43z" style="fill:#fff"/><linearGradient id="a" x1="32" x2="32" y1="62" y2="2" gradientUnits="userSpaceOnUse"><stop offset="0" style="stop-color:#1a1a1a"/><stop offset=".102" style="stop-color:#393939;stop-opacity:.949"/><stop offset=".347" style="stop-color:#7f7f7f;stop-opacity:.8262"/><stop offset=".569" style="stop-color:#b6b6b6;stop-opacity:.7156"/><stop offset=".758" style="stop-color:#dedede;stop-opacity:.6209"/><stop offset=".908" style="stop-color:#f6f6f6;stop-opacity:.5459"/><stop offset="1" style="stop-color:#fff;stop-opacity:.5"/></linearGradient><circle cx="32" cy="32" r="30" style="opacity:.1;fill:url(#a)"/></svg>