<svg xmlns="http://www.w3.org/2000/svg" xml:space="preserve" style="enable-background:new 0 0 64 64" viewBox="0 0 64 64"><path d="M17 6.02C6.34 12.17.9 23.86 2.19 35.35L49.81 7.86C40.5 1 27.65-.14 17 6.02z" style="fill:#00a650"/><path d="M14.19 56.14C23.5 63 36.35 64.13 47 57.98c10.65-6.15 16.1-17.85 14.81-29.34l-47.62 27.5z" style="fill:#e81c27"/><path d="M61.5 26.52c-.13-.68-.29-1.36-.47-2.04l-50.06 28.9c.5.49 1 .97 1.53 1.43.55.47 1.11.91 1.69 1.33l47.62-27.49c-.08-.71-.18-1.43-.31-2.13zm-10-17.33c-.55-.47-1.12-.91-1.69-1.33L2.19 35.35c.08.71.18 1.42.31 2.13.13.68.29 1.36.47 2.04l50.06-28.9c-.5-.49-1-.98-1.53-1.43z" style="fill:#ffe000"/><path d="M51.63 9.31 2.54 37.65c.62 3.2 1.76 6.36 3.48 9.35 1.72 2.98 3.88 5.55 6.35 7.69l49.09-28.34c-.62-3.2-1.76-6.36-3.48-9.35a30.192 30.192 0 0 0-6.35-7.69z" style="fill:#1a1626"/><path d="m21.99 40.11 4.58.58-3.48-3.23 1.77-4.27-3.93 2.25-3.49-3.21 1.04 4.63-3.92 2.28 4.57.6 1.07 4.63zm22.04-12.72 4.58.58-3.47-3.24 1.76-4.27-3.93 2.26-3.49-3.22 1.04 4.63-3.92 2.28 4.58.61 1.07 4.62z" style="fill:#fcfcfc"/><linearGradient id="a" x1="32" x2="32" y1="62" y2="2" gradientUnits="userSpaceOnUse"><stop offset="0" style="stop-color:#1a1a1a"/><stop offset=".102" style="stop-color:#393939;stop-opacity:.949"/><stop offset=".347" style="stop-color:#7f7f7f;stop-opacity:.8262"/><stop offset=".569" style="stop-color:#b6b6b6;stop-opacity:.7156"/><stop offset=".758" style="stop-color:#dedede;stop-opacity:.6209"/><stop offset=".908" style="stop-color:#f6f6f6;stop-opacity:.5459"/><stop offset="1" style="stop-color:#fff;stop-opacity:.5"/></linearGradient><circle cx="32" cy="32" r="30" style="opacity:.1;fill:url(#a)"/></svg>