<svg xmlns="http://www.w3.org/2000/svg" xml:space="preserve" style="enable-background:new 0 0 64 64" viewBox="0 0 64 64"><circle cx="32" cy="32" r="30" style="fill:#fcfcfc"/><path d="M23.42 33.71A6.184 6.184 0 0 0 32 32c1.89-2.84 5.74-3.61 8.58-1.72a6.186 6.186 0 0 1 2.04 8.04c3.35-5.63 1.75-12.95-3.76-16.62-5.69-3.79-13.37-2.26-17.16 3.43-.12.18-.21.36-.32.55a6.171 6.171 0 0 0 2.04 8.03z" style="fill:red"/><path d="M40.58 30.28C37.74 28.39 33.89 29.16 32 32c-1.9 2.84-5.74 3.61-8.58 1.71a6.184 6.184 0 0 1-2.04-8.04c-3.35 5.62-1.75 12.94 3.76 16.62 5.69 3.79 13.37 2.26 17.16-3.43a6.186 6.186 0 0 0-1.72-8.58z" style="fill:navy"/><path d="m7.8 23.31 6.87-10.3-.69-.46-.69-.46-6.87 10.3.7.46zm1.89 1.25.69.46 6.86-10.3-.69-.45-.69-.47L9 24.1zm8.75-9.04-6.87 10.3.69.46.69.46 6.87-10.3-.69-.46zm30.09 27 .69.46 3.21-4.8-.69-.46-.7-.46-3.2 4.8zm7.66-1.83-3.2 4.81.69.46.69.46 3.2-4.81-.69-.46zM51.8 44.7l3.2-4.8-.69-.46-.69-.46-3.2 4.8.69.46zm-3.73-1.49-.69-.46-3.2 4.81.69.46.69.46 3.2-4.81zm2.58 1.72-.69-.46-3.2 4.8.69.46.69.46 3.2-4.8zm1.88 1.26-3.2 4.8.69.46.69.46 3.2-4.8-.69-.46zM7.12 41.15l-.7.46 6.87 10.3.69-.46.69-.46-6.87-10.3zm6.23 3.78-.69.46 3.2 4.8.69-.46.69-.46-3.2-4.8zm-1.09-7.21-.69.46 6.87 10.3.69-.46.69-.46-6.87-10.3zM9 39.9l3.2 4.8.69-.46.69-.46-3.2-4.8-.69.46zm44.22-22.55.69-.46-3.2-4.8-.69.46-.69.46 3.2 4.8zm-5.15 3.44.69-.46-3.2-4.81-.69.46-.69.46 3.2 4.81zm4.92-2.29 3.2 4.81.69-.46.69-.46-3.2-4.81-.69.46zm1.32 6.06.69-.46-6.86-10.3-.69.47-.69.45 6.86 10.3zm-2.57 1.72.69-.46-3.21-4.8-.69.45-.69.47 3.2 4.8z" style="fill:#1a1626"/><linearGradient id="a" x1="32" x2="32" y1="62" y2="2" gradientUnits="userSpaceOnUse"><stop offset="0" style="stop-color:#1a1a1a"/><stop offset=".102" style="stop-color:#393939;stop-opacity:.949"/><stop offset=".347" style="stop-color:#7f7f7f;stop-opacity:.8262"/><stop offset=".569" style="stop-color:#b6b6b6;stop-opacity:.7156"/><stop offset=".758" style="stop-color:#dedede;stop-opacity:.6209"/><stop offset=".908" style="stop-color:#f6f6f6;stop-opacity:.5459"/><stop offset="1" style="stop-color:#fff;stop-opacity:.5"/></linearGradient><circle cx="32" cy="32" r="30" style="opacity:.1;fill:url(#a)"/></svg>