<svg xmlns="http://www.w3.org/2000/svg" xml:space="preserve" style="enable-background:new 0 0 64 64" viewBox="0 0 64 64"><path d="M2 32c0 16.57 13.43 30 30 30V2C15.43 2 2 15.43 2 32z" style="fill:#fcfcfc"/><path d="M62 32C62 15.43 48.57 2 32 2v60c16.57 0 30-13.43 30-30zM9 17.14v5.45h5.45c0 .91.91 1.82 1.82 1.82v5.45h5.45v-5.45c.91 0 1.82-.91 1.82-1.82H29v-5.45h-5.45c0-.91-.91-1.82-1.82-1.82V9.87h-5.45v5.45c-.91 0-1.82.91-1.82 1.82H9z" style="fill:#e81c27"/><path d="M9.36 17.51v4.73h5.45c0 .91.91 1.82 1.82 1.82v5.45h4.73v-5.45c.91 0 1.82-.91 1.82-1.82h5.45v-4.73h-5.45c0-.91-.91-1.82-1.82-1.82v-5.46h-4.73v5.46c-.91 0-1.82.91-1.82 1.82H9.36z" style="fill:#96877d"/><path d="M9.54 17.69v4.36H15c0 .91.91 1.82 1.82 1.82v5.45h4.36v-5.45c.91 0 1.82-.91 1.82-1.82h5.45v-4.36H23c0-.91-.91-1.82-1.82-1.82v-5.46h-4.36v5.46c-.91 0-1.82.91-1.82 1.82H9.54z" style="fill:#ccc"/><path d="M16.48 15.81c-.32-.32-.92-.23-1.35.19-.43.43-.51 1.03-.19 1.35.32.32.92.23 1.35-.19.42-.43.51-1.03.19-1.35z" style="fill:#96877d"/><path d="m15.25 16.38.26.52-.51-.26-.13.13 1.03.51-.52-1.02zm.52-.51-.13.13.77.77.13-.13z" style="fill:#ccc"/><path d="M22.87 16c-.43-.43-1.03-.51-1.35-.19-.32.32-.23.92.19 1.35.43.43 1.03.51 1.35.19.32-.32.24-.93-.19-1.35z" style="fill:#96877d"/><path d="m22.48 16.13-.51.25.26-.51-.13-.13-.52 1.03 1.03-.51zm.39.38-.77.77.13.13.77-.77z" style="fill:#ccc"/><path d="M23.06 22.39c-.32-.32-.92-.23-1.35.19-.43.43-.51 1.03-.19 1.35.32.32.92.23 1.35-.19.43-.42.51-1.03.19-1.35z" style="fill:#96877d"/><path d="m22.61 23.49.13-.13-.26-.52.52.26.13-.13-1.03-.51zm.52-.52zm-1.67.13.77.77.13-.13-.78-.77z" style="fill:#ccc"/><path d="M16.28 22.59c-.43-.43-1.03-.51-1.35-.19-.32.32-.23.92.19 1.35.43.43 1.03.51 1.35.19.33-.32.24-.93-.19-1.35z" style="fill:#96877d"/><path d="m15.38 23.49.13.13.52-.26-.26.51.13.13.51-1.03zm.39-1.16-.77.77.13.13.77-.77z" style="fill:#ccc"/><path d="M19 16.05a3.82 3.82 0 1 1 0 7.64 3.82 3.82 0 0 1 0-7.64z" style="fill:none;stroke:#96877d;stroke-width:.0617"/><path d="M19 16.96c1.61 0 2.91 1.3 2.91 2.91s-1.3 2.91-2.91 2.91-2.91-1.3-2.91-2.91 1.3-2.91 2.91-2.91z" style="fill:none;stroke:#96877d;stroke-width:.0617"/><path d="M17.54 22.78c.1 0 .18.08.18.18 0 .1-.08.18-.18.18s-.18-.08-.18-.18c0-.1.08-.18.18-.18zm2.91 0c.1 0 .18.08.18.18 0 .1-.08.18-.18.18a.18.18 0 0 1-.18-.18c0-.1.08-.18.18-.18zm-1.57.18v.19h-.24c-.24 0-.24.19 0 .19h.24v.19c0 .2.21.22.23.02l.02-.21h.24c.24 0 .24-.19 0-.19h-.24v-.19c-.01-.19-.25-.19-.25 0zm-3.43-2.15.25-.06-.03-.12c-.01-.03-.02-.04-.03-.05-.01-.01-.04-.01-.08-.01v-.02l.22-.05v.02c-.02.01-.04.01-.05.02-.01.01-.02.02-.02.03v.05l.03.12.2-.05c.03-.01.05-.01.06-.02.01 0 .01-.01.02-.02v-.05l-.01-.02h.02l.07.27h-.02l-.01-.02c-.01-.03-.02-.04-.04-.05-.01-.01-.04 0-.08.01l-.41.1c-.03.01-.05.01-.06.02-.01 0-.01.01-.02.02v.05l.01.02h-.02l-.11-.47.14-.04v.02c-.03.02-.05.03-.06.04-.01.01-.02.03-.02.05 0 .02 0 .04.01.08l.04.13zm-.17-1.13c0-.08.04-.16.11-.21.07-.06.15-.08.25-.08.1.01.18.04.24.11s.09.14.09.23c-.01.09-.04.16-.11.22s-.15.08-.25.08a.372.372 0 0 1-.25-.12.324.324 0 0 1-.08-.23zm.04.02c0 .06.02.11.06.14.05.05.13.07.23.08.11.01.19-.01.25-.05.05-.03.07-.08.07-.13 0-.06-.02-.11-.06-.16a.34.34 0 0 0-.22-.07c-.11-.01-.2.01-.25.05-.05.02-.08.07-.08.14zm.95-1.2-.06.16-.36.1c-.01.02-.01.03-.01.04v.01s0 .01-.01.01l.18.07c.04.01.06.02.08.01.02-.01.03-.02.04-.04l.01-.02.02.01-.1.26-.02-.01.01-.02c.01-.03.01-.05 0-.07-.03-.01-.05-.02-.09-.03l-.39-.15c-.04-.02-.06-.02-.08-.02-.02.01-.03.02-.04.04l-.01.02-.02-.01.08-.22c.02-.06.05-.11.07-.14.02-.03.05-.05.08-.06a.17.17 0 0 1 .1 0c.04.01.07.04.08.07.02.04.02.08.02.14l.22-.06c.05-.01.09-.03.11-.04s.04-.04.06-.07l.03.02zm-.48.32c0-.01 0-.01.01-.01v-.01c.02-.06.03-.11.01-.15a.109.109 0 0 0-.08-.08.205.205 0 0 0-.11 0c-.03.01-.06.04-.07.08-.01.02-.01.04-.02.07l.26.1zm1.39-2.17.13.16-.01.01a.338.338 0 0 0-.12-.06c-.05-.01-.1 0-.16.03-.07.04-.11.11-.11.19a.386.386 0 0 0 .18.32c.05.03.1.04.14.04.05 0 .09-.01.12-.04a.12.12 0 0 0 .05-.05c.02-.02.03-.04.04-.06l-.1-.16c-.01-.01-.02-.03-.03-.03-.01-.01-.02-.01-.03-.01-.01 0-.03.01-.05.02l-.02-.01.21-.14.01.02-.01.01c-.02.01-.03.03-.03.05 0 .01.01.04.03.06l.11.17a.36.36 0 0 1-.07.1c-.03.03-.06.05-.09.08-.11.07-.21.09-.31.05a.344.344 0 0 1-.18-.14.442.442 0 0 1-.06-.16c-.01-.07 0-.14.03-.19.02-.05.06-.09.12-.13l.06-.03c.02-.01.05-.02.08-.02.02 0 .03-.01.04-.01.01 0 .01-.01.01-.02s0-.02-.01-.03l.03-.02zm1.06.07-.24.07-.02.11v.06c0 .01.01.02.02.02h.06V17l-.2.05v-.02c.02-.01.04-.02.05-.03.01-.02.02-.05.03-.11l.08-.58h.02l.36.47c.03.04.05.06.07.07.02.01.04.01.07 0v.02l-.25.07v-.02c.02-.01.04-.02.05-.03.01-.01.01-.02.01-.03 0-.01-.02-.03-.04-.06l-.07-.08zm-.02-.03-.18-.23-.04.29.22-.06zm1.16 0h.02l-.06.17-.51-.02v-.02h.02c.03 0 .05-.01.06-.02.01-.01.01-.03.01-.07l.02-.42c0-.04 0-.07-.01-.08a.076.076 0 0 0-.05-.02h-.02v-.02l.3.01v.02c-.03 0-.06 0-.07.01-.01.01-.02.01-.03.02-.01.01-.01.03-.01.07l-.02.41c0 .03 0 .04.01.05 0 .01.01.01.02.02.01 0 .03.01.07.01h.05c.05 0 .09 0 .11-.01s.04-.02.06-.04c-.01 0 .01-.03.03-.07zm.87.23.01.01-.11.15-.48-.16.01-.02.02.01c.03.01.05.01.07-.01.01-.01.02-.03.03-.06l.13-.4c.01-.04.02-.06.01-.08-.01-.02-.02-.03-.05-.04l-.02-.01.01-.02.28.09-.01.02c-.03-.01-.06-.02-.07-.01-.02 0-.03.01-.04.02-.01.01-.02.03-.03.07l-.13.39c-.01.03-.01.04-.01.05 0 .01.01.01.01.02.01.01.03.01.07.03l.05.02c.05.02.08.02.1.02.02 0 .04-.01.06-.02.03-.01.06-.03.09-.07zm.7.37-.21-.15-.1.06c-.02.01-.04.03-.05.04-.01.01-.01.02 0 .03 0 .01.02.03.04.05l-.01.01-.17-.12.01-.01c.02.01.04.02.05.02.02 0 .06-.02.1-.04l.5-.31.01.01-.13.58c.01.04 0 .07.01.09 0 .02.02.04.04.05l-.01.01-.21-.15.01-.01c.02.01.04.02.05.02.01 0 .02-.01.03-.01.01-.01.02-.03.02-.07l.02-.1zm.01-.03.06-.28-.25.15.19.13zm.77.14.11.14-.16.61.3-.22c.03-.02.05-.04.05-.06 0-.02 0-.04-.02-.06l-.01-.02.01-.01.14.18-.01.01-.01-.02c-.02-.02-.03-.03-.06-.03-.01 0-.03.01-.06.03l-.44.33-.01-.01.17-.66-.32.24c-.03.02-.05.04-.05.06 0 .02 0 .04.02.06l.01.02-.02.01-.14-.18.01-.01.01.02c.02.02.04.03.06.03.01 0 .03-.01.06-.03l.37-.27c.01-.03.01-.05.01-.06 0-.01 0-.03-.01-.05 0-.01-.01-.02-.02-.04l.01-.01zm.83 1.52-.14.06-.01-.02c.02-.01.04-.02.05-.03.01-.01.02-.03.03-.05 0-.02 0-.04-.01-.07l-.03-.09-.47.17c-.04.01-.06.03-.07.04-.01.02-.01.04 0 .06l.01.02-.02.01-.09-.26.02-.01.01.02c.01.03.02.04.04.05.01 0 .04 0 .07-.01l.47-.17-.03-.07a.163.163 0 0 0-.03-.06.219.219 0 0 0-.05-.03h-.07l-.01-.02.15-.04.18.5zm-.52 1.16-.01-.17.29-.24v-.06l-.19.01c-.04 0-.07.01-.08.02-.01.01-.02.03-.02.06v.03h-.02l-.01-.28h.02v.02c0 .03.01.05.03.06.01.01.03.01.07.01l.42-.02c.04 0 .07-.01.08-.02.01-.01.02-.03.02-.06v-.02h.02l.01.24c0 .07 0 .12-.01.15s-.03.06-.05.09c-.03.02-.06.04-.1.04-.04 0-.08-.01-.11-.03-.03-.02-.05-.06-.07-.12l-.18.14c-.04.03-.07.06-.08.08a.2.2 0 0 0-.02.09l-.01-.02zm.31-.48v.03c0 .06.02.11.05.14.03.03.06.04.11.04.04 0 .07-.02.1-.04.02-.03.04-.06.03-.1 0-.02-.01-.04-.01-.08l-.28.01zm.18 1.34-.06.22h-.02v-.05c0-.02-.01-.03-.02-.05a.265.265 0 0 0-.05-.06l-.2-.21-.16-.04c-.04-.01-.06-.01-.08-.01-.02.01-.03.03-.03.05l-.01.02h-.02l.07-.27h.02l-.01.02c-.01.03 0 .05.01.06.01.01.03.02.07.03l.15.04.31-.1c.04-.01.06-.02.07-.03l.04-.04c0-.01.01-.01.01-.03h.02l-.07.27h-.02v-.05c0-.01-.01-.02-.03-.03-.01 0-.03 0-.07.01l-.24.08.16.17c.02.03.04.04.06.05h.02c.01 0 .02-.01.02-.01.01-.01.01-.02.02-.04h.04z"/><path d="M21.07 20.43c.06-.02.17 0 .17 0s.01.04-.02.06c.03.02.14.01.14.01s-.04.03-.07.05c.04 0 .09.06.09.06s-.09.01-.13-.01c.02.05.02.09.02.09s-.15-.04-.2-.14m-.25-.21c-.04.09-.3-.08-.3-.08s.12.18.29.21m-3.3 1.57h3.11l.24-.19-.4-.21-.61-.21-.25-.14-.46.03-.38.2-.52.06-.12.14-.39.03-.61-.01 1.01.16-.84-.04.22.18z" style="fill:#96877d;stroke:#000;stroke-width:.0244"/><path d="M19.19 21.15c-.39-.21-.5.31-.67.43.23.04.4-.17.59-.28.15.4.38.14.38.14s.24.38.56.21c.09.07.18.01.18.01s.12.02.14-.03c.06.02.13-.05.13-.05s.13 0 .16-.07c.2.04.46-.41.46-.41l.08-.15.12-.03s.01-.08-.06-.07c0-.05-.04-.07-.1-.06.01-.03-.03-.05-.03-.05-.11.03-.12.31-.12.31s-.19.15-.26.18c0-.16-.27-.38-.22-.48.06-.1.23.16.38.11s.23-.25.23-.4c-.04-.1-.15-.28-.15-.28l-.1-.01-.09-.21s-.18.12-.18.22.19.19.19.19-.11.07-.21.04c-.01.1.12.08.17.09.02.08.1.12.1.12s.05.12-.07.1c-.12-.01-.26-.29-.43-.16-.18.14.08.38.08.38s-.16.08-.25.29c-.36-.31-.59-.16-1.01-.08z" style="fill:#96877d;stroke:#000;stroke-width:.0244"/><path d="M18.63 20.6c.16.15.05.4.11.45.07.05.16-.02.16-.02.17.04.47-.05.47-.05.13.07.08-.04.16-.03.07.18.31.15.31.15s-.22-.22-.35-.28c-.1.06-.4.07-.46.06-.06-.01-.02-.08-.05-.12.11-.11.02-.37-.04-.47-.24-.17-.54.1-.31.31zm-1.07-.45c-.2.05-.55-.26-.71-.14-.16.12-.09.42.02.57.11.14-.16.2-.23.28-.07.08.02.17.02.17l.07.05-.01.11.04.13s.04.03.05-.01c.03.03 0 .13.09.14-.03-.06.02-.23.02-.23s.15.01.18-.05c.04-.06-.04-.2-.04-.2h.04c-.05-.03-.07-.13-.07-.13s.2-.06.2-.22c0-.15-.33-.32-.21-.4.13-.09.36.23.56.08.2-.14.07 0 .07 0s.11-.2-.09-.15zM18.6 18c-.27-.11-.82-.12-1.13-.27-.13.01-.19.11-.2.16-.14-.01-.24.21-.22.26-.26-.1-.38.3-.29.38-.22.01-.19.29-.21.37-.07.17.02.23.15.17.02.07-.01.12-.07.13.38.43.59-.27.93-.26.42-.12.58-.33.58-.33l.16.02.3-.63z" style="fill:#96877d;stroke:#000;stroke-width:.0244"/><circle cx="18.95" cy="17.69" r=".4" style="fill:#96877d;stroke:#000;stroke-width:.0244"/><path d="M18.25 20.81c-.25-.04-.65-.3-.69-.63.23-.9 1.41-.43 1.51-1.11-.03-.45.05-.89.3-1.26.12-.15.26-.18.26-.18s.03.1-.01.16c.2-.02.46.09.65.1.05.11.05.15.04.21-.01.07-.09.05-.09.05-.05.04-.1.09-.23.07-.1.07-.3.09-.3.09s.43.45.36.59c.09.04.22.24.22.24s.29-.15.39-.29c.17 0 .45.18.58.2l.34.28s-.2.13-.29-.04c-.11.01-.33-.25-.65-.17-.01.28-.32.48-.32.48s.29-.04.45.06c.16.14.41.33.41.33l.22.37s-.2.03-.27-.22c-.07.21-.08-.13-.37-.28-.09.01-.13.02-.21-.04-.21.06-.46.18-.76.15-.21.07-.36.24-.58.34-.21.1-.28.05-.28.05l-.17.01c-.02.1-.01.26-.1.29.06.06-.04.34-.15.39.05.18.19.23.34.32 0 0 .13-.06.22.02s.18.31.18.31-.18.01-.24-.01-.06-.09-.13-.07c-.42-.37-.64-.22-.68-.31-.05-.13.09-.35.05-.5z" style="fill:#96877d;stroke:#000;stroke-width:.0244"/><path d="M17.25 19.16c.02-.03.17.03.17.03l.28.17.56.37.2.29-.36-.12-.5-.43-.27-.17c.01 0-.1-.11-.08-.14zm3.34.93c-.19-.05-.68.54-.68.54l.36.39c.01 0 .02-.67.32-.93z" style="fill:#96877d;stroke:#000;stroke-width:.0244"/><path d="M18.21 18.46c-.11.14-.12.41.02.52.01.17.15.5.27.54.12.03.61.15.8.12-.04.31.21.56.43.72 0 .03 0 .06.02.1.03.03.14.04.15.02.05.07.31.11.32.07.02-.03-.37-.3-.46-.39-.07-.14-.21-.44-.25-.69-.18-.23-.51-.23-.51-.23l.01-.45.02-.5-.18-.09s.04-.02.06-.04c.04.02.12-.07.14-.09.04.01.08.01.09-.01.01-.02.01-.11.03-.15.13-.12-.02-.37-.23-.37-.2 0-.25.24-.25.26.02.08.02.12 0 .14-.02.02-.09.06-.09.06s-.11-.05-.25 0-.29.13-.3.21c-.06.01-.17.09-.18.16-.06-.01-.13.04-.25.23-.21.09-.22.55-.22.55s-.06.08-.06.13c0 .04.02.08.05.08 0 .03.04.05.06.05.01.03.05.05.07.04 0 .02.08.02.09 0 .01-.02-.01-.12 0-.13.01-.01.08.04.1.03.02-.01 0-.06-.01-.08-.01-.02-.07-.03-.08-.1-.01-.07.04-.17.04-.17s.23-.18.26-.34c.15.01.24-.14.29-.2z" style="fill:#96877d;stroke:#000;stroke-width:.0244"/><path d="M17.81 17.81c.05-.13.24-.12.24-.12s.07-.18.32-.07c.1-.07.35.03.35.03s.1-.13.22-.11c.23.03.27.24.25.27-.13.03-.35-.1-.51-.06-.1.06-.25.11-.31.19-.14.02-.31-.14-.56-.13zm.48.21c.06-.04.2-.1.3-.02.1.11.25.21.25.21l.18.07.08.05-.05.8c-.16-.17-.31-.2-.43-.39-.06-.08-.01-.29-.12-.42s-.23-.22-.21-.3z" style="fill:#96877d;stroke:#000;stroke-width:.0244"/><path d="M18.72 18.25s.09-.02.12 0c.03.01.06.02.07.05.03.01.06.03.06.05.03.01.05.07.05.07l-.03.05s-.03-.03-.04-.07c-.02-.01-.07-.02-.08-.05-.04 0-.06-.02-.07-.06-.05.01-.08-.04-.08-.04z" style="fill:#96877d;stroke:#000;stroke-width:.0244"/><path d="M19.49 17.73c-.05-.06-.14-.02-.14-.02l-.25.42-.1.1-.01.33.09.31-.03.24s.12-.12.14-.18c.01-.06-.05-.26-.05-.26s-.07-.13.02-.36c.08-.24.28-.43.33-.58z" style="fill:#96877d;stroke:#000;stroke-width:.0244"/><path d="M20.1 18.11s-.38.55-1.01.74c-.17.04-.11-.41-.11-.41l-.04.01s-.1.44.14.44c.63-.12 1.11-.79 1.11-.79l-.09.01zm.26 3.15s-.06.04-.14 0c-.04-.09-.15-.1-.15-.1s-.07-.2-.18-.14c-.02-.1-.14-.05-.14-.05s0-.15-.14-.13c.05-.17-.19-.16-.19-.16s-.01-.19-.36-.15c.75-.34 1.35.53 1.35.53m.31.28s.17.2.26.2.1-.19.1-.19.03.08.07.06c0 .06.06.07.06.07s-.16.36-.6.02m-1.25-.09-.06.25s-.08.07-.06.09c.02.02.15-.02.15-.02s.19-.02.25-.08c.04.09.13.1.13.1s.01-.04-.01-.06c.04.01.08-.01.08-.01s.02-.07-.03-.1c.01-.05.03-.1-.06-.09-.07.07-.24.16-.28.13-.04-.03.17-.12.11-.25" style="fill:#96877d;stroke:#000;stroke-width:.0244"/><linearGradient id="a" x1="32" x2="32" y1="62" y2="2" gradientUnits="userSpaceOnUse"><stop offset="0" style="stop-color:#1a1a1a"/><stop offset=".102" style="stop-color:#393939;stop-opacity:.949"/><stop offset=".347" style="stop-color:#7f7f7f;stop-opacity:.8262"/><stop offset=".569" style="stop-color:#b6b6b6;stop-opacity:.7156"/><stop offset=".758" style="stop-color:#dedede;stop-opacity:.6209"/><stop offset=".908" style="stop-color:#f6f6f6;stop-opacity:.5459"/><stop offset="1" style="stop-color:#fff;stop-opacity:.5"/></linearGradient><circle cx="32" cy="32" r="30" style="opacity:.1;fill:url(#a)"/></svg>