<svg xmlns="http://www.w3.org/2000/svg" xml:space="preserve" style="enable-background:new 0 0 64 64" viewBox="0 0 64 64"><path d="M56 14H32v6h27.5c-.94-2.14-2.11-4.15-3.5-6z" style="fill:#e81c27"/><path d="M61.4 38c.39-1.94.6-3.95.6-6H2c0 2.05.21 4.06.6 6h58.8z" style="fill:#fcfcfc"/><path d="M32 2v6h18c-5.01-3.77-11.25-6-18-6z" style="fill:#e81c27"/><path d="M32 14h24a30.453 30.453 0 0 0-6-6H32v6zm27.5 6H32v6h29.4c-.43-2.09-1.07-4.09-1.9-6z" style="fill:#fcfcfc"/><path d="M32 26v6h30c0-2.05-.21-4.06-.6-6H32zM4.5 44h55c.83-1.91 1.48-3.91 1.9-6H2.6c.43 2.09 1.07 4.09 1.9 6z" style="fill:#e81c27"/><path d="M8 50h48c1.39-1.85 2.56-3.86 3.5-6h-55c.94 2.14 2.11 4.15 3.5 6z" style="fill:#fcfcfc"/><path d="M8 50c1.71 2.27 3.73 4.29 6 6h36c2.27-1.71 4.29-3.73 6-6H8z" style="fill:#e81c27"/><path d="M14 56c5.01 3.77 11.25 6 18 6s12.99-2.23 18-6H14z" style="fill:#fcfcfc"/><path d="M32 2C15.43 2 2 15.43 2 32h30V2z" style="fill:#0000b3"/><path d="M20 22.24 25.56 26l-2.1-6.11L29 16.11l-6.86-.02L20 10l-2.14 6.09-6.86.02 5.54 3.78-2.1 6.11z" style="fill:#fcfcfc"/><linearGradient id="a" x1="32" x2="32" y1="62" y2="2" gradientUnits="userSpaceOnUse"><stop offset="0" style="stop-color:#1a1a1a"/><stop offset=".102" style="stop-color:#393939;stop-opacity:.949"/><stop offset=".347" style="stop-color:#7f7f7f;stop-opacity:.8262"/><stop offset=".569" style="stop-color:#b6b6b6;stop-opacity:.7156"/><stop offset=".758" style="stop-color:#dedede;stop-opacity:.6209"/><stop offset=".908" style="stop-color:#f6f6f6;stop-opacity:.5459"/><stop offset="1" style="stop-color:#fff;stop-opacity:.5"/></linearGradient><circle cx="32" cy="32" r="30" style="opacity:.1;fill:url(#a)"/></svg>