<svg xmlns="http://www.w3.org/2000/svg" xml:space="preserve" style="enable-background:new 0 0 64 64" viewBox="0 0 64 64"><path d="M62 32c0-8.18-3.28-15.59-8.58-21H10.58C5.28 16.41 2 23.82 2 32s3.28 15.59 8.58 21h42.83C58.72 47.59 62 40.18 62 32z" style="fill:#007934"/><path d="M32 2c-8.39 0-15.97 3.45-21.42 9h42.83C47.97 5.45 40.39 2 32 2zm21.42 51H10.58c5.44 5.55 13.03 9 21.42 9s15.97-3.45 21.42-9z" style="fill:#e81c27"/><path d="M48.29 28.68c-1.54 7.59-8.25 13.3-16.29 13.3s-14.75-5.71-16.29-13.3c-.22 1.07-.33 2.19-.33 3.32 0 9.18 7.44 16.63 16.63 16.63S48.63 41.18 48.63 32c0-1.14-.12-2.25-.34-3.32z" style="fill:#ffe000"/><path d="M26.35 32 32 28.1l5.65 3.9-2.13-6.34 5.62-4.05h-6.97L32 15.38l-2.11 6.23h-7.03l5.62 4.05z" style="fill:#ffe000"/><linearGradient id="a" x1="32" x2="32" y1="62" y2="2" gradientUnits="userSpaceOnUse"><stop offset="0" style="stop-color:#1a1a1a"/><stop offset=".102" style="stop-color:#393939;stop-opacity:.949"/><stop offset=".347" style="stop-color:#7f7f7f;stop-opacity:.8262"/><stop offset=".569" style="stop-color:#b6b6b6;stop-opacity:.7156"/><stop offset=".758" style="stop-color:#dedede;stop-opacity:.6209"/><stop offset=".908" style="stop-color:#f6f6f6;stop-opacity:.5459"/><stop offset="1" style="stop-color:#fff;stop-opacity:.5"/></linearGradient><circle cx="32" cy="32" r="30" style="opacity:.1;fill:url(#a)"/></svg>