<svg xmlns="http://www.w3.org/2000/svg" xml:space="preserve" style="enable-background:new 0 0 64 64" viewBox="0 0 64 64"><path d="M32 2C21.74 2 12.7 7.15 7.28 15h49.43C51.3 7.15 42.25 2 32 2zm0 60c10.25 0 19.3-5.15 24.71-13H7.28C12.7 56.85 21.74 62 32 62z" style="fill:#0038b8"/><path d="M4.96 45c.67 1.4 1.46 2.73 2.33 4h49.43c.87-1.27 1.66-2.6 2.33-4H4.96zm54.08-26c-.67-1.4-1.46-2.73-2.33-4H7.28c-.87 1.27-1.66 2.6-2.33 4h54.09z" style="fill:#fcfcfc"/><path d="M57.98 17H6.02C3.47 21.41 2 26.53 2 32s1.47 10.59 4.02 15h51.95C60.53 42.59 62 37.47 62 32s-1.47-10.59-4.02-15z" style="fill:red"/><circle cx="18" cy="32" r="12" style="fill:#fcfcfc"/><path d="m18 36.27 5.4 4.09-2.05-6.66 5.38-4.13-6.66-.02L18 22.91l-2.08 6.64-6.65.02 5.37 4.13-2.04 6.66z" style="fill:red"/><linearGradient id="a" x1="32" x2="32" y1="62" y2="2" gradientUnits="userSpaceOnUse"><stop offset="0" style="stop-color:#1a1a1a"/><stop offset=".102" style="stop-color:#393939;stop-opacity:.949"/><stop offset=".347" style="stop-color:#7f7f7f;stop-opacity:.8262"/><stop offset=".569" style="stop-color:#b6b6b6;stop-opacity:.7156"/><stop offset=".758" style="stop-color:#dedede;stop-opacity:.6209"/><stop offset=".908" style="stop-color:#f6f6f6;stop-opacity:.5459"/><stop offset="1" style="stop-color:#fff;stop-opacity:.5"/></linearGradient><circle cx="32" cy="32" r="30" style="opacity:.1;fill:url(#a)"/></svg>