<svg xmlns="http://www.w3.org/2000/svg" xml:space="preserve" style="enable-background:new 0 0 64 64" viewBox="0 0 64 64"><path d="M32 2C19.32 2 8.5 9.88 4.11 21h55.78C55.5 9.88 44.68 2 32 2z" style="fill:#e81c27"/><path d="M32 62c12.68 0 23.5-7.88 27.89-19H4.11C8.5 54.12 19.32 62 32 62z" style="fill:#007934"/><path d="M62 32c0-3.14-.49-6.16-1.38-9H3.38a30.038 30.038 0 0 0 0 18h57.23c.9-2.84 1.39-5.86 1.39-9zm-1.71-10c-.12-.34-.27-.67-.4-1H4.11c-.13.33-.28.66-.4 1-.12.33-.22.66-.33 1h57.23c-.1-.34-.21-.67-.32-1zM3.71 42c.12.34.27.67.4 1h55.78c.13-.33.28-.66.4-1 .12-.33.22-.66.33-1H3.38c.11.34.22.67.33 1z" style="fill:#fcfcfc"/><path d="M37.59 35.92c-.5.46-1.15.74-1.84.8-1.7.15-3.21-1.07-3.36-2.71v-2.36c.02-.54.49-.97 1.05-.95.35.01.67.19.85.49.42-1.21-.27-2.53-1.53-2.93-1.26-.4-2.62.25-3.04 1.47-.16.47-.16.99 0 1.46.28-.47.91-.63 1.39-.35.3.17.5.48.51.82v2.36c-.15 1.64-1.66 2.85-3.36 2.71-.69-.06-1.34-.34-1.84-.8-.66 1.59-2.53 2.37-4.18 1.74-.24-.09-.47-.22-.69-.36.3 2.86 4.75 2.28 5.08-.51 1.4 2.37 4.47 1.69 5.37-1.21.9 2.89 3.98 3.57 5.37 1.21.33 2.78 4.78 3.37 5.08.51-.21.15-.44.27-.69.36-1.64.62-3.51-.15-4.17-1.75zm-7.33-5.75c.11-.75.72-1.34 1.5-1.44.96-.13 1.84.52 1.97 1.44-.69-.13-1.38.17-1.74.75-.34-.59-1.04-.89-1.73-.75z" style="fill:#ffd000"/><path d="M28.64 39.09s-.31-.18-.97-.1c-.09-.41-.46-.76-.73-.93-.25.27-.43.77-.34 1.13-.47.08-.9.38-.9.38 1.08 1.04 2.32.82 2.94-.48zm0 0zm4.86-.14s-.28-.23-.94-.25c-.02-.42-.33-.82-.56-1.03-.3.22-.56.69-.53 1.06-.47.01-.96.23-.96.23.9 1.19 2.16 1.16 2.99-.01zm3.56-.89c-.33.18-.67.59-.7.96-.47-.07-.98.08-.98.08.68 1.32 1.93 1.5 2.95.47 0 0-.24-.27-.88-.39.03-.42-.2-.87-.39-1.12z" style="fill:#ffd000"/><path d="m23.88 41.27.44 1.41a27.918 27.918 0 0 1 15.38 0l.43-1.41a29.524 29.524 0 0 0-16.25 0zm7.38-17.75-.46 1.35 1.2-.84 1.2.84-.46-1.35 1.2-.84h-1.48L32 21.32l-.46 1.36h-1.48zm-5.71 1.47-.45 1.36 1.19-.84 1.2.84-.46-1.36 1.2-.84h-1.48l-.46-1.36-.45 1.36h-1.48zm-4.17 4.02-.46 1.36 1.2-.84 1.19.84-.45-1.36 1.19-.84h-1.48l-.45-1.35-.46 1.35h-1.48zm-.79 6.02 1.2.84-.46-1.36 1.2-.84h-1.48l-.46-1.36-.46 1.36h-1.48l1.2.84-.46 1.36zm16.37-10.04-.45 1.36 1.2-.84 1.19.84-.45-1.36 1.19-.84h-1.48l-.45-1.36-.46 1.36h-1.48zm4.18 4.02-.46 1.36 1.2-.84 1.2.84-.46-1.36 1.2-.84h-1.48l-.46-1.35-.46 1.35h-1.48zm3.01 5.5 1.2-.84h-1.48l-.46-1.36-.46 1.36h-1.48l1.2.84-.46 1.36 1.2-.84 1.2.84z" style="fill:#ffd000"/><linearGradient id="a" x1="32" x2="32" y1="62" y2="2" gradientUnits="userSpaceOnUse"><stop offset="0" style="stop-color:#1a1a1a"/><stop offset=".102" style="stop-color:#393939;stop-opacity:.949"/><stop offset=".347" style="stop-color:#7f7f7f;stop-opacity:.8262"/><stop offset=".569" style="stop-color:#b6b6b6;stop-opacity:.7156"/><stop offset=".758" style="stop-color:#dedede;stop-opacity:.6209"/><stop offset=".908" style="stop-color:#f6f6f6;stop-opacity:.5459"/><stop offset="1" style="stop-color:#fff;stop-opacity:.5"/></linearGradient><circle cx="32" cy="32" r="30" style="opacity:.1;fill:url(#a)"/></svg>