<svg xmlns="http://www.w3.org/2000/svg" xml:space="preserve" style="enable-background:new 0 0 64 64" viewBox="0 0 64 64"><path d="M62 32c0-13.06-8.35-24.17-20-28.29v56.57C53.65 56.17 62 45.06 62 32z" style="fill:#e81c27"/><path d="M2 32c0 13.06 8.35 24.17 20 28.29V3.71C10.35 7.83 2 18.94 2 32z" style="fill:#004ef1"/><path d="M42 3.71a30.086 30.086 0 0 0-20 0v56.57A29.84 29.84 0 0 0 32 62c3.51 0 6.87-.61 10-1.71V3.71z" style="fill:#ffe000"/><path d="m41.23 30.86.13-.02v-1.03l-.83.61.06.12a.53.53 0 0 0-.09.11c-.02.04-.03.08-.03.12-.06 0-.12-.01-.18-.01-.18 0-.25.02-.29.05-.1.07-.09.2-.08.38.01.12.02.27 0 .4-.04.23-.1.28-.14.31-.02.01-.04.04-.06.06 0-3.55.01-6.84.01-6.9 0-.6-1.94-2.4-1.94-2.4l-1.85 1.45.1 1.21c-.44.05-1.95.88-2.14.94-1.6-.89-.53-2.89-.54-2.95l.02.02.23.24s.2-.83-.16-1.36c.04-.02.82-.17.82-.17s-1.95-1.37-3.69-.74c0-.02.01-.03.01-.05 0-.18-.05-.33-.13-.44l-.16-.21-.07.26a.15.15 0 0 1-.15.11h-.21v-.21c0-.07.04-.13.11-.15l.25-.07-.21-.16c-.21-.16-.67-.16-.87 0l-.21.16.26.07c.07.02.11.08.11.15v.21h-.21a.15.15 0 0 1-.15-.11l-.07-.25-.16.2a.72.72 0 0 0-.13.44c0 .18.04.34.13.44l.16.21.07-.25a.15.15 0 0 1 .15-.11h.21v1.51c0 .07-.04.13-.1.15l-.52.19.55.08c.09.01.2.17.23.27l.13.39.13-.39c.03-.1.14-.26.23-.27l.56-.08c.04.16.25 2.06-.76 2.88-.18-.06-1.7-.89-2.14-.94l.09-1.21-1.85-1.45s-1.94 1.8-1.94 2.4c0 .05.01 2.13.01 4.75l-.09-.13-.1.2c0 .01-.05.11-.1.25-.18-.16-.41-.29-.47-.33l-.17-.1-.03.19c-.01.05-.07.46.05.75-.13-.03-.22-.03-.23-.03l-.18-.01.04.17c.01.02.14.54.46.79.21.16.47.2.64.2l.17.38v.11c-.2-.05-.4-.08-.54-.08-.1 0-.16.01-.16.01l-.2.02.1.17c.01.03.05.1.12.18-.06.02-.1.03-.11.04l-.15.06.08.14c.01.02.3.49.72.64.04.02.1.02.15.03 0 2.37-.26 6.81-.26 6.81s2.76-2.47 2.82-2.5c0 0-.54.71-.6 1-.07.36.22 1.26 1.33.88l-.1.45.94.51c-.12.09-.65.33-.65.33l4.42 2.93 4.42-2.93s-2.37-.9-3.15-4.08c.04-.02.69-.31.7-.32.27.23 2.27 2.75 2.32 2.81-.02.02-.05.04-.06.07-.01.01-.01.03-.02.04-.06 0-.11 0-.15.02-.08.04-.13.07-.07.93l.02.23.19-.12c.74-.46.73-.52.71-.61a.239.239 0 0 0-.07-.13v-.01c.03 0 .04.02.07.02.1 0 .55-.22.66-.38.47-.69.19-1.31.21-1.34.22.3 2.37 2.18 2.37 2.18s-.26-4.27-.26-6.56l.47-.92c.01-.01.04-.03.05-.04.05-.03.11-.06.14-.13.02-.03.02-.06.02-.09.05-.01.1-.04.13-.07.06-.05.06-.13.07-.17 0-.05.01-.13.17-.29.09-.09.22-.17.32-.23.15-.1.27-.16.26-.29 0-.03-.01-.11-.24-.41.03-.02.06-.05.08-.09.03-.02.04-.07.04-.11zM30.11 21.6c-.09 0-.16.03-.24.05v-.13h.21c.05 0 .09.03.12.07-.03.01-.06.01-.09.01zm6.26 16.08c-.12-.21-.83-1.59-.98-1.88.12-.07.25-.14.35-.21.19-.13.38-.29.49-.43.18.65.5 1.71.82 2.27.01.02-.62.36-.68.25zm-9.26.1-.13-.28c.15-.1.36-.27.48-.5.19-.36.13-.83.13-.85l-.02-.16-.34.13c-.01-.05.13-.73.2-.96.11.14.3.31.49.43.1.07.23.14.35.21-.07 1.04-1.14 1.98-1.16 1.98zm2.87-14.59a.163.163 0 0 1-.11-.15v-.39c.29.13.53.31.64.72l-.53-.18zm-1.62 16.36-.63-.44c.03-.05 1.87-2.33 2.14-2.55.02.01.67.3.7.31-.31.68-1.38 2.88-2.43 3.71l.22-1.03z" style="fill:#997361"/><path d="m27.46 39.22.74.41-.18.83-.74-.41z" style="fill:#ffe000"/><path d="m23.98 31.23-.27.12 3.04 6.66h.32l-3.09-6.78zm3.58 7.85-.22.23.14.3.27-.12-.19-.41z" style="fill:#ffe000"/><path d="m24.92 36.48.45.6-.43.09 1.06.55.62-.18-.08-.44-1.62-.62zm1.93-.94-.45.65.36 1.3.59-.55.11-.77-.37.17-.24-.8zm-1.13-.15-.79.11-.68-.33.46-.18-.41-.48.65.01.77.87zm.14-1.96.15.56.3-.25.01 1.09-.55.57-.46-.89.07-.59.48-.49zm-2.62-1.1.83.12.6.83-.85.04-.65-.59.36-.06-.29-.34zm1.37-.82.2.53.29-.31.19 1.01-.41.67-.54-1.44.27-.46zm-1.51-1.59.05.71.2.29-.57-.16.42.72.75.17.28-.82-.36-.88-.15.48-.62-.51z" style="fill:#00a650"/><path d="m40.7 30.46.06.12-.14.12.03.2-.58.01-.02.68-.23.45.06.2-.12.07-.02.25-2.04 4.04-.49.48.06.5-.28.13.15.38.39-.1-.06-.3.45-.25.1-.68 2.06-4.04.2-.16-.01-.13.2-.06.23-.45.54-.42-.33-.47.18-.1.01-.18.14-.02v-.65l-.54.38zm-4.52 9.04v.14l-.22-.02v.8l.65-.47-.15-.17.12-.08-.13-.24-.14-.03-.13.07zm.14-12.19c0-.31.4-.61.4-.61h-9.78s.4.3.4.61v7.28c0 .19.06.32.15.44.09.13.29.31.5.45.64.42 1.72.86 2.53 1.23.68.31.95.43 1.31.87.35-.44.63-.56 1.3-.87.81-.37 1.89-.81 2.53-1.23.21-.13.41-.32.5-.45.09-.12.15-.25.15-.44v-7.28z" style="fill:#ffe000"/><path d="M27.57 31.43v-4.12c0-.23-.12-.38-.12-.38h8.75s-.12.14-.12.38v4.12l-4.26 1.29-4.25-1.29z" style="fill:#e81c27"/><path d="m36.09 31.43-2.64-.05H30.2l-2.64.05v3.16c0 .16.16.53 1.12 1.01 1.57.78 2.78 1.15 3.14 1.6.36-.45 1.57-.81 3.14-1.6.95-.47 1.12-.85 1.12-1.01l.01-3.16z" style="fill:#004ef1"/><path d="m28.91 33.27-.84 1.01.7 1.11 1.27-.32.09-1.31-1.22-.49zm4.61 1.26c.05.44.41.81.85.92a.838.838 0 0 1-.14-.41c-.05-.52.35-.95.9-.95.09 0 .17.01.26.03-.2-.32-.56-.54-.96-.54-.56 0-.97.43-.91.95zm-3.93-5.37 1.38 1.48.4-.19.46.21.46-.21.4.19 1.38-1.48-.51-1.65 1.12 1.74-1.54 1.89.35.78-.77.31-.13 2.88.45.43-1.21.71-1.21-.71.45-.43-.12-2.88-.77-.31.35-.78-1.54-1.89 1.12-1.74-.52 1.65z" style="fill:#ffe000"/><path d="m31.83 27.67.17.48.46-.22-.22.46.48.17-.48.17.22.46-.46-.22-.17.48-.17-.48-.46.22.22-.46-.48-.17.48-.17-.22-.46.46.22.17-.48zm-2.12 3.74-.8.6-.89-.56.88-.53.81.49zm5.93.03-.89.56-.8-.6.8-.49.89.53z" style="fill:#ffe000"/><linearGradient id="a" x1="32" x2="32" y1="62" y2="2" gradientUnits="userSpaceOnUse"><stop offset="0" style="stop-color:#1a1a1a"/><stop offset=".102" style="stop-color:#393939;stop-opacity:.949"/><stop offset=".347" style="stop-color:#7f7f7f;stop-opacity:.8262"/><stop offset=".569" style="stop-color:#b6b6b6;stop-opacity:.7156"/><stop offset=".758" style="stop-color:#dedede;stop-opacity:.6209"/><stop offset=".908" style="stop-color:#f6f6f6;stop-opacity:.5459"/><stop offset="1" style="stop-color:#fff;stop-opacity:.5"/></linearGradient><circle cx="32" cy="32" r="30" style="opacity:.1;fill:url(#a)"/></svg>