<svg xmlns="http://www.w3.org/2000/svg" xml:space="preserve" style="enable-background:new 0 0 64 64" viewBox="0 0 64 64"><path d="M2 32c0 13.06 8.35 24.17 20 28.29V3.71C10.35 7.83 2 18.94 2 32zm60 0c0-13.06-8.35-24.17-20-28.29v56.57C53.65 56.17 62 45.06 62 32z" style="fill:#e81c27"/><path d="M22 60.29a30.086 30.086 0 0 0 20 0V3.71a30.086 30.086 0 0 0-20 0v56.58z" style="fill:#0038b8"/><path d="M13.18 26.07c-1.6 0-2.97-.96-3.57-2.34 0 .02-.01.04-.01.06 0 1.98 1.6 3.58 3.58 3.58s3.57-1.6 3.57-3.58c0-.02-.01-.04-.01-.06a3.862 3.862 0 0 1-3.56 2.34z" style="fill:#ffe000"/><path d="M13.18 20.22c1.44 0 2.6 1.16 2.6 2.6 0 1.44-1.16 2.6-2.6 2.6a2.601 2.601 0 0 1 0-5.2zm-1.63-2.27a1.63 1.63 0 0 0 3.26 0c0-.65-.41-.73-.41-.97s.24-.57-.24-.97c.24.41-.16.49-.16.89s.16.4.16.73c0 .18-.15.32-.33.32-.18 0-.32-.15-.32-.32 0-.33.32-.65.32-1.14 0-.49-.08-.65-.32-1.05-.24-.41-.65-.73-.32-1.06-.49.16-.24.81-.24 1.22 0 .41-.32.65-.32 1.14 0 .49.24.57.24.89 0 .18-.14.32-.32.32s-.32-.15-.32-.32c0-.33.16-.33.16-.73 0-.41-.41-.49-.16-.89-.49.41-.25.73-.25.97-.02.24-.43.32-.43.97zM6.03 28.02v15.6h3.25v-15.6H6.03zm11.05 0v15.6h3.25v-15.6h-3.25zm-7.15 2.61v1.3h6.5v-1.3h-6.5zm0 9.09v1.3h6.5v-1.3h-6.5zm0-11.7h6.5l-3.25 1.95-3.25-1.95zm0 13.66h6.5l-3.25 1.95-3.25-1.95zm3.25-9.12a3.26 3.26 0 0 0-3.26 3.26c0 1.25.72 2.33 1.76 2.88-.25-.32-.4-.72-.4-1.16 0-1.05.86-1.9 1.91-1.9.85 0 1.54-.69 1.54-1.54-.01-.85-.7-1.54-1.55-1.54zm0 2.19c-.36 0-.65-.29-.65-.65 0-.36.29-.65.65-.65.36 0 .65.29.65.65 0 .36-.29.65-.65.65z" style="fill:#ffe000"/><path d="M14.69 32.95c.25.32.4.72.4 1.16 0 1.05-.86 1.9-1.9 1.9a1.54 1.54 0 0 0-.31 3.05c.1.01.2.03.31.03 1.8 0 3.26-1.46 3.26-3.26a3.262 3.262 0 0 0-1.76-2.88zm-1.51 5.25c-.36 0-.65-.29-.65-.65 0-.36.29-.65.65-.65.36 0 .65.29.65.65 0 .36-.29.65-.65.65z" style="fill:#ffe000"/><linearGradient id="a" x1="32" x2="32" y1="62" y2="2" gradientUnits="userSpaceOnUse"><stop offset="0" style="stop-color:#1a1a1a"/><stop offset=".102" style="stop-color:#393939;stop-opacity:.949"/><stop offset=".347" style="stop-color:#7f7f7f;stop-opacity:.8262"/><stop offset=".569" style="stop-color:#b6b6b6;stop-opacity:.7156"/><stop offset=".758" style="stop-color:#dedede;stop-opacity:.6209"/><stop offset=".908" style="stop-color:#f6f6f6;stop-opacity:.5459"/><stop offset="1" style="stop-color:#fff;stop-opacity:.5"/></linearGradient><circle cx="32" cy="32" r="30" style="opacity:.1;fill:url(#a)"/></svg>