<svg xmlns="http://www.w3.org/2000/svg" xml:space="preserve" style="enable-background:new 0 0 64 64" viewBox="0 0 64 64"><path d="M32 2S6.53 8 2 32c0 17.2 14.48 31.02 31.91 29.94 14.94-.93 27.1-13.09 28.03-28.03C63.02 16.48 49.2 2 32 2z" style="fill:#003893"/><path d="M32 2c-4.69 0-9.13 1.09-13.09 3.01L11 11l-5.99 7.91A29.896 29.896 0 0 0 2 32h12V17l12 15h6v-7.5L23.6 14H32V2z" style="fill:#fcfcfc"/><path d="M15.43 14 30 32h2v-4.94L21.43 14z" style="fill:red"/><path d="M18.91 5A30.153 30.153 0 0 0 5 18.91V32h6V11h21V5H18.91z" style="fill:red"/><path d="M50.11 23.75c-.55-.11-1.24.07-1.82.3.59-.6 1.29-1.3 1.72-1.71-.96.32-1.86 1.03-2.46 1.61.51-.74 1.4-1.81 2.06-2.46-1.22.48-1.99 1.32-2.44 1.92.25-.73.81-1.77 1.19-2.15-.57.26-1.99.91-2.46 1.96l1.35 1.92c0-.02 2.32-1.19 2.86-1.39zm-6.32-2.97c.34.5.74 1.14 1.06 2-.62-.89-1.1-1.11-1.4-1.36.15.27.39.76.66 1.27-.53-.46-1.14-.83-1.8-.93.45.26 1.1.84 1.62 1.52-.59-.35-1.21-.63-1.82-.67.53.28 1.25.84 1.83 1.41-.58-.38-1.2-.69-1.79-.76.51.3 1.92 1.42 2.3 1.79l1.28-1.45c-.42-1.27-1.02-2.45-1.94-2.82z" style="fill:#ffe000"/><path d="M45.71 22.17c-.76.29-1.1 1.73-1.02 2.13.89-.05 1.76-.14 2.54.31.38-1.51-.69-2.75-1.52-2.44z" style="fill:#ffe000"/><path d="M45.68 20.58c-.07.27-.3.51-.13.88-.3-.1-.57-.14-.81.13.3-.03.57.07.71.27-.27-.03-.41.1-.47.27.24-.07.47-.13.57-.1-.1.1-.27.27-.3.4.2-.17.44-.13.57-.24-.1.24.1.47.27.71-.03-.34.17-.57.07-.74.3.07.34.34.78.34-.17-.1-.27-.44-.47-.44.1-.03.51-.07.57 0-.07-.13-.3-.27-.44-.27.14-.14.37-.41.54-.47-.24.03-.61.07-.74.27.34-.27.27-.78.64-.84-.2-.03-.51.1-.74.34.1-.2.1-.47.24-.54-.27.07-.57.4-.67.57-.02-.17-.12-.44-.19-.54zM41.33 40.5c-.37-.27-.98-.57-1.25-.84-.13-.14-.27-.24-.37-.34.07.07.14.13.2.24.67.81-.03 1.99-.78 2.7-.54.51-1.52 1.76-2.94.57-.3-.27-1.01.84-.64 1.72.2.54 1.65 1.25 3.34.34 1.15-.64 1.89-1.55 2.6-3.17.21-.41.31-.92-.16-1.22zm14.11 2.33c-1.42 1.18-2.43-.07-2.97-.57-.71-.71-1.42-1.89-.74-2.7.07-.1.14-.17.2-.24-.13.1-.24.2-.37.34-.27.27-.88.57-1.25.84-.47.3-.37.81-.2 1.22.74 1.62 1.49 2.53 2.63 3.17 1.65.91 3.11.2 3.34-.34.34-.88-.33-1.99-.64-1.72z" style="fill:#ffe000"/><path d="M54.46 40.67c-.47-.2-1.05-.68-1.35-.98.54.54.44.91.07 1.52-1.72 2.87-4.09 4.32-7.36 4.32-3.28 0-5.64-1.45-7.36-4.32-.37-.61-.47-.98.03-1.52-.27.3-.88.78-1.35.98-.44.24-.81.61-.44 1.32 2.23 4.25 6.42 5.47 9.12 5.47 2.7 0 6.85-1.22 9.08-5.47.37-.71 0-1.09-.44-1.32z" style="fill:#ffe000"/><path d="M39.74 39.39c-.37-.34-.91-.03-1.18.24-.57.57-.51.98-.1 1.59.13.27.3.51.47.74.13-.4.57-.54.64-.2.54-.69.95-1.73.17-2.37zm13.3.23c-.24-.27-.78-.57-1.18-.24-.74.64-.37 1.69.17 2.36.07-.34.54-.2.68.2.17-.24.34-.47.47-.74.4-.6.47-1-.14-1.58zm-17.92 2.06c-.37.14-.34.41-.24.71.07.34.34 1.65.67 2.16-.17-.51.44-.81 1.18-.37-.3-.74-.57-1.35-.74-1.76-.16-.4-.5-.87-.87-.74zm21.4 0c-.37-.13-.71.34-.88.74-.17.41-.44 1.01-.74 1.76.74-.44 1.32-.13 1.18.37.3-.51.57-1.82.67-2.16.08-.3.14-.57-.23-.71z" style="fill:red"/><path d="M43.22 29.26c-.44.1-.74.14-1.15-.24-.27-.27-.2-.74.07-.91.3-.2.57-.34.94-.24.37.1 1.35 1.01 1.12 1.05-.24 0-.61.23-.98.34zm1.05-1.62c.13-.1.3-.17.74-.2.4-.03.71-.03.81.27.13.37.24.81.51 1.01-.17.1-1.01.2-1.32.03-.41-.2-.51-.98-.74-1.11zm2.9.03c.13-.1.3-.1.74-.07s.61.07.71.37c.1.34 0 .78.2 1.08-.2.07-.88.07-1.11-.17-.37-.27-.34-1.04-.54-1.21z" style="fill:#fff"/><path d="M49.2 27.87c-.3-.07-.51-.1-.64 0 .17.2.03 1.01.37 1.28.24.17.84.2.98-.17.16-.33.16-.84-.71-1.11zm-3.48-.34c.1-.1.3-.13.71-.13.44 0 .71.07.84.34.13.34.1.78.34 1.05-.1.14-1.01.14-1.28-.07-.38-.24-.41-1.02-.61-1.19zm-2.87.31c0-.17.24-.2.84-.24.61-.07.64-.03.84.41.1.24.24.64.51.78-.74.17-.98.27-1.38.03-.3-.17-.64-.57-.71-.74-.03-.11-.03-.21-.1-.24z" style="fill:#073163"/><path d="M42.92 24.83c-.24 0-.44-.1-.57-.27-.24-.3-.88-.44-1.15-.17-.1.07-.24.07-.34.1-.17 0-.37.17-.3.51.13-.1.17 0 .27 0 .07-.03.03.03.03.1 0 .17.37.51.71.47.37 0 .54.14.61.2.1.1.03.07.1.24.1.1.13.14-.03.27-.24.2-.41.68 0 1.05.44.34 1.55.84 2.8-.14 1.22-.95 3.11-.41 3.24-.07.17.34.24.54.27.71.03.13.2.27.44.24.24 0 .51.1.64.2.17.1.41.07.34-.24-.14-.95-.71-1.08-.78-1.52.34.03.57.03.71-.1.1-.13.24-.37.37-.44.1-.07.1-.14-.03-.1-.17.03-.27.1-.57.07-1.56-.16-5.92-1.34-6.76-1.11z" style="fill:#00852c"/><path d="M43.39 24.7c.34-.34.74-.51 1.15-.4h.1c.2-.17.67-.2.94-.07h.13c.41-.13 1.18 0 1.45.27l.1.07c.91-.07 1.45.34 2.09.98.07.07.17.2.34.24.2.03.24.13.07.24-.2.1-.37.27-.71.64-.3.41-1.28.81-2.5.81-1.18 0-1.89-.2-2.43-.61-.3-.24-.54-.37-.71-.47-.2-.07-.47-.34-.37-.61.07-.27-.1-.61-.24-.95.1-.07.37-.17.51-.1l.08-.04z" style="fill:#059334"/><path d="M49.36 25.54c-.64-.64-1.18-1.05-2.09-.98 0 .03 0 .13-.03.2.54.2 1.32.81 1.65 1.25.14-.13.37-.3.47-.47zm-2.19-1.04c-.27-.27-1.05-.41-1.45-.27 0 .14 0 .34-.07.47.24.1.44.34.64.57.13-.03.47-.14.64-.17.07-.13.21-.44.24-.6zm-1.59-.28c-.27-.13-.74-.1-.94.07-.07.14-.1.4-.1.54.14 0 .34.1.41.17.2-.07.47-.2.57-.3.03-.14.1-.34.06-.48zm-2.19.48c.34-.34.74-.51 1.15-.4-.07.1-.1.3-.1.51-.37-.03-.84.07-1.05.2v-.31z" style="fill:#00493d"/><path d="M48.76 26.08c-.3-.44-1.05-.95-1.55-1.18 0 .03-.07.17-.1.27.2.3.61.98.78 1.35.16-.07.63-.27.87-.44zm-2.57.74c.07-.47.1-1.15.1-1.38.17-.03.51-.13.64-.17.17.27.57.98.74 1.32-.4.1-1.07.27-1.48.23zm-1.18-1.62c.17-.07.4-.2.57-.34.13.1.41.34.51.47 0 .3-.1 1.18-.13 1.49-.27 0-.71-.07-.94-.2.02-.5.06-1.08-.01-1.42zm-1.69.41c.03-.07.07-.3.07-.41.27-.17.95-.34 1.45-.07.03.34 0 1.18-.03 1.38-.44-.33-1.15-.8-1.49-.9z" style="fill:#00493d"/><path d="M52.13 29.29H39.47v6.58c0 5.71 2.74 7.66 6.35 9.22 3.61-1.55 6.31-3.51 6.31-9.22v-6.58z" style="fill:#fff"/><path d="M45.82 34.86zm-6.35-5.57v4.39c.78 0 1.11.13 1.52.51.41.37.88.64 1.65 0 .81-.64 1.52-.47 1.99 0 .37.4.84.68 1.18.68.3 0 .78-.27 1.18-.68.44-.47 1.18-.64 1.96 0s1.25.37 1.65 0c.41-.37.74-.51 1.52-.51v-4.39H39.47z" style="fill:red"/><path d="M50.92 35.94c-.51.44-1.08.34-1.82.07-.71-.3-1.42-.84-2.13 0-.2.24-.67.57-1.15.57-.51 0-.95-.34-1.15-.57-.74-.84-1.42-.3-2.13 0-.74.27-1.35.37-1.86-.07-.47-.44-.71-.57-1.22-.47v.41c0 .57.03 1.08.1 1.59.37 0 .64-.03 1.18.41.54.44 1.45.2 1.89 0 .47-.2 1.01-.61 1.75-.17.2.1.98.54 1.42.54.41 0 1.21-.44 1.42-.54.74-.44 1.28-.03 1.72.17.47.2 1.35.44 1.89 0 .54-.44.84-.41 1.22-.41.07-.51.07-1.01.07-1.59v-.41c-.46-.1-.7.03-1.2.47zm.07 3.38c-.41.24-.98.34-1.69 0-.67-.34-1.15-.51-1.82-.14-.54.3-1.15.51-1.65.51-.51 0-1.11-.2-1.65-.51-.68-.37-1.15-.2-1.86.14-.67.34-1.28.24-1.65 0-.2-.14-.37-.4-.81-.3.2.84.51 1.59.88 2.19.68.17 1.05.17 1.76-.13.71-.34 1.59-.54 2.06-.24.44.27.91.4 1.28.4s.84-.13 1.28-.4c.47-.3 1.35-.1 2.06.24.71.3 1.08.3 1.76.13.37-.61.67-1.35.88-2.19-.46-.11-.63.16-.83.3zM47.2 42.9c-.64.3-.91.37-1.38.37-.47 0-.74-.07-1.38-.37-.61-.34-1.32-.27-1.55-.1-.24.17-.41.1-.67.2 1.01.88 2.23 1.52 3.61 2.09 1.35-.57 2.6-1.22 3.61-2.09-.27-.1-.44-.03-.67-.2-.25-.17-.96-.24-1.57.1z" style="fill:#0b50a0"/><path d="M50.48 31.15c.24-.14.27-.54.2-.68-.07.2-.17.14-.27.3.03-.2-.07-.44-.27-.54 0 .1-.13.1-.13.2a.551.551 0 0 0-.41-.41c.07.2-.13.41-.1.64-.14-.24-.51-.34-.84-.34.13.1.03.2.1.3-.91 0-1.25.17-1.86.17-.61 0-.81-.1-.81-.27 0-.14.2-.2.54-.2.17 0 .44.1.54.13.34.14.67.14.88-.03-.2 0-.27-.27-.41-.24.13-.03.2-.07.34-.1.1-.03.37-.1.54 0-.07-.27-.44-.27-.78-.17.17-.07.37-.27.37-.41-.24.17-.71.03-.95.17-.2.1-.3.24-.34.3-.07.07-.2.1-.37.1-.54 0-.71.24-.71.41 0 .17.17.54 1.18.54.67 0 1.11-.2 1.92-.2.57 0 .84.1.84.27s-.2.34-.44.34c-.41 0-.84-.24-1.55-.24-.74 0-1.62.3-2.36.3h-.24c-.1-.07-.1-.14-.17-.27-.03-.07.03-.24 0-.3.03 0 .1-.07.17-.1.07-.1.17-.27.1-.37-.03-.13-.2-.13-.34-.07.1-.07.07-.17.17-.27-.1 0-.24 0-.27.03.07-.07.13-.2.13-.34-.07.1-.24.13-.34.13 0-.07 0-.2.07-.27-.2 0-.47.1-.54.27.03-.1-.17-.27-.1-.37-.17.07-.41.24-.44.37.03-.1-.03-.24-.07-.34 0 .1-.24.27-.2.47-.07-.07-.27-.1-.34.03s.03.3.13.4c0 .03.03.07.07.1-.13-.07-.24.03-.27.24-.03.07-.07.17-.07.24-.1.1-.17.24-.17.37-.34-.03-.74-.34-.98-.71-.07-.07-.1-.17-.03-.24.13-.1.1-.3 0-.34-.1-.03-.27-.07-.27.07 0 .03-.03.1-.03.13-.03-.13-.07-.2-.07-.3 0-.1-.07-.2-.17-.2-.1.03-.17.03-.2.13 0 .1 0 .24.03.3-.03-.03-.07-.1-.1-.14-.07-.1-.2 0-.24.07-.07.07-.07.24.1.27-.13.03-.17.2-.1.34.1.1.24.13.3.1.07-.03.1-.1.13-.14-.07.1.1.27.2.3-.1 0-.17.1-.27.07.13.07.2.2.47.2-.1 0-.17.17-.3.17.17.07.34.1.47.07-.1.03-.13.17-.17.27.14-.03.3.03.37 0-.03.1-.03.2-.1.27.13.03.3.07.47.03-.07.03-.1.2-.14.24.07 0 .24.03.34.03v.1c.07-.1.2-.17.34-.24 0 .07 0 .13-.03.24-.24.2-.64.37-.84.44-.07 0-.1.03-.17.03-.17.03-.37-.14-.44-.24-.1-.2-.34-.2-.34.07-.07 0-.17 0-.2.03-.1.1-.07.24.03.3 0 .03-.03.07-.03.1-.07.1.07.24.2.24-.07.07 0 .17.1.2.17.1.3 0 .3-.07.17.03.37-.03.41-.17.03.07 0 .13-.03.2a.49.49 0 0 0 .34-.24c0 .07 0 .17-.03.27.03-.1.3-.17.3-.3.03.07.03.17.03.24.14-.07.24-.2.27-.3.03.03.03.14.03.2.1-.03.2-.1.27-.2.1.03.24 0 .3-.07.07-.07.24 0 .34.1-.03-.1.03-.24-.03-.3.1.03.3.1.37.17-.07-.13 0-.3.03-.37.07.1.27.1.37.1-.03-.07-.07-.14-.07-.2.47.14 1.21-.3 1.92-.68.14-.07.34-.07.47-.03-.17.14-.51.51.07.61-.2.17-.47.34-.64.34-.2.03-.27.03-.34-.07-.1-.1-.2-.1-.27-.07-.03 0-.07.07-.07.14l-.03-.03c-.07-.07-.17 0-.2.03-.03.07-.03.14.03.2.07.03.17 0 .24.03h-.07c-.07.03-.07.14-.07.2.07.07.17.07.27 0-.07.07-.03.2.03.24.07.03.2 0 .2-.07.03-.13.1-.1.1-.2.07.07.2.07.3 0 .07.14.27.17.44.03.13.07.41-.07.51-.3.03.07.07.1.1.17 0-.14.13-.2.13-.3.07.1.24.14.34-.03-.2-.07-.27-.2-.27-.37 0-.14.13-.2.13-.34.03.03.07.03.1.07.41.13 1.22.27 1.72.24.52.03.62.33.62.43 0 .07-.03.14-.1.17-.07.07-.14.03-.2 0-.07-.03-.27 0-.3.1-.03.1.07.3.3.24 0 .03.03.07.07.1.06.03.17.03.24-.03v.03c-.03.03.03.13.13.17.1.03.2-.07.17-.17.17.13.37-.03.27-.17-.1-.07 0-.24-.1-.37.07.03.17 0 .2 0-.1-.07-.1-.2-.2-.3.1.03.17-.03.24-.03-.17-.14-.07-.2-.24-.3.1-.03.17-.1.2-.24-.13.03-.34-.07-.44-.17-.13-.07-.3-.1-.4-.07-.1.03-.27.03-.51.03-.37 0-.78-.41-.98-.44.34 0 .4.1.95.13.51.03 1.18-.1 1.59-.34.1-.03.2-.14.41-.1a.547.547 0 0 0-.72-.09zm-7.83 7.52 1.68 1.22-.64-1.98 1.69-1.23h-2.09l-.64-1.99-.65 1.99h-2.09l1.69 1.23-.64 1.98zm7.39-.76 1.69-1.23h-2.09l-.65-1.99-.64 1.99h-2.09l1.69 1.23-.64 1.98 1.68-1.22 1.69 1.22z" style="fill:#ffe000"/><path d="m46.47 40.36-.65-1.99-.65 1.99h-2.09l1.7 1.23-.65 1.98 1.69-1.22 1.69 1.22-.65-1.98 1.69-1.23z" style="fill:#ffe000"/><path d="m43.46 37.84 1.35-.99h-1.67l-.49-1.55-.51 1.55h-1.65l1.32.98-.51 1.59 1.33-.98 1.33.98zm6.35 0 1.34-.99h-1.66l-.5-1.55-.51 1.55h-1.65l1.33.98-.52 1.59 1.34-.98 1.33.98zm-3.18 3.68 1.35-.99h-1.66l-.5-1.55-.51 1.55h-1.65l1.33.98-.52 1.59 1.34-.98 1.33.98z" style="fill:#024919"/><linearGradient id="a" x1="32" x2="32" y1="62" y2="2" gradientUnits="userSpaceOnUse"><stop offset="0" style="stop-color:#1a1a1a"/><stop offset=".102" style="stop-color:#393939;stop-opacity:.949"/><stop offset=".347" style="stop-color:#7f7f7f;stop-opacity:.8262"/><stop offset=".569" style="stop-color:#b6b6b6;stop-opacity:.7156"/><stop offset=".758" style="stop-color:#dedede;stop-opacity:.6209"/><stop offset=".908" style="stop-color:#f6f6f6;stop-opacity:.5459"/><stop offset="1" style="stop-color:#fff;stop-opacity:.5"/></linearGradient><circle cx="32" cy="32" r="30" style="opacity:.1;fill:url(#a)"/></svg>