<svg xmlns="http://www.w3.org/2000/svg" xml:space="preserve" style="enable-background:new 0 0 64 64" viewBox="0 0 64 64"><path d="M32 2C21.32 2 11.94 7.59 6.63 16h50.74C52.06 7.59 42.68 2 32 2z" style="fill:red"/><path d="M6.63 16A29.831 29.831 0 0 0 2 32h60c0-5.88-1.7-11.37-4.63-16H6.63z" style="fill:navy"/><path d="M6.63 48C11.94 56.41 21.32 62 32 62c10.68 0 20.06-5.59 25.37-14H6.63z" style="fill:#12ad2b"/><path d="M57.37 48A29.831 29.831 0 0 0 62 32H2c0 5.88 1.7 11.37 4.63 16h50.74z" style="fill:#ffe000"/><linearGradient id="a" x1="32" x2="32" y1="62" y2="2" gradientUnits="userSpaceOnUse"><stop offset="0" style="stop-color:#1a1a1a"/><stop offset=".102" style="stop-color:#393939;stop-opacity:.949"/><stop offset=".347" style="stop-color:#7f7f7f;stop-opacity:.8262"/><stop offset=".569" style="stop-color:#b6b6b6;stop-opacity:.7156"/><stop offset=".758" style="stop-color:#dedede;stop-opacity:.6209"/><stop offset=".908" style="stop-color:#f6f6f6;stop-opacity:.5459"/><stop offset="1" style="stop-color:#fff;stop-opacity:.5"/></linearGradient><circle cx="32" cy="32" r="30" style="opacity:.1;fill:url(#a)"/></svg>