<svg xmlns="http://www.w3.org/2000/svg" xml:space="preserve" viewBox="0 0 64 64"><circle cx="32" cy="32" r="30" fill="#006952"/><path fill="#FCFCFC" d="M20.296 44.484c.316.271.643.532.978.781h21.453c.335-.249.661-.51.978-.781H20.296zm2.117 1.563c.581.366 1.183.701 1.806 1h15.562a18.006 18.006 0 0 0 1.806-1H22.413zm2.948 1.5c2.055.816 4.295 1.266 6.639 1.266s4.584-.449 6.639-1.266H25.361zm-6.646-4.594c.155.17.314.336.476.5H44.81c.161-.164.32-.33.476-.5H18.715zm17.347-2.464A10.242 10.242 0 0 1 32 38.116a10.222 10.222 0 0 1-4.062 2.373c-.931.281-1.917.433-2.938.433h-7.892c.232.342.477.676.731 1h7.629c2.487 0 4.767-.897 6.531-2.386a10.1 10.1 0 0 0 6.531 2.386h7.629c.255-.324.499-.658.731-1H39c-1.021 0-2.008-.151-2.938-.433z"/><path fill="#FCFCFC" d="M38.656 39.297c-.615 0-1.218-.055-1.803-.16.275.022.553.035.834.035 4.336 0 8.037-2.726 9.487-6.556a11.88 11.88 0 0 0-4.581-.913 11.876 11.876 0 0 0-7.636 2.769 11.883 11.883 0 0 1 8.586-3.675 4.09 4.09 0 0 1 .844-1.112 11.887 11.887 0 0 0-9.169 3.682 10.091 10.091 0 0 0 1.984-6.023c0-1.813-.477-3.515-1.312-4.988a4.07 4.07 0 0 1-.941 1.623c.623 1.314.972 2.783.972 4.334 0 2.334-.79 4.484-2.117 6.198a10.093 10.093 0 0 0 1.711-5.636c0-1.005-.146-1.975-.419-2.892-.727-2.447-2.272-4.044-3.096-4.783-.824.739-2.369 2.336-3.097 4.783a10.152 10.152 0 0 0-.419 2.892c0 2.085.631 4.023 1.711 5.636a10.09 10.09 0 0 1-2.117-6.198c0-1.551.349-3.02.972-4.334a4.046 4.046 0 0 1-.941-1.623 10.086 10.086 0 0 0-1.312 4.988c0 2.255.737 4.339 1.984 6.023a11.887 11.887 0 0 0-9.169-3.682c.341.318.628.694.844 1.112a11.883 11.883 0 0 1 8.586 3.675 11.872 11.872 0 0 0-7.636-2.769c-1.623 0-3.17.325-4.581.913 1.45 3.83 5.151 6.556 9.487 6.556.281 0 .559-.013.834-.035-.585.105-1.188.16-1.803.16a10.104 10.104 0 0 1-7.043-2.848c-.38.146-.787.237-1.212.263a10.112 10.112 0 0 0 7.599 3.429c2.873 0 5.467-1.196 7.313-3.118a10.107 10.107 0 0 0 7.313 3.118c3.024 0 5.74-1.326 7.599-3.429a4.005 4.005 0 0 1-1.212-.263 10.106 10.106 0 0 1-7.044 2.848z"/><path fill="#FFF300" d="M32.74 15.591 32 13.313l-.74 2.278h-2.396l1.939 1.408-.74 2.277L32 17.869l1.938 1.407-.741-2.277 1.939-1.408zm-13.018 8.581-.317-1.626-.7 1.502-1.644-.202 1.211 1.131-.7 1.502 1.449-.804 1.212 1.13-.316-1.627 1.449-.804zm5.505-6.817-1.358.952-1.324-.997.484 1.585-1.357.95 1.656.028.485 1.586.541-1.567 1.657.028-1.323-.997zm21.712 6.491-1.644.202-.7-1.502-.317 1.626-1.644.202 1.449.804-.316 1.627 1.212-1.13 1.449.804-.7-1.502zm-5.484-6.536-1.324.997-1.358-.952.54 1.568-1.324.997 1.657-.028.541 1.567.485-1.586 1.656-.028-1.357-.95z"/><linearGradient id="a" x1="32.001" x2="32.001" y1="62" y2="2.001" gradientUnits="userSpaceOnUse"><stop offset="0" style="stop-color:#1a1a1a"/><stop offset=".102" style="stop-color:#393939;stop-opacity:.949"/><stop offset=".347" style="stop-color:#7f7f7f;stop-opacity:.8262"/><stop offset=".569" style="stop-color:#b6b6b6;stop-opacity:.7156"/><stop offset=".758" style="stop-color:#dedede;stop-opacity:.6209"/><stop offset=".908" style="stop-color:#f6f6f6;stop-opacity:.5459"/><stop offset="1" style="stop-color:#fff;stop-opacity:.5"/></linearGradient><circle cx="32" cy="32" r="30" fill="url(#a)" opacity=".1"/></svg>