<svg xmlns="http://www.w3.org/2000/svg" xml:space="preserve" style="enable-background:new 0 0 64 64" viewBox="0 0 64 64"><path d="M62 32c0-3.5-.61-6.87-1.71-9.99H3.71a30.028 30.028 0 0 0 0 19.98h56.58C61.39 38.87 62 35.5 62 32zm-51.21-9.99v.01-.01zm0 19.97v.01z" style="fill:#1a1626"/><path d="M10.03 24h.76v-1.98c-.28.65-.54 1.31-.76 1.98zm0 16c.23.67.48 1.33.76 1.98V40h-.76z" style="fill:#fcfcfc"/><path d="M10.79 41.99v11.22A29.871 29.871 0 0 0 32 62c12.3 0 22.86-7.4 27.49-18H11.76c-.36-.66-.68-1.33-.97-2.01z" style="fill:#ffe000"/><path d="M11.76 20H59.5C54.86 9.4 44.3 2 32 2c-8.29 0-15.79 3.36-21.21 8.79v11.22c.29-.68.61-1.35.97-2.01z" style="fill:#006952"/><path d="M60.29 22.01c-.24-.68-.51-1.35-.8-2.01H11.76c-.35.66-.67 1.33-.96 2.01h49.49zm0 19.98-49.5-.01v.01c.29.68.61 1.35.96 2.01h47.74c.29-.66.56-1.33.8-2.01" style="fill:#fcfcfc"/><path d="M10.79 10.79A29.871 29.871 0 0 0 2 32c0 8.28 3.36 15.78 8.79 21.21L32 32 10.79 10.79z" style="fill:#e81c27"/><path d="m20.62 41.98-6.49-4.75-6.49 4.76 2.52-7.65-6.53-4.7 8.05.03 2.45-7.66 2.46 7.66 8.04-.04-6.53 4.71 2.52 7.64z" style="fill:#ffe000"/><path d="M8.49 36.65h4.68c.38.42 1.22.59 2.02 0 1.47-.8 4.3 0 4.3 0l.56-.59-1.36-4.47-.49-.52s-1.05-.63-3.04-.42c-1.99.21-2.69-.07-2.69-.07s-1.75.21-2.23.45c-.05.04-.56.56-.56.56l-1.19 5.06z" style="fill:#fcfcfc"/><path d="M14.11 37.09c-.38 0-.74-.14-.96-.38H8.49c-.02 0-.03-.01-.04-.02-.01-.01-.01-.03-.01-.05l1.19-5.06c0-.01.01-.02.01-.03.05-.05.51-.52.56-.56.5-.25 2.19-.46 2.26-.47h.03s.38.14 1.32.14c.4 0 .86-.03 1.35-.08.27-.03.54-.04.8-.04 1.47 0 2.24.45 2.27.47l.01.01.49.52c.01.01.01.01.01.02l1.36 4.47c.01.02 0 .04-.01.05l-.56.59c-.01.02-.04.02-.05.02-.01 0-1.27-.36-2.53-.36-.73 0-1.31.12-1.73.35-.35.27-.73.41-1.11.41zm-5.55-.49h4.61c.02 0 .03.01.04.02.2.23.54.36.89.36.36 0 .72-.13 1.05-.38.45-.24 1.05-.37 1.79-.37 1.16 0 2.32.3 2.53.35l.51-.55-1.35-4.43-.47-.51c-.08-.04-.84-.45-2.21-.45-.26 0-.52.01-.79.04-.49.05-.95.08-1.36.08-.88 0-1.27-.12-1.34-.15-.16.02-1.75.22-2.2.45-.03.02-.33.33-.53.54l-1.17 5z" style="fill:#1a1626"/><path d="M14.11 37.1c-.34 0-.67-.12-1.01-.37-.02-.02-.03-.05-.01-.07.09-.15.4-.45.98-.74-1.78-.71-4.59-.37-4.62-.37-.03 0-.06-.02-.06-.05 0-.03.02-.06.05-.06.15-.02 3-.36 4.78.41.88-.4 2.3-.73 4.35-.45.03 0 .05.03.05.06s-.03.05-.06.05c-2.01-.28-3.36.03-4.2.4.36.18.67.4.9.7.01.01.01.03.01.04 0 .02-.01.03-.02.04-.41.28-.78.41-1.14.41zm-.89-.42c.62.43 1.21.42 1.9-.04-.22-.28-.54-.49-.91-.66-.59.29-.9.59-.99.7zm1-5.65-.04 4.92m4.02-4.85.84 3.91m-8.75-3.97-.46 2.02" style="fill:#1a1626"/><path d="M14.18 36.01c-.03 0-.06-.02-.06-.06l.04-4.92c0-.03.03-.06.06-.06s.05.03.05.06l-.04 4.92c.01.04-.01.06-.05.06zm4.86-.94c-.03 0-.05-.02-.05-.04l-.84-3.91c-.01-.03.01-.06.04-.07.03-.01.06.01.07.04l.83 3.91c.01.03-.01.06-.04.07h-.01zm-9.22-1.96h-.01c-.03-.01-.05-.04-.04-.07l.47-2.02c.01-.03.04-.05.07-.04.03.01.05.04.04.07l-.46 2.02c-.02.03-.04.04-.07.04z" style="fill:#1a1626"/><path d="m5.46 37.19 1.1 1.29c.13.08.25.07.36 0l1.63-1.96.68-.85c.11-.13.14-.27.13-.39l1.31-1.16c.11.01.17.02.28.03-.13-.03-.22-.09-.12-.23l.29-.23.23.29s-.33.42-.36.42h-.36l-.68.62.3.26.45 1.24.55-.39-.36-1.27.78-.85-.29-.46.2-.26s2.71 1.71 3.75 1.25c.03.01.06-1.22.06-1.22s-2.8-.29-2.87-.85c-.06-.55.62-.62.62-.62l-.29-.42.07-.23.49.62 1.11-.95 6.52 7.44c.36-.14.43-.23.46-.59l-6.39-7.34.49-.52c.1-.11.13-.16.13-.33l.75-.65c.22.08.37.21.49.39l2.06-1.75c.05.05.22.11.33.05l3.41-3.27-3.72 2.62-.13-.1c0-.11.13-.14 0-.33-.14-.17-.36.16-.39.16-.03 0-.54-.18-.65-.4l-.04.6-.95.88-.72-.03-1.04 1.01-.13.41.16.33s-.55.49-.55.46c0-.03-.11-.14-.12-.16l.48-.43.06-.29-.16-.25c-.05.04-.66.67-.69.61-.05-.06-1.76-1.99-1.76-1.99l.1-.36-1.11-1.21c-.4-.14-1.04-.16-1.17.72-.1.21-.95.03-.95.03l-.46.1-2.58 3.65 1.43 1.73 2.94-3.72.09-1.05.62.69c.21.03.4.03.59-.06l1.74 1.94-.29.28c.1.11.16.18.26.29.1-.07.19-.14.29-.21.03.04.09.13.12.17-.15.08-.25.18-.39.26-.23-.15-.46-.34-.44-.64l-.98.81-.03.16-2.9 2.41-.26.03-.07.75 1.89-1.56v-.23l.2.16 1.47-1.17s.1.13.07.13-1.3 1.17-1.3 1.17l-.03.13-.25.2-.13-.1-1.76 1.57h-.26l-.98.98c-.25.02-.47.05-.68.2l-1.75 1.54z" style="fill:#1a1626"/><linearGradient id="a" x1="32" x2="32" y1="62" y2="2" gradientUnits="userSpaceOnUse"><stop offset="0" style="stop-color:#1a1a1a"/><stop offset=".102" style="stop-color:#393939;stop-opacity:.949"/><stop offset=".347" style="stop-color:#7f7f7f;stop-opacity:.8262"/><stop offset=".569" style="stop-color:#b6b6b6;stop-opacity:.7156"/><stop offset=".758" style="stop-color:#dedede;stop-opacity:.6209"/><stop offset=".908" style="stop-color:#f6f6f6;stop-opacity:.5459"/><stop offset="1" style="stop-color:#fff;stop-opacity:.5"/></linearGradient><circle cx="32" cy="32" r="30" style="opacity:.1;fill:url(#a)"/></svg>