<svg xmlns="http://www.w3.org/2000/svg" xml:space="preserve" style="enable-background:new 0 0 64 64" viewBox="0 0 64 64"><path d="M32 2a29.85 29.85 0 0 0-16.64 5.04h33.29A29.908 29.908 0 0 0 32 2zm0 60c6.16 0 11.88-1.86 16.65-5.04H15.36A29.85 29.85 0 0 0 32 62z" style="fill:#079935"/><path d="M7.05 47.04h50.9c1.78-3.06 3.03-6.46 3.63-10.08H3.42c.6 3.62 1.85 7.02 3.63 10.08z" style="fill:#e81c27"/><path d="M3 32c0 1.72.15 3.4.43 5.04h58.14c.28-1.64.43-3.32.43-5.04 0-1.72-.15-3.4-.43-5.04H3.43C3.15 28.6 3 30.28 3 32z" style="fill:#1a1626"/><path d="M3.42 27.04h58.17c-.6-3.62-1.86-7.02-3.63-10.08H7.05a29.674 29.674 0 0 0-3.63 10.08z" style="fill:#e81c27"/><path d="M12.3 17.04H58a30.114 30.114 0 0 0-9.49-10.08H15.48c-1.12.74-2.17 1.56-3.18 2.43v7.65zm0 29.92v7.65c1.01.88 2.06 1.7 3.18 2.43h33.03c3.89-2.57 7.15-6.03 9.49-10.08H12.3z" style="fill:#ffe000"/><path d="M12.3 9.38c-1.01.88-1.3 1.21-1.3 1.21L29.27 32l-18.3 21.38s.33.36 1.34 1.24L34.92 32 12.3 9.38z" style="fill:#1a1626"/><path d="M11 10.59 9.48 12.2C4.83 17.49 2 24.41 2 32c0 7.75 2.95 14.8 7.77 20.12l1.2 1.26L32.43 32 11 10.59z" style="fill:#fcfcfc"/><path d="m19.32 34 5.52-4.63-6.51-1.1-3.37-6.82-3.37 6.82-6.5 1.1L10.61 34l-1.44 6.88 5.79-3.31 5.79 3.31z" style="fill:#e81c27"/><path d="M13.04 30.08c.71 1.54.88 1.64 2.65 2.25 1.77.61 6.77 1.18 7.26 1.24-.32-.32-5.95-4.49-7.11-5.33-1.16-.83-1.48-1.21-1.48-1.21s-1.04-1.88-1.4-2.43c-.36-.55-1.02-1.33-1.89-1.33-.87 0-1.4.51-1.66 1.42-.14.04-.89.49-.86.96.21-.03 1.57-.4 2.03 1.12.47 1.53.5 4.04.01 5.27-.48 1.24-1.23 2.17-1.23 3.26 0 .15.1.45.35.45.09.48.8 3.91.8 3.91H20.6l1.6-6.19" style="fill:#ffe000"/><path d="M13.04 30.08c.71 1.54.88 1.64 2.65 2.25 1.77.61 6.77 1.18 7.26 1.24-.32-.32-5.95-4.49-7.11-5.33-1.16-.83-1.48-1.21-1.48-1.21s-1.04-1.88-1.4-2.43c-.36-.55-1.02-1.33-1.89-1.33-.87 0-1.4.51-1.66 1.42-.14.04-.89.49-.86.96.21-.03 1.57-.4 2.03 1.12.47 1.53.5 4.04.01 5.27-.48 1.24-1.23 2.17-1.23 3.26 0 .15.1.45.35.45.09.48.8 3.91.8 3.91H20.6l1.6-6.19" style="fill:#ffe000"/><path d="M20.61 39.78H10.53c-.05 0-.09-.03-.1-.08-.01-.03-.65-3.15-.79-3.83-.26-.06-.37-.37-.37-.55 0-.74.34-1.42.7-2.14.18-.37.38-.75.54-1.16.46-1.19.46-3.67-.02-5.2-.4-1.32-1.49-1.13-1.85-1.06-.03.01-.06.01-.08.01-.03 0-.06-.01-.08-.02-.02-.02-.04-.04-.04-.07-.03-.51.65-.94.88-1.05.28-.96.87-1.45 1.74-1.45.89 0 1.57.75 1.98 1.37.36.55 1.36 2.35 1.41 2.43 0 0 .34.38 1.45 1.18 1.1.79 6.79 5.01 7.12 5.34.03.03.04.08.02.12a.11.11 0 0 1-.1.06c-.1-.01-.33-.04-.65-.08l-1.58 6.11c-.01.04-.05.07-.1.07zm-10-.2h9.92l1.55-6.01c-1.64-.2-5.03-.67-6.43-1.14-1.77-.61-1.99-.72-2.71-2.3-.02-.05 0-.11.05-.14.05-.02.11 0 .14.05.7 1.51.85 1.6 2.59 2.19 1.54.53 5.61 1.04 6.9 1.2-1.16-.92-5.68-4.27-6.84-5.1-1.15-.83-1.48-1.21-1.5-1.23-.02-.04-1.05-1.9-1.41-2.44-.31-.48-.96-1.28-1.81-1.28-.8 0-1.3.44-1.56 1.35-.01.04-.04.06-.07.07-.11.03-.68.38-.77.74 1.05-.16 1.72.24 2.02 1.22.48 1.57.49 4.12.01 5.34-.16.42-.35.81-.54 1.18-.36.72-.67 1.34-.67 2.04 0 .1.07.35.25.35.05 0 .09.03.1.08.08.44.67 3.3.78 3.83z" style="fill:#1a1626"/><path d="M9.73 35.77s2.15-.12 2.73-.12c.58 0 6 .01 9.01.71" style="fill:#ffe000"/><path d="M21.47 36.45h-.02c-2.89-.67-8-.7-8.99-.7-.57 0-2.7.12-2.73.12-.06 0-.1-.04-.11-.1 0-.06.04-.11.1-.11.09-.01 2.16-.12 2.74-.12 1 0 6.13.03 9.04.71.05.01.09.07.08.12-.02.05-.06.08-.11.08z" style="fill:#1a1626"/><path d="M10.49 35.73s-.21-.26-.08-.78c.14-.52 1.66-1.86 1.66-3.75" style="fill:#ffe000"/><path d="M10.49 35.83a.09.09 0 0 1-.08-.04c-.01-.01-.25-.31-.1-.87.05-.17.2-.39.42-.7.49-.69 1.23-1.73 1.23-3.03 0-.06.04-.1.1-.1.06 0 .1.04.1.1 0 1.37-.77 2.44-1.27 3.15-.19.26-.35.49-.39.63-.12.45.05.68.06.69.03.04.03.11-.02.14 0 .02-.03.03-.05.03z" style="fill:#1a1626"/><path d="M11.79 35.65s-.17-.85 1.76-1.57c.54-.17 2.1-1.04 2.15-1.75" style="fill:#ffe000"/><path d="M11.79 35.75c-.05 0-.09-.03-.1-.08-.01-.04-.17-.94 1.82-1.68.58-.18 2.04-1.03 2.08-1.66 0-.05.05-.09.1-.09h.01c.06 0 .1.05.1.11-.06.78-1.67 1.67-2.22 1.84-1.8.67-1.69 1.44-1.69 1.45.01.06-.03.11-.08.12-.01-.01-.02-.01-.02-.01z" style="fill:#1a1626"/><path d="M13.34 34.16s4.74.02 8.5.78" style="fill:#ffe000"/><path d="M21.84 35.04h-.02c-3.7-.75-8.43-.78-8.48-.78a.1.1 0 0 1 0-.2c.05 0 4.79.03 8.52.78.06.01.09.06.08.12-.01.05-.05.08-.1.08z" style="fill:#1a1626"/><path d="M14.53 33.59s1.63.06 1.9-.02.74-.27.92-.83" style="fill:#ffe000"/><path d="M15.62 33.71c-.48 0-1-.02-1.09-.02-.06 0-.1-.05-.1-.11s.05-.1.1-.1c.65.02 1.68.04 1.86-.02.3-.09.7-.29.85-.76.02-.05.08-.09.13-.07.05.02.08.08.06.13-.15.44-.49.75-.99.9-.1.05-.45.05-.82.05z" style="fill:#1a1626"/><path d="M15.5 33.61s.87-.46 1.04-1.04" style="fill:#ffe000"/><path d="M15.5 33.71c-.04 0-.07-.02-.09-.06-.03-.05-.01-.11.04-.14.01 0 .84-.44.99-.98.02-.05.07-.09.13-.07.05.01.09.07.07.13-.18.62-1.06 1.08-1.09 1.1-.02.02-.04.02-.05.02z" style="fill:#1a1626"/><path d="M12.87 39.68s-.37-2.58-.45-4.03l.97.93 1.03-.9.89.94 1.02-.87.88.99 1.01-.86.81.94 1.01-.73 1.2 1.14" style="fill:#ffe000"/><path d="M12.87 39.78c-.05 0-.09-.04-.1-.09 0-.03-.38-2.61-.45-4.04 0-.04.02-.08.06-.1.04-.02.08-.01.11.02l.91.86.96-.84c.04-.04.1-.03.14.01l.82.87.95-.81c.04-.04.1-.03.14.01l.82.92.94-.8c.04-.04.11-.03.14.01l.74.87.94-.68c.04-.03.1-.02.13.01l1.2 1.14c.04.04.04.1 0 .14-.04.04-.1.04-.14 0l-1.14-1.08-.94.68c-.04.03-.1.02-.14-.02l-.74-.86-.94.8c-.04.03-.11.03-.14-.01l-.82-.92-.95.81c-.04.03-.1.03-.14-.01l-.82-.87-.95.83c-.04.04-.1.03-.14 0l-.78-.75c.1 1.45.43 3.74.43 3.76.01.06-.03.11-.09.12 0 .02-.01.02-.01.02z" style="fill:#1a1626"/><path d="M21.03 38.05c-3.61-.52-8.44-.48-8.44-.48" style="fill:#ffe000"/><path d="M21.03 38.15h-.01c-3.56-.51-8.38-.48-8.43-.48a.1.1 0 0 1 0-.2c.04 0 4.88-.03 8.46.48.06.01.09.06.09.12-.01.05-.06.08-.11.08z" style="fill:#1a1626"/><path d="M10.91 28.63s2.94-1.4 3.45-1.6" style="fill:#ffe000"/><path d="M10.91 28.73c-.04 0-.07-.02-.09-.06-.02-.05 0-.11.05-.14.12-.06 2.95-1.41 3.46-1.6.05-.02.11.01.13.06.02.05-.01.11-.06.13-.51.19-3.42 1.58-3.45 1.6-.01.01-.02.01-.04.01z" style="fill:#1a1626"/><path d="m12.5 36.67.98.9.9-.89.9.93.97-.86.9.94 1.01-.83.83.96 1-.77 1.06.93" style="fill:#ffe000"/><path d="M21.05 38.08c-.02 0-.05-.01-.07-.03l-1-.88-.94.72c-.04.03-.11.03-.14-.01l-.75-.88-.93.77c-.04.03-.1.03-.14-.01l-.83-.87-.9.8c-.04.04-.11.03-.14-.01l-.83-.86-.82.82c-.04.04-.1.04-.14 0l-.99-.9c-.04-.04-.04-.1-.01-.15.04-.04.1-.04.14-.01l.92.83.82-.82c.02-.02.05-.03.07-.03.03 0 .05.01.07.03l.83.86.9-.8c.04-.04.1-.03.14.01l.83.88.94-.77c.04-.03.11-.03.14.01l.78.9.93-.71c.04-.03.09-.03.13 0l1.06.93c.04.04.05.1.01.15-.02.02-.05.03-.08.03z" style="fill:#1a1626"/><path d="M15.3 34.57c.22 0 .39.18.39.39 0 .22-.17.39-.39.39s-.39-.17-.39-.39c0-.21.17-.39.39-.39z" style="fill:#ffe000"/><path d="M15.3 35.46c-.27 0-.5-.22-.5-.5 0-.27.22-.49.5-.49.27 0 .49.22.49.49 0 .28-.22.5-.49.5zm0-.79a.29.29 0 1 0 0 .58.29.29 0 0 0 0-.58z" style="fill:#1a1626"/><path d="M16.95 34.68c.21 0 .39.18.39.39a.39.39 0 0 1-.78 0c0-.21.18-.39.39-.39z" style="fill:#ffe000"/><path d="M16.95 35.57c-.27 0-.49-.22-.49-.5a.49.49 0 0 1 .98 0c.01.28-.22.5-.49.5zm0-.78a.29.29 0 1 0 .29.29c0-.17-.13-.29-.29-.29z" style="fill:#1a1626"/><path d="M10.8 24.19c.17 0 .3.14.3.3 0 .17-.13.3-.3.3a.3.3 0 0 1-.3-.3c-.01-.17.13-.3.3-.3z" style="fill:#ffe000"/><path d="M10.8 24.9c-.22 0-.4-.18-.4-.41 0-.22.18-.41.4-.41.22 0 .4.18.4.41 0 .22-.18.41-.4.41zm0-.61a.2.2 0 0 0-.2.2c0 .11.09.2.2.2a.2.2 0 0 0 .2-.2.2.2 0 0 0-.2-.2z" style="fill:#1a1626"/><linearGradient id="a" x1="32" x2="32" y1="62" y2="2" gradientUnits="userSpaceOnUse"><stop offset="0" style="stop-color:#1a1a1a"/><stop offset=".102" style="stop-color:#393939;stop-opacity:.949"/><stop offset=".347" style="stop-color:#7f7f7f;stop-opacity:.8262"/><stop offset=".569" style="stop-color:#b6b6b6;stop-opacity:.7156"/><stop offset=".758" style="stop-color:#dedede;stop-opacity:.6209"/><stop offset=".908" style="stop-color:#f6f6f6;stop-opacity:.5459"/><stop offset="1" style="stop-color:#fff;stop-opacity:.5"/></linearGradient><circle cx="32" cy="32" r="30" style="opacity:.1;fill:url(#a)"/></svg>