<svg xmlns="http://www.w3.org/2000/svg" xml:space="preserve" style="enable-background:new 0 0 64 64" viewBox="0 0 64 64"><path d="M62 32C62 15.43 48.57 2 32 2v60c16.57 0 30-13.43 30-30z" style="fill:#fcfcfc"/><path d="M2 32c0 16.57 13.43 30 30 30V2C15.43 2 2 15.43 2 32z" style="fill:#fff300"/><path d="M57.1 40.67c.46-.71.64-1.59.49-2.42-.07-.39-.21-.77-.42-1.12-.26-.45.36-.55.12-1.11a.7.7 0 0 0-.88-.37c-.16.06-.28.17-.36.32-.27-.18-.57-.32-.88-.41-.91-.27-1.92-.13-2.73.37-.12-.53-.62-.2-.83-.59-.3-.58-.88-1-1.34-1.45-.25-.25-.88-1.23-1.21-1.26 0 0-.83.05-.57-.17l.68-.59c.18-.16 1.05.31 1.45.22.88-.2 1.8-.61 2.22-1.44.24.21 1.06 1.22 1.41.91.5-.44 1.27-.83 1.11-1.59.32.37.62.02.9-.19.22-.17 1.1-.64 1.1-.99.2-.57-.67-2.31-1.19-1.53-.01-.58-.12-.72-.52-1.14.31-.33.83-.12.98-.7.03-.13-.15-.97.19-.97.83 0 .83-1.28 0-1.28-.58 0-.52.63-.98.83-.42.18-.91-.24-1.13.5-.1.33-.47.54-.74.77-.46.4-.93.8-1.39 1.19-.12-.38-1.1-2.31-.31-2.09.31.08.68.54.96.57.33.25.68-.54.79-.72.24-.37.53-.63.09-.97-.26-.2-.58-.42-.9-.53-1.01-.36-2.35-.02-2.83.99-.45-.46.23-.93-.14-1.31.2-.05.45-.15.36-.42-.04-.09-.09-.18-.14-.27.1-.23.42-.51.27-.8-.17-.31-.45-.02-.66-.27-.21-.25.01-.37-.15-.65-.11-.19-.06-.38-.17-.54a.634.634 0 0 0-.23-.16c.09-.29.18-.57.25-.87.19-.85-.57-.51-.86-.03-.24-.38-.55-.68-.94-.88-.58-.31-.07-.51-.47-.88.57-.12.42-.87-.12-.87.23-.66-1.03-.66-.8 0-.54 0-.69.75-.12.87-.19.18-.12.53-.19.74-.51.22-.91.54-1.21 1-.18-.24-1-.95-.91-.13.04.36.19.7.29 1.05-.33.11-.25.45-.38.69-.12.23.05.42-.12.62-.21.25-.55.02-.71.31-.23.41.35.59.12 1.02-.14.27-.03.62.32.54-.25.43.36.8-.09 1.25-.45-.95-1.57-1.25-2.54-1.06-.36.04-.75.27-1.04.49-.44.34-.44.48-.15.92.13.2.44.92.74.92.22 0 .61-.37.82-.48 1.22-.73.14 1.48-.01 1.94-.61-.52-1.21-1.04-1.81-1.55-.34-.29-.39-.84-.89-.94-.57-.11-.69.19-.94-.4-.39-.91-1.75 0-1.04.7.16.16.4.08.5.26.19.34.16.34.13.69-.06.8.9.5.97.88.02.11-.37.38-.42.49-.13.15-.07.49-.07.67-.31-.47-.64.03-.87.27-.37.39-.32.68-.32 1.21 0 .47 1.6 1.68 2 1.23-.16.74.56 1.1 1.04 1.53.44.39 1.14-.55 1.46-.84.43.83 1.35 1.22 2.21 1.43.3.07 1.36-.31 1.39-.29l.69.6c-.49-.23-1.79 1.56-2.14 1.89-.34.32-.7.63-.92 1.05-.21.4-.71.06-.83.59a3.37 3.37 0 0 0-2.42-.44c-.42.08-.83.25-1.19.49a.7.7 0 0 0-.87-.32.688.688 0 0 0-.08 1.22 3.4 3.4 0 0 0-.31.52c-.35.75-.43 1.61-.19 2.4.13.44.5.71.2 1.02-.25.26-.25.69.01.95.25.25.66.26.93.03.31-.27.56.1.95.25.81.3 1.73.29 2.52-.06.56-.24.35.26.93.26.32 0 .59-.23.66-.54.31.25 1.4.67 1.77.53.16.14.73.27.92.2.1.07.65.24.78.22-.23.33-.03 1.32-.08 1.72-.04.3.13.3.01.58-.1.26.01.44-.09.72-.24.69-.86 2.05-.28 2.77.36.44 1.18.34 1.6.1.31-.09.09-.32.45-.39.25-.05.41-.13.46-.38.09-.47.11-1.01-.04-1.47-.11-.34-.16-.65-.27-.99-.1-.32.08-.64-.18-.92.28-.45-.03-1.22.1-1.7.25.03.89-.11 1.12-.21.75-.31 1.59-.4 2.35-.72.18.59 1.02.65 1.27.07a3.383 3.383 0 0 0 3.63-.22c.08.14.2.25.35.31.82.3 1.32-.89.55-1.25zm-5.83-10.62c.17-.17.2-.1.42-.17.03.47-.47.73-.9.66.28 0 .58-.17.48-.49zm-1.67-4.12c.07-.28.47-.91.62-1.04-.04.74.26 1.86.67 2.5.39.9-.32.41-.58 1.01-.17.38-.56.46-.78.81-.35-.6-.39-1.53-.38-2.2.63-.31.33-.6.45-1.08zm-6.55 4.62c-.4-.03-.78-.24-.75-.68.17.06.45.01.41.27-.04.27.28.39.49.39-.05.01-.1.01-.15.02zM44.78 28c-.07.4-.11.85-.32 1.21-.17-.29-.64-.39-.73-.69-.19-.61-1.02-.27-.67-1.06.1-.22.19-.45.27-.68.12-.3.26-.64.3-.96.06-.25.03-.74.13-.95.33.26.53.93.58 1.36.04.37.49.66.49.87.01.31-.02.6-.05.9zm-6.15 9.02c.34 0 .63.24.71.56-.19.2-.21.51-.06.74-.52-.35-.79.43-1.22-.11-.39-.47-.03-1.19.57-1.19zm.01 3.65a.75.75 0 0 1-.7-.99c.3-.84.83-.01 1.34-.37-.17.24-.14.58.07.78-.07.34-.37.58-.71.58zm1.14-1.61c-.13 0-.25.04-.35.11.14-.2.15-.47.01-.68.21.14.51.13.71-.02-.16.22-.15.53.02.74a.597.597 0 0 0-.39-.15zm1.17-2.07c.5 0 .87.51.7.99-.31.86-.86-.03-1.37.36.16-.23.14-.54-.04-.75.05-.34.36-.6.71-.6zm.01 3.7c-1.06 0-.35-.94-.71-1.4.49.41.84-.34 1.28.18.4.48.05 1.22-.57 1.22zm7.92-4.72c.03.03.25.24 0 0 .37.36.74.71 1.21.91.46.19.26.74.92.79-.13.35-.21.73-.21 1.11-.13-.23-.52-.6-.7-.81-.21-.24-.36-.53-.57-.76-.27-.3-.8-1.02-.86-1.43.08.06.15.13.21.19zm-5.41 1.52c-.02.03-.04.05 0 0 .07-.07.03-.03 0 0a.71.71 0 0 0 .15-.52c.29-.06.54-.21.79-.37.52-.35.94-.87 1.41-1.29-.35.5-.87 1.18-1.07 1.76-.21.6-.96 1.65-1.57 1.9.02-.44-.05-.88-.21-1.29.2-.01.36-.07.5-.19zm2.68 2.87c.01.38.12.92-.02 1.27-.23-.12-.83-.27-1.09-.27-.29 0-.8-.26-1.07-.14-.15-.11-.95-.54-1.11-.54-.31 0-.03-.41.09-.41.75-.08 1.47-1.11 1.95-1.6.25-.26.43-.69.62-1 .15-.25.43-.93.66-1.07.03.36-.12.73 0 1.11-.13.16-.05 1.22.03 1.42-.19.21-.07.95-.06 1.23zm1.01-9.09c-.37.14-.63-.29-.87-.52-.43-.41-.19-.48.01-1.03.27-.74.22-1.64.25-2.42.29.03.59.03.88 0 .02.66.02 1.33.14 1.99.02.14.47 1.14.42 1.19-.28.27-.56.53-.83.79zm3.38 9.78c-.19-.03-.61.1-.79.18-.19.09-.51.23-.71.23-.24 0-1 .07-1.2.21.05-.23.07-1.11-.06-1.32.11-.21.13-1.34.01-1.53.09-.2.12-1.26 0-1.44.14-.27.1-.85.07-1.16.34.73.79 1.7 1.32 2.31.38.44.77.84 1.15 1.3.16.19.39.09.58.21.12.08.37.64.44.64-.13.01-.72.26-.81.37zm4.82-4.03c.79 0 .97 1.09.3 1.39-.01.02-.04.04-.12.06a.604.604 0 0 0-.82-.15c.15-.23.12-.54-.06-.74.07-.32.36-.56.7-.56zm-3.02.48c.13-.39.57-.6.96-.46.6.22.31.54.31.96 0 .13.04.25.11.35a.622.622 0 0 0-.84.11.752.752 0 0 1-.54-.96zm.68 3.19c-.51 0-.87-.52-.69-1 .32-.87.9.03 1.41-.4-.37.46.35 1.4-.72 1.4zm.8-1.48a.6.6 0 0 0 .02-.73c.2.15.5.16.71.02-.13.21-.13.48.01.68a.616.616 0 0 0-.74.03zm1.53 1.46c-.34 0-.64-.25-.71-.57.21-.21.24-.54.07-.78.49.35.8-.36 1.22.16.38.47.02 1.19-.58 1.19z" style="fill:#1a1626"/><path d="M45.09 26.86c.31.08.75.07 1.02.2.07.03.29-.02.29.07l-.03.76c-.04.99-.2 1.9-.78 2.73-.3-.26-.6-.52-.91-.78-.34-.29.06-.55.18-.95.19-.65.26-1.37.23-2.03zm-1.39 3.71c.34.29.67.59 1.01.88-.9.87-3.37.04-2.67-1.36.14.68 1.18.93 1.66.48z" style="fill:#fcfcfc"/><path d="M42.1 24.11c.66 1.23-.82 2.9-.99 4.16-.11.83-.1 1.78.4 2.5.4.58 1.04.77 1.68.99-1.69-.83-1.1-2.6-.52-4.01.33-.78.88-1.69.67-2.56-.11-.45-.61-1.55-1.24-1.08z" style="fill:#f0f0f0"/><path d="M43.39 25.77c.18-.68.26-1.56-.17-2.17-.55-.78-1.87-.99-2.67-.49.16.26.59 1.27.86 1.13 1.07-.56 1.94.54 1.98 1.53z" style="fill:#fcfcfc"/><path d="M40.56 23.12c-.09.05-.76.42-.7.51l.74 1.13c.21-.18.44-.33.68-.46-.24-.4-.48-.79-.72-1.18z" style="fill:#fff300"/><path d="M48.9 26.86c-.31.08-.75.07-1.02.2-.07.03-.29-.02-.29.07l.03.76c.04.99.2 1.9.78 2.73.3-.26.6-.52.91-.78.34-.29-.06-.55-.18-.95-.19-.65-.26-1.37-.23-2.03zm1.39 3.71c-.34.29-.67.59-1.01.88.9.87 3.37.04 2.67-1.36-.14.68-1.18.93-1.66.48z" style="fill:#fcfcfc"/><path d="M51.89 24.11c-.66 1.23.82 2.9.99 4.16.11.83.1 1.78-.4 2.5-.4.58-1.04.77-1.68.99 1.69-.83 1.11-2.6.52-4.01-.33-.78-.88-1.69-.67-2.56.1-.45.6-1.55 1.24-1.08z" style="fill:#f0f0f0"/><path d="M50.59 25.77c-.18-.68-.26-1.56.17-2.17.55-.78 1.87-.99 2.67-.49-.16.26-.59 1.27-.86 1.13-1.07-.56-1.94.54-1.98 1.53z" style="fill:#fcfcfc"/><path d="M53.8 23.33c-.52-.54-.85.57-1.09.96.24.12.47.28.68.46.26-.4 1.11-1.15.41-1.42z" style="fill:#fff300"/><path d="M49.75 22.94c-.01-.51.21-.96.37-1.45.11-.34-.48-.5-.59-.79-.18-.49-.37-.98-.55-1.47-.49-1.33-1.69-2.19-3.05-1.38-.88.52-1.12 1.9-1.44 2.79-.3.33-.73.54-.58.99.18.56.36 1.11.51 1.68.1.37-.74.65-.58.88.38.52.76 1.05 1.13 1.57.25.35 2.69-.18 3.14-.22.25-.02.74.04.92-.16.4-.43.8-.85 1.2-1.28-.48-.45-.47-.5-.48-1.16z" style="fill:#fcfcfc"/><path d="M47 25.71c1.32 0 2.39.32 2.39.71 0 .39-1.07.71-2.39.71s-2.39-.32-2.39-.71c0-.39 1.07-.71 2.39-.71z" style="fill:red"/><path d="M50.36 23.97c-.44-.06-.32.47-.76.32-.28-.22-.26.58-.33.62-.27.18-.68-.23-.49-.5.13-.19-.13-.27-.27-.24-.3.06.08.28-.15.44-.3.21-.79.25-.98-.08.63-.13.13-.79-.02-.65.42-.61-1.16-.6-.73 0-.14-.14-.67.51-.02.65-.14.3-.58.27-.83.17-.4-.16-.01-.46-.3-.53-.31-.06-.37.18-.14.36-.06.23-.53.58-.69.29-.05-.09.13-.28.03-.36-.21-.44-.56.19-.73-.41-.09 0-.35-.25-.35.01 0 .22.3.81.6.68 0 .64.53.94.42 1.58.41-.53 1.69-.46 2.27-.47.62-.01 2.05-.1 2.49.47-.03-.19-.06-.38.02-.55.08-.17.36-.4.41-.55.05-.14-.06-.35 0-.49.23.02.75-.55.55-.76 0 0 .16.17 0 0z" style="fill:#fff300"/><path d="M49.96 23.2c.02-.4.32-.58-.12-.92-.37.48-.83-.11-1-.44-.33.28-.8.46-1.2.21.2-.24.31-.52.01-.73-.28-.18-.26-.51-.65-.6-.18.04-.53.23-.4.47-.4.16-.65.52-.24.85-.46 0-.81.11-1.2-.21-.17.33-.64.88-1 .44-.52.41.07 1.07-.41 1.67.33.23.7-.11.99-.27.83-.47 1.6-.3 2.49-.29.81.01 1.42-.02 2.2.3.28.12.59.5.82.26-.18-.27-.3-.42-.29-.74z" style="fill:#fff300"/><path d="M44.11 21.6c-.02-.13-.44-.89-.65-.56-.09.14.26.51.3.65.04.17-.32.39-.22.53-.05-.07.68.05.7.05.45.04.35-.67-.13-.67zm6.33-.59c-.29.01-1.49 1.29-.62 1.29.46 0 .62-.15.42-.51-.09-.14.47-.79.2-.78-.33.01.34-.01 0 0z" style="fill:#fff300"/><path d="M49.72 20.36c.1-.32-.26-.8-.45-.95-.03-.2.47-1.19.29-1.29-.21-.13-.4.45-.5.54-.11.1-.25.01-.33.17-.1.21.18.11.15.25-.05.22-1.15.09-1.48.07-.03-.19.73-.65-.02-.65-.5 0 .31-.55-.39-.59-.7.03.11.59-.39.59-.75 0 .01.46-.02.65-.33.02-1.43.15-1.48-.07.04-.07.08-.14.13-.21.1-.19-.19-.14-.28-.23-.09-.09-.35-.63-.53-.52-.33.19.69 1.27.11 1.42-.09.02-.51 1.68-.6 1.6.15.12.78-.29.92-.36.63-.31 1.45-.32 2.14-.32.69 0 1.56-.01 2.18.34.1.05 1.01.59.84.19-.1-.23-.39-.35-.29-.63zm-3.13-3.48c-.03.1 0 .18.09.23.19.16-.1.2-.15.32-.09.23.39.09.53.09.61-.01.21.08.18-.3-.01-.15.23-.15.15-.34-.07-.18-.34-.15-.4-.33-.06.19-.33.16-.4.33-.02.04.07-.16 0 0zm.4-1.38c-.27.14-.11.23 0 .44.11-.21.28-.3 0-.44zm-.61.83c.09.1.61.22.61.22s1.12-.24.49-.51c-.15-.07-1.38-.02-1.1.29z" style="fill:#fff300"/><path d="M41.2 27.69c.04-.15.36-.77.26-.85l-.83-.71c-.34-.29-1.16-1.31-1.6-1.37-.26.05-1.16.58-.77.94.44.4.44.34.05.78-.41.47-.04 1.58-.8.81-.46.49-1.05 1.16-.35 1.71.37.29.75.58 1.12.88.06.05.39-.26.46-.31.12-.09.04-.42.03-.57.14.08.29.16.43.24-.39.51-.53 1.03-.02 1.47.11.1.6.67.75.66.19-.01.65-.57.79-.7.13-.12.54-.35.49-.54-.07-.26-.13-.51-.14-.78-.03-.56 0-1.12.13-1.66.03-.14-.05.2 0 0zm9.96 7.4c-.64-.8-1.51-1.38-2.12-2.22-.31.29-.32.47-.65.17-.23-.21-.46-.42-.7-.63-.43-.38-.86-.77-1.29-1.15-1.27-1.12-2.54-2.25-3.8-3.37-.06.14-.59 1.21-.46 1.32.17.15.34.29.51.44.74.64 1.48 1.29 2.22 1.93.96.83 1.9 1.67 2.8 2.56-.11.06-.17.2-.28.26.85.57 1.47 1.43 2.32 1.99 1.08.71 2.35-.17 1.45-1.3-.34-.42.34.42 0 0zm3.07.58c-4.09 0-4.09 6.34 0 6.34s4.08-6.34 0-6.34zm.58.7c-.23.12-.4.31-.54.54-.12-.24-.31-.39-.54-.54.34-.15.73-.11 1.08 0zm-3.05 2.96c-.11-.34-.15-.74 0-1.07.14.22.29.42.54.54-.23.12-.42.3-.54.53zm1.87 1.96c.22-.14.42-.29.54-.54.13.22.3.42.54.54-.35.11-.74.15-1.08 0zm1.73-.35c-.56 0-1.15-.57-.83-1.06.33-.5-.66-.8-.66-.19 0 .31.23.18.12.55-.09.33-.36.59-.69.68a.998.998 0 0 1-1.25-.96c0-.6.61-1.17 1.11-.83.51.35.82-.65.2-.65-.38 0-.16.34-.59.21-.32-.1-.58-.36-.67-.69a.998.998 0 0 1 .96-1.25c.55 0 1.16.57.86 1.08-.3.5.67.77.67.17 0-.33-.26-.17-.13-.55.1-.31.36-.55.67-.64a1 1 0 0 1 1.24.96c0 .61-.61 1.17-1.07.79-.49-.4-.86.64-.22.64.37 0 .17-.31.58-.19a1 1 0 0 1 .66.68c.16.62-.32 1.25-.96 1.25zm.83-2.06c.24-.12.39-.31.54-.54.15.34.11.73 0 1.07-.12-.23-.32-.4-.54-.53z" style="fill:#ccc"/><path d="M39.04 24.57c-.18-.6-1.11-.12-1.53-.58.18-.34-.2-.72-.53-.52-.41.24-.1.86.34.7.5.44.19.74.3 1.18.06.24.29.39.53.33.15-.04.11-.3.18-.44.13-.31.79-.4.71-.67-.03-.1.01.06 0 0zm12.47 11.24c.01.25-.13.47-.29.64-.06.07-.57.28-.58.3-.23.46.31.84.73.66.11-.05.83-.97.84-1.1.07-.55-.25-.51-.7-.5.01.2 0 0 0 0zm5.16.04c.56 0 .56.86 0 .86s-.56-.86 0-.86c.24 0-.24 0 0 0zm.15 5c.56 0 .56.86 0 .86s-.56-.86 0-.86c.23 0-.24 0 0 0zm-4.86.28c.56 0 .56.86 0 .86-.55.01-.55-.86 0-.86.24 0-.24 0 0 0zm5.15-13.18c-.21-.22-.42-.44-.62-.66-.39.39-.55.42-.57-.18-.01-.5-.28-.65-.62-1.01.26-.23.55-.34.44-.72-.05-.17-.53-.83-.78-.62-.43.37-.87.74-1.3 1.11-.23.19-1.09.7-1.16 1-.05.18.3.78.34.99.04.21.07.39.08.6.04.49-.04.94-.05 1.42-.01.29-.18.28.06.48.3.26.59.53.89.79.45.4.73-.19 1.13-.55.43-.38.15-.98-.15-1.36.14-.08.29-.16.43-.24-.02.45-.06.5.3.76.29.21.47-.1.73-.31l.84-.66c.1-.08.01-.69.01-.84zm-5.39.78c-.1-.28-.21-.56-.33-.84l-3.69 3.27c-.42.37-.84.75-1.26 1.12-.24.21-.47.43-.71.64-.42.38-.37.33-.77-.05-.57.8-3.2 2.46-2.18 3.58 1.02 1.11 3.05-1.55 3.81-2.05-.11-.05-.17-.2-.28-.26.82-.81 1.66-1.57 2.53-2.32.72-.62 1.43-1.24 2.15-1.86.52-.45.96-.55.73-1.23-.08-.23.05.16 0 0zm-11.95 6.94c-4.09 0-4.09 6.34 0 6.34s4.09-6.34 0-6.34zm.49.7c-.22.14-.42.29-.54.54-.13-.22-.3-.42-.54-.54.35-.11.75-.15 1.08 0zm-2.98 3.05c-.11-.34-.15-.74 0-1.07.14.22.29.42.54.54-.23.12-.43.29-.54.53zm2.02 1.87c.23-.12.4-.32.54-.54.12.24.31.39.54.54-.35.15-.74.11-1.08 0zm1.66-.33c-.56 0-1.17-.58-.87-1.1.29-.5-.67-.76-.67-.17 0 .34.28.17.15.57-.1.32-.36.57-.68.65-.62.17-1.24-.32-1.24-.96 0-.58.59-1.16 1.07-.82.5.36.82-.65.2-.65-.4 0-.15.37-.59.23a.98.98 0 0 1-.66-.68c-.17-.62.32-1.25.96-1.25.54 0 1.14.55.84 1.04-.31.5.66.78.66.18 0-.32-.24-.17-.13-.55.1-.32.36-.58.68-.67.62-.17 1.25.32 1.25.96 0 .6-.61 1.17-1.09.81-.5-.38-.84.64-.21.64.36 0 .18-.3.59-.19.33.09.6.36.69.69.17.63-.31 1.27-.95 1.27zm.75-2.17c.24-.12.39-.31.54-.54.15.34.11.73 0 1.07-.13-.22-.32-.4-.54-.53z" style="fill:#fff300"/><path d="M56.82 23.42c-.38 0-.47 1.19-1.11.85-.31-.16-.78.01-.76.41.01.1.71.41.79.75.09.37.53.35.64-.08.08-.3-.17-.34-.03-.6.14-.25.2-.56.46-.56.52.01.52-.77.01-.77-.21 0 .22 0 0 0zM42.49 35.81c-.01.25.13.47.29.64.06.07.57.28.58.3.23.46-.31.84-.73.66-.11-.05-.83-.97-.84-1.1-.07-.55.25-.51.7-.5-.01.2 0 0 0 0zm-5.16.04c-.56 0-.56.86 0 .86s.56-.86 0-.86zm-.15 5c-.56 0-.56.86 0 .86s.56-.86 0-.86zm4.86.28c-.56 0-.56.86 0 .86.55.01.55-.86 0-.86-.24 0 .23 0 0 0z" style="fill:#ccc"/><path d="M47.71 46.08c-.49-.13-.89-.04-.71-.62.39-1.27.91.64.71.62z" style="fill:#fff300"/><path d="M47.34 44.46c.41 0 .41.63 0 .63s-.41-.63 0-.63c.17 0-.18 0 0 0zm-.73.38c.41 0 .41.63 0 .63s-.4-.63 0-.63c.18 0-.17 0 0 0z" style="fill:#fff300"/><path d="M47 46.17c-.42-.01-.97.17-.77-.42.34-.96.86.42.77.42 0 0 .02 0 0 0z" style="fill:#fff300"/><path d="M46.91 31.91c-.03.02-.05.04-.06.07-.04.12.07.23.21.29-.11 0-.21.04-.23.13-.03.14.13.24.29.27-.1.01-.17.04-.19.13-.06.27.57.4.62.14.03-.13-.14-.23-.3-.26.1-.01.19-.05.2-.14.02-.1-.08-.18-.2-.23.09 0 .17-.03.19-.11.04-.11-.08-.22-.22-.28.1-.03.17-.09.17-.18 0-.25-.64-.26-.64-.01.02.09.08.15.16.18zm-1.64 1.28c.04 0 .08-.04.11-.08-.07.14-.07.31.06.34.23.05.44-.48.19-.54-.08-.02-.15.05-.21.13.07-.17.04-.44-.13-.43-.24.03-.27.6-.02.58z" style="fill:#fa0204"/><path d="M45.72 33.79c.27.07.52-.6.22-.67-.28-.06-.51.6-.22.67zm2.47-.64c-.19.16.17.56.35.4.09-.08.05-.22-.04-.32.07.04.15.06.21 0 .19-.16-.17-.56-.35-.4-.09.08-.05.22.04.32-.07-.03-.15-.05-.21 0z" style="fill:#fa0204"/><path d="M43.32 39.84c.15-.01.21-.21.19-.39.03.05.08.08.14.08.15 0 .21-.2.19-.38.03.06.09.1.15.1.15-.01.22-.23.19-.41.03.04.07.07.13.07.16-.01.22-.24.19-.43.03.03.07.06.12.06.18-.01.24-.31.17-.5.03.04.07.07.13.06.18-.01.23-.3.17-.49.02.01.05.02.08.02.17-.01.23-.27.18-.46.04.04.09.06.15.05.15-.03.17-.25.11-.43.04.03.08.05.13.04.17-.04.17-.33.09-.5.06.06.13.1.2.07.14-.06.13-.28.04-.45.06.07.14.12.22.08.14-.06.13-.29.04-.45.02.02.05.03.07.04.06.2.33.42.48.29.12-.11 0-.35-.16-.46.06.01.11.01.16-.03.1-.1.02-.29-.1-.41V35c.07.03.15.04.2-.02.09-.09.04-.24-.06-.36 0 0 0 .01.01.01.15.09.36-.12.4-.3.01.05.02.09.06.12.02.02.05.02.07.02-.19-.01-.47.27-.37.44.04.07.12.07.2.05-.12.1-.2.25-.13.35.04.06.11.07.19.05-.15.09-.28.27-.2.39.05.07.13.07.21.04-.16.08-.3.28-.22.4.03.05.08.06.13.06-.12.1-.2.25-.14.35.05.08.15.08.25.03-.16.08-.31.28-.22.41.03.05.08.06.13.06-.13.1-.23.26-.16.37.04.05.09.07.15.06-.16.09-.3.28-.22.4.06.08.16.08.27.03-.18.1-.34.36-.21.49.2.19.64-.3.44-.49-.05-.05-.12-.05-.19-.02.17-.09.31-.28.22-.41-.04-.06-.11-.07-.19-.06.15-.09.29-.27.2-.39-.03-.05-.08-.06-.13-.06.13-.09.23-.25.16-.36-.05-.08-.15-.08-.25-.03.16-.08.31-.28.23-.41-.03-.05-.08-.06-.13-.06.12-.1.2-.25.13-.35-.05-.07-.13-.07-.21-.04.16-.08.3-.27.22-.4-.04-.06-.11-.07-.19-.05.11-.07.21-.18.22-.29.04.18.12.31.24.19-.1.19-.07.52.12.53.03 0 .06-.01.08-.02-.1.19-.08.53.12.54.03 0 .06-.01.09-.03-.06.19-.02.46.15.47.03 0 .06-.01.09-.02-.08.19-.05.5.13.51.04 0 .07-.01.1-.03-.05.19-.01.44.16.45.05 0 .08-.02.12-.05-.05.19-.01.44.16.45.04 0 .08-.02.11-.04-.07.19-.03.47.15.48.06 0 .11-.03.15-.08-.03.18.01.39.17.4.06 0 .12-.03.15-.09-.06.19-.02.46.15.47.08 0 .13-.05.17-.12-.06.19-.01.45.16.46.03 0 .05-.01.07-.02-.02.12 0 .23.09.27.11.04.22-.05.29-.18-.01.04-.01.08 0 .11 0-.02-.01-.03 0 .01.02.09.01.04 0 0 .04.13.25.24.37.27-.05-.23-.11-.45-.16-.68-.06 0-.11.05-.14.12.02-.12 0-.22-.1-.26-.07-.03-.14 0-.2.06.02-.17-.03-.35-.17-.36-.08 0-.13.05-.17.12.06-.19.01-.45-.16-.46a.18.18 0 0 0-.16.09c.06-.19.02-.46-.15-.47a.19.19 0 0 0-.15.08c.03-.18-.01-.39-.17-.4a.21.21 0 0 0-.11.04c.07-.19.03-.47-.14-.48-.05 0-.09.02-.12.05.05-.19.01-.44-.16-.45-.04 0-.07.01-.1.03.05-.19.01-.44-.16-.45-.03 0-.06.01-.09.02.08-.19.05-.5-.13-.51-.04 0-.07.01-.09.03.06-.19.02-.46-.15-.47-.03 0-.06.01-.08.02.1-.19.08-.53-.12-.54-.03 0-.06.01-.09.02.18-.27-.13-.37-.38-.55 0 .04 0 .21.03.37v.02c0-.01 0-.02-.01-.02-.04-.07-.12-.07-.2-.05.12-.1.2-.24.13-.35-.02-.04-.06-.05-.09-.06.14-.01.29-.24.28-.41.14.07.33.07.37-.07-.01.03-.01.05 0 0s.01-.03 0 0a.18.18 0 0 0-.04-.14c.05.01.11.01.15-.03-.02.02-.04.03 0 0s.02-.02 0 0c.18-.16-.17-.56-.35-.4-.1.08-.05.23.05.33-.13-.04-.29-.03-.33.1 0 .02.01.03.01.05-.14-.02-.29.19-.31.36-.01-.04-.02-.09-.06-.12-.08-.04-.17-.01-.24.05.01-.06 0-.12-.01-.17.01.02.03.04.06.06.22.13.57-.35.33-.48-.16-.12-.44.22-.36.4-.03-.09-.09-.16-.19-.15-.05 0-.08.03-.11.07.01-.16-.05-.34-.2-.32-.03 0-.06.02-.08.04-.02-.15-.09-.27-.22-.25-.28.04-.27.74.03.7a.19.19 0 0 0 .11-.07c.03.1.09.17.19.16.05 0 .08-.03.11-.07-.01.16.05.34.2.32.01 0 .01-.01.02-.01a.19.19 0 0 0 .01.13c-.11-.1-.24-.16-.33-.07-.07.06-.06.16-.01.25-.07-.03-.15-.03-.2.02-.08.08-.05.21.03.32-.07-.03-.15-.04-.21.01-.08.08-.05.2.02.31a.17.17 0 0 0-.1 0c-.14.06-.13.28-.04.45-.06-.07-.14-.12-.22-.08-.15.06-.13.29-.04.46-.04-.04-.09-.07-.15-.05-.15.03-.17.25-.12.43-.04-.03-.08-.05-.13-.04-.15.03-.17.25-.12.42a.161.161 0 0 0-.09-.03c-.18.01-.23.3-.17.49a.188.188 0 0 0-.08-.02c-.18.01-.24.31-.17.5-.03-.04-.07-.07-.13-.06-.16 0-.22.24-.19.43-.03-.03-.07-.06-.12-.06-.16 0-.22.23-.19.41-.03-.04-.07-.07-.13-.06-.15 0-.21.2-.19.38-.03-.06-.08-.1-.15-.1-.15.01-.21.21-.19.38a.16.16 0 0 0-.14-.08c-.26.03-.26.69.01.68z" style="fill:#fa0204"/><path d="M42.93 39.33c-.28 1.11.5.3 0 0zm6.84 2.19c-.02.05-.01.1.01.15-.15-.07-.38-.07-.48-.01-.02.05-.01.11.02.16-.15-.12-.37-.18-.44-.04-.03.05-.02.11.01.16-.14-.15-.41-.24-.5-.08-.02.04-.02.07-.01.11-.13-.12-.32-.2-.41-.08-.05.06-.04.14.01.22-.12-.14-.32-.24-.43-.15-.04-.04-.1-.04-.15-.03.17-.11.31-.35.18-.47-.2-.19-.64.3-.44.49.02.02.04.03.06.03-.05 0-.1.01-.13.05-.02.02-.03.05-.03.08a.338.338 0 0 0-.19-.15c-.06-.2-.33-.42-.47-.29-.06.05-.06.13-.03.21-.02 0-.05 0-.07.02-.05.03-.07.09-.08.15-.08-.17-.23-.31-.36-.23-.05.03-.06.08-.07.13-.07-.18-.24-.33-.37-.25-.05.03-.07.08-.07.13-.08-.16-.23-.3-.36-.22-.06.04-.08.1-.08.17-.09-.13-.26-.23-.36-.23-.23.14.1.71.33.57.06-.04.08-.08.09-.13.08.15.23.27.35.19.05-.03.07-.08.07-.14.08.16.23.3.36.23a.21.21 0 0 0 .07-.13c.07.17.24.33.37.25.05-.03.07-.09.07-.15.02.05.05.1.09.14.04.21.33.46.48.32.05-.05.06-.11.04-.18.07.05.14.07.2.03.03-.02.05-.05.06-.08.04.03.09.04.14.02-.14.12-.23.32-.13.43.04.04.09.04.15.03-.15.12-.27.34-.15.45.2.19.64-.3.44-.49-.04-.04-.09-.04-.15-.03.15-.12.26-.33.15-.44.06.06.01.01 0 0a.19.19 0 0 0 .01-.13c.13.13.33.22.43.1.05-.06.03-.14-.01-.22.13.15.36.26.46.13.04-.05.04-.1.02-.16.15.13.38.19.46.05.03-.05.02-.11-.01-.16.14.15.41.24.5.08.03-.06.02-.13-.02-.19.16.11.4.16.47.01.02-.05.02-.1.01-.14.16.11.39.14.45 0 .14-.25-.45-.54-.56-.29zm-2.5.47s-.01 0-.02-.01h.03c.01 0 0 .01-.01.01z" style="fill:#fa0204"/><path d="M50.7 41.23c-.02.05 0 .11.03.16-.16-.12-.44-.17-.5 0-.1.25.52.5.61.25.02-.05 0-.11-.03-.15.16.12.44.17.5 0 .09-.27-.52-.52-.61-.26z" style="fill:#fa0204"/><path d="M51.15 41.04c-.1.25.52.5.61.25.1-.26-.51-.51-.61-.25z" style="fill:#fa0204"/><path d="M51.64 40.84c-.1.25.52.5.61.25.09-.26-.52-.51-.61-.25z" style="fill:#fa0204"/><path d="M52.79 40.54c.09-.25-.52-.5-.61-.25-.04.11.05.22.18.28-.1-.01-.2.01-.23.1-.09.25.52.5.61.25.04-.11-.05-.22-.18-.28.11.01.2-.01.23-.1z" style="fill:#fa0204"/><path d="M52.06 39.8c0 .12-.02.27.02.38.49.12.34-.3-.02-.38zm-8.01 1.63c-.06.04-.08.1-.08.17-.07-.17-.23-.32-.36-.24-.04.03-.06.07-.07.13-.05-.2-.24-.41-.39-.31-.02.01-.03.03-.04.05-.03-.17-.13-.34-.27-.31-.08.02-.12.1-.13.2-.01-.19-.12-.39-.28-.35-.06.01-.09.06-.12.12-.01-.09-.04-.16-.12-.18-.09-.03-.18.04-.24.13.02-.13-.01-.26-.12-.29-.03-.01-.05 0-.07 0 .04-.11.05-.22.02-.3.14-.15.22-.42.07-.5-.21-.11-.48.33-.38.52-.13.16-.18.45-.01.51.04.01.07.01.1 0-.06.17-.05.37.09.4.09.02.17-.04.22-.13-.02.13.01.25.11.28.13.04.25-.11.3-.28.01.19.12.39.28.35.08-.02.12-.1.13-.2.01.19.13.4.28.36.06-.01.09-.06.11-.12.06.19.24.39.39.3.04-.03.06-.07.07-.12.05.2.24.41.39.31.06-.04.08-.1.08-.17.08.17.24.32.37.24.23-.14-.09-.71-.33-.57zm2.67-4.99c.06.02.12.01.16-.03.19-.18-.25-.68-.44-.49-.13.12.01.37.18.47-.06-.01-.12-.01-.16.03-.2.19.25.67.44.49.12-.11-.02-.36-.18-.47z" style="fill:#fa0204"/><path d="M46.88 38.75c.1-.1.03-.28-.09-.4.01-.01.02-.01.03-.02.1-.09.03-.27-.08-.39.05.01.1 0 .14-.03.13-.13-.03-.39-.21-.49.05.01.11.01.15-.03.19-.18-.24-.68-.44-.49-.13.13.03.39.21.49-.05-.01-.11-.01-.15.03-.1.09-.03.27.08.39-.05-.01-.1 0-.14.03-.1.1-.03.28.09.4-.01.01-.02.01-.03.02-.12.12.01.35.17.47a.175.175 0 0 0-.17.03c-.2.19.25.68.44.49.12-.12-.01-.36-.17-.47.06.02.12.01.17-.03z" style="fill:#fa0204"/><path d="M46.87 40.71c.12-.12-.01-.35-.17-.47.06.01.11.01.15-.03.11-.1.01-.31-.13-.43.04 0 .09 0 .12-.04.19-.18-.24-.68-.44-.49-.11.11-.01.31.13.43-.04 0-.09 0-.12.04-.12.12 0 .35.16.47-.06-.01-.11-.01-.15.03-.12.11 0 .33.15.45-.05-.01-.11-.01-.15.03-.12.11 0 .34.15.45a.175.175 0 0 0-.17.03c-.2.19.25.67.44.49.12-.11 0-.34-.15-.45.06.02.12.01.17-.03.12-.11 0-.33-.15-.45.06.01.12.01.16-.03zm-.06 2.55c.19-.18-.24-.68-.44-.49-.2.19.24.68.44.49z" style="fill:#fa0204"/><path d="M46.81 44.26c.12-.11 0-.33-.15-.45.05.01.11.01.15-.03.19-.18-.24-.68-.44-.49-.12.11 0 .33.15.45-.05-.01-.11-.01-.15.03-.2.19.25.68.44.49z" style="fill:#fa0204"/><path d="M46.8 44.81c.19-.18-.24-.68-.44-.49-.2.19.24.68.44.49zm.33-5.88c.05.04.11.05.17.03-.16.12-.28.35-.16.46.2.19.64-.3.44-.49-.05-.04-.1-.05-.17-.03.16-.12.28-.34.16-.46-.19-.18-.63.31-.44.49z" style="fill:#fa0204"/><path d="M47.58 39.96c-.05-.05-.11-.05-.18-.03.16-.12.28-.35.16-.46-.2-.19-.63.3-.44.49.05.04.12.04.18.02-.16.12-.28.35-.16.46.04.04.1.04.15.03-.16.11-.29.35-.17.47.06.05.14.05.21.01-.18.1-.33.36-.2.49.2.19.64-.3.44-.49-.05-.05-.11-.05-.18-.03.16-.11.3-.35.17-.47a.14.14 0 0 0-.15-.03c.17-.11.3-.35.17-.46zm-.45 3.96c.2.19.64-.3.44-.49s-.64.31-.44.49z" style="fill:#fa0204"/><path d="M47.13 44.44c.2.19.64-.3.44-.49s-.64.3-.44.49zm.27 1.42a.59.59 0 0 0-.53.27.604.604 0 0 0-.54-.03c-.34.14-.46.55-.51.88-.07.51-.16 1.24.39 1.44.26.1.99.14 1.08-.22.12-.5.62-.06.71-.52.1-.52.19-1.78-.6-1.82z" style="fill:#fa0204"/><linearGradient id="a" x1="32.001" x2="32.001" y1="62" y2="2" gradientUnits="userSpaceOnUse"><stop offset="0" style="stop-color:#1a1a1a"/><stop offset=".102" style="stop-color:#393939;stop-opacity:.949"/><stop offset=".347" style="stop-color:#7f7f7f;stop-opacity:.8262"/><stop offset=".569" style="stop-color:#b6b6b6;stop-opacity:.7156"/><stop offset=".758" style="stop-color:#dedede;stop-opacity:.6209"/><stop offset=".908" style="stop-color:#f6f6f6;stop-opacity:.5459"/><stop offset="1" style="stop-color:#fff;stop-opacity:.5"/></linearGradient><circle cx="32" cy="32" r="30" style="opacity:.1;fill:url(#a)"/></svg>