<svg xmlns="http://www.w3.org/2000/svg" xml:space="preserve" style="enable-background:new 0 0 64 64" viewBox="0 0 64 64"><path d="M8 50h48a29.9 29.9 0 0 0 5.4-12H2.6A29.9 29.9 0 0 0 8 50z" style="fill:#ffe000"/><path d="M56 50H8c5.47 7.29 14.19 12 24 12s18.53-4.71 24-12z" style="fill:#007934"/><path d="M2 32c0 2.05.21 4.06.6 6H32V2C15.43 2 2 15.43 2 32z" style="fill:#e81c27"/><path d="M32 2v12h24C50.53 6.71 41.81 2 32 2z" style="fill:#007934"/><path d="M56 14H32v12h29.4A29.9 29.9 0 0 0 56 14z" style="fill:#ffe000"/><path d="M61.4 26H32v12h29.4c.39-1.94.6-3.95.6-6s-.21-4.06-.6-6z" style="fill:#007934"/><path d="M18 27.31 24.8 32l-2.57-7.63L29 19.64l-8.38-.02L18 12l-2.62 7.62-8.38.02 6.77 4.73L11.2 32z" style="fill:#fcfcfc"/><linearGradient id="a" x1="32" x2="32" y1="62" y2="2" gradientUnits="userSpaceOnUse"><stop offset="0" style="stop-color:#1a1a1a"/><stop offset=".102" style="stop-color:#393939;stop-opacity:.949"/><stop offset=".347" style="stop-color:#7f7f7f;stop-opacity:.8262"/><stop offset=".569" style="stop-color:#b6b6b6;stop-opacity:.7156"/><stop offset=".758" style="stop-color:#dedede;stop-opacity:.6209"/><stop offset=".908" style="stop-color:#f6f6f6;stop-opacity:.5459"/><stop offset="1" style="stop-color:#fff;stop-opacity:.5"/></linearGradient><circle cx="32" cy="32" r="30" style="opacity:.1;fill:url(#a)"/></svg>