<svg xmlns="http://www.w3.org/2000/svg" xml:space="preserve" style="enable-background:new 0 0 64 64" viewBox="0 0 64 64"><path d="M32 62c16.57 0 30-13.43 30-30H2c0 16.57 13.43 30 30 30z" style="fill:#e81c27"/><path d="M32 2C15.43 2 2 15.43 2 32h60C62 15.43 48.57 2 32 2z" style="fill:navy"/><path d="m18.09 16.99-.21 7.32H10.7c-.88-1.78-1.61-3.29-1.61-5.33 0-1.71 1.3-3.07 3.17-3.07 1.99 0 4.17.69 5.83 1.08zm1.27 0 .21 7.32h7.18c.88-1.78 1.61-3.29 1.61-5.33 0-1.71-1.3-3.07-3.17-3.07-1.98 0-4.16.69-5.83 1.08zm-.63-8.1-.58 1.13.58 1.13.58-1.13-.58-1.13zm0 2.85-.58 1.13.58 1.13.58-1.13-.58-1.13z" style="fill:#ffe000"/><path d="M18.73 14.12a.11.11 0 0 1-.1-.06l-.58-1.13c-.02-.03-.02-.07 0-.11l.58-1.13c.04-.08.16-.08.2 0l.58 1.13c.02.04.02.08 0 .11l-.58 1.13a.11.11 0 0 1-.1.06zm-.46-1.25.46.88.46-.88-.46-.88-.46.88zm.46-1.61a.11.11 0 0 1-.1-.06l-.58-1.13a.108.108 0 0 1 0-.11l.58-1.13c.04-.08.16-.08.2 0l.58 1.13c.02.03.02.08 0 .11l-.58 1.13a.11.11 0 0 1-.1.06zm-.46-1.24.46.88.46-.88-.46-.88-.46.88z"/><path d="m16.65 11.45.92.6.92-.6-.92-.6-.92.6zm2.32 0 .92.6.92-.6-.92-.6-.92.6z" style="fill:#ffe000"/><path d="M19.89 12.17c-.02 0-.04-.01-.06-.02l-.92-.6a.123.123 0 0 1-.05-.1c0-.04.02-.08.05-.1l.92-.6c.04-.02.08-.02.12 0l.92.6c.03.02.05.06.05.1 0 .04-.02.08-.05.1l-.92.6c-.02.01-.04.02-.06.02zm-.71-.72.71.46.71-.46-.71-.46-.71.46zm-1.61.72c-.02 0-.04-.01-.06-.02l-.92-.6a.123.123 0 0 1-.05-.1c0-.04.02-.08.05-.1l.92-.6c.04-.02.08-.02.12 0l.92.6c.03.02.05.06.05.1 0 .04-.02.08-.05.1l-.92.6c-.02.01-.04.02-.06.02zm-.71-.72.71.46.71-.46-.71-.46-.71.46z"/><path d="M18.73 11c.24 0 .44.2.44.46 0 .25-.2.46-.44.46s-.44-.2-.44-.46c0-.25.19-.46.44-.46z" style="fill:#ffe000"/><path d="M18.73 12.03a.57.57 0 0 1-.56-.58c0-.32.25-.57.56-.57.31 0 .56.26.56.57-.01.33-.25.58-.56.58zm0-.91c-.18 0-.33.15-.33.34s.15.34.33.34c.18 0 .33-.15.33-.34s-.15-.34-.33-.34z"/><path d="M18.73 13.15c.65 0 1.18.55 1.18 1.22 0 .68-.53 1.22-1.18 1.22-.65 0-1.19-.55-1.19-1.22 0-.67.53-1.22 1.19-1.22z" style="fill:#ffe000"/><path d="M18.73 15.72c-.72 0-1.3-.6-1.3-1.34 0-.74.58-1.34 1.3-1.34.71 0 1.3.6 1.3 1.34-.01.74-.59 1.34-1.3 1.34zm0-2.45c-.59 0-1.07.5-1.07 1.11 0 .61.48 1.11 1.07 1.11.59 0 1.07-.5 1.07-1.11 0-.61-.48-1.11-1.07-1.11z"/><path d="M19.88 14.77h-.02c-.75-.13-1.52-.13-2.26 0-.06.01-.09-.02-.1-.07-.01-.05.02-.09.07-.1a6.95 6.95 0 0 1 2.32 0c.05.01.08.05.07.1-.01.04-.04.07-.08.07zm-.01-.62h-.01c-.27-.05-.55-.08-.83-.09-.04 0-.08-.04-.08-.09v-.78c0-.05.04-.09.08-.09s.08.04.08.09v.69c.26.01.52.04.77.09.04.01.08.05.07.1 0 .05-.04.08-.08.08zm-2.29 0c-.04 0-.08-.03-.08-.07-.01-.05.02-.09.07-.1.25-.04.51-.07.77-.09v-.69c0-.05.04-.09.09-.09.05 0 .08.04.08.09v.78c0 .05-.04.09-.08.09-.28.01-.56.04-.83.09-.01-.01-.01-.01-.02-.01zm6.38 6.63-.41.09-.17.04c-.14.04-.27.07-.41.11l-.17.05c-.14.04-.28.07-.41.1l-.17.04c-.14.03-.28.05-.41.06l-.17.01a1.2 1.2 0 0 1-.41-.06l-.17-.08c-.15-.09-.29-.24-.41-.47l-.17-.44c-.04-.15-.08-.32-.12-.51-.05-.3-.01-.6.12-.9l.17-.32c.01-.01.02-.03.03-.04.11-.16.24-.31.38-.45l.17-.16c.13-.11.26-.22.41-.32l.17-.11c.13-.09.27-.17.41-.24l.17-.09c.14-.07.27-.13.41-.19l.17-.07c.14-.06.28-.1.41-.14l.17-.05c.13-.03.24-.06.35-.08.03 0 .05-.02.06-.04l.17-.11c-.78.08-1.7.31-2.44.54-.77.24-3.09.9-7.21-.33-.36-.11-.77-.12-1.14-.18h-.02l.17.08c.01.02.03.04.06.04.11.02.22.05.35.08l.17.05c.13.04.27.09.41.14l.17.07c.13.06.27.12.41.19l.17.09c.14.07.27.15.41.24l.17.11c.14.1.28.21.41.32l.17.16c.14.14.27.29.38.45.01.01.02.03.02.04l.17.32c.13.3.17.6.12.9-.03.19-.07.36-.12.51l-.17.44c-.12.23-.26.38-.41.47l-.17.08c-.13.05-.27.06-.41.06l-.17-.01c-.13-.01-.26-.03-.41-.06l-.17-.04c-.13-.03-.26-.07-.41-.1l-.17-.05c-.13-.04-.27-.07-.41-.11l-.17-.04c-.13-.03-.27-.06-.41-.09l-.17.04-.14.05c1.31.07 2.61 1.85 2.94 2.44.06-1.82 1.14-2.53 2.6-2.53 1.46 0 2.54.71 2.61 2.53.33-.6 1.64-2.38 2.94-2.44l-.14-.05-.16-.04z"/><path d="M17.69 15.32c.31 0 .56.26.56.58 0 .32-.25.58-.56.58a.57.57 0 0 1-.56-.58c0-.32.25-.58.56-.58z" style="fill:#ffe000"/><path d="M17.69 16.6c-.37 0-.67-.31-.67-.7 0-.38.3-.7.67-.7.37 0 .67.31.67.7 0 .38-.3.7-.67.7zm0-1.16c-.25 0-.45.21-.45.46s.2.46.45.46.45-.21.45-.46c0-.26-.2-.46-.45-.46z"/><path d="M16.43 15.01c.31 0 .56.26.56.58 0 .32-.25.58-.56.58a.57.57 0 0 1-.56-.58c0-.32.26-.58.56-.58z" style="fill:#ffe000"/><path d="M16.43 16.28c-.37 0-.67-.31-.67-.7 0-.38.3-.7.67-.7.37 0 .67.31.67.7.01.39-.3.7-.67.7zm0-1.15c-.25 0-.44.21-.44.46s.2.46.44.46c.25 0 .45-.21.45-.46s-.2-.46-.45-.46z"/><path d="M15.16 14.68c.31 0 .56.26.56.58 0 .32-.25.58-.56.58a.57.57 0 0 1-.56-.58c0-.32.25-.58.56-.58z" style="fill:#ffe000"/><path d="M15.16 15.95c-.37 0-.67-.31-.67-.7 0-.38.3-.7.67-.7.37 0 .67.31.67.7 0 .39-.3.7-.67.7zm0-1.16c-.25 0-.45.21-.45.46s.2.46.45.46.45-.21.45-.46c-.01-.25-.21-.46-.45-.46z"/><path d="M13.88 14.46c.31 0 .56.26.56.58 0 .32-.25.58-.56.58a.57.57 0 0 1-.56-.58c0-.33.25-.58.56-.58z" style="fill:#ffe000"/><path d="M13.88 15.73c-.37 0-.67-.31-.67-.7 0-.38.3-.7.67-.7.37 0 .67.31.67.7 0 .39-.3.7-.67.7zm0-1.16c-.25 0-.45.21-.45.46s.2.46.45.46.45-.21.45-.46c-.01-.25-.21-.46-.45-.46z"/><path d="M12.6 14.33c.31 0 .56.26.56.58 0 .32-.25.58-.56.58a.57.57 0 0 1-.56-.58c0-.33.25-.58.56-.58z" style="fill:#ffe000"/><path d="M12.6 15.6c-.37 0-.67-.31-.67-.7 0-.38.3-.7.67-.7.37 0 .67.31.67.7 0 .39-.3.7-.67.7zm0-1.16c-.25 0-.45.21-.45.46s.2.46.45.46.45-.21.45-.46c-.01-.25-.21-.46-.45-.46z"/><path d="M11.34 14.4c.31 0 .56.26.56.58 0 .32-.25.58-.56.58a.57.57 0 0 1-.56-.58c0-.32.25-.58.56-.58z" style="fill:#ffe000"/><path d="M11.34 15.67c-.37 0-.67-.31-.67-.7 0-.38.3-.7.67-.7.37 0 .67.31.67.7 0 .39-.3.7-.67.7zm0-1.15c-.25 0-.45.21-.45.46s.2.46.45.46.45-.21.45-.46-.2-.46-.45-.46z"/><path d="M10.14 14.82c.31 0 .56.26.56.58 0 .32-.25.58-.56.58a.57.57 0 0 1-.56-.58c0-.32.25-.58.56-.58z" style="fill:#ffe000"/><path d="M10.14 16.1c-.37 0-.67-.31-.67-.7 0-.38.3-.7.67-.7.37 0 .67.31.67.7.01.39-.3.7-.67.7zm0-1.16c-.25 0-.45.21-.45.46s.2.46.45.46.45-.21.45-.46-.2-.46-.45-.46z"/><path d="M9.14 15.59c.31 0 .56.26.56.58 0 .32-.25.58-.56.58a.57.57 0 0 1-.56-.58c0-.32.25-.58.56-.58z" style="fill:#ffe000"/><path d="M9.14 16.86c-.37 0-.67-.31-.67-.7 0-.38.3-.7.67-.7.37 0 .67.31.67.7 0 .39-.31.7-.67.7zm0-1.15c-.25 0-.45.21-.45.46s.2.46.45.46.45-.21.45-.46a.463.463 0 0 0-.45-.46z"/><path d="M8.42 16.66c.31 0 .56.26.56.58 0 .32-.25.58-.56.58a.57.57 0 0 1-.56-.58c0-.32.25-.58.56-.58z" style="fill:#ffe000"/><path d="M8.42 17.93c-.37 0-.67-.31-.67-.7s.3-.7.67-.7.67.31.67.7-.3.7-.67.7zm0-1.15c-.25 0-.45.21-.45.46s.2.46.45.46.45-.21.45-.46c0-.26-.2-.46-.45-.46z"/><path d="M8.07 17.92c.31 0 .56.26.56.58 0 .32-.25.58-.56.58a.57.57 0 0 1-.56-.58c.01-.32.26-.58.56-.58z" style="fill:#ffe000"/><path d="M8.07 19.19c-.37 0-.67-.31-.67-.7 0-.38.3-.7.67-.7.37 0 .67.31.67.7.01.39-.29.7-.67.7zm0-1.16c-.25 0-.45.21-.45.46s.2.46.45.46.45-.21.45-.46-.2-.46-.45-.46z"/><path d="M8.09 19.22c.31 0 .56.26.56.58 0 .32-.25.58-.56.58a.57.57 0 0 1-.56-.58c0-.32.25-.58.56-.58z" style="fill:#ffe000"/><path d="M8.09 20.5c-.37 0-.67-.31-.67-.7 0-.38.3-.69.67-.69.37 0 .67.31.67.69 0 .39-.3.7-.67.7zm0-1.16c-.25 0-.45.21-.45.46s.2.46.45.46.45-.21.45-.46-.2-.46-.45-.46z"/><ellipse cx="8.33" cy="21.08" rx=".56" ry=".58" style="fill:#ffe000"/><path d="M8.33 21.77c-.37 0-.67-.31-.67-.7 0-.38.3-.7.67-.7.37.01.67.33.67.71 0 .38-.3.69-.67.69zm0-1.15c-.25 0-.45.21-.45.46s.2.46.45.46.45-.21.45-.46-.2-.46-.45-.46z"/><path d="m17.94 16.67-.05.75c-1.39-.22-3.37-1.02-5.21-1.02-1.7 0-3.02.7-3.02 2.48 0 1.75.71 3.34 1.67 4.95l-.99.48c-.88-1.78-1.61-3.29-1.61-5.33 0-1.71 1.3-3.39 3.54-3.39 1.98 0 4 .69 5.67 1.08zm1.82-1.35a.57.57 0 0 0-.56.58c0 .32.25.58.56.58.31 0 .56-.26.56-.58a.57.57 0 0 0-.56-.58z" style="fill:#ffe000"/><path d="M19.76 16.6c-.37 0-.67-.31-.67-.7 0-.38.3-.7.67-.7.37 0 .67.31.67.7.01.38-.29.7-.67.7zm0-1.16c-.25 0-.45.21-.45.46s.2.46.45.46.45-.21.45-.46c0-.26-.2-.46-.45-.46z"/><path d="M21.02 15.01a.57.57 0 0 0-.56.58c0 .32.25.58.56.58.31 0 .56-.26.56-.58a.57.57 0 0 0-.56-.58z" style="fill:#ffe000"/><path d="M21.02 16.28c-.37 0-.67-.31-.67-.7 0-.38.3-.7.67-.7.37 0 .67.31.67.7.01.39-.3.7-.67.7zm0-1.15c-.25 0-.45.21-.45.46s.2.46.45.46.45-.21.45-.46-.2-.46-.45-.46z"/><path d="M22.3 14.68a.57.57 0 0 0-.56.58c0 .32.25.58.56.58.31 0 .56-.26.56-.58a.57.57 0 0 0-.56-.58z" style="fill:#ffe000"/><path d="M22.3 15.95c-.37 0-.67-.31-.67-.7 0-.38.3-.7.67-.7.37 0 .67.31.67.7 0 .39-.3.7-.67.7zm0-1.16c-.25 0-.45.21-.45.46s.2.46.45.46.45-.21.45-.46-.21-.46-.45-.46z"/><path d="M23.58 14.46a.57.57 0 0 0-.56.58c0 .32.25.58.56.58s.56-.26.56-.58c0-.33-.25-.58-.56-.58z" style="fill:#ffe000"/><path d="M23.58 15.73c-.37 0-.67-.31-.67-.7 0-.38.3-.7.67-.7s.67.31.67.7c0 .39-.3.7-.67.7zm0-1.16c-.25 0-.45.21-.45.46s.2.46.45.46.45-.21.45-.46-.2-.46-.45-.46z"/><path d="M24.86 14.33a.57.57 0 0 0-.56.58c0 .32.25.58.56.58.31 0 .56-.26.56-.58 0-.33-.25-.58-.56-.58z" style="fill:#ffe000"/><path d="M24.86 15.6c-.37 0-.67-.31-.67-.7 0-.38.3-.7.67-.7.37 0 .67.31.67.7 0 .39-.3.7-.67.7zm0-1.16c-.25 0-.45.21-.45.46s.2.46.45.46.45-.21.45-.46-.2-.46-.45-.46z"/><path d="M26.12 14.4a.57.57 0 0 0-.56.58c0 .32.25.58.56.58s.56-.26.56-.58c-.01-.32-.26-.58-.56-.58z" style="fill:#ffe000"/><path d="M26.12 15.67c-.37 0-.67-.31-.67-.7 0-.38.3-.7.67-.7.37 0 .67.31.67.7 0 .39-.3.7-.67.7zm0-1.15c-.25 0-.45.21-.45.46s.2.46.45.46.45-.21.45-.46-.21-.46-.45-.46z"/><path d="M27.31 14.82a.57.57 0 0 0-.56.58c0 .32.25.58.56.58s.56-.26.56-.58a.57.57 0 0 0-.56-.58z" style="fill:#ffe000"/><path d="M27.31 16.1c-.37 0-.67-.31-.67-.7 0-.38.3-.7.67-.7.37 0 .67.31.67.7 0 .39-.3.7-.67.7zm0-1.16c-.25 0-.45.21-.45.46s.2.46.45.46.45-.21.45-.46-.2-.46-.45-.46z"/><path d="M28.32 15.59a.57.57 0 0 0-.56.58c0 .32.25.58.56.58.31 0 .56-.26.56-.58a.57.57 0 0 0-.56-.58z" style="fill:#ffe000"/><path d="M28.32 16.86c-.37 0-.67-.31-.67-.7 0-.38.3-.7.67-.7.37 0 .67.31.67.7 0 .39-.3.7-.67.7zm0-1.15c-.25 0-.45.21-.45.46s.2.46.45.46.45-.21.45-.46c0-.26-.2-.46-.45-.46z"/><path d="M29.04 16.66a.57.57 0 0 0-.56.58c0 .32.25.58.56.58.31 0 .56-.26.56-.58a.57.57 0 0 0-.56-.58z" style="fill:#ffe000"/><path d="M29.04 17.93c-.37 0-.67-.31-.67-.7s.3-.7.67-.7c.37 0 .67.31.67.7s-.3.7-.67.7zm0-1.15c-.25 0-.45.21-.45.46s.2.46.45.46.45-.21.45-.46a.463.463 0 0 0-.45-.46z"/><path d="M29.38 17.92a.57.57 0 0 0-.56.58c0 .32.25.58.56.58.31 0 .56-.26.56-.58a.57.57 0 0 0-.56-.58z" style="fill:#ffe000"/><path d="M29.38 19.19c-.37 0-.67-.31-.67-.7 0-.38.3-.7.67-.7.37 0 .67.31.67.7 0 .39-.3.7-.67.7zm0-1.16c-.25 0-.45.21-.45.46s.2.46.45.46.45-.21.45-.46-.2-.46-.45-.46z"/><path d="M29.37 19.22a.57.57 0 0 0-.56.58c0 .32.25.58.56.58.31 0 .56-.26.56-.58a.57.57 0 0 0-.56-.58z" style="fill:#ffe000"/><path d="M29.37 20.5c-.37 0-.67-.31-.67-.7 0-.38.3-.69.67-.69.37 0 .67.31.67.69 0 .39-.3.7-.67.7zm0-1.16c-.25 0-.45.21-.45.46s.2.46.45.46.45-.21.45-.46-.2-.46-.45-.46z"/><path d="M29.13 20.5a.57.57 0 0 0-.56.58c0 .32.25.58.56.58.31 0 .56-.26.56-.58a.57.57 0 0 0-.56-.58z" style="fill:#ffe000"/><path d="M29.13 21.77c-.37 0-.67-.31-.67-.7 0-.38.3-.7.67-.7.37 0 .67.31.67.7 0 .39-.3.7-.67.7zm0-1.15c-.25 0-.45.21-.45.46s.2.46.45.46.45-.21.45-.46-.2-.46-.45-.46z"/><path d="m19.52 16.67.05.75c1.39-.22 3.37-1.02 5.21-1.02 1.7 0 3.02.7 3.02 2.48 0 1.75-.72 3.34-1.67 4.95l.99.48c.88-1.78 1.62-3.29 1.62-5.33 0-1.71-1.3-3.39-3.54-3.39-1.99 0-4.02.69-5.68 1.08zm-1.7 4.3c.33-1.59.41-3.46.53-4.38l-.78-.14c-.1 1.83-.3 3.7-.92 5.13.34-.28.74-.49 1.17-.61z" style="fill:#ffe000"/><path d="M20.89 21.77c-.68-1.46-.89-3.41-1-5.32l-.78.14c.12.92.2 2.74.52 4.32.5.14.93.46 1.26.86z" style="fill:#ffe000"/><path d="M18.73 20.78c-1.46 0-2.54.71-2.6 2.53-.36-.65-1.87-2.7-3.28-2.42-.84.16-1.58 1.37-1.46 2.75-.69-2.07-2.73-2.4-4.21-1.18 1.32 1.12 1.91 4.43 3.02 5.87h17.08c1.11-1.44 1.7-4.74 3.02-5.87-1.49-1.22-3.52-.88-4.22 1.18.13-1.38-.62-2.58-1.46-2.75-1.41-.27-2.92 1.77-3.28 2.42-.07-1.81-1.15-2.53-2.61-2.53zm0-5.12c.22 0 .39.18.39.41 0 .23-.18.41-.39.41-.22 0-.4-.18-.4-.41 0-.23.18-.41.4-.41z" style="fill:#ffe000"/><path d="M18.73 16.57c-.27 0-.48-.22-.48-.5 0-.27.22-.5.48-.5s.48.22.48.5-.22.5-.48.5zm0-.82c-.17 0-.31.14-.31.32s.14.32.31.32c.17 0 .31-.14.31-.32s-.14-.32-.31-.32z"/><path d="M18.73 17.44c.25 0 .46.21.46.48 0 .26-.21.48-.46.48-.26 0-.46-.21-.46-.48s.2-.48.46-.48zm0 .99c.29 0 .53.24.53.55 0 .3-.24.54-.53.54-.29 0-.53-.24-.53-.54 0-.3.24-.55.53-.55zm0 1.13c.32 0 .58.27.58.6 0 .33-.26.6-.58.6-.32 0-.58-.27-.58-.6 0-.33.26-.6.58-.6z" style="fill:#ffe000"/><path d="M18.5 21.31c-.06 0-.12.05-.11.16.02.12.04.35.06.5.03.17.12.13.15 0 .02-.14.01-.22.02-.48.01-.12-.06-.18-.12-.18zm.46 0c-.06 0-.13.06-.13.18.01.25 0 .34.02.48.03.14.12.18.15 0 .02-.15.05-.38.06-.5.02-.1-.04-.16-.1-.16zm-.87.07c-.06.01-.12.07-.11.13.01.12.04.26.05.43.01.18.13.11.15.01.01-.1.03-.26.01-.46 0-.08-.04-.11-.07-.11h-.03zm1.25 0c-.04 0-.07.04-.07.11-.01.2 0 .35.01.46.01.1.13.17.15-.01.01-.18.05-.32.05-.43 0-.06-.06-.12-.11-.13h-.03zm-1.74.2c-.05.02-.1.08-.09.15.03.15.06.31.06.46 0 .13.11.08.11-.01.01-.09.02-.28.02-.46 0-.11-.05-.15-.1-.14zm2.23 0c-.04.01-.07.06-.07.15 0 .18.01.37.02.46.01.09.11.14.11.01 0-.15.03-.32.06-.46.02-.07-.03-.14-.08-.15-.02-.01-.03-.01-.04-.01zm-6.7.02c-.06 0-.11.09-.06.18.07.16.14.25.21.42.06.15.16.06.13-.05-.03-.1-.06-.22-.16-.44-.04-.07-.08-.1-.12-.11zm11.19 0c-.04 0-.08.03-.12.12-.1.22-.13.34-.16.44-.03.1.07.2.13.05.07-.17.14-.26.21-.42.05-.1.01-.19-.06-.19zm-10.73.01c-.05.02-.07.08-.05.15.06.14.14.29.2.44.05.14.16.1.12-.02-.04-.12-.05-.2-.12-.43-.04-.12-.11-.15-.15-.14zm10.24 0c-.04.01-.08.05-.11.14-.08.23-.09.31-.12.43-.04.12.07.16.12.02.06-.15.14-.3.19-.44.03-.07 0-.13-.05-.15h-.03zm-9.68.11c-.06.01-.1.1-.06.22.05.14.12.28.19.44.06.16.16.13.14.02-.03-.1-.06-.28-.13-.53-.04-.11-.09-.15-.14-.15zm9.15 0c-.05-.01-.1.03-.13.15-.07.26-.11.43-.13.53-.02.1.08.14.14-.02.06-.16.14-.3.19-.44.04-.11-.01-.21-.07-.22zm-10.55.09c-.06.01-.12.11-.08.19.06.13.1.17.16.31.06.14.13.03.11-.06-.02-.09-.06-.2-.09-.33-.02-.09-.06-.12-.1-.11zm11.96 0c-.04 0-.08.02-.1.12-.03.13-.06.24-.09.33-.03.09.04.2.11.06.06-.14.1-.18.16-.31.04-.09-.02-.2-.08-.2zm-7.6.32c-.07 0-.14.09-.11.18.04.14.09.26.14.43.04.15.14.08.14-.02-.01-.1-.02-.25-.07-.47-.02-.08-.06-.12-.1-.12zm3.23 0c-.04 0-.08.03-.1.12-.04.22-.06.36-.07.47-.01.1.1.18.14.02.04-.18.1-.3.14-.43.03-.09-.04-.18-.11-.18zm-1.61.14c-.08 0-.09.11-.1.21-.01.3-.13.59-.23.74-.1.15-.26.11-.39.03-.14-.08-.23-.14-.38-.25-.15-.12-.26-.05-.09.22.52.77 1.09 1.43 1.09 2.69 0 .16.03.21.1.21s.1-.05.1-.21c0-1.26.56-1.91 1.09-2.69.18-.27.07-.33-.08-.22-.15.12-.24.17-.38.25-.14.08-.29.12-.4-.03-.1-.15-.22-.44-.23-.74-.01-.1-.02-.21-.1-.21zm-4-.19h-.02c-.03.01-.05.05-.04.11.02.12.1.35.13.46.03.11.16.09.13-.06s-.03-.19-.07-.36c-.01-.09-.08-.15-.13-.15zm7.99 0c-.05 0-.12.06-.13.15-.04.17-.04.21-.07.36-.03.15.1.17.13.06.03-.11.11-.34.13-.46.01-.07-.01-.1-.04-.11h-.02zm-10.36.05c-.07 0-.11.09-.05.21.07.14.2.31.25.4.05.1.15.03.08-.09-.07-.12-.09-.26-.17-.44-.03-.06-.07-.08-.11-.08zm12.74 0c-.04 0-.09.02-.12.09-.08.18-.1.32-.17.44s.03.19.08.09c.06-.1.18-.27.25-.4s.03-.21-.04-.22zm-16.33.39c-.08 0-.1.14-.03.23.11.14.18.21.29.32.09.09.12-.03.07-.11-.05-.09-.12-.18-.21-.32-.04-.09-.09-.12-.12-.12zm19.92 0c-.03 0-.08.03-.13.11-.09.15-.16.23-.21.32-.05.09-.02.2.07.11.12-.11.19-.18.29-.32.08-.08.05-.22-.02-.22zm-19.35.12c-.06 0-.1.05-.05.15.07.15.16.33.21.44.06.12.23.15.16-.03s-.08-.28-.15-.44a.19.19 0 0 0-.17-.12zm18.78 0c-.06 0-.14.04-.18.13-.06.17-.07.26-.14.44s.1.14.16.03c.06-.12.15-.29.21-.44.05-.12.01-.16-.05-.16zm-19.89.04c-.09 0-.09.09-.02.15.1.08.22.16.35.26.14.12.2.01.12-.09-.08-.1-.15-.19-.33-.29a.346.346 0 0 0-.12-.03zm20.99 0c-.03 0-.07.01-.12.03-.19.1-.26.2-.34.29-.07.1-.02.21.12.09.12-.1.24-.18.35-.26.09-.06.08-.15-.01-.15zm-12.42.08c-.05.01-.09.06-.07.14.04.14.08.28.11.42.02.14.18.14.15.01-.02-.12-.04-.28-.08-.46-.02-.07-.05-.1-.08-.11h-.03zm3.83 0c-.03 0-.07.04-.08.11-.04.19-.06.34-.08.46-.03.12.13.12.15-.01.03-.14.07-.28.11-.42.02-.08-.02-.13-.07-.14h-.03zm-7.24-.23c-.04.01-.06.09-.03.19.16.59.21.9.18 1.05-.03.15-.11.17-.21.12-.11-.05-.22-.12-.32-.19-.09-.07-.19.01-.06.13.69.58 1.16 1.25 1.35 2.06.04.16.14.18.11 0-.16-1.02-.19-1.85.05-2.38.09-.2 0-.39-.14-.07-.09.21-.25.3-.37.11-.12-.18-.37-.68-.45-.9-.03-.08-.06-.12-.09-.13 0 .01-.01.01-.02.01zm10.65 0c-.03.01-.06.04-.09.13-.08.22-.33.72-.45.9-.12.19-.27.1-.37-.11-.14-.32-.23-.13-.14.07.23.52.2 1.36.05 2.38-.03.18.07.16.11 0 .18-.81.66-1.47 1.35-2.06.13-.12.04-.2-.06-.13-.09.07-.21.14-.32.19-.1.05-.18.03-.21-.12s.02-.46.18-1.05c.03-.11.01-.18-.03-.19 0-.01-.01-.01-.02-.01zm-14.09.28c-.06 0-.11.05-.08.14.04.15.14.32.17.42.03.1.13.05.11-.08-.02-.14-.03-.22-.05-.37a.159.159 0 0 0-.15-.11zm17.56 0c-.06 0-.13.04-.15.11-.02.15-.03.23-.05.37-.02.14.08.18.11.08.03-.1.13-.27.17-.42.03-.09-.02-.14-.08-.14zm-15.44-.2c-.07-.01-.08.18-.02.26.08.1.19.23.31.37.09.12.15.01.1-.08-.06-.1-.14-.2-.29-.45-.04-.07-.07-.09-.1-.1zm13.31 0c-.03 0-.06.03-.09.09-.15.25-.24.35-.29.45-.06.1 0 .2.1.08.11-.14.23-.27.31-.37.05-.07.04-.26-.03-.25zm-14.95.46c-.04 0-.08.03-.06.13.03.13.06.24.1.36.03.12.11.1.11-.01 0-.12-.02-.25-.04-.37-.01-.06-.07-.1-.11-.11zm16.59 0c-.04 0-.1.05-.1.11-.02.12-.04.25-.04.37s.08.14.11.01c.03-.12.07-.23.09-.36.03-.09-.01-.13-.06-.13zm-15.11.17c-.07.01-.13.08-.05.19.13.17.28.3.33.36.05.06.18.04.1-.1-.08-.14-.21-.31-.27-.41-.02-.03-.06-.05-.11-.04zm13.6 0c-.03 0-.06.02-.08.05-.06.1-.18.27-.27.41-.08.14.04.16.09.1.05-.07.19-.19.32-.36.08-.11.02-.18-.05-.19.01-.01 0-.01-.01-.01zm-15.94.49c-.05 0-.07.04 0 .15.17.24.36.6.37.76.01.16-.06.16-.13.16-.21 0-.31-.16-.5-.2-.19-.05-.22.06-.08.16.69.52 1.38 1.1 1.66 1.62.11.21.26.29.18.09-.26-.63-.32-1.15-.27-1.48.06-.32.13-.54.13-.72-.01-.18-.11-.17-.15 0-.03.12-.08.27-.12.33-.04.06-.19.09-.33-.11s-.51-.59-.63-.68c-.05-.06-.09-.08-.13-.08zm18.31 0c-.03 0-.08.03-.12.06-.12.1-.48.48-.63.68-.14.2-.29.17-.33.11-.04-.06-.09-.21-.12-.33-.04-.17-.14-.18-.16 0-.01.18.07.4.13.72.06.32-.01.85-.27 1.48-.08.2.07.13.18-.09.28-.53.97-1.1 1.66-1.62.13-.1.11-.2-.08-.16-.19.04-.29.2-.5.2-.07 0-.14 0-.13-.16.01-.15.2-.52.37-.76.08-.09.06-.14 0-.13z"/><path d="m10.59 27.57.22.72m.23-.85.2.73m.3-.82.13.75m.32-.84.15.74m.44-.8.12.75m.5-.75.13.75m.47-.96.09.75m.48-.72.09.75m.46-.82.09.75m.47-.81.05.76m.54-.76.04.76m.5-.8.04.76m.55-.8.03.76m.65-.78.03.76m8.96.02-.22.72m-.24-.85-.2.73m-.29-.82-.13.75m-.33-.84-.14.74m-.44-.8-.12.75m-.5-.75-.13.75m-.48-.96-.09.75m-.48-.72-.09.75m-.46-.82-.09.75m-.46-.81-.05.76m-.55-.76-.04.76m-.49-.8-.04.76m-.56-.8-.03.76m-.64-.78-.03.76m-.82-.81v.83" style="fill:#ffe000"/><path d="M30.35 22.36c-.58-.47-1.25-.73-1.92-.73h-.03c.26-.81.43-1.67.43-2.65 0-1.7-1.28-3.51-3.65-3.51-1.53 0-3.08.41-4.46.77-.25.07-.5.13-.74.19 0-.03-.02-.05-.04-.07-.03-.02-.06-.03-.09-.02l-.78.14c-.03.01-.06.03-.08.05-.08-.06-.18-.09-.28-.09s-.2.03-.29.09c-.02-.03-.04-.05-.07-.05l-.78-.14c-.03-.01-.06 0-.09.02-.02.02-.03.04-.04.07-.24-.06-.49-.12-.74-.19-1.37-.36-2.93-.77-4.46-.77-2.37 0-3.65 1.81-3.65 3.51 0 .97.17 1.84.43 2.65h-.03c-.66 0-1.34.26-1.92.73-.03.02-.04.06-.04.09 0 .04.01.07.04.09.71.61 1.22 1.91 1.71 3.17.41 1.04.79 2.03 1.29 2.68.02.02.04.03.06.04.36.73 4.21 1.35 8.57 1.35s8.21-.62 8.57-1.35a.21.21 0 0 0 .06-.04c.5-.65.88-1.63 1.29-2.68.49-1.26 1-2.56 1.71-3.17.03-.02.04-.05.04-.09.03-.03.01-.07-.02-.09zm-9.56-5.89c1.36-.36 2.9-.76 4.4-.76 2.23 0 3.43 1.69 3.43 3.27 0 .98-.18 1.84-.45 2.66-.34.04-.66.14-.95.31.4-.95.69-1.98.69-3.08 0-1.65-1.14-2.59-3.13-2.59-1.2 0-2.45.34-3.55.63-.41.11-.81.22-1.17.3-.01-.18-.02-.36-.04-.54.25-.07.5-.13.77-.2zm6.05 5.41c-.08.04-.18.07-.27.07-.04 0-.09-.01-.13-.01l-.17-.05c-.14-.05-.28-.14-.41-.23l-.17-.14c-.05-.05-.1-.09-.14-.13-.08-.1-.17-.19-.26-.27l-.17-.13c-.13-.09-.27-.15-.41-.19l-.17-.03c-.06-.01-.13-.01-.19-.01-1.24 0-2.43 1.46-2.93 2.21-.06-.51-.22-.94-.46-1.29-.55-1.21-.77-2.74-.9-4.22.38-.08.79-.19 1.21-.31 1.02-.27 2.16-.58 3.26-.62h.24c.11 0 .22 0 .34.01l.17.01c.13.01.27.03.41.06l.17.04c.14.03.27.07.41.12l.17.07c.14.06.28.14.41.23l.17.14c.16.14.3.31.41.52l.17.44c.05.21.09.45.09.72 0 .36-.03.7-.09 1.05l-.17.77c-.09.33-.2.65-.33.96-.01 0-.01.01-.02.02-.02.03-.04.05-.06.07l-.18.12zm-7.06-5.29c.09 1.54.26 3.23.75 4.62-.23-.18-.5-.32-.81-.41-.21-1.07-.32-2.26-.4-3.17-.03-.37-.06-.69-.09-.95l.55-.09zm-1.34.19c.06-.1.16-.17.29-.17.12 0 .23.07.29.17l.03.3c-.05.14-.17.23-.32.23s-.27-.1-.32-.23l.03-.3zm.29.74c.21 0 .38.17.38.39 0 .21-.17.39-.38.39s-.38-.18-.38-.39c0-.21.17-.39.38-.39zm0 1c.24 0 .44.21.44.46s-.2.46-.44.46-.44-.2-.44-.46c0-.25.19-.46.44-.46zm0 1.13c.27 0 .49.23.49.51 0 .27-.2.49-.46.51h-.07a.504.504 0 0 1-.46-.51c0-.28.23-.51.5-.51zm-1.05-3.06.55.09c-.03.26-.06.58-.09.94-.08.91-.19 2.1-.4 3.17-.31.09-.58.23-.81.41.49-1.39.66-3.08.75-4.61zm-1.19 5.09c-.23.34-.39.77-.45 1.27-.5-.75-1.69-2.21-2.93-2.21-.06 0-.13.01-.19.01l-.17.03c-.14.04-.28.1-.41.19l-.17.13c-.1.08-.19.18-.28.29-.04.04-.08.08-.13.12l-.17.14c-.13.09-.26.18-.41.23l-.17.05c-.04.01-.09.01-.13.01-.1 0-.19-.02-.28-.07l-.17-.13a.435.435 0 0 1-.06-.07c0-.01-.01-.01-.02-.02-.13-.31-.24-.64-.33-.97l-.17-.78c-.05-.34-.09-.68-.09-1.04 0-.27.03-.5.09-.71l.17-.44c.11-.21.25-.38.41-.52l.17-.14c.13-.09.26-.17.41-.23l.17-.07c.14-.05.27-.09.41-.12l.17-.04c.14-.03.28-.04.41-.06l.17-.01c.12-.01.23-.01.34-.01h.24c1.1.04 2.24.35 3.26.62.43.11.83.22 1.21.31-.12 1.49-.35 3.03-.9 4.24zm-7.65-2.7c0-1.59 1.2-3.27 3.43-3.27 1.5 0 3.04.4 4.4.76.27.07.53.14.78.2-.01.18-.02.36-.04.54-.37-.08-.76-.18-1.18-.3-1.1-.3-2.35-.63-3.55-.63-1.99 0-3.13.95-3.13 2.59 0 1.1.29 2.13.69 3.08a2.42 2.42 0 0 0-.95-.31c-.27-.81-.45-1.68-.45-2.66zm19.59 6.65c-.38.97-.74 1.89-1.18 2.52-.08-.09-.21-.17-.4-.24l.09-.3c.01-.05-.01-.1-.05-.11-.05-.01-.09.01-.11.06l-.09.3c-.09-.03-.18-.06-.28-.08l.08-.3c.01-.05-.01-.09-.06-.11-.04-.01-.09.01-.1.06l-.08.31c-.09-.02-.19-.04-.3-.06l.05-.31c.01-.05-.02-.09-.07-.1-.05-.01-.09.02-.1.07l-.05.29c-.09-.02-.19-.03-.29-.05l.06-.31c.01-.05-.02-.09-.07-.1-.04-.01-.09.02-.1.07l-.06.32c-.13-.02-.26-.04-.4-.05l.05-.3c.01-.05-.02-.09-.07-.1-.04 0-.09.02-.1.07l-.05.3c-.14-.02-.29-.03-.44-.05l.04-.23c.01-.05-.02-.09-.07-.1-.04-.01-.09.02-.1.07l-.04.24c-.15-.01-.29-.03-.44-.04l.05-.4c0-.05-.03-.09-.07-.1-.05-.01-.09.03-.1.08l-.05.41-.39-.03.04-.32c.01-.05-.03-.09-.07-.1h-.01c-.04 0-.08.03-.08.08l-.04.33c-.13-.01-.26-.01-.39-.02l.04-.37c.01-.05-.03-.09-.07-.1-.06-.01-.09.03-.09.08l-.05.38c-.12-.01-.25-.01-.37-.02l.03-.4c0-.05-.03-.09-.08-.09h-.01c-.04 0-.08.04-.08.08l-.03.41c-.14-.01-.28-.01-.42-.01l.02-.38c0-.05-.03-.09-.08-.09h-.01c-.05 0-.08.04-.09.08l-.02.39c-.12 0-.25-.01-.37-.01l.02-.41c0-.05-.04-.09-.08-.09-.06 0-.09.04-.09.08l-.02.41c-.14 0-.28-.01-.42-.01l.02-.43c0-.05-.03-.09-.08-.09-.04 0-.08.04-.08.08l-.02.44c-.18 0-.35-.01-.51-.01l.02-.44c0-.05-.03-.09-.08-.09s-.08.04-.09.08l-.02.45h-.66v-.49c0-.05-.04-.09-.08-.09s-.08.04-.08.09v.49H18l-.02-.45c0-.05-.04-.08-.08-.08-.05 0-.08.04-.08.09l.02.44c-.16 0-.33 0-.51.01l-.02-.44c0-.05-.04-.08-.08-.08-.05 0-.08.04-.08.09l.02.43c-.14 0-.28 0-.42.01l-.02-.41c0-.05-.03-.09-.09-.08-.05 0-.08.04-.08.09l.02.41c-.12 0-.24.01-.37.01l-.02-.39c0-.05-.04-.08-.08-.08h-.01c-.05 0-.08.05-.08.09l.02.38c-.14 0-.28.01-.42.01l-.03-.41c0-.05-.04-.09-.09-.08-.05 0-.08.05-.08.09l.03.4c-.12 0-.24.01-.37.02l-.04-.38c-.01-.05-.04-.08-.09-.08-.05.01-.08.05-.07.1l.04.37c-.13.01-.26.01-.39.02l-.04-.33c0-.04-.04-.08-.08-.08h-.01c-.05.01-.08.05-.07.1l.04.32-.39.03-.05-.41c0-.05-.05-.08-.09-.08-.05.01-.08.05-.07.1l.05.4c-.15.01-.3.02-.44.04l-.04-.24c-.01-.05-.05-.08-.1-.07-.05.01-.08.05-.07.1l.04.23c-.15.01-.3.03-.44.05l-.05-.3c-.01-.05-.05-.07-.1-.07-.05.01-.08.05-.07.1l.05.3c-.14.02-.27.03-.4.05l-.06-.32c-.01-.05-.05-.08-.1-.07-.05.01-.08.06-.07.1l.06.31c-.1.02-.2.03-.3.05l-.05-.29c-.01-.05-.05-.08-.1-.07-.05.01-.08.06-.07.1l.05.29-.3.06-.08-.31c-.01-.05-.06-.07-.1-.06-.05.01-.07.06-.06.11l.08.3c-.1.03-.2.05-.28.08l-.09-.3c-.01-.05-.06-.07-.11-.06-.04.01-.07.06-.06.11l.09.3c-.19.07-.32.15-.4.25-.45-.62-.8-1.55-1.18-2.52-.48-1.23-.97-2.49-1.67-3.17.51-.39 1.1-.6 1.67-.6 1.04 0 1.88.68 2.26 1.81.02.06.07.09.13.08.06-.01.09-.07.09-.13-.13-1.36.62-2.47 1.36-2.62.08-.02.16-.02.24-.02 1.32 0 2.66 1.92 2.92 2.39.02.05.07.07.12.06.05-.01.09-.06.09-.11.07-2 1.39-2.42 2.49-2.42 1.1 0 2.42.42 2.49 2.42 0 .05.04.1.09.11.05.01.1-.01.13-.06.26-.47 1.6-2.39 2.92-2.39.08 0 .16.01.24.02.75.14 1.49 1.26 1.37 2.62 0 .06.03.11.09.13.06.01.11-.02.13-.08.38-1.13 1.23-1.81 2.26-1.81.57 0 1.16.21 1.67.6-.76.68-1.25 1.95-1.73 3.18z"/><path d="M18.73 16.6c.19 0 .34.16.34.36 0 .2-.15.36-.34.36-.19 0-.35-.16-.35-.36 0-.2.16-.36.35-.36z" style="fill:#ffe000"/><linearGradient id="a" x1="32" x2="32" y1="62" y2="2" gradientUnits="userSpaceOnUse"><stop offset="0" style="stop-color:#1a1a1a"/><stop offset=".102" style="stop-color:#393939;stop-opacity:.949"/><stop offset=".347" style="stop-color:#7f7f7f;stop-opacity:.8262"/><stop offset=".569" style="stop-color:#b6b6b6;stop-opacity:.7156"/><stop offset=".758" style="stop-color:#dedede;stop-opacity:.6209"/><stop offset=".908" style="stop-color:#f6f6f6;stop-opacity:.5459"/><stop offset="1" style="stop-color:#fff;stop-opacity:.5"/></linearGradient><circle cx="32" cy="32" r="30" style="opacity:.1;fill:url(#a)"/></svg>