<svg xmlns="http://www.w3.org/2000/svg" xml:space="preserve" style="enable-background:new 0 0 64 64" viewBox="0 0 64 64"><path d="M57.98 47H6.02C11.21 55.96 20.9 62 32 62s20.79-6.04 25.98-15zM6.02 17h51.95C52.79 8.04 43.1 2 32 2S11.21 8.04 6.02 17z" style="fill:red"/><path d="M2 32c0 5.47 1.47 10.59 4.02 15h51.95C60.53 42.59 62 37.47 62 32s-1.47-10.59-4.02-15H6.02A29.87 29.87 0 0 0 2 32z" style="fill:#fcfcfc"/><path d="M31.59 17c-.64 1.36-1.86 2.3-3.02 3.2-.19.17-.66.49-.32.73.29-.33 1.1.11.63.46-.42.39-1 .54-1.47.86-.41.23-.83.46-1.16.8-.02.54.67.24.95.46.37.39-.15 1.05-.63.9-.61.02-1.03.56-1.26 1.07-.48.74-1.39.96-2.11 1.38-.41.24-.81.51-1.2.79-.49.34-.06 1.01.46.85.57-.06 1.08-.5 1.67-.38.54.19.68.89.5 1.37-.13.39-.46.67-.72.97-.43.43-.98.71-1.57.84-.57.19-1.08.54-1.45 1.01-.43.43-.86.88-1.36 1.24-.16.4.29.74.65.73.78-.05 1.32-.68 1.98-1.01.55-.25 1.2.35 1.06.92-.04.56-.56.84-1.03 1.01-1.36.68-2.54 1.68-3.59 2.77-.22.44-.81.31-1.13.62-.21.39.32.6.63.56 1.35-.16 2.6-.73 3.79-1.36.44-.21.86-.49 1.32-.66.43-.11 1.04.08 1.11.57 0 .52-.52.81-.92 1.01-1.26.66-2.63 1.03-3.98 1.46-.5-.14-.88.75-.33.92.58.2 1.2.04 1.8.01 1.84-.28 3.46-1.28 5.18-1.93.72-.23 1.56.09 1.92.76.36.6.32 1.39-.05 1.97-.59 1.27-1.49 2.43-2.7 3.16-.76.38-1.65.52-2.3 1.1-.6.2.3 1.01.43.37.36-.49 1-.64 1.58-.66.87-.09 1.8-.25 2.47-.86.61-.47 1.2-1.12 2.03-1.13.45.05.9.42 1.37.2.4-.19 1.04-.08 1.14.42.19.58.79.85 1.27 1.16.17.24.74.86.88.32-.11-.38.04-.98.55-.85.45.02.88.19 1.32.21.6.12 1.09.53 1.43 1.02.23.32.74.87 1.12.45.23-.44-.21-.81-.58-.97-.53-.33-.99-.77-1.45-1.19-.69-.64-1.28-1.46-1.39-2.42-.15-.96-.07-1.93.05-2.88.16-.61.94-.95 1.49-.62.77.35 1.54.86 2.42.8 1.28.03 2.59-.22 3.84.15 1.22.38 2.09 1.41 3.27 1.85.26.16.6.01.7-.28.12-.25.03-.58-.21-.73-1.37-1.39-3.25-2.06-4.84-3.14-.5-.13-.59-.93-.13-1.16.61-.44 1.47-.24 2.01.22.46.27.97.47 1.5.47.55-.17.28-.96-.21-1.02-.89-.5-1.53-1.32-2.29-1.98-.44-.38-.93-.75-1.52-.83-.33-.06-.66-.07-.99-.05-.31-.34.1-.85.5-.81.41.03.82.06 1.23 0 .46-.03.92-.08 1.38-.08.37.25 1.11-.18.78-.62-.37-.32-.89-.29-1.33-.46-.77-.25-1.55-.46-2.34-.62-.55-.03-.48-.76 0-.84.32-.12.59.13.9.16.52.11 1.06.11 1.58.22.44-.22.1-.86-.3-.9-.94-.34-1.76-.95-2.56-1.54-.88-.66-1.68-1.43-2.57-2.07-.32-.2-.85-.26-.94-.7-.03-.41.45-.59.79-.5.48.14.94.39 1.43.51.39.07.79.18 1.16.13.47-.3-.2-.49-.45-.59-.63-.34-1.19-.79-1.76-1.23-.48-.41.41-.59.71-.43.51.21.57-.53.19-.72-.45-.19-.83-.51-1.24-.78-.74-.52-1.57-.94-2.47-1.05-1.01-.1-1.96-.69-2.5-1.55-.32-.47-.56-1.01-.8-1.56zm-3.33 5.69c.52.02.44.96-.07.9-.5-.04-.47-1 .07-.9zm4.93.51c.51-.09.62.84.11.88-.53.09-.73-.94-.11-.88zm-1.44.12c.52.1.42 1-.1 1.01-.38.08-.79.34-1.18.15-.31-.33.14-.82.49-.93.27-.06.52-.18.79-.23zm3.32 0c.5.18.32 1.06-.2 1.05-.5.07-.73-.76-.26-.96.14-.05.3-.09.46-.09zm-5.61 1c.37.35.15 1.02-.3 1.18-.32.18-.77.61-1.12.26-.19-.43.29-.75.57-.99.26-.2.54-.38.85-.45zm4.18 1.94c.52.25.26 1.19-.32 1.13-.47-.12-.41-.93.06-.99.09-.04.18-.09.26-.14zm-1.66.09c.49.23.12 1.05-.38.93-.51-.06-.5-.96.06-.88.11 0 .22-.01.32-.05zm3.57.47c.54-.17 1.18.39 1.01.95-.24.43-.83.49-1.25.33-.48-.02-.81-.75-.38-1.06.18-.15.4-.2.62-.22zm-7.92.14c.44-.24.91.48.54.8-.25.37-.89.52-1.17.11-.24-.4.14-1.07.63-.91zm-2.04.34c.5.07.83.53 1.02.96.04.53-.74.82-1.08.43-.38-.24-.72-.74-.52-1.2.12-.17.37-.24.58-.19zm12.24 1.92c.54-.14.94.73.47 1.04-.43.39-1.26-.13-1.04-.68.11-.2.34-.34.57-.36zm-6.95.99c.46.06.31.85-.11.83-.46-.08-.35-.87.11-.83zm-2.32.43c.37-.26.86.38.54.68-.37.26-.85-.38-.54-.68zm3.69.07c.43.26.69.75.74 1.25-.21.46-1.01.35-1.1-.14-.15-.39-.01-.89.36-1.11zm1.29.77c.56-.14.36 1.03-.11.62-.15-.18-.07-.49.11-.62zm-8.09.81c.37-.11.91.01 1.01.43.04.4-.39.61-.72.7-.51.16-1.02.42-1.57.38-.41-.24-.56-.72-.71-1.15.4-.38.99-.27 1.49-.36.16.01.33 0 .5 0zM38 34.12c.47-.23.98.52.58.87-.49.57-1.44.67-2.03.2-.07-.5.43-.87.88-.94.18-.06.37-.14.57-.13zm2.64.57c.54-.09.96.67.58 1.07-.36.54-1.22.69-1.72.24-.19-.45.2-.92.61-1.07.18-.08.35-.17.53-.24zm-13.31.81c.5-.05.95.44.88.93.36.35-.28 1.01-.63.65-.31-.38-.31-.9-.43-1.36-.01-.1.07-.23.18-.22zm3.81.29c.51-.22 1.18.39.9.91-.2.42-.97.28-.95-.21-.01-.23-.03-.47.05-.7zm-1.85.33c.51-.12.98.55.7.99-.52.05-.78-.56-.7-.99z" style="fill:#00a650"/><linearGradient id="a" x1="32" x2="32" y1="62" y2="2" gradientUnits="userSpaceOnUse"><stop offset="0" style="stop-color:#1a1a1a"/><stop offset=".102" style="stop-color:#393939;stop-opacity:.949"/><stop offset=".347" style="stop-color:#7f7f7f;stop-opacity:.8262"/><stop offset=".569" style="stop-color:#b6b6b6;stop-opacity:.7156"/><stop offset=".758" style="stop-color:#dedede;stop-opacity:.6209"/><stop offset=".908" style="stop-color:#f6f6f6;stop-opacity:.5459"/><stop offset="1" style="stop-color:#fff;stop-opacity:.5"/></linearGradient><circle cx="32" cy="32" r="30" style="opacity:.1;fill:url(#a)"/></svg>