<svg xmlns="http://www.w3.org/2000/svg" xml:space="preserve" style="enable-background:new 0 0 64 64" viewBox="0 0 64 64"><path d="M2 32c0 11.12 6.05 20.82 15.04 26h29.92C55.95 52.82 62 43.12 62 32S55.95 11.18 46.96 6H17.04C8.05 11.18 2 20.88 2 32z" style="fill:#da2b26"/><path d="M17.04 6h29.92C42.55 3.46 37.45 2 32 2c-5.45 0-10.55 1.46-14.96 4zM32 62c5.45 0 10.55-1.46 14.96-4H17.04c4.41 2.54 9.51 4 14.96 4zm13.62-30.66 2.52-1.19 1.14-1.61-.13-.38-1.39.98-1.16.45-.21.02 1.67-1 1.12-2.12-.21-.39-1.2 1.25-1.25.89-.13-.03 2.13-2.55.36-2.05-.22-.14-1.46 2.33-.58.61-.07-.07 1.18-1.99.4-2.1-.28-1.31-.22-.11-.75 2.37-.86 1.65-.08-.06.91-3.56-.34-2.7-.38-.55-.27 2.45-.74 2.21-.06-.14.34-1.62-.17-2.84-.8-1.46-.62 4.61-.27.08-.9 2.5-.88 1.28-.2-.43-.23-.02-1.22 1.89-1.17 1.97.83 1.3.47.82-.84.5-.97.07-.34.49-.38.28-.13.02.64-2.52-1.89-2.22-.29.14-.06-.08-.33-1 .45.04-.01-.37-.07-.94.05-.3.44.3.18-.36.39-.84.64.21 1.17-.44.36-.44 1.21.27 1.34-.61-.14-1.14h-.23l-.31.77-.86.1-1.2-.15-.49.1.79-.54.75.2.34.04-.13-1.04-.92-.39-.52.1-.69-.66-1.8.39-.83-.02-.7-.35.14-.46.25-.08.12-.19-.24-.29.38-.53.37-.18.34-.03.1-.11.25-.17.03-.4-.04-.21.13-.31.01-.13.13-.26-.19-.32-.11-.02-.12-.3-.18-.24.04-.2-.24-.26h-.2l-.47-.27-.19-.1-.06-.21-.25-.1-.14.04-.77-.18-.24-.06-.68-.27-.24-.06.21-.51-.36-.65-.21-.1v-.19l.37.04.03-.59-.36.05.06-.36-.75-.01.05.36-.36-.02.03.58.38-.05-.04.22-.26.11-.35.62.18.52-.24.05-.68.27-.24.06-.77.18-.14-.04-.25.1-.06.21-.19.1-.48.27h-.2l-.24.26.04.2-.18.24-.12.3-.11.02-.19.32.13.26.01.13.14.31-.04.21.03.4.25.17.1.11.34.03.37.18.38.53-.24.28.11.19.24.08.14.45-.7.35-.83.02-1.8-.39-.69.66-.52-.1-.92.39-.13 1.04.34-.04.75-.2.8.54-.5-.1-1.2.15-.86-.1-.31-.77h-.23l-.14 1.14 1.34.61 1.2-.27.36.44 1.17.45.64-.21.39.84.18.36.44-.3.05.3-.07.94-.01.37.45-.04-.33 1-.05.08-.28-.13-1.89 2.22.64 2.53v-.01l-.14-.02-.38-.28-.33-.49-.97-.07-.84-.5.48-.82.83-1.3-1.17-1.97-1.22-1.89-.23.02-.2.43-.88-1.28-.9-2.5-.27-.08-.62-4.61-.8 1.46-.17 2.84.34 1.62-.06.14-.74-2.21-.27-2.45-.38.55-.34 2.7.91 3.56-.08.06-.86-1.65-.75-2.37-.22.11-.28 1.31.4 2.1 1.18 1.99-.07.07-.58-.61-1.42-2.32-.22.14.36 2.05 2.13 2.55-.13.03-1.25-.89-1.2-1.25-.21.39 1.12 2.12 1.67 1-.22-.02-1.16-.45-1.39-.98-.13.38 1.13 1.61 2.52 1.19.11.1-.88-.18-2.15-.94-.31.14 1.15 1.65 2.22.62.09.07-1.07-.06-1.42-.37-.06-.26-.16-.1-.25.15-.18-.07-.04-.38-.15-.09-.6.26.1.3.19.33-.47.12-.05.19.25.59.15.05.35-.21.12.47-.34.16.08.35.74.67.52 2.84L17.75 40l.06.16-.07.46.42.48.09.17v.86l.65 1.29.11.2-.25.13-.43.47-.04.58.43.51-.09.22.31.56.52.22.05.29.39.31.54-.02.27.13.05.75-.05.46.4-.07.37.07.46.18.03-.31.09-.48.49-.13.23-.17-.42-.24-.54-.37-.1-.23.13-.19.02-.23.22-.23.26-.29.35-.59.45-.43.7-.58.76-.4.14.49.97-.58 1.12-.61.31.42 1.1-1.09 1.74-1.92.17.08-.05.14-.34.68-.65.81-.33 1.13.22.52-.51.67-.18.87-.2.32-.78.71-.99.65-.09.38.63.42.63.06-.04.25-.19.75.6.22.7-.22-.04.1-.05.44.13.48.36-.12.6-.21.39-.19-.09.28.04.66.36.55.38-.13.44-.51.22.71.84 1.16.84-1.16.22-.71.44.51.33.18.37-.55.03-.66-.09-.28.39.19.6.21.36.12.13-.48-.05-.44-.04-.1.7.22.6-.22-.19-.75-.04-.25.63-.06.63-.42-.09-.38-.99-.65-.78-.71-.2-.32-.18-.87-.51-.67.22-.52-.33-1.13-.65-.81-.34-.68-.04-.14.23-.1 1.74 1.92 1.1 1.09.3-.42 1.12.61.97.57.1-.33.78.25.74.29 1.05.7 1.65.13 2.79-.97 1.15-.64.14-.6-.19-.35-.01-.21-.13-.43-.07-.45-1.09-1.73-.07-.12-.14-.08.01-.45.08-.05.22.14.19-.17.15-.48-.06-.15-.28-.05-.06-.06.14-.25-.08-.19-.63-.18-.14.13.01.34-.12.04-.22-.15-.17.08-.16.56.02.21h.38l.05.07-.18.3-.22.1h-.27l-1.18.4-.72.86-.24.21-.3.44-.17.36-.1 1.08.5.8-.08.22-.37-.23-1.1-.85-.08-.19.24-.06.02-.22-.59-.33.04-.28.25-.41-.93-.23-.31-.16.19-.27-.03-.24-1-.25-1.46-1.63.01-.02 1.01.85.63-.43-.4-.51.13.01 1.6.69 1.06-.34-.34-.36.11-.08 1.46.03 1.1-.77-.81-.17-.18-.19 1.64.01.81-.93-.9-.23-.32-.15 1.78-.13.88-1.16-.02-.18-1.35.19-.76-.06 2.43-.54.86-1.48-1.5.4-1.07.06.09-.07 2.22-.62 1.15-1.65-.31-.14-2.15.94-.88.18.08-.11.02-.02zm-29.09 1.85-.33.19-.16-.34.03-.11.29-.05.04-.01.13.32zM26.45 39l-1.13.93-1 .25-.03.24.19.27-.31.16-.93.23.25.41.03.28-.59.33.02.22.64.16-.3.23-1.12.38-1.52.01-.74-.05-.07-.55-.4-1.01-.47-.64.03-.2-.07-.42-.47-.5-.02-.42-.26-1.37-1.01-1.81-.53-1.69-.02-.85.06-.17.45.4 2.43.54-.76.06-1.35-.19-.02.18.89 1.16 1.78.13-.32.15-.9.23.81.93 1.67-.01-.18.19-.81.17 1.1.77 1.46-.03.11.08-.34.36 1.06.34 1.6-.69.13-.01-.4.51.63.43 1.01-.86.01.01.03.04-.32.69zm8.58-23.01-.15-.27.64.46.27.55-.03.61.01.45.09.12-.35.11-.51.01-.08-.24.4-.63-.29-1.17zm-2.19 1.33.06-.93-.16-1.17.72.45.52.98-.12.62.05.36-.3.16-.45.15-.47-.17-.2-.07.35-.38zm-2.07-1.65.72-.45-.16 1.17.06.93.34.37-.2.07-.47.17-.45-.15-.3-.16.06-.35-.12-.62.52-.98zm-1.53 2.36-.51-.03-.35-.11.09-.12.01-.45-.03-.6.27-.55.64-.46-.15.27-.29 1.17.4.64-.08.24zm5.66 4.09-.64.35.39.3-.68.6-.65.31-.05.2.28.37.15.07-.75.74-.55.32-.05.52.3.35.01.28-.53.72h-.01l-.53-.73.01-.28.3-.35-.05-.52-.55-.32-.75-.74.15-.07.28-.37-.05-.2-.65-.31-.68-.6.39-.3-.64-.35-.55-.52.73-.65.1-.46.02.01 2.5.35 2.5-.35.02-.01.1.46.73.65-.6.53z" style="fill:#fcd70b"/><path d="M27 31h10v6H27z" style="fill:#1d5e91"/><path d="m32 43 4-4h-8z" style="fill:#6d8c3e"/><path d="m30.26 36.5-.56.5h1.38l.27-.42 1.1-.92.67.92.16.42h1.02l-.23-.48.84-.86.44-.26.11-2.96-.81.5.25 1.53-1.12-.88h-2.14l.2-.59-.93-1-.93 1 .25.67-.75.78-.78-.39-.46.86 1.2.59z" style="fill:#fcd70b"/><linearGradient id="a" x1="32" x2="32" y1="62" y2="2" gradientUnits="userSpaceOnUse"><stop offset="0" style="stop-color:#1a1a1a"/><stop offset=".102" style="stop-color:#393939;stop-opacity:.949"/><stop offset=".347" style="stop-color:#7f7f7f;stop-opacity:.8262"/><stop offset=".569" style="stop-color:#b6b6b6;stop-opacity:.7156"/><stop offset=".758" style="stop-color:#dedede;stop-opacity:.6209"/><stop offset=".908" style="stop-color:#f6f6f6;stop-opacity:.5459"/><stop offset="1" style="stop-color:#fff;stop-opacity:.5"/></linearGradient><circle cx="32" cy="32" r="30" style="opacity:.1;fill:url(#a)"/></svg>