<svg xmlns="http://www.w3.org/2000/svg" xml:space="preserve" viewBox="0 0 64 64"><path fill="#FCFCFC" d="M32 62c16.568 0 30-13.432 30-30H2c0 16.568 13.432 30 30 30z"/><path fill="red" d="M32 2C15.432 2 2 15.432 2 32h60C62 15.432 48.568 2 32 2z"/><path fill="#FCFCFC" d="M21.232 17.473 20 16.527l1.525-.004L22 15l.477 1.523 1.523.004-1.23.948.466 1.525L22 18.063 20.766 19zm8 0L28 16.527l1.525-.004L30 15l.477 1.523 1.523.004-1.23.948.466 1.525L30 18.063 28.766 19zm-7 5L21 21.527l1.525-.004L23 20l.477 1.523 1.523.004-1.23.948.466 1.525L23 23.063 21.766 24zm6 0L27 21.527l1.525-.004L29 20l.477 1.523 1.523.004-1.23.948.466 1.525L29 23.063 27.766 24zm-3-8L24 13.527l1.525-.004L26 12l.477 1.523 1.523.004-1.23.948.466 1.525L26 15.063 24.766 16z"/><path fill="#FCFCFC" d="M24.412 27.959c-4.768 0-8.633-4.055-8.633-9.059 0-5.002 3.865-9.059 8.633-9.059.35 0 .691.029 1.031.07A9.017 9.017 0 0 0 21.5 9C16.256 9 12 13.479 12 19c0 5.523 4.256 10 9.5 10a9.042 9.042 0 0 0 4.5-1.201 8.247 8.247 0 0 1-1.588.16z"/><linearGradient id="a" x1="32.001" x2="32.001" y1="62" y2="2.001" gradientUnits="userSpaceOnUse"><stop offset="0" style="stop-color:#1a1a1a"/><stop offset=".102" style="stop-color:#393939;stop-opacity:.949"/><stop offset=".347" style="stop-color:#7f7f7f;stop-opacity:.8262"/><stop offset=".569" style="stop-color:#b6b6b6;stop-opacity:.7156"/><stop offset=".758" style="stop-color:#dedede;stop-opacity:.6209"/><stop offset=".908" style="stop-color:#f6f6f6;stop-opacity:.5459"/><stop offset="1" style="stop-color:#fff;stop-opacity:.5"/></linearGradient><circle cx="32" cy="32" r="30" fill="url(#a)" opacity=".1"/></svg>