<svg xmlns="http://www.w3.org/2000/svg" xml:space="preserve" style="enable-background:new 0 0 64 64" viewBox="0 0 64 64"><path d="M47 57.98c11.63-6.72 17.06-20.04 14.29-32.5L11.71 54.11c9.4 8.63 23.66 10.59 35.29 3.87z" style="fill:#00a650"/><path d="M17 6.02C5.37 12.74-.07 26.07 2.71 38.52L52.29 9.9C42.9 1.27 28.63-.7 17 6.02z" style="fill:navy"/><path d="M10.24 52.65c.48.5.97.99 1.47 1.46l49.58-28.62c-.15-.67-.33-1.34-.53-2L10.24 52.65zm43.52-41.29c-.48-.5-.96-.99-1.47-1.46L2.71 38.52c.15.67.33 1.34.53 2l50.52-29.16z" style="fill:#fcfcfc"/><path d="M53.76 11.36 3.24 40.53c.66 2.21 1.57 4.38 2.78 6.47a30.25 30.25 0 0 0 4.22 5.65l50.52-29.17A30.37 30.37 0 0 0 57.98 17c-1.2-2.09-2.63-3.97-4.22-5.64z" style="fill:red"/><path d="m23.66 16.36 3.51-.94-3.51-.94 2.57-2.56-3.51.94.94-3.51-2.56 2.57-.94-3.51-.94 3.51-2.56-2.57.94 3.51-3.51-.94 2.57 2.56-3.51.94 3.51.94-2.57 2.56 3.51-.94-.94 3.51 2.56-2.57.94 3.51.94-3.51 2.56 2.57-.94-3.51 3.51.94-2.57-2.56z" style="fill:#ffe000"/><path d="M20.17 11.45c2.19 0 3.97 1.78 3.97 3.97 0 2.19-1.78 3.97-3.97 3.97-2.19 0-3.97-1.78-3.97-3.97 0-2.19 1.78-3.97 3.97-3.97z" style="fill:navy"/><circle cx="20.17" cy="15.42" r="3.5" style="fill:#ffe000"/><linearGradient id="a" x1="41.377" x2="41.377" y1="96.999" y2="37" gradientTransform="translate(-9.377 -35)" gradientUnits="userSpaceOnUse"><stop offset="0" style="stop-color:#1a1a1a"/><stop offset=".102" style="stop-color:#393939;stop-opacity:.949"/><stop offset=".347" style="stop-color:#7f7f7f;stop-opacity:.8262"/><stop offset=".569" style="stop-color:#b6b6b6;stop-opacity:.7156"/><stop offset=".758" style="stop-color:#dedede;stop-opacity:.6209"/><stop offset=".908" style="stop-color:#f6f6f6;stop-opacity:.5459"/><stop offset="1" style="stop-color:#fff;stop-opacity:.5"/></linearGradient><path d="M62 32c0 16.57-13.43 30-30 30S2 48.57 2 32 15.43 2 32 2s30 13.43 30 30z" style="opacity:.1;fill:url(#a)"/></svg>