<svg xmlns="http://www.w3.org/2000/svg" xml:space="preserve" style="enable-background:new 0 0 64 64" viewBox="0 0 64 64"><path d="M32 2C18.75 2 7.52 10.59 3.54 22.5h56.91C56.48 10.59 45.25 2 32 2z" style="fill:#0fb4d4"/><path d="M32 62c13.25 0 24.48-8.59 28.46-20.5H3.54C7.52 53.41 18.75 62 32 62z" style="fill:#22cb41"/><path d="M60.91 24c-.14-.51-.29-1.01-.46-1.5H3.54c-.16.49-.32.99-.46 1.5h57.83zM3.09 40c.14.51.29 1.01.46 1.5h56.91c.16-.49.32-.99.46-1.5H3.09z" style="fill:#e81c27"/><path d="M2 32c0 2.77.38 5.45 1.09 8h57.83c.7-2.55 1.09-5.23 1.09-8s-.38-5.45-1.09-8H3.09A29.77 29.77 0 0 0 2 32zm17.78-13.71c-2.36 0-4.28-1.92-4.28-4.29a4.28 4.28 0 0 1 4.28-4.29c.56 0 1.1.11 1.59.31A4.923 4.923 0 0 0 18.36 9c-2.75 0-4.98 2.24-4.98 5s2.23 5 4.98 5c1.14 0 2.18-.38 3.02-1.02-.5.19-1.03.31-1.6.31zm4.33-2.09.34 1.07h1.13l-.91.66.35 1.07-.91-.66-.92.66.35-1.07-.91-.66h1.13zm4.26 0 .34 1.07h1.13l-.91.66.35 1.07-.91-.66-.92.66.35-1.07-.91-.66h1.13zm4.26 0 .34 1.07h1.13l-.91.66.35 1.07-.91-.66-.92.66.35-1.07-.91-.66h1.13zm4.26 0 .35 1.07h1.13l-.92.66.35 1.07-.91-.66-.92.66.35-1.07-.91-.66h1.13zm4.26 0 .35 1.07h1.13l-.92.66.35 1.07-.91-.66-.91.66.34-1.07-.91-.66h1.13zm-12.78-3.6.34 1.07h1.13l-.91.66.35 1.07-.91-.66-.92.66.35-1.07-.91-.66h1.13zm4.26 0 .34 1.07h1.13l-.91.66.35 1.07-.91-.66-.92.66.35-1.07-.91-.66h1.13zm4.26 0 .35 1.07h1.13l-.92.66.35 1.07-.91-.66-.92.66.35-1.07-.91-.66h1.13zm4.26 0 .35 1.07h1.13l-.92.66.35 1.07-.91-.66-.91.66.34-1.07-.91-.66h1.13zM32.63 9l.34 1.07h1.13l-.91.66.35 1.06-.91-.65-.92.65.35-1.06-.91-.66h1.13zm4.26 0 .35 1.07h1.13l-.92.66.35 1.06-.91-.65-.92.65.35-1.06-.91-.66h1.13zm4.26 0 .35 1.07h1.13l-.92.66.35 1.06-.91-.65-.91.65.34-1.06-.91-.66h1.13z" style="fill:#fcfcfc"/><linearGradient id="a" x1="32" x2="32" y1="62" y2="2" gradientUnits="userSpaceOnUse"><stop offset="0" style="stop-color:#1a1a1a"/><stop offset=".102" style="stop-color:#393939;stop-opacity:.949"/><stop offset=".347" style="stop-color:#7f7f7f;stop-opacity:.8262"/><stop offset=".569" style="stop-color:#b6b6b6;stop-opacity:.7156"/><stop offset=".758" style="stop-color:#dedede;stop-opacity:.6209"/><stop offset=".908" style="stop-color:#f6f6f6;stop-opacity:.5459"/><stop offset="1" style="stop-color:#fff;stop-opacity:.5"/></linearGradient><circle cx="32" cy="32" r="30" style="opacity:.1;fill:url(#a)"/></svg>