<svg xmlns="http://www.w3.org/2000/svg" xml:space="preserve" style="enable-background:new 0 0 64 64" viewBox="0 0 64 64"><path d="M32 2C15.43 2 2 15.43 2 32c0 5.47 1.47 10.59 4.02 15L52.36 9.97C47.01 5.03 39.86 2 32 2zM7.43 49.21C12.86 56.94 21.84 62 32 62c16.57 0 30-13.43 30-30 0-1.09-.06-2.17-.18-3.23L7.43 49.21z" style="fill:#003893"/><path d="M58.79 18.5c-1.62-3.22-3.81-6.1-6.43-8.53L6.02 47c.22.38.44.74.67 1.11l52.1-29.61z" style="fill:#ff8200"/><path d="M58.79 18.5 6.7 48.11c.24.37.48.74.74 1.1l54.39-20.45c-.4-3.65-1.45-7.11-3.04-10.26zm-38.15 2.97 6.67-.4-6.67-.4 3.67-1.4-3.88.62 3.19-2.3-3.59 1.61 2.48-3.05-3.05 2.48 1.61-3.58-2.3 3.18.62-3.88-1.4 3.68-.4-6.67-.4 6.67-1.4-3.68.63 3.88-2.31-3.18 1.61 3.58-3.05-2.48 2.49 3.05-3.59-1.61 3.18 2.3-3.88-.62 3.68 1.4-6.67.4 6.67.4-3.68 1.4 3.88-.62-3.18 2.3 3.59-1.61-2.49 3.05 3.05-2.48-1.61 3.59 2.31-3.19-.63 3.88 1.4-3.67.4 6.67.4-6.67 1.4 3.67-.62-3.88 2.3 3.19-1.61-3.59 3.05 2.48-2.48-3.05 3.59 1.61-3.19-2.3 3.88.62z" style="fill:#fcfcfc"/><linearGradient id="a" x1="32" x2="32" y1="62" y2="2" gradientUnits="userSpaceOnUse"><stop offset="0" style="stop-color:#1a1a1a"/><stop offset=".102" style="stop-color:#393939;stop-opacity:.949"/><stop offset=".347" style="stop-color:#7f7f7f;stop-opacity:.8262"/><stop offset=".569" style="stop-color:#b6b6b6;stop-opacity:.7156"/><stop offset=".758" style="stop-color:#dedede;stop-opacity:.6209"/><stop offset=".908" style="stop-color:#f6f6f6;stop-opacity:.5459"/><stop offset="1" style="stop-color:#fff;stop-opacity:.5"/></linearGradient><circle cx="32" cy="32" r="30" style="opacity:.1;fill:url(#a)"/></svg>