<svg xmlns="http://www.w3.org/2000/svg" xml:space="preserve" style="enable-background:new 0 0 64 64" viewBox="0 0 64 64"><path d="M32 2C18.94 2 7.83 10.35 3.71 22h56.57C56.17 10.35 45.06 2 32 2z" style="fill:#ffd000"/><path d="M32 62c13.06 0 24.17-8.35 28.29-20H3.71C7.83 53.65 18.94 62 32 62z" style="fill:#da2b26"/><path d="M3.71 22a30.086 30.086 0 0 0 0 20h56.57C61.39 38.87 62 35.51 62 32s-.61-6.87-1.71-10H3.71z" style="fill:navy"/><path d="m34.56 27.15 1.04 1.05-.2-1.46 1.35-.65-1.47-.26-.21-1.45-.71 1.29-1.48-.24 1.03 1.06-.7 1.3zm-5.39.02 1.37.64-.75-1.3 1-1.07-1.46.26-.76-1.29-.16 1.46-1.47.27 1.37.64-.15 1.46zm-5 1.86 1.52.12-1.2-.96.52-1.33-1.26.74-1.2-.96.41 1.42-1.26.75 1.52.14.42 1.41zm-3.94 3.42 1.47-.4-1.49-.49-.02-1.43-.9 1.12-1.48-.48.93 1.18-.88 1.13 1.46-.39.94 1.19zm-2.33 4.53 1.21-.86-1.57.04-.58-1.33-.4 1.35-1.56.05 1.32.79-.38 1.36 1.21-.86 1.33.79zm28.22-.16-.53 1.34 1.3-.81 1.24.84-.42-1.34 1.29-.81-1.56-.03-.44-1.35-.54 1.33-1.57-.02zm-2.47-4.5.02 1.43.9-1.2 1.47.37-.91-1.11.89-1.2-1.47.5-.92-1.11.01 1.43-1.46.51zm-4.04-3.38.57 1.33.37-1.42 1.52-.15-1.28-.74.37-1.42-1.17.96-1.29-.72.56 1.33-1.16.98z" style="fill:#fcfcfc"/><linearGradient id="a" x1="32" x2="32" y1="62" y2="2" gradientUnits="userSpaceOnUse"><stop offset="0" style="stop-color:#1a1a1a"/><stop offset=".102" style="stop-color:#393939;stop-opacity:.949"/><stop offset=".347" style="stop-color:#7f7f7f;stop-opacity:.8262"/><stop offset=".569" style="stop-color:#b6b6b6;stop-opacity:.7156"/><stop offset=".758" style="stop-color:#dedede;stop-opacity:.6209"/><stop offset=".908" style="stop-color:#f6f6f6;stop-opacity:.5459"/><stop offset="1" style="stop-color:#fff;stop-opacity:.5"/></linearGradient><circle cx="32" cy="32" r="30" style="opacity:.1;fill:url(#a)"/></svg>