<svg xmlns="http://www.w3.org/2000/svg" xml:space="preserve" style="enable-background:new 0 0 64 64" viewBox="0 0 64 64"><circle cx="32" cy="32" r="30" style="fill:#0bbed8"/><path d="M49.31 28.01c0-4.25-3.45-7.69-7.69-7.69-4.25 0-7.69 3.44-7.69 7.69s3.44 7.69 7.69 7.69 7.69-3.44 7.69-7.69zm-7.69-8.74c.46-.01.63-.29.63-.63 0-.46-.63-2.64-.63-2.64s-.63 2.18-.63 2.64c0 .34.17.63.63.63zm9.37 8.11c-.34 0-.64.17-.64.63.01.46.29.63.64.63.46 0 2.63-.63 2.63-.63s-2.17-.63-2.63-.63zm-10 10c0 .46.63 2.63.63 2.63s.63-2.18.63-2.63c0-.34-.17-.64-.63-.64-.46.01-.63.3-.63.64zm-8.11-9.37c0-.46-.29-.63-.64-.63-.46 0-2.63.63-2.63.63s2.18.63 2.63.63c.35 0 .64-.17.64-.63zm12.08-8.08c.43.17.69-.03.82-.35.17-.42.43-2.67.43-2.67s-1.41 1.77-1.59 2.19c-.13.32-.08.66.34.83zm5.56 11.08c-.32-.13-.65-.08-.83.34-.17.42.03.69.35.82.42.18 2.67.43 2.67.43s-1.77-1.41-2.19-1.59zm-12.24 5.07c-.42-.17-.69.03-.82.35-.17.42-.43 2.67-.43 2.67s1.42-1.77 1.59-2.19c.12-.32.08-.65-.34-.83zm-4.73-11.42c.17-.42-.03-.69-.35-.82-.42-.18-2.67-.43-2.67-.43s1.77 1.41 2.19 1.59c.32.13.65.09.83-.34zm14.25-2.83c.33.32.65.24.89 0 .32-.32 1.42-2.31 1.42-2.31s-1.99 1.09-2.31 1.42c-.24.24-.33.57 0 .89zm.89 12.36c-.24-.24-.57-.33-.89 0-.32.33-.24.65 0 .89.32.32 2.31 1.42 2.31 1.42s-1.1-1.99-1.42-2.31zm-13.25 0c-.33-.32-.65-.24-.89 0-.32.32-1.42 2.31-1.42 2.31s1.98-1.09 2.31-1.42c.24-.24.32-.57 0-.89zm0-12.36c.32-.33.24-.65-.01-.89-.32-.32-2.31-1.42-2.31-1.42s1.1 1.98 1.42 2.31c.25.24.58.32.9 0zm14.25 2.83c.18.42.51.47.83.34.42-.17 2.19-1.59 2.19-1.59s-2.25.25-2.67.43c-.32.13-.52.4-.35.82zM46.21 39.1s-.25-2.25-.43-2.67c-.13-.32-.4-.52-.82-.35-.42.18-.47.51-.34.83.18.42 1.59 2.19 1.59 2.19zm-12.66-7.75c-.18-.42-.51-.47-.83-.34-.42.18-2.19 1.59-2.19 1.59s2.25-.25 2.67-.43c.32-.13.52-.4.35-.82zm4.73-11.42c.42-.18.47-.51.34-.83-.17-.42-1.59-2.19-1.59-2.19s.25 2.25.43 2.67c.12.33.39.53.82.35zm5.04-.49c.45.08.67-.16.74-.5.09-.45-.1-2.71-.1-2.71s-1.04 2.01-1.13 2.46c-.07.34.05.66.49.75zm7.62 9.78c-.34-.07-.66.04-.75.49-.08.45.16.67.5.74.45.09 2.71-.1 2.71-.1s-2.02-1.04-2.46-1.13zm-11.77 7.86c-.09.45.1 2.71.1 2.71s1.04-2.01 1.13-2.46c.07-.34-.04-.66-.49-.74-.45-.09-.67.15-.74.49zM33.05 26.3c.08-.45-.17-.67-.5-.74-.45-.09-2.71.1-2.71.1s2.01 1.04 2.46 1.13c.34.07.66-.04.75-.49zm13.42-5.56c.38.25.68.11.88-.18.25-.38.94-2.54.94-2.54s-1.73 1.46-1.99 1.84c-.19.29-.21.63.17.88zm3.29 11.95c-.29-.19-.62-.21-.88.17-.25.38-.11.68.18.88.38.25 2.54.94 2.54.94s-1.46-1.73-1.84-1.99zm-12.83 3.46c.19-.28.21-.62-.17-.88-.38-.25-.68-.11-.88.18-.25.38-.94 2.54-.94 2.54s1.74-1.46 1.99-1.84zm-3.45-12.83c.29.19.62.21.88-.17.25-.38.11-.68-.18-.88-.38-.25-2.54-.94-2.54-.94s1.46 1.74 1.84 1.99zm15.4-.17c.26.38.59.36.88.17.38-.25 1.84-1.99 1.84-1.99s-2.16.69-2.54.94c-.28.2-.43.5-.18.88zm-.59 14.84s-.69-2.16-.94-2.54c-.19-.29-.5-.43-.88-.18-.38.26-.36.59-.17.88.26.38 1.99 1.84 1.99 1.84zm-13.94-5.13c-.26-.38-.59-.36-.88-.17-.38.25-1.84 1.99-1.84 1.99s2.16-.69 2.54-.94c.29-.19.44-.5.18-.88zm2.42-12.12c.38-.26.36-.59.17-.88-.25-.38-1.99-1.84-1.99-1.84s.69 2.16.94 2.54c.19.29.49.44.88.18zm13.92 4.82c-.34.07-.59.29-.5.74.1.45.41.56.75.49.45-.09 2.46-1.13 2.46-1.13s-2.26-.19-2.71-.1zm-7.37 11.02c-.45.09-.56.41-.49.74.09.45 1.13 2.46 1.13 2.46s.19-2.26.1-2.71c-.06-.33-.29-.58-.74-.49zm-10.27-6.87c-.1-.45-.41-.56-.75-.49-.45.09-2.46 1.13-2.46 1.13s2.26.19 2.71.1c.33-.06.59-.29.5-.74zm6.87-10.27c.45-.1.56-.41.49-.74-.09-.45-1.13-2.46-1.13-2.46s-.19 2.26-.1 2.71c.06.32.29.58.74.49zm2.16 26.6c.27.01.55.07.81.02.07-.02.17-.02.21-.06-.12-.07-.26-.07-.4-.09h-1.1c-.3-.03-.62-.04-.91-.15-.08-.03-.15-.1-.22-.02-.11.04-.22.06-.34.07-.2.01-.4-.03-.59-.1.13-.18.29-.35.44-.52-.12-.02-.23-.04-.35-.07.21-.14.4-.31.6-.46-.21.01-.41.04-.6.1-.27.04-.53.13-.79.17l-.11.02-.18.02c.01.05.02.1.02.15 0 .05-.01.1-.02.14-.01.04-.05.09-.08.12-.04.04-.08.08-.13.1-.05.02-.1.03-.15.04-.05 0-.1 0-.15-.02a.42.42 0 0 1-.14-.09l-.16.03c-.05.01-.1.01-.15 0-.05-.02-.11-.03-.16-.05-.05-.02-.1-.05-.15-.08-.2.11-.41.22-.53.42-.07.09-.08.2-.09.31-.01.13.02.27.08.4.02.04.04-.13.1-.15.11-.09.24-.15.38-.19.12-.06.1 0 .05.1-.01.05-.08.23.01.14.39-.17.82-.21 1.23-.24.61-.06 1.21-.08 1.82-.08.6-.01 1.17 0 1.75.02z" style="fill:#ffd000"/><path d="M47.14 44.75c-.31.03-.63-.02-.59.35-.06.29-.67.19-.5.44.19.31-.35.51-.57.64-1.38.52-2.89.19-4.32.37-.83.07-1.83.39-2.06 1.29.61.16 1.12-.35 1.6-.64.14.08-.09.61.14.79.47-.04.77-.55 1.05-.9.23.26-.11.66.1.9.54.05.77-.59 1.16-.84.26-.04-.11.57.1.74.37.16.76-.11.88-.47.18-.51.34-.13.41.19.22.36.63.02.79-.22.19-.49.38-.06.63.15.53.08.7-.55 1.03-.83-.02.31.31.71.59.4.23-.21.25-.66.5-.8.35.13.66.57 1.08.32.25-.18.21-.54.27-.81-.08-.52.35.19.64.15.6.21 1.35-.27 1.25-.94-1.41-.05-2.78-.34-4.18-.28zm10.68-8.22c-.55.18-1.04.81-1.67.61 1.24-.96 2.42-2.06 3.27-3.39.04-.38-.56-.43-.72-.12-.8.77-1.52 1.68-2.54 2.16.98-.94 1.79-2.06 2.49-3.22.15-.34.56-.76.34-1.14-.36-.3-.8-.03-.99.33-.62.81-1.09 1.76-1.89 2.42.7-1.33 1.42-2.75 1.44-4.29 0-.32-.07-.78-.49-.72-.34.06-.26.57-.4.83-.31 1.05-.46 2.19-1.09 3.11.14-.85.39-1.74.2-2.6-.09-.38-.71-.22-.63.16-.74 3.76-3.27 7.06-6.57 8.96-1.51.86-3.2 1.41-4.92 1.66-.46.1-.96.04-1.4.2-1.07.82-1.72 2.19-3.07 2.63-.61.3-1.4.36-1.84.93-.04.07-.04.16-.04.24.29.27.51 0 .77-.14-.02.02-.04.06-.04.09 0 .07.06.13.13.13.08 0 .13-.06.13-.13 0-.08-.06-.14-.13-.14-.03 0-.05.02-.07.03l.06-.03c1.01-.35 1.89-.96 2.76-1.56.53-.44.98-1 1.69-1.14 1.38-.42 2.85-.37 4.23-.75 1.05-1.45 2.85-1.96 4.35-2.79.34-.11.47-.38.57-.69.57-.91 1.35-1.71 2.28-2.25.44-.24.96-.38 1.45-.27-.04.59-.37 1.11-.78 1.52.33-.01.62-.22.96-.21.12.6-.54.92-.88 1.3.19.04.93.1.53.29-.51.36-1.1.6-1.58 1.02.44.08.49.17.04.33-.24.16-.7.22-.75.54.33.2-.15.41-.34.47-.36.08-.73.24-.26.51-.18.27-.56.33-.88.3.09.31.23.65-.17.79-.89.67-1.94 1.17-3.06 1.28 1.4.11 2.85-.15 4.04-.91.16-.19.99-.39.52-.55-.22-.09-.69-.19-.72-.36.65-.4 1.47-.26 2.17-.5.02-.23-.53-.16-.74-.21-.49-.04-.46-.16.01-.21.6-.16 1.27-.19 1.77-.58-.41-.19-.92-.02-1.36-.18.74-.32 1.61-.35 2.27-.84.3-.33-.39-.23-.59-.22-.41.07-.6-.12-.13-.29.79-.58 1.8-.97 2.35-1.81.16-.23.34-.8-.08-.6z" style="fill:#ffd000"/><path d="M27.69 35c.28.25.18-.24.41-.3.24.18.5.34.71.56 1.13.97 1.79 2.37 2.95 3.31.54.46 1.22.69 1.89.87.74.44 1.28 1.14 1.93 1.68.63.58 1.51.65 2.32.7.98.05 2.1.02 2.88.73.26-.32.37-.74.57-1.11-.23-.01-.46-.02-.68-.04-2.51-.15-4.97-1-7.05-2.42-2.52-1.74-4.45-4.33-5.31-7.27-.15-.43-.18-.94-.35-1.34-.21-.17-.52-.08-.55.2-.14.85.07 1.71.22 2.55-.67-1-.82-2.22-1.15-3.35-.11-.21-.06-.64-.4-.59-.4-.01-.42.44-.44.74.02 1.54.75 2.94 1.44 4.28-.81-.68-1.28-1.65-1.93-2.47-.17-.28-.49-.51-.82-.34-.33.12-.15.51-.04.73.62 1.21 1.46 2.29 2.34 3.31.07.13.6.49.26.32-.95-.5-1.65-1.36-2.41-2.1-.16-.29-.75-.23-.7.14.7 1.13 1.67 2.06 2.68 2.92.12.18.61.38.52.5-.69.11-1.15-.59-1.79-.68-.22.05.05.43.15.58.83.88 1.98 1.32 3.07 1.8-.38.16-.81.03-1.21.03-.16.04-.71-.16-.57.09.58.66 1.55.44 2.3.75-.18.15-.43.18-.66.22-.18.08-.62.01-.65.19.42.29.97.23 1.45.36.48.03.27.13-.07.21-.18.08-.5.09-.59.24.56.35 1.25.39 1.89.52-.31.13-.65.17-.94.33.67.25 1.34.53 1.99.82 1.27.56 2.61.98 4.01 1.06-.48-.09-.95-.23-1.41-.39-1.16-.39-2.34-.8-3.4-1.42.24-.18.52-.29.75-.49-.46-.02-.92-.16-1.32-.38-.43-.15.08-.35.24-.52-.03-.16-.44-.19-.63-.28-.29.01-.37-.35-.15-.5.33-.17-.15-.26-.3-.32-.25-.14.05-.44-.07-.6-.59-.1-1.08-.47-1.53-.84.08-.09.51-.07.73-.1a4.68 4.68 0 0 1-1.17-1.22c.12-.09.54-.01.77-.04-.05-.58-.39-1.1-.74-1.56.03-.19.41-.18.56-.07zM11.27 50.74c.5.01.88.25.88.72 0 .51-.26.72-.58.73-.32.01-.46-.21-.46-.36 0-.18.11-.22.24-.22.28 0 .17.43.17.43.17-.1.28-.22.18-.43.14 0 .26-.05.34-.15a.471.471 0 0 0-.34-.15c.08-.23-.03-.34-.22-.39.05.1.07.24.03.34a.53.53 0 0 0-.27-.08c-.26 0-.52.27-.52.64 0 .49.41.96 1.09.79-.23.16-.32.33-.34.48.15-.03.22-.06.31-.01-.12.15-.2.33-.15.49.09-.09.2-.11.32-.1-.21.55.16 1.25.91 1.32 0 0-.43-.66-.43-1.17 0-.93.34-1.27.34-2.1 0-.53-.31-.88-.62-1.04.27-.02.38-.08.54-.3-.08-.15-.23-.27-.46-.33.35-.26.52-.63.52-.97 0-.84-.34-1.04-.34-2.24 0-.37.15-.74.44-1.09-.8.16-1.12.86-.86 1.37-.17.07-.29-.04-.41-.1 0 .28.11.4.19.54 0 0-.14-.01-.26-.06.02.18.1.34.26.42-.69-.11-1.06.33-1.06.87 0 .53.47.67.78.59.01.07.01.15-.03.24.2-.05.29-.16.22-.38.12-.02.21-.08.28-.15a.575.575 0 0 0-.28-.17.263.263 0 0 0-.19-.36s.08.39-.21.39c-.12 0-.2-.07-.2-.24 0-.24.13-.38.47-.38.27 0 .54.23.54.75 0 .42-.42.8-.81.79-.43-.01-.83-.35-.83-.77 0-.27.03-.46.1-.62.63-1.31 2.26-4.69 2.26-4.69.2-.42.28-.69.28-1.13 0-.72-.46-1.27-1.32-1.35.86-.07 1.32-.63 1.32-1.35 0-.44-.08-.71-.28-1.13 0 0-1.63-3.38-2.26-4.69-.08-.16-.1-.35-.1-.62 0-.42.41-.76.83-.77.39-.01.81.36.81.79 0 .52-.27.75-.54.75-.34 0-.47-.14-.47-.38 0-.17.08-.24.2-.24.29 0 .21.39.21.39.14-.03.26-.18.19-.36.11-.02.21-.08.28-.17a.514.514 0 0 0-.28-.15c.07-.22-.02-.33-.22-.38.04.09.04.17.03.24-.31-.09-.78.05-.78.59 0 .53.37.98 1.06.87-.16.08-.25.24-.26.42.13-.05.26-.06.26-.06-.08.14-.19.27-.19.54.13-.06.25-.17.41-.1-.26.51.06 1.2.86 1.37-.29-.35-.44-.72-.44-1.09 0-1.2.34-1.4.34-2.24 0-.35-.18-.72-.52-.97.23-.06.38-.18.46-.33-.08-.15-.23-.27-.46-.33.35-.26.52-.63.52-.97 0-.84-.34-1.04-.34-2.24 0-.37.15-.74.44-1.09-.8.16-1.12.86-.86 1.37-.17.07-.29-.04-.41-.1 0 .28.11.4.19.54 0 0-.14-.01-.26-.06.02.18.1.34.26.42-.69-.11-1.06.33-1.06.87 0 .53.47.67.78.59.01.08.01.15-.03.24.2-.05.29-.16.22-.38.12-.02.21-.08.28-.15a.575.575 0 0 0-.28-.17.263.263 0 0 0-.19-.36s.08.39-.21.39c-.12 0-.2-.07-.2-.24 0-.24.13-.38.47-.38.27 0 .54.23.54.75 0 .43-.42.8-.81.79-.43-.01-.83-.35-.83-.77 0-.27.03-.46.1-.62.63-1.31 2.26-4.69 2.26-4.69.2-.42.28-.69.28-1.13 0-.72-.46-1.27-1.32-1.35.86-.07 1.32-.63 1.32-1.35 0-.44-.08-.71-.28-1.13 0 0-1.63-3.38-2.26-4.69-.08-.16-.1-.35-.1-.62 0-.42.41-.76.83-.77.39-.01.81.36.81.79 0 .52-.27.75-.54.75-.34 0-.47-.14-.47-.38 0-.17.08-.24.2-.24.29 0 .21.39.21.39.14-.03.26-.18.19-.36.11-.02.21-.08.28-.17a.514.514 0 0 0-.28-.15c.07-.23-.02-.33-.22-.38.04.09.04.17.03.24-.31-.09-.78.05-.78.59 0 .53.37.98 1.06.86-.16.08-.25.24-.26.42.13-.05.26-.06.26-.06-.08.14-.19.26-.19.54.13-.06.25-.17.41-.1-.26.51.06 1.2.86 1.37-.29-.35-.44-.72-.44-1.09 0-1.2.34-1.4.34-2.24 0-.35-.18-.72-.52-.97.23-.06.38-.18.46-.33-.16-.22-.27-.28-.54-.3.3-.16.62-.5.62-1.04 0-.83-.34-1.17-.34-2.1 0-.52.43-1.17.43-1.17-.75.08-1.12.77-.91 1.32a.35.35 0 0 1-.32-.1c-.05.15.03.33.15.48-.09.05-.16.02-.31-.01.02.16.11.33.34.48-.67-.17-1.09.29-1.09.79 0 .37.26.64.52.64.08 0 .2-.03.27-.08.05.1.02.24-.03.34.19-.05.3-.16.22-.39a.49.49 0 0 0 .34-.15c-.08-.1-.2-.16-.34-.15.1-.21-.01-.33-.18-.43 0 0 .11.43-.17.43-.12 0-.24-.04-.24-.22 0-.16.14-.38.46-.36.32.01.58.22.58.73 0 .47-.38.71-.88.72-.45.01-.79-.23-.79-.7 0-.53.65-1.63.84-2.29-.34.32-.66.65-.98.98-.1.23-.21.46-.29.66-.03-.08-.07-.16-.1-.25-.14.15-.28.31-.42.47.05.16.09.31.09.42 0 .47-.34.71-.79.7-.08 0-.14-.02-.21-.03-.44.54-.85 1.1-1.25 1.67-.02.08-.03.17-.03.25 0 .84.33 1.04.33 2.24 0 .37-.14.74-.44 1.09.8-.16 1.12-.86.86-1.37.16-.07.28.04.41.1 0-.28-.11-.4-.19-.54 0 0 .14.01.27.06-.02-.18-.1-.34-.27-.42.69.11 1.06-.33 1.06-.86s-.47-.67-.78-.59a.42.42 0 0 1 .03-.24c-.2.05-.29.16-.22.38-.12.02-.2.08-.28.15.07.08.17.14.28.17-.07.18.05.33.2.36 0 0-.08-.39.21-.39.12 0 .19.07.19.24 0 .24-.13.38-.47.38-.28 0-.54-.23-.54-.75 0-.42.43-.8.81-.79.43.01.83.35.83.77 0 .27-.03.46-.1.62-.63 1.31-2.26 4.69-2.26 4.69-.2.42-.28.69-.28 1.13 0 .72.46 1.27 1.32 1.35-.87.02-1.33.57-1.33 1.29 0 .44.08.71.28 1.13 0 0 1.63 3.38 2.26 4.69.08.16.1.35.1.62 0 .42-.41.76-.83.77-.39.01-.81-.36-.81-.79 0-.52.27-.75.54-.75.34 0 .47.14.47.38 0 .17-.08.24-.19.24-.29 0-.21-.39-.21-.39-.14.03-.26.18-.2.36-.11.02-.21.08-.28.17.08.08.17.13.28.15-.07.22.02.33.22.38a.42.42 0 0 1-.03-.24c.31.09.78-.05.78-.59 0-.53-.37-.98-1.06-.87.16-.08.25-.24.27-.42-.13.05-.27.06-.27.06.08-.14.19-.27.19-.54-.13.06-.25.17-.41.1.26-.51-.06-1.2-.86-1.37.29.34.44.72.44 1.09 0 1.2-.33 1.4-.33 2.24 0 .35.18.72.52.97-.23.07-.38.18-.46.34.09.16.23.27.46.33-.35.26-.52.63-.52.97 0 .84.33 1.04.33 2.24 0 .37-.14.74-.44 1.09.8-.17 1.12-.86.86-1.37.16-.07.28.04.41.1 0-.28-.11-.4-.19-.54 0 0 .14.01.27.06-.02-.18-.1-.34-.27-.42.69.11 1.06-.33 1.06-.87 0-.53-.47-.67-.78-.59a.42.42 0 0 1 .03-.24c-.2.05-.29.16-.22.38-.12.02-.2.08-.28.15.07.08.17.14.28.17-.07.18.05.33.2.36 0 0-.08-.39.21-.39.12 0 .19.07.19.24 0 .24-.13.38-.47.38-.28 0-.54-.23-.54-.75 0-.43.43-.8.81-.79.43.01.83.35.83.77 0 .27-.03.46-.1.62-.63 1.31-2.26 4.69-2.26 4.69-.2.42-.28.69-.28 1.13 0 .72.46 1.27 1.32 1.35-.86.07-1.32.63-1.32 1.35 0 .44.08.71.28 1.13 0 0 1.63 3.38 2.26 4.69.08.16.1.35.1.62 0 .42-.41.76-.83.77-.39.01-.81-.36-.81-.79 0-.52.27-.75.54-.75.34 0 .47.14.47.38 0 .17-.08.24-.19.24-.29 0-.21-.39-.21-.39-.14.03-.26.18-.2.36-.11.02-.21.08-.28.17.08.08.17.13.28.15-.07.22.02.33.22.38a.42.42 0 0 1-.03-.24c.31.09.78-.05.78-.59 0-.53-.37-.98-1.06-.87.16-.08.25-.24.27-.42-.13.05-.27.06-.27.06.08-.14.19-.26.19-.54-.13.06-.25.17-.41.1.26-.51-.06-1.2-.86-1.37.29.35.44.72.44 1.09 0 1.2-.33 1.4-.33 2.24 0 .08.01.17.03.25.4.57.81 1.13 1.25 1.67.07-.01.14-.03.21-.03.45-.01.79.23.79.7 0 .12-.04.26-.09.42.14.16.28.31.42.47.04-.08.07-.17.1-.25.08.21.19.44.29.66.32.33.65.66.98.98-.19-.66-.84-1.76-.84-2.29.01-.45.35-.7.8-.68zM9.13 13.86l-.09-.03c.44-.1.81-.27 1.01-.62.2.35.57.52 1.01.62l-.09.03c-.48.06-.82.43-.92.62-.1-.2-.44-.57-.92-.62zm-1.54 7.65c0-.24.06-.47.16-.68.47-1 1.98-4.2 2.3-4.87.32.67 1.83 3.87 2.3 4.87.1.21.16.44.16.68 0 .62-.56.83-.89.83-.38 0-.77-.29-.77-.66 0-.23.12-.37.3-.37.43 0 .41.37.32.6.27-.12.43-.34.38-.56.15-.02.3-.09.43-.24-.11-.13-.23-.23-.43-.24.09-.35-.15-.5-.38-.59.07.26.12.56-.32.56-.32 0-.58.05-.72.26-.01-.28-.04-1.38-.04-1.38-.02-.41.56-.4.92-.28-.13-.48-.42-.74-1.07-.67.16-.07.33-.22.33-.5 0-.39-.32-.82-.52-.95-.21.13-.52.56-.52.95 0 .29.17.44.33.5-.65-.06-.93.19-1.07.67.36-.12.94-.14.92.28 0 0-.03 1.1-.03 1.38-.15-.21-.4-.26-.73-.26-.44 0-.39-.3-.32-.56-.23.08-.47.23-.38.59-.2 0-.33.1-.43.24a.7.7 0 0 0 .43.24c-.04.23.11.44.38.56-.08-.23-.11-.6.32-.6.18 0 .31.14.31.37 0 .36-.39.66-.78.66-.33 0-.89-.22-.89-.83zm3.85 1.41c-.55.06-1.16.4-1.39 1.02-.23-.62-.84-.96-1.39-1.02.55-.06 1.16-.4 1.39-1.02.23.62.83.96 1.39 1.02zm-3.69 2.1c-.1-.21-.16-.44-.16-.68 0-.62.56-.83.88-.83.38 0 .78.29.78.66 0 .23-.13.37-.31.37-.43 0-.4-.37-.32-.6-.27.12-.42.34-.38.56-.15.02-.3.09-.43.24.11.13.23.23.43.24-.09.35.15.5.38.59-.07-.26-.12-.56.32-.56.32 0 .58-.06.73-.27.01.28.03 1.38.03 1.38.02.41-.55.4-.92.28.14.48.42.73 1.07.67-.16.07-.33.22-.33.5 0 .39.32.82.52.95.21-.13.52-.56.52-.95 0-.29-.17-.44-.33-.5.65.06.93-.19 1.07-.67-.36.12-.94.13-.92-.28 0 0 .03-1.1.04-1.38.15.21.4.27.72.27.44 0 .39.3.32.56.23-.08.47-.23.38-.59.2 0 .33-.1.43-.24a.676.676 0 0 0-.43-.24c.04-.23-.11-.44-.38-.56.09.23.11.6-.32.6-.18 0-.3-.14-.3-.37 0-.37.39-.66.77-.66.32 0 .89.22.89.83 0 .25-.06.47-.16.68-.47 1-1.98 4.2-2.3 4.87-.32-.67-1.82-3.86-2.29-4.87zm1.38 7a.169.169 0 0 0-.05-.02c.02-.01.04-.01.05-.02.48-.06.82-.43.92-.61.1.19.44.56.92.61.01.01.03.01.05.02-.02 0-.04.01-.05.02-.48.06-.82.43-.92.61-.1-.19-.44-.56-.92-.61zm-1.54 7.64c0-.24.06-.47.16-.68.47-1 1.98-4.2 2.3-4.87.32.67 1.83 3.87 2.3 4.87.1.21.16.44.16.68 0 .62-.56.83-.89.83-.38 0-.77-.29-.77-.66 0-.23.12-.37.3-.37.43 0 .41.37.32.6.27-.12.43-.34.38-.57.15-.02.3-.09.43-.24-.11-.13-.23-.23-.43-.24.09-.35-.15-.5-.38-.59.07.26.12.56-.32.56-.32 0-.58.06-.72.27-.01-.28-.04-1.38-.04-1.38-.02-.41.56-.4.92-.28-.13-.48-.42-.74-1.07-.67.16-.07.33-.21.33-.5 0-.39-.32-.82-.52-.95-.21.13-.52.56-.52.95 0 .29.17.44.33.5-.65-.07-.93.19-1.07.67.36-.12.94-.14.92.28 0 0-.03 1.1-.03 1.38-.15-.21-.4-.27-.73-.27-.44 0-.39-.3-.32-.56-.23.08-.47.23-.38.59-.2 0-.33.1-.43.24a.7.7 0 0 0 .43.24c-.04.23.11.44.38.57-.08-.23-.11-.6.32-.6.18 0 .31.14.31.37 0 .37-.39.66-.78.66-.33 0-.89-.21-.89-.83zm3.85 1.42c-.55.06-1.16.4-1.39 1.02-.23-.62-.84-.96-1.39-1.02.55-.06 1.16-.4 1.39-1.02.23.62.83.96 1.39 1.02zm-3.69 2.1c-.1-.21-.16-.44-.16-.68 0-.62.56-.83.88-.83.38 0 .78.29.78.66 0 .23-.13.37-.31.37-.43 0-.4-.37-.32-.6-.27.12-.42.34-.38.56-.15.02-.3.09-.43.24.11.13.23.23.43.24-.09.35.15.5.38.59-.07-.26-.12-.56.32-.56.32 0 .58-.06.73-.27.01.28.03 1.38.03 1.38.02.41-.55.4-.92.28.14.48.42.74 1.07.67-.16.07-.33.22-.33.5 0 .39.32.82.52.95.21-.13.52-.56.52-.95 0-.29-.17-.44-.33-.5.65.07.93-.19 1.07-.67-.36.12-.94.14-.92-.28 0 0 .03-1.1.04-1.38.15.21.4.27.72.27.44 0 .39.3.32.56.23-.08.47-.23.38-.59.2 0 .33-.1.43-.24a.676.676 0 0 0-.43-.24c.04-.23-.11-.44-.38-.56.09.23.11.6-.32.6-.18 0-.3-.14-.3-.37 0-.36.39-.66.77-.66.32 0 .89.21.89.83 0 .24-.06.47-.16.68-.47 1.01-1.98 4.2-2.3 4.87-.32-.67-1.82-3.87-2.29-4.87zm2.29 7.61c-.2-.35-.57-.52-1.01-.62l.09-.03c.48-.06.82-.43.92-.61.1.19.44.56.92.61l.09.03c-.44.1-.8.27-1.01.62z" style="fill:#ffd000"/><linearGradient id="a" x1="32" x2="32" y1="62" y2="2" gradientUnits="userSpaceOnUse"><stop offset="0" style="stop-color:#1a1a1a"/><stop offset=".102" style="stop-color:#393939;stop-opacity:.949"/><stop offset=".347" style="stop-color:#7f7f7f;stop-opacity:.8262"/><stop offset=".569" style="stop-color:#b6b6b6;stop-opacity:.7156"/><stop offset=".758" style="stop-color:#dedede;stop-opacity:.6209"/><stop offset=".908" style="stop-color:#f6f6f6;stop-opacity:.5459"/><stop offset="1" style="stop-color:#fff;stop-opacity:.5"/></linearGradient><circle cx="32" cy="32" r="30" style="opacity:.1;fill:url(#a)"/></svg>