<svg xmlns="http://www.w3.org/2000/svg" xml:space="preserve" style="enable-background:new 0 0 64 64" viewBox="0 0 64 64"><circle cx="32" cy="32" r="30" style="fill:#0072ce"/><path d="m17.75 40.62-.59.11-.99.7.15.28-.3.5.1.41 1.12-.34.68.22 1.4-.03 1-.46-1.85-1.81zm24.48 2.56.12 1.6 1.8 1.92.9.2-.91-1.58.58-1.34-.14-1.71z" style="fill:#d9c9c3"/><path d="M19.82 42.32s-.59 2.36 1.26 3.62c0 0-1.2-2.04-.23-3.62h-1.03z" style="fill:#76bc21"/><path d="M20.88 43.42s.02.37-.04.59c-.05.22-.23.88.55 1.45s1.06.69 1.19 1.37c0 0 .07-1.1-.59-1.7-.66-.6-.65-.84-.25-1.23l-.86-.48zm24.4.93s.92-1.28.28-3.49l.68-.89c0 .01 1.17 2.75-.96 4.38" style="fill:#76bc21"/><path d="M46.49 39.9s.98 1.33.62 3.14c0 0 1.4-1.6-.18-3.77l-.33.14-.11.49z" style="fill:#76bc21"/><path d="M36.59 45.4s.28.96.84 1.07c.56.11 1.51-.08 1.43-1.45l-.26-1.31-2.26.75.25.94zm.55-4.39-1.52-.17.29 2.76 2.35-.91z" style="fill:#fff"/><path d="M38.36 40.15s-.52-.5-1.13-.14c-.61.36-.55.94-.12 1.55.42.6 1.05 1.38 1.05 1.38l1.3-.94-1.1-1.85z" style="fill:#fff"/><path d="M39.35 39.39s-.44-.17-.79 0c-.35.17-.71.57-.12 1.57s.87 1.45.87 1.45l1.18-1.06-1.14-1.96zm-.95 4.34s-.02 1.56.74 1.94c.75.38 1.73-.17 1.62-1.37l-.49-1.39-1.87.82z" style="fill:#b1b4b3"/><path d="m27.77 43.18.67-1.62s-.54-.99-.54-.97c.01.02-.66.62-.66.62l-.91 1.67 1.44.3zm13.02-4.46s-.64-.42-1.26.06-.41 1.11-.21 1.46c.19.35.71 1.06 1.22 1.51l1.32-1.28-1.07-1.75z" style="fill:#fff"/><path d="M25.51 45.36s-.02.45.44.9c.3.29.77.45 1.11.22.46-.3.64-1 .63-2l-1.62-.77-.56 1.65z" style="fill:#b1b4b3"/><path d="M26.17 40.32s.37-.42.85-.31c.56.12 1.1.73.68 1.53-.38.73-1.04 1.2-1.22 1.33l-1.53-.82 1.22-1.73zm-2.32 4.26s0 .65.49 1.04c.5.39 1.01.35 1.29.1.29-.25.77-1.04.62-1.82l-1.77-.85-.63 1.53z" style="fill:#fff"/><path d="M41.62 37.56s-.53.1-.79.39c-.26.29-.73 1.03.69 2.65l1.62-1.3-1.52-1.74zM22.1 43.09s-.1 1.21.41 1.63c.48.4.9.4 1.27.28.6-.19.99-1.36.88-1.94l-1.81-1.32-.75 1.35zm3.23-3.73s.38-.09.77.21c.37.29.95 1.17-.92 2.48l-1.24-.69 1.39-2z" style="fill:#b1b4b3"/><path d="M20.7 42.27s-.17 1.05.4 1.43c.57.38.99.21 1.17.02.18-.18.62-.72.59-1.76l-1.25-1.11-.91 1.42zm19.47.66s-.17 1.1.52 1.78c.7.68 1.85.25 1.76-1.21l-.48-1.88-1.8 1.31zm-16.06-4.28s.19-.12.39-.16c.2-.04.67.03.9.46.24.45.49 1.3-1.14 2.69l-1.59-1.08 1.44-1.91z" style="fill:#fff"/><path d="M19.54 41.09s-.06.73.19 1.02c.25.29.45.36.86.35.41-.01.67-.15.88-.4.21-.25.33-.69.33-1.06l-1.06-1.17-1.2 1.26z" style="fill:#b1b4b3"/><path d="M18.63 39.72s-.18.69.07 1.05c.24.34.44.39.72.51.18.07.42.11.78-.17.36-.28.62-.58.68-.96l-.83-1.31-1.42.88z" style="fill:#fff"/><path d="M23.22 37.62s.55.03.88.61c.33.58.06 1.41-1.17 2.4l-1.31-1.12 1.6-1.89zm18.64 3.91s-.08 1.14.03 1.56c.12.42.31.89 1.01.9.77 0 1.24-1.07 1.05-1.81l-.99-1.51-1.1.86zm-23.78-2.64s-.2.45.13.75.72.55 1.1.49c.37-.06.7-.65.79-1.19l-.69-1.42-1.33 1.37z" style="fill:#b1b4b3"/><path d="M21.74 36.77s.36-.24.72-.17c.3.06.49.2.7.44.22.25.3.66.21.99-.13.44-.75 1.1-1.6 1.53l-1.25-1.81 1.22-.98zm21.12-.23s-.56-.14-.94.19c-.42.38-.53.75-.42 1.18.14.57.96 1.18 1.42 1.43l1.37-1.55-1.43-1.25zm-25.45 1.25s-.28.88.37 1.28 1.17.33 1.39-.1c.22-.43.28-.79.31-1.3l-.48-1.2-1.59 1.32z" style="fill:#fff"/><path d="M21 34.95s.49-.33.88.05c.4.38.71.85.2 1.56-.51.71-1.16 1.24-1.44 1.55l-.92-1.75L21 34.95z" style="fill:#b1b4b3"/><path d="M42.86 40.7s-.02.72.17 1.04c.19.32.45.64.93.73.48.09 1.31-.18 1.16-1.33l-1.18-1.57-1.08 1.13z" style="fill:#fff"/><path d="M43.78 39.7s.15.73.48 1.19c.33.47.86.7 1.37.31.52-.38.51-.76.39-1.23l-1.39-1.26-.85.99zm-.2-4.65s-.41-.14-.72.28c-.31.43-.41.87-.1 1.31.38.55 1.31 1.22 1.31 1.22l.87-1.31-1.36-1.5z" style="fill:#b1b4b3"/><path d="M44.47 38.8s.24.77.81 1.17c.51.36 1.68.41 1.49-.83l-1.73-1.52-.57 1.18zm-25.28-4.41s.43-.66.99-1c.56-.34.89.1 1.11.5.22.4.34 1.14-.13 1.68-.47.54-.96 1.03-1.41 1.36l-.56-2.54zm25.42 2.26s-.64-.77-1.01-1.23c-.37-.45-.67-1.22.27-1.97l1.17.08.76 1.66-1.19 1.46z" style="fill:#fff"/><path d="M44.9 37.87s.23.7.68 1.13c.46.43.99.49 1.43.31.45-.18.58-.95.22-1.38l-1.32-1.03-.61-.17-.4 1.14z" style="fill:#b1b4b3"/><path d="M27.94 43s-6.36-1.38-8.65-8.07l-.55 1.14s1.11 6.4 9.26 8.65L27.94 43zm7.77 1.72c9.09-2.25 10.33-8.65 10.33-8.65l-.61-1.14c-2.55 6.7-9.66 8.07-9.66 8.07l-.06 1.72z" style="fill:#c16b13"/><path d="M16.99 36.86s.03.55.18 1.03c.13.42.53.54.72.57.19.02.54.01.79-.34.25-.35.2-.62.18-1.2l-1.87-.06z" style="fill:#b1b4b3"/><path d="M17.47 36.37s-.05.92.69 1.05 1.1-.47.86-1.49l-.35-.79-1.42.38.22.85z" style="fill:#fff"/><path d="M16.2 36.32s.14 1.04.91.94c.72-.09.8-.63.64-1.58l-.24-.77-1.31 1.41zm3.12-2.81c1.29 1.91.67 2.52.33 2.68-.35.16-.79.15-1.06-.16-.27-.3-.52-1.19-.52-1.19l1.25-1.33z" style="fill:#b1b4b3"/><path d="m16.09 34.13.6 1.5s.62.57 1.25.15c.63-.42-.04-1.55-.04-1.55l-1.28-1.27-.53 1.17z" style="fill:#b1b4b3"/><path d="M15.3 34.48s-.23 1.43.4 1.91c.54.41 1.31.1 1.29-.73-.02-.83-.68-1.79-.68-1.79l-1.01.61zm1.35-1.22s.53.95 1.04 1.52c.51.57 1.91.3 1.12-1.19l-1.8-1.55-.36 1.22zM46 36.77s-.25.85.04 1.28c.24.36.92.54 1.28.17.41-.41.28-1.06.26-1.53l-1.58.08z" style="fill:#fff"/><path d="M45.04 35.14s-.43-.19-.53-.53c-.1-.35.06-.66.26-.88l.99-.58.72.75-1.44 1.24zm.49.4s-.23.99.03 1.44c.21.37 1.27 1.04 1.68-.38l-.93-.99-.78-.07z" style="fill:#b1b4b3"/><path d="M46.24 35.83s-.16.32-.48.39c-.35.08-.8.05-1-.45-.2-.52.18-.95.84-1.39l.64 1.45z" style="fill:#b1b4b3"/><path d="M46.31 35.36s-.03.66.15.93.44.36.75.21c.32-.15.52-.99.52-.99l-.87-.66-.55.51z" style="fill:#fff"/><path d="M47.36 35.1s-.47.82-.4 1.52c.07.7.7.87 1.07.61.36-.26.47-.81.33-1.35l-1-.78z" style="fill:#b1b4b3"/><path d="M47.17 35.19s-.19.43-.59.64c-.4.21-.92.31-1.28-.26-.39-.62.19-1.32.62-1.71l1.25 1.33z" style="fill:#fff"/><path d="M36.41 42.06c.17-2.04-.62-4.14-.8-6.18-.08-.97.21-5.43-.75-5.92 1.39-.89 2.05-3.23 1.99-4.82-.05-1.38-.6-1.14-1.52-1.65-.5-.27-1.98-.63-2.59-.46-.74.2-2.44-.5-2.94.26-.34.14-.67.05-1 .12-.9 0-1.22.37-1.97.7-1.98.07-.3 4.36.66 4.99.45.29.82.69 1.27.98-.4.47-.33 1.33-.35 1.9-.04 1.2-.08 2.41-.17 3.61-.18 2.59-.77 5.01-.89 7.58-.06 1.19-1.03 3.36-.39 4.5.44.78 2.27.31 2.66.96.36.59 1.82.37 2.36.37.52 0 .98.36 1.59.39.56-.12 3.53-1.22 3.58-1.54.34-1.93-.9-3.85-.74-5.79z" style="fill:#b1b4b3"/><path d="M36.85 46.97c0-1.98-.5-4.13-.65-6.14-.44-1.35-.68-10.74-1.94-10.74 1.5-1.31 2.75-3.36 2.3-5.52-.12.4-.73 1.21-.79 1.26.07.45 1.21.68.01 1.25-.34.16-1.2 1.1-1.2 1.47.16-.07.56.13.41.24-.51.37-1.49.91-2.09.96-1.02-.49-1.85.66-2.88.25-.06-.15-2.49-1.42-2.93-1.62.38.48 1.74 1.65 2.33 1.65-.47.03-.64.33-.71.89.34-.02.41-.73 1.09-.65 0 .12.19.47.22.59l.02-.46s3.09.07 3.47.1l.28 3.66c.16-.19.22-3.41.14-3.64.59.33.94 6.92.95 7.88 0 .29.44.71.58.95.48.76.43 1.74.43 2.59-.23-.07-.59-.47-.68-.65.02.35 1.04 2.06-.06 1.26-.01 1.64.16 1.23.16 2.02-.15-.3-.44-.42-.44-.76-.33.8.16 1.58.16 2.35.11-.48.31-.51.31-1.06.49-.27 1.27 1.84-.17 2.02.04.18.07.79-.21.83-.05-.58.02-1.04-.16-1.48-.28.92.31 2.25-1.21 2.03-.15-.1-.11-.26-.14-.44-.56 0-.22.44-.82.44-.32.01-.29-1.08-.35-1.14-.12.36-.17.73-.16 1.12-.14.46-.82.05-1.06.28.42.12 1.21.14 1.21-.43 0 1.33 2.61.9 2.61-.23.04.52 2.21.3 1.97-1.13z" style="fill:#1a1626"/><path d="M27.33 26.46c.14-.47.02-1.01-.48-1.24-.61-.29.16-.6.16-.93-.99.5-.58.26-.66 1.31-.08.99-.05 1.71.58 2.57.18-.19.3-.42.35-.68-.03-.05.5.61.58.63.51-.5-.79-.81-.53-1.66zm1.14 19.45c-.36-.86-.12-1.85-.35-2.76-.08.36-.45.59-.47.95-.02.33-.07.32-.15-.02-.22 1.5-1.12 3.28.64 3.83-1.19-.53.46-1.68.33-2zm7.14-21.93-2.38-.76-5.13.49-.51.22.22.25.61.11.61-.27.44.02.57-.07-.7.87.24.34.95.52-.03.61.3.27.2-.26.05.4 1.07-.4-.02.37.83-.86.57.67.93-1.25.64-.37-.24-.21.82-.22.08-.32.27-.11z" style="fill:#fff"/><path d="M29.58 38.55c-.37.39-1.37 3.1-1.04 3.42.41-.1.34-.74.79-.74 0 .61-.05 1.49-.17 2.09-.13.68-.57.41-.5 1.25.11 1.12-.31 2.18-.02 3.3 0-.16.71-1.44.85-1.63.32-.42 0-1.07.35-1.52-.08 1.06.09 2.13.09 3.19.53-1.23.51-3.12.66-4.41.07-.65-.62-3.14.08-3.57 1.48-.89.22-2.75-1.09-1.38z" style="fill:#fff"/><path d="m32.06 26.37 1.91 5.87h6.17l-4.99 3.63 1.9 5.87-4.99-3.63-4.99 3.63 1.9-5.87-4.99-3.63h6.17z" style="fill:#fff"/><path d="m26.76 42.16 2.03-6.23-5.3-3.85h6.55l2.02-6.23 2.02 6.23h6.55l-5.3 3.85 2.03 6.23-5.3-3.85-5.3 3.85zm5.3-4.25 4.69 3.41-1.79-5.51 4.69-3.41h-5.79l-1.79-5.51-1.79 5.51h-5.79l4.69 3.41-1.79 5.51 4.67-3.41z"/><path d="M15.82 29.55s-.36-.04-.59.24c-.26.31-.23 1.03.49 1.66.48.43.59.45.95.72.42.31.71.54.87.66.16.11.81.72 1.01.87.2.16.79.31 1.18-.09.38-.39.26-.85-.29-1.2l-3.62-2.86z" style="fill:#fff"/><path d="M16.29 27.88s-.51-.04-.73.14c0 0-.41.3-.25.97.16.67.64 1.3 1.89 2l.45.49s.36.21.75.7.99.57 1.43.39c.44-.18.63-.77.32-1.26l-3.86-3.43z" style="fill:#b1b4b3"/><path d="M16.03 27.57s-.09.22.17.67c.26.44 1.13 1.22 1.13 1.22l.3.57s.56.73 1.46 1.28c.9.55 1.73.49 1.61-.8l-1.23-.85-2.66-2.31-.78.22z" style="fill:#fff"/><path d="M18.78 29.43s.37.95 1.01 1.23c.65.28 1.72.17 1.27-1.46l-1.76-.84-.52 1.07z" style="fill:#fff"/><path d="M19.3 28.65s.31.72 1.31.83c1 .11 1.87-.75.96-1.7l-3.21-2.12-.15.05s-.65-.33-1.43-.14l-.37.95 2.89 2.13z" style="fill:#b1b4b3"/><path d="M18.56 23.41s-.53-.14-.81.16c-.29.3-.73 1.45.23 2.26.96.82 1.4.66 1.4.66l.03.22s.14-.04.69.64c.55.68 1.4.93 1.94.6.54-.33.74-.87.17-1.57l-2.14-2.5-1.51-.47z" style="fill:#fff"/><path d="M19.88 21.69s-.62-.15-1.01.14c-.39.29-.72.95-.42 1.86.3.91 1.1 1.43 1.28 1.53l.61.06s.22-.19.37.16.68 1.15 1.41 1.15 1.42-.59 1.07-1.42l-1.24-.97-1.45-1.8-.62-.71z" style="fill:#b1b4b3"/><path d="M20.74 20.15s-.56-.31-1.01.16c-.45.47-.39 1.09-.06 1.53.33.44.76.98 1.14 1.33.38.35.63 1.09.73 1.33.11.24.33 1.03 1.23 1.01.89-.02 1.17-.36 1.31-1.39l-.75-.97-.98-1.39-1.61-1.61z" style="fill:#fff"/><path d="M22.61 19.04s-.82-.82-1.55-.32c-.72.49-.65 1.22-.48 1.61.17.39.73 1.15 1.28 1.59l.6.47s.19.52.31.79.34.59.76.81c.42.21.55.69 1.05.47.5-.23.62-.16.62-.16s.24-.05.26-.43l-2.85-4.83z" style="fill:#b1b4b3"/><path d="M23.86 17.69s-.55-.22-.96.08c-.42.3-.75.81-.31 2.33S25 23.9 25 23.9s.42.29.88.11.6-.59.52-1.02l-.92-2.94-1.62-2.36z" style="fill:#fff"/><path d="M25.84 17.19s-.55-.4-1.06-.29c-.51.11-1.5.65-1.13 1.28.37.63 1.38 2.28 1.38 2.28s.16.49.19 1.08c.03.59.35 1.26.83 1.64.5.39 1.88.24 1.78-.92l-.63-2.83-1.36-2.24z" style="fill:#b1b4b3"/><path d="M27.56 16.62s-.53-.65-1.21-.42c-.58.2-.9.65-.74 1.56.16.91.69 1.43 1.11 1.91.42.47.36.7.38 1.05.02.36.14 1.4.87 1.85.74.45 1.78-.06 1.61-1.05l-1.19-4.01-.83-.89z" style="fill:#fff"/><path d="M29.38 16.21s-.46-.9-1.38-.52c-.92.38-1.02 1.86.39 3.19l.39.62s.21.02.16.89c-.06.87.36 1.58.92 1.7.56.12 1.13.11 1.42-.91l-.09-2.31-1.09-.67-.72-1.99z" style="fill:#b1b4b3"/><path d="M43.79 32.72s-.36.32-.13.74c.23.42.52.71 1.15.46.63-.25 1.38-.96 1.7-1.17.32-.2 1.52-1.23 1.52-1.23s1.5-1.43 0-2.15l-4.24 3.35z" style="fill:#fff"/><path d="M43.63 31.39s-.53.46-.28.97.41.68.89.58c.48-.1 1.14-.68 1.49-.99.35-.3 1.34-1.12 1.34-1.12s.62-.4 1-1.1c.39-.69.57-1.49-.5-1.94l-1.82 1.48-2.12 2.12z" style="fill:#b1b4b3"/><path d="M43.02 30.56s-.3.35.08.78c.38.44 1.05.28 1.28.14.23-.13 1.33-.84 1.36-1.22l.49-1.02s.86-.49 1.39-1.19c.53-.69.48-1.58-.5-1.82l-1.1 1.61-1.65 1.52-1.35 1.2z" style="fill:#fff"/><path d="M42.58 29.44s-.33.44 0 .9c.33.47.71.65 1.1.42.39-.23.86-.76 1.15-1.21.3-.45.39-.62.68-.91.3-.29.87-.74 1.13-1.08.26-.34.69-1 .61-1.58-.08-.58-.61-1.15-1.35-.89l-1.53 2.06-1.79 2.29z" style="fill:#b1b4b3"/><path d="M41.86 27.95s0 .01-.01.03c-.05.19-.23 1.15.38 1.52.69.42 1.58-.27 1.74-.65.16-.38.54-1.19.71-1.51.18-.32.94-1.34 1.15-1.67.2-.34 1.03-1.88-.64-2.46l-3.33 4.74z" style="fill:#fff"/><path d="M41.48 26.38v1.41s.14.69.96.31c.82-.38 1.11-.73 1.26-1.32.16-.59.5-1.46.88-2.01.38-.54.83-1.26.82-1.72-.01-.46-.22-1.04-.81-1.1l-2.44 1.88-.67 2.55z" style="fill:#b1b4b3"/><path d="M42.62 23.61s.56.23.46 1.09c-.06.52-.26 1.11-.98 1.72-.73.61-1.56-.02-1.81-1.07l.45-.78 1.05-.92.83-.04z" style="fill:#fff"/><path d="M42.17 23.44s.22 1.1-.49 1.76c-.71.66-2.29.95-2.11-.82l1.22-.94h1.38z" style="fill:#b1b4b3"/><path d="M38.51 23.55s-.11.59.49.92c.6.33 1.63-.17 1.95-.78.32-.61 2.72-1.92 2.72-1.92l.4-.52.09-.34s.06-.97-1.14-1.03l-2.17 1.53-1.61 1.01-.73 1.13z" style="fill:#fff"/><path d="M42.29 21.46s.76-.79.88-1.44c.12-.65-.45-1.12-.76-1.22-.31-.1-.83-.04-1.07.07l-1.75 3.21.8.61 1.9-1.23z" style="fill:#b1b4b3"/><path d="M37.18 22.87s.05.73.47.92c.42.19 1.51.35 2.08-1.1.57-1.45.99-1.7.99-1.7s.86-.99 1.01-1.4c.15-.41.34-.92-.27-1.44-.6-.52-1.17-.11-1.33 0l-1.73 2.39-1.22 2.33z" style="fill:#fff"/><path d="M35.81 22.18s.11.67.51.91.93.34 1.41-.18c.48-.51.59-.98.71-1.33.12-.35.14-.82.46-1.2s1.04-1.21 1.24-1.52c.21-.31.59-1.04-.29-1.7-.88-.65-1.45-.06-1.62.13l-1.61 2.05-.81 2.84z" style="fill:#b1b4b3"/><path d="M34.08 21.57s-.05.71.58 1.01c.63.29 1.38.06 1.74-.7.36-.76.33-1.64.55-2.12.22-.48.33-.6.97-1.18.64-.58.69-1.45.37-1.91-.31-.46-.7-.79-1.39-.72l-2.67 2.31-.15 3.31z" style="fill:#fff"/><path d="M32.58 21.26s.06.47.72.69c.66.22 1.02-.16 1.2-.64.18-.49.09-1.79.08-2.15-.01-.36.76-1.64.76-1.64l.54-1.59s-.32-.9-1.32-.15l-1.14 2.93-.84 2.55z" style="fill:#b1b4b3"/><path d="M30.85 18.89s-.24 3.32 1.2 2.9l.77-2.52-1.97-.38zm3.88-1.88.19-.56s.07-1.99-1.72-1.41l-.25 2.95 1.78-.98z" style="fill:#fff"/><path d="M33.24 17.53s.3-1.1.23-1.76c-.06-.66-.24-1.37-1.28-1.26-1.04.11-1.03 1.51-1.03 1.51l.59 2.41 1.49-.9z" style="fill:#b1b4b3"/><path d="M31.58 18.42s.42-.73.03-1.93-.75-1.57-1.36-1.56c-.61.02-1.2.58-1.04 1.68.16 1.1.46 1.49.85 2.08l.52.57s.51.42.92-.15l.08-.69z" style="fill:#fff"/><path d="M45.42 28.58c-.14.07-.28.06-.28.06s-.26.41.04.99c.13.25.2.58.08.84 0 0 .49 0 .94-.22.45-.21.77-.59.77-.59-.28-.08-.49-.34-.6-.59-.26-.6-.74-.66-.74-.66s-.07.1-.21.17m-.92-1.8c-.14.07-.27.07-.27.07s-.23.42.1.98c.14.24.23.56.12.83 0 0 .49-.03.92-.27.44-.24.73-.63.73-.63-.28-.06-.5-.31-.63-.56-.29-.58-.77-.61-.77-.61s-.07.12-.2.19m-1.12-1.38c-.11.08-.23.1-.23.1s-.15.39.2.83c.15.19.27.46.21.7 0 0 .42-.08.77-.34.35-.26.55-.63.55-.63-.25-.02-.47-.2-.61-.41-.32-.47-.74-.44-.74-.44s-.04.11-.15.19m-1.13-1.32c-.09.09-.2.11-.2.11s-.1.38.28.76c.16.16.3.4.27.64 0 0 .38-.12.68-.4.3-.28.45-.65.45-.65-.24.01-.47-.14-.62-.32-.35-.41-.74-.33-.74-.33s-.03.1-.12.19" style="fill:#e1261c"/><path d="m39.72 22.97 1.88 1.39 3.48-2.56.26-2.27-5.78 2.72-.04.35.2.37" style="fill:#d9c9c3"/><path d="M38.97 20.7c-.09.16-.22.24-.22.24s.03.56.72.91c.29.15.59.41.65.75 0 0 .46-.34.75-.86.28-.52.32-1.09.32-1.09-.32.12-.7.02-.98-.15-.66-.39-1.15-.12-1.15-.12s0 .16-.09.32m-2.07-1.05c-.08.16-.21.25-.21.25s.05.55.73.87c.29.14.58.39.66.71 0 0 .45-.34.71-.86.26-.51.28-1.07.28-1.07-.31.13-.68.04-.96-.12-.66-.37-1.13-.09-1.13-.09s.01.16-.08.31m-2.11-.87c-.05.15-.16.25-.16.25s.12.49.78.7c.28.09.58.28.69.56 0 0 .36-.37.53-.87.17-.5.12-1.01.12-1.01-.26.16-.61.12-.89.01-.65-.25-1.04.07-1.04.07s.02.13-.03.29" style="fill:#e1261c"/><path d="m31.76 19.6.33.28 1-.13.41.41.98-.31 1.11-1.56.47-.11L37.82 13l-4.42 4.21-1.58.3-.24 1.7.18.39" style="fill:#d9c9c3"/><path d="M29.86 18.99c.05.17.01.32.01.32s.41.37 1.13.13c.31-.1.69-.12.97.07 0 0 .09-.56-.07-1.11s-.53-.98-.53-.98c-.14.3-.47.49-.78.57-.73.18-.88.71-.88.71s.1.11.15.29m-2.27.6c.05.17.02.33.02.33s.42.37 1.15.11c.31-.11.7-.13.99.05 0 0 .08-.57-.09-1.13-.17-.56-.56-.99-.56-.99-.13.31-.47.51-.79.6-.74.2-.89.74-.89.74s.12.11.17.29m-2.09.88c.07.15.06.29.06.29s.42.28 1.04-.03c.27-.13.61-.2.89-.07 0 0 .01-.52-.21-1s-.61-.82-.61-.82c-.08.29-.36.51-.64.62-.64.26-.71.76-.71.76s.11.1.18.25" style="fill:#e1261c"/><path d="m23.35 21.93 1.34.08.81-.74.05-1.1.3-.38-.04-1.19-.83-1.06.03-.89-.71-.25-.1-.33-1.25-.81-.16.15.76 1.56-.2.45.06.18-.33.46-.06 1.48-.79.78z" style="fill:#d9c9c3"/><path d="M21.83 22.51c.12.11.16.25.16.25s.49.1.94-.41c.2-.22.49-.4.79-.39 0 0-.18-.48-.56-.83-.38-.36-.86-.52-.86-.52.03.3-.14.6-.35.8-.49.47-.37.96-.37.96s.14.03.25.14m-1.34 1.59c.12.1.17.23.17.23s.49.07.91-.47c.18-.23.45-.44.76-.44 0 0-.22-.46-.62-.79s-.89-.46-.89-.46c.05.3-.1.61-.3.83-.45.51-.3.98-.3.98s.15.02.27.12m-.9 1.56c.12.07.18.17.18.17s.42-.01.69-.51c.12-.21.32-.42.56-.47 0 0-.24-.35-.62-.57-.38-.22-.8-.26-.8-.26.08.24 0 .51-.13.72-.3.48-.11.85-.11.85s.12.01.23.07m-.76 1.63c.12.05.19.15.19.15s.41-.06.63-.59c.09-.23.27-.46.51-.53 0 0-.28-.32-.68-.5s-.83-.17-.83-.17c.11.23.05.51-.05.73-.25.51-.02.86-.02.86s.12-.01.25.05" style="fill:#e1261c"/><path d="m19.2 27.55-2.94-2.7-2.03-.12-.1.13 1.58 1.15.17.8-.21.28 2.43 3.04 1.19-.24.62-1.35-.71-.99" style="fill:#d9c9c3"/><path d="M17.44 30.54c.13 0 .22.06.22.06s.33-.21.32-.74c-.01-.23.06-.49.24-.65 0 0-.36-.17-.77-.18-.41-.01-.77.16-.77.16.18.16.24.42.23.65-.02.53.3.75.3.75s.1-.05.23-.05m-.04 1.96c.15 0 .26.06.26.06s.38-.25.34-.86c-.01-.26.05-.57.25-.75 0 0-.42-.19-.89-.17-.47.01-.88.22-.88.22.21.17.29.48.29.74-.01.62.38.85.38.85s.11-.08.25-.09m.61 3.49c.12-.04.24-.01.24-.01s.26-.3.09-.82c-.08-.22-.09-.5.04-.7 0 0-.4-.06-.81.06-.4.12-.71.39-.71.39.22.1.36.34.42.57.14.53.52.64.52.64s.09-.1.21-.13m-.43-1.71c.13-.02.24.01.24.01s.3-.28.18-.83c-.05-.24-.04-.52.12-.72 0 0-.41-.11-.83-.03-.43.08-.77.33-.77.33.22.12.33.39.37.63.08.56.47.71.47.71s.09-.08.22-.1" style="fill:#e1261c"/><path d="m48.38 34.58-.89-2.08.12-.12-.63-1.63-.9-.39-1.25 1.16 3.09 4.68.68.17-.22-1.79" style="fill:#d9c9c3"/><path d="M39.59 22.64s-.02.18.03 1.33c.05 1.14.21 3.32.62 5.29 0 0 .29-2.25.33-3.31.04-1.06-.06-2.37-.06-2.37l-.92-.94zm1.18 1.09s.32 1.1.38 2.1c.03.6.18 2.25-.02 3.81 0 0 .65-1.44.72-2.56.07-1.13.12-2-.09-2.85l-.99-.5zm-7.32-4.14-1.24-.07c-.01.38.01.33.01.53-.01.29-.06.78-.2 1.12-.14.32-.38.78-.8 1.6-1.17 2.26-.61 3.88-.61 3.88.19-1.33.41-2.01.92-2.87.51-.86 1.42-2.42 1.42-2.42.05.82-.28 1.39-.52 2.52-.23 1.13.42 2.11.42 2.11-.02-.57.01-1.64.49-2.94s.33-1.87.22-2.42c-.12-.55-.11-1.04-.11-1.04zm-9.27 1.94-1.54.81s1.27 1.96.81 3.77c-.47 1.81-.9 3.19.1 4.05 0 0-.56-1.2.22-3.01.68-1.57.58-2.65.58-2.65s.4.55.53.89c.21.55.33 1.61-.04 2.93 0 0 1.7-2.14.41-4.29-.75-1.27-1.07-2.5-1.07-2.5zm-7.31 9.71s-1.61 1.18-1.91 3.63c-.25 1.99.26 3.37.64 4.1 0 0-.44-2.34.32-4.53 0 0-.23 3.19.95 4.53 0 0-1.15-4.05.54-6.83l-.54-.9zm29.84-.74c1.07.99.79 1.99.78 2 1.22 1.99 1.1 5.92 1.1 5.92 1.26-3.07.19-5.91.19-5.91s1.44.53 1.06 3.48c1.24-3.62-.53-4.93-3.13-5.49z" style="fill:#76bc21"/><linearGradient id="a" x1="32" x2="32" y1="62" y2="2" gradientUnits="userSpaceOnUse"><stop offset="0" style="stop-color:#1a1a1a"/><stop offset=".102" style="stop-color:#393939;stop-opacity:.949"/><stop offset=".347" style="stop-color:#7f7f7f;stop-opacity:.8262"/><stop offset=".569" style="stop-color:#b6b6b6;stop-opacity:.7156"/><stop offset=".758" style="stop-color:#dedede;stop-opacity:.6209"/><stop offset=".908" style="stop-color:#f6f6f6;stop-opacity:.5459"/><stop offset="1" style="stop-color:#fff;stop-opacity:.5"/></linearGradient><circle cx="32" cy="32" r="30" style="opacity:.1;fill:url(#a)"/></svg>