<svg xmlns="http://www.w3.org/2000/svg" xml:space="preserve" style="enable-background:new 0 0 64 64" viewBox="0 0 64 64"><path d="M32 2S6.53 8 2 32c0 17.2 14.48 31.02 31.91 29.94 14.94-.93 27.1-13.09 28.03-28.03C63.02 16.48 49.2 2 32 2z" style="fill:#003893"/><path d="M32 2c-4.69 0-9.13 1.09-13.09 3.01L11 11l-5.99 7.91A29.896 29.896 0 0 0 2 32h12V17l12 15h6v-7.5L23.6 14H32V2z" style="fill:#fcfcfc"/><path d="M15.43 14 30 32h2v-4.94L21.43 14z" style="fill:red"/><path d="M18.91 5A30.153 30.153 0 0 0 5 18.91V32h6V11h21V5H18.91z" style="fill:red"/><path d="M34.54 33.85zm0 .01-.04.08.04-.08zm0 0z" style="fill:#d8a322"/><path d="M38.46 26.75c.06-.52-.05-1.06-.44-1.4-.74-.65-1.46-.44-2 .09-.81-.43-1.23 1.11-2.15.85.15.5.39.72.85.54-.48.43 0 .96-.57 1.48 1.02.33 1.57-.24 1.52-1.22.39.35 1 .33 1.33-.06-.54-.18-.55-.65-.33-1.09.34-.66 1.87-.63 1.79.81z" style="fill:#fff300"/><path d="M40.82 34.32c-1.15.61-3.27.35-3.46-1.15-.2-1.5 1.26-2.18 1.65-2.37.61-.31 1.09.24.89.87.68-.24.83-1.02.5-1.48.89.06 1.72-.61 2.07-1.57-.31.3-1.17.1-1.87.05.22-.24.21-.7.15-.95-.74.76-1.81.41-3.22 2.61.22-.76.63-2.29.87-3.29.02-.1.04-.2.05-.3.08-1.44-1.45-1.46-1.78-.81.36.4.17.88.04 1.59-.15.85-.48 2.81-.76 3.46-.09-1.02-.76-1.09-.89-1.59-.2.13-.3.48-.26.72-.24-.26-1.07.07-1.37-.33-.33.65.2 1.31.74 1.59-.32.02-.39.4-.74.4.47.54.95.76 1.5.81.55.04.97.25 1.31.92.55 1.11 2.63 1.81 4.58.82z" style="fill:#00a650"/><path d="M43.69 32.99c-.65 1.81-2.44 3.09-3.24 3.29-1.37.33-4.17 1.69-4.92 2.39a.879.879 0 0 1-.31-.13c-.37-.26-.68-1.11-.02-1.83 2.05-1.92 4.25-1.09 5.62-2.4-1.16.61-3.27.35-3.46-1.16 1.24.33 3.49.35 5.27-1.57.24.28.93 1.11 1.06 1.41z" style="fill:#fff300"/><path d="M43.03 32.15c-.37.55-1.21 1.32-2.01 1.62.17-.2.23-.45.24-.65-1.02.39-3.07.35-3.9.04 1.24.33 3.49.35 5.27-1.57.17.2.32.38.4.56zm-7.83 4.57c-1.67 1.56-.57 2.92.09 3.22-.17 1.09.85.96.83 1.87.41-.24.52-.87.46-1.37.52.57 1.85-.06 2.13.98.17-1.16-.72-2.31-1.83-2.2.46-.41.2-1.09-.24-1.26-.09.85-1.04.85-1.42.59-.37-.27-.67-1.11-.02-1.83z" style="fill:#00a650"/><path d="M50.95 36.74c2.68 2.24 2.85 4.03 2.44 5.07-.22-.98-1.33-2.5-2.48-2.9l.04-2.17z" style="fill:#fff300"/><path d="M50.95 36.74c1.83 1.26 3.18 2.48 3.57 4.44.39 1.96 1.13 2.48 2.05 1.96-.22 1.13-1.35 1.26-2.31.39.09 1.31-.43 2.88-1.79 3.44-.09-.78.43-1.4.28-2.05-.06-.28-.09-.94.28-1.24-.72.24-1.85-.22-1.96-1.29.83.39 1.89.46 2.31-.59.42-1.03.25-2.82-2.43-5.06z" style="fill:#00a650"/><path d="M52.8 46.98c.13-.17.16-.43-.04-.55-.17-.11-.39-.15-.48.21-.08.36-.87.41-.69 1.14-.22.04-.44.16-.56.35-.2.32-.98.71-1.28.76.09.13.35.29.56.23-.11.52.23.69.4.59-.01.23.25.51.45.36.13.35.5.44.68.17.16.23.58.14.78.05-.32-.02-.3-.9-.24-1.26.07-.43.05-.7-.02-.87.49-.23.21-.89.44-1.18z" style="fill:#fff300"/><path d="M46.16 35.47h4.96v5.88c0 5.01-2.79 7.97-5.62 9.54-2.83-1.57-5.62-4.53-5.62-9.54v-5.88h3.49c.01.3.03.76.39 1.22.82-.08 1.75-.69 2.4-1.22z" style="fill:#00a650"/><path d="M51.12 35.47v5.88c0 1.51-.25 2.84-.69 3.99L45.5 36.3l-4.93 9.05c-.43-1.16-.69-2.48-.69-3.99v-5.88h11.24z" style="fill:#006ec7"/><path d="M50.58 44.92c-.09.27-.25.7-.37.96l-4.71-8.76-4.71 8.76c-.12-.27-.28-.7-.37-.96l5.08-9.42 5.08 9.42z" style="fill:#fff300"/><path d="M48.44 46.45c-.28.72-1.24.7-1.5 1.13.16.08.31.19.44.28-.33.33-1.09.88-1.53 1.01v-4.63c.51-.03 1.29-.11 1.63-.11.11 0 .2-.17.2-.37 0-.21-.09-.37-.2-.37-.36 0-1.24-.09-1.74-.11v-.92c0-.22-.04-.54-.24-.54-.12 0-.18.12-.21.25-.1-.04-.2-.07-.32-.07-.38 0-.7.29-.7.64s.31.64.7.64c.11 0 .21-.02.29-.06v.06c-.49.03-1.37.11-1.73.11-.11 0-.2.16-.2.37 0 .2.09.37.2.37.33 0 1.12.07 1.62.11v4.63c-.24-.7-1.18-.46-1.61-1.15.17-.04.35-.05.52-.02-.33-1.11-1.22-1.2-1.39-1.52 0 .46-.2 1.52.11 1.98.07-.08.17-.17.3-.24.37.81 2.04.81 2.43 2.14.31-.49 1.45-1.06 2.24-1.91.13.07.37.19.48.23.26-.53.3-1.27.21-1.93zm-3.47-3.4c-.25 0-.45-.18-.45-.41 0-.22.2-.41.45-.41.12 0 .22.04.29.1v.61c-.08.08-.18.11-.29.11z" style="fill:#f7e017"/><path d="M44.5 39.26h1.87v2.1H44.5z" style="fill:#fcfcfc"/><path d="M39.52 37.23c-.84.71-1.64 1.75-1.83 2.68-.55 2.64-1.29 3.22-2.42 2.66 0 1.42 1.24 1.53 1.79.7 0 1.33.48 2.48 1.57 3.46.46.41.54.13.33-.33-.22-.46-.22-1.94-.65-2.79.7.5 1.72.22 1.63-1.15-.89.52-1.78.5-1.87-.74-.12-1.45.44-3.57 1.45-4.49z" style="fill:#fff300"/><path d="M39.52 37.23c-1.04.88-1.57 3.03-1.46 4.49.03.4.14.68.32.85.08-.83.65-2.97 2.12-3.92 1.24-.81 3.18-2.62 3.9-4.68-.13-.37-.35-.63-.76-.89-.72 1.95-2.63 2.89-4.12 4.15z" style="fill:#00a650"/><path d="M40.3 48.22c-.1-.18-.29-.3-.49-.34.18-.65-.52-.73-.58-1.05-.06-.33-.27-.29-.42-.21-.18.11-.17.34-.05.49.2.27-.08.84.37 1.07-.07.15-.1.39-.05.78.04.32.02 1.11-.26 1.12.17.09.54.18.7-.02.15.25.48.18.61-.13.17.14.41-.1.41-.3.15.1.46-.04.38-.51.19.07.43-.06.51-.19-.28-.05-.97-.42-1.13-.71z" style="fill:#fff300"/><path d="M48.96 34.34c.28.31.37.73.22 1.13h-.41c.17-.52.06-1.02-.68-1.09-1.11-.1-2.4 2.05-4.33 2.31-.57-.68-.54-1.96.18-2.57-.37-1.07-1.16-2.25-1.7-2.76a4.85 4.85 0 0 0-1.03-.07c.28-.61 1.09-1.25 1.74-1.51.11-.15.22-.3.32-.44.07-.84 4.05-.45 4.9.07.01.95.38 4.08.79 4.93z" style="fill:#96877d"/><path d="M53.26 26.55c.57-1.48 2.05-1.33 2.55-.7 1.46-.83 1.65 1.04 2.9.68-.02.35-.44.68-.89.65.48.44-.2 1.09.83 1.48-.87.43-2.09-.02-2.42-1.22-.29.56-1.32.56-1.73.11.89-.24.83-1.07.33-1.39-.51-.34-1.4-.2-1.57.39zm-4.42 3.26c.41 1.31 1.25 2.53 2.15 3.36 1.04.96 2.63.72 3.51-.2.02 1.82-1.87 1.96-2.92 1.39-.46-.25-.84-.12-.39.28.68.61 2.15 1.06 3.9 1.44 3.05.65 1.96 3.07 1.07 3.05.26-.01.47-.27.1-.61-2.65-2.38-8.03-1.44-7.94-6.76-.56 1.39-2.89.85-1.81-.81.35.28 1.46.18 1.13-1.1l1.2-.04z" style="fill:#00a650"/><path d="M51.58 34.36c1.26.83 2.69.83 4.01-.7.41-.48 1.07-.89 1.52-.94.46-.04.44-.48.79-.57-.22-.06-.3-.33-.63-.29.82-.28.58-.94.98-1.25-.33.12-.84-.37-1.31.25.12-.28-.04-.62-.16-.75.04.33-.64.39-.77 1.22-.07.46-.33.43-.37-.28-.03-.53-.28-1.98-.59-2.72-.3-.74-.38-1.76.04-1.91-.06-.1-.15-.2-.26-.27-.5-.33-1.39-.2-1.57.39-.56 1.48 1.02 2.33.89 3.94-.24-1.2-2.18-1.5-2.15-2.68-.63.28-.54.81-.3 1.22-.39-.61-1.29.39-2.05-.44-.09 1.09.87 1.5 1.65 1.54-.39.7.13 1.29.65 1.48.02-1.22 2.52-.72 2.55 1.37.02 1.81-1.9 1.96-2.92 1.39zm3.5 1.72c3.05.65 1.96 3.07 1.07 3.05-.57-.01-1.11-.49-1.14-.9-.65.35-.48 1.04.02 1.31-1.37-.16-1.95.74-1.98 1.73.25-.46 1.01-.49 1.3-.39.28.1 1.01.15 1.31-.18-.24.21.15.69-.19 1.05 1.14-.04 1.64-1.11 1.45-1.58 1.48-1.34 1.19-3.54-1.84-4.09z" style="fill:#fff300"/><path d="M48.82 28.99h-5.48l-.79-2.97 7.34-1.92z" style="fill:#96877d"/><path d="M43.03 28.66h5.87V30h-5.87z" style="fill:#fff300"/><linearGradient id="a" x1="32" x2="32" y1="62" y2="2" gradientUnits="userSpaceOnUse"><stop offset="0" style="stop-color:#1a1a1a"/><stop offset=".102" style="stop-color:#393939;stop-opacity:.949"/><stop offset=".347" style="stop-color:#7f7f7f;stop-opacity:.8262"/><stop offset=".569" style="stop-color:#b6b6b6;stop-opacity:.7156"/><stop offset=".758" style="stop-color:#dedede;stop-opacity:.6209"/><stop offset=".908" style="stop-color:#f6f6f6;stop-opacity:.5459"/><stop offset="1" style="stop-color:#fff;stop-opacity:.5"/></linearGradient><circle cx="32" cy="32" r="30" style="opacity:.1;fill:url(#a)"/></svg>