<svg xmlns="http://www.w3.org/2000/svg" xml:space="preserve" style="enable-background:new 0 0 64 64" viewBox="0 0 64 64"><circle cx="32" cy="32" r="30" style="fill:#e81c27"/><path d="M8.44 13.45v37.1L42 32z" style="fill:#ffe000"/><path d="M8.44 13.44C4.41 18.55 2 24.99 2 32s2.41 13.45 6.44 18.56L30 32 8.44 13.44z" style="fill:#1a1626"/><path d="m10.9 33.73.98 5.54 2.3-4.91 5.25 1.01-3.83-4.07 2.27-4.92-4.66 2.39-3.85-4.04.95 5.54-4.66 2.42z" style="fill:#fcfcfc"/><linearGradient id="a" x1="32" x2="32" y1="62" y2="2" gradientUnits="userSpaceOnUse"><stop offset="0" style="stop-color:#1a1a1a"/><stop offset=".102" style="stop-color:#393939;stop-opacity:.949"/><stop offset=".347" style="stop-color:#7f7f7f;stop-opacity:.8262"/><stop offset=".569" style="stop-color:#b6b6b6;stop-opacity:.7156"/><stop offset=".758" style="stop-color:#dedede;stop-opacity:.6209"/><stop offset=".908" style="stop-color:#f6f6f6;stop-opacity:.5459"/><stop offset="1" style="stop-color:#fff;stop-opacity:.5"/></linearGradient><path d="M62 32c0 16.57-13.43 30-30 30S2 48.57 2 32 15.43 2 32 2s30 13.43 30 30z" style="opacity:.1;fill:url(#a)"/></svg>