<svg xmlns="http://www.w3.org/2000/svg" xml:space="preserve" style="enable-background:new 0 0 64 64" viewBox="0 0 64 64"><path d="M61.71 28h-1.42v-5.98c-1.03-2.9-2.47-5.6-4.29-8.02h-6V8c-5.01-3.77-11.25-6-18-6C15.43 2 2 15.43 2 32c0 1.36.11 2.69.29 4h1.43v5.98A29.59 29.59 0 0 0 8 50h6v6c5.01 3.77 11.25 6 18 6 6.76 0 12.99-2.25 18-6.02V50h5.99a29.78 29.78 0 0 0 4.29-8v-6h1.44c.18-1.31.28-2.64.28-4 0-1.36-.11-2.69-.29-4z" style="fill:#fcfcfc"/><path d="M3.71 42h56.57c.68-1.92 1.16-3.93 1.44-6H2.27c.28 2.07.77 4.08 1.44 6zM8 50c1.71 2.27 3.73 4.29 6 6h36c2.27-1.71 4.29-3.73 6-6H8zm24-36h24a30.453 30.453 0 0 0-6-6H32v6zm0 14h29.73c-.28-2.07-.76-4.08-1.44-6H32v6z" style="fill:#0000b3"/><path d="m18 32.5-.96-5.26c-.79.87-.98 1.58-1.15 2.21-.21.78-.37 1.4-1.67 1.82l-.42.14.31-.31c.79-.77.74-1.18.65-1.87-.08-.63-.19-1.49.37-2.98l-4.58 3.17 3.04-4.39c-1.17.05-1.81.42-2.37.75-.42.24-.78.46-1.26.46-.35 0-.73-.11-1.2-.35l-.39-.2h.5c1.06 0 1.32-.33 1.75-.88.4-.5.93-1.18 2.35-1.83L7.5 22l5.25-.96c-.87-.79-1.58-.98-2.21-1.15-.78-.21-1.4-.37-1.82-1.67l-.14-.42.3.31c.56.58.94.7 1.34.7.17 0 .34-.02.54-.05.24-.03.51-.06.84-.06.65 0 1.35.14 2.13.43l-3.16-4.57 4.39 3.04c-.05-1.17-.42-1.81-.75-2.37-.41-.7-.73-1.25-.11-2.46l.2-.39-.01.44c-.01 1.12.34 1.42.93 1.91.52.43 1.15.97 1.77 2.25l1-5.49.96 5.25c.79-.87.98-1.58 1.15-2.21.21-.78.37-1.4 1.67-1.82l.42-.13-.31.3c-.79.77-.74 1.19-.65 1.88.08.63.18 1.49-.37 2.97l4.58-3.17-3.04 4.39c1.17-.05 1.81-.42 2.37-.75.42-.25.78-.46 1.26-.46.35 0 .73.11 1.2.35l.39.2h-.5c-1.06 0-1.33.33-1.79.89-.41.5-.95 1.16-2.34 1.81l5.51 1-5.25.96c.87.79 1.58.98 2.21 1.15.78.21 1.4.37 1.82 1.67l.14.42-.31-.31c-.57-.58-.95-.7-1.36-.7-.17 0-.34.02-.54.04-.24.03-.5.06-.83.06-.65 0-1.35-.14-2.12-.42l3.17 4.58-4.39-3.04c.05 1.17.42 1.81.75 2.37.41.7.73 1.25.11 2.46l-.2.39.01-.44c.01-1.11-.32-1.38-.88-1.82-.5-.4-1.17-.94-1.82-2.35L18 32.5z" style="fill:#7b3f00"/><path d="M15.36 25.99c-1.38 3.34.47 3.58-1.16 5.18 2.64-.86.36-2.45 4.09-5.15l-.91-1.35-2.02 1.32zm.31-2.54-2.3-.51c-3.34 1.38-2.25 2.89-4.54 2.86 2.47 1.26 1.99-1.48 6.53-.75l.31-1.6zm-1.7-1.16 1.35-.91-1.3-2.01c-3.34-1.38-3.6.47-5.2-1.17.87 2.63 2.46.36 5.15 4.09zm.98-2.94 1.6.32.59-2.12c-1.38-3.34-2.97-2.43-2.94-4.72-1.26 2.47 1.48 1.99.75 6.52zm6.85-6.53c-2.64.86-.36 2.45-4.09 5.15l.91 1.35 2.01-1.3c1.38-3.33-.47-3.6 1.17-5.2zm-1.47 7.72 2.24.52c3.34-1.38 2.31-2.9 4.61-2.87-2.47-1.25-1.99 1.48-6.53.75l-.32 1.6zm1.7 1.17-1.35.91 1.26 1.99c3.34 1.38 3.64-.45 5.24 1.19-.87-2.64-2.46-.37-5.15-4.09zm-.98 2.93-1.6-.32-.52 2.28c1.38 3.34 2.89 2.28 2.86 4.57 1.27-2.47-1.47-1.99-.74-6.53z" style="fill:#ffe000"/><path d="m15.67 23.48-.71-.13.01.03c-1.91.47-2.94 1.26-3.75 1.86-.41.3-.75.55-1.13.69-.25.09-.52.13-.79.09 1.97.7 1.84-1.63 6.07-.95l.3-1.59zm-1.75-1.17 1.35-.91-.41-.6-.02.03c-1.68-1.02-2.97-1.19-3.97-1.34-.5-.08-.93-.14-1.29-.31a1.65 1.65 0 0 1-.62-.49c.89 1.88 2.45.15 4.96 3.62zm.99-2.96 1.6.32.13-.71-.03.01c-.47-1.91-1.26-2.94-1.86-3.75-.3-.41-.56-.76-.69-1.14-.09-.25-.13-.52-.09-.79-.71 1.96 1.62 1.84.94 6.06zm5.59-4.45c.07-.5.14-.93.31-1.29.11-.24.28-.46.49-.62-1.89.9-.15 2.45-3.62 4.96l.91 1.35.6-.41-.03-.02c1.02-1.68 1.19-2.97 1.34-3.97zm-.17 5.61.71.13-.01-.03c1.91-.47 2.94-1.26 3.75-1.86.41-.3.75-.56 1.13-.69.25-.09.52-.13.79-.09-1.97-.7-1.84 1.63-6.07.95l-.3 1.59zm1.71 1.16-1.35.91.41.6.02-.03c1.68 1.02 2.97 1.19 3.97 1.34.5.08.93.14 1.29.31.24.11.46.28.62.49-.89-1.89-2.45-.15-4.96-3.62zm-.93 2.97-1.6-.32-.13.71.03-.01c.47 1.91 1.26 2.94 1.86 3.75.3.41.55.76.69 1.14.09.25.13.52.09.79.71-1.96-1.62-1.83-.94-6.06zm-4.3.47.03.02c-1.02 1.68-1.19 2.97-1.34 3.97-.08.5-.14.93-.31 1.29-.11.24-.28.46-.49.62 1.89-.9.15-2.45 3.62-4.96l-.91-1.35-.6.41z" style="fill:#7b3f00"/><path d="m21.03 23.25 6.9-1.25-6.9-1.26 3.99-5.76-5.77 3.99-1.25-6.9-1.26 6.9-5.76-3.99 3.99 5.76L8.07 22l6.9 1.25-3.99 5.77 5.76-3.99 1.26 6.9 1.25-6.9 5.77 3.99z" style="fill:#ffe000"/><path d="m20.33 22.09 7.6-.09-8.15-1.59 5.24-5.43-6.87 4.63-.15-7.54-1.6 8.25-5.42-5.34 4.61 6.84-7.52.18 8.13 1.58-5.22 5.44 6.95-4.55.07 7.46 1.56-8.09 5.46 5.18z" style="fill:#7b3f00"/><path d="M18 25.49c-1.92 0-3.49-1.56-3.49-3.49A3.5 3.5 0 0 1 18 18.51 3.5 3.5 0 0 1 21.49 22 3.5 3.5 0 0 1 18 25.49z" style="fill:#7b3f00"/><path d="M18 18.69c1.83 0 3.31 1.48 3.31 3.31s-1.48 3.31-3.31 3.31-3.31-1.48-3.31-3.31 1.48-3.31 3.31-3.31z" style="fill:#ffe000"/><path d="M19.23 20.19c-.24.03-.99.57-.87.66.12.09.24-.36.99-.36s.87.42 1.08.18c-.26-.27-.96-.51-1.2-.48z" style="fill:#7b3f00"/><path d="M19.38 20.79c-.48 0-.78.06-.81.42v.03c.17-.15.25-.23.36-.27-.06.19.15.43.33.51-.33 0-.48-.36-.6-.18-.09.12.36.3.69.3.33 0 .84-.51.63-.36-.04.03-.08.06-.12.08.05-.1.03-.19-.02-.27.17.09.29.19.41.19-.17-.08-.39-.45-.87-.45zm.42.57c-.09.05-.18.08-.28.1.13-.11.2-.36.07-.5.07.01.13.03.18.05.05.1.1.23.03.35zm-2.4 1.12c.03-.18.12-.15.12-.27-.27.06-.18.45-.42.48-.24.03-.36.3-.33.27.15-.12.48-.21.72-.21s.3.15.51.15c.21 0 .27-.15.51-.15s.57.09.72.21c.03.03-.09-.24-.33-.27-.24-.03-.15-.42-.42-.48 0 .12.09.09.12.27 0 .15-.27.15-.33 0 .06.24-.12.24-.27.24s-.33 0-.27-.24c-.06.15-.33.15-.33 0zm2.01.75c.04.06.1.14.16.22-.34-.03-.9-.22-1.09-.22-.24 0-.3.06-.48.06s-.24-.06-.48-.06c-.19 0-.75.21-1.09.22.06-.08.12-.17.16-.22-.24.18-.3.27-.33.48.04-.06.1-.15.16-.25.02 0 .04.01.06.02.88.39.8.53 1.53.53s.64-.14 1.53-.53c.02-.01.04-.01.05-.02.06.09.12.18.16.25-.04-.21-.1-.3-.34-.48zm-.42.36c-.29.09-.52.19-.99.19s-.7-.09-.99-.19c.17-.01.4-.06.99-.06s.82.05.99.06zm-1.35-2.73c.12-.09-.63-.63-.87-.66-.24-.03-.93.21-1.2.48.21.24.33-.18 1.08-.18.75-.01.87.45.99.36z" style="fill:#7b3f00"/><path d="M17.34 21.31c-.12-.18-.27.18-.6.18.19-.08.4-.32.33-.51.11.04.19.11.36.27v-.03c-.03-.36-.33-.42-.81-.42-.48 0-.69.36-.87.45.12 0 .24-.1.41-.19-.05.08-.07.17-.02.27-.04-.02-.08-.05-.12-.08-.21-.15.3.36.63.36s.78-.18.69-.3zm-1.1-.29c.05-.02.11-.04.18-.05-.14.14-.07.39.07.5a.774.774 0 0 1-.28-.1c-.08-.13-.03-.26.03-.35zM18 24.29c-.15 0-.54.09 0 .09s.15-.09 0-.09z" style="fill:#7b3f00"/><linearGradient id="a" x1="32" x2="32" y1="62" y2="2" gradientUnits="userSpaceOnUse"><stop offset="0" style="stop-color:#1a1a1a"/><stop offset=".102" style="stop-color:#393939;stop-opacity:.949"/><stop offset=".347" style="stop-color:#7f7f7f;stop-opacity:.8262"/><stop offset=".569" style="stop-color:#b6b6b6;stop-opacity:.7156"/><stop offset=".758" style="stop-color:#dedede;stop-opacity:.6209"/><stop offset=".908" style="stop-color:#f6f6f6;stop-opacity:.5459"/><stop offset="1" style="stop-color:#fff;stop-opacity:.5"/></linearGradient><path d="M62 32c0 16.57-13.43 30-30 30S2 48.57 2 32 15.43 2 32 2s30 13.43 30 30z" style="opacity:.1;fill:url(#a)"/></svg>