<svg xmlns="http://www.w3.org/2000/svg" xml:space="preserve" viewBox="0 0 64 64"><circle cx="31.999" cy="32" r="30" fill="red"/><path fill="#FCFCFC" d="m41.347 39 .011-5.355L35.999 32l5.359-1.645L41.347 25l3.3 4.34 5.352-1.666L46.681 32l3.318 4.326-5.352-1.666z"/><path fill="#FCFCFC" d="M33.249 44c-6.553 0-11.865-5.373-11.865-12s5.313-12 11.865-12c2.51 0 4.834.791 6.75 2.135C37.28 18.988 33.286 17 28.829 17c-8.191 0-14.83 6.717-14.83 15 0 8.285 6.639 15 14.83 15 4.457 0 8.451-1.988 11.17-5.133A11.708 11.708 0 0 1 33.249 44z"/><linearGradient id="a" x1="32.002" x2="32.002" y1="62" y2="2.001" gradientUnits="userSpaceOnUse"><stop offset="0" style="stop-color:#1a1a1a"/><stop offset=".102" style="stop-color:#393939;stop-opacity:.949"/><stop offset=".347" style="stop-color:#7f7f7f;stop-opacity:.8262"/><stop offset=".569" style="stop-color:#b6b6b6;stop-opacity:.7156"/><stop offset=".758" style="stop-color:#dedede;stop-opacity:.6209"/><stop offset=".908" style="stop-color:#f6f6f6;stop-opacity:.5459"/><stop offset="1" style="stop-color:#fff;stop-opacity:.5"/></linearGradient><circle cx="32.001" cy="32" r="30" fill="url(#a)" opacity=".1"/></svg>