<svg xmlns="http://www.w3.org/2000/svg" xml:space="preserve" style="enable-background:new 0 0 64 64" viewBox="0 0 64 64"><path d="M32 2C18.94 2 7.83 10.35 3.71 22h56.57C56.17 10.35 45.06 2 32 2z" style="fill:#fcfcfc"/><path d="M32 62c13.06 0 24.17-8.35 28.29-20H3.71C7.83 53.65 18.94 62 32 62z" style="fill:red"/><path d="M3.71 22a30.086 30.086 0 0 0 0 20h56.57C61.39 38.87 62 35.51 62 32s-.61-6.87-1.71-10H3.71z" style="fill:#0038b8"/><path d="M33.89 19H14v13.83C14 42 23.59 44.76 24 45c.41-.24 10-3 10-12.17V19h-.11z" style="fill:#fcfcfc"/><path d="M16 21v11.91c0 5.61 4.26 8.57 8 10.09 3.74-1.52 8-4.48 8-10.09V21H16z" style="fill:red"/><path d="M23 23h2v14h-2z" style="fill:#fcfcfc"/><path d="M19 29h10v2H19zm2-4h6v2h-6z" style="fill:#fcfcfc"/><path d="M24 35c-1.31 0-2.46.64-3.2 1.62-.5-.39-1.12-.62-1.8-.62-.84 0-1.6.35-2.14.91 1.43 3.1 4.42 4.98 7.15 6.09 2.73-1.11 5.72-2.99 7.15-6.09-.56-.56-1.32-.91-2.16-.91-.68 0-1.3.23-1.8.62-.74-.98-1.89-1.62-3.2-1.62z" style="fill:#0038b8"/><linearGradient id="a" x1="32" x2="32" y1="62" y2="2" gradientUnits="userSpaceOnUse"><stop offset="0" style="stop-color:#1a1a1a"/><stop offset=".102" style="stop-color:#393939;stop-opacity:.949"/><stop offset=".347" style="stop-color:#7f7f7f;stop-opacity:.8262"/><stop offset=".569" style="stop-color:#b6b6b6;stop-opacity:.7156"/><stop offset=".758" style="stop-color:#dedede;stop-opacity:.6209"/><stop offset=".908" style="stop-color:#f6f6f6;stop-opacity:.5459"/><stop offset="1" style="stop-color:#fff;stop-opacity:.5"/></linearGradient><circle cx="32" cy="32" r="30" style="opacity:.1;fill:url(#a)"/></svg>