<svg xmlns="http://www.w3.org/2000/svg" xml:space="preserve" style="enable-background:new 0 0 64 64" viewBox="0 0 64 64"><path d="M32 2C21.74 2 12.7 7.15 7.29 15h49.43C51.3 7.15 42.26 2 32 2zm0 60c10.26 0 19.3-5.15 24.71-13H7.29C12.7 56.85 21.74 62 32 62z" style="fill:#0038b8"/><path d="M59.04 19H4.96C3.06 22.93 2 27.34 2 32s1.06 9.07 2.96 13h54.09C60.94 41.07 62 36.66 62 32s-1.06-9.07-2.96-13z" style="fill:#da2b26"/><path d="M4.96 45c.67 1.4 1.46 2.73 2.33 4h49.43c.87-1.27 1.66-2.6 2.33-4H4.96zm54.08-26c-.67-1.4-1.46-2.73-2.33-4H7.29c-.87 1.27-1.66 2.6-2.33 4h54.08z" style="fill:#ffe000"/><path d="m53.54 26.82-2.75.97 2.75.97 2.75-.97z" style="fill:#fcfcfc"/><path d="M11.99 27.47h39.74c.19 0 .35.15.35.32 0 .18-.16.32-.35.32H11.99c-.19 0-.35-.14-.35-.32 0-.17.16-.32.35-.32z" style="fill:#ffe000"/><path d="m50.9 28.77-2.75.97 2.75.97 2.75-.97z" style="fill:#fcfcfc"/><path d="M9.36 29.41H49.1c.19 0 .35.14.35.32s-.16.32-.35.32H9.36c-.2.01-.36-.13-.36-.31s.16-.33.36-.33zm-4.38 2.11h54.04c.26 0 .48.22.48.49s-.21.49-.48.49H4.98c-.26 0-.48-.22-.48-.49 0-.28.21-.49.48-.49z" style="fill:#ffe000"/><path d="M47.92 31.96c-1.61-1.61-3.5-4.04-6.07-6.07-2.57-2.03-5.82-3.65-10.15-3.65-3.79 0-7.04 1.63-9.74 3.65-2.7 2.03-4.86 4.46-6.48 6.07l-.04.04.04.04c1.62 1.62 3.78 4.04 6.48 6.07 2.7 2.03 5.95 3.65 9.74 3.65 4.33 0 7.58-1.62 10.15-3.65 2.57-2.03 4.46-4.46 6.07-6.07l.04-.04-.04-.04z" style="fill:#1a1626"/><path d="M47.88 32c-3.24 3.23-7.55 9.71-16.18 9.71-7.55 0-12.94-6.47-16.18-9.71 3.24-3.24 8.63-9.71 16.18-9.71 8.63 0 12.94 6.47 16.18 9.71z" style="fill:#fcfcfc"/><path d="M30.57 25.67c.86.97.14 1.36 1.05 1.42.96.07.42 1.02 1.22 1.06.56.02-.06 2.28.49 3.03.55.78 1.02.23 1.03.79.01.58-1.51.52-1.54 2.31-.04 1.03-1.28 1.1-1.34 1.76-.07.62 2.44.97 2.4 1.53-.03.56-2.71.47-2.82 1.1-.06.57 3.67 1.04 3.97 2.69-.56.18-2.14.35-3.34.35-7.55.01-12.94-6.47-16.18-9.71 3.24-3.24 8.63-9.71 16.18-9.71.01 0-2.23 2.05-1.12 3.38z" style="fill:#1a1626"/><path d="M22.21 31.14v-2.59h-.52v2.59h.52zm1.05-2.59v2.59h.52v-2.59h-.52zm1.57 0v2.59h.52v-2.59h-.52zm-2.62 6.9v-2.59h-.52v2.59h.52zm1.05-2.59v2.59h.52v-2.59h-.52zm1.57 0v2.59h.52v-2.59h-.52zm2.09-1.72v-2.59h-.52v2.59h.52zm1.05-2.59v2.59h.52v-2.59h-.52zm1.57 0v2.59h.52v-2.59h-.52zm-2.62 6.9v-2.59h-.52v2.59h.52zm1.05-2.59v2.59h.52v-2.59h-.52zm1.57 0v2.59h.52v-2.59h-.52z" style="fill:#fcfcfc"/><path d="M34.08 31.14v-2.59h-.52v2.59h.52zm1.04-2.59v2.59h.52v-2.59h-.52zm1.57 0v2.59h.52v-2.59h-.52zm-2.61 6.9v-2.59h-.52v2.59h.52zm1.04-2.59v2.59h.52v-2.59h-.52zm1.57 0v2.59h.52v-2.59h-.52zm2.09-1.72v-2.59h-.52v2.59h.52zm1.05-2.59v2.59h.52v-2.59h-.52zm1.57 0v2.59h.52v-2.59h-.52zm-2.62 6.9v-2.59h-.52v2.59h.52zm1.05-2.59v2.59h.52v-2.59h-.52zm1.57 0v2.59h.52v-2.59h-.52z" style="fill:#1a1626"/><path d="M55.63 31.62c-.49.85.38-.28 2.49 1.14.39.26.73.96.73 1.44-.1-.07-.17-.21-.28-.31-.15.15.15.86.19 1.19-.33-.18-.3-.27-.41-.5.02.27-.06 1.03.08 1.32-.26-.07-.24-.28-.38-.33.09.33-.08.69-.04 1.06-.15-.15-.31-.27-.38-.33-.01.18-.29.64-.3.81-.13-.08-.16-.2-.19-.28-.16.2-.73.95-.77 1.17-.44-.39-1.57-1.33-1.71-1.84-.13.29-.32.38-.69.59-.15-.79-.69-1.69-.4-2.37-.21.12-.38.25-.59.4.21-1.15 1.21-2.5 2.65-3.16z" style="fill:#0038b8"/><path d="M53.8 35.82c.2-.41.39-.54.52-.8.23-.46.27-.83.47-.77.2.05.2.24-.06.7-.26.45-.38.54-.93.87zm1.38.97c-.03-.31.06-.44.05-.64-.03-.35-.17-.59.02-.61.19-.02.27.1.27.46 0 .35-.06.44-.34.79zm1.04.61c-.08-.43-.02-.62-.07-.9-.09-.49-.27-.81-.1-.86.17-.04.28.11.34.61.07.49.04.63-.17 1.15zm1.09-3.03c-.25-.19-.4-.21-.57-.33-.29-.22-.44-.45-.53-.34-.09.12-.03.24.28.44.3.2.4.22.82.23zm-.18 1.43c-.13-.28-.28-.35-.36-.53-.15-.32-.15-.59-.32-.52-.17.07-.18.21 0 .52.17.31.27.36.68.53z" style="fill:#da2b26"/><path d="M6.88 32.43c-.03-.25.03-.28-.13-.46.22.09.23.34.5.16.1-.05.14-.05.02-.33.28.01 1.2.33 1.35.34.39.02 1.09-.41 1.58.12.47.47.31.97.31 1.63-.19-.09-.1-.14-.3-.37.15.58-.01 1.61-.01 2.22-.08-.15-.07-.08-.14-.24-.2.56-.44.67-.44 1.33-.07-.26 0-.2-.08-.34-.19.42-1.5.78-1 1.21-.45-.27-.65-.24-.86-.48-.09.06-.16.17-.24.31-.8-.37-.51-1.16-1.14-1.69-.11.22-.06.19-.18.55-.13-.5-.16-.82-.3-1.19-.12.2-.11.13-.34.44-.09-.61-.24-.76-.18-1.16-.24.17-.08.1-.32.31.23-1.57 1.2-2.73 1.9-2.36z" style="fill:#0038b8"/><path d="M5.89 34.99c.21-.5.39-.66.52-.99.23-.57.27-1.03.47-.96.2.07.19.3-.07.87-.26.56-.38.68-.92 1.08zm.78 1.26c.08-.45.21-.62.27-.91.1-.51.04-.89.23-.87.18.02.22.21.1.72-.13.51-.21.63-.6 1.06zm.93.88c.02-.44.13-.61.14-.89.03-.5-.07-.85.11-.85.17 0 .24.18.18.67-.05.5-.11.62-.43 1.07zm2.01-2.87c-.38-.38-.61-.45-.86-.7-.44-.43-.65-.84-.8-.69-.15.14-.06.36.4.77.45.41.61.47 1.26.62zm-.24 1.48c-.25-.38-.43-.48-.59-.73-.28-.43-.38-.81-.54-.71-.16.09-.13.28.18.7.31.42.43.5.95.74z" style="fill:#da2b26"/><path d="M26.47 24.02c-.45.87.79-.29 2.72 1.16.36.27.87 1.33.87 1.83-.41-.09-1.14-.49-1.14-.49s.86.86.86 1.84c-.3-.19-.45-.16-.55-.39 0 .32.27.52.27 1.02a3.35 3.35 0 0 0-.59-.39c.29.49-.52 1.45-.12 1.77-.7-.1-1.42-.55-1.71-1.05-.15.1-.17.26-.17.43.02.02-1.07-.81-.97-1.13-.15.21-.17.32-.2.55-.4-.4-.77-.79-.91-1.31-.18.23-.19.23-.37.46-.13-.81-.13-.78.13-1.48-.19.13-.35.25-.54.41.18-1.17 1.1-2.55 2.42-3.23z" style="fill:#0038b8"/><path d="M25.36 28.25c.07-.6.23-.82.28-1.21.08-.68-.02-1.17.22-1.16.24.01.31.26.19.94-.12.68-.22.84-.69 1.43zm1.25 1.1c-.05-.5.04-.72.01-1.04-.05-.57-.23-.96-.02-.99.21-.04.31.16.34.73.03.57-.03.72-.33 1.3zm1.96.89c-.21-.44-.39-.57-.53-.85-.24-.49-.29-.9-.48-.82-.19.07-.18.28.09.76.27.49.39.58.92.91zm.67-3.91c-.54-.28-.82-.29-1.17-.47-.61-.32-.97-.68-1.1-.48-.13.2.04.4.68.69.64.29.83.3 1.59.26zm.2 1.63c-.39-.33-.63-.38-.88-.59-.45-.37-.67-.73-.82-.59-.15.15-.05.34.42.69.47.36.63.4 1.28.49z" style="fill:#da2b26"/><linearGradient id="a" x1="32" x2="32" y1="62" y2="2" gradientUnits="userSpaceOnUse"><stop offset="0" style="stop-color:#1a1a1a"/><stop offset=".102" style="stop-color:#393939;stop-opacity:.949"/><stop offset=".347" style="stop-color:#7f7f7f;stop-opacity:.8262"/><stop offset=".569" style="stop-color:#b6b6b6;stop-opacity:.7156"/><stop offset=".758" style="stop-color:#dedede;stop-opacity:.6209"/><stop offset=".908" style="stop-color:#f6f6f6;stop-opacity:.5459"/><stop offset="1" style="stop-color:#fff;stop-opacity:.5"/></linearGradient><circle cx="32" cy="32" r="30" style="opacity:.1;fill:url(#a)"/></svg>