<svg xmlns="http://www.w3.org/2000/svg" xml:space="preserve" style="enable-background:new 0 0 64 64" viewBox="0 0 64 64"><path d="M12 12h21v21H12z" style="fill:#003893"/><path d="M32 2v30H2c0 16.57 13.43 30 30 30s30-13.43 30-30S48.57 2 32 2z" style="fill:#70b6d4"/><path d="M32 2c-4.69 0-9.13 1.09-13.09 3.01V11H11v7.91H5.01C3.09 22.87 2 27.31 2 32h12V17l12 15h6v-7.5L23.6 14H32V2z" style="fill:#fcfcfc"/><path d="M15.43 14 30 32h2v-4.94L21.43 14z" style="fill:red"/><path d="M32 5H18.92A30.128 30.128 0 0 0 5 18.91V32h6V11h21V5z" style="fill:red"/><path d="m28.92 50.15-.67-2.05-.66 2.05h-2.15l1.74 1.27-.67 2.04 1.74-1.26L30 53.46l-.67-2.04 1.74-1.27zm8.85-1.59.67-2.05-1.75 1.27-1.74-1.27.67 2.05-1.74 1.26h2.15l.66 2.05.67-2.05h2.15zm.67-9.26-1.75 1.26-1.74-1.26.67 2.04-1.74 1.27h2.15l.66 2.05.67-2.05h2.15l-1.74-1.27zm6.78 7.43.67-2.04-1.74 1.26-1.74-1.26.66 2.04L41.33 48h2.15l.67 2.05.66-2.05h2.16zM43.48 32.3l.67 2.05.66-2.05h2.16l-1.75-1.26.67-2.05-1.74 1.26-1.74-1.26.66 2.05-1.74 1.26zm6.21 8.92-.67-2.04-.66 2.04h-2.15l1.74 1.27-.67 2.05 1.74-1.27 1.74 1.27-.66-2.05 1.74-1.27zm.06-11.06.66 2.05.67-2.05h2.15l-1.74-1.27.66-2.04-1.74 1.26-1.74-1.26.66 2.04-1.74 1.27zm6.23 7.01-.66-2.05-.67 2.05H52.5l1.74 1.27-.66 2.04 1.74-1.26 1.74 1.26-.67-2.04 1.74-1.27zm-1.74-12.58-.66 2.05 1.74-1.27 1.74 1.27-.67-2.05 1.74-1.27h-2.15l-.66-2.04-.67 2.04H52.5z" style="fill:#fff300"/><linearGradient id="a" x1="31.997" x2="31.997" y1="62" y2="2" gradientUnits="userSpaceOnUse"><stop offset="0" style="stop-color:#1a1a1a"/><stop offset=".102" style="stop-color:#393939;stop-opacity:.949"/><stop offset=".347" style="stop-color:#7f7f7f;stop-opacity:.8262"/><stop offset=".569" style="stop-color:#b6b6b6;stop-opacity:.7156"/><stop offset=".758" style="stop-color:#dedede;stop-opacity:.6209"/><stop offset=".908" style="stop-color:#f6f6f6;stop-opacity:.5459"/><stop offset="1" style="stop-color:#fff;stop-opacity:.5"/></linearGradient><circle cx="32" cy="32" r="30" style="opacity:.1;fill:url(#a)"/></svg>