<svg xmlns="http://www.w3.org/2000/svg" xml:space="preserve" style="enable-background:new 0 0 64 64" viewBox="0 0 64 64"><path d="M32 62c13.06 0 24.17-8.35 28.29-20H3.71C7.83 53.65 18.94 62 32 62z" style="fill:red"/><path d="M32 2C18.94 2 7.83 10.35 3.71 22h56.57C56.17 10.35 45.06 2 32 2z" style="fill:#ffe000"/><path d="M60.29 42a30.086 30.086 0 0 0 0-20H3.71a30.086 30.086 0 0 0 0 20h56.58z" style="fill:#12ad2b"/><path d="M32 41.08 43.74 50 39.3 35.5 51 26.51l-14.48-.04L32 12l-4.52 14.47-14.48.04 11.69 8.99L20.26 50z" style="fill:#fcfcfc"/><linearGradient id="a" x1="32" x2="32" y1="62" y2="2" gradientUnits="userSpaceOnUse"><stop offset="0" style="stop-color:#1a1a1a"/><stop offset=".102" style="stop-color:#393939;stop-opacity:.949"/><stop offset=".347" style="stop-color:#7f7f7f;stop-opacity:.8262"/><stop offset=".569" style="stop-color:#b6b6b6;stop-opacity:.7156"/><stop offset=".758" style="stop-color:#dedede;stop-opacity:.6209"/><stop offset=".908" style="stop-color:#f6f6f6;stop-opacity:.5459"/><stop offset="1" style="stop-color:#fff;stop-opacity:.5"/></linearGradient><circle cx="32" cy="32" r="30" style="opacity:.1;fill:url(#a)"/></svg>