<svg xmlns="http://www.w3.org/2000/svg" xml:space="preserve" style="enable-background:new 0 0 64 64" viewBox="0 0 64 64"><path d="M32 2c-3.51 0-6.87.62-10 1.73V22h38.29C56.17 10.35 45.06 2 32 2z" style="fill:#fcfcfc"/><path d="M60.29 22H22V3.71C10.35 7.83 2 18.94 2 32s8.35 24.17 20 28.29V42h38.29a30.086 30.086 0 0 0 0-20z" style="fill:#e81c27"/><path d="M22 42v18.27C25.13 61.38 28.49 62 32 62c13.06 0 24.17-8.35 28.29-20H22z" style="fill:#007934"/><path d="m19.14 22.38-.25.1-1.58-1.39-1.79-1.95c.05-.25.05-.69.04-1.03l.26-.31h.28c.12.21.35.36.61.36s.49-.15.61-.36h.4v.46h2.74v-1.51h-2.74v.45h-.35a.725.725 0 0 0-.52-.44l.06-.06 2.16-4.54-.25-.13-3.1 4.2.18.24-.18.37-.46.02-.14-.19.42.02v-.27l-.28-.12v-.57l.35-.01.11-.35-.81-.23v-1.96l.56-.73-.98-.68-.98.68.56.73v1.96l-.81.23.11.35.35.01v.57l-.28.12v.27l.42-.02-.14.19-.46-.02-.18-.37.18-.24-3.1-4.2-.25.13 2.16 4.54.06.06a.74.74 0 0 0-.53.44h-.35v-.45H8.53v1.51h2.74v-.46h.4c.12.21.35.36.61.36s.49-.15.61-.36h.28l.3.36v.24h-.37l-.13.31-2.43.22-.11-.16s-1.31.17-1.55.5c-.05.06-.04.25 0 .31.23.34 1.51.65 1.51.65l.04-.15s.93.2 1.86.33l-.61.67-1.58 1.39-.25-.1-1.43 1.43.05.2 1.63-.45 1.15-.77-.2-.05 2.55-2.19c.08 0 .15 0 .21-.01.29-.04.87-.24 1.11-.43l.34.34 2.67 2.3-.2.05 1.15.77 1.65.44.05-.2-1.44-1.42z" style="fill:#fcfcfc"/><linearGradient id="a" x1="32.001" x2="32.001" y1="62" y2="2" gradientUnits="userSpaceOnUse"><stop offset="0" style="stop-color:#1a1a1a"/><stop offset=".102" style="stop-color:#393939;stop-opacity:.949"/><stop offset=".347" style="stop-color:#7f7f7f;stop-opacity:.8262"/><stop offset=".569" style="stop-color:#b6b6b6;stop-opacity:.7156"/><stop offset=".758" style="stop-color:#dedede;stop-opacity:.6209"/><stop offset=".908" style="stop-color:#f6f6f6;stop-opacity:.5459"/><stop offset="1" style="stop-color:#fff;stop-opacity:.5"/></linearGradient><circle cx="32" cy="32" r="30" style="opacity:.1;fill:url(#a)"/></svg>