<svg xmlns="http://www.w3.org/2000/svg" xml:space="preserve" style="enable-background:new 0 0 64 64" viewBox="0 0 64 64"><path d="M47.97 6.61A29.8 29.8 0 0 0 32 2v4.61h15.97z" style="fill:red"/><path d="M32 11.22h21.63a29.82 29.82 0 0 0-5.65-4.61H32v4.61z" style="fill:#fcfcfc"/><path d="M32 15.83h25.26c-1.06-1.66-2.28-3.2-3.64-4.61H32v4.61z" style="fill:red"/><path d="M32 20.44h27.69c-.67-1.61-1.49-3.15-2.43-4.61H32v4.61z" style="fill:#fcfcfc"/><path d="M32 25.05h29.18a31.01 31.01 0 0 0-1.49-4.61H32v4.61z" style="fill:red"/><path d="M32 29.66h29.9c-.12-1.57-.36-3.11-.72-4.61H32v4.61z" style="fill:#fcfcfc"/><path d="M61.9 29.66H32v4.61h29.91c.05-.75.09-1.51.09-2.27 0-.79-.04-1.57-.1-2.34z" style="fill:red"/><path d="M2.8 38.88h58.4c.35-1.5.59-3.04.71-4.61H2.09c.12 1.57.36 3.11.71 4.61z" style="fill:#fcfcfc"/><path d="M4.28 43.49h55.43c.61-1.48 1.11-3.02 1.48-4.61H2.8c.37 1.59.87 3.13 1.48 4.61z" style="fill:red"/><path d="M6.69 48.1h50.62c.93-1.46 1.74-3 2.41-4.61H4.28c.67 1.61 1.48 3.15 2.41 4.61z" style="fill:#fcfcfc"/><path d="M10.3 52.71h43.39c1.35-1.41 2.56-2.96 3.62-4.61H6.69c1.06 1.65 2.27 3.2 3.61 4.61z" style="fill:red"/><path d="M15.92 57.32h32.17c2.05-1.31 3.94-2.86 5.61-4.61H10.3c1.68 1.75 3.56 3.3 5.62 4.61z" style="fill:#fcfcfc"/><path d="M32 62c5.92 0 11.43-1.72 16.08-4.68H15.92A29.808 29.808 0 0 0 32 62z" style="fill:red"/><path d="M2 32c0 .76.04 1.52.09 2.27H32V2C15.43 2 2 15.43 2 32z" style="fill:#0000b3"/><path d="m25.33 4 .48 1.48h1.52l-1.23.98.47 1.52-1.24-.9L24.1 8l.47-1.54-1.24-.98h1.53zm4 6 .48 1.48h1.52l-1.23.98.47 1.52-1.24-.9-1.23.92.47-1.54-1.24-.98h1.53zm-8 0 .48 1.48h1.52l-1.23.98.47 1.52-1.24-.9-1.23.92.47-1.54-1.24-.98h1.53zm4 6 .48 1.48h1.52l-1.23.98.47 1.52-1.24-.9-1.23.92.47-1.54-1.24-.98h1.53zm-8 0 .48 1.48h1.52l-1.23.98.47 1.52-1.24-.9-1.23.92.47-1.54-1.24-.98h1.53zm-8 0 .48 1.48h1.52l-1.23.98.47 1.52-1.24-.9L8.1 20l.47-1.54-1.24-.98h1.53zm20 6 .48 1.48h1.52l-1.23.98.47 1.52-1.24-.9-1.23.92.47-1.54-1.24-.98h1.53zm-8 0 .48 1.48h1.52l-1.23.98.47 1.52-1.24-.9-1.23.92.47-1.54-1.24-.98h1.53zm-8 0 .48 1.48h1.52l-1.23.98.47 1.52-1.24-.9-1.23.92.47-1.54-1.24-.98h1.53zm-8 0 .48 1.48h1.52l-1.23.98.47 1.52-1.24-.9L4.1 26l.47-1.54-1.24-.98h1.53zm20 6 .48 1.48h1.52l-1.23.98.47 1.52-1.24-.9-1.23.92.47-1.54-1.24-.98h1.53zm-8 0 .48 1.48h1.52l-1.23.98.47 1.52-1.24-.9-1.23.92.47-1.54-1.24-.98h1.53zm-8 0 .48 1.48h1.52l-1.23.98.47 1.52-1.24-.9L8.1 32l.47-1.54-1.24-.98h1.53zm2.77-14 1.24-.92 1.24.9-.47-1.51 1.24-.98h-1.53L13.33 10l-.47 1.48h-1.42c-.02.02-.03.03-.05.04l1.18.93L12.1 14z" style="fill:#fcfcfc"/><linearGradient id="a" x1="32" x2="32" y1="62" y2="2" gradientUnits="userSpaceOnUse"><stop offset="0" style="stop-color:#1a1a1a"/><stop offset=".102" style="stop-color:#393939;stop-opacity:.949"/><stop offset=".347" style="stop-color:#7f7f7f;stop-opacity:.8262"/><stop offset=".569" style="stop-color:#b6b6b6;stop-opacity:.7156"/><stop offset=".758" style="stop-color:#dedede;stop-opacity:.6209"/><stop offset=".908" style="stop-color:#f6f6f6;stop-opacity:.5459"/><stop offset="1" style="stop-color:#fff;stop-opacity:.5"/></linearGradient><circle cx="32" cy="32" r="30" style="opacity:.1;fill:url(#a)"/></svg>