<svg xmlns="http://www.w3.org/2000/svg" xml:space="preserve" style="enable-background:new 0 0 64 64" viewBox="0 0 64 64"><path d="M53.22 10.79c-8.7-8.7-21.41-10.93-32.17-6.71l38.88 38.88c4.21-10.77 1.98-23.48-6.71-32.17zM4.07 21.04c-4.22 10.77-1.99 23.47 6.71 32.17 8.7 8.7 21.41 10.93 32.17 6.71L4.07 21.04z" style="fill:#e81c27"/><path d="M44.93 59.08c.63-.3 1.24-.64 1.85-.98L5.9 17.22c-.35.61-.68 1.22-.98 1.85-.31.65-.59 1.31-.85 1.98l38.88 38.88c.67-.26 1.33-.54 1.98-.85zm14.15-14.15c.31-.65.59-1.31.85-1.98L21.04 4.07c-.67.26-1.33.54-1.98.85-.63.3-1.24.63-1.85.98L58.1 46.78c.34-.61.68-1.22.98-1.85z" style="fill:#fcfcfc"/><path d="M59 45.09 18.91 5.01a29.792 29.792 0 0 0-8.13 5.78A30.18 30.18 0 0 0 5 18.91L45.09 59c2.93-1.42 5.69-3.34 8.13-5.78 2.43-2.44 4.35-5.2 5.78-8.13z" style="fill:#1a1626"/><linearGradient id="a" x1="32" x2="32" y1="62" y2="2" gradientUnits="userSpaceOnUse"><stop offset="0" style="stop-color:#1a1a1a"/><stop offset=".102" style="stop-color:#393939;stop-opacity:.949"/><stop offset=".347" style="stop-color:#7f7f7f;stop-opacity:.8262"/><stop offset=".569" style="stop-color:#b6b6b6;stop-opacity:.7156"/><stop offset=".758" style="stop-color:#dedede;stop-opacity:.6209"/><stop offset=".908" style="stop-color:#f6f6f6;stop-opacity:.5459"/><stop offset="1" style="stop-color:#fff;stop-opacity:.5"/></linearGradient><circle cx="32" cy="32" r="30" style="opacity:.1;fill:url(#a)"/></svg>