<svg xmlns="http://www.w3.org/2000/svg" xml:space="preserve" style="enable-background:new 0 0 64 64" viewBox="0 0 64 64"><path d="M32 2S6.53 8 2 32c0 17.2 14.48 31.02 31.91 29.94 14.94-.93 27.1-13.09 28.03-28.03C63.02 16.48 49.2 2 32 2z" style="fill:#003893"/><path d="M32 2c-4.69 0-9.13 1.09-13.09 3.01L11 11l-5.99 7.91A29.896 29.896 0 0 0 2 32h12V17l12 15h6v-7.5L23.6 14H32V2z" style="fill:#fcfcfc"/><path d="M15.43 14 30 32h2v-4.94L21.43 14z" style="fill:red"/><path d="M18.91 5A30.153 30.153 0 0 0 5 18.91V32h6V11h21V5H18.91z" style="fill:red"/><path d="m37.13 32 1.01-2.93-2.72-1.91h3.39l.98-2.82 1 2.82h3.38l-2.72 1.91L42.46 32l-2.66-1.79L37.13 32z" style="fill:#fcfcfc"/><path d="m39.8 29.52 1.59 1.08-.6-1.75 1.59-1.12h-1.97l-.61-1.71-.6 1.71h-1.98l1.59 1.12-.6 1.75z" style="fill:red"/><path d="m54.63 32 1.01-2.93-2.72-1.91h3.39l.98-2.82 1 2.82h3.38l-2.72 1.91L59.96 32l-2.66-1.79L54.63 32z" style="fill:#fcfcfc"/><path d="m57.3 29.52 1.59 1.08-.6-1.75 1.59-1.12h-1.97l-.61-1.71-.6 1.71h-1.98l1.59 1.12-.6 1.75z" style="fill:red"/><path d="m45.88 21.66 1.01-2.93-2.72-1.91h3.39l.98-2.82 1 2.82h3.38l-2.72 1.91 1.01 2.93-2.66-1.8-2.67 1.8z" style="fill:#fcfcfc"/><path d="m48.55 19.18 1.59 1.07-.6-1.74 1.59-1.12h-1.97l-.61-1.72-.6 1.72h-1.98l1.59 1.12-.6 1.74z" style="fill:red"/><path d="m45.05 48.66 1.33-3.85-3.58-2.52h4.46l1.28-3.7 1.32 3.7h4.44l-3.57 2.52 1.32 3.85-3.5-2.36-3.5 2.36z" style="fill:#fcfcfc"/><path d="m48.55 45.4 2.09 1.41-.79-2.29 2.09-1.47h-2.59l-.8-2.26-.78 2.26h-2.61l2.09 1.47-.8 2.29z" style="fill:red"/><linearGradient id="a" x1="32" x2="32" y1="62" y2="2" gradientUnits="userSpaceOnUse"><stop offset="0" style="stop-color:#1a1a1a"/><stop offset=".102" style="stop-color:#393939;stop-opacity:.949"/><stop offset=".347" style="stop-color:#7f7f7f;stop-opacity:.8262"/><stop offset=".569" style="stop-color:#b6b6b6;stop-opacity:.7156"/><stop offset=".758" style="stop-color:#dedede;stop-opacity:.6209"/><stop offset=".908" style="stop-color:#f6f6f6;stop-opacity:.5459"/><stop offset="1" style="stop-color:#fff;stop-opacity:.5"/></linearGradient><circle cx="32" cy="32" r="30" style="opacity:.1;fill:url(#a)"/></svg>