<svg xmlns="http://www.w3.org/2000/svg" xml:space="preserve" style="enable-background:new 0 0 64 64" viewBox="0 0 64 64"><linearGradient id="a" x1="32" x2="32" y1="2" y2="62" gradientUnits="userSpaceOnUse"><stop offset="0" style="stop-color:#f90"/><stop offset=".287" style="stop-color:#ff9500"/><stop offset=".585" style="stop-color:#f80"/><stop offset=".887" style="stop-color:#ff7400"/><stop offset="1" style="stop-color:#ff6a00"/></linearGradient><circle cx="32" cy="32" r="30" style="fill:url(#a)"/><path d="M40.13 17.95c-2.26-1.3-4.96-1.95-8.09-1.95s-5.83.65-8.11 1.95c-2.28 1.3-4.04 3.15-5.28 5.55-1.24 2.4-1.86 5.22-1.86 8.46 0 3.27.62 6.11 1.86 8.5 1.24 2.4 3 4.25 5.28 5.57 2.28 1.32 4.98 1.97 8.11 1.97 3.13 0 5.82-.66 8.09-1.97 2.26-1.31 4.01-3.17 5.24-5.57 1.23-2.4 1.84-5.23 1.84-8.5 0-3.24-.61-6.06-1.84-8.46s-2.97-4.25-5.24-5.55zm-1.97 22.01c-1.51 1.83-3.54 2.74-6.12 2.74-2.6 0-4.65-.9-6.14-2.72-1.49-1.81-2.24-4.49-2.24-8.02 0-3.51.74-6.16 2.24-7.96s3.54-2.7 6.14-2.7c2.57 0 4.61.9 6.12 2.7s2.26 4.45 2.26 7.96-.76 6.17-2.26 8z" style="fill:#fff"/></svg>