<svg xmlns="http://www.w3.org/2000/svg" xml:space="preserve" style="enable-background:new 0 0 64 64" viewBox="0 0 64 64"><path d="M32 62c16.57 0 30-13.43 30-30H2c0 16.57 13.43 30 30 30z" style="fill:#00b9ff"/><path d="M32 2C15.43 2 2 15.43 2 32h60C62 15.43 48.57 2 32 2z" style="fill:#fcfcfc"/><path d="M31.09 15.25c-1.35 1.55-3.64.81-4.72 1.41-1.88 1.05.24 3.49.63 3.96l1.77-.53c-.75-.6-2.18-1.65-1.73-2.48.46-.85 2.98 0 4.06-1.82.23-.38.06-.62-.01-.54zm1.52 0c1.35 1.55 3.64.81 4.72 1.41 1.88 1.05-.24 3.49-.63 3.96l-1.77-.53c.75-.6 2.18-1.65 1.73-2.48-.46-.85-2.98 0-4.06-1.82-.23-.38-.06-.62.01-.54z" style="fill:#f1b200"/><path d="M31.85 18.67h-.68s.11-.65.02-1.09c-.07-.36-.31-.64-.34-1.01-.05-.52.4-1.21.4-1.21h1.2s.43.69.39 1.21c-.03.37-.26.65-.33 1.01-.09.44.02 1.09.02 1.09h-.68z" style="fill:#f1b200"/><path d="m36.36 21.44-.85-.81-1.62-.46-2.04-.15-2.04.15-1.62.46-.85.81s.52 1.18.52 1.29c0 .58 1.78 1.05 3.98 1.05s3.98-.47 3.98-1.05c0-.1.54-1.29.54-1.29z" style="fill:#ffd000"/><path d="M31.84 21.78c2.17 0 3.93.45 3.93 1s-1.76 1-3.93 1-3.93-.45-3.93-1c.01-.56 1.77-1 3.93-1z" style="fill:#d99f31"/><path d="M27.32 21.2c-.31-.48-.75-.84-1.22-1.02.11-.09.3-.12.5-.13.23-.02.43.02.59.1-.16-.56.1-1.12.1-1.12s.5 0 .99.39c.02-.67.23-1.01.23-1.01s.47.05.99.57c.11-.69.47-1.09.47-1.09s.62.19.98.85c.24-.95.9-1.29.9-1.29s.66.34.9 1.29c.36-.66.98-.85.98-.85s.38.35.48 1.09c.52-.52.99-.57.99-.57s.21.33.23 1.01c.49-.39 1.05-.29 1.05-.29s.19.46.04 1.01c.17-.08.36-.11.59-.1.2.01.39.05.5.13-.46.18-.91.53-1.22 1.02-.34-.68-8.73-.68-9.07.01z" style="fill:#ffd000"/><path d="M27.27 21.32c0-.71 1.97-1.61 4.58-1.61 2.62 0 4.58.89 4.58 1.61 0 .2-.21.22-.22.16-.22-.72-1.74-1.36-4.36-1.36s-4.14.64-4.36 1.36c-.02.06-.22.04-.22-.16z" style="fill:#f1b200"/><path d="M32.66 11.59c.18 0 .31.16.31.34 0 .18-.13.35-.31.35-.23 0-.57-.27-.56-.06l.01.11.12 1.01c.3.07-1.06.07-.75 0l.12-1.02.01-.11c.01-.22-.33.06-.56.06-.18 0-.31-.17-.31-.35 0-.18.13-.34.31-.34.17 0 .37.16.49.09.2-.12-.04-.39-.04-.57 0-.18.17-.32.35-.32s.35.15.35.32c0 .18-.24.44-.04.57.12.08.32-.08.5-.08z" style="fill:#d99f31"/><path d="M31.84 12.95c.44 0 .79.35.79.79 0 .44-.35.79-.79.79s-.79-.35-.79-.79c0-.44.36-.79.79-.79z" style="fill:#f1f1f2"/><path d="M32.46 15.49h-.04c-.11.1-.29.21-.56.27-.28-.06-.45-.17-.56-.27h-.04s-.42.3-.72.08c-.11-.08-.13-.2-.13-.2s.51-.03.51-.48c0-.45.24-.64.57-.64.14 0 .27.07.38.16.1-.09.23-.16.38-.16.33 0 .57.19.57.64s.51.48.51.48-.02.11-.13.2c-.32.22-.74-.08-.74-.08z" style="fill:#d99f31"/><path d="M31.72 24.75c1.35-.02 7.18-1 7.18 7.09 0 7.73-7.06 10.8-7.06 10.8s-7.06-2.98-7.06-11.39c.01-7.5 6.94-6.5 6.94-6.5z" style="fill:#a0cfeb"/><path d="M34.01 36.84a2.883 2.883 0 0 1 3.49.54c-2.06 3.7-5.65 5.27-5.65 5.27s-3.5-1.48-5.57-5.28c.52-.55 1.26-.89 2.07-.89.57 0 1.1.17 1.54.45a2.868 2.868 0 0 1 4.12-.09z" style="fill:#94bb79"/><path d="M35.24 36.52c.36.04.98.38 1.28.83-.23.39-.68 1-.93 1.34-.55-.81-1.69-1.89-1.61-1.81.01.01.06-.03.07-.04.11-.06.21-.12.31-.16.2-.08.42-.13.64-.17.08-.01.16 0 .24.01zm-2.42 5.07c-.45.24-.8.39-.97.46-.17-.07-.52-.23-.97-.46-.87-.71-2.66-2.35-3.93-4.74.41-.23.88-.36 1.38-.36.04 0 .21.05.34.11.79.37 1.78 1.44 1.41 1.65-.27.15-1.03-.1-1.06.2-.02.11 1.41.89 2.22 1.58.65.56 1.69 1.48 1.58 1.56zm1.73-.7c-.91-.89-2.94-2.7-4.65-3.97.47-.51 1.13-.84 1.86-.9h.04c.98.14 1.88 1.2 1.51 1.4-.27.15-1.03-.1-1.07.2-.01.1 1.02.72 1.62 1.24.59.51.98.88 1.42 1.36-.24.25-.48.47-.73.67z" style="fill:#658d5c"/><path d="M27.51 32.04v-.72l.77-.3.78.21v.82h-1.55z"/><path d="m29.17 35.32.34 1.39a2.92 2.92 0 0 0-1.15-.24l-.07-5.76.31.09v.61l.39.1v-.6l.53.14v.98l-.34.5v2.79h-.01z" style="fill:#fff"/><path d="M28.28 35.21v-4.5l-.31.14v.6l-.39.15V31l-.53.22v.95l.38.45.01 2.74-.39 1.41c.37-.19.78-.3 1.22-.31v-1.25h.01z" style="fill:#bdbfc1"/><path d="m28.9 35.47-.37-.05v-1.18c0-.14.09-.23.17-.23.14 0 .21.16.21.3v1.16zM31 31.5v-.74l.78-.28.78.24v.78H31z"/><path d="m32.66 34.81.34 1.38c-.31-.12-.65-.18-1-.18-.08 0-.16 0-.24.01l.01-5.84.31.1v.61l.39.11v-.6l.53.17v.98l-.34.48v2.78z" style="fill:#fff"/><path d="M31.77 36.02v-5.84l-.31.12v.6l-.39.14v-.6l-.53.21v.96l.38.46.01 2.76-.39 1.57c.37-.21.79-.34 1.23-.38z" style="fill:#bdbfc1"/><path d="m32.39 34.94-.37-.06V33.7c0-.15.09-.23.17-.23.14 0 .2.16.2.23v1.24zm2.09-2.88v-.82l.77-.22.77.26v.78h-1.54z"/><path d="m36.14 35.35.34 1.33c-.33-.13-.69-.21-1.07-.21h-.16l.01-5.76.31.1v.61l.39.13v-.59l.53.18v.97l-.34.48v2.76h-.01z" style="fill:#fff"/><path d="M35.26 35.21v-4.5l-.31.1v.6l-.39.12v-.6l-.53.17v.98l.38.49.01 2.75-.39 1.5c.37-.2.78-.32 1.22-.35v-1.26h.01z" style="fill:#bdbfc1"/><path d="m35.88 35.49-.37-.06v-1.18c0-.15.09-.23.17-.23.14 0 .21.16.21.23v1.24z"/><path d="M28.83 28.75c-.07-.29-.22-.66-.58-.6l-.02.03c.02.48.62 1.94.05 2.2-.01-.84-.77-1.38-.58-2.16.05-.22.27-.49.48-.57.1-.04.21-.07.32-.07.72.02.91.78.33 1.17zm3.53-.54c-.07-.29-.22-.66-.59-.6l-.02.03c.02.48.62 1.94.05 2.2-.02-.84-.77-1.38-.58-2.16.05-.22.27-.49.48-.57.1-.04.21-.07.32-.07.73.02.92.77.34 1.17zm3.54.54c-.07-.29-.22-.66-.58-.6l-.02.03c.02.48.62 1.94.05 2.2-.02-.84-.77-1.38-.58-2.16.05-.22.27-.49.48-.57.1-.04.21-.07.32-.07.72.02.9.78.33 1.17z" style="fill:#fff"/><path d="m35.15 23.43-3.27 1.34-3.26-1.34-.95.07c-2.69 0-4.05 3.7-4.05 7.12 0 8.12 7.76 11.42 7.76 11.42s-6.21-4.21-5.88-11.42c.17-3.7 1.36-4.44 1.68-4.66l2 .56 2.69-1.59 2.69 1.59 1.95-.56c.33.22 1.51.96 1.68 4.66.33 7.21-5.88 11.42-5.88 11.42s7.76-3.31 7.76-11.42c0-3.42-1.36-7.12-4.05-7.12l-.87-.07z" style="fill:#d99f31"/><path d="M31.87 24.3c.34 0 .62.28.62.62 0 .34-.28.62-.62.62-.34 0-.62-.28-.62-.62 0-.34.28-.62.62-.62z" style="fill:#ffd000"/><path d="M31.85 42.7c-1.6-.61-3.45-1.87-4.6-2.92-2.2-2.01-4.16-5.33-3.84-9.91.2-2.89 1.05-4.72 2.16-5.68 1.89-1.64 4.33-.89 4.33.9 0 .98-.8 1.78-1.78 1.78-.6 0-1.23-.48-1.16-1.21.02-.39.34-.7.73-.7.4 0 .73.33.73.73 0 .22-.15.44-.3.57.62-.02 1.17-.55 1.17-1.18 0-.64-.49-1.18-1.19-1.24-2.34-.19-3.85 2.46-4.1 6.07-.36 5.12 2.43 9.26 6.63 11.59.59.33 1.05.53 1.25.61.2-.08.66-.28 1.25-.61 4.2-2.33 6.99-6.47 6.63-11.59-.25-3.6-1.77-6.26-4.1-6.07-.7.06-1.19.6-1.19 1.24 0 .63.54 1.16 1.17 1.18-.16-.13-.3-.35-.3-.57 0-.4.33-.73.73-.73.39 0 .71.31.73.7.06.73-.57 1.21-1.16 1.21-.98 0-1.78-.8-1.78-1.78 0-1.79 2.44-2.53 4.33-.9 1.11.96 1.96 2.79 2.16 5.68.32 4.58-1.64 7.9-3.84 9.91-1.21 1.05-3.06 2.3-4.66 2.92z" style="fill:#ffd000"/><path d="M23.32 39.43c-.17.01-.36.01-.53.04-.51.09-1.02.65-1.8.67-1.04.03-1.69-.46-2.4-1.16 1.03-.16 1.83-.75 2.9-.42.55.17 1.19.86 1.7.76l.13.11zm3.11 1.53c-.09-.1-.19-.19-.3-.27-.25-.18-.79-.2-1.2-.5-.57-.42-.87-.81-1.03-1.5-.1-.42-.02-.75 0-1.1.51.75 1.41.82 1.89 1.71.29.54.25 1.37.85 1.7l-.21-.04zm-4.49-3.18s-.33-.07-.47-.14c-.25-.13-.81-.86-1.46-1.23-.93-.53-1.73-.42-2.64-.68.26.97.75 1.55 1.67 1.97.82.37 2.16.05 2.31.06.14.01.61.21.61.21l-.02-.19z" style="fill:#658d5c"/><path d="M23.24 38.89c-.04-.29-.37-.71-.51-.97-.2-.39-.35-.83-.4-1.27-.1-.95.12-1.47.75-2.17 0 .21.03.28.09.47.26.81.63 1.48.51 2.36-.06.43-.41 1.05-.43 1.31-.01.14.07.3.14.41l-.15-.14z" style="fill:#466343"/><path d="M20.62 35.67c-.36-.12-.78-.18-1.22-.29-.41-.1-.75-.33-1.07-.61-.49-.44-.65-1.03-.75-1.67-.05-.36-.07-.7-.04-1.06.04.07.09.14.16.19.32.23.66.39.98.62.28.2.48.34.71.6.29.33.54.68.74 1.07.16.31.3.67.51.94l-.02.21z" style="fill:#658d5c"/><path d="M18.89 32.04c.24 0 .44.2.44.44s-.2.44-.44.44-.44-.2-.44-.44c0-.25.2-.44.44-.44z" style="fill:#d99f31"/><path d="M22.25 29.18c.6 1.63-.19 2.81-1.64 3.62l-.38-.53c.25-1.05.43-1.57 1.23-2.31.32-.29.59-.38.79-.78z" style="fill:#466343"/><path d="M20.56 27.57c-.6 1.57-.77 4.19-.57 5.41.64 3.8 3.75 7.36 6.63 7.94 2.47.5 3.96 1.61 4.97 2.76.48.54.86 1.06 1.18 1.56.27.43.51.89.73 1.26.04.06-.27.19-.3.13-.24-.39-.46-.88-.74-1.34-.32-.51-.86-1.04-1.34-1.6-1.01-1.19-2.35-2.09-4.68-2.55-2.75-.55-5.95-4.06-6.59-7.84-.21-1.23-.05-4.08.49-5.58l.22-.15z" style="fill:#a48253"/><path d="M24.7 40.21c-.66-.56-1.85-.36-2.56-1.12-.52-.56-.74-1.44-.61-2.2.63.56 1.36.71 1.93 1.34.67.74.1 1.24 1.37 1.96l-.13.02zM19.97 30l.02-.2c.15-.06.29-.21.35-.36.27-.64.43-1.29.8-1.88.49-.77 1.01-1.06 1.53-1.48.03.68.14 1.39-.39 2.28-.3.5-1.2 1-1.75 1.22-.24.09-.42.17-.56.42zm-.28 1.94.02.2c-.4-.55-.54-.39-1.1-.62-.49-.2-.88-.58-1.16-1.02-.42-.66-.41-1.63-.24-2.37.23.45 1.11.89 1.45 1.45.22.36.36.78.46 1.19.05.2.12.61.2.78.08.13.27.3.37.39zm1.41 4.36c.15-.23.02-.81-.03-1.08a3.07 3.07 0 0 1-.01-1.17c.11-.67.54-1.13.91-1.67.07-.11.15-.22.21-.33.43 1.22.55 2.46-.39 3.49-.14.15-.49.45-.54.64-.03.1-.04.21-.04.31l-.11-.19z" style="fill:#658d5c"/><path d="M24.87 40.45c-.25 0-1.03-.13-1.66.03-.95.25-1.34 1.13-2.05 1.45 1.08.46 1.87.35 2.77-.37.36-.29.59-.84 1.06-.99l-.12-.12z" style="fill:#466343"/><path d="M20.45 27.56c.17-.48.17-1.02.26-1.51.2-1.05.5-1.39 1.26-2.1.24-.22.49-.39.75-.59.04.3.06.56.03.86-.15 1.49-.78 1.84-1.84 2.75-.21.17-.26.42-.46.59zM20 29.83l-.08.25c-.04-.32-.18-.47-.41-.68-1.02-.92-1.45-2-1.03-3.27.15-.44.29-.69.61-1.03.2.34.29.54.43.91.35.94.49 1.47.35 2.54-.05.38-.23.84.02 1.18.03.04.06.08.11.1z" style="fill:#658d5c"/><path d="M20.35 27.12c.24 0 .44.2.44.44s-.2.44-.44.44-.44-.2-.44-.44c0-.25.19-.44.44-.44zm1.4 9.17c.25 0 .46.2.46.46 0 .25-.21.46-.46.46s-.46-.21-.46-.46c.01-.25.21-.46.46-.46zm1.71 3.24c.25 0 .46.21.46.46s-.21.46-.46.46-.46-.21-.46-.46c.01-.25.21-.46.46-.46zm1.76 1.08a.49.49 0 1 1-.002.982.49.49 0 0 1 .002-.982z" style="fill:#d99f31"/><path d="M20.59 35.35c-.16-.25-.52-.53-.71-.74-.34-.35-.55-.76-.63-1.25-.18-1.15.15-1.93.99-2.71.05.81.52 1.48.62 2.29.14 1.16-.6 1.38-.08 2.51l-.19-.1zm19.79 4.08c.17.01.36.01.53.04.51.09 1.02.65 1.8.67 1.04.03 1.69-.46 2.4-1.16-1.03-.16-1.83-.75-2.9-.42-.55.17-1.19.86-1.7.76l-.13.11zm-3.11 1.53c.09-.1.19-.19.3-.27.25-.18.79-.2 1.2-.5.57-.42.87-.81 1.03-1.5.1-.42.02-.75 0-1.1-.51.75-1.41.82-1.89 1.71-.29.54-.25 1.37-.85 1.7l.21-.04zm4.49-3.18s.33-.07.47-.14c.25-.13.81-.86 1.46-1.23.93-.53 1.73-.42 2.64-.68-.26.97-.75 1.55-1.67 1.97-.82.37-2.16.05-2.31.06-.14.01-.61.21-.61.21l.02-.19z" style="fill:#658d5c"/><path d="M40.46 38.89c.04-.29.37-.71.51-.97.2-.39.35-.83.4-1.27.1-.95-.12-1.47-.75-2.17 0 .21-.03.28-.09.47-.26.81-.63 1.48-.51 2.36.06.43.41 1.05.43 1.31.01.14-.07.3-.14.41l.15-.14z" style="fill:#466343"/><path d="M43.08 35.67c.36-.12.78-.18 1.22-.29.41-.1.75-.33 1.07-.61.49-.44.65-1.03.75-1.67.05-.36.07-.7.04-1.06a.58.58 0 0 1-.16.19c-.32.23-.66.39-.98.62-.28.2-.48.34-.71.6-.29.33-.54.68-.74 1.07-.16.31-.3.67-.51.94l.02.21z" style="fill:#658d5c"/><path d="M44.81 32.04c-.24 0-.44.2-.44.44s.2.44.44.44.44-.2.44-.44c0-.25-.2-.44-.44-.44z" style="fill:#d99f31"/><path d="M41.45 29.18c-.6 1.63.19 2.81 1.64 3.62l.38-.53c-.25-1.05-.43-1.57-1.23-2.31-.32-.29-.59-.38-.79-.78z" style="fill:#466343"/><path d="M43.13 27.57c.6 1.57.77 4.19.57 5.41-.64 3.8-3.75 7.36-6.63 7.94-2.47.5-3.96 1.61-4.97 2.76-.48.54-.86 1.06-1.18 1.56-.27.43-.51.89-.73 1.26-.04.06.27.19.3.13.24-.39.46-.88.74-1.34.32-.51.86-1.04 1.34-1.6 1.01-1.19 2.35-2.09 4.68-2.55 2.75-.55 5.95-4.06 6.59-7.84.21-1.23.05-4.08-.49-5.58l-.22-.15z" style="fill:#a48253"/><path d="M38.99 40.21c.66-.56 1.85-.36 2.56-1.12.52-.56.74-1.44.61-2.2-.63.56-1.36.71-1.93 1.34-.67.74-.1 1.24-1.37 1.96l.13.02zM43.73 30l-.02-.2a.684.684 0 0 1-.35-.36c-.27-.64-.43-1.29-.8-1.88-.49-.77-1.01-1.06-1.53-1.48-.03.68-.14 1.39.39 2.28.3.5 1.2 1 1.75 1.22.24.09.42.17.56.42zm.28 1.94-.02.2c.4-.55.54-.39 1.1-.62.49-.2.88-.58 1.16-1.02.42-.66.41-1.63.24-2.37-.23.45-1.11.89-1.45 1.45-.22.36-.36.78-.46 1.19-.05.2-.12.61-.2.78-.08.13-.27.3-.37.39zM42.6 36.3c-.15-.23-.02-.81.03-1.08.08-.41.08-.76.01-1.17-.11-.67-.54-1.13-.91-1.67-.07-.11-.15-.22-.21-.33-.43 1.22-.55 2.46.39 3.49.14.15.49.45.54.64.03.1.04.21.04.31l.11-.19z" style="fill:#658d5c"/><path d="M38.83 40.45c.25 0 1.03-.13 1.66.03.95.25 1.34 1.13 2.05 1.45-1.08.46-1.87.35-2.77-.37-.36-.29-.59-.84-1.06-.99l.12-.12z" style="fill:#466343"/><path d="M43.25 27.56c-.17-.48-.17-1.02-.26-1.51-.2-1.05-.5-1.39-1.26-2.1-.24-.22-.49-.39-.75-.59-.04.3-.06.56-.03.86.15 1.49.78 1.84 1.84 2.75.2.17.26.42.46.59zm.45 2.27.08.25c.04-.32.18-.47.41-.68 1.02-.92 1.45-2 1.03-3.27-.15-.44-.29-.69-.61-1.03-.2.34-.29.54-.43.91-.35.94-.49 1.47-.35 2.54.05.38.23.84-.02 1.18-.03.04-.07.08-.11.1z" style="fill:#658d5c"/><path d="M43.35 27.12c-.24 0-.44.2-.44.44s.2.44.44.44.44-.2.44-.44c0-.25-.19-.44-.44-.44zm-1.4 9.17c-.25 0-.46.2-.46.46 0 .25.21.46.46.46s.46-.21.46-.46a.472.472 0 0 0-.46-.46zm-1.72 3.24c-.25 0-.46.21-.46.46s.21.46.46.46.46-.21.46-.46-.2-.46-.46-.46zm-1.75 1.08a.49.49 0 1 0 .002.982.49.49 0 0 0-.002-.982z" style="fill:#d99f31"/><path d="M43.11 35.35c.16-.25.52-.53.71-.74.34-.35.55-.76.63-1.25.18-1.15-.15-1.93-.99-2.71-.05.81-.52 1.48-.62 2.29-.14 1.16.6 1.38.08 2.51l.19-.1z" style="fill:#658d5c"/><path d="M32.01 44.72c.77-.01 1.35-.08 2-.21-.16.53-.46 1.53.77 1.53.9 0 1.86-.54 2.79-.07 2.03 1.04 3.56.3 4.8-1.1 0 0-.92.2-1.86.15 0 0 .71-.6.78-1.39-.62.46-1.24.53-1.86.53-.62 0-1.02-.37-1.83-.5.04-.28.09-.57.17-.96.08-.43-.04-.78-.66-.85-1.36-.16-2.68.63-5.09.66-2.43-.04-4.09-.82-5.45-.66-.63.07-.74.42-.66.85l.17.96c-.81.13-1.21.5-1.83.5s-1.24-.07-1.86-.53c.07.79.78 1.39.78 1.39-.94.04-1.86-.15-1.86-.15 1.24 1.39 2.77 2.14 4.8 1.1.93-.48 1.89.07 2.79.07 1.24 0 .93-1 .77-1.53.71.13 1.49.21 2.34.21z" style="fill:#fff"/><path d="M28 43.72c-.16-.01-.42-.03-.42-.03l-.09-1.29.31.04.06 1a4.312 4.312 0 0 1 .55.06l.02.26c-.01.01-.27-.02-.43-.04zm.67.07-.07-1.24.32.05.07 1.24-.32-.05zm.96-.57.11.02c.16.03.17-.03.17-.09 0-.08-.04-.13-.2-.16l-.08-.01v.24zm.01.49.15.03c.17.03.22 0 .21-.09 0-.1-.06-.16-.25-.19l-.12-.02.01.27zm.18.28-.5-.08-.02-1.23.45.08c.31.05.48.19.48.42 0 .1-.05.16-.11.2.09.05.21.16.21.32 0 .22-.14.35-.51.29zm1.18.17-.43-.05-.01-.62-.01-.62.71.07v.24l-.4-.04v.25l.42.04v.23l-.42-.04v.26c.03 0 .18.03.27.04.11.01.29.01.29.01v.25c.01.01-.25-.01-.42-.02zm1.04-.64c.17 0 .24-.07.24-.19s-.05-.17-.2-.17h-.14l.01.35.09.01zm.69.64c-.25-.01-.38-.13-.51-.28l-.14-.15h-.14l.01.43-.31.01-.02-1.24.48-.01c.27 0 .48.12.48.39 0 .13-.06.25-.18.33l.12.12c.07.07.14.12.27.15l-.06.25zm.01-.99v-.24l1.1-.15v.25l-.39.05.01.99-.31.04-.01-.99-.4.05zm1.77-.25-.12.4c.09-.01.18-.02.26-.05-.04-.12-.07-.24-.11-.36l-.03.01zm.33.9-.12-.33c-.06.02-.13.04-.2.05l-.21.03-.13.38-.32.05.39-1.06-.13.03v-.24c.29-.05.56-.1.84-.16l.01.24-.14.03.35.92-.34.06zm.83-.08c-.2 0-.31-.03-.4-.08l.09-.23c.12.04.18.05.32.05.15 0 .22-.05.22-.12 0-.04-.03-.08-.09-.1-.06-.03-.14-.05-.21-.08-.16-.06-.32-.15-.31-.36 0-.24.28-.37.49-.37.2 0 .3.04.4.08l-.08.22c-.1-.03-.19-.05-.32-.05-.12 0-.19.07-.19.11 0 .04.03.06.09.09s.14.05.22.09c.16.07.32.16.32.36-.01.28-.29.39-.55.39z"/><linearGradient id="a" x1="32" x2="32" y1="62" y2="2" gradientUnits="userSpaceOnUse"><stop offset="0" style="stop-color:#1a1a1a"/><stop offset=".102" style="stop-color:#393939;stop-opacity:.949"/><stop offset=".347" style="stop-color:#7f7f7f;stop-opacity:.8262"/><stop offset=".569" style="stop-color:#b6b6b6;stop-opacity:.7156"/><stop offset=".758" style="stop-color:#dedede;stop-opacity:.6209"/><stop offset=".908" style="stop-color:#f6f6f6;stop-opacity:.5459"/><stop offset="1" style="stop-color:#fff;stop-opacity:.5"/></linearGradient><circle cx="32" cy="32" r="30" style="opacity:.1;fill:url(#a)"/></svg>