<svg xmlns="http://www.w3.org/2000/svg" xml:space="preserve" style="enable-background:new 0 0 64 64" viewBox="0 0 64 64"><path d="M11.01 48v5.4C16.42 58.71 23.82 62 32 62c10.68 0 20.06-5.59 25.37-14H11.01z" style="fill:#0072ce"/><path d="M11.01 32v16h46.37A29.91 29.91 0 0 0 62 32H11.01z" style="fill:#e81c27"/><path d="M11.01 32H62c0-5.88-1.7-11.37-4.63-16H11.01v16z" style="fill:#fcfcfc"/><path d="M11.01 16h46.37C52.06 7.59 42.68 2 32 2c-8.18 0-15.58 3.29-20.99 8.6V16z" style="fill:#fcd116"/><path d="M11.01 10.58C5.45 16.02 2 23.61 2 32s3.45 15.98 9.01 21.42L32.43 32 11.01 10.58z" style="fill:#00a650"/><path d="M18 41.8c-4.56-.93-8-4.96-8-9.8s3.44-8.87 8-9.8c-.65-.13-1.31-.2-2-.2-5.52 0-10 4.48-10 10s4.48 10 10 10c.69 0 1.35-.07 2-.2z" style="fill:#fcfcfc"/><path d="m16.76 36 1.24-.94 1.24.94-.47-1.53L20 33.5h-1.53L18 32l-.46 1.5H16l1.23.97zm0 4 1.24-.94 1.24.94-.47-1.53L20 37.5h-1.53L18 36l-.46 1.5H16l1.23.97zm0-12 1.24-.94 1.24.94-.47-1.53L20 25.5h-1.53L18 24l-.46 1.5H16l1.23.97zm0 4 1.24-.94 1.24.94-.47-1.53L20 29.5h-1.53L18 28l-.46 1.5H16l1.23.97z" style="fill:#fcfcfc"/><linearGradient id="a" x1="32" x2="32" y1="62" y2="2" gradientUnits="userSpaceOnUse"><stop offset="0" style="stop-color:#1a1a1a"/><stop offset=".102" style="stop-color:#393939;stop-opacity:.949"/><stop offset=".347" style="stop-color:#7f7f7f;stop-opacity:.8262"/><stop offset=".569" style="stop-color:#b6b6b6;stop-opacity:.7156"/><stop offset=".758" style="stop-color:#dedede;stop-opacity:.6209"/><stop offset=".908" style="stop-color:#f6f6f6;stop-opacity:.5459"/><stop offset="1" style="stop-color:#fff;stop-opacity:.5"/></linearGradient><circle cx="32" cy="32" r="30" style="opacity:.1;fill:url(#a)"/></svg>