<svg xmlns="http://www.w3.org/2000/svg" xml:space="preserve" style="enable-background:new 0 0 64 64" viewBox="0 0 64 64"><path d="M32 2v30H2c0 16.57 13.43 30 30 30s30-13.43 30-30S48.57 2 32 2z" style="fill:red"/><path d="M32 2C15.43 2 2 15.43 2 32h30V2z" style="fill:#0000b3"/><path d="M23.99 20.34 29 19l-5.01-1.34L27.66 14l-5.01 1.35L24 10.34l-3.66 3.67L19 9l-1.34 5.01L14 10.34l1.35 5.01L10.34 14l3.67 3.66L9 19l5.01 1.34L10.34 24l5.01-1.35L14 27.66l3.66-3.67L19 29l1.34-5.01L24 27.66l-1.35-5.01L27.66 24l-3.67-3.66z" style="fill:#fcfcfc"/><path d="M19 13.33c3.13 0 5.67 2.54 5.67 5.67s-2.54 5.67-5.67 5.67-5.67-2.54-5.67-5.67 2.54-5.67 5.67-5.67z" style="fill:#0000b3"/><circle cx="19" cy="19" r="5" style="fill:#fcfcfc"/><linearGradient id="a" x1="32" x2="32" y1="62" y2="2" gradientUnits="userSpaceOnUse"><stop offset="0" style="stop-color:#1a1a1a"/><stop offset=".102" style="stop-color:#393939;stop-opacity:.949"/><stop offset=".347" style="stop-color:#7f7f7f;stop-opacity:.8262"/><stop offset=".569" style="stop-color:#b6b6b6;stop-opacity:.7156"/><stop offset=".758" style="stop-color:#dedede;stop-opacity:.6209"/><stop offset=".908" style="stop-color:#f6f6f6;stop-opacity:.5459"/><stop offset="1" style="stop-color:#fff;stop-opacity:.5"/></linearGradient><circle cx="32" cy="32" r="30" style="opacity:.1;fill:url(#a)"/></svg>