<svg xmlns="http://www.w3.org/2000/svg" xml:space="preserve" style="enable-background:new 0 0 64 64" viewBox="0 0 64 64"><linearGradient id="a" x1="32" x2="32" y1="2" y2="62" gradientUnits="userSpaceOnUse"><stop offset="0" style="stop-color:#f90"/><stop offset=".287" style="stop-color:#ff9500"/><stop offset=".585" style="stop-color:#f80"/><stop offset=".887" style="stop-color:#ff7400"/><stop offset="1" style="stop-color:#ff6a00"/></linearGradient><circle cx="32" cy="32" r="30" style="fill:url(#a)"/><path d="M39.32 16.76C37.28 15.59 34.86 15 32.04 15c-2.82 0-5.25.59-7.3 1.76s-3.64 2.84-4.76 4.99c-1.12 2.16-1.68 4.7-1.68 7.62 0 2.95.56 5.5 1.68 7.66 1.12 2.16 2.7 3.83 4.76 5.01 2.05 1.18 4.49 1.78 7.3 1.78.33 0 .64-.04.96-.05.8 1.34 1.74 2.64 2.85 3.88a20.15 20.15 0 0 0 3.85 3.36l4.15-3.12c-1.03-.87-2.05-1.82-3.06-2.86-.79-.81-1.43-1.73-2-2.72.18-.09.37-.16.54-.26 2.04-1.18 3.61-2.86 4.72-5.01 1.1-2.16 1.66-4.71 1.66-7.66 0-2.92-.55-5.46-1.66-7.62s-2.69-3.83-4.73-5zm-1.77 19.81c-1.36 1.65-3.19 2.47-5.51 2.47-2.34 0-4.18-.81-5.53-2.45-1.34-1.63-2.01-4.04-2.01-7.22 0-3.16.67-5.55 2.01-7.16 1.34-1.62 3.18-2.43 5.53-2.43 2.32 0 4.15.81 5.51 2.43 1.36 1.62 2.03 4.01 2.03 7.16s-.68 5.56-2.03 7.2z" style="fill:#fff"/></svg>