<svg xmlns="http://www.w3.org/2000/svg" xml:space="preserve" style="enable-background:new 0 0 64 64" viewBox="0 0 64 64"><linearGradient id="a" x1="32" x2="32" y1="2" y2="62" gradientUnits="userSpaceOnUse"><stop offset="0" style="stop-color:#f90"/><stop offset=".287" style="stop-color:#ff9500"/><stop offset=".585" style="stop-color:#f80"/><stop offset=".887" style="stop-color:#ff7400"/><stop offset="1" style="stop-color:#ff6a00"/></linearGradient><circle cx="32" cy="32" r="30" style="fill:url(#a)"/><path d="M41.55 35.06c-.6-.45-1.25-.73-1.95-.87 1.38-.43 2.56-1.08 3.55-1.94 1.98-1.72 2.97-4.01 2.97-6.85 0-3-.96-5.31-2.88-6.94-1.92-1.64-4.75-2.46-8.5-2.46H20.49v32h6.92V35.1h4.54c.93 0 1.75.16 2.47.47.72.31 1.24.91 1.57 1.77L40.09 48h7.42l-3.87-9.93c-.51-1.35-1.21-2.35-2.09-3.01zm-7.84-5.31h-6.34v-8.36h6.34c2.04 0 3.51.34 4.43 1.01.91.67 1.37 1.73 1.37 3.17 0 1.41-.46 2.46-1.39 3.15-.94.69-2.4 1.03-4.41 1.03z" style="fill:#fff"/></svg>