<svg xmlns="http://www.w3.org/2000/svg" xml:space="preserve" style="enable-background:new 0 0 64 64" viewBox="0 0 64 64"><path d="M61.51 37.37h-26.4l-22.99 17.1C17.42 59.15 24.38 62 32 62c14.73 0 26.98-10.63 29.51-24.63z" style="fill:#00a650"/><path d="m12.13 9.53 22.99 17.1h26.4C58.98 12.63 46.73 2 32 2c-7.62 0-14.58 2.85-19.87 7.53z" style="fill:red"/><path d="M33.13 32 8.34 13.56C4.37 18.65 2 25.04 2 32s2.37 13.35 6.34 18.44L33.13 32z" style="fill:#1a1626"/><path d="M61.9 34.37c.06-.78.1-1.57.1-2.37s-.04-1.59-.1-2.38H34.12L9.96 11.65c-.57.61-1.1 1.25-1.62 1.91L33.13 32 8.34 50.44c.51.66 1.05 1.29 1.62 1.91l24.16-17.97H61.9z" style="fill:#ffd000"/><path d="M61.9 29.63c-.08-1.01-.21-2.01-.39-2.99h-26.4L12.13 9.53c-.76.67-1.48 1.38-2.17 2.12l24.16 17.97H61.9zm-27.78 4.74L9.96 52.35c.69.74 1.41 1.45 2.17 2.12l22.99-17.1h26.4c.18-.98.31-1.98.39-2.99H34.12z" style="fill:#1a1626"/><path d="M13.36 22.84c-1.86 0-7.62 1.33-7.62 7.34s5.64 6.56 6.75 6.56c1.11 0 5.28-1 4.81-5.5 0 1.28-1.45 3.97-4.47 3.97s-4.92-2.25-4.92-4.47c0-2.22 1.83-5.2 5.03-5.2s5.53 2.83 5.53 5.7c0 2.86-2.25 6.5-5.84 6.5v3.42c2.97 0 8.81-2.28 8.81-9.62.01-7.34-6.22-8.7-8.08-8.7z" style="fill:#ffd000"/><path d="M14.45 32.41c-.01.24.85.48 1.12.54.16.29.24.47.24.47l.02.06.23-.15.04-.03-.03-.04c-.13-.21-.25-.4-.38-.59.09-.21.35-.89.02-1.22-.32-.33-.25.6-.22.93l-.14-.2c.05-.25.2-1.05-.05-1.25-.25-.19-.18.67-.16.96-.05-.07-.1-.14-.16-.21.04-.23.13-1.02-.1-1.19-.23-.16-.15.62-.12.9-.06-.08-.12-.15-.18-.23.03-.24.09-.97-.2-1.16-.28-.19-.13.55-.07.84-.07-.08-.13-.15-.2-.22.02-.23.05-.88-.19-1.05-.06-.05-.1-.02-.12.03-.03-.02-.09-.03-.16-.02-.01-.03-.01-.06-.02-.09.31-.03.67-.09.75-.25.11-.22-.43-.12-.67-.07.07-.05.14-.11.21-.16.23 0 .86-.02.96-.2.09-.17-.42-.08-.68-.02l.15-.12c.22.01.88.01.97-.19.08-.17-.4-.08-.67-.02.06-.04.13-.09.2-.13.34-.04 1.26-.17 1.17-.36-.07-.14-.47-.02-.76.09.05-.03.1-.07.16-.1l-.01-.01c.22-.13.53-.34.43-.51-.13-.2-.43.28-.55.48-.06.03-.12.07-.21.11.16-.2.41-.55.21-.52-.22.04-.48.53-.58.74-.05.03-.1.07-.16.1.16-.25.46-.74.23-.67-.25.08-.46.66-.53.87-.05.04-.11.07-.17.12.14-.25.38-.73.13-.65-.27.08-.4.67-.43.88l-.18.15c.1-.26.33-.85.09-.78-.25.08-.34.76-.37 1.01-.04.03-.08.07-.11.1 0-.04-.01-.08-.02-.12.09-.27.16-.59-.06-.49-.04.02-.07.05-.1.08-.03-.03-.06-.07-.1-.08-.21-.1-.15.22-.06.49-.01.04-.01.08-.02.12-.04-.03-.08-.07-.11-.1-.03-.25-.12-.93-.37-1.01-.24-.07-.02.52.09.78l-.18-.15c-.04-.22-.16-.8-.43-.88-.25-.08-.01.41.13.65-.06-.04-.11-.08-.17-.12-.07-.22-.27-.8-.53-.87-.23-.07.06.42.23.67-.05-.04-.11-.07-.16-.1-.1-.21-.36-.7-.58-.74-.2-.04.05.32.21.52-.08-.05-.15-.08-.21-.11-.12-.2-.43-.68-.55-.48-.1.17.21.38.43.51l-.01.01c.05.03.09.07.15.1-.29-.11-.68-.23-.75-.09-.09.18.79.31 1.15.36.06.04.12.08.19.13-.27-.06-.72-.14-.64.03.09.19.72.2.96.19.06.04.13.08.18.12-.26-.05-.79-.15-.69.02.1.18.73.2.96.2.07.05.12.1.18.16-.25-.05-.76-.14-.65.07.08.16.44.22.75.25-.01.03-.02.06-.02.09-.07 0-.13 0-.16.02-.02-.05-.05-.08-.12-.03-.24.17-.21.82-.19 1.05-.07.07-.13.14-.2.22.07-.29.21-1.04-.07-.84-.29.2-.23.92-.2 1.16-.06.08-.12.15-.18.23.04-.28.12-1.06-.12-.9-.24.17-.14.96-.1 1.19-.05.07-.1.13-.16.21.03-.28.09-1.15-.16-.96-.25.19-.1 1-.05 1.25l-.14.2c.03-.33.1-1.26-.22-.93-.33.33-.07 1.01.02 1.22-.13.19-.25.39-.38.59l-.03.04.06.02.18.11.05.03.03-.06s.08-.18.24-.47c.26-.07 1.13-.3 1.12-.54-.01-.23-.71.13-.95.26.04-.06.07-.11.11-.18.21-.05 1.01-.27 1.09-.56.08-.27-.62.1-.89.25.04-.06.08-.12.13-.19.23-.08.94-.35 1.02-.6.07-.22-.43.02-.69.16.05-.06.09-.12.14-.19.24-.06.96-.28 1.08-.57.12-.28-.51.05-.78.2.09-.1.16-.2.26-.31.17-.03.63-.11.91-.32.28.21.73.29.9.32.09.11.16.2.25.3-.27-.15-.88-.48-.77-.2.12.29.83.5 1.07.57l.15.18c0 .01.01.01.01.02-.26-.14-.77-.39-.7-.16.08.25.77.51 1.01.6l.13.19c-.28-.16-.97-.52-.89-.25.08.29.87.5 1.09.56.04.06.07.12.11.18-.26-.12-.95-.48-.96-.25zm-.65-2.69c-.01.18.04.47.07.62-.06-.07-.12-.12-.18-.19 0-.08 0-.2-.01-.34.06-.02.09-.05.12-.09zm-.45-.21c0 .04.01.08.02.12-.05.01-.1.02-.14.04v-.07c.03-.03.06-.05.09-.08.01-.01.01-.01.03-.01zm-.52.09v.07a.737.737 0 0 1-.14-.04c.01-.04.01-.08.02-.12h.02c.03.03.07.06.1.09zm-.57.12c.03.03.06.06.11.09-.01.14-.01.27-.01.34-.06.06-.12.12-.18.19.04-.15.09-.43.08-.62zm.9.47c-.02-.02-.06-.03-.13-.02-.07-.01-.11 0-.13.02-.14.03-.29.07-.39.1.07-.08.14-.15.21-.22.07-.01.18-.03.31-.05.12.02.22.04.29.05.08.07.15.15.22.22a2.11 2.11 0 0 0-.38-.1z" style="fill:#ffd000"/><linearGradient id="a" x1="32" x2="32" y1="62" y2="2" gradientUnits="userSpaceOnUse"><stop offset="0" style="stop-color:#1a1a1a"/><stop offset=".102" style="stop-color:#393939;stop-opacity:.949"/><stop offset=".347" style="stop-color:#7f7f7f;stop-opacity:.8262"/><stop offset=".569" style="stop-color:#b6b6b6;stop-opacity:.7156"/><stop offset=".758" style="stop-color:#dedede;stop-opacity:.6209"/><stop offset=".908" style="stop-color:#f6f6f6;stop-opacity:.5459"/><stop offset="1" style="stop-color:#fff;stop-opacity:.5"/></linearGradient><path d="M62 32c0 16.57-13.43 30-30 30S2 48.57 2 32 15.43 2 32 2s30 13.43 30 30z" style="opacity:.1;fill:url(#a)"/></svg>