<svg xmlns="http://www.w3.org/2000/svg" xml:space="preserve" viewBox="0 0 64 64"><path fill="#FCFCFC" d="M61.645 27.425 36.574 2.355a30.102 30.102 0 0 0-9.426.047L2.354 27.424a30.265 30.265 0 0 0 .045 9.428l24.75 24.749c3.119.507 6.303.524 9.428.045l25.021-24.794c.509-3.121.527-6.304.047-9.427z"/><path fill="#0038B8" d="m2.354 27.424 24.795.001V2.402a29.842 29.842 0 0 0-16.361 8.385 29.848 29.848 0 0 0-8.434 16.637zm59.291.001a29.866 29.866 0 0 0-8.432-16.638 29.86 29.86 0 0 0-16.639-8.432l.002 25.068 25.069.002zM10.787 53.213a29.86 29.86 0 0 0 16.361 8.388v-24.75l-24.75.001a29.861 29.861 0 0 0 8.389 16.361zm25.789 8.433a29.852 29.852 0 0 0 16.637-8.433 29.852 29.852 0 0 0 8.385-16.361H36.574l.002 24.794z"/><path fill="#FCFCFC" d="M16.145 10.444c-.385.205-.691.501-.691.649 0 .168.226.168-.063.278-.272.112-1.01.259-1.523.242-.178 0-.594-.13-.707-.13-.127.019.547.335.289.259-.352-.112-.562-.148-.289.057.21.147.676.147 1.332.055.258-.036.931-.205 1.171-.241.159-.019.159.148.256.148.866.057 2.407.019 3.081-.093.56-.093.768-.055.929.167.321.427-.015.796-.929 1.02-1.124.278-1.588.519-2.021 1.056-1.043 1.298.176 2.763 2.453 2.967 1.332.128 2.196.426 1.988.666-.079.093-.961.24-1.972.333-2.197.205-3.176.556-4.01 1.484-.466.518-.626.834-.626 1.26 0 .595 0 .595-.851.595-.448 0-1.074-.076-1.362-.186-.448-.131-.513-.131-.354.093.321.444 1.235.834 1.988.834.578 0 .899.128 1.412.556 1.027.869 2.197 1.204 4.139 1.185 2.549-.019 4.008-.797 4.008-2.114 0-.982-.961-1.555-2.965-1.76-1.011-.112-3 .074-3.866.371-.161.055.017-.073.401-.297.465-.259 1.233-.445 2.277-.556 2.31-.222 3.352-.816 3.352-1.928 0-1.075-1.027-1.687-3.225-1.927-2.164-.223-2.325-.668-.495-1.317 1.298-.445 1.954-1.111 1.954-2.019 0-1.391-.656-1.854-2.854-1.983-1.329-.074-1.65-.038-2.227.276zm1.154.39c-.048.093-.177.186-.256.186-.097 0-.113-.093-.064-.186.048-.111.176-.185.256-.185.096 0 .113.074.064.185zm4.634 10.382c.305.128.418.259.322.369-.272.316-2.038.594-3.111.501-1.187-.128-2.47-.575-2.085-.761 1.074-.48 3.895-.537 4.874-.109zm22.248-10.772c-.384.205-.688.501-.688.649 0 .168.225.168-.064.278-.272.112-1.011.259-1.523.242-.178 0-.594-.13-.706-.13-.128.019.545.335.29.259-.354-.112-.563-.148-.29.057.208.147.674.147 1.331.055.257-.036.931-.205 1.171-.241.161-.019.161.148.257.148.865.057 2.405.019 3.079-.093.561-.093.771-.055.93.167.321.427-.016.796-.93 1.02-1.122.278-1.587.519-2.021 1.056-1.043 1.298.176 2.763 2.454 2.967 1.33.128 2.197.426 1.987.666-.08.093-.962.24-1.973.333-2.196.205-3.175.556-4.01 1.484-.463.518-.624.834-.624 1.26 0 .595 0 .595-.85.595-.45 0-1.075-.076-1.364-.186-.449-.131-.513-.131-.353.093.322.444 1.236.834 1.989.834.577 0 .896.128 1.412.556 1.025.869 2.196 1.204 4.136 1.185 2.55-.019 4.011-.797 4.011-2.114 0-.982-.964-1.555-2.968-1.76-1.011-.112-2.999.074-3.864.371-.16.055.016-.073.399-.297.466-.259 1.235-.445 2.278-.556 2.309-.222 3.352-.816 3.352-1.928 0-1.075-1.025-1.687-3.223-1.927-2.165-.223-2.326-.668-.498-1.317 1.299-.445 1.957-1.111 1.957-2.019 0-1.391-.658-1.854-2.855-1.983-1.33-.074-1.652-.038-2.229.276zm1.156.39c-.049.093-.178.186-.257.186-.097 0-.112-.093-.064-.186.049-.111.176-.185.257-.185.096 0 .112.074.064.185zm4.635 10.382c.305.128.416.259.319.369-.272.316-2.036.594-3.111.501-1.186-.128-2.469-.575-2.085-.761 1.075-.48 3.898-.537 4.877-.109zM16.145 39.995c-.385.204-.691.501-.691.649 0 .168.226.168-.063.277-.272.111-1.01.26-1.523.242-.178 0-.594-.131-.707-.131-.127.02.547.336.289.26-.352-.111-.562-.147-.289.057.21.148.676.148 1.332.055.258-.035.931-.204 1.171-.24.159-.019.159.148.256.148.866.057 2.407.019 3.081-.094.56-.092.768-.055.929.167.321.428-.015.797-.929 1.021-1.124.277-1.588.518-2.021 1.056-1.043 1.298.176 2.763 2.453 2.967 1.332.129 2.196.426 1.988.666-.079.093-.961.241-1.972.333-2.197.205-3.176.557-4.01 1.484-.466.518-.626.834-.626 1.26 0 .594 0 .594-.851.594-.448 0-1.074-.075-1.362-.186-.448-.13-.513-.13-.354.094.321.444 1.235.834 1.988.834.578 0 .899.129 1.412.557 1.027.868 2.197 1.203 4.139 1.185 2.549-.019 4.008-.797 4.008-2.114 0-.982-.961-1.555-2.965-1.76-1.011-.111-3 .074-3.866.371-.161.055.017-.074.401-.297.465-.26 1.233-.445 2.277-.557 2.31-.221 3.352-.815 3.352-1.928 0-1.075-1.027-1.687-3.225-1.927-2.164-.224-2.325-.668-.495-1.317 1.298-.444 1.954-1.11 1.954-2.019 0-1.392-.656-1.854-2.854-1.983-1.329-.074-1.65-.038-2.227.276zm1.154.39c-.048.093-.177.186-.256.186-.097 0-.113-.093-.064-.186.048-.111.176-.186.256-.186.096 0 .113.074.064.186zm4.634 10.381c.305.129.418.26.322.369-.272.316-2.038.595-3.111.502-1.187-.129-2.47-.575-2.085-.761 1.074-.481 3.895-.538 4.874-.11zm22.248-10.771c-.384.204-.688.501-.688.649 0 .168.225.168-.064.277-.272.111-1.011.26-1.523.242-.178 0-.594-.131-.706-.131-.128.02.545.336.29.26-.354-.111-.563-.147-.29.057.208.148.674.148 1.331.055.257-.035.931-.204 1.171-.24.161-.019.161.148.257.148.865.057 2.405.019 3.079-.094.561-.092.771-.055.93.167.321.428-.016.797-.93 1.021-1.122.277-1.587.518-2.021 1.056-1.043 1.298.176 2.763 2.454 2.967 1.33.129 2.197.426 1.987.666-.08.093-.962.241-1.973.333-2.196.205-3.175.557-4.01 1.484-.463.518-.624.834-.624 1.26 0 .594 0 .594-.85.594-.45 0-1.075-.075-1.364-.186-.449-.13-.513-.13-.353.094.322.444 1.236.834 1.989.834.577 0 .896.129 1.412.557 1.025.868 2.196 1.203 4.136 1.185 2.55-.019 4.011-.797 4.011-2.114 0-.982-.964-1.555-2.968-1.76-1.011-.111-2.999.074-3.864.371-.16.055.016-.074.399-.297.466-.26 1.235-.445 2.278-.557 2.309-.221 3.352-.815 3.352-1.928 0-1.075-1.025-1.687-3.223-1.927-2.165-.224-2.326-.668-.498-1.317 1.299-.444 1.957-1.11 1.957-2.019 0-1.392-.658-1.854-2.855-1.983-1.33-.074-1.652-.038-2.229.276zm1.156.39c-.049.093-.178.186-.257.186-.097 0-.112-.093-.064-.186.049-.111.176-.186.257-.186.096 0 .112.074.064.186zm4.635 10.381c.305.129.416.26.319.369-.272.316-2.036.595-3.111.502-1.186-.129-2.469-.575-2.085-.761 1.075-.481 3.898-.538 4.877-.11z"/><linearGradient id="a" x1="32.001" x2="32.001" y1="62" y2="2.001" gradientUnits="userSpaceOnUse"><stop offset="0" style="stop-color:#1a1a1a"/><stop offset=".102" style="stop-color:#393939;stop-opacity:.949"/><stop offset=".347" style="stop-color:#7f7f7f;stop-opacity:.8262"/><stop offset=".569" style="stop-color:#b6b6b6;stop-opacity:.7156"/><stop offset=".758" style="stop-color:#dedede;stop-opacity:.6209"/><stop offset=".908" style="stop-color:#f6f6f6;stop-opacity:.5459"/><stop offset="1" style="stop-color:#fff;stop-opacity:.5"/></linearGradient><circle cx="32" cy="32" r="30" fill="url(#a)" opacity=".1"/></svg>