<svg xmlns="http://www.w3.org/2000/svg" xml:space="preserve" viewBox="0 0 64 64"><linearGradient id="a" x1="32" x2="32" y1="2" y2="62" gradientUnits="userSpaceOnUse"><stop offset="0" style="stop-color:#f90"/><stop offset=".287" style="stop-color:#ff9500"/><stop offset=".585" style="stop-color:#f80"/><stop offset=".887" style="stop-color:#ff7400"/><stop offset="1" style="stop-color:#ff6a00"/></linearGradient><path fill="url(#a)" d="M62 54c0 4.4-3.6 8-8 8H10c-4.4 0-8-3.6-8-8V10c0-4.4 3.6-8 8-8h44c4.4 0 8 3.6 8 8v44z"/><path fill="#FFF" d="M47 20.584v20.295h-4.61v-1.644h-8.253v8.775H29.49v-8.775h-8.065v1.816H17V20.584h12.49V15.99h4.646v4.594H47zm-25.575 3.908v3.461h8.065v-3.461h-8.065zm8.065 10.834v-3.635h-8.065v3.635h8.065zm4.647-10.834v3.461h8.253v-3.461h-8.253zm8.253 10.834v-3.635h-8.253v3.635h8.253z"/></svg>