<svg xmlns="http://www.w3.org/2000/svg" xml:space="preserve" style="enable-background:new 0 0 64 64" viewBox="0 0 64 64"><linearGradient id="a" x1="23.936" x2="20.737" y1="12.387" y2="5.734" gradientUnits="userSpaceOnUse"><stop offset=".123" style="stop-color:#ffe0bd"/><stop offset=".245" style="stop-color:#f2dec8"/><stop offset=".47" style="stop-color:#e1dcd7"/><stop offset=".712" style="stop-color:#d6dae0"/><stop offset="1" style="stop-color:#d3dae3"/></linearGradient><path d="M26.538 8.076c-1.296 4.836-8.601 6.732-8.978 1.746-.645-8.53 10.278-6.6 8.978-1.746z" style="fill:url(#a)"/><linearGradient id="b" x1="45.601" x2="52.636" y1="17.473" y2="15.104" gradientUnits="userSpaceOnUse"><stop offset=".123" style="stop-color:#ffe0bd"/><stop offset=".245" style="stop-color:#f2dec8"/><stop offset=".47" style="stop-color:#e1dcd7"/><stop offset=".712" style="stop-color:#d6dae0"/><stop offset="1" style="stop-color:#d3dae3"/></linearGradient><path d="M45.7 16.064c-.096 5.212 9.167 5.09 8.018 0-1.15-5.088-7.922-5.21-8.018 0z" style="fill:url(#b)"/><linearGradient id="c" x1="40.988" x2="52.377" y1="16.125" y2="7.309" gradientUnits="userSpaceOnUse"><stop offset=".123" style="stop-color:#ffe0bd"/><stop offset=".245" style="stop-color:#f2dec8"/><stop offset=".47" style="stop-color:#e1dcd7"/><stop offset=".712" style="stop-color:#d6dae0"/><stop offset="1" style="stop-color:#d3dae3"/></linearGradient><path d="M41.46 11.172c0 7.704 11.853 7.704 11.853 0 0-7.705-11.852-7.705-11.852 0z" style="fill:url(#c)"/><path d="M40.62 17.985c.544 4.025-15.366 6.667-15.874 1.495-.509-5.172 15.331-5.52 15.875-1.495z" style="fill:#ff8c3b"/><path d="M24.969 27.506c.944-1.2 4.462-1.378 6.136.802l-.214.307c-1.822-2.762-4.598-1.323-5.744-.469-.603.449-.602-.101-.178-.64z" style="fill:#f74a00"/><path d="M22.706 25.446c1.756-1.47 7.402-1.222 9.614 1.915l-.406.379c-2.326-3.933-7.053-2.396-9.06-1.416-1.053.515-.938-.218-.148-.878zm16.121 1.092c-1.203-.954-4.667-.33-5.78 2.17l.281.25c1.119-3.1 4.16-2.328 5.477-1.757.692.3.562-.235.022-.663z" style="fill:#f74a00"/><path d="M39.95 23.42c-2.058-.67-6.827 1.293-7.566 4.577l.49.187c.542-3.978 5.182-4.178 7.274-3.992 1.1.098.727-.473-.198-.773z" style="fill:#f74a00"/><path d="M34.246 17.91s-1.414 4.659-1.65 9.848h1.268c.062-6.244 1.655-9.377 1.655-9.377l-1.273-.472z" style="fill:#f74a00"/><path d="M38.486 19.067s-2.578 4.097-4.768 8.829l.674.176c2.429-5.775 5.097-8.104 5.097-8.104l-1.003-.901zm-7.71-.912s1.682 4.543 2.487 9.677l-1.026.075c-.747-6.202-2.675-9.149-2.675-9.149l1.214-.603zm-6.273 2.874s4.445.53 7.082 6.936l-.833.164c-2.17-5.873-7.656-5.782-7.656-5.782l1.407-1.318z" style="fill:#f74a00"/><linearGradient id="d" x1="26.54" x2="17.77" y1="21.827" y2="14.158" gradientUnits="userSpaceOnUse"><stop offset="0" style="stop-color:#ff8c3b"/><stop offset=".02" style="stop-color:#fd9043"/><stop offset=".131" style="stop-color:#f2a36e"/><stop offset=".248" style="stop-color:#e8b492"/><stop offset=".37" style="stop-color:#e1c2af"/><stop offset=".499" style="stop-color:#dbcdc6"/><stop offset=".638" style="stop-color:#d6d4d6"/><stop offset=".793" style="stop-color:#d4d9e0"/><stop offset="1" style="stop-color:#d3dae3"/></linearGradient><path d="M16.164 17.934c0 7.705 11.85 7.705 11.85 0 0-7.704-11.85-7.704-11.85 0z" style="fill:url(#d)"/><linearGradient id="e" x1="39.027" x2="46.463" y1="20.159" y2="14.903" gradientUnits="userSpaceOnUse"><stop offset="0" style="stop-color:#ff8c3b"/><stop offset=".02" style="stop-color:#fd9043"/><stop offset=".131" style="stop-color:#f2a36e"/><stop offset=".248" style="stop-color:#e8b492"/><stop offset=".37" style="stop-color:#e1c2af"/><stop offset=".499" style="stop-color:#dbcdc6"/><stop offset=".638" style="stop-color:#d6d4d6"/><stop offset=".793" style="stop-color:#d4d9e0"/><stop offset="1" style="stop-color:#d3dae3"/></linearGradient><path d="M38.033 17.163c.758 5.627 9.96 6.364 9.56.698-.401-5.665-10.317-6.325-9.56-.698z" style="fill:url(#e)"/><linearGradient id="f" x1="24" x2="24" y1="19.222" y2="9.261" gradientTransform="rotate(.917 -527.551 575.633)" gradientUnits="userSpaceOnUse"><stop offset="0" style="stop-color:#f74a00"/><stop offset="1" style="stop-color:#ffe12c"/></linearGradient><path d="M31.65 18.138s1.363 4.828.93 9.977l.907.014c-.54-6.206.846-9.949.846-9.949l-2.682-.042z" style="fill:url(#f)"/><linearGradient id="g" x1="-132.901" x2="-132.901" y1="-104.171" y2="-114.294" gradientTransform="rotate(16.096 -515.673 554.616)" gradientUnits="userSpaceOnUse"><stop offset="0" style="stop-color:#f74a00"/><stop offset="1" style="stop-color:#ffe12c"/></linearGradient><path d="M36.266 17.687s-1.87 4.771-2.029 9.935h.728c-.115-6.228 3.879-9.208 3.879-9.208l-2.578-.727z" style="fill:url(#g)"/><linearGradient id="h" x1="-1237.808" x2="-1237.808" y1="297.509" y2="287.244" gradientTransform="scale(-1 1) rotate(23.884 1.897 3014.77)" gradientUnits="userSpaceOnUse"><stop offset="0" style="stop-color:#f74a00"/><stop offset="1" style="stop-color:#ffe12c"/></linearGradient><path d="M28.32 18.449s2.999 4.297 4.276 9.31l-1.201.37c-1.097-6.135-5.527-8.618-5.527-8.618l2.452-1.062z" style="fill:url(#h)"/><linearGradient id="i" x1="-1268.343" x2="-1268.343" y1="438.65" y2="429.069" gradientTransform="scale(-1 1) rotate(34.806 3.53 2214.227)" gradientUnits="userSpaceOnUse"><stop offset="0" style="stop-color:#f74a00"/><stop offset="1" style="stop-color:#ffe12c"/></linearGradient><path d="M19.56 24.063c2.232-1.86 8.824-.834 11.048 3.851l-.52.486c-2.265-5.82-7.989-4.222-10.457-3.081-1.297.6-1.075-.42-.072-1.256z" style="fill:url(#i)"/><linearGradient id="j" x1="-1183.25" x2="-1183.25" y1="186.953" y2="176.399" gradientTransform="scale(-1 1) rotate(14.833 .606 4552.318)" gradientUnits="userSpaceOnUse"><stop offset="0" style="stop-color:#f74a00"/><stop offset="1" style="stop-color:#ffe12c"/></linearGradient><path d="M20.226 20.05c3.36-1.114 10.457 2.296 10.97 7.906l-.805.314c-.068-6.792-7.308-7.194-10.627-6.903-1.743.152-1.047-.816.462-1.317z" style="fill:url(#j)"/><linearGradient id="k" x1="-371.225" x2="-371.225" y1="-184.026" y2="-193.607" gradientTransform="rotate(34.805 -510.94 572.86)" gradientUnits="userSpaceOnUse"><stop offset="0" style="stop-color:#f74a00"/><stop offset="1" style="stop-color:#ffe12c"/></linearGradient><path d="M43.556 24.86c-2.232-1.86-8.824-.835-11.049 3.85l.52.486c2.266-5.82 7.99-4.222 10.458-3.081 1.297.6 1.074-.42.072-1.256z" style="fill:url(#k)"/><linearGradient id="l" x1="-43.771" x2="-43.771" y1="-34.016" y2="-44.538" gradientTransform="rotate(7.161 -508.404 647.004)" gradientUnits="userSpaceOnUse"><stop offset="0" style="stop-color:#f74a00"/><stop offset="1" style="stop-color:#ffe12c"/></linearGradient><path d="M42.355 19.282c-3.482-.665-10.05 3.64-9.795 9.267l.842.206c-.86-6.74 6.262-8.084 9.59-8.229 1.749-.076.927-.945-.637-1.244z" style="fill:url(#l)"/><linearGradient id="m" x1="16.632" x2="11.076" y1="18.788" y2="14.667" gradientUnits="userSpaceOnUse"><stop offset=".123" style="stop-color:#ffe0bd"/><stop offset=".245" style="stop-color:#f2dec8"/><stop offset=".47" style="stop-color:#e1dcd7"/><stop offset=".712" style="stop-color:#d6dae0"/><stop offset="1" style="stop-color:#d3dae3"/></linearGradient><path d="M17.22 16.541c0 4.082-7.234 4.082-7.234 0 0-4.08 7.235-4.08 7.235 0z" style="fill:url(#m)"/><path d="M12.826 8.904c0 2.03-4.612 3.17-4.612 0 0-3.169 4.612-2.03 4.612 0z" style="fill:#d3dae3"/><linearGradient id="n" x1="19.458" x2="11.809" y1="15.685" y2="7.816" gradientUnits="userSpaceOnUse"><stop offset=".123" style="stop-color:#ffe0bd"/><stop offset=".245" style="stop-color:#f2dec8"/><stop offset=".47" style="stop-color:#e1dcd7"/><stop offset=".712" style="stop-color:#d6dae0"/><stop offset="1" style="stop-color:#d3dae3"/></linearGradient><path d="M20.364 10.89c0 6.227-12.361 6.016-10.722 0 1.64-6.018 10.722-6.228 10.722 0z" style="fill:url(#n)"/><linearGradient id="o" x1="19.705" x2="17.768" y1="22.866" y2="12.126" gradientUnits="userSpaceOnUse"><stop offset="0" style="stop-color:#ff8c3b"/><stop offset=".02" style="stop-color:#fd9043"/><stop offset=".131" style="stop-color:#f2a36e"/><stop offset=".248" style="stop-color:#e8b492"/><stop offset=".37" style="stop-color:#e1c2af"/><stop offset=".499" style="stop-color:#dbcdc6"/><stop offset=".638" style="stop-color:#d6d4d6"/><stop offset=".793" style="stop-color:#d4d9e0"/><stop offset="1" style="stop-color:#d3dae3"/></linearGradient><path d="M23.607 14.912c0 6.139-12.138 5.32-10.367 0 1.771-5.319 10.367-6.138 10.367 0z" style="fill:url(#o)"/><linearGradient id="p" x1="19.213" x2="31.698" y1="62.002" y2="32.846" gradientUnits="userSpaceOnUse"><stop offset="0" style="stop-color:#424b4f"/><stop offset=".562" style="stop-color:#7a8a91"/><stop offset=".705" style="stop-color:#a78c72"/><stop offset=".868" style="stop-color:#d48d53"/><stop offset=".95" style="stop-color:#e68e47"/></linearGradient><path d="m37.207 32.761-6.44-4.962-9.375 7.187-6.782 8.206-2.105.609S2 53.343 2 54.19c0 .681 7.335 4.22 7.335 4.22l1.544.025 8.468 1.788 1.337.845 13.37 2.699 4.245-.171 6.337-12.92-7.429-17.916z" style="fill:url(#p)"/><path d="m28.239 30.462-5.672 6.977-2.965 6.159L5.38 52.886l15.416-8.324 2.5-6.983zm-8.892 29.762 1.337.845 1.525-4.016 4.586-5.594-5.63 5.223zM9.335 58.411l1.543.025 5.889-4.934.473-2.64 6.11-4.77-6.648 4.388-.979 2.651z" style="opacity:.7;fill:#2a3236"/><linearGradient id="q" x1="50.738" x2="36.335" y1="59.914" y2="30.294" gradientUnits="userSpaceOnUse"><stop offset="0" style="stop-color:#323c40"/><stop offset=".21" style="stop-color:#3c474c"/><stop offset=".516" style="stop-color:#515f66"/><stop offset=".597" style="stop-color:#756258"/><stop offset=".7" style="stop-color:#9d6648"/><stop offset=".794" style="stop-color:#b9683d"/><stop offset=".877" style="stop-color:#cb6936"/><stop offset=".937" style="stop-color:#d16a34"/></linearGradient><path d="M62 54.19c-.234-2.353-4.597-5.72-7.208-9.808-2.157-1.738-6.637-7.284-6.637-7.284l-7.753-6.948-7.55 1.605.027 1.146 2.807 6.25 2.78 3.396.945 6.547-6.408-4.528-.319 6.542 4.593 6.698 1.022 5.791 2.07-2.462 11.16-1.15 1.279-1.73 5.82-1.924s2.29-1.614 3.372-2.14z" style="fill:url(#q)"/><path d="m58.18 54.072-3.072-3.857-8.622-6.934-6.25-2.069 5.61 2.784 8.958 6.452zm-1.175 2.796 1.623-.537-4.092-2.339-4.333-4.737 3.994 5.436zM40.37 61.135l1.2-.124.725-2.776-1.778-4.43 1.054 4.545zm-10.56-4.871 2.332-4.058.872-.617 2.651 1.637-2.981-2.118-.958.848zm4.534-15.629 1.15-.854.192-.63 2.65.295-3.086-1.267-.017 1.474z" style="opacity:.7;fill:#2a3236"/><path d="m27.166 48.15 5.963-4.958 6.146 4.959 10.082 6.014 3.451 4.09-1.279 1.73-2.54-5.46-9.578-5.431-6.408-4.528z" style="opacity:.7;fill:#2a3236"/><linearGradient id="r" x1="14.57" x2="45.028" y1="-13.663" y2="19.479" gradientTransform="matrix(1 0 0 .919 0 46.992)" gradientUnits="userSpaceOnUse"><stop offset="0" style="stop-color:#ffe12c"/><stop offset=".122" style="stop-color:#fdc323"/><stop offset=".32" style="stop-color:#fb9817"/><stop offset=".511" style="stop-color:#f9760d"/><stop offset=".693" style="stop-color:#f85e06"/><stop offset=".86" style="stop-color:#f74f01"/><stop offset="1" style="stop-color:#f74a00"/></linearGradient><path d="M39.64 36.516c-1.507-1.898-4.781-.973-6.761-3.615-1.394-1.86-5.402 3.787-6.084 5.908-.421 1.31-.532 5.48-.532 5.48l.532 2.89 1.194 1.534 2.333 2.746.527 2.468-1.04 2.337c-.826 3.381 1.676 3.314.76 4.006-.987.744.5 1.217 3.485 3.498.549.419-.908.178-2.763 0-1.778-.171-2.578-1.114-3.475-1-.78.1-6.663.583-3.02-.87 1.54-.614.596-1.628 1.893-2.164.733-.302.25-2.084 1.31-3.192 1.543-1.613.175-4.732.175-4.732l-1.453-2.562-1.403-1.375-.86-3.445.212-4.861s1.35-3.318 1.065-3.028c-.586.598-1.639 2.868-1.639 2.868l-.278 3.132.486 3.375s.59 3.49 1.908 4.062c1.13.49.954 1.132.583 1.483 0 0-3.484 3.758-5.425 5.133-.494.35-.16 1.8-.993 2.376-.487.336-1.13 1.156.307 2.101.625.41-1.186 1.4-3.11.441-2.236-1.114-5.165.626-7.7-.687-.96-.497 2.462-1.794 2.478-2.076.064-1.153 5.796-1.834 6.34-2.853 2.02-3.782 4.888-4.057 5.667-5.956.378-.92-1.008-3.847-1.008-3.847l-.894-4.107s-.139-2.69.838-4.405c.646-1.134.023-2.09-1.81-1.618-2.704.697-.935-1.083.333-1.75 1.584-.833.627-1.773 2.852-3.25 1.245-.826 2.73-3.3 3.898-2.89 2.08-.647 9.205.356 10.075.684 2.456.924 9.144 7.789 9.144 7.789l7.184 7.787s4.514 5.486 4.264 6.986c-.105.632-1.417-2.63-4.278-6.083-1.832-2.212-5.001-5.245-7.278-6.917-2.187-1.607.284 2.193.5 2.895.174.564.14 2.355.14 2.355s5.286 5.03 7.522 6.558c.44.3 1.663 2.98 1.996 3.3 1.459 1.392 2.74 1.061 3.26 1.273 2.078.849-2.186 2.808-3.14 2.638-1.183-.212-2.099.418-3.634.418-.215 0 .593-.736 2.495-1.124 1.149-.234 1.665-.46 1.401-.533-.727-.198-1.839-1.974-1.882-2.138l-1.23-3.743-7.577-6.095s-.207-2.539-.715-3.174c-1.318-1.646-5.865-2.78-7.175-4.43z" style="fill:url(#r)"/><linearGradient id="s" x1="36.935" x2="35.991" y1="42.451" y2="26.785" gradientUnits="userSpaceOnUse"><stop offset=".152" style="stop-color:#f74a00"/><stop offset=".27" style="stop-color:#f74f01"/><stop offset=".412" style="stop-color:#f85e06"/><stop offset=".566" style="stop-color:#f9760d"/><stop offset=".729" style="stop-color:#fb9817"/><stop offset=".897" style="stop-color:#fdc323"/><stop offset="1" style="stop-color:#ffe12c"/></linearGradient><path d="M28.957 31.239c-2.639 1.5-2.778 3.027-3.722 2.61-.865-.38.44-1.414-.268-2.721-.489-.904 2.113-3.343 3.546-3.388.914-.43 2.867.116 3.62-.204 1.677-.714 2.381-.273 3.55.138 2.08-.649 2.09.753 2.96 1.08 2.455.925 6.587 4.259 8.3 6.202.28.318 2.346 3.367.07 1.694-2.188-1.607-2.195-3.194-4-3-.586.063.268.861.185 1.778-.089.976-2.836-1.586-3.77-1.38-2.055.45-2.198-3.817-4.47-3.06-2.731.91-2.268-1.871-6 .25z" style="fill:url(#s)"/><linearGradient id="t" x1="31.843" x2="32.169" y1="14.566" y2="1.521" gradientUnits="userSpaceOnUse"><stop offset=".123" style="stop-color:#ffe0bd"/><stop offset=".245" style="stop-color:#f2dec8"/><stop offset=".47" style="stop-color:#e1dcd7"/><stop offset=".712" style="stop-color:#d6dae0"/><stop offset="1" style="stop-color:#d3dae3"/></linearGradient><path d="M39.83 6.932c1.004 10.662-15.66 7.704-15.66 0 0-7.705 14.657-10.663 15.66 0z" style="fill:url(#t)"/><linearGradient id="u" x1="35.991" x2="43.371" y1="15.244" y2="4.759" gradientUnits="userSpaceOnUse"><stop offset=".123" style="stop-color:#ffe0bd"/><stop offset=".245" style="stop-color:#f2dec8"/><stop offset=".47" style="stop-color:#e1dcd7"/><stop offset=".712" style="stop-color:#d6dae0"/><stop offset="1" style="stop-color:#d3dae3"/></linearGradient><path d="M33.854 7.766c-1.658 7.532 13.862 9.386 12.84 1.746-1.02-7.64-11.181-9.277-12.84-1.746z" style="fill:url(#u)"/><linearGradient id="v" x1="-57.966" x2="-50.475" y1="-50.179" y2="-57.313" gradientTransform="rotate(9.284 -432.12 544.362)" gradientUnits="userSpaceOnUse"><stop offset="0" style="stop-color:#ff8c3b"/><stop offset=".02" style="stop-color:#fd9043"/><stop offset=".131" style="stop-color:#f2a36e"/><stop offset=".248" style="stop-color:#e8b492"/><stop offset=".37" style="stop-color:#e1c2af"/><stop offset=".499" style="stop-color:#dbcdc6"/><stop offset=".638" style="stop-color:#d6d4d6"/><stop offset=".793" style="stop-color:#d4d9e0"/><stop offset="1" style="stop-color:#d3dae3"/></linearGradient><path d="M32.165 13.897c-1.27 7.978 9.431 6.576 10.601 2.446 1.103-3.89-9.585-8.821-10.6-2.446z" style="fill:url(#v)"/><linearGradient id="w" x1="31.682" x2="25.486" y1="20.768" y2="8.959" gradientUnits="userSpaceOnUse"><stop offset="0" style="stop-color:#ff8c3b"/><stop offset=".02" style="stop-color:#fd9043"/><stop offset=".131" style="stop-color:#f2a36e"/><stop offset=".248" style="stop-color:#e8b492"/><stop offset=".37" style="stop-color:#e1c2af"/><stop offset=".499" style="stop-color:#dbcdc6"/><stop offset=".638" style="stop-color:#d6d4d6"/><stop offset=".793" style="stop-color:#d4d9e0"/><stop offset="1" style="stop-color:#d3dae3"/></linearGradient><path d="M31.233 8.749c-4.246-1.354-9.909.677-9.909 6.091 0 8.663 14.496 8.663 14.496 0 0-3.248-2.039-5.279-4.587-6.091" style="fill:url(#w)"/><linearGradient id="x" x1="34.263" x2="36.977" y1="17.317" y2="9.785" gradientUnits="userSpaceOnUse"><stop offset="0" style="stop-color:#ff8c3b"/><stop offset=".02" style="stop-color:#fd9043"/><stop offset=".131" style="stop-color:#f2a36e"/><stop offset=".248" style="stop-color:#e8b492"/><stop offset=".37" style="stop-color:#e1c2af"/><stop offset=".499" style="stop-color:#dbcdc6"/><stop offset=".638" style="stop-color:#d6d4d6"/><stop offset=".793" style="stop-color:#d4d9e0"/><stop offset="1" style="stop-color:#d3dae3"/></linearGradient><path d="M39.035 12.202c0 2.696-5.744 4.209-5.744 0 0-4.208 5.744-2.696 5.744 0z" style="fill:url(#x)"/></svg>