<svg xmlns="http://www.w3.org/2000/svg" xml:space="preserve" viewBox="0 0 64 64"><circle cx="32" cy="32" r="30" fill="#0080FF"/><path fill="#CF0" d="M16.734 8.561c.443.49.5.877.332 1.467-.162.58.08 1.225-.246 1.768-.469.779.209.689.205 1.438-.004.521-.527 1.111-.885 1.488-.783.822-2.232 1.977-2.113 3.109.064.584.152 1.199.266 1.807.125.656.885.346 1.17.971.268.578-.047 1.238.248 1.818.102.201.486.359.41.613a1.627 1.627 0 0 1-.41.275c-.17.547.887.652.871 1.266-.008.313.725 1.027 1.098 1.102.5-.246-1.176-3.346-.902-4.082.836-.039.217.846.65 1.289.477.492.701.961.785 1.523.525.395 1.004.834 1.275 1.385.289.588-.232 1.314.246 1.77.703.668 2.4 1.34 3.438 1.635.604.17 1.5-.203 1.979.043.721.379.896 1.021 1.795 1.201 1.055.219 1.715.303 1.941 1.271.164.695 1.02.543 1.338 1.119.117.207 1.141.611 1.439.684.391.1.51-.76.504-.947-2.154.563-1.811-1.301-1.484-2.256.285-.822-.221-1.127-1.154-1.154-.549-.02-1.057.246-1.176-.352-.059-.24.012-.432.215-.588.539-.43.303-1.066.738-1.477.656-.615-1.324-.322-1.545-.258-.854.26-.242 1.188-1.281 1.307-.563.064-1.256.16-1.785-.07-1.322-.568-.574-2.453-.197-3.268.264-.568.047-.992.727-1.357.588-.314 1.242-.541 1.895-.744.459.209 1.697.445 2 .137.309-.311.904-.469 1.373-.422.275.029.529.148.605.389a4.03 4.03 0 0 1 .533-.07c.541.082.379.645.412.959.039.389.424 1.484 1.032 1.152.512-.279.412-.885.336-1.311-.107-.588-.371-1.148.096-1.658.502-.555 1.219-.934 1.951-1.24 1.502-.637 1.564-1.773 2.738-2.744.629-.525.906-.764 1.775-.949.6-.131.635-.225.729-.656.313-.486 1.303-.795 1.893-.789.535.006.674.707 1.137.203.293-.32 2.369-.502 2.182-.832-.381-.662-2.096-.057-.953-1.355.428-.49-.102-.846.945-.867.58-.012 1.209.125 1.773-.061.287.572-.775.771-.617 1.338.693.242 1.545.09 2.303.322 1.014.313.695-.898.82-1.35-.803-.49-.592-.625-.354-1.441.152-.506-.346-1.125-.965-1.199-.336-.357-.279-.922-.32-1.346-.037-.393-.107-.939-.66-1.057-.496.232-.938.746-1.555.758-.518.008-.645-.311-.42-.643.295-.447-.09-.441-.4-.734-.467-.447-1.072-.551-1.766-.541-.855.008-.652.551-1.234.852.111.787-.543.533-.943 1.031.096.428.568.301.205.801-.205.285-.551.469-.906.607-.866.339-1.069.283-1.313 1.068-.092.311-.738 1.281-1.205.619-.33-.463.316-1.039.547-1.418-.422-.285-1.051-.074-1.525-.299-.473-.221-.809-.607-1.328-.766-1.926-.582.264-1.98 1.336-2.264.635-.166 2.045-.896 2.652-.584.547.275.691.252 1.254-.039.377-.193 1.053.365 1.266-.063-.277-.486-.842-.705-.004-.938a2.763 2.763 0 0 0 1.113-.609 29.461 29.461 0 0 0-4.217-1.418c-.213.184-.363.395-.352.586.049.65-1.924.553-1.877.561-.607-.113-1.211.197-1.807 0-.514-.166-.609-.395-1.227-.334-1.127.109-1.86.543-2.909.004-.371-.188-.541-.023-.912-.08-.346-.053-.572-.32-.902-.41-.943-.254-2.123-.109-3.049-.086-.729.014-2.08.086-2.729.332-.311.119-.641.066-.971-.029a29.847 29.847 0 0 0-8.021 4.033c.305.078.586.156.779.178.767.079.855.417 1.269.876z"/><path fill="#CF0" d="M33.064 25.693c-.536-.158-2.858-.322-2.665.637.5.066.857-.311 1.383-.221.264.066.537.104.814.111.62.023.842.553 1.374.729.387.301-.035.332.738.277.258.211 1.068.26 1.115-.016.13-.774-1.87-1.255-2.759-1.517zm4.967 1.832c-.244-.057-1.818-.625-1.93-.232.031.234.338.246.291.514-.234.023-.762-.064-.904.172.469.324 1.348.314 1.807.309.262-.04 2.422-.366.736-.763zm16.324 13.789c-.723-.52-.684-1.137-1.773-1.34-.938-.172-1.621-.963-2.367-1.414-.592-.355-1.541-.703-1.727-1.262-.104-.307-.248-.723-.287-1.039a2.038 2.038 0 0 0-1.213-1.664c-1.043-.477-1.836-.463-2.227-1.426-.154-.391-.494-.424-.766-.732-.295-.336-2.801-1.066-3.611-2.01-.41-.48-1.18-.852-1.857-1.059a1.79 1.79 0 0 1-1.33.084c-.564.08-.766.131-1.072.438-.121.121-.295.182-.51.184-.744.006-1.07-.531-1.277.123-.004.025.365.656.393.873.047.406-.102.807-.348 1.133-.656.877-2.51.695-2.518 2.023-.006.658-.201.441-.527.957-.23.363-.035.816.291 1.148.527.537.291 1.109.74 1.656.406.498.78 1.303.811 1.834.061 1.021 1.617 1.484 2.338 2.248 1.34 1.414-.125 2.891-.064 4.305.031.662-.406 1.229-.344 1.949.076.924-.24 1.443-.627 2.238-.217.443.143.949.094 1.434-.035.369-.115.744.143 1.115.469.67.363 1.117.461 1.807.146 1.07.203 2.258.979 3.299.502.67 1.559.416 1.91 1.117.254.502.34.428 1.029.73.219.098 1.23.6 1.176.137-.027-.252-1.318-.898-1.625-1.262.117-.449-.967-.947-.477-1.326.24-.182 1.264-.777.861-1.146-.898-.816.424-.781.066-1.471.377-.1 1.246-.949 1.379-1.242.283-.617 1.551-.082 1.996-.686.467-.641 1.256-.688 1.826-1.211.41-.381.748-.91 1.441-1.041.156-.352.545-.479.926-.66.18-.328.074-.656.102-1.01.049-.725 1.35-.662 2.086-.721.643-.051 2.094.461 2.18-.35.033-.295.309-.279.516-.473.256-.227.102-.594.434-.775.449-.248.422-.85.439-1.242.031-.686.629-.852 1.154-1.266.605-.48 1.391-.66 1.707-1.381.121-.283.166-.598.063-.912-.16-.464-.574-.41-.994-.711z"/><radialGradient id="a" cx="27.375" cy="26.625" r="31.447" gradientUnits="userSpaceOnUse"><stop offset=".206" style="stop-color:#00b3ff;stop-opacity:0"/><stop offset=".579" style="stop-color:#005d96;stop-opacity:.4696"/><stop offset=".868" style="stop-color:#001f4b;stop-opacity:.8331"/><stop offset="1" style="stop-color:#00072e"/></radialGradient><circle cx="32" cy="32" r="30" fill="url(#a)" opacity=".5"/></svg>