<svg xmlns="http://www.w3.org/2000/svg" xml:space="preserve" viewBox="0 0 64 64"><radialGradient id="a" cx="32.5" cy="62" r="106.412" gradientTransform="matrix(1 0 0 .6847 0 19.546)" gradientUnits="userSpaceOnUse"><stop offset=".109" style="stop-color:#ffea80"/><stop offset=".382" style="stop-color:#190bb0"/><stop offset=".405" style="stop-color:#180aa2"/><stop offset=".49" style="stop-color:#150674"/><stop offset=".572" style="stop-color:#120450"/><stop offset=".648" style="stop-color:#100236"/><stop offset=".716" style="stop-color:#0f0026"/><stop offset=".77" style="stop-color:#0f0021"/></radialGradient><path fill="url(#a)" d="M2 2h59.999v60H2z"/><linearGradient id="b" x1="2" x2="62" y1="62" y2="2" gradientUnits="userSpaceOnUse"><stop offset=".2" style="stop-color:#ff00b7;stop-opacity:0"/><stop offset=".47" style="stop-color:#57dcff;stop-opacity:.5"/><stop offset=".52" style="stop-color:#57dcff;stop-opacity:.5"/><stop offset=".8" style="stop-color:#ff00b7;stop-opacity:0"/></linearGradient><path fill="url(#b)" d="M2 2h59.999v60H2z"/><linearGradient id="c" x1="233.492" x2="256.418" y1="56.413" y2="56.413" gradientTransform="rotate(-45.001 104.033 299.834)" gradientUnits="userSpaceOnUse"><stop offset=".248" style="stop-color:#02005e;stop-opacity:0"/><stop offset=".5" style="stop-color:#02005e"/><stop offset="1" style="stop-color:#02005e;stop-opacity:0"/></linearGradient><path fill="url(#c)" d="M44.025 30.757c-1.033-.992-3.395 1.243-4.037-.393-1.197-3.044-2.834 1.588-4.457-1.592-.918-1.798-2.15 1.585-3.997-.149-1.028-.966 4.288-3.221-.975-2.636-1.748.194-1.183-1.44-2.182-1.943-1.221-.614-1.041-3.475-2.271-2.315-1.331 1.254-2.218-4.486-3.004-1.807-.869 2.963-2.587-1.242-3.591-.866-3.027 1.132 2.419-3.856-.29-4.152-2.104-.229-2.274.096-3.118-1.063-1.619-2.224-3.676 2.854-5.747 1.471-.919-.614.813-2.652 1.372-3.853.891-1.908-2.624-1.979-2.722-3.633C8.789 4.094 2 2 2 2v1.854s4.235 1.779 3.995 3.533c-.27 1.967 2.596 2.021 1.558 3.579-1.96 2.94.438 2.084-.363 3.9-1.109 2.515 3.675 1.366 4.671 3.121.558.982.538 6.535 2.558 4.708 2.828-2.559 3.068 5.997 6.152 3.584 2.403-1.881-2.346 8.021.574 6.857 1.328-.529 6.819-1.365 6.346.377-1.754 6.454 2.396 1.046 4.759.928 4.142-.207-3.236 8.104 1.078 5.744 1.369-.749 3.594-4.416 4.479-3.732 3.277 2.532 3.098 5.255 2.939 6.551-.332 2.744 5.496-3.475 4.121-1.318-1.607 2.519 1.578 1.572.277 3.532-2.467 3.717.938 1.399 2.504 3.54 1.814 2.479 4.516-.752 3.598 3.604-.062.293 10.754.881 10.754.881v-5.237c-4.176 4.402-6.07.392-7.881-.331-3.084-1.231.5-2.326-2.709-3.557-1.453-.557 3.834-2.433 1.543-3.464-3.908-1.759.357-2.525-3.01-3.766-3.48-1.281 3.613-2.056 5.168-6.245 1.321-3.556-7.576 3.49-11.086.114z" opacity=".35"/><path fill="#1A1626" d="M2 55.283s5.414-2.82 7.5-2.985c2.658-.211 7.654 2.449 10.313 2.238 2.086-.164 5.428-2.737 7.5-2.985 1.41-.17 4.232.985 5.625.746 1.652-.281 3.935-2.965 5.625-2.984 2.211-.026 5.289 3.687 7.5 3.73 2.412.051 6.066-1.827 8.438-2.189 1.857-.281 7.5 2.39 7.5 2.39V62H2v-6.717z"/><path fill="#FFF" d="M22.227 21.236c.877 0 .875-1.314-.001-1.314-.877 0-.877 1.314.001 1.314zm3.289 5.262c.877 0 .877-1.313 0-1.313-.875 0-.875 1.313 0 1.313z" opacity=".3"/><path fill="#FFF" d="M22.885 26.938c.876 0 .875-1.315-.001-1.315s-.876 1.315.001 1.315z" opacity=".7"/><path fill="#FFF" d="M46.641 42.26c.877 0 .877-1.315 0-1.315s-.877 1.315 0 1.315zM36.48 31.76c.877 0 .877-1.315 0-1.315s-.878 1.315 0 1.315z" opacity=".3"/><path fill="#FFF" d="M22.665 14.174c.878 0 .878-1.313 0-1.313-.879-.001-.877 1.315 0 1.313z" opacity=".7"/><path fill="#FFF" d="M6.672 3.853c.879 0 .878-1.314 0-1.313-.878-.001-.878 1.313 0 1.313zm6.976 1.107c.877 0 .877-1.313 0-1.313-.878-.002-.879 1.313 0 1.313zM6.235 6.29c.878 0 .878-1.317 0-1.314-.877-.003-.878 1.314 0 1.314zm27.173 36.274c.879 0 .877-1.314 0-1.314s-.877 1.313 0 1.314zm9.672 4.995c.879.001.879-1.313 0-1.313-.877-.001-.877 1.313 0 1.313zm-11.862-8.78c.878 0 .877-1.314 0-1.314-.878 0-.878 1.313 0 1.314z" opacity=".3"/><path fill="#FFF" d="M16.829 33.953c.877-.002.877-1.314-.001-1.314-.877 0-.877 1.314.001 1.314z" opacity=".7"/><path fill="#FFF" d="M9.779 47.976c.878 0 .878-1.313 0-1.313-.878-.003-.878 1.315 0 1.313z" opacity=".3"/><path fill="#FFF" d="M7.552 28.497c.878-.001.878-1.314 0-1.316-.878.002-.878 1.315 0 1.316zM55.385 8.326c.877 0 .877-1.315.002-1.315-.881 0-.881 1.315-.002 1.315z" opacity=".7"/><path fill="#FFF" d="M33.848 13.146c.879 0 .879-1.315.002-1.315-.88 0-.88 1.315-.002 1.315z" opacity=".3"/><path fill="#FFF" d="M51.373 31.169c.875.001.877-1.314 0-1.314-.879-.001-.879 1.315 0 1.314z" opacity=".7"/><path fill="#FFF" d="M41.523 14.175c.879 0 .879-1.314 0-1.315-.877-.001-.877 1.315 0 1.315zm1.34 26.33c.877.002.877-1.315 0-1.316-.877-.001-.877 1.316 0 1.316zm-13.83-10.938c.878-.012.86-1.325-.018-1.316-.877.01-.859 1.327.018 1.316z" opacity=".3"/><path fill="#FFF" d="M36.48 26.718c.584-.001.582-.877 0-.877-.584 0-.584.877 0 .877z" opacity=".7"/><path fill="#FFF" d="M27.806 22.991c.585-.002.584-.878 0-.878-.589 0-.586.876 0 .878zm-12.14-.195c.586-.001.586-.878 0-.879-.586.001-.586.878 0 .879zM12.3 16.448c.585 0 .584-.877-.001-.877-.586-.001-.586.877.001.877zM5.996 17.9c.584 0 .584-.879 0-.878-.587-.001-.587.878 0 .878zm12.066 31.851c.585 0 .585-.878-.002-.877-.585 0-.585.877.002.877z" opacity=".3"/><path fill="#FFF" d="M10.586 3.853c.584 0 .586-.876-.002-.876-.584 0-.584.876.002.876zm10.762 5.644c.586-.001.586-.878 0-.879-.588 0-.587.878 0 .879z" opacity=".7"/><path fill="#FFF" d="M19.815 22.771c.585 0 .585-.88.001-.878-.585.001-.586.878-.001.878z" opacity=".3"/><path fill="#FFF" d="M16.61 20.141c.585 0 .584-.878 0-.879-.584.001-.584.879 0 .879z" opacity=".7"/><path fill="#FFF" d="M31.218 30.444c.586.002.586-.877 0-.876-.586-.001-.586.878 0 .876zm10.087 5.485c.582 0 .582-.88 0-.878-.586 0-.586.878 0 .878z" opacity=".3"/><path fill="#FFF" d="M44.449 32.86c.582-.001.582-.878 0-.879-.586 0-.586.879 0 .879zm3.197-4.827c.584-.001.584-.876 0-.879-.583 0-.583.879 0 .879z" opacity=".7"/><path fill="#FFF" d="M59.779 17.022c.582 0 .582-.877-.002-.877s-.584.877.002.877zm-7.123-3.286c.584.002.584-.877 0-.876-.584 0-.584.876 0 .876zm2.428 11.449c.584-.002.584-.878 0-.879-.584 0-.584.879 0 .879z" opacity=".3"/><path fill="#FFF" d="M52.186 41.907c.582 0 .584-.877 0-.879-.586 0-.586.879 0 .879zm7.593-7.955c.584-.002.582-.877 0-.877-.586 0-.586.877 0 .877z" opacity=".7"/><path fill="#FFF" d="M37.795 45.424c.584-.002.584-.878 0-.88-.584 0-.584.88 0 .88zm-8.331 3.889c.582 0 .582-.879 0-.879-.586.002-.586.879 0 .879z" opacity=".3"/><path fill="#FFF" d="M21.789 42.479c.583 0 .583-.877 0-.875-.586 0-.586.875 0 .875z" opacity=".7"/><path fill="#FFF" d="M13.715 27.813c.582 0 .582-.877-.001-.876-.586.001-.587.876.001.876zm2.895 12.593c.584-.001.582-.877 0-.877-.585 0-.586.876 0 .877zm-3.774-8.861c.584 0 .584-.878 0-.879-.585 0-.585.879 0 .879zm8.733-.44c.584-.002.584-.878 0-.88-.585.001-.585.88 0 .88zm-3.945-5.703c.583-.001.583-.877 0-.879-.587 0-.587.879 0 .879zm7.236-4.165c.585 0 .585-.876 0-.876-.586 0-.586.876 0 .876zm23.724 16.666c.877 0 .875-1.317 0-1.317-.877 0-.877 1.317 0 1.317zm-3.477-1.757c.877 0 .877-1.313 0-1.313s-.877 1.314 0 1.313zm5.012 4.697c.877 0 .877-1.313 0-1.313-.879-.001-.879 1.314 0 1.313zm5.623 3.275c.877 0 .877-1.314 0-1.314-.879 0-.877 1.315 0 1.314zm2.242 5.858c.877 0 .877-1.313 0-1.313-.879-.002-.879 1.315 0 1.313zM45.523 39.189c.877 0 .877-1.317 0-1.317-.877.001-.877 1.317 0 1.317zm14.256 8.572c.875 0 .877-1.317 0-1.317s-.877 1.317 0 1.317zM47.648 33.587c.875 0 .875-1.314 0-1.314-.878-.002-.88 1.314 0 1.314zm2.032 15.076c.877 0 .877-1.314 0-1.314s-.877 1.313 0 1.314zm.185-3.314c.877 0 .877-1.315 0-1.315s-.877 1.314 0 1.315zM39.33 41.686c.877 0 .877-1.315 0-1.315s-.877 1.314 0 1.315z" opacity=".3"/><path fill="#FFF" d="M34.068 34.245c.877 0 .877-1.315 0-1.316-.879 0-.879 1.316 0 1.316z" opacity=".7"/><path fill="#FFF" d="M17.624 16.229c.876 0 .876-1.314 0-1.314-.88 0-.878 1.315 0 1.314z" opacity=".3"/><path fill="#FFF" d="M9.708 14.176c.876 0 .875-1.316 0-1.316-.877 0-.877 1.316 0 1.316z" opacity=".7"/><path fill="#FFF" d="M10.106 10.492c.877 0 .877-1.316 0-1.316-.877.002-.877 1.315 0 1.316zm5.121-.338c.875 0 .875-1.315 0-1.315-.879-.001-.88 1.315 0 1.315z" opacity=".3"/><path fill="#FFF" d="M4.306 13.341c.876 0 .875-1.315-.002-1.315-.876-.001-.877 1.315.002 1.315z" opacity=".7"/><path fill="#FFF" d="M17.185 6.832c.875 0 .874-1.316-.001-1.316-.877 0-.878 1.316.001 1.316zm21.924 21.2c.586 0 .586-.877 0-.877s-.584.877 0 .877z" opacity=".3"/><path fill="#FFF" d="M32.75 24.961c.588 0 .588-.876 0-.876-.583 0-.583.876 0 .876z" opacity=".7"/><path fill="#FFF" d="M22.227 23.868c.583-.001.583-.877 0-.878-.586 0-.586.878 0 .878zm-7.81-5.968c.876.002.878-1.316 0-1.316-.876 0-.876 1.316 0 1.316zm24.034 16.993c.879-.001.879-1.318 0-1.316-.875-.001-.875 1.316 0 1.316z" opacity=".3"/><path fill="#FFF" d="M32.751 18.563c.584.002.584-.874 0-.875-.585 0-.585.875 0 .875zM36.922 4.73c.582.001.582-.875 0-.877-.588.002-.588.878 0 .877zM23.105 17.138c.584 0 .584-.877 0-.877-.586 0-.586.877 0 .877zM46.99 16.01c.584 0 .584-.875 0-.875-.586 0-.586.875 0 .875z" opacity=".7"/><path fill="#FFF" d="M29.682 9.935c.585 0 .585-.875 0-.875-.586 0-.584.875 0 .875zm.221 24.018c.584-.001.584-.878 0-.878-.586 0-.586.878 0 .878zm-6.154-2.191c.585-.001.585-.878 0-.878-.584 0-.584.877 0 .878zm-3.933-6.36c.586 0 .586-.879 0-.879-.585 0-.585.879 0 .879z" opacity=".3"/><path fill="#FFF" d="M13.712 21.894c.585 0 .585-.878.002-.877-.587 0-.587.877-.002.877z" opacity=".7"/><path fill="#FFF" d="M9.709 19.702c.584-.002.584-.878 0-.878-.586 0-.585.876 0 .878z" opacity=".3"/><path fill="#FFF" d="M9.449 16.449c.584-.002.584-.878 0-.879-.587 0-.587.879 0 .879z" opacity=".7"/><path fill="#FFF" d="M16.746 12.025c.584-.002.584-.878 0-.878-.586 0-.586.878 0 .878zM6.435 10.713c.583 0 .583-.879 0-.879-.587 0-.587.879 0 .879zm7.352 2.872c.585.001.585-.878 0-.878s-.585.879 0 .878z" opacity=".3"/><path fill="#FFF" d="M11.422 7.826c.583-.001.583-.878 0-.879-.587.001-.587.879 0 .879z" opacity=".7"/><path fill="#FFF" d="M12.109 10.375c.584.001.584-.877 0-.878-.587.001-.587.878 0 .878zM9.01 6.795c.585.001.585-.876 0-.877-.587.001-.587.877 0 .877zm-1.457 8.108c.583 0 .583-.88 0-.878-.587-.002-.587.878 0 .878zm-.879 7.649c.582 0 .584-.877 0-.878-.586 0-.586.878 0 .878zm.001 13.4c.585.001.585-.878 0-.877-.586 0-.586.878 0 .877z" opacity=".3"/><path fill="#FFF" d="M11.252 38.969c.585 0 .585-.877.001-.877-.586 0-.586.878-.001.877zm16.239 4.035c.584 0 .584-.878 0-.879-.587.001-.587.877 0 .879zm-4.605 4.538c.583 0 .583-.88 0-.88-.587 0-.587.88 0 .88zM5.49 44.34c.583-.001.583-.878 0-.879-.589 0-.589.879 0 .879zm9.368-.107c.583-.002.583-.88 0-.88-.587.002-.588.88 0 .88z" opacity=".7"/><path fill="#FFF" d="M11.565 23.235c.585-.001.586-.878 0-.878-.587 0-.587.877 0 .878z" opacity=".3"/><path fill="#FFF" d="M26.719 15.574c.585 0 .585-.879 0-.879-.585.001-.585.878 0 .879z" opacity=".7"/><path fill="#FFF" d="M44.18 6.613c.584-.001.584-.878 0-.879-.586.001-.586.879 0 .879zm8.916 14.188c.582 0 .582-.878 0-.879-.586 0-.586.879 0 .879zm5.843 7.304c.584 0 .584-.877-.002-.877-.585 0-.585.877.002.877z" opacity=".3"/><path fill="#FFF" d="M48.586 23.21c.611-.001.609-.877 0-.877-.615 0-.615.876 0 .877z" opacity=".7"/><path fill="#FFF" d="M58.904 42.347c.611 0 .611-.879 0-.879-.615 0-.615.879 0 .879zm-6.279 7.843c.609 0 .609-.879 0-.879-.617.001-.615.877 0 .879zm-6.641-3.887c.611-.003.611-.879 0-.88-.615.001-.615.877 0 .88zm2.123-1.085c.611 0 .611-.878 0-.878-.615 0-.615.878 0 .878zm5.709 1.885c.611 0 .613-.876 0-.878-.613.002-.615.878 0 .878zm-1.902-11.174c.613-.002.609-.878 0-.878-.613 0-.613.876 0 .878zm5.412 2.137c.611.001.611-.877 0-.876-.613-.001-.613.877 0 .876z" opacity=".3"/><path fill="#FFF" d="M55.395 31.981c.611 0 .611-.879 0-.878-.616 0-.616.878 0 .878z" opacity=".7"/><path fill="#FFF" d="M25.737 29.351c.877 0 .877-1.317 0-1.317-.879-.001-.879 1.317 0 1.317zm7.235-.878c.583 0 .583-.876-.002-.876s-.584.876.002.876zm-4.388-1.975c.879 0 .879-1.315 0-1.315-.876.001-.876 1.317 0 1.315zm4.605 5.044c.879 0 .877-1.316 0-1.316-.876 0-.877 1.316 0 1.316zm8.116.439c.582-.002.582-.878 0-.879-.586.001-.586.879 0 .879zm1.998-2.85c.584 0 .582-.877 0-.877-.586 0-.586.877 0 .877zm-23.8-.195c.583.003.583-.877 0-.876-.585 0-.585.876 0 .876zm8.094-9.495c.583-.001.583-.878 0-.879-.586.001-.586.879 0 .879z" opacity=".3"/><path fill="#FFF" d="M26.611 34.673c.586-.001.586-.878 0-.876-.583-.002-.583.875 0 .876z" opacity=".7"/><path fill="#FFF" d="M23.542 36.805c.586.001.586-.875 0-.876-.584 0-.584.876 0 .876z" opacity=".3"/><path fill="#FFF" d="M37.141 38.342c.584 0 .586-.877 0-.877s-.586.879 0 .877z" opacity=".7"/><path fill="#FFF" d="M40.865 23.43c.584 0 .584-.878 0-.878-.584-.002-.584.878 0 .878zm-3.287-3.069c.586 0 .586-.878.002-.878-.584-.001-.584.878-.002.878z" opacity=".3"/></svg>