<svg xmlns="http://www.w3.org/2000/svg" xml:space="preserve" style="enable-background:new 0 0 64 64" viewBox="0 0 64 64"><radialGradient id="a" cx="28.766" cy="66.752" r="40.948" gradientTransform="translate(1.628 -37.173) scale(1.0667)" gradientUnits="userSpaceOnUse"><stop offset=".186" style="stop-color:#ffe600"/><stop offset=".246" style="stop-color:#ffc01e"/><stop offset=".365" style="stop-color:#ff6c61"/><stop offset=".38" style="stop-color:#f86765"/><stop offset=".487" style="stop-color:#ca487d"/><stop offset=".594" style="stop-color:#a42e91"/><stop offset=".699" style="stop-color:#861aa1"/><stop offset=".803" style="stop-color:#710cac"/><stop offset=".904" style="stop-color:#6403b3"/><stop offset="1" style="stop-color:#6000b5"/></radialGradient><path d="M2 2h60v60H2z" style="fill:url(#a)"/><path d="M62 36.65v-3.89l-25.49.94L62 22.86v-4.4L35.82 31.83 62 4.15V2h-3.85l-23.6 28.4L45.95 2h-3.83L32.9 29.62 33.69 2h-3.38l.79 27.62L21.88 2h-3.83l11.4 28.4L5.85 2H2v2.15l26.18 27.68L2 18.46v4.4L27.49 33.7 2 32.76v3.89l25.49-.93L2 46.55v.56h7.52l18.66-9.53-9.01 9.53h3.55l6.73-8.1-3.25 8.1h2.46l2.44-7.32-.21 7.32h2.22l-.21-7.32 2.44 7.32h2.46l-3.25-8.1 6.73 8.1h3.55l-9.01-9.53 18.66 9.53H62v-.56L36.51 35.72z" style="opacity:.1;fill:#fff"/><circle cx="32" cy="34.75" r="10" style="fill:#fff" transform="rotate(-22.646 32.001 34.753)"/><path d="M55.5 29.5S47.34 35.25 41 35c-1.91 1.33-3.2 4.09-3.2 4.09l-4.21-.97-.9-1.13s-8.81-3.19-10.68-3.87c-3-1.09-7.7-6.31-10.88-6.71C8.69 26.12 2 30 2 30v32h60V35.5c-2.83-1.67-6-6-6.5-6z" style="fill:#422a38"/><path d="M46.1 41c.66-1.29.9-2.88.9-2.88 6.25 3 4.73-.55 5.36-.55 1.49 0 8.32 4.42 8.32 4.42l-8.2-8.06c2.48-2.75 3.03-4.44 3.03-4.44-2.94 0-4.86 2.85-14.5 5.5 0 0 .75 1.84 1.21 3.58L46.1 41zM58 47c-.19-.19-4.32-1.31-4.32-1.31l-4.93.81-2.33-2.98c-.71-.21-5.42-1.07-5.75-1.27-.23-.13-2.87-3.16-2.87-3.16l-4.21-.97L29 39.75l3.68-2.76s-2.59-2.62-2.81-2.74c-.44-.25-5.99-1.49-7.87-2.12-3.03-1.02-8-5.71-10.88-5.71 0 0 1.58 1.92 1.33 3.19-.22 1.13-7.62 6.51-7.44 6.8.22.36 9.61-4.09 11.61-3.28 0 0-8.92 8.29-8.92 12.13C7.71 45.25 24 33.77 24 35c0 .79-4.18 3.83-5 5.5-.62 1.25-5.43 12.31-5.43 12.31s7.41-8.92 9.2-8.61c0 0 2.42 3.92 2.81 3.92.31 0 3.12-4.59 4.34-5.1 1.15-.48 4.51.52 5.57.47 0 0 4.27 4.19 6.04 6.56.47.63 5.96-1.41 12.48-1.41.76 0 1.17 3.52 1.17 4.6 0 .74 6.83 0 6.83 0S58.94 47.94 58 47z" style="fill:#645973"/><radialGradient id="b" cx="32" cy="35.617" r="44.969" gradientTransform="translate(0 .133)" gradientUnits="userSpaceOnUse"><stop offset="0" style="stop-color:#fffcde;stop-opacity:.3"/><stop offset=".02" style="stop-color:#fffcd9;stop-opacity:.2941"/><stop offset=".126" style="stop-color:#fffac1;stop-opacity:.2623"/><stop offset=".247" style="stop-color:#fff8af;stop-opacity:.2258"/><stop offset=".392" style="stop-color:#fff7a3;stop-opacity:.1823"/><stop offset=".583" style="stop-color:#fff69b;stop-opacity:.125"/><stop offset="1" style="stop-color:#fff699;stop-opacity:0"/></radialGradient><path d="M2 2h60v60H2z" style="opacity:.6;fill:url(#b)"/><path d="m11.12 26.42 4.49 2.43.32 1.76 1.61-.38 4.22 2.46 1.67.47-4.16 3.37 5.33-2.96 4.66.91L32.67 37l-2.77-2.96-5.54-1.46-6.46-3.08-.26-.48-1.55-.64s-2.98-2.05-4.97-1.96zm18.74 13.03 3.53-1.57 4.52.98 2.79 2.96 2.61 1.04-3.05-.36-2.73-3.34-4.3-.68zm8.84-1.94 2-2.75 4.1-1.14 1.2-.76 2.31-.58 5.01-2.59 2.18-.19-1.24.6-5.42 2.32 1.85 1.67-2.38-1.47-2.31.77-1.11 3.6.08-3.08L41 35zm10.05 8.99 4.75-.99 3.66.74.94.86-2.26-.6-2.57-.5z" style="fill:#ffe2c9"/></svg>