<svg xmlns="http://www.w3.org/2000/svg" xml:space="preserve" style="enable-background:new 0 0 64 64" viewBox="0 0 64 64"><linearGradient id="a" x1="32" x2="32" y1="61" y2="2" gradientUnits="userSpaceOnUse"><stop offset="0" style="stop-color:#ffab8c"/><stop offset=".034" style="stop-color:#ffa38c"/><stop offset=".232" style="stop-color:#ff7b8e"/><stop offset=".39" style="stop-color:#ff6290"/><stop offset=".485" style="stop-color:#ff5990"/><stop offset=".611" style="stop-color:#e44696"/><stop offset=".879" style="stop-color:#a017a4"/><stop offset="1" style="stop-color:#8000ab"/></linearGradient><path d="M2 2h60v59H2z" style="fill:url(#a)"/><radialGradient id="b" cx="32" cy="44.073" r="32.186" gradientUnits="userSpaceOnUse"><stop offset=".345" style="stop-color:#ffab8c"/><stop offset="1" style="stop-color:#ffab8c;stop-opacity:0"/></radialGradient><path d="M2 2h60v59H2z" style="fill:url(#b)"/><linearGradient id="c" x1="45.824" x2="45.824" y1="44.155" y2="21.349" gradientUnits="userSpaceOnUse"><stop offset="0" style="stop-color:#ba6381"/><stop offset=".233" style="stop-color:#9f4574"/><stop offset=".564" style="stop-color:#7d1f64"/><stop offset=".832" style="stop-color:#69085a"/><stop offset="1" style="stop-color:#610056"/></linearGradient><path d="M42.16 21.35h7.33v22.81h-7.33z" style="fill:url(#c)"/><linearGradient id="d" x1="51.491" x2="51.491" y1="44.155" y2="21.349" gradientUnits="userSpaceOnUse"><stop offset="0" style="stop-color:#852460"/><stop offset=".097" style="stop-color:#7b1f5c"/><stop offset=".487" style="stop-color:#550e50"/><stop offset=".802" style="stop-color:#3e0448"/><stop offset="1" style="stop-color:#360045"/></linearGradient><path d="M48.82 21.35h5.33v22.81h-5.33z" style="fill:url(#d)"/><path d="M36.21 32.86h6.5v1.4h-6.5z" style="fill:#852460"/><path d="M40.93 32.86h3.54v1.4h-3.54z" style="fill:#360045"/><linearGradient id="e" x1="38.568" x2="38.568" y1="60.587" y2="33.983" gradientUnits="userSpaceOnUse"><stop offset="0" style="stop-color:#ba6381"/><stop offset=".233" style="stop-color:#9f4574"/><stop offset=".564" style="stop-color:#7d1f64"/><stop offset=".832" style="stop-color:#69085a"/><stop offset="1" style="stop-color:#610056"/></linearGradient><path d="M34.43 33.98h8.27v26.6h-8.27z" style="fill:url(#e)"/><linearGradient id="f" x1="44.179" x2="44.179" y1="60.587" y2="33.983" gradientUnits="userSpaceOnUse"><stop offset="0" style="stop-color:#852460"/><stop offset=".097" style="stop-color:#7b1f5c"/><stop offset=".487" style="stop-color:#550e50"/><stop offset=".802" style="stop-color:#3e0448"/><stop offset="1" style="stop-color:#360045"/></linearGradient><path d="M42.11 33.98h4.13v26.6h-4.13z" style="fill:url(#f)"/><path d="M12.23 16h10v2h-10z" style="fill:#852460"/><linearGradient id="g" x1="10.234" x2="24.234" y1="26.5" y2="26.5" gradientUnits="userSpaceOnUse"><stop offset="0" style="stop-color:#ba6381"/><stop offset=".064" style="stop-color:#af5a7c"/><stop offset=".375" style="stop-color:#7b3464"/><stop offset=".646" style="stop-color:#551853"/><stop offset=".863" style="stop-color:#3e0649"/><stop offset="1" style="stop-color:#360045"/></linearGradient><path d="M10.23 17h14v19h-14z" style="fill:url(#g)"/><linearGradient id="h" x1="9.234" x2="25.234" y1="42" y2="42" gradientUnits="userSpaceOnUse"><stop offset="0" style="stop-color:#ba6381"/><stop offset=".064" style="stop-color:#af5a7c"/><stop offset=".375" style="stop-color:#7b3464"/><stop offset=".646" style="stop-color:#551853"/><stop offset=".863" style="stop-color:#3e0649"/><stop offset="1" style="stop-color:#360045"/></linearGradient><path d="M9.23 32h16v20h-16z" style="fill:url(#h)"/><linearGradient id="i" x1="17.234" x2="17.234" y1="61" y2="45" gradientUnits="userSpaceOnUse"><stop offset="0" style="stop-color:#ba6381"/><stop offset=".064" style="stop-color:#af5a7c"/><stop offset=".375" style="stop-color:#7b3464"/><stop offset=".646" style="stop-color:#551853"/><stop offset=".863" style="stop-color:#3e0649"/><stop offset="1" style="stop-color:#360045"/></linearGradient><path d="M8.23 45h18v16h-18z" style="fill:url(#i)"/><path d="M46.79 41.4h10.64v2H46.79z" style="fill:#852460"/><path d="M55.16 41.4h2.56v2h-2.56z" style="fill:#360045"/><linearGradient id="j" x1="50.977" x2="50.977" y1="62" y2="43" gradientUnits="userSpaceOnUse"><stop offset="0" style="stop-color:#ba6381"/><stop offset=".233" style="stop-color:#9f4574"/><stop offset=".564" style="stop-color:#7d1f64"/><stop offset=".832" style="stop-color:#69085a"/><stop offset="1" style="stop-color:#610056"/></linearGradient><path d="M44.52 43h12.92v19H44.52z" style="fill:url(#j)"/><linearGradient id="k" x1="57.838" x2="57.838" y1="62" y2="43" gradientUnits="userSpaceOnUse"><stop offset="0" style="stop-color:#852460"/><stop offset=".097" style="stop-color:#7b1f5c"/><stop offset=".487" style="stop-color:#550e50"/><stop offset=".802" style="stop-color:#3e0448"/><stop offset="1" style="stop-color:#360045"/></linearGradient><path d="M55.68 43H60v19h-4.32z" style="fill:url(#k)"/><path d="M22.26 41.04h8.81v1.37h-8.81z" style="fill:#852460"/><path d="M30.33 41.04h4.4v1.37h-4.4z" style="fill:#360045"/><linearGradient id="l" x1="26.43" x2="26.43" y1="61.333" y2="42.138" gradientUnits="userSpaceOnUse"><stop offset="0" style="stop-color:#ba6381"/><stop offset=".233" style="stop-color:#9f4574"/><stop offset=".564" style="stop-color:#7d1f64"/><stop offset=".832" style="stop-color:#69085a"/><stop offset="1" style="stop-color:#610056"/></linearGradient><path d="M20.79 42.14h11.28v19.2H20.79z" style="fill:url(#l)"/><linearGradient id="m" x1="33.638" x2="33.638" y1="61.333" y2="42.138" gradientUnits="userSpaceOnUse"><stop offset="0" style="stop-color:#852460"/><stop offset=".097" style="stop-color:#7b1f5c"/><stop offset=".487" style="stop-color:#550e50"/><stop offset=".802" style="stop-color:#3e0448"/><stop offset="1" style="stop-color:#360045"/></linearGradient><path d="M31.07 42.14h5.14v19.2h-5.14z" style="fill:url(#m)"/><linearGradient id="n" x1="7.739" x2="7.739" y1="61" y2="47.502" gradientUnits="userSpaceOnUse"><stop offset="0" style="stop-color:#ba6381"/><stop offset=".233" style="stop-color:#9f4574"/><stop offset=".564" style="stop-color:#7d1f64"/><stop offset=".832" style="stop-color:#69085a"/><stop offset="1" style="stop-color:#610056"/></linearGradient><path d="M4 47.5h7.48V61H4z" style="fill:url(#n)"/><linearGradient id="o" x1="11.178" x2="11.178" y1="61" y2="47.502" gradientUnits="userSpaceOnUse"><stop offset="0" style="stop-color:#852460"/><stop offset=".097" style="stop-color:#7b1f5c"/><stop offset=".487" style="stop-color:#550e50"/><stop offset=".802" style="stop-color:#3e0448"/><stop offset="1" style="stop-color:#360045"/></linearGradient><path d="M8.8 47.5h4.76V61H8.8z" style="fill:url(#o)"/><path d="M49 59c-6 2.5-13 0-14 0-3.18 0-6.18 2.16-8 2-1.9-.17-5.1-2-7-2-.83 0-2.97 1.35-5 1-.89-.15-5.1-2-6-2-1.38 0-7 2-7 2v2h60v-3s-4.67-2-6-2c-1.12 0-5.15 1.23-7 2z" style="fill:#942458"/><path d="M51.76 44.5h2v1h-2z" style="fill:#ff7c30"/><path d="M38.45 36h2v1h-2zm-2.27 3.67h2v1h-2zm3.27 7.42h2v1h-2zm6.57-17.43h2v1h-2zm-2.84-4.75h2v1h-2zm-23.19-5.88h2v1h-2zm-4.6 9.63h2v1h-2zm4.6-3.75h2v1h-2zm-7.84-2.44h2v1h-2zm0 11.29h2v1h-2zm6.48 3.41h2v1h-2zm-6.48 2h2v1h-2zM15.9 42h2v1h-2zm1.33 6.65h2v1h-2zm-2.84 6.31h2v1h-2zm22.79-2.1h2v1h-2z" style="fill:#ffac30"/><path d="M49.82 46.79h2v1h-2zm2.34 5.34h2v1h-2zm-5.91 3.5h2v1h-2zm-23.7-11.97h2v1h-2zm4.46 4.26h2v1h-2zM5.74 54.46h2v1h-2zm-1-3.72h2v1h-2zm18.81 2.89h2v1h-2z" style="fill:#ff7c30"/></svg>