<svg xmlns="http://www.w3.org/2000/svg" xml:space="preserve" viewBox="0 0 64 64"><circle cx="32" cy="32" r="30" fill="#0080FF"/><path fill="#CF0" d="M17.486 8.67c.215.721.891.712 1.241 1.227.334.495-.415.309-.637.558a4.588 4.588 0 0 1-.199 1.034c-.288 1.109.659.273 1.273.186.802-.115 2.683-.845 1.214-1.4-.089-.66-.878-.979-1.034-1.642-.128-.541-.054-1.237-.957-1.171-.672.049-1.063.662-.901 1.208z"/><path fill="#CF0" d="M16.016 9.781c-.169.182-.537-.165-.367.335.146.436-.243.545-.202.919.1.907 1.069.04 1.412-.041.569-.136 1.109-.823.952-1.165-.188-.408-1.344-.499-1.795-.048zM42.849 32.21c-.129-.682-.863-1.313-1.568-1.626-.848-.375-.559-.943-1.109-1.526-.663-.699-.619-1.429-1.134-2.168-.708-.471-.974-1.238-1.421-1.868-.586-.83-.491-3.603-2.559-2.52-.402.21-2.004-.099-2.379-.321-.307-.179-1.255-.536-1.613-.512-1.254.084-.691 1.484-1.602 1.173-.332-.112-.602-.316-.965-.367-.66-.099-.37-.135-.768-.581-.624-.176-1.486.025-2.031-.333-.367-.241.287-1.468-.024-1.819-.522-.591-2.282.009-3.28.058-.556.03-1.215.14-1.77.217-.416.061-.752.503-1.206.617-1.323.33-2.134-.469-2.71.819-1.27.325-1.337 1.363-1.93 2.188-.574.797-1.965 1.224-2.219 2.153-.204.752-1.267 1.442-1.168 2.269.037.312.201.944.396 1.203.251.334.087.846-.101 1.165-.487.827-.572 1.635-.095 2.228.381.473 1.119.701 1.492 1.227.312.437.301.904.795 1.262.889.641 2.105 1.584 3.242 1.117.674-.276 1.082-.252 1.771-.078.558.143 1.047-.233 1.557-.384.783-.229 1.862-.865 2.541-.061.594.711.428.495 1.451.561.738.048 1.115.471.924 1.062-.367 1.125-.456 1.862.527 2.714.732.635 1.381 1.849 1.383 2.742.003.538.549.95.436 1.486-.077.367-.488.579-.625.927-.586 1.499-.488 3.024.842 4.242.517.473.39 1.864.576 2.526.198.707.875 1.102 1.136 1.813.257.709.165 1.715.951 2.063.771.34 1.716-.209 2.509-.249 2.377-.122 2.637-1.877 4.258-2.906.265-.482.127-1.166.646-1.535.271-.193.646-.285.848-.55.098-.388.264-.748.214-1.152-.042-.354-.305-.676-.231-1.04.281-1.383 2.914-1.385 2.98-2.916.066-1.527-.458-2.891-.833-4.371-.154-.607.55-1.522.993-1.918.663-.595.99-1.438 1.781-1.932 1.557-.966 2.449-2.242 3.002-3.881 1.114-3.279-2.938.49-3.91-1.218zm3.714 12.58c-.383-.822-.556-.72-.981.075-.495.919-1.471 1.062-1.948 1.429-.238.183-.421.641-.319 1.109.076.361.211.697.026 1.053-.37.723-.672 1.02-.376 1.877.262.76.826.799 1.576.613.675-.165.814-1.313.969-1.777.446-1.366 1.704-2.98 1.053-4.379z"/><path fill="#CF0" d="M32 2c-1.918 0-3.792.188-5.61.531-.411.356-.807.729-1.136 1.117-.568.671-1.178.833-1.9 1.352-.443.318-1.09.426-1.013 1.026.04.33.205.611.31.923.302.922.93.748 1.653.273.499-.323 1.246.391 1.489.837.279.516-.768.398-.503.956.978.158 2.212-.463 2.269-1.326.055-.844 1.409-.869.45-1.694-.883-.758.175-1.038.745-1.439.714-.503.594-1.28 1.761-.917-.253 1.007-1.887.703-1.251 2.078.242.525 2.279 1.186.749 1.699-.922.31-.248 1.419-1.51 1.568-.653.079-1.245.369-1.853.583-.28-.486-.943-.38-1.34-.092-.357-.317-.654-.172-.545-.78.061-.341.166-1.075-.486-.82-.425.168-.521.652-.539 1.021-.045.812-.088.753-.927 1.139-.944.436-1.548 1.516-2.442 1.998-.416.226-.858-.139-1.149.246-.386.512-.999.147-1.44.528.232.701 1.068.436 1.503 1.073.348.512.317 1.179.001 1.696-.988-.031-1.977-.027-2.968-.056-.784.512-.497.553-.547 1.399a3.162 3.162 0 0 1-.412 1.403c.19.137.285.317.285.542.093.854.58.167 1.214.497.781.402.969.099 1.806.1.634.001.622-.427 1.146-.573-.015-.419.281-.609.246-1.047.484-.418.498-.69 1.083-.981.25-.135.465-.306.644-.516-.059-1.307.654-.539 1.514-.683.24-.04 1.006-.578 1.177-.742.674.372 1.072 1.028 1.732 1.416.407.237.979.263 1.283.625 1.33 1.576-.783.593-1.192 1.366.373.306.901.548 1.405.587.221-.068.064-.442.141-.581 1.115-.101.381-.987.689-1.375.283-.051.495.266.757.157.052-.872-1.98-1.205-2.43-1.813-.244-.328-1.177-.864-.207-1.135.472.143.732.538 1.106.807.543.392 1.36.462 1.774 1.057.275.489.335.946.621 1.45.463.812 1.732 2.368 1.892.47.044-.545-.488-1.655.623-1.391.583.139.415 1.103.628 1.55.548 1.151 2.108.375 3.025.727.628.241 1.104-.424 1.606-.147.45.246.18 1.122.02 1.562-.221.604-.436 1.127-.28 1.775.139.583.544 1.102.892 1.589.387.544.797 1.077 1.12 1.659.358.191.659.453.851.796.22.4.157.933.454 1.291.298.36.724.353.998.795.56.903 1.383 3.853 2.841 3.183 1.157-.532 2.551-.909 3.395-1.777.576-.594 1.51-.742 2.123-1.314.833-.775 2.068-3.282-.109-3.184-.846-.759-.725-1.014-1.644-.309-.377.29-.976.23-1.411.141-.156-.366.137-.677-.227-.992-.581-.506-1.186-.569-1.628-1.225-.448-.665.331-1.266.879-.623.585.687.676 1.167 1.67 1.475.799.246.98-.033 1.741-.127.442.488.162.627.933.739.526.079 1.05.177 1.583.211.98.063 2.178-.59 2.912.063.689.615 1.295 1.152 1.96 1.719.652.557 1.286-.043 1.46.895.589 1.697-.049 3.129.882 4.67.155.258.28-3.737.875-4.333.294-.294.697-.965 1.098-1.747C58.389 12.118 46.379 2 32 2z"/><radialGradient id="a" cx="27.375" cy="26.625" r="31.447" gradientUnits="userSpaceOnUse"><stop offset=".206" style="stop-color:#00b3ff;stop-opacity:0"/><stop offset=".579" style="stop-color:#005d96;stop-opacity:.4696"/><stop offset=".868" style="stop-color:#001f4b;stop-opacity:.8331"/><stop offset="1" style="stop-color:#00072e"/></radialGradient><circle cx="32" cy="32" r="30" fill="url(#a)" opacity=".5"/></svg>