<svg xmlns="http://www.w3.org/2000/svg" xml:space="preserve" viewBox="0 0 64 64"><circle cx="32" cy="32" r="30" fill="#0080FF"/><path fill="#CF0" d="M39.296 16.466c.793-.176.756-.209 1.242-.774.633-.276 1.353-.176 1.342-.958-.013-.907-.297-1.977-.931-2.687-.569-.635.147-.753.545-1.164.476-.488-.356-.794-.257-1.044.296-.751-2.874-1.048-2.329.038.237.475-.2.759.281 1.199.438.397.79.962.983 1.507.704 2-4.309 2.475-3.075 4.298 1.056 1.555 1.049-.154 2.199-.415zm-5.171 8.207c-1.15-.498-1.206 1.05-1.043 1.716.261 1.07 1.219 1.069 2.079 1.499 1.172.579.795-1.244-.707-.826-.219-.691.574-2-.329-2.389zm-.749 6.656c-.041-.441-.901-1.089-1.48-.976-1.469.29-1.977 2.231-3.373 2.881-.92.427-.435 2.663.14 3.234.599.596 3.155 1.163 3.378-.188.08-.48-.156-.841.305-1.155.301-.086.429-.279.375-.566.367-.812.633-.473.201-1.449-.413-.942.496-1.324.454-1.781zm-3.803 7.943c-.34.191-1.557-.043-1.862-.273-.466-.354-.532-1.088-.372-1.596-1.391-1.828-3.476-4.479-6.048-4.863-.41.606 1.498 1.979 1.838 2.565.574.993 1.393 1.813 2.03 2.736.393.563 1.077 1.02 1.542 1.558.405.464 1.288.663 1.907.664 1.397 0 3.625 1.196 3.932.26.244-.747-2.368-1.387-2.967-1.051zm7.435-5.468c-.483.116-.967-.135-1.446-.142-.508.369-.979.711-.793 1.391-.829.496.109 2.935.344 2.826.516-.236.426-.789 1.184-.342.956.564.334-.927.22-1.254-.353-1.012 1.626-2.01 1.271-2.655-.098-.175-.457.099-.78.176zm8.275-1.662c-1.407-.42-1.595-.042-2.851.506-.834-.365-.302-1.276-1.499-1.392-.4-.042-1.142.171-1.485.345-.081.596 1.002.512 1.004 1.086.002.325.207 1.542.855 1.192.434-.235 2.109.297 2.492.59.736.569.301 1.47.183 2.196.637.206 1.066-.375 1.655.031.41.28.618.572 1.189.522.79-.071.883-.993 1.561-1.248.354.305.676.142.978.577.249.369.414.875.932.998.359.083 1.805.443 2.045.189-.523-.877-1.637-1.094-1.707-2.111-.064-.977-.91-1.365-1.728-2.01-1.077-.863-2.293-1.069-3.624-1.471zm6.519 14.614c-.722-.915-1.117-2.205-2.116-2.866-.888-.584-.924-1.93-.964-2.967-.73-.677-.428-3.115-1.667-2.102-.463.379-1.468 2.609-1.562 3.176-.202 1.254-3.348-.223-2.619-1.699.404-.809.602-1.296-.588-1.379-.594-.039-1.816-.443-2.338-.313-.609.152-1.558 1.493-1.927 1.937-.806.998-.995-.343-2.066.105-1.544.647-2.817 1.886-3.585 3.203-.763 1.315-3.119 1.446-4.403 2.292-.728.477-1.023.222-1.204 1.059-.107.478-.339.92-.532 1.374-.365.858-.233 1.394.015 2.231.239.799.378 1.658.313 2.492-.051.605-.989 1.438-.931 1.852.18 1.239 1.771.548 2.398.287.958-.412 2.022-.311 3.043-.603 1.469-.418 2.25-.932 3.65-1.384.661-.217 1.656-.795 2.338-.362.708.446 1.58.42 1.434 1.442-.104.756 1.053.778 1.552 1.049 1.005.535.077 1.455 1.285 1.838.873.277 2.101.474 3.04.32 1.852-.316 3.041-1.399 3.986-2.815.623-.934 1.557-1.557 2.393-2.354.693-.661 1.006-1.642 1.397-2.479.674-1.442.63-2.105-.342-3.334z"/><path fill="#CF0" d="M32 2C18.984 2 7.908 10.291 3.755 21.879c.652-.115 1.287-.206 1.74.216.699.644 1.312 1.204 1.984 1.8.662.584 1.309-.037 1.48.938.592 1.77 1.379 3.366 2.317 4.975.157.268.681 2.047 1.286 1.433.817-.827.902-1.12 1.088-2.196.128-.728-.353-1.773.336-2.265.595-.425 1.117-1.098 1.529-1.704.313-.455 1.328-.712 1.072-1.344.272-.338.729-.428 1.138-.503 1.365-.251 1.108.21 2.034.982.661.551 1.23 1.345 1.012 2.265.748.526 1.317-.566 1.829.108.675.884.916 1.929.996 2.98.064.827-.259 1.315.511 1.885.599.611 1.582 3.979 3.094 3.146-.113-.94-.593-2.26-1.347-2.898-.405-.343-.959-.586-1.187-1.082-.181-.397-.502-.531-.502-.922-.005-1.091.791-1.92 1.702-.869.289.333.866 1.743 1.384 1.778.313.022 1.629-1.379 1.904-1.628.772-.69-.227-2.493-.783-3.004-.813-.744-2.282-1.656-.893-2.664.658-.47 1.043.597 1.873.255.42-.173.79-.429 1.15-.688 1.004-.727 1.901-1.051 2.588-2.118.393-.61.801-1.894.713-2.626-.116-1.038-.744-1.301-1.266-2.075-.367-.543-1.578-1.375-.648-1.956 1.39-.866-1.28-.287-1.656-.917-.173-.291-.289-.919.154-1.073.925-.326.279 1.244 1.382.417.401-.299.972-.292 1.186.205.242.547.362.53.899.896.7.475.69 1.835 1.629 1.527 1.198-.396.663-1.203-.061-1.86-.297-.27-.631-.504-.937-.769-.569-.487.007-.403.231-.893.242-.524.047-1.072.847-1.123.501-.031.739-.041.857-.566.176-.811.377-1.522.454-2.346.188-1.944 1.654 1.357 2.387.833.793-.57-2.236-3.053-2.556-3.395-.454-.484-1-1.15-1.731-1.082-.906.088-1.836.124-2.619-.309-.393-.219-.295-1.05-.035-1.637C32.214 2.007 32.107 2 32 2z"/><radialGradient id="a" cx="27.375" cy="26.625" r="31.447" gradientUnits="userSpaceOnUse"><stop offset=".206" style="stop-color:#00b3ff;stop-opacity:0"/><stop offset=".579" style="stop-color:#005d96;stop-opacity:.4696"/><stop offset=".868" style="stop-color:#001f4b;stop-opacity:.8331"/><stop offset="1" style="stop-color:#00072e"/></radialGradient><circle cx="32" cy="32" r="30" fill="url(#a)" opacity=".5"/></svg>