<svg xmlns="http://www.w3.org/2000/svg" xml:space="preserve" style="enable-background:new 0 0 64 64" viewBox="0 0 64 64"><radialGradient id="a" cx="32.125" cy="62" r="115.546" gradientTransform="matrix(1 0 0 .8135 0 11.561)" gradientUnits="userSpaceOnUse"><stop offset="0" style="stop-color:#dbedb3"/><stop offset=".424" style="stop-color:#006dae"/><stop offset=".691" style="stop-color:#011b36"/></radialGradient><path d="M2 2h60v60H2z" style="fill:url(#a)"/><path d="M59.34 16.94c.88 0 .88-1.32 0-1.32-.88.01-.88 1.32 0 1.32zm-19.89-3.31c.88 0 .88-1.31 0-1.31s-.87 1.31 0 1.31zm-34.1 2.65c.88 0 .88-1.31 0-1.32-.88.01-.88 1.32 0 1.32zm41.6-7.1c.88 0 .88-1.32 0-1.32s-.88 1.32 0 1.32zm3.41 12.38c.88 0 .88-1.31 0-1.31s-.88 1.31 0 1.31zm1.02 18.14c.88 0 .88-1.31 0-1.31s-.88 1.31 0 1.31zm-31.41-.33c.88 0 .88-1.31 0-1.31-.88-.01-.88 1.31 0 1.31zM4.94 34.82c.88 0 .88-1.31 0-1.31s-.88 1.31 0 1.31zm14.34-16.59c.58 0 .58-.88 0-.88s-.58.88 0 .88zm-4.56-13.6c.58 0 .59-.88 0-.88s-.59.88 0 .88z" style="opacity:.7;fill:#87ccff"/><path d="M6.45 25.34c.58 0 .59-.88 0-.88-.59.01-.59.88 0 .88zm7.38 10.88c.58 0 .59-.88 0-.88-.58 0-.58.88 0 .88zm31.42-1.26c.58 0 .59-.88 0-.88s-.59.88 0 .88zm13.97 2.21c.58 0 .59-.88 0-.88s-.59.88 0 .88zM12.96 13.8c.58 0 .59-.88 0-.88-.59.01-.59.88 0 .88zM23.8 6.45c.58 0 .59-.88 0-.88s-.59.88 0 .88zM19.75 26.2c.58 0 .59-.88 0-.88-.58 0-.58.88 0 .88zm23.97-4.42c.58 0 .59-.88 0-.88s-.59.88 0 .88zM40.24 4.19c.58 0 .59-.88 0-.88-.58.01-.58.88 0 .88zM60 6.75c.58 0 .59-.88 0-.88-.59.01-.59.88 0 .88z" style="fill:#fff"/><path d="M29.82 17.02c.58 0 .58-.88 0-.88-.59 0-.59.88 0 .88zm3.98 3.33c.88 0 .88-1.32 0-1.32s-.88 1.32 0 1.32zm-3.98 14.17c.88 0 .88-1.32 0-1.32-.88.01-.88 1.32 0 1.32zM7.94 7.63c.87 0 .87-1.32 0-1.32-.88.01-.88 1.32 0 1.32zm23.5.88c.61 0 .61-.88 0-.88s-.61.88 0 .88z" style="opacity:.7;fill:#87ccff"/><path d="M54.6 6.45c2.53 3.76-1.06 9.98-5.58 9.67 6.37 3.55 11.84-5.93 5.58-9.67z" style="fill:#fff"/><linearGradient id="b" x1="32" x2="32" y1="62" y2="51.045" gradientUnits="userSpaceOnUse"><stop offset="0" style="stop-color:#013366"/><stop offset="1" style="stop-color:#006dae"/></linearGradient><path d="M2 51.04h60V62H2z" style="fill:url(#b)"/><path d="M44.96 56.67c0 1.07-26.02 1.07-26.02 0s26.02-1.07 26.02 0z" style="fill:#018bc9"/><path d="M36.77 7h.21v.48h-.21z" style="fill:#822d39"/><path d="M36.84 7h.21v.48h-.21z" style="fill:#e95349"/><path d="M36.41 7.36h.43v1.16h-.43z" style="fill:#822d39"/><path d="M36.72 7.36h.69v1.16h-.69z" style="fill:#e95349"/><path d="M27.75 7h.21v.48h-.21z" style="fill:#822d39"/><path d="M27.82 7h.21v.48h-.21z" style="fill:#e95349"/><path d="M27.39 7.36h.43v1.16h-.43z" style="fill:#822d39"/><path d="M27.7 7.36h.69v1.16h-.69z" style="fill:#e95349"/><path d="M25.16 53.67V36.85l.37-.47V22.54l.33-.43V9.37l.95-.99 2.07 45.29z" style="fill:#822d39"/><path d="M26.1 53.67V36.85l.38-.47V22.53l.33-.42V8.38c0-.26.21-.47.47-.47h1.28c.26 0 .47.21.47.47v13.54l.47.52v13.89l.33.33v17.01H26.1z" style="fill:#e95349"/><path d="m27.96 21.6-.59.38v7.14l-.35.42v24.13h.47V29.65l.3-.5v-7.17zm-.18 17.93v14.14h2.04V40.95zm-.43-22.95V13.9l-.31-.33V8.91l.31-.53v1.07h6.83l1.65-1.07-.71 5.81-1.22-.79h-5.22a.81.81 0 0 0-.8.72l-.2 1.99-.33.47z" style="fill:#822d39"/><path d="M27.35 30.16v-2.68l-.31-.33v-4.66l.75-.26.59.8h5.8l.71-.47v5.06l-.99-.64h-5.22a.81.81 0 0 0-.8.72l-.2 1.99-.33.47zm0 14.06-.31-7.67.75-.26.59.8h5.5l1-.8v6.92l-.36-.46c-.39-.5-1-.79-1.63-.79h-3.02a.81.81 0 0 0-.8.72l-.2 1.07-1.52.47z" style="fill:#822d39"/><path d="M34.18 53.67V36.85l.38-.47V22.54l.33-.43V8.98l.94-.6 2.07 45.29z" style="fill:#822d39"/><path d="M35.12 53.67V36.85l.38-.47V22.53l.33-.42V8.38c0-.26.21-.47.47-.47h1.28c.26 0 .47.21.47.47v13.54l.47.52v13.89l.33.33v17.01h-3.73z" style="fill:#e95349"/><path d="m36.98 21.6-.59.38v7.14l-.35.42v24.13h.47V29.65l.31-.5v-7.17zm.41 14.18-.58.39v17.5h.42v-17.5z" style="fill:#822d39"/><path d="M62 29.02S47.79 24.11 36.59 8.96c-.06-.08 0-1.2 0-1.2C47.79 22.71 62 27.82 62 27.82v1.2zm0 5.14s-13.54-2.37-25.38-18.14c-.06-.08-.07-1.28 0-1.2C49.71 31.46 62 33.27 62 33.27v.89zM2 25.01s14.21-4.88 25.38-16.05c.07-.07.07-1.28 0-1.2C16.21 19.13 2 23.81 2 23.81v1.2z" style="fill:#e95349"/><path d="M2 30.51s17.32-6.26 34.59-21.55c.08-.07 0-1.2 0-1.2C19.31 23.05 2 29.31 2 29.31v1.2zm38.96 18.16h.7V13.98l-.7-.61z" style="fill:#e95349"/><path d="M23.04 48.67h-.7V12.44l.7-.4zm24.05 0h.7V19.28l-.7-.51zm-30.18 0h-.7V17.03l.7-.5zm36.32 0h.7v-25l-.7-.49zm-42.46 0h-.7V20.63l.7-.26zm48.6 0h.7v-21.8l-.7-.31zm-54.74 0h-.7V23.23l.7.23zM41.81 14.3c0 .3-1-.63-1-.93v-.59c0-.29 1 .62 1 .91v.61z" style="fill:#e95349"/><path d="M47.94 19.96c0 .3-1-.48-1-.77v-.59c0-.29 1 .46 1 .75v.61zm6.14 4.34c0 .3-1-.39-1-.68v-.59c0-.29 1 .37 1 .66v.61zm6.14 3.32c0 .3-1-.27-1-.56v-.59c0-.29 1 .25 1 .54v.61zM22.19 12.77c0 .33 1-.33 1-.66v-.49c0-.33-1 .31-1 .64v.51zm-6.13 4.49c0 .33 1-.33 1-.66v-.49c0-.33-1 .31-1 .64v.51zm-6.14 3.56c0 .33 1-.2 1-.53v-.49c0-.33-1 .18-1 .51v.51zm-6.15 2.81c0 .33 1-.09 1-.42v-.49c0-.33-1 .07-1 .4v.51zM2 47.67h60v2H2z" style="fill:#e95349"/><path d="M24.44 52.96v3.71H34v-3.71h-9.56z" style="fill:#6e8189"/><path d="M34 52.96v3.71h5.46v-3.71H34z" style="fill:#b3c2c6"/></svg>