<svg xmlns="http://www.w3.org/2000/svg" xml:space="preserve" viewBox="0 0 64 64"><circle cx="32" cy="32" r="30" fill="#D6F0FF" fill-rule="evenodd" clip-rule="evenodd"/><path fill="#B3DBF2" d="M38.43 19.415c-.861-.266-1.652-.484-2.524-.62-.522.437-1.317 1.279-1.958 1.51-.957.346-1.483.071-1.074-1.004.351-.924 1.772-2.045 2.569-2.561 1.735-1.318 2.977-2.729 3.368-4.98.501-2.883-2.886-5.237-5.518-5.423-1.395-.099-1.492-.303-2.052.916-.23.498-1.591.905-1.86.241-.499-1.231.403-1.722-1.488-1.5-1.396.463-2.056 1.319-3.162 2.196-.589.468-1.163.836-1.938.539-.285-.084-.372-.26-.263-.527-.41.079-1.493.259-1.66-.361-.462-1.723 5.605-4.148 6.367-4.974-2.529.336-5.394.915-7.653 2.142-2.862 1.552-5.289 4.395-7.588 6.662-1.32 1.303-1.907 2.434-2.54 4.181-.613 1.692-.664 3.824-1.701 5.327-.271.638.187 1.1-.114 1.724-.265.55-.813.5-1.01 1.074-.44 1.837.273 3.59.4 5.411a1.898 1.898 0 0 1 1.258-.009c.281-.511.403-.963.949-1.194 1.704-.726 1.287.611 1.487 1.844 1.321-.264 1.542 2.8.373 3.208.603 1.096-1.331 1.095-1.945 1.317-.251.571-.459 1.607-1.015 1.979-.754.505-.237 1.165-.186 2.079.059 1.045-1.005 4.093-.193 4.432.873.363.518 3.021 1.161 3.755.917 1.046 1.91 2.146 2.57 3.379.529-.36 1.211-.968 1.808-1.204-1.1-1.041-1.385-2.932-1.355-4.438.023-1.232 3.163-2.821 2.252-.489.402-.907 2.496-.568 3.064-.159.036-.535.347-.748.873-.86-.42-.776.222-.987.948-1.098-.094-.704.104-1.007.845-1.163.291-.062 1.658-.109 1.699.31.131 1.329.373.771 1.431 1.442 1.055.671 2.566-.188 3.613-.597.115-.743 1.063-6.08 2.365-5.843-1.778-.323-1.368-4.692-1.272-5.836-2.006-1.366.148-2.206 1.668-1.446.303-1.07 1.604-1.277 2.423-.566 1.116.97 1.021.718 2.548 1.079-.486-1.108-2.047-3.336-.939-4.493 1.721-1.797 4.357.223 5.694 1.369.579-.666 1.555-2.542 1.591-3.38-.801-1.146-1.984-1.929-2.316-3.391zm21.446 17.502c-1.737 2.605-2.626-2.658-3.141-3.702-.696-1.412-1.104-2.879-1.197-4.452-1.364.331-1.388-1.604-1.567-2.516-.297-1.506-.435-1.273-1.949-1.299-1.586-.025-2.4.188-1.912-1.431.558-1.848.146-2.733-.228-4.536-.121-.584-.264-1.647.315-2.061.235-.169 1.627-.81 1.677-.096-.104-1.484-2.811-3.699-3.794-2.222-.88 1.32-2.593-.084-3.521-.506-.417 1.011-1.042 1.887-2.07 2.342-.717.315-.811-.314-.929.854-.106 1.052.286 1.592.86 2.404.798 1.13 1.622 2.166 2.452 3.37.333.48.855.16 1.264.572.097.097.368 1.001.421 1.12.23.524-.813 1.299-1.194 1.524.163 2.029-.323 3.827.203 5.904.378.246 2.359 1.44 1.927 2.082-.38.563-.364 1.13-.928 1.528.34.646-1.107.983.262 1.396.802.242.739 1.116 1.377-.226.246-.517.32-1.267.849-1.586.635-.385 1.194-.472 1.17-1.311-.018-.591.118-1.09.74-1.283 1.619-.506 2.828 2.451 3.158 3.673 0 2.394-2.041 4.434-.237 6.822 1.95-1.733 3.035 3.587.328 2.536.319.932 1.466 1.108 1.325 2.396 1.404-1.113 2.979-2.693 3.348-4.413.441-2.059 1.669-3.508 1.304-5.685.037.292.454-2.296-.313-1.198z"/><path fill="#D6F0FF" d="M18.678 14.334c-1.406 1.405-3.569 3.987-2.406 7.019 1.124 2.93 3.742 2.96 5.948 1.314 1.072-.8 3.983-1.046 4.088-2.432.162-2.151 2.412-3.214.412-4.881-1.757-1.463-6.547-2.514-8.042-1.02zm3.857 16.803c.771-.194 2.041-.639 2.261-1.917.214-1.236-.68-1.781-1.773-1.667-.531.055-1.581-.456-1.9-.001-.495.705-1.485.61-1.139 1.591.303.861 1.733 2.202 2.551 1.994zm-3.587 4.989c.298-.515.744-1.453.384-2.484-.349-.998-.978-.959-1.46-.345-.234.298-.925.438-.912.921.021.751-.488 1.162.035 1.704.461.475 1.635.751 1.953.204z"/><path fill="#B3DBF2" d="M39.781 55.869c1.997-1.838 5.069-5.215 3.417-9.179-1.596-3.832-5.314-3.871-8.447-1.72-1.522 1.047-5.656 1.368-5.805 3.181-.23 2.813-3.426 4.202-.586 6.383 2.495 1.914 9.298 3.288 11.421 1.335zm-4.558-18.728c-.893.644-2.267 1.827-1.531 3.222.707 1.348 2.366 1.365 3.765.613.681-.366 2.524-.475 2.592-1.111.106-.988 1.531-1.473.268-2.243-1.114-.675-4.146-1.165-5.094-.481z"/><radialGradient id="a" cx="30" cy="29.625" r="32.039" gradientUnits="userSpaceOnUse"><stop offset="0" style="stop-color:#151236;stop-opacity:.4"/><stop offset=".374" style="stop-color:#100f2d;stop-opacity:.4748"/><stop offset=".982" style="stop-color:#020815;stop-opacity:.5964"/><stop offset="1" style="stop-color:#020814;stop-opacity:.6"/></radialGradient><circle cx="32" cy="32" r="30" fill="url(#a)" opacity=".8"/><radialGradient id="b" cx="-343.495" cy="26.918" r="34.025" gradientTransform="translate(367.787)" gradientUnits="userSpaceOnUse"><stop offset=".23" style="stop-color:#fffbd1;stop-opacity:0"/><stop offset=".31" style="stop-color:#f1ecc5;stop-opacity:.0824"/><stop offset=".461" style="stop-color:#ccc6a5;stop-opacity:.24"/><stop offset=".669" style="stop-color:#908870;stop-opacity:.4563"/><stop offset=".924" style="stop-color:#3e342a;stop-opacity:.7206"/><stop offset="1" style="stop-color:#241913;stop-opacity:.8"/></radialGradient><circle cx="32" cy="32" r="30" fill="url(#b)" opacity=".5"/><path fill="#1A1626" d="M52.407 19.982c-4.296-2.275-12.517-2.385-15.578-.802-.658.308-.224 2.463.328 2.258 4.268-1.688 11.151-1.727 15.146.145.534.242.756-1.285.104-1.601zm-40.813 0c4.295-2.275 12.511-2.385 15.577-.802.655.308.223 2.463-.328 2.258-4.275-1.688-11.149-1.727-15.148.145-.532.242-.752-1.285-.101-1.601zm25.474 18.669c-.535-.373-1.794.203-5.068.203-3.271 0-4.53-.576-5.068-.203-.643.453.382 2.496 5.068 2.496 4.689 0 5.713-2.043 5.068-2.496z"/><path fill="#FFF" d="M27.821 27.735c.159 1.244-.686 2.716-3.021 3.821-1.484.704-4.571 1.531-8.628-.182-1.818-.766-3.591-3.155-3.431-4.475 2.2-4.145 13.023-4.753 15.08.836z"/><linearGradient id="c" x1="-425.306" x2="-425.306" y1="477.409" y2="478.703" gradientTransform="matrix(6.5701 0 0 -6.5701 2814.78 3168.528)" gradientUnits="userSpaceOnUse"><stop offset="0" style="stop-color:#74717d"/><stop offset="1" style="stop-color:#28272e"/></linearGradient><circle cx="20.477" cy="27.65" r="4.252" fill="url(#c)"/><path fill="#1A1626" d="M18.353 27.572c0 2.943 4.253 2.943 4.253 0-.001-2.731-4.253-2.731-4.253 0z"/><path fill="#9F9AAB" d="M17.706 26.382c0 1.232 1.782 1.232 1.782 0 0-1.144-1.782-1.144-1.782 0z"/><path fill="#1A1626" d="M27.842 27.899c-1.728-5.55-13.498-4.731-15.101-1 .594-4.776 13.629-6.038 15.101 1z"/><path fill="#FFF" d="M36.18 27.735c-.16 1.244.685 2.716 3.021 3.821 1.484.704 4.57 1.531 8.628-.182 1.82-.766 3.591-3.155 3.431-4.475-2.197-4.145-13.024-4.753-15.08.836z"/><linearGradient id="d" x1="-424.511" x2="-424.511" y1="477.409" y2="478.703" gradientTransform="matrix(6.5701 0 0 -6.5701 2832.511 3168.528)" gradientUnits="userSpaceOnUse"><stop offset="0" style="stop-color:#74717d"/><stop offset="1" style="stop-color:#28272e"/></linearGradient><circle cx="43.427" cy="27.65" r="4.252" fill="url(#d)"/><path fill="#1A1626" d="M41.303 27.572c0 2.943 4.253 2.943 4.253 0 0-2.731-4.253-2.731-4.253 0z"/><path fill="#9F9AAB" d="M40.656 26.382c0 1.232 1.782 1.232 1.782 0 0-1.144-1.782-1.144-1.782 0z"/><path fill="#1A1626" d="M36.161 27.899c1.725-5.548 13.487-4.753 15.098-1-.597-4.776-13.628-6.038-15.098 1zm-4.182 19.202c-2.881-1.002-6.232.358-10.625-2.684 3.335 6.117 17.874 6.16 21.248 0-4.381 3.041-7.746 1.68-10.623 2.684z"/><path fill="#494454" d="M24.978 48.704c2.341 4.701 11.415 5.025 14 0-2.408 2.534-11.457 2.631-14 0zm-3.624-6.305c.712 2.59-1.001 4.282-2.876 3.791 1.603-.918 1.963-1.337 2.876-3.791zm24.124 3.791c-1.876.491-3.589-1.201-2.876-3.791.913 2.455 1.269 2.873 2.876 3.791z"/></svg>