<svg xmlns="http://www.w3.org/2000/svg" xml:space="preserve" viewBox="0 0 64 64"><circle cx="32" cy="32" r="30" fill="#FFE873" fill-rule="evenodd" clip-rule="evenodd"/><path fill="#F2DA55" d="M38.43 19.415c-.861-.266-1.652-.484-2.523-.62-.523.437-1.318 1.279-1.959 1.51-.957.346-1.482.071-1.074-1.004.352-.924 1.773-2.045 2.57-2.561 1.734-1.318 2.977-2.729 3.367-4.98.502-2.883-2.885-5.237-5.518-5.423-1.395-.099-1.492-.303-2.051.916-.23.498-1.592.905-1.861.241-.498-1.231.404-1.722-1.488-1.5-1.395.463-2.055 1.319-3.162 2.196-.588.468-1.162.836-1.938.539-.285-.084-.373-.26-.264-.527-.41.079-1.492.259-1.66-.361-.461-1.723 5.605-4.148 6.367-4.974-2.529.336-5.393.915-7.652 2.142-2.863 1.552-5.289 4.395-7.588 6.662-1.32 1.303-1.908 2.434-2.541 4.181-.613 1.692-.664 3.824-1.701 5.327-.271.638.188 1.1-.113 1.724-.266.55-.814.5-1.01 1.074-.441 1.837.273 3.59.4 5.411.422-.146.84-.149 1.258-.009.281-.511.402-.963.949-1.194 1.703-.726 1.287.611 1.486 1.844 1.322-.264 1.543 2.8.373 3.208.604 1.096-1.33 1.094-1.945 1.316-.25.572-.459 1.607-1.014 1.98-.754.504-.238 1.164-.186 2.078.059 1.045-1.006 4.094-.193 4.432.873.363.518 3.021 1.16 3.756.918 1.045 1.91 2.145 2.57 3.379.529-.361 1.211-.969 1.809-1.205-1.1-1.041-1.385-2.932-1.355-4.438.023-1.232 3.162-2.822 2.252-.49.402-.906 2.496-.568 3.064-.158.035-.535.346-.748.873-.861-.42-.775.221-.986.947-1.098-.094-.703.104-1.006.846-1.162.291-.063 1.658-.109 1.699.309.131 1.33.373.771 1.43 1.443 1.055.67 2.566-.189 3.613-.598.115-.742 1.063-6.08 2.365-5.842-1.777-.324-1.367-4.692-1.271-5.836-2.006-1.366.148-2.206 1.668-1.446.303-1.07 1.604-1.277 2.422-.566 1.117.97 1.021.718 2.549 1.079-.486-1.108-2.047-3.336-.939-4.493 1.721-1.797 4.357.223 5.693 1.369.58-.666 1.555-2.542 1.592-3.38-.801-1.145-1.984-1.928-2.316-3.39zm21.447 17.501c-1.738 2.605-2.627-2.658-3.141-3.701-.697-1.412-1.105-2.879-1.197-4.452-1.365.331-1.389-1.604-1.568-2.516-.297-1.506-.434-1.273-1.949-1.299-1.586-.025-2.4.188-1.912-1.431.559-1.848.146-2.733-.227-4.536-.121-.584-.264-1.647.314-2.061.236-.169 1.627-.81 1.678-.096-.105-1.484-2.811-3.699-3.795-2.222-.879 1.32-2.592-.084-3.52-.506-.418 1.011-1.043 1.887-2.07 2.342-.717.315-.811-.314-.93.854-.105 1.052.287 1.592.861 2.404.797 1.13 1.621 2.166 2.451 3.37.334.48.855.16 1.264.572.098.097.369 1.001.422 1.12.23.524-.814 1.299-1.195 1.524.164 2.029-.322 3.827.203 5.903.379.246 2.359 1.441 1.928 2.082-.381.563-.365 1.131-.928 1.529.34.645-1.107.982.262 1.396.801.242.738 1.115 1.377-.227.246-.516.32-1.266.848-1.586.635-.385 1.195-.471 1.17-1.311-.018-.59.119-1.09.74-1.283 1.619-.506 2.828 2.451 3.158 3.674 0 2.393-2.041 4.434-.236 6.822 1.949-1.734 3.035 3.586.328 2.535.318.932 1.465 1.109 1.324 2.396 1.404-1.113 2.979-2.693 3.348-4.412.441-2.059 1.67-3.508 1.305-5.686.037.292.453-2.296-.313-1.198z"/><path fill="#FFE873" d="M18.678 14.334c-1.406 1.405-3.568 3.987-2.406 7.019 1.125 2.93 3.742 2.96 5.949 1.314 1.072-.8 3.982-1.046 4.088-2.432.162-2.151 2.412-3.214.412-4.881-1.758-1.463-6.547-2.514-8.043-1.02zm3.857 16.803c.771-.194 2.041-.639 2.262-1.917.213-1.236-.68-1.781-1.773-1.667-.531.055-1.582-.456-1.9-.001-.496.705-1.486.61-1.139 1.591.302.861 1.732 2.202 2.55 1.994zm-3.586 4.988c.297-.514.744-1.453.383-2.484-.348-.998-.977-.959-1.459-.344-.234.297-.926.438-.912.92.021.752-.488 1.162.035 1.705.461.474 1.635.75 1.953.203z"/><path fill="#F2DA55" d="M39.781 55.869c1.998-1.838 5.07-5.215 3.418-9.18-1.596-3.832-5.314-3.871-8.447-1.719-1.523 1.047-5.656 1.367-5.805 3.18-.23 2.814-3.426 4.203-.586 6.383 2.494 1.914 9.297 3.289 11.42 1.336zm-4.558-18.728c-.893.643-2.266 1.826-1.531 3.221.707 1.348 2.367 1.365 3.766.613.68-.365 2.523-.475 2.592-1.111.105-.988 1.531-1.473.268-2.242-1.115-.675-4.146-1.165-5.095-.481z"/><radialGradient id="a" cx="31.789" cy="31.834" r="29.898" gradientUnits="userSpaceOnUse"><stop offset=".127" style="stop-color:#151236;stop-opacity:.5"/><stop offset="1" style="stop-color:#020814"/></radialGradient><path fill="url(#a)" fill-rule="evenodd" d="M36.162 56.807s4.674-5.75 6.268-11.477c.875-.455 4.047-17.107.518-24.9-.559-.775-.865-2.83-1.131-3.882-.018-1.322-2.736-5.327-2.947-5.449-.545-.641-2.047-2.573-2.053-3.389 0 0-1.885-4.278-5.609-5.687C15.006 2.445 2 15.701 2 32.003c0 16.216 12.871 29.421 28.953 29.974 1.731-.913 5-3.588 5.209-5.17z" clip-rule="evenodd" opacity=".8"/><radialGradient id="b" cx="-343.495" cy="26.918" r="34.025" gradientTransform="translate(367.787)" gradientUnits="userSpaceOnUse"><stop offset=".23" style="stop-color:#fffbd1;stop-opacity:0"/><stop offset=".31" style="stop-color:#f1ecc5;stop-opacity:.0824"/><stop offset=".461" style="stop-color:#ccc6a5;stop-opacity:.24"/><stop offset=".669" style="stop-color:#908870;stop-opacity:.4563"/><stop offset=".924" style="stop-color:#3e342a;stop-opacity:.7206"/><stop offset="1" style="stop-color:#241913;stop-opacity:.8"/></radialGradient><circle cx="32" cy="32" r="30" fill="url(#b)" opacity=".5"/></svg>