<svg xmlns="http://www.w3.org/2000/svg" xml:space="preserve" style="enable-background:new 0 0 64 64" viewBox="0 0 64 64"><path d="M32 62C15.46 62 2 48.54 2 32S15.46 2 32 2s30 13.46 30 30-13.46 30-30 30z" style="fill:#00c4ff"/><radialGradient id="a" cx="49.296" cy=".752" r="37.025" gradientTransform="translate(-22.457 23.157) scale(1.0169)" gradientUnits="userSpaceOnUse"><stop offset="0" style="stop-color:#0dacd0"/><stop offset="1" style="stop-color:#015996"/></radialGradient><circle cx="32" cy="32" r="29.5" style="fill:url(#a)"/><path d="M32 62c-3.28.04-6.53-1.11-9.25-3.03-2.72-1.94-4.92-4.57-6.64-7.47-3.42-5.85-4.88-12.72-4.97-19.49.09-6.77 1.55-13.64 4.97-19.5 1.71-2.9 3.92-5.53 6.64-7.47C25.47 3.11 28.72 1.96 32 2c-3.28.08-6.45 1.35-9.04 3.34-2.62 1.96-4.73 4.59-6.35 7.47C13.36 18.6 11.92 25.34 11.9 32c.03 6.66 1.46 13.4 4.71 19.19 1.62 2.88 3.73 5.5 6.36 7.47 2.58 1.99 5.75 3.26 9.03 3.34zm0-60c3.28-.04 6.53 1.11 9.25 3.03 2.72 1.94 4.93 4.57 6.64 7.47 3.42 5.85 4.88 12.72 4.97 19.49-.09 6.77-1.55 13.64-4.97 19.5-1.71 2.9-3.92 5.53-6.64 7.47-2.72 1.93-5.97 3.08-9.25 3.04 3.28-.08 6.45-1.35 9.04-3.34 2.62-1.96 4.73-4.59 6.35-7.47C50.64 45.4 52.08 38.66 52.1 32c-.03-6.66-1.46-13.4-4.71-19.19-1.62-2.88-3.73-5.5-6.36-7.47C38.45 3.35 35.28 2.08 32 2z" style="fill:#00c4ff"/><path d="M32 62c-.66.01-1.3-.3-1.81-.73-.52-.43-.94-.97-1.32-1.53-.74-1.14-1.29-2.38-1.77-3.65-.93-2.55-1.55-5.21-2.03-7.87-.96-5.35-1.29-10.79-1.34-16.21.04-5.43.38-10.87 1.34-16.21.49-2.67 1.11-5.32 2.03-7.88.48-1.27 1.04-2.51 1.77-3.65.37-.56.8-1.1 1.32-1.53.51-.44 1.15-.75 1.81-.74-.66.03-1.26.37-1.74.82-.48.45-.88.99-1.22 1.55-.67 1.15-1.17 2.4-1.6 3.67-.85 2.55-1.4 5.19-1.81 7.85-.83 5.32-1.17 10.72-1.16 16.11-.02 5.39.33 10.79 1.15 16.11.42 2.66.97 5.3 1.81 7.85.42 1.27.92 2.52 1.6 3.67.34.57.74 1.11 1.22 1.55.49.45 1.09.79 1.75.82zm0-60c.66-.01 1.3.3 1.81.73.52.43.94.97 1.32 1.53.74 1.14 1.29 2.38 1.77 3.65.93 2.55 1.55 5.21 2.03 7.87.96 5.35 1.29 10.79 1.34 16.21-.04 5.43-.38 10.87-1.34 16.21-.49 2.67-1.11 5.32-2.03 7.88-.48 1.27-1.04 2.51-1.77 3.65-.37.56-.8 1.1-1.32 1.53-.51.44-1.15.75-1.81.74.66-.03 1.26-.37 1.74-.82.48-.45.88-.99 1.22-1.55.67-1.15 1.17-2.4 1.6-3.67.85-2.55 1.4-5.19 1.81-7.85.83-5.32 1.17-10.72 1.16-16.11.02-5.39-.33-10.79-1.15-16.11-.42-2.66-.97-5.3-1.81-7.85-.42-1.27-.92-2.52-1.6-3.67-.34-.57-.74-1.11-1.22-1.55-.49-.45-1.09-.79-1.75-.82z" style="fill:#00c4ff"/><path d="M18.56 5.19c2.26.14 4.52.34 6.77.47 2.25.13 4.51.25 6.76.22 2.25.03 4.51-.07 6.76-.18 2.26-.11 4.51-.29 6.78-.41-2.23.44-4.47.75-6.73.99-2.26.24-4.53.33-6.81.36-2.27-.03-4.55-.14-6.81-.39-2.25-.27-4.5-.62-6.72-1.06zm-8.58 6.5c3.61.89 7.26 1.59 10.94 2.03 3.68.44 7.38.69 11.08.65 3.7.02 7.4-.24 11.08-.69 3.68-.45 7.33-1.14 10.95-2-3.54 1.16-7.18 2-10.87 2.57-3.69.57-7.42.83-11.16.86-3.73-.02-7.47-.27-11.16-.83-3.69-.56-7.34-1.4-10.86-2.59zM3.81 21.88c4.63 1.05 9.31 1.89 14.01 2.44 4.71.55 9.44.86 14.17.83 4.73.03 9.47-.29 14.17-.84 4.71-.55 9.38-1.39 14.02-2.43-4.56 1.34-9.23 2.33-13.94 3.01-4.72.67-9.48.98-14.25 1.01-4.77-.03-9.53-.33-14.25-1.01-4.7-.67-9.37-1.66-13.93-3.01zM2.02 32.91c4.93 1.16 9.89 2.1 14.9 2.73 5 .63 10.04.99 15.08.96 5.04.03 10.08-.32 15.08-.94 5.01-.63 9.97-1.58 14.9-2.74-4.84 1.47-9.8 2.57-14.82 3.32S37.07 37.34 32 37.36c-5.07-.03-10.15-.39-15.16-1.14-5.02-.76-9.98-1.85-14.82-3.31zm3.01 11.78c4.46.95 8.94 1.69 13.46 2.18 4.51.49 9.05.77 13.59.75 4.54.04 9.08-.22 13.59-.7s9-1.24 13.44-2.24c-4.36 1.31-8.85 2.21-13.38 2.82-4.53.6-9.09.86-13.66.88-4.57-.04-9.13-.32-13.66-.93-4.51-.62-9-1.51-13.38-2.76zm6.45 9.12c3.39.96 6.83 1.67 10.3 2.15 3.47.47 6.97.75 10.47.73 3.5.04 7-.2 10.46-.7 3.46-.5 6.89-1.31 10.19-2.54-3.18 1.52-6.62 2.48-10.09 3.11-3.48.62-7.02.86-10.56.88-3.53-.05-7.07-.32-10.55-.91-3.48-.61-6.92-1.47-10.22-2.72z" style="fill:#00c4ff"/></svg>