<svg xmlns="http://www.w3.org/2000/svg" xml:space="preserve" viewBox="0 0 64 64"><path fill="#FFFB82" fill-rule="evenodd" d="M37.375 50.54A31.672 31.672 0 0 0 55 57.631 30.325 30.325 0 0 1 39.266 62C22.551 62 9 48.568 9 32S22.551 2 39.266 2c.779 0 1.55.039 2.315.096-4.551 2.553-8.475 6.266-11.235 11.021a28.844 28.844 0 0 0-3.339 8.738c-1.843 8.972 6.338 11.767 10.929 10.146 1.292-.456 1.56 4.165-3.464 5.5-1.375.365 1.007 1.779 1.896 2.423 0 0-.499 1.643-2.335 2.621 0 0 5.706 1.381 2.233 4.023-1.571 1.194.212 3.233 1.109 3.972z" clip-rule="evenodd"/><path fill="#FFE875" d="M25.004 23.64c-.098.097-.371 1.001-.425 1.12-.232.524.821 1.299 1.205 1.524-.164 2.029.326 3.827-.205 5.904-.381.246-2.38 1.44-1.943 2.082.383.563.367 1.13.936 1.528-.343.646 1.117.983-.264 1.396-.81.242-.746 1.116-1.39-.226-.248-.517-.323-1.267-.855-1.586-.641-.385-1.205-.472-1.181-1.311.018-.591-.119-1.09-.747-1.283-1.633-.506-2.853 2.451-3.186 3.673 0 2.394 2.059 4.434.239 6.822-1.968-1.733-3.063 3.587-.331 2.536-.322.932-1.479 1.108-1.337 2.396-1.417-1.113-3.005-2.693-3.378-4.413-.445-2.059-1.684-3.508-1.315-5.685-.037.287-.458-2.301.315-1.203 1.753 2.605 2.649-2.658 3.169-3.702.702-1.412 1.114-2.879 1.208-4.452 1.376.331 1.399-1.604 1.581-2.516.3-1.506.438-1.273 1.967-1.299 1.6-.025 2.421.188 1.929-1.431-.563-1.848-.146-2.733.229-4.536.122-.584.266-1.647-.318-2.061-.237-.169-1.642-.81-1.691-.096.105-1.484 2.835-3.699 3.827-2.222.888 1.32 2.616-.084 3.552-.506.421 1.011 1.052 1.887 2.089 2.342.009.004.016.004.024.008-.747 1.771-1.329 3.578-1.701 5.408-.019.089-.029.173-.045.261-.228.308-.454.623-.683.951-.337.485-.863.165-1.275.577zm19.508 31.892c-2.034 1.546-7.579 2.657-9.309 1.079-1.628-1.485-4.132-4.213-2.785-7.416.783-1.863 2.194-2.609 3.748-2.535-1.375 1.203.333 3.159 1.209 3.88a31.52 31.52 0 0 0 4.844 3.278c.896.493 1.812.921 2.734 1.318-.124.13-.264.26-.441.396zM26.691 45.084c.9.644 2.287 1.827 1.545 3.222-.713 1.348-2.387 1.365-3.798.613-.687-.366-2.547-.475-2.615-1.111-.107-.988-1.544-1.473-.27-2.243 1.123-.674 4.182-1.165 5.138-.481zm3.531-38.997c.789-.115 2.101-.192 2.422.894.313 1.048-.54 1.887-1.646 2.199-.539.152-1.552 1.019-1.908.724-.554-.456-1.539.007-1.271-1.021.238-.904 1.565-2.673 2.403-2.796z"/><radialGradient id="a" cx="906.792" cy="29.375" r="35.484" gradientTransform="matrix(-1.0089 0 0 1 956.922 0)" gradientUnits="userSpaceOnUse"><stop offset=".509" style="stop-color:#fffbd1;stop-opacity:0"/><stop offset=".582" style="stop-color:#f4ecc4;stop-opacity:.1189"/><stop offset=".722" style="stop-color:#d9c6a1;stop-opacity:.3461"/><stop offset=".911" style="stop-color:#ac896a;stop-opacity:.6554"/><stop offset="1" style="stop-color:#966a4e;stop-opacity:.8"/></radialGradient><path fill="url(#a)" fill-rule="evenodd" d="M37.375 50.54A31.672 31.672 0 0 0 55 57.631 30.325 30.325 0 0 1 39.266 62C22.551 62 9 48.568 9 32S22.551 2 39.266 2c.779 0 1.55.039 2.315.096-4.551 2.553-8.475 6.266-11.235 11.021a28.844 28.844 0 0 0-3.339 8.738c-1.843 8.972 6.338 11.767 10.929 10.146 1.292-.456 1.56 4.165-3.464 5.5-1.375.365 1.007 1.779 1.896 2.423 0 0-.499 1.643-2.335 2.621 0 0 5.706 1.381 2.233 4.023-1.571 1.194.212 3.233 1.109 3.972z" clip-rule="evenodd" opacity=".5"/><path fill="#A1722A" d="M22.679 42.556c4.686 1.292 7.58-.19 9.87-2.044.548-.443 2.431.271 3.819-.588 0 0-.389 1.826-2.119 2.68-4.872 2.4-10.54 1.895-11.57-.048z"/><path fill="#C9984C" d="M26.744 48.496c3.934.246 8.656 1.039 8.914-.523-.06-1.051.93-1.289 1.421-2.203-1.626 1.164-4.347.475-5.149 1.039-2.333 1.64-5.186 1.687-5.186 1.687zm7.344-10.484c.019-.688 3.285-.555 4.335-3.535-3.533 3.152-4.629-.108-8.345 2.267-1.766 1.128-2.757-.522-2.712-.19.674 4.792 4.925.251 6.722 1.458z"/><path fill="#45332C" d="M30.622 38.012c.666-.607 2.283-.566 3.172-1.434-1.162.035-3.326-.42-3.172 1.434z"/><path fill="#422F11" d="M21.699 31.002c0 4.333 5.045 4.333 5.045 0s-5.045-4.333-5.045 0z"/><path fill="#BDA299" d="M24.474 29.891c0 1.001 1.514 1.001 1.514 0-.001-.999-1.514-.999-1.514 0z"/></svg>