<svg xmlns="http://www.w3.org/2000/svg" xml:space="preserve" style="enable-background:new 0 0 64 64" viewBox="0 0 64 64"><linearGradient id="a" x1="0" x2="64" y1="64" y2="0" gradientUnits="userSpaceOnUse"><stop offset="0" style="stop-color:#99a8ae"/><stop offset="1" style="stop-color:#f3f8fc"/></linearGradient><path d="M64 0H0v64h64V0z" style="fill:url(#a)"/><linearGradient id="b" x1="-454.886" x2="-454.886" y1="30.023" y2="6.875" gradientTransform="matrix(-1 0 0 1 -422.886 0)" gradientUnits="userSpaceOnUse"><stop offset="0" style="stop-color:#99a8ae;stop-opacity:0"/><stop offset=".211" style="stop-color:#b3bfc4;stop-opacity:.2114"/><stop offset=".546" style="stop-color:#d6dee3;stop-opacity:.5463"/><stop offset=".821" style="stop-color:#ebf1f5;stop-opacity:.8212"/><stop offset="1" style="stop-color:#f3f8fc"/></linearGradient><path d="M0 8.07c23.43-6.24 43.18 14.67 64 0v21.95H0V8.07z" style="fill:url(#b)"/><linearGradient id="c" x1="32" x2="32" y1="43.09" y2="15.067" gradientUnits="userSpaceOnUse"><stop offset="0" style="stop-color:#99a8ae;stop-opacity:0"/><stop offset=".211" style="stop-color:#b3bfc4;stop-opacity:.2114"/><stop offset=".546" style="stop-color:#d6dee3;stop-opacity:.5463"/><stop offset=".821" style="stop-color:#ebf1f5;stop-opacity:.8212"/><stop offset="1" style="stop-color:#f3f8fc"/></linearGradient><path d="M50.93 24.05a8.64 8.64 0 0 0-2.93-.52c-2.89 0-5.44 1.43-7 3.61-.61-.2-1.27-.3-1.95-.3-1.64 0-3.14.63-4.27 1.65-.91-2.42-3.24-4.15-5.98-4.15-1.18 0-2.29.33-3.24.89-1.55-4.07-5.48-6.96-10.09-6.96-3.67 0-6.91 1.84-8.87 4.64A9.018 9.018 0 0 0 0 20.04V43.1h64V15.07c-5.97 0-11.05 3.73-13.07 8.98z" style="fill:url(#c)"/><linearGradient id="d" x1="-454.886" x2="-454.886" y1="60.933" y2="34.696" gradientTransform="matrix(-1 0 0 1 -422.886 0)" gradientUnits="userSpaceOnUse"><stop offset="0" style="stop-color:#99a8ae;stop-opacity:0"/><stop offset=".211" style="stop-color:#b3bfc4;stop-opacity:.2114"/><stop offset=".546" style="stop-color:#d6dee3;stop-opacity:.5463"/><stop offset=".821" style="stop-color:#ebf1f5;stop-opacity:.8212"/><stop offset="1" style="stop-color:#f3f8fc"/></linearGradient><path d="M64 35.4v25.54H0V35.4c28.51 14.89 35.76-4.52 64 0z" style="fill:url(#d)"/><linearGradient id="e" x1="32" x2="32" y1="64" y2="42.977" gradientUnits="userSpaceOnUse"><stop offset="0" style="stop-color:#99a8ae;stop-opacity:0"/><stop offset=".211" style="stop-color:#b3bfc4;stop-opacity:.2114"/><stop offset=".546" style="stop-color:#d6dee3;stop-opacity:.5463"/><stop offset=".821" style="stop-color:#ebf1f5;stop-opacity:.8212"/><stop offset="1" style="stop-color:#f3f8fc"/></linearGradient><path d="M50.93 51.96a8.64 8.64 0 0 0-2.93-.52c-2.89 0-5.44 1.43-7 3.61-.61-.2-1.27-.3-1.95-.3-1.64 0-3.14.63-4.27 1.65-.91-2.42-3.24-4.15-5.98-4.15-1.18 0-2.29.33-3.24.89-1.55-4.07-5.48-6.96-10.09-6.96-3.67 0-6.91 1.84-8.87 4.64A9.018 9.018 0 0 0 0 47.95V64h64V42.98c-5.97 0-11.05 3.73-13.07 8.98z" style="fill:url(#e)"/></svg>