<svg xmlns="http://www.w3.org/2000/svg" xml:space="preserve" style="enable-background:new 0 0 64 64" viewBox="0 0 64 64"><radialGradient id="a" cx="22.938" cy="40.125" r="42.97" gradientUnits="userSpaceOnUse"><stop offset="0" style="stop-color:#0047c9"/><stop offset=".131" style="stop-color:#0044c1"/><stop offset=".334" style="stop-color:#003dab"/><stop offset=".582" style="stop-color:#003088"/><stop offset=".865" style="stop-color:#001f57"/><stop offset="1" style="stop-color:#00163d"/></radialGradient><path d="M2 2h60v60H2z" style="fill:url(#a)"/><linearGradient id="b" x1="58.433" x2="27.643" y1="4.932" y2="34.439" gradientUnits="userSpaceOnUse"><stop offset="0" style="stop-color:#fffda3"/><stop offset=".129" style="stop-color:#fff696"/><stop offset=".37" style="stop-color:#ffe373"/><stop offset=".692" style="stop-color:#ffc63b"/><stop offset="1" style="stop-color:#ffa600"/></linearGradient><path d="m23.65 32.31 7.06 6.89s10.65-21.99 27.6-33.88c-19.9 6.18-34.66 26.99-34.66 26.99z" style="fill:url(#b)"/><linearGradient id="c" x1="3.671" x2="56.484" y1="42.037" y2="3.99" gradientUnits="userSpaceOnUse"><stop offset="0" style="stop-color:#ffa600"/><stop offset=".308" style="stop-color:#ffc63b;stop-opacity:.692"/><stop offset=".63" style="stop-color:#ffe373;stop-opacity:.3698"/><stop offset=".871" style="stop-color:#fff696;stop-opacity:.1294"/><stop offset="1" style="stop-color:#fffda3;stop-opacity:0"/></linearGradient><path d="m3.92 43.94 7.43-1.1S27.37 18.23 58.3 5.31C12.06 18.78 3.92 43.94 3.92 43.94z" style="fill:url(#c)"/><linearGradient id="d" x1="56.005" x2="16.507" y1="6.489" y2="21.894" gradientUnits="userSpaceOnUse"><stop offset="0" style="stop-color:#fffda3"/><stop offset=".129" style="stop-color:#fff696"/><stop offset=".37" style="stop-color:#ffe373"/><stop offset=".692" style="stop-color:#ffc63b"/><stop offset="1" style="stop-color:#ffa600"/></linearGradient><path d="m13.18 23.04 4 4.16S32 8.3 55.4 4.81C28.25 6.26 13.18 23.04 13.18 23.04z" style="fill:url(#d)"/><linearGradient id="e" x1="23.331" x2="57.567" y1="52.894" y2="8.157" gradientUnits="userSpaceOnUse"><stop offset="0" style="stop-color:#ffa600"/><stop offset=".308" style="stop-color:#ffc63b;stop-opacity:.692"/><stop offset=".63" style="stop-color:#ffe373;stop-opacity:.3698"/><stop offset=".871" style="stop-color:#fff696;stop-opacity:.1294"/><stop offset="1" style="stop-color:#fffda3;stop-opacity:0"/></linearGradient><path d="m20.2 51.85 1.76 7.96S40.58 35.73 58.3 5.31C34.29 34.09 20.2 51.85 20.2 51.85z" style="fill:url(#e)"/><linearGradient id="f" x1="56.222" x2="38.542" y1="6.013" y2="47.705" gradientUnits="userSpaceOnUse"><stop offset="0" style="stop-color:#fffda3"/><stop offset=".129" style="stop-color:#fff696"/><stop offset=".37" style="stop-color:#ffe373"/><stop offset=".692" style="stop-color:#ffc63b"/><stop offset="1" style="stop-color:#ffa600"/></linearGradient><path d="m36.38 45.04 4.9 3.49s4.39-22.42 18.01-41.07c-16.2 14.87-22.91 37.58-22.91 37.58z" style="fill:url(#f)"/><linearGradient id="g" x1="34.994" x2="53.203" y1="-10.651" y2="-42.188" gradientTransform="rotate(-30 160.146 47.651)" gradientUnits="userSpaceOnUse"><stop offset="0" style="stop-color:#fd0"/><stop offset=".067" style="stop-color:#ffe00c"/><stop offset=".381" style="stop-color:#ffeb43"/><stop offset=".653" style="stop-color:#fff46b"/><stop offset=".868" style="stop-color:#fff983"/><stop offset="1" style="stop-color:#fffb8c"/></linearGradient><path d="M13.2 24.63c-.3-1.37.31-1.72 1.35-.78l9.41 8.55 10.77-6.23c1.25-.72 1.81-.24 1.24 1.06l-5.03 11.5 9.41 8.53c1.04.94.72 1.58-.7 1.42L27.19 47.3l-5.03 11.49c-.57 1.31-1.28 1.26-1.58-.11l-2.69-12.42-12.47-1.39c-1.42-.16-1.55-.88-.3-1.6l10.78-6.21-2.7-12.43z" style="fill:url(#g)"/><linearGradient id="h" x1="22.614" x2="22.614" y1="60.125" y2="22.933" gradientUnits="userSpaceOnUse"><stop offset="0" style="stop-color:#ffbf00"/><stop offset=".024" style="stop-color:#ffc102"/><stop offset=".434" style="stop-color:#ffdd24"/><stop offset=".774" style="stop-color:#ffef39"/><stop offset="1" style="stop-color:#fff540"/></linearGradient><path d="M21.29 60.13h-.08c-.34-.03-.78-.3-1.02-1.36l-2.63-12.14-12.18-1.37c-1.1-.12-1.42-.55-1.49-.89-.07-.34.05-.87 1.03-1.44l10.53-6.07-2.63-12.15c-.23-1.08.07-1.5.36-1.67.29-.17.81-.21 1.63.53l9.2 8.36 10.53-6.08c.98-.57 1.5-.41 1.76-.18.26.23.47.72.03 1.73l-4.92 11.24 9.2 8.35c.81.73.81 1.25.67 1.56-.14.31-.55.66-1.67.54l-12.18-1.35-4.92 11.22c-.42.94-.88 1.17-1.22 1.17zm-7.71-35.59 2.75 12.7L5.31 43.6c-.57.33-.67.56-.66.61.01.04.19.21.81.28l12.75 1.42 2.75 12.69c.12.58.3.74.34.75.04-.01.26-.14.51-.72l5.15-11.75L39.7 48.3c.63.07.85-.05.88-.09.01-.04-.05-.27-.49-.66l-9.62-8.72 5.14-11.75c.25-.57.2-.81.17-.84-.03-.03-.29-.06-.86.27L23.9 32.88l-9.62-8.74c-.5-.45-.71-.42-.72-.43.01 0-.12.18.02.83z" style="fill:url(#h)"/><path d="M36.38 53.93c0 .94-1.41.94-1.41 0 .01-.93 1.41-.93 1.41 0z" style="fill:#0ff"/><path d="M47.84 56.59c0 .94-1.41.94-1.41 0s1.41-.94 1.41 0z" style="fill:#fff"/><path d="M50.6 43.56c0 .94-1.41.94-1.41 0 .01-.94 1.41-.94 1.41 0z" style="fill:#f0f"/><path d="M58.1 48.75c0 .94-1.41.94-1.41 0 .01-.93 1.41-.93 1.41 0z" style="fill:#ff0"/><path d="M57.17 34.43c0 .94-1.41.94-1.41 0 0-.93 1.41-.93 1.41 0z" style="fill:#0ff"/><path d="M53.73 26.22c0 .94-1.41.94-1.41 0 0-.93 1.41-.93 1.41 0z" style="fill:#ff0"/><path d="M39.25 4.49c0 .94-1.41.94-1.41 0 .01-.93 1.41-.93 1.41 0z" style="fill:#fff"/><path d="M57.87 17.45c0 .94-1.41.94-1.41 0 0-.93 1.41-.93 1.41 0z" style="fill:#f0f"/><path d="M11.87 20.69c0 .94-1.41.94-1.41 0 .01-.93 1.41-.93 1.41 0z" style="fill:#fff"/><path d="M6.8 29.25c0 .94-1.41.94-1.41 0 .01-.94 1.41-.94 1.41 0z" style="fill:#0ff"/><path d="M11.7 51.79c0 .94-1.41.94-1.41 0s1.41-.94 1.41 0zm-4.19-39.3c0 .94-1.41.94-1.41 0 0-.93 1.41-.93 1.41 0z" style="fill:#ff0"/><path d="M23.65 5.84c0 .94-1.41.94-1.41 0 0-.93 1.41-.93 1.41 0z" style="fill:#fff"/><path d="M18.01 12.49c0 .94-1.41.94-1.41 0 .01-.93 1.41-.93 1.41 0z" style="fill:#0ff"/><path d="M31.81 7.03c0 .94-1.41.94-1.41 0 .01-.94 1.41-.94 1.41 0z" style="fill:#ff0"/><path d="M12.21 6.19c0 .94-1.41.94-1.41 0 .01-.93 1.41-.93 1.41 0z" style="fill:#f0f"/></svg>