<svg xmlns="http://www.w3.org/2000/svg" xml:space="preserve" viewBox="0 0 64 64"><path fill="#677339" d="M39.906 21.376C42.344 13.754 38.16 4.586 36.941 2c1.118 2.757 4.955 13.696 1.602 19.623-.12.212 1.115.529 1.363-.247z"/><path fill="#7AB51D" d="M40.262 17.832C26.959 13.318 36.941 2 36.941 2s3.78 8.968 3.321 15.832z"/><path fill="#92C932" d="M40.262 17.832C41.266 12.458 36.941 2 36.941 2s13.961 10.656 3.321 15.832z"/><path fill="#529320" d="M40.262 17.832C40.498 11.363 36.941 2 36.941 2s5.959 9.792 3.321 15.832z"/><linearGradient id="a" x1="-86.857" x2="-84.608" y1="46.033" y2="46.033" gradientTransform="rotate(31.745 14.315 252.503)" gradientUnits="userSpaceOnUse"><stop offset="0" style="stop-color:#677339"/><stop offset=".286" style="stop-color:#5a6632"/><stop offset=".816" style="stop-color:#384421"/><stop offset="1" style="stop-color:#2a361a"/></linearGradient><path fill="url(#a)" d="M40.238 20.508c.191-.679-1.156-.906-1.525.384-.553 1.941-2.625 5.407-3.933 6.685-.411.402 1.423 1.366 1.755.905 2.326-3.242 3.52-7.326 3.703-7.974z"/><path fill="#677339" d="M35.36 27.06c-3.479-9.69-16.239-17.014-19.633-18.805C19.176 10.323 32.84 19.629 34.29 28.52c.056.341 1.464-.365 1.07-1.46z"/><path fill="#7AB51D" d="M32.613 22.837C16.173 29.453 15.727 8.255 15.727 8.255s11.35 6.603 16.886 14.582z"/><path fill="#92C932" d="M32.613 22.837C28.888 16.03 15.727 8.255 15.727 8.255s22.4-.408 16.886 14.582z"/><path fill="#529320" d="M32.613 22.837C27.214 15.489 15.727 8.255 15.727 8.255s14.119 5.614 16.886 14.582z"/><path fill="#677339" d="M36.692 26.509c7.845-6.994 21.704-8.075 25.308-8.226-3.794.369-20.514 3.272-25.241 9.941-.204.288-.954-.924-.067-1.715z"/><path fill="#7AB51D" d="M41.074 23.972C50.451 36.558 62 18.283 62 18.283s-12.376 1.039-20.926 5.689z"/><path fill="#92C932" d="M41.074 23.972C47.588 19.591 62 18.283 62 18.283S44.676 8.63 41.074 23.972z"/><path fill="#529320" d="M41.074 23.972C49.184 19.815 62 18.283 62 18.283s-14.02-.971-20.926 5.689z"/><linearGradient id="b" x1="113.488" x2="117.518" y1="55.31" y2="55.31" gradientTransform="scale(-1 1) rotate(-27.362 3.33 347.966)" gradientUnits="userSpaceOnUse"><stop offset="0" style="stop-color:#2a361a"/><stop offset=".415" style="stop-color:#4b572b"/><stop offset=".767" style="stop-color:#606c35"/><stop offset="1" style="stop-color:#677339"/></linearGradient><path fill="url(#b)" d="M36.214 26.539c.708-.674 1.919.614.576 1.898-2.021 1.931-8.378 16.128-8.483 18.661-.03.744-2.626-.564-2.328-1.256 2.166-5.024 8.361-16.466 7.978-18.199-.156-.702 1.581-.461 2.257-1.104z"/><path fill="#677339" d="M27.158 46.383c9.102-8.252 26.545-10.215 31.186-10.507-4.845.555-24.2 3.504-30.762 12.528-.239.329-1.452-1.09-.424-2.021z"/><path fill="#7AB51D" d="M32.338 43.251c14.641 14.541 26.006-7.375 26.006-7.375s-15.841 1.619-26.006 7.375z"/><path fill="#92C932" d="M32.338 43.251c7.58-5.373 26.006-7.375 26.006-7.375s-24.365-10.829-26.006 7.375z"/><path fill="#529320" d="M32.338 43.251c9.693-5.16 26.006-7.375 26.006-7.375s-18.367-.698-26.006 7.375z"/><linearGradient id="c" x1="24.184" x2="29.341" y1="52.965" y2="52.965" gradientUnits="userSpaceOnUse"><stop offset="0" style="stop-color:#677339"/><stop offset=".24" style="stop-color:#626e37"/><stop offset=".515" style="stop-color:#546030"/><stop offset=".806" style="stop-color:#3e4a24"/><stop offset="1" style="stop-color:#2a361a"/></linearGradient><path fill="url(#c)" d="M27.25 44.485c-.401-1.217-2.715-.371-1.959 1.947 1.137 3.484.496 11.828-1.07 14.929-.46.911 3.53.84 3.634-.162.755-7.282-.251-12.224 1.368-14.084.654-.751-1.592-1.468-1.973-2.63z"/><path fill="#677339" d="M26.746 44.052C22.216 31.751 6.317 21.725 2 19.335c4.38 2.748 21.596 14.635 23.33 26.574.064.442 1.935-.449 1.416-1.857z"/><path fill="#7AB51D" d="M23.326 38.541C2 46.688 2 19.335 2 19.335s14.421 8.783 21.326 19.206z"/><path fill="#92C932" d="M23.326 38.541C18.719 29.674 2 19.335 2 19.335s28.825 0 21.326 19.206z"/><path fill="#529320" d="M23.326 38.541C16.58 28.936 2 19.335 2 19.335s18.009 7.574 21.326 19.206z"/></svg>