<svg xmlns="http://www.w3.org/2000/svg" xml:space="preserve" viewBox="0 0 64 64"><path fill="#92C932" d="M41.3.109c-.273.962-1.16 3.802-1.16 3.802s.289-2.668.425-3.61c-1.308.325-3.232 1.609-4.777 3.215a52.586 52.586 0 0 0-.197 3.694 61.243 61.243 0 0 1-.173-3.278c-1.302 1.519-2.447 3.465-3.313 5.606.08 1.323.315 5.083.315 5.083s-.592-2.687-.778-3.789c-.103.274-.738 2.385-.892 3.078a65.3 65.3 0 0 0 .803 4.475 65.894 65.894 0 0 1-.958-3.391c0 1.349.493 3.699.772 6.584 1.691-9.677 6.208-16.721 12.486-19.358.518-.81.986-1.304.986-1.304-.013.019-.271-.336-.621-.502L42.75 2.198 43.696.19c-.655-.216-1.474-.254-2.396-.081z"/><path fill="#7AB51D" d="M34.569 18.458c.175-.367.357-.741.541-1.118a13.587 13.587 0 0 0-1.999.137c.756-.313 1.52-.544 2.286-.7.287-.566.588-1.127.901-1.685-.464-.077-1.979-.133-1.979-.133s1.978-.753 2.509-.784c.728-1.267 1.044-1.706 1.868-2.825-.679-.299-2.512-1.33-2.512-1.33s2.44.182 3.217.372c.53-.702.798-1.012 1.328-1.631-.467-.285-2.135-1.439-2.135-1.439s2.17.569 2.703.788c.547-.633 2.653-2.965 3.49-4.167.142-.205-1.837-.916-1.837-.916s2.288.012 2.314-.09c.027-.109.018-1.121-.018-1.247-7.008 2.128-12.065 9.503-13.881 19.888.584-.955 3.11-2.916 3.204-3.12z"/><path fill="#263D00" d="M35.6 15.8c-.951.059-1.901.225-2.847.503-.027.094-.056.187-.083.278a12.681 12.681 0 0 1 2.93-.781zm-1.027 2.365c-.924.194-1.846.5-2.751.924l-.064.298a12.67 12.67 0 0 1 2.815-1.222zm2.098-4.761a13.708 13.708 0 0 0-2.941.02c-.033.086-.067.169-.102.254a13.176 13.176 0 0 1 3.043-.274zm1.21-1.857a15.435 15.435 0 0 0-3.001-.437c-.038.077-.08.154-.122.231 1.05-.045 2.092.025 3.123.206zm1.727-2.064c-1-.521-2.022-.956-3.065-1.296a5.226 5.226 0 0 0-.154.18 18.41 18.41 0 0 1 3.219 1.116zm2.33-2.273a21.898 21.898 0 0 0-3.05-1.546c-.056.052-.109.106-.165.162 1.095.36 2.169.823 3.215 1.384zm2.169-2.643a18.823 18.823 0 0 0-2.75-1.007c-.063.042-.127.085-.19.129m-10.008 9.124a67.265 67.265 0 0 0 1.029 4.943l-.076.284a64.514 64.514 0 0 1-.953-5.227zm1.696-4.042c.181 1.679.425 3.33.729 4.949l-.098.263a62.767 62.767 0 0 1-.631-5.212zm1.685-3.298c.073 1.658.215 3.299.418 4.912a5.87 5.87 0 0 0-.116.239 57.567 57.567 0 0 1-.302-5.151zm2.904-2.983a52.694 52.694 0 0 0-.18 4.7c-.051.061-.1.124-.151.186.033-1.629.14-3.262.331-4.886zM39.693.793a45.87 45.87 0 0 0-.531 4.504c-.055.051-.114.101-.168.154.15-1.565.382-3.123.699-4.658zm2.501-.508S41.1 2.696 40.823 4.014c-.063.047-.126.091-.187.138.331-1.373 1.558-3.867 1.558-3.867z" opacity=".25"/><path fill="#70A61B" d="M45.248 1.691c-8.305 1.995-12.207 10.591-13.956 19.294-.121.739.12.89.232.301 1.663-7.749 4.692-16.178 13.724-19.595z"/><path fill="#92C932" d="M6.956 10.939c.938.495 3.807 1.876 3.807 1.876s-2.014-1.791-2.769-2.393c1.836-.931 5.041-1.685 7.968-1.845a33.868 33.868 0 0 1 2.538 2.664 37.081 37.081 0 0 0-1.819-2.677c2.571-.01 5.211.452 7.622 1.317l2.756 4.195s-.927-2.601-1.378-3.618c.298.118 2.401 1.167 3.025 1.562a42.548 42.548 0 0 1 1.771 4.168 49.03 49.03 0 0 0-.904-3.475c.837 1.039 1.677 3.292 3.117 5.764-8.118-5.914-18.132-7.25-27.616-3.604-1.15-.154-2.044-.111-2.044-.111.025.002.13-.503.465-.948l2.94.045-2.427-.689c.686-.759 1.686-1.529 2.948-2.231z"/><path fill="#7AB51D" d="M26.749 18.973a108.63 108.63 0 0 0-1.371-.371 32.596 32.596 0 0 1 2.587-1.702 28.63 28.63 0 0 0-3.294 1.527 49.41 49.41 0 0 0-2.172-.48c.534-.478 2.391-1.891 2.391-1.891s-2.938 1.208-3.619 1.663c-1.697-.315-2.365-.367-4.089-.484.662-.843 2.314-3.292 2.314-3.292s-2.938 2.346-3.792 3.193a37.765 37.765 0 0 0-2.67-.054c.403-.642 1.776-3.038 1.776-3.038s-2.361 2.401-2.892 3.049c-1.078.007-5.156.119-6.949-.05-.303-.029 1.729-2.365 1.729-2.365S3.847 16.756 3.75 16.7c-.103-.058-.718-.846-.75-.975 10.082-4.698 20.977-3.595 29.689 2.752-1.319-.209-5.697.567-5.94.496z"/><path fill="#263D00" d="M23.812 17.859a31.035 31.035 0 0 1 3.872-2.188c.093.047.185.093.275.14a29.266 29.266 0 0 0-4.147 2.048zm2.751.89a28.54 28.54 0 0 1 4.012-1.776l.266.171a27.51 27.51 0 0 0-4.278 1.605zm-5.577-1.766a33.266 33.266 0 0 1 3.69-2.644c.097.036.191.068.286.103a31.783 31.783 0 0 0-3.976 2.541zm-2.663-.335a35.804 35.804 0 0 1 3.48-3.048c.098.024.194.046.295.068a34.377 34.377 0 0 0-3.775 2.98zm-3.439-.026a41.187 41.187 0 0 1 3.029-3.769h.305a38.862 38.862 0 0 0-3.334 3.769zm-4.323.357a42.216 42.216 0 0 1 2.854-3.947l.307-.025a40.081 40.081 0 0 0-3.161 3.972zm-4.352-.072a39.312 39.312 0 0 1 2.813-3.26l.318-.074m18.173-2.027a43.934 43.934 0 0 1 1.776 4.733c.092.049.182.099.273.149a42.679 42.679 0 0 0-2.049-4.882zM22.886 9.97a41.448 41.448 0 0 1 2.156 4.467c.096.037.191.075.286.114a40.1 40.1 0 0 0-2.442-4.581zm-4.153-1.015a38.743 38.743 0 0 1 2.523 4.159c.098.021.196.05.295.076a35.985 35.985 0 0 0-2.818-4.235zm-5.483.331a33.294 33.294 0 0 1 3.141 3.454l.305.006a32.34 32.34 0 0 0-3.446-3.46zm-3.863.729a30.56 30.56 0 0 1 3.461 2.984c.099-.011.203-.025.305-.034a30.043 30.043 0 0 0-3.766-2.95zm-3.442 1.868s2.861.867 4.026 1.63c.107-.021.214-.045.319-.063-1.263-.757-4.345-1.567-4.345-1.567z" opacity=".25"/><path fill="#70A61B" d="M3 15.725c11.618-5.971 21.83-2.885 29.413 2.228.611.459.402.794-.104.443-6.884-4.46-15.896-8.208-29.309-2.671z"/><path fill="#92C932" d="M9.631 30.894c1.004-.349 3.972-1.507 3.972-1.507s-2.698.26-3.658.403c.542-1.964 2.138-4.807 3.992-7.046a34.474 34.474 0 0 1 3.704-.052 37.598 37.598 0 0 0-3.229-.481 22.276 22.276 0 0 1 6.124-4.663c1.301.212 5 .822 5 .822s-2.572-1.079-3.637-1.436c.288-.138 2.492-.961 3.208-1.15 1.474.434 2.914.945 4.315 1.521a50.138 50.138 0 0 0-3.212-1.685c1.342.092 3.596.999 6.417 1.618-9.901 1.923-17.654 8.314-21.322 17.68a12.27 12.27 0 0 0-1.461 1.412c.02-.018-.289-.434-.395-.978l2.015-2.11-2.152 1.303c-.105-1.012-.006-2.259.319-3.651z"/><path fill="#7AB51D" d="M28.993 21.897c-.394.242-.796.493-1.203.749a32.12 32.12 0 0 1 .471-3.032 27.782 27.782 0 0 0-1.077 3.428c-.609.4-1.219.82-1.825 1.258.003-.711.197-3.016.197-3.016s-1.076 2.953-1.196 3.756c-1.38 1.024-1.867 1.475-3.118 2.651-.186-1.05-.904-3.905-.904-3.905s-.227 3.722-.168 4.915c-.785.759-1.138 1.143-1.842 1.908-.206-.727-1.074-3.343-1.074-3.343s.205 3.34.333 4.163c-.722.79-3.391 3.834-4.724 5.026-.228.201-.605-2.853-.605-2.853s-.368 3.478-.475 3.511c-.113.035-1.117-.049-1.237-.111 3.284-10.51 11.456-17.701 22.083-19.764-1.048.818-3.418 4.53-3.636 4.659z"/><path fill="#263D00" d="M26.18 23.286c.215-1.442.54-2.876.973-4.295.098-.037.194-.072.29-.106a28.187 28.187 0 0 0-1.263 4.401zm2.52-1.405c.347-1.392.804-2.77 1.375-4.119.102-.026.206-.051.308-.078a26.822 26.822 0 0 0-1.683 4.197zm-5.082 2.871c.066-1.489.232-2.982.509-4.47.092-.046.182-.094.271-.14a30.962 30.962 0 0 0-.78 4.61zm-2.047 1.712a35.024 35.024 0 0 1 .064-4.589 6.81 6.81 0 0 0 .249-.169 33.627 33.627 0 0 0-.313 4.758zm-2.339 2.489a40.168 40.168 0 0 1-.78-4.748c.069-.073.137-.149.207-.222.08 1.683.278 3.341.573 4.97zm-2.648 3.389a41.733 41.733 0 0 1-1.03-4.74c.063-.08.126-.159.188-.241.176 1.692.458 3.355.842 4.981zm-2.989 3.12a39.13 39.13 0 0 1-.543-4.246l.159-.283m10.736-14.6a44.827 44.827 0 0 1 4.743 1.899c.098-.035.197-.067.295-.099a43.479 43.479 0 0 0-5.038-1.8zm-4.299 2.307c1.638.389 3.239.871 4.799 1.441.091-.045.185-.088.277-.132a41.363 41.363 0 0 0-5.076-1.309zm-3.558 2.339a39.88 39.88 0 0 1 4.813.967c.082-.057.17-.109.255-.164a37.17 37.17 0 0 0-5.068-.803zm-3.452 4.216a34.143 34.143 0 0 1 4.703.042c.068-.072.14-.145.211-.217a32.928 32.928 0 0 0-4.914.175zM10.579 28.5a30.846 30.846 0 0 1 4.567-.507c.059-.08.117-.165.18-.245a30.443 30.443 0 0 0-4.747.752zm-.922 3.767s2.578-1.499 3.935-1.833c.058-.091.111-.185.168-.275-1.419.409-4.103 2.108-4.103 2.108z" opacity=".25"/><path fill="#70A61B" d="M10.545 37.002c3.365-12.487 12.563-17.844 21.504-19.917.757-.135.866.243.263.374-7.983 2.006-16.865 6.041-21.767 19.543z"/><linearGradient id="a" x1="39.44" x2="34.036" y1="41.23" y2="42.612" gradientUnits="userSpaceOnUse"><stop offset="0" style="stop-color:#735628"/><stop offset=".393" style="stop-color:#8f6f40"/><stop offset=".742" style="stop-color:#a07f4f"/><stop offset="1" style="stop-color:#a68554"/></linearGradient><path fill="url(#a)" d="M46.126 62.435c0 2.087-7.271 2.087-7.271 0 0-8.21-8.51-30.357-8.51-41.762 0-1.952 5.386-1.952 5.386 0 0 11.404 10.395 33.552 10.395 41.762z"/><path fill="#CFB092" d="M45.411 57.52c1.316 3.008-6.477 3.672-6.849 1.689.475 1.189 6.543 1.385 6.849-1.689zm-8.059-4.206c-.331 3.34 7.258 1.899 6.783-.522-.107 2.091-5.9 3.267-6.783.522zm-2.767-10.62c-.329 3.339 6.638 1.925 6.163-.497-.105 2.091-5.276 3.241-6.163.497zm-2.419-9.606c-.33 3.341 6.222 2.273 5.747-.148-.106 2.091-4.863 2.892-5.747.148zm10.303 14.391c1.316 3.007-5.874 3.355-6.245 1.372.474 1.19 5.939 1.702 6.245-1.372zm-3.321-10.33c1.316 3.007-5.305 3.282-5.675 1.298.475 1.19 5.369 1.776 5.675-1.298zm-2.657-10.046c1.317 3.007-5.335 3.216-5.706 1.231.475 1.191 5.4 1.842 5.706-1.231z"/><path fill="#92C932" d="M52.507 32.562c-.93-.438-3.665-1.857-3.665-1.857s2.6.522 3.518.756c-.249-1.958-1.403-4.87-2.898-7.224a33.461 33.461 0 0 0-3.612-.419 39.291 39.291 0 0 1 3.225-.144 20.551 20.551 0 0 0-5.321-5.127l-5.001.296s2.668-.789 3.758-1.028c-.264-.161-2.299-1.18-2.972-1.434-1.5.274-2.981.625-4.432 1.042a51.94 51.94 0 0 1 3.376-1.31c-1.322-.045-3.651.607-6.497.925 9.398 2.851 16.064 9.817 18.316 19.254a11.159 11.159 0 0 1 1.226 1.515c-.016-.021.344-.392.526-.909l-1.671-2.246 1.921 1.477c.245-.971.326-2.188.203-3.567z"/><path fill="#7AB51D" d="M34.872 21.914c.352.272.708.555 1.067.844.04-.992.03-1.986-.026-2.982.267 1.137.454 2.281.565 3.427.537.447 1.072.916 1.602 1.4.1-.688.236-2.94.236-2.94s.635 2.969.635 3.759c1.204 1.128 1.617 1.616 2.672 2.879.328-1 1.438-3.693 1.438-3.693s-.31 3.627-.536 4.778c.66.813.949 1.221 1.527 2.032.305-.683 1.526-3.129 1.526-3.129s-.676 3.212-.917 3.997c.592.837 2.768 4.053 3.901 5.341.192.219.994-2.703.994-2.703s-.134 3.404-.034 3.447c.105.045 1.098.064 1.224.016-1.712-10.507-8.676-18.288-18.763-21.348.908.896 2.696 4.727 2.889 4.875z"/><path fill="#263D00" d="M37.426 23.537a28.637 28.637 0 0 0-.342-4.255c-.091-.043-.18-.089-.268-.133.326 1.454.527 2.922.61 4.388zm-2.265-1.61a26.16 26.16 0 0 0-.759-4.127l-.289-.107a24.895 24.895 0 0 1 1.048 4.234zm4.558 3.286a31.15 31.15 0 0 0 .136-4.378 51.232 51.232 0 0 1-.243-.163c.155 1.517.186 3.036.107 4.541zm1.754 1.865a33.71 33.71 0 0 0 .589-4.451 13.554 13.554 0 0 0-.22-.188 32.138 32.138 0 0 1-.369 4.639zm1.933 2.643a40.225 40.225 0 0 0 1.435-4.518c-.056-.08-.111-.159-.168-.237a38.024 38.024 0 0 1-1.267 4.755zm2.106 3.545a41.608 41.608 0 0 0 1.678-4.485l-.148-.251a40.059 40.059 0 0 1-1.53 4.736zm2.475 3.323a38.59 38.59 0 0 0 1.134-4.059c-.037-.098-.077-.192-.115-.289m-8.414-15.214a46.811 46.811 0 0 0-4.901 1.364l-.275-.125a45.315 45.315 0 0 1 5.176-1.239zm3.874 2.665c-1.657.212-3.291.52-4.894.917a8.098 8.098 0 0 0-.252-.155 41.871 41.871 0 0 1 5.146-.762zm3.142 2.621a40.573 40.573 0 0 0-4.839.454 5.849 5.849 0 0 0-.227-.183 37.756 37.756 0 0 1 5.066-.271zm2.773 4.427a33.813 33.813 0 0 0-4.601-.428 15.624 15.624 0 0 0-.175-.23c1.596.101 3.194.317 4.776.658zm1.544 3.408a30.5 30.5 0 0 0-4.39-.948c-.049-.083-.096-.171-.143-.254 1.529.277 3.045.676 4.533 1.202zm.362 3.739s-2.304-1.709-3.582-2.168l-.125-.283c1.327.539 3.707 2.451 3.707 2.451z" opacity=".25"/><path fill="#70A61B" d="M50.747 38.385c-1.513-12.431-9.735-18.537-18.178-21.438-.718-.207-.879.148-.306.334 7.511 2.742 15.614 7.539 18.484 21.104z"/><path fill="#92C932" d="M57.927 13.75c-.973.34-3.921 1.25-3.921 1.25s2.209-1.448 3.025-1.923c-1.581-1.208-4.488-2.456-7.233-3.075a33.528 33.528 0 0 0-2.852 2.227 37.664 37.664 0 0 1 2.172-2.354 20.938 20.938 0 0 0-7.438.098c-.864.962-3.317 3.702-3.317 3.702s1.316-2.419 1.915-3.35c-.303.069-2.472.773-3.128 1.063a44.129 44.129 0 0 0-2.38 3.831c.438-1.106.919-2.2 1.443-3.283-.968.892-2.143 2.981-3.925 5.191 8.684-4.552 18.392-4.292 26.759.798 1.116.029 1.953.213 1.953.213-.026-.002-.037-.517-.281-1.008l-2.791-.419 2.414-.298c-.522-.857-1.339-1.773-2.415-2.663z"/><path fill="#7AB51D" d="M37.83 18.552c.443-.052.899-.102 1.359-.15a30.842 30.842 0 0 0-2.16-2.085 26.704 26.704 0 0 1 2.859 2.025 43.353 43.353 0 0 1 2.138-.131c-.425-.556-1.944-2.242-1.944-2.242s2.577 1.654 3.146 2.21c1.659-.044 2.302.01 3.952.167-.484-.935-1.635-3.612-1.635-3.612s2.387 2.777 3.052 3.748c1.051.112 1.547.198 2.537.367-.274-.696-1.169-3.275-1.169-3.275s1.83 2.74 2.223 3.463c1.02.177 4.863.929 6.589 1.045.292.019-1.238-2.604-1.238-2.604s2.352 2.498 2.451 2.458c.107-.042.822-.721.874-.844-8.753-6.221-19.256-6.85-28.576-1.965 1.285.002 5.299 1.456 5.542 1.425z"/><path fill="#263D00" d="M40.798 17.917a29.268 29.268 0 0 0-3.296-2.767l-.285.094a27.42 27.42 0 0 1 3.581 2.673zm-2.754.443a26.903 26.903 0 0 0-3.499-2.383l-.281.127a25.71 25.71 0 0 1 3.78 2.256zm5.577-.862a31.814 31.814 0 0 0-3.048-3.188c-.096.021-.192.038-.288.056a30.197 30.197 0 0 1 3.336 3.132zm2.577.089a34.502 34.502 0 0 0-2.779-3.554l-.291.021a32.728 32.728 0 0 1 3.07 3.533zm3.263.517a40.066 40.066 0 0 0-2.231-4.193c-.097-.017-.192-.034-.288-.048a38.315 38.315 0 0 1 2.519 4.241zm4.033 1.034a41.737 41.737 0 0 0-2.037-4.342l-.286-.073a39.587 39.587 0 0 1 2.323 4.415zm4.134.614a38.707 38.707 0 0 0-2.115-3.658l-.289-.123m-16.865-4.863a45.298 45.298 0 0 0-2.482 4.388 9.469 9.469 0 0 0-.281.104 43.593 43.593 0 0 1 2.763-4.492zm4.649-.825a41.781 41.781 0 0 0-2.797 4.065 15.12 15.12 0 0 0-.29.066 40.846 40.846 0 0 1 3.087-4.131zm4.101-.345a39.67 39.67 0 0 0-3.091 3.702c-.097.006-.195.019-.292.029a36.497 36.497 0 0 1 3.383-3.731zm5.136 1.189a33.301 33.301 0 0 0-3.556 2.911c-.095-.015-.192-.027-.29-.042a32.19 32.19 0 0 1 3.846-2.869zm3.535 1.327a30.075 30.075 0 0 0-3.779 2.398c-.093-.027-.188-.056-.283-.081a29.287 29.287 0 0 1 4.062-2.317zm2.944 2.386s-2.855.404-4.087.973c-.099-.038-.194-.077-.292-.112 1.324-.549 4.379-.861 4.379-.861z" opacity=".25"/><path fill="#70A61B" d="M60.864 19.092c-9.994-7.719-20.184-6.286-28.226-2.438-.656.356-.515.719.022.452 7.273-3.312 16.439-5.587 28.204 1.986z"/><path fill="#92C932" d="M24.229 41.73c.531-.908 2.018-3.694 2.018-3.694s-1.876 1.931-2.508 2.655c-.887-1.839-1.552-5.021-1.623-7.91a34.247 34.247 0 0 1 2.777-2.419 38.394 38.394 0 0 0-2.769 1.709c.07-2.535.621-5.122 1.57-7.473l4.339-2.586s-2.665.833-3.709 1.246c.128-.291 1.258-2.331 1.677-2.935a44.274 44.274 0 0 1 4.279-1.616 49.63 49.63 0 0 0-3.551.784c1.079-.792 3.389-1.55 5.939-2.893-6.248 7.817-7.911 17.647-4.512 27.112-.192 1.129-.177 2.01-.177 2.01.004-.025-.508-.145-.946-.488l.136-2.896-.773 2.37c-.748-.699-1.496-1.708-2.167-2.976z"/><path fill="#7AB51D" d="M32.986 22.47c-.139.437-.278.885-.418 1.341a32.541 32.541 0 0 1-1.645-2.604 27.66 27.66 0 0 0 1.444 3.294 48.21 48.21 0 0 0-.554 2.128c-.467-.542-1.841-2.417-1.841-2.417s1.131 2.934 1.571 3.62c-.372 1.664-.444 2.32-.618 4.016-.832-.679-3.265-2.383-3.265-2.383s2.288 2.97 3.119 3.835c-.097 1.082-.109 1.599-.139 2.631-.637-.418-3.022-1.846-3.022-1.846s2.36 2.402 2.999 2.945c-.024 1.063-.039 5.088-.267 6.85-.038.298-2.342-1.777-2.342-1.777s2.018 2.876 1.958 2.97c-.064.099-.881.679-1.012.708-4.447-10.085-2.993-20.79 3.713-29.18-.252 1.292.399 5.631.319 5.869z"/><path fill="#263D00" d="M31.766 25.33a30.542 30.542 0 0 1-2.095-3.884l.149-.267a28.485 28.485 0 0 0 1.946 4.151zm.988-2.684a27.91 27.91 0 0 1-1.677-4.009c.061-.085.123-.17.183-.256a26.665 26.665 0 0 0 1.494 4.265zm-1.963 5.442a32.575 32.575 0 0 1-2.565-3.72c.042-.094.077-.188.114-.28a31.008 31.008 0 0 0 2.451 4zm-.424 2.614a35.483 35.483 0 0 1-2.98-3.524c.029-.095.054-.192.078-.289a33.788 33.788 0 0 0 2.902 3.813zm-.132 3.392a41.42 41.42 0 0 1-3.726-3.103c.003-.1.004-.201.009-.3a39.176 39.176 0 0 0 3.717 3.403zm.227 4.271a42.577 42.577 0 0 1-3.911-2.936l-.016-.305a40.188 40.188 0 0 0 3.927 3.241zm-.207 4.289a40.036 40.036 0 0 1-3.217-2.875l-.066-.317m-1.489-17.976a45.07 45.07 0 0 1 4.852-1.604l.159-.266a44.188 44.188 0 0 0-5.011 1.87zm-1.74 4.512a42.747 42.747 0 0 1 4.593-1.987c.039-.094.083-.185.124-.279a41.283 41.283 0 0 0-4.717 2.266zm-1.158 4.063a39.47 39.47 0 0 1 4.292-2.358c.026-.097.058-.192.087-.288a36.575 36.575 0 0 0-4.379 2.646zm.165 5.414a33.309 33.309 0 0 1 3.598-2.987c.004-.098.01-.2.016-.301a32.359 32.359 0 0 0-3.614 3.288zm.617 3.832a30.243 30.243 0 0 1 3.133-3.318c-.008-.1-.019-.201-.024-.303a29.932 29.932 0 0 0-3.109 3.621zm1.788 3.45s.966-2.794 1.777-3.919c-.018-.105-.039-.213-.056-.316-.806 1.221-1.721 4.235-1.721 4.235z" opacity=".25"/><path fill="#70A61B" d="M28.957 45.779c-5.69-11.639-2.246-21.608 3.172-28.925.484-.587.817-.372.446.116-4.733 6.649-8.813 15.416-3.618 28.809z"/></svg>