<svg xmlns="http://www.w3.org/2000/svg" xml:space="preserve" viewBox="0 0 64 64"><path fill="#96C908" d="M25.582 38.456c-.232-1.34-3.5 1.285-6.525 11.926.745-23.303 4.363-26.962 3.438-26.464-2.383 1.286-6.938 11.24-5.742 38.081 1.352.006 2.707-.096 3.73-.303.631-21.166 5.484-21.021 5.099-23.24z"/><path fill="#529320" d="M45.18 48.668s-26.264-20.97-26.313 13.249c1.772-.151 3.194-.514 3.316-1.086C20.688 32.458 45.18 48.668 45.18 48.668z"/><path fill="#FFE12C" d="M19.68 29.583c1.686.783 5.859-2.871 3.58-2.961.324-1.808-3.856 1.238-3.58 2.961z"/><path fill="#F9C802" d="M22.74 26.943c1.682.784 5.859-2.871 3.578-2.96.325-1.809-3.857 1.237-3.578 2.96z"/><path fill="#F9C802" d="M23.852 23.944c1.875.151 4.313-4.678 2.154-3.979-.412-1.793-3.094 2.472-2.154 3.979zm3.296-6.193c1.877.151 4.314-4.678 2.156-3.979-.411-1.793-3.093 2.472-2.156 3.979zm5.306-5.451c1.769.6 5.472-3.473 3.194-3.321.102-1.831-3.679 1.638-3.194 3.321zm10.23-5.091c1.768.6 5.47-3.472 3.193-3.321.102-1.83-3.68 1.639-3.193 3.321z"/><path fill="#F9C802" d="M30.457 15.052c1.504 1.054 6.32-1.837 4.094-2.31.67-1.724-4.033.569-4.094 2.31zM37 10.856c1.502 1.054 6.319-1.837 4.092-2.31.67-1.724-4.029.568-4.092 2.31zM52.167 5.56c.796 1.587 6.505 1.14 4.778-.25 1.46-1.23-3.847-1.261-4.778.25zm-4.075.357c1.504 1.054 6.318-1.837 4.094-2.31.669-1.725-4.033.568-4.094 2.31zM26.799 22.958c1.684.784 5.861-2.871 3.58-2.96.324-1.809-3.858 1.237-3.58 2.96z"/><path fill="#FFEA66" d="M26.061 20.834c1.686.784 5.859-2.871 3.578-2.96.324-1.809-3.854 1.237-3.578 2.96zM43.945 7.383c1.219 1.335 6.6-.502 4.539-1.417 1.059-1.545-4.068-.27-4.539 1.417zM33.014 18.071c1.684.783 5.859-2.871 3.578-2.961.324-1.808-3.856 1.238-3.578 2.961zm5.5-1.829c1.297 1.271 6.561-.837 4.449-1.646.969-1.596-4.076-.062-4.449 1.646zm-2.862-6.026c1.682.784 5.86-2.87 3.578-2.961.325-1.807-3.857 1.238-3.578 2.961zm-9.513 15.242c1.684.783 5.859-2.871 3.578-2.961.324-1.808-3.856 1.238-3.578 2.961z"/><path fill="#F9C802" d="M32.025 20.52c1.684.784 5.859-2.871 3.578-2.96.325-1.809-3.855 1.236-3.578 2.96zm5.508-4.874c1.682.783 5.857-2.871 3.578-2.961.323-1.808-3.857 1.238-3.578 2.961zm6.485-2.786c1.375 1.196 6.494-1.206 4.332-1.895.863-1.648-4.075.17-4.332 1.895z"/><path fill="#FFEA66" d="M49.938 11.606c.89 1.545 6.565.81 4.759-.491 1.387-1.3-3.914-1.064-4.759.491z"/><path fill="#FFE12C" d="M53.967 11.151c.887 1.545 6.563.81 4.756-.49 1.388-1.301-3.912-1.065-4.756.49zm-29.66 13.806c1.684.784 5.857-2.871 3.58-2.96.324-1.809-3.858 1.237-3.58 2.96zm3.836-6.886c1.686.783 5.859-2.871 3.58-2.961.324-1.808-3.856 1.238-3.58 2.961zm5.212-5.132c1.42 1.151 6.443-1.411 4.262-2.031.801-1.675-4.066.299-4.262 2.031z"/><path fill="#FFE12C" d="M28.916 22.578c1.436 1.133 6.422-1.496 4.229-2.086.777-1.686-4.061.351-4.229 2.086zm5.953-4.356c1.436 1.133 6.422-1.496 4.229-2.086.775-1.685-4.059.351-4.229 2.086zm-13.681 8.477c1.813.474 5.17-3.848 2.912-3.535-.047-1.833-3.534 1.892-2.912 3.535zm4.664-5.883c1.875-.154 3.373-5.304 1.381-4.268-.743-1.698-2.587 2.936-1.381 4.268zm3.877-5.866c1.813.474 5.172-3.848 2.916-3.535-.051-1.833-3.538 1.892-2.916 3.535zm9.32-6.582c1.625.882 6.043-2.516 3.775-2.741.446-1.786-3.933 1.006-3.775 2.741zm1.603 5.99c1.627.882 6.045-2.516 3.775-2.741.448-1.786-3.931 1.006-3.775 2.741z"/><path fill="#FFE12C" d="M40.854 8.484c1.145 1.39 6.617-.189 4.611-1.201 1.142-1.492-4.051-.461-4.611 1.201zm1.533 5.91c1.145 1.39 6.616-.189 4.609-1.201 1.143-1.493-4.049-.462-4.609 1.201zm6.127-7.67c1.145 1.39 6.617-.189 4.609-1.2 1.141-1.494-4.049-.462-4.609 1.2z"/><path fill="#FFE12C" d="M46.596 12.315c.631 1.651 6.36 1.713 4.785.177 1.577-1.094-3.703-1.598-4.785-.177z"/><path fill="#F9C802" d="M51.674 10.047c1.061 1.448 6.617.149 4.674-.962 1.228-1.432-4.018-.668-4.674.962z"/><path fill="#FFE12C" d="M45.264 5.732c1.406 1.165 6.459-1.346 4.283-1.987.82-1.668-4.068.257-4.283 1.987zm7.07-1.105c1.406 1.166 6.461-1.346 4.287-1.987.817-1.668-4.068.257-4.287 1.987z"/><path fill="#FFE12C" d="M55.461 4.379c.738 1.613 6.463 1.344 4.785-.098 1.506-1.185-3.797-1.381-4.785.098zM30.025 20.18c1.811.474 5.172-3.848 2.914-3.535-.048-1.834-3.535 1.892-2.914 3.535zm5.688-3.627c1.813.474 5.17-3.848 2.912-3.535-.047-1.834-3.533 1.892-2.912 3.535zm11.961-5.117c1.406 1.164 6.461-1.348 4.283-1.989.818-1.667-4.07.258-4.283 1.989z"/><path fill="#F9C802" d="M23.938 41.661c1.674.799 5.891-2.814 3.609-2.926.346-1.805-3.869 1.201-3.609 2.926z"/><path fill="#F9C802" d="M25.088 38.622c1.873.17 4.365-4.635 2.199-3.959-.392-1.796-3.122 2.443-2.199 3.959zm3.367-6.16c1.873.17 4.365-4.636 2.199-3.959-.392-1.795-3.119 2.443-2.199 3.959zm5.365-5.4c1.762.618 5.508-3.419 3.229-3.29.125-1.83-3.695 1.603-3.229 3.29zm10.284-4.99c1.762.616 5.51-3.42 3.232-3.29.121-1.831-3.697 1.602-3.232 3.29z"/><path fill="#F9C802" d="M31.791 29.795c1.494 1.067 6.34-1.776 4.121-2.27.688-1.718-4.037.53-4.121 2.27zm6.59-4.132c1.49 1.068 6.338-1.776 4.12-2.27.688-1.719-4.038.528-4.12 2.27zm15.226-5.149c.775 1.595 6.49 1.203 4.779-.204 1.475-1.217-3.831-1.3-4.779.204zm-4.079.316c1.489 1.069 6.341-1.775 4.118-2.27.692-1.717-4.037.529-4.118 2.27zM28.045 37.665c1.676.799 5.893-2.816 3.613-2.926.344-1.804-3.869 1.199-3.613 2.926z"/><path fill="#FFEA66" d="M27.332 35.533c1.676.801 5.891-2.813 3.611-2.925.346-1.804-3.867 1.202-3.611 2.925zm18.031-13.277c1.205 1.348 6.605-.438 4.557-1.373 1.078-1.532-4.066-.309-4.557 1.373zM34.314 32.838c1.676.8 5.891-2.813 3.611-2.925.346-1.806-3.868 1.2-3.611 2.925zm5.524-1.775c1.279 1.282 6.568-.774 4.465-1.603.986-1.586-4.076-.102-4.465 1.603zm-2.799-6.053c1.674.799 5.891-2.814 3.611-2.925.344-1.806-3.869 1.198-3.611 2.925zm-9.68 15.148c1.674.8 5.891-2.813 3.609-2.925.346-1.804-3.866 1.2-3.609 2.925z"/><path fill="#F9C802" d="M33.299 35.278c1.676.799 5.891-2.814 3.611-2.927.344-1.805-3.867 1.201-3.611 2.927zm5.56-4.82c1.674.8 5.893-2.813 3.612-2.925.345-1.806-3.869 1.198-3.612 2.925zm6.518-2.723c1.361 1.208 6.506-1.145 4.354-1.854.878-1.638-4.077.131-4.354 1.854z"/><path fill="#FFEA66" d="M51.311 26.539c.871 1.553 6.555.873 4.764-.444 1.402-1.289-3.901-1.104-4.764.444z"/><path fill="#FFE12C" d="M55.344 26.122c.871 1.554 6.553.873 4.764-.443 1.398-1.289-3.905-1.104-4.764.443zM25.531 39.64c1.674.8 5.891-2.814 3.609-2.926.346-1.805-3.867 1.201-3.609 2.926zm3.914-6.849c1.676.8 5.891-2.813 3.611-2.926.344-1.804-3.868 1.2-3.611 2.926zm5.272-5.081c1.404 1.165 6.457-1.348 4.281-1.988.818-1.667-4.068.257-4.281 1.988z"/><path fill="#FFE12C" d="M30.164 37.306c1.424 1.146 6.439-1.433 4.256-2.046.793-1.677-4.065.312-4.256 2.046zm6.004-4.297c1.422 1.146 6.438-1.434 4.253-2.047.794-1.676-4.064.312-4.253 2.047zm-13.449 8.017c1.807.492 5.213-3.797 2.953-3.506-.027-1.834-3.555 1.859-2.953 3.506zm4.402-5.511c1.879-.136 3.434-5.271 1.43-4.254-.723-1.706-2.617 2.91-1.43 4.254zm3.943-5.829c1.807.491 5.217-3.798 2.955-3.507-.027-1.834-3.558 1.857-2.955 3.507zm9.395-6.491c1.615.896 6.068-2.459 3.803-2.705.468-1.782-3.944.968-3.803 2.705zm1.537 6.005c1.616.898 6.072-2.459 3.805-2.705.467-1.782-3.945.969-3.805 2.705z"/><path fill="#FFE12C" d="M42.262 23.328c1.129 1.401 6.619-.125 4.625-1.156 1.158-1.482-4.045-.501-4.625 1.156zm1.465 5.924c1.131 1.401 6.619-.125 4.623-1.156 1.16-1.482-4.043-.5-4.623 1.156zm6.211-7.61c1.13 1.401 6.619-.126 4.624-1.156 1.161-1.483-4.042-.501-4.624 1.156z"/><path fill="#FFE12C" d="M47.961 27.215c.611 1.657 6.338 1.773 4.781.223 1.591-1.079-3.683-1.634-4.781-.223z"/><path fill="#F9C802" d="M53.063 24.996c1.045 1.458 6.617.213 4.686-.917 1.245-1.42-4.011-.707-4.686.917z"/><path fill="#FFE12C" d="M46.701 20.618c1.394 1.179 6.475-1.282 4.307-1.944.837-1.66-4.07.216-4.307 1.944zm7.084-1.035c1.391 1.178 6.475-1.284 4.307-1.945.839-1.66-4.071.216-4.307 1.945z"/><path fill="#FFE12C" d="M56.916 19.364c.717 1.62 6.444 1.406 4.783-.051 1.521-1.17-3.781-1.418-4.783.051zM31.303 34.918c1.807.491 5.215-3.797 2.953-3.507-.029-1.833-3.555 1.86-2.953 3.507zm5.726-3.571c1.807.49 5.215-3.798 2.955-3.507-.027-1.834-3.558 1.857-2.955 3.507zm12.018-5.002c1.395 1.178 6.475-1.286 4.307-1.948.837-1.657-4.071.22-4.307 1.948z"/><path fill="#96C908" d="m11.506 60.745.003.006c0 .635 1.555 1.027 3.477 1.178C13.871 27.496 2 2 2 2s7.134 24.806 9.506 58.745z"/><path fill="#7AB51D" d="M25.502 5.407S13.574 27.542 13.513 61.751c.967.168 2.176.251 3.383.249-2.238-30.001 8.606-56.593 8.606-56.593z"/></svg>