<svg xmlns="http://www.w3.org/2000/svg" xml:space="preserve" viewBox="0 0 64 64"><path fill="#7AB51D" d="M33.951 40.619C48.893 57.604 63 38.111 63 38.111s-20.352-6.84-29.049 2.508z"/><path fill="#92C932" d="M33.735 38.951C44.414 32.308 63 38.111 63 38.111s-22.116-22.596-29.265.84z"/><path fill="#529320" d="M31.727 40.348c-2.103 2.16-1.896 5.961.484 2.754C40.09 32.48 58.137 37.09 63 38.111c-4.688-1.347-21.677-7.62-31.273 2.237z"/><linearGradient id="a" x1="26.625" x2="32.584" y1="50.565" y2="50.565" gradientUnits="userSpaceOnUse"><stop offset="0" style="stop-color:#677339"/><stop offset=".302" style="stop-color:#647037"/><stop offset=".535" style="stop-color:#5a6632"/><stop offset=".745" style="stop-color:#4a562a"/><stop offset=".94" style="stop-color:#333f1e"/><stop offset="1" style="stop-color:#2a361a"/></linearGradient><path fill="url(#a)" d="M30.166 39.834c-.462-1.543-3.136-.473-2.262 2.463 1.313 4.408.572 14.971-1.236 18.896-.532 1.15 4.078 1.061 4.198-.207.871-9.219-.291-15.473 1.58-17.826.756-.949-1.839-1.857-2.28-3.326z"/><path fill="#7AB51D" d="M25.635 32.308C1 42.619 1 8 1 8s16.658 11.118 24.635 24.308z"/><path fill="#92C932" d="M25.635 32.308C20.313 21.085 1 8 1 8s33.297 0 24.635 24.308z"/><path fill="#529320" d="M29.585 39.283C24.718 23.359 5.986 11.025 1 8c5.06 3.479 24.635 20.86 26.948 33.633.102.556 2.187-.551 1.637-2.35z"/></svg>