<svg xmlns="http://www.w3.org/2000/svg" xml:space="preserve" style="enable-background:new 0 0 64 64" viewBox="0 0 64 64"><path d="M22.57 42.43c5.06 15.21-15.72 13.6-15.72 13.6s8.25-11.83 15.72-13.6z" style="fill:#7ac700"/><path d="M22.57 42.43c-6.98 2.66-15.72 13.6-15.72 13.6s1.53-19.91 15.72-13.6z" style="fill:#90e300"/><path d="M35.8 39.86C25.77 56.39 45.79 61 45.79 61s-3.6-16.69-9.99-21.14z" style="fill:#7ac700"/><path d="M35.8 39.86C41.41 45.22 45.79 61 45.79 61s5.5-24.19-9.99-21.14z" style="fill:#90e300"/><path d="M41.5 28.67c11.63 12.4 20.5-7.1 20.5-7.1s-15.13 1.3-20.5 7.1z" style="fill:#7ac700"/><path d="M41.5 28.67c5.96-4.9 20.5-7.1 20.5-7.1s-19.29-8.91-20.5 7.1z" style="fill:#90e300"/><linearGradient id="a" x1="32.803" x2="26.313" y1="30.757" y2="58.157" gradientUnits="userSpaceOnUse"><stop offset=".067" style="stop-color:#820036"/><stop offset=".081" style="stop-color:#87033b"/><stop offset=".21" style="stop-color:#b21f64"/><stop offset=".335" style="stop-color:#d33584"/><stop offset=".453" style="stop-color:#eb459b"/><stop offset=".563" style="stop-color:#fa4fa9"/><stop offset=".654" style="stop-color:#ff52ae"/></linearGradient><path d="M32.58 30.84c6.05 3.02 13.21 14.44 5.34 23.23-.46 4.56-5.55 5.02-5.55 5.02s-2.82 2.28-6.73.11c-4.67-.7-5.11-3.94-5.11-3.94s-3.29-2.16-2.79-5.74C14.13 40.5 25 34.48 32.58 30.84z" style="fill:url(#a)"/><linearGradient id="b" x1="32.806" x2="3.86" y1="30.641" y2="35.911" gradientUnits="userSpaceOnUse"><stop offset=".067" style="stop-color:#820036"/><stop offset=".081" style="stop-color:#87033b"/><stop offset=".21" style="stop-color:#b21c62"/><stop offset=".335" style="stop-color:#d33082"/><stop offset=".453" style="stop-color:#eb3e98"/><stop offset=".563" style="stop-color:#fa47a5"/><stop offset=".654" style="stop-color:#ff4aaa"/></linearGradient><path d="M32.64 30.9c.35 6.62-8.18 17.06-20.75 15.41 0 0-4.5 1.11-6.02-3.46 0 0-3.87-1.87-2.82-6.73-2.88-6.08 1.09-8.7 1.09-8.7.97-3.67 5.14-4.21 5.14-4.21 6.83-5.66 17 2.11 23.36 7.69z" style="fill:url(#b)"/><linearGradient id="c" x1="33.234" x2="16.91" y1="30.338" y2="5.853" gradientUnits="userSpaceOnUse"><stop offset=".067" style="stop-color:#820036"/><stop offset=".081" style="stop-color:#87033b"/><stop offset=".21" style="stop-color:#b21961"/><stop offset=".335" style="stop-color:#d32b7f"/><stop offset=".453" style="stop-color:#eb3894"/><stop offset=".563" style="stop-color:#fa3fa2"/><stop offset=".654" style="stop-color:#ff42a6"/></linearGradient><path d="M32.62 30.84c3.04-7.4 5.26-20.47-2.51-25.19C27.63 1.74 22.9 3.3 22.9 3.3c-5.25-.58-6.6 3.08-6.6 3.08-4.15.94-4.4 6.13-4.4 6.13-2.02 4.11.33 6.51.33 6.51 2.57 9.95 14.21 13.14 20.39 11.82z" style="fill:url(#c)"/><linearGradient id="d" x1="-12.541" x2=".137" y1="29.282" y2="2.509" gradientTransform="rotate(9.069 -7.144 315.807)" gradientUnits="userSpaceOnUse"><stop offset=".067" style="stop-color:#820036"/><stop offset=".081" style="stop-color:#87033b"/><stop offset=".21" style="stop-color:#b21f64"/><stop offset=".335" style="stop-color:#d33584"/><stop offset=".453" style="stop-color:#eb459b"/><stop offset=".563" style="stop-color:#fa4fa9"/><stop offset=".654" style="stop-color:#ff52ae"/></linearGradient><path d="M31.95 31.53c11.1-.36 22.57-3.68 22.66-11.21 0 0 3.3-5.1-1.4-9.1 0 0-.66-4.11-4.87-4.4 0 0-2.73-3.58-7.43-1.71 0 0-4.79-1-6.77 3.16-6.76 5.32-6.23 18.52-2.19 23.26z" style="fill:url(#d)"/><linearGradient id="e" x1="32.35" x2="60.179" y1="31.456" y2="44.068" gradientUnits="userSpaceOnUse"><stop offset=".067" style="stop-color:#820036"/><stop offset=".081" style="stop-color:#87033b"/><stop offset=".21" style="stop-color:#b21961"/><stop offset=".335" style="stop-color:#d32b7f"/><stop offset=".453" style="stop-color:#eb3894"/><stop offset=".563" style="stop-color:#fa3fa2"/><stop offset=".654" style="stop-color:#ff42a6"/></linearGradient><path d="M32.58 30.75c4.23-6.87 18.2-6.95 23.41-1.77 4.71 1.86 3.84 6.24 3.84 6.24s3.16 3.65.01 7.82c-.2 5.69-4.85 6.41-4.85 6.41s-1.68 5.63-7.87 2.18c0 0-4.77-.57-5.87-4.46-.51-10.6-7.29-11.29-8.67-16.42z" style="fill:url(#e)"/><path d="M11.08 42.18c12.28.4 20.69-10.03 20.69-10.03s-8.52 12.82-20.69 10.03z" style="opacity:.2;fill:#820036"/><path d="M9.26 36.9c13.59 1.96 22.06-4.74 22.06-4.74S22.89 40.6 9.26 36.9z" style="opacity:.2;fill:#820036"/><path d="M9.59 30.77c11.48 2.72 21.97 1.21 21.97 1.21s-11 3.13-21.97-1.21zm4.71-19.65c2.77 12.94 14.97 19.24 14.97 19.24S14.73 24.52 14.3 11.12z" style="opacity:.2;fill:#820036"/><path d="M18.93 7.95c1.6 14.68 10.22 21.93 10.22 21.93s-10.3-6.79-10.22-21.93z" style="opacity:.2;fill:#820036"/><path d="M24.92 6.83c.32 12.66 4.47 23.27 4.47 23.27s-5.84-10.76-4.47-23.27zm9.62 44c3.91-8.72-1.51-18.04-1.51-18.04s7.2 10.15 1.51 18.04z" style="opacity:.2;fill:#820036"/><path d="M29.21 52.42c4.91-9.84 3.69-19.3 3.69-19.3s3.06 10.6-3.69 19.3z" style="opacity:.2;fill:#820036"/><path d="M25.46 48.32c5.43-7.41 7.37-15.44 7.37-15.44s-.85 8.91-7.37 15.44zm13.31-37.99c-7.84 5.41-6.46 18.14-6.46 18.14s-2.82-14.8 6.46-18.14z" style="opacity:.2;fill:#820036"/><path d="M44.89 12.7c-9.35 5.74-12.31 15.57-12.31 15.57s1.6-12.24 12.31-15.57z" style="opacity:.2;fill:#820036"/><path d="M46.88 19.28c-8.81 3.07-14.34 9.25-14.34 9.25s4.83-7.79 14.34-9.25zm5.11 18.66c-6.24-7.7-17.1-7.17-17.1-7.17s12.39-1.75 17.1 7.17z" style="opacity:.2;fill:#820036"/><path d="M55.94 33.72c-9.4-6.96-20.82-4.48-20.82-4.48s12.63-4.04 20.82 4.48zm-4.84 9.84c-6.82-9.14-15.98-12.5-15.98-12.5s11.01 2.23 15.98 12.5z" style="opacity:.2;fill:#820036"/><path d="M45.73 45.04C41.35 36.57 34.88 31 34.88 31s7.74 5 10.85 14.04z" style="opacity:.2;fill:#820036"/><path d="M16.83 12.85C29.86 25.84 31.24 33.23 33.19 31.8c.84-1.79-11.12-18.83-16.36-18.95z" style="fill:#fa5f7c"/><path d="M17.03 15.65c-.57 1.61-2.97.76-2.4-.86.57-1.61 2.97-.76 2.4.86zm2.44-3.56c-.57 1.61-2.97.76-2.4-.85.56-1.62 2.96-.76 2.4.85z" style="fill:#fae420"/><path d="M17.82 17.65c-.57 1.61-2.97.75-2.4-.86.57-1.61 2.97-.75 2.4.86z" style="fill:#fef970"/><path d="M19.06 15.32c-.53 1.52-2.8.72-2.27-.81.53-1.52 2.8-.71 2.27.81z" style="fill:#ffb5c2"/><path d="M19.11 13.07c-.54 1.54-2.84.73-2.29-.82.53-1.54 2.83-.73 2.29.82z" style="fill:#ffa1b1"/><path d="M21.07 19.59c-.68 1.92-3.53.9-2.85-1.01.67-1.92 3.52-.9 2.85 1.01z" style="fill:#fae420"/><path d="M21.99 18.57c-.57 1.61-2.97.76-2.4-.86.57-1.61 2.97-.76 2.4.86zm2.66 3.16c-.57 1.61-2.97.76-2.4-.86.57-1.61 2.97-.75 2.4.86zm-2.98-10.08c-.57 1.62-2.97.76-2.4-.86.57-1.61 2.97-.75 2.4.86z" style="fill:#fef970"/><path d="M20.91 14.1c-.57 1.62-2.97.76-2.4-.86.57-1.6 2.97-.75 2.4.86z" style="fill:#ffc2cc"/><path d="M24.1 18.99c-.57 1.62-2.97.76-2.4-.86.57-1.61 2.97-.75 2.4.86z" style="fill:#fae420"/><path d="M24.68 15.94c-.57 1.62-2.97.76-2.4-.85.56-1.62 2.96-.76 2.4.85z" style="fill:#fae420"/><path d="M17.57 14.08c-.57 1.62-2.97.76-2.4-.85.57-1.62 2.97-.76 2.4.85z" style="fill:#ffc2cc"/><path d="M23.28 16.94c-.57 1.61-2.97.76-2.4-.86.57-1.61 2.97-.76 2.4.86zm2.71 1.41c-.57 1.61-2.96.76-2.4-.86.56-1.61 2.96-.76 2.4.86zm-2.94 2.4c-.57 1.61-2.97.76-2.4-.85.56-1.62 2.96-.77 2.4.85z" style="fill:#ffdc82"/><path d="M23.85 13.51c-.66 1.88-3.44.88-2.79-.99.66-1.88 3.45-.89 2.79.99z" style="fill:#fae420"/><path d="M24.01 14.81c-.54 1.55-2.85.73-2.31-.82s2.86-.73 2.31.82zm3.54 5.42c-.55 1.55-2.85.73-2.31-.82.55-1.55 2.86-.73 2.31.82z" style="fill:#fef970"/><path d="M20.37 17.59c-.66 1.88-3.45.88-2.79-.99.67-1.88 3.45-.89 2.79.99z" style="fill:#ffdc82"/></svg>