<svg xmlns="http://www.w3.org/2000/svg" xml:space="preserve" viewBox="0 0 64 64"><radialGradient id="a" cx="278.607" cy="-330.141" r="9.083" gradientTransform="matrix(.9667 0 0 -.9689 -249.8 -295.6)" gradientUnits="userSpaceOnUse"><stop offset=".279" style="stop-color:#a6007c"/><stop offset=".465" style="stop-color:#a00078"/><stop offset=".704" style="stop-color:#91006c"/><stop offset=".969" style="stop-color:#770058"/><stop offset="1" style="stop-color:#730055"/></radialGradient><path fill="url(#a)" d="M30.331 26.195c0 11.735-17.561 11.735-17.561 0s17.561-11.735 17.561 0z"/><radialGradient id="b" cx="283.489" cy="-352.572" r="8.144" gradientTransform="matrix(.9667 0 0 -.9689 -249.8 -295.6)" gradientUnits="userSpaceOnUse"><stop offset=".279" style="stop-color:#a6007c"/><stop offset=".465" style="stop-color:#a00078"/><stop offset=".704" style="stop-color:#91006c"/><stop offset=".969" style="stop-color:#770058"/><stop offset="1" style="stop-color:#730055"/></radialGradient><path fill="url(#b)" d="M33.934 47.729c0 10.523-15.746 10.523-15.746 0 0-10.522 15.746-10.52 15.746 0z"/><radialGradient id="c" cx="297.316" cy="-357.114" r="8.973" gradientTransform="matrix(.9667 0 0 -.9689 -249.8 -295.6)" gradientUnits="userSpaceOnUse"><stop offset=".279" style="stop-color:#a6007c"/><stop offset=".465" style="stop-color:#a00078"/><stop offset=".704" style="stop-color:#91006c"/><stop offset=".969" style="stop-color:#770058"/><stop offset="1" style="stop-color:#730055"/></radialGradient><path fill="url(#c)" d="M48.286 52.307c0 11.592-17.346 11.592-17.346 0-.001-11.59 17.346-11.59 17.346 0z"/><radialGradient id="d" cx="277.321" cy="-344.441" r="8.078" gradientTransform="matrix(.9667 0 0 -.9689 -249.8 -295.6)" gradientUnits="userSpaceOnUse"><stop offset=".279" style="stop-color:#a6007c"/><stop offset=".465" style="stop-color:#a00078"/><stop offset=".704" style="stop-color:#91006c"/><stop offset=".969" style="stop-color:#770058"/><stop offset="1" style="stop-color:#730055"/></radialGradient><path fill="url(#d)" d="M27.892 39.837c0 10.436-15.616 10.436-15.616 0-.001-10.435 15.616-10.435 15.616 0z"/><radialGradient id="e" cx="300.74" cy="-330.465" r="7.997" gradientTransform="matrix(.9667 0 0 -.9689 -249.8 -295.6)" gradientUnits="userSpaceOnUse"><stop offset=".279" style="stop-color:#a6007c"/><stop offset=".465" style="stop-color:#a00078"/><stop offset=".704" style="stop-color:#91006c"/><stop offset=".969" style="stop-color:#770058"/><stop offset="1" style="stop-color:#730055"/></radialGradient><path fill="url(#e)" d="M50.433 26.28c0 10.333-15.461 10.333-15.461 0s15.461-10.333 15.461 0z"/><radialGradient id="f" cx="291.618" cy="-350.284" r="8.077" gradientTransform="matrix(.9667 0 0 -.9689 -249.8 -295.6)" gradientUnits="userSpaceOnUse"><stop offset=".279" style="stop-color:#a6007c"/><stop offset=".465" style="stop-color:#a00078"/><stop offset=".704" style="stop-color:#91006c"/><stop offset=".969" style="stop-color:#770058"/><stop offset="1" style="stop-color:#730055"/></radialGradient><path fill="url(#f)" d="M41.71 45.498c0 10.436-15.615 10.436-15.615 0 0-10.435 15.615-10.435 15.615 0z"/><path fill="#449C00" d="M15.89 13.529c2.005 6.857-2.29 11.195-1.926 12.601.196.76 1.325.637 1.629-.066.473-1.085 3.845-6.016 2.1-13.067l-1.803.532zm.606-4.566c4.904 5.186 10.805 3.645 11.834 4.667.553.551-.119 1.469-.878 1.38-1.171-.138-7.118.301-12.325-4.753l1.369-1.294z"/><path fill="#56AB15" d="M23.71 19.504c-6.414-6.509-7.547-10.825-8.126-15.677-.125-1.055-2.534-1.113-2.755-.11-.396 1.811 1.118 9.556 9.083 17.657l1.798-1.87z"/><path fill="#297024" d="M14.953 4.193c-.368.453-1.901.376-1.693-.293.291-.923 2.254-.398 1.693.293"/><radialGradient id="g" cx="299.538" cy="-320.685" r="8.569" gradientTransform="matrix(.9667 0 0 -.9689 -249.8 -295.6)" gradientUnits="userSpaceOnUse"><stop offset=".279" style="stop-color:#c09"/><stop offset=".425" style="stop-color:#c60095"/><stop offset=".612" style="stop-color:#b70089"/><stop offset=".82" style="stop-color:#9d0075"/><stop offset="1" style="stop-color:#800060"/></radialGradient><path fill="url(#g)" d="M49.951 16.924c0 11.069-16.565 11.069-16.565 0s16.565-11.069 16.565 0z"/><radialGradient id="h" cx="287.109" cy="-324.568" r="8.327" gradientTransform="matrix(.9667 0 0 -.9689 -249.8 -295.6)" gradientUnits="userSpaceOnUse"><stop offset=".279" style="stop-color:#c09"/><stop offset=".425" style="stop-color:#c60095"/><stop offset=".612" style="stop-color:#b70089"/><stop offset=".82" style="stop-color:#9d0075"/><stop offset="1" style="stop-color:#800060"/></radialGradient><path fill="url(#h)" d="M37.649 20.636c0 10.755-16.098 10.755-16.098 0 .001-10.757 16.098-10.757 16.098 0z"/><radialGradient id="i" cx="310.687" cy="-357.152" r="8.797" gradientTransform="matrix(.9667 0 0 -.9689 -249.8 -295.6)" gradientUnits="userSpaceOnUse"><stop offset=".279" style="stop-color:#c09"/><stop offset=".425" style="stop-color:#c60095"/><stop offset=".612" style="stop-color:#b70089"/><stop offset=".82" style="stop-color:#9d0075"/><stop offset="1" style="stop-color:#800060"/></radialGradient><path fill="url(#i)" d="M61 52.307c0 11.365-17.007 11.365-17.007 0S61 40.941 61 52.307z"/><radialGradient id="j" cx="268.894" cy="-336.444" r="9.597" gradientTransform="matrix(.9667 0 0 -.9689 -249.8 -295.6)" gradientUnits="userSpaceOnUse"><stop offset=".279" style="stop-color:#c09"/><stop offset=".425" style="stop-color:#c60095"/><stop offset=".612" style="stop-color:#b70089"/><stop offset=".82" style="stop-color:#9d0075"/><stop offset="1" style="stop-color:#800060"/></radialGradient><path fill="url(#j)" d="M21.552 32.411c0 12.397-18.552 12.397-18.552 0s18.552-12.397 18.552 0z"/><radialGradient id="k" cx="305.862" cy="-343.12" r="8.416" gradientTransform="matrix(.9667 0 0 -.9689 -249.8 -295.6)" gradientUnits="userSpaceOnUse"><stop offset=".279" style="stop-color:#c09"/><stop offset=".425" style="stop-color:#c60095"/><stop offset=".612" style="stop-color:#b70089"/><stop offset=".82" style="stop-color:#9d0075"/><stop offset="1" style="stop-color:#800060"/></radialGradient><path fill="url(#k)" d="M55.884 38.629c0 10.873-16.271 10.873-16.271 0-.001-10.874 16.271-10.874 16.271 0z"/><radialGradient id="l" cx="290.96" cy="-339.328" r="8.612" gradientTransform="matrix(.9667 0 0 -.9689 -249.8 -295.6)" gradientUnits="userSpaceOnUse"><stop offset=".279" style="stop-color:#c09"/><stop offset=".425" style="stop-color:#c60095"/><stop offset=".612" style="stop-color:#b70089"/><stop offset=".82" style="stop-color:#9d0075"/><stop offset="1" style="stop-color:#800060"/></radialGradient><path fill="url(#l)" d="M41.71 34.996c0 11.127-16.648 11.127-16.648 0 0-11.126 16.648-11.126 16.648 0z"/></svg>