<svg xmlns="http://www.w3.org/2000/svg" xml:space="preserve" viewBox="0 0 64 64"><path fill="#D4691E" d="M59.038 50.945c3.059.641 1.213-12.276-4.539-11.679 0 0-24.687 19.154-24.542 22.396 4.39.978 7.338-.463 11.001-.613 4.518-.188 9.892-1.032 10.417-4.052.622-3.556 3.883-6.844 7.663-6.052z"/><radialGradient id="a" cx="-204.082" cy="339.897" r="18.782" gradientTransform="matrix(.4935 .8683 -2.6247 1.4694 1029.847 -274.862)" gradientUnits="userSpaceOnUse"><stop offset="0" style="stop-color:#d4691e"/><stop offset=".247" style="stop-color:#e67d29"/><stop offset=".577" style="stop-color:#f89234"/><stop offset=".794" style="stop-color:#ff9a38"/></radialGradient><path fill="url(#a)" d="M58.524 49.901c1.686-3.773 1.33-9.679-4.402-12.02.996-6.189-4.768-9.176-7.848-10.042-7.628-2.151-21.353 7.761-24.691 18.747-.881 2.89-1.108 8.213-3.057 11.688 3.936.104 7.412 3.325 11.431 3.388 5.539-1.084 8.553-.59 10.687-1.721 4.853-.018 8.522-.448 9.596-2.564 2.484-8.067 5.691-8.285 8.284-7.476z"/><path fill="#D4691E" d="M45.788 42.654c1.367 1.963 6.234 8.653 4.451 14.721 2.735-6.065-2.05-13.277-3.396-15.322-1.028-2.228-5.388-10.125-11.911-10.884 6.034 1.591 9.917 9.287 10.856 11.485zm4.508-2.578c1.732 1.51 6.651 4.954 8.229 9.825-.389-4.671-5.491-8.715-7.261-10.38-.488-2.396-1.771-8.633-5.501-11.388 3.284 3.889 4.157 9.654 4.533 11.943zm-10.431 5.973c-1.391-1.957-7.067-7.505-12.594-8.246 5.377 1.721 10.367 6.85 11.654 8.785.963 2.12 3.053 7.784 1.718 13.354 2.234-5.194.152-11.67-.778-13.893zm-6.327 3.625c-2.063-2.071-7.627-6.283-11.955-3.088 4.693-2.218 9.208 1.534 11.068 3.595.776 2.683 1.599 8.55-2.694 11.481 4.931-2.11 4.262-9.12 3.581-11.988z"/><path fill="#965121" d="M61.548 32.188c1.359-1.967-.659-3.606-1.913-1.5-5.446 9.137-17.092 10.368-41.108 27.586 22.711-13.608 37.161-17.619 43.021-26.086z"/><path fill="#D4691E" d="M6.9 9.141s17.163 14.424 17.017 16.666C4.85 27.54-2.468 14.589 6.9 9.141z"/><radialGradient id="b" cx="-69.339" cy="-165.043" r="16.866" gradientTransform="matrix(-.3956 .6592 2.0087 1.1688 323.359 254.325)" gradientUnits="userSpaceOnUse"><stop offset="0" style="stop-color:#d4691e"/><stop offset=".247" style="stop-color:#e67d29"/><stop offset=".577" style="stop-color:#f89234"/><stop offset=".794" style="stop-color:#ff9a38"/></radialGradient><path fill="url(#b)" d="M4.156 17.272c-1.122-2.636-.791-6.717 3.241-8.258-.608-4.297 3.453-6.283 5.615-6.84C18.366.791 27.798 7.84 29.971 15.49c.575 2.012.659 5.699 1.968 8.129-2.747.018-5.217 2.2-8.021 2.187-3.847-.828-5.956-.526-7.432-1.339-3.382-.078-6.678-3.41-6.656-1.908-4.095-1.383-4.685-5.978-5.674-5.287z"/><path fill="#D4691E" d="M13.143 12.434c-.983 1.337-4.471 5.899-3.313 10.125-1.821-4.235 1.618-9.159 2.585-10.556.75-1.528 3.902-6.934 8.462-7.368-4.23 1.017-7.047 6.29-7.734 7.799zm-3.109-1.848c-1.229 1.021-4.708 3.337-5.878 6.687.337-3.229 3.953-5.956 5.21-7.083.375-1.651 1.358-5.951 3.999-7.804-2.344 2.645-3.035 6.621-3.331 8.2zm7.192 4.278c.999-1.333 5.036-5.095 8.903-5.532-3.776 1.116-7.329 4.597-8.253 5.919-.702 1.455-2.24 5.345-1.389 9.216-1.484-3.623.06-8.076.739-9.603zm4.363 2.597c1.467-1.406 5.409-4.243 8.382-1.971-3.244-1.601-6.443.933-7.77 2.333-.581 1.846-1.238 5.896 1.716 7.983-3.411-1.528-2.844-6.368-2.328-8.345z"/><path fill="#965121" d="M2.298 4.971c-.92-1.378.51-2.486 1.355-1.011 3.669 6.398 11.775 7.413 28.285 19.66-15.65-9.732-25.671-12.709-29.64-18.649z"/></svg>