<svg xmlns="http://www.w3.org/2000/svg" xml:space="preserve" viewBox="0 0 64 64"><path fill="#4B9400" d="M42.098 58.919C29.918 47.277 33.04 32.89 31.879 26.944c-.238-1.217-1.09-.844-1.133-.098-.258 4.496-3.414 23.27 7.916 34.456 1.923 1.908 5.408-.503 3.436-2.383z"/><linearGradient id="a" x1="-628.538" x2="-628.538" y1="1493.883" y2="1465.086" gradientTransform="rotate(43.31 1544.494 1601.25)" gradientUnits="userSpaceOnUse"><stop offset="0" style="stop-color:#56a800"/><stop offset=".346" style="stop-color:#70c200"/><stop offset=".751" style="stop-color:#88da00"/><stop offset="1" style="stop-color:#91e300"/></linearGradient><path fill="url(#a)" d="M31.375 27.26c6.509-1.553 17.824 2.615 25.197-4.395 5.563-5.289.64-13.948-5.478-13.948-2.573.048-19.719 18.343-19.719 18.343z"/><linearGradient id="b" x1="758.092" x2="758.092" y1="1493.387" y2="1465.041" gradientTransform="scale(-1 1) rotate(-43.31 -1485.367 1748.34)" gradientUnits="userSpaceOnUse"><stop offset="0" style="stop-color:#4b9400"/><stop offset=".428" style="stop-color:#6eba00"/><stop offset=".783" style="stop-color:#84d200"/><stop offset="1" style="stop-color:#8cdb00"/></linearGradient><path fill="url(#b)" d="M31.375 27.26c2.162-4.602-1.616-16.524 3.505-22.084 5.889-6.393 15.386-2.095 16.215 3.741-3.686 8.516-19.72 18.343-19.72 18.343z"/><linearGradient id="c" x1="-364.076" x2="-364.076" y1="613.156" y2="584.458" gradientTransform="matrix(.6528 -.6832 .7554 .6188 -189.377 -605.73)" gradientUnits="userSpaceOnUse"><stop offset="0" style="stop-color:#56a800"/><stop offset=".346" style="stop-color:#70c200"/><stop offset=".751" style="stop-color:#88da00"/><stop offset="1" style="stop-color:#91e300"/></linearGradient><path fill="url(#c)" d="M31.354 27.409c-1.874-5.811 1.911-16.036-5.593-22.521-5.66-4.894-14.324-.318-14.061 5.168.162 2.31 19.654 17.353 19.654 17.353z"/><linearGradient id="d" x1="493.75" x2="493.75" y1="612.658" y2="584.153" gradientTransform="matrix(-.6528 .6832 .7554 .6188 -112.622 -685.359)" gradientUnits="userSpaceOnUse"><stop offset="0" style="stop-color:#4b9400"/><stop offset=".428" style="stop-color:#6eba00"/><stop offset=".783" style="stop-color:#84d200"/><stop offset="1" style="stop-color:#8cdb00"/></linearGradient><path fill="url(#d)" d="M31.354 27.409c-4.812-1.855-16.868 1.754-22.788-2.739-6.806-5.163-2.81-13.763 3.135-14.613 8.888 3.15 19.653 17.352 19.653 17.352z"/><linearGradient id="e" x1="530.453" x2="530.453" y1="842.937" y2="814.148" gradientTransform="matrix(-.668 -.6684 .636 -.7409 -155.558 1001.383)" gradientUnits="userSpaceOnUse"><stop offset="0" style="stop-color:#56a800"/><stop offset=".346" style="stop-color:#70c200"/><stop offset=".751" style="stop-color:#88da00"/><stop offset="1" style="stop-color:#91e300"/></linearGradient><path fill="url(#e)" d="M31.354 27.409c-6.014 1.688-16.43-2.23-23.264 4.921-5.157 5.395-.656 13.931 4.985 13.801 2.378-.105 18.279-18.722 18.279-18.722z"/><linearGradient id="f" x1="-400.898" x2="-400.898" y1="842.439" y2="814.099" gradientTransform="matrix(.668 .6684 .636 -.7409 -233.398 922.814)" gradientUnits="userSpaceOnUse"><stop offset="0" style="stop-color:#4b9400"/><stop offset=".428" style="stop-color:#6eba00"/><stop offset=".783" style="stop-color:#84d200"/><stop offset="1" style="stop-color:#8cdb00"/></linearGradient><path fill="url(#f)" d="M31.354 27.409c-2.017 4.637 1.413 16.451-3.338 22.107-5.462 6.503-14.203 2.417-14.94-3.386 3.442-8.575 18.278-18.721 18.278-18.721z"/><linearGradient id="g" x1="205.223" x2="205.223" y1="1754.768" y2="1726.059" gradientTransform="matrix(-.6402 .695 -.7665 -.6049 1503.188 951.334)" gradientUnits="userSpaceOnUse"><stop offset="0" style="stop-color:#56a800"/><stop offset=".346" style="stop-color:#70c200"/><stop offset=".751" style="stop-color:#88da00"/><stop offset="1" style="stop-color:#91e300"/></linearGradient><path fill="url(#g)" d="M31.354 27.408c1.981 5.776-1.613 16.067 6.012 22.418 5.751 4.792 14.328.063 13.961-5.418-.204-2.306-19.973-17-19.973-17z"/><linearGradient id="h" x1="-75.553" x2="-75.553" y1="1754.271" y2="1725.755" gradientTransform="matrix(.6402 -.695 -.7665 -.6049 1427.897 1032.349)" gradientUnits="userSpaceOnUse"><stop offset="0" style="stop-color:#4b9400"/><stop offset=".428" style="stop-color:#6eba00"/><stop offset=".783" style="stop-color:#84d200"/><stop offset="1" style="stop-color:#8cdb00"/></linearGradient><path fill="url(#h)" d="M31.354 27.408c4.843 1.769 16.831-2.055 22.832 2.333 6.902 5.043 3.069 13.711-2.859 14.667-8.945-2.991-19.973-17-19.973-17z"/></svg>