<svg xmlns="http://www.w3.org/2000/svg" xml:space="preserve" viewBox="0 0 64 64"><radialGradient id="a" cx="35.575" cy="-9.794" r="13.308" gradientTransform="matrix(1.0667 0 0 1.737 -11.17 28.33)" gradientUnits="userSpaceOnUse"><stop offset=".339" style="stop-color:#ffeac2"/><stop offset=".665" style="stop-color:#fee8bf"/><stop offset=".915" style="stop-color:#f9e1b5"/><stop offset="1" style="stop-color:#f7deb0"/></radialGradient><path fill="url(#a)" d="M28.979 30.052C19.136 14.224 25.277 1.765 17.641 2.003c-6.634.208-12.688 13.302-2.87 33.34 10.729 6.203 14.208-5.291 14.208-5.291z"/><linearGradient id="b" x1="22.903" x2="61.288" y1="39.855" y2="39.855" gradientUnits="userSpaceOnUse"><stop offset=".588" style="stop-color:#ffe12c"/><stop offset=".766" style="stop-color:#fde32c"/><stop offset=".862" style="stop-color:#f5e82c"/><stop offset=".937" style="stop-color:#e7f22c"/><stop offset="1" style="stop-color:#d5ff2c"/></linearGradient><path fill="url(#b)" d="M51.956 39.11c-4.084 2.677-10.438-13.805-21.755-11.54 0 11.739 11.52 19.901 26.573 18.622.785-.066 1.715.561 3.31-.053 1.204.613 1.204 1.479 1.204 1.479-13.741 13.698-38.117.265-38.385-12.986C26.819 17 49.459 31.911 51.956 39.11z"/><linearGradient id="c" x1="30.875" x2="27.92" y1="41.464" y2="24.472" gradientUnits="userSpaceOnUse"><stop offset=".321" style="stop-color:#ffe12c"/><stop offset=".46" style="stop-color:#fbda28"/><stop offset=".66" style="stop-color:#f0c71c"/><stop offset=".897" style="stop-color:#dda80a"/><stop offset="1" style="stop-color:#d49800"/></linearGradient><path fill="url(#c)" d="M23.127 34.731s.249-5.334 7.074-7.161c.132 9.433 7.253 13.912 7.253 13.912-4.429 6.914-12.256 2.304-14.327-6.751z"/><linearGradient id="d" x1="59.234" x2="8.734" y1="56.084" y2="39.084" gradientUnits="userSpaceOnUse"><stop offset="0" style="stop-color:#b2d424"/><stop offset=".097" style="stop-color:#ffcd00"/><stop offset=".174" style="stop-color:#ffcd00"/><stop offset=".63" style="stop-color:#ffcd00"/><stop offset=".725" style="stop-color:#fbc800"/><stop offset=".839" style="stop-color:#efb900"/><stop offset=".963" style="stop-color:#dba100"/><stop offset="1" style="stop-color:#d49800"/></linearGradient><path fill="url(#d)" d="M61.014 47.282c-9.751 8.91-31.128 5.879-38.114-13.15-3.172-8.641-21.994-9.72-9.503 19.436-3.848-14.053-2.243-24.884.925-17.443 10.771 25.287 31.359 25.854 42.777 17.583 3.171-2.297 1.96-2.63 4.878-5.241l-.963-1.185z"/><linearGradient id="e" x1="9.134" x2="9.134" y1="62" y2="28.611" gradientUnits="userSpaceOnUse"><stop offset="0" style="stop-color:#ebd3a7"/><stop offset=".339" style="stop-color:#ffeac2"/></linearGradient><path fill="url(#e)" d="M16.269 28.853c-14.139 3.071 3.819 36.048-2.867 32.941-12.326-5.725-18.934-36.192 2.867-32.941z"/><linearGradient id="f" x1="25.198" x2="52.238" y1="31.207" y2="31.207" gradientUnits="userSpaceOnUse"><stop offset=".661" style="stop-color:#ffeac2"/><stop offset="1" style="stop-color:#ebd3a7"/></linearGradient><path fill="url(#f)" d="M48.724 37.952c-2.253-1.731-12.986-17.664-23.525-8.516 15.853-20.894 35.055 17.379 23.525 8.516z"/><path fill="#785647" d="M60.084 46.14c1.204.785 1.578 3.027 1.893 2.326.213-.479-1.093-2.213-1.893-2.326z"/></svg>