<svg xmlns="http://www.w3.org/2000/svg" xml:space="preserve" viewBox="0 0 64 64"><radialGradient id="a" cx="32.152" cy="45.583" r="27.908" gradientTransform="matrix(.9836 0 0 1.2617 .376 -11.928)" gradientUnits="userSpaceOnUse"><stop offset="0" style="stop-color:#f80"/><stop offset=".134" style="stop-color:#fb8100"/><stop offset=".336" style="stop-color:#f16c00"/><stop offset=".58" style="stop-color:#e14a00"/><stop offset=".856" style="stop-color:#ca1b00"/><stop offset="1" style="stop-color:#bd0000"/></radialGradient><path fill="url(#a)" fill-rule="evenodd" d="M61 37.625c-2.843-3.153-14.215-3.274-14.215-3.274-1.063-3.426 9.01-6.288 11.029-9.214-5.809-2.115-1.769-8.122-.213-11.518.391-.85-8.802 4.492-10.403-.17-3.122 6.963-9.354 11.792-9.354 11.792-2.209-2.095 4.588-10.113 2.117-15.26C34.306 14.772 33.436 2.478 32 1c-1.436 1.478-2.308 13.772-7.964 8.981-2.468 5.146 3.291 13.165 1.084 15.26 0 0-5.196-4.83-8.318-11.792-1.602 4.662-10.794-.68-10.405.17 1.556 3.396 5.596 9.403-.211 11.518 2.02 2.926 9.714 6.081 8.958 9.214 0 0-9.303.121-12.144 3.274 2.354 3.384 12.514 2.305 7.003 8.521 3.678-.004 7.618-.646 10.287.377-.729 1.984-1.459 4.592-1.848 6.92 4.216.385 8.438-2.686 13.558-8.025 5.118 5.34 9.342 8.41 13.558 8.025-.389-2.328-1.121-4.936-1.848-6.92 2.667-1.022 6.609-.381 10.285-.377-5.511-6.216 4.651-5.137 7.005-8.521z" clip-rule="evenodd"/><radialGradient id="b" cx="36.583" cy="55.196" r="42.28" gradientTransform="matrix(1.0386 0 0 1.0345 -5.592 -8.806)" gradientUnits="userSpaceOnUse"><stop offset="0" style="stop-color:#bd0000"/><stop offset="1" style="stop-color:#bd0000"/></radialGradient><path fill="url(#b)" fill-rule="evenodd" d="M61 37.625c-15.423 3.347-21.686 3.042-28.452 7.896 10.461-19.25 13.873-17.807 24.478-31.442-8.818 10.271-15.225 12.745-24.548 29.866 0 0-2.721-22.504-.478-41.661-3.692 16.148-.324 41.51-.324 41.51S21.884 27.237 6.898 14.016c6.042 6.101 16.517 18.265 24.554 31.175C24.513 41.667 12.196 40.286 3 37.625c9.922 4.547 22.679 3.943 28.761 8.919.747 7.822 3.557 14.623 5.155 16.456 1.521-.093 1.687-1.152 1.687-1.152-.85-2.806-2.904-1.944-6.083-15.292 7.745-5.924 22.772-5.357 28.48-8.931z" clip-rule="evenodd"/></svg>