<svg xmlns="http://www.w3.org/2000/svg" xml:space="preserve" viewBox="0 0 64 64"><radialGradient id="a" cx="238.454" cy="-25.351" r="42.688" gradientTransform="matrix(.6073 .5708 -.2544 .2656 -118.858 -101.585)" gradientUnits="userSpaceOnUse"><stop offset="0" style="stop-color:#8f4dad"/><stop offset=".375" style="stop-color:#8c4aab"/><stop offset=".636" style="stop-color:#8441a3"/><stop offset=".862" style="stop-color:#763296"/><stop offset="1" style="stop-color:#69248a"/></radialGradient><path fill="url(#a)" d="M59.813 51.503c2.404-16.242-18.714-16.898-38.96-40.946-5.546-8.4-18.951.667-16.043 8.224 24.636 51.157 53.196 44.907 55.003 32.722z"/><radialGradient id="b" cx="610.322" cy="-207.941" r="19.085" gradientTransform="matrix(.0151 .5513 1.3216 .9917 295.48 -99.44)" gradientUnits="userSpaceOnUse"><stop offset="0" style="stop-color:#db8cff"/><stop offset=".308" style="stop-color:#d383f8;stop-opacity:.6743"/><stop offset=".809" style="stop-color:#be6be4;stop-opacity:.1446"/><stop offset=".946" style="stop-color:#b763de;stop-opacity:0"/></radialGradient><path fill="url(#b)" d="M30.169 41.339c13.929 10.457 25.092 14.213 24.928 8.4-.157-5.81-11.577-18.995-25.503-29.446C15.66 9.838 4.5 6.076 4.662 11.892c.153 5.807 11.58 18.996 25.507 29.447z"/><linearGradient id="c" x1="7.058" x2="11.025" y1="8.575" y2="8.575" gradientTransform="translate(-.177 -2.252)" gradientUnits="userSpaceOnUse"><stop offset="0" style="stop-color:#80ab3c"/><stop offset=".368" style="stop-color:#99c74e"/><stop offset=".755" style="stop-color:#aede5d"/><stop offset="1" style="stop-color:#b6e663"/></linearGradient><path fill="url(#c)" d="M9.597 4.167c-.718-.589-3.229.496-2.622 1.375 4.856 7.057 4.414.086 2.622-1.375z"/><radialGradient id="d" cx="-303.391" cy="387.176" r="11.664" gradientTransform="matrix(.5899 -.5893 .5899 .5893 -37.815 -392.607)" gradientUnits="userSpaceOnUse"><stop offset="0" style="stop-color:#b6e663"/><stop offset=".247" style="stop-color:#b2e160"/><stop offset=".522" style="stop-color:#a6d457"/><stop offset=".81" style="stop-color:#91be48"/><stop offset="1" style="stop-color:#80ab3c"/></radialGradient><path fill="url(#d)" d="M9.631 6.702c-10.605 5.091-2.4 14.017-5.366 16.531 3.204.825 3.631-11.638 6.303-14.848 3.144 1.192 13.48 7.113 14.302 2.978-2.34 1.976-6.281-8.961-15.239-4.661z"/><linearGradient id="e" x1="-329.75" x2="-319.458" y1="291.973" y2="291.973" gradientTransform="rotate(-45.001 -494.74 -249.262)" gradientUnits="userSpaceOnUse"><stop offset="0" style="stop-color:#b6e663"/><stop offset=".247" style="stop-color:#b2e160"/><stop offset=".522" style="stop-color:#a6d457"/><stop offset=".81" style="stop-color:#91be48"/><stop offset="1" style="stop-color:#80ab3c"/></linearGradient><path fill="url(#e)" d="M7.463 19.611c4.897-5.585 3.06-13.515 1.459-12.485-5.755 3.709-.718 7.806-1.459 12.485z"/><linearGradient id="f" x1="-329.193" x2="-317.041" y1="293.951" y2="293.951" gradientTransform="rotate(-45.001 -494.74 -249.262)" gradientUnits="userSpaceOnUse"><stop offset="0" style="stop-color:#b6e663"/><stop offset=".247" style="stop-color:#b2e160"/><stop offset=".522" style="stop-color:#a6d457"/><stop offset=".81" style="stop-color:#91be48"/><stop offset="1" style="stop-color:#80ab3c"/></linearGradient><path fill="url(#f)" d="M10.394 21.755c11.2-8.847 2.299-16.8-.763-15.053-4.707 2.686 1.512 5.564.763 15.053z"/></svg>