<svg xmlns="http://www.w3.org/2000/svg" xml:space="preserve" viewBox="0 0 64 64"><linearGradient id="a" x1="49.098" x2="60.473" y1="58.579" y2="49.517" gradientUnits="userSpaceOnUse"><stop offset="0" style="stop-color:#a9b0b3"/><stop offset=".908" style="stop-color:#a9b0b3;stop-opacity:.1827"/><stop offset="1" style="stop-color:#a9b0b3;stop-opacity:.1"/></linearGradient><path fill="url(#a)" d="M59.104 46.759c1.128 3.545-.885 10.249-6.416 12.141-4.188 1.431-7.27-1.922-3.095-3.065 4.871-1.333 9.235-5.595 9.511-9.076z" opacity=".6"/><linearGradient id="b" x1="58.551" x2="48.676" y1="14.698" y2="4.261" gradientUnits="userSpaceOnUse"><stop offset="0" style="stop-color:#a9b0b3"/><stop offset=".908" style="stop-color:#a9b0b3;stop-opacity:.1827"/><stop offset="1" style="stop-color:#a9b0b3;stop-opacity:.1"/></linearGradient><path fill="url(#b)" d="M46.061 4.961c3.545-1.129 10.249.885 12.141 6.416 1.431 4.188-1.922 7.27-3.065 3.094-1.333-4.871-5.595-9.235-9.076-9.51z" opacity=".6"/><linearGradient id="c" x1="587.92" x2="587.92" y1="835.754" y2="850.082" gradientTransform="rotate(97.354 667.373 171.867)" gradientUnits="userSpaceOnUse"><stop offset="0" style="stop-color:#a9b0b3;stop-opacity:.1"/><stop offset=".092" style="stop-color:#a9b0b3;stop-opacity:.1827"/><stop offset="1" style="stop-color:#a9b0b3"/></linearGradient><path fill="url(#c)" d="M6.697 8.489c4.52-1.528 10.436-.825 12.767 1.388-1.301-2.955-6.919-6.479-12.279-4.999-4.057 1.121-4.36 4.921-.488 3.611z" opacity=".6"/><linearGradient id="d" x1="15.538" x2="11.663" y1="14.585" y2="35.898" gradientUnits="userSpaceOnUse"><stop offset="0" style="stop-color:#a9b0b3;stop-opacity:.1"/><stop offset=".092" style="stop-color:#a9b0b3;stop-opacity:.1827"/><stop offset="1" style="stop-color:#a9b0b3"/></linearGradient><path fill="url(#d)" d="M18.68 34.362c4.961-2.776 1.591-7.811-2.906-4.851C1.461 38.95 3.396 19.55 20.815 14.482-1.131 18.563-.833 45.276 18.68 34.362z" opacity=".6"/><linearGradient id="e" x1="26.699" x2="52.012" y1="28.655" y2="37.093" gradientUnits="userSpaceOnUse"><stop offset="0" style="stop-color:#a9b0b3;stop-opacity:.1"/><stop offset=".092" style="stop-color:#a9b0b3;stop-opacity:.1827"/><stop offset="1" style="stop-color:#a9b0b3"/></linearGradient><path fill="url(#e)" d="M50.377 33.442c-5.498-3.801-17.094 1.106-25.317-6.706 3.394 11.159 17.196 6.426 23.331 11.195 4.643 3.608 6.697-1.231 1.986-4.489z" opacity=".6"/><path fill="#92C932" d="M24.662 10.558C46.424-5.953 55.363 27.72 55.363 27.72s-19.386-6.43-30.701-17.162z"/><path fill="#7AB51D" d="M24.662 10.558c8.174 9.516 30.701 17.162 30.701 17.162S22.35 36.482 24.662 10.558z"/><path fill="#71A81B" d="M33.453 17.236c.699-1.472 5.215-7.574 9.883-8.223-5.061.029-9.945 6.235-10.713 7.72-1.018 1.33-3.9 4.523-1.688 8.989-1.472-4.395 1.481-7.216 2.518-8.486zm-3.547-2.159c.262-1.576 2.041-6.198 4.539-8.675-2.863 1.645-4.953 6.567-5.299 8.213-1.355 1.029-2.936 2.269-3.172 5.516 1.161-3.294 2.608-4.127 3.932-5.054zm8.199 4.997c-.689 1.489-2.314 4.367-.506 8.185-1.115-4.011.529-6.319 1.248-7.732.971-1.258 5.803-5.104 9.963-5.894-4.289.093-9.648 4.177-10.705 5.441zm5.2 2.702c-.852 4.029.852 6.034.852 6.034s-.779-1.887-.154-5.61c1.418-1.303 4.973-3.898 8.656-1.98-3.413-2.577-7.778.261-9.354 1.556z"/><path fill="#699C19" d="M18.945 4.813C27.881 19.02 49.638 26.09 55.363 27.719c-5.916-2.053-29.811-13.807-35.404-25.623-.242-.513-2.025 1.112-1.014 2.717z"/><path fill="#92C932" d="M50.629 46.596C30.122 18.758 2 53.124 2 53.124s28.562.866 48.629-6.528z"/><path fill="#7AB51D" d="M50.629 46.596C35.274 53.933 2 53.124 2 53.124s39.04 23.792 48.629-6.528z"/><path fill="#71A81B" d="M35.845 50.463c-.201-1.961-3.151-10.767-8.959-13.464 6.624 2.16 10.01 11.239 10.295 13.242.686 1.934 2.912 6.761-2.166 10.886 4.074-4.357 1.572-8.791.83-10.664zm5.705-.955c.424-1.894.341-7.875-1.73-11.728 2.954 3.064 3.299 9.516 2.953 11.524 1.274 1.734 2.743 3.802 1.473 7.578.083-4.217-1.409-5.768-2.696-7.374zM28.359 51.72c.181 1.975.912 5.917-3.322 9.477 3.418-4.07 2.385-7.375 2.13-9.276-.663-1.833-5.128-8.216-10.201-10.858 5.581 1.906 10.624 8.782 11.393 10.657zm-8.136.874c-.843 4.92-4.052 6.474-4.052 6.474s1.939-1.809 2.933-6.288c-1.226-2.069-4.625-6.502-10.389-5.878 5.728-1.484 10.075 3.565 11.508 5.692z"/><path fill="#699C19" d="M60.928 42.494C42.286 54.824 10.305 53.685 2 53.124c8.76.161 45.829-3.104 58.918-14.131.568-.479 2.115 2.109.01 3.501z"/></svg>