<svg xmlns="http://www.w3.org/2000/svg" xml:space="preserve" viewBox="0 0 64 64"><linearGradient id="a" x1="17.275" x2="36.097" y1="50.086" y2="13.914" gradientUnits="userSpaceOnUse"><stop offset="0" style="stop-color:#e60000"/><stop offset="1" style="stop-color:#ff693b"/></linearGradient><path fill="url(#a)" d="M56.341 27.968 12.815 4.654c-27.029 52.515 23.936 74.365 43.526 23.314z"/><path fill="#529320" d="M18.088 58.056c22.075 6.549 50.495-3.494 39.45-29.446 0-.001-12.373 32.008-39.45 29.446z"/><path fill="#E5EFCD" d="M56.341 27.968C41.728 80.167-16.912 60.235 12.815 4.655c-22.344 54.543 23.62 68.613 43.526 23.313z"/><path fill="#92C932" d="m11.59 4 1.225.655c-27.078 58.426 28.29 70.846 43.526 23.313l1.197.642c-1.744 7.487-11.852 30.589-31.11 30.589-8.828 0-15.656-3.229-19.166-9.596C-.499 35.529 7.495 11.92 11.59 4z"/><path fill="#92C932" d="M54.848 43.729c.271-3.594 3.803-4.963 2.071-11.308-.24 6.229-3.506 6.471-4.059 10.906-.484 3.892-3.555 4.374-5.668 8.933-1.189 2.567-6.701 5-6.701 5s6.652.002 8.451-4.426c1.432-3.526 5.559-4.505 5.906-9.105z"/><path fill="#92C932" d="M57.912 44.319c-.166-2.975 2.587-4.428.481-9.476.474 5.137-2.181 5.64-2.156 9.333.02 3.24-3.522 5.254-4.766 9.193 2.372-3.559 6.653-5.239 6.441-9.05z"/><linearGradient id="b" x1="-283.626" x2="-283.166" y1="68.527" y2="64.439" gradientTransform="matrix(.6061 .0249 .0681 .9942 198.553 -13.111)" gradientUnits="userSpaceOnUse"><stop offset="0" style="stop-color:#1a1626"/><stop offset="1" style="stop-color:#45505c"/></linearGradient><path fill="url(#b)" d="M32.289 45.592c1.38 2.933-2.652 3.239-2.202.29.391-2.569 1.025-2.794 2.202-.29z"/><linearGradient id="c" x1="-441.119" x2="-438.348" y1="-196.13" y2="-198.766" gradientTransform="matrix(.5351 -.2857 .5626 .8226 386.306 78.516)" gradientUnits="userSpaceOnUse"><stop offset="0" style="stop-color:#1a1626"/><stop offset="1" style="stop-color:#45505c"/></linearGradient><path fill="url(#c)" d="M40.516 40.651c2.62 1.791-.632 4.05-1.718 1.338-.942-2.362-.519-2.867 1.718-1.338z"/><linearGradient id="d" x1="-128.046" x2="-128.885" y1="140.611" y2="137.863" gradientTransform="matrix(.5815 .1726 -.1775 .9806 126.884 -78.11)" gradientUnits="userSpaceOnUse"><stop offset="0" style="stop-color:#1a1626"/><stop offset="1" style="stop-color:#45505c"/></linearGradient><path fill="url(#d)" d="M28.273 36.205c.423 2.18-2.304 1.707-1.511-.176.691-1.638 1.151-1.681 1.511.176z"/><linearGradient id="e" x1="-440" x2="-437.976" y1="-217.176" y2="-219.078" gradientTransform="matrix(.5334 -.2889 .5675 .8191 395.317 82.828)" gradientUnits="userSpaceOnUse"><stop offset="0" style="stop-color:#1a1626"/><stop offset="1" style="stop-color:#45505c"/></linearGradient><path fill="url(#e)" d="M37.804 30.201c1.912 1.29-.441 2.945-1.241.979-.695-1.713-.39-2.082 1.241-.979z"/><linearGradient id="f" x1="1149.421" x2="1146.651" y1="-37.474" y2="-36.971" gradientTransform="matrix(-.1776 .58 -.979 -.1859 189.63 -651.447)" gradientUnits="userSpaceOnUse"><stop offset="0" style="stop-color:#1a1626"/><stop offset="1" style="stop-color:#45505c"/></linearGradient><path fill="url(#f)" d="M22.196 22.106c-2.172.402-1.678-2.309.19-1.503 1.624.701 1.663 1.158-.19 1.503z"/><linearGradient id="g" x1="504.266" x2="501.525" y1="219.7" y2="218.682" gradientTransform="matrix(.2998 .5273 -.8073 .5843 46.31 -361.765)" gradientUnits="userSpaceOnUse"><stop offset="0" style="stop-color:#1a1626"/><stop offset="1" style="stop-color:#45505c"/></linearGradient><path fill="url(#g)" d="M20.777 31.853c-1.266 1.958-2.986-.386-1.015-1.235 1.716-.739 2.095-.437 1.015 1.235z"/><linearGradient id="h" x1="104.677" x2="102.084" y1="217.963" y2="215.308" gradientTransform="matrix(.4951 .3505 -.4834 .8714 72.775 -179.606)" gradientUnits="userSpaceOnUse"><stop offset="0" style="stop-color:#1a1626"/><stop offset="1" style="stop-color:#45505c"/></linearGradient><path fill="url(#h)" d="M20.347 45.445c-.389 2.849-3.537 1.132-1.781-.847 1.532-1.722 2.113-1.584 1.781.847z"/><linearGradient id="i" x1="626.41" x2="623.496" y1="199.314" y2="198.63" gradientTransform="matrix(.2092 .5694 -.8922 .4438 59.709 -406.683)" gradientUnits="userSpaceOnUse"><stop offset="0" style="stop-color:#1a1626"/><stop offset="1" style="stop-color:#45505c"/></linearGradient><path fill="url(#i)" d="M13.46 37.985c-1.587 1.744-2.915-.879-.81-1.399 1.837-.452 2.164-.088.81 1.399z"/><linearGradient id="j" x1="917.966" x2="915.025" y1="90.083" y2="90.123" gradientTransform="matrix(-.0136 .6064 -.9928 .0867 114.241 -537.219)" gradientUnits="userSpaceOnUse"><stop offset="0" style="stop-color:#1a1626"/><stop offset="1" style="stop-color:#45505c"/></linearGradient><path fill="url(#j)" d="M12.547 27.077c-2.057 1.016-2.327-1.834-.234-1.556 1.823.244 1.991.69.234 1.556z"/><linearGradient id="k" x1="1156.973" x2="1154.11" y1="-95.254" y2="-94.467" gradientTransform="matrix(-.2591 .5485 -.9422 -.3246 223.181 -648.322)" gradientUnits="userSpaceOnUse"><stop offset="0" style="stop-color:#1a1626"/><stop offset="1" style="stop-color:#45505c"/></linearGradient><path fill="url(#k)" d="M13.071 17.125c-2.344.092-1.41-2.682.43-1.552 1.6.987 1.571 1.474-.43 1.552z"/><linearGradient id="l" x1="-424.028" x2="-420.741" y1="-309.727" y2="-311.885" gradientTransform="matrix(.4684 -.3855 .7136 .6956 466.356 86.323)" gradientUnits="userSpaceOnUse"><stop offset="0" style="stop-color:#1a1626"/><stop offset="1" style="stop-color:#45505c"/></linearGradient><path fill="url(#l)" d="M47.206 31.782c2.987 1.268.183 4.189-1.451 1.688-1.422-2.178-1.098-2.772 1.451-1.688z"/></svg>