<svg xmlns="http://www.w3.org/2000/svg" xml:space="preserve" viewBox="0 0 64 64"><radialGradient id="a" cx="25.467" cy="29.429" r="36.08" gradientTransform="matrix(1 0 0 .9144 0 2.52)" gradientUnits="userSpaceOnUse"><stop offset="0" style="stop-color:#f0f09c"/><stop offset=".259" style="stop-color:#eced99"/><stop offset=".493" style="stop-color:#e1e491"/><stop offset=".717" style="stop-color:#cfd683"/><stop offset=".935" style="stop-color:#b5c170"/><stop offset="1" style="stop-color:#acba69"/></radialGradient><path fill="url(#a)" d="M4 36.8c0 33.6 56 33.6 56 0S4 3.2 4 36.8z"/><path fill="#959954" d="M50.84 47.688c-1.927-.248-3.096.264-3.779 1.26 1.1 1.947 1.476 4.614 4.093 5.041-.087-.988-.432-5.014-.314-6.301zm-38.78-.402c-.925-4.13-5.46-1.754-4.097 1.89 1.581-.413 2.689-1.299 4.097-1.89zM7.371 38.44c.04 1.746-2.52 2.038-.765 6.668.757-.194 3.681-1.55 3.918-2.258-1.554-1.173-1.596-3.616-3.153-4.41zm5.034-12.176c-1.429-1.155-2.583.444-4.096.946 1.061 1.773 2.9 2.77 4.729 3.78.006-1.794-.802-2.77-.633-4.726zm14.177-7.245c-.253-1.952-1.983-2.424-2.205-4.413-4.734-.066-.866 6.011 2.205 4.413zM7.887 36.592c1.311-3.846.698-6.39-.848-7.718-2.394.065-3.148 7.349-1.668 10.151.682-1.517.646-2.622 2.516-2.433zm29.219-10.328c.667-1.65 2.771-2.11 2.659-4.41-1.551-.401-2.949-.917-4.943-.945-1.07 2.121 1.092 4.079 2.284 5.355zm1.45 9.138c-.71-3.034-6.124-3.913-7.248-.63.85 2.093 5.843 2.679 7.248.63zm-5.648-11.904c-1.016 1.38-2.292 2.501-2.738 4.45 2.167-.115 2.167 1.938 4.446 1.71 1.09-1.716.003-5.188-1.708-6.16zm-4.435-3.851c-.9 1.747.189 3.931.631 5.356 2.947-.618 3.375-5.608-.631-5.356zm11.021 5.618c-1.058 2.094-2.93 3.369-3.777 5.671 2.339.389 3.128 2.332 5.041 3.15 2.298-2.049.726-7.317-1.264-8.821zM27.173 29.1c-.576 1.513.172 3.602 1.262 4.409 1.141-.748 2.583-1.195 3.782-1.89-.482-2.041-2.611-2.431-5.044-2.519zm10.752 8.192c-1.331 1.151-.197 3.521-.317 5.355 5.351 1.619 6.724-5.959.317-5.355zM14.13 55.597c.953-.374 2.055-.601 3.319-.665-.114-.936-.503-1.596-.945-2.204a13.177 13.177 0 0 0-4.02 1.27 23.65 23.65 0 0 0 1.646 1.599zm39.848-14.825c.423 1.362 1.303 2.269 1.263 4.097 1.056.727.662 1.172 2.662.959 1.8-4.297-.165-7.139-3.925-5.056zM12.504 24.174c.143-1.648-1.274-1.731-1.123-3.377-1.879.376-3.055 1.447-2.814 3.939 1.775.272 1.985-1.014 3.937-.562zm15.34-7.047c.545-.919 5.17-2.791 5.281-4.149-1.28-1.134-5.414.731-6.69-.406-2.055 2.128-.356 3.346 1.409 4.555zm-2.295 4.572c-.9 1.327-4.135.318-4.318 2.356 3.046.354 4.243 2.56 6.283 3.928-.412-2.341-.11-5.395-1.965-6.284zm26.866 24.647c.142-1.191-.618-1.477-.942-2.206-1.489.299-2.886.687-4.41.946-.071.396 3.573 1.15 5.352 1.26zM19.336 33.563c1.611.867 3.579 1.386 6.297 1.146.229-6.216-4.16-3.994-6.297-1.146zm15.436 20.113c-1.666-.171-1.83 0-3.465-.318.255 1.843-.053 2.848.318 4.097 2.116-.192 1.872-2.749 3.147-3.779zm-8.283 6.596c1.807.504 4.726.315 4.726-.629-1.479-.726-3.236-1.178-4.726-1.891-.26 1.286-.047 1.087 0 2.52z" opacity=".15"/><path fill="#959954" d="M52.362 51.895c1.956-.25 3.09-1.322 4.096-2.518-1.353-5.181-7.126-2.086-4.096 2.518zm-41.77-19.619c-.383 2.774-1.59 6.144.436 7.194.572-1.388 2.448-.945 2.671-2.84-.265-1.998-1.303-3.45-3.107-4.354zm9.211 26.433c.011-.713.044-1.336.162-1.57-.734-.269-2.272-.527-3.146-.158 1.032.41 1.951 1.23 2.984 1.728zM17.44 17.187a3.598 3.598 0 0 0 2.835 0c.41-.916.41-2.238 0-3.153-1.19.805-2.126 1.866-2.835 3.153zm4.1 42.784c1.39.129 2.436.864 3.152.318.219-2.514-.099-3.584-2.518-2.835-.386.98-.736 1.048-.634 2.517zm9.856-44.135c.652 1.78.438 4.919 1.825 5.637 1.985-1.678 1.731-3.63 1.414-5.591-1.108.22-2.004-1.278-3.239-.046zm-8.312 12.569c-.892-1.734-2.324-2.926-4.725-3.151-1.445 2.96 3.15 6.871 4.725 3.151zm-8.185 18.322c.41 1.049.131 3.074.629 3.998 1.725.217 2.931-.312 3.777-1.332.159-4.871-2.357-4.869-4.406-2.666zm-2.082-24.258c.953 1.393 1.142 3.549 1.756 5.275 4.706-.118 1.178-7.87-1.756-5.275zm1.927-1.697c.319-1.056 2.718-1.834 2.219-2.995-1.491.342-2.415-.081-4.31.799.921 1.348.522 2.402 2.091 2.196zm7.113 35.105c.881-.904 1.378-2.189 1.26-4.096-1.245-1.159-3.237-.078-4.727.314.214 2.389 1.543 3.983 3.467 3.782zm-4.623-16.852c-1.878.641-4.3.736-5.354 2.205.719 5.049 8.316 3.156 5.354-2.205zm-6.089 11.183c-.367.891-.061 1.337.314 2.206 1.382.12 1.623-.898 2.839-.947-.162-2.766-1.269-1.859-3.153-1.259zm5.976-29.686c.914.453.896 1.835 1.889 2.208 1.171-.302 2.347-.6 3.152-1.262-.135-2.85-3.923-3.111-5.041-.946zm7.239 17.787c1.263-.106 4.996-.07 5.982-.976-.818-2.094-5.931-3.353-5.982.976zm15.454 6.229c-1.445.024-2.028.909-3.78.63-.153.626.107 3.135.946 3.779.535-1.883 1.879-2.948 2.834-4.409zm-4.934-1.87c-.144-1.536.33-3.691-.315-4.729-1.354.33-3.231.129-4.409.633.265 1.52.652 2.916 1.26 4.096.826.303 2.697.608 3.464 0zm7.456 9.428c-.084-2.328-1.548-3.284-2.838-4.408-.904 1.719-2.071 3.18-2.831 5.04 1.34 1.661 4.687.77 5.669-.632zm-15.708-3.444c1.346-5.727-2.705-4.617-6.302-3.781.288 3.406 1.96 5.285 6.302 3.781zm-4.337-6.02c-.488-2.653.959-5.963-.484-6.951-5.071.681-3.229 6.28.484 6.951zm21.936 8.209c.592-1.407 1.643-2.351 2.202-3.782-.746-1.85-4.846-2.799-5.668-.314 2.06.457 2.01 3.026 3.466 4.096zM27.77 39.813c-2.275-.068-4.758-.348-4.097 2.521 2.069-.182 3.048.73 5.04.628.071-1.439-.53-2.202-.943-3.149zm9.509-20.158c2.461.47 6.557-.823 7.618-3.328-.837-.771-.7-2.734-4.091-2.474-.477 2.707-3.756 3.48-3.527 5.802zm8.834 21.415c-1.73.369-3.075 1.123-3.777 2.521h3.777V41.07zM34.532 13.325c.616 2.568 2.147 3.932 4.096 2.281-.139-3.106-2.432-3.755-4.096-2.281zm6.542 22.706c1.517.795 2.091 2.528 3.468 3.467 2.72-.877 1.639-4.903 1.571-7.879-2.468.68-3.533 2.77-5.039 4.412zm.429-14.032c.41 1.277 1.525 4.563 1.575 7.246 4.754.442 3.241-6.365 1.892-9.765-1.79.209-2.727 1.264-3.467 2.519zM16.298 36.685c1.145-1.69 1.52-4.151 1.576-6.931-1.237.026-1.965.555-2.834.945.177 2.234-.641 5.473 1.258 5.986zm42.519 1.376c.093-1.353.268-4.624-.239-5.376-1.054 0-3.219-.281-4.271-.281-.1 1.259.976 4.569.731 5.972 1.653-.208 1.743-.282 3.779-.315zM51.336 18.64c-.511 1.274-1.329 2.242-1.577 3.779 1.885 1.056 3.263 2.618 5.986 2.835-.743-2.933-2.013-5.336-4.409-6.614zm2.971 7.624c.219 1.88 1.322 2.88 1.889 4.411.894-.546 1.424.254 2.383-.779-.681-2.366-1.339-3.52-4.272-3.632zM39.814 58.083c-.085-1.885-4.338-3.872-5.042-1.263.57 1.535 3.581.625 5.042 1.263zm-7.244.638v2.838c1.51-.063 2.458-.691 2.202-2.521-.404-.434-1.365-.311-2.202-.317zm-2.838-1.901c.115-2.314.002-4.41-.944-5.665-3.097-1.366-5.301.464-4.411 4.093 1.179.338.9-.781 1.89-.633 1.167.727 1.776 2.009 3.465 2.205zm-.944-12.282c.009 1.64.722 3.281 0 4.727 1.88.641 2.461 2.577 4.725 2.831 3.085-2.862.655-9.17-4.725-7.558zm7.562 14.807v1.259c2.049-.119 2.676.143 3.78-.63-1.092-.38-2.257-.686-3.78-.629zm11.657-15.753c7.919.617 4.191-9.171-.631-4.094-.182 1.756.363 2.784.631 4.094zm4.723-8.19c.244-3.185-1.63-4.249-4.412-4.413-1.017 1.613-.021 3.688-.312 6.303 1.89-.317 3.042-1.368 4.724-1.89zm-2.999-17.623c-.703-.874-2.583-.571-3.782-.947.109 1.89 1.157 2.833 2.834 3.153.328-.728 1.087-1.019.948-2.206zm-3.618 40.304c.955-1.96 2.461-4.952.315-6.616-3.647.32-3.164 5.664-.315 6.616zm-3.777-3.468c-1.121-.068-1.889.217-2.206.947 1.878.75 1.346 3.905 3.779 4.097.554-1.592-1.912-2.642-1.573-5.044zm5.099-32.294c.551 2.564.784 4.289.572 7.093 1.859.451 3.866.753 5.983.947-.955-5.988-4.231-5.22-6.555-8.04z" opacity=".15"/><linearGradient id="b" x1="32.001" x2="32.001" y1="16.96" y2="6.245" gradientUnits="userSpaceOnUse"><stop offset="0" style="stop-color:#bab769"/><stop offset=".174" style="stop-color:#aea45a"/><stop offset=".512" style="stop-color:#9a8643"/><stop offset=".799" style="stop-color:#8e7334"/><stop offset="1" style="stop-color:#8a6c2f"/></linearGradient><path fill="url(#b)" d="M35.796 15.397c-.729-.345 2.316-.158.576-.453-2.971-.504-3.032-2.875-3.037-5.511h-2.117c-.166 2.08-.926 4.545-3.662 4.889-1.817.229 2.267-.172 1.125.85-.248.222-.889.829.405.188 2.144-1.062-.838 2.002.692.676 1.577-1.368.493 1.763 1.344.278.85-1.48 2.066 1.741 2.015.233-.061-1.751 1.219.741 1.031.08-.498-1.763 1.751.352.97-.549-.781-.902.407-.272 1.516.026.54.146-.039-.318-.858-.707z"/><path fill="#302C3B" d="M30.364 14.583c.826.879 1.595-3.038 1.402-4.308-.719 3.046-1.723 3.968-1.402 4.308zm3.255-.077c-.907.959-1.307-3.676-.996-5.144.435 3.615 1.347 4.772.996 5.144z" opacity=".2"/><linearGradient id="c" x1="30.134" x2="30.134" y1="10.012" y2="6" gradientUnits="userSpaceOnUse"><stop offset="0" style="stop-color:#806d47"/><stop offset=".315" style="stop-color:#947e52"/><stop offset=".718" style="stop-color:#a68e5d"/><stop offset="1" style="stop-color:#ad9461"/></linearGradient><path fill="url(#c)" d="M40.227 7.844c-.438-.073-.291-.424-.581-.371C30.832 9.075 25.582 6 19.981 6c-.497 0-.025.561-.142.663-.24.21-.438.846-.248.875.336.051-.01.454.461.487 5.214.368 11.339 3.285 20.266 1.301.521-.116-.003-.518.39-.812.152-.113-.12-.61-.481-.67z"/><path fill="#6E5D3C" d="M20.554 7.652c8.327.878 10.542 3.007 19.13 1.313-9.432 1.047-11.357-1.091-19.13-1.313z" opacity=".3"/><path fill="#6E5D3C" d="M39.979 8.182c-5.142.313-5.811.852-11.273.468 4.817.055 6.489-.537 11.273-.468zM20.35 6.573c5.557.878 6.257 1.812 12.191 1.563-5.221-.248-7.005-1.342-12.191-1.563z" opacity=".3"/></svg>