<svg xmlns="http://www.w3.org/2000/svg" xml:space="preserve" viewBox="0 0 64 64"><path fill="#B00505" d="M53.262 18.22H10.738L6 22.054l4.753 21.023h42.496L58 22.054z"/><radialGradient id="a" cx="34.445" cy="78.228" r="11.794" gradientTransform="matrix(.9769 0 0 2.285 6.56 -149.196)" gradientUnits="userSpaceOnUse"><stop offset="0" style="stop-color:#ffd86b"/><stop offset=".6" style="stop-color:#f5a240"/><stop offset=".679" style="stop-color:#e58e37"/><stop offset=".84" style="stop-color:#be591e"/><stop offset=".946" style="stop-color:#a1340d"/></radialGradient><path fill="url(#a)" fill-rule="evenodd" d="M43.282 8.467c-.943-1.059-2.475-2.292-4.472-1.404-3.059 20.799-1.032 40.881-1.011 41.174.21 3.024 4.708 4.466 5.396 4.045-2.132-25.053.282-31.851.087-43.815z" clip-rule="evenodd"/><radialGradient id="b" cx="786.275" cy="1103.545" r="11.794" gradientTransform="matrix(-.98 0 0 -2.285 795.823 2546.387)" gradientUnits="userSpaceOnUse"><stop offset=".436" style="stop-color:#ffd86b"/><stop offset=".751" style="stop-color:#f5a240"/><stop offset=".796" style="stop-color:#e58e37"/><stop offset=".886" style="stop-color:#be591e"/><stop offset=".946" style="stop-color:#a1340d"/></radialGradient><path fill="url(#b)" fill-rule="evenodd" d="M22.189 45.89c.947 1.057 2.483 2.288 4.489 1.402 3.065-20.799 1.034-40.883 1.013-41.176-.211-3.023-4.721-4.463-5.413-4.046 2.14 25.054-.282 31.853-.089 43.82z" clip-rule="evenodd"/><radialGradient id="c" cx="-14.419" cy="113.595" r="11.61" gradientTransform="matrix(.9242 .0983 -.1776 2.7669 76.694 -285.974)" gradientUnits="userSpaceOnUse"><stop offset=".436" style="stop-color:#ffd86b"/><stop offset=".751" style="stop-color:#f5a240"/><stop offset=".796" style="stop-color:#e58e37"/><stop offset=".886" style="stop-color:#be591e"/><stop offset=".946" style="stop-color:#a1340d"/></radialGradient><path fill="url(#c)" fill-rule="evenodd" d="M48.048 5.292c-.825-1.147-2.963-2.637-4.91-1.953-2.554 20.421.587 20.554-3.829 49.475-.441 2.966 4.613.333 5.307-.023 3.968-24.519 3.579-36.736 3.432-47.499z" clip-rule="evenodd"/><path fill="#820000" fill-rule="evenodd" d="M48.048 5.292c-.901-.26-2.049 1.243-2.05 1.525-.007 17.531.539 22.934-1.383 45.973 3.617-19.984 3.691-36.649 3.433-47.498z" clip-rule="evenodd" opacity=".1"/><radialGradient id="d" cx="41.95" cy="53.293" r="7.946" gradientTransform="matrix(1.0231 -.0645 .1055 2.7729 -35.976 -123.172)" gradientUnits="userSpaceOnUse"><stop offset="0" style="stop-color:#ffd86b"/><stop offset=".751" style="stop-color:#f5a240"/><stop offset=".796" style="stop-color:#e58e37"/><stop offset=".886" style="stop-color:#be591e"/><stop offset=".946" style="stop-color:#a1340d"/></radialGradient><path fill="url(#d)" fill-rule="evenodd" d="M14.603 6.652c-.704-.68-2.418-1.433-3.823-.738-.401 14.151 1.961 13.864.795 34.009-.12 2.073 3.493-.334 3.976-.652 1.159-17.1-.041-25.338-.948-32.619z" clip-rule="evenodd"/><path fill="#820000" fill-rule="evenodd" d="M14.603 6.652c-.694-.069-1.444 1.085-1.424 1.276 1.296 11.893 2.105 15.488 2.371 31.342 1.23-13.982.05-25.293-.947-32.618z" clip-rule="evenodd" opacity=".1"/><radialGradient id="e" cx="771.571" cy="1228.438" r="13.044" gradientTransform="matrix(-.7072 .1208 -.2679 -2.2692 888.962 2722.706)" gradientUnits="userSpaceOnUse"><stop offset=".436" style="stop-color:#ffd86b"/><stop offset=".751" style="stop-color:#f5a240"/><stop offset=".796" style="stop-color:#e58e37"/><stop offset=".886" style="stop-color:#be591e"/><stop offset=".946" style="stop-color:#a1340d"/></radialGradient><path fill="url(#e)" fill-rule="evenodd" d="M11.625 55.382c.879.841 2.924 1.668 4.451.577-1.172-19.116-3.839-18.472-4.823-45.739-.104-2.808-3.951.83-4.467 1.313.647 23.165 2.961 34.14 4.839 43.849z" clip-rule="evenodd"/><path fill="#820000" fill-rule="evenodd" d="M11.625 55.382c.8.016 1.523-1.622 1.477-1.879-2.847-15.879-4.186-20.639-6.315-41.971.203 18.977 2.855 34.092 4.838 43.85z" clip-rule="evenodd" opacity=".1"/><radialGradient id="f" cx="871.596" cy="74.773" r="11.632" gradientTransform="matrix(-.9273 0 0 2.7764 844.652 -181.901)" gradientUnits="userSpaceOnUse"><stop offset="0" style="stop-color:#ffd86b"/><stop offset=".751" style="stop-color:#f5a240"/><stop offset=".796" style="stop-color:#e58e37"/><stop offset=".886" style="stop-color:#be591e"/><stop offset=".946" style="stop-color:#a1340d"/></radialGradient><path fill="url(#f)" fill-rule="evenodd" d="M33.293 3.726c.896-1.056 3.122-2.313 5.018-1.425 1.24 20.624-1.897 20.421.652 49.714.264 3.016-6.049-1.256-6.703-1.673-2.389-24.856.197-35.906 1.033-46.616z" clip-rule="evenodd"/><radialGradient id="g" cx="28.509" cy="24.076" r="10.577" gradientTransform="matrix(1.0085 .0992 -.169 2.438 24.6 -36.992)" gradientUnits="userSpaceOnUse"><stop offset=".436" style="stop-color:#ffd86b"/><stop offset=".751" style="stop-color:#f5a240"/><stop offset=".796" style="stop-color:#e58e37"/><stop offset=".886" style="stop-color:#be591e"/><stop offset=".946" style="stop-color:#a1340d"/></radialGradient><path fill="url(#g)" fill-rule="evenodd" d="M52.963 11.37c-.916-.964-1.119-12.136-4.273-8.725-1.124 23.854-4.298 35.953-2.978 43.656.429 2.49 3.212-5.024 3.945-5.301.793-10.922 2.997-21.652 3.306-29.63z" clip-rule="evenodd"/><radialGradient id="h" cx="657.461" cy="1137.42" r="8.189" gradientTransform="matrix(-1.4413 .0796 -.095 -3.0232 1073.067 3409.96)" gradientUnits="userSpaceOnUse"><stop offset=".436" style="stop-color:#ffd86b"/><stop offset=".751" style="stop-color:#f5a240"/><stop offset=".796" style="stop-color:#e58e37"/><stop offset=".886" style="stop-color:#be591e"/><stop offset=".946" style="stop-color:#a1340d"/></radialGradient><path fill="url(#h)" fill-rule="evenodd" d="M14.748 36.719c1.109.768 2.518 11.341 5.607 7.615-1.297-22.813.895-34.791-1.369-41.9-.734-2.298-2.983 5.269-3.758 5.642.287 10.492-.988 21.018-.48 28.643z" clip-rule="evenodd"/><radialGradient id="i" cx="74.92" cy="51.929" r="8.392" gradientTransform="matrix(1.1226 0 0 3.3316 -53.046 -150.874)" gradientUnits="userSpaceOnUse"><stop offset=".436" style="stop-color:#ffd86b"/><stop offset=".751" style="stop-color:#f5a240"/><stop offset=".796" style="stop-color:#e58e37"/><stop offset=".886" style="stop-color:#be591e"/><stop offset=".946" style="stop-color:#a1340d"/></radialGradient><path fill="url(#i)" fill-rule="evenodd" d="M33.222 4.467c-1.081-1.021-5.295-.997-5.356.167-.541 10.258-2.047 25.172-1.495 38.57.12 2.928 5.2 3.756 5.992 3.352-.562-18.537.858-33.311.859-42.089z" clip-rule="evenodd"/><path fill="#820000" d="M27.865 4.634c-.541 10.258-2.047 25.172-1.495 38.57 1.106-10.621 2.897-28.926 2.965-37.588.004-.473-1.408-1.251-1.47-.982z" opacity=".1"/><radialGradient id="j" cx="694.781" cy="1073.812" r="8.392" gradientTransform="matrix(-.9273 0 0 -3.451 663.706 3738.403)" gradientUnits="userSpaceOnUse"><stop offset=".042" style="stop-color:#ffd86b"/><stop offset=".685" style="stop-color:#f5a240"/><stop offset=".757" style="stop-color:#e58e37"/><stop offset=".904" style="stop-color:#be591e"/><stop offset="1" style="stop-color:#a1340d"/></radialGradient><path fill="url(#j)" fill-rule="evenodd" d="M17.65 51.023c.894 1.058 4.373 1.032 4.425-.173.445-10.626 1.689-26.076 1.233-39.952-.097-3.031-4.295-3.892-4.949-3.473.465 19.203-.708 34.506-.709 43.598z" clip-rule="evenodd"/><path fill="#820000" d="M22.075 50.851c.445-10.626 1.689-26.076 1.233-39.952-.914 11.002-2.156 29.073-3.171 39.017.915.159 1.886 1.214 1.938.935z" opacity=".1"/><radialGradient id="k" cx="-30.971" cy="1008.526" r="8.392" gradientTransform="matrix(.9162 .166 .4422 -3.4129 -363.607 3478.787)" gradientUnits="userSpaceOnUse"><stop offset=".436" style="stop-color:#ffd86b"/><stop offset=".751" style="stop-color:#f5a240"/><stop offset=".796" style="stop-color:#e58e37"/><stop offset=".886" style="stop-color:#be591e"/><stop offset=".946" style="stop-color:#a1340d"/></radialGradient><path fill="url(#k)" fill-rule="evenodd" d="M53.114 53.839c-1.017.885-4.453.236-4.347-.965.919-10.588 1.67-26.09 3.898-39.733.485-2.979 4.741-3.078 5.334-2.549-2.92 18.907-3.718 34.255-4.885 43.247z" clip-rule="evenodd"/><radialGradient id="l" cx="698.742" cy="-22.398" r="11.794" gradientTransform="matrix(-.9761 .042 .0786 1.9715 714.65 35.946)" gradientUnits="userSpaceOnUse"><stop offset="0" style="stop-color:#ffd86b"/><stop offset=".6" style="stop-color:#f5a240"/><stop offset=".679" style="stop-color:#e58e37"/><stop offset=".84" style="stop-color:#be591e"/><stop offset=".946" style="stop-color:#a1340d"/></radialGradient><path fill="url(#l)" fill-rule="evenodd" d="M31.202 17.755c.906-.952 2.394-2.083 4.419-1.404 3.773 17.814 2.439 35.229 2.43 35.484-.106 2.619-4.551 4.055-5.253 3.723 1.268-21.707-1.377-27.471-1.596-37.803z" clip-rule="evenodd"/><radialGradient id="m" cx="854.654" cy="1058.498" r="8.93" gradientTransform="matrix(-.9201 -.1201 .2741 -2.2672 534.725 2528.8)" gradientUnits="userSpaceOnUse"><stop offset=".236" style="stop-color:#ffd86b"/><stop offset=".363" style="stop-color:#fed468"/><stop offset=".494" style="stop-color:#fcc75e"/><stop offset=".627" style="stop-color:#f8b34d"/><stop offset=".709" style="stop-color:#f5a240"/><stop offset=".776" style="stop-color:#e58e37"/><stop offset=".911" style="stop-color:#be591e"/><stop offset="1" style="stop-color:#a1340d"/></radialGradient><path fill="url(#m)" fill-rule="evenodd" d="M36.43 55.252c.688 1.055 1.86 2.331 3.659 1.758 4.863-18.329 5.32-36.583 5.333-36.847.148-2.738-3.526-4.529-4.158-4.23-.905 22.724-3.699 28.558-4.834 39.319z" clip-rule="evenodd"/><radialGradient id="n" cx="872.548" cy="1064.222" r="10.667" gradientTransform="matrix(-.9201 -.1201 .2741 -2.2672 533.923 2535.439)" gradientUnits="userSpaceOnUse"><stop offset=".436" style="stop-color:#ffd86b"/><stop offset=".751" style="stop-color:#f5a240"/><stop offset=".796" style="stop-color:#e58e37"/><stop offset=".886" style="stop-color:#be591e"/><stop offset=".946" style="stop-color:#a1340d"/></radialGradient><path fill="url(#n)" fill-rule="evenodd" d="M18.916 37.874c.927-8.004 1.068-13.561 1.076-13.704.148-2.737-3.526-4.528-4.158-4.231-.302 7.596-.816 13.299-1.409 17.936h4.491z" clip-rule="evenodd"/><radialGradient id="o" cx="117.063" cy="1152.345" r="13.224" gradientTransform="matrix(.9201 -.1201 -.2741 -2.2672 252.503 2637.642)" gradientUnits="userSpaceOnUse"><stop offset=".436" style="stop-color:#ffd86b"/><stop offset=".751" style="stop-color:#f5a240"/><stop offset=".796" style="stop-color:#e58e37"/><stop offset=".886" style="stop-color:#be591e"/><stop offset=".946" style="stop-color:#a1340d"/></radialGradient><path fill="url(#o)" fill-rule="evenodd" d="M49.315 37.077c-1.216-10.51-.04-21.548-.051-21.738-.194-3.593 3.27 1.153 4.1 1.543.396 9.973-.228 13.398.551 19.486l-4.6.709z" clip-rule="evenodd"/><radialGradient id="p" cx="62.22" cy="-19.257" r="9.316" gradientTransform="matrix(1.0126 -.0311 .1228 2.4409 -39.144 76.415)" gradientUnits="userSpaceOnUse"><stop offset=".436" style="stop-color:#ffd86b"/><stop offset=".751" style="stop-color:#f5a240"/><stop offset=".796" style="stop-color:#e58e37"/><stop offset=".886" style="stop-color:#be591e"/><stop offset=".946" style="stop-color:#a1340d"/></radialGradient><path fill="url(#p)" fill-rule="evenodd" d="M28.868 22.218c-.902-.738-2.253-10.48-4.651-7.141 1.521 20.975.017 31.91 1.979 38.491.636 2.127 2.278-4.755 2.891-5.08-.452-9.635.349-19.262-.219-26.27z" clip-rule="evenodd"/><linearGradient id="q" x1="32.001" x2="32.001" y1="62" y2="24.855" gradientUnits="userSpaceOnUse"><stop offset="0" style="stop-color:#cf0000"/><stop offset=".165" style="stop-color:#df0005"/><stop offset=".42" style="stop-color:#f1000a"/><stop offset=".691" style="stop-color:#fc000d"/><stop offset="1" style="stop-color:#ff000e"/></linearGradient><path fill="url(#q)" d="M51.551 24.854c-5.214 17.247-33.886 17.247-39.1 0 0 0-.248 21.547 3.625 37.146 0 0 15.925-2.048 31.851 0 3.873-15.599 3.624-37.146 3.624-37.146z"/><linearGradient id="r" x1="11.038" x2="11.038" y1="62" y2="22.054" gradientUnits="userSpaceOnUse"><stop offset="0" style="stop-color:#cf0000"/><stop offset=".354" style="stop-color:#d20001"/><stop offset=".6" style="stop-color:#db0003"/><stop offset=".813" style="stop-color:#ea0008"/><stop offset="1" style="stop-color:#ff000e"/></linearGradient><path fill="url(#r)" d="M12.451 24.854 6 22.054l4.753 33.505L16.076 62s-1.785-20.543-3.625-37.146z"/><linearGradient id="s" x1="205.109" x2="205.109" y1="62" y2="22.054" gradientTransform="matrix(-1 0 0 1 258.072 0)" gradientUnits="userSpaceOnUse"><stop offset="0" style="stop-color:#cf0000"/><stop offset=".354" style="stop-color:#d20001"/><stop offset=".6" style="stop-color:#db0003"/><stop offset=".813" style="stop-color:#ea0008"/><stop offset="1" style="stop-color:#ff000e"/></linearGradient><path fill="url(#s)" d="m51.551 24.854 6.449-2.8-4.751 33.505L47.927 62s1.784-20.543 3.624-37.146z"/><path fill="#FAA19B" d="M32 44.187c2.895 0 5.25 2.355 5.25 5.25s-2.355 5.25-5.25 5.25-5.25-2.355-5.25-5.25 2.355-5.25 5.25-5.25zm0-1.75a7 7 0 1 0 0 14 7 7 0 0 0 0-14z"/><path fill="#FAA19B" d="M33.4 50.138c-.236 0-.352-.115-.352-.35v-.701c0-.234.115-.35.352-.35h2.273c.236 0 .352.115.352.35v.35a4.024 4.024 0 0 1-6.871 2.847c-.166-.168-.166-.33-.002-.496l.744-.742c.166-.166.328-.166.494 0a2.278 2.278 0 0 0 3.775-.908H33.4z"/></svg>