<svg xmlns="http://www.w3.org/2000/svg" xml:space="preserve" style="enable-background:new 0 0 64 64" viewBox="0 0 64 64"><path d="M61.937 31.543c-.672-3.39-.555-6.644-2.245-9.084-1.398-2.022-1.12-4.807-2.829-6.326-2.604-2.317-3.492-6.12-6.525-7.479C46.911 7.123 44.12 3.66 40.224 3.39c-2.964-.203-5.814-1.875-8.82-1.252-2.938.606-6.179-.207-8.64 1.2-2.055 1.172-5.085 1.336-6.944 2.992-1.767 1.576-5.444 3.115-6.901 5.728-1.415 2.54-4.184 4.606-4.777 7.604-.431 2.168-2.185 4.135-1.907 6.41.226 1.817-.557 3.351-.076 6.74.218 1.534-.117 6.29 1.573 8.73 1.4 2.02 1.122 4.806 2.83 6.326 2.605 2.316 3.492 6.12 6.524 7.479 3.427 1.53 6.313 4.403 10.208 4.672 2.965.203 6.093.512 9.1-.11 2.936-.606 5.819 1.128 8.28-.279 2.054-1.172 5.072-.303 6.93-1.96 1.768-1.575 5.445-3.115 6.903-5.728 1.414-2.539 4.182-4.605 4.777-7.604.43-2.168 2.183-4.134 1.906-6.41-.226-1.816 1.111-4.543.747-6.385z" style="fill:#d98930"/><path d="M51.575 40.26c.67 1.615 8.505 1.764 9.121-.158-.9-1.97-8.564-1.445-9.121.158z" style="fill:#ffb545"/><path d="M52.84 39.807c-1.053 1.44 3.421 7.248 5.503 6.568 1.241-1.812-3.736-7.101-5.503-6.568zM6.5 33.091c-1.054 1.44 3.418 7.248 5.504 6.568 1.237-1.812-3.736-7.101-5.503-6.568z" style="fill:#ffb545"/><path d="M6.304 37.29c-1.055 1.438 3.417 7.247 5.505 6.567 1.238-1.813-3.738-7.102-5.505-6.567z" style="fill:#ffb545"/><path d="M10.633 41.225c-1.91.076-4.486 6.756-2.65 7.88 2.35-.161 4.166-6.903 2.65-7.88z" style="fill:#ffb545"/><path d="M52.809 39.319c-1.91.078-4.486 6.758-2.655 7.88 2.355-.16 4.17-6.902 2.654-7.88z" style="fill:#f2a024"/><path d="M58.685 33.624c-1.19-1.35-8.69.696-8.62 2.696 1.53 1.623 8.638-1.014 8.62-2.696zm-6.626 15.98c1.893-.24 3.754-7.112 1.81-8.072-2.325.361-3.422 7.23-1.81 8.072zM3.392 39.029c1.885-.287 3.534-7.204 1.562-8.116-2.313.42-3.2 7.313-1.562 8.116zm8.748 13.122c1.788-.605 1.953-7.678-.176-8.235-2.184.811-1.601 7.73.175 8.235z" style="fill:#ffb545"/><path d="M15.466 32.767c1.508 1.056-.662 7.855-2.88 7.814-1.814-1.358 1.017-7.81 2.88-7.814zM9.114 34.04c1.054 1.44-3.42 7.248-5.505 6.569-1.238-1.813 3.738-7.102 5.505-6.569zm48.031 11.962c1.054 1.438-3.418 7.247-5.503 6.567-1.242-1.813 3.736-7.102 5.503-6.567zm-.978-10.235c1.909.076 4.488 6.756 2.652 7.879-2.353-.16-4.169-6.903-2.652-7.879z" style="fill:#f2a024"/><path d="M12.303 39.706c1.91.078 4.485 6.758 2.652 7.881-2.353-.16-4.17-6.902-2.652-7.88zM8.61 48.484c1.772-.642 7.18 4.475 6.026 6.184-2.215.732-6.96-4.727-6.026-6.184z" style="fill:#f2a024"/><path d="M48.658 40.187c-.507-1.664 5.733-5.94 7.482-4.713.56 2.07-5.984 5.713-7.482 4.713z" style="fill:#ffb545"/><path d="M7.301 47.05c-1.896-.233-3.795-7.095-1.857-8.065 2.328.35 3.465 7.215 1.857 8.064zm51.969-7.545c-1.734-.726-1.307-7.79.863-8.2 2.107.955.95 7.815-.863 8.2z" style="fill:#f2a024"/><path d="M24.887 4.172c-1.903-.17-5.507 6.111-3.867 7.459 2.354.142 5.214-6.298 3.867-7.46zm10.47 21.65c-1.176-1.359-8.698.625-8.645 2.627 1.51 1.635 8.645-.945 8.645-2.627z" style="fill:#ffb545"/><path d="M24.9 18.961c1.566-.991-.237-7.873-2.455-7.932-1.888 1.277.593 7.843 2.454 7.932zm9.263-.125c1.566-.991-.235-7.873-2.453-7.932-1.89 1.277.593 7.843 2.453 7.932zM11.85 23.74c-.67-1.615-8.505-1.763-9.12.159.897 1.97 8.563 1.445 9.12-.159z" style="fill:#ffb545"/><path d="M26.499 28.957c-.671-1.617-8.505-1.764-9.122.158.896 1.97 8.561 1.446 9.122-.158zM15.405 10.535c-1.915-.026-4.933 6.5-3.178 7.722 2.36-.032 4.625-6.662 3.178-7.722z" style="fill:#f2a024"/><path d="M39.91 19.243c-.67-1.615-8.503-1.763-9.12.158.896 1.971 8.561 1.448 9.12-.158zm9.386-.635c-.294-1.704-7.938-3.272-8.968-1.5.437 2.094 8.063 2.972 8.968 1.5zm-5.295-3.51c1.052-1.44-3.42-7.248-5.504-6.57-1.24 1.813 3.736 7.102 5.504 6.57zM18.354 33.233c1.053-1.438-3.419-7.248-5.505-6.567-1.237 1.813 3.739 7.102 5.505 6.567zm-7.77-9.039c1.054-1.44-3.42-7.249-5.503-6.569-1.24 1.813 3.737 7.102 5.503 6.569zm46.341 6.716c1.053-1.44-3.419-7.249-5.504-6.569-1.238 1.813 3.736 7.102 5.504 6.568zm-12.567-.32c-.223-1.715-7.789-3.546-8.896-1.815.349 2.109 7.928 3.252 8.896 1.815z" style="fill:#ffb545"/><path d="M57.121 26.71c1.054-1.437-3.418-7.246-5.505-6.566-1.238 1.812 3.737 7.101 5.505 6.566z" style="fill:#ffb545"/><path d="M52.792 22.776c1.908-.077 4.487-6.757 2.65-7.88-2.351.16-4.167 6.903-2.65 7.88zm-3.9 11.953c1.102 1.41 8.725-.24 8.781-2.24-1.421-1.7-8.687.562-8.78 2.24zM27.11 23.276c1.908-.077 4.488-6.756 2.65-7.88-2.351.16-4.166 6.905-2.65 7.88z" style="fill:#ffb545"/><path d="M11.287 24.682c1.91-.078 4.486-6.758 2.654-7.881-2.355.16-4.17 6.902-2.654 7.88z" style="fill:#f2a024"/><path d="M10.157 13.395c1.772.643 7.18-4.474 6.025-6.183-2.215-.733-6.96 4.726-6.025 6.183zm34.425 18.857c1.19 1.35 8.693-.695 8.619-2.695-1.527-1.623-8.636 1.014-8.62 2.695zM33.163 21.517c.076 1.724 7.461 4.09 8.716 2.44-.164-2.125-7.622-3.803-8.715-2.44z" style="fill:#ffb545"/><path d="M30.618 11.37c1.192 1.35 8.693-.697 8.621-2.695-1.527-1.625-8.637 1.013-8.621 2.695z" style="fill:#f2a024"/><path d="M13.187 16.588c1.19 1.348 8.694-.696 8.62-2.697-1.525-1.624-8.635 1.013-8.62 2.697zm7.991 15.21c1.192 1.35 8.693-.695 8.622-2.695-1.529-1.623-8.637 1.013-8.622 2.695zM4.739 30.376c1.19 1.35 8.691-.695 8.62-2.695-1.528-1.623-8.637 1.014-8.62 2.695z" style="fill:#ffb545"/><path d="M8.757 30.736c-.508 1.662 5.734 5.94 7.484 4.71.556-2.07-5.984-5.712-7.484-4.71zM33.03 12.327c-.508 1.662 5.733 5.94 7.484 4.711.558-2.068-5.985-5.711-7.484-4.711zm7.84 7.335c.04 1.726 7.378 4.205 8.664 2.577-.123-2.128-7.55-3.922-8.665-2.577zM33.522 3.817c-.512 1.662 5.73 5.94 7.48 4.711.559-2.068-5.984-5.711-7.48-4.711z" style="fill:#ffb545"/><path d="M19.74 16.443c-.508 1.664 5.733 5.94 7.483 4.713.558-2.07-5.985-5.713-7.482-4.713z" style="fill:#f2a024"/><path d="M13.055 22.598c1.28 1.281 8.63-1.167 8.426-3.16-1.633-1.538-8.555 1.479-8.426 3.16zm-1.689-8.202c-1.894.24-3.754 7.113-1.81 8.073 2.325-.361 3.421-7.23 1.81-8.073zm48.667 10.576c-1.885.287-3.534 7.203-1.562 8.115 2.314-.42 3.2-7.312 1.562-8.115zM44.706 5.484c-1.788.606-1.953 7.678.177 8.235 2.181-.81 1.6-7.729-.177-8.235zm6.58 6.366c-1.79.605-1.954 7.677.175 8.234 2.184-.81 1.601-7.729-.175-8.234zm-12.384 6.051c-1.043 1.446 3.47 7.229 5.55 6.537 1.226-1.82-3.788-7.08-5.55-6.537zm-4.92-9.561c-.446-1.677-8.202-2.692-9.077-.853.626 2.056 8.302 2.383 9.077.854zM23.32 18.433c-1.79.605-1.954 7.678.175 8.234 2.182-.809 1.601-7.729-.175-8.234z" style="fill:#ffb545"/><path d="M46.795 7.003c1.91.024 4.714 6.629 2.919 7.803-2.36-.096-4.401-6.785-2.919-7.803z" style="fill:#ffb545"/><path d="M28.679 22.483c1.177-1.36 8.697.625 8.645 2.627-1.51 1.634-8.645-.946-8.645-2.627zm6.542-7.003c-.906-1.52 4.124-6.942 6.134-6.096 1.054 1.906-4.427 6.77-6.133 6.095zm13.671 15.422c.672-1.616 8.507-1.764 9.123.158-.898 1.97-8.563 1.445-9.123-.158zm-12.814-3.667c.671-1.618 8.506-1.764 9.122.158-.896 1.969-8.561 1.445-9.123-.159zM31.673 4.434c.671-1.615 8.505-1.763 9.12.16-.897 1.971-8.56 1.446-9.12-.16z" style="fill:#f2a024"/><path d="M23.246 22.434c1.259-1.297 8.644 1.065 8.469 3.06-1.612 1.557-8.576-1.38-8.47-3.06zm.241-10.807c1.259-1.297 8.643 1.065 8.467 3.06-1.612 1.557-8.576-1.38-8.467-3.06zm-10.828 8.414c-.295-1.703 6.452-5.304 8.032-3.902.292 2.117-6.672 5.054-8.032 3.902z" style="fill:#ffb545"/><path d="M17.93 14.73c-1.051-1.441 3.421-7.248 5.505-6.57 1.239 1.812-3.736 7.102-5.505 6.57zm30.029 16.504c-1.508-1.057.662-7.856 2.879-7.815 1.815 1.358-1.016 7.81-2.88 7.815zm6.351-1.274c-1.053-1.44 3.421-7.248 5.506-6.568 1.238 1.812-3.738 7.101-5.505 6.568zm-41.498 2.304c-1.053-1.44 3.419-7.248 5.505-6.569 1.237 1.813-3.736 7.102-5.505 6.569z" style="fill:#f2a024"/><path d="M13.051 28.072c-1.054-1.439 3.419-7.246 5.502-6.568 1.24 1.814-3.736 7.104-5.502 6.568z" style="fill:#ffb545"/><path d="M6.28 17.998c-1.054-1.438 3.418-7.246 5.503-6.567 1.24 1.813-3.736 7.102-5.503 6.567zm.977 10.235c-1.908-.076-4.487-6.755-2.651-7.879 2.352.16 4.168 6.903 2.651 7.88zm4.953 6.769c-1.381 1.193-8.512-1.744-8.141-3.717 1.753-1.422 8.407 2.053 8.141 3.717zm19.77-11.723c-1.908-.077-4.487-6.757-2.65-7.88 2.352.16 4.167 6.905 2.65 7.88zm14.735 2.041c1.637.89.367 7.87-1.837 8.066-1.983-1.154-.014-7.861 1.837-8.067zm4.408-1.026c-1.912-.078-4.486-6.758-2.653-7.881 2.354.16 4.169 6.903 2.653 7.881zm3.692-8.777c-1.772.642-7.18-4.475-6.026-6.184 2.215-.733 6.96 4.726 6.026 6.184zm-10.987-3.878c-1.91-.077-4.488-6.758-2.652-7.881 2.354.162 4.169 6.904 2.652 7.88z" style="fill:#f2a024"/><path d="M28.42 27.995c-1.192 1.35-8.693-.695-8.621-2.695 1.527-1.623 8.637 1.014 8.621 2.695z" style="fill:#ffb545"/><path d="M31.15 11.194c-.996 1.472-8.72.276-8.92-1.715 1.293-1.783 8.707.044 8.92 1.715zm17.968 5.186c-1.19 1.349-8.694-.695-8.62-2.697 1.526-1.623 8.636 1.014 8.62 2.698z" style="fill:#f2a024"/><path d="M49.98 16.183c-1.857.41-6.403-5.353-4.987-6.894 2.308-.442 6.141 5.574 4.986 6.894zm-19.544-1.916c.508 1.663-5.734 5.94-7.485 4.712-.557-2.069 5.985-5.712 7.485-4.712z" style="fill:#f2a024"/><path d="M15.007 22.947c.509 1.664-5.733 5.94-7.482 4.713-.558-2.07 5.986-5.713 7.482-4.713zM30.793 3.345c-.182 1.717-7.707 3.695-8.854 1.982.299-2.112 7.852-3.399 8.854-1.982z" style="fill:#ffb545"/><path d="M41.85 13.892c.508 1.665-5.73 5.94-7.482 4.714-.557-2.07 5.985-5.714 7.483-4.714z" style="fill:#f2a024"/><path d="M37.629 26.322c.508 1.664-5.732 5.94-7.483 4.713-.557-2.07 5.986-5.713 7.483-4.713zm12.461-2.746c-.34 1.698-8.018 3.107-9.007 1.315.495-2.083 8.137-2.804 9.007-1.315z" style="fill:#ffb545"/><path d="M56.124 16.951c1.895.232 3.795 7.095 1.856 8.065-2.327-.35-3.464-7.215-1.856-8.065zm-51.97 7.544c1.734.727 1.307 7.79-.863 8.2-2.107-.954-.95-7.814.863-8.2z" style="fill:#f2a024"/><path d="M21.46 4.476c1.33 1.24-1.88 7.694-4.069 7.373-1.585-1.576 2.223-7.603 4.068-7.373z" style="fill:#ffb545"/><path d="M17.372 5.868c1.79.605 1.953 7.678-.175 8.234-2.184-.81-1.602-7.728.175-8.234zm4.405 14.636c1.402 1.172-1.413 7.774-3.617 7.56-1.68-1.495 1.76-7.7 3.617-7.56zM34 2.629c.244 1.71-6.608 5.144-8.147 3.705-.225-2.121 6.823-4.887 8.148-3.705zm4.209 14.934c1.79.605 1.955 7.677-.175 8.234-2.183-.809-1.6-7.729.175-8.235z" style="fill:#f2a024"/><path d="M37.106 10.992c1.052-1.442-3.42-7.248-5.505-6.57-1.238 1.812 3.738 7.101 5.505 6.57z" style="fill:#ffb545"/><path d="M26.427 18.686c-.498.654-2.908-1.157-2.41-1.81.498-.654 2.908 1.155 2.41 1.81zM11.69 43.543c-.497.655-2.91-1.154-2.411-1.808.498-.655 2.91 1.156 2.412 1.808zm46.382-7.72c-.498.654-2.908-1.155-2.41-1.81.497-.653 2.907 1.157 2.41 1.81zM39.365 24.11c-.57-.592 1.615-2.667 2.185-2.073.57.592-1.614 2.664-2.185 2.073zM10.58 15.164c-.571-.592 1.614-2.666 2.183-2.072.57.591-1.614 2.664-2.184 2.072zm30.574-2.951c.06-.817 3.074-.598 3.014.22-.062.817-3.075.596-3.014-.22zM10.164 29.83c.06-.816 3.075-.595 3.014.221-.06.816-3.075.598-3.014-.22z" style="fill:#302c3b"/><linearGradient id="a" x1="32" x2="32" y1="62" y2="30" gradientUnits="userSpaceOnUse"><stop offset="0" style="stop-color:#5c785e"/><stop offset=".028" style="stop-color:#526954"/><stop offset=".086" style="stop-color:#405042"/><stop offset=".146" style="stop-color:#343e35"/><stop offset=".21" style="stop-color:#2c332d"/><stop offset=".283" style="stop-color:#2a302b"/><stop offset=".584" style="stop-color:#323c33"/><stop offset="1" style="stop-color:#435444"/></linearGradient><path d="M50.112 30.816c-.284-.3-4.298 0-7.242-.17-1.574-.091-3.399-.408-5.348-.457-1.723-.043-3.547.299-5.366.293-1.817-.008-3.643-.514-5.368-.48-1.95.035-3.771.52-5.35.611-2.836.16-6.065-.154-6.478.203-.704.612-.005 3.02-.462 5.574-.29 1.602-.7 3.437-.88 5.381-.167 1.786-.535 3.643-.606 5.45-.072 1.933.2 3.82.243 5.48.062 2.41.158 4.418.484 5.456.333 1.05 1.895 1.972 4.044 2.626 1.338.405 3.007.399 4.781.651 1.5.212 3.098.426 4.776.53 1.573.098 3.188-.036 4.81-.036 1.626 0 3.228-.087 4.802-.182 1.68-.102 3.288-.137 4.789-.351 1.777-.253 3.417-.337 4.758-.742 2.15-.653 3.72-1.455 4.053-2.505.31-.976.416-2.983.444-5.438a96.944 96.944 0 0 0-.104-5.445c-.087-1.797-.562-3.619-.735-5.4-.184-1.938.096-3.864-.176-5.47-.436-2.565.74-4.933.13-5.58z" style="fill:url(#a)"/><path d="M32.413 48.47c.564 3.816 4.293 3.751 6.495 2.645 2.244-1.123-6.886-5.303-6.495-2.645zm3.125-3.46c2.64 1.877 3.757-.313 3.725-2.219-.038-1.942-5.566.91-3.724 2.219zm-11.542-5.008c2.64 1.877 3.756-.312 3.725-2.22-.038-1.941-5.567.91-3.725 2.22zm.943 3.626c-2.885.183-1.815 2.841-.335 4.464 1.515 1.656 2.353-4.588.335-4.464zm16.839-1.311c.558 3.809 4.292 3.749 6.49 2.64 2.241-1.128-6.885-5.305-6.49-2.64zm3.792 8.011c2.638 1.873 3.749-.318 3.719-2.225-.037-1.94-5.562.913-3.72 2.225zm-3.719-3.013c-2.882.184-1.814 2.837-.335 4.466 1.514 1.659 2.35-4.593.335-4.466zm3.175-15.077c.361 2.473 2.78 2.427 4.208 1.712 1.457-.728-4.464-3.44-4.208-1.712zm-2.64 6.902c1.709 1.212 2.431-.208 2.409-1.445-.024-1.263-3.607.595-2.409 1.446zm-11.939-.143c1.709 1.213 2.429-.207 2.41-1.444-.025-1.263-3.607.594-2.41 1.444zm-13.851-1.773c1.707 1.214 2.43-.207 2.41-1.444-.027-1.264-3.61.595-2.41 1.444zm2.442 8.578c1.706 1.213 2.429-.207 2.408-1.444-.026-1.263-3.608.595-2.408 1.444zm18.293 2.215c1.708 1.212 2.43-.207 2.409-1.445-.026-1.262-3.609.594-2.409 1.445zm1.623-6.865c1.71 1.213 2.431-.207 2.412-1.444-.027-1.263-3.609.595-2.412 1.444zm8.487-4.257c-1.87.118-1.175 1.842-.214 2.9.982 1.07 1.526-2.983.214-2.9zm-12.578-2.519c-1.868.118-1.175 1.842-.213 2.901.982 1.07 1.525-2.983.213-2.9zm-5.438 12.519c-1.87.118-1.175 1.84-.214 2.9.984 1.07 1.527-2.985.215-2.9zm14.033-11.749c-.565-3.814-4.295-3.752-6.496-2.645-2.244 1.124 6.884 5.304 6.496 2.645zm-8.848-3.201c-2.64-1.878-3.757.312-3.723 2.22.038 1.94 5.566-.912 3.722-2.22zm4.756 4.715c-2.64-1.875-3.759.313-3.725 2.22.038 1.941 5.567-.91 3.725-2.22zm-11.954-.143c2.883-.183 1.814-2.84.336-4.465-1.518-1.655-2.356 4.59-.336 4.465zm-4.391 5.316c-.558-3.809-4.29-3.749-6.49-2.64-2.243 1.127 6.886 5.305 6.49 2.64z" style="opacity:.4;fill:#2a302b"/><path d="M19.615 32.487c-2.637-1.873-3.749.317-3.717 2.225.034 1.938 5.563-.915 3.717-2.225z" style="opacity:.4;fill:#2a302b"/><path d="M21.31 37.74c2.882-.185 1.814-2.84.333-4.467-1.512-1.661-2.349 4.592-.334 4.468zm10.052 7.134c2.586 1.308 2.97-1.535 2.495-3.695-.49-2.207-4.303 2.78-2.495 3.695zm-10.749 5.157c-.361-2.472-2.78-2.427-4.207-1.712-1.457.728 4.463 3.44 4.207 1.712zm-3.635-6.177c-1.706-1.212-2.43.209-2.41 1.445.028 1.264 3.61-.595 2.41-1.445zm11.519-.327c1.87-.118 1.176-1.842.215-2.9-.983-1.071-1.527 2.983-.215 2.9z" style="opacity:.4;fill:#2a302b"/></svg>