<svg xmlns="http://www.w3.org/2000/svg" xml:space="preserve" viewBox="0 0 64 64"><radialGradient id="a" cx="85.251" cy="-210.588" r="29.978" gradientTransform="matrix(.3458 .9031 -.8395 .307 -164.564 15.565)" gradientUnits="userSpaceOnUse"><stop offset=".2" style="stop-color:#ff001e"/><stop offset=".38" style="stop-color:#fa001c"/><stop offset=".584" style="stop-color:#ed0016"/><stop offset=".798" style="stop-color:#d6000c"/><stop offset="1" style="stop-color:#ba0000"/></radialGradient><path fill="url(#a)" d="M28.12 16.072c-5.458 1.408-9.282 1.384-13.056 5.493-4.299 4.682-6.657 10.592-5.189 16.54 2.304 9.336 23.47 20.883 27.171 22.75 5.779 2.914 11.888-.105 14.561-4.879 3.219-5.75 9.09-22.512 6.927-31.817-2.312-9.941-8.703-13.139-16.864-13.077-3.741.029-9.29 3.929-13.55 4.99z"/><path fill="#6E0000" d="M37.017 28.904c.514 2.216-1.799 2.671-2.31.456-.515-2.214 1.796-2.668 2.31-.456z" opacity=".3"/><path fill="#EA8800" d="M36.538 29.226c-.287 1.592-.287 1.592-1.252.245-1.34-1.87 1.643-2.458 1.252-.245z"/><path fill="#6E0000" d="M42.962 34.755c.633 2.205-1.667 2.779-2.299.574-.637-2.209 1.664-2.78 2.299-.574z" opacity=".3"/><path fill="#EA8800" d="M42.487 35.099c-.195 1.606-.195 1.606-1.232.309-1.434-1.805 1.507-2.54 1.232-.309z"/><path fill="#6E0000" d="M47.959 41.067c.646 2.245-1.696 2.829-2.343.582-.644-2.246 1.697-2.831 2.343-.582z" opacity=".3"/><path fill="#EA8800" d="M47.466 41.415c-.2 1.605-.2 1.605-1.232.307-1.436-1.803 1.507-2.537 1.232-.307z"/><path fill="#6E0000" d="M50.507 51.912c-.193 2.308-2.617 2.071-2.424-.236.195-2.308 2.617-2.072 2.424.236z" opacity=".3"/><path fill="#EA8800" d="M49.916 52.073c-.765 1.43-.765 1.43-1.278-.124-.71-2.159 2.337-1.861 1.278.124z"/><path fill="#6E0000" d="M45.593 58.35c-.92 2.292-3.34 1.346-2.42-.948.92-2.29 3.341-1.342 2.42.948z" opacity=".3"/><path fill="#EA8800" d="M44.898 58.313c-1.155 1.154-1.155 1.154-1.196-.469-.052-2.251 2.8-1.134 1.196.469z"/><path fill="#6E0000" d="M43.495 48.987c.984 2.215-1.316 3.134-2.303.916-.989-2.215 1.315-3.132 2.303-.916z" opacity=".3"/><path fill="#EA8800" d="M43.022 49.413c.029 1.623.029 1.623-1.177.469-1.672-1.602 1.129-2.72 1.177-.469z"/><path fill="#6E0000" d="M31.272 52.3c1.474 1.922-.505 3.323-1.981 1.4-1.476-1.92.505-3.321 1.981-1.4z" opacity=".3"/><path fill="#EA8800" d="M30.931 52.819c.42 1.574.42 1.574-1.025.719-2.009-1.185.435-2.911 1.025-.719z"/><path fill="#6E0000" d="M33.734 46.999c1.476 1.924-.51 3.327-1.988 1.402-1.478-1.923.505-3.328 1.988-1.402z" opacity=".3"/><path fill="#EA8800" d="M33.388 47.519c.421 1.576.421 1.576-1.025.721-2.009-1.188.435-2.913 1.025-.721z"/><path fill="#6E0000" d="M39.629 42.411c.767 2.326-1.656 3.026-2.422.697-.767-2.325 1.655-3.025 2.422-.697z" opacity=".3"/><path fill="#EA8800" d="M39.095 42.794c-.135 1.613-.135 1.613-1.22.351-1.501-1.75 1.408-2.591 1.22-.351z"/><path fill="#6E0000" d="M28.343 42.096c.737 2.237-1.593 2.913-2.33.671-.74-2.239 1.592-2.913 2.33-.671z" opacity=".3"/><path fill="#EA8800" d="M27.855 42.466c-.136 1.611-.136 1.611-1.219.352-1.505-1.755 1.406-2.594 1.219-.352z"/><path fill="#6E0000" d="M23.815 46.321c1.074 2.112-1.116 3.118-2.188 1.004-1.074-2.111 1.116-3.117 2.188-1.004z" opacity=".3"/><path fill="#EA8800" d="M23.394 46.759c.116 1.622.116 1.622-1.147.525-1.754-1.519.985-2.773 1.147-.525z"/><path fill="#6E0000" d="M17.406 39.353c1.125 2.215-1.174 3.271-2.299 1.053-1.128-2.216 1.172-3.27 2.299-1.053z" opacity=".3"/><path fill="#EA8800" d="M16.927 39.815c.117 1.619.117 1.619-1.146.524-1.755-1.522.983-2.775 1.146-.524z"/><path fill="#6E0000" d="M33.999 36.386c.148 2.371-2.331 2.469-2.484.096-.153-2.368 2.329-2.467 2.484-.096z" opacity=".3"/><path fill="#EA8800" d="M33.405 36.628c-.541 1.522-.541 1.522-1.275.051-1.02-2.047 2.031-2.168 1.275-.051z"/><path fill="#6E0000" d="M21.713 29.067c.145 2.278-2.242 2.375-2.385.094-.147-2.279 2.239-2.375 2.385-.094z" opacity=".3"/><path fill="#EA8800" d="M21.17 29.307c-.542 1.523-.542 1.523-1.274.051-1.023-2.046 2.027-2.169 1.274-.051z"/><path fill="#6E0000" d="M24.108 35.706c.156 2.406-2.362 2.506-2.519.098-.153-2.405 2.366-2.506 2.519-.098z" opacity=".3"/><path fill="#EA8800" d="M23.502 35.949c-.541 1.521-.541 1.521-1.278.05-1.018-2.045 2.032-2.166 1.278-.05z"/><path fill="#6E0000" d="M15.448 31.974c-.643 2.416-3.19 1.738-2.55-.679.641-2.417 3.188-1.74 2.55.679z" opacity=".3"/><path fill="#EA8800" d="M14.734 32.011c-1.002 1.28-1.002 1.28-1.24-.329-.327-2.238 2.636-1.451 1.24.329z"/><path fill="#6E0000" d="M18.603 25.244c-1.375 1.99-3.495.605-2.116-1.39 1.374-1.992 3.495-.604 2.116 1.39z" opacity=".3"/><path fill="#EA8800" d="M17.954 25.08c-1.389.884-1.389.884-1.067-.701.441-2.204 2.994-.53 1.067.701z"/><path fill="#6E0000" d="M29.526 22.726c.451 2.403-2.059 2.799-2.514.392-.453-2.405 2.06-2.802 2.514-.392z" opacity=".3"/><path fill="#EA8800" d="M28.937 23.04c-.347 1.578-.347 1.578-1.254.195-1.265-1.919 1.742-2.389 1.254-.195z"/><path fill="#6E0000" d="M30.225 29.439c.438 2.324-1.993 2.706-2.431.379-.44-2.328 1.99-2.706 2.431-.379z" opacity=".3"/><path fill="#EA8800" d="M29.676 29.748c-.348 1.577-.348 1.577-1.257.195-1.26-1.919 1.744-2.389 1.257-.195z"/><path fill="#6E0000" d="M38.96 54.774c1.489 1.94-.514 3.357-2.003 1.414-1.49-1.938.511-3.356 2.003-1.414z" opacity=".3"/><path fill="#EA8800" d="M38.604 55.299c.423 1.577.423 1.577-1.022.724-2.009-1.19.435-2.915 1.022-.724z"/><path fill="#6E0000" d="M50.181 32.988c.451 2.259-1.904 2.656-2.358.397-.453-2.26 1.905-2.656 2.358-.397z" opacity=".3"/><path fill="#EA8800" d="M49.675 33.296c-.336 1.584-.336 1.584-1.261.211-1.284-1.903 1.716-2.408 1.261-.211z"/><path fill="#6E0000" d="M56.443 28.091c.66 2.263-1.698 2.859-2.355.599-.661-2.264 1.693-2.862 2.355-.599z" opacity=".3"/><path fill="#EA8800" d="M55.942 28.446c-.191 1.605-.191 1.605-1.232.312-1.442-1.8 1.498-2.546 1.232-.312z"/><path fill="#6E0000" d="M48.374 14.069c1.852 1.692.114 3.465-1.734 1.771-1.851-1.693-.116-3.464 1.734-1.771z" opacity=".3"/><path fill="#EA8800" d="M48.11 14.662c.703 1.49.703 1.49-.873.89-2.185-.832-.107-2.955.873-.89z"/><path fill="#6E0000" d="M43.718 26.118c1.377 1.893-.577 3.195-1.95 1.306-1.376-1.894.579-3.196 1.95-1.306z" opacity=".3"/><path fill="#EA8800" d="M43.396 26.603c.38 1.59.38 1.59-1.041.696-1.973-1.237.514-2.898 1.041-.696z"/><path fill="#6E0000" d="M54.049 19.567c1.468 2.012-.614 3.398-2.078 1.387-1.462-2.012.62-3.399 2.078-1.387z" opacity=".3"/><path fill="#EA8800" d="M53.665 20.094c.379 1.589.379 1.589-1.043.695-1.975-1.236.516-2.898 1.043-.695z"/><path fill="#6E0000" d="M35.489 21.321c1.587 1.818-.287 3.329-1.871 1.513-1.588-1.821.288-3.332 1.871-1.513z" opacity=".3"/><path fill="#EA8800" d="M35.189 21.853c.522 1.553.522 1.553-.973.784-2.078-1.065.244-2.938.973-.784z"/><path fill="#6E0000" d="M42.29 18.563c1.563 1.792-.283 3.281-1.845 1.488-1.563-1.788.285-3.277 1.845-1.488z" opacity=".3"/><path fill="#EA8800" d="M42.003 19.084c.524 1.553.524 1.553-.975.785-2.076-1.066.245-2.937.975-.785z"/><path fill="#6E0000" d="M48.94 23.026c1.624 1.861-.293 3.407-1.914 1.548-1.621-1.862.295-3.406 1.914-1.548z" opacity=".3"/><path fill="#EA8800" d="M48.62 23.577c.522 1.55.522 1.55-.974.785-2.079-1.067.244-2.939.974-.785z"/><path fill="#6E0000" d="M56.03 37.187c-.591 2.134-2.84 1.512-2.25-.621.59-2.137 2.838-1.512 2.25.621z" opacity=".3"/><path fill="#EA8800" d="M55.464 37.259c-1.016 1.267-1.016 1.267-1.234-.345-.307-2.239 2.651-1.423 1.234.345z"/><path fill="#6E0000" d="M52.925 44.866c-.135 2.25-2.494 2.074-2.36-.178.128-2.251 2.493-2.072 2.36.178z" opacity=".3"/><path fill="#EA8800" d="M52.37 45.046c-.729 1.446-.729 1.446-1.276-.098-.767-2.144 2.284-1.914 1.276.098z"/><radialGradient id="b" cx="85.581" cy="-204.201" r="16.974" fx="76.573" fy="-204.223" gradientTransform="matrix(.3516 .901 -1.5605 .5816 -309.905 75.05)" gradientUnits="userSpaceOnUse"><stop offset="0" style="stop-color:#ffc3a1;stop-opacity:.4"/><stop offset="1" style="stop-color:#ffc3a1;stop-opacity:0"/></radialGradient><path fill="url(#b)" d="M28.12 16.072c-5.458 1.408-9.282 1.384-13.056 5.493-4.299 4.682-6.657 10.592-5.189 16.54 2.304 9.336 23.47 20.883 27.171 22.75 5.779 2.914 11.888-.105 14.561-4.879 3.219-5.75 9.09-22.512 6.927-31.817-2.312-9.941-8.703-13.139-16.864-13.077-3.741.029-9.29 3.929-13.55 4.99z"/><path fill="#449C00" d="M5 20.454c4.739 5.012 17.321.981 20.901-4.774C17.835 13.714 11.468 22.255 5 20.454z"/><path fill="#449C00" d="M9.802 25.805c11.963-.008 11.923-8.167 16.1-10.125-7.598-.501-15.896 5.37-16.1 10.125z"/><path fill="#56AB15" d="M9.802 25.805c5.516-2.616 7.528-8.099 16.1-10.125-8.136-.79-16.293 5.036-16.1 10.125zM45.861 4.262c.431 6.734-10.964 12.314-17.538 10.633 4.014-6.806 14.482-5.019 17.538-10.633z"/><path fill="#449C00" d="M25.188 15.524c2.328 1.149 4.222-.916 4.222-.916-2.678-1.534-3.634-8.386-8.992-12.555-.388-.301-1.819.757-1.667.908 1.374 1.352 7.402 8.363 6.437 12.563z"/><path fill="#449C00" d="M22.551 28.743c4.635-1.616 7.743-9.847 5.264-13.513-7.006 1.19-6.954 8.958-5.264 13.513z"/><path fill="#56AB15" d="M22.551 28.743c.514-5.064.603-10.672 5.264-13.513-7.988.286-9.861 8.465-5.264 13.513zm24.458-17.715c-8.238 8.072-14.065 2.438-18.347 3.912 4.87-5.475 14.794-7.042 18.347-3.912z"/><path fill="#449C00" d="M47.009 11.028c-5.674 1.927-10.992-.483-18.347 3.912 5.032-6.036 14.829-7.54 18.347-3.912z"/><path fill="#56AB15" d="M36.06 18.828s-1.965-3.659-6.981-4.756c-5.934 3.635 4.619 8.101 6.981 4.756z"/><path fill="#449C00" d="M37.108 17.34c-1.86-.888-3.566-3.854-8.03-3.268 2.206.824 5.292 7.451 8.03 3.268z"/><path fill="#56AB15" d="M28.985 18.795c6.196 4.449 10.844-1.3 7.303-2.983.188 2.76-1.832 4.444-7.303 2.983z"/></svg>