<svg xmlns="http://www.w3.org/2000/svg" xml:space="preserve" viewBox="0 0 64 64"><path fill="#449C00" d="M31.402 15.822c6.643 4.285 16.01-1.736 20.277-7.183.001 0-17.098-2.547-20.277 7.183z"/><path fill="#56AB15" d="M31.402 15.822C35.511 6.694 51.68 8.639 51.68 8.639c-8.465-5.903-22.863-1.203-20.278 7.183z"/><path fill="#785647" d="M30.596 20.022c2.818-3.594.066-14.935-2.967-13.964-4.126 1.319 3.864 3.228 2.967 13.964z"/><path fill="#449C00" d="M30.598 17.046c-6.701 5.924-18.205.784-23.905-4.582-.001 0 18.693-5.762 23.905 4.582z"/><path fill="#56AB15" d="M30.598 17.046C24.45 7.535 6.692 12.464 6.692 12.464c8.466-8.045 25.372-5.241 23.906 4.582z"/><radialGradient id="a" cx="32.911" cy="21.136" r="29.511" gradientTransform="matrix(1 -.0048 .006 1.2474 -.127 -5.07)" gradientUnits="userSpaceOnUse"><stop offset="0" style="stop-color:#ffbf5e"/><stop offset=".225" style="stop-color:#ffba5c"/><stop offset=".49" style="stop-color:#ffac57"/><stop offset=".774" style="stop-color:#ff944e"/><stop offset="1" style="stop-color:#ff7c45"/></radialGradient><path fill="url(#a)" d="M31.033 15.661s-3.379-1.931-9.653-1.931C15.104 13.73 4 18.104 4 33.037 4 52.352 21.919 62 29.104 62 37.67 62 60 53.285 60 34.004c0-20.06-21.1-22.574-28.967-18.343z"/><radialGradient id="b" cx="16.461" cy="40.316" r="29.277" fx="45.326" fy="45.212" gradientTransform="matrix(-.2048 -.9788 .9706 -.203 -19.3 64.615)" gradientUnits="userSpaceOnUse"><stop offset=".685" style="stop-color:#f04a00;stop-opacity:0"/><stop offset=".856" style="stop-color:#f04a00;stop-opacity:.4399"/><stop offset=".879" style="stop-color:#f04a00;stop-opacity:.5"/><stop offset="1" style="stop-color:#f04a00;stop-opacity:0"/></radialGradient><path fill="url(#b)" d="M31.033 15.661s-3.379-1.931-9.653-1.931C15.104 13.73 4 18.104 4 33.037 4 52.352 21.919 62 29.104 62 37.67 62 60 53.285 60 34.004c0-20.06-21.1-22.574-28.967-18.343z"/><radialGradient id="c" cx="117.314" cy="-298.367" r="17.982" gradientTransform="matrix(-1.0948 .2935 .4166 .7877 284.122 231.257)" gradientUnits="userSpaceOnUse"><stop offset="0" style="stop-color:#fff5c2;stop-opacity:.4"/><stop offset="1" style="stop-color:#fff5c2;stop-opacity:0"/></radialGradient><path fill="url(#c)" d="M11.698 35.943c4.137 7.822 16.307 11.801 27.176 8.885 10.878-2.916 16.34-11.619 12.202-19.442-4.141-7.825-16.311-11.801-27.18-8.885-10.877 2.914-16.338 11.62-12.198 19.442z"/></svg>