<svg xmlns="http://www.w3.org/2000/svg" xml:space="preserve" viewBox="0 0 64 64"><radialGradient id="a" cx="240.647" cy="335.932" r="7.006" gradientTransform="matrix(.697 -.815 -.697 -.815 78.482 473.914)" gradientUnits="userSpaceOnUse"><stop offset="0" style="stop-color:#e0dad8"/><stop offset=".407" style="stop-color:#dbd4d1"/><stop offset=".987" style="stop-color:#ccc2bf"/><stop offset="1" style="stop-color:#ccc2be"/></radialGradient><path fill="url(#a)" fill-rule="evenodd" d="M16.152 9.277c.211.714 1.698 1.481 7.471 8.507l-4.774 6.376c-4.113-6.338-7.264-9.438-7.739-9.71-14.202-8.221.534-20.434 5.042-5.173z" clip-rule="evenodd"/><radialGradient id="b" cx="233.308" cy="339.2" r="8.528" gradientTransform="matrix(.697 -.815 -.697 -.815 78.482 473.914)" gradientUnits="userSpaceOnUse"><stop offset="0" style="stop-color:#e0dad8"/><stop offset=".407" style="stop-color:#dbd4d1"/><stop offset=".987" style="stop-color:#ccc2bf"/><stop offset="1" style="stop-color:#ccc2be"/></radialGradient><path fill="url(#b)" fill-rule="evenodd" d="M12.05 14.934C-.458 16.234.121 3.748 6.137 4.429c7.179.814 9.147 10.168 5.913 10.505z" clip-rule="evenodd"/><radialGradient id="c" cx="-379.816" cy="300.978" r="23.453" gradientTransform="matrix(-.6655 .8488 -1.0566 -1.0894 107.464 681.393)" gradientUnits="userSpaceOnUse"><stop offset="0" style="stop-color:#d6863a"/><stop offset=".209" style="stop-color:#d38338"/><stop offset=".386" style="stop-color:#ca7833"/><stop offset=".552" style="stop-color:#bb672b"/><stop offset=".711" style="stop-color:#a54e20"/><stop offset=".863" style="stop-color:#8a2e11"/><stop offset="1" style="stop-color:#6b0b00"/></radialGradient><path fill="url(#c)" d="M30.913 54.761C50.93 74.78 75.512 49.155 53.086 27.889c-7.453-7.068-21.371-8.42-25.848-9.486-2.753-.656-4.806-3.469-4.806-3.469s-.643 1.951-.998 4.162c-1.985-1.844-3.721-3.063-3.721-3.063s-.221 2.742.311 5.542c-1.168.357-2.016.725-2.016.725s2.455 2.354 3.025 5.511c1.613 8.904 4.733 19.803 11.88 26.95z"/><path fill="#BF5D17" d="M30.074 27.763c0 1.365-.75-.8-3.281 0 .546-1.881 2.606-2.138 3.281 0zm17.071 22.149c-1.347 1.429 0-1.812-3.438-4.253 2.425-1.263 4.837 1.135 3.438 4.253zm-12.639-5.45c-1.446 1.291.137-1.801-3.104-4.575 2.51-1.02 4.733 1.606 3.104 4.575zm8.122-9.229c-.83 1.103-.12-1.246-2.649-2.625 1.585-1.082 3.404.356 2.649 2.625zM40.357 25.01c-.332 1.407-.58-1.063-3.381-1.047 1.021-1.763 3.206-1.371 3.381 1.047zM52.026 40.7c-.515 1.368-.45-1.172-3.288-1.628 1.258-1.612 3.419-.849 3.288 1.628z"/></svg>