<svg xmlns="http://www.w3.org/2000/svg" xml:space="preserve" style="enable-background:new 0 0 64 64" viewBox="0 0 64 64"><linearGradient id="a" x1="0" x2="53.333" y1="48.312" y2="48.312" gradientUnits="userSpaceOnUse"><stop offset="0" style="stop-color:#e6ebef"/><stop offset=".286" style="stop-color:#e2e8ec"/><stop offset=".56" style="stop-color:#d7dfe3"/><stop offset=".83" style="stop-color:#c3cfd3"/><stop offset="1" style="stop-color:#b3c2c6"/></linearGradient><path d="M26.667 34.623H0C0 56.983 16.223 62 26.667 62c10.443 0 26.666-5.018 26.666-27.377H26.667z" style="fill:url(#a)"/><linearGradient id="b" x1="0" x2="53.333" y1="42.38" y2="42.38" gradientUnits="userSpaceOnUse"><stop offset="0" style="stop-color:#f5000d"/><stop offset=".271" style="stop-color:#f2010d"/><stop offset=".509" style="stop-color:#e7060f"/><stop offset=".734" style="stop-color:#d50d11"/><stop offset=".903" style="stop-color:#c21413"/></linearGradient><path d="M53.333 34.623c0 10.677-8.77 15.515-26.666 15.515C8.772 50.138 0 45.3 0 34.623h53.333z" style="fill:url(#b)"/><path d="M26.667 23.23c14.729 0 26.666 4.842 26.666 11.393 0 6.554-11.938 11.865-26.666 11.865S0 41.177 0 34.623c0-6.55 11.94-11.392 26.667-11.392z" style="fill:#e6ebef"/><linearGradient id="c" x1="1.777" x2="51.557" y1="34.624" y2="34.624" gradientUnits="userSpaceOnUse"><stop offset="0" style="stop-color:#b3c2c6"/><stop offset=".252" style="stop-color:#c0ccd0"/><stop offset=".618" style="stop-color:#cbd5da"/><stop offset="1" style="stop-color:#cfd8dd"/></linearGradient><path d="M26.669 24.586c-13.746 0-24.892 4.496-24.892 10.037 0 5.544 11.146 10.04 24.892 10.04 13.745 0 24.888-4.496 24.888-10.04 0-5.54-11.143-10.037-24.888-10.037z" style="fill:url(#c)"/><linearGradient id="d" x1="26.668" x2="26.668" y1="44.663" y2="28.238" gradientUnits="userSpaceOnUse"><stop offset="0" style="stop-color:#ad6928"/><stop offset=".323" style="stop-color:#bc7d2e"/><stop offset=".984" style="stop-color:#e2b23d"/><stop offset="1" style="stop-color:#e3b33d"/></linearGradient><path d="M26.669 28.238c-12.2 0-22.342 3.54-24.47 8.212 2.128 4.668 12.27 8.213 24.47 8.213 12.197 0 22.339-3.545 24.469-8.213-2.13-4.672-12.269-8.212-24.469-8.212z" style="fill:url(#d)"/><linearGradient id="e" x1="91.876" x2="91.876" y1="56.19" y2="48.827" gradientTransform="matrix(.8838 -.4242 .3017 .9867 -87.37 17.494)" gradientUnits="userSpaceOnUse"><stop offset="0" style="stop-color:#2a302b"/><stop offset=".281" style="stop-color:#354036"/><stop offset=".827" style="stop-color:#526954"/><stop offset="1" style="stop-color:#5c785e"/></linearGradient><path d="M13.646 25.326c-.111-.045-1.254.473-2.126.755-.47.15-1.031.27-1.605.474-.506.178-1.004.465-1.536.665-.53.2-1.11.27-1.612.471-.564.222-1.048.547-1.5.744-.81.354-1.78.629-1.867.766-.144.235.294.769.411 1.47.074.44.135.95.27 1.467.126.474.201.985.357 1.453.169.5.75 1.457.948 1.685.198.23.484-.225 1.175-.296.429-.045 1.109-.324 1.652-.454.455-.11.71-.329 1.21-.486.469-.149.956-.094 1.43-.273.473-.178.918-.502 1.367-.7.479-.21 1.063-.286 1.48-.506a10.3 10.3 0 0 0 1.222-.78c.565-.403 1.154-.506 1.149-.811-.006-.282-.37-1.062-.584-1.543-.202-.448-.52-.86-.745-1.294-.244-.473-.35-.994-.588-1.373-.376-.604-.267-1.337-.508-1.434z" style="fill:url(#e)"/><path d="M10.217 31.77c.538.91 1.616.482 2.15-.042.546-.533-2.523-.591-2.15.042zm.573-1.224c.953.187 1.064-.494.866-.976-.2-.49-1.532.845-.867.976zm-3.857-.004c.955.188 1.067-.492.87-.974-.201-.49-1.535.845-.87.974zm.632.82c-.826.365-.253.924.338 1.173.604.256.235-1.427-.338-1.173zm4.779-2.19c.536.908 1.619.481 2.15-.043.543-.535-2.527-.592-2.15.043zm1.889 1.621c.952.185 1.063-.494.868-.975-.202-.49-1.535.844-.868.975zm-1.379-.357c-.82.365-.25.922.34 1.174.604.256.234-1.429-.34-1.174zm-.55-4.188c.347.59 1.047.313 1.394-.028.354-.346-1.638-.383-1.394.028zm-.094 2.049c.617.12.689-.322.56-.634-.131-.318-.992.55-.56.634zm-3.495 1.279c.617.121.687-.321.56-.632-.129-.32-.992.548-.56.632zm-4.21 1.076c.616.12.687-.32.56-.633-.131-.319-.993.549-.56.633zm1.55 1.915c.62.12.69-.32.562-.635-.132-.317-.993.55-.562.635zm5.551-1.454c.617.12.688-.32.56-.634-.132-.318-.993.55-.56.634zm-.201-1.926c.62.12.69-.32.562-.633-.13-.32-.993.548-.562.633zm2.059-2.02c-.532.237-.162.6.22.763.393.164.153-.927-.22-.763zm-3.913.747c-.533.235-.163.597.22.76.391.166.154-.926-.22-.76zm-.36 3.786c-.534.235-.162.597.223.761.39.163.152-.927-.223-.762zm2.939-4.538c-.536-.909-1.62-.482-2.15.042-.546.533 2.526.592 2.15-.042zm-2.89.16c-.954-.187-1.066.494-.87.976.202.49 1.532-.846.87-.976zm1.846.676c-.952-.187-1.065.495-.867.976.2.49 1.533-.846.867-.976zM7.587 29.28c.825-.364.25-.923-.34-1.173-.603-.255-.235 1.427.34 1.172zm-.757 1.836c-.536-.907-1.62-.48-2.153.044-.541.535 2.528.593 2.152-.044z" style="opacity:.4;fill:#2a302b"/><path d="M4.92 29.113c-.952-.185-1.062.494-.866.976.201.49 1.533-.846.866-.976z" style="opacity:.4;fill:#2a302b"/><path d="M5.93 30.264c.822-.366.25-.923-.343-1.173-.602-.257-.232 1.426.343 1.173zm3.629.707c.881.049.715-.717.365-1.216-.36-.508-.98 1.182-.365 1.216zm-2.63 2.499c-.346-.59-1.047-.313-1.393.027-.353.346 1.637.383 1.393-.028zm-1.663-1.173c-.617-.12-.69.322-.562.636.132.317.994-.55.562-.636zm3.326-1.353c.532-.236.16-.599-.223-.76-.392-.167-.151.926.223.76z" style="opacity:.4;fill:#2a302b"/><path d="M37.897 36.563c-.302 0-.6-.011-.884-.037-.53-.045-1.496-.262-1.747-.798-.075-.16-.115-.417.12-.735.731-.991 2.731-1.323 4.174-1.486.148-.018.359-.03.601-.043.83-.047 2.373-.135 2.517-.636a.213.213 0 0 0-.04-.204c-.292-.38-1.661-.537-2.453-.546-.385-.007-.583-.25-.58-.488.001-.23.197-.462.569-.462.932.016 2.253.105 3.089.701.356.256.58.583.617.901a.813.813 0 0 1-.212.64c-.464.522-1.333.839-2.58.943-.19.015-.384.03-.584.044-.96.075-2.05.159-2.943.383-.652.165-1.046.465-1.04.649.002.114.202.221.52.28.264.05.56.073.886.073 1.739 0 3.97-.683 5.763-1.232l.472-.144c.356-.108.68.072.727.374.03.198-.081.442-.399.536-1.795.544-4.253 1.287-6.593 1.287zm-21.365 4.642c-.298 0-.59-.013-.872-.036-.534-.049-1.503-.271-1.75-.807-.076-.159-.114-.414.12-.73.727-.983 2.73-1.32 4.172-1.487.15-.018.361-.03.607-.043.829-.047 2.37-.132 2.516-.632a.22.22 0 0 0-.042-.206c-.292-.38-1.627-.535-2.454-.548-.385-.006-.583-.248-.58-.484.001-.23.2-.463.571-.463 1.448.017 2.452.248 3.088.7.356.256.58.583.617.898a.808.808 0 0 1-.212.64c-.463.524-1.331.843-2.58.947l-.566.044c-.967.071-2.062.154-2.96.383-.65.163-1.047.464-1.04.648.004.114.202.221.52.28.263.048.56.072.885.072 1.728 0 3.95-.675 5.736-1.22l.504-.153c.348-.107.676.07.723.37.03.198-.08.442-.395.537-2.248.68-4.443 1.29-6.608 1.29z" style="fill:#ffe485"/><path d="M18.278 35.248c-.811 0-2.25-.101-2.756-.783-.217-.29-.233-.64-.046-1.041 1.329-2.858 8.78-3.275 11.962-3.454a91.788 91.788 0 0 1 5.061-.145c4.371 0 10.246.364 13.412 2.09.996.542 1.44 1.088 1.32 1.621-.166.727-1.346 1.137-2.098 1.235-.493.053-.763-.198-.792-.437-.022-.176.088-.407.473-.484.625-.124.982-.297.985-.476.005-.544-2.45-1.425-3.49-1.65-2.888-.631-6.154-.952-9.708-.952l-.445.002c-3.691.027-7.59.163-11.102.972-1.132.26-2.682.614-3.66 1.258-.518.34-.76.647-.68.865.11.296.807.496 1.734.496 1.128 0 2.33-.283 3.136-.738.198-.111.401-.134.54-.134.303 0 .552.11.632.283.037.077.07.229-.12.402-.755.695-2.809 1.07-4.358 1.07z" style="fill:#ffe485"/><path d="M19.267 33.267h-.014c-.919-.013-2.236-.101-3.075-.7-.355-.254-.58-.582-.616-.898a.817.817 0 0 1 .213-.644c.46-.521 1.327-.838 2.577-.943l.574-.045c.964-.073 2.056-.156 2.953-.383.65-.163 1.046-.464 1.04-.648-.003-.114-.202-.223-.52-.283a4.92 4.92 0 0 0-.88-.072c-1.744 0-3.984.687-5.785 1.238l-.457.14c-.355.107-.678-.072-.725-.373-.03-.199.08-.442.396-.539 1.798-.543 4.258-1.286 6.598-1.286.3 0 .597.013.88.036.531.046 1.498.266 1.749.802.075.16.113.415-.12.732-.723.985-2.728 1.322-4.172 1.49a10.7 10.7 0 0 1-.596.04c-.832.047-2.383.131-2.525.636a.219.219 0 0 0 .039.205c.292.38 1.628.537 2.456.547.383.005.583.246.58.483 0 .232-.197.465-.57.465z" style="fill:#ffe485"/><path d="M37.066 33.624c-.89.64-2.312.996-3.352 1.258-3.213.807-6.78.945-10.156.974l-.41.001c-3.25 0-6.239-.32-8.882-.95-.95-.227-3.197-1.11-3.192-1.651.002-.18.33-.354.903-.48.351-.078.452-.308.431-.483-.028-.238-.299-.496-.724-.435-.689.098-1.767.506-1.92 1.233-.112.534.295 1.08 1.206 1.623 2.895 1.727 8.27 2.088 12.267 2.088h.001c1.497 0 3.057-.049 4.638-.145 4.528-.276 9.866-.918 10.948-3.455.06-.14-1.364.14-1.758.422zm6.78 7.852c-.53 0-.98-.146-1.233-.4a.873.873 0 0 1-.257-.666c.027-1.098 1.338-1.86 2.323-2.336.101-.05.253-.107.427-.175.603-.234 1.615-.626 1.47-1.095-.078-.252-.384-.38-.913-.38-.492 0-1.054.12-1.308.191a.54.54 0 0 1-.15.022.59.59 0 0 1-.572-.482c-.027-.204.087-.367.299-.424 1.1-.304 1.932-.308 2.623-.029.573.233 1.12.725 1.052 1.299-.07.606-.554 1.106-1.435 1.485l-.406.172c-.694.29-1.41.591-1.94.99-.372.28-.478.591-.42.76.066.188.327.217.477.217l.087-.003c1.45-.083 3.053-1.485 4.223-2.51l.279-.244a.434.434 0 0 1 .285-.107c.215 0 .44.165.524.383a.414.414 0 0 1-.11.478c-1.191 1.032-2.824 2.448-4.858 2.814-.146.026-.307.04-.467.04zm-18.491 3.137c-.035 0-.068 0-.101-.002-.29-.013-.422-.22-.422-.406.001-.22.178-.459.5-.472.335-.014.75-.083.812-.326.135-.499-1.025-1.55-1.57-1.88-1.662-1.013-3.693-1.786-6.037-2.295-1.918-.421-3.986-.811-6.107-.811-.423 0-.841.016-1.245.048-.812.06-1.924.145-2.766.561-.542.266-.82.551-.763.786.075.303.713.618 1.654.618a3.8 3.8 0 0 0 1.43-.272c.308-.129.67-.014.748.227.05.154-.024.315-.196.431-.411.279-1.11.439-1.917.439-1.092 0-2.344-.306-2.678-.991-.12-.245-.17-.649.269-1.18.886-1.076 2.553-1.621 4.952-1.621 1.564 0 3.139.236 3.894.349 3.304.489 9.127 1.711 10.985 4.41.522.756.436 1.273.272 1.575-.303.558-1.1.812-1.714.812z" style="fill:#ffe485"/><path d="M24.512 34.554a27.97 27.97 0 0 1-1.602-.046c-.065-.004-.162-.007-.281-.012-.987-.031-3.3-.106-3.822-.95-.149-.241-.148-.52.005-.827.373-.753 1.405-1.104 3.249-1.104.977 0 2.053.095 3.094.187.935.08 1.817.159 2.536.159.466 0 2.791-.06 2.791-1.254 0-.438-1.046-.837-2.666-1.016l-.117-.012c-.58-.065-1.376-.154-2.138-.154-.768 0-1.358.092-1.75.275-.14.064-.158.105-.158.106.088.201 1.66.531 3.566.531.173 0 .32.05.427.142a.45.45 0 0 1 .163.339c0 .232-.204.469-.59.469h-.256c-1.833 0-4.008-.118-4.562-1.051-.135-.223-.16-.442-.072-.652.194-.474.893-.726 1.293-.834.536-.146 1.416-.228 2.414-.228 2.105 0 4.826.36 5.573 1.375.206.28.253.59.14.922-.455 1.328-1.892 1.973-4.39 1.973-.894 0-1.933-.08-3.174-.245a14.228 14.228 0 0 0-1.849-.126c-1.652 0-2.418.328-2.444.495-.006.042.085.181.584.335.631.192 1.779.298 3.232.298.708 0 1.447-.026 2.139-.073 3.142-.217 5.985-.797 8.453-1.724.374-.144.82.065.878.378.03.152-.036.353-.315.457a29.74 29.74 0 0 1-10.351 1.867zm13.132 8.72c-1.615 0-2.654-.537-2.926-1.512-.208-.748-.13-1.384.23-1.89.61-.857 2.012-1.357 4.41-1.57 1.917-.174 2.888-.865 2.893-1.202.002-.164-.249-.293-.672-.343-1.009-.116-2.812.388-4.047.891-2.17.884-3.922 2.09-5.205 3.58a.425.425 0 0 1-.33.15.713.713 0 0 1-.603-.388.405.405 0 0 1 .054-.45c1.956-2.278 4.721-3.866 7.788-4.467.053-.01.128-.027.222-.049.397-.092 1.135-.265 1.845-.265 1.407 0 1.823.684 1.923 1.257.065.377-.01.71-.22.996-.627.852-2.331 1.112-3.977 1.363-.73.11-1.419.215-1.943.367-.333.096-1.136.38-1.382.948-.12.279-.088.593.098.935.266.496 1.088.599 1.728.599.333 0 .634-.029.827-.051l.086-.01c.865-.102 2.308-.27 2.743-.919.03-.046.063-.107.04-.146-.043-.082-.289-.177-.83-.177-.618 0-1.425.122-2.105.32a.536.536 0 0 1-.14.019c-.322 0-.577-.284-.615-.549-.03-.213.081-.382.293-.442l.087-.025c.559-.163 1.495-.433 2.397-.433.72 0 1.278.178 1.658.53.279.256.417.54.41.843-.008.448-.331.789-.523.952-.648.55-2.496 1.138-4.214 1.138zM9.71 38.785a.852.852 0 0 1-.16-.016c-.89-.182-2.143-.507-2.758-1.24-.245-.294-.359-.634-.315-.933.036-.25.18-.47.42-.632.612-.422 1.54-.575 2.8-.449.181.018.369.04.558.06 1.004.107 2.055.221 3.006.16.77-.046 1.22-.304 1.25-.472.016-.099-.138-.226-.403-.33-.636-.254-1.523-.376-2.71-.376-1.35 0-2.81.157-4.098.297l-.532.056c-.385.039-.584-.19-.598-.406-.013-.235.171-.495.55-.538 1.388-.145 2.747-.277 4.127-.277 1.383 0 2.54.136 3.538.415.643.18 1.335.576 1.438 1.056.037.178.008.452-.342.734-.62.495-1.665.734-3.194.734-.399 0-.823-.016-1.334-.05-.15-.011-.362-.038-.604-.068-.462-.058-1.038-.132-1.55-.132-.606 0-.981.104-1.117.306-.05.076-.058.145-.028.218.176.407 1.429.797 2.179.945.334.067.46.299.44.497-.024.22-.225.441-.563.441zm17.585 1.23a.707.707 0 0 1-.158-.018c-.89-.18-2.145-.505-2.76-1.238-.244-.294-.358-.636-.316-.935.037-.249.181-.468.422-.632.612-.42 1.54-.573 2.8-.447.182.018.37.037.559.059 1.002.106 2.052.221 3.004.16.77-.046 1.22-.303 1.248-.472.018-.098-.136-.225-.4-.33-.636-.253-1.523-.377-2.712-.377-1.35 0-2.808.158-4.096.298l-.532.058c-.387.037-.585-.193-.598-.407-.015-.235.17-.497.55-.538 1.387-.147 2.746-.278 4.128-.278 1.38 0 2.538.136 3.537.415.641.18 1.336.577 1.436 1.055.038.18.01.454-.342.735-.618.494-1.664.734-3.193.734-.398 0-.822-.017-1.334-.05a10.93 10.93 0 0 1-.602-.068c-.464-.058-1.04-.132-1.55-.132-.608 0-.984.103-1.12.306-.05.077-.058.145-.027.218.177.407 1.43.796 2.18.945.333.068.46.299.44.496-.024.22-.226.443-.564.443z" style="fill:#ffda54"/><path d="M24.314 43.007c-1.885 0-3.734-.196-5.45-.406-3.684-.449-12.592-1.827-15.755-4.933-.66-.65-.892-1.223-.688-1.706.289-.679 1.435-.98 2.296-.935.387.017.588.258.587.49-.002.213-.18.447-.57.459-.641.02-1.02.141-1.06.341-.116.545 1.705 1.752 2.539 2.135 2.454 1.133 5.379 2.005 8.691 2.594 2.742.482 5.686.932 8.603.932.536 0 1.063-.016 1.571-.047 1.096-.067 2.595-.158 3.675-.62.622-.263.95-.553.898-.791-.083-.384-1.103-.795-2.493-.795-.685 0-1.339.102-1.889.297-.407.145-.912-.015-.995-.296-.022-.074-.042-.262.216-.42.494-.3 1.39-.472 2.461-.472 1.587 0 3.487.394 3.908 1.259.117.244.17.64-.25 1.143-.983 1.174-3.101 1.77-6.295 1.77z" style="fill:#ffda54"/><linearGradient id="f" x1="5.022" x2="18.355" y1="41.332" y2="41.332" gradientTransform="rotate(7.678 86.43 253.097)" gradientUnits="userSpaceOnUse"><stop offset="0" style="stop-color:#f5efe6"/><stop offset="1" style="stop-color:#e3d5c1"/></linearGradient><path d="M47.468 32.57c-.17 1.268-.453 1.891-1.218 2.632-3.066.334-7.813.68-10.714-.265-.97-1.061-1.506-2.464-1.28-4.165.166-1.235 13.376.564 13.212 1.797z" style="fill:url(#f)"/><path d="M47.468 32.57c-.166 1.232-3.257 1.829-6.904 1.333-3.647-.498-6.471-1.9-6.307-3.131.165-1.235 3.256-1.831 6.903-1.334 3.649.496 6.472 1.898 6.308 3.131z" style="fill:#faf4eb"/><linearGradient id="g" x1="10.629" x2="10.629" y1="40.852" y2="38.241" gradientTransform="rotate(7.678 86.43 253.097)" gradientUnits="userSpaceOnUse"><stop offset="0" style="stop-color:#ffbf24"/><stop offset=".242" style="stop-color:#fcb925"/><stop offset=".551" style="stop-color:#f4a927"/><stop offset=".897" style="stop-color:#e88f2c"/><stop offset="1" style="stop-color:#e3862d"/></linearGradient><path d="M43.503 31.831c-.096.714-1.813 1.07-3.839.795-2.021-.275-3.585-1.08-3.49-1.794.095-.713 1.814-1.07 3.837-.794 2.024.276 3.587 1.078 3.492 1.793z" style="fill:url(#g)"/><path d="M29.616 43.606c-.933 0-1.536-.447-1.695-1.26-.583-2.948 4.394-4.908 6.267-5.647 2.223-.875 6.513-2.346 10.266-2.346 1.175 0 2.22.146 3.112.432 1.37.438 1.703 1.036 1.744 1.461.054.578-.41 1.102-.865 1.343a.523.523 0 0 1-.25.063.608.608 0 0 1-.566-.395.383.383 0 0 1 .158-.45c.22-.15.467-.368.405-.564-.178-.554-2.353-.904-3.223-.904-2.366 0-4.803.39-7.264 1.16-2.441.76-4.969 1.663-6.905 3.121-.621.465-1.469 1.1-1.786 1.872-.16.388-.171.7-.033.902.13.186.395.288.748.288.794 0 1.931-.532 2.385-1.39a.572.572 0 0 1 .516-.294c.166 0 .32.065.412.171a.41.41 0 0 1 .086.347c-.185.977-2.055 2.09-3.512 2.09z" style="fill:#ffe485"/><path d="M24.808 34.063s.046 2.12 2.527 1.44l.088-.663c-2.197.167-2.168-1.208-2.615-.777zm13.416 4.209s.046 2.118 2.528 1.438l.088-.663c-2.197.167-2.168-1.21-2.616-.775zm-4.714 2.721c-1.483 1.65-2.604.591-2.576 1.228-.001 0 1.798 1.574 3.062-.665l-.485-.563zm-9.766.505c-1.483 1.651-2.604.59-2.577 1.228-.001 0 1.799 1.574 3.062-.665l-.485-.563zm17.18-4.86c.16-2.125 1.493-1.634 1.14-2.2 0-.001-2.069-.673-1.77 1.894l.63.306zm-25.151.62-.973-.115c-.109 2.06-2.152 1.964-1.583 2.406-.002.002 3.173.062 2.556-2.291zm.309-8.123-.896.395c.955 1.829-.854 2.785-.14 2.878 0 .002 2.764-1.561 1.037-3.273zm-10.637 6 .623.698c1.313-1.4 2.711-.037 2.572-.713.002 0-2.222-2.051-3.195.015zM47.8 34.2l-.589.456c1.988 1.161.895 2.2 1.608 2.132.003 0 1.614-1.655-1.018-2.589z" style="fill:#529320"/><linearGradient id="h" x1="15.837" x2="15.837" y1="27.831" y2="10.016" gradientUnits="userSpaceOnUse"><stop offset="0" style="stop-color:#a9b0b3"/><stop offset=".316" style="stop-color:#bdc4c7"/><stop offset=".961" style="stop-color:#eff6fc"/><stop offset="1" style="stop-color:#f2f9ff"/></linearGradient><path d="M16.583 27.831s2.027-3.139-2.366-7.728c-4.78-4.987 2.366-6.813 2.366-10.087 0 0 1.163 1.303-.469 4.387-2.314 4.364 7.36 5.054.469 13.428z" style="opacity:.6;fill:url(#h);enable-background:new"/><linearGradient id="i" x1="33.772" x2="33.772" y1="26.609" y2="12.559" gradientUnits="userSpaceOnUse"><stop offset="0" style="stop-color:#a9b0b3"/><stop offset=".316" style="stop-color:#bdc4c7"/><stop offset=".961" style="stop-color:#eff6fc"/><stop offset="1" style="stop-color:#f2f9ff"/></linearGradient><path d="M33.187 12.559s-1.582 2.495 1.867 6.094c3.768 3.936-1.868 5.375-1.868 7.956 0 0-.916-1.027.37-3.46 1.817-3.442-5.814-3.995-.37-10.59z" style="opacity:.6;fill:url(#i);enable-background:new"/><linearGradient id="j" x1="40.84" x2="40.84" y1="27.607" y2="15.935" gradientUnits="userSpaceOnUse"><stop offset="0" style="stop-color:#a9b0b3"/><stop offset=".316" style="stop-color:#bdc4c7"/><stop offset=".961" style="stop-color:#eff6fc"/><stop offset="1" style="stop-color:#f2f9ff"/></linearGradient><path d="M40.353 15.935s-1.315 2.072 1.552 5.063c3.13 3.268-1.552 4.465-1.552 6.61 0 0-.761-.855.307-2.876 1.51-2.86-4.829-3.319-.306-8.797z" style="opacity:.6;fill:url(#j);enable-background:new"/><linearGradient id="k" x1="-1005.767" x2="-1002.679" y1="248.924" y2="248.897" gradientTransform="rotate(90 -361.41 650.56)" gradientUnits="userSpaceOnUse"><stop offset="0" style="stop-color:#ffbe5c"/><stop offset=".277" style="stop-color:#ffdcab"/><stop offset=".282" style="stop-color:#fedaa9"/><stop offset=".382" style="stop-color:#f3c284"/><stop offset=".486" style="stop-color:#e9ad65"/><stop offset=".595" style="stop-color:#e29d4e"/><stop offset=".711" style="stop-color:#dd923d"/><stop offset=".839" style="stop-color:#da8b33"/><stop offset="1" style="stop-color:#d98930"/></linearGradient><path d="M16.883 7.024 63.443 6c.742-.016.742 3.104 0 3.088l-46.56-1.023c-.539-.012-.539-1.03 0-1.041z" style="fill:url(#k)"/><linearGradient id="l" x1="-1005.852" x2="-1002.918" y1="233.877" y2="233.852" gradientTransform="rotate(90 -361.41 650.56)" gradientUnits="userSpaceOnUse"><stop offset="0" style="stop-color:#4d1808"/><stop offset=".277" style="stop-color:#ed8751"/><stop offset=".355" style="stop-color:#c66c3f"/><stop offset=".445" style="stop-color:#a1522e"/><stop offset=".538" style="stop-color:#823d20"/><stop offset=".637" style="stop-color:#6b2d16"/><stop offset=".741" style="stop-color:#5a210e"/><stop offset=".855" style="stop-color:#501a09"/><stop offset="1" style="stop-color:#4d1808"/></linearGradient><path d="M50.642 8.807V6.28l9.288-.204V9.01z" style="fill:url(#l)"/><path d="M22.038 33.64a.58.58 0 0 1-.15-.02.567.567 0 0 1-.382-.696c1.546-5.618.797-8.513-.073-11.864-.873-3.375-1.864-7.2-.765-14.48a.552.552 0 0 1 .628-.47c.3.048.508.336.461.644-1.064 7.046-.105 10.75.742 14.018.871 3.364 1.696 6.543.068 12.459a.552.552 0 0 1-.53.41z" style="fill:#ffe485"/><path d="M23.714 33.64a.563.563 0 0 1-.54-.675c1.572-7.915.439-12.146-.561-15.879-.887-3.31-1.652-6.165-.247-10.593a.55.55 0 0 1 .694-.362c.29.096.448.414.354.71-1.303 4.108-.613 6.684.261 9.947.982 3.665 2.202 8.224.58 16.402a.556.556 0 0 1-.54.45z" style="fill:#ffda54"/><path d="M25.43 33.64c-.05 0-.1-.007-.15-.02a.565.565 0 0 1-.381-.696c2.08-7.563.802-11.914-.327-15.755-.958-3.263-1.864-6.346-.491-10.676a.549.549 0 0 1 .694-.362c.29.096.449.414.354.71-1.268 3.995-.45 6.78.5 10.004 1.17 3.988 2.498 8.507.33 16.386a.552.552 0 0 1-.53.41z" style="fill:#ffda54"/><path d="M27.145 33.64a.543.543 0 0 1-.224-.047.568.568 0 0 1-.279-.745c1.68-3.85.73-8.089-.28-12.577-1.005-4.481-2.044-9.114-.566-13.778a.55.55 0 0 1 .694-.362c.29.096.449.414.354.71-1.385 4.366-.378 8.845.593 13.179 1.05 4.676 2.041 9.094.21 13.287a.552.552 0 0 1-.502.334z" style="fill:#ffe485"/><linearGradient id="m" x1="-1030.583" x2="-1027.497" y1="295.704" y2="295.677" gradientTransform="rotate(94.336 -363.286 649.432)" gradientUnits="userSpaceOnUse"><stop offset="0" style="stop-color:#ffbe5c"/><stop offset=".277" style="stop-color:#ffdcab"/><stop offset=".282" style="stop-color:#fedaa9"/><stop offset=".382" style="stop-color:#f3c284"/><stop offset=".486" style="stop-color:#e9ad65"/><stop offset=".595" style="stop-color:#e29d4e"/><stop offset=".711" style="stop-color:#dd923d"/><stop offset=".839" style="stop-color:#da8b33"/><stop offset="1" style="stop-color:#d98930"/></linearGradient><path d="m16.552 9.26 46.495 3.084c.74.05.537 3.16-.201 3.08l-46.361-5.126c-.536-.06-.47-1.074.067-1.038z" style="fill:url(#m)"/><linearGradient id="n" x1="-1030.712" x2="-1027.78" y1="280.645" y2="280.619" gradientTransform="rotate(94.336 -363.286 649.432)" gradientUnits="userSpaceOnUse"><stop offset="0" style="stop-color:#4d1808"/><stop offset=".277" style="stop-color:#ed8751"/><stop offset=".355" style="stop-color:#c66c3f"/><stop offset=".445" style="stop-color:#a1522e"/><stop offset=".538" style="stop-color:#823d20"/><stop offset=".637" style="stop-color:#6b2d16"/><stop offset=".741" style="stop-color:#5a210e"/><stop offset=".855" style="stop-color:#501a09"/><stop offset="1" style="stop-color:#4d1808"/></linearGradient><path d="m50.099 14.014.164-2.518 9.275.615-.19 2.925z" style="fill:url(#n)"/><path d="M24.02 33.846a.586.586 0 0 1-.212-.038.512.512 0 0 1-.3-.68c2.28-5.193 1.047-8.4-.258-11.791-1.312-3.416-2.67-6.948-.576-12.57a.559.559 0 0 1 .703-.317c.287.094.437.39.336.664-1.964 5.27-.731 8.475.573 11.867 1.319 3.432 2.684 6.98.242 12.544a.55.55 0 0 1-.509.32z" style="fill:#ffe485"/><path d="M21.24 32.952a.63.63 0 0 1-.224-.042c-.279-.114-.404-.41-.279-.664 1.681-3.42.73-7.188-.28-11.177-1.005-3.982-2.044-8.1-.566-12.244.094-.262.405-.406.694-.322.29.085.449.368.354.631-1.385 3.88-.378 7.861.593 11.711 1.05 4.157 2.041 8.082.211 11.81a.558.558 0 0 1-.503.297z" style="fill:#ffda54"/></svg>