<svg xmlns="http://www.w3.org/2000/svg" xml:space="preserve" viewBox="0 0 64 64"><path fill="#B3C2C6" d="M32 64c30.182 0 49.388-23.4 0-23.4-49.39 0-30.181 23.4 0 23.4z"/><ellipse cx="32" cy="49.267" fill="#E6EBEF" rx="32" ry="13"/><linearGradient id="a" x1="31.82" x2="31.82" y1="57.591" y2="35.071" gradientUnits="userSpaceOnUse"><stop offset="0" style="stop-color:#ffc757"/><stop offset=".171" style="stop-color:#f8ac47"/><stop offset=".741" style="stop-color:#e35514"/><stop offset="1" style="stop-color:#db3300"/></linearGradient><path fill="url(#a)" d="M5.992 48.175c.625-7.015 11.609-15.044 24.179-17.752 8.561-.443 29.989 11.171 27.235 17.311C50.74 62.603 8.371 58.9 5.992 48.175z"/><path fill="#FFD56B" d="M26.129 57.836c-8.543 0-16.835-1.132-20.733-10.202a.771.771 0 0 1 .377-1.007c.015-.008.031-.017.05-.022-.206-.438-.316-.877-.298-1.317.031-.743.365-1.066.64-1.21.779-.402 1.654.215 3.392 1.439 2.521 1.781 6.738 4.761 12.396 5.544 6.397.892 16.101-.821 21.314-1.917 1.269-.267 10.487-3.833 12.581-5.491-1.864-.123-6.025 1.322-9.6 2.939-3.248 1.463-14.457 4.963-21.86 3.279-2.263-.515-3.967-.754-5.333-.946-3.381-.475-5.244-.735-9.686-4.013-1.733-1.278-2.015-2.333-1.948-2.995.069-.632.46-1.136 1.106-1.423.794-.353 2.063-.367 3.58.108-.877-.542-1.421-1.079-1.5-1.579-.054-.338-.029-1.167 1.344-1.536 1.923-.524 3.975.353 6.571 1.459 3.867 1.647 8.679 3.693 15.402 2.102 2.327-.554 5.38-1.09 8.331-1.606 2.271-.396 4.906-.858 6.606-1.252-4.04-.677-7.915-.008-11.987.696-6.2 1.075-12.608 2.186-20.661-1.031-.533-.213-1.948-.775-1.668-1.86.66-2.555 14.606-.731 22.862.585.3.05.531.277.604.564 4.205-.712 8.255-1.229 12.645-.14.336.084 1.229.307 1.202 1.123-.038 1.057-1.085 1.373-9.356 2.821-2.93.513-5.961 1.044-8.246 1.587-7.179 1.707-12.45-.537-16.295-2.177-2.34-.996-4.188-1.783-5.633-1.394a.224.224 0 0 0-.048.013c1.915 1.658 13.542 5.262 20.026 4.822 6.12-.423 9.785-1.719 12.73-2.758 2.983-1.053 5.336-1.886 8.852-1.509.465.053 1.557.167 1.617 1.081.029.465.059.917-2.125 1.807 1.379-.313 2.617-.425 3.402-.146.883.316.91.995.898 1.195-.031.483-.563 1.046-1.402 1.636.837-.25 1.541-.261 1.979.129.563.498.549 1.302-.041 2.392-4.078 7.529-15.551 10.292-24.198 10.163-1.571-.022-6.838.047-7.889.047zM7.683 48.873c4.344 7.392 12.731 7.285 21.583 7.173 1.59-.021 3.188-.04 4.767-.019 8.856.16 19.371-2.648 22.89-9.146.101-.185.163-.326.202-.433-.848.131-3.285 1.237-7.213 4.427-5.431 4.415-12.344 4.057-19.031 3.706-1.607-.081-3.027.061-4.396.194-3.237.322-6.585.658-12.464-1.988-.233-.103-3.898-1.768-6.338-3.914zm-.652-3.225c.398 1.701 4.527 4.366 7.579 5.739 5.527 2.487 8.542 2.186 11.733 1.868 1.419-.142 2.892-.285 4.612-.199 6.71.352 13.048.679 18.042-3.384a50.196 50.196 0 0 1 3.098-2.325c-3.91 1.765-8.456 3.275-8.535 3.292-5.303 1.116-15.188 2.854-21.804 1.936-6.006-.833-10.404-3.939-13.034-5.796-.601-.426-1.262-.891-1.691-1.131zm2.907-3.892c-.346 0-.625.051-.829.143-.048.021-.207.098-.217.183-.019.194.233.775 1.335 1.588 4.146 3.059 5.775 3.287 9.025 3.743 1.396.196 3.133.438 5.452.967 6.962 1.584 17.95-1.833 20.95-3.188a64.655 64.655 0 0 1 2.369-1.01c-2.547.739-5.953 1.649-10.514 2.791-.745.188-1.256.314-1.426.363-7.784 2.204-15.349 1.017-20.761-3.255-2.153-1.702-4.168-2.325-5.384-2.325zm5.016.209c.415.265.84.566 1.267.904 5.042 3.977 12.142 5.068 19.473 2.993.178-.05.703-.181 1.469-.373 9.523-2.387 13.898-3.737 15.771-4.502-2.765-.14-4.848.59-7.421 1.498-3.027 1.071-6.796 2.402-13.112 2.838-4.284.294-12.414-1.382-17.447-3.358zm1.688-5.575c.033.015.069.027.104.042 6.861 2.735 12.543 2.168 17.963 1.274-11.067-1.649-16.213-1.6-18.067-1.316z"/><path fill="#FFE485" d="M20.375 55.117c-.052 0-.298.35-.35.339-4.996-1.106-6.883-3.477-8.906-6.352-1.11-1.581-2.654-3.474-4.502-5.115 1.977-2.085 3.973 1.825 5.769 4.235 1.99 2.676 3.127 5.101 7.571 6.084.4.087.892.263.807.675-.075.359-.05.134-.389.134z"/><path fill="#FFE485" d="M24.521 56.112c-9.304 0-10.811-5.581-12.073-10.252-.604-2.239-1.177-4.352-2.529-5.552a.784.784 0 0 1-.08-1.077.725.725 0 0 1 1.042-.083c1.694 1.502 2.323 3.833 2.989 6.3 1.565 5.791 3.177 11.779 19.182 7.956.389-.098.791.16.885.57a.766.766 0 0 1-.555.917c-3.555.851-6.465 1.221-8.861 1.221z"/><path fill="#FFE485" d="M38.656 55.586c-3.428 0-6.635-.902-9.912-1.823-3.886-1.09-7.9-2.219-12.611-1.965-.392.044-.756-.3-.777-.723a.754.754 0 0 1 .7-.802c4.95-.263 9.156.625 13.075 2.017 19.136 6.793 26.936-11.642 28.752-7.271-7.714 8.093-13.777 10.564-19.227 10.567z"/><path fill="#FFE485" d="M34.635 53.848c-2.551 0-5.004-.458-7.564-.936-3.41-.635-6.933-1.291-11.262-1.063-.4.053-.754-.3-.775-.721a.753.753 0 0 1 .7-.802c4.498-.244 8.321.221 11.601 1.081 20.183 5.3 25.216-12.991 28.31-9.291-8.999 9.439-15.309 11.732-21.01 11.732z"/><path fill="#FFE485" d="M33.031 47.517c-11.748-.181-15.337-3.604-15.337-3.604 26.003 8.246 32.994-8.485 34.856-4.469-7.2 6.052-13.85 8.073-19.519 8.073z"/><path fill="#FFE485" d="M37.721 49.631c-2.177 0-4.396-.55-6.769-1.326 0 0 2-.292 3.575-.573 9.9 3.144 13.41-8.075 16.563-7.285-4.863 6.989-9.029 9.184-13.369 9.184zm-17.142-9.829c5.506-2.079 23.21-7.335 28.54-3.116-10.013-.688-20.924 2.397-26.519 3.848-1.225-.305-2.021-.732-2.021-.732z"/><path fill="#FFE485" d="M39.336 38.191c-12.752 3.507-19.153 5.27-26.838 2.529a.734.734 0 0 0-.94.473.774.774 0 0 0 .46.972 23.598 23.598 0 0 0 8.133 1.408c5.356 0 11.223-1.612 19.563-3.906 2.581-.711 4.366-.86 7.506-1.682-.534-.347-5.62-.417-7.884.206z"/><path fill="#FFE485" d="M31.5 43.989c-2.123 0-4.24-.271-6.123-.943a.771.771 0 0 1-.458-.969c.135-.4.56-.614.939-.475 6.267 2.23 17.296-1.055 17.245-1.863-.051-.824-4.568.794-5.887.613 4.235-3.284 9.158-2.065 7.293.116-1.234 1.449-7.149 3.521-13.009 3.521zm2.144 6.788c-.323-1.004-5.915-1.581-7.804-3.612-6.458-6.948-9.75-12.167-12.608-9.834 7.347 1.48 10.206 15.815 20.412 13.446z"/><radialGradient id="b" cx="7.064" cy="-7.491" r="20.892" gradientTransform="matrix(.9408 0 0 .4831 24.89 34.68)" gradientUnits="userSpaceOnUse"><stop offset="0" style="stop-color:#e8591c"/><stop offset=".243" style="stop-color:#e25619"/><stop offset=".582" style="stop-color:#d04d12"/><stop offset=".974" style="stop-color:#b23f06"/><stop offset="1" style="stop-color:#b03e05"/></radialGradient><path fill="url(#b)" d="M12.625 36.908c-1.037 1.597 1.477-1.032 1.744 1.972.455 5.153 4.072-1.535 5.892 1.228 3.557 5.4 3.723-1.873 5.996.783 1.718 2.003 3.88-2.629 6.239.099 5.035 5.817 7.771-1.727 10.18-.767 4.4 1.752 4.977-.814 5.449-1.412.78-.987 4.179-.574 3.564-1.431-1.434-2.005-3.312-1.546-3.843-2.736-.626-1.4-3.543-1.304-4.854-2.604-1.59-1.576-3.746-.311-4.879-1.326-1.189-1.068-3.533-.06-4.845-.786-1.401-.777-3.538-.672-4.935.064-1.33.701-2.974-.085-4.17.828-1.474 1.129-3.754.2-5.194 1.669-1.837 1.871-4.637 1.796-6.344 4.419z"/><path fill="#F56520" d="M43.18 40.691c1.646-1.768-3.603-1.789-4.518-.65-1.214 1.511-.15 3.273.684 2.084 1.615-2.301 2.634-.153 3.834-1.434zm-15.916-.596c2.274.52-.193-5.671-1.457-5.035-1.258.636-2.372 1.773-1.042 2.173 1.915.576.85 2.484 2.499 2.862zm3.956-6.145c-1.51 2.125 4.824 2.621 5.071.783.246-1.831-1.256-3.026-1.952-1.493-1.31 2.87-2.028-.834-3.119.71zm10.712 2.565c.492 1.091-1.688 1.214-1.688 0 0-1.215 1.248-.976 1.688 0zm-7.746 3.748c.492 1.091-1.689 1.214-1.689 0s1.249-.976 1.689 0zm-4.504-4.231c.393.871-1.348.97-1.348 0 0-.968.996-.778 1.348 0z"/><path fill="#BA3D02" d="M26.875 32.767c.392.869-1.348.969-1.348 0 0-.971.997-.779 1.348 0z"/><path fill="#F56520" d="M31.631 32.191c.393.869-1.349.968-1.349 0s.997-.779 1.349 0zm11.019 1.761c.393.871-1.348.971-1.348 0 .001-.97.997-.776 1.348 0z"/><path fill="#BA3D02" d="M33.045 37.141c.38.845-1.305.938-1.305 0 0-.937.963-.75 1.305 0zm4.185-.128c.303.67-1.035.745-1.035 0s.766-.598 1.035 0zm1.381-4.016c.303.67-1.037.745-1.037 0 0-.746.768-.601 1.037 0zm-17.525.516c.303.67-1.038.746-1.038 0 0-.744.768-.601 1.038 0z"/><path fill="#F56520" d="M45.022 37.013c.288.639-.985.71-.985 0 0-.707.729-.568.985 0zM24.86 38.54c.393.87-1.348.97-1.348 0 0-.967.999-.774 1.348 0zm-5.312-2.508c.396.871-1.345.97-1.345 0 0-.968.996-.778 1.345 0z"/><path fill="#FFD56B" d="M14.606 13.104c.021-2.321-.207-6.371 1.279-9.936.998-.93 1.646 1.364 1.465 1.215-1.363 3.596-.983 8.631-.983 8.631-.017 1.444-1.773 1.059-1.761.09zm-2.323-.095c-.188-2.27-.652-5.353.5-8.972.752-1.247 1.744.509 1.55.38-1.027 3.635-.6 8.35-.6 8.35.117 1.41-1.373 1.187-1.45.242zm-2.1-1.542c-.133-1.619-.295-3.9.294-6.519.719-.729 1.831.438 1.663.35-.954 2.608-.675 5.965-.675 5.965.083 1.006-1.223.879-1.282.204z"/><linearGradient id="c" x1="-299.3" x2="-289.886" y1="409.522" y2="409.522" gradientTransform="scale(1 -1) rotate(-80.003 -378.623 7.12)" gradientUnits="userSpaceOnUse"><stop offset="0" style="stop-color:#d3d8db"/><stop offset=".358" style="stop-color:#cfd5d8"/><stop offset=".702" style="stop-color:#c4cdd1"/><stop offset="1" style="stop-color:#b3c2c6"/></linearGradient><path fill="url(#c)" d="M9.625 12.95c-.064-.356 10.898-1.434 10.71-2.502-.189-1.069-10.894 1.458-11.066.482-.173-.978 10.831-1.82 10.627-2.978-.207-1.16-10.833 1.815-11.004.835-.173-.975 10.752-2.26 10.563-3.329-.188-1.07-10.857 1.667-10.92 1.311-.189-1.07 10.542-3.452 12.085-3.723 2.682-.475 4.123.634 5.015 1.321.89.688 1.796 1.151 3.341.881 15.063-2.656 25.676-7.967 26.454-3.56.776 4.404-11.014 3.044-26.076 5.7-1.545.272-2.238 1.021-2.839 1.969-.6.952-1.575 2.485-4.256 2.96-1.547.271-12.446 1.704-12.634.633z"/><radialGradient id="d" cx="577.848" cy="491.644" r="4.001" gradientTransform="matrix(1.7373 -.3426 -.0227 -.2059 -945.484 301.344)" gradientUnits="userSpaceOnUse"><stop offset="0" style="stop-color:#fff"/><stop offset="1" style="stop-color:#fff;stop-opacity:0"/></radialGradient><path fill="url(#d)" d="M54.454.742c-.136-1.25-14.544 1.591-14.401 2.839.135 1.248 14.543-1.592 14.401-2.839z" opacity=".3"/><path fill="#FFE485" d="M10.406 5.273c-.054.435.323.285.563.204 1.125 3.054 1.14 5.598 1.14 7.637 0 1.509 1.625 1.211 1.625.186 0-4.248-.39-6.217-1.102-8.399-.451-1.378-2.066-.997-2.226.372z"/><path fill="#FFE485" d="M16.152 13.396c0-2.322.269-5.483-1.177-9.063-.579-1.429-1.992-1.1-2.302-.024-.052.467.283.566.563.487 1.325 3.61 1.156 8.491 1.156 8.491 0 1.444 1.76 1.077 1.76.109z"/><linearGradient id="e" x1="17.601" x2="17.601" y1="39.329" y2="2.721" gradientUnits="userSpaceOnUse"><stop offset=".194" style="stop-color:#f55e1d"/><stop offset=".289" style="stop-color:#f98f43"/><stop offset=".391" style="stop-color:#fcbd67"/><stop offset=".47" style="stop-color:#fed97d"/><stop offset=".515" style="stop-color:#ffe485"/></linearGradient><path fill="url(#e)" d="M19.25 8.561c-.061-4.688-1.294-5.84-2.585-5.84-1.081 0-1.033 1.456-.569 1.331.304-.081 1.579.067 1.715 9.382.198 13.554-.013 22.061.302 25.265.594.7 1.307.629 1.307.629-.287-6.901.053-13.418-.17-30.767z"/><path fill="#449C00" d="M48.068 53.259c.752 5.64-4.96 7.219-10.012 4.577.001 0 5.65-6.432 10.012-4.577z"/><path fill="#48A600" d="M48.068 53.259c-5.998.274-10.012 4.577-10.012 4.577-1.3-6.029 7.13-9.43 10.012-4.577z"/><path fill="#449C00" d="M47.885 53.242c1.478 2.014 6.299 1.594 7.496-1.948 0 0-6.266-.908-7.496 1.948z"/><path fill="#48A600" d="M47.885 53.242c2.969-2.588 7.496-1.948 7.496-1.948-2.493-4.007-7.758-2.244-7.496 1.948z"/><path fill="#51A113" d="M48.013 53.142c-1.413 1.517-.271 5.369 2.794 5.794 0 0-.282-5.234-2.794-5.794z"/><path fill="#56AB15" d="M48.013 53.142c2.564 2.017 2.794 5.794 2.794 5.794 2.871-2.651.572-6.657-2.794-5.794z"/><path fill="#51A113" d="M48.013 53.142c-2.333.91-6.38-1.671-5.601-5.042 0 0 5.996 2.205 5.601 5.042z"/><path fill="#56AB15" d="M48.013 53.142c-1.263-3.438-5.601-5.042-5.601-5.042 4.248-2.01 7.992 1.841 5.601 5.042zm-.097.15c-.714 1.151-2.563.813-3.607.267 0 0 2.424-1.563 3.607-.267z"/><path fill="#5CB817" d="M47.916 53.292c-1.283-1.136-3.607.267-3.607.267.879-1.538 3.408-1.769 3.607-.267z"/><path fill="#56AB15" d="M47.916 53.292c1.315.335 2.455-1.084 2.832-2.202 0 0-2.877.447-2.832 2.202z"/><path fill="#5CB817" d="M47.916 53.292c.141-1.709 2.832-2.202 2.832-2.202-1.7-.498-3.725.978-2.832 2.202z"/></svg>