<svg xmlns="http://www.w3.org/2000/svg" xml:space="preserve" style="enable-background:new 0 0 64 64" viewBox="0 0 64 64"><path d="M56.275 36.209c1.163-4.195-3.358-10.273-5.822-11.783-.738-9.786-6.419-10.645-6.419-10.645-6.28-14.375-17.787-14.375-24.068 0 0 0-5.682.857-6.42 10.645-2.464 1.508-6.983 7.586-5.822 11.783-5.387 3.736-6.028 13.844-2.63 14.76-2.128 11.09 55.935 11.09 53.807 0 3.406-.919 2.761-11.026-2.626-14.76z" style="fill:#cfd8dd"/><path d="M4.92 41.731c-1.561.589-1.704 7.451.154 7.991 1.905-.786 1.397-7.5-.154-7.99zm30.494-16.567c-1.026-1.32-7.59.606-7.543 2.549 1.317 1.587 7.543-.917 7.543-2.55zm-8.912-5.931c1.367-.962-.207-7.64-2.14-7.697-1.649 1.24.516 7.611 2.14 7.697zm8.085-.121c1.365-.962-.207-7.64-2.141-7.697-1.649 1.24.517 7.61 2.141 7.697zM17.195 35.837c-.586-1.569-7.422-1.712-7.96.153.783 1.912 7.473 1.402 7.96-.153z" style="fill:#f2f5f7"/><path d="M27.803 27.616c-.585-1.57-7.422-1.712-7.96.153.782 1.91 7.47 1.403 7.96-.153z" style="fill:#e6e9eb"/><path d="M16.402 40.23c-1.67-.025-4.304 6.309-2.772 7.494 2.058-.03 4.036-6.465 2.772-7.494zm42.976 7.36c-.585-1.567-7.422-1.711-7.958.156.782 1.912 7.469 1.402 7.958-.156zM34.9 37.339c1.445-.837.459-7.63-1.461-7.856-1.75 1.09-.15 7.63 1.462 7.856zm4.702-17.832c-.586-1.567-7.42-1.711-7.958.154.781 1.912 7.47 1.404 7.958-.154zm8.189-.615c-.257-1.655-6.926-3.176-7.825-1.457.381 2.033 7.036 2.884 7.825 1.457z" style="fill:#f2f5f7"/><path d="M39.051 34.538c.92-1.394-2.983-7.033-4.803-6.372-1.08 1.759 3.26 6.892 4.803 6.372z" style="fill:#e6e9eb"/><path d="M43.738 15.227c.918-1.398-2.985-7.033-4.803-6.377-1.082 1.76 3.26 6.893 4.803 6.377zM18.85 32.294c.92-1.396-2.982-7.034-4.803-6.372-1.08 1.758 3.263 6.89 4.803 6.372zm9.694 3.631c1.648-.267 3.13-6.97 1.412-7.865-2.019.396-2.836 7.08-1.412 7.865zm-11.523 6.06c.92-1.395-2.985-7.033-4.803-6.374-1.082 1.759 3.26 6.892 4.803 6.374zm1.413 15.051c-.108-1.671-6.61-3.793-7.663-2.162.197 2.057 6.747 3.51 7.663 2.162zm35.711-26.009c.919-1.396-2.984-7.033-4.803-6.374-1.08 1.759 3.26 6.892 4.803 6.374zM43.73 29.552c-.193-1.665-6.797-3.442-7.764-1.761.305 2.045 6.921 3.154 7.765 1.76zM58.487 44.72c.919-1.396-2.984-7.033-4.804-6.373-1.082 1.76 3.26 6.892 4.804 6.372zm-10.168-.862c1.665-.073 3.915-6.555 2.312-7.646-2.052.156-3.637 6.699-2.312 7.646z" style="fill:#f2f5f7"/><path d="M48.068 36.017c1.596.484 5.856-4.888 4.704-6.448-1.987-.534-5.639 5.113-4.704 6.448zM28.432 23.42c1.665-.073 3.916-6.556 2.313-7.646-2.052.157-3.636 6.7-2.313 7.646zm-9.042 3.16c-1.429.864-.32 7.639 1.604 7.828 1.73-1.12.01-7.63-1.604-7.828zm-4.765-1.795c1.666-.076 3.913-6.559 2.314-7.647-2.055.154-3.639 6.697-2.314 7.647zM6.57 46.273c1.547.624 6.268-4.343 5.259-6-1.933-.712-6.074 4.586-5.258 6z" style="fill:#f2f5f7"/><path d="M5.814 48.436c1.098 1.262 7.548-1.017 7.398-2.954-1.404-1.514-7.486 1.324-7.398 2.954zm46.476 7.622c1.405.904 6.961-3.097 6.276-4.914-1.768-1.06-6.816 3.376-6.277 4.914zM37.963 34.046c.822 1.456 7.599.524 7.838-1.404-1.072-1.764-7.598-.21-7.838 1.404z" style="fill:#f2f5f7"/><path d="M47.062 54.315c1.04 1.31 7.586-.675 7.523-2.616-1.333-1.574-7.536.985-7.523 2.616zm-3.634-22.893c1.04 1.31 7.587-.675 7.523-2.615-1.334-1.577-7.538.983-7.523 2.615zm-9.714-9.709c.066 1.674 6.51 3.97 7.606 2.369-.145-2.063-6.653-3.69-7.606-2.37z" style="fill:#f2f5f7"/><path d="M31.493 11.867c1.04 1.31 7.586-.677 7.523-2.616-1.333-1.577-7.537.984-7.523 2.616z" style="fill:#e6e9eb"/><path d="M16.283 16.93c1.038 1.308 7.585-.674 7.521-2.617-1.33-1.576-7.535.984-7.521 2.618zm5.013 14.398c1.04 1.31 7.586-.675 7.524-2.616-1.333-1.575-7.537.983-7.524 2.616zM8.91 30.311c1.039 1.309 7.585-.675 7.522-2.616-1.333-1.574-7.537.983-7.522 2.616zM7.08 51.525c1.039 1.31 7.587-.675 7.522-2.615-1.333-1.577-7.536.983-7.521 2.615z" style="fill:#f2f5f7"/><path d="M12.417 30.659c-.445 1.613 5.002 5.765 6.53 4.572.485-2.009-5.223-5.544-6.53-4.572z" style="fill:#f2f5f7"/><path d="M18.3 33.467c.168 1.666 6.74 3.556 7.736 1.89-.27-2.05-6.868-3.27-7.736-1.89zm15.298-20.671c-.444 1.612 5.003 5.764 6.53 4.571.488-2.007-5.222-5.542-6.53-4.571zm6.839 7.118c.037 1.675 6.44 4.081 7.561 2.501-.107-2.066-6.587-3.807-7.561-2.501zm-6.971-15.9c-.445 1.613 5.002 5.764 6.53 4.572.486-2.007-5.223-5.542-6.53-4.572z" style="fill:#f2f5f7"/><path d="M21.947 17.504c-.444 1.615 5 5.763 6.528 4.573.487-2.009-5.222-5.544-6.528-4.573z" style="fill:#e6e9eb"/><path d="M16.166 22.763c1.117 1.243 7.532-1.133 7.353-3.067-1.426-1.492-7.465 1.436-7.352 3.067zm1.04 27.274c-1.149-1.211-7.496 1.345-7.262 3.273 1.467 1.451 7.42-1.65 7.262-3.273zM8.668 37.815c-1.652.233-3.275 6.903-1.579 7.833 2.03-.35 2.986-7.016 1.58-7.833zm46.319-5.824c-1.645.278-3.085 6.99-1.364 7.875 2.019-.406 2.793-7.096 1.364-7.875zm-6.828 12.11c-1.162 1.203 1.64 7.466 3.55 7.156 1.383-1.53-1.94-7.38-3.55-7.156z" style="fill:#f2f5f7"/><path d="M53.635 39.862c-1.562.589-1.705 7.451.153 7.992 1.905-.787 1.397-7.5-.153-7.992zM47.1 32.901c-1.56.587-1.704 7.45.153 7.991 1.906-.786 1.398-7.5-.152-7.99zm-8.379-14.696c-.91 1.403 3.028 7.014 4.844 6.343 1.07-1.766-3.307-6.87-4.844-6.343zm-4.808-8.98c-.39-1.628-7.158-2.613-7.92-.829.546 1.995 7.244 2.313 7.92.829zm-8.788 9.495c-1.562.588-1.706 7.452.152 7.992 1.905-.785 1.397-7.5-.152-7.991zm34.343 22.974c1.562.587 1.705 7.451-.153 7.99-1.905-.786-1.397-7.5.153-7.99z" style="fill:#f2f5f7"/><path d="M29.8 22.65c1.027-1.318 7.59.608 7.544 2.55-1.317 1.586-7.544-.918-7.544-2.55zm5.549-7.327c-.791-1.474 3.599-6.736 5.352-5.915.92 1.849-3.863 6.57-5.352 5.915zM47.44 31.682c.585-1.567 7.422-1.71 7.96.154-.784 1.912-7.473 1.402-7.96-.154z" style="fill:#e6e9eb"/><path d="M36.258 26.623c.585-1.57 7.421-1.712 7.96.153-.782 1.91-7.471 1.402-7.96-.153zm10.179 15.04c1.395-.922 7.003 3.006 6.344 4.83-1.754 1.083-6.862-3.282-6.344-4.83zM3.715 49.404c.585-1.567 7.422-1.71 7.958.156-.782 1.911-7.468 1.402-7.958-.156zM30.878 38.03c-1.444-.839-.459-7.632 1.461-7.857 1.75 1.09.15 7.629-1.46 7.856z" style="fill:#e6e9eb"/><path d="M25.059 22.603c1.1-1.258 7.544 1.034 7.39 2.97-1.406 1.512-7.484-1.34-7.39-2.97zm.21-10.487c1.1-1.258 7.543 1.034 7.39 2.97-1.407 1.51-7.484-1.34-7.39-2.97zm-9.449 8.166c-.257-1.653 5.63-5.147 7.01-3.787.254 2.054-5.824 4.904-7.01 3.787z" style="fill:#f2f5f7"/><path d="M25.57 34.44c-1.252-1.104 1.043-7.572 2.971-7.413 1.501 1.413-1.347 7.508-2.971 7.413zm-5.15-19.312c-.918-1.4 2.986-7.034 4.803-6.376 1.082 1.759-3.26 6.891-4.803 6.376zm26.204 16.014c-1.315-1.025.577-7.623 2.513-7.583 1.585 1.319-.887 7.578-2.513 7.583zM33.221 38.19c-.922-1.397 2.984-7.035 4.8-6.375 1.08 1.758-3.26 6.894-4.8 6.374zm14.803 1.547c-.92-1.397 2.985-7.034 4.804-6.374 1.08 1.759-3.261 6.892-4.804 6.374zm-1.549 15.65c.57-1.573 7.404-1.78 7.96.081-.765 1.92-7.458 1.471-7.96-.08zM15.07 31.509c-.92-1.397 2.982-7.034 4.803-6.374 1.08 1.758-3.261 6.891-4.803 6.374z" style="fill:#e6e9eb"/><path d="M16.163 28.076c-.92-1.397 2.983-7.032 4.801-6.375 1.082 1.76-3.26 6.893-4.801 6.375z" style="fill:#f2f5f7"/><path d="M4.944 42.047c-.919-1.396 2.983-7.032 4.804-6.373 1.082 1.758-3.261 6.892-4.804 6.373zm9.055 2.893c-1.665-.075-3.916-6.557-2.314-7.647 2.053.155 3.637 6.698 2.314 7.646zm1.526-9.587c-1.206 1.158-7.428-1.693-7.106-3.607 1.532-1.38 7.337 1.992 7.106 3.607zm17.156-11.929c-1.665-.075-3.916-6.558-2.313-7.647 2.052.155 3.636 6.7 2.313 7.647zm12.857 1.98c1.43.863.322 7.638-1.603 7.827-1.729-1.12-.01-7.628 1.603-7.827zm3.846-.995c-1.667-.076-3.914-6.559-2.314-7.648 2.053.156 3.637 6.699 2.314 7.648zm10.022 17.385c-1.546.624-6.267-4.342-5.258-6 1.933-.711 6.073 4.587 5.258 6zm-2.304 6.125c-1.668-.075-3.916-6.559-2.315-7.649 2.054.157 3.638 6.7 2.315 7.649zM11.928 56.16c-1.405.904-6.96-3.1-6.276-4.915 1.768-1.06 6.816 3.376 6.276 4.915z" style="fill:#e6e9eb"/><path d="M18.74 52.332c-.003 1.675-6.36 4.204-7.512 2.646.069-2.067 6.513-3.933 7.513-2.646zm9.082-18.312c-1.038 1.309-7.586-.676-7.522-2.616 1.333-1.575 7.537.984 7.522 2.615z" style="fill:#e6e9eb"/><path d="M29.953 27.51c-1.04 1.311-7.586-.673-7.524-2.614 1.333-1.575 7.537.984 7.524 2.615z" style="fill:#f2f5f7"/><path d="M31.959 11.696c-.872 1.429-7.61.268-7.788-1.664 1.13-1.73 7.6.042 7.788 1.664zm15.678 5.034c-1.039 1.307-7.586-.675-7.522-2.618 1.33-1.575 7.535.984 7.522 2.617z" style="fill:#e6e9eb"/><path d="M43.73 32.548c-1.04 1.31-7.585-.676-7.523-2.617 1.332-1.574 7.536.984 7.524 2.617z" style="fill:#f2f5f7"/><path d="M59.871 49.688c-.388 1.63-7.156 2.618-7.918.833.541-1.996 7.243-2.316 7.918-.833zm-11.5-17.638c.444 1.613-5.003 5.764-6.53 4.572-.485-2.009 5.222-5.544 6.53-4.572zM11.57 46.93c-1.08 1.276-7.56-.923-7.433-2.86 1.383-1.532 7.501 1.228 7.433 2.86zm19.764-32.251c.443 1.613-5.004 5.763-6.532 4.57-.487-2.006 5.223-5.541 6.532-4.57zM17.87 23.102c.443 1.615-5.003 5.764-6.529 4.574-.487-2.01 5.222-5.544 6.529-4.574z" style="fill:#e6e9eb"/><path d="M30.596 3.915c.445 1.613-5.002 5.764-6.53 4.571-.486-2.008 5.223-5.542 6.53-4.57z" style="fill:#f2f5f7"/><path d="M41.294 14.315c.444 1.616-5.001 5.764-6.529 4.574-.486-2.01 5.223-5.544 6.53-4.574z" style="fill:#e6e9eb"/><path d="M36.745 26.003c.445 1.615-5 5.763-6.528 4.573-.487-2.009 5.222-5.544 6.529-4.573zm11.74-2.29c-.297 1.645-6.998 3.013-7.86 1.275.431-2.021 7.1-2.72 7.86-1.275z" style="fill:#f2f5f7"/><path d="M45.833 46.26c1.597-.478 5.837 4.909 4.68 6.465-1.991.528-5.622-5.135-4.68-6.465zm6.209-9.563c1.562.588 1.705 7.451-.152 7.991-1.905-.784-1.398-7.5.152-7.99zM8.528 33.066c1.66.16 3.58 6.75 1.927 7.756-2.042-.259-3.296-6.874-1.927-7.756zm8.686 11.245c1.162 1.204-1.638 7.467-3.548 7.155-1.385-1.529 1.938-7.378 3.548-7.155zm-5.251-2.58c1.561.589 1.705 7.451-.153 7.991-1.905-.786-1.397-7.5.153-7.99zm5.573-10.602c1.561.588 1.705 7.45-.154 7.99-1.904-.786-1.396-7.5.154-7.99zm6.242-10.837c1.224 1.136-1.234 7.543-3.156 7.336-1.466-1.451 1.537-7.473 3.156-7.336zM34.277 3.701c.21 1.661-5.768 4.993-7.11 3.596-.197-2.059 5.953-4.742 7.11-3.596zm3.84 14.176c1.561.587 1.705 7.45-.154 7.991-1.904-.786-1.396-7.5.154-7.991z" style="fill:#e6e9eb"/><path d="M37.154 11.5c.918-1.4-2.986-7.034-4.803-6.376-1.082 1.759 3.26 6.891 4.803 6.376z" style="fill:#f2f5f7"/><linearGradient id="a" x1="31.866" x2="31.866" y1="61" y2="34.9" gradientUnits="userSpaceOnUse"><stop offset="0" style="stop-color:#5c785e"/><stop offset=".028" style="stop-color:#526954"/><stop offset=".086" style="stop-color:#405042"/><stop offset=".146" style="stop-color:#343e35"/><stop offset=".21" style="stop-color:#2c332d"/><stop offset=".283" style="stop-color:#2a302b"/><stop offset=".584" style="stop-color:#323c33"/><stop offset="1" style="stop-color:#435444"/></linearGradient><path d="M47.53 35.565c-.244-.244-3.716.001-6.263-.137-1.361-.076-2.94-.333-4.625-.373-1.49-.036-3.068.243-4.642.238-1.57-.006-3.15-.42-4.642-.392-1.687.03-3.262.425-4.627.5-2.453.13-5.246-.127-5.604.164-.608.5-.003 2.463-.399 4.547-.25 1.307-.604 2.803-.762 4.389-.143 1.457-.461 2.971-.523 4.445-.062 1.576.174 3.115.21 4.469.054 1.967.137 3.604.419 4.45.288.856 1.638 1.61 3.498 2.142 1.157.33 2.6.326 4.135.532 1.297.173 2.68.346 4.13.432 1.36.08 2.757-.03 4.16-.03 1.407 0 2.793-.07 4.154-.148 1.452-.083 2.844-.112 4.141-.286 1.537-.207 2.956-.275 4.116-.606 1.859-.532 3.217-1.186 3.505-2.043.268-.796.36-2.432.384-4.435a74.503 74.503 0 0 0-.09-4.44c-.075-1.467-.486-2.953-.635-4.405-.16-1.581.083-3.152-.153-4.462-.377-2.092.64-4.023.114-4.55z" style="fill:url(#a)"/><path d="M32.223 49.965c.487 3.112 3.713 3.06 5.617 2.157 1.942-.916-5.956-4.325-5.617-2.157zm2.703-2.823c2.283 1.531 3.25-.255 3.222-1.81-.033-1.583-4.815.743-3.222 1.81zm-9.983-4.084c2.284 1.53 3.249-.255 3.222-1.81-.033-1.584-4.815.742-3.222 1.81zm.815 2.957c-2.495.15-1.569 2.318-.289 3.641 1.31 1.35 2.035-3.742.29-3.64zm14.565-1.069c.482 3.107 3.712 3.058 5.613 2.153 1.938-.92-5.955-4.327-5.613-2.153zm3.279 6.534c2.282 1.528 3.243-.26 3.217-1.814-.032-1.582-4.81.744-3.217 1.814zm-3.216-2.458c-2.493.15-1.57 2.315-.29 3.643 1.31 1.353 2.033-3.746.29-3.643zm2.746-12.297c.313 2.017 2.404 1.98 3.64 1.397 1.26-.594-3.862-2.807-3.64-1.397zm-2.283 5.63c1.477.989 2.102-.17 2.083-1.178-.02-1.03-3.12.485-2.083 1.178zm-10.326-.117c1.478.99 2.1-.169 2.084-1.178-.022-1.03-3.12.485-2.084 1.178zm-11.981-1.446c1.477.99 2.102-.17 2.085-1.178-.023-1.03-3.122.485-2.085 1.178zm2.113 6.997c1.475.989 2.1-.17 2.083-1.178-.023-1.03-3.121.485-2.083 1.178zm15.822 1.806c1.477.989 2.102-.169 2.083-1.178-.023-1.03-3.121.484-2.083 1.178zm1.403-5.599c1.479.99 2.103-.17 2.086-1.178-.023-1.03-3.12.485-2.086 1.178zm7.341-3.472c-1.617.096-1.016 1.502-.185 2.365.849.873 1.32-2.433.185-2.365zM34.342 38.47c-1.616.095-1.016 1.501-.184 2.366.85.872 1.319-2.434.184-2.367zm-4.703 10.21c-1.617.096-1.017 1.501-.185 2.366.85.873 1.32-2.435.185-2.366zm12.137-9.583c-.489-3.11-3.715-3.06-5.618-2.157-1.942.916 5.954 4.326 5.618 2.157zm-7.653-2.611c-2.283-1.531-3.25.255-3.22 1.81.033 1.584 4.814-.742 3.22-1.81zm4.114 3.847c-2.284-1.53-3.251.255-3.222 1.81.032 1.583 4.814-.742 3.222-1.81zm-10.339-.118c2.493-.149 1.568-2.317.29-3.641-1.313-1.35-2.037 3.743-.29 3.642zM24.1 44.551c-.482-3.106-3.711-3.057-5.614-2.153-1.94.92 5.956 4.327 5.614 2.153z" style="opacity:.4;fill:#2a302b"/><path d="M21.154 36.928c-2.28-1.527-3.242.26-3.215 1.815.03 1.58 4.811-.746 3.215-1.815z" style="opacity:.4;fill:#2a302b"/><path d="M22.62 41.214c2.493-.152 1.569-2.318.288-3.645-1.308-1.354-2.032 3.746-.288 3.645zm8.694 5.818c2.236 1.066 2.568-1.252 2.158-3.014-.424-1.8-3.722 2.268-2.158 3.014zm-9.297 4.206c-.313-2.017-2.404-1.98-3.639-1.397-1.26.594 3.86 2.806 3.639 1.397zM18.873 46.2c-1.475-.99-2.101.17-2.084 1.179.024 1.03 3.122-.486 2.084-1.18zm9.963-.267c1.618-.096 1.017-1.503.186-2.365-.85-.874-1.32 2.433-.186 2.365z" style="opacity:.4;fill:#2a302b"/></svg>