<svg xmlns="http://www.w3.org/2000/svg" xml:space="preserve" viewBox="0 0 64 64"><radialGradient id="a" cx="-65.399" cy="-122.652" r="27.983" gradientTransform="matrix(.8505 -.2739 .3959 1.0767 142.698 145.523)" gradientUnits="userSpaceOnUse"><stop offset=".4" style="stop-color:#cbd716"/><stop offset=".674" style="stop-color:#c9d414"/><stop offset=".852" style="stop-color:#c0cc0c"/><stop offset="1" style="stop-color:#b3bd00"/></radialGradient><path fill="url(#a)" d="M53.02 33.168C49.017 26.906 41.487 23.1 36.349 20.092c-7.044-4.116-10.841-15.456-22.313-9.476-11.467 5.976-3.147 14.927-2.731 22.492.299 5.532.193 13.285 4.208 19.555 13.745 21.498 51.258 2.004 37.507-19.495z"/><radialGradient id="b" cx="-23.85" cy="-153.557" r="4.28" gradientTransform="matrix(.921 -.4966 .2021 .3269 68.475 51.815)" gradientUnits="userSpaceOnUse"><stop offset="0" style="stop-color:#98a100"/><stop offset="1" style="stop-color:#97a239;stop-opacity:0"/></radialGradient><path fill="url(#b)" d="M14.275 11.115c-2.409 1.265-3.586 2.621-4.061 4.026 3.024-1.059 3.862-.185 5.608-1.125 1.775-.958 1.342-2.097 3.996-4.084-1.482-.275-3.257-.015-5.543 1.183z"/><path fill="#785647" d="M16.279 13.746c-.334.444-1.061.54-1.061.54-3.85-1.338-7.149-6.979-4.565-7.993 3.845-1.506.868 3.075 5.626 7.453z"/><radialGradient id="c" cx="503.596" cy="-604.706" r="14.305" gradientTransform="matrix(1.0197 .6077 .3665 -.8679 -252.24 -792.451)" gradientUnits="userSpaceOnUse"><stop offset="0" style="stop-color:#d3e600"/><stop offset="1" style="stop-color:#d3e600;stop-opacity:0"/></radialGradient><path fill="url(#c)" d="M54.273 47.104c2.9-6.856-1.289-16.308-9.341-21.107-8.057-4.805-16.935-3.14-19.835 3.716-2.895 6.857 1.289 16.31 9.347 21.111 8.057 4.804 16.935 3.138 19.829-3.72z"/><radialGradient id="d" cx="484.053" cy="-592.634" r="5.61" gradientTransform="matrix(1.0197 .6077 .3665 -.8679 -252.24 -792.451)" gradientUnits="userSpaceOnUse"><stop offset="0" style="stop-color:#daed00"/><stop offset="1" style="stop-color:#d3e600;stop-opacity:0"/></radialGradient><path fill="url(#d)" d="M29.902 19.466c1.138-2.689-.504-6.396-3.662-8.278-3.164-1.883-6.645-1.23-7.781 1.458-1.131 2.689.51 6.396 3.668 8.279s6.639 1.23 7.775-1.459z"/></svg>