<svg xmlns="http://www.w3.org/2000/svg" xml:space="preserve" style="enable-background:new 0 0 64 64" viewBox="0 0 64 64"><radialGradient id="a" cx="60.21" cy="56.858" r="25.453" gradientTransform="matrix(1.0721 0 0 .4054 -39.585 28.352)" gradientUnits="userSpaceOnUse"><stop offset="0" style="stop-color:#ff9c42"/><stop offset=".341" style="stop-color:#f99840"/><stop offset=".801" style="stop-color:#e88f39"/><stop offset="1" style="stop-color:#de8935"/></radialGradient><path d="M60.033 49.11C60.033 60.64 49.822 61 32 61c-17.82 0-28.033-.36-28.033-11.89 0-2.965 56.066-2.965 56.066 0z" style="fill:url(#a)"/><linearGradient id="b" x1="40.316" x2="40.316" y1="67.624" y2="53.234" gradientTransform="matrix(1.0114 0 0 .9808 -8.775 -5.326)" gradientUnits="userSpaceOnUse"><stop offset=".218" style="stop-color:#ff9c42;stop-opacity:0"/><stop offset=".355" style="stop-color:#fc993f;stop-opacity:.2154"/><stop offset=".474" style="stop-color:#f18f34;stop-opacity:.4027"/><stop offset=".587" style="stop-color:#df7e22;stop-opacity:.5796"/><stop offset=".695" style="stop-color:#c66709;stop-opacity:.749"/><stop offset=".727" style="stop-color:#bd5e00;stop-opacity:.8"/></linearGradient><path d="M60.033 49.11C60.033 60.64 49.822 61 32 61c-17.82 0-28.033-.36-28.033-11.89 0-2.965 56.066-2.965 56.066 0z" style="fill:url(#b)"/><linearGradient id="c" x1="-12.037" x2="-12.037" y1="117.974" y2="83.67" gradientTransform="matrix(.9211 0 0 .4731 43.088 -3.566)" gradientUnits="userSpaceOnUse"><stop offset=".408" style="stop-color:#522c1f"/><stop offset=".501" style="stop-color:#5a3122"/><stop offset=".715" style="stop-color:#673926"/><stop offset=".916" style="stop-color:#6b3c27"/></linearGradient><path d="M5.067 50.414c-2.942-2.247-2.9-10.517 1.14-12.024 7.691-2.871 41.751-3.876 52.314 1.274 3.842 1.873 3.475 12.752-2.915 11.44-1.227.465-4.106.659-5.783.424-3.545.797-8.983.879-10.688.425 0 0-3.849.632-7.073.02-4.99.573-8.06.071-8.06.071-5.12.669-9.323-.621-9.323-.621s-3.084.301-5.53-.292c-1.826-.029-2.8.262-4.082-.717z" style="fill:url(#c)"/><path d="M40.295 42.796c-.672-2.83 3.572-.686 3.255 1.405-.151 1.002-2.132 3.318-3.255-1.405zm10.426 1.414c-.088-3.492 4.85-3.087 5.21-1.397.564 2.652-5.15 3.85-5.21 1.397zm-40.519.018c-2.653-.244-3.032-4.139-1.082-4.08 4.615.14 2.011 4.168 1.082 4.08zm-3.837-1.11c-1.207-.112-1.381-1.886-.49-1.859 2.1.063.914 1.898.49 1.86zm5.217 1.427c.171-1.532 1.57-1.629 1.485-.499-.196 2.674-1.546 1.036-1.485.5z" style="opacity:.3;fill:#6b3924"/><path d="M10.837 48.934c.17-1.532 1.566-1.629 1.484-.498-.197 2.673-1.544 1.035-1.484.498z" style="opacity:.2;fill:#170700"/><path d="M16.578 45.933c.17-1.533 1.566-1.629 1.483-.498-.197 2.673-1.546 1.035-1.483.498z" style="opacity:.3;fill:#6b3924"/><path d="M17.467 49.143c.171-1.533 2.815-1.494 2.733-.363-.199 2.673-2.793.9-2.733.363zM4.848 47.058c.171-1.533 1.568-1.629 1.484-.498-.196 2.673-1.546 1.035-1.484.498z" style="opacity:.2;fill:#170700"/><path d="M44.859 44.575c.218-2.026 2.104-2.138 2-.642-.245 3.538-2.078 1.353-2 .642z" style="opacity:.3;fill:#6b3924"/><path d="M35.805 49.816c.219-2.026 2.104-2.137 2-.642-.245 3.538-2.079 1.353-2 .642z" style="opacity:.2;fill:#170700"/><path d="M38.308 45.667c.172-1.532 1.568-1.629 1.485-.498-.196 2.673-1.547 1.035-1.485.498zm19.059-2.096c.17-1.531 1.569-1.629 1.485-.498-.196 2.674-1.547 1.035-1.485.498z" style="opacity:.3;fill:#6b3924"/><path d="M53.564 48.294c.173-1.532 1.568-1.629 1.486-.498-.195 2.675-1.545 1.035-1.486.498z" style="opacity:.2;fill:#170700"/><path d="M30.206 45.608c-1.374-2.485 1.479-4.813 2.735-3.038 2.966 4.201-2.254 3.907-2.736 3.038zM16.23 42.72c.582 2.03-2.058 3.178-2.44 1.458-1.355-6.089 2.239-2.17 2.44-1.459z" style="opacity:.3;fill:#6b3924"/><path d="M29.76 48.4c.58 2.03-2.058 3.179-2.441 1.459-1.356-6.088 2.237-2.17 2.44-1.458z" style="opacity:.2;fill:#170700"/><path d="M37.29 44.412c1.033 3.013-3.032 1.574-3.14-1.002-.118-2.757 1.425-4.024 3.14 1.002z" style="opacity:.3;fill:#6b3924"/><path d="M47.236 49.626c-1.804 2.607-3.033 1.574-3.14-1.002-.12-2.757 4.946-1.607 3.14 1.002z" style="opacity:.2;fill:#170700"/><path d="M20.966 44.134c1.24 2.74-1.625 2.047-2.192-.43-.607-2.65.129-4.14 2.192.43z" style="opacity:.3;fill:#6b3924"/><path d="M8.91 50.525c.522.45-1.265-3.412-1.283-7.71-.011-2.721-2.478 4.476 1.283 7.71zm6.153.162c.499.18-1.262-2.04-1.358-5.001-.06-1.874-2.266 3.703 1.358 5zm8.901.797c.502.18-1.261-2.04-1.356-5-.06-1.875-2.265 3.703 1.356 5zm8.436-.154c-.522.095 1.57-1.805 2.135-4.71.357-1.84 1.647 4.027-2.134 4.71zm6.861.389c-.54.09 1.56-2.039 2.04-5.396.3-2.126 1.861 4.749-2.04 5.396zm10.379-.557c-.44.14.903-2.184.598-5.589-.192-2.155 2.605 4.581-.597 5.59zm5.922-.436c-.576.193 1.278-2.646 1.073-6.674-.128-2.55 3.084 5.293-1.073 6.674z" style="opacity:.2;fill:#170700"/><path d="M49.497 44.577c-.686 3.04-2.283-.08-1.276-2.32 1.076-2.395 2.428-2.75 1.276 2.32z" style="opacity:.3;fill:#6b3924"/><radialGradient id="d" cx="10.303" cy="36.44" r="44.545" fx="10.394" fy="1.179" gradientTransform="matrix(-.9903 .0164 -.0068 -.3369 42.298 37.968)" gradientUnits="userSpaceOnUse"><stop offset="0" style="stop-color:#f9b700"/><stop offset=".252" style="stop-color:#f9b904"/><stop offset=".501" style="stop-color:#fac110"/><stop offset=".749" style="stop-color:#fccd24"/><stop offset=".996" style="stop-color:#ffdf3f"/><stop offset="1" style="stop-color:#ffdf40"/></radialGradient><path d="M16.518 39.877c3.756 1.574 8.532 8.512 9.293 7.362 2.237-3.39 4.002-5.829 7.474-7.194 14.075-5.535 29.38 3.243 27.477.445-3.748-5.51-12.307-7.412-30.477-7.412-27.47 0-28.02 6.232-26.903 6.545 1.078.301 3.792-3.663 13.136.254z" style="fill:url(#d)"/><radialGradient id="e" cx="34.559" cy="15.232" r="11.056" gradientTransform="matrix(1.0335 -.0357 .0591 1.7149 -20.064 10)" gradientUnits="userSpaceOnUse"><stop offset="0" style="stop-color:#ff3d3d"/><stop offset=".239" style="stop-color:#fb3939"/><stop offset=".491" style="stop-color:#ee2d2d"/><stop offset=".748" style="stop-color:#d91a1a"/><stop offset="1" style="stop-color:#bd0000"/></radialGradient><path d="M34.07 36.091c-1.717 1.652-26.711 2.504-28.94 1.002-.93-.625-1.013-3.029-.13-3.718 1.338-1.042 28.112-1.696 28.943-1.002.829.696.906 2.968.127 3.718z" style="fill:url(#e)"/><path d="M33.943 32.373c1.83 1.406-30.895 2.833-28.944 1.003 2.165-2.026 25.888-3.348 28.944-1.002z" style="fill:#a80000"/><radialGradient id="f" cx="73.349" cy="96.489" r="11.057" gradientTransform="matrix(1.0078 .121 -.1982 1.5862 -11.514 -127.514)" gradientUnits="userSpaceOnUse"><stop offset="0" style="stop-color:#ff3d3d"/><stop offset=".239" style="stop-color:#fb3939"/><stop offset=".491" style="stop-color:#ee2d2d"/><stop offset=".748" style="stop-color:#d91a1a"/><stop offset="1" style="stop-color:#bd0000"/></radialGradient><path d="M60.091 38.126c-1.91 1.262-26.281-1.674-28.222-3.387-.808-.715-.53-2.937.43-3.44 1.454-.76 27.52 2.624 28.224 3.388.7.763.438 2.865-.432 3.439z" style="fill:url(#f)"/><path d="M60.523 34.687c1.566 1.566-30.39-1.994-28.225-3.387 2.4-1.543 25.609.774 28.225 3.387z" style="fill:#a80000"/><radialGradient id="g" cx="960.904" cy="-12.541" r="10.691" gradientTransform="matrix(-.8595 .1184 .1834 1.7036 845.865 -61.708)" gradientUnits="userSpaceOnUse"><stop offset="0" style="stop-color:#ffa8ec"/><stop offset=".117" style="stop-color:#fda1e9"/><stop offset=".287" style="stop-color:#f78de2"/><stop offset=".492" style="stop-color:#ee6dd5"/><stop offset=".722" style="stop-color:#e140c4"/><stop offset=".972" style="stop-color:#d107af"/><stop offset="1" style="stop-color:#cf00ac"/></radialGradient><path d="M3.23 33.606c1.642 1.376 22.427-1.497 24.068-3.312.157-.172.28-1.858-.038-2.07-1.248-.832-23.475 2.5-24.07 3.311-.185.255-.122 1.935.04 2.071z" style="fill:url(#g)"/><path d="M3.19 31.535c-1.323 1.662 25.933-1.793 24.07-3.312-2.063-1.681-21.86.54-24.07 3.312z" style="fill:#a30088"/><radialGradient id="h" cx="971.047" cy="90.747" r="10.691" gradientTransform="matrix(-.6834 -.0806 -.4578 1.6342 757.92 -38.314)" gradientUnits="userSpaceOnUse"><stop offset="0" style="stop-color:#ffa8ec"/><stop offset=".117" style="stop-color:#fda1e9"/><stop offset=".287" style="stop-color:#f78de2"/><stop offset=".492" style="stop-color:#ee6dd5"/><stop offset=".722" style="stop-color:#e140c4"/><stop offset=".972" style="stop-color:#d107af"/><stop offset="1" style="stop-color:#cf00ac"/></radialGradient><path d="M40.96 31.225c.747 1.653 17.28 3.588 19.139 2.257.177-.126.856-1.675.694-1.945-.641-1.056-18.412-2.884-19.138-2.257-.228.196-.769 1.783-.695 1.945z" style="fill:url(#h)"/><path d="M41.655 29.28c-1.572 1.26 20.002 4.091 19.138 2.257-.954-2.032-16.518-4.358-19.138-2.257z" style="fill:#a30088"/><radialGradient id="i" cx="936.427" cy="8.317" r="10.691" gradientTransform="matrix(-.8637 .0834 .1127 1.7096 843.16 -62.43)" gradientUnits="userSpaceOnUse"><stop offset="0" style="stop-color:#ffa8ec"/><stop offset=".117" style="stop-color:#fda1e9"/><stop offset=".287" style="stop-color:#f78de2"/><stop offset=".492" style="stop-color:#ee6dd5"/><stop offset=".722" style="stop-color:#e140c4"/><stop offset=".972" style="stop-color:#d107af"/><stop offset="1" style="stop-color:#cf00ac"/></radialGradient><path d="M20.76 32.206c1.582 1.442 22.47-.586 24.187-2.333.163-.166.355-1.845.047-2.071-1.213-.882-23.559 1.547-24.189 2.334-.195.246-.201 1.928-.046 2.07z" style="fill:url(#i)"/><path d="M20.805 30.136c-1.392 1.607 25.986-.742 24.189-2.334-1.993-1.763-21.865-.347-24.189 2.334z" style="fill:#a30088"/><linearGradient id="j" x1="1264.142" x2="1278.014" y1="-130.102" y2="-130.102" gradientTransform="matrix(-.8414 .1087 -.152 -1.1763 1058.826 -264.498)" gradientUnits="userSpaceOnUse"><stop offset="0" style="stop-color:#96cf33"/><stop offset=".09" style="stop-color:#90c931"/><stop offset="1" style="stop-color:#529320"/></linearGradient><path d="M3.6 26.924c-1.854-3.246 1.06-3.234 2.42-1.875.308-2.051 3.18-3.638 4.469.162 1.701-.468 6.057-1.727 3.722 1.971.885 1.162 1.676 3.383-2.696 2.173.185 1.68-3.765 1.666-3.854-1.084-.881 1.526-5.431.592-4.062-1.347z" style="fill:url(#j)"/><linearGradient id="k" x1="374.412" x2="385.994" y1="-714.171" y2="-714.171" gradientTransform="matrix(.0002 -.654 .9742 .0002 715.482 275.16)" gradientUnits="userSpaceOnUse"><stop offset="0" style="stop-color:#96cf33"/><stop offset=".09" style="stop-color:#90c931"/><stop offset="1" style="stop-color:#529320"/></linearGradient><path d="M20.574 22.857c4.655-.966 4.267 1.173 2.245 2.002 2.753.475 4.548 2.77-.785 3.255.423 1.305 1.888 3.097-2.849.937-.472.946-4.211 2.04-3.943-.295-2.309-.067-.767-3.35 2.986-3.085-1.966-.83-.117-4.05 2.346-2.814z" style="fill:url(#k)"/><linearGradient id="l" x1="-96.743" x2="-86.604" y1="-536.962" y2="-536.962" gradientTransform="matrix(.3662 -.5418 .8071 .5456 492.813 271.7)" gradientUnits="userSpaceOnUse"><stop offset="0" style="stop-color:#96cf33"/><stop offset=".09" style="stop-color:#90c931"/><stop offset="1" style="stop-color:#529320"/></linearGradient><path d="M27.156 25.853c3.134.806 4.637 3.035 3.069 2.917 1.323 1.07-1.627 1.774-4.905.497-.42.864-1.402 2.64-3 .036-1.218-.203-3.21-.473-.41-1.572-1.276-.71.487-2.205 2.485-.961-.697-1.043 1.988-2.337 2.76-.917z" style="fill:url(#l)"/><linearGradient id="m" x1="1239.29" x2="1253.16" y1="-155.476" y2="-155.476" gradientTransform="matrix(-.8414 .0964 -.1299 -.8922 1061.046 -232.145)" gradientUnits="userSpaceOnUse"><stop offset="0" style="stop-color:#96cf33"/><stop offset=".09" style="stop-color:#90c931"/><stop offset="1" style="stop-color:#529320"/></linearGradient><path d="M27.162 26.96c-1.79-2.44 1.119-2.477 2.449-1.466.346-1.564 3.241-2.817 4.453.052 1.708-.384 6.076-1.41 3.678 1.44.86.869 1.607 2.545-2.728 1.696.151 1.274-3.79 1.327-3.827-.763-.907 1.175-5.429.536-4.026-.96z" style="fill:url(#m)"/><linearGradient id="n" x1="672.571" x2="684.213" y1="-807.315" y2="-807.315" gradientTransform="matrix(-.2579 -.6693 .7827 -.3293 862.875 214.991)" gradientUnits="userSpaceOnUse"><stop offset="0" style="stop-color:#96cf33"/><stop offset=".09" style="stop-color:#90c931"/><stop offset="1" style="stop-color:#529320"/></linearGradient><path d="M58.88 24.777c2.258-.246 3.045 1.474.695 2.392.835.808 3.03 2.858-1.388 2.36-1.071.699-3.792.916-3.346-1.632-1.763.431-6.806-2.768-3.879-3.363-1.805-.161 9.11-.744 7.918.243z" style="fill:url(#n)"/><linearGradient id="o" x1="351.709" x2="362.214" y1="-688.087" y2="-688.087" gradientTransform="matrix(.0002 -.5803 .9742 .0002 715.482 234.386)" gradientUnits="userSpaceOnUse"><stop offset="0" style="stop-color:#96cf33"/><stop offset=".09" style="stop-color:#90c931"/><stop offset="1" style="stop-color:#529320"/></linearGradient><path d="M47.962 24.376c2.854.436 4.714 2.55-.815 2.995.437 1.202 2.012 4.088-2.9 2.103-1.753.467-5.362.944-3.08-1.871-2.393-.061-1.857-2.725 2.035-2.48-2.036-.762 6.856-1.511 4.76-.747z" style="fill:url(#o)"/><radialGradient id="p" cx="114.952" cy="16.052" r="29.819" gradientTransform="matrix(1.1289 0 0 .5447 -108.222 3.646)" gradientUnits="userSpaceOnUse"><stop offset=".424" style="stop-color:#ff9c42"/><stop offset=".657" style="stop-color:#f5963e"/><stop offset="1" style="stop-color:#de8935"/></radialGradient><path d="M60.033 22.642c0 4.812-9.033 3-28.033 3-19.002 0-28.033 1.812-28.033-3C3.967 10.132 16.516 3.446 32 3.446c15.483 0 28.033 6.685 28.033 19.196z" style="fill:url(#p)"/><linearGradient id="q" x1="128.566" x2="128.566" y1="16.023" y2="-4.389" gradientTransform="matrix(1.1491 0 0 1.1038 -115.734 8.29)" gradientUnits="userSpaceOnUse"><stop offset="0" style="stop-color:#de6e00"/><stop offset=".044" style="stop-color:#e77b13;stop-opacity:.8905"/><stop offset=".109" style="stop-color:#f28a28;stop-opacity:.7282"/><stop offset=".181" style="stop-color:#f99437;stop-opacity:.5465"/><stop offset=".267" style="stop-color:#fe9a3f;stop-opacity:.3317"/><stop offset=".4" style="stop-color:#ff9c42;stop-opacity:0"/><stop offset="1" style="stop-color:#de6e00"/></linearGradient><path d="M60.033 22.642c0 4.812-9.033 3-28.033 3-19.002 0-28.033 1.812-28.033-3C3.967 10.132 16.516 3.446 32 3.446c15.483 0 28.033 6.685 28.033 19.196z" style="fill:url(#q)"/><path d="M33.332 3.4c.108.767-1.215.513-1.704.076.258-.414 1.608-.788 1.704-.075zm-9.645 6.753c-.68.741-1.603-.532-1.596-1.296.646-.149 2.226.606 1.596 1.296z" style="fill:#ffcf9e"/><path d="M32.87 8.536c-.458-.874 1.193-1.112 1.955-.79-.118.6-1.524 1.596-1.955.79z" style="fill:#ffedd1"/><path d="M20.52 4.865c-.137-.813 1.491-.554 2.093-.092-.317.441-1.967.846-2.093.092zm-5.162 8.117c-.883-.57.388-1.502 1.219-1.55.235.58-.398 2.076-1.22 1.55zm39.276-2.301c-.647.83-1.592-.352-1.607-1.125.633-.227 2.209.354 1.607 1.125z" style="fill:#ffcf9e"/><path d="M50.66 15.628c-.579.856-1.586-.336-1.655-1.125.607-.238 2.189.334 1.654 1.125z" style="fill:#ffedd1"/><path d="M11.824 8.921c-.678-.813.857-1.265 1.675-1.044.045.617-1.046 1.796-1.675 1.044z" style="fill:#ffcf9e"/><path d="M37.888 14.65c-.825.288-.842-.877-.467-1.396.52.106 1.237 1.128.467 1.397zm4.705-9.012c.361-.731 1.34.14 1.501.767-.464.24-1.833-.088-1.5-.767z" style="fill:#ffedd1"/><path d="M30.648 15.554c.845.199.146 1.254-.476 1.515-.353-.383-.307-1.698.476-1.515zm14.165-4.926c-.348.759-1.323-.077-1.487-.704.456-.265 1.811 0 1.487.704z" style="fill:#ffcf9e"/><path d="M20.217 16.088c-.69-.5.39-1.206 1.07-1.21.163.483-.423 1.672-1.07 1.21z" style="fill:#ffedd1"/><path d="M7.86 13.894c.098-.825 1.287-.302 1.641.25-.356.382-1.73.51-1.64-.25z" style="fill:#ffcf9e"/><radialGradient id="r" cx="1182.998" cy="-247" r="4.135" gradientTransform="matrix(-1.0036 .0423 -.075 -.5669 1197.851 -162.306)" gradientUnits="userSpaceOnUse"><stop offset="0" style="stop-color:#5da824"/><stop offset="1" style="stop-color:#96cf33"/></radialGradient><path d="M26.497 29.365c.601 1.302 3.427.32 2.856-.643 1.846 1.218 3.778.004 2.588-.7 2.919-.801 1.08-1.565-.11-1.82-.814-1.282-2.58-.482-3.103.257-3.112-1.325-3.472.28-2.28 1.307-1.55-.198-2.979.698.049 1.6z" style="fill:url(#r)"/><radialGradient id="s" cx="-298.925" cy="137.749" r="5.849" gradientTransform="matrix(.6574 .0187 -.0492 .5532 242.52 -43.205)" gradientUnits="userSpaceOnUse"><stop offset="0" style="stop-color:#5da824"/><stop offset="1" style="stop-color:#96cf33"/></radialGradient><path d="M43.51 27.356c.821 2.503-1.389 2.225-2.175 1.121-.602 1.445-3.067 2.317-3.363-.53-1.376.178-5.054 1.255-2.615-1.182-.465-.916-.546-2.01 2.552-.737.164-1.222 4.106-1.595 3.68.388.944-1.014 3.308-.324 1.92.94z" style="fill:url(#s)"/><radialGradient id="t" cx="-274.611" cy="139.243" r="6.07" gradientTransform="matrix(.6574 .0187 -.0492 .5532 242.52 -43.205)" gradientUnits="userSpaceOnUse"><stop offset="0" style="stop-color:#5da824"/><stop offset="1" style="stop-color:#96cf33"/></radialGradient><path d="M59.382 29.045c.823 2.504-1.39 2.225-2.173 1.122-.604 1.445-3.069 2.317-3.362-.531-1.377.178-4.91.676-2.47-1.762-.465-.915-.667-2.585 2.434-1.311.161-1.223 3.157-.846 2.731 1.139.944-1.015 4.228.08 2.84 1.343z" style="fill:url(#t)"/><radialGradient id="u" cx="-179.889" cy="-463.052" r="5.707" gradientTransform="matrix(.3686 -.3081 .8123 .3102 491.621 116.111)" gradientUnits="userSpaceOnUse"><stop offset="0" style="stop-color:#5da824"/><stop offset="1" style="stop-color:#96cf33"/></radialGradient><path d="M51.34 25.848c3.135.714 1.832 1.693.262 1.59 1.323.95 1.455 3.011-1.823 1.878-.42.768-1.733 2.315-3.331.002-1.22-.18-3.153-.829-.353-1.804-1.276-.63.484-1.956 2.484-.853-.697-.926 1.989-2.074 2.761-.813z" style="fill:url(#u)"/><radialGradient id="v" cx="1201.469" cy="-223.767" r="4.29" gradientTransform="matrix(-1.0036 .0477 -.075 -.6389 1197.851 -171.576)" gradientUnits="userSpaceOnUse"><stop offset="0" style="stop-color:#5da824"/><stop offset="1" style="stop-color:#96cf33"/></radialGradient><path d="M5.99 30.38c.601 1.468 3.53.964 2.962-.123 1.844 1.375 4.31.07 3.122-.723 2.919-.905.545-1.83-.645-2.114-1.284-2.704-2.58-.545-3.103.288-3.113-1.494-3.802-.075-2.608 1.082-1.551-.224-2.352 1.223.272 1.59z" style="fill:url(#v)"/><radialGradient id="w" cx="-335.791" cy="117.549" r="6.599" gradientTransform="matrix(.6574 .021 -.0331 .4194 240.627 -14.313)" gradientUnits="userSpaceOnUse"><stop offset="0" style="stop-color:#5da824"/><stop offset="1" style="stop-color:#96cf33"/></radialGradient><path d="M21.187 27.536c.823 2.822-2.623 2.799-3.406 1.557-.604 1.626-3.069 2.61-3.364-.6-1.377.201-5.623 1.3-3.184-1.446-.464-1.033.057-2.088 3.156-.653.162-1.377 4.501-1.75 4.075.484.944-1.143 4.11-.766 2.723.658z" style="fill:url(#w)"/></svg>