<svg xmlns="http://www.w3.org/2000/svg" xml:space="preserve" viewBox="0 0 64 64"><path fill="#CFD8DD" d="M54.359 34.945c-3.945 3.398-40.088-6.68-40.963-9.816-7.285-29.105 58.022-6.509 40.963 9.816z"/><path fill="#F2F5F7" d="M26.632 22.074c-.803-1.057-5.928.486-5.891 2.043 1.028 1.273 5.891-.735 5.891-2.043z"/><path fill="#E6E9EB" d="M22.82 26.213c-.012-1.342-5-3.278-5.891-2.015.067 1.655 5.12 3.059 5.891 2.015z"/><path fill="#F2F5F7" d="M27.776 30.047c.011-1.333-4.715-3.174-5.585-1.902.037 1.642 4.832 2.954 5.585 1.902z"/><path fill="#F2F5F7" d="M22.425 28.111c-.012-1.341-5-3.277-5.891-2.014.067 1.654 5.119 3.059 5.891 2.014zm-2.499-10.163c-1.086-.737-5.465 2.41-4.949 3.874 1.367.868 5.355-2.633 4.949-3.874z"/><path fill="#E6E9EB" d="M29.632 31.464c.719-1.119-2.33-5.641-3.75-5.111-.844 1.412 2.547 5.528 3.75 5.111z"/><path fill="#F2F5F7" d="M33.341 32.275c.392-1.275-3.746-4.785-4.972-3.885-.435 1.59 3.925 4.618 4.972 3.885z"/><path fill="#E6E9EB" d="M39.14 32.969c-.146-1.327-5.323-2.849-6.089-1.523.23 1.633 5.42 2.621 6.089 1.523z"/><path fill="#F2F5F7" d="M41.424 34.262c.517-1.228-3.249-5.147-4.558-4.378-.592 1.536 3.443 4.998 4.558 4.378z"/><path fill="#F2F5F7" d="M38.625 30.105c-.567-1.205-5.948-.911-6.243.596.746 1.468 5.967.665 6.243-.596z"/><path fill="#E6E9EB" d="M41.459 31.396c.287-1.304-4.122-4.453-5.271-3.454-.304 1.622 4.288 4.273 5.271 3.454z"/><path fill="#E6E9EB" d="M41.942 34.446c1.239-.445 1.523-5.916.08-6.373-1.513.599-1.284 5.96-.08 6.373z"/><path fill="#F2F5F7" d="M41.87 33.104c.896.978 5.943-.941 5.78-2.47-1.144-1.171-5.888 1.183-5.78 2.47z"/><path fill="#F2F5F7" d="M42.245 33.802c.264 1.154 4.978 1.95 5.519.704-.369-1.416-5.041-1.741-5.519-.704zm5.625.281c.264 1.154 4.978 1.95 5.519.703-.369-1.415-5.041-1.741-5.519-.703z"/><path fill="#E6E9EB" d="M45.243 32.18c-.292 1.146 3.522 4.073 4.57 3.223.319-1.428-3.673-3.919-4.57-3.223zm11.077-.083c-.957-.678-4.981 1.941-4.562 3.235 1.207.8 4.891-2.14 4.562-3.235zm-19.044-5.369c-1.03-.829-5.737 1.839-5.351 3.324 1.305.984 5.648-2.069 5.351-3.324z"/><path fill="#F2F5F7" d="M35.827 26.569c-.858-1.013-5.975.708-5.869 2.241 1.099 1.216 5.929-.952 5.869-2.241zM17.21 23.491c1.47.518 5.275-3.557 4.196-4.921-1.828-.586-5.078 3.756-4.196 4.921zm-2.597 2.363c1.148-.64.557-6.104-.938-6.326-1.396.831-.313 6.106.938 6.326z"/><path fill="#E6E9EB" d="M19.489 22.411c.811 1.049 5.922-.542 5.871-2.099-1.039-1.263-5.882.792-5.871 2.099z"/><path fill="#F2F5F7" d="M21.929 27.65c.813 1.049 5.922-.543 5.875-2.099-1.041-1.262-5.885.789-5.875 2.099z"/><path fill="#F2F5F7" d="M25.793 23.285c-.66 1.156 2.611 5.506 4.002 4.902.771-1.455-2.82-5.381-4.002-4.902z"/><path fill="#E6E9EB" d="M26.323 20.301c-.849 1.021 2.016 5.828 3.096 5.539 1.01-1.294-1.85-5.8-3.096-5.539z"/><path fill="#F2F5F7" d="M30.064 21.77c-1.178.604-.763 6.043.733 6.304 1.43-.792.519-6.056-.733-6.304zm-11.639.429c-.346 1.294 3.906 4.622 5.1 3.666.378-1.611-4.079-4.444-5.1-3.666z"/><path fill="#E6E9EB" d="M16.049 21.332c-1.304.399-1.423 5.068.127 5.437 1.589-.536 1.165-5.104-.127-5.437zm10.192-.892c-1.304-.021-3.411 5.049-2.221 5.997 1.612-.025 3.201-5.176 2.221-5.997zm8.992 2.664c-1.127-.665-5.401 2.711-4.819 4.131 1.419.778 5.28-2.928 4.819-4.131z"/><path fill="#F76F00" d="M12.701 21.412c-1.27.583-.529-4.402 0-5.018C31.625 4.222 56.787 25.754 62 30.406c-21.611 12.342-30.523-17.615-49.299-8.994z"/><linearGradient id="a" x1="37.351" x2="37.351" y1="31.549" y2="6" gradientUnits="userSpaceOnUse"><stop offset="0" style="stop-color:#ff8226"/><stop offset=".642" style="stop-color:#ffa828"/><stop offset="1" style="stop-color:#ffb829"/></linearGradient><path fill="url(#a)" d="M12.701 16.396C20.67 3.735 37.639 3.735 46.762 10.535 55.164 16.796 56.787 25.754 62 30.406c-20.549 7.18-30.375-22.134-49.299-14.01z"/><path fill="#FFF" d="M54.359 19.061c-10.865 6.522-4.52 11.807-7.891 13.58 5.718-2.016-1.273-5.066 7.891-13.58zm-5.035-6.347c-13.781 5.601-7.73 13.002-10.699 16.116 4.42-3.562.113-8.308 10.699-16.116zm-7.189-4.779c-13.779 8.45-7.494 13.188-10.463 16.303 4.42-3.563.068-6.483 10.463-16.303zM33.57 6.034c-12.52 10.212-5.498 11.7-8.465 14.817 4.422-3.563-.398-3.882 8.465-14.817zm-8.261.93c-10.252 9.206-5.361 6.393-7.205 12.935 4.445-8.013-.704-3.729 7.205-12.935z" opacity=".2"/><path fill="#CFD8DD" d="M44.359 57.31c-3.945 3.397-40.088-6.681-40.963-9.817-7.285-29.105 58.022-6.509 40.963 9.817z"/><path fill="#F2F5F7" d="M16.632 44.438c-.803-1.056-5.928.486-5.891 2.043 1.028 1.272 5.891-.735 5.891-2.043z"/><path fill="#E6E9EB" d="M12.82 48.576c-.012-1.341-5-3.277-5.891-2.014.067 1.654 5.12 3.059 5.891 2.014z"/><path fill="#F2F5F7" d="M17.776 52.411c.011-1.333-4.715-3.175-5.585-1.903.037 1.643 4.832 2.955 5.585 1.903z"/><path fill="#F2F5F7" d="M12.425 50.476c-.012-1.342-5-3.278-5.891-2.015.067 1.654 5.119 3.059 5.891 2.015zM9.926 40.313c-1.086-.738-5.465 2.41-4.949 3.874 1.367.868 5.355-2.634 4.949-3.874z"/><path fill="#E6E9EB" d="M19.632 53.828c.719-1.119-2.33-5.641-3.75-5.111-.844 1.412 2.547 5.528 3.75 5.111z"/><path fill="#F2F5F7" d="M23.341 54.639c.392-1.274-3.746-4.785-4.972-3.885-.435 1.591 3.925 4.617 4.972 3.885z"/><path fill="#E6E9EB" d="M29.14 55.333c-.146-1.327-5.323-2.85-6.089-1.524.23 1.634 5.42 2.623 6.089 1.524z"/><path fill="#F2F5F7" d="M31.424 56.625c.517-1.227-3.249-5.146-4.558-4.378-.592 1.537 3.443 4.999 4.558 4.378z"/><path fill="#F2F5F7" d="M28.625 52.47c-.567-1.205-5.948-.911-6.243.596.746 1.466 5.967.664 6.243-.596z"/><path fill="#E6E9EB" d="M31.459 53.76c.287-1.303-4.122-4.453-5.271-3.453-.304 1.622 4.288 4.271 5.271 3.453z"/><path fill="#E6E9EB" d="M31.942 56.81c1.239-.444 1.523-5.915.08-6.373-1.513.598-1.284 5.959-.08 6.373z"/><path fill="#F2F5F7" d="M31.87 55.468c.896.977 5.943-.942 5.78-2.47-1.144-1.172-5.888 1.184-5.78 2.47z"/><path fill="#F2F5F7" d="M32.245 56.166c.264 1.154 4.978 1.95 5.519.703-.369-1.415-5.041-1.741-5.519-.703zm5.625.28c.264 1.155 4.978 1.951 5.519.704-.369-1.416-5.041-1.741-5.519-.704z"/><path fill="#E6E9EB" d="M35.243 54.544c-.292 1.146 3.522 4.072 4.57 3.222.319-1.428-3.673-3.917-4.57-3.222zm11.077-.084c-.957-.677-4.981 1.942-4.562 3.236 1.207.799 4.891-2.14 4.562-3.236zm-19.044-5.368c-1.03-.829-5.737 1.838-5.351 3.323 1.305.985 5.648-2.067 5.351-3.323z"/><path fill="#F2F5F7" d="M25.827 48.933c-.858-1.013-5.975.709-5.869 2.241 1.099 1.217 5.929-.951 5.869-2.241zM7.21 45.855c1.47.517 5.275-3.557 4.196-4.921-1.828-.586-5.078 3.755-4.196 4.921zm-2.597 2.362c1.148-.639.557-6.104-.938-6.325-1.396.832-.313 6.106.938 6.325z"/><path fill="#E6E9EB" d="M9.489 44.775c.811 1.048 5.922-.542 5.871-2.099-1.039-1.263-5.882.791-5.871 2.099z"/><path fill="#F2F5F7" d="M11.929 50.014c.813 1.05 5.922-.542 5.875-2.099-1.041-1.263-5.885.788-5.875 2.099z"/><path fill="#F2F5F7" d="M15.793 45.648c-.66 1.157 2.611 5.506 4.002 4.902.771-1.453-2.82-5.381-4.002-4.902z"/><path fill="#E6E9EB" d="M16.323 42.665c-.849 1.021 2.016 5.828 3.096 5.539 1.01-1.295-1.85-5.801-3.096-5.539z"/><path fill="#F2F5F7" d="M20.064 44.133c-1.178.604-.763 6.044.733 6.304 1.43-.791.519-6.056-.733-6.304zm-11.639.43c-.346 1.295 3.906 4.622 5.1 3.666.378-1.612-4.079-4.445-5.1-3.666z"/><path fill="#E6E9EB" d="M6.049 43.696c-1.304.399-1.423 5.067.127 5.436 1.589-.534 1.165-5.104-.127-5.436zm10.192-.891c-1.304-.021-3.411 5.048-2.221 5.997 1.612-.027 3.201-5.177 2.221-5.997zm8.992 2.663c-1.127-.665-5.401 2.712-4.819 4.131 1.419.777 5.28-2.929 4.819-4.131z"/><path fill="#C21413" d="M2.701 43.775c-1.27.584-.529-4.401 0-5.017C21.625 26.586 46.787 48.117 52 52.771 30.389 65.112 21.477 35.155 2.701 43.775z"/><linearGradient id="b" x1="27.351" x2="27.351" y1="53.913" y2="28.365" gradientUnits="userSpaceOnUse"><stop offset="0" style="stop-color:#de1212"/><stop offset=".143" style="stop-color:#e11e18"/><stop offset=".709" style="stop-color:#ea472c"/><stop offset="1" style="stop-color:#ed5734"/></linearGradient><path fill="url(#b)" d="M2.701 38.761C10.67 26.1 27.639 26.1 36.762 32.899 45.164 39.159 46.787 48.117 52 52.771 31.451 59.95 21.625 30.636 2.701 38.761z"/><path fill="#FFF" d="M44.359 41.425c-10.865 6.522-4.52 11.807-7.891 13.579 5.718-2.015-1.273-5.065 7.891-13.579zm-5.035-6.348c-13.781 5.602-7.73 13.003-10.699 16.117 4.42-3.563.113-8.308 10.699-16.117zm-7.189-4.778c-13.779 8.449-7.494 13.187-10.463 16.302 4.42-3.562.068-6.483 10.463-16.302zm-8.565-1.901c-12.52 10.211-5.498 11.7-8.465 14.817 4.422-3.563-.398-3.883 8.465-14.817zm-8.261.93c-10.252 9.206-5.361 6.393-7.205 12.935 4.445-8.013-.704-3.729 7.205-12.935z" opacity=".2"/></svg>