<svg xmlns="http://www.w3.org/2000/svg" xml:space="preserve" viewBox="0 0 64 64"><linearGradient id="a" x1="151.04" x2="155.461" y1="110.342" y2="110.342" gradientTransform="rotate(-45.001 22.228 207.52)" gradientUnits="userSpaceOnUse"><stop offset="0" style="stop-color:#785032"/><stop offset="1" style="stop-color:#f2aa75"/></linearGradient><path fill="url(#a)" d="M61.877 58.75c-5.973-5.973-28.903-28.885-28.903-28.885l-3.113 3.117 28.891 28.895c.781.777 3.904-2.346 3.125-3.127z"/><linearGradient id="b" x1="29.381" x2="27.745" y1="20.25" y2="41.919" gradientTransform="translate(-5.276 2.185)" gradientUnits="userSpaceOnUse"><stop offset="0" style="stop-color:#29bbff"/><stop offset=".174" style="stop-color:#28b8fb"/><stop offset=".354" style="stop-color:#24aeee"/><stop offset=".537" style="stop-color:#1d9eda"/><stop offset=".722" style="stop-color:#1487bd"/><stop offset=".907" style="stop-color:#086b98"/><stop offset="1" style="stop-color:#015a82"/></linearGradient><path fill="url(#b)" d="M36.457 39.181c-.271.063-.547.131-.814.183-7.002 1.435-18.634-15.89-12.624-16.344-9.898-9.898-22.836 12.291-1.68 20.948.556.044 1.113.07 1.68.072a20.94 20.94 0 0 0 13.438-4.859z"/><linearGradient id="c" x1="30.038" x2="43.613" y1="19.302" y2="35.615" gradientTransform="translate(-5.276 2.185)" gradientUnits="userSpaceOnUse"><stop offset="0" style="stop-color:#95ed00"/><stop offset=".206" style="stop-color:#92e901"/><stop offset=".419" style="stop-color:#89dc06"/><stop offset=".636" style="stop-color:#79c80d"/><stop offset=".854" style="stop-color:#64ab18"/><stop offset="1" style="stop-color:#529320"/></linearGradient><path fill="url(#c)" d="M43.965 24.706c-4.361 6.936-25.183 3.369-20.946-1.687-6.011.454-8.526 7.519-2.539 12.98 2.778 2.64 8.161 4.8 15.163 3.364.266-.052.541-.119.814-.183a20.964 20.964 0 0 0 7.508-14.474z"/><linearGradient id="d" x1="28.4" x2="49.473" y1="18.745" y2="20.387" gradientTransform="translate(-5.276 2.185)" gradientUnits="userSpaceOnUse"><stop offset="0" style="stop-color:#df0"/><stop offset=".201" style="stop-color:#dafb00"/><stop offset=".41" style="stop-color:#d1ee00"/><stop offset=".622" style="stop-color:#c1da00"/><stop offset=".835" style="stop-color:#acbd00"/><stop offset="1" style="stop-color:#97a100"/></linearGradient><path fill="url(#d)" d="M39.365 10.396c1.434 7-10.575 22.393-16.347 12.624-4.238 5.055-.287 11.488 7.538 10.942 3.819-.39 9.045-2.32 13.407-9.26.045-.554.076-1.114.076-1.682 0-5.109-1.826-9.793-4.855-13.435.06.271.129.544.181.811z"/><linearGradient id="e" x1="26.788" x2="42.936" y1="19.001" y2="5.699" gradientTransform="translate(-5.276 2.185)" gradientUnits="userSpaceOnUse"><stop offset="0" style="stop-color:#ffe866"/><stop offset=".193" style="stop-color:#ffe862"/><stop offset=".393" style="stop-color:#ffe855"/><stop offset=".596" style="stop-color:#ffe741"/><stop offset=".8" style="stop-color:#ffe724"/><stop offset="1" style="stop-color:#ffe600"/></linearGradient><path fill="url(#e)" d="M39.365 10.396c-.053-.267-.121-.54-.182-.811a20.978 20.978 0 0 0-14.478-7.513c6.936 4.362 9.517 23.424-1.688 20.946.453 6.01 7.518 8.527 12.981 2.539 2.641-2.774 4.801-8.161 3.367-15.161z"/><linearGradient id="f" x1="26.174" x2="27.871" y1="20.697" y2="-.269" gradientTransform="translate(-5.276 2.185)" gradientUnits="userSpaceOnUse"><stop offset="0" style="stop-color:#ffbe3b"/><stop offset=".256" style="stop-color:#ffba37"/><stop offset=".521" style="stop-color:#ffaf2a"/><stop offset=".789" style="stop-color:#ff9c16"/><stop offset="1" style="stop-color:#f80"/></linearGradient><path fill="url(#f)" d="M9.583 6.859c.273-.063.547-.131.814-.182 7.001-1.438 24.257 8.218 12.621 16.342 5.053 4.237 11.489.287 10.942-7.538-.387-3.818-2.319-9.043-9.257-13.408A21.768 21.768 0 0 0 23.019 2 20.93 20.93 0 0 0 9.583 6.859z"/><linearGradient id="g" x1="26.494" x2="13.084" y1="22.26" y2="6.223" gradientTransform="translate(-5.276 2.185)" gradientUnits="userSpaceOnUse"><stop offset="0" style="stop-color:#ff7940"/><stop offset=".201" style="stop-color:#fe753f"/><stop offset=".41" style="stop-color:#fa683b"/><stop offset=".622" style="stop-color:#f35436"/><stop offset=".835" style="stop-color:#e9372e"/><stop offset="1" style="stop-color:#e01b26"/></linearGradient><path fill="url(#g)" d="M25.56 10.041c-2.775-2.639-8.161-4.799-15.161-3.363-.269.051-.543.119-.816.181a20.958 20.958 0 0 0-7.51 14.475c4.363-6.936 23.828-12.04 20.945 1.686 6.013-.455 8.526-7.519 2.542-12.979z"/><linearGradient id="h" x1="28.148" x2="7.239" y1="22.79" y2="21.421" gradientTransform="translate(-5.276 2.185)" gradientUnits="userSpaceOnUse"><stop offset="0" style="stop-color:#ff8af3"/><stop offset=".176" style="stop-color:#fe87ef"/><stop offset=".358" style="stop-color:#fc7ee2"/><stop offset=".544" style="stop-color:#f870ce"/><stop offset=".731" style="stop-color:#f25cb1"/><stop offset=".918" style="stop-color:#ec428c"/><stop offset="1" style="stop-color:#e83579"/></linearGradient><path fill="url(#h)" d="M15.483 12.078c-3.818.385-9.046 2.32-13.41 9.259A20.853 20.853 0 0 0 2 23.021a20.94 20.94 0 0 0 4.857 13.437c-.063-.272-.13-.546-.182-.814-1.437-7 8.359-25.335 16.343-12.623 4.239-5.056.289-11.49-7.535-10.943z"/><linearGradient id="i" x1="29.779" x2="13.687" y1="22.611" y2="36.021" gradientTransform="translate(-5.276 2.185)" gradientUnits="userSpaceOnUse"><stop offset="0" style="stop-color:#fc60f5"/><stop offset=".166" style="stop-color:#f85df1"/><stop offset=".338" style="stop-color:#eb54e5"/><stop offset=".512" style="stop-color:#d746d0"/><stop offset=".689" style="stop-color:#ba31b4"/><stop offset=".865" style="stop-color:#951890"/><stop offset="1" style="stop-color:#73006f"/></linearGradient><path fill="url(#i)" d="M12.075 30.525c-.537-7.795 5.887-11.743 10.943-7.506-.452-6.009-7.518-8.525-12.98-2.538-2.639 2.776-4.8 8.162-3.363 15.163.052.268.119.539.182.811a20.975 20.975 0 0 0 14.478 7.512c-6.938-4.363-8.877-9.588-9.26-13.442z"/><radialGradient id="j" cx="23.02" cy="23.02" r="21.019" gradientUnits="userSpaceOnUse"><stop offset=".679" style="stop-color:#fff;stop-opacity:0"/><stop offset=".746" style="stop-color:#feffd9;stop-opacity:.2141"/><stop offset=".802" style="stop-color:#feffc1;stop-opacity:.3913"/><stop offset=".836" style="stop-color:#feffb8;stop-opacity:.5"/><stop offset=".872" style="stop-color:#feffc1;stop-opacity:.3913"/><stop offset=".93" style="stop-color:#feffd9;stop-opacity:.2141"/><stop offset="1" style="stop-color:#fff;stop-opacity:0"/></radialGradient><path fill="url(#j)" d="M44.039 23.02c.002 11.606-9.41 21.019-21.021 21.019C11.409 44.038 2 34.626 2 23.022 2.003 11.415 11.411 2 23.021 2.003c11.606 0 21.018 9.412 21.018 21.017z"/></svg>