<svg xmlns="http://www.w3.org/2000/svg" xml:space="preserve" style="enable-background:new 0 0 64 64" viewBox="0 0 64 64"><radialGradient id="a" cx="31.875" cy="-.387" r="19.119" gradientTransform="matrix(1 0 0 2.5795 0 16.038)" gradientUnits="userSpaceOnUse"><stop offset="0" style="stop-color:#effaff"/><stop offset=".277" style="stop-color:#ecf7fc"/><stop offset=".495" style="stop-color:#e2eef2"/><stop offset=".693" style="stop-color:#d1dee2"/><stop offset=".877" style="stop-color:#bac7cc"/><stop offset="1" style="stop-color:#a6b4b8"/></radialGradient><path d="M54.11 31.6 34.06 60.92c-.98 1.44-3.13 1.44-4.11 0L9.89 31.6h44.22z" style="fill:url(#a)"/><radialGradient id="b" cx="32" cy="14.962" r="23.337" gradientTransform="matrix(1 0 0 .3065 0 25.453)" gradientUnits="userSpaceOnUse"><stop offset=".829" style="stop-color:#effaff"/><stop offset="1" style="stop-color:#a6b4b8"/></radialGradient><path d="M32 22.92c12.7 0 23 3.29 23 7.12s-10.3 7.12-23 7.12-23-3.29-23-7.12 10.3-7.12 23-7.12z" style="fill:url(#b)"/><linearGradient id="c" x1="-2.635" x2="44.376" y1="18.784" y2="18.784" gradientTransform="matrix(.9333 0 0 1 12.521 0)" gradientUnits="userSpaceOnUse"><stop offset=".198" style="stop-color:#f41000"/><stop offset=".209" style="stop-color:#f51f00"/><stop offset=".255" style="stop-color:#f85c00"/><stop offset=".3" style="stop-color:#fa8f00"/><stop offset=".342" style="stop-color:#fcb600"/><stop offset=".38" style="stop-color:#fed300"/><stop offset=".413" style="stop-color:#ffe400"/><stop offset=".437" style="stop-color:#ffea00"/><stop offset=".532" style="stop-color:#fdea01"/><stop offset=".578" style="stop-color:#f5e805"/><stop offset=".613" style="stop-color:#e8e50c"/><stop offset=".642" style="stop-color:#d6e116"/><stop offset=".668" style="stop-color:#bedc23"/><stop offset=".692" style="stop-color:#a0d632"/><stop offset=".714" style="stop-color:#7dcf45"/><stop offset=".735" style="stop-color:#54c75b"/><stop offset=".753" style="stop-color:#27bd73"/><stop offset=".767" style="stop-color:#00b588"/><stop offset=".782" style="stop-color:#00b290"/><stop offset=".805" style="stop-color:#00aaa7"/><stop offset=".834" style="stop-color:#009dcc"/><stop offset=".862" style="stop-color:#008df8"/></linearGradient><path d="M31.99 2.12c2.22-.55 4.33.93 6.52 1.12 2.88.24 4.95 3.33 7.48 4.69 2.25 1.21 2.9 4.6 4.82 6.67 1.26 1.35 1.06 3.84 2.09 5.64 1.27 2.21 1.01 5.32 1.01 8.23 0 4.03-9.81 7.1-21.93 7.1-12.11 0-21.93-3.07-21.93-7.1 0-1.73.53-3.34.36-5.01-.21-2.03 1.09-3.78 1.41-5.71.44-2.67 2.49-4.52 3.53-6.78 1.08-2.33 3.8-3.7 5.1-5.11 1.37-1.48 3.61-1.62 5.13-2.67 1.84-1.25 4.24-.53 6.41-1.07z" style="fill:url(#c)"/><path d="M32.65 15.27c.36 2.45 1.76 1.82 3.16 1.11 1.44-.73-3.41-2.82-3.16-1.11z" style="opacity:.2;fill:#fff"/><path d="M33.94 12.68c1.69 1.2 2.4-.2 2.38-1.42-.02-1.25-3.56.58-2.38 1.42zm-7.08-4.47c1.69 1.2 2.4-.2 2.38-1.42-.03-1.25-3.56.58-2.38 1.42z" style="opacity:.4;fill:#fff"/><path d="M27.5 9.99c-1.84.12-1.16 1.82-.21 2.86.96 1.07 1.5-2.94.21-2.86zm11.28.75c.36 2.44 2.74 2.4 4.15 1.69 1.43-.72-4.41-3.4-4.15-1.69zm7.4 8.74c.14-1.78-2.11-5.08-3.68-5.08-3.44 0-1.28 1.91-1.11 3.13.48 3.33 4.49 5.81 4.79 1.95zm-7.21-5.73c-1.84.12-1.16 1.82-.21 2.86.96 1.07 1.5-2.94.21-2.86z" style="opacity:.2;fill:#fff"/><path d="M39.21 4.94c.23 1.59 1.78 1.56 2.69 1.1.93-.47-2.86-2.21-2.69-1.1z" style="opacity:.4;fill:#fff"/><path d="M38.96 8.04c1.09.78 1.55-.13 1.54-.93-.02-.81-2.31.38-1.54.93zM27.79 4.73c1.09.78 1.55-.13 1.54-.93-.02-.81-2.31.38-1.54.93zM19.85 7.8c1.09.78 1.55-.13 1.54-.93-.02-.81-2.31.38-1.54.93zm4 5.26c1.09.78 1.55-.13 1.54-.93-.01-.81-2.3.38-1.54.93zm12.24.9c1.09.78 1.55-.13 1.54-.93-.01-.8-2.3.39-1.54.93zm.03-3.88c1.09.78 1.55-.13 1.54-.93-.01-.81-2.3.38-1.54.93zm5.69-2.73c-1.19.08-.75 1.18-.14 1.86.63.68.97-1.92.14-1.86z" style="opacity:.2;fill:#fff"/><path d="M32.88 6.36c-1.19.08-.75 1.18-.14 1.86.64.69.98-1.91.14-1.86z" style="opacity:.4;fill:#fff"/><path d="M30.03 13.76c-1.19.08-.75 1.18-.14 1.86.63.69.98-1.91.14-1.86zm8.35-8.12c-.36-2.45-2.74-2.41-4.15-1.7-1.43.73 4.4 3.41 4.15 1.7zm-5.86-1.75c-1.69-1.2-2.4.2-2.38 1.42.02 1.24 3.55-.58 2.38-1.42zm4.22 3c-1.69-1.2-2.4.2-2.38 1.42.02 1.25 3.56-.58 2.38-1.42zm7.52 4.62c1.84-.12 1.16-1.82.21-2.86-.96-1.06-1.5 2.94-.21 2.86zM24.91 10.4c-.36-2.44-2.74-2.4-4.15-1.69-1.43.72 4.41 3.4 4.15 1.69z" style="opacity:.2;fill:#fff"/><path d="M24.3 6.02c-1.69-1.2-2.4.2-2.38 1.43.03 1.24 3.56-.58 2.38-1.43z" style="opacity:.4;fill:#fff"/><path d="M25.81 6.97c1.84-.12 1.16-1.82.21-2.86-.97-1.07-1.5 2.94-.21 2.86zm4.94 6.15c1.65.84 1.9-.98 1.59-2.37-.31-1.42-2.75 1.78-1.59 2.37z" style="opacity:.2;fill:#fff"/><path d="M24.4 15.77c-.23-1.59-1.78-1.56-2.69-1.1-.93.47 2.85 2.21 2.69 1.1z" style="opacity:.4;fill:#fff"/><path d="M22.08 11.81c-1.09-.78-1.55.13-1.54.93.02.81 2.3-.38 1.54-.93zm8.13-1.74c1.19-.08.75-1.18.14-1.86-.63-.69-.98 1.91-.14 1.86zm1.93 21.28c.36 2.45 2.74 2.41 4.15 1.7 1.44-.73-4.4-3.41-4.15-1.7zm1.48-2.16c1.69 1.2 2.4-.2 2.38-1.42-.02-1.25-3.56.58-2.38 1.42zm-7.39-6.71c1.69 1.2 2.4-.2 2.38-1.42-.03-1.25-3.56.58-2.38 1.42zm1.27 1.99c-1.84.12-1.16 1.82-.21 2.86.96 1.07 1.5-2.94.21-2.86zm11.02-.32c.36 2.44 1.75 2.09 3.16 1.38 1.43-.72-3.41-3.09-3.16-1.38zm4.87 5.72c1.69 1.2 2.4-.2 2.38-1.43-.03-1.24-3.56.59-2.38 1.43zm-3.08-1.76c-1.84.12-1.16 1.82-.21 2.86.96 1.07 1.5-2.94.21-2.86zm-2-9.95c.23 1.59 1.78 1.56 2.69 1.1.93-.47-2.85-2.21-2.69-1.1zm1.11 3.9c1.09.78 1.55-.13 1.54-.93-.02-.81-2.31.38-1.54.93zm-13.15-6.34c1.09.78 1.55-.13 1.54-.93-.01-.81-2.3.38-1.54.93z" style="opacity:.2;fill:#fff"/><path d="M19.42 21.13c1.09.78 1.55-.13 1.54-.93-.02-.81-2.31.38-1.54.93z" style="opacity:.4;fill:#fff"/><path d="M25.65 29.7c1.09.78 1.55-.13 1.54-.93-.02-.81-2.31.39-1.54.93z" style="opacity:.2;fill:#fff"/><path d="M36.97 28.3c1.09.78 1.55-.13 1.54-.93-.01-.81-2.3.38-1.54.93z" style="opacity:.4;fill:#fff"/><path d="M35.83 25.98c1.09.78 1.55-.13 1.54-.93-.02-.8-2.31.39-1.54.93zm7.25-4.61c-1.19.08-.75 1.18-.14 1.86.63.68.98-1.92.14-1.86zm-10.2-.93c-1.19.08-.75 1.18-.14 1.86.64.69.98-1.91.14-1.86zm-2.41 8.21c-1.19.08-.75 1.18-.14 1.86.63.68.97-1.92.14-1.86z" style="opacity:.2;fill:#fff"/><path d="M38.15 20.31c-.36-2.45-2.74-2.41-4.15-1.7-1.43.72 4.4 3.41 4.15 1.7z" style="opacity:.4;fill:#fff"/><path d="M30.64 17.35c-1.69-1.2-2.4.2-2.38 1.42.03 1.25 3.56-.58 2.38-1.42zm6.95 4.87c-1.69-1.2-2.4.2-2.38 1.42.02 1.25 3.56-.58 2.38-1.42zM24.91 25.7c-.36-2.44-2.74-2.4-4.15-1.69-1.43.72 4.41 3.4 4.15 1.69zm-.61-5.76c-1.69-1.2-2.4.2-2.38 1.43.03 1.24 3.56-.59 2.38-1.43zm1.51-.01c1.84-.12 1.16-1.82.21-2.86-.97-1.07-1.5 2.94-.21 2.86zm4.94 7.27c1.65.84 1.9-.98 1.59-2.37-.31-1.41-2.75 1.78-1.59 2.37zm-.1 5.7c-.23-1.59-1.78-1.56-2.69-1.1-.93.47 2.86 2.21 2.69 1.1zm-6.97-4.76c-1.09-.78-1.55.13-1.54.93.01.81 2.3-.38 1.54-.93z" style="opacity:.2;fill:#fff"/><path d="M30.21 24.15c1.19-.08.75-1.18.14-1.86-.63-.68-.98 1.92-.14 1.86z" style="opacity:.4;fill:#fff"/><path d="M13.97 22.22c-1.23 1.65.21 2.35 1.46 2.33 1.27-.03-.6-3.48-1.46-2.33zm4.61-8.23c-1.23 1.65.21 2.35 1.46 2.33 1.27-.03-.6-3.48-1.46-2.33z" style="opacity:.2;fill:#fff"/><path d="M17.55 14.94c-.12-1.8-1.86-1.13-2.93-.21-1.09.95 3.01 1.47 2.93.21z" style="opacity:.4;fill:#fff"/><path d="M16.97 25.69c-2.5.35-2.02 1.86-1.3 3.24.75 1.4 3.05-3.49 1.3-3.24zm-5.1 2.62c-1.23 1.65.21 2.34 1.46 2.32 1.27-.02-.6-3.47-1.46-2.32z" style="opacity:.2;fill:#fff"/><path d="M13.34 26.76c-.12-1.8-1.32-1.33-2.39-.41-1.08.94 2.48 1.66 2.39.41z" style="opacity:.4;fill:#fff"/><path d="M24.64 29.78c-1.62.23-1.59 1.74-1.12 2.63.47.9 2.25-2.8 1.12-2.63zm-5.16-3.52c-.8 1.07.14 1.52.95 1.5.83-.01-.39-2.24-.95-1.5zm-4.35 4.66c-.8 1.07.14 1.52.95 1.5.82-.01-.4-2.25-.95-1.5zm-3.54-8.01c-.8 1.07.14 1.52.95 1.5.82-.01-.4-2.25-.95-1.5zm6.37.89c-.8 1.07.14 1.52.95 1.51.83-.02-.39-2.26-.95-1.51zm1.98 5.82c-.08-1.17-1.21-.73-1.9-.13-.71.61 1.96.95 1.9.13zm2.63-11.91c-.08-1.17-1.21-.73-1.9-.13-.7.61 1.96.95 1.9.13zm-7.89-1.16c-.08-1.17-1.21-.73-1.9-.13-.71.6 1.96.94 1.9.13zM18.26 23c1.23-1.65-.21-2.35-1.46-2.33-1.27.03.6 3.48 1.46 2.33zm.72 9.57c.12 1.8 1.87 1.13 2.93.21 1.09-.95-3.01-1.47-2.93-.21zm.66-20.82c1.23-1.65-.21-2.34-1.46-2.32-1.27.02.6 3.47 1.46 2.32zm-7.17 7.22c-.86 1.61 1.01 1.86 2.43 1.56 1.45-.31-1.83-2.69-2.43-1.56zm3.37-6.07c1.62-.23 1.59-1.73 1.12-2.63-.48-.91-2.26 2.79-1.12 2.63zm2.73 6.8c.8-1.06-.14-1.52-.95-1.5-.82.01.4 2.25.95 1.5zm-2.9-2.43c.08 1.17 1.21.73 1.9.13.71-.61-1.96-.95-1.9-.13zm34.72 5.22c1.23 1.65-.21 2.35-1.46 2.33-1.27-.02.6-3.48 1.46-2.33z" style="opacity:.2;fill:#fff"/><path d="M50.94 14.75c-2.51.83-5.78 4.86-5.78 4.86s.26-4.11 4.51-6.58c-.01 0 .49.89 1.27 1.72z" style="opacity:.25;fill:#302c3b"/><path d="M47.5 25.78c2.5.35 2.02 1.86 1.3 3.24-.74 1.39-3.05-3.49-1.3-3.24zm4.75 2.53c1.23 1.65-.21 2.34-1.46 2.32-1.27-.02.6-3.47 1.46-2.32zm-1.48-1.55c.12-1.8 1.32-1.33 2.39-.41 1.09.94-2.47 1.66-2.39.41zM38 31.88c1.62.23 1.59 1.74 1.12 2.63-.48.91-2.26-2.79-1.12-2.63zm5.81-6.44c.8 1.07-.14 1.52-.95 1.5-.82-.02.4-2.25.95-1.5zm5.18 5.48c.8 1.07-.14 1.52-.95 1.5-.83-.01.39-2.25.95-1.5z" style="opacity:.2;fill:#fff"/><path d="M52.53 22.91c.8 1.07-.14 1.52-.95 1.5-.83-.01.39-2.25.95-1.5zm-6.83.96c.8 1.07-.14 1.52-.95 1.51-.82-.02.39-2.26.95-1.51z" style="opacity:.4;fill:#fff"/><path d="M48.84 17.45c.08-1.17 1.21-.73 1.9-.13.7.61-1.96.95-1.9.13zm-2.29 6.04c-1.23-1.65.21-2.35 1.46-2.33 1.27.02-.6 3.48-1.46 2.33zm-1.41 9.08c-.12 1.8-1.87 1.13-2.93.21-1.09-.95 3.01-1.47 2.93-.21zm6.71-13.45c.86 1.61-1.01 1.86-2.43 1.56-1.44-.3 1.83-2.69 2.43-1.56zm-2.9-.32c-.08 1.17-1.21.73-1.9.13-.71-.61 1.95-.95 1.9-.13z" style="opacity:.2;fill:#fff"/><linearGradient id="d" x1="-110.37" x2="-115.274" y1="-1.452" y2="-3.399" gradientTransform="rotate(14.187 -85.826 650.963)" gradientUnits="userSpaceOnUse"><stop offset="0" style="stop-color:#ff00a6"/><stop offset=".111" style="stop-color:#ff1bb6"/><stop offset=".292" style="stop-color:#ff40cb"/><stop offset=".474" style="stop-color:#ff5ddc"/><stop offset=".653" style="stop-color:#ff71e8"/><stop offset=".83" style="stop-color:#ff7ef0"/><stop offset="1" style="stop-color:#ff82f2"/></linearGradient><path d="M50.73 2.23s-7.05 10.33-8.64 12.63c-1 1.45.64 1.64.64 3.07 0 1.49 2.04 2.27 2.54 1.55 1.72-2.51 9.64-14.17 9.64-14.17.75-1.09-3.44-4.18-4.18-3.08z" style="fill:url(#d)"/><path d="M54.65 4.98c-.57.84-4.18-1.7-3.61-2.55.55-.84 4.16 1.71 3.61 2.55z" style="fill:#8a006c"/></svg>