<svg xmlns="http://www.w3.org/2000/svg" xml:space="preserve" viewBox="0 0 64 64"><linearGradient id="a" x1="32.268" x2="32.268" y1="55" y2="9.001" gradientUnits="userSpaceOnUse"><stop offset="0" style="stop-color:#d6d6d6"/><stop offset="1" style="stop-color:#e8e8e8"/></linearGradient><circle cx="32.267" cy="32" r="23" fill="url(#a)"/><path fill="#BCC4C6" d="M24.465 18.492c-7.829 4.52-10.724 14.198-6.659 21.855-.098-.159-.214-.307-.31-.473-4.463-7.73-1.595-17.741 6.405-22.36 8-4.62 18.104-2.098 22.567 5.634.096.165.17.337.26.502-4.602-7.346-14.432-9.678-22.263-5.158z"/><path fill="#E4E4E6" d="M40.063 45.51c7.831-4.521 10.727-14.2 6.665-21.859.1.159.211.311.305.475 4.463 7.732 1.597 17.741-6.404 22.362-8 4.618-18.105 2.098-22.569-5.636-.094-.163-.163-.339-.253-.504 4.598 7.348 14.427 9.68 22.256 5.162z"/><linearGradient id="b" x1="0" x2="9.777" y1="32" y2="32" gradientUnits="userSpaceOnUse"><stop offset="0" style="stop-color:#d3d8db"/><stop offset=".358" style="stop-color:#cfd5d8"/><stop offset=".702" style="stop-color:#c4cdd1"/><stop offset="1" style="stop-color:#b3c2c6"/></linearGradient><path fill="url(#b)" d="M8.029 4c-.29 0 .554 13.506-.629 13.506C6.219 17.506 7.225 4 6.146 4s.023 13.506-1.256 13.506C3.61 17.506 4.714 4 3.633 4 2.554 4 3.56 17.506 2.379 17.506 1.196 17.506 2.037 4 1.752 4 .881 4 0 15.765 0 17.647c0 4.97.527 5.244 2.335 6.483 1.508 1.033 1.073 2.107 1.073 5.771C3.408 52.19-.036 60 4.889 60c4.923 0 1.481-7.81 1.481-30.099 0-3.661-.436-4.737 1.073-5.771 1.809-1.239 2.333-1.514 2.333-6.483C9.777 15.765 8.897 4 8.029 4z"/><radialGradient id="c" cx="64.986" cy="1057.227" r="4.78" gradientTransform="matrix(.0077 2.1423 .2865 -.0266 -298.84 -62.75)" gradientUnits="userSpaceOnUse"><stop offset="0" style="stop-color:#fff"/><stop offset="1" style="stop-color:#fff;stop-opacity:0"/></radialGradient><path fill="url(#c)" d="M4.594 58.983c-2.075.194-2.15-21.009-.077-21.199 2.072-.192 2.15 21.007.077 21.199z" opacity=".2"/><linearGradient id="d" x1="56.572" x2="64" y1="32" y2="32" gradientUnits="userSpaceOnUse"><stop offset="0" style="stop-color:#d3d8db"/><stop offset=".358" style="stop-color:#cfd5d8"/><stop offset=".702" style="stop-color:#c4cdd1"/><stop offset="1" style="stop-color:#b3c2c6"/></linearGradient><path fill="url(#d)" d="M60.08 33.081C60.08 48.097 56.418 60 61.148 60c4.745 0 2.137-2.299 2.137-26.919 0-3.925.311-4.907.311-9.812V5.345c0-.888-1.072-2.173-2.459-.615-1.721 1.932-4.564 12.858-4.564 22.564-.001 2.703 3.507.892 3.507 5.787z"/><radialGradient id="e" cx="111.506" cy="1400.033" r="3.776" gradientTransform="matrix(-.0594 2.2308 .3445 -.0169 -415.041 -174.398)" gradientUnits="userSpaceOnUse"><stop offset="0" style="stop-color:#fff"/><stop offset="1" style="stop-color:#fff;stop-opacity:0"/></radialGradient><path fill="url(#e)" d="M60.406 59.412c-1.973.098-1.508-17.371.465-17.466 1.973-.096 1.509 17.372-.465 17.466z" opacity=".2"/></svg>