<svg xmlns="http://www.w3.org/2000/svg" xml:space="preserve" viewBox="0 0 64 64"><path fill="#785647" d="M56.696 48.103c0 18.53-49.393 18.53-49.393 0 .001-15.125 49.393-15.125 49.393 0z"/><path fill="#B47D56" d="M56.696 48.103c0 17.262-49.393 17.262-49.393 0 .001-15.125 49.393-15.125 49.393 0z"/><path fill="#785647" d="M46.002 47.301c0 9.252-28.004 9.252-28.004 0 0-8.117 28.004-8.117 28.004 0z"/><linearGradient id="a" x1="7" x2="57" y1="38.917" y2="38.917" gradientUnits="userSpaceOnUse"><stop offset="0" style="stop-color:#e6ebef"/><stop offset=".286" style="stop-color:#e2e8ec"/><stop offset=".56" style="stop-color:#d7dfe3"/><stop offset=".83" style="stop-color:#c3cfd3"/><stop offset="1" style="stop-color:#b3c2c6"/></linearGradient><path fill="url(#a)" d="M57 24.835H7s.653 11.097 7.324 20.076c2.466 3.323 8.343 8.088 17.676 8.088 9.333 0 15.211-4.765 17.676-8.088C56.348 35.94 57 24.835 57 24.835z"/><path fill="#E6EBEF" d="M32 15c13.808 0 25 4.344 25 9.701 0 5.359-8.476 10.651-25 10.651S7 30.06 7 24.701C7 19.344 18.192 15 32 15z"/><linearGradient id="b" x1="9.588" x2="54.412" y1="21.152" y2="21.152" gradientUnits="userSpaceOnUse"><stop offset="0" style="stop-color:#b3c2c6"/><stop offset=".252" style="stop-color:#c0ccd0"/><stop offset=".618" style="stop-color:#cbd5da"/><stop offset="1" style="stop-color:#cfd8dd"/></linearGradient><path fill="url(#b)" d="M32 19.318c10.81 0 19.825 3.116 21.944 7.036a3.603 3.603 0 0 0 .468-1.767c0-4.775-10.034-8.639-22.412-8.639-12.377 0-22.412 3.863-22.412 8.639 0 .606.164 1.195.469 1.767 2.119-3.919 11.134-7.036 21.943-7.036z"/><radialGradient id="c" cx="31.477" cy="10.713" r="23.369" gradientTransform="matrix(1.0186 0 0 .4228 .108 24.418)" gradientUnits="userSpaceOnUse"><stop offset="0" style="stop-color:#84b53a"/><stop offset=".211" style="stop-color:#80b03c"/><stop offset=".446" style="stop-color:#76a340"/><stop offset=".692" style="stop-color:#658d48"/><stop offset=".945" style="stop-color:#4d6e52"/><stop offset="1" style="stop-color:#476655"/></radialGradient><path fill="url(#c)" d="M32 33.038c10.81 0 19.825-2.765 21.944-6.684C51.835 22.435 42.81 19.318 32 19.318c-10.809 0-19.824 3.116-21.943 7.036 2.119 3.919 11.134 6.684 21.943 6.684z"/><linearGradient id="d" x1="30.889" x2="30.889" y1="24" y2="2" gradientUnits="userSpaceOnUse"><stop offset="0" style="stop-color:#a9b0b3"/><stop offset=".316" style="stop-color:#bdc4c7"/><stop offset=".961" style="stop-color:#eff6fc"/><stop offset="1" style="stop-color:#f2f9ff"/></linearGradient><path fill="url(#d)" d="M31.847 24s2.578-4.01-2.962-9.538C22.805 8.381 31.847 6.041 31.847 2c0 0 1.458 1.609-.581 5.42-2.9 5.391 9.188 6.251.581 16.58z" opacity=".6"/><linearGradient id="e" x1="23.436" x2="23.436" y1="23.711" y2="7.711" gradientUnits="userSpaceOnUse"><stop offset="0" style="stop-color:#a9b0b3"/><stop offset=".316" style="stop-color:#bdc4c7"/><stop offset=".961" style="stop-color:#eff6fc"/><stop offset="1" style="stop-color:#f2f9ff"/></linearGradient><path fill="url(#e)" d="M24.135 23.711s1.9-2.82-2.22-6.941c-4.479-4.478 2.22-6.118 2.22-9.059 0 0 1.09 1.17-.439 3.94-2.171 3.92 6.901 4.539.439 12.06z" opacity=".6"/><linearGradient id="f" x1="40.563" x2="40.563" y1="23.711" y2="7.711" gradientUnits="userSpaceOnUse"><stop offset="0" style="stop-color:#a9b0b3"/><stop offset=".316" style="stop-color:#bdc4c7"/><stop offset=".961" style="stop-color:#eff6fc"/><stop offset="1" style="stop-color:#f2f9ff"/></linearGradient><path fill="url(#f)" d="M39.865 7.711s-1.882 2.84 2.22 6.939c4.479 4.48-2.22 6.118-2.22 9.061 0 0-1.09-1.17.439-3.94 2.162-3.921-6.909-4.549-.439-12.06z" opacity=".6"/></svg>