<svg xmlns="http://www.w3.org/2000/svg" xml:space="preserve" viewBox="0 0 64 64"><linearGradient id="a" x1="3" x2="57.651" y1="41.178" y2="41.178" gradientUnits="userSpaceOnUse"><stop offset="0" style="stop-color:#ffd675"/><stop offset=".382" style="stop-color:#ffd267"/><stop offset="1" style="stop-color:#ffc847"/></linearGradient><path fill="url(#a)" d="M55.581 54.168s-36.862 5.056-49.15 6.738C4.058 61.231 3 60.795 3 58.307V29.815s18.916-6.647 54.113-8.46c1.813 20.011-1.532 32.813-1.532 32.813z"/><path fill="#D46A06" d="M21.778 31.911c-.81-.44-.08-1.547.73-1.104.811.443.081 1.549-.73 1.104zm13.004-1.241c-.811-.44-.081-1.546.729-1.104.811.443.083 1.548-.729 1.104zm-4.884 2.3c-.811-.441-.082-1.547.729-1.105.811.443.083 1.549-.729 1.105zm6.321-5.463c-.811-.442-.081-1.547.729-1.105.81.443.083 1.548-.729 1.105zm6.565 7.882c-.811-.44-.081-1.546.729-1.106.811.445.084 1.55-.729 1.106zm2.155-8.844c-.811-.442-.08-1.547.729-1.105.811.443.084 1.548-.729 1.105zm4.033 6.978c-.811-.44-.081-1.546.729-1.104.811.444.083 1.549-.729 1.104zm3.775-6.978c-.81-.442-.081-1.547.729-1.105.811.443.084 1.548-.729 1.105zm1.437 7.807c-.811-.44-.08-1.546.729-1.104.811.442.083 1.548-.729 1.104zm-9.963-2.038c-.811-.441-.081-1.546.729-1.104.813.444.083 1.55-.729 1.104zm7.342-.655c-.811-.44-.081-1.546.729-1.104.813.444.084 1.549-.729 1.104zm-3.151-2.944c-.811-.441-.08-1.545.728-1.104.812.443.083 1.548-.728 1.104zM25.73 32.698c.402-.632 1.444-.087 1.042.549-.4.631-1.444.083-1.042-.549zm13.958-3.326c.402-.632 1.444-.086 1.042.547-.401.633-1.445.084-1.042-.547zM36.519 34.9c.4-.634 1.442-.087 1.042.547-.403.631-1.445.084-1.042-.547zM6.47 32.144c.402-.632 1.444-.085 1.042.549-.401.631-1.444.082-1.042-.549zm11.458 3.39c.517-.814 1.86-.108 1.343.704-.516.816-1.86.111-1.343-.704zm-10.603-.159c.517-.814 1.86-.107 1.343.703-.516.817-1.86.111-1.343-.703zm3.9 1.689c.366-.575 1.318-.077.95.499-.366.577-1.316.08-.95-.499zm3.746 1.614c.366-.575 1.318-.077.95.499-.366.575-1.316.078-.95-.499zm1.966-8.223c.366-.575 1.318-.078.95.498-.366.576-1.316.078-.95-.498zm11.148-1.639c-.81-.441-.081-1.546.729-1.104.811.445.081 1.55-.729 1.104zm3.394 7.352c.401-.633 1.444-.088 1.042.547-.4.632-1.445.084-1.042-.547zm-18.104-2.914c.402-.633 1.444-.086 1.042.546-.4.633-1.444.085-1.042-.546zm9.533 2.995c.517-.815 1.86-.108 1.343.703-.515.817-1.86.111-1.343-.703zM5.904 39.867c.367-.575 1.318-.077.95.499-.366.575-1.316.078-.95-.499zm29.533 12.021c.837.392.177 1.538-.659 1.145-.84-.396-.18-1.542.659-1.145zm-2.825 3.358c.837.393.176 1.539-.659 1.146-.839-.397-.18-1.541.659-1.146zm-8.451-.997c.835.394.176 1.54-.661 1.146-.837-.394-.179-1.541.661-1.146zm1.255-5.152c.835.395.176 1.54-.661 1.148-.837-.396-.178-1.543.661-1.148zm3.545 4.117c.835.394.176 1.539-.662 1.146-.837-.396-.178-1.543.662-1.146zm5.759-6.326c.835.394.176 1.54-.661 1.146-.837-.395-.178-1.542.661-1.146zm5.102 6.052c.836.395.176 1.54-.66 1.146-.838-.394-.179-1.541.66-1.146zm3.391-1.903c.836.395.177 1.539-.66 1.146-.838-.396-.179-1.542.66-1.146zm3.336 1.584c.836.393.176 1.538-.66 1.146-.838-.396-.179-1.542.66-1.146zm4.914-9.374c.835.395.176 1.539-.661 1.146-.837-.396-.179-1.541.661-1.146zm3.141 2.985c.836.395.177 1.54-.66 1.148-.839-.396-.178-1.543.66-1.148zm-5.317.439c.836.395.176 1.539-.66 1.146-.838-.396-.179-1.543.66-1.146zm4.157 5.615c.835.395.177 1.54-.661 1.147-.837-.396-.178-1.542.661-1.147zM13.41 54.317c.837.394.179 1.538-.659 1.146-.838-.397-.178-1.54.659-1.146zm-6.969 3.416c.835.394.177 1.54-.661 1.146-.837-.395-.176-1.542.661-1.146zm24.668-7.821c-.362.655-1.438.172-1.074-.485.36-.653 1.436-.168 1.074.485zm-10.796 6.934c-.362.654-1.437.17-1.075-.485.363-.656 1.437-.17 1.075.485zm.223-5.65c-.364.655-1.437.171-1.075-.485.36-.653 1.436-.168 1.075.485zm-3.111 1.744c.835.395.176 1.54-.661 1.146-.838-.394-.179-1.541.661-1.146zM6.44 52.244c.837.394.179 1.539-.659 1.146-.838-.396-.177-1.54.659-1.146zm5.936 4.834c.835.395.177 1.541-.661 1.147-.837-.396-.176-1.542.661-1.147zm-2.151-3.364c-.362.654-1.437.17-1.075-.486.363-.656 1.437-.168 1.075.486zm3.448-3.249c-.365.655-1.437.171-1.075-.485.36-.654 1.437-.168 1.075.485zm36.811.732c-.361.655-1.436.17-1.074-.485.362-.654 1.438-.168 1.074.485zm-10.86-2.353c-.466.843-1.849.217-1.386-.624.467-.843 1.854-.219 1.386.624zm5.024-.804c-.332.597-1.313.154-.981-.442.331-.596 1.308-.154.981.442z" opacity=".1"/><path fill="#E60F00" d="M57.454 41.925s-5.171.257-6.896.486c-1.601.215-4.803 1.075-6.402 1.289-1.761.234-5.037.451-6.798.686-1.411.188-4.476.819-5.886 1.007-.775.104-3.288.22-4.064.322-2.063.274-5.226.917-7.289 1.192-1.224.164-3.531.177-4.755.34-1.737.232-5.472 1.167-7.209 1.399-1.318.178-5.155.546-5.155.546v-2.801l54.484-9.526-.03 5.06z"/><path fill="#F5EDDD" d="M57.496 38.907s-3.988.748-5.316.925c-1.199.16-3.677.285-4.875.445-1.639.219-4.842.852-6.482 1.069-2.043.272-6.134.59-8.178.863-1.975.264-5.96 1.228-7.934 1.49-1.98.264-5.902.583-7.883.848-1.846.247-5.497 1.001-7.342 1.247-1.612.215-6.486.598-6.486.598v-3.563s4.547-.395 6.218-.62c1.833-.246 5.776-1.02 7.608-1.267 1.852-.249 5.79-.417 7.642-.666 2.045-.274 5.767-1.108 7.813-1.383 2.021-.272 6.397-.602 8.419-.874 1.621-.218 4.848-.913 6.467-1.132 1.191-.159 3.571-.146 4.762-.307 1.399-.187 5.598-1.085 5.598-1.085l-.031 3.412z"/><path fill="#F5EDDD" d="M59.645 21.592c-2.098-6.099-16.846-8.605-20.52-8.096C28.672 14.945 10.218 22.296 3 26.647v3.167c35.9-5.197 50.07-7.133 51.977-5.258 1.32 1.296 1.571 11.472.604 29.611l1.56-.191c1.678-.206 2.598-.96 2.821-3.021.692-6.384 2.095-22.352-.317-29.363z"/><path fill="#E6DED3" d="M53.924 19.005c8.1-.771-8.164-6.354-14.348-5.553C17.26 16.339 3 26.647 3 26.647s23.111-5.002 50.924-7.642z"/><radialGradient id="b" cx="3.434" cy="3.159" r="9.108" gradientTransform="matrix(1.0745 -.0281 .0059 .25 27.694 17.837)" gradientUnits="userSpaceOnUse"><stop offset=".285" style="stop-color:#696460"/><stop offset="1" style="stop-color:#e6ded3;stop-opacity:0"/></radialGradient><path fill="url(#b)" d="M41.529 18.331c.063 3.325-20.197 3.73-20.256.402-.06-3.329 20.2-3.734 20.256-.402z"/><linearGradient id="c" x1="49.562" x2="60.489" y1="57.758" y2="46.98" gradientTransform="matrix(-.5359 -.8566 -.8752 .5327 106.888 31.54)" gradientUnits="userSpaceOnUse"><stop offset="0" style="stop-color:#c21413"/><stop offset=".145" style="stop-color:#cf0f11"/><stop offset=".438" style="stop-color:#e4070f"/><stop offset=".726" style="stop-color:#f1020d"/><stop offset="1" style="stop-color:#f5000d"/></linearGradient><path fill="url(#c)" d="M37.807 8.726c2.081 3.216 2.322 7.292-1.02 9.259-4.531 2.669-12.465 1.428-13.755-.564-1.273-1.971 1.248-9.462 5.625-11.99 3.64-2.103 6.708-.408 9.15 3.295z"/><path fill="#EA8800" d="M32.309 11.097c-.305.44-.305.44.242.328.758-.158.182-.935-.242-.328zm-2.798.115c-.331.423-.331.423.221.337.766-.118.235-.924-.221-.337zm-2.741.572c-.33.423-.33.423.222.337.766-.12.235-.924-.222-.337zm-2.818 2.174c-.152.503-.152.503.336.245.675-.358-.122-.941-.336-.245zm-.461 2.234c.006.521.006.521.396.146.541-.521-.403-.868-.396-.146zm2.666-1.503c-.389.376-.389.376.169.362.777-.021.37-.884-.169-.362zm1.427 3.449c-.469.283-.469.283.076.393.758.146.578-.787-.076-.393zm1.25-1.839c-.471.284-.471.284.076.391.756.15.578-.783-.076-.391zm-.137-2.389c-.348.411-.348.411.207.344.771-.093.273-.914-.207-.344zm2.511 2.097c-.345.408-.345.408.208.344.772-.091.273-.914-.208-.344zm-.063 1.972c-.406.36-.406.36.151.372.775.014.417-.87-.151-.372zm3.127-.646c-.406.356-.406.356.152.368.775.017.417-.867-.152-.368zm-2.952-3.81c-.229.475-.229.475.293.284.723-.267.024-.948-.293-.284zm4.649.221c-.229.476-.229.476.292.284.723-.265.023-.948-.292-.284zm-2.082 1.557c-.228.478-.228.478.292.285.724-.266.024-.949-.292-.285zm2.816.683c-.063.518-.063.518.371.185.606-.457-.286-.906-.371-.185zm1.336-2.682c.125.508.125.508.42.064.412-.617-.592-.768-.42-.064zm-2.103-1.939c-.286.445-.286.445.256.313.749-.185.142-.94-.256-.313zm-2.113 1.328c-.285.449-.285.449.256.317.751-.186.144-.939-.256-.317zm-8.122 4.137c-.471.282-.471.282.075.391.759.149.579-.782-.075-.391zm2.516-7.58c-.291.447-.291.447.252.319.751-.175.154-.939-.252-.319zm-.182-2.309c-.33.423-.33.423.224.339.765-.117.239-.923-.224-.339zm4.889-1.453c-.514.203-.514.203.001.397.718.273.718-.675-.001-.397zm-1.639 3.522c-.462.295-.462.295.088.388.76.128.554-.797-.088-.388zm-1.06-3.366c-.459.295-.459.295.088.388.759.13.556-.799-.088-.388zm4.134 4c-.488.255-.488.255.049.395.745.192.629-.749-.049-.395zm-.978-2.118c-.489.255-.489.255.048.395.745.194.63-.747-.048-.395zm-2.633-.353c-.488.256-.488.256.047.396.75.193.634-.749-.047-.396zm-4.854 2.058c-.053.52-.053.52.376.184.598-.465-.3-.903-.376-.184zm-1.076 2.223c-.167.496-.167.496.329.249.685-.345-.097-.941-.329-.249z"/><path fill="#7AB51D" d="M37.806 4.987c-.701 1.313 1.268 2.041-.632 4.057-2.278-.77-1.041-2.883.632-4.057zm3.498 5.398c-1.548.013-1.349-1.991-4.089-1.276-.299 2.286 2.237 2.178 4.089 1.276z"/><path fill="#56AB15" d="M35.17 3c-.344.912.728 1.682.745 3.33 0 0 1.219 1.278 1.924 2.366.707 1.089 1.356 2.701 1.356 2.701 1.539.752 1.78 2.011 2.788 2.128-1.621 1.35-4.261-.915-3.719-2.456 0 0-1.211-.917-1.026-2.02-1.113-.336-1.434-1.779-1.434-1.779-1.689-.228-2.626-3.493-.634-4.27z"/><path fill="#449C00" d="M36.327 4.647c-.457.686.31 1.601.211 2.161-.151.859-.385 1.441.751 2.211.213 1.313.865 1.375 1.738 1.633.57.166 1.085 1.231 1.932 1.147-1.892 2.221-4.717-1.458-3.776-2.719-1.603.242-3.787-3.816-.856-4.433z"/><path fill="#7AB51D" d="M37.256 8.572c.043.288.342.446.342.446 1.928-.254 3.934-2.021 3.42-2.801-.987-1.492-.322 1.717-3.762 2.355z"/></svg>