<svg xmlns="http://www.w3.org/2000/svg" xml:space="preserve" viewBox="0 0 64 64"><linearGradient id="a" x1="2.033" x2="59.028" y1="45.633" y2="45.633" gradientUnits="userSpaceOnUse"><stop offset="0" style="stop-color:#c1d0d9"/><stop offset=".1" style="stop-color:#b9c7d0"/><stop offset=".705" style="stop-color:#8a959b"/><stop offset="1" style="stop-color:#788287"/></linearGradient><path fill="url(#a)" d="M2.033 29.265s1.09 14.201 3.729 21.63c5.261 14.816 44.274 14.798 49.536 0 2.641-7.429 3.73-21.63 3.73-21.63H2.033z"/><linearGradient id="b" x1="37.492" x2="64" y1="42.217" y2="42.217" gradientUnits="userSpaceOnUse"><stop offset="0" style="stop-color:#788287;stop-opacity:0"/><stop offset=".203" style="stop-color:#8a969b;stop-opacity:.4471"/><stop offset=".455" style="stop-color:#a5b3ba"/></linearGradient><path fill="url(#b)" d="M39.764 47.269c2.117-2.392 8.3.055 10.913-.107 6.767-.414 12.746-5.475 13.13-7.376.289-1.444.205-2.246.061-2.62-.061 4.61-10.406 7.974-13.71 8.007-1.392.014-8.361-2.313-11.507-1.779-3.147.534 1.113 3.875 1.113 3.875z"/><path fill="#C1D0D9" d="M63.867 37.165c-.574-1.22-2.965-2.006-4.182-2.988-1.216-.982-.818-2.688-.676-4.402-1.431.576-24.807 13.366-22.14 13.294 5.76-.153 12.213 2.536 13.705 2.291 8.367-1.363 14.284-6.09 13.293-8.195zM48.542 43.7c-.552-1.657 2.175-1.19 7.193-4.905 1.213-.898 6.173-1.435 5.893.044-.206 1.083-7.284 5.89-13.086 4.861z"/><path fill="#919DA3" d="M48.542 43.7c-1.725-.261-.793-2.338-.297-2.485 1.984-.587 5.756-2.579 7.825-4.654.76-.762 5.848-.619 5.975 1.576-.072.219-.417.702-.417.702-.454-.229-4.15-.416-5.363.481-5.019 3.713-7.499 3.605-7.723 4.38zM1.382 20.319c.438-2.593 6.311-5.812 11.919-5.622 1.198.04 5.058 2.271 7.871 2.291 3.328.024-5.249 3.623-5.33 2.732-.254-2.792-2.263-3.381-3.97-3.244-2.633.21-8.857 2.326-9.607 5.158-.065.245-.998-.628-.883-1.315z"/><path fill="#C1D0D9" d="M4.067 26.639c-.428-.881-4.307-4.452-3.942-6.61.438-2.592 7.235-6.208 12.844-6.021 1.198.04 4.699 1.488 7.644 2.38 3.211.972-3.454 2.499-3.76 1.671-.906-2.467-3.783-3.044-5.49-2.909-2.631.212-8.558 2.337-9.592 4.762-.68 1.594 3.594 3.259 6.443 1.515 1.537-.943-4.147 5.212-4.147 5.212z"/><path fill="#919DA3" d="M3.077 26.767c.137-1.15-2.398-3.302-2.808-3.956-.35-.563-.313-2.435-.145-2.782-.075 2.62 2.626 3.083 3.824 5.562.531 1.097-.871 1.176-.871 1.176z"/><ellipse cx="30.531" cy="29.265" fill="#C1D0D9" rx="28.498" ry="14.154"/><path fill="#788287" d="M30.53 42.564c13.403 0 24.581-4.645 27.162-10.813a54.67 54.67 0 0 0 .492-1.769c.047-.316.068-.629.068-.954 0-7.47-12.41-13.532-27.722-13.532-15.313 0-27.722 6.064-27.722 13.532 0 .325.021.638.066.954.157.594.32 1.186.492 1.77 2.577 6.168 13.76 10.812 27.164 10.812z"/><radialGradient id="c" cx="270.266" cy="81.665" r="14.581" gradientTransform="matrix(1.8479 0 0 1.0384 -468.894 -51.53)" gradientUnits="userSpaceOnUse"><stop offset="0" style="stop-color:#d66904"/><stop offset=".411" style="stop-color:#a94102"/><stop offset="1" style="stop-color:#6b0b00"/></radialGradient><path fill="url(#c)" d="M30.53 42.564c13.403 0 24.581-4.645 27.162-10.813.057-.186.111-.373.162-.559-2.24-6.376-13.619-11.231-27.324-11.231-13.707 0-25.082 4.855-27.322 11.231.054.186.107.376.159.559C5.943 37.92 17.126 42.564 30.53 42.564z"/><path fill="#E6A868" d="M36.031 20.661c1.332 1.692 2.832.749 4.33 2.597.194.235-.284 1.331-.498 1.114-1.823-1.811-3.043-1.017-4.354-2.571-.218-.254.415-1.275.522-1.14z" opacity=".5"/><path fill="#F0A000" d="M43.624 20.043c.173-.362 1.439-.482 1.887-.291 1.126.482 4.105 2.246 4.5 3.25.177.445.044 2.698-.132 2.961-.372.557-.966.836-1.385.839-.549-2.149-5.752-4.883-4.87-6.759z"/><path fill="#F9B700" d="M41.871 23.791c.617 1.442 4.93 1.618 6.623 3.011.314-.233.701-2.62.33-3.444-.426-.951-3.991-3.605-4.607-3.605-1.43-.001-2.846 2.399-2.346 4.038z"/><path fill="#8C4E2A" d="M39.308 21.005c.416-.104 1.643.096 1.939.362.279.25.696.705 1.094 1.222.062.079-.138.268-.08.349.048.068.242.083.289.151.233.339.091.416.276.779.012.027.064.403.079.434.03.065.067.313.098.379.144.336-.45.697-.307.793.277.179-.771 1.619-1.09 1.767-.678.319-1.902.455-2.027.331-2.749-2.701-1.914-4.857-.271-6.567z"/><path fill="#9E582F" d="M37.582 24.021c-.283 1.258 1.606 3.762 2.06 3.665.432-.089 1.815-1.977 1.961-2.698.021-.107-1.751.988-1.592.83.902-.912 1.416-1.287 1.359-1.447-.042-.119-.722.275-1.55.779-.141.085 1.553-1.282 1.502-1.395-.06-.127-.45-.699-.518-.829-.065-.122-.904.689-1.577 1.114-.443.279 1.519-1.431 1.467-1.52-.046-.078-2.879 1.982-2.728 1.837 1.438-1.367 2.488-2.302 2.435-2.378-.335-.501-.724-.937-.927-.975-.87-.165-1.712 2.473-1.892 3.017z"/><linearGradient id="d" x1="1212.969" x2="1246.545" y1="21.436" y2="21.436" gradientTransform="matrix(-1 0 0 1 1253.723 0)" gradientUnits="userSpaceOnUse"><stop offset="0" style="stop-color:#529320"/><stop offset=".305" style="stop-color:#4e8c1e"/><stop offset=".741" style="stop-color:#447a1a"/><stop offset="1" style="stop-color:#3c6b17"/></linearGradient><path fill="url(#d)" d="M33.457 26.11c-3.786 2.073-10.967 2.222-15.312 2.474-2.288.134-4.578.219-6.868.287-.248-.543-.325-1.277-.14-2.291.714-3.9-7.644-4.033-1.981-7.65 3.096-1.978 2.908-7.88 10.44-3.115 2.814 1.782 12.303-.736 8.84 7.038-1.042 2.338 2.743 2.12 5.021 3.257z"/><radialGradient id="e" cx="1292.471" cy="-52.634" r="11.375" gradientTransform="matrix(-.8018 .29 .9818 1.3249 1112.534 -274.98)" gradientUnits="userSpaceOnUse"><stop offset="0" style="stop-color:#92c932"/><stop offset=".24" style="stop-color:#8ec531"/><stop offset=".499" style="stop-color:#81ba2d"/><stop offset=".767" style="stop-color:#6ba827"/><stop offset="1" style="stop-color:#529320"/></radialGradient><path fill="url(#e)" d="M18.145 28.584c-1.493.087-2.985.156-4.479.213 1.131-1.814-3.862-1.848-1.721-4.256.696-.781-6.998-3.061-3.15-4.023 4.363-1.093 2.727-6.598 6.023-5.888 5.487 1.182 2.652 2.954 6.984 2.308 4.035-.601-.41 1.854 4.582 1.769 4.13-.07-1.125 5.4 2.564 6.272 2.865.676 2.928 1.254 3.053 1.791-3.972 1.453-10.022 1.592-13.856 1.814z"/><path fill="#E5EFCD" d="M20.27 28.471c-1.993-2.854-3.473-6.052-3.877-9.777 2.199 4.133 4.328 7.203 6.396 9.628-.872.059-1.719.107-2.519.149z"/><path fill="#E5EFCD" d="M18.742 22.84c.373.87-.742.401-.906-.182 1.94-3.396-.937-2.289.589-5.76-.817 2.901 1.676 2.098.317 5.942zm3.553 4.719c.448.981-.601.395-.824-.26 1.253-3.597-.249-2.415 2.089-8.105-1.325 5.88-.585 4.24-1.265 8.365z"/><path fill="#E5EFCD" d="M22.791 22.477a1.346 1.346 0 0 0-.279.596c-.865-3.105-1.624-1.602-2.723-4.767 1.065 2.396 1.785 1.477 3.002 4.171zm-.823 3.388c.21.138.348.308.418.491 1.3-2.549 2.438-1.315 4.086-3.911-1.598 1.965-2.678 1.213-4.504 3.42zm-3.594 2.708c-1.497-.413-2.666-.341-5.902-2.521 3.538 2.041 4.442 1.381 7.178 2.452-.445.022-.873.045-1.276.069zm.708-3.894c-.065.32 0 .665.158 1.002-4.885-3.679-4.578-1.115-9.934-4.721 4.465 2.574 4.725.839 9.776 3.719z"/><path fill="#F5D69A" d="M50.546 29.706s2.112 2.232 5.625.692c2.443-1.072-1.273-4.534-2.614-4.534-.571 0-3.011 1.782-3.011 3.842z"/><path fill="#DEB787" d="M56.171 30.398c2.443-1.072-1.273-4.534-2.614-4.534 1.694 1.903-.179 5.899-3.011 3.842 0 0 2.112 2.232 5.625.692zm-16.498-2.391c5.694 0 1.723 3.36 1.723 3.36l-1.723-3.36z"/><path fill="#F5D69A" d="M38.235 30.069c.416.988 3.16 1.298 3.16 1.298s-.634-3.36-1.723-3.36c-.895 0-1.748 1.319-1.437 2.062z"/><path fill="#F55A00" d="M16.605 38.713s3.886 3.903 7.287-2.23c-3.961 3.356-7.287 2.23-7.287 2.23zm13.235-9.34s2.14 4.787 7.12.549c-4.566 1.593-7.12-.549-7.12-.549zM19.026 31.66s1.815 5.121 6.979 1.557c-4.595.962-6.979-1.557-6.979-1.557zm-12.127.847s1.814 5.122 6.978 1.554c-4.596.964-6.978-1.554-6.978-1.554zm36.397-1.265c.229 1.121 1.09.621 1.519-.481.291-.75-1.744-.596-1.519.481zm11.792 1.537c-.974-.108-.991.685-.34 1.298.445.42 1.283-1.194.34-1.298zm-.072-1.75c-.358.554.248.774.91.544.449-.156-.563-1.084-.91-.544zm-19.707 9.83c.149.719.701.398.978-.307.186-.484-1.121-.383-.978.307zm-6.784.329c.229 1.117 1.091.621 1.521-.481.291-.752-1.746-.598-1.521.481zm-14.97-3.881c-.91-.331-1.118.208-.641.8.328.402 1.521-.483.641-.8zm19.856 2.811c.148.718.701.398.977-.31.187-.482-1.12-.38-.977.31z" opacity=".3"/><path fill="#F55A00" d="M6.684 34.305c.148.719.7.397.977-.31.187-.478-1.119-.381-.977.31zm9.217-2.325c.149.719.701.396.977-.308.187-.484-1.12-.383-.977.308zm27.388-4.975c.147.72.7.397.976-.309.187-.484-1.119-.383-.976.309zm2.303-.525c-.827.519.562.859 2.065.743 1.029-.081-1.274-1.242-2.065-.743z" opacity=".3"/><path fill="#DEAE73" d="M29.158 23.082c0 .621 3.395 3.118 6.237 1.34 1.783-1.119-1.065-5.183-2.092-5.229-.614-.027-4.145 1.744-4.145 3.889z"/><path fill="#F5D69A" d="M33.406 19.389s.014-.062.033-.161c-.047-.014-.095-.033-.137-.034-.614-.027-4.145 1.743-4.145 3.889 0 .522 2.406 2.365 4.863 1.879.681-1.224-1.904-5.573-.614-5.573z"/><path fill="#E6A868" d="M45.51 28.957c5.629 1.104 5.93-1.874 3.768-4.431-.275-.328-1.196-.38-.96-.044 1.801 2.583 1.201 3.878-3.314 3.229-.483-.068.257 1.196.506 1.246zm-15.198 3.227c1.496 1.438 2.906.299 4.585 1.86.213.201-.157 1.332-.395 1.157-1.998-1.48-3.137-.528-4.602-1.837-.238-.213.294-1.294.412-1.18z" opacity=".5"/><path fill="#F0A000" d="M12.765 27.008c-.182-.384-2.186-.242-2.66-.039-1.191.51-1.812.996-2.233 2.063-.186.474-.046 2.864.142 3.143.396.589 1.698 1.343 2.145 1.346 1.19.01 3.54-4.523 2.606-6.513z"/><path fill="#F9B700" d="M15.314 31.827c-.655 1.532-4.872 1.929-5.221 1.666-.333-.25-1.068-3.371-.722-4.265.292-.763 2.448-2.335 3.101-2.335 1.519.001 3.374 3.197 2.842 4.934z"/><path fill="#8C4E2A" d="M28.483 26.554c-.257-.474-1.167-.624-1.729-.604-.527.022-1.379.13-2.265.308-.137.028-.082.35-.218.381-.112.025-.1-.312-.208-.285-.559.136-1.158.311-1.676.507-.042.017-.078.319-.115.333-.096.039-.187-.211-.276-.173-.455.202-.797.423-.912.644-.222.427-.053 3.04.166 3.414.47.795.896 1.511 1.138 1.45 5.891-1.477 7.778-2.874 6.095-5.975z"/><path fill="#9E582F" d="M29.836 30.958c-2.382-.245-7.034 1.997-7.449 1.569-.395-.403-.277-3.169.189-3.941.07-.114 1.069 2.216 1.032 1.952-.203-1.511-.441-2.241-.242-2.346.151-.078.56.791 1.031 1.871.079.188-.596-2.336-.44-2.396.178-.074 1.103-.309 1.289-.378.181-.065.396 1.308.768 2.2.247.59-.428-2.449-.293-2.49.122-.035 1.447 3.969 1.406 3.724-.397-2.333-.738-3.97-.615-4.002.806-.209 1.613-.316 1.87-.201 1.103.494 1.734 3.806 1.454 4.438z"/><path fill="#D13200" d="M35.702 34.479c-.451-.419-.513-.495-.569-.916-.124-.912.591-2.462 1.261-3.082.593-.547 2.602-.756 3.473-.507.311.088 1.094.618 1.439 1.013.601.689-4.701 2.57-5.604 3.492z"/><path fill="#FF6A00" d="M35.702 34.479c-.124-.912.65-2.844 1.366-3.409.713-.565 3.065-.893 3.855-.44.479.275 1.499 1.906 1.555 2.822.054.92-4.374.105-6.776 1.027z"/><path fill="#E6A868" d="M13.322 35.39c-.892-6.017-5.412-6.105-8.213-3.635-.359.316-.023 1.29.368 1.018 3-2.095 5.171-1.561 6.234 3.247.116.514 1.649-.363 1.611-.63zm3.488-5.801c.889.389 1.722.226 2.567 1.344.097.129.557-.938.363-1.179-.85-1.046-1.584-.906-2.524-1.352-.129.399-.263.795-.406 1.187z" opacity=".5"/><path fill="#8C4E2A" d="M46.165 29.173c.297-.219.955-.171 1.416 0 .435.158 1.133.475 1.859.858.11.056.064.296.174.356.094.049.081-.219.175-.166.453.257.948.559 1.371.854.033.023.063.27.096.293.077.055.153-.114.225-.063.372.285.653.55.747.753.181.396.047 2.396-.135 2.63-.387.496-1.221.767-1.655.771-1.162.008-6.145-4.907-4.273-6.286z"/><path fill="#9E582F" d="M44.946 33.513c.64 1.282 5.378 2.144 5.716 1.923.324-.21.724-2.327.341-3.06-.055-.109-.873 1.444-.846 1.245.168-1.126.363-1.632.199-1.771-.123-.102-.456.467-.844 1.187-.067.124.486-1.668.361-1.761-.146-.104-.906-.539-1.059-.646-.146-.1-.324.917-.629 1.514-.201.394.35-1.8.24-1.871-.096-.06-1.187 2.715-1.151 2.534.327-1.719.603-2.909.504-2.967-.66-.385-1.321-.688-1.533-.668-.901.088-1.524 3.77-1.299 4.341z"/><path fill="#E6A868" d="M27.458 32.043c-.047.98.397 1.715-.333 2.913-.083.137 1.06.195 1.214-.074.666-1.174.28-1.821.357-2.871-.412.017-.828.032-1.238.032z" opacity=".5"/><path fill="#D13200" d="M35.554 29.106c-.189.156-.768.475-.971.503-.549.075-2.36.259-3.073-.189-.711-.449-1.665-2.438-1.701-3.289-.033-.749 1.007-2.319 1.7-2.801.244-.173 1.079-.421 1.559-.436.837-.03 3.569 5.312 2.486 6.212z"/><path fill="#FF6A00" d="M36.991 26.249c.039.849-.697 2.457-1.438 2.857s-2.64.338-3.353-.111c-.713-.448-1.609-2.15-1.581-3.001.026-.85 1.189-2.735 1.973-3.037.476-.184 2.221.045 2.895.55.676.504 1.465 1.891 1.504 2.742z"/><path fill="#E6A868" d="M23.25 41.119c1.017-.617 1.571-1.532 3.108-1.641.177-.013-.264-1.141-.604-1.105-1.487.155-1.979.96-3.079 1.593.2.381.395.763.575 1.153z" opacity=".5"/><path fill="#F0A000" d="M31.375 35.408c-.282-.156-1.51-.376-2-.307-.907.133-2.274.76-2.661 1.438-.173.299-.721 1.881-.552 2.057.364.375 2.677.721 3.088.724 1.634-1.719 3.594-3.093 2.125-3.912z"/><path fill="#F9B700" d="M33.679 37.894c-2.613.412-4.174 1.581-4.499 1.413-.306-.158-.988-1.965-.626-2.521.419-.64 2.139-1.542 2.687-1.426.522.113 2.103 1.296 2.438 2.534z"/><path fill="#E6A868" d="M45.063 38.834c1.253-.414 1.918-1.375 3.839-.962.22.05-.364-1.54-.789-1.617-1.854-.339-2.44.506-3.803.909.262.556.516 1.11.753 1.67z" opacity=".5"/><path fill="#D13200" d="M15.372 37.675c-.422-.271-.557-.41-.593-.7-.082-.625.275-1.807.961-2.265.604-.404 2.53-.644 3.375-.506.3.047 1.505.465 1.827.724.56.45-5.415 2.845-5.57 2.747z"/><path fill="#FF6A00" d="M15.295 37.586c-.081-.628.761-1.998 1.488-2.42.728-.423 3.045-.749 3.802-.47.455.171 1.385 1.256 1.399 1.887.012.635-6.605 1.628-6.689 1.003z"/><path fill="#F9B700" d="M37.09 35.374c.285-.399 3.255-.332 3.98-.083a4.621 4.621 0 0 1 2.523 2.045c.289.492.372 1.724.077 2.014-.614.614-.979.309-2.468 1.131-.808.447-5.567-3.033-4.112-5.107z"/><path fill="#F0A000" d="M37.234 39.715c2.234-.125 2.609 1.141 3.969.766.244-.067.128-1.987-.411-2.922-.459-.794-2.718-2.357-3.702-2.185-.555.098-.645 4.385.144 4.341z"/></svg>