<svg xmlns="http://www.w3.org/2000/svg" xml:space="preserve" viewBox="0 0 64 64"><linearGradient id="a" x1="392.487" x2="423.609" y1="397.688" y2="397.688" gradientTransform="rotate(-45.001 -213.563 665.52)" gradientUnits="userSpaceOnUse"><stop offset="0" style="stop-color:#ccd4db"/><stop offset=".132" style="stop-color:#d8e0e6"/><stop offset=".333" style="stop-color:#e5ebf1"/><stop offset=".527" style="stop-color:#e9eff5"/><stop offset=".743" style="stop-color:#e6edf3"/><stop offset=".872" style="stop-color:#dee5eb"/><stop offset=".979" style="stop-color:#d0d8de"/><stop offset="1" style="stop-color:#ccd4db"/></linearGradient><path fill="url(#a)" d="m28.326 15.049-.651-.652-6.64 6.638-6.639 6.641.652.653s-1.915 4.095-.577 7.233c1.512 3.541 7.088 5.266 11.563 9.741 5.008 5.005 7.981 12.645 12.548 14.366 3.217 1.215 6.895-.837 13.572-7.513 6.678-6.68 8.729-10.357 7.516-13.573-1.724-4.567-9.362-7.542-14.369-12.546-4.476-4.476-6.199-10.052-9.739-11.563-2.734-1.168-7.236.575-7.236.575z"/><linearGradient id="b" x1="393.497" x2="422.601" y1="395.875" y2="395.875" gradientTransform="rotate(-45.001 -207.465 662.995) scale(1 .9925)" gradientUnits="userSpaceOnUse"><stop offset="0" style="stop-color:#e8e5df"/><stop offset=".446" style="stop-color:#f4f2ef"/><stop offset="1" style="stop-color:#fff"/></linearGradient><path fill="url(#b)" d="M51.343 32.002c-2.359-1.623-4.799-3.299-6.854-5.355-1.99-1.987-3.438-4.186-4.716-6.125l-23.887 8.087c-.017.034-1.716 3.739-.567 6.454.755 1.781 2.816 3.14 5.202 4.713 1.938 1.277 4.137 2.727 6.125 4.715 2.056 2.054 3.732 4.494 5.354 6.853 2.231 3.247 4.34 6.313 6.825 7.243 2.354.88 5.267-.026 12.501-7.261 7.232-7.233 8.14-10.144 7.26-12.498-.931-2.488-3.997-4.595-7.243-6.826z"/><linearGradient id="c" x1="464.139" x2="477.328" y1="192.625" y2="192.625" gradientTransform="rotate(-45.001 20.91 657.05)" gradientUnits="userSpaceOnUse"><stop offset="0" style="stop-color:#ffa400"/><stop offset=".31" style="stop-color:#ffb70e"/><stop offset=".711" style="stop-color:#ffc91c"/><stop offset="1" style="stop-color:#ffcf21"/></linearGradient><path fill="url(#c)" d="M13.62 8.729c-.877-.373-2.8-2.342-2.8-2.342.174-1.016-2.714-4.063-5.605-1.173-2.892 2.894.155 5.779 1.17 5.606 0 0 1.969 1.922 2.345 2.801.354.831-.335 4.098 1.854 6.288l5.372-3.954 3.953-5.373c-2.19-2.189-5.459-1.499-6.289-1.853z"/><linearGradient id="d" x1="463.07" x2="478.396" y1="200.328" y2="200.328" gradientTransform="rotate(-45.001 20.91 657.05)" gradientUnits="userSpaceOnUse"><stop offset="0" style="stop-color:#ffa400"/><stop offset=".38" style="stop-color:#ffb10a"/><stop offset="1" style="stop-color:#ffcf21"/></linearGradient><path fill="url(#d)" d="M19.908 10.583c-1.703 1.706-4.662 4.662-4.662 4.662l-4.663 4.665c-.756.756.817 2.328.817 2.328l5.417-5.421 5.418-5.418s-1.571-1.571-2.327-.816z"/><linearGradient id="e" x1="462.144" x2="479.321" y1="201.633" y2="201.633" gradientTransform="rotate(-45.001 20.91 657.05)" gradientUnits="userSpaceOnUse"><stop offset="0" style="stop-color:#0094eb"/><stop offset=".243" style="stop-color:#0496ec"/><stop offset=".499" style="stop-color:#119df0"/><stop offset=".76" style="stop-color:#26a9f7"/><stop offset="1" style="stop-color:#40b7ff"/></linearGradient><path fill="url(#e)" d="m22.234 10.714-5.759 5.761-5.759 5.759c-.315.315.357.986.357.986l6.359-5.784 5.786-6.361c.002 0-.669-.672-.984-.361z"/><linearGradient id="f" x1="460.852" x2="480.613" y1="204.815" y2="204.815" gradientTransform="rotate(-45.001 20.91 657.05)" gradientUnits="userSpaceOnUse"><stop offset="0" style="stop-color:#0094eb"/><stop offset=".158" style="stop-color:#0c9bef"/><stop offset=".709" style="stop-color:#32affb"/><stop offset="1" style="stop-color:#40b7ff"/></linearGradient><path fill="url(#f)" d="M26.774 13.874s-3.112-3.241-3.555-2.799l-6.072 6.074-6.073 6.071c-.441.443 2.798 3.554 2.798 3.554s-.173.898.402 1.476l6.986-6.989 6.986-6.985c-.573-.576-1.472-.402-1.472-.402z"/><path fill="#0094EB" d="m17.547 16.748 3.176 3.175-.798.798-3.176-3.175zm-4.264 4.262 3.178 3.176-.8.801-3.179-3.176zm8.527-8.525 3.177 3.177-.8.8-3.176-3.177z"/><path fill="#FFF" d="M39.773 20.522c-1.112-1.672-23.203 6.198-23.887 8.087-.505 1.399 24.93-6.524 23.887-8.087z"/></svg>