<svg xmlns="http://www.w3.org/2000/svg" xml:space="preserve" viewBox="0 0 64 64"><path fill="#C5D7E8" d="M16.195 4.408c3.165-3.208 28.438-3.214 31.609 0C49.254 5.878 59.906 31.284 32 38.963 4.094 31.284 14.746 5.878 16.195 4.408z"/><path fill="#E6EBEF" d="M16.93 5.125c2.775-2.814 27.367-2.811 30.152.011.451.526 1.826 3.712 2.494 7.776H14.387c.658-4.207 2.084-7.257 2.543-7.787z"/><path fill="#C5D7E8" d="M27.84 56.44c2.047-2.068 2.531-2.833 2.734-4.039.641-3.783 0-14.398 0-14.398h2.85s-.48 10.59 0 14.398c.154 1.214.443 1.726 2.734 4.039 4.236.42 7.24 1.461 7.24 2.68C43.398 60.71 38.297 62 32 62s-11.4-1.29-11.4-2.88c0-1.219 3.004-2.26 7.24-2.68z"/><radialGradient id="a" cx="-255.093" cy="18.556" r="24.911" gradientTransform="matrix(-1 0 0 1.0239 -223.031 -7.4)" gradientUnits="userSpaceOnUse"><stop offset=".139" style="stop-color:#c40505"/><stop offset=".256" style="stop-color:#be0505"/><stop offset=".414" style="stop-color:#ac0505"/><stop offset=".597" style="stop-color:#900505"/><stop offset=".798" style="stop-color:#680404"/><stop offset="1" style="stop-color:#380404"/></radialGradient><path fill="url(#a)" d="M14.383 12.912h35.191c.316 1.494.475 3.414.475 4.385C50.049 31.284 36.75 36.74 32 36.74c-4.748 0-18.051-5.456-18.051-19.442 0-1.411.229-3.186.434-4.386z"/><path fill="#E6EBEF" d="M32.475 61.04c7.77 0-10.84-1.016-6.586-3.095 3.469-1.693-3.875.105-3.875.997 0 .976 4.049 2.098 10.461 2.098z" opacity=".3"/><path fill="#93B0C0" d="M33.311 54.241c2.42 3.016 4.467 4.472 4.092 4.511-3.655.383-5.196-5.887-4.092-4.511z" opacity=".3"/><path fill="#CC0100" d="M14.385 12.864c0 1.257 7.885 2.277 17.613 2.277 9.73 0 17.578-1.021 17.578-2.277 0-.87-7.961-1.818-17.578-1.818-9.84 0-17.613.947-17.613 1.818z"/><linearGradient id="b" x1="18.75" x2="18.75" y1="26.789" y2="8.27" gradientUnits="userSpaceOnUse"><stop offset="0" style="stop-color:#fff;stop-opacity:0"/><stop offset="1" style="stop-color:#fff"/></linearGradient><path fill="url(#b)" d="M17.176 8.27s1.475.682 3.936 1.131c0 0-3.145 8.264.699 17.389 0 0-2.572-.424-4.23-.92-.001-.001-3.968-7.12-.405-17.6z" opacity=".7"/><path fill="#C5D7E8" d="M16 5.38c0 1.411 7.164 2.56 16 2.56 8.834 0 15.998-1.148 15.998-2.56 0-1.002-7.219-2.56-15.998-2.56-8.895 0-16 1.558-16 2.56z"/><path fill="#F5F5F5" d="M16.969 4.828c0 .911 6.707 1.945 15.01 1.945s15.053-1.032 15.053-1.945c0-.842-6.783-2.15-15.031-2.15-8.355 0-15.032 1.308-15.032 2.15z"/></svg>