<svg xmlns="http://www.w3.org/2000/svg" xml:space="preserve" style="enable-background:new 0 0 64 64" viewBox="0 0 64 64"><linearGradient id="a" x1="17.73" x2="22.823" y1="-144.733" y2="-144.733" gradientTransform="matrix(.6339 -.6339 .4906 .4906 103.284 128.99)" gradientUnits="userSpaceOnUse"><stop offset=".179" style="stop-color:#7f868a"/><stop offset=".258" style="stop-color:#868d91"/><stop offset=".372" style="stop-color:#99a0a4"/><stop offset=".508" style="stop-color:#b7c0c4"/><stop offset=".628" style="stop-color:#d8e1e6"/><stop offset=".695" style="stop-color:#cfd8dd"/><stop offset=".807" style="stop-color:#b7bfc4"/><stop offset=".947" style="stop-color:#90979b"/><stop offset="1" style="stop-color:#7f868a"/></linearGradient><path d="m48.089 44.86-3.23 3.228-2.685-2.687 3.227-3.227z" style="fill:url(#a)"/><linearGradient id="b" x1="16.44" x2="24.113" y1="-126.741" y2="-126.741" gradientTransform="matrix(.6339 -.6339 .4906 .4906 103.284 128.99)" gradientUnits="userSpaceOnUse"><stop offset="0" style="stop-color:#3d3d42"/><stop offset=".409" style="stop-color:#3f3f44"/><stop offset=".619" style="stop-color:#47474c"/><stop offset=".784" style="stop-color:#545459"/><stop offset=".924" style="stop-color:#66666c"/><stop offset="1" style="stop-color:#73737a"/></linearGradient><path d="m48.43 45.111-3.32 3.32c6.928 4.942 5.392 10.605 14.696 13.56.5.158 2.343-1.684 2.184-2.184-2.952-9.308-8.615-7.768-13.56-14.696z" style="fill:url(#b)"/><linearGradient id="c" x1="16.765" x2="23.786" y1="-142.473" y2="-142.473" gradientTransform="matrix(.6339 -.6339 .4906 .4906 103.284 128.99)" gradientUnits="userSpaceOnUse"><stop offset="0" style="stop-color:#3d3d42"/><stop offset=".246" style="stop-color:#424247"/><stop offset=".55" style="stop-color:#515157"/><stop offset=".885" style="stop-color:#696970"/><stop offset="1" style="stop-color:#73737a"/></linearGradient><path d="m48.76 44.99-3.771 3.77c-.454.454-1.723-.816-1.27-1.27l3.772-3.77c.453-.453 1.723.816 1.27 1.27z" style="fill:url(#c)"/><radialGradient id="d" cx="27.017" cy="27.018" r="25" gradientTransform="translate(-.018 -.018) scale(1.0006)" gradientUnits="userSpaceOnUse"><stop offset=".942" style="stop-color:#343438"/><stop offset=".949" style="stop-color:#46464b"/><stop offset=".961" style="stop-color:#5e5e64"/><stop offset=".973" style="stop-color:#6f6f77"/><stop offset=".986" style="stop-color:#7a7a81"/><stop offset="1" style="stop-color:#7d7d85"/></radialGradient><path d="M27.013 2C40.83 2 52.028 13.2 52.028 27.015S40.828 52.03 27.013 52.03C13.198 52.03 2 40.83 2 27.015S13.198 2 27.013 2z" style="fill:url(#d)"/><radialGradient id="e" cx="9.471" cy="22.79" r="22.735" gradientTransform="translate(17.13 3.237) scale(1.0434)" gradientUnits="userSpaceOnUse"><stop offset=".52" style="stop-color:#606066"/><stop offset=".62" style="stop-color:#5a5a60"/><stop offset=".754" style="stop-color:#4a4a4f"/><stop offset=".883" style="stop-color:#343438"/></radialGradient><circle cx="27.013" cy="27.015" r="23.514" style="fill:url(#e)"/><radialGradient id="f" cx="24.203" cy="20.674" r="14.653" gradientTransform="translate(2.177 5.799) scale(1.0262)" gradientUnits="userSpaceOnUse"><stop offset=".679" style="stop-color:#fff"/><stop offset=".793" style="stop-color:#f4f6f6"/><stop offset=".964" style="stop-color:#dce1e3"/></radialGradient><path d="M34.03 14.474c-8.285.575-9.973-5.061-17.207-.223-3.396 2.271-2.482 6.555-4.329 11.762-3.142 8.847 3.374 13.988 11.083 15.543 6.852 1.383 9.218-4.82 15.79-8.15 5.265-2.668 3.575-19.552-5.337-18.932z" style="fill:url(#f)"/><radialGradient id="g" cx="8.509" cy="19.171" r="7.932" gradientTransform="translate(13.675 5.776) scale(1.0673)" gradientUnits="userSpaceOnUse"><stop offset=".485" style="stop-color:#f5c001"/><stop offset=".696" style="stop-color:#f4b905"/><stop offset=".999" style="stop-color:#f0a611"/><stop offset="1" style="stop-color:#f0a611"/></radialGradient><path d="M24.43 20.487a7.526 7.526 0 1 1-.004 15.05 7.526 7.526 0 0 1 .004-15.05z" style="fill:url(#g)"/><linearGradient id="h" x1="24.43" x2="24.43" y1="27.424" y2="21.74" gradientUnits="userSpaceOnUse"><stop offset="0" style="stop-color:#fff;stop-opacity:0"/><stop offset="1" style="stop-color:#fff"/></linearGradient><path d="M28.794 23.487c4.705 5.248-13.434 5.25-8.728 0 2.087-2.33 6.64-2.329 8.728 0z" style="opacity:.6;fill:url(#h)"/></svg>