<svg xmlns="http://www.w3.org/2000/svg" xml:space="preserve" viewBox="0 0 64 64"><linearGradient id="a" x1="19" x2="30.988" y1="32" y2="32" gradientUnits="userSpaceOnUse"><stop offset="0" style="stop-color:#d3d8db"/><stop offset=".358" style="stop-color:#cfd5d8"/><stop offset=".702" style="stop-color:#c4cdd1"/><stop offset="1" style="stop-color:#b3c2c6"/></linearGradient><path fill="url(#a)" d="M28.844 0c-.355 0 .679 15.436-.771 15.436S27.857 0 26.535 0c-1.324 0 .029 15.436-1.54 15.436S24.779 0 23.455 0s-.09 15.436-1.539 15.436c-1.45 0-.417-15.436-.769-15.436C20.082 0 19 13.443 19 15.598c0 5.68.646 5.992 2.863 7.41 1.85 1.18 1.317 2.409 1.317 6.597C23.18 55.075 18.956 64 24.995 64c6.037 0 1.816-8.925 1.816-34.398 0-4.185-.534-5.414 1.316-6.596 2.217-1.416 2.862-1.729 2.862-7.408C30.988 13.443 29.908 0 28.844 0z"/><linearGradient id="b" x1="35.893" x2="45" y1="32" y2="32" gradientUnits="userSpaceOnUse"><stop offset="0" style="stop-color:#d3d8db"/><stop offset=".358" style="stop-color:#cfd5d8"/><stop offset=".702" style="stop-color:#c4cdd1"/><stop offset="1" style="stop-color:#b3c2c6"/></linearGradient><path fill="url(#b)" d="M40.192 33.235C40.192 50.394 35.703 64 41.503 64c5.817 0 2.62-2.627 2.62-30.765 0-4.485.38-5.606.38-11.213V1.537c0-1.015-1.314-2.48-3.015-.704-2.108 2.211-5.596 14.698-5.596 25.788.001 3.089 4.3 1.019 4.3 6.614z"/><radialGradient id="c" cx="90.338" cy="1283.655" r="4.78" gradientTransform="matrix(.0094 2.4482 .3513 -.0304 -427.157 -131.42)" gradientUnits="userSpaceOnUse"><stop offset="0" style="stop-color:#fff"/><stop offset="1" style="stop-color:#fff;stop-opacity:0"/></radialGradient><path fill="url(#c)" d="M24.632 62.838c-2.544.221-2.637-24.009-.094-24.228 2.542-.22 2.635 24.009.094 24.228z" opacity=".2"/><radialGradient id="d" cx="100.256" cy="1325.815" r="4.53" gradientTransform="matrix(-.0607 2.1245 .352 -.0161 -419.676 -138.3)" gradientUnits="userSpaceOnUse"><stop offset="0" style="stop-color:#fff"/><stop offset="1" style="stop-color:#fff;stop-opacity:0"/></radialGradient><path fill="url(#d)" d="M40.594 63.329c-2.419.11-1.849-19.854.568-19.96 2.419-.113 1.852 19.852-.568 19.96z" opacity=".2"/></svg>