<svg xmlns="http://www.w3.org/2000/svg" xml:space="preserve" viewBox="0 0 64 64"><linearGradient id="a" x1="69.999" x2="69.999" y1="91.671" y2="54.401" gradientTransform="rotate(-4.289 -465.644 336.568)" gradientUnits="userSpaceOnUse"><stop offset="0" style="stop-color:#b8cad9"/><stop offset=".075" style="stop-color:#baccdc"/><stop offset=".462" style="stop-color:#c2d4e5"/><stop offset="1" style="stop-color:#c5d7e8"/></linearGradient><path fill="url(#a)" d="m41.433 15.572.271 7.509s.632-1.48 1.346-1.938c1.529-.979 7.435-1.881 9.125-.456 3.305 2.784 1.351 20.511-8.758 23.434-1.619.47-2.02-2.782-2.02-2.782l-.771 11.669s.972-3.183 2.049-3.572c17.128-6.197 16.199-27.467 13.648-30.52-2.188-2.618-4.485-2.41-13.22-2.042-.952.039-1.67-1.302-1.67-1.302z"/><linearGradient id="b" x1="69.855" x2="69.855" y1="93.778" y2="53.323" gradientTransform="rotate(-4.289 -465.644 336.568)" gradientUnits="userSpaceOnUse"><stop offset="0" style="stop-color:#b8cad9"/><stop offset=".238" style="stop-color:#c3d5e6"/><stop offset=".557" style="stop-color:#cbddef"/><stop offset="1" style="stop-color:#cee0f2"/></linearGradient><path fill="url(#b)" d="m40.231 55.149.915-13.826.503-.012c.086.701.551 2.693 1.51 2.625a.956.956 0 0 0 .183-.033c6.163-1.781 8.556-8.869 9.298-11.833 1.218-4.863.933-9.894-.636-11.217-.647-.545-2.138-.778-4.091-.641-1.906.134-3.934.614-4.717 1.115-.535.344-1.089 1.441-1.257 1.833l-.444 1.046-.353-9.694.518.96c.18.335.79 1.2 1.432 1.172l1.004-.044c7.873-.331 10.248-.434 12.43 2.176 1.511 1.809 2.315 8.907.141 15.919-1.58 5.098-5.275 11.83-13.898 14.95-.698.254-1.535 2.234-1.899 3.422l-.639 2.082zm1.166-11.057-.408 7.238c.4-.901.965-1.881 1.594-2.106 8.432-3.053 11.977-9.309 13.527-14.307 2.26-7.291.89-13.297-.316-14.742-2.021-2.417-4.138-2.33-12.008-1.995l-1.002.043c-.577.025-1.063-.35-1.4-.722l.383 4.775c.258-.436.761-1.078 1.14-1.32.862-.555 2.952-1.058 4.972-1.2 1.229-.085 3.443-.102 4.471.763 1.713 1.442 2.125 7.888.851 12.976-.763 3.042-3.185 10.438-9.638 12.17-1.103.295-1.867-.808-2.166-1.573z"/><path fill="#C5D7E8" d="M42.033 53.461V7.086c0-1.309-35.405-1.309-35.405 0v46.375s-.331.59-.331 4.076c0 5.951 36.066 5.951 36.066 0 0-3.486-.33-4.076-.33-4.076z"/><linearGradient id="c" x1="24.331" x2="24.331" y1="55.048" y2="15.101" gradientUnits="userSpaceOnUse"><stop offset="0" style="stop-color:#f59e01"/><stop offset=".375" style="stop-color:#f39b01"/><stop offset=".645" style="stop-color:#eb9203"/><stop offset=".881" style="stop-color:#dd8205"/><stop offset="1" style="stop-color:#d47706"/></linearGradient><path fill="url(#c)" d="M7.783 16.151s.623 28.92.623 35.865c0 4.043 31.851 4.043 31.851 0 0-6.603.622-35.865.622-35.865-.174-1.401-32.923-1.401-33.096 0z"/><path fill="#FFE8C9" d="M7.783 7.497v8.654c12.21-.343 20.885-.343 33.095 0V7.497c0-.992-33.095-.992-33.095 0z"/><path fill="#D47706" d="M23.717 44.187c0 3.419-5.338 3.419-5.338 0 0-3.421 5.338-3.421 5.338 0zm-4.003-8.052c0 2.053-3.203 2.053-3.203 0 0-2.052 3.203-2.052 3.203 0zm4.804-3.077c0 2.734-4.271 2.734-4.271 0 0-2.736 4.271-2.738 4.271 0zm-5.338-5.772c0 1.367-2.135 1.367-2.135 0-.001-1.369 2.135-1.369 2.135 0z"/><path fill="#B2C1D1" d="M8.22 55.88c12.963 3.714 15.497 4.446 30.322-.196-11.209 1.038-19.884 1.57-30.322.196z"/><path fill="#B2C1D1" d="M12.95 58.331c8.442 2.445 17.943 1.82 26.765-1.052-9.002.301-17.715 1.487-26.765 1.052z"/><linearGradient id="d" x1="12.274" x2="12.274" y1="49.266" y2="8.066" gradientUnits="userSpaceOnUse"><stop offset="0" style="stop-color:#fff;stop-opacity:0"/><stop offset=".114" style="stop-color:#fff;stop-opacity:.1142"/><stop offset="1" style="stop-color:#fff"/></linearGradient><path fill="url(#d)" d="M10.099 13.077c.221 12.399.967 25.111.136 34.82-.117 1.343 4.071 2.197 4.122.127.24-9.481-.052-23.485-.146-34.947h-4.112z" opacity=".5"/><path fill="#FFF3E3" d="M6.004 9.168c.202-3.888 2.313-3.651 4.514-4.12 2.258-.481 2.886-1.697 6.335-2.686 4.725-1.353 8.72 1.581 12.544.598 7.346-1.889 15.141 3.682 12.636 6.388-.878-1.282-3.46-3.01-5.858.642-1.602 2.437.125 6.255.125 8.912 0 3.593-2.928 3.178-2.928 0 0-2.827 1.323-6.667-.907-7.975-5.365-3.15-8.312 3.845-11.417.284-4.374-5.018-5.758 2.785-8.995-1.992-1.866-2.757-6.204 2.906-6.049-.051z"/><path fill="#FFF" d="M11.365 5.973s-3.8-.269-4.433 1.71c-.632 1.978 3.256-.686 4.433-1.71zM34.387 16.81s-1.38 1.888-.171 3.572c.734 1.019.171-3.572.171-3.572zM15.716 6.09c2.694-.245 2.461.531 5.293.531 3.597 0 4.401-1.904 8.195-1.592 0 0-3.884-1.549-9.099.461 0 0-.022-.523 1.194-1.422-2.843.166-3.385 1.484-5.583 2.022z"/></svg>