<svg xmlns="http://www.w3.org/2000/svg" xml:space="preserve" viewBox="0 0 64 64"><path fill="#FFD480" d="M18.621 12.695c-1.004-3.555.891-8.344 3.11-6.912 2.274 1.463-2.453 2.934-3.11 6.912zm-1.143-1.568C13.019 6.412 15.883.189 18.25.95c2.429.779-2.149 5.909-.772 10.177zm-2.141-.538C8.438 3.429 10.915-.589 12.608.069c1.736.677-.057 5.63 2.729 10.52zM4.743 14.402c-3.068-.458-6.3 3.554-3.918 4.783 1.801.919 1.677-2.946 3.918-4.783zm-4.576.406c1.023 1.197 3.732-3.735 8.589-3.443C2.262 9.227-.665 13.844.167 14.808z"/><radialGradient id="a" cx="6.828" cy="31.98" r="8.546" gradientTransform="matrix(.9491 -.3065 .221 .6849 -6.07 -5.986)" gradientUnits="userSpaceOnUse"><stop offset="0" style="stop-color:#ffe1bd"/><stop offset=".233" style="stop-color:#ffe0b9"/><stop offset=".478" style="stop-color:#ffddac"/><stop offset=".727" style="stop-color:#ffd997"/><stop offset=".933" style="stop-color:#ffd480"/></radialGradient><path fill="url(#a)" d="M6.191 18.109c1.211 6.567 6.145-1.333 7.807.078l4.316-4.316c-3.268-6.904-18.793.724-12.123 4.238z"/><linearGradient id="b" x1="445.922" x2="451.876" y1="267.766" y2="267.766" gradientTransform="rotate(-45.001 -87.955 671.26)" gradientUnits="userSpaceOnUse"><stop offset="0" style="stop-color:#825623"/><stop offset=".211" style="stop-color:#885b27"/><stop offset=".482" style="stop-color:#986933"/><stop offset=".784" style="stop-color:#b28047"/><stop offset="1" style="stop-color:#c99458"/></linearGradient><path fill="url(#b)" d="M2.995 7.136c1.112.041 1.594 2.21 2.965 2.394.615.083 3.66-2.95 3.576-3.576-.185-1.371-2.354-1.852-2.395-2.964-.039-1.006-5.152 4.107-4.146 4.146z"/><linearGradient id="c" x1="445.14" x2="452.658" y1="263.723" y2="263.723" gradientTransform="rotate(-45.001 -87.955 671.26)" gradientUnits="userSpaceOnUse"><stop offset="0" style="stop-color:#825623"/><stop offset=".355" style="stop-color:#a1713a"/><stop offset=".766" style="stop-color:#be8a50"/><stop offset="1" style="stop-color:#c99458"/></linearGradient><path fill="url(#c)" d="M7.353 2.492c-.151 1.043-3.775 4.7-4.855 4.856-.825.123-2.574-2.322-2.49-2.954C.212 2.862 2.868.205 4.4 0c.63-.082 3.074 1.666 2.953 2.492z"/><radialGradient id="d" cx="4.301" cy="42.51" r="5.641" gradientTransform="matrix(.9973 0 0 .9977 .668 -18.081)" gradientUnits="userSpaceOnUse"><stop offset="0" style="stop-color:#ffe1bd"/><stop offset=".362" style="stop-color:#ffdba1"/><stop offset=".757" style="stop-color:#ffd689"/><stop offset="1" style="stop-color:#ffd480"/></radialGradient><path fill="url(#d)" d="M10.577 23.818c2.937 5.445-5.272 10.101-7.119 4.194-1.773-5.678 5.069-7.996 7.119-4.194z"/><path fill="#FFD480" d="M12.92 29.347c2.521 4.677-4.527 8.671-6.112 3.602-1.522-4.874 4.353-6.866 6.112-3.602z"/><radialGradient id="e" cx="4.543" cy="51.043" r="4.841" gradientTransform="matrix(.9973 0 0 .9977 .668 -18.081)" gradientUnits="userSpaceOnUse"><stop offset="0" style="stop-color:#ffe1bd"/><stop offset=".362" style="stop-color:#ffdba1"/><stop offset=".757" style="stop-color:#ffd689"/><stop offset="1" style="stop-color:#ffd480"/></radialGradient><path fill="url(#e)" d="M9.529 31.526c2.521 4.677-4.527 8.67-6.113 3.598-1.521-4.87 4.353-6.861 6.113-3.598z"/><path fill="#FFD480" d="M12.046 41.41c1.76 3.271-3.167 6.066-4.273 2.52-1.066-3.407 3.04-4.8 4.273-2.52z"/><path fill="#FFD480" d="M12.419 35.9c2.15 3.991-3.863 7.399-5.216 3.07-1.299-4.157 3.714-5.857 5.216-3.07zm-.226 11.887c.895 1.658-1.608 3.08-2.169 1.279-.543-1.73 1.544-2.439 2.169-1.279z"/><radialGradient id="f" cx="5.426" cy="62.791" r="2.943" gradientTransform="matrix(.9973 0 0 .9977 .668 -18.081)" gradientUnits="userSpaceOnUse"><stop offset="0" style="stop-color:#ffe1bd"/><stop offset=".362" style="stop-color:#ffdba1"/><stop offset=".757" style="stop-color:#ffd689"/><stop offset="1" style="stop-color:#ffd480"/></radialGradient><path fill="url(#f)" d="M8.727 44.278c1.502 2.787-2.699 5.172-3.644 2.148-.907-2.906 2.595-4.093 3.644-2.148z"/><linearGradient id="g" x1="308.966" x2="331.423" y1="-25.743" y2="-25.743" gradientTransform="rotate(-45.001 269.213 341.306)" gradientUnits="userSpaceOnUse"><stop offset="0" style="stop-color:#113009"/><stop offset=".116" style="stop-color:#134905"/><stop offset=".246" style="stop-color:#145d02"/><stop offset=".375" style="stop-color:#156a01"/><stop offset=".5" style="stop-color:#156e00"/><stop offset=".625" style="stop-color:#156a01"/><stop offset=".754" style="stop-color:#145d02"/><stop offset=".884" style="stop-color:#134905"/><stop offset="1" style="stop-color:#113009"/></linearGradient><path fill="url(#g)" d="m38.26 29.113-9.132 9.138s4.52 10.548 9.225 15.724c.958 1.053 6.094 6.555 9.49 9.578 1.508 1.341 4.355-.24 9.912-5.802 5.557-5.558 7.138-8.405 5.795-9.917-3.02-3.396-8.518-8.536-9.567-9.494-5.176-4.707-15.723-9.227-15.723-9.227z"/><linearGradient id="h" x1="361.832" x2="377.983" y1="-82.895" y2="-82.895" gradientTransform="rotate(-45.001 371.899 369.077)" gradientUnits="userSpaceOnUse"><stop offset="0" style="stop-color:#a87c23"/><stop offset=".006" style="stop-color:#ab7f25"/><stop offset=".09" style="stop-color:#c99c39"/><stop offset=".178" style="stop-color:#e1b44a"/><stop offset=".271" style="stop-color:#f2c455"/><stop offset=".373" style="stop-color:#fcce5c"/><stop offset=".5" style="stop-color:#ffd15e"/><stop offset=".627" style="stop-color:#fcce5c"/><stop offset=".729" style="stop-color:#f2c455"/><stop offset=".822" style="stop-color:#e1b44a"/><stop offset=".91" style="stop-color:#c99c39"/><stop offset=".994" style="stop-color:#ab7f25"/><stop offset="1" style="stop-color:#a87c23"/></linearGradient><path fill="url(#h)" d="M60.803 49.381a58.156 58.156 0 0 1-11.417 11.42c-2.927-2.93-5.856-5.859-8.783-8.787 2.668-2.015 9.404-8.751 11.416-11.422l8.784 8.789z"/><path fill="#FFE1A8" d="m52.019 42.1 7.275 7.281c-1.626 2.159-3.027 3.825-4.561 5.359-1.531 1.529-3.193 2.929-5.348 4.553-2.927-2.931-4.348-4.352-7.275-7.279 1.332-1.005 3.3-2.811 5.188-4.698 1.896-1.897 3.712-3.878 4.721-5.216m-.03-.407-.186.246c-.938 1.247-2.693 3.186-4.694 5.188-1.989 1.988-3.917 3.735-5.159 4.673l-.244.186.217.217 2.053 2.054 5.222 5.226.164.165.186-.141c2.243-1.693 3.901-3.104 5.374-4.578 1.477-1.475 2.891-3.136 4.586-5.385l.141-.186-.164-.165-3.639-3.64-3.638-3.642-.219-.218z"/><path fill="#FFF" d="M47.911 47.903a4.208 4.208 0 1 0 5.951 5.954 4.21 4.21 0 0 0-.001-5.954 4.206 4.206 0 0 0-5.95 0zm5.207 5.209a3.16 3.16 0 0 1-4.465 0 3.161 3.161 0 0 1 0-4.463 3.159 3.159 0 0 1 4.465-.001 3.159 3.159 0 0 1 0 4.464z" opacity=".5"/><path fill="#FFF" d="m52.151 49.02-.967.968c-.102.102-.102.199-.001.298l.298.298c.101.102.197.1.298-.001l.326-.324c.263.516.178 1.16-.252 1.589a1.362 1.362 0 0 1-.968.403c-.143 0-.211.068-.209.209l-.002.633c0 .141.07.211.211.211a2.402 2.402 0 0 0 1.709-.711 2.417 2.417 0 0 0 .002-3.423l-.148-.149c-.099-.101-.198-.102-.297-.001z" opacity=".5"/><linearGradient id="i" x1="157.665" x2="166.019" y1="429.743" y2="429.743" gradientTransform="rotate(-45.001 -404.142 396.252)" gradientUnits="userSpaceOnUse"><stop offset="0" style="stop-color:#113009"/><stop offset=".116" style="stop-color:#134905"/><stop offset=".246" style="stop-color:#145d02"/><stop offset=".375" style="stop-color:#156a01"/><stop offset=".5" style="stop-color:#156e00"/><stop offset=".625" style="stop-color:#156a01"/><stop offset=".754" style="stop-color:#145d02"/><stop offset=".884" style="stop-color:#134905"/><stop offset="1" style="stop-color:#113009"/></linearGradient><path fill="url(#i)" d="M15.904 15.886c-2.138 2.137-3.456 3.55-1.613 3.864.956 1.354 2.445 2.964 2.927 3.221.274.146 1.081.079 1.297.298a36.258 36.258 0 0 1 2.548 2.824l5.044-5.045a35.848 35.848 0 0 1-2.826-2.549c-.216-.219-.149-1.026-.296-1.299-.255-.481-1.862-1.971-3.217-2.93-.312-1.84-1.725-.523-3.864 1.616z"/><linearGradient id="j" x1="442.336" x2="455.363" y1="300.971" y2="300.971" gradientTransform="rotate(-45.001 -87.955 671.26)" gradientUnits="userSpaceOnUse"><stop offset="0" style="stop-color:#a87c23"/><stop offset=".062" style="stop-color:#b68a2d"/><stop offset=".254" style="stop-color:#deb047"/><stop offset=".406" style="stop-color:#f6c858"/><stop offset=".5" style="stop-color:#ffd15e"/><stop offset=".594" style="stop-color:#f6c858"/><stop offset=".746" style="stop-color:#deb047"/><stop offset=".938" style="stop-color:#b68a2d"/><stop offset="1" style="stop-color:#a87c23"/></linearGradient><path fill="url(#j)" d="M38.26 29.113c-4.259-2.105-7.158-4.021-12.152-8.065l-1.005-.219.126.788-1.462.862-1.193 1.91-1.214.436-.294 1.268c4.045 4.993 5.959 7.896 8.063 12.158.551-.439 1.156-1.101 1.767-1.104.409-.002.821.374 1.14.693 1.098-.829 3.676-.197 4.648-1.17.972-.974.339-3.55 1.168-4.646-.319-.32-.695-.732-.692-1.143-.001-.61.661-1.217 1.1-1.768z"/><path fill="#FFD480" d="M38.062 29.015c-.139.222-.32.431-.497.636-.346.396-.673.772-.675 1.229-.003.428.281.816.619 1.178-.328.582-.389 1.398-.445 2.191-.064.882-.133 1.796-.572 2.234-.438.438-1.353.507-2.234.572-.793.058-1.61.116-2.193.445-.359-.339-.749-.622-1.176-.619-.458.003-.833.328-1.229.675a5.096 5.096 0 0 1-.636.496l.226.489c.281-.168.534-.387.76-.583.32-.278.623-.542.883-.543.334-.003.766.429.951.614l.164.164.186-.139c.459-.349 1.295-.41 2.103-.468.979-.072 1.995-.148 2.573-.728.579-.578.656-1.593.727-2.573.059-.807.119-1.643.468-2.103l.14-.186-.164-.165c-.186-.185-.617-.615-.615-.95.002-.26.266-.563.545-.883.195-.227.414-.479.581-.761l-.49-.222z"/></svg>