<svg xmlns="http://www.w3.org/2000/svg" xml:space="preserve" style="enable-background:new 0 0 64 64" viewBox="0 0 64 64"><linearGradient id="a" x1="32" x2="61.652" y1="42.35" y2="42.35" gradientUnits="userSpaceOnUse"><stop offset="0" style="stop-color:#018bc9"/><stop offset=".037" style="stop-color:#0181c0"/><stop offset=".11" style="stop-color:#0076b6"/><stop offset=".214" style="stop-color:#006fb0"/><stop offset=".5" style="stop-color:#006dae"/><stop offset=".786" style="stop-color:#006fb0"/><stop offset=".89" style="stop-color:#0076b6"/><stop offset=".963" style="stop-color:#0181c0"/><stop offset="1" style="stop-color:#018bc9"/></linearGradient><path d="M32 64V27.623L61.41 20.7s.425 31.589.149 31.867C60.719 53.412 33.557 64 32 64z" style="fill:url(#a)"/><linearGradient id="b" x1="2.348" x2="32" y1="42.35" y2="42.35" gradientUnits="userSpaceOnUse"><stop offset="0" style="stop-color:#018bc9"/><stop offset=".037" style="stop-color:#0181c0"/><stop offset=".11" style="stop-color:#0076b6"/><stop offset=".214" style="stop-color:#006fb0"/><stop offset=".5" style="stop-color:#006dae"/><stop offset=".786" style="stop-color:#006fb0"/><stop offset=".89" style="stop-color:#0076b6"/><stop offset=".963" style="stop-color:#0181c0"/><stop offset="1" style="stop-color:#018bc9"/></linearGradient><path d="M32 64V27.623L2.59 20.7s-.426 31.59-.15 31.867C3.281 53.412 30.443 64 32 64z" style="fill:url(#b)"/><linearGradient id="c" x1="46.826" x2="46.826" y1="64" y2="20.7" gradientUnits="userSpaceOnUse"><stop offset="0" style="stop-color:#006dae;stop-opacity:0"/><stop offset=".403" style="stop-color:#006bac;stop-opacity:.2214"/><stop offset=".548" style="stop-color:#0066a5;stop-opacity:.3012"/><stop offset=".652" style="stop-color:#005c9a;stop-opacity:.358"/><stop offset=".736" style="stop-color:#004e89;stop-opacity:.404"/><stop offset=".807" style="stop-color:#003c73;stop-opacity:.4434"/><stop offset=".87" style="stop-color:#002658;stop-opacity:.4776"/><stop offset=".911" style="stop-color:#001442;stop-opacity:.5"/></linearGradient><path d="M32 64V27.623L61.41 20.7s.425 31.589.149 31.867C60.719 53.412 33.557 64 32 64z" style="fill:url(#c)"/><linearGradient id="d" x1="17.174" x2="17.174" y1="64" y2="20.7" gradientUnits="userSpaceOnUse"><stop offset="0" style="stop-color:#006dae;stop-opacity:0"/><stop offset=".403" style="stop-color:#006bac;stop-opacity:.2214"/><stop offset=".548" style="stop-color:#0066a5;stop-opacity:.3012"/><stop offset=".652" style="stop-color:#005c9a;stop-opacity:.358"/><stop offset=".736" style="stop-color:#004e89;stop-opacity:.404"/><stop offset=".807" style="stop-color:#003c73;stop-opacity:.4434"/><stop offset=".87" style="stop-color:#002658;stop-opacity:.4776"/><stop offset=".911" style="stop-color:#001442;stop-opacity:.5"/></linearGradient><path d="M32 64V27.623L2.59 20.7s-.426 31.59-.15 31.867C3.281 53.412 30.443 64 32 64z" style="fill:url(#d)"/><linearGradient id="e" x1="30.268" x2="33.847" y1="21.156" y2="6.591" gradientUnits="userSpaceOnUse"><stop offset="0" style="stop-color:#018bc9"/><stop offset=".037" style="stop-color:#0181c0"/><stop offset=".11" style="stop-color:#0076b6"/><stop offset=".214" style="stop-color:#006fb0"/><stop offset=".5" style="stop-color:#006dae"/><stop offset=".786" style="stop-color:#006fb0"/><stop offset=".89" style="stop-color:#0076b6"/><stop offset=".963" style="stop-color:#0181c0"/><stop offset="1" style="stop-color:#018bc9"/></linearGradient><path d="M32 5.702c-1.372 0-29.196 7.715-29.882 8.405 0 0 27.926 7.17 29.882 7.17 1.956 0 29.882-7.17 29.882-7.17-.686-.69-28.51-8.405-29.882-8.405z" style="fill:url(#e)"/><path d="M46.826 9.324c-1.372 0-19.47 3.383-19.47 3.383l5.556 1.546 18.667-3.37c-.686-.69-3.38-1.559-4.753-1.559z" style="fill:#ffc400"/><path d="M17.174 9.324c1.372 0 19.47 3.383 19.47 3.383l-5.556 1.546-18.667-3.37c.686-.69 3.38-1.559 4.753-1.559z" style="fill:#ffc400"/><linearGradient id="f" x1="32" x2="62" y1="23.919" y2="23.919" gradientUnits="userSpaceOnUse"><stop offset="0" style="stop-color:#018bc9"/><stop offset=".037" style="stop-color:#0181c0"/><stop offset=".11" style="stop-color:#0076b6"/><stop offset=".214" style="stop-color:#006fb0"/><stop offset=".5" style="stop-color:#006dae"/><stop offset=".786" style="stop-color:#006fb0"/><stop offset=".89" style="stop-color:#0076b6"/><stop offset=".963" style="stop-color:#0181c0"/><stop offset="1" style="stop-color:#018bc9"/></linearGradient><path d="M32 33.762V21.277s29.308-7.746 29.882-7.17c.266.268 0 10.925 0 10.925 0 .783-28.48 8.73-29.882 8.73z" style="fill:url(#f)"/><linearGradient id="g" x1="2" x2="32" y1="23.919" y2="23.919" gradientUnits="userSpaceOnUse"><stop offset="0" style="stop-color:#018bc9"/><stop offset=".037" style="stop-color:#0181c0"/><stop offset=".11" style="stop-color:#0076b6"/><stop offset=".214" style="stop-color:#006fb0"/><stop offset=".5" style="stop-color:#006dae"/><stop offset=".786" style="stop-color:#006fb0"/><stop offset=".89" style="stop-color:#0076b6"/><stop offset=".963" style="stop-color:#0181c0"/><stop offset="1" style="stop-color:#018bc9"/></linearGradient><path d="M32 33.762V21.277s-29.308-7.746-29.882-7.17c-.266.268 0 10.925 0 10.925 0 .783 28.479 8.73 29.882 8.73z" style="fill:url(#g)"/><linearGradient id="h" x1="48.606" x2="48.606" y1="59.505" y2="16.485" gradientUnits="userSpaceOnUse"><stop offset=".008" style="stop-color:#db8d01"/><stop offset=".021" style="stop-color:#e4a001"/><stop offset=".041" style="stop-color:#eeb600"/><stop offset=".065" style="stop-color:#f6c700"/><stop offset=".094" style="stop-color:#fbd200"/><stop offset=".135" style="stop-color:#fed900"/><stop offset=".249" style="stop-color:#ffdb00"/><stop offset=".757" style="stop-color:#ffdb00"/><stop offset=".805" style="stop-color:#fcd300"/><stop offset=".877" style="stop-color:#f2bf00"/><stop offset=".965" style="stop-color:#e29d01"/><stop offset="1" style="stop-color:#db8d01"/></linearGradient><path d="M44.705 59.505s.414-.295.414-1.133c0-9.141.026-40.055.026-40.055l7.362-1.832-.229 39.398a.974.974 0 0 1-.617.902l-6.956 2.72z" style="fill:url(#h)"/><linearGradient id="i" x1="15.394" x2="15.394" y1="59.505" y2="16.485" gradientUnits="userSpaceOnUse"><stop offset=".008" style="stop-color:#db8d01"/><stop offset=".021" style="stop-color:#e4a001"/><stop offset=".041" style="stop-color:#eeb600"/><stop offset=".065" style="stop-color:#f6c700"/><stop offset=".094" style="stop-color:#fbd200"/><stop offset=".135" style="stop-color:#fed900"/><stop offset=".249" style="stop-color:#ffdb00"/><stop offset=".757" style="stop-color:#ffdb00"/><stop offset=".805" style="stop-color:#fcd300"/><stop offset=".877" style="stop-color:#f2bf00"/><stop offset=".965" style="stop-color:#e29d01"/><stop offset="1" style="stop-color:#db8d01"/></linearGradient><path d="M19.295 59.505s-.414-.295-.414-1.133c0-9.141-.026-40.055-.026-40.055l-7.362-1.832.229 39.398c.002.4.247.757.617.902l6.956 2.72z" style="fill:url(#i)"/><linearGradient id="j" x1="44.172" x2="44.172" y1="22.535" y2="11.275" gradientUnits="userSpaceOnUse"><stop offset=".26" style="stop-color:#ffdb00"/><stop offset=".371" style="stop-color:#fdd600"/><stop offset=".497" style="stop-color:#f7c900"/><stop offset=".628" style="stop-color:#ecb201"/><stop offset=".764" style="stop-color:#de9301"/><stop offset=".788" style="stop-color:#db8d01"/></linearGradient><path d="M47.733 22.523c-.165.264-2.724-4.16-5.263-5.222C40.07 16.297 32 14.427 32 14.427l2.688-3.152s10.555.097 18.29 4.017c2.072 1.05 3.532 4.207 3.35 4.172-4.927-.942-5.935-1.159-8.595 3.06z" style="fill:url(#j)"/><linearGradient id="k" x1="39.574" x2="39.574" y1="10.271" y2="0" gradientUnits="userSpaceOnUse"><stop offset="0" style="stop-color:#b35701"/><stop offset=".321" style="stop-color:#d38601"/><stop offset=".608" style="stop-color:#eba800"/><stop offset=".844" style="stop-color:#fabc00"/><stop offset="1" style="stop-color:#ffc400"/></linearGradient><path d="M34.07 10.008C35.239 8.422 39.419 0 44.323 0c3.453 1.202-5.791 12.086-10.252 10.008z" style="fill:url(#k)"/><linearGradient id="l" x1="34.071" x2="48.996" y1="7.213" y2="7.213" gradientUnits="userSpaceOnUse"><stop offset="0" style="stop-color:#f59e01"/><stop offset=".084" style="stop-color:#f7ac01"/><stop offset=".252" style="stop-color:#fbc100"/><stop offset=".441" style="stop-color:#fdd000"/><stop offset=".662" style="stop-color:#ffd800"/><stop offset="1" style="stop-color:#ffdb00"/></linearGradient><path d="M48.876 12.387c-1.798 4.211-12.447.438-14.805 1.395v-3.774C40.142 9.243 46.284 1.34 44.322 0c1.877.127 5.367 10.484 4.554 12.387z" style="fill:url(#l)"/><linearGradient id="m" x1="19.828" x2="19.828" y1="22.535" y2="11.275" gradientUnits="userSpaceOnUse"><stop offset=".26" style="stop-color:#ffdb00"/><stop offset=".371" style="stop-color:#fdd600"/><stop offset=".497" style="stop-color:#f7c900"/><stop offset=".628" style="stop-color:#ecb201"/><stop offset=".764" style="stop-color:#de9301"/><stop offset=".788" style="stop-color:#db8d01"/></linearGradient><path d="M16.266 22.523c.166.264 2.725-4.16 5.264-5.222C23.93 16.297 32 14.427 32 14.427l-2.688-3.152s-10.555.097-18.29 4.017c-2.072 1.05-3.532 4.207-3.35 4.172 4.927-.942 5.935-1.159 8.594 3.06z" style="fill:url(#m)"/><linearGradient id="n" x1="24.426" x2="24.426" y1="10.271" y2="0" gradientUnits="userSpaceOnUse"><stop offset="0" style="stop-color:#b35701"/><stop offset=".321" style="stop-color:#d38601"/><stop offset=".608" style="stop-color:#eba800"/><stop offset=".844" style="stop-color:#fabc00"/><stop offset="1" style="stop-color:#ffc400"/></linearGradient><path d="M29.93 10.008C28.761 8.422 24.581 0 19.677 0c-3.453 1.202 5.791 12.086 10.251 10.008z" style="fill:url(#n)"/><linearGradient id="o" x1="15.004" x2="29.929" y1="7.213" y2="7.213" gradientUnits="userSpaceOnUse"><stop offset="0" style="stop-color:#ffdb00"/><stop offset=".338" style="stop-color:#ffd800"/><stop offset=".559" style="stop-color:#fdd000"/><stop offset=".748" style="stop-color:#fbc100"/><stop offset=".916" style="stop-color:#f7ac01"/><stop offset="1" style="stop-color:#f59e01"/></linearGradient><path d="M15.124 12.387c1.798 4.211 12.447.438 14.805 1.395v-3.774C23.858 9.243 17.716 1.34 19.678 0 17.8.127 14.31 10.484 15.124 12.387z" style="fill:url(#o)"/><linearGradient id="p" x1="32" x2="32" y1="14.692" y2="9.011" gradientUnits="userSpaceOnUse"><stop offset="0" style="stop-color:#f59e01"/><stop offset=".04" style="stop-color:#f6a301"/><stop offset=".252" style="stop-color:#fabc01"/><stop offset=".475" style="stop-color:#fdcd00"/><stop offset=".715" style="stop-color:#fed800"/><stop offset="1" style="stop-color:#ffdb00"/></linearGradient><path d="M34.706 9.492C34.248 8.915 33.18 9.02 32 9.02s-2.248-.103-2.706.474c-.4.503-.745 3.79-.02 4.584.5.547 1.204.615 2.726.615s2.225-.068 2.726-.615c.725-.794.38-4.081-.02-4.585z" style="fill:url(#p)"/></svg>