<svg xmlns="http://www.w3.org/2000/svg" xml:space="preserve" viewBox="0 0 64 64"><linearGradient id="a" x1="17.67" x2="9.421" y1="56.33" y2="42.268" gradientUnits="userSpaceOnUse"><stop offset="0" style="stop-color:#db7600"/><stop offset=".228" style="stop-color:#e18608"/><stop offset=".672" style="stop-color:#f1af1f"/><stop offset="1" style="stop-color:#ffd231"/></linearGradient><path fill="url(#a)" d="M12.664 29.522 2.033 61.203c-.158.473.277.934.758.76l30.461-11.021-20.588-21.42z"/><path fill="#E88A30" d="M27.412 35.789c5.816 5.924 8.818 12.471 6.707 14.622-2.113 2.151-8.545-.905-14.363-6.829-5.816-5.923-8.818-12.47-6.705-14.621 2.113-2.152 8.543.906 14.361 6.828z"/><path fill="#FFF" d="m10.434 48.663-.533-3.126-2.346-.79.236-.702 1.914-.988.035-3.17 2.266 2.216 3.02-.948-1.403 2.839 1.836 2.584-3.135-.459zm5.08 6.285-2.821 1.441 2.803.978 3.959-1.434 1.4-2.83-3.031.916-2.242-2.239zM2.381 60.166l1.933-2.137 2.758.694-1.404-2.474 1.514-2.408-2.893.638z" opacity=".3"/><radialGradient id="b" cx="23.655" cy="39.615" r="11.056" gradientUnits="userSpaceOnUse"><stop offset="0" style="stop-color:#853b1b"/><stop offset=".183" style="stop-color:#7d391d"/><stop offset=".468" style="stop-color:#673321"/><stop offset=".817" style="stop-color:#432928"/><stop offset=".873" style="stop-color:#3d2729"/></radialGradient><path fill="url(#b)" d="M27.307 35.895c5.705 5.806 8.691 12.178 6.678 14.233-2.018 2.052-8.277-.988-13.982-6.795-5.703-5.802-8.691-12.174-6.674-14.228 2.015-2.056 8.276.986 13.978 6.79z"/><linearGradient id="c" x1="354.151" x2="366.979" y1="145.305" y2="145.305" gradientTransform="scale(-1 1) rotate(-33.585 -62.86 755.775)" gradientUnits="userSpaceOnUse"><stop offset="0" style="stop-color:#53daf2"/><stop offset=".209" style="stop-color:#4ed5f1"/><stop offset=".456" style="stop-color:#40c7ed"/><stop offset=".722" style="stop-color:#28afe7"/><stop offset=".999" style="stop-color:#078ede"/><stop offset="1" style="stop-color:#078ede"/></linearGradient><path fill="url(#c)" d="M43.297 8.201c2.109-1.133 10.277 6.073 6.041 11.929-.299.416 2.01-1.215 1.867-.787 5.561-6.18-5.105-15.366-6.387-13.437-1.392 2.097-.13.198-1.521 2.295z"/><linearGradient id="d" x1="353.862" x2="367.052" y1="-868.306" y2="-868.306" gradientTransform="rotate(-146.415 337.81 -383.093)" gradientUnits="userSpaceOnUse"><stop offset="0" style="stop-color:#078ede"/><stop offset=".075" style="stop-color:#1199e2"/><stop offset=".332" style="stop-color:#2fbaef"/><stop offset=".578" style="stop-color:#45d2f8"/><stop offset=".806" style="stop-color:#52e0fd"/><stop offset="1" style="stop-color:#57e5ff"/></linearGradient><path fill="url(#d)" d="M44.816 5.904c-.631 3.617 10.121 5.603 14.182 1.699-3.537 7.521-15.086 5.421-16.313 1.511-.294-.949.741-1.112 2.131-3.21z"/><linearGradient id="e" x1="354.079" x2="366.905" y1="156.279" y2="156.279" gradientTransform="scale(-1 1) rotate(-33.585 -62.86 755.775)" gradientUnits="userSpaceOnUse"><stop offset="0" style="stop-color:#53daf2"/><stop offset=".209" style="stop-color:#4ed5f1"/><stop offset=".456" style="stop-color:#40c7ed"/><stop offset=".722" style="stop-color:#28afe7"/><stop offset=".999" style="stop-color:#078ede"/><stop offset="1" style="stop-color:#078ede"/></linearGradient><path fill="url(#e)" d="M37.443 17.149c2.105-1.13 10.641 5.604 6.289 12.785-.268.444 1.764-2.077 1.619-1.644 5.559-6.181-5.105-15.365-6.387-13.437-1.392 2.098-.128.2-1.521 2.296z"/><linearGradient id="f" x1="353.813" x2="366.95" y1="-879.942" y2="-879.942" gradientTransform="rotate(-146.415 337.81 -383.093)" gradientUnits="userSpaceOnUse"><stop offset="0" style="stop-color:#078ede"/><stop offset=".075" style="stop-color:#1199e2"/><stop offset=".332" style="stop-color:#2fbaef"/><stop offset=".578" style="stop-color:#45d2f8"/><stop offset=".806" style="stop-color:#52e0fd"/><stop offset="1" style="stop-color:#57e5ff"/></linearGradient><path fill="url(#f)" d="M38.963 14.854c-.406 3.563 9.193 6.656 13.266 2.979-3.801 8.31-14.58 3.959-15.393.23-.213-.967.736-1.112 2.127-3.209z"/><linearGradient id="g" x1="353.607" x2="367.166" y1="-898.773" y2="-898.773" gradientTransform="rotate(-146.415 337.81 -383.093)" gradientUnits="userSpaceOnUse"><stop offset="0" style="stop-color:#57e5ff"/><stop offset=".194" style="stop-color:#52e0fd"/><stop offset=".422" style="stop-color:#45d2f8"/><stop offset=".668" style="stop-color:#2fbaef"/><stop offset=".925" style="stop-color:#1199e2"/><stop offset="1" style="stop-color:#078ede"/></linearGradient><path fill="url(#g)" d="M46.121 27.256c-6.584 13.667-18.979 6.526-24.922 13.392 7.24-10.908 17.172-4.555 24.922-13.392z"/><linearGradient id="h" x1="46.101" x2="55.237" y1="97.557" y2="97.557" gradientTransform="scale(-1 1) rotate(-67.058 -46.723 145.862)" gradientUnits="userSpaceOnUse"><stop offset=".23" style="stop-color:#aa5bef"/><stop offset=".491" style="stop-color:#a858ee"/><stop offset=".66" style="stop-color:#a250e9"/><stop offset=".803" style="stop-color:#9641e1"/><stop offset=".931" style="stop-color:#872cd7"/><stop offset="1" style="stop-color:#7c1dcf"/></linearGradient><path fill="url(#h)" d="M52.438 32.725c1.695.157 3.719 7.647-1.096 9.462-.342.129 1.67.067 1.418.265 5.729-1.486 3-11.134 1.482-10.491-1.648.698-.156.064-1.804.764z"/><linearGradient id="i" x1="45.459" x2="54.852" y1="-821.38" y2="-821.38" gradientTransform="rotate(-112.942 337.362 -394.921)" gradientUnits="userSpaceOnUse"><stop offset="0" style="stop-color:#7c1dcf"/><stop offset=".069" style="stop-color:#872cd7"/><stop offset=".197" style="stop-color:#9641e1"/><stop offset=".34" style="stop-color:#a250e9"/><stop offset=".509" style="stop-color:#a858ee"/><stop offset=".77" style="stop-color:#aa5bef"/></linearGradient><path fill="url(#i)" d="M54.242 31.96c-1.795 1.898 3.813 7.304 7.758 6.578-5.055 3.08-11.092-2.706-10.283-5.51.195-.679.875-.37 2.525-1.068z"/><linearGradient id="j" x1="46.048" x2="55.185" y1="105.371" y2="105.371" gradientTransform="scale(-1 1) rotate(-67.058 -46.723 145.862)" gradientUnits="userSpaceOnUse"><stop offset=".23" style="stop-color:#aa5bef"/><stop offset=".491" style="stop-color:#a858ee"/><stop offset=".66" style="stop-color:#a250e9"/><stop offset=".803" style="stop-color:#9641e1"/><stop offset=".931" style="stop-color:#872cd7"/><stop offset="1" style="stop-color:#7c1dcf"/></linearGradient><path fill="url(#j)" d="M45.445 35.741c1.695.155 4.119 7.511-1.283 10.066-.334.158 1.861-.541 1.607-.34 5.729-1.487 3-11.134 1.48-10.491-1.647.699-.153.066-1.804.765z"/><linearGradient id="k" x1="45.424" x2="54.781" y1="-829.668" y2="-829.668" gradientTransform="rotate(-112.942 337.362 -394.921)" gradientUnits="userSpaceOnUse"><stop offset="0" style="stop-color:#7c1dcf"/><stop offset=".069" style="stop-color:#872cd7"/><stop offset=".197" style="stop-color:#9641e1"/><stop offset=".34" style="stop-color:#a250e9"/><stop offset=".509" style="stop-color:#a858ee"/><stop offset=".77" style="stop-color:#aa5bef"/></linearGradient><path fill="url(#k)" d="M47.25 34.976c-1.641 1.956 2.848 7.567 6.711 6.98-5.521 3.445-10.217-3.377-9.236-5.911.254-.657.875-.37 2.525-1.069z"/><linearGradient id="l" x1="45.277" x2="54.937" y1="-843.077" y2="-843.077" gradientTransform="rotate(-112.942 337.362 -394.921)" gradientUnits="userSpaceOnUse"><stop offset=".23" style="stop-color:#aa5bef"/><stop offset=".491" style="stop-color:#a858ee"/><stop offset=".66" style="stop-color:#a250e9"/><stop offset=".803" style="stop-color:#9641e1"/><stop offset=".931" style="stop-color:#872cd7"/><stop offset="1" style="stop-color:#7c1dcf"/></linearGradient><path fill="url(#l)" d="M46.633 45.154c-9.279 5.532-13.838-3.579-20.066-1.836 8.585-3.634 11.992 4.042 20.066 1.836z"/><linearGradient id="m" x1="118.648" x2="127.329" y1="170.697" y2="170.697" gradientTransform="rotate(27.834 398.14 -104.52)" gradientUnits="userSpaceOnUse"><stop offset="0" style="stop-color:#ff000e"/><stop offset="1" style="stop-color:#b80000"/></linearGradient><path fill="url(#m)" d="M30.631 11.526c-.01-1.621-6.936-4.144-9.043.269-.15.312.072-1.586-.137-1.365 1.871-5.303 10.778-1.937 10.049-.552-.797 1.506-.076.142-.869 1.648z"/><linearGradient id="n" x1="119.299" x2="128.224" y1="-894.56" y2="-894.56" gradientTransform="scale(1 -1) rotate(-27.834 1866.198 -257.828)" gradientUnits="userSpaceOnUse"><stop offset="0" style="stop-color:#cf0000"/><stop offset="1" style="stop-color:#ff000e"/></linearGradient><path fill="url(#n)" d="M31.5 9.878C29.559 11.423 24.898 5.676 25.902 2c-3.322 4.537 1.664 10.722 4.381 10.184.66-.131.42-.8 1.217-2.306z"/><linearGradient id="o" x1="118.602" x2="127.279" y1="178.124" y2="178.124" gradientTransform="rotate(27.834 398.14 -104.52)" gradientUnits="userSpaceOnUse"><stop offset="0" style="stop-color:#ff000e"/><stop offset="1" style="stop-color:#b80000"/></linearGradient><path fill="url(#o)" d="M27.209 17.9c-.01-1.617-6.775-4.511-9.631.399-.178.305.662-1.72.453-1.492 1.869-5.305 10.779-1.939 10.047-.555l-.869 1.648z"/><linearGradient id="p" x1="119.267" x2="128.156" y1="-902.434" y2="-902.434" gradientTransform="scale(1 -1) rotate(-27.834 1866.198 -257.828)" gradientUnits="userSpaceOnUse"><stop offset="0" style="stop-color:#cf0000"/><stop offset="1" style="stop-color:#ff000e"/></linearGradient><path fill="url(#p)" d="M28.078 16.253c-1.982 1.396-6.928-3.308-6.063-6.92-3.703 4.949 2.367 9.947 4.846 9.226.645-.189.424-.8 1.217-2.306z"/><linearGradient id="q" x1="119.13" x2="128.307" y1="-915.176" y2="-915.176" gradientTransform="scale(1 -1) rotate(-27.834 1866.198 -257.828)" gradientUnits="userSpaceOnUse"><stop offset="0" style="stop-color:#cf0000"/><stop offset="1" style="stop-color:#ff000e"/></linearGradient><path fill="url(#q)" d="M18.396 16.014c-5.986 8.337 2.266 13.393.111 19.147 4.136-7.834-2.851-11.681-.111-19.147z"/><path fill="#E635DE" d="m27.957 28.04.52-2.529-1.981-1.655 2.565-.287.962-2.395 1.065 2.351 2.574.175-1.904 1.739.627 2.503-2.242-1.274z"/><path fill="#3CC3EC" d="m57.719 25.979.32-1.557-1.219-1.018 1.578-.177.592-1.475.656 1.447 1.586.109-1.173 1.071.388 1.541-1.381-.784z"/><path fill="#A6E639" d="m35.057 8.673 1.162-1.428-.705-1.7 1.716.666 1.401-1.197-.104 1.839 1.571.96-1.78.471-.427 1.792-.998-1.547z"/><path fill="#E81C27" d="m38.779 41.516 1.164-1.427-.705-1.7 1.717.665 1.399-1.197-.104 1.839 1.572.961-1.781.471-.428 1.791-.996-1.547z"/><path fill="#A6E639" d="m34.918 35.706 1.508 2.74-2.205 2.203-1.055-2.856z"/><path fill="#3CC3EC" d="m23.082 29.462 1.508 2.74-2.203 2.205-1.057-2.857z"/><path fill="#E81C27" d="m51.395 28.899-1.827 1.986-2.406-1.197 2.045-1.648z"/><path fill="#E635DE" d="m15.611 6.738 2.303 2.337-1.596 2.853-1.88-2.583z"/><path fill="#A6E639" d="m51.582 48.358-2.393 1.245-1.855-1.945 2.484-.853z"/></svg>