<svg xmlns="http://www.w3.org/2000/svg" xml:space="preserve" viewBox="0 0 64 64"><radialGradient id="a" cx="48.058" cy="15" r="13.479" gradientUnits="userSpaceOnUse"><stop offset="0" style="stop-color:#fdca47"/><stop offset=".227" style="stop-color:#fcc843"/><stop offset=".472" style="stop-color:#f7c136"/><stop offset=".727" style="stop-color:#f0b520"/><stop offset=".986" style="stop-color:#e7a502"/><stop offset="1" style="stop-color:#e6a400"/></radialGradient><path fill="url(#a)" d="M34.115 10.328C36.596 5.377 41.523 2 47.205 2 55.371 2 62 8.988 62 17.611c0 3.99-1.422 7.631-3.756 10.389 0 0-6.017-15.637-24.129-17.672z"/><radialGradient id="b" cx="47.641" cy="16.418" r="14.425" fx="47.63" fy="3.39" gradientTransform="rotate(45.001 46.182 15.813) scale(1 .9264)" gradientUnits="userSpaceOnUse"><stop offset="0" style="stop-color:#fdf97f;stop-opacity:.3"/><stop offset=".35" style="stop-color:#fdf87d;stop-opacity:.1951"/><stop offset=".514" style="stop-color:#fdf475;stop-opacity:.1457"/><stop offset=".64" style="stop-color:#fded68;stop-opacity:.1079"/><stop offset=".747" style="stop-color:#fee356;stop-opacity:.076"/><stop offset=".841" style="stop-color:#fed73e;stop-opacity:.0479"/><stop offset=".924" style="stop-color:#fec821;stop-opacity:.0227"/><stop offset="1" style="stop-color:#ffb600;stop-opacity:0"/></radialGradient><path fill="url(#b)" d="M34.115 10.328C36.596 5.377 41.523 2 47.205 2 55.371 2 62 8.988 62 17.611c0 3.99-1.422 7.631-3.756 10.389 0 0-6.017-15.637-24.129-17.672z"/><radialGradient id="c" cx="50.56" cy="18.082" r="18.151" gradientTransform="matrix(.7071 .70712 -.70422 .7042 27.542 -30.403)" gradientUnits="userSpaceOnUse"><stop offset=".6" style="stop-color:#fff;stop-opacity:0"/><stop offset=".806" style="stop-color:#fff;stop-opacity:.4"/><stop offset="1" style="stop-color:#fff;stop-opacity:0"/></radialGradient><path fill="url(#c)" d="M34.115 10.328C36.596 5.377 41.523 2 47.205 2 55.371 2 62 8.988 62 17.611c0 3.99-1.422 7.631-3.756 10.389 0 0-6.017-15.637-24.129-17.672z"/><radialGradient id="d" cx="42.83" cy="11.207" r="22.356" gradientTransform="matrix(.7071 .70712 -.70422 .7042 20.437 -26.971)" gradientUnits="userSpaceOnUse"><stop offset=".6" style="stop-color:#fff;stop-opacity:0"/><stop offset=".806" style="stop-color:#fff;stop-opacity:.3"/><stop offset="1" style="stop-color:#fff;stop-opacity:0"/></radialGradient><path fill="url(#d)" d="M34.115 10.328C36.596 5.377 41.523 2 47.205 2 55.371 2 62 8.988 62 17.611c0 3.99-1.422 7.631-3.756 10.389 0 0-6.017-15.637-24.129-17.672z"/><radialGradient id="e" cx="43.535" cy="23.943" r="13.521" gradientTransform="matrix(.8168 .5737 -.3656 .5148 16.728 -15.723)" gradientUnits="userSpaceOnUse"><stop offset="0" style="stop-color:#94500e"/><stop offset=".873" style="stop-color:#45332c"/></radialGradient><path fill="url(#e)" d="M34.115 10.328C52.227 12.363 58.244 28 58.244 28c-11.168-1.066-20.443-8.115-24.129-17.672z"/><radialGradient id="f" cx="499.892" cy="15" r="13.479" gradientTransform="matrix(-1 0 0 1 515.834 0)" gradientUnits="userSpaceOnUse"><stop offset="0" style="stop-color:#fdca47"/><stop offset=".227" style="stop-color:#fcc843"/><stop offset=".472" style="stop-color:#f7c136"/><stop offset=".727" style="stop-color:#f0b520"/><stop offset=".986" style="stop-color:#e7a502"/><stop offset="1" style="stop-color:#e6a400"/></radialGradient><path fill="url(#f)" d="M29.885 10.328C27.404 5.377 22.477 2 16.795 2 8.629 2 2 8.988 2 17.611 2 21.602 3.422 25.242 5.756 28c0 0 6.017-15.637 24.129-17.672z"/><radialGradient id="g" cx="499.475" cy="16.418" r="14.425" fx="499.464" fy="3.39" gradientTransform="rotate(134.999 251.368 -99.453) scale(1 -.9264)" gradientUnits="userSpaceOnUse"><stop offset="0" style="stop-color:#fdf97f;stop-opacity:.3"/><stop offset=".35" style="stop-color:#fdf87d;stop-opacity:.1951"/><stop offset=".514" style="stop-color:#fdf475;stop-opacity:.1457"/><stop offset=".64" style="stop-color:#fded68;stop-opacity:.1079"/><stop offset=".747" style="stop-color:#fee356;stop-opacity:.076"/><stop offset=".841" style="stop-color:#fed73e;stop-opacity:.0479"/><stop offset=".924" style="stop-color:#fec821;stop-opacity:.0227"/><stop offset="1" style="stop-color:#ffb600;stop-opacity:0"/></radialGradient><path fill="url(#g)" d="M29.885 10.328C27.404 5.377 22.477 2 16.795 2 8.629 2 2 8.988 2 17.611 2 21.602 3.422 25.242 5.756 28c0 0 6.017-15.637 24.129-17.672z"/><radialGradient id="h" cx="502.394" cy="18.082" r="18.151" gradientTransform="matrix(-.7071 .70712 .70422 .7042 355.95 -349.903)" gradientUnits="userSpaceOnUse"><stop offset=".6" style="stop-color:#fff;stop-opacity:0"/><stop offset=".806" style="stop-color:#fff;stop-opacity:.4"/><stop offset="1" style="stop-color:#fff;stop-opacity:0"/></radialGradient><path fill="url(#h)" d="M29.885 10.328C27.404 5.377 22.477 2 16.795 2 8.629 2 2 8.988 2 17.611 2 21.602 3.422 25.242 5.756 28c0 0 6.017-15.637 24.129-17.672z"/><radialGradient id="i" cx="494.664" cy="11.207" r="22.356" gradientTransform="matrix(-.7071 .70712 .70422 .7042 363.054 -346.47)" gradientUnits="userSpaceOnUse"><stop offset=".6" style="stop-color:#fff;stop-opacity:0"/><stop offset=".806" style="stop-color:#fff;stop-opacity:.3"/><stop offset="1" style="stop-color:#fff;stop-opacity:0"/></radialGradient><path fill="url(#i)" d="M29.885 10.328C27.404 5.377 22.477 2 16.795 2 8.629 2 2 8.988 2 17.611 2 21.602 3.422 25.242 5.756 28c0 0 6.017-15.637 24.129-17.672z"/><radialGradient id="j" cx="495.369" cy="23.943" r="13.521" gradientTransform="matrix(-.8168 .5737 .3656 .5148 416.342 -274.92)" gradientUnits="userSpaceOnUse"><stop offset="0" style="stop-color:#94500e"/><stop offset=".873" style="stop-color:#45332c"/></radialGradient><path fill="url(#j)" d="M29.885 10.328C11.773 12.363 5.756 28 5.756 28c11.168-1.066 20.443-8.115 24.129-17.672z"/><linearGradient id="k" x1="25.28" x2="38.522" y1="-778.487" y2="-778.487" gradientTransform="matrix(1 0 0 -1 -.002 -727.5)" gradientUnits="userSpaceOnUse"><stop offset="0" style="stop-color:#53daf2"/><stop offset=".209" style="stop-color:#4ed5f1"/><stop offset=".456" style="stop-color:#40c7ed"/><stop offset=".722" style="stop-color:#28afe7"/><stop offset=".999" style="stop-color:#078ede"/><stop offset="1" style="stop-color:#078ede"/></linearGradient><path fill="url(#k)" d="M38.52 52.518c-1.168 2.178-12.307.648-12.008-6.805.02-.529-1.033 2.189-1.156 1.742-1.252 8.488 13.164 10.295 13.164 7.904v-2.841z"/><linearGradient id="l" x1="25.259" x2="38.876" y1="56.324" y2="56.324" gradientUnits="userSpaceOnUse"><stop offset="0" style="stop-color:#078ede"/><stop offset=".075" style="stop-color:#1199e2"/><stop offset=".332" style="stop-color:#2fbaef"/><stop offset=".578" style="stop-color:#45d2f8"/><stop offset=".806" style="stop-color:#52e0fd"/><stop offset="1" style="stop-color:#57e5ff"/></linearGradient><path fill="url(#l)" d="M38.521 55.359C37 51.893 26.619 56.324 25.357 62c-1.254-8.488 9.879-13.277 13.164-10.617.797.646 0 1.379 0 3.976z"/><linearGradient id="m" x1="25.206" x2="38.447" y1="-767.157" y2="-767.157" gradientTransform="matrix(1 0 0 -1 -.002 -727.5)" gradientUnits="userSpaceOnUse"><stop offset="0" style="stop-color:#53daf2"/><stop offset=".209" style="stop-color:#4ed5f1"/><stop offset=".456" style="stop-color:#40c7ed"/><stop offset=".722" style="stop-color:#28afe7"/><stop offset=".999" style="stop-color:#078ede"/><stop offset="1" style="stop-color:#078ede"/></linearGradient><path fill="url(#m)" d="M38.445 41.48c-1.166 2.174-12.352 1.258-12.709-7.4-.023-.535-.33 2.793-.455 2.338-1.252 8.488 13.164 10.295 13.164 7.904V41.48z"/><linearGradient id="n" x1="25.21" x2="38.772" y1="44.312" y2="44.312" gradientUnits="userSpaceOnUse"><stop offset="0" style="stop-color:#078ede"/><stop offset=".075" style="stop-color:#1199e2"/><stop offset=".332" style="stop-color:#2fbaef"/><stop offset=".578" style="stop-color:#45d2f8"/><stop offset=".806" style="stop-color:#52e0fd"/><stop offset="1" style="stop-color:#57e5ff"/></linearGradient><path fill="url(#n)" d="M38.445 44.322c-1.684-3.297-11.705-.473-13.107 5.016-1.477-9.314 10.279-11.732 13.107-8.99.735.711 0 1.377 0 3.974z"/><linearGradient id="o" x1="24.999" x2="39" y1="24.874" y2="24.874" gradientUnits="userSpaceOnUse"><stop offset="0" style="stop-color:#57e5ff"/><stop offset=".194" style="stop-color:#52e0fd"/><stop offset=".422" style="stop-color:#45d2f8"/><stop offset=".668" style="stop-color:#2fbaef"/><stop offset=".925" style="stop-color:#1199e2"/><stop offset="1" style="stop-color:#078ede"/></linearGradient><path fill="url(#o)" d="M25.211 37.748C23.07 22.236 37.807 21.297 39 12c0 13.514-12.17 13.723-13.789 25.748z"/><linearGradient id="p" x1="10.379" x2="20.973" y1="-775.438" y2="-775.438" gradientTransform="matrix(1 0 0 -1 -.002 -727.5)" gradientUnits="userSpaceOnUse"><stop offset=".23" style="stop-color:#aa5bef"/><stop offset=".491" style="stop-color:#a858ee"/><stop offset=".66" style="stop-color:#a250e9"/><stop offset=".803" style="stop-color:#9641e1"/><stop offset=".931" style="stop-color:#872cd7"/><stop offset="1" style="stop-color:#7c1dcf"/></linearGradient><path fill="url(#p)" d="M20.971 49.162c-.936 1.742-9.848.52-9.607-5.443.016-.424-.826 1.752-.924 1.393-1.004 6.791 10.531 8.236 10.531 6.324v-2.274z"/><linearGradient id="q" x1="10.361" x2="21.254" y1="52.207" y2="52.207" gradientUnits="userSpaceOnUse"><stop offset="0" style="stop-color:#7c1dcf"/><stop offset=".069" style="stop-color:#872cd7"/><stop offset=".197" style="stop-color:#9641e1"/><stop offset=".34" style="stop-color:#a250e9"/><stop offset=".509" style="stop-color:#a858ee"/><stop offset=".77" style="stop-color:#aa5bef"/></linearGradient><path fill="url(#q)" d="M20.971 51.436c-1.217-2.773-9.521.771-10.531 5.313-1.002-6.791 7.904-10.621 10.531-8.492.638.514 0 1.1 0 3.179z"/><linearGradient id="r" x1="10.319" x2="20.912" y1="-766.374" y2="-766.374" gradientTransform="matrix(1 0 0 -1 -.002 -727.5)" gradientUnits="userSpaceOnUse"><stop offset=".23" style="stop-color:#aa5bef"/><stop offset=".491" style="stop-color:#a858ee"/><stop offset=".66" style="stop-color:#a250e9"/><stop offset=".803" style="stop-color:#9641e1"/><stop offset=".931" style="stop-color:#872cd7"/><stop offset="1" style="stop-color:#7c1dcf"/></linearGradient><path fill="url(#r)" d="M20.91 40.332c-.932 1.74-9.881 1.008-10.168-5.92-.018-.428-.264 2.234-.363 1.871-1.002 6.789 10.531 8.237 10.531 6.324v-2.275z"/><linearGradient id="s" x1="10.322" x2="21.171" y1="42.598" y2="42.598" gradientUnits="userSpaceOnUse"><stop offset="0" style="stop-color:#7c1dcf"/><stop offset=".069" style="stop-color:#872cd7"/><stop offset=".197" style="stop-color:#9641e1"/><stop offset=".34" style="stop-color:#a250e9"/><stop offset=".509" style="stop-color:#a858ee"/><stop offset=".77" style="stop-color:#aa5bef"/></linearGradient><path fill="url(#s)" d="M20.91 42.607c-1.346-2.639-9.365-.381-10.486 4.012-1.182-7.453 8.225-9.387 10.486-7.193.588.568 0 1.103 0 3.181z"/><linearGradient id="t" x1="10.153" x2="21.354" y1="27.047" y2="27.047" gradientUnits="userSpaceOnUse"><stop offset=".23" style="stop-color:#aa5bef"/><stop offset=".491" style="stop-color:#a858ee"/><stop offset=".66" style="stop-color:#a250e9"/><stop offset=".803" style="stop-color:#9641e1"/><stop offset=".931" style="stop-color:#872cd7"/><stop offset="1" style="stop-color:#7c1dcf"/></linearGradient><path fill="url(#t)" d="M10.322 37.346c-1.711-12.408 10.076-13.16 11.031-20.598.001 10.811-9.736 10.979-11.031 20.598z"/><linearGradient id="u" x1="496.478" x2="506.541" y1="-773.13" y2="-773.13" gradientTransform="rotate(180 275.382 -363.75)" gradientUnits="userSpaceOnUse"><stop offset="0" style="stop-color:#ff000e"/><stop offset="1" style="stop-color:#b80000"/></linearGradient><path fill="url(#u)" d="M44.223 46.793c.887 1.656 9.354.492 9.127-5.172-.018-.4.783 1.666.877 1.324.953 6.451-10.004 7.824-10.004 6.008v-2.16z"/><linearGradient id="v" x1="496.461" x2="506.81" y1="49.685" y2="49.685" gradientTransform="matrix(-1 0 0 1 550.762 0)" gradientUnits="userSpaceOnUse"><stop offset="0" style="stop-color:#cf0000"/><stop offset="1" style="stop-color:#ff000e"/></linearGradient><path fill="url(#v)" d="M44.221 48.953c1.154-2.635 9.045.732 10.006 5.047.951-6.451-7.51-10.092-10.006-8.068-.606.49 0 1.047 0 3.021z"/><linearGradient id="w" x1="496.422" x2="506.484" y1="-764.519" y2="-764.519" gradientTransform="rotate(180 275.382 -363.75)" gradientUnits="userSpaceOnUse"><stop offset="0" style="stop-color:#ff000e"/><stop offset="1" style="stop-color:#b80000"/></linearGradient><path fill="url(#w)" d="M44.279 38.404c.885 1.654 9.387.957 9.658-5.623.018-.408.252 2.123.346 1.775.953 6.451-10.004 7.824-10.004 6.008v-2.16z"/><linearGradient id="x" x1="496.423" x2="506.731" y1="40.557" y2="40.557" gradientTransform="matrix(-1 0 0 1 550.762 0)" gradientUnits="userSpaceOnUse"><stop offset="0" style="stop-color:#cf0000"/><stop offset="1" style="stop-color:#ff000e"/></linearGradient><path fill="url(#x)" d="M44.277 40.564c1.281-2.504 8.898-.359 9.965 3.813 1.119-7.08-7.814-8.916-9.965-6.834-.556.541 0 1.047 0 3.021z"/><linearGradient id="y" x1="496.265" x2="506.904" y1="25.784" y2="25.784" gradientTransform="matrix(-1 0 0 1 550.762 0)" gradientUnits="userSpaceOnUse"><stop offset="0" style="stop-color:#cf0000"/><stop offset="1" style="stop-color:#ff000e"/></linearGradient><path fill="url(#y)" d="M54.336 35.568C55.963 23.779 44.764 23.066 43.857 16c0 10.27 9.248 10.43 10.479 19.568z"/><path fill="#E635DE" d="m38.068 27.293 1.647 2.5 2.98-.268-1.867 2.338 1.174 2.752-2.801-1.052-2.254 1.966.137-2.988-2.568-1.537 2.884-.793z"/><path fill="#3CC3EC" d="m59.15 38.313 1.014 1.537L62 39.686l-1.15 1.439.722 1.695-1.724-.648-1.387 1.211.084-1.84-1.582-.947 1.775-.489z"/><path fill="#A6E639" d="m20.729 28.445.216 2.125 1.973.817-1.953.861-.168 2.129-1.422-1.592-2.076.5 1.074-1.846-1.117-1.82 2.086.451z"/><path fill="#3CC3EC" d="m47.332 51.607.215 2.125 1.973.815-1.954.863-.166 2.129-1.423-1.592-2.077.5 1.075-1.845-1.118-1.821 2.086.451z"/><path fill="#E81C27" d="m5.473 39.285.216 2.125 1.973.815-1.953.863-.168 2.129-1.422-1.592-2.076.5 1.074-1.846L2 40.459l2.086.451z"/><path fill="#A6E639" d="m20.086 60.635-3.482-1.01v-3.613l3.209 1.474z"/><path fill="#3CC3EC" d="m28.039 21.475-3.482-1.01v-3.613l3.207 1.474z"/><path fill="#E81C27" d="m29.01 37.627-.131-3.125 2.955-.992-.326 3.027z"/><path fill="#E635DE" d="m60.525 52.023-2.632-1.689.886-2.988 2.291 2.008z"/><path fill="#A6E639" d="m56.418 33.242-2.633-1.689.887-2.989 2.291 2.008z"/></svg>