<svg xmlns="http://www.w3.org/2000/svg" xml:space="preserve" viewBox="0 0 64 64"><path fill="#F9C802" d="M53.382 17.134h-3.059v-.506h3.059c1.014 0 .951-1.182 0-1.182h-3.059v-.506h3.059c1.631-.001 1.615 2.194 0 2.194zm-12.779-2.195h3.059v.506h-3.059c-1.014 0-.951 1.182 0 1.182h3.059v.506h-3.059c-1.631.001-1.616-2.194 0-2.194zm5.568-5.946c.975 9.049.668 9.049 1.641 0 .033-.308-.82-.848-.82-.848s-.852.54-.821.848z"/><path fill="#F9C802" d="M48.921 10.012c-1.871 7.99-2.16 7.885 1.543.561.125-.25-.51-.999-.51-.999s-.969.166-1.033.438z"/><path fill="#F9C802" d="M43.521 10.573c3.701 7.324 3.414 7.429 1.541-.561-.063-.272-1.032-.437-1.032-.437s-.634.749-.509.998z"/><path fill="#302C3B" d="M43.855 14.631c.113 1.211 1.121 2.234 2.487 2.6-2.742 1.355-4.559-1.36-2.487-2.6zm6.273 0c-.113 1.211-1.121 2.234-2.487 2.6 2.743 1.355 4.559-1.36 2.487-2.6z"/><radialGradient id="a" cx="46.992" cy="131.497" r="3.284" gradientTransform="matrix(1 0 0 .7513 0 -83.642)" gradientUnits="userSpaceOnUse"><stop offset="0" style="stop-color:#ffd500"/><stop offset=".381" style="stop-color:#ffd200"/><stop offset=".715" style="stop-color:#ffc700"/><stop offset="1" style="stop-color:#ffb700"/></radialGradient><path fill="url(#a)" d="M50.237 15.149c0 3.329-6.49 3.329-6.49 0 0-3.328 6.49-3.328 6.49 0z"/><path fill="#F59E01" d="M47.38 14.058c0 .459-.775.459-.775 0-.001-.459.775-.459.775 0zm0 1.204c0 .458-.775.458-.775 0-.001-.459.775-.459.775 0zm-1.561-.699c.492.142.252.796-.24.654-.494-.142-.253-.796.24-.654zm.059 1.471c.305-.371.934.033.629.404-.306.372-.933-.033-.629-.404zm1.599.404c-.305-.371.324-.776.628-.405.304.372-.323.777-.628.405zm.928-1.221c-.492.142-.732-.512-.241-.654.494-.142.733.512.241.654z"/><radialGradient id="b" cx="46.992" cy="25.1" r="10.182" gradientUnits="userSpaceOnUse"><stop offset="0" style="stop-color:#3e394d"/><stop offset=".318" style="stop-color:#3a3549"/><stop offset=".643" style="stop-color:#2f2a3d"/><stop offset=".969" style="stop-color:#1c1828"/><stop offset="1" style="stop-color:#1a1626"/></radialGradient><path fill="url(#b)" d="M46.988 16.795c-12.564.03-13.343 9.918-10.208 13.793 3.039 3.749 17.414 3.761 20.404 0 3.175-3.996 2.36-13.823-10.196-13.793z"/><path fill="#4E5E67" d="M18.528 13.329c-.59.364-2.443.364-3.035 0-.069-.044-1.273-10.542-.77-10.797.809-.41 3.768-.41 4.574 0 .507.255-.697 10.753-.769 10.797z"/><path fill="#1A1626" d="M19.515 2.319c-.885-.426-4.121-.426-5.008 0-.551.265.768 11.178.844 11.224.646.378 2.676.378 3.32 0 .078-.046 1.396-10.959.844-11.224zm-1.112 10.856c-.541.354-2.242.354-2.785 0-.063-.042-1.169-10.242-.707-10.49.743-.398 3.458-.398 4.199 0 .464.248-.641 10.447-.707 10.49z"/><path fill="#F9B700" d="M3 62h57.999v-5c0-1.1-.787-2-1.75-2H4.75C3.787 55 3 55.9 3 57v5z"/><path fill="#006DAE" d="M55.454 55h4v7h-4z"/><path fill="#F46C60" d="M50.364 55h4v7h-4z"/><path fill="#7AB51D" d="M45.272 55h4v7h-4z"/><path fill="#297124" d="M40.182 55h3.999v7h-3.999z"/><path fill="#006DAE" d="M35.091 55h4v7h-4z"/><path fill="#F46C60" d="M30.001 55h4v7h-4z"/><path fill="#7AB51D" d="M24.909 55h4v7h-4z"/><path fill="#297124" d="M19.818 55h4v7h-4z"/><path fill="#F46C60" d="M14.728 55h4v7h-4z"/><path fill="#006DAE" d="M9.637 55h4v7h-4z"/><path fill="#7AB51D" d="M4.546 55h4v7h-4z"/><path fill="#006DAE" d="m6.546 56.5-1.333 2 1.333 2 1.333-2z"/><path fill="#F59E01" d="m11.637 56.5-1.333 2 1.333 2 1.333-2z"/><path fill="#297124" d="m16.728 56.5-1.333 2 1.333 2 1.333-2z"/><path fill="#F46C60" d="m21.818 56.5-1.333 2 1.333 2 1.333-2z"/><path fill="#006DAE" d="m26.909 56.5-1.333 2 1.333 2 1.333-2z"/><path fill="#297124" d="m32 56.5-1.334 2 1.334 2 1.333-2z"/><path fill="#F59E01" d="m37.091 56.5-1.333 2 1.333 2 1.333-2z"/><path fill="#F46C60" d="m42.181 56.5-1.332 2 1.332 2 1.334-2z"/><path fill="#006DAE" d="m47.272 56.5-1.334 2 1.334 2 1.332-2z"/><path fill="#297124" d="m52.362 56.5-1.334 2 1.334 2 1.334-2z"/><path fill="#F59E01" d="m57.454 56.5-1.334 2 1.334 2 1.332-2z"/><path fill="#160052" d="M31.507 55.086H2.517l14.496-25.393z"/><path fill="#EA8800" d="M14.76 41.734h4.503V56H14.76z"/><path fill="#B00505" d="M15.51 41.734h3.003v13.289H15.51z"/><path fill="#EA8800" d="M16.261 41.734h1.501v9.38h-1.501z"/><path fill="#014D87" d="M15.67 38.275c-.854-3.115 2.228-7.936 1.142-7.67-5.101 1.236-12.068 5.197-11.316 8.738.639 3.012-2.612 2.307-1.691 5.545 1.909 6.715-5.991 13.799 1.469 10.088 8.87-4.412 10.655-15.755 10.396-16.701z"/><path fill="#160052" d="M4.332 54.752c7.354-5.23 11.978-13.799 10.666-16.197C12.758 34.447.514 57.469 4.332 54.752z"/><path fill="#160052" d="M8.641 35.883c-2.161-.456 6.581-2.52 7.029 2.393-1.233-2.899-3.779-1.712-7.029-2.393zm-2.928 3.633c0-1.607 1.637 1.928 6.101-.766 2.178-1.314-6.101 5.801-6.101.766z"/><path fill="#014D87" d="M18.353 38.275c.855-3.115-2.228-7.936-1.142-7.67 5.102 1.236 12.069 5.197 11.317 8.738-.639 3.012 2.612 2.307 1.691 5.545-1.908 6.715 5.99 13.799-1.468 10.088-8.871-4.412-10.656-15.755-10.398-16.701z"/><path fill="#160052" d="M29.691 54.752c-7.354-5.23-11.978-13.799-10.667-16.197 2.243-4.108 14.486 18.914 10.667 16.197z"/><path fill="#160052" d="M25.383 35.883c2.161-.456-6.581-2.52-7.03 2.393 1.234-2.899 3.78-1.712 7.03-2.393zm2.929 3.633c0-1.607-1.635 1.928-6.099-.766-2.182-1.314 6.099 5.801 6.099.766z"/><path fill="#D6A57C" d="M17.782 35.572c-.5.504-1.042.504-1.542 0-.78-.787-1.48-4.977-1.48-4.977h4.503s-.7 4.19-1.481 4.977z"/><path fill="#C7A452" d="M17.611 42.681c-.612-1.093 2.24-4.338 2.711-3.149.918 2.32-1.518 5.273-2.711 3.149z"/><radialGradient id="c" cx="-100.143" cy="237.408" r="10.991" gradientTransform="matrix(.7005 0 0 .7146 87.17 -150.025)" gradientUnits="userSpaceOnUse"><stop offset="0" style="stop-color:#3e394d"/><stop offset=".318" style="stop-color:#3a3549"/><stop offset=".643" style="stop-color:#2f2a3d"/><stop offset=".969" style="stop-color:#1c1828"/><stop offset="1" style="stop-color:#1a1626"/></radialGradient><path fill="url(#c)" d="M24.683 23.142c0-1.198-1.188-3.042-3.48-4.116-.268-.601-.738-1.161-1.354-1.601.49-.931.786-1.917.786-2.521 0-4.182-7.245-4.184-7.245 0 0 .605.296 1.589.787 2.52-.638.455-1.124 1.042-1.386 1.667-2.111.973-3.434 2.571-3.434 4.052l-.028 4.346h15.385l-.031-4.347z"/><path fill="#FDE0DA" d="M23.953 28.24s1.465.256 1.465-1.257c0-1.196-1.465-1.12-1.465-1.12v-1.109c-4.081-1.298-9.804-1.302-13.884.005v1.104s-1.465-.136-1.465 1.12c0 1.513 1.465 1.257 1.465 1.257 0 6.389 13.884 6.842 13.884 0z"/><path fill="#E81C27" d="M18.24 31.213c-.811.17-1.646.17-2.457 0-.354-.079-.099-.942.185-.876a5.095 5.095 0 0 0 2.087 0c.284-.066.539.795.185.876z"/><path fill="#302C3B" d="M15.367 27.735c-.743-1.137-2.24-1.137-2.984 0-.036.057.06.083.179.147.745-.474 1.951-.43 2.627 0 .119-.064.214-.09.178-.147zm6.272 0c-.743-1.137-2.24-1.137-2.983 0-.037.057.061.083.178.147.745-.474 1.952-.43 2.628 0 .117-.064.214-.09.177-.147z"/><path fill="#4E5E67" d="M19.306 17.586h3.471v1h-3.471zm-8.041 0h3.471v1h-3.471z"/><path fill="#E5BC5E" d="M19.599 41.129c-.776-1.566-1.944-3.996-2.714-5.938-.21-.532-1.927.753-1.653 1.241 1.042 1.857 2.518 4.28 3.417 5.737a2.24 2.24 0 0 0 .95-1.04z"/><path fill="#FDE0DA" d="M20.54 38.763c1.787-.597 3.682 5.026 2.574 5.684-2.127 1.261-5.51-.493-2.908-3.66 0-.001-1.362-1.456.334-2.024z"/><path fill="#F9C802" d="m14.322 43.551-1.234.107-1.369-13.332 2.122-.188z"/><path fill="#FDE0DA" d="M13.046 39.551c-1.788-.596-3.682 5.027-2.574 5.685 2.126 1.261 5.51-.493 2.907-3.66 0-.001 1.362-1.455-.333-2.025z"/><path fill="#870505" d="M61.483 55.087H32.494l14.497-25.394z"/><path fill="#E81C27" d="M47.147 41.012c-.854-3.116.727-10.671-.359-10.406-5.102 1.236-12.066 5.197-11.315 8.738.639 3.012-2.612 2.307-1.691 5.545 1.908 6.715-5.992 13.801 1.469 10.088 8.869-4.413 12.156-13.02 11.896-13.965z"/><path fill="#760E6D" d="M35.061 53.84c7.354-5.229 12.728-10.15 11.417-12.549-2.243-4.107-15.236 15.266-11.417 12.549z"/><path fill="#B00505" d="M38.618 35.883c-2.161-.455 6.58-2.518 7.027 2.393-1.232-2.899-3.777-1.711-7.027-2.393zm-2.178 4.545c0-1.607 1.636 1.928 6.1-.766 2.18-1.314-6.1 5.802-6.1.766z"/><path fill="#E81C27" d="M46.829 41.012c.854-3.116-.727-10.671.359-10.406 5.102 1.236 12.068 5.197 11.316 8.738-.639 3.012 2.613 2.307 1.691 5.545-1.908 6.715 5.99 13.801-1.469 10.088-8.868-4.413-12.157-13.02-11.897-13.965z"/><path fill="#760E6D" d="M58.917 53.84c-7.354-5.229-12.727-10.15-11.416-12.549 2.24-4.107 15.234 15.266 11.416 12.549z"/><path fill="#B00505" d="M55.36 35.883c2.16-.455-6.58-2.518-7.029 2.393 1.234-2.899 3.779-1.711 7.029-2.393zm2.178 4.545c0-1.607-1.637 1.928-6.1-.766-2.181-1.314 6.1 5.802 6.1.766z"/><path fill="#D6A57C" d="M47.759 35.573c-.5.503-1.041.503-1.541 0-.781-.788-1.48-4.978-1.48-4.978h4.502c-.001 0-.7 4.19-1.481 4.978z"/><path fill="#FDE0DA" d="M54.54 26.201c-.6.915-6.984-1.851-7.553-2.277-.568.428-7.027 3.226-7.564 2.261-.18.167-.315.412-.315.798 0 1.513 1.372 1.258 1.372 1.258 0 6.388 13.018 6.841 13.018 0 0 0 1.373.255 1.373-1.258-.001-.377-.143-.618-.331-.782z"/><path fill="#E81C27" d="M48.216 31.213c-.809.17-1.646.17-2.455 0-.354-.079-.1-.942.184-.876a5.11 5.11 0 0 0 2.09 0c.282-.066.536.796.181.876z"/><path fill="#302C3B" d="M45.345 27.735c-.744-1.136-2.24-1.136-2.984 0-.037.057.061.083.178.148.746-.475 1.951-.43 2.629 0 .116-.065.214-.091.177-.148zm6.271 0c-.744-1.136-2.238-1.136-2.984 0-.035.057.061.083.18.148.744-.475 1.951-.43 2.627 0 .119-.065.214-.091.177-.148zM50.52 17.542a34.409 34.409 0 0 1-7.059 0c-1.016-.114-.285-1.342.527-1.249 1.98.205 4.023.205 6.006 0 .813-.093 1.545 1.133.526 1.249zm5.459 24.411-7.682 2.167 4.744-3.951-.384-.46-4.786 3.985 2.304-4.896-.542-.255-2.296 4.879.049-5.14-.599-.006-.049 5.137-2.028-4.553-.547.244 2.024 4.541-4.255-3.786-.397.449 4.247 3.776-4.957-1.563-.18.571 6.376 1.944 9.119-2.507z"/><path fill="#F9B700" d="m37.352 41.724-.07 2.115 6.783.675.124-.603c-.903-1.551-6.837-2.187-6.837-2.187z"/><path fill="#F9C802" d="M44.437 43.347c-.523-1.598-5.831-3.346-5.831-3.346l-1.254 1.723 6.837 2.188.248-.565z"/><path fill="#F9B700" d="M44.799 42.844c-.191-1.763-5.27-4.745-5.27-4.745l-.924 1.902 5.831 3.346.363-.503z"/><path fill="#F9C802" d="M45.261 42.425c-.143-1.654-3.884-5.391-3.884-5.391l-1.848 1.064 5.27 4.745.462-.418z"/><path fill="#F9B700" d="M45.801 42.112c.549-1.668-2.807-6.439-2.807-6.439l-1.617 1.361 3.884 5.391.54-.313z"/><path fill="#F9C802" d="M46.401 41.923c.841-1.42-1.287-6.471-1.287-6.471l-2.12.221 2.807 6.439.6-.189z"/><path fill="#F9B700" d="M47.024 41.87c1.813-3.771.122-7.004.122-7.004l-2.032.586 1.287 6.471.623-.053z"/><path fill="#F9C802" d="M47.65 41.95c1.357-.939 1.521-6.424 1.521-6.424l-2.025-.66-.122 7.004.626.08z"/><path fill="#F9B700" d="M48.236 42.159c1.624-.67 3.03-6.342 3.03-6.342l-2.095-.291-1.521 6.424.586.209z"/><path fill="#F9C802" d="M48.77 42.493c1.636-.294 4.079-5.248 4.079-5.248l-1.582-1.428-3.03 6.342.533.334z"/><path fill="#F9B700" d="M49.214 42.922c1.771.063 5.431-4.56 5.431-4.56l-1.796-1.117-4.079 5.248.444.429z"/><path fill="#F9C802" d="M49.563 43.44c1.629.408 5.944-3.129 5.944-3.129l-.863-1.949-5.431 4.56.35.518z"/><path fill="#F9B700" d="M49.791 44.009c1.607.797 6.904-1.947 6.904-1.947l-1.188-1.75-5.944 3.129.228.568z"/><path fill="#F9C802" d="m56.695 42.062-6.904 1.947.104.611 6.8-.426z"/><path fill="#FDE0DA" d="M41.721 43.403s-.782-1.48-1.698-.066c-.964 1.492 2.979 4.201 3.806 3.326 1.582-1.674 1.116-5.019-2.108-3.26zm12.233-.066c-.916-1.414-1.698.066-1.698.066-3.225-1.76-3.69 1.586-2.107 3.26.827.875 4.769-1.834 3.805-3.326z"/></svg>