<svg xmlns="http://www.w3.org/2000/svg" xml:space="preserve" style="enable-background:new 0 0 64 64" viewBox="0 0 64 64"><linearGradient id="a" x1="675.854" x2="675.854" y1="61.998" y2="1.998" gradientTransform="matrix(-1 0 0 1 707.854 .002)" gradientUnits="userSpaceOnUse"><stop offset="0" style="stop-color:#0047c9"/><stop offset="1" style="stop-color:#00163d"/></linearGradient><path d="M2 2h60v60H2V2z" style="fill:url(#a)"/><linearGradient id="b" x1="328.176" x2="330.798" y1="514.402" y2="514.402" gradientTransform="scale(-1 1) rotate(-45 -412.965 700.828)" gradientUnits="userSpaceOnUse"><stop offset="0" style="stop-color:#99a8ae"/><stop offset=".281" style="stop-color:#b1bfc7"/><stop offset=".61" style="stop-color:#c7d5de"/><stop offset=".818" style="stop-color:#cfdde6"/></linearGradient><path d="M38.48 26.91 3.66 62H2v-1.7l34.8-35.07z" style="fill:url(#b)"/><path d="M47.12 6.64c-.02.41 7.34.5 7.37.08.02-.4-7.34-.49-7.37-.08z" style="fill:#ffe600"/><path d="M49.17 3.43c-.37.2 2.91 6.71 3.28 6.5.36-.2-2.92-6.7-3.28-6.5z" style="fill:#ffe600"/><path d="M17.99 11.83c.37.12 1.24-6.26.87-6.38-.37-.11-1.24 6.26-.87 6.38z" style="fill:#f59e01"/><path d="M15.31 9.31c.15.37 6.38-.97 6.23-1.34-.14-.36-6.37.98-6.23 1.34z" style="fill:#f59e01"/><path d="M52.37 45.74c.36.1 2.09-6.44 1.73-6.53-.35-.1-2.09 6.43-1.73 6.53z" style="fill:#fff"/><path d="M50.01 43.35c.1.37 6.56-1.39 6.46-1.75-.09-.37-6.56 1.39-6.46 1.75zM35.4 5.98c.13.22 4.06-2.07 3.93-2.29-.12-.22-4.06 2.07-3.93 2.29z" style="fill:#fff"/><path d="M35.4 3.68c-.13.22 3.8 2.52 3.93 2.29.13-.21-3.8-2.5-3.93-2.29z" style="fill:#fff"/><path d="M34.98 49.64c.16.27 5.02-2.56 4.86-2.84-.15-.27-5.01 2.57-4.86 2.84z" style="fill:#f59e01"/><path d="M34.98 46.8c-.16.27 4.71 3.11 4.86 2.84.16-.27-4.7-3.11-4.86-2.84z" style="fill:#f59e01"/><path d="M17.55 29.06c.28-.17-2.68-5.36-2.97-5.19-.29.17 2.68 5.36 2.97 5.19z" style="fill:#fff"/><path d="M14.58 29.06c.29.17 3.25-5.02 2.97-5.19-.29-.16-3.25 5.03-2.97 5.19zm45.96.03c.3-.17-2.81-5.61-3.11-5.43-.29.18 2.81 5.61 3.11 5.43z" style="fill:#fff"/><path d="M57.44 29.09c.3.18 3.4-5.26 3.11-5.43-.31-.17-3.41 5.26-3.11 5.43z" style="fill:#fff"/><path d="M37.77 25.96c.54-.96 18.52 10.25 18.52 10.25s-19.06-9.29-18.52-10.25z" style="fill:#f59e01"/><path d="M37.79 25.94c-1.11.69-11.17-19.41-11.17-19.41s12.29 18.73 11.17 19.41z" style="fill:#fff"/><path d="M37.77 25.96c.27-.96 16.95 4.13 16.95 4.13s-17.22-3.17-16.95-4.13z" style="fill:#f9c802"/><path d="M37.77 25.96c-.27 1.06-18.98-4.94-18.98-4.94s19.26 3.89 18.98 4.94z" style="fill:#f59e01"/><path d="M37.77 25.96c1 .58-12.64 19.37-12.64 19.37s11.65-19.95 12.64-19.37z" style="fill:#fff"/><path d="M37.77 25.96c-.95-.22 4.11-16.75 4.11-16.75s-3.16 16.98-4.11 16.75z" style="fill:#fc0"/><path d="M57.19 15.61c.74 1.42-19.42 10.35-19.42 10.35s18.68-11.77 19.42-10.35z" style="fill:#ffe600"/><path d="M56.78 19.13c-.38-.02.21-6.82.59-6.8.38.02-.21 6.83-.59 6.8z" style="fill:#ffe600"/><path d="M59.9 17.59c-.22.32-5.86-3.4-5.64-3.72.21-.31 5.86 3.41 5.64 3.72z" style="fill:#ffe600"/><path d="M54.48 37.27c-.12-.2 3.47-2.32 3.59-2.12.11.19-3.47 2.31-3.59 2.12z" style="fill:#f59e01"/><path d="M56.29 38.27c-.23 0-.27-4.13-.04-4.13s.27 4.13.04 4.13z" style="fill:#f59e01"/><path d="M23.13 6.75c.01-.38 7.01-.78 6.99-.39 0 .38-6.99.77-6.99.39z" style="fill:#fff"/><path d="M24.8 9.65c-.33-.18 3.33-6.36 3.66-6.19.33.17-3.33 6.36-3.66 6.19z" style="fill:#fff"/><path d="M53.31 31.44c-.14-.14 2.52-2.8 2.67-2.66.14.14-2.53 2.8-2.67 2.66z" style="fill:#f9c802"/><path d="M55.1 31.87c-.2.06-1.11-3.48-.91-3.53.2-.06 1.11 3.48.91 3.53z" style="fill:#f9c802"/><path d="M17 22.83c-.2-.2 3.38-3.8 3.58-3.6.2.19-3.37 3.8-3.58 3.6z" style="fill:#f59e01"/><path d="M19.48 23.47c-.28.08-1.65-4.81-1.37-4.89.27-.07 1.64 4.82 1.37 4.89z" style="fill:#f59e01"/><path d="M24 42.62c.3-.18 2.78 4.95 2.47 5.13-.3.17-2.77-4.96-2.47-5.13z" style="fill:#fff"/><path d="M22.26 45.28c.03-.34 5.99-.55 5.96-.21-.03.34-5.99.55-5.96.21z" style="fill:#fff"/><path d="M40.17 7.48c.19-.2 3.82 3.21 3.62 3.41-.19.19-3.82-3.21-3.62-3.41z" style="fill:#fc0"/><path d="M39.57 9.89c-.08-.27 4.73-1.69 4.81-1.43.09.27-4.73 1.7-4.81 1.43z" style="fill:#fc0"/><path d="M37.41 26.48c.86.87 17.64-17.83 17.64-17.83s-18.5 16.97-17.64 17.83z" style="fill:#fff"/><path d="M37.41 26.48c.75-.82-19-17.86-19-17.86s18.25 18.68 19 17.86z" style="fill:#f59e01"/><path d="M37.41 26.48c-.85.86 15.84 16.01 15.84 16.01S38.27 25.62 37.41 26.48z" style="fill:#fff"/><path d="M37.41 26.48c1.21 0 0-21.74 0-21.74s-1.21 21.74 0 21.74z" style="fill:#fff"/><path d="M37.41 26.48c-1.21 0 0 21.74 0 21.74s1.21-21.74 0-21.74z" style="fill:#f59e01"/><path d="M37.41 26.48c0-1.22-21.52-.01-21.52-.01s21.52 1.23 21.52.01zm0 0c0 1.22 21.52 0 21.52 0s-21.52-1.22-21.52 0z" style="fill:#fff"/><path d="M50.32 16.11c-.77-.98-12.91 10.37-12.91 10.37s13.68-9.39 12.91-10.37zM24.5 36.85c.77.98 12.91-10.37 12.91-10.37S23.73 35.87 24.5 36.85z" style="fill:#ff9901"/><path d="M27.14 13.43c-.97.78 10.27 13.05 10.27 13.05s-9.3-13.83-10.27-13.05z" style="fill:#fc0"/><path d="M47.68 39.53c.97-.78-10.27-13.05-10.27-13.05s9.3 13.82 10.27 13.05z" style="fill:#ff6a00"/><path d="M39.27 9.92c-1.23-.14-1.86 16.56-1.86 16.56s3.09-16.42 1.86-16.56z" style="fill:#ff9901"/><path d="M35.55 43.04c1.23.14 1.86-16.56 1.86-16.56s-3.09 16.42-1.86 16.56z" style="fill:#ff6a00"/><path d="M21.02 24.59c-.14 1.24 16.39 1.89 16.39 1.89s-16.25-3.13-16.39-1.89z" style="fill:#ff9901"/><path d="M53.8 28.37c.14-1.24-16.39-1.89-16.39-1.89s16.25 3.13 16.39 1.89z" style="fill:#ffe600"/><path d="M57.66 19.11c-.55-1.54-20.25 7.37-20.25 7.37s20.79-5.83 20.25-7.37z" style="fill:#f9b700"/><path d="M17.68 35.14c.64 1.5 19.73-8.66 19.73-8.66s-20.37 7.17-19.73 8.66z" style="fill:#ff6a00"/><path d="M28.83 6.54c-1.46.69 9.12 19.7 9.12 19.7s-7.66-20.39-9.12-19.7zm17.16 39.88c1.48-.65-8.58-19.94-8.58-19.94s7.1 20.59 8.58 19.94z" style="fill:#ff9901"/><path d="M46.22 6.64c-1.47-.67-8.81 19.84-8.81 19.84S47.69 7.31 46.22 6.64z" style="fill:#ff6a00"/><path d="M29.53 46.71c1.5.6 7.88-20.23 7.88-20.23s-9.38 19.63-7.88 20.23zM18.2 16.73c-.73 1.46 19.22 9.75 19.22 9.75-.01 0-18.5-11.21-19.22-9.75z" style="fill:#ffe600"/><path d="M57.43 34.45c.59-1.52-20.02-7.97-20.02-7.97s19.43 9.49 20.02 7.97zm-1.67-10.74c-.21-1.39-18.35 2.77-18.35 2.77s18.55-1.38 18.35-2.77z" style="fill:#ff6a00"/><path d="M19.06 29.25c.21 1.39 18.35-2.77 18.35-2.77s-18.56 1.37-18.35 2.77z" style="fill:#ff9901"/><path d="M34.66 7.94c-1.38.21 2.75 18.55 2.75 18.54 0 0-1.37-18.75-2.75-18.54z" style="fill:#ff6a00"/><path d="M40.16 45.02c1.38-.21-2.75-18.54-2.75-18.54s1.37 18.75 2.75 18.54z" style="fill:#fc0"/><path d="M50.95 6.57c-1.43-.95-13.54 19.91-13.54 19.91S52.38 7.52 50.95 6.57z" style="fill:#ffe600"/><path d="M26.37 41.55c1.12.84 11.04-15.07 11.04-15.07S25.26 40.71 26.37 41.55z" style="fill:#ff6a00"/><path d="M22.49 15.32c-.83 1.13 14.92 11.16 14.92 11.16S23.32 14.19 22.49 15.32z" style="fill:#ff6a00"/><path d="M52.33 37.64c.83-1.13-14.92-11.16-14.92-11.16S51.5 38.77 52.33 37.64z" style="fill:#ff9901"/><path d="M23.23 40.78S38.32 27.16 38.68 26.8c1.31-1.32-.31-2.95-1.62-1.63-.35.36-13.83 15.61-13.83 15.61z" style="fill:#ffe600"/><path d="m34.15 29.74.87 5.8 3.65-4.59 5.41 2.1L42 27.58l4.54-3.69-5.73-.87-.86-5.8-3.66 4.59-5.41-2.1 2.08 5.46-4.54 3.7z" style="fill:#fffdcd"/><path d="m35.13 28.75.61 4.1 2.58-3.25 3.82 1.49-1.47-3.86 3.21-2.61-4.05-.62-.61-4.09-2.58 3.24-3.82-1.48 1.47 3.86-3.21 2.61z" style="fill:#fff"/></svg>