<svg xmlns="http://www.w3.org/2000/svg" xml:space="preserve" style="enable-background:new 0 0 64 64" viewBox="0 0 64 64"><linearGradient id="a" x1="16.875" x2="32.474" y1="43.284" y2="43.284" gradientTransform="rotate(-1.146 761.025 -254.375)" gradientUnits="userSpaceOnUse"><stop offset="0" style="stop-color:#cc884a"/><stop offset=".31" style="stop-color:#a16937"/><stop offset=".777" style="stop-color:#653e1c"/><stop offset="1" style="stop-color:#4d2d12"/></linearGradient><path d="M35.79 50.75h-8.25c-.04 2.7-.08 5.35-.12 7.51-.02 1.14-.44 2.76-1.04 4.22-.17.41.05.88.47.99 1.27.33 3.11.54 5.17.54 2 0 3.81-.2 5.07-.52.45-.11.66-.64.44-1.06-.6-1.14-1.09-2.23-1.18-3.2-.23-2.37-.42-5.4-.56-8.48z" style="fill:url(#a)"/><linearGradient id="b" x1="1331.184" x2="1343.218" y1="35.731" y2="35.731" gradientTransform="scale(-1 1) rotate(1.662 -88.746 -47149.74)" gradientUnits="userSpaceOnUse"><stop offset="0" style="stop-color:#4d2d12"/><stop offset=".004" style="stop-color:#4e2e12"/><stop offset=".376" style="stop-color:#925e30"/><stop offset=".645" style="stop-color:#bc7c43"/><stop offset=".782" style="stop-color:#cc884a"/></linearGradient><path d="M27.54 50.75c-.04 2.7.1 5.35.19 7.5.05 1.4-.89 5.2-.89 5.2.17.04.35.09.53.12.55-1.67 1.36-6.7 1.36-6.7s-.26 4.74-.81 6.8c.55.09 1.17.17 1.82.22.78-3.06.59-7.95.86-13.16h-3.06z" style="fill:url(#b)"/><linearGradient id="c" x1="1330.317" x2="1343.703" y1="35.867" y2="35.867" gradientTransform="scale(-1 1) rotate(1.662 -88.746 -47149.74)" gradientUnits="userSpaceOnUse"><stop offset="0" style="stop-color:#4d2d12"/><stop offset=".004" style="stop-color:#4e2e12"/><stop offset=".376" style="stop-color:#925e30"/><stop offset=".645" style="stop-color:#bc7c43"/><stop offset=".782" style="stop-color:#cc884a"/></linearGradient><path d="M34.36 50.75h-3.27c-.01 4.36.1 9.99-.2 13.23.36.01.74.02 1.12.02.63 0 1.24-.02 1.82-.06-.79-2.6-1.16-6.78-1.05-12.77.89 7.15 1.52 10.9 2.1 12.69.38-.04.75-.09 1.09-.14-1.09-1.65-1.01-4.23-1.11-5.32-.23-2.33-.39-5.01-.5-7.65z" style="fill:url(#c)"/><linearGradient id="d" x1="32" x2="32" y1="61.749" y2="42.31" gradientUnits="userSpaceOnUse"><stop offset="0" style="stop-color:#009e03"/><stop offset=".2" style="stop-color:#009a04"/><stop offset=".405" style="stop-color:#008e05"/><stop offset=".611" style="stop-color:#007908"/><stop offset=".817" style="stop-color:#005d0b"/><stop offset="1" style="stop-color:#003d0f"/></linearGradient><path d="M53.71 56.59c-2.23.05-3.24-1.26-3.24-1.26s4.87 1.45 9.57-1.5c-6.7-.61-9.86-2.98-9.86-2.98s3.46 1 5.76-.83c-2.64-.03-5.52-3.29-7.21-5.56H17.44c-.9.93-5.25 5.2-9.45 5.83 1.27.69 3.14.99 3.14.99s-4.43.9-7.17.45c3.47 2.23 6.32 1.54 6.32 1.54s-1.2 1.39-2.82 2.22c2.87.27 5.56-.86 5.56-.86s-.86 1.6-2.96 2.53c3.18.26 5.97-1.77 5.97-1.77s-.09 1.83-2.77 3.4c5.3-.24 5.47-1.36 5.47-1.36s.08 1.28-1.01 3.14c4.62-.54 6.42-4.82 6.42-4.82s.38 2.88-1.59 5.52c4.23-.92 5.99-5.7 5.99-5.7s.33 4.23-1.1 6.18c4.26-1.45 4.75-8.26 4.75-8.26s.68 6.06 2.85 7.42c.15-2.19 1.13-4.46 1.13-4.46s.94 2.99 4.28 3.44c-1.69-1.99-1.25-4.86-1.25-4.86s.86 4.62 6.6 5.3c-.89-.69-1.63-3.68-1.63-3.68s2.03 2.49 7.11 2.23c-3.03-1.35-4.21-3.5-4.21-3.5s2.58 2.89 6.64 1.21z" style="fill:url(#d)"/><radialGradient id="e" cx="40.507" cy="55.324" r="2.077" gradientTransform="matrix(1.007 0 0 1 -5.452 0)" gradientUnits="userSpaceOnUse"><stop offset="0" style="stop-color:#ff00f8"/><stop offset="1" style="stop-color:#940090"/></radialGradient><path d="M33.87 56.19c0 2.77 4.18 2.77 4.18 0 .01-2.77-4.18-2.77-4.18 0z" style="fill:url(#e)"/><path d="M25.36 51.43c-.3 2.96-.93 3.49-3.54 3.81 2.61.31 3.23.84 3.54 3.81.31-2.96.93-3.5 3.54-3.81-2.61-.32-3.23-.85-3.54-3.81z" style="fill:#fff"/><radialGradient id="f" cx="19.279" cy="50.487" r="2.415" gradientTransform="matrix(1.007 0 0 1 -5.452 0)" gradientUnits="userSpaceOnUse"><stop offset="0" style="stop-color:#fffcde"/><stop offset="1" style="stop-color:#ffd500"/></radialGradient><path d="M12.21 51.43c0 3.22 4.86 3.22 4.86 0s-4.86-3.22-4.86 0z" style="fill:url(#f)"/><radialGradient id="g" cx="52.103" cy="49.587" r="2.273" gradientTransform="matrix(1.007 0 0 1 -5.452 0)" gradientUnits="userSpaceOnUse"><stop offset="0" style="stop-color:#ffb8d5"/><stop offset=".205" style="stop-color:#ff9dc0"/><stop offset="1" style="stop-color:#ff3672"/></radialGradient><path d="M45.23 50.47c0 3.03 4.58 3.03 4.58 0s-4.58-3.03-4.58 0z" style="fill:url(#g)"/><linearGradient id="h" x1="31.421" x2="31.421" y1="53.366" y2="36.268" gradientUnits="userSpaceOnUse"><stop offset="0" style="stop-color:#009e03"/><stop offset=".2" style="stop-color:#009a04"/><stop offset=".405" style="stop-color:#008e05"/><stop offset=".611" style="stop-color:#007908"/><stop offset=".817" style="stop-color:#005d0b"/><stop offset="1" style="stop-color:#003d0f"/></linearGradient><path d="M56.88 48.3c-4.1-1.42-6.73-4.06-6.73-4.06s2.08.26 4.86-.93c-3.78-.77-7.19-3.7-9.02-5.53H17.34c-.78.89-4.6 5.04-9.11 6.11 2.41 1.18 4.68.42 4.68.42s-3.15 1.56-5.15 1.9c3 .79 6.34-.36 6.34-.36s-3.69 2.31-8.13 2.41c.83.48 1.87.74 2.9.73-.45.13-.9.26-1.36.39 3.5 1.14 7.4-.69 7.4-.69s-1.1 1.33-2.9 1.69c3.54.18 6.87-1.38 8.63-3.85-.94 1.94-2.74 3.61-5.01 4.62 6.9-.21 9.41-5.48 9.41-5.48s-1.96 5.16-3.06 7.3c2.64-.61 6.41-4.74 6.41-4.74s-.35 3.2 2.61 5.15c.66-1.59.61-5.08.92-6.73 1.17 3.68 4.93 4 6.39 4.29a32.402 32.402 0 0 1-3.23-4.25c2.2 2.37 5.81 3.86 9.49 3.92-1.07-.8-1.91-1.81-2.42-2.91 1.17 1.02 2.81 1.68 4.52 1.84l-1.51-2.26c3.35 1.87 7.93 2.28 11.72 1.02z" style="fill:url(#h)"/><radialGradient id="i" cx="30.043" cy="46.942" r="2.063" gradientTransform="matrix(1.007 0 0 1 -5.452 0)" gradientUnits="userSpaceOnUse"><stop offset="0" style="stop-color:#ff8080"/><stop offset="1" style="stop-color:#e00100"/></radialGradient><path d="M23.29 47.59c0 2.75 4.15 2.75 4.15 0s-4.15-2.75-4.15 0z" style="fill:url(#i)"/><radialGradient id="j" cx="54.962" cy="43.971" r="2.268" gradientTransform="matrix(1.007 0 0 1 -5.452 0)" gradientUnits="userSpaceOnUse"><stop offset="0" style="stop-color:#759cff"/><stop offset="1" style="stop-color:#003fc7"/></radialGradient><path d="M48.09 44.69c0 3.02 4.57 3.02 4.57 0-.01-3.02-4.57-3.02-4.57 0z" style="fill:url(#j)"/><radialGradient id="k" cx="40.763" cy="44.385" r="2.26" gradientTransform="matrix(1.007 0 0 1 -5.452 0)" gradientUnits="userSpaceOnUse"><stop offset="0" style="stop-color:#ffdc69"/><stop offset="1" style="stop-color:#ff7b00"/></radialGradient><path d="M33.97 45.33c0 3.01 4.55 3.01 4.55 0 0-3.02-4.55-3.02-4.55 0z" style="fill:url(#k)"/><linearGradient id="l" x1="32" x2="32" y1="45.081" y2="31.473" gradientUnits="userSpaceOnUse"><stop offset="0" style="stop-color:#009e03"/><stop offset=".2" style="stop-color:#009a04"/><stop offset=".405" style="stop-color:#008e05"/><stop offset=".611" style="stop-color:#007908"/><stop offset=".817" style="stop-color:#005d0b"/><stop offset="1" style="stop-color:#003d0f"/></linearGradient><path d="M52.21 38.02c-4.23-1-8.03-3.87-9.89-5.46H20.83c-1.26 1.15-7.26 6.46-11.16 6.52 2.32 1.84 6.11 1.52 6.11 1.52l-1.92 1.73c1.78.06 3.58-.29 5.13-.98-.6.65-1.26 1.26-1.98 1.84 3.24-.17 6.38-1.3 8.68-3.14-.11.44-.21.88-.32 1.32 1.78-.3 4.59-2.2 4.59-2.2s-.52 2.78 2.64 5.37c.32-1.61.63-4.22.63-4.22s.9 2.97 5.35 3.58c-.15-.9.16-1.84.16-1.84s1.68 2.69 6.35 3.03c-.51-.56-.9-1.18-1.17-1.83 1.31.76 2.96 1.55 4.42 1-2.24-1.11-4.22-2.56-5.8-4.26 1.04.65 2.67 1.91 5.25 1.67-.2-.22-.4-.45-.61-.67 2.29.77 5.05.57 7.13-.52-2.32-.23-4.57-.9-6.52-1.92 1.46.44 3.2.23 4.42-.54z" style="fill:url(#l)"/><radialGradient id="m" cx="22.064" cy="35.811" r="2.062" gradientTransform="matrix(1.007 0 0 1 -5.452 0)" gradientUnits="userSpaceOnUse"><stop offset="0" style="stop-color:#759cff"/><stop offset="1" style="stop-color:#003fc7"/></radialGradient><path d="M15.34 36.58c0 2.75 4.15 2.75 4.15 0s-4.15-2.75-4.15 0z" style="fill:url(#m)"/><radialGradient id="n" cx="52.014" cy="35.284" r="2.375" gradientTransform="matrix(1.007 0 0 1 -5.452 0)" gradientUnits="userSpaceOnUse"><stop offset="0" style="stop-color:#fffcde"/><stop offset="1" style="stop-color:#ffd500"/></radialGradient><path d="M45.13 36.17c0 3.17 4.78 3.17 4.78 0 .01-3.16-4.78-3.16-4.78 0z" style="fill:url(#n)"/><path d="M22.19 39.53c-.24 2.26-.71 2.66-2.7 2.9 1.99.24 2.46.65 2.7 2.9.23-2.25.7-2.66 2.69-2.9-1.99-.24-2.46-.65-2.69-2.9z" style="fill:#fff"/><linearGradient id="o" x1="31.595" x2="31.595" y1="38.549" y2="25.293" gradientUnits="userSpaceOnUse"><stop offset="0" style="stop-color:#009e03"/><stop offset=".2" style="stop-color:#009a04"/><stop offset=".405" style="stop-color:#008e05"/><stop offset=".611" style="stop-color:#007908"/><stop offset=".817" style="stop-color:#005d0b"/><stop offset="1" style="stop-color:#003d0f"/></linearGradient><path d="M45.63 33.58s2.63.61 5.6-.63c-5.55-1.41-9.27-2.98-11.07-6.42H21.74c-2.04 1.41-5.64 3.61-9.11 4.36 1.55 1.16 3.31 1.34 4.58 1.57 0 0-2.45 1.14-5.26 1.29 3.38 1.76 7.26 1.21 8.73.85-.79.56-1.73 1-2.74 1.3 1.38.12 2.79-.02 4.08-.4-.09.49-1.71 1.49-1.71 1.49s3.38-.31 4.53-1.94c-.06.43.16 1.27-1.54 2.58 3.61.17 5.98-1.49 6.79-2.17.33.64-.45 2.03-.45 2.03s4.38-1.17 4.14-3.94c.44.76 1.01 3.76 5.12 5-1.25-2.24-1.23-4.02-1.23-4.02s1.39 2.27 4.49 3.26c-1.49-1.88-.89-3.8-.89-3.8s2.89 2.34 6.9 1.97c-1.66-1-2.54-2.38-2.54-2.38z" style="fill:url(#o)"/><radialGradient id="p" cx="34.254" cy="34.805" r="2.375" gradientTransform="matrix(1.007 0 0 1 -5.452 0)" gradientUnits="userSpaceOnUse"><stop offset="0" style="stop-color:#ffb8d5"/><stop offset=".205" style="stop-color:#ff9dc0"/><stop offset="1" style="stop-color:#ff3672"/></radialGradient><path d="M27.18 35.73c0 3.17 4.78 3.17 4.78 0 .01-3.17-4.78-3.17-4.78 0z" style="fill:url(#p)"/><path d="M37.74 31.69c-.29 2.84-.89 3.35-3.39 3.65 2.5.3 3.1.81 3.39 3.65.29-2.84.89-3.35 3.39-3.65-2.51-.3-3.1-.81-3.39-3.65z" style="fill:#fff"/><radialGradient id="q" cx="28.053" cy="29.976" r="1.985" gradientTransform="matrix(1.007 0 0 1 -5.452 0)" gradientUnits="userSpaceOnUse"><stop offset="0" style="stop-color:#ffdc69"/><stop offset="1" style="stop-color:#ff7b00"/></radialGradient><path d="M21.36 30.8c0 2.65 4 2.65 4 0 0-2.64-4-2.64-4 0z" style="fill:url(#q)"/><linearGradient id="r" x1="31.595" x2="31.595" y1="31.473" y2="20.8" gradientUnits="userSpaceOnUse"><stop offset="0" style="stop-color:#009e03"/><stop offset=".2" style="stop-color:#009a04"/><stop offset=".405" style="stop-color:#008e05"/><stop offset=".611" style="stop-color:#007908"/><stop offset=".817" style="stop-color:#005d0b"/><stop offset="1" style="stop-color:#003d0f"/></linearGradient><path d="M46.49 28.06a16.4 16.4 0 0 1-3.11-1.67c2.08.42 4.32.5 6.45.23-3.72-.45-7.01-2.29-7.01-2.29s1.73.46 3.03.28c-3.36-.93-5.92-3.61-5.92-3.61l-14.95-.04c-.96.6-4.48 2.7-6.81 2.88 1.05.41 2.87.28 2.87.28s-4.1 1.03-7.69 1.23c2.23.66 4.87.63 4.87.63s-2.04.99-4.19 1.05c3.41 1.63 8.76.61 8.76.61s-2.52 1.78-4.53 2c2.64.13 5.96-.72 5.96-.72s-.59 1.18-1.58 1.84c2.65-.19 4.26-1.21 4.26-1.21s-.11 1.3.11 1.94c.93-.59 1.62-1.35 1.97-2.17.1.65.36 1.29.78 1.88 1.42-.76 2.28-1.94 2.28-3.14 1.14 1.24 2.81 2.28 4.77 2.96-.28-.64-.56-1.27-.84-1.91 1.98 1.49 5.26 1.85 8.25 2.11-.8-.53-1.59-1.07-2.39-1.6 1.71.72 3.81 1.03 5.82.86-2.48-1-4.78-2.19-6.84-3.53 1.57.82 3.66 1.24 5.68 1.11z" style="fill:url(#r)"/><radialGradient id="s" cx="43.522" cy="23.649" r="1.95" gradientTransform="matrix(1.007 0 0 1 -5.452 0)" gradientUnits="userSpaceOnUse"><stop offset="0" style="stop-color:#ff8080"/><stop offset="1" style="stop-color:#e00100"/></radialGradient><path d="M37.07 24.41c0 2.6 3.93 2.6 3.93 0-.01-2.6-3.93-2.6-3.93 0z" style="fill:url(#s)"/><linearGradient id="t" x1="31.595" x2="31.595" y1="25.665" y2="14.005" gradientUnits="userSpaceOnUse"><stop offset="0" style="stop-color:#009e03"/><stop offset=".2" style="stop-color:#009a04"/><stop offset=".405" style="stop-color:#008e05"/><stop offset=".611" style="stop-color:#007908"/><stop offset=".817" style="stop-color:#005d0b"/><stop offset="1" style="stop-color:#003d0f"/></linearGradient><path d="M41.33 20.51s1.45-.57 1.7-1.09c-2.04-.36-5.12-3.08-6.67-4.67h-9.32c-1.56 2.68-4.6 4.66-7.98 5.14 1.12.28 2.3.35 3.45.21-.94.46-1.96.82-3 1.04 1.17.16 2.38.11 3.53-.13-1.28.76-2.68 1.35-4.16 1.74 1.54.23 3.14.12 4.62-.32-.29.57-.77 1.06-1.35 1.41 1.51.04 3.03-.58 3.98-1.62-.52 1.1-1.38 2.08-2.47 2.8 1.84-.08 3.58-1.11 4.37-2.58.34 1.05.26 2.21-.22 3.22 1.06-.66 1.49-1.88 1.54-3.03 1.33 1.13 2.93 2.02 4.66 2.59a8.361 8.361 0 0 1-1.66-3.43c1.24 1.17 2.87 2.02 4.64 2.4-.52-.72-.82-1.56-.86-2.41.82.91 1.96 1.58 3.22 1.9-.13-.77-.38-1.52-.75-2.22 1.54 1.26 3.46 1.69 5.7.58-1.73-.41-2.97-1.53-2.97-1.53z" style="fill:url(#t)"/><path d="M30.79 20.33c-.29 3.17-.87 3.74-3.32 4.08 2.45.33 3.03.9 3.32 4.08.29-3.17.87-3.75 3.32-4.08-2.45-.34-3.03-.91-3.32-4.08z" style="fill:#fff"/><radialGradient id="u" cx="30.68" cy="18.934" r="1.832" gradientTransform="matrix(1.007 0 0 1 -5.452 0)" gradientUnits="userSpaceOnUse"><stop offset="0" style="stop-color:#ff00f8"/><stop offset="1" style="stop-color:#940090"/></radialGradient><path d="M24.15 19.7c0 2.44 3.69 2.44 3.69 0 0-2.45-3.69-2.45-3.69 0z" style="fill:url(#u)"/><linearGradient id="v" x1="31.239" x2="31.239" y1="20.456" y2="5.547" gradientUnits="userSpaceOnUse"><stop offset="0" style="stop-color:#009e03"/><stop offset="1" style="stop-color:#009e03"/></linearGradient><path d="M36.63 16.19s1.71.98 3.41.55c-2.22-1.17-2.86-2.11-2.86-2.11s.53.03 1.66-.32c-2.36-1.35-5.53-3.91-6.47-7.89-.14-.58-.57-.58-.73 0-.9 3.24-4.14 7.14-7.08 8.2.42.42 1.01.52 1.01.52s-1.49 1.1-2.73 1.28c1.07.48 2.44.32 2.44.32s-.98 1.76-2.86 2.58c3.57-.24 5.26-2 6.04-3.12.37 1.32-.15 3.27-.15 3.27s2.46-1.29 2.27-3.6c.49 2.79 3.42 4.3 3.42 4.3s-.85-2.23-.49-3.98c1.81 3.02 5.65 3.89 6.56 3.98-2.74-1.97-3.44-3.98-3.44-3.98z" style="fill:url(#v)"/><linearGradient id="w" x1="31.964" x2="31.964" y1="12.826" y2="0" gradientUnits="userSpaceOnUse"><stop offset="0" style="stop-color:#fa0"/><stop offset=".033" style="stop-color:#ffad00"/><stop offset=".456" style="stop-color:#ffd500"/><stop offset=".793" style="stop-color:#ffed00"/><stop offset="1" style="stop-color:#fff600"/></linearGradient><path d="M31.68.36c.16-.48.41-.48.57 0l1.43 4.38h4.59c.53 0 .62.25.2.56l-3.73 2.69 1.43 4.37c.16.48-.06.62-.48.32L31.96 10l-3.72 2.68c-.42.31-.64.16-.49-.32l1.43-4.37-3.73-2.69c-.42-.31-.33-.56.2-.56h4.59L31.68.36z" style="fill:url(#w)"/><path d="M40.31 46.89c-.27 2.99-.82 3.52-3.12 3.84 2.3.31 2.85.85 3.12 3.84.27-2.99.82-3.53 3.12-3.84-2.3-.31-2.85-.85-3.12-3.84z" style="fill:#fff"/></svg>