<svg xmlns="http://www.w3.org/2000/svg" xml:space="preserve" viewBox="0 0 64 64"><path fill="#664D42" d="M17.137 38.714c3.072-1.434 7.219-3.904 6.107-5.741-.836-1.385-1.242-.768-1.178.276.166 2.76-2.701 3.195-5.348 4.43l.419 1.035z"/><linearGradient id="a" x1="529.534" x2="526.5" y1="143.86" y2="134.867" gradientTransform="scale(-1 1) rotate(-30.725 55.44 1068.916)" gradientUnits="userSpaceOnUse"><stop offset="0" style="stop-color:#92c932"/><stop offset="1" style="stop-color:#69a123"/></linearGradient><path fill="url(#a)" d="M23.566 40.651C20.314 36.688 4.4 33.394 2 16.934c6.729 5.188 20.766 8.068 21.566 23.717z"/><path fill="#BACC02" d="M26.393 45.452C23.209 34.89 10.551 25.354 7.162 22.997c3.424 2.656 17.09 13.833 17.998 23.825.033.365 1.592-.176 1.233-1.37z"/><path fill="#8A6859" d="M16.84 38.329c3.074-1.436 4.424-5.829 5.939-5.08 1.135.561.182-1.309-.871-1.309-2.094 0-2.84 4.122-5.484 5.354l.416 1.035z"/><radialGradient id="b" cx="111.764" cy="76.656" r="9.72" gradientTransform="matrix(-1.0406 .284 .5735 2.0811 83.382 -144.786)" gradientUnits="userSpaceOnUse"><stop offset="0" style="stop-color:#00a4d6"/><stop offset=".217" style="stop-color:#009dd1"/><stop offset=".536" style="stop-color:#0089c3"/><stop offset=".916" style="stop-color:#0069ac"/><stop offset="1" style="stop-color:#0061a6"/></radialGradient><path fill="url(#b)" d="M19.602 41.126s-1.197 6.35-6.572 10.781c-5.375 4.434-6.045 7.291-6.045 7.291L2.333 51.26s.973-3.318 7.205-8.613c1.953-1.66 3.145-4.826 4.248-8.514l5.816 6.993z"/><path fill="#FFE12C" d="m19.598 41.698.611-.572-6.129-7.316-.609.576z"/><path fill="#664D42" d="M38.68 22.956c-3.178-1.49-7.463-4.057-6.316-5.963.867-1.439 1.287-.799 1.221.287-.174 2.865 2.791 3.32 5.527 4.602l-.432 1.074z"/><linearGradient id="c" x1="183.674" x2="180.619" y1="-5.727" y2="-14.781" gradientTransform="rotate(-12.222 205.965 627.022)" gradientUnits="userSpaceOnUse"><stop offset="0" style="stop-color:#92c932"/><stop offset="1" style="stop-color:#69a123"/></linearGradient><path fill="url(#c)" d="M34.164 17.514C38.48 14.809 54.598 16.833 62 2c-7.996 2.743-22.205.934-27.836 15.514z"/><path fill="#BACC02" d="M30.281 21.252C36.592 12.266 51.27 7.219 55.217 6.079c-4.076 1.41-20.219 7.689-24.191 16.871-.147.336-1.456-.684-.745-1.698z"/><linearGradient id="d" x1="107.755" x2="120.649" y1="16.717" y2="16.717" gradientTransform="matrix(.981 -.173 .1736 .9848 -85.933 35.071)" gradientUnits="userSpaceOnUse"><stop offset="0" style="stop-color:#92c932"/><stop offset="1" style="stop-color:#609420"/></linearGradient><path fill="url(#d)" d="M21.377 2.922c0 34.819 7.061 59.073 7.061 59.073 4.961.104 9.061-1.65 9.061-1.65s-7.061-24.576-7.061-57.422c0-.001-4.743-2.075-9.061-.001z"/><linearGradient id="e" x1="26.038" x2="26.038" y1="8.44" y2="5.863" gradientUnits="userSpaceOnUse"><stop offset=".176" style="stop-color:#859616"/><stop offset=".208" style="stop-color:#889918"/><stop offset=".513" style="stop-color:#a1b326"/><stop offset=".787" style="stop-color:#b0c32f"/><stop offset="1" style="stop-color:#b5c932"/></linearGradient><path fill="url(#e)" d="M27.541 8.44c1.018-.026 2.092-.003 3.105-.078 1.221-.1 1.227-1.603.008-1.504-1.014.074-2.212-.414-3.229-.388-1.019.025-1.92-.583-2.938-.606-1.018-.022-2.074.589-3.089.517-1.215-.094-1.166 1.216.051 1.311 1.014.071 1.414.236 2.497.008.996-.211 2.575.765 3.595.74z"/><linearGradient id="f" x1="27.778" x2="27.778" y1="34.607" y2="32.525" gradientUnits="userSpaceOnUse"><stop offset=".176" style="stop-color:#859616"/><stop offset=".208" style="stop-color:#889918"/><stop offset=".513" style="stop-color:#a1b326"/><stop offset=".787" style="stop-color:#b0c32f"/><stop offset="1" style="stop-color:#b5c932"/></linearGradient><path fill="url(#f)" d="M29.426 34.537c1.006-.161 2.073-.281 3.068-.49 1.196-.261 1.002-1.751-.192-1.492-.995.208-2.33.149-3.335.311-1.006.162-2.404-.362-3.417-.25-1.012.113-1.471.633-2.486.696-1.217.068-.994 1.36.225 1.293 1.015-.064 2.018-.004 3.029-.116 1.012-.113 2.101.208 3.108.048z"/><linearGradient id="g" x1="31.993" x2="31.993" y1="58.568" y2="56.009" gradientUnits="userSpaceOnUse"><stop offset=".176" style="stop-color:#859616"/><stop offset=".208" style="stop-color:#889918"/><stop offset=".513" style="stop-color:#a1b326"/><stop offset=".787" style="stop-color:#b0c32f"/><stop offset="1" style="stop-color:#b5c932"/></linearGradient><path fill="url(#g)" d="M36.44 56.016c-1.012.102-2.096-.191-3.022.229-1.098.497-2.109-.131-3.109.067-.998.198-2.061.357-3.047.604-1.187.305-.938 1.787.247 1.483.986-.245 2.226.325 3.225.127s2.015-.044 3.022-.193c1.007-.15 1.944-.933 2.957-1.033 1.213-.114.942-1.397-.273-1.284z"/><path fill="#8A6859" d="M38.986 22.555c-3.178-1.488-4.574-6.055-6.141-5.275-1.174.582-.188-1.361.898-1.361 2.166 0 2.938 4.281 5.674 5.563l-.431 1.073z"/><radialGradient id="h" cx="-77.948" cy="77.399" r="10.844" gradientTransform="rotate(15.334 155.681 510.7)" gradientUnits="userSpaceOnUse"><stop offset="0" style="stop-color:#ff3b3b"/><stop offset=".282" style="stop-color:#fc3838"/><stop offset=".528" style="stop-color:#f32d2d"/><stop offset=".762" style="stop-color:#e31b1b"/><stop offset=".987" style="stop-color:#cd0302"/><stop offset="1" style="stop-color:#cc0100"/></radialGradient><path fill="url(#h)" d="M36.133 25.463s1.236 6.594 6.793 11.2c5.559 4.607 6.25 7.574 6.25 7.574l4.811-8.246s-1.004-3.448-7.449-8.948c-2.018-1.725-3.252-5.014-4.393-8.846l-6.012 7.266z"/><path fill="#FFE12C" d="m36.135 26.057-.633-.594 6.338-7.601.629.597z"/></svg>