<svg xmlns="http://www.w3.org/2000/svg" xml:space="preserve" viewBox="0 0 64 64"><linearGradient id="a" x1="32.001" x2="32.001" y1="60" y2="4" gradientUnits="userSpaceOnUse"><stop offset="0" style="stop-color:#93a1a8"/><stop offset=".206" style="stop-color:#a8b4bb"/><stop offset=".483" style="stop-color:#bec8ce"/><stop offset=".752" style="stop-color:#cbd4d9"/><stop offset="1" style="stop-color:#cfd8dd"/></linearGradient><path fill="url(#a)" d="M60 56.267A3.744 3.744 0 0 1 56.267 60H7.733A3.745 3.745 0 0 1 4 56.267V7.733A3.745 3.745 0 0 1 7.733 4h48.533A3.744 3.744 0 0 1 60 7.733v48.534z"/><path fill="#E6EBEF" d="M58.133 55.8a2.34 2.34 0 0 1-2.333 2.334H8.2A2.34 2.34 0 0 1 5.867 55.8V8.2A2.34 2.34 0 0 1 8.2 5.866h47.6A2.34 2.34 0 0 1 58.133 8.2v47.6z"/><linearGradient id="b" x1="45.066" x2="45.066" y1="53.467" y2="36.666" gradientUnits="userSpaceOnUse"><stop offset="0" style="stop-color:#cfd8dd"/><stop offset=".238" style="stop-color:#dee4e8"/><stop offset=".71" style="stop-color:#f6f8f9"/><stop offset="1" style="stop-color:#fff"/></linearGradient><circle cx="45.067" cy="45.066" r="8.4" fill="url(#b)"/><linearGradient id="c" x1="18.933" x2="18.933" y1="53.467" y2="36.666" gradientUnits="userSpaceOnUse"><stop offset="0" style="stop-color:#cfd8dd"/><stop offset=".238" style="stop-color:#dee4e8"/><stop offset=".71" style="stop-color:#f6f8f9"/><stop offset="1" style="stop-color:#fff"/></linearGradient><circle cx="18.933" cy="45.066" r="8.4" fill="url(#c)"/><linearGradient id="d" x1="18.933" x2="18.933" y1="29.201" y2="12.401" gradientUnits="userSpaceOnUse"><stop offset="0" style="stop-color:#cfd8dd"/><stop offset=".238" style="stop-color:#dee4e8"/><stop offset=".71" style="stop-color:#f6f8f9"/><stop offset="1" style="stop-color:#fff"/></linearGradient><circle cx="18.933" cy="20.8" r="8.4" fill="url(#d)"/><linearGradient id="e" x1="45.066" x2="45.066" y1="29.201" y2="12.401" gradientUnits="userSpaceOnUse"><stop offset="0" style="stop-color:#cfd8dd"/><stop offset=".238" style="stop-color:#dee4e8"/><stop offset=".71" style="stop-color:#f6f8f9"/><stop offset="1" style="stop-color:#fff"/></linearGradient><circle cx="45.067" cy="20.8" r="8.4" fill="url(#e)"/><linearGradient id="f" x1="18.935" x2="18.935" y1="28.033" y2="13.566" gradientUnits="userSpaceOnUse"><stop offset="0" style="stop-color:#1f1c26"/><stop offset=".266" style="stop-color:#221f29"/><stop offset=".486" style="stop-color:#2a2933"/><stop offset=".688" style="stop-color:#383b44"/><stop offset=".879" style="stop-color:#4b535b"/><stop offset="1" style="stop-color:#5b666e"/></linearGradient><circle cx="18.935" cy="20.8" r="7.233" fill="url(#f)"/><linearGradient id="g" x1="18.936" x2="18.936" y1="27.333" y2="14.267" gradientUnits="userSpaceOnUse"><stop offset="0" style="stop-color:#302c3b"/><stop offset=".378" style="stop-color:#454854"/><stop offset=".756" style="stop-color:#555e67"/><stop offset="1" style="stop-color:#5b666e"/></linearGradient><circle cx="18.936" cy="20.8" r="6.533" fill="url(#g)"/><linearGradient id="h" x1="18.935" x2="18.935" y1="13.279" y2="20.746" gradientUnits="userSpaceOnUse"><stop offset="0" style="stop-color:#cfd8dd"/><stop offset=".216" style="stop-color:#eaeef0"/><stop offset=".418" style="stop-color:#fff"/></linearGradient><path fill="url(#h)" d="M19.868 20.333a.469.469 0 0 1-.466.467h-.934a.467.467 0 0 1-.467-.467V13.8c0-.256.209-.467.467-.467h.934c.255 0 .466.21.466.467v6.533z"/><linearGradient id="i" x1="45.066" x2="45.066" y1="28.034" y2="13.566" gradientUnits="userSpaceOnUse"><stop offset="0" style="stop-color:#1f1c26"/><stop offset=".266" style="stop-color:#221f29"/><stop offset=".486" style="stop-color:#2a2933"/><stop offset=".688" style="stop-color:#383b44"/><stop offset=".879" style="stop-color:#4b535b"/><stop offset="1" style="stop-color:#5b666e"/></linearGradient><circle cx="45.066" cy="20.8" r="7.233" fill="url(#i)"/><linearGradient id="j" x1="45.066" x2="45.066" y1="27.334" y2="14.266" gradientUnits="userSpaceOnUse"><stop offset="0" style="stop-color:#302c3b"/><stop offset=".378" style="stop-color:#454854"/><stop offset=".756" style="stop-color:#555e67"/><stop offset="1" style="stop-color:#5b666e"/></linearGradient><circle cx="45.066" cy="20.8" r="6.533" fill="url(#j)"/><linearGradient id="k" x1="48.772" x2="45.101" y1="14.296" y2="20.821" gradientUnits="userSpaceOnUse"><stop offset="0" style="stop-color:#cfd8dd"/><stop offset=".216" style="stop-color:#eaeef0"/><stop offset=".418" style="stop-color:#fff"/></linearGradient><path fill="url(#k)" d="M46.107 20.863a.468.468 0 0 1-.638.17l-.808-.467a.468.468 0 0 1-.172-.637l3.268-5.657a.468.468 0 0 1 .638-.171l.808.467a.466.466 0 0 1 .171.637l-3.267 5.658z"/><linearGradient id="l" x1="45.066" x2="45.066" y1="52.3" y2="37.833" gradientUnits="userSpaceOnUse"><stop offset="0" style="stop-color:#1f1c26"/><stop offset=".266" style="stop-color:#221f29"/><stop offset=".486" style="stop-color:#2a2933"/><stop offset=".688" style="stop-color:#383b44"/><stop offset=".879" style="stop-color:#4b535b"/><stop offset="1" style="stop-color:#5b666e"/></linearGradient><circle cx="45.067" cy="45.066" r="7.233" fill="url(#l)"/><linearGradient id="m" x1="45.066" x2="45.066" y1="51.601" y2="38.532" gradientUnits="userSpaceOnUse"><stop offset="0" style="stop-color:#302c3b"/><stop offset=".378" style="stop-color:#454854"/><stop offset=".756" style="stop-color:#555e67"/><stop offset="1" style="stop-color:#5b666e"/></linearGradient><circle cx="45.066" cy="45.066" r="6.533" fill="url(#m)"/><linearGradient id="n" x1="38.614" x2="45.14" y1="41.304" y2="45.149" gradientUnits="userSpaceOnUse"><stop offset="0" style="stop-color:#cfd8dd"/><stop offset=".216" style="stop-color:#eaeef0"/><stop offset=".418" style="stop-color:#fff"/></linearGradient><path fill="url(#n)" d="M45.129 44.025a.468.468 0 0 1 .171.639l-.467.809a.468.468 0 0 1-.638.17l-5.656-3.267a.47.47 0 0 1-.172-.638l.467-.809a.47.47 0 0 1 .639-.171l5.656 3.267z"/><linearGradient id="o" x1="18.935" x2="18.935" y1="52.3" y2="37.833" gradientUnits="userSpaceOnUse"><stop offset="0" style="stop-color:#1f1c26"/><stop offset=".266" style="stop-color:#221f29"/><stop offset=".486" style="stop-color:#2a2933"/><stop offset=".688" style="stop-color:#383b44"/><stop offset=".879" style="stop-color:#4b535b"/><stop offset="1" style="stop-color:#5b666e"/></linearGradient><circle cx="18.936" cy="45.066" r="7.233" fill="url(#o)"/><linearGradient id="p" x1="18.936" x2="18.936" y1="51.6" y2="38.533" gradientUnits="userSpaceOnUse"><stop offset="0" style="stop-color:#302c3b"/><stop offset=".378" style="stop-color:#454854"/><stop offset=".756" style="stop-color:#555e67"/><stop offset="1" style="stop-color:#5b666e"/></linearGradient><circle cx="18.936" cy="45.066" r="6.533" fill="url(#p)"/><linearGradient id="q" x1="26.402" x2="19.046" y1="45.067" y2="45.067" gradientUnits="userSpaceOnUse"><stop offset="0" style="stop-color:#cfd8dd"/><stop offset=".216" style="stop-color:#eaeef0"/><stop offset=".418" style="stop-color:#fff"/></linearGradient><path fill="url(#q)" d="M19.402 46a.468.468 0 0 1-.467-.467V44.6c0-.256.209-.466.467-.466h6.533a.47.47 0 0 1 .467.466v.934a.47.47 0 0 1-.467.467h-6.533z"/><path fill="#6E8189" d="M53.149 25.467c.624-1.077 2.238-.145 1.617.934-.621 1.077-2.239.143-1.617-.934z"/><path fill="#A6E639" d="M35.367 15.2c.621-1.077 2.238-.145 1.617.934-.624 1.077-2.239.143-1.617-.934zm4.1-4.099c1.077-.622 2.011.994.934 1.616-1.079.622-2.011-.994-.934-1.616zM45.066 9.6c1.243 0 1.243 1.867 0 1.867s-1.243-1.867 0-1.867zm5.601 1.501c1.077.622.144 2.238-.934 1.616s-.143-2.238.934-1.616zM36.984 25.467c.621 1.077-.996 2.011-1.617.934-.622-1.079.993-2.011 1.617-.934z"/><path fill="#6E8189" d="M54.767 15.2c.621 1.077-.993 2.011-1.617.934-.623-1.078.995-2.011 1.617-.934z"/><path fill="#A6E639" d="M35.733 20.8c0 1.244-1.866 1.244-1.866 0s1.866-1.244 1.866 0z"/><path fill="#6E8189" d="M56.267 20.8c0 1.244-1.866 1.244-1.866 0s1.866-1.244 1.866 0zm-3.118 28.933c.624-1.079 2.238-.146 1.617.934-.621 1.075-2.239.142-1.617-.934z"/><path fill="#A6E639" d="M35.367 39.467c.621-1.079 2.238-.146 1.617.934-.624 1.075-2.239.141-1.617-.934z"/><path fill="#6E8189" d="M39.467 35.367c1.077-.622 2.011.993.934 1.616-1.079.621-2.011-.995-.934-1.616zm5.599-1.501c1.243 0 1.243 1.867 0 1.867s-1.243-1.867 0-1.867zm5.601 1.501c1.077.621.144 2.236-.934 1.616-1.077-.623-.143-2.238.934-1.616z"/><path fill="#A6E639" d="M36.984 49.733c.621 1.075-.996 2.009-1.617.934-.622-1.079.993-2.013 1.617-.934z"/><path fill="#6E8189" d="M54.767 39.467c.621 1.075-.993 2.009-1.617.934-.623-1.08.995-2.013 1.617-.934z"/><path fill="#A6E639" d="M35.733 45.066c0 1.243-1.866 1.243-1.866 0s1.866-1.243 1.866 0z"/><path fill="#6E8189" d="M56.267 45.066c0 1.243-1.866 1.243-1.866 0s1.866-1.243 1.866 0zm-29.249 4.667c.622-1.079 2.237-.146 1.615.934-.621 1.075-2.237.142-1.615-.934z"/><path fill="#A6E639" d="M9.235 39.467c.622-1.079 2.238-.146 1.617.934-.623 1.075-2.239.141-1.617-.934zm4.1-4.1c1.077-.622 2.011.993.934 1.616-1.078.621-2.011-.995-.934-1.616zm5.601-1.501c1.243 0 1.243 1.867 0 1.867-1.245 0-1.245-1.867 0-1.867zm5.599 1.501c1.077.621.145 2.236-.934 1.616-1.077-.623-.143-2.238.934-1.616zM10.853 49.733c.621 1.075-.995 2.009-1.617.934-.623-1.079.993-2.013 1.617-.934zm17.78-10.266c.622 1.075-.993 2.009-1.615.934-.622-1.08.994-2.013 1.615-.934zM9.602 45.066c0 1.243-1.866 1.243-1.866 0s1.866-1.243 1.866 0zm20.531 0c0 1.243-1.866 1.243-1.866 0s1.866-1.243 1.866 0z"/><path fill="#6E8189" d="M27.018 25.467c.62-1.077 2.237-.145 1.615.934-.623 1.077-2.237.143-1.615-.934z"/><path fill="#A6E639" d="M9.235 15.2c.622-1.077 2.238-.145 1.617.934-.623 1.077-2.239.143-1.617-.934zm4.1-4.099c1.077-.622 2.011.994.934 1.616s-2.011-.994-.934-1.616zM18.936 9.6c1.243 0 1.243 1.867 0 1.867-1.246 0-1.246-1.867 0-1.867z"/><path fill="#6E8189" d="M24.535 11.101c1.077.622.145 2.238-.934 1.616-1.077-.622-.143-2.238.934-1.616z"/><path fill="#A6E639" d="M10.853 25.467c.621 1.077-.995 2.011-1.617.934-.623-1.079.993-2.011 1.617-.934z"/><path fill="#6E8189" d="M28.633 15.2c.622 1.077-.995 2.011-1.615.934-.622-1.078.992-2.011 1.615-.934z"/><path fill="#A6E639" d="M9.602 20.8c0 1.244-1.866 1.244-1.866 0s1.866-1.244 1.866 0z"/><path fill="#6E8189" d="M30.133 20.8c0 1.244-1.866 1.244-1.866 0s1.866-1.244 1.866 0z"/></svg>