<svg xmlns="http://www.w3.org/2000/svg" xml:space="preserve" style="enable-background:new 0 0 64 64" viewBox="0 0 64 64"><linearGradient id="a" x1="2" x2="62" y1="62" y2="2" gradientUnits="userSpaceOnUse"><stop offset=".406" style="stop-color:#013366"/><stop offset="1" style="stop-color:#006dae"/></linearGradient><path d="M2 2h60v60H2z" style="fill:url(#a)"/><radialGradient id="b" cx="52.089" cy="11.027" r="9" gradientUnits="userSpaceOnUse"><stop offset="0" style="stop-color:#ffe8bb"/><stop offset=".494" style="stop-color:#ffe9bd"/><stop offset=".707" style="stop-color:#ffebc4"/><stop offset=".865" style="stop-color:#fff0d1"/><stop offset=".996" style="stop-color:#fff6e2"/><stop offset="1" style="stop-color:#fff6e3"/></radialGradient><circle cx="50" cy="14" r="9" style="fill:url(#b)"/><path d="M39.66 42.7c1.67-8.02 11.06-8.02 12.73 0 1.87 8.97-14.6 8.97-12.73 0z" style="fill:#d9c8bf"/><radialGradient id="c" cx="638.086" cy="32.781" r="3.589" gradientTransform="matrix(-1 0 0 1 684.686 0)" gradientUnits="userSpaceOnUse"><stop offset=".497" style="stop-color:#f5e8da"/><stop offset=".67" style="stop-color:#f1e3d6"/><stop offset=".875" style="stop-color:#e6d5cb"/><stop offset=".915" style="stop-color:#e3d1c8"/></radialGradient><path d="M48.55 36.07c-3.39 3.36-8.3-1.71-5.03-4.94 3.47-3.43 8.27 1.74 5.03 4.94z" style="fill:url(#c)"/><radialGradient id="d" cx="634.498" cy="38.523" r="3.588" gradientTransform="matrix(-1 0 0 1 684.686 0)" gradientUnits="userSpaceOnUse"><stop offset=".497" style="stop-color:#f5e8da"/><stop offset=".67" style="stop-color:#f1e3d6"/><stop offset=".875" style="stop-color:#e6d5cb"/><stop offset=".915" style="stop-color:#e3d1c8"/></radialGradient><path d="M52.14 41.81c-3.39 3.36-8.3-1.71-5.03-4.94 3.47-3.42 8.27 1.74 5.03 4.94z" style="fill:url(#d)"/><radialGradient id="e" cx="641.674" cy="38.523" r="3.588" gradientTransform="matrix(-1 0 0 1 684.686 0)" gradientUnits="userSpaceOnUse"><stop offset=".497" style="stop-color:#f5e8da"/><stop offset=".67" style="stop-color:#f1e3d6"/><stop offset=".875" style="stop-color:#e6d5cb"/><stop offset=".915" style="stop-color:#e3d1c8"/></radialGradient><path d="M44.97 41.81c-3.4 3.36-8.3-1.71-5.03-4.94 3.46-3.42 8.26 1.74 5.03 4.94z" style="fill:url(#e)"/><radialGradient id="f" cx="645.263" cy="44.263" r="3.588" gradientTransform="matrix(-1 0 0 1 684.686 0)" gradientUnits="userSpaceOnUse"><stop offset=".497" style="stop-color:#f5e8da"/><stop offset=".67" style="stop-color:#f1e3d6"/><stop offset=".875" style="stop-color:#e6d5cb"/><stop offset=".915" style="stop-color:#e3d1c8"/></radialGradient><path d="M41.38 47.55c-3.39 3.36-8.3-1.71-5.03-4.94 3.46-3.42 8.27 1.74 5.03 4.94z" style="fill:url(#f)"/><radialGradient id="g" cx="638.101" cy="44.263" r="3.589" gradientTransform="matrix(-1 0 0 1 684.686 0)" gradientUnits="userSpaceOnUse"><stop offset=".497" style="stop-color:#f5e8da"/><stop offset=".67" style="stop-color:#f1e3d6"/><stop offset=".875" style="stop-color:#e6d5cb"/><stop offset=".915" style="stop-color:#e3d1c8"/></radialGradient><path d="M48.54 47.55c-3.4 3.36-8.3-1.71-5.03-4.94 3.46-3.42 8.27 1.74 5.03 4.94z" style="fill:url(#g)"/><radialGradient id="h" cx="630.909" cy="44.264" r="3.588" gradientTransform="matrix(-1 0 0 1 684.686 0)" gradientUnits="userSpaceOnUse"><stop offset=".497" style="stop-color:#f5e8da"/><stop offset=".67" style="stop-color:#f1e3d6"/><stop offset=".875" style="stop-color:#e6d5cb"/><stop offset=".915" style="stop-color:#e3d1c8"/></radialGradient><path d="M55.73 47.55c-3.4 3.36-8.3-1.71-5.03-4.94 3.47-3.42 8.27 1.74 5.03 4.94z" style="fill:url(#h)"/><linearGradient id="i" x1="46.024" x2="46.024" y1="62" y2="51.545" gradientUnits="userSpaceOnUse"><stop offset="0" style="stop-color:#db9442"/><stop offset=".395" style="stop-color:#cf843d"/><stop offset="1" style="stop-color:#b86432"/></linearGradient><path d="M55.35 51.54V62H36.7V51.54z" style="fill:url(#i)"/><linearGradient id="j" x1="33.823" x2="58.226" y1="49.392" y2="49.392" gradientUnits="userSpaceOnUse"><stop offset="0" style="stop-color:#db9442"/><stop offset=".395" style="stop-color:#cf843d"/><stop offset="1" style="stop-color:#b86432"/></linearGradient><path d="M33.82 47.24h24.4v4.31h-24.4z" style="fill:url(#j)"/><path d="M44.59 55.54c0-2.23 2.87-2.23 2.87 0 .83.11 1.44.5 1.44 1.44 0 3.74-5.74 3.74-5.74 0-.01-.94.6-1.33 1.43-1.44z" style="fill:#1a1626"/><path d="M9.93 24.27S3.66 42 4.96 62H3c0-22.9 6.93-37.73 6.93-37.73z" style="fill:#7ab51d"/><path d="M21.29 53.1S6.76 42 8.06 62H6.09c0-22.9 15.2-8.9 15.2-8.9z" style="fill:#529320"/><path d="M9.97 46.3c-.13-.89-2.02.86-3.77 7.95.43-15.53 2.52-17.97 1.99-17.64-1.38.85-4.01 7.49-3.31 25.39h2.14c.34-14.33 3.18-14.22 2.95-15.7z" style="fill:#96c908"/><path d="M6.56 40.38c.97.52 3.38-1.91 2.07-1.97.19-1.2-2.23.82-2.07 1.97z" style="fill:#ffe12c"/><path d="M8.33 38.63c.97.52 3.38-1.91 2.07-1.97.18-1.21-2.23.81-2.07 1.97z" style="fill:#f9c802"/><path d="M8.97 36.63c1.08.1 2.49-3.12 1.24-2.65-.23-1.2-1.78 1.64-1.24 2.65zm1.91-4.13c1.08.1 2.49-3.12 1.24-2.65-.24-1.2-1.78 1.64-1.24 2.65zm3.06-3.64c1.02.4 3.16-2.31 1.84-2.21.06-1.22-2.12 1.09-1.84 2.21zm5.91-3.39c1.02.4 3.16-2.31 1.84-2.21.06-1.22-2.12 1.09-1.84 2.21z" style="fill:#f9c802"/><path d="M12.79 30.7c.87.7 3.65-1.22 2.36-1.54.39-1.15-2.33.38-2.36 1.54zm3.78-2.8c.87.7 3.65-1.22 2.36-1.54.38-1.15-2.33.38-2.36 1.54zm8.75-3.53c.46 1.06 3.76.76 2.76-.17.85-.82-2.22-.83-2.76.17zm-2.35.24c.86.7 3.64-1.22 2.36-1.54.39-1.15-2.32.38-2.36 1.54zm-12.3 11.36c.97.52 3.38-1.91 2.07-1.97.19-1.21-2.23.82-2.07 1.97z" style="fill:#f9c802"/><path d="M10.25 34.55c.97.52 3.38-1.91 2.07-1.97.18-1.2-2.23.82-2.07 1.97zm10.32-8.96c.71.89 3.81-.33 2.62-.95.62-1.03-2.34-.18-2.62.95zm-6.31 7.12c.97.52 3.38-1.91 2.07-1.97.19-1.21-2.23.82-2.07 1.97zm3.18-1.22c.75.85 3.79-.56 2.57-1.1.56-1.06-2.36-.04-2.57 1.1zm-1.65-4.02c.97.52 3.38-1.91 2.06-1.97.19-1.2-2.22.83-2.06 1.97zm-5.5 10.16c.97.52 3.38-1.91 2.07-1.97.19-1.2-2.23.83-2.07 1.97z" style="fill:#ffea66"/><path d="M13.69 34.34c.97.52 3.38-1.91 2.07-1.97.19-1.21-2.23.83-2.07 1.97zm3.18-3.25c.97.52 3.38-1.91 2.07-1.97.19-1.2-2.23.83-2.07 1.97zm3.75-1.85c.79.8 3.75-.8 2.5-1.27.5-1.09-2.35.12-2.5 1.27z" style="fill:#f9c802"/><path d="M24.04 28.4c.51 1.03 3.79.54 2.75-.33.79-.86-2.26-.7-2.75.33z" style="fill:#ffea66"/><path d="M26.36 28.1c.51 1.03 3.79.54 2.75-.33.8-.87-2.26-.71-2.75.33zM9.24 37.3c.97.52 3.38-1.91 2.07-1.97.18-1.21-2.23.82-2.07 1.97zm2.21-4.59c.97.52 3.39-1.91 2.07-1.97.18-1.21-2.23.82-2.07 1.97zm3.01-3.42c.82.77 3.72-.94 2.46-1.35.46-1.12-2.35.2-2.46 1.35z" style="fill:#ffe12c"/><path d="M11.9 35.71c.83.75 3.71-1 2.44-1.39.45-1.12-2.35.24-2.44 1.39zm3.43-2.9c.83.76 3.71-1 2.44-1.39.45-1.12-2.34.23-2.44 1.39zm-7.9 5.65c1.04.32 2.99-2.56 1.68-2.36-.02-1.22-2.03 1.27-1.68 2.36zm2.7-3.92c1.08-.1 1.95-3.54.8-2.85-.43-1.13-1.5 1.96-.8 2.85zm2.24-3.91c1.05.31 2.99-2.56 1.68-2.36-.03-1.22-2.04 1.27-1.68 2.36zm5.38-4.39c.94.59 3.49-1.68 2.18-1.83.26-1.19-2.27.68-2.18 1.83zm.92 4c.94.59 3.49-1.68 2.18-1.83.26-1.19-2.27.67-2.18 1.83z" style="fill:#ffe12c"/><path d="M18.79 26.32c.66.93 3.82-.13 2.66-.8.66-.99-2.33-.31-2.66.8zm.88 3.94c.66.93 3.82-.13 2.66-.8.67-1-2.33-.31-2.66.8zm3.54-5.11c.66.93 3.82-.13 2.66-.8.66-1-2.33-.31-2.66.8z" style="fill:#ffe12c"/><path d="M22.11 28.88c.36 1.1 3.67 1.14 2.76.12.91-.74-2.14-1.07-2.76-.12z" style="fill:#ffe12c"/><path d="M25.04 27.36c.61.97 3.82.1 2.7-.64.71-.95-2.32-.44-2.7.64z" style="fill:#f9c802"/><path d="M21.34 24.49c.81.78 3.73-.9 2.47-1.32.47-1.12-2.35.16-2.47 1.32zm4.08-.74c.81.78 3.73-.9 2.48-1.32.47-1.12-2.36.17-2.48 1.32z" style="fill:#ffe12c"/><path d="M27.22 23.59c.43 1.07 3.73.89 2.76-.07.88-.79-2.19-.92-2.76.07zM12.54 34.12c1.05.31 2.99-2.56 1.68-2.36-.03-1.22-2.04 1.26-1.68 2.36zm3.28-2.42c1.05.32 2.99-2.56 1.68-2.36-.03-1.22-2.04 1.26-1.68 2.36zm6.91-3.41c.81.78 3.73-.9 2.47-1.32.47-1.12-2.35.16-2.47 1.32z" style="fill:#ffe12c"/><path d="M9.02 48.43c.97.54 3.4-1.88 2.09-1.95.2-1.2-2.24.8-2.09 1.95z" style="fill:#f9c802"/><path d="M9.69 46.41c1.08.11 2.52-3.09 1.27-2.64-.23-1.2-1.81 1.63-1.27 2.64zm1.94-4.11c1.08.11 2.52-3.09 1.27-2.64-.23-1.19-1.8 1.63-1.27 2.64zm3.1-3.6c1.02.41 3.18-2.28 1.87-2.19.07-1.22-2.14 1.07-1.87 2.19zm5.94-3.32c1.02.41 3.18-2.28 1.86-2.19.07-1.23-2.13 1.06-1.86 2.19z" style="fill:#f9c802"/><path d="M13.56 40.52c.86.71 3.66-1.18 2.38-1.51.39-1.14-2.34.36-2.38 1.51zm3.8-2.75c.86.71 3.66-1.18 2.38-1.51.4-1.15-2.33.35-2.38 1.51zm8.79-3.43c.45 1.06 3.75.8 2.76-.14.86-.81-2.21-.86-2.76.14zm-2.35.21c.86.71 3.66-1.18 2.38-1.51.4-1.15-2.33.35-2.38 1.51zM11.39 45.77c.97.53 3.4-1.88 2.09-1.95.2-1.2-2.23.8-2.09 1.95z" style="fill:#f9c802"/><path d="M10.98 44.35c.97.53 3.4-1.88 2.09-1.95.2-1.2-2.24.8-2.09 1.95zm10.41-8.85c.7.9 3.81-.29 2.63-.91.63-1.03-2.34-.21-2.63.91zm-6.38 7.05c.97.53 3.4-1.88 2.09-1.95.2-1.2-2.23.8-2.09 1.95zm3.19-1.18c.74.86 3.79-.51 2.58-1.07.57-1.06-2.35-.07-2.58 1.07zm-1.61-4.03c.97.53 3.4-1.88 2.09-1.95.19-1.21-2.24.79-2.09 1.95zM11 47.43c.97.53 3.4-1.88 2.09-1.95.19-1.2-2.24.8-2.09 1.95z" style="fill:#ffea66"/><path d="M14.43 44.18c.97.53 3.4-1.88 2.09-1.95.19-1.2-2.24.8-2.09 1.95zm3.21-3.21c.97.53 3.4-1.88 2.09-1.95.19-1.21-2.24.8-2.09 1.95zm3.76-1.82c.79.8 3.76-.76 2.51-1.24.51-1.09-2.35.09-2.51 1.24z" style="fill:#f9c802"/><path d="M24.83 38.36c.5 1.03 3.78.58 2.75-.3.81-.86-2.25-.74-2.75.3z" style="fill:#ffea66"/><path d="M27.16 38.08c.5 1.04 3.78.58 2.75-.3.81-.86-2.26-.74-2.75.3zM9.94 47.09c.97.53 3.4-1.88 2.09-1.95.2-1.21-2.24.8-2.09 1.95zm2.26-4.57c.97.53 3.4-1.88 2.09-1.95.2-1.2-2.24.8-2.09 1.95zm3.05-3.39c.81.78 3.73-.9 2.47-1.32.47-1.11-2.35.17-2.47 1.32z" style="fill:#ffe12c"/><path d="M12.62 45.53c.82.76 3.72-.96 2.45-1.37.46-1.11-2.34.22-2.45 1.37zm3.46-2.86c.82.76 3.72-.96 2.46-1.36.46-1.12-2.35.2-2.46 1.36zm-7.76 5.34c1.04.33 3.01-2.53 1.7-2.34-.01-1.22-2.05 1.24-1.7 2.34zm2.54-3.67c1.08-.09 1.98-3.52.82-2.84-.41-1.13-1.51 1.94-.82 2.84zm2.28-3.89c1.04.33 3.01-2.53 1.71-2.34-.02-1.22-2.06 1.24-1.71 2.34zm5.42-4.32c.93.6 3.51-1.64 2.2-1.8.27-1.2-2.28.64-2.2 1.8zm.89 4c.93.6 3.5-1.64 2.2-1.8.27-1.19-2.28.64-2.2 1.8z" style="fill:#ffe12c"/><path d="M19.6 36.21c.65.94 3.82-.08 2.67-.77.67-.98-2.33-.33-2.67.77zm.85 3.95c.65.93 3.82-.08 2.67-.77.67-.99-2.33-.33-2.67.77zm3.59-5.07c.65.94 3.82-.08 2.67-.77.67-.99-2.34-.33-2.67.77z" style="fill:#ffe12c"/><path d="M22.89 38.8c.35 1.11 3.66 1.18 2.76.15.92-.72-2.12-1.09-2.76-.15z" style="fill:#ffe12c"/><path d="M25.84 37.33c.6.97 3.82.14 2.71-.61.72-.95-2.32-.48-2.71.61z" style="fill:#f9c802"/><path d="M22.17 34.41c.81.79 3.74-.85 2.49-1.3.48-1.1-2.36.15-2.49 1.3zm4.09-.69c.8.79 3.74-.85 2.49-1.29.48-1.12-2.36.14-2.49 1.29z" style="fill:#ffe12c"/><path d="M28.07 33.57c.41 1.08 3.72.94 2.76-.04.88-.77-2.19-.94-2.76.04zm-14.8 10.37c1.04.33 3.01-2.53 1.71-2.34-.02-1.22-2.05 1.24-1.71 2.34zm3.31-2.38c1.04.33 3.01-2.53 1.7-2.34-.01-1.22-2.05 1.24-1.7 2.34zm6.94-3.33c.8.78 3.74-.86 2.49-1.3.48-1.11-2.35.14-2.49 1.3z" style="fill:#ffe12c"/><path d="M28.27 57.43c.88 0 .88-1.31 0-1.31s-.88 1.31 0 1.31zm-5.61-43.26c.88 0 .88-1.31 0-1.31-.87 0-.87 1.32 0 1.31zM5.62 24.26c.88 0 .88-1.31 0-1.32-.88.01-.88 1.32 0 1.32zM58.23 6.05c.88 0 .88-1.32 0-1.32s-.88 1.32 0 1.32zm-6.86 25.12c.88 0 .88-1.31 0-1.31s-.88 1.31 0 1.31zm-14.89-4.45c.58 0 .58-.88 0-.88s-.58.88 0 .88zM10.59 3.85c.58 0 .59-.88 0-.88-.59.01-.59.88 0 .88zM21.35 9.5c.59 0 .59-.88 0-.88s-.59.88 0 .88zm-4.74 10.64c.59 0 .58-.88 0-.88s-.58.88 0 .88zm43.17 13.81c.58 0 .58-.88 0-.88-.59.01-.59.88 0 .88zm-25.71.3c.88 0 .88-1.32 0-1.32s-.88 1.32 0 1.32zM4.31 13.34c.88 0 .88-1.32 0-1.32-.88.01-.88 1.32 0 1.32zm28.44 5.22c.58 0 .58-.87 0-.88-.58.01-.58.88 0 .88zm4.17-13.83c.58 0 .58-.88 0-.88-.59.01-.59.88 0 .88zm-25.23 7.73c.58 0 .58-.88 0-.88-.59.01-.59.88 0 .88zM25.42 49.3c.58 0 .58-.88 0-.88-.59.01-.59.88 0 .88zM31 9.94c.61 0 .61-.88 0-.88s-.61.88 0 .88zm6.14 28.4c.58 0 .59-.88 0-.88s-.59.88 0 .88z" style="opacity:.7;fill:#fff"/></svg>