<svg xmlns="http://www.w3.org/2000/svg" xml:space="preserve" viewBox="0 0 64 64"><radialGradient id="a" cx="66.494" cy="5.999" r="7.767" gradientTransform="matrix(1.0591 0 0 1.875 -38.425 -3.624)" gradientUnits="userSpaceOnUse"><stop offset="0" style="stop-color:#ffb300"/><stop offset=".381" style="stop-color:#fdab00"/><stop offset=".968" style="stop-color:#f79500"/><stop offset="1" style="stop-color:#f79400"/></radialGradient><path fill="url(#a)" d="M32.003 2c-11.698 0-9.637 11.197-9.563 11.248.214-4.585 18.904-4.585 19.118 0C41.634 13.197 43.7 2 32.003 2z"/><linearGradient id="b" x1="17.337" x2="46.297" y1="59.794" y2="9.634" gradientUnits="userSpaceOnUse"><stop offset="0" style="stop-color:#ffc800"/><stop offset=".334" style="stop-color:#ffc304"/><stop offset=".705" style="stop-color:#ffb611"/><stop offset="1" style="stop-color:#ffa621"/></linearGradient><path fill="url(#b)" d="m13 52.5 8.159 9.5c9.881-15.799 20.848-26.012 23.459-37.016 1.849-7.787-.924-11.37-3.888-18.564C44.309 14.374 26.896 29.668 13 52.5z"/><linearGradient id="c" x1="20.379" x2="45.157" y1="14.267" y2="57.184" gradientUnits="userSpaceOnUse"><stop offset="0" style="stop-color:#ffa621"/><stop offset=".134" style="stop-color:#ffb814"/><stop offset=".308" style="stop-color:#ffc809"/><stop offset=".504" style="stop-color:#ffd202"/><stop offset=".764" style="stop-color:#ffd500"/></linearGradient><path fill="url(#c)" d="M51 52.5 42.841 62C32.96 46.201 21.994 35.988 19.382 24.984c-1.849-7.787.924-11.37 3.887-18.564C19.692 14.374 37.104 29.668 51 52.5z"/></svg>