<svg xmlns="http://www.w3.org/2000/svg" xml:space="preserve" style="enable-background:new 0 0 64 64" viewBox="0 0 64 64"><linearGradient id="a" x1="2" x2="62" y1="32" y2="32" gradientUnits="userSpaceOnUse"><stop offset="0" style="stop-color:#423b33"/><stop offset=".166" style="stop-color:#474139"/><stop offset=".395" style="stop-color:#54504b"/><stop offset=".576" style="stop-color:#63615e"/><stop offset="1" style="stop-color:#423b33"/></linearGradient><path d="M2 7v8.101c0-.078 12 13.162 0 25.462v8.103C22 48.666 42 57 62 57v-8.103c-12-13.16 0-25.383 0-25.463v-8.101C42 15.333 22 7 2 7z" style="fill:url(#a)"/><path d="M13.5 15.902c-3.833-.495-7.667-.8-11.5-.8v25.461c3.833 0 7.667.307 11.5.802.274.035.5-.194.5-.513V16.547c0-.317-.227-.609-.5-.645z" style="fill:#989a94"/><path d="M50.5 22.634c-.274-.034-.5.195-.5.512v24.306c-.001.319.226.61.5.646 3.833.495 7.667.8 11.5.8V23.433c-3.834 0-7.667-.305-11.5-.8z" style="fill:#c3c6be"/><linearGradient id="b" x1="18" x2="46" y1="32" y2="32" gradientUnits="userSpaceOnUse"><stop offset="0" style="stop-color:#989a94"/><stop offset=".123" style="stop-color:#afb1aa"/><stop offset=".334" style="stop-color:#d1d1cb"/><stop offset=".508" style="stop-color:#e5e6df"/><stop offset=".624" style="stop-color:#edede6"/></linearGradient><path d="M46 46.857c0 .319-.226.54-.5.497-9-1.496-18-3.752-27-5.246-.275-.047-.5-.341-.5-.66V17.141c-.002-.319.225-.542.5-.497 9 1.496 18 3.75 27 5.246.274.044.499.341.5.66v24.306z" style="fill:url(#b)"/><path d="M26.5 45.913c-.667-.135-1.334-.266-2-.398-.55-.107-1.001.329-1 .964v1.158c0 .638.45 1.244 1 1.351.667.13 1.333.263 2 .397.55.11 1-.317 1-.955v-1.16c-.001-.632-.45-1.247-1-1.358zM20 44.68c-.667-.118-1.333-.23-2-.34-.55-.09-1 .364-1 .998v1.157c0 .64.45 1.23 1 1.317.667.11 1.333.222 2 .34.55.096 1-.344 1-.98v-1.157c0-.637-.451-1.239-1-1.335zm0-33.565c-.667-.117-1.333-.23-2-.34-.55-.089-1 .364-1 .998v1.159c0 .637.45 1.225 1 1.316.667.11 1.333.222 2 .339.55.095 1-.343 1-.98V12.45c0-.636-.451-1.236-1-1.334zm6.5 1.233c-.667-.133-1.334-.267-2-.396-.55-.108-1.001.327-1 .962v1.158c0 .637.45 1.245 1 1.35.667.133 1.333.263 2 .397.55.113 1-.315 1-.955v-1.157c-.001-.634-.45-1.247-1-1.36zM7 9.478a86.11 86.11 0 0 0-2-.104c-.55-.02-1 .488-1 1.125v1.157c0 .638.45 1.17 1 1.192.667.026 1.333.06 2 .102.55.035 1-.45 1-1.088v-1.157c-.001-.636-.45-1.191-1-1.227zm6.5.638c-.667-.087-1.333-.166-2-.241-.549-.062-1 .415-1 1.052v1.156c0 .638.45 1.202 1 1.264.667.074 1.333.155 2 .24.549.071.999-.385 1-1.023v-1.158c0-.636-.45-1.219-1-1.29zM33 47.255c-.667-.139-1.333-.28-2-.417-.55-.117-1 .314-1 .95v1.157c0 .637.45 1.247 1 1.365l2 .416c.549.115 1-.312 1-.95V48.62c0-.635-.451-1.25-1-1.364zM13.5 43.68a126.14 126.14 0 0 0-2-.24c-.549-.062-1 .415-1 1.051v1.157c0 .636.45 1.205 1 1.263.667.075 1.333.155 2 .241.549.073.999-.385 1-1.024V44.97c0-.635-.45-1.218-1-1.29zM7 43.043a80.9 80.9 0 0 0-2-.104c-.55-.022-1 .489-1 1.124v1.158c0 .638.45 1.17 1 1.191.667.025 1.333.062 2 .104.55.035 1-.45 1-1.088V44.27c-.001-.634-.45-1.193-1-1.227zm52 8.108a80.647 80.647 0 0 1-2-.103c-.55-.033-1 .452-1 1.09v1.156c-.001.638.451 1.19 1 1.227.667.041 1.333.077 2 .103.55.022 1-.486 1-1.124v-1.158c0-.634-.451-1.167-1-1.19zm-6.5-.499c-.667-.074-1.333-.155-2-.24-.55-.071-1 .388-1 1.023v1.157c0 .64.451 1.22 1 1.292.667.086 1.333.166 2 .24.55.06 1-.412 1-1.052v-1.157c0-.636-.45-1.2-1-1.263zm0-33.565a99.44 99.44 0 0 1-2-.24c-.55-.07-1 .39-1 1.023v1.157c0 .637.451 1.223 1 1.291.667.087 1.333.167 2 .241.55.06 1-.41 1-1.051V18.35c0-.636-.45-1.2-1-1.263zm6.5.5a85.817 85.817 0 0 1-2-.104c-.55-.033-1 .452-1 1.09v1.156c-.001.638.451 1.19 1 1.227.667.042 1.333.078 2 .103.55.022 1-.487 1-1.124v-1.158c0-.636-.451-1.17-1-1.19zm-13-1.401c-.667-.108-1.334-.222-2-.338-.549-.096-1 .343-1 .978v1.158c0 .636.45 1.241 1 1.336.667.116 1.333.23 2 .338.55.089 1-.36 1-.997v-1.16c0-.635-.451-1.226-1-1.316zm-6.5-1.176c-.667-.128-1.333-.262-2-.396-.55-.113-1 .32-1 .955v1.157c0 .64.45 1.249 1 1.36.667.133 1.333.267 2 .397.55.108 1-.327 1-.963v-1.16c-.001-.636-.45-1.244-1-1.35zM33 13.69l-2-.418c-.55-.115-1 .316-1 .952v1.156c0 .638.45 1.25 1 1.365l2 .416c.549.114 1-.31 1-.95v-1.156c0-.635-.451-1.251-1-1.366zm6.5 34.885c-.667-.13-1.333-.263-2-.396-.55-.112-1 .317-1 .956v1.156c0 .638.45 1.252 1 1.36.667.133 1.333.267 2 .396.55.107 1-.326 1-.963v-1.158c-.001-.635-.45-1.242-1-1.35zM46 49.75a124.53 124.53 0 0 1-2-.338c-.549-.094-1 .343-1 .98v1.157c0 .635.45 1.24 1 1.336.667.116 1.333.23 2 .339.55.088 1-.36 1-1v-1.157c0-.635-.451-1.226-1-1.316z" style="fill:#fff"/></svg>