<svg xmlns="http://www.w3.org/2000/svg" xml:space="preserve" style="enable-background:new 0 0 64 64" viewBox="0 0 64 64"><path d="M17.55 2h1.09v6.23h-1.09z" style="fill:#b3c2c6"/><linearGradient id="a" x1="15.276" x2="20.918" y1="7.479" y2="7.479" gradientUnits="userSpaceOnUse"><stop offset="0" style="stop-color:#e6ebef"/><stop offset="1" style="stop-color:#c5d7e8"/></linearGradient><path d="M15.28 7.48c0 3.79 5.64 3.79 5.64 0 0-3.78-5.64-3.78-5.64 0z" style="fill:url(#a)"/><linearGradient id="b" x1="2" x2="34.241" y1="74.968" y2="74.968" gradientTransform="matrix(1 0 0 .8109 0 -38.225)" gradientUnits="userSpaceOnUse"><stop offset="0" style="stop-color:#e6ebef"/><stop offset="1" style="stop-color:#c5d7e8"/></linearGradient><path d="M32.92 17.24c-3.82-9.62-14.86-9-14.86-9s-11.05-.62-14.86 9c-3.82 9.63 2.71 18.61 2.71 18.61.07.58 5.68 1.05 12.58 1.05s12.5-.47 12.57-1.05h.02s5.66-8.98 1.84-18.61z" style="fill:url(#b)"/><radialGradient id="c" cx="82.492" cy="54.28" r="13.91" gradientTransform="matrix(.932 .0681 -.096 .9152 -26.148 -2.33)" gradientUnits="userSpaceOnUse"><stop offset="0" style="stop-color:#ecf1f5"/><stop offset=".396" style="stop-color:#e9eef2"/><stop offset=".722" style="stop-color:#dfe5ea"/><stop offset="1" style="stop-color:#cfd8dd"/></radialGradient><path d="M29.23 53.57s7.71 6.71 17.93 8.17c2.15.31 9.87-.5 11.11-2.09 1.94-2.48 3.73-9.01 3.73-9.01-20.32.19-27.2-7.11-27.2-7.11l-5.57 10.04z" style="fill:url(#c)"/><path d="M34.28 49.26c0 1.35-2.01 1.35-2.01 0s2.01-1.35 2.01 0z" style="fill:#99a8ae"/><path d="M46.88 57.87c0 1.35-2.01 1.35-2.01 0s2.01-1.35 2.01 0zm3.62-3.19c0 1.04-1.55 1.04-1.55 0s1.55-1.04 1.55 0zm1.64 4.33c0 1.52-2.27 1.52-2.27 0 .01-1.52 2.27-1.52 2.27 0z" style="fill:#006dae"/><path d="M33.31 48.91c-6.97-.62-9.99-5.71-10.8-7.39h-.77c.68 1.56 3.75 7.39 11.51 8.09.37.04.48-.66.06-.7z" style="fill:#6e8189"/><path d="m22.78 39.82-1.86.17-1.26-10.39 1.87-.17z" style="opacity:.6;fill:#b3c2c6"/><path d="m22.15 39.88-.6.06-3.73-31.68.6-.06z" style="fill:#b3c2c6"/><linearGradient id="d" x1="20.049" x2="23.808" y1="41.07" y2="41.07" gradientUnits="userSpaceOnUse"><stop offset="0" style="stop-color:#e6ebef"/><stop offset="1" style="stop-color:#c5d7e8"/></linearGradient><path d="M23.81 41.07c0 2.52-3.76 2.52-3.76 0s3.76-2.52 3.76 0z" style="fill:url(#d)"/><path d="M59.28 53.2c0 1.35-2.01 1.35-2.01 0-.01-1.36 2.01-1.36 2.01 0zm-2.54 6.55c0 1.03-1.55 1.03-1.55 0 .01-1.04 1.55-1.04 1.55 0zM53.3 52c0 .54-.81.54-.81 0 .01-.55.81-.55.81 0zm2.67 3.99c0 2.06-3.07 2.06-3.07 0s3.07-2.06 3.07 0z" style="fill:#006dae"/><path d="M47.16 61.74c4 .68 9.98.07 11.11-2.09-1.32 1.07-4.68.18-4.68.18-1.46 2.35-4.91 1.97-6.43 1.91z" style="fill:#b3c2c6"/><path d="M8.89 27.34c-2.73.14-6.74 4.93-3.04 6.24 2.49 2.68 3.91-2.99 3.04-6.24z" style="opacity:.5;fill:#ffabcc"/><path d="M8.92 27.35c-2.25-3.89-7.03-5.07-5.84-.02-.34 4.07 4.19 2.64 5.84.02z" style="opacity:.5;fill:#ffabcc"/><path d="M8.78 27.39c-3.08-2.36-5.12-9.06-.1-8.47 6.61-.64 2.88 6.05.1 8.47z" style="opacity:.5;fill:#ffabcc"/><path d="M8.8 27.35c1.46-3.17 9.03-6.03 7.8-1.38 1.51 3.89-4.92 3.55-7.8 1.38z" style="opacity:.5;fill:#ffabcc"/><path d="M8.8 27.36c3.74.08 10.11 5.58 4.69 7-4.11 3.31-5.81-3.01-4.69-7z" style="opacity:.5;fill:#ffabcc"/><path d="M8.5 27.26c-.82 1.27-2.28 3.68-2.14 3.84.18.2 1.46-1.73 2.14-3.84z" style="opacity:.5;fill:#ed74a4"/><path d="M8.53 27.28c-1.45-.08-4.15-.16-4.19.04-.06.27 2.17.43 4.19-.04z" style="opacity:.5;fill:#ed74a4"/><path d="M8.49 27.28c-.09-1.57-.19-4.5 0-4.54.24-.06.41 2.35 0 4.54zm.01-.01c1.4-.37 4.02-.98 4.11-.78.11.24-2.03.85-4.11.78z" style="opacity:.5;fill:#ed74a4"/><path d="M8.51 27.25c.91 1.25 2.55 3.63 2.42 3.79-.16.21-1.59-1.7-2.42-3.79zm-.24.03c-1.14-.92-3.32-2.58-3.47-2.44-.18.19 1.56 1.64 3.47 2.44zm-.03-.03c.79-1.34 2.33-3.8 2.52-3.73.23.1-.96 2.18-2.52 3.73z" style="opacity:.5;fill:#ed74a4"/><path d="M8.26 27.25c1.35.52 3.84 1.57 3.81 1.78-.05.27-2.14-.5-3.81-1.78z" style="opacity:.5;fill:#ed74a4"/><path d="M8.27 27.24c.05 1.56.08 4.48-.11 4.54-.25.07-.36-2.33.11-4.54z" style="opacity:.5;fill:#ed74a4"/><path d="M7.96 28.43c-.02.66-.98.62-.96-.04.03-.66.99-.62.96.04z" style="opacity:.5;fill:#fabf49"/><path d="M8.2 27.37c-.04.99-1.48.94-1.44-.06.04-.99 1.48-.93 1.44.06z" style="opacity:.5;fill:#ffd582"/><path d="M10.08 26.78c-.04.99-1.48.94-1.44-.06.04-.99 1.48-.93 1.44.06z" style="opacity:.5;fill:#fabf49"/><path d="M9.71 27.14c-.05 1.32-1.97 1.24-1.92-.08.05-1.32 1.97-1.24 1.92.08z" style="opacity:.5;fill:#feec9a"/><path d="M9.9 28.12c-.04.99-1.47.94-1.44-.06.03-.99 1.47-.93 1.44.06z" style="opacity:.5;fill:#fabf49"/><path d="M8.36 27.94c-.02.66-.98.62-.96-.04.03-.66.99-.62.96.04zm1.41.89c-.02.66-.98.62-.96-.04.03-.66.99-.63.96.04z" style="opacity:.5;fill:#feec9a"/><path d="M9.12 26.02c-.02.66-.99.62-.96-.04.03-.65.99-.62.96.04z" style="opacity:.5;fill:#ffd582"/><path d="M8.3 26.32c-.02.66-.98.62-.96-.04.03-.65.99-.61.96.04zm2.11 1.38c-.03.66-.99.62-.96-.04.02-.66.98-.63.96.04z" style="opacity:.5;fill:#feec9a"/><path d="M8.98 27.51c-.03.66-.98.62-.96-.04.02-.66.98-.62.96.04z" style="opacity:.5;fill:#ffd582"/><path d="M9.22 28.48c-.04.99-1.48.93-1.44-.06.04-.99 1.48-.93 1.44.06z" style="opacity:.5;fill:#ffd582"/><path d="M8.8 22.82c-.02.41-.62.39-.6-.02.01-.41.61-.39.6.02z" style="opacity:.5;fill:#c94376"/><path d="M11.08 23.62c-.02.41-.62.39-.6-.02.02-.42.62-.4.6.02zm1.62 2.99c-.02.42-.62.39-.6-.02.01-.42.61-.4.6.02z" style="opacity:.5;fill:#b82e61"/><path d="M12.27 29c-.02.41-.62.39-.6-.02.02-.41.62-.39.6.02z" style="opacity:.5;fill:#c94376"/><path d="M11.16 31.07c-.02.42-.62.39-.6-.02.01-.42.61-.4.6.02z" style="opacity:.5;fill:#b82e61"/><path d="M8.43 31.79c-.02.42-.62.39-.6-.02.01-.41.61-.39.6.02z" style="opacity:.5;fill:#c94376"/><path d="M6.73 31.13c-.02.41-.62.39-.6-.02.02-.42.61-.4.6.02zm-2.11-3.72c-.01.42-.62.39-.6-.02.02-.41.62-.39.6.02z" style="opacity:.5;fill:#b82e61"/><path d="M5.1 24.84c-.02.41-.62.39-.6-.02.01-.42.61-.39.6.02z" style="opacity:.5;fill:#c94376"/><path d="M24.61 16.11c1.82-1.86.85-7.9-2.8-6.46-3.9-.33-.4 4.67 2.8 6.46z" style="opacity:.5;fill:#ff96fc"/><path d="M24.58 16.12c4.68 1.37 9-.86 4.14-3.74-2.98-3.16-5.06.78-4.14 3.74z" style="opacity:.5;fill:#ff96fc"/><path d="M24.64 16c4.05-.28 10.82 3.25 6.8 6.05-4.16 4.72-6.84-2.51-6.8-6.05z" style="opacity:.5;fill:#ff96fc"/><path d="M24.67 16.05c1.48 3.23-1.6 10.16-4.42 6.01-4.17-1.84.65-5.73 4.42-6.01z" style="opacity:.5;fill:#ff96fc"/><path d="M24.65 16.04c-2.71 2.35-11.58 2.47-8.88-2.04.28-5.03 6.5-1.56 8.88 2.04z" style="opacity:.5;fill:#ff96fc"/><path d="M24.95 15.91c-.43-1.44-1.31-4.12-1.53-4.15-.29-.02.33 2.2 1.53 4.15z" style="opacity:.5;fill:#ed74a4"/><path d="M24.91 15.92c1.09-.87 3.07-2.55 2.93-2.73-.17-.22-1.88 1.09-2.93 2.73z" style="opacity:.5;fill:#ed74a4"/><path d="M24.94 15.89c1.31 1.07 3.71 3.12 3.61 3.28-.13.21-2.17-1.43-3.61-3.28zm0 .02c-.69 1.17-2.07 3.29-2.28 3.21-.28-.11.75-1.92 2.28-3.21z" style="opacity:.5;fill:#ed74a4"/><path d="M24.95 15.93c-1.64-.32-4.69-.98-4.72-1.18-.05-.25 2.47.2 4.72 1.18zm.14-.17c1.54-.07 4.4-.27 4.39-.47-.01-.26-2.39-.18-4.39.47zm.05 0c.51 1.48 1.37 4.25 1.18 4.31-.24.08-1.05-2.19-1.18-4.31z" style="opacity:.5;fill:#ed74a4"/><path d="M25.12 15.76c-1.37.49-3.96 1.34-4.11 1.16-.18-.22 1.92-1.01 4.11-1.16z" style="opacity:.5;fill:#ed74a4"/><path d="M25.12 15.78c-1.28-1.09-3.62-3.18-3.53-3.35.12-.21 2.12 1.45 3.53 3.35z" style="opacity:.5;fill:#ed74a4"/><path d="M24.39 14.73c-.51-.49.2-1.08.71-.59.51.49-.2 1.08-.71.59z" style="opacity:.5;fill:#fabf49"/><path d="M25.07 15.65c-.76-.74.3-1.62 1.06-.88.76.74-.3 1.62-1.06.88z" style="opacity:.5;fill:#ffd582"/><path d="M24.21 17.28c-.76-.74.3-1.63 1.06-.88.77.74-.3 1.62-1.06.88z" style="opacity:.5;fill:#fabf49"/><path d="M24.19 16.78c-1.02-.99.4-2.16 1.42-1.18 1.01.99-.41 2.17-1.42 1.18z" style="opacity:.5;fill:#feec9a"/><path d="M23.27 16.19c-.76-.74.3-1.62 1.06-.88.77.74-.29 1.62-1.06.88z" style="opacity:.5;fill:#fabf49"/><path d="M24.5 15.34c-.51-.49.2-1.08.71-.59.51.5-.2 1.09-.71.59zm-1.7.27c-.51-.49.2-1.08.71-.59.51.49-.2 1.08-.71.59z" style="opacity:.5;fill:#feec9a"/><path d="M25.49 17.21c-.51-.49.2-1.08.71-.59.51.49-.2 1.08-.71.59z" style="opacity:.5;fill:#ffd582"/><path d="M25.83 16.47c-.51-.49.2-1.08.71-.59.5.49-.21 1.08-.71.59zm-2.58.36c-.51-.49.2-1.08.71-.59.51.49-.2 1.08-.71.59z" style="opacity:.5;fill:#feec9a"/><path d="M24.41 16.04c-.51-.49.2-1.08.71-.59.5.5-.2 1.09-.71.59z" style="opacity:.5;fill:#ffd582"/><path d="M23.46 15.5c-.76-.74.3-1.62 1.06-.88.76.74-.3 1.62-1.06.88z" style="opacity:.5;fill:#ffd582"/><path d="M28.26 19.31c-.32-.31.13-.68.44-.37.32.31-.12.68-.44.37z" style="opacity:.5;fill:#c94376"/><path d="M26.01 20.21c-.32-.31.13-.68.44-.37.33.31-.12.68-.44.37zm-3.51-1.12c-.32-.31.13-.68.44-.37.32.31-.12.68-.44.37z" style="opacity:.5;fill:#b82e61"/><path d="M20.89 17.08c-.32-.31.13-.68.44-.37.32.31-.12.68-.44.37z" style="opacity:.5;fill:#c94376"/><path d="M20.04 14.88c-.32-.31.13-.68.44-.37.32.31-.12.68-.44.37z" style="opacity:.5;fill:#b82e61"/><path d="M21.4 12.6c-.32-.31.13-.68.44-.37.32.31-.13.68-.44.37z" style="opacity:.5;fill:#c94376"/><path d="M23.13 11.99c-.32-.31.13-.68.44-.37.32.31-.12.68-.44.37zm4.44 1.32c-.32-.31.13-.68.44-.37.32.31-.12.68-.44.37z" style="opacity:.5;fill:#b82e61"/><path d="M29.28 15.47c-.32-.31.13-.68.44-.37.32.31-.13.68-.44.37z" style="opacity:.5;fill:#c94376"/><radialGradient id="e" cx="594.304" cy="218.507" r="35.091" gradientTransform="matrix(.3583 .3795 -.5966 .3746 -74.734 -297.127)" gradientUnits="userSpaceOnUse"><stop offset="0" style="stop-color:#fff;stop-opacity:.5"/><stop offset="1" style="stop-color:#fff;stop-opacity:0"/></radialGradient><path d="M21.55 24.55c-5.79 3.64-15.99 5.47-18.08.84-1.93-4.3.15-11.03 5.34-14.34 5.25-3.36 13.98-3.18 17.75-.25 4 3.11.78 10.12-5.01 13.75z" style="fill:url(#e)"/></svg>