<svg xmlns="http://www.w3.org/2000/svg" xml:space="preserve" viewBox="0 0 64 64"><path fill="#CFD8DD" d="m43.764 61-10.86-29.834-2.01.73L41.486 61z"/><path fill="#CFD8DD" d="m22.515 61 10.592-29.102-2.01-.732L20.237 61z"/><path fill="#E6EBEF" d="M31.5 3h1v50h-1z"/><path fill="#E6EBEF" d="m19.078 6.592.867-.5L44.92 49.407l-.867.5z"/><path fill="#E6EBEF" d="M7 27.5h50v1H7z"/><path fill="#E6EBEF" d="m10.103 15.924.5-.865 43.29 25.015-.5.865z"/><path fill="#E6EBEF" d="m10.606 40.942-.5-.865 43.29-25.015.5.865z"/><path fill="#E6EBEF" d="m19.98 49.93-.866-.498 24.9-43.361.867.498z"/><path fill="#6E8189" d="M32 3C18.193 3 7 14.191 7 28c0 13.807 11.193 25 25 25s25-11.193 25-25C57 14.191 45.807 3 32 3zm0 49C18.745 52 8 41.256 8 28S18.745 4 32 4c13.256 0 24 10.744 24 24S45.256 52 32 52z"/><path fill="#99A8AE" d="M32 8c-11.045 0-20 8.953-20 20s8.954 20 20 20c11.047 0 20-8.953 20-20S43.047 8 32 8zm0 39.199c-10.603 0-19.2-8.596-19.2-19.199 0-10.605 8.597-19.201 19.2-19.201 10.604 0 19.202 8.596 19.202 19.201C51.201 38.604 42.604 47.199 32 47.199z"/><linearGradient id="a" x1="28.5" x2="35.5" y1="7.5" y2="7.5" gradientUnits="userSpaceOnUse"><stop offset="0" style="stop-color:#4ecee6"/><stop offset=".203" style="stop-color:#45c8e8"/><stop offset=".534" style="stop-color:#2db8ed"/><stop offset=".949" style="stop-color:#059ef6"/><stop offset="1" style="stop-color:#009af7"/></linearGradient><path fill="url(#a)" d="M34.723 9h-5.446L28.5 6h7z"/><linearGradient id="b" x1="28.5" x2="35.5" y1="3" y2="3" gradientUnits="userSpaceOnUse"><stop offset="0" style="stop-color:#4ecee6"/><stop offset=".203" style="stop-color:#45c8e8"/><stop offset=".534" style="stop-color:#2db8ed"/><stop offset=".949" style="stop-color:#059ef6"/><stop offset="1" style="stop-color:#009af7"/></linearGradient><path fill="url(#b)" d="M32 2c-3.23 0-3.5 2-3.5 2h7s-.27-2-3.5-2z"/><path fill="#018BC9" d="M31.75 3.75h.5v2.5h-.5z"/><path fill="#018BC9" d="M28.5 3.5h7V4h-7zm0 2.5h7v.5h-7z"/><linearGradient id="c" x1="28.5" x2="35.5" y1="56.5" y2="56.5" gradientUnits="userSpaceOnUse"><stop offset="0" style="stop-color:#4ecee6"/><stop offset=".203" style="stop-color:#45c8e8"/><stop offset=".534" style="stop-color:#2db8ed"/><stop offset=".949" style="stop-color:#059ef6"/><stop offset="1" style="stop-color:#009af7"/></linearGradient><path fill="url(#c)" d="M34.723 58h-5.446l-.777-3h7z"/><linearGradient id="d" x1="28.5" x2="35.5" y1="52" y2="52" gradientUnits="userSpaceOnUse"><stop offset="0" style="stop-color:#4ecee6"/><stop offset=".203" style="stop-color:#45c8e8"/><stop offset=".534" style="stop-color:#2db8ed"/><stop offset=".949" style="stop-color:#059ef6"/><stop offset="1" style="stop-color:#009af7"/></linearGradient><path fill="url(#d)" d="M32 51c-3.23 0-3.5 2-3.5 2h7s-.27-2-3.5-2z"/><path fill="#018BC9" d="M31.75 52.75h.5v2.5h-.5z"/><path fill="#018BC9" d="M28.5 52.5h7v.5h-7zm0 2.5h7v.5h-7z"/><linearGradient id="e" x1="41.178" x2="48.178" y1="10.709" y2="10.709" gradientUnits="userSpaceOnUse"><stop offset="0" style="stop-color:#f02beb"/><stop offset=".243" style="stop-color:#e725e2"/><stop offset=".638" style="stop-color:#cf14ca"/><stop offset="1" style="stop-color:#b300af"/></linearGradient><path fill="url(#e)" d="M47.398 12.209h-5.443l-.777-3h7z"/><linearGradient id="f" x1="41.178" x2="48.178" y1="6.209" y2="6.209" gradientUnits="userSpaceOnUse"><stop offset="0" style="stop-color:#f02beb"/><stop offset=".243" style="stop-color:#e725e2"/><stop offset=".638" style="stop-color:#cf14ca"/><stop offset="1" style="stop-color:#b300af"/></linearGradient><path fill="url(#f)" d="M44.678 5.209c-3.23 0-3.5 2-3.5 2h7s-.27-2-3.5-2z"/><path fill="#A30B9E" d="M44.428 6.959h.5v2.5h-.5z"/><path fill="#A30B9E" d="M41.178 6.709h7v.5h-7zm0 2.5h7v.5h-7z"/><linearGradient id="g" x1="15.823" x2="22.823" y1="10.709" y2="10.709" gradientUnits="userSpaceOnUse"><stop offset="0" style="stop-color:#92c932"/><stop offset=".344" style="stop-color:#89c131"/><stop offset=".905" style="stop-color:#71ac2f"/><stop offset="1" style="stop-color:#6ca82e"/></linearGradient><path fill="url(#g)" d="M22.045 12.209h-5.443l-.779-3h7z"/><linearGradient id="h" x1="15.823" x2="22.823" y1="6.209" y2="6.209" gradientUnits="userSpaceOnUse"><stop offset="0" style="stop-color:#92c932"/><stop offset=".344" style="stop-color:#89c131"/><stop offset=".905" style="stop-color:#71ac2f"/><stop offset="1" style="stop-color:#6ca82e"/></linearGradient><path fill="url(#h)" d="M19.323 5.209c-3.231 0-3.5 2-3.5 2h7s-.269-2-3.5-2z"/><path fill="#529320" d="M19.073 6.959h.5v2.5h-.5z"/><path fill="#529320" d="M15.823 6.709h7v.5h-7zm0 2.5h7v.5h-7z"/><linearGradient id="i" x1="15.823" x2="22.823" y1="52.709" y2="52.709" gradientUnits="userSpaceOnUse"><stop offset="0" style="stop-color:#f02beb"/><stop offset=".243" style="stop-color:#e725e2"/><stop offset=".638" style="stop-color:#cf14ca"/><stop offset="1" style="stop-color:#b300af"/></linearGradient><path fill="url(#i)" d="M22.045 54.209h-5.443l-.779-3h7z"/><linearGradient id="j" x1="15.823" x2="22.823" y1="48.209" y2="48.209" gradientUnits="userSpaceOnUse"><stop offset="0" style="stop-color:#f02beb"/><stop offset=".243" style="stop-color:#e725e2"/><stop offset=".638" style="stop-color:#cf14ca"/><stop offset="1" style="stop-color:#b300af"/></linearGradient><path fill="url(#j)" d="M19.323 47.209c-3.23 0-3.5 2-3.5 2h7s-.269-2-3.5-2z"/><path fill="#A30B9E" d="M19.073 48.959h.5v2.5h-.5z"/><path fill="#A30B9E" d="M15.823 48.709h7v.5h-7zm0 2.5h7v.5h-7z"/><linearGradient id="k" x1="41.178" x2="48.178" y1="52.709" y2="52.709" gradientUnits="userSpaceOnUse"><stop offset="0" style="stop-color:#92c932"/><stop offset=".344" style="stop-color:#89c131"/><stop offset=".905" style="stop-color:#71ac2f"/><stop offset="1" style="stop-color:#6ca82e"/></linearGradient><path fill="url(#k)" d="M47.398 54.209h-5.443l-.777-3h7z"/><linearGradient id="l" x1="41.178" x2="48.178" y1="48.209" y2="48.209" gradientUnits="userSpaceOnUse"><stop offset="0" style="stop-color:#92c932"/><stop offset=".344" style="stop-color:#89c131"/><stop offset=".905" style="stop-color:#71ac2f"/><stop offset="1" style="stop-color:#6ca82e"/></linearGradient><path fill="url(#l)" d="M44.678 47.209c-3.232 0-3.5 2-3.5 2h7s-.27-2-3.5-2z"/><path fill="#529320" d="M44.428 48.959h.5v2.5h-.5z"/><path fill="#529320" d="M41.178 48.709h7v.5h-7zm0 2.5h7v.5h-7z"/><linearGradient id="m" x1="4" x2="11" y1="32" y2="32" gradientUnits="userSpaceOnUse"><stop offset="0" style="stop-color:#fa0"/><stop offset=".134" style="stop-color:#ff9c00"/><stop offset=".498" style="stop-color:#ff7a00"/><stop offset=".8" style="stop-color:#ff6500"/><stop offset="1" style="stop-color:#ff5e00"/></linearGradient><path fill="url(#m)" d="M10.223 33.5H4.777L4 30.5h7z"/><linearGradient id="n" x1="4" x2="11" y1="27.5" y2="27.5" gradientUnits="userSpaceOnUse"><stop offset="0" style="stop-color:#fa0"/><stop offset=".134" style="stop-color:#ff9c00"/><stop offset=".498" style="stop-color:#ff7a00"/><stop offset=".8" style="stop-color:#ff6500"/><stop offset="1" style="stop-color:#ff5e00"/></linearGradient><path fill="url(#n)" d="M7.5 26.5c-3.23 0-3.5 2-3.5 2h7s-.27-2-3.5-2z"/><path fill="#D45C06" d="M7.25 28.25h.5v2.5h-.5z"/><path fill="#D45C06" d="M4 28h7v.5H4zm0 2.5h7v.5H4z"/><linearGradient id="o" x1="53" x2="60" y1="31.999" y2="31.999" gradientUnits="userSpaceOnUse"><stop offset="0" style="stop-color:#fa0"/><stop offset=".134" style="stop-color:#ff9c00"/><stop offset=".498" style="stop-color:#ff7a00"/><stop offset=".8" style="stop-color:#ff6500"/><stop offset="1" style="stop-color:#ff5e00"/></linearGradient><path fill="url(#o)" d="M59.223 33.499h-5.446l-.777-3h7z"/><linearGradient id="p" x1="53" x2="60" y1="27.499" y2="27.499" gradientUnits="userSpaceOnUse"><stop offset="0" style="stop-color:#fa0"/><stop offset=".134" style="stop-color:#ff9c00"/><stop offset=".498" style="stop-color:#ff7a00"/><stop offset=".8" style="stop-color:#ff6500"/><stop offset="1" style="stop-color:#ff5e00"/></linearGradient><path fill="url(#p)" d="M56.5 26.499c-3.23 0-3.5 2-3.5 2h7s-.27-2-3.5-2z"/><path fill="#D45C06" d="M56.25 28.249h.5v2.5h-.5z"/><path fill="#D45C06" d="M53 27.999h7v.5h-7zm0 2.5h7v.5h-7z"/><linearGradient id="q" x1="50.375" x2="57.375" y1="43.834" y2="43.834" gradientUnits="userSpaceOnUse"><stop offset="0" style="stop-color:#ff3b3b"/><stop offset=".249" style="stop-color:#f73232"/><stop offset=".654" style="stop-color:#e21a1a"/><stop offset="1" style="stop-color:#cc0100"/></linearGradient><path fill="url(#q)" d="M56.598 45.334h-5.446l-.777-3h7z"/><linearGradient id="r" x1="50.375" x2="57.375" y1="39.334" y2="39.334" gradientUnits="userSpaceOnUse"><stop offset="0" style="stop-color:#ff3b3b"/><stop offset=".249" style="stop-color:#f73232"/><stop offset=".654" style="stop-color:#e21a1a"/><stop offset="1" style="stop-color:#cc0100"/></linearGradient><path fill="url(#r)" d="M53.875 38.334c-3.23 0-3.5 2-3.5 2h7s-.27-2-3.5-2z"/><path fill="#B00505" d="M53.625 40.084h.5v2.5h-.5z"/><path fill="#B00505" d="M50.375 39.834h7v.5h-7zm0 2.5h7v.5h-7z"/><linearGradient id="s" x1="6.625" x2="13.625" y1="43.834" y2="43.834" gradientUnits="userSpaceOnUse"><stop offset="0" style="stop-color:#ffe02e"/><stop offset=".266" style="stop-color:#ffd726"/><stop offset=".698" style="stop-color:#ffbf12"/><stop offset="1" style="stop-color:#fa0"/></linearGradient><path fill="url(#s)" d="M12.848 45.334H7.402l-.777-3h7z"/><linearGradient id="t" x1="6.625" x2="13.625" y1="39.334" y2="39.334" gradientUnits="userSpaceOnUse"><stop offset="0" style="stop-color:#ffe02e"/><stop offset=".266" style="stop-color:#ffd726"/><stop offset=".698" style="stop-color:#ffbf12"/><stop offset="1" style="stop-color:#fa0"/></linearGradient><path fill="url(#t)" d="M10.125 38.334c-3.23 0-3.5 2-3.5 2h7s-.27-2-3.5-2z"/><path fill="#F9B700" d="M9.875 40.084h.5v2.5h-.5z"/><path fill="#F9B700" d="M6.625 39.834h7v.5h-7zm0 2.5h7v.5h-7z"/><linearGradient id="u" x1="6.625" x2="13.625" y1="20.166" y2="20.166" gradientUnits="userSpaceOnUse"><stop offset="0" style="stop-color:#ff3b3b"/><stop offset=".249" style="stop-color:#f73232"/><stop offset=".654" style="stop-color:#e21a1a"/><stop offset="1" style="stop-color:#cc0100"/></linearGradient><path fill="url(#u)" d="M12.848 21.666H7.402l-.777-3h7z"/><linearGradient id="v" x1="6.625" x2="13.625" y1="15.666" y2="15.666" gradientUnits="userSpaceOnUse"><stop offset="0" style="stop-color:#ff3b3b"/><stop offset=".249" style="stop-color:#f73232"/><stop offset=".654" style="stop-color:#e21a1a"/><stop offset="1" style="stop-color:#cc0100"/></linearGradient><path fill="url(#v)" d="M10.125 14.666c-3.23 0-3.5 2-3.5 2h7s-.27-2-3.5-2z"/><path fill="#B00505" d="M9.875 16.416h.5v2.5h-.5z"/><path fill="#B00505" d="M6.625 16.166h7v.5h-7zm0 2.5h7v.5h-7z"/><linearGradient id="w" x1="50.375" x2="57.375" y1="20.166" y2="20.166" gradientUnits="userSpaceOnUse"><stop offset="0" style="stop-color:#ffe02e"/><stop offset=".266" style="stop-color:#ffd726"/><stop offset=".698" style="stop-color:#ffbf12"/><stop offset="1" style="stop-color:#fa0"/></linearGradient><path fill="url(#w)" d="M56.598 21.666h-5.446l-.777-3h7z"/><linearGradient id="x" x1="50.375" x2="57.375" y1="15.666" y2="15.666" gradientUnits="userSpaceOnUse"><stop offset="0" style="stop-color:#ffe02e"/><stop offset=".266" style="stop-color:#ffd726"/><stop offset=".698" style="stop-color:#ffbf12"/><stop offset="1" style="stop-color:#fa0"/></linearGradient><path fill="url(#x)" d="M53.875 14.666c-3.23 0-3.5 2-3.5 2h7s-.27-2-3.5-2z"/><path fill="#F9B700" d="M53.625 16.416h.5v2.5h-.5z"/><path fill="#F9B700" d="M50.375 16.166h7v.5h-7zm0 2.5h7v.5h-7z"/><path fill="#B3C2C6" d="M44.832 61 33.973 31.166l-2.011.73L42.555 61z"/><path fill="#B3C2C6" d="m21.445 61 10.592-29.102-2.01-.732L19.168 61z"/><path fill="#E635DE" d="m32 23.398 3.521-3.9-.267 5.25 5.246-.269L36.6 28l3.9 3.521-5.246-.269.267 5.248L32 32.6l-3.522 3.9.272-5.248-5.25.269L27.4 28l-3.9-3.521 5.25.269-.272-5.25z"/><path fill="#B30BAD" d="M32 23.5c2.487 0 4.5 2.01 4.5 4.5 0 2.488-2.014 4.5-4.5 4.5a4.498 4.498 0 0 1-4.5-4.5c0-2.49 2.013-4.5 4.5-4.5z"/><circle cx="32" cy="28" r="2.5" fill="#C28FEF"/><path fill="#99A8AE" d="M12 60h40v2H12z"/></svg>