<svg xmlns="http://www.w3.org/2000/svg" xml:space="preserve" viewBox="0 0 64 64"><linearGradient id="a" x1="2" x2="62" y1="32" y2="32" gradientUnits="userSpaceOnUse"><stop offset="0" style="stop-color:#ff000e"/><stop offset=".728" style="stop-color:#dd0004"/><stop offset="1" style="stop-color:#cf0000"/></linearGradient><circle cx="32" cy="32" r="30" fill="url(#a)"/><circle cx="32" cy="32" r="22" fill="#FFF"/><linearGradient id="b" x1="17" x2="47" y1="32" y2="32" gradientUnits="userSpaceOnUse"><stop offset="0" style="stop-color:#ff000e"/><stop offset=".728" style="stop-color:#dd0004"/><stop offset="1" style="stop-color:#cf0000"/></linearGradient><circle cx="32" cy="32" r="15" fill="url(#b)"/><circle cx="32" cy="32" r="7" fill="#FFF"/><path fill="#302C3B" d="M31 31.667s1 19.5 12.867 27.893c0 0 4.918-1.955 9.066-6.073C48.848 43.563 41.098 43.063 31 31.667z" opacity=".2"/><path fill="#99A8AE" d="M32.739 32.76c-.826.826-2.322-.673-1.498-1.498 4.749-4.751 6.247-3.252 1.498 1.498z"/><linearGradient id="c" x1="43.867" x2="62" y1="14.551" y2="14.551" gradientUnits="userSpaceOnUse"><stop offset="0" style="stop-color:#009af7"/><stop offset=".121" style="stop-color:#0da3f4"/><stop offset=".495" style="stop-color:#30baec"/><stop offset=".802" style="stop-color:#46c9e8"/><stop offset="1" style="stop-color:#4ecee6"/></linearGradient><path fill="url(#c)" d="M55.555 8.445 43.867 20.132s9.287 2.419 14.805-3.1c9.006-9.005-3.117-8.587-3.117-8.587z"/><linearGradient id="d" x1="42.745" x2="47.199" y1="16.802" y2="21.256" gradientUnits="userSpaceOnUse"><stop offset="0" style="stop-color:#2289c7"/><stop offset="1" style="stop-color:#005687"/></linearGradient><path fill="url(#d)" d="M37.768 30.687c-3.986 3.986-8.439-.468-4.453-4.454C41.227 18.319 56.59 5.806 57.393 6.607c.8.802-11.713 16.166-19.625 24.08z"/><linearGradient id="e" x1="43.34" x2="55.551" y1="10.184" y2="10.184" gradientUnits="userSpaceOnUse"><stop offset="0" style="stop-color:#009af7"/><stop offset=".121" style="stop-color:#0da3f4"/><stop offset=".495" style="stop-color:#30baec"/><stop offset=".802" style="stop-color:#46c9e8"/><stop offset="1" style="stop-color:#4ecee6"/></linearGradient><path fill="url(#e)" d="M43.533 18.286c-.396-2.991-.561-8.963 3.434-12.958 7.691-7.69 8.508.028 8.584 2.445.012.415-11.867 11.652-12.018 10.513z"/></svg>