<svg xmlns="http://www.w3.org/2000/svg" xml:space="preserve" viewBox="0 0 64 64"><path fill="#B00505" d="m10.498 56.782 1.104-1.104 4.915 4.916-1.104 1.103zm7.947-14.132 1.103-1.104 19.25 19.234-1.103 1.104zm8.674-13.426 1.105-1.105 32.281 32.282-1.105 1.105zm12.238-9.853 1.105-1.105 20.402 20.402-1.105 1.105z"/><path fill="#B00505" d="m58.1 17.794 1.105 1.105L16.48 61.625l-1.105-1.106zm1.426 20.644 1.106 1.105-22.146 22.183-1.106-1.105z"/><linearGradient id="a" x1="-505.499" x2="-502.5" y1="257" y2="257" gradientTransform="matrix(1 0 0 -1 564 300)" gradientUnits="userSpaceOnUse"><stop offset=".212" style="stop-color:#ff3b3b"/><stop offset=".418" style="stop-color:#f63131"/><stop offset=".771" style="stop-color:#de1615"/><stop offset="1" style="stop-color:#cc0100"/></linearGradient><path fill="url(#a)" d="M58.501 24v38H61.5V24z"/><path fill="#B00505" d="m58.001 22 .5 2H61.5l.5-2z"/><path fill="#E81C27" d="M58.001 18.041 62 20.979V22h-3.999z"/><linearGradient id="b" x1="-527.617" x2="-524.618" y1="256" y2="256" gradientTransform="matrix(1 0 0 -1 564 300)" gradientUnits="userSpaceOnUse"><stop offset=".212" style="stop-color:#ff3b3b"/><stop offset=".418" style="stop-color:#f63131"/><stop offset=".771" style="stop-color:#de1615"/><stop offset="1" style="stop-color:#cc0100"/></linearGradient><path fill="url(#b)" d="M36.383 26v36h2.999V26z"/><path fill="#B00505" d="m35.883 24 .5 2h2.999l.499-2z"/><path fill="#E81C27" d="m35.883 21 3.998-2v5h-3.998z"/><linearGradient id="c" x1="-549.736" x2="-546.737" y1="242.033" y2="242.033" gradientTransform="matrix(1 0 0 -1 564 300)" gradientUnits="userSpaceOnUse"><stop offset=".212" style="stop-color:#ff3b3b"/><stop offset=".418" style="stop-color:#f63131"/><stop offset=".771" style="stop-color:#de1615"/><stop offset="1" style="stop-color:#cc0100"/></linearGradient><path fill="url(#c)" d="M14.264 53.934V62h2.999v-8.066z"/><path fill="#B00505" d="m13.764 51.934.5 2h2.999l.5-2z"/><path fill="#E81C27" d="M17.763 44.934v7h-3.999z"/><path fill="#6E8189" d="m62 19.05-2.024-1.203.964-1.462a27.39 27.39 0 0 0-1.509-.79l-.747 1.53-2.133-.942.734-1.506a19.618 19.618 0 0 0-1.306-.422l-.437 1.559-2.266-.551.422-1.509a18.263 18.263 0 0 0-1.291-.148l-.102 1.521-2.331-.084.099-1.479c-.503.021-1.017.064-1.539.123l.178 1.448-2.305.347-.176-1.43c-.662.136-1.348.302-2.05.492l.379 1.387-2.233.669-.378-1.382c-.518.174-1.026.362-1.528.563l.55 1.317-2.133.941-.549-1.313c-.406.201-.807.412-1.202.631l.712 1.243-2.004 1.192-.703-1.228c-.378.248-.752.503-1.121.767l.847 1.154-1.862 1.403-.838-1.142c-.359.295-.715.597-1.066.906l.962 1.068-1.719 1.576-.945-1.051c-.348.343-.689.692-1.028 1.049l1.051.984-1.586 1.71-1.029-.965c-.336.389-.669.784-.997 1.187l1.119.908-1.467 1.814-1.096-.89c-.328.434-.652.872-.973 1.316l1.175.845-1.365 1.897-1.144-.821c-.319.473-.634.95-.947 1.433l1.213.787-1.28 1.949-1.18-.766a134.92 134.92 0 0 0-.926 1.53l1.245.744-1.217 1.99-1.203-.72a144.79 144.79 0 0 0-.906 1.602l1.266.711-1.169 2.02-1.221-.686c-.297.548-.593 1.099-.887 1.65l1.278.688-1.139 2.035-1.23-.662-.874 1.672 1.289.677-1.128 2.043-1.233-.648-.355.687c-.225.435-.453.841-.681 1.253l1.285.737-1.21 1.994-1.249-.718c-.364.587-.73 1.149-1.099 1.684l1.268.891-1.393 1.871-1.263-.888c-.304.382-.606.755-.911 1.103l1.227 1.113-1.621 1.678-1.225-1.111c-.527.501-1.052.971-1.575 1.378h4.705c2.488-2.314 4.815-5.6 7.234-10.211 7.116-13.567 14.507-28.317 27.713-33.357C50.383 15.466 55.784 16.984 62 20.98v-1.971.041z"/><path fill="#B3C2C6" d="M62 15.443c-6.229-3.614-11.873-4.37-19.962-1.919-15.033 4.558-23.491 20.811-31.674 36.528C7.602 55.36 4.891 58.729 2 60.862V62h1.334c2.957-2.272 5.714-5.775 8.522-11.172 8.021-15.407 16.315-31.341 30.671-35.692C50.431 12.74 55.74 13.537 62 17.405v-1.962z"/><path fill="#302C3B" d="M42.275 9.561c-6.983 6.641-3.265 1.58-2.942-2.224.325-3.859 3.267 1.362 2.942 2.224z"/><path fill="#FC6" d="M34.924 4.231c-.243-.266-.142-1.153.677-.426.569-.617.514.513.514.513l-.717.463c-.001 0-.352-.416-.474-.55z"/><path fill="#8E3ED6" d="M38.655 7.666s-1.97.115-3.32-2.953c-.104-.247.681-.719.789-.476 1.019 2.265 3.235 2.616 3.235 2.616l-.704.813z"/><path fill="#FC6" d="M37.649 6.762c-.053-.117-.486.065-.175-.221.349-.313-.161-.668-.224-.542-.092.171-.312.393-.312.393-.053-.056-.026-.14-.093-.148-.634-.082.089-.407-.177-.992-.164-.357.058-.671.305-.993 4.424.169 1.278 3.835.676 2.503z"/><path fill="#594640" d="M36.646 4.815c.325-.093 1.045-.226 1.229.353.513-.891.831.485.447.582.306.338.914.748 1.167-.515-.042-2.881-3.348-1.624-2.843-.42z"/><path fill="#8E3ED6" d="M39.185 3.522c.493 1.465.162 2.403-.829 3.208-.766.782-.42 4.224-.42 4.224l2.53-1.06s-.229-1.821-.4-2.313c.352-1.365.977-1.797.112-4.458-.07-.213-1.063.188-.993.399z"/><path fill="#FC6" d="M39.917 2.42c-.069-.367-.87-.846-.782.294-.874.084.103.751.103.751l.838-.306c-.001 0-.126-.553-.159-.739z"/><path fill="#302C3B" d="m33.739 16.063 9.664-3.987.564 1.366-9.664 3.988z"/><linearGradient id="d" x1="100.147" x2="112.353" y1="129.353" y2="129.353" gradientTransform="rotate(-22.407 -223.876 243.19)" gradientUnits="userSpaceOnUse"><stop offset="0" style="stop-color:#9be022"/><stop offset=".267" style="stop-color:#91d422"/><stop offset=".747" style="stop-color:#78b423"/><stop offset="1" style="stop-color:#69a123"/></linearGradient><path fill="url(#d)" d="m37.995 10.767-.675-1.124c-1.554.718-5.931 2.607-5.45 3.768.397.971 1.378 3.34 1.378 3.34l10.87-4.483c.218-2.106-1.42-3.438-1.42-3.438l-4.703 1.937z"/><path fill="#302C3B" d="M30.979 15.023c-4.188 8.679-2.495 2.633-3.536-1.041-1.056-3.721 3.536.122 3.536 1.041z"/><path fill="#FC6" d="M22.222 12.633c-.319-.162-.536-1.03.486-.638.316-.78.66.3.66.3l-.51.684s-.472-.262-.636-.346z"/><path fill="#E81C27" d="M26.926 14.53s-1.802.802-4.149-1.594c-.184-.188.382-.912.573-.723 1.751 1.758 3.948 1.307 3.948 1.307l-.372 1.01z"/><path fill="#FC6" d="M25.667 14.04c-.093-.092-.435.228-.244-.144.214-.42-.384-.571-.4-.432-.023.192-.151.478-.151.478-.069-.034-.072-.122-.135-.107-.628.147-.063-.413-.522-.866-.275-.273-.178-.646-.063-1.036 4.198-1.4 2.547 3.14 1.515 2.107z"/><path fill="#594640" d="M24.04 12.572c.272-.204.9-.584 1.274-.102.168-1.02.954.154.625.384.405.208 1.117.378.911-.892-1.059-2.683-3.708-.339-2.81.61z"/><path fill="#E81C27" d="M25.959 10.469c.98 1.194 1 2.193.358 3.292-.444 1.001 1.092 4.099 1.092 4.099l1.996-1.882s-.855-1.623-1.188-2.025c-.154-1.399.275-2.023-1.47-4.21-.14-.177-.926.548-.788.726z"/><path fill="#FC6" d="M26.259 9.174c-.198-.319-1.114-.483-.632.554-.786.387.361.666.361.666l.678-.582s-.312-.474-.407-.638z"/><path fill="#302C3B" d="m25.365 24.184 7.462-7.335 1.038 1.056-7.461 7.335z"/><linearGradient id="e" x1="104.696" x2="116.904" y1="257.738" y2="257.738" gradientTransform="rotate(-44.49 -222.649 239.845)" gradientUnits="userSpaceOnUse"><stop offset="0" style="stop-color:#ffe02e"/><stop offset=".249" style="stop-color:#ffda29"/><stop offset=".586" style="stop-color:#ffc91a"/><stop offset=".971" style="stop-color:#ffac02"/><stop offset="1" style="stop-color:#fa0"/></linearGradient><path fill="url(#e)" d="m27.324 17.67-1.049-.784c-1.175 1.246-4.518 4.644-3.637 5.542.737.748 2.531 2.576 2.531 2.576l8.389-8.244c-.591-2.035-2.609-2.657-2.609-2.657l-3.625 3.567z"/><path fill="#302C3B" d="m18.015 34.72 6.703-9.824 1.223.835-6.703 9.823zm4.357-11.316c-2.238 9.373-1.876 3.103-3.679-.264-1.824-3.414 3.482-.635 3.679.264z"/><path fill="#FC6" d="M13.309 22.938c-.348-.091-.746-.891.336-.727.142-.829.71.151.71.151l-.352.778c0 .001-.52-.157-.694-.202z"/><path fill="#7AB51D" d="M18.307 23.787s-1.588 1.17-4.393-.672c-.22-.146.178-.971.404-.826 2.087 1.346 4.137.435 4.137.435l-.148 1.063z"/><path fill="#FC6" d="M16.972 23.573c-.108-.068-.379.321-.267-.089.118-.451-.5-.472-.486-.335.02.197-.046.501-.046.501-.072-.018-.096-.104-.155-.073-.581.276-.147-.392-.693-.734-.328-.21-.312-.594-.282-1 3.799-2.265 3.158 2.523 1.929 1.73z"/><path fill="#594640" d="M15.068 22.488c.228-.255.755-.761 1.226-.373-.056-1.027.963-.048.694.243.437.118 1.171.132.696-1.065-1.607-2.396-3.694.462-2.616 1.195z"/><path fill="#7AB51D" d="M16.495 20.023c1.213.959 1.443 1.928 1.052 3.141-.218 1.072 1.946 3.774 1.946 3.774l1.546-2.27s-1.184-1.402-1.596-1.726c-.447-1.332-.161-2.034-2.334-3.794-.173-.14-.788.735-.614.875z"/><path fill="#FC6" d="M16.511 18.697c-.26-.271-1.188-.233-.496.674-.687.548.493.574.493.574l.539-.714s-.407-.394-.536-.534z"/><linearGradient id="f" x1="95.944" x2="109.589" y1="303.708" y2="303.708" gradientTransform="rotate(-55.667 -199.48 244.803)" gradientUnits="userSpaceOnUse"><stop offset=".212" style="stop-color:#ff3b3b"/><stop offset=".418" style="stop-color:#f63131"/><stop offset=".771" style="stop-color:#de1615"/><stop offset="1" style="stop-color:#cc0100"/></linearGradient><path fill="url(#f)" d="m19.483 26.771-1.446-.728c-2.847 4.549-1.503 8.391-.056 9.522l7.438-10.901c-.97-1.881-3.07-2.097-3.07-2.097l-2.866 4.204z"/></svg>