<svg xmlns="http://www.w3.org/2000/svg" xml:space="preserve" viewBox="0 0 64 64"><linearGradient id="a" x1="33.471" x2="33.471" y1="197.037" y2="159.039" gradientTransform="rotate(10.003 808.194 162.073)" gradientUnits="userSpaceOnUse"><stop offset="0" style="stop-color:#0083cf"/><stop offset=".169" style="stop-color:#008dd9"/><stop offset=".694" style="stop-color:#00a9f5"/><stop offset="1" style="stop-color:#00b3ff"/></linearGradient><path fill="url(#a)" d="M55.832 26.752c-6.429 2.331-15.365.533-20.276-3.575-3.293-2.758-9.235 1.921-9.552 10.918-.19 5.406-.452 12.105.687 15.236 1.622 4.479 8.748 11.949 12.484 12.604 3.733.661 12.987-3.924 16.044-7.574 2.142-2.554 4.185-8.938 5.854-14.084 2.781-8.561-1.204-14.991-5.241-13.525z"/><path fill="#1A1626" d="M49.277 54.82c-1.605-8.919-12.604-10.858-17.163-3.026-.928 1.594.417 2.361 1.013 2.02 3.813-2.189 11.674-.804 14.509 2.558.442.524 1.968.264 1.641-1.552z"/><path fill="#0057BA" d="M49.768 33.162c8.313.525 6.179 8.718 6.179 8.718 2.666-5.427-.041-11.336-6.179-8.718zm-10.705-1.887c-7.99-2.351-8.788 6.078-8.788 6.078-.651-6.012 3.914-10.638 8.788-6.078zm-1.37 11.478c-7.69.902-7.443 9.578-7.443 9.578s1.32-7.247 7.443-9.578zm9.436 1.663c6.918 3.479 3.718 11.547 3.718 11.547s1.238-7.262-3.718-11.547z"/><path fill="#1A1626" d="M39.938 39.703c.264.314.969-.055.898-.341-.738-2.86-2.321-4.502-4.132-4.823-1.817-.321-3.865.687-5.537 3.117-.166.247.371.833.727.627 1.342-.774 2.807-.92 4.265-.663 1.457.257 2.785.893 3.779 2.083zm15.065 2.154c-.735-2.857-2.319-4.501-4.132-4.82-1.817-.322-3.866.681-5.533 3.114-.169.247.368.834.726.631 1.345-.778 2.806-.923 4.265-.666 1.457.257 2.781.896 3.778 2.085.263.314.967-.054.896-.344z"/><path fill="#0057BA" d="M40.345 55.301c2.066.364 3.845 1.505 5.298 2.638-1.055-1.954-2.86-3.397-5.095-3.791-2.234-.395-4.425.344-6.084 1.82 1.753-.568 3.813-1.031 5.881-.667zm1.679-9.526c1.438.254 3.171-1.76 4.104-.534-.578-2.243-2.304-.589-3.858-.863s-2.611-2.419-3.922-.508c1.298-.833 2.238 1.651 3.676 1.905z"/><linearGradient id="b" x1="53.362" x2="53.362" y1="-10.943" y2="-48.942" gradientTransform="rotate(-10.003 339.146 178.476)" gradientUnits="userSpaceOnUse"><stop offset="0" style="stop-color:#f7a500"/><stop offset=".341" style="stop-color:#fac000"/><stop offset=".757" style="stop-color:#fedc00"/><stop offset="1" style="stop-color:#ffe600"/></linearGradient><path fill="url(#b)" d="M28.444 2.788C23.2 7.179 14.188 8.544 8.168 6.364 4.13 4.897.146 11.327 2.927 19.89c1.669 5.145 3.715 11.531 5.855 14.082 3.056 3.654 12.308 8.238 16.042 7.576 3.735-.656 10.862-8.129 12.486-12.605 1.139-3.133.875-9.83.685-15.236C37.68 4.71 31.736.03 28.444 2.788z"/><path fill="#1A1626" d="M30.902 25.126c-2.171 2.461-5.052 3.797-8.21 4.354-3.155.557-6.316.285-9.204-1.287-.764-.41-1.024.641-.692 1.15 3.339 5 7.081 7.137 11.007 6.441 3.938-.697 6.723-3.984 8.146-9.82.147-.588-.462-1.496-1.047-.838z"/><path fill="#E88B00" d="M7.072 14.567c5.704-6.068 10.655.799 10.655.799-2.48-5.513-8.756-7.197-10.655-.799zm25.207-4.443c-7.437-3.752-9.739 4.395-9.739 4.395.443-6.032 5.767-9.758 9.739-4.395zm-17.55 16.125c-6.092-1.465-5.674 3.16-1.145 6.998 0 0-6.436-7.17 1.145-6.998zm14.35-2.531c5.224-3.459 6.413 1.029 3.469 6.186 0-.001 3.595-8.94-3.469-6.186z"/><path fill="#1A1626" d="M17.938 20.396c.355.205.892-.385.728-.629-1.672-2.436-3.721-3.436-5.532-3.119-1.818.32-3.397 1.967-4.137 4.822-.072.291.634.656.897.342.995-1.188 2.321-1.824 3.78-2.082 1.458-.258 2.924-.114 4.264.666zm14.893-3.129c-1.668-2.434-3.719-3.436-5.531-3.117-1.818.318-3.4 1.963-4.134 4.818-.075.291.63.658.897.346.997-1.191 2.32-1.826 3.779-2.084 1.457-.258 2.92-.111 4.264.666.356.205.891-.381.725-.629z"/><path fill="#E88B00" d="M24.115 37.522c-2.067.365-4.158-.268-5.942-1.014 1.723 1.838 3.954 2.805 6.188 2.412 2.234-.395 4-2.066 4.99-4.385-1.421 1.314-3.169 2.624-5.236 2.987zm-1.636-9.275c1.438-.254 2.378-2.738 3.675-1.906-1.311-1.91-2.366.234-3.922.508-1.555.273-3.28-1.381-3.858.863.934-1.225 2.667.787 4.105.535z"/></svg>