<svg xmlns="http://www.w3.org/2000/svg" xml:space="preserve" style="enable-background:new 0 0 64 64" viewBox="0 0 64 64"><path d="M60.7 25.61c-4.06-4.17-10.1 5.33-12.23.94-2.22-4.57 7.36-7.09 4.88-15.56L42.12 30.1 2.01 33.85c0 18.3 18.24 28.05 31.68 25.84 24.87-4.11 31.49-29.47 27.01-34.08z" style="fill:#ab6a22"/><linearGradient id="a" x1="31.936" x2="31.936" y1="58.278" y2="3.837" gradientTransform="translate(0 .163)" gradientUnits="userSpaceOnUse"><stop offset="0" style="stop-color:#e38a47"/><stop offset=".294" style="stop-color:#eba053"/><stop offset="1" style="stop-color:#fdd36f"/></linearGradient><path d="M60.55 24.77c-4.06-4.18-10.22 5.15-12.35.76-2.22-4.57 9.36-9.15 4.05-16.61-2.65-3.73-17.21-7.24-28.43-2.94C10.26 11.16.99 23.5 2.09 35.14c1.52 16.02 18.17 25.19 31.6 22.97 24.87-4.1 31.35-28.73 26.86-33.34zm-28.73-4.29c-.97-6.42 10.41-8.84 11.38-2.42.97 6.42-10.41 8.85-11.38 2.42z" style="fill:url(#a)"/><path d="M4.73 22.52c-1 1.98-1.76 4.02-2.21 6.09 8 3.82 26.53 25.4 24.72 27.28-1.83 1.89-12.63-6.21-24.8-18.41 1.01 5.21 3.66 9.6 7.23 12.99 2.96-.82 8.88 2.16 15.29 7.57 2.94.5 5.91.54 8.74.08.98-.16 1.92-.36 2.84-.59-7.16-7.29-26.09-27.69-31.81-35.01zm3.34-5.16c7 7.46 26.71 29.81 25.51 31.05-.36.37-1.29.08-2.69-.73 3.01 3.15 5.82 6.19 8.4 9.07 1.87-.61 3.62-1.34 5.24-2.17-5.91-6.32-10.02-11.61-9.41-12.24.63-.65 6.1 3.94 12.49 10.45.43-.28.85-.58 1.27-.87l-37.13-38.5a33.243 33.243 0 0 0-3.68 3.94zm32.43 5.86c-1 .59-2.18.94-3.33 1.02 5.05 4.63 11.01 10.45 17.25 16.92.82.85 1.62 1.69 2.41 2.53.72-1.06 1.36-2.13 1.92-3.19 0 0-12.24-8.33-18.25-17.28zm-17.99-9.78c.67-.69 4.12 1.64 9.27 6.02.02-.36.08-.7.17-1.03-3.56-2.68-7.74-6.35-12.08-10.68-1.88.97-3.64 2.08-5.28 3.31 9.22 9.56 27.93 29.47 36.43 39.15.89-.76 1.72-1.56 2.49-2.37-10.07-8.68-32.23-33.13-31-34.4zM60.31 37c.73-1.95 1.2-3.83 1.42-5.52-2.3-2.42-4.49-4.78-6.54-7.04-1.75.82-3.46 2.01-4.82 2.25L60.31 37zM43.2 18.07c.06.43.07.84.03 1.23l4.69 4.86c.08-1.55 1.37-3.13 2.7-4.85C44.35 12.09 40.1 6.47 39.29 4.2a39.33 39.33 0 0 0-4.77-.18c2.77 3.31 4.34 5.54 4.01 5.87-.38.39-3.21-1.86-7.3-5.66-.74.08-1.48.19-2.22.32l9.39 9.74c2.31.03 4.41 1.18 4.8 3.78z" style="opacity:.2;fill:#d48142"/><path d="M43.22 18.66c.04-7.31-11.77-5.21-11.46.92 1.5-4.67 9.99-5.96 11.46-.92z" style="fill:#ab6a22"/><path d="M25.65 14.84c-.88-1.43-12.85.28-13.65 2.56-1.2 3.47 1.66 2.81 2.73 4.29 1.13 1.57 5.05.16 6.96.17 2.56 0 2.05-2.25 3.1-2.71 1.9-.82 1.81-2.76.86-4.31z" style="opacity:.15;fill:#9c4900"/><radialGradient id="b" cx="47.072" cy="-146.054" r="6.968" fx="47.046" fy="-141.065" gradientTransform="matrix(.9582 -.088 -.1047 -.6969 -41.029 -81.547)" gradientUnits="userSpaceOnUse"><stop offset="0" style="stop-color:#ff562b"/><stop offset=".211" style="stop-color:#fd5229"/><stop offset=".429" style="stop-color:#f84523"/><stop offset=".651" style="stop-color:#ef3118"/><stop offset=".874" style="stop-color:#e3140a"/><stop offset="1" style="stop-color:#db0000"/></radialGradient><path d="M25.65 14.45c-1.03-.73-1.35-2.1-2.22-2.1-2.49-.02-3.12-1.34-4.59-.47-2.17 1.29-2.76 1.08-3.97 1.53-1.78.67-2.29 1.56-2.86 3.6-1 3.54 1.66 2.81 2.73 4.29 1.13 1.57 5.05.16 6.96.17 2.56 0 2.05-2.25 3.1-2.71 1.89-.82 2.33-3.26.85-4.31z" style="fill:url(#b)"/><path d="M58.13 33c.61-2.17-2.02-2.9-4.73-3.08-3.25-.23-3.23 1.19-5.55 1.69-1.74.38-1.81 2.45-1.84 4.34-.03 1.56 1.26 1.56 1.53 3.02.22 1.22 1.7 1.09 2.94 1.67 3.24 1.49 3.87-1.18 5.5-1.68 1.96-.6.54-2.12 1.67-3 1.1-.85.17-1.84.48-2.96z" style="opacity:.15;fill:#9c4900"/><radialGradient id="c" cx="80.885" cy="-170.073" r="6.476" fx="80.861" fy="-165.436" gradientTransform="matrix(.9007 -.2703 -.3216 -.6551 -75.557 -55.339)" gradientUnits="userSpaceOnUse"><stop offset="0" style="stop-color:#ffa200"/><stop offset=".263" style="stop-color:#ff9e00"/><stop offset=".535" style="stop-color:#ff9100"/><stop offset=".81" style="stop-color:#ff7d00"/><stop offset="1" style="stop-color:#ff6a00"/></radialGradient><path d="M58.13 32.49c.61-2.17-2.02-2.9-4.73-3.08-3.25-.23-3.23 1.19-5.55 1.69-1.74.38-1.81 2.45-1.84 4.34-.02 1.56 1.27 1.56 1.53 3.02.22 1.22 1.7 1.09 2.94 1.67 3.24 1.49 3.87-1.18 5.5-1.68 1.96-.6.54-2.12 1.67-3 1.1-.85.17-1.84.48-2.96z" style="fill:url(#c)"/><path d="M46.97 41.74c-2.25-1.52-11.64 1.57-11.23 5.72.34 3.46 3.36 3.16 6.19 3.13 2.68-.04 3.8-2.6 5.66-2.76 1.74-.16 2.09-4.25-.62-6.09z" style="opacity:.15;fill:#9c4900"/><radialGradient id="d" cx="90.614" cy="-98.079" r="6.575" fx="90.589" fy="-93.372" gradientTransform="matrix(.9231 -.2777 -.2355 -.6626 -64.547 4.244)" gradientUnits="userSpaceOnUse"><stop offset="0" style="stop-color:#f20fea"/><stop offset=".247" style="stop-color:#ee0fe6"/><stop offset=".503" style="stop-color:#e10eda"/><stop offset=".763" style="stop-color:#cd0dc6"/><stop offset="1" style="stop-color:#b30bad"/></radialGradient><path d="M46.97 41.24c-2.69-1.92-2.38-1.13-4.25-1.5-2.71-.54-2.54 1.06-5.21 1.96-1.77.59-2.12 3-1.77 5.26.53 3.43 3.36 3.16 6.19 3.13 2.68-.04 3.8-2.6 5.66-2.76 1.74-.16 2.05-4.18-.62-6.09z" style="fill:url(#d)"/><path d="M26.31 55.1c.9 1.89 2.5.46 3.72.76 2.08.52 3.46-.73 3.43-2.11-.04-1.93 1.74-3.81.48-4.91-1.25-1.08-.73-2.5-2.62-3.9-2.35-1.74-5.74-2.78-8.08-.31-1.97 2.08.13 3.94-.17 6.31-.25 1.99 2.71 3.05 3.24 4.16z" style="opacity:.15;fill:#9c4900"/><radialGradient id="e" cx="787.591" cy="-481.013" r="7.035" fx="787.565" fy="-475.975" gradientTransform="matrix(-.7555 -.6097 .4598 -.525 844.588 276.215)" gradientUnits="userSpaceOnUse"><stop offset="0" style="stop-color:#a7ff19"/><stop offset=".209" style="stop-color:#a3fc18"/><stop offset=".426" style="stop-color:#96f414"/><stop offset=".647" style="stop-color:#82e70e"/><stop offset=".868" style="stop-color:#65d406"/><stop offset="1" style="stop-color:#50c700"/></radialGradient><path d="M26.31 54.67c.9 1.89 2.5.46 3.72.76 2.08.52 3.46-.73 3.43-2.11-.04-1.93 1.74-3.81.48-4.91-1.25-1.08-.73-2.5-2.62-3.9-2.35-1.74-5.74-2.78-8.08-.31-1.97 2.08.13 3.94-.17 6.31-.25 2 2.71 3.05 3.24 4.16z" style="fill:url(#e)"/><path d="M18.98 30.61c1.24-2.03-1.29-3.6-3.09-5.11-1.98-1.65-7.99-1.03-9.48 2.1-.89 1.87-1.28 6.03 3.1 6.18 1.99.07 2.5 1.57 5.8.76 4.17-1.03 2.38-1.81 3.67-3.93z" style="opacity:.15;fill:#9c4900"/><radialGradient id="f" cx="42.127" cy="-347.656" r="7.028" fx="42.101" fy="-342.624" gradientTransform="matrix(.9173 .297 .1658 -.6844 31.911 -221.455)" gradientUnits="userSpaceOnUse"><stop offset="0" style="stop-color:#00a2ff"/><stop offset=".201" style="stop-color:#009efb"/><stop offset=".41" style="stop-color:#0294ee"/><stop offset=".622" style="stop-color:#0481da"/><stop offset=".835" style="stop-color:#0768bd"/><stop offset="1" style="stop-color:#0a50a1"/></radialGradient><path d="M18.98 30.23c1.24-2.03-1.29-3.6-3.09-5.11-1.98-1.65-7.99-1.03-9.48 2.1-.89 1.87-1.28 6.03 3.1 6.18 1.99.07 2.5 1.57 5.8.76 4.17-1.03 2.38-1.81 3.67-3.93z" style="fill:url(#f)"/><path d="M10.75 38.73c-4.1 2.23-2.26 5.03-2.29 6.97-.02 1.42 1.86 3.1 5.22 2.27 2.24-.55 2.72.91 5.11-1.15 1.86-1.61 3.67-4.81 1.25-7.38-2.47-2.63-5.39-2.83-9.29-.71z" style="opacity:.15;fill:#9c4900"/><radialGradient id="g" cx="139.122" cy="-60.303" r="6.123" fx="139.099" fy="-55.919" gradientTransform="matrix(.9043 -.4066 -.4852 -.7268 -140.71 54.517)" gradientUnits="userSpaceOnUse"><stop offset="0" style="stop-color:#ffeb7d"/><stop offset=".174" style="stop-color:#ffea79"/><stop offset=".354" style="stop-color:#ffe56c"/><stop offset=".537" style="stop-color:#ffde58"/><stop offset=".722" style="stop-color:#ffd43b"/><stop offset=".907" style="stop-color:#ffc716"/><stop offset="1" style="stop-color:#ffbf00"/></radialGradient><path d="M20.09 38.98c-2.48-2.64-5.4-2.84-9.29-.72-4.1 2.23-2.26 5.03-2.29 6.97-.02 1.42 1.86 3.1 5.22 2.27 2.24-.55 2.72.91 5.11-1.15 1.86-1.6 3.67-4.8 1.25-7.37z" style="fill:url(#g)"/></svg>