<svg xmlns="http://www.w3.org/2000/svg" xml:space="preserve" viewBox="0 0 64 64"><radialGradient id="a" cx="32" cy="49.122" r="23.789" gradientTransform="matrix(1 0 0 3 0 -98.244)" gradientUnits="userSpaceOnUse"><stop offset=".5" style="stop-color:#e8000e"/><stop offset="1" style="stop-color:#cf0000"/></radialGradient><path fill="url(#a)" d="M57.771 36.344H6.229c0 9.963-5.35 22.771-5.35 22.771 0 1.211 3.407 2.141 8.627 2.785H54.49c5.223-.645 8.631-1.573 8.631-2.785 0 0-5.35-12.808-5.35-22.771z"/><path fill="#DDE4E8" d="M54.494 61.9c-3.775.717-13.783 1.1-13.783 1.1l-1.615-26.771h12.449s.146 14.56 2.949 25.671zm-44.988 0c3.775.717 13.784 1.1 13.784 1.1l1.613-26.771H12.456s-.147 14.56-2.95 25.671z"/><path fill="#FF000E" d="M.892 58.076C.061 59.782 0 60.847 0 60.847c0 .983 3.503 1.737 8.871 2.261h46.256C60.496 62.584 64 61.83 64 60.847c0 0-.061-1.064-.891-2.771-1.676.559-4.727 1.01-8.621 1.351-2.037 4.351-42.776 3.539-44.96.001-3.902-.341-6.96-.791-8.636-1.352z"/><path fill="#EFF6FA" d="M9.517 59.428c-.31 1.264-.646 3.68-.646 3.68 3.882.581 14.173.892 14.173.892l.174-3.873c-5.052-.125-9.799-.357-13.701-.699zm31.266.699L40.957 64s10.291-.311 14.172-.893c0 0-.336-2.415-.645-3.68-3.904.344-8.648.575-13.701.7z"/><path fill="#E30000" d="M32 8.533C30.685 19.675 16.871 36.229 0 36.229h64c-16.873 0-30.686-16.554-32-27.696z"/><linearGradient id="b" x1="32" x2="32" y1="37.067" y2="11.734" gradientUnits="userSpaceOnUse"><stop offset="0" style="stop-color:#dbe3e6"/><stop offset=".882" style="stop-color:#f2f8fc"/><stop offset="1" style="stop-color:#f6fbff"/></linearGradient><path fill="url(#b)" d="M32 11.733c-4.697 20.304-19.545 24.495-19.545 24.495s5.904 1.887 12.45 0c0 0 6.172-4.562 7.096-20.447.926 15.885 7.096 20.447 7.096 20.447 6.547 1.887 12.449 0 12.449 0S36.697 32.038 32 11.733z"/><path fill="#1A1626" d="M32 39.188 20.654 64h22.692z"/><linearGradient id="c" x1="16.283" x2="32" y1="51.621" y2="51.621" gradientUnits="userSpaceOnUse"><stop offset="0" style="stop-color:#cf0000"/><stop offset=".136" style="stop-color:#dd0004"/><stop offset=".5" style="stop-color:#ff000e"/></linearGradient><path fill="url(#c)" d="M20.679 64s-2.612 0-4.396-5.59c0 0 4.411-.621 15.716-19.168C32 39.245 26.406 64 20.679 64z"/><linearGradient id="d" x1="32" x2="47.717" y1="51.621" y2="51.621" gradientUnits="userSpaceOnUse"><stop offset=".5" style="stop-color:#ff000e"/><stop offset=".864" style="stop-color:#dd0004"/><stop offset="1" style="stop-color:#cf0000"/></linearGradient><path fill="url(#d)" d="M43.32 64s2.613 0 4.396-5.59c0 0-4.41-.621-15.717-19.168C32 39.245 37.594 64 43.32 64z"/><linearGradient id="e" x1="37.52" x2="46.435" y1="7.246" y2="7.246" gradientUnits="userSpaceOnUse"><stop offset=".109" style="stop-color:#cf0000"/><stop offset=".196" style="stop-color:#d70002"/><stop offset=".48" style="stop-color:#ed0009"/><stop offset=".753" style="stop-color:#fa000d"/><stop offset="1" style="stop-color:#ff000e"/></linearGradient><path fill="url(#e)" d="M37.52 4.22v6.052c2.855-.038 6.063-1.047 8.916-3.025-2.854-.039-6.061-1.048-8.916-3.027z"/><linearGradient id="f" x1="32.292" x2="39.732" y1="6.725" y2="6.725" gradientUnits="userSpaceOnUse"><stop offset="0" style="stop-color:#cf0000"/><stop offset=".272" style="stop-color:#dd0004"/><stop offset="1" style="stop-color:#ff000e"/></linearGradient><path fill="url(#f)" d="M39.732 10.054a11.693 11.693 0 0 0-7.44 0V4.002c2.381-.81 5.059-.81 7.44 0v6.052z"/><linearGradient id="g" x1="31.184" x2="32.816" y1="8.102" y2="8.102" gradientUnits="userSpaceOnUse"><stop offset="0" style="stop-color:#9ca4a6"/><stop offset=".076" style="stop-color:#b6bec0"/><stop offset=".169" style="stop-color:#ced6d8"/><stop offset=".267" style="stop-color:#dfe7e9"/><stop offset=".373" style="stop-color:#eaf1f4"/><stop offset=".5" style="stop-color:#edf4f7"/><stop offset="1" style="stop-color:#9ca4a6"/></linearGradient><path fill="url(#g)" d="M31.184 3.818v8.375c0 .487 1.632.488 1.632.001V3.819c0-.231-1.632-.232-1.632-.001z"/><radialGradient id="h" cx="31.592" cy="1.088" r="2.093" gradientUnits="userSpaceOnUse"><stop offset="0" style="stop-color:#edf4f7"/><stop offset=".191" style="stop-color:#e7eef1"/><stop offset=".457" style="stop-color:#d5dcdf"/><stop offset=".766" style="stop-color:#b7bfc1"/><stop offset="1" style="stop-color:#9ca4a6"/></radialGradient><circle cx="32" cy="1.632" r="1.633" fill="url(#h)"/><linearGradient id="i" x1="31.433" x2="32.568" y1="3.546" y2="3.546" gradientUnits="userSpaceOnUse"><stop offset="0" style="stop-color:#9ca4a6"/><stop offset=".022" style="stop-color:#a2aaac"/><stop offset=".126" style="stop-color:#bac2c4"/><stop offset=".237" style="stop-color:#cbd3d5"/><stop offset=".356" style="stop-color:#d5dde0"/><stop offset=".5" style="stop-color:#d8e0e3"/><stop offset="1" style="stop-color:#9ca4a6"/></linearGradient><path fill="url(#i)" d="M31.433 3.168v.629c0 .169 1.135.17 1.135 0v-.629h-1.135z"/><path fill="#FF000E" d="M0 36.229c0 2.457 2.79 4.449 6.229 4.449 3.44 0 6.225-1.992 6.225-4.449H0zm64 0c0 2.457-2.789 4.449-6.229 4.449s-6.227-1.992-6.227-4.449H64zm-39.096 0c0 2.457 3.658 4.449 7.096 4.449s7.096-1.992 7.096-4.449H24.904z"/><path fill="#FFF" d="M12.454 36.229c0 2.457 2.79 4.449 6.229 4.449s6.221-1.992 6.221-4.449h-12.45zm39.091 0c0 2.457-2.789 4.449-6.229 4.449s-6.221-1.992-6.221-4.449h12.45z"/></svg>