<svg xmlns="http://www.w3.org/2000/svg" xml:space="preserve" viewBox="0 0 64 64"><path fill="#6E8189" d="M51.762 31.143c-.87 3.822-1.33 7.443-.94 12.785 2.419-1.248 3.979.054 4.189-.146 2.973-2.827 1.996-11.798-.158-12.351-.373-.097-.923.683-3.091-.288z"/><path fill="#E6EBEF" d="M52.167 31.511c-.87 3.821-.305 11.922-.305 11.922.425.256 2.039.346 2.248.146 2.974-2.827 1.801-11.595-.353-12.147-.373-.098-1.59-.289-1.59.079z"/><path fill="#302C3B" d="M12.335 5.99c-.521 1.505-1.806-.155-1.548-.913.423-.663 1.548.913 1.548.913zm40.091 19.572c-1.07-1.607 1.488-1.595 2.032-.787.33.891-2.032.787-2.032.787zM42.45 8.018c-1.874-.519.064-2.168 1.012-1.911.84.459-1.012 1.911-1.012 1.911zM27.384 2.707c-1.338.883-1.34-1.207-.669-1.654.742-.275.669 1.654.669 1.654z"/><path fill="#CFD8DD" d="M11.34 5.863c-.586.979.369 14.25 1.539 26.687 0-13.735-1.892-25.433-.543-26.56 17.499-8.902 45.569-2.346 39.962 37.443C58.979 16.622 41.663-8.104 11.34 5.863z"/><path fill="#1A1626" d="M59.074 62.818c.426-2.04-3.568-2.58-3.994-.537-.394 1.896 3.6 2.435 3.994.537z"/><path fill="#302C3B" d="M59.206 49.412c.759-18.193-5.194-62.883-48.457-44.948-1.393.579-2.31 2.02-.419 1.205C52.52-12.51 57.257 31.159 56.498 48.61l2.708.802z"/><linearGradient id="a" x1="54.111" x2="61" y1="51.264" y2="51.264" gradientUnits="userSpaceOnUse"><stop offset=".164" style="stop-color:#916958"/><stop offset=".338" style="stop-color:#8b6453"/><stop offset=".578" style="stop-color:#795546"/><stop offset=".855" style="stop-color:#5c3e31"/><stop offset="1" style="stop-color:#4a2f24"/></linearGradient><path fill="url(#a)" d="M55.136 42.327c-.326 9.659.085 8-1.013 17.58l-.006.021c-.225 2.564 5.833 3.167 5.911 1.953 1.127-9.922.705-8.421.972-18.173-.2-4.781-5.331-4.495-5.864-1.381z"/><path fill="#4E5E67" d="M27.384 2.707c-1.376 1.978-1.662-.825-.99-1.273.743-.274.017 1.145.588 1.269l.402.004zM12.335 5.99c.122 2.398-1.828.342-1.568-.417.422-.664.715.899 1.247.655l.321-.238z"/><linearGradient id="b" x1="27.467" x2="27.489" y1="1.73" y2=".158" gradientUnits="userSpaceOnUse"><stop offset="0" style="stop-color:#bac3c6"/><stop offset=".191" style="stop-color:#c4cccf"/><stop offset=".666" style="stop-color:#d6dee1"/><stop offset="1" style="stop-color:#dde4e8"/></linearGradient><path fill="url(#b)" d="m24.734 1.72 4.913.029L30.224 0l-4.979.244-.511 1.476z"/><linearGradient id="c" x1="11.493" x2="10.55" y1="5.46" y2="4.269" gradientUnits="userSpaceOnUse"><stop offset="0" style="stop-color:#bac3c6"/><stop offset=".191" style="stop-color:#c4cccf"/><stop offset=".666" style="stop-color:#d6dee1"/><stop offset="1" style="stop-color:#dde4e8"/></linearGradient><path fill="url(#c)" d="M12.591 3.239 8.528 5.468l.898.957 4.315-1.878z"/><path fill="#4E5E67" d="M42.45 8.018c-2.923.31-.541-2.157.404-1.902.84.458-1.051.918-.717 1.535l.313.367zm9.976 17.544c-2.411-1.659 1.022-1.979 1.567-1.175.331.891-1.401.012-1.559.694l-.008.481z"/><linearGradient id="d" x1="44.685" x2="43.133" y1="5.346" y2="6.739" gradientUnits="userSpaceOnUse"><stop offset="0" style="stop-color:#dde4e8"/><stop offset=".56" style="stop-color:#cbd3d7"/><stop offset="1" style="stop-color:#bac3c6"/></linearGradient><path fill="url(#d)" d="m41.218 5.007 3.698 3.201 1.835-1.269-3.967-2.988-1.566 1.056z"/><linearGradient id="e" x1="56.484" x2="53.59" y1="23.929" y2="24.4" gradientUnits="userSpaceOnUse"><stop offset="0" style="stop-color:#dde4e8"/><stop offset=".356" style="stop-color:#dae1e5"/><stop offset=".667" style="stop-color:#cfd7da"/><stop offset=".962" style="stop-color:#bdc6c9"/><stop offset="1" style="stop-color:#bac3c6"/></linearGradient><path fill="url(#e)" d="M57.203 26.517 55.68 21.51l-2.817.303 1.265 5.063 3.075-.359z"/><path fill="#B3C2C6" d="M50.821 43.928c-3.674-.49-3.01-12.785.94-12.785 3.175 0 3.203 13.338-.94 12.785z"/><path fill="#6E8189" d="M48.397 35.453s-.503 2.373-.356 4.076c.559.128 8.597-.123 9.032-.171.641-.071.573-4.719-.195-4.717-.482.002-7.787.72-8.481.812z"/><path fill="#302C3B" d="M50.374 39.394c-1.39-.156-1.138-4.076.354-4.076 1.202-.001 1.212 4.251-.354 4.076zm6.252-4.431c-.437 0-.51 1.145-.104 1.19.457.051.454-1.19.104-1.19zm.111 2.777c-.436 0-.51 1.146-.104 1.191.458.051.454-1.191.104-1.191z"/><path fill="#B3C2C6" d="M50.445 36.544c-6.827-.212-1.338 5.033-8.994 4.844-.353-.01-.352 1.375 0 1.39 9.1.384 3.64-4.884 8.994-4.724.383.011.383-1.497 0-1.51z"/><linearGradient id="f" x1="38.978" x2="38.978" y1="44.062" y2="40.049" gradientUnits="userSpaceOnUse"><stop offset="0" style="stop-color:#4a2f24"/><stop offset=".075" style="stop-color:#55382c"/><stop offset=".295" style="stop-color:#6f4d3f"/><stop offset=".52" style="stop-color:#825d4d"/><stop offset=".752" style="stop-color:#8d6655"/><stop offset="1" style="stop-color:#916958"/></linearGradient><path fill="url(#f)" d="M35.63 44.062c2.183 0 5.305-.399 7.855-.813.646-.104.753-2.533.101-2.588-2.836-.232-5.94-.611-7.794-.611-2.317-.001-2.577 4.012-.162 4.012z"/><linearGradient id="g" x1="11.168" x2="20.327" y1="-120.135" y2="-120.135" gradientTransform="rotate(90 -70.667 -36.504)" gradientUnits="userSpaceOnUse"><stop offset="0" style="stop-color:#004e7a"/><stop offset="1" style="stop-color:#2289c7"/></linearGradient><path fill="url(#g)" d="M21.637 54.362c-.081-2.436-3.424-3.838-5.302-5.491-1.478-1.303-1.302-2.546-.835-3.399H9.405c.287 1.102.134 2.124-.801 3.201-1.532 1.529-4.227 3.144-4.313 5.689 2.853-3.37 14.552-3.299 17.346 0z"/><path fill="#004C78" d="M14.984 50.472s-.551-4.736-.82-4.629c-.722.282.82 4.629.82 4.629zm-.982.417s-.48-5.208-.706-4.98c-.598.595.706 4.98.706 4.98zm-1.151-.058s.086-5.362-.195-5.279c-.753.213.195 5.279.195 5.279zm-1.029.323s.397-5.882.146-5.678c-.669.539-.146 5.678-.146 5.678zm-1.436-.175s1.375-5.519 1.079-5.497c-.789.048-1.079 5.497-1.079 5.497zm-.953-.923s1.641-4.679 1.341-4.534c-.797.382-1.341 4.534-1.341 4.534z"/><linearGradient id="h" x1="-1.037" x2="9.822" y1="-112.879" y2="-112.879" gradientTransform="rotate(90 -70.667 -36.504)" gradientUnits="userSpaceOnUse"><stop offset="0" style="stop-color:#004e7a"/><stop offset=".208" style="stop-color:#02527f"/><stop offset=".453" style="stop-color:#095d8d"/><stop offset=".716" style="stop-color:#136fa5"/><stop offset=".992" style="stop-color:#2288c6"/><stop offset="1" style="stop-color:#2289c7"/></linearGradient><path fill="url(#h)" d="M4.582 33.127s-2.186 5.315-1.419 10.459c.085.57.256.422.429.214 2.099-2.536 4.823-.31 4.823-.31L4.582 33.127z"/><linearGradient id="i" x1="3.574" x2="3.574" y1="-122.418" y2="-132.726" gradientTransform="rotate(90 -70.667 -36.504)" gradientUnits="userSpaceOnUse"><stop offset="0" style="stop-color:#2289c7"/><stop offset="1" style="stop-color:#004e7a"/></linearGradient><path fill="url(#i)" d="M15.26 46.294c4.451-1.377 8.875-6.448 10.268-12.442.354-1.526-2.88-1.093-4.572-4.671 1.174 7.571-6.066 17.227-5.696 17.113z"/><path fill="#004C78" d="M15.334 44.835c.066.325.035.311.097.637 1.173-.104 3.869-1.736 3.869-1.736s-2.684 1.243-3.966 1.099zm1.171-1.125c.066.324.036.311.098.636 1.171-.104 3.867-1.735 3.867-1.735s-2.684 1.243-3.965 1.099zm1.303-1.255c.066.324.036.311.098.637 1.173-.104 3.868-1.736 3.868-1.736s-2.685 1.242-3.966 1.099zm.476-1.267c.076.371.041.354.112.727 1.34-.118 4.424-1.985 4.424-1.985s-3.07 1.421-4.536 1.258zm.797-1.451c.077.371.041.354.112.728 1.341-.119 4.425-1.985 4.425-1.985s-3.071 1.421-4.537 1.257zm.71-1.554c.076.37.041.354.111.728 1.342-.119 4.426-1.986 4.426-1.986s-3.071 1.421-4.537 1.258zm.52-1.489c.076.371.042.355.111.729 1.342-.12 4.426-1.986 4.426-1.986s-3.07 1.421-4.537 1.257zm.386-1.457c.076.371.042.356.112.729 1.341-.12 4.425-1.986 4.425-1.986s-3.07 1.422-4.537 1.257zm-.386-1.093c.076.371.042.355.111.728 1.342-.119 4.426-1.985 4.426-1.985s-3.07 1.422-4.537 1.257zm-1.23-.695c.077.37.041.354.112.728 1.341-.119 4.425-1.986 4.425-1.986s-3.071 1.421-4.537 1.258zm-1.039-.736c.077.37.041.354.112.727 1.341-.118 4.425-1.985 4.425-1.985s-3.07 1.422-4.537 1.258zm-11.23 9.183c-.077-.32-.069-.322-.143-.646-3.062.456-3.347 2.658-3.347 2.658s.544-1.886 3.49-2.012z"/><path fill="#004C78" d="M6.666 40.963c-.077-.321-.069-.323-.143-.646-3.062.456-3.347 3.054-3.347 3.054s.544-2.281 3.49-2.408z"/><path fill="#004C78" d="M6.666 39.971c-.077-.32-.069-.323-.143-.646-3.062.456-3.347 3.053-3.347 3.053s.544-2.28 3.49-2.407z"/><path fill="#004C78" d="M6.666 39.002c-.077-.323-.069-.325-.143-.647-3.062.458-3.347 3.054-3.347 3.054s.544-2.281 3.49-2.407z"/><path fill="#004C78" d="M6.577 38.002c-.077-.322-.069-.324-.142-.647-3.062.457-3.347 3.053-3.347 3.053s.542-2.279 3.489-2.406z"/><path fill="#004C78" d="M6.666 36.876c-.077-.322-.069-.324-.143-.646-3.062.457-3.347 3.054-3.347 3.054s.544-2.282 3.49-2.408z"/><path fill="#004C78" d="M6.884 35.466c-.077-.322-.069-.324-.143-.647-3.062.458-3.347 3.055-3.347 3.055s.544-2.282 3.49-2.408z"/><linearGradient id="j" x1=".937" x2=".937" y1="-111.2" y2="-128.899" gradientTransform="rotate(90 -70.667 -36.504)" gradientUnits="userSpaceOnUse"><stop offset=".248" style="stop-color:#bdebff"/><stop offset=".259" style="stop-color:#b9e9fe"/><stop offset=".429" style="stop-color:#78c4ed"/><stop offset=".583" style="stop-color:#44a7e0"/><stop offset=".716" style="stop-color:#1f92d7"/><stop offset=".823" style="stop-color:#0886d1"/><stop offset=".891" style="stop-color:#0081cf"/></linearGradient><path fill="url(#j)" d="M21.209 29.181c-1.569-4.548-5.91-4.9-6.939-6.5-.817-1.267-2.367 1.4-1.525 5.367-1.594-1.807-1.404-5.4-2.015-5.016-.957.6-2.219 1.298-3.352 2.274h.001S4.028 27.58 4.028 32.93c0 11.143 7.044 14.91 8.372 14.91 3.67-.001 11.393-11.168 8.809-18.659z"/><path fill="#006DAE" d="M18.56 31.608c-4.779 2.858-8.734 1.904-10.864-2.65.085 2.914 5.299 8.063 10.864 2.65z" opacity=".5"/><path fill="#006DAE" d="M19.605 36.429c-.7 0-.7-.988 0-.988s.7.988 0 .988zm-2.288.65c-.7 0-.7-.988 0-.988s.7.988 0 .988zm.919 2.146c-.454 0-.454-.64 0-.64.452 0 .452.64 0 .64zm1.893-6.138c-.452 0-.452-.64 0-.64.454 0 .454.64 0 .64zm-1.893 1.409c-.454 0-.454-.64 0-.64.452 0 .452.64 0 .64zm-1.063 7.214c-.699 0-.699-.988 0-.988s.699.988 0 .988z"/><path fill="#1A1626" d="M18.262 27.956c0-1.675-1.451-2.331-2.581-2.184-.84.109-.84 4.263 0 4.371 1.222.154 2.581-.658 2.581-2.187z"/><path fill="#FFF" d="M17.858 27.956c0-1.208-.917-2.184-2.052-2.184-.978 0-2.051.976-2.051 2.184 0 1.207 1.251 2.187 2.051 2.187 1.135-.001 2.052-.981 2.052-2.187z"/><path fill="#1A1626" d="M17.459 27.746a1.632 1.632 0 1 1-3.263-.001 1.632 1.632 0 0 1 3.263.001z"/><path fill="#FFF" d="M16.643 27.616c-.592 0-.592-.892 0-.892.595.001.595.892 0 .892z"/><linearGradient id="k" x1="253.787" x2="261.359" y1="-467.012" y2="-462.649" gradientTransform="rotate(59.709 -304.08 -426.58)" gradientUnits="userSpaceOnUse"><stop offset=".103" style="stop-color:#0069a3;stop-opacity:0"/><stop offset="1" style="stop-color:#0069a3"/></linearGradient><path fill="url(#k)" d="M11.588 34.662c-3.734-4.627-3.752 12.939 2.262 7.896 3.788-3.177-.006-5.1-2.262-7.896z"/><linearGradient id="l" x1="1.681" x2="5.826" y1="-120.665" y2="-120.665" gradientTransform="rotate(90 -70.667 -36.504)" gradientUnits="userSpaceOnUse"><stop offset=".103" style="stop-color:#0069a3;stop-opacity:0"/><stop offset="1" style="stop-color:#0069a3"/></linearGradient><path fill="url(#l)" d="M15.042 39.989s-2.937-4.394-3.071-4.134c-.363.687 3.071 4.134 3.071 4.134z"/><linearGradient id="m" x1="2.228" x2="6.794" y1="-120.147" y2="-120.147" gradientTransform="rotate(90 -70.667 -36.504)" gradientUnits="userSpaceOnUse"><stop offset=".103" style="stop-color:#0069a3;stop-opacity:0"/><stop offset="1" style="stop-color:#0069a3"/></linearGradient><path fill="url(#m)" d="M14.566 40.958s-3.141-4.899-3.179-4.548c-.106.93 3.179 4.548 3.179 4.548z"/><linearGradient id="n" x1="2.248" x2="7.388" y1="-119.379" y2="-119.379" gradientTransform="rotate(90 -70.667 -36.504)" gradientUnits="userSpaceOnUse"><stop offset=".103" style="stop-color:#0069a3;stop-opacity:0"/><stop offset="1" style="stop-color:#0069a3"/></linearGradient><path fill="url(#n)" d="M13.714 41.552s-2.818-5.375-2.976-5.133c-.422.634 2.976 5.133 2.976 5.133z"/><linearGradient id="o" x1="2.554" x2="8.29" y1="-118.849" y2="-118.849" gradientTransform="rotate(90 -70.667 -36.504)" gradientUnits="userSpaceOnUse"><stop offset=".103" style="stop-color:#0069a3;stop-opacity:0"/><stop offset="1" style="stop-color:#0069a3"/></linearGradient><path fill="url(#o)" d="M13.155 42.453s-2.876-6.066-2.947-5.722c-.187.911 2.947 5.722 2.947 5.722z"/><linearGradient id="p" x1="2.852" x2="8.928" y1="-118.08" y2="-118.08" gradientTransform="rotate(90 -70.667 -36.504)" gradientUnits="userSpaceOnUse"><stop offset=".103" style="stop-color:#0069a3;stop-opacity:0"/><stop offset="1" style="stop-color:#0069a3"/></linearGradient><path fill="url(#p)" d="M12.035 43.092s-1.983-6.26-2.184-6.072c-.535.495 2.184 6.072 2.184 6.072z"/><linearGradient id="q" x1="3.276" x2="8.547" y1="-117.269" y2="-117.269" gradientTransform="rotate(90 -70.667 -36.504)" gradientUnits="userSpaceOnUse"><stop offset=".103" style="stop-color:#0069a3;stop-opacity:0"/><stop offset="1" style="stop-color:#0069a3"/></linearGradient><path fill="url(#q)" d="M10.859 42.711s-1.343-5.573-1.478-5.259c-.362.828 1.478 5.259 1.478 5.259z"/></svg>