<svg xmlns="http://www.w3.org/2000/svg" xml:space="preserve" style="enable-background:new 0 0 64 64" viewBox="0 0 64 64"><linearGradient id="a" x1="32" x2="32" y1="69.205" y2="-2.079" gradientUnits="userSpaceOnUse"><stop offset="0" style="stop-color:#8f8fa9"/><stop offset="1" style="stop-color:#6e6e87"/></linearGradient><path d="M54 58.129V5.871C54 3.733 52.287 2 50.174 2H13.826C11.713 2 10 3.733 10 5.871v52.258C10 60.267 11.713 62 13.826 62h36.348C52.287 62 54 60.267 54 58.129z" style="fill:url(#a)"/><linearGradient id="b" x1="32" x2="32" y1="60.949" y2="3.051" gradientUnits="userSpaceOnUse"><stop offset=".345" style="stop-color:#c90100"/><stop offset="1" style="stop-color:#ff3b3b"/></linearGradient><path d="M52.983 58.054c0 1.593-1.287 2.895-2.86 2.895H13.877c-1.573 0-2.861-1.302-2.861-2.895V5.946c0-1.592 1.288-2.895 2.861-2.895h36.244c1.574 0 2.861 1.303 2.861 2.895v52.108z" style="fill:url(#b)"/><linearGradient id="c" x1="37.48" x2="30.483" y1="29.631" y2="49.655" gradientUnits="userSpaceOnUse"><stop offset="0" style="stop-color:#4e585e"/><stop offset=".209" style="stop-color:#41444e"/><stop offset=".468" style="stop-color:#343240"/><stop offset=".654" style="stop-color:#302c3b"/></linearGradient><path d="M10.957 58.129c0 1.597 1.29 2.903 2.87 2.903h36.347c1.578 0 2.87-1.306 2.87-2.903v-12.58S37.74 32 10.957 32v26.129z" style="fill:url(#c)"/><path d="M27.103 6.92c-6.63 0-12.001 5.373-12.001 12s5.372 12 12.001 12c6.627 0 11.999-5.372 11.999-12 0-6.627-5.372-12-11.999-12z" style="fill:#c21413"/><radialGradient id="d" cx="44.351" cy="1.85" r="12.276" gradientTransform="matrix(.974 0 0 .974 -18.015 13.764)" gradientUnits="userSpaceOnUse"><stop offset="0" style="stop-color:#fff"/><stop offset=".322" style="stop-color:#fbfbfc"/><stop offset=".666" style="stop-color:#eef0f2"/><stop offset="1" style="stop-color:#dadfe3"/></radialGradient><path d="M27.103 7.42c-6.353 0-11.501 5.15-11.501 11.5 0 6.351 5.148 11.5 11.501 11.5 6.35 0 11.499-5.149 11.499-11.5 0-6.35-5.148-11.5-11.499-11.5z" style="fill:url(#d)"/><linearGradient id="e" x1="121.477" x2="120.66" y1="-52.097" y2="-42.786" gradientTransform="rotate(4.318 -1049.942 -1285.686)" gradientUnits="userSpaceOnUse"><stop offset="0" style="stop-color:#4e585e"/><stop offset=".32" style="stop-color:#41444e"/><stop offset=".715" style="stop-color:#343240"/><stop offset="1" style="stop-color:#302c3b"/></linearGradient><path d="M36.507 43.971c-1.516-8.053-19.233-11.715-25.072-6.955-.018 7.37 21.965 15.81 25.072 6.955z" style="fill:url(#e)"/><linearGradient id="f" x1="-351.951" x2="-352.772" y1="277.379" y2="286.739" gradientTransform="rotate(-15.415 -1038.993 -1286.092)" gradientUnits="userSpaceOnUse"><stop offset="0" style="stop-color:#4e585e"/><stop offset=".32" style="stop-color:#41444e"/><stop offset=".715" style="stop-color:#343240"/><stop offset="1" style="stop-color:#302c3b"/></linearGradient><path d="M53.044 47.321c-3.805-6.078-22.274-7.805-25.193-.914 2.028 5.765 25.217 8.719 25.193.914z" style="fill:url(#f)"/><linearGradient id="g" x1="-40.349" x2="-41.065" y1="-105.855" y2="-97.686" gradientTransform="matrix(1.2037 .1495 -.1232 .9924 62.047 151.63)" gradientUnits="userSpaceOnUse"><stop offset="0" style="stop-color:#4e585e"/><stop offset=".32" style="stop-color:#41444e"/><stop offset=".715" style="stop-color:#343240"/><stop offset="1" style="stop-color:#302c3b"/></linearGradient><path d="M36.507 50.882c-1.654-7.143-17.08-11.28-23.36-6.167-.213 6.125 20.004 13.334 23.36 6.167z" style="fill:url(#g)"/><linearGradient id="h" x1="-547.708" x2="-548.423" y1="308.384" y2="316.54" gradientTransform="matrix(1.1514 -.3815 .3146 .9492 570.057 -455.872)" gradientUnits="userSpaceOnUse"><stop offset="0" style="stop-color:#4e585e"/><stop offset=".32" style="stop-color:#41444e"/><stop offset=".715" style="stop-color:#343240"/><stop offset="1" style="stop-color:#302c3b"/></linearGradient><path d="M49.881 50.778c-4.524-5.734-20.212-2.773-23.715 4.572 2.404 5.625 23.723 3.358 23.715-4.572z" style="fill:url(#h)"/><linearGradient id="i" x1="32.001" x2="32.001" y1="61.5" y2="2.5" gradientUnits="userSpaceOnUse"><stop offset="0" style="stop-color:#8f8fa9"/><stop offset="1" style="stop-color:#6e6e87"/></linearGradient><path d="M50.174 3.452c1.318 0 2.392 1.086 2.392 2.419v52.258c0 1.334-1.074 2.42-2.392 2.42H13.827c-1.32 0-2.392-1.085-2.392-2.42V5.871c0-1.333 1.073-2.42 2.392-2.42h36.347m.395-.951H13.432C11.82 2.5 10.5 3.828 10.5 5.45v53.1c0 1.623 1.32 2.95 2.932 2.95H50.57c1.612 0 2.931-1.327 2.931-2.95V5.45c0-1.622-1.32-2.95-2.931-2.95z" style="fill:url(#i)"/></svg>