<svg xmlns="http://www.w3.org/2000/svg" xml:space="preserve" style="enable-background:new 0 0 64 64" viewBox="0 0 64 64"><path d="M54.56 1.94h1.17v4.63h-1.17z" style="fill:#302c3b" transform="rotate(-45.025 55.149 4.25)"/><path d="M57.97 6.9h1.17v3.9h-1.17z" style="fill:#302c3b" transform="rotate(-45.025 58.557 8.847)"/><path d="m58.06 10.31 1.87.88.97-.97-.87-1.87zm-2.18 2.24 1.85.84.9-.89-1.49-1.21z" style="fill:#302c3b"/><path d="M52.84 4.28h1.17v4.63h-1.17z" style="fill:#302c3b" transform="rotate(-45.009 53.427 6.592)"/><path d="m53.82 5.02-1.86-.86-.96.97.85 1.85zm2.03-2.04-1.86-.85-.89.9 1.49 1.21z" style="fill:#302c3b"/><path d="M55.99 8.97h1.17v4.62h-1.17z" style="fill:#302c3b" transform="rotate(-44.992 56.58 11.28)"/><path d="m57.07 3.35 3.58 3.58L62 4.97 59.03 2z" style="fill:#ab5c10"/><linearGradient id="a" x1="37.035" x2="39.931" y1="30.699" y2="33.595" gradientTransform="translate(19.2 -25.829)" gradientUnits="userSpaceOnUse"><stop offset=".164" style="stop-color:#ea8800"/><stop offset=".353" style="stop-color:#e48402"/><stop offset=".604" style="stop-color:#d37806"/><stop offset=".889" style="stop-color:#b8650d"/><stop offset="1" style="stop-color:#ab5c10"/></linearGradient><path d="m52.56 8.54 3.91-2.9.41-1.11L60.71 2 62 3.29l-2.53 3.83-1.11.41-2.9 3.91z" style="fill:url(#a)"/><path d="m53.61 8.44 5.43-4.5 1.01 1.02-4.49 5.43z" style="fill:#ab5c10"/><radialGradient id="b" cx="300.559" cy="283.049" r="17.155" gradientTransform="matrix(.7071 .7073 -1.1254 1.1257 130.775 -491.959)" gradientUnits="userSpaceOnUse"><stop offset=".164" style="stop-color:#ff9400"/><stop offset=".321" style="stop-color:#f99001"/><stop offset=".531" style="stop-color:#e88504"/><stop offset=".769" style="stop-color:#cd730a"/><stop offset="1" style="stop-color:#ab5c10"/></radialGradient><path d="M26.65 56.28c.19-2.85 1.65-3.64 2.56-3.77 3.28-.47 2.59-1.55 1.9-1.89-3.81-1.86-.76-5.87-.11-6.75 2.36-3.16 6.34-.99 6.34-.99-.33-4.64 3.54-4.4 5.48-5.49 8.88-4.92 1.29-12.27-1.36-14.92-2.65-2.65-10-10.23-14.92-1.36-1.08 1.95-.84 5.81-5.48 5.48 0 0 2.17 3.98-.99 6.34-.88.65-4.89 3.7-6.75-.11-.34-.7-1.43-1.39-1.9 1.89-.13.91-.95 2.29-3.78 2.56-6.51.63-8.6 9.76.32 18.68 8.83 8.83 18.24 7.15 18.69.33z" style="fill:url(#b)"/><path d="M8.23 55.7c-5.72-5.72-6.55-11.12-5.42-14.26.78-2.18 2.56-3.56 4.87-3.78 3.48-.34 4.03-2.29 4.11-2.88.22-1.51.54-1.96.69-2.09l.01-.08.13.02c.11.02.27.18.36.37.23.47.51.87.82 1.19 1.02 1.02 2.97 1.68 6.49-.95 2.69-2.01 1.78-5.16 1.43-6.08l-.06-.16.17-.01c3.15-.11 3.86-2.34 4.43-4.13.19-.59.36-1.13.6-1.56 1.31-2.36 2.9-3.69 4.72-3.95 3.7-.52 7.64 3.42 9.32 5.1l.61.6c1.67 1.67 5.59 5.59 5.07 9.29-.26 1.82-1.58 3.41-3.95 4.72-.43.24-.97.41-1.55.6-1.81.58-4.04 1.29-4.14 4.44l-.01.17-.16-.06c-.92-.35-4.07-1.26-6.09 1.45-2.62 3.5-1.95 5.45-.93 6.47.31.31.71.59 1.19.82.17.09.32.25.35.3l.04.04-.02.07c-.02.05-.22.5-2.15.77-.62.09-2.65.66-2.88 4.12-.16 2.36-1.42 4.1-3.57 4.91-3.02 1.14-8.63.39-14.48-5.46zm4.38-22.8c-.11.13-.38.56-.57 1.91-.09.64-.67 2.74-4.33 3.1-2.21.21-3.91 1.53-4.66 3.62-1.1 3.07-.28 8.37 5.36 14 5.77 5.77 11.26 6.52 14.22 5.41 2.04-.77 3.25-2.43 3.41-4.69.25-3.65 2.43-4.25 3.09-4.35 1.35-.19 1.78-.46 1.91-.57a.597.597 0 0 0-.2-.14c-.5-.24-.92-.54-1.25-.87-1.09-1.09-1.82-3.16.91-6.8 2.02-2.71 5.1-1.98 6.22-1.59.19-3.18 2.56-3.94 4.29-4.49.58-.19 1.11-.36 1.52-.58 2.29-1.27 3.58-2.8 3.82-4.54.5-3.57-3.36-7.43-5-9.08l-.61-.6c-1.65-1.65-5.53-5.53-9.1-5.03-1.74.24-3.27 1.53-4.54 3.82-.23.4-.4.94-.58 1.5-.56 1.75-1.32 4.12-4.5 4.31.39 1.12 1.12 4.19-1.57 6.2-3.66 2.73-5.73 2.01-6.82.92-.33-.33-.63-.75-.87-1.25a.598.598 0 0 0-.15-.21z" style="fill:#302c3b"/><path d="M28.03 40.51c.33-.12.83-.2 1.18.16 2.67 2.67-6.27 7.05-4.5 8.81.39.39.73.29.92.18-.03-.22.03-.45.2-.62a.73.73 0 0 1 1.04 0 .725.725 0 0 1-.9 1.13c-.31.21-1.11.62-1.84-.12-2.53-2.52 6.14-7.24 4.54-8.85-.1-.1-.26-.11-.39-.09-.01.16-.08.33-.2.45a.73.73 0 0 1-1.04 0 .73.73 0 0 1 0-1.04c.26-.27.7-.27.99-.01zm-4.54-4.54c.11-.33.2-.82-.16-1.18-2.67-2.67-7.05 6.27-8.82 4.5-.39-.39-.29-.73-.18-.92.22.03.45-.03.62-.2a.73.73 0 0 0 0-1.04.73.73 0 0 0-1.04 0c-.25.25-.27.61-.09.9-.21.31-.62 1.11.11 1.84 2.52 2.52 7.24-6.14 8.85-4.53.1.1.11.26.1.39-.17.02-.33.08-.45.2a.73.73 0 0 0 0 1.04c.29.29.75.29 1.04 0 .27-.28.27-.71.02-1z" style="fill:#302c3b"/><linearGradient id="c" x1="99.615" x2="105.136" y1="237.18" y2="237.18" gradientTransform="rotate(45.001 331.23 56.41)" gradientUnits="userSpaceOnUse"><stop offset="0" style="stop-color:#5b666e"/><stop offset=".214" style="stop-color:#505760"/><stop offset=".627" style="stop-color:#322e3d"/><stop offset=".648" style="stop-color:#302c3b"/></linearGradient><path d="m26.64 33.46 3.9 3.9 25.02-26.97-1.95-1.95z" style="fill:url(#c)"/><path d="M20.4 38.9h1v8h-1z" style="fill:#302c3b" transform="rotate(-45.001 20.897 42.898)"/><path d="m19.58 47.88-.33-.38 3.72-3.26L58.44 6.2l.23.23L23.32 44.6zm-3.46-3.47 3.26-3.72L57.56 5.32l.24.24-38.06 35.48-3.24 3.7zm1.04 1.06 2.83-3.45L57.87 5.63l.23.23-37.74 36.5-2.81 3.42zm1.37 1.36-.32-.39 3.44-2.82L58.13 5.89l.24.24-36.38 37.86z" style="fill:#d6a57c"/><linearGradient id="d" x1="-8.813" x2="-3.725" y1="74.348" y2="79.435" gradientTransform="translate(19.2 -25.829)" gradientUnits="userSpaceOnUse"><stop offset="0" style="stop-color:#5b666e"/><stop offset=".214" style="stop-color:#505760"/><stop offset=".627" style="stop-color:#322e3d"/><stop offset=".648" style="stop-color:#302c3b"/></linearGradient><path d="M20.41 48.67s-2.75 2.19-3.7 2.88c-.54.39-4.36 2.26-7.62 5.53L6.91 54.9c3.27-3.27 5.14-7.08 5.53-7.62.69-.95 2.88-3.7 2.88-3.7l5.09 5.09z" style="fill:url(#d)"/><path d="m9.78 10.58 33.84 45.5 2.93 1.45L10.97 9.69z" style="fill:#ffe1bd"/><path d="m7.86 7.99 1.92 2.59 1.19-.89-3.66-4.92z" style="fill:#99a8ae"/><path d="m44.49 51.58 2.8 3.59.37-1.96-2.03-2.6z" style="fill:#302c3b"/><path d="M48.09 56.22 52.38 62l1.2-.89-4.71-6.32z" style="fill:#ab5c10"/><path d="m40.9 47 3.58 4.58 1.15-.97-3.76-4.5z" style="fill:#99a8ae"/><path d="m43.62 56.08 2.97 3.99s3.49-3.61 2.28-5.29c-.41-.57-1.22-1.58-1.22-1.58l-4.03 2.88z" style="fill:#302c3b"/><path d="M41.87 46.11S24.4 25.51 10.91 3.76C8.13 4.74 4.89 4 4.89 4l2.97 3.99s2.07-3.2 2.8-2.08C23.65 25.91 40.9 47 40.9 47l.97-.89z" style="fill:#ab5c10"/></svg>