<svg xmlns="http://www.w3.org/2000/svg" xml:space="preserve" style="enable-background:new 0 0 64 64" viewBox="0 0 64 64"><path d="M32.42 34.8a3.12 3.12 0 0 0 0 4.4 3.12 3.12 0 0 0 4.4 0c1.21-1.21 1.21-3.18 0-4.4s-3.19-1.22-4.4 0zm4.02 4.03a2.577 2.577 0 0 1-3.65 0 2.577 2.577 0 0 1 0-3.65 2.577 2.577 0 0 1 3.65 0c1.01 1 1.01 2.64 0 3.65zm13.6-21.34 2.04 2.04c1.01 1.01 1.3 2.36.29 3.37-1.01 1.01-2.36.72-3.37-.29l-2.04-2.04-.31.31 2.04 2.04c1.21 1.21 2.84 1.56 4.05.34 1.21-1.21.87-2.84-.34-4.05l-2.04-2.04-.32.32z" style="fill:#99a8ae"/><linearGradient id="a" x1="127.751" x2="122.247" y1="588.825" y2="581.605" gradientTransform="rotate(134.999 194.397 295.837)" gradientUnits="userSpaceOnUse"><stop offset="0" style="stop-color:#f2be22"/><stop offset=".6" style="stop-color:#e2981a"/><stop offset="1" style="stop-color:#d98416"/></linearGradient><path d="M40.67 45.98s2.33-2.34 3.4-3.41c1.25-1.25-.63-3.13-1.88-1.88-1.51 1.5-3.41 3.41-3.41 3.41-1.54 1.55-3.18-.1-1.64-1.65 0 0 2.14-2.15 3.4-3.41 1.25-1.25-.62-3.13-1.88-1.88-1.29 1.29-3.4 3.41-3.4 3.41-4.08 4.1 1.31 9.51 5.41 5.41z" style="fill:url(#a)"/><linearGradient id="b" x1="249.815" x2="250.801" y1="-19.326" y2="-19.326" gradientTransform="rotate(-45.001 213.587 274.55)" gradientUnits="userSpaceOnUse"><stop offset="0" style="stop-color:#f2be22"/><stop offset=".6" style="stop-color:#e2981a"/><stop offset="1" style="stop-color:#d98416"/></linearGradient><path d="m35.58 45.31.69-.69-8.35-8.36-.69.69z" style="fill:url(#b)"/><linearGradient id="c" x1="-94.184" x2="-93.199" y1="216.358" y2="216.358" gradientTransform="rotate(45.001 200.185 287.257)" gradientUnits="userSpaceOnUse"><stop offset="0" style="stop-color:#f2be22"/><stop offset=".6" style="stop-color:#e2981a"/><stop offset="1" style="stop-color:#d98416"/></linearGradient><path d="m37.99 33.15.69.7 8.36-8.36-.69-.69z" style="fill:url(#c)"/><linearGradient id="d" x1="-84.206" x2="-83.221" y1="216.011" y2="216.011" gradientTransform="rotate(45.001 200.185 287.257)" gradientUnits="userSpaceOnUse"><stop offset="0" style="stop-color:#f2be22"/><stop offset=".6" style="stop-color:#e2981a"/><stop offset="1" style="stop-color:#d98416"/></linearGradient><path d="m45.29 39.96.7.7 8.36-8.36-.7-.69z" style="fill:url(#d)"/><radialGradient id="e" cx="266.024" cy="-19.326" r="20.462" gradientTransform="matrix(.7071 -.7072 .3932 .3933 -137.64 225.396)" gradientUnits="userSpaceOnUse"><stop offset=".867" style="stop-color:#f7b618"/><stop offset=".925" style="stop-color:#f8b214"/><stop offset=".982" style="stop-color:#f9a808"/><stop offset="1" style="stop-color:#faa303"/></radialGradient><path d="M45.98 14.86 28.06 32.79c-8.98 8.99 2.72 20.69 11.69 11.7l17.92-17.94c8.98-8.99-2.71-20.68-11.69-11.69zm9.32 9.32L37.38 42.11c-5.72 5.74-12.67-1.21-6.95-6.95l17.92-17.94c5.72-5.73 12.67 1.22 6.95 6.96z" style="fill:url(#e)"/><linearGradient id="f" x1="7.05" x2="10.004" y1="86.897" y2="86.897" gradientTransform="rotate(-45.001 -59.957 14.853)" gradientUnits="userSpaceOnUse"><stop offset="0" style="stop-color:#f2be22"/><stop offset=".6" style="stop-color:#e2981a"/><stop offset="1" style="stop-color:#d98416"/></linearGradient><path d="m39.7 19.75 2.09-2.09-2.67-2.67-2.08 2.09z" style="fill:url(#f)"/><linearGradient id="g" x1="270.229" x2="274.314" y1="-17.864" y2="-17.864" gradientTransform="rotate(-45.001 213.587 274.55)" gradientUnits="userSpaceOnUse"><stop offset="0" style="stop-color:#f7dd45"/><stop offset=".163" style="stop-color:#f1cd3c"/><stop offset=".725" style="stop-color:#e09821"/><stop offset="1" style="stop-color:#d98416"/></linearGradient><path d="m54.99 35.85 2.88-2.87-16.23-16.25-2.87 2.87z" style="fill:url(#g)"/><linearGradient id="h" x1="269.426" x2="275.139" y1="-33.221" y2="-33.221" gradientTransform="rotate(-45.001 213.587 274.55)" gradientUnits="userSpaceOnUse"><stop offset=".467" style="stop-color:#cfd8dd"/><stop offset=".576" style="stop-color:#bac5ca"/><stop offset=".707" style="stop-color:#a7b5bb"/><stop offset=".846" style="stop-color:#9dabb1"/><stop offset="1" style="stop-color:#99a8ae"/></linearGradient><path d="m36.17 18.16 4.03-4.04-1.44-1.44-4.03 4.04z" style="fill:url(#h)"/><linearGradient id="i" x1=".792" x2="3.747" y1="86.898" y2="86.898" gradientTransform="rotate(-45.001 -59.957 14.853)" gradientUnits="userSpaceOnUse"><stop offset="0" style="stop-color:#f2be22"/><stop offset=".6" style="stop-color:#e2981a"/><stop offset="1" style="stop-color:#d98416"/></linearGradient><path d="m35.28 24.18 2.08-2.09-2.66-2.67-2.09 2.08z" style="fill:url(#i)"/><linearGradient id="j" x1="263.97" x2="268.057" y1="-17.864" y2="-17.864" gradientTransform="rotate(-45.001 213.587 274.55)" gradientUnits="userSpaceOnUse"><stop offset="0" style="stop-color:#f7dd45"/><stop offset=".163" style="stop-color:#f1cd3c"/><stop offset=".725" style="stop-color:#e09821"/><stop offset="1" style="stop-color:#d98416"/></linearGradient><path d="m50.57 40.28 2.87-2.88-16.22-16.25-2.88 2.88z" style="fill:url(#j)"/><linearGradient id="k" x1="263.167" x2="268.881" y1="-33.221" y2="-33.221" gradientTransform="rotate(-45.001 213.587 274.55)" gradientUnits="userSpaceOnUse"><stop offset=".467" style="stop-color:#cfd8dd"/><stop offset=".576" style="stop-color:#bac5ca"/><stop offset=".707" style="stop-color:#a7b5bb"/><stop offset=".846" style="stop-color:#9dabb1"/><stop offset="1" style="stop-color:#99a8ae"/></linearGradient><path d="m31.74 22.59 4.04-4.05-1.44-1.43-4.04 4.04z" style="fill:url(#k)"/><linearGradient id="l" x1="-5.465" x2="-2.511" y1="86.898" y2="86.898" gradientTransform="rotate(-45.001 -59.957 14.853)" gradientUnits="userSpaceOnUse"><stop offset="0" style="stop-color:#f2be22"/><stop offset=".6" style="stop-color:#e2981a"/><stop offset="1" style="stop-color:#d98416"/></linearGradient><path d="m30.85 28.6 2.09-2.09-2.67-2.67-2.08 2.09z" style="fill:url(#l)"/><linearGradient id="m" x1="257.713" x2="261.798" y1="-17.863" y2="-17.863" gradientTransform="rotate(-45.001 213.587 274.55)" gradientUnits="userSpaceOnUse"><stop offset="0" style="stop-color:#f7dd45"/><stop offset=".163" style="stop-color:#f1cd3c"/><stop offset=".725" style="stop-color:#e09821"/><stop offset="1" style="stop-color:#d98416"/></linearGradient><path d="m46.14 44.7 2.88-2.87-16.23-16.25-2.87 2.87z" style="fill:url(#m)"/><linearGradient id="n" x1="270.233" x2="274.3" y1="-6.104" y2="-6.104" gradientTransform="rotate(-45.001 213.587 274.55)" gradientUnits="userSpaceOnUse"><stop offset="0" style="stop-color:#cfd8dd"/><stop offset=".444" style="stop-color:#b9c5ca"/><stop offset="1" style="stop-color:#99a8ae"/></linearGradient><path d="m55.78 35.85 2.1-2.1c.21-.21.21-.57 0-.78L55 35.85c.21.22.56.22.78 0z" style="fill:url(#n)"/><linearGradient id="o" x1="263.974" x2="268.044" y1="-6.104" y2="-6.104" gradientTransform="rotate(-45.001 213.587 274.55)" gradientUnits="userSpaceOnUse"><stop offset="0" style="stop-color:#cfd8dd"/><stop offset=".444" style="stop-color:#b9c5ca"/><stop offset="1" style="stop-color:#99a8ae"/></linearGradient><path d="m51.35 40.28 2.1-2.1c.21-.21.21-.57 0-.78l-2.88 2.88c.21.21.56.21.78 0z" style="fill:url(#o)"/><linearGradient id="p" x1="257.716" x2="261.785" y1="-6.104" y2="-6.104" gradientTransform="rotate(-45.001 213.587 274.55)" gradientUnits="userSpaceOnUse"><stop offset="0" style="stop-color:#cfd8dd"/><stop offset=".444" style="stop-color:#b9c5ca"/><stop offset="1" style="stop-color:#99a8ae"/></linearGradient><path d="m46.93 44.7 2.1-2.1c.21-.21.21-.57 0-.78l-2.88 2.88c.21.22.56.22.78 0z" style="fill:url(#p)"/><linearGradient id="q" x1="256.91" x2="262.623" y1="-33.221" y2="-33.221" gradientTransform="rotate(-45.001 213.587 274.55)" gradientUnits="userSpaceOnUse"><stop offset=".467" style="stop-color:#cfd8dd"/><stop offset=".576" style="stop-color:#bac5ca"/><stop offset=".707" style="stop-color:#a7b5bb"/><stop offset=".846" style="stop-color:#9dabb1"/><stop offset="1" style="stop-color:#99a8ae"/></linearGradient><path d="m27.32 27.01 4.03-4.04-1.43-1.44-4.04 4.04z" style="fill:url(#q)"/><linearGradient id="r" x1="29.453" x2="29.453" y1="94.719" y2="89.283" gradientTransform="rotate(-45.001 -59.957 14.853)" gradientUnits="userSpaceOnUse"><stop offset="0" style="stop-color:#99a8ae"/><stop offset=".154" style="stop-color:#9dabb1"/><stop offset=".293" style="stop-color:#a7b5bb"/><stop offset=".424" style="stop-color:#bac5ca"/><stop offset=".533" style="stop-color:#cfd8dd"/></linearGradient><path d="M56.43 3.72c-.33.33-.16 1.84-.16 1.84l-2.5 2.49 2.17 2.17 2.5-2.49s1.51.16 1.84-.17l2.43-2.43-3.85-3.83s-1.27 1.27-2.43 2.42z" style="fill:url(#r)"/><linearGradient id="s" x1="297.397" x2="297.397" y1="-21.806" y2="-28.919" gradientTransform="rotate(-45.001 213.587 274.55)" gradientUnits="userSpaceOnUse"><stop offset="0" style="stop-color:#99a8ae"/><stop offset=".108" style="stop-color:#9eadb3"/><stop offset=".244" style="stop-color:#aebbc0"/><stop offset=".393" style="stop-color:#c7d1d6"/><stop offset=".432" style="stop-color:#cfd8dd"/></linearGradient><path d="m63.75 5.28-.92.92c-.33.33-.85.33-1.18 0L57.8 2.35a.839.839 0 0 1 0-1.19l.93-.92c.33-.33.85-.33 1.18 0l3.84 3.85c.33.33.33.86 0 1.19z" style="fill:url(#s)"/><path d="m57.52 8.81-2.33-2.33c-.2-.2.28-.67.48-.48L58 8.33c.19.2-.28.68-.48.48z" style="fill:#99a8ae"/><linearGradient id="t" x1="261.109" x2="261.109" y1="-5.729" y2="-45.014" gradientTransform="rotate(-45.001 213.587 274.55)" gradientUnits="userSpaceOnUse"><stop offset=".369" style="stop-color:#d98416"/><stop offset=".41" style="stop-color:#de941f"/><stop offset=".492" style="stop-color:#e7af2c"/><stop offset=".583" style="stop-color:#eec337"/><stop offset=".684" style="stop-color:#f3d23f"/><stop offset=".806" style="stop-color:#f6da44"/><stop offset="1" style="stop-color:#f7dd45"/></linearGradient><path d="M.71 35.5s15.61 5.37 22.17 1.37c3.66-2.22 31.23-30.05 31.23-30.05l3.05 3.06S29.34 37.46 27.12 41.12c-4 6.56 1.36 22.17 1.36 22.17L.71 35.5z" style="fill:url(#t)"/><path d="M28.3 63.88C31.35 60.83 3.17 32.63.12 35.68c-2.21 2.21 25.97 30.41 28.18 28.2z" style="fill:#d98416"/><linearGradient id="u" x1="229.201" x2="234.397" y1="-25.371" y2="-25.371" gradientTransform="rotate(-45.001 213.587 274.55)" gradientUnits="userSpaceOnUse"><stop offset="0" style="stop-color:#e69800"/><stop offset=".145" style="stop-color:#e19500"/><stop offset=".307" style="stop-color:#d48c00"/><stop offset=".477" style="stop-color:#be7d00"/><stop offset=".653" style="stop-color:#9e6800"/><stop offset=".831" style="stop-color:#774e00"/><stop offset="1" style="stop-color:#4a3000"/></linearGradient><path d="M28.02 63.83c2.84-2.84-25-30.71-27.84-27.87-2.06 2.06 25.78 29.93 27.84 27.87z" style="fill:url(#u)"/><linearGradient id="v" x1="280.738" x2="275.234" y1="-9.383" y2="-16.603" gradientTransform="rotate(-45.001 213.587 274.55)" gradientUnits="userSpaceOnUse"><stop offset="0" style="stop-color:#d98416"/><stop offset=".275" style="stop-color:#e09821"/><stop offset=".837" style="stop-color:#f1cd3c"/><stop offset="1" style="stop-color:#f7dd45"/></linearGradient><path d="M53.98 21.86s-2.33 2.34-3.4 3.41c-1.25 1.25.62 3.13 1.88 1.88 1.51-1.51 3.4-3.41 3.4-3.41 1.54-1.55 3.18.1 1.64 1.65 0 0-2.14 2.15-3.4 3.41-1.25 1.25.62 3.13 1.88 1.88 1.29-1.29 3.4-3.41 3.4-3.41 4.09-4.1-1.3-9.51-5.4-5.41z" style="fill:url(#v)"/></svg>