<svg xmlns="http://www.w3.org/2000/svg" xml:space="preserve" viewBox="0 0 64 64"><linearGradient id="a" x1="22.9" x2="33.1" y1="7.113" y2="7.113" gradientUnits="userSpaceOnUse"><stop offset="0" style="stop-color:#f90"/><stop offset=".25" style="stop-color:#ff9500"/><stop offset=".521" style="stop-color:#f80"/><stop offset=".801" style="stop-color:#ff7200"/><stop offset="1" style="stop-color:#ff5e00"/></linearGradient><path fill="url(#a)" d="M33.1 12.226V5.114A3.123 3.123 0 0 0 29.985 2h-3.971A3.123 3.123 0 0 0 22.9 5.114v7.112h10.2z"/><linearGradient id="b" x1="363.103" x2="363.103" y1="-559.104" y2="-572.678" gradientTransform="rotate(-90 484.752 -109.139)" gradientUnits="userSpaceOnUse"><stop offset="0" style="stop-color:#89969c"/><stop offset=".5" style="stop-color:#b4bdc2"/><stop offset="1" style="stop-color:#89969c"/></linearGradient><path fill="url(#b)" d="M21.213 11.7h13.574v1.62H21.213z"/><linearGradient id="c" x1="69.99" x2="69.99" y1="-625.42" y2="-645.137" gradientTransform="matrix(0 -.5502 .8836 0 589.331 52.302)" gradientUnits="userSpaceOnUse"><stop offset="0" style="stop-color:#99a8ae"/><stop offset=".5" style="stop-color:#c1cacf"/><stop offset="1" style="stop-color:#99a8ae"/></linearGradient><path fill="url(#c)" d="M19.289 13.049h17.422v1.489H19.289z"/><path fill="#A0A7AB" d="M50 58.643A3.368 3.368 0 0 1 46.642 62H9.358A3.368 3.368 0 0 1 6 58.643V17.359A3.368 3.368 0 0 1 9.358 14h37.283A3.368 3.368 0 0 1 50 17.359v41.284z"/><path fill="#02D6B4" d="M47.677 57.461c0 1.311-1.155 2.381-2.568 2.381H10.891c-1.413 0-2.567-1.07-2.567-2.381V18.539c0-1.31 1.154-2.381 2.567-2.381h34.218c1.413 0 2.568 1.071 2.568 2.381v38.922z"/><path fill="#02FFD6" d="M12.316 18.325c-.916 0-.916-1.375 0-1.375.918 0 .918 1.375 0 1.375zM15.18 18c-.917 0-.917-1.375 0-1.375s.917 1.375 0 1.375zm5.725.567c-.917 0-.917-1.375 0-1.375s.917 1.375 0 1.375zm2.863-.93c-.917 0-.917-1.375 0-1.375s.917 1.375 0 1.375zm2.863 1.167c-.917 0-.917-1.375 0-1.375s.917 1.375 0 1.375zm1.432-.979c-.918 0-.918-1.375 0-1.375.916 0 .916 1.375 0 1.375zm2.862.863c-.917 0-.917-1.375 0-1.375s.917 1.375 0 1.375zm2.862-.176c-.917 0-.917-1.375 0-1.375s.917 1.375 0 1.375zm1.432-.795c-.917 0-.917-1.375 0-1.375s.917 1.375 0 1.375zm2.863.405c-.917 0-.917-1.375 0-1.375s.917 1.375 0 1.375zm-5.726-.688c-.539 0-.539-.809 0-.809s.54.809 0 .809zm10.02-.176c-.539 0-.539-.809 0-.809s.539.809 0 .809zm-2.863-.112c-.539 0-.539-.809 0-.809s.539.809 0 .809zm7.157 1.083c-.539 0-.539-.809 0-.809s.539.809 0 .809zm-17.177-.971c-.539 0-.539-.809 0-.809s.539.809 0 .809zm-4.294.405c-.539 0-.539-.809 0-.809s.539.809 0 .809zm-5.725-.405c-.539 0-.539-.809 0-.809s.539.809 0 .809zm-1.432.916c-.844 0-.844-1.266 0-1.266s.844 1.266 0 1.266zm-1.431-1.028c-.539 0-.539-.809 0-.809s.539.809 0 .809z"/><path fill="#02FFD6" d="M22.337 17.354c-.539 0-.539-.809 0-.809s.539.809 0 .809zm-8.589 0c-.539 0-.539-.809 0-.809s.539.809 0 .809zM9.454 18c-.539 0-.539-.809 0-.809s.539.809 0 .809zm1.432-.808c-.539 0-.539-.809 0-.809s.539.809 0 .809zm25.764.525c-.539 0-.539-.809 0-.809s.539.809 0 .809zm4.294.633c-.917 0-.917-1.375 0-1.375s.917 1.375 0 1.375zm2.863.567c-.916 0-.916-1.375 0-1.375.918 0 .918 1.375 0 1.375zM45.238 18c-.917 0-.917-1.375 0-1.375s.917 1.375 0 1.375zm-1.43 39.707c.916 0 .916 1.375 0 1.375-.918 0-.918-1.375 0-1.375zm-2.864.324c.917 0 .917 1.375 0 1.375s-.917-1.375 0-1.375zm-5.725-.566c.917 0 .917 1.375 0 1.375s-.917-1.375 0-1.375zm-2.863.93c.917 0 .917 1.375 0 1.375s-.917-1.375 0-1.375zm-2.863-1.168c.917 0 .917 1.375 0 1.375s-.917-1.375 0-1.375zm-1.431.98c.918 0 .918 1.375 0 1.375-.916 0-.916-1.375 0-1.375zm-2.863-.863c.917 0 .917 1.375 0 1.375s-.917-1.375 0-1.375zm-2.862.176c.917 0 .917 1.375 0 1.375s-.917-1.375 0-1.375zm-1.432.794c.917 0 .917 1.375 0 1.375s-.917-1.375 0-1.375zm-2.863-.404c.917 0 .917 1.375 0 1.375s-.917-1.375 0-1.375zm5.726.688c.539 0 .539.809 0 .809s-.539-.809 0-.809zm-10.02.175c.539 0 .539.809 0 .809s-.539-.809 0-.809zm2.863.112c.539 0 .539.809 0 .809s-.539-.809 0-.809zm-7.157-1.082c.539 0 .539.809 0 .809s-.539-.809 0-.809zm17.177.97c.539 0 .539.809 0 .809s-.539-.809 0-.809zm4.294-.404c.539 0 .539.809 0 .809s-.539-.809 0-.809zm5.725.404c.539 0 .539.809 0 .809s-.539-.809 0-.809zm1.432-.916c.844 0 .844 1.266 0 1.266s-.844-1.266 0-1.266zm1.431 1.028c.539 0 .539.809 0 .809s-.539-.809 0-.809z"/><path fill="#02FFD6" d="M33.787 58.678c.539 0 .539.809 0 .809s-.539-.809 0-.809zm8.589 0c.539 0 .539.809 0 .809s-.539-.809 0-.809zm4.294-.647c.539 0 .539.809 0 .809s-.539-.809 0-.809zm-1.432.809c.539 0 .539.809 0 .809s-.539-.809 0-.809zm-25.764-.526c.539 0 .539.809 0 .809s-.539-.809 0-.809zm-4.294-.632c.917 0 .917 1.375 0 1.375s-.917-1.375 0-1.375zm-2.863-.567c.916 0 .916 1.375 0 1.375-.918 0-.918-1.375 0-1.375zm-1.431.916c.917 0 .917 1.375 0 1.375s-.917-1.375 0-1.375z"/><linearGradient id="d" x1="61" x2="61" y1="41.041" y2="34.959" gradientUnits="userSpaceOnUse"><stop offset="0" style="stop-color:#89969c"/><stop offset=".5" style="stop-color:#b4bdc2"/><stop offset="1" style="stop-color:#89969c"/></linearGradient><path fill="url(#d)" d="M59 34.959h4v6.082h-4z"/><linearGradient id="e" x1="-484.402" x2="-484.402" y1="53.829" y2="42.504" gradientTransform="matrix(.5502 0 0 .8836 323.311 -4.56)" gradientUnits="userSpaceOnUse"><stop offset="0" style="stop-color:#99a8ae"/><stop offset=".5" style="stop-color:#c1cacf"/><stop offset="1" style="stop-color:#99a8ae"/></linearGradient><path fill="url(#e)" d="M54.586 32.998H59v10.006h-4.414z"/><linearGradient id="f" x1="740.45" x2="740.45" y1="-1463.691" y2="-1459.469" gradientTransform="matrix(0 -10.4256 .4736 0 753.205 7747.912)" gradientUnits="userSpaceOnUse"><stop offset=".012" style="stop-color:#c1cacf"/><stop offset=".371" style="stop-color:#b6c1c6"/><stop offset="1" style="stop-color:#99a8ae"/></linearGradient><path fill="url(#f)" d="M62 19.514v16.972c0 .729-2 .729-2 0V19.514h2z"/><linearGradient id="g" x1="741.342" x2="741.342" y1="-1464.219" y2="-1458.941" gradientTransform="matrix(0 -10.4256 .4736 0 753.205 7747.912)" gradientUnits="userSpaceOnUse"><stop offset=".012" style="stop-color:#acb4b8"/><stop offset=".307" style="stop-color:#a0a8ad"/><stop offset=".845" style="stop-color:#7f8a8f"/><stop offset="1" style="stop-color:#748085"/></linearGradient><path fill="url(#g)" d="M59.75 17.278v2.857c0 .729 2.5.729 2.5 0v-2.857h-2.5z"/><radialGradient id="h" cx="-145.857" cy="70.688" r="4.98" gradientTransform="translate(159.161 -32.212) scale(.6797)" gradientUnits="userSpaceOnUse"><stop offset="0" style="stop-color:#ff5252"/><stop offset=".21" style="stop-color:#fc4e4e"/><stop offset=".438" style="stop-color:#f44141"/><stop offset=".673" style="stop-color:#e72b2b"/><stop offset=".913" style="stop-color:#d40e0d"/><stop offset="1" style="stop-color:#cc0100"/></radialGradient><circle cx="61" cy="17" r="3" fill="url(#h)"/><linearGradient id="i" x1="23.829" x2="32.173" y1="61.661" y2="14.339" gradientUnits="userSpaceOnUse"><stop offset="0" style="stop-color:#99a8ae"/><stop offset=".358" style="stop-color:#a9b6bc"/><stop offset="1" style="stop-color:#cfd8dd"/></linearGradient><path fill="url(#i)" d="M56 54.643A3.368 3.368 0 0 1 52.642 58H3.358A3.368 3.368 0 0 1 0 54.643V21.359A3.368 3.368 0 0 1 3.358 18h49.283A3.368 3.368 0 0 1 56 21.359v33.284z"/><path fill="#1A1626" d="M51.425 54.842H4.574c-1.433 0-1.433-33.684 0-33.684h46.851c1.432 0 1.432 33.684 0 33.684z"/><path fill="#FFF" d="M4.649 54.057h15.17c-1.575-10.436-1.575-21.676 0-32.112H4.649c-4 10.435-4 21.676 0 32.112z"/><path fill="#302C3B" d="M17.234 54.057a.266.266 0 0 0 .048-.109c.007-.033.496-2.922-2.6-3.908a.552.552 0 0 0 .025-.164.48.48 0 0 0-.083-.271.55.55 0 0 0-.463-.223c-.609 0-.954.125-1.303.252-2.068.518-3.522 1.885-3.954 3.695a6.328 6.328 0 0 0-.74-.047c-.951 0-1.667.266-2.111.775h11.181zm-4.602-3.467c-.02.824.282 1.539.903 2.139a5.097 5.097 0 0 0-.42.168c-.63-.662-.956-1.361-.976-2.088.152-.079.316-.153.493-.219zm-1.513.984c.121.568.386 1.109.798 1.615a4.19 4.19 0 0 0-.539.162 3.864 3.864 0 0 0-.773-.07c-.175 0-.343.01-.496.021.18-.65.526-1.241 1.01-1.728z"/><path fill="#CF0022" d="M16.657 54.057c-.046-.084-.088-.168-.147-.254-1.295-1.85-3.347-.529-3.583-.463-.157.045-1.45.088-2.087.717h5.817z"/><path fill="#529320" d="M11.731 50.539c-.09.07-.19.119-.29.176-.083 1.744 1.256 2.809 1.726 3.207 0 0 .215-.041.388-.148-.45-.383-1.952-1.503-1.824-3.235z"/><path fill="#E60026" d="M12.205 54.057c-.973-.777-2.596-.346-2.803-.346-.209 0-1.904-.424-2.843.346h5.646z"/><path fill="#449C00" d="M9.585 54.057c.139-1.895 1.487-3.621 3.991-4.078v-.174c-3.097.508-4.242 2.592-4.371 4.252h.38z"/><path fill="#449C00" d="M14.16 49.691c-.553 0-.835.113-1.18.236.079.051.092.127.121.154.175.053.57-.086 1.01 0 .227.046.262-.39.049-.39z"/><path fill="#449C00" d="M13.088 50.047c-.627 3.236 3.793 3.857 3.793 3.857s-2.173-2.99-3.793-3.857z"/><path fill="#56AB15" d="M13.088 50.047c1.437 1.012 3.793 3.857 3.793 3.857s.658-3.5-3.793-3.857z"/><path fill="#302C3B" d="M6.613 21.945c.027 1.436 1.416 2.525 1.491 2.582a.467.467 0 0 0 .552-.011c.01-.007.16-.134.357-.352.238.278.507.535.812.771 1.209.941 2.784 1.502 4.214 1.502.494 0 .957-.065 1.388-.193.451-.004 1.376-.048 1.735-.327.349-.271.411-1.111.423-1.345.405-.808.367-1.74-.059-2.627H6.613z"/><path fill="#FFDB00" d="M8.442 21.945c.019.944.574 1.944 1.653 2.783 1.544 1.198 3.655 1.73 5.255 1.222-.002 0 1.226.003 1.537-.241.271-.209.313-1.194.313-1.196.405-.769.361-1.691-.091-2.568H8.442z"/><path fill="#449C00" d="M8.129 21.945c.041 1.222.243 2.372.243 2.372s1.241-1.04 1.291-2.372H8.129z"/><path fill="#56AB15" d="M6.998 21.945c.034 1.343 1.374 2.372 1.374 2.372s-.116-1.147-.138-2.372H6.998z"/><path fill="#302C3B" d="M12.531 44.34H6.393s.481-4.473 3.957-7.43c0 0-3.779-1.172-4.884 1.854H4.043v-5.791h1.423v.634s3.782-2.499 7.909.303l.676-.387 2.229.029c0 .001-3.749 3.907-3.749 10.788z"/><linearGradient id="j" x1="4.469" x2="15.318" y1="38.48" y2="38.48" gradientUnits="userSpaceOnUse"><stop offset="0" style="stop-color:#ff000e"/><stop offset=".269" style="stop-color:#fa000c"/><stop offset=".605" style="stop-color:#ea0008"/><stop offset=".974" style="stop-color:#d10001"/><stop offset="1" style="stop-color:#cf0000"/></linearGradient><path fill="url(#j)" d="M12.023 43.834H7.012s.752-4.328 4.408-7.221c0 0-4.771-1.813-6.32 1.734h-.631v-4.871h.572v.875s4.531-2.897 8.334.215l.789-.537h1.154s-3.295 4.102-3.295 9.805z"/><path fill="#FFF" d="M20.415 54.057h15.17c1.214-10.436 1.214-21.676 0-32.112h-15.17c-1.215 10.435-1.215 21.676 0 32.112z"/><path fill="#302C3B" d="M26.405 51.996c-.769.359-1.464 1.086-1.989 2.061h7.599c-.663-1.043-1.321-1.709-2.037-2.057.632-.361 1.49-1.031.963-2.064-.073-.146-.283-.229-.478-.186a3.815 3.815 0 0 1-.565.068c-.037-.021-.076-.041-.114-.066-.381-.213-1.002-.494-1.868-.262-.023-.01-.047-.018-.072-.027-.45-.182-.908.018-1.192.188-.277.168-.406.23-.657.127a.492.492 0 0 0-.272-.033.422.422 0 0 0-.281.162c-.467.697-.113 1.447.963 2.089z"/><path fill="#DEB14E" d="M30.563 50.049c-1.073.221-2.19-.023-2.91-.311-.646-.262-.938.691-1.854.311.437 1.318 4.767 1.691 4.764 0z"/><path fill="#F5C456" d="M27.25 52.064c-.846.105-1.735.822-2.398 1.992h6.708c-.869-1.318-1.653-1.859-2.42-2.002.858-.408 1.942-.988 1.424-2.006-.736.527-1.021-.348-1.958-.348-1.059 0-2.006.994-2.808.348-.578.868.606 1.641 1.452 2.016z"/><path fill="#DEB14E" d="M28.251 52.316c.96-1.668.039-.93.235-2.131.097-.595-1.446-.285-.235 2.131zm-.52-.072c.039-.998-1.234-1.145-1.416-1.682-.131-.382-.689.354 1.416 1.682zm.698-.043c1.315-1.146.792-1.346 1.701-1.547.427-.093.001.94-1.701 1.547z"/><path fill="#DEB14E" d="M28.483 52.158c.946-.123 2.197.783 1.472.811-.445.017-.243-.586-1.472-.811z"/><path fill="#DEB14E" d="M28.34 52.17c.803.129.93.9.373.762-.34-.084.334-.379-.373-.762zm-.578-.027c-.945-.154-2.197.967-1.471.998.445.021.244-.723 1.471-.998zm.447.011c-.803.16-.906 1.188-.349 1.012.339-.107-.35-.512.349-1.012z"/><radialGradient id="k" cx="71.384" cy="-449.481" r="1.183" gradientTransform="matrix(.8374 0 0 .4083 -31.59 235.651)" gradientUnits="userSpaceOnUse"><stop offset="0" style="stop-color:#8f6654"/><stop offset=".42" style="stop-color:#8b6352"/><stop offset=".823" style="stop-color:#805b4b"/><stop offset="1" style="stop-color:#785647"/></radialGradient><path fill="url(#k)" d="M29.342 52.193a4.877 4.877 0 0 1-2.304 0c-.277-.068-.224-.318-.004-.26.611.178 1.688.178 2.299.002.218-.06.284.19.009.258z"/><path fill="#302C3B" d="M33.685 22.147c.002-.008.014-.084.024-.203H23.306c-.461.312-.747.784-.823 1.41-.105.867.188 1.619.846 2.174.682.575 1.725.905 2.857.905 1.145 0 2.198-.334 2.88-.903.304.07.629.106.963.106 1.307 0 2.618-.548 3.261-1.363.465-.591.554-1.266.26-1.941a.285.285 0 0 0 .135-.185z"/><path fill="#CF0022" d="M32.897 21.945h-4.923c-.561.274-.988.765-.686 1.67 1.116 3.342 7.692 1.299 5.66-1.605-.014-.025-.033-.042-.051-.065z"/><path fill="#E60026" d="M28.256 21.945h-4.241c-.566.183-1.051.588-1.154 1.436-.454 3.771 7.306 3.59 6.61 0-.164-.844-.657-1.252-1.215-1.436z"/><path fill="#302C3B" d="M30.371 44.34h-6.142s.483-4.473 3.956-7.43c0 0-3.777-1.172-4.881 1.854H21.88v-5.791h1.424v.634s3.781-2.499 7.909.303l.676-.387 2.228.029c0 .001-3.746 3.907-3.746 10.788z"/><linearGradient id="l" x1="22.305" x2="33.156" y1="38.48" y2="38.48" gradientUnits="userSpaceOnUse"><stop offset="0" style="stop-color:#ff000e"/><stop offset=".269" style="stop-color:#fa000c"/><stop offset=".605" style="stop-color:#ea0008"/><stop offset=".974" style="stop-color:#d10001"/><stop offset="1" style="stop-color:#cf0000"/></linearGradient><path fill="url(#l)" d="M29.861 43.834h-5.013s.752-4.328 4.41-7.221c0 0-4.772-1.813-6.323 1.734h-.631v-4.871h.575v.875s4.529-2.897 8.334.215l.789-.537h1.153c.001 0-3.294 4.102-3.294 9.805z"/><path fill="#FFF" d="M36.181 54.057h15.17c3.999-10.436 3.999-21.676 0-32.112h-15.17c1.575 10.435 1.575 21.676 0 32.112z"/><path fill="#302C3B" d="M39.227 52.512c-.039.117.014.238.134.314a.502.502 0 0 0 .427.043c.031-.012.063-.023.092-.037.299.434.603.84.909 1.225h7.979a42.147 42.147 0 0 0-.829-.441c-1.18-.615-2.629-1.369-4.081-2.549.007-.004.012-.008.018-.01.134-.066.199-.189.173-.311-.027-.121-.146-.217-.3-.248-.416-.078-.656-.254-.913-.438-.387-.279-.894-.59-1.733-.42a.743.743 0 0 0-.185-.164.692.692 0 0 0-.374-.096c-.262 0-.619.111-.757.316a.311.311 0 0 0 .028.402c.013.012.023.025.035.037-.83.549-.723 1.25-.643 1.777.034.231.067.447.02.6z"/><path fill="#8F4DAD" d="M41.26 54.057h6.796c-1.441-.756-3.333-1.678-5.193-3.377-1.086-1.266-3.712.1-3.141 1.236a20.254 20.254 0 0 0 1.538 2.141z"/><path fill="#297124" d="M40.658 49.715c-.139-.086-.633.076-.514.209.952 1.062.866.012.514-.209z"/><path fill="#449C00" d="M40.666 50.098c-1.799.668-.824 1.789-1.052 2.49 1.116-.398.712-1.754 1.234-2.236.707-.141 1.748.994 2.8.447-1.356-.26-1.231-1.352-2.982-.701z"/><path fill="#7AB51D" d="M40.814 52.365c2.194-1.332.449-2.531-.148-2.268-.924.405.296.839.148 2.268z"/><path fill="#302C3B" d="M49.939 24.833c-.392-.498-1.346-1.783-1.694-2.889h-7.068c-.467 1.391-1.956 3.084-1.974 3.105a.326.326 0 0 0-.046.068.432.432 0 0 0-.073.236c0 .941 3.526 1.082 5.629 1.082 2.104 0 5.63-.141 5.63-1.082 0-.138-.072-.338-.404-.52z"/><path fill="#FECD00" d="M41.568 21.945c-.467 1.483-2.05 3.271-2.05 3.271l10.268-.015s-1.499-1.776-1.94-3.256h-6.278z"/><path fill="#F59E01" d="M49.958 25.354c0 1.049-10.494 1.049-10.494 0 0-1.151 10.494-1.151 10.494 0z"/><path fill="#211D2D" d="M49.439 25.395c0 .844-9.456.844-9.456 0 0-.929 9.456-.929 9.456 0z"/><path fill="#F59E01" d="M42.946 24.712c.143 1.807 3.387 1.807 3.531 0a28.888 28.888 0 0 0-3.531 0z"/><path fill="#302C3B" d="M48.209 44.34h-6.14s.483-4.473 3.957-7.43c0 0-3.777-1.172-4.882 1.854H39.72v-5.791h1.424v.634s3.78-2.499 7.91.303l.676-.387 2.229.029c0 .001-3.75 3.907-3.75 10.788z"/><linearGradient id="m" x1="40.147" x2="50.996" y1="38.48" y2="38.48" gradientUnits="userSpaceOnUse"><stop offset="0" style="stop-color:#ff000e"/><stop offset=".269" style="stop-color:#fa000c"/><stop offset=".605" style="stop-color:#ea0008"/><stop offset=".974" style="stop-color:#d10001"/><stop offset="1" style="stop-color:#cf0000"/></linearGradient><path fill="url(#m)" d="M47.702 43.834h-5.013s.754-4.328 4.41-7.221c0 0-4.772-1.813-6.323 1.734h-.63v-4.871h.574v.875s4.528-2.897 8.334.215l.788-.537h1.153c.001 0-3.293 4.102-3.293 9.805z"/><linearGradient id="n" x1="28" x2="28" y1="54.137" y2="21.865" gradientUnits="userSpaceOnUse"><stop offset="0" style="stop-color:#1a1626"/><stop offset=".057" style="stop-color:#1a1626;stop-opacity:.8587"/><stop offset=".4" style="stop-color:#1a1626;stop-opacity:0"/><stop offset=".6" style="stop-color:#1a1626;stop-opacity:0"/><stop offset=".944" style="stop-color:#1a1626;stop-opacity:.8587"/><stop offset="1" style="stop-color:#1a1626"/></linearGradient><path fill="url(#n)" d="M54.35 38c0-8.864-2.999-16.135-2.999-16.135H4.649s-3 7.354-3 16.135c0 8.824 3 16.137 3 16.137H51.35c.001 0 3-7.231 3-16.137z"/></svg>