<svg xmlns="http://www.w3.org/2000/svg" xml:space="preserve" style="enable-background:new 0 0 64 64" viewBox="0 0 64 64"><linearGradient id="a" x1="39.254" x2="39.254" y1="4" y2="51.827" gradientUnits="userSpaceOnUse"><stop offset="0" style="stop-color:#21d3ff"/><stop offset=".011" style="stop-color:#20d2ff"/><stop offset=".315" style="stop-color:#0ec5ff"/><stop offset=".636" style="stop-color:#03beff"/><stop offset="1" style="stop-color:#0bf"/></linearGradient><path d="M58.945 4.037c-.464-.458-38.477 3.423-39.058 3.996-.38.376-.645 17.047.07 39.034.061 1.864 4.142 6.165 4.062 4.302-.73-17.08-.427-30.584-.056-31.808.254-.842 30.828-4.016 30.828-3.465 0 .585-.422 10.498-.328 27.184.01 1.865 3.727 5.911 3.708 4.047-.258-24.79 1.116-42.952.774-43.29z" style="fill:url(#a)"/><radialGradient id="b" cx="138.076" cy="48.533" r="8.19" fx="134.065" fy="43.212" gradientTransform="matrix(1.0775 0 0 .8476 -100.048 7.399)" gradientUnits="userSpaceOnUse"><stop offset="0" style="stop-color:#21d3ff"/><stop offset=".369" style="stop-color:#1ed1ff"/><stop offset=".684" style="stop-color:#13c9ff"/><stop offset=".98" style="stop-color:#02bcff"/><stop offset="1" style="stop-color:#0bf"/></radialGradient><ellipse cx="48.729" cy="48.533" rx="9.578" ry="7.425" style="fill:url(#b)"/><radialGradient id="c" cx="106.381" cy="52.575" r="8.19" fx="102.37" fy="47.254" gradientTransform="matrix(1.0775 0 0 .8476 -100.048 8.015)" gradientUnits="userSpaceOnUse"><stop offset="0" style="stop-color:#21d3ff"/><stop offset=".369" style="stop-color:#1ed1ff"/><stop offset=".684" style="stop-color:#13c9ff"/><stop offset=".98" style="stop-color:#02bcff"/><stop offset="1" style="stop-color:#0bf"/></radialGradient><ellipse cx="14.578" cy="52.575" rx="9.578" ry="7.425" style="fill:url(#c)"/></svg>