<svg xmlns="http://www.w3.org/2000/svg" xml:space="preserve" viewBox="0 0 64 64"><path fill="#B3C2C6" d="M58 2H6c-1.1 0-2 .899-2 2v56c0 1.1.9 2 2 2h10c1.1 0 2-.9 2-2 0 1.1.9 2 2 2h10c1.1 0 2-.9 2-2 0 1.1.9 2 2 2h10c1.1 0 2-.9 2-2 0 1.1.9 2 2 2h10c1.1 0 2-.9 2-2V4c0-1.101-.9-2-2-2z"/><linearGradient id="a" x1="53" x2="53" y1="59" y2="3.001" gradientUnits="userSpaceOnUse"><stop offset="0" style="stop-color:#fff"/><stop offset=".273" style="stop-color:#f8f9fa"/><stop offset=".671" style="stop-color:#e4e9ec"/><stop offset="1" style="stop-color:#cfd8dd"/></linearGradient><path fill="url(#a)" d="M59 57c0 1.1-.9 2-2 2h-8c-1.1 0-2-.9-2-2V5c0-1.101.9-2 2-2h8c1.1 0 2 .899 2 2v52z"/><linearGradient id="b" x1="39" x2="39" y1="59" y2="3.001" gradientUnits="userSpaceOnUse"><stop offset="0" style="stop-color:#fff"/><stop offset=".273" style="stop-color:#f8f9fa"/><stop offset=".671" style="stop-color:#e4e9ec"/><stop offset="1" style="stop-color:#cfd8dd"/></linearGradient><path fill="url(#b)" d="M45 57c0 1.1-.9 2-2 2h-8c-1.1 0-2-.9-2-2V5c0-1.101.9-2 2-2h8c1.1 0 2 .899 2 2v52z"/><linearGradient id="c" x1="25" x2="25" y1="59" y2="3.001" gradientUnits="userSpaceOnUse"><stop offset="0" style="stop-color:#fff"/><stop offset=".273" style="stop-color:#f8f9fa"/><stop offset=".671" style="stop-color:#e4e9ec"/><stop offset="1" style="stop-color:#cfd8dd"/></linearGradient><path fill="url(#c)" d="M31 57c0 1.1-.9 2-2 2h-8c-1.1 0-2-.9-2-2V5c0-1.101.9-2 2-2h8c1.1 0 2 .899 2 2v52z"/><linearGradient id="d" x1="11" x2="11" y1="59" y2="3.001" gradientUnits="userSpaceOnUse"><stop offset="0" style="stop-color:#fff"/><stop offset=".273" style="stop-color:#f8f9fa"/><stop offset=".671" style="stop-color:#e4e9ec"/><stop offset="1" style="stop-color:#cfd8dd"/></linearGradient><path fill="url(#d)" d="M17 57c0 1.1-.9 2-2 2H7c-1.1 0-2-.9-2-2V5c0-1.101.9-2 2-2h8c1.1 0 2 .899 2 2v52z"/><linearGradient id="e" x1="42" x2="50" y1="26.124" y2="26.124" gradientUnits="userSpaceOnUse"><stop offset="0" style="stop-color:#5b666e"/><stop offset=".045" style="stop-color:#576169"/><stop offset=".101" style="stop-color:#4c525c"/><stop offset=".161" style="stop-color:#3a3a47"/><stop offset=".188" style="stop-color:#302c3b"/></linearGradient><path fill="url(#e)" d="M50 39c0 1.1-.9 2-2 2h-4c-1.1 0-2-.9-2-2V12c0-1.003 8-1.003 8 0v27z"/><linearGradient id="f" x1="46" x2="46" y1="36" y2="12.001" gradientUnits="userSpaceOnUse"><stop offset="0" style="stop-color:#5b666e"/><stop offset=".231" style="stop-color:#515862"/><stop offset="1" style="stop-color:#302c3b"/></linearGradient><path fill="url(#f)" d="M49 34c0 1.1-.9 2-2 2h-2c-1.1 0-2-.9-2-2V12h6v22z"/><linearGradient id="g" x1="28" x2="36" y1="26.124" y2="26.124" gradientUnits="userSpaceOnUse"><stop offset="0" style="stop-color:#5b666e"/><stop offset=".045" style="stop-color:#576169"/><stop offset=".101" style="stop-color:#4c525c"/><stop offset=".161" style="stop-color:#3a3a47"/><stop offset=".188" style="stop-color:#302c3b"/></linearGradient><path fill="url(#g)" d="M36 39c0 1.1-.9 2-2 2h-4c-1.1 0-2-.9-2-2V12c0-1.003 8-1.003 8 0v27z"/><linearGradient id="h" x1="32.001" x2="32.001" y1="36" y2="12.001" gradientUnits="userSpaceOnUse"><stop offset="0" style="stop-color:#5b666e"/><stop offset=".231" style="stop-color:#515862"/><stop offset="1" style="stop-color:#302c3b"/></linearGradient><path fill="url(#h)" d="M35 34c0 1.1-.9 2-2 2h-2c-1.1 0-2-.9-2-2V12h6v22z"/><linearGradient id="i" x1="13" x2="21" y1="26.124" y2="26.124" gradientUnits="userSpaceOnUse"><stop offset="0" style="stop-color:#5b666e"/><stop offset=".045" style="stop-color:#576169"/><stop offset=".101" style="stop-color:#4c525c"/><stop offset=".161" style="stop-color:#3a3a47"/><stop offset=".188" style="stop-color:#302c3b"/></linearGradient><path fill="url(#i)" d="M21 39c0 1.1-.9 2-2 2h-4c-1.1 0-2-.9-2-2V12c0-1.003 8-1.003 8 0v27z"/><linearGradient id="j" x1="17" x2="17" y1="36" y2="12.001" gradientUnits="userSpaceOnUse"><stop offset="0" style="stop-color:#5b666e"/><stop offset=".231" style="stop-color:#515862"/><stop offset="1" style="stop-color:#302c3b"/></linearGradient><path fill="url(#j)" d="M20 34c0 1.1-.9 2-2 2h-2c-1.1 0-2-.9-2-2V12h6v22z"/><linearGradient id="k" x1="32.001" x2="32.001" y1="12" y2="2" gradientUnits="userSpaceOnUse"><stop offset=".455" style="stop-color:#302c3b"/><stop offset=".665" style="stop-color:#322e3d"/><stop offset=".781" style="stop-color:#383644"/><stop offset=".875" style="stop-color:#424450"/><stop offset=".955" style="stop-color:#505861"/><stop offset="1" style="stop-color:#5b666e"/></linearGradient><path fill="url(#k)" d="M5 12h54c1.1 0 2-.9 2-2V4c0-1.1-.9-2-2-2H5c-1.1 0-2 .9-2 2v6c0 1.1.9 2 2 2z"/></svg>