<svg xmlns="http://www.w3.org/2000/svg" xml:space="preserve" style="enable-background:new 0 0 64 64" viewBox="0 0 64 64"><path d="M15.864 10.206c-.84-2.063 1.356-3.782-.642-5.16-2.335 1.838-1.39 3.79.642 5.16z" style="fill:#52351f"/><linearGradient id="a" x1="-61.794" x2="-67.632" y1="22.381" y2="22.381" gradientTransform="rotate(-14.999 -54.658 -313.104)" gradientUnits="userSpaceOnUse"><stop offset=".307" style="stop-color:#b88a6f"/><stop offset=".508" style="stop-color:#b3856a"/><stop offset=".733" style="stop-color:#a6785d"/><stop offset=".97" style="stop-color:#8f6247"/><stop offset="1" style="stop-color:#8c5f44"/></linearGradient><path d="M19.99 15.637c.808-.508 1.18.522 1.183.831.009 1.388 2.392.23 4.383-2.615-.334-.573-.735-2.265-.735-2.265-2.153-3.328-3.297-.74-4.83 4.049z" style="fill:url(#a)"/><path d="M15.02 6.829c-.064.769-.334 2.34.466 3.158.358.366.154 1.513-.242 2.28-.171.333-.152.7.05.86.307.245.645-.029.877.157.377.304.108.63.154.794 0 0 1.014-.095.685.92.124.072.324-.026.37.716.03.49.656 1.008 1.214.707 3.525-1.9 4.604-2.857 4.253-5.52-.563-4.272-.77-8.91-7.828-4.072z" style="fill:#b88a6f"/><path d="M16.325 14.078c.058.478 1.059.586 1.568-.078-.965.43-1.333-.082-1.568.078z" style="fill:#8c5f44"/><path d="M16.869 14.464c-.185.225-.106.467.14.534.412-.221.813-.477.884-.998-.431.4-1.024.464-1.024.464zm-1.663-1.438c.233.517 1.894.323 1.604-.472-.005.82-1.756.136-1.604.472z" style="fill:#8c5f44"/><path d="M17.527 10.223c-.173.572-.85.877-.85.877-.31-.152-.478-.681-.488-.992.35-.156 1.338.115 1.338.115z" style="fill:#fff"/><linearGradient id="b" x1="-227.264" x2="-227.264" y1="9.07" y2="7.833" gradientTransform="matrix(.5385 -.2074 .3595 .9332 135.788 -44.505)" gradientUnits="userSpaceOnUse"><stop offset="0" style="stop-color:#a6694a"/><stop offset="1" style="stop-color:#4f2a1e"/></linearGradient><path d="M16.222 10.648c.267.733.767.54.487-.188-.26-.676-.829-.754-.487.188z" style="fill:url(#b)"/><path d="M16.277 10.603c.132.343.329.268.196-.075-.122-.319-.319-.243-.196.075z" style="fill:#1a1626"/><path d="M16.353 10.408c.066.17.163.133.098-.038-.061-.158-.159-.12-.098.038z" style="fill:#ab968c"/><path d="M17.528 10.223c-.552-.348-1.097-.403-1.437-.296-.024.177.026.233.026.233s.28-.181 1.41.063z" style="fill:#8c5f44"/><path d="M17.215 9.19c-.494-.245-1.28-.327-1.863.153-.084.07.139.437.207.382.45-.366.98-.428 1.722-.224.086.024.032-.263-.066-.311z" style="fill:#5e4533"/><path d="M24.95 4.212c-1.508-1.886-3.401-2.616-6.529-1.996-2.534.501-4.36 2.347-4.461 4.085-.143 2.423 3.519 1.613 5.091 3.27 0 0 .296-1.359-.962-2.926C20.034 8.6 21.36 8.953 22.342 9.05c.923 1.585 1.395 3.294 1.49 4.8.624-.378 1.113-.97 1.454-1.67.078.33.157.688.239 1.094 1.564-2.001 1.467-6.51-.575-9.063z" style="fill:#6e482a"/><path d="M24.46 4.331c-1.444-1.934-2.912-2.735-6.039-2.115-2.534.501-4.104 2.18-4.01 3.669.086 1.378 1.266.853 4.162 2.882 0 0-.592-1.809-2.659-3.779 3.067.884 3.778 3.54 6.019 3.273 2.364-.281 2.2 2.25 2.556 3.877.988-1.125.864-2.734.864-2.734s.44 1.029.476 2.251c.76-1.653.07-5.4-1.368-7.324z" style="fill:#805837"/><path d="M16.322 3.406c2.706.155 6.623 1.943 8.381 5.256-.81-4.355-5.758-6.407-8.381-5.256z" style="fill:#916643"/><path d="M18.143 2.538c2.839-.138 5.907 1.575 7.15 4.805-.542-4.082-4.213-5.802-7.15-4.805zm-.777 4.736s-1.788-1.353-2.239-3.061c-1.409 2.525 2.24 3.061 2.24 3.061zm-1.692-3.142c2.237.403 4.897 4.431 7.058 3.367-2.483-.036-4.24-4.261-7.058-3.367z" style="fill:#916643"/><path d="M21.968 7.545c-1.077.558-.668 3.16.356 3.455.144.042.794-.072.938-.779.08-.392.634-.926.521-1.616-.143-.886-.744-1.616-1.815-1.06z" style="fill:#b88a6f"/><path d="M22.17 7.991c-.263.18-.437.583-.37 1.102.447-.255.744.665.37.963.064.1.133.2.213.303.227-.556.744-.59.873-1.33.119-.667-.436-1.483-1.087-1.038z" style="fill:#8c5f44"/><path d="M8 58.834s2.693 2.747 6.545 2.56L17.15 62c.205-.337.092-.46.092-.46s-1.787-1.882-8.943-2.997c0 0-.195-.042-.299.291z" style="fill:#c3bfbd"/><path d="M14.656 56.995c-1.13 1.235-5.601-.915-6.357 1.548 0 0 2.488 2.58 6.338 2.392l2.605.604c3.557-5.818-2.586-4.544-2.586-4.544z" style="fill:#ff7a00"/><path d="M11.498 57.319c.662 1.12 1.23 1.452 1.463.851.484.6.916.335 1.015-.032.57.459.956-.064.364-.917-.348-.461-3.02-.206-2.842.098zm44.318-3.507s.893-3.792-1.256-7.083l-.841-2.607c-.387-.006-.43.157-.43.157s-.643 2.546 2.13 9.421c0 0 .067.194.397.112z" style="fill:#c3bfbd"/><path d="M50.842 48.905c1.613.357 2.136 5.405 4.578 4.795 0 0 .86-3.525-1.29-6.816l-.841-2.605c-4.18.381-3.393 1.933-2.447 4.626z" style="fill:#ff7a00"/><path d="M52.744 51.516c.592-1.161.574-1.833-.045-1.725.25-.738-.195-.982-.553-.878.088-.74-.547-.808-.95.154-.206.544 1.39 2.762 1.548 2.449z" style="fill:#c3bfbd"/><path d="M20.076 37.133c-2.14 2.681-4.033 5.576-3.994 6.883.156 5.302-1.086 11.788-1.086 11.788.24 1.113 2.853 1.596 3.443.792 1.104-5.086 3.354-5.918 2.574-11.585 4.037-2.718 6.232-7.089 8.12-7.878h-9.057z" style="fill:#b88a6f"/><linearGradient id="c" x1="28.855" x2="47.518" y1="39.005" y2="50.567" gradientUnits="userSpaceOnUse"><stop offset="0" style="stop-color:#8c5f44"/><stop offset=".118" style="stop-color:#96694e"/><stop offset=".398" style="stop-color:#a97b60"/><stop offset=".688" style="stop-color:#b4866b"/><stop offset="1" style="stop-color:#b88a6f"/></linearGradient><path d="M49.44 45.298c-6.003.07-8.85-1.687-11.973-.005-.314-3.304-1.523-5.293-1.948-8.16h-6.14c.274 5.921 5.265 12.292 6.324 12.55 1.156.28 5.875-1.293 13.86-1.075.652.018.2-3.311-.124-3.31z" style="fill:url(#c)"/><path d="M14.996 55.805c-.14.863-.238 1.496-.238 1.496s1.133 1.099 3.305.953c.126-.602.232-1.137.376-1.657-.513.376-2.85-.013-3.443-.792zM50.709 45.26c-.44.023-.862.033-1.27.038.457.994.385 2.703.123 3.31.38.002.758.006 1.147.016.652.018.326-3.38 0-3.363z" style="fill:#f2f5f7"/><path d="M30.271 42.378s4.184-.105 6.53-1.571c-.457-4.764-1.465-8.653-3.188-11.1-5.053 1.01-8.746 4.066-3.342 12.671z" style="fill:#666b6e"/><path d="M24.264 30.558c-1.43 2.4-3.829 5.86-5.37 7.356 0 0 2.303 3.066 6.461 3.678 3.184-2.79 15.033-4.765 8.258-11.886-5.053 1.012-9.35.852-9.35.852z" style="fill:#757a7d"/><linearGradient id="d" x1="9.549" x2="24.551" y1="24.78" y2="24.78" gradientUnits="userSpaceOnUse"><stop offset="0" style="stop-color:#b88a6f"/><stop offset=".312" style="stop-color:#b4866b"/><stop offset=".602" style="stop-color:#a97b60"/><stop offset=".881" style="stop-color:#96694e"/><stop offset="1" style="stop-color:#8c5f44"/></linearGradient><path d="M23.605 20.116c-2.453-1.273-3.656 3.845-3.648 5.159-2.21-.979-6.156-1.75-6.006-2.925.135-1.055-.076-1.121-1.053-2.38-.27-.349-.857.212-.857.212-.844-.64-.803.249-1.355.524-.516.256-.307.69-.793 1.051-1.08.806.558 2.438 2.482 3.044 1.377.437 5.684 5.059 9.305 4.9 1.203-.053 4.47-7.62 1.925-9.585z" style="fill:url(#d)"/><path d="M25.556 13.853c-1.174.399-3.01 2.472-4.384 2.615-2.964 6.618 2.027 8.812 2.531 14.806.803 1.344 9.441.688 10.244-1.444-4.56-5.561 2.682-15.59-8.39-15.977z" style="fill:#ff7a00"/><path d="M29.535 17.03c-2.57 3.393 4.107 4.96 5.436 5.158-1.524 1.937-5.344 7.756-5.725 7.578-1.11-.51-1.143-.1-2.578.642-.399.204.074.854.074.854-.791.71.117.808.303 1.382.174.533.648.401.931.922.637 1.16 2.557-.156 3.489-1.905.666-1.253 7.605-6.575 8.043-10.075.146-1.161-7.565-6.69-9.973-4.556z" style="fill:#b88a6f"/><path d="M30.736 21.52c1.08-2.397 2.467-4.183 3.07-4.663-8.56-7.429-12.83 1.156-3.07 4.663z" style="fill:#ed6a00"/><path d="M11.982 20.144c1.883 1.243.745 1.967.745 1.967s1.544-.719-.745-1.967z" style="fill:#8c5f44"/><path d="M11.475 20.866c1.838 1.153.816 1.835.816 1.835s1.416-.678-.816-1.835z" style="fill:#8c5f44"/><path d="M10.99 21.329c2 1.372.826 1.865.826 1.865s1.534-.387-.826-1.865z" style="fill:#8c5f44"/><path d="M10.693 22.023c2.24 1.067.914 2.451-.64.582 1.595 1.484 2.556.589.64-.582z" style="fill:#8c5f44"/></svg>