<svg xmlns="http://www.w3.org/2000/svg" xml:space="preserve" style="enable-background:new 0 0 64 64" viewBox="0 0 64 64"><path d="M29.033 27.637c-.926 1.256-1.988 1.648-3.627 1.142 1.5-.355 2.258-2.882 2.258-2.882l1.37 1.74z" style="fill:#3d2e24"/><path d="M31.4 29.053s-3.06 3.26-6.68.816c2.5.215 2.944-3.972 2.944-3.972l3.736 3.156z" style="fill:#3d2e24"/><path d="m38.456 36.978-1.719-7.255-4.737 1.4-4.737-1.4-1.72 7.255c.62 3.598 1.255 2.36 1.113 7.979-.07 2.746-5.608 9.482 5.344 9.482s5.415-6.736 5.344-9.482c-.146-5.62.491-4.381 1.112-7.98z" style="fill:#8e3ed6"/><path d="M32 44.855c-3.202 0-5.344-.97-5.344-.97v1.428s2.142 2.164 5.344 2.164c3.198 0 5.344-2.164 5.344-2.164v-1.428s-2.146.97-5.344.97z" style="fill:#302c3b"/><path d="M27.262 29.723s-.804-2.09-2.952-2.772c0 0-4.535-7.513-4.535-12.378 0-.746-3.154-1.002-3.077-.258.81 7.68 2.187 11.805 7.04 17.889.739.926 1.806 4.774 1.806 4.774.998-.135 1.718-7.255 1.718-7.255zm9.475 0s.802-2.09 2.95-2.772c0 0 4.536-7.513 4.536-12.378 0-.746 3.158-1.002 3.08-.258-.811 7.68-2.188 11.805-7.04 17.889-.74.926-1.807 4.774-1.807 4.774-.998-.135-1.719-7.255-1.719-7.255z" style="fill:#855e45"/><path d="M15.99 12.634c-.034 2.748 3.685 3.797 3.795 0H15.99zm32.02 0c.03 2.748-3.685 3.797-3.798 0h3.798zM34.735 30.783c0 2.416-5.472 2.416-5.472 0v-2.672h5.472v2.672z" style="fill:#855e45"/><linearGradient id="a" x1="32" x2="32" y1="12.931" y2="11.131" gradientUnits="userSpaceOnUse"><stop offset="0" style="stop-color:#697378"/><stop offset="1" style="stop-color:#bac7cc"/></linearGradient><path d="M0 11.131h64v1.8H0z" style="fill:url(#a)"/><path d="M47.198 11.51s-.436.486-1.036.048c-.272.647-.985.469-1.247.102-.067.282-.653.334-.653.334s1.873.486 2.005 1.304c.287 1.791-1.457 1.8-1.988 1.496-1.454-.828-1.16-2.101-1.854-3.724-.13-.303-.063-1.1 1.202-.466 0 0 .006-1.05 1.204-.642-.048-.738 1.102-.688 1.306-.117.721-.501 1.305-.063 1.334.286 1.427-.05.862 2.431-.273 1.38z" style="fill:#855e45"/><path d="M47.198 11.51c.169-.492.273-1.379.273-1.379s.144.777-.273 1.38zm-1.035.048c.168-.494-.025-1.713-.025-1.713s.441 1.11.025 1.713zm-1.248.102c.168-.492-.084-1.698-.084-1.698s.498 1.095.084 1.698zm-.652.334c-.62-.436-.636-1.39-.636-1.39s.254.82.636 1.39z" style="fill:#69452d"/><path d="M16.8 11.51s.435.486 1.035.048c.273.647.986.469 1.248.102.067.282.652.334.652.334s-1.873.486-2.004 1.304c-.287 1.791 1.456 1.8 1.988 1.496 1.454-.828 1.16-2.101 1.854-3.724.129-.303.062-1.1-1.202-.466 0 0-.006-1.05-1.204-.642.047-.738-1.103-.688-1.307-.117-.72-.501-1.304-.063-1.333.286-1.427-.05-.863 2.431.273 1.38z" style="fill:#855e45"/><path d="M16.8 11.51c-.169-.492-.273-1.379-.273-1.379s-.144.777.273 1.38zm1.035.048c-.168-.494.025-1.713.025-1.713s-.441 1.11-.025 1.713zm1.248.102c-.168-.492.084-1.698.084-1.698s-.498 1.095-.084 1.698zm.652.334c.62-.436.636-1.39.636-1.39s-.254.82-.636 1.39z" style="fill:#69452d"/><linearGradient id="b" x1="8" x2="8" y1="14.252" y2="9.81" gradientUnits="userSpaceOnUse"><stop offset="0" style="stop-color:#697378"/><stop offset="1" style="stop-color:#dbe6eb"/></linearGradient><path d="M2.133 9.81h11.733v4.442H2.133z" style="fill:url(#b)"/><path d="M2.667 9.255h1.067v1.111H2.667z" style="fill:#6e8189"/><linearGradient id="c" x1="4.267" x2="8.969" y1="12.029" y2="12.029" gradientUnits="userSpaceOnUse"><stop offset="0" style="stop-color:#5b666e"/><stop offset="1" style="stop-color:#302c3b"/></linearGradient><path d="M8.533 19.526a.488.488 0 0 1-.477.497H4.744a.488.488 0 0 1-.477-.497V4.531c0-.273.214-.496.477-.496h3.312c.263 0 .477.223.477.496.582 3.878.582 11.12 0 14.995z" style="fill:url(#c)"/><linearGradient id="d" x1="8.533" x2="12.8" y1="11.994" y2="11.994" gradientUnits="userSpaceOnUse"><stop offset="0" style="stop-color:#5b666e"/><stop offset="1" style="stop-color:#302c3b"/></linearGradient><path d="M12.8 21.492a.488.488 0 0 1-.477.496H9.01a.488.488 0 0 1-.477-.496V2.497c0-.274.215-.497.477-.497h3.313c.262 0 .477.223.477.497v18.995z" style="fill:url(#d)"/><linearGradient id="e" x1="6.4" x2="6.4" y1="20.023" y2="4.035" gradientUnits="userSpaceOnUse"><stop offset="0" style="stop-color:#302c3b"/><stop offset=".158" style="stop-color:#33303f"/><stop offset=".323" style="stop-color:#3d3d4b"/><stop offset=".489" style="stop-color:#4d515e"/><stop offset=".657" style="stop-color:#646e79"/><stop offset=".743" style="stop-color:#72808a"/><stop offset=".812" style="stop-color:#707d87"/><stop offset=".865" style="stop-color:#68737e"/><stop offset=".912" style="stop-color:#5b636f"/><stop offset=".955" style="stop-color:#494c59"/><stop offset=".997" style="stop-color:#322f3e"/><stop offset="1" style="stop-color:#302c3b"/></linearGradient><path d="M4.744 4.035h3.313v15.989H4.744z" style="fill:url(#e)"/><linearGradient id="f" x1="10.667" x2="10.667" y1="22.023" y2="2.035" gradientUnits="userSpaceOnUse"><stop offset="0" style="stop-color:#302c3b"/><stop offset=".158" style="stop-color:#33303f"/><stop offset=".323" style="stop-color:#3d3d4b"/><stop offset=".489" style="stop-color:#4d515e"/><stop offset=".657" style="stop-color:#646e79"/><stop offset=".743" style="stop-color:#72808a"/><stop offset=".812" style="stop-color:#707d87"/><stop offset=".865" style="stop-color:#68737e"/><stop offset=".912" style="stop-color:#5b636f"/><stop offset=".955" style="stop-color:#494c59"/><stop offset=".997" style="stop-color:#322f3e"/><stop offset="1" style="stop-color:#302c3b"/></linearGradient><path d="M9.01 2.035h3.313v19.988H9.01z" style="fill:url(#f)"/><linearGradient id="g" x1="-1956.392" x2="-1956.392" y1="14.271" y2="9.83" gradientTransform="matrix(-1 0 0 1 -1900.392 0)" gradientUnits="userSpaceOnUse"><stop offset="0" style="stop-color:#697378"/><stop offset="1" style="stop-color:#dbe6eb"/></linearGradient><path d="M50.133 9.83h11.733v4.442H50.133z" style="fill:url(#g)"/><path d="M60.267 9.274h1.067v1.111h-1.067z" style="fill:#6e8189"/><linearGradient id="h" x1="55.029" x2="59.733" y1="12.048" y2="12.048" gradientUnits="userSpaceOnUse"><stop offset="0" style="stop-color:#5b666e"/><stop offset="1" style="stop-color:#302c3b"/></linearGradient><path d="M55.467 19.546c0 .273.214.497.477.497h3.312a.488.488 0 0 0 .477-.497V4.55a.488.488 0 0 0-.477-.497h-3.312a.488.488 0 0 0-.477.497c-.584 3.878-.584 11.12 0 14.995z" style="fill:url(#h)"/><linearGradient id="i" x1="51.2" x2="55.467" y1="12.014" y2="12.014" gradientUnits="userSpaceOnUse"><stop offset="0" style="stop-color:#5b666e"/><stop offset="1" style="stop-color:#302c3b"/></linearGradient><path d="M51.2 21.511c0 .274.214.497.477.497h3.313a.488.488 0 0 0 .477-.497V2.516a.488.488 0 0 0-.477-.497h-3.313a.488.488 0 0 0-.477.497v18.995z" style="fill:url(#i)"/><linearGradient id="j" x1="-1957.992" x2="-1957.992" y1="20.043" y2="4.054" gradientTransform="matrix(-1 0 0 1 -1900.392 0)" gradientUnits="userSpaceOnUse"><stop offset="0" style="stop-color:#302c3b"/><stop offset=".158" style="stop-color:#33303f"/><stop offset=".323" style="stop-color:#3d3d4b"/><stop offset=".489" style="stop-color:#4d515e"/><stop offset=".657" style="stop-color:#646e79"/><stop offset=".743" style="stop-color:#72808a"/><stop offset=".812" style="stop-color:#707d87"/><stop offset=".865" style="stop-color:#68737e"/><stop offset=".912" style="stop-color:#5b636f"/><stop offset=".955" style="stop-color:#494c59"/><stop offset=".997" style="stop-color:#322f3e"/><stop offset="1" style="stop-color:#302c3b"/></linearGradient><path d="M55.944 4.054h3.313v15.989h-3.313z" style="fill:url(#j)"/><linearGradient id="k" x1="-1953.725" x2="-1953.725" y1="22.043" y2="2.054" gradientTransform="matrix(-1 0 0 1 -1900.392 0)" gradientUnits="userSpaceOnUse"><stop offset="0" style="stop-color:#302c3b"/><stop offset=".158" style="stop-color:#33303f"/><stop offset=".323" style="stop-color:#3d3d4b"/><stop offset=".489" style="stop-color:#4d515e"/><stop offset=".657" style="stop-color:#646e79"/><stop offset=".743" style="stop-color:#72808a"/><stop offset=".812" style="stop-color:#707d87"/><stop offset=".865" style="stop-color:#68737e"/><stop offset=".912" style="stop-color:#5b636f"/><stop offset=".955" style="stop-color:#494c59"/><stop offset=".997" style="stop-color:#322f3e"/><stop offset="1" style="stop-color:#302c3b"/></linearGradient><path d="M51.677 2.054h3.313v19.988h-3.313z" style="fill:url(#k)"/><path d="M37.625 22.92c-.871.105-1.5 3.02-.953 3.789.076.107.525.28.857-.4.185-.376.717-.69.88-1.465.212-.995.08-2.03-.784-1.924zm-11.248 0c.87.105 1.5 3.02.95 3.789-.075.107-.525.28-.857-.4-.183-.376-.716-.69-.88-1.465-.212-.995-.079-2.03.787-1.924z" style="fill:#916b50"/><path d="M37.6 23.478c-.227.07-.475.418-.61.993.795-.17.596 1.152-.094 1.177.006.133.016.27.031.413.332-.483.67-.288 1.006-1.006.301-.649.229-1.752-.334-1.577zm-10.59.991c-.135-.573-.382-.92-.61-.99-.563-.178-.635.927-.332 1.576.334.718.672.523 1.004 1.005.018-.142.025-.28.031-.414-.681-.03-.877-1.338-.094-1.177z" style="fill:#69452d"/><path d="M32 17.314c-3.772 0-5.588 3.073-5.362 7.022.047.795.268 1.94.54 2.922.566 2.039 3.55 4.094 4.822 4.094s4.256-2.055 4.822-4.094c.273-.983.494-2.127.54-2.922.227-3.95-1.589-7.022-5.362-7.022z" style="fill:#916b50"/><path d="M28.21 22.655c.895-.332 2.352-.127 2.863.306.109.087.014.43-.083.366-.754-.49-1.994-.734-2.833-.48-.111.032-.08-.145.053-.192zm7.506.526c-.897-.325-2.352-.108-2.86.33-.11.088-.011.43.086.365.75-.496 1.988-.75 2.829-.504.11.032.079-.145-.055-.19z" style="fill:#523c31"/><path d="M31.15 26.46c.09-.062.301.036.85.036.547 0 .758-.098.848-.035.107.076-.065.418-.848.418-.785 0-.957-.342-.85-.418z" style="fill:#69452d"/><path d="M34.137 28.31c-.233-.375-.801-.625-2.138-.625-1.336 0-1.904.25-2.14.625-.125.199.055.521.055.521.224.406.191.521 2.085.521 1.89 0 1.862-.115 2.085-.52 0 0 .181-.323.053-.522z" style="fill:#45332c"/><path d="M33.667 28.308a.166.166 0 0 0-.065-.156s-.406-.26-1.603-.26c-1.194 0-1.602.26-1.602.26-.046.028-.075.1-.063.156l.02.107c.01.057.062.102.116.102h3.059a.125.125 0 0 0 .115-.102l.023-.107zM32 29.145c.655 0 1.588 0 1.561-.217a.522.522 0 0 0-.03-.131c-.012-.055-.027-.07-.14-.07h-2.785c-.111 0-.126.015-.14.07-.012.048-.024.093-.03.132-.025.216.908.216 1.563.216z" style="fill:#fff"/><path d="M28.3 17.979c-2.359.538-3.021 4.913-1.608 6.883.074-1.854.927-4.11 2.604-5.319 0 0-.578-.52-.996-1.564z" style="fill:#5c4233"/><path d="M29.348 19.392s-2.754 1.667-2.656 5.47c.316-3.517 2.74-5.286 2.74-5.286l-.084-.184z" style="fill:#3d2e24"/><path d="M28.329 18.07s-3.015 1.065-1.897 5.98c.28-2.898 2.66-4.724 2.66-4.724l-.763-1.257z" style="fill:#6b4d3c"/><path d="M26.475 22.505c.483-1.67 1.825-3.21 1.825-3.21s-1.799.722-1.825 3.21z" style="fill:#7a5b49"/><path d="M26.488 21.417c.338-1.694 1.73-2.863 1.73-2.863s-1.688.376-1.73 2.863z" style="fill:#7a5b49"/><path d="M28.3 17.979c1.997 1.774 8.007 2.975 9.037 6.883-1.406-3.923-7.804-2.785-9.037-6.883z" style="fill:#3d2e24"/><path d="M32.016 16.535c-2.32 0-3.48.979-3.716 1.444 2.473 4.25 7.797 2.72 9.037 6.885 1.935-3.641-.176-8.329-5.321-8.329z" style="fill:#5c4233"/><path d="M29.758 17.015c.973.017 1.275.264 1.275.264s-.815-.113-1.661-.02c1.14.255 2.079.906 2.079.906s-1.288-.612-2.52-.597c.88.76 2.764 1.771 2.764 1.771s-1.987-.888-3.14-1.397c2.365 3.665 7.752 2.89 8.727 6.178-.163-2.142-3.136-3.801-3.136-3.801s2.697 1.367 3.527 2.827c-.415-1.458-2.608-3.267-2.608-3.267s2.127 1.444 2.792 2.462c-.279-1.37-1.992-3.292-1.992-3.292s1.43.998 1.992 2.268c-.333-2.574-2.964-5.597-8.099-4.302z" style="fill:#6b4d3c"/><path d="M36.603 18.846c-1.98-2.47-5.58-1.871-5.58-1.871s3.412.07 5.58 1.871z" style="fill:#7a5b49"/><path d="M37.086 20.9c-2.035-3.325-6.823-3.53-6.823-3.53s4.056.99 6.823 3.53zm-1.405.166c-2.151-2.47-5.945-3.163-5.945-3.163s2.882 1.062 5.945 3.163zm-2.794-.501c-1.568-.84-3.898-2.28-3.898-2.28s1.563 1.919 3.898 2.28z" style="fill:#7a5b49"/><path d="M30.91 24.36c-.695.443-1.774.443-2.469 0-.106-.068-.17.006-.136.062.675 1.145 2.065 1.145 2.74 0 .035-.056-.029-.13-.135-.062zm4.648 0c-.696.443-1.775.443-2.47 0-.106-.068-.17.006-.136.062.675 1.145 2.066 1.145 2.741 0 .034-.056-.03-.13-.135-.062z" style="fill:#3d2d27"/><path d="M23.508 52.108s6.723 5.123 5.602-4.175c-.129-1.083-3.918-4.19-4.598-4.19l-1.004 8.365z" style="fill:#69452d"/><path d="M26.837 57.727s-.575 1.614-3.775.41c-1.514-6.61-3.566-5.693-4.462-10.43 0 0 2.917-3.412 6.438.698 2.147 4.067-.42 6.199 1.8 9.322z" style="fill:#855e45"/><path d="M25.038 48.405s-3.432-2.87-6.438-.698c0 0-.438-6.188 5.912-3.965.953.334 1.227 4.358.526 4.663zm-2.545 7.647c-.21-.092.375 1.202.57 2.085 3.2 1.204 3.774-.41 3.774-.41-.162-.661-.686-1.72-.806-1.675-.918.344-3.01.233-3.538 0z" style="fill:#e6ebef"/><path d="M27.192 61.345c.666-2.039-.354-3.618-.354-3.618-1.713 1.015-3.775.41-3.775.41-5.298 1.076-5.475 1.933-5.35 3.208h9.479z" style="fill:#8e3ed6"/><path d="M27.117 62c.343-.247.075-.655.075-.655h-9.48s-.316.288.03.655h9.375zm-4.061-4.008c-.517-.367-3.34.683-3.054.941 1.054.946 1.773 1.115 1.844.434.706.466 1.096.07 1.091-.334.759.3 1.02-.347.12-1.041z" style="fill:#c3bfbd"/><path d="M40.492 52.108s-6.723 5.123-5.602-4.175c.129-1.083 3.918-4.19 4.598-4.19l1.004 8.365z" style="fill:#69452d"/><path d="M37.163 57.727s.577 1.614 3.775.41c1.514-6.61 3.566-5.693 4.462-10.43 0 0-2.917-3.412-6.438.698-2.148 4.067.42 6.199-1.8 9.322z" style="fill:#855e45"/><path d="M38.962 48.405s3.432-2.87 6.438-.698c0 0 .438-6.188-5.912-3.965-.953.334-1.228 4.358-.526 4.663zm2.546 7.647c.21-.092-.376 1.202-.57 2.085-3.2 1.204-3.775-.41-3.775-.41.163-.661.687-1.72.807-1.675.918.344 3.009.233 3.538 0z" style="fill:#e6ebef"/><path d="M36.81 61.345c-.666-2.039.352-3.618.352-3.618 1.715 1.015 3.775.41 3.775.41 5.298 1.076 5.475 1.933 5.35 3.208H36.81z" style="fill:#8e3ed6"/><path d="M36.883 62c-.341-.247-.073-.655-.073-.655h9.477s.317.288-.027.655h-9.377zm4.061-4.008c.518-.367 3.34.683 3.056.941-1.054.946-1.773 1.115-1.844.434-.708.466-1.098.07-1.093-.334-.757.3-1.017-.347-.12-1.041z" style="fill:#c3bfbd"/></svg>