<svg xmlns="http://www.w3.org/2000/svg" xml:space="preserve" style="enable-background:new 0 0 64 64" viewBox="0 0 64 64"><linearGradient id="a" x1="6.17" x2="62" y1="26.431" y2="26.431" gradientUnits="userSpaceOnUse"><stop offset="0" style="stop-color:#1f1c26"/><stop offset=".149" style="stop-color:#2c2b36"/><stop offset=".328" style="stop-color:#373743"/><stop offset=".5" style="stop-color:#3a3b47"/><stop offset=".672" style="stop-color:#373743"/><stop offset=".851" style="stop-color:#2c2b36"/><stop offset="1" style="stop-color:#1f1c26"/></linearGradient><path d="M62 45.97c-4.65-1.47-9.3-1.83-13.96-1.65-7.73-6.71-13.96 1.65-13.96 1.65-4.65.73-9.3 1.46-13.96 1.65L6.17 36.2V6.9c4.65 1.46 9.3 1.83 13.96 1.65 0 0 7.85 8.12 13.96-1.65 4.65-.73 9.3-1.65 13.96-1.65L62 16.66v9.77c-4.4 4.79 0 9.77 0 9.77v9.77z" style="fill:url(#a)"/><linearGradient id="b" x1="6.005" x2="61.667" y1="12.603" y2="12.603" gradientUnits="userSpaceOnUse"><stop offset="0" style="stop-color:#e7edf2"/><stop offset=".057" style="stop-color:#ebf0f4"/><stop offset=".282" style="stop-color:#f8f9fa"/><stop offset=".5" style="stop-color:#fcfcfc"/><stop offset=".718" style="stop-color:#f8f9fa"/><stop offset=".943" style="stop-color:#ebf0f4"/><stop offset="1" style="stop-color:#e7edf2"/></linearGradient><path d="M34.08 16.66c-4.65.73-9.3 1.46-13.96 1.65V8.54c4.65-.18 9.3-.91 13.96-1.65v9.77z" style="fill:url(#b)"/><linearGradient id="c" x1="6.002" x2="61.668" y1="10.954" y2="10.954" gradientUnits="userSpaceOnUse"><stop offset="0" style="stop-color:#e7edf2"/><stop offset=".057" style="stop-color:#ebf0f4"/><stop offset=".282" style="stop-color:#f8f9fa"/><stop offset=".5" style="stop-color:#fcfcfc"/><stop offset=".718" style="stop-color:#f8f9fa"/><stop offset=".943" style="stop-color:#ebf0f4"/><stop offset="1" style="stop-color:#e7edf2"/></linearGradient><path d="M62 16.66c-4.65-1.46-9.3-1.83-13.96-1.65V5.24c4.83 0 9.3.18 13.96 1.65v9.77z" style="fill:url(#c)"/><linearGradient id="d" x1="6.003" x2="61.67" y1="22.392" y2="22.392" gradientUnits="userSpaceOnUse"><stop offset="0" style="stop-color:#e7edf2"/><stop offset=".057" style="stop-color:#ebf0f4"/><stop offset=".282" style="stop-color:#f8f9fa"/><stop offset=".5" style="stop-color:#fcfcfc"/><stop offset=".718" style="stop-color:#f8f9fa"/><stop offset=".943" style="stop-color:#ebf0f4"/><stop offset="1" style="stop-color:#e7edf2"/></linearGradient><path d="M20.13 28.08c-4.65.18-9.3-.18-13.96-1.65v-9.77c4.65 1.46 9.3 1.83 13.96 1.65v9.77z" style="fill:url(#d)"/><linearGradient id="e" x1="6.005" x2="61.667" y1="20.722" y2="20.722" gradientUnits="userSpaceOnUse"><stop offset="0" style="stop-color:#e7edf2"/><stop offset=".057" style="stop-color:#ebf0f4"/><stop offset=".282" style="stop-color:#f8f9fa"/><stop offset=".5" style="stop-color:#fcfcfc"/><stop offset=".718" style="stop-color:#f8f9fa"/><stop offset=".943" style="stop-color:#ebf0f4"/><stop offset="1" style="stop-color:#e7edf2"/></linearGradient><path d="M48.04 24.78c-4.65.18-9.3.92-13.96 1.65v-9.77c4.65-.73 9.3-1.46 13.96-1.65v9.77z" style="fill:url(#e)"/><linearGradient id="f" x1="6.005" x2="61.667" y1="32.139" y2="32.139" gradientUnits="userSpaceOnUse"><stop offset="0" style="stop-color:#e7edf2"/><stop offset=".057" style="stop-color:#ebf0f4"/><stop offset=".282" style="stop-color:#f8f9fa"/><stop offset=".5" style="stop-color:#fcfcfc"/><stop offset=".718" style="stop-color:#f8f9fa"/><stop offset=".943" style="stop-color:#ebf0f4"/><stop offset="1" style="stop-color:#e7edf2"/></linearGradient><path d="M34.08 36.2c-4.65.73-9.3 1.46-13.96 1.65v-9.77c4.65-.18 9.3-.92 13.96-1.65v9.77z" style="fill:url(#f)"/><linearGradient id="g" x1="6.002" x2="61.668" y1="30.469" y2="30.469" gradientUnits="userSpaceOnUse"><stop offset="0" style="stop-color:#e7edf2"/><stop offset=".057" style="stop-color:#ebf0f4"/><stop offset=".282" style="stop-color:#f8f9fa"/><stop offset=".5" style="stop-color:#fcfcfc"/><stop offset=".718" style="stop-color:#f8f9fa"/><stop offset=".943" style="stop-color:#ebf0f4"/><stop offset="1" style="stop-color:#e7edf2"/></linearGradient><path d="M62 36.2c-4.65-1.47-9.3-1.83-13.96-1.65v-9.77c4.65-.18 9.3.18 13.96 1.65v9.77z" style="fill:url(#g)"/><linearGradient id="h" x1="6.003" x2="61.67" y1="41.929" y2="41.929" gradientUnits="userSpaceOnUse"><stop offset="0" style="stop-color:#e7edf2"/><stop offset=".057" style="stop-color:#ebf0f4"/><stop offset=".282" style="stop-color:#f8f9fa"/><stop offset=".5" style="stop-color:#fcfcfc"/><stop offset=".718" style="stop-color:#f8f9fa"/><stop offset=".943" style="stop-color:#ebf0f4"/><stop offset="1" style="stop-color:#e7edf2"/></linearGradient><path d="M20.13 47.62c-4.65.18-9.3-.18-13.96-1.65V36.2c4.65 1.46 9.3 1.83 13.96 1.65v9.77z" style="fill:url(#h)"/><linearGradient id="i" x1="6.005" x2="61.667" y1="40.259" y2="40.259" gradientUnits="userSpaceOnUse"><stop offset="0" style="stop-color:#e7edf2"/><stop offset=".057" style="stop-color:#ebf0f4"/><stop offset=".282" style="stop-color:#f8f9fa"/><stop offset=".5" style="stop-color:#fcfcfc"/><stop offset=".718" style="stop-color:#f8f9fa"/><stop offset=".943" style="stop-color:#ebf0f4"/><stop offset="1" style="stop-color:#e7edf2"/></linearGradient><path d="M48.04 44.32c-4.65.18-9.3.92-13.96 1.65V36.2c4.65-.73 9.3-1.47 13.96-1.65v9.77z" style="fill:url(#i)"/><linearGradient id="j" x1="3.5" x2="6.5" y1="35.349" y2="35.349" gradientUnits="userSpaceOnUse"><stop offset="0" style="stop-color:#9ca4a6"/><stop offset=".076" style="stop-color:#b6bec0"/><stop offset=".169" style="stop-color:#ced6d8"/><stop offset=".267" style="stop-color:#dfe7e9"/><stop offset=".373" style="stop-color:#eaf1f4"/><stop offset=".5" style="stop-color:#edf4f7"/><stop offset="1" style="stop-color:#9ca4a6"/></linearGradient><path d="M3.5 7.05v56.21c0 .99 3 .99 3 0V7.05c0-.47-3-.47-3 0z" style="fill:url(#j)"/><radialGradient id="k" cx="4.25" cy="2" r="3.846" gradientUnits="userSpaceOnUse"><stop offset="0" style="stop-color:#edf4f7"/><stop offset=".191" style="stop-color:#e7eef1"/><stop offset=".457" style="stop-color:#d5dcdf"/><stop offset=".766" style="stop-color:#b7bfc1"/><stop offset="1" style="stop-color:#9ca4a6"/></radialGradient><circle cx="5" cy="3" r="3" style="fill:url(#k)"/><linearGradient id="l" x1="3.958" x2="6.042" y1="6.517" y2="6.517" gradientUnits="userSpaceOnUse"><stop offset="0" style="stop-color:#9ca4a6"/><stop offset=".022" style="stop-color:#a2aaac"/><stop offset=".126" style="stop-color:#bac2c4"/><stop offset=".237" style="stop-color:#cbd3d5"/><stop offset=".356" style="stop-color:#d5dde0"/><stop offset=".5" style="stop-color:#d8e0e3"/><stop offset="1" style="stop-color:#9ca4a6"/></linearGradient><path d="M3.96 5.82v1.16c0 .31 2.08.31 2.08 0V5.82H3.96z" style="fill:url(#l)"/></svg>