<svg xmlns="http://www.w3.org/2000/svg" xml:space="preserve" style="enable-background:new 0 0 64 64" viewBox="0 0 64 64"><linearGradient id="a" x1="59.388" x2="59.388" y1="26.488" y2="4" gradientUnits="userSpaceOnUse"><stop offset="0" style="stop-color:#2d2d30"/><stop offset=".5" style="stop-color:#57575e"/><stop offset="1" style="stop-color:#2d2d30"/></linearGradient><path d="M61.677 8.834s-.417.31-.8.907C61.512 6.44 64 4 64 4s-2.15 1.057-4.253 2.853A13.25 13.25 0 0 1 61 5.098s-9.127 4.93-3.824 12.703c3.443 5.046-2.398 7.57-2.398 7.57l1.106 1.042c7.496.888 8.778-6.35 6.041-11.17-1.042-1.836-1.065-3.679-.247-6.409z" style="fill:url(#a)"/><path d="M55.778 25.278c8.37-6.74-4.167-8.463 2.685-17.5-6.278 8.5 6.037 11.296-2.685 17.5z" style="opacity:.5;fill:#2d2d30"/><path d="M57.998 25.213c8.342-6.776-1.455-8.793 3.39-19.046-4.394 9.61 5.306 12.806-3.39 19.046z" style="opacity:.5;fill:#2d2d30"/><path d="M56.704 25.019c9.027-5.831-3.674-9.936 3.907-18.37-6.964 7.947 5.414 13.11-3.907 18.37z" style="opacity:.5;fill:#2d2d30"/><linearGradient id="b" x1="25.578" x2="29.93" y1="22.74" y2="21.277" gradientUnits="userSpaceOnUse"><stop offset="0" style="stop-color:#2d2d30"/><stop offset="1" style="stop-color:#57575e"/></linearGradient><path d="M19.77 21.4c1.864 3.242 10.158 4.906 11.835 1.916-4.247-.595-5.066-4.225-11.836-1.915z" style="fill:url(#b)"/><path d="M21.13 21.365c5.752-.068 5.127 2.262 9.96 2.125-4.404.078-4.507-2.47-9.96-2.125zm-.423 1.672c5.75-.2 5.353 1.66 10.139.97-4.367.582-4.695-1.439-10.14-.97z" style="opacity:.5;fill:#2d2d30"/><linearGradient id="c" x1="22.832" x2="27.499" y1="18.747" y2="18.339" gradientUnits="userSpaceOnUse"><stop offset="0" style="stop-color:#2d2d30"/><stop offset="1" style="stop-color:#57575e"/></linearGradient><path d="M17.444 16.215c1.142 3.56 8.998 6.84 11.168 4.362-4.026-1.475-4.064-5.196-11.168-4.362z" style="fill:url(#c)"/><path d="M18.781 16.466c5.735.459 4.537 3.29 9.292 4.172-4.323-.85-3.83-4.015-9.292-4.172zm-.764 1.546c5.715.661 4.884 2.749 9.708 3.08-4.391-.35-4.255-2.73-9.708-3.08z" style="opacity:.5;fill:#2d2d30"/><linearGradient id="d" x1="13.366" x2="16.403" y1="15.179" y2="12.086" gradientUnits="userSpaceOnUse"><stop offset="0" style="stop-color:#2d2d30"/><stop offset="1" style="stop-color:#57575e"/></linearGradient><path d="M7.993 12.249c2.892 3.895 8.683 6.917 12.09 4.491-.947-5.536-7.236-7.375-12.09-4.491z" style="fill:url(#d)"/><path d="M10.142 11.546s4.8-1.579 8.701 2.87c-3.694-4.653-8.701-2.87-8.701-2.87z" style="opacity:.5;fill:#2d2d30"/><path d="M9.074 12.63s4.286-2.516 8.705 2.03c-4.256-4.81-8.705-2.03-8.705-2.03z" style="opacity:.5;fill:#2d2d30"/><linearGradient id="e" x1="13.961" x2="21.182" y1="15.422" y2="13.662" gradientUnits="userSpaceOnUse"><stop offset="0" style="stop-color:#2d2d30"/><stop offset="1" style="stop-color:#57575e"/></linearGradient><path d="M11.178 12.714c1.81 3.586 12.577 5.496 13.812 2.708-4.558-.675-6.414-4.79-13.812-2.708z" style="fill:url(#e)"/><path d="M12.691 12.658c6.133-.767 6.55 3.054 11.745 2.946-4.733.048-5.964-3.972-11.745-2.946z" style="opacity:.5;fill:#2d2d30"/><path d="M12.691 14.345c6.067-1.185 6.883 2.893 11.88 1.47-4.566 1.248-6.183-2.889-11.88-1.47z" style="opacity:.5;fill:#2d2d30"/><linearGradient id="f" x1="18.929" x2="18.929" y1="64" y2="37.267" gradientUnits="userSpaceOnUse"><stop offset=".188" style="stop-color:#c29c82"/><stop offset=".254" style="stop-color:#b78f76"/><stop offset=".394" style="stop-color:#a67a62"/><stop offset=".548" style="stop-color:#9a6b54"/><stop offset=".729" style="stop-color:#93624c"/><stop offset="1" style="stop-color:#915f49"/></linearGradient><path d="M12.41 63.974c.481.308 1.443-2.194 1.558-4.384.026-.463-.7-.1-.938-.363-.24-.262-.524-1.973-.224-2.468.304-.493.643-1.002.422-1.916-.222-.914.645-4.61.893-5.285.185-.503 1.364-1.68 1.725-1.868.508-.27 9.9.244 11.195-.816s-5.273-12.045-6.448-9.111c-.657 1.635-.809 4.625-.68 5.853.083.783-2.644-.064-6.469 1.474-.407.165-1.837 2.488-1.786 3.013.314 3.166-1.58 5.84-.834 8.745.127.504-.099 1.985.149 3.416-.047 2.447 1.058 3.469 1.437 3.71z" style="fill:url(#f)"/><path d="M12.41 63.974c.481.308 1.443-2.194 1.558-4.384.026-.463-.7-.1-.938-.363-.24-.262-.98 1.244-2.057 1.037-.047 2.447 1.058 3.469 1.437 3.71z" style="fill:#302c3b"/><linearGradient id="g" x1="51.172" x2="51.172" y1="62.789" y2="41.579" gradientUnits="userSpaceOnUse"><stop offset=".188" style="stop-color:#c29c82"/><stop offset=".254" style="stop-color:#b78f76"/><stop offset=".394" style="stop-color:#a67a62"/><stop offset=".548" style="stop-color:#9a6b54"/><stop offset=".729" style="stop-color:#93624c"/><stop offset="1" style="stop-color:#915f49"/></linearGradient><path d="M56.186 46.94c-1.134-.516-2.906-3.207-3.1-4.376-.36-2.17-6.848-.096-7.697.026 2.514 3.125 7.041 4.913 6.752 5.932-.706 2.487-5.382 5.203-6.05 6.688-.667 1.482-1.249 3.312-.93 4.85-.029 2.163.914 2.807 1.035 2.722.676-.472 1.652-2.48 1.564-2.95-.054-.302-.557-.689-.557-.689.08-1.941.99-1.89 1.111-2.82.123-.938 7.389-5.92 8.546-6.94.745-.664.459-1.928-.674-2.442z" style="fill:url(#g)"/><path d="M45.16 60.06c-.028 2.163.997 3.486 1.117 3.401.676-.471 1.915-3.073 1.828-3.542-.056-.303-.902-.776-.902-.776-.278.323-1.515.996-2.042.917z" style="fill:#302c3b"/><linearGradient id="h" x1="33.566" x2="33.566" y1="46.733" y2="28.507" gradientUnits="userSpaceOnUse"><stop offset="0" style="stop-color:#915f49"/><stop offset=".078" style="stop-color:#9a674c"/><stop offset=".264" style="stop-color:#a97352"/><stop offset=".484" style="stop-color:#b17b55"/><stop offset=".824" style="stop-color:#b47d56"/></linearGradient><path d="M58.029 31.423c-.756-4.64-2.723-7.072-6.4-8.376-5.522-1.956-19.059 6.453-25.98-.245-3.798-3.676-4.188-8.059-13.944-9.251-4.49-.55-2.813 11.94.411 12.057 3.922.14 5.467 4.96 5.813 8.02.716 6.348 3.812 9.971 7.317 12.058 11.667 4.194 17.605-5.777 26.625-2.614 4.941-2.889 6.846-7.425 6.158-11.649z" style="fill:url(#h)"/><linearGradient id="i" x1="15.089" x2="22.246" y1="30.782" y2="29.453" gradientUnits="userSpaceOnUse"><stop offset=".154" style="stop-color:#855742"/><stop offset=".308" style="stop-color:#99674b"/><stop offset=".484" style="stop-color:#a87451"/><stop offset=".691" style="stop-color:#b17b55"/><stop offset="1" style="stop-color:#b47d56"/></linearGradient><path d="M25.65 22.802c-3.799-3.676-4.19-8.059-13.945-9.251-4.49-.55-2.813 11.94.41 12.057 3.923.14 5.468 4.96 5.813 8.02.717 6.348 3.813 9.971 7.318 12.058 11.667 4.194 7.324-16.186.403-22.884z" style="fill:url(#i)"/><linearGradient id="j" x1="22.648" x2="22.648" y1="60.546" y2="34.233" gradientUnits="userSpaceOnUse"><stop offset=".109" style="stop-color:#c29c82"/><stop offset=".115" style="stop-color:#c19a7f"/><stop offset=".167" style="stop-color:#bb8d6d"/><stop offset=".227" style="stop-color:#b78460"/><stop offset=".306" style="stop-color:#b57f58"/><stop offset=".467" style="stop-color:#b47d56"/></linearGradient><path d="M22.287 43.16c.972 2.924-3.174 4.073-7.251 10.994-.466.792.25 3.302 1.033 3.54 2.487.757 6.575 2.88 7.791 2.851.905-.016 3.186-1.445 3.866-1.884 1.473-.277 2.782-1.965 2.675-2.363-.191-.712-3.808-.886-4.031-.638-.26.282-.223 1.027-.356 1.41-.109.32-1.452 1.88-2.405.575-.701-.959-.994.715-4.561-1.048-.367-.18-.96-1.231-.742-1.63 1.815-3.282 7.375-3.806 8.903-6.119.664-1.003 1.344-3.26 1.627-4.47 3.187-13.67-10.453-12.976-6.55-1.218z" style="fill:url(#j)"/><path d="M27.726 58.66c1.473-.276 2.782-1.964 2.675-2.362-.191-.712-3.808-.886-4.031-.638-.26.282-.223 1.027-.356 1.41-.109.32 1.492.073 1.712 1.59z" style="fill:#302c3b"/><linearGradient id="k" x1="54.148" x2="54.148" y1="63.449" y2="26.772" gradientUnits="userSpaceOnUse"><stop offset=".188" style="stop-color:#c29c82"/><stop offset=".255" style="stop-color:#bc9071"/><stop offset=".343" style="stop-color:#b88562"/><stop offset=".446" style="stop-color:#b57f59"/><stop offset=".6" style="stop-color:#b47d56"/></linearGradient><path d="M45.91 40.229c3.811 7.005 12.452 6.012 12.742 7.726.431 2.554-2.564 6.993-2.526 8.63.035 1.635.96 3.63 1.903 4.862.9 1.953 2.021 2.097 2.093 1.966.403-.733.42-2.979.14-3.36-.179-.247-.796-.364-.796-.364-.758-1.776.338-2.287-.209-3.035-1.228-1.685 3.65-6.877 4.69-10.14.307-.965-.767-2.276-2.003-2.219-1.238.057-4.16-2.709-4.833-3.668-1.252-1.781.586-4.272.162-8.697-.969-10.085-18.243-4.35-11.362 8.299z" style="fill:url(#k)"/><path d="M58.029 61.447c.9 1.953 2.385 2.669 2.457 2.538.403-.732.401-3.632.122-4.014-.179-.246-1.142-.282-1.142-.282-.068.342-.794 1.284-1.437 1.758z" style="fill:#302c3b"/><linearGradient id="l" x1="8.181" x2="12.774" y1="-70.38" y2="-63.614" gradientTransform="rotate(-10.241 499.861 -88.75)" gradientUnits="userSpaceOnUse"><stop offset="0" style="stop-color:#2d2d30"/><stop offset="1" style="stop-color:#57575e"/></linearGradient><path d="M26.604 22.15c-3.716-1.899-2.478-4.02-6.112-5.394-.693.057-2.848.757-2.314.91 3.391.98 3.69 5.082 8.426 4.484z" style="fill:url(#l)"/><path d="M26.037 21.837c-3.269-.783-2.81-3.337-5.409-4.545 2.694.92 2.296 3.707 5.409 4.544z" style="opacity:.5;fill:#2d2d30"/><path d="M26.604 22.15c-4.397.003-4.041-3.187-7.23-4.766 3.273 1.328 2.729 4.403 7.23 4.766z" style="opacity:.5;fill:#2d2d30"/><linearGradient id="m" x1="25.659" x2="30.754" y1="-170.935" y2="-163.429" gradientTransform="rotate(-25.551 428.162 -53.52)" gradientUnits="userSpaceOnUse"><stop offset="0" style="stop-color:#2d2d30"/><stop offset="1" style="stop-color:#57575e"/></linearGradient><path d="M23.755 17.864c-5.285-1.1-4.678-4.995-9.581-3.893 1.058 3.984 5.864 5.254 9.581 3.893z" style="fill:url(#m)"/><path d="M22.878 17.768c-4.333.36-5.06-3.115-8.704-3.797 3.67.291 4.541 4.026 8.704 3.797z" style="opacity:.5;fill:#2d2d30"/><path d="M23.755 17.864c-4.131 1.271-7.652-1.176-9.581-3.893 2.269 2.446 5.579 5.003 9.581 3.893z" style="opacity:.5;fill:#2d2d30"/><linearGradient id="n" x1="-10.402" x2="-11.462" y1="12.999" y2="10.18" gradientTransform="rotate(-8.27 -5.926 -104.337)" gradientUnits="userSpaceOnUse"><stop offset="0" style="stop-color:#915f49"/><stop offset=".007" style="stop-color:#925f49"/><stop offset=".328" style="stop-color:#a57050"/><stop offset=".656" style="stop-color:#b07a55"/><stop offset="1" style="stop-color:#b47d56"/></linearGradient><path d="M4.438 10.477c.175-.736 4.738 1.296 5.605 5.673.06.281-2.102.31-3.55-.495 0 0-2.345-3.957-2.055-5.178z" style="fill:url(#n)"/><path d="M4.845 11.434c-.09-.781 3.337 1.33 3.886 4.371.037.195-1.214.174-2.207-.54 0 0-1.614-3.266-1.68-3.83z" style="fill:#6e4837"/><linearGradient id="o" x1="89.487" x2="90.878" y1="-25.43" y2="-23.496" gradientTransform="rotate(36.182 -9.366 -132.923)" gradientUnits="userSpaceOnUse"><stop offset="0" style="stop-color:#2d2d30"/><stop offset="1" style="stop-color:#57575e"/></linearGradient><path d="M9.854 12.38c-1.449 3.254-4.054 1.588-5.802 2.28 0 0 1.087-3.542 5.802-2.28z" style="fill:url(#o)"/><path d="M4.052 14.66s1.923-2.636 5.802-2.28c-3.757.356-5.802 2.28-5.802 2.28zm1.711-.446s2.192-.677 4.091-1.834c-1.534 1.782-4.09 1.834-4.09 1.834z" style="opacity:.5;fill:#2d2d30"/><linearGradient id="p" x1="-22.406" x2="-17.683" y1="-38.117" y2="-29.474" gradientTransform="rotate(-13.226 231.457 -132.182)" gradientUnits="userSpaceOnUse"><stop offset="0" style="stop-color:#b47d56"/><stop offset=".396" style="stop-color:#b17b55"/><stop offset=".674" style="stop-color:#a87352"/><stop offset=".914" style="stop-color:#99664c"/><stop offset="1" style="stop-color:#915f49"/></linearGradient><path d="M12.573 14.003c-.468-.921-4.76-6.312-5.243-5.072-.512 1.313.787 4.99.787 4.99-2.008 1.445-3.177 4.375-5.502 7.916-.719 1.095 1.222 8.438 5.974 5.833 7.354-4.032 7.317-5.084 6.943-7.171-.87-4.865-2.96-6.496-2.96-6.496z" style="fill:url(#p)"/><linearGradient id="q" x1="-18.238" x2="-21.562" y1="28.355" y2="22.558" gradientTransform="rotate(-10.673 .275 -102.795)" gradientUnits="userSpaceOnUse"><stop offset="0" style="stop-color:#a88062"/><stop offset=".06" style="stop-color:#b18768"/><stop offset=".259" style="stop-color:#c89c79"/><stop offset=".473" style="stop-color:#d9ab85"/><stop offset=".707" style="stop-color:#e3b38c"/><stop offset="1" style="stop-color:#e6b68e"/></linearGradient><path d="M4.027 23.104c-.123-.72-.954-1.849-1.412-1.267-.444.565-1.923 2.856-2.4 3.864-.088.188-.287 1.39-.188 1.628.157.379 1.17 1.36 1.354 1.762.4.872 1.044 1.075 1.438 1.077.177 0 .337.067.476.167.364.264 1.224.465 2.022.073 2.13-1.048-.028-.849 3.272-2.738.506-.29.438-.803-.038-1.128-.521-.355-1.24-.599-1.764-.479-1.412.323-2.453-1.152-2.76-2.96z" style="fill:url(#q)"/><linearGradient id="r" x1="-23.376" x2="-21.829" y1="25.585" y2="23.601" gradientTransform="rotate(-10.673 .275 -102.795)" gradientUnits="userSpaceOnUse"><stop offset="0" style="stop-color:#c79973;stop-opacity:.8"/><stop offset=".184" style="stop-color:#be926d;stop-opacity:.8368"/><stop offset=".484" style="stop-color:#a67f5e;stop-opacity:.8969"/><stop offset=".861" style="stop-color:#7e6046;stop-opacity:.9722"/><stop offset="1" style="stop-color:#6e533c"/></linearGradient><path d="M1.777 27.968c-.707-.373-.509-.533-1.198-.92-.31-.174-.106-1.475.956-1.609.876.887.35 1.06.138 1.53-.102.226-.131.522.104 1z" style="fill:url(#r)"/><path d="M7.439 26.973c-.225 1.506-1.158 1.38-1.676 2.028-.722.903-1.899 1.36-2.644 1.115.691-.029 1.723-.485 2.36-1.274.453-.56 1.588-.65 1.96-1.869z" style="fill:#1a1626"/><path d="M7.577 9.625c.073-.44 2.971 2.542 3.156 4.94-.573-.372-2.14-.564-2.351-1.073-.396-.951-.902-3.27-.804-3.867z" style="fill:#6e4837"/><path d="m7.513 18.817.67 1.67s.968-.91.52-2.053c0 0-.688.098-1.19.383z" style="fill:#1a1626"/><path d="M8.512 18.637c.61 2.92-2.613 2.515-2.667 1.89-.176-2.028 2.59-2.259 2.667-1.89z" style="fill:#fff"/><radialGradient id="s" cx="-48.901" cy="-59.759" r="1.143" gradientTransform="matrix(.8786 -.5067 .5076 .8639 80.483 46.575)" gradientUnits="userSpaceOnUse"><stop offset=".495" style="stop-color:#8c6c49"/><stop offset=".581" style="stop-color:#876848"/><stop offset=".679" style="stop-color:#7a5e43"/><stop offset=".782" style="stop-color:#634d3c"/><stop offset=".889" style="stop-color:#433533"/><stop offset=".999" style="stop-color:#1b1626"/><stop offset="1" style="stop-color:#1a1626"/></radialGradient><path d="M8.18 18.989c.85 1.388-1.35 2.634-2.144 1.214-.606-1.083 1.517-2.238 2.144-1.214z" style="fill:url(#s)"/><path d="M7.768 19.446c.203.85-1.064 1.143-1.267.293-.203-.847 1.065-1.14 1.267-.293z" style="fill:#1a1626"/><path d="M7.6 18.966c.078.322-.405.433-.482.111-.077-.32.406-.432.483-.111z" style="fill:#897c6e"/><path d="M9.272 18.137c-.725.34-1.47.011-2.264.272-.86.282-1.433 1.119-1.163 2.118.327-2.405 3.003-1.203 3.427-2.39z" style="fill:#1a1626"/><linearGradient id="t" x1="1.667" x2="7.692" y1="25.608" y2="25.608" gradientUnits="userSpaceOnUse"><stop offset="0" style="stop-color:#57575e"/><stop offset=".276" style="stop-color:#515158"/><stop offset=".65" style="stop-color:#424247"/><stop offset="1" style="stop-color:#2d2d30"/></linearGradient><path d="M1.689 23.098c1.832 1.57 3.788 3.946 4.98 5.988.127.216 1.14-.64 1.011-.86-1.24-2.124-3.38-4.456-5.28-6.094-.288-.253-.851.842-.71.965z" style="fill:url(#t)"/><linearGradient id="u" x1="5.069" x2="24.959" y1="26.58" y2="26.58" gradientUnits="userSpaceOnUse"><stop offset="0" style="stop-color:#2d2d30"/><stop offset=".35" style="stop-color:#424247"/><stop offset=".724" style="stop-color:#515158"/><stop offset="1" style="stop-color:#57575e"/></linearGradient><path d="M24.522 24.7c-4.977 2.16-14.448 3.868-18.609 1.265-.735-.46-1.224.61-.458 1.03 5.024 2.744 14.829 1.176 19.504-.96l-.437-1.335z" style="fill:url(#u)"/><radialGradient id="v" cx="10.581" cy="19.993" r="6.452" gradientUnits="userSpaceOnUse"><stop offset="0" style="stop-color:#57575e"/><stop offset=".276" style="stop-color:#515158"/><stop offset=".65" style="stop-color:#424247"/><stop offset="1" style="stop-color:#2d2d30"/></radialGradient><path d="M7.486 14.765c1.612 2.062 7.004 2.157 4.446 11.225-.05.176.786-.038.842-.2 3.314-9.784-3.205-9.76-4.678-11.814-.279-.261-.748.662-.61.79z" style="fill:url(#v)"/><radialGradient id="w" cx="10.548" cy="20.422" r="5.878" gradientUnits="userSpaceOnUse"><stop offset="0" style="stop-color:#57575e"/><stop offset=".276" style="stop-color:#515158"/><stop offset=".65" style="stop-color:#424247"/><stop offset="1" style="stop-color:#2d2d30"/></radialGradient><path d="M6.27 27.119s7.517-4.048 9.202-12.551c.031-.306-.979-1.075-1.01-.774-.996 8.29-8.838 12.593-8.838 12.593l.646.732z" style="fill:url(#w)"/><linearGradient id="x" x1="5.98" x2="5.98" y1="27.817" y2="25.596" gradientUnits="userSpaceOnUse"><stop offset="0" style="stop-color:#8d9ea8"/><stop offset=".162" style="stop-color:#9dadb6"/><stop offset=".413" style="stop-color:#aebec5"/><stop offset=".683" style="stop-color:#b9c8ce"/><stop offset="1" style="stop-color:#bccbd1"/></linearGradient><path d="M7.136 26.495c.272 1.447-2.04 1.873-2.312.426-.272-1.452 2.04-1.878 2.312-.426z" style="fill:url(#x)"/><linearGradient id="y" x1="12.996" x2="12.996" y1="20.821" y2="18.601" gradientUnits="userSpaceOnUse"><stop offset="0" style="stop-color:#8d9ea8"/><stop offset=".162" style="stop-color:#9dadb6"/><stop offset=".413" style="stop-color:#aebec5"/><stop offset=".683" style="stop-color:#b9c8ce"/><stop offset="1" style="stop-color:#bccbd1"/></linearGradient><path d="M14.152 19.5c.271 1.447-2.04 1.873-2.312.426-.272-1.452 2.04-1.878 2.312-.426z" style="fill:url(#y)"/><linearGradient id="z" x1="1.867" x2="6.774" y1="-70.94" y2="-63.712" gradientTransform="rotate(-9.543 510.343 -87.35)" gradientUnits="userSpaceOnUse"><stop offset="0" style="stop-color:#2d2d30"/><stop offset=".35" style="stop-color:#424247"/><stop offset=".724" style="stop-color:#515158"/><stop offset="1" style="stop-color:#57575e"/></linearGradient><path d="M19.23 19.145c-5.678-2.145-2.789-6.263-7.548-6.423-.197 4.301 3.787 6.833 7.548 6.423z" style="fill:url(#z)"/><path d="M18.463 18.82c-4.028-.762-3.68-4.462-6.781-6.098 3.24 1.248 2.945 5.248 6.781 6.098z" style="opacity:.5;fill:#2d2d30"/><path d="M19.23 19.145c-4.11.211-6.589-3.177-7.548-6.423 1.345 3.061 3.601 6.505 7.548 6.423z" style="opacity:.5;fill:#2d2d30"/><linearGradient id="A" x1="-22.252" x2="-20.801" y1="-40.832" y2="-38.815" gradientTransform="rotate(-13.226 231.457 -132.182)" gradientUnits="userSpaceOnUse"><stop offset="0" style="stop-color:#2d2d30"/><stop offset="1" style="stop-color:#57575e"/></linearGradient><path d="M7.69 12.714C9.613 16.071 6 16.964 5.28 18.8c0 0-2.478-3.271 2.41-6.085z" style="fill:url(#A)"/><path d="M5.28 18.8s-.97-3.304 2.41-6.086C5.075 15.888 5.28 18.8 5.28 18.8z" style="opacity:.5;fill:#2d2d30"/><path d="M6.204 17.16s1.083-2.173 1.486-4.446c.472 2.416-1.486 4.446-1.486 4.446z" style="opacity:.5;fill:#2d2d30"/><linearGradient id="B" x1="163.175" x2="157.686" y1="-182.222" y2="-181.255" gradientTransform="rotate(-16.171 771.64 371.49)" gradientUnits="userSpaceOnUse"><stop offset=".307" style="stop-color:#ffd8b4"/><stop offset=".513" style="stop-color:#fbd4af"/><stop offset=".744" style="stop-color:#f1c8a2"/><stop offset=".987" style="stop-color:#dfb48b"/><stop offset="1" style="stop-color:#deb38a"/></linearGradient><path d="M28.808 13.166c.735-.802 2.358-.466 2.59-.192.762.906 3.074-2.066 1.989-2.981-.946-.793-1.15-2.294-1.15-2.294-.734.01-5.178-2.647-3.429 5.467z" style="fill:url(#B)"/><path d="M24.295 9.347c-1.307-1.45-.04-3.552-2.08-4.079-1.342 2.242.014 3.57 2.08 4.08z" style="fill:#2e2319"/><path d="M22.589 6.808c.18.657.435 2.044 1.332 2.475.401.193.581 1.207.492 1.964-.04.329.087.627.299.698.324.108.516-.223.76-.14.4.136.279.489.365.611 0 0 .796-.391.835.552.123.02.255-.122.516.48.172.396.838.633 1.2.212 2.292-2.661 2.88-3.786 1.79-5.886-1.746-3.369-3.313-7.15-7.59-.966z" style="fill:#ffd8b4"/><path d="M25.837 12.416c.192.378 1.038.16 1.251-.548-.655.654-1.108.343-1.25.548z" style="fill:#deb38a"/><path d="M26.396 12.568c-.083.244.055.42.276.4.267-.31.515-.646.416-1.1-.23.465-.692.7-.692.7zm-1.786-.68c.346.357 1.637-.315 1.162-.885.243.681-1.387.653-1.162.885z" style="fill:#deb38a"/><path d="M27.02 6.183c.746.617-.994 1.217-1.06 2.053-.106 1.327-1.047 2.227-1.402 2.042-.872-.455-1.531-1.322-1.322-1.977.614-.77 3.783-2.118 3.783-2.118z" style="fill:#2d2d30"/><path d="M25.39 8.07c.081.901-.555 1.669-.85 1.753-.224.064-1.167-.925-1.005-1.015 1.357-.746 1.838-.932 1.855-.737z" style="fill:#443f54"/><path d="M29.87 1.581C28.074.482 26.314.46 23.96 1.936c-1.908 1.196-2.834 3.288-2.392 4.76.615 2.054 3.346.255 5.124 1.143 0 0-.17-1.217-1.666-2.128 2.172 1.023 3.356.905 4.183.685a9.775 9.775 0 0 1 2.66 3.521c.393-.505.611-1.148.677-1.833.163.25.336.523.524.834.667-2.14-.772-5.849-3.202-7.337z" style="fill:#403429"/><path d="M29.508 1.83C27.749.673 26.315.46 23.96 1.937c-1.908 1.196-2.677 3.071-2.152 4.277.486 1.116 1.287.317 4.253 1.108 0 0-1.027-1.318-3.302-2.314 2.759-.212 4.138 1.771 5.879.86 1.837-.961 2.468 1.187 3.247 2.427.464-1.237-.123-2.533-.123-2.533s.67.718 1.067 1.72c.118-1.604-1.574-4.498-3.322-5.65z" style="fill:#4f4236"/><path d="M22.614 3.57c2.246-.705 5.969-.429 8.397 1.776-1.972-3.36-6.613-3.538-8.397-1.777z" style="fill:#635547"/><path d="M23.833 2.29c2.264-.99 5.274-.514 7.26 1.781C29.42.854 25.917.558 23.832 2.29zm.797 4.165s-1.861-.572-2.743-1.849c-.383 2.527 2.743 1.849 2.743 1.849zM22.307 4.37c1.94-.354 5.316 2.167 6.752.619-2.03.735-4.732-2.227-6.752-.618z" style="fill:#635547"/><path d="M28.451 5.262c-.707.795.411 2.826 1.333 2.755.13-.01.624-.304.527-.934-.053-.35.236-.963-.064-1.5-.384-.691-1.093-1.11-1.796-.32z" style="fill:#ffd8b4"/><path d="M28.75 5.57c-.159.23-.179.618.032 1.028.286-.35.806.322.592.683.082.064.168.126.264.186.017-.53.426-.718.309-1.37-.106-.59-.802-1.096-1.197-.527z" style="fill:#deb38a"/><linearGradient id="C" x1="38.403" x2="38.403" y1="34.8" y2="22.802" gradientUnits="userSpaceOnUse"><stop offset="0" style="stop-color:#18ab83"/><stop offset=".172" style="stop-color:#0fba94"/><stop offset=".418" style="stop-color:#07caa5"/><stop offset=".682" style="stop-color:#02d3b0"/><stop offset="1" style="stop-color:#00d6b3"/></linearGradient><path d="M28.847 24.563s.45 5.493 2.049 10.19c4.349.47 10.732-2.676 17.063-3.944 0 0-1.125-5.912-2.164-8.007-3.5.601-10.036 3.033-16.948 1.761z" style="fill:url(#C)"/><radialGradient id="D" cx="34.601" cy="36.695" r="7.714" gradientUnits="userSpaceOnUse"><stop offset="0" style="stop-color:#57575e"/><stop offset=".276" style="stop-color:#515158"/><stop offset=".65" style="stop-color:#424247"/><stop offset="1" style="stop-color:#2d2d30"/></radialGradient><path d="M33.535 25.865s1.233 10.698 4.875 19.737c0 0-1.043.627-2.371.765-3.736-8.598-3.098-12.996-4.912-20.566l2.408.064z" style="fill:url(#D)"/><path d="M36.131 29.4s.237 1.66 2.176 5.168c0 0 .455.02.878-.303-1.17-3.833-1.614-5.062-1.614-5.062l-1.44.197z" style="fill:#2d2d30"/><linearGradient id="E" x1="37.451" x2="39.118" y1="23.889" y2="29.814" gradientUnits="userSpaceOnUse"><stop offset="0" style="stop-color:#2d2d30"/><stop offset=".35" style="stop-color:#424247"/><stop offset=".724" style="stop-color:#515158"/><stop offset="1" style="stop-color:#57575e"/></linearGradient><path d="M43.704 22.548c.164-.061.705.613.287.805-2.241 1.024-2.065 2.437-.981 5.504-1.9.438-10.445 3.377-12.26-4.192.001 0 7.223.028 12.954-2.117z" style="fill:url(#E)"/><path d="M31.082 4.15s-.89-.04-.827.166c.255.86.119 3.074.119 3.074s-2.492-.688-3.925-2.783c-.12-.179-.607.41-.59.626.104 1.312 4.392 3.185 4.392 3.185s-.794 3.505-1.443 4.748c1.52-1.02 2.677-5.416 2.274-9.016z" style="fill:#2d2d30"/><linearGradient id="F" x1="39.919" x2="51.503" y1="-37.257" y2="-37.257" gradientTransform="rotate(-2.922 843.922 357.692)" gradientUnits="userSpaceOnUse"><stop offset="0" style="stop-color:#ff5526"/><stop offset=".306" style="stop-color:#ec3f1c"/><stop offset=".941" style="stop-color:#bd0603"/><stop offset="1" style="stop-color:#b80000"/></linearGradient><path d="M24.66.443c-3.052 1.23-4.538 4.644-3.325 7.624.334.82 11.455-3.449 11.043-4.459C31.164.632 27.709-.787 24.66.443z" style="fill:url(#F)"/><linearGradient id="G" x1="39.225" x2="45.239" y1="-33.284" y2="-33.284" gradientTransform="rotate(-2.922 843.922 357.692)" gradientUnits="userSpaceOnUse"><stop offset="0" style="stop-color:#ff5526"/><stop offset=".306" style="stop-color:#ec3f1c"/><stop offset=".941" style="stop-color:#bd0603"/><stop offset="1" style="stop-color:#b80000"/></linearGradient><path d="M21.064 7.218c-.115-.004-.961 1.625-.61 2.108.271.373 3.687-.877 5.808-2.467.288-.216-2.942.446-5.198.359z" style="fill:url(#G)"/><path d="m27.7 23.119-.855.39c-.947-.203-1.596.324-2.421.612-.422.15-.884.677-.667.894l.717-.204c-.22.548-.717 1.7-.049 1.68 1.222-.036 1.271.626 2.64.324.499-.11 1.024-.924 1.141-1.342l.822-.448-1.327-1.906z" style="fill:#ffd8b4"/><path d="M31.9 13.483c.224 1.23.563 2.742.358 5.493 0 0-1.227 2.134-3.777 3.61 0 0 1.401 1.156 1.408 2.114 0 0 4.132-2.01 5.212-3.742.649-1.04.736-3.94.703-5.357-.064-.036-2.697-1.393-3.905-2.118z" style="fill:#ed6a00"/><path d="M39.99 17.515s-5.124 4.369-4.678 6.473c.248 1.169 1.076 2.707 3.074 5.137l3.675-1.62s-.546-2.055-1.046-2.925c7.658-6.26 8.663-7.362 5.065-10.799l-6.09 3.734z" style="fill:#d0d0d0"/><path d="M31.275 19.904s-1.463 1.949-4.098 3.258c0 0 1.426 1.352 1.374 2.309 0 0 4.32-2.373 5.505-4.034 1.074-1.504.984-5.904.984-5.904l4.95 1.982s4.494-.066 6.429-3.812c0 0-7.002-6.128-13.88-4.929.079.858-1.124 1.993-1.34 3.815-.212 1.796.641 3.181.076 7.315z" style="fill:#ff7a00"/><linearGradient id="H" x1="37.988" x2="44.991" y1="33.828" y2="31.862" gradientUnits="userSpaceOnUse"><stop offset="0" style="stop-color:#57575e"/><stop offset=".247" style="stop-color:#4f4f56"/><stop offset=".638" style="stop-color:#3a3a3f"/><stop offset=".841" style="stop-color:#2d2d30"/></linearGradient><path d="M41.498 34.953s-3.606 2.063-3.733 2.697c-.134.637.4 1.018.714 1.074 1.006.179 4.11-.965 4.11-.965l.109.258 2.32-.687c-.67-2.507-1.539-7.044-2.937-10.159 0 0-2.294.551-4.074 1.805l3.49 5.977z" style="fill:url(#H)"/><linearGradient id="I" x1="40.936" x2="39.177" y1="38.557" y2="35.039" gradientUnits="userSpaceOnUse"><stop offset="0" style="stop-color:#8d9ea8"/><stop offset=".162" style="stop-color:#9dadb6"/><stop offset=".413" style="stop-color:#aebec5"/><stop offset=".683" style="stop-color:#b9c8ce"/><stop offset="1" style="stop-color:#bccbd1"/></linearGradient><path d="M38.89 33.988s.929 1.932 2.62 4.333c0 0 .161.38-.934.454-1.793-2.441-2.173-4.621-2.173-4.621l.487-.166z" style="fill:url(#I)"/></svg>