<svg xmlns="http://www.w3.org/2000/svg" xml:space="preserve" style="enable-background:new 0 0 64 64" viewBox="0 0 64 64"><path d="M48.01 12.789c.036 2.973-4.141 4.108-4.266 0h4.266zm-32.02 0c-.036 2.973 4.141 4.108 4.266 0H15.99z" style="fill:#d9b18d"/><path d="M41.656 36.978c-5.769-1.51-4.919-7.255-4.919-7.255L32 31.123l-4.737-1.4s.85 5.745-4.92 7.255c.744 2.901 3.305 3.858 2.18 7.979-2.18 7.988 2.215 9.482 7.477 9.482 5.263 0 9.656-1.494 7.477-9.482-1.125-4.121 1.435-5.077 2.18-7.98z" style="fill:#3ab0a2"/><path d="M39.215 42.61S35.733 44.35 32 44.35s-7.215-1.74-7.215-1.74l-.135 1.824s3.617 2.859 7.35 2.859 7.35-2.859 7.35-2.859l-.136-1.824z" style="fill:#302c3b"/><path d="M27.262 29.723s-.508-1.957-3.248-2.772c-1.037-5.108-3.26-7.478-4.445-12.378h-2.871c1.946 5.41-1.431 10.43 4.906 17.96-.169 2.456.74 4.445.74 4.445 6.329-.844 4.918-7.255 4.918-7.255zm9.475 0s.509-1.957 3.248-2.772c1.04-5.108 3.26-7.478 4.446-12.378h2.871c-1.946 5.41 1.431 10.43-4.906 17.96.169 2.456-.74 4.445-.74 4.445-6.329-.844-4.919-7.255-4.919-7.255zm-8.018 1.06c0 2.414 6.566 2.414 6.566 0v-2.672H28.72v2.672z" style="fill:#d9b18d"/><linearGradient id="a" x1="32" x2="32" y1="12.931" y2="11.131" gradientUnits="userSpaceOnUse"><stop offset="0" style="stop-color:#697378"/><stop offset="1" style="stop-color:#bac7cc"/></linearGradient><path d="M0 11.131h64v1.8H0z" style="fill:url(#a)"/><path d="M47.2 11.51s-.435.486-1.035.048c-.275.647-.986.469-1.25.102-.067.282-.652.334-.652.334s1.875.486 2.006 1.304c.287 1.791-1.459 1.8-1.99 1.496-1.452-.828-1.158-2.101-1.854-3.724-.13-.303-.062-1.1 1.202-.466 0 0 .006-1.05 1.206-.642-.048-.738 1.1-.688 1.307-.117.718-.501 1.304-.063 1.333.286 1.427-.05.86 2.431-.273 1.38z" style="fill:#d9b18d"/><path d="M47.2 11.51c.169-.492.273-1.379.273-1.379s.144.777-.273 1.38zm-1.035.048c.168-.494-.025-1.713-.025-1.713s.441 1.11.025 1.713zm-1.25.102c.168-.492-.082-1.698-.082-1.698s.498 1.095.082 1.698zm-.652.334c-.62-.436-.636-1.39-.636-1.39s.256.82.636 1.39z" style="fill:#c99b71"/><path d="M16.8 11.51s.435.486 1.035.048c.275.647.986.469 1.25.102.067.282.652.334.652.334s-1.875.486-2.006 1.304c-.287 1.791 1.458 1.8 1.99 1.496 1.452-.828 1.158-2.101 1.854-3.724.13-.303.062-1.1-1.202-.466 0 0-.006-1.05-1.206-.642.048-.738-1.1-.688-1.307-.117-.718-.501-1.304-.063-1.333.286-1.427-.05-.86 2.431.273 1.38z" style="fill:#d9b18d"/><path d="M16.8 11.51c-.169-.492-.273-1.379-.273-1.379s-.144.777.273 1.38zm1.035.048c-.168-.494.025-1.713.025-1.713s-.441 1.11-.025 1.713zm1.25.102c-.168-.492.082-1.698.082-1.698s-.498 1.095-.082 1.698zm.653.334c.618-.436.635-1.39.635-1.39s-.256.82-.636 1.39z" style="fill:#c99b71"/><linearGradient id="b" x1="8" x2="8" y1="14.25" y2="9.808" gradientUnits="userSpaceOnUse"><stop offset="0" style="stop-color:#697378"/><stop offset="1" style="stop-color:#dbe6eb"/></linearGradient><path d="M2.133 9.808h11.733v4.442H2.133z" style="fill:url(#b)"/><path d="M2.667 9.253h1.067v1.111H2.667z" style="fill:#6e8189"/><linearGradient id="c" x1="4.267" x2="8.969" y1="12.029" y2="12.029" gradientUnits="userSpaceOnUse"><stop offset="0" style="stop-color:#5b666e"/><stop offset="1" style="stop-color:#302c3b"/></linearGradient><path d="M8.533 19.526a.488.488 0 0 1-.477.497H4.744a.488.488 0 0 1-.477-.497V4.531c0-.273.214-.496.477-.496h3.312c.263 0 .477.223.477.496.582 3.878.582 11.12 0 14.995z" style="fill:url(#c)"/><linearGradient id="d" x1="8.533" x2="12.8" y1="11.994" y2="11.994" gradientUnits="userSpaceOnUse"><stop offset="0" style="stop-color:#5b666e"/><stop offset="1" style="stop-color:#302c3b"/></linearGradient><path d="M12.8 21.492a.488.488 0 0 1-.477.496H9.01a.488.488 0 0 1-.477-.496V2.497c0-.274.215-.497.477-.497h3.313c.262 0 .477.223.477.497v18.995z" style="fill:url(#d)"/><linearGradient id="e" x1="6.4" x2="6.4" y1="20.023" y2="4.035" gradientUnits="userSpaceOnUse"><stop offset="0" style="stop-color:#302c3b"/><stop offset=".158" style="stop-color:#33303f"/><stop offset=".323" style="stop-color:#3d3d4b"/><stop offset=".489" style="stop-color:#4d515e"/><stop offset=".657" style="stop-color:#646e79"/><stop offset=".743" style="stop-color:#72808a"/><stop offset=".812" style="stop-color:#707d87"/><stop offset=".865" style="stop-color:#68737e"/><stop offset=".912" style="stop-color:#5b636f"/><stop offset=".955" style="stop-color:#494c59"/><stop offset=".997" style="stop-color:#322f3e"/><stop offset="1" style="stop-color:#302c3b"/></linearGradient><path d="M4.744 4.035h3.313v15.989H4.744z" style="fill:url(#e)"/><linearGradient id="f" x1="10.667" x2="10.667" y1="22.023" y2="2.035" gradientUnits="userSpaceOnUse"><stop offset="0" style="stop-color:#302c3b"/><stop offset=".158" style="stop-color:#33303f"/><stop offset=".323" style="stop-color:#3d3d4b"/><stop offset=".489" style="stop-color:#4d515e"/><stop offset=".657" style="stop-color:#646e79"/><stop offset=".743" style="stop-color:#72808a"/><stop offset=".812" style="stop-color:#707d87"/><stop offset=".865" style="stop-color:#68737e"/><stop offset=".912" style="stop-color:#5b636f"/><stop offset=".955" style="stop-color:#494c59"/><stop offset=".997" style="stop-color:#322f3e"/><stop offset="1" style="stop-color:#302c3b"/></linearGradient><path d="M9.01 2.035h3.313v19.988H9.01z" style="fill:url(#f)"/><linearGradient id="g" x1="-1956.392" x2="-1956.392" y1="14.269" y2="9.828" gradientTransform="matrix(-1 0 0 1 -1900.392 0)" gradientUnits="userSpaceOnUse"><stop offset="0" style="stop-color:#697378"/><stop offset="1" style="stop-color:#dbe6eb"/></linearGradient><path d="M50.133 9.828h11.733v4.442H50.133z" style="fill:url(#g)"/><path d="M60.267 9.272h1.067v1.111h-1.067z" style="fill:#6e8189"/><linearGradient id="h" x1="55.031" x2="59.733" y1="12.048" y2="12.048" gradientUnits="userSpaceOnUse"><stop offset="0" style="stop-color:#5b666e"/><stop offset="1" style="stop-color:#302c3b"/></linearGradient><path d="M55.467 19.546c0 .273.214.497.477.497h3.312a.488.488 0 0 0 .477-.497V4.55a.488.488 0 0 0-.477-.497h-3.312a.488.488 0 0 0-.477.497c-.582 3.878-.582 11.12 0 14.995z" style="fill:url(#h)"/><linearGradient id="i" x1="51.2" x2="55.467" y1="12.014" y2="12.014" gradientUnits="userSpaceOnUse"><stop offset="0" style="stop-color:#5b666e"/><stop offset="1" style="stop-color:#302c3b"/></linearGradient><path d="M51.2 21.511c0 .274.214.497.477.497h3.313a.488.488 0 0 0 .477-.497V2.516a.488.488 0 0 0-.477-.497h-3.313a.488.488 0 0 0-.477.497v18.995z" style="fill:url(#i)"/><linearGradient id="j" x1="-1957.992" x2="-1957.992" y1="20.043" y2="4.054" gradientTransform="matrix(-1 0 0 1 -1900.392 0)" gradientUnits="userSpaceOnUse"><stop offset="0" style="stop-color:#302c3b"/><stop offset=".158" style="stop-color:#33303f"/><stop offset=".323" style="stop-color:#3d3d4b"/><stop offset=".489" style="stop-color:#4d515e"/><stop offset=".657" style="stop-color:#646e79"/><stop offset=".743" style="stop-color:#72808a"/><stop offset=".812" style="stop-color:#707d87"/><stop offset=".865" style="stop-color:#68737e"/><stop offset=".912" style="stop-color:#5b636f"/><stop offset=".955" style="stop-color:#494c59"/><stop offset=".997" style="stop-color:#322f3e"/><stop offset="1" style="stop-color:#302c3b"/></linearGradient><path d="M55.944 4.054h3.313v15.989h-3.313z" style="fill:url(#j)"/><linearGradient id="k" x1="-1953.725" x2="-1953.725" y1="22.043" y2="2.054" gradientTransform="matrix(-1 0 0 1 -1900.392 0)" gradientUnits="userSpaceOnUse"><stop offset="0" style="stop-color:#302c3b"/><stop offset=".158" style="stop-color:#33303f"/><stop offset=".323" style="stop-color:#3d3d4b"/><stop offset=".489" style="stop-color:#4d515e"/><stop offset=".657" style="stop-color:#646e79"/><stop offset=".743" style="stop-color:#72808a"/><stop offset=".812" style="stop-color:#707d87"/><stop offset=".865" style="stop-color:#68737e"/><stop offset=".912" style="stop-color:#5b636f"/><stop offset=".955" style="stop-color:#494c59"/><stop offset=".997" style="stop-color:#322f3e"/><stop offset="1" style="stop-color:#302c3b"/></linearGradient><path d="M51.677 2.054h3.313v19.988h-3.313z" style="fill:url(#k)"/><path d="M38.001 22.586c-.928.112-1.6 3.22-1.015 4.04.082.114.56.297.916-.427.196-.401.763-.736.939-1.562.225-1.06.084-2.163-.84-2.05zm-11.999 0c.93.112 1.6 3.22 1.015 4.04-.082.114-.56.297-.916-.427-.196-.401-.763-.736-.938-1.562-.226-1.06-.085-2.163.84-2.05z" style="fill:#ebc199"/><path d="M37.976 23.181c-.242.076-.507.446-.65 1.059.847-.182.635 1.227-.101 1.254a6.8 6.8 0 0 0 .034.44c.354-.514.715-.308 1.072-1.073.321-.69.245-1.868-.355-1.68zm-11.299 1.057c-.144-.612-.407-.98-.65-1.057-.6-.188-.677.99-.355 1.68.357.765.718.559 1.073 1.073.017-.153.027-.3.033-.441-.729-.034-.937-1.427-.1-1.255z" style="fill:#c99b71"/><path d="M32.001 16.611c-4.024 0-5.962 3.042-5.72 7.27.049.852.577 3.627 1.075 4.623.51 1.019 2.217 2.59 3.262 2.915.66.204 2.107.204 2.767 0 1.045-.326 2.752-1.896 3.262-2.915.5-.996 1.027-3.77 1.074-4.622.245-4.229-1.694-7.27-5.72-7.27z" style="fill:#ebc199"/><path d="m36.792 17.88-.916 1.108c1.854 1.137.817 4.108 1.66 6.273.286-2.16 1.627-6.87-.744-7.381zm-9.618.548.916.56c-1.854 1.138-.78 4.109-1.622 6.273-.287-2.16-1.665-6.322.706-6.833z" style="fill:#e6c465"/><path d="M35.821 18.674c1.178-.004 1.295 1.92 1.295 1.92s.353-2.191-1.143-2.191l-.152.271zm-8.526.951c-.472 1.153-.639 2.338-.639 2.338s-.249-.83.346-2.296l.293-.042z" style="fill:#d1a936"/><path d="M36.29 18.226c.92-.096 1.144 1.4 1.144 1.4s.126-1.742-1.043-1.625l-.1.224z" style="fill:#d1a936"/><path d="M36.791 17.88s-1.372-2.393-4.808-2.393c-3.73 0-6.082 1.672-6.162 4.909 2.285-2.253 8.303 1.25 10.97-2.516z" style="fill:#f2d785"/><path d="M36.791 17.88c-.352-1.105-2.222-2.393-4.808-2.393 1.433.101 3.322.811 3.516 1.26 0 0-1.982-1.069-4.656-.6 2.452-.111 4.071 1.448 3.382 1.456-.671.008-3.165.092-4.644 1.004.952-.064 2.83.448 2.745.48-1.894.734-5.697-1.01-6.478 1.308 2.937-2.515 8.539 1.536 10.943-2.515z" style="fill:#e6c465"/><path d="M36.791 17.88c-1.96 4.634-10.77-.549-10.565 3.332-.9-4.453 7.666 1.04 10.565-3.332z" style="fill:#d1a936"/><path d="M36.255 18.574c-.932-1.83-3.954-2.487-3.954-2.487s3.16.18 4.2 2.242l-.246.245zm-.479.414c-.868-.813-5.053-.526-5.053-.526s3.05-.92 5.384.26l-.331.266z" style="fill:#d1a936"/><path d="M26.008 19.69s.41-3.33 6.133-3.08c-4.705.652-6.133 3.08-6.133 3.08z" style="fill:#e6c465"/><path d="M26.362 19.499s2.267-2.967 7.244-2.219c-4.153-.121-7.244 2.219-7.244 2.219zm-.125-1.037s2.489-2.799 6.57-2.752c-4.715-.627-6.57 2.752-6.57 2.752z" style="fill:#fae29b"/><path d="M36.115 22.85c-.995-.309-2.73-.005-3.311.452-.127.09.05.526.159.46.83-.524 2.279-.806 3.194-.572.122.03.108-.3-.042-.34zm-8.235-.489c.99-.324 2.73-.049 3.32.398.127.088-.043.527-.152.464-.841-.512-2.292-.77-3.204-.52-.12.031-.111-.299.037-.342z" style="fill:#ab8c57"/><path d="M33.077 26.311c-.115-.08-.384.044-1.086.044-.7 0-.97-.124-1.085-.044-.138.097.08.534 1.085.534s1.224-.437 1.086-.534z" style="fill:#c99b71"/><path d="M34.187 28.26c-.24-.385-.823-.642-2.195-.642-1.373 0-1.957.257-2.198.642-.13.204.056.535.056.535.229.417.196.536 2.141.536 1.942 0 1.913-.119 2.142-.535 0 0 .186-.332.054-.536z" style="fill:#45332c"/><path d="M33.704 28.258a.17.17 0 0 0-.067-.16s-.416-.267-1.646-.267c-1.227 0-1.645.267-1.645.267-.048.029-.077.102-.065.16l.02.11a.126.126 0 0 0 .12.104h3.141a.128.128 0 0 0 .119-.104l.023-.11zm-1.713.86c.673 0 1.632 0 1.605-.222a.533.533 0 0 0-.032-.136c-.012-.056-.027-.07-.143-.07h-2.86c-.115 0-.13.014-.145.07-.012.05-.025.096-.03.135-.026.223.933.223 1.605.223z" style="fill:#fff"/><path d="M30.9 24.172c-.695.443-1.775.443-2.47 0-.106-.068-.17.006-.136.062.675 1.145 2.066 1.145 2.74 0 .036-.056-.028-.13-.135-.062zm4.647 0c-.695.443-1.775.443-2.47 0-.106-.068-.169.006-.136.062.675 1.145 2.067 1.145 2.742 0 .034-.056-.03-.13-.136-.062z" style="fill:#45332c"/><path d="M22.649 52.108s6.723 5.123 5.602-4.175c-.13-1.083-3.919-4.19-4.598-4.19l-1.004 8.365z" style="fill:#c99b71"/><path d="M25.978 57.727s-.575 1.614-3.775.41c-1.514-6.61-3.566-5.693-4.462-10.43 0 0 2.916-3.412 6.437.698 2.148 4.067-.419 6.199 1.8 9.322z" style="fill:#d9b18d"/><path d="M24.178 48.405s-3.431-2.87-6.437-.698c0 0-.438-6.188 5.912-3.965.952.334 1.227 4.358.525 4.663zm-2.545 7.647c-.21-.092.376 1.202.57 2.085 3.2 1.204 3.775-.41 3.775-.41-.163-.661-.686-1.72-.807-1.675-.917.344-3.009.233-3.538 0z" style="fill:#e6ebef"/><path d="M26.332 61.345c.667-2.039-.354-3.618-.354-3.618-1.712 1.015-3.775.41-3.775.41-5.298 1.076-5.475 1.933-5.35 3.208h9.48z" style="fill:#3ab0a2"/><path d="M26.257 62c.344-.247.075-.655.075-.655h-9.479s-.317.288.03.655h9.374zm-4.06-4.008c-.517-.367-3.34.683-3.054.941 1.054.946 1.773 1.115 1.843.434.707.466 1.096.07 1.092-.334.758.3 1.019-.347.119-1.041z" style="fill:#c3bfbd"/><path d="M41.35 52.108s-6.723 5.123-5.602-4.175c.13-1.083 3.92-4.19 4.598-4.19l1.004 8.365z" style="fill:#c99b71"/><path d="M38.021 57.727s.577 1.614 3.775.41c1.515-6.61 3.567-5.693 4.463-10.43 0 0-2.917-3.412-6.438.698-2.148 4.067.419 6.199-1.8 9.322z" style="fill:#d9b18d"/><path d="M39.821 48.405s3.432-2.87 6.438-.698c0 0 .437-6.188-5.913-3.965-.952.334-1.227 4.358-.525 4.663zm2.546 7.647c.21-.092-.376 1.202-.57 2.085-3.2 1.204-3.775-.41-3.775-.41.163-.661.686-1.72.806-1.675.918.344 3.01.233 3.539 0z" style="fill:#e6ebef"/><path d="M37.67 61.345c-.668-2.039.351-3.618.351-3.618 1.715 1.015 3.775.41 3.775.41 5.298 1.076 5.475 1.933 5.35 3.208H37.67z" style="fill:#3ab0a2"/><path d="M37.742 62c-.342-.247-.073-.655-.073-.655h9.477s.317.288-.027.655h-9.377zm4.061-4.008c.518-.367 3.34.683 3.056.941-1.054.946-1.773 1.115-1.844.434-.708.466-1.098.07-1.094-.334-.756.3-1.016-.347-.118-1.041z" style="fill:#c3bfbd"/></svg>