<svg xmlns="http://www.w3.org/2000/svg" xml:space="preserve" style="enable-background:new 0 0 64 64" viewBox="0 0 64 64"><linearGradient id="a" x1="-61.794" x2="-67.632" y1="22.02" y2="22.02" gradientTransform="rotate(-14.999 -54.658 -313.104)" gradientUnits="userSpaceOnUse"><stop offset=".307" style="stop-color:#916b50"/><stop offset=".519" style="stop-color:#8c674c"/><stop offset=".756" style="stop-color:#7f5a40"/><stop offset="1" style="stop-color:#69452d"/></linearGradient><path d="M19.99 15.637c.808-.508 1.18.522 1.183.831.009 1.388 2.392.23 4.383-2.615-.334-.573-.986-3.208-.986-3.208-2.153-3.329-3.046.202-4.58 4.992z" style="fill:url(#a)"/><path d="M14.971 6.82c-.062.77-.294 2.46.505 3.28.357.368.156 1.516-.237 2.285-.17.333-.151.7.05.862.307.246.644-.028.875.159.377.305.11.63.155.796 0 0 1.011-.094.684.922.125.073.324-.025.37.719.03.49.656 1.011 1.212.71 3.512-1.9 4.586-2.856 4.232-5.527C22.249 6.745 22 1.982 14.97 6.82z" style="fill:#916b50"/><path d="M16.319 14.202c.059.478 1.057.588 1.563-.076-.962.429-1.33-.084-1.563.076z" style="fill:#69452d"/><path d="M16.861 14.589c-.183.225-.104.468.142.536.41-.222.809-.477.88-1-.43.402-1.021.464-1.021.464zm-1.66-1.443c.234.518 1.89.326 1.6-.47-.005.82-1.752.132-1.6.47z" style="fill:#69452d"/><path d="M17.512 10.34c-.172.573-.847.877-.847.877-.308-.153-.477-.684-.488-.995.35-.156 1.335.118 1.335.118z" style="fill:#fff"/><linearGradient id="b" x1="-181.113" x2="-181.113" y1="-94.581" y2="-95.821" gradientTransform="matrix(.5385 -.2074 .3595 .9332 148.185 61.908)" gradientUnits="userSpaceOnUse"><stop offset="0" style="stop-color:#a6694a"/><stop offset="1" style="stop-color:#4f2a1e"/></linearGradient><path d="M16.211 10.763c.267.735.766.543.485-.187-.26-.678-.827-.757-.485.187z" style="fill:url(#b)"/><path d="M16.266 10.719c.132.344.328.268.195-.076-.122-.32-.318-.244-.195.076z" style="fill:#1a1626"/><path d="M16.341 10.523c.066.171.164.134.098-.038-.061-.159-.159-.12-.098.038z" style="fill:#ab968c"/><path d="M17.512 10.34c-.55-.35-1.094-.406-1.433-.3-.024.178.027.234.027.234s.28-.181 1.406.066z" style="fill:#69452d"/><path d="M17.198 9.303c-.492-.246-1.276-.33-1.857.151-.084.07.14.438.207.383.448-.366.976-.427 1.717-.221.085.024.031-.264-.067-.313z" style="fill:#523c31"/><path d="M26.104 5.825c-.645-1.483-1.534-2.239-1.534-2.239-.654-1.37-2.348-2.132-6.11-1.124-3.89 1.042-4.938 3.544-3.523 4.74.15.127 2.294-.153 3.557-1.085 0 0 .244.78.203 1.913-.026.698 1.275.737 1.69 1.624.708 1.52 1.275.468 2.058-.074 1.782-.966 1.835 2.606 2.516 3.063.946-1.053 2.62-3.42 1.143-6.818z" style="fill:#6b4d3c"/><path d="M25.501 11.305c.476-1.224.182-2.566.182-2.566s-.11 1.897-.885 2.82c.393-1.655-.208-2.535-.208-2.535s.234.782-.127 2.072c-.343-.826-1.069-2.77-1.433-1.675 1.775 1.01.867 4.407 1.931 3.222.764-.851 2.004-2.56 1.672-4.978 0 0 .178 2.01-1.132 3.64zm-5.69-5.791-.536.291S19.198 6.9 20.46 8.39c-1.039-1.822-.648-2.876-.648-2.876zm1.611-.944-.484.236s.002 1.333 1.567 2.653c-1.367-1.664-1.083-2.89-1.083-2.89zm.981-.472.416-.148s.73.227 1.209 1.765c-.796-1.368-1.625-1.617-1.625-1.617zm-.55.117s-1.95.452-4.557-.634c2.32 1.408 3.883 1.024 3.883 1.024l.674-.39zm-2.225 1.233s-2.547.4-4.676-.431c1.806 1.223 3.876.897 3.876.897l.8-.466zm3.608-1.73-.31.13S22.48 3.22 21.1 2.726c1.44.164 2.136.992 2.136.992z" style="fill:#5c4233"/><path d="M22.108 11.75c.137.046.81-.007.97-.704.09-.386.559-.886.47-1.573-.11-.881-2.418 1.958-1.44 2.278z" style="fill:#69452d"/><path d="M21.826 8.31c-1.054.525-.74 3.113.239 3.433.137.045.767-.05.926-.747.09-.386.64-.9.552-1.587-.11-.882-.668-1.62-1.717-1.099z" style="fill:#916b50"/><path d="M24.57 3.586c-3.992.59-6.3 4.01-9.633 3.616 3.317-.132 6.422-3.929 9.633-3.616z" style="fill:#5c4233"/><path d="M19.138 5.143s-1.477.033-3.447-.78c1.813 1.456 3.447.78 3.447.78zm4.576-1.217s.666.662 1.468 1.752c-.297-1.635-1.468-1.752-1.468-1.752zm-2.287 4.081s-.777-.901-.99-2.537c-.482 1.863.99 2.537.99 2.537zm.765-3.405s.246 1.1 1.28 2.36c-.209-1.715-1.28-2.36-1.28-2.36zm-.234-.871s-1.376-.582-2.99-.551c1.593.765 2.99.551 2.99.551zm.015-1.239s.808.331 1.633.757c-.417-.814-1.633-.757-1.633-.757zM17.6 6.22s-1.297.284-3.233-.257c1.95 1.256 3.234.256 3.234.256z" style="fill:#7a5b49"/><path d="M21.96 8.758c-.256.18-.423.587-.354 1.114.437-.254.738.682.374.98.063.102.131.205.212.31.217-.562.724-.593.845-1.341.11-.675-.442-1.508-1.077-1.063z" style="fill:#69452d"/><path d="M8 58.834s2.693 2.747 6.545 2.56L17.15 62c.205-.337.092-.46.092-.46s-1.787-1.882-8.943-2.997c0 0-.195-.042-.299.291z" style="fill:#c3bfbd"/><path d="M14.656 56.995c-1.13 1.235-5.601-.915-6.357 1.548 0 0 2.488 2.58 6.338 2.392l2.605.604c3.557-5.818-2.586-4.544-2.586-4.544z" style="fill:#3ab0a2"/><path d="M11.498 57.319c.662 1.12 1.23 1.452 1.463.851.484.6.916.335 1.015-.032.57.459.956-.064.364-.917-.348-.461-3.02-.206-2.842.098zm44.318-3.507s.893-3.792-1.256-7.083l-.841-2.607c-.387-.006-.43.157-.43.157s-.643 2.546 2.13 9.421c0 0 .067.194.397.112z" style="fill:#c3bfbd"/><path d="M50.842 48.905c1.613.357 2.136 5.405 4.578 4.795 0 0 .86-3.525-1.29-6.816l-.841-2.605c-4.18.381-3.393 1.933-2.447 4.626z" style="fill:#3ab0a2"/><path d="M52.744 51.516c.592-1.161.574-1.833-.045-1.725.25-.738-.195-.982-.553-.878.088-.74-.547-.808-.95.154-.206.544 1.39 2.762 1.548 2.449z" style="fill:#c3bfbd"/><path d="M20.076 37.133c-2.14 2.681-4.033 5.576-3.994 6.883.156 5.302-1.086 11.788-1.086 11.788.24 1.113 2.853 1.596 3.443.792 1.104-5.086 3.354-5.918 2.574-11.585 4.037-2.718 6.232-7.089 8.12-7.878h-9.057z" style="fill:#916b50"/><linearGradient id="c" x1="28.855" x2="47.518" y1="39.005" y2="50.567" gradientUnits="userSpaceOnUse"><stop offset="0" style="stop-color:#69452d"/><stop offset=".078" style="stop-color:#6f4b33"/><stop offset=".371" style="stop-color:#825d43"/><stop offset=".674" style="stop-color:#8d684d"/><stop offset="1" style="stop-color:#916b50"/></linearGradient><path d="M49.44 45.298c-6.003.07-8.85-1.687-11.973-.005-.314-3.304-1.523-5.293-1.948-8.16h-6.14c.274 5.921 5.265 12.292 6.324 12.55 1.156.28 5.875-1.293 13.86-1.075.652.018.2-3.311-.124-3.31z" style="fill:url(#c)"/><path d="M14.996 55.805c-.14.863-.238 1.496-.238 1.496s1.133 1.099 3.305.953c.126-.602.232-1.137.376-1.657-.513.376-2.85-.013-3.443-.792zM50.709 45.26c-.44.023-.862.033-1.27.038.457.994.385 2.703.123 3.31.38.002.758.006 1.147.016.652.018.326-3.38 0-3.363z" style="fill:#f2f5f7"/><path d="M30.271 42.378s4.184-.105 6.53-1.571c-.457-4.764-1.465-8.653-3.188-11.1-5.053 1.01-8.746 4.066-3.342 12.671z" style="fill:#666b6e"/><path d="M24.264 30.558c-1.43 2.4-3.829 5.86-5.37 7.356 0 0 2.303 3.066 6.461 3.678 3.184-2.79 15.033-4.765 8.258-11.886-5.053 1.012-9.35.852-9.35.852z" style="fill:#757a7d"/><linearGradient id="d" x1="9.549" x2="24.551" y1="24.78" y2="24.78" gradientUnits="userSpaceOnUse"><stop offset="0" style="stop-color:#916b50"/><stop offset=".326" style="stop-color:#8d684d"/><stop offset=".629" style="stop-color:#825d43"/><stop offset=".922" style="stop-color:#6f4b33"/><stop offset="1" style="stop-color:#69452d"/></linearGradient><path d="M23.605 20.116c-2.453-1.273-3.656 3.845-3.648 5.159-2.21-.979-6.156-1.75-6.006-2.925.135-1.055-.076-1.121-1.053-2.38-.27-.349-.857.212-.857.212-.844-.64-.803.249-1.355.524-.516.256-.307.69-.793 1.051-1.08.806.558 2.438 2.482 3.044 1.377.437 5.684 5.059 9.305 4.9 1.203-.053 4.47-7.62 1.925-9.585z" style="fill:url(#d)"/><path d="M25.556 13.853c-1.174.399-3.01 2.472-4.384 2.615-2.964 6.618 2.027 8.812 2.531 14.806.803 1.344 9.441.688 10.244-1.444-4.56-5.561 2.682-15.59-8.39-15.977z" style="fill:#3ab0a2"/><path d="M29.535 17.03c-2.57 3.393 4.107 4.96 5.436 5.158-1.524 1.937-5.344 7.756-5.725 7.578-1.11-.51-1.143-.1-2.578.642-.399.204.074.854.074.854-.791.71.117.808.303 1.382.174.533.648.401.931.922.637 1.16 2.557-.156 3.489-1.905.666-1.253 7.605-6.575 8.043-10.075.146-1.161-7.565-6.69-9.973-4.556z" style="fill:#916b50"/><path d="M30.736 21.52c1.08-2.397 2.467-4.183 3.07-4.663-8.56-7.429-12.83 1.156-3.07 4.663z" style="fill:#25a898"/><path d="M11.982 20.144c1.883 1.243.745 1.967.745 1.967s1.544-.719-.745-1.967z" style="fill:#69452d"/><path d="M11.475 20.866c1.838 1.153.816 1.835.816 1.835s1.416-.678-.816-1.835z" style="fill:#69452d"/><path d="M10.99 21.329c2 1.372.826 1.865.826 1.865s1.534-.387-.826-1.865z" style="fill:#69452d"/><path d="M10.693 22.023c2.24 1.067.914 2.451-.64.582 1.595 1.484 2.556.589.64-.582z" style="fill:#69452d"/></svg>