<svg xmlns="http://www.w3.org/2000/svg" xml:space="preserve" style="enable-background:new 0 0 64 64" viewBox="0 0 64 64"><radialGradient id="a" cx="47.197" cy="69.069" r="37.127" gradientTransform="matrix(1.0667 0 0 .5401 -26.212 7.836)" gradientUnits="userSpaceOnUse"><stop offset="0" style="stop-color:#4ecee6"/><stop offset="1" style="stop-color:#009af7"/></radialGradient><path d="M64 42H0v22h64V42z" style="fill:url(#a)"/><path d="M64 42.859c-35.507 0-56.328 1.561-52.236 6.187 7.158 8.093 22.524-2.088 52.236 4.67V42.858z" style="opacity:.2;fill:#c2f8ff"/><path d="M26.624 56.496c16.824-3.54 38.801 2.928 35.673.423-2.065-1.654-17.666-5.767-35.715-2.687-16.48 2.813-17.337-6.59-20.245-3.818-2.667 2.543 1.783 9.976 20.287 6.082z" style="opacity:.2;fill:#c2f8ff"/><linearGradient id="b" x1="36.682" x2="46.371" y1="46.231" y2="39.082" gradientUnits="userSpaceOnUse"><stop offset="0" style="stop-color:#4a3728"/><stop offset=".221" style="stop-color:#513d2d"/><stop offset=".533" style="stop-color:#634e3c"/><stop offset=".737" style="stop-color:#735c48"/></linearGradient><path d="M43.804 35.523c-1.412.54-2.574 1.303-3.312 2.036 0 0-1.397.178-1.595.4-1.397 1.56-1.067 8.866-.741 9.818.185.54 2.273-.2 4.208-.2.48 0 .96.016 1.44.04V35.524z" style="fill:url(#b)"/><path d="M9.744 35.273c.02.497.752 1.268 1.544.494 1.722-1.686.41-2.47 2.5-4.677-2.763-2.165-4.075 3.481-4.044 4.183z" style="fill:#4a3728"/><path d="M31.129 14c-4.295 0-19.224 11.853-20.23 13.196-.517.691-3.22 4.138-5.423 6.44-.398.413-.838 2.976-1.322 4.287-.687 1.86 1.112 2.245 1.723.93.548-1.179 1.033-2.81 1.56-3.505 1.77-2.337 5.465-1.528 6.867-5.336 5.205-4.216 14.317-8.085 16.405-8.085.374 0 4.276 4.657 6.44 7.406.694-.286 6.44-4.098 7.416-4.52C38.523 17.812 34.618 14 31.13 14z" style="fill:#735c48"/><linearGradient id="c" x1="49.605" x2="49.605" y1="49.07" y2="22.761" gradientUnits="userSpaceOnUse"><stop offset="0" style="stop-color:#cf5d00"/><stop offset=".029" style="stop-color:#d36000"/><stop offset=".185" style="stop-color:#e76b00"/><stop offset=".366" style="stop-color:#f57400"/><stop offset=".591" style="stop-color:#fd7900"/><stop offset="1" style="stop-color:#ff7a00"/></linearGradient><path d="M56.496 39.74c-2.239-3.075-12.461-16.616-13.316-16.865-3.459-1.01-7.297 5.02-6.47 6.125 2.936 3.918 3.907 7.108 3.907 7.108-.282.719-.125 1.452-.125 1.452 2.622 3.136 2.907 6.862 1.872 10.017 7.11 0 14.402 2.996 20.073.5 1.3-.573-4.996-7.04-5.941-8.338z" style="fill:url(#c)"/><path d="M39.108 37.925a10.415 10.415 0 0 0-1.923-1.698c1.38-.748-2.596-4.943-4.018-3.815-9.364-3.224-17.033 9.19-9.229 16.012 1.173.382 13.219 1.207 15.794-.854.602-.858 1.302-2.543 1.35-3.617.073-1.7-.855-4.734-1.974-6.028z" style="fill:#735c48"/><path d="M31.36 41.881c-.142.154-.557.61-.735 1.687-.177 1.075.102 1.445.187 1.645.102.236.776.02 1.03-1.52.254-1.541-.31-1.998-.481-1.812z" style="fill:#4a3728"/><linearGradient id="d" x1="25.712" x2="25.712" y1="48.424" y2="31.02" gradientUnits="userSpaceOnUse"><stop offset="0" style="stop-color:#cf5d00"/><stop offset="1" style="stop-color:#ff7a00"/></linearGradient><path d="M33.021 32.411c-15.29-6.632-19.046 12.413-9.083 16.013-3.098-6.973.14-16.536 9.083-16.013z" style="fill:url(#d)"/><path d="M33.167 32.412c-.844.726-1.732 2.567-1.732 2.567s-1.152-1.068-3.044-1.367c0 0 2.035-1.434 3.597-1.617.137-.016 1.285.326 1.179.417zm-5.416 11.374c-.063-.607.332-2.142.62-2.523.225-.295-1.06-.585-1.365-.394-.521.327-.922 1.958-.62 2.523.177.33 1.405.774 1.365.394z" style="fill:#0058ab"/><path d="M30.12 33.458c3.695 1.49.872 9.695-2.823 8.204-3.697-1.492-.874-9.696 2.823-8.204z" style="fill:#302c3b"/><path d="M29.767 34.482c2.218.895.1 7.05-2.118 6.155-2.22-.896-.101-7.05 2.118-6.155z" style="fill:#0058ab"/><linearGradient id="e" x1="28.391" x2="28.391" y1="40.4" y2="35.901" gradientUnits="userSpaceOnUse"><stop offset="0" style="stop-color:#0058ab"/><stop offset=".254" style="stop-color:#005fb2"/><stop offset=".625" style="stop-color:#0072c5"/><stop offset="1" style="stop-color:#008de0"/></linearGradient><path d="M29.066 35.977c1.732.699.385 5.047-1.348 4.348-1.734-.7-.387-5.048 1.348-4.348z" style="fill:url(#e)"/><path d="M25.506 49.575c3.255.776 4.821-6.003 1.566-6.78-3.256-.776-4.822 6.004-1.566 6.78z" style="fill:#302c3b"/><path d="M25.625 49.15c1.954.466 3.129-4.62 1.175-5.086-1.955-.467-3.13 4.62-1.175 5.086z" style="fill:#0058ab"/><linearGradient id="f" x1="26.07" x2="26.07" y1="48.806" y2="45.294" gradientUnits="userSpaceOnUse"><stop offset="0" style="stop-color:#0058ab"/><stop offset=".254" style="stop-color:#005fb2"/><stop offset=".625" style="stop-color:#0072c5"/><stop offset="1" style="stop-color:#008de0"/></linearGradient><path d="M25.68 48.78c1.475.352 2.257-3.11.782-3.461-1.477-.352-2.26 3.11-.783 3.462z" style="fill:url(#f)"/><path d="M34.794 46.171c-1.824-.719-.324-5.183 1.5-4.464 3.54 1.395 2.039 5.859-1.5 4.464z" style="fill:#2e221e"/><path d="M33.478 32.79c.012.392 2.223 2.11 1.71 1.126-.177-.34 1.019.032.874.924-.022.133.388.655.648.818-.538-1.084.266-.892-.865-2.092-1.02-1.082-2.379-1.169-2.367-.776z" style="fill:#4a3728"/><path d="M23.076 47.417c.729-.156 1.545.348 1.887.709.586-.422 1.614-.261 2.289-.02.72-.34 2.018-.132 2.828.318 3.221.455 5.5-.885 8.334-.502.135-.522 1.432-.8 1.904-.191.388-.759 1.89-.8 2.093-.296 1.04-.609 4.84.747 8.94.683.876-.544 2.546-.474 2.917.17.64-.314 2.524-.464 3.306.191.961-.748 1.804-.755 3.306-.609.13-.094 1.096-.696 1.619-.554.371-.35 1.339.13 1.468.363.216.39-.68.269-.894.66-.407.745-1.285.144-1.99.592-1.013.644-2.305.483-2.936.662-2.208.624-3.947-.279-4.692-.075-.962.263-1.992-.174-2.981-.057-.963.114-3.36-.653-3.881-.548-1.552.313-2.793-.71-3.829-.364-.992.33-2.025-.176-2.48.07-1.076.58-1.633-.039-2.192.294-1.198.713-7.388.366-9.31 1.25-1.907.878-4.743-.432-6.613-.389-4.942.114-5.668-1.26-3.694-1.921-.073-.888 1.332-1.667 2.439-1.316.934-1.103 2.1-.287 2.162.88zm-6.435-1.863c-.454-.897.881-1.618 1.336-.72.44.868-.896 1.589-1.336.72z" style="fill:#e6fbff"/><path d="M43.71 47.848c-.455-.897.88-1.618 1.335-.72.44.869-.895 1.59-1.335.72zm18.342-2.234c-.291-.576.566-1.038.858-.462.283.557-.575 1.02-.858.462zm-3.485 5.041c-.411-.664.796-1.197 1.207-.533.398.643-.81 1.177-1.207.533zm-13.374-4.232c-.292-.576.566-1.039.858-.463.282.558-.575 1.02-.858.463zm-15.235 4.281c-.292-.576.565-1.038.857-.462.283.558-.575 1.02-.857.462zm-15.239-6.131c-.292-.575.565-1.038.857-.462.283.558-.575 1.02-.857.462z" style="fill:#e6fbff"/></svg>