<svg xmlns="http://www.w3.org/2000/svg" xml:space="preserve" style="enable-background:new 0 0 64 64" viewBox="0 0 64 64"><linearGradient id="a" x1="-65.556" x2="-59.378" y1="22.293" y2="22.293" gradientTransform="rotate(-14.999 -51.686 -305.608)" gradientUnits="userSpaceOnUse"><stop offset="0" style="stop-color:#8c5f44"/><stop offset=".03" style="stop-color:#8f6247"/><stop offset=".267" style="stop-color:#a6785d"/><stop offset=".492" style="stop-color:#b3856a"/><stop offset=".693" style="stop-color:#b88a6f"/></linearGradient><path d="M25.1 10.701c-2.506-3.368-3.299.95-4.857 5.745.715-.581 1.531.416 1.683 1.342.224 1.37 1.952-.456 3.967-3.308-.9-1.037-.794-3.779-.794-3.779z" style="fill:url(#a)"/><path d="m27.36 6.947.265 1.684c4.449 2.488 1.11 8.563 9.933 8.474-3.928-1.782-3.34-10.096-10.199-10.158z" style="fill:#805837"/><path d="m27.36 6.947.265 1.684c4.449 2.488 1.11 8.563 9.933 8.474-7.487-.465-4.104-6.932-10.199-10.158z" style="fill:#6e482a"/><path d="m27.398 8.225.043.509c4.219 2.679 1.293 8.46 10.117 8.37-9.15-.784-4.73-5.518-10.16-8.88z" style="fill:#52351f"/><path d="M26.87 6.865c-1.696-1.148-1.318 3.276.608 2.058 1.253.777.402-3.524-.609-2.058z" style="fill:#8e3ed6"/><path d="M14.587 6.999c-.152.374-.121 2.743.529 3.687.496.72.233 1.701-.167 2.47-.174.333-.155.7.047.86.31.245.652-.03.885.155.38.303.108.63.154.794 0 0 1.062.04.727 1.057.126.072.446-.168.49.575.029.49.599.843 1.223.705.656-.146 4.077-1.41 4.147-5.532.031-1.823-7.233-6.738-8.035-4.771z" style="fill:#b88a6f"/><path d="M16.035 14.965c.057.478 1.067.584 1.582-.082-.975.433-1.345-.078-1.582.082z" style="fill:#a35a3b"/><path d="M16.582 15.35c-.187.226-.069.605.18.672.416-.223.782-.617.855-1.139-.436.402-1.035.467-1.035.467z" style="fill:#a35a3b"/><path d="M26.41 5.81c-1.945-4.143-6.04-4.373-8.708-3.19-2.924 1.3-4.106 4.16-3.19 5.048 1.133 1.098 3.2-.72 5.972 2.678 1.202 1.475 2.163-1.699 3.9-.695 1.04.6 3.223-1.296 2.027-3.842z" style="fill:#805837"/><path d="M14.908 13.915c.234.517 1.91.319 1.62-.476-.008.82-1.772.14-1.62.476z" style="fill:#8c5f44"/><path d="M17.257 11.105c-.176.573-.86.879-.86.879-.312-.151-.436-.568-.557-.93.355-.158 1.417.05 1.417.05z" style="fill:#fff"/><linearGradient id="b" x1="-224.657" x2="-224.657" y1="9.499" y2="8.371" gradientTransform="matrix(.5385 -.2074 .3595 .9332 133.95 -43.481)" gradientUnits="userSpaceOnUse"><stop offset="0" style="stop-color:#a6694a"/><stop offset="1" style="stop-color:#4f2a1e"/></linearGradient><path d="M15.94 11.533c.28.728.772.539.491-.189-.261-.676-.753-.487-.492.189z" style="fill:url(#b)"/><path d="M15.995 11.488c.132.343.33.267.198-.076-.123-.318-.322-.242-.198.076z" style="fill:#1a1626"/><path d="M16.072 11.293c.066.17.165.133.099-.038-.062-.159-.16-.12-.1.038z" style="fill:#ab968c"/><path d="M17.257 11.105c-.344-.283-1.165-.44-1.454-.344-.078.414-.185.245 1.454.344z" style="fill:#45332c"/><path d="M17.257 11.105c-1.105-.418-1.517-.03-1.953-.482.354 1.017.625.399 1.953.482z" style="fill:#1a1626"/><path d="M16.944 10.072c-.497-.244-1.29-.324-1.88.157-.085.07.135.363.203.308.455-.367.99-.43 1.738-.227.087.023.038-.19-.061-.238z" style="fill:#5e4533"/><path d="M20.484 10.346c-2.137-3.504-5.175-1.4-6.2-3.028.552 1.86 3.622-.252 6.2 3.028z" style="fill:#6e482a"/><path d="M14.41 7.285c.253-2.77 5.604-6.387 9.84-3.824-4.963-3.404-10.3 1.116-9.84 3.824z" style="fill:#916643"/><path d="M15.041 7.52c.238-1.714 3.56-4.108 7.083-3.71-4.34-1.308-7.491 2.185-7.083 3.71zm.974.279s2.99-.342 6.173-.123c-2.93-1.585-6.173.123-6.173.123z" style="fill:#916643"/><path d="M15.623 7.626c.831-1.136 3.248-1.826 5.739-2.008-3.196-.697-5.537.713-5.739 2.008zm13.443-.218c4.115 2.532 2.67 6.014 7.3 9.26-3.428-3.75-3.215-8.107-7.3-9.26z" style="fill:#916643"/><path d="M26.416 5.81c-.746-1.576-1.794-2.589-2.962-3.17 1.017.645 2.031 1.6 3.043 3.901-1.5-3.007-5.298-3.564-5.298-3.564s3.766 1.439 5.32 4.185c-2.504-2.674-6.83-2.286-6.83-2.286s4.106.669 6.782 2.746c-2.905-1.48-6.822-1.075-6.822-1.075s4.834.592 6.725 1.743c-4.086-1.306-6.287.02-4.949 2.375 0 0 1.48-1.561 2.828-.782 1.04.6-.046 4.414 1.074 3.167.995-1.109 2.756-3.716 1.09-7.24z" style="fill:#6e482a"/><path d="M24.877 12.509c1.944-1.278 2.1-3.18 2.1-3.18s-.38 1.284-2.1 3.18z" style="fill:#52351f"/><path d="M24.827 11.214c1.499-.443 2.17-2.264 2.17-2.264s-1.056 1.409-2.17 2.264zm-.205-1.374c1.355.167 2.319-1.102 2.319-1.102s-1.207.817-2.32 1.102zm2.251-1.354s-2.559.383-4.557.037c2.098 1.021 4.557-.037 4.557-.037z" style="fill:#52351f"/><path d="M22.325 12.111c.144.048.852-.008 1.02-.742.095-.406.589-.932.496-1.655-.117-.927-2.545 2.06-1.517 2.397z" style="fill:#8c5f44"/><path d="M22.028 8.491c-1.11.552-.778 3.275.251 3.612.144.048.807-.053.975-.786.095-.406.673-.948.58-1.67-.116-.928-.703-1.705-1.806-1.156z" style="fill:#b88a6f"/><path d="M22.178 8.956c-.275.189-.459.613-.389 1.159.47-.268.783.7.39 1.012.067.105.14.212.224.32.238-.585.782-.622.919-1.4.124-.7-.46-1.56-1.144-1.09z" style="fill:#8c5f44"/><path d="M8 58.902s2.693 2.688 6.545 2.504L16.8 62c.207-.33.092-.45.092-.45s-1.438-1.841-8.594-2.935c0 0-.196-.04-.3.287z" style="fill:#c3bfbd"/><path d="M14.656 57.1c-1.13 1.208-5.601-.897-6.357 1.515 0 0 2.488 2.525 6.338 2.342l2.256.594c3.556-5.698-2.237-4.452-2.237-4.452z" style="fill:#8e3ed6"/><path d="M11.498 57.416c.662 1.098 1.23 1.424 1.463.834.484.59.916.33 1.015-.031.57.45.955-.06.364-.897-.348-.451-3.02-.201-2.842.094zm44.318-3.434s.893-3.713-1.256-6.935l-.841-2.287c-.387-.008-.43.152-.43.152s-.643 2.23 2.13 8.96c0 0 .067.19.397.11z" style="fill:#c3bfbd"/><path d="M50.842 49.18c1.613.35 2.136 5.29 4.578 4.693 0 0 .86-3.45-1.29-6.672l-.841-2.289c-4.18.373-3.393 1.629-2.447 4.268z" style="fill:#8e3ed6"/><path d="M52.744 51.736c.592-1.137.574-1.797-.045-1.691.25-.72-.195-.961-.553-.86.088-.724-.547-.79-.95.153-.206.531 1.39 2.705 1.548 2.398z" style="fill:#c3bfbd"/><path d="M19.783 38.024c-2.014 2.517-3.739 5.148-3.701 6.366.156 5.192-1.086 11.545-1.086 11.545.24 1.088 2.504 1.563 3.096.776 1.101-4.983 3.133-5.98 2.353-11.53 3.586-2.365 6.129-5.87 8.006-7.157h-8.668z" style="fill:#b88a6f"/><linearGradient id="c" x1="28.41" x2="48.321" y1="39.758" y2="51.254" gradientUnits="userSpaceOnUse"><stop offset="0" style="stop-color:#8c5f44"/><stop offset=".118" style="stop-color:#96694e"/><stop offset=".398" style="stop-color:#a97b60"/><stop offset=".688" style="stop-color:#b4866b"/><stop offset="1" style="stop-color:#b88a6f"/></linearGradient><path d="M49.44 45.912c-6.003.066-8.983-1.684-12.106-.04-.301-3.097-1.334-5.167-1.769-7.848h-6.153c.46 5.688 5.255 11.67 6.291 11.915 1.156.276 5.875-1.265 13.86-1.05.652.015.2-2.98-.124-2.977z" style="fill:url(#c)"/><path d="M14.996 55.935c-.14.844-.238 1.463-.238 1.463s.783 1.078 2.955.934c.127-.59.232-1.111.379-1.621-.516.369-2.502-.014-3.096-.776zm35.713-10.062c-.44.021-.861.033-1.27.039.457.97.385 2.383.123 2.977.38.001.758.003 1.147.015.652.018.326-3.045 0-3.031z" style="fill:#f2f5f7"/><path d="M30.271 42.787s4.184-.103 6.53-1.54c-.457-4.663-2.297-8.866-4.022-11.265-5.05.992-7.912 4.381-2.508 12.805z" style="fill:#666b6e"/><path d="M25.264 31.215c-1.43 2.347-4.829 5.736-6.37 7.2 0 0 2.303 3.005 6.461 3.603 3.184-2.731 14.2-5.061 7.424-12.036-5.05.992-7.515 1.233-7.515 1.233z" style="fill:#757a7d"/><linearGradient id="d" x1="9.574" x2="24.549" y1="25.557" y2="25.557" gradientUnits="userSpaceOnUse"><stop offset="0" style="stop-color:#b88a6f"/><stop offset=".312" style="stop-color:#b4866b"/><stop offset=".602" style="stop-color:#a97b60"/><stop offset=".881" style="stop-color:#96694e"/><stop offset="1" style="stop-color:#8c5f44"/></linearGradient><path d="M23.605 20.99c-2.453-1.247-3.172 4.272-3.71 5.428-2.208-1.121-6.055-2.438-5.999-2.84.145-1.031-.021-1.499-.998-2.731-.27-.342-.857.207-.857.207-.844-.627-.803.244-1.356.513-.515.25-.306.676-.793 1.03-1.08.79.776 2.333 2.698 2.928 1.377.426 5.937 4.33 9.09 4.85 1.189.195 4.47-7.461 1.925-9.386z" style="fill:url(#d)"/><path d="M25.893 14.48c-.875.587-2.594 3.17-3.967 3.308-.235.426-.29 1.176-.291 1.686-.016 3.026-3.184 5.68.996 7.094.572.194 1.842 2.653 2.072 5.346.803 1.316 7.61.28 8.412-1.809-4.56-5.445 1.284-12.475-7.222-15.625z" style="fill:#8e3ed6"/><path d="M28.383 17.365c-2.252 2.6 3.949 3.907 6.844 5.376-1.524 1.898-5.526 7.955-5.907 7.781-1.11-.5-1.592-.406-3.025.32-.399.199.072.837.072.837-.789.696.117.79.305 1.354.174.52.646.392.931.902.635 1.137 2.555-.152 3.487-1.866.666-1.227 5.865-4.888 8.045-9.865.459-1.049-8.342-6.93-10.752-4.839z" style="fill:#b88a6f"/><path d="M30.578 21.688c1.08-2.348 2.25-3.644 2.856-4.115-8.967-6.78-12.616.682-2.856 4.115z" style="fill:#732eb0"/><path d="M11.998 21.017c1.773 1.132.703 1.79.703 1.79s1.453-.653-.703-1.79z" style="fill:#8c5f44"/><path d="M11.521 21.675c1.729 1.05.768 1.67.768 1.67s1.334-.617-.768-1.67z" style="fill:#8c5f44"/><path d="M11.066 22.097c1.881 1.249.778 1.697.778 1.697s1.441-.353-.778-1.697z" style="fill:#8c5f44"/><path d="M10.787 22.728c2.107.971.86 2.23-.604.53 1.502 1.35 2.407.536.604-.53z" style="fill:#8c5f44"/></svg>