<svg xmlns="http://www.w3.org/2000/svg" xml:space="preserve" style="enable-background:new 0 0 64 64" viewBox="0 0 64 64"><radialGradient id="a" cx="24.133" cy="-463.423" r="39.604" gradientTransform="matrix(1 0 0 -.5063 0 -189.489)" gradientUnits="userSpaceOnUse"><stop offset="0" style="stop-color:#4ecee6"/><stop offset="1" style="stop-color:#009af7"/></radialGradient><path d="M64 42H0v22h64V42z" style="fill:url(#a)"/><path d="M64 42.859c-35.507 0-56.328 1.561-52.236 6.188 7.158 8.092 22.523-2.088 52.236 4.669V42.859z" style="opacity:.2;fill:#c2f8ff;enable-background:new"/><path d="M26.624 56.496c16.824-3.54 38.8 2.927 35.673.423-2.066-1.654-17.667-5.768-35.716-2.687-16.48 2.813-17.336-6.59-20.244-3.818-2.667 2.543 1.783 9.976 20.287 6.082z" style="opacity:.2;fill:#c2f8ff;enable-background:new"/><path d="M56.496 39.739C50.922 32.029 38.655 14 31.129 14c-1.837 0-1.417 7.927-.42 7.927.779 0 9.07 9.654 9.745 13.573 0 0-1.358 2.238-1.557 2.46-1.397 1.56-1.067 8.865-.741 9.818.185.539 2.273-.2 4.208-.2 7.11 0 14.402 2.995 20.073.499 1.3-.573-5-7.036-5.941-8.338z" style="fill:#ebc199"/><linearGradient id="b" x1="39.486" x2="49.175" y1="15.968" y2="23.118" gradientTransform="matrix(1 0 0 -1 0 66)" gradientUnits="userSpaceOnUse"><stop offset="0" style="stop-color:#c99b71"/><stop offset=".737" style="stop-color:#ebc199"/></linearGradient><path d="M56.496 39.739c-5.574-7.71-16.717-8.159-16.042-4.24 0 0-1.358 2.238-1.557 2.46-1.397 1.56-1.067 8.865-.741 9.818.185.539 2.273-.2 4.208-.2 7.11 0 14.402 2.995 20.073.499 1.3-.572-5-7.035-5.941-8.337z" style="fill:url(#b)"/><path d="M39.108 37.925c-.882-1.018-1.923-1.699-1.923-1.699 1.379-.748-2.596-4.942-4.018-3.815-9.364-3.224-17.033 9.19-9.23 16.011 1.174.382 13.22 1.208 15.795-.854.602-.857 1.302-2.542 1.349-3.617.074-1.699-.853-4.732-1.973-6.026z" style="fill:#ebc199"/><path d="M31.36 41.881c-.142.154-.557.61-.735 1.687-.177 1.075.102 1.446.187 1.646.102.236.777.019 1.03-1.52.254-1.542-.31-1.999-.481-1.813z" style="fill:#c99b71"/><linearGradient id="c" x1="25.711" x2="25.711" y1="17.577" y2="34.98" gradientTransform="matrix(1 0 0 -1 0 66)" gradientUnits="userSpaceOnUse"><stop offset="0" style="stop-color:#5d1e96"/><stop offset="1" style="stop-color:#8e3ed6"/></linearGradient><path d="M33.02 32.411c-15.29-6.632-19.045 12.412-9.082 16.012-3.098-6.972.14-16.535 9.083-16.012z" style="fill:url(#c)"/><path d="M33.167 32.412c-.844.726-1.732 2.567-1.732 2.567s-1.152-1.068-3.044-1.367c0 0 2.035-1.433 3.597-1.616.137-.017 1.285.325 1.179.416zM27.75 43.786c-.062-.607.333-2.142.62-2.523.225-.296-1.06-.585-1.364-.394-.522.327-.923 1.958-.621 2.523.178.331 1.406.774 1.366.394z" style="fill:#0058ab"/><path d="M30.12 33.458c3.695 1.491.872 9.695-2.823 8.204-3.697-1.492-.874-9.696 2.823-8.204z" style="fill:#302c3b"/><path d="M29.767 34.482c2.218.895.1 7.05-2.118 6.155-2.22-.896-.101-7.051 2.118-6.155z" style="fill:#0058ab"/><linearGradient id="d" x1="28.392" x2="28.392" y1="25.599" y2="30.099" gradientTransform="matrix(1 0 0 -1 0 66)" gradientUnits="userSpaceOnUse"><stop offset="0" style="stop-color:#0058ab"/><stop offset=".254" style="stop-color:#005fb2"/><stop offset=".625" style="stop-color:#0072c5"/><stop offset="1" style="stop-color:#008de0"/></linearGradient><path d="M29.066 35.977c1.733.699.385 5.047-1.347 4.348-1.735-.7-.388-5.048 1.347-4.348z" style="fill:url(#d)"/><path d="M25.506 49.575c3.255.776 4.82-6.003 1.566-6.78-3.256-.775-4.822 6.004-1.566 6.78z" style="fill:#302c3b"/><path d="M25.625 49.15c1.954.466 3.128-4.621 1.175-5.086-1.955-.467-3.13 4.62-1.175 5.086z" style="fill:#0058ab"/><linearGradient id="e" x1="26.07" x2="26.07" y1="17.195" y2="20.707" gradientTransform="matrix(1 0 0 -1 0 66)" gradientUnits="userSpaceOnUse"><stop offset="0" style="stop-color:#0058ab"/><stop offset=".254" style="stop-color:#005fb2"/><stop offset=".625" style="stop-color:#0072c5"/><stop offset="1" style="stop-color:#008de0"/></linearGradient><path d="M25.679 48.78c1.476.352 2.258-3.11.783-3.462-1.477-.351-2.26 3.111-.783 3.462z" style="fill:url(#e)"/><path d="M34.793 46.171c-1.824-.719-.323-5.183 1.5-4.464 3.54 1.395 2.04 5.859-1.5 4.464z" style="fill:#45332c"/><path d="M33.478 32.79c.012.391 2.222 2.11 1.71 1.126-.177-.34 1.019.031.874.923-.022.133.388.655.648.818-.538-1.084.266-.892-.865-2.091-1.02-1.081-2.38-1.169-2.367-.776z" style="fill:#c99b71"/><linearGradient id="f" x1="51.222" x2="51.222" y1="16.929" y2="30.5" gradientTransform="matrix(1 0 0 -1 0 66)" gradientUnits="userSpaceOnUse"><stop offset="0" style="stop-color:#5d1e96"/><stop offset=".239" style="stop-color:#6b27a8"/><stop offset=".731" style="stop-color:#8438c9"/><stop offset="1" style="stop-color:#8e3ed6"/></linearGradient><path d="M40.454 35.5s-.545.65-.621 1.012c4.705 5.601 3.784 9.926 2.53 11.066 7.112 0 14.403 2.996 20.073.499 1.094-.481-3.185-5.131-5.136-7.37-.368-.424-8.988.612-16.846-5.207z" style="fill:url(#f)"/><path d="M23.076 47.417c.729-.156 1.545.348 1.887.708.586-.422 1.613-.261 2.288-.021.719-.34 2.018-.131 2.828.318 3.222.456 5.5-.884 8.334-.501.135-.522 1.432-.801 1.905-.191.388-.759 1.89-.8 2.093-.295 1.039-.609 4.84.747 8.94.683.876-.544 2.546-.474 2.917.17.64-.313 2.525-.464 3.306.191.96-.748 1.804-.755 3.306-.609.129-.094 1.096-.696 1.619-.554.372-.351 1.339.13 1.468.362.216.391-.68.269-.894.661-.407.744-1.285.143-1.99.592-1.012.644-2.304.483-2.935.661-2.208.624-3.947-.278-4.692-.075-.962.263-1.992-.174-2.981-.057-.963.114-3.36-.653-3.881-.548-1.552.313-2.793-.709-3.83-.364-.991.331-2.024-.175-2.48.07-1.076.581-1.633-.038-2.192.295-1.198.714-7.388.367-9.31 1.251-1.907.877-4.742-.433-6.613-.39-4.942.114-5.667-1.26-3.694-1.922-.073-.888 1.332-1.667 2.439-1.315.934-1.103 2.1-.287 2.162.88zm-6.436-1.863c-.454-.897.882-1.618 1.337-.72.44.868-.895 1.589-1.336.72z" style="fill:#e6fbff"/><path d="M43.709 47.848c-.455-.897.88-1.618 1.336-.72.44.869-.895 1.589-1.336.72zm18.343-2.234c-.292-.576.566-1.038.858-.463.283.559-.575 1.021-.858.463zm-3.485 5.041c-.411-.664.796-1.198 1.207-.533.398.643-.81 1.177-1.207.533zm-13.374-4.232c-.292-.576.566-1.038.858-.462.282.557-.575 1.019-.858.462zm-15.235 4.281c-.292-.576.566-1.038.858-.462.282.558-.576 1.02-.858.462zm-15.239-6.131c-.292-.576.566-1.038.857-.462.283.558-.575 1.02-.857.462z" style="fill:#e6fbff"/><path d="M9.744 35.272c.02.498.752 1.269 1.545.495 1.72-1.686.41-2.47 2.5-4.678-2.764-2.164-4.076 3.482-4.045 4.183z" style="fill:#c99b71"/><path d="M10.899 27.196c-.517.691-3.22 4.138-5.423 6.439-.398.414-.838 2.977-1.322 4.288-.687 1.86 1.112 2.245 1.723.93.548-1.179 1.033-2.81 1.559-3.506 1.77-2.337 5.465-1.528 6.867-5.336 5.205-4.216 14.318-8.085 16.405-8.085l.42-7.926c-4.295 0-19.223 11.853-20.23 13.196z" style="fill:#ebc199"/></svg>