<svg xmlns="http://www.w3.org/2000/svg" xml:space="preserve" style="enable-background:new 0 0 64 64" viewBox="0 0 64 64"><path d="m40.592 37.51-3.852-7.374-4.738 1.401-4.737-1.401-3.855 7.374c.744 2.902 2.898 3.72 1.773 7.841-2.179 7.988 1.557 9.088 6.819 9.088s8.996-1.1 6.817-9.088c-1.125-4.121 1.029-4.939 1.773-7.84z" style="fill:#ff7a00"/><path d="M38.506 42.987s-2.77 1.362-6.504 1.362-6.506-1.362-6.506-1.362l-.186 1.841s2.959 2.464 6.692 2.464 6.69-2.464 6.69-2.464l-.186-1.841z" style="fill:#302c3b"/><path d="M36.74 30.136s1-1.768 3.141-2.501c1.073-4.418 3.367-8.162 4.552-13.064h2.871c-1.946 5.41-.606 10.255-5.223 18.267-.06 2.048-1.49 4.672-1.49 4.672-3.71-2.937-3.852-7.374-3.852-7.374zm-9.475 0s-1.002-1.768-3.144-2.501c-1.071-4.418-3.365-8.162-4.55-13.064H16.7c1.946 5.41.604 10.255 5.22 18.267.061 2.048 1.49 4.672 1.49 4.672 3.71-2.937 3.855-7.374 3.855-7.374z" style="fill:#855e45"/><path d="M48.01 12.716c.036 3.132-4.141 4.328-4.266 0h4.266zm-32.02 0c-.036 3.132 4.141 4.328 4.266 0H15.99z" style="fill:#855e45"/><linearGradient id="a" x1="32" x2="32" y1="12.929" y2="11.129" gradientUnits="userSpaceOnUse"><stop offset="0" style="stop-color:#697378"/><stop offset="1" style="stop-color:#bac7cc"/></linearGradient><path d="M0 11.129h63.999v1.8H0z" style="fill:url(#a)"/><path d="M47.2 11.511s-.435.484-1.035.045c-.275.647-.986.471-1.25.105-.067.28-.652.334-.652.334s1.875.485 2.006 1.301c.287 1.794-1.459 1.8-1.99 1.496-1.452-.828-1.158-2.101-1.854-3.724-.13-.303-.062-1.097 1.202-.464 0 0 .006-1.052 1.206-.644-.048-.735 1.1-.685 1.307-.117.718-.499 1.304-.063 1.333.286 1.427-.05.86 2.434-.273 1.382z" style="fill:#855e45"/><path d="M47.2 11.511c.169-.494.273-1.382.273-1.382s.144.777-.273 1.382zm-1.035.045c.168-.492-.025-1.713-.025-1.713s.441 1.11.025 1.713zm-1.25.104c.168-.492-.082-1.7-.082-1.7s.498 1.098.082 1.7zm-.652.335c-.62-.438-.636-1.39-.636-1.39s.256.82.636 1.39z" style="fill:#69452d"/><path d="M16.8 11.511s.435.484 1.035.045c.275.647.986.471 1.25.105.067.28.652.334.652.334s-1.874.485-2.006 1.301c-.287 1.794 1.458 1.8 1.99 1.496 1.452-.828 1.158-2.101 1.854-3.724.13-.303.063-1.097-1.202-.464 0 0-.006-1.052-1.206-.644.048-.735-1.1-.685-1.307-.117-.718-.499-1.304-.063-1.333.286-1.427-.05-.86 2.434.273 1.382z" style="fill:#855e45"/><path d="M16.8 11.511c-.169-.494-.273-1.382-.273-1.382s-.144.777.273 1.382zm1.035.045c-.168-.492.025-1.713.025-1.713s-.441 1.11-.025 1.713zm1.25.104c-.168-.492.082-1.7.082-1.7s-.498 1.098-.082 1.7zm.653.335c.618-.438.635-1.39.635-1.39s-.256.82-.636 1.39z" style="fill:#69452d"/><linearGradient id="b" x1="8" x2="8" y1="14.25" y2="9.808" gradientUnits="userSpaceOnUse"><stop offset="0" style="stop-color:#697378"/><stop offset="1" style="stop-color:#dbe6eb"/></linearGradient><path d="M2.133 9.808h11.733v4.442H2.133z" style="fill:url(#b)"/><path d="M2.667 9.253h1.067v1.111H2.667z" style="fill:#6e8189"/><linearGradient id="c" x1="4.267" x2="8.969" y1="12.027" y2="12.027" gradientUnits="userSpaceOnUse"><stop offset="0" style="stop-color:#5b666e"/><stop offset="1" style="stop-color:#302c3b"/></linearGradient><path d="M8.533 19.525a.488.488 0 0 1-.477.497H4.744a.488.488 0 0 1-.477-.497V4.529c0-.273.214-.496.477-.496h3.312c.263 0 .477.223.477.496.582 3.878.582 11.122 0 14.996z" style="fill:url(#c)"/><linearGradient id="d" x1="8.533" x2="12.8" y1="11.995" y2="11.995" gradientUnits="userSpaceOnUse"><stop offset="0" style="stop-color:#5b666e"/><stop offset="1" style="stop-color:#302c3b"/></linearGradient><path d="M12.8 21.492a.488.488 0 0 1-.477.497H9.01a.488.488 0 0 1-.477-.497V2.497c0-.274.215-.497.477-.497h3.313c.262 0 .477.223.477.497v18.995z" style="fill:url(#d)"/><linearGradient id="e" x1="6.4" x2="6.4" y1="20.022" y2="4.032" gradientUnits="userSpaceOnUse"><stop offset="0" style="stop-color:#302c3b"/><stop offset=".158" style="stop-color:#33303f"/><stop offset=".323" style="stop-color:#3d3d4b"/><stop offset=".489" style="stop-color:#4d515e"/><stop offset=".657" style="stop-color:#646e79"/><stop offset=".743" style="stop-color:#72808a"/><stop offset=".812" style="stop-color:#707d87"/><stop offset=".865" style="stop-color:#68737e"/><stop offset=".912" style="stop-color:#5b636f"/><stop offset=".955" style="stop-color:#494c59"/><stop offset=".997" style="stop-color:#322f3e"/><stop offset="1" style="stop-color:#302c3b"/></linearGradient><path d="M4.744 4.032h3.313v15.989H4.744z" style="fill:url(#e)"/><linearGradient id="f" x1="10.667" x2="10.667" y1="22.022" y2="2.033" gradientUnits="userSpaceOnUse"><stop offset="0" style="stop-color:#302c3b"/><stop offset=".158" style="stop-color:#33303f"/><stop offset=".323" style="stop-color:#3d3d4b"/><stop offset=".489" style="stop-color:#4d515e"/><stop offset=".657" style="stop-color:#646e79"/><stop offset=".743" style="stop-color:#72808a"/><stop offset=".812" style="stop-color:#707d87"/><stop offset=".865" style="stop-color:#68737e"/><stop offset=".912" style="stop-color:#5b636f"/><stop offset=".955" style="stop-color:#494c59"/><stop offset=".997" style="stop-color:#322f3e"/><stop offset="1" style="stop-color:#302c3b"/></linearGradient><path d="M9.01 2.033h3.313v19.989H9.01z" style="fill:url(#f)"/><linearGradient id="g" x1="-1956.392" x2="-1956.392" y1="14.27" y2="9.828" gradientTransform="matrix(-1 0 0 1 -1900.392 0)" gradientUnits="userSpaceOnUse"><stop offset="0" style="stop-color:#697378"/><stop offset="1" style="stop-color:#dbe6eb"/></linearGradient><path d="M50.133 9.828h11.733v4.442H50.133z" style="fill:url(#g)"/><path d="M60.267 9.273h1.067v1.111h-1.067z" style="fill:#6e8189"/><linearGradient id="h" x1="55.031" x2="59.733" y1="12.047" y2="12.047" gradientUnits="userSpaceOnUse"><stop offset="0" style="stop-color:#5b666e"/><stop offset="1" style="stop-color:#302c3b"/></linearGradient><path d="M55.467 19.544c0 .274.214.497.477.497h3.312a.488.488 0 0 0 .477-.497V4.55a.488.488 0 0 0-.477-.497h-3.312a.488.488 0 0 0-.477.497c-.582 3.878-.582 11.12 0 14.995z" style="fill:url(#h)"/><linearGradient id="i" x1="51.2" x2="55.467" y1="12.012" y2="12.012" gradientUnits="userSpaceOnUse"><stop offset="0" style="stop-color:#5b666e"/><stop offset="1" style="stop-color:#302c3b"/></linearGradient><path d="M51.2 21.51c0 .273.214.496.477.496h3.313a.488.488 0 0 0 .477-.496V2.514a.488.488 0 0 0-.477-.497h-3.313a.488.488 0 0 0-.477.497V21.51z" style="fill:url(#i)"/><linearGradient id="j" x1="-1957.992" x2="-1957.992" y1="20.041" y2="4.052" gradientTransform="matrix(-1 0 0 1 -1900.392 0)" gradientUnits="userSpaceOnUse"><stop offset="0" style="stop-color:#302c3b"/><stop offset=".158" style="stop-color:#33303f"/><stop offset=".323" style="stop-color:#3d3d4b"/><stop offset=".489" style="stop-color:#4d515e"/><stop offset=".657" style="stop-color:#646e79"/><stop offset=".743" style="stop-color:#72808a"/><stop offset=".812" style="stop-color:#707d87"/><stop offset=".865" style="stop-color:#68737e"/><stop offset=".912" style="stop-color:#5b636f"/><stop offset=".955" style="stop-color:#494c59"/><stop offset=".997" style="stop-color:#322f3e"/><stop offset="1" style="stop-color:#302c3b"/></linearGradient><path d="M55.944 4.052h3.313v15.989h-3.313z" style="fill:url(#j)"/><linearGradient id="k" x1="-1953.725" x2="-1953.725" y1="22.041" y2="2.052" gradientTransform="matrix(-1 0 0 1 -1900.392 0)" gradientUnits="userSpaceOnUse"><stop offset="0" style="stop-color:#302c3b"/><stop offset=".158" style="stop-color:#33303f"/><stop offset=".323" style="stop-color:#3d3d4b"/><stop offset=".489" style="stop-color:#4d515e"/><stop offset=".657" style="stop-color:#646e79"/><stop offset=".743" style="stop-color:#72808a"/><stop offset=".812" style="stop-color:#707d87"/><stop offset=".865" style="stop-color:#68737e"/><stop offset=".912" style="stop-color:#5b636f"/><stop offset=".955" style="stop-color:#494c59"/><stop offset=".997" style="stop-color:#322f3e"/><stop offset="1" style="stop-color:#302c3b"/></linearGradient><path d="M51.677 2.052h3.313v19.989h-3.313z" style="fill:url(#k)"/><path d="M28.719 30.784c0 2.414 6.566 2.414 6.566 0v-2.672H28.72v2.672z" style="fill:#855e45"/><path d="M26.097 24.785s.181 1.752-.264 2.932c.626-.068.788-.383.788-.383s-.022.82-.34 1.396c.589.097.95-.195.95-.195s0 .621.046 1.048c1.715-.443 1.612-2.438 1.612-2.438l-2.792-2.36zm12.07 2.932c-.446-1.183-.265-2.932-.265-2.932l-2.789 2.36s-.103 1.995 1.612 2.438c.046-.427.046-1.048.046-1.048s.362.292.95.194c-.32-.572-.34-1.395-.34-1.395s.16.316.786.383z" style="fill:#3d2e24"/><path d="M37.84 22.6c-.904.11-1.558 3.138-.988 3.937.078.11.545.289.89-.416.193-.391.743-.715.916-1.523.219-1.031.084-2.106-.818-1.998zm-11.68 0c.904.11 1.557 3.138.988 3.937-.079.11-.546.289-.891-.416-.192-.391-.743-.715-.916-1.523-.219-1.031-.08-2.106.818-1.998z" style="fill:#916b50"/><path d="M37.816 23.18c-.235.076-.494.435-.632 1.032.824-.178.618 1.196-.097 1.223.005.138.016.281.032.43.346-.502.697-.3 1.045-1.048.31-.672.238-1.82-.348-1.636zm-11 1.03c-.14-.597-.397-.956-.632-1.03-.583-.183-.66.965-.346 1.637.348.745.7.545 1.045 1.048.016-.152.027-.292.032-.432-.71-.033-.912-1.388-.1-1.224z" style="fill:#69452d"/><path d="M32 16.779c-3.918 0-5.805 3.191-5.57 7.293.048.823.278 2.014.561 3.035.586 2.12 3.178 4.253 5.009 4.253s4.42-2.134 5.009-4.253c.283-1.02.513-2.209.561-3.035.235-4.102-1.652-7.293-5.57-7.293z" style="fill:#916b50"/><path d="M28.309 17.392c2.052 1.957 8.16 3.183 9.218 7.495-1.445-4.328-6.756-3.113-9.218-7.495z" style="fill:#3d2e24"/><path d="M32.06 15.699c-2.385 0-3.576 1.08-3.819 1.593 2.973 4.538 8.011 3.002 9.286 7.597 2.562-4.08.435-9.19-5.468-9.19z" style="fill:#5c4233"/><path d="M32.06 15.699c-2.124 0-3.524.862-3.819 1.593 1.028 2.77 8.086 2.854 9.453 6.534-.288-2.641-2.38-4.403-2.38-4.403s1.882 1.216 2.818 2.932c-.174-2.464-2.117-3.882-2.117-3.882s1.752 1.215 2.33 2.616c-.342-2.84-1.706-5.39-6.286-5.39z" style="fill:#6b4d3c"/><path d="M37.097 18.545c-1.97-3.317-6.2-2.442-6.2-2.442s3.52.182 6.2 2.442z" style="fill:#7a5b49"/><path d="M37.269 20.61c-2.828-5.293-8.115-3.56-8.115-3.56s4.573-.176 8.115 3.56z" style="fill:#7a5b49"/><path d="M29.453 17.779c2.913 1.08 6.257 3.026 6.257 3.026s-1.977-2.97-6.257-3.026z" style="fill:#7a5b49"/><path d="M28.241 17.292c-2.88.658-3.81 5.521-1.652 7.595.267-2.211.526-3.632 1.995-5.127 0 0 .087-1.315-.343-2.468z" style="fill:#5c4233"/><path d="M28.517 19.59s-1.893 1.754-1.928 5.297c.324-3.51 2.014-5.095 2.014-5.095l-.086-.203z" style="fill:#3d2e24"/><path d="M28.27 17.392s-3.342 1.142-2.389 5.743a7.19 7.19 0 0 1 .14-1.038c-.006.575.08 1.205.3 1.893.29-3.196 2.144-4.757 2.144-4.757l-.194-1.841z" style="fill:#6b4d3c"/><path d="M26.213 22.044c.426-2.39 2.323-3.965 2.323-3.965s-2.637.174-2.323 3.965z" style="fill:#7a5b49"/><path d="M28.241 17.292c-.786 3.564 2.981 4.263 4.577 4.263-2.868-1.987-4.577-4.263-4.577-4.263z" style="fill:#5c4233"/><path d="M28.147 17.926c.075 2.041 1.188 3.316 4.67 3.629-2.724.184-5.089-1.177-4.67-3.629z" style="fill:#3d2e24"/><path d="M28.241 17.292s-.436 3.21 4.577 4.263c-2.763-2.132-3.262-3.363-4.577-4.263z" style="fill:#6b4d3c"/><path d="M31.12 20.622c-.884-.578-2.311-2.66-2.311-2.66s.28 2.151 2.31 2.66z" style="fill:#7a5b49"/><path d="M36.115 22.85c-.995-.309-2.73-.005-3.311.452-.127.09.05.526.159.46.83-.524 2.279-.806 3.194-.572.122.03.108-.3-.042-.34zm-8.235-.489c.99-.324 2.73-.049 3.32.398.127.088-.043.527-.152.464-.841-.512-2.292-.77-3.204-.52-.12.031-.111-.299.037-.342z" style="fill:#523c31"/><path d="M33.077 26.311c-.115-.08-.384.044-1.086.044-.7 0-.97-.124-1.085-.044-.138.097.08.534 1.085.534s1.224-.437 1.086-.534z" style="fill:#69452d"/><path d="M34.187 28.26c-.24-.385-.823-.642-2.195-.642-1.373 0-1.957.257-2.198.642-.13.204.056.535.056.535.229.417.196.536 2.141.536 1.942 0 1.913-.119 2.142-.535 0 0 .186-.332.054-.536z" style="fill:#45332c"/><path d="M33.704 28.258a.17.17 0 0 0-.067-.16s-.416-.267-1.646-.267c-1.227 0-1.645.267-1.645.267-.048.029-.077.102-.065.16l.02.11a.126.126 0 0 0 .12.104h3.141a.128.128 0 0 0 .119-.104l.023-.11zm-1.713.86c.673 0 1.632 0 1.605-.222a.533.533 0 0 0-.032-.136c-.012-.056-.027-.07-.143-.07h-2.86c-.115 0-.13.014-.145.07-.012.05-.025.096-.03.135-.026.223.933.223 1.605.223z" style="fill:#fff"/><path d="M30.9 24.172c-.695.443-1.775.443-2.47 0-.106-.068-.17.006-.136.062.675 1.145 2.066 1.145 2.74 0 .036-.056-.028-.13-.135-.062zm4.647 0c-.695.443-1.775.443-2.47 0-.106-.068-.169.006-.136.062.675 1.145 2.067 1.145 2.742 0 .034-.056-.03-.13-.136-.062z" style="fill:#3d2d27"/><path d="M22.649 52.108s6.723 5.123 5.602-4.175c-.13-1.083-3.919-4.19-4.598-4.19l-1.004 8.365z" style="fill:#69452d"/><path d="M25.978 57.727s-.575 1.614-3.775.41c-1.514-6.61-3.566-5.693-4.462-10.43 0 0 2.916-3.412 6.437.698 2.148 4.067-.419 6.199 1.8 9.322z" style="fill:#855e45"/><path d="M24.178 48.405s-3.431-2.87-6.437-.698c0 0-.438-6.188 5.912-3.965.952.334 1.227 4.358.525 4.663zm-2.545 7.647c-.21-.092.376 1.202.57 2.085 3.2 1.204 3.775-.41 3.775-.41-.163-.661-.686-1.72-.807-1.675-.917.344-3.009.233-3.538 0z" style="fill:#e6ebef"/><path d="M26.332 61.345c.667-2.039-.354-3.618-.354-3.618-1.712 1.015-3.775.41-3.775.41-5.298 1.076-5.475 1.933-5.35 3.208h9.48z" style="fill:#ff7a00"/><path d="M26.257 62c.344-.247.075-.655.075-.655h-9.479s-.317.288.03.655h9.374zm-4.06-4.008c-.517-.367-3.34.683-3.054.941 1.054.946 1.773 1.115 1.843.434.707.466 1.096.07 1.092-.334.758.3 1.019-.347.119-1.041z" style="fill:#c3bfbd"/><path d="M41.35 52.108s-6.723 5.123-5.602-4.175c.13-1.083 3.92-4.19 4.598-4.19l1.004 8.365z" style="fill:#69452d"/><path d="M38.021 57.727s.577 1.614 3.775.41c1.515-6.61 3.567-5.693 4.463-10.43 0 0-2.917-3.412-6.438.698-2.148 4.067.419 6.199-1.8 9.322z" style="fill:#855e45"/><path d="M39.821 48.405s3.432-2.87 6.438-.698c0 0 .437-6.188-5.913-3.965-.952.334-1.227 4.358-.525 4.663zm2.546 7.647c.21-.092-.376 1.202-.57 2.085-3.2 1.204-3.775-.41-3.775-.41.163-.661.686-1.72.806-1.675.918.344 3.01.233 3.539 0z" style="fill:#e6ebef"/><path d="M37.67 61.345c-.668-2.039.351-3.618.351-3.618 1.715 1.015 3.775.41 3.775.41 5.298 1.076 5.475 1.933 5.35 3.208H37.67z" style="fill:#ff7a00"/><path d="M37.742 62c-.342-.247-.073-.655-.073-.655h9.477s.317.288-.027.655h-9.377zm4.061-4.008c.518-.367 3.34.683 3.056.941-1.054.946-1.773 1.115-1.844.434-.708.466-1.098.07-1.094-.334-.756.3-1.016-.347-.118-1.041z" style="fill:#c3bfbd"/></svg>