<svg xmlns="http://www.w3.org/2000/svg" xml:space="preserve" style="enable-background:new 0 0 64 64" viewBox="0 0 64 64"><linearGradient id="a" x1="69.512" x2="105.126" y1="-137.012" y2="-133.296" gradientTransform="matrix(1 0 0 -1 -56 -80)" gradientUnits="userSpaceOnUse"><stop offset="0" style="stop-color:#00d6b3"/><stop offset="1" style="stop-color:#27c89c"/></linearGradient><path d="M59.484 51.866c-.125-.615 1.908-1.556.736-2.468-12.521-4.64-43.478-.81-57.967 7.817-.412.247-.255.994.004 1.098 6.645 2.707 15.418 3.777 24.252 3.681 14.73-.157 29.641-3.55 35.176-7.995 1.26-1.008-1.63-1.267-2.2-2.133z" style="fill:url(#a)"/><radialGradient id="b" cx="60.92" cy="-1582.732" r="30.213" gradientTransform="matrix(.9996 -.0728 -.0147 -.2195 -52.269 -288.98)" gradientUnits="userSpaceOnUse"><stop offset=".632" style="stop-color:#fff;stop-opacity:.3"/><stop offset=".713" style="stop-color:#e5e5e6;stop-opacity:.328"/><stop offset=".859" style="stop-color:#a3a1a7;stop-opacity:.3882"/><stop offset="1" style="stop-color:#393644;stop-opacity:.4752"/></radialGradient><path d="M59.484 51.866c-.125-.615 1.908-1.556.736-2.468-12.521-4.64-43.478-.81-57.967 7.817-.412.247-.255.994.004 1.098 6.645 2.707 15.418 3.777 24.252 3.681 14.73-.157 29.641-3.55 35.176-7.995 1.26-1.008-1.63-1.267-2.2-2.133z" style="opacity:.25;fill:url(#b);enable-background:new"/><path d="M13.334 56.23c-.375-.811.449-1.644 1.86-1.864 1.397-.214 2.847.265 3.222 1.075.377.813-.463 1.646-1.86 1.864-1.412.218-2.844-.265-3.222-1.075zm-.844.13c.498 1.082 2.416 1.725 4.29 1.434 1.864-.287 2.983-1.402 2.483-2.483-.502-1.082-2.433-1.721-4.295-1.434-1.879.29-2.982 1.403-2.478 2.483z" style="fill:#fff"/><path d="M16.033 55.392c.03.063-.012.106-.127.125l-.336.053c-.113.016-.186-.009-.217-.072l-.297-.635c-.027-.066.014-.108.13-.127l.165-.026c1.074-.165 2.186.204 2.473.825.142.303.058.621-.215.886-.047.057-.129.07-.236.037l-.448-.153c-.107-.035-.128-.08-.064-.139.14-.148.193-.328.113-.5-.13-.282-.564-.473-1.04-.487l.099.213z" style="fill:#fff"/><path d="M55.213 22.147c-.229-.75-2.551-.548-5.123 0-2.424.511-4.305-.723-6.467-.683l-5.5-2.096c-.354 1.255-.422 2.964-.793 4.21 2.08.681 4.064.748 5.285.997 2.765.656 7.67-.507 7.67-.507 4.16.76 4.488.651 2.793-.227-.033-.356 1.215-.366 2.625-.456 2.789-.179-.49-1.238-.49-1.238zM5.238 29.5c-.112-.776 2.066-1.617 4.615-2.257 2.404-.605 3.57-2.544 5.537-3.465l3.963-4.078c.854.978.666 2.985 1.535 3.944-1.584 1.53-2.617 1.654-3.61 2.414-2.216 1.81-6.782 3.004-6.782 3.004-3.426 2.516-3.766 2.563-2.612 1.025-.123-.336-1.254.206-2.562.748-2.59 1.065-.084-1.335-.084-1.335z" style="fill:#735c48"/><path d="M40.422 34.124c-.432-.31-4.637-2.638-7.944-3.202-.357-.998 2.422-4.188 2.89-7.916 0 0 1.23.257 1.96.575 0 0 1.264-2.249.822-4.21-1.021-.734-2.6-2.16-5.006-2.671-1-.212-4.388-.79-5.488-.78-3.043.028-5.799.507-8.303 3.78.328 2.219 1.535 3.944 1.535 3.944s1.82-1.3 2.817-1.613c1.623 8.31-6.326 10.374.82 18.377 5.068-1.413 5.953-.865 5.068-3.387 2.096.534 2.13 1.263 7.43 2.239 1.461.268 4.385-4.429 3.399-5.136z" style="fill:#ff7a00"/><path d="M23.705 22.03c1.34 8.039-5.795 9.805 1.537 17.698.236-.067.324-.652.543-.71-6.534-7.664.297-10.09-2.08-16.987z" style="fill:#ffa959"/><path d="M42.822 38.443c.123-1.616.195-3.166-2.4-4.32-2.278-.265-3.957 3.835-3.399 5.137.498.238 1.762.645 1.762.645-.36 3.037 1.86 5.101 2.326 8.653.244 1.87-.73 3.046 1.701 3.482 1.668.299 3.008 2.202 5.692.273 1.3-.935-3.961-1.294-4.953-3.748-.395-.976-.842-8.666-.73-10.122zM29.47 42.826c.997-1.304 1.202-3.118.399-4.823-2.27-.738-5.04.35-5.342 2.405.33.503.588.98.588.98-1.982 2.369-.828 5.147-2.332 8.458-.793 1.741-2.334 2.15-.324 4 1.375 1.27 1.398 3.954 4.924 3.942 1.707-.008-2.948-3.508-2.53-6.203.168-1.071 3.723-7.59 4.617-8.759z" style="fill:#735c48"/><path d="M38.238 20.002c-1.02-.73-2.139-2.976-5.576-3.775-.996-.232-3.899-.586-4.996-.578-3.043.03-5.746 1.098-8.25 4.371 0 0 .008.454.2.856 1.534-1.942 3.112-3.217 4.811-3.852 1.01.413 4.393 2.077 5.936 6.267 2.008-3.882 4.188-4.703 5.066-4.884 1.172.908 2.125 2.029 2.768 2.491-.002 0 .145-.432.041-.896z" style="fill:#ffa959"/><path d="M27.474 16.496c0 2.27 5.641 2.27 5.641 0v-2.51h-5.64v2.51z" style="fill:#5e4c3b"/><path d="M24.61 10.749s.175 1.687-.254 2.824c.603-.065.759-.37.759-.37s-.02.79-.328 1.345c.567.093.915-.188.915-.188s0 .598.045 1.01c1.65-.427 1.552-2.349 1.552-2.349L24.61 10.75zm11.623 2.824c-.429-1.14-.255-2.824-.255-2.824l-2.686 2.272s-.098 1.922 1.553 2.348c.044-.41.044-1.009.044-1.009s.348.281.915.188c-.31-.552-.327-1.345-.327-1.345s.153.305.756.37z" style="fill:#1a1714"/><path d="M35.918 8.646c-.87.106-1.5 3.02-.951 3.79.075.107.525.279.858-.4.184-.377.715-.689.881-1.466.21-.994.08-2.028-.788-1.924zm-11.248 0c.871.106 1.5 3.02.952 3.79-.075.107-.525.279-.858-.4-.185-.377-.715-.689-.881-1.466-.211-.994-.079-2.028.787-1.924z" style="fill:#735c48"/><path d="M35.895 9.205c-.226.072-.476.418-.608.993.793-.172.595 1.152-.094 1.178.005.132.016.27.031.413.333-.484.671-.289 1.006-1.009.3-.647.23-1.752-.335-1.575zm-10.593.99c-.135-.574-.382-.92-.608-.99-.562-.177-.635.928-.333 1.575.335.718.673.525 1.006 1.009.016-.146.026-.28.031-.416-.683-.031-.878-1.336-.096-1.178z" style="fill:#4a3728"/><path d="M30.294 3.04c-3.772 0-5.59 3.073-5.364 7.023.047.793.268 1.94.541 2.922.564 2.041 3.06 4.095 4.823 4.095 1.763 0 4.257-2.054 4.824-4.095.273-.983.494-2.127.54-2.922.227-3.95-1.59-7.023-5.364-7.023z" style="fill:#735c48"/><path d="M34.395 8.354c-.863-.457-2.515-.478-3.128-.16-.133.062-.044.493.065.452.858-.338 2.241-.346 3.042.028.107.052.15-.255.02-.32zm-8.201 0c.863-.457 2.514-.478 3.13-.16.133.062.045.493-.065.452-.858-.338-2.238-.346-3.042.028-.109.052-.153-.255-.023-.32z" style="fill:#302b27"/><path d="M31.314 12.32c-.107-.076-.362.041-1.02.041s-.91-.117-1.019-.042c-.13.091.075.502 1.02.502.94 0 1.146-.41 1.019-.502zm-1.02 1.554c-.847-.25-2.106.12-2.106.12.479.522.83 1.198 2.106 1.198 1.462 0 1.711-.767 2.106-1.198 0-.003-1.258-.372-2.106-.12z" style="fill:#4a3728"/><path d="M28.506 14.08c.889.746 2.685.751 3.58 0-.95.041-2.626.041-3.58 0zm.948-4.168c.032.25-.137.546-.605.767-.3.14-.918.307-1.735-.037-.364-.153-.72-.634-.689-.9.442-.831 2.616-.953 3.03.17z" style="fill:#fff"/><linearGradient id="c" x1="-1210.071" x2="-1210.071" y1="169.539" y2="169.279" gradientTransform="translate(7978.266 -1103.139) scale(6.5701)" gradientUnits="userSpaceOnUse"><stop offset="0" style="stop-color:#a6694a"/><stop offset="1" style="stop-color:#4f2a1e"/></linearGradient><path d="M27.98 9.04a.854.854 0 1 1 0 1.706c-.47 0-.855-.382-.855-.852s.382-.853.855-.853z" style="fill:url(#c)"/><path d="M27.554 9.88c0 .59.855.59.855 0-.002-.548-.855-.548-.855 0z" style="fill:#1a1626"/><path d="M27.424 9.641c0 .247.359.247.359 0-.003-.231-.36-.231-.36 0z" style="fill:#ab968c"/><path d="M29.46 9.946c-.346-1.116-2.712-.95-3.035-.2.12-.963 2.738-1.215 3.035.2z" style="fill:#4a3728"/><path d="M31.134 9.912c-.031.25.138.546.606.767.299.14.918.307 1.734-.037.367-.153.72-.634.69-.9-.443-.831-2.616-.953-3.03.17z" style="fill:#fff"/><linearGradient id="d" x1="-1212.068" x2="-1212.068" y1="169.539" y2="169.279" gradientTransform="translate(7995.996 -1103.139) scale(6.5701)" gradientUnits="userSpaceOnUse"><stop offset="0" style="stop-color:#a6694a"/><stop offset="1" style="stop-color:#4f2a1e"/></linearGradient><path d="M32.59 9.04a.855.855 0 1 1 0 1.712.855.855 0 0 1 0-1.711z" style="fill:url(#d)"/><path d="M32.164 9.88c0 .59.855.59.855 0-.002-.548-.855-.548-.855 0z" style="fill:#1a1626"/><path d="M32.034 9.641c0 .247.359.247.359 0-.003-.231-.36-.231-.36 0z" style="fill:#ab968c"/><path d="M31.129 9.946c.346-1.113 2.71-.955 3.032-.2-.117-.963-2.736-1.215-3.032.2z" style="fill:#4a3728"/><path d="M26.74 3.63c1.976 1.885 7.858 3.066 8.877 7.218C34.226 6.68 29.11 7.85 26.74 3.63z" style="fill:#1a1714"/><path d="M30.352 2c-2.296 0-3.443 1.04-3.677 1.534 2.863 4.37 7.715 2.891 8.942 7.316C38.084 6.922 36.035 2 30.352 2z" style="fill:#382e26"/><path d="M30.352 2c-2.045 0-3.393.83-3.677 1.534.99 2.667 7.786 2.748 9.103 6.293-.277-2.544-2.292-4.24-2.292-4.24s1.812 1.17 2.714 2.822c-.168-2.372-2.04-3.738-2.04-3.738s1.688 1.17 2.245 2.52C36.075 4.456 34.76 2 30.352 2z" style="fill:#473e35"/><path d="M35.203 4.741c-1.897-3.194-5.97-2.352-5.97-2.352s3.39.176 5.97 2.352z" style="fill:#574f45"/><path d="M35.368 6.73c-2.723-5.097-7.814-3.43-7.814-3.43s4.404-.17 7.814 3.429z" style="fill:#574f45"/><path d="M27.841 4.003c2.806 1.04 6.026 2.914 6.026 2.914s-1.904-2.86-6.025-2.914z" style="fill:#574f45"/><path d="M26.675 3.534c-2.774.634-3.669 5.317-1.591 7.314.257-2.13.507-3.497 1.921-4.938 0 0 .083-1.266-.33-2.376z" style="fill:#382e26"/><path d="M26.94 5.747s-1.823 1.69-1.856 5.1c.312-3.38 1.94-4.905 1.94-4.905l-.084-.195z" style="fill:#1a1714"/><path d="M26.704 3.63s-3.22 1.1-2.301 5.53c.02-.357.07-.687.135-.998-.006.553.076 1.16.288 1.823.279-3.079 2.065-4.582 2.065-4.582l-.187-1.773z" style="fill:#473e35"/><path d="M24.721 8.11c.412-2.3 2.238-3.818 2.238-3.818s-2.54.168-2.238 3.818z" style="fill:#574f45"/><path d="M26.675 3.534c-.757 3.432 2.87 4.105 4.407 4.105-2.761-1.913-4.407-4.105-4.407-4.105z" style="fill:#382e26"/><path d="M26.584 4.145c.073 1.966 1.144 3.193 4.498 3.494-2.623.177-4.901-1.133-4.498-3.494z" style="fill:#1a1714"/><path d="M26.675 3.534s-.42 3.09 4.407 4.105c-2.66-2.052-3.141-3.238-4.407-4.105z" style="fill:#473e35"/><path d="M29.447 6.74c-.851-.555-2.225-2.56-2.225-2.56s.268 2.071 2.225 2.56z" style="fill:#574f45"/></svg>