<svg xmlns="http://www.w3.org/2000/svg" xml:space="preserve" style="enable-background:new 0 0 64 64" viewBox="0 0 64 64"><linearGradient id="a" x1="51.402" x2="55.674" y1="13.221" y2="13.221" gradientUnits="userSpaceOnUse"><stop offset="0" style="stop-color:#9c1319"/><stop offset=".239" style="stop-color:#a9151b"/><stop offset=".682" style="stop-color:#cb1921"/><stop offset="1" style="stop-color:#e81c26"/></linearGradient><path d="M53.836 9.27c-1.333.73-2.434 1.231-2.434 1.231l.376 6.724s1.577 0 3.113-.363c1.662-.393.377-8.374-1.055-7.591z" style="fill:url(#a)"/><path d="M44.709 4.18c-.57.984-.963 1.536-.963 1.536l3.176 3.706s.753-.55 1.524-1.558c.833-1.088-3.126-4.741-3.737-3.684z" style="fill:#8a1116"/><path d="M43.746 5.716c-1.74 2.654-4.676 3.867-7.983 4.484l.571 1.284c3.315.646 8.005-.031 10.588-2.062.678-.533-2.696-4.438-3.176-3.706z" style="fill:#9c1319"/><linearGradient id="b" x1="35.527" x2="52.504" y1="13.759" y2="13.759" gradientUnits="userSpaceOnUse"><stop offset="0" style="stop-color:#9c1319"/><stop offset=".011" style="stop-color:#9d1319"/><stop offset=".283" style="stop-color:#be171f"/><stop offset=".544" style="stop-color:#d51a23"/><stop offset=".789" style="stop-color:#e31b25"/><stop offset="1" style="stop-color:#e81c26"/></linearGradient><path d="M51.402 10.501c-6.141 2.823-9.54-1.878-15.875.403l.46 2.51c6.875-1.47 8.944 4.355 15.79 3.811 1.238-.098.746-7.238-.375-6.724z" style="fill:url(#b)"/><path d="M6.884 49.86c-10.473 2.727-3.496 18.421 15.13 9.344 25.59-12.472 35.594-9.843 39.204-15.31 3.474-5.26-5.206-11.175-14.726-6.852-12.066 5.48-24.36 8.847-39.608 12.818z" style="fill:#1d9473"/><radialGradient id="c" cx="32" cy="48.373" r="36.211" gradientTransform="matrix(.9584 -.2853 .0889 .2985 -2.968 43.065)" gradientUnits="userSpaceOnUse"><stop offset="0" style="stop-color:#00d6b3"/><stop offset=".318" style="stop-color:#02d3b0"/><stop offset=".582" style="stop-color:#07caa5"/><stop offset=".828" style="stop-color:#0fba94"/><stop offset="1" style="stop-color:#18ab83"/></radialGradient><path d="M46.492 36.641c-12.066 5.48-24.36 8.847-39.608 12.818-10.473 2.727-3.496 18.421 15.13 9.344 25.59-12.472 35.594-9.843 39.204-15.31 3.474-5.26-5.206-11.175-14.726-6.852z" style="fill:url(#c)"/><linearGradient id="d" x1="15.795" x2="23.833" y1="45.086" y2="53.124" gradientUnits="userSpaceOnUse"><stop offset="0" style="stop-color:#23212b;stop-opacity:0"/><stop offset="1" style="stop-color:#23212b"/></linearGradient><path d="M21.68 45.462a479.103 479.103 0 0 1-8.64 2.378s6.933 6.471 8.818 6.917c1.98.47-.023-9.054-.178-9.295z" style="opacity:.2;fill:url(#d)"/><linearGradient id="e" x1="36.234" x2="44.262" y1="38.695" y2="46.723" gradientUnits="userSpaceOnUse"><stop offset="0" style="stop-color:#23212b;stop-opacity:0"/><stop offset="1" style="stop-color:#23212b"/></linearGradient><path d="M42.43 38.394a156.748 156.748 0 0 1-9.444 3.55s6.4 5.296 9.892 6.035c1.187.252-.331-9.329-.449-9.585z" style="opacity:.2;fill:url(#e)"/><path d="M37.315 43.11c.533.965 4.383 4.103 6.02 4.846 3.302 1.497 6.68-1.318 5.753-3.32-1.395-3.011-4.695-4.52-5.768-5.018-1.711-.795-7.595.61-6.005 3.491z" style="fill:#23212b"/><linearGradient id="f" x1="40.514" x2="44.401" y1="45.751" y2="40.793" gradientUnits="userSpaceOnUse"><stop offset="0" style="stop-color:#23212b"/><stop offset=".021" style="stop-color:#25232d"/><stop offset=".442" style="stop-color:#424750"/><stop offset=".783" style="stop-color:#545e66"/><stop offset="1" style="stop-color:#5b666e"/></linearGradient><path d="M36.93 42.106c.576 1.343 4.008 4.334 6.39 5.48 3.115 1.5 6.97-1.078 5.49-3.4-1.784-2.8-7.116-6.835-10.75-6.448-.294.032-.722 2.884-1.13 4.368z" style="fill:url(#f)"/><linearGradient id="g" x1="37.877" x2="36.509" y1="40.415" y2="40.155" gradientUnits="userSpaceOnUse"><stop offset="0" style="stop-color:#23212b"/><stop offset=".021" style="stop-color:#25232d"/><stop offset=".442" style="stop-color:#424750"/><stop offset=".783" style="stop-color:#545e66"/><stop offset="1" style="stop-color:#5b666e"/></linearGradient><path d="M37.716 37.806c-.19 2.324-1.457 3.014-1.261 3.978.165.817.714 1.582.907 1.397.498-.476.013-1.412.435-2.447.718-1.763.014-4.078-.08-2.928z" style="fill:url(#g)"/><path d="m42.878 47.98.245-.131c.198-.401.506-1.309.767-1.47 3.679-2.266 4.62-2.632 4.997-2.098l.015-.11c-.4-1.568-6.131.269-6.024 3.808z" style="fill:#23212b"/><radialGradient id="h" cx="45.497" cy="44.218" r="4.677" gradientUnits="userSpaceOnUse"><stop offset="0" style="stop-color:#cdd6db"/><stop offset=".009" style="stop-color:#ccd5da"/><stop offset=".682" style="stop-color:#8e979b"/><stop offset="1" style="stop-color:#767f82"/></radialGradient><path d="M40.516 46.139c-.21.734 2.365 2.221 2.445 1.78.104-.577.57-1.656.832-1.817 3.679-2.267 4.834-2.46 5.109-1.93 0-.352-.777-1.516-1.223-1.81-.405-.269-3.072.137-5.971 1.799-.283.162-1.006 1.328-1.192 1.978z" style="fill:url(#h)"/><linearGradient id="i" x1="48.861" x2="53.064" y1="95.756" y2="95.756" gradientTransform="rotate(2.528 1249.147 -195.828)" gradientUnits="userSpaceOnUse"><stop offset="0" style="stop-color:#767f82"/><stop offset=".318" style="stop-color:#8e979b"/><stop offset=".991" style="stop-color:#ccd5da"/><stop offset="1" style="stop-color:#cdd6db"/></linearGradient><path d="M37.19 42.531c.039.356 1.825 2.381 1.9 2.074.289-1.198 1.138-1.884 2.243-2.015.387-.046-1.7-2.196-3.137-2-.761.104-1.066 1.412-1.007 1.941z" style="fill:url(#i)"/><linearGradient id="j" x1="2448.608" x2="2449.759" y1="-372.199" y2="-372.199" gradientTransform="rotate(177.507 1239.089 -191.148)" gradientUnits="userSpaceOnUse"><stop offset="0" style="stop-color:#767f82"/><stop offset="1" style="stop-color:#767f82;stop-opacity:0"/></linearGradient><path d="M38.139 41.542c-.812.074-.66 1.798.153 1.724.714-.064.56-1.788-.153-1.724z" style="fill:url(#j)"/><path d="M17.665 48.668c.279 1.067 3.238 5.056 4.643 6.18 2.83 2.263 6.797.366 6.392-1.802-.61-3.262-3.438-5.537-4.355-6.284-1.463-1.191-7.512-1.279-6.68 1.906z" style="fill:#23212b"/><linearGradient id="k" x1="114.875" x2="118.762" y1="340.762" y2="335.805" gradientTransform="rotate(14.247 1222.754 -182.673)" gradientUnits="userSpaceOnUse"><stop offset="0" style="stop-color:#23212b"/><stop offset=".021" style="stop-color:#25232d"/><stop offset=".442" style="stop-color:#424750"/><stop offset=".783" style="stop-color:#545e66"/><stop offset="1" style="stop-color:#5b666e"/></linearGradient><path d="M17.538 47.6c.228 1.445 2.818 5.188 4.846 6.886 2.65 2.22 7.02.67 6.157-1.946-1.04-3.151-5.214-8.375-8.83-8.894-.295-.042-1.412 2.617-2.173 3.955z" style="fill:url(#k)"/><linearGradient id="l" x1="112.237" x2="110.87" y1="335.426" y2="335.166" gradientTransform="rotate(14.247 1222.754 -182.673)" gradientUnits="userSpaceOnUse"><stop offset="0" style="stop-color:#23212b"/><stop offset=".021" style="stop-color:#25232d"/><stop offset=".442" style="stop-color:#424750"/><stop offset=".783" style="stop-color:#545e66"/><stop offset="1" style="stop-color:#5b666e"/></linearGradient><path d="M19.36 43.626c-.757 2.206-2.155 2.563-2.202 3.545-.041.833.302 1.71.535 1.578.6-.34.36-1.366 1.024-2.265 1.13-1.531 1.017-3.95.643-2.858z" style="fill:url(#l)"/><path d="m21.858 54.757.27-.066c.29-.34.895-1.18 1.154-1.342.397-.25 4.56-1.559 4.76-1.477.188.077.491.626.55.78l.042-.102c-.647-3.076-6.009-1.25-6.776 2.207z" style="fill:#23212b"/><radialGradient id="m" cx="119.858" cy="338.855" r="5.859" gradientTransform="rotate(14.247 1222.754 -182.673)" gradientUnits="userSpaceOnUse"><stop offset="0" style="stop-color:#cdd6db"/><stop offset=".009" style="stop-color:#ccd5da"/><stop offset=".682" style="stop-color:#8e979b"/><stop offset="1" style="stop-color:#767f82"/></radialGradient><path d="M20.022 52.392c-.385.66 1.745 2.736 1.93 2.328.244-.535.995-1.394 1.255-1.557.472-.298 4.585-1.524 4.824-1.464.169.042.549.62.603.85.086-.34-.964-2.441-1.323-2.836-.327-.36-4.06.44-5.647 1.055-.304.118-1.302 1.04-1.642 1.624z" style="fill:url(#m)"/><linearGradient id="n" x1="136.153" x2="139.989" y1="386.843" y2="386.843" gradientTransform="rotate(16.775 1226.979 -184.146)" gradientUnits="userSpaceOnUse"><stop offset="0" style="stop-color:#767f82"/><stop offset=".318" style="stop-color:#8e979b"/><stop offset=".991" style="stop-color:#ccd5da"/><stop offset="1" style="stop-color:#cdd6db"/></linearGradient><path d="M17.685 48.077c-.049.354 1.184 2.757 1.332 2.477.575-1.09 1.389-1.904 2.489-2.066.386-.056-.658-2.554-2.1-2.718-.763-.086-1.647 1.779-1.72 2.307z" style="fill:url(#n)"/><linearGradient id="o" x1="2387.208" x2="2388.257" y1="-670.169" y2="-670.169" gradientTransform="rotate(-168.246 1240.242 -189.04)" gradientUnits="userSpaceOnUse"><stop offset="0" style="stop-color:#767f82"/><stop offset="1" style="stop-color:#767f82;stop-opacity:0"/></linearGradient><path d="M18.804 47.063c-.69-.192-.885 2.097-.195 2.289.606.169.801-2.12.195-2.29z" style="fill:url(#o)"/><linearGradient id="p" x1="49.64" x2="49.354" y1="26.078" y2="22.719" gradientUnits="userSpaceOnUse"><stop offset="0" style="stop-color:#23212b"/><stop offset=".224" style="stop-color:#373942"/><stop offset=".515" style="stop-color:#4b525a"/><stop offset=".782" style="stop-color:#576169"/><stop offset="1" style="stop-color:#5b666e"/></linearGradient><path d="M52.16 24.35c.98.421.789 1.555.178 1.536-.206-.007-1.854-.342-2.14-.289-1.19.225-3.182.54-3.342.458-1.404-.72.17-3.08.562-3.161 2.514-.517 3.82-.29 4.047.289 1.173.164 1.505 1.122.695 1.167z" style="fill:url(#p)"/><path d="M49.459 22.954s1.382-.282 2.006.229c-.531-.18-2.006-.23-2.006-.23zm-.027.952s1.99-.18 2.728.444c-.53-.18-2.728-.444-2.728-.444z" style="fill:#1a1726"/><linearGradient id="q" x1="33.749" x2="34.294" y1="-53.335" y2="-56.587" gradientTransform="rotate(-3.767 1246.941 -210.698)" gradientUnits="userSpaceOnUse"><stop offset="0" style="stop-color:#23212b"/><stop offset=".301" style="stop-color:#31323b"/><stop offset=".894" style="stop-color:#545d66"/><stop offset="1" style="stop-color:#5b666e"/></linearGradient><path d="M48.063 22.866c.519.437.313 2.874-.665 3.137-.496.134-1.213-.014-1.66-.183-.643-.242-.17-3.308.361-3.278.358.02 1.579 0 1.964.324z" style="fill:url(#q)"/><linearGradient id="r" x1="32.408" x2="32.976" y1="-53.628" y2="-57.013" gradientTransform="rotate(-3.767 1246.941 -210.698)" gradientUnits="userSpaceOnUse"><stop offset="0" style="stop-color:#ff7b00"/><stop offset=".194" style="stop-color:#ff810b"/><stop offset=".531" style="stop-color:#ff8f27"/><stop offset=".969" style="stop-color:#ffa755"/><stop offset="1" style="stop-color:#ffa959"/></linearGradient><path d="M46.1 22.542c.843.568.95 2.873-.362 3.278-.304.094-.97-.08-1.192-.137-.665-.175-.02-3.59.506-3.505.185.03.756.168 1.047.364z" style="fill:url(#r)"/><linearGradient id="s" x1="47.273" x2="49.084" y1="27.116" y2="25.539" gradientUnits="userSpaceOnUse"><stop offset="0" style="stop-color:#23212b"/><stop offset=".358" style="stop-color:#3b3f48"/><stop offset=".765" style="stop-color:#525b64"/><stop offset="1" style="stop-color:#5b666e"/></linearGradient><path d="M49.748 26.42c.196.762-.178 1.052-.912.812-.367-.12-2.03-.66-2.228-1.177-.285-.744 1.267-1.41 1.555-1.185.194.15 1.44.983 1.585 1.55z" style="fill:url(#s)"/><linearGradient id="t" x1="29.441" x2="33.702" y1="32.49" y2="44.755" gradientUnits="userSpaceOnUse"><stop offset="0" style="stop-color:#9c1319"/><stop offset=".011" style="stop-color:#9d1319"/><stop offset=".283" style="stop-color:#be171f"/><stop offset=".544" style="stop-color:#d51a23"/><stop offset=".789" style="stop-color:#e31b25"/><stop offset="1" style="stop-color:#e81c26"/></linearGradient><path d="M23.353 39.27c-.32.236-.258.73-.258.73-1.169 1.372-3.311 3.039-3.673 4.219-1.055 3.445 2.386 5.629 5.47 4.289.862-.375 5.635-3.812 6.373-5.03 1.176-1.945 1.907-7.314 2.018-7.806.111-.492 4.794 1.727 4.695 2.543-.824 6.753 5.121 4.355 6.198 4.162 1.833-.328 1.815-5.414.852-7.965-.502-1.33-4.69-5.247-5.634-5.685-.944-.437-14.842 1.403-14.944 3.117-.194 3.281-1.097 7.426-1.097 7.426z" style="fill:url(#t)"/><path d="M23.353 39.27s.178 1.149 1.288 2.843c-1.598-1.49-1.288-2.843-1.288-2.843zm-.258.73s.026 1.144.934 2.954C22.613 41.291 23.095 40 23.095 40zm10.279-4.452s3.288-.718 6.49 1.262c-3.43-1.14-6.49-1.262-6.49-1.262z" style="opacity:.3;fill:#730005"/><path d="M34.07 35.653s2.445.317 4.444 1.952a27.35 27.35 0 0 0-4.443-1.952zm3.928 2.447s.6 1.121 3.157 1.476c-2.606.107-3.157-1.477-3.157-1.477z" style="opacity:.3;fill:#730005"/><path d="M38.018 38.22s.531 1.819 4.374 3.18c-4.083-.711-4.374-3.18-4.374-3.18zm6.892-3.75s1.218 2.598-1.766 4.415c2.214-2.155 1.765-4.415 1.765-4.415zm-13.685 8.557s-2.469 3.102-7.433 1.068c4.769.96 7.433-1.068 7.433-1.068z" style="opacity:.3;fill:#730005"/><linearGradient id="u" x1="37.876" x2="42.472" y1="20.703" y2="18.648" gradientUnits="userSpaceOnUse"><stop offset="0" style="stop-color:#ff8b1f"/><stop offset=".409" style="stop-color:#ff9b3e"/><stop offset=".76" style="stop-color:#ffa552"/><stop offset="1" style="stop-color:#ffa959"/></linearGradient><path d="M45.088 21.805c.952 1.047.623 3.642-.714 4.061-.99.31-6.354-.724-6.687-2.52-.426-2.297-1.032-10.911-.126-10.531 1.775.744 3.754 7.157 3.51 7.531.11-.031.144.088.144.088.342-.188 3.292.734 3.873 1.371z" style="fill:url(#u)"/><radialGradient id="v" cx="30.334" cy="22.795" r="10.99" gradientUnits="userSpaceOnUse"><stop offset="0" style="stop-color:#ff7a00"/><stop offset=".327" style="stop-color:#fb7800"/><stop offset=".638" style="stop-color:#f07000"/><stop offset=".941" style="stop-color:#dd6400"/><stop offset="1" style="stop-color:#d86100"/></radialGradient><path d="M21.228 17.773c2.87 9.788 1.66 11.873 2.527 13.39 1.459 2.552 7.955 3.606 9.547 1.964 2.333.695 6.174-2.122 6.173-4.846-.001-2.09-1.747-6.963-1.414-8.758.426-2.297.78-6.005-.5-6.708-6.704-3.682-17.048 2.52-16.333 4.958z" style="fill:url(#v)"/><linearGradient id="w" x1="30.447" x2="33.89" y1="24.776" y2="24.776" gradientUnits="userSpaceOnUse"><stop offset="0" style="stop-color:#cdd6db"/><stop offset=".202" style="stop-color:#c9d2d7"/><stop offset=".419" style="stop-color:#bcc5ca"/><stop offset=".644" style="stop-color:#a7b0b4"/><stop offset=".872" style="stop-color:#8a9396"/><stop offset="1" style="stop-color:#767f82"/></linearGradient><path d="M30.944 18.252c2.192 4.888 1.113 7.739 1.786 9.353 1.193 2.861.573 5.522.573 5.522s1.321-1.342 0-5.685c-.61-2.001.284-4.601-1.725-9.472-.893-2.165-1.676-2.042-.634.282z" style="fill:url(#w)"/><linearGradient id="x" x1="30.021" x2="30.021" y1="15.494" y2="2" gradientUnits="userSpaceOnUse"><stop offset="0" style="stop-color:#23212b"/><stop offset=".27" style="stop-color:#26242e"/><stop offset=".497" style="stop-color:#2e2f38"/><stop offset=".709" style="stop-color:#3c4049"/><stop offset=".91" style="stop-color:#505961"/><stop offset="1" style="stop-color:#5b666e"/></linearGradient><path d="M36.439 10.437c.146-2.721-.179-4.619-.847-5.831-1.922-3.49-8.674-3.559-10.736.303-.747 1.4-1.684 4.308-1.11 7.304 1.404 4.27 9.205 5.048 12.693-1.776z" style="fill:url(#x)"/><radialGradient id="y" cx="27.869" cy="11.659" r="8.743" gradientUnits="userSpaceOnUse"><stop offset=".045" style="stop-color:#e81c26"/><stop offset=".268" style="stop-color:#e41c25"/><stop offset=".485" style="stop-color:#d81a23"/><stop offset=".701" style="stop-color:#c51820"/><stop offset=".913" style="stop-color:#a9151b"/><stop offset="1" style="stop-color:#9c1319"/></radialGradient><path d="M23.944 12.709s-.37.354.204 1.25c-.058.603.39 1.167.39 1.167.83 2.374 4.16 3.42 4.83 3.183 5.742-2.017 6.466-5.247 6.466-5.247s.997-1.822.605-2.626c-.129-.264-2.766 5.002-8.398 3.37-1.558-.45-2.695.795-4.097-1.097z" style="fill:url(#y)"/><path d="M24.538 15.126c3.212 4.293 8.192.62 8.192.62s-5.39 2.708-8.192-.62z" style="fill:#a30100"/><path d="M24.148 13.96c1.021 1.835 7.852 3.353 11.877-1.285-4.766 3.917-10.513 2.234-11.877 1.284z" style="fill:#a30100"/><linearGradient id="z" x1="33.376" x2="36.737" y1="9.862" y2="9.862" gradientUnits="userSpaceOnUse"><stop offset=".133" style="stop-color:#767f82"/><stop offset=".161" style="stop-color:#7b8487"/><stop offset=".407" style="stop-color:#9ea7ab"/><stop offset=".636" style="stop-color:#b8c1c5"/><stop offset=".841" style="stop-color:#c8d1d5"/><stop offset="1" style="stop-color:#cdd6db"/></linearGradient><path d="m33.573 9.013-.197 2.995s1.864-.167 3.063-1.571c.346-.406.458-3.025-.035-2.692-1.338.901-2.831 1.268-2.831 1.268z" style="fill:url(#z)"/><path d="M23.568 8.26c-.409.412-.252 3.576 0 4.097.24.495 2.339 1.328 2.677 1.146.25-.135.445-1.207 1.003-1.211.48-.004.67 1.147.963 1.303.504.267 4.741-.256 5.679-.92.333-.236.368-3.886.168-4.104-.287-.311-10.177-.626-10.49-.311z" style="fill:#cbd9de"/><linearGradient id="A" x1="-21.676" x2="-21.551" y1="35.343" y2="29.776" gradientTransform="matrix(.9598 0 0 .9159 49.443 -18.913)" gradientUnits="userSpaceOnUse"><stop offset="0" style="stop-color:#eba8ff"/><stop offset=".743" style="stop-color:#00c8ff"/><stop offset=".812" style="stop-color:#00afee"/><stop offset=".959" style="stop-color:#0071c2"/><stop offset="1" style="stop-color:#005eb5"/></linearGradient><path d="M23.705 8.482c-.393.378-.242 3.275 0 3.752.23.453 2.14 1.19 2.465 1.024.24-.123.431-1.059 1.098-1.137.545-.065.713 1.135.995 1.278.483.245 4.546-.317 5.446-.925.32-.217.32-3.527.127-3.727-.275-.285-9.83-.554-10.131-.265z" style="fill:url(#A)"/><linearGradient id="B" x1="-21.665" x2="-21.564" y1="34.831" y2="30.295" gradientTransform="matrix(.9598 0 0 .9159 49.443 -18.913)" gradientUnits="userSpaceOnUse"><stop offset="0" style="stop-color:#eba8ff"/><stop offset="1" style="stop-color:#005eb5"/></linearGradient><path d="M28.763 12.99c-.121 0-.2-.006-.25-.011-.037-.07-.085-.183-.121-.265-.185-.424-.464-1.064-1.082-1.064l-.097.005c-.676.08-1.005.673-1.201 1.028a5.682 5.682 0 0 1-.07.123c-.5-.065-1.65-.56-1.828-.8-.168-.37-.258-2.52-.093-3.12.212-.024.738-.06 2.002-.06 2.712 0 6.482.158 7.43.301.081.658.051 2.535-.089 3.007-.741.4-3.36.855-4.601.855z" style="fill:url(#B)"/><path d="m25.452 8.36-1.978 2.167c.029.76.12 1.488.23 1.707.008.015.031.032.042.048l3.575-3.913c-.68-.01-1.32-.014-1.869-.008zm3.612.048-4.172 4.567c.298.12.595.214.836.265l4.382-4.797a115.66 115.66 0 0 0-1.046-.035zm4.772.339c-.069-.071-.717-.142-1.656-.202l-4.14 4.53c.073.157.143.284.223.324.194.099.97.065 1.884-.048l3.781-4.14c-.022-.248-.052-.423-.092-.464z" style="opacity:.2;fill:#91f4ff;enable-background:new"/><path d="M27.878 28.02s-4.043-.643-4.836-3.802c.875 1.641 4.835 3.801 4.835 3.801zm8.71-3.19s-1.558 3.786-4.814 3.829c1.799-.473 4.814-3.829 4.814-3.829zm3.223-1.184s-.138-2.42 1.26-3.3c-.676.725-1.26 3.3-1.26 3.3zm1.404-3.212s.511 1.573-.202 2.385c.292-.59.202-2.385.202-2.385z" style="opacity:.3;fill:#d64700"/><path d="M24.975 27.773s-2.458-1.745-1.936-3.852c.035 1.252 1.936 3.852 1.936 3.852z" style="opacity:.3;fill:#d64700"/><linearGradient id="C" x1="10.741" x2="8.322" y1="35.323" y2="32.568" gradientUnits="userSpaceOnUse"><stop offset="0" style="stop-color:#23212b"/><stop offset=".075" style="stop-color:#2c2c36"/><stop offset=".288" style="stop-color:#40454e"/><stop offset=".509" style="stop-color:#4f5860"/><stop offset=".741" style="stop-color:#58626b"/><stop offset="1" style="stop-color:#5b666e"/></linearGradient><path d="M7.281 35.583c-.597 1.074.439 1.959.995 1.507.188-.152 1.475-1.624 1.783-1.779 1.283-.643 3.046-1.407 3.134-1.594.77-1.644-2.468-2.628-2.895-2.422-2.741 1.32-3.474 2.063-3.249 2.745-.972.98-.559 2.078.232 1.543z" style="fill:url(#C)"/><path d="M8.753 32.409s-1.506.728-1.704 1.63c.36-.539 1.704-1.63 1.704-1.63zm.744.837s-1.997 1.25-2.216 2.337c.36-.54 2.216-2.337 2.216-2.337z" style="fill:#1a1726"/><linearGradient id="D" x1="14.982" x2="10.703" y1="32.77" y2="30.099" gradientUnits="userSpaceOnUse"><stop offset="0" style="stop-color:#23212b"/><stop offset=".214" style="stop-color:#282731"/><stop offset=".496" style="stop-color:#353841"/><stop offset=".816" style="stop-color:#4b535b"/><stop offset="1" style="stop-color:#5b666e"/></linearGradient><path d="M10.298 31.295c.852 2.223 3.155 2.036 4.234 1.51.547-.268.93-.972.985-1.312.126-.78-3-2.496-3.608-2.313-.41.124-1.781 1.67-1.611 2.115z" style="fill:url(#D)"/><linearGradient id="E" x1="16.157" x2="11.984" y1="30.96" y2="28.355" gradientUnits="userSpaceOnUse"><stop offset="0" style="stop-color:#ff7b00"/><stop offset=".194" style="stop-color:#ff810b"/><stop offset=".531" style="stop-color:#ff8f27"/><stop offset=".969" style="stop-color:#ffa755"/><stop offset="1" style="stop-color:#ffa959"/></linearGradient><path d="M11.91 29.18c-.041 1.717 2.528 2.84 3.607 2.313.547-.267 1.033-1.618 1.051-1.91.05-.788-3.627-2.422-4.005-1.926-.13.172-.646 1.163-.654 1.523z" style="fill:url(#E)"/><linearGradient id="F" x1="14.537" x2="11.804" y1="34.56" y2="33.532" gradientUnits="userSpaceOnUse"><stop offset="0" style="stop-color:#23212b"/><stop offset=".358" style="stop-color:#3b3f48"/><stop offset=".765" style="stop-color:#525b64"/><stop offset="1" style="stop-color:#5b666e"/></linearGradient><path d="M11.72 35.275c.262.958 1.2 1.086 1.956.444.377-.32 1.47-2.441 1.167-3.074-.437-.911-2.022-.589-2.34-.248-.214.229-.977 2.168-.783 2.878z" style="fill:url(#F)"/><linearGradient id="G" x1="20.519" x2="15.99" y1="25.809" y2="21.648" gradientUnits="userSpaceOnUse"><stop offset="0" style="stop-color:#ff8b1f"/><stop offset=".336" style="stop-color:#ff9838"/><stop offset=".747" style="stop-color:#ffa450"/><stop offset="1" style="stop-color:#ffa959"/></linearGradient><path d="M12.296 27.536c.125 1.479 2.865 2.786 4.22 2.244.949-.38 2.763-2.186 2.71-3.067.212-.017.178-.283.178-.283.603.015 4.036-2.337 4.21-3.246.412-2.144-1.4-6.565-2.286-6.233-1.547.58-5.289 3.88-5.972 4.735-.97 1.214-3.17 4.54-3.06 5.85z" style="fill:url(#G)"/><path d="M18.512 22.852s1.72 2.11.687 3.872c.293-1.134-.687-3.872-.687-3.872zm-4.642 3.961s-.573-2.282.29-3.463c-.36.857-.29 3.463-.29 3.463z" style="opacity:.3;fill:#d64700"/><path d="M19.92 23.667s.606 1.786-.516 2.763c.447-.664.517-2.763.517-2.763z" style="opacity:.3;fill:#d64700"/></svg>