<svg xmlns="http://www.w3.org/2000/svg" xml:space="preserve" viewBox="0 0 64 64"><radialGradient id="a" cx="42.498" cy="-5.075" r="37.89" gradientTransform="matrix(.7072 -.7072 .461 .461 4.62 56.06)" gradientUnits="userSpaceOnUse"><stop offset="0" style="stop-color:#c25b2e"/><stop offset=".319" style="stop-color:#bf592d"/><stop offset=".579" style="stop-color:#b55328"/><stop offset=".817" style="stop-color:#a44921"/><stop offset=".927" style="stop-color:#99431d"/></radialGradient><path fill="url(#a)" d="M59.245 32.352s-1.277-6.489 2.143-8.759c1.443-9.309.134-17.184-1.836-19.149-1.963-1.965-9.835-3.274-19.144-1.832-4.3 3.977-8.757 2.139-8.757 2.139-5.99 2.032-12.011 5.334-17.031 10.408-4.61 4.657-7.695 10.102-9.666 15.558 1.979 5.051-2.272 8.716-2.272 8.716-1.602 9.607-.15 17.85 1.943 19.943 2.091 2.092 10.334 3.544 19.943 1.941 0 0 4.491-3.422 8.712-2.271 5.455-1.972 10.9-5.055 15.557-9.665 5.073-5.02 8.377-11.039 10.408-17.029z"/><radialGradient id="b" cx="31.907" cy="9.499" r="24.598" gradientTransform="translate(-10.168 28.741) scale(1.0001)" gradientUnits="userSpaceOnUse"><stop offset=".273" style="stop-color:#fafdff"/><stop offset=".494" style="stop-color:#f7fafc"/><stop offset=".673" style="stop-color:#edf2f4"/><stop offset=".838" style="stop-color:#dce3e7"/><stop offset=".927" style="stop-color:#cfd8dd"/></radialGradient><path fill="url(#b)" d="M16.376 47.62c-5.129-5.133-9.039-10.975-11.421-16.903a49.629 49.629 0 0 0-2.272 8.716c2.545 4.336 5.763 8.511 9.569 12.314 3.804 3.807 7.977 7.024 12.316 9.57a49.96 49.96 0 0 0 8.712-2.271c-5.929-2.382-11.77-6.291-16.904-11.426z"/><radialGradient id="c" cx="49.115" cy="-13.25" r="21.668" gradientTransform="translate(-10.168 28.741) scale(1.0001)" gradientUnits="userSpaceOnUse"><stop offset=".273" style="stop-color:#fafdff"/><stop offset=".494" style="stop-color:#f7fafc"/><stop offset=".673" style="stop-color:#edf2f4"/><stop offset=".838" style="stop-color:#dce3e7"/><stop offset=".927" style="stop-color:#cfd8dd"/></radialGradient><path fill="url(#c)" d="M59.245 32.352a52.081 52.081 0 0 0 2.143-8.759c-2.494-4.135-5.596-8.111-9.234-11.753-3.637-3.636-7.61-6.737-11.745-9.228a52.255 52.255 0 0 0-8.757 2.139c5.748 2.401 11.396 6.236 16.375 11.218 4.984 4.983 8.82 10.634 11.218 16.383z"/><path fill="#1A1626" d="M4.628 59.374C3.72 41.643 41.308 3.337 59.55 4.445 42.474 5.731 5.777 43.854 4.628 59.374z" opacity=".2"/><path fill="#F2F5F7" d="M36.921 15.891c-7.451 6.373-14.354 13.528-20.727 20.98-.381.446-2.09-1.033-1.705-1.485 6.441-7.531 13.418-14.758 20.947-21.2.454-.388 1.932 1.323 1.485 1.705z"/><path fill="#E6EBEF" d="M38.158 17.128c-7.45 6.373-14.354 13.528-20.728 20.98-.379.445-2.089-1.033-1.703-1.486 6.44-7.53 13.417-14.757 20.947-21.199.454-.388 1.931 1.325 1.484 1.705z"/><path fill="#FFF" d="M32.098 14.2a53.293 53.293 0 0 1 6.154 6.153c.276.35 1.452-1.721 1.104-2.16-1.979-2.337-2.761-3.121-5.098-5.099-.437-.344-2.513.83-2.16 1.106zm-5.382 4.309c1.999 1.744 4.65 4.398 6.396 6.396.26.308 1.813-1.472 1.498-1.838a66.173 66.173 0 0 0-6.053-6.058c-.367-.312-2.152 1.238-1.841 1.5zm-4.961 4.833c1.793 1.792 4.733 4.732 6.521 6.524.273.271 2.039-1.495 1.768-1.768l-6.522-6.522c-.271-.271-2.039 1.495-1.767 1.766zm-4.567 5.033a66.08 66.08 0 0 0 6.057 6.057c.365.311 2.147-1.239 1.839-1.499-1.997-1.749-4.652-4.398-6.396-6.397-.259-.308-1.812 1.472-1.5 1.839zm-3.912 5.706c1.977 2.336 2.76 3.119 5.097 5.097.438.345 2.511-.827 2.161-1.103a53.336 53.336 0 0 1-6.155-6.157c-.275-.35-1.447 1.724-1.103 2.163z"/></svg>