<svg xmlns="http://www.w3.org/2000/svg" xml:space="preserve" style="enable-background:new 0 0 64 64" viewBox="0 0 64 64"><path d="m22.89 60.47-.58.53 29.47-.01V47.96h-14.4l-20.27 2.31 4.76 3.24c9.26.16 6.65 6.96 1.02 6.96z" style="fill:#302c3b"/><linearGradient id="a" x1="30.592" x2="36.651" y1="53.115" y2="53.115" gradientUnits="userSpaceOnUse"><stop offset="0" style="stop-color:#5b666e"/><stop offset=".582" style="stop-color:#424451"/><stop offset="1" style="stop-color:#343040"/></linearGradient><path d="m30.59 47.36 1.91 11.97s5.62-5.58 3.77-10.28c-1.35-3.47-5.68-1.69-5.68-1.69z" style="fill:url(#a)"/><path d="M31.13 47.36c.31 3.42 1.81 11.97 1.81 11.97s-1.08-12.72-1.81-11.97zm.8 0c.31 3.42 1.81 11.97 1.81 11.97s-1.08-12.72-1.81-11.97zm.8 0c.31 3.42 1.81 11.97 1.81 11.97s-1.08-12.72-1.81-11.97zm.8 0c.31 3.42 1.81 11.97 1.81 11.97s-1.08-12.72-1.81-11.97zm.8 0c.31 3.42 1.81 11.97 1.81 11.97s-1.08-12.72-1.81-11.97z" style="fill:#302c3b"/><path d="M53.31 43.31c1.52-.43 2.34-2.18 2.34-2.18h7.62l-1.11 8.97c-.22 1.8-1.7 2.59-2.68 1.43l-6.17-8.22z" style="fill:#cfd8dd"/><path d="m56.07 39.49-.42 1.64h7.62l.36-2.45z" style="fill:#a10000"/><linearGradient id="b" x1="59.413" x2="59.413" y1="40.555" y2="32" gradientUnits="userSpaceOnUse"><stop offset="0" style="stop-color:#a80000"/><stop offset=".428" style="stop-color:#d40007"/><stop offset=".795" style="stop-color:#f3000c"/><stop offset="1" style="stop-color:#ff000e"/></linearGradient><path d="m56.21 34.36-1.38 6.19 8.83-1.04c.2-.02.35-.26.35-.55v-6.23c0-.44-.27-.79-.57-.73l-6.17 1.1c-.5.1-.91.59-1.06 1.26z" style="fill:url(#b)"/><radialGradient id="c" cx="27.799" cy="-28.262" r="19.08" gradientTransform="matrix(.9724 0 0 .3787 11.595 52.796)" gradientUnits="userSpaceOnUse"><stop offset="0" style="stop-color:#a80000"/><stop offset=".055" style="stop-color:#ae0001"/><stop offset=".384" style="stop-color:#cf0008"/><stop offset=".658" style="stop-color:#e4000c"/><stop offset=".842" style="stop-color:#eb000e"/></radialGradient><path d="M36.14 44.73c1.46-1.28.94-3.28 1.85-3.46l1.43-.29V39.8l-1.6-.29c-.24-.04-.42-.34-.42-.71-.02-.92-.16-2.71-.88-4.43-.15-.36.03-.82.3-.81 1.67.05 6.03.24 7.61 1.07C51.19 38.2 57.1 48.37 57.1 48.37l-20.96-3.64z" style="fill:url(#c)"/><linearGradient id="d" x1="30.262" x2="30.262" y1="60.17" y2="43.982" gradientUnits="userSpaceOnUse"><stop offset=".417" style="stop-color:#a80000"/><stop offset=".483" style="stop-color:#b90003"/><stop offset=".619" style="stop-color:#d80008"/><stop offset=".753" style="stop-color:#ed000b"/><stop offset=".882" style="stop-color:#fb000d"/><stop offset="1" style="stop-color:#ff000e"/></linearGradient><path d="M6.35 58.38c3.78-4.34 14.47-7.81 14.47-7.81 6.23-1.1 9.41-1.37 12.97-1.27 1.58.05 2.56 2.24 1.65 3.96l-1.31 2.48c-.32.6-.79 1.03-1.32 1.2l-3.86 1.55v1.68c18.69-.19 18.36-5.96 25.87-6.52l1.8-5.63s-10.33-4.54-15.4-3.99c-26.3 2.81-31.02 4.55-37.34 14.35h2.47z" style="fill:url(#d)"/><path d="M9.06 57.02h-.7L.19 60.2 0 61h9.06v-3.98z" style="fill:#1a1626"/><linearGradient id="e" x1="4.279" x2="4.279" y1="60.797" y2="57.017" gradientUnits="userSpaceOnUse"><stop offset="0" style="stop-color:#a80000"/><stop offset=".428" style="stop-color:#d40007"/><stop offset=".795" style="stop-color:#f3000c"/><stop offset="1" style="stop-color:#ff000e"/></linearGradient><path d="M8.37 60.2v-3.18h-6.1L.19 60.2z" style="fill:url(#e)"/><path d="M23.01 46.84h-1.12l.34-2.26h1.12z" style="fill:#302c3b"/><linearGradient id="f" x1="23.496" x2="23.496" y1="45.024" y2="41.217" gradientUnits="userSpaceOnUse"><stop offset="0" style="stop-color:#a80000"/><stop offset=".428" style="stop-color:#d40007"/><stop offset=".795" style="stop-color:#f3000c"/><stop offset="1" style="stop-color:#ff000e"/></linearGradient><path d="M24.95 44.5v-2.75c0-1.16-2.91-.21-2.91.77v1.96c0 .41 2.91.98 2.91.02z" style="fill:url(#f)"/><path d="M38.24 36.89c-.31 0-.31 1.38 0 1.38 1.04 0 4.42-.69 4.42-.69s-3.38-.69-4.42-.69z" style="fill:#302c3b"/><linearGradient id="g" x1="54.747" x2="54.747" y1="62" y2="47" gradientUnits="userSpaceOnUse"><stop offset="0" style="stop-color:#23212b"/><stop offset=".314" style="stop-color:#32333c"/><stop offset=".939" style="stop-color:#576169"/><stop offset="1" style="stop-color:#5b666e"/></linearGradient><path d="M54.75 62c-4.14 0-7.5-3.36-7.5-7.5 0-4.14 3.36-7.5 7.5-7.5 4.14 0 7.5 3.36 7.5 7.5 0 4.14-3.37 7.5-7.5 7.5z" style="fill:url(#g)"/><path d="M54.75 48.81c-3.14 0-5.69 2.55-5.69 5.69 0 3.14 2.55 5.69 5.69 5.69 3.14 0 5.69-2.55 5.69-5.69a5.7 5.7 0 0 0-5.69-5.69z" style="fill:#1a1626"/><linearGradient id="h" x1="54.747" x2="54.747" y1="57.078" y2="51.922" gradientUnits="userSpaceOnUse"><stop offset="0" style="stop-color:#23212b"/><stop offset=".314" style="stop-color:#32333c"/><stop offset=".939" style="stop-color:#576169"/><stop offset="1" style="stop-color:#5b666e"/></linearGradient><circle cx="54.75" cy="54.5" r="2.58" style="fill:url(#h)"/><path d="M49.57 54.7v-.4c3.44-.27 6.9-.27 10.35 0v.4c-3.44.27-6.9.27-10.35 0z" style="fill:#99a8ae"/><path d="M54.55 49.33h.4c.27 3.44.27 6.9 0 10.35h-.4c-.27-3.45-.27-6.91 0-10.35z" style="fill:#99a8ae"/><path d="m50.95 50.98.28-.28a65.71 65.71 0 0 1 7.32 7.32l-.28.28a64.87 64.87 0 0 1-7.32-7.32z" style="fill:#99a8ae"/><path d="m58.26 50.7.28.28a65.71 65.71 0 0 1-7.32 7.32l-.28-.28c2.25-2.63 4.7-5.08 7.32-7.32z" style="fill:#99a8ae"/><linearGradient id="i" x1="54.747" x2="54.747" y1="60.015" y2="48.985" gradientUnits="userSpaceOnUse"><stop offset="0" style="stop-color:#99a8ae"/><stop offset=".613" style="stop-color:#bdcbd3"/><stop offset="1" style="stop-color:#cfdde6"/></linearGradient><path d="M54.75 60.01c-3.04 0-5.51-2.47-5.51-5.51 0-3.04 2.47-5.51 5.51-5.51 3.04 0 5.51 2.47 5.51 5.51 0 3.04-2.47 5.51-5.51 5.51zm0-10.39c-2.69 0-4.88 2.19-4.88 4.88s2.19 4.88 4.88 4.88 4.88-2.19 4.88-4.88c-.01-2.69-2.19-4.88-4.88-4.88z" style="fill:url(#i)"/><linearGradient id="j" x1="54.747" x2="54.747" y1="55.773" y2="53.227" gradientUnits="userSpaceOnUse"><stop offset="0" style="stop-color:#a80000"/><stop offset=".428" style="stop-color:#d40007"/><stop offset=".795" style="stop-color:#f3000c"/><stop offset="1" style="stop-color:#ff000e"/></linearGradient><path d="M54.75 53.23c.7 0 1.27.57 1.27 1.27 0 .7-.57 1.27-1.27 1.27-.7 0-1.27-.57-1.27-1.27-.01-.7.56-1.27 1.27-1.27z" style="fill:url(#j)"/><linearGradient id="k" x1="54.747" x2="54.747" y1="55.455" y2="53.545" gradientUnits="userSpaceOnUse"><stop offset="0" style="stop-color:#ff000e"/><stop offset=".205" style="stop-color:#f3000c"/><stop offset=".572" style="stop-color:#d40007"/><stop offset="1" style="stop-color:#a80000"/></linearGradient><path d="M54.75 53.55a.95.95 0 1 1-.95.95c-.01-.53.42-.95.95-.95z" style="fill:url(#k)"/><path d="M54.75 53.91a.591.591 0 0 1 0 1.18.591.591 0 0 1 0-1.18z" style="fill:#4e5e67"/><path d="M55.01 54.05h-.52l-.26.45.26.45h.52l.26-.45z" style="fill:#99a8ae"/><linearGradient id="l" x1="16.437" x2="16.437" y1="62" y2="47" gradientUnits="userSpaceOnUse"><stop offset="0" style="stop-color:#343040"/><stop offset=".333" style="stop-color:#363342"/><stop offset=".571" style="stop-color:#3d3c4a"/><stop offset=".78" style="stop-color:#484c58"/><stop offset=".97" style="stop-color:#58626a"/><stop offset="1" style="stop-color:#5b666e"/></linearGradient><path d="M16.44 62c-4.14 0-7.5-3.36-7.5-7.5 0-4.14 3.36-7.5 7.5-7.5 4.14 0 7.5 3.36 7.5 7.5 0 4.14-3.37 7.5-7.5 7.5z" style="fill:url(#l)"/><path d="M16.44 48.81c-3.14 0-5.69 2.55-5.69 5.69 0 3.14 2.55 5.69 5.69 5.69s5.69-2.55 5.69-5.69a5.7 5.7 0 0 0-5.69-5.69z" style="fill:#1a1626"/><linearGradient id="m" x1="16.437" x2="16.437" y1="57.078" y2="51.922" gradientUnits="userSpaceOnUse"><stop offset="0" style="stop-color:#23212b"/><stop offset=".314" style="stop-color:#32333c"/><stop offset=".939" style="stop-color:#576169"/><stop offset="1" style="stop-color:#5b666e"/></linearGradient><circle cx="16.44" cy="54.5" r="2.58" style="fill:url(#m)"/><path d="M11.26 54.7v-.4c3.44-.27 6.9-.27 10.35 0v.4c-3.44.27-6.9.27-10.35 0z" style="fill:#99a8ae"/><path d="M16.24 49.33h.4c.27 3.44.27 6.9 0 10.35h-.4c-.27-3.45-.27-6.91 0-10.35z" style="fill:#99a8ae"/><path d="m12.64 50.98.28-.28a65.71 65.71 0 0 1 7.32 7.32l-.28.28a64.87 64.87 0 0 1-7.32-7.32z" style="fill:#99a8ae"/><path d="m19.95 50.7.28.28a65.71 65.71 0 0 1-7.32 7.32l-.28-.28c2.25-2.63 4.7-5.08 7.32-7.32z" style="fill:#99a8ae"/><linearGradient id="n" x1="16.437" x2="16.437" y1="60.015" y2="48.985" gradientUnits="userSpaceOnUse"><stop offset="0" style="stop-color:#99a8ae"/><stop offset=".613" style="stop-color:#bdcbd3"/><stop offset="1" style="stop-color:#cfdde6"/></linearGradient><path d="M16.44 60.01c-3.04 0-5.51-2.47-5.51-5.51 0-3.04 2.47-5.51 5.51-5.51 3.04 0 5.51 2.47 5.51 5.51 0 3.04-2.47 5.51-5.51 5.51zm0-10.39c-2.69 0-4.88 2.19-4.88 4.88s2.19 4.88 4.88 4.88 4.88-2.19 4.88-4.88-2.19-4.88-4.88-4.88z" style="fill:url(#n)"/><linearGradient id="o" x1="16.437" x2="16.437" y1="55.773" y2="53.227" gradientUnits="userSpaceOnUse"><stop offset="0" style="stop-color:#a80000"/><stop offset=".428" style="stop-color:#d40007"/><stop offset=".795" style="stop-color:#f3000c"/><stop offset="1" style="stop-color:#ff000e"/></linearGradient><path d="M16.44 53.23c.7 0 1.27.57 1.27 1.27 0 .7-.57 1.27-1.27 1.27-.7 0-1.27-.57-1.27-1.27-.01-.7.56-1.27 1.27-1.27z" style="fill:url(#o)"/><linearGradient id="p" x1="16.437" x2="16.437" y1="55.455" y2="53.545" gradientUnits="userSpaceOnUse"><stop offset="0" style="stop-color:#ff000e"/><stop offset=".205" style="stop-color:#f3000c"/><stop offset=".572" style="stop-color:#d40007"/><stop offset="1" style="stop-color:#a80000"/></linearGradient><path d="M16.44 53.55a.95.95 0 1 1-.95.95c-.01-.53.42-.95.95-.95z" style="fill:url(#p)"/><path d="M16.44 53.91a.591.591 0 0 1 0 1.18.591.591 0 0 1 0-1.18z" style="fill:#4e5e67"/><path d="M16.7 54.05h-.52l-.26.45.26.45h.52l.26-.45z" style="fill:#99a8ae"/><path d="M4.97 57.67a.939.939 0 1 1 0 1.88.939.939 0 1 1 0-1.88zm0-.31a1.25 1.25 0 1 0 0 2.5 1.25 1.25 0 0 0 0-2.5z" style="fill:#cfd8dd"/><path d="M5.22 58.74c-.04 0-.06-.02-.06-.06v-.13c0-.04.02-.06.06-.06h.41c.04 0 .06.02.06.06v.06c0 .4-.32.72-.72.72-.19 0-.37-.08-.51-.21-.03-.03-.03-.06 0-.09l.13-.13c.03-.03.06-.03.09 0a.4.4 0 0 0 .29.12c.18 0 .33-.12.39-.28h-.14z" style="fill:#cfd8dd"/></svg>