<svg xmlns="http://www.w3.org/2000/svg" xml:space="preserve" style="enable-background:new 0 0 64 64" viewBox="0 0 64 64"><linearGradient id="a" x1="32" x2="32" y1="55.5" y2="28.5" gradientUnits="userSpaceOnUse"><stop offset="0" style="stop-color:#6e6e6e"/><stop offset=".496" style="stop-color:#3c3c3c"/><stop offset=".627" style="stop-color:#2e2e2e"/></linearGradient><path d="M13 28.5h38v27H13z" style="fill:url(#a)"/><linearGradient id="b" x1="48.5" x2="53.5" y1="41" y2="41" gradientUnits="userSpaceOnUse"><stop offset="0" style="stop-color:#c4bdb3"/><stop offset=".001" style="stop-color:#c5beb4"/><stop offset=".05" style="stop-color:#dad4cc"/><stop offset=".101" style="stop-color:#e9e4de"/><stop offset=".156" style="stop-color:#f2eee9"/><stop offset=".22" style="stop-color:#f5f1ec"/><stop offset=".507" style="stop-color:#d7d2cb"/><stop offset=".822" style="stop-color:#bbb5ac"/><stop offset="1" style="stop-color:#b0aaa1"/></linearGradient><path d="M48.5 30.5h5v21h-5z" style="fill:url(#b)"/><linearGradient id="c" x1="48.25" x2="53.75" y1="563.633" y2="563.633" gradientTransform="matrix(1 0 0 -1 0 613.883)" gradientUnits="userSpaceOnUse"><stop offset="0" style="stop-color:#c4bdb3"/><stop offset=".001" style="stop-color:#c5beb4"/><stop offset=".05" style="stop-color:#dad4cc"/><stop offset=".101" style="stop-color:#e9e4de"/><stop offset=".156" style="stop-color:#f2eee9"/><stop offset=".22" style="stop-color:#f5f1ec"/><stop offset=".507" style="stop-color:#d7d2cb"/><stop offset=".822" style="stop-color:#bbb5ac"/><stop offset="1" style="stop-color:#b0aaa1"/></linearGradient><path d="M48.25 50h5.5v.5h-5.5z" style="fill:url(#c)"/><linearGradient id="d" x1="48" x2="54" y1="562.383" y2="562.383" gradientTransform="matrix(1 0 0 -1 0 613.883)" gradientUnits="userSpaceOnUse"><stop offset="0" style="stop-color:#c4bdb3"/><stop offset=".001" style="stop-color:#c5beb4"/><stop offset=".05" style="stop-color:#dad4cc"/><stop offset=".101" style="stop-color:#e9e4de"/><stop offset=".156" style="stop-color:#f2eee9"/><stop offset=".22" style="stop-color:#f5f1ec"/><stop offset=".507" style="stop-color:#d7d2cb"/><stop offset=".822" style="stop-color:#bbb5ac"/><stop offset="1" style="stop-color:#b0aaa1"/></linearGradient><path d="M53.827 51h-5.654L48 52h6z" style="fill:url(#d)"/><linearGradient id="e" x1="47" x2="55" y1="560.883" y2="560.883" gradientTransform="matrix(1 0 0 -1 0 613.883)" gradientUnits="userSpaceOnUse"><stop offset="0" style="stop-color:#c4bdb3"/><stop offset=".001" style="stop-color:#c5beb4"/><stop offset=".05" style="stop-color:#dad4cc"/><stop offset=".101" style="stop-color:#e9e4de"/><stop offset=".156" style="stop-color:#f2eee9"/><stop offset=".22" style="stop-color:#f5f1ec"/><stop offset=".507" style="stop-color:#d7d2cb"/><stop offset=".822" style="stop-color:#bbb5ac"/><stop offset="1" style="stop-color:#b0aaa1"/></linearGradient><path d="m47 54 .145-1.209.59-.791h6.53l.59.791L55 54z" style="fill:url(#e)"/><linearGradient id="f" x1="48.25" x2="53.75" y1="14.022" y2="14.022" gradientTransform="translate(0 17.728)" gradientUnits="userSpaceOnUse"><stop offset="0" style="stop-color:#c4bdb3"/><stop offset=".001" style="stop-color:#c5beb4"/><stop offset=".05" style="stop-color:#dad4cc"/><stop offset=".101" style="stop-color:#e9e4de"/><stop offset=".156" style="stop-color:#f2eee9"/><stop offset=".22" style="stop-color:#f5f1ec"/><stop offset=".507" style="stop-color:#d7d2cb"/><stop offset=".822" style="stop-color:#bbb5ac"/><stop offset="1" style="stop-color:#b0aaa1"/></linearGradient><path d="M48.25 31.5h5.5v.5h-5.5z" style="fill:url(#f)"/><linearGradient id="g" x1="48" x2="54" y1="12.772" y2="12.772" gradientTransform="translate(0 17.728)" gradientUnits="userSpaceOnUse"><stop offset="0" style="stop-color:#c4bdb3"/><stop offset=".001" style="stop-color:#c5beb4"/><stop offset=".05" style="stop-color:#dad4cc"/><stop offset=".101" style="stop-color:#e9e4de"/><stop offset=".156" style="stop-color:#f2eee9"/><stop offset=".22" style="stop-color:#f5f1ec"/><stop offset=".507" style="stop-color:#d7d2cb"/><stop offset=".822" style="stop-color:#bbb5ac"/><stop offset="1" style="stop-color:#b0aaa1"/></linearGradient><path d="M53.827 31h-5.654L48 30h6z" style="fill:url(#g)"/><linearGradient id="h" x1="47" x2="55" y1="11.272" y2="11.272" gradientTransform="translate(0 17.728)" gradientUnits="userSpaceOnUse"><stop offset="0" style="stop-color:#c4bdb3"/><stop offset=".001" style="stop-color:#c5beb4"/><stop offset=".05" style="stop-color:#dad4cc"/><stop offset=".101" style="stop-color:#e9e4de"/><stop offset=".156" style="stop-color:#f2eee9"/><stop offset=".22" style="stop-color:#f5f1ec"/><stop offset=".507" style="stop-color:#d7d2cb"/><stop offset=".822" style="stop-color:#bbb5ac"/><stop offset="1" style="stop-color:#b0aaa1"/></linearGradient><path d="m47 28 .145 1.209.59.791h6.53l.59-.791L55 28z" style="fill:url(#h)"/><path d="M50.731 32h.539v18h-.539zm.94 0h.541v18h-.541zm-1.883 0h.541v18h-.541zm2.79 0h.427v18h-.427zm-3.584 0h.427v18h-.427zm4.213 0h.293v18h-.293zM48.5 32h.293v18H48.5z" style="opacity:.2;fill:#857f74"/><linearGradient id="i" x1="10.5" x2="15.5" y1="41" y2="41" gradientUnits="userSpaceOnUse"><stop offset="0" style="stop-color:#c4bdb3"/><stop offset=".001" style="stop-color:#c5beb4"/><stop offset=".05" style="stop-color:#dad4cc"/><stop offset=".101" style="stop-color:#e9e4de"/><stop offset=".156" style="stop-color:#f2eee9"/><stop offset=".22" style="stop-color:#f5f1ec"/><stop offset=".507" style="stop-color:#d7d2cb"/><stop offset=".822" style="stop-color:#bbb5ac"/><stop offset="1" style="stop-color:#b0aaa1"/></linearGradient><path d="M10.5 30.5h5v21h-5z" style="fill:url(#i)"/><linearGradient id="j" x1="10.25" x2="15.75" y1="563.633" y2="563.633" gradientTransform="matrix(1 0 0 -1 0 613.883)" gradientUnits="userSpaceOnUse"><stop offset="0" style="stop-color:#c4bdb3"/><stop offset=".001" style="stop-color:#c5beb4"/><stop offset=".05" style="stop-color:#dad4cc"/><stop offset=".101" style="stop-color:#e9e4de"/><stop offset=".156" style="stop-color:#f2eee9"/><stop offset=".22" style="stop-color:#f5f1ec"/><stop offset=".507" style="stop-color:#d7d2cb"/><stop offset=".822" style="stop-color:#bbb5ac"/><stop offset="1" style="stop-color:#b0aaa1"/></linearGradient><path d="M10.25 50h5.5v.5h-5.5z" style="fill:url(#j)"/><linearGradient id="k" x1="10" x2="16" y1="562.383" y2="562.383" gradientTransform="matrix(1 0 0 -1 0 613.883)" gradientUnits="userSpaceOnUse"><stop offset="0" style="stop-color:#c4bdb3"/><stop offset=".001" style="stop-color:#c5beb4"/><stop offset=".05" style="stop-color:#dad4cc"/><stop offset=".101" style="stop-color:#e9e4de"/><stop offset=".156" style="stop-color:#f2eee9"/><stop offset=".22" style="stop-color:#f5f1ec"/><stop offset=".507" style="stop-color:#d7d2cb"/><stop offset=".822" style="stop-color:#bbb5ac"/><stop offset="1" style="stop-color:#b0aaa1"/></linearGradient><path d="M15.827 51h-5.654L10 52h6z" style="fill:url(#k)"/><linearGradient id="l" x1="9" x2="17" y1="560.883" y2="560.883" gradientTransform="matrix(1 0 0 -1 0 613.883)" gradientUnits="userSpaceOnUse"><stop offset="0" style="stop-color:#c4bdb3"/><stop offset=".001" style="stop-color:#c5beb4"/><stop offset=".05" style="stop-color:#dad4cc"/><stop offset=".101" style="stop-color:#e9e4de"/><stop offset=".156" style="stop-color:#f2eee9"/><stop offset=".22" style="stop-color:#f5f1ec"/><stop offset=".507" style="stop-color:#d7d2cb"/><stop offset=".822" style="stop-color:#bbb5ac"/><stop offset="1" style="stop-color:#b0aaa1"/></linearGradient><path d="m9 54 .145-1.209.59-.791h6.53l.59.791L17 54z" style="fill:url(#l)"/><linearGradient id="m" x1="10.25" x2="15.75" y1="14.022" y2="14.022" gradientTransform="translate(0 17.728)" gradientUnits="userSpaceOnUse"><stop offset="0" style="stop-color:#c4bdb3"/><stop offset=".001" style="stop-color:#c5beb4"/><stop offset=".05" style="stop-color:#dad4cc"/><stop offset=".101" style="stop-color:#e9e4de"/><stop offset=".156" style="stop-color:#f2eee9"/><stop offset=".22" style="stop-color:#f5f1ec"/><stop offset=".507" style="stop-color:#d7d2cb"/><stop offset=".822" style="stop-color:#bbb5ac"/><stop offset="1" style="stop-color:#b0aaa1"/></linearGradient><path d="M10.25 31.5h5.5v.5h-5.5z" style="fill:url(#m)"/><linearGradient id="n" x1="10" x2="16" y1="12.772" y2="12.772" gradientTransform="translate(0 17.728)" gradientUnits="userSpaceOnUse"><stop offset="0" style="stop-color:#c4bdb3"/><stop offset=".001" style="stop-color:#c5beb4"/><stop offset=".05" style="stop-color:#dad4cc"/><stop offset=".101" style="stop-color:#e9e4de"/><stop offset=".156" style="stop-color:#f2eee9"/><stop offset=".22" style="stop-color:#f5f1ec"/><stop offset=".507" style="stop-color:#d7d2cb"/><stop offset=".822" style="stop-color:#bbb5ac"/><stop offset="1" style="stop-color:#b0aaa1"/></linearGradient><path d="M15.827 31h-5.654L10 30h6z" style="fill:url(#n)"/><linearGradient id="o" x1="9" x2="17" y1="11.272" y2="11.272" gradientTransform="translate(0 17.728)" gradientUnits="userSpaceOnUse"><stop offset="0" style="stop-color:#c4bdb3"/><stop offset=".001" style="stop-color:#c5beb4"/><stop offset=".05" style="stop-color:#dad4cc"/><stop offset=".101" style="stop-color:#e9e4de"/><stop offset=".156" style="stop-color:#f2eee9"/><stop offset=".22" style="stop-color:#f5f1ec"/><stop offset=".507" style="stop-color:#d7d2cb"/><stop offset=".822" style="stop-color:#bbb5ac"/><stop offset="1" style="stop-color:#b0aaa1"/></linearGradient><path d="m9 28 .145 1.209.59.791h6.53l.59-.791L17 28z" style="fill:url(#o)"/><path d="M12.731 32h.539v18h-.539zm.94 0h.541v18h-.541zm-1.883 0h.541v18h-.541zm2.791 0h.427v18h-.427zm-3.585 0h.427v18h-.427zm4.213 0h.293v18h-.293zM10.5 32h.293v18H10.5z" style="opacity:.2;fill:#857f74"/><linearGradient id="p" x1="35.833" x2="40.833" y1="41" y2="41" gradientUnits="userSpaceOnUse"><stop offset="0" style="stop-color:#c4bdb3"/><stop offset=".001" style="stop-color:#c5beb4"/><stop offset=".05" style="stop-color:#dad4cc"/><stop offset=".101" style="stop-color:#e9e4de"/><stop offset=".156" style="stop-color:#f2eee9"/><stop offset=".22" style="stop-color:#f5f1ec"/><stop offset=".507" style="stop-color:#d7d2cb"/><stop offset=".822" style="stop-color:#bbb5ac"/><stop offset="1" style="stop-color:#b0aaa1"/></linearGradient><path d="M35.833 30.5h5v21h-5z" style="fill:url(#p)"/><linearGradient id="q" x1="35.583" x2="41.083" y1="563.633" y2="563.633" gradientTransform="matrix(1 0 0 -1 0 613.883)" gradientUnits="userSpaceOnUse"><stop offset="0" style="stop-color:#c4bdb3"/><stop offset=".001" style="stop-color:#c5beb4"/><stop offset=".05" style="stop-color:#dad4cc"/><stop offset=".101" style="stop-color:#e9e4de"/><stop offset=".156" style="stop-color:#f2eee9"/><stop offset=".22" style="stop-color:#f5f1ec"/><stop offset=".507" style="stop-color:#d7d2cb"/><stop offset=".822" style="stop-color:#bbb5ac"/><stop offset="1" style="stop-color:#b0aaa1"/></linearGradient><path d="M35.583 50h5.5v.5h-5.5z" style="fill:url(#q)"/><linearGradient id="r" x1="35.333" x2="41.333" y1="562.383" y2="562.383" gradientTransform="matrix(1 0 0 -1 0 613.883)" gradientUnits="userSpaceOnUse"><stop offset="0" style="stop-color:#c4bdb3"/><stop offset=".001" style="stop-color:#c5beb4"/><stop offset=".05" style="stop-color:#dad4cc"/><stop offset=".101" style="stop-color:#e9e4de"/><stop offset=".156" style="stop-color:#f2eee9"/><stop offset=".22" style="stop-color:#f5f1ec"/><stop offset=".507" style="stop-color:#d7d2cb"/><stop offset=".822" style="stop-color:#bbb5ac"/><stop offset="1" style="stop-color:#b0aaa1"/></linearGradient><path d="M41.16 51h-5.653l-.174 1h6z" style="fill:url(#r)"/><linearGradient id="s" x1="34.333" x2="42.333" y1="560.883" y2="560.883" gradientTransform="matrix(1 0 0 -1 0 613.883)" gradientUnits="userSpaceOnUse"><stop offset="0" style="stop-color:#c4bdb3"/><stop offset=".001" style="stop-color:#c5beb4"/><stop offset=".05" style="stop-color:#dad4cc"/><stop offset=".101" style="stop-color:#e9e4de"/><stop offset=".156" style="stop-color:#f2eee9"/><stop offset=".22" style="stop-color:#f5f1ec"/><stop offset=".507" style="stop-color:#d7d2cb"/><stop offset=".822" style="stop-color:#bbb5ac"/><stop offset="1" style="stop-color:#b0aaa1"/></linearGradient><path d="m34.333 54 .145-1.209.59-.791h6.53l.59.791.145 1.209z" style="fill:url(#s)"/><linearGradient id="t" x1="35.583" x2="41.083" y1="14.022" y2="14.022" gradientTransform="translate(0 17.728)" gradientUnits="userSpaceOnUse"><stop offset="0" style="stop-color:#c4bdb3"/><stop offset=".001" style="stop-color:#c5beb4"/><stop offset=".05" style="stop-color:#dad4cc"/><stop offset=".101" style="stop-color:#e9e4de"/><stop offset=".156" style="stop-color:#f2eee9"/><stop offset=".22" style="stop-color:#f5f1ec"/><stop offset=".507" style="stop-color:#d7d2cb"/><stop offset=".822" style="stop-color:#bbb5ac"/><stop offset="1" style="stop-color:#b0aaa1"/></linearGradient><path d="M35.583 31.5h5.5v.5h-5.5z" style="fill:url(#t)"/><linearGradient id="u" x1="35.333" x2="41.333" y1="12.772" y2="12.772" gradientTransform="translate(0 17.728)" gradientUnits="userSpaceOnUse"><stop offset="0" style="stop-color:#c4bdb3"/><stop offset=".001" style="stop-color:#c5beb4"/><stop offset=".05" style="stop-color:#dad4cc"/><stop offset=".101" style="stop-color:#e9e4de"/><stop offset=".156" style="stop-color:#f2eee9"/><stop offset=".22" style="stop-color:#f5f1ec"/><stop offset=".507" style="stop-color:#d7d2cb"/><stop offset=".822" style="stop-color:#bbb5ac"/><stop offset="1" style="stop-color:#b0aaa1"/></linearGradient><path d="M41.16 31h-5.653l-.174-1h6z" style="fill:url(#u)"/><linearGradient id="v" x1="34.333" x2="42.333" y1="11.272" y2="11.272" gradientTransform="translate(0 17.728)" gradientUnits="userSpaceOnUse"><stop offset="0" style="stop-color:#c4bdb3"/><stop offset=".001" style="stop-color:#c5beb4"/><stop offset=".05" style="stop-color:#dad4cc"/><stop offset=".101" style="stop-color:#e9e4de"/><stop offset=".156" style="stop-color:#f2eee9"/><stop offset=".22" style="stop-color:#f5f1ec"/><stop offset=".507" style="stop-color:#d7d2cb"/><stop offset=".822" style="stop-color:#bbb5ac"/><stop offset="1" style="stop-color:#b0aaa1"/></linearGradient><path d="m34.333 28 .145 1.209.59.791h6.53l.59-.791.145-1.209z" style="fill:url(#v)"/><path d="M38.064 32h.539v18h-.539zm.94 0h.541v18h-.541zm-1.882 0h.541v18h-.541zm2.79 0h.427v18h-.427zm-3.584 0h.427v18h-.427zm4.213 0h.293v18h-.293zm-4.708 0h.293v18h-.293z" style="opacity:.2;fill:#857f74"/><linearGradient id="w" x1="23.167" x2="28.167" y1="41" y2="41" gradientUnits="userSpaceOnUse"><stop offset="0" style="stop-color:#c4bdb3"/><stop offset=".001" style="stop-color:#c5beb4"/><stop offset=".05" style="stop-color:#dad4cc"/><stop offset=".101" style="stop-color:#e9e4de"/><stop offset=".156" style="stop-color:#f2eee9"/><stop offset=".22" style="stop-color:#f5f1ec"/><stop offset=".507" style="stop-color:#d7d2cb"/><stop offset=".822" style="stop-color:#bbb5ac"/><stop offset="1" style="stop-color:#b0aaa1"/></linearGradient><path d="M23.167 30.5h5v21h-5z" style="fill:url(#w)"/><linearGradient id="x" x1="22.917" x2="28.417" y1="563.633" y2="563.633" gradientTransform="matrix(1 0 0 -1 0 613.883)" gradientUnits="userSpaceOnUse"><stop offset="0" style="stop-color:#c4bdb3"/><stop offset=".001" style="stop-color:#c5beb4"/><stop offset=".05" style="stop-color:#dad4cc"/><stop offset=".101" style="stop-color:#e9e4de"/><stop offset=".156" style="stop-color:#f2eee9"/><stop offset=".22" style="stop-color:#f5f1ec"/><stop offset=".507" style="stop-color:#d7d2cb"/><stop offset=".822" style="stop-color:#bbb5ac"/><stop offset="1" style="stop-color:#b0aaa1"/></linearGradient><path d="M22.917 50h5.5v.5h-5.5z" style="fill:url(#x)"/><linearGradient id="y" x1="22.667" x2="28.667" y1="562.383" y2="562.383" gradientTransform="matrix(1 0 0 -1 0 613.883)" gradientUnits="userSpaceOnUse"><stop offset="0" style="stop-color:#c4bdb3"/><stop offset=".001" style="stop-color:#c5beb4"/><stop offset=".05" style="stop-color:#dad4cc"/><stop offset=".101" style="stop-color:#e9e4de"/><stop offset=".156" style="stop-color:#f2eee9"/><stop offset=".22" style="stop-color:#f5f1ec"/><stop offset=".507" style="stop-color:#d7d2cb"/><stop offset=".822" style="stop-color:#bbb5ac"/><stop offset="1" style="stop-color:#b0aaa1"/></linearGradient><path d="M28.494 51H22.84l-.173 1h6z" style="fill:url(#y)"/><linearGradient id="z" x1="21.667" x2="29.667" y1="560.883" y2="560.883" gradientTransform="matrix(1 0 0 -1 0 613.883)" gradientUnits="userSpaceOnUse"><stop offset="0" style="stop-color:#c4bdb3"/><stop offset=".001" style="stop-color:#c5beb4"/><stop offset=".05" style="stop-color:#dad4cc"/><stop offset=".101" style="stop-color:#e9e4de"/><stop offset=".156" style="stop-color:#f2eee9"/><stop offset=".22" style="stop-color:#f5f1ec"/><stop offset=".507" style="stop-color:#d7d2cb"/><stop offset=".822" style="stop-color:#bbb5ac"/><stop offset="1" style="stop-color:#b0aaa1"/></linearGradient><path d="m21.667 54 .145-1.209.59-.791h6.53l.59.791.145 1.209z" style="fill:url(#z)"/><linearGradient id="A" x1="22.917" x2="28.417" y1="14.022" y2="14.022" gradientTransform="translate(0 17.728)" gradientUnits="userSpaceOnUse"><stop offset="0" style="stop-color:#c4bdb3"/><stop offset=".001" style="stop-color:#c5beb4"/><stop offset=".05" style="stop-color:#dad4cc"/><stop offset=".101" style="stop-color:#e9e4de"/><stop offset=".156" style="stop-color:#f2eee9"/><stop offset=".22" style="stop-color:#f5f1ec"/><stop offset=".507" style="stop-color:#d7d2cb"/><stop offset=".822" style="stop-color:#bbb5ac"/><stop offset="1" style="stop-color:#b0aaa1"/></linearGradient><path d="M22.917 31.5h5.5v.5h-5.5z" style="fill:url(#A)"/><linearGradient id="B" x1="22.667" x2="28.667" y1="12.772" y2="12.772" gradientTransform="translate(0 17.728)" gradientUnits="userSpaceOnUse"><stop offset="0" style="stop-color:#c4bdb3"/><stop offset=".001" style="stop-color:#c5beb4"/><stop offset=".05" style="stop-color:#dad4cc"/><stop offset=".101" style="stop-color:#e9e4de"/><stop offset=".156" style="stop-color:#f2eee9"/><stop offset=".22" style="stop-color:#f5f1ec"/><stop offset=".507" style="stop-color:#d7d2cb"/><stop offset=".822" style="stop-color:#bbb5ac"/><stop offset="1" style="stop-color:#b0aaa1"/></linearGradient><path d="M28.494 31H22.84l-.173-1h6z" style="fill:url(#B)"/><linearGradient id="C" x1="21.667" x2="29.667" y1="11.272" y2="11.272" gradientTransform="translate(0 17.728)" gradientUnits="userSpaceOnUse"><stop offset="0" style="stop-color:#c4bdb3"/><stop offset=".001" style="stop-color:#c5beb4"/><stop offset=".05" style="stop-color:#dad4cc"/><stop offset=".101" style="stop-color:#e9e4de"/><stop offset=".156" style="stop-color:#f2eee9"/><stop offset=".22" style="stop-color:#f5f1ec"/><stop offset=".507" style="stop-color:#d7d2cb"/><stop offset=".822" style="stop-color:#bbb5ac"/><stop offset="1" style="stop-color:#b0aaa1"/></linearGradient><path d="m21.667 28 .145 1.209.59.791h6.53l.59-.791.145-1.209z" style="fill:url(#C)"/><path d="M25.397 32h.539v18h-.539zm.94 0h.541v18h-.541zm-1.882 0h.541v18h-.541zm2.79 0h.427v18h-.427zm-3.584 0h.427v18h-.427zm4.213 0h.293v18h-.293zm-4.707 0h.293v18h-.293z" style="opacity:.2;fill:#857f74"/><linearGradient id="D" x1="32" x2="32" y1="41.003" y2="28" gradientUnits="userSpaceOnUse"><stop offset=".5" style="stop-color:#383124;stop-opacity:0"/><stop offset="1" style="stop-color:#383124;stop-opacity:.6"/></linearGradient><path d="M9.735 30H10l.173 1h.327v.5h-.25v.5h.25v9.003h43V32h.25v-.5h-.25V31h.327L54 30h.265l.59-.792L55 28H9l.145 1.208z" style="fill:url(#D)"/><linearGradient id="E" x1="32" x2="32" y1="62" y2="60" gradientUnits="userSpaceOnUse"><stop offset="0" style="stop-color:#c4bdb3"/><stop offset=".303" style="stop-color:#cfc9c0"/><stop offset=".862" style="stop-color:#ede8e2"/><stop offset="1" style="stop-color:#f5f1ec"/></linearGradient><path d="M2 62h60v-.99A1.01 1.01 0 0 0 60.99 60H3.01A1.01 1.01 0 0 0 2 61.01V62z" style="fill:url(#E)"/><linearGradient id="F" x1="32" x2="32" y1="60" y2="58" gradientUnits="userSpaceOnUse"><stop offset="0" style="stop-color:#c4bdb3"/><stop offset=".303" style="stop-color:#cfc9c0"/><stop offset=".862" style="stop-color:#ede8e2"/><stop offset="1" style="stop-color:#f5f1ec"/></linearGradient><path d="M4 60h56v-.99A1.01 1.01 0 0 0 58.99 58H5.01A1.01 1.01 0 0 0 4 59.01V60z" style="fill:url(#F)"/><linearGradient id="G" x1="32" x2="32" y1="58" y2="56" gradientUnits="userSpaceOnUse"><stop offset="0" style="stop-color:#c4bdb3"/><stop offset=".303" style="stop-color:#cfc9c0"/><stop offset=".862" style="stop-color:#ede8e2"/><stop offset="1" style="stop-color:#f5f1ec"/></linearGradient><path d="M6 58h52v-.99A1.01 1.01 0 0 0 56.99 56H7.01A1.01 1.01 0 0 0 6 57.01V58z" style="fill:url(#G)"/><linearGradient id="H" x1="32" x2="32" y1="56" y2="54" gradientUnits="userSpaceOnUse"><stop offset="0" style="stop-color:#c4bdb3"/><stop offset=".303" style="stop-color:#cfc9c0"/><stop offset=".862" style="stop-color:#ede8e2"/><stop offset="1" style="stop-color:#f5f1ec"/></linearGradient><path d="M8 56h48v-.99A1.01 1.01 0 0 0 54.99 54H9.01A1.01 1.01 0 0 0 8 55.01V56z" style="fill:url(#H)"/><linearGradient id="I" x1="32" x2="32" y1="27.25" y2="24.75" gradientUnits="userSpaceOnUse"><stop offset="0" style="stop-color:#c2b9aa"/><stop offset=".37" style="stop-color:#c0b7a8"/><stop offset=".583" style="stop-color:#b7afa1"/><stop offset=".756" style="stop-color:#a9a294"/><stop offset=".906" style="stop-color:#968f83"/><stop offset="1" style="stop-color:#857f74"/></linearGradient><path d="M5 24.75h54v2.5H5z" style="fill:url(#I)"/><path d="M5.403 26.465c0 .064-.01.111-.03.14-.02.03-.06.046-.116.05A1.561 1.561 0 0 1 5 26.646v.334c.234.028.418.027.55-.004.135-.03.228-.089.282-.175a.633.633 0 0 0 .081-.343V25h-.51v1.465zm7.185-1.343c-.151-.081-.332-.122-.542-.122s-.39.041-.542.122a.857.857 0 0 0-.356.347c-.083.15-.125.326-.125.528 0 .205.042.382.124.531a.87.87 0 0 0 .354.349c.153.082.335.123.545.123s.39-.041.542-.123a.877.877 0 0 0 .352-.349 1.1 1.1 0 0 0 .124-.531c0-.202-.043-.379-.124-.528a.867.867 0 0 0-.352-.347zm-.186 1.333a.452.452 0 0 1-.356.153.442.442 0 0 1-.355-.152c-.088-.102-.13-.254-.13-.459 0-.202.042-.354.13-.455.087-.1.205-.15.355-.15.148 0 .267.05.356.152.088.101.133.252.133.453 0 .203-.045.355-.133.458zM31.535 25h.538v2h-.538zm7.925 0h-.622l-.45.606-.44-.606h-.62l.758.988L37.312 27h.622l.458-.624.454.624h.626l-.778-1.012zm4.792 2h1.452v-.405h-.93v-.41h.87v-.405h-.87v-.376h.93V25h-1.452zm7.152-2h-.538v2h1.399v-.428h-.86zm7.564 1.193a.458.458 0 0 0-.116-.162.818.818 0 0 0-.225-.13 1.932 1.932 0 0 0-.353-.098 1.815 1.815 0 0 1-.26-.068.265.265 0 0 1-.115-.066.12.12 0 0 1-.03-.08c0-.06.028-.109.088-.144a.445.445 0 0 1 .234-.053.98.98 0 0 1 .295.046c.098.032.194.079.285.14l.165-.364a.666.666 0 0 0-.197-.113 1.6 1.6 0 0 0-.555-.1 1.083 1.083 0 0 0-.44.081.723.723 0 0 0-.293.225.534.534 0 0 0-.106.32c0 .075.012.143.033.203.022.06.06.115.114.163a.76.76 0 0 0 .226.129c.096.037.219.07.365.098.106.021.19.043.246.063a.273.273 0 0 1 .116.068c.02.026.034.053.034.085 0 .052-.032.094-.092.126a.58.58 0 0 1-.263.046 1.254 1.254 0 0 1-.652-.186l-.17.364a.97.97 0 0 0 .228.114 1.764 1.764 0 0 0 .587.1c.188 0 .349-.025.48-.074a.647.647 0 0 0 .301-.211c.07-.091.102-.2.102-.326a.548.548 0 0 0-.032-.196zM25.88 25.165c-.126-.11-.308-.165-.544-.165h-.969v2h.536v-.781h.433c.232 0 .413-.055.54-.165.128-.112.191-.26.191-.445s-.063-.334-.187-.444zm-.386.606c-.049.036-.126.054-.23.054h-.36V25.4h.36c.106 0 .183.018.233.055.047.036.071.09.071.161a.18.18 0 0 1-.074.156zm-6.865.027L18.114 25h-.606l.854 1.233V27h.54v-.763l.853-1.225V25h-.604z" style="fill:#e3ddd5"/><linearGradient id="J" x1="32" x2="32" y1="29" y2="27" gradientUnits="userSpaceOnUse"><stop offset="0" style="stop-color:#c4bdb3"/><stop offset=".169" style="stop-color:#d2ccc3"/><stop offset=".467" style="stop-color:#e5e0da"/><stop offset=".75" style="stop-color:#f1ede7"/><stop offset="1" style="stop-color:#f5f1ec"/></linearGradient><path d="M59.503 29H4.497c-.663 0-.663-2 0-2h55.006c.663 0 .663 2 0 2z" style="fill:url(#J)"/><linearGradient id="K" x1="32" x2="32" y1="24.17" y2="3.774" gradientUnits="userSpaceOnUse"><stop offset="0" style="stop-color:#c2b9aa"/><stop offset=".37" style="stop-color:#c0b7a8"/><stop offset=".583" style="stop-color:#b7afa1"/><stop offset=".756" style="stop-color:#a9a294"/><stop offset=".906" style="stop-color:#968f83"/><stop offset="1" style="stop-color:#857f74"/></linearGradient><path d="M31.99 3.774 4.354 21.514v2.656h55.29v-2.656z" style="fill:url(#K)"/><path d="M31.99 2 2 21.786l1.875 1.477 28.114-18.55 28.136 18.55L62 21.785z" style="fill:#f5f1ec"/><path d="M31.99 5.604 3.874 24.154V25h56.25v-.846z" style="fill:#f5f1ec"/><path d="M31.99 7.332 8.64 23.189h46.72z" style="fill:#ddd7cf"/><linearGradient id="L" x1="32" x2="32" y1="23.189" y2="7.332" gradientUnits="userSpaceOnUse"><stop offset="0" style="stop-color:#c2b9aa;stop-opacity:.3"/><stop offset=".37" style="stop-color:#c0b7a8;stop-opacity:.4852"/><stop offset=".583" style="stop-color:#b7afa1;stop-opacity:.5915"/><stop offset=".756" style="stop-color:#a9a294;stop-opacity:.6779"/><stop offset=".906" style="stop-color:#968f83;stop-opacity:.753"/><stop offset="1" style="stop-color:#857f74;stop-opacity:.8"/></linearGradient><path d="m32.216 9.297 20.476 13.892h2.668L31.99 7.332 8.64 23.189h2.666L31.762 9.297a.404.404 0 0 1 .454 0z" style="fill:url(#L)"/></svg>