<svg xmlns="http://www.w3.org/2000/svg" xml:space="preserve" style="enable-background:new 0 0 64 64" viewBox="0 0 64 64"><linearGradient id="a" x1="32" x2="32" y1="62" y2="2" gradientUnits="userSpaceOnUse"><stop offset="0" style="stop-color:#daf0fd"/><stop offset=".331" style="stop-color:#d7effd"/><stop offset=".622" style="stop-color:#ccecfd"/><stop offset=".896" style="stop-color:#bae7fd"/><stop offset="1" style="stop-color:#b1e5fd"/></linearGradient><path d="M2 2h60v60H2z" style="fill:url(#a)"/><linearGradient id="b" x1="52.762" x2="62" y1="45.765" y2="45.765" gradientUnits="userSpaceOnUse"><stop offset="0" style="stop-color:#a5d3e8"/><stop offset="1" style="stop-color:#6ebadb"/></linearGradient><path d="M52.76 29.53H62V62h-9.24z" style="fill:url(#b)"/><linearGradient id="c" x1="31.729" x2="40.243" y1="36.708" y2="36.708" gradientUnits="userSpaceOnUse"><stop offset="0" style="stop-color:#a5d3e8"/><stop offset="1" style="stop-color:#6ebadb"/></linearGradient><path d="M38.76 27.02v-6.69h-1.27v-1.89h-.83v-7.02h-1.35v7.02h-.83v1.89h-1.26v6.69h-1.49V62h8.51V27.02z" style="fill:url(#c)"/><linearGradient id="d" x1="2" x2="12.405" y1="42.853" y2="42.853" gradientUnits="userSpaceOnUse"><stop offset="0" style="stop-color:#a5d3e8"/><stop offset="1" style="stop-color:#6ebadb"/></linearGradient><path d="M12.41 62H2V36.55c0-.15.07-.29.19-.39l4.25-3.25c.12-.09.19-.24.19-.39v-8.33c0-.4.45-.63.77-.39l4.8 3.48c.13.09.2.24.2.39V62z" style="fill:url(#d)"/><path d="M42.16 21.35h7.33v22.81h-7.33z" style="fill:#5dadcf"/><path d="M48.82 21.35h5.33v22.81h-5.33z" style="fill:#3b7f9c"/><path d="M52.71 22.35h.7v23.64h-.7zm-1.4 0h.7v23.64h-.7zm-1.4 0h.7v23.64h-.7zm-2.8 0h.7v23.64h-.7zm-1.4 0h.7v23.64h-.7zm-1.4 0h.7v23.64h-.7zm-1.4 0h.7v23.64h-.7z" style="opacity:.15;fill:#4e5e67"/><path d="M36.21 32.86h6.5v1.4h-6.5z" style="fill:#5dadcf"/><path d="M40.93 32.86h3.54v1.4h-3.54z" style="fill:#3b7f9c"/><path d="M34.43 33.98h8.27v26.6h-8.27z" style="fill:#5dadcf"/><path d="M42.11 33.98h4.13v26.6h-4.13z" style="fill:#3b7f9c"/><path d="M34.43 34.68h11.81v.7H34.43zm0 1.4h11.81v.7H34.43zm0 1.4h11.81v.7H34.43zm0 1.4h11.81v.7H34.43zm0 1.4h11.81v.7H34.43zm0 1.4h11.81v.7H34.43zm0 1.4h11.81v.7H34.43zm0 1.4h11.81v.7H34.43zm0 1.4h11.81v.7H34.43zm0 1.4h11.81v.7H34.43zm0 1.41h11.81v.7H34.43zm0 1.4h11.81v.7H34.43zm0 1.39h11.81v.7H34.43zm0 1.4h11.81v.7H34.43zm0 1.4h11.81v.7H34.43zm0 1.41h11.81v.7H34.43zm0 1.4h11.81v.7H34.43zm0 1.4h11.81v.7H34.43z" style="opacity:.15;fill:#4e5e67"/><path d="M12.23 16h10v2h-10z" style="fill:#3b7f9c"/><linearGradient id="e" x1="10.234" x2="24.234" y1="26.5" y2="26.5" gradientUnits="userSpaceOnUse"><stop offset="0" style="stop-color:#88bacf"/><stop offset=".198" style="stop-color:#81b5ca"/><stop offset=".488" style="stop-color:#6da5bd"/><stop offset=".833" style="stop-color:#4d8da8"/><stop offset="1" style="stop-color:#3b7f9c"/></linearGradient><path d="M10.23 17h14v19h-14z" style="fill:url(#e)"/><linearGradient id="f" x1="9.234" x2="25.234" y1="42" y2="42" gradientUnits="userSpaceOnUse"><stop offset="0" style="stop-color:#88bacf"/><stop offset=".239" style="stop-color:#73aac1"/><stop offset=".74" style="stop-color:#4a8ba6"/><stop offset="1" style="stop-color:#3b7f9c"/></linearGradient><path d="M9.23 32h16v20h-16z" style="fill:url(#f)"/><linearGradient id="g" x1="8.234" x2="26.234" y1="53" y2="53" gradientUnits="userSpaceOnUse"><stop offset="0" style="stop-color:#88bacf"/><stop offset=".198" style="stop-color:#81b5ca"/><stop offset=".488" style="stop-color:#6da5bd"/><stop offset=".833" style="stop-color:#4d8da8"/><stop offset="1" style="stop-color:#3b7f9c"/></linearGradient><path d="M8.23 45h18v16h-18z" style="fill:url(#g)"/><path d="M10.23 18h14v.78h-14zm0 1.56h14v.78h-14zm0 1.57h14v.78h-14zm0 1.56h14v.78h-14zm0 1.57h14v.78h-14zm0 1.56h14v.78h-14zm0 1.56h14v.78h-14zm0 1.57h14v.78h-14zm0 1.56h14v.78h-14zm-1 2.49h16v.86h-16zm0 1.71h16v.86h-16zm0 1.72h16v.86h-16zm0 1.72h16v.86h-16zm0 1.71h16v.86h-16zm0 1.72h16v.86h-16zm0 1.72h16v.86h-16zm-1 2.7h18v1.01h-18zm0 2.02h18v1.01h-18zm0 2.01h18v1.01h-18zm0 2.02h18v1.01h-18zm0 2.02h18v1.01h-18zm0 2.02h18v1.01h-18zm0 2.02h18v1.01h-18z" style="opacity:.15;fill:#4e5e67"/><path d="M46.79 41.4h10.64v2H46.79z" style="fill:#2a6482"/><path d="M55.16 41.4h3.56v2h-3.56z" style="fill:#265471"/><path d="M44.52 43h11.16l1.76 19H44.52z" style="fill:#2a6482"/><path d="M55.68 43H60v19h-4.32zm-10.03 1h8.88v1h-8.88zm0 2h8.88v1h-8.88zm0 2h8.88v1h-8.88zm0 2h8.88v1h-8.88zm0 2h8.88v1h-8.88zm0 2h8.88v1h-8.88zm0 2h8.88v1h-8.88zm0 2h8.88v1h-8.88z" style="fill:#265471"/><path d="M22.26 41.04h8.81v1.37h-8.81z" style="fill:#2a6482"/><path d="M30.33 41.04h4.4v1.37h-4.4z" style="fill:#265471"/><path d="M20.79 42.14h10.28v19.2H20.79z" style="fill:#2a6482"/><path d="M31.07 42.14h5.14v19.2h-5.14zm-2.57 0h.73v19.2h-.73zm-2.94 0h.73v19.2h-.73zm-2.93 0h.73v19.2h-.73z" style="fill:#265471"/><path d="M4 47.5h5.48V61H4z" style="fill:#2a6482"/><path d="M8.8 47.5h4.76V61H8.8z" style="fill:#265471"/><path d="M12.56 48.25h.5v12h-.5zm-1.09 0h.5v12h-.5zm-1.09 0h.5v12h-.5zm-1.08 0h.5v12h-.5z" style="opacity:.15;fill:#1a1626"/><path d="M7.8 48.25h.5v12h-.5zm-1.1 0h.5v12h-.5zm-1.1 0h.5v12h-.5zm-1.11 0h.5v12h-.5z" style="fill:#265471"/><path d="M49 59c-6 2.5-13 0-14 0-3.18 0-6.18 2.16-8 2-1.9-.17-5.1-2-7-2-.83 0-2.97 1.35-5 1-.89-.15-5.1-2-6-2-1.38 0-7 2-7 2v2h60v-3s-4.67-2-6-2c-1.12 0-5.15 1.23-7 2z" style="fill:#234f6a"/><path d="M7.8 48.25h.5v.86h-.5zM5.6 52.4h.5v.86h-.5zm4.78-2.01h.5v.86h-.5zm2.18 2.01h.5v.86h-.5zm13-2.04h.73v.86h-.73zm0 6.44h.73v.86h-.73zm-2.93-3.88h.73v.86h-.73zm5.87-.87h.73v.86h-.73zM47.37 48h1.14v1h-1.14zm5.21-2h1.14v1h-1.14zm-2.27 4h1.14v1h-1.14zm1.88 4h1.14v1h-1.14zm-5.17 2h1.14v1h-1.14zM28.5 58.25h.73v.86h-.73zm-5.87-10.87h.73v.86h-.73zm2.93-4.08h.73v.86h-.73zm2.94 1.51h.73v.86h-.73zM9.3 55.23h.5v.86h-.5zm2.17 1.57h.5v.86h-.5zM6.7 55.73h.5v.86h-.5zm-2.21.84h.5v.86h-.5z" style="opacity:.5;fill:#fff"/></svg>