<svg xmlns="http://www.w3.org/2000/svg" xml:space="preserve" viewBox="0 0 64 64"><linearGradient id="a" x1="20" x2="44" y1="32" y2="32" gradientUnits="userSpaceOnUse"><stop offset="0" style="stop-color:#4e5e67"/><stop offset=".382" style="stop-color:#444e59"/><stop offset="1" style="stop-color:#302c3b"/></linearGradient><path fill="url(#a)" d="M20 3.385v57.23c7.346 1.834 16.557 1.859 24 0V3.385c-7.346-1.833-16.554-1.86-24 0z"/><radialGradient id="b" cx="136.38" cy="274.585" r="26.594" gradientTransform="matrix(.6549 0 0 2.3504 -57.315 -613.374)" gradientUnits="userSpaceOnUse"><stop offset="0" style="stop-color:#ff7136"/><stop offset=".168" style="stop-color:#f96530"/><stop offset=".471" style="stop-color:#e74521"/><stop offset=".873" style="stop-color:#cc1208"/><stop offset="1" style="stop-color:#c20000"/></radialGradient><path fill="url(#b)" d="M20.028 7.655c-13.181 6.606-13.56 42.784 0 48.884 5.407 2.433 19.019 2.79 24.282 0 13.137-6.966 12.699-41.359 0-48.884-5.171-3.063-18.941-2.676-24.282 0z"/><path fill="#B00505" d="M10.891 29.693c13.558-.95 28.654-.952 42.219 0-13.462-.13-28.766-.13-42.219 0zm.115-2.318c13.495-1.471 28.486-1.474 41.988 0-13.375-.652-28.621-.653-41.988 0zm.19-2.32c13.386-1.992 28.216-1.997 41.606 0-13.241-1.175-28.37-1.176-41.606 0zm.267-2.32c13.225-2.513 27.842-2.52 41.074 0-13.06-1.694-28.021-1.696-41.074 0z"/><path fill="#B00505" d="M12.365 20.306c12.656-2.892 26.607-2.894 39.27 0-12.475-2.072-26.803-2.072-39.27 0z"/><path fill="#B00505" d="M12.77 17.964c12.408-3.384 26.047-3.39 38.461 0-12.206-2.567-26.263-2.567-38.461 0z"/><path fill="#B00505" d="M13.783 15.476c11.768-3.68 24.66-3.687 36.432 0-11.547-2.861-24.889-2.863-36.432 0z"/><path fill="#B00505" d="M15.359 12.792a50.987 50.987 0 0 1 33.281 0c-10.536-2.9-22.748-2.9-33.281 0z"/><path fill="#B00505" d="M17.938 9.734a41.618 41.618 0 0 1 28.122 0c-8.892-2.438-19.234-2.438-28.122 0zm35.21 22.251c-13.572.51-28.721.511-42.299 0 13.499-.471 28.809-.471 42.299 0zm-.039 2.321c-13.559.95-28.656.952-42.219 0 13.461.131 28.764.131 42.219 0zm-.115 2.319c-13.496 1.471-28.487 1.473-41.988 0 13.375.651 28.619.652 41.988 0zm-.191 2.319c-13.385 1.992-28.217 1.998-41.606 0 13.241 1.175 28.371 1.176 41.606 0zm-.266 2.32c-13.227 2.513-27.844 2.52-41.074 0 13.059 1.695 28.021 1.697 41.074 0z"/><path fill="#B00505" d="M51.635 43.693c-12.656 2.893-26.607 2.895-39.27 0 12.475 2.072 26.801 2.072 39.27 0z"/><path fill="#B00505" d="M51.23 46.035c-12.41 3.385-26.047 3.39-38.461 0 12.206 2.567 26.262 2.568 38.461 0z"/><path fill="#B00505" d="M50.215 48.523c-11.766 3.68-24.659 3.688-36.432 0 11.549 2.862 24.891 2.863 36.432 0z"/><path fill="#B00505" d="M48.641 51.206a50.968 50.968 0 0 1-33.281 0c10.536 2.901 22.747 2.901 33.281 0z"/><path fill="#B00505" d="M46.061 54.265a41.618 41.618 0 0 1-28.122 0c8.893 2.437 19.235 2.437 28.122 0z"/></svg>