<svg xmlns="http://www.w3.org/2000/svg" xml:space="preserve" style="enable-background:new 0 0 64 64" viewBox="0 0 64 64"><path d="M3 26h58v38H3z" style="fill:#f2e1ce"/><linearGradient id="a" x1="49" x2="61" y1="45" y2="45" gradientUnits="userSpaceOnUse"><stop offset="0" style="stop-color:#2b2c2e;stop-opacity:.2"/><stop offset=".071" style="stop-color:#2b2c2e;stop-opacity:.1717"/><stop offset=".5" style="stop-color:#2b2c2e;stop-opacity:0"/></linearGradient><path d="M49 26h12v38H49z" style="fill:url(#a)"/><linearGradient id="b" x1="-481.516" x2="-469.516" y1="45" y2="45" gradientTransform="matrix(-1 0 0 1 -466.516 0)" gradientUnits="userSpaceOnUse"><stop offset="0" style="stop-color:#2b2c2e;stop-opacity:.2"/><stop offset=".071" style="stop-color:#2b2c2e;stop-opacity:.1717"/><stop offset=".5" style="stop-color:#2b2c2e;stop-opacity:0"/></linearGradient><path d="M3 26h12v38H3z" style="fill:url(#b)"/><path d="M58.867 20.266H5.133L7.2 18h49.6z" style="fill:#895128"/><path d="M5.133 20.266h53.733v.446H5.133zM3.067 22.91h57.867v.446H3.067zM1 25.554h62V26H1z" style="fill:#77420b"/><path d="M60.933 22.91H3.067l2.066-2.266h53.734zM63 25.554H1l2.067-2.266h57.866zM57.5 58h-5v-4.375C52.5 52.175 53.62 51 55 51s2.5 1.175 2.5 2.625V58z" style="fill:#895128"/><path d="M57.222 57.708h-4.444v-4.083c0-1.289.995-2.333 2.222-2.333 1.227 0 2.222 1.044 2.222 2.333v4.083z" style="fill:#1e7394"/><path d="M57.083 57.563h-4.166v-3.938c0-1.208.932-2.188 2.083-2.188 1.15 0 2.083.98 2.083 2.188v3.938z" style="fill:#2a83a5"/><path d="M11.5 58h-5v-4.375C6.5 52.175 7.62 51 9 51s2.5 1.175 2.5 2.625V58z" style="fill:#895128"/><path d="M11.222 57.708H6.778v-4.083c0-1.289.995-2.333 2.222-2.333 1.227 0 2.222 1.044 2.222 2.333v4.083z" style="fill:#1e7394"/><path d="M11.083 57.563H6.917v-3.938c0-1.208.932-2.188 2.083-2.188 1.15 0 2.083.98 2.083 2.188v3.938z" style="fill:#2a83a5"/><path d="M57.5 47h-5v-4.375C52.5 41.175 53.62 40 55 40s2.5 1.175 2.5 2.625V47z" style="fill:#895128"/><path d="M57.222 46.708h-4.444v-4.083c0-1.289.995-2.333 2.222-2.333 1.227 0 2.222 1.044 2.222 2.333v4.083z" style="fill:#1e7394"/><path d="M57.083 46.563h-4.166v-3.938c0-1.208.932-2.188 2.083-2.188 1.15 0 2.083.98 2.083 2.188v3.938z" style="fill:#2a83a5"/><path d="M11.5 47h-5v-4.375C6.5 41.175 7.62 40 9 40s2.5 1.175 2.5 2.625V47z" style="fill:#895128"/><path d="M11.222 46.708H6.778v-4.083c0-1.289.995-2.333 2.222-2.333 1.227 0 2.222 1.044 2.222 2.333v4.083z" style="fill:#1e7394"/><path d="M11.083 46.563H6.917v-3.938c0-1.208.932-2.188 2.083-2.188 1.15 0 2.083.98 2.083 2.188v3.938z" style="fill:#2a83a5"/><path d="M57.5 36h-5v-4.375C52.5 30.175 53.62 29 55 29s2.5 1.175 2.5 2.625V36z" style="fill:#895128"/><path d="M57.222 35.708h-4.444v-4.083c0-1.289.995-2.333 2.222-2.333 1.227 0 2.222 1.044 2.222 2.333v4.083z" style="fill:#1e7394"/><path d="M57.083 35.563h-4.166v-3.938c0-1.208.932-2.188 2.083-2.188 1.15 0 2.083.98 2.083 2.188v3.938z" style="fill:#2a83a5"/><path d="M11.5 36h-5v-4.375C6.5 30.175 7.62 29 9 29s2.5 1.175 2.5 2.625V36z" style="fill:#895128"/><path d="M11.222 35.708H6.778v-4.083c0-1.289.995-2.333 2.222-2.333 1.227 0 2.222 1.044 2.222 2.333v4.083z" style="fill:#1e7394"/><path d="M11.083 35.563H6.917v-3.938c0-1.208.932-2.188 2.083-2.188 1.15 0 2.083.98 2.083 2.188v3.938z" style="fill:#2a83a5"/><path d="M51.084 61.032a1.01 1.01 0 0 0-1.197.328c-.258-.146-1.064-.055-1.116.777-.221.143-.533.63-.317.995-.723.162-.366.868-.366.868h5.75s.561-.615-.14-1.044c.155-.312-.17-1.111-.782-1.118.17-.182-.273-.469-.61-.507-.183-.443-.74-.65-1.221-.299zm7.95.535c-.78-.234-1.198.27-1.198.27-.258-.12-1.064-.045-1.116.637-.221.117-.533.515-.317.815-.723.132-.365.711-.365.711h5.75s.56-.505-.141-.856c.156-.255-.169-.91-.782-.916.17-.15-.273-.384-.61-.416-.183-.363-.74-.532-1.221-.245z" style="fill:#7ab51d"/><path d="M55.06 61.588c-.78-.233-1.198.266-1.198.266-.259-.119-1.065-.044-1.116.631-.222.117-.534.513-.317.81-.724.13-.366.705-.366.705h5.75s.561-.5-.14-.85c.155-.252-.17-.901-.782-.908.17-.147-.273-.38-.61-.412-.183-.36-.74-.527-1.222-.242z" style="fill:#92c932"/><path d="M12.915 61.032a1.01 1.01 0 0 1 1.198.328c.258-.146 1.064-.055 1.116.777.221.143.533.63.317.995.723.162.366.868.366.868h-5.75s-.561-.615.14-1.044c-.156-.312.17-1.111.782-1.118-.17-.182.273-.469.61-.507.183-.443.74-.65 1.221-.299zm-7.949.535c.78-.234 1.198.27 1.198.27.258-.12 1.064-.045 1.116.637.221.117.533.515.317.815.723.132.365.711.365.711h-5.75s-.56-.505.141-.856c-.156-.255.169-.91.782-.916-.17-.15.273-.384.61-.416.183-.363.74-.532 1.221-.245z" style="fill:#7ab51d"/><path d="M8.94 61.588c.78-.233 1.198.266 1.198.266.258-.119 1.065-.044 1.116.631.222.117.534.513.317.81.723.13.366.705.366.705h-5.75s-.561-.5.14-.85c-.155-.252.17-.901.782-.908-.17-.147.273-.38.61-.412.183-.36.74-.527 1.222-.242z" style="fill:#92c932"/><linearGradient id="c" x1="-142.111" x2="-132.111" y1="67.667" y2="67.667" gradientTransform="rotate(90 -43.722 143.389)" gradientUnits="userSpaceOnUse"><stop offset="0" style="stop-color:#2b2c2e;stop-opacity:.3"/><stop offset=".071" style="stop-color:#2b2c2e;stop-opacity:.2576"/><stop offset=".5" style="stop-color:#2b2c2e;stop-opacity:0"/></linearGradient><path d="M15 45h34v10H15z" style="fill:url(#c)"/><path d="M30.867.43 11.492 15h41.016L33.117.43a1.689 1.689 0 0 0-2.25 0z" style="fill:#895128"/><path d="M31.992 2.577 14.992 15h34z" style="fill:#77420b"/><path d="M31.992 4.577 14.992 17v47h34V17z" style="fill:#fff4e8"/><path d="M14.992 15h34v2h-34z" style="fill:#77420b"/><path d="M14 42h36v2H14z" style="fill:#895128"/><path d="M14.5 44h35v1h-35z" style="fill:#77420b"/><path d="M46 58h-5v-4.375C41 52.175 42.12 51 43.5 51s2.5 1.175 2.5 2.625V58z" style="fill:#895128"/><path d="M45.722 57.708h-4.444v-4.083c0-1.289.995-2.333 2.222-2.333 1.227 0 2.222 1.044 2.222 2.333v4.083z" style="fill:#1e7394"/><path d="M45.583 57.563h-4.166v-3.938c0-1.208.932-2.188 2.083-2.188 1.15 0 2.083.98 2.083 2.188v3.938z" style="fill:#2a83a5"/><path d="M23 58h-5v-4.375C18 52.175 19.12 51 20.5 51s2.5 1.175 2.5 2.625V58z" style="fill:#895128"/><path d="M22.722 57.708h-4.444v-4.083c0-1.289.995-2.333 2.222-2.333 1.227 0 2.222 1.044 2.222 2.333v4.083z" style="fill:#1e7394"/><path d="M22.583 57.563h-4.166v-3.938c0-1.208.932-2.188 2.083-2.188 1.15 0 2.083.98 2.083 2.188v3.938z" style="fill:#2a83a5"/><path d="M38.5 64h-13V53.5a6.5 6.5 0 1 1 13 0V64z" style="fill:#77420b"/><path d="M37.5 64h-11V53.5a5.5 5.5 0 1 1 11 0V64z" style="fill:#895128"/><path d="M31.75 47.5h.5V64h-.5z" style="fill:#77420b"/><linearGradient id="d" x1="33.241" x2="33.241" y1="57.5" y2="56.5" gradientUnits="userSpaceOnUse"><stop offset="0" style="stop-color:#d98416"/><stop offset="1" style="stop-color:#f7dd45"/></linearGradient><path d="M32.741 56.5h1v1h-1z" style="fill:url(#d)"/><linearGradient id="e" x1="30.759" x2="30.759" y1="57.5" y2="56.5" gradientUnits="userSpaceOnUse"><stop offset="0" style="stop-color:#d98416"/><stop offset="1" style="stop-color:#f7dd45"/></linearGradient><path d="M30.259 56.5h1v1h-1z" style="fill:url(#e)"/><path d="M32.73 31.9v2.749c0 .313-.412.313-.412 0V31.9c0-.34.411-.34.411 0z" style="fill:#b00505"/><linearGradient id="f" x1="28.446" x2="30.175" y1="38.47" y2="38.47" gradientTransform="translate(3.213 -.84)" gradientUnits="userSpaceOnUse"><stop offset="0" style="stop-color:#ff3641"/><stop offset=".273" style="stop-color:#fc343f"/><stop offset=".477" style="stop-color:#f22e39"/><stop offset=".657" style="stop-color:#e2242e"/><stop offset=".825" style="stop-color:#cc151f"/><stop offset=".983" style="stop-color:#af020b"/><stop offset="1" style="stop-color:#ab0009"/></linearGradient><path d="M32.524 35.191c-.752-.357-.921 2.749-.85 3.86.008-.077.027-.731.088-1.166-.045.826-.024 1.734-.024 1.824 0 .09.117.136.117.136-.02-.509.026-1.02.026-1.02s-.038.653.01 1.064c.15.11.28.135.28.135-.03-.614.084-2.366.084-2.366s-.08 1.61-.017 2.405c.105.032.286.036.286.036s.18-.004.286-.036c.063-.796-.017-2.405-.017-2.405s.113 1.752.084 2.366c0 0 .13-.026.28-.135.048-.41.01-1.065.01-1.065s.046.512.026 1.02c0 0 .117-.045.117-.135 0-.09.021-.998-.024-1.824.061.435.08 1.09.088 1.165.07-1.11-.099-4.216-.85-3.858z" style="fill:url(#f)"/><path d="M32.788 35.191c0 .14-.528.14-.528 0s.528-.14.528 0z" style="fill:#b00505"/><linearGradient id="g" x1="28.943" x2="29.678" y1="35.674" y2="35.674" gradientTransform="translate(3.213 -.84)" gradientUnits="userSpaceOnUse"><stop offset="0" style="stop-color:#ff3641"/><stop offset=".273" style="stop-color:#fc343f"/><stop offset=".477" style="stop-color:#f22e39"/><stop offset=".657" style="stop-color:#e2242e"/><stop offset=".825" style="stop-color:#cc151f"/><stop offset=".983" style="stop-color:#af020b"/><stop offset="1" style="stop-color:#ab0009"/></linearGradient><path d="M32.892 34.834c0 .51-.735.51-.735 0s.735-.51.735 0z" style="fill:url(#g)"/><path d="M30.323 32.782v2.749c0 .314-.411.314-.411 0v-2.749c0-.339.41-.339.41 0z" style="fill:#b00505"/><linearGradient id="h" x1="26.04" x2="27.769" y1="39.352" y2="39.352" gradientTransform="translate(3.213 -.84)" gradientUnits="userSpaceOnUse"><stop offset="0" style="stop-color:#ff3641"/><stop offset=".273" style="stop-color:#fc343f"/><stop offset=".477" style="stop-color:#f22e39"/><stop offset=".657" style="stop-color:#e2242e"/><stop offset=".825" style="stop-color:#cc151f"/><stop offset=".983" style="stop-color:#af020b"/><stop offset="1" style="stop-color:#ab0009"/></linearGradient><path d="M30.118 36.074c-.752-.358-.921 2.748-.85 3.859.007-.076.026-.73.087-1.166-.045.826-.024 1.734-.024 1.824 0 .09.117.136.117.136-.02-.508.027-1.02.027-1.02s-.039.654.01 1.064c.15.11.28.135.28.135-.03-.614.083-2.366.083-2.366s-.08 1.61-.016 2.405c.104.031.286.036.286.036s.18-.005.285-.036c.063-.796-.016-2.405-.016-2.405s.113 1.752.083 2.366c0 0 .13-.026.28-.135.048-.41.01-1.064.01-1.064s.046.512.027 1.02c0 0 .117-.046.117-.136 0-.09.02-.998-.025-1.824.061.435.081 1.09.088 1.166.071-1.11-.098-4.217-.849-3.86z" style="fill:url(#h)"/><path d="M30.382 36.074c0 .14-.53.14-.53 0s.53-.14.53 0z" style="fill:#b00505"/><linearGradient id="i" x1="26.537" x2="27.272" y1="36.556" y2="36.556" gradientTransform="translate(3.213 -.84)" gradientUnits="userSpaceOnUse"><stop offset="0" style="stop-color:#ff3641"/><stop offset=".273" style="stop-color:#fc343f"/><stop offset=".477" style="stop-color:#f22e39"/><stop offset=".657" style="stop-color:#e2242e"/><stop offset=".825" style="stop-color:#cc151f"/><stop offset=".983" style="stop-color:#af020b"/><stop offset="1" style="stop-color:#ab0009"/></linearGradient><path d="M30.485 35.716c0 .51-.735.51-.735 0 0-.509.735-.509.735 0z" style="fill:url(#i)"/><linearGradient id="j" x1="106.174" x2="107.184" y1="45.919" y2="56.492" gradientTransform="rotate(-15.571 -25.61 283.378)" gradientUnits="userSpaceOnUse"><stop offset="0" style="stop-color:#f7dd45"/><stop offset=".18" style="stop-color:#f5d742"/><stop offset=".43" style="stop-color:#efc538"/><stop offset=".72" style="stop-color:#e5a729"/><stop offset="1" style="stop-color:#d98416"/></linearGradient><path d="M38.002 19.087c-.022.69 1.101 2.795.848 4.437-.27 1.75-1.664 4.184-3.722 5.993l.518 1.856c2.583-2.144 5.139-5.076 6.475-5.964.803-.533 3.164-1.337 3.738-1.781l-7.857-4.54z" style="fill:url(#j)"/><path d="M37.998 18.956c-.425.774 7.546 5.383 7.971 4.609.309-.562-7.662-5.17-7.971-4.609z" style="fill:#f7dd45"/><linearGradient id="k" x1="-478.955" x2="-477.886" y1="889.801" y2="889.801" gradientTransform="rotate(119.426 35.39 607.519)" gradientUnits="userSpaceOnUse"><stop offset="0" style="stop-color:#e69800"/><stop offset=".145" style="stop-color:#e19500"/><stop offset=".307" style="stop-color:#d48c00"/><stop offset=".477" style="stop-color:#be7d00"/><stop offset=".653" style="stop-color:#9e6800"/><stop offset=".831" style="stop-color:#774e00"/><stop offset="1" style="stop-color:#4a3000"/></linearGradient><path d="M38.061 18.954c-.396.72 7.48 5.275 7.877 4.554.288-.522-7.589-5.076-7.877-4.554z" style="fill:url(#k)"/><linearGradient id="l" x1="-82.479" x2="-82.479" y1="68.13" y2="64.318" gradientTransform="rotate(.81 2384.78 7613.748)" gradientUnits="userSpaceOnUse"><stop offset="0" style="stop-color:#d98416"/><stop offset=".28" style="stop-color:#e5a729"/><stop offset=".57" style="stop-color:#efc538"/><stop offset=".82" style="stop-color:#f5d742"/><stop offset="1" style="stop-color:#f7dd45"/></linearGradient><path d="M30.985 30.98c-2.925.608-4.432.043-6.033-.799l-.629 1.196c1.796.919 4.143 1.928 7.027 1.328.48-.1.114-1.825-.365-1.725z" style="fill:url(#l)"/><radialGradient id="m" cx="106.15" cy="42.824" r="8.236" gradientTransform="matrix(.9103 -.2537 .2565 .9203 -76.835 11.554)" gradientUnits="userSpaceOnUse"><stop offset="0" style="stop-color:#f7dd45"/><stop offset=".435" style="stop-color:#f6db44"/><stop offset=".606" style="stop-color:#f4d440"/><stop offset=".731" style="stop-color:#f0c83a"/><stop offset=".833" style="stop-color:#eab731"/><stop offset=".92" style="stop-color:#e3a025"/><stop offset=".997" style="stop-color:#d98517"/><stop offset="1" style="stop-color:#d98416"/></radialGradient><path d="M29.095 18.247c-3.906 1.089-6.172 5.203-5.06 9.19 1.11 3.988 5.178 6.337 9.084 5.248 3.906-1.088 6.171-5.203 5.06-9.19-1.111-3.987-5.178-6.336-9.084-5.248zm3.483 12.498c-2.856.797-5.83-.921-6.643-3.837-.813-2.916.844-5.925 3.7-6.72 2.856-.797 5.83.921 6.643 3.837.813 2.916-.844 5.925-3.7 6.72z" style="fill:url(#m)"/><linearGradient id="n" x1="25.099" x2="25.701" y1="32.302" y2="32.302" gradientTransform="translate(3.213 -.84)" gradientUnits="userSpaceOnUse"><stop offset="0" style="stop-color:#ff3641"/><stop offset=".273" style="stop-color:#fc343f"/><stop offset=".477" style="stop-color:#f22e39"/><stop offset=".657" style="stop-color:#e2242e"/><stop offset=".825" style="stop-color:#cc151f"/><stop offset=".983" style="stop-color:#af020b"/><stop offset="1" style="stop-color:#ab0009"/></linearGradient><path d="M28.312 30.099v2.748c0 .313.602.313.602 0v-2.748c0-.34-.602-.34-.602 0z" style="fill:url(#n)"/><linearGradient id="o" x1="25.701" x2="26.302" y1="32.48" y2="32.48" gradientTransform="translate(3.213 -.84)" gradientUnits="userSpaceOnUse"><stop offset="0" style="stop-color:#ff3641"/><stop offset=".273" style="stop-color:#fc343f"/><stop offset=".477" style="stop-color:#f22e39"/><stop offset=".657" style="stop-color:#e2242e"/><stop offset=".825" style="stop-color:#cc151f"/><stop offset=".983" style="stop-color:#af020b"/><stop offset="1" style="stop-color:#ab0009"/></linearGradient><path d="M28.914 30.277v2.75c0 .311.601.311.601 0v-2.75c0-.34-.601-.34-.601 0z" style="fill:url(#o)"/><linearGradient id="p" x1="26.302" x2="26.904" y1="32.558" y2="32.558" gradientTransform="translate(3.213 -.84)" gradientUnits="userSpaceOnUse"><stop offset="0" style="stop-color:#ff3641"/><stop offset=".273" style="stop-color:#fc343f"/><stop offset=".477" style="stop-color:#f22e39"/><stop offset=".657" style="stop-color:#e2242e"/><stop offset=".825" style="stop-color:#cc151f"/><stop offset=".983" style="stop-color:#af020b"/><stop offset="1" style="stop-color:#ab0009"/></linearGradient><path d="M29.515 30.355v2.748c0 .313.602.313.602 0v-2.748c0-.34-.602-.34-.602 0z" style="fill:url(#p)"/><linearGradient id="q" x1="26.904" x2="27.506" y1="32.707" y2="32.707" gradientTransform="translate(3.213 -.84)" gradientUnits="userSpaceOnUse"><stop offset="0" style="stop-color:#ff3641"/><stop offset=".273" style="stop-color:#fc343f"/><stop offset=".477" style="stop-color:#f22e39"/><stop offset=".657" style="stop-color:#e2242e"/><stop offset=".825" style="stop-color:#cc151f"/><stop offset=".983" style="stop-color:#af020b"/><stop offset="1" style="stop-color:#ab0009"/></linearGradient><path d="M30.117 30.504v2.748c0 .313.602.313.602 0v-2.748c0-.34-.602-.34-.602 0z" style="fill:url(#q)"/><linearGradient id="r" x1="27.506" x2="28.108" y1="32.776" y2="32.776" gradientTransform="translate(3.213 -.84)" gradientUnits="userSpaceOnUse"><stop offset="0" style="stop-color:#ff3641"/><stop offset=".273" style="stop-color:#fc343f"/><stop offset=".477" style="stop-color:#f22e39"/><stop offset=".657" style="stop-color:#e2242e"/><stop offset=".825" style="stop-color:#cc151f"/><stop offset=".983" style="stop-color:#af020b"/><stop offset="1" style="stop-color:#ab0009"/></linearGradient><path d="M30.72 30.573v2.748c0 .314.601.314.601 0v-2.748c0-.34-.602-.34-.602 0z" style="fill:url(#r)"/><linearGradient id="s" x1="30.514" x2="31.116" y1="32.123" y2="32.123" gradientTransform="translate(3.213 -.84)" gradientUnits="userSpaceOnUse"><stop offset="0" style="stop-color:#ff3641"/><stop offset=".273" style="stop-color:#fc343f"/><stop offset=".477" style="stop-color:#f22e39"/><stop offset=".657" style="stop-color:#e2242e"/><stop offset=".825" style="stop-color:#cc151f"/><stop offset=".983" style="stop-color:#af020b"/><stop offset="1" style="stop-color:#ab0009"/></linearGradient><path d="M34.33 29.92v2.747c0 .314-.602.314-.602 0V29.92c0-.34.601-.34.601 0z" style="fill:url(#s)"/><linearGradient id="t" x1="29.913" x2="30.514" y1="32.363" y2="32.363" gradientTransform="translate(3.213 -.84)" gradientUnits="userSpaceOnUse"><stop offset="0" style="stop-color:#ff3641"/><stop offset=".273" style="stop-color:#fc343f"/><stop offset=".477" style="stop-color:#f22e39"/><stop offset=".657" style="stop-color:#e2242e"/><stop offset=".825" style="stop-color:#cc151f"/><stop offset=".983" style="stop-color:#af020b"/><stop offset="1" style="stop-color:#ab0009"/></linearGradient><path d="M33.727 30.16v2.749c0 .312-.601.312-.601 0v-2.75c0-.34.602-.34.602 0z" style="fill:url(#t)"/><linearGradient id="u" x1="29.311" x2="29.913" y1="32.558" y2="32.558" gradientTransform="translate(3.213 -.84)" gradientUnits="userSpaceOnUse"><stop offset="0" style="stop-color:#ff3641"/><stop offset=".273" style="stop-color:#fc343f"/><stop offset=".477" style="stop-color:#f22e39"/><stop offset=".657" style="stop-color:#e2242e"/><stop offset=".825" style="stop-color:#cc151f"/><stop offset=".983" style="stop-color:#af020b"/><stop offset="1" style="stop-color:#ab0009"/></linearGradient><path d="M33.126 30.355v2.748c0 .313-.602.313-.602 0v-2.748c0-.34.602-.34.602 0z" style="fill:url(#u)"/><linearGradient id="v" x1="28.71" x2="29.311" y1="32.707" y2="32.707" gradientTransform="translate(3.213 -.84)" gradientUnits="userSpaceOnUse"><stop offset="0" style="stop-color:#ff3641"/><stop offset=".273" style="stop-color:#fc343f"/><stop offset=".477" style="stop-color:#f22e39"/><stop offset=".657" style="stop-color:#e2242e"/><stop offset=".825" style="stop-color:#cc151f"/><stop offset=".983" style="stop-color:#af020b"/><stop offset="1" style="stop-color:#ab0009"/></linearGradient><path d="M32.524 30.504v2.748c0 .313-.601.313-.601 0v-2.748c0-.34.601-.34.601 0z" style="fill:url(#v)"/><linearGradient id="w" x1="28.108" x2="28.71" y1="32.776" y2="32.776" gradientTransform="translate(3.213 -.84)" gradientUnits="userSpaceOnUse"><stop offset="0" style="stop-color:#ff3641"/><stop offset=".273" style="stop-color:#fc343f"/><stop offset=".477" style="stop-color:#f22e39"/><stop offset=".657" style="stop-color:#e2242e"/><stop offset=".825" style="stop-color:#cc151f"/><stop offset=".983" style="stop-color:#af020b"/><stop offset="1" style="stop-color:#ab0009"/></linearGradient><path d="M31.923 30.573v2.748c0 .314-.602.314-.602 0v-2.748c0-.34.602-.34.602 0z" style="fill:url(#w)"/><linearGradient id="x" x1="-.154" x2="2.65" y1="-140.843" y2="-140.843" gradientTransform="rotate(-60.574 158.938 -74.512)" gradientUnits="userSpaceOnUse"><stop offset="0" style="stop-color:#d98416"/><stop offset=".423" style="stop-color:#e6ab2b"/><stop offset="1" style="stop-color:#f7dd45"/></linearGradient><path d="M23.37 28.501c-.188-.001-.567.513-.875 1.07-.31.554-.55 1.149-.45 1.31.051.087.358.31.461.125.207-.372.958-.458 1.097.042.098.348.491.027.58.345.1.362.436.015.7-.458.264-.474.383-.944.026-.845-.315.088-.247-.42-.592-.323-.494.138-.81-.558-.603-.93.103-.184-.244-.336-.344-.336z" style="fill:url(#x)"/><path d="M23.707 28.799s-.585 1.13-1.237 2.22a9.47 9.47 0 0 0 1.237-2.22zm.935 1.191s-.322.623-.682 1.225c.463-.615.682-1.225.682-1.225zm-1.041 1.02s.323-.623.682-1.225c-.462.614-.682 1.224-.682 1.224zm1.307-.91s-.34.655-.718 1.288a5.499 5.499 0 0 0 .718-1.289z" style="opacity:.3;fill:#d98416"/></svg>