<svg xmlns="http://www.w3.org/2000/svg" xml:space="preserve" style="enable-background:new 0 0 64 64" viewBox="0 0 64 64"><path d="M17.177 19.959h-1.941s-.463-1.032 0-1.655c.313 1.096 1.941 1.655 1.941 1.655zm29.646 0h1.939s.465-1.032 0-1.655c-.313 1.096-1.94 1.655-1.94 1.655z" style="fill:#404d54"/><path d="M10.902 40.693h42.196v8.423H10.902zm2-14.984h38.196V36.7H12.902z" style="fill:#d6d1cd"/><path d="M4.002 38.477c0 3.869 4.224 4.234 6.9 4.234h42.183c2.676 0 6.915-.366 6.915-4.234-4.761 3.145-51.235 3.145-55.998 0z" style="fill:#f2ece8"/><path d="M51.1 36.7H12.904s-4.406 3.131-8.902 1.777c0 3.638 6.9 3.638 6.9 3.638h42.183s6.915 0 6.915-3.638c-4.496 1.354-8.9-1.777-8.9-1.777z" style="fill:#4e5e67"/><path d="M50.711 25.823c-1.455-1.853-1.884-4.99-1.884-4.99H15.175s-.43 3.137-1.884 4.99c-3.027 3.86-7.289 1.01-7.289 1.01 0 2.845 2.21 4.234 6.9 4.234h9.535c1.57 0 2.283-5.005 4.021-5.005h11.086c1.738 0 2.45 5.005 4.023 5.005h9.518c4.694 0 6.915-1.299 6.915-4.234 0 0-4.256 2.85-7.289-1.01z" style="fill:#f2ece8"/><path d="M50.71 24.823c-1.455-1.853-1.885-4.99-1.885-4.99h-33.65s-.43 3.137-1.885 4.99c-1.004 1.28-3.774 3.206-7.289 2.01 0 3.639 4.95 3.639 6.9 3.639h9.535c1.57 0 2.283-4.41 4.021-4.41h11.086c1.738 0 2.45 4.41 4.023 4.41h9.518c1.954 0 6.915.09 6.915-3.639-3.516 1.196-6.283-.73-7.289-2.01z" style="fill:#4e5e67"/><path d="M26.36 3.655h-1.939s-.465-1.032 0-1.655c.313 1.097 1.94 1.655 1.94 1.655zm11.277 0h1.942s.463-1.032 0-1.655c-.313 1.097-1.942 1.655-1.942 1.655z" style="fill:#404d54"/><path d="M19.002 17.368h25.999v5.787H19.002z" style="fill:#d6d1cd"/><path d="M15.183 15.974c0 1.785 1.994 2.181 3.818 2.181h26c1.824 0 3.816-.396 3.816-2.181-3.15 2.181-31.856 1.785-33.634 0z" style="fill:#f2ece8"/><path d="M41.778 12.899H22.222s-2.875 4.448-7.039 3.075c0 1.785 2.765 1.785 3.819 1.785H45c1.054 0 3.817 0 3.817-1.785-4.162 1.373-7.04-3.075-7.04-3.075z" style="fill:#4e5e67"/><path d="M22.222 6.566h19.556v6.333H22.222z" style="fill:#d6d1cd"/><path d="M44.32 6.717s-1.863 2.253-4.63-1.421H24.31c-2.767 3.674-4.63 1.42-4.63 1.42 0 1.509 1.333 1.768 2.549 1.768h4.733c.715 0 1.264-1.846 2.059-1.846h5.958c.795 0 1.344 1.846 2.06 1.846h4.739c1.215 0 2.543-.26 2.543-1.767z" style="fill:#f2ece8"/><path d="M44.32 6.717c-2.747 1-4.63-3.298-4.63-3.298H24.31s-1.883 4.298-4.63 3.298c0 1.396 1.822 1.396 2.549 1.396h4.733c.715 0 1.264-1.475 2.059-1.475h5.958c.795 0 1.344 1.475 2.06 1.475h4.739c.725 0 2.543 0 2.543-1.396z" style="fill:#4e5e67"/><path d="m37.307 17.758-5.306-4.795-5.306 4.795z" style="fill:#404d54"/><path d="M27.835 19.123h8.332L32 15.36z" style="fill:#d6d1cd"/><path d="M45.098 32.7h3v3h-3z" style="fill:#ada9a7"/><path d="M45.312 32.914h2.571v2.571h-2.571z" style="fill:#302c3b"/><path d="M39.259 32.7h3v3h-3z" style="fill:#ada9a7"/><path d="M39.473 32.914h2.571v2.571h-2.571z" style="fill:#302c3b"/><path d="M33.42 32.7h3v3h-3z" style="fill:#ada9a7"/><path d="M33.634 32.914h2.571v2.571h-2.571z" style="fill:#302c3b"/><path d="M15.902 32.7h3v3h-3z" style="fill:#ada9a7"/><path d="M16.116 32.914h2.571v2.571h-2.571z" style="fill:#302c3b"/><path d="M21.741 32.7h3v3h-3z" style="fill:#ada9a7"/><path d="M21.956 32.914h2.571v2.571h-2.571z" style="fill:#302c3b"/><path d="M27.58 32.7h3v3h-3z" style="fill:#ada9a7"/><path d="M27.795 32.914h2.571v2.571h-2.571z" style="fill:#302c3b"/><path d="M45.098 44.115h3v3h-3z" style="fill:#ada9a7"/><path d="M45.312 44.33h2.571v2.571h-2.571z" style="fill:#302c3b"/><path d="M39.259 44.115h3v3h-3z" style="fill:#ada9a7"/><path d="M39.473 44.33h2.571v2.571h-2.571z" style="fill:#302c3b"/><path d="M33.42 44.115h3v3h-3z" style="fill:#ada9a7"/><path d="M33.634 44.33h2.571v2.571h-2.571z" style="fill:#302c3b"/><path d="M15.902 44.115h3v3h-3z" style="fill:#ada9a7"/><path d="M16.116 44.33h2.571v2.571h-2.571z" style="fill:#302c3b"/><path d="M21.741 44.115h3v3h-3z" style="fill:#ada9a7"/><path d="M21.956 44.33h2.571v2.571h-2.571z" style="fill:#302c3b"/><path d="M27.58 44.115h3v3h-3z" style="fill:#ada9a7"/><path d="M27.795 44.33h2.571v2.571h-2.571z" style="fill:#302c3b"/><path d="M39.259 19.155h3v3h-3z" style="fill:#ada9a7"/><path d="M39.473 19.37h2.571v2.571h-2.571z" style="fill:#302c3b"/><path d="M21.741 19.155h3v3h-3z" style="fill:#ada9a7"/><path d="M21.956 19.37h2.571v2.571h-2.571z" style="fill:#302c3b"/><path d="M27.58 19.155h3v3h-3z" style="fill:#ada9a7"/><path d="M27.795 19.37h2.571v2.571h-2.571z" style="fill:#302c3b"/><path d="M33.42 19.155h3v3h-3z" style="fill:#ada9a7"/><path d="M33.634 19.37h2.571v2.571h-2.571z" style="fill:#302c3b"/><path d="M36.339 9.289h3v3h-3z" style="fill:#ada9a7"/><path d="M36.553 9.503h2.571v2.571h-2.571z" style="fill:#302c3b"/><path d="M24.661 9.289h3v3h-3z" style="fill:#ada9a7"/><path d="M24.875 9.503h2.571v2.571h-2.571z" style="fill:#302c3b"/><path d="M30.5 9.289h3v3h-3z" style="fill:#ada9a7"/><path d="M30.714 9.503h2.571v2.571h-2.571z" style="fill:#302c3b"/><path d="M27.58 27.152h3v3h-3z" style="fill:#ada9a7"/><path d="M27.795 27.367h2.571v2.571h-2.571z" style="fill:#302c3b"/><path d="M33.42 27.152h3v3h-3z" style="fill:#ada9a7"/><path d="M33.634 27.367h2.571v2.571h-2.571z" style="fill:#302c3b"/><path d="M10.902 42.656c0-.178 1-.178 1 0 0 .712-1 .712-1 0zm1.328 0c0-.178 1-.178 1 0 0 .712-1 .712-1 0zm1.33 0c0-.178 1-.178 1 0 0 .712-1 .712-1 0zm1.327 0c0-.178 1-.178 1 0 0 .712-1 .712-1 0zm1.328 0c0-.178 1.001-.178 1.001 0 0 .712-1 .712-1 0zm1.329 0c0-.178 1.001-.178 1.001 0 0 .712-1 .712-1 0zm1.329 0c0-.178 1-.178 1 0 0 .712-1 .712-1 0zm1.329 0c0-.178 1-.178 1 0 0 .712-1 .712-1 0zm1.328 0c0-.178 1-.178 1 0 0 .712-1 .712-1 0zm1.328 0c0-.178 1-.178 1 0a.502.502 0 0 1-1 0zm1.329 0c0-.178 1-.178 1 0 0 .712-1 .712-1 0zm1.328 0c0-.178 1-.178 1 0 0 .712-1 .712-1 0zm1.328 0c0-.178 1.002-.178 1.002 0a.502.502 0 0 1-1.002 0zm1.33 0c0-.178 1-.178 1 0 0 .712-1 .712-1 0zm1.328 0c0-.178 1-.178 1 0 0 .712-1 .712-1 0zm1.329 0c0-.178 1-.178 1 0 0 .712-1 .712-1 0zm1.327 0c0-.178 1.001-.178 1.001 0 0 .712-1 .712-1 0zm1.329 0c0-.178 1.001-.178 1.001 0 0 .712-1 .712-1 0zm1.328 0c0-.178 1.001-.178 1.001 0a.502.502 0 0 1-1 0zm1.329 0c0-.178 1-.178 1 0 0 .712-1 .712-1 0zm1.328 0c0-.178 1-.178 1 0 0 .712-1 .712-1 0zm1.329 0c0-.178 1-.178 1 0 0 .712-1 .712-1 0zm1.329 0c0-.178 1-.178 1 0a.502.502 0 0 1-1 0zm1.328 0c0-.178 1-.178 1 0 0 .712-1 .712-1 0zm1.329 0c0-.178 1-.178 1 0 0 .712-1 .712-1 0zm1.328 0c0-.178 1-.178 1 0a.502.502 0 0 1-1 0zm1.329 0c0-.178.999-.178.999 0a.5.5 0 0 1-1 0zm1.327 0c0-.178 1-.178 1 0 0 .712-1 .712-1 0zm1.33 0c0-.178 1-.178 1 0 0 .712-1 .712-1 0zm1.327 0c0-.178 1.002-.178 1.002 0a.502.502 0 0 1-1.002 0zm1.33 0c0-.178 1-.178 1 0 0 .712-1 .712-1 0zm1.328 0c0-.178 1-.178 1 0 0 .712-1 .712-1 0zM19.014 18.104c0-.18.953-.18.953 0 0 .712-.953.712-.953 0zm1.266 0c0-.18.952-.18.952 0 0 .712-.952.712-.952 0zm1.266 0c0-.18.952-.18.952 0 0 .712-.952.712-.952 0zm1.264 0c0-.18.954-.18.954 0 0 .712-.953.712-.953 0zm1.266 0c0-.18.953-.18.953 0 0 .712-.953.712-.953 0zm1.266 0c0-.18.952-.18.952 0 0 .712-.952.712-.952 0zm1.266 0c0-.18.953-.18.953 0 0 .712-.953.712-.953 0zm1.265 0c0-.18.954-.18.954 0 0 .712-.954.712-.954 0zm7.317 0c0-.18.95-.18.95 0 0 .712-.95.712-.95 0zm1.262 0c0-.18.953-.18.953 0 0 .712-.953.712-.953 0zm1.266 0c0-.18.95-.18.95 0 0 .712-.95.712-.95 0zm1.263 0c0-.18.952-.18.952 0 0 .712-.952.712-.952 0zm1.263 0c0-.18.953-.18.953 0 0 .712-.953.712-.953 0zm1.266 0c0-.18.951-.18.951 0 0 .712-.952.712-.952 0zm1.262 0c0-.18.953-.18.953 0 0 .712-.953.712-.953 0zm1.265 0c0-.18.95-.18.95 0 0 .712-.95.712-.95 0zm-21.75-9.807c0-.168.932-.168.932 0a.467.467 0 0 1-.932 0zm1.238 0c0-.168.932-.168.932 0a.468.468 0 0 1-.932 0zm1.239 0c0-.168.933-.168.933 0a.468.468 0 0 1-.933 0zm1.239 0c0-.168.934-.168.934 0a.468.468 0 0 1-.934 0zm11.077 0c0-.168.93-.168.93 0 0 .668-.93.668-.93 0zm1.235 0c0-.168.934-.168.934 0a.468.468 0 0 1-.934 0zm1.239 0c0-.168.931-.168.931 0 0 .668-.93.668-.93 0zm1.238 0c0-.168.931-.168.931 0a.467.467 0 0 1-.931 0zM13.56 30.998c0-.179 1-.179 1 0 0 .712-1 .712-1 0zm1.327 0c0-.179 1-.179 1 0 0 .712-1 .712-1 0zm1.328 0c0-.179 1.001-.179 1.001 0 0 .712-1 .712-1 0zm1.329 0c0-.179 1.001-.179 1.001 0 0 .712-1 .712-1 0zm1.329 0c0-.179 1-.179 1 0 0 .712-1 .712-1 0zm1.329 0c0-.179 1-.179 1 0 0 .712-1 .712-1 0zm1.328 0c0-.179 1-.179 1 0 0 .712-1 .712-1 0zm19.927 0c0-.179 1-.179 1 0 0 .712-1 .712-1 0zm1.329 0c0-.179 1-.179 1 0 0 .712-1 .712-1 0zm1.328 0c0-.179 1-.179 1 0a.502.502 0 0 1-1 0zm1.329 0c0-.179.999-.179.999 0a.5.5 0 0 1-1 0zm1.327 0c0-.179 1-.179 1 0 0 .712-1 .712-1 0zm1.33 0c0-.179 1-.179 1 0 0 .712-1 .712-1 0zm1.327 0c0-.179 1.002-.179 1.002 0a.502.502 0 0 1-1.002 0z" style="fill:#f2ece8"/><path d="M53.926 49.114H10.078L8.002 60.999h48z" style="fill:#8a6859"/><path d="M18.32 61.374c-.893.514-4.152.514-5.044 0-.844-.484-.844-2.266 0-2.75.892-.514 4.153-.514 5.044 0 .843.486.843 2.266 0 2.75z" style="fill:#d6a57c"/><path d="M12.384 59.31c-.518.588-2.408.588-2.926 0-.488-.557-.488-2.598 0-3.154.518-.588 2.408-.588 2.926 0 .488.558.488 2.597 0 3.154z" style="fill:#c49e8f"/><path d="M21.176 52.399c.117.758-1.005 1.563-1.738 1.246-.692-.301-2.166-2.162-2.277-2.879-.119-.758 1.005-1.561 1.736-1.244.693.301 2.166 2.163 2.279 2.877z" style="fill:#d6a57c"/><path d="M22.1 60.409c-.097.492-1.106.939-1.565.691-.43-.232-1.057-1.512-.966-1.977.097-.49 1.106-.939 1.563-.693.435.237 1.06 1.516.968 1.979z" style="fill:#c49e8f"/><path d="M15.512 57.677c-.7.373-1.888-.348-1.842-1.115.046-.727 1.34-2.705 2-3.059.7-.371 1.889.348 1.842 1.115-.047.729-1.34 2.705-2 3.059z" style="fill:#b47d56"/><path d="M18.904 58.331c-.767.213-1.76-.734-1.537-1.463.213-.691 1.935-2.326 2.66-2.525.767-.213 1.759.734 1.537 1.465-.213.691-1.933 2.324-2.66 2.523z" style="fill:#705041"/><path d="M26.352 57.526c.769-.514 3.578-.514 4.346 0 .729.486.729 2.266 0 2.752-.767.514-3.577.514-4.346 0-.727-.486-.727-2.265 0-2.752z" style="fill:#b47d56"/><path d="M29.345 53.7c.384-.514 1.789-.514 2.175 0 .363.486.363 2.266 0 2.752-.386.514-1.791.514-2.175 0-.365-.486-.365-2.265 0-2.752zm-4.035-2.117c-.522-.35-.496-1.588.04-1.918.505-.311 2.333-.275 2.822.055.52.348.495 1.588-.04 1.92-.505.31-2.333.275-2.822-.057z" style="fill:#d6a57c"/><path d="M21.618 51.222c-.462-.264-.44-1.191.029-1.438.445-.23 2.055-.201 2.487.049.459.262.439 1.189-.03 1.438-.444.232-2.055.199-2.486-.049z" style="fill:#c49e8f"/><path d="M21.266 57.714c-.118-.758 1.004-1.563 1.737-1.244.693.299 2.166 2.162 2.277 2.877.119.758-1.004 1.561-1.736 1.246-.693-.303-2.165-2.162-2.278-2.879z" style="fill:#d6a57c"/><path d="M23.589 55.55c.098-.49 1.105-.939 1.565-.689.43.23 1.057 1.51.966 1.977-.098.49-1.107.938-1.564.691-.434-.235-1.059-1.514-.967-1.979zm7.255-5.916c.658-.092 1.628.873 1.505 1.494-.117.586-1.468 1.816-2.088 1.902-.657.092-1.627-.873-1.505-1.494.119-.586 1.47-1.816 2.088-1.902z" style="fill:#c49e8f"/><path d="M26.3 52.593c.384-.674 1.79-.674 2.175 0 .364.639.364 2.977 0 3.613-.385.674-1.79.674-2.175 0-.363-.639-.363-2.975 0-3.613z" style="fill:#705041"/><path d="M23.603 51.72c.68-.129 1.671.818 1.535 1.465-.13.613-1.55 1.957-2.192 2.078-.68.129-1.671-.82-1.535-1.467.13-.611 1.548-1.955 2.192-2.076zm14.049.867c-.769.514-3.577.514-4.346 0-.729-.484-.729-2.266 0-2.75.768-.514 3.577-.514 4.346 0 .728.486.728 2.266 0 2.75z" style="fill:#b47d56"/><path d="M34.66 56.413c-.385.514-1.789.514-2.173 0-.365-.484-.365-2.266 0-2.75.384-.514 1.788-.514 2.174 0 .362.486.362 2.266 0 2.75zm8.512-4.014c.118.758-1.004 1.563-1.736 1.246-.693-.301-2.167-2.162-2.278-2.879-.117-.758 1.005-1.561 1.736-1.244.695.301 2.167 2.163 2.278 2.877z" style="fill:#705041"/><path d="M40.415 54.563c-.096.492-1.105.939-1.565.691-.43-.232-1.055-1.512-.966-1.977.098-.49 1.107-.939 1.564-.693.434.237 1.059 1.517.967 1.979zm-7.255 5.918c-.657.09-1.63-.875-1.505-1.494.116-.586 1.468-1.818 2.086-1.904.657-.09 1.627.875 1.505 1.494-.117.586-1.468 1.818-2.087 1.904z" style="fill:#c49e8f"/><path d="M37.703 57.52c-.384.674-1.79.674-2.175 0-.364-.637-.364-2.975 0-3.613.386-.674 1.79-.674 2.175 0 .365.641.365 2.977 0 3.613z" style="fill:#d6a57c"/><path d="M40.4 58.395c-.68.129-1.671-.82-1.534-1.467.13-.611 1.55-1.957 2.192-2.078.68-.129 1.671.82 1.534 1.467-.13.614-1.548 1.957-2.191 2.078z" style="fill:#b47d56"/><path d="M41.32 58.284c.505-.514 2.346-.514 2.85 0 .476.484.476 2.266 0 2.75-.504.514-2.345.514-2.85 0-.476-.486-.476-2.265 0-2.75z" style="fill:#c49e8f"/><path d="M49.967 60.706c-.803-.539-.763-2.449.061-2.957.78-.479 3.597-.426 4.351.086.801.535.762 2.447-.061 2.957-.78.48-3.598.424-4.351-.086z" style="fill:#d6a57c"/><path d="M43.816 51.046c-.46-.264-.44-1.191.03-1.438.445-.23 2.056-.201 2.487.049.46.262.44 1.189-.03 1.438-.444.232-2.054.199-2.487-.049z" style="fill:#c49e8f"/><path d="M44.199 56.249c.238-.555 1.764-1.234 2.366-1.049.564.172 1.194 1.449.97 1.975-.237.553-1.765 1.232-2.364 1.051-.57-.176-1.197-1.454-.972-1.977z" style="fill:#d6a57c"/><path d="M39.252 58.56c.558.346.635 1.688.119 2.078-.487.369-2.346.447-2.873.121-.557-.346-.634-1.688-.119-2.078.489-.369 2.348-.448 2.873-.121zm9.395.21c.586.363.668 1.775.125 2.186-.512.389-2.468.471-3.022.127-.585-.363-.667-1.773-.125-2.186.513-.386 2.468-.468 3.022-.127z" style="fill:#705041"/><path d="M47.97 53.231c.385-.674 1.79-.674 2.176 0 .363.639.363 2.977 0 3.613-.386.674-1.79.674-2.175 0-.364-.638-.364-2.974 0-3.613zm-2.089-1.539c.792-.127 1.661.928 1.348 1.627-.298.664-2.216 2.1-2.963 2.217-.79.127-1.66-.928-1.346-1.629.299-.662 2.214-2.095 2.961-2.215z" style="fill:#b47d56"/><path d="M7.24 50.995c-1.416.152-1.406.809-1.682.959-.277.15-2.12.477-2.258 1.008-.14.527.41 1.508-.035 1.512-1.762.011.13.955-.586 1.232-2.271.883 1.922 1.361 1.727 2.004-.486 1.594 2.904.223 3.295.789.65.943 2.363-1.625 3.155-1.373 1.268.404 2.592-1.848 1.014-2.049-.793-.102 2.014-1.154-1.475-2.445-.782-.289-1.022-1.863-3.155-1.637z" style="fill:#ff8fa8"/><path d="M7.572 57.071c-.504-1.398-.221-3.498-.221-3.498s-.465 1.578-.215 3.59c-1.363-.607-2.402-2.424-2.402-2.424s.789 1.895 2.436 3.096c0 .506-.023 3.785-.023 3.785h.703s-.164-3.322-.162-3.838c.629-1.58 2.27-2.879 2.27-2.879s-1.393.672-2.386 2.168z" style="fill:#785647"/><path d="M11.68 44.429c2.563.248 2.543 1.334 3.043 1.584s3.832.791 4.082 1.666-.742 2.494.063 2.5c3.188.02-.238 1.58 1.057 2.041 4.109 1.459-3.473 2.25-3.119 3.313.877 2.637-5.254.369-5.96 1.309-1.175 1.559-4.27-2.689-5.707-2.271-2.291.668-4.686-3.059-1.832-3.391 1.436-.168-3.64-1.908 2.666-4.043 1.417-.48 1.85-3.083 5.707-2.708z" style="fill:#ffa8c3"/><path d="M11.08 54.476c.913-2.313.4-5.783.4-5.783s.84 2.609.388 5.938c2.465-1.006 4.344-4.01 4.344-4.01s-1.426 3.135-4.404 5.121c0 .836.041 6.258.041 6.258h-1.27s.295-5.494.295-6.346c-1.14-2.613-4.104-4.762-4.104-4.762s2.51 1.111 4.31 3.584z" style="fill:#785647"/><path d="M57.23 51.452c1.292.148 1.282.801 1.533.951.252.15 1.93.475 2.057 1s-.375 1.496.031 1.5c1.605.012-.12.949.531 1.227 2.07.875-1.748 1.35-1.57 1.986.441 1.584-2.645.223-3.001.785-.592.938-2.152-1.613-2.875-1.361-1.154.4-2.361-1.836-.922-2.035.723-.102-1.834-1.146 1.342-2.428.713-.287.934-1.849 2.874-1.625z" style="fill:#ffa8c3"/><path d="M56.928 57.483c.462-1.389.202-3.471.202-3.471s.423 1.564.194 3.563c1.243-.604 2.19-2.406 2.19-2.406s-.72 1.881-2.22 3.074c0 .5.022 3.756.022 3.756h-.642s.149-3.299.149-3.809c-.574-1.57-2.068-2.859-2.068-2.859s1.267.668 2.173 2.152z" style="fill:#785647"/><path d="M53.894 44.429c-2.146.248-2.131 1.334-2.551 1.584-.418.25-3.21.791-3.42 1.666-.21.875.623 2.494-.051 2.5-2.672.02.199 1.58-.887 2.041-3.44 1.459 2.91 2.25 2.613 3.313-.734 2.637 4.402.369 4.994 1.309.984 1.559 3.577-2.689 4.782-2.271 1.918.668 3.924-3.059 1.533-3.391-1.2-.168 3.05-1.908-2.232-4.043-1.186-.48-1.55-3.083-4.781-2.708z" style="fill:#ff8fa8"/><path d="M54.397 54.476c-.766-2.313-.336-5.783-.336-5.783s-.703 2.609-.326 5.938c-2.064-1.006-3.64-4.01-3.64-4.01s1.196 3.135 3.69 5.121c0 .836-.033 6.258-.033 6.258h1.063s-.246-5.494-.246-6.346c.955-2.613 3.438-4.762 3.438-4.762s-2.104 1.111-3.61 3.584z" style="fill:#785647"/><path d="M60.098 60.731c.23-.568-1.818-1.107-2.666-.383-.508-.455-2.604-.338-2.671.264-.248-.547-1.854-.656-2.26-.102-.643-.547-3.111-.229-3.313.346-.941-.449-1.984-.264-2.502.234-.277-.191-.732-.342-1.482-.359.23-.568-1.818-1.107-2.666-.383-.506-.455-2.605-.338-2.672.264-.248-.547-1.854-.656-2.26-.102-.64-.547-3.11-.229-3.313.346-.867-.416-1.824-.287-2.37.125-.285-.137-.693-.234-1.291-.25.23-.568-1.818-1.107-2.666-.383-.506-.455-2.605-.338-2.672.264-.248-.547-1.854-.656-2.26-.102-.641-.547-3.11-.229-3.313.346-.94-.449-1.984-.264-2.5.234-.279-.191-.732-.342-1.482-.359.23-.568-1.82-1.107-2.668-.383-.506-.455-2.605-.338-2.67.264-.248-.547-1.855-.656-2.26-.102-.642-.547-3.112-.229-3.312.346-1.402-.67-3.037.07-2.807 1.143H61.98s.348-1.213-1.882-1.268z" style="fill:#7ab51d"/></svg>