<svg xmlns="http://www.w3.org/2000/svg" xml:space="preserve" style="enable-background:new 0 0 64 64" viewBox="0 0 64 64"><linearGradient id="a" x1="32" x2="32" y1="62" y2="23" gradientUnits="userSpaceOnUse"><stop offset=".909" style="stop-color:#e3cc9e"/><stop offset=".934" style="stop-color:#e0c99c"/><stop offset=".955" style="stop-color:#d6bf94"/><stop offset=".974" style="stop-color:#c5ae87"/><stop offset=".991" style="stop-color:#ad9676"/><stop offset="1" style="stop-color:#9e876b"/></linearGradient><path d="M3 23h58v39H3z" style="fill:url(#a)"/><linearGradient id="b" x1="46" x2="61" y1="42.5" y2="42.5" gradientUnits="userSpaceOnUse"><stop offset="0" style="stop-color:#2b2c2e;stop-opacity:.2"/><stop offset=".071" style="stop-color:#2b2c2e;stop-opacity:.1717"/><stop offset=".5" style="stop-color:#2b2c2e;stop-opacity:0"/></linearGradient><path d="M46 23h15v39H46z" style="fill:url(#b)"/><linearGradient id="c" x1="-484.516" x2="-469.516" y1="42.5" y2="42.5" gradientTransform="matrix(-1 0 0 1 -466.516 0)" gradientUnits="userSpaceOnUse"><stop offset="0" style="stop-color:#2b2c2e;stop-opacity:.2"/><stop offset=".071" style="stop-color:#2b2c2e;stop-opacity:.1717"/><stop offset=".5" style="stop-color:#2b2c2e;stop-opacity:0"/></linearGradient><path d="M3 23h15v39H3z" style="fill:url(#c)"/><path d="M48.474 27h10v8.329h-10z" style="fill:#b79c7c"/><path d="M48.974 27.5h9v7.329h-9z" style="fill:#1e7394"/><path d="M49.224 27.75h8.5v6.829h-8.5z" style="fill:#2a83a5"/><path d="M52.974 27.164h1v8h-1z" style="fill:#b79c7c"/><path d="M48.724 30.664h9.5v1h-9.5zM48.474 44h10v8.329h-10z" style="fill:#b79c7c"/><path d="M48.974 44.5h9v7.329h-9z" style="fill:#1e7394"/><path d="M49.224 44.75h8.5v6.829h-8.5z" style="fill:#2a83a5"/><path d="M52.974 44.164h1v8h-1z" style="fill:#b79c7c"/><path d="M48.724 47.664h9.5v1h-9.5zM5.526 27h10v8.329h-10z" style="fill:#b79c7c"/><path d="M6.026 27.5h9v7.329h-9z" style="fill:#1e7394"/><path d="M6.276 27.75h8.5v6.829h-8.5z" style="fill:#2a83a5"/><path d="M10.025 27.164h1v8h-1z" style="fill:#b79c7c"/><path d="M5.776 30.664h9.5v1h-9.5zM5.526 44h10v8.329h-10z" style="fill:#b79c7c"/><path d="M6.026 44.5h9v7.329h-9z" style="fill:#1e7394"/><path d="M6.276 44.75h8.5v6.829h-8.5z" style="fill:#2a83a5"/><path d="M10.025 44.164h1v8h-1z" style="fill:#b79c7c"/><path d="M5.776 47.664h9.5v1h-9.5z" style="fill:#b79c7c"/><path d="M58 15.833c-25.75 5.829-52 0-52 0L8 13h48l2 2.833z" style="fill:#d10000"/><path d="M60 19.137c-28.25 5.247-56 0-56 0l2-2.832h52l2 2.832z" style="fill:#d10000"/><path d="M6 15.833h52v.558H6zm-2 3.304h56v.558H4zM62 23H2v-.558s31.25-3.78 60 0V23z" style="fill:#ad0000"/><path d="M62 22.442H2l2-2.833h56z" style="fill:#d10000"/><path d="M30.875 6.43 14.5 21h35.017L33.125 6.43a1.689 1.689 0 0 0-2.25 0z" style="fill:red"/><linearGradient id="d" x1="32" x2="32" y1="22" y2="8.577" gradientUnits="userSpaceOnUse"><stop offset="0" style="stop-color:#e3cc9e"/><stop offset=".346" style="stop-color:#dcc599"/><stop offset=".855" style="stop-color:#c8b18a"/><stop offset="1" style="stop-color:#c1aa85"/></linearGradient><path d="M32 8.577 18 21v1h28v-1z" style="fill:url(#d)"/><path d="M32 9.577 18 22v40h28V22z" style="fill:#ffe8bb"/><path d="M23 41.998h18v16H23z" style="fill:#e3cc9e"/><linearGradient id="e" x1="32" x2="32" y1="41.999" y2="38.999" gradientUnits="userSpaceOnUse"><stop offset="0" style="stop-color:#c20000"/><stop offset=".307" style="stop-color:red"/></linearGradient><path d="M23 39s-2.237 1.306-2.718 2c-.148.213-.282 1-.282 1h24s-.134-.787-.282-1c-.48-.694-2.718-2-2.718-2H23z" style="fill:url(#e)"/><path d="M24.25 42.998h15.5v15h-15.5z" style="fill:#744727"/><path d="M24.75 43.498h7v14.5h-7zm7.5 0h7v14.5h-7z" style="fill:#9e6c49"/><path d="M30.932 52.124H25.57c-.427 0-.427-1 0-1h5.362c.424 0 .424 1 0 1zm7.5 0H33.07c-.427 0-.427-1 0-1h5.362c.424 0 .424 1 0 1z" style="fill:#b79c7c"/><path d="M33.25 45.373h5v4h-5z" style="fill:#2a83a5"/><path d="M33.25 45.373h5v.25h-5z" style="fill:#1e7394"/><path d="M25.75 45.373h5v4h-5z" style="fill:#2a83a5"/><path d="M25.75 45.373h5v.25h-5z" style="fill:#1e7394"/><circle cx="32" cy="26" r="8" style="fill:#ffb300"/><circle cx="32" cy="26" r="6.75" style="fill:#f08000"/><radialGradient id="f" cx="-.584" cy="6.081" r="7.818" gradientTransform="matrix(.9286 0 0 1.0137 32.543 21.212)" gradientUnits="userSpaceOnUse"><stop offset=".82" style="stop-color:#fff"/><stop offset=".861" style="stop-color:#fafafa"/><stop offset=".914" style="stop-color:#eaebec"/><stop offset=".972" style="stop-color:#d0d3d5"/><stop offset="1" style="stop-color:#c1c5c7"/></radialGradient><circle cx="32" cy="26" r="6.5" style="fill:url(#f)"/><linearGradient id="g" x1="30" x2="30" y1="27" y2="25" gradientUnits="userSpaceOnUse"><stop offset="0" style="stop-color:#23212b"/><stop offset="1" style="stop-color:#5b666e"/></linearGradient><path d="M27 26a1 1 0 0 0 1 1h4a1 1 0 1 0 0-2h-4a1 1 0 0 0-1 1z" style="fill:url(#g)"/><linearGradient id="h" x1="30.043" x2="33.957" y1="25.457" y2="21.543" gradientUnits="userSpaceOnUse"><stop offset="0" style="stop-color:#23212b"/><stop offset="1" style="stop-color:#5b666e"/></linearGradient><path d="M32 20a1 1 0 0 0-1 1v5a1 1 0 1 0 2 0v-5a1 1 0 0 0-1-1z" style="fill:url(#h)"/><path d="M45.656 61H18.344c-.436 0-.844.313-.844.654V62h29v-.346c0-.34-.408-.654-.844-.654z" style="fill:#cfd8dd"/><path d="M44.156 60H19.844c-.436 0-.844.313-.844.654V61h26v-.346c0-.34-.408-.654-.844-.654z" style="fill:#e6ebef"/><path d="M42.656 59H21.344c-.436 0-.844.313-.844.654V60h23v-.346c0-.34-.408-.654-.844-.654z" style="fill:#cfd8dd"/><path d="M41.156 58H22.844c-.436 0-.844.313-.844.654V59h20v-.346c0-.34-.408-.654-.844-.654z" style="fill:#e6ebef"/><path d="M58.435 59.076c-.938-.281-1.44.324-1.44.324-.31-.144-1.28-.054-1.342.765-.265.142-.64.62-.38.98-.87.16-.44.855-.44.855h6.911s.675-.606-.169-1.028c.188-.308-.203-1.095-.94-1.102.206-.18-.327-.462-.732-.499-.22-.436-.89-.64-1.468-.295z" style="fill:#7ab51d"/><path d="M52.903 57.253c-1.247-.457-1.915.525-1.915.525-.413-.234-1.702-.089-1.786 1.242-.352.229-.852 1.008-.507 1.592-1.156.26-.584 1.388-.584 1.388h9.197s.897-.983-.226-1.67c.25-.499-.27-1.776-1.25-1.788.274-.291-.436-.75-.975-.81-.292-.709-1.184-1.04-1.954-.48z" style="fill:#92c932"/><path d="M48.657 59.1c-.937-.279-1.44.32-1.44.32-.31-.142-1.278-.053-1.341.76-.266.14-.64.616-.38.972-.87.158-.44.848-.44.848h6.91s.676-.6-.168-1.02c.187-.304-.203-1.084-.94-1.092.205-.178-.328-.458-.732-.495-.22-.433-.89-.635-1.469-.292z" style="fill:#7ab51d"/><path d="M5.565 59.076c.938-.281 1.44.324 1.44.324.31-.144 1.28-.054 1.342.765.265.142.64.62.38.98.87.16.44.855.44.855H2.256s-.675-.606.169-1.028c-.188-.308.203-1.095.94-1.102-.206-.18.327-.462.732-.499.22-.436.89-.64 1.468-.295z" style="fill:#92c932"/><path d="M11.097 57.253a1.617 1.617 0 0 1 1.915.525c.413-.234 1.702-.089 1.786 1.242.352.229.852 1.008.507 1.592 1.156.26.584 1.388.584 1.388H6.692s-.897-.983.226-1.67c-.25-.499.27-1.776 1.25-1.788-.274-.291.436-.75.975-.81.292-.709 1.184-1.04 1.954-.48z" style="fill:#7ab51d"/><path d="M15.343 59.1c.937-.279 1.44.32 1.44.32.31-.142 1.278-.053 1.341.76.266.14.64.616.38.972.87.158.44.848.44.848h-6.91s-.676-.6.168-1.02c-.187-.304.203-1.084.94-1.092-.206-.178.328-.458.732-.495.22-.433.89-.635 1.469-.292z" style="fill:#92c932"/></svg>