<svg xmlns="http://www.w3.org/2000/svg" xml:space="preserve" style="enable-background:new 0 0 64 64" viewBox="0 0 64 64"><linearGradient id="a" x1="32" x2="32" y1="2" y2="62" gradientUnits="userSpaceOnUse"><stop offset="0" style="stop-color:#00abf1"/><stop offset=".229" style="stop-color:#00a7ef"/><stop offset=".467" style="stop-color:#009ae9"/><stop offset=".708" style="stop-color:#0086e0"/><stop offset=".95" style="stop-color:#0069d3"/><stop offset="1" style="stop-color:#0062d0"/></linearGradient><path d="M62 54c0 4.4-3.6 8-8 8H10c-4.4 0-8-3.6-8-8V10c0-4.4 3.6-8 8-8h44c4.4 0 8 3.6 8 8v44z" style="fill:url(#a)"/><path d="M2 19h60v26H2z" style="fill:#013366"/><path d="M14.52 23.81 7 40.19h3.61l1.57-3.64h7.64l1.56 3.64h3.57l-7.52-16.38h-2.91zm-1.15 10.01 2.65-6.14 2.63 6.14h-5.28zm10.55-7.09h5.14v13.46h3.63V26.73h5.13v-2.92h-13.9zm30.25-2.92-5.26 12.06-5.28-12.06h-2.85v16.38h3.15v-8.83l3.8 8.83h2.32l3.76-8.91.01 8.91H57V23.81z" style="fill:#fff"/></svg>