<svg xmlns="http://www.w3.org/2000/svg" xml:space="preserve" style="enable-background:new 0 0 64 64" viewBox="0 0 64 64"><path d="M3 13h58v51H3z" style="fill:#cfd8dd"/><path d="M3 16h58v8H3z" style="fill:#1e7394"/><path d="M3 16.25h58v7.5H3z" style="fill:#2a83a5"/><path d="M58.177 16h-4.855l-7.5 8h4.855zm-36.486 0h-2.882l-7.5 8h2.882zm-6.699 0h-3.96l-7.5 8h3.96z" style="opacity:.3;fill:#339ec7"/><path d="M3 26h58v8H3z" style="fill:#1e7394"/><path d="M3 26.25h58v7.5H3z" style="fill:#2a83a5"/><path d="M60.276 26h-3.99l-7.5 8h3.99zm-46.894 0H10.5L3 34h2.882z" style="opacity:.3;fill:#339ec7"/><path d="M3 36h58v8H3z" style="fill:#1e7394"/><path d="M3 36.25h58v7.5H3z" style="fill:#2a83a5"/><path d="M59.722 36H56.84l-7.5 8h2.882zM18 36h-5.574l-7.5 8H10.5z" style="opacity:.3;fill:#339ec7"/><path d="M3 52h58v8H3z" style="fill:#1e7394"/><path d="M3 52.25h58v7.5H3z" style="fill:#2a83a5"/><path d="M60.506 52h-4.388l-7.5 8h4.388zm-45.315 0h-2.882l-7.5 8h2.882z" style="opacity:.3;fill:#339ec7"/><path d="M2.5 12h59v1h-59z" style="fill:#b3c2c6"/><path d="M2 10h60v2H2zm0 36h60v3H2z" style="fill:#4e5e67"/><path d="M2.5 49h59v1h-59z" style="fill:#b3c2c6"/><linearGradient id="a" x1="47" x2="61" y1="37" y2="37" gradientUnits="userSpaceOnUse"><stop offset="0" style="stop-color:#2b2c2e;stop-opacity:.3"/><stop offset=".141" style="stop-color:#2b2c2e;stop-opacity:.2576"/><stop offset="1" style="stop-color:#2b2c2e;stop-opacity:0"/></linearGradient><path d="M47 10h14v54H47z" style="fill:url(#a)"/><linearGradient id="b" x1="-483.516" x2="-469.516" y1="37" y2="37" gradientTransform="matrix(-1 0 0 1 -466.516 0)" gradientUnits="userSpaceOnUse"><stop offset="0" style="stop-color:#2b2c2e;stop-opacity:.3"/><stop offset=".141" style="stop-color:#2b2c2e;stop-opacity:.2576"/><stop offset="1" style="stop-color:#2b2c2e;stop-opacity:0"/></linearGradient><path d="M3 10h14v54H3z" style="fill:url(#b)"/><path d="M17 4h30v60H17z" style="fill:#e6ebef"/><path d="M16.5 3h31v1h-31z" style="fill:#b3c2c6"/><path d="M16 0h32v3H16zm0 46h32v3H16z" style="fill:#5d6e75"/><path d="M16.5 49h31v1h-31z" style="fill:#b3c2c6"/><path d="M17 16h30v8H17z" style="fill:#1e7394"/><path d="M17 16.25h30v7.5H17z" style="fill:#2a83a5"/><path d="M46.054 16h-2.882l-7.5 8h2.882zm-11.32 0h-5.191l-7.5 8h5.19z" style="opacity:.3;fill:#339ec7"/><path d="M17 26h30v8H17z" style="fill:#1e7394"/><path d="M17 26.25h30v7.5H17z" style="fill:#2a83a5"/><path d="M37.721 26h-2.882l-7.5 8h2.882zm-11.386 0h-5.19L17 30.42V34h1.835zM47 26h-2.078l-7.5 8h5.191L47 29.32z" style="opacity:.3;fill:#339ec7"/><path d="M17 6h30v8H17z" style="fill:#1e7394"/><path d="M17 6.25h30v7.5H17z" style="fill:#2a83a5"/><path d="M30.267 6h-2.882l-7.5 8h2.882zm12.791 0h-5.191l-7.5 8h5.19z" style="opacity:.3;fill:#339ec7"/><path d="M17 36h30v8H17z" style="fill:#1e7394"/><path d="M17 36.25h30v7.5H17z" style="fill:#2a83a5"/><path d="M41.873 36h-5.191l-7.5 8h5.19zm-12.615 0h-2.882l-7.5 8h2.882z" style="opacity:.3;fill:#339ec7"/><path d="M49.525 60.698c-.891-.319-1.368.365-1.368.365-.295-.163-1.217-.062-1.276.864-.253.16-.61.702-.362 1.107-.827.18-.418.966-.418.966h6.571s.642-.684-.16-1.162c.178-.347-.193-1.236-.894-1.244.195-.202-.312-.522-.696-.564-.21-.493-.847-.724-1.397-.332zm9.085.595c-.891-.26-1.368.3-1.368.3-.296-.134-1.217-.05-1.276.708-.253.131-.61.574-.362.908-.827.147-.418.791-.418.791h6.571s.641-.562-.16-.952c.178-.285-.194-1.014-.894-1.02.195-.167-.312-.427-.696-.462-.21-.404-.847-.592-1.397-.273z" style="fill:#7ab51d"/><path d="M54.068 61.316c-.892-.259-1.369.297-1.369.297-.295-.133-1.216-.05-1.275.702-.253.129-.61.57-.363.9-.826.146-.418.785-.418.785h6.572s.641-.556-.161-.945c.178-.28-.193-1.003-.893-1.01.194-.165-.312-.425-.697-.46-.21-.4-.846-.586-1.396-.269z" style="fill:#92c932"/><path d="M14.475 60.698c.891-.319 1.368.365 1.368.365.295-.163 1.217-.062 1.276.864.253.16.61.702.362 1.107.826.18.418.966.418.966h-6.571s-.642-.684.16-1.162c-.178-.347.193-1.236.894-1.244-.195-.202.312-.522.696-.564.21-.493.847-.724 1.397-.332zm-9.085.595c.891-.26 1.368.3 1.368.3.296-.134 1.217-.05 1.276.708.253.131.61.574.362.908.827.147.418.791.418.791H2.243s-.641-.562.16-.952c-.178-.285.194-1.014.894-1.02-.195-.167.312-.427.696-.462.21-.404.847-.592 1.397-.273z" style="fill:#7ab51d"/><path d="M9.932 61.316c.892-.259 1.369.297 1.369.297.295-.133 1.216-.05 1.275.702.253.129.61.57.363.9.826.146.418.785.418.785H6.785s-.641-.556.16-.945c-.177-.28.194-1.003.894-1.01-.195-.165.312-.425.697-.46.21-.4.846-.586 1.396-.269z" style="fill:#92c932"/><path d="M23 51h18v13H23z" style="fill:#99a8ae"/><path d="M24.25 52h15.5v12h-15.5z" style="fill:#4a4f54"/><path d="M24.75 52.5h7V64h-7zm7.5 0h7V64h-7z" style="fill:#2a83a5"/><path d="M32.25 52.5h7v.25h-7z" style="fill:#1e7394"/><path d="M38.738 52.5h-2.882l-3.606 3.606v2.882z" style="opacity:.3;fill:#339ec7"/><path d="M24.75 52.5h7v.25h-7z" style="fill:#1e7394"/><path d="M31.516 52.5h-2.938l-3.828 3.828v2.938z" style="opacity:.3;fill:#339ec7"/></svg>