<svg xmlns="http://www.w3.org/2000/svg" xml:space="preserve" style="enable-background:new 0 0 64 64" viewBox="0 0 64 64"><path d="M42.734 49.783c1.586 3.308-1.438 4.288-3.025.98-.924-1.93-.823-5.362-.823-5.362s2.923 2.452 3.848 4.382z" style="fill:#cfd8dd"/><path d="M38.922 44.959c4.81 10.039 4.384 10.177-.427.138-4.252-8.871-3.825-9.009.427-.139z" style="fill:#e6ebef"/><path d="M45.103 48.066c2.22 3.011-.39 4.682-2.61 1.672-1.294-1.756-1.964-5.269-1.964-5.269s3.28 1.843 4.574 3.597z" style="fill:#bec3cf"/><path d="M40.464 44.012c6.734 9.134 6.368 9.37-.369.236-5.951-8.07-5.583-8.307.369-.236z" style="fill:#e6ebef"/><path d="M44.61 48.4c2.658 2.66 4.834.484 2.174-2.175-1.55-1.55-5.001-2.826-5.001-2.826s1.276 3.452 2.826 5.002z" style="fill:#cfd8dd"/><path d="M41.33 43.252c8.065 8.066 8.371 7.759.306-.306-7.127-7.127-7.433-6.82-.306.306z" style="fill:#e6ebef"/><path d="M48.165 44.352c3.31 1.585 4.29-1.44.982-3.026-1.93-.925-5.363-.823-5.363-.823s2.452 2.923 4.381 3.85z" style="fill:#cfd8dd"/><path d="M43.342 40.538c10.039 4.811 10.177 4.385.138-.426-8.87-4.253-9.008-3.826-.138.426z" style="fill:#e6ebef"/><path d="M46.45 46.721c3.01 2.219 4.681-.392 1.672-2.611-1.756-1.295-5.268-1.964-5.268-1.964s1.841 3.28 3.596 4.575z" style="fill:#bec3cf"/><path d="M42.397 42.08c9.133 6.735 9.368 6.368.234-.368-8.07-5.952-8.306-5.583-.234.368z" style="fill:#e6ebef"/><path d="M43.24 39.998a27.377 27.377 0 0 1-4.858 4.859l.305.637a27.342 27.342 0 0 0 5.19-5.192l-.637-.304zm-1.453-.692a27.278 27.278 0 0 1-4.098 4.098l.305.643a27.367 27.367 0 0 0 4.437-4.437l-.644-.304z" style="fill:#cfd8dd"/><radialGradient id="a" cx="287.831" cy="74.221" r="2.727" gradientTransform="matrix(.7071 .70712 -1.03833 1.0383 -88.71 -243.127)" gradientUnits="userSpaceOnUse"><stop offset="0" style="stop-color:#d5dee3"/><stop offset=".297" style="stop-color:#d1dbe0"/><stop offset=".583" style="stop-color:#c6d1d7"/><stop offset=".863" style="stop-color:#b2c0c7"/><stop offset="1" style="stop-color:#a6b6bd"/></radialGradient><path d="m36.019 41.394.571.572c2.894-1.462 3.76-3.76 3.76-3.76l-.571-.571c-2.507-2.508-6.268 1.253-3.76 3.76z" style="fill:url(#a)"/><radialGradient id="b" cx="37.336" cy="44.673" r="2.274" gradientTransform="translate(1.529 -4.192)" gradientUnits="userSpaceOnUse"><stop offset="0" style="stop-color:#ff000e"/><stop offset=".234" style="stop-color:#fa000d"/><stop offset=".501" style="stop-color:#ec000a"/><stop offset=".784" style="stop-color:#d60005"/><stop offset="1" style="stop-color:#bf0000"/></radialGradient><path d="M40.35 38.207a17.005 17.005 0 0 1-3.76 3.76c.263.263.525.526.79.788a17.013 17.013 0 0 0 3.759-3.76l-.79-.788z" style="fill:url(#b)"/><linearGradient id="c" x1="273.332" x2="278.974" y1="75.066" y2="75.066" gradientTransform="rotate(45.001 170.131 -256.066)" gradientUnits="userSpaceOnUse"><stop offset="0" style="stop-color:#4e585e"/><stop offset=".299" style="stop-color:#3e414c"/><stop offset=".533" style="stop-color:#302c3b"/></linearGradient><path d="M6.393 61.515s.69-1.658 1.108-2.076l8.496-8.496 3.273-4.067-2.145-2.146-4.067 3.273L4.562 56.5c-.418.418-2.076 1.108-2.076 1.108-.537.26-.646.807-.242 1.209l2.94 2.939c.405.404.948.295 1.21-.241z" style="fill:url(#c)"/><path d="m11.514 49.547-.772.772 4.483 1.396zm-1.545 1.546-.772.772 4.482 1.393zm-1.546 1.546-.77.77 4.482 1.395zM6.88 54.182l-.773.773 4.483 1.395zm-1.545 1.545-.773.773 4.484 1.394z" style="fill:#1a1626"/><linearGradient id="d" x1="213.619" x2="213.619" y1="434.996" y2="407.665" gradientTransform="rotate(45.001 585.703 4.498)" gradientUnits="userSpaceOnUse"><stop offset="0" style="stop-color:#00a4ff"/><stop offset=".239" style="stop-color:#0087cf"/><stop offset=".468" style="stop-color:#0070a8"/><stop offset=".678" style="stop-color:#00608c"/><stop offset=".862" style="stop-color:#00567b"/><stop offset="1" style="stop-color:#005275"/></linearGradient><path d="M21.895 43.335c4.16-5.033 16.433-16.05 16.433-16.05l-1.609-1.611S25.7 37.944 20.665 42.106c-.849.701-3.54 2.623-3.54 2.623l2.145 2.146s1.923-2.69 2.625-3.54z" style="fill:url(#d)"/><path d="M46.488.498h.445v28.544h-.445z" style="fill:#dadfe3" transform="rotate(44.984 46.71 14.768)"/><path d="M45.229-.197h.445v27.415h-.445z" style="fill:#dadfe3" transform="rotate(45.009 45.453 13.51)"/><path d="M43.969-.455h.445v25.411h-.445z" style="fill:#dadfe3" transform="rotate(45.001 44.192 12.25)"/><path d="M42.709-.148h.445v22.277h-.445z" style="fill:#dadfe3" transform="rotate(45.009 42.933 10.991)"/><path d="M41.45.825h.445v17.813h-.445z" style="fill:#dadfe3" transform="rotate(45.001 41.673 9.731)"/><path d="M47.748 1.583h.445v28.892h-.445z" style="fill:#dadfe3" transform="rotate(-134.999 47.97 16.03)"/><path d="M49.007 3.017h.445v28.544h-.445z" style="fill:#dadfe3" transform="rotate(-134.991 49.23 17.29)"/><path d="M50.267 4.841h.445v27.415h-.445z" style="fill:#dadfe3" transform="rotate(-135.008 50.49 18.548)"/><path d="M51.526 7.103h.445v25.411h-.445z" style="fill:#dadfe3" transform="rotate(-134.991 51.749 19.809)"/><path d="M52.786 9.929h.445v22.277h-.445z" style="fill:#dadfe3" transform="rotate(-134.991 53.008 21.068)"/><path d="M54.046 13.421h.445v17.813h-.445z" style="fill:#dadfe3" transform="rotate(-134.991 54.268 22.328)"/><path d="M49.007 3.729h.445V25.81h-.445z" style="fill:#dadfe3" transform="rotate(134.991 49.23 14.77)"/><path d="M50.267 2.803h.445v21.414h-.445z" style="fill:#dadfe3" transform="rotate(134.999 50.49 13.51)"/><path d="M51.526 2.138h.445v20.225h-.445z" style="fill:#dadfe3" transform="rotate(134.999 51.75 12.25)"/><path d="M52.786 1.296h.445v19.389h-.445z" style="fill:#dadfe3" transform="rotate(134.999 53.009 10.99)"/><path d="M54.046.825h.445v17.813h-.445z" style="fill:#dadfe3" transform="rotate(134.983 54.268 9.73)"/><path d="M55.305.62h.445v15.703h-.445z" style="fill:#dadfe3" transform="rotate(134.999 55.528 8.472)"/><path d="M47.748 4.989h.445V27.07h-.445z" style="fill:#dadfe3" transform="rotate(-44.992 47.97 16.03)"/><path d="M46.488 6.248h.445v22.081h-.445z" style="fill:#dadfe3" transform="rotate(-45.001 46.71 17.29)"/><path d="M45.229 7.841h.445v21.415h-.445z" style="fill:#dadfe3" transform="rotate(-44.992 45.45 18.55)"/><path d="M43.969 9.696h.445v20.225h-.445z" style="fill:#dadfe3" transform="rotate(-45.009 44.193 19.809)"/><path d="M42.709 11.373h.445v19.389h-.445z" style="fill:#dadfe3" transform="rotate(-44.992 42.931 21.068)"/><path d="M41.45 13.421h.445v17.813h-.445z" style="fill:#dadfe3" transform="rotate(-45.001 41.673 22.328)"/><path d="M40.19 15.735h.445v15.703h-.445z" style="fill:#dadfe3" transform="rotate(-45.001 40.413 23.588)"/><linearGradient id="e" x1="125.805" x2="125.805" y1="219.063" y2="188.004" gradientTransform="rotate(45.001 313.224 15.824)" gradientUnits="userSpaceOnUse"><stop offset=".519" style="stop-color:#005275"/><stop offset=".582" style="stop-color:#005377"/><stop offset=".605" style="stop-color:#00577e"/><stop offset=".621" style="stop-color:#005e89"/><stop offset=".634" style="stop-color:#00689a"/><stop offset=".646" style="stop-color:#0075b0"/><stop offset=".656" style="stop-color:#0085cc"/><stop offset=".664" style="stop-color:#0098eb"/><stop offset=".669" style="stop-color:#00a4ff"/></linearGradient><path d="M61.56 15.87c.752-2.994.912-7.3-2.605-10.817l-.004-.004C55.432 1.53 51.124 1.688 48.129 2.44c-3.44.865-6.63 2.902-8.267 4.538-5.281 5.282-9.203 13.698-2.87 20.033 6.332 6.332 14.746 2.41 20.029-2.872 1.636-1.637 3.674-4.827 4.538-8.268zm-23.4 9.971c-5.524-5.527-1.955-13.019 2.78-17.754 1.471-1.471 4.35-3.305 7.466-4.088 2.608-.656 6.354-.8 9.375 2.222 3.02 3.019 2.875 6.763 2.219 9.372-.783 3.116-2.618 5.996-4.09 7.467-4.734 4.735-12.224 8.305-17.75 2.781z" style="fill:url(#e)"/></svg>