<svg xmlns="http://www.w3.org/2000/svg" xml:space="preserve" style="enable-background:new 0 0 64 64" viewBox="0 0 64 64"><linearGradient id="a" x1="4" x2="62" y1="24.341" y2="24.341" gradientUnits="userSpaceOnUse"><stop offset="0" style="stop-color:#e7edf2"/><stop offset=".164" style="stop-color:#ecf1f5"/><stop offset=".5" style="stop-color:#f0f4f7"/><stop offset=".836" style="stop-color:#ecf1f5"/><stop offset="1" style="stop-color:#e7edf2"/></linearGradient><path d="M62 42.27c-19.33-7.17-38.67 7.17-58 0V6.41c19.33 7.17 38.67-7.17 58 0v35.86z" style="fill:url(#a)"/><linearGradient id="b" x1="3.5" x2="6.5" y1="35.349" y2="35.349" gradientUnits="userSpaceOnUse"><stop offset="0" style="stop-color:#9ca4a6"/><stop offset=".076" style="stop-color:#b6bec0"/><stop offset=".169" style="stop-color:#ced6d8"/><stop offset=".267" style="stop-color:#dfe7e9"/><stop offset=".373" style="stop-color:#eaf1f4"/><stop offset=".5" style="stop-color:#edf4f7"/><stop offset="1" style="stop-color:#9ca4a6"/></linearGradient><path d="M3.5 7.05v56.21c0 .99 3 .99 3 0V7.05c0-.47-3-.47-3 0z" style="fill:url(#b)"/><radialGradient id="c" cx="4.25" cy="2" r="3.846" gradientUnits="userSpaceOnUse"><stop offset="0" style="stop-color:#edf4f7"/><stop offset=".191" style="stop-color:#e7eef1"/><stop offset=".457" style="stop-color:#d5dcdf"/><stop offset=".766" style="stop-color:#b7bfc1"/><stop offset="1" style="stop-color:#9ca4a6"/></radialGradient><circle cx="5" cy="3" r="3" style="fill:url(#c)"/><linearGradient id="d" x1="3.958" x2="6.042" y1="6.517" y2="6.517" gradientUnits="userSpaceOnUse"><stop offset="0" style="stop-color:#9ca4a6"/><stop offset=".022" style="stop-color:#a2aaac"/><stop offset=".126" style="stop-color:#bac2c4"/><stop offset=".237" style="stop-color:#cbd3d5"/><stop offset=".356" style="stop-color:#d5dde0"/><stop offset=".5" style="stop-color:#d8e0e3"/><stop offset="1" style="stop-color:#9ca4a6"/></linearGradient><path d="M3.96 5.82v1.16c0 .31 2.08.31 2.08 0V5.82H3.96z" style="fill:url(#d)"/></svg>