<svg xmlns="http://www.w3.org/2000/svg" xml:space="preserve" style="enable-background:new 0 0 64 64" viewBox="0 0 64 64"><path d="M9.64 12h44.71C48.86 5.86 40.88 2 32 2S15.14 5.86 9.64 12z" style="fill:red"/><path d="M3.71 22h56.57a30.077 30.077 0 0 0-5.93-10H9.64a30.077 30.077 0 0 0-5.93 10z" style="fill:#ff8200"/><path d="M2 32h60c0-3.51-.61-6.87-1.71-10H3.71C2.61 25.13 2 28.49 2 32z" style="fill:#fff300"/><path d="M3.71 42h56.57A29.84 29.84 0 0 0 62 32H2c0 3.51.61 6.87 1.71 10z" style="fill:#22cb41"/><path d="M9.64 52h44.71c2.58-2.89 4.61-6.27 5.93-10H3.71c1.32 3.73 3.35 7.11 5.93 10z" style="fill:#00f"/><path d="M54.36 52H9.64c5.5 6.14 13.48 10 22.36 10s16.86-3.86 22.36-10z" style="fill:#9400d3"/><linearGradient id="a" x1="32" x2="32" y1="62" y2="2" gradientUnits="userSpaceOnUse"><stop offset="0" style="stop-color:#1a1a1a"/><stop offset=".102" style="stop-color:#393939;stop-opacity:.949"/><stop offset=".347" style="stop-color:#7f7f7f;stop-opacity:.8262"/><stop offset=".569" style="stop-color:#b6b6b6;stop-opacity:.7156"/><stop offset=".758" style="stop-color:#dedede;stop-opacity:.6209"/><stop offset=".908" style="stop-color:#f6f6f6;stop-opacity:.5459"/><stop offset="1" style="stop-color:#fff;stop-opacity:.5"/></linearGradient><circle cx="32" cy="32" r="30" style="opacity:.1;fill:url(#a)"/></svg>