<svg xmlns="http://www.w3.org/2000/svg" xml:space="preserve" style="enable-background:new 0 0 64 64" viewBox="0 0 64 64"><linearGradient id="a" x1="4" x2="62" y1="24.341" y2="24.341" gradientUnits="userSpaceOnUse"><stop offset="0" style="stop-color:#303136"/><stop offset=".5" style="stop-color:#575961"/><stop offset=".888" style="stop-color:#303136"/><stop offset=".948" style="stop-color:#323338"/><stop offset=".969" style="stop-color:#38393f"/><stop offset=".985" style="stop-color:#43444a"/><stop offset=".997" style="stop-color:#52545b"/><stop offset="1" style="stop-color:#575961"/></linearGradient><path d="M62 42.272c-19.334-7.172-38.667 7.171-58 0V6.41c19.333 7.172 38.666-7.172 58 0v35.862z" style="fill:url(#a)"/><path d="M4 6.41v1.156c19.333 7.172 38.666-7.171 58 0V6.41c-19.334-7.172-38.667 7.172-58 0z" style="fill:#70727d"/><path d="M4 41.115v1.156c19.333 7.172 38.666-7.171 58 0v-1.156c-19.334-7.172-38.667 7.172-58 0z" style="fill:#303136"/><linearGradient id="b" x1="3.5" x2="6.5" y1="35.349" y2="35.349" gradientUnits="userSpaceOnUse"><stop offset="0" style="stop-color:#9ca4a6"/><stop offset=".076" style="stop-color:#b6bec0"/><stop offset=".169" style="stop-color:#ced6d8"/><stop offset=".267" style="stop-color:#dfe7e9"/><stop offset=".373" style="stop-color:#eaf1f4"/><stop offset=".5" style="stop-color:#edf4f7"/><stop offset="1" style="stop-color:#9ca4a6"/></linearGradient><path d="M3.5 7.05v56.208c0 .988 3 .99 3 .002V7.053c0-.471-3-.473-3-.002z" style="fill:url(#b)"/><radialGradient id="c" cx="4.25" cy="2" r="3.846" gradientUnits="userSpaceOnUse"><stop offset="0" style="stop-color:#edf4f7"/><stop offset=".191" style="stop-color:#e7eef1"/><stop offset=".457" style="stop-color:#d5dcdf"/><stop offset=".766" style="stop-color:#b7bfc1"/><stop offset="1" style="stop-color:#9ca4a6"/></radialGradient><circle cx="5" cy="3" r="3" style="fill:url(#c)"/><linearGradient id="d" x1="3.958" x2="6.042" y1="6.517" y2="6.517" gradientUnits="userSpaceOnUse"><stop offset="0" style="stop-color:#9ca4a6"/><stop offset=".022" style="stop-color:#a2aaac"/><stop offset=".126" style="stop-color:#bac2c4"/><stop offset=".237" style="stop-color:#cbd3d5"/><stop offset=".356" style="stop-color:#d5dde0"/><stop offset=".5" style="stop-color:#d8e0e3"/><stop offset="1" style="stop-color:#9ca4a6"/></linearGradient><path d="M3.958 5.822V6.98c0 .31 2.084.312 2.084 0V5.822H3.958z" style="fill:url(#d)"/></svg>