<svg xmlns="http://www.w3.org/2000/svg" xml:space="preserve" style="enable-background:new 0 0 64 64" viewBox="0 0 64 64"><path d="m2.49 6.05.65.07 7.9 45.35-.47.47z" style="fill:#cfd8dd"/><linearGradient id="a" x1="-58.29" x2="-58.29" y1="259.296" y2="233.809" gradientTransform="rotate(45.001 268.751 226.763)" gradientUnits="userSpaceOnUse"><stop offset="0" style="stop-color:#4a2f24"/><stop offset=".201" style="stop-color:#5f4034"/><stop offset=".513" style="stop-color:#7b5748"/><stop offset=".79" style="stop-color:#8b6454"/><stop offset="1" style="stop-color:#916958"/></linearGradient><path d="m45.24 13.21-3.55 3.55C23.55-1.37 19.06 17.06 2.78 6.7c-1.53-.97-.47-1.79.27-1.19 11.5 9.22 21.81-12.67 42.19 7.7z" style="fill:url(#a)"/><path d="m57.97 61.51-.07-.65-45.37-7.9-.47.47z" style="fill:#cfd8dd"/><linearGradient id="b" x1="123.946" x2="127.946" y1="51.662" y2="51.662" gradientTransform="rotate(45.001 79.708 -85.164)" gradientUnits="userSpaceOnUse"><stop offset="0" style="stop-color:#ff000e"/><stop offset="1" style="stop-color:#cf0000"/></linearGradient><path d="m11.22 51.53 11.69-11.68c-6.99 1.04-14.9 5.92-11.69 11.68z" style="fill:url(#b)"/><linearGradient id="c" x1="129.714" x2="133.714" y1="51.661" y2="51.661" gradientTransform="rotate(45.001 79.708 -85.164)" gradientUnits="userSpaceOnUse"><stop offset="0" style="stop-color:#ff000e"/><stop offset="1" style="stop-color:#cf0000"/></linearGradient><path d="M24.16 41.1 12.48 52.79c5.76 3.21 10.64-4.7 11.68-11.69z" style="fill:url(#c)"/><linearGradient id="d" x1="-14.449" x2="-14.449" y1="259.281" y2="233.807" gradientTransform="rotate(45.001 268.751 226.763)" gradientUnits="userSpaceOnUse"><stop offset="0" style="stop-color:#4a2f24"/><stop offset=".201" style="stop-color:#5f4034"/><stop offset=".513" style="stop-color:#7b5748"/><stop offset=".79" style="stop-color:#8b6454"/><stop offset="1" style="stop-color:#916958"/></linearGradient><path d="m50.8 18.78-3.55 3.54c18.14 18.13-.3 22.63 10.07 38.9.97 1.53 1.79.48 1.19-.27-9.22-11.49 12.67-21.8-7.71-42.17z" style="fill:url(#d)"/><linearGradient id="e" x1="-36.367" x2="-36.367" y1="238.822" y2="233.806" gradientTransform="rotate(45.001 268.751 226.763)" gradientUnits="userSpaceOnUse"><stop offset=".121" style="stop-color:#e6b53c"/><stop offset=".221" style="stop-color:#e9ba44"/><stop offset=".727" style="stop-color:#f8ce67"/><stop offset="1" style="stop-color:#fdd674"/></linearGradient><path d="m45.24 13.21-3.54 3.55 5.56 5.56 3.54-3.54z" style="fill:url(#e)"/><path d="M43.74 15.64h5.02v4.26h-5.02z" style="fill:#785647" transform="rotate(-44.976 46.25 17.768)"/><linearGradient id="f" x1="-37.432" x2="-35.308" y1="255.879" y2="255.879" gradientTransform="rotate(45.001 268.751 226.763)" gradientUnits="userSpaceOnUse"><stop offset=".164" style="stop-color:#eaa467"/><stop offset=".319" style="stop-color:#e49f62"/><stop offset=".526" style="stop-color:#d39155"/><stop offset=".761" style="stop-color:#b8793f"/><stop offset="1" style="stop-color:#945b23"/></linearGradient><path d="M10.38 52.13 53.34 9.18l1.5 1.5-42.97 42.94c-.22.22-.73.06-1.14-.35-.41-.41-.56-.93-.35-1.14z" style="fill:url(#f)"/><linearGradient id="g" x1="66.125" x2="68.983" y1="10.229" y2="13.086" gradientTransform="translate(-8.727 -3.626)" gradientUnits="userSpaceOnUse"><stop offset="0" style="stop-color:#99a8ae"/><stop offset="1" style="stop-color:#cfd8dd"/></linearGradient><path d="m62 2-8.22 8.22 1.87 3.84z" style="fill:url(#g)"/><linearGradient id="h" x1="-11.615" x2="-8.757" y1="-67.511" y2="-64.653" gradientTransform="matrix(0 -1 -1 0 -10.114 -5.013)" gradientUnits="userSpaceOnUse"><stop offset="0" style="stop-color:#cfd8dd"/><stop offset="1" style="stop-color:#99a8ae"/></linearGradient><path d="m49.94 8.35 3.84 1.87L62 2z" style="fill:url(#h)"/></svg>