<svg xmlns="http://www.w3.org/2000/svg" xml:space="preserve" style="enable-background:new 0 0 64 64" viewBox="0 0 64 64"><path d="M53.13 10.7C41.43-.9 22.57-.9 10.87 10.7L32 26.95 53.13 10.7zM10.87 53.3c11.7 11.6 30.56 11.6 42.26 0L32 37.05 10.87 53.3zm47.14-6.34c5.32-9.23 5.32-20.69 0-29.92L38.56 32l19.45 14.96zM5.99 17.04c-5.32 9.23-5.32 20.69 0 29.92L25.44 32 5.99 17.04z" style="fill:#0058bd"/><path d="M53.13 10.7 32 26.95 10.87 10.7a30.171 30.171 0 0 0-4.88 6.34L25.44 32 5.99 46.96c1.34 2.33 2.98 4.46 4.88 6.34L32 37.05 53.13 53.3c1.9-1.88 3.54-4.01 4.88-6.34L38.56 32l19.45-14.96a30.509 30.509 0 0 0-4.88-6.34z" style="fill:#fcfcfc"/><linearGradient id="a" x1="32" x2="32" y1="62" y2="2" gradientUnits="userSpaceOnUse"><stop offset="0" style="stop-color:#1a1a1a"/><stop offset=".102" style="stop-color:#393939;stop-opacity:.949"/><stop offset=".347" style="stop-color:#7f7f7f;stop-opacity:.8262"/><stop offset=".569" style="stop-color:#b6b6b6;stop-opacity:.7156"/><stop offset=".758" style="stop-color:#dedede;stop-opacity:.6209"/><stop offset=".908" style="stop-color:#f6f6f6;stop-opacity:.5459"/><stop offset="1" style="stop-color:#fff;stop-opacity:.5"/></linearGradient><circle cx="32" cy="32" r="30" style="opacity:.1;fill:url(#a)"/></svg>