<svg xmlns="http://www.w3.org/2000/svg" xml:space="preserve" style="enable-background:new 0 0 64 64" viewBox="0 0 64 64"><linearGradient id="a" x1="-388.892" x2="-368.862" y1="338.919" y2="338.919" gradientTransform="matrix(-.6558 -.7549 .9568 -.8312 -546.481 44.461)" gradientUnits="userSpaceOnUse"><stop offset="0" style="stop-color:#3b7510"/><stop offset=".243" style="stop-color:#559015"/><stop offset=".501" style="stop-color:#6aa41a"/><stop offset=".755" style="stop-color:#76b11c"/><stop offset="1" style="stop-color:#7ab51d"/></linearGradient><path d="M44.072 37.181c-14.561-3.74-35.99 5.395-34.97 24.569 6.53-22.15 28.912-19.134 34.022-16.678 5.04 2.422 4.404-7.006.948-7.89z" style="fill:url(#a)"/><linearGradient id="b" x1="37.387" x2="37.387" y1="51.957" y2="29.822" gradientUnits="userSpaceOnUse"><stop offset="0" style="stop-color:#7ab51d"/><stop offset=".245" style="stop-color:#76b11c"/><stop offset=".499" style="stop-color:#6aa41a"/><stop offset=".757" style="stop-color:#559015"/><stop offset="1" style="stop-color:#3b7510"/></linearGradient><path d="M27.035 49.144C63.91 62.365 66.024 24.341 42.07 30.504c-7.027 1.808-12.424 2.072-16.861 2.054-12.959-.05-9.362 12.574 1.826 16.586zm5.393-7.303c6.702-1.013 10.784-4.261 13.466-2.832 3.707 1.973-5.949 6.05-13.466 2.832z" style="fill:url(#b)"/><linearGradient id="c" x1="13.412" x2="38.405" y1="25.602" y2="25.602" gradientUnits="userSpaceOnUse"><stop offset=".358" style="stop-color:#7ab51d"/><stop offset=".553" style="stop-color:#75b11d"/><stop offset=".776" style="stop-color:#67a51e"/><stop offset="1" style="stop-color:#529320"/></linearGradient><path d="M36.746 6.742c-.01-.011-.02-.017-.03-.028-3.758-4.607-8.34-6.12-15.338-3.27-3.665 1.493-4.545 2.918-7.689 4.656-.75.415.168 2.683 1.01 2.858.592 1.386 7.562 1.966 12.84 1.529 0 0-15.638 23.994-2.835 36.492 1.822 1.779 6.809-7.612 6.809-7.612-11.397-8.074 13.321-25.942 5.233-34.625z" style="fill:url(#c)"/><linearGradient id="d" x1="29.558" x2="49.716" y1="39.718" y2="39.718" gradientUnits="userSpaceOnUse"><stop offset="0" style="stop-color:#8cc920"/><stop offset=".372" style="stop-color:#8fd11e"/><stop offset="1" style="stop-color:#93d91c"/></linearGradient><path d="M36.629 42.928c6.506 2.15 15.096-2.557 12.665-5.344-3.883-4.454-11.62 1.666-19.736 1.837.984 1.707 2.87 2.42 2.87 2.42 6.087.146 10.499-4.014 13.255-2.445 2.02 1.15-4.765 4.275-9.054 3.532z" style="fill:url(#d)"/><linearGradient id="e" x1="16.317" x2="57.821" y1="33.293" y2="33.293" gradientUnits="userSpaceOnUse"><stop offset="0" style="stop-color:#93d91c"/><stop offset=".627" style="stop-color:#8fd11e"/><stop offset="1" style="stop-color:#8cc920"/></linearGradient><path d="M57.82 39.742c0 11.534-12.185 15.6-24.685 14.188-4.777-.54-9.94-1.202-13.752-6.663-9.233-13.23 5.12-26.777 7.37-34.725 2.106.322 4.254-.154 4.254-.154-2.167 11.285-14.913 21.337-7.347 32.694 6.069 9.105 32.583 9.083 34.16-5.34z" style="fill:url(#e)"/><path d="M17.29 8.876c.79 1.366-1.701 1.627-1.701.57 0-.402 1.503-.913 1.701-.57z" style="fill:#529320"/><linearGradient id="f" x1="14.699" x2="34.709" y1="11.869" y2="11.869" gradientUnits="userSpaceOnUse"><stop offset="0" style="stop-color:#93d91c"/><stop offset=".336" style="stop-color:#8ed11c"/><stop offset=".869" style="stop-color:#80ba1c"/><stop offset="1" style="stop-color:#7cb31c"/></linearGradient><path d="M34.709 10.607c-4.833 2.45-13.307.559-18.11.545-1.22.21-1.9-.193-1.9-.193.732 1.711 10.273 2.875 16.27 1.687 2.432-.482 3.74-2.039 3.74-2.039z" style="fill:url(#f)"/><path d="M5.25 12.806s5.859 2.38 9.45-1.847c0 0 .673.167 1.899.193-5.004 4.27-6.877 3.092-8.676 7.258.055-2.41 1.143-4.077 1.143-4.077s-3.156 0-3.817-1.527z" style="fill:#e81c27"/><radialGradient id="g" cx="40.124" cy="41.362" r="39.728" gradientTransform="matrix(.9735 0 0 .5469 -6.788 18.589)" gradientUnits="userSpaceOnUse"><stop offset="0" style="stop-color:#7ab51d"/><stop offset=".52" style="stop-color:#78b31d"/><stop offset=".723" style="stop-color:#71ad1e"/><stop offset=".869" style="stop-color:#65a31f"/><stop offset=".989" style="stop-color:#549520"/><stop offset="1" style="stop-color:#529320"/></radialGradient><path d="M33.01 61.75c22.72 0 29.716-8.753 23.937-17.078-3.412 7.285-11.373 8.571-23.937 8.21-14.393-.413-23.402-10.314-16.104-10.562 0 0-1.316-4.154.147-9.778-2.244.135-4.282.532-6.3 1.54C-2.335 40.63 7.673 61.75 33.01 61.75z" style="fill:url(#g)"/><linearGradient id="h" x1="15.147" x2="59" y1="53.336" y2="53.336" gradientUnits="userSpaceOnUse"><stop offset="0" style="stop-color:#93d91c"/><stop offset=".627" style="stop-color:#8fd11e"/><stop offset="1" style="stop-color:#8cc920"/></linearGradient><path d="M56.947 44.672c5.11 7.827-4.812 15.835-25.819 15.835-6.452 0-11.645-1.002-15.98-3.153C19.713 59.998 25.795 62 33.081 62c22.721 0 29.931-9.252 23.865-17.328z" style="fill:url(#h)"/><linearGradient id="i" x1="12.948" x2="21.695" y1="44.833" y2="44.833" gradientUnits="userSpaceOnUse"><stop offset="0" style="stop-color:#93d91c"/><stop offset=".627" style="stop-color:#8fd11e"/><stop offset="1" style="stop-color:#8cc920"/></linearGradient><path d="M21.695 50.417c-11.772-3.766-9.63-10.793-5.298-11.167.251 1.442.633 3.063.633 3.063-1.833.007-4.787 3.692 4.665 8.104z" style="fill:url(#i)"/><path d="M25.645 4.759c-.568.02-1.206.226-1.62.624-.409.391-.765 1.011-.765 1.604 0 .593.426 1.14.834 1.532.415.398.97.527 1.538.527.568 0 1.212-.064 1.627-.462.407-.391.806-1.004.806-1.597 0-.592-.33-1.276-.739-1.667-.414-.398-1.114-.58-1.681-.561z" style="fill:#bed81d"/><path d="M25.576 5.619c.668 0 1.314.575 1.314 1.283 0 .709-.646 1.283-1.314 1.283-.667 0-1.314-.574-1.314-1.283 0-.708.647-1.284 1.314-1.284z" style="fill:#1a1626"/><path d="M26.8 5.61c0 .807-1.28.807-1.28 0 0-.81 1.28-.81 1.28 0z" style="fill:#fff"/></svg>