<svg xmlns="http://www.w3.org/2000/svg" xml:space="preserve" style="enable-background:new 0 0 64 64" viewBox="0 0 64 64"><path d="M25.151 42.985c1.37 2.316 4.204 3.105 5.68 3.362.669.123.817.051.51-.362-.45-.608-.83-1.463-.926-2.572-.126-1.379-5.85-1.422-5.264-.428z" style="fill:#404042"/><path d="M28.116 43.017c1.74 2.107 4.674 2.51 6.177 2.567.68.033.814-.06.442-.426-.544-.54-1.064-1.336-1.344-2.419-.352-1.346-6.018-.626-5.275.278z" style="fill:#404042"/><path d="M21.15 42.3s2.011 8.463 2.564 10.222c.444 1.416 1.248 3.047.967 5.832-.056.548-3.873 1.069-2.55 3.646h6.138c.715-.415 1.678-3.577 1.411-5.29-.134-.863-.75-14.305-.75-14.305l-7.78-.105z" style="fill:#404042"/><linearGradient id="a" x1="50.174" x2="58.84" y1=".109" y2="27.442" gradientUnits="userSpaceOnUse"><stop offset="0" style="stop-color:#404042"/><stop offset=".496" style="stop-color:#4b4b4d"/><stop offset="1" style="stop-color:#505052"/></linearGradient><path d="M49.743 23.478c5.38-.369 7.87-5.67 8.255-9.029.598-5.229-4.901-12.294-9.832-8.281-2.408 1.959-1.394-2.347.16-3.221 6.46-3.63 14.02 3.723 13.662 12.74-.185 4.638-4.306 9.081-4.368 13.705l-7.877-5.914z" style="fill:url(#a)"/><path d="M36.453 37.818c-.063 4.09 2.511 9.694 8.098 14.894 1.383 1.286-.315 6.256-1.176 6.203-.59-.036-3.902.526-2.756 3.085h5.356c1.216-.752 4.762-8.809 4.008-9.77-5.213-6.647 7.064-7.346 6.75-17.068-.145-4.49-20.196-2.809-20.28 2.656z" style="fill-rule:evenodd;clip-rule:evenodd;fill:#404042"/><path d="M41.89 59.736C40.125 60.3 41.107 62 41.107 62h.549s-.966-1.262.232-2.264zm-18.177 0c-1.762.564-.78 2.264-.78 2.264h.548s-.967-1.262.232-2.264z" style="fill-rule:evenodd;clip-rule:evenodd;fill:#4b4b52"/><linearGradient id="b" x1="29.998" x2="29.998" y1="42.779" y2="32.506" gradientUnits="userSpaceOnUse"><stop offset="0" style="stop-color:#404042"/><stop offset=".378" style="stop-color:#48484a"/><stop offset="1" style="stop-color:#505052"/></linearGradient><path d="M2.902 25.364c.212.832 1.3 1.281 1.3 1.281.56 1.659 2.386.91 2.929.786.545-.123 2.109-.473 3.015.02 1.296.704-.42 8.738 1.836 12.121 4.37 6.553 14.2 5.804 15.62 5.308 8.517-2.975 24.988 5.842 30.05-9.986.99-3.094-.5-12.67-15.57-12.67-10.672 0-12.086 1.323-14.663.85-3.11-.572-5.229-.28-6.27-1.55-.849-1.036-5.018-7.964-10.124-6.585-5.304 1.433-8.123 4.226-7.828 6.663.107.877-2.296 3.293-.295 3.762z" style="fill:url(#b)"/><path d="M2.199 24s.548.682.978.415c.092.696-.275.95-.275.95-.604.118-1.232-.678-.703-1.364z" style="fill-rule:evenodd;clip-rule:evenodd;fill:#2d2d30"/><path d="M4.315 26.914c-.33-.198-.396-.413-.396-.413s2.072.34 3.165-.707c-.766 1.255-2.769 1.12-2.769 1.12z" style="fill:#2d2d30"/><path d="M5.261 24.555c4.804-.762 5.834.14 5.805.333-.008.061-2.107-.583-5.805-.333zm-.168.655c5.89-.027 6.956 1.26 6.885 1.486-.022.073-2.414-1.098-6.885-1.486z" style="fill:#6e8189"/><linearGradient id="c" x1="5.684" x2="10.573" y1="12.259" y2="17.889" gradientUnits="userSpaceOnUse"><stop offset="0" style="stop-color:#404042"/><stop offset=".496" style="stop-color:#4b4b4d"/><stop offset="1" style="stop-color:#505052"/></linearGradient><path d="M5.516 12.55c.4-.553 4.33.1 6.388 2.457 0 0-1.384 6.14-5.117 2.928-.84-.771-1.598-4.935-1.27-5.384z" style="fill-rule:evenodd;clip-rule:evenodd;fill:url(#c)"/><path d="M5.516 12.65S8.6 14.6 8.883 18.365c0 0-1.49.046-1.894-.445-1.333-1.627-1.473-5.27-1.473-5.27z" style="fill-rule:evenodd;clip-rule:evenodd;fill:#2d2d30"/><path d="M40.597 41.102c1.898 3.716 4.854 7.063 11.823 11.048 1.677.96 2.809 4.461 2.969 6.2.047.505-3.698 1.147-2.757 3.65h5.357c1.638-.752.76-11.156-.096-12.081-7.057-7.618 2.98-9.984-.211-21.432-1.324-4.753-23.987-.898-17.085 12.615z" style="fill-rule:evenodd;clip-rule:evenodd;fill:#505052"/><path d="M53.903 59.736C52.139 60.302 53.12 62 53.12 62h.547s-.963-1.26.235-2.264z" style="fill-rule:evenodd;clip-rule:evenodd;fill:#2d2d30"/><linearGradient id="d" x1="18.918" x2="13.939" y1="49.902" y2="44.409" gradientUnits="userSpaceOnUse"><stop offset="0" style="stop-color:#404042"/><stop offset=".496" style="stop-color:#4b4b4d"/><stop offset="1" style="stop-color:#505052"/></linearGradient><path d="M12.257 39.96c.5 2.849-1.315 4.838-3.587 8.479-.762 1.222-1.908 5.204-4.308 8.908-2.327 3.592 3.165 4.008 5.308.627.854-1.348 2.442-5.804 3.547-6.458 2.988-1.767 10.497-5.433 13.557-10.502 7.77-12.876-17.264-16.706-14.518-1.054z" style="fill:url(#d)"/><path d="M5.165 57.664c-1.355 1.036-1.035 2.1-1.035 2.1l.397.29s-.284-.994.638-2.39z" style="fill-rule:evenodd;clip-rule:evenodd;fill:#2d2d30"/><path d="M5.005 20.169c-.777-.031-.835.957-.662 1.34.179.394 2.1.414 2.227 0 .08-.262-.789-1.309-1.565-1.34z" style="fill:#2d2d30"/><path d="M6.156 20.8c-.272-.255-.091.828.086.896.183.071.822-.312.771-.43-.031-.075-.443-.08-.857-.466z" style="fill:#2d2d30"/><path d="M4.97 20.4c-.412 0-.627.467-.627 1.044 0 .497.242.755.488.755.613 0 1.721-.283 1.739-.69.009-.22-.987-1.109-1.6-1.109z" style="fill:#92c932"/><path d="M4.932 20.54c.181 0 .328.34.328.762 0 .416-.147.757-.328.757-.182 0-.329-.341-.329-.757 0-.422.147-.762.329-.762z" style="fill:#2d2d30"/><path d="M5.711 20.89c0 .327-.671.327-.671 0 0-.326.671-.326.671 0z" style="fill:#e2ffb0"/></svg>