<svg xmlns="http://www.w3.org/2000/svg" xml:space="preserve" style="enable-background:new 0 0 64 64" viewBox="0 0 64 64"><linearGradient id="a" x1="59.388" x2="59.388" y1="24.488" y2="2" gradientUnits="userSpaceOnUse"><stop offset="0" style="stop-color:#2d2d30"/><stop offset=".5" style="stop-color:#57575e"/><stop offset="1" style="stop-color:#2d2d30"/></linearGradient><path d="M61.677 6.834s-.417.31-.8.907C61.512 4.44 64 2 64 2s-2.15 1.057-4.253 2.853C60.404 3.77 61 3.098 61 3.098s-9.127 4.93-3.824 12.703c3.443 5.046-2.398 7.57-2.398 7.57l1.106 1.042c7.496.888 8.778-6.35 6.041-11.17-1.042-1.836-1.065-3.679-.247-6.409z" style="fill:url(#a)"/><path d="M55.778 23.278c8.37-6.74-4.167-8.463 2.685-17.5-6.278 8.5 6.037 11.296-2.685 17.5z" style="opacity:.5;fill:#2d2d30"/><path d="M57.998 23.213c8.342-6.776-1.455-8.793 3.39-19.046-4.394 9.61 5.306 12.806-3.39 19.046z" style="opacity:.5;fill:#2d2d30"/><path d="M56.704 23.019c9.027-5.831-3.674-9.936 3.907-18.37-6.964 7.947 5.414 13.11-3.907 18.37z" style="opacity:.5;fill:#2d2d30"/><linearGradient id="b" x1="25.578" x2="29.93" y1="20.74" y2="19.277" gradientUnits="userSpaceOnUse"><stop offset="0" style="stop-color:#2d2d30"/><stop offset="1" style="stop-color:#57575e"/></linearGradient><path d="M19.77 19.4c1.864 3.242 10.158 4.906 11.835 1.916-4.247-.595-5.066-4.225-11.836-1.915z" style="fill:url(#b)"/><path d="M21.13 19.365c5.752-.068 5.127 2.262 9.96 2.125-4.404.078-4.507-2.47-9.96-2.125zm-.423 1.672c5.75-.2 5.353 1.66 10.139.97-4.367.582-4.695-1.439-10.14-.97z" style="opacity:.5;fill:#2d2d30"/><linearGradient id="c" x1="22.832" x2="27.499" y1="16.747" y2="16.339" gradientUnits="userSpaceOnUse"><stop offset="0" style="stop-color:#2d2d30"/><stop offset="1" style="stop-color:#57575e"/></linearGradient><path d="M17.444 14.215c1.142 3.56 8.998 6.84 11.168 4.362-4.026-1.475-4.064-5.196-11.168-4.362z" style="fill:url(#c)"/><path d="M18.781 14.466c5.735.459 4.537 3.29 9.292 4.172-4.323-.85-3.83-4.015-9.292-4.172zm-.764 1.546c5.715.661 4.884 2.749 9.708 3.08-4.391-.35-4.255-2.73-9.708-3.08z" style="opacity:.5;fill:#2d2d30"/><linearGradient id="d" x1="13.366" x2="16.403" y1="13.179" y2="10.086" gradientUnits="userSpaceOnUse"><stop offset="0" style="stop-color:#2d2d30"/><stop offset="1" style="stop-color:#57575e"/></linearGradient><path d="M7.993 10.249c2.892 3.895 8.683 6.917 12.09 4.491-.947-5.536-7.236-7.375-12.09-4.491z" style="fill:url(#d)"/><path d="M10.142 9.546s4.8-1.579 8.701 2.87c-3.694-4.653-8.701-2.87-8.701-2.87z" style="opacity:.5;fill:#2d2d30"/><path d="M9.074 10.63s4.286-2.516 8.705 2.03c-4.256-4.81-8.705-2.03-8.705-2.03z" style="opacity:.5;fill:#2d2d30"/><linearGradient id="e" x1="13.961" x2="21.182" y1="13.422" y2="11.662" gradientUnits="userSpaceOnUse"><stop offset="0" style="stop-color:#2d2d30"/><stop offset="1" style="stop-color:#57575e"/></linearGradient><path d="M11.178 10.714c1.81 3.586 12.577 5.496 13.812 2.708-4.558-.675-6.414-4.79-13.812-2.708z" style="fill:url(#e)"/><path d="M12.691 10.658c6.133-.767 6.55 3.054 11.745 2.946-4.733.048-5.964-3.972-11.745-2.946z" style="opacity:.5;fill:#2d2d30"/><path d="M12.691 12.345c6.067-1.185 6.883 2.893 11.88 1.47-4.566 1.248-6.183-2.889-11.88-1.47z" style="opacity:.5;fill:#2d2d30"/><linearGradient id="f" x1="18.929" x2="18.929" y1="62" y2="35.267" gradientUnits="userSpaceOnUse"><stop offset=".188" style="stop-color:#c29c82"/><stop offset=".254" style="stop-color:#b78f76"/><stop offset=".394" style="stop-color:#a67a62"/><stop offset=".548" style="stop-color:#9a6b54"/><stop offset=".729" style="stop-color:#93624c"/><stop offset="1" style="stop-color:#915f49"/></linearGradient><path d="M12.41 61.974c.481.308 1.443-2.194 1.558-4.384.026-.463-.7-.1-.938-.363-.24-.262-.524-1.973-.224-2.468.304-.493.643-1.002.422-1.916-.222-.914.645-4.61.893-5.285.185-.503 1.364-1.68 1.725-1.868.508-.27 9.9.244 11.195-.816s-5.273-12.045-6.448-9.111c-.657 1.635-.809 4.625-.68 5.853.083.783-2.644-.064-6.469 1.474-.407.165-1.837 2.488-1.786 3.013.314 3.166-1.58 5.84-.834 8.745.127.504-.099 1.985.149 3.416-.047 2.447 1.058 3.469 1.437 3.71z" style="fill:url(#f)"/><path d="M12.41 61.974c.481.308 1.443-2.194 1.558-4.384.026-.463-.7-.1-.938-.363-.24-.262-.98 1.244-2.057 1.037-.047 2.447 1.058 3.469 1.437 3.71z" style="fill:#302c3b"/><linearGradient id="g" x1="51.172" x2="51.172" y1="60.789" y2="39.579" gradientUnits="userSpaceOnUse"><stop offset=".188" style="stop-color:#c29c82"/><stop offset=".254" style="stop-color:#b78f76"/><stop offset=".394" style="stop-color:#a67a62"/><stop offset=".548" style="stop-color:#9a6b54"/><stop offset=".729" style="stop-color:#93624c"/><stop offset="1" style="stop-color:#915f49"/></linearGradient><path d="M56.186 44.94c-1.134-.516-2.906-3.207-3.1-4.376-.36-2.17-6.848-.096-7.697.026 2.514 3.125 7.041 4.913 6.752 5.932-.706 2.487-5.382 5.203-6.05 6.688-.667 1.482-1.249 3.312-.93 4.85-.029 2.163.914 2.807 1.035 2.722.676-.472 1.652-2.48 1.564-2.95-.054-.302-.557-.689-.557-.689.08-1.941.99-1.89 1.111-2.82.123-.938 7.389-5.92 8.546-6.94.745-.664.459-1.928-.674-2.442z" style="fill:url(#g)"/><path d="M45.16 58.06c-.028 2.163.997 3.486 1.117 3.401.676-.471 1.915-3.073 1.828-3.542-.056-.303-.902-.776-.902-.776-.278.323-1.515.996-2.042.917z" style="fill:#302c3b"/><linearGradient id="h" x1="33.566" x2="33.566" y1="44.733" y2="26.506" gradientUnits="userSpaceOnUse"><stop offset="0" style="stop-color:#915f49"/><stop offset=".078" style="stop-color:#9a674c"/><stop offset=".264" style="stop-color:#a97352"/><stop offset=".484" style="stop-color:#b17b55"/><stop offset=".824" style="stop-color:#b47d56"/></linearGradient><path d="M58.029 29.423c-.756-4.64-2.723-7.072-6.4-8.376-5.522-1.956-19.059 6.453-25.98-.245-3.798-3.676-4.188-8.059-13.944-9.251-4.49-.55-2.813 11.94.411 12.057 3.922.14 5.467 4.96 5.813 8.02.716 6.348 3.812 9.971 7.317 12.058 11.667 4.194 17.605-5.777 26.625-2.614 4.941-2.889 6.846-7.425 6.158-11.649z" style="fill:url(#h)"/><linearGradient id="i" x1="15.089" x2="22.246" y1="28.782" y2="27.453" gradientUnits="userSpaceOnUse"><stop offset=".154" style="stop-color:#855742"/><stop offset=".308" style="stop-color:#99674b"/><stop offset=".484" style="stop-color:#a87451"/><stop offset=".691" style="stop-color:#b17b55"/><stop offset="1" style="stop-color:#b47d56"/></linearGradient><path d="M25.65 20.802c-3.799-3.676-4.19-8.059-13.945-9.251-4.49-.55-2.813 11.94.41 12.057 3.923.14 5.468 4.96 5.813 8.02.717 6.348 3.813 9.971 7.318 12.058 11.667 4.194 7.324-16.186.403-22.884z" style="fill:url(#i)"/><linearGradient id="j" x1="22.648" x2="22.648" y1="58.546" y2="32.233" gradientUnits="userSpaceOnUse"><stop offset=".109" style="stop-color:#c29c82"/><stop offset=".115" style="stop-color:#c19a7f"/><stop offset=".167" style="stop-color:#bb8d6d"/><stop offset=".227" style="stop-color:#b78460"/><stop offset=".306" style="stop-color:#b57f58"/><stop offset=".467" style="stop-color:#b47d56"/></linearGradient><path d="M22.287 41.16c.972 2.924-3.174 4.073-7.251 10.994-.466.792.25 3.302 1.033 3.54 2.487.757 6.575 2.88 7.791 2.851.905-.016 3.186-1.445 3.866-1.884 1.473-.277 2.782-1.965 2.675-2.363-.191-.712-3.808-.886-4.031-.638-.26.282-.223 1.027-.356 1.41-.109.32-1.452 1.88-2.405.575-.701-.959-.994.715-4.561-1.048-.367-.18-.96-1.231-.742-1.63 1.815-3.282 7.375-3.806 8.903-6.119.664-1.003 1.344-3.26 1.627-4.47 3.187-13.67-10.453-12.976-6.55-1.218z" style="fill:url(#j)"/><path d="M27.726 56.66c1.473-.276 2.782-1.964 2.675-2.362-.191-.712-3.808-.886-4.031-.638-.26.282-.223 1.027-.356 1.41-.109.32 1.492.073 1.712 1.59z" style="fill:#302c3b"/><linearGradient id="k" x1="54.148" x2="54.148" y1="61.449" y2="24.772" gradientUnits="userSpaceOnUse"><stop offset=".188" style="stop-color:#c29c82"/><stop offset=".255" style="stop-color:#bc9071"/><stop offset=".343" style="stop-color:#b88562"/><stop offset=".446" style="stop-color:#b57f59"/><stop offset=".6" style="stop-color:#b47d56"/></linearGradient><path d="M45.91 38.229c3.811 7.005 12.452 6.012 12.742 7.726.431 2.554-2.564 6.993-2.526 8.63.035 1.635.96 3.63 1.903 4.862.9 1.953 2.021 2.097 2.093 1.966.403-.733.42-2.979.14-3.36-.179-.247-.796-.364-.796-.364-.758-1.776.338-2.287-.209-3.035-1.228-1.685 3.65-6.877 4.69-10.14.307-.965-.767-2.276-2.003-2.219-1.238.057-4.16-2.709-4.833-3.668-1.252-1.781.586-4.272.162-8.697-.969-10.085-18.243-4.35-11.362 8.299z" style="fill:url(#k)"/><path d="M58.029 59.447c.9 1.953 2.385 2.669 2.457 2.538.403-.732.401-3.632.122-4.014-.179-.246-1.142-.282-1.142-.282-.068.342-.794 1.284-1.437 1.758z" style="fill:#302c3b"/><linearGradient id="l" x1="8.537" x2="13.129" y1="-72.348" y2="-65.582" gradientTransform="rotate(-10.241 499.861 -88.75)" gradientUnits="userSpaceOnUse"><stop offset="0" style="stop-color:#2d2d30"/><stop offset="1" style="stop-color:#57575e"/></linearGradient><path d="M26.604 20.15c-3.716-1.899-2.478-4.02-6.112-5.394-.693.057-2.848.757-2.314.91 3.391.98 3.69 5.082 8.426 4.484z" style="fill:url(#l)"/><path d="M26.037 19.837c-3.269-.783-2.81-3.337-5.409-4.545 2.694.92 2.296 3.707 5.409 4.545z" style="opacity:.5;fill:#2d2d30"/><path d="M26.604 20.15c-4.397.003-4.041-3.187-7.23-4.766 3.273 1.328 2.729 4.403 7.23 4.766z" style="opacity:.5;fill:#2d2d30"/><linearGradient id="m" x1="26.522" x2="31.616" y1="-172.739" y2="-165.233" gradientTransform="rotate(-25.551 428.162 -53.52)" gradientUnits="userSpaceOnUse"><stop offset="0" style="stop-color:#2d2d30"/><stop offset="1" style="stop-color:#57575e"/></linearGradient><path d="M23.755 15.864c-5.285-1.1-4.678-4.995-9.581-3.893 1.058 3.984 5.864 5.254 9.581 3.893z" style="fill:url(#m)"/><path d="M22.878 15.768c-4.333.36-5.06-3.115-8.704-3.797 3.67.291 4.541 4.026 8.704 3.797z" style="opacity:.5;fill:#2d2d30"/><path d="M23.755 15.864c-4.131 1.271-7.652-1.176-9.581-3.893 2.269 2.446 5.579 5.003 9.581 3.893z" style="opacity:.5;fill:#2d2d30"/><linearGradient id="n" x1="-10.114" x2="-11.174" y1="11.02" y2="8.201" gradientTransform="rotate(-8.27 -5.926 -104.337)" gradientUnits="userSpaceOnUse"><stop offset="0" style="stop-color:#915f49"/><stop offset=".007" style="stop-color:#925f49"/><stop offset=".328" style="stop-color:#a57050"/><stop offset=".656" style="stop-color:#b07a55"/><stop offset="1" style="stop-color:#b47d56"/></linearGradient><path d="M4.438 8.477c.175-.736 4.738 1.296 5.605 5.673.06.281-2.102.31-3.55-.495 0 0-2.345-3.957-2.055-5.178z" style="fill:url(#n)"/><path d="M4.845 9.434c-.09-.781 3.337 1.33 3.886 4.371.037.195-1.214.174-2.207-.54 0 0-1.614-3.266-1.68-3.83z" style="fill:#6e4837"/><linearGradient id="o" x1="88.306" x2="89.698" y1="-27.044" y2="-25.11" gradientTransform="rotate(36.182 -9.366 -132.923)" gradientUnits="userSpaceOnUse"><stop offset="0" style="stop-color:#2d2d30"/><stop offset="1" style="stop-color:#57575e"/></linearGradient><path d="M9.854 10.38c-1.449 3.254-4.054 1.588-5.802 2.28 0 0 1.087-3.542 5.802-2.28z" style="fill:url(#o)"/><path d="M4.052 12.66s1.923-2.636 5.802-2.28c-3.757.356-5.802 2.28-5.802 2.28zm1.711-.446s2.192-.677 4.091-1.834c-1.534 1.782-4.09 1.834-4.09 1.834z" style="opacity:.5;fill:#2d2d30"/><linearGradient id="p" x1="-21.948" x2="-17.226" y1="-40.064" y2="-31.421" gradientTransform="rotate(-13.226 231.457 -132.182)" gradientUnits="userSpaceOnUse"><stop offset="0" style="stop-color:#b47d56"/><stop offset=".396" style="stop-color:#b17b55"/><stop offset=".674" style="stop-color:#a87352"/><stop offset=".914" style="stop-color:#99664c"/><stop offset="1" style="stop-color:#915f49"/></linearGradient><path d="M12.573 12.003c-.468-.921-4.76-6.312-5.243-5.072-.512 1.313.787 4.99.787 4.99-2.008 1.445-3.177 4.375-5.502 7.916-.719 1.095 1.222 8.438 5.974 5.833 7.354-4.032 7.317-5.084 6.943-7.171-.87-4.865-2.96-6.496-2.96-6.496z" style="fill:url(#p)"/><linearGradient id="q" x1="-17.867" x2="-21.192" y1="26.39" y2="20.592" gradientTransform="rotate(-10.673 .275 -102.795)" gradientUnits="userSpaceOnUse"><stop offset="0" style="stop-color:#a88062"/><stop offset=".06" style="stop-color:#b18768"/><stop offset=".259" style="stop-color:#c89c79"/><stop offset=".473" style="stop-color:#d9ab85"/><stop offset=".707" style="stop-color:#e3b38c"/><stop offset="1" style="stop-color:#e6b68e"/></linearGradient><path d="M4.027 21.104c-.123-.72-.954-1.849-1.412-1.267-.444.565-1.923 2.856-2.4 3.864-.088.188-.287 1.39-.188 1.628.157.379 1.17 1.36 1.354 1.762.4.872 1.044 1.075 1.438 1.077.177 0 .337.067.476.167.364.264 1.224.465 2.022.073 2.13-1.048-.028-.849 3.272-2.738.506-.29.438-.803-.038-1.128-.521-.355-1.24-.599-1.764-.479-1.412.323-2.453-1.152-2.76-2.96z" style="fill:url(#q)"/><linearGradient id="r" x1="-23.006" x2="-21.458" y1="23.62" y2="21.635" gradientTransform="rotate(-10.673 .275 -102.795)" gradientUnits="userSpaceOnUse"><stop offset="0" style="stop-color:#c79973;stop-opacity:.8"/><stop offset=".184" style="stop-color:#be926d;stop-opacity:.8368"/><stop offset=".484" style="stop-color:#a67f5e;stop-opacity:.8969"/><stop offset=".861" style="stop-color:#7e6046;stop-opacity:.9722"/><stop offset="1" style="stop-color:#6e533c"/></linearGradient><path d="M1.777 25.968c-.707-.373-.509-.533-1.198-.92-.31-.174-.106-1.475.956-1.609.876.887.35 1.06.138 1.53-.102.226-.131.522.104 1z" style="fill:url(#r)"/><linearGradient id="s" x1="-21.795" x2="-20.344" y1="-42.779" y2="-40.761" gradientTransform="rotate(-13.226 231.457 -132.182)" gradientUnits="userSpaceOnUse"><stop offset="0" style="stop-color:#2d2d30"/><stop offset="1" style="stop-color:#57575e"/></linearGradient><path d="M7.69 10.714C9.613 14.071 6 14.964 5.28 16.8c0 0-2.478-3.271 2.41-6.085z" style="fill:url(#s)"/><path d="M5.28 16.8s-.97-3.304 2.41-6.086C5.075 13.888 5.28 16.8 5.28 16.8z" style="opacity:.5;fill:#2d2d30"/><path d="M6.204 15.16s1.083-2.173 1.486-4.446c.472 2.416-1.486 4.446-1.486 4.446z" style="opacity:.5;fill:#2d2d30"/><path d="M7.439 24.973c-.225 1.506-1.158 1.38-1.676 2.028-.722.903-1.899 1.36-2.644 1.115.691-.029 1.723-.485 2.36-1.274.453-.56 1.588-.65 1.96-1.869z" style="fill:#1a1626"/><path d="M7.577 7.625c.073-.44 2.971 2.542 3.156 4.94-.573-.372-2.14-.564-2.351-1.073-.396-.951-.902-3.27-.804-3.867z" style="fill:#6e4837"/><path d="m7.513 16.817.67 1.67s.968-.91.52-2.053c0 0-.688.098-1.19.383z" style="fill:#1a1626"/><path d="M8.512 16.637c.61 2.92-2.613 2.515-2.667 1.89-.176-2.028 2.59-2.259 2.667-1.89z" style="fill:#fff"/><radialGradient id="t" cx="-47.902" cy="-61.488" r="1.143" gradientTransform="matrix(.8786 -.5067 .5076 .8639 80.483 46.575)" gradientUnits="userSpaceOnUse"><stop offset=".495" style="stop-color:#8c6c49"/><stop offset=".581" style="stop-color:#876848"/><stop offset=".679" style="stop-color:#7a5e43"/><stop offset=".782" style="stop-color:#634d3c"/><stop offset=".889" style="stop-color:#433533"/><stop offset=".999" style="stop-color:#1b1626"/><stop offset="1" style="stop-color:#1a1626"/></radialGradient><path d="M8.18 16.989c.85 1.388-1.35 2.634-2.144 1.214-.606-1.083 1.517-2.238 2.144-1.214z" style="fill:url(#t)"/><path d="M7.768 17.446c.203.85-1.064 1.143-1.267.293-.203-.847 1.065-1.14 1.267-.293z" style="fill:#1a1626"/><path d="M7.6 16.966c.078.322-.405.433-.482.111-.077-.32.406-.432.483-.111z" style="fill:#897c6e"/><path d="M9.272 16.137c-.725.34-1.47.011-2.264.272-.86.282-1.433 1.119-1.163 2.118.327-2.405 3.003-1.203 3.427-2.39z" style="fill:#1a1626"/><linearGradient id="u" x1="2.199" x2="7.105" y1="-72.912" y2="-65.684" gradientTransform="rotate(-9.543 510.343 -87.35)" gradientUnits="userSpaceOnUse"><stop offset="0" style="stop-color:#2d2d30"/><stop offset=".35" style="stop-color:#424247"/><stop offset=".724" style="stop-color:#515158"/><stop offset="1" style="stop-color:#57575e"/></linearGradient><path d="M19.23 17.145c-5.678-2.145-2.789-6.263-7.548-6.423-.197 4.301 3.787 6.833 7.548 6.423z" style="fill:url(#u)"/><path d="M18.463 16.82c-4.028-.762-3.68-4.462-6.781-6.098 3.24 1.248 2.945 5.248 6.781 6.098z" style="opacity:.5;fill:#2d2d30"/><path d="M19.23 17.145c-4.11.211-6.589-3.177-7.548-6.423 1.345 3.061 3.601 6.505 7.548 6.423z" style="opacity:.5;fill:#2d2d30"/></svg>