<svg xmlns="http://www.w3.org/2000/svg" xml:space="preserve" style="enable-background:new 0 0 64 64" viewBox="0 0 64 64"><path d="M51.927 21.134c8.116-2.6 10.15 4.024 10.577 5.632 1.039 3.951.361 11.545.972 16.058.043.336-1.394-.173-1.449-.505-.668-4.008.227-9.903-1.234-14.663-2.399-7.815-12.514-5.35-8.866-6.522z" style="fill:#c4ccd1"/><path d="M62.812 48.079c-.11-4.626-1.134-4.975-.396-8.821.383 3.151 1.086 3.93.396 8.82z" style="fill:#a2a9ad"/><path d="M62.117 46.165c0-5.55-1.025-5.246-.287-8.882.002 3.95 1.031 2.96.287 8.882zm.707-9.375c-1.031 3.428.793 6.31.35 10.186 1.084-4.284-.578-6.859-.35-10.186z" style="fill:#a2a9ad"/><path d="M62.629 38.003c2.344 5.038.972 8.973.972 8.973s.159-3.675-.972-8.973z" style="fill:#a2a9ad"/><path d="M44.328 36.724c7.17 5.486 8.496 9.043 10.78 12.693.421.675-.79 7.933-2.495 9.098 0 0 1.254 2.288 2.512 1.276.324-.265 1.506-1.747 1.79-2.597.602-1.768-.046-2.862.714-4.473.394-.846 2.24-4.46 1.873-5.309-3.375-7.753-1.987-7.791-.586-10.59.61-1.215-28.864-11.067-14.588-.098z" style="fill:#b5bdc2"/><path d="M52.613 58.515c-.643 1.094-3.22 2.192-2.287 2.192h4.353s.893-.067.625-1.098c-1.341-.406-2.691-1.094-2.691-1.094z" style="fill:#302c3b"/><path d="M31.632 50.28c.93-2.219-2.2-3.803 1.725-14.638 5.002-13.808-13.406-13.72-10.666-.559 1.006 4.826 4.035 9.709 4.844 14.979.394 2.57 3.302 5.263 1.675 8.368.057.068 1.387 1.88 2.75 1.178 1.438-3.335-1.353-6.881-.328-9.328z" style="fill:#b5bdc2"/><path d="M29.21 58.43c-.63 1.092-3.068 2.277-2.152 2.277h4.283s.88-.068.62-1.1c-1.327-.404-2.75-1.176-2.75-1.176z" style="fill:#302c3b"/><path d="M45.568 45.36c0-.942 1.072-.855 1.072.192 0 2.535-1.072 2.391-1.072-.192zm2.824 0c0-.942 1.074-.855 1.074.192 0 2.535-1.074 2.391-1.074-.192z" style="fill:#d18e8e"/><linearGradient id="a" x1="40.673" x2="55.526" y1="42.383" y2="42.383" gradientUnits="userSpaceOnUse"><stop offset="0" style="stop-color:#f5acac"/><stop offset="1" style="stop-color:#d18e8e"/></linearGradient><path d="M40.673 44.337c2.899-1.975 2.54 1.522 5.403 1.794.607 1.994 1.039 1.936 1.556.455.467-1.336 1.11-1.094 1.665-.115.68 1.196 1.072 1.328 1.347-.122 3.197-.498 5.785-2.533 4.58-7.92 0 0-8.646-5.509-14.55 5.908z" style="fill:url(#a)"/><linearGradient id="b" x1="35.787" x2="35.787" y1="45.338" y2="29.585" gradientUnits="userSpaceOnUse"><stop offset="0" style="stop-color:#b5bdc2"/><stop offset=".094" style="stop-color:#bec7cc"/><stop offset=".274" style="stop-color:#cbd4d9"/><stop offset=".442" style="stop-color:#cfd8dd"/></linearGradient><path d="M13.046 30.02c4.037 2.356 7.135 7.683 8.442 10.584 3.002 6.671 4.203 2.052 11.826 3.733 3.81.842 5.342 2.952 13.8-3.614 3.515-2.728 7.218 1.426 10.316-1.93 2.656-2.88 1.677-9.688 2.07-13.629.379-3.822-1.43-4.985-3.801-4.762-10.717 1.013-16.297.84-20.002.28-4.832-.732-12.332-2.217-15.71-2.821a136.891 136.891 0 0 0-4.37-.708c-2.971-.437-4.872 11.527-2.57 12.868z" style="fill:url(#b)"/><path d="M49.058 38.017c7.094 5.486 7.104 8.038 9.364 11.685.418.677.52 8.943-1.166 10.105 0 0 1.24 2.288 2.482 1.274.322-.262.942-1.868 1.223-2.716.595-1.768.002-6 .752-7.612.39-.845.83-1.356.465-2.201-3.34-7.756-2.366-7.75-1.801-10.751 1.09-5.784-.092-12.63-1.205-15.173-2.754-6.308-21.594 6.467-10.114 15.39z" style="fill:#cfd8dd"/><path d="M57.256 59.807C56.62 60.903 54.07 62 54.99 62h4.308s.885-.065.62-1.097c-1.326-.405-2.662-1.096-2.662-1.096z" style="fill:#302c3b"/><path d="M29.878 52.055c1.356-1.982-2.146-5.734 1.996-14.59 6.24-13.376-8.568-15.957-9.302-2.61-.268 4.898 4.28 10.901 3.732 16.19-.268 2.585.527 5.577-.95 8.682.054.065 1.259 1.879 2.499 1.177 1.307-3.333.531-6.663 2.025-8.85z" style="fill:#cfd8dd"/><path d="M25.355 59.727C24.783 60.822 22.568 62 23.4 62h3.89s.8-.065.563-1.096c-1.203-.405-2.498-1.177-2.498-1.177z" style="fill:#302c3b"/><path d="M31.173 33.316c5.95-5.136-5.691-10.482-4.673-2.125.494 4.055-2.707 3.652-1.76 7.257 1.941 7.397 4.32 7.07 4.926 1.911.476-4.056-.506-5.308 1.507-7.043zm20.207-.234c3.977-1.88 3.807 5.553 7.135.583 2.399-3.58-.404-8.889-2.728-5.623-1.701 2.389-5.621-6.851-7.875-.382-1.13 3.237.437 6.855 3.469 5.422z" style="fill:#3c484f"/><path d="M35.697 20.682c1.853 4.391-2.121.614-3.024 4.018-1.138 4.298 6.053 3.476 3.891 8.234-2.228 4.903 5.238 10.362 5.506 4.7.277-5.9 6.01-3.15 2.678-8.821-2.793-4.755 1.9-6.094.935-7.732-6.201.09-9.986-.399-9.986-.399z" style="fill:#3c484f"/><path d="M12.78 14.378c-2.435-.348-2.996-2.641-3.135-2.27-.246.69.86 2.982 2.336 3.788.847.467 1.496-1.418.799-1.518z" style="fill:#e3b78d"/><linearGradient id="c" x1="-15.444" x2="-4.147" y1="21.616" y2="19.309" gradientTransform="rotate(3.314 -42.648 308.05)" gradientUnits="userSpaceOnUse"><stop offset="0" style="stop-color:#e8c6bc"/><stop offset=".065" style="stop-color:#e1cbc5"/><stop offset=".231" style="stop-color:#d4d5d7"/><stop offset=".351" style="stop-color:#cfd8dd"/></linearGradient><path d="M10.88 13.977c-3.55 3.393-4.394 2.572-6.182 5.788-.927 1.667-2.892 4.267-3.492 4.801-.978.872.026 3.233.026 3.233s.24.42.576.58c-.082.695.867.944 1.506.917.898-.04 2.287-.561 2.99-.295 3.658 1.379 5.58.164 7.416 1.445 3.053-1.385 5.727-12.348 3.147-13.103-2.579-.754-3.977-5.29-5.987-3.366z" style="fill:url(#c)"/><path d="M3.853 23.64c-.215 1.435 1.896 3.216 3.25 2.334 4.06-2.644 3.473.715 5.672-.389 2.265-1.137 2.845-7.066 1.343-8.903-.472-.579-1.84.756-2.798-.156-1.342-1.277-6.67 1.494-5.874 4.463.255.94-1.47 1.836-1.593 2.65z" style="fill:#3c484f"/><path d="M5.068 27.163c-.752 1.555-3.26 1.217-3.26 1.217s1.935-.181 3.26-1.217z" style="opacity:.8;fill:#1a1626"/><path d="M12.069 14.295c-3.21.154-3.628-2.684-3.76-2.25-.232.804-.024 3.355 2.954 4.044 1.053.244 1.613-1.833.806-1.794z" style="fill:#f6c799"/><linearGradient id="d" x1="13.841" x2="17.966" y1="19.591" y2="16.938" gradientTransform="matrix(1.1145 .0696 .0696 1.0424 -4.824 -3.02)" gradientUnits="userSpaceOnUse"><stop offset="0" style="stop-color:#3c484f"/><stop offset=".873" style="stop-color:#313436"/></linearGradient><path d="M12.267 19.59c.406-1.194 3.336-.062 4.283-3.461.133-.474-.078-.508-.406-.555-3.818-.564-3.13 1.685-4.777 2.272-.217.12.345 1.68.9 1.743z" style="fill:url(#d)"/><path d="M11.8 18.755c3.818.48 4.877-2.671 4.344-2.65-2.635.1-2.521 1.22-3.75 1.802-.654.311-.734.835-.594.848z" style="fill:#232526"/><path d="M1.544 26.002c-.076.256-.064 1.923-.312 1.797-2.39-1.176-.68-3.18-.026-3.232.45-.036.604.534.338 1.435z" style="fill:#e8b4a5"/><path d="M1.214 25.36c.268-.071-.42 1.638-.627 1.465-.35-.288-.314-1.23.627-1.466z" style="fill:#945744"/><path d="M18.085 17.537c-.994 1.532-3.85 6.935-1.42 8.001 2.625 1.153-2.185 3.182-1.138 6.375 0 0 2.836 3.157 5.183 7.106 1.012-.564-.578-4.88 1.93-6.43 2.39-1.474 2.328-6.029 1.03-8.36-1.424-2.555-3.967-1.705-3.682-6.368-.979-.245-1.903-.324-1.903-.324z" style="fill:#3c484f"/><path d="M6.882 19.348c-.93.176-.901.965-.691 1.643.156.504 2.5.061 2.463-.465-.053-.766-.921-1.338-1.772-1.178z" style="fill:#4e585e"/><radialGradient id="e" cx="-10.96" cy="66.718" r="1.441" fx="-11.425" fy="66.128" gradientTransform="matrix(.7582 -.1431 .1455 .7823 5.968 -33.312)" gradientUnits="userSpaceOnUse"><stop offset=".043" style="stop-color:#413f4a"/><stop offset=".284" style="stop-color:#3d3a46"/><stop offset=".558" style="stop-color:#302d3a"/><stop offset=".847" style="stop-color:#1a1626"/></radialGradient><path d="M6.88 19.546c.68-.129 1.643.278 1.774.98.045.242-.647.8-1.416.946-.768.145-1.002-.239-1.047-.48-.13-.703.009-1.318.69-1.446z" style="fill:url(#e)"/><path d="M7.083 20.042c.064.341-.477.443-.54.102-.064-.342.476-.444.54-.102z" style="fill:#6e8189"/></svg>