<svg xmlns="http://www.w3.org/2000/svg" xml:space="preserve" style="enable-background:new 0 0 64 64" viewBox="0 0 64 64"><path d="M1.141 44.52c.1.09-.34.119-.78.332-.022-.719.314-.746.78-.332z" style="fill:#3f6314"/><path d="M12.856 52.967c-.346 1.213-1.182-2.898-2.291 1.056-.186.663-.995-.504-.657-1.868.155-.63-.756.019-1.592 1.35-.25.4-.57-1.097.293-2.077-.342.061-1.086.647-1.405.954-.577.557-.737-1.026.694-1.713 0 0-.722-.138-1.253.32-.46.399-.704-1.113 1.039-1.549 1.637-.409 1.442-.687 2.158-.778 1.568-.197 4.242-.012 3.014 4.305z" style="fill:#4b7518"/><path d="M6.313 50.638c-.1.21-.108.507-.098.714.007.14.058.158.118.046.084-.152.215-.356.37-.477.096-.074-.28-.516-.39-.283zm.48 1.454c-.089.209-.083.498-.064.699.014.14.065.153.121.044.077-.151.198-.357.345-.48.093-.076-.302-.495-.402-.263zm1.237.968c-.043.264.025.594.087.818.043.154.096.156.127.016.042-.195.117-.465.234-.646.074-.115-.4-.48-.448-.188zm2.078.917c.047.23.218.47.35.63.09.108.14.09.122-.036-.025-.172-.044-.418.006-.61.031-.118-.53-.24-.478.017zm2.731-.983c-.047.229-.22.47-.352.629-.09.108-.14.09-.12-.034.023-.174.04-.492-.009-.684-.03-.12.532-.165.48.09z" style="fill:#a9b06c"/><path d="M35.71 58.709c-.397.44.021.723.51.481 1.774-.876 2.142-.834 2.13 1.77-.002.424.492.585.676.108.995-2.582.724-2.346 2.381-.127.165.22.933.358.75-.243-.949-3.096-.365-1.712 1.868-.682.526.243 1.073-.141.605-.528-2.323-1.924-1.804-1.843.356-1.865.325-.003.639-.454.284-.598-1.769-.715-2.905-2.5-5.217-1.937-2.895.705-3.215 2.369-4.343 3.621z" style="fill:#4b7518"/><path d="M45.07 57.606c.26-.086.602-.088.846-.075.175.011.195-.055.033-.162-.234-.151-.591-.348-.914-.383-.36-.04-.128.673.035.62zm-.733 2.468c.27.018.575.142.784.244.155.074.201.02.107-.133-.138-.226-.364-.533-.634-.683-.302-.169-.427.56-.257.572zm-2.93.867c.218.244.361.61.445.875.06.195.154.188.227-.027.1-.314.161-.73.077-1.09-.097-.401-.886.086-.749.242zm-5.649-2.225c-.247.198-.421.542-.523.792-.067.168-.011.212.13.113.193-.137.57-.357.837-.422.168-.039-.172-.701-.444-.483zm2.585 2.276c-.016.297.134.65.26.89.086.162.161.154.179-.005.03-.22.117-.618.253-.838.085-.137-.675-.378-.692-.047z" style="fill:#a9b06c"/><path d="M29.827 30.6c-.306-6.713 9.011-8.416 10.847-5.978.393.526-10.813 6.716-10.847 5.978zm-15.54 10.155c-.307-6.713 9.013-8.419 10.848-5.979.392.525-10.815 6.715-10.848 5.979z" style="fill:#6a9636"/><linearGradient id="a" x1="8.915" x2="63.176" y1="33.458" y2="33.458" gradientUnits="userSpaceOnUse"><stop offset="0" style="stop-color:#6a9636"/><stop offset=".372" style="stop-color:#628e2e"/><stop offset=".962" style="stop-color:#4d771a"/><stop offset="1" style="stop-color:#4b7518"/></linearGradient><path d="M60.952 13.543s6.307 9.589-2.322 17.634c-3.843 3.585-4.07 2.088-4.757 4.843-2.618 10.494-31.321 25.112-44.499 12.43-3.166-3.044 11.052-8.813 11.896-9.1 10.029-3.425 9.498-7.473 20.839-12.617 7.945-3.602 18.435-5.515 18.843-13.19z" style="fill:url(#a)"/><linearGradient id="b" x1="8.807" x2="54.288" y1="44.252" y2="44.252" gradientUnits="userSpaceOnUse"><stop offset="0" style="stop-color:#dbd59e"/><stop offset=".154" style="stop-color:#d2d096"/><stop offset=".406" style="stop-color:#bac27f"/><stop offset=".722" style="stop-color:#92ac5b"/><stop offset="1" style="stop-color:#6a9636"/></linearGradient><path d="M54.256 34.768C52.369 48.548 22.352 62.087 9.374 48.45c-3.047-3.2 7.14-5.684 7.985-5.972 10.027-3.425 8.816 10.801 20.159 5.66 14.162-2.372 17.124-16.2 16.738-13.371z" style="fill:url(#b)"/><path d="M56.428 8.524s-2.38-5.015-2.905-4.207c-.23.355-.696 1.02-.696 1.02s-1.567-2.861-1.984-2.075c-.154.29-.723 1.892-.929 2.853l6.514 2.409z" style="fill:#3f6314"/><path d="M59.314 11.083s-.531-4.565-1.056-3.753c-.231.354-.739 1.194-.739 1.194s-1.144-3.697-1.562-2.91c-.152.289-.653 1.35-.914 3.253l4.27 2.216z" style="fill:#5b8c22"/><path d="M61.77 13.722s.228-3.695-.3-2.887c-.229.354-.637.757-.637.757s-.025-3.052-.679-2.52c-.34.273-1.277 1.81-1.277 1.81l2.893 2.84z" style="fill:#3f6314"/><path d="M62.713 16.472s.279-2.47 0-2.23c-.104.087-.314.364-.314.364s-.045-2.392-.29-2.03c-.253.378-.595 1.374-.595 1.374l1.199 2.522z" style="fill:#5b8c22"/><path d="M52.31 20.892c-10.735 2.43-27.467 15.387-32.696 16.376-4.072.77-2.042-.968-1.197-1.253 7.756-2.652 11.605-8.484 18.593-11.791.843-.398 1.452-.411 2.485-1.092.901-.598 1.586-.23 2.964-.745.38-.144 1.091 0 1.727-.394.88-.549 1.992.102 2.735-.401.552-.373 1.317-.015 1.825-.347.734-.475 1.606-.042 2.116-.54.46-.448.876-.288 1.267-.448 2.974-1.214 1.527.329.18.635z" style="fill:#3f6314"/><linearGradient id="c" x1="18.141" x2="62.629" y1="23.566" y2="23.566" gradientUnits="userSpaceOnUse"><stop offset="0" style="stop-color:#7db03f"/><stop offset=".245" style="stop-color:#76a839"/><stop offset=".632" style="stop-color:#62912a"/><stop offset="1" style="stop-color:#4b7518"/></linearGradient><path d="M52.577 6.7s10.74 4.54 10.017 10.24c-.716 5.624-12.86 7.686-15.455 10.252-8.287 8.199-17.764 12.159-22.994 13.146-4.074.773-6.69-3.463-5.845-3.754 10.026-3.426 13.543-12.48 25.664-14.04 8.464-1.09 12.013-3.155 12.743-7.138.863-4.725-3.132-7.378-4.13-8.706z" style="fill:url(#c)"/><path d="M18.753 37.285c4.32-1.377 8.07-4.334 11.82-7.248 1.886-1.445 3.822-2.851 5.888-3.983 2.061-1.142 4.25-1.992 6.493-2.493 1.121-.264 2.264-.391 3.381-.544a26.487 26.487 0 0 0 3.318-.703c2.176-.626 4.324-1.54 6.17-3.013.908-.74 1.766-1.623 2.298-2.748.52-1.121.487-2.522.128-3.72-.367-1.22-1.089-2.264-1.881-3.177-.79-.931-1.737-1.672-2.526-2.605.804.917 1.76 1.635 2.569 2.553.81.904 1.555 1.94 1.953 3.18.382 1.227.45 2.656-.08 3.864-.538 1.185-1.404 2.101-2.32 2.88-1.861 1.538-4.027 2.507-6.22 3.19a28.186 28.186 0 0 1-3.354.78c-1.128.178-2.24.321-3.338.607-2.197.534-4.323 1.41-6.327 2.568-2.008 1.151-3.893 2.573-5.747 4.049-1.86 1.476-3.706 3.008-5.674 4.351-1.963 1.348-4.068 2.49-6.27 3.263l-.281-1.05z" style="fill:#4b7518"/><path d="M50.801 5.864c2.287 1.002 4.512 2.236 6.527 3.85.997.82 1.954 1.736 2.686 2.895.73 1.125 1.177 2.65.786 4.073-.385 1.416-1.376 2.437-2.376 3.245-1.022.808-2.132 1.443-3.257 2.014-2.254 1.14-4.596 2.002-6.868 3.017-1.126.535-21.429 13.477-26.31 14.494l-.158-1.083C26.605 37.466 47 24.952 48.127 24.442c2.308-.983 4.65-1.796 6.896-2.883 1.121-.544 2.223-1.148 3.232-1.92.989-.764 1.942-1.735 2.314-3.038.383-1.31-.006-2.758-.704-3.871-.695-1.142-1.628-2.075-2.605-2.903-1.983-1.64-4.187-2.92-6.459-3.963z" style="fill:#4b7518"/><path d="M56.473 23.086c-3.488 1.722-7.813 3.22-9.148 4.541-8.29 8.197-17.601 11.817-22.83 12.807-4.075.77-1.25-.224-.39-.435 4.327-1.068 13.149-4.273 22.786-12.853 2.334-2.08 6.72-3.305 9.57-4.506 1.004-.423.398.255.012.446z" style="fill:#3f6314"/><path d="M8.153 21.496c-1.444.51 3.086 1.614 9.595-2.348.632-1.973-.945-2.404-.945-2.404s-1.335-.095-1.512.35c-.077.192.182.596.182.596s-1.252.134-1.367.547c-.044.153.21.237.21.237s-1.572 1.406-6.163 3.022z" style="fill:#4b7518"/><path d="M17.748 19.148s1.525-.72 2.982-1.453c1.022-2.298-1.192-3.268-1.192-3.268s-1.635-.127-1.81.318c-.078.195.382.828.382.828s-1.645-.087-1.761.327c-.044.15 1.287 1.899 1.4 3.248z" style="fill:#6a9636"/><path d="M20.73 17.695s2.078-.97 3.901-1.921c1.117-2.742-1.497-4.3-1.497-4.3s-2.15-.168-2.378.416c-.1.255.5 1.09.5 1.09s-2.16-.118-2.312.427c-.055.2 1.637 2.515 1.786 4.288z" style="fill:#4b7518"/><path d="M24.631 15.774s2.165-1.142 4.435-1.96c1.58-2.931-1.244-4.92-1.244-4.92s-2.888-.536-3.15.141c-.117.296.572 1.263.572 1.263s-2.473-.134-2.648.495c-.066.234 1.87 2.928 2.035 4.98z" style="fill:#6a9636"/><path d="M29.066 13.815s2.522-.989 4.88-1.54c2.03-2.618-.691-5.744-.691-5.744s-3.227-1.112-3.49-.431c-.115.295.084 1.535.084 1.535s-2.595-.645-2.772-.018c-.064.232 1.822 4.146 1.989 6.198z" style="fill:#4b7518"/><path d="M38.304 5.064S35.7 3.212 35.322 3.917c-.165.31.39 1.7.39 1.7s-2.934-1.404-3.217-.732c-.104.247 1.657 5.041 1.45 7.39 0 0 2.417-.507 5.069-.676 3.386-2.547-.71-6.535-.71-6.535z" style="fill:#6a9636"/><path d="M43.9 3.785s-2.848-2.303-3.207-1.503c-.157.35.025 2.05.025 2.05s-2.97-1.58-3.234-.818c-.098.283 1.666 5.422 1.53 8.085 0 0 2.499-.149 4.918.182 2.615-3.1-.032-7.996-.032-7.996z" style="fill:#4b7518"/><path d="M49.914 4.832s-2.548-3.336-3.034-2.517c-.21.356-.274 1.425-.274 1.425s-2.693-2.37-3.078-1.578c-.144.292.977 6.7.404 9.62 0 0 2.782.325 4.81 1.105.963-3.643 1.172-8.055 1.172-8.055z" style="fill:#6a9636"/><path d="M54.625 8.524s-1.99-4.807-2.475-3.989c-.213.358-.32 1.65-.32 1.65s-1.68-3.44-2.066-2.647c-.143.291-.448 6.426-1.021 9.349 0 0 2.743.96 4.517 2.179.962-3.638 1.365-6.542 1.365-6.542z" style="fill:#4b7518"/><path d="M57.12 12.323s-.674-5.215-1.158-4.399c-.212.36-.42 1.424-.42 1.424s-1.005-4.029-1.39-3.238c-.145.294-.319 6.037-.892 8.956 0 0 1.464 1.175 2.562 2.709.961-3.64 1.298-5.452 1.298-5.452z" style="fill:#6a9636"/><path d="M56.6 15.83s-.295-2.423-.172-3.082c.058-.311.372.285.372.285s-.083-2.778.22-2.796c.108-.005.313 1.366.323 1.989.035 2.368-.743 3.603-.743 3.603z" style="fill:#3f6314"/><path d="M55.943 18.276s-.39-.831-.265-1.49c.057-.311.389-.362.389-.362s-.123-2.018.18-2.035c.105-.004.457.618.46 1.242 0 1.574-.764 2.645-.764 2.645z" style="fill:#3f6314"/><path d="M53.994 19.842s.049-.938.457-1.426c.191-.23.498-.073.498-.073s.37-1.372.637-1.203c.093.06.592.635.48.937-.46 1.212-2.072 1.765-2.072 1.765z" style="fill:#3f6314"/><path d="M54.002 18.868c-.21-.191-.906.782-.906.782s-.253-.196-.493-.06c-.512.28-.79.996-.79.996s1.681-.044 2.42-.874c.185-.208-.157-.774-.231-.844zm7.877.132s.02-1.852.13-2.233c.06-.204.38.241.38.241s.449-1.853.608-1.57c.108.193-.075 1.111-.16 1.467-.304 1.271-.959 2.095-.959 2.095z" style="fill:#3f6314"/><path d="M60.279 20.892s-.086-1.02.068-1.392c.084-.2.685-.085.685-.085s.18-1.544.483-1.53c.109.004.538.68.426 1.033-.4 1.252-1.662 1.974-1.662 1.974z" style="fill:#3f6314"/><path d="M59.958 20.257c-.268.037-.584.758-.584.758s-.278-.148-.494.033c-.465.373-.635 1.133-.635 1.133s1.265-.106 2.293-1.462c.077-.102-.46-.48-.58-.462z" style="fill:#3f6314"/><path d="M57.921 21.643c-.26.047-.599.58-.599.58s-.258-.084-.477.057c-.464.298-.665.852-.665.852s1.458-.145 2.444-1.032c.082-.075-.588-.475-.703-.457z" style="fill:#3f6314"/><linearGradient id="d" x1="40.933" x2="40.933" y1="56.885" y2="40.876" gradientUnits="userSpaceOnUse"><stop offset="0" style="stop-color:#4b7518"/><stop offset=".038" style="stop-color:#4d771a"/><stop offset=".628" style="stop-color:#628e2e"/><stop offset="1" style="stop-color:#6a9636"/></linearGradient><path d="M41.39 41.882c4.751 4.09 7.194 4.713 6.595 6.786-.595 2.057-5.788 4.705-5.479 6.907-.311 1.857-4.333 1.44-4.432.582-.194-1.68.925-4.628 2.02-6.572-2.585-1.295-2.755-1.611-5.352-2.886-3.246-1.59 2.55-8.343 6.648-4.817z" style="fill:url(#d)"/><path d="M34.574 43.2c-2.206 3.973 3.903 4.365 5.52 6.385-1.295-.25-3.155-.627-5.47-1.904-1.116-.617-1.514-2.736-.05-4.482z" style="fill:#a9b06c"/><path d="M54.482 45.713c-.22.552.27.669.644.27 1.36-1.452 1.722-1.543 2.605.9.143.398.662.375.67-.138.044-2.772-.129-2.455 2.186-.965.232.148.998.004.62-.493-1.954-2.564-.932-1.474 1.516-1.303.578.04.956-.512.386-.71-2.839-.976-2.324-1.085-.308-1.873.303-.119.443-.652.06-.663-1.903-.04-3.582-1.31-5.555.04-2.47 1.689-2.197 3.362-2.824 4.935z" style="fill:#4b7518"/><path d="M62.873 41.356c.215-.174.534-.298.767-.371.168-.054.164-.123-.025-.164-.272-.06-.674-.115-.988-.034-.35.091.111.676.246.569zm.162 2.572c.26-.08.588-.071.82-.05.17.014.195-.052.052-.163-.207-.162-.524-.37-.827-.415-.342-.05-.208.677-.045.628zm-2.448 1.852c.29.152.55.445.719.662.125.161.21.121.203-.105-.012-.331-.1-.743-.302-1.05-.23-.34-.8.397-.62.493zm-6.057-.078c-.163.274-.207.657-.216.928-.006.181.062.202.158.06.135-.197.412-.537.64-.693.144-.096-.401-.597-.582-.295zm3.205 1.215c.087.284.35.561.55.741.136.12.204.088.167-.068-.05-.217-.104-.62-.053-.874.033-.16-.76-.115-.664.201z" style="fill:#a9b06c"/><linearGradient id="e" x1="148.171" x2="148.171" y1="100.792" y2="85.376" gradientTransform="rotate(-20.457 -58.133 324.87)" gradientUnits="userSpaceOnUse"><stop offset="0" style="stop-color:#4b7518"/><stop offset=".038" style="stop-color:#4d771a"/><stop offset=".628" style="stop-color:#628e2e"/><stop offset="1" style="stop-color:#6a9636"/></linearGradient><path d="M53.872 28.861c1.094.689 4.059 3.866 4.794 5.527.865 1.957.06 4.022 1.108 5.973.345 1.852-3.63 2.82-4.018 2.051-.76-1.504-1.329-3.596-1.884-3.92-.801-.468-2.85-.482-3.871-1.48-2.514-2.455-.693-11.022 3.871-8.15z" style="fill:url(#e)"/><path d="M53.515 36.79c1.805.884 1.274 2.733 2.24 5.622-.759-1.504-1.476-3.383-2.03-3.707-.802-.47-2.735-.526-3.755-1.523-.469-.456-1.105-1.834-1.074-2.965.344 1.719 1.764 1.173 4.619 2.572z" style="fill:#a9b06c"/><path d="M.622 46.535c-.995.447-1.056 4.178 5.67 3.567 6.326-.57 22.017 4.02 19.899-7.634-.662-3.654-20.03 1.583-25.569 4.067z" style="fill:#dbd59d"/><path d="M4.096 43.72c-3.224-.35-5.873 3.453-2.158 4.085.316.382 1.231.226 1.598-.054.259.51 1.145.66 1.398.01.224.579 1.108.538 1.114-.082.263.514 1.236.388 1.327-.118.373.506 1.272.4 1.494-.11.152.49.88.58.99.133.15.702.973.61 1.073-.045.096.654.933.654 1.14-.283.572.412 1.022-.02 1.082-.493.313.363.927.145.973-.452.252.508.778.562 1.151.164.12.506.75.47.914.125.314.38.911.446.973-.125.36.18.748.053 1.004-.388 1.512 0 2.381-1.682 3.373-2.8 2.374-2.682 4.146.128 4.725-.512-1.33-4.476-20.223 1.157-22.17.946z" style="fill:#4b7518"/><path d="M6.101 47.373c-.558 2.036-.662 2.019-1.115.078-.107-.463 1.27-.64 1.115-.078zm-4.151-.114c.636 1.94.781 1.957 1.564-.078.216-.563-1.716-.385-1.564.078z" style="fill:#fff9b7"/><path d="M.741 46.832c.52 1.752.472 2.184 1.113.347.175-.508-1.238-.765-1.113-.347zm7.973.543c-.556 2.035-.792 2.017-1.245.076-.108-.463 1.4-.64 1.245-.076zm1.144-.037c-.257.934-.595 1.455-.944-.036-.108-.462 1.096-.526.944.036zm3.178-.618c.05.968-.108 1.57-.906.27-.247-.403.875-.854.906-.27zm-1.054.094c-.16 2.106-.395 2.135-1.208.32-.196-.433 1.25-.902 1.208-.32z" style="fill:#fff9b7"/><linearGradient id="f" x1="7.858" x2="13.458" y1="37.463" y2="43.546" gradientUnits="userSpaceOnUse"><stop offset="0" style="stop-color:#4b7518"/><stop offset=".503" style="stop-color:#6e9e33"/><stop offset=".785" style="stop-color:#7db03f"/></linearGradient><path d="M12.716 36.722c-2.337-.429-4.83-.706-4.508 2.342-2.235 1.395-.891 2.643-3.912 4.68 9.201-.756 12.093-7.397 11.917-7.351-.921.237-1.482-.333-3.497.33z" style="fill:url(#f)"/><linearGradient id="g" x1="10.232" x2="14.25" y1="35.372" y2="46.539" gradientUnits="userSpaceOnUse"><stop offset="0" style="stop-color:#4b7518"/><stop offset=".368" style="stop-color:#62912a"/><stop offset=".755" style="stop-color:#76a839"/><stop offset="1" style="stop-color:#7db03f"/></linearGradient><path d="M20.604 37.67c-.985-2.765-5.501-2.434-6.68.993-2.776.731-7.89 5.178-9.828 4.894-1.804-.265-3.518.89-3.68 1.181-.438.785-1.118 2.636 1.522 2.815.316.373 1.231.221 1.598-.05.259.497 1.145.644 1.398.006.224.567 1.108.53 1.114-.078.263.503 1.236.378 1.328-.117.372.495 1.271.391 1.493-.108.152.479.88.568.99.132.15.685.973.596 1.073-.044.096.64.933.64 1.14-.28.572.406 1.022-.022 1.082-.48.313.354.927.143.973-.444.252.498.779.549 1.151.16.12.496.75.462.914.125.314.371.911.436.973-.125.36.178.748.052 1.004-.38 1.512 0 2.381-1.644 3.373-2.739 2.374-2.625 4.146.27 4.725-.355 1.44-1.564-1.732-5.248-5.663-5.106z" style="fill:url(#g)"/><path d="M3.838 45.773c.051.173-.476-.11-1.136-.182.491-.842.898-.63 1.136.182z" style="fill:#3f6314"/><path d="M4.758 47.844c-.525-1.465-.355-1.63-1.001-.093-.18.424 1.127.442 1.001.093zm2.45-.229c-.525-1.465-.355-1.63-1.002-.094-.244.577 1.148.498 1.002.094zm3.65-.084c-.477-1.65-.32-1.835-.908-.103-.213.628 1.1.765.908.103z" style="fill:#fff9b7"/><path d="M19.686 38.262c-.083 2.262-2.717 2.187-3.357 1.15.385-2.067 3.371-1.54 3.357-1.15z" style="fill:#1a1626"/><path d="M19.1 37.94c1.272 2.127-2.536 2.807-2.575 1.09 1.053-1.232 2.276-1.589 2.575-1.09z" style="fill:#a19f17"/><path d="M18.916 37.897c1.115 1.9-2.224 2.508-2.258.974.923-1.102 1.996-1.421 2.258-.974z" style="fill:#b0ae3f"/><path d="M18.753 39.753c.144-1.167-.82-1.919-.91-1.892-.09.026.634 1.261.298 2.124.25.093.6-.139.612-.232z" style="fill:#1a1626"/><path d="M18.908 38.436c-.007.32-.505.293-.497-.027.007-.319.504-.292.497.027z" style="fill:#fff"/><path d="M16.63 40.114s1.371 1.357 3.189-.074c-1.743.95-3.19.075-3.19.075z" style="fill:#4b7518"/><path d="M18.172 40.254s1.464.24 1.943-1.534c-.65 1.428-1.943 1.534-1.943 1.534zM3.977 45.34s-.398-1.095-1.157-.304c.698-.465 1.157.304 1.157.304z" style="fill:#4b7518"/><path d="M10.426 42.19s-1.257-1.562-3.624-.406c2.179-.688 3.624.406 3.624.406zm2.178-1.197s-1.39-1.617-4.386-.563c2.722-.593 4.386.563 4.386.563z" style="fill:#57871c"/><path d="M19.92 38.37c-1.168-1.928-3.257-.702-3.75 1.223 1.45-1.603 2.411-2.13 3.75-1.224z" style="fill:#4b7518"/></svg>