<svg xmlns="http://www.w3.org/2000/svg" xml:space="preserve" style="enable-background:new 0 0 64 64" viewBox="0 0 64 64"><linearGradient id="a" x1="55.83" x2="56.443" y1="-.62" y2="22.512" gradientUnits="userSpaceOnUse"><stop offset="0" style="stop-color:#f0debe"/><stop offset=".061" style="stop-color:#f2dcb5"/><stop offset=".308" style="stop-color:#f7d697"/><stop offset=".551" style="stop-color:#fcd181"/><stop offset=".785" style="stop-color:#fece74"/><stop offset="1" style="stop-color:#ffcd70"/></linearGradient><path d="M53.959 18.831C56.439 13.804 56.01 8.29 56.01 8.29c-2.564-1.832-1.533-4.702.205-4.854 1.787-.156 3.474 3.225 1.206 4.71 0 0 1.523 5.58.45 11.135-.441 2.284-4.756 1.258-3.913-.45z" style="fill:url(#a)"/><path d="M57.638 7.367c1.356-1.448-.012-3.971-1.521-3.318-1.497.648.402 4.512 1.521 3.318z" style="fill:#2d2d30"/><path d="M56.25 4.51c-.303.5.288.958.59.455.303-.502-.287-.96-.59-.455z" style="fill:#fff"/><radialGradient id="b" cx="-9.069" cy="45.933" r="16.173" fx="-14.6" fy="56.978" gradientTransform="matrix(.4261 .9998 -.6685 .2823 48.525 43.806)" gradientUnits="userSpaceOnUse"><stop offset=".328" style="stop-color:#5e453a"/><stop offset=".357" style="stop-color:#6c5246"/><stop offset=".424" style="stop-color:#866a5d"/><stop offset=".491" style="stop-color:#997b6e"/><stop offset=".562" style="stop-color:#a48578"/><stop offset=".637" style="stop-color:#a8887b"/><stop offset=".714" style="stop-color:#a48578"/><stop offset=".784" style="stop-color:#997b6e"/><stop offset=".852" style="stop-color:#876a5e"/><stop offset=".917" style="stop-color:#6d5347"/><stop offset=".948" style="stop-color:#5e453a"/></radialGradient><path d="M2.887 43.8c3.328-23.41 25.86-6.253 22 10.204-3.666 8.093-17.428 7.176-22-10.203z" style="fill:url(#b)"/><radialGradient id="c" cx=".239" cy="40.522" r="21.187" fx="-16.969" fy="47.368" gradientTransform="matrix(1.0911 0 0 1.086 23.85 -2.179)" gradientUnits="userSpaceOnUse"><stop offset=".383" style="stop-color:#5e453a"/><stop offset=".417" style="stop-color:#6c5246"/><stop offset=".493" style="stop-color:#866a5d"/><stop offset=".572" style="stop-color:#997b6e"/><stop offset=".653" style="stop-color:#a48578"/><stop offset=".74" style="stop-color:#a8887b"/><stop offset=".789" style="stop-color:#a48578"/><stop offset=".834" style="stop-color:#997b6e"/><stop offset=".878" style="stop-color:#866a5d"/><stop offset=".921" style="stop-color:#6c5246"/><stop offset=".94" style="stop-color:#5e453a"/></radialGradient><path d="M5.338 36.199c-.147-1.315 1.31-5.357 3.337-7.262.797-2.203 3.402-4.511 5.223-5.036 1.577-1.995 8.844-3.79 11.13-2.648 1.901-.55 6.702 1.065 7.94 2.323 1.642-.039 5.316 2.334 5.682 3.677 1.654.568 3.806 2.908 4.258 4.414 0 0 2.054-.67 2.383 1.137 1.783 9.757-17.134 18.186-21.063 22.398.45-1.096.715-3.046.147-4.56.088-2.456-.474-6.053-1.77-7.268.137-3.598-3.422-8.139-5.975-8.419-1.306-1.551-4.292-2.452-6.088-1.728-1.873 0-4.419 1.53-5.204 2.972z" style="fill:url(#c)"/><radialGradient id="d" cx="26.618" cy="41.104" r="14.169" gradientTransform="matrix(.5162 .8583 -1.272 .7753 64.212 -13.45)" gradientUnits="userSpaceOnUse"><stop offset=".586" style="stop-color:#a8887b"/><stop offset=".754" style="stop-color:#a68679"/><stop offset=".832" style="stop-color:#9e7f73"/><stop offset=".892" style="stop-color:#927467"/><stop offset=".942" style="stop-color:#7f6357"/><stop offset=".985" style="stop-color:#684e43"/><stop offset="1" style="stop-color:#5e453a"/></radialGradient><path d="M42.908 31.667s2.445-.7 2.383 1.137c-.587 17.456-7.17 21.238-22.127 23.315-1.273-4.236 17.432-5.24 19.744-24.452z" style="fill:url(#d)"/><path d="M32.968 23.576c-2.397 1.807-7.639 4.948-12.328 15.02 1.006-7.649 8.11-14.004 12.328-15.02zm5.682 3.677c-.895 6.335-9.1 14.117-13.281 20.486 4.622-9.743 10.068-13.953 13.28-20.486zm-28.109 5.974s-3.296 2.1-3.39 6.125c-.763-4.858 3.39-6.125 3.39-6.125zm6.089 1.728s-4.61 2.001-6.328 6.647c.953-6.202 6.328-6.647 6.328-6.647zm5.975 8.419s-5.63-.445-10.164 2.64c4.325-4.765 10.164-2.64 10.164-2.64zm1.77 7.267s-6.185 2.866-11.934 1.322c6.974 3.24 11.934-1.322 11.934-1.322zm-7.712 7.467c.659-.301-3.808-.216-6.378-4.002.955 3.08 4.896 4.676 6.378 4.002z" style="opacity:.3;fill:#291e1e"/><radialGradient id="e" cx="-15.005" cy="45.782" r="7.899" fx="-18.257" fy="50.863" gradientTransform="matrix(.2671 1.053 -.6434 .1617 40.943 55.938)" gradientUnits="userSpaceOnUse"><stop offset=".329" style="stop-color:#5e453a"/><stop offset=".335" style="stop-color:#61483d"/><stop offset=".398" style="stop-color:#806458"/><stop offset=".459" style="stop-color:#96786b"/><stop offset=".517" style="stop-color:#a38477"/><stop offset=".57" style="stop-color:#a8887b"/><stop offset=".661" style="stop-color:#a48578"/><stop offset=".745" style="stop-color:#997b6e"/><stop offset=".826" style="stop-color:#866a5d"/><stop offset=".905" style="stop-color:#6c5246"/><stop offset=".94" style="stop-color:#5e453a"/></radialGradient><path d="M2.898 45.73c1.942 9.315 7.789 9.807 9.346 5.47 1.64-8.82-7.932-18.016-9.345-5.47z" style="fill:url(#e)"/><radialGradient id="f" cx="-68.018" cy="37.76" r="3.395" fx="-68.628" fy="39.913" gradientTransform="matrix(.3298 1.2788 -.7947 .1963 57.09 125.99)" gradientUnits="userSpaceOnUse"><stop offset=".329" style="stop-color:#5e453a"/><stop offset=".335" style="stop-color:#61483d"/><stop offset=".398" style="stop-color:#806458"/><stop offset=".459" style="stop-color:#96786b"/><stop offset=".517" style="stop-color:#a38477"/><stop offset=".57" style="stop-color:#a8887b"/><stop offset=".661" style="stop-color:#a48578"/><stop offset=".745" style="stop-color:#997b6e"/><stop offset=".826" style="stop-color:#866a5d"/><stop offset=".905" style="stop-color:#6c5246"/><stop offset=".94" style="stop-color:#5e453a"/></radialGradient><path d="M2.251 45.48c.27 4.78 4.055 5.206 4.896 2.904.884-4.682-4.56-9.516-4.896-2.903z" style="fill:url(#f)"/><path d="M25.027 21.253c-1.474.488-7.892 4.014-8.521 12.74-1.395-6.339 4.344-12.63 8.521-12.74zM13.898 23.9c-.326.626-3.376 3.527-2.086 8.94-2.067-3.971-.491-7.474 2.086-8.94zm-5.223 5.037c-.554 2.143-.056 4.587-.056 4.587s-1.383-2.002.056-4.587zM5.05 42.934c.264.049-1.362.39-1.976 1.93.089-1.158 1.383-2.046 1.977-1.93zm1.888 5.019c.17-.27-1.424.752-3.214-.214 1.045 1.036 2.833.811 3.214.214z" style="opacity:.3;fill:#291e1e"/><radialGradient id="g" cx="-19.184" cy="44.407" r="1.394" fx="-20.096" fy="44.363" gradientTransform="matrix(1.0911 0 0 1.6342 23.85 -26.524)" gradientUnits="userSpaceOnUse"><stop offset=".207" style="stop-color:#a8887b"/><stop offset=".418" style="stop-color:#a58578"/><stop offset=".592" style="stop-color:#9b7c6f"/><stop offset=".753" style="stop-color:#896c60"/><stop offset=".904" style="stop-color:#71564b"/><stop offset="1" style="stop-color:#5e453a"/></radialGradient><path d="M2.002 46.102c-.072-1.876 2.004-2.457 2.35.38.217 1.773-2.234 2.652-2.35-.38z" style="fill:url(#g)"/><path d="M3.616 45.648c.159.49-.764.606-1.077-.116-.195-.451.82-.675 1.077.117z" style="opacity:.3;fill:#d4ab9b"/><path d="M10.197 42.76c.335.15-1.953.1-3.26 1.986.48-1.534 2.497-2.324 3.26-1.986zm-3.472-2.93c.326.032-1.446.671-1.588 2.717-.333-1.49.85-2.785 1.588-2.718zm5.455 8.933c.34-.32-2.523 1.113-5.284.466 1.509.883 4.52.26 5.284-.466zm-2.399 4.183c.442-.2-2.552-.144-4.277-2.686.64 2.067 3.283 3.14 4.277 2.686z" style="opacity:.3;fill:#291e1e"/><path d="M3.785 43.588c.551.358 1.337 1.445 1.436 2.884.07 1.013 1.073.426.963-.298-.188-1.236-.95-2.862-2.11-3.366-.72-.314-1.16.214-.29.78zm1.974-1.866c.965.533 2.383 2.225 2.669 4.546.201 1.633 1.853.598 1.607-.563-.418-1.984-1.84-4.551-3.847-5.27-1.249-.448-1.952.444-.429 1.287zm2.536-3.864c2.188.558 5.855 3.1 7.569 7.366 1.207 3.003 4.638.586 3.75-1.58-2.585-6.31-7.299-8.84-11.099-8.428-2.709.294-3.675 1.76-.22 2.642zm6.945-9.156c2.837-.801 8.665-.4 13.45 3.123 3.368 2.48 5.611-2.345 3.162-4.124-7.133-5.181-14.132-4.896-18.132-2.006-2.851 2.06-2.957 4.27 1.52 3.007z" style="opacity:.3;fill:#d4ab9b"/><linearGradient id="h" x1="58.814" x2="55.107" y1="48.743" y2="43.85" gradientTransform="rotate(-3.97 -229.494 -14.837)" gradientUnits="userSpaceOnUse"><stop offset="0" style="stop-color:#f0debe"/><stop offset=".061" style="stop-color:#f2dcb5"/><stop offset=".308" style="stop-color:#f7d697"/><stop offset=".551" style="stop-color:#fcd181"/><stop offset=".785" style="stop-color:#fece74"/><stop offset="1" style="stop-color:#ffcd70"/></linearGradient><path d="M61.801 27.917c-.204-.307-.864-2.954-3.114-5.203-.6-.6-1.805 1.578-.777 2.133 1.584.857 3.206 3.1 3.222 3.45.052 1.11 1.355.642.67-.38z" style="fill:url(#h)"/><path d="M53.342 59.306c9.838-.948-6.848-24.133 3.7-33.668 1.757-1.588-6.528.301-6.528.301s-6.277 32.074 2.828 33.367z" style="fill:#f5c56b"/><linearGradient id="i" x1="45.596" x2="63.063" y1="51.76" y2="31.288" gradientUnits="userSpaceOnUse"><stop offset="0" style="stop-color:#ffb854"/><stop offset=".123" style="stop-color:#f4b150"/><stop offset=".341" style="stop-color:#d69e47"/><stop offset=".627" style="stop-color:#a67f37"/><stop offset=".967" style="stop-color:#655421"/><stop offset="1" style="stop-color:#5e501f"/></linearGradient><path d="M50.449 60.478c14.134-2.114-4.7-21.881 5.736-34.542 3.378-4.099-.43-3.57-3.339-.112-7.096 8.436-2.397 34.654-2.397 34.654z" style="fill:url(#i)"/><radialGradient id="j" cx="43.865" cy="34.692" r="41.351" gradientTransform="matrix(.9967 0 0 1.0033 -.86 .022)" gradientUnits="userSpaceOnUse"><stop offset="0" style="stop-color:#ffcd70"/><stop offset=".296" style="stop-color:#fccb6f"/><stop offset=".491" style="stop-color:#f3c36a"/><stop offset=".658" style="stop-color:#e4b662"/><stop offset=".807" style="stop-color:#cfa457"/><stop offset=".945" style="stop-color:#b48c48"/><stop offset="1" style="stop-color:#a78141"/></radialGradient><path d="M58.349 19.732c-3.642-3.367-9.43-4.358-11.873-2.325-2.256 1.876-2.195 7.207-2.151 13.041.154 20.386-7.993 23.06-34.265 27.813C8.312 58.577 6.69 62 8.478 62h36.503c17.258 0 .428-23.721 8.886-35.248.346-.472 2.883.855 4.514.085 1.357-.641 1.412-5.77-.032-7.105z" style="fill:url(#j)"/><linearGradient id="k" x1="57.127" x2="53.6" y1="32.638" y2="24.247" gradientUnits="userSpaceOnUse"><stop offset="0" style="stop-color:#f0debe"/><stop offset=".061" style="stop-color:#f2dcb5"/><stop offset=".308" style="stop-color:#f7d697"/><stop offset=".551" style="stop-color:#fcd181"/><stop offset=".785" style="stop-color:#fece74"/><stop offset="1" style="stop-color:#ffcd70"/></linearGradient><path d="M57.016 31.017c-.172-.464-.08-3.982-2.415-7.713-.622-.994-3.193 1.132-1.943 2.26 1.928 1.741 3.368 5.189 3.254 5.623-.36 1.375 1.683 1.377 1.104-.17z" style="fill:url(#k)"/><path d="M55.84 20.326c-.289.784.733 1.218 1.422.594.677-.613-1.13-1.39-1.423-.594zm.76-1.936c-.416.369.094 1.372 1.145.821-.632-.54-1.144-.82-1.144-.82zm-1.067.049c-.752-.959-2.087-.76-1.734.408.358 1.194 2.504.576 1.734-.408z" style="fill:#ffd287"/><linearGradient id="l" x1="47.267" x2="52.783" y1="-1.722" y2="22.907" gradientUnits="userSpaceOnUse"><stop offset="0" style="stop-color:#f0debe"/><stop offset=".061" style="stop-color:#f2dcb5"/><stop offset=".308" style="stop-color:#f7d697"/><stop offset=".551" style="stop-color:#fcd181"/><stop offset=".785" style="stop-color:#fece74"/><stop offset="1" style="stop-color:#ffcd70"/></linearGradient><path d="M49.564 19.854c1.413-6.41-.83-12.317-.83-12.317-3.662-1.097-3.32-4.618-1.274-5.406 2.102-.81 5.193 2.303 2.927 4.744 0 0 3.582 5.588 4.03 12.076.184 2.667-5.333 3.08-4.853.903z" style="fill:url(#l)"/><path d="M50.403 5.943c1.18-2.075-1.258-4.36-2.87-3.103-1.601 1.246 1.897 4.815 2.87 3.103z" style="fill:#2d2d30"/><path d="M47.837 3.298c-.208.658.647.95.853.29.208-.66-.647-.952-.853-.29z" style="fill:#fff"/><path d="M20.661 58.142c-.008 1.63 2.413 1.36 3.281-.341.893-1.737-3.269-1.33-3.281.341zm7.111-3.397c-1.92.738-.596 3.186 1.765 3.33 2.413.152.204-4.082-1.765-3.33zm10.481 4.508c2.297.907 3.914-1.479 2.222-3.324-1.663-1.813-4.556 2.403-2.222 3.324zm-4.397-6.16c-1.991-.525-3.565 1.146-1.89 2.375 1.706 1.26 3.93-1.834 1.89-2.375zm-7.37 5.452c-1.197-.34-2.14.734-1.132 1.53 1.027.815 2.358-1.178 1.132-1.53zm-8.57-.894c-1.196-.341-2.14.734-1.132 1.53 1.027.815 2.358-1.178 1.133-1.53zm-4.147.603c-.673-.606-1.786-.234-1.44.596.351.85 2.128.026 1.44-.596zM45.64 55.48c.83-1.835-.932-3.468-2.544-1.995-1.652 1.501 1.69 3.872 2.544 1.994zm-12.236 2.617c-.729 1.374.684 2.63 2.048 1.537 1.398-1.112-1.299-2.945-2.048-1.537zm9.536 2.009c-1.217-.336-2.323.447-1.354 1.125.988.696 2.6-.779 1.354-1.125zm3.866-2.367c-1.014-1.146-3.255.691-1.892 1.77 1.39 1.103 2.928-.594 1.892-1.77zm1.658-11.437c1.381.407 2.105-1.336 1.002-2.356-1.125-1.046-2.416 1.937-1.002 2.356zm-3.704-1.945c-2.048-.297-3.386 1.537-1.557 2.568 1.865 1.057 3.656-2.262 1.557-2.568zm-3.595 6.689c-1.61-.257-2.643 1.23-1.2 2.084 1.473.877 2.849-1.818 1.2-2.084zm3.192-1.006c-.539 1.444 1.034 2.53 2.242 1.293 1.237-1.26-1.688-2.773-2.242-1.294zm3.487-9.277c-1.86-.25-3.34.938-1.778 1.674 1.592.754 3.684-1.415 1.778-1.674zm2.533 7.253c-1.161-1.022-3.139 1.052-1.64 1.967 1.528.939 2.828-.918 1.64-1.967zm-.155 7.564c-.618-.7-1.984.422-1.153 1.08.846.675 1.784-.362 1.153-1.08zm-8.36-8.013c-.618-.7-1.983.422-1.153 1.08.847.675 1.784-.362 1.153-1.08zm-5.077 7.589c.826.329 1.585-1.196.588-1.4-1.017-.21-1.432 1.062-.588 1.4zm.974-3.106c.92-.59-.711-1.5-1.56-.75-.87.764.615 1.351 1.56.75z" style="opacity:.4;fill:#ffd287"/></svg>