<svg xmlns="http://www.w3.org/2000/svg" xml:space="preserve" style="enable-background:new 0 0 64 64" viewBox="0 0 64 64"><path d="M15.58 46.422c1.045-3.555 4.396-.622 6.83-2.911l2.41.57c.321 5.848-5.149 2.749-7.22 5.848 0 0-.55-1.395.344-2.234 0 0-1.077-.144-2.322.515 0 0 .169-1.234 1.245-2.077 0 0-.568-.116-1.287.29z" style="fill:#ebacaf"/><path d="M21.469 28.75c-4.336 7.208-.185 8.512-.927 15.74-.11 1.083 3.393.657 4.276.164 1.28-.719 4.553-1.342 4.74-13.666.044-2.86-5.856-5.952-8.09-2.237z" style="fill:#cfd8dd"/><path d="M33.779 47.103c.876-2.596 4.426-.816 6.474-2.488l5.861.704c1.758 3.882-6.705 1.005-10.638 4.346 0 0-.46-1.018.292-1.632 0 0-.908-.106-1.954.378 0 0 .14-.903 1.046-1.517 0 0-.479-.088-1.081.21z" style="fill:#ebacaf"/><linearGradient id="a" x1="104.165" x2="104.165" y1="152.355" y2="103.903" gradientTransform="rotate(42.22 164.009 .92)" gradientUnits="userSpaceOnUse"><stop offset="0" style="stop-color:#ffbdcc"/><stop offset=".489" style="stop-color:#ffa9bc"/><stop offset="1" style="stop-color:#ff8fa8"/></linearGradient><path d="M58.19 43.96c-3.271 1.658-4.325 3.295-4.013 3.584 4.74 4.389-.735 14.058-17.234 10.772-9.19-1.83-20.318-3.206-32.89.948-.4.133-.414.93-.074.808 9.657-3.463 21.812-1.669 32.958.888 21.317 4.89 28.22-8.589 21.254-17z" style="fill:url(#a)"/><path d="M19.43 52.063c1.043-3.555 4.395-.623 6.83-2.912l2.409.571c.32 5.848-5.15 2.748-7.221 5.848 0 0-.55-1.396.344-2.235 0 0-1.076-.144-2.321.516 0 0 .168-1.234 1.245-2.077 0 0-.569-.116-1.287.289zm16.053.953c.493-3.687 5.023-2.003 7.079-4.678l7.02-.239c2.86 4.89-7.657 2.72-11.58 8.035 0 0-.751-1.282.005-2.265 0 0-1.087.041-2.214.907 0 0-.022-1.249.914-2.262 0 0-.579-.022-1.224.502z" style="fill:#f6bec1"/><linearGradient id="b" x1="37.481" x2="37.481" y1="47.14" y2="13.779" gradientUnits="userSpaceOnUse"><stop offset="0" style="stop-color:#cfd8dd"/><stop offset=".119" style="stop-color:#d5dde2"/><stop offset=".465" style="stop-color:#e2e7ec"/><stop offset=".794" style="stop-color:#e6ebef"/></linearGradient><path d="M12.961 23.284c6.608 3.007 2.897 26.313 29.898 22.926C59 52.74 73.444 23.03 48.728 14.883c-11.954-3.938-16.608 4.03-20.515 2.707-3.13-1.054-12.614-2.42-15.252 5.694z" style="fill:url(#b)"/><linearGradient id="c" x1="51.956" x2="46.762" y1="38.811" y2="30.175" gradientUnits="userSpaceOnUse"><stop offset="0" style="stop-color:#e6ebef"/><stop offset=".794" style="stop-color:#e6ebef;stop-opacity:0"/></linearGradient><path d="M47.204 26.274c-14.768 6.364-6.145 20.474-5.613 21.291 1.228 1.899 8.576 2.882 8.694 1.084 7.6-.466 11.845-9.68 11.698-17.243-.15-7.692-9.497-7.41-14.78-5.132z" style="fill:url(#c)"/><linearGradient id="d" x1="28.259" x2="29.521" y1="42.358" y2="32.649" gradientUnits="userSpaceOnUse"><stop offset="0" style="stop-color:#e6ebef"/><stop offset=".794" style="stop-color:#e6ebef;stop-opacity:0"/></linearGradient><path d="M25.69 34.239c-4.337 7.207-.186 8.511-.927 15.74-.111 1.082 3.658 1.165 3.967.155 1.12-3.664 5.049-6.064 5.048-13.658 0-2.86-5.855-5.952-8.089-2.237z" style="fill:url(#d)"/><path d="M30.894 7.048c-.953-4.835-9.26-3.403-12.21.712-2.667 3.718 13.574 6.204 12.21-.712z" style="fill:#cfd8dd"/><linearGradient id="e" x1="22.577" x2="28.899" y1="48.857" y2="38.27" gradientTransform="rotate(12.89 130.513 -22.067)" gradientUnits="userSpaceOnUse"><stop offset="0" style="stop-color:#cfd8dd"/><stop offset=".119" style="stop-color:#d5dde2"/><stop offset=".465" style="stop-color:#e2e7ec"/><stop offset=".794" style="stop-color:#e6ebef"/></linearGradient><path d="M2.446 13.348c2.056 1.457.752 5.344 4.928 6.921 1.117.303.66.782.66.782-.199 1.136 4.177 1.834 5.574 2.74 5.01 3.253 14.9.708 17.198-8.937-5.076-11.709-17.669-6.99-28.36-1.506z" style="fill:url(#e)"/><path d="M17.737 11.457c-.231 3.021-3.045 3.886-5.057 1.425.653-2.81 3.85-3.358 5.057-1.425z" style="fill:#e81c27"/><path d="M14.763 12.066c-.257.845-1.378.446-1.116-.398.26-.843 1.373-.445 1.116.399z" style="fill:#ff8fa8"/><linearGradient id="f" x1="47.816" x2="36.751" y1="36.853" y2="30.928" gradientTransform="rotate(12.89 130.513 -22.067)" gradientUnits="userSpaceOnUse"><stop offset="0" style="stop-color:#cfd8dd"/><stop offset=".119" style="stop-color:#d5dde2"/><stop offset=".465" style="stop-color:#e2e7ec"/><stop offset=".794" style="stop-color:#e6ebef"/></linearGradient><path d="M22.436 15.01c3.658-10.844 18.166-13.499 16.657-3.196-1.83 12.502-17.424 5.471-16.657 3.197z" style="fill:url(#f)"/><linearGradient id="g" x1="35.55" x2="48.343" y1="32.963" y2="32.963" gradientTransform="rotate(12.89 130.513 -22.067)" gradientUnits="userSpaceOnUse"><stop offset="0" style="stop-color:#e0a6a9"/><stop offset=".6" style="stop-color:#f3ccc9;stop-opacity:.6398"/><stop offset="1" style="stop-color:#fde0da;stop-opacity:.4"/></linearGradient><path d="M24.685 14.856c1.07-8.012 15.145-12.397 13.75-3.006-1.334 8.994-13.997 4.854-13.75 3.006z" style="fill:url(#g)"/><path d="M4.356 16.812c-3.216-.784-3.013-4.49-.162-4.621 2.384-.112-.566 2.018.162 4.621z" style="fill:#ff8fa8"/><path d="M8.033 21.051c-.03-.357-.66-.782-.66-.782s1.79.342 3.76-.177c-1.124 1.006-3.1.959-3.1.959z" style="fill:#99a8ae"/></svg>