<svg xmlns="http://www.w3.org/2000/svg" xml:space="preserve" style="enable-background:new 0 0 64 64" viewBox="0 0 64 64"><path d="M42.114 37.184c6.336 5.442 6.856 10.043 8.873 13.662.375.67-.046 6.798-1.553 7.95 0 0 1.11 2.27 2.219 1.265.286-.261 1.33-1.73 1.583-2.574.531-1.754-.041-2.839.629-4.436.35-.84 1.33-3.352 1.006-4.192-2.982-7.69-1.106-8.802.13-11.577.54-1.206-25.496-10.978-12.887-.098z" style="fill:#323c43"/><path d="M49.434 58.797c-.565 1.086-2.844 2.173-2.021 2.173h3.847s.788-.065.554-1.087c-1.187-.403-2.38-1.086-2.38-1.086z" style="fill:#302c3b"/><path d="M25.488 51.105c1.338-1.965-2.124-5.686 1.97-14.47 6.167-13.264-8.468-15.826-9.192-2.588-.265 4.86 4.23 10.813 3.689 16.056-.265 2.565.521 5.53-.939 8.612.051.063 1.244 1.863 2.469 1.168 1.29-3.308.524-6.609 2.003-8.778z" style="fill:#323c43"/><path d="M21.016 58.715c-.565 1.086-2.755 2.255-1.933 2.255h3.846s.79-.065.556-1.087c-1.189-.403-2.469-1.168-2.469-1.168z" style="fill:#302c3b"/><path d="M56.54 20.91c3.366 1.348 5.537 6.621 5.962 8.453 1.042 4.492.362 13.128.974 18.263.043.38-1.395-.2-1.449-.575-.67-4.56.6-11.034-.836-16.453-1.752-6.61-8.26-11.13-4.65-9.688z" style="fill:#4e5e67"/><path d="M62.813 53.6c-.111-5.261-1.137-5.656-.4-10.032.386 3.585 1.09 4.47.4 10.032z" style="fill:#283036"/><path d="M62.116 51.422c0-6.31-1.027-5.965-.287-10.1 0 4.493 1.031 3.368.287 10.1zm.708-10.662c-1.033 3.9.793 7.18.349 11.588 1.085-4.874-.578-7.802-.349-11.587z" style="fill:#283036"/><path d="M62.627 42.142c2.346 5.729.974 10.206.974 10.206s.159-4.181-.974-10.206z" style="fill:#283036"/><linearGradient id="a" x1="37.217" x2="37.217" y1="47.58" y2="25.468" gradientUnits="userSpaceOnUse"><stop offset="0" style="stop-color:#283036"/><stop offset=".127" style="stop-color:#39444c"/><stop offset=".267" style="stop-color:#45535b"/><stop offset=".428" style="stop-color:#4c5b64"/><stop offset=".661" style="stop-color:#4e5e67"/></linearGradient><path d="M13.925 31.313c.452 3.75 4.331 6.114 5.029 8.176 4.05 11.954 12.209 7.045 14.507 6.917 3.328-.204 3.085 4.222 16.21-2.898 3.544-1.92 5.845 1.714 8.595-1.494 4.292-4.998 4.566-15.786.902-19.28-7.914-7.547-7.846-3.716-20.007-2.221-8.395 1.028-6.56-1.553-12.333-.686-2.432.365-6.468 2.7-12.903 1.6-2.544-.432-.33 7.105 0 9.886z" style="fill:url(#a)"/><path d="M47.624 38.214c6.335 5.442 6.856 10.043 8.873 13.66.374.67-.047 6.799-1.555 7.95 0 0 1.11 2.272 2.219 1.265.288-.262 1.331-1.73 1.584-2.573.531-1.754-.04-2.837.629-4.436.348-.838 1.33-3.351 1.005-4.191-2.982-7.692-.373-8.604.132-11.579 5.21-30.712-25.497-10.978-12.887-.096z" style="fill:#4e5e67"/><path d="M54.942 59.824C54.378 60.912 52.1 62 52.922 62h3.846s.79-.065.555-1.088c-1.188-.402-2.38-1.088-2.38-1.088z" style="fill:#302c3b"/><path d="M31.12 51.66c.833-2.201-3.429-5.083-1.54-14.518 2.837-14.238-12.033-13.606-9.573-.554.903 4.788 6.706 9.629 7.432 14.854.355 2.55 2.965 5.222 1.504 8.302.052.066 1.244 1.863 2.469 1.168 1.29-3.307-1.214-6.825-.292-9.252z" style="fill:#4e5e67"/><path d="M28.943 59.744C28.377 60.827 26.188 62 27.01 62h3.846s.788-.065.555-1.088c-1.189-.402-2.47-1.168-2.47-1.168z" style="fill:#302c3b"/><linearGradient id="b" x1="9.925" x2="12.611" y1="36.165" y2="19.189" gradientUnits="userSpaceOnUse"><stop offset="0" style="stop-color:#283036"/><stop offset=".127" style="stop-color:#39444c"/><stop offset=".267" style="stop-color:#45535b"/><stop offset=".428" style="stop-color:#4c5b64"/><stop offset=".661" style="stop-color:#4e5e67"/></linearGradient><path d="M8.238 32.58c.997 1.5 2.866 1.892 3.832 1.992.437.05.53-.007.31-.273-.318-.388-.607-.947-.722-1.696-.147-.93-3.848-.666-3.42-.023z" style="fill:url(#b)"/><linearGradient id="c" x1="12.009" x2="14.692" y1="36.508" y2="19.552" gradientUnits="userSpaceOnUse"><stop offset="0" style="stop-color:#283036"/><stop offset=".127" style="stop-color:#39444c"/><stop offset=".267" style="stop-color:#45535b"/><stop offset=".428" style="stop-color:#4c5b64"/><stop offset=".661" style="stop-color:#4e5e67"/></linearGradient><path d="M10.307 32.67c1.128 1.433 3.027 1.707 4.001 1.746.44.021.527-.041.287-.291-.351-.365-.69-.907-.872-1.644-.226-.916-3.897-.427-3.416.189z" style="fill:url(#c)"/><linearGradient id="d" x1="13.66" x2="16.342" y1="36.783" y2="19.833" gradientUnits="userSpaceOnUse"><stop offset="0" style="stop-color:#283036"/><stop offset=".127" style="stop-color:#39444c"/><stop offset=".267" style="stop-color:#45535b"/><stop offset=".428" style="stop-color:#4c5b64"/><stop offset=".661" style="stop-color:#4e5e67"/></linearGradient><path d="M12.076 32.196c1.127 1.435 3.027 1.708 4 1.746.441.023.529-.04.287-.289-.352-.368-.689-.908-.872-1.646-.227-.913-3.897-.425-3.415.19z" style="fill:url(#d)"/><linearGradient id="e" x1="14.157" x2="16.838" y1="36.867" y2="19.92" gradientUnits="userSpaceOnUse"><stop offset="0" style="stop-color:#283036"/><stop offset=".127" style="stop-color:#39444c"/><stop offset=".267" style="stop-color:#45535b"/><stop offset=".428" style="stop-color:#4c5b64"/><stop offset=".661" style="stop-color:#4e5e67"/></linearGradient><path d="M12.73 31.288c1.128 1.43 3.027 1.705 4.001 1.744.44.023.528-.041.286-.289-.35-.368-.688-.91-.87-1.645-.227-.916-3.898-.426-3.417.19z" style="fill:url(#e)"/><linearGradient id="f" x1="13.989" x2="16.671" y1="36.846" y2="19.89" gradientUnits="userSpaceOnUse"><stop offset="0" style="stop-color:#283036"/><stop offset=".127" style="stop-color:#39444c"/><stop offset=".267" style="stop-color:#45535b"/><stop offset=".428" style="stop-color:#4c5b64"/><stop offset=".661" style="stop-color:#4e5e67"/></linearGradient><path d="M12.761 30.007c1.127 1.433 3.027 1.707 4.001 1.745.44.023.527-.04.286-.291-.351-.365-.688-.907-.872-1.644-.226-.915-3.896-.426-3.415.19z" style="fill:url(#f)"/><linearGradient id="g" x1="14.399" x2="17.081" y1="36.915" y2="19.965" gradientUnits="userSpaceOnUse"><stop offset="0" style="stop-color:#283036"/><stop offset=".127" style="stop-color:#39444c"/><stop offset=".267" style="stop-color:#45535b"/><stop offset=".428" style="stop-color:#4c5b64"/><stop offset=".661" style="stop-color:#4e5e67"/></linearGradient><path d="M13.322 29.124c1.128 1.43 3.027 1.705 4 1.745.442.021.528-.042.288-.29-.353-.368-.689-.91-.872-1.645-.227-.917-3.898-.427-3.416.19z" style="fill:url(#g)"/><linearGradient id="h" x1="7.66" x2="10.353" y1="35.794" y2="18.773" gradientUnits="userSpaceOnUse"><stop offset="0" style="stop-color:#283036"/><stop offset=".127" style="stop-color:#39444c"/><stop offset=".267" style="stop-color:#45535b"/><stop offset=".428" style="stop-color:#4c5b64"/><stop offset=".661" style="stop-color:#4e5e67"/></linearGradient><path d="M6.011 32.187c.892 1.607 2.724 2.202 3.679 2.405.432.096.527.048.327-.238-.29-.422-.538-1.011-.606-1.771-.082-.943-3.78-1.084-3.4-.396z" style="fill:url(#h)"/><path d="M17.534 15.262c-.367-1.319-1.294-1.84-.988-.395.597 2.818-2.122 5.327-4.268 5.427l.768 3.795c3.159-.7 5.967-3.537 4.488-8.827z" style="fill:#abb9c2"/><linearGradient id="i" x1="7.614" x2="10.278" y1="35.722" y2="18.883" gradientUnits="userSpaceOnUse"><stop offset="0" style="stop-color:#283036"/><stop offset=".127" style="stop-color:#39444c"/><stop offset=".267" style="stop-color:#45535b"/><stop offset=".428" style="stop-color:#4c5b64"/><stop offset=".661" style="stop-color:#4e5e67"/></linearGradient><path d="M13.034 19.248c-2.268-.197-4.78 1.253-5.575 2.169-.457.529-1.37 2.522-1.548 2.693C4.193 25.74.91 29.566.564 30.146c-.423.71.003.71-.238 1.766-.16.717.467 1.362.983 1.383.013 1.379 3.366 1.602 4.005.66 2.145.395 4.984-.7 7.958-.506 5.2.332 2.191-6.822 4.031-10.03.655-1.142-2.004-3.978-4.27-4.171z" style="fill:url(#i)"/><path d="M1.375 31.165c-.077.222-.23 2.147-.42 2.025-1.84-1.144-.493-3.152-.28-3.208.354-.092.971.413.7 1.183z" style="fill:#2c353b"/><path d="M4.09 31.813c.312 1.537-2.781 1.482-2.781 1.482s2.256-.448 2.781-1.482zm-3.151-.939c.22-.046-.44 1.406-.597 1.245-.26-.268-.172-1.087.597-1.245z" style="fill:#1a1626"/><linearGradient id="j" x1="82.726" x2="82.726" y1="8.288" y2="3.718" gradientTransform="rotate(-12.013 137.363 335.323)" gradientUnits="userSpaceOnUse"><stop offset="0" style="stop-color:#283036"/><stop offset=".193" style="stop-color:#39444c"/><stop offset=".404" style="stop-color:#45535b"/><stop offset=".649" style="stop-color:#4c5b64"/><stop offset="1" style="stop-color:#4e5e67"/></linearGradient><path d="M11.75 24.258c3.34 4.493 7.779 1.42 7.3 1.068-.748-.557-2.63-2.232-4.898-2.806-.25-.053-2.781 1.325-2.401 1.738z" style="fill:url(#j)"/><path d="M13.78 25.453c2.127 2.202 5.032.235 4.596-.075-2.937-2.097-4.986-.32-4.595.075z" style="fill:#283036"/><radialGradient id="k" cx="79.91" cy="15.532" r="5.977" gradientTransform="matrix(.9781 -.2186 .2082 1.0269 -66.806 20.315)" gradientUnits="userSpaceOnUse"><stop offset=".539" style="stop-color:#d9e2e8"/><stop offset=".879" style="stop-color:#abb9c2"/></radialGradient><path d="M12.897 20.17c1.498 3.042 7.16-.32 6.324-4.266-.305-1.445.621-.924.989.396 2.73 9.765-9.146 11.184-10.87 6.186-.842-2.434 3.005-3.438 3.557-2.316z" style="fill:url(#k)"/><path d="M9.822 22.228c-.309-.423.57-2.014 2.417-1.682-2.154.266-1.998 2.264-2.417 1.682z" style="fill:#abb9c2"/><path d="M10.714 23.192c-.39-.34.13-2.097 2.001-2.205-2.044.763-1.47 2.674-2 2.205zm1.212.533c-.41-.255-.172-1.957 1.541-2.346-1.78 1.02-.982 2.699-1.54 2.346zm1.51.327c-.41-.134-.559-1.66.843-2.369-1.33 1.272-.29 2.552-.843 2.37zm1.593-.139c-.394-.018-.875-1.345.217-2.326-.9 1.465.321 2.35-.217 2.326zm1.445-.343c-.37.061-1.042-1.103-.185-2.246-.598 1.565.695 2.166.185 2.246zm1.318-.706c-.35.108-1.202-.802-.575-1.919-.304 1.446 1.05 1.773.575 1.919zm.761-.948c-.278.088-.965-.648-.46-1.545-.245 1.165.844 1.426.46 1.545z" style="fill:#abb9c2"/><path d="M6.16 27.395c-.313-3.002 2.55-3.533 3.442-1.548.099.218-.71 1.564-2.403 1.22-.551-.11-1.096.517-1.038.328z" style="fill:#596b75"/><path d="M7.663 25.03c-.773.145-.748.795-.574 1.354.13.415 2.076.05 2.046-.383-.044-.632-.765-1.104-1.472-.971z" style="fill:#302c3b"/><radialGradient id="l" cx="-11.298" cy="73.265" r="1.196" fx="-11.684" fy="72.776" gradientTransform="matrix(.7582 -.1421 .1455 .7767 5.97 -32.572)" gradientUnits="userSpaceOnUse"><stop offset=".043" style="stop-color:#413f4a"/><stop offset=".284" style="stop-color:#3d3a46"/><stop offset=".558" style="stop-color:#302d3a"/><stop offset=".847" style="stop-color:#1a1626"/></radialGradient><path d="M7.662 25.193c.564-.106 1.364.23 1.472.808.038.2-.537.66-1.175.78-.638.119-.832-.197-.87-.397-.108-.579.008-1.086.573-1.191z" style="fill:url(#l)"/><path d="M7.83 25.602c.053.28-.396.365-.449.084-.053-.282.396-.366.45-.084z" style="fill:#6e8189"/></svg>