<svg xmlns="http://www.w3.org/2000/svg" xml:space="preserve" style="enable-background:new 0 0 64 64" viewBox="0 0 64 64"><path d="M15.74 36.278c-1.252-1.117-3.524-.723-5.61-2.405-.355-.288-.779-2.031-2.17-2.962-1.585-.072-.197.93-.134 1.471-2.483-1.238-5.127-1.388-5.672 1.668-.067.382 1.771-1.499 3.673-.598.782.373-2.195 1.095-1.993 3.097.065.63 1.44-1.094 2.552-.936.681.097 2.193 1.202 3.666.606 1.133.789 3.16 4.456 6.924 4.856.95.101-1.236-4.797-1.236-4.797z" style="fill:#4d8a1e"/><path d="M3.291 32.015c-.996-.207-2.563 1.422-2.25 3.27.675-1.24 2.82-1.788 2.25-3.27zm5.197-.482c.062-.634-1.056-1.5-2.185-1.183.817.338 1.3 1.636 2.185 1.183zm-3.94 3.283c-1.026-.06-2.324 1.757-1.718 3.537.477-1.315 2.518-2.153 1.718-3.537z" style="fill:#302c3b"/><path d="M19.403 7.173c2.043-2.857 6.945-2.843 6.945-2.843s-2.903 1.548-3.99 4.666c-.366 1.049-3.649-.852-2.955-1.823z" style="fill:#529320"/><path d="M21.994 7.732c2.284-2.668 7.166-2.225 7.166-2.225s-3.027 1.288-4.382 4.299c-.457 1.013-3.56-1.167-2.784-2.074z" style="fill:#529320"/><path d="M24.446 8.406c2.563-2.401 7.367-1.425 7.367-1.425s-3.15.948-4.828 3.792c-.565.957-3.41-1.551-2.54-2.367z" style="fill:#529320"/><path d="M26.54 8.891c3.022-1.79 7.5.204 7.5.204s-3.28.244-5.534 2.657c-.759.812-2.994-2.253-1.966-2.861z" style="fill:#529320"/><path d="M28.828 9.74c3.36-1.027 7.242 1.965 7.242 1.965s-3.246-.535-6.004 1.279c-.929.61-2.38-2.895-1.238-3.244z" style="fill:#529320"/><path d="M30.532 10.767c3.512.032 6.313 4.055 6.313 4.055s-2.933-1.488-6.11-.59c-1.07.302-1.396-3.477-.203-3.465z" style="fill:#529320"/><path d="M31.868 12.58c3.48.47 5.76 4.81 5.76 4.81s-2.726-1.842-5.99-1.346c-1.098.168-.953-3.623.23-3.463z" style="fill:#529320"/><path d="M33.725 14.232c3.16 1.532 3.972 6.366 3.972 6.366s-2.015-2.6-5.271-3.146c-1.096-.184.225-3.74 1.299-3.22z" style="fill:#529320"/><path d="M34.323 16.59c2.896 1.988 2.975 6.89 2.975 6.89s-1.603-2.873-4.74-3.9c-1.057-.347.781-3.665 1.765-2.99z" style="fill:#529320"/><path d="M34.921 19.8c2.426 2.54 1.497 7.354 1.497 7.354s-.979-3.14-3.839-4.79c-.962-.556 1.518-3.426 2.342-2.563z" style="fill:#529320"/><path d="M34.156 22.41c2.426 2.54 1.496 7.353 1.496 7.353s-.979-3.14-3.838-4.79c-.963-.556 1.517-3.426 2.342-2.563z" style="fill:#529320"/><path d="M32.988 24.311c2.426 2.54 1.497 7.353 1.497 7.353s-.98-3.14-3.839-4.79c-.963-.556 1.517-3.426 2.342-2.563z" style="fill:#529320"/><path d="M31.847 25.733c2.426 2.54 1.497 7.353 1.497 7.353s-.979-3.14-3.839-4.79c-.962-.556 1.518-3.426 2.342-2.563z" style="fill:#529320"/><path d="M30.872 27.691c2.426 2.54 1.497 7.353 1.497 7.353s-.98-3.14-3.84-4.79c-.962-.556 1.518-3.426 2.343-2.563z" style="fill:#529320"/><path d="M29.731 29.41c2.426 2.54 1.497 7.353 1.497 7.353s-.979-3.14-3.839-4.79c-.962-.556 1.518-3.426 2.342-2.563z" style="fill:#529320"/><path d="M30.974 37.716s-.618-1.933-1.946-3.598l-1.59 1.59c2.139.665 3.536 2.008 3.536 2.008zm-.579 1.338s-1.221-1.62-3.025-2.753l-.975 2.026c2.238-.078 4 .727 4 .727zm32.08-14.211c.504-.071.901.54.901.54s-.335-.242-.876.034c-.153.078-.196-.55-.025-.574zm.657 1.105c.327-.016.545.398.545.398s-.2-.174-.563-.029c-.103.041-.093-.364.018-.37zm-1.795-2.393c.769-.251 1.552.618 1.552.618s-.589-.295-1.36.293c-.218.166-.453-.826-.192-.912zm-1.22-1.43c1.074-.296 2.2.722 2.2.722s-.837-.344-1.905.348c-.302.196-.66-.97-.295-1.07zm-1.072-1.366c1.12-.451 2.461.508 2.461.508s-.944-.269-2.008.608c-.3.248-.833-.963-.453-1.116zm-1.639-1.276c1.188-.674 2.84.2 2.84.2s-1.1-.16-2.16.986c-.3.323-1.084-.957-.68-1.186zm-1.959-1.251c1.24-.992 3.304-.285 3.304-.285s-1.296.016-2.302 1.525c-.285.427-1.424-.903-1.002-1.24zm-2.234-.922c1.011-1.22 3.177-.943 3.177-.943s-1.266.276-1.941 1.957c-.191.474-1.58-.599-1.236-1.014zm-2.108-.752c.823-1.352 3.006-1.386 3.006-1.386s-1.212.454-1.636 2.212c-.12.497-1.65-.367-1.37-.826zm-2.016-.75c.823-1.352 3.006-1.386 3.006-1.386s-1.212.454-1.635 2.212c-.12.497-1.65-.367-1.371-.826zm-2.295.474c.607-1.462 2.76-1.828 2.76-1.828s-1.13.633-1.28 2.436c-.042.51-1.687-.111-1.48-.608z" style="fill:#529320"/><path d="M45.066 16.94c.27-1.56 2.29-2.392 2.29-2.392s-.962.867-.712 2.659c.071.506-1.67.263-1.578-.267zm-1.769 1.419c-.32-1.55 1.252-3.065 1.252-3.065s-.576 1.159.314 2.733c.252.445-1.457.858-1.566.332z" style="fill:#529320"/><path d="M42.035 19.5c-.536-1.49.807-3.21.807-3.21s-.407 1.228.697 2.661c.312.405-1.322 1.055-1.504.55zm-1.045 1.864c-.782-1.376.248-3.301.248-3.301s-.191 1.28 1.14 2.504c.377.346-1.122 1.265-1.387.797z" style="fill:#529320"/><path d="M40.44 23.35c-1.035-1.198-.4-3.287-.4-3.287s.061 1.293 1.606 2.234c.437.266-.854 1.459-1.206 1.052zm-.478 2.162c-1.181-1.053-.821-3.207-.821-3.207s.228 1.275 1.881 2.008c.467.207-.659 1.557-1.06 1.2zm.149 3.055c-1.442-.65-1.916-3.102-1.916-3.102s.6 1.147 2.398 1.35c.507.058.009 1.973-.482 1.752zm.438 2.738c-1.443-.65-1.916-3.102-1.916-3.102s.6 1.147 2.397 1.35c.508.058.01 1.973-.481 1.752zm.395 2.217c-1.533-.394-2.418-2.73-2.418-2.73s.787 1.028 2.593.922c.51-.03.346 1.942-.175 1.808zm.625 2.485c-1.533-.395-2.418-2.73-2.418-2.73s.787 1.027 2.593.921c.51-.03.346 1.943-.175 1.809zm.094 2.218c-1.532-.394-2.417-2.73-2.417-2.73s.787 1.028 2.593.922c.51-.03.345 1.942-.175 1.808zm.235 2.407c-1.533-.395-2.418-2.73-2.418-2.73s.787 1.027 2.593.921c.51-.03.346 1.943-.175 1.809zm.125 2.348c-1.533-.394-2.418-2.73-2.418-2.73s.787 1.029 2.593.922c.51-.03.346 1.943-.175 1.809zm-13.712 2.015c.508.43 1.028.85 1.532 1.286 1.028-1.284.976-3.27.976-3.27s-.502 1.363-2.508 1.983zm-.742-2.695c.311.59.638 1.171.943 1.764 1.432-.81 2.122-2.673 2.122-2.673s-.973 1.079-3.065.91zm.095-3.181c-.12.655-.224 1.314-.352 1.969 1.626.25 3.322-.785 3.322-.785s-1.433.245-2.97-1.184zm2.543 7.22c.587.316 1.182.617 1.766.939.738-1.471.272-3.403.272-3.403s-.207 1.439-2.038 2.464zm2.113 1.272c.646.16 1.298.305 1.943.473.351-1.607-.577-3.364-.577-3.364s.155 1.445-1.367 2.891zm2.348.842c.667-.008 1.334-.033 2-.034-.067-1.644-1.41-3.108-1.41-3.108s.516 1.358-.59 3.142zm2.651-.303c.643-.175 1.282-.367 1.927-.535-.478-1.575-2.145-2.655-2.145-2.655s.84 1.186.218 3.19zm2.541-1.347c.492-.45.973-.912 1.47-1.356-1.144-1.183-3.12-1.383-3.12-1.383s1.289.671 1.65 2.739zm1.278-1.668c.382-.546.75-1.103 1.138-1.645-1.375-.904-3.347-.667-3.347-.667s1.404.373 2.209 2.312z" style="fill:#529320"/><path d="M40.644 59.011c-3.777-1.364-2.118-8.87-7.743-6.434-2.856 1.237 2.366 3.436 4.52 6.842-3.438 2.48-5.176.806-6.245 1.381.794 1.342.58 2.792.58 2.792 3.606 1.469 5.812-1.501 7.658-1.495 3.414.012 2.327-2.69 1.23-3.086z" style="fill:#4d8a1e"/><path d="M31.528 60.847c-1.876-.378-2.63 1.386-2.63 1.386 1.438-.932 3.569 2.5 2.63-1.386z" style="fill:#302c3b"/><path d="M31.936 61.346c-1.81.01-2.468 1.66-2.468 1.66.955-.26 2.287.586 2.287.586s1.072-1.064.181-2.246zm9.338-1.205c1.553.918 1.222 2.013 1.222 2.013-.47-.7-2.089-.268-2.202-.846-.087-.441.356-1.002.98-1.167z" style="fill:#302c3b"/><linearGradient id="a" x1="38.71" x2="38.71" y1="58.252" y2="6.599" gradientUnits="userSpaceOnUse"><stop offset="0" style="stop-color:#529320"/><stop offset="1" style="stop-color:#92c932"/></linearGradient><path d="M33.694 58.252c-20.996 0-25.624-16.56-14.166-28.192 9.111-9.25 5.77-15.33.598-12.872l-2.53-9.24c10.473-5.53 26.823 6.568 13.857 24.848-11.808 16.648 14.383 21.558 9.83 3.924C34.015 8.587 58.267 12.26 64 27.638c-7.75-10.29-21.051-9.159-13.716 7.356 5.287 11.902 1.735 23.258-16.59 23.258z" style="fill:url(#a)"/><linearGradient id="b" x1="23.781" x2="20.998" y1="15.408" y2="13.512" gradientUnits="userSpaceOnUse"><stop offset="0" style="stop-color:#c4b400"/><stop offset="1" style="stop-color:#f5ea1b"/></linearGradient><path d="M22.734 16.964c.165.036 1.398-1.298 1.634-4.243-.484-.247-3.873-.198-3.742.297.79 2.99.511 3.898.817 3.846.155-.026.965.028 1.291.1z" style="fill:url(#b)"/><linearGradient id="c" x1="25.987" x2="24.016" y1="16.203" y2="14.478" gradientUnits="userSpaceOnUse"><stop offset="0" style="stop-color:#c4b400"/><stop offset="1" style="stop-color:#f5ea1b"/></linearGradient><path d="M24.053 18.003c.092.14 2.195-1.512 3.358-4.21-.246-.48-2.982-1.727-3.085-1.226-.813 3.97-1.968 4.3-1.675 4.399.24.081.954.362 1.402 1.037z" style="fill:url(#c)"/><linearGradient id="d" x1="123.429" x2="121.22" y1="109.037" y2="107.103" gradientTransform="rotate(23.384 294.34 -168.555)" gradientUnits="userSpaceOnUse"><stop offset="0" style="stop-color:#c4b400"/><stop offset="1" style="stop-color:#f5ea1b"/></linearGradient><path d="M24.546 19.449c.028.165 2.983-.75 5.133-2.77-.034-.538-2.078-3.245-2.353-2.812-2.314 3.628-3.5 3.865-3.323 4.117.112.16.4.597.543 1.465z" style="fill:url(#d)"/><linearGradient id="e" x1="264.57" x2="262.113" y1="158.413" y2="156.263" gradientTransform="rotate(49.4 295.187 -168.013)" gradientUnits="userSpaceOnUse"><stop offset="0" style="stop-color:#c4b400"/><stop offset="1" style="stop-color:#f5ea1b"/></linearGradient><path d="M24.461 21.074c-.031.164 3.11.208 5.883-.88.208-.498-.35-3.846-.768-3.544-3.75 2.716-5.072 2.47-5.064 2.776.005.203.116.761-.051 1.648z" style="fill:url(#e)"/><linearGradient id="f" x1="380.576" x2="378.007" y1="152.338" y2="150.09" gradientTransform="rotate(69.354 296.568 -167.72)" gradientUnits="userSpaceOnUse"><stop offset="0" style="stop-color:#c4b400"/><stop offset="1" style="stop-color:#f5ea1b"/></linearGradient><path d="M23.997 22.697c-.061.155 2.931 1.113 5.914 1.027.367-.398.966-3.793.464-3.667-4.924 1.236-5.886.654-5.935.957-.03.188-.13.89-.443 1.683z" style="fill:url(#f)"/><linearGradient id="g" x1="453.365" x2="450.706" y1="127.04" y2="124.713" gradientTransform="rotate(82.508 297.084 -167.35)" gradientUnits="userSpaceOnUse"><stop offset="0" style="stop-color:#c4b400"/><stop offset="1" style="stop-color:#f5ea1b"/></linearGradient><path d="M23.213 24.36c-.085.145 2.756 1.762 5.68 2.349.449-.305 1.78-3.632 1.265-3.586-4.452.402-6.015-.738-6.178-.477-.107.173-.283.89-.767 1.715z" style="fill:url(#g)"/><linearGradient id="h" x1="471.842" x2="469.594" y1="120.588" y2="118.621" gradientTransform="rotate(85.745 298.016 -166.6)" gradientUnits="userSpaceOnUse"><stop offset="0" style="stop-color:#c4b400"/><stop offset="1" style="stop-color:#f5ea1b"/></linearGradient><path d="M22.24 25.937c-.097.136 2.376 2.812 5.262 3.561.466-.279 2.087-3.181 1.572-3.216-3.418-.233-5.686-2.234-5.863-1.983-.117.166-.482.954-.97 1.638z" style="fill:url(#h)"/><linearGradient id="i" x1="473.964" x2="471.987" y1="122.124" y2="120.394" gradientTransform="rotate(85.745 298.016 -166.6)" gradientUnits="userSpaceOnUse"><stop offset="0" style="stop-color:#c4b400"/><stop offset="1" style="stop-color:#f5ea1b"/></linearGradient><path d="M20.865 27.764c-.108.128 2.292 3.34 5.178 4.09.466-.28 2.143-2.566 1.653-2.728-3.613-1.195-5.281-3.508-5.458-3.257-.118.167-.835 1.26-1.373 1.895z" style="fill:url(#i)"/><linearGradient id="j" x1="382.271" x2="380.939" y1="-505.623" y2="-506.788" gradientTransform="rotate(-132.528 335.59 -162.012)" gradientUnits="userSpaceOnUse"><stop offset="0" style="stop-color:#c4b400"/><stop offset="1" style="stop-color:#f5ea1b"/></linearGradient><path d="M50.675 35.887c-.065-.154-.513.158-.513.158s.739 1.347 1.367 2.258c-.064-.26-.463-1.485-.854-2.416z" style="fill:url(#j)"/><linearGradient id="k" x1="456.059" x2="454.932" y1="-485.084" y2="-486.07" gradientTransform="rotate(-145.248 334.132 -161.9)" gradientUnits="userSpaceOnUse"><stop offset="0" style="stop-color:#c4b400"/><stop offset="1" style="stop-color:#f5ea1b"/></linearGradient><path d="M49.938 34.142c-.058-.157-.684.215-.684.215l.982 1.808s.476-.224.444-.31c-.093-.251-.448-.92-.742-1.713z" style="fill:url(#k)"/><linearGradient id="l" x1="443.175" x2="442.029" y1="-489.578" y2="-490.581" gradientTransform="rotate(-142.559 334.477 -161.768) scale(.9999)" gradientUnits="userSpaceOnUse"><stop offset="0" style="stop-color:#c4b400"/><stop offset="1" style="stop-color:#f5ea1b"/></linearGradient><path d="M49.267 32.392c-.05-.16-.92.312-.92.312l.94 1.809s.682-.293.654-.381c-.08-.254-.419-.934-.674-1.74z" style="fill:url(#l)"/><linearGradient id="m" x1="420.527" x2="419.363" y1="-496.971" y2="-497.99" gradientTransform="rotate(-138.191 335.163 -162.102) scale(.9999)" gradientUnits="userSpaceOnUse"><stop offset="0" style="stop-color:#c4b400"/><stop offset="1" style="stop-color:#f5ea1b"/></linearGradient><path d="M48.743 30.59c-.038-.164-1.061.188-1.061.188l.795 1.967s.813-.275.791-.366c-.06-.26-.331-.966-.525-1.79z" style="fill:url(#m)"/><linearGradient id="n" x1="401.935" x2="400.762" y1="-501.263" y2="-502.288" gradientTransform="rotate(-134.664 335.615 -162.37)" gradientUnits="userSpaceOnUse"><stop offset="0" style="stop-color:#c4b400"/><stop offset="1" style="stop-color:#f5ea1b"/></linearGradient><path d="M48.325 28.741c-.028-.165-.978.006-.978.006-.168.513.513 2.119.513 2.119s.895-.214.88-.306c-.046-.262-.272-.985-.415-1.819z" style="fill:url(#n)"/><linearGradient id="o" x1="352.235" x2="351.054" y1="-506.649" y2="-507.681" gradientTransform="rotate(-125.939 336.09 -162.298)" gradientUnits="userSpaceOnUse"><stop offset="0" style="stop-color:#c4b400"/><stop offset="1" style="stop-color:#f5ea1b"/></linearGradient><path d="M48.216 26.854c-.003-.168-1.095-.141-1.095-.141-.244.48.306 2.189.306 2.189s.923-.095.922-.188c-.005-.266-.12-1.015-.133-1.86z" style="fill:url(#o)"/><linearGradient id="p" x1="214.674" x2="213.437" y1="-501.074" y2="-502.155" gradientTransform="rotate(-102.556 342.205 -171.41)" gradientUnits="userSpaceOnUse"><stop offset="0" style="stop-color:#c4b400"/><stop offset="1" style="stop-color:#f5ea1b"/></linearGradient><path d="M48.395 24.911c.043-.161-1.332-.404-1.332-.404-.416.342.008 2.264.008 2.264s1.16.205 1.172.051c.014-.194-.031-1.24.151-1.91z" style="fill:url(#p)"/><linearGradient id="q" x1="78.449" x2="76.927" y1="-431.432" y2="-432.763" gradientTransform="rotate(-76.539 351.776 -185.828)" gradientUnits="userSpaceOnUse"><stop offset="0" style="stop-color:#c4b400"/><stop offset="1" style="stop-color:#f5ea1b"/></linearGradient><path d="M49.31 22.884c.113-.123-.98-.866-.98-.866-.526.124-1.23 2.588-1.23 2.588s1.276.5 1.315.34c.047-.197.377-1.498.895-2.062z" style="fill:url(#q)"/><linearGradient id="r" x1="5.119" x2="3.393" y1="-339.062" y2="-340.572" gradientTransform="rotate(-56.585 362.892 -201.758)" gradientUnits="userSpaceOnUse"><stop offset="0" style="stop-color:#c4b400"/><stop offset="1" style="stop-color:#f5ea1b"/></linearGradient><path d="M51.28 21.413c.163-.042-.762-1.11-.762-1.11-1.561.568-2.323 1.9-2.323 1.9s.901.975 1.101.743c.125-.144 1.158-1.324 1.984-1.534z" style="fill:url(#r)"/><linearGradient id="s" x1="-23.919" x2="-25.751" y1="-266.005" y2="-267.608" gradientTransform="rotate(-43.431 374.727 -220.34)" gradientUnits="userSpaceOnUse"><stop offset="0" style="stop-color:#c4b400"/><stop offset="1" style="stop-color:#f5ea1b"/></linearGradient><path d="M53.819 21.1c.167.017-.195-1.166-.195-1.166-1.676-.39-3.2.417-3.2.417s.75 1.144.825 1.105c.181-.094 1.618-.45 2.57-.356z" style="fill:url(#s)"/><linearGradient id="t" x1="-26.61" x2="-28.177" y1="-244.31" y2="-245.681" gradientTransform="rotate(-40.193 377.207 -225.193) scale(.9999)" gradientUnits="userSpaceOnUse"><stop offset="0" style="stop-color:#c4b400"/><stop offset="1" style="stop-color:#f5ea1b"/></linearGradient><path d="M56.286 21.659c.157.059.141-.844.141-.844-1.435-.914-2.9-.867-2.9-.867s.147 1.176.236 1.18c.204.007 1.737.234 2.523.53z" style="fill:url(#t)"/><linearGradient id="u" x1="-25.456" x2="-26.849" y1="-242.023" y2="-243.242" gradientTransform="rotate(-40.193 377.207 -225.193) scale(.9999)" gradientUnits="userSpaceOnUse"><stop offset="0" style="stop-color:#c4b400"/><stop offset="1" style="stop-color:#f5ea1b"/></linearGradient><path d="M58.77 22.79c-1.39-1.483-2.422-1.957-2.422-1.957s-.227.827-.127.846c.2.036 1.307.44 2.548 1.11z" style="fill:url(#u)"/><path d="M58.77 22.79c-1.52-2.07-7.098-5.828-10.984-1-2.377 2.954-1.378 9.533 3.743 16.513-10.724-17.96 1.269-21.803 7.24-15.514z" style="fill:#529320"/><linearGradient id="v" x1="475.989" x2="473.985" y1="123.894" y2="122.141" gradientTransform="rotate(85.745 298.016 -166.6)" gradientUnits="userSpaceOnUse"><stop offset="0" style="stop-color:#c4b400"/><stop offset="1" style="stop-color:#f5ea1b"/></linearGradient><path d="M19.29 29.537c-.112.125 2.264 3.837 5.15 4.585.466-.278 2.358-2.548 1.877-2.734-3.75-1.45-5.237-3.95-5.414-3.699-.117.167-1.047 1.224-1.612 1.848z" style="fill:url(#v)"/><linearGradient id="w" x1="477.863" x2="475.806" y1="125.694" y2="123.895" gradientTransform="rotate(85.745 298.016 -166.6)" gradientUnits="userSpaceOnUse"><stop offset="0" style="stop-color:#c4b400"/><stop offset="1" style="stop-color:#f5ea1b"/></linearGradient><path d="M17.283 31.72c-.106.13 2.799 3.672 5.685 4.421.466-.279 2.382-2.53 1.9-2.716-3.862-1.504-5.39-4.197-5.568-3.946-.117.167-1.303 1.353-2.017 2.241z" style="fill:url(#w)"/><linearGradient id="x" x1="479.895" x2="477.862" y1="127.237" y2="125.459" gradientTransform="rotate(85.745 298.016 -166.6)" gradientUnits="userSpaceOnUse"><stop offset="0" style="stop-color:#c4b400"/><stop offset="1" style="stop-color:#f5ea1b"/></linearGradient><path d="M15.647 33.91c-.09.142 3.37 3.765 6.255 4.514.466-.279 2.023-2.636 1.544-2.83-4.503-1.813-6.007-4.163-6.184-3.912-.118.167-1.083 1.392-1.615 2.228z" style="fill:url(#x)"/><linearGradient id="y" x1="482.449" x2="480.275" y1="129.054" y2="127.152" gradientTransform="rotate(85.745 298.016 -166.6)" gradientUnits="userSpaceOnUse"><stop offset="0" style="stop-color:#c4b400"/><stop offset="1" style="stop-color:#f5ea1b"/></linearGradient><path d="M13.955 36.983c-.066.154 3.967 3.252 6.853 4 .466-.278 1.588-2.77 1.11-2.963-4.4-1.783-6.095-4.429-6.272-4.177-.118.166-1.173 1.92-1.691 3.14z" style="fill:url(#y)"/><linearGradient id="z" x1="458.256" x2="456.018" y1="143.362" y2="141.403" gradientTransform="rotate(80.433 297 -168.783)" gradientUnits="userSpaceOnUse"><stop offset="0" style="stop-color:#c4b400"/><stop offset="1" style="stop-color:#f5ea1b"/></linearGradient><path d="M12.872 40.14c-.036.164 4.573 2.82 7.516 3.301.438-.32 1.226-2.918.727-3.053-4.69-1.265-6.967-3.83-7.12-3.565-.102.177-.819 1.931-1.123 3.318z" style="fill:url(#z)"/><linearGradient id="A" x1="418.323" x2="416.034" y1="161.335" y2="159.333" gradientTransform="rotate(72.422 296.1 -171.762)" gradientUnits="userSpaceOnUse"><stop offset="0" style="stop-color:#c4b400"/><stop offset="1" style="stop-color:#f5ea1b"/></linearGradient><path d="M12.451 43.912c.007.167 2.665 1.692 7.751 1.82.389-.377.77-2.742.262-2.833-5.134-.914-7.478-3.209-7.592-2.924-.076.19-.488 2.352-.42 3.937z" style="fill:url(#A)"/><linearGradient id="B" x1="355.498" x2="353.201" y1="175.881" y2="173.872" gradientTransform="rotate(60.777 294.2 -177.22)" gradientUnits="userSpaceOnUse"><stop offset="0" style="stop-color:#c4b400"/><stop offset="1" style="stop-color:#f5ea1b"/></linearGradient><path d="M13.176 47.962c.058.157 2.428 1.026 7.435.137.304-.447.235-2.874-.282-2.865-4.965.087-7.861-1.669-7.915-1.367-.035.2.087 2.268.762 4.095z" style="fill:url(#B)"/><linearGradient id="C" x1="286.591" x2="284.401" y1="174.428" y2="172.512" gradientTransform="rotate(48.267 288.74 -187.22)" gradientUnits="userSpaceOnUse"><stop offset="0" style="stop-color:#c4b400"/><stop offset="1" style="stop-color:#f5ea1b"/></linearGradient><path d="M15.427 51.835c.107.13 1.54.46 6.233-1.482.12-.509-.37-2.633-.878-2.535-4.912.948-7.671-.172-7.657.134.009.203.632 1.866 2.302 3.883z" style="fill:url(#C)"/><linearGradient id="D" x1="212.3" x2="210.143" y1="154.815" y2="152.928" gradientTransform="rotate(34.116 279.345 -208.624)" gradientUnits="userSpaceOnUse"><stop offset="0" style="stop-color:#c4b400"/><stop offset="1" style="stop-color:#f5ea1b"/></linearGradient><path d="M19.023 54.86c.145.087 2.655-.512 4.388-2.033-.009-.523-1.333-2.889-1.801-2.671-4.529 2.106-6.386 1.352-6.297 1.645.06.195 1.408 1.69 3.71 3.06z" style="fill:url(#D)"/><linearGradient id="E" x1="151.253" x2="149.305" y1="120.896" y2="119.192" gradientTransform="rotate(21.431 257.22 -249.562)" gradientUnits="userSpaceOnUse"><stop offset="0" style="stop-color:#c4b400"/><stop offset="1" style="stop-color:#f5ea1b"/></linearGradient><path d="M22.892 56.658c.159.057 2.053-.826 2.733-2.07-.124-.508-1.951-2.442-2.351-2.118-2.302 1.867-4.258 2.079-4.392 2.355-.042.087 1.474.926 4.01 1.833z" style="fill:url(#E)"/><linearGradient id="F" x1="106.264" x2="104.261" y1="80.637" y2="78.884" gradientTransform="rotate(10.231 192.655 -373.846)" gradientUnits="userSpaceOnUse"><stop offset="0" style="stop-color:#c4b400"/><stop offset="1" style="stop-color:#f5ea1b"/></linearGradient><path d="M27.24 57.747c.165.032 1.128-.66 1.406-1.363-.222-.475-2.74-2.311-3.069-1.917-1.346 1.614-2.704 1.917-2.763 2.218-.015.079 2.055.61 4.425 1.062z" style="fill:url(#F)"/><linearGradient id="G" x1="82.261" x2="80.598" y1="49.195" y2="47.739" gradientTransform="rotate(3.084 -120.743 -908.15)" gradientUnits="userSpaceOnUse"><stop offset="0" style="stop-color:#c4b400"/><stop offset="1" style="stop-color:#f5ea1b"/></linearGradient><path d="M30.858 58.166c.143.012.424-.136.66-.662-.237-.34-2.73-1.499-2.958-1.167-.617.9-1.366 1.208-1.42 1.411-.012.048 1.915.266 3.718.418z" style="fill:url(#G)"/><linearGradient id="H" x1="84.898" x2="83.656" y1="49.322" y2="48.236" gradientTransform="rotate(3.084 -120.743 -908.15)" gradientUnits="userSpaceOnUse"><stop offset="0" style="stop-color:#c4b400"/><stop offset="1" style="stop-color:#f5ea1b"/></linearGradient><path d="M33.827 58.252c.143 0-2.332-1.038-2.465-.775-.174.345-.604.616-.635.69-.034.083 2.083.085 3.1.085z" style="fill:url(#H)"/><path d="M34.66 58.242s-.607.082-.996.01c-13.354-2.45-17.82-13.345-8.296-25.826 9.617-12.602 2.725-23.13-6.66-18.386l-.302-.672c7.587-5.2 19.5 3.762 7.697 19.608-10.728 14.404-2.261 22.487 8.556 25.266z" style="fill:#529320"/><linearGradient id="I" x1="5.259" x2="5.259" y1="-21.02" y2="-44.464" gradientTransform="rotate(-16.054 312.781 -138.519)" gradientUnits="userSpaceOnUse"><stop offset="0" style="stop-color:#92c932"/><stop offset="1" style="stop-color:#529320"/></linearGradient><path d="M52.106 54.464c-4.105.809-2.026-3.157-6.252-3.242 0 0 4.083-1.702 5.823-5.395 1.64-3.483-4.023-6.256-6.769-2.186-3.815 5.654-2.31 6.92-3.21 9.246-1.163 3.005 3.986 1.79 7.766 3.664-1.7 4.046-4.162 3.488-4.798 4.572 1.44.768 2.044 2.173 2.044 2.173 4.011-.625 4.347-4.447 5.992-5.43 3.043-1.816.597-3.637-.596-3.402z" style="fill:url(#I)"/><path d="M45.005 60.976c-1.875.668-1.58 2.64-1.58 2.64.769-1.598 4.542.314 1.58-2.64z" style="fill:#302c3b"/><path d="M45.641 61.201C44.038 62.18 44.355 64 44.355 64c.707-.744 2.355-.704 2.355-.704s.37-1.52-1.069-2.095zm7.644-6.069c1.884-.016 2.189 1.135 2.189 1.135-.801-.372-2.004.88-2.422.426-.319-.345-.231-1.08.233-1.561z" style="fill:#302c3b"/><path d="M23.21 2.13c-1.391 2.207-3.743.635-7.155 6.55-.132.23 1.482 1.383 1.97.888 2.304-5.914 4.726-4.489 5.624-7.183.081-.243-.337-.418-.44-.255z" style="fill:#6ba81e"/><linearGradient id="J" x1="801.995" x2="804.334" y1="-174.495" y2="-174.495" gradientTransform="matrix(-.8966 .4474 .532 .9916 817.023 -170.312)" gradientUnits="userSpaceOnUse"><stop offset="0" style="stop-color:#92c932"/><stop offset="1" style="stop-color:#529320"/></linearGradient><path d="M2.444 15.38c.17.11 1.545.693 2.411 1.892 1.581-.61.022-2.02-.522-2.505-.284-.253-2.372.3-1.889.613z" style="fill:url(#J)"/><linearGradient id="K" x1="801.064" x2="803.196" y1="-174.525" y2="-174.525" gradientTransform="matrix(-.8966 .4474 .532 .9916 817.023 -170.312)" gradientUnits="userSpaceOnUse"><stop offset="0" style="stop-color:#92c932"/><stop offset="1" style="stop-color:#529320"/></linearGradient><path d="M3.5 14.941c.155.1 1.408.632 2.198 1.725 1.441-.557.02-1.842-.476-2.283-.259-.23-2.163.273-1.722.559z" style="fill:url(#K)"/><linearGradient id="L" x1="800.178" x2="802.069" y1="-174.591" y2="-174.591" gradientTransform="matrix(-.8966 .4474 .532 .9916 817.023 -170.312)" gradientUnits="userSpaceOnUse"><stop offset="0" style="stop-color:#92c932"/><stop offset="1" style="stop-color:#529320"/></linearGradient><path d="M4.535 14.489c.137.09 1.25.56 1.95 1.53 1.278-.494.017-1.634-.422-2.026-.23-.204-1.919.243-1.528.496z" style="fill:url(#L)"/><linearGradient id="M" x1="799.302" x2="801.018" y1="-174.65" y2="-174.65" gradientTransform="matrix(-.8966 .4474 .532 .9916 817.023 -170.312)" gradientUnits="userSpaceOnUse"><stop offset="0" style="stop-color:#92c932"/><stop offset="1" style="stop-color:#529320"/></linearGradient><path d="M5.49 14.046c.124.08 1.133.508 1.77 1.388 1.16-.448.015-1.483-.384-1.838-.208-.186-1.741.22-1.387.45z" style="fill:url(#M)"/><linearGradient id="N" x1="798.441" x2="800.016" y1="-174.672" y2="-174.672" gradientTransform="matrix(-.8966 .4474 .532 .9916 817.023 -170.312)" gradientUnits="userSpaceOnUse"><stop offset="0" style="stop-color:#92c932"/><stop offset="1" style="stop-color:#529320"/></linearGradient><path d="M6.412 13.644c.114.074 1.04.467 1.624 1.274 1.064-.411.015-1.36-.352-1.687-.191-.17-1.598.202-1.272.413z" style="fill:url(#N)"/><linearGradient id="O" x1="797.477" x2="799.156" y1="-174.747" y2="-174.747" gradientTransform="matrix(-.8966 .4474 .532 .9916 817.023 -170.312)" gradientUnits="userSpaceOnUse"><stop offset="0" style="stop-color:#92c932"/><stop offset="1" style="stop-color:#529320"/></linearGradient><path d="M7.15 13.21c.117.088 1.053.465 1.682 1.334 1.147-.443.084-1.699-.774-1.976-.269-.087-1.171.44-.907.642z" style="fill:url(#O)"/><linearGradient id="P" x1="796.566" x2="798.245" y1="-174.924" y2="-174.924" gradientTransform="matrix(-.8966 .4474 .532 .9916 817.023 -170.312)" gradientUnits="userSpaceOnUse"><stop offset="0" style="stop-color:#92c932"/><stop offset="1" style="stop-color:#529320"/></linearGradient><path d="M7.874 12.626c.116.089 1.052.466 1.681 1.335 1.147-.443.084-1.699-.774-1.976-.269-.087-1.172.44-.907.641z" style="fill:url(#P)"/><path d="M15.032 9.202c1.106-2.039 1.57-4.688-.067-7.772-.142-.269-.855.366-.84.582.18 2.483-.443 4.155-1.547 5.607.367.24 1.94 1.279 2.454 1.583z" style="fill:#bf7f55"/><linearGradient id="Q" x1="794.071" x2="793.378" y1="-204.643" y2="-199.875" gradientTransform="matrix(-.8651 .5057 .5962 .9544 816.501 -197.313)" gradientUnits="userSpaceOnUse"><stop offset="0" style="stop-color:#92c932"/><stop offset=".231" style="stop-color:#8dc531"/><stop offset=".503" style="stop-color:#7fb92d"/><stop offset=".796" style="stop-color:#67a526"/><stop offset="1" style="stop-color:#529320"/></linearGradient><path d="M9.756 10.526c-.411.44-.8.916-1.142 1.46-.079.124.8.457 1.527 1.21.037.038.75-.244 1.665-.84-.669-.627-1.338-1.253-2.05-1.83z" style="fill:url(#Q)"/><path d="M10.8 27.098c1.337.372 2.385-.28 2.777-.908.403-.649-1.058.433-2.377-.438-.372-.246-.854 1.22-.4 1.346z" style="fill:#529320"/><path d="M11.452 26.447c1.389-.08 2.166-1.034 2.33-1.754.168-.743-.859.75-2.394.354-.434-.112-.408 1.427.064 1.4zm-2.015 1.287c1.217.694 2.376.317 2.893-.199.533-.532-1.12.161-2.212-1.014-.309-.332-1.095.977-.681 1.213z" style="fill:#529320"/><linearGradient id="R" x1="-.513" x2="7.115" y1="23.483" y2="23.483" gradientTransform="rotate(-2.241 -43.008 -211.675)" gradientUnits="userSpaceOnUse"><stop offset=".005" style="stop-color:#529320"/><stop offset=".285" style="stop-color:#457b18"/><stop offset=".874" style="stop-color:#243c05"/><stop offset="1" style="stop-color:#1d2e00"/></linearGradient><path d="M8.938 16.35c.68-.547 4.573-.65 7.165.677-4.426 4.88-2.685 9.074-6.496 10.137-.497.139-.914-.236-.715-.973.535-1.982 4.882-7.404.046-9.84z" style="fill:url(#R)"/><linearGradient id="S" x1="-82.777" x2="-81.849" y1="-52.045" y2="-63.063" gradientTransform="matrix(.8772 -.3246 .2571 .6787 98.759 33.588)" gradientUnits="userSpaceOnUse"><stop offset="0" style="stop-color:#f50"/><stop offset=".212" style="stop-color:#fb5200"/><stop offset=".403" style="stop-color:#f04900"/><stop offset=".588" style="stop-color:#de3a00"/><stop offset=".767" style="stop-color:#c42500"/><stop offset=".941" style="stop-color:#a30a00"/><stop offset="1" style="stop-color:#960000"/></linearGradient><path d="m17.344 18.605 1.445-3.59c-3.572.756-6.625 2.72-8.199 5.723-1.577 3.008-3.885 5.822-6.595 3.922 1.517 3.844 6.19 1.86 7.822-1.645 1.325-2.85 3.583-4.105 5.527-4.41z" style="fill:url(#S)"/><linearGradient id="T" x1="-82.62" x2="-81.817" y1="-53.912" y2="-63.438" gradientTransform="matrix(.8772 -.3246 .2571 .6787 98.759 33.588)" gradientUnits="userSpaceOnUse"><stop offset="0" style="stop-color:#f50"/><stop offset=".137" style="stop-color:#ed4600"/><stop offset=".528" style="stop-color:#be2000"/><stop offset=".829" style="stop-color:#a10900"/><stop offset="1" style="stop-color:#960000"/></linearGradient><path d="m18.076 16.549.713-1.534c-3.83.169-7.075 2.322-8.649 5.324-1.578 3.008-2.983 5.77-6.145 4.321 2.488 2.458 5.312-.26 6.943-3.766 1.326-2.849 5.195-4.04 7.138-4.345z" style="fill:url(#T)"/><path d="M9.99 16.455c.117 1.05.856 1.675 1.212 1.919.081.055.162-.052.144-.188-.063-.47-.149-1.403.01-2.239.105-.551-1.43-.074-1.366.508z" style="fill:#ffdeb8"/><path d="M11.035 16.118c.117 1.05.856 1.675 1.212 1.919.081.055.162-.052.144-.188-.063-.47-.149-1.403.01-2.239.105-.551-1.43-.074-1.366.508z" style="fill:#ffdeb8"/><path d="M11.994 15.813c.117 1.05.856 1.675 1.212 1.92.08.055.162-.052.144-.189-.063-.47-.149-1.403.01-2.239.104-.551-1.43-.073-1.366.508z" style="fill:#ffdeb8"/><path d="M12.844 15.591c.116 1.05.855 1.676 1.212 1.92.08.055.162-.052.144-.189-.063-.47-.149-1.402.01-2.238.104-.552-1.43-.074-1.366.507zm-3.989.994c.125 1.127.917 1.797 1.299 2.058.087.06.174-.055.154-.202-.067-.504-.16-1.503.011-2.4.112-.591-1.534-.079-1.464.544z" style="fill:#ffdeb8"/><path d="M7.596 17.036c.134 1.204.98 1.92 1.389 2.2.093.062.186-.06.165-.217-.072-.538-.17-1.607.011-2.564.12-.633-1.638-.085-1.564.58z" style="fill:#ffdeb8"/><path d="M6.232 17.49c.14 1.262 1.027 2.012 1.455 2.305.097.066.195-.062.173-.226-.076-.565-.179-1.685.012-2.688.126-.663-1.718-.09-1.64.609z" style="fill:#ffdeb8"/><path d="M4.755 18.342c.148 1.332 1.085 2.125 1.537 2.434.102.07.205-.066.182-.239-.08-.596-.189-1.778.013-2.838.133-.7-1.814-.094-1.732.643z" style="fill:#ffdeb8"/><path d="M2.91 19.117c.295 1.508 1.445 2.32 1.993 2.63.124.07.23-.096.187-.292-.148-.673-.384-2.014-.252-3.246.086-.813-2.09.073-1.928.908zm11.408 2.044c-.95-.517-1.255-1.453-1.348-1.882-.02-.097.112-.133.235-.062.42.241 1.27.684 2.123.859.564.116-.484 1.371-1.01 1.085z" style="fill:#ffdeb8"/><path d="M15.043 20.483c-.95-.518-1.255-1.454-1.348-1.883-.021-.097.112-.132.234-.062.421.242 1.27.684 2.124.86.563.115-.485 1.37-1.01 1.085z" style="fill:#ffdeb8"/><path d="M15.7 19.869c-.95-.517-1.255-1.454-1.347-1.883-.022-.097.111-.132.234-.062.42.242 1.27.684 2.124.86.563.115-.485 1.37-1.011 1.085zm-2.01 2.298c-1.018-.554-1.345-1.558-1.444-2.018-.023-.104.12-.142.251-.067.451.26 1.362.734 2.277.922.604.124-.52 1.47-1.083 1.163z" style="fill:#ffdeb8"/><path d="M12.995 23.248c-1.088-.592-1.438-1.665-1.544-2.157-.024-.111.128-.151.269-.07.482.276 1.456.783 2.433.984.646.132-.555 1.571-1.158 1.243z" style="fill:#ffdeb8"/><path d="M12.236 24.476c-1.14-.621-1.507-1.746-1.618-2.26-.025-.118.134-.16.281-.076.506.29 1.526.822 2.55 1.032.677.14-.582 1.647-1.213 1.303z" style="fill:#ffdeb8"/><path d="M11.353 25.725c-1.204-.656-1.591-1.843-1.709-2.387-.026-.124.142-.168.297-.079.534.306 1.611.867 2.693 1.09.714.147-.615 1.739-1.281 1.376z" style="fill:#ffdeb8"/><path d="M9.877 27.115c-1.314-.863-1.637-2.257-1.717-2.891-.018-.144.18-.18.348-.063.58.4 1.76 1.142 2.977 1.497.803.234-.88 1.934-1.608 1.457z" style="fill:#ffdeb8"/><path d="M21.624.248c-1.04 3.243-3.745 1.557-6.137 10.146-.093.333 2.323 1.266 2.778.482.993-8.227 3.738-6.75 3.998-10.449.024-.332-.562-.419-.639-.179z" style="fill:#5c9c0b"/><path d="M19.549.137c-1.04 3.242-4.573 1.898-6.965 10.487-.092.333 2.323 1.266 2.778.482.993-8.227 4.566-7.09 4.826-10.79.024-.333-.562-.42-.639-.18zm.396 15.048c2.518-1.284 4.645-4.53 4.942-5.846.37-1.644-2.567 3.026-5.507 3.674-.83.183-.29 2.608.565 2.172z" style="fill:#6ba81e"/><path d="M20.615 12.71c2.215-1.635 3.438-4.535 3.657-5.825.266-1.558-1.76 2.593-4.428 3.715-.754.317.019 2.665.771 2.11zm.165 3.985c2.07-1.212 3.849-3.37 4.347-4.66.659-1.707-1.59 1.878-4.638 2.55-.861.19-.602 2.634.291 2.11z" style="fill:#6ba81e"/><path d="M20.942 18.482c2.213-.948 4.18-2.982 4.77-4.302.782-1.746-1.754 1.763-4.948 1.941-.902.05-.777 2.77.178 2.36zm-.92-7.122c2.35-2.423 3.432-5.9 3.506-7.478.09-1.907-1.685 3.46-4.637 5.374-.834.54.333 2.928 1.131 2.104z" style="fill:#6ba81e"/><path d="M19.231 13.77c1.698-.281 3.28-2.086 3.56-2.964.35-1.095-1.848 1.532-3.772 1.245-.543-.082-.364 1.815.212 1.719z" style="fill:#5c9c0b"/><path d="M18.565 12.552c1.685-.354 2.838-1.874 3.131-2.747.355-1.057-1.483 1.243-3.417 1.038-.547-.057-.286 1.83.286 1.71zm1.526 2.532c1.53-.282 2.942-1.516 3.397-2.472.603-1.265-1.257 1.059-3.412.483-.609-.163-.645 2.11.015 1.989z" style="fill:#5c9c0b"/><path d="M20.221 16.5c1.554-.07 3.124-1.1 3.708-1.985.773-1.171-1.392.877-3.445.012-.58-.245-.933 2.003-.263 1.973zm-2.785-4.913c1.756-.464 3.07-1.95 3.447-2.774.455-.996-1.628 1.261-3.593 1.234-.555-.007-.451 1.697.146 1.54z" style="fill:#5c9c0b"/><path d="M18.674 8.58c.848-1.337 1.762-3.83-.149-8.416-.107-.258-1.019.149-.986.404.686 5.4-2.447 5.52-4.62 7.905.06-.002 5.537.023 5.755.106z" style="fill:#bf7f55"/><linearGradient id="U" x1="-16.319" x2="-13.191" y1="-33.38" y2="-25.5" gradientTransform="rotate(-9.355 290.712 -175.481)" gradientUnits="userSpaceOnUse"><stop offset="0" style="stop-color:#92c932"/><stop offset="1" style="stop-color:#529320"/></linearGradient><path d="M20.605 14.791v-.022c.747-.245.893-1.342-.268-1.483.598-.633.21-1.534-.742-1.135.433-.613.02-1.093-.783-.649.23-.724-.252-1.158-.925-.483-.68-1.69-11.82 4.611-15.303 8.245 3.832-.904 7.403-2.768 11.475-2.43.767.063 1.17.942.707 1.553-3.173 4.191-2.352 7.075-5.429 8.464-.47.212-.445-.66-.445-.66s-.929 1.917 1.197 1.55c3.304-.57 2.58-6.034 7.476-7.366.64-.175 2.227-2.027 2.817-4.11 1.022-.263 1.32-1.447.223-1.474z" style="fill:url(#U)"/><path d="M15.96 11.377c-.025-.79-1.222-3.248 5.02-5.933-1.365 2.216-.954 5.222-5.02 5.933z" style="fill:#6ba81e"/><linearGradient id="V" x1="-11.678" x2="-13.363" y1="-27.373" y2="-27.807" gradientTransform="rotate(-9.355 290.712 -175.481)" gradientUnits="userSpaceOnUse"><stop offset="0" style="stop-color:#92c932"/><stop offset="1" style="stop-color:#92c932;stop-opacity:0"/></linearGradient><path d="M14.418 20.092c.782.076 1.662-.288 2.036-.653.495-.484-.777.306-1.722-.235-.267-.152-.652.855-.314.888z" style="fill:url(#V)"/><linearGradient id="W" x1="-21.765" x2="-23.804" y1="-82.067" y2="-82.592" gradientTransform="rotate(-16.744 340.026 -164.731)" gradientUnits="userSpaceOnUse"><stop offset="0" style="stop-color:#92c932"/><stop offset="1" style="stop-color:#92c932;stop-opacity:0"/></linearGradient><path d="M15.07 19.343c.956-.02 1.953-.578 2.34-1.068.513-.647-.882.475-2.113-.037-.348-.144-.638 1.113-.226 1.105z" style="fill:url(#W)"/><linearGradient id="X" x1="-25.452" x2="-27.75" y1="-154.193" y2="-154.785" gradientTransform="rotate(-26.363 362.124 -161.264)" gradientUnits="userSpaceOnUse"><stop offset="0" style="stop-color:#92c932"/><stop offset="1" style="stop-color:#92c932;stop-opacity:0"/></linearGradient><path d="M15.55 18.366c1.069-.186 2.07-.976 2.403-1.585.44-.806-.891.678-2.38.321-.42-.1-.483 1.344-.022 1.264z" style="fill:url(#X)"/><linearGradient id="Y" x1="41.615" x2="39.299" y1="-203.6" y2="-204.197" gradientTransform="matrix(.9811 -.6369 .5795 .8187 95.153 208.83)" gradientUnits="userSpaceOnUse"><stop offset="0" style="stop-color:#92c932"/><stop offset="1" style="stop-color:#92c932;stop-opacity:0"/></linearGradient><path d="M15.421 17.24c1.202-.39 2.242-1.39 2.592-2.058.213-.407-1.299.568-3.02.951-.48.108-.09 1.275.428 1.107z" style="fill:url(#Y)"/><linearGradient id="Z" x1="36.182" x2="34.117" y1="-104.297" y2="-104.829" gradientTransform="matrix(.9923 -.6192 -.4963 -.8717 -71.57 -54.11)" gradientUnits="userSpaceOnUse"><stop offset="0" style="stop-color:#92c932"/><stop offset="1" style="stop-color:#92c932;stop-opacity:0"/></linearGradient><path d="M13.728 15.838c.812-.762 2.11-1.168 2.845-1.177.447-.005-1.009.768-2.015 1.928-.281.323-1.18-.422-.83-.75z" style="fill:url(#Z)"/><linearGradient id="aa" x1="39.034" x2="37.219" y1="-57.304" y2="-57.771" gradientTransform="matrix(.9181 -.7248 -.5893 -.8117 -55.475 -3.707)" gradientUnits="userSpaceOnUse"><stop offset="0" style="stop-color:#92c932"/><stop offset="1" style="stop-color:#92c932;stop-opacity:0"/></linearGradient><path d="M12.189 15.99c.637-.742 1.743-1.214 2.394-1.287.395-.044-.812.765-1.578 1.874-.214.31-1.091-.266-.816-.586z" style="fill:url(#aa)"/><linearGradient id="ab" x1="37.617" x2="36.126" y1="-56.625" y2="-57.009" gradientTransform="matrix(.9181 -.7248 -.5893 -.8117 -55.475 -3.707)" gradientUnits="userSpaceOnUse"><stop offset="0" style="stop-color:#92c932"/><stop offset="1" style="stop-color:#92c932;stop-opacity:0"/></linearGradient><path d="M10.834 16.203c.524-.61 1.433-.998 1.968-1.058.325-.036-.667.63-1.297 1.54-.176.255-.897-.218-.67-.482z" style="fill:url(#ab)"/><linearGradient id="ac" x1="22.508" x2="25.195" y1="58.433" y2="62.253" gradientTransform="rotate(4.585 612.497 -123.705)" gradientUnits="userSpaceOnUse"><stop offset="0" style="stop-color:#92c932"/><stop offset=".246" style="stop-color:#7fb92d"/><stop offset=".733" style="stop-color:#5e9d23"/><stop offset="1" style="stop-color:#529320"/></linearGradient><path d="M20.98 5.444c-5.342 1.596-5.808 4.017-6.112 4.079-4.802.973-7.7 6.923-12.117 5.628-.463-.136-3.187-.303-2.69 2.711.251 1.534 1.65 2.836 3.13 1.372 4.614-4.56 9.997-3.498 12.236-5.782 1.405-1.432 1.644-2.576 1.452-3.277-.125-.454-.563-2.218 4.102-4.731z" style="fill:url(#ac)"/><path d="M2.979 16.563c.247.162-1.164 1.885-1.422 1.702-.716-.502.46-2.337 1.422-1.702z" style="fill:#297124"/><path d="M10.737 10.595c-1.163-.277-.37-4.626-.882-3.344-1.74 4.352.277 5.7.882 3.344z" style="fill:#529320"/><path d="M9.904 10.618c-1.051.19-.753-3.527-1.01-2.4-.871 3.831.793 4.39 1.01 2.4z" style="fill:#529320"/><path d="M12.094 9.941c-1.43-.91 1.633-6.125.5-4.732-3.9 4.794-2.228 7.49-.5 4.732z" style="fill:#529320"/><path d="M13.606 8.7c-1.105-.961 2.21-5.044 1.054-3.994-3.925 3.569-2.88 6.117-1.054 3.995zm1.847.043c.336-1.833 2.452-1.893 2.036-3.816-.28 1.522-3.397 1.932-3.725 4.357l1.69-.541z" style="fill:#529320"/><path d="M14.171 9.005c.182-1.854 2.364-2.595 1.789-4.477-.152 1.539-3.084 2.606-3.208 5.05l1.42-.572z" style="fill:#529320"/><linearGradient id="ad" x1="-9.733" x2="-8.987" y1="-34.048" y2="-33.339" gradientTransform="rotate(-8.622 285.911 -176.46)" gradientUnits="userSpaceOnUse"><stop offset="0" style="stop-color:#92c932"/><stop offset="1" style="stop-color:#529320"/></linearGradient><path d="M15.584 9.365c1.124-1.074 1.182-2.506.915-2.823-.49 2.111-6.778 6.101-.915 2.823z" style="fill:url(#ad)"/><linearGradient id="ae" x1="16.401" x2="17.721" y1="29.701" y2="30.311" gradientTransform="rotate(.81 1670.288 -193.618)" gradientUnits="userSpaceOnUse"><stop offset="0" style="stop-color:#92c932"/><stop offset=".249" style="stop-color:#8ec631"/><stop offset=".5" style="stop-color:#82bb2d"/><stop offset=".751" style="stop-color:#6eaa28"/><stop offset="1" style="stop-color:#529320"/></linearGradient><path d="M14.45 9.53c.96-.983 1.147-3.438.838-3.252-.775 2.552-5.1 5.656-.838 3.251z" style="fill:url(#ae)"/><linearGradient id="af" x1="20.351" x2="21.419" y1="39.747" y2="40.076" gradientTransform="rotate(2.373 768.225 -164.899)" gradientUnits="userSpaceOnUse"><stop offset="0" style="stop-color:#92c932"/><stop offset=".224" style="stop-color:#8cc430"/><stop offset=".523" style="stop-color:#7bb62c"/><stop offset=".864" style="stop-color:#5f9e24"/><stop offset="1" style="stop-color:#529320"/></linearGradient><path d="M13.128 9.837c1.03-1.424.808-3.808.585-3.531-.989 2.208-3.545 7.154-.585 3.531z" style="fill:url(#af)"/><linearGradient id="ag" x1="5.173" x2="6.761" y1="16.166" y2="16.166" gradientTransform="rotate(-1.238 -311.296 -198.483)" gradientUnits="userSpaceOnUse"><stop offset="0" style="stop-color:#92c932"/><stop offset="1" style="stop-color:#529320"/></linearGradient><path d="M11.355 10.709c-1.415-.388.006-4.83-.625-3.65-2.146 4.012-.184 5.872.625 3.65z" style="fill:url(#ag)"/><linearGradient id="ah" x1="6.551" x2="8.522" y1="23.776" y2="23.776" gradientTransform="translate(2.17 -13.105)" gradientUnits="userSpaceOnUse"><stop offset="0" style="stop-color:#92c932"/><stop offset="1" style="stop-color:#529320"/></linearGradient><path d="M10.836 11.433c-1.145.67-1.771-3.254-1.907-2.381-.46 2.967 1.387 4.307 1.907 2.381z" style="fill:url(#ah)"/><linearGradient id="ai" x1="23.469" x2="25.638" y1="58.428" y2="58.428" gradientTransform="rotate(4.887 562.517 -141.515)" gradientUnits="userSpaceOnUse"><stop offset="0" style="stop-color:#92c932"/><stop offset="1" style="stop-color:#529320"/></linearGradient><path d="M10.427 11.988c-1.019.63-2.064-2.161-1.92-1.236.494 3.14 2.421 2.757 1.92 1.236z" style="fill:url(#ai)"/><linearGradient id="aj" x1="14.463" x2="15.513" y1="29.931" y2="30.187" gradientTransform="rotate(.928 1331.933 -175.104)" gradientUnits="userSpaceOnUse"><stop offset="0" style="stop-color:#92c932"/><stop offset="1" style="stop-color:#529320"/></linearGradient><path d="M12.428 10.4c-.553-.973.778-5.092-.026-3.933-2.602 3.75-1.229 6.103.026 3.932z" style="fill:url(#aj)"/><linearGradient id="ak" x1="11.964" x2="11.964" y1="13.212" y2="11.091" gradientUnits="userSpaceOnUse"><stop offset="0" style="stop-color:#ffd500"/><stop offset=".161" style="stop-color:#ffc600"/><stop offset=".473" style="stop-color:#ff9d00"/><stop offset=".901" style="stop-color:#ff5d00"/><stop offset="1" style="stop-color:#ff4d00"/></linearGradient><path d="M13.006 11.358c.725 1.098-.79 2.384-2.27 1.627.164-1.91 1.885-2.21 2.27-1.627z" style="fill:url(#ak)"/><path d="M12.434 12.177c.215 1.013-1.265 1.385-1.475.362-.21-1.02 1.27-1.39 1.475-.362z" style="fill:#302c3b"/><path d="M12.146 11.577c.323-.086.412.348.089.434-.326.075-.414-.356-.089-.434z" style="fill:#fff"/><path d="M9.911 13.267c.425.42 4.012.833 3.681-2.538 0 0 .598-.723 2.484-1.415-2.113-.252-6.188 1.272-6.165 3.953zm.922-.335c.073-1.407 1.527-1.781 1.954-1.367.84.818-1.05 1.792-1.954 1.367z" style="fill:#297124"/><linearGradient id="al" x1="-4.864" x2="-8.883" y1="-30.494" y2="-29.694" gradientTransform="rotate(-9.355 290.712 -175.481)" gradientUnits="userSpaceOnUse"><stop offset="0" style="stop-color:#92c932"/><stop offset="1" style="stop-color:#529320"/></linearGradient><path d="M20.005 15.848c-.43-.117-.46 1.489.006 1.405 1.081-.196 2.081-1.064 2.405-1.739.428-.892-.89.745-2.41.334z" style="fill:url(#al)"/><linearGradient id="am" x1="-4.705" x2="-9.951" y1="-29.758" y2="-28.714" gradientTransform="rotate(-9.355 290.712 -175.481)" gradientUnits="userSpaceOnUse"><stop offset="0" style="stop-color:#92c932"/><stop offset="1" style="stop-color:#529320"/></linearGradient><path d="M18.987 18.57c1.555-.026 3.153-1.011 3.763-1.88.805-1.149-1.417.838-3.445-.085-.572-.261-.99 1.976-.318 1.965z" style="fill:url(#am)"/><linearGradient id="an" x1="-5.524" x2="-10.824" y1="-28.35" y2="-27.942" gradientTransform="rotate(-9.355 290.712 -175.481)" gradientUnits="userSpaceOnUse"><stop offset="0" style="stop-color:#92c932"/><stop offset="1" style="stop-color:#529320"/></linearGradient><path d="M18.097 19.618c1.545.169 3.256-.608 3.97-1.394.946-1.039-1.51.654-3.404-.516-.534-.331-1.233 1.837-.566 1.91z" style="fill:url(#an)"/><linearGradient id="ao" x1="-7.876" x2="-10.993" y1="-27.117" y2="-27.068" gradientTransform="rotate(-9.355 290.712 -175.481)" gradientUnits="userSpaceOnUse"><stop offset="0" style="stop-color:#92c932"/><stop offset=".976" style="stop-color:#529320"/></linearGradient><path d="M18.04 19.16c-.305-.255-.936 1.043-.525 1.147.952.241 2.093-.096 2.61-.526.686-.568-1.004.278-2.084-.622z" style="fill:url(#ao)"/><linearGradient id="ap" x1="170.003" x2="167.465" y1="173.397" y2="154.646" gradientTransform="rotate(33.831 304.875 -139.49) scale(.9999)" gradientUnits="userSpaceOnUse"><stop offset="0" style="stop-color:#92c932"/><stop offset="1" style="stop-color:#529320"/></linearGradient><path d="M28.485 40.39c2.547-8.316-6.539-7.538-4.336-1.067-.75 3.52-.07 4.877-.07 4.877-1.411-.908-3.594-.165-5.916-1.502-3.156-1.818-7.77-2.698-7.851 1.42-.007.387 1.515-1.757 3.534-1.163.83.246-1.997 1.424-1.486 3.369.162.613 1.251-1.302 2.375-1.322.688-.009 1.302.293 2 .3-.159.847-.657 1.871-.305 1.84 1.489-.136 1.82-1.146 2.02-2.114 1.243.603 3.817 3.908 7.598 3.717.953-.048 1.747-6.094 2.437-8.355z" style="fill:url(#ap)"/><path d="M11.117 41.93c-1.016-.049-2.31 1.805-1.713 3.582.474-1.33 2.508-2.206 1.713-3.582zm1.678 2.57c-1.022.102-2.021 2.099-1.145 3.762.266-1.372 2.152-2.519 1.145-3.761zm4.798 1.876c.188.74-.954 1.944-2.338 1.753.892-.533 1.215-2.142 2.338-1.753z" style="fill:#302c3b"/></svg>