<svg xmlns="http://www.w3.org/2000/svg" xml:space="preserve" style="enable-background:new 0 0 64 64" viewBox="0 0 64 64"><path d="M61.782 50.272c-3.884-2.901-8.626.327-9.566 3.859-.662 2.475 1.826-.051 2.763-1.075 2.86-3.126 7.388-.552 6.696 2.308-1.117 4.65-8.391 4.698-14.665 2.12-1.382-.569-.492-2.135.275-5.072.22-.842-11.104 7.025-10.54 7.116 2.148.344 6.816.245 7.963.819C47.026 61.493 52.854 62 54.955 62c4.409 0 7.922-2.206 8.788-5.253.246-.87.957-4.291-1.961-6.475z" style="fill:#785647"/><linearGradient id="a" x1="31.534" x2="44.201" y1="41.032" y2="26.977" gradientTransform="translate(-.242 -.172)" gradientUnits="userSpaceOnUse"><stop offset="0" style="stop-color:#785647"/><stop offset="1" style="stop-color:#9c705d"/></linearGradient><path d="M26.47 18.344c-3.779-1.539-7.903 6.912-7.89 9.628.042 9.597 12.022 23.22 13.33 26.82 2.193 6.026 13.06 6.006 15.375-2.38C54.607 25.89 31.72 20.482 26.47 18.344z" style="fill:url(#a)"/><linearGradient id="b" x1="-20.433" x2="-20.433" y1="110.13" y2="101.79" gradientTransform="rotate(-10.003 -533.603 -202.311)" gradientUnits="userSpaceOnUse"><stop offset="0" style="stop-color:#805b4c"/><stop offset=".332" style="stop-color:#845e4e"/><stop offset=".629" style="stop-color:#8e6554"/><stop offset=".912" style="stop-color:#a1735f"/><stop offset="1" style="stop-color:#a87863"/></linearGradient><path d="M26.808 16.027c3.36-2.807.125-10.775-4.305-6.925-1.78 1.546 2.496 8.437 4.305 6.925z" style="fill:url(#b)"/><radialGradient id="c" cx="1172.76" cy="-971.267" r="3.932" gradientTransform="matrix(.1616 .9167 1.1533 -.2033 957.48 -1260.208)" gradientUnits="userSpaceOnUse"><stop offset=".261" style="stop-color:#ebbb96"/><stop offset=".485" style="stop-color:#e7b792"/><stop offset=".729" style="stop-color:#daaa85"/><stop offset=".98" style="stop-color:#c69470"/><stop offset="1" style="stop-color:#c4926e"/></radialGradient><path d="M26.384 15.302c2.393-2.321-.105-8.355-2.65-5.034-1.743 2.276.718 6.908 2.65 5.034z" style="opacity:.7;fill:url(#c)"/><linearGradient id="d" x1="-43.141" x2="-43.141" y1="110.131" y2="101.791" gradientTransform="rotate(-10.003 -533.603 -202.311)" gradientUnits="userSpaceOnUse"><stop offset="0" style="stop-color:#805b4c"/><stop offset=".332" style="stop-color:#845e4e"/><stop offset=".629" style="stop-color:#8e6554"/><stop offset=".912" style="stop-color:#a1735f"/><stop offset="1" style="stop-color:#a87863"/></linearGradient><path d="M2.8 20.26c-4.118-1.488-3.803-10.082 1.677-7.98 2.2.845.54 8.782-1.678 7.98z" style="fill:url(#d)"/><radialGradient id="e" cx="1173.627" cy="-988.763" r="3.977" gradientTransform="matrix(.1616 .9167 -1.1533 .2033 -1328.476 -858.036)" gradientUnits="userSpaceOnUse"><stop offset=".261" style="stop-color:#ebbb96"/><stop offset=".485" style="stop-color:#e7b792"/><stop offset=".729" style="stop-color:#daaa85"/><stop offset=".98" style="stop-color:#c69470"/><stop offset="1" style="stop-color:#c4926e"/></radialGradient><path d="M2.95 19.434c-3.043-1.363-2.759-7.887.77-5.637 2.492 1.591 2.054 6.902-.77 5.637z" style="opacity:.7;fill:url(#e)"/><path d="M9.662 6.138c1.273-2.832 4.007-3.775 5.436-4.08.646-.138.793-.047.505.457-.422.743-.768 1.79-.834 3.154-.084 1.694-5.65 1.683-5.107.47z" style="fill:#a87863"/><path d="M10.626 5.54c1.887-2.405 4.77-2.608 6.234-2.535.66.034.784.158.388.572-.582.607-1.158 1.527-1.535 2.825-.468 1.613-5.895.168-5.087-.861z" style="fill:#a87863"/><path d="M7.113 6.573c.426-1.28 2.741-3.026 4.326-3.765.6-.28.75-.265.602.303-.219.838-.287 1.948-.007 3.286.346 1.664-5.333 1.411-4.921.176z" style="fill:#a87863"/><linearGradient id="f" x1="-31.787" x2="-31.787" y1="120.884" y2="95.769" gradientTransform="rotate(-10.003 -533.603 -202.311)" gradientUnits="userSpaceOnUse"><stop offset="0" style="stop-color:#916856"/><stop offset="1" style="stop-color:#a87863"/></linearGradient><path d="M26.7 16.06c-.96-2.47-2.29-3.324-3.147-4.67-1.561-3.387-2.581-8.79-11.221-7.267-8.64 1.523-7.751 6.95-8.06 10.666-.345 1.558-1.303 2.817-1.36 5.466-.153 7.237 5.456 6.158 7.194 7.176 2.16 1.265 4.085 1.866 6.587 1.425 2.502-.441 4.105-1.664 5.702-3.592 1.285-1.552 6.924-2.455 4.305-9.203z" style="fill:url(#f)"/><linearGradient id="g" x1="-.586" x2="-.586" y1="150.581" y2="137.246" gradientTransform="matrix(.9026 -.1591 .1707 .9679 -5.84 -123.112)" gradientUnits="userSpaceOnUse"><stop offset=".575" style="stop-color:#ebbb96"/><stop offset=".719" style="stop-color:#e8b893"/><stop offset=".84" style="stop-color:#dead89"/><stop offset=".952" style="stop-color:#cd9c78"/><stop offset="1" style="stop-color:#c4926e"/></linearGradient><path d="M24.215 15.214c.629 3.564-1.556 6.929-4.88 7.515-3.323.586-6.527-1.829-7.156-5.393-.628-3.564 1.557-6.929 4.88-7.515 3.324-.586 6.528 1.829 7.156 5.393z" style="fill:url(#g)"/><linearGradient id="h" x1="-8.586" x2="-8.586" y1="150.582" y2="137.246" gradientTransform="matrix(.9026 -.1591 .1707 .9679 -5.84 -123.112)" gradientUnits="userSpaceOnUse"><stop offset=".575" style="stop-color:#ebbb96"/><stop offset=".719" style="stop-color:#e8b893"/><stop offset=".84" style="stop-color:#dead89"/><stop offset=".952" style="stop-color:#cd9c78"/><stop offset="1" style="stop-color:#c4926e"/></linearGradient><path d="M16.994 16.488c.628 3.563-1.557 6.928-4.88 7.514-3.324.586-6.528-1.828-7.156-5.392-.629-3.564 1.556-6.93 4.88-7.515 3.323-.586 6.528 1.828 7.156 5.393z" style="fill:url(#h)"/><linearGradient id="i" x1="-31.787" x2="-31.787" y1="120.15" y2="107.757" gradientTransform="rotate(-10.003 -533.603 -202.311)" gradientUnits="userSpaceOnUse"><stop offset="0" style="stop-color:#c4926e"/><stop offset=".074" style="stop-color:#cd9c78"/><stop offset=".249" style="stop-color:#dead89"/><stop offset=".436" style="stop-color:#e8b893"/><stop offset=".659" style="stop-color:#ebbb96"/></linearGradient><path d="M17.457 18.307c-1.192-1.712-1.535-2.644-3.044-2.378-1.509.266-1.512 1.259-2.046 3.276-.244.921-2.715 1.639-2.182 4.664.389 2.203 3.169 4.83 6.38 4.264 3.211-.566 4.925-3.986 4.537-6.19-.533-3.024-3.1-2.854-3.645-3.636z" style="fill:url(#i)"/><linearGradient id="j" x1="74.98" x2="74.98" y1="372.389" y2="366.619" gradientTransform="matrix(.8337 -.147 .1203 .6825 -91.795 -220.957)" gradientUnits="userSpaceOnUse"><stop offset="0" style="stop-color:#ebbb96"/><stop offset=".79" style="stop-color:#fac8a3"/></linearGradient><path d="M14.82 18.238c-1.445.255-2.503 1.12-2.184 2.925.166.943 1.681 1.224 2.879 1.012 1.2-.211 2.525-.992 2.358-1.936-.318-1.805-1.606-2.256-3.053-2.001z" style="fill:url(#j)"/><linearGradient id="k" x1="74.98" x2="74.98" y1="372.389" y2="368.894" gradientTransform="matrix(.8337 -.147 .1203 .6825 -91.795 -220.957)" gradientUnits="userSpaceOnUse"><stop offset="0" style="stop-color:#ddac88"/><stop offset=".312" style="stop-color:#d4a37f"/><stop offset="1" style="stop-color:#c4926e"/></linearGradient><path d="M15.19 20.332c-1.446.255-2.873-.975-2.554.83.166.944 2.08 1.154 2.879 1.013.8-.14 2.525-.992 2.358-1.936-.318-1.805-1.236-.162-2.683.093z" style="fill:url(#k)"/><path d="M17.269 20.208c.078-1.025-1.971 1.255-1.285 1.276 1 .032 1.25-.816 1.285-1.276zm-4.076.719c-.422-.937 2.282.505 1.644.76-.928.37-1.454-.34-1.644-.76z" style="fill:#785647"/><path d="M19.363 13.388c-1.98.367-2.44 2.29-2.056 3.549.286.937 5.193-.496 5.157-1.058-.09-1.42-1.28-2.828-3.101-2.49z" style="opacity:.7;fill:#ba8864"/><path d="M19.398 13.815c-1.415.25-2.364 1.564-2.122 2.935a2.548 2.548 0 0 0 2.998 2.033c1.617-.285 2.086-1.93 1.915-2.9-.241-1.37-1.376-2.318-2.791-2.068z" style="fill:#fff3e3"/><path d="M19.28 14.16c1.109-.196 2.176.607 2.385 1.79.208 1.185-.52 2.303-1.63 2.498-1.109.196-2.176-.606-2.384-1.79-.209-1.183.52-2.303 1.629-2.498z" style="fill:#1a1626"/><path d="M19.314 15.332c.126.718-.978.913-1.104.195-.127-.72.977-.914 1.104-.195z" style="fill:#fff"/><path d="M8.893 15.234c1.986-.333 3.076 1.317 3.146 2.632.052.978-5.05 1.31-5.208.77-.401-1.365.235-3.096 2.062-3.402z" style="opacity:.7;fill:#ba8864"/><path d="M9.006 15.647c1.415-.25 2.756.661 2.998 2.032a2.548 2.548 0 0 1-2.122 2.936c-1.617.285-2.62-1.1-2.791-2.07-.242-1.37.5-2.649 1.915-2.898z" style="fill:#fff3e3"/><path d="M9.235 15.931c-1.109.196-1.837 1.315-1.628 2.498.209 1.185 1.275 1.986 2.384 1.79 1.11-.195 1.838-1.313 1.63-2.498-.21-1.183-1.276-1.986-2.386-1.79z" style="fill:#1a1626"/><path d="M9.604 17.044c.127.718 1.23.524 1.104-.195-.127-.72-1.23-.524-1.104.195z" style="fill:#fff"/><path d="M19.206 22.632c.251 1.422-1.089 2.993-3.023 3.334-1.934.34-3.73-.677-3.98-2.1 0 0 1.601.234 3.59-.117 1.988-.35 3.413-1.117 3.413-1.117z" style="fill:#1a1626"/><path d="M18.068 25.003c-.954-.579-3.287-.168-3.984.703.681.673 3.616.15 3.984-.703z" style="fill:#ed7196"/><path d="M16.231 26.24c-2.046.36-4.017-.704-4.303-2.325a.277.277 0 0 1 .314-.323c.016.002 1.585.222 3.502-.116 1.917-.338 3.317-1.082 3.33-1.09a.278.278 0 0 1 .405.197c.287 1.621-1.2 3.295-3.248 3.656zm-3.648-2.055c.455 1.094 2 1.78 3.552 1.507 1.552-.274 2.769-1.447 2.822-2.63-.56.255-1.692.71-3.116.96s-2.644.212-3.258.163z" style="fill:#785647"/><path d="M25.632 53.52c-2.143.856-2.77 2.254-5.54 3.37-.696.282-1.333 1.914-.782 1.914 3.538 0 6.495-.526 7.368-.59 2.449-.178-.449-5.015-1.046-4.694z" style="fill:#e3b182"/><path d="M16.917 33.088c-4.632 1.321-6.265 3.71-6.343 4.345-.275 2.162-.421 5.29.741 5.131.406.447.955-.344.955-.344.703.648.972-.983 1.266-2.512.043-.239 2.585-.411 4.002-1.883 1.094-.152.962-4.638-.62-4.737z" style="fill:#ffdaad"/><path d="M11.133 37.944s-.974 3.755.182 4.62c-.591-1.775-.182-4.62-.182-4.62zm.977-.119s-.995 3.528.16 4.395c-.595-1.78-.16-4.395-.16-4.395z" style="fill:#e3b182"/><linearGradient id="l" x1="15.782" x2="36.1" y1="29.579" y2="29.579" gradientTransform="translate(-.242 -.172)" gradientUnits="userSpaceOnUse"><stop offset="0" style="stop-color:#9c705d"/><stop offset="1" style="stop-color:#785647"/></linearGradient><path d="M29.57 21.589c-3.066-3.689-8.782-.689-8.023 4.226.592 3.864 3.496 6.363 3.496 6.363-4.863.245-8.453.192-9.413 1.187-.469.491 1.071.154.62.801-.54.781.046.785.356 1.324.411.713-.724 1.232-.13 1.674.666.5-.429 1.225.064 1.438.405.176.956-.118 1.711-.777 3.12-2.723 16.721 3.368 17.467 0 .793-3.573-1.872-11.09-6.148-16.236z" style="fill:url(#l)"/><path d="M29.065 30.055c-3.138 3.542-5.94 2.115-9.54 2.385 5.407-1.203 5.278.54 9.54-2.384z" style="fill:#785647"/><linearGradient id="m" x1="290.866" x2="316.246" y1="524.621" y2="524.621" gradientTransform="matrix(.9645 .73 -.6035 .7974 51.903 -593.494)" gradientUnits="userSpaceOnUse"><stop offset="0" style="stop-color:#a87863"/><stop offset=".428" style="stop-color:#966b59"/><stop offset="1" style="stop-color:#785647"/></linearGradient><path d="M19.315 34.667c-3.028-.011-5.083 5.054-4.471 7.926 1.262 5.926 11.428 9.867 10.874 12.923-.53 1.056 2.986 1.496 7.298 4.94 21.799 1.393 6.449-25.715-13.701-25.79z" style="fill:url(#m)"/><path d="M23.374 42.524c7.986 3.124 7.855 9.317 10.057 15.768-3.123-5.582-2.992-11.747-10.057-15.768z" style="fill:#785647"/><path d="M25.718 55.516c-2.517.865-3.255 2.278-6.508 3.405-.818.286-1.569 1.932-.92 1.932 4.156 0 5.725-.58 6.747-.645 2.877-.18 2.858.645 7.276.645 1.46 0 2.131-2.997.678-2.594-1.538.427-1.882-2.01-2.622-1.594-1.099.614-2.34-1.611-2.86-.9-1.056 1.44-1.092-.574-1.791-.25z" style="fill:#ffdaad"/></svg>