<svg xmlns="http://www.w3.org/2000/svg" xml:space="preserve" style="enable-background:new 0 0 64 64" viewBox="0 0 64 64"><path d="M15.414 41.14c-.446-4.38-2.383-2.229-6.91-.836-3.19.976 7.248 4.15 6.91.837z" style="fill:#72bd00"/><path d="M15.8 43.42c4.526-1.389 2.801-7.525-1.726-6.135-3.19.978-1.466 7.115 1.726 6.134z" style="fill:#1a1626"/><path d="M19.022 52.059c-.873-4.453-2.546-2.167-6.82-.536-3.01 1.142 7.482 3.906 6.82.536z" style="fill:#72bd00"/><path d="M20.123 53.918c4.024-2.162 1.042-8.06-2.98-5.894-2.839 1.525.144 7.42 2.98 5.894z" style="fill:#1a1626"/><path d="M37.01 57.73c-4.273-.583-2.916.946-3.168 3.818-.178 2.023 6.4-3.375 3.168-3.817z" style="fill:#72bd00"/><path d="M38.521 58.118c.31-4.716-6.049-5.293-6.357-.574-.221 3.324 6.138 3.898 6.357.575z" style="fill:#1a1626"/><path d="M25.325 56.225c-4.171-1.147-3.004.553-3.594 3.37-.416 1.983 6.75-2.503 3.594-3.37z" style="fill:#72bd00"/><path d="M27.455 56.354c.862-4.639-5.378-6.054-6.24-1.413-.612 3.267 5.63 4.681 6.24 1.413z" style="fill:#1a1626"/><path d="M48.079 57.73c-4.274-.583-2.916.946-3.168 3.818-.18 2.023 6.4-3.375 3.168-3.817z" style="fill:#72bd00"/><path d="M49.59 58.118c.308-4.716-6.05-5.293-6.359-.574-.22 3.324 6.14 3.898 6.358.575z" style="fill:#1a1626"/><path d="M58.676 57.73c-4.273-.583-2.915.946-3.167 3.818-.18 2.023 6.4-3.375 3.167-3.817z" style="fill:#72bd00"/><path d="M60.188 58.118c.309-4.716-6.05-5.293-6.358-.574-.221 3.324 6.14 3.898 6.358.575zM4.822 8.715c-2.68.792 2.854.983 4.954 2.53 1.7 1.252-.472-3.856-4.954-2.53z" style="fill:#1a1626"/><path d="M16.069 8.221c-4.482-1.325-6.654 3.784-4.955 2.53 2.1-1.544 7.636-1.737 4.955-2.53z" style="fill:#1a1626"/><radialGradient id="a" cx="45.079" cy="44.337" r="24.948" gradientTransform="matrix(.7071 -.7493 .705 .7471 -18.054 32.486)" gradientUnits="userSpaceOnUse"><stop offset="0" style="stop-color:#98f000"/><stop offset=".431" style="stop-color:#96ee00"/><stop offset=".643" style="stop-color:#91e600"/><stop offset=".807" style="stop-color:#87d900"/><stop offset=".946" style="stop-color:#79c700"/><stop offset="1" style="stop-color:#72bd00"/></radialGradient><path d="M41.67 43.653c-.713.18-1.16.359-1.885.399-.755-.769-2.862-.596-3.688.128-2.033.448-2.177-.323-2.177-.323.112-.834-1.296-1.9-2.21-1.838 0 0-.994-.445-.141-1.26 2.254-1.67.148-7.248-1.14-8.701 0 0-1.222.255 0-2.713 2.063-2.534 1.393-10.34-1.513-10.42 0 0-.912.1-1.234-1.508.228-1.859-4.147-6.904-6.923-5.686 0 0 .8 7.37-11.204 13.494 9.216.047 4.112 4.718 7.226 7.131-4.126 3.483-3.991 10.528 1.064 13.261-2.866 6.85 3.869 13 11.256 11.702 0 0 5.723 3.418 12.115.325 0 0 4.382 2.784 10.893.162 16.64 4.717 15.325-19.273-.875-14.668-2.342-.399-6.031-1.77-9.564.515z" style="fill:url(#a)"/><radialGradient id="b" cx="7.864" cy="25.399" r="13.666" gradientTransform="matrix(1 0 0 1.0597 0 -15.153)" gradientUnits="userSpaceOnUse"><stop offset="0" style="stop-color:#98f000"/><stop offset=".431" style="stop-color:#96ee00"/><stop offset=".643" style="stop-color:#91e600"/><stop offset=".807" style="stop-color:#87d900"/><stop offset=".946" style="stop-color:#79c700"/><stop offset="1" style="stop-color:#72bd00"/></radialGradient><path d="M20.759 11.731c-1.596-1.999-8.218-1.992-12.23-1.37C-2.014 11.99-.17 21.36.704 23c-.556 2.894 3.626 2.193 4.556 1.666-.68.902-1.585.864-1.73 1.36-.481 1.64 2.798 1.286 4.574 1.067C20.5 25.562 21.402 15.537 20.76 11.73z" style="fill:url(#b)"/><path d="M30.428 29.345s-3.149 3.275-11.651 3.618c4.951 1.557 11.651-.905 11.651-.905-.338-1.165 0-2.713 0-2.713zm-2.746-11.928s-1.586 4.106-8.245 7.379c7.004-1.933 9.479-5.871 9.479-5.871s-.583-.034-1.234-1.508zm-8.155-6.547s1.917 4.339-1.858 11.012c4.47-5.506 4.164-10.334 4.164-10.334s-.856-.358-2.306-.678zm12.042 29.89s-5.473-.019-10.396 3.52c4.923-1.874 10.537-2.261 10.537-2.261s-.476-.627-.141-1.26zm2.351 3.097s-.486 2.757-4.662 8.836c4.94-4.395 6.84-8.513 6.84-8.513s-.985.11-2.178-.323zm7.75-.204s5.223 3.897 1.761 11.124c1.544-8.458-3.646-10.725-3.646-10.725s.515-.093 1.885-.4zm11.065-.871s4.836 3.26 1.374 10.488c1.544-8.458-3.356-10.2-3.356-10.2s.592-.041 1.982-.288z" style="fill:#1a1626"/><path d="M24.085 12.407c-1.308 1.251-.581 4.418-1.758 5.281-5.815 4.269.402 7.188 1.588 1.227.471-2.377 2.136-1.766 2.828-3.876-1.025-1.694-2.658-2.632-2.658-2.632zm7.579 21.844c-2.51-.953-3.775 2.448-5.162 2.074-6.857-1.843-5.07 6.048-.05 3.08 2-1.182 4.999.051 6.106-1.408 0-1.948-.894-3.746-.894-3.746zm4.903 9.633c-1.318 2.455.645 2.821.059 4.206-2.31 5.455 4.484 5.535 2.854.583-.755-2.292.924-3.548-.242-4.957-1.627-.53-2.671.168-2.671.168zm8.909-1.494c-1.249 2.496 1.795 3.217 1.248 4.618-2.157 5.526 5.972 4.58 2.87.493-1.82-2.394.29-3.51-.916-4.882-1.585-.414-3.202-.228-3.202-.228zm-13.102-.259c-2.306.161-3.73 2.997-4.954 3.208-6.051 1.047-1.715 6.361 1.308 2.164 1.204-1.673 4.693-2.586 5.098-4.151-.392-.976-1.452-1.221-1.452-1.221zM21.68 29.56c1.483 2.883-4.717 2.551-3.474-.457.587-1.424 2.233-1.96 3.474.457z" style="fill:#1a1626"/><path d="M21.143 38.75c1.482 2.885-4.72 2.55-3.476-.457.587-1.422 2.234-1.96 3.476.456zm3.57 11.187c1.221 2.378-3.886 2.102-2.863-.375.485-1.173 1.841-1.616 2.863.375zm14.833 4.707c1.22 2.377-3.89 2.102-2.865-.376.485-1.172 1.841-1.614 2.865.376zm11.715-1.51c1.221 2.376-3.887 2.103-2.864-.377.483-1.172 1.84-1.614 2.864.377zM30.982 20.902c-2.666-.037-3.262 3.613-4.687 3.739-7.051.619-2.942 7.465.896 2.928 1.53-1.806 3.831-1.064 4.43-2.825.196-2.006-.639-3.842-.639-3.842z" style="fill:#1a1626"/><path d="M26.502 24.366c-1.102 2.882 3.112 3.936 1.88 1.345-.818-1.718-1.54-2.233-1.88-1.345zm.23 11.857c-2.039 2.237 1.5 4.884 1.27 1.993-.153-1.917-.641-2.682-1.27-1.993zm-7.517 2.867c-2.747 1.558 1.57 2.942 1.478 1.15-.063-1.188-.632-1.63-1.479-1.15zm.477-9.177c-2.745 1.556 1.571 2.94 1.479 1.149-.062-1.19-.631-1.63-1.479-1.149zm3.456 20.161c-2.544 1.44 1.455 2.723 1.37 1.064-.057-1.102-.586-1.51-1.37-1.064zm15.572 3.937c-2.12 1.393 1.272 2.747 1.173 1.088-.066-1.1-.518-1.517-1.173-1.088zm11.689-1.585c-2.228 1.406 1.318 2.74 1.222 1.082-.064-1.1-.535-1.515-1.222-1.082zm-22.647-7.66c-.758 3.005 3.547 3.497 2.024 1.089-1.013-1.598-1.79-2.015-2.024-1.09zm8.697 3.334c1.947 2.328 4.71-1.205 1.972-1.188-1.816.013-2.573.468-1.972 1.189zm10.128-1.29c1.788 2.466 4.778-.854 2.045-1.038-1.812-.122-2.597.277-2.045 1.039z" style="fill:#ffa400"/><path d="M55.622 42.526c-.604 2.75 2.402 2.744 1.945 4.18-1.8 5.668 5.713 3.963 2.357.109-1.968-2.26-.565-2.625-1.388-3.78-1.382-.58-2.914-.51-2.914-.51zm5.204 10.611c1.22 2.376-3.889 2.1-2.865-.376.484-1.173 1.84-1.616 2.865.376z" style="fill:#1a1626"/><path d="M59.972 52.429c-2.226 1.406 1.32 2.74 1.223 1.082-.065-1.1-.534-1.514-1.223-1.082zM57.2 46.582c1.798 2.123 4.314-1.135 1.802-1.101-1.665.021-2.357.445-1.802 1.101zM22.577 17.199c.014 2.74 3.27.719 1.691-.29-1.047-.668-1.697-.557-1.691.29z" style="fill:#ffa400"/><path d="M7.423 15.957c-1.126.073-2 1.04-1.95 2.157a1.98 1.98 0 0 0 2.13 1.89c1.126-.074 2-1.037 1.95-2.154a1.988 1.988 0 0 0-2.13-1.893z" style="fill:#1a1626"/><path d="M6.545 16.799a.54.54 0 0 0-.503.557.512.512 0 0 0 .55.488.538.538 0 0 0 .504-.556.514.514 0 0 0-.55-.49z" style="fill:#6e8189"/></svg>