<svg xmlns="http://www.w3.org/2000/svg" xml:space="preserve" style="enable-background:new 0 0 64 64" viewBox="0 0 64 64"><path d="M26.696 40.358c0-3.195-5.433-3.447-5.948-.188-.357 2.25 1.423 6.9 1.468 7.999.044 1.108.558 1.846.646 2.984.289 3.787-.891 5.299-.891 6.006l3.23 1.589c.224-1.59.434-1.373.262-2.67-.41-3.13.86-4.572.402-6.78-.573-2.78.83-4.562.83-8.94z" style="fill:#3e484f"/><path d="M20.91 59.993h3.94c.264-.245.415-.915.351-1.245-.154-.805-3.23-1.59-3.23-1.59-.53 1.115-1.062 1.44-1.062 2.835z" style="fill:#1a1626"/><path d="M50.019 40.36c0-3.092-5.53-3.547-6.066-.085-.348 2.249 1.168 5.379 1.53 8.019.122.888.545 1.841.61 2.86.268 4.155-1.1 5.298-1.1 6.005l3.155 1.588c.218-1.588.775-1.777.722-3.084-.173-4.21 1.56-3.23.578-6.27-.872-2.692.57-4.657.57-9.034z" style="fill:#3e484f"/><path d="M43.953 59.993h3.852c.256-.245.405-.915.343-1.245-.15-.804-3.156-1.59-3.156-1.59-.52 1.115-1.039 1.44-1.039 2.835z" style="fill:#1a1626"/><linearGradient id="a" x1="49.62" x2="55.736" y1="50.309" y2="50.309" gradientUnits="userSpaceOnUse"><stop offset="0" style="stop-color:#737e82"/><stop offset="1" style="stop-color:#3e484f"/></linearGradient><path d="M55.736 42.366c0-3.092-5.53-3.546-6.064-.083-.348 2.249 1.168 5.378 1.53 8.018.12.887.543 1.84.61 2.86.268 4.156-1.103 5.298-1.103 6.005l3.158 1.589c.217-1.59.775-1.778.72-3.085-.172-4.21 1.562-3.23.577-6.27-.87-2.692.572-4.656.572-9.034z" style="fill:url(#a)"/><path d="M49.672 62h3.852c.256-.244.405-.914.342-1.245-.15-.804-3.157-1.589-3.157-1.589-.518 1.114-1.037 1.44-1.037 2.834z" style="fill:#1a1626"/><path d="M49.389 44.804c1.05-.569.84-3.17-.146-3.644-.107-1.581-2.555-1.892-3.268-1.103-1.1-.314-2.907.872-2.616 2.23-1.666.367-1.536 3.322-.36 3.833.397 1.445 3.115 2.089 3.865.956 1.15.373 3.079-1.007 2.525-2.272z" style="fill:#e1d3c8"/><linearGradient id="b" x1="22.18" x2="28.175" y1="50.301" y2="50.301" gradientUnits="userSpaceOnUse"><stop offset="0" style="stop-color:#737e82"/><stop offset="1" style="stop-color:#3e484f"/></linearGradient><path d="M28.175 42.366c0-3.196-5.432-3.449-5.947-.188-.358 2.249 1.423 6.9 1.468 7.998.044 1.11.557 1.846.645 2.984.29 3.787-.89 5.3-.89 6.006l3.23 1.589c.224-1.59.435-1.372.263-2.67-.411-3.129.858-4.571.401-6.78-.573-2.78.83-4.561.83-8.94z" style="fill:url(#b)"/><path d="M22.389 62h3.942c.262-.244.414-.914.35-1.245-.153-.804-3.23-1.589-3.23-1.589-.53 1.114-1.062 1.44-1.062 2.834z" style="fill:#1a1626"/><linearGradient id="c" x1="60.988" x2="52.622" y1="36.308" y2="11.6" gradientUnits="userSpaceOnUse"><stop offset="0" style="stop-color:#e1d3c8"/><stop offset=".615" style="stop-color:#f4eae0"/><stop offset="1" style="stop-color:#fcf3ea"/></linearGradient><path d="M55.272 20.42c-.33-.234 2.098 15.374 4.39 13.624-.115.64.472.829.687.243.076.845.595 1.468.64.242.202-5.36-2.537-11.836-5.717-14.109z" style="fill:url(#c)"/><linearGradient id="d" x1="36.146" x2="36.146" y1="45.874" y2="15.165" gradientUnits="userSpaceOnUse"><stop offset="0" style="stop-color:#e1d3c8"/><stop offset=".615" style="stop-color:#f4eae0"/><stop offset="1" style="stop-color:#fcf3ea"/></linearGradient><path d="M20.093 15.402c-2.484.71-9.53 7.144-6.092 12.914-.927 3.926 1.595 6.673 1.595 6.673-.54 4.12 2.398 6.115 2.398 6.115 1.715 4.521 12.013 5.806 16.627 3.948 2.349 1.132 4.77-.281 4.77-.281 2.351.95 4.988-.385 4.988-.385 5.509 1.488 13.13-3.897 13.718-7.4 1.135-1.193 1.422-4.078.799-6.286.527-2.497-.109-4.7-1.21-6.093-.33-3.185-3.986-6.086-6.874-6.121 0 0-4.615-2.494-10.18-1.005-1.624-1.373-6.122-1.744-8.612-.443-3.066-1.459-6.294-.243-6.294-.243-2.076-1.942-4.326-1.766-5.633-1.393z" style="fill:url(#d)"/><linearGradient id="e" x1="13.089" x2="8.232" y1="23.22" y2="13.814" gradientUnits="userSpaceOnUse"><stop offset="0" style="stop-color:#3e484f"/><stop offset="1" style="stop-color:#737e82"/></linearGradient><path d="M8.623 13.944c1.243-1.244-.895-2.75 6.428-3.092 3.38-.159 3.062 7.25-.38 12.376-1.606 2.391-3.59.122-5.587 2.021-1.83 1.74-4.367 1.044-4.18-.35 0 0 .36-.445-.187-.514-1.076.245-.896-1.227-1.184-1.403-.648-.397-.536-1.165-.368-1.509.296-.61-2.21.153 5.458-7.53z" style="fill:url(#e)"/><path d="M4.884 21.531s-.88 1.037-1.174.465c-.41-.793 1.118-.91 1.174-.465z" style="fill-rule:evenodd;clip-rule:evenodd;fill:#1a1626"/><linearGradient id="f" x1="15.829" x2="15.829" y1="24.601" y2="8" gradientUnits="userSpaceOnUse"><stop offset="0" style="stop-color:#e1d3c8"/><stop offset=".615" style="stop-color:#f4eae0"/><stop offset="1" style="stop-color:#fcf3ea"/></linearGradient><path d="M19.256 23.365c-1.098 1.668-5.385 1.886-5.442-.845-2.836-1.542-1.606-4.933.262-5.218-1.118-.486-1.386-2.965-1.033-3.677-.93.348-3.031.172-3.172-.888-1.623-.294-1.785-2.33-.527-2.414-.23-.976 1.538-2.353 2.6-1.854.905-.852 3.597-.498 4.212.698 1.538-.372 4.824.825 5.46 3.313 1.67.768 1.902 3.773 1.04 4.957.944 2.426-.594 6.084-3.4 5.928z" style="fill:url(#f)"/><path d="M4.904 24.898c-.13-.287-.187-.513-.187-.513s1.78-.275 3.749-1.217c-1.285 1.213-3.561 1.73-3.561 1.73z" style="fill:#1a1626"/><linearGradient id="g" x1="18.192" x2="18.192" y1="15.14" y2="8.641" gradientUnits="userSpaceOnUse"><stop offset="0" style="stop-color:#3e484f"/><stop offset="1" style="stop-color:#737e82"/></linearGradient><path d="M15.552 15.14c6.225.015 7.278-6.658 6.44-6.497-1.311.255-4.853.598-7.851 2.488 0 0 .845 1.142.455 2.745.863.556.956 1.264.956 1.264z" style="fill:url(#g)"/><linearGradient id="h" x1="15.981" x2="21.427" y1="11.889" y2="11.889" gradientUnits="userSpaceOnUse"><stop offset="0" style="stop-color:#1a1626"/><stop offset=".97" style="stop-color:#1a1626;stop-opacity:0"/></linearGradient><path d="M16.25 14.432c4.277-.076 5.74-5.24 4.988-5.082-5.074 1.074-5.766 5.095-4.988 5.082z" style="fill:url(#h)"/><path d="M10.299 14.91c-1.059.11-1.342.882-1.163 1.423.138.4 2.753.105 2.744-.31-.012-.607-.587-1.217-1.581-1.113z" style="fill:#302c3b"/><path d="M10.35 15.105c-.725.007-1.282.35-1.253 1.04.025.599.657.99 1.382.981.726-.01 1.272-.559 1.254-1.047-.03-.69-.656-.985-1.383-.974z" style="fill:#baada0"/><path d="M10.232 15.422c.517-.011.982.153 1.008.66.025.509-.358.751-.876.762-.516.01-.979-.154-1.006-.664-.026-.504.356-.75.874-.758z" style="fill:#1a1626"/><path d="M11.167 15.545c.06.408-.55.499-.606.093-.062-.41.55-.505.606-.093z" style="fill:#fff"/><linearGradient id="i" x1="25.698" x2="25.698" y1="49.685" y2="26.81" gradientUnits="userSpaceOnUse"><stop offset="0" style="stop-color:#e1d3c8"/><stop offset="1" style="stop-color:#fcf3ea"/></linearGradient><path d="M28.205 36.008c-1.656-1.818-5.771-.505-5.883 1.8-1.818.406-3.305 4.065-1.579 5.482-.949 1.72 1.36 5.413 3.04 5.293 1.377 2.26 4.873.678 5.206-1.086 1.705-.452 3.18-3.72 1.733-5.497 1.926-1.935-.558-6.213-2.517-5.992z" style="fill:url(#i)"/><linearGradient id="j" x1="53.798" x2="47.148" y1="49.483" y2="28.063" gradientUnits="userSpaceOnUse"><stop offset="0" style="stop-color:#e1d3c8"/><stop offset="1" style="stop-color:#fcf3ea"/></linearGradient><path d="M56.95 42.708c1.212-1.492-.354-5.487-1.989-5.677-.924-2.438-4.556-1.542-5.186.106-1.715.129-3.705 3.025-2.63 5.008-2.189 1.524-.558 6.12 1.362 6.26 1.272 2.06 5.452 1.538 5.965-.676 1.816-.062 3.886-3.334 2.479-5.021z" style="fill:url(#j)"/></svg>