<svg xmlns="http://www.w3.org/2000/svg" xml:space="preserve" style="enable-background:new 0 0 64 64" viewBox="0 0 64 64"><linearGradient id="a" x1="45.937" x2="64.257" y1="34.562" y2="34.562" gradientUnits="userSpaceOnUse"><stop offset="0" style="stop-color:#004e7a"/><stop offset="1" style="stop-color:#2289c7"/></linearGradient><path d="M64 17.642c-4.871.157-7.674 6.678-10.984 10.344-2.603 2.882-5.09 2.538-6.797 1.628v11.891c2.202-.56 4.246-.263 6.4 1.562 3.06 2.99 6.29 8.248 11.381 8.415-6.74-5.566-6.6-28.39 0-33.84z" style="fill:url(#a)"/><path d="M56.219 30.621s-9.472 1.073-9.258 1.6c.563 1.407 9.258-1.6 9.258-1.6zm.833 1.916s-10.413.937-9.962 1.377c1.194 1.166 9.962-1.377 9.962-1.377zm-.114 2.246s-10.725-.167-10.559.38c.424 1.467 10.559-.38 10.559-.38zm.645 2.005s-11.762-.774-11.354-.285c1.074 1.306 11.354.285 11.354.285zm-.35 2.802s-11.038-2.682-10.997-2.104c.1 1.538 10.997 2.105 10.997 2.105zm-1.846 1.86s-9.36-3.203-9.068-2.618c.764 1.557 9.068 2.618 9.068 2.618z" style="fill:#004c78"/><linearGradient id="b" x1="21.529" x2="43.246" y1="48.718" y2="48.718" gradientUnits="userSpaceOnUse"><stop offset="0" style="stop-color:#004e7a"/><stop offset=".208" style="stop-color:#02527f"/><stop offset=".453" style="stop-color:#095d8d"/><stop offset=".716" style="stop-color:#136fa5"/><stop offset=".992" style="stop-color:#2288c6"/><stop offset="1" style="stop-color:#2289c7"/></linearGradient><path d="M21.53 50.914s10.63 4.264 20.918 2.768c1.14-.166.844-.501.427-.837-5.073-4.094-.619-9.408-.619-9.408L21.53 50.913z" style="fill:url(#b)"/><linearGradient id="c" x1="30.751" x2="30.751" y1="30.109" y2="10" gradientUnits="userSpaceOnUse"><stop offset="0" style="stop-color:#2289c7"/><stop offset="1" style="stop-color:#004e7a"/></linearGradient><path d="M47.863 30.082c-2.755-8.684-12.896-17.314-24.884-20.03-3.054-.69-2.187 5.619-9.343 8.92 15.144-2.292 34.457 11.832 34.227 11.11z" style="fill:url(#c)"/><path d="M44.947 29.937c.648-.13.62-.07 1.272-.19-.209-2.287-3.472-7.546-3.472-7.546s2.486 5.235 2.2 7.736zm-2.251-2.282c.648-.13.62-.07 1.272-.19-.209-2.287-3.472-7.546-3.472-7.546s2.486 5.235 2.2 7.736zm-2.51-2.543c.648-.129.62-.07 1.271-.19-.208-2.287-3.472-7.546-3.472-7.546s2.487 5.236 2.2 7.736zm-2.537-.929c.742-.148.71-.08 1.455-.218-.238-2.616-3.972-8.632-3.972-8.632s2.845 5.99 2.517 8.85zm-2.899-1.555c.74-.148.71-.08 1.454-.218-.238-2.616-3.972-8.632-3.972-8.632s2.845 5.99 2.517 8.85zm-3.11-1.384c.741-.149.71-.08 1.455-.218-.238-2.616-3.972-8.632-3.972-8.632s2.845 5.99 2.517 8.85zm-2.975-1.015c.741-.148.71-.08 1.455-.218-.239-2.616-3.972-8.632-3.972-8.632s2.845 5.99 2.517 8.85zm-2.914-.753c.742-.148.71-.08 1.455-.218-.238-2.616-3.972-8.632-3.972-8.632s2.845 5.99 2.517 8.85zm-2.188.753c.741-.148.71-.08 1.455-.218-.239-2.616-3.972-8.632-3.972-8.632s2.845 5.99 2.517 8.85zm-1.39 2.399c.742-.148.71-.08 1.456-.218-.24-2.616-3.973-8.632-3.973-8.632s2.845 5.99 2.517 8.85zM20.7 24.654c.742-.149.71-.08 1.455-.218-.238-2.617-3.971-8.632-3.971-8.632s2.844 5.989 2.516 8.85zm18.368 21.909c-.644.15-.648.134-1.294.277.914 5.974 5.319 6.53 5.319 6.53s-3.772-1.059-4.025-6.807z" style="fill:#004c78"/><path d="M37.201 46.847c-.644.15-.648.134-1.294.278.915 5.974 6.108 6.53 6.108 6.53s-4.56-1.06-4.814-6.808z" style="fill:#004c78"/><path d="M35.218 46.847c-.644.15-.648.134-1.294.278.914 5.974 6.107 6.53 6.107 6.53s-4.56-1.06-4.813-6.808z" style="fill:#004c78"/><path d="M33.278 46.847c-.644.15-.648.134-1.294.278.915 5.974 6.108 6.53 6.108 6.53s-4.56-1.06-4.814-6.808z" style="fill:#004c78"/><path d="M31.28 47.022c-.645.15-.649.134-1.295.278.915 5.973 6.108 6.53 6.108 6.53s-4.56-1.06-4.814-6.808z" style="fill:#004c78"/><path d="M29.027 46.847c-.644.15-.648.134-1.294.278.915 5.974 6.108 6.53 6.108 6.53s-4.56-1.06-4.814-6.808z" style="fill:#004c78"/><path d="M26.207 46.42c-.644.151-.648.136-1.294.279.914 5.974 6.107 6.53 6.107 6.53s-4.56-1.06-4.813-6.808z" style="fill:#004c78"/><linearGradient id="d" x1="25.476" x2="25.476" y1="51.995" y2="17.464" gradientUnits="userSpaceOnUse"><stop offset=".248" style="stop-color:#bdebff"/><stop offset=".259" style="stop-color:#b9e9fe"/><stop offset=".429" style="stop-color:#78c4ed"/><stop offset=".583" style="stop-color:#44a7e0"/><stop offset=".716" style="stop-color:#1f92d7"/><stop offset=".823" style="stop-color:#0886d1"/><stop offset=".891" style="stop-color:#0081cf"/></linearGradient><path d="M13.636 18.477c-9.096 3.06-9.8 11.527-13 13.538-2.533 1.592 2.8 4.617 10.733 2.974-3.615 3.11-10.8 2.738-10.031 3.93 1.2 1.867 2.596 4.329 4.549 6.539l-.001-.002s4.548 6.539 15.247 6.539c22.286 0 29.82-13.744 29.82-16.335 0-7.16-22.334-22.225-37.317-17.183z" style="fill:url(#d)"/><path d="M18.49 23.646c5.719 9.321 3.809 17.037-5.299 21.194 5.828-.169 16.128-10.34 5.3-21.194z" style="opacity:.5;fill:#006dae"/><path d="M28.133 21.605c0 1.365-1.977 1.365-1.977 0s1.977-1.365 1.977 0zm1.301 4.465c0 1.365-1.978 1.365-1.978 0s1.978-1.365 1.978 0zm4.291-1.792c0 .883-1.28.883-1.28 0s1.28-.883 1.28 0zm-12.277-3.696c0 .883-1.279.883-1.279 0 0-.884 1.279-.884 1.279 0zm2.82 3.696c0 .883-1.28.883-1.28 0s1.28-.883 1.28 0zm14.428 2.072c0 1.365-1.977 1.365-1.977 0s1.977-1.365 1.977 0z" style="fill:#006dae"/><linearGradient id="e" x1="196.275" x2="211.417" y1="-320.626" y2="-311.902" gradientTransform="rotate(-30.291 769.348 174.564)" gradientUnits="userSpaceOnUse"><stop offset=".103" style="stop-color:#0069a3;stop-opacity:0"/><stop offset="1" style="stop-color:#0069a3"/></linearGradient><path d="M24.601 37.246c-9.255 7.285 25.879 7.319 15.792-4.413-6.356-7.39-10.201.013-15.792 4.413z" style="fill:url(#e)"/><linearGradient id="f" x1="26.963" x2="35.255" y1="33.529" y2="33.529" gradientUnits="userSpaceOnUse"><stop offset=".103" style="stop-color:#0069a3;stop-opacity:0"/><stop offset="1" style="stop-color:#0069a3"/></linearGradient><path d="M35.255 30.508s-8.788 5.728-8.27 5.99c1.374.708 8.27-5.99 8.27-5.99z" style="fill:url(#f)"/><linearGradient id="g" x1="28.059" x2="37.191" y1="34.539" y2="34.539" gradientUnits="userSpaceOnUse"><stop offset=".103" style="stop-color:#0069a3;stop-opacity:0"/><stop offset="1" style="stop-color:#0069a3"/></linearGradient><path d="M37.191 31.436s-9.8 6.126-9.096 6.202c1.858.207 9.096-6.202 9.096-6.202z" style="fill:url(#g)"/><linearGradient id="h" x1="28.096" x2="38.378" y1="36.036" y2="36.036" gradientUnits="userSpaceOnUse"><stop offset=".103" style="stop-color:#0069a3;stop-opacity:0"/><stop offset="1" style="stop-color:#0069a3"/></linearGradient><path d="M38.378 33.098s-10.748 5.5-10.267 5.805c1.27.823 10.267-5.805 10.267-5.805z" style="fill:url(#h)"/><linearGradient id="i" x1="28.71" x2="40.181" y1="37.071" y2="37.071" gradientUnits="userSpaceOnUse"><stop offset=".103" style="stop-color:#0069a3;stop-opacity:0"/><stop offset="1" style="stop-color:#0069a3"/></linearGradient><path d="M40.181 34.189S28.048 39.8 28.74 39.936c1.82.367 11.442-5.747 11.442-5.747z" style="fill:url(#i)"/><linearGradient id="j" x1="29.306" x2="41.457" y1="38.57" y2="38.57" gradientUnits="userSpaceOnUse"><stop offset=".103" style="stop-color:#0069a3;stop-opacity:0"/><stop offset="1" style="stop-color:#0069a3"/></linearGradient><path d="M41.457 36.372s-12.518 3.87-12.143 4.26c.99 1.046 12.143-4.26 12.143-4.26z" style="fill:url(#j)"/><linearGradient id="k" x1="30.153" x2="40.698" y1="40.154" y2="40.154" gradientUnits="userSpaceOnUse"><stop offset=".103" style="stop-color:#0069a3;stop-opacity:0"/><stop offset="1" style="stop-color:#0069a3"/></linearGradient><path d="M40.698 38.666s-11.15 2.62-10.52 2.884c1.657.708 10.52-2.884 10.52-2.884z" style="fill:url(#k)"/><path d="M11.738 24.276c-3.04.026-4.228 2.764-3.986 4.736.18 1.468 7.849.624 7.943-.22.239-2.135-1.16-4.54-3.957-4.516z" style="fill:#006dae"/><path d="M11.678 24.92c-2.168 0-3.924 1.704-3.924 3.806a3.847 3.847 0 0 0 3.924 3.808c2.479 0 3.608-2.322 3.608-3.808 0-2.102-1.439-3.807-3.608-3.807z" style="fill:#efff8c"/><path d="M11.01 26.253c1.197 0 2.165 1.091 2.165 2.435 0 1.345-.968 2.435-2.165 2.435-1.196 0-2.165-1.09-2.165-2.435 0-1.344.968-2.435 2.165-2.435z" style="fill:#1a1626"/><path d="M13.414 26.775c0 1.101-1.693 1.101-1.693 0 0-1.103 1.693-1.103 1.693 0z" style="fill:#fff"/></svg>