<svg xmlns="http://www.w3.org/2000/svg" xml:space="preserve" style="enable-background:new 0 0 64 64" viewBox="0 0 64 64"><path d="M27.795 51.184c1.507-1.818-2.386-5.258 2.217-13.375 6.937-12.261-8.503-14.627-9.318-2.393-.3 4.491 4.756 9.995 4.148 14.84-.298 2.372.586 5.113-1.056 7.96.058.06.378 1.723 1.758 1.08 1.449-3.057.591-6.108 2.251-8.112z" style="fill:#b8a28d"/><path d="M23.786 58.217c-.635 1.002-1.735 2.08-.813 2.08h1.945s.889-.055.626-1c-1.339-.372-1.758-1.08-1.758-1.08z" style="fill:#302c3b"/><path d="M41.854 39.712c7.32 4.708 7.022 6.696 9.352 9.828.431.578.125 7.036-.897 8.875 0 0 .262 1.966 1.54 1.098.335-.228.702-2.283 1.427-2.908.584-.505-.16-4.576.612-5.96.402-.725.853-1.164.48-1.892-3.448-6.656-2.442-6.65-1.858-9.227 1.123-4.965-.095-10.842-1.24-13.027-2.842-5.415-21.254 5.554-9.416 13.213z" style="fill:#b8a28d"/><path d="M50.31 58.415c-.652.942-1.538 1.883-.589 1.883h1.677s.91-.054.638-.94c-1.367-.346-1.727-.943-1.727-.943z" style="fill:#302c3b"/><path d="M58.165 28.129c2.345-2.978 1.908-7.796-.308-9.461-2.454-1.844 3.839 6.272-4.94 7.59.974.754 4.486 2.838 5.248 1.871z" style="fill:#c6b198"/><path d="M58.104 27.549c2.344-1.528 2.856-5.153 1.491-6.937-.697-.909 1.812 5.737-5.557 5.297.63.777 3.182 2.217 4.066 1.64z" style="fill:#c6b198"/><path d="M56.971 28.598c2.73-.844 4.371-4.18 3.631-6.243-.38-1.055-.088 5.963-7.004 3.598.358.912 2.346 2.964 3.373 2.645z" style="fill:#c6b198"/><path d="M55.506 29.505c2.883-.07 5.533-2.814 5.494-4.985-.022-1.11-2.017 5.674-7.857 1.551.047.967 1.28 3.463 2.363 3.434z" style="fill:#c6b198"/><path d="M30.764 42.05c.156 2.31 1.773 3.673 2.668 4.248.405.265.525.238.455-.187-.1-.618-.071-1.446.22-2.409.364-1.206-3.41-2.64-3.343-1.651z" style="fill:#b8a28d"/><path d="M28.432 41.707c.155 2.31 1.774 3.673 2.668 4.247.405.267.525.238.454-.185-.099-.62-.071-1.445.22-2.41.365-1.207-3.408-2.637-3.342-1.652zm4.252 1.618c.738 2.14 2.643 2.948 3.652 3.234.455.133.567.067.389-.309-.254-.563-.438-1.35-.4-2.355.045-1.25-3.957-1.492-3.641-.57z" style="fill:#b8a28d"/><path d="M34.693 43.602c.708 2.042 2.423 2.66 3.325 2.84.41.085.506.013.342-.345-.24-.532-.422-1.288-.414-2.287.013-1.236-3.554-1.084-3.253-.209z" style="fill:#b8a28d"/><linearGradient id="a" x1="36.154" x2="36.154" y1="44.62" y2="25.82" gradientUnits="userSpaceOnUse"><stop offset="0" style="stop-color:#b8a28d"/><stop offset=".088" style="stop-color:#c2ad95"/><stop offset=".248" style="stop-color:#ceb99d"/><stop offset=".467" style="stop-color:#d5c0a3"/><stop offset="1" style="stop-color:#d7c2a4"/></linearGradient><path d="M49.689 22.69c-16.821 2.506-16.273.699-23.008.699-3.593 0-6.204-11.767-10.898-13.221-3.6-1.113-6.206 8.781-3.073 10.696 3.445 2.108 1.509 5.89 5.53 11.19 2.094 2.762 1.905 9.1 8.453 10.586 5.794 1.315 16.589 8.757 30.13-2.933 4.484-3.868 5.24-9.743 2.828-12.953-2.661-3.541-6.765-4.541-9.962-4.065z" style="fill:url(#a)"/><path d="M29.236 52.886c1.509-1.818-2.386-5.258 2.218-13.374 6.935-12.261-8.504-14.627-9.318-2.395-.3 4.491 4.755 9.994 4.146 14.841-.296 2.372.587 5.113-1.054 7.96.057.06.377 1.723 1.757 1.08 1.45-3.058.592-6.11 2.25-8.112z" style="fill:#d7c2a4"/><path d="M25.228 59.919C24.592 60.922 23.492 62 24.414 62h1.945s.89-.055.626-1.002c-1.337-.371-1.757-1.08-1.757-1.08z" style="fill:#302c3b"/><path d="M47.604 41.414c7.317 4.708 7.02 6.696 9.35 9.827.432.58.125 7.036-.897 8.876 0 0 .261 1.966 1.54 1.098.335-.227.702-2.284 1.427-2.908.584-.503-.16-4.576.612-5.96.402-.725.854-1.164.48-1.891-3.446-6.657-2.442-6.651-1.858-9.229 1.123-4.963-.095-10.841-1.24-13.026-2.843-5.415-21.254 5.553-9.414 13.213z" style="fill:#d7c2a4"/><path d="M56.057 60.117C55.405 61.06 54.52 62 55.47 62h1.677s.911-.055.638-.94c-1.367-.346-1.727-.943-1.727-.943z" style="fill:#302c3b"/><path d="M10.631 10.31c2.593-6.421 8.126-8.502 12.478-8.296 1.293.058.983.392.113.587-3.063.688-7.231 3.151-8.195 7.82-.167.813-4.841.993-4.396-.11z" style="fill:#7a6854"/><path d="M11.429 21.345c1.095 1.934-.104 5.223-1.976 6.294-2.076 1.19 3.943-4.376-1.843-6.003.826-.488 3.408-1.019 3.819-.291z" style="fill:#c6b198"/><path d="M10.84 21.285c.907 1.608-.121 4.28-1.642 5.23-.779.482 3.275-3.638-1.532-4.989.688-.403 2.832-.845 3.174-.24z" style="fill:#c6b198"/><path d="M11.031 20.424c.909 1.607-.12 4.278-1.642 5.227-.78.485 3.276-3.635-1.53-4.986.685-.406 2.83-.846 3.172-.241z" style="fill:#c6b198"/><linearGradient id="b" x1="12.727" x2="11.384" y1="23.068" y2="13.298" gradientUnits="userSpaceOnUse"><stop offset="0" style="stop-color:#b8a28d"/><stop offset=".034" style="stop-color:#bba58f"/><stop offset=".369" style="stop-color:#cfba9e"/><stop offset=".695" style="stop-color:#dcc7a8"/><stop offset="1" style="stop-color:#e0cbab"/></linearGradient><path d="M9.998 10.211c.51-.848 1.243-2.007 2.772-1.838 9.465 1.044 7.379 8.631 2.87 12.077-1.458 1.116-3.777.299-6.878 1.152-1.915.526-4.234.85-4.171-.295.384-.292.674-.35-.205-.32.053-.495 3.86-7.865 5.612-10.776z" style="fill:url(#b)"/><path d="M3.715 17.763c1.9-2.325 5.513-6.397 6.283-7.552 0 0 .652.4 2.317-1.36.67-.709 2.692 1.033 2.259 1.112-2.656.481-2.812 2.007-2.549 1.982 1.215-.117 2.12 1.2 1.771 2.167-.889 2.462-5.937.295-5.753 2.124.103 1.021.735 1.727 4.272 3.171-3.5-.74-3.778 1.315-7.93 1.58 0 0-.531.088-.748-.86-.102-.438-.518-1.636.078-2.364z" style="fill:#f2e4ce"/><path d="M4.59 21.307c-.028-.266-.204-.32-.204-.32.807-.476 4.188-.626 4.864-1.896-.326 1.55-4.196 1.727-4.66 2.216z" style="fill:#302c3b"/><path d="M4.664 18.597c-.525.455-.73 1.891-.942 1.72-1.508-1.221-.29-2.653.38-2.765.455-.075 1.192.497.562 1.045z" style="fill:#c4b296"/><path d="M4.171 18.589c.27-.078-.18 1.217-.419 1.111-.404-.17-.513-.847.42-1.111z" style="fill:#302c3b"/><linearGradient id="c" x1="16.754" x2="21.597" y1="3.824" y2="8.666" gradientUnits="userSpaceOnUse"><stop offset="0" style="stop-color:#b8a28d"/><stop offset=".223" style="stop-color:#a08c77"/><stop offset=".492" style="stop-color:#8b7864"/><stop offset=".755" style="stop-color:#7e6c58"/><stop offset="1" style="stop-color:#7a6854"/></linearGradient><path d="M12.086 8.997C15.81 3.173 21.63 2.16 25.868 3.175c1.258.303.893.572.004.602-3.136.102-7.684 1.74-9.487 6.153-.314.764-4.94.068-4.299-.933z" style="fill:url(#c)"/><path d="M15.465 10.792c-.545 5.895 4.74 8.973 4.871 8.174.198-1.203-.174-5.081-1.822-7.454-.2-.288-2.979-1.458-3.049-.72z" style="fill:#f2e4ce"/><path d="M9.443 14.449c.515-.27 2.633 1 3.733-.855-.346-1.408-3.06-1.867-3.733.855z" style="fill:#7a6854"/><path d="M11.434 12.62c-.673.008-1.19.348-1.163 1.034.023.594.304.866.977.857.673-.01 1.486-.439 1.469-.923-.027-.685-.608-.977-1.283-.967z" style="fill:#ad8762"/><path d="M11.383 13.02c.434-.009.823.117.844.506.021.391-.3.578-.733.586-.432.008-.82-.118-.843-.51-.021-.387.298-.575.732-.582z" style="fill:#1a1626"/><path d="M12.19 13.062c.055.37-.506.452-.558.084-.056-.373.505-.458.557-.084z" style="fill:#fff"/></svg>