<svg xmlns="http://www.w3.org/2000/svg" xml:space="preserve" style="enable-background:new 0 0 64 64" viewBox="0 0 64 64"><path d="M22.178 16.355s-6.584 6.515-16.04 4.879c6.272-1.27 4.434-3.928 4.434-3.928 3.315-2.34 7.983-2.36 11.606-.951z" style="fill:#1a1626"/><linearGradient id="a" x1="-51.334" x2="-40.891" y1="75.424" y2="75.424" gradientTransform="rotate(10.857 285.582 376.168)" gradientUnits="userSpaceOnUse"><stop offset="0" style="stop-color:#ff6052"/><stop offset=".205" style="stop-color:#fc5e50"/><stop offset=".368" style="stop-color:#f2574a"/><stop offset=".516" style="stop-color:#e14c40"/><stop offset=".655" style="stop-color:#ca3d32"/><stop offset=".758" style="stop-color:#b32e24"/></linearGradient><path d="M22.178 16.355c-3.026.238-6.09 2.484-8.514 3.406-.838.32-1.771.46-2.441.625-2.237.54 4.834-6.326 10.955-4.031z" style="fill:url(#a)"/><path d="M3.83 16.859c.623.103.08.617-.035.925-.33.9-.584-1.027.035-.925zm.733.138c.623.104.078.615-.038.926-.332.899-.584-1.027.037-.926zm.737.139c.622.102.079.615-.036.924-.33.902-.584-1.026.037-.924zm.75.143c.624.101.079.613-.034.923-.332.899-.584-1.025.035-.924z" style="fill:#e6ebef"/><path d="M6.768 17.286c.62.104.078.615-.038.924-.33.9-.58-1.025.037-.924z" style="fill:#e6ebef"/><path d="M7.313 17.269c.63-.037.218.578.18.906-.116.951-.808-.867-.18-.906zm.744-.029c.628-.04.216.58.177.91-.113.945-.808-.871-.177-.91zm.75-.03c.628-.039.218.582.18.906-.112.952-.807-.869-.18-.906zm.761-.03c.631-.038.221.58.18.909-.111.95-.805-.873-.18-.908z" style="fill:#e6ebef"/><path d="M10.27 17.03c.63-.04.22.58.18.907-.112.95-.81-.87-.18-.907z" style="fill:#e6ebef"/><path d="M10.86 17.005c.628-.066.246.57.22.898-.072.954-.844-.835-.22-.898zm.744-.062c.627-.065.244.572.22.9-.074.953-.845-.834-.22-.9zm.75-.059c.627-.065.244.57.218.898-.074.953-.843-.835-.218-.898z" style="fill:#e6ebef"/><path d="M13.055 16.759c.629-.063.246.572.22.9-.074.954-.847-.836-.22-.9zm.744-.164c.627-.066.244.572.22.9-.074.953-.845-.838-.22-.9z" style="fill:#e6ebef"/><path d="M14.299 16.433c.596-.2.371.504.424.83.148.943-1.016-.625-.424-.83zm.717-.238c.595-.202.373.502.426.832.148.94-1.02-.63-.426-.832zm.714-.241c.596-.205.372.5.422.826.15.944-1.015-.627-.422-.826zm.715-.211c.6-.203.375.5.426.828.149.942-1.017-.628-.426-.828zm.707-.197c.598-.201.373.504.424.828.15.946-1.015-.627-.424-.828z" style="fill:#e6ebef"/><path d="M13.688 19.913c-.586.237-.4-.478-.475-.8-.205-.936 1.055.562.475.8zm-.704.282c-.582.236-.4-.481-.47-.805-.207-.934 1.053.568.47.805zm-.697.283c-.584.238-.4-.48-.47-.803-.208-.934 1.052.566.47.803zm-.701.252c-.582.238-.404-.48-.475-.803-.205-.932 1.053.566.475.803zm-.693.236c-.582.236-.4-.478-.473-.8-.209-.936 1.053.564.473.8zm-.895.294c-.582.24-.402-.48-.473-.8-.207-.934 1.053.566.473.8zm-1.119.257c-.584.236-.402-.48-.473-.803-.207-.932 1.053.568.473.803zm-1.149.265c-.582.239-.402-.478-.472-.8-.21-.934 1.054.566.472.8zm-1.173.276c-.582.236-.4-.48-.475-.803-.203-.932 1.055.567.475.803zm10.714-3.555c-.576.252-.414-.469-.494-.789-.238-.928 1.067.537.494.79zm.811-.295c-.576.252-.414-.467-.496-.787-.234-.932 1.068.535.496.787zm.735-.278c-.579.255-.416-.466-.497-.786-.236-.93 1.07.533.497.787zm-2.237.874c-.576.252-.418-.467-.498-.79-.234-.927 1.07.538.498.79zm-.69.305c-.577.253-.413-.467-.495-.788-.235-.927 1.07.534.496.788zm-.695.271c-.576.252-.416-.467-.496-.789-.236-.928 1.069.537.496.79zm-.685.256c-.576.254-.414-.469-.494-.787-.237-.93 1.068.535.494.787z" style="fill:#f5fbff"/><linearGradient id="b" x1="-26.944" x2="-3.901" y1="59.447" y2="59.526" gradientTransform="rotate(10.857 285.583 376.165)" gradientUnits="userSpaceOnUse"><stop offset="0" style="stop-color:#82a7bd"/><stop offset="1" style="stop-color:#566e85"/></linearGradient><path d="M61.395 4.431c-2.768-2.129-13.39-.473-17.56.008-3.763.43 12.308 14.931 12.425 11.271.285-9.062 7.904-9.148 5.135-11.279z" style="fill:url(#b)"/><path d="M25.383 20.01s-1.563 3.337.54 6.856c1.366 2.283-7.997-.17-8.4-5.463l7.86-1.392z" style="fill:#566e85"/><linearGradient id="c" x1="12.041" x2="62.024" y1="3.038" y2="45.356" gradientUnits="userSpaceOnUse"><stop offset="0" style="stop-color:#82a7bd"/><stop offset="1" style="stop-color:#566e85"/></linearGradient><path d="M6.73 14.761c6.465-.768 15.448 1.594 15.448 1.594 4.648 8.365 35.938 10.52 27.98 33.617-.49 1.425.551 14.212 1.069 13.486 4.15-5.836 2.334-10.633 3.566-12.844 9.16-16.435 5.996-34.994-5.422-43.2C29.96-6.54 3.758 1.083 6.731 14.76z" style="fill:url(#c)"/><linearGradient id="d" x1="57.98" x2="14.314" y1="54.928" y2="14.095" gradientUnits="userSpaceOnUse"><stop offset=".073" style="stop-color:#82a2ba"/><stop offset=".083" style="stop-color:#85a4bc"/><stop offset=".221" style="stop-color:#a8bece"/><stop offset=".361" style="stop-color:#c3d2dc"/><stop offset=".502" style="stop-color:#d7e0e7"/><stop offset=".646" style="stop-color:#e2e8ed"/><stop offset=".794" style="stop-color:#e6ebef"/></linearGradient><path d="M53.547 50.534C55.451 26.478 40.8 21.763 33.846 20.87a35.187 35.187 0 0 0-3.82-.529c-4.03-.332-3.829-3.828-7.848-3.986-4.944-.196-6.049 3.293-16.04 4.879-2.11.332-1.988 1.832-.177 2.232 7.738 1.713 13.883-1.55 17.227-.686 9.627 6.754 25.916 7.397 25.324 27.006-.799.87-5.813-1.047-8.748 2.674-.508.64.182.75.775.77 2.352.066 2.31 2.525 6.324 2.513.131 4.482 3.346 1.82 3.24 7-.034 1.617.637 1.463 1.124.715 3.431-5.274 2.066-9.734 2.32-12.924z" style="fill:url(#d)"/><linearGradient id="e" x1="10.792" x2="60.779" y1="4.514" y2="46.836" gradientUnits="userSpaceOnUse"><stop offset="0" style="stop-color:#82a7bd"/><stop offset="1" style="stop-color:#566e85"/></linearGradient><path d="M27.332 20.072c.813 5.707 6.877 11.757 14.649 13.372 2.168.452-3.723-5.439-3.526-10.798.08-2.172-11.715-6.729-11.123-2.575z" style="fill:url(#e)"/><linearGradient id="f" x1="-50.479" x2="-51.174" y1="75.993" y2="72.369" gradientTransform="rotate(10.857 285.583 376.165)" gradientUnits="userSpaceOnUse"><stop offset="0" style="stop-color:#566e85"/><stop offset="1" style="stop-color:#82a7bd"/></linearGradient><path d="M6.713 14.533c-6.541.964-4.68 2.84-3.69 3.062 8.106 1.828 13.989-2.191 19.155-1.24-4.508-2.346-11.631-2.39-15.465-1.822z" style="fill:url(#f)"/><linearGradient id="g" x1="-46.967" x2="-46.967" y1="59.67" y2="58.601" gradientTransform="rotate(10.857 285.582 376.168)" gradientUnits="userSpaceOnUse"><stop offset="0" style="stop-color:#566e85"/><stop offset="1" style="stop-color:#566e85;stop-opacity:0"/></linearGradient><path d="M19.957 2.128c.014.623-2.469.684-2.484.06-.016-.624 2.469-.685 2.484-.06z" style="fill:url(#g)"/><path d="M19.51 13.72s1.863 1.929 4.437 0c-2.455 1.264-4.437 0-4.437 0z" style="fill:#566e85"/><path d="M24.035 11.687c-.5 2.997-4.59 2.257-4.845.745 1.104-2.706 4.934-1.279 4.845-.745z" style="fill:#e6ebef"/><path d="M23.38 11.918c.176 2.33-3.45 2.48-3.534.146-.064-1.78 3.404-1.864 3.534-.146z" style="fill:#38363d"/><path d="M22.554 12.233c-.297 1.219-2.108.763-1.81-.456.296-1.214 2.107-.758 1.81.456z" style="fill:#1a1626"/><path d="M22.94 11.677c-.145.638-1.04.397-.894-.24.146-.637 1.04-.396.895.24z" style="fill:#fff"/><path d="M24.597 12.007c-1.071-2.328-5.087-2.375-5.61.633 1.248-2.116 3.97-1.808 5.61-.633z" style="fill:#566e85"/></svg>