<svg xmlns="http://www.w3.org/2000/svg" xml:space="preserve" style="enable-background:new 0 0 64 64" viewBox="0 0 64 64"><path d="M62.702 11.727c2.407 6.123-12.594 15.292-21.712-.564 8.13-9.33 19.892-4.056 21.712.564z" style="fill:#7b8a94"/><linearGradient id="a" x1="974.76" x2="958.942" y1="289.613" y2="273.796" gradientTransform="rotate(180 510.947 150)" gradientUnits="userSpaceOnUse"><stop offset="0" style="stop-color:#b38f93"/><stop offset=".165" style="stop-color:#a0a1a7"/><stop offset=".279" style="stop-color:#99a8ae"/><stop offset=".47" style="stop-color:#a9b6bb"/><stop offset=".842" style="stop-color:#d2dade"/><stop offset="1" style="stop-color:#e6ebef"/></linearGradient><path d="M60.067 11.399c2.911 1.705 3.966 5.215 3.166 4.995-1.145-.315-1.408.271-.853.611 1.854 1.134 2.089 5.183.846 4.362-1.915-1.265-1.607-.008-1.278.329 1.955 2.002 1.148 5.197-.099 4.043-2.685-2.483-2.567-.33-1.95.472 1.8 2.342-.092 3.4-.884 2.753-2.12-1.737-1.712-.041-1.382.574 1.957 3.658-7.588-1.03-15.091-14.075 5.87-8.846 14.443-5.867 17.525-4.064z" style="fill:url(#a)"/><path d="M1.3 11.727c-2.408 6.123 12.594 15.292 21.712-.564-8.13-9.33-19.892-4.056-21.712.564z" style="fill:#7b8a94"/><linearGradient id="b" x1="1.05" x2="16.867" y1="26.204" y2="10.386" gradientUnits="userSpaceOnUse"><stop offset="0" style="stop-color:#e6ebef"/><stop offset=".158" style="stop-color:#d2dade"/><stop offset=".529" style="stop-color:#a9b6bb"/><stop offset=".721" style="stop-color:#99a8ae"/><stop offset=".835" style="stop-color:#a0a1a7"/><stop offset="1" style="stop-color:#b38f93"/></linearGradient><path d="M3.935 11.399C1.022 13.104-.03 16.614.767 16.394c1.147-.315 1.41.271.853.611-1.855 1.135-2.09 5.183-.846 4.362 1.917-1.265 1.606-.008 1.281.329-1.956 2.002-1.149 5.197.098 4.043 2.686-2.483 2.566-.33 1.948.472-1.798 2.342.094 3.4.884 2.753 2.123-1.737 1.713-.041 1.382.574-1.955 3.658 7.589-1.03 15.095-14.075C15.59 6.617 7.015 9.596 3.935 11.4z" style="fill:url(#b)"/><radialGradient id="c" cx="-530.141" cy="279.743" r="24.288" gradientTransform="matrix(1.0238 0 0 -1.0054 574.759 314.967)" gradientUnits="userSpaceOnUse"><stop offset="0" style="stop-color:#99a8ae"/><stop offset=".356" style="stop-color:#94a3aa"/><stop offset=".775" style="stop-color:#86959d"/><stop offset="1" style="stop-color:#7b8a94"/></radialGradient><path d="M31.998 9.427c-19.273 0-25.991 16.052-24.882 32.04 1.528 22.041 48.24 22.047 49.768 0 1.106-15.988-5.59-32.04-24.886-32.04z" style="fill:url(#c)"/><linearGradient id="d" x1="32" x2="32" y1="56.303" y2="47.18" gradientUnits="userSpaceOnUse"><stop offset=".057" style="stop-color:#e6ebef"/><stop offset=".241" style="stop-color:#d2d9de"/><stop offset=".616" style="stop-color:#9eacb2"/><stop offset=".647" style="stop-color:#99a8ae"/></linearGradient><path d="M36.858 48c-.676-1.093-9.04-1.093-9.718 0-2.273 3.684-.88 8.302 4.86 8.303 5.742 0 7.133-4.62 4.858-8.304z" style="fill:url(#d)"/><path d="M38.56 51.334c-1.764 2.46-5.04 1.045-6.56 1.046-1.517 0-4.795 1.414-6.559-1.046-.41-.572-.545-.377-.211.195 1.795 3.088 5.161 1.583 6.77 1.583 1.61-.001 4.977 1.504 6.77-1.583.332-.572.199-.767-.21-.195z" style="fill:#1a1626"/><radialGradient id="e" cx="120.154" cy="-46.414" r="6.962" gradientTransform="matrix(1.1942 0 0 1.3456 -98.807 98.472)" gradientUnits="userSpaceOnUse"><stop offset="0" style="stop-color:#b38f93"/><stop offset="1" style="stop-color:#b38f93;stop-opacity:0"/></radialGradient><path d="M53.347 36.556c0-13.704-17.33-13.704-17.33 0 0 12.744 17.33 11.777 17.33 0z" style="fill:url(#e)"/><path d="M44.525 28.548c-4.784.04-6.655 4.351-6.275 7.457.283 2.31 12.356.981 12.505-.348.375-3.36-1.827-7.146-6.23-7.109z" style="fill:#5c6c73"/><path d="M44.431 29.56c-3.413 0-6.177 2.685-6.177 5.993a6.055 6.055 0 0 0 6.177 5.995c3.902 0 5.68-3.655 5.68-5.995 0-3.308-2.266-5.992-5.68-5.992z" style="fill:#d8edff"/><path d="M43.38 30.759c2.326 0 4.21 2.122 4.21 4.735 0 2.615-1.884 4.734-4.21 4.734-2.327 0-4.21-2.119-4.21-4.734 0-2.613 1.883-4.735 4.21-4.735z" style="fill:#1a1626"/><path d="M43.609 33.077c0 1.733-2.664 1.733-2.664 0 0-1.736 2.664-1.736 2.664 0z" style="fill:#fff"/><radialGradient id="f" cx="53.153" cy="-1.075" r="7.734" gradientTransform="matrix(1.075 0 0 1.2113 -37.821 37.318)" gradientUnits="userSpaceOnUse"><stop offset="0" style="stop-color:#b38f93"/><stop offset="1" style="stop-color:#b38f93;stop-opacity:0"/></radialGradient><path d="M27.984 36.556c0-13.704-17.33-13.704-17.33 0 0 12.744 17.33 11.777 17.33 0z" style="fill:url(#f)"/><path d="M19.628 28.548c4.784.04 6.655 4.351 6.275 7.457-.283 2.31-12.357.981-12.506-.348-.375-3.36 1.828-7.146 6.23-7.109z" style="fill:#5c6c73"/><path d="M19.721 29.56c3.414 0 6.177 2.685 6.177 5.993a6.055 6.055 0 0 1-6.177 5.995c-3.901 0-5.679-3.655-5.679-5.995 0-3.308 2.265-5.992 5.68-5.992z" style="fill:#d8edff"/><path d="M20.773 30.759c-2.327 0-4.21 2.122-4.21 4.735 0 2.615 1.883 4.734 4.21 4.734s4.21-2.119 4.21-4.734c0-2.613-1.883-4.735-4.21-4.735z" style="fill:#1a1626"/><path d="M20.544 33.077c0 1.733 2.664 1.733 2.664 0 0-1.736-2.664-1.736-2.664 0z" style="fill:#fff"/><radialGradient id="g" cx="-667.989" cy="340.879" r="8.205" gradientTransform="matrix(1.1423 0 0 -1.3556 795.13 502.366)" gradientUnits="userSpaceOnUse"><stop offset="0" style="stop-color:#5b666e"/><stop offset=".231" style="stop-color:#515862"/><stop offset="1" style="stop-color:#302c3b"/></radialGradient><path d="M25.337 42.327c0 2.166 1.418 4.748 1.02 6.468-1 4.272 4.623 2.46 5.643 2.46 1.033 0 6.64 1.814 5.646-2.46-.405-1.718 1.017-4.303 1.017-6.469 0-10.866-13.326-10.866-13.326 0z" style="fill:url(#g)"/></svg>