<svg xmlns="http://www.w3.org/2000/svg" xml:space="preserve" style="enable-background:new 0 0 64 64" viewBox="0 0 64 64"><linearGradient id="a" x1="19.885" x2="19.885" y1="60.808" y2="49.275" gradientUnits="userSpaceOnUse"><stop offset="0" style="stop-color:#707070"/><stop offset=".459" style="stop-color:#6e6e6e"/><stop offset=".625" style="stop-color:#696867"/><stop offset=".743" style="stop-color:#5f5e5c"/><stop offset=".838" style="stop-color:#514f4b"/><stop offset=".919" style="stop-color:#3f3b35"/><stop offset=".99" style="stop-color:#2a241a"/><stop offset="1" style="stop-color:#262016"/></linearGradient><path d="M23.447 49.696c.01 8.51-4.84 7.637-4.737 8.391-.416.818-3.854.065-3.872 1.13-1.45 1.135-1.115 1.197-.047.756.717.157 5.471.4 5.758-.431.36.848.626 1.266.932 1.266.25 0 .578-.926.968-1.39 1.557.695 2.4-.21 3.453.309-.228-1.534-3.698-1.304-2.973-2.58 1.531-2.677 2.082-5.445 2.6-7.1.36-1.144-2.084-.797-2.082-.351z" style="fill:url(#a)"/><linearGradient id="b" x1="16.568" x2="34.049" y1="42.068" y2="28.29" gradientUnits="userSpaceOnUse"><stop offset="0" style="stop-color:#37414b"/><stop offset=".019" style="stop-color:#333d47"/><stop offset=".125" style="stop-color:#242d36"/><stop offset=".242" style="stop-color:#1b232c"/><stop offset=".386" style="stop-color:#182029"/><stop offset=".591" style="stop-color:#1c252e"/><stop offset=".823" style="stop-color:#29323b"/><stop offset="1" style="stop-color:#37414b"/></linearGradient><path d="M23.726 18.093c-.629-.344-13.474 4.137-13.367 6.425.094 1.978-.072 6.95 1.643 11.094 5.515 13.325 13.943 17.152 21.087 15.282 15.443-4.044-.363-27.877-9.363-32.801z" style="fill:url(#b)"/><linearGradient id="c" x1="5.822" x2="21.6" y1="23.669" y2="13.336" gradientUnits="userSpaceOnUse"><stop offset=".133" style="stop-color:#37414b"/><stop offset=".464" style="stop-color:#182029"/><stop offset=".683" style="stop-color:#222a34"/><stop offset="1" style="stop-color:#37414b"/></linearGradient><path d="M23.585 17.386c-.599-.395-2.497-5.882-7.078-8.17.035-.036.07-.08.105-.114.278-.267.196-.35-.257-.373a6.827 6.827 0 0 0-.685.002c.028-.03.054-.066.082-.093.277-.273.191-.354-.26-.37a6.889 6.889 0 0 0-1.095.05c.194-.32.097-.357-.346-.29-1.087.16-4.867 1.095-6.789 4.665-.829 1.541-2.446 2.417-2.497 3.53-.048 1.035 2.275 3.33 2.275 3.333 1.572-.199 3.03 2.418 3.13 6 .05 1.747 1.834-2.04 3.04.933.58 1.428 2.016-3.055 3.097-1.617 2.616 3.48 7.975-1.883 6.567-4.761-.832-1.702 4.326-.344.71-2.725z" style="fill:url(#c)"/><path d="M0 19.328s4.783-1.892 8.414-.993c0 0-.14.892-1.374 1.22 0 0-5.78.299-7.04-.227z" style="fill:#db8000"/><linearGradient id="d" x1="16.027" x2="16.027" y1="14.388" y2="11.414" gradientTransform="rotate(-1.564 186.833 449.272)" gradientUnits="userSpaceOnUse"><stop offset="0" style="stop-color:#db8000"/><stop offset=".395" style="stop-color:#ee9c1d"/><stop offset=".754" style="stop-color:#faaf31"/><stop offset="1" style="stop-color:#ffb638"/></linearGradient><path d="M8.414 18.335 0 19.328c-.027-1.058 2.461-2.335 4.765-3.106.152 1.164 3.617.862 3.65 2.113z" style="fill:url(#d)"/><path d="M3.954 16.948c-.267.269.775.112.775.112.265-.267-.508-.379-.775-.112z" style="fill:#db8000"/><path d="M9.953 12.806c-1.136 0-1.58.966-1.482 1.717.075.561 2.891.561 2.964 0 .105-.814-.446-1.717-1.482-1.717z" style="fill:#1a1626"/><path d="M9.953 13.075c-.82 0-1.482.61-1.482 1.365 0 .65.662 1.366 1.482 1.366.818 0 1.482-.834 1.482-1.366 0-.756-.664-1.365-1.482-1.365z" style="fill:#c7ad4a"/><path d="M9.81 13.339c.612 0 1.107.487 1.107 1.087s-.495 1.087-1.106 1.087a1.096 1.096 0 0 1-1.107-1.087c0-.6.494-1.087 1.107-1.087z" style="fill:#1a1626"/><path d="M9.723 13.883c0 .394-.604.394-.604 0 0-.396.604-.396.604 0z" style="fill:#fff"/><linearGradient id="e" x1="-33.086" x2="-2.913" y1="98.621" y2="98.621" gradientTransform="rotate(8.069 377.56 515.586)" gradientUnits="userSpaceOnUse"><stop offset="0" style="stop-color:#182029"/><stop offset=".321" style="stop-color:#1b232c"/><stop offset=".554" style="stop-color:#242c35"/><stop offset=".759" style="stop-color:#333c45"/><stop offset=".947" style="stop-color:#48515b"/><stop offset="1" style="stop-color:#4f5963"/></linearGradient><path d="M55.615 56.728c-12.62-9.212-22.066-28.06-24.924-19.285-3.994 12.263 37.525 28.483 24.924 19.285z" style="fill:url(#e)"/><linearGradient id="f" x1="-30.544" x2="1.307" y1="104.259" y2="104.259" gradientTransform="rotate(11.836 290.959 387.149)" gradientUnits="userSpaceOnUse"><stop offset="0" style="stop-color:#182029"/><stop offset=".238" style="stop-color:#1e262f"/><stop offset=".556" style="stop-color:#2e3740"/><stop offset=".919" style="stop-color:#48525c"/><stop offset="1" style="stop-color:#4f5963"/></linearGradient><path d="M61.16 57.309c-12.83-8.694-23.576-28.814-25.495-19.431-2.678 13.108 38.313 28.115 25.495 19.43z" style="fill:url(#f)"/><linearGradient id="g" x1="-31.656" x2="1.232" y1="103.065" y2="103.065" gradientTransform="rotate(11.836 290.959 387.149)" gradientUnits="userSpaceOnUse"><stop offset="0" style="stop-color:#182029"/><stop offset=".389" style="stop-color:#2f3841"/><stop offset="1" style="stop-color:#4f5963"/></linearGradient><path d="M61.53 55.315C48.701 46.618 36.007 28.12 34.602 37.597c-1.571 10.61 39.745 26.398 26.928 17.718z" style="fill:url(#g)"/><linearGradient id="h" x1="53.883" x2="68.085" y1="41.433" y2="41.433" gradientTransform="rotate(-8.685 29.354 169.853)" gradientUnits="userSpaceOnUse"><stop offset="0" style="stop-color:#182029"/><stop offset=".389" style="stop-color:#2f3841"/><stop offset="1" style="stop-color:#4f5963"/></linearGradient><path d="M32.435 27.584C37.42 47.657 50.04 49.357 49.993 48.578c-.338-5.4-14.723-19.786-17.558-20.994z" style="fill:url(#h)"/><linearGradient id="i" x1="49.38" x2="68.959" y1="46.201" y2="46.201" gradientTransform="rotate(-12.177 38.878 166.335)" gradientUnits="userSpaceOnUse"><stop offset="0" style="stop-color:#182029"/><stop offset=".389" style="stop-color:#2f3841"/><stop offset="1" style="stop-color:#4f5963"/></linearGradient><path d="M21.855 37.64c10.265 16.92 23.253 14.473 23 13.771-1.767-4.872-19.864-13.561-23-13.77z" style="fill:url(#i)"/><linearGradient id="j" x1="36.876" x2="55.106" y1="47.33" y2="47.33" gradientTransform="matrix(.9997 -.022 .022 .9997 -9 -4.869)" gradientUnits="userSpaceOnUse"><stop offset="0" style="stop-color:#182029"/><stop offset=".389" style="stop-color:#2f3841"/><stop offset="1" style="stop-color:#4f5963"/></linearGradient><path d="M28.682 31.46c5.738 19.362 18.744 20.555 18.669 19.8-.516-5.246-15.723-18.726-18.67-19.8z" style="fill:url(#j)"/><linearGradient id="k" x1="574.903" x2="565.337" y1="75.39" y2="77.451" gradientTransform="matrix(-.9726 .232 .232 .9726 559.226 -169.46)" gradientUnits="userSpaceOnUse"><stop offset="0" style="stop-color:#182029"/><stop offset=".389" style="stop-color:#2f3841"/><stop offset="1" style="stop-color:#4f5963"/></linearGradient><path d="M17.383 28.949c1.144 14.514 10.15 17.023 10.144 16.255-.044-5.352-7.344-14.888-10.144-16.255z" style="fill:url(#k)"/><linearGradient id="l" x1="572.265" x2="559.461" y1="77.646" y2="80.404" gradientTransform="matrix(-.9726 .232 .232 .9726 559.226 -169.46)" gradientUnits="userSpaceOnUse"><stop offset="0" style="stop-color:#182029"/><stop offset=".389" style="stop-color:#2f3841"/><stop offset="1" style="stop-color:#4f5963"/></linearGradient><path d="M20.446 29.357c2.333 16.65 13.515 19.305 13.508 18.537-.046-5.35-10.707-17.171-13.508-18.537z" style="fill:url(#l)"/><linearGradient id="m" x1="569.391" x2="554.107" y1="78.376" y2="81.668" gradientTransform="matrix(-.9726 .232 .232 .9726 559.226 -169.46)" gradientUnits="userSpaceOnUse"><stop offset="0" style="stop-color:#182029"/><stop offset=".389" style="stop-color:#2f3841"/><stop offset="1" style="stop-color:#4f5963"/></linearGradient><path d="M23.376 27.778c3.929 20.117 16.121 22.491 16.113 21.72-.043-5.348-13.316-20.35-16.113-21.72z" style="fill:url(#m)"/><linearGradient id="n" x1="554.001" x2="540.884" y1="76.471" y2="79.297" gradientTransform="scale(-1 1) rotate(16.907 399.628 -1915.21)" gradientUnits="userSpaceOnUse"><stop offset="0" style="stop-color:#182029"/><stop offset=".389" style="stop-color:#2f3841"/><stop offset="1" style="stop-color:#4f5963"/></linearGradient><path d="M31.088 25.557c5.07 19.83 15.02 18.857 14.966 18.086-.348-5.335-9.408-15.453-14.966-18.086z" style="fill:url(#n)"/><linearGradient id="o" x1="566.475" x2="550.382" y1="76.62" y2="80.086" gradientTransform="matrix(-.9726 .232 .232 .9726 559.226 -169.46)" gradientUnits="userSpaceOnUse"><stop offset="0" style="stop-color:#182029"/><stop offset=".389" style="stop-color:#2f3841"/><stop offset="1" style="stop-color:#4f5963"/></linearGradient><path d="M25.803 25.371c3.93 20.113 16.953 22.52 16.943 21.749-.041-5.35-10.444-18.54-16.943-21.749z" style="fill:url(#o)"/><linearGradient id="p" x1="549.314" x2="546.201" y1="72.292" y2="72.963" gradientTransform="scale(-1 1) rotate(28.167 344.24 -1078.386)" gradientUnits="userSpaceOnUse"><stop offset="0" style="stop-color:#182029"/><stop offset=".389" style="stop-color:#2f3841"/><stop offset="1" style="stop-color:#4f5963"/></linearGradient><path d="M16.898 28.318c1.44 6.927 5.728 8.76 5.535 8.015-1.331-5.168-2.503-7.442-5.535-8.015z" style="fill:url(#p)"/><linearGradient id="q" x1="463.656" x2="452.95" y1="38.609" y2="43.486" gradientTransform="scale(-1 1) rotate(26.719 231.882 -1003.445)" gradientUnits="userSpaceOnUse"><stop offset="0" style="stop-color:#182029"/><stop offset=".389" style="stop-color:#2f3841"/><stop offset="1" style="stop-color:#4f5963"/></linearGradient><path d="M29.41 26.384c8.536 10.826 12.342 10.388 12.144 9.676-1.262-4.52-5.909-10.884-12.144-9.676z" style="fill:url(#q)"/><linearGradient id="r" x1="468.172" x2="457.462" y1="37.516" y2="42.396" gradientTransform="scale(-1 1) rotate(25.758 229.221 -1048.644)" gradientUnits="userSpaceOnUse"><stop offset="0" style="stop-color:#182029"/><stop offset=".389" style="stop-color:#2f3841"/><stop offset="1" style="stop-color:#4f5963"/></linearGradient><path d="M27.473 28.323c8.362 10.975 12.1 10.636 11.989 9.892-.758-5.02-4.24-11.62-11.99-9.892z" style="fill:url(#r)"/><linearGradient id="s" x1="471.507" x2="460.797" y1="35.422" y2="40.301" gradientTransform="scale(-1 1) rotate(25.758 229.221 -1048.644)" gradientUnits="userSpaceOnUse"><stop offset="0" style="stop-color:#182029"/><stop offset=".389" style="stop-color:#2f3841"/><stop offset="1" style="stop-color:#4f5963"/></linearGradient><path d="M23.559 27.887c8.364 10.975 12.101 10.634 11.989 9.892-.757-5.019-4.239-11.621-11.99-9.892z" style="fill:url(#s)"/><linearGradient id="t" x1="485.653" x2="474.859" y1="32.979" y2="37.897" gradientTransform="scale(-1 1) rotate(18.674 236.173 -1507.096)" gradientUnits="userSpaceOnUse"><stop offset="0" style="stop-color:#182029"/><stop offset=".389" style="stop-color:#2f3841"/><stop offset="1" style="stop-color:#4f5963"/></linearGradient><path d="M21.114 26.645c7.037 11.99 10.787 12.142 10.761 11.392-.17-5.081-2.866-12.086-10.76-11.392z" style="fill:url(#t)"/><linearGradient id="u" x1="475.179" x2="467.689" y1="32.308" y2="35.72" gradientTransform="scale(-1 1) rotate(25.758 229.221 -1048.644)" gradientUnits="userSpaceOnUse"><stop offset="0" style="stop-color:#182029"/><stop offset=".389" style="stop-color:#2f3841"/><stop offset="1" style="stop-color:#4f5963"/></linearGradient><path d="M18.886 26.163c4.443 8.931 8.538 11.818 8.477 11.06-.47-5.833-4.008-12.14-8.477-11.06z" style="fill:url(#u)"/><linearGradient id="v" x1="505.591" x2="501.63" y1="52.787" y2="54.104" gradientTransform="scale(-1 1) rotate(30.065 279.365 -935.602)" gradientUnits="userSpaceOnUse"><stop offset="0" style="stop-color:#182029"/><stop offset=".389" style="stop-color:#2f3841"/><stop offset="1" style="stop-color:#4f5963"/></linearGradient><path d="M19.117 28.84c1.648 6.745 6.002 8.383 5.839 7.636-1.13-5.211-2.741-7.206-5.84-7.636z" style="fill:url(#v)"/><linearGradient id="w" x1="29.2" x2="35.574" y1="59.965" y2="61.309" gradientTransform="rotate(-13.169 -117.157 100.235) scale(1.0001)" gradientUnits="userSpaceOnUse"><stop offset="0" style="stop-color:#182029"/><stop offset=".389" style="stop-color:#2f3841"/><stop offset="1" style="stop-color:#4f5963"/></linearGradient><path d="M18.791 21.946c-5.418 3.177-.977 12.238-.716 11.296.777-2.797-1.186-7.724.716-11.296z" style="fill:url(#w)"/><linearGradient id="x" x1="30.131" x2="37.152" y1="60.329" y2="61.81" gradientTransform="rotate(-13.169 -117.157 100.235) scale(1.0001)" gradientUnits="userSpaceOnUse"><stop offset="0" style="stop-color:#182029"/><stop offset=".389" style="stop-color:#2f3841"/><stop offset="1" style="stop-color:#4f5963"/></linearGradient><path d="M18.791 21.946c-4.808 4.81 2.823 12.33 2.813 11.56-.04-2.887-2.513-7.358-2.813-11.56z" style="fill:url(#x)"/><linearGradient id="y" x1="31.672" x2="39.208" y1="60.211" y2="61.8" gradientTransform="rotate(-13.169 -117.157 100.235) scale(1.0001)" gradientUnits="userSpaceOnUse"><stop offset="0" style="stop-color:#182029"/><stop offset=".389" style="stop-color:#2f3841"/><stop offset="1" style="stop-color:#4f5963"/></linearGradient><path d="M18.791 21.946c-1.132 6.92 5.378 11.728 5.368 10.96-.038-2.884-1.303-13.441-5.367-10.96z" style="fill:url(#y)"/><linearGradient id="z" x1="32.113" x2="47.597" y1="58.441" y2="61.706" gradientTransform="rotate(-13.169 -117.157 100.235) scale(1.0001)" gradientUnits="userSpaceOnUse"><stop offset="0" style="stop-color:#182029"/><stop offset=".389" style="stop-color:#2f3841"/><stop offset="1" style="stop-color:#4f5963"/></linearGradient><path d="M18.791 21.946c8.363 10.976 18.333 7.143 17.891 6.596-3.77-4.672-12.7-9.57-17.89-6.596z" style="fill:url(#z)"/><linearGradient id="A" x1="31.924" x2="46.281" y1="59.407" y2="62.435" gradientTransform="rotate(-13.169 -117.157 100.235) scale(1.0001)" gradientUnits="userSpaceOnUse"><stop offset="0" style="stop-color:#182029"/><stop offset=".389" style="stop-color:#2f3841"/><stop offset="1" style="stop-color:#4f5963"/></linearGradient><path d="M18.791 21.946c9.306 12.221 18.236 9.266 17.792 8.719-3.768-4.672-11.385-11.654-17.791-8.719z" style="fill:url(#A)"/><linearGradient id="B" x1="31.85" x2="43.938" y1="59.901" y2="62.45" gradientTransform="rotate(-13.169 -117.157 100.235) scale(1.0001)" gradientUnits="userSpaceOnUse"><stop offset="0" style="stop-color:#182029"/><stop offset=".389" style="stop-color:#2f3841"/><stop offset="1" style="stop-color:#4f5963"/></linearGradient><path d="M18.791 21.946c4.941 12.705 12.888 10.488 12.447 9.941-3.771-4.67-6.926-12.809-12.447-9.94z" style="fill:url(#B)"/><linearGradient id="C" x1="24.683" x2="24.683" y1="62" y2="49.275" gradientUnits="userSpaceOnUse"><stop offset="0" style="stop-color:#8a8a8a"/><stop offset=".436" style="stop-color:#888"/><stop offset=".594" style="stop-color:#838281"/><stop offset=".706" style="stop-color:#787776"/><stop offset=".796" style="stop-color:#6a6865"/><stop offset=".874" style="stop-color:#57544f"/><stop offset=".942" style="stop-color:#403b34"/><stop offset="1" style="stop-color:#262016"/></linearGradient><path d="M28.613 49.738c.016 9.39-5.338 8.427-5.227 9.26-.455.904-4.25.072-4.269 1.246-1.604 1.251-1.236 1.322-.053.835.79.17 6.037.443 6.352-.478.395.938.69 1.399 1.027 1.399.278 0 .641-1.023 1.07-1.534 1.717.767 2.65-.229 3.811.342-.253-1.692-4.085-1.439-3.28-2.845 1.689-2.956 2.295-6.011 2.867-7.834.397-1.264-2.3-.883-2.298-.391z" style="fill:url(#C)"/></svg>