<svg xmlns="http://www.w3.org/2000/svg" xml:space="preserve" style="enable-background:new 0 0 64 64" viewBox="0 0 64 64"><linearGradient id="a" x1="2" x2="19.051" y1="31.331" y2="31.331" gradientUnits="userSpaceOnUse"><stop offset="0" style="stop-color:#ffe375"/><stop offset=".408" style="stop-color:#fcd538"/><stop offset=".718" style="stop-color:#facc11"/><stop offset=".879" style="stop-color:#f9c802"/></linearGradient><path d="M5.153 23.82c-2.262-1.234-3.446.416-2.522 2.238-1.203.4-.623 2.791 1.201 3.819-.81.527-.173 2.603 1.92 3.1-.904 1.222 1.918 4.523 9.79 6.292 9.886-7.078-3.551-11.716-10.39-15.449z" style="fill:url(#a)"/><linearGradient id="b" x1="2.307" x2="14.323" y1="28.714" y2="28.714" gradientUnits="userSpaceOnUse"><stop offset=".2" style="stop-color:#f9b502"/><stop offset=".262" style="stop-color:#f9b702;stop-opacity:.9231"/><stop offset="1" style="stop-color:#f9c802;stop-opacity:0"/></linearGradient><path d="M2.317 24.767C2 29.877 9.422 27.06 14.323 32.66 9.57 26.568 3.237 29.201 2.317 24.768z" style="fill:url(#b)"/><linearGradient id="c" x1="2.028" x2="13.246" y1="30.871" y2="30.871" gradientUnits="userSpaceOnUse"><stop offset=".2" style="stop-color:#f9b502"/><stop offset=".262" style="stop-color:#f9b702;stop-opacity:.9231"/><stop offset="1" style="stop-color:#f9c802;stop-opacity:0"/></linearGradient><path d="M2.028 27.414c.093 4.619 6.39 2.2 11.218 6.914-4.728-5.166-10.062-2.984-11.218-6.914z" style="fill:url(#c)"/><linearGradient id="d" x1="3.563" x2="12.86" y1="33.542" y2="33.542" gradientUnits="userSpaceOnUse"><stop offset=".2" style="stop-color:#f9b502"/><stop offset=".262" style="stop-color:#f9b702;stop-opacity:.9231"/><stop offset="1" style="stop-color:#f9c802;stop-opacity:0"/></linearGradient><path d="M3.563 31.072c.771 3.697 4.896 1.371 9.297 4.94-4.365-3.956-7.826-2.016-9.297-4.94z" style="fill:url(#d)"/><linearGradient id="e" x1="-588.51" x2="-571.459" y1="31.331" y2="31.331" gradientTransform="matrix(-1 0 0 1 -526.51 0)" gradientUnits="userSpaceOnUse"><stop offset="0" style="stop-color:#ffe375"/><stop offset=".408" style="stop-color:#fcd538"/><stop offset=".718" style="stop-color:#facc11"/><stop offset=".879" style="stop-color:#f9c802"/></linearGradient><path d="M58.848 23.82c2.262-1.234 3.443.416 2.522 2.238 1.2.4.623 2.791-1.202 3.819.81.527.172 2.603-1.92 3.1.905 1.222-1.92 4.523-9.789 6.292-9.886-7.078 3.551-11.716 10.389-15.449z" style="fill:url(#e)"/><linearGradient id="f" x1="-588.202" x2="-576.188" y1="28.714" y2="28.714" gradientTransform="matrix(-1 0 0 1 -526.51 0)" gradientUnits="userSpaceOnUse"><stop offset=".2" style="stop-color:#f9b502"/><stop offset=".262" style="stop-color:#f9b702;stop-opacity:.9231"/><stop offset="1" style="stop-color:#f9c802;stop-opacity:0"/></linearGradient><path d="M61.682 24.767c.318 5.11-7.104 2.293-12.004 7.893 4.75-6.092 11.086-3.459 12.004-7.892z" style="fill:url(#f)"/><linearGradient id="g" x1="-588.483" x2="-577.264" y1="30.871" y2="30.871" gradientTransform="matrix(-1 0 0 1 -526.51 0)" gradientUnits="userSpaceOnUse"><stop offset=".2" style="stop-color:#f9b502"/><stop offset=".262" style="stop-color:#f9b702;stop-opacity:.9231"/><stop offset="1" style="stop-color:#f9c802;stop-opacity:0"/></linearGradient><path d="M61.973 27.414c-.094 4.619-6.393 2.2-11.219 6.914 4.729-5.166 10.063-2.984 11.219-6.914z" style="fill:url(#g)"/><linearGradient id="h" x1="-586.948" x2="-577.651" y1="33.542" y2="33.542" gradientTransform="matrix(-1 0 0 1 -526.51 0)" gradientUnits="userSpaceOnUse"><stop offset=".2" style="stop-color:#f9b502"/><stop offset=".262" style="stop-color:#f9b702;stop-opacity:.9231"/><stop offset="1" style="stop-color:#f9c802;stop-opacity:0"/></linearGradient><path d="M60.438 31.072c-.774 3.697-4.897 1.371-9.297 4.94 4.365-3.956 7.826-2.016 9.297-4.94z" style="fill:url(#h)"/><radialGradient id="i" cx="51.173" cy="77.887" r="19.75" gradientTransform="matrix(1.0058 0 0 1.073 -19.29 -39.533)" gradientUnits="userSpaceOnUse"><stop offset="0" style="stop-color:#ffe375"/><stop offset=".198" style="stop-color:#ffe271"/><stop offset=".383" style="stop-color:#fedf66"/><stop offset=".562" style="stop-color:#fddb53"/><stop offset=".738" style="stop-color:#fcd539"/><stop offset=".91" style="stop-color:#facd17"/><stop offset="1" style="stop-color:#f9c802"/></radialGradient><path d="M50 44.17C50 52.496 41.938 57 31.998 57S14 52.495 14 44.17c0-14.705 11.327-23.26 17.998-23.26C38.66 20.91 50 29.465 50 44.17z" style="fill:url(#i)"/><radialGradient id="j" cx="44.616" cy="21.918" r="19.089" gradientTransform="matrix(.9524 0 0 1 -10.68 .11)" gradientUnits="userSpaceOnUse"><stop offset="0" style="stop-color:#ffe375"/><stop offset=".198" style="stop-color:#ffe271"/><stop offset=".383" style="stop-color:#fedf66"/><stop offset=".562" style="stop-color:#fddb53"/><stop offset=".738" style="stop-color:#fcd539"/><stop offset=".91" style="stop-color:#facd17"/><stop offset="1" style="stop-color:#f9c802"/></radialGradient><path d="M35.864 6.219c-2.366-3.522-6.24-4.143-8.221-4.215-.897-.033-1.07.125-.567.738.739.903 1.448 2.233 1.856 4.059.512 2.268 7.943.928 6.932-.582z" style="fill:url(#j)"/><radialGradient id="k" cx="44.617" cy="21.917" r="19.088" gradientTransform="matrix(.9524 0 0 1 -10.68 .11)" gradientUnits="userSpaceOnUse"><stop offset="0" style="stop-color:#ffe375"/><stop offset=".198" style="stop-color:#ffe271"/><stop offset=".383" style="stop-color:#fedf66"/><stop offset=".562" style="stop-color:#fddb53"/><stop offset=".738" style="stop-color:#fcd539"/><stop offset=".91" style="stop-color:#facd17"/><stop offset="1" style="stop-color:#f9c802"/></radialGradient><path d="M34.436 5.643C31.35 2.842 27.45 3.256 25.514 3.7c-.875.203-1.012.4-.385.866.92.681 1.908 1.787 2.715 3.449 1.006 2.066 7.914-1.176 6.592-2.373z" style="fill:url(#k)"/><radialGradient id="l" cx="44.617" cy="21.911" r="19.083" gradientTransform="matrix(.9524 0 0 1 -10.68 .11)" gradientUnits="userSpaceOnUse"><stop offset="0" style="stop-color:#ffe375"/><stop offset=".198" style="stop-color:#ffe271"/><stop offset=".383" style="stop-color:#fedf66"/><stop offset=".562" style="stop-color:#fddb53"/><stop offset=".738" style="stop-color:#fcd539"/><stop offset=".91" style="stop-color:#facd17"/><stop offset="1" style="stop-color:#f9c802"/></radialGradient><path d="M39.74 5.375c-2.095-1.183-4.742-2.61-7.033-3.228-.869-.236-1.064-.182-.732.553.488 1.078.84 2.56.781 4.433-.068 2.328 8.516-.893 6.985-1.758z" style="fill:url(#l)"/><radialGradient id="m" cx="43.569" cy="24.069" r="19.084" gradientTransform="matrix(.9325 0 0 1.0037 -7.133 -1.854)" gradientUnits="userSpaceOnUse"><stop offset="0" style="stop-color:#ffe375"/><stop offset=".198" style="stop-color:#ffe271"/><stop offset=".383" style="stop-color:#fedf66"/><stop offset=".562" style="stop-color:#fddb53"/><stop offset=".738" style="stop-color:#fcd539"/><stop offset=".91" style="stop-color:#facd17"/><stop offset="1" style="stop-color:#f9c802"/></radialGradient><path d="M31.998 3.219c-9.365 0-19.56 9.758-16.418 21.72 3 11.409 12.245 7.805 16.418 7.805 4.176 0 13.422 3.603 16.42-7.805 3.145-11.962-7.05-21.72-16.42-21.72z" style="fill:url(#m)"/><radialGradient id="n" cx="32" cy="29.724" r="4.305" gradientTransform="translate(0 .11)" gradientUnits="userSpaceOnUse"><stop offset="0" style="stop-color:#fa0"/><stop offset=".079" style="stop-color:#fea300"/><stop offset=".422" style="stop-color:#f98b01"/><stop offset=".739" style="stop-color:#f67c01"/><stop offset="1" style="stop-color:#f57701"/></radialGradient><path d="M26.5 27.224h11c0 3.121-2.75 5.221-5.5 5.221-2.754 0-5.5-2.1-5.5-5.22z" style="fill:url(#n)"/><path d="M26.5 27.224h11c0 .536-2.75 3.36-5.5 3.36-2.754 0-5.5-2.824-5.5-3.36z" style="fill:#1a1626"/><path d="M29.44 27.594h5.123c0 .318-1.28 2.004-2.56 2.004-1.284 0-2.563-1.686-2.563-2.004z" style="fill:#ed7196"/><radialGradient id="o" cx="37.473" cy="32.119" r="4.302" gradientTransform="matrix(1.1 0 0 1.6813 -9.22 -26.124)" gradientUnits="userSpaceOnUse"><stop offset="0" style="stop-color:#fa0"/><stop offset=".079" style="stop-color:#fea300"/><stop offset=".422" style="stop-color:#f98b01"/><stop offset=".739" style="stop-color:#f67c01"/><stop offset="1" style="stop-color:#f57701"/></radialGradient><path d="M37.5 27.224s-3.533 1.208-5.5 1.208c-1.964-.004-5.5-1.207-5.5-1.207 0-3.192 2.465-5.78 5.5-5.78s5.5 2.588 5.5 5.78z" style="fill:url(#o)"/><linearGradient id="p" x1="20.773" x2="20.773" y1="62" y2="53.824" gradientUnits="userSpaceOnUse"><stop offset="0" style="stop-color:#fa0"/><stop offset=".079" style="stop-color:#fea300"/><stop offset=".422" style="stop-color:#f98b01"/><stop offset=".739" style="stop-color:#f67c01"/><stop offset="1" style="stop-color:#f57701"/></linearGradient><path d="M27.903 60.277c-1.746.152-3.729.107-4.192-1.375-.38-1.219-.164-2.693.262-4.078l-2.336-1c-.16 4.715-1.435 4.826-1.933 5.547-1.22 1.765-3.692-.143-5.723.888-1.121.569-1.518 1.768.094 1.361 4.449.079 6.308-.363 6.308-.363-.215 1.098 2.975.91 2.858-.113 0 0 1.568.476 4.14.129 1.11-.15 1.694-1.098.522-.996z" style="fill:url(#p)"/><linearGradient id="q" x1="154.828" x2="154.828" y1="62" y2="53.824" gradientTransform="matrix(-1 0 0 1 198.055 0)" gradientUnits="userSpaceOnUse"><stop offset="0" style="stop-color:#fa0"/><stop offset=".079" style="stop-color:#fea300"/><stop offset=".422" style="stop-color:#f98b01"/><stop offset=".739" style="stop-color:#f67c01"/><stop offset="1" style="stop-color:#f57701"/></linearGradient><path d="M36.096 60.277c1.748.152 3.73.107 4.191-1.375.383-1.219.166-2.693-.261-4.078l2.338-1c.158 4.715 1.435 4.826 1.933 5.547 1.217 1.765 3.692-.143 5.723.888 1.119.569 1.517 1.768-.096 1.361-4.449.079-6.307-.363-6.307-.363.215 1.098-2.976.91-2.857-.113 0 0-1.57.476-4.143.129-1.109-.15-1.69-1.098-.521-.996z" style="fill:url(#q)"/><path d="M40.087 14.752c-3.022.028-4.204 3.012-3.964 5.162.179 1.6 7.806.68 7.9-.24.237-2.327-1.154-4.948-3.936-4.922z" style="fill:#c99122"/><path d="M40.028 15.453c-2.156 0-3.902 1.858-3.902 4.148 0 1.98 1.438 4.15 3.902 4.15 2.465 0 3.587-2.53 3.587-4.15 0-2.29-1.43-4.148-3.587-4.148z" style="fill:#fffd9c"/><path d="M39.364 16.282c1.47 0 2.66 1.47 2.66 3.278 0 1.81-1.19 3.278-2.66 3.278-1.47 0-2.66-1.467-2.66-3.277s1.19-3.279 2.66-3.279z" style="fill:#1a1626"/><path d="M39.508 17.887c0 1.2-1.682 1.2-1.682 0 0-1.202 1.682-1.202 1.682 0z" style="fill:#fff"/><path d="M23.912 14.752c3.022.028 4.204 3.012 3.964 5.162-.178 1.6-7.806.68-7.9-.24-.236-2.327 1.155-4.948 3.936-4.922z" style="fill:#c99122"/><path d="M23.971 15.453c2.157 0 3.903 1.858 3.903 4.148 0 1.98-1.438 4.15-3.903 4.15-2.464 0-3.587-2.53-3.587-4.15 0-2.29 1.43-4.148 3.587-4.148z" style="fill:#fffd9c"/><path d="M24.636 16.282c-1.47 0-2.66 1.47-2.66 3.278 0 1.81 1.19 3.278 2.66 3.278 1.47 0 2.66-1.467 2.66-3.277s-1.19-3.279-2.66-3.279z" style="fill:#1a1626"/><path d="M24.491 17.887c0 1.2 1.683 1.2 1.683 0 0-1.202-1.683-1.202-1.683 0z" style="fill:#fff"/><path d="M23.25 10.838c-5.04 1.414-2.414 2.719 1.984 2.047 2.484-.38 1.33-2.979-1.984-2.047zm17.5 0c-3.317-.932-4.471 1.668-1.987 2.047 4.4.671 7.026-.633 1.987-2.047z" style="fill:#c99122"/></svg>