<svg xmlns="http://www.w3.org/2000/svg" xml:space="preserve" style="enable-background:new 0 0 64 64" viewBox="0 0 64 64"><linearGradient id="a" x1="49.146" x2="49.146" y1="31.071" y2="0" gradientUnits="userSpaceOnUse"><stop offset=".106" style="stop-color:#8d9ea8"/><stop offset=".351" style="stop-color:#92a3ad"/><stop offset=".649" style="stop-color:#a1b1ba"/><stop offset=".975" style="stop-color:#bac9cf"/><stop offset="1" style="stop-color:#bccbd1"/></linearGradient><path d="M49.184 30.86c-8.326 2-17.456-10.744-10.326-15.43C45.987 10.744 44.474 0 50.39 0c16.342 0 14.967 26.973-1.207 30.86z" style="fill:url(#a)"/><linearGradient id="b" x1="46.638" x2="61.3" y1="16.161" y2="12.463" gradientUnits="userSpaceOnUse"><stop offset="0" style="stop-color:#c99e91"/><stop offset=".05" style="stop-color:#cea598"/><stop offset=".292" style="stop-color:#e2c2b5"/><stop offset=".533" style="stop-color:#f1d6c9"/><stop offset=".771" style="stop-color:#fae3d6"/><stop offset="1" style="stop-color:#fde7da"/></linearGradient><path d="M48.716 20.178c-.918 7.15-5.312 12.715 1.388 9.974C65.81 23.726 64.77.278 50.696.278c-7.241 0-1.061 12.746-1.98 19.9z" style="fill:url(#b)"/><linearGradient id="c" x1="-383.675" x2="-383.675" y1="31.071" y2="0" gradientTransform="matrix(-1 0 0 1 -368.821 0)" gradientUnits="userSpaceOnUse"><stop offset=".106" style="stop-color:#8d9ea8"/><stop offset=".351" style="stop-color:#92a3ad"/><stop offset=".649" style="stop-color:#a1b1ba"/><stop offset=".975" style="stop-color:#bac9cf"/><stop offset="1" style="stop-color:#bccbd1"/></linearGradient><path d="M14.816 30.86c8.326 2 17.456-10.744 10.326-15.43C18.013 10.744 19.526 0 13.61 0-2.733 0-1.357 26.973 14.816 30.86z" style="fill:url(#c)"/><linearGradient id="d" x1="-386.183" x2="-371.521" y1="16.161" y2="12.463" gradientTransform="matrix(-1 0 0 1 -368.821 0)" gradientUnits="userSpaceOnUse"><stop offset="0" style="stop-color:#c99e91"/><stop offset=".05" style="stop-color:#cea598"/><stop offset=".292" style="stop-color:#e2c2b5"/><stop offset=".533" style="stop-color:#f1d6c9"/><stop offset=".771" style="stop-color:#fae3d6"/><stop offset="1" style="stop-color:#fde7da"/></linearGradient><path d="M15.284 20.178c.918 7.15 5.312 12.715-1.388 9.974C-1.81 23.726-.77.278 13.304.278c7.242 0 1.062 12.746 1.98 19.9z" style="fill:url(#d)"/><radialGradient id="e" cx="31.706" cy="37.074" r="27.577" fx="31.789" fy="13.951" gradientTransform="matrix(1 0 0 .8398 0 5.939)" gradientUnits="userSpaceOnUse"><stop offset="0" style="stop-color:#bccbd1"/><stop offset=".34" style="stop-color:#b9c8ce"/><stop offset=".596" style="stop-color:#afbfc6"/><stop offset=".824" style="stop-color:#9fafb8"/><stop offset="1" style="stop-color:#8d9ea8"/></radialGradient><path d="M58.167 39.965c-.554-6.632-4.43-10.281-7.454-13.973-3.48-4.256-5.17-11.844-19.007-11.844-13.834 0-15.53 7.59-19.008 11.842-3.019 3.688-6.9 7.345-7.454 13.975-1.032 12.438 12.433 12.696 13.973 14.86C21.276 57.714 27.064 60 31.707 60c4.618 0 10.428-2.284 12.487-5.176 1.54-2.16 15.009-2.423 13.973-14.86z" style="fill:url(#e)"/><path d="M31.706 53.564c.614 0 .227 6.436 0 6.436s-.614-6.436 0-6.436z" style="fill:#525f66"/><path d="M39.887 53.22c9.164 2.007 15.091 10.108 15.05 10.776-.012.216-4.87-7.886-15.05-10.775z" style="fill:#b2baba"/><path d="M39.737 52.39c9.993.277 17.579 7.629 17.646 8.34.022.232-6.436-7.335-17.646-8.34z" style="fill:#b2baba"/><path d="M40.884 51.81c9.496-.673 17.646 3.828 17.822 4.53.057.228-7.124-4.576-17.822-4.53zm-17.359 1.41c-9.164 2.007-15.091 10.108-15.05 10.776.012.216 4.87-7.886 15.05-10.775z" style="fill:#b2baba"/><path d="M23.675 52.39c-9.993.277-17.579 7.629-17.646 8.34-.022.232 6.436-7.335 17.646-8.34z" style="fill:#b2baba"/><path d="M22.528 51.81c-9.496-.673-17.646 3.828-17.822 4.53-.057.228 7.124-4.576 17.822-4.53z" style="fill:#b2baba"/><radialGradient id="f" cx="235.803" cy="351.445" r="11.373" fx="235.803" fy="348.416" gradientTransform="matrix(.6771 0 0 .2978 -127.957 -51.107)" gradientUnits="userSpaceOnUse"><stop offset="0" style="stop-color:#ffc9cd"/><stop offset=".49" style="stop-color:#ffb9bd"/><stop offset="1" style="stop-color:#ffadb1"/></radialGradient><path d="M31.706 50.18c-3.397 0-6.154.552-6.154 3.41 0 2.27 4.898 4.285 6.154 4.285 1.258 0 6.154-2.014 6.154-4.286 0-2.857-2.754-3.409-6.154-3.409z" style="fill:url(#f)"/><path d="M36.448 54.155c.58-2.403-4.048.982-3.408 2.497 1.693-1.627 3.147-1.416 3.408-2.497zm-9.485 0c-.578-2.403 4.05.982 3.408 2.497-1.69-1.627-3.145-1.416-3.407-2.497z" style="fill:#ffadb1"/><path d="M41.927 33.899c-4.212.039-5.86 4.189-5.525 7.178.25 2.225 10.88.946 11.01-.334.33-3.235-1.609-6.88-5.485-6.844z" style="fill:#525f66"/><path d="M41.844 34.874c-3.005 0-5.438 2.584-5.438 5.769 0 2.753 2.004 5.771 5.438 5.771 3.435 0 5-3.519 5-5.771 0-3.184-1.994-5.77-5-5.77z" style="fill:#fff8d6"/><path d="M40.919 36.027c2.048 0 3.706 2.043 3.706 4.56 0 2.516-1.658 4.557-3.706 4.557-2.05 0-3.707-2.04-3.707-4.558 0-2.516 1.658-4.559 3.707-4.559z" style="fill:#1a1626"/><path d="M41.12 38.259c0 1.668-2.345 1.668-2.345 0 0-1.672 2.345-1.672 2.345 0z" style="fill:#fff"/><path d="M21.485 33.899c4.212.039 5.86 4.189 5.525 7.178-.25 2.225-10.88.946-11.01-.334-.33-3.235 1.608-6.88 5.485-6.844z" style="fill:#525f66"/><path d="M21.567 34.874c3.006 0 5.44 2.584 5.44 5.769 0 2.753-2.005 5.771-5.44 5.771-3.435 0-5-3.519-5-5.771 0-3.184 1.994-5.77 5-5.77z" style="fill:#fff8d6"/><path d="M22.493 36.027c-2.048 0-3.706 2.043-3.706 4.56 0 2.516 1.658 4.557 3.706 4.557 2.049 0 3.707-2.04 3.707-4.558 0-2.516-1.658-4.559-3.707-4.559z" style="fill:#1a1626"/><path d="M22.292 38.259c0 1.668 2.345 1.668 2.345 0 0-1.672-2.345-1.672-2.345 0z" style="fill:#fff"/></svg>