<svg xmlns="http://www.w3.org/2000/svg" xml:space="preserve" style="enable-background:new 0 0 64 64" viewBox="0 0 64 64"><path d="M59.827 35.124c-.747-8.94-3.532-11.236-3.532-11.236s.146 2.917 2.279 8.68c1.08 2.92.97 4.112 1.492 7.998.212-3.43-.072-3.452-.239-5.442z" style="fill:#b47d56"/><path d="M59.989 41.75c-.098-4.29-1.183-4.609-.537-8.178.336 2.922 1.14 3.645.537 8.178z" style="fill:#9e6942"/><path d="M59.131 39.965c0-5.144-.898-4.862-.252-8.234.002 3.663.902 2.745.252 8.234z" style="fill:#9e6942"/><path d="M60.71 41.346c-.574-4.509-2.75-7.36-2.711-11.466.625 3.845 2.584 6.378 2.712 11.466z" style="fill:#9e6942"/><path d="M61.598 40.646c-2.983-4.163-2.573-7.974-2.573-7.974s.578 3.363 2.573 7.974z" style="fill:#9e6942"/><path d="M46.787 34.201c4.098 8.027 10.453 7.933 12.574 14.49.676 2.09.418 9.077-.294 11.16-.23.677-2.273.657-2.198 2.149h4.178c2.152 0-.13-4.04.678-11.554.298-2.777.174-4.614-.53-5.28-7.93-7.47-3.462-14.698-9.745-19.956-1.768-1.48-8.28 1.908-4.663 8.991z" style="fill:#b47d56"/><path d="M57.928 60.975c-.395.088-.622.244-.746.41.05-.221.132-.41.132-.41-.948.212-.966.807-.786 1.025h1.316c-.241-.278.084-1.025.084-1.025z" style="fill:#633d22"/><path d="M26.818 33.458c4.976 6.517 7.415 12.109 7.78 14.41-.191 2.224.965 2.325 1.306 3.135.847 2.025.711 6.765 0 8.847-.233.678-2.272.658-2.198 2.15h4.772c1.75 0-.115-1.944-.546-11.301.461-2.931-.668-4.013-1.305-5.61-1.096-2.76-2.077-7.635-1.592-11.832 1.365-11.88-13.91-7.251-8.217.201z" style="fill:#b47d56"/><path d="M34.745 60.975c-.393.088-.622.244-.746.41.05-.221.132-.41.132-.41-.947.212-.965.807-.786 1.025h1.318c-.242-.278.082-1.025.082-1.025z" style="fill:#633d22"/><linearGradient id="a" x1="34.13" x2="34.13" y1="38.494" y2="10.421" gradientUnits="userSpaceOnUse"><stop offset=".079" style="stop-color:#cc8e61"/><stop offset=".18" style="stop-color:#d0986c"/><stop offset=".347" style="stop-color:#d5a278"/><stop offset=".515" style="stop-color:#d6a57c"/></linearGradient><path d="M10.093 14.776c2.767 3.508-.132 14.695 6.21 18.53 3.212 1.942 5.21 1.316 8.552 1.31 4.733-.005 10.752 5.003 17.66 3.644 4.511-.887 18.662-1.906 15.241-11.903-1.999-5.843-9.833-8.045-10.363-8.724-4.55-5.84-11.178-4.944-14.065-.506-1.314 2.02-3.144-.513-8.917 6.52-1.933 2.36-4.5 1.95-5.47.754-1.655-2.046.345-11.533-3.23-13.86-1.294-.843-6.588 3.007-5.618 4.235z" style="fill:url(#a)"/><path d="M44.14 12.906s.02.62-.695 1.057c1.22-.08 1.398.4 2.146.224-.017.607-.536.814-.536.814s.992.608 1.732.199c-1.473 3.813-8.656.43-11.934.186 1.942-2.174 6.591-2.48 9.287-2.48z" style="fill:#d6a57c"/><linearGradient id="b" x1="8.136" x2="10.692" y1="18.609" y2="12.325" gradientUnits="userSpaceOnUse"><stop offset=".079" style="stop-color:#cc8e61"/><stop offset=".231" style="stop-color:#d0986c"/><stop offset=".481" style="stop-color:#d5a278"/><stop offset=".733" style="stop-color:#d6a57c"/></linearGradient><path d="M7.358 17.223c3.113.84 10.306.58 9.899-4.054-.45-5.12-8.377-3.194-12.137-1.75-2.524.965-1.941 2.637-2.881 3.77-.56.677-.025 1.021.473 1.026l.117.319c-.76.667.662.97 1.63.71 1.67-.445 2.205-.208 2.9-.02z" style="fill:url(#b)"/><path d="M16.51 11.337c-.43-1.293-2.536-3.201-4.368-3.337 0 0 .6.35.533.776 0 0-.822-.122-1.103.081.618.245.648.528.648.528s-.471-.19-.978.094c.658.096.633.223 1.374.776.737.551 3.894 1.082 3.894 1.082z" style="fill:#d6a57c"/><path d="M3.565 13.725c.303.2 1.13-.945.828-1.143-.288-.184-1.113.96-.828 1.143z" style="fill:#633d22"/><path d="M9.257 11.801c.792-.979 2.138-.29 2.138-.29s-1.314-.281-2.138.29zm3.162.854c-.1 1.203-1.774 1.611-1.774 1.611s1.438-.606 1.774-1.611z" style="fill:#c9946f"/><path d="M12.438 13.168c-.004.85-1.095 1.219-1.095 1.219s.924-.497 1.095-1.219zm-1.263.477c-.453.406-1.131.226-1.131.226s.669.029 1.131-.226z" style="fill:#c9946f"/><path d="M2.719 16.216c2.026-.46 3.026.426 4.908-.836-1.517 1.495-2.764.692-4.798 1.154l-.11-.318z" style="fill:#633d22"/><path d="M15.31 13.91c3.878-1.54 2.798-5.954 2.32-5.642-.75.48-2.865 1.575-4.24 3.497-.149.208 1.435 2.337 1.92 2.146z" style="fill:#d6a57c"/><path d="M15.562 13.294c2.642-1.109 2.208-4.685 1.781-4.4-2.877 1.928-2.262 4.603-1.781 4.4z" style="fill:#b47d56"/><path d="M25.696 33.458c-.06 6.666 1.09 11.005.458 13.25-1.104 1.947-.092 2.51-.121 3.385-.074 2.19-1.953 7.675-2.664 9.757-.232.678-2.271.658-2.2 2.15h4.774c1.75 0-1.454-2.659 2.064-11.36 1.647-2.483 1.07-3.926 1.158-5.642.156-2.96 3.644-6.748 4.128-10.946 2.136-18.576-7.456-16.644-7.597-.594z" style="fill:#d6a57c"/><path d="M22.21 60.975c-.393.088-.621.244-.745.41.05-.221.132-.41.132-.41-.947.212-.965.807-.786 1.025h1.318c-.243-.278.082-1.025.082-1.025z" style="fill:#633d22"/><path d="M49.505 26.83c-.738 3.234.418 12.84 1.914 14.388.68.704 2.448 7.258 2.151 10.173-.46 4.514-2.512 6.072-3.223 8.158-.23.676-3.431.959-3.358 2.451h5.003c1.435 0 .165-3.5 4.639-11.047 1.124-1.352-.011-4.882-.318-10.252-.102-1.798 2.593-7.223 1.97-11.55-1.169-8.097-7.117-9.61-8.779-2.322z" style="fill:#d6a57c"/><path d="M48.2 60.975c-.396.088-.623.244-.747.41.05-.221.132-.41.132-.41-.948.212-.966.807-.786 1.025h1.316c-.241-.278.085-1.025.085-1.025z" style="fill:#633d22"/><path d="M9.197 12.696c.768 1.25 2.218.647 2.613-.447-.533-.496-2.407-.08-2.613.447z" style="fill:#1a1626"/><path d="M9.257 12.598c.668 1.163 1.891.624 2.214-.38-.459-.464-2.046-.103-2.214.38z" style="fill:#453426"/><path d="M9.534 12.47c.47.897 1.294.504 1.499-.26-.319-.36-1.392-.107-1.5.26z" style="fill:#1a1626"/><path d="M10.007 12.433c.056.345-.439.426-.495.081-.057-.35.438-.43.495-.08z" style="fill:#6e8189"/><path d="M11.81 12.249c-.364-.46-2.436-.754-2.613.447.343-.376 2.023-.566 2.613-.447z" style="fill:#b47d56"/></svg>