<svg xmlns="http://www.w3.org/2000/svg" xml:space="preserve" style="enable-background:new 0 0 64 64" viewBox="0 0 64 64"><linearGradient id="a" x1="24.732" x2="42.108" y1="16.207" y2="58.458" gradientUnits="userSpaceOnUse"><stop offset="0" style="stop-color:#1fdaff"/><stop offset="1" style="stop-color:#00aade"/></linearGradient><path d="M63.002 21.247c-.703.213-.906 1.424-2.754 1.95-1.28.365-3.463-1.094-5.055 1.453-2.943-2.442-5.064.303-6.931.02-1.112-.169-1.957-1.13-2.672-1.06-.22.022-.606.384-.51.73 1.006 3.624 6.092 6.27 8.836 6.615.457.058.613.25.697.85.364 2.585.975 10.456-5.146 10.456-5.418 0-7.29-6.86-14.524-14.506-11.673-12.34-29.421-8.26-33.388 2.91-3.532 9.94-.813 23.284 5.758 24.78 3.04 2.748 31.212 14.724 51.189-7.59 4.268-5.926 1.793-13.547.842-15.94-.25-.627-.137-.806.347-1.052 2.75-1.409 4.803-4.627 4.205-8.633-.14-.944-.488-1.106-.894-.983z" style="fill:url(#a)"/><path d="M20.07 23.757c0 1.078-4.199 1.078-4.199 0 0-1.08 4.2-1.08 4.2 0zm4.872 19.455c-2.753 0-3.833 2.333-3.591 4.154.18 1.352 7.009 1.352 7.186 0 .254-1.97-1.08-4.154-3.595-4.154z" style="fill:#01587d"/><path d="M24.942 43.861c-1.986 0-3.591 1.475-3.591 3.3 0 1.574 1.606 3.3 3.591 3.3 1.986 0 3.595-2.012 3.595-3.3-.001-1.825-1.612-3.3-3.595-3.3z" style="fill:#fff"/><radialGradient id="b" cx="22.22" cy="46.418" r="2.85" gradientTransform="matrix(1.0098 0 0 1 1.78 0)" gradientUnits="userSpaceOnUse"><stop offset=".043" style="stop-color:#413f4a"/><stop offset=".284" style="stop-color:#3d3a46"/><stop offset=".558" style="stop-color:#302d3a"/><stop offset=".847" style="stop-color:#1a1626"/></radialGradient><path d="M24.759 44.275c1.599 0 2.894 1.267 2.894 2.832 0 1.566-1.295 2.836-2.894 2.836-1.6 0-2.895-1.27-2.895-2.836 0-1.565 1.294-2.832 2.895-2.832z" style="fill:url(#b)"/><path d="M26.571 45.868c0 .908-1.391.908-1.391 0 0-.907 1.391-.907 1.391 0z" style="fill:#fff"/><linearGradient id="c" x1="34.721" x2="33.224" y1="63.586" y2="40.636" gradientUnits="userSpaceOnUse"><stop offset="0" style="stop-color:#b4c4cf"/><stop offset=".095" style="stop-color:#c3d0d9"/><stop offset=".228" style="stop-color:#d1dae1"/><stop offset=".395" style="stop-color:#d9e0e7"/><stop offset=".709" style="stop-color:#dbe2e8"/></linearGradient><path d="M7.742 56.455c-1.888.513-1.445 4.91 3.23 6.037 7.684 1.85 22.938 1.572 32.423-1.428 9.222-2.92 16.377-8.889 17.505-20.39-3.11 15.624-26.146 14.273-26.146 14.273-2.668 1.26-2.428-6.602-5.115-2.973-6.278 7.121-18.9 4.62-21.897 4.48z" style="fill:url(#c)"/><linearGradient id="d" x1="21.872" x2="39.248" y1="17.383" y2="59.634" gradientUnits="userSpaceOnUse"><stop offset="0" style="stop-color:#1fdaff"/><stop offset="1" style="stop-color:#00aade"/></linearGradient><path d="M42.76 55.972c.28-5.256-13.283-7.789-11.317-.09 1.577 6.172 9.252 9.322 14.082 7.692 1.823-.618 1.563-1.38-.074-2.176-1.363-.666-2.87-2.028-2.691-5.426z" style="fill:url(#d)"/><path d="M29.639 51.974c-1.074 1.418-8.27 6.547-22.326 3.47l.558 1.315c8.233 1.358 17.6 1.168 21.768-4.785z" style="fill:#01587d"/><linearGradient id="e" x1="6.453" x2="18.081" y1="14.346" y2="14.346" gradientUnits="userSpaceOnUse"><stop offset="0" style="stop-color:#8adcff"/><stop offset=".208" style="stop-color:#87dbfd"/><stop offset=".385" style="stop-color:#7cd6f8"/><stop offset=".55" style="stop-color:#6bcff0"/><stop offset=".708" style="stop-color:#52c4e4"/><stop offset=".86" style="stop-color:#32b7d5"/><stop offset="1" style="stop-color:#0ea7c4"/></linearGradient><path d="M8.488 9.67c7.688 4.671 9.559 14.179 9.559 14.179s1.002-11.244-7.809-18.07c-3.75-2.905-5.384 1.681-1.75 3.89z" style="fill:url(#e)"/><linearGradient id="f" x1="18.144" x2="27.924" y1="17.132" y2="17.132" gradientUnits="userSpaceOnUse"><stop offset="0" style="stop-color:#0ea7c4"/><stop offset=".14" style="stop-color:#32b7d5"/><stop offset=".292" style="stop-color:#52c4e4"/><stop offset=".45" style="stop-color:#6bcff0"/><stop offset=".616" style="stop-color:#7cd6f8"/><stop offset=".792" style="stop-color:#87dbfd"/><stop offset="1" style="stop-color:#8adcff"/></linearGradient><path d="M26.037 12.783c-6.482 2.605-7.863 11.47-7.863 11.47s-.828-10.074 6.283-13.646c3.531-1.776 4.88.85 1.58 2.176z" style="fill:url(#f)"/><linearGradient id="g" x1="18.018" x2="32.185" y1="8.982" y2="8.982" gradientUnits="userSpaceOnUse"><stop offset="0" style="stop-color:#0ea7c4"/><stop offset=".14" style="stop-color:#32b7d5"/><stop offset=".292" style="stop-color:#52c4e4"/><stop offset=".45" style="stop-color:#6bcff0"/><stop offset=".616" style="stop-color:#7cd6f8"/><stop offset=".792" style="stop-color:#87dbfd"/><stop offset="1" style="stop-color:#8adcff"/></linearGradient><path d="M29.54 3.454c-9.393 3.29-11.458 14.51-11.458 14.51S16.684 5.274 26.988.761c5.117-2.24 7.334 1.018 2.551 2.693z" style="fill:url(#g)"/><linearGradient id="h" x1="6.722" x2="18.063" y1="19.581" y2="19.581" gradientUnits="userSpaceOnUse"><stop offset="0" style="stop-color:#8adcff"/><stop offset=".208" style="stop-color:#87dbfd"/><stop offset=".385" style="stop-color:#7cd6f8"/><stop offset=".55" style="stop-color:#6bcff0"/><stop offset=".708" style="stop-color:#52c4e4"/><stop offset=".86" style="stop-color:#32b7d5"/><stop offset="1" style="stop-color:#0ea7c4"/></linearGradient><path d="M9.207 18.369c6.813 1.072 8.856 5.884 8.856 5.884s-1.637-7.714-9.137-9.261c-3.252-.67-2.69 2.908.281 3.377z" style="fill:url(#h)"/><linearGradient id="i" x1="-14.408" x2="-9.52" y1="61.116" y2="61.706" gradientTransform="matrix(1.4103 .1256 -.2468 1.5491 47.504 -88.331)" gradientUnits="userSpaceOnUse"><stop offset="0" style="stop-color:#8adcff"/><stop offset=".208" style="stop-color:#87dbfd"/><stop offset=".385" style="stop-color:#7cd6f8"/><stop offset=".55" style="stop-color:#6bcff0"/><stop offset=".708" style="stop-color:#52c4e4"/><stop offset=".86" style="stop-color:#32b7d5"/><stop offset="1" style="stop-color:#0ea7c4"/></linearGradient><path d="M12.805 3.367c3.33 3.705 4.246 7.37 4.246 7.37s.92-3.915-.428-8.447c-1.355-4.56-5.95-1.296-3.818 1.077z" style="fill:url(#i)"/><linearGradient id="j" x1="21.285" x2="26.277" y1="17.618" y2="17.618" gradientUnits="userSpaceOnUse"><stop offset="0" style="stop-color:#0ea7c4"/><stop offset=".14" style="stop-color:#32b7d5"/><stop offset=".292" style="stop-color:#52c4e4"/><stop offset=".45" style="stop-color:#6bcff0"/><stop offset=".616" style="stop-color:#7cd6f8"/><stop offset=".792" style="stop-color:#87dbfd"/><stop offset="1" style="stop-color:#8adcff"/></linearGradient><path d="M24.074 16.538c-2.047.817-2.789 2.39-2.789 2.39s1.656-.823 3.98-.67c1.56.103 1.43-2.762-1.19-1.72z" style="fill:url(#j)"/><path d="M27.68 42.334c1.718.103-4.019-2.844-5.613-1.145-.927.99 1.893.92 5.614 1.145z" style="fill:#01587d"/><linearGradient id="k" x1="16.354" x2="32.99" y1="21.288" y2="61.741" gradientUnits="userSpaceOnUse"><stop offset="0" style="stop-color:#1fdaff"/><stop offset="1" style="stop-color:#00aade"/></linearGradient><path d="M22.89 54.183c5.873 1.255 10.735-7.898 10.735-7.898s-8.919.335-10.735 7.898z" style="fill:url(#k)"/></svg>