<svg xmlns="http://www.w3.org/2000/svg" xml:space="preserve" style="enable-background:new 0 0 64 64" viewBox="0 0 64 64"><linearGradient id="a" x1="37.045" x2="56.063" y1="36.618" y2="3.677" gradientUnits="userSpaceOnUse"><stop offset="0" style="stop-color:#6b7f8c"/><stop offset=".031" style="stop-color:#708490"/><stop offset=".168" style="stop-color:#83949d"/><stop offset=".33" style="stop-color:#8f9fa7"/><stop offset=".544" style="stop-color:#97a6ac"/><stop offset="1" style="stop-color:#99a8ae"/></linearGradient><path d="M43.593 39.25C63.578 22.573 51.73-3.178 48.752.322c-20.145 23.625-8.804 41.962-5.16 38.926z" style="fill:url(#a)"/><radialGradient id="b" cx="-14.316" cy="73.464" r="8.925" gradientTransform="matrix(.8975 .2344 -.4128 1.9825 92.51 -121.344)" gradientUnits="userSpaceOnUse"><stop offset="0" style="stop-color:#ffccc2;stop-opacity:.8"/><stop offset=".313" style="stop-color:#fdcac0;stop-opacity:.8627"/><stop offset=".494" style="stop-color:#f8c1ba;stop-opacity:.8988"/><stop offset=".64" style="stop-color:#efb3b0;stop-opacity:.9281"/><stop offset=".769" style="stop-color:#e19fa2;stop-opacity:.9538"/><stop offset=".885" style="stop-color:#d18690;stop-opacity:.9769"/><stop offset=".991" style="stop-color:#bc677a;stop-opacity:.9983"/><stop offset="1" style="stop-color:#ba6478"/></radialGradient><path d="M46.006 35.355c12.736-13.501 5.827-33.117 3.62-30.404-14.912 18.322-6.322 32.751-3.62 30.404z" style="fill:url(#b)"/><linearGradient id="c" x1="7.937" x2="26.955" y1="3.677" y2="36.618" gradientUnits="userSpaceOnUse"><stop offset="0" style="stop-color:#99a8ae"/><stop offset=".456" style="stop-color:#97a6ac"/><stop offset=".67" style="stop-color:#8f9fa7"/><stop offset=".832" style="stop-color:#83949d"/><stop offset=".969" style="stop-color:#708490"/><stop offset="1" style="stop-color:#6b7f8c"/></linearGradient><path d="M20.408 39.25C.422 22.573 12.269-3.178 15.248.322c20.144 23.625 8.803 41.962 5.16 38.926z" style="fill:url(#c)"/><radialGradient id="d" cx="-844.076" cy="-84.126" r="8.925" gradientTransform="matrix(-.8975 .2344 .4128 1.9825 -708.156 385.564)" gradientUnits="userSpaceOnUse"><stop offset="0" style="stop-color:#ffccc2;stop-opacity:.8"/><stop offset=".313" style="stop-color:#fdcac0;stop-opacity:.8627"/><stop offset=".494" style="stop-color:#f8c1ba;stop-opacity:.8988"/><stop offset=".64" style="stop-color:#efb3b0;stop-opacity:.9281"/><stop offset=".769" style="stop-color:#e19fa2;stop-opacity:.9538"/><stop offset=".885" style="stop-color:#d18690;stop-opacity:.9769"/><stop offset=".991" style="stop-color:#bc677a;stop-opacity:.9983"/><stop offset="1" style="stop-color:#ba6478"/></radialGradient><path d="M17.994 35.355C5.258 21.854 12.167 2.238 14.374 4.95c14.912 18.322 6.322 32.751 3.62 30.404z" style="fill:url(#d)"/><path d="M29.462 25.7c-3.423-4.022-7.676-3.322-9.787-2.613-.953.32-1.096.615-.404 1.277 1.017.977 2.115 2.57 3.027 4.99 1.136 3.003 8.629-1.93 7.164-3.654z" style="fill:#99a8ae"/><path d="M27.942 26.096c-3.995-2.704-8-.528-9.928.897-.87.647-.962.981-.178 1.383 1.148.59 2.481 1.75 3.77 3.776 1.605 2.517 8.046-4.9 6.336-6.056zm6.596-.396c3.424-4.022 7.675-3.322 9.786-2.613.953.32 1.096.615.405 1.276-1.017.977-2.115 2.571-3.027 4.991-1.135 3.003-8.63-1.93-7.164-3.654z" style="fill:#99a8ae"/><path d="M36.058 26.096c3.994-2.704 8-.528 9.928.897.87.647.962.981.178 1.383-1.15.59-2.48 1.75-3.771 3.776-1.605 2.517-8.045-4.9-6.335-6.056z" style="fill:#99a8ae"/><radialGradient id="e" cx="32" cy="42.258" r="27.557" fx="32.063" fy="18.903" gradientTransform="matrix(1 0 0 .8225 0 7.501)" gradientUnits="userSpaceOnUse"><stop offset="0" style="stop-color:#99a8ae"/><stop offset=".456" style="stop-color:#97a6ac"/><stop offset=".67" style="stop-color:#8f9fa7"/><stop offset=".832" style="stop-color:#83949d"/><stop offset=".969" style="stop-color:#708490"/><stop offset="1" style="stop-color:#6b7f8c"/></radialGradient><path d="M51.526 37.46c-9.904-7.24-3.85-16.944-19.524-16.944-15.674 0-9.622 9.704-19.527 16.944C-.035 46.608 9.91 64 32.002 64c22.083 0 32.035-17.391 19.524-26.54z" style="fill:url(#e)"/><linearGradient id="f" x1="32" x2="32" y1="62.968" y2="36.714" gradientUnits="userSpaceOnUse"><stop offset="0" style="stop-color:#d4dadd"/><stop offset=".08" style="stop-color:#dfe4e6"/><stop offset=".246" style="stop-color:#f1f3f4"/><stop offset=".424" style="stop-color:#fcfcfc"/><stop offset=".63" style="stop-color:#fff"/></linearGradient><path d="M52.476 49.076c-1.161-2.616-9.19 3.948-13.329.941-5.512-4-3.27-8.621-5.625-12.117-1.064-1.581-1.98-1.581-3.043 0-2.356 3.496-.112 8.117-5.624 12.117-4.141 3.009-12.17-3.558-13.331-.941-2.296 5.166 6.856 13.892 20.48 13.892 13.614 0 22.768-8.726 20.472-13.892z" style="fill:url(#f)"/><path d="M39.575 53.173c8.486 2.015 13.973 10.152 13.935 10.823-.011.217-4.508-7.92-13.935-10.823z" style="fill:#f0e5da"/><path d="M39.436 52.34c9.253.277 16.277 7.66 16.339 8.376.02.232-5.959-7.369-16.339-8.377z" style="fill:#f0e5da"/><path d="M40.498 51.757C49.291 51.08 56.837 55.6 57 56.307c.053.228-6.596-4.597-16.502-4.55zm-16.073 1.416c-8.486 2.015-13.973 10.152-13.935 10.823.011.217 4.508-7.92 13.935-10.823z" style="fill:#f0e5da"/><path d="M24.564 52.34C15.31 52.616 8.287 60 8.225 60.715c-.02.232 5.96-7.369 16.339-8.377z" style="fill:#f0e5da"/><path d="M23.502 51.757C14.709 51.08 7.163 55.6 7 56.307c-.053.228 6.596-4.597 16.502-4.55z" style="fill:#f0e5da"/><linearGradient id="g" x1="32" x2="32" y1="61.295" y2="58.746" gradientUnits="userSpaceOnUse"><stop offset=".536" style="stop-color:#fff"/><stop offset=".626" style="stop-color:#fbfbfb"/><stop offset=".718" style="stop-color:#eeefef"/><stop offset=".811" style="stop-color:#dadbdc"/><stop offset=".905" style="stop-color:#bdbfc1"/><stop offset="1" style="stop-color:#989b9e"/><stop offset="1" style="stop-color:#989b9e"/></linearGradient><path d="M29.176 58.746s.055 1.993.175 2.273c.15.35 2.263.365 2.649.059.386.308 2.5.29 2.648-.058.12-.281.176-2.274.176-2.274h-5.648z" style="fill:url(#g)"/><path d="M32 54.719c-.218 0-.21 3.562 0 3.562.209 0 .218-3.562 0-3.562z" style="fill:#5c6c73"/><path d="M37.784 57.393c-1.555 1.614-3.92.768-5.783.769-1.863 0-4.23.845-5.785-.769-.36-.375-.354-.065-.066.31 1.552 2.027 3.452 1.31 5.851 1.31 2.398 0 4.3.716 5.85-1.31.286-.375.294-.685-.067-.31z" style="fill:#5c6c73"/><radialGradient id="h" cx="150.117" cy="350.514" r="7.39" fx="150.116" fy="348.546" gradientTransform="matrix(.8466 0 0 .2978 -95.089 -51.428)" gradientUnits="userSpaceOnUse"><stop offset="0" style="stop-color:#ffadc0"/><stop offset=".362" style="stop-color:#ffa7bb"/><stop offset=".853" style="stop-color:#ff96ad"/><stop offset="1" style="stop-color:#ff8fa8"/></radialGradient><path d="M32 50.763c-2.76 0-5 .358-5 2.215 0 1.476 3.98 2.785 5 2.785 1.022 0 5-1.31 5-2.785 0-1.857-2.237-2.215-5-2.215z" style="fill:url(#h)"/><path d="M35.853 53.345c.471-1.561-3.29.639-2.769 1.623 1.375-1.058 2.557-.92 2.769-1.623zm-7.706 0c-.47-1.561 3.29.639 2.769 1.623-1.373-1.058-2.556-.92-2.769-1.623z" style="opacity:.5;fill:#ff8fa8"/><path d="M42.051 37c-3.85.036-5.356 3.857-5.05 6.61.228 2.047 9.945.87 10.064-.309.302-2.977-1.47-6.334-5.014-6.3z" style="fill:#6b7f8c"/><path d="M41.976 37.898c-2.747 0-4.972 2.38-4.972 5.311 0 2.535 1.832 5.314 4.972 5.314 3.14 0 4.57-3.24 4.57-5.314 0-2.931-1.822-5.311-4.57-5.311z" style="fill:#dae4ed"/><path d="M41.13 38.96c1.872 0 3.387 1.88 3.387 4.197 0 2.318-1.515 4.196-3.387 4.196-1.873 0-3.389-1.878-3.389-4.196 0-2.316 1.516-4.197 3.389-4.197z" style="fill:#1a1626"/><path d="M41.314 41.014c0 1.536-2.144 1.536-2.144 0 0-1.539 2.144-1.539 2.144 0z" style="fill:#fff"/><path d="M21.949 37c3.85.036 5.356 3.857 5.05 6.61-.228 2.047-9.945.87-10.064-.309-.302-2.977 1.47-6.334 5.014-6.3z" style="fill:#6b7f8c"/><path d="M22.024 37.898c2.747 0 4.972 2.38 4.972 5.311 0 2.535-1.832 5.314-4.972 5.314-3.14 0-4.57-3.24-4.57-5.314 0-2.931 1.822-5.311 4.57-5.311z" style="fill:#dae4ed"/><path d="M22.87 38.96c-1.872 0-3.388 1.88-3.388 4.197 0 2.318 1.516 4.196 3.388 4.196 1.873 0 3.389-1.878 3.389-4.196 0-2.316-1.516-4.197-3.389-4.197z" style="fill:#1a1626"/><path d="M22.686 41.014c0 1.536 2.144 1.536 2.144 0 0-1.539-2.144-1.539-2.144 0z" style="fill:#fff"/></svg>