<svg xmlns="http://www.w3.org/2000/svg" xml:space="preserve" style="enable-background:new 0 0 64 64" viewBox="0 0 64 64"><linearGradient id="a" x1="46.187" x2="57.742" y1="18.183" y2="5.294" gradientUnits="userSpaceOnUse"><stop offset="0" style="stop-color:#2d2d30"/><stop offset=".872" style="stop-color:#4d4d53"/><stop offset="1" style="stop-color:#525259"/></linearGradient><path d="M39.592 9.356c-4.316 15.76 16.305 21.872 20.54 10.415C65.611 4.94 43.754-5.846 39.591 9.356z" style="fill:url(#a)"/><path d="M43.657 12.086c-5.254 10.25 10.46 17.372 13.853 7.44 3.74-10.946-8.608-17.669-13.852-7.44z" style="fill:#1a1626"/><linearGradient id="b" x1="578.122" x2="589.677" y1="18.183" y2="5.294" gradientTransform="matrix(-1 0 0 1 595.935 0)" gradientUnits="userSpaceOnUse"><stop offset="0" style="stop-color:#2d2d30"/><stop offset=".872" style="stop-color:#4d4d53"/><stop offset="1" style="stop-color:#525259"/></linearGradient><path d="M24.408 9.356c4.316 15.76-16.305 21.872-20.54 10.415C-1.611 4.94 20.246-5.846 24.409 9.356z" style="fill:url(#b)"/><path d="M20.343 12.086c5.254 10.249-10.46 17.372-13.853 7.44-3.74-10.946 8.608-17.67 13.853-7.44z" style="fill:#1a1626"/><radialGradient id="c" cx="31.885" cy="32.334" r="27.968" fx="31.993" fy="9.567" gradientTransform="matrix(1 0 0 .8532 0 4.746)" gradientUnits="userSpaceOnUse"><stop offset="0" style="stop-color:#fff"/><stop offset=".29" style="stop-color:#f4f5f6"/><stop offset=".799" style="stop-color:#d6dcdf"/><stop offset="1" style="stop-color:#c9d0d4"/></radialGradient><path d="M31.998 8.446C15.74 8.446.748 24.063 2.083 42.221 3.183 57.213 18.149 61.999 31.999 62c13.863 0 28.814-4.781 29.919-19.78 1.328-18.156-13.64-33.774-29.92-33.774z" style="fill:url(#c)"/><radialGradient id="d" cx="902.828" cy="-627.284" r="12.332" gradientTransform="matrix(-.7558 .6761 -.6953 -.622 293.55 -954.844)" gradientUnits="userSpaceOnUse"><stop offset=".419" style="stop-color:#fff"/><stop offset="1" style="stop-color:#fff;stop-opacity:0"/></radialGradient><path d="M57.081 53.008c5.67-5.071 5.452-13.194-1.345-18.442-5.612-4.334-12.5-1.158-17.33 3.163-4.835 4.324-8.381 10.48-3.536 15.503 5.869 6.08 16.535 4.855 22.211-.224z" style="fill:url(#d)"/><radialGradient id="e" cx="191.788" cy="-988.935" r="12.332" gradientTransform="matrix(-.7558 -.6761 .6953 -.622 849.222 -439.715)" gradientUnits="userSpaceOnUse"><stop offset=".419" style="stop-color:#fff"/><stop offset="1" style="stop-color:#fff;stop-opacity:0"/></radialGradient><path d="M6.921 53.01c5.67 5.073 16.344 6.304 22.21.224 4.845-5.02 1.295-11.183-3.535-15.504-4.833-4.324-11.715-7.497-17.33-3.163-6.795 5.25-7.021 13.365-1.345 18.444z" style="fill:url(#e)"/><path d="M22.404 56c.888 5.525 5.256 6 9.596 6 4.341 0 8.708-.475 9.596-6H22.404z" style="fill:#bdc3c7"/><path d="M40.889 55.603c-2.39 2.123-6.024 1.01-8.887 1.01-2.864 0-6.5 1.113-8.89-1.01-.555-.494-1.049.304-.582.798 2.512 2.665 5.784 1.333 9.472 1.333 3.685-.001 6.96 1.331 9.47-1.333.463-.494-.028-1.292-.583-.798z" style="fill:#2d2d30"/><radialGradient id="f" cx="77.161" cy="70.964" r="8.765" gradientTransform="matrix(1.1878 0 0 1.5134 -59.651 -57.352)" gradientUnits="userSpaceOnUse"><stop offset="0" style="stop-color:#fff"/><stop offset=".3" style="stop-color:#fcfcfc"/><stop offset=".553" style="stop-color:#f1f3f4"/><stop offset=".787" style="stop-color:#e0e4e6"/><stop offset="1" style="stop-color:#c9d0d4"/></radialGradient><path d="M32 36c-6.42 0-13.747 13.783-10.24 19.481C23.79 58.78 29.918 56.88 32 56.88s8.21 1.9 10.24-1.398C45.746 49.783 38.42 36 32 36z" style="fill:url(#f)"/><path d="M32 54.698c-.41 0 0 2.907 0 2.907s.411-2.907 0-2.907z" style="fill:#2d2d30"/><radialGradient id="g" cx="31.889" cy="50.717" r="8.648" gradientTransform="matrix(1 0 0 .5187 0 24.409)" gradientUnits="userSpaceOnUse"><stop offset="0" style="stop-color:#525259"/><stop offset=".297" style="stop-color:#4c4c53"/><stop offset=".698" style="stop-color:#3d3d42"/><stop offset="1" style="stop-color:#2d2d30"/></radialGradient><path d="M23.725 49.728c0 2.492 4.113 5.549 8.276 5.549 4.16 0 8.275-3.057 8.275-5.549 0-1.257-4.138.102-8.276.102-4.137 0-8.275-1.358-8.275-.102z" style="fill:url(#g)"/><path d="M37.504 52.016c.674-2.106-4.7.861-3.955 2.189 1.964-1.427 3.652-1.241 3.955-2.189zm-11.009 0c-.671-2.106 4.701.861 3.955 2.189-1.96-1.427-3.65-1.241-3.955-2.189z" style="fill:#2d2d30"/><radialGradient id="h" cx="47.085" cy="35.919" r="9.857" gradientTransform="matrix(1 0 0 1.1 0 -3.592)" gradientUnits="userSpaceOnUse"><stop offset=".55" style="stop-color:#525259"/><stop offset=".659" style="stop-color:#4c4c53"/><stop offset=".806" style="stop-color:#3d3d42"/><stop offset=".916" style="stop-color:#2d2d30"/></radialGradient><path d="M50.97 27.871c2.177 1.926 2.537 4.207 4.063 6.097 6.521 8.081-6.732 16.868-13.938 8.7C31 31.22 43.938 21.648 50.97 27.871z" style="fill:url(#h)"/><radialGradient id="i" cx="16.915" cy="35.919" r="9.857" gradientTransform="matrix(1 0 0 1.1 0 -3.592)" gradientUnits="userSpaceOnUse"><stop offset=".55" style="stop-color:#525259"/><stop offset=".659" style="stop-color:#4c4c53"/><stop offset=".806" style="stop-color:#3d3d42"/><stop offset=".916" style="stop-color:#2d2d30"/></radialGradient><path d="M13.03 27.871c-2.177 1.926-2.537 4.207-4.063 6.097-6.522 8.081 6.732 16.868 13.937 8.7C33 31.22 20.061 21.648 13.03 27.871z" style="fill:url(#i)"/><path d="M45.96 28.968c-4.94.042-6.872 4.493-6.48 7.7.292 2.386 12.76 1.014 12.914-.359.387-3.47-1.887-7.38-6.434-7.34z" style="fill:#1a1626"/><path d="M45.863 30.014c-3.525 0-6.379 2.772-6.379 6.188 0 2.953 2.35 6.19 6.38 6.19 4.028 0 5.864-3.774 5.864-6.19 0-3.416-2.339-6.188-5.865-6.188z" style="fill:#d8edff"/><path d="M44.778 31.251c2.402 0 4.347 2.191 4.347 4.89 0 2.7-1.945 4.89-4.347 4.89-2.404 0-4.348-2.19-4.348-4.89 0-2.699 1.944-4.89 4.348-4.89z" style="fill:#1a1626"/><path d="M45.014 33.645c0 1.79-2.751 1.79-2.751 0 0-1.793 2.75-1.793 2.75 0z" style="fill:#fff"/><path d="M18.04 28.968c4.94.042 6.873 4.493 6.48 7.7-.292 2.386-12.76 1.014-12.914-.359-.387-3.47 1.887-7.38 6.434-7.34z" style="fill:#1a1626"/><path d="M18.137 30.014c3.525 0 6.379 2.772 6.379 6.188 0 2.953-2.35 6.19-6.38 6.19-4.028 0-5.863-3.774-5.863-6.19 0-3.416 2.338-6.188 5.864-6.188z" style="fill:#d8edff"/><path d="M19.223 31.251c-2.403 0-4.347 2.191-4.347 4.89 0 2.7 1.944 4.89 4.346 4.89 2.404 0 4.349-2.19 4.349-4.89 0-2.699-1.945-4.89-4.349-4.89z" style="fill:#1a1626"/><path d="M18.986 33.645c0 1.79 2.751 1.79 2.751 0 0-1.793-2.75-1.793-2.75 0z" style="fill:#fff"/></svg>