<svg xmlns="http://www.w3.org/2000/svg" xml:space="preserve" style="enable-background:new 0 0 64 64" viewBox="0 0 64 64"><linearGradient id="a" x1="47.897" x2="47.897" y1="26" y2="2" gradientUnits="userSpaceOnUse"><stop offset=".327" style="stop-color:#ed9a1f"/><stop offset=".449" style="stop-color:#ed9b22"/><stop offset=".55" style="stop-color:#ec9f2c"/><stop offset=".643" style="stop-color:#eaa53e"/><stop offset=".732" style="stop-color:#e8ad56"/><stop offset=".817" style="stop-color:#e6b875"/><stop offset=".9" style="stop-color:#e3c69c"/><stop offset=".98" style="stop-color:#dfd6c8"/><stop offset="1" style="stop-color:#dedad5"/></linearGradient><path d="M47.926 25.837c-6.431 1.545-13.483-8.3-7.976-11.919C45.457 10.298 44.288 2 48.859 2c12.622 0 11.56 20.834-.933 23.837z" style="fill:url(#a)"/><linearGradient id="b" x1="45.96" x2="57.284" y1="14.483" y2="11.627" gradientUnits="userSpaceOnUse"><stop offset="0" style="stop-color:#c98796"/><stop offset=".292" style="stop-color:#cb9da6"/><stop offset=".743" style="stop-color:#cebbbc"/><stop offset="1" style="stop-color:#cfc6c4"/></linearGradient><path d="M47.564 17.586c-.709 5.524-4.103 9.822 1.073 7.704 12.131-4.963 11.327-23.075.457-23.075-5.593 0-.82 9.845-1.53 15.37z" style="fill:url(#b)"/><linearGradient id="c" x1="-1029.732" x2="-1029.732" y1="26" y2="2" gradientTransform="matrix(-1 0 0 1 -1013.629 0)" gradientUnits="userSpaceOnUse"><stop offset=".327" style="stop-color:#ed9a1f"/><stop offset=".449" style="stop-color:#ed9b22"/><stop offset=".55" style="stop-color:#ec9f2c"/><stop offset=".643" style="stop-color:#eaa53e"/><stop offset=".732" style="stop-color:#e8ad56"/><stop offset=".817" style="stop-color:#e6b875"/><stop offset=".9" style="stop-color:#e3c69c"/><stop offset=".98" style="stop-color:#dfd6c8"/><stop offset="1" style="stop-color:#dedad5"/></linearGradient><path d="M16.074 25.837c6.431 1.545 13.483-8.3 7.976-11.919C18.544 10.298 19.712 2 15.141 2c-12.622 0-11.56 20.834.933 23.837z" style="fill:url(#c)"/><linearGradient id="d" x1="-1031.669" x2="-1020.345" y1="14.483" y2="11.627" gradientTransform="matrix(-1 0 0 1 -1013.629 0)" gradientUnits="userSpaceOnUse"><stop offset="0" style="stop-color:#c98796"/><stop offset=".292" style="stop-color:#cb9da6"/><stop offset=".743" style="stop-color:#cebbbc"/><stop offset="1" style="stop-color:#cfc6c4"/></linearGradient><path d="M16.436 17.586c.709 5.524 4.103 9.822-1.073 7.704C3.232 20.327 4.036 2.215 14.906 2.215c5.594 0 .82 9.845 1.53 15.37z" style="fill:url(#d)"/><linearGradient id="e" x1="32" x2="32" y1="51.383" y2="9.722" gradientUnits="userSpaceOnUse"><stop offset="0" style="stop-color:#ffdaa3"/><stop offset=".161" style="stop-color:#fbcc86"/><stop offset=".501" style="stop-color:#f4b14f"/><stop offset=".754" style="stop-color:#efa02c"/><stop offset=".891" style="stop-color:#ed9a1f"/></linearGradient><path d="M54.631 30.525c-1.107-2.529-1.627-20.803-22.63-20.803S10.476 27.996 9.368 30.525C8.486 32.54 5 35.631 5 41.755c0 0 5.029 9.628 27.001 9.628 21.97 0 26.999-9.629 26.999-9.629 0-6.123-3.484-9.214-4.369-11.229z" style="fill:url(#e)"/><radialGradient id="f" cx="32" cy="25.415" r="27.991" gradientTransform="matrix(1 0 0 .6327 0 24.782)" gradientUnits="userSpaceOnUse"><stop offset="0" style="stop-color:#fff2d6"/><stop offset=".448" style="stop-color:#fef1d4"/><stop offset=".637" style="stop-color:#fbeccd"/><stop offset=".777" style="stop-color:#f6e4c0"/><stop offset=".892" style="stop-color:#eed9af"/><stop offset=".992" style="stop-color:#e4ca98"/><stop offset="1" style="stop-color:#e3c996"/></radialGradient><path d="M41.309 45.17c-6.258-4.282-4.885-9.85-9.308-9.85s-3.05 5.568-9.31 9.85C19.17 47.58 9.095 46.406 5 41.755c0 12.054 10.259 12.32 15.387 14.482 2.54 1.073 6.164 3.486 11.614 3.486 5.449 0 9.073-2.414 11.612-3.486C48.74 54.074 59 53.808 59 41.755c-4.094 4.65-14.169 5.825-17.691 3.416z" style="fill:url(#f)"/><path d="M32 52.96c.615 0 .227 5.577 0 5.577s-.614-5.577 0-5.577z" style="fill:#917762"/><path d="M40.181 51.22c9.164 2.007 15.091 10.108 15.05 10.776-.012.216-4.87-7.886-15.05-10.775z" style="fill:#dbcebf"/><path d="M40.031 50.39c9.993.277 17.579 7.628 17.646 8.34.022.232-6.436-7.335-17.646-8.34z" style="fill:#dbcebf"/><path d="M41.178 49.81c9.497-.673 17.646 3.828 17.822 4.53.057.228-7.124-4.576-17.822-4.53zM23.82 51.22C14.654 53.228 8.727 61.329 8.768 61.997c.012.216 4.87-7.886 15.05-10.775z" style="fill:#dbcebf"/><path d="M23.969 50.39c-9.993.277-17.579 7.628-17.646 8.34-.022.232 6.436-7.335 17.646-8.34z" style="fill:#dbcebf"/><path d="M22.822 49.81C13.326 49.138 5.176 53.639 5 54.34c-.057.228 7.124-4.576 17.822-4.53z" style="fill:#dbcebf"/><path d="M43.255 30.89c-4.206.038-5.85 4.191-5.516 7.183.248 2.226 10.863.946 10.993-.335.33-3.236-1.606-6.885-5.477-6.849z" style="fill:#d48a1b"/><path d="M43.173 31.865c-3.001 0-5.43 2.587-5.43 5.774 0 2.754 2 5.775 5.43 5.775 3.43 0 4.992-3.521 4.992-5.776 0-3.186-1.99-5.773-4.992-5.773z" style="fill:#fff5d6"/><path d="M42.249 33.02c2.045 0 3.7 2.044 3.7 4.562 0 2.519-1.655 4.56-3.7 4.56-2.046 0-3.702-2.041-3.702-4.56 0-2.518 1.656-4.563 3.702-4.563z" style="fill:#1a1626"/><path d="M42.45 35.252c0 1.67-2.342 1.67-2.342 0 0-1.672 2.342-1.672 2.342 0z" style="fill:#fff"/><path d="M20.745 30.89c4.206.038 5.85 4.191 5.517 7.183-.25 2.226-10.864.946-10.994-.335-.33-3.236 1.606-6.885 5.477-6.849z" style="fill:#d48a1b"/><path d="M20.827 31.865c3.001 0 5.431 2.587 5.431 5.774 0 2.754-2.001 5.775-5.43 5.775-3.43 0-4.993-3.521-4.993-5.776 0-3.186 1.99-5.773 4.992-5.773z" style="fill:#fff5d6"/><path d="M21.751 33.02c-2.045 0-3.7 2.044-3.7 4.562 0 2.519 1.655 4.56 3.7 4.56 2.046 0 3.702-2.041 3.702-4.56 0-2.518-1.655-4.563-3.702-4.563z" style="fill:#1a1626"/><path d="M21.55 35.252c0 1.67 2.342 1.67 2.342 0 0-1.672-2.342-1.672-2.342 0z" style="fill:#fff"/><path d="M36.901 56.317c-1.317 1.368-3.321.65-4.9.651-1.579 0-3.584.717-4.902-.651-.306-.318-.3-.055-.056.263 1.315 1.717 2.925 1.957 4.958 1.957 2.032 0 3.643-.24 4.957-1.957.243-.318.25-.58-.057-.263z" style="fill:#917762"/><radialGradient id="g" cx="236.238" cy="347.567" r="11.373" fx="236.237" fy="344.538" gradientTransform="matrix(.6771 0 0 .2978 -127.957 -52.444)" gradientUnits="userSpaceOnUse"><stop offset="0" style="stop-color:#ffadc0"/><stop offset=".362" style="stop-color:#ffa7bb"/><stop offset=".853" style="stop-color:#ff96ad"/><stop offset="1" style="stop-color:#ff8fa8"/></radialGradient><path d="M32 47.689c-3.397 0-6.154.551-6.154 3.408 0 2.272 4.899 4.286 6.155 4.286 1.257 0 6.153-2.014 6.153-4.286 0-2.857-2.754-3.408-6.154-3.408z" style="fill:url(#g)"/><path d="M36.742 51.663c.58-2.403-4.048.983-3.407 2.497 1.692-1.627 3.147-1.416 3.407-2.497zm-9.484 0c-.579-2.403 4.05.983 3.407 2.497-1.69-1.627-3.145-1.416-3.407-2.497z" style="opacity:.5;fill:#ff8fa8"/></svg>