<svg xmlns="http://www.w3.org/2000/svg" xml:space="preserve" style="enable-background:new 0 0 64 64" viewBox="0 0 64 64"><radialGradient id="a" cx="31.291" cy="53.491" r="30.547" fx="31.397" fy="30.139" gradientTransform="matrix(.9837 0 0 .756 1.276 -6.717)" gradientUnits="userSpaceOnUse"><stop offset="0" style="stop-color:#ff8f8f"/><stop offset=".307" style="stop-color:#fb8b8b"/><stop offset=".629" style="stop-color:#ef7e7e"/><stop offset=".957" style="stop-color:#dc6969"/><stop offset="1" style="stop-color:#d96666"/></radialGradient><path d="M31.996 10C15.162 10 1.985 30.576 4.256 42.27c2.951 15.224 22.248 11.267 27.74 11.267 5.501 0 24.798 3.957 27.75-11.267C62.013 30.576 48.841 10 31.995 10z" style="fill:url(#a)"/><radialGradient id="b" cx="35.846" cy="51.359" r="15.06" gradientTransform="matrix(.9647 .1903 -.1364 .6758 8.965 -9.88)" gradientUnits="userSpaceOnUse"><stop offset=".259" style="stop-color:#591f1f"/><stop offset=".354" style="stop-color:#602323"/><stop offset=".492" style="stop-color:#742d2d"/><stop offset=".657" style="stop-color:#943d3d"/><stop offset=".842" style="stop-color:#c05454"/><stop offset=".959" style="stop-color:#e06565"/></radialGradient><path d="M51.526 32.316c-3.462-13.535-17.904-9.09-15.291 1.858 1.963 8.243 17.77 7.862 15.29-1.858z" style="fill:url(#b)"/><radialGradient id="c" cx="113.143" cy="51.359" r="15.06" gradientTransform="matrix(-.9647 .1903 .1364 .6758 129.6 -24.59)" gradientUnits="userSpaceOnUse"><stop offset=".259" style="stop-color:#591f1f"/><stop offset=".354" style="stop-color:#602323"/><stop offset=".492" style="stop-color:#742d2d"/><stop offset=".657" style="stop-color:#943d3d"/><stop offset=".842" style="stop-color:#c05454"/><stop offset=".959" style="stop-color:#e06565"/></radialGradient><path d="M12.474 32.316c3.462-13.535 17.904-9.09 15.291 1.858-1.963 8.243-17.77 7.862-15.29-1.858z" style="fill:url(#c)"/></svg>