<svg xmlns="http://www.w3.org/2000/svg" xml:space="preserve" style="enable-background:new 0 0 64 64" viewBox="0 0 64 64"><path d="M57.35 32.598 38.277 13.325S52.365-.565 58.11 2.421c2.797 1.452 1.778 26.244-.76 30.177z" style="fill:#6e8189"/><radialGradient id="a" cx="51.67" cy="17.79" r="14.512" fx="50.008" fy="18.378" gradientTransform="matrix(.6828 .7063 -.8255 .8539 43.143 -34.05)" gradientUnits="userSpaceOnUse"><stop offset=".297" style="stop-color:#fff"/><stop offset=".45" style="stop-color:#fafbfb"/><stop offset=".63" style="stop-color:#eceeef"/><stop offset=".824" style="stop-color:#d4d9db"/><stop offset="1" style="stop-color:#b8c0c4"/></radialGradient><path d="M56.861 28.795c1.48-6.464 1.372-22.378-.271-24.124-6.386 2.587-10.678 6.82-13.393 10.449 5.39 3.564 9.403 8.78 13.664 13.675z" style="fill:url(#a)"/><path d="m6.65 32.598 19.073-19.273S11.635-.565 5.89 2.421c-2.797 1.452-1.778 26.244.76 30.177z" style="fill:#6e8189"/><radialGradient id="b" cx="1378.928" cy="17.79" r="14.512" fx="1377.266" fy="18.378" gradientTransform="matrix(-.6828 .7063 .8255 .8539 927.085 -971.53)" gradientUnits="userSpaceOnUse"><stop offset=".297" style="stop-color:#fff"/><stop offset=".45" style="stop-color:#fafbfb"/><stop offset=".63" style="stop-color:#eceeef"/><stop offset=".824" style="stop-color:#d4d9db"/><stop offset="1" style="stop-color:#b8c0c4"/></radialGradient><path d="M7.139 28.795c-1.48-6.464-1.373-22.378.271-24.124 6.387 2.587 10.678 6.82 13.393 10.449-5.39 3.564-9.403 8.78-13.664 13.675z" style="fill:url(#b)"/><path d="M27.898 19.152c-5.533-4.655-12.404-3.843-15.816-3.023-1.542.369-1.772.71-.652 1.477 1.64 1.131 3.418 2.976 4.89 5.777 1.835 3.475 13.946-2.235 11.578-4.231z" style="fill:#6e8189"/><path d="M25.443 19.611c-6.457-3.13-12.931-.61-16.047 1.039-1.406.747-1.554 1.135-.287 1.599 1.856.683 4.01 2.028 6.093 4.372 2.595 2.913 13.004-5.671 10.241-7.01zm10.659-.459c5.533-4.655 12.406-3.843 15.816-3.023 1.542.369 1.772.71.654 1.476-1.642 1.132-3.419 2.977-4.892 5.778-1.835 3.475-13.946-2.235-11.578-4.231z" style="fill:#6e8189"/><path d="M38.559 19.611c6.455-3.13 12.931-.61 16.047 1.039 1.406.747 1.552 1.135.287 1.599-1.858.683-4.011 2.028-6.093 4.372-2.597 2.913-13.006-5.671-10.241-7.01z" style="fill:#6e8189"/><linearGradient id="c" x1="32" x2="32" y1="58.283" y2="10.968" gradientUnits="userSpaceOnUse"><stop offset="0" style="stop-color:#5a6a70"/><stop offset=".343" style="stop-color:#65767d"/><stop offset=".758" style="stop-color:#6e8189"/></linearGradient><path d="M62 46.718s-.589-1.989-1.312-3.085c0 0 .54-.305 1.04-1.004-1.177-.691-3.635-16.115-9.453-22.323-4.45-4.749-10.917-9.338-20.275-9.338s-15.826 4.59-20.275 9.338c-5.818 6.208-8.276 21.632-9.452 22.323.498.7 1.04 1.004 1.04 1.004C2.588 44.729 2 46.718 2 46.718c.893.477 2.47.574 2.47.574s-.835 1.205-1.059 2.496C7.691 50.85 14.853 58.283 32 58.283s24.308-7.433 28.589-8.495c-.224-1.291-1.058-2.495-1.058-2.495s1.576-.098 2.469-.575z" style="fill:url(#c)"/><linearGradient id="d" x1="31.988" x2="31.988" y1="62" y2="20.532" gradientUnits="userSpaceOnUse"><stop offset=".158" style="stop-color:#cfd8dd"/><stop offset=".213" style="stop-color:#d1dadf"/><stop offset=".648" style="stop-color:#e1e7eb"/><stop offset="1" style="stop-color:#e6ebef"/></linearGradient><path d="M39.046 50.046c0 2.63-14.116 2.63-14.116 0 11.256-30.26-19.285-26.678-19.285-4.695 0 3.638 10.99 9.002 10.99 9.002S22.869 62 31.988 62c9.121 0 15.353-7.647 15.353-7.647s10.991-5.364 10.991-9.002c.002-21.982-30.542-25.566-19.286 4.695z" style="fill:url(#d)"/><path d="M32 53.228c-.218 0-.209 3.685 0 3.686.21 0 .219-3.686 0-3.686z" style="fill:#2d2d30"/><path d="M39.929 55.658c-2.132 2.289-5.373 1.09-7.928 1.09-2.554 0-5.797 1.199-7.93-1.09-.494-.532-.935.328-.518.86 2.24 2.874 5.16 1.437 8.448 1.437 3.288 0 6.209 1.436 8.447-1.437.414-.532-.024-1.392-.52-.86z" style="fill:#2d2d30"/><path d="M40.17 50.568c9.164 2.128 15.09 10.72 15.05 11.428-.013.23-4.87-8.363-15.05-11.428z" style="fill:#cfc6bc"/><path d="M40.02 49.688c9.992.293 17.578 8.09 17.645 8.845.023.245-6.435-7.78-17.645-8.845z" style="fill:#cfc6bc"/><path d="M41.167 49.073c9.496-.715 17.645 4.059 17.82 4.803.058.242-7.123-4.853-17.82-4.803zm-17.36 1.495c-9.164 2.128-15.09 10.72-15.05 11.428.013.23 4.87-8.363 15.05-11.428z" style="fill:#cfc6bc"/><path d="M23.957 49.688c-9.993.293-17.578 8.09-17.646 8.845-.022.245 6.436-7.78 17.646-8.845z" style="fill:#cfc6bc"/><path d="M22.81 49.073c-9.496-.715-17.645 4.059-17.821 4.803-.058.242 7.124-4.853 17.821-4.803z" style="fill:#cfc6bc"/><radialGradient id="e" cx="59.979" cy="169.921" r="8.44" fx="59.979" fy="167.673" gradientTransform="matrix(1.0639 0 0 .3834 -31.812 -14.466)" gradientUnits="userSpaceOnUse"><stop offset="0" style="stop-color:#4b4b52"/><stop offset=".335" style="stop-color:#46464c"/><stop offset=".787" style="stop-color:#36363b"/><stop offset="1" style="stop-color:#2d2d30"/></radialGradient><path d="M32 47.468c-3.961 0-7.176.527-7.176 3.258 0 2.17 5.712 4.095 7.176 4.095 1.467 0 7.176-1.925 7.176-4.095 0-2.73-3.211-3.258-7.176-3.258z" style="fill:url(#e)"/><path d="M37.53 51.266c.677-2.296-4.72.939-3.974 2.386 1.974-1.555 3.67-1.353 3.974-2.386zm-11.06 0c-.675-2.296 4.723.939 3.974 2.386-1.97-1.555-3.668-1.353-3.974-2.386z" style="opacity:.5;fill:#2d2d30"/><path d="M44.945 31.519c-4.94.042-6.872 4.493-6.48 7.7.292 2.386 12.76 1.014 12.914-.359.388-3.47-1.887-7.38-6.434-7.341z" style="fill:#9ba8b0"/><path d="M44.849 32.565c-3.525 0-6.38 2.772-6.38 6.188 0 2.953 2.351 6.19 6.38 6.19s5.864-3.774 5.864-6.19c0-3.416-2.339-6.188-5.864-6.188z" style="fill:#fff7ed"/><path d="M43.763 33.802c2.403 0 4.347 2.191 4.347 4.89 0 2.7-1.944 4.889-4.347 4.889-2.403 0-4.348-2.189-4.348-4.89 0-2.698 1.945-4.89 4.348-4.89z" style="fill:#1a1626"/><path d="M44 36.195c0 1.79-2.752 1.79-2.752 0 0-1.792 2.751-1.792 2.751 0z" style="fill:#fff"/><path d="M19.031 31.519c4.94.042 6.873 4.493 6.48 7.7-.292 2.386-12.76 1.014-12.914-.359-.387-3.47 1.887-7.38 6.434-7.341z" style="fill:#9ba8b0"/><path d="M19.128 32.565c3.525 0 6.38 2.772 6.38 6.188a6.254 6.254 0 0 1-6.38 6.19c-4.029 0-5.864-3.774-5.864-6.19 0-3.416 2.338-6.188 5.864-6.188z" style="fill:#fff7ed"/><path d="M20.214 33.802c-2.403 0-4.347 2.191-4.347 4.89 0 2.7 1.944 4.889 4.347 4.889 2.403 0 4.348-2.189 4.348-4.89 0-2.698-1.945-4.89-4.348-4.89z" style="fill:#1a1626"/><path d="M19.977 36.195c0 1.79 2.751 1.79 2.751 0 0-1.792-2.75-1.792-2.75 0z" style="fill:#fff"/></svg>