<svg xmlns="http://www.w3.org/2000/svg" xml:space="preserve" style="enable-background:new 0 0 64 64" viewBox="0 0 64 64"><radialGradient id="a" cx="29.176" cy="17.204" r="29.747" fx="29.292" fy="-8.884" gradientTransform="matrix(.9414 0 0 .9274 4.421 19.73)" gradientUnits="userSpaceOnUse"><stop offset="0" style="stop-color:#ffccbf"/><stop offset=".45" style="stop-color:#ffcabd"/><stop offset=".673" style="stop-color:#ffc2b7"/><stop offset=".844" style="stop-color:#ffb5ad"/><stop offset=".99" style="stop-color:#ffa39f"/><stop offset="1" style="stop-color:#ffa19e"/></radialGradient><path d="M47.572 12.213C43.317 9.764 37.003 8.223 32 8.223c-5.002 0-11.315 1.541-15.57 3.99-6.08 3.5-13.791 22.243-12.176 33.017 1.709 11.422 16.232 12.785 17.278 13.658C22.98 60.098 28.825 62 32 62c2.7 0 9.02-1.903 10.473-3.121 1.025-.859 15.556-2.255 17.272-13.65 1.628-10.761-6.096-29.52-12.172-33.016z" style="fill:url(#a)"/><linearGradient id="b" x1="45.544" x2="62.575" y1="17.492" y2="4.898" gradientUnits="userSpaceOnUse"><stop offset="0" style="stop-color:#ffccbf"/><stop offset=".323" style="stop-color:#ffc2b8"/><stop offset=".862" style="stop-color:#ffa9a4"/><stop offset="1" style="stop-color:#ffa19e"/></linearGradient><path d="M40.345 9.775c1.901-4.174 7.04-7.048 13.519-7.27 2.436-.085 12.07-2.523 6.349 4.128-4.621 5.372-1.26 14.777-5.428 17.112-.783.438-3.749-6.282-9.582-10.088-1.702.334-5.473-2.534-4.858-3.882z" style="fill:url(#b)"/><linearGradient id="c" x1="50.891" x2="60.075" y1="7.351" y2="16.585" gradientUnits="userSpaceOnUse"><stop offset="0" style="stop-color:#d96666"/><stop offset=".197" style="stop-color:#dd6d6d"/><stop offset=".492" style="stop-color:#e7827f"/><stop offset=".847" style="stop-color:#f7a39e"/><stop offset="1" style="stop-color:#ffb4ad"/></linearGradient><path d="M53.136 5.643c2.33-1.388 10.35-4.003 6.94.018-5.536 6.528-1.014 15.003-5.291 18.084-1.377.992-5.038-5.13-9.582-10.088 3.194-.772 4.685-6.085 7.933-8.014z" style="fill:url(#c)"/><linearGradient id="d" x1="111.759" x2="128.79" y1="17.492" y2="4.898" gradientTransform="matrix(-1 0 0 1 130.215 0)" gradientUnits="userSpaceOnUse"><stop offset="0" style="stop-color:#ffccbf"/><stop offset=".323" style="stop-color:#ffc2b8"/><stop offset=".862" style="stop-color:#ffa9a4"/><stop offset="1" style="stop-color:#ffa19e"/></linearGradient><path d="M23.655 9.775c-1.901-4.174-7.04-7.048-13.519-7.27C7.7 2.42-1.934-.018 3.787 6.633c4.621 5.372 1.26 14.777 5.428 17.112.783.438 3.749-6.282 9.582-10.088 1.702.334 5.473-2.534 4.858-3.882z" style="fill:url(#d)"/><linearGradient id="e" x1="117.106" x2="126.29" y1="7.351" y2="16.585" gradientTransform="matrix(-1 0 0 1 130.215 0)" gradientUnits="userSpaceOnUse"><stop offset="0" style="stop-color:#d96666"/><stop offset=".197" style="stop-color:#dd6d6d"/><stop offset=".492" style="stop-color:#e7827f"/><stop offset=".847" style="stop-color:#f7a39e"/><stop offset="1" style="stop-color:#ffb4ad"/></linearGradient><path d="M10.864 5.643C8.534 4.255.513 1.64 3.924 5.66c5.536 6.528 1.014 15.003 5.291 18.084 1.377.992 5.038-5.13 9.582-10.088-3.194-.772-4.685-6.085-7.933-8.014z" style="fill:url(#e)"/><path d="M46.282 29.855c-4.784.04-6.655 4.351-6.275 7.457.283 2.31 12.357.981 12.505-.348.375-3.36-1.827-7.146-6.23-7.109z" style="fill:#ed8f8c"/><path d="M46.188 30.868c-3.413 0-6.177 2.684-6.177 5.992a6.055 6.055 0 0 0 6.177 5.995c3.902 0 5.68-3.655 5.68-5.995 0-3.308-2.266-5.992-5.68-5.992z" style="fill:#ffeded"/><path d="M45.137 32.066c2.327 0 4.21 2.122 4.21 4.735 0 2.615-1.883 4.734-4.21 4.734s-4.21-2.12-4.21-4.734c0-2.613 1.883-4.735 4.21-4.735z" style="fill:#1a1626"/><path d="M45.366 34.383c0 1.734-2.664 1.734-2.664 0 0-1.735 2.664-1.735 2.664 0z" style="fill:#fff"/><path d="M17.718 29.855c4.784.04 6.655 4.351 6.275 7.457-.282 2.31-12.356.981-12.505-.348-.375-3.36 1.828-7.146 6.23-7.109z" style="fill:#ed8f8c"/><path d="M17.812 30.868c3.414 0 6.177 2.684 6.177 5.992a6.055 6.055 0 0 1-6.177 5.995c-3.901 0-5.679-3.655-5.679-5.995 0-3.308 2.265-5.992 5.68-5.992z" style="fill:#ffeded"/><path d="M18.863 32.066c-2.326 0-4.209 2.122-4.209 4.735 0 2.615 1.883 4.734 4.21 4.734s4.21-2.12 4.21-4.734c0-2.613-1.883-4.735-4.21-4.735z" style="fill:#1a1626"/><path d="M18.635 34.383c0 1.734 2.664 1.734 2.664 0 0-1.735-2.664-1.735-2.664 0z" style="fill:#fff"/><path d="M26.3 56.161h11.4c0 .535-2.193 3.36-5.7 3.36-3.512 0-5.7-2.825-5.7-3.36z" style="fill:#1a1626"/><linearGradient id="f" x1="32.001" x2="32.001" y1="58.534" y2="56.016" gradientUnits="userSpaceOnUse"><stop offset=".271" style="stop-color:#ed7196"/><stop offset=".402" style="stop-color:#ea7094;stop-opacity:.8389"/><stop offset=".508" style="stop-color:#e06c8f;stop-opacity:.7071"/><stop offset=".607" style="stop-color:#ce6686;stop-opacity:.5856"/><stop offset=".7" style="stop-color:#b65e79;stop-opacity:.4702"/><stop offset=".79" style="stop-color:#975368;stop-opacity:.3591"/><stop offset=".877" style="stop-color:#714554;stop-opacity:.2514"/><stop offset=".961" style="stop-color:#44353c;stop-opacity:.1482"/><stop offset="1" style="stop-color:#2d2d30;stop-opacity:.1"/></linearGradient><path d="M28.983 56.53h6.037c0 .319-.888 2.004-3.018 2.004-2.133 0-3.02-1.685-3.02-2.003z" style="fill:url(#f)"/><radialGradient id="g" cx="31.159" cy="71.649" r="12.001" fx="31.2" fy="62.475" gradientTransform="matrix(.9837 0 0 .7435 1.371 -4.286)" gradientUnits="userSpaceOnUse"><stop offset="0" style="stop-color:#ff8f8f"/><stop offset=".307" style="stop-color:#fb8b8b"/><stop offset=".629" style="stop-color:#ef7e7e"/><stop offset=".957" style="stop-color:#dc6969"/><stop offset="1" style="stop-color:#d96666"/></radialGradient><path d="M31.999 39.822c-6.614 0-11.79 7.95-10.898 12.468 1.16 5.882 8.74 4.353 10.898 4.353 2.16 0 9.742 1.53 10.901-4.353.89-4.518-4.283-12.468-10.901-12.468z" style="fill:url(#g)"/><radialGradient id="h" cx="32.948" cy="70.812" r="5.916" gradientTransform="matrix(.9647 .1872 -.1364 .6646 11.66 -5.043)" gradientUnits="userSpaceOnUse"><stop offset=".259" style="stop-color:#591f1f"/><stop offset=".354" style="stop-color:#602323"/><stop offset=".492" style="stop-color:#742d2d"/><stop offset=".657" style="stop-color:#943d3d"/><stop offset=".842" style="stop-color:#c05454"/><stop offset=".959" style="stop-color:#e06565"/></radialGradient><path d="M39.671 48.444c-1.36-5.23-7.034-3.512-6.007.718.771 3.185 6.981 3.038 6.007-.718z" style="fill:url(#h)"/><radialGradient id="i" cx="110.244" cy="70.812" r="5.916" gradientTransform="matrix(-.9647 .1872 .1364 .6646 126.906 -19.51)" gradientUnits="userSpaceOnUse"><stop offset=".259" style="stop-color:#591f1f"/><stop offset=".354" style="stop-color:#602323"/><stop offset=".492" style="stop-color:#742d2d"/><stop offset=".657" style="stop-color:#943d3d"/><stop offset=".842" style="stop-color:#c05454"/><stop offset=".959" style="stop-color:#e06565"/></radialGradient><path d="M24.33 48.444c1.36-5.23 7.033-3.512 6.007.718-.771 3.185-6.982 3.038-6.008-.718z" style="fill:url(#i)"/></svg>