<svg xmlns="http://www.w3.org/2000/svg" xml:space="preserve" style="enable-background:new 0 0 64 64" viewBox="0 0 64 64"><linearGradient id="a" x1="2" x2="62" y1="32" y2="32" gradientUnits="userSpaceOnUse"><stop offset="0" style="stop-color:#d3d3e7;stop-opacity:.8"/><stop offset="1" style="stop-color:#d3d3e7"/></linearGradient><path d="M55.58 41.746c4.018-4.407 6.42-8.95 6.42-11.472C62 24.302 48.568 7 32 7 15.433 7 2 24.302 2 30.274s13.433 23.272 30 23.272c4.615 0 8.986-1.344 12.893-3.41 0 0 2.266 5.882 13.537 6.824 2.205.185 2.488-.26 1.255-1.72-4.645-5.502-4.105-13.494-4.105-13.494z" style="opacity:.7;fill:url(#a)"/><linearGradient id="b" x1="-62" x2="-62" y1="15.228" y2="61" gradientTransform="matrix(1 0 0 -1 94 70)" gradientUnits="userSpaceOnUse"><stop offset=".271" style="stop-color:#1f1f28"/><stop offset="1" style="stop-color:#545477"/></linearGradient><path d="M56.863 54.772c-8.265-1.185-10.087-5.311-10.104-5.355l-.81-2.103-1.991 1.054c-3.987 2.108-8.01 3.178-11.958 3.178-15.085 0-28-16.215-28-21.272C4 25.216 16.915 9 32 9s28 16.216 28 21.274c0 1.815-2.026 5.877-5.898 10.124l-.47.517-.047.696c-.022.325-.445 7.345 3.278 13.161z" style="fill:url(#b)"/><linearGradient id="c" x1="17" x2="47" y1="30.293" y2="30.293" gradientUnits="userSpaceOnUse"><stop offset="0" style="stop-color:#eaf1f8"/><stop offset="1" style="stop-color:#fff"/></linearGradient><path d="M32 15.293c-8.284 0-15 6.716-15 15s6.716 15 15 15 15-6.715 15-15-6.716-15-15-15zm0 24a9 9 0 0 1 0-18 9 9 0 0 1 0 18z" style="fill:url(#c)"/></svg>