<svg xmlns="http://www.w3.org/2000/svg" xml:space="preserve" style="enable-background:new 0 0 64 64" viewBox="0 0 64 64"><radialGradient id="a" cx="289.399" cy="-330" r="25.894" gradientTransform="matrix(1.0667 0 0 -1 -276.697 -298)" gradientUnits="userSpaceOnUse"><stop offset="0" style="stop-color:#eff9ff"/><stop offset=".19" style="stop-color:#ebf5fb"/><stop offset=".387" style="stop-color:#dee9ef"/><stop offset=".587" style="stop-color:#cad5db"/><stop offset=".79" style="stop-color:#adb9bf"/><stop offset=".992" style="stop-color:#88969b"/><stop offset="1" style="stop-color:#869499"/></radialGradient><path d="M64 35.82C64 39.34 52.64 53 32 53S0 39.34 0 35.82C0 29.63 11.36 11 32 11s32 18.63 32 24.82z" style="fill:url(#a)"/><radialGradient id="b" cx="294.837" cy="-440.714" r="29.059" gradientTransform="matrix(.9955 0 0 -.7601 -261.52 -300.987)" gradientUnits="userSpaceOnUse"><stop offset=".758" style="stop-color:#fff"/><stop offset="1" style="stop-color:#c9d1d6"/></radialGradient><path d="M61.87 35.64C61.87 38.99 51.26 52 32 52S2.13 38.99 2.13 35.64c0-3.36 12.74-19.64 32-19.64 19.27 0 27.74 16.28 27.74 19.64z" style="fill:url(#b)"/><radialGradient id="c" cx="32" cy="34.007" r="15" gradientTransform="translate(0 .243)" gradientUnits="userSpaceOnUse"><stop offset=".533" style="stop-color:#996c4d"/><stop offset=".64" style="stop-color:#966a4b"/><stop offset=".723" style="stop-color:#8c6347"/><stop offset=".798" style="stop-color:#7c573e"/><stop offset=".867" style="stop-color:#654733"/><stop offset=".921" style="stop-color:#4d3627"/></radialGradient><circle cx="32" cy="34.25" r="15" style="fill-rule:evenodd;clip-rule:evenodd;fill:url(#c)"/><linearGradient id="d" x1="32" x2="32" y1="47.911" y2="20.589" gradientUnits="userSpaceOnUse"><stop offset=".067" style="stop-color:#f90"/><stop offset=".594" style="stop-color:#f90;stop-opacity:0"/></linearGradient><circle cx="32" cy="34.25" r="13.66" style="fill-rule:evenodd;clip-rule:evenodd;fill:url(#d)"/><circle cx="32" cy="34.25" r="6.96" style="fill-rule:evenodd;clip-rule:evenodd;fill:#1a1626"/><linearGradient id="e" x1="21.791" x2="32.505" y1="28.786" y2="28.786" gradientUnits="userSpaceOnUse"><stop offset=".049" style="stop-color:#fff"/><stop offset="1" style="stop-color:#fff;stop-opacity:0"/></linearGradient><path d="M32.5 28.79a5.36 5.36 0 1 1-10.72 0 5.36 5.36 0 0 1 10.72 0z" style="opacity:.4;fill-rule:evenodd;clip-rule:evenodd;fill:url(#e)"/></svg>