<svg xmlns="http://www.w3.org/2000/svg" xml:space="preserve" viewBox="0 0 64 64"><path fill="#B88A6F" d="M12.715 34.208C4.102 15.459 17.469 2 31.992 2c10.797 0 19.953 10.177 21.533 20.079 2.049 12.752-2.396 29.08-16.092 31.251-9.104 1.443-11.922 13.5-23.244 6.502-9.068-5.603 4.192-13.289-1.474-25.624z"/><radialGradient id="a" cx="39.847" cy="39.417" r="32.535" gradientTransform="matrix(1 0 0 1.2034 0 -7.805)" gradientUnits="userSpaceOnUse"><stop offset=".315" style="stop-color:#8c5f44;stop-opacity:0"/><stop offset=".867" style="stop-color:#70513d;stop-opacity:.9"/></radialGradient><path fill="url(#a)" d="M33.631 45.676s6.293-7.199 13.764-7.707C55 20.971 40.164 2.734 25.984 7.574c-12.418 4.237-13.551 21.235-9.166 23.005 4.939 1.992 7.902 7.033 2.188 10.949-4.051 2.777.828 11.98 4.232 7.949 3.465-4.106 5.908-5.346 10.393-3.801z"/><path fill="#70513D" d="M33.631 45.676s-1.883-2.824-6.012-2.385c-1.264.137 3.41-3.75-1.836-7.416-.715-7.992-7.078-7.681-6.219-9.837 1.191-2.961 8.285-1.9 11.822 4.363.053-11.037-14.998-6.828-12.232-12.582 6.424-13.347 32.854-5.904 28.24 20.15C55 20.971 40.164 2.734 25.984 7.574c-12.418 4.237-13.551 21.235-9.166 23.005 4.939 1.992 7.902 7.033 2.188 10.949-4.051 2.777.828 11.98 4.232 7.949 3.465-4.106 5.908-5.346 10.393-3.801z"/></svg>