<svg xmlns="http://www.w3.org/2000/svg" xml:space="preserve" viewBox="0 0 64 64"><radialGradient id="a" cx="2210.496" cy="46.378" r="10.159" gradientTransform="matrix(-1 0 0 1.01 2227.227 -2.002)" gradientUnits="userSpaceOnUse"><stop offset="0" style="stop-color:#b88a6f"/><stop offset=".309" style="stop-color:#af8166"/><stop offset=".812" style="stop-color:#976a4f"/><stop offset="1" style="stop-color:#8c5f44"/></radialGradient><path fill="url(#a)" d="M7 49.227c0 5.578 4.477 10.102 10 10.102 3.482 0 3.455-2.33 7.232-.412 4.934 2.506.174-18.648-5.232-19.789-7.434-1.569-12 4.522-12 10.099z"/><radialGradient id="b" cx="124.951" cy="46.378" r="10.159" gradientTransform="matrix(1 0 0 1.01 -77.682 -2.002)" gradientUnits="userSpaceOnUse"><stop offset="0" style="stop-color:#b88a6f"/><stop offset=".309" style="stop-color:#af8166"/><stop offset=".812" style="stop-color:#976a4f"/><stop offset="1" style="stop-color:#8c5f44"/></radialGradient><path fill="url(#b)" d="M57 49.227c0 5.578-4.477 10.102-10 10.102-3.482 0-3.455-2.33-7.232-.412-4.934 2.505-.176-18.649 5.232-19.79 7.434-1.568 12 4.523 12 10.1z"/><path fill="#8C5F44" d="M43.922 56.602C38.553 59.469 38.584 62 32.002 62c-6.584 0-6.551-2.531-11.922-5.398-10.068-5.375 33.904-5.372 23.842 0z"/><linearGradient id="c" x1="8.21" x2="7.294" y1="139.143" y2="142.255" gradientTransform="matrix(.9956 .0936 -.0777 .8265 23.311 -60.474)" gradientUnits="userSpaceOnUse"><stop offset="0" style="stop-color:#523a20"/><stop offset=".048" style="stop-color:#593e24"/><stop offset=".241" style="stop-color:#6f4d32"/><stop offset=".45" style="stop-color:#80573c"/><stop offset=".685" style="stop-color:#895d42"/><stop offset="1" style="stop-color:#8c5f44"/></linearGradient><path fill="url(#c)" d="M15.801 54.92c-1.768.611.502 4.361 4.525 2.646 2.371-1.012 4.684 1.814 4.152.68-1.207-2.59-4.689-4.701-8.677-3.326z"/><linearGradient id="d" x1="2145.001" x2="2144.086" y1="-102.846" y2="-99.734" gradientTransform="matrix(-.9956 .0936 .0777 .8265 2186.881 -60.474)" gradientUnits="userSpaceOnUse"><stop offset="0" style="stop-color:#523a20"/><stop offset=".048" style="stop-color:#593e24"/><stop offset=".241" style="stop-color:#6f4d32"/><stop offset=".45" style="stop-color:#80573c"/><stop offset=".685" style="stop-color:#895d42"/><stop offset="1" style="stop-color:#8c5f44"/></linearGradient><path fill="url(#d)" d="M48.199 54.92c1.768.611-.5 4.361-4.525 2.646-2.371-1.012-4.684 1.814-4.152.68 1.208-2.59 4.691-4.701 8.677-3.326z"/><radialGradient id="e" cx="-11.018" cy="32.264" r="11.83" gradientTransform="matrix(.9609 0 0 3.2359 42.67 -85.427)" gradientUnits="userSpaceOnUse"><stop offset="0" style="stop-color:#b88a6f"/><stop offset=".285" style="stop-color:#b3856a"/><stop offset=".63" style="stop-color:#a4775c"/><stop offset="1" style="stop-color:#8c5f44"/></radialGradient><path fill="url(#e)" d="M41.184 7.884c0-7.846-18.365-7.846-18.365 0 0 25.192-8.176 33.7-3.098 43.81 4.615 9.186 19.939 9.186 24.559 0 5.075-10.102-3.096-18.622-3.096-43.81z"/><radialGradient id="f" cx="-28.968" cy="18.468" r="14.207" gradientTransform="matrix(.9453 0 0 .8774 59.384 29.369)" gradientUnits="userSpaceOnUse"><stop offset="0" style="stop-color:#b88a6f;stop-opacity:.6"/><stop offset=".828" style="stop-color:#b88a6f;stop-opacity:.0016"/><stop offset=".83" style="stop-color:#b88a6f;stop-opacity:0"/></radialGradient><path fill="url(#f)" d="M45.43 45.572c0 6.885-6.014 12.465-13.43 12.465-7.42 0-13.428-5.58-13.428-12.465S24.58 33.107 32 33.107c7.416 0 13.43 5.581 13.43 12.465z"/></svg>