<svg xmlns="http://www.w3.org/2000/svg" xml:space="preserve" style="enable-background:new 0 0 64 64" viewBox="0 0 64 64"><radialGradient id="a" cx="-810.759" cy="-275.696" r="28.36" gradientTransform="matrix(0 -1.0322 1.0778 0 339.05 -801.556)" gradientUnits="userSpaceOnUse"><stop offset=".709" style="stop-color:#ffd8b4"/><stop offset="1" style="stop-color:#ffd8b4"/></radialGradient><path d="M24.04 12.88c-2.25.8-6.32 5.1-12.15 9.88-1.03.84-6.32.67-8.62.67-4.37 0-4.33 22.82-.05 22.55 9.17-.58 11.58.55 18.79 4.03 2.29 1.11 8.66 1.47 11.37 1.11 2.88-.39 4.49-3.76 3.44-6.53 0 0 3.64-2.13 1.6-6.33 2.37-.09 4.3-6.53.51-8.73 0 0 16.45.02 20.7.09 4.77.08 4.87-8.32 0-8.39-6.25-.09-21.42-.43-25.48-1.45-2.74-3.33-7.28-7.9-10.11-6.9z" style="fill:url(#a)"/><path d="M33.48 51.86c1.47-.2 2.74-1.05 3.56-2.4.83-1.37 1.07-3.04.66-4.56 1.3-1.01 2.79-3.17 1.73-6.16.95-.5 1.75-1.67 2.15-3.24.41-1.58.36-3.66-.75-5.22 4.46.01 15.45.03 18.78.09 1.53.03 2.81-.68 3.6-1.99 1.01-1.66 1.04-4.02.08-5.73-.78-1.37-2.07-2.14-3.65-2.16-4.8-.07-20.56-.37-25.07-1.37-2.66-3.19-7.43-8.12-10.78-6.94-1.57.56-3.73 2.47-6.72 5.13-1.66 1.47-3.54 3.14-5.66 4.88-.68.56-5.39.91-8.14 1.24 3.63.3 8.17.66 9.1-.1 2.14-1.76 4.04-3.44 5.71-4.92 2.75-2.44 4.93-4.38 6.22-4.83 1.8-.64 5.35 1.92 9.26 6.67l.16.19.24.06c4.33 1.09 20.73 1.4 25.66 1.47 1.31.02 2 .77 2.36 1.4.71 1.25.68 3.03-.05 4.25-.36.59-1.05 1.28-2.28 1.26-4.21-.07-20.55-.09-20.71-.09h-2.76l2.37 1.38c1.83 1.06 1.99 3.34 1.58 4.96-.38 1.47-1.18 2.37-1.73 2.39l-1.14.04.49 1.02c1.68 3.46-1 5.19-1.31 5.37l-.54.32.22.58c.47 1.25.34 2.69-.37 3.84-.58.96-1.46 1.56-2.47 1.7-2.58.35-8.83-.02-10.93-1.04-7.28-3.52-10.57-4.36-19.12-3.37 7.82.03 11.26 1.22 18.46 4.7 2.43 1.18 8.97 1.56 11.79 1.18z" style="fill:#cfa47c"/><path d="M34.65 20.65c-2.14-.44-4.01.62-6.6-1.56 3.07 1.27 3.64-.48 6.37-.05.36.06.58 1.68.23 1.61zm.98 16.69s1.62 1.28 3.25 1.39c.17.01.2-1.41.03-1.38-1.3.21-3.28-.01-3.28-.01zm-1.03 6.33s.61.95 1.68 1.27c.16.05.94-1.12.77-1.1-1.33.1-2.45-.17-2.45-.17z" style="fill:#cfa47c"/><path d="M57.32 22.7c.68-.11 2.08-.15 2.58-.15 2.38 0 2.37 5.68 0 5.68-.56 0-2.03-.01-2.72-.16-2.1-.46-2-5.01.14-5.37z" style="opacity:.3;fill:#fff"/></svg>