<svg xmlns="http://www.w3.org/2000/svg" xml:space="preserve" style="enable-background:new 0 0 64 64" viewBox="0 0 64 64"><linearGradient id="a" x1="44.42" x2="52.212" y1="56.91" y2="12.72" gradientUnits="userSpaceOnUse"><stop offset=".142" style="stop-color:#deb38a"/><stop offset=".173" style="stop-color:#e6bc94"/><stop offset=".248" style="stop-color:#f4cca6"/><stop offset=".327" style="stop-color:#fcd5b1"/><stop offset=".417" style="stop-color:#ffd8b4"/></linearGradient><path d="M33.82 46.56c-1.88.23-4.5 7.54.09 8.14 3.71.48 10.99 1.56 16.6 3.22 7.2 2.13 5.26-6.52 9.84-13.71 2.09-3.29.28-8.69-3.09-13.28-2.32-3.16 1.35-9.67-4.58-18.14L33.82 46.56z" style="fill:url(#a)"/><path d="M42.23 50.45c-.89-.52-6.68-1.58-7.56-1.16-2.79 1.31-2.37 4.73-.75 5.42 1.26.54 6.3 1.35 8.69.85 1.03-.22.2-4.76-.38-5.11z" style="opacity:.3;fill:#fff"/><path d="M52.5 59c-.66 0-1.39-.12-2.2-.36-5.56-1.64-12.71-2.71-16.48-3.2-2.05-.27-3.22-1.71-3.22-3.96.01-2.18 1.22-4.96 2.72-5.56L52.6 11.39l.69.98c3.78 5.4 3.8 10.08 3.81 13.5.01 2.01.01 3.6.76 4.62 3.14 4.27 5.61 10.23 3.12 14.13-1.6 2.51-2.38 5.21-3.06 7.6-.81 2.83-1.52 5.27-3.38 6.29-.6.33-1.27.49-2.04.49zm.23-44.76L34.29 47.26l-.38.05c-.49.06-1.8 2.02-1.81 4.19-.01 2.22 1.43 2.41 1.91 2.47 3.81.49 11.05 1.57 16.71 3.24 1.35.4 2.36.4 3.09-.01 1.32-.72 1.91-2.78 2.66-5.39.72-2.48 1.53-5.3 3.24-7.99 1.71-2.69.51-7.56-3.07-12.43-1.04-1.42-1.05-3.31-1.05-5.5 0-3.18-.02-7.07-2.86-11.65z" style="fill:#cfa47c"/><radialGradient id="b" cx="112.274" cy="27.971" r="14.315" gradientTransform="matrix(.8561 0 0 1.7792 -51.643 -29.698)" gradientUnits="userSpaceOnUse"><stop offset=".8" style="stop-color:#ffd8b4"/><stop offset=".894" style="stop-color:#eec59e"/><stop offset="1" style="stop-color:#deb38a"/></radialGradient><path d="M53.21 13.34C51.27 7.72 41.8 7.79 38.77 9.2c-1.31.5-3.73 34.01-1.17 37.81 1.89 2.69 10.45 3.31 12.76-1.35 3.59-7.26 4.78-26.73 2.85-32.32z" style="fill:url(#b)"/><radialGradient id="c" cx="96.885" cy="25.59" r="15.912" gradientTransform="matrix(.8561 0 0 1.7547 -51.643 -27.321)" gradientUnits="userSpaceOnUse"><stop offset=".8" style="stop-color:#ffd8b4"/><stop offset=".894" style="stop-color:#eec59e"/><stop offset="1" style="stop-color:#deb38a"/></radialGradient><path d="M38.77 9.2c-6.72-5.31-12.55-3.73-15.03-.38-2.49 11.91-.28 34.36 1.41 38.67 0 0 4.41 4.93 12.45-.48 1-11.44 2.95-29.95 1.17-37.81z" style="fill:url(#c)"/><radialGradient id="d" cx="82.72" cy="29.613" r="11.811" gradientTransform="matrix(.8561 0 0 1.9873 -51.643 -37.07)" gradientUnits="userSpaceOnUse"><stop offset=".8" style="stop-color:#ffd8b4"/><stop offset=".894" style="stop-color:#eec59e"/><stop offset="1" style="stop-color:#deb38a"/></radialGradient><path d="M23.73 8.82c-5.83-1.41-9.28 3.04-10.93 4.38-2.17.66-1.55 28.91 1.83 34.01 4.28 5.04 10.52.28 10.52.28s-2.07-27.77-1.42-38.67z" style="fill:url(#d)"/><radialGradient id="e" cx="71.691" cy="30.842" r="10.569" gradientTransform="matrix(.8561 0 0 1.9636 -51.643 -37.502)" gradientUnits="userSpaceOnUse"><stop offset=".8" style="stop-color:#ffd8b4"/><stop offset=".894" style="stop-color:#eec59e"/><stop offset="1" style="stop-color:#deb38a"/></radialGradient><path d="M12.8 13.2c-3.14 1.69-8.34 1.97-8.9 5.51-4.01 25.35 3.11 30.13 10.73 28.5-.22-6.9-2.03-28.1-1.83-34.01z" style="fill:url(#e)"/><path d="M30.49 50.28c-2.72 0-4.56-1.16-5.39-1.83-2.49 1.65-7.26 3.28-10.74-.41-3.36.61-6.12-.07-8.19-2.04-4.23-4.02-5.24-13.24-3-27.4.46-2.91 3.49-3.93 6.16-4.82 1.12-.38 2.18-.73 3.07-1.2.22-.19.48-.43.77-.7 1.83-1.72 5.2-4.89 10.29-3.89 1.34-1.59 3.26-2.61 5.46-2.9 2.23-.3 5.75.04 9.99 3.26 2.27-.83 7-1.14 10.66.41 2.21.93 3.72 2.44 4.38 4.34 2.04 5.92.73 25.58-2.9 32.9-1.08 2.18-3.51 3.57-6.66 3.82-2.81.22-5.51-.52-6.9-1.82-2.76 1.71-5.1 2.28-7 2.28zm-5.25-3.8.46.51c.16.18 4.11 4.35 11.47-.6l.61-.41.42.6c.83 1.17 3.48 1.94 6.04 1.74 2.61-.2 4.59-1.29 5.43-2.99 3.43-6.91 4.75-26.18 2.82-31.74-.52-1.51-1.72-2.68-3.54-3.45-3.38-1.43-8.03-1.11-9.88-.25l-.42.2-.35-.3c-3.98-3.14-7.2-3.48-9.21-3.22-1.97.26-3.66 1.22-4.76 2.7l-.3.4-.48-.12c-4.56-1.11-7.58 1.73-9.38 3.42-.34.32-.64.6-.9.81l-.12.08c-1.01.54-2.21.95-3.37 1.33-2.49.83-4.84 1.62-5.15 3.63C2.51 32.29 3.4 41.31 7.2 44.91c1.78 1.69 4.23 2.22 7.28 1.57l.44-.09.29.34c3.76 4.43 9.26.34 9.49.16l.54-.41z" style="fill:#cfa47c"/><path d="M13.69 47.43c-1.36-11.95-2.29-19.46.38-23.44-1.02 3.79-.61 11.07 1.32 22.99.07.41-1.66.85-1.7.45zm10.57.41c-1.65-14.23-1.71-23.56.89-27.04-.95 4.28-.68 15.75.82 26.59.05.42-1.66.86-1.71.45zm14-.42c1.46-15.7.15-21.66 1.46-26.04-3.4 4.47-.73 11.27-3.16 25.6-.07.41 1.66.85 1.7.44z" style="fill:#cfa47c"/><path d="M38.48 25.44c-.94-1.45-.6-3.67-.6-3.67s.3 1.02 1.12 2.1c.03.04-.49 1.61-.52 1.57zm-25.59 2.53c-.94-1.45-.71-3.09-.71-3.09s.29.85 1.12 1.57c.04.03-.38 1.56-.41 1.52zm11.24-3.19c-.94-1.45-.61-3.59-.61-3.59s.3 1.02 1.12 2.1c.03.04-.49 1.53-.51 1.49zm33.07 4.24c-.91 3.02-3.14 4.46-3.14 4.46s1.42-3 1.87-5.4l1.27.94zm-3.69 6.32c2.13.98 2.96 2.77 2.96 2.77s-2.06-1.36-3.78-1.93l.82-.84zm-.27 2.76c1.82 1.47 2.18 3.41 2.18 3.41s-1.66-1.82-3.18-2.8l1-.61z" style="fill:#cfa47c"/></svg>