<svg xmlns="http://www.w3.org/2000/svg" xml:space="preserve" style="enable-background:new 0 0 64 64" viewBox="0 0 64 64"><radialGradient id="a" cx="29.868" cy="19.217" r="43.258" gradientTransform="matrix(.9766 0 0 .8506 -6.097 7.913)" gradientUnits="userSpaceOnUse"><stop offset=".436" style="stop-color:#735c48"/><stop offset=".662" style="stop-color:#715a46"/><stop offset=".762" style="stop-color:#6a5441"/><stop offset=".837" style="stop-color:#5d4837"/><stop offset=".9" style="stop-color:#4b3829"/><stop offset=".903" style="stop-color:#4a3728"/></radialGradient><path d="M45.57 29.67c-6.08-.89 5.11-12.25-1.21-22.96-3.75-6.36-8.95-3.85-8.66-.94 2.09 21.45-15.86 28.33-23.69 27.12-6.75-1.04-6.61 25.4 0 24.29 3.56-.6 10.62-.73 11.01-.5 9.54 5.58 21.63 3.32 22.56 3.14V29.67z" style="fill:url(#a)"/><path d="M38.54 61.16c-4.55 0-10.53-.74-15.81-3.81-.89-.13-6.92-.47-10.72-.18 3.43-1.01 10.63-1.58 11.38-1.14 8.32 4.87 18.83 3.58 21.45 3.16V30.26c-.65-.2-1.14-.55-1.46-1.05-.88-1.38-.23-3.54.6-6.28 1.3-4.31 3.07-10.22-.25-15.85-1.94-3.29-4.22-3.95-5.71-3.46-1.02.33-1.67 1.18-1.58 2.07 1.09 11.23-3.27 17.93-7.12 21.58-5.38 5.1-11.42 6.74-17.31 5.62 6.24.15 11.26-1.92 16.3-6.69 3.61-3.42 7.7-9.72 6.66-20.36-.16-1.58.91-3.07 2.6-3.62 2.03-.67 5.04.07 7.43 4.11 3.65 6.18 1.76 12.45.39 17.02-.66 2.19-1.28 4.26-.77 5.07.06.1.26.4 1.06.52l.63.09v31.38l-.59.12c-.61.12-3.41.63-7.18.63z" style="fill:#241b13"/><radialGradient id="b" cx="-46.253" cy="29.393" r="7.432" gradientTransform="matrix(1.4177 0 0 2.0064 103.26 -13.898)" gradientUnits="userSpaceOnUse"><stop offset=".279" style="stop-color:#4a3728"/><stop offset=".511" style="stop-color:#564232;stop-opacity:.62"/><stop offset=".891" style="stop-color:#735c48;stop-opacity:0"/></radialGradient><path d="M38.94 29.91c-16.38-.69-16.69 29.57-.71 30.28 7.77.34 8.45-29.95.71-30.28z" style="fill:url(#b)"/><radialGradient id="c" cx="48.478" cy="52.78" r="7.678" gradientTransform="matrix(.9917 0 0 .6195 -1.457 23.926)" gradientUnits="userSpaceOnUse"><stop offset=".521" style="stop-color:#735c48"/><stop offset=".849" style="stop-color:#4a3728"/></radialGradient><path d="M51.44 53.85c-4.27 0-6.17.06-10.23.06-4.2 0-4.98 4.43-3.15 6.03 1.94 1.7 10.14 1.46 12.31.96 2.75-.63 4.46-7.05 1.07-7.05z" style="fill:url(#c)"/><radialGradient id="d" cx="49.421" cy="44.927" r="8.992" gradientTransform="matrix(.9917 0 0 .6783 -1.457 18.488)" gradientUnits="userSpaceOnUse"><stop offset=".521" style="stop-color:#735c48"/><stop offset=".849" style="stop-color:#4a3728"/></radialGradient><path d="M52.25 46.05H39.99c-4.15 0-4.14 7.55 0 7.79 2.87.17 7.75.39 11.44 0 3.93-.4 4.77-7.79.82-7.79z" style="fill:url(#d)"/><radialGradient id="e" cx="50.166" cy="36.684" r="9.344" gradientTransform="matrix(.9917 0 0 .6535 -1.457 16.947)" gradientUnits="userSpaceOnUse"><stop offset=".521" style="stop-color:#735c48"/><stop offset=".849" style="stop-color:#4a3728"/></radialGradient><path d="M53.57 37.22c-6.1 0-7.91.49-13.72.49-4.75 0-4.67 7.48 0 8.35 3.39.63 8.09.51 12.4 0 3.8-.45 5.15-8.84 1.32-8.84z" style="fill:url(#e)"/><radialGradient id="f" cx="51.072" cy="27.546" r="9.959" gradientTransform="matrix(.9917 0 0 .6422 -1.457 14.313)" gradientUnits="userSpaceOnUse"><stop offset=".521" style="stop-color:#735c48"/><stop offset=".849" style="stop-color:#4a3728"/></radialGradient><path d="M53.38 28.63c-3.35-.45-8.53-.95-13.94 1.92-2.68 1.42-1.62 6.78.62 7.16 2.35.39 7.39 0 13.52-.49 3.78-.3 3.4-8.1-.2-8.59z" style="fill:url(#f)"/><path d="M45.38 62c-3.05 0-6.49-.35-7.83-1.51-1.14-1-1.5-2.83-.88-4.45.69-1.79 2.38-2.87 4.53-2.87v1.47c-1.52 0-2.66.7-3.13 1.91-.4 1.05-.2 2.23.47 2.82 1.62 1.41 9.34 1.33 11.65.8 1.28-.29 2.56-2.71 2.35-4.45-.12-1.02-.66-1.15-1.11-1.15V53.1c1.45 0 2.42.92 2.6 2.45.27 2.31-1.29 5.55-3.5 6.06-.81.2-2.87.39-5.15.39z" style="fill:#241b13"/><path d="M46.49 54.8c-1.93 0-4.11-.07-6.54-.22-2.59-.16-3.88-2.59-3.81-4.92.08-2.56 1.66-4.35 3.85-4.35v1.47c-1.57 0-2.31 1.47-2.36 2.92-.05 1.61.76 3.3 2.4 3.4 4.79.29 8.6.29 11.32 0 1.75-.18 2.82-2.29 2.72-4.14-.04-.66-.28-2.19-1.82-2.19V45.3c1.9 0 3.2 1.41 3.32 3.58.13 2.51-1.38 5.4-4.05 5.68-1.41.17-3.09.24-5.03.24z" style="fill:#241b13"/><path d="M45.39 47.22c-2.17 0-4.11-.15-5.67-.44-2.98-.56-4.34-3.4-4.12-5.78.23-2.41 1.94-4.02 4.26-4.02v1.47c-1.85 0-2.64 1.39-2.77 2.69-.17 1.74.8 3.8 2.91 4.2 2.98.56 7.42.55 12.17-.01 1.79-.21 3.07-3.05 2.94-5.25-.05-.79-.31-2.11-1.53-2.11V36.5c1.73 0 2.89 1.34 3.02 3.49.18 2.96-1.52 6.49-4.25 6.81-2.45.27-4.81.42-6.96.42z" style="fill:#241b13"/><path d="M42.69 38.6c-1.17 0-2.07-.06-2.76-.17-1.34-.22-2.41-1.64-2.74-3.6-.37-2.19.38-4.13 1.89-4.93 2.99-1.59 6.19-2.36 9.8-2.36 1.74 0 3.3.18 4.6.36 2.41.33 3.59 3.04 3.52 5.55-.07 2.58-1.39 4.35-3.36 4.51-4.21.33-8.18.64-10.95.64zm6.19-9.58c-3.35 0-6.32.71-9.09 2.18-1.15.61-1.32 2.21-1.13 3.39.21 1.25.86 2.28 1.51 2.39 2.1.35 7.52-.03 13.34-.49 1.41-.11 1.95-1.73 1.99-3.08.05-1.83-.77-3.85-2.23-4.04-1.25-.18-2.75-.35-4.39-.35zM24.01 56.43s-2.14-1.29-2.85-3.06c-.11 2.44 1.37 3.76 1.37 3.76l1.48-.7zm12.82-11.97c-2.3 2.27-5.27 4.22-8.63 5.13 4.07.15 7.68-1.53 10.28-3.79-.55-.46-1.1-.91-1.65-1.34z" style="fill:#241b13"/></svg>