<svg xmlns="http://www.w3.org/2000/svg" xml:space="preserve" viewBox="0 0 64 64"><path fill="#FFC940" d="M12.715 34.208C4.102 15.459 17.467 2 31.993 2c10.795 0 19.952 10.177 21.534 20.079 2.047 12.752-2.396 29.08-16.092 31.251-9.106 1.443-11.922 13.5-23.247 6.502-9.066-5.603 4.191-13.289-1.473-25.624z"/><radialGradient id="a" cx="39.847" cy="39.417" r="32.534" gradientTransform="matrix(1 0 0 1.2034 0 -7.805)" gradientUnits="userSpaceOnUse"><stop offset=".315" style="stop-color:#edb547;stop-opacity:0"/><stop offset=".867" style="stop-color:#c28100;stop-opacity:.9"/></radialGradient><path fill="url(#a)" d="M33.63 45.676s6.295-7.199 13.764-7.707c7.605-16.998-7.229-35.235-21.409-30.395-12.418 4.237-13.551 21.235-9.166 23.005 4.938 1.992 7.9 7.033 2.188 10.949-4.051 2.777.826 11.98 4.232 7.949 3.463-4.106 5.906-5.346 10.391-3.801z"/><path fill="#8A1E1E" d="M33.63 45.676s-1.883-2.824-6.012-2.385c-1.262.137 3.412-3.75-1.834-7.416-.717-7.992-7.08-7.681-6.219-9.837 1.191-2.961 8.283-1.9 11.822 4.363.053-11.037-15-6.828-12.232-12.582 6.424-13.347 32.854-5.904 28.239 20.15 7.605-16.998-7.229-35.235-21.409-30.395-12.418 4.237-13.551 21.235-9.166 23.005 4.938 1.992 7.9 7.033 2.188 10.949-4.051 2.777.826 11.98 4.232 7.949 3.463-4.106 5.906-5.346 10.391-3.801z" opacity=".25"/></svg>