<svg xmlns="http://www.w3.org/2000/svg" xml:space="preserve" style="enable-background:new 0 0 64 64" viewBox="0 0 64 64"><radialGradient id="a" cx="29.868" cy="567.505" r="43.258" gradientTransform="matrix(.9766 0 0 -.8506 -6.097 522.45)" gradientUnits="userSpaceOnUse"><stop offset=".436" style="stop-color:#ffd8b4"/><stop offset=".66" style="stop-color:#fdd6b2"/><stop offset=".76" style="stop-color:#f8d0ab"/><stop offset=".835" style="stop-color:#eec59e"/><stop offset=".897" style="stop-color:#e0b58c"/><stop offset=".903" style="stop-color:#deb38a"/></radialGradient><path d="M45.57 34.33c-6.08.89 5.11 12.25-1.21 22.96-3.75 6.36-8.95 3.85-8.66.94 2.09-21.45-15.86-28.33-23.69-27.12-6.75 1.04-6.61-25.4 0-24.29 3.56.6 10.62.73 11.01.5C32.56 1.74 44.65 4 45.58 4.18v30.15z" style="fill:url(#a)"/><path d="M38.54 2.84c-4.55 0-10.53.74-15.81 3.81-.89.13-6.92.47-10.72.18 3.43 1.01 10.63 1.58 11.38 1.14 8.32-4.87 18.83-3.58 21.45-3.16v28.93c-.65.2-1.14.55-1.46 1.05-.88 1.38-.23 3.54.6 6.28 1.3 4.31 3.07 10.22-.25 15.85-1.94 3.29-4.22 3.95-5.71 3.46-1.02-.33-1.68-1.19-1.59-2.07 1.09-11.23-3.27-17.93-7.12-21.58-5.38-5.1-11.42-6.74-17.31-5.62 6.24-.15 11.26 1.92 16.3 6.69 3.61 3.42 7.7 9.72 6.66 20.36-.16 1.58.91 3.07 2.6 3.62 2.03.66 5.05-.07 7.43-4.12 3.65-6.18 1.76-12.45.39-17.02-.66-2.19-1.28-4.26-.77-5.07.06-.1.26-.4 1.06-.52l.63-.09V3.59l-.59-.12c-.6-.12-3.4-.63-7.17-.63z" style="fill:#cfa47c"/><radialGradient id="b" cx="-46.253" cy="605.443" r="7.432" gradientTransform="matrix(1.4177 0 0 -2.0064 103.26 1233.685)" gradientUnits="userSpaceOnUse"><stop offset=".279" style="stop-color:#deb38a"/><stop offset=".507" style="stop-color:#e8be96;stop-opacity:.6273"/><stop offset=".891" style="stop-color:#ffd8b4;stop-opacity:0"/></radialGradient><path d="M38.94 34.09c-16.38.7-16.69-29.57-.71-30.28 7.77-.34 8.45 29.95.71 30.28z" style="fill:url(#b)"/><radialGradient id="c" cx="48.478" cy="600.787" r="7.678" gradientTransform="matrix(.9917 0 0 -.6195 -1.457 379.557)" gradientUnits="userSpaceOnUse"><stop offset=".521" style="stop-color:#ffd8b4"/><stop offset=".849" style="stop-color:#deb38a"/></radialGradient><path d="M51.44 10.15c-4.27 0-6.17-.06-10.23-.06-4.2 0-4.98-4.43-3.15-6.03C40 2.36 48.2 2.6 50.37 3.1c2.75.63 4.46 7.05 1.07 7.05z" style="fill:url(#c)"/><radialGradient id="d" cx="49.421" cy="592.934" r="8.992" gradientTransform="matrix(.9917 0 0 -.6783 -1.457 417.212)" gradientUnits="userSpaceOnUse"><stop offset=".521" style="stop-color:#ffd8b4"/><stop offset=".849" style="stop-color:#deb38a"/></radialGradient><path d="M52.25 17.95H39.99c-4.15 0-4.14-7.55 0-7.79 2.87-.17 7.75-.39 11.44 0 3.93.4 4.77 7.79.82 7.79z" style="fill:url(#d)"/><radialGradient id="e" cx="50.166" cy="584.69" r="9.344" gradientTransform="matrix(.9917 0 0 -.6535 -1.457 405.152)" gradientUnits="userSpaceOnUse"><stop offset=".521" style="stop-color:#ffd8b4"/><stop offset=".849" style="stop-color:#deb38a"/></radialGradient><path d="M53.57 26.78c-6.1 0-7.91-.49-13.72-.49-4.75 0-4.67-7.48 0-8.35 3.39-.63 8.09-.51 12.4 0 3.8.45 5.15 8.84 1.32 8.84z" style="fill:url(#e)"/><radialGradient id="f" cx="51.072" cy="575.553" r="9.959" gradientTransform="matrix(.9917 0 0 -.6422 -1.457 401.59)" gradientUnits="userSpaceOnUse"><stop offset=".521" style="stop-color:#ffd8b4"/><stop offset=".849" style="stop-color:#deb38a"/></radialGradient><path d="M53.38 35.37c-3.35.45-8.53.95-13.94-1.92-2.68-1.42-1.62-6.78.62-7.16 2.35-.39 7.39 0 13.52.49 3.78.3 3.4 8.1-.2 8.59z" style="fill:url(#f)"/><path d="M45.38 2c-3.05 0-6.49.35-7.83 1.51-1.14 1-1.5 2.83-.88 4.45.69 1.79 2.38 2.87 4.53 2.87V9.35c-1.52 0-2.66-.7-3.13-1.91-.4-1.05-.2-2.23.47-2.82 1.62-1.41 9.34-1.33 11.65-.8 1.28.29 2.56 2.71 2.35 4.45-.12 1.02-.66 1.15-1.11 1.15v1.47c1.45 0 2.42-.92 2.6-2.45.27-2.31-1.29-5.55-3.5-6.06-.81-.19-2.87-.38-5.15-.38z" style="fill:#cfa47c"/><path d="M46.49 9.2c-1.93 0-4.11.07-6.54.22-2.59.16-3.88 2.59-3.81 4.92.08 2.56 1.66 4.35 3.85 4.35v-1.47c-1.57 0-2.31-1.47-2.36-2.92-.05-1.61.76-3.3 2.4-3.4 4.79-.29 8.6-.29 11.32 0 1.75.18 2.82 2.29 2.72 4.14-.04.66-.28 2.19-1.82 2.19v1.47c1.9 0 3.2-1.41 3.32-3.58.13-2.51-1.38-5.4-4.05-5.68-1.41-.17-3.09-.24-5.03-.24z" style="fill:#cfa47c"/><path d="M45.39 16.78c-2.17 0-4.11.15-5.67.44-2.98.56-4.34 3.4-4.12 5.78.23 2.41 1.94 4.02 4.26 4.02v-1.47c-1.85 0-2.64-1.39-2.77-2.69-.17-1.74.8-3.8 2.91-4.2 2.98-.56 7.42-.55 12.17.01 1.79.21 3.07 3.05 2.94 5.25-.05.79-.31 2.11-1.53 2.11v1.47c1.73 0 2.89-1.34 3.02-3.49.18-2.96-1.52-6.49-4.25-6.81-2.45-.27-4.81-.42-6.96-.42z" style="fill:#cfa47c"/><path d="M53.63 26.05c1.97.16 3.29 1.93 3.36 4.51.07 2.51-1.11 5.22-3.52 5.55-1.3.18-2.87.36-4.6.36-3.61 0-6.81-.77-9.8-2.36-1.52-.8-2.26-2.74-1.89-4.93.33-1.96 1.41-3.38 2.74-3.6.69-.11 1.59-.17 2.76-.17 2.78-.01 6.75.3 10.95.64zm-.36 8.59c1.46-.2 2.28-2.21 2.23-4.04-.04-1.35-.58-2.97-1.99-3.08-5.82-.46-11.24-.84-13.34-.49-.65.11-1.31 1.14-1.51 2.39-.2 1.18-.02 2.79 1.13 3.39 2.76 1.47 5.74 2.18 9.09 2.18 1.64-.01 3.14-.18 4.39-.35zM24.01 7.57s-2.14 1.29-2.85 3.06c-.11-2.44 1.37-3.76 1.37-3.76l1.48.7zm12.82 11.97c-2.3-2.27-5.27-4.22-8.63-5.13 4.07-.15 7.68 1.53 10.28 3.79-.55.46-1.1.91-1.65 1.34z" style="fill:#cfa47c"/></svg>