<svg xmlns="http://www.w3.org/2000/svg" xml:space="preserve" viewBox="0 0 64 64"><linearGradient id="a" x1="32.001" x2="32.001" y1="64" y2="42.391" gradientUnits="userSpaceOnUse"><stop offset="0" style="stop-color:#2b998d"/><stop offset="1" style="stop-color:#02d6b4"/></linearGradient><path fill="url(#a)" d="m53 45.404-1.027-3.014c-22.521 4.569-17.424 4.568-39.942 0L11 45.404c12.577 0 16.813 16.782 18.423 17.964 1.085.797 4.133.887 5.159 0C36.52 61.688 39.787 45.404 53 45.404z"/><path fill="#02D6B4" d="m28.622 5.899-.518-.548c1.842-.631 3.006-1.344 3.396-2.075-.357-.091-.787-.17-1.326-.239-1.987-.25-2.801-1.019-2.897-1.656-.091-.586.374-1.111 1.157-1.305.438-.109 1.603-.252 2.991.763.938.686 1.359 1.39 1.254 2.096.674.257 1.071.555 1.459.848.354.265.686.517 1.254.736l-.568.53c-.709-.275-1.131-.592-1.502-.872-.277-.207-.536-.403-.902-.577-.531.837-1.829 1.625-3.798 2.299zm.472-5.27c-.092 0-.182.01-.262.031-.349.085-.56.359-.514.663.082.534.856.943 2.07 1.097.482.06.895.132 1.253.211-.042-.457-.386-.923-1.024-1.389-.539-.396-1.087-.613-1.523-.613z"/><path fill="#02D6B4" d="M31.762 3.553c-.605 0-1.115-.111-1.405-.322-.378-.275-.361-.638.042-.925.286-.204.751-.35 1.236-.366.027-.143.075-.287.144-.431.266-.562.796-1.006 1.456-1.219a2.35 2.35 0 0 1 1.619.061c.57.245.883.693.773 1.115-.299 1.169-1.713 1.804-2.934 2.008a5.774 5.774 0 0 1-.931.079zm-.12-.98a.928.928 0 0 0-.443.142c-.099.07-.065.093-.037.113.063.046.277.1.62.095a1.276 1.276 0 0 1-.14-.35zM33.967.807a.761.761 0 0 0-.238.04 1.623 1.623 0 0 0-.943.835c-.188.396-.174.814.025 1.099.609-.16 1.56-.545 1.781-1.41.049-.187-.096-.398-.344-.503a.688.688 0 0 0-.281-.061z"/><path fill="#02D6B4" d="M17.929 9.296c3.376-4.383 8.191-6.729 13.826-6.729l.174.623c-4.798-.241-10.372 2.229-13.863 7.348-.579-.205-.137-1.242-.137-1.242zm28.141 0c-3.375-4.383-8.191-6.729-13.826-6.729l-.172.623c4.797-.241 10.372 2.229 13.864 7.348.578-.205.134-1.242.134-1.242z"/><path fill="#2B998D" d="M28.683 29.704h6.633v.955h-6.633z"/><linearGradient id="b" x1="43.809" x2="43.809" y1="31.954" y2="9.296" gradientUnits="userSpaceOnUse"><stop offset="0" style="stop-color:#2b998d"/><stop offset="1" style="stop-color:#02d6b4"/></linearGradient><path fill="url(#b)" d="M34.783 30.566c9.02 3.156 28.264 2.757 11.287-21.27-.373 7.48-9.103 15.091-11.287 21.27z"/><linearGradient id="c" x1="-2320.498" x2="-2320.498" y1="31.954" y2="9.296" gradientTransform="matrix(-1 0 0 1 -2300.308 0)" gradientUnits="userSpaceOnUse"><stop offset="0" style="stop-color:#2b998d"/><stop offset="1" style="stop-color:#02d6b4"/></linearGradient><path fill="url(#c)" d="M29.216 30.566c-9.02 3.156-28.264 2.757-11.288-21.27.374 7.48 9.105 15.091 11.288 21.27z"/></svg>