<svg xmlns="http://www.w3.org/2000/svg" xml:space="preserve" viewBox="0 0 64 64"><radialGradient id="a" cx="38.372" cy="15.467" r="4.054" gradientTransform="matrix(1 0 0 1.0117 0 1.381)" gradientUnits="userSpaceOnUse"><stop offset="0" style="stop-color:#e0e0e0"/><stop offset=".326" style="stop-color:#c6c8c9"/><stop offset=".867" style="stop-color:#92989c"/></radialGradient><path fill="url(#a)" d="m35.208 14.304 3 3.008h3.532c2.195 0 2.197 2.528 0 2.528h-4.031c-.323 0-.643-.12-.888-.366L33.44 16.08c-.487-.489 1.278-2.266 1.768-1.776z"/><radialGradient id="b" cx="33.64" cy="11.239" r="3.596" gradientTransform="matrix(1.0015 0 0 1.016 -.688 2.254)" gradientUnits="userSpaceOnUse"><stop offset="0" style="stop-color:#e0e0e0"/><stop offset=".326" style="stop-color:#c6c8c9"/><stop offset=".867" style="stop-color:#92989c"/></radialGradient><path fill="url(#b)" d="M36.873 14.675c0 3.563-5.27 3.563-5.27 0 .001-3.567 5.27-3.567 5.27 0z"/><radialGradient id="c" cx="25.616" cy="15.467" r="4.054" gradientTransform="matrix(1 0 0 1.0117 0 1.381)" gradientUnits="userSpaceOnUse"><stop offset="0" style="stop-color:#e0e0e0"/><stop offset=".326" style="stop-color:#c6c8c9"/><stop offset=".867" style="stop-color:#92989c"/></radialGradient><path fill="url(#c)" d="m28.78 14.304-3 3.008h-3.532c-2.195 0-2.197 2.528 0 2.528h4.03c.323 0 .643-.12.887-.366l3.382-3.394c.487-.489-1.278-2.266-1.767-1.776z"/><radialGradient id="d" cx="16.748" cy="11.239" r="3.596" gradientTransform="matrix(1.0015 0 0 1.016 11.739 2.254)" gradientUnits="userSpaceOnUse"><stop offset="0" style="stop-color:#e0e0e0"/><stop offset=".326" style="stop-color:#c6c8c9"/><stop offset=".867" style="stop-color:#92989c"/></radialGradient><path fill="url(#d)" d="M32.384 14.675c0 3.563-5.27 3.563-5.27 0 0-3.567 5.27-3.567 5.27 0z"/><linearGradient id="e" x1="32.633" x2="32.633" y1="33.266" y2="17.649" gradientTransform="matrix(1.0015 0 0 1.0043 -.688 1.265)" gradientUnits="userSpaceOnUse"><stop offset=".539" style="stop-color:#92989c"/><stop offset=".827" style="stop-color:#c6c8c9"/><stop offset="1" style="stop-color:#e0e0e0"/></linearGradient><path fill="url(#e)" d="M53.466 20.12c-3.068-1.509-39.886-1.503-42.944 0-3.541 1.742-6.641 14.554.668 14.554h41.609c7.308 0 4.208-12.812.667-14.554z"/><radialGradient id="f" cx="32.515" cy="32.596" r="61.806" gradientTransform="matrix(1.0015 0 0 .379 -.688 22.005)" gradientUnits="userSpaceOnUse"><stop offset="0" style="stop-color:#ff66a4"/><stop offset=".211" style="stop-color:#fe63a2"/><stop offset=".381" style="stop-color:#fb599a"/><stop offset=".536" style="stop-color:#f6488e"/><stop offset=".682" style="stop-color:#ef307d"/><stop offset=".709" style="stop-color:#ed2b79"/></radialGradient><path fill="url(#f)" d="M52.178 22.711c-1.868-1.33-39.133-1.078-40.392 0C9.86 24.362.754 46.125 2.144 50.041c1.053 2.953 3.526 9.828 6.496 10.811 4.944 1.631 41.608 1.428 46.685 0 3.008-.848 5.445-7.857 6.495-10.811 1.561-4.404-7.441-25.762-9.642-27.33z"/></svg>