<svg xmlns="http://www.w3.org/2000/svg" xml:space="preserve" style="enable-background:new 0 0 64 64" viewBox="0 0 64 64"><linearGradient id="a" x1="216.615" x2="216.615" y1="298.466" y2="285.386" gradientTransform="translate(-133.086 -184.752) scale(.7618)" gradientUnits="userSpaceOnUse"><stop offset="0" style="stop-color:#e88b00"/><stop offset="1" style="stop-color:#ffc800"/></linearGradient><path d="M32.389 32.655h-.923l-3.199 9.964h7.328z" style="fill:url(#a)"/><radialGradient id="b" cx="69.055" cy="195.414" r="2.352" gradientTransform="matrix(1.0882 0 0 1.1214 -43.534 -187.59)" gradientUnits="userSpaceOnUse"><stop offset="0" style="stop-color:#ffc800"/><stop offset="1" style="stop-color:#f90"/></radialGradient><path d="M33.675 32.109c0 .994-.783 1.802-1.748 1.802s-1.748-.807-1.748-1.802c0-.993.783-1.802 1.748-1.802s1.748.809 1.748 1.802z" style="fill:url(#b)"/><linearGradient id="c" x1="192.866" x2="192.866" y1="301.237" y2="287.856" gradientTransform="translate(-133.086 -184.752) scale(.7618)" gradientUnits="userSpaceOnUse"><stop offset="0" style="stop-color:#e88b00"/><stop offset="1" style="stop-color:#ffc800"/></linearGradient><path d="m10.802 44.73 1.518-10.193h.968l3.589 9.62z" style="fill:url(#c)"/><radialGradient id="d" cx="47.705" cy="196.63" r="2.352" gradientTransform="matrix(1.088 0 0 1.1215 -39.413 -186.41)" gradientUnits="userSpaceOnUse"><stop offset="0" style="stop-color:#ffc800"/><stop offset="1" style="stop-color:#f90"/></radialGradient><path d="M14.553 34.673c0 .995-.783 1.802-1.747 1.802-.966 0-1.748-.807-1.748-1.802 0-.994.783-1.802 1.748-1.802.962 0 1.747.807 1.747 1.802z" style="fill:url(#d)"/><linearGradient id="e" x1="-969.233" x2="-969.233" y1="301.237" y2="287.856" gradientTransform="matrix(-.7618 0 0 .7618 -688.346 -184.752)" gradientUnits="userSpaceOnUse"><stop offset="0" style="stop-color:#e88b00"/><stop offset="1" style="stop-color:#ffc800"/></linearGradient><path d="m53.052 44.73-1.516-10.193h-.97l-3.587 9.62z" style="fill:url(#e)"/><radialGradient id="f" cx="52.813" cy="197.224" r="2.352" gradientTransform="matrix(1.088 0 0 1.1214 -6.721 -187.058)" gradientUnits="userSpaceOnUse"><stop offset="0" style="stop-color:#ffc800"/><stop offset="1" style="stop-color:#f90"/></radialGradient><path d="M52.799 34.673c0 .995-.783 1.802-1.747 1.802-.965 0-1.748-.807-1.748-1.802 0-.994.783-1.802 1.748-1.802.964 0 1.747.807 1.747 1.802z" style="fill:url(#f)"/><path d="M57.419 49.658c-1.618-3.447-11.47-8.456-25.495-8.456S8.049 46.208 6.43 49.658c-.596 1.276 51.586 1.276 50.989 0z" style="fill:#580166"/><radialGradient id="g" cx="31.584" cy="212.799" r="26.699" gradientTransform="matrix(.9973 0 0 -2.4304 .581 555.776)" gradientUnits="userSpaceOnUse"><stop offset=".006" style="stop-color:#fa0"/><stop offset=".131" style="stop-color:#ffae03"/><stop offset=".265" style="stop-color:#ffbb0a"/><stop offset=".405" style="stop-color:#ffd116"/><stop offset=".521" style="stop-color:#ffe924"/><stop offset=".639" style="stop-color:#ffe622"/><stop offset=".742" style="stop-color:#ffdb1e"/><stop offset=".84" style="stop-color:#ffc916"/><stop offset=".933" style="stop-color:#ffb00a"/><stop offset="1" style="stop-color:#f90"/></radialGradient><path d="m58.977 43.209 1.343-14.87c-1.343 0-2.89 4.062-4.802 8.135-2.481 5.292-9.331 5.665-10.706-2.564-.676-4.047-1-7.659-1.69-7.659-.513 0-1.314 1.692-2.286 4.055-1.299 3.157-4.472 9.02-8.836 9.02s-7.545-5.862-8.846-9.02c-.973-2.364-1.774-4.055-2.285-4.055-.691 0-1.014 3.612-1.69 7.659-1.373 8.227-8.218 7.858-10.703 2.569-1.914-4.075-3.461-8.14-4.805-8.14l1.195 14.87c.358.017.362 1.501.002 1.524.002 3-.002 8.049-.005 11.275.358.008.357 1.523-.002 1.526l-.002 1.484c.336 3.975 53.784 3.975 54.117 0l-.002-1.484c-.358-.005-.36-1.518-.002-1.526-.003-3.224-.007-8.274-.005-11.275-.351-.026-.347-1.507.01-1.524z" style="fill:url(#g)"/><radialGradient id="h" cx="31.152" cy="-22.222" r="20.232" gradientTransform="matrix(1.3377 0 0 3.5688 -9.858 130.804)" gradientUnits="userSpaceOnUse"><stop offset="0" style="stop-color:#cf5600"/><stop offset=".185" style="stop-color:#de7a00"/><stop offset=".374" style="stop-color:#eb9700"/><stop offset=".538" style="stop-color:#f2aa00"/><stop offset=".654" style="stop-color:#f5b000"/><stop offset=".716" style="stop-color:#f2aa00"/><stop offset=".802" style="stop-color:#eb9800"/><stop offset=".901" style="stop-color:#de7b00"/><stop offset="1" style="stop-color:#cf5600"/></radialGradient><path d="M58.985 43.204c-9.271 1.747-44.849 1.747-54.117 0 .362 0 .362 1.529 0 1.529v.002c9.55 1.864 44.567 1.864 54.117-.002-.36.001-.36-1.529 0-1.529z" style="opacity:.7;fill:url(#h)"/><radialGradient id="i" cx="31.152" cy="-22.222" r="20.232" gradientTransform="matrix(1.3377 0 0 3.5688 -9.858 130.802)" gradientUnits="userSpaceOnUse"><stop offset="0" style="stop-color:#cf5600"/><stop offset=".185" style="stop-color:#de7a00"/><stop offset=".374" style="stop-color:#eb9700"/><stop offset=".538" style="stop-color:#f2aa00"/><stop offset=".654" style="stop-color:#f5b000"/><stop offset=".716" style="stop-color:#f2aa00"/><stop offset=".802" style="stop-color:#eb9800"/><stop offset=".901" style="stop-color:#de7b00"/><stop offset="1" style="stop-color:#cf5600"/></radialGradient><path d="M58.985 56.003c-14.661 2.763-39.459 2.765-54.117 0 .362 0 .362 1.529 0 1.529v.002c14.932 2.917 39.01 2.95 54.117-.002-.36-.001-.36-1.529 0-1.529z" style="opacity:.7;fill:url(#i)"/><path d="m31.979 47.88-3.744 4.14 3.744 4.304 3.642-4.304z" style="fill:#018bc9"/><linearGradient id="j" x1="-202.073" x2="-202.073" y1="38.968" y2="42.415" gradientTransform="matrix(1 0 0 -1 234 91)" gradientUnits="userSpaceOnUse"><stop offset="0" style="stop-color:#75d6ff;stop-opacity:0"/><stop offset="1" style="stop-color:#75d6ff"/></linearGradient><path d="m31.971 48.585-3.124 3.447h6.159z" style="fill:url(#j)"/><path d="m15.665 48.756-2.672 2.753 2.672 2.875 2.603-2.875z" style="fill:#f00101"/><linearGradient id="k" x1="-218.37" x2="-218.37" y1="39.48" y2="41.78" gradientTransform="matrix(1 0 0 -1 234 91)" gradientUnits="userSpaceOnUse"><stop offset="0" style="stop-color:#ff8a8a;stop-opacity:0"/><stop offset="1" style="stop-color:#ff8a8a"/></linearGradient><path d="m15.661 49.22-2.232 2.3h4.403z" style="fill:url(#k)"/><path d="m48.262 48.756-2.678 2.753 2.678 2.875 2.599-2.875z" style="fill:#f00101"/><linearGradient id="l" x1="-185.778" x2="-185.778" y1="39.48" y2="41.78" gradientTransform="matrix(1 0 0 -1 234 91)" gradientUnits="userSpaceOnUse"><stop offset="0" style="stop-color:#ff8a8a;stop-opacity:0"/><stop offset="1" style="stop-color:#ff8a8a"/></linearGradient><path d="m48.252 49.22-2.231 2.3h4.402z" style="fill:url(#l)"/><path d="m58.904 46.614-2.03 3.673 1.913 3.832 2.308-3.832z" style="fill:#ae01c9"/><linearGradient id="m" x1="-174.506" x2="-174.506" y1="40.698" y2="43.674" gradientTransform="matrix(1 0 0 -1 234 91)" gradientUnits="userSpaceOnUse"><stop offset="0" style="stop-color:#da75ff;stop-opacity:0"/><stop offset="1" style="stop-color:#da75ff"/></linearGradient><path d="m59.177 47.326-1.285 2.976 3.203-.015z" style="fill:url(#m)"/><path d="m4.95 46.614 2.028 3.673-1.912 3.832-2.305-3.832z" style="fill:#ae01c9"/><linearGradient id="n" x1="-563.007" x2="-563.007" y1="40.698" y2="43.674" gradientTransform="rotate(180 -279.322 45.5)" gradientUnits="userSpaceOnUse"><stop offset="0" style="stop-color:#da75ff;stop-opacity:0"/><stop offset="1" style="stop-color:#da75ff"/></linearGradient><path d="m4.681 47.326 1.284 2.976-3.204-.015z" style="fill:url(#n)"/><radialGradient id="o" cx="779.678" cy="203.881" r="3.136" gradientTransform="matrix(-1.0197 0 0 1.0513 855.26 -186.708)" gradientUnits="userSpaceOnUse"><stop offset="0" style="stop-color:#ffdb29"/><stop offset=".262" style="stop-color:#ffd727"/><stop offset=".5" style="stop-color:#ffcc20"/><stop offset=".727" style="stop-color:#ffba15"/><stop offset=".948" style="stop-color:#ffa005"/><stop offset="1" style="stop-color:#f90"/></radialGradient><path d="M59.816 26.084c1.207 0 2.184 1.01 2.184 2.252 0 1.242-.978 2.252-2.184 2.252-1.205 0-2.184-1.01-2.184-2.252-.001-1.242.979-2.252 2.184-2.252z" style="fill:url(#o)"/><radialGradient id="p" cx="798.626" cy="201.036" r="3.136" gradientTransform="matrix(-1.0197 0 0 1.0512 857.893 -185.781)" gradientUnits="userSpaceOnUse"><stop offset="0" style="stop-color:#ffdb29"/><stop offset=".262" style="stop-color:#ffd727"/><stop offset=".5" style="stop-color:#ffcc20"/><stop offset=".727" style="stop-color:#ffba15"/><stop offset=".948" style="stop-color:#ffa005"/><stop offset="1" style="stop-color:#f90"/></radialGradient><path d="M43.127 24c1.207 0 2.184 1.01 2.184 2.252 0 1.24-.978 2.25-2.184 2.25-1.205 0-2.184-1.008-2.184-2.25-.001-1.242.975-2.252 2.184-2.252z" style="fill:url(#p)"/><radialGradient id="q" cx="67.434" cy="203.881" r="3.136" gradientTransform="matrix(1.0197 0 0 1.0513 -64.983 -186.708)" gradientUnits="userSpaceOnUse"><stop offset="0" style="stop-color:#ffdb29"/><stop offset=".262" style="stop-color:#ffd727"/><stop offset=".5" style="stop-color:#ffcc20"/><stop offset=".727" style="stop-color:#ffba15"/><stop offset=".948" style="stop-color:#ffa005"/><stop offset="1" style="stop-color:#f90"/></radialGradient><path d="M6.369 28.336c0 1.242-.98 2.252-2.184 2.252-1.207 0-2.185-1.01-2.185-2.252 0-1.242.978-2.252 2.184-2.252 1.205 0 2.185 1.01 2.185 2.252z" style="fill:url(#q)"/><radialGradient id="r" cx="86.383" cy="201.036" r="3.136" gradientTransform="matrix(1.0197 0 0 1.0512 -67.616 -185.781)" gradientUnits="userSpaceOnUse"><stop offset="0" style="stop-color:#ffdb29"/><stop offset=".262" style="stop-color:#ffd727"/><stop offset=".5" style="stop-color:#ffcc20"/><stop offset=".727" style="stop-color:#ffba15"/><stop offset=".948" style="stop-color:#ffa005"/><stop offset="1" style="stop-color:#f90"/></radialGradient><path d="M23.058 26.253c0 1.242-.979 2.25-2.184 2.25-1.207 0-2.184-1.01-2.184-2.25 0-1.242.978-2.252 2.184-2.252 1.206.001 2.184 1.009 2.184 2.252z" style="fill:url(#r)"/></svg>