<svg xmlns="http://www.w3.org/2000/svg" xml:space="preserve" viewBox="0 0 64 64"><linearGradient id="a" x1="32.001" x2="32.001" y1="62.001" y2="2.683" gradientUnits="userSpaceOnUse"><stop offset="0" style="stop-color:#0174a8"/><stop offset="1" style="stop-color:#019be0"/></linearGradient><path fill="url(#a)" d="M51.56 6.572c-.959-1.293-5.44-2.449-9.464-3.76C39.606 1.999 32 5.287 32 5.287s-7.608-3.288-10.096-2.475c-4.023 1.311-8.507 2.467-9.464 3.76C8.847 11.427 2.128 21.726 2.128 21.726c3.109 4.254 12.131 6.998 12.131 6.998l2.742-3.939-1.34 34.963c5.236 3.004 27.441 3.004 32.678 0l-1.34-34.963 2.74 3.939s9.023-2.744 12.134-6.998c0 0-6.722-10.299-10.313-15.154z"/><linearGradient id="b" x1="9.565" x2="9.565" y1="28.724" y2="6.572" gradientUnits="userSpaceOnUse"><stop offset="0" style="stop-color:#0174a8"/><stop offset=".691" style="stop-color:#0174a8;stop-opacity:0"/></linearGradient><path fill="url(#b)" d="M12.44 6.572C8.847 11.427 2.128 21.726 2.128 21.726c3.109 4.254 12.131 6.998 12.131 6.998l2.742-3.939s-1-10-4.561-18.213z"/><linearGradient id="c" x1="54.435" x2="54.435" y1="28.724" y2="6.572" gradientUnits="userSpaceOnUse"><stop offset="0" style="stop-color:#0174a8"/><stop offset=".691" style="stop-color:#0174a8;stop-opacity:0"/></linearGradient><path fill="url(#c)" d="M51.56 6.572c-3.561 8.213-4.561 18.213-4.561 18.213l2.74 3.939s9.023-2.744 12.134-6.998c0 0-6.722-10.299-10.313-15.154z"/><path fill="#013366" d="M32 3.05s-3.727.045-9.143-1.051v2.5L32 9.748 41.143 4.5V2C35.727 3.095 32 3.05 32 3.05z"/><path fill="#006DAE" d="M32 4.886s-4.411-.061-9.143-1.049l2.666 4.221L32 9.486l6.475-1.428 2.668-4.221C36.411 4.826 32 4.886 32 4.886z"/><path fill="#014D87" d="M41.143 2C40.062 5.697 35.79 8.433 32 8.433S23.937 5.697 22.857 2l-1.918 1.127c2.063 5.031 6.358 7.592 11.061 7.592s8.995-2.561 11.059-7.592L41.143 2zm6.93 24.48 1.657 2.398s9.125-2.795 12.27-7.125l-1.655-2.229c-4.298 3.927-12.272 6.956-12.272 6.956zm-32.146 0-1.656 2.398S5.145 26.083 2 21.753l1.655-2.229c4.298 3.927 12.272 6.956 12.272 6.956z"/></svg>