<svg xmlns="http://www.w3.org/2000/svg" xml:space="preserve" viewBox="0 0 64 64"><path fill="#302C3B" d="M3.975 22.261C3.146 22.134 0 32.019 0 32.019l13.454 7.94 2.622-3.732c7.337 6.317 8.576 11.641 17.091 16.667 16.422 9.691 32.037 10.748 30.101 7.344-1.195-2.1-56.154-37.832-59.293-37.977z"/><linearGradient id="a" x1="34.267" x2="54.547" y1="52.234" y2="31.954" gradientTransform="translate(-1.43 -1.99)" gradientUnits="userSpaceOnUse"><stop offset="0" style="stop-color:#824b35"/><stop offset=".539" style="stop-color:#a35e42"/></linearGradient><path fill="url(#a)" d="M36.876 13.768c-.264-.863-4.203.542-4.014 4.555-5.971 2.052-16.54 3.383-18.021 12.906 10.148 8.027 9.398 12.369 18.253 18.39 9.95 6.769 22.774 11.528 30.077 10.492 2.4-7.346-.285-5.186-9.689-11.583-1.772-1.201-10.624-15.119-16.606-34.76z"/><linearGradient id="b" x1="5.4" x2="44.191" y1="23.71" y2="23.71" gradientTransform="translate(-1.43 -1.99)" gradientUnits="userSpaceOnUse"><stop offset="0" style="stop-color:#94553c"/><stop offset="1" style="stop-color:#ba7154"/></linearGradient><path fill="url(#b)" d="M14.915 6.054C14.449 5.1 3.727 17.03 3.975 22.261c3.852 2.985 10.866 8.969 10.866 8.969 5.797-8.263 14.84-2.069 18.654 4.181 2.42 3.967 10.631 2.225 9.071-6.158-1.194-6.42-2.214-11.408-4.486-11.716-5.979-.812-14.817 5.53-23.165-11.483z"/><path fill="#73432F" d="m37.882 36.993-.023-.43c.236-.014.473-.046.705-.096l.09.42a4.825 4.825 0 0 1-.772.106zm-.779-.018a4.73 4.73 0 0 1-.767-.141l.108-.416c.229.061.465.104.701.129l-.042.428zm2.297-.318-.158-.4c.22-.089.433-.196.634-.321l.223.367a4.584 4.584 0 0 1-.699.354zm-3.799-.079a4.947 4.947 0 0 1-.689-.368l.229-.364c.2.129.412.242.63.337l-.17.395zm5.127-.743-.281-.324a4.16 4.16 0 0 0 .492-.517l.33.273a4.778 4.778 0 0 1-.541.568zm-6.44-.099a4.76 4.76 0 0 1-.54-.569l.331-.271c.148.185.314.358.492.518l-.283.322zm7.426-1.114-.367-.219c.117-.202.225-.42.318-.647l.394.165a5.776 5.776 0 0 1-.345.701zm-8.406-.095a15.002 15.002 0 0 0-.406-.621l.352-.246c.145.213.284.425.416.639l-.362.228zm-.838-1.224c-.148-.197-.3-.393-.457-.586l.33-.273c.16.198.316.397.467.6l-.34.259zm9.84-.118-.411-.114c.063-.228.114-.467.155-.714l.422.071c-.045.26-.1.515-.166.757zm-10.777-1.036a18.349 18.349 0 0 0-.501-.548l.309-.299c.174.184.346.372.512.561l-.32.286zm11.032-.49-.425-.031c.017-.221.024-.449.024-.685l.427-.052c.001.299-.008.538-.026.768zm-12.054-.587a18.59 18.59 0 0 0-.541-.509l.285-.32c.188.169.371.342.553.519l-.297.31zm-15.731-.269-.348-.25c.15-.213.302-.417.456-.612l.333.268c-.149.189-.295.387-.441.594zm27.356-.65a12.718 12.718 0 0 0-.077-.736l.423-.058c.035.262.061.516.079.762l-.425.032zm-12.727-.075a16.968 16.968 0 0 0-.578-.463l.258-.342c.2.153.398.311.592.473l-.272.332zm-13.713-.432-.315-.29c.174-.194.352-.377.531-.55l.294.311c-.172.167-.341.343-.51.529zm12.537-.468a15.566 15.566 0 0 0-.613-.41l.227-.365c.213.135.424.275.631.421l-.245.354zm-11.481-.55-.271-.333c.202-.167.405-.321.611-.464l.242.355c-.196.136-.39.284-.582.442zm10.236-.24a14.603 14.603 0 0 0-.649-.349l.189-.386c.226.113.448.234.669.359l-.209.376zm-9.036-.59-.209-.375c.223-.127.454-.244.685-.347l.173.394a6.927 6.927 0 0 0-.649.328zm7.72-.073c-.227-.099-.454-.19-.683-.274l.146-.405c.236.087.471.182.705.284l-.168.395zm-1.378-.504c-.236-.07-.473-.131-.709-.184l.091-.42c.246.054.493.118.737.19l-.119.414zm-5.018-.015-.134-.409c.24-.08.489-.149.74-.208l.094.421a7.094 7.094 0 0 0-.7.196zm3.59-.298a8.392 8.392 0 0 0-.725-.072l.023-.43c.254.015.507.04.76.075l-.058.427zm-2.176-.025-.053-.427c.252-.033.51-.053.764-.06l.013.43a7.646 7.646 0 0 0-.724.057zm30.781 31.071-.342-.258c.002-.002.161-.219.388-.615l.369.215c-.24.422-.408.649-.415.658zm.772-1.337-.382-.19c.099-.201.202-.428.305-.674l.393.167a12.3 12.3 0 0 1-.316.697zm.592-1.411-.402-.145c.078-.223.155-.459.228-.705l.409.121c-.075.255-.155.499-.235.729zm.431-1.468-.415-.1c.055-.233.105-.476.15-.726l.42.076c-.047.259-.1.509-.155.75zm.268-1.507-.422-.053c.029-.24.053-.486.07-.738l.426.029a12.7 12.7 0 0 1-.074.762zm.108-1.525-.428-.007.002-.206c0-.177-.004-.355-.01-.537l.426-.016c.007.188.011.371.011.553l-.001.213zm-.485-1.49c-.016-.158-.033-.32-.053-.482l.422-.055c.021.168.039.333.055.498l-.424.039z"/><path fill="#73432F" d="M63.391 59.415c-9.376 1.241-28.997-7.516-35.188-14.934-7.073-8.474-10.745-12.719-24.194-22.709-.465-.346-.745.65-.421.834 15.328 11.67 17.943 15.935 24.005 22.772 8.027 9.052 26.914 16.339 35.675 14.858.076.001.493-.87.123-.821z"/><path fill="#1A1626" d="M38.926 20.532c-.37.727-1.183.171-.813-.554.368-.723 1.181-.17.813.554z"/><path fill="#594640" d="M38.399 20.205c-.424.727 2.396.084 2.321-.479-.078-.592-1.972-.119-2.321.479z"/><path fill="#1A1626" d="M39.981 23.38c-.369.724-1.183.172-.814-.556.369-.722 1.18-.172.814.556z"/><path fill="#594640" d="M39.455 23.051c-.423.727 2.394.085 2.319-.479-.08-.593-1.97-.117-2.319.479z"/><path fill="#1A1626" d="M40.733 26.516c-.37.726-1.182.173-.813-.551.37-.726 1.183-.172.813.551z"/><path fill="#594640" d="M40.21 26.19c-.428.727 2.395.086 2.316-.481-.076-.591-1.968-.121-2.316.481z"/><path fill="#1A1626" d="M41.448 29.82c-.37.724-1.182.172-.814-.553.367-.724 1.18-.172.814.553z"/><path fill="#594640" d="M40.921 29.493c-.423.726 2.396.084 2.32-.479-.078-.592-1.97-.118-2.32.479z"/></svg>