<svg xmlns="http://www.w3.org/2000/svg" xml:space="preserve" style="enable-background:new 0 0 64 64" viewBox="0 0 64 64"><path d="M26.292 25.76c-8.835-3.49-20.473-2.672-21.943-.721-1.73 2.297-1.6 9.164 1.473 13.815 1.951 2.953 16.238 3.63 19.218-.361 4.418-5.918 2.758-12.137 1.252-12.733zm33.362-.721c-1.47-1.951-13.109-2.769-21.943.722-1.506.595-3.166 6.814 1.252 12.732 2.98 3.991 17.267 3.314 19.218.36 3.073-4.65 3.203-11.517 1.473-13.814z" style="opacity:.6;fill:#cae8f0"/><linearGradient id="a" x1="15.569" x2="15.569" y1="40.084" y2="24.554" gradientUnits="userSpaceOnUse"><stop offset="0" style="stop-color:#fff;stop-opacity:0"/><stop offset="1" style="stop-color:#fff"/></linearGradient><path d="M15.33 40.084c-4.322 0-7.867-.968-8.464-1.873C4.1 34.025 3.968 27.575 5.35 25.743c.42-.43 2.969-1.189 7.32-1.189 4.461 0 9.118.79 12.777 2.167.265.1.472.28.596.525.127.246.307.68.442 1.346.22 1.093.697 4.99-2.447 9.201-1.04 1.391-4.458 2.29-8.707 2.29z" style="fill:url(#a)"/><linearGradient id="b" x1="48.435" x2="48.435" y1="40.084" y2="24.554" gradientUnits="userSpaceOnUse"><stop offset="0" style="stop-color:#fff;stop-opacity:0"/><stop offset="1" style="stop-color:#fff"/></linearGradient><path d="M48.674 40.084c-4.25 0-7.67-.9-8.708-2.29-3.14-4.206-2.667-8.105-2.448-9.2.137-.678.319-1.112.448-1.358.123-.236.334-.42.593-.517 3.65-1.376 8.306-2.165 12.775-2.165 4.352 0 6.907.765 7.307 1.175 1.4 1.853 1.262 8.297-1.5 12.482-.6.905-4.145 1.873-8.467 1.873z" style="fill:url(#b)"/><path d="M48.603 43c-2.01 0-8.747-.226-11.004-3.144-1.957-2.53-2.606-5.16-3.126-7.273-.674-2.719-1.037-3.67-2.472-3.67-1.433 0-1.796.95-2.47 3.67-.523 2.116-1.176 4.75-3.127 7.273C24.147 42.774 17.411 43 15.4 43c-4.275 0-9.443-.816-11.125-3.104-2.46-3.356-3.032-7.426-3.155-12.908l-.003-.12-.202-.14c-.393-.261-.88-.584-.88-1.128 0-.206-.007-.435-.015-.667-.045-1.265-.095-2.688.819-2.836C5.39 21.36 9.369 21 13.003 21c6.452 0 10.323 1.153 13.435 2.08 2.08.62 3.719 1.106 5.563 1.106 1.842 0 3.474-.485 5.54-1.099 3.13-.933 7.005-2.087 13.46-2.087 3.633 0 7.612.359 12.164 1.096.845.138.871 1.302.818 2.81a19.8 19.8 0 0 0-.016.695c0 .544-.49.868-.847 1.104l-.233.16-.003.121c-.124 5.484-.695 9.556-3.158 12.909C58.045 42.185 52.878 43 48.603 43zm2.73-18.947c-4.7 0-9.562.856-13.34 2.349-.153.09-.51.477-.797 1.416-.713 2.321-.521 6.405 2.366 10.274 1.129 1.515 4.706 2.492 9.111 2.492 4.695 0 8.206-1.067 8.888-2.1 3.11-4.705 2.829-11.273 1.497-13.04-.436-.579-3.121-1.391-7.725-1.391zm-38.663 0c-4.604 0-7.289.812-7.725 1.389-1.332 1.77-1.613 8.339 1.497 13.042.683 1.033 4.194 2.1 8.888 2.1 4.405 0 7.982-.978 9.112-2.492 2.886-3.866 3.078-7.951 2.365-10.274-.279-.912-.63-1.318-.776-1.406-3.805-1.506-8.662-2.36-13.36-2.36z" style="fill:#365f99"/><linearGradient id="c" x1="32.002" x2="32.002" y1="42.521" y2="21.479" gradientUnits="userSpaceOnUse"><stop offset=".38" style="stop-color:#ccfeff;stop-opacity:.05"/><stop offset="1" style="stop-color:#ccfeff;stop-opacity:.2"/></linearGradient><path d="M48.603 42.52c-4.023 0-8.922-.775-10.606-2.953-1.893-2.446-2.53-5.022-3.043-7.092-.6-2.434-.998-4.041-2.953-4.041-1.954 0-2.35 1.607-2.952 4.038-.512 2.07-1.148 4.647-3.042 7.095-1.684 2.178-6.583 2.954-10.607 2.954-3.962 0-9.146-.76-10.72-2.904-2.406-3.277-2.958-7.351-3.068-12.864l-.002-.098-.072-.07a3.07 3.07 0 0 0-.341-.251c-.343-.228-.664-.441-.664-.733 0-.216-.01-.458-.018-.7-.032-.9-.079-2.253.406-2.33 4.522-.734 8.474-1.092 12.082-1.092 6.368 0 10.205 1.142 13.288 2.06 2.117.63 3.789 1.127 5.71 1.127 1.923 0 3.594-.498 5.71-1.127 3.081-.918 6.916-2.06 13.29-2.06 3.607 0 7.559.358 12.082 1.09.485.08.437 1.43.404 2.322-.01.303-.016.517-.016.71 0 .29-.321.504-.631.71a3.07 3.07 0 0 0-.375.275l-.071.07-.002.097c-.111 5.513-.664 9.587-3.07 12.864-1.573 2.144-6.758 2.904-10.719 2.904zm2.731-18.947c-4.764 0-9.695.87-13.528 2.385-.384.152-.811.828-1.086 1.723-.745 2.426-.553 6.683 2.439 10.692 1.24 1.66 4.884 2.692 9.514 2.692 4.503 0 8.416-.976 9.305-2.32 3.123-4.728 3.052-11.501 1.48-13.586-.694-.92-4.11-1.586-8.124-1.586zm-38.664 0c-4.015 0-7.432.667-8.126 1.586-1.57 2.087-1.642 8.86 1.48 13.585.889 1.345 4.803 2.32 9.306 2.32 4.629 0 8.274-1.03 9.514-2.691 2.992-4.009 3.184-8.266 2.44-10.692-.275-.895-.701-1.572-1.085-1.723-3.834-1.516-8.766-2.385-13.529-2.385z" style="fill:url(#c)"/></svg>