<svg xmlns="http://www.w3.org/2000/svg" xml:space="preserve" viewBox="0 0 64 64"><radialGradient id="a" cx="19.686" cy="45.326" r="32.796" gradientTransform="matrix(1.0667 0 0 .7245 20.625 2.084)" gradientUnits="userSpaceOnUse"><stop offset="0" style="stop-color:#fcc223"/><stop offset=".275" style="stop-color:#f9be20"/><stop offset=".555" style="stop-color:#eeb218"/><stop offset=".838" style="stop-color:#de9d0a"/><stop offset="1" style="stop-color:#d18e00"/></radialGradient><path fill="url(#a)" d="M58.015 25.491c9.993 2.138 9.34 19.833-16.475 25.781C13.996 57.62 3.828 48.295.75 43.15c-6.104-10.206 26.11-24.324 57.265-17.659z"/><path fill="#014D87" d="M.538 43.508c12.264 1.822 15.329-6.742 20.531-9.695-7.402-3.404-6.581 5.115-17.246 6.266-2.12.228-3.285 3.429-3.285 3.429z"/><path fill="#006DAE" d="M7.506 47.088c-1.337 1.234 1.844 7.626 2.473 6.847 7.979-9.876 10.66-17.738 10.712-19.536-5.597-.95-2.841 3.146-13.185 12.689z"/><radialGradient id="b" cx="68.914" cy="-30.642" r="9.148" gradientTransform="matrix(1.8857 -.3743 .3356 2.117 -94.39 104.618)" gradientUnits="userSpaceOnUse"><stop offset="0" style="stop-color:#fcc223"/><stop offset=".275" style="stop-color:#f9be20"/><stop offset=".555" style="stop-color:#eeb218"/><stop offset=".838" style="stop-color:#de9d0a"/><stop offset="1" style="stop-color:#d18e00"/></radialGradient><path fill="url(#b)" d="M45.425 26.513c1.439 9.075-27.835 14.887-29.274 5.81-1.973-12.444.543-19.665 11.633-21.866 11.086-2.202 15.668 3.608 17.641 16.056z"/><radialGradient id="c" cx="4.393" cy="36.207" r="13.151" gradientTransform="matrix(1.0667 0 0 .9014 20.625 -2.873)" gradientUnits="userSpaceOnUse"><stop offset="0" style="stop-color:#019be0"/><stop offset="1" style="stop-color:#0174a8"/></radialGradient><path fill="url(#c)" d="M45.425 26.513c-.115-.72-.24-1.413-.373-2.088-5.637 7.712-21.527 10.866-29.195 5.797.083.683.179 1.382.294 2.102 1.668 10.53 30.943 4.719 29.274-5.811z"/></svg>