<svg xmlns="http://www.w3.org/2000/svg" xml:space="preserve" viewBox="0 0 64 64"><linearGradient id="a" x1="50.109" x2="50.109" y1="41.305" y2="5.003" gradientUnits="userSpaceOnUse"><stop offset="0" style="stop-color:#f6bec1"/><stop offset="1" style="stop-color:#f6d6d8"/></linearGradient><path fill="url(#a)" d="M58.998 41.283s-10.24.342-12.884-1.724c-1.555-1.214-5.865-21.457-5.865-21.457s1.896-11.956 5.514-13.067c1.865-.514 13.235 5.186 13.235 5.186s2.19 11.89 0 31.062z"/><linearGradient id="b" x1="60.499" x2="60.499" y1="41.283" y2="10.221" gradientUnits="userSpaceOnUse"><stop offset="0" style="stop-color:#c7617f"/><stop offset=".028" style="stop-color:#cc6986"/><stop offset=".148" style="stop-color:#de86a0"/><stop offset=".268" style="stop-color:#eb9ab2"/><stop offset=".386" style="stop-color:#f3a7bd"/><stop offset=".5" style="stop-color:#f6abc1"/><stop offset=".614" style="stop-color:#f3a7bd"/><stop offset=".732" style="stop-color:#eb9ab2"/><stop offset=".852" style="stop-color:#de86a0"/><stop offset=".972" style="stop-color:#cc6986"/><stop offset="1" style="stop-color:#c7617f"/></linearGradient><path fill="url(#b)" d="M62 41.283h-3.002V10.221L62 11.294z"/><linearGradient id="c" x1="13.89" x2="13.89" y1="41.305" y2="5.003" gradientUnits="userSpaceOnUse"><stop offset="0" style="stop-color:#f6bec1"/><stop offset="1" style="stop-color:#f6d6d8"/></linearGradient><path fill="url(#c)" d="M5.001 41.283s10.24.342 12.886-1.724c1.554-1.214 5.864-21.457 5.864-21.457S21.854 6.146 18.237 5.035c-1.864-.514-13.236 5.186-13.236 5.186s-2.188 11.89 0 31.062z"/><linearGradient id="d" x1="3.501" x2="3.501" y1="41.283" y2="10.221" gradientUnits="userSpaceOnUse"><stop offset="0" style="stop-color:#c7617f"/><stop offset=".028" style="stop-color:#cc6986"/><stop offset=".148" style="stop-color:#de86a0"/><stop offset=".268" style="stop-color:#eb9ab2"/><stop offset=".386" style="stop-color:#f3a7bd"/><stop offset=".5" style="stop-color:#f6abc1"/><stop offset=".614" style="stop-color:#f3a7bd"/><stop offset=".732" style="stop-color:#eb9ab2"/><stop offset=".852" style="stop-color:#de86a0"/><stop offset=".972" style="stop-color:#cc6986"/><stop offset="1" style="stop-color:#c7617f"/></linearGradient><path fill="url(#d)" d="M2 41.283h3.001V10.221L2 11.294z"/><linearGradient id="e" x1="32.026" x2="32.026" y1="64" y2="25.352" gradientUnits="userSpaceOnUse"><stop offset="0" style="stop-color:#f6bec1"/><stop offset="1" style="stop-color:#f6d6d8"/></linearGradient><path fill="url(#e)" d="M44.712 60.843c0 4.21-25.423 4.21-25.423 0 0-2.459.029-29.525 3.519-33.271 2.889-3.102 15.135-2.818 18.385 0 4.267 3.699 3.519 30.81 3.519 33.271z"/><linearGradient id="f" x1="26.591" x2="37.409" y1="6.746" y2="6.746" gradientUnits="userSpaceOnUse"><stop offset="0" style="stop-color:#c74067"/><stop offset=".112" style="stop-color:#d2587b"/><stop offset=".244" style="stop-color:#db6c8d"/><stop offset=".374" style="stop-color:#e17997"/><stop offset=".5" style="stop-color:#e37d9b"/><stop offset=".626" style="stop-color:#e17997"/><stop offset=".756" style="stop-color:#db6c8d"/><stop offset=".888" style="stop-color:#d2587b"/><stop offset="1" style="stop-color:#c74067"/></linearGradient><path fill="url(#f)" d="M26.591 0h10.818L32 13.492z"/><path fill="#E09CB0" d="M26.591 2.548h10.818L32 14.999z"/><linearGradient id="g" x1="27.371" x2="27.371" y1="18.065" y2="1.485" gradientUnits="userSpaceOnUse"><stop offset="0" style="stop-color:#f6bec1"/><stop offset="1" style="stop-color:#f6d6d8"/></linearGradient><path fill="url(#g)" d="M24.638 1.485s-5.902 2.469-6.316 3.528c0 0 1.31 10.208 4.486 12.265 2.724 1.771 13.611 0 13.611 0L24.638 1.485z"/><linearGradient id="h" x1="25.668" x2="31.73" y1=".917" y2="11.354" gradientUnits="userSpaceOnUse"><stop offset="0" style="stop-color:#c7617f"/><stop offset=".028" style="stop-color:#cc6986"/><stop offset=".148" style="stop-color:#de86a0"/><stop offset=".268" style="stop-color:#eb9ab2"/><stop offset=".386" style="stop-color:#f3a7bd"/><stop offset=".5" style="stop-color:#f6abc1"/><stop offset=".614" style="stop-color:#f3a7bd"/><stop offset=".732" style="stop-color:#eb9ab2"/><stop offset=".852" style="stop-color:#de86a0"/><stop offset=".972" style="stop-color:#cc6986"/><stop offset="1" style="stop-color:#c7617f"/></linearGradient><path fill="url(#h)" d="m26.591 0-1.953 1.485 9.078 15.793h2.703z"/><linearGradient id="i" x1="36.63" x2="36.63" y1="18.065" y2="1.485" gradientUnits="userSpaceOnUse"><stop offset="0" style="stop-color:#f6bec1"/><stop offset="1" style="stop-color:#f6d6d8"/></linearGradient><path fill="url(#i)" d="M39.362 1.485s5.902 2.469 6.316 3.528c0 0-1.311 10.208-4.486 12.265-2.725 1.771-13.611 0-13.611 0L39.362 1.485z"/><linearGradient id="j" x1="29.073" x2="38.198" y1="17.217" y2=".967" gradientUnits="userSpaceOnUse"><stop offset="0" style="stop-color:#c7617f"/><stop offset=".028" style="stop-color:#cc6986"/><stop offset=".148" style="stop-color:#de86a0"/><stop offset=".268" style="stop-color:#eb9ab2"/><stop offset=".386" style="stop-color:#f3a7bd"/><stop offset=".5" style="stop-color:#f6abc1"/><stop offset=".614" style="stop-color:#f3a7bd"/><stop offset=".732" style="stop-color:#eb9ab2"/><stop offset=".852" style="stop-color:#de86a0"/><stop offset=".972" style="stop-color:#cc6986"/><stop offset="1" style="stop-color:#c7617f"/></linearGradient><path fill="url(#j)" d="m37.409 0 1.953 1.485-9.077 15.793h-2.704z"/><radialGradient id="k" cx="35.383" cy="23.707" r="7.455" gradientTransform="matrix(.9939 0 0 2.5427 -3.167 -37.857)" gradientUnits="userSpaceOnUse"><stop offset=".449" style="stop-color:#ab0e73"/><stop offset=".704" style="stop-color:#9f0d6b"/><stop offset="1" style="stop-color:#8c0b5e"/></radialGradient><path fill="url(#k)" d="M22.808 17.278h18.385v10.294H22.808z"/><linearGradient id="l" x1="29.409" x2="47.999" y1="-875.953" y2="-875.953" gradientTransform="matrix(.989 0 0 .1228 -6.253 129.993)" gradientUnits="userSpaceOnUse"><stop offset="0" style="stop-color:#a67410"/><stop offset=".071" style="stop-color:#bd8516"/><stop offset=".18" style="stop-color:#da9b1d"/><stop offset=".289" style="stop-color:#ea2"/><stop offset=".397" style="stop-color:#fbb425"/><stop offset=".5" style="stop-color:#ffb726"/><stop offset=".604" style="stop-color:#fbb425"/><stop offset=".711" style="stop-color:#ea2"/><stop offset=".82" style="stop-color:#da9b1d"/><stop offset=".929" style="stop-color:#bd8516"/><stop offset="1" style="stop-color:#a67410"/></linearGradient><path fill="url(#l)" d="M22.833 21.795h18.385v1.261H22.833z"/><path fill="#FF9CC3" d="M39.633 55.657c-.762-.177-2.17.604-1.231 1.183.519.801 1.265-.377 1.231-1.183z"/><path fill="#FF9CC3" d="M39.64 55.664c-.375-1.057-1.618-1.688-1.607-.452-.352.897.988.92 1.607.452z"/><path fill="#FF9CC3" d="M39.628 55.661c-.49-.643-.531-2.095.449-1.695 1.369.241.248 1.367-.449 1.695z"/><path fill="#FF9CC3" d="M39.634 55.659c.494-.638 2.201-.861 1.659.124.06.968-1.216.533-1.659-.124z"/><path fill="#FF9CC3" d="M39.636 55.655c.75.227 1.729 1.679.559 1.659-1.012.431-1.007-.924-.559-1.659zm-1.844-5.759c-.926-.111-2.493.998-1.307 1.563.721.88 1.453-.613 1.307-1.563z"/><path fill="#FF9CC3" d="M37.802 49.901c-.583-1.203-2.139-1.79-1.966-.325-.3 1.109 1.292.962 1.966.325z"/><path fill="#FF9CC3" d="M37.787 49.9c-.665-.698-.902-2.413.311-2.069 1.656.108.472 1.59-.311 2.069z"/><path fill="#FF9CC3" d="M37.793 49.898c.503-.821 2.497-1.31 1.983-.07.198 1.14-1.371.79-1.983.07z"/><path fill="#FF9CC3" d="M37.796 49.893c.918.17 2.27 1.765.879 1.895-1.145.641-1.314-.968-.879-1.895z"/><path fill="#FFE6F0" d="M43.04 51.203c-.655.149-1.449 1.282-.508 1.376.703.423.838-.767.508-1.376z"/><path fill="#FFE6F0" d="M43.048 51.205c-.688-.675-1.885-.694-1.412.256.066.825 1.109.339 1.412-.256z"/><path fill="#FFE6F0" d="M43.038 51.208c-.621-.313-1.197-1.418-.291-1.479 1.148-.328.705.964.291 1.479z"/><path fill="#FFE6F0" d="M43.041 51.205c.142-.679 1.376-1.494 1.328-.528.41.724-.738.867-1.328.528z"/><path fill="#FFE6F0" d="M43.042 51.2c.664-.107 1.967.646 1.055 1.071-.62.713-1.125-.336-1.055-1.071z"/><path fill="#FFDBDB" d="M40.222 45.369c-.697-.119-1.926.659-1.049 1.131.51.695 1.121-.405 1.049-1.131z"/><path fill="#FFDBDB" d="M40.228 45.375c-.394-.933-1.548-1.438-1.475-.322-.27.826.94.778 1.475.322z"/><path fill="#FFDBDB" d="M40.217 45.374c-.476-.554-.589-1.86.315-1.553 1.248.147.295 1.222-.315 1.553z"/><path fill="#FFDBDB" d="M40.222 45.373c.412-.602 1.939-.894 1.503.023.104.871-1.068.544-1.503-.023z"/><path fill="#FFDBDB" d="M40.224 45.368c.688.165 1.646 1.425.59 1.468-.89.44-.956-.782-.59-1.468z"/><path fill="#FF9CC3" d="M29.388 53.144c-.641-.084-1.732.674-.914 1.072.492.614 1.007-.414.914-1.072z"/><path fill="#FF9CC3" d="M29.394 53.147c-.396-.836-1.469-1.253-1.357-.238-.216.765.886.675 1.357.238z"/><path fill="#FF9CC3" d="M29.384 53.146c-.455-.487-.608-1.675.229-1.429 1.144.086.316 1.103-.229 1.429z"/><path fill="#FF9CC3" d="M29.388 53.146c.354-.564 1.736-.89 1.373-.036.129.789-.953.536-1.373.036z"/><path fill="#FF9CC3" d="M29.39 53.142c.635.123 1.559 1.236.596 1.315-.798.437-.903-.677-.596-1.315z"/><path fill="#FFE6F0" d="M33.972 55.307c-.713.323-1.357 1.803-.258 1.692.901.318.777-1.072.258-1.692z"/><path fill="#FFE6F0" d="M33.981 55.308c-.941-.61-2.316-.355-1.554.622.267.925 1.347.128 1.554-.622z"/><path fill="#FFE6F0" d="M33.971 55.313c-.781-.212-1.698-1.341-.677-1.621 1.236-.644 1.031.935.677 1.621z"/><path fill="#FFE6F0" d="M33.974 55.309c.005-.809 1.225-2.028 1.395-.914.638.733-.641 1.165-1.395.914z"/><path fill="#FFE6F0" d="M33.974 55.304c.734-.277 2.398.28 1.456.979-.543.958-1.365-.124-1.456-.979z"/><path fill="#FFDBDB" d="M32.208 49.13c-.846.213-1.841 1.702-.617 1.798.922.527 1.061-1.018.617-1.798z"/><path fill="#FFDBDB" d="M32.219 49.133c-.909-.854-2.462-.848-1.823.372.108 1.065 1.447.407 1.823-.372z"/><path fill="#FFDBDB" d="M32.205 49.137c-.813-.387-1.591-1.803-.419-1.907 1.48-.459.942 1.227.419 1.907z"/><path fill="#FFDBDB" d="M32.21 49.133c.165-.883 1.74-1.975 1.705-.723.554.929-.932 1.146-1.705.723z"/><path fill="#FFDBDB" d="M32.21 49.127c.857-.158 2.566.782 1.398 1.358-.785.942-1.466-.404-1.398-1.358z"/><path fill="#FF9CC3" d="M29.063 44.331c-.925-.126-2.51.958-1.332 1.541.707.893 1.463-.589 1.332-1.541z"/><path fill="#FF9CC3" d="M29.073 44.337c-.564-1.212-2.111-1.824-1.961-.356-.317 1.103 1.277.982 1.961.356z"/><path fill="#FF9CC3" d="M29.058 44.336c-.653-.709-.863-2.428.344-2.063 1.654.133.447 1.596-.344 2.063z"/><path fill="#FF9CC3" d="M29.063 44.334c.517-.813 2.519-1.27 1.984-.039.181 1.143-1.382.768-1.984.039z"/><path fill="#FF9CC3" d="M29.067 44.328c.915.186 2.24 1.801.848 1.908-1.154.623-1.297-.987-.848-1.908z"/><path fill="#FFE6F0" d="M34.464 44.144c-.645.027-1.592.959-.719 1.212.59.521.924-.58.719-1.212z"/><path fill="#FFE6F0" d="M34.471 44.147c-.531-.756-1.658-.985-1.378-.004-.081.791.988.513 1.378.004z"/><path fill="#FFE6F0" d="M34.461 44.147c-.531-.401-.884-1.547-.019-1.445 1.143-.11.5 1.032.019 1.445z"/><path fill="#FFE6F0" d="M34.464 44.146c.253-.616 1.561-1.171 1.347-.268.26.756-.849.691-1.347.268z"/><path fill="#FFE6F0" d="M34.466 44.142c.646.015 1.744.953.811 1.195-.712.565-1.005-.514-.811-1.195zM24.997 30.46c-.638-.093-1.741.646-.931 1.057.483.623 1.016-.397.931-1.057z"/><path fill="#FFE6F0" d="M25.003 30.465c-.381-.841-1.446-1.276-1.353-.26-.227.761.876.688 1.353.26z"/><path fill="#FFE6F0" d="M24.994 30.463c-.448-.493-.581-1.684.251-1.423 1.142.104.298 1.106-.251 1.423z"/><path fill="#FFE6F0" d="M24.997 30.463c.362-.559 1.75-.86 1.373-.013.116.79-.962.521-1.373.013z"/><path fill="#FFE6F0" d="M25 30.458c.632.135 1.536 1.261.574 1.325-.803.424-.891-.691-.574-1.325zm25.804.374c-.643.11-1.471 1.168-.563 1.31.66.446.852-.703.563-1.31z"/><path fill="#FFE6F0" d="M50.812 30.836c-.631-.69-1.792-.774-1.383.174.021.803 1.058.386 1.383-.174z"/><path fill="#FFE6F0" d="M50.802 30.836c-.585-.334-1.088-1.438-.206-1.447 1.132-.26.635.969.206 1.447z"/><path fill="#FFE6F0" d="M50.805 30.836c.174-.653 1.413-1.38 1.316-.446.36.723-.761.803-1.316.446z"/><path fill="#FFE6F0" d="M50.806 30.829c.65-.069 1.875.729.969 1.095-.639.659-1.074-.386-.969-1.095zm-12.032-.658c-.654-.139-1.844.552-1.033 1.031.458.675 1.076-.345 1.033-1.031z"/><path fill="#FFE6F0" d="M38.78 30.177c-.339-.896-1.41-1.416-1.382-.359-.285.773.861.769 1.382.359z"/><path fill="#FFE6F0" d="M38.771 30.174c-.431-.539-.489-1.78.354-1.455 1.173.182.233 1.164-.354 1.455z"/><path fill="#FFE6F0" d="M38.773 30.174c.412-.554 1.866-.774 1.42.077.068.825-1.028.476-1.42-.077z"/><path fill="#FFE6F0" d="M38.776 30.17c.645.181 1.504 1.404.505 1.407-.857.384-.874-.773-.505-1.407zm4.086 29.118c-.645.027-1.591.959-.719 1.212.591.521.925-.579.719-1.212z"/><path fill="#FFE6F0" d="M42.87 59.292c-.531-.756-1.658-.985-1.378-.004-.081.79.988.513 1.378.004z"/><path fill="#FFE6F0" d="M42.86 59.292c-.531-.401-.885-1.547-.019-1.445 1.142-.111.5 1.032.019 1.445z"/><path fill="#FFE6F0" d="M42.863 59.291c.253-.616 1.56-1.171 1.347-.268.261.755-.849.691-1.347.268z"/><path fill="#FFE6F0" d="M42.864 59.286c.646.015 1.744.953.811 1.195-.71.566-1.004-.513-.811-1.195z"/><path fill="#FFDBDB" d="M32.182 39.679c-.878.315-1.784 2.008-.47 1.982 1.039.466 1.025-1.197.47-1.982z"/><path fill="#FFDBDB" d="M32.193 39.681c-1.06-.815-2.714-.646-1.904.588.228 1.124 1.586.282 1.904-.588z"/><path fill="#FFDBDB" d="M32.18 39.687c-.907-.328-1.886-1.756-.647-1.99 1.53-.644 1.133 1.21.647 1.99z"/><path fill="#FFDBDB" d="M32.185 39.682c.083-.958 1.648-2.288 1.742-.949.687.932-.873 1.319-1.742.949z"/><path fill="#FFDBDB" d="M32.184 39.676c.897-.259 2.819.564 1.633 1.302-.738 1.085-1.607-.279-1.633-1.302z"/><path fill="#FFE6F0" d="M46.653 14.805c-.619-.146-1.765.485-1.004.958.422.651 1.032-.304 1.004-.958z"/><path fill="#FFE6F0" d="M46.659 14.81c-.303-.858-1.313-1.375-1.307-.369-.287.725.803.748 1.307.369z"/><path fill="#FFE6F0" d="M46.649 14.808c-.397-.522-.428-1.702.367-1.378 1.114.2.2 1.113-.367 1.378z"/><path fill="#FFE6F0" d="M46.653 14.807c.402-.517 1.791-.697 1.349.104.047.788-.989.43-1.349-.104z"/><path fill="#FFE6F0" d="M46.655 14.804c.609.185 1.402 1.368.451 1.349-.823.347-.815-.754-.451-1.349zm-22.303 33.67c-.771.283-1.557 1.779-.401 1.748.917.402.895-1.06.401-1.748z"/><path fill="#FFE6F0" d="M24.362 48.476c-.938-.711-2.392-.55-1.672.529.208.989 1.397.238 1.672-.529z"/><path fill="#FFE6F0" d="M24.35 48.479c-.799-.281-1.67-1.531-.582-1.745 1.341-.577 1.004 1.058.582 1.745z"/><path fill="#FFE6F0" d="M24.354 48.477c.067-.845 1.436-2.024 1.527-.848.61.815-.759 1.168-1.527.848z"/><path fill="#FFE6F0" d="M24.354 48.472c.788-.234 2.484.478 1.445 1.134-.641.96-1.416-.235-1.445-1.134z"/><path fill="#FFDBDB" d="M22.258 43.26c-.613.025-1.513.91-.683 1.151.561.495.878-.55.683-1.151z"/><path fill="#FFDBDB" d="M22.265 43.263c-.505-.719-1.577-.936-1.31-.004-.078.751.94.488 1.31.004z"/><path fill="#FFDBDB" d="M22.255 43.264c-.505-.383-.84-1.471-.017-1.375 1.085-.105.474.981.017 1.375z"/><path fill="#FFDBDB" d="M22.258 43.262c.24-.585 1.482-1.113 1.28-.255.248.72-.807.657-1.28.255z"/><path fill="#FFDBDB" d="M22.259 43.258c.614.014 1.658.905.77 1.136-.675.537-.953-.489-.77-1.136zm22.211-24.51c-.613.025-1.514.91-.684 1.151.561.496.878-.549.684-1.151z"/><path fill="#FFDBDB" d="M44.476 18.751c-.504-.719-1.576-.936-1.309-.004-.078.751.939.488 1.309.004z"/><path fill="#FFDBDB" d="M44.466 18.752c-.504-.383-.84-1.471-.017-1.375 1.085-.105.475.981.017 1.375z"/><path fill="#FFDBDB" d="M44.47 18.75c.24-.585 1.482-1.113 1.279-.255.248.72-.807.657-1.279.255z"/><path fill="#FFDBDB" d="M44.471 18.746c.614.014 1.658.905.771 1.136-.677.537-.954-.488-.771-1.136zm11.9 15.816c-.69-.223-2.05.392-1.228.999.42.778 1.199-.251 1.228-.999z"/><path fill="#FFDBDB" d="M56.378 34.567c-.267-1.003-1.367-1.682-1.451-.539-.394.802.842.925 1.451.539z"/><path fill="#FFDBDB" d="M56.366 34.565c-.404-.632-.331-1.976.543-1.533 1.247.328.125 1.283-.543 1.533z"/><path fill="#FFDBDB" d="M56.371 34.564c.505-.551 2.099-.63 1.524.24-.019.9-1.164.4-1.524-.24z"/><path fill="#FFDBDB" d="M56.374 34.561c.676.266 1.469 1.682.39 1.574-.968.321-.859-.931-.39-1.574zM23.432 12.233c-.613.025-1.513.91-.683 1.151.561.496.878-.549.683-1.151z"/><path fill="#FFDBDB" d="M23.439 12.236c-.505-.719-1.577-.936-1.31-.004-.077.751.94.489 1.31.004z"/><path fill="#FFDBDB" d="M23.429 12.237c-.505-.383-.84-1.471-.017-1.375 1.086-.104.475.982.017 1.375z"/><path fill="#FFDBDB" d="M23.433 12.235c.24-.585 1.482-1.113 1.28-.255.247.72-.807.658-1.28.255z"/><path fill="#FFDBDB" d="M23.434 12.231c.614.014 1.658.905.77 1.136-.675.537-.954-.488-.77-1.136z"/><path fill="#FF9CC3" d="M40.3 34.56c-.693.241-1.418 1.568-.383 1.558.814.372.814-.936.383-1.558z"/><path fill="#FF9CC3" d="M40.31 34.561c-.828-.649-2.133-.526-1.504.449.172.887 1.247.234 1.504-.449z"/><path fill="#FF9CC3" d="M40.298 34.565c-.711-.265-1.473-1.396-.496-1.57 1.209-.497.885.96.496 1.57z"/><path fill="#FF9CC3" d="M40.302 34.562c.071-.754 1.313-1.79 1.379-.736.533.739-.698 1.032-1.379.736z"/><path fill="#FF9CC3" d="M40.301 34.557c.71-.196 2.216.463 1.277 1.035-.588.85-1.263-.23-1.277-1.035zm9.017-15.014c-.616-.079-1.663.653-.876 1.033.476.59.969-.4.876-1.033z"/><path fill="#FF9CC3" d="M49.324 19.547c-.383-.803-1.415-1.201-1.307-.226-.204.737.856.647 1.307.226z"/><path fill="#FF9CC3" d="M49.314 19.546c-.438-.468-.59-1.609.216-1.375 1.102.079.308 1.06-.216 1.375z"/><path fill="#FF9CC3" d="M49.318 19.545c.339-.544 1.667-.861 1.32-.038.127.76-.914.518-1.32.038z"/><path fill="#FF9CC3" d="M49.32 19.541c.61.116 1.503 1.185.577 1.265-.765.422-.869-.65-.577-1.265z"/><path fill="#FFE6F0" d="M54.472 21.454c-.74.031-1.828 1.102-.826 1.392.678.599 1.062-.665.826-1.392z"/><path fill="#FFE6F0" d="M54.479 21.459c-.61-.868-1.904-1.132-1.582-.005-.093.908 1.135.589 1.582.005z"/><path fill="#FFE6F0" d="M54.468 21.459c-.609-.461-1.014-1.776-.02-1.66 1.311-.127.573 1.185.02 1.66z"/><path fill="#FFE6F0" d="M54.472 21.458c.291-.708 1.791-1.345 1.547-.308.298.868-.975.793-1.547.308z"/><path fill="#FFE6F0" d="M54.474 21.452c.742.017 2.003 1.095.93 1.372-.815.65-1.152-.59-.93-1.372z"/><path fill="#FFDBDB" d="M51.485 25.397c-.613.025-1.514.91-.684 1.151.561.496.879-.549.684-1.151z"/><path fill="#FFDBDB" d="M51.491 25.4c-.504-.719-1.576-.936-1.309-.004-.078.751.94.489 1.309.004z"/><path fill="#FFDBDB" d="M51.481 25.401c-.504-.383-.84-1.471-.017-1.375 1.086-.104.475.982.017 1.375z"/><path fill="#FFDBDB" d="M51.485 25.399c.24-.585 1.482-1.113 1.279-.255.249.72-.806.658-1.279.255z"/><path fill="#FFDBDB" d="M51.486 25.396c.614.014 1.658.905.771 1.136-.676.536-.953-.489-.771-1.136z"/><path fill="#FFE6F0" d="M37.458 12.524c-.618.183-1.31 1.316-.402 1.351.7.362.757-.787.402-1.351z"/><path fill="#FFE6F0" d="M37.467 12.526c-.699-.604-1.849-.553-1.337.331.113.787 1.083.257 1.337-.331z"/><path fill="#FFE6F0" d="M37.457 12.529c-.612-.261-1.233-1.286-.368-1.398 1.08-.384.734.881.368 1.398z"/><path fill="#FFE6F0" d="M37.46 12.527c.096-.659 1.229-1.515 1.241-.587.437.669-.655.876-1.241.587z"/><path fill="#FFE6F0" d="M37.46 12.521c.631-.143 1.924.501 1.076.963-.551.722-1.098-.254-1.076-.963zM22.032 5.84c-.645.027-1.591.959-.718 1.212.59.521.924-.579.718-1.212z"/><path fill="#FFE6F0" d="M22.04 5.844c-.531-.756-1.658-.985-1.377-.004-.082.79.987.513 1.377.004z"/><path fill="#FFE6F0" d="M22.03 5.844c-.531-.401-.884-1.547-.018-1.445 1.142-.111.499 1.032.018 1.445z"/><path fill="#FFE6F0" d="M22.033 5.843c.252-.616 1.56-1.171 1.346-.268.262.755-.848.691-1.346.268z"/><path fill="#FFE6F0" d="M22.035 5.838c.646.015 1.744.953.81 1.195-.71.566-1.004-.513-.81-1.195z"/><path fill="#FFDBDB" d="M39.829 7.198c-.63-.138-1.782.524-1.001.991.439.654 1.04-.327 1.001-.991z"/><path fill="#FFDBDB" d="M39.835 7.203c-.322-.867-1.355-1.373-1.332-.353-.278.745.827.748 1.332.353z"/><path fill="#FFDBDB" d="M39.826 7.201c-.413-.524-.465-1.721.349-1.404 1.133.182.221 1.125-.349 1.404z"/><path fill="#FFDBDB" d="M39.829 7.2c.4-.532 1.807-.739 1.372.081.062.798-.996.454-1.372-.081z"/><path fill="#FFDBDB" d="M39.832 7.197c.622.176 1.448 1.363.482 1.361-.831.368-.841-.75-.482-1.361z"/><path fill="#FF9CC3" d="M25.843 8.688c-.645.026-1.592.958-.719 1.212.59.522.924-.579.719-1.212z"/><path fill="#FF9CC3" d="M25.85 8.691c-.532-.757-1.66-.985-1.378-.004-.082.791.989.514 1.378.004z"/><path fill="#FF9CC3" d="M25.84 8.692c-.532-.403-.884-1.548-.018-1.447 1.144-.11.5 1.033.018 1.447z"/><path fill="#FF9CC3" d="M25.844 8.69c.253-.616 1.56-1.172 1.347-.269.261.758-.849.692-1.347.269z"/><path fill="#FF9CC3" d="M25.845 8.687c.646.014 1.746.953.81 1.195-.71.565-1.003-.514-.81-1.195zm15.607 3.031c-.613.025-1.514.91-.684 1.151.561.495.878-.55.684-1.151z"/><path fill="#FF9CC3" d="M41.458 11.721c-.504-.719-1.576-.936-1.309-.004-.078.751.94.488 1.309.004z"/><path fill="#FF9CC3" d="M41.448 11.722c-.504-.383-.84-1.471-.017-1.375 1.086-.105.475.981.017 1.375z"/><path fill="#FF9CC3" d="M41.452 11.72c.24-.585 1.482-1.113 1.279-.255.248.72-.806.657-1.279.255z"/><path fill="#FF9CC3" d="M41.453 11.716c.614.014 1.658.905.771 1.136-.676.537-.953-.489-.771-1.136z"/><path fill="#FFDBDB" d="M26.739 60.924c-.633.123-1.431 1.186-.529 1.306.662.427.827-.711.529-1.306z"/><path fill="#FFDBDB" d="M26.747 60.926c-.639-.669-1.789-.726-1.364.202.038.794 1.055.36 1.364-.202z"/><path fill="#FFDBDB" d="M26.737 60.929c-.586-.319-1.106-1.398-.234-1.429 1.113-.28.648.947.234 1.429z"/><path fill="#FFDBDB" d="M26.74 60.926c.158-.647 1.367-1.392 1.292-.467.371.709-.735.811-1.292.467z"/><path fill="#FFDBDB" d="M26.741 60.922c.641-.083 1.869.681.98 1.061-.617.664-1.069-.358-.98-1.061z"/><path fill="#FF9CC3" d="M21.977 56.752c-.645.027-1.591.959-.718 1.212.59.521.924-.579.718-1.212z"/><path fill="#FF9CC3" d="M21.984 56.756c-.531-.756-1.658-.985-1.377-.004-.082.79.988.513 1.377.004z"/><path fill="#FF9CC3" d="M21.975 56.756c-.531-.401-.884-1.547-.018-1.445 1.142-.111.499 1.032.018 1.445z"/><path fill="#FF9CC3" d="M21.978 56.755c.252-.616 1.56-1.171 1.346-.268.261.755-.848.691-1.346.268z"/><path fill="#FF9CC3" d="M21.979 56.75c.646.015 1.744.953.81 1.195-.709.566-1.003-.513-.81-1.195z"/><path fill="#FFE6F0" d="M22.632 60.617c-.613.025-1.513.91-.683 1.151.561.496.878-.549.683-1.151z"/><path fill="#FFE6F0" d="M22.639 60.62c-.505-.719-1.577-.936-1.31-.004-.078.751.94.488 1.31.004z"/><path fill="#FFE6F0" d="M22.629 60.621c-.505-.383-.84-1.471-.017-1.375 1.085-.104.474.982.017 1.375z"/><path fill="#FFE6F0" d="M22.632 60.619c.24-.585 1.482-1.113 1.28-.255.248.72-.807.657-1.28.255z"/><path fill="#FFE6F0" d="M22.633 60.615c.614.014 1.658.905.77 1.136-.674.537-.953-.488-.77-1.136z"/><path fill="#FF9CC3" d="M28.702 34.853c-.671-.124-1.869.612-1.029 1.08.485.678 1.091-.377 1.029-1.08z"/><path fill="#FF9CC3" d="M28.709 34.858c-.369-.906-1.479-1.41-1.421-.331-.271.796.899.764 1.421.331z"/><path fill="#FF9CC3" d="M28.698 34.856c-.452-.542-.545-1.807.325-1.497 1.206.159.27 1.185-.325 1.497z"/><path fill="#FF9CC3" d="M28.702 34.855c.407-.575 1.888-.839 1.453.043.091.843-1.039.513-1.453-.043z"/><path fill="#FF9CC3" d="M28.705 34.852c.663.168 1.575 1.397.553 1.426-.867.414-.914-.769-.553-1.426zm27.286-5.845c-.818-.102-2.208.874-1.16 1.377.634.781 1.286-.536 1.16-1.377z"/><path fill="#FF9CC3" d="M56 29.013c-.512-1.065-1.886-1.591-1.737-.295-.27.979 1.138.855 1.737.295z"/><path fill="#FF9CC3" d="M55.987 29.011c-.586-.619-.79-2.137.281-1.828 1.464.101.413 1.408-.281 1.828z"/><path fill="#FF9CC3" d="M55.992 29.009c.447-.723 2.212-1.148 1.754-.055.171 1.01-1.216.694-1.754.055z"/><path fill="#FF9CC3" d="M55.994 29.005c.812.154 2.001 1.567.771 1.678-1.014.563-1.158-.86-.771-1.678zm-9.366-4.34c-.805.471-1.383 2.302-.097 2.034 1.107.267.788-1.365.097-2.034z"/><path fill="#FF9CC3" d="M46.64 24.664c-1.191-.606-2.787-.134-1.764.929.432 1.064 1.611-.015 1.764-.929z"/><path fill="#FF9CC3" d="M46.627 24.672c-.951-.154-2.177-1.378-1.003-1.836 1.385-.915 1.337.981 1.003 1.836z"/><path fill="#FF9CC3" d="M46.63 24.667c-.094-.958 1.199-2.553 1.539-1.255.846.789-.615 1.458-1.539 1.255z"/><path fill="#FF9CC3" d="M46.63 24.66c.834-.419 2.874.035 1.844.979-.524 1.203-1.63.023-1.844-.979z"/><path fill="#FFE6F0" d="M8.323 28.577c-.623-.167-1.804.44-1.048.942.408.674 1.056-.277 1.048-.942z"/><path fill="#FFE6F0" d="M8.329 28.583c-.281-.88-1.288-1.437-1.313-.416-.314.729.79.785 1.313.416z"/><path fill="#FFE6F0" d="M8.32 28.58c-.387-.542-.381-1.74.415-1.385 1.122.237.167 1.135-.415 1.385z"/><path fill="#FFE6F0" d="M8.323 28.58c.425-.513 1.838-.65 1.365.147.023.799-1.016.406-1.365-.147z"/><path fill="#FFE6F0" d="M8.326 28.576c.612.207 1.379 1.431.416 1.383-.847.327-.804-.79-.416-1.383z"/><path fill="#FF9CC3" d="M12.578 32.182c-.631.379-1.071 1.829-.058 1.605.876.2.609-1.084.058-1.605z"/><path fill="#FF9CC3" d="M12.587 32.181c-.946-.467-2.2-.08-1.383.749.35.835 1.272-.027 1.383-.749z"/><path fill="#FF9CC3" d="M12.577 32.187c-.752-.112-1.73-1.066-.808-1.439 1.084-.735 1.064.762.808 1.439z"/><path fill="#FF9CC3" d="M12.58 32.183c-.083-.754.922-2.024 1.202-1.004.676.615-.472 1.156-1.202 1.004z"/><path fill="#FF9CC3" d="M12.579 32.179c.655-.34 2.268.001 1.464.754-.402.955-1.286.034-1.464-.754z"/><path fill="#FFDBDB" d="M8.343 16.447c-.673.287-1.304 1.654-.276 1.573.834.316.747-.983.276-1.573z"/><path fill="#FFDBDB" d="M8.352 16.447c-.866-.588-2.153-.378-1.462.549.23.87 1.253.149 1.462-.549z"/><path fill="#FFDBDB" d="M8.341 16.453c-.725-.214-1.557-1.287-.599-1.526 1.167-.574.944.894.599 1.526z"/><path fill="#FFDBDB" d="M8.345 16.45c.021-.755 1.184-1.867 1.32-.825.58.699-.623 1.074-1.32.825z"/><path fill="#FFDBDB" d="M8.344 16.445c.69-.244 2.231.31 1.338.941-.526.885-1.269-.142-1.338-.941z"/><path fill="#FF9CC3" d="M18.182 26.389c-.645.026-1.592.958-.719 1.212.59.521.924-.58.719-1.212z"/><path fill="#FF9CC3" d="M18.189 26.392c-.532-.757-1.66-.985-1.378-.004-.082.79.989.513 1.378.004z"/><path fill="#FF9CC3" d="M18.179 26.393c-.532-.403-.884-1.548-.018-1.447 1.143-.111.5 1.033.018 1.447z"/><path fill="#FF9CC3" d="M18.183 26.391c.253-.616 1.56-1.172 1.347-.269.261.757-.849.691-1.347.269z"/><path fill="#FF9CC3" d="M18.184 26.387c.646.014 1.746.953.811 1.195-.711.565-1.004-.514-.811-1.195z"/><path fill="#FFE6F0" d="M17.397 32.466c-.592-.116-1.656.523-.918.944.422.604.967-.325.918-.944z"/><path fill="#FFE6F0" d="M17.402 32.471c-.318-.804-1.292-1.259-1.251-.305-.247.701.787.683 1.251.305z"/><path fill="#FFE6F0" d="M17.394 32.469c-.395-.481-.465-1.601.299-1.318 1.062.149.228 1.047-.299 1.318z"/><path fill="#FFE6F0" d="M17.397 32.469c.365-.506 1.674-.725 1.283.05.072.744-.923.443-1.283-.05z"/><path fill="#FFE6F0" d="M17.399 32.464c.584.154 1.377 1.248.476 1.264-.769.359-.801-.686-.476-1.264zm-3.795-12.82c-.823-.156-2.293.743-1.265 1.319.593.833 1.339-.46 1.265-1.319z"/><path fill="#FFE6F0" d="M13.612 19.65c-.449-1.111-1.805-1.733-1.739-.411-.336.975 1.097.94 1.739.411z"/><path fill="#FFE6F0" d="M13.6 19.647c-.554-.664-.662-2.215.402-1.832 1.476.198.327 1.452-.402 1.832z"/><path fill="#FFE6F0" d="M13.604 19.647c.5-.705 2.315-1.021 1.78.058.108 1.03-1.275.623-1.78-.058z"/><path fill="#FFE6F0" d="M13.607 19.641c.812.21 1.923 1.719.671 1.749-1.063.506-1.116-.945-.671-1.749z"/><path fill="#FFDBDB" d="M13.361 26.319c-.772-.146-2.152.699-1.185 1.24.557.781 1.255-.432 1.185-1.24z"/><path fill="#FFDBDB" d="M13.369 26.324c-.422-1.043-1.699-1.623-1.634-.383-.314.915 1.032.882 1.634.383z"/><path fill="#FFDBDB" d="M13.356 26.323c-.52-.624-.623-2.079.376-1.722 1.387.184.31 1.363-.376 1.722z"/><path fill="#FFDBDB" d="M13.361 26.321c.468-.661 2.172-.961 1.672.053.102.97-1.197.587-1.672-.053z"/><path fill="#FFDBDB" d="M13.364 26.317c.763.194 1.809 1.609.633 1.641-.997.476-1.049-.885-.633-1.641z"/><path fill="#FF9CC3" d="M8.38 22.453c-.88.311-1.793 2-.479 1.979 1.037.47 1.031-1.192.479-1.979z"/><path fill="#FF9CC3" d="M8.392 22.454c-1.056-.819-2.711-.657-1.907.579.223 1.127 1.584.29 1.907-.579z"/><path fill="#FF9CC3" d="M8.378 22.46c-.905-.331-1.878-1.765-.638-1.993 1.532-.637 1.127 1.217.638 1.993z"/><path fill="#FF9CC3" d="M8.382 22.455c.088-.959 1.659-2.28 1.748-.941.682.934-.88 1.315-1.748.941z"/><path fill="#FF9CC3" d="M8.382 22.449c.899-.255 2.816.576 1.627 1.309-.741 1.082-1.605-.285-1.627-1.309z"/><path fill="#FFE6F0" d="M25.77 39.683c-.923-.131-2.515.945-1.34 1.535.702.895 1.466-.581 1.34-1.535z"/><path fill="#FFE6F0" d="M25.779 39.69c-.557-1.216-2.101-1.837-1.958-.368-.323 1.103 1.271.99 1.958.368z"/><path fill="#FFE6F0" d="M25.765 39.688c-.65-.712-.85-2.433.355-2.062 1.652.145.438 1.6-.355 2.062z"/><path fill="#FFE6F0" d="M25.771 39.687c.521-.81 2.525-1.256 1.984-.027.174 1.143-1.388.759-1.984.027z"/><path fill="#FFE6F0" d="M25.773 39.681c.915.19 2.23 1.813.838 1.913-1.158.617-1.292-.995-.838-1.913z"/><path fill="#FFDBDB" d="M23.298 34.879c-.647.308-1.212 1.672-.209 1.552.83.278.694-.993.209-1.552z"/><path fill="#FFDBDB" d="M23.307 34.88c-.872-.544-2.125-.288-1.413.594.26.843 1.236.096 1.413-.594z"/><path fill="#FFDBDB" d="M23.297 34.885c-.718-.181-1.576-1.199-.646-1.473 1.121-.608.959.84.646 1.473z"/><path fill="#FFDBDB" d="M23.3 34.881c-.009-.739 1.088-1.875 1.262-.859.596.661-.569 1.076-1.262.859z"/><path fill="#FFDBDB" d="M23.299 34.876c.667-.266 2.199.218 1.348.871-.481.888-1.25-.089-1.348-.871z"/></svg>