<svg xmlns="http://www.w3.org/2000/svg" xml:space="preserve" viewBox="0 0 64 64"><linearGradient id="a" x1="-162" x2="-162" y1="108" y2="160" gradientTransform="matrix(1 0 0 -1 194 170)" gradientUnits="userSpaceOnUse"><stop offset="0" style="stop-color:#6eb9ff"/><stop offset="1" style="stop-color:#a8dbff"/></linearGradient><path fill="url(#a)" d="M59.723 62H4.275c-3.032.049-3.032-52.049 0-52h55.45c3.034-.049 3.034 52.049-.002 52z"/><path fill="#BAE2FF" d="M13.289 62h-1.492a444.387 444.387 0 0 1 0-52h1.492a483.897 483.897 0 0 0 0 52zm5.968 0h-1.492a665.936 665.936 0 0 1 0-52h1.492a760.2 760.2 0 0 0 0 52zm5.968 0h-1.492a1328.18 1328.18 0 0 1-.083-47.236h1.513c-.19 15.731-.169 31.517.062 47.236zM7.321 62H5.83a443.95 443.95 0 0 1 0-52h1.491a484.937 484.937 0 0 0 0 52zm43.391 0h1.492a444.387 444.387 0 0 0 0-52h-1.492a483.897 483.897 0 0 1 0 52zm-5.968 0h1.492a665.936 665.936 0 0 0 0-52h-1.492a760.2 760.2 0 0 1 0 52zm-5.968 0h1.492c.308-15.719.335-31.505.083-47.236h-1.513c.19 15.731.169 31.517-.062 47.236zm17.904 0h1.491a443.95 443.95 0 0 0 0-52H56.68c.93 17.307.93 34.693 0 52z"/><path fill="#0081CF" d="M31.998 16.601c-15.441 0-13.5-13.013-13.5-13.013 2.318-2.14 25.141-2.094 27 0 0 0 1.943 13.013-13.5 13.013z"/><path fill="#96D0FF" d="M44.676 11.72c0 6.508-25.354 6.508-25.354 0-.002-4.339 25.354-4.339 25.354 0z"/><linearGradient id="b" x1="-162" x2="-162" y1="108" y2="144.4" gradientTransform="matrix(1 0 0 -1 194 170)" gradientUnits="userSpaceOnUse"><stop offset=".206" style="stop-color:#ff3030"/><stop offset=".499" style="stop-color:#fd2f2f"/><stop offset=".64" style="stop-color:#f52b2b"/><stop offset=".748" style="stop-color:#e82525"/><stop offset=".84" style="stop-color:#d61c1c"/><stop offset=".92" style="stop-color:#be1010"/><stop offset=".993" style="stop-color:#a10101"/><stop offset="1" style="stop-color:#9e0000"/></linearGradient><path fill="url(#b)" d="M34.889 27.605c-.777-2.675-5-2.675-5.777 0C26.223 37.541 25.5 62 25.5 62h13s-.723-24.459-3.611-34.395z"/><radialGradient id="c" cx="227.58" cy="147.514" r="7.604" gradientTransform="matrix(.6667 0 0 -1 -119.728 170)" gradientUnits="userSpaceOnUse"><stop offset=".248" style="stop-color:#ff3030"/><stop offset="1" style="stop-color:#bd0000"/></radialGradient><path fill="url(#c)" d="M34.666 27.605c-.602.97-4.801 1.074-5.332 0C28.072 25.062 26 20.021 26 20.021s5.232-3.422 6-3.422c.77 0 6 3.422 6 3.422s-1.885 5.254-3.334 7.584z"/><path fill="#259ADE" d="M18.498 3.588 13.998 10s2.25 4.432 4.5 18.353l13.5-11.752s-13.5-5.224-13.5-13.013zm27 0 4.5 6.412s-2.25 4.432-4.5 18.353l-13.5-11.752s13.5-5.224 13.5-13.013z"/></svg>