<svg xmlns="http://www.w3.org/2000/svg" xml:space="preserve" viewBox="0 0 64 64"><linearGradient id="a" x1="502.944" x2="518.989" y1="34.678" y2="34.678" gradientTransform="matrix(-1 0 0 1 535.988 0)" gradientUnits="userSpaceOnUse"><stop offset="0" style="stop-color:#004b78"/><stop offset="1" style="stop-color:#0176ab"/></linearGradient><path fill="url(#a)" d="M17.028 16.626c.04-2.32.882-9.271.882-9.271h15.134l-1.047 15.188s-1.755 5.874-2.929 15.783C28.372 44.212 27.833 62 27.833 62H17.694s-.859-34.031-.666-45.374z"/><linearGradient id="b" x1="32.003" x2="47.001" y1="34.678" y2="34.678" gradientUnits="userSpaceOnUse"><stop offset="0" style="stop-color:#004b78"/><stop offset="1" style="stop-color:#0176ab"/></linearGradient><path fill="url(#b)" d="M46.973 16.626c-.04-2.32-.882-9.271-.882-9.271H32.003v15.188s1.757 5.874 2.931 15.783C35.631 44.212 36.168 62 36.168 62h10.138s.859-34.031.667-45.374z"/><radialGradient id="c" cx="514.019" cy="36.642" r="10.7" gradientTransform="matrix(-.9806 -.1656 -.4453 2.5934 543.854 24.276)" gradientUnits="userSpaceOnUse"><stop offset="0" style="stop-color:#ebf9ff;stop-opacity:.3"/><stop offset="1" style="stop-color:#ebf9ff;stop-opacity:0"/></radialGradient><path fill="url(#c)" d="M17.028 16.626c.04-2.32.882-9.271.882-9.271h15.134l-1.047 15.188s-1.755 5.874-2.929 15.783C28.372 44.212 27.833 62 27.833 62H17.694s-.859-34.031-.666-45.374z"/><radialGradient id="d" cx="-74.015" cy="36.57" r="10.691" gradientTransform="matrix(.9806 -.1656 .4453 2.5934 97.218 -72.981)" gradientUnits="userSpaceOnUse"><stop offset="0" style="stop-color:#ebf9ff;stop-opacity:.3"/><stop offset="1" style="stop-color:#ebf9ff;stop-opacity:0"/></radialGradient><path fill="url(#d)" d="M46.972 16.626c-.04-2.32-.882-9.271-.882-9.271L32 7.218l.003 15.327s1.756 5.874 2.93 15.783C35.629 44.212 36.167 62 36.167 62h10.139s.858-34.031.666-45.374z"/><linearGradient id="e" x1="17.028" x2="25.709" y1="11.843" y2="11.843" gradientUnits="userSpaceOnUse"><stop offset="0" style="stop-color:#004b78;stop-opacity:0"/><stop offset="1" style="stop-color:#004b78"/></linearGradient><path fill="url(#e)" d="m17.028 16.308.882-8.952h7.756c.474 2.607-2.958 9.404-8.638 8.952z"/><linearGradient id="f" x1="38.291" x2="46.973" y1="11.843" y2="11.843" gradientUnits="userSpaceOnUse"><stop offset="0" style="stop-color:#004b78"/><stop offset="1" style="stop-color:#004b78;stop-opacity:0"/></linearGradient><path fill="url(#f)" d="M38.335 7.356h7.756l.882 8.952c-5.681.452-9.113-6.345-8.638-8.952z"/><linearGradient id="g" x1="17.913" x2="27.85" y1="59.889" y2="59.889" gradientUnits="userSpaceOnUse"><stop offset="0" style="stop-color:#004b78;stop-opacity:0"/><stop offset="1" style="stop-color:#004b78"/></linearGradient><path fill="url(#g)" d="M17.913 59.751h9.938v.276h-9.938z"/><linearGradient id="h" x1="564.856" x2="574.796" y1="-313.359" y2="-313.359" gradientTransform="rotate(180 305.473 -126.735)" gradientUnits="userSpaceOnUse"><stop offset="0" style="stop-color:#004b78;stop-opacity:0"/><stop offset="1" style="stop-color:#004b78"/></linearGradient><path fill="url(#h)" d="M36.149 59.751h9.939v.276h-9.939z"/><path fill="#004670" d="M46.091 7.356c-.97 1.077-27.184 1.107-28.181 0l.346-4.248c1.523-1.486 25.984-1.47 27.49 0l.345 4.248z"/><path fill="#00395C" d="M18.488 3.308c1.536-1.46 25.466-1.48 27.025 0 1.292 1.224-28.327 1.234-27.025 0z"/><ellipse cx="33.61" cy="6.261" fill="#CFD8DD" rx=".994" ry=".986"/><path fill="#004670" d="M17.028 16.689v-.125c5.481 0 8.53-4.973 8.945-8.504l.126.015c-.421 3.576-3.513 8.614-9.071 8.614zm29.945 0c-5.56 0-8.65-5.038-9.07-8.614l.126-.015c.413 3.531 3.462 8.504 8.944 8.504v.125zm-14.909 4.207V4.259h.126V20.76c.75-.073 2.839-.552 2.839-3.572V8.175h.126v9.013c0 3.308-2.518 3.665-3.023 3.703l-.068.005z"/><path fill="#00568A" d="M27.755 8.067h-1.448c-.144-2.01.13-3.838.13-3.838h1.415s-.233 2.032-.097 3.838zm-7.69-.299-1.089-.149c-.051-2.344.314-3.891.314-3.891l1.089.149s-.301 2.271-.314 3.891zm15.994.299h1.448c.144-2.01-.13-3.838-.13-3.838h-1.415s.233 2.032.097 3.838zm7.885-.299 1.089-.149c.051-2.344-.314-3.891-.314-3.891l-1.089.149s.302 2.271.314 3.891z"/><path fill="#00568A" d="M32 4.191c-3.78.04-13.236-.053-13.765-.908l-.012.161c1.343.971 12.422.887 13.777.872.26.003.887.008 1.743.008 3.621 0 10.929-.095 12.028-.878l-.011-.155c-.582.847-9.979.941-13.76.9zm-.001 3.856c-5.459.072-13.162-.09-14.058-.807l-.011.141c1.662.931 12.698.81 14.068.791.335.005 1.267.015 2.51.015 3.87 0 10.356-.104 11.57-.816l-.01-.141c-.839.726-8.584.888-14.069.817z"/></svg>