<svg xmlns="http://www.w3.org/2000/svg" xml:space="preserve" style="enable-background:new 0 0 64 64" viewBox="0 0 64 64"><path d="M45.644 19.496c0 4.689-7.738 10.277-16.666 10.277-8.929 0-16.667-5.588-16.667-10.277 0-4.69 7.738-7.353 16.667-7.353 8.928 0 16.666 2.663 16.666 7.353z" style="fill:#bd0100"/><linearGradient id="a" x1="29" x2="29" y1="64" y2="29.023" gradientUnits="userSpaceOnUse"><stop offset="0" style="stop-color:#e3b600"/><stop offset=".47" style="stop-color:#e1b400"/><stop offset=".648" style="stop-color:#daae00"/><stop offset=".777" style="stop-color:#cea300"/><stop offset=".881" style="stop-color:#bd9300"/><stop offset=".971" style="stop-color:#a77e00"/><stop offset="1" style="stop-color:#9e7600"/></linearGradient><path d="M45.603 33.556s-7.29-3.062-9.852-3.511c-1.655-.29-6.75-1.022-6.75-1.022s-5.097.732-6.752 1.022c-2.562.449-9.852 3.51-9.852 3.51l1.612 13.867s-.314 10.611-.314 13.55c0 2.54 4.799 3.028 10.165 3.028h10.258c5.365 0 10.164-.489 10.164-3.028 0-2.875-.291-13.55-.291-13.55l1.612-13.866z" style="fill:url(#a)"/><linearGradient id="b" x1="13.054" x2="28.773" y1="43.314" y2="43.314" gradientUnits="userSpaceOnUse"><stop offset="0" style="stop-color:#c9d2d6"/><stop offset=".057" style="stop-color:#d2dadd"/><stop offset=".216" style="stop-color:#e6eaec"/><stop offset=".398" style="stop-color:#f4f6f7"/><stop offset=".62" style="stop-color:#fdfdfd"/><stop offset="1" style="stop-color:#fff"/></linearGradient><path d="M28.773 39.206H13.054l.956 8.216h14.763z" style="fill:url(#b)"/><linearGradient id="c" x1="29.282" x2="44.946" y1="43.314" y2="43.314" gradientUnits="userSpaceOnUse"><stop offset="0" style="stop-color:#fff"/><stop offset=".38" style="stop-color:#fdfdfd"/><stop offset=".602" style="stop-color:#f4f6f7"/><stop offset=".784" style="stop-color:#e6eaec"/><stop offset=".943" style="stop-color:#d2dadd"/><stop offset="1" style="stop-color:#c9d2d6"/></linearGradient><path d="M29.282 39.206v8.216H43.99l.955-8.216z" style="fill:url(#c)"/><path d="M34.118 39.35H23.837v-3.696c0-.668.583-1.209 1.303-1.209h7.674c.72 0 1.304.541 1.304 1.209v3.696z" style="fill:#9e7600"/><path d="M33.344 39.35H24.61v-3.57c0-.391.318-.708.709-.708h7.317c.39 0 .708.317.708.708v3.57z" style="fill:#e3b600"/><path d="M23.837 39.35h10.281v8.072H23.837z" style="fill:#c9d2d6"/><path d="M24.61 39.35h8.734v8.072H24.61z" style="fill:#fff"/><path d="M23.837 47.422h10.281V64H23.837z" style="fill:#9e7600"/><path d="M24.61 47.422h8.734V64H24.61z" style="fill:#e3b600"/><linearGradient id="d" x1="2180.707" x2="2171.845" y1="46.517" y2="46.672" gradientTransform="matrix(-1 0 0 1 2223.972 0)" gradientUnits="userSpaceOnUse"><stop offset="0" style="stop-color:#9e7600"/><stop offset=".026" style="stop-color:#a17900"/><stop offset=".273" style="stop-color:#be9400"/><stop offset=".519" style="stop-color:#d3a700"/><stop offset=".763" style="stop-color:#dfb200"/><stop offset="1" style="stop-color:#e3b600"/></linearGradient><path d="M45.603 33.556c-2.836 3.479-2.465 15.96-2.044 19.539 0 0 5.704 9.138 7.827 5.818 1.172-1.833.489-14.2-.573-17.996-1.442-5.154-4.18-7.06-5.21-7.361z" style="fill:url(#d)"/><linearGradient id="e" x1="2172.109" x2="2180.753" y1="44.319" y2="44.319" gradientTransform="matrix(-1 0 0 1 2223.972 0)" gradientUnits="userSpaceOnUse"><stop offset="0" style="stop-color:#c9d2d6"/><stop offset=".179" style="stop-color:#dae1e3"/><stop offset=".455" style="stop-color:#eff1f3"/><stop offset=".73" style="stop-color:#fbfcfc"/><stop offset="1" style="stop-color:#fff"/></linearGradient><path d="M43.28 48.048c6.127-.979 8.582 1.12 8.582 1.12s-.125-5.246-1.05-8.251c0 0-2.038-2.225-7.145-1.159 0 0-.647 3.628-.387 8.29z" style="fill:url(#e)"/><linearGradient id="f" x1="2181.177" x2="2175.167" y1="22.714" y2="34.61" gradientTransform="scale(-1 1) rotate(1.455 -50.542 -87363.31)" gradientUnits="userSpaceOnUse"><stop offset="0" style="stop-color:#9e7600"/><stop offset=".208" style="stop-color:#b48a00"/><stop offset=".511" style="stop-color:#cea200"/><stop offset=".784" style="stop-color:#deb100"/><stop offset="1" style="stop-color:#e3b600"/></linearGradient><path d="M42.713 51.952s-4.744.71-7.245 2.342c-3.645 2.378 1.33 8.77 2.606 8.682 5.086-.352 12.004-1.292 13.247-3.81 1.108-2.242-5.616-7.894-8.608-7.214z" style="fill:url(#f)"/><linearGradient id="g" x1="2181.951" x2="2176.513" y1="23.735" y2="34.406" gradientTransform="scale(-1 1) rotate(1.455 -50.542 -87363.31)" gradientUnits="userSpaceOnUse"><stop offset="0" style="stop-color:#fff"/><stop offset=".38" style="stop-color:#fdfdfd"/><stop offset=".602" style="stop-color:#f4f6f7"/><stop offset=".784" style="stop-color:#e6eaec"/><stop offset=".943" style="stop-color:#d2dadd"/><stop offset="1" style="stop-color:#c9d2d6"/></linearGradient><path d="M35.468 53.81c7.339-.321 6.293 7.72 3.126 9.128 0 0 3.695.182 6.816-.893 2.946-2.597.758-8.599-4.417-9.645 0 0-2.195.382-5.525 1.41z" style="fill:url(#g)"/><path d="M37.887 62.95c2.21-.456 4.346-6.509-2.776-8.443 0 0-2.646 9.56 2.776 8.443z" style="fill:#94580f"/><linearGradient id="h" x1="736.35" x2="751.156" y1="1217.58" y2="1220.297" gradientTransform="matrix(.1997 .7453 -1.0582 .2836 1167.048 -842.708)" gradientUnits="userSpaceOnUse"><stop offset=".162" style="stop-color:#ffd94d"/><stop offset=".406" style="stop-color:#f5c236"/><stop offset="1" style="stop-color:#de8e00"/></linearGradient><path d="m43.11 58.408-1.656-6.343s-7.447 2.03-9.932 2.697c-4.876 1.31-6.842 3.05-20.193.321-2.469-.505-5.32 4.38-.106 6.6 6.232 2.653 16.495 1.277 21.618-.446 2.524-.85 10.268-2.829 10.268-2.829z" style="fill:url(#h)"/><linearGradient id="i" x1="834.312" x2="841.744" y1="1219.959" y2="1219.959" gradientTransform="matrix(.2588 .9659 -1.0427 .2794 1097.568 -1095.108)" gradientUnits="userSpaceOnUse"><stop offset="0" style="stop-color:#828d94"/><stop offset=".017" style="stop-color:#929ca2"/><stop offset=".064" style="stop-color:#b6bec4"/><stop offset=".111" style="stop-color:#d2d9de"/><stop offset=".158" style="stop-color:#e6ecf0"/><stop offset=".204" style="stop-color:#f2f7fb"/><stop offset=".251" style="stop-color:#f6fbff"/><stop offset=".254" style="stop-color:#f5fafe"/><stop offset=".418" style="stop-color:#ccd3d8"/><stop offset=".577" style="stop-color:#acb5ba"/><stop offset=".731" style="stop-color:#959fa5"/><stop offset=".875" style="stop-color:#879298"/><stop offset="1" style="stop-color:#828d94"/></linearGradient><path d="m44.945 58.352-1.874-7.18-1.844.507c-1.862.512.012 7.692 1.874 7.18l1.844-.507z" style="fill:url(#i)"/><path d="M43.071 51.172c2.032-.559 3.906 6.621 1.874 7.18-2.031.558-3.905-6.621-1.874-7.18z" style="fill:#a6b6bd"/><linearGradient id="j" x1="834.48" x2="841.544" y1="1217.671" y2="1217.671" gradientTransform="matrix(.2588 .9659 -1.0427 .2794 1097.568 -1095.108)" gradientUnits="userSpaceOnUse"><stop offset="0" style="stop-color:#828d94"/><stop offset=".035" style="stop-color:#98a3ab"/><stop offset=".089" style="stop-color:#b4bfc7"/><stop offset=".143" style="stop-color:#c8d3db"/><stop offset=".197" style="stop-color:#d4dfe7"/><stop offset=".251" style="stop-color:#d8e3eb"/><stop offset=".317" style="stop-color:#cbd6de"/><stop offset=".504" style="stop-color:#abb6be"/><stop offset=".684" style="stop-color:#949fa7"/><stop offset=".853" style="stop-color:#879299"/><stop offset="1" style="stop-color:#828d94"/></linearGradient><path d="m47.438 57.474-1.78-6.82-2.159.593c-1.862.512-.082 7.333 1.78 6.82l2.159-.593z" style="fill:url(#j)"/><linearGradient id="k" x1="834.292" x2="841.72" y1="1216.838" y2="1216.838" gradientTransform="matrix(.2588 .9659 -1.0427 .2794 1097.568 -1095.108)" gradientUnits="userSpaceOnUse"><stop offset="0" style="stop-color:#828d94"/><stop offset=".017" style="stop-color:#929ca2"/><stop offset=".064" style="stop-color:#b6bec4"/><stop offset=".111" style="stop-color:#d2d9de"/><stop offset=".158" style="stop-color:#e6ecf0"/><stop offset=".204" style="stop-color:#f2f7fb"/><stop offset=".251" style="stop-color:#f6fbff"/><stop offset=".254" style="stop-color:#f5fafe"/><stop offset=".418" style="stop-color:#ccd3d8"/><stop offset=".577" style="stop-color:#acb5ba"/><stop offset=".731" style="stop-color:#959fa5"/><stop offset=".875" style="stop-color:#879298"/><stop offset="1" style="stop-color:#828d94"/></linearGradient><path d="m47.846 57.554-1.873-7.18-1.15.316c-1.861.512.012 7.692 1.875 7.18l1.148-.316z" style="fill:url(#k)"/><path d="M45.972 50.374c2.032-.558 3.906 6.622 1.874 7.18-2.031.559-3.905-6.62-1.873-7.18z" style="fill:#a6b6bd"/><linearGradient id="l" x1="835.077" x2="841.744" y1="1211.716" y2="1212.531" gradientTransform="matrix(.2588 .9659 -1.0427 .2794 1097.568 -1095.108)" gradientUnits="userSpaceOnUse"><stop offset="0" style="stop-color:#828d94"/><stop offset=".035" style="stop-color:#98a3ab"/><stop offset=".089" style="stop-color:#b4bfc7"/><stop offset=".143" style="stop-color:#c8d3db"/><stop offset=".197" style="stop-color:#d4dfe7"/><stop offset=".251" style="stop-color:#d8e3eb"/><stop offset=".317" style="stop-color:#cbd6de"/><stop offset=".504" style="stop-color:#abb6be"/><stop offset=".684" style="stop-color:#949fa7"/><stop offset=".853" style="stop-color:#879299"/><stop offset="1" style="stop-color:#828d94"/></linearGradient><path d="m55.813 53.7-1.064-4.076-8.51 1.021c-1.785.491-.079 7.029 1.706 6.538l7.868-3.482z" style="fill:url(#l)"/><linearGradient id="m" x1="835.405" x2="840.499" y1="1208.931" y2="1208.931" gradientTransform="matrix(.2588 .9659 -1.0427 .2794 1097.568 -1095.108)" gradientUnits="userSpaceOnUse"><stop offset="0" style="stop-color:#828d94"/><stop offset=".017" style="stop-color:#929ca2"/><stop offset=".064" style="stop-color:#b6bec4"/><stop offset=".111" style="stop-color:#d2d9de"/><stop offset=".158" style="stop-color:#e6ecf0"/><stop offset=".204" style="stop-color:#f2f7fb"/><stop offset=".251" style="stop-color:#f6fbff"/><stop offset=".254" style="stop-color:#f5fafe"/><stop offset=".418" style="stop-color:#ccd3d8"/><stop offset=".577" style="stop-color:#acb5ba"/><stop offset=".731" style="stop-color:#959fa5"/><stop offset=".875" style="stop-color:#879298"/><stop offset="1" style="stop-color:#828d94"/></linearGradient><path d="M55.386 54.273 54.1 49.348l-.788.217c-1.277.351.008 5.275 1.285 4.924l.788-.216z" style="fill:url(#m)"/><path d="M54.1 49.349c1.394-.384 2.68 4.54 1.286 4.924-1.394.383-2.679-4.541-1.285-4.925z" style="fill:#a6b6bd"/><linearGradient id="n" x1="835.741" x2="840.145" y1="1207.59" y2="1207.59" gradientTransform="matrix(.2588 .9659 -1.0427 .2794 1097.568 -1095.108)" gradientUnits="userSpaceOnUse"><stop offset="0" style="stop-color:#828d94"/><stop offset=".035" style="stop-color:#98a3ab"/><stop offset=".089" style="stop-color:#b4bfc7"/><stop offset=".143" style="stop-color:#c8d3db"/><stop offset=".197" style="stop-color:#d4dfe7"/><stop offset=".251" style="stop-color:#d8e3eb"/><stop offset=".317" style="stop-color:#cbd6de"/><stop offset=".504" style="stop-color:#abb6be"/><stop offset=".684" style="stop-color:#949fa7"/><stop offset=".853" style="stop-color:#879299"/><stop offset="1" style="stop-color:#828d94"/></linearGradient><path d="m56.924 53.49-1.11-4.253-1.376.379c-1.103.303.007 4.555 1.11 4.252l1.376-.378z" style="fill:url(#n)"/><linearGradient id="o" x1="835.582" x2="840.293" y1="1206.844" y2="1206.844" gradientTransform="matrix(.2588 .9659 -1.0427 .2794 1097.568 -1095.108)" gradientUnits="userSpaceOnUse"><stop offset="0" style="stop-color:#828d94"/><stop offset=".017" style="stop-color:#929ca2"/><stop offset=".064" style="stop-color:#b6bec4"/><stop offset=".111" style="stop-color:#d2d9de"/><stop offset=".158" style="stop-color:#e6ecf0"/><stop offset=".204" style="stop-color:#f2f7fb"/><stop offset=".251" style="stop-color:#f6fbff"/><stop offset=".254" style="stop-color:#f5fafe"/><stop offset=".418" style="stop-color:#ccd3d8"/><stop offset=".577" style="stop-color:#acb5ba"/><stop offset=".731" style="stop-color:#959fa5"/><stop offset=".875" style="stop-color:#879298"/><stop offset="1" style="stop-color:#828d94"/></linearGradient><path d="m57.445 53.508-1.188-4.553-.729.2c-1.18.324.007 4.878 1.188 4.553l.729-.2z" style="fill:url(#o)"/><linearGradient id="p" x1="831.639" x2="836.345" y1="1300.015" y2="1300.015" gradientTransform="rotate(75.001 1259.135 169.236)" gradientUnits="userSpaceOnUse"><stop offset="0" style="stop-color:#828d94"/><stop offset=".035" style="stop-color:#98a3ab"/><stop offset=".089" style="stop-color:#b4bfc7"/><stop offset=".143" style="stop-color:#c8d3db"/><stop offset=".197" style="stop-color:#d4dfe7"/><stop offset=".251" style="stop-color:#d8e3eb"/><stop offset=".317" style="stop-color:#cbd6de"/><stop offset=".504" style="stop-color:#abb6be"/><stop offset=".684" style="stop-color:#949fa7"/><stop offset=".853" style="stop-color:#879299"/><stop offset="1" style="stop-color:#828d94"/></linearGradient><path d="M56.257 48.955c1.288-.355 2.476 4.199 1.188 4.553-1.288.354-2.477-4.2-1.188-4.553z" style="fill:url(#p)"/><linearGradient id="q" x1="836.645" x2="839.615" y1="1291.637" y2="1291.637" gradientTransform="rotate(75.001 1255.784 162.38)" gradientUnits="userSpaceOnUse"><stop offset="0" style="stop-color:#1d2b36"/><stop offset=".189" style="stop-color:#22303b"/><stop offset=".417" style="stop-color:#313e48"/><stop offset=".665" style="stop-color:#49565e"/><stop offset=".925" style="stop-color:#6b777d"/><stop offset="1" style="stop-color:#768287"/></linearGradient><path d="M56.534 49.778c.72-.198 1.47 2.676.75 2.874-.72.198-1.47-2.676-.75-2.874z" style="fill:url(#q)"/><path d="M39.98 56.12c.592.662 1.074 2.564 1.926 2.593.122.13-.19 1.271-1.784 1.447-1.1.982-2.505.6-2.505.6-.712.897-1.702.671-1.702.671s-1.016.609-1.854-.023c-.517-.39-.642-1.525-.534-2.195.095-.588.433-1.472 1.216-1.214.22-1.208 1.004-1.93 1.819-1.327.406-.643 1.149-.861 1.824-.363.345-.413 1.054-.79 1.593-.188z" style="fill:#302c3b"/><path d="M37.275 60.157s-1.45-1.744-.713-3.485c-.255 1.617.713 3.486.713 3.486zm-1.631 1.141s-1.358-1.5-.9-3.299c.002 1.63.9 3.3.9 3.3zm4.051-1.48s-2.105-1.84-1.31-3.51c-.316 1.505 1.31 3.51 1.31 3.51z" style="fill:#1a1626"/><linearGradient id="r" x1="14.735" x2="5.873" y1="46.517" y2="46.672" gradientUnits="userSpaceOnUse"><stop offset="0" style="stop-color:#9e7600"/><stop offset=".026" style="stop-color:#a17900"/><stop offset=".273" style="stop-color:#be9400"/><stop offset=".519" style="stop-color:#d3a700"/><stop offset=".763" style="stop-color:#dfb200"/><stop offset="1" style="stop-color:#e3b600"/></linearGradient><path d="M12.397 33.556c2.836 3.479 2.465 15.96 2.044 19.539 0 0-5.704 9.138-7.827 5.818-1.172-1.833-.489-14.2.573-17.996 1.442-5.154 4.18-7.06 5.21-7.361z" style="fill:url(#r)"/><linearGradient id="s" x1="6.138" x2="14.782" y1="44.319" y2="44.319" gradientUnits="userSpaceOnUse"><stop offset="0" style="stop-color:#c9d2d6"/><stop offset=".179" style="stop-color:#dae1e3"/><stop offset=".455" style="stop-color:#eff1f3"/><stop offset=".73" style="stop-color:#fbfcfc"/><stop offset="1" style="stop-color:#fff"/></linearGradient><path d="M14.72 48.048c-6.127-.979-8.582 1.12-8.582 1.12s.125-5.246 1.05-8.251c0 0 2.039-2.225 7.145-1.159 0 0 .647 3.628.387 8.29z" style="fill:url(#s)"/><linearGradient id="t" x1="61.05" x2="54.897" y1="-144.326" y2="-132.145" gradientTransform="rotate(-10.539 1086.745 184.682)" gradientUnits="userSpaceOnUse"><stop offset="0" style="stop-color:#9e7600"/><stop offset=".208" style="stop-color:#b48a00"/><stop offset=".511" style="stop-color:#cea200"/><stop offset=".784" style="stop-color:#deb100"/><stop offset="1" style="stop-color:#e3b600"/></linearGradient><path d="M13.628 50.331s6.783.345 11.16.461c2.548.067-.165 8.73-2.16 9.054-4.957.805-13.886 1.844-15.897-.698-1.557-1.968 3.827-8.87 6.897-8.817z" style="fill:url(#t)"/><linearGradient id="u" x1="61.454" x2="56.035" y1="-143.073" y2="-132.436" gradientTransform="rotate(-10.539 1086.745 184.682)" gradientUnits="userSpaceOnUse"><stop offset="0" style="stop-color:#fff"/><stop offset=".38" style="stop-color:#fdfdfd"/><stop offset=".602" style="stop-color:#f4f6f7"/><stop offset=".784" style="stop-color:#e6eaec"/><stop offset=".943" style="stop-color:#d2dadd"/><stop offset="1" style="stop-color:#c9d2d6"/></linearGradient><path d="M21.107 50.668c-2.629 4.302-1.13 9.568-1.13 9.568s-3.576.933-6.856.519c0 0-1.692-5.292 2.284-10.337 0 0 2.228-.075 5.702.25z" style="fill:url(#u)"/><path d="M22.057 59.74c-.542-1.824-.415-8.964 3.032-8.73 1.576 1.707.248 9.144-3.032 8.73z" style="fill:#94580f"/><path d="M27.61 59.088c-.854-.203-2.33-1.507-2.75-1.77-.47-.297-1.958-.272-2.52-.646.135-3.19 1.562-4.959 1.562-4.959.844-1.018 5.482-.984 6.747-.632 1.008.282 1.53 1.765 4.133 2.754l-1.034.28c1.067 3.321.476 3.671-.486 3.402 0 0-.225 2.047-1.566 1.05 0 0-.5 2.244-2.565 0 0 0-.582.744-1.52.521z" style="fill:#302c3b"/><path d="M29.237 54.06s2.105 2.4 2.459 4.507c-.764-1.664-2.46-4.508-2.46-4.508zm1.96-1.312s1.75 2.71 2.065 4.769a296.648 296.648 0 0 1-2.065-4.77zm-4.902 1.747s2.29 2.046 2.836 4.072c-.852-1.496-2.836-4.072-2.836-4.072z" style="fill:#1a1626"/><path d="M29.067 31.06c-4.299-.514-7.153-4.67-7.153-4.835-.414.131-.766.46-.766 1.619 0 .493-.106 5.232 7.919 6.821V31.06z" style="fill:#9e7600"/><linearGradient id="v" x1="21.148" x2="29.067" y1="31.529" y2="31.529" gradientUnits="userSpaceOnUse"><stop offset="0" style="stop-color:#9e7600"/><stop offset=".029" style="stop-color:#a77e00"/><stop offset=".118" style="stop-color:#bd9300"/><stop offset=".223" style="stop-color:#cea300"/><stop offset=".352" style="stop-color:#daae00"/><stop offset=".53" style="stop-color:#e1b400"/><stop offset="1" style="stop-color:#e3b600"/></linearGradient><path d="M29.067 31.747c-4.565-.503-7.621-1.737-7.92-3.726v3.835c0 1.1 1.437 2.635 7.92 3.182v-3.291z" style="fill:url(#v)"/><path d="M36.807 27.844c0-1.16-.351-1.488-.766-1.619 0 .165-4.428 4.946-10.566 5.066-.432.008-.782.338-.782.749v2.871l.692.248c11.571-1.043 11.422-6.759 11.422-7.315z" style="fill:#9e7600"/><linearGradient id="w" x1="25.372" x2="36.807" y1="31.592" y2="31.592" gradientUnits="userSpaceOnUse"><stop offset="0" style="stop-color:#e3b600"/><stop offset=".47" style="stop-color:#e1b400"/><stop offset=".648" style="stop-color:#daae00"/><stop offset=".777" style="stop-color:#cea300"/><stop offset=".881" style="stop-color:#bd9300"/><stop offset=".971" style="stop-color:#a77e00"/><stop offset="1" style="stop-color:#9e7600"/></linearGradient><path d="M36.807 31.856V28.02c-.358 2.393-4.69 3.698-10.855 3.946-.322.013-.582.254-.58.56l.013 2.633c9.507.099 11.422-2.026 11.422-3.303z" style="fill:url(#w)"/><path d="M39.938 15.584c-1.696.204-2.921 5.88-1.853 7.379.15.208 1.023.543 1.672-.78.359-.732 1.394-1.343 1.716-2.853.41-1.936.154-3.951-1.535-3.746zm-21.92 0c1.697.204 2.922 5.88 1.854 7.379-.15.208-1.024.543-1.673-.78-.358-.732-1.394-1.343-1.715-2.853-.412-1.936-.155-3.951 1.534-3.746z" style="fill:#735c48"/><path d="M39.893 16.67c-.443.14-.926.814-1.188 1.934 1.547-.332 1.16 2.243-.185 2.29.013.26.03.526.063.806.647-.939 1.306-.562 1.958-1.96.588-1.26.448-3.413-.648-3.07zm-20.642 1.931c-.263-1.118-.745-1.791-1.187-1.931-1.095-.343-1.237 1.809-.649 3.069.652 1.398 1.311 1.021 1.96 1.96.031-.28.05-.546.06-.806-1.33-.062-1.712-2.606-.184-2.292z" style="fill:#4a3728"/><path d="M28.977 4.668c-7.351 0-10.893 5.557-10.45 13.283.089 1.555 1.055 6.625 1.965 8.444.932 1.861 4.05 4.73 5.958 5.324 1.207.374 3.85.374 5.055 0 1.91-.594 5.028-3.463 5.96-5.324.912-1.82 1.876-6.888 1.963-8.444.446-7.726-3.096-13.283-10.45-13.283z" style="fill:#735c48"/><path d="M36.966 15.017c-1.681-.892-4.898-.935-6.098-.313-.258.119-.087.962.13.882 1.668-.66 4.363-.675 5.927.056.21.095.296-.502.04-.625zm-15.976 0c1.682-.892 4.898-.935 6.098-.313.257.119.087.962-.129.882-1.672-.66-4.364-.675-5.93.056-.206.095-.292-.502-.038-.625z" style="fill:#302b27"/><path d="M30.962 22.732c-.21-.146-.702.08-1.984.08-1.28 0-1.773-.226-1.983-.08-.251.177.148.975 1.983.975 1.836 0 2.236-.798 1.984-.975z" style="fill:#4a3728"/><path d="M27.342 18.046c.062.488-.268 1.064-1.182 1.496-.58.276-1.79.599-3.378-.07-.71-.3-1.405-1.234-1.342-1.75.86-1.623 5.096-1.86 5.902.324z" style="fill:#fff"/><linearGradient id="x" x1="-1210.436" x2="-1210.436" y1="171.051" y2="170.545" gradientTransform="translate(7977.155 -1104.145) scale(6.5701)" gradientUnits="userSpaceOnUse"><stop offset="0" style="stop-color:#a6694a"/><stop offset="1" style="stop-color:#4f2a1e"/></linearGradient><path d="M24.469 16.352a1.663 1.663 0 1 1 0 3.325 1.663 1.663 0 1 1 0-3.325z" style="fill:url(#x)"/><path d="M23.636 17.984c0 1.15 1.665 1.15 1.665 0 0-1.067-1.665-1.067-1.665 0z" style="fill:#1a1626"/><path d="M23.384 17.517c0 .482.697.482.697 0 0-.445-.697-.445-.697 0z" style="fill:#ab968c"/><path d="M27.35 18.11c-.676-2.168-5.284-1.848-5.91-.39.232-1.867 5.335-2.36 5.91.39z" style="fill:#4a3728"/><path d="M30.614 18.046c-.062.488.267 1.064 1.183 1.496.58.276 1.789.599 3.376-.07.713-.3 1.406-1.234 1.343-1.75-.86-1.623-5.097-1.86-5.901.324z" style="fill:#fff"/><linearGradient id="y" x1="-1211.768" x2="-1211.768" y1="171.051" y2="170.545" gradientTransform="translate(7994.886 -1104.145) scale(6.5701)" gradientUnits="userSpaceOnUse"><stop offset="0" style="stop-color:#a6694a"/><stop offset="1" style="stop-color:#4f2a1e"/></linearGradient><path d="M33.45 16.352a1.663 1.663 0 1 1-1.664 1.662c0-.918.745-1.662 1.664-1.662z" style="fill:url(#y)"/><path d="M32.62 17.984c0 1.15 1.664 1.15 1.664 0 0-1.067-1.665-1.067-1.665 0z" style="fill:#1a1626"/><path d="M32.365 17.517c0 .482.698.482.698 0 0-.445-.698-.445-.698 0z" style="fill:#ab968c"/><path d="M30.606 18.11c.675-2.167 5.28-1.857 5.91-.39-.234-1.867-5.334-2.36-5.91.39z" style="fill:#4a3728"/><path d="M37.73 6.985 36.056 9.01c3.388 2.078 1.492 7.505 3.031 11.46.525-3.945 2.974-12.55-1.358-13.485zM20.16 7.987l1.672 1.024c-3.387 2.078-1.425 7.505-2.963 11.459-.524-3.945-3.041-11.549 1.29-12.483z" style="fill:#382e26"/><path d="M35.956 8.437c2.152-.008 2.366 3.508 2.366 3.508s.645-4.004-2.088-4.004l-.278.496zM20.38 10.174c-.863 2.107-1.168 4.272-1.168 4.272s-.455-1.517.632-4.196l.536-.076z" style="fill:#1a1714"/><path d="M36.813 7.617c1.682-.175 2.09 2.557 2.09 2.557s.23-3.18-1.906-2.966l-.184.409z" style="fill:#1a1714"/><path d="M37.728 6.985s-2.507-4.37-8.784-4.37c-6.815 0-11.111 3.053-11.257 8.966 4.174-4.114 15.17 2.284 20.041-4.596z" style="fill:#473e35"/><path d="M37.728 6.985c-.643-2.018-4.06-4.37-8.784-4.37 2.618.184 6.069 1.48 6.424 2.3 0 0-3.621-1.952-8.507-1.095 4.48-.204 7.438 2.644 6.179 2.66-1.227.015-5.782.168-8.484 1.834 1.738-.117 5.17.818 5.015.878-3.461 1.34-10.407-1.846-11.834 2.388 5.364-4.595 15.599 2.807 19.991-4.595z" style="fill:#382e26"/><path d="M37.728 6.985c-3.58 8.466-19.675-1.002-19.301 6.088-1.643-8.135 14.004 1.899 19.301-6.088z" style="fill:#1a1714"/><path d="M36.748 8.253c-1.703-3.341-7.222-4.543-7.222-4.543s5.77.33 7.671 4.096l-.449.447zm-.874.757c-1.586-1.485-9.232-.961-9.232-.961s5.574-1.682 9.837.476l-.605.485z" style="fill:#1a1714"/><path d="M18.028 10.293s.75-6.083 11.205-5.628c-8.596 1.191-11.205 5.628-11.205 5.628z" style="fill:#382e26"/><path d="M18.675 9.944S22.817 4.522 31.91 5.89c-7.587-.222-13.235 4.054-13.235 4.054zm-.228-1.894s4.547-5.115 12.001-5.028c-8.613-1.145-12 5.027-12 5.027z" style="fill:#574f45"/><path d="M28.978 25.926c-1.653-.487-4.105.232-4.105.232.934 1.015 1.617 2.335 4.105 2.335 2.85 0 3.335-1.498 4.105-2.335 0 0-2.452-.72-4.105-.232z" style="fill:#4a3728"/><path d="M25.489 26.33c1.734 1.455 5.235 1.462 6.978 0-1.846.079-5.118.079-6.978 0z" style="fill:#fff"/><radialGradient id="z" cx="28.018" cy="2.398" r="10.492" gradientTransform="matrix(1 0 0 .9392 .96 6.1)" gradientUnits="userSpaceOnUse"><stop offset=".261" style="stop-color:#bd0100"/><stop offset=".497" style="stop-color:#ce0100"/><stop offset=".967" style="stop-color:#fc0000"/><stop offset="1" style="stop-color:red"/></radialGradient><path d="M41.79 14.27c0 3.412.282-2.135-12.812-2.135s-12.813 5.547-12.813 2.135c0-8.413 5.736-12.945 12.813-12.945 7.075 0 12.812 4.532 12.812 12.945z" style="fill:url(#z)"/><path d="M32.504 11.588H25.45V1.92c0-2.561 7.054-2.561 7.054 0v9.667z" style="fill:red"/><radialGradient id="A" cx="28.018" cy="5.179" r="9.396" gradientTransform="matrix(1 0 0 .9392 .96 6.1)" gradientUnits="userSpaceOnUse"><stop offset="0" style="stop-color:#747080"/><stop offset="1" style="stop-color:#302c3b"/></radialGradient><path d="M41.79 14.27c0-.872-.076-1.692-.195-2.481-2.247-2.444-7.053-4.131-12.62-4.131-5.562 0-10.364 1.684-12.615 4.123a16.635 16.635 0 0 0-.195 2.49l12.813-2.136L41.79 14.27z" style="fill:url(#A)"/><path d="M28.978 11.106c-9.205 0-16.667 1.304-16.667 8.39 3.157-5.131 3.991-4.733 16.674-4.733 12.674 0 13.525-.398 16.66 4.733 0-7.086-7.462-8.39-16.667-8.39z" style="fill:red"/><path d="M32.757 4.303c-.946-1.831-2.983-1.445-3.78-2.978-.797 1.533-2.835 1.147-3.78 2.978-.95 1.84.831 2.627-.278 3.687 0 0 1.185.835.846 2.733 0 0 1.294-.612 3.211.723 1.918-1.335 3.212-.723 3.212-.723-.338-1.898.847-2.733.847-2.733-1.109-1.06.673-1.848-.278-3.687z" style="fill:#fff0c6"/><path d="M31.073 8.84h-.737v.295h.677v.242h-.676v.36h.77v.249h-1.055V8.592h1.022v.247zm-4.226-.245h.992v.243h-.704v.321h.618v.242h-.618v.583h-.288v-1.39zm1.571 1.391h-.29V8.592h.29v1.393zm1.175-1.358a.337.337 0 0 1 .13.098.407.407 0 0 1 .046.46.284.284 0 0 1-.165.134.25.25 0 0 1 .136.11.456.456 0 0 1 .042.218v.093c0 .063.001.107.006.13a.12.12 0 0 0 .053.081v.034h-.321l-.02-.076a.762.762 0 0 1-.012-.119l-.003-.13c0-.09-.016-.148-.045-.178-.03-.03-.085-.044-.165-.044h-.286v.546h-.283V8.592h.667a.592.592 0 0 1 .22.035zm-.603.206v.375h.314a.33.33 0 0 0 .14-.024c.055-.026.083-.078.083-.155 0-.084-.027-.141-.08-.17a.27.27 0 0 0-.135-.026h-.322zm2.187-4.243c-.533-.533-1.295.246-1.516.294.048-.222.827-.984.294-1.517-.153-.154-1.802-.154-1.956 0-.533.533.245 1.295.292 1.517-.22-.048-.982-.827-1.515-.294-.154.155-.154 1.802 0 1.957.533.531 1.295-.245 1.515-.294-.047.221-.825.983-.292 1.517.154.152 1.803.152 1.957 0 .532-.534-.247-1.296-.295-1.517.221.049.983.825 1.516.294.154-.155.154-1.802 0-1.957z" style="fill:#302c3b"/></svg>