<svg xmlns="http://www.w3.org/2000/svg" xml:space="preserve" style="enable-background:new 0 0 64 64" viewBox="0 0 64 64"><path d="M0 0h64v50.029H0z" style="fill:#774212"/><path d="M2 2.001h60v46.027H2z" style="fill:#1b9e86"/><linearGradient id="a" x1="32" x2="32" y1="47.528" y2="2.501" gradientUnits="userSpaceOnUse"><stop offset="0" style="stop-color:#1b9e86"/><stop offset=".114" style="stop-color:#20a38c"/><stop offset=".657" style="stop-color:#35b8a3"/><stop offset="1" style="stop-color:#3dbfab"/></linearGradient><path d="M2.5 2.501h59v45.026h-59z" style="fill:url(#a)"/><radialGradient id="b" cx="22.482" cy="35.438" r="20.088" gradientUnits="userSpaceOnUse"><stop offset="0" style="stop-color:#1a1714"/><stop offset=".586" style="stop-color:#2f2721"/><stop offset="1" style="stop-color:#382e26"/></radialGradient><path d="M27.682 34.914c10.49-4.196 9.44-14.16 9.44-14.16H7.754s-1.049 9.964 9.439 14.16c0 0 2.099.524 5.244.524 3.148 0 5.245-.524 5.245-.524z" style="fill:url(#b)"/><path d="M48.146 30.498c.228-.845 2.091.297 1.309 1.693-.316.563 4.03 5.106 3.653 6.1-1.071 2.827-3.32 1.696-4.398 6.768-.155.73-4.71-1.876-4.408-2.675 1.455-3.862.833-5.6 2.046-7.277 2.027-2.8 1.424-3.228 1.798-4.61z" style="fill:#735c48"/><path d="M55.46 12.067c.084-.35-.37-.496-.466-.145-2.642 9.745-6.877 25.248-8.25 29.903-.296 1.009 1.359 1.608 1.606.586 1.774-7.36 4.018-17.446 7.11-30.344z" style="fill:#1a1626"/><path d="M52.408 33.116c1.008.939.45 1.958.45 1.958.784.983.262 2.17.262 2.17.836 2.56-5.173 3.606-3.93 1.237-1.608.17-2.026-1.47-.382-1.897-1.847.281-1.556-1.795-.455-2.008.413-.079.836-.263 1.314-.35-1.882.258-1.568-1.637-.626-2.037 1.044-.44 2.174-.658 2.568-.58.78.15.902 1.151.8 1.507z" style="fill:#735c48"/><path d="M48.294 33.317c-.117 1.818 2.825.617 3.26.24-1.926.822-3.23.46-3.26-.24zm.727 5.709c-.116 1.818 2.8.614 3.234.236-1.925.823-3.203.465-3.234-.236zm-1.544-3.359c-.117 1.818 2.945.817 4.376-.134-2.867 1.397-4.346.833-4.376.134zm.286 1.96c-.117 1.817 3.024.867 4.455-.084-2.867 1.398-4.423.784-4.455.084z" style="fill:#4a3728"/><linearGradient id="c" x1="42.487" x2="42.487" y1="61.583" y2="37.949" gradientUnits="userSpaceOnUse"><stop offset="0" style="stop-color:#003b68"/><stop offset=".253" style="stop-color:#004478"/><stop offset=".715" style="stop-color:#005390"/><stop offset="1" style="stop-color:#005899"/></linearGradient><path d="M50.382 44.857c-3.673 5.351-2.622 16.726-8.058 16.726-1.961 0-6.86-6.078-7.69-10.89-.25-1.45.608-13.503 2.616-12.706 1.31.52 4.379 10.997 4.379 10.997s2.003-5.888 2.425-7.112c3.016 3.356 6.328 2.985 6.328 2.985z" style="fill:url(#c)"/><linearGradient id="d" x1="22.438" x2="22.438" y1="64" y2="33.094" gradientUnits="userSpaceOnUse"><stop offset="0" style="stop-color:#003b68"/><stop offset=".253" style="stop-color:#004478"/><stop offset=".715" style="stop-color:#005390"/><stop offset="1" style="stop-color:#005899"/></linearGradient><path d="m28.582 33.094-12.326.02-8.63 4.875 3.36 23.264C11.265 63.254 15.939 64 22.42 64c6.483 0 11.154-.744 11.434-2.744l3.396-23.27-8.668-4.892z" style="fill:url(#d)"/><path d="m26.371 48.9 2.376-15.585h-12.62l2.33 15.585z" style="fill:#e6ebef"/><path d="M28.463 37.589v-4.59l-.857-.473v-3.905H17.268v3.905l-.856.472v4.59c2.046 2.048 10.005 2.048 12.051 0z" style="fill:#5e4c3b"/><path d="M27.223 49.364s3.897-6.412 4.634-8.183l-2.153-1.078 2.658-.488s-2.118-5.852-3.899-6.617l-2.228 16.366h.988zM13.02 41.181c.736 1.77 4.633 8.183 4.633 8.183h.988l-2.229-16.366c-1.78.765-3.897 6.617-3.897 6.617l2.657.488-2.153 1.078z" style="fill:#002a4a"/><path d="M26.918 49.364s3.65-6.412 4.34-8.183l-2.22-1.178 2.691-.488s-1.485-5.752-3.266-6.517c0 0-1.253 9.449-3.24 16.366h1.695zM13.62 41.181c.69 1.77 4.338 8.183 4.338 8.183h1.695c-1.987-6.917-3.24-16.366-3.24-16.366-1.782.765-3.266 6.517-3.266 6.517l2.69.488-2.218 1.178z" style="fill:#005899"/><path d="M30.852 43.5s0-.644-.644-.644H18.624v14.811h12.228V43.5z" style="fill:#ff000e"/><path d="M16.05 57.667V44.144c0-1.288.643-1.288.643-1.288h1.93v14.811H16.05z" style="fill:#d6000c"/><path d="M28.904 55.794s2.565-.512 2.629-1.799c.024-.487-2.033.38-4.71.437-.8.017-1.22.857-1.966 1.334 0 0-1.92.524-3.57.238l.094 4.717 2.135.073c.892.833 2.92 1.403 4.248 1.201 1.828-.28 3.902-1.913 3.653-3.324 2.243-2.744-2.098-1.408-2.513-2.877z" style="fill:#735c48"/><path d="M29.875 58.983s1.233.265 1.542-.312c-.544.224-1.542.312-1.542.312zm-.734 1.602s1.413.246 1.722-.327c-.544.22-1.722.327-1.722.327zm-1.087.929s1.245.364 1.557-.21c-.547.221-1.557.21-1.557.21z" style="fill:#4a3728"/><linearGradient id="e" x1="13.33" x2="13.33" y1="62.883" y2="37.978" gradientUnits="userSpaceOnUse"><stop offset="0" style="stop-color:#003b68"/><stop offset=".253" style="stop-color:#004478"/><stop offset=".715" style="stop-color:#005390"/><stop offset="1" style="stop-color:#005899"/></linearGradient><path d="M22.061 55.799c-3.256.032-10.17.15-10.17.15S9.933 37.46 7.627 37.988c-1.018.233-2.725 3.15-3.033 6.268-.38 3.84.998 16.922 2.277 18.106C8.64 64 22.13 61.245 22.13 61.245s-.495-2.487-.069-5.446z" style="fill:url(#e)"/><path d="M22.061 55.799c-4.925-.355-10.044.05-10.044.05s-1.32-15.846-4.39-17.86c2.721 2.807 3.514 14.878 3.884 18.276 5.826.055 10.55-.466 10.55-.466z" style="fill:#002a4a"/><path d="M22.438 5.546c-7.61 0-11.276 6.198-10.818 14.167.094 1.601.54 3.912 1.09 5.892 1.14 4.116 7.164 8.26 9.728 8.26s8.587-4.144 9.729-8.26c.55-1.98.996-4.29 1.09-5.892.457-7.969-3.207-14.167-10.819-14.167z" style="fill:#735c48"/><path d="M22.437 27.395c-1.783-.784-1.797-.031-4.55.153 1.033 1.174 1.794 2.683 4.55 2.683 3.162 0 3.697-1.714 4.553-2.683-2.756-.184-2.767-.937-4.553-.153z" style="fill:#472b27"/><path d="M18.713 27.841c1.798 1.87 5.675 1.846 7.45.001-2.768.297-4.681.297-7.45-.001z" style="fill:#fff"/><path d="M30.525 17.061c-1.653-.985-4.62-1.106-5.792-.434-.25.135-.183.847.032.758 1.674-.697 4.225-.731 5.796.075.21.106.215-.255-.036-.399zm-16.175 0c1.654-.985 4.62-1.106 5.795-.434.249.135.182.847-.034.758-1.675-.697-4.222-.733-5.795.075-.211.106-.215-.255.035-.399z" style="fill:#302b27"/><path d="M24.149 24.866c-.181-.127-.606.069-1.712.069-1.104 0-1.529-.196-1.71-.069-.217.153.128.842 1.71.842 1.583 0 1.93-.688 1.712-.842z" style="fill:#4a3728"/><path d="M20.745 20.051c.065.503-.277 1.1-1.224 1.548-.601.285-1.852.62-3.496-.074-.736-.31-1.454-1.277-1.39-1.812.892-1.68 5.277-1.925 6.11.338z" style="fill:#fff"/><linearGradient id="f" x1="-425.718" x2="-425.718" y1="478.956" y2="479.48" gradientTransform="matrix(6.5701 0 0 -6.5701 2814.782 3168.527)" gradientUnits="userSpaceOnUse"><stop offset="0" style="stop-color:#a6694a"/><stop offset="1" style="stop-color:#4f2a1e"/></linearGradient><path d="M17.77 18.294a1.723 1.723 0 1 1 0 3.446 1.723 1.723 0 0 1 0-3.445z" style="fill:url(#f)"/><path d="M16.91 19.986c0 1.19 1.722 1.19 1.722 0 0-1.107-1.723-1.107-1.723 0z" style="fill:#1a1626"/><path d="M16.647 19.503c0 .5.722.5.722 0 0-.463-.722-.463-.722 0z" style="fill:#ab968c"/><path d="M20.753 20.118c-.7-2.249-5.468-1.917-6.118-.405.241-1.936 5.522-2.447 6.118.405z" style="fill:#45332c"/><path d="M24.131 20.051c-.064.503.278 1.1 1.224 1.548.602.285 1.852.62 3.496-.074.738-.31 1.455-1.277 1.39-1.812-.89-1.68-5.276-1.925-6.11.338z" style="fill:#fff"/><linearGradient id="g" x1="-427.002" x2="-427.002" y1="478.956" y2="479.48" gradientTransform="matrix(6.5701 0 0 -6.5701 2832.512 3168.527)" gradientUnits="userSpaceOnUse"><stop offset="0" style="stop-color:#a6694a"/><stop offset="1" style="stop-color:#4f2a1e"/></linearGradient><path d="M27.068 18.294a1.723 1.723 0 1 1 0 3.446 1.723 1.723 0 0 1 0-3.445z" style="fill:url(#g)"/><path d="M26.208 19.986c0 1.19 1.723 1.19 1.723 0 0-1.107-1.723-1.107-1.723 0z" style="fill:#1a1626"/><path d="M25.945 19.503c0 .5.723.5.723 0 0-.463-.723-.463-.723 0z" style="fill:#ab968c"/><path d="M24.124 20.118c.699-2.248 5.465-1.926 6.117-.405-.241-1.936-5.521-2.447-6.117.405z" style="fill:#45332c"/><path d="M32.835 18.33c-.903 0-2.04-.925-4.304-.925-3.49 0-4.777.668-6.093.668-1.315 0-2.603-.669-6.093-.669-2.263 0-3.4.926-4.303.926-.134 0-.1.748-.009.747 1.592-.011.878 2.732 1.79 3.803.774.91 5.645 1.014 6.48.298 1.436-1.227 1.16-4.235 2.135-4.235s.7 3.008 2.135 4.235c.836.716 5.707.612 6.481-.298.911-1.071.198-3.814 1.79-3.803.09 0 .125-.747-.009-.747zm-12.794 4.423c-.427.474-4.989.518-5.816-.222-.559-.5-.734-3.655-.23-4.063.984-.799 6.253-.525 6.944.263.569.65.017 3.007-.898 4.022zm10.61-.222c-.827.74-5.389.696-5.816.222-.914-1.015-1.466-3.373-.898-4.022.691-.788 5.961-1.062 6.945-.263.503.408.328 3.564-.23 4.063z" style="fill:#302c3b"/><linearGradient id="h" x1="17.434" x2="17.434" y1="23.1" y2="17.988" gradientUnits="userSpaceOnUse"><stop offset="0" style="stop-color:#fff;stop-opacity:0"/><stop offset="1" style="stop-color:#fff"/></linearGradient><path d="M13.994 18.468c-.503.408-.328 3.563.23 4.063.828.74 5.39.696 5.817.222.915-1.015 1.467-3.373.898-4.022-.69-.788-5.96-1.062-6.945-.263z" style="opacity:.5;fill:url(#h);enable-background:new"/><linearGradient id="i" x1="27.443" x2="27.443" y1="23.1" y2="17.988" gradientUnits="userSpaceOnUse"><stop offset="0" style="stop-color:#fff;stop-opacity:0"/><stop offset="1" style="stop-color:#fff"/></linearGradient><path d="M30.883 18.468c-.985-.799-6.255-.525-6.946.263-.568.65-.016 3.007.898 4.022.427.474 4.99.518 5.817-.222.558-.5.733-3.655.23-4.063z" style="opacity:.5;fill:url(#i);enable-background:new"/><path d="M31.003 6.658c.87-1.24-6.492-3.86-13.441-2.09-6.943 1.59-10.857 9.194-10.857 18.794 0 3.892 2.676 8.794 7.7 10.797l1.05-.592c-5.558-4.81-4.38-9.666-2.456-15.434 5.213-3.019 11.113-3.73 15.208-7.343-.524 1.574 2.252 3.558 3.671 7.343 1.971 5.255 3.067 10.566-2.466 15.429l.986.557c4.756-2.028 7.773-6.89 7.773-10.757 0-11.348-4.385-17.507-7.168-16.704z" style="fill:#473e35"/><path d="M13.325 17.848s-1.49.272-2.71 1.595c-2.55 9.008 3.545 12.874 3.545 12.874s-4.834-4.96-.835-14.469z" style="fill:#382e26"/><path d="M9.512 20.3s-.7.274-1.556 2.027c-.793 5.492 3.063 8.29 3.063 8.29s-3.615-4.418-1.507-10.318z" style="fill:#382e26"/><path d="M31.013 6.661c.836-1-2.888-2.669-7.58-2.669 5.758.454 7.72 3.575 6.123 2.75-1.703-.88-5.866-2.157-11.443.37 6.102-1.298 11.714.12 10.841.854-1.378 1.16-7.451-1.998-15.956 5.767-1.171 1.07 5.102-4.104 13.521-4.268-1.17 2.463-16.146 6.368-18.47 12.49 3.9-5.565 20.338-7.632 22.964-15.294zm3.813 8.917s3.65 9.903-2.467 16.77c8.764-6.867 2.467-16.77 2.467-16.77z" style="fill:#382e26"/><path d="M36.79 13.305c-2.663-8.286-5.777-6.644-5.777-6.644s-1.499 2.806-2.691 3.79c-2.155 2.647 5.255 4.917 5.063 16.383 1.959-8.147-3.488-13.594-3.576-15.048-.1-1.65 1.27-4.185 2.338-4.49 1.16-.33 3.815 3.764 4.642 6.009z" style="fill:#382e26"/><path d="M7.94 22.347c4.218-6.88 19.829-6.415 23.073-15.686-5.468 8.457-22.027 9.867-23.073 15.686z" style="fill:#1a1714"/><path d="M30.862 10.364s3.46 7.415 4.028 13.716c.94-9.687-4.028-13.716-4.028-13.716zm-18.617 6.318s5.031-3.266 11.33-5.961c-6.742.405-11.33 5.96-11.33 5.96zm-3.107-.667s3.954-6.317 11.164-8.154C10.27 7.205 9.138 16.015 9.138 16.015z" style="fill:#574f45"/></svg>