<svg xmlns="http://www.w3.org/2000/svg" xml:space="preserve" viewBox="0 0 64 64"><path fill="#B88A6F" d="M10.267 45.248c1.742-.095 3.98 5.394 3.172 7.09-.114.236-.933.728-1.819-.487-.491-.673-1.64-1.104-2.231-2.565-.756-1.873-.856-3.945.878-4.038z"/><path fill="#8C5F44" d="M10.506 46.332c.47.062 1.075.654 1.537 1.734-1.614-.06-.769 2.461.592 2.27.033.263.063.533.08.821-.817-.83-1.413-.334-2.316-1.625-.815-1.162-1.056-3.35.107-3.2z"/><path fill="#B88A6F" d="M19.352 32.33c7.391-1.303 11.937 3.656 12.861 11.502.187 1.579.114 6.847-.478 8.838-.607 2.036-2.232 5.473-4.046 6.409-1.147.59-3.803 1.058-5.081.896-2.026-.259-6.67-2.591-7.936-4.297-1.24-1.667-3.107-6.593-3.471-8.142-1.818-7.687.757-13.902 8.151-15.206z"/><path fill="#5E4533" d="M13.155 44.151c1.532-1.194 4.759-1.808 6.075-1.395.28.073.258.951.027.91-1.795-.368-4.507.095-5.95 1.108-.193.131-.386-.454-.152-.623zm16.061-2.832c-1.848-.598-5.089-.071-6.186.767-.237.165.083.982.286.864 1.565-.961 4.268-1.452 5.972-.995.225.058.205-.557-.072-.636z"/><path fill="#6E482A" d="m10.964 36.212 2.041 1.739c-3.037 2.69-.17 7.81-1.016 12.058-1.226-3.873-5.215-12.09-1.025-13.797zm17.842-2.108-1.5 1.326c3.774 1.488 2.763 7.293 5.011 10.995-.173-4.059 1.009-12.15-3.511-12.321z"/><path fill="#52351F" d="M13.004 37.357c-2.165.373-1.757 3.946-1.757 3.946s-1.359-3.911 1.389-4.395l.368.449zm15.968-1.015c1.241 1.965 1.931 4.088 1.931 4.088s.189-1.605-1.378-4.106l-.553.018z"/><path fill="#52351F" d="M11.997 36.684c-1.722.122-1.647 2.941-1.647 2.941s-.796-3.156 1.39-3.32l.257.379z"/><path fill="#805837" d="M10.965 36.211s1.745-4.839 8.057-5.952c6.851-1.208 11.712 1.101 12.907 7.02-4.926-3.397-14.846 4.985-20.964-1.068z"/><path fill="#6E482A" d="M10.965 36.211c.289-2.143 3.308-5.114 8.057-5.952-2.599.65-5.839 2.565-6.051 3.452 0 0 3.295-2.604 8.359-2.609-4.54.589-7.009 3.977-5.741 3.77 1.236-.202 5.842-.856 8.855.34-1.769.19-5.054 1.739-4.886 1.772 3.717.733 10.136-3.701 12.321.303-6.209-3.669-15.186 5.588-20.914-1.076z"/><path fill="#52351F" d="M10.965 36.211c5.101 7.877 19.604-4.495 20.484 2.699.21-8.47-13.743 4.392-20.484-2.699z"/><path fill="#52351F" d="M12.175 37.313c1.12-3.661 6.456-5.848 6.456-5.848s-5.743 1.355-6.986 5.478l.53.37zm1.014.606c1.331-1.774 9.111-2.603 9.111-2.603s-5.902-.702-9.805 2.223l.694.38z"/><path fill="#6E482A" d="M31.357 36.044s-1.832-5.982-12.262-3.672c8.852-.325 12.262 3.672 12.262 3.672z"/><path fill="#916643" d="M30.645 35.808s-5.125-4.715-14.025-1.729c7.589-1.568 14.025 1.729 14.025 1.729zm-.107-1.945s-5.478-4.335-12.957-2.927c8.457-2.678 12.957 2.927 12.957 2.927z"/><path fill="#8C5F44" d="M20.66 50.908c.174-.191.717-.076 1.994-.359 1.275-.285 1.715-.619 1.961-.519.287.121.066 1.006-1.762 1.414-1.829.406-2.405-.303-2.193-.536zm6.657 2.461c2.168 2.303-3.072 3.248-4.764.998l4.764-.998z"/><path fill="#6E4A35" d="M26.047 52.992c-1.154-.342-1.94.699-3.494 1.375 1.51.393 3.486.133 3.666-.512 0 0 .645.322 1.15-.256.567-.642-.218-1.421-1.322-.607z"/><path fill="#A87A5C" d="M14.24 47.676c.312 1.775 6.055.764 5.689-1.293-.851-2.916-6.179-1.893-5.689 1.293z"/><path fill="#45332C" d="M14.242 47.676c.312 1.775 6.053.764 5.689-1.293-.294 1.029-5.089 2-5.689 1.293z"/><path fill="#A87A5C" d="M29.406 45.002c.314 1.777-5.424 2.789-5.787.732-.195-3.033 5.159-3.894 5.787-.732z"/><path fill="#45332C" d="M29.406 45.002c.314 1.777-5.424 2.789-5.787.732.627.867 5.465.139 5.787-.732z"/><path fill="#B88A6F" d="M53.733 45.248c-1.742-.095-3.98 5.394-3.172 7.09.114.236.933.728 1.819-.487.491-.673 1.64-1.104 2.231-2.565.756-1.873.856-3.945-.878-4.038z"/><path fill="#8C5F44" d="M53.494 46.332c-.47.062-1.076.654-1.537 1.734 1.614-.06.769 2.461-.592 2.27-.033.263-.063.533-.08.821.817-.83 1.413-.334 2.316-1.625.815-1.162 1.056-3.35-.107-3.2z"/><path fill="#B88A6F" d="M44.648 32.33c-7.391-1.303-11.937 3.656-12.861 11.502-.187 1.579-.114 6.847.478 8.838.607 2.036 2.232 5.473 4.046 6.409 1.147.59 3.804 1.058 5.082.896 2.026-.259 6.669-2.591 7.936-4.297 1.24-1.667 3.107-6.593 3.471-8.142 1.817-7.687-.758-13.902-8.152-15.206z"/><path fill="#5E4533" d="M50.845 44.151c-1.532-1.194-4.759-1.808-6.075-1.395-.28.073-.258.951-.027.91 1.795-.368 4.507.095 5.95 1.108.193.131.386-.454.152-.623zm-16.061-2.832c1.848-.598 5.089-.071 6.186.767.237.165-.083.982-.286.864-1.565-.961-4.268-1.452-5.972-.995-.225.058-.205-.557.072-.636z"/><path fill="#6E482A" d="m53.036 36.212-2.041 1.739c3.037 2.69.17 7.81 1.016 12.058 1.226-3.873 5.215-12.09 1.025-13.797zm-17.842-2.108 1.5 1.326c-3.774 1.488-2.763 7.293-5.011 10.995.173-4.059-1.009-12.15 3.511-12.321z"/><path fill="#52351F" d="M50.996 37.357c2.165.373 1.757 3.946 1.757 3.946s1.359-3.911-1.389-4.395l-.368.449zm-15.968-1.015c-1.241 1.965-1.931 4.088-1.931 4.088s-.189-1.605 1.378-4.106l.553.018z"/><path fill="#52351F" d="M52.003 36.684c1.722.122 1.647 2.941 1.647 2.941s.796-3.156-1.39-3.32l-.257.379z"/><path fill="#805837" d="M53.035 36.211s-1.745-4.839-8.057-5.952c-6.852-1.208-11.712 1.101-12.907 7.02 4.926-3.397 14.846 4.985 20.964-1.068z"/><path fill="#6E482A" d="M53.035 36.211c-.289-2.143-3.308-5.114-8.057-5.952 2.599.65 5.839 2.565 6.05 3.452 0 0-3.294-2.604-8.359-2.609 4.541.589 7.009 3.977 5.741 3.77-1.236-.202-5.842-.856-8.855.34 1.768.19 5.054 1.739 4.886 1.772-3.717.733-10.136-3.701-12.321.303 6.209-3.669 15.187 5.588 20.915-1.076z"/><path fill="#52351F" d="M53.035 36.211c-5.101 7.877-19.604-4.495-20.484 2.699-.21-8.47 13.743 4.392 20.484-2.699z"/><path fill="#52351F" d="M51.825 37.313c-1.12-3.661-6.456-5.848-6.456-5.848s5.743 1.355 6.986 5.478l-.53.37zm-1.014.606c-1.331-1.774-9.111-2.603-9.111-2.603s5.902-.702 9.805 2.223l-.694.38z"/><path fill="#6E482A" d="M32.643 36.044s1.832-5.982 12.262-3.672c-8.852-.325-12.262 3.672-12.262 3.672z"/><path fill="#916643" d="M33.355 35.808s5.125-4.715 14.025-1.729c-7.589-1.568-14.025 1.729-14.025 1.729zm.107-1.945s5.478-4.335 12.957-2.927c-8.457-2.678-12.957 2.927-12.957 2.927z"/><path fill="#8C5F44" d="M43.34 50.908c-.174-.191-.717-.076-1.994-.359-1.275-.285-1.715-.619-1.961-.519-.287.121-.066 1.006 1.762 1.414 1.829.406 2.406-.303 2.193-.536zm-6.657 2.461c-2.168 2.303 3.072 3.248 4.764.998l-4.764-.998z"/><path fill="#6E4A35" d="M37.953 52.992c1.154-.342 1.939.699 3.494 1.375-1.51.393-3.486.133-3.666-.512 0 0-.644.322-1.15-.256-.567-.642.218-1.421 1.322-.607z"/><path fill="#A87A5C" d="M49.76 47.676c-.312 1.775-6.055.764-5.69-1.293.852-2.916 6.18-1.893 5.69 1.293z"/><path fill="#45332C" d="M49.758 47.676c-.312 1.775-6.053.764-5.689-1.293.294 1.029 5.089 2 5.689 1.293z"/><path fill="#A87A5C" d="M34.593 45.002c-.314 1.777 5.424 2.789 5.787.732.196-3.033-5.158-3.894-5.787-.732z"/><path fill="#45332C" d="M34.593 45.002c-.314 1.777 5.424 2.789 5.787.732-.626.867-5.464.139-5.787-.732z"/><linearGradient id="a" x1="-22.866" x2="-22.866" y1="-518.528" y2="-527.293" gradientTransform="matrix(-2.7664 .8895 .8472 2.6347 410.433 1416.088)" gradientUnits="userSpaceOnUse"><stop offset="0" style="stop-color:#db0100"/><stop offset=".584" style="stop-color:#f31317"/><stop offset="1" style="stop-color:#ff1c23"/></linearGradient><path fill="url(#a)" d="M28.089 9.981c1.811-7.38 13.074-8.346 15.56-.609 1.67 5.19-.961 11.332-9.023 20.137-3.408-6.134-16.494-1.49-19.537-10.952-2.488-7.737 7.228-13.516 13-8.576z"/></svg>