<svg xmlns="http://www.w3.org/2000/svg" xml:space="preserve" style="enable-background:new 0 0 64 64" viewBox="0 0 64 64"><path d="M45.254 31.723c-1.271-1.645-7.428-3.657-7.428-3.657H26.172s-6.156 2.012-7.428 3.657c-2.08 2.69-2.808 8.431-2.808 8.431l4.93 4.93V59h22.267V45.084l4.93-4.93s-.729-5.74-2.809-8.43z" style="fill:#3ab0a2"/><path d="M26.168 28.085c0 4.888 11.658 4.87 11.658-.02l-1.168-.412h-9.27l-1.22.432z" style="fill:#2b998d"/><path d="M27.002 27.79c0 3.826 9.994 3.826 9.994 0v-4.234h-9.994v4.234z" style="fill:#f5bb51"/><path d="m20.867 58 11.065 4h.441l10.76-4z" style="fill:#2b4f87"/><path d="m25.092 52.722-7.793.011s-4.088 1.331-4.935 2.415c-.9 1.152-1.43 3.823-1.694 5.465 4.332 1.022 12.781 1.38 21.262 1.387 0-.002-.486-5.07-1.877-6.854-.85-1.09-4.963-2.424-4.963-2.424z" style="fill:#ff9ed2"/><path d="M17.3 52.733c0 3.243 7.792 3.23 7.792-.011l-.781-.275h-6.196l-.816.286z" style="fill:#ff82c5"/><path d="M17.858 52.538c0 2.538 6.677 2.538 6.677 0v-2.807h-6.677v2.807z" style="fill:#f5bb51"/><path d="m14.32 61.234-.283-.044c0-2.307.284-2.536.284.044zm14.044.731h-.301c0-3.68.3-3.68.3 0z" style="fill:#ff82c5"/><path d="m47.004 52.722-7.79.011s-4.09 1.331-4.938 2.415c-1.393 1.783-1.903 6.846-1.903 6.851 8.52-.01 16.989-.346 21.264-1.382-.258-1.642-.777-4.325-1.67-5.47-.85-1.091-4.963-2.425-4.963-2.425z" style="fill:#8feaff"/><path d="M39.213 52.733c0 3.243 7.791 3.23 7.791-.011l-.781-.275h-6.195l-.815.286z" style="fill:#67dbf5"/><path d="M39.77 52.538c0 2.538 6.68 2.538 6.68 0v-2.807h-6.68v2.807z" style="fill:#f5bb51"/><path d="m36.24 61.959-.298.006c0-3.68.298-3.687.298-.006zm14.028-.779-.283.027c0-2.266.283-2.433.283-.026z" style="fill:#67dbf5"/><path d="M15.992 53.226s-1.078 2 .141 1.78c.61-1.4 1.316-1.01 1.592-2.468.267-1.812-.873-2.922-.873-2.922-.992.736-3.139 2.376-3.406 2.83-.424.722-2.012 2.827-1.325 3.503.639 1.34 1.106-2.02 3.871-2.723z" style="fill:#f5bb51"/><path d="M13.399 53.318s-1.078 1.648-1.278 2.63c-.043-1.12 1.278-2.63 1.278-2.63z" style="fill:#f0a429"/><path d="M48.008 53.226s1.078 2-.14 1.78c-.61-1.4-1.317-1.01-1.592-2.468-.268-1.812.873-2.922.873-2.922.992.736 3.138 2.376 3.406 2.83.424.722 2.01 2.827 1.324 3.503-.639 1.34-1.105-2.02-3.87-2.723z" style="fill:#f5bb51"/><path d="M50.602 53.318s1.078 1.648 1.277 2.63c.041-1.12-1.277-2.63-1.277-2.63z" style="fill:#f0a429"/><path d="M42.095 13.946c-1.562.188-2.691 5.416-1.708 6.797.138.192.943.5 1.54-.718.331-.675 1.285-1.238 1.581-2.629.378-1.782.142-3.639-1.413-3.45zm-20.19 0c1.562.188 2.69 5.416 1.707 6.797-.138.192-.943.5-1.54-.718-.33-.675-1.285-1.238-1.58-2.629-.38-1.782-.143-3.639 1.413-3.45z" style="fill:#ffc940"/><path d="M42.053 14.947c-.408.128-.853.75-1.094 1.781 1.425-.306 1.069 2.066-.17 2.11.012.239.027.484.057.742.596-.865 1.203-.519 1.804-1.807.541-1.16.413-3.142-.597-2.826zM23.04 16.725c-.242-1.03-.686-1.65-1.093-1.779-1.009-.316-1.14 1.666-.598 2.827.6 1.288 1.208.94 1.805 1.806.03-.258.046-.504.055-.743-1.225-.057-1.576-2.4-.169-2.11z" style="fill:#f0a429"/><path d="M32 3.891c-6.772 0-10.034 5.119-9.626 12.235.081 1.432.971 6.102 1.81 7.778.858 1.714 3.729 4.357 5.487 4.904 1.112.345 3.546.345 4.656 0 1.76-.547 4.631-3.19 5.49-4.904.84-1.676 1.727-6.345 1.808-7.778.41-7.116-2.852-12.235-9.626-12.235z" style="fill:#ffc940"/><path d="M39.357 13.424c-1.548-.821-4.512-.861-5.616-.288-.238.109-.08.885.118.812 1.538-.609 4.02-.622 5.46.052.193.087.273-.463.038-.576zm-14.714 0c1.548-.821 4.51-.861 5.616-.288.236.109.08.885-.119.812-1.54-.609-4.02-.622-5.462.052-.19.087-.27-.463-.035-.576z" style="fill:#bb7c0a"/><path d="M33.827 20.53c-.193-.134-.646.073-1.827.073-1.18 0-1.634-.208-1.827-.073-.232.163.137.898 1.827.898s2.06-.735 1.827-.898z" style="fill:#f0a429"/><path d="M30.493 16.214c.057.45-.247.98-1.09 1.378-.534.254-1.648.551-3.11-.065-.655-.277-1.294-1.136-1.237-1.612.793-1.494 4.695-1.713 5.437.3z" style="fill:#fff"/><linearGradient id="a" x1="-1209.922" x2="-1209.922" y1="170.752" y2="170.286" gradientTransform="translate(7977.155 -1104.145) scale(6.5701)" gradientUnits="userSpaceOnUse"><stop offset="0" style="stop-color:#a6694a"/><stop offset="1" style="stop-color:#4f2a1e"/></linearGradient><path d="M27.846 14.654a1.533 1.533 0 1 1-1.534 1.53c0-.845.686-1.53 1.534-1.53z" style="fill:url(#a)"/><path d="M27.08 16.156c0 1.06 1.532 1.06 1.532 0 0-.982-1.532-.982-1.532 0z" style="fill:#1a1626"/><path d="M26.847 15.727c0 .444.642.444.642 0 0-.41-.642-.41-.642 0z" style="fill:#ab968c"/><path d="M30.5 16.273c-.622-1.997-4.867-1.702-5.444-.359.214-1.72 4.914-2.175 5.444.359z" style="fill:#f0a429"/><path d="M33.507 16.214c-.057.45.246.98 1.089 1.378.534.254 1.647.551 3.11-.065.657-.277 1.294-1.136 1.237-1.612-.793-1.494-4.695-1.713-5.436.3z" style="fill:#fff"/><linearGradient id="b" x1="-1211.362" x2="-1211.362" y1="170.752" y2="170.286" gradientTransform="translate(7994.886 -1104.145) scale(6.5701)" gradientUnits="userSpaceOnUse"><stop offset="0" style="stop-color:#a6694a"/><stop offset="1" style="stop-color:#4f2a1e"/></linearGradient><path d="M36.119 14.654a1.532 1.532 0 1 1 .002 3.063 1.532 1.532 0 0 1-.002-3.063z" style="fill:url(#b)"/><path d="M35.353 16.156c0 1.06 1.533 1.06 1.533 0 0-.982-1.533-.982-1.533 0z" style="fill:#1a1626"/><path d="M35.12 15.727c0 .444.642.444.642 0 0-.41-.642-.41-.642 0z" style="fill:#ab968c"/><path d="M33.5 16.273c.62-1.996 4.863-1.71 5.443-.359-.216-1.72-4.913-2.175-5.444.359z" style="fill:#f0a429"/><path d="M40.06 6.026 38.52 7.89c3.12 1.914 1.374 6.913 2.792 10.555.483-3.633 2.74-11.56-1.25-12.42zm-16.183.923 1.54.943c-3.12 1.913-1.312 6.912-2.729 10.554-.482-3.633-2.8-10.637 1.189-11.497z" style="fill:#f9a307"/><path d="M38.427 7.363c1.982-.007 2.179 3.231 2.179 3.231s.594-3.687-1.923-3.687l-.256.456zm-14.347 1.6c-.794 1.94-1.075 3.935-1.075 3.935s-.42-1.397.581-3.865l.494-.07z" style="fill:#e68c00"/><path d="M39.217 6.608c1.548-.161 1.924 2.355 1.924 2.355s.212-2.93-1.755-2.732l-.17.377z" style="fill:#e68c00"/><path d="M40.06 6.026S37.75 2 31.967 2C25.691 2 21.734 4.813 21.6 10.26c3.845-3.79 13.973 2.102 18.46-4.234z" style="fill:#ffb80d"/><path d="M40.06 6.026C39.466 4.167 36.318 2 31.967 2c2.411.17 5.59 1.365 5.917 2.12 0 0-3.335-1.799-7.836-1.01 4.127-.187 6.851 2.436 5.692 2.45-1.13.014-5.325.155-7.815 1.69 1.602-.108 4.763.753 4.62.809-3.188 1.233-9.586-1.7-10.9 2.2 4.94-4.233 14.367 2.585 18.413-4.233z" style="fill:#f9a307"/><path d="M40.06 6.026c-3.299 7.798-18.124-.923-17.779 5.607-1.513-7.493 12.9 1.749 17.778-5.607z" style="fill:#e68c00"/><path d="M39.156 7.194c-1.568-3.078-6.652-4.185-6.652-4.185s5.315.304 7.066 3.773l-.414.412zm-.806.697c-1.46-1.368-8.502-.885-8.502-.885s5.134-1.55 9.06.439l-.557.446z" style="fill:#e68c00"/><path d="M21.914 9.072s.69-5.602 10.32-5.183c-7.917 1.097-10.32 5.183-10.32 5.183z" style="fill:#f9a307"/><path d="M22.51 8.75s3.814-4.992 12.19-3.733c-6.988-.204-12.19 3.734-12.19 3.734zm-.21-1.744s4.188-4.71 11.054-4.63C25.42 1.32 22.3 7.005 22.3 7.005z" style="fill:#ffca25"/><path d="M32 23.472c-1.523-.449-3.781.213-3.781.213.86.935 1.49 2.151 3.78 2.151 2.626 0 3.072-1.38 3.781-2.15 0 0-2.258-.664-3.78-.214z" style="fill:#f0a429"/><path d="M28.786 23.844c1.597 1.34 4.821 1.347 6.427 0-1.7.073-4.714.073-6.427 0z" style="fill:#fff"/><path d="M13.546 42.53c-3.183 4.07.096 8.55-2.619 9.99 4.82 3.35 9.013-4.584 2.619-9.99z" style="fill:#e68c00"/><path d="M13.546 42.53c-6.455 4.266-.78 8.151-2.619 9.99 2.478.9 5.136-1.8 2.619-9.99z" style="fill:#ffb80d"/><path d="M13.546 42.53c-1.762 3.519 2.166 9.904-2.619 9.99 3.442 1.515 6.168-1.925 2.619-9.99z" style="fill:#f9a307"/><path d="M11.546 52.059c1.443-1.346-2.448-5.918 2.096-8.826-3.292 3.276.477 7.795-2.096 8.826z" style="fill:#ffca25"/><path d="M28.844 42.53c3.183 4.07-.096 8.55 2.619 9.99-4.82 3.35-9.013-4.584-2.619-9.99z" style="fill:#e68c00"/><path d="M28.844 42.53c6.455 4.266.78 8.151 2.619 9.99-2.478.9-5.136-1.8-2.619-9.99z" style="fill:#ffb80d"/><path d="M28.844 42.53c1.762 3.519-2.166 9.904 2.619 9.99-3.442 1.515-6.168-1.925-2.619-9.99z" style="fill:#f9a307"/><path d="M30.844 52.059c-1.443-1.346 2.448-5.918-2.096-8.826 3.292 3.276-.477 7.795 2.096 8.826z" style="fill:#ffca25"/><path d="M21.195 31.654c-6.786.004-11.081 5.973-8.438 13.64h16.876c2.643-7.667-1.653-13.636-8.438-13.64z" style="fill:#f9a307"/><path d="M12.637 42.108c1.066.13 1.834 3.73 1.165 4.68-.094.132-.643.344-1.05-.494-.226-.464-.876-.852-1.077-1.81-.259-1.227-.098-2.506.962-2.376z" style="fill:#ffc940"/><path d="M12.666 42.798c.278.088.581.516.746 1.226-.972-.211-.729 1.422.115 1.452a7.103 7.103 0 0 1-.038.511c-.407-.595-.82-.356-1.23-1.243-.369-.8-.281-2.164.407-1.946z" style="fill:#f0a429"/><path d="M29.752 42.108c-1.064.13-1.834 3.73-1.163 4.68.093.132.642.344 1.05-.494.225-.464.875-.852 1.076-1.81.259-1.227.098-2.506-.963-2.376z" style="fill:#ffc940"/><path d="M28.979 44.021c.165-.708.467-1.135.744-1.223.69-.218.777 1.146.408 1.946-.41.887-.823.648-1.23 1.243a7.154 7.154 0 0 1-.038-.511c.835-.04 1.075-1.653.116-1.455z" style="fill:#f0a429"/><path d="M21.196 32.858c-5.822 0-8.627 4.404-8.276 10.529.071 1.231.834 4.047 1.556 5.489 1.274 2.545 4.6 4.442 6.719 4.442 2.118 0 5.447-1.897 6.72-4.442.722-1.442 1.486-4.258 1.555-5.49.353-6.124-2.452-10.528-8.274-10.528z" style="fill:#ffc940"/><path d="M22.552 46.828c-.143-.1-.481.054-1.357.054s-1.214-.154-1.358-.054c-.172.121.103.668 1.358.668s1.53-.547 1.357-.668zm-1.357 1.952c-1.313-.386-3.258.183-3.258.183.74.807 1.283 1.853 3.258 1.853 2.261 0 2.647-1.188 3.259-1.853 0 0-1.947-.57-3.259-.183z" style="fill:#f0a429"/><path d="M18.425 49.1c1.377 1.155 4.155 1.162 5.54 0a81.084 81.084 0 0 1-5.54 0zm1.515-5.268c.047.373-.206.816-.908 1.148-.446.211-1.373.46-2.592-.054-.546-.23-1.078-.949-1.03-1.345.66-1.245 3.912-1.428 4.53.25z" style="fill:#fff"/><linearGradient id="c" x1="-425.724" x2="-425.724" y1="475.403" y2="475.791" gradientTransform="matrix(6.5701 0 0 -6.5701 2814.782 3168.527)" gradientUnits="userSpaceOnUse"><stop offset="0" style="stop-color:#a6694a"/><stop offset="1" style="stop-color:#4f2a1e"/></linearGradient><path d="M17.734 42.53a1.277 1.277 0 1 1 0 2.554 1.277 1.277 0 0 1 0-2.555z" style="fill:url(#c)"/><path d="M17.095 43.783c0 .884 1.278.884 1.278 0 0-.82-1.278-.82-1.278 0z" style="fill:#1a1626"/><path d="M16.902 43.426c0 .37.535.37.535 0 0-.344-.535-.344-.535 0z" style="fill:#ab968c"/><path d="M19.946 43.881c-.519-1.667-4.055-1.421-4.536-.3.178-1.435 4.094-1.814 4.536.3z" style="fill:#f0a429"/><path d="M22.451 43.832c-.049.373.205.816.907 1.148.445.211 1.373.46 2.592-.054.547-.23 1.079-.949 1.03-1.345-.659-1.245-3.912-1.428-4.529.25z" style="fill:#fff"/><linearGradient id="d" x1="-427.373" x2="-427.373" y1="475.403" y2="475.791" gradientTransform="matrix(6.5701 0 0 -6.5701 2832.512 3168.527)" gradientUnits="userSpaceOnUse"><stop offset="0" style="stop-color:#a6694a"/><stop offset="1" style="stop-color:#4f2a1e"/></linearGradient><path d="M24.628 42.53a1.278 1.278 0 1 1 0 2.555 1.278 1.278 0 0 1 0-2.556z" style="fill:url(#d)"/><path d="M23.99 43.783c0 .884 1.277.884 1.277 0 0-.82-1.277-.82-1.277 0z" style="fill:#1a1626"/><path d="M23.796 43.426c0 .37.535.37.535 0 0-.344-.535-.344-.535 0z" style="fill:#ab968c"/><path d="M22.445 43.881c.518-1.667 4.052-1.428 4.536-.3-.18-1.435-4.094-1.814-4.536.3z" style="fill:#f0a429"/><path d="M27.045 42.151c-.82-.837-2.323-1.397-4.115-.902-.19.053-.178.647-.023.607 1.638-.425 3.006-.158 4.032.71.12.101.241-.276.106-.415zm-11.699 0c.82-.837 2.323-1.397 4.115-.902.19.053.178.647.023.607-1.638-.425-3.006-.158-4.032.71-.12.101-.242-.276-.106-.415z" style="fill:#bb7c0a"/><path d="M21.193 31.855c-3.413 0-6.343 1.914-7.666 4.2-1.205 2.082-1.443 5.76-.361 8.778.14-2.896 1.746-4.354 1.648-7.541 9.59 0 13.523 3.09 14.405 7.541 2.177-6.08-1.252-12.978-8.026-12.978z" style="fill:#f9a307"/><path d="M21.01 31.857c-3.412 0-6.16 1.912-7.483 4.198-1.205 2.082-1.71 4.753-.361 8.778-.692-4.439 1.209-7.915 1.209-7.915 9.322-1.012 13.85 3.113 14.844 7.915.217-1.638.004-9.24-8.475-9.9 6.306-.569 8.475 2.569 8.625 7.283 1.68-6.14-3.804-10.36-8.358-10.36z" style="fill:#ffb80d"/><path d="M29.219 44.833c-1.89-8.216-15.167-7.5-15.167-7.5s14.026-1.552 15.167 7.5z" style="fill:#e68c00"/><path d="M13.166 44.833c-.122-3.425 1.69-4.967 1.495-8.502.749 3.36-.865 5.027-1.495 8.502z" style="fill:#e68c00"/><path d="M29.37 42.216c.765-11.573-17.117-11.573-16.352 0 .667-9.72 15.684-9.72 16.351 0z" style="fill:#cfd8dd"/><path d="M29.37 41.841c.765-11.573-17.117-11.573-16.352 0 .667-9.72 15.684-9.72 16.351 0z" style="fill:#fff"/><path d="M13.118 37.502c3.413-7.553 10.509-4.628 10.509-4.628s-6.704-1.696-10.509 4.627zm14.613 2.525c-3.4-3.696-8.72-4.347-8.72-4.347s6.163-.886 8.72 4.347z" style="fill:#ffca25"/><path d="M40.837 32.236c.14-.15.365-.372.627-.439-.558-.071-1.168.046-1.618.391a.514.514 0 0 1-.094-.534c-.635.407-.722.832-.722.832-.216-.242-.26-.582-.26-.582s-.679.5-.513 1.116c-.667-.173-1.18.154-1.18.154s.326.084.501.307c1.046.133 3.308-.636 3.259-1.245z" style="fill:#f9a307"/><path d="M34.55 42.108c1.065.13 1.834 3.73 1.164 4.68-.094.133-.643.344-1.05-.494-.225-.464-.875-.852-1.077-1.81-.259-1.227-.097-2.505.962-2.376z" style="fill:#ffc940"/><path d="M34.578 42.798c.278.088.582.516.746 1.226-.971-.211-.729 1.422.115 1.452a7.103 7.103 0 0 1-.038.511c-.407-.595-.82-.356-1.23-1.243-.368-.8-.28-2.164.407-1.946z" style="fill:#f0a429"/><path d="M51.665 42.108c-1.065.13-1.835 3.73-1.164 4.68.093.133.642.344 1.05-.494.226-.464.875-.852 1.077-1.81.258-1.227.097-2.506-.963-2.376z" style="fill:#ffc940"/><path d="M50.891 44.021c.165-.708.467-1.135.745-1.223.688-.219.776 1.146.407 1.946-.409.887-.823.648-1.23 1.243a7.096 7.096 0 0 1-.038-.511c.836-.04 1.075-1.653.116-1.455z" style="fill:#f0a429"/><path d="M43.108 32.858c-5.822 0-8.627 4.404-8.275 10.529.07 1.231.834 4.047 1.555 5.489 1.274 2.545 4.6 4.442 6.72 4.442 2.117 0 5.447-1.897 6.72-4.442.722-1.442 1.485-4.258 1.554-5.49.353-6.124-2.452-10.528-8.274-10.528z" style="fill:#ffc940"/><path d="M44.464 46.828c-.143-.1-.48.054-1.357.054s-1.213-.154-1.358-.054c-.171.121.103.668 1.358.668 1.256 0 1.53-.547 1.357-.668zm-1.357 1.952c-1.312-.386-3.258.183-3.258.183.74.807 1.284 1.853 3.258 1.853 2.262 0 2.647-1.188 3.26-1.853 0 0-1.948-.571-3.26-.183z" style="fill:#f0a429"/><path d="M40.337 49.1c1.377 1.155 4.156 1.162 5.54 0a81.084 81.084 0 0 1-5.54 0zm1.515-5.268c.048.373-.205.816-.907 1.148-.446.211-1.374.46-2.592-.054-.547-.23-1.079-.949-1.03-1.345.66-1.245 3.91-1.428 4.529.25z" style="fill:#fff"/><linearGradient id="e" x1="-422.389" x2="-422.389" y1="475.403" y2="475.791" gradientTransform="matrix(6.5701 0 0 -6.5701 2814.782 3168.527)" gradientUnits="userSpaceOnUse"><stop offset="0" style="stop-color:#a6694a"/><stop offset="1" style="stop-color:#4f2a1e"/></linearGradient><circle cx="39.646" cy="43.807" r="1.277" style="fill:url(#e)"/><path d="M39.008 43.783c0 .884 1.277.884 1.277 0 0-.82-1.277-.82-1.277 0z" style="fill:#1a1626"/><path d="M38.814 43.426c0 .37.535.37.535 0 0-.344-.535-.344-.535 0z" style="fill:#ab968c"/><path d="M41.858 43.881c-.518-1.667-4.055-1.421-4.536-.3.178-1.435 4.094-1.814 4.536.3z" style="fill:#f0a429"/><path d="M44.363 43.832c-.048.373.206.816.908 1.148.445.211 1.373.46 2.592-.054.546-.23 1.078-.949 1.03-1.345-.66-1.245-3.912-1.428-4.53.25z" style="fill:#fff"/><linearGradient id="f" x1="-424.038" x2="-424.038" y1="475.403" y2="475.791" gradientTransform="matrix(6.5701 0 0 -6.5701 2832.512 3168.527)" gradientUnits="userSpaceOnUse"><stop offset="0" style="stop-color:#a6694a"/><stop offset="1" style="stop-color:#4f2a1e"/></linearGradient><path d="M46.54 42.53a1.278 1.278 0 1 1 0 2.555 1.278 1.278 0 0 1 0-2.556z" style="fill:url(#f)"/><path d="M45.902 43.783c0 .884 1.277.884 1.277 0 0-.82-1.277-.82-1.277 0z" style="fill:#1a1626"/><path d="M45.708 43.426c0 .37.535.37.535 0 0-.344-.535-.344-.535 0z" style="fill:#ab968c"/><path d="M44.357 43.881c.518-1.667 4.052-1.428 4.536-.3-.18-1.435-4.094-1.814-4.536.3z" style="fill:#f0a429"/><path d="M48.975 41.841c-1.098-.693-3.31-.894-4.178-.54-.185.068-.124.649.03.606 1.194-.357 3.05-.223 4.079.356.138.076.237-.324.07-.422zm-11.737 0c1.1-.693 3.312-.894 4.18-.54.184.068.124.649-.03.606-1.197-.357-3.05-.223-4.08.357-.137.075-.236-.325-.07-.423z" style="fill:#bb7c0a"/><path d="M39.646 32.735c-4.207.191-7.656 6.453-4.456 12.754 0 0 .256-5.493 2.575-7.132-.126 1.036-.402 1.768-.402 1.768s2.275-.36 4.278-1.638c-.233 1.145-.86 1.964-.86 1.964s4.138-.577 5.366-2.524c0 0 .81 1.705 2.817 2.933 0 0 .125-1.278-.152-2.183 1.967 1.935 2.198 6.803 2.198 6.803 4.148-9.1-3.976-16.723-11.364-12.745z" style="fill:#f9a307"/><path d="M39.989 32.926c-.126.683-.1 1.41-.1 1.41s-.406-.705-.327-1.279c-.877.677-2.081 2.019-2.081 2.019s.572-1.005 1.212-1.739c-4.23 1.237-5.065 6.47-4.048 9.261.49-2.601 1.85-4.684 4.17-6.222 0 0-.093 1.89-.923 2.925 2.452-.422 4.541-2.349 4.491-4.288.45 1.801.372 3.347-.642 4.777 2.077-.214 4.441-2.088 4.535-3.787.427 1.7.936 2.88 2.275 3.782 0-1.838-.907-3.56-.907-3.56s2.688 1.712 3.738 6.858c1.704-9.474-6.115-12.57-10.905-10.552 1.129.05 1.743.302 1.743.302s-1.266-.114-2.231.093z" style="fill:#ffb80d"/><path d="m48.517 37.69.358 1.227s1.68 2.227 2.135 6.563c.21-4.686-2.493-7.79-2.493-7.79zm-2.275.194-.092.267s.723 1.797 2.814 2.71c-1.694-1.072-2.722-2.977-2.722-2.977z" style="fill:#e68c00"/><path d="M46.42 36.857c.336 3.133-5.64 3.594-5.64 3.594s5.198-1.019 5.64-3.594zm-4.267.99c-1.036 1.96-4.79 2.278-4.79 2.278s2.901-.67 4.79-2.278zm-4.046.101c-2.676 3.134-2.917 7.54-2.917 7.54s-.706-4.732 2.917-7.54z" style="fill:#e68c00"/><path d="M51.382 43.083c.323-2.632-1.862-6.595-1.862-6.595s3.19 2.62 1.862 6.595z" style="fill:#f9a307"/><path d="M50.828 37.417c-3.48-6.228-9.355-5.045-9.355-5.045s6.84-1.835 9.355 5.045zm-12.213 1.451c2.577-2.075 2.166-4.983 2.166-4.983s1.326 3.134-2.166 4.983z" style="fill:#ffca25"/><path d="M47.9 38.38c-.65-2.164-2.054-4.495-2.054-4.495s1.906 1.503 2.054 4.494zm2.359.488c-.915-2.065-2.861-4.476-2.861-4.476s2.339 1.527 2.861 4.476zM37.4 34.392c-2.146 2.588-2.666 5.773-2.666 5.773s-.35-3.913 2.665-5.773zm5.302 4.849c1.647-2.679.272-5.276.272-5.276s2.183 2.524-.272 5.276z" style="fill:#ffca25"/><path d="M41.74 39.79c3.828-1.136 3.201-4.84 3.201-4.84s1.322 4.79-3.2 4.84z" style="fill:#f9a307"/></svg>