<svg xmlns="http://www.w3.org/2000/svg" xml:space="preserve" style="enable-background:new 0 0 64 64" viewBox="0 0 64 64"><radialGradient id="a" cx="24.175" cy="30" r="17.875" gradientTransform="translate(-8.211)" gradientUnits="userSpaceOnUse"><stop offset="0" style="stop-color:#bf6000"/><stop offset=".397" style="stop-color:#dc8103"/><stop offset=".772" style="stop-color:#f19a06"/><stop offset="1" style="stop-color:#f9a307"/></radialGradient><path d="M20.59 29.533C29.926 25.8 28.993 14.6 28.993 14.6H2.858s-.933 11.2 8.4 14.933c0 0 1.867.467 4.666.467 2.801 0 4.667-.467 4.667-.467z" style="fill:url(#a)"/><path d="m48.949 58 4.327 2.836c2.137-.368 3.408-.829 3.408-1.388v-1.447L48.95 58z" style="fill:#2b4f87"/><path d="M60.018 31.723c-1.272-1.645-7.428-3.657-7.428-3.657l-11.655.019s-5.956 1.993-7.228 3.638c-2.08 2.69-2.432 7.974-2.432 7.974L35.95 58h20.735V45.085l5.552-4.93s-.138-5.74-2.218-8.43z" style="fill:#3ab0a2"/><path d="M40.932 28.085c0 4.888 11.658 4.87 11.658-.02l-1.168-.412h-9.27l-1.22.432z" style="fill:#2b998d"/><path d="M41.766 27.79c0 3.826 9.994 3.826 9.994 0v-4.234h-9.994v4.234z" style="fill:#f5bb51"/><path d="m46.31 53.163-8.074.011s-6.967 2.197-6.967 4.827V62c8.69 0 17.382-.366 22.006-1.164v-2.835c0-2.636-6.965-4.838-6.965-4.838z" style="fill:#d170e4"/><path d="M38.236 53.174c0 3.088 8.074 3.076 8.074-.011l-.81-.262h-6.419l-.845.273z" style="fill:#9c5fd3"/><path d="M38.814 52.988c0 2.417 6.92 2.417 6.92 0v-2.674h-6.92v2.674z" style="fill:#f5bb51"/><path d="m34.849 61.98.308-.005c-.002-3.472-.307-3.47-.308.004zm14.544-.652.3-.029c-.035-2.574-.265-2.566-.3.029z" style="fill:#9c5fd3"/><path d="M47.404 53.63s-.313-.119-1.094-.467c1-.94 1.715-.936 3.468-1.403 2.5-.667 3.937-3.73 6.754-5.73 0 0-.209-2.124.208-3.874 2.521-.497 5.361-1.866 5.361-1.866s.097 6.428-1.531 8.67c-1.269 1.747-7.708 4.404-8.417 5.133-.841.866-1.261 2.28-1.501 2.529-2.084 2.138-4.223 1.956-4.797 1.405-2.29-.235 2.517-3.252 1.549-4.398z" style="fill:#f5bb51"/><path d="M48.02 56.26s-1.208 1.476-2.165 1.767c1.119-.072 2.166-1.767 2.166-1.767zm1.313.046s-1.505 1.783-2.463 2.075c1.12-.073 2.463-2.075 2.463-2.075zm.729.236s-1.047 1.415-2.006 1.707c1.12-.072 2.006-1.707 2.006-1.707z" style="fill:#f0a429"/><path d="M37.142 53.64s.313-.117 1.094-.466c-.385-.616-1.14-.909-1.458-1.58-.505-1.069-1.155-3.703-1.32-4.703 0 0 .185-3.658.02-5.105a37.36 37.36 0 0 0-4.203-2.089v7.04c0 1.565 2.514 4.898 2.416 5.82-.203 1.909-.037 3.828.203 4.076 2.084 2.138 4.223 1.957 4.797 1.405 2.29-.235-2.517-3.251-1.549-4.397z" style="fill:#f5bb51"/><path d="M36.525 56.271s1.21 1.476 2.166 1.767c-1.119-.072-2.166-1.767-2.166-1.767zm-1.312.047s1.506 1.783 2.463 2.074c-1.12-.073-2.463-2.074-2.463-2.074zm-.729.236s1.047 1.415 2.006 1.706c-1.119-.071-2.006-1.706-2.006-1.706z" style="fill:#f0a429"/><path d="M25.504 29.697 22 28.327l-12.146-.01-4.146 1.38.503 18.296-.79 11.457c.003.59 1.443 1.07 3.843 1.449l17.8-5.415-1.56-25.787z" style="fill:#8e3ed6"/><path d="M20.42 27.774v-4.218h-8.97v4.203l-1.596.558c0 3.948 5.199 6.315 6.081 6.315.878 0 6.064-2.365 6.064-6.304l-1.578-.554z" style="fill:#f5bb51"/><path d="M31.27 58c0-2.63-6.955-4.826-6.955-4.826l-8.074-.011S9.275 55.365 9.275 58v2.898C14.06 61.652 22.666 62 31.27 62v-4z" style="fill:#ff9ed2"/><path d="M24.315 53.174c0 3.088-8.074 3.076-8.074-.011l.81-.262h6.419l.845.273z" style="fill:#ff82c5"/><path d="M23.737 52.988c0 2.417-6.92 2.417-6.92 0v-2.674h6.92v2.674z" style="fill:#f5bb51"/><path d="m27.394 61.976.309.004c-.002-3.476-.307-3.477-.309-.004zm-14.537-.646c.1.01.2.018.301.027-.033-2.636-.267-2.644-.301-.027z" style="fill:#ff82c5"/><path d="M25.409 53.64s-.313-.117-1.094-.466c.385-.616 1.14-.909 1.458-1.581.505-1.068.799-4.929 1.29-6.991-.335-3.719-2.314-5.655-1.56-14.905 1.931.577 3.729 1.686 4.291 5.624.272 1.902 1.481 5.125 1.481 9.838 0 2.255-2.513 6.476-2.415 7.399.203 1.908.037 3.827-.203 4.075-2.084 2.138-4.223 1.956-4.797 1.405-2.29-.235 2.517-3.251 1.549-4.397z" style="fill:#f5bb51"/><path d="M26.026 56.271s-1.21 1.476-2.166 1.767c1.119-.072 2.166-1.767 2.166-1.767zm1.312.047s-1.506 1.783-2.463 2.074c1.12-.073 2.463-2.074 2.463-2.074zm.729.236s-1.047 1.415-2.006 1.706c1.119-.071 2.006-1.706 2.006-1.706z" style="fill:#f0a429"/><path d="M15.14 53.633s.315-.119 1.101-.47c-1.006-.948-2.175-.67-3.752-1.597-2.357-1.383-5.454-5.826-6.28-7.166-.414-.673.947-7.25-.511-14.703-1.26.446-3.863 2.152-3.85 5.936.005 1.724-.276 6.917.164 10 .285 1.992 6.227 5.808 8.331 8.246.406.469 1.29 2.524 1.53 2.775 2.099 2.157 4.25 1.974 4.826 1.417 2.305-.236-2.53-3.281-1.558-4.438z" style="fill:#f5bb51"/><path d="M14.52 56.288s1.216 1.49 2.179 1.784c-1.124-.073-2.18-1.784-2.18-1.784zm-1.319.047s1.513 1.8 2.476 2.093c-1.124-.072-2.476-2.093-2.476-2.093zm-.732.239s1.053 1.428 2.016 1.722c-1.127-.073-2.016-1.722-2.016-1.722z" style="fill:#f0a429"/><path d="M15.925 3.4c-6.772 0-10.034 5.516-9.627 12.607.084 1.425.48 3.481.97 5.243 1.015 3.662 6.375 7.35 8.657 7.35s7.641-3.688 8.658-7.35c.49-1.762.886-3.818.97-5.243C25.958 8.916 22.698 3.4 15.924 3.4z" style="fill:#ffc940"/><path d="M15.924 22.843c-1.586-.698-1.6-.028-4.05.136.92 1.044 1.598 2.387 4.05 2.387 2.814 0 3.29-1.525 4.052-2.387-2.453-.164-2.463-.834-4.052-.136z" style="fill:#d47706"/><path d="M12.61 23.24c1.6 1.664 5.05 1.642 6.63 0-2.463.265-4.166.265-6.63 0z" style="fill:#fff"/><path d="M23.121 13.647c-1.47-.877-4.11-.984-5.154-.386-.221.12-.162.754.03.674 1.488-.62 3.758-.65 5.156.067.187.095.192-.227-.032-.355zm-14.393 0c1.472-.877 4.11-.984 5.157-.386.221.12.162.754-.03.674-1.49-.62-3.758-.652-5.158.067-.187.095-.19-.227.031-.355z" style="fill:#bb7c0a"/><path d="M17.447 20.593c-.16-.113-.54.06-1.523.06-.982 0-1.36-.173-1.522-.06-.193.136.114.749 1.522.749s1.718-.613 1.523-.75z" style="fill:#f0a429"/><path d="M14.419 16.308c.057.447-.247.979-1.09 1.377-.535.253-1.648.551-3.11-.066-.656-.276-1.295-1.136-1.237-1.612.793-1.495 4.695-1.714 5.437.3z" style="fill:#fff"/><linearGradient id="b" x1="-426.631" x2="-426.631" y1="479.554" y2="480.02" gradientTransform="matrix(6.5701 0 0 -6.5701 2814.782 3168.527)" gradientUnits="userSpaceOnUse"><stop offset="0" style="stop-color:#a6694a"/><stop offset="1" style="stop-color:#4f2a1e"/></linearGradient><path d="M11.77 14.745a1.533 1.533 0 1 1 0 3.066 1.533 1.533 0 0 1 0-3.066z" style="fill:url(#b)"/><path d="M11.005 16.25c0 1.06 1.533 1.06 1.533 0 0-.985-1.533-.985-1.533 0z" style="fill:#1a1626"/><path d="M10.772 15.82c0 .445.643.445.643 0 0-.412-.643-.412-.643 0z" style="fill:#ab968c"/><path d="M14.426 16.367c-.623-2-4.866-1.705-5.444-.36.214-1.723 4.914-2.178 5.444.36z" style="fill:#45332c"/><path d="M17.432 16.308c-.057.447.247.979 1.09 1.377.534.253 1.647.551 3.11-.066.656-.276 1.294-1.136 1.237-1.612-.792-1.495-4.695-1.714-5.437.3z" style="fill:#fff"/><linearGradient id="c" x1="-428.071" x2="-428.071" y1="479.554" y2="480.02" gradientTransform="matrix(6.5701 0 0 -6.5701 2832.512 3168.527)" gradientUnits="userSpaceOnUse"><stop offset="0" style="stop-color:#a6694a"/><stop offset="1" style="stop-color:#4f2a1e"/></linearGradient><path d="M20.045 14.745a1.533 1.533 0 1 1 0 3.066 1.533 1.533 0 0 1 0-3.066z" style="fill:url(#c)"/><path d="M19.28 16.25c0 1.06 1.532 1.06 1.532 0 0-.985-1.533-.985-1.533 0z" style="fill:#1a1626"/><path d="M19.046 15.82c0 .445.643.445.643 0 0-.412-.643-.412-.643 0z" style="fill:#ab968c"/><path d="M17.425 16.367c.622-2 4.863-1.714 5.444-.36-.215-1.723-4.914-2.178-5.444.36z" style="fill:#45332c"/><path d="M23.547 4.39C24.32 3.286 17.77.955 11.586 2.53c-6.178 1.415-9.66 8.182-9.66 16.724 0 3.417 2.276 7.725 6.633 9.551l1.191-.436C4.76 24.078 5.81 19.748 7.525 14.6c4.64-2.687 9.89-3.32 13.534-6.534-.467 1.4 2.003 3.166 3.266 6.534 1.758 4.687 2.73 9.44-2.232 13.775l1.044.397c4.137-1.846 6.788-6.123 6.788-9.52 0-10.097-3.902-15.577-6.378-14.863z" style="fill:#ffb80d"/><path d="M23.547 4.39c.743-.89-2.567-2.372-6.738-2.372 5.119.404 6.863 3.177 5.443 2.443-1.514-.781-5.214-1.916-10.171.33 5.423-1.154 10.412.107 9.636.76-1.225 1.03-6.623-1.777-14.183 5.125-1.042.95 4.535-3.648 12.019-3.794-1.041 2.19-14.352 5.66-16.418 11.102 3.466-4.946 18.078-6.783 20.412-13.594zm3.389 7.926s3.246 8.803-2.193 14.907c7.79-6.104 2.193-14.907 2.193-14.907z" style="fill:#f9a307"/><path d="M7.816 14.348s-1.326.241-2.411 1.419c-2.27 8.015 3.154 11.456 3.154 11.456s-4.301-4.414-.743-12.875z" style="fill:#f9a307"/><path d="M4.423 16.529s-.623.244-1.385 1.804c-.705 4.887 2.726 7.377 2.726 7.377s-3.218-3.931-1.341-9.181zm24.259-6.233C26.315 2.93 23.547 4.39 23.547 4.39s-1.332 2.494-2.392 3.37c-1.916 2.352 4.672 4.37 4.5 14.562 1.741-7.242-3.1-12.084-3.178-13.377-.09-1.466 1.13-3.72 2.078-3.99 1.03-.294 3.39 3.345 4.127 5.34z" style="fill:#f9a307"/><path d="M3.038 18.333c3.749-6.115 17.625-5.702 20.509-13.943-4.86 7.517-19.58 8.77-20.509 13.943z" style="fill:#e68c00"/><path d="M23.413 7.681s3.075 6.592 3.58 12.192c.837-8.61-3.58-12.192-3.58-12.192zM6.864 13.297S11.337 10.394 16.936 8c-5.993.36-10.072 5.298-10.072 5.298zm-2.761-.593s3.515-5.614 9.924-7.248c-8.918-.583-9.924 7.248-9.924 7.248z" style="fill:#ffca25"/><path d="M56.858 13.946c-1.562.188-2.691 5.416-1.707 6.797.138.192.942.5 1.54-.718.33-.675 1.284-1.238 1.58-2.629.379-1.782.143-3.639-1.413-3.45zm-20.19 0c1.563.188 2.691 5.416 1.708 6.797-.139.192-.943.5-1.541-.718-.33-.675-1.285-1.238-1.58-2.629-.38-1.782-.142-3.639 1.413-3.45z" style="fill:#ffc940"/><path d="M56.816 14.947c-.408.128-.853.75-1.094 1.781 1.425-.306 1.07 2.066-.17 2.11.012.239.028.484.058.742.595-.865 1.203-.519 1.803-1.807.542-1.16.413-3.142-.597-2.826zm-19.012 1.778c-.242-1.03-.686-1.65-1.094-1.779-1.008-.316-1.14 1.666-.597 2.827.6 1.288 1.207.94 1.805 1.806.029-.258.045-.504.055-.743-1.226-.057-1.577-2.4-.17-2.11z" style="fill:#f0a429"/><path d="M46.763 3.891c-6.772 0-10.034 5.119-9.626 12.235.082 1.432.972 6.102 1.81 7.778.858 1.714 3.73 4.357 5.488 4.904 1.111.345 3.545.345 4.655 0 1.76-.547 4.632-3.19 5.49-4.904.84-1.676 1.728-6.345 1.808-7.778.41-7.116-2.852-12.235-9.625-12.235z" style="fill:#ffc940"/><path d="M54.12 13.424c-1.548-.821-4.511-.861-5.616-.288-.238.109-.08.885.119.812 1.537-.609 4.02-.622 5.46.052.192.087.272-.463.037-.576zm-14.714 0c1.548-.821 4.51-.861 5.616-.288.236.109.08.885-.118.812-1.541-.609-4.02-.622-5.462.052-.19.087-.27-.463-.036-.576z" style="fill:#bb7c0a"/><path d="M48.59 20.53c-.193-.134-.646.073-1.827.073-1.179 0-1.633-.208-1.827-.073-.231.163.137.898 1.827.898s2.06-.735 1.827-.898z" style="fill:#f0a429"/><path d="M45.256 16.214c.057.45-.247.98-1.089 1.378-.534.254-1.649.551-3.11-.065-.656-.277-1.295-1.136-1.237-1.612.793-1.494 4.694-1.712 5.436.3z" style="fill:#fff"/><linearGradient id="d" x1="-1207.675" x2="-1207.675" y1="170.752" y2="170.286" gradientTransform="translate(7977.155 -1104.145) scale(6.5701)" gradientUnits="userSpaceOnUse"><stop offset="0" style="stop-color:#a6694a"/><stop offset="1" style="stop-color:#4f2a1e"/></linearGradient><path d="M42.61 14.654a1.533 1.533 0 1 1 0 3.065 1.533 1.533 0 0 1 0-3.065z" style="fill:url(#d)"/><path d="M41.843 16.156c0 1.06 1.533 1.06 1.533 0 0-.982-1.533-.982-1.533 0z" style="fill:#1a1626"/><path d="M41.61 15.727c0 .444.642.444.642 0 0-.41-.642-.41-.642 0z" style="fill:#ab968c"/><path d="M45.264 16.273c-.623-1.997-4.867-1.702-5.444-.359.213-1.72 4.913-2.175 5.444.359z" style="fill:#f0a429"/><path d="M48.27 16.214c-.057.45.246.98 1.089 1.378.535.254 1.648.551 3.11-.065.657-.277 1.295-1.136 1.238-1.612-.793-1.494-4.696-1.712-5.437.3z" style="fill:#fff"/><linearGradient id="e" x1="-1209.114" x2="-1209.114" y1="170.752" y2="170.286" gradientTransform="translate(7994.886 -1104.145) scale(6.5701)" gradientUnits="userSpaceOnUse"><stop offset="0" style="stop-color:#a6694a"/><stop offset="1" style="stop-color:#4f2a1e"/></linearGradient><path d="M50.882 14.654a1.532 1.532 0 1 1 .002 3.064 1.532 1.532 0 0 1-.002-3.064z" style="fill:url(#e)"/><path d="M50.117 16.156c0 1.06 1.533 1.06 1.533 0 0-.982-1.533-.982-1.533 0z" style="fill:#1a1626"/><path d="M49.883 15.727c0 .444.643.444.643 0 0-.41-.643-.41-.643 0z" style="fill:#ab968c"/><path d="M48.263 16.273c.621-1.996 4.863-1.71 5.443-.359-.216-1.72-4.913-2.175-5.443.359z" style="fill:#f0a429"/><path d="M54.824 6.026 53.282 7.89c3.12 1.914 1.375 6.913 2.792 10.555.483-3.633 2.74-11.56-1.25-12.42zm-16.184.923 1.541.943c-3.12 1.913-1.312 6.912-2.73 10.554-.482-3.633-2.8-10.637 1.19-11.497z" style="fill:#f9a307"/><path d="M53.19 7.363c1.982-.007 2.18 3.231 2.18 3.231s.594-3.687-1.923-3.687l-.257.456zm-14.346 1.6c-.795 1.94-1.076 3.935-1.076 3.935s-.42-1.397.581-3.865l.495-.07z" style="fill:#e68c00"/><path d="M53.98 6.608c1.549-.161 1.925 2.355 1.925 2.355s.212-2.93-1.756-2.732l-.169.377z" style="fill:#e68c00"/><path d="M54.823 6.026S52.513 2 46.732 2c-6.277 0-10.235 2.813-10.37 8.26 3.846-3.79 13.973 2.102 18.46-4.234z" style="fill:#ffb80d"/><path d="M54.823 6.026C54.23 4.167 51.083 2 46.732 2c2.41.17 5.59 1.365 5.916 2.12 0 0-3.335-1.799-7.835-1.01 4.126-.187 6.85 2.436 5.691 2.45-1.13.014-5.325.155-7.814 1.69 1.601-.108 4.763.753 4.619.809-3.188 1.233-9.586-1.7-10.9 2.2 4.941-4.233 14.368 2.585 18.414-4.233z" style="fill:#f9a307"/><path d="M54.823 6.026c-3.299 7.798-18.123-.923-17.778 5.607-1.514-7.493 12.899 1.75 17.778-5.607z" style="fill:#e68c00"/><path d="M53.92 7.194c-1.57-3.078-6.653-4.184-6.653-4.184s5.316.304 7.066 3.773l-.413.412zm-.806.697c-1.46-1.368-8.503-.885-8.503-.885s5.134-1.55 9.061.439l-.558.446z" style="fill:#e68c00"/><path d="M36.677 9.072s.691-5.602 10.32-5.183c-7.916 1.097-10.32 5.183-10.32 5.183z" style="fill:#f9a307"/><path d="M37.273 8.75s3.815-4.992 12.19-3.733c-6.988-.204-12.19 3.734-12.19 3.734zm-.21-1.744s4.188-4.71 11.054-4.63c-7.933-1.055-11.054 4.63-11.054 4.63z" style="fill:#ffca25"/><path d="M46.763 23.472c-1.522-.448-3.78.213-3.78.213.86.935 1.489 2.151 3.78 2.151 2.625 0 3.072-1.38 3.78-2.15 0 0-2.258-.664-3.78-.214z" style="fill:#f0a429"/><path d="M43.55 23.844c1.596 1.34 4.82 1.347 6.427 0a94.363 94.363 0 0 1-6.428 0z" style="fill:#fff"/><path d="M34.626 42.876c-3.182 4.07.096 8.55-2.618 9.99 4.82 3.35 9.012-4.584 2.618-9.99z" style="fill:#e68c00"/><path d="M34.626 42.876c-6.455 4.266-.78 8.15-2.618 9.99 2.478.9 5.136-1.8 2.618-9.99z" style="fill:#ffb80d"/><path d="M34.626 42.876c-1.762 3.518 2.167 9.904-2.618 9.99 3.441 1.514 6.168-1.925 2.618-9.99z" style="fill:#f9a307"/><path d="M32.626 52.405c1.443-1.346-2.448-5.918 2.096-8.826-3.292 3.276.477 7.794-2.096 8.826z" style="fill:#ffca25"/><path d="M49.925 42.876c3.183 4.07-.096 8.55 2.618 9.99-4.82 3.35-9.012-4.584-2.618-9.99z" style="fill:#e68c00"/><path d="M49.925 42.876c6.455 4.266.78 8.15 2.618 9.99-2.478.9-5.136-1.8-2.618-9.99z" style="fill:#ffb80d"/><path d="M49.925 42.876c1.762 3.518-2.167 9.904 2.618 9.99-3.441 1.514-6.168-1.925-2.618-9.99z" style="fill:#f9a307"/><path d="M51.925 52.405c-1.443-1.346 2.448-5.918-2.096-8.826 3.292 3.276-.477 7.794 2.096 8.826z" style="fill:#ffca25"/><path d="M42.276 32c-6.786.004-11.082 5.973-8.439 13.64h16.877c2.643-7.667-1.654-13.636-8.438-13.64z" style="fill:#f9a307"/><path d="M33.717 42.454c1.066.13 1.835 3.73 1.166 4.68-.095.132-.644.344-1.05-.495-.226-.463-.876-.851-1.078-1.809-.258-1.227-.097-2.506.962-2.376z" style="fill:#ffc940"/><path d="M33.746 43.144c.278.088.582.516.746 1.226-.971-.211-.728 1.422.116 1.452a7.103 7.103 0 0 1-.039.511c-.407-.595-.82-.356-1.23-1.243-.368-.8-.28-2.164.407-1.946z" style="fill:#f0a429"/><path d="M50.833 42.454c-1.065.13-1.834 3.73-1.164 4.68.094.132.643.344 1.05-.495.226-.463.875-.851 1.077-1.809.258-1.227.097-2.506-.963-2.376z" style="fill:#ffc940"/><path d="M50.06 44.367c.164-.708.466-1.135.744-1.223.689-.219.776 1.146.407 1.946-.409.887-.822.648-1.23 1.243a7.154 7.154 0 0 1-.037-.512c.835-.04 1.075-1.652.115-1.454z" style="fill:#f0a429"/><path d="M42.276 33.204c-5.822 0-8.627 4.404-8.275 10.528.07 1.232.834 4.048 1.555 5.49 1.274 2.544 4.6 4.442 6.72 4.442 2.117 0 5.447-1.898 6.72-4.443.722-1.441 1.485-4.257 1.555-5.489.352-6.124-2.453-10.528-8.275-10.528z" style="fill:#ffc940"/><path d="M43.633 47.174c-.144-.1-.482.054-1.358.054s-1.213-.154-1.357-.054c-.172.121.102.668 1.357.668s1.53-.547 1.358-.668zm-1.357 1.952c-1.313-.387-3.259.183-3.259.183.74.807 1.284 1.853 3.258 1.853 2.262 0 2.647-1.189 3.26-1.853 0 0-1.948-.571-3.26-.183z" style="fill:#f0a429"/><path d="M39.506 49.445c1.376 1.155 4.155 1.162 5.54 0a81.084 81.084 0 0 1-5.54 0zm1.514-5.267c.048.373-.205.816-.907 1.147-.446.212-1.374.46-2.592-.054-.546-.23-1.078-.948-1.03-1.344.66-1.245 3.911-1.428 4.53.25z" style="fill:#fff"/><linearGradient id="f" x1="-422.515" x2="-422.515" y1="475.35" y2="475.739" gradientTransform="matrix(6.5701 0 0 -6.5701 2814.782 3168.527)" gradientUnits="userSpaceOnUse"><stop offset="0" style="stop-color:#a6694a"/><stop offset="1" style="stop-color:#4f2a1e"/></linearGradient><path d="M38.815 42.875a1.277 1.277 0 1 1-.001 2.555 1.277 1.277 0 0 1 0-2.555z" style="fill:url(#f)"/><path d="M38.176 44.129c0 .884 1.277.884 1.277 0 0-.82-1.277-.82-1.277 0z" style="fill:#1a1626"/><path d="M37.982 43.772c0 .37.536.37.536 0 0-.344-.536-.344-.536 0z" style="fill:#ab968c"/><path d="M41.026 44.227c-.518-1.668-4.055-1.422-4.536-.3.178-1.435 4.095-1.814 4.536.3z" style="fill:#f0a429"/><path d="M43.532 44.178c-.049.373.205.816.907 1.147.445.212 1.373.46 2.592-.054.546-.23 1.078-.948 1.03-1.344-.66-1.245-3.912-1.428-4.53.25z" style="fill:#fff"/><linearGradient id="g" x1="-424.165" x2="-424.165" y1="475.35" y2="475.739" gradientTransform="matrix(6.5701 0 0 -6.5701 2832.512 3168.527)" gradientUnits="userSpaceOnUse"><stop offset="0" style="stop-color:#a6694a"/><stop offset="1" style="stop-color:#4f2a1e"/></linearGradient><path d="M45.708 42.875a1.278 1.278 0 1 1 .001 2.555 1.278 1.278 0 0 1 0-2.555z" style="fill:url(#g)"/><path d="M45.07 44.129c0 .884 1.278.884 1.278 0 0-.82-1.277-.82-1.277 0z" style="fill:#1a1626"/><path d="M44.876 43.772c0 .37.535.37.535 0 0-.344-.535-.344-.535 0z" style="fill:#ab968c"/><path d="M43.525 44.227c.518-1.667 4.052-1.428 4.536-.3-.18-1.435-4.094-1.814-4.536.3z" style="fill:#f0a429"/><path d="M48.125 42.497c-.82-.837-2.323-1.397-4.115-.902-.19.053-.178.646-.023.606 1.638-.424 3.007-.157 4.032.71.12.102.242-.275.106-.414zm-11.699 0c.82-.837 2.324-1.397 4.116-.902.19.053.178.646.023.606-1.638-.424-3.007-.157-4.032.71-.12.102-.242-.275-.107-.414z" style="fill:#bb7c0a"/><path d="M42.273 32.2c-3.412 0-6.343 1.915-7.666 4.2-1.204 2.083-1.442 5.76-.36 8.779.14-2.896 1.745-4.354 1.647-7.541 9.591 0 13.524 3.09 14.405 7.54 2.178-6.079-1.251-12.977-8.026-12.977z" style="fill:#f9a307"/><path d="M42.091 32.203c-3.412 0-6.16 1.912-7.484 4.198-1.205 2.082-1.71 4.753-.36 8.778-.692-4.439 1.208-7.916 1.208-7.916 9.323-1.011 13.85 3.114 14.844 7.916.217-1.639.004-9.24-8.475-9.9 6.306-.57 8.475 2.568 8.626 7.283 1.68-6.14-3.805-10.36-8.359-10.36z" style="fill:#ffb80d"/><path d="M50.3 45.179c-1.89-8.217-15.167-7.5-15.167-7.5s14.025-1.552 15.166 7.5z" style="fill:#e68c00"/><path d="M34.246 45.179c-.122-3.425 1.69-4.967 1.495-8.503.75 3.36-.865 5.028-1.495 8.503z" style="fill:#e68c00"/><path d="M50.45 42.562c.765-11.573-17.117-11.573-16.351 0 .667-9.72 15.684-9.72 16.35 0z" style="fill:#cfd8dd"/><path d="M50.45 42.187c.765-11.573-17.117-11.573-16.351 0 .667-9.72 15.684-9.72 16.35 0z" style="fill:#fff"/><path d="M34.199 37.847c3.412-7.552 10.509-4.627 10.509-4.627s-6.705-1.696-10.51 4.627zm14.613 2.526c-3.4-3.697-8.72-4.347-8.72-4.347s6.162-.886 8.72 4.346z" style="fill:#ffca25"/><path d="M12.626 42.876c-3.182 4.07.096 8.55-2.618 9.99 4.82 3.35 9.012-4.584 2.618-9.99z" style="fill:#e68c00"/><path d="M12.626 42.876c-6.455 4.266-.78 8.15-2.618 9.99 2.478.9 5.136-1.8 2.618-9.99z" style="fill:#ffb80d"/><path d="M12.626 42.876c-1.762 3.518 2.167 9.904-2.618 9.99 3.441 1.514 6.168-1.925 2.618-9.99z" style="fill:#f9a307"/><path d="M10.626 52.404c1.443-1.345-2.447-5.918 2.096-8.825-3.292 3.276.477 7.794-2.096 8.825z" style="fill:#ffca25"/><path d="M27.925 42.876c3.183 4.07-.096 8.55 2.618 9.99-4.82 3.35-9.012-4.584-2.618-9.99z" style="fill:#e68c00"/><path d="M27.925 42.876c6.455 4.266.78 8.15 2.618 9.99-2.478.9-5.136-1.8-2.618-9.99z" style="fill:#ffb80d"/><path d="M27.925 42.876c1.762 3.518-2.167 9.904 2.618 9.99-3.441 1.514-6.168-1.925-2.618-9.99z" style="fill:#f9a307"/><path d="M29.925 52.404c-1.443-1.345 2.448-5.918-2.096-8.825 3.292 3.276-.477 7.794 2.096 8.825z" style="fill:#ffca25"/><path d="M20.276 32c-6.786.004-11.082 5.973-8.439 13.64h16.877c2.643-7.667-1.654-13.636-8.438-13.64z" style="fill:#f9a307"/><path d="M11.717 42.453c1.066.13 1.835 3.73 1.166 4.68-.094.133-.644.345-1.05-.494-.226-.464-.877-.851-1.078-1.809-.258-1.227-.097-2.506.962-2.377z" style="fill:#ffc940"/><path d="M11.746 43.144c.278.088.582.516.746 1.225-.971-.21-.728 1.422.115 1.453a7.103 7.103 0 0 1-.038.511c-.407-.596-.82-.356-1.23-1.244-.368-.799-.28-2.163.407-1.945z" style="fill:#f0a429"/><path d="M28.833 42.453c-1.065.13-1.834 3.73-1.164 4.68.093.133.643.345 1.05-.494.226-.464.875-.851 1.077-1.809.258-1.227.097-2.506-.963-2.377z" style="fill:#ffc940"/><path d="M28.06 44.367c.164-.708.467-1.135.744-1.223.689-.219.776 1.146.407 1.945-.409.887-.822.648-1.23 1.244a7.154 7.154 0 0 1-.038-.512c.836-.04 1.076-1.652.116-1.454z" style="fill:#f0a429"/><path d="M20.276 33.203c-5.822 0-8.627 4.405-8.275 10.53.07 1.231.834 4.046 1.555 5.488 1.275 2.545 4.6 4.443 6.72 4.443 2.118 0 5.447-1.898 6.72-4.443.722-1.442 1.485-4.257 1.555-5.489.352-6.124-2.453-10.529-8.275-10.529z" style="fill:#ffc940"/><path d="M21.633 47.174c-.144-.1-.481.054-1.357.054s-1.214-.154-1.358-.054c-.172.121.102.668 1.358.668s1.53-.547 1.357-.668zm-1.357 1.952c-1.313-.387-3.259.183-3.259.183.74.807 1.284 1.853 3.259 1.853 2.26 0 2.646-1.189 3.258-1.853 0 0-1.947-.571-3.258-.183z" style="fill:#f0a429"/><path d="M17.506 49.445c1.376 1.155 4.155 1.162 5.54 0a81.084 81.084 0 0 1-5.54 0zm1.514-5.268c.048.374-.205.817-.907 1.148-.446.212-1.374.46-2.592-.054-.546-.23-1.078-.948-1.03-1.344.66-1.245 3.911-1.428 4.53.25z" style="fill:#fff"/><linearGradient id="h" x1="-425.864" x2="-425.864" y1="475.35" y2="475.739" gradientTransform="matrix(6.5701 0 0 -6.5701 2814.782 3168.527)" gradientUnits="userSpaceOnUse"><stop offset="0" style="stop-color:#a6694a"/><stop offset="1" style="stop-color:#4f2a1e"/></linearGradient><path d="M16.814 42.875a1.277 1.277 0 1 1 0 2.555 1.277 1.277 0 0 1 0-2.555z" style="fill:url(#h)"/><path d="M16.176 44.129c0 .884 1.277.884 1.277 0 0-.82-1.277-.82-1.277 0z" style="fill:#1a1626"/><path d="M15.982 43.772c0 .37.536.37.536 0 0-.344-.536-.344-.536 0z" style="fill:#ab968c"/><path d="M19.026 44.227c-.518-1.668-4.055-1.422-4.536-.3.178-1.435 4.095-1.814 4.536.3z" style="fill:#f0a429"/><path d="M21.532 44.177c-.049.374.205.817.907 1.148.445.212 1.373.46 2.592-.054.546-.23 1.078-.948 1.03-1.344-.66-1.245-3.912-1.428-4.53.25z" style="fill:#fff"/><linearGradient id="i" x1="-427.513" x2="-427.513" y1="475.35" y2="475.739" gradientTransform="matrix(6.5701 0 0 -6.5701 2832.512 3168.527)" gradientUnits="userSpaceOnUse"><stop offset="0" style="stop-color:#a6694a"/><stop offset="1" style="stop-color:#4f2a1e"/></linearGradient><path d="M23.708 42.875a1.278 1.278 0 1 1 .001 2.555 1.278 1.278 0 0 1 0-2.555z" style="fill:url(#i)"/><path d="M23.07 44.129c0 .884 1.278.884 1.278 0 0-.82-1.277-.82-1.277 0z" style="fill:#1a1626"/><path d="M22.876 43.772c0 .37.535.37.535 0 0-.344-.535-.344-.535 0z" style="fill:#ab968c"/><path d="M21.525 44.227c.518-1.667 4.052-1.428 4.536-.3-.18-1.435-4.094-1.814-4.536.3z" style="fill:#f0a429"/><path d="M26.125 42.497c-.82-.837-2.323-1.397-4.115-.902-.19.053-.178.646-.023.606 1.638-.424 3.007-.157 4.032.71.12.102.242-.275.106-.414zm-11.698 0c.82-.837 2.323-1.397 4.115-.902.19.053.178.646.023.606-1.638-.424-3.007-.157-4.032.71-.12.102-.242-.275-.106-.414z" style="fill:#bb7c0a"/><path d="M20.273 32.2c-3.412 0-6.343 1.915-7.666 4.2-1.205 2.083-1.442 5.76-.36 8.779.14-2.896 1.745-4.354 1.647-7.541 9.591 0 13.524 3.09 14.405 7.54 2.178-6.079-1.251-12.977-8.026-12.977z" style="fill:#f9a307"/><path d="M20.091 32.203c-3.412 0-6.16 1.912-7.484 4.198-1.204 2.082-1.71 4.753-.36 8.778-.692-4.439 1.208-7.916 1.208-7.916 9.323-1.011 13.85 3.114 14.844 7.916.217-1.639.004-9.24-8.475-9.9 6.306-.57 8.475 2.568 8.626 7.283 1.68-6.14-3.805-10.36-8.359-10.36z" style="fill:#ffb80d"/><path d="M28.3 45.179c-1.89-8.217-15.167-7.5-15.167-7.5s14.026-1.553 15.166 7.5z" style="fill:#e68c00"/><path d="M12.246 45.179c-.122-3.425 1.69-4.967 1.495-8.503.75 3.36-.865 5.028-1.495 8.503z" style="fill:#e68c00"/><path d="M28.45 42.562c.765-11.574-17.117-11.574-16.351 0 .667-9.72 15.684-9.72 16.35 0z" style="fill:#cfd8dd"/><path d="M28.45 42.187c.765-11.573-17.117-11.573-16.351 0 .667-9.72 15.684-9.72 16.35 0z" style="fill:#fff"/><path d="M12.199 37.847c3.412-7.552 10.509-4.627 10.509-4.627s-6.705-1.696-10.51 4.627zm14.613 2.525c-3.4-3.696-8.72-4.346-8.72-4.346s6.162-.886 8.72 4.346z" style="fill:#ffca25"/></svg>