<svg xmlns="http://www.w3.org/2000/svg" xml:space="preserve" style="enable-background:new 0 0 64 64" viewBox="0 0 64 64"><linearGradient id="a" x1="31.999" x2="31.999" y1="28.6" y2="3" gradientUnits="userSpaceOnUse"><stop offset="0" style="stop-color:#db0100"/><stop offset=".584" style="stop-color:#f31317"/><stop offset="1" style="stop-color:#ff1c23"/></linearGradient><path d="M31.998 6.865c-4.195-6.82-15.802-4.158-15.806 4.41 0 5.147 4.32 8.784 12.746 15.593 2.86 2.31 3.266 2.31 6.125 0 8.422-6.81 12.742-10.444 12.744-15.596 0-8.564-11.611-11.227-15.809-4.407z" style="fill:url(#a)"/><path d="M29.382 43.179c-1.842.222-3.172 6.384-2.013 8.01.163.227 1.111.59 1.815-.845.39-.795 1.514-1.459 1.863-3.098.446-2.101.168-4.29-1.665-4.067zm-23.796 0c1.842.222 3.172 6.384 2.013 8.01-.163.227-1.111.59-1.817-.845-.388-.795-1.513-1.459-1.861-3.098-.448-2.101-.168-4.29 1.665-4.067z" style="fill:#ffc940"/><path d="M29.332 44.359c-.48.151-1.005.884-1.289 2.1 1.68-.362 1.26 2.434-.2 2.486.014.281.032.57.067.874.702-1.02 1.418-.61 2.126-2.129.638-1.368.486-3.704-.704-3.331zM6.925 46.455c-.286-1.214-.809-1.945-1.29-2.097-1.188-.372-1.342 1.964-.703 3.332.707 1.518 1.423 1.108 2.127 2.129.034-.305.054-.594.065-.876-1.444-.068-1.859-2.83-.2-2.488z" style="fill:#f0a429"/><path d="M17.483 31.33c-7.98 0-11.825 6.032-11.344 14.419.096 1.688 1.145 7.191 2.133 9.166 1.012 2.02 4.395 5.135 6.468 5.78 1.31.406 4.178.406 5.486 0 2.074-.645 5.46-3.76 6.47-5.78.991-1.975 2.037-7.477 2.131-9.166.484-8.387-3.36-14.42-11.344-14.42z" style="fill:#ffc940"/><path d="M26.155 42.564c-1.825-.968-5.317-1.015-6.62-.34-.28.129-.094 1.044.14.958 1.813-.717 4.738-.733 6.436.06.226.104.32-.544.044-.678zm-17.342 0c1.825-.968 5.316-1.015 6.62-.34.277.129.094 1.044-.14.958-1.817-.717-4.738-.733-6.438.06-.224.104-.318-.544-.042-.678z" style="fill:#bb7c0a"/><path d="M19.637 50.939c-.227-.158-.761.086-2.153.086-1.39 0-1.925-.244-2.153-.086-.273.193.161 1.058 2.153 1.058s2.427-.865 2.153-1.058z" style="fill:#f0a429"/><path d="M15.708 45.853c.067.529-.291 1.154-1.283 1.624-.63.298-1.944.65-3.667-.078-.772-.325-1.525-1.338-1.457-1.9.934-1.76 5.532-2.018 6.407.354z" style="fill:#fff"/><linearGradient id="b" x1="-1212.244" x2="-1212.244" y1="175.304" y2="174.755" gradientTransform="translate(7977.155 -1104.145) scale(6.5701)" gradientUnits="userSpaceOnUse"><stop offset="0" style="stop-color:#a6694a"/><stop offset="1" style="stop-color:#4f2a1e"/></linearGradient><path d="M12.589 44.013a1.806 1.806 0 1 1 0 3.61 1.806 1.806 0 1 1 0-3.61z" style="fill:url(#b)"/><path d="M11.685 45.784c0 1.25 1.807 1.25 1.807 0 0-1.158-1.807-1.158-1.807 0z" style="fill:#1a1626"/><path d="M11.411 45.278c0 .523.756.523.756 0 0-.484-.756-.484-.756 0z" style="fill:#ab968c"/><path d="M15.716 45.922c-.733-2.354-5.735-2.006-6.415-.423.251-2.027 5.79-2.564 6.415.423z" style="fill:#f0a429"/><path d="M19.26 45.853c-.068.529.29 1.154 1.283 1.624.63.298 1.942.65 3.666-.078.774-.325 1.526-1.338 1.458-1.9-.934-1.76-5.534-2.018-6.407.354z" style="fill:#fff"/><linearGradient id="c" x1="-1213.459" x2="-1213.459" y1="175.304" y2="174.755" gradientTransform="translate(7994.886 -1104.145) scale(6.5701)" gradientUnits="userSpaceOnUse"><stop offset="0" style="stop-color:#a6694a"/><stop offset="1" style="stop-color:#4f2a1e"/></linearGradient><path d="M22.338 44.013a1.805 1.805 0 1 1-1.806 1.804c0-.996.809-1.804 1.806-1.804z" style="fill:url(#c)"/><path d="M21.436 45.784c0 1.25 1.807 1.25 1.807 0 0-1.158-1.806-1.158-1.806 0z" style="fill:#1a1626"/><path d="M21.16 45.278c0 .523.758.523.758 0 0-.484-.757-.484-.757 0z" style="fill:#ab968c"/><path d="M19.251 45.922c.732-2.352 5.732-2.016 6.415-.423-.254-2.027-5.79-2.564-6.415.423z" style="fill:#f0a429"/><path d="m26.984 33.845-1.817 2.198c3.677 2.256 1.62 8.148 3.29 12.44.57-4.282 3.23-13.624-1.473-14.638zM7.91 34.932l1.816 1.112C6.05 38.299 8.18 44.19 6.51 48.484c-.568-4.284-3.3-12.539 1.4-13.553z" style="fill:#f9a307"/><path d="M25.059 35.421c2.336-.008 2.568 3.808 2.568 3.808s.7-4.346-2.266-4.346l-.302.538zM8.15 37.307c-.937 2.287-1.268 4.637-1.268 4.637s-.493-1.646.686-4.555l.582-.082z" style="fill:#e68c00"/><path d="M25.99 34.53c1.825-.189 2.268 2.777 2.268 2.777s.25-3.453-2.069-3.22l-.2.444z" style="fill:#e68c00"/><path d="M26.983 33.845S24.26 29.1 17.447 29.1c-7.398 0-12.062 3.315-12.22 9.735 4.53-4.468 16.467 2.478 21.756-4.99z" style="fill:#ffb80d"/><path d="M26.983 33.845c-.698-2.19-4.409-4.745-9.536-4.745 2.842.2 6.588 1.608 6.973 2.498 0 0-3.93-2.119-9.235-1.19 4.864-.22 8.075 2.872 6.708 2.888-1.332.017-6.276.183-9.21 1.992 1.887-.128 5.614.887 5.444.953-3.757 1.453-11.297-2.004-12.846 2.593 5.823-4.989 16.933 3.046 21.702-4.989z" style="fill:#f9a307"/><path d="M26.983 33.845c-3.888 9.19-21.36-1.087-20.953 6.609-1.784-8.832 15.202 2.06 20.953-6.609z" style="fill:#e68c00"/><path d="M25.918 35.222c-1.848-3.628-7.84-4.932-7.84-4.932s6.265.358 8.328 4.446l-.488.486zm-.948.821C23.247 34.431 14.947 35 14.947 35s6.05-1.825 10.678.518l-.657.526z" style="fill:#e68c00"/><path d="M5.597 37.435s.814-6.602 12.163-6.109c-9.33 1.294-12.163 6.11-12.163 6.11z" style="fill:#f9a307"/><path d="M6.299 37.056s4.496-5.884 14.367-4.4c-8.236-.24-14.367 4.4-14.367 4.4zM6.052 35s4.936-5.551 13.028-5.458C9.73 28.3 6.052 35 6.052 35z" style="fill:#ffca25"/><path d="M17.484 54.406c-1.794-.528-4.456.252-4.456.252 1.014 1.102 1.755 2.535 4.456 2.535 3.093 0 3.62-1.626 4.455-2.535 0 0-2.662-.782-4.455-.252z" style="fill:#f0a429"/><path d="M13.696 54.845c1.882 1.579 5.683 1.587 7.575 0-2.004.086-5.556.086-7.575 0z" style="fill:#fff"/><path d="M58.415 43.179c-1.842.222-3.172 6.384-2.013 8.01.163.227 1.111.59 1.815-.845.39-.795 1.514-1.459 1.863-3.098.446-2.101.168-4.29-1.665-4.067zm-23.796 0c1.842.222 3.172 6.384 2.012 8.01-.162.227-1.11.59-1.816-.845-.388-.795-1.513-1.459-1.861-3.098-.448-2.101-.168-4.29 1.665-4.067z" style="fill:#ffc940"/><path d="M58.365 44.359c-.48.151-1.005.884-1.289 2.1 1.68-.362 1.26 2.434-.2 2.486.014.281.032.57.067.874.702-1.02 1.418-.61 2.126-2.129.638-1.368.486-3.704-.704-3.331zm-22.407 2.096c-.286-1.214-.809-1.945-1.29-2.097-1.188-.372-1.342 1.964-.703 3.332.707 1.518 1.423 1.108 2.127 2.129.034-.305.054-.594.065-.876-1.444-.068-1.859-2.83-.2-2.488z" style="fill:#f0a429"/><path d="M46.516 31.33c-7.98 0-11.825 6.032-11.344 14.419.096 1.688 1.145 7.191 2.133 9.166 1.012 2.02 4.395 5.135 6.468 5.78 1.31.406 4.178.406 5.486 0 2.074-.645 5.46-3.76 6.47-5.78.991-1.975 2.037-7.477 2.131-9.166.484-8.387-3.36-14.42-11.344-14.42z" style="fill:#ffc940"/><path d="M55.188 42.564c-1.825-.968-5.318-1.015-6.62-.34-.28.129-.094 1.044.14.958 1.813-.717 4.738-.733 6.436.06.227.104.32-.544.044-.678zm-17.342 0c1.825-.968 5.316-1.015 6.62-.34.277.129.094 1.044-.14.958-1.817-.717-4.738-.733-6.438.06-.224.104-.318-.544-.042-.678z" style="fill:#bb7c0a"/><path d="M48.67 50.939c-.227-.158-.761.086-2.153.086-1.39 0-1.925-.244-2.153-.086-.273.193.161 1.058 2.153 1.058s2.427-.865 2.153-1.058z" style="fill:#f0a429"/><path d="M44.74 45.853c.068.529-.29 1.154-1.283 1.624-.63.298-1.943.65-3.666-.078-.772-.325-1.525-1.338-1.457-1.9.934-1.76 5.532-2.018 6.407.354z" style="fill:#fff"/><linearGradient id="d" x1="-1207.825" x2="-1207.825" y1="175.304" y2="174.755" gradientTransform="translate(7977.155 -1104.145) scale(6.5701)" gradientUnits="userSpaceOnUse"><stop offset="0" style="stop-color:#a6694a"/><stop offset="1" style="stop-color:#4f2a1e"/></linearGradient><path d="M41.622 44.013a1.806 1.806 0 1 1 0 3.61 1.806 1.806 0 1 1 0-3.61z" style="fill:url(#d)"/><path d="M40.718 45.784c0 1.25 1.807 1.25 1.807 0 0-1.158-1.807-1.158-1.807 0z" style="fill:#1a1626"/><path d="M40.444 45.278c0 .523.756.523.756 0 0-.484-.756-.484-.756 0z" style="fill:#ab968c"/><path d="M44.75 45.922c-.734-2.354-5.736-2.006-6.416-.423.251-2.027 5.79-2.564 6.415.423z" style="fill:#f0a429"/><path d="M48.293 45.853c-.068.529.29 1.154 1.283 1.624.63.298 1.942.65 3.665-.078.775-.325 1.527-1.338 1.459-1.9-.934-1.76-5.534-2.018-6.407.354z" style="fill:#fff"/><linearGradient id="e" x1="-1209.04" x2="-1209.04" y1="175.304" y2="174.755" gradientTransform="translate(7994.886 -1104.145) scale(6.5701)" gradientUnits="userSpaceOnUse"><stop offset="0" style="stop-color:#a6694a"/><stop offset="1" style="stop-color:#4f2a1e"/></linearGradient><path d="M51.371 44.013a1.806 1.806 0 1 1-1.806 1.804c0-.996.809-1.804 1.806-1.804z" style="fill:url(#e)"/><path d="M50.47 45.784c0 1.25 1.806 1.25 1.806 0 0-1.158-1.807-1.158-1.807 0z" style="fill:#1a1626"/><path d="M50.194 45.278c0 .523.757.523.757 0 0-.484-.757-.484-.757 0z" style="fill:#ab968c"/><path d="M48.284 45.922c.732-2.352 5.732-2.016 6.416-.423-.255-2.027-5.79-2.564-6.416.423z" style="fill:#f0a429"/><path d="M56.017 33.845 54.2 36.043c3.677 2.256 1.62 8.148 3.29 12.44.57-4.282 3.23-13.624-1.473-14.638zm-19.074 1.087 1.816 1.112c-3.677 2.255-1.546 8.147-3.217 12.44-.568-4.283-3.3-12.538 1.401-13.552z" style="fill:#f9a307"/><path d="M54.092 35.421c2.336-.008 2.568 3.808 2.568 3.808s.7-4.346-2.266-4.346l-.302.538zm-16.909 1.886c-.937 2.287-1.268 4.637-1.268 4.637s-.494-1.646.686-4.555l.582-.082z" style="fill:#e68c00"/><path d="M55.022 34.53c1.826-.189 2.269 2.777 2.269 2.777s.25-3.453-2.069-3.22l-.2.444z" style="fill:#e68c00"/><path d="M56.016 33.845S53.294 29.1 46.48 29.1c-7.398 0-12.062 3.315-12.22 9.735 4.53-4.468 16.467 2.478 21.756-4.99z" style="fill:#ffb80d"/><path d="M56.016 33.845c-.698-2.19-4.409-4.745-9.536-4.745 2.842.2 6.588 1.608 6.973 2.498 0 0-3.93-2.119-9.235-1.19 4.864-.22 8.075 2.872 6.708 2.888-1.332.017-6.276.183-9.21 1.992 1.887-.128 5.614.887 5.444.953-3.757 1.453-11.297-2.004-12.846 2.593 5.823-4.989 16.933 3.046 21.702-4.989z" style="fill:#f9a307"/><path d="M56.016 33.845c-3.888 9.19-21.36-1.087-20.953 6.609-1.784-8.832 15.202 2.06 20.953-6.609z" style="fill:#e68c00"/><path d="M54.951 35.222c-1.848-3.628-7.84-4.932-7.84-4.932s6.265.358 8.328 4.446l-.488.486zm-.949.821C52.282 34.431 43.98 35 43.98 35s6.052-1.825 10.68.518l-.658.526z" style="fill:#e68c00"/><path d="M34.63 37.435s.814-6.602 12.163-6.109c-9.33 1.294-12.163 6.11-12.163 6.11z" style="fill:#f9a307"/><path d="M35.332 37.056s4.496-5.884 14.367-4.4c-8.236-.24-14.367 4.4-14.367 4.4zM35.085 35s4.936-5.551 13.028-5.458C38.763 28.3 35.085 35 35.085 35z" style="fill:#ffca25"/><path d="M46.517 54.406c-1.794-.528-4.456.252-4.456.252 1.014 1.102 1.755 2.535 4.456 2.535 3.093 0 3.62-1.626 4.455-2.535 0 0-2.662-.782-4.456-.252z" style="fill:#f0a429"/><path d="M42.729 54.845c1.882 1.579 5.682 1.587 7.575 0-2.004.086-5.556.086-7.575 0z" style="fill:#fff"/></svg>