<svg xmlns="http://www.w3.org/2000/svg" xml:space="preserve" style="enable-background:new 0 0 64 64" viewBox="0 0 64 64"><radialGradient id="a" cx="31.599" cy="32.475" r="20.109" gradientTransform="matrix(1 0 0 .9987 0 .025)" gradientUnits="userSpaceOnUse"><stop offset="0" style="stop-color:#1a1714"/><stop offset=".586" style="stop-color:#2f2721"/><stop offset="1" style="stop-color:#382e26"/></radialGradient><path d="M36.804 31.934c10.501-4.194 9.451-14.156 9.451-14.156h-29.4s-1.05 9.962 9.45 14.156c0 0 2.1.524 5.25.524s5.25-.524 5.25-.524z" style="fill:url(#a)"/><linearGradient id="b" x1="31.556" x2="31.556" y1="63" y2="29.138" gradientUnits="userSpaceOnUse"><stop offset=".876" style="stop-color:#484258"/><stop offset=".951" style="stop-color:#555064"/><stop offset="1" style="stop-color:#605b6e"/></linearGradient><path d="m25.768 29.138 11.613.02 8.986 3.87-1.36 27.228c-.277 2-6.952 2.744-13.434 2.744-6.482 0-14.153-.743-14.433-2.74l-.396-27.234 9.024-3.888z" style="fill:url(#b)"/><path d="m37.369 30.76-5.814 3.343-5.813-3.343v-5.558h11.627z" style="fill:#5e4c3b"/><path d="M31.555 39.098c5.19 0 6.17-7.887 6.208-8.223l-.821-.106c-.01.074-.93 7.458-5.386 7.458-4.458 0-5.378-7.384-5.385-7.458l-.823.106c.04.336 1.02 8.223 6.207 8.223" style="fill:#302c3b"/><path d="M31.555 31.949h4.141s-.75 5.226-4.14 5.226c-3.39 0-4.14-5.226-4.14-5.226h4.14z" style="fill:#e6ebef"/><path d="M34.566 35.19s-1.184-3.241-3.029-3.241c-1.844 0-2.992 3.24-2.992 3.24s-1.13-1.934-1.13-3.24h8.281s-.112 1.453-1.13 3.24" style="fill:#b3c2c6"/><path d="M32.864 35.218c.15.41.287.895.413 1.424-1.14.771-2.287.782-3.441 0a13.06 13.06 0 0 1 .412-1.424c.352-.962 2.264-.962 2.616 0z" style="fill:#d61924"/><path d="M30.359 35.218c.27.35 2.156.387 2.394 0 .567-.915 1.498-2.73 1.498-2.73s-.551-.54-2.694-.54c-2.146 0-2.695.54-2.695.54s.846 1.892 1.497 2.73z" style="fill:#e81c27"/><path d="M25.742 28.314c.51 2.922 5.814 3.635 5.814 3.635-1.851.595-4.617 4.507-4.617 4.507-2.553-4.128-1.197-8.142-1.197-8.142z" style="fill:#fff"/><path d="M37.369 28.314c-.512 2.922-5.814 3.635-5.814 3.635 1.85.595 4.615 4.507 4.615 4.507 2.554-4.128 1.199-8.142 1.199-8.142z" style="fill:#fff"/><path d="m20.153 62.022.793.172s-.285-24.96-.447-24.97c-.164-.01-.346 24.798-.346 24.798zm4.216.653.788.07s-.211-27.24-.356-27.25c-.146-.011-.432 27.18-.432 27.18zm4.635.285.778.019s-.247-22.842-.36-22.852c-.115-.01-.418 22.834-.418 22.834zm13.617-25.736c-.164.01-.446 24.838-.446 24.838l.79-.227s-.177-24.621-.344-24.61zm-4.301-1.73c-.146.01-.356 27.234-.356 27.234l.787-.082s-.284-27.162-.432-27.152zm-4.621 4.633c-.114.01-.36 22.858-.36 22.858l.778-.015s-.303-22.853-.418-22.843z" style="fill:#4e4961"/><path d="M44.189 61.308s.029-29.225 2.178-28.28c3.488 1.534 5.133 11.19 5.133 25.795 0 2.434-7.311 2.485-7.311 2.485z" style="fill:#484258"/><path d="M44.662 42.844s.21 13.22-.473 18.464c-.88-5.462.473-18.464.473-18.464z" style="fill:#302c3b"/><path d="M16.744 33.026C13.611 34.103 9.5 50.176 9.5 56.058c0 2.466 7.011 5.767 14.17 6.545.667.072 2.09-10.848 2.09-10.848l-6.705-1.768s-1.421-17.266-2.31-16.96z" style="fill:#484258"/><path d="M24.89 51.853c3.096-2.462 1.66 11.147-1.373 10.732-1.292-.177-.676-9.102 1.374-10.732zm-5.534-10.68c.94 3.59.215 8.939.215 8.939l-1.055-.283s.839-5.008.84-8.656z" style="fill:#302c3b"/><path d="M14.966 49.367c7.923.866 12.227 1.633 11.342 2.842-1.151-.938-3.963-1.02-11.342-2.842z" style="fill:#302c3b"/><path d="M25.744 51.87c.321-.317 2.168.405 2.035.892-.585 2.152.189 5.27-.293 6.769-.286.89-2.853 1.51-3.244.998-.796-1.04-.08-7.095 1.502-8.659z" style="fill:#e6ebef"/><linearGradient id="c" x1="154.166" x2="156.707" y1="187.52" y2="187.52" gradientTransform="rotate(14.999 598.245 -339.933)" gradientUnits="userSpaceOnUse"><stop offset="0" style="stop-color:#ab6730"/><stop offset=".645" style="stop-color:#794419"/><stop offset="1" style="stop-color:#5c300c"/></linearGradient><path d="m36.956 48.871-2.455-.653s-.28 2.618-.401 3.214c-.266 1.306-2.131 7.068-2.712 8.768a.821.821 0 0 0 .59 1.063l.492.119a.828.828 0 0 0 1.008-.63c.37-1.76 1.832-7.782 2.21-8.897.194-.577 1.268-2.983 1.268-2.983z" style="fill:url(#c)"/><path d="m37.077 49.123-2.808-.748a.368.368 0 0 1-.262-.45l.004-.012a.37.37 0 0 1 .453-.26l2.808.747a.367.367 0 0 1 .262.45l-.003.013a.37.37 0 0 1-.454.26z" style="fill:#5c300c"/><linearGradient id="d" x1="152.041" x2="152.041" y1="176.439" y2="169.065" gradientTransform="matrix(.9659 .2588 -.2659 .9923 -64.106 -166.304)" gradientUnits="userSpaceOnUse"><stop offset="0" style="stop-color:#a36c00"/><stop offset=".2" style="stop-color:#b17c14"/><stop offset=".607" style="stop-color:#d4a446"/><stop offset="1" style="stop-color:#facf7d"/></linearGradient><path d="m37.912 48.675-4.164-1.11 1.97-7.308 4.165 1.11z" style="fill:url(#d)"/><linearGradient id="e" x1="-27.087" x2="-27.087" y1="185.238" y2="177.866" gradientTransform="matrix(.7155 .1917 -.2588 .9659 107.767 -124.482)" gradientUnits="userSpaceOnUse"><stop offset=".123" style="stop-color:#5c300c"/><stop offset=".427" style="stop-color:#744117"/><stop offset="1" style="stop-color:#ab6730"/></linearGradient><path d="m41.593 49.55-2.302-.612a.811.811 0 0 1-.577-.994l1.495-5.546a.817.817 0 0 1 1-.574l2.301.613c.436.116.694.56.578.994l-1.495 5.546a.817.817 0 0 1-1 .574z" style="fill:url(#e)"/><linearGradient id="f" x1="-2045.246" x2="-2045.246" y1="153.365" y2="145.997" gradientTransform="matrix(.186 .0498 -.2867 1.07 462.628 -13.178)" gradientUnits="userSpaceOnUse"><stop offset="0" style="stop-color:#5c300c"/><stop offset=".344" style="stop-color:#814a1d"/><stop offset=".689" style="stop-color:#9f5f2b"/><stop offset=".882" style="stop-color:#ab6730"/></linearGradient><path d="m38.243 49.07-.014-.004a.406.406 0 0 1-.288-.497l1.913-7.097a.409.409 0 0 1 .5-.286l.014.003c.218.058.347.28.288.497l-1.913 7.097a.408.408 0 0 1-.5.287z" style="fill:url(#f)"/><linearGradient id="g" x1="-684.513" x2="-684.514" y1="141.22" y2="133.851" gradientTransform="matrix(.3685 .0987 -.299 1.1158 334.767 -40.213)" gradientUnits="userSpaceOnUse"><stop offset="0" style="stop-color:#5c300c"/><stop offset=".344" style="stop-color:#814a1d"/><stop offset=".689" style="stop-color:#9f5f2b"/><stop offset=".882" style="stop-color:#ab6730"/></linearGradient><path d="m40.703 49.906-.82-.219a.803.803 0 0 1-.572-.984l1.797-6.666a.809.809 0 0 1 .99-.568l.82.219a.803.803 0 0 1 .572.984l-1.797 6.665a.81.81 0 0 1-.99.569z" style="fill:url(#g)"/><linearGradient id="h" x1="1319.437" x2="1319.437" y1="184.952" y2="177.581" gradientTransform="matrix(-.7155 -.1917 -.2588 .9659 1023.198 121.096)" gradientUnits="userSpaceOnUse"><stop offset=".123" style="stop-color:#5c300c"/><stop offset=".427" style="stop-color:#744117"/><stop offset="1" style="stop-color:#ab6730"/></linearGradient><path d="m30.12 46.495 2.302.613a.817.817 0 0 0 1-.573l1.495-5.547a.81.81 0 0 0-.578-.994l-2.301-.613a.817.817 0 0 0-1 .574l-1.496 5.547a.81.81 0 0 0 .578.993z" style="fill:url(#h)"/><linearGradient id="i" x1="3134.218" x2="3134.218" y1="152.787" y2="145.419" gradientTransform="matrix(-.186 -.0498 -.2867 1.07 660.044 40.348)" gradientUnits="userSpaceOnUse"><stop offset="0" style="stop-color:#5c300c"/><stop offset=".344" style="stop-color:#814a1d"/><stop offset=".689" style="stop-color:#9f5f2b"/><stop offset=".882" style="stop-color:#ab6730"/></linearGradient><path d="m33.263 47.743.013.004a.408.408 0 0 0 .5-.287l1.913-7.097a.405.405 0 0 0-.288-.497l-.014-.004a.408.408 0 0 0-.5.287l-1.913 7.097a.406.406 0 0 0 .289.497z" style="fill:url(#i)"/><linearGradient id="j" x1="1928.576" x2="1928.576" y1="140.656" y2="133.287" gradientTransform="matrix(-.3685 -.0987 -.299 1.1158 783.864 80.763)" gradientUnits="userSpaceOnUse"><stop offset="0" style="stop-color:#5c300c"/><stop offset=".344" style="stop-color:#814a1d"/><stop offset=".689" style="stop-color:#9f5f2b"/><stop offset=".882" style="stop-color:#ab6730"/></linearGradient><path d="m30.712 47.245.82.218a.809.809 0 0 0 .99-.568l1.797-6.666a.803.803 0 0 0-.571-.984l-.821-.218a.809.809 0 0 0-.99.568L30.14 46.26c-.116.43.14.87.572.985z" style="fill:url(#j)"/><path d="M35.98 53.989c.865.028.946-1.631.173-1.93-1.028-.398-1.519-.029-1.925-1.495-.455-1.645-5.236 2.502-7.021 2.23-1.538-.234-1.507 5.728 0 5.478.811-.134 2.418-.162 2.507-.113 2.43 1.33 4.491 1.107 4.94 1.056.64-.071 1.19-1.469.421-1.554.9.007 1.276-1.627.382-1.726.872-.004 1.39-1.85.523-1.946z" style="fill:#5e4c3b"/><path d="M31.555 2.573c-7.618 0-11.288 6.197-10.83 14.164.095 1.6.54 3.911 1.091 5.89 1.143 4.115 7.172 8.259 9.74 8.259 2.566 0 8.595-4.144 9.739-8.258.55-1.98.996-4.29 1.09-5.89.458-7.968-3.21-14.165-10.83-14.165z" style="fill:#735c48"/><path d="M31.555 24.418c-1.786-.785-1.8-.032-4.556.152 1.034 1.174 1.796 2.682 4.555 2.682 3.166 0 3.701-1.713 4.558-2.682-2.759-.184-2.77-.937-4.558-.152z" style="fill:#472b27"/><path d="M27.826 24.863c1.8 1.87 5.68 1.845 7.458.001-2.77.297-4.686.297-7.458 0z" style="fill:#fff"/><path d="M39.651 14.086c-1.655-.985-4.625-1.106-5.799-.434-.249.135-.182.847.033.758 1.676-.697 4.229-.732 5.802.074.21.107.215-.255-.036-.398zm-16.192 0c1.655-.985 4.624-1.106 5.8-.434.25.135.183.847-.033.758-1.677-.697-4.227-.733-5.802.074-.211.107-.215-.255.035-.398z" style="fill:#302b27"/><path d="M33.268 21.89c-.182-.128-.607.068-1.714.068-1.105 0-1.53-.196-1.712-.069-.217.153.128.842 1.712.842 1.585 0 1.932-.688 1.714-.842z" style="fill:#4a3728"/><path d="M29.86 17.075c.065.503-.277 1.1-1.225 1.547-.602.285-1.854.62-3.5-.073-.737-.31-1.456-1.277-1.39-1.812.891-1.68 5.28-1.925 6.116.338z" style="fill:#fff"/><linearGradient id="k" x1="-424.332" x2="-424.332" y1="479.409" y2="479.933" gradientTransform="matrix(6.5701 0 0 -6.5701 2814.782 3168.527)" gradientUnits="userSpaceOnUse"><stop offset="0" style="stop-color:#a6694a"/><stop offset="1" style="stop-color:#4f2a1e"/></linearGradient><path d="M26.882 15.319c.952 0 1.724.771 1.724 1.722a1.724 1.724 0 0 1-3.45 0 1.725 1.725 0 0 1 1.726-1.722z" style="fill:url(#k)"/><path d="M26.02 17.01c0 1.19 1.725 1.19 1.725 0 0-1.106-1.725-1.106-1.725 0z" style="fill:#1a1626"/><path d="M25.758 16.527c0 .5.723.5.723 0 0-.463-.723-.463-.723 0z" style="fill:#ab968c"/><path d="M29.869 17.142c-.7-2.248-5.475-1.916-6.125-.405.241-1.935 5.528-2.446 6.125.405z" style="fill:#45332c"/><path d="M33.25 17.075c-.064.503.278 1.1 1.226 1.547.602.285 1.854.62 3.5-.073.738-.31 1.456-1.277 1.391-1.812-.891-1.68-5.282-1.925-6.116.338z" style="fill:#fff"/><linearGradient id="l" x1="-425.613" x2="-425.613" y1="479.409" y2="479.933" gradientTransform="matrix(6.5701 0 0 -6.5701 2832.512 3168.527)" gradientUnits="userSpaceOnUse"><stop offset="0" style="stop-color:#a6694a"/><stop offset="1" style="stop-color:#4f2a1e"/></linearGradient><path d="M36.19 15.319c.953 0 1.725.771 1.725 1.722 0 .95-.772 1.722-1.725 1.722a1.723 1.723 0 0 1-1.724-1.722c0-.951.772-1.722 1.724-1.722z" style="fill:url(#l)"/><path d="M35.329 17.01c0 1.19 1.725 1.19 1.725 0 0-1.106-1.725-1.106-1.725 0z" style="fill:#1a1626"/><path d="M35.066 16.527c0 .5.723.5.723 0 0-.463-.723-.463-.723 0z" style="fill:#ab968c"/><path d="M33.243 17.142c.7-2.247 5.47-1.926 6.124-.405-.242-1.935-5.528-2.446-6.124.405z" style="fill:#45332c"/><path d="M40.13 3.686c.87-1.24-6.5-3.86-13.456-2.09-6.95 1.589-10.868 9.192-10.868 18.789 0 3.56 2.29 7.977 6.525 10.234l1.548-.656c-4.775-4.606-3.615-9.288-1.773-14.806 5.219-3.018 11.088-3.912 15.187-7.523-.525 1.573 2.291 3.74 3.713 7.523 1.887 5.027 2.973 10.105-1.788 14.793l1.457.627c4.091-2.267 6.63-6.647 6.63-10.192 0-11.345-4.39-17.502-7.175-16.7z" style="fill:#473e35"/><path d="M40.13 3.689c.836-1-2.888-2.67-7.58-2.67 5.758.455 7.721 3.575 6.123 2.75-1.703-.88-5.866-2.156-11.442.37 6.1-1.297 11.713.12 10.84.855-1.378 1.16-7.45-1.998-15.956 5.766-1.171 1.07 5.102-4.103 13.522-4.268-1.171 2.464-16.147 6.368-18.47 12.49 3.898-5.564 20.337-7.631 22.963-15.293zm3.813 8.916s3.651 9.904-2.467 16.77c8.764-6.866 2.467-16.77 2.467-16.77z" style="fill:#382e26"/><path d="M22.433 14.891s-1.493.272-2.713 1.596c-2.553 9.018 3.563 12.868 3.563 12.868s-4.854-4.945-.85-14.464z" style="fill:#382e26"/><path d="M18.615 17.345s-.7.274-1.557 2.03c-.794 5.498 3.066 8.298 3.066 8.298s-3.62-4.422-1.509-10.328zm27.292-7.013C43.244 2.047 40.13 3.69 40.13 3.69s-1.499 2.805-2.691 3.79c-2.155 2.647 5.251 4.917 5.059 16.383 1.959-8.147-3.484-13.594-3.572-15.049-.1-1.649 1.27-4.184 2.339-4.489 1.159-.33 3.814 3.764 4.642 6.008z" style="fill:#382e26"/><path d="M17.058 19.375c4.217-6.88 19.828-6.415 23.072-15.686-5.468 8.457-22.027 9.867-23.072 15.686z" style="fill:#1a1714"/><path d="M39.98 7.391s3.458 7.416 4.027 13.716c.94-9.687-4.028-13.716-4.028-13.716zM21.362 13.71s5.032-3.266 11.331-5.961c-6.743.404-11.331 5.96-11.331 5.96zm-3.106-.668s3.953-6.316 11.163-8.153c-10.032-.657-11.163 8.153-11.163 8.153z" style="fill:#574f45"/><linearGradient id="m" x1="48" x2="48" y1="59.49" y2="57.775" gradientUnits="userSpaceOnUse"><stop offset="0" style="stop-color:#a36c00"/><stop offset=".2" style="stop-color:#b17c14"/><stop offset=".607" style="stop-color:#d4a446"/><stop offset="1" style="stop-color:#facf7d"/></linearGradient><path d="M42.353 57.775h11.294v1.715H42.353z" style="fill:url(#m)"/><path d="M42.353 57.53h11.294v.245H42.353z" style="fill:#5c300c"/><linearGradient id="n" x1="48" x2="48" y1="63" y2="59.255" gradientUnits="userSpaceOnUse"><stop offset="0" style="stop-color:#5c300c"/><stop offset="1" style="stop-color:#ab6730"/></linearGradient><path d="M53.647 59.255H42.353c-.296 0-.853.422-.853.943V63h13v-2.802c0-.521-.557-.943-.853-.943z" style="fill:url(#n)"/><linearGradient id="o" x1="48" x2="48" y1="61.329" y2="60.198" gradientUnits="userSpaceOnUse"><stop offset="0" style="stop-color:#a36c00"/><stop offset=".2" style="stop-color:#b17c14"/><stop offset=".607" style="stop-color:#d4a446"/><stop offset="1" style="stop-color:#facf7d"/></linearGradient><path d="M41.5 60.198h13v1.132h-13z" style="fill:url(#o)"/><path d="M41.5 60.656h13v.216h-13z" style="fill:#5c300c"/></svg>