<svg xmlns="http://www.w3.org/2000/svg" xml:space="preserve" style="enable-background:new 0 0 64 64" viewBox="0 0 64 64"><path d="m30.197 58-8.905 3.74s-12.36-.52-12.36-2.292V58h21.265z" style="fill:#2b4f87"/><path d="M5.811 31.723c1.272-1.645 7.427-3.657 7.427-3.657l11.659.019s6.119 2.006 7.386 3.641c2.084 2.689 2.849 5.357 2.849 5.357l-4.934 3V58H8.933V45.084l-4.931-4.93s-.27-5.74 1.81-8.43z" style="fill:#3ab0a2"/><path d="M24.897 28.085c0 4.888-11.659 4.87-11.659-.019l1.17-.413h9.269l1.22.432z" style="fill:#2b998d"/><path d="M24.063 27.79c0 3.826-9.994 3.826-9.994 0v-4.234h9.994v4.234z" style="fill:#f5bb51"/><path d="m33.803 58 8.905 3.74s12.36-.52 12.36-2.292V58H33.803z" style="fill:#2b4f87"/><path d="M58.188 31.723c-1.27-1.645-7.426-3.657-7.426-3.657l-11.658.019s-6.12 2.006-7.387 3.641c-2.084 2.689-2.849 5.357-2.849 5.357l4.934 3V58h21.265V45.084l4.931-4.93s.27-5.74-1.81-8.43z" style="fill:#3a8fb0"/><path d="M39.104 28.085c0 4.888 11.658 4.87 11.658-.019l-1.17-.413h-9.269l-1.22.432z" style="fill:#007eb0"/><path d="M39.938 27.79c0 3.826 9.993 3.826 9.993 0v-4.234h-9.993v4.234z" style="fill:#f5bb51"/><path d="M32.598 62h-.184.184z" style="opacity:.5;fill:#1a1626"/><path d="m35.897 52.721-7.792.012s-4.09 1.331-4.937 2.416c-1.187 1.519-1.732 5.412-1.867 6.535 3.45.21 7.28.315 11.113.316h.184c3.466-.001 6.93-.088 10.111-.26-.12-1.047-.646-5.049-1.85-6.593-.85-1.092-4.962-2.426-4.962-2.426z" style="fill:#ff9ed2"/><path d="M28.105 52.733c0 3.242 7.792 3.23 7.792-.012l-.782-.274H28.92l-.815.286z" style="fill:#ff82c5"/><path d="M28.662 52.538c0 2.538 6.679 2.538 6.679 0V49.73h-6.679v2.807z" style="fill:#f5bb51"/><path d="m25.133 61.869-.299-.012c0-3.68.299-3.669.299.012zm14.035.024-.3.013c0-3.68.3-3.694.3-.013z" style="fill:#ff82c5"/><path d="M55.033 13.946c-1.562.188-2.691 5.416-1.707 6.797.138.192.942.5 1.54-.718.33-.675 1.284-1.238 1.58-2.629.379-1.782.143-3.639-1.413-3.45zm-20.19 0c1.563.188 2.691 5.416 1.707 6.797-.138.192-.942.5-1.54-.718-.33-.675-1.285-1.238-1.58-2.629-.38-1.782-.142-3.639 1.413-3.45z" style="fill:#ffc940"/><path d="M54.991 14.947c-.408.128-.853.75-1.094 1.781 1.425-.306 1.07 2.066-.17 2.11.012.239.028.484.058.742.595-.865 1.203-.519 1.803-1.807.541-1.16.413-3.142-.597-2.826zm-19.012 1.778c-.242-1.03-.686-1.65-1.094-1.779-1.008-.316-1.14 1.666-.597 2.827.6 1.288 1.207.94 1.805 1.806.029-.258.045-.504.055-.743-1.226-.057-1.577-2.4-.17-2.11z" style="fill:#f0a429"/><path d="M44.937 3.891c-6.77 0-10.033 5.119-9.625 12.235.082 1.432.971 6.102 1.81 7.778.858 1.714 3.73 4.357 5.488 4.904 1.111.345 3.545.345 4.655 0 1.76-.547 4.632-3.19 5.49-4.904.84-1.676 1.728-6.345 1.808-7.778.41-7.116-2.852-12.235-9.626-12.235z" style="fill:#ffc940"/><path d="M52.295 13.424c-1.548-.821-4.511-.861-5.616-.288-.238.109-.08.885.118.812 1.538-.609 4.02-.622 5.461.052.192.087.272-.463.037-.576zm-14.715 0c1.55-.821 4.512-.861 5.617-.288.236.109.08.885-.118.812-1.541-.609-4.02-.622-5.462.052-.19.087-.27-.463-.036-.576z" style="fill:#bb7c0a"/><path d="M46.765 20.53c-.193-.134-.646.073-1.827.073-1.179 0-1.633-.208-1.827-.073-.231.163.137.898 1.827.898s2.06-.735 1.827-.898z" style="fill:#f0a429"/><path d="M43.431 16.214c.057.45-.247.98-1.089 1.378-.535.254-1.649.551-3.111-.065-.655-.277-1.294-1.136-1.236-1.612.793-1.494 4.694-1.713 5.436.3z" style="fill:#fff"/><linearGradient id="a" x1="-1207.953" x2="-1207.953" y1="170.752" y2="170.286" gradientTransform="translate(7977.155 -1104.145) scale(6.5701)" gradientUnits="userSpaceOnUse"><stop offset="0" style="stop-color:#a6694a"/><stop offset="1" style="stop-color:#4f2a1e"/></linearGradient><path d="M40.785 14.654a1.533 1.533 0 1 1-1.534 1.53c0-.845.686-1.53 1.534-1.53z" style="fill:url(#a)"/><path d="M40.018 16.156c0 1.06 1.533 1.06 1.533 0 0-.982-1.533-.982-1.533 0z" style="fill:#1a1626"/><path d="M39.785 15.727c0 .444.642.444.642 0 0-.41-.642-.41-.642 0z" style="fill:#ab968c"/><path d="M43.438 16.273c-.622-1.997-4.866-1.702-5.443-.359.213-1.72 4.913-2.175 5.444.359z" style="fill:#f0a429"/><path d="M46.445 16.214c-.057.45.246.98 1.089 1.378.535.254 1.648.551 3.11-.065.657-.277 1.295-1.136 1.237-1.612-.792-1.494-4.695-1.713-5.436.3z" style="fill:#fff"/><linearGradient id="b" x1="-1209.392" x2="-1209.392" y1="170.752" y2="170.286" gradientTransform="translate(7994.886 -1104.145) scale(6.5701)" gradientUnits="userSpaceOnUse"><stop offset="0" style="stop-color:#a6694a"/><stop offset="1" style="stop-color:#4f2a1e"/></linearGradient><path d="M49.057 14.654a1.532 1.532 0 1 1 .002 3.063 1.532 1.532 0 0 1-.002-3.063z" style="fill:url(#b)"/><path d="M48.292 16.156c0 1.06 1.533 1.06 1.533 0 0-.982-1.533-.982-1.533 0z" style="fill:#1a1626"/><path d="M48.058 15.727c0 .444.643.444.643 0 0-.41-.643-.41-.643 0z" style="fill:#ab968c"/><path d="M46.438 16.273c.62-1.996 4.863-1.71 5.443-.359-.216-1.72-4.913-2.175-5.443.359z" style="fill:#f0a429"/><path d="M52.999 6.026 51.457 7.89c3.12 1.914 1.374 6.913 2.792 10.555.483-3.633 2.74-11.56-1.25-12.42zm-16.184.923 1.541.943c-3.12 1.913-1.312 6.912-2.73 10.554-.482-3.633-2.8-10.637 1.189-11.497z" style="fill:#f9a307"/><path d="M51.365 7.363c1.982-.007 2.18 3.231 2.18 3.231s.594-3.687-1.924-3.687l-.256.456zm-14.346 1.6c-.795 1.94-1.076 3.935-1.076 3.935s-.42-1.397.581-3.865l.495-.07z" style="fill:#e68c00"/><path d="M52.155 6.608c1.549-.161 1.924 2.355 1.924 2.355s.213-2.93-1.755-2.732l-.17.377z" style="fill:#e68c00"/><path d="M52.998 6.026S50.688 2 44.907 2c-6.278 0-10.235 2.813-10.37 8.26 3.846-3.79 13.973 2.102 18.46-4.234z" style="fill:#ffb80d"/><path d="M52.998 6.026C52.405 4.167 49.258 2 44.907 2c2.41.17 5.59 1.365 5.916 2.12 0 0-3.335-1.799-7.835-1.01 4.126-.187 6.85 2.436 5.691 2.45-1.13.014-5.325.155-7.814 1.69 1.6-.108 4.763.753 4.619.809-3.188 1.233-9.586-1.7-10.9 2.2 4.941-4.233 14.368 2.585 18.414-4.233z" style="fill:#f9a307"/><path d="M52.998 6.026c-3.299 7.798-18.123-.923-17.778 5.607-1.514-7.493 12.899 1.749 17.778-5.607z" style="fill:#e68c00"/><path d="M52.095 7.194c-1.569-3.078-6.653-4.185-6.653-4.185s5.316.304 7.066 3.773l-.413.412zm-.805.697c-1.461-1.368-8.504-.885-8.504-.885s5.134-1.55 9.06.439l-.557.446z" style="fill:#e68c00"/><path d="M34.852 9.072s.69-5.602 10.32-5.183c-7.916 1.097-10.32 5.183-10.32 5.183z" style="fill:#f9a307"/><path d="M35.448 8.75s3.815-4.992 12.19-3.733c-6.988-.204-12.19 3.734-12.19 3.734zm-.21-1.744s4.188-4.71 11.054-4.63c-7.933-1.055-11.054 4.63-11.054 4.63z" style="fill:#ffca25"/><path d="M44.938 23.472c-1.522-.449-3.78.213-3.78.213.86.935 1.488 2.151 3.78 2.151 2.625 0 3.071-1.38 3.78-2.15 0 0-2.258-.664-3.78-.214z" style="fill:#f0a429"/><path d="M41.724 23.844c1.597 1.34 4.822 1.347 6.428 0a94.363 94.363 0 0 1-6.428 0z" style="fill:#fff"/><path d="M29.162 13.946c-1.562.188-2.691 5.416-1.707 6.797.138.192.942.5 1.54-.718.33-.675 1.284-1.238 1.58-2.629.379-1.782.143-3.639-1.413-3.45zm-20.19 0c1.563.188 2.691 5.416 1.707 6.797-.138.192-.942.5-1.54-.718-.33-.675-1.285-1.238-1.58-2.629-.38-1.782-.143-3.639 1.413-3.45z" style="fill:#ffc940"/><path d="M29.12 14.947c-.408.128-.853.75-1.094 1.781 1.425-.306 1.069 2.066-.17 2.11.012.239.027.484.057.742.596-.865 1.203-.519 1.804-1.807.541-1.16.413-3.142-.597-2.826zm-19.012 1.778c-.243-1.03-.686-1.65-1.094-1.779-1.009-.316-1.14 1.666-.597 2.827.6 1.288 1.207.94 1.804 1.806.03-.258.046-.504.056-.743-1.226-.057-1.577-2.4-.17-2.11z" style="fill:#f0a429"/><path d="M19.066 3.891c-6.771 0-10.033 5.119-9.625 12.235.081 1.432.971 6.102 1.81 7.778.858 1.714 3.73 4.357 5.488 4.904 1.111.345 3.545.345 4.655 0 1.76-.547 4.632-3.19 5.49-4.904.84-1.676 1.727-6.345 1.808-7.778.41-7.116-2.852-12.235-9.626-12.235z" style="fill:#ffc940"/><path d="M26.424 13.424c-1.548-.821-4.512-.861-5.616-.288-.238.109-.08.885.118.812 1.538-.609 4.02-.622 5.46.052.193.087.273-.463.038-.576zm-14.714 0c1.548-.821 4.51-.861 5.616-.288.236.109.08.885-.119.812-1.54-.609-4.02-.622-5.461.052-.19.087-.27-.463-.036-.576z" style="fill:#bb7c0a"/><path d="M20.894 20.53c-.193-.134-.646.073-1.827.073-1.18 0-1.634-.208-1.827-.073-.231.163.137.898 1.827.898s2.06-.735 1.827-.898z" style="fill:#f0a429"/><path d="M17.56 16.214c.057.45-.247.98-1.089 1.378-.535.254-1.65.551-3.111-.065-.655-.277-1.294-1.136-1.236-1.612.793-1.494 4.694-1.713 5.436.3z" style="fill:#fff"/><linearGradient id="c" x1="-1211.89" x2="-1211.89" y1="170.752" y2="170.286" gradientTransform="translate(7977.155 -1104.145) scale(6.5701)" gradientUnits="userSpaceOnUse"><stop offset="0" style="stop-color:#a6694a"/><stop offset="1" style="stop-color:#4f2a1e"/></linearGradient><path d="M14.913 14.654a1.533 1.533 0 1 1-1.534 1.53c0-.845.687-1.53 1.534-1.53z" style="fill:url(#c)"/><path d="M14.147 16.156c0 1.06 1.533 1.06 1.533 0 0-.982-1.533-.982-1.533 0z" style="fill:#1a1626"/><path d="M13.914 15.727c0 .444.642.444.642 0 0-.41-.642-.41-.642 0z" style="fill:#ab968c"/><path d="M17.567 16.273c-.622-1.997-4.867-1.702-5.443-.359.213-1.72 4.913-2.175 5.443.359z" style="fill:#f0a429"/><path d="M20.574 16.214c-.057.45.246.98 1.089 1.378.535.254 1.648.551 3.11-.065.657-.277 1.295-1.136 1.237-1.612-.793-1.494-4.695-1.713-5.436.3z" style="fill:#fff"/><linearGradient id="d" x1="-1213.33" x2="-1213.33" y1="170.752" y2="170.286" gradientTransform="translate(7994.886 -1104.145) scale(6.5701)" gradientUnits="userSpaceOnUse"><stop offset="0" style="stop-color:#a6694a"/><stop offset="1" style="stop-color:#4f2a1e"/></linearGradient><path d="M23.186 14.654a1.532 1.532 0 1 1 .002 3.063 1.532 1.532 0 0 1-.002-3.063z" style="fill:url(#d)"/><path d="M22.42 16.156c0 1.06 1.534 1.06 1.534 0 0-.982-1.533-.982-1.533 0z" style="fill:#1a1626"/><path d="M22.187 15.727c0 .444.643.444.643 0 0-.41-.643-.41-.643 0z" style="fill:#ab968c"/><path d="M20.567 16.273c.62-1.996 4.863-1.71 5.443-.359-.216-1.72-4.913-2.175-5.443.359z" style="fill:#f0a429"/><path d="M27.128 6.026 25.585 7.89c3.12 1.914 1.374 6.913 2.792 10.555.483-3.633 2.74-11.56-1.25-12.42zm-16.184.923 1.54.943c-3.12 1.913-1.311 6.912-2.729 10.554-.482-3.633-2.8-10.637 1.189-11.497z" style="fill:#f9a307"/><path d="M25.494 7.363c1.982-.007 2.179 3.231 2.179 3.231s.595-3.687-1.923-3.687l-.256.456zm-14.347 1.6c-.794 1.94-1.075 3.935-1.075 3.935s-.42-1.397.581-3.865l.494-.07z" style="fill:#e68c00"/><path d="M26.284 6.608c1.549-.161 1.924 2.355 1.924 2.355s.213-2.93-1.755-2.732l-.17.377z" style="fill:#e68c00"/><path d="M27.127 6.026S24.817 2 19.036 2C12.758 2 8.8 4.813 8.665 10.26c3.845-3.79 13.973 2.102 18.46-4.234z" style="fill:#ffb80d"/><path d="M27.127 6.026C26.534 4.167 23.387 2 19.036 2c2.41.17 5.59 1.365 5.916 2.12 0 0-3.335-1.799-7.835-1.01 4.126-.187 6.85 2.436 5.691 2.45-1.13.014-5.325.155-7.814 1.69 1.6-.108 4.763.753 4.619.809-3.188 1.233-9.586-1.7-10.9 2.2 4.94-4.233 14.368 2.585 18.414-4.233z" style="fill:#f9a307"/><path d="M27.127 6.026c-3.299 7.798-18.123-.923-17.779 5.607-1.513-7.493 12.9 1.749 17.779-5.607z" style="fill:#e68c00"/><path d="M26.224 7.194c-1.569-3.078-6.653-4.185-6.653-4.185s5.316.304 7.066 3.773l-.413.412zm-.806.697c-1.46-1.368-8.503-.885-8.503-.885s5.134-1.55 9.06.439l-.557.446z" style="fill:#e68c00"/><path d="M8.981 9.072s.69-5.602 10.32-5.183c-7.916 1.097-10.32 5.183-10.32 5.183z" style="fill:#f9a307"/><path d="M9.577 8.75s3.815-4.992 12.19-3.733c-6.988-.204-12.19 3.734-12.19 3.734zm-.21-1.744s4.188-4.71 11.054-4.63C12.488 1.32 9.367 7.005 9.367 7.005z" style="fill:#ffca25"/><path d="M19.067 23.472c-1.522-.449-3.781.213-3.781.213.86.935 1.49 2.151 3.78 2.151 2.626 0 3.072-1.38 3.781-2.15 0 0-2.258-.664-3.78-.214z" style="fill:#f0a429"/><path d="M15.853 23.844c1.597 1.34 4.822 1.347 6.427 0-1.7.073-4.714.073-6.427 0z" style="fill:#fff"/><path d="M59.998 45.084c-.045-1.625-.136-4.794-.136-4.794s-2.856 1.677-6.19 1.809c.119 1.82.395 2.985.395 2.985-3.16 1.11-9.138 6.838-11.637 7.637-1.764.564-3.589-.238-4.589.731.781.36 1.094.52 1.094.52.968 1.182-3.78 3.166-2.191 4.029 0 .23.329.601.748.601.098.282.528.429.82.337.455.51 2.176.037 3.87-1.88.233-.261 1.444-1.426 2.201-1.707 1.978-.735 11.574-3.857 14.95-6.479.502-.39.702-2.433.665-3.789z" style="fill:#f5bb51"/><path d="M39.472 56.06S37.87 57.291 36.744 58c1.47-.597 2.728-1.94 2.728-1.94zm.906.406S38.535 58 37.493 58.602c1.514-.47 2.885-2.136 2.885-2.136zm-2.066 2.474c.948-.026 2.723-1.802 2.723-1.802s-1.635 1.389-2.723 1.801z" style="fill:#f0a429"/><path d="M4.002 45.084c.045-1.625.136-4.794.136-4.794s2.856 1.677 6.19 1.809c-.119 1.82-.395 2.985-.395 2.985 3.16 1.11 9.137 6.838 11.637 7.637 1.764.564 3.589-.238 4.589.731-.781.36-1.094.52-1.094.52-.968 1.182 3.78 3.166 2.191 4.029 0 .23-.329.601-.749.601-.098.282-.527.429-.819.337-.455.51-2.176.037-3.87-1.88-.233-.261-1.443-1.426-2.201-1.707-1.978-.735-11.574-3.857-14.949-6.479-.503-.39-.703-2.433-.666-3.789z" style="fill:#f5bb51"/><path d="M24.528 56.06s1.604 1.231 2.729 1.94c-1.471-.597-2.73-1.94-2.73-1.94zm-.906.406s1.844 1.534 2.886 2.136c-1.515-.47-2.886-2.136-2.886-2.136zm2.066 2.474c-.948-.026-2.723-1.802-2.723-1.802s1.635 1.389 2.723 1.801z" style="fill:#f0a429"/><path d="M24.351 42.53c-3.183 4.07.096 8.55-2.619 9.99 4.82 3.35 9.013-4.584 2.62-9.99z" style="fill:#e68c00"/><path d="M24.351 42.53c-6.455 4.266-.78 8.151-2.619 9.99 2.479.9 5.137-1.8 2.62-9.99z" style="fill:#ffb80d"/><path d="M24.351 42.53c-1.762 3.519 2.167 9.904-2.619 9.99 3.442 1.515 6.169-1.925 2.62-9.99z" style="fill:#f9a307"/><path d="M22.351 52.059c1.443-1.346-2.448-5.918 2.096-8.826-3.292 3.276.477 7.795-2.096 8.826z" style="fill:#ffca25"/><path d="M39.65 42.53c3.182 4.07-.096 8.55 2.618 9.99-4.82 3.35-9.012-4.584-2.618-9.99z" style="fill:#e68c00"/><path d="M39.65 42.53c6.455 4.266.78 8.151 2.618 9.99-2.478.9-5.136-1.8-2.618-9.99z" style="fill:#ffb80d"/><path d="M39.65 42.53c1.762 3.519-2.167 9.904 2.618 9.99-3.441 1.515-6.168-1.925-2.618-9.99z" style="fill:#f9a307"/><path d="M41.65 52.059c-1.443-1.346 2.447-5.918-2.096-8.826 3.292 3.276-.477 7.795 2.096 8.826z" style="fill:#ffca25"/><path d="M32 31.654c-6.785.004-11.08 5.973-8.438 13.64H40.44c2.643-7.667-1.654-13.636-8.439-13.64z" style="fill:#f9a307"/><path d="M23.442 42.108c1.066.13 1.835 3.73 1.165 4.68-.094.132-.643.344-1.05-.494-.225-.464-.876-.852-1.077-1.81-.259-1.227-.097-2.506.962-2.376z" style="fill:#ffc940"/><path d="M23.471 42.798c.278.088.582.516.746 1.226-.971-.211-.729 1.422.115 1.452a7.103 7.103 0 0 1-.038.511c-.407-.595-.82-.356-1.23-1.243-.369-.8-.28-2.164.407-1.946z" style="fill:#f0a429"/><path d="M40.558 42.108c-1.065.13-1.835 3.73-1.164 4.68.093.132.643.344 1.05-.494.226-.464.875-.852 1.077-1.81.258-1.227.097-2.506-.963-2.376z" style="fill:#ffc940"/><path d="M39.784 44.021c.165-.708.467-1.135.745-1.223.688-.218.776 1.146.407 1.946-.409.887-.823.648-1.23 1.243a7.154 7.154 0 0 1-.038-.511c.836-.04 1.075-1.653.116-1.455z" style="fill:#f0a429"/><path d="M32.001 32.858c-5.822 0-8.627 4.404-8.275 10.529.07 1.231.834 4.047 1.555 5.489 1.274 2.545 4.6 4.442 6.72 4.442 2.117 0 5.447-1.897 6.72-4.442.722-1.442 1.485-4.258 1.555-5.49.352-6.124-2.453-10.528-8.275-10.528z" style="fill:#ffc940"/><path d="M33.358 46.828c-.144-.1-.482.054-1.358.054-.876 0-1.213-.154-1.358-.054-.171.121.103.668 1.358.668 1.256 0 1.53-.547 1.358-.668zM32 48.78c-1.312-.386-3.258.183-3.258.183.74.807 1.284 1.853 3.258 1.853 2.262 0 2.647-1.188 3.26-1.853 0 0-1.948-.57-3.26-.183z" style="fill:#f0a429"/><path d="M29.23 49.1c1.377 1.155 4.156 1.162 5.54 0a81.084 81.084 0 0 1-5.54 0zm1.515-5.268c.048.373-.205.816-.907 1.148-.446.211-1.374.46-2.592-.054-.546-.23-1.078-.949-1.03-1.345.66-1.245 3.91-1.428 4.53.25z" style="fill:#fff"/><linearGradient id="e" x1="-424.079" x2="-424.079" y1="475.403" y2="475.791" gradientTransform="matrix(6.5701 0 0 -6.5701 2814.782 3168.527)" gradientUnits="userSpaceOnUse"><stop offset="0" style="stop-color:#a6694a"/><stop offset="1" style="stop-color:#4f2a1e"/></linearGradient><path d="M28.54 42.53a1.277 1.277 0 1 1-.001 2.554 1.277 1.277 0 0 1 0-2.555z" style="fill:url(#e)"/><path d="M27.9 43.783c0 .884 1.278.884 1.278 0 0-.82-1.277-.82-1.277 0z" style="fill:#1a1626"/><path d="M27.707 43.426c0 .37.535.37.535 0 0-.344-.535-.344-.535 0z" style="fill:#ab968c"/><path d="M30.751 43.881c-.518-1.667-4.055-1.421-4.536-.3.178-1.435 4.095-1.814 4.536.3z" style="fill:#f0a429"/><path d="M33.257 43.832c-.05.373.205.816.907 1.148.445.211 1.373.46 2.592-.054.546-.23 1.078-.949 1.03-1.345-.66-1.245-3.912-1.428-4.53.25z" style="fill:#fff"/><linearGradient id="f" x1="-425.728" x2="-425.728" y1="475.403" y2="475.791" gradientTransform="matrix(6.5701 0 0 -6.5701 2832.512 3168.527)" gradientUnits="userSpaceOnUse"><stop offset="0" style="stop-color:#a6694a"/><stop offset="1" style="stop-color:#4f2a1e"/></linearGradient><path d="M35.433 42.53a1.278 1.278 0 1 1 .001 2.555 1.278 1.278 0 0 1 0-2.556z" style="fill:url(#f)"/><path d="M34.795 43.783c0 .884 1.278.884 1.278 0 0-.82-1.278-.82-1.278 0z" style="fill:#1a1626"/><path d="M34.601 43.426c0 .37.535.37.535 0 0-.344-.535-.344-.535 0z" style="fill:#ab968c"/><path d="M33.25 43.881c.518-1.667 4.052-1.428 4.536-.3-.18-1.435-4.094-1.814-4.536.3z" style="fill:#f0a429"/><path d="M37.85 42.151c-.82-.837-2.323-1.397-4.115-.902-.19.053-.178.647-.023.607 1.638-.425 3.006-.158 4.032.71.12.101.242-.276.106-.415zm-11.699 0c.82-.837 2.323-1.397 4.115-.902.19.053.179.647.024.607-1.638-.425-3.007-.158-4.032.71-.12.101-.242-.276-.107-.415z" style="fill:#bb7c0a"/><path d="M31.998 31.855c-3.412 0-6.343 1.914-7.666 4.2-1.205 2.082-1.442 5.76-.36 8.778.14-2.896 1.745-4.354 1.647-7.541 9.59 0 13.524 3.09 14.405 7.541 2.178-6.08-1.251-12.978-8.026-12.978z" style="fill:#f9a307"/><path d="M31.816 31.857c-3.412 0-6.16 1.912-7.484 4.198-1.205 2.082-1.71 4.753-.36 8.778-.692-4.439 1.208-7.915 1.208-7.915 9.322-1.012 13.85 3.113 14.844 7.915.217-1.638.004-9.24-8.475-9.9 6.306-.569 8.475 2.569 8.626 7.283 1.68-6.14-3.805-10.36-8.359-10.36z" style="fill:#ffb80d"/><path d="M40.024 44.833c-1.889-8.216-15.166-7.5-15.166-7.5s14.025-1.552 15.166 7.5z" style="fill:#e68c00"/><path d="M23.971 44.833c-.122-3.425 1.69-4.967 1.495-8.502.75 3.36-.865 5.027-1.495 8.502z" style="fill:#e68c00"/><path d="M40.175 42.216c.765-11.573-17.117-11.573-16.351 0 .667-9.72 15.684-9.72 16.35 0z" style="fill:#cfd8dd"/><path d="M40.175 41.841c.765-11.573-17.117-11.573-16.351 0 .667-9.72 15.684-9.72 16.35 0z" style="fill:#fff"/><path d="M23.924 37.502c3.412-7.553 10.508-4.628 10.508-4.628s-6.704-1.696-10.508 4.627zm14.612 2.525c-3.4-3.696-8.72-4.347-8.72-4.347s6.163-.886 8.72 4.347z" style="fill:#ffca25"/></svg>