<svg xmlns="http://www.w3.org/2000/svg" xml:space="preserve" style="enable-background:new 0 0 64 64" viewBox="0 0 64 64"><path d="M22.344 25.984h19.411v9.726H22.344z" style="fill:#d1a936"/><path d="M44.019 24.272c.898-4.123.92-9.092-1.208-14.309 0 0-2.671-1.065-3.55 7.081-1.226 11.362 4.005 22.4 7.906 15.718-3.895 2.054-4.523-2.179-3.148-8.49z" style="fill:#f2d785"/><path d="m43.228 21.288-2.985 1.153c-2.895 10.16 3.68 18.482 7.968 10.255-4.793 3.858-8.136-.305-4.983-11.408z" style="fill:#e6c465"/><path d="M32 36.85H17.168v24.479C17.466 63.275 25.1 64 32 64s14.534-.725 14.832-2.671v-24.48H32z" style="fill:#484258"/><path d="M14.323 36.569S8 48.307 8 54.198C8 56.666 15.504 64 18.265 64c6.385 0 1.854-27.598 1.854-27.598l-5.796.167z" style="fill:#484258"/><path d="M18.795 47.121c.252 2.596-.105 4.928-.105 4.928l-.706-.29s.407-2.105.811-4.638z" style="fill:#302c3b"/><path d="M14.969 50.254c6.254 1.195 6.648 3.776 6.648 3.776s-1.376-1.405-6.648-3.776z" style="fill:#302c3b"/><path d="M20.799 53.193c2.335.78 1.012 9.086-1.516 10.34-.895.445-2.25-7.374 1.516-10.34z" style="fill:#302c3b"/><path d="M49.677 36.569S56 48.307 56 54.198C56 56.666 48.496 64 45.735 64c-6.385 0-1.854-27.598-1.854-27.598l5.796.167z" style="fill:#484258"/><path d="M45.205 47.121a22.384 22.384 0 0 0 .105 4.928l.706-.29s-.407-2.105-.811-4.638z" style="fill:#302c3b"/><path d="M49.031 50.254c-6.254 1.195-6.648 3.776-6.648 3.776s1.377-1.405 6.648-3.776z" style="fill:#302c3b"/><path d="M43.201 53.193c-2.335.78-1.012 9.086 1.516 10.34.895.445 2.25-7.374-1.516-10.34z" style="fill:#302c3b"/><linearGradient id="a" x1="32" x2="32" y1="38.187" y2="30.837" gradientUnits="userSpaceOnUse"><stop offset="0" style="stop-color:#484258"/><stop offset=".472" style="stop-color:#4a455a"/><stop offset=".764" style="stop-color:#534d62"/><stop offset="1" style="stop-color:#605b6e"/></linearGradient><path d="M26.409 30.837H37.59s12.086 4.13 12.086 5.732c0 2.157-35.354 2.157-35.354 0 0-1.605 12.086-5.732 12.086-5.732z" style="fill:url(#a)"/><path d="m32 42.852 1.193 21.14-.947.008zm-4.485.375.923 20.707-.923-.04zm-5.02 1.723.51 18.568-.834-.114zm18.643-.184-.364 18.78.921-.123z" style="fill:#4e4961"/><path d="M16.865 34.677s2.012 2.933 3.842 4.664C23.058 41.566 32 40.681 32 40.681s-8.608.435-10.916-1.715c-1.802-1.678-4.22-4.29-4.22-4.29zm30.27 0s-2.012 2.933-3.842 4.664C40.942 41.566 32 40.681 32 40.681s8.608.435 10.916-1.715c1.802-1.678 4.22-4.29 4.22-4.29zm-3.439 18.769c-2.844-2.124-1.41 9.86 1.145 8.67 1.072-.5.738-7.264-1.145-8.67z" style="fill:#302c3b"/><path d="M26.923 32.055C26.913 32.049 32 41.66 32 41.66s5.07-9.62 5.077-9.625v-2.992H26.923v3.012z" style="fill:#d9b18d"/><linearGradient id="b" x1="26.923" x2="37.077" y1="38.784" y2="38.784" gradientUnits="userSpaceOnUse"><stop offset="0" style="stop-color:#f68"/><stop offset="1" style="stop-color:#ff809c"/></linearGradient><path d="M26.923 34.427c-.01-.005 5.077 8.73 5.077 8.73s5.07-8.744 5.077-8.747l-10.154.017z" style="fill:url(#b)"/><path d="M36.942 29.466C36.32 32.545 32 34.418 32 34.418c1.425 1.839 3.93 2.376 5.243.55 1.027-1.428 2.018-3.304 2.018-3.304s-.757-1.619-2.32-2.198zm-9.884 0c-1.562.58-2.318 2.198-2.318 2.198s.99 1.876 2.017 3.304c1.313 1.826 3.818 1.289 5.243-.55 0 0-4.32-1.873-4.942-4.952z" style="fill:#fde0da"/><path d="M29.275 54.908c.793-.067.714-1.829-.041-1.94-.499-.072-1.192-.145-1.958.049-.411-.665 1.226-2.887.072-4.999-.786-1.436-1.873-.87-1.813-.213.437 4.844-3.027 6.396-4.618 6.124-1.37-.234-2.66 5.736-1.176 5.486.8-.135 3.056-.163 3.137-.114 2.232 1.332 5.32 1.056 5.726.955.576-.142.934-1.593.224-1.593.821-.093.997-1.76.17-1.76.796-.1 1.078-1.995.277-1.995z" style="fill:#ebc199"/><path d="m40.254 62.129-3.942.75-3.986-24.386 3.942-.75z" style="fill:#e6ebef"/><path d="M36.268 37.743c.072.445-.751.974-1.84 1.18-1.09.208-2.03.015-2.102-.43-.073-.445.749-.973 1.838-1.18 1.09-.207 2.031-.015 2.104.43z" style="fill:#cfd8dd"/><path d="M40.254 62.129c.072.445-.752.973-1.84 1.18-1.09.208-2.03.014-2.102-.43-.073-.445.749-.973 1.838-1.18 1.089-.208 2.03-.015 2.104.43z" style="fill:#e6ebef"/><path d="m38.877 62.588-3.986-24.385.509-.097z" style="fill:#cfd8dd"/><path d="M36.264 50.162c-1.089.207-2.029.014-2.101-.431l.18 1.104c.073.445 1.013.638 2.102.431 1.089-.207 1.913-.736 1.84-1.18l-.18-1.105c.072.445-.752.974-1.84 1.18z" style="fill:#e81c27"/><path d="M34.725 54.908c-.793-.067-.714-1.829.041-1.94.499-.072 2.776.103 3.847-.696 1.043-1.282 2.879 1.93 4.47 1.657 1.37-.234 2.66 5.736 1.176 5.486-.8-.135-3.056-.163-3.137-.114-2.232 1.332-5.32 1.056-5.726.955-.576-.142-.934-1.593-.224-1.593-.821-.093-.997-1.76-.17-1.76-.796-.1-1.078-1.995-.277-1.995zM43.2 15.967c-1.73.21-2.979 6.017-1.891 7.55.152.214 1.044.556 1.705-.798.365-.748 1.421-1.373 1.748-2.917.42-1.98.159-4.043-1.562-3.835zm-22.344 0c1.73.21 2.979 6.017 1.89 7.55-.151.214-1.044.556-1.704-.798-.366-.748-1.422-1.373-1.749-2.917-.42-1.98-.158-4.044 1.563-3.835z" style="fill:#ebc199"/><path d="M43.153 17.082c-.451.142-.943.831-1.21 1.977 1.576-.34 1.183 2.295-.188 2.343.011.265.03.538.062.824.66-.96 1.331-.574 1.996-2.007.6-1.289.458-3.49-.66-3.137zm-21.041 1.973c-.267-1.143-.758-1.833-1.208-1.973-1.118-.353-1.261 1.849-.663 3.138.665 1.432 1.336 1.046 1.998 2.007.032-.287.05-.56.06-.825-1.356-.066-1.744-2.668-.187-2.347z" style="fill:#c99b71"/><path d="M32.028 4.803c-7.495 0-11.104 6.119-10.653 13.987.092 1.581.531 3.863 1.073 5.817 1.124 4.064 7.054 8.155 9.58 8.155 2.525 0 8.456-4.091 9.58-8.155.542-1.955.981-4.236 1.074-5.817.449-7.868-3.16-13.987-10.654-13.987z" style="fill:#ebc199"/><path d="M32.026 26.375c-1.756-.775-1.77-.03-4.48.15 1.017 1.16 1.767 2.65 4.48 2.65 3.114 0 3.64-1.693 4.484-2.65-2.715-.18-2.726-.925-4.484-.15z" style="fill:#c98655"/><path d="M28.36 26.815c1.77 1.846 5.587 1.823 7.335.001-2.726.293-4.61.293-7.336 0z" style="fill:#fff"/><path d="M39.99 16.173c-1.628-.974-4.549-1.093-5.703-.429-.245.133-.18.836.032.749 1.649-.689 4.16-.723 5.707.073.207.105.212-.252-.035-.393zm-15.927 0c1.628-.974 4.548-1.093 5.706-.429.246.133.18.836-.033.749-1.65-.689-4.158-.723-5.707.073-.208.105-.212-.252.034-.393z" style="fill:#ab8c57"/><path d="M33.712 23.878c-.178-.126-.597.068-1.685.068-1.087 0-1.506-.193-1.684-.068-.214.15.127.831 1.684.831 1.558 0 1.9-.679 1.685-.83z" style="fill:#c99b71"/><path d="M30.36 19.123c.064.498-.273 1.088-1.205 1.53-.592.28-1.824.611-3.443-.074-.725-.306-1.432-1.262-1.368-1.79.877-1.658 5.195-1.9 6.016.334z" style="fill:#fff"/><linearGradient id="c" x1="-1213.12" x2="-1213.12" y1="171.067" y2="170.55" gradientTransform="translate(7997.75 -1103.139) scale(6.5701)" gradientUnits="userSpaceOnUse"><stop offset="0" style="stop-color:#a6694a"/><stop offset="1" style="stop-color:#4f2a1e"/></linearGradient><path d="M27.43 17.39c.938 0 1.697.76 1.697 1.7s-.76 1.701-1.696 1.701a1.699 1.699 0 0 1-1.697-1.7 1.7 1.7 0 0 1 1.697-1.702z" style="fill:url(#c)"/><path d="M26.582 19.059c0 1.177 1.697 1.177 1.697 0 0-1.093-1.697-1.093-1.697 0z" style="fill:#1a1626"/><path d="M26.325 18.582c0 .493.71.493.71 0 0-.457-.71-.457-.71 0z" style="fill:#ab968c"/><path d="M30.369 19.189c-.69-2.22-5.386-1.892-6.025-.4.237-1.91 5.437-2.415 6.024.4z" style="fill:#45332c"/><path d="M33.695 19.123c-.063.498.274 1.088 1.206 1.53.591.28 1.823.611 3.442-.074.727-.306 1.432-1.262 1.368-1.79-.876-1.658-5.195-1.9-6.016.334z" style="fill:#fff"/><linearGradient id="d" x1="-1214.425" x2="-1214.425" y1="171.067" y2="170.55" gradientTransform="translate(8015.48 -1103.139) scale(6.5701)" gradientUnits="userSpaceOnUse"><stop offset="0" style="stop-color:#a6694a"/><stop offset="1" style="stop-color:#4f2a1e"/></linearGradient><path d="M36.587 17.39a1.7 1.7 0 0 1 1.696 1.7c0 .94-.76 1.701-1.696 1.701a1.699 1.699 0 0 1-1.697-1.7 1.7 1.7 0 0 1 1.697-1.702z" style="fill:url(#d)"/><path d="M35.74 19.059c0 1.177 1.696 1.177 1.696 0 0-1.093-1.697-1.093-1.697 0z" style="fill:#1a1626"/><path d="M35.481 18.582c0 .493.712.493.712 0 0-.457-.712-.457-.712 0z" style="fill:#ab968c"/><path d="M33.688 19.189c.687-2.22 5.38-1.902 6.023-.4-.237-1.91-5.437-2.415-6.023.4z" style="fill:#45332c"/><path d="M39.53 12.494c.942 1.828 2.48 6.237 2.595 8.243 1.164-2.365 1.363-4.399.023-9.961l-2.618 1.718z" style="fill:#f2d785"/><path d="M39.791 12.276c.767 1.811 2.218 6.455 2.335 8.461.585-2.52-.138-6.586-1.397-9.03l-.938.569z" style="fill:#e6c465"/><path d="M39.321 12.526c1.025 1.928 2.483 6.118 2.805 8.211.136-1.852-1.065-6.11-1.947-8.211h-.858z" style="fill:#d1a936"/><path d="m25.956 12.921-4.86-2.145c-6.327 13.06 2.414 24.373-3.945 22.314 2.745 2.965 7.763 2.317 6.443-5.444-1.063-6.246 1.501-12.64 2.362-14.725z" style="fill:#f2d785"/><path d="m27.956 13.4-3.216-1.624c-1.586 1.406-5.047 8.166-3.605 15.502 1.165 5.926-1.655 8.436-5.346 5.886 3.792 5.684 9.828 3.204 8.087-6.057-1.26-6.706 3.111-12.543 4.08-13.706z" style="fill:#e6c465"/><path d="m29.04 14.026-1.333-.542c-2.119 1.887-5.426 8.604-3.774 13.943-.926-6.606 2.312-11.415 5.107-13.401z" style="fill:#d1a936"/><path d="M22.204 12.145s-5.675 6.553-1.583 16.518c-2.13-9.145 1.583-16.518 1.583-16.518z" style="fill:#fae29b"/><path d="M22.389 19.215c-1.899 7.817 2.187 12.761-1.506 15.2 4.955-.803.516-7.295 1.506-15.2z" style="fill:#d1a936"/><path d="M39.711 8.838s2.775 3.005 3.484 6.342c.788-4.395-3.484-6.342-3.484-6.342z" style="fill:#fae29b"/><path d="M43.33 10.13c0 2.741-11.33 4.838-11.33 4.838S20.67 12.87 20.67 10.13c0-12.477 22.66-12.477 22.66 0z" style="fill:#484258"/><path d="M50.404 3.243H13.596v.844L32 7.944l18.404-3.857z" style="fill:#302c3b"/><path d="M32 0 13.596 3.243 32 7.101l18.404-3.858z" style="fill:#484258"/><path d="M17.05 9.532h-.319V5.807c0-.82.318-1.533.794-1.821 1.054-.639 3.048-.538 11.004-.687 0 0 2.076-1.134 4.14-1.358.725-.078 1.207.183 1.321.575.137.475-.238 1.108-5.059 1.097-7.094-.016-10.288.107-11.09.52-.668.343-.791 1.188-.791 1.685v3.714zM33.11 2.11c-1.332.177-2.516.414-3.91 1.211 4.279.048 5.09-.864 3.91-1.211z" style="fill:#b0751e"/><path d="M32.001 2.346H30.25v.375c0 .771 3.503.771 3.503 0v-.375h-1.75z" style="fill:#302c3b"/><path d="M33.752 2.346c0 .772-3.504.772-3.504 0 0-.774 3.504-.774 3.504 0z" style="fill:#5a526e"/><linearGradient id="e" x1="15.05" x2="18.731" y1="15.095" y2="15.095" gradientUnits="userSpaceOnUse"><stop offset="0" style="stop-color:#e39f16"/><stop offset=".067" style="stop-color:#eea81c"/><stop offset=".182" style="stop-color:#fbb324"/><stop offset=".291" style="stop-color:#ffb726"/><stop offset=".293" style="stop-color:#ffb726"/><stop offset=".565" style="stop-color:#cf931a"/><stop offset=".773" style="stop-color:#b17c13"/><stop offset=".891" style="stop-color:#a67410"/></linearGradient><path d="M16.891 10.005c-1.6-.746-1.961 5.734-1.81 8.05.017-.157.057-1.523.186-2.43-.096 1.723-.05 3.617-.05 3.805 0 .187.248.283.248.283-.042-1.06.056-2.13.056-2.13s-.081 1.367.022 2.221c.319.23.596.283.596.283-.064-1.282.178-4.937.178-4.937s-.169 3.358-.034 5.018c.222.066.608.076.608.076s.385-.01.607-.076c.135-1.66-.034-5.018-.034-5.018s.24 3.654.178 4.937c0 0 .277-.054.596-.283.103-.854.022-2.22.022-2.22s.098 1.069.055 2.129c0 0 .25-.096.25-.283 0-.187.045-2.082-.051-3.805.129.907.17 2.273.185 2.43.152-2.316-.209-8.796-1.808-8.05z" style="fill:url(#e)"/><path d="M17.454 10.005c0 .293-1.128.293-1.128 0s1.128-.293 1.128 0z" style="fill:#b0751e"/><radialGradient id="f" cx="16.89" cy="9.259" r=".79" gradientUnits="userSpaceOnUse"><stop offset="0" style="stop-color:#ffb726"/><stop offset=".2" style="stop-color:#f2ad21"/><stop offset=".71" style="stop-color:#d49617"/><stop offset="1" style="stop-color:#c98d13"/></radialGradient><path d="M17.674 9.26c0 1.062-1.567 1.062-1.567 0 0-1.063 1.567-1.063 1.567 0z" style="fill:url(#f)"/></svg>