<svg xmlns="http://www.w3.org/2000/svg" xml:space="preserve" style="enable-background:new 0 0 64 64" viewBox="0 0 64 64"><path d="M53.633 28.598c-3.348.404-5.767 11.607-3.659 14.565.296.411 2.02 1.072 3.3-1.538.71-1.446 2.752-2.652 3.387-5.633.811-3.82.305-7.798-3.028-7.394zm-43.265 0c3.35.404 5.767 11.607 3.66 14.565-.297.411-2.02 1.072-3.303-1.538-.707-1.446-2.752-2.652-3.385-5.633-.814-3.82-.305-7.798 3.028-7.394z" style="fill:#b88a6f"/><path d="M53.543 30.743c-.874.275-1.828 1.607-2.344 3.817 3.053-.656 2.29 4.427-.365 4.521.026.512.06 1.037.123 1.59 1.277-1.854 2.578-1.11 3.865-3.87 1.16-2.488.885-6.735-1.279-6.058zm-40.741 3.811c-.519-2.207-1.47-3.536-2.344-3.812-2.16-.677-2.44 3.57-1.28 6.057 1.287 2.76 2.588 2.016 3.868 3.871.062-.553.098-1.08.118-1.592-2.626-.123-3.379-5.144-.362-4.524z" style="fill:#8c5f44"/><path d="M32 7.053c-14.51 0-21.5 10.968-20.627 26.217.175 3.07 2.082 13.076 3.878 16.667 1.84 3.673 7.992 9.336 11.76 10.51 2.382.737 7.597.737 9.976 0 3.77-1.174 9.925-6.837 11.763-10.51 1.802-3.59 3.703-13.596 3.875-16.667.88-15.248-6.11-26.217-20.626-26.217z" style="fill:#b88a6f"/><path d="M47.766 27.48c-3.318-1.76-9.668-1.845-12.035-.618-.509.234-.172 1.898.254 1.741 3.295-1.304 8.614-1.332 11.701.111.412.187.583-.99.08-1.235zm-31.531 0c3.318-1.76 9.666-1.845 12.035-.618.506.234.172 1.898-.254 1.741-3.302-1.304-8.614-1.332-11.704.111-.408.187-.578-.99-.077-1.235z" style="fill:#a85a0a"/><path d="M35.916 42.707c-.414-.288-1.385.157-3.916.157-2.526 0-3.5-.445-3.914-.157-.496.35.293 1.924 3.914 1.924 3.623 0 4.414-1.574 3.916-1.924z" style="fill:#8c5f44"/><path d="M28.771 33.46c.123.961-.529 2.098-2.333 2.952-1.146.543-3.534 1.181-6.667-.14-1.403-.593-2.773-2.434-2.649-3.455 1.7-3.2 10.06-3.669 11.65.642z" style="fill:#fff"/><linearGradient id="a" x1="-1210.645" x2="-1210.645" y1="173.639" y2="172.64" gradientTransform="translate(7977.155 -1104.145) scale(6.5701)" gradientUnits="userSpaceOnUse"><stop offset="0" style="stop-color:#a6694a"/><stop offset="1" style="stop-color:#4f2a1e"/></linearGradient><path d="M23.1 30.115a3.284 3.284 0 0 1 3.285 3.28 3.284 3.284 0 0 1-3.285 3.283 3.283 3.283 0 1 1 0-6.563z" style="fill:url(#a)"/><path d="M21.457 33.335c0 2.271 3.285 2.271 3.285 0 0-2.106-3.285-2.106-3.285 0z" style="fill:#1a1626"/><path d="M20.96 32.414c0 .952 1.374.952 1.374 0 0-.879-1.375-.879-1.375 0z" style="fill:#ab968c"/><path d="M28.787 33.585c-1.334-4.28-10.429-3.647-11.665-.769.457-3.686 10.53-4.66 11.665.77z" style="fill:#8c5f44"/><path d="M35.23 33.46c-.123.961.527 2.098 2.333 2.952 1.146.543 3.531 1.181 6.664-.14 1.408-.593 2.775-2.434 2.652-3.455-1.699-3.2-10.06-3.669-11.649.642z" style="fill:#fff"/><linearGradient id="b" x1="-1210.645" x2="-1210.645" y1="173.639" y2="172.64" gradientTransform="translate(7994.886 -1104.145) scale(6.5701)" gradientUnits="userSpaceOnUse"><stop offset="0" style="stop-color:#a6694a"/><stop offset="1" style="stop-color:#4f2a1e"/></linearGradient><path d="M40.827 30.115a3.283 3.283 0 1 1 0 6.563 3.282 3.282 0 1 1 0-6.563z" style="fill:url(#b)"/><path d="M39.187 33.335c0 2.271 3.285 2.271 3.285 0 0-2.106-3.285-2.106-3.285 0z" style="fill:#1a1626"/><path d="M38.686 32.414c0 .952 1.377.952 1.377 0 0-.879-1.377-.879-1.377 0z" style="fill:#ab968c"/><path d="M35.214 33.585c1.331-4.277 10.421-3.665 11.664-.769-.462-3.686-10.528-4.66-11.664.77z" style="fill:#8c5f44"/><path d="m49.273 11.627-3.303 3.997c6.686 4.101 2.945 14.813 5.983 22.617 1.035-7.785 5.87-24.77-2.68-26.614zm-34.679 1.977 3.302 2.021c-6.686 4.101-2.812 14.813-5.849 22.617-1.034-7.786-6.002-22.794 2.547-24.638z" style="fill:#f07918"/><path d="M45.773 14.493c4.247-.016 4.67 6.923 4.67 6.923s1.273-7.902-4.12-7.902l-.55.98zM15.03 17.921c-1.703 4.158-2.305 8.431-2.305 8.431s-.898-2.993 1.246-8.28l1.06-.15z" style="fill:#cf5d00"/><path d="M47.465 12.874c3.32-.345 4.124 5.047 4.124 5.047s.455-6.277-3.76-5.855l-.364.808z" style="fill:#cf5d00"/><path d="M49.271 11.627S44.323 3 31.933 3c-13.45 0-21.93 6.028-22.219 17.7 8.24-8.123 29.941 4.505 39.557-9.073z" style="fill:#ff8d30"/><path d="M49.271 11.627C48.002 7.644 41.256 3 31.933 3c5.167.365 11.978 2.924 12.68 4.541 0 0-7.148-3.852-16.792-2.162 8.843-.402 14.681 5.22 12.196 5.25-2.42.03-11.41.332-16.745 3.621 3.431-.232 10.206 1.614 9.898 1.733-6.83 2.643-20.54-3.643-23.357 4.714 10.588-9.07 30.788 5.54 39.458-9.07z" style="fill:#f07918"/><path d="M49.271 11.627c-7.068 16.71-38.835-1.977-38.096 12.016C7.932 7.586 38.816 27.39 49.271 11.627z" style="fill:#cf5d00"/><path d="M47.336 14.13c-3.36-6.595-14.255-8.967-14.255-8.967s11.39.651 15.141 8.084l-.886.883zm-1.726 1.494c-3.129-2.93-18.22-1.898-18.22-1.898s11.001-3.319 19.415.941l-1.195.957z" style="fill:#cf5d00"/><path d="M10.388 18.155S11.868 6.15 32.503 7.047C15.538 9.4 10.388 18.155 10.388 18.155z" style="fill:#f07918"/><path d="M11.664 17.466s8.175-10.699 26.123-8c-14.975-.438-26.123 8-26.123 8zm-.449-3.739S20.19 3.634 34.902 3.804c-17-2.26-23.687 9.923-23.687 9.923z" style="fill:#ff9b4a"/><path d="M32 49.012c-3.262-.961-8.102.457-8.102.457 1.844 2.003 3.192 4.609 8.102 4.609 5.625 0 6.582-2.957 8.102-4.61 0 0-4.84-1.421-8.102-.456z" style="fill:#8c5f44"/><path d="M25.113 49.809c3.422 2.87 10.332 2.886 13.774 0-3.645.156-10.102.156-13.774 0z" style="fill:#fff"/></svg>