<svg xmlns="http://www.w3.org/2000/svg" xml:space="preserve" style="enable-background:new 0 0 64 64" viewBox="0 0 64 64"><path d="M26.34 6.45c.35-.376.91-.927 1.564-1.094-1.39-.178-2.91.115-4.032.975A1.283 1.283 0 0 1 23.636 5c-1.583 1.015-1.8 2.073-1.8 2.073-.539-.602-.648-1.45-.648-1.45s-1.691 1.243-1.279 2.781c-1.661-.432-2.942.385-2.942.385s.815.208 1.251.765c2.606.33 8.245-1.586 8.122-3.103z" style="fill:#e6c465"/><path d="M10.668 31.057c2.656.324 4.572 9.296 2.904 11.664-.234.332-1.603.86-2.617-1.23-.562-1.157-2.183-2.124-2.685-4.51-.645-3.06-.242-6.247 2.398-5.924z" style="fill:#ebc199"/><path d="M10.74 32.777c.694.22 1.45 1.285 1.86 3.055-2.422-.525-1.817 3.545.287 3.621-.018.41-.045.832-.096 1.274-1.014-1.485-2.043-.89-3.064-3.1-.92-1.992-.701-5.393 1.013-4.85z" style="fill:#c99b71"/><path d="M53.33 31.057c-2.654.324-4.572 9.296-2.9 11.664.232.332 1.601.86 2.617-1.23.562-1.157 2.181-2.124 2.683-4.51.645-3.06.243-6.249-2.4-5.924z" style="fill:#ebc199"/><path d="M51.402 35.826c.41-1.765 1.164-2.83 1.856-3.049 1.716-.545 1.935 2.858 1.015 4.85-1.02 2.21-2.05 1.615-3.064 3.1-.05-.444-.078-.866-.096-1.276 2.082-.1 2.68-4.119.29-3.625z" style="fill:#c99b71"/><path d="M32.002 8C17.49 8 10.498 18.979 11.375 34.244c.176 3.07 2.078 10.088 3.877 13.682C18.428 54.27 26.717 59 32 59c5.28 0 13.578-4.73 16.75-11.074 1.8-3.594 3.703-10.611 3.877-13.682C53.506 18.98 46.514 8 32.002 8z" style="fill:#ebc199"/><path d="M35.383 42.822c-.358-.25-1.2.135-3.383.135s-3.025-.385-3.385-.135c-.427.303.256 1.666 3.385 1.666s3.815-1.363 3.383-1.666zM32 47.688c-3.272-.963-8.121.457-8.121.457 1.846 2.011 3.2 4.619 8.121 4.619 5.637 0 6.598-2.963 8.123-4.62 0 0-4.853-1.423-8.123-.456z" style="fill:#c99b71"/><path d="M25.096 48.484c3.431 2.88 10.357 2.897 13.808 0-3.656.157-10.125.159-13.808 0zm3.775-13.131c.12.932-.512 2.036-2.262 2.862-1.111.527-3.424 1.146-6.46-.135-1.362-.574-2.688-2.363-2.569-3.351 1.647-3.104 9.75-3.56 11.291.624z" style="fill:#fff"/><g transform="translate(2.699 .332)"><linearGradient id="a" x1="-427.565" x2="-427.565" y1="476.077" y2="477.046" gradientTransform="matrix(6.5701 0 0 -6.5701 2829.816 3166.013)" gradientUnits="userSpaceOnUse"><stop offset="0" style="stop-color:#a6694a"/><stop offset="1" style="stop-color:#4f2a1e"/></linearGradient><path d="M20.674 31.775a3.184 3.184 0 1 1-.001 6.369 3.184 3.184 0 0 1 .001-6.369z" style="fill:url(#a)"/><path d="M19.082 34.9c0 2.204 3.184 2.204 3.184 0 0-2.045-3.184-2.045-3.184 0z" style="fill:#1a1626"/><path d="M18.6 34.01c0 .922 1.334.922 1.334 0 0-.858-1.334-.858-1.334 0z" style="fill:#ab968c"/></g><path d="M28.887 35.477c-1.293-4.157-10.108-3.543-11.307-.748.443-3.577 10.205-4.522 11.307.748z" style="fill:#c99b71"/><path d="M35.13 35.353c-.12.932.513 2.036 2.263 2.862 1.109.527 3.421 1.146 6.46-.135 1.362-.574 2.688-2.363 2.569-3.351-1.645-3.104-9.752-3.56-11.291.624z" style="fill:#fff"/><g transform="translate(2.33 .332)"><linearGradient id="b" x1="-427.278" x2="-427.278" y1="476.077" y2="477.046" gradientTransform="matrix(6.5701 0 0 -6.5701 2845.487 3166.013)" gradientUnits="userSpaceOnUse"><stop offset="0" style="stop-color:#a6694a"/><stop offset="1" style="stop-color:#4f2a1e"/></linearGradient><path d="M38.227 31.775a3.185 3.185 0 1 1 .002 6.37 3.185 3.185 0 0 1-.002-6.37z" style="fill:url(#b)"/><path d="M36.638 34.9c0 2.204 3.183 2.204 3.183 0 0-2.045-3.183-2.045-3.183 0z" style="fill:#1a1626"/><path d="M36.153 34.01c0 .922 1.334.922 1.334 0 0-.858-1.334-.858-1.334 0z" style="fill:#ab968c"/></g><path d="M35.115 35.477c1.291-4.155 10.1-3.559 11.307-.748-.447-3.577-10.205-4.522-11.307.748z" style="fill:#c99b71"/><path d="M46.627 30.393c-2.738-1.729-8.254-2.23-10.414-1.346-.463.168-.31 1.615.074 1.51 2.977-.891 7.604-.557 10.166.886.344.19.592-.808.174-1.05zm-29.256 0c2.74-1.729 8.254-2.23 10.416-1.346.461.168.31 1.615-.074 1.51-2.983-.891-7.602-.557-10.17.888-.34.188-.588-.81-.172-1.052z" style="fill:#ab8c57"/><path d="M23.373 7.695C12.887 8.17 4.288 23.778 12.266 39.483c0 0 .638-13.69 6.418-17.777-.314 2.584-1.003 4.408-1.003 4.408s5.67-.896 10.665-4.084c-.582 2.854-2.145 4.896-2.145 4.896s10.314-1.437 13.376-6.292c0 0 2.02 4.25 7.02 7.313 0 0 .313-3.187-.376-5.442 4.902 4.822 5.478 16.957 5.478 16.957C62.04 16.778 41.79-2.222 23.373 7.695z" style="fill:#e6c465"/><path d="M24.226 8.171c-.313 1.7-.25 3.513-.25 3.513s-1.009-1.757-.813-3.187c-2.187 1.687-5.187 5.031-5.187 5.031s1.426-2.505 3.02-4.333c-10.54 3.083-12.624 16.125-10.09 23.083 1.221-6.483 4.612-11.675 10.393-15.508 0 0-.23 4.712-2.299 7.29 6.113-1.052 11.32-5.855 11.195-10.688 1.121 4.49.927 8.344-1.601 11.906 5.179-.531 11.071-5.203 11.304-9.437 1.064 4.234 2.333 7.175 5.672 9.427 0-4.584-2.261-8.874-2.261-8.874s6.699 4.266 9.316 17.092C56.872 9.872 37.382 2.153 25.445 7.184c2.812.125 4.343.753 4.343.753s-3.156-.284-5.562.234z" style="fill:#f2d785"/><path d="m45.484 20.044.892 3.058s4.19 5.553 5.323 16.36c.524-11.682-6.215-19.418-6.215-19.418zm-5.671.484-.23.667s1.803 4.479 7.015 6.752c-4.223-2.669-6.785-7.419-6.785-7.419z" style="fill:#d1a936"/><path d="M40.256 17.968c.838 7.81-14.055 8.958-14.055 8.958s12.955-2.539 14.055-8.958zm-10.634 2.468c-2.584 4.884-11.941 5.678-11.941 5.678s7.232-1.67 11.94-5.678zm-10.087.251c-6.67 7.812-7.27 18.796-7.27 18.796s-1.76-11.796 7.27-18.796z" style="fill:#d1a936"/><path d="M52.625 33.486c.806-6.56-4.64-16.437-4.64-16.437s7.949 6.53 4.64 16.437z" style="fill:#e6c465"/><path d="M51.245 19.365C42.57 3.84 27.926 6.788 27.926 6.788s17.05-4.572 23.319 12.577zM20.802 22.98c6.424-5.17 5.4-12.42 5.4-12.42s3.305 7.812-5.4 12.42z" style="fill:#fae29b"/><path d="M43.945 21.763c-1.617-5.393-5.118-11.204-5.118-11.204s4.75 3.749 5.118 11.204zm5.881 1.217c-2.282-5.146-7.131-11.155-7.131-11.155s5.83 3.806 7.131 11.156zM17.772 11.825c-5.346 6.45-6.643 14.389-6.643 14.389s-.87-9.754 6.643-14.39zM30.99 23.912c4.104-6.679.679-13.153.679-13.153s5.44 6.292-.679 13.153z" style="fill:#fae29b"/><path d="M28.594 25.278c9.538-2.83 7.977-12.064 7.977-12.064s3.296 11.939-7.977 12.064z" style="fill:#e6c465"/></svg>