<svg xmlns="http://www.w3.org/2000/svg" xml:space="preserve" style="enable-background:new 0 0 64 64" viewBox="0 0 64 64"><path d="M49.64 28.035c.735-1.437 2.797-1.437 2.797-1.437.985 3.015 1.541 8.406 1.551 9.144.009.72.682 2.729.47 3.223-.896 2.094-.81 2.357-1.908 3.135-.832.59-.572-.166-.195-.565.584-.617.955-2.037.19-2.168-.098 1.582-1.144 1.881-1.067 1.295.202-1.513 0-2.431.682-3.246.275-.328.295-2.396-.975-5.187-.77-1.698-1.216-2.819-1.545-4.194zm-13.726.051c-.55-1.517-2.597-1.773-2.597-1.773-.097 1.029-.806 2.292-1.095 3.304-.459 1.604-.753 4.271-1.675 6.61-.176.444.892 2.874 1.084 2.314 1.69-4.908 3.228-6.595 4.283-10.455z" style="fill:#f3cca8"/><path d="M31.632 38.541c.005-1.147-.99-2.56-.99-2.56-.098 1.028-.065 6.42.99 2.56z" style="fill:#deb38a"/><path d="M46.281 17.874c0 2.925-6.563 2.92-6.563-.005l.59-.212h5.346l.627.217z" style="fill:#2b998d"/><path d="M45.75 17.906c0 2.175-5.5 2.175-5.5 0V15.5h5.5v2.406z" style="fill:#f3cca8"/><path d="M37.39 33.957h11.217c.979 5.166.256 12.303 1.489 24.896.156 1.586-5.655 1.596-5.604 0 .242-7.345-.445-12.937-.937-17.416-.038-.333-1.073-.333-1.11 0-.492 4.48-1.182 10.07-.94 17.417.053 1.595-5.76 1.585-5.603 0 1.232-12.594.51-19.73 1.488-24.897z" style="fill:#2b4f87"/><path d="M35.963 19.848c.906-1.135 4.634-2.271 4.634-2.271H45.4s3.73 1.136 4.635 2.27c.793.993 2.32 5.817 2.658 6.983-.045.055-1.226.112-3.287 1.702 0 0-.64-1.934-.89-2.448-.588 3.815.296 7.45.091 7.873-.584 1.213-10.625 1.227-11.217 0-.205-.424.68-4.058.094-7.873-.252.514-1.4 2.526-1.4 2.526-1.847-1.834-3.012-2.04-3.05-2.098.48-1.115 2.136-5.672 2.929-6.664z" style="fill:#3ab0a2"/><path d="M50.353 61.601c-.183.453-5.761.637-5.97-.084-.809-2.793 6.88-2.144 5.97.084z" style="fill:#6e8189"/><path d="M50.273 61.053c-.04.392-5.834.597-5.896 0-.496-4.752 6.35-4.356 5.896 0z" style="fill:#99a8ae"/><path d="M45.117 58.227c.644-1.102 3.703-1.096 4.344 0 .117.19.316.714-.457.285.767.601.767 1.127 0 .677.773.579.574.944.457.897-1.176-.582-3.166-.582-4.344 0-.12.047-.316-.318.457-.897-.768.45-.768-.076 0-.677-.773.43-.576-.094-.457-.285z" style="fill:#1a1626"/><path d="M35.644 61.601c.184.453 5.762.637 5.97-.084.81-2.793-6.88-2.144-5.97.084z" style="fill:#6e8189"/><path d="M35.724 61.053c.041.392 5.834.597 5.897 0 .496-4.752-6.348-4.356-5.897 0z" style="fill:#99a8ae"/><path d="M40.88 58.227c-.644-1.102-3.7-1.096-4.343 0-.117.19-.316.714.457.285-.768.601-.768 1.127 0 .677-.773.579-.574.944-.457.897 1.178-.582 3.166-.582 4.344 0 .119.047.316-.318-.457-.897.767.45.767-.076 0-.677.773.43.576-.094.457-.285z" style="fill:#1a1626"/><path d="M46.281 17.875c0 2.926-6.563 2.92-6.563-.006l.59-.21h5.346l.627.216z" style="fill:#2b998d"/><path d="M45.75 17.907c0 2.175-5.5 2.175-5.5 0V15.5h5.5v2.407z" style="fill:#f3cca8"/><path d="M49.056 9.167c-.938.113-1.615 3.25-1.024 4.078.082.115.565.3.923-.43.199-.405.771-.743.949-1.578.227-1.07.085-2.183-.848-2.07zm-12.114 0c.938.113 1.615 3.25 1.024 4.078-.082.115-.565.3-.924-.43-.198-.405-.77-.743-.948-1.578-.228-1.07-.085-2.183.848-2.07z" style="fill:#ffd8b4"/><path d="M49.03 9.768c-.244.076-.511.45-.656 1.068.855-.183.642 1.24-.102 1.266.008.143.017.29.035.445.357-.519.721-.31 1.082-1.084.325-.696.248-1.885-.358-1.695zm-11.407 1.067c-.145-.618-.411-.99-.656-1.068-.605-.19-.683 1-.358 1.696.36.773.724.565 1.083 1.084.017-.155.027-.302.033-.446-.735-.034-.946-1.44-.102-1.266z" style="fill:#deb38a"/><path d="M42.999 3.135c-4.063 0-6.02 3.07-5.776 7.34.05.86.583 3.661 1.086 4.667.515 1.028 2.238 2.614 3.293 2.942.667.207 2.127.207 2.793 0 1.056-.328 2.78-1.914 3.294-2.942.504-1.006 1.037-3.807 1.085-4.667.246-4.27-1.711-7.34-5.775-7.34z" style="fill:#ffd8b4"/><path d="M47.413 8.854c-.929-.493-2.707-.517-3.37-.173-.142.065-.048.531.072.487.922-.365 2.412-.373 3.276.031.115.053.163-.277.022-.345zm-8.828 0c.929-.493 2.706-.517 3.37-.173.141.065.048.531-.072.487-.924-.365-2.412-.373-3.277.031-.114.053-.162-.277-.021-.345z" style="fill:#826d58"/><path d="M44.095 13.117c-.116-.08-.387.044-1.096.044-.707 0-.98-.124-1.096-.044-.139.098.082.54 1.096.54s1.236-.442 1.096-.54z" style="fill:#deb38a"/><path d="M42.095 10.528c.034.27-.148.588-.653.827-.321.152-.99.33-1.867-.04-.393-.165-.777-.68-.742-.967.476-.896 2.817-1.027 3.262.18z" style="fill:#fff"/><linearGradient id="a" x1="-1207.995" x2="-1207.995" y1="169.796" y2="169.516" gradientTransform="translate(7977.155 -1104.145) scale(6.5701)" gradientUnits="userSpaceOnUse"><stop offset="0" style="stop-color:#a6694a"/><stop offset="1" style="stop-color:#4f2a1e"/></linearGradient><path d="M40.507 9.592a.92.92 0 1 1 0 1.839.92.92 0 0 1 0-1.84z" style="fill:url(#a)"/><path d="M40.047 10.493c0 .636.92.636.92 0 0-.59-.92-.59-.92 0z" style="fill:#1a1626"/><path d="M39.907 10.235c0 .267.385.267.385 0 0-.246-.385-.246-.385 0z" style="fill:#ab968c"/><path d="M42.1 10.563c-.374-1.198-2.92-1.02-3.267-.215.128-1.032 2.948-1.305 3.266.215z" style="fill:#deb38a"/><path d="M43.903 10.528c-.034.27.148.588.653.827.321.152.99.33 1.866-.04.395-.165.777-.68.743-.967-.476-.896-2.817-1.027-3.262.18z" style="fill:#fff"/><linearGradient id="b" x1="-1209.938" x2="-1209.938" y1="169.796" y2="169.516" gradientTransform="translate(7994.886 -1104.145) scale(6.5701)" gradientUnits="userSpaceOnUse"><stop offset="0" style="stop-color:#a6694a"/><stop offset="1" style="stop-color:#4f2a1e"/></linearGradient><path d="M45.47 9.592a.92.92 0 1 1 .002 1.838.92.92 0 0 1-.002-1.838z" style="fill:url(#b)"/><path d="M45.011 10.493c0 .636.92.636.92 0 0-.59-.92-.59-.92 0z" style="fill:#1a1626"/><path d="M44.87 10.235c0 .267.386.267.386 0 0-.246-.385-.246-.385 0z" style="fill:#ab968c"/><path d="M43.899 10.563c.372-1.197 2.918-1.026 3.266-.215-.13-1.032-2.948-1.305-3.266.215z" style="fill:#deb38a"/><path d="m47.835 4.415-.925 1.12c1.872 1.148.825 4.147 1.676 6.332.29-2.18 1.643-6.936-.75-7.452zm-9.71.554.925.566c-1.872 1.148-.788 4.147-1.638 6.332-.29-2.18-1.68-6.382.713-6.898z" style="fill:#403429"/><path d="M46.855 5.218c1.19-.005 1.308 1.938 1.308 1.938s.356-2.213-1.154-2.213l-.154.275zm-8.608.959c-.476 1.165-.645 2.361-.645 2.361s-.251-.838.349-2.319l.296-.042z" style="fill:#2e2319"/><path d="M47.329 4.764c.93-.096 1.155 1.413 1.155 1.413s.127-1.757-1.053-1.639l-.102.226z" style="fill:#2e2319"/><path d="M47.835 4.415S46.449 2 42.98 2c-3.766 0-6.14 1.687-6.221 4.955 2.307-2.274 8.383 1.262 11.076-2.54z" style="fill:#4f4236"/><path d="M47.835 4.415C47.479 3.3 45.59 2 42.98 2c1.447.102 3.354.818 3.55 1.271 0 0-2.001-1.078-4.701-.605 2.476-.113 4.11 1.461 3.415 1.47-.678.008-3.195.093-4.689 1.014.96-.065 2.858.451 2.771.485-1.912.74-5.751-1.02-6.54 1.32 2.965-2.54 8.621 1.55 11.049-2.54z" style="fill:#403429"/><path d="M47.835 4.415c-1.98 4.679-10.874-.553-10.667 3.365-.908-4.496 7.74 1.049 10.667-3.365z" style="fill:#2e2319"/><path d="M47.293 5.116c-.941-1.847-3.991-2.51-3.991-2.51s3.189.181 4.239 2.263l-.248.247zm-.483.418c-.877-.82-5.102-.531-5.102-.531s3.08-.93 5.436.263l-.334.268z" style="fill:#2e2319"/><path d="M36.948 6.243s.414-3.361 6.192-3.11c-4.75.658-6.192 3.11-6.192 3.11z" style="fill:#403429"/><path d="M37.305 6.05s2.289-2.996 7.314-2.24c-4.193-.123-7.314 2.24-7.314 2.24zm-.125-1.047s2.512-2.826 6.631-2.778c-4.76-.633-6.632 2.778-6.632 2.778z" style="fill:#635547"/><path d="M42.999 14.883c-.913-.27-2.269.128-2.269.128.517.56.894 1.29 2.269 1.29 1.575 0 1.843-.828 2.268-1.29 0 0-1.355-.398-2.268-.128z" style="fill:#deb38a"/><path d="M41.07 15.106c.959.804 2.894.808 3.857 0-1.02.043-2.828.043-3.856 0z" style="fill:#fff"/><radialGradient id="c" cx="27.806" cy="19" r="10.853" gradientTransform="translate(-8.211)" gradientUnits="userSpaceOnUse"><stop offset="0" style="stop-color:#382415"/><stop offset=".294" style="stop-color:#4c311d"/><stop offset=".732" style="stop-color:#654226"/><stop offset="1" style="stop-color:#6e482a"/></radialGradient><path d="M22.404 18.716c5.667-2.266 5.1-9.067 5.1-9.067H11.639s-.567 6.8 5.1 9.067c0 0 1.133.284 2.833.284 1.7 0 2.833-.284 2.833-.284z" style="fill:url(#c)"/><path d="M30.357 35.194c-.101-.731-1.077-5.836-2.269-8.775-.834-2.054-1.913-7.705-3.444-7.705l-.16 3.967s.923 4.104 1.376 5.495c.438 1.345.792 2.397 1.769 3.985 1.605 2.61 1.308 4.533 1.124 4.921-.675 1.426-.097 1.785.169 3.223.107.582.734 0 .456-1.336.34.211.84 1.148 1.231 1.673.136.182 1.105-.771 1.023-2.1-.066-1.064-1.175-2.638-1.275-3.349zm-20.412.549c.01-.717.315-5.802 1.09-8.87.542-2.148 1.943-8.156 3.474-8.156l.15 3.964s-.85 4.306-1.148 5.737a21.194 21.194 0 0 1-1.13 3.81c-1.103 2.79-1.086 4.858-.847 5.189.594.812.418 1.73.592 3.244.068.588-.842.289-.926-1.295-.666.133-.344 1.55.164 2.168.328.398.555 1.154-.169.566-.955-.78-.88-1.04-1.659-3.135-.184-.494.4-2.506.41-3.222z" style="fill:#a3765a"/><path d="M14.376 61.52c.031.576 4.209.729 4.324-.076.395-2.766-4.5-3.236-4.324.076z" style="fill:#732eb0"/><path d="M14.421 61.174c0 .582 4.283.762 4.283 0 0-.814-.496-1.57-.533-2.295-.117-2.285-2.348-1.66-2.87-.99-.571.733-.88 1.914-.88 3.285z" style="fill:#8e3ed6"/><path d="M17.825 58.206c.063.609-2.33.652-2.332-.084.149-3.127-2.195-12.579.254-15.059.498-.506 2.498 0 2.498 0 .762 5.424-.955 9.885-.42 15.143z" style="fill:#a3765a"/><path d="M24.769 61.52c-.03.576-4.21.729-4.325-.076-.394-2.766 4.5-3.236 4.325.076z" style="fill:#732eb0"/><path d="M24.726 61.174c0 .582-4.285.762-4.285 0 0-.814.496-1.57.533-2.295.119-2.285 2.347-1.66 2.87-.99.571.733.882 1.914.882 3.285z" style="fill:#8e3ed6"/><path d="M21.32 58.206c-.063.609 2.33.652 2.333-.084-.15-3.127 2.194-12.577-.253-15.059-.498-.506-2.5 0-2.5 0-.76 5.424.955 9.885.42 15.143z" style="fill:#a3765a"/><path d="m24.644 18.714-1.62-.522-6.908.006-1.607.52s-.6 3.663-.415 5.146c.303 2.401 1.032 3.143 1.057 4.996.019 1.379-2.595 14.592-2.595 14.592 0 3.185 14.021 3.185 14.021 0 0 0-2.614-13.201-2.596-14.567.022-1.848.752-2.613 1.056-5.021.185-1.483-.393-5.15-.393-5.15z" style="fill:#8e3ed6"/><path d="M17.013 17.881v-2.415h5.105v2.406l.906.32c0 2.26-2.957 3.614-3.459 3.614-.5 0-3.449-1.353-3.449-3.608l.897-.317z" style="fill:#a3765a"/><path d="M29.13 38.565c-.061.3.097.518.096.553-.012.404.312.593.318.621.082.405.428.421.433.452.044.28.425.323.524.3.48-.114 1.135-1.012.546-1.2 0 0 .165-.558-.264-.634 0 0 .17-.655-.423-.518 0 0 .11-.52-.366-.386-.271.077-.474.688-.863.812z" style="fill:#deb38a"/><path d="M29.13 38.565c-.061.3.142.506.141.54-.012.405.28.576.286.604.083.405.38.507.385.538.044.28.466.287.56.244.404-.189 1.062-.941.487-1.108 0 0 .16-.557-.269-.634 0 0 .165-.641-.427-.504 0 0 .102-.574-.3-.43-.28.101-.471.75-.862.75z" style="fill:#f3cca8"/><path d="M30.36 38.14c-.288.37-.783.817-.783.817s.577-.288.783-.818zm.423.517c-.288.37-.843.83-.843.83s.637-.3.843-.83zm.265.633c-.289.37-.698.738-.698.738s.492-.208.698-.738z" style="fill:#deb38a"/><path d="M19.571 2.85c-4.111 0-6.092 3.348-5.845 7.654.051.865.292 2.113.59 3.183.616 2.224 3.87 4.463 5.255 4.463 1.386 0 4.64-2.24 5.257-4.463.297-1.07.538-2.318.589-3.183.246-4.306-1.733-7.654-5.846-7.654z" style="fill:#b88a6f"/><path d="M19.57 14.654c-.963-.423-.97-.017-2.458.083.558.634.97 1.45 2.458 1.45 1.71 0 1.998-.927 2.46-1.45-1.488-.1-1.495-.507-2.46-.083z" style="fill:#a35a3b"/><path d="M17.559 14.895c.97 1.01 3.066.997 4.025 0-1.496.161-2.53.161-4.025 0z" style="fill:#fff"/><path d="M23.94 9.071c-.893-.532-2.495-.598-3.129-.235-.135.074-.099.458.018.41.904-.376 2.282-.395 3.13.04.114.058.117-.137-.019-.215zm-8.738 0c.893-.532 2.495-.598 3.13-.235.135.074.099.458-.018.41-.905-.376-2.281-.396-3.13.04-.115.058-.117-.137.018-.215z" style="fill:#5e4533"/><path d="M20.496 13.288c-.098-.069-.328.037-.925.037s-.826-.106-.924-.037c-.117.083.069.455.924.455s1.042-.372.925-.455z" style="fill:#8c5f44"/><path d="M18.657 10.687c.035.271-.15.594-.662.836-.325.154-1 .335-1.888-.04-.398-.168-.786-.69-.751-.98.481-.907 2.85-1.04 3.3.184z" style="fill:#fff"/><linearGradient id="d" x1="-425.828" x2="-425.828" y1="480.499" y2="480.783" gradientTransform="matrix(6.5701 0 0 -6.5701 2814.782 3168.527)" gradientUnits="userSpaceOnUse"><stop offset="0" style="stop-color:#a6694a"/><stop offset="1" style="stop-color:#4f2a1e"/></linearGradient><path d="M17.05 9.737a.93.93 0 1 1-.001 1.862.93.93 0 0 1 0-1.862z" style="fill:url(#d)"/><path d="M16.584 10.651c0 .644.931.644.931 0 0-.598-.93-.598-.93 0z" style="fill:#1a1626"/><path d="M16.443 10.39c0 .27.39.27.39 0 0-.25-.39-.25-.39 0z" style="fill:#ab968c"/><path d="M18.661 10.723c-.378-1.215-2.954-1.036-3.305-.22.13-1.045 2.983-1.321 3.305.22z" style="fill:#45332c"/><path d="M20.486 10.687c-.035.271.15.594.661.836.325.154 1.001.335 1.89-.04.398-.168.785-.69.75-.98-.48-.907-2.85-1.04-3.3.184z" style="fill:#fff"/><linearGradient id="e" x1="-427.762" x2="-427.762" y1="480.499" y2="480.783" gradientTransform="matrix(6.5701 0 0 -6.5701 2832.512 3168.527)" gradientUnits="userSpaceOnUse"><stop offset="0" style="stop-color:#a6694a"/><stop offset="1" style="stop-color:#4f2a1e"/></linearGradient><path d="M22.073 9.737a.93.93 0 1 1 0 1.862.93.93 0 0 1 0-1.862z" style="fill:url(#e)"/><path d="M21.608 10.651c0 .644.93.644.93 0 0-.598-.93-.598-.93 0z" style="fill:#1a1626"/><path d="M21.466 10.39c0 .27.39.27.39 0 0-.25-.39-.25-.39 0z" style="fill:#ab968c"/><path d="M20.482 10.723c.378-1.215 2.953-1.04 3.305-.22-.13-1.045-2.983-1.321-3.305.22z" style="fill:#45332c"/><path d="M14.471 9.65c2.817-1.63 6.005-2.015 8.217-3.967-.283.85 1.216 1.922 1.983 3.967 1.095 2.92 1.688 5.87-1.597 8.558l.551.178c2.711-1.028 4.446-3.755 4.446-5.91 0-6.132-2.369-9.459-3.872-9.025.47-.67-3.508-2.086-7.262-1.13-3.751.86-5.866 4.968-5.866 10.154 0 2.167 1.537 4.912 4.415 5.927l.583-.19c-3.307-2.671-2.667-5.356-1.598-8.562z" style="fill:#805837"/><path d="M24.199 3.45c.451-.54-1.559-1.44-4.09-1.44 3.107.245 4.166 1.93 3.303 1.484-.918-.475-3.165-1.164-6.175.2 3.293-.7 6.322.065 5.85.461-.743.626-4.02-1.078-8.61 3.112-.633.577 2.753-2.215 7.297-2.303-.632 1.33-8.714 3.436-9.968 6.74 2.104-3.003 10.976-4.118 12.393-8.253zm2.058 4.813s1.97 5.345-1.332 9.05c4.73-3.705 1.332-9.05 1.332-9.05z" style="fill:#6e482a"/><path d="M14.648 9.496s-.805.147-1.464.862c-1.378 4.866 1.915 6.956 1.915 6.956s-2.612-2.68-.451-7.818z" style="fill:#6e482a"/><path d="M12.588 10.82s-.379.149-.84 1.096c-.43 2.967 1.654 4.479 1.654 4.479s-1.953-2.387-.814-5.574zm14.728-3.784C25.88 2.565 24.2 3.451 24.2 3.451s-.809 1.514-1.452 2.045c-1.163 1.429 2.836 2.654 2.732 8.842C26.536 9.94 23.596 7 23.549 6.216c-.054-.89.686-2.258 1.262-2.422.626-.179 2.059 2.03 2.505 3.242z" style="fill:#6e482a"/><path d="M11.747 11.916C14.023 8.203 22.448 8.454 24.2 3.451c-2.951 4.564-11.887 5.325-12.452 8.465z" style="fill:#52351f"/><path d="M24.118 5.449s1.866 4.002 2.173 7.402c.508-5.228-2.173-7.402-2.173-7.402zM14.07 8.859s2.716-1.763 6.115-3.217c-3.639.218-6.115 3.217-6.115 3.217zm-1.676-.36s2.133-3.41 6.025-4.4c-5.414-.355-6.025 4.4-6.025 4.4z" style="fill:#916643"/></svg>