<svg xmlns="http://www.w3.org/2000/svg" xml:space="preserve" style="enable-background:new 0 0 64 64" viewBox="0 0 64 64"><linearGradient id="a" x1="23.756" x2="23.756" y1="64" y2="28.094" gradientUnits="userSpaceOnUse"><stop offset="0" style="stop-color:#d1d8de"/><stop offset=".056" style="stop-color:#d6dde3"/><stop offset=".315" style="stop-color:#e6edf3"/><stop offset=".607" style="stop-color:#eff6fc"/><stop offset="1" style="stop-color:#f2f9ff"/></linearGradient><path d="m29.628 28.094-11.882.02-11.141 3.881 3.34 29.258C10.228 63.254 17.057 64 23.689 64s14.48-.744 14.767-2.744l2.451-29.27-11.279-3.892z" style="fill:url(#a)"/><linearGradient id="b" x1="-1.16" x2="16" y1="39.644" y2="56.804" gradientUnits="userSpaceOnUse"><stop offset="0" style="stop-color:#f2f9ff"/><stop offset="1" style="stop-color:#d1d8de"/></linearGradient><path d="M6.605 31.995C4.245 33.026 3.5 43.924 3.5 59.535c0 2.603 7.133 2.636 7.133 2.636.77-10.312-1.728-31.18-4.028-30.176z" style="fill:url(#b)"/><path d="M52.98 25.183c-.096-1.065 1.927-.997 2.193.41.12.636 4.144 6.848 3.797 7.855-.989 2.865-3.332 1.818-4.24 6.927-.13.734-4.898-2.14-4.62-2.95 1.34-3.913.872-4.489 1.797-6.354 1.102-2.222 1.284-3.564 1.074-5.888z" style="fill:#21bebf"/><linearGradient id="c" x1="38.884" x2="47.947" y1="51.744" y2="36.046" gradientUnits="userSpaceOnUse"><stop offset="0" style="stop-color:#d1d8de"/><stop offset="1" style="stop-color:#f2f9ff"/></linearGradient><path d="M46.099 55.583c-2.007 0-5.836-4.323-6.83-7.208-.482-1.394-1.152-12.766 1.638-16.388 1.34.52 4.868 11.976 4.868 11.976s2.177 5.557.324 11.62z" style="fill:url(#c)"/><linearGradient id="d" x1="53.455" x2="45.598" y1="51.973" y2="38.365" gradientUnits="userSpaceOnUse"><stop offset="0" style="stop-color:#d1d8de"/><stop offset="1" style="stop-color:#f2f9ff"/></linearGradient><path d="M55.298 38.816c-1.815 5.996-3.638 16.767-9.2 16.767-2.344-6.304-.323-11.62-.323-11.62s3.708-6.866 4.14-8.09c1.763 3.008 5.383 2.943 5.383 2.943z" style="fill:url(#d)"/><path d="M54.45 16.695a.23.23 0 0 0-.191.366c.13.188.245.45.245.789v14.94c0 2.109 3.699 2.11 3.699 0V17.85c0-.34.115-.601.246-.79a.23.23 0 0 0-.192-.365H54.45z" style="fill:#cae8f0"/><linearGradient id="e" x1="54.716" x2="57.99" y1="27.507" y2="27.507" gradientUnits="userSpaceOnUse"><stop offset="0" style="stop-color:#db59ff"/><stop offset="1" style="stop-color:#7f00ad"/></linearGradient><path d="M57.63 21.088c-.204-.324-.709-.243-.858.11-.14-.261-.548-.265-.699-.012-.218-.403-.819-.32-.985-.032-.14-.109-.372-.036-.372.166 0 0 .004 7.865.004 11.393 0 1.89 3.267 1.89 3.267 0l.003-11.393c0-.236-.2-.295-.36-.232z" style="fill:url(#e)"/><path d="M57.419 24.425c-.38-.266-.858.202-.585.571-.009-.304.273-.58.584-.571zm-1.354-.772c-.379-.266-.858.202-.585.572-.008-.305.273-.58.585-.572zm1.344-.666c-.182-.127-.411.097-.28.274-.005-.146.13-.278.28-.274zm-.933-1.9c-.182-.128-.41.097-.28.274-.005-.146.13-.278.28-.274zm-.753-.058c-.313-.22-.71.167-.484.473a.481.481 0 0 1 .484-.473zm0 1.079c-.222-.156-.502.118-.342.334a.34.34 0 0 1 .342-.334zm1.802-.494c-.222-.156-.502.118-.342.334a.34.34 0 0 1 .342-.334zm-.245-.62c-.221-.155-.501.118-.342.335a.34.34 0 0 1 .342-.335zm-1.689 4.047c-.218-.153-.494.117-.336.33a.335.335 0 0 1 .336-.33z" style="fill:#db59ff"/><path d="M59.597 27.116c1.031.939.46 1.958.46 1.958.803.982.27 2.17.27 2.17.854 2.56-5.294 3.606-4.023 1.237-1.644.17-2.072-1.47-.39-1.897-1.89.281-1.592-1.795-.466-2.008.423-.079.856-.263 1.345-.35-1.926.258-1.605-1.637-.64-2.037 1.068-.44 2.224-.658 2.627-.58.797.15.923 1.151.817 1.507z" style="fill:#21bebf"/><path d="M55.388 27.317c-.12 1.818 2.89.617 3.335.24-1.97.823-3.303.46-3.335-.24zm.745 5.709c-.12 1.818 2.904.517 3.348.14-1.97.823-3.317.56-3.349-.14zm-1.581-3.358c-.12 1.817 3.014.816 4.478-.134-2.934 1.396-4.447.832-4.478.134zm.293 1.959c-.12 1.817 3.094.867 4.558-.084-2.934 1.398-4.526.784-4.558.084z" style="fill:#009596"/><path d="M23.689 64s.871-11.903.173-23.165C23.477 52.097 23.689 64 23.689 64zm17.196-32.042c-2.423 4.064-1.668 15.17-1.668 15.17s-1.808-12.034 1.668-15.17zm4.89 12.005c-2.168 3.485-.72 7.111-.72 7.111s-.473-3.33.72-7.111z" style="fill:#cfd8dd"/><path d="M45.775 43.963c-1.044 2.359.625 4.988.625 4.988s-.646-2.563-.625-4.988z" style="fill:#cfd8dd"/><path d="M34.973 45.044v-3.63c0-.511-.899-.512-.899 0v3.63c0 .248.899.248.899 0z" style="fill:#018bc9"/><path d="M33.676 45.15v-3.63c0-.512-.899-.512-.899 0v3.63c0 .248.899.248.899 0z" style="fill:#c92644"/><path d="M36.924 44.597s.583 6.902 0 7.481c-1.574 1.561-7.326 2.153-8.898.917-.338-.266 0-7.488 0-7.488l8.898-.91z" style="fill:#cfd8dd"/><path d="M36.813 44.597s.567 6.56 0 7.11c-1.53 1.483-7.117 2.045-8.644.871-.329-.252 0-7.116 0-7.116l8.643-.865z" style="fill:#dbe2e6"/><path d="M37.056 42.929a33.51 33.51 0 0 1-9.164.945v2.767a33.506 33.506 0 0 0 9.164-.945v-2.767z" style="fill:#fff"/><path d="M34.407 41.954v2.324c0 .328.233.328.233 0v-2.324c0-.159-.233-.159-.233 0z" style="fill:#1e9dd6"/><path d="M33.11 42.003v2.324c0 .328.233.328.233 0v-2.324c0-.16-.232-.16-.232 0z" style="fill:#d1455f"/><path d="m17.803 30.675 6.06 11.209 6.058-11.21z" style="fill:#018bc9"/><path d="M17.5 30.236c0 5.56 12.723 5.538 12.723-.021l-12.723.021z" style="fill:#0175a8"/><path d="M18.41 27.294V29.9c0 4.353 10.906 4.353 10.906 0v-2.608l-10.906.002z" style="fill:#5e4c3b"/><path d="M34.524 30.48s-3.332-1.81-5.21-2.604c0 0-.751 3.902-5.452 13.222-4.702-9.32-5.453-13.222-5.453-13.222-1.88.793-5.21 2.603-5.21 2.603l3.545 1.479-2.447 2.105 9.565 8.717 9.564-8.718-2.447-2.104 3.545-1.479z" style="fill:#cfd8dd"/><path d="M34.384 29.966s-3.192-1.56-5.07-2.354c0 0-.751 3.902-5.452 13.223-4.702-9.321-5.453-13.223-5.453-13.223-1.88.793-5.07 2.354-5.07 2.354l3.96 1.577-2.856 1.99 9.419 9.247 9.418-9.246-2.856-1.991 3.96-1.577z" style="fill:#fff"/><path d="M10.633 62.17s.81-12.446-.983-20.234c.758 7.036.983 20.235.983 20.235z" style="fill:#cfd8dd"/><path d="M8.457 42.616c.407.522 1.077 1.393 1.498 2.11l.106-.406c-.455-.665-.984-1.27-1.604-1.704z" style="fill:#cfd8dd"/><path d="M35.062 13.253c-1.733.209-2.985 6.009-1.894 7.54.153.213 1.046.556 1.709-.796.367-.748 1.424-1.373 1.753-2.916.42-1.978.158-4.037-1.568-3.828zm-22.399 0c1.734.209 2.986 6.009 1.894 7.54-.153.213-1.045.556-1.71-.796-.365-.748-1.424-1.373-1.752-2.916-.421-1.978-.158-4.037 1.568-3.828z" style="fill:#735c48"/><path d="M35.016 14.363c-.453.143-.947.832-1.214 1.977 1.58-.34 1.186 2.291-.189 2.34.014.265.03.537.064.823.661-.96 1.335-.575 2.001-2.004.6-1.287.458-3.486-.662-3.136zm-21.093 1.973c-.269-1.142-.76-1.83-1.213-1.973-1.12-.35-1.264 1.848-.663 3.136.666 1.429 1.34 1.043 2.003 2.004.032-.286.05-.56.06-.824-1.359-.064-1.749-2.664-.187-2.343z" style="fill:#4a3728"/><path d="M23.862 2.098c-7.512 0-11.131 5.679-10.679 13.574.09 1.588 1.078 6.77 2.008 8.628.953 1.902 4.138 4.834 6.088 5.441 1.234.382 3.934.382 5.165 0 1.952-.607 5.139-3.539 6.09-5.44.933-1.86 1.917-7.04 2.007-8.63.455-7.894-3.164-13.573-10.68-13.573z" style="fill:#735c48"/><path d="M32.025 12.673c-1.718-.91-5.005-.954-6.23-.319-.264.121-.09.983.13.901 1.706-.675 4.46-.69 6.058.058.214.097.302-.513.042-.64zm-16.325 0c1.718-.91 5.005-.954 6.231-.319.262.121.09.983-.131.901-1.71-.675-4.46-.69-6.06.058-.21.097-.299-.513-.04-.64z" style="fill:#302b27"/><path d="M25.89 20.557c-.214-.149-.717.082-2.027.082-1.308 0-1.813-.23-2.027-.082-.257.182.152.997 2.027.997 1.875 0 2.285-.815 2.027-.997z" style="fill:#4a3728"/><path d="M22.19 15.77c.064.497-.273 1.086-1.207 1.528-.593.281-1.83.612-3.452-.073-.726-.306-1.435-1.26-1.371-1.788.88-1.657 5.207-1.9 6.03.332z" style="fill:#fff"/><linearGradient id="f" x1="-1211.23" x2="-1211.23" y1="170.71" y2="170.193" gradientTransform="translate(7977.155 -1104.145) scale(6.5701)" gradientUnits="userSpaceOnUse"><stop offset="0" style="stop-color:#a6694a"/><stop offset="1" style="stop-color:#4f2a1e"/></linearGradient><path d="M19.255 14.038a1.7 1.7 0 1 1 0 3.398 1.7 1.7 0 1 1 0-3.398z" style="fill:url(#f)"/><path d="M18.404 15.705c0 1.176 1.7 1.176 1.7 0 0-1.09-1.7-1.09-1.7 0z" style="fill:#1a1626"/><path d="M18.146 15.228c0 .493.712.493.712 0 0-.455-.712-.455-.712 0z" style="fill:#ab968c"/><path d="M22.199 15.835c-.69-2.216-5.4-1.889-6.04-.399.237-1.908 5.452-2.413 6.04.399z" style="fill:#4a3728"/><path d="M25.535 15.77c-.064.497.273 1.086 1.208 1.528.593.281 1.828.612 3.45-.073.729-.306 1.436-1.26 1.373-1.788-.88-1.657-5.21-1.9-6.031.332z" style="fill:#fff"/><linearGradient id="g" x1="-1212.532" x2="-1212.532" y1="170.71" y2="170.193" gradientTransform="translate(7994.886 -1104.145) scale(6.5701)" gradientUnits="userSpaceOnUse"><stop offset="0" style="stop-color:#a6694a"/><stop offset="1" style="stop-color:#4f2a1e"/></linearGradient><path d="M28.432 14.038a1.7 1.7 0 1 1-1.7 1.698 1.7 1.7 0 0 1 1.7-1.698z" style="fill:url(#g)"/><path d="M27.583 15.705c0 1.176 1.701 1.176 1.701 0 0-1.09-1.7-1.09-1.7 0z" style="fill:#1a1626"/><path d="M27.324 15.228c0 .493.713.493.713 0 0-.455-.713-.455-.713 0z" style="fill:#ab968c"/><path d="M25.526 15.835c.69-2.215 5.396-1.898 6.04-.399-.24-1.908-5.451-2.413-6.04.399z" style="fill:#4a3728"/><path d="m32.805 4.466-1.71 2.07c3.462 2.123 1.525 7.669 3.098 11.71.535-4.031 3.039-12.825-1.388-13.78zM14.85 5.49l1.71 1.046c-3.461 2.124-1.455 7.67-3.028 11.71-.535-4.031-3.107-11.801 1.319-12.756z" style="fill:#382e26"/><path d="M30.993 5.95c2.199-.008 2.417 3.584 2.417 3.584s.66-4.09-2.133-4.09l-.284.506zM15.077 7.725c-.882 2.153-1.194 4.365-1.194 4.365s-.465-1.55.645-4.287l.549-.078z" style="fill:#1a1714"/><path d="M31.87 5.112c1.717-.179 2.134 2.613 2.134 2.613s.236-3.25-1.947-3.031l-.188.418z" style="fill:#1a1714"/><path d="M32.804 4.466S30.242 0 23.828 0c-6.964 0-11.355 3.12-11.504 9.163 4.266-4.205 15.502 2.333 20.48-4.697z" style="fill:#473e35"/><path d="M32.804 4.466C32.147 2.404 28.654 0 23.828 0c2.675.189 6.201 1.514 6.564 2.351 0 0-3.7-1.994-8.693-1.12 4.578-.208 7.6 2.703 6.314 2.719-1.253.015-5.908.172-8.67 1.874 1.777-.12 5.285.836 5.125.898-3.536 1.368-10.634-1.886-12.092 2.44 5.481-4.696 15.94 2.868 20.428-4.696z" style="fill:#382e26"/><path d="M32.804 4.466c-3.66 8.652-20.106-1.023-19.723 6.221-1.68-8.313 14.31 1.94 19.723-6.22z" style="fill:#1a1714"/><path d="M31.802 5.762c-1.74-3.414-7.38-4.642-7.38-4.642s5.897.337 7.839 4.185l-.459.457zm-.893.774c-1.62-1.518-9.434-.983-9.434-.983s5.696-1.718 10.052.487l-.618.496z" style="fill:#1a1714"/><path d="M12.673 7.846s.767-6.215 11.45-5.75c-8.783 1.217-11.45 5.75-11.45 5.75z" style="fill:#382e26"/><path d="M13.334 7.49s4.232-5.54 13.524-4.143C19.107 3.121 13.335 7.49 13.335 7.49zm-.233-1.936S17.748.328 25.365.416c-8.801-1.17-12.263 5.138-12.263 5.138z" style="fill:#574f45"/><path d="M23.862 23.821c-1.688-.497-4.194.237-4.194.237.955 1.037 1.652 2.386 4.194 2.386 2.913 0 3.408-1.53 4.195-2.386 0 0-2.506-.736-4.195-.237z" style="fill:#4a3728"/><path d="M20.297 24.234c1.772 1.486 5.35 1.494 7.13 0-1.886.08-5.229.08-7.13 0z" style="fill:#fff"/><linearGradient id="h" x1="23.864" x2="23.864" y1="19.78" y2="11.89" gradientUnits="userSpaceOnUse"><stop offset="0" style="stop-color:#fff;stop-opacity:.2"/><stop offset="1" style="stop-color:#fff"/></linearGradient><path d="M13.642 12.711c-.838.903-.38 4.142.364 5.112 1.04 1.354 5.592 2.592 7.353 1.595.976-.552 2.06-3.772 2.06-3.772h.889s1.084 3.22 2.06 3.772c1.762.996 6.313-.241 7.353-1.595.744-.972 1.201-4.206.365-5.112-1.016-1.095-19.43-1.095-20.444 0z" style="opacity:.8;fill:url(#h)"/><path d="M19.584 19.867c-2.114 0-4.858-.967-5.644-1.99-.759-.989-1.237-4.28-.359-5.228.544-.585 5.555-.847 10.28-.847 4.727 0 9.74.262 10.284.847.876.95.398 4.24-.358 5.228-.787 1.024-3.529 1.99-5.645 1.99-.767 0-1.377-.125-1.814-.372-.93-.526-1.922-3.307-2.08-3.76h-.77c-.158.453-1.149 3.234-2.08 3.76-.436.247-1.046.372-1.814.372zm4.277-7.89c-5.46 0-9.733.335-10.16.795-.814.878-.341 4.07.37 4.996.76.989 3.44 1.924 5.514 1.924.728 0 1.328-.121 1.735-.352.936-.53 2.01-3.691 2.02-3.723l.021-.058h1.006l.02.058c.01.032 1.084 3.194 2.02 3.723.407.23 1.007.352 1.735.352 2.075 0 4.755-.936 5.513-1.924.71-.926 1.182-4.118.37-4.997-.426-.459-4.701-.794-10.164-.794z" style="fill:#fff"/><path d="M25.727 19.163s-1.228-2.603-1.459-3.084a.424.424 0 0 0-.394-.252c-.148.01-.325.065-.416.252-.23.48-1.458 3.084-1.458 3.084-.062.13-.588-.067-.528-.195 0 0 1.229-2.605 1.461-3.086.163-.34.532-.56.94-.56h.003c.404.002.756.215.92.56.232.481 1.46 3.086 1.46 3.086.06.128-.482.292-.53.195z" style="fill:#f5f5f5"/></svg>