<svg xmlns="http://www.w3.org/2000/svg" xml:space="preserve" style="enable-background:new 0 0 64 64" viewBox="0 0 64 64"><radialGradient id="a" cx="40.294" cy="62" r="38.304" gradientTransform="translate(-8.211)" gradientUnits="userSpaceOnUse"><stop offset="0" style="stop-color:#2b0c00"/><stop offset=".263" style="stop-color:#6e3108"/><stop offset=".514" style="stop-color:#a6500f"/><stop offset=".728" style="stop-color:#ce6614"/><stop offset=".897" style="stop-color:#e77417"/><stop offset="1" style="stop-color:#f07918"/></radialGradient><path d="M41.998 61C62 53 60 28.999 60 28.999H4S2 52.999 21.998 61c0 0 4.002 1 10 1 6.002 0 10-1 10-1z" style="fill:url(#a)"/><path d="M32 5C17.488 5 10.497 16.819 11.371 32.015c.179 3.053 1.029 7.459 2.078 11.235C15.625 51.098 27.109 59 32 59c4.889 0 16.374-7.903 18.552-15.751 1.049-3.776 1.898-8.182 2.078-11.235C53.501 16.819 46.514 5 32 5z" style="fill:#ffc940"/><path d="M31.998 46.664c-3.4-1.496-3.428-.06-8.678.291 1.971 2.238 3.422 5.115 8.676 5.115 6.031 0 7.051-3.268 8.684-5.115-5.256-.352-5.277-1.787-8.682-.291z" style="fill:#d47706"/><path d="M24.897 47.513c3.428 3.567 10.82 3.52 14.205.002-5.278.567-8.926.567-14.205-.002z" style="fill:#fff"/><path d="M47.42 26.958c-3.152-1.879-8.809-2.109-11.045-.828-.475.258-.348 1.615.063 1.445 3.191-1.328 8.055-1.394 11.051.143.4.203.409-.486-.069-.76zm-30.842 0c3.152-1.879 8.807-2.109 11.049-.828.475.258.348 1.615-.064 1.445-3.194-1.328-8.051-1.396-11.051.143-.402.203-.41-.486.066-.76z" style="fill:#db9321"/><path d="M35.262 41.841c-.346-.242-1.156.131-3.264.131-2.105 0-2.916-.373-3.262-.131-.414.291.244 1.605 3.262 1.605 3.018.001 3.68-1.312 3.264-1.605z" style="fill:#f0a429"/><path d="M28.772 32.66c.123.959-.529 2.098-2.334 2.951-1.147.543-3.531 1.182-6.666-.141-1.404-.592-2.774-2.436-2.65-3.455 1.698-3.203 10.06-3.672 11.65.645z" style="fill:#fff"/><linearGradient id="b" x1="-424.907" x2="-424.907" y1="476.804" y2="477.803" gradientTransform="matrix(6.5701 0 0 -6.5701 2814.782 3168.527)" gradientUnits="userSpaceOnUse"><stop offset="0" style="stop-color:#a6694a"/><stop offset="1" style="stop-color:#4f2a1e"/></linearGradient><path d="M23.098 29.31a3.284 3.284 0 1 1 .001 6.567 3.284 3.284 0 0 1-.001-6.567z" style="fill:url(#b)"/><path d="M21.457 32.535c0 2.272 3.285 2.272 3.285 0 0-2.11-3.285-2.11-3.285 0z" style="fill:#1a1626"/><path d="M20.957 31.615c0 .953 1.377.953 1.377 0 0-.883-1.377-.883-1.377 0z" style="fill:#ab968c"/><path d="M28.787 32.787c-1.334-4.287-10.428-3.654-11.666-.771.459-3.692 10.529-4.667 11.666.771z" style="fill:#45332c"/><path d="M35.229 32.66c-.123.959.529 2.098 2.334 2.951 1.146.543 3.531 1.182 6.666-.141 1.406-.592 2.773-2.436 2.65-3.455-1.697-3.203-10.06-3.672-11.65.645z" style="fill:#fff"/><linearGradient id="c" x1="-424.907" x2="-424.907" y1="476.804" y2="477.803" gradientTransform="matrix(6.5701 0 0 -6.5701 2832.512 3168.527)" gradientUnits="userSpaceOnUse"><stop offset="0" style="stop-color:#a6694a"/><stop offset="1" style="stop-color:#4f2a1e"/></linearGradient><path d="M40.828 29.31a3.285 3.285 0 1 1 0 6.57 3.285 3.285 0 0 1 0-6.57z" style="fill:url(#c)"/><path d="M39.188 32.535c0 2.272 3.285 2.272 3.285 0 0-2.11-3.285-2.11-3.285 0z" style="fill:#1a1626"/><path d="M38.688 31.615c0 .953 1.377.953 1.377 0 0-.883-1.377-.883-1.377 0z" style="fill:#ab968c"/><path d="M35.215 32.787c1.332-4.285 10.42-3.672 11.664-.771-.461-3.692-10.529-4.667-11.664.771z" style="fill:#45332c"/><path d="M48.332 7.122C49.99 4.757 35.953-.24 22.701 3.136 9.463 6.167 2 20.668 2 38.972 2 47.666 9 59 21.998 61 7.678 50.975 9.99 41.029 14 29.001c9.941-5.756 21.191-7.111 29-14-1 3 4.293 6.783 7 14C54.109 39.959 56.225 51.043 41.998 61 54 59 62 47.668 62 38.972c0-21.638-8.361-33.381-13.668-31.85z" style="fill:#ff8d30"/><path d="M48.332 7.122c1.593-1.906-5.501-5.085-14.437-5.085 10.968.866 14.706 6.809 11.662 5.237-3.244-1.675-11.174-4.106-21.795.706 11.621-2.472 22.311.229 20.649 1.627-2.625 2.208-14.193-3.806-30.392 10.984-2.232 2.037 9.717-7.817 25.755-8.129-2.23 4.692-30.755 12.129-35.181 23.79 7.426-10.598 38.738-14.536 43.739-29.13zm7.263 16.984S62.55 42.97 50.896 56.05c16.693-13.08 4.699-31.944 4.699-31.944z" style="fill:#f07918"/><path d="M14.623 28.459s-2.842.518-5.167 3.041c-4.863 17.176 6.759 24.549 6.759 24.549s-9.217-9.457-1.592-27.59z" style="fill:#f07918"/><path d="M7.352 33.133S6.016 33.656 4.385 37c-1.512 10.472 5.84 15.807 5.84 15.807s-6.894-8.424-2.873-19.674zm51.983-13.357C54.264 3.994 48.332 7.122 48.332 7.122s-2.854 5.344-5.126 7.219c-4.104 5.042 10.011 9.365 9.644 31.206 3.731-15.518-6.644-25.893-6.812-28.664-.19-3.141 2.42-7.971 4.455-8.55 2.208-.63 7.265 7.167 8.842 11.443z" style="fill:#f07918"/><path d="M4.385 37c8.033-13.105 37.768-12.219 43.947-29.878C37.917 23.23 6.377 25.915 4.385 37z" style="fill:#cf5d00"/><path d="M48.045 14.174s6.589 14.125 7.672 26.126c1.792-18.452-7.672-26.126-7.672-26.126zM12.583 26.208s9.584-6.22 21.583-11.354c-12.843.772-21.583 11.354-21.583 11.354zm-5.916-1.27s7.531-12.031 21.264-15.531C8.823 8.157 6.667 24.938 6.667 24.938z" style="fill:#ff9b4a"/></svg>