<svg xmlns="http://www.w3.org/2000/svg" xml:space="preserve" style="enable-background:new 0 0 64 64" viewBox="0 0 64 64"><path d="M38.61 17.165H11.39c-2.45 7.83 1.53 16.957 5.542 21.682h16.136c4.012-4.725 7.99-13.853 5.542-21.682z" style="fill:#4f4236"/><path d="M36.689 17.165H13.31c-2.064 5.29.034 16.37 4.628 21.682h14.123c4.594-5.312 6.692-16.392 4.628-21.682z" style="fill:#2e2319"/><linearGradient id="a" x1="39.521" x2="48" y1="52.575" y2="52.575" gradientUnits="userSpaceOnUse"><stop offset="0" style="stop-color:#0f3f91"/><stop offset=".164" style="stop-color:#0f439a"/><stop offset=".674" style="stop-color:#104cb0"/><stop offset="1" style="stop-color:#1050b8"/></linearGradient><path d="M45.078 44.187S48 49.685 48 58.962c0 2.676-8.479 2.136-8.479 2.136V44.007l5.556.18z" style="fill:url(#a)"/><linearGradient id="b" x1="2" x2="10.479" y1="52.575" y2="52.575" gradientUnits="userSpaceOnUse"><stop offset="0" style="stop-color:#1050b8"/><stop offset=".326" style="stop-color:#104cb0"/><stop offset=".836" style="stop-color:#0f439a"/><stop offset="1" style="stop-color:#0f3f91"/></linearGradient><path d="M4.923 44.187S2 49.685 2 58.962c0 2.676 8.479 2.136 8.479 2.136V44.007l-5.556.18z" style="fill:url(#b)"/><linearGradient id="c" x1="25" x2="25" y1="62" y2="37.974" gradientUnits="userSpaceOnUse"><stop offset="0" style="stop-color:#1050b8"/><stop offset=".483" style="stop-color:#104fb6"/><stop offset=".703" style="stop-color:#104caf"/><stop offset=".868" style="stop-color:#0f46a2"/><stop offset="1" style="stop-color:#0f3f91"/></linearGradient><path d="m31.366 37.974-12.732.02S5.496 42.553 4.922 44.188c5.294 5.708 4.997 9.952 4.997 9.952v6.959S12.168 62 25 62c12.832 0 15.08-.902 15.08-.902v-6.96s-.296-4.243 4.997-9.95c-.572-1.633-13.711-6.215-13.711-6.215z" style="fill:url(#c)"/><path d="M13.025 53.189h8.408v7.433h-8.408z" style="fill:#1e60c9"/><path d="M13.025 51.124h8.408v3.475h-8.408z" style="fill:#2068d9"/><path d="M28.567 53.189h8.408v7.433h-8.408z" style="fill:#1e60c9"/><path d="M28.567 51.124h8.408v3.475h-8.408z" style="fill:#2068d9"/><path d="M26.89 42.251s-2.85.15-2.85 2.43v17.317l.811.002V44.805c0-2.145 2.04-2.554 2.04-2.554zm-1.795-4.021c-4.584-.47-7.629-5.18-7.629-5.331-.442.12-.817.892-.817 1.952 0 2.686 1.262 4.706 8.446 4.706V38.23z" style="fill:#0f3f91"/><linearGradient id="d" x1="16.649" x2="21.802" y1="38.634" y2="38.634" gradientUnits="userSpaceOnUse"><stop offset="0" style="stop-color:#2068d9"/><stop offset="1" style="stop-color:#0f3f91"/></linearGradient><path d="M21.802 38.393c-3.005-.595-4.914-2.174-5.153-3.542v4.105c0 .82 1.023 2.818 5.153 3.46v-4.023z" style="fill:url(#d)"/><path d="M33.35 34.85c0-1.059-.375-1.831-.816-1.951 0 .15-4.723 5.431-11.27 5.541-.46.008-.834.309-.834.684v2.561c0 .475.385.86.86.86h1.767S33.35 39.39 33.35 34.852z" style="fill:#0f3f91"/><linearGradient id="e" x1="21.155" x2="33.351" y1="38.699" y2="38.699" gradientUnits="userSpaceOnUse"><stop offset="0" style="stop-color:#2068d9"/><stop offset="1" style="stop-color:#0f3f91"/></linearGradient><path d="M33.35 38.956v-4.105c-.381 2.185-5.003 3.98-11.577 4.206-.343.012-.62.232-.618.511l.01 2.417c.002.31.261.563.571.563 9.648-.007 11.615-2.448 11.615-3.592z" style="fill:url(#e)"/><linearGradient id="f" x1="26.64" x2="37.382" y1="-39.697" y2="-39.697" gradientTransform="rotate(-3.801 1194.062 -376.04)" gradientUnits="userSpaceOnUse"><stop offset="0" style="stop-color:#baffff"/><stop offset="1" style="stop-color:#01b3ff"/></linearGradient><path d="M62 33.613s-3.102-.947-9.05 1.565c-2.88 1.225-1.135 5.119 1.747 3.9C60.413 36.658 62 33.613 62 33.613z" style="fill:url(#f)"/><linearGradient id="g" x1="26.759" x2="35.53" y1="-39.627" y2="-39.627" gradientTransform="rotate(-3.801 1194.062 -376.04)" gradientUnits="userSpaceOnUse"><stop offset="0" style="stop-color:#fff"/><stop offset="1" style="stop-color:#fff;stop-opacity:0"/></linearGradient><path d="M53.766 38.31c-2.183.934-3.06-1.025-.871-1.946 2.553-1.084 7.299-1.988 7.299-1.988s-3.873 2.854-6.428 3.935" style="fill:url(#g)"/><linearGradient id="h" x1="-43.813" x2="-40.855" y1="-325.024" y2="-323.115" gradientTransform="rotate(-17.292 1217.95 -417.957)" gradientUnits="userSpaceOnUse"><stop offset="0" style="stop-color:#c7ced4"/><stop offset=".309" style="stop-color:#aeb8be"/><stop offset=".749" style="stop-color:#919da3"/><stop offset="1" style="stop-color:#869399"/></linearGradient><path d="m41.38 55.006-2.173-.559s2.206-7.394 3.253-10.831c.608-1.993 2.38-4.274 4.655-4.982l.737 2.088c-1.759.548-2.878 1.887-3.508 3.766-.814 2.432-2.964 10.518-2.964 10.518z" style="fill:url(#h)"/><linearGradient id="i" x1="-35.187" x2="-35.187" y1="-418.476" y2="-420.781" gradientTransform="rotate(-21.4 1219.02 -418.528)" gradientUnits="userSpaceOnUse"><stop offset="0" style="stop-color:#869399"/><stop offset=".251" style="stop-color:#919da3"/><stop offset=".691" style="stop-color:#aeb8be"/><stop offset="1" style="stop-color:#c7ced4"/></linearGradient><path d="m50.569 39.62 1.466-.99-.555-1.416-1.753.26z" style="fill:url(#i)"/><path d="m49.73 37.164-1.81.663s.14.625.279.714c.522.333 1.895-.718 1.895-.718l-.365-.659zm-1.01 2.706c-.042.161.282.718.282.718l1.778-.743-.18-.73s-1.723.157-1.88.756z" style="fill:#99a8ae"/><path d="m50.094 37.823-1.895.718.521 1.33 1.88-.757z" style="fill:#9fafb5"/><path d="m47.944 37.601-1.732.68.225.846c1.23.393 1.919-.748 1.919-.748l-.412-.778zm-.914 3.037.411.778 1.733-.679-.226-.848s-1.415-.787-1.919.749z" style="fill:#6e8189"/><path d="m48.356 38.379-1.919.748.592 1.51 1.919-.748z" style="fill:#7f959e"/><path d="m38.749 54.263-.846 3.077s.564.482.748.382c2.396-1.31.938-3.404.938-3.404l-.84-.055z" style="fill:#6e8189"/><path d="M40.129 58.128c.093.189.842.055.842.055l.845-3.077-.749-.382s-1.833 1.591-.938 3.404z" style="fill:#6e8189"/><path d="M38.094 55.457h3.531v1.532h-3.531z" style="fill:#7f959e" transform="rotate(-74.591 39.86 56.226)"/><path d="m37.684 57.17-1.292 4.478 1.053-.053s1.77-3.55 1.19-4.364l-.951-.062zm1.612 4.23 1.034-.27.826-3.007-.848-.432c-.914.403-1.012 3.71-1.012 3.71z" style="fill:#1a1626"/><path d="m38.636 57.231-1.191 4.364 1.85-.194 1.014-3.71z" style="fill:#302c3b"/><path d="M37.094 20.328c-1.878.227-3.234 6.515-2.053 8.175.165.232 1.133.602 1.85-.863.398-.81 1.545-1.488 1.9-3.16.455-2.144.172-4.378-1.697-4.152zm-24.26 0c1.878.227 3.234 6.515 2.053 8.175-.166.232-1.134.602-1.851-.863-.398-.81-1.544-1.488-1.9-3.16-.455-2.144-.17-4.38 1.698-4.152z" style="fill:#ffd8b4"/><path d="M37.043 21.534c-.49.154-1.024.9-1.314 2.141 1.712-.368 1.284 2.485-.204 2.538.013.286.033.582.068.892.717-1.04 1.445-.622 2.167-2.173.65-1.396.496-3.779-.717-3.398zM14.199 23.67c-.29-1.237-.824-1.984-1.313-2.136-1.214-.382-1.369 2.002-.719 3.398.722 1.551 1.45 1.133 2.169 2.173.035-.31.054-.607.066-.894-1.472-.07-1.894-2.887-.203-2.54z" style="fill:#deb38a"/><path d="M24.964 8.236c-8.137 0-12.056 6.627-11.567 15.148.101 1.713.577 4.183 1.165 6.3 1.22 4.4 7.66 8.831 10.402 8.831 2.74 0 9.18-4.43 10.401-8.83.588-2.118 1.065-4.588 1.165-6.301.489-8.521-3.428-15.148-11.566-15.148z" style="fill:#ffd8b4"/><path d="M24.963 31.598c-1.907-.839-1.922-.034-4.866.163 1.105 1.255 1.919 2.869 4.864 2.869 3.382 0 3.954-1.833 4.87-2.869-2.948-.197-2.96-1.002-4.868-.163z" style="fill:#de935d"/><path d="M20.98 32.075c1.923 2 6.068 1.973 7.966 0-2.96.318-5.005.318-7.965 0z" style="fill:#fff"/><path d="M33.61 20.55c-1.768-1.055-4.94-1.183-6.193-.464-.266.144-.195.905.035.81 1.79-.746 4.516-.782 6.196.079.224.115.23-.272-.039-.425zm-17.293 0c1.767-1.055 4.938-1.183 6.195-.464.266.144.195.905-.036.81-1.79-.746-4.514-.783-6.196.079-.226.115-.23-.272.037-.425z" style="fill:#826d58"/><path d="M26.793 28.895c-.194-.136-.649.073-1.83.073s-1.635-.21-1.83-.073c-.231.163.138.9 1.83.9 1.692 0 2.063-.736 1.83-.9z" style="fill:#deb38a"/><path d="M23.154 23.745c.069.539-.297 1.177-1.31 1.656-.642.304-1.98.663-3.737-.079-.787-.332-1.555-1.366-1.486-1.938.953-1.796 5.641-2.059 6.533.361z" style="fill:#fff"/><linearGradient id="j" x1="-425.383" x2="-425.383" y1="478.376" y2="478.936" gradientTransform="matrix(6.5701 0 0 -6.5701 2814.782 3168.527)" gradientUnits="userSpaceOnUse"><stop offset="0" style="stop-color:#a6694a"/><stop offset="1" style="stop-color:#4f2a1e"/></linearGradient><path d="M19.972 21.867a1.842 1.842 0 1 1 0 3.684 1.842 1.842 0 0 1 0-3.684z" style="fill:url(#j)"/><path d="M19.052 23.675c0 1.275 1.842 1.275 1.842 0 0-1.183-1.842-1.183-1.842 0z" style="fill:#1a1626"/><path d="M18.772 23.16c0 .534.772.534.772 0 0-.496-.772-.496-.772 0z" style="fill:#ab968c"/><path d="M23.162 23.816c-.748-2.403-5.847-2.048-6.54-.432.256-2.07 5.903-2.616 6.54.432z" style="fill:#45332c"/><path d="M26.774 23.745c-.07.539.297 1.177 1.309 1.656.642.304 1.98.663 3.737-.079.789-.332 1.555-1.366 1.486-1.938-.951-1.796-5.64-2.059-6.532.361z" style="fill:#fff"/><linearGradient id="k" x1="-426.569" x2="-426.569" y1="478.376" y2="478.936" gradientTransform="matrix(6.5701 0 0 -6.5701 2832.512 3168.527)" gradientUnits="userSpaceOnUse"><stop offset="0" style="stop-color:#a6694a"/><stop offset="1" style="stop-color:#4f2a1e"/></linearGradient><path d="M29.914 21.867a1.842 1.842 0 1 1 0 3.684 1.842 1.842 0 0 1 0-3.684z" style="fill:url(#k)"/><path d="M28.994 23.675c0 1.275 1.842 1.275 1.842 0 0-1.183-1.842-1.183-1.842 0z" style="fill:#1a1626"/><path d="M28.713 23.16c0 .534.772.534.772 0 0-.496-.772-.496-.772 0z" style="fill:#ab968c"/><path d="M26.766 23.816c.747-2.402 5.843-2.058 6.54-.432-.258-2.07-5.903-2.616-6.54.432z" style="fill:#45332c"/><path d="M21.977 7.158c-.794-1.288 1.305-1.486 7.735.365 6.425 1.664 11.73 11.595 8.74 18.425-1.946-6.126-11.73-9.32-16.475-18.79z" style="fill:#4f4236"/><path d="M25.38 11.16c4.124 5.146 12.994 10.103 13.072 14.788-2.19-5.811-10.552-9.07-14.596-14.788h1.523z" style="fill:#2e2319"/><path d="M28.023 7.158c.794-1.288-1.305-1.486-7.735.365-6.425 1.664-11.73 11.595-8.74 18.425 2.052-9.142 14.073-9.642 16.474-18.79z" style="fill:#4f4236"/><path d="M27.62 9.972c-6.062 2.693-15.666 7.875-16.072 15.976 1.808-10.017 16.638-9.41 20.385-15.517l-4.312-.459z" style="fill:#403429"/><path d="M30.233 11.472c-4.125 5.146-17.095 4.021-18.685 14.476 2.614-10.226 14.656-6.788 20.208-14.476h-1.523z" style="fill:#2e2319"/><path d="M37.904 20.076a39.979 39.979 0 0 0-26.067 0l-1.062-3.46a43.241 43.241 0 0 1 28.19 0c-.353 1.153-.708 2.305-1.061 3.46z" style="fill:#1a1626"/><path d="M37.904 19.398a39.979 39.979 0 0 0-26.067 0l-1.062-3.46a43.24 43.24 0 0 1 28.19 0c-.353 1.153-.708 2.305-1.061 3.46z" style="fill:#302c3b"/><path d="M9.5 15.995v3.412l1.538.669v-4.748zm31 0v3.412l-1.538.669v-4.748z" style="fill:#302c3b"/><path d="M37 20.645c.513.959 1.664.51 1.782-.569 1.17-10.642-.37-15.275-13.78-15.275C11.59 4.8 10.05 9.433 11.22 20.075c.118 1.078 1.269 1.528 1.782.57 1.935-3.622 2.428-8.319 11.999-8.319 9.57 0 10.063 4.698 11.998 8.32z" style="fill:#4e5e67"/><radialGradient id="l" cx="82.576" cy="14.248" r="15.283" gradientTransform="matrix(1.0589 0 0 .7324 -62.395 3.813)" gradientUnits="userSpaceOnUse"><stop offset=".092" style="stop-color:#4e5e67"/><stop offset=".333" style="stop-color:#4b5963"/><stop offset=".619" style="stop-color:#424b56"/><stop offset=".927" style="stop-color:#343341"/><stop offset="1" style="stop-color:#302c3b"/></radialGradient><path d="M37.503 20.769c.534.959 1.883.509 2.007-.57C40.742 9.558 38.412 4.036 25.002 4.036c-13.412 0-15.741 5.522-14.51 16.164.125 1.078 1.474 1.528 2.008.569 2.017-3.621 2.089-10.046 12.502-10.046 10.412 0 10.484 6.426 12.5 10.047z" style="fill:url(#l)"/><path d="M25 6.41c4.56 0 7.845.92 10.204 2.73l-1.449-5.105c-8.754-2.035-17.509 0-17.509 0L14.797 9.14C17.155 7.33 20.441 6.41 25 6.41z" style="fill:#302c3b"/><path d="M33.755 4.035 32.512 2H17.5l-1.243 2.035z" style="fill:#424f57"/><path d="m32.817 4.035-.622-1.017h-14.38l-.62 1.017z" style="fill:#1a1626"/><path d="m21.804 4.035 1.136-1.017h-2.428l-1.2 1.017zm1.873 0 1.036-1.017h-.753l-1.1 1.017zm5.995 0 1.024-1.017h-2.348L27.26 4.035z" style="fill:#4e5e67"/></svg>