<svg xmlns="http://www.w3.org/2000/svg" xml:space="preserve" style="enable-background:new 0 0 64 64" viewBox="0 0 64 64"><path d="M56 62c0-8.614-1.065-16.263-4.158-17.797-1.084-.537-7.013 2.864-7.013 2.864L48.302 62H56zm-40.302 0 3.473-14.933s-5.928-3.402-7.013-2.864C9.065 45.737 8 53.386 8 62h7.698z" style="fill:#8e3ed6"/><path d="m39.213 38.908-14.426.026-12.629 5.269c3.983 4.732 3.533 12.958 3.54 17.797h32.604c.007-4.839-.443-13.065 3.54-17.797l-12.63-5.295z" style="fill:#8e3ed6"/><path d="M24.586 34.56v5.6c0 5.314 14.828 5.314 14.828 0v-5.6H24.586z" style="fill:#f3cca8"/><radialGradient id="a" cx="40.269" cy="43.386" r="26.421" gradientTransform="translate(-8.211)" gradientUnits="userSpaceOnUse"><stop offset="0" style="stop-color:#2e2319"/><stop offset=".615" style="stop-color:#46392e"/><stop offset="1" style="stop-color:#4f4236"/></radialGradient><path d="M38.896 42.697c13.797-5.518 12.418-22.073 12.418-22.073H12.686s-1.38 16.555 12.415 22.073c0 0 2.76.69 6.898.69 4.14 0 6.897-.69 6.897-.69z" style="fill:url(#a)"/><path d="M32 4.07c-10.01 0-14.832 8.152-14.23 18.634.124 2.106.71 5.145 1.434 7.75 1.5 5.413 9.423 10.864 12.796 10.864 3.372 0 11.294-5.451 12.797-10.865.723-2.604 1.31-5.643 1.433-7.75C46.83 12.223 42.012 4.07 32 4.07z" style="fill:#ffd8b4"/><path d="M31.999 32.808c-2.346-1.032-2.365-.042-5.986.2 1.36 1.545 2.36 3.53 5.984 3.53 4.16 0 4.864-2.255 5.99-3.53-3.625-.242-3.64-1.232-5.988-.2z" style="fill:#de935d"/><path d="M27.1 33.394c2.365 2.46 7.464 2.428 9.799.002-3.64.39-6.157.39-9.799-.002z" style="fill:#fff"/><path d="M42.636 19.216c-2.174-1.296-6.076-1.455-7.618-.571-.328.177-.24 1.114.043.997 2.201-.917 5.556-.962 7.623.098.276.14.283-.336-.047-.524zm-21.274 0c2.175-1.296 6.075-1.455 7.622-.571.327.177.24 1.114-.045.997-2.203-.917-5.553-.964-7.622.098-.278.14-.283-.336.045-.524z" style="fill:#826d58"/><path d="M34.25 29.482c-.239-.167-.798.09-2.251.09-1.453 0-2.012-.257-2.25-.09-.286.2.168 1.107 2.25 1.107 2.081 0 2.538-.905 2.25-1.107z" style="fill:#deb38a"/><path d="M43.266 5.533c1.143-1.631-8.54-5.078-17.68-2.75-9.132 2.091-14.28 12.094-14.28 24.72 0 5.996 4.83 13.814 13.795 15.194-9.878-6.915-8.283-13.776-5.517-22.072 6.857-3.97 14.617-4.905 20.004-9.657-.69 2.07 2.96 4.679 4.828 9.657 2.835 7.558 4.294 15.204-5.52 22.072 8.28-1.38 13.797-9.196 13.797-15.194 0-14.926-5.767-23.026-9.427-21.97z" style="fill:#4f4236"/><path d="M43.266 5.533c1.098-1.315-3.795-3.507-9.96-3.507 7.566.597 10.145 4.697 8.045 3.612-2.237-1.155-7.707-2.833-15.033.487 8.016-1.705 15.39.158 14.243 1.123-1.81 1.523-9.79-2.626-20.964 7.576-1.54 1.405 6.702-5.392 17.765-5.608-1.539 3.237-21.214 8.367-24.267 16.41 5.122-7.31 26.721-10.026 30.17-20.093zm5.009 11.715s4.798 13.012-3.24 22.034c11.514-9.022 3.24-22.034 3.24-22.034z" style="fill:#403429"/><path d="M20.014 20.251s-1.96.357-3.564 2.098c-3.355 11.847 4.662 16.933 4.662 16.933s-6.358-6.524-1.098-19.03z" style="fill:#403429"/><path d="M14.998 23.475s-.92.36-2.046 2.667c-1.043 7.224 4.028 10.903 4.028 10.903s-4.755-5.81-1.982-13.57zm35.857-9.213c-3.498-10.886-7.59-8.729-7.59-8.729s-1.968 3.686-3.535 4.98c-2.831 3.477 6.905 6.46 6.652 21.525 2.574-10.704-4.583-17.861-4.698-19.772-.131-2.167 1.67-5.498 3.072-5.898 1.523-.434 5.012 4.944 6.1 7.894z" style="fill:#403429"/><path d="M12.952 26.142c5.54-9.04 26.051-8.428 30.314-20.609-7.184 11.11-28.94 12.963-30.314 20.61z" style="fill:#2e2319"/><path d="M43.068 10.398s4.545 9.743 5.292 18.02c1.236-12.727-5.292-18.02-5.292-18.02zm-24.461 8.3s6.61-4.29 14.888-7.831c-8.86.532-14.888 7.831-14.888 7.831zm-4.081-.876S19.72 9.523 29.193 7.11c-13.18-.862-14.667 10.713-14.667 10.713z" style="fill:#635547"/><path d="M29.773 22.97c.083.662-.365 1.447-1.605 2.033-.793.372-2.433.813-4.597-.096-.965-.407-1.909-1.682-1.826-2.385 1.172-2.205 6.933-2.529 8.028.448z" style="fill:#fff"/><linearGradient id="b" x1="-1210.323" x2="-1210.323" y1="171.843" y2="171.154" gradientTransform="translate(7978.266 -1103.139) scale(6.5701)" gradientUnits="userSpaceOnUse"><stop offset="0" style="stop-color:#a6694a"/><stop offset="1" style="stop-color:#4f2a1e"/></linearGradient><path d="M26.32 21.357a2.267 2.267 0 0 1 2.267 2.26 2.268 2.268 0 0 1-4.534 0 2.263 2.263 0 0 1 2.267-2.26z" style="fill:url(#b)"/><path d="M25.19 23.583c0 1.564 2.267 1.564 2.267 0-.006-1.454-2.267-1.454-2.267 0z" style="fill:#1a1626"/><path d="M24.846 22.949c0 .655.95.655.95 0-.006-.613-.95-.613-.95 0z" style="fill:#ab968c"/><path d="M29.787 23.06c-.916-2.957-7.187-2.516-8.042-.53.317-2.55 7.257-3.22 8.042.53z" style="fill:#45332c"/><path d="M34.225 22.97c-.082.662.366 1.447 1.606 2.033.793.372 2.433.813 4.597-.096.971-.407 1.909-1.682 1.826-2.385-1.172-2.205-6.933-2.529-8.029.448z" style="fill:#fff"/><linearGradient id="c" x1="-1211.162" x2="-1211.162" y1="171.843" y2="171.154" gradientTransform="translate(7995.996 -1103.139) scale(6.5701)" gradientUnits="userSpaceOnUse"><stop offset="0" style="stop-color:#a6694a"/><stop offset="1" style="stop-color:#4f2a1e"/></linearGradient><circle cx="38.539" cy="23.624" r="2.267" style="fill:url(#c)"/><path d="M37.409 23.583c0 1.564 2.267 1.564 2.267 0-.007-1.454-2.267-1.454-2.267 0z" style="fill:#1a1626"/><path d="M37.064 22.949c0 .655.951.655.951 0-.007-.613-.951-.613-.951 0z" style="fill:#ab968c"/><path d="M34.212 23.06c.916-2.95 7.18-2.53 8.035-.53-.31-2.55-7.25-3.22-8.035.53z" style="fill:#45332c"/><path d="M29.479 24.302a12.83 12.83 0 0 1-7.475-.148l-.389 1.915a14.12 14.12 0 0 0 8.21.16l-.346-1.927zm12.519-.148a12.84 12.84 0 0 1-7.478.148l-.346 1.927c2.708.761 5.523.706 8.211-.16-.128-.64-.258-1.277-.387-1.915z" style="fill:#ffd8b4"/><linearGradient id="d" x1="32" x2="32" y1="62" y2="38" gradientUnits="userSpaceOnUse"><stop offset="0" style="stop-color:#99a8ae"/><stop offset=".933" style="stop-color:#cfd8dd"/><stop offset=".982" style="stop-color:#e6ebef"/></linearGradient><path d="M55.065 38H8.935c-.576 0-.995.412-.928.916l2.906 22.166c.065.504.592.918 1.167.918h39.839c.576 0 1.103-.414 1.168-.918l2.906-22.166c.067-.504-.353-.916-.928-.916" style="fill:url(#d)"/><path d="M32 47.6c1.527 0 2.77 1.078 2.77 2.4 0 1.324-1.243 2.4-2.77 2.4-1.526 0-2.77-1.076-2.77-2.4 0-1.322 1.244-2.4 2.77-2.4zm0-.8c-2.038 0-3.692 1.433-3.692 3.2 0 1.768 1.654 3.201 3.692 3.201 2.039 0 3.692-1.433 3.692-3.201 0-1.767-1.653-3.2-3.692-3.2z" style="fill:#e6ebef"/><path d="M32.74 50.32c-.124 0-.187-.052-.187-.158v-.32c0-.11.063-.162.187-.162h1.198c.124 0 .187.052.187.162V50c0 1.018-.951 1.842-2.125 1.842-.57 0-1.105-.197-1.5-.54-.088-.077-.088-.15-.002-.226l.394-.34c.087-.074.173-.074.26 0 .225.194.526.305.848.305.534 0 .986-.3 1.144-.72h-.404z" style="fill:#e6ebef"/></svg>