<svg xmlns="http://www.w3.org/2000/svg" xml:space="preserve" style="enable-background:new 0 0 64 64" viewBox="0 0 64 64"><radialGradient id="a" cx="40.24" cy="30" r="17.875" gradientTransform="translate(-8.211)" gradientUnits="userSpaceOnUse"><stop offset="0" style="stop-color:#bf6000"/><stop offset=".397" style="stop-color:#dc8103"/><stop offset=".772" style="stop-color:#f19a06"/><stop offset="1" style="stop-color:#f9a307"/></radialGradient><path d="M36.656 29.533C45.99 25.8 45.057 14.6 45.057 14.6H18.924s-.934 11.2 8.399 14.933c0 0 1.867.467 4.667.467s4.666-.467 4.666-.467z" style="fill:url(#a)"/><path d="M40.87 51c.048-3.23.714-6.711 1.275-10.916.345-2.592-.508-10.45-.508-10.45l-3.592-1.317h-12.09l-3.591 1.316s-.854 7.859-.508 10.45c.56 4.206 1.226 7.687 1.275 10.918.037 2.384 8.8 11 8.8 11l.442-.001s8.46-8.615 8.496-11z" style="fill:#8e3ed6"/><path d="M36.46 27.774v-4.218h-8.92v4.203l-1.586.558c0 3.948 5.168 6.316 6.045 6.316.873 0 6.028-2.366 6.028-6.305l-1.569-.553zM21.932 40.066l.432-10.433s-1.387.414-2.63 2.044c-1.35 1.773-1.65 8.329-1.65 11.927 0 2.848 3.848-3.538 3.848-3.538zm20.137 0-.432-10.433s1.387.414 2.629 2.044c1.35 1.773 1.65 8.329 1.65 11.927 0 2.848-3.847-3.538-3.847-3.538z" style="fill:#f5bb51"/><path d="M31.99 3.4c-6.772 0-10.034 5.515-9.627 12.607.084 1.425.48 3.48.97 5.243 1.016 3.662 6.375 7.35 8.658 7.35 2.281 0 7.64-3.688 8.657-7.35.49-1.762.886-3.818.97-5.243C42.024 8.915 38.764 3.4 31.99 3.4z" style="fill:#ffc940"/><path d="M31.99 22.843c-1.587-.698-1.6-.028-4.05.136.92 1.044 1.597 2.387 4.049 2.387 2.814 0 3.29-1.525 4.052-2.387-2.453-.164-2.463-.834-4.051-.136z" style="fill:#d47706"/><path d="M28.675 23.24c1.6 1.664 5.05 1.642 6.63 0-2.463.265-4.166.265-6.63 0z" style="fill:#fff"/><path d="M39.187 13.647c-1.472-.877-4.111-.984-5.155-.386-.221.12-.162.753.03.674 1.489-.62 3.758-.65 5.156.067.187.094.192-.227-.032-.355zm-14.393 0c1.47-.877 4.11-.984 5.156-.386.221.12.162.753-.03.674-1.49-.62-3.757-.652-5.157.067-.188.094-.192-.227.03-.355z" style="fill:#bb7c0a"/><path d="M33.513 20.593c-.162-.113-.54.06-1.523.06-.983 0-1.361-.173-1.523-.06-.193.135.114.749 1.522.749 1.409 0 1.718-.613 1.524-.75z" style="fill:#f0a429"/><path d="M30.484 16.308c.057.447-.247.979-1.09 1.377-.534.253-1.647.551-3.11-.066-.656-.276-1.295-1.136-1.237-1.612.793-1.495 4.695-1.714 5.437.3z" style="fill:#fff"/><linearGradient id="b" x1="-424.186" x2="-424.186" y1="479.554" y2="480.02" gradientTransform="matrix(6.5701 0 0 -6.5701 2814.782 3168.527)" gradientUnits="userSpaceOnUse"><stop offset="0" style="stop-color:#a6694a"/><stop offset="1" style="stop-color:#4f2a1e"/></linearGradient><path d="M27.836 14.745a1.533 1.533 0 1 1 0 3.066 1.533 1.533 0 0 1 0-3.066z" style="fill:url(#b)"/><path d="M27.07 16.25c0 1.06 1.533 1.06 1.533 0 0-.985-1.533-.985-1.533 0z" style="fill:#1a1626"/><path d="M26.837 15.82c0 .445.643.445.643 0 0-.412-.643-.412-.643 0z" style="fill:#ab968c"/><path d="M30.491 16.367c-.622-2-4.866-1.705-5.444-.36.214-1.723 4.914-2.178 5.444.36z" style="fill:#45332c"/><path d="M33.497 16.308c-.057.447.247.979 1.09 1.377.534.253 1.647.551 3.11-.066.656-.276 1.294-1.136 1.237-1.612-.792-1.495-4.695-1.714-5.437.3z" style="fill:#fff"/><linearGradient id="c" x1="-425.625" x2="-425.625" y1="479.554" y2="480.02" gradientTransform="matrix(6.5701 0 0 -6.5701 2832.512 3168.527)" gradientUnits="userSpaceOnUse"><stop offset="0" style="stop-color:#a6694a"/><stop offset="1" style="stop-color:#4f2a1e"/></linearGradient><path d="M36.11 14.745a1.533 1.533 0 1 1 0 3.066 1.533 1.533 0 0 1 0-3.066z" style="fill:url(#c)"/><path d="M35.345 16.25c0 1.06 1.533 1.06 1.533 0 0-.985-1.533-.985-1.533 0z" style="fill:#1a1626"/><path d="M35.111 15.82c0 .445.643.445.643 0 0-.412-.643-.412-.643 0z" style="fill:#ab968c"/><path d="M33.49 16.367c.622-2 4.863-1.714 5.444-.36-.215-1.723-4.914-2.178-5.443.36z" style="fill:#45332c"/><path d="M39.612 4.39c.774-1.104-5.777-3.435-11.961-1.86-6.178 1.415-9.66 8.181-9.66 16.724 0 3.417 2.318 7.71 6.675 9.536l1.15-.422c-4.991-4.29-3.941-8.62-2.226-13.767 4.64-2.687 9.89-3.32 13.534-6.534-.467 1.4 2.003 3.166 3.266 6.534 1.758 4.686 2.734 9.423-2.228 13.759l1.076.394c4.137-1.845 6.752-6.104 6.752-9.5 0-10.098-3.901-15.579-6.378-14.864z" style="fill:#ffb80d"/><path d="M39.612 4.39c.743-.89-2.567-2.373-6.737-2.373 5.118.404 6.863 3.178 5.442 2.444-1.514-.782-5.214-1.916-10.171.33 5.423-1.154 10.412.106 9.636.76-1.225 1.03-6.623-1.777-14.183 5.125-1.041.95 4.535-3.648 12.019-3.794-1.04 2.19-14.352 5.66-16.418 11.102 3.466-4.946 18.078-6.783 20.412-13.594zm3.389 7.926s3.246 8.803-2.192 14.907C48.599 21.119 43 12.316 43 12.316z" style="fill:#f9a307"/><path d="M23.881 14.348s-1.326.241-2.411 1.419c-2.27 8.015 3.154 11.456 3.154 11.456s-4.301-4.414-.743-12.875z" style="fill:#f9a307"/><path d="M20.488 16.529s-.623.244-1.385 1.804c-.705 4.887 2.726 7.377 2.726 7.377s-3.217-3.931-1.341-9.181zm24.259-6.234C42.38 2.931 39.612 4.39 39.612 4.39S38.28 6.884 37.22 7.76c-1.916 2.353 4.672 4.37 4.5 14.563 1.742-7.242-3.1-12.084-3.178-13.377-.089-1.466 1.13-3.72 2.079-3.99 1.03-.294 3.39 3.345 4.126 5.34z" style="fill:#f9a307"/><path d="M19.103 18.333c3.749-6.115 17.625-5.702 20.509-13.943-4.86 7.517-19.579 8.77-20.509 13.943z" style="fill:#e68c00"/><path d="M39.478 7.681s3.075 6.592 3.58 12.192c.837-8.61-3.58-12.192-3.58-12.192zM22.93 13.297S27.401 10.394 33.001 8c-5.994.36-10.073 5.298-10.073 5.298zm-2.762-.593s3.515-5.614 9.924-7.248c-8.918-.583-9.924 7.248-9.924 7.248z" style="fill:#ffca25"/><path d="m25.092 52.722-7.793.012s-4.088 1.33-4.936 2.415c-.9 1.15-1.43 3.822-1.693 5.464 4.332 1.022 12.781 1.38 21.262 1.387 0-.002-.486-5.07-1.877-6.853-.85-1.091-4.963-2.425-4.963-2.425z" style="fill:#ff9ed2"/><path d="M17.299 52.733c0 3.243 7.793 3.23 7.793-.011l-.781-.275h-6.196l-.816.286z" style="fill:#ff82c5"/><path d="M17.858 52.538c0 2.538 6.677 2.538 6.677 0v-2.807h-6.677v2.807z" style="fill:#f5bb51"/><path d="m14.32 61.234-.283-.044c0-2.307.283-2.536.283.044zm14.043.731h-.3c0-3.68.3-3.68.3 0z" style="fill:#ff82c5"/><path d="m47.004 52.722-7.79.012s-4.09 1.33-4.938 2.415c-1.393 1.782-1.903 6.845-1.903 6.85 8.52-.01 16.988-.346 21.264-1.382-.258-1.642-.778-4.325-1.67-5.47-.85-1.091-4.963-2.425-4.963-2.425z" style="fill:#8feaff"/><path d="M39.213 52.733c0 3.243 7.791 3.23 7.791-.011l-.781-.275h-6.196l-.814.286z" style="fill:#67dbf5"/><path d="M39.77 52.538c0 2.538 6.68 2.538 6.68 0v-2.807h-6.68v2.807z" style="fill:#f5bb51"/><path d="m36.24 61.96-.298.005c0-3.68.298-3.687.298-.006zm14.028-.78-.283.027c0-2.266.283-2.432.283-.026z" style="fill:#67dbf5"/><path d="M15.983 53.226s-1.078 2 .14 1.781c.61-1.401 1.317-1.01 1.592-2.47.268-1.811-.873-2.92-.873-2.92-.992.735-3.138 2.375-3.406 2.83-.424.721-2.012 2.826-1.324 3.502.638 1.34 1.105-2.02 3.87-2.723z" style="fill:#f5bb51"/><path d="M13.39 53.318s-1.079 1.648-1.278 2.63c-.043-1.12 1.277-2.63 1.277-2.63z" style="fill:#f0a429"/><path d="M47.998 53.226s1.079 2-.14 1.781c-.61-1.401-1.316-1.01-1.592-2.47-.267-1.811.873-2.92.873-2.92.992.735 3.139 2.375 3.406 2.83.424.721 2.01 2.826 1.325 3.502-.64 1.34-1.106-2.02-3.871-2.723z" style="fill:#f5bb51"/><path d="M50.592 53.318s1.078 1.648 1.278 2.63c.04-1.12-1.278-2.63-1.278-2.63z" style="fill:#f0a429"/><path d="M13.546 42.53c-3.183 4.07.096 8.55-2.619 9.99 4.82 3.35 9.013-4.583 2.619-9.99z" style="fill:#e68c00"/><path d="M13.546 42.53c-6.455 4.266-.78 8.151-2.619 9.99 2.479.9 5.136-1.8 2.619-9.99z" style="fill:#ffb80d"/><path d="M13.546 42.53c-1.762 3.519 2.166 9.904-2.619 9.99 3.442 1.515 6.169-1.925 2.619-9.99z" style="fill:#f9a307"/><path d="M11.546 52.059c1.443-1.345-2.448-5.918 2.096-8.826-3.292 3.276.477 7.795-2.096 8.826z" style="fill:#ffca25"/><path d="M28.844 42.53c3.183 4.07-.096 8.55 2.619 9.99-4.82 3.35-9.012-4.583-2.619-9.99z" style="fill:#e68c00"/><path d="M28.844 42.53c6.455 4.266.78 8.151 2.619 9.99-2.478.9-5.136-1.8-2.619-9.99z" style="fill:#ffb80d"/><path d="M28.844 42.53c1.762 3.519-2.166 9.904 2.619 9.99-3.442 1.515-6.168-1.925-2.619-9.99z" style="fill:#f9a307"/><path d="M30.844 52.059c-1.443-1.345 2.448-5.918-2.096-8.826 3.292 3.276-.477 7.795 2.096 8.826z" style="fill:#ffca25"/><path d="M21.195 31.654c-6.786.004-11.081 5.973-8.438 13.64h16.876c2.643-7.666-1.653-13.636-8.438-13.64z" style="fill:#f9a307"/><path d="M12.637 42.108c1.066.13 1.834 3.73 1.165 4.68-.094.133-.643.344-1.05-.494-.226-.464-.876-.852-1.077-1.81-.259-1.227-.097-2.505.962-2.376z" style="fill:#ffc940"/><path d="M12.666 42.798c.278.088.581.516.746 1.226-.972-.211-.729 1.422.115 1.452a7.103 7.103 0 0 1-.038.511c-.407-.595-.82-.356-1.23-1.243-.369-.8-.281-2.164.407-1.946z" style="fill:#f0a429"/><path d="M29.753 42.108c-1.065.13-1.835 3.73-1.164 4.68.093.133.642.344 1.05-.494.226-.464.875-.852 1.077-1.81.258-1.227.097-2.506-.963-2.376z" style="fill:#ffc940"/><path d="M28.98 44.021c.164-.708.466-1.135.743-1.223.69-.218.777 1.147.408 1.946-.41.887-.823.648-1.23 1.243a7.154 7.154 0 0 1-.038-.511c.835-.04 1.075-1.653.116-1.455z" style="fill:#f0a429"/><path d="M21.196 32.858c-5.822 0-8.627 4.404-8.275 10.529.07 1.232.833 4.047 1.555 5.489 1.274 2.545 4.6 4.443 6.72 4.443 2.117 0 5.447-1.898 6.719-4.443.722-1.442 1.486-4.257 1.555-5.49.353-6.124-2.452-10.528-8.274-10.528z" style="fill:#ffc940"/><path d="M22.552 46.828c-.143-.1-.48.054-1.357.054-.876 0-1.214-.154-1.358-.054-.171.122.103.668 1.358.668 1.255 0 1.53-.546 1.357-.668zm-1.357 1.952c-1.312-.386-3.258.183-3.258.183.74.807 1.284 1.853 3.258 1.853 2.261 0 2.647-1.188 3.259-1.853 0 0-1.947-.57-3.259-.183z" style="fill:#f0a429"/><path d="M18.425 49.1c1.377 1.155 4.155 1.162 5.54 0a81.084 81.084 0 0 1-5.54 0zm1.515-5.268c.048.374-.205.816-.907 1.148-.446.211-1.374.46-2.593-.054-.546-.23-1.078-.948-1.03-1.345.66-1.245 3.912-1.428 4.53.25z" style="fill:#fff"/><linearGradient id="d" x1="-425.724" x2="-425.724" y1="475.403" y2="475.791" gradientTransform="matrix(6.5701 0 0 -6.5701 2814.782 3168.527)" gradientUnits="userSpaceOnUse"><stop offset="0" style="stop-color:#a6694a"/><stop offset="1" style="stop-color:#4f2a1e"/></linearGradient><path d="M17.734 42.53a1.277 1.277 0 1 1 0 2.554 1.277 1.277 0 0 1 0-2.555z" style="fill:url(#d)"/><path d="M17.096 43.783c0 .884 1.277.884 1.277 0 0-.82-1.277-.82-1.277 0z" style="fill:#1a1626"/><path d="M16.902 43.426c0 .37.535.37.535 0 0-.344-.535-.344-.535 0z" style="fill:#ab968c"/><path d="M19.946 43.881c-.519-1.667-4.055-1.421-4.536-.3.178-1.435 4.094-1.814 4.536.3z" style="fill:#f0a429"/><path d="M22.451 43.832c-.048.374.205.816.907 1.148.446.211 1.373.46 2.593-.054.546-.23 1.078-.948 1.03-1.345-.66-1.245-3.912-1.428-4.53.25z" style="fill:#fff"/><linearGradient id="e" x1="-427.373" x2="-427.373" y1="475.403" y2="475.791" gradientTransform="matrix(6.5701 0 0 -6.5701 2832.512 3168.527)" gradientUnits="userSpaceOnUse"><stop offset="0" style="stop-color:#a6694a"/><stop offset="1" style="stop-color:#4f2a1e"/></linearGradient><path d="M24.628 42.53a1.278 1.278 0 1 1 0 2.555 1.278 1.278 0 0 1 0-2.556z" style="fill:url(#e)"/><path d="M23.99 43.783c0 .884 1.277.884 1.277 0 0-.82-1.277-.82-1.277 0z" style="fill:#1a1626"/><path d="M23.796 43.426c0 .37.535.37.535 0 0-.344-.535-.344-.535 0z" style="fill:#ab968c"/><path d="M22.445 43.881c.518-1.667 4.052-1.428 4.536-.3-.18-1.435-4.094-1.814-4.536.3z" style="fill:#f0a429"/><path d="M27.045 42.151c-.82-.837-2.323-1.397-4.115-.901-.19.052-.178.646-.023.606 1.638-.425 3.006-.158 4.032.71.12.101.242-.276.106-.415zm-11.699 0c.82-.837 2.323-1.397 4.115-.901.19.052.178.646.023.606-1.638-.425-3.006-.158-4.032.71-.12.101-.241-.276-.106-.415z" style="fill:#bb7c0a"/><path d="M21.193 31.855c-3.413 0-6.343 1.914-7.666 4.2-1.205 2.082-1.442 5.76-.361 8.778.14-2.896 1.746-4.354 1.648-7.54 9.59 0 13.524 3.089 14.405 7.54 2.177-6.08-1.252-12.978-8.026-12.978z" style="fill:#f9a307"/><path d="M21.01 31.857c-3.412 0-6.16 1.912-7.483 4.198-1.205 2.082-1.71 4.753-.361 8.778-.691-4.439 1.209-7.915 1.209-7.915 9.322-1.012 13.85 3.113 14.844 7.915.217-1.638.004-9.24-8.475-9.9 6.306-.569 8.475 2.569 8.625 7.283 1.68-6.14-3.804-10.359-8.358-10.359z" style="fill:#ffb80d"/><path d="M29.219 44.833c-1.889-8.216-15.166-7.5-15.166-7.5s14.025-1.552 15.166 7.5z" style="fill:#e68c00"/><path d="M13.166 44.833c-.122-3.425 1.69-4.967 1.495-8.502.749 3.36-.865 5.027-1.495 8.502z" style="fill:#e68c00"/><path d="M29.37 42.216c.765-11.573-17.117-11.573-16.351 0 .666-9.72 15.684-9.72 16.35 0z" style="fill:#cfd8dd"/><path d="M29.37 41.842c.765-11.574-17.117-11.574-16.351 0 .666-9.72 15.684-9.72 16.35 0z" style="fill:#fff"/><path d="M13.118 37.502c3.413-7.553 10.51-4.628 10.51-4.628s-6.705-1.696-10.51 4.628zm14.613 2.525c-3.4-3.696-8.72-4.346-8.72-4.346s6.163-.886 8.72 4.346z" style="fill:#ffca25"/><path d="M40.836 32.236c.14-.15.365-.372.628-.439-.558-.071-1.168.046-1.618.391a.514.514 0 0 1-.095-.534c-.635.408-.721.832-.721.832-.217-.241-.26-.582-.26-.582s-.679.5-.514 1.116c-.666-.173-1.18.155-1.18.155s.327.083.502.307c1.046.132 3.308-.637 3.258-1.245z" style="fill:#f9a307"/><path d="M34.55 42.108c1.065.13 1.833 3.73 1.164 4.68-.094.133-.643.344-1.05-.494-.225-.464-.876-.852-1.077-1.81-.259-1.227-.097-2.505.962-2.376z" style="fill:#ffc940"/><path d="M34.578 42.798c.278.088.581.516.746 1.226-.972-.21-.729 1.422.115 1.453a7.096 7.096 0 0 1-.038.51c-.407-.595-.82-.356-1.23-1.243-.369-.8-.28-2.163.407-1.946z" style="fill:#f0a429"/><path d="M51.664 42.108c-1.064.13-1.834 3.73-1.163 4.68.093.133.642.344 1.05-.494.225-.464.875-.852 1.076-1.81.259-1.227.098-2.506-.963-2.376z" style="fill:#ffc940"/><path d="M50.891 44.022c.165-.709.467-1.136.744-1.224.69-.218.777 1.147.408 1.946-.41.887-.823.648-1.23 1.243a7.098 7.098 0 0 1-.038-.511c.835-.04 1.075-1.653.116-1.454z" style="fill:#f0a429"/><path d="M43.108 32.858c-5.822 0-8.627 4.404-8.275 10.529.07 1.232.833 4.047 1.555 5.489 1.274 2.545 4.6 4.442 6.72 4.442 2.117 0 5.446-1.897 6.719-4.442.722-1.442 1.486-4.257 1.555-5.49.353-6.124-2.452-10.528-8.274-10.528z" style="fill:#ffc940"/><path d="M44.464 46.828c-.143-.1-.48.054-1.357.054-.876 0-1.214-.154-1.358-.054-.171.122.103.669 1.358.669 1.255 0 1.53-.547 1.357-.669zm-1.357 1.952c-1.312-.386-3.258.183-3.258.183.74.807 1.284 1.853 3.258 1.853 2.262 0 2.647-1.188 3.259-1.853 0 0-1.947-.57-3.259-.183z" style="fill:#f0a429"/><path d="M40.337 49.1c1.377 1.155 4.155 1.162 5.54 0a81.02 81.02 0 0 1-5.54 0zm1.515-5.268c.048.374-.205.816-.907 1.148-.446.211-1.374.46-2.593-.054-.546-.23-1.078-.948-1.03-1.345.66-1.245 3.912-1.428 4.53.25z" style="fill:#fff"/><linearGradient id="f" x1="-422.389" x2="-422.389" y1="475.403" y2="475.791" gradientTransform="matrix(6.5701 0 0 -6.5701 2814.782 3168.527)" gradientUnits="userSpaceOnUse"><stop offset="0" style="stop-color:#a6694a"/><stop offset="1" style="stop-color:#4f2a1e"/></linearGradient><path d="M39.646 42.53a1.277 1.277 0 1 1 0 2.554 1.277 1.277 0 0 1 0-2.555z" style="fill:url(#f)"/><path d="M39.008 43.783c0 .884 1.277.884 1.277 0 0-.82-1.277-.82-1.277 0z" style="fill:#1a1626"/><path d="M38.814 43.426c0 .37.535.37.535 0 0-.344-.535-.344-.535 0z" style="fill:#ab968c"/><path d="M41.858 43.881c-.519-1.667-4.055-1.421-4.536-.3.178-1.435 4.094-1.814 4.536.3z" style="fill:#f0a429"/><path d="M44.363 43.832c-.048.374.205.816.907 1.148.446.211 1.373.46 2.593-.054.546-.23 1.078-.948 1.03-1.345-.66-1.245-3.912-1.428-4.53.25z" style="fill:#fff"/><linearGradient id="g" x1="-424.038" x2="-424.038" y1="475.403" y2="475.791" gradientTransform="matrix(6.5701 0 0 -6.5701 2832.512 3168.527)" gradientUnits="userSpaceOnUse"><stop offset="0" style="stop-color:#a6694a"/><stop offset="1" style="stop-color:#4f2a1e"/></linearGradient><path d="M46.54 42.53a1.278 1.278 0 1 1 0 2.555 1.278 1.278 0 0 1 0-2.556z" style="fill:url(#g)"/><path d="M45.902 43.783c0 .884 1.277.884 1.277 0 0-.82-1.277-.82-1.277 0z" style="fill:#1a1626"/><path d="M45.708 43.426c0 .37.535.37.535 0 0-.344-.535-.344-.535 0z" style="fill:#ab968c"/><path d="M44.357 43.881c.518-1.666 4.052-1.427 4.536-.3-.18-1.435-4.094-1.814-4.536.3z" style="fill:#f0a429"/><path d="M48.975 41.842c-1.098-.694-3.311-.895-4.178-.54-.185.067-.124.648.03.605 1.194-.357 3.05-.223 4.079.356.137.076.237-.324.07-.421zm-11.737 0c1.1-.694 3.312-.895 4.179-.54.185.067.125.648-.03.605-1.196-.357-3.05-.223-4.08.357-.136.075-.236-.325-.069-.422z" style="fill:#bb7c0a"/><path d="M39.646 32.736c-4.207.19-7.656 6.452-4.456 12.753 0 0 .256-5.493 2.575-7.132-.126 1.036-.402 1.768-.402 1.768s2.275-.36 4.278-1.638c-.233 1.145-.86 1.964-.86 1.964s4.137-.577 5.366-2.524c0 0 .81 1.705 2.817 2.934 0 0 .125-1.28-.152-2.184 1.967 1.935 2.198 6.803 2.198 6.803 4.148-9.1-3.976-16.723-11.364-12.744z" style="fill:#f9a307"/><path d="M39.988 32.927c-.125.682-.1 1.41-.1 1.41s-.405-.706-.326-1.28c-.878.677-2.081 2.019-2.081 2.019s.572-1.005 1.212-1.739c-4.23 1.237-5.065 6.47-4.048 9.261.49-2.601 1.85-4.684 4.169-6.222 0 0-.092 1.89-.922 2.925 2.452-.422 4.541-2.349 4.49-4.288.45 1.801.373 3.348-.641 4.777 2.077-.213 4.441-2.088 4.535-3.786.427 1.698.936 2.878 2.275 3.782 0-1.84-.907-3.56-.907-3.56s2.688 1.711 3.738 6.857c1.703-9.474-6.116-12.57-10.905-10.552 1.129.05 1.743.302 1.743.302s-1.266-.114-2.232.094z" style="fill:#ffb80d"/><path d="m48.517 37.69.358 1.227s1.68 2.228 2.135 6.563c.21-4.686-2.493-7.79-2.493-7.79zm-2.276.194-.092.267s.724 1.797 2.814 2.71c-1.694-1.071-2.722-2.977-2.722-2.977z" style="fill:#e68c00"/><path d="M46.42 36.857c.335 3.133-5.64 3.594-5.64 3.594s5.198-1.019 5.64-3.594zm-4.267.99c-1.036 1.96-4.79 2.278-4.79 2.278s2.901-.67 4.79-2.278zm-4.047.101c-2.675 3.134-2.916 7.54-2.916 7.54s-.707-4.732 2.916-7.54z" style="fill:#e68c00"/><path d="M51.382 43.083c.323-2.632-1.862-6.595-1.862-6.595s3.189 2.62 1.862 6.595z" style="fill:#f9a307"/><path d="M50.828 37.417c-3.48-6.228-9.355-5.045-9.355-5.045s6.84-1.835 9.355 5.045zm-12.213 1.451c2.577-2.075 2.166-4.983 2.166-4.983s1.326 3.134-2.166 4.983z" style="fill:#ffca25"/><path d="M47.9 38.38c-.65-2.164-2.054-4.495-2.054-4.495s1.906 1.504 2.053 4.495zm2.359.488c-.916-2.065-2.861-4.476-2.861-4.476s2.339 1.527 2.86 4.476zM37.4 34.392c-2.146 2.588-2.666 5.773-2.666 5.773s-.35-3.913 2.665-5.773zm5.302 4.85c1.646-2.68.272-5.277.272-5.277s2.183 2.524-.272 5.277z" style="fill:#ffca25"/><path d="M41.74 39.79c3.827-1.136 3.2-4.84 3.2-4.84s1.323 4.79-3.2 4.84z" style="fill:#f9a307"/></svg>