<svg xmlns="http://www.w3.org/2000/svg" xml:space="preserve" style="enable-background:new 0 0 64 64" viewBox="0 0 64 64"><path d="m8.726 29.634 3.593-1.317 12.071.011 3.571 1.31s.891 7.854.545 10.445c-.56 4.195.825 21.823.825 21.823S8.636 61.74 8.636 59.002c0-3.792.895-9.616.859-12.002-.05-3.23-.715-2.71-1.277-6.917-.345-2.591.508-10.45.508-10.45z" style="fill:#8e3ed6"/><radialGradient id="a" cx="26.603" cy="30" r="17.875" gradientTransform="translate(-8.211)" gradientUnits="userSpaceOnUse"><stop offset="0" style="stop-color:#bf6000"/><stop offset=".397" style="stop-color:#dc8103"/><stop offset=".772" style="stop-color:#f19a06"/><stop offset="1" style="stop-color:#f9a307"/></radialGradient><path d="M23.019 29.534c9.334-3.734 8.4-14.934 8.4-14.934H5.287s-.933 11.2 8.4 14.934c0 0 1.867.466 4.666.466 2.801 0 4.667-.466 4.667-.466z" style="fill:url(#a)"/><path d="m33.44 58 8.905 3.74s12.36-.52 12.36-2.292V58H33.44z" style="fill:#2b4f87"/><path d="M57.826 31.723c-1.272-1.645-7.427-3.657-7.427-3.657l-11.658.019s-6.12 2.006-7.387 3.641c-2.084 2.689-2.849 5.358-2.849 5.358l4.934 3V58h21.266V45.084l4.93-4.93s.27-5.74-1.81-8.43z" style="fill:#3ab0a2"/><path d="M38.74 28.085c0 4.888 11.659 4.87 11.659-.02l-1.169-.412h-9.27l-1.22.432z" style="fill:#2b998d"/><path d="M39.575 27.79c0 3.826 9.993 3.826 9.993 0v-4.234h-9.993v4.234zm-8.983 3.936c-1.268-1.635-2.63-2.087-2.63-2.087l.545 10.445s1.367 2.666 4.933 3.947v-6.875s-.764-2.741-2.848-5.43zm-7.77-3.952v-4.218h-8.917v4.203l-1.586.558c0 3.949 5.167 6.315 6.045 6.315.873 0 6.026-2.364 6.026-6.304l-1.568-.554z" style="fill:#f5bb51"/><path d="M32.234 62h-.184.184z" style="opacity:.5;fill:#1a1626"/><path d="m35.533 52.721-7.792.012s-4.09 1.331-4.937 2.416c-1.186 1.519-1.731 5.412-1.867 6.535 3.45.21 7.28.315 11.113.316h.184c3.467-.001 6.93-.088 10.111-.26-.119-1.047-.645-5.049-1.85-6.593-.849-1.092-4.962-2.426-4.962-2.426z" style="fill:#8feaff"/><path d="M27.74 52.733c0 3.242 7.793 3.23 7.793-.012l-.781-.274h-6.196l-.815.286z" style="fill:#67dbf5"/><path d="M28.298 52.538c0 2.538 6.68 2.538 6.68 0V49.73h-6.68v2.807z" style="fill:#f5bb51"/><path d="m24.77 61.869-.3-.012c0-3.68.3-3.669.3.012zm14.034.024-.3.013c0-3.68.3-3.694.3-.013z" style="fill:#67dbf5"/><path d="M18.353 3.4c-6.772 0-10.035 5.516-9.627 12.607.084 1.425.48 3.481.97 5.243 1.015 3.663 6.375 7.35 8.657 7.35s7.641-3.687 8.657-7.35c.49-1.762.886-3.818.97-5.243C28.387 8.916 25.126 3.4 18.353 3.4z" style="fill:#ffc940"/><path d="M18.352 22.843c-1.587-.698-1.6-.028-4.05.136.92 1.045 1.598 2.387 4.05 2.387 2.814 0 3.29-1.525 4.052-2.387-2.453-.164-2.463-.834-4.052-.136z" style="fill:#d47706"/><path d="M15.038 23.24c1.6 1.664 5.05 1.642 6.63 0-2.463.265-4.166.265-6.63 0z" style="fill:#fff"/><path d="M25.55 13.648c-1.472-.877-4.112-.985-5.155-.387-.222.12-.162.754.029.675 1.49-.62 3.759-.651 5.157.066.187.095.191-.227-.032-.354zm-14.394 0c1.471-.877 4.11-.985 5.156-.387.222.12.163.754-.03.675-1.49-.62-3.757-.652-5.157.066-.188.095-.191-.227.031-.354z" style="fill:#bb7c0a"/><path d="M19.875 20.593c-.161-.113-.54.061-1.523.061-.982 0-1.36-.174-1.522-.061-.193.136.114.75 1.522.75 1.409 0 1.717-.613 1.523-.75z" style="fill:#f0a429"/><path d="M16.846 16.308c.058.448-.247.979-1.089 1.377-.535.254-1.648.552-3.11-.065-.656-.276-1.295-1.137-1.237-1.613.793-1.495 4.695-1.713 5.436.301z" style="fill:#fff"/><linearGradient id="b" x1="-426.262" x2="-426.262" y1="479.554" y2="480.02" gradientTransform="matrix(6.5701 0 0 -6.5701 2814.782 3168.527)" gradientUnits="userSpaceOnUse"><stop offset="0" style="stop-color:#a6694a"/><stop offset="1" style="stop-color:#4f2a1e"/></linearGradient><path d="M14.199 14.745a1.533 1.533 0 1 1 0 3.066 1.533 1.533 0 0 1 0-3.066z" style="fill:url(#b)"/><path d="M13.433 16.25c0 1.06 1.533 1.06 1.533 0 0-.985-1.533-.985-1.533 0z" style="fill:#1a1626"/><path d="M13.2 15.82c0 .445.642.445.642 0 0-.412-.642-.412-.642 0z" style="fill:#ab968c"/><path d="M16.854 16.367c-.623-2-4.866-1.705-5.444-.36.214-1.722 4.913-2.177 5.444.36z" style="fill:#45332c"/><path d="M19.86 16.308c-.058.448.247.979 1.089 1.377.535.254 1.648.552 3.11-.065.657-.276 1.295-1.137 1.238-1.613-.792-1.495-4.695-1.713-5.437.301z" style="fill:#fff"/><linearGradient id="c" x1="-427.701" x2="-427.701" y1="479.554" y2="480.02" gradientTransform="matrix(6.5701 0 0 -6.5701 2832.512 3168.527)" gradientUnits="userSpaceOnUse"><stop offset="0" style="stop-color:#a6694a"/><stop offset="1" style="stop-color:#4f2a1e"/></linearGradient><path d="M22.473 14.745a1.533 1.533 0 1 1 0 3.066 1.533 1.533 0 0 1 0-3.066z" style="fill:url(#c)"/><path d="M21.707 16.25c0 1.06 1.533 1.06 1.533 0 0-.985-1.533-.985-1.533 0z" style="fill:#1a1626"/><path d="M21.474 15.82c0 .445.643.445.643 0 0-.412-.643-.412-.643 0z" style="fill:#ab968c"/><path d="M19.853 16.367c.622-2 4.863-1.713 5.444-.36-.215-1.722-4.914-2.177-5.444.36z" style="fill:#45332c"/><path d="M25.975 4.39c.773-1.103-5.777-3.435-11.961-1.86-6.178 1.415-9.66 8.182-9.66 16.724 0 3.418 2.276 7.726 6.633 9.552l1.19-.437c-4.99-4.291-3.94-8.621-2.224-13.768 4.64-2.686 9.89-3.319 13.534-6.534-.467 1.4 2.003 3.166 3.266 6.534 1.758 4.687 2.73 9.44-2.232 13.775l1.044.397c4.137-1.845 6.788-6.122 6.788-9.519 0-10.098-3.902-15.578-6.378-14.863z" style="fill:#ffb80d"/><path d="M25.975 4.39c.743-.89-2.567-2.372-6.738-2.372 5.118.404 6.863 3.177 5.443 2.444-1.514-.782-5.215-1.917-10.171.33 5.423-1.155 10.412.106 9.636.759-1.225 1.03-6.623-1.776-14.183 5.125-1.042.95 4.535-3.648 12.019-3.793-1.041 2.189-14.353 5.66-16.418 11.102C9.028 13.039 23.641 11.2 25.975 4.39zm3.389 7.926s3.246 8.803-2.193 14.907c7.79-6.104 2.193-14.907 2.193-14.907z" style="fill:#f9a307"/><path d="M10.244 14.348s-1.327.242-2.411 1.419c-2.27 8.015 3.154 11.456 3.154 11.456s-4.302-4.413-.743-12.875z" style="fill:#f9a307"/><path d="M6.85 16.529s-.622.244-1.384 1.804C4.76 23.22 8.192 25.71 8.192 25.71s-3.218-3.93-1.341-9.181zm24.26-6.233C28.743 2.93 25.975 4.39 25.975 4.39s-1.332 2.493-2.392 3.368c-1.916 2.353 4.672 4.37 4.5 14.563 1.741-7.242-3.1-12.084-3.179-13.377-.088-1.465 1.13-3.719 2.08-3.99 1.03-.293 3.39 3.345 4.126 5.34z" style="fill:#f9a307"/><path d="M5.466 18.333c3.749-6.115 17.625-5.702 20.509-13.942-4.86 7.517-19.58 8.77-20.509 13.942z" style="fill:#e68c00"/><path d="M25.84 7.682s3.076 6.591 3.581 12.192c.837-8.611-3.58-12.192-3.58-12.192zM9.292 13.297S13.765 10.395 19.364 8c-5.994.36-10.072 5.298-10.072 5.298zm-2.762-.592s3.515-5.615 9.924-7.248c-8.917-.583-9.923 7.248-9.923 7.248z" style="fill:#ffca25"/><path d="M54.67 13.946c-1.562.188-2.69 5.416-1.707 6.797.138.192.943.5 1.54-.718.33-.675 1.284-1.238 1.58-2.629.379-1.782.143-3.639-1.413-3.45zm-20.19 0c1.563.188 2.691 5.416 1.708 6.797-.139.192-.943.5-1.541-.718-.33-.675-1.284-1.238-1.58-2.629-.38-1.782-.142-3.639 1.413-3.45z" style="fill:#ffc940"/><path d="M54.629 14.947c-.408.128-.854.75-1.094 1.781 1.424-.306 1.068 2.066-.17 2.11.011.239.027.484.057.742.596-.865 1.203-.519 1.803-1.807.542-1.16.413-3.142-.596-2.826zm-19.013 1.778c-.242-1.03-.686-1.65-1.094-1.779-1.008-.316-1.139 1.666-.597 2.827.6 1.288 1.208.94 1.805 1.806.029-.258.046-.504.055-.743-1.226-.057-1.577-2.4-.169-2.11z" style="fill:#f0a429"/><path d="M44.575 3.891c-6.772 0-10.034 5.119-9.626 12.235.082 1.432.972 6.102 1.81 7.778.858 1.714 3.73 4.357 5.488 4.904 1.111.345 3.545.345 4.655 0 1.76-.547 4.632-3.19 5.49-4.904.84-1.676 1.728-6.345 1.808-7.778.41-7.116-2.852-12.235-9.625-12.235z" style="fill:#ffc940"/><path d="M51.932 13.424c-1.548-.821-4.511-.861-5.616-.288-.237.109-.08.885.119.812 1.537-.609 4.02-.622 5.46.052.192.087.272-.463.037-.576zm-14.714 0c1.548-.821 4.51-.861 5.616-.288.236.109.08.885-.118.812-1.541-.609-4.02-.622-5.462.052-.19.087-.27-.463-.036-.576z" style="fill:#bb7c0a"/><path d="M46.403 20.53c-.194-.134-.647.073-1.828.073-1.179 0-1.633-.208-1.827-.073-.231.163.137.898 1.827.898s2.06-.735 1.828-.898z" style="fill:#f0a429"/><path d="M43.068 16.214c.058.45-.247.98-1.089 1.378-.534.254-1.649.551-3.11-.066-.656-.276-1.295-1.135-1.237-1.611.793-1.494 4.694-1.713 5.436.3z" style="fill:#fff"/><linearGradient id="d" x1="-1208.008" x2="-1208.008" y1="170.752" y2="170.286" gradientTransform="translate(7977.155 -1104.145) scale(6.5701)" gradientUnits="userSpaceOnUse"><stop offset="0" style="stop-color:#a6694a"/><stop offset="1" style="stop-color:#4f2a1e"/></linearGradient><path d="M40.422 14.654a1.533 1.533 0 1 1 0 3.065 1.533 1.533 0 0 1 0-3.065z" style="fill:url(#d)"/><path d="M39.655 16.156c0 1.06 1.533 1.06 1.533 0 0-.982-1.533-.982-1.533 0z" style="fill:#1a1626"/><path d="M39.423 15.727c0 .444.641.444.641 0 0-.41-.641-.41-.641 0z" style="fill:#ab968c"/><path d="M43.076 16.273c-.623-1.997-4.867-1.702-5.444-.359.213-1.72 4.913-2.175 5.444.359z" style="fill:#f0a429"/><path d="M46.082 16.214c-.057.45.246.98 1.09 1.378.534.254 1.647.551 3.109-.066.657-.276 1.295-1.135 1.238-1.611-.793-1.494-4.696-1.713-5.437.3z" style="fill:#fff"/><linearGradient id="e" x1="-1209.447" x2="-1209.447" y1="170.752" y2="170.286" gradientTransform="translate(7994.886 -1104.145) scale(6.5701)" gradientUnits="userSpaceOnUse"><stop offset="0" style="stop-color:#a6694a"/><stop offset="1" style="stop-color:#4f2a1e"/></linearGradient><path d="M48.694 14.654a1.532 1.532 0 1 1 .002 3.064 1.532 1.532 0 0 1-.002-3.064z" style="fill:url(#e)"/><path d="M47.929 16.156c0 1.06 1.533 1.06 1.533 0 0-.982-1.533-.982-1.533 0z" style="fill:#1a1626"/><path d="M47.695 15.727c0 .444.643.444.643 0 0-.41-.643-.41-.643 0z" style="fill:#ab968c"/><path d="M46.075 16.273c.621-1.996 4.863-1.71 5.443-.359-.215-1.72-4.913-2.175-5.443.359z" style="fill:#f0a429"/><path d="M52.636 6.026 51.094 7.89c3.12 1.914 1.375 6.913 2.792 10.555.483-3.633 2.74-11.56-1.25-12.42zm-16.184.923 1.541.943c-3.12 1.913-1.312 6.912-2.73 10.554-.482-3.633-2.8-10.637 1.19-11.497z" style="fill:#f9a307"/><path d="M51.002 7.363c1.982-.007 2.18 3.231 2.18 3.231s.594-3.687-1.923-3.687l-.257.456zm-14.346 1.6c-.795 1.94-1.076 3.935-1.076 3.935s-.419-1.397.582-3.865l.494-.07z" style="fill:#e68c00"/><path d="M51.792 6.608c1.549-.161 1.925 2.355 1.925 2.355s.212-2.93-1.756-2.732l-.169.377z" style="fill:#e68c00"/><path d="M52.635 6.026S50.325 2 44.544 2c-6.277 0-10.235 2.813-10.37 8.26 3.846-3.79 13.973 2.102 18.46-4.234z" style="fill:#ffb80d"/><path d="M52.635 6.026C52.043 4.167 48.895 2 44.544 2c2.411.17 5.59 1.365 5.917 2.12 0 0-3.336-1.799-7.836-1.01 4.127-.187 6.851 2.436 5.691 2.45-1.13.014-5.325.155-7.814 1.69 1.601-.108 4.763.753 4.619.809-3.188 1.233-9.586-1.7-10.9 2.2 4.941-4.233 14.368 2.585 18.414-4.233z" style="fill:#f9a307"/><path d="M52.635 6.026c-3.298 7.798-18.123-.923-17.778 5.607-1.514-7.493 12.899 1.749 17.778-5.607z" style="fill:#e68c00"/><path d="M51.732 7.194c-1.569-3.078-6.652-4.185-6.652-4.185s5.315.304 7.065 3.773l-.413.412zm-.806.697c-1.46-1.368-8.503-.885-8.503-.885s5.134-1.55 9.061.439l-.558.446z" style="fill:#e68c00"/><path d="M34.49 9.072s.69-5.602 10.32-5.183c-7.917 1.097-10.32 5.183-10.32 5.183z" style="fill:#f9a307"/><path d="M35.085 8.75s3.815-4.992 12.19-3.733c-6.988-.204-12.19 3.734-12.19 3.734zm-.21-1.744s4.188-4.71 11.054-4.63c-7.933-1.055-11.054 4.63-11.054 4.63z" style="fill:#ffca25"/><path d="M44.575 23.472c-1.522-.449-3.78.213-3.78.213.86.935 1.489 2.151 3.78 2.151 2.625 0 3.072-1.38 3.78-2.15 0 0-2.258-.664-3.78-.214z" style="fill:#f0a429"/><path d="M41.361 23.844c1.597 1.34 4.822 1.347 6.428 0a94.363 94.363 0 0 1-6.428 0z" style="fill:#fff"/><path d="M29.366 32.236c.14-.15.365-.372.628-.439-.558-.071-1.168.046-1.618.391a.514.514 0 0 1-.095-.534c-.635.408-.722.832-.722.832-.216-.241-.26-.582-.26-.582s-.678.5-.513 1.116c-.667-.173-1.18.155-1.18.155s.326.083.502.307c1.045.132 3.307-.637 3.258-1.246z" style="fill:#f9a307"/><path d="M23.079 42.108c1.065.13 1.834 3.73 1.165 4.68-.094.133-.644.344-1.05-.494-.226-.464-.876-.852-1.078-1.81-.258-1.227-.097-2.505.963-2.376z" style="fill:#ffc940"/><path d="M23.108 42.798c.278.088.581.516.746 1.226-.972-.211-.73 1.422.115 1.452a7.103 7.103 0 0 1-.039.511c-.406-.595-.82-.356-1.23-1.243-.368-.8-.28-2.164.408-1.946z" style="fill:#f0a429"/><path d="M40.194 42.108c-1.065.13-1.835 3.73-1.164 4.68.094.133.643.344 1.05-.494.226-.464.875-.852 1.077-1.81.259-1.227.097-2.506-.963-2.376z" style="fill:#ffc940"/><path d="M39.42 44.021c.165-.708.467-1.135.745-1.223.689-.218.776 1.147.407 1.946-.409.887-.822.648-1.229 1.243a7.096 7.096 0 0 1-.038-.511c.835-.04 1.075-1.653.115-1.455z" style="fill:#f0a429"/><path d="M31.637 32.858c-5.822 0-8.627 4.404-8.275 10.529.07 1.231.834 4.047 1.556 5.489 1.274 2.545 4.6 4.442 6.719 4.442 2.118 0 5.447-1.897 6.72-4.442.722-1.442 1.485-4.257 1.555-5.49.352-6.124-2.453-10.528-8.275-10.528z" style="fill:#ffc940"/><path d="M32.994 46.828c-.144-.1-.481.054-1.357.054s-1.214-.154-1.358-.054c-.172.122.102.668 1.358.668 1.255 0 1.53-.546 1.357-.668zm-1.357 1.952c-1.313-.386-3.258.183-3.258.183.74.807 1.283 1.853 3.258 1.853 2.261 0 2.647-1.188 3.258-1.853 0 0-1.947-.57-3.258-.183z" style="fill:#f0a429"/><path d="M28.867 49.1c1.376 1.155 4.155 1.162 5.54 0a81.084 81.084 0 0 1-5.54 0zm1.514-5.268c.048.374-.205.816-.907 1.148-.446.211-1.374.46-2.592-.054-.546-.23-1.078-.948-1.03-1.345.66-1.245 3.911-1.428 4.53.25z" style="fill:#fff"/><linearGradient id="f" x1="-424.135" x2="-424.135" y1="475.403" y2="475.791" gradientTransform="matrix(6.5701 0 0 -6.5701 2814.782 3168.527)" gradientUnits="userSpaceOnUse"><stop offset="0" style="stop-color:#a6694a"/><stop offset="1" style="stop-color:#4f2a1e"/></linearGradient><circle cx="28.176" cy="43.807" r="1.277" style="fill:url(#f)"/><path d="M27.537 43.783c0 .884 1.277.884 1.277 0 0-.82-1.277-.82-1.277 0z" style="fill:#1a1626"/><path d="M27.343 43.426c0 .37.536.37.536 0 0-.344-.536-.344-.536 0z" style="fill:#ab968c"/><path d="M30.388 43.881c-.52-1.667-4.055-1.421-4.536-.3.177-1.435 4.094-1.814 4.536.3z" style="fill:#f0a429"/><path d="M32.893 43.832c-.049.374.205.816.907 1.148.445.211 1.373.46 2.592-.054.546-.23 1.078-.948 1.03-1.345-.66-1.245-3.912-1.428-4.53.25z" style="fill:#fff"/><linearGradient id="g" x1="-425.784" x2="-425.784" y1="475.403" y2="475.791" gradientTransform="matrix(6.5701 0 0 -6.5701 2832.512 3168.527)" gradientUnits="userSpaceOnUse"><stop offset="0" style="stop-color:#a6694a"/><stop offset="1" style="stop-color:#4f2a1e"/></linearGradient><path d="M35.07 42.53a1.278 1.278 0 1 1 0 2.555 1.278 1.278 0 0 1 0-2.556z" style="fill:url(#g)"/><path d="M34.432 43.783c0 .884 1.277.884 1.277 0 0-.82-1.277-.82-1.277 0z" style="fill:#1a1626"/><path d="M34.237 43.426c0 .37.535.37.535 0 0-.344-.535-.344-.535 0z" style="fill:#ab968c"/><path d="M32.886 43.881c.518-1.667 4.052-1.428 4.536-.3-.179-1.435-4.094-1.814-4.536.3z" style="fill:#f0a429"/><path d="M37.505 41.842c-1.099-.694-3.312-.895-4.178-.54-.186.067-.125.648.03.605 1.194-.357 3.05-.223 4.078.356.138.076.237-.324.07-.421zm-11.737 0c1.099-.694 3.311-.895 4.179-.54.184.067.124.648-.03.605-1.197-.357-3.05-.223-4.08.357-.137.075-.236-.325-.07-.422z" style="fill:#bb7c0a"/><path d="M28.176 32.736c-4.207.19-7.657 6.452-4.456 12.753 0 0 .256-5.493 2.574-7.132-.126 1.036-.402 1.768-.402 1.768s2.275-.36 4.279-1.638c-.234 1.145-.86 1.964-.86 1.964s4.137-.577 5.365-2.524c0 0 .811 1.705 2.817 2.934 0 0 .125-1.28-.151-2.184 1.966 1.935 2.198 6.803 2.198 6.803 4.148-9.1-3.976-16.723-11.364-12.744z" style="fill:#f9a307"/><path d="M28.518 32.927c-.126.682-.1 1.409-.1 1.409s-.405-.705-.326-1.279c-.878.677-2.082 2.019-2.082 2.019s.572-1.005 1.212-1.739c-4.229 1.237-5.065 6.47-4.048 9.261.49-2.601 1.85-4.684 4.17-6.222 0 0-.093 1.89-.923 2.925 2.453-.422 4.541-2.349 4.491-4.288.45 1.801.372 3.347-.642 4.777 2.078-.213 4.442-2.088 4.535-3.786.427 1.698.936 2.878 2.276 3.782 0-1.84-.908-3.56-.908-3.56s2.688 1.711 3.738 6.857c1.704-9.474-6.115-12.57-10.904-10.552 1.128.05 1.742.302 1.742.302s-1.266-.114-2.231.094z" style="fill:#ffb80d"/><path d="m37.046 37.69.358 1.227s1.681 2.228 2.136 6.563c.21-4.686-2.494-7.79-2.494-7.79zm-2.276.194-.091.268s.723 1.796 2.814 2.709c-1.694-1.071-2.722-2.977-2.722-2.977z" style="fill:#e68c00"/><path d="M34.949 36.857c.336 3.133-5.639 3.594-5.639 3.594s5.198-1.019 5.639-3.594zm-4.266.99c-1.037 1.96-4.791 2.278-4.791 2.278s2.902-.67 4.79-2.278zm-4.047.101c-2.676 3.134-2.917 7.54-2.917 7.54s-.706-4.732 2.917-7.54z" style="fill:#e68c00"/><path d="M39.911 43.083c.323-2.632-1.862-6.595-1.862-6.595s3.19 2.62 1.862 6.595z" style="fill:#f9a307"/><path d="M39.357 37.417c-3.48-6.228-9.355-5.045-9.355-5.045s6.84-1.835 9.355 5.045zm-12.213 1.451c2.577-2.075 2.166-4.983 2.166-4.983s1.327 3.134-2.166 4.983z" style="fill:#ffca25"/><path d="M36.429 38.38c-.649-2.164-2.053-4.495-2.053-4.495s1.905 1.504 2.053 4.495zm2.359.488c-.915-2.065-2.86-4.476-2.86-4.476s2.338 1.527 2.86 4.476zm-12.859-4.476c-2.145 2.588-2.665 5.773-2.665 5.773s-.35-3.913 2.665-5.773zm5.303 4.85c1.646-2.68.272-5.277.272-5.277s2.182 2.524-.273 5.276z" style="fill:#ffca25"/><path d="M30.27 39.79c3.827-1.136 3.2-4.84 3.2-4.84s1.322 4.79-3.2 4.84z" style="fill:#f9a307"/><path d="M59.635 45.084 59.5 40.29s-2.857 1.677-6.19 1.809c.118 1.82.395 2.985.395 2.985-3.16 1.11-9.138 6.838-11.638 7.637-1.764.564-3.589-.238-4.589.731.782.36 1.094.52 1.094.52.968 1.182-3.78 3.166-2.191 4.029 0 .23.33.601.749.601.098.282.527.429.82.337.454.51 2.175.037 3.87-1.88.233-.261 1.443-1.426 2.2-1.707 1.978-.735 11.574-3.857 14.95-6.479.502-.39.702-2.433.665-3.789zm-34.934 8.887s.313-.16 1.094-.519c-1-.97-3.033-.104-4.797-.668-2.5-.8-8.437-5.355-11.437-7.438 0 0-1.48-4.333-.835-15.712 0 0-1.386.422-2.628 2.09-1.35 1.812-1.46 10.515-1.46 14.195 0 1.065.698 2.295 1.146 2.644 3.375 2.622 11.234 5.555 13.47 6.789.707.39 1.967 1.446 2.199 1.707 1.695 1.917 3.416 2.39 3.871 1.88.292.091.721-.055.82-.337.42 0 .748-.371.748-.601 1.589-.863-3.159-2.847-2.191-4.03z" style="fill:#f5bb51"/><path d="M26.892 58c-1.125-.709-2.728-1.94-2.728-1.94s1.258 1.343 2.728 1.94zm-.749.602c-1.042-.602-2.885-2.136-2.885-2.136s1.371 1.667 2.885 2.136zm-.819.338c-1.088-.413-2.723-1.802-2.723-1.802s1.775 1.776 2.723 1.801zm13.786-2.88s-1.604 1.231-2.73 1.94c1.472-.597 2.73-1.94 2.73-1.94zm.906.406s-1.844 1.533-2.886 2.136c1.514-.47 2.886-2.136 2.886-2.136zM37.95 58.94c.948-.026 2.722-1.802 2.722-1.802s-1.635 1.389-2.723 1.801z" style="fill:#f0a429"/></svg>