<svg xmlns="http://www.w3.org/2000/svg" xml:space="preserve" style="enable-background:new 0 0 64 64" viewBox="0 0 64 64"><path d="M42.83 32.75s-3.881-.458-7.733-2.398c1.776-5.883 2.952-10.69 5.175-13.18.408 1.61 3.41-1.486 4.816-1.611 5.164 4.289-2.055 10.466-2.258 17.19z" style="fill:#3ab0a2"/><path d="M8.298 48.337s-.541.263-.165.416c4.777 1.934 10.428 2.76 10.428 2.76.24-.203.128-.512.128-.512L8.298 48.337z" style="fill:#6e8189"/><path d="M16.299 46.988c-4.692-.18-7.753.02-8.001 1.349C14.224 50.43 18.688 51 18.688 51c1.37-2.45-.302-3.59-2.39-4.013z" style="fill:#99a8ae"/><path d="M11.354 47.023c.765 1.026 1.357 1.29 1.523.682.54.534.937.233.997-.133.606.388.933-.16.262-.933-.387-.413-2.988.109-2.782.384z" style="fill:#1a1626"/><path d="M44.102 34.067s.425-1.941-9.005-3.715c-7.496.381-12.882 1.492-13.698 2.117-1.395 1.066-3.708 7.514-7.263 14.17 1.115 1.936 4.733 4.093 5.225 2.762 1.667-4.512 5.614-10.958 5.614-10.958 9.965-1.063 19.761 2.833 19.127-4.376z" style="fill:#2b4f87"/><path d="M46.075 20.854c-1.723 7.58-2.429 9.96-1.709 16.68 3.123-4.894 1.71-16.68 1.71-16.68z" style="fill:#013366"/><linearGradient id="a" x1="34.492" x2="34.492" y1="42.743" y2="37.657" gradientUnits="userSpaceOnUse"><stop offset="0" style="stop-color:#23212b"/><stop offset=".314" style="stop-color:#32333c"/><stop offset=".939" style="stop-color:#576169"/><stop offset="1" style="stop-color:#5b666e"/></linearGradient><path d="M24.975 37.657H44.01v5.087H24.975z" style="fill:url(#a)"/><path d="M42.92 35.113v14.462h1.453V35.113c0-1.202-.977-2.18-2.18-2.18h-15.4a2.183 2.183 0 0 0-2.181 2.18v14.534h1.454V35.113c0-.4.326-.727.726-.727h15.401c.4 0 .727.326.727.727z" style="fill:#e81c27"/><linearGradient id="b" x1="34.779" x2="34.779" y1="33.236" y2="31.702" gradientUnits="userSpaceOnUse"><stop offset="0" style="stop-color:#23212b"/><stop offset=".314" style="stop-color:#32333c"/><stop offset=".939" style="stop-color:#576169"/><stop offset="1" style="stop-color:#5b666e"/></linearGradient><path d="M41.83 32.213c-3.249-.299-13.468-.68-14.63-.43-.929.199-1.314 1.453-.727 1.453h16.47c1.07 0-.127-.932-1.114-1.023z" style="fill:url(#b)"/><linearGradient id="c" x1="15.311" x2="15.311" y1="56.729" y2="53.538" gradientTransform="rotate(-1.403 -168.287 152.45)" gradientUnits="userSpaceOnUse"><stop offset="0" style="stop-color:#23212b"/><stop offset=".314" style="stop-color:#32333c"/><stop offset=".939" style="stop-color:#576169"/><stop offset="1" style="stop-color:#5b666e"/></linearGradient><path d="M17.323 50.778s-7.166-1.672-8.058-1.481c-.394.084-.722 1.139-.722 1.139l8.435 1.858.345-1.516z" style="fill:url(#c)"/><path d="m16.132 52.698 3.23-8.789a2.171 2.171 0 0 1 2.08-1.529h22.205v1.454H21.445c-.32 0-.6.205-.694.51l-3.232 8.79-1.387-.436z" style="fill:#c30000"/><path d="M24.25 48.92h19.398v1.454H24.25zm20.123-10.477V33.66c0-.825.178-1.892.451-3.059h-1.482c-.255 1.15-.422 2.21-.422 3.059v4.783h1.453z" style="fill:#c30000"/><path d="M23.727 58.004h5.815v.727h-5.815z" style="fill:#4e5e67" transform="rotate(-45.049 26.636 58.37)"/><path d="M26.271 55.46h.726v5.814h-.726z" style="fill:#4e5e67" transform="rotate(-45.001 26.633 58.367)"/><path d="M23.728 58.005h5.813v.725h-5.813z" style="fill:#4e5e67"/><path d="M26.272 55.461h.724v5.812h-.724z" style="fill:#4e5e67"/><linearGradient id="d" x1="26.634" x2="26.634" y1="62" y2="54.734" gradientUnits="userSpaceOnUse"><stop offset="0" style="stop-color:#767f82"/><stop offset=".318" style="stop-color:#8e979b"/><stop offset=".991" style="stop-color:#ccd5da"/><stop offset="1" style="stop-color:#cdd6db"/></linearGradient><path d="M26.591 62a3.637 3.637 0 0 1-3.59-3.676 3.635 3.635 0 0 1 3.675-3.59 3.639 3.639 0 0 1 3.591 3.676A3.636 3.636 0 0 1 26.591 62zm.073-6.133a2.5 2.5 0 1 0-.059 4.998 2.5 2.5 0 0 0 .059-4.998z" style="fill:url(#d)"/><path d="m17.875 52.206-9.59-2.344L8 51.452l9.494 2.262z" style="fill:#1a1626"/><linearGradient id="e" x1="49.866" x2="49.866" y1="22.328" y2="18.895" gradientUnits="userSpaceOnUse"><stop offset="0" style="stop-color:#767f82"/><stop offset=".318" style="stop-color:#8e979b"/><stop offset=".991" style="stop-color:#ccd5da"/><stop offset="1" style="stop-color:#cdd6db"/></linearGradient><path d="m53.217 20.205-6.306-1.303a.365.365 0 0 0-.433.288l-.254 1.295c-.062.321.496.686.768.741.439.09.49-.169.928-.08.44.091.387.352.826.443.44.09.49-.17.93-.078.438.089.387.35.826.44.439.09.49-.17.929-.08.44.093.39.352.83.443.277.058.927-.058.992-.384l.253-1.293a.372.372 0 0 0-.289-.432z" style="fill:url(#e)"/><linearGradient id="f" x1="42.702" x2="46.361" y1="26.846" y2="26.846" gradientUnits="userSpaceOnUse"><stop offset="0" style="stop-color:#23212b"/><stop offset=".314" style="stop-color:#32333c"/><stop offset=".939" style="stop-color:#576169"/><stop offset="1" style="stop-color:#5b666e"/></linearGradient><path d="M42.702 32.737c-.003-1.97 1.285-10.82 1.514-11.96.143-.709 2.278-.278 2.139.428-.224 1.108-1.477 9.656-1.473 11.527.002.731-2.179.723-2.18.005z" style="fill:url(#f)"/><path d="M27.043 57.605c-1.627-1.068-2.529-2.252-2.529-3.77V51.75l-1.57-.002v2.344c0 1.998 1.05 3.36 3.241 4.935 1.002.719 1.926-.72.858-1.422z" style="fill:#c30000"/><path d="M26.627 58.912a.546.546 0 1 1 .014-1.091.546.546 0 0 1-.014 1.09z" style="fill:#1a1626"/><path d="M31.835 49.193h23.623v.908H31.835z" style="fill:#4e5e67" transform="rotate(-44.96 43.642 49.645)"/><path d="M43.192 37.836h.908v23.623h-.908z" style="fill:#4e5e67" transform="rotate(-45.041 43.65 49.65)"/><path d="M31.835 49.193h23.623v.908H31.835z" style="fill:#4e5e67"/><path d="M43.192 37.835h.908v23.623h-.908z" style="fill:#4e5e67"/><linearGradient id="g" x1="43.646" x2="43.646" y1="62" y2="37.293" gradientUnits="userSpaceOnUse"><stop offset="0" style="stop-color:#767f82"/><stop offset=".318" style="stop-color:#8e979b"/><stop offset=".991" style="stop-color:#ccd5da"/><stop offset="1" style="stop-color:#cdd6db"/></linearGradient><path d="M43.647 62c-6.813 0-12.355-5.541-12.355-12.354 0-6.81 5.542-12.353 12.354-12.353C50.46 37.293 56 42.835 56 49.647 56 56.459 50.459 62 43.647 62zm0-22.89c-5.811 0-10.538 4.727-10.538 10.536 0 5.81 4.727 10.537 10.537 10.537 5.81 0 10.538-4.726 10.538-10.537 0-5.809-4.728-10.536-10.537-10.536z" style="fill:url(#g)"/><path d="M43.647 60.547c-6.011 0-10.9-4.889-10.9-10.9s4.889-10.9 10.9-10.9c6.01 0 10.9 4.889 10.9 10.9s-4.89 10.9-10.9 10.9zm0-21.073c-5.61 0-10.174 4.563-10.174 10.173S38.036 59.82 43.647 59.82c5.609 0 10.173-4.562 10.173-10.173 0-5.61-4.564-10.173-10.173-10.173z" style="fill:#767f82"/><path d="M43.647 59.093c-5.21 0-9.448-4.238-9.448-9.446s4.24-9.446 9.448-9.446 9.447 4.237 9.447 9.446-4.238 9.447-9.447 9.447zm0-17.803c-4.609 0-8.358 3.748-8.358 8.357 0 4.609 3.75 8.357 8.358 8.357 4.607 0 8.357-3.748 8.357-8.357 0-4.609-3.75-8.357-8.357-8.357z" style="fill:#e81c27"/><path d="M43.647 46.74a2.906 2.906 0 1 1 0 5.813 2.906 2.906 0 0 1 0-5.813z" style="fill:#3b484f"/><path d="M43.647 47.467a2.18 2.18 0 1 1-.002 4.361 2.18 2.18 0 0 1 .002-4.361z" style="fill:#98a7ad"/><path d="M43.647 48.557a1.09 1.09 0 0 1 0 2.18 1.09 1.09 0 0 1 0-2.18z" style="fill:#4e5e67"/><linearGradient id="h" x1="23.715" x2="23.715" y1="52.723" y2="48.316" gradientUnits="userSpaceOnUse"><stop offset="0" style="stop-color:#23212b"/><stop offset=".314" style="stop-color:#32333c"/><stop offset=".939" style="stop-color:#576169"/><stop offset="1" style="stop-color:#5b666e"/></linearGradient><path d="M22.819 48.52v3.999c0 .268 1.793.277 1.793 0v-4c0-.27-1.793-.271-1.793 0z" style="fill:url(#h)"/><linearGradient id="i" x1="39.012" x2="45.304" y1="13.958" y2="13.958" gradientUnits="userSpaceOnUse"><stop offset="0" style="stop-color:#deb38a"/><stop offset=".013" style="stop-color:#dfb48b"/><stop offset=".256" style="stop-color:#f1c8a2"/><stop offset=".487" style="stop-color:#fbd4af"/><stop offset=".693" style="stop-color:#ffd8b4"/></linearGradient><path d="M45.304 11.676c-1.528-3.85-3.582-.128-6.292 4.045.83-.371 1.26 1.02 1.26 1.451 0 1.37 2.167.593 4.816-1.611-.593-1.219.216-3.885.216-3.885z" style="fill:url(#i)"/><path d="M36.467 5.433c-.27.756-.956 2.388-.376 3.426.26.464-.25 1.562-.851 2.227-.26.289-.34.663-.182.878.242.33.653.145.835.395.296.407-.06.662-.058.84 0 0 1.04.178.438 1.11.105.106.331.06.178.82-.102.5.386 1.19 1.024 1.037 4.033-.961 5.367-1.631 5.73-4.405.581-4.448 1.613-9.29-6.738-6.328z" style="fill:#ffd8b4"/><path d="M35.834 13.199c-.07.496.902.874 1.589.344-1.08.172-1.31-.441-1.589-.344z" style="fill:#deb38a"/><path d="M36.275 13.733c-.245.177-.231.442-.002.575.47-.111.94-.26 1.15-.765-.538.287-1.148.19-1.148.19zm-1.277-1.893c.094.582 1.807.834 1.73-.043-.225.823-1.792-.337-1.73.042z" style="fill:#deb38a"/><path d="M38.07 9.646c-.327.529-1.086.652-1.086.652-.268-.236-.295-.813-.222-1.129.392-.062 1.307.477 1.307.477z" style="fill:#fff"/><linearGradient id="j" x1="-41.983" x2="-41.983" y1="12.173" y2="10.886" gradientTransform="matrix(.5738 -.061 .1057 .9944 59.787 -4.367)" gradientUnits="userSpaceOnUse"><stop offset="0" style="stop-color:#a6694a"/><stop offset="1" style="stop-color:#4f2a1e"/></linearGradient><path d="M36.65 9.721c.07.81.623.75.538-.057-.08-.75-.627-.982-.537.057z" style="fill:url(#j)"/><path d="M36.717 9.691c.04.381.257.358.217-.023-.037-.353-.254-.33-.217.024z" style="fill:#1a1626"/><path d="M36.846 9.515c.02.19.128.178.108-.011-.019-.176-.127-.164-.108.011z" style="fill:#ab968c"/><path d="M38.07 9.646c-.459-.498-.989-.7-1.357-.685-.072.171-.036.242-.036.242s.328-.107 1.392.443z" style="fill:#deb38a"/><path d="M38.033 8.522c-.428-.379-1.191-.673-1.903-.347-.103.047.022.476.105.44.547-.247 1.094-.167 1.78.239.08.047.103-.256.018-.332z" style="fill:#826d58"/><path d="M47.9 7.427c-.248-1.66-.937-2.657-.937-2.657C46.676 3.22 45.181 2 41.136 2c-4.18 0-5.905 2.228-4.806 3.808.117.167 2.342.462 3.859-.133 0 0 .035.848-.311 1.973-.213.693 1.082 1.082 1.258 2.083.303 1.715 1.154.813 2.085.479 2.047-.49 1.14 3.107 1.7 3.748 1.232-.802 3.547-2.726 2.979-6.53z" style="fill:#4f4236"/><path d="M45.823 12.761c.806-1.1.871-2.525.871-2.525s-.619 1.873-1.645 2.59c.839-1.553.472-2.598.472-2.598s.025.847-.684 2.044c-.122-.92-.327-3.064-.986-2.064 1.508 1.49-.315 4.653 1.07 3.75.995-.648 2.698-2.03 3.015-4.543 0 0-.362 2.063-2.113 3.346zm-4.151-7.337-.616.148s-.371 1.076.493 2.911c-.552-2.106.123-3.059.123-3.059zm1.87-.514-.55.107s-.355 1.337.859 3.082c-.923-2.036-.31-3.19-.31-3.19zm1.11-.21.457-.036s.672.424.738 2.095c-.43-1.586-1.195-2.059-1.195-2.059zm-.583-.03s-2.076-.07-4.4-1.86c1.95 2.035 3.62 2.07 3.62 2.07l.78-.21zm-2.563.639s-2.662-.283-4.574-1.69c1.482 1.713 3.646 1.942 3.646 1.942l.928-.252zm4.084-.766-.346.048s-.279-.75-1.53-1.617c1.4.552 1.876 1.57 1.876 1.57z" style="fill:#403429"/><path d="M42.3 12.296c.125.083.814.21 1.162-.446.194-.363.799-.738.895-1.45.126-.914-2.952 1.313-2.058 1.896z" style="fill:#deb38a"/><path d="M42.942 8.77c-1.2.243-1.579 2.923-.684 3.507.126.082.783.156 1.13-.5.194-.363.884-.731.98-1.444.126-.913-.234-1.805-1.426-1.563z" style="fill:#ffd8b4"/><path d="M46.963 4.77C42.8 4.287 39.567 7.096 36.33 5.808c3.362.758 7.497-2.215 10.633-1.038z" style="fill:#403429"/><path d="M41.096 4.87s-1.49-.362-3.247-1.707c1.428 1.947 3.247 1.708 3.247 1.708zm4.917.01s.49.843 1.002 2.152c.141-1.72-1.002-2.152-1.002-2.152zm-3.39 3.479s-.537-1.113-.312-2.81c-.983 1.738.312 2.81.312 2.81zm1.682-3.21s-.049 1.17.65 2.71c.25-1.774-.65-2.71-.65-2.71zm0-.936s-1.224-.954-2.851-1.357c1.392 1.196 2.85 1.357 2.85 1.357zm.347-1.239s.722.55 1.435 1.199c-.2-.929-1.435-1.199-1.435-1.199zm-5.386 2.563s-1.379-.063-3.175-1.125c1.619 1.783 3.175 1.125 3.175 1.125z" style="fill:#635547"/><path d="M42.955 9.255c-.305.112-.582.475-.654 1.023.507-.138.557.882.112 1.083.035.119.077.24.129.367.368-.505.886-.4 1.208-1.117.292-.648-.038-1.632-.795-1.356z" style="fill:#deb38a"/><path d="m42.455 39.602-.885-.13c-.173-1.029 1.305-.865 1.993-1.908.89-1.35.574-6.341.865-8.968-.613-1.225-.781-2.541-.781-2.541l3.714-.535c.131.527.371 1.736.391 2.673.049 2.21-1.58 6.143-1.705 9.897-.022.65-.18 2.101-.586 2.691-.559.809-1.824 1.42-2.44.975-1.836.433-.035-1.592-.566-2.154z" style="fill:#f3cca8"/><path d="M43.53 41.09s-.16.65-.509.666c.235-.21.508-.666.508-.666zm.935.02s-.21.734-.557.747c.233-.209.557-.748.557-.748zm.697-.301s-.115.68-.463.693c.235-.207.463-.693.463-.693z" style="fill:#deb38a"/><path d="M42.09 19.547c-.278-2.68 3.127-4.072 3.982-1.64.895 2.539 1.717 8.177 1.717 8.177-1.645 1.069-4.486.965-4.486.965s-1.035-5.773-1.213-7.502z" style="fill:#25a898"/></svg>