<svg xmlns="http://www.w3.org/2000/svg" xml:space="preserve" style="enable-background:new 0 0 64 64" viewBox="0 0 64 64"><radialGradient id="a" cx="40.25" cy="30" r="17.875" gradientTransform="translate(-8.211)" gradientUnits="userSpaceOnUse"><stop offset="0" style="stop-color:#bf6000"/><stop offset=".397" style="stop-color:#dc8103"/><stop offset=".772" style="stop-color:#f19a06"/><stop offset="1" style="stop-color:#f9a307"/></radialGradient><path d="M36.666 29.534C46 25.8 45.066 14.6 45.066 14.6H18.934s-.933 11.2 8.4 14.934c0 0 1.867.466 4.666.466 2.801 0 4.667-.466 4.667-.466z" style="fill:url(#a)"/><path d="M40.879 47c.049-3.23.715-2.71 1.275-6.916.346-2.592-.507-10.45-.507-10.45l-3.592-1.317h-12.09l-3.592 1.317s-.853 7.858-.508 10.45c.56 4.205 1.227 3.686 1.276 6.916.037 2.386-1.754 14.038-1.754 14.038l21.232-.002s-1.777-11.65-1.74-14.035z" style="fill:#8e3ed6"/><path d="m35.897 52.722-7.792.012s-4.09 1.33-4.937 2.415c-1.014 1.298-1.559 4.332-1.781 5.89 3.005 1.282 18.24 1.281 21.232-.003-.215-1.558-.748-4.59-1.76-5.889-.85-1.091-4.962-2.425-4.962-2.425z" style="fill:#ff9ed2"/><path d="M28.105 52.734c0 3.242 7.792 3.23 7.792-.012l-.782-.275H28.92l-.815.287z" style="fill:#ff82c5"/><path d="M28.662 52.538c0 2.538 6.679 2.538 6.679 0v-2.807h-6.679v2.807z" style="fill:#f5bb51"/><path d="m25.133 61.722-.298-.029c0-3.68.298-3.651.298.03zm14.034-.029-.299.03c0-3.681.3-3.71.3-.03z" style="fill:#ff82c5"/><path d="M36.469 27.775v-4.218H27.55v4.203l-1.586.557c0 3.949 5.168 6.316 6.045 6.316.873 0 6.027-2.365 6.027-6.305l-1.568-.553z" style="fill:#f5bb51"/><path d="M32 3.4c-6.772 0-10.035 5.516-9.627 12.607.084 1.425.48 3.481.97 5.243 1.015 3.662 6.375 7.35 8.657 7.35s7.641-3.688 8.657-7.35c.49-1.762.886-3.818.97-5.243C42.034 8.916 38.773 3.4 32 3.4z" style="fill:#ffc940"/><path d="M32 22.843c-1.588-.698-1.6-.028-4.05.136.92 1.045 1.596 2.387 4.048 2.387 2.815 0 3.29-1.525 4.053-2.387-2.453-.164-2.463-.834-4.052-.136z" style="fill:#d47706"/><path d="M28.685 23.24c1.6 1.664 5.05 1.642 6.63 0-2.464.265-4.166.265-6.63 0z" style="fill:#fff"/><path d="M39.196 13.647c-1.471-.877-4.11-.984-5.154-.386-.222.12-.163.754.029.674 1.49-.62 3.759-.65 5.157.067.187.095.191-.227-.032-.355zm-14.393 0c1.471-.877 4.11-.984 5.156-.386.222.12.163.754-.03.674-1.49-.62-3.757-.651-5.157.067-.188.095-.191-.227.031-.355z" style="fill:#bb7c0a"/><path d="M33.522 20.593c-.161-.113-.54.06-1.523.06-.982 0-1.36-.173-1.522-.06-.193.136.114.749 1.522.749s1.717-.612 1.523-.75z" style="fill:#f0a429"/><path d="M30.493 16.308c.058.448-.247.979-1.089 1.377-.535.254-1.648.552-3.11-.065-.656-.277-1.295-1.137-1.237-1.613.793-1.495 4.695-1.713 5.436.301z" style="fill:#fff"/><linearGradient id="b" x1="-424.185" x2="-424.185" y1="479.554" y2="480.02" gradientTransform="matrix(6.5701 0 0 -6.5701 2814.782 3168.527)" gradientUnits="userSpaceOnUse"><stop offset="0" style="stop-color:#a6694a"/><stop offset="1" style="stop-color:#4f2a1e"/></linearGradient><path d="M27.846 14.745a1.533 1.533 0 1 1 0 3.066 1.533 1.533 0 0 1 0-3.066z" style="fill:url(#b)"/><path d="M27.08 16.25c0 1.06 1.533 1.06 1.533 0 0-.985-1.533-.985-1.533 0z" style="fill:#1a1626"/><path d="M26.847 15.82c0 .445.642.445.642 0 0-.412-.642-.412-.642 0z" style="fill:#ab968c"/><path d="M30.5 16.367c-.622-2-4.866-1.705-5.443-.36.214-1.723 4.913-2.177 5.444.36z" style="fill:#45332c"/><path d="M33.507 16.308c-.058.448.247.979 1.089 1.377.535.254 1.648.552 3.11-.065.657-.277 1.295-1.137 1.238-1.613-.793-1.495-4.695-1.713-5.437.301z" style="fill:#fff"/><linearGradient id="c" x1="-425.624" x2="-425.624" y1="479.554" y2="480.02" gradientTransform="matrix(6.5701 0 0 -6.5701 2832.512 3168.527)" gradientUnits="userSpaceOnUse"><stop offset="0" style="stop-color:#a6694a"/><stop offset="1" style="stop-color:#4f2a1e"/></linearGradient><path d="M36.12 14.745a1.533 1.533 0 1 1 0 3.066 1.533 1.533 0 0 1 0-3.066z" style="fill:url(#c)"/><path d="M35.354 16.25c0 1.06 1.533 1.06 1.533 0 0-.985-1.533-.985-1.533 0z" style="fill:#1a1626"/><path d="M35.12 15.82c0 .445.644.445.644 0 0-.412-.643-.412-.643 0z" style="fill:#ab968c"/><path d="M33.5 16.367c.622-2 4.863-1.713 5.444-.36-.216-1.723-4.914-2.177-5.444.36z" style="fill:#45332c"/><path d="M39.622 4.39c.773-1.103-5.777-3.435-11.961-1.86C21.483 3.945 18 10.712 18 19.254c0 3.418 2.318 7.71 6.676 9.536l1.149-.421c-4.99-4.291-3.94-8.621-2.225-13.768 4.64-2.686 9.89-3.319 13.533-6.534-.466 1.4 2.004 3.166 3.267 6.534 1.758 4.687 2.734 9.423-2.228 13.76l1.075.393C43.384 26.91 46 22.65 46 19.254 46 9.156 42.098 3.676 39.622 4.39z" style="fill:#ffb80d"/><path d="M39.622 4.39c.743-.89-2.567-2.372-6.738-2.372 5.118.404 6.863 3.177 5.443 2.444-1.514-.782-5.215-1.917-10.171.329 5.423-1.154 10.412.107 9.636.76-1.225 1.03-6.623-1.777-14.183 5.125-1.042.95 4.534-3.648 12.019-3.794-1.041 2.19-14.353 5.66-16.418 11.102 3.465-4.946 18.078-6.783 20.412-13.594zm3.388 7.926s3.247 8.803-2.192 14.907c7.79-6.104 2.193-14.907 2.193-14.907z" style="fill:#f9a307"/><path d="M23.89 14.348s-1.326.241-2.41 1.419c-2.27 8.015 3.154 11.456 3.154 11.456s-4.302-4.413-.743-12.875z" style="fill:#f9a307"/><path d="M20.498 16.529s-.624.244-1.385 1.804c-.706 4.887 2.725 7.377 2.725 7.377s-3.217-3.931-1.34-9.181zm24.259-6.233C42.39 2.93 39.622 4.39 39.622 4.39S38.29 6.883 37.23 7.758c-1.916 2.353 4.671 4.37 4.5 14.563 1.741-7.242-3.1-12.084-3.179-13.377-.088-1.466 1.13-3.72 2.08-3.99 1.03-.293 3.39 3.345 4.126 5.34z" style="fill:#f9a307"/><path d="M19.113 18.333c3.749-6.115 17.625-5.702 20.509-13.942-4.86 7.516-19.58 8.77-20.509 13.942z" style="fill:#e68c00"/><path d="M39.488 7.681s3.075 6.592 3.58 12.192c.836-8.61-3.58-12.192-3.58-12.192zm-16.549 5.616S27.412 10.395 33.01 8c-5.994.36-10.072 5.298-10.072 5.298zm-2.761-.592S23.692 7.09 30.1 5.457c-8.917-.584-9.923 7.248-9.923 7.248z" style="fill:#ffca25"/><path d="M26.336 53.433s.313-.118 1.094-.47c-1-.948-2.192.082-3.293-1.373-1.996-2.636-2.205-11.524-2.205-11.524l.431-10.432s-1.386.412-2.629 2.043c-1.35 1.773-1.65 8.328-1.65 11.927 0 2.848 1.926 7.712 3.246 9.898.627 1.04 1.52 2.701 1.758 2.952 2.086 2.157 4.225 1.974 4.797 1.418 2.29-.237-2.516-3.282-1.549-4.439z" style="fill:#f5bb51"/><path d="M25.719 56.088s1.209 1.49 2.166 1.784c-1.117-.073-2.166-1.784-2.166-1.784zm-1.311.047s1.504 1.8 2.461 2.094c-1.117-.073-2.46-2.094-2.46-2.094zm-.728.239s1.047 1.428 2.004 1.722c-1.12-.072-2.004-1.722-2.004-1.722z" style="fill:#f0a429"/><path d="M37.664 53.433s-.312-.118-1.094-.47c1-.948 2.192.082 3.293-1.373 1.996-2.636 2.205-11.524 2.205-11.524l-.431-10.432s1.386.412 2.629 2.043c1.35 1.773 1.65 8.328 1.65 11.927 0 2.848-1.926 7.712-3.246 9.898-.627 1.04-1.52 2.701-1.758 2.952-2.086 2.157-4.224 1.974-4.797 1.418-2.29-.237 2.516-3.282 1.55-4.439z" style="fill:#f5bb51"/><path d="M38.281 56.088s-1.209 1.49-2.166 1.784c1.117-.073 2.166-1.784 2.166-1.784zm1.311.047s-1.504 1.8-2.461 2.094c1.117-.073 2.46-2.094 2.46-2.094zm.728.239s-1.047 1.428-2.004 1.722c1.12-.072 2.004-1.722 2.004-1.722z" style="fill:#f0a429"/><path d="M24.351 42.53c-3.183 4.07.096 8.55-2.619 9.99 4.82 3.35 9.013-4.584 2.62-9.99z" style="fill:#e68c00"/><path d="M24.351 42.53c-6.455 4.266-.78 8.151-2.619 9.99 2.479.9 5.137-1.8 2.62-9.99z" style="fill:#ffb80d"/><path d="M24.351 42.53c-1.762 3.519 2.167 9.904-2.619 9.99 3.442 1.515 6.169-1.925 2.62-9.99z" style="fill:#f9a307"/><path d="M22.351 52.059c1.443-1.346-2.448-5.918 2.096-8.826-3.292 3.276.477 7.795-2.096 8.826z" style="fill:#ffca25"/><path d="M39.65 42.53c3.183 4.07-.096 8.55 2.618 9.99-4.82 3.35-9.012-4.584-2.618-9.99z" style="fill:#e68c00"/><path d="M39.65 42.53c6.455 4.266.78 8.151 2.618 9.99-2.478.9-5.136-1.8-2.618-9.99z" style="fill:#ffb80d"/><path d="M39.65 42.53c1.762 3.519-2.167 9.904 2.618 9.99-3.441 1.515-6.168-1.925-2.618-9.99z" style="fill:#f9a307"/><path d="M41.65 52.059c-1.443-1.346 2.447-5.918-2.096-8.826 3.292 3.276-.477 7.795 2.096 8.826z" style="fill:#ffca25"/><path d="M32 31.654c-6.785.004-11.08 5.973-8.438 13.64H40.44c2.643-7.667-1.654-13.636-8.439-13.64z" style="fill:#f9a307"/><path d="M23.442 42.108c1.066.13 1.835 3.73 1.165 4.68-.094.133-.643.344-1.05-.494-.225-.464-.876-.852-1.077-1.81-.259-1.227-.097-2.505.962-2.376z" style="fill:#ffc940"/><path d="M23.471 42.798c.278.088.582.516.746 1.226-.971-.211-.729 1.422.115 1.452a7.098 7.098 0 0 1-.038.511c-.407-.595-.82-.356-1.23-1.243-.369-.8-.28-2.164.407-1.946z" style="fill:#f0a429"/><path d="M40.558 42.108c-1.065.13-1.835 3.73-1.164 4.68.093.133.643.344 1.05-.494.226-.464.875-.852 1.077-1.81.258-1.227.097-2.506-.963-2.376z" style="fill:#ffc940"/><path d="M39.784 44.021c.165-.708.467-1.135.745-1.223.688-.218.776 1.146.407 1.946-.409.887-.823.648-1.23 1.243a7.15 7.15 0 0 1-.038-.511c.836-.04 1.075-1.653.116-1.455z" style="fill:#f0a429"/><path d="M32.001 32.858c-5.822 0-8.627 4.404-8.275 10.529.07 1.231.834 4.047 1.555 5.489 1.274 2.545 4.6 4.442 6.72 4.442 2.117 0 5.447-1.897 6.72-4.442.722-1.442 1.485-4.258 1.555-5.49.352-6.124-2.453-10.528-8.275-10.528z" style="fill:#ffc940"/><path d="M33.358 46.828c-.144-.1-.482.054-1.358.054-.876 0-1.213-.154-1.358-.054-.171.121.103.668 1.358.668 1.256 0 1.53-.547 1.358-.668zM32 48.78c-1.312-.386-3.258.183-3.258.183.74.807 1.284 1.853 3.258 1.853 2.262 0 2.647-1.188 3.26-1.853 0 0-1.948-.57-3.26-.183z" style="fill:#f0a429"/><path d="M29.23 49.1c1.377 1.155 4.156 1.162 5.54 0a81.084 81.084 0 0 1-5.54 0zm1.515-5.268c.048.373-.205.816-.907 1.148-.446.211-1.374.46-2.592-.054-.546-.23-1.078-.949-1.03-1.345.66-1.245 3.91-1.428 4.53.25z" style="fill:#fff"/><linearGradient id="d" x1="-424.079" x2="-424.079" y1="475.403" y2="475.791" gradientTransform="matrix(6.5701 0 0 -6.5701 2814.782 3168.527)" gradientUnits="userSpaceOnUse"><stop offset="0" style="stop-color:#a6694a"/><stop offset="1" style="stop-color:#4f2a1e"/></linearGradient><path d="M28.54 42.53a1.277 1.277 0 1 1-.001 2.554 1.277 1.277 0 0 1 0-2.555z" style="fill:url(#d)"/><path d="M27.9 43.783c0 .884 1.278.884 1.278 0 0-.82-1.277-.82-1.277 0z" style="fill:#1a1626"/><path d="M27.707 43.426c0 .37.535.37.535 0 0-.344-.535-.344-.535 0z" style="fill:#ab968c"/><path d="M30.751 43.881c-.518-1.667-4.055-1.421-4.536-.3.178-1.435 4.095-1.814 4.536.3z" style="fill:#f0a429"/><path d="M33.257 43.832c-.05.373.205.816.907 1.148.445.211 1.373.46 2.592-.054.546-.23 1.078-.949 1.03-1.345-.66-1.245-3.912-1.428-4.53.25z" style="fill:#fff"/><linearGradient id="e" x1="-425.728" x2="-425.728" y1="475.403" y2="475.791" gradientTransform="matrix(6.5701 0 0 -6.5701 2832.512 3168.527)" gradientUnits="userSpaceOnUse"><stop offset="0" style="stop-color:#a6694a"/><stop offset="1" style="stop-color:#4f2a1e"/></linearGradient><path d="M35.433 42.53a1.278 1.278 0 1 1 .001 2.555 1.278 1.278 0 0 1 0-2.556z" style="fill:url(#e)"/><path d="M34.795 43.783c0 .884 1.278.884 1.278 0 0-.82-1.278-.82-1.278 0z" style="fill:#1a1626"/><path d="M34.601 43.426c0 .37.535.37.535 0 0-.344-.535-.344-.535 0z" style="fill:#ab968c"/><path d="M33.25 43.881c.518-1.667 4.052-1.428 4.536-.3-.18-1.435-4.094-1.814-4.536.3z" style="fill:#f0a429"/><path d="M37.85 42.151c-.82-.837-2.323-1.397-4.115-.902-.19.053-.178.647-.023.607 1.638-.425 3.006-.158 4.032.71.12.101.242-.276.106-.415zm-11.699 0c.82-.837 2.323-1.397 4.115-.902.19.053.179.647.024.607-1.638-.425-3.007-.158-4.032.71-.12.101-.242-.276-.107-.415z" style="fill:#bb7c0a"/><path d="M31.998 31.855c-3.412 0-6.343 1.914-7.666 4.2-1.205 2.082-1.442 5.76-.36 8.778.14-2.896 1.745-4.354 1.647-7.54 9.59 0 13.524 3.089 14.405 7.54 2.178-6.08-1.251-12.978-8.026-12.978z" style="fill:#f9a307"/><path d="M31.816 31.857c-3.412 0-6.16 1.912-7.484 4.198-1.205 2.082-1.71 4.753-.36 8.778-.692-4.439 1.208-7.915 1.208-7.915 9.322-1.012 13.85 3.113 14.844 7.915.217-1.638.004-9.24-8.475-9.9 6.306-.569 8.475 2.569 8.626 7.283 1.68-6.14-3.805-10.36-8.359-10.36z" style="fill:#ffb80d"/><path d="M40.024 44.833c-1.889-8.216-15.166-7.5-15.166-7.5s14.025-1.552 15.166 7.5z" style="fill:#e68c00"/><path d="M23.971 44.833c-.122-3.425 1.69-4.967 1.495-8.502.75 3.36-.865 5.027-1.495 8.502z" style="fill:#e68c00"/><path d="M40.175 42.216c.765-11.573-17.117-11.573-16.351 0 .667-9.72 15.684-9.72 16.35 0z" style="fill:#cfd8dd"/><path d="M40.175 41.841c.765-11.573-17.117-11.573-16.351 0 .667-9.72 15.684-9.72 16.35 0z" style="fill:#fff"/><path d="M23.924 37.502c3.412-7.553 10.508-4.628 10.508-4.628s-6.704-1.696-10.508 4.627zm14.612 2.525c-3.4-3.696-8.72-4.347-8.72-4.347s6.163-.886 8.72 4.347z" style="fill:#ffca25"/></svg>