<svg xmlns="http://www.w3.org/2000/svg" xml:space="preserve" viewBox="0 0 64 64"><path fill="#D43D3D" d="M56.515 57.399c-1.6-2.238-1.386-6.703-2.313-7.854-2.614-3.141-11.187 11.212 2.313 7.854z"/><path fill="#594640" d="M15.73 61.272s.789-.707 1.173-1.309c.572-8.934 1.806-13.326 5.594-18.134-8.719-15.601-6.767 19.443-6.767 19.443z"/><path fill="#785647" d="M.153 26.032c7.644 15.966 7.339 33.6 7.431 34.803.09 1.203 8.146.711 8.146.438s-.888-17.415 2.899-22.223C19.14 38.402.707 25.158.153 26.032z"/><path fill="#C4926E" d="M30.813 57.748c4.781 6.454 28.773 4.155 32.464 2.187.902-.479.825-1.504.489-2.316C21.535 61.068 40.06 51.662.717 24.209c-4.569 2.941 13.548 11.206 30.096 33.539z"/><path fill="#FED0AC" d="M31.219 56.108c5.619 7.238 28.427 4.047 32.119 2.078 4.552-2.43-24.075.756-28.646-4.43C25.536 43.364 6.725 22.748 1.177 24.06c-5.603 1.326 12.811 9.843 30.042 32.048z"/><linearGradient id="a" x1="45.148" x2="45.148" y1="60.757" y2="44.648" gradientUnits="userSpaceOnUse"><stop offset="0" style="stop-color:#ff4a4a"/><stop offset="1" style="stop-color:#ffb3b3"/></linearGradient><path fill="url(#a)" d="M35.946 59.152c-3.735-9.634 4.921-15.999 7.769-14.201 5.412 3.419 9.427 2.954 10.487 4.595-1.5-1.388-.833 7.605 1.069 10.504-.729 1.012-18.298 1.12-19.325-.898z"/></svg>