<svg xmlns="http://www.w3.org/2000/svg" xml:space="preserve" style="enable-background:new 0 0 64 64" viewBox="0 0 64 64"><radialGradient id="a" cx="48.481" cy="-12.868" r="20.26" gradientTransform="rotate(10.003 -225.188 -83.047)" gradientUnits="userSpaceOnUse"><stop offset="0" style="stop-color:#291d19"/><stop offset=".264" style="stop-color:#3a2a22"/><stop offset=".721" style="stop-color:#533b2e"/><stop offset="1" style="stop-color:#5c4233"/></radialGradient><path d="M37.393 33.964c11.153-2.33 12.316-15.015 12.316-15.015L20.54 13.805s-3.246 12.318 6.436 18.322c0 0 1.992.888 5.117 1.44 3.126.55 5.3.397 5.3.397z" style="fill:url(#a)"/><linearGradient id="b" x1="33.649" x2="33.649" y1="57.119" y2="39.728" gradientUnits="userSpaceOnUse"><stop offset="0" style="stop-color:#5d1e96"/><stop offset=".193" style="stop-color:#6c28aa"/><stop offset=".494" style="stop-color:#7f34c2"/><stop offset=".771" style="stop-color:#8a3bd1"/><stop offset="1" style="stop-color:#8e3ed6"/></linearGradient><path d="M18.964 34.63c1.76-.946 7.777-3.002 7.777-3.002l13.331-.025s6.085 2.075 7.832 3.023c2.54 1.376 3.139 3.31 3.527 5.04.802 3.558 2.2 11.755 2.471 17.21-5.223 1.098-40.506-1.764-40.506-3.744 0-1.776 3.022-17.133 5.568-18.502z" style="fill:url(#b)"/><path d="M26.741 31.628c0 5.631 13.331 5.605 13.331-.025l-1.198-.415H28.013l-1.272.44z" style="fill:#732eb0"/><path d="M27.795 31.345c0 4.406 11.24 4.406 11.24 0V26.47h-11.24v4.875z" style="fill:#855e45"/><linearGradient id="c" x1="-1262.092" x2="-1253.508" y1="-702.523" y2="-702.523" gradientTransform="rotate(-125.003 -416.118 -668.24)" gradientUnits="userSpaceOnUse"><stop offset="0" style="stop-color:#ccd4db"/><stop offset=".132" style="stop-color:#d8e0e6"/><stop offset=".333" style="stop-color:#e5ebf1"/><stop offset=".527" style="stop-color:#e9eff5"/><stop offset=".743" style="stop-color:#e6edf3"/><stop offset=".872" style="stop-color:#dee5eb"/><stop offset=".979" style="stop-color:#d0d8de"/><stop offset="1" style="stop-color:#ccd4db"/></linearGradient><path d="m31.425 42.725-.25.175 1.485 2.12 1.486 2.122.25-.174s1.088.668 2.144.358c1.191-.352 2.154-1.944 3.863-3.14 1.911-1.338 4.46-2.01 5.341-3.306.622-.912.292-2.045-1.202-4.179-1.494-2.133-2.445-2.83-3.515-2.559-1.518.387-3.023 2.55-4.934 3.889-1.71 1.197-3.534 1.557-4.27 2.556-.57.772-.398 2.138-.398 2.138z" style="fill:url(#c)"/><path d="M32.224 40.884c-.368.498-.341 1.476-.303 1.778l.037.3-.086.06 1.198 1.712 1.2 1.712.108-.076.28.171c.003.003.612.367 1.288.367.16 0 .313-.02.452-.063.552-.162 1.114-.717 1.764-1.36.55-.545 1.175-1.162 1.954-1.708.804-.563 1.689-1 2.543-1.421 1.142-.564 2.22-1.095 2.672-1.758l-13.107.286z" style="fill:#fff"/><linearGradient id="d" x1="-2663.614" x2="-2659.387" y1="-463.434" y2="-463.434" gradientTransform="rotate(-125 -1183.083 -908.497)" gradientUnits="userSpaceOnUse"><stop offset="0" style="stop-color:#ffa400"/><stop offset=".38" style="stop-color:#ffb10a"/><stop offset="1" style="stop-color:#ffcf21"/></linearGradient><path d="M29.767 44.826c-.7.49-.669 1.412-.804 1.619-.143.22-.77.648-.77.648-.268-.096-1.234.543-.588 1.467.648.924 1.577.234 1.58-.049 0 0 .617-.443.872-.504.244-.054 1.097.288 1.797-.201.17.241.672-.111.672-.111l-1.214-1.73-1.212-1.732s-.502.351-.333.593z" style="fill:url(#d)"/><linearGradient id="e" x1="-2664.226" x2="-2658.775" y1="-460.372" y2="-460.372" gradientTransform="rotate(-125 -1183.083 -908.497)" gradientUnits="userSpaceOnUse"><stop offset="0" style="stop-color:#0094eb"/><stop offset=".158" style="stop-color:#0c9bef"/><stop offset=".709" style="stop-color:#32affb"/><stop offset="1" style="stop-color:#40b7ff"/></linearGradient><path d="M30.99 43.118s-1.03.69-.93.833c0 0-.215.149-.145.25a13267.65 13267.65 0 0 1 2.577 3.68c.07.1.285-.05.285-.05.099.141 1.099-.59 1.099-.59s.236.09.42-.039l-1.564-2.232-1.562-2.232c-.184.129-.18.38-.18.38z" style="fill:url(#e)"/><path d="M31.306 45.379h1.238v.312h-1.238z" style="fill:#0094eb" transform="rotate(-34.982 31.929 45.538)"/><path d="m33.297 46.414-1.015.71.18.256 1.014-.71z" style="fill:#0094eb"/><path d="M30.353 44.017h1.238v.312h-1.238z" style="fill:#0094eb" transform="rotate(-34.982 30.975 44.176)"/><path d="M40.639 35.75c-.779-.426.082-1.25.752-.932 2.033.965 3.168 2.891 4.24 3.646 1.328.934-.328 5.44.447 6.059.704 1.416-3.653 2.693-4.21 2.39-1.074-1.687-1.534-2.818-1.518-4.586-.497-1.29-2.165-2.502-2.653-2.992-.384-.385-.182-1.272.123-1.32-.448-.482.21-1.35.656-1.148 1.18.53 2.85 2.065 2.962 1.982.054-.04-1.063-1.509-2.836-2.393-.467-.232.257-1.311 1.068-.882 2.006 1.06 3.187 2.548 3.258 2.537.202-.034-1.325-1.83-2.29-2.36z" style="fill:#855e45"/><path d="M46.692 44.375c1.565 2.783 5.55 8.347 6.81 11.25 1.904 4.38-2.087 6.777-4.598 6.156-3.249-.8-4.673-3.563-7.686-15.791.71-1.307 5.01-2.44 5.474-1.615z" style="fill:#8e3ed6"/><linearGradient id="f" x1="-1942.05" x2="-1943.591" y1="56.632" y2="48.178" gradientTransform="matrix(-1 0 0 1 -1910.112 0)" gradientUnits="userSpaceOnUse"><stop offset="0" style="stop-color:#017bb0"/><stop offset=".19" style="stop-color:#0983b5"/><stop offset=".483" style="stop-color:#1f99c3"/><stop offset=".841" style="stop-color:#42bcda"/><stop offset="1" style="stop-color:#54cee6"/></linearGradient><path d="M19.68 52.569c8.149-9.753 27.813-1.89 25.118 4.38-3.689 8.578-25.118-4.38-25.118-4.38z" style="fill:url(#f)"/><linearGradient id="g" x1="-1944.075" x2="-1945.737" y1="57.175" y2="48.055" gradientTransform="matrix(-1 0 0 1 -1910.112 0)" gradientUnits="userSpaceOnUse"><stop offset="0" style="stop-color:#017bb0"/><stop offset=".246" style="stop-color:#1e98c3"/><stop offset=".55" style="stop-color:#3cb6d6"/><stop offset=".812" style="stop-color:#4ec8e2"/><stop offset="1" style="stop-color:#54cee6"/></linearGradient><path d="M27.869 55.319s2.281-4 7.401-6.825c2.001-1.103 6.472 1.642 6.25 2.507-4.182 16.286-13.651 4.318-13.651 4.318z" style="fill:url(#g)"/><path d="M44.673 58.927c.761-.459.194-1.662-.074-1.57-2.961 1.033-5.895.494-6.067-.678-.23-1.56 2.451-3.826.59-3.82-1.524.004-4.531 4.5-5.425 4.071-1.577-.016-.944 4.125-.43 4.496 7.587 1.216 9.808.553 11.406-2.499z" style="fill:#855e45"/><path d="M33.467 56.624c-7.991-2.119-8.211-4.287-15.787-6.26 14.855-8.175 2.351-16.105 1.076-15.618-4.112 1.57-9.87 18.253-8.569 20.628 1.684 3.079 10.342 6.165 23.376 6.424 1.131-1.08.86-4.92-.096-5.174z" style="fill:#8e3ed6"/><linearGradient id="h" x1="23.381" x2="23.381" y1="52.548" y2="41.735" gradientUnits="userSpaceOnUse"><stop offset="0" style="stop-color:#c413c0"/><stop offset=".177" style="stop-color:#cd34c9"/><stop offset=".43" style="stop-color:#d85dd4"/><stop offset=".66" style="stop-color:#e07bdc"/><stop offset=".858" style="stop-color:#e48de0"/><stop offset="1" style="stop-color:#e693e2"/></linearGradient><path d="M16.89 50.386c-1.601-11.349 11.856-11.328 13.115-2.4-.927 1.318-4.961 2.635-6.425 4.511-2.685-1.209-6.69-2.11-6.69-2.11z" style="fill:url(#h)"/><linearGradient id="i" x1="-1940.455" x2="-1927.8" y1="45.412" y2="45.412" gradientTransform="matrix(-1 0 0 1 -1910.112 0)" gradientUnits="userSpaceOnUse"><stop offset="0" style="stop-color:#e693e2"/><stop offset=".349" style="stop-color:#f2aaef"/><stop offset=".727" style="stop-color:#fcbcf8"/><stop offset="1" style="stop-color:#ffc2fc"/></linearGradient><path d="M17.687 44.596c1.744-4.694 10.293-4.749 12.653 3.379.085.292-1.406 1.413-2.269 1.454-1.098-5.443-7.849-8.256-10.384-4.833z" style="fill:url(#i)"/><path d="M40.888 59.484s2.15.268 3.785-.557c-1.552.508-3.785.557-3.785.557zm-.266 1.359s2.016.044 3.379-.837c-1.255.538-3.38.837-3.38.837zm.036-20.625s-1.084-1.68-2.838-2.203c1.476.697 2.838 2.203 2.838 2.203z" style="fill:#69452d"/><path d="M37.329 3.877c-7.56-1.363-12.286 4.276-13.227 12.452-.187 1.643-.149 4.07.05 6.18.413 4.385 5.67 9.673 8.217 10.133 2.547.459 9.255-2.672 11.11-6.648.893-1.913 1.74-4.18 2.114-5.79 1.85-8.012-.704-14.964-8.264-16.327z" style="fill:#916b50"/><path d="M33.501 26.07c-1.634-1.116-1.78-.354-4.547-.66.821 1.377 1.313 3.046 4.05 3.54 3.141.566 3.972-1.079 4.993-1.91-2.706-.68-2.585-1.447-4.496-.97z" style="fill:#733b2a"/><path d="M29.724 25.855c1.458 2.222 5.313 2.891 7.399 1.336-2.8-.194-4.701-.537-7.399-1.336z" style="fill:#fff"/><path d="M43.344 17.022c-1.47-1.297-4.395-1.951-5.677-1.479-.271.093-.33.828-.1.776 1.784-.408 4.323.014 5.743 1.114.19.145.258-.22.034-.411zM27.28 14.125c1.814-.705 4.78-.297 5.83.596.224.182.033.893-.166.764-1.542-1.007-4.065-1.5-5.77-.962-.227.07-.168-.297.105-.398z" style="fill:#523c31"/><path d="M35.644 23.808c-.158-.162-.614-.04-1.712-.237-1.097-.198-1.485-.473-1.687-.376-.242.116-.02.878 1.552 1.161 1.571.284 2.037-.353 1.847-.549z" style="fill:#69452d"/><path d="M45.64 6.482c1.082-1.08-5.771-4.972-12.984-4.43-7.173.362-12.393 7.23-14.074 16.764-.765 4.34 1.596 10.533 7.59 13.009l.38-.132c-6.02-6.325-3.926-11.202-.803-16.968 5.706-2.085 11.69-1.758 16.39-4.629-.796 1.47 1.614 3.928 2.361 7.935.947 5.08 1.162 10.077-3.634 13.846l2.152.767c3.658-1.817 6.27-5.217 6.817-8.317 1.987-11.27-1.29-18.155-4.194-17.845z" style="fill:#6b4d3c"/><path d="M45.64 6.482c1.006-.847-2.398-3.154-7.052-3.975 5.633 1.459 7.035 4.898 5.593 3.8-1.535-1.171-5.443-3.166-11.417-1.635 6.28-.22 11.6 2.169 10.606 2.744-1.57.91-7.043-3.286-16.84 2.93-1.349.856 5.78-3.18 14.162-1.869-1.592 2.239-17.133 3.493-20.51 9.16 4.842-4.838 21.514-4.013 25.459-11.155zm2.224 9.513s1.89 10.465-5.381 16.207c9.896-5.28 5.38-16.207 5.38-16.207z" style="fill:#5c4233"/><path d="M26.123 14.5s-1.528.008-2.97 1.11c-4.112 8.499 1.265 13.407 1.265 13.407s-3.932-5.773 1.705-14.517z" style="fill:#5c4233"/><path d="M21.906 16.266s-.743.15-1.9 1.742c-1.75 5.316 1.59 8.77 1.59 8.77s-2.817-5.02.31-10.512zm28.304-2.182c-1.192-8.686-4.57-7.602-4.57-7.602s-1.977 2.521-3.332 3.29c-2.601 2.248 4.354 5.797 2.157 17.14 3.369-7.741-1.083-14.098-.915-15.557.19-1.653 1.992-3.93 3.105-4.044 1.208-.125 3.126 4.4 3.555 6.773z" style="fill:#5c4233"/><path d="M20.006 18.008C25.393 11.92 40.8 15.112 45.64 6.482c-6.904 7.433-23.58 5.935-25.635 11.526z" style="fill:#3d2e24"/><path d="M44.844 10.129s2.134 7.962 1.596 14.313c2.629-9.447-1.596-14.313-1.596-14.313zM25.267 13.14s5.564-2.36 12.285-3.932c-6.76-.778-12.285 3.932-12.285 3.932zm-2.965-1.205S27.33 6.36 34.805 5.798c-9.839-2.406-12.503 6.137-12.503 6.137z" style="fill:#7a5b49"/><path d="M32.556 18.186c-1.588.673-3.805.274-5.07-.914-.196-.181-.352-.053-.303.082.97 2.653 3.828 3.167 5.629 1.015.09-.109-.015-.286-.256-.183zm9.544 1.722c-1.587.673-3.804.273-5.071-.915-.194-.182-.348-.051-.3.081.97 2.654 3.825 3.168 5.626 1.015.092-.108-.013-.285-.256-.181z" style="fill:#3d2d27"/></svg>