<svg xmlns="http://www.w3.org/2000/svg" xml:space="preserve" style="enable-background:new 0 0 64 64" viewBox="0 0 64 64"><path d="M12.934 32.11C5 42.254 13.173 53.421 6.406 57.008 18.42 65.36 28.871 45.585 12.934 32.11z" style="fill:#52351f"/><path d="M12.934 32.11c-16.09 10.633-1.946 20.316-6.528 24.898 6.178 2.246 12.803-4.484 6.528-24.898z" style="fill:#805837"/><path d="M12.934 32.11c-4.392 8.77 5.4 24.686-6.528 24.898 8.579 3.777 15.375-4.795 6.528-24.898z" style="fill:#6e482a"/><path d="M7.949 55.86c3.596-3.353-6.102-14.751 5.224-21.999-8.206 8.166 1.189 19.429-5.224 22z" style="fill:#916643"/><path d="M51.066 32.11c7.934 10.144-.239 21.311 6.528 24.898C45.58 65.36 35.129 45.585 51.066 32.11z" style="fill:#52351f"/><path d="M51.066 32.11c16.09 10.633 1.946 20.316 6.528 24.898-6.178 2.246-12.803-4.484-6.528-24.898z" style="fill:#805837"/><path d="M51.066 32.11c4.392 8.77-5.4 24.686 6.528 24.898-8.579 3.777-15.375-4.795-6.528-24.898z" style="fill:#6e482a"/><path d="M56.051 55.86c-3.596-3.353 6.102-14.751-5.224-21.999 8.206 8.166-1.189 19.429 5.224 22z" style="fill:#916643"/><path d="M32 5c-16.914.01-27.621 14.889-21.033 34h42.066C59.621 19.889 48.913 5.01 32 5z" style="fill:#6e482a"/><path d="M10.668 31.057c2.656.324 4.572 9.297 2.904 11.664-.234.332-1.603.859-2.617-1.23-.562-1.157-2.184-2.124-2.686-4.51-.644-3.06-.242-6.247 2.399-5.924z" style="fill:#b88a6f"/><path d="M10.74 32.777c.694.219 1.45 1.285 1.86 3.055-2.422-.525-1.817 3.545.287 3.621-.018.41-.045.832-.096 1.273-1.014-1.484-2.043-.888-3.064-3.1-.92-1.991-.702-5.392 1.013-4.849z" style="fill:#8c5f44"/><path d="M53.33 31.057c-2.654.324-4.572 9.297-2.9 11.664.232.332 1.601.859 2.617-1.23.562-1.157 2.182-2.124 2.684-4.51.644-3.06.242-6.249-2.4-5.924z" style="fill:#b88a6f"/><path d="M51.402 35.826c.41-1.766 1.164-2.83 1.856-3.049 1.717-.545 1.935 2.858 1.015 4.85-1.02 2.21-2.05 1.615-3.064 3.1a17.8 17.8 0 0 1-.096-1.276c2.082-.1 2.68-4.119.29-3.625z" style="fill:#8c5f44"/><path d="M32.002 8C17.49 8 10.498 18.979 11.375 34.244c.176 3.07 2.078 10.088 3.877 13.682C18.428 54.269 26.717 59 32 59c5.28 0 13.578-4.73 16.75-11.074 1.8-3.594 3.703-10.612 3.877-13.682C53.506 18.98 46.514 8 32.002 8z" style="fill:#b88a6f"/><path d="M35.383 42.822c-.358-.25-1.2.135-3.383.135s-3.025-.385-3.385-.135c-.427.303.256 1.666 3.385 1.666s3.815-1.363 3.383-1.666zM32 47.688c-3.272-.963-8.121.456-8.121.456 1.846 2.012 3.2 4.62 8.121 4.62 5.637 0 6.598-2.963 8.123-4.62 0 0-4.853-1.423-8.123-.456z" style="fill:#8c5f44"/><path d="M25.096 48.484c3.431 2.88 10.357 2.897 13.808 0-3.656.157-10.125.158-13.808 0zm3.775-13.131c.12.932-.512 2.036-2.262 2.862-1.111.527-3.424 1.146-6.46-.135-1.362-.574-2.688-2.363-2.569-3.352 1.647-3.103 9.75-3.558 11.291.625z" style="fill:#fff"/><linearGradient id="a" x1="-424.865" x2="-424.865" y1="476.409" y2="477.378" gradientTransform="matrix(6.5701 0 0 -6.5701 2814.782 3168.527)" gradientUnits="userSpaceOnUse"><stop offset="0" style="stop-color:#a6694a"/><stop offset="1" style="stop-color:#4f2a1e"/></linearGradient><path d="M23.373 32.107a3.184 3.184 0 1 1-.001 6.369 3.184 3.184 0 0 1 .001-6.369z" style="fill:url(#a)"/><path d="M21.781 35.232c0 2.203 3.184 2.203 3.184 0 0-2.044-3.184-2.044-3.184 0z" style="fill:#1a1626"/><path d="M21.299 34.342c0 .922 1.334.922 1.334 0 0-.858-1.334-.858-1.334 0z" style="fill:#ab968c"/><path d="M28.887 35.477c-1.293-4.157-10.108-3.543-11.307-.748.443-3.577 10.205-4.522 11.307.748z" style="fill:#8c5f44"/><path d="M35.13 35.353c-.12.932.513 2.036 2.263 2.862 1.109.527 3.421 1.146 6.46-.135 1.362-.574 2.688-2.363 2.569-3.352-1.645-3.103-9.752-3.558-11.291.625z" style="fill:#fff"/><linearGradient id="b" x1="-424.949" x2="-424.949" y1="476.409" y2="477.378" gradientTransform="matrix(6.5701 0 0 -6.5701 2832.512 3168.527)" gradientUnits="userSpaceOnUse"><stop offset="0" style="stop-color:#a6694a"/><stop offset="1" style="stop-color:#4f2a1e"/></linearGradient><path d="M40.557 32.107a3.185 3.185 0 1 1 .002 6.37 3.185 3.185 0 0 1-.002-6.37z" style="fill:url(#b)"/><path d="M38.967 35.232c0 2.203 3.183 2.203 3.183 0 0-2.044-3.183-2.044-3.183 0z" style="fill:#1a1626"/><path d="M38.482 34.342c0 .922 1.334.922 1.334 0 0-.858-1.334-.858-1.334 0z" style="fill:#ab968c"/><path d="M35.115 35.477c1.291-4.155 10.1-3.56 11.307-.748-.447-3.577-10.205-4.522-11.307.748z" style="fill:#8c5f44"/><path d="M46.581 31.165c-2.044-2.088-5.79-3.484-10.257-2.248-.474.131-.444 1.61-.057 1.51 4.083-1.058 7.493-.391 10.05 1.77.3.253.602-.687.264-1.032zm-29.161 0c2.045-2.088 5.791-3.484 10.258-2.248.475.131.444 1.61.058 1.51-4.083-1.058-7.494-.391-10.05 1.77-.3.253-.603-.687-.265-1.032z" style="fill:#5e4533"/><path d="M31.994 5.5c-8.506-.002-15.81 4.77-19.107 10.47-3.004 5.19-3.596 14.356-.9 21.88.349-7.22 4.35-10.854 4.107-18.797C40 19.053 49.804 26.754 52 37.85 57.428 22.695 48.88 5.5 31.994 5.5z" style="fill:#6e482a"/><path d="M31.54 5.505c-8.505 0-15.356 4.766-18.653 10.464-3.004 5.19-4.262 11.848-.9 21.88C10.262 26.787 15 18.12 15 18.12c23.237-2.52 34.522 7.76 37 19.73.54-4.084.01-23.032-21.125-24.675 15.719-1.42 21.125 6.4 21.5 18.152C56.563 16.021 42.892 5.505 31.54 5.505z" style="fill:#805837"/><path d="M52 37.85c-4.708-20.481-37.804-18.695-37.804-18.695S49.156 15.285 52 37.85z" style="fill:#52351f"/><path d="M11.986 37.85c-.304-8.537 4.211-12.381 3.727-21.194 1.867 8.375-2.156 12.532-3.727 21.194z" style="fill:#52351f"/><path d="M52.375 31.326c1.908-28.848-42.664-28.848-40.756 0 1.662-24.228 39.094-24.228 40.756 0z" style="fill:#cfd8dd"/><path d="M52.375 30.392c1.908-28.847-42.664-28.847-40.756 0 1.662-24.228 39.094-24.228 40.756 0z" style="fill:#fff"/><path d="M11.868 19.575C20.374.75 38.062 8.04 38.062 8.04S21.35 3.813 11.868 19.575zm36.424 6.294c-8.476-9.213-21.735-10.833-21.735-10.833s15.36-2.209 21.735 10.833z" style="fill:#916643"/></svg>