<svg xmlns="http://www.w3.org/2000/svg" xml:space="preserve" style="enable-background:new 0 0 64 64" viewBox="0 0 64 64"><path d="M38.19 28.023c-4.001 7.006 5.37 10.987-.83 24.286-6.024 12.923 11.346 16.667 13.692 3.343 1.076-6.116 2.146-9.88 3.783-12.912 2.357-4.37 2.628-8.838.337-12.15-5.76-8.336-14.86-6.283-16.982-2.567zm4.435-12.918c-6.457.346-5.29 11.15-.179 9.03 2.642-1.094 3.643-9.215.179-9.03z" style="fill:#916e5e"/><path d="M48.145 17.283c-3.113-.528-3.07 4.209-.324 4.029.897-.06 3.231-3.536.324-4.03zm4.125 2.583c-3.075-.692-3.068 4.206-.321 4.028.896-.06 4.199-3.16.322-4.028zm4.184 3.835c-2.49-1.415-4.113 2.992-1.624 3.542.811.18 4.76-1.754 1.624-3.542zm1.923 7.607c2.928-.176 1.45-3.952-.929-3.182-.773.253-2.763 3.402.929 3.182zM25.81 12.922c4.001 7.005-5.371 10.986.83 24.285 6.024 12.923-11.346 16.667-13.692 3.343-1.076-6.115-2.146-9.88-3.783-12.912-2.357-4.37-2.627-8.838-.337-12.15 5.76-8.335 14.86-6.283 16.982-2.566zM21.375.003c6.457.346 5.29 11.15.179 9.03-2.642-1.094-3.643-9.215-.179-9.03z" style="fill:#916e5e"/><path d="M15.854 2.18c3.114-.527 3.07 4.21.325 4.03-.897-.059-3.231-3.535-.325-4.03zm-4.126 2.584c3.077-.692 3.07 4.207.323 4.029-.896-.06-4.199-3.16-.323-4.029zM7.546 8.599c2.49-1.415 4.112 2.993 1.624 3.543-.811.18-4.76-1.754-1.624-3.543zm-1.923 7.608c-2.928-.176-1.45-3.953.929-3.182.773.253 2.763 3.401-.929 3.182z" style="fill:#916e5e"/></svg>