<svg xmlns="http://www.w3.org/2000/svg" xml:space="preserve" style="enable-background:new 0 0 64 64" viewBox="0 0 64 64"><path d="M45.255 31.723c-1.272-1.645-7.428-3.657-7.428-3.657H26.173s-6.156 2.012-7.428 3.657c-2.08 2.69-2.809 8.431-2.809 8.431l4.93 4.93V59h22.268V45.084l4.93-4.93s-.73-5.74-2.81-8.43z" style="fill:#3ab0a2"/><path d="M26.169 28.085c0 4.888 11.658 4.87 11.658-.02l-1.168-.412h-9.27l-1.22.432z" style="fill:#2b998d"/><path d="M27.003 27.79c0 3.826 9.994 3.826 9.994 0v-4.234h-9.994v4.234z" style="fill:#f5bb51"/><path d="m20.868 58 10.91 4h.44l10.916-4z" style="fill:#2b4f87"/><path d="m24.938 52.722-7.793.011s-4.088 1.331-4.936 2.415c-.898 1.152-1.43 3.823-1.693 5.465 4.332 1.022 12.78 1.38 21.261 1.387 0-.002-.486-5.07-1.877-6.854-.85-1.09-4.962-2.424-4.962-2.424z" style="fill:#8feaff"/><path d="M17.145 52.733c0 3.243 7.793 3.23 7.793-.011l-.782-.275h-6.195l-.816.286z" style="fill:#67dbf5"/><path d="M17.703 52.538c0 2.538 6.678 2.538 6.678 0v-2.807h-6.678v2.807z" style="fill:#f5bb51"/><path d="m14.168 61.234-.285-.044c0-2.307.285-2.536.285.044zm14.041.731h-.3c0-3.68.3-3.68.3 0z" style="fill:#67dbf5"/><path d="m46.85 52.722-7.791.011s-4.09 1.331-4.938 2.415c-1.39 1.783-1.9 6.846-1.902 6.851 8.52-.01 16.988-.346 21.265-1.382-.26-1.642-.779-4.325-1.671-5.47-.85-1.091-4.963-2.425-4.963-2.425z" style="fill:#8fbfff"/><path d="M39.059 52.733c0 3.243 7.79 3.23 7.79-.011l-.78-.275h-6.196l-.814.286z" style="fill:#73b0ff"/><path d="M39.615 52.538c0 2.538 6.68 2.538 6.68 0v-2.807h-6.68v2.807z" style="fill:#f5bb51"/><path d="m36.086 61.959-.299.006c0-3.68.299-3.687.299-.006zm14.029-.779-.285.027c0-2.266.285-2.433.285-.026z" style="fill:#73b0ff"/><path d="M15.992 53.226s-1.078 2 .14 1.78c.61-1.4 1.317-1.01 1.593-2.468.267-1.812-.874-2.922-.874-2.922-.992.736-3.138 2.376-3.406 2.83-.424.722-2.01 2.827-1.324 3.503.639 1.34 1.105-2.02 3.871-2.723z" style="fill:#f5bb51"/><path d="M13.398 53.318s-1.078 1.648-1.277 2.63c-.042-1.12 1.277-2.63 1.277-2.63z" style="fill:#f0a429"/><path d="M48.008 53.226s1.078 2-.14 1.78c-.61-1.4-1.317-1.01-1.593-2.468-.267-1.812.873-2.922.873-2.922.993.736 3.14 2.376 3.407 2.83.424.722 2.01 2.827 1.324 3.503-.639 1.34-1.106-2.02-3.871-2.723z" style="fill:#f5bb51"/><path d="M50.602 53.318s1.078 1.648 1.277 2.63c.042-1.12-1.277-2.63-1.277-2.63z" style="fill:#f0a429"/><path d="M42.096 13.946c-1.563.188-2.692 5.416-1.708 6.797.138.192.943.5 1.54-.718.331-.675 1.284-1.238 1.58-2.629.38-1.782.143-3.639-1.412-3.45zm-20.191 0c1.563.188 2.692 5.416 1.708 6.797-.138.192-.943.5-1.541-.718-.33-.675-1.284-1.238-1.58-2.629-.38-1.782-.142-3.639 1.413-3.45z" style="fill:#ffc940"/><path d="M42.054 14.947c-.408.128-.853.75-1.094 1.781 1.425-.306 1.068 2.066-.17 2.11.012.239.027.484.057.742.596-.865 1.203-.519 1.804-1.807.54-1.16.412-3.142-.597-2.826zm-19.013 1.778c-.242-1.03-.686-1.65-1.094-1.779-1.008-.316-1.139 1.666-.597 2.827.6 1.288 1.208.94 1.805 1.806.029-.258.046-.504.055-.743-1.225-.057-1.577-2.4-.169-2.11z" style="fill:#f0a429"/><path d="M32 3.891c-6.772 0-10.034 5.119-9.626 12.235.082 1.432.972 6.102 1.81 7.778.859 1.714 3.73 4.357 5.488 4.904 1.112.345 3.545.345 4.655 0 1.76-.547 4.632-3.19 5.49-4.904.84-1.676 1.728-6.345 1.808-7.778C42.035 9.01 38.773 3.891 32 3.891z" style="fill:#ffc940"/><path d="M39.358 13.424c-1.549-.821-4.512-.861-5.617-.288-.237.109-.08.885.119.812 1.537-.609 4.02-.622 5.46.052.193.087.272-.463.038-.576zm-14.715 0c1.549-.821 4.511-.861 5.616-.288.237.109.08.885-.118.812-1.54-.609-4.02-.622-5.462.052-.19.087-.27-.463-.036-.576z" style="fill:#bb7c0a"/><path d="M33.828 20.53c-.194-.134-.647.073-1.828.073-1.179 0-1.633-.208-1.826-.073-.232.163.136.898 1.826.898 1.691 0 2.06-.735 1.828-.898z" style="fill:#f0a429"/><path d="M30.493 16.214c.058.45-.246.98-1.088 1.378-.535.254-1.65.551-3.112-.065-.654-.277-1.294-1.136-1.236-1.612.793-1.494 4.694-1.713 5.436.3z" style="fill:#fff"/><linearGradient id="a" x1="-1209.922" x2="-1209.922" y1="170.752" y2="170.286" gradientTransform="translate(7977.155 -1104.145) scale(6.5701)" gradientUnits="userSpaceOnUse"><stop offset="0" style="stop-color:#a6694a"/><stop offset="1" style="stop-color:#4f2a1e"/></linearGradient><path d="M27.847 14.654a1.533 1.533 0 1 1-1.534 1.53c0-.845.686-1.53 1.534-1.53z" style="fill:url(#a)"/><path d="M27.08 16.156c0 1.06 1.533 1.06 1.533 0 0-.982-1.533-.982-1.533 0z" style="fill:#1a1626"/><path d="M26.848 15.727c0 .444.641.444.641 0 0-.41-.641-.41-.641 0z" style="fill:#ab968c"/><path d="M30.5 16.273c-.622-1.997-4.866-1.702-5.443-.359.213-1.72 4.914-2.175 5.444.359z" style="fill:#f0a429"/><path d="M33.508 16.214c-.058.45.245.98 1.088 1.378.535.254 1.648.551 3.11-.065.657-.277 1.295-1.136 1.238-1.612-.793-1.494-4.695-1.713-5.437.3z" style="fill:#fff"/><linearGradient id="b" x1="-1211.361" x2="-1211.361" y1="170.752" y2="170.286" gradientTransform="translate(7994.886 -1104.145) scale(6.5701)" gradientUnits="userSpaceOnUse"><stop offset="0" style="stop-color:#a6694a"/><stop offset="1" style="stop-color:#4f2a1e"/></linearGradient><path d="M36.12 14.654a1.532 1.532 0 1 1 .002 3.064 1.532 1.532 0 0 1-.002-3.064z" style="fill:url(#b)"/><path d="M35.354 16.156c0 1.06 1.533 1.06 1.533 0 0-.982-1.533-.982-1.533 0z" style="fill:#1a1626"/><path d="M35.12 15.727c0 .444.643.444.643 0 0-.41-.643-.41-.643 0z" style="fill:#ab968c"/><path d="M33.5 16.273c.621-1.996 4.863-1.71 5.443-.359-.215-1.72-4.913-2.175-5.443.359z" style="fill:#f0a429"/><path d="M40.061 6.026 38.519 7.89c3.12 1.914 1.375 6.913 2.793 10.555.483-3.633 2.739-11.56-1.251-12.42zm-16.184.923 1.541.943c-3.12 1.913-1.312 6.912-2.73 10.554-.482-3.633-2.8-10.637 1.19-11.497z" style="fill:#f9a307"/><path d="M38.428 7.363c1.982-.007 2.179 3.231 2.179 3.231s.594-3.687-1.923-3.687l-.256.456zm-14.348 1.6c-.794 1.94-1.075 3.935-1.075 3.935s-.419-1.397.582-3.865l.494-.07z" style="fill:#e68c00"/><path d="M39.217 6.608c1.55-.161 1.925 2.355 1.925 2.355s.212-2.93-1.755-2.732l-.17.377z" style="fill:#e68c00"/><path d="M40.06 6.026S37.751 2 31.969 2C25.692 2 21.734 4.813 21.6 10.26c3.845-3.79 13.973 2.102 18.46-4.234z" style="fill:#ffb80d"/><path d="M40.06 6.026C39.468 4.167 36.32 2 31.969 2c2.411.17 5.59 1.365 5.917 2.12 0 0-3.335-1.799-7.836-1.01 4.127-.187 6.851 2.436 5.692 2.45-1.13.014-5.326.155-7.815 1.69 1.601-.108 4.763.753 4.62.809-3.189 1.233-9.587-1.7-10.9 2.2 4.94-4.233 14.367 2.585 18.413-4.233z" style="fill:#f9a307"/><path d="M40.06 6.026c-3.298 7.798-18.123-.923-17.778 5.607C20.768 4.14 35.18 13.382 40.06 6.026z" style="fill:#e68c00"/><path d="M39.157 7.194c-1.568-3.078-6.652-4.185-6.652-4.185s5.315.304 7.065 3.773l-.413.412zm-.805.697c-1.46-1.368-8.504-.885-8.504-.885s5.135-1.55 9.061.439l-.557.446z" style="fill:#e68c00"/><path d="M21.915 9.072s.69-5.602 10.32-5.183c-7.917 1.097-10.32 5.183-10.32 5.183z" style="fill:#f9a307"/><path d="M22.51 8.75s3.815-4.992 12.19-3.733c-6.988-.204-12.19 3.734-12.19 3.734zm-.21-1.744s4.188-4.71 11.055-4.63C25.42 1.32 22.3 7.005 22.3 7.005z" style="fill:#ffca25"/><path d="M32 23.472c-1.522-.449-3.78.213-3.78.213.86.935 1.489 2.151 3.78 2.151 2.625 0 3.072-1.38 3.78-2.15 0 0-2.258-.664-3.78-.214z" style="fill:#f0a429"/><path d="M28.786 23.844c1.597 1.34 4.822 1.347 6.428 0-1.7.073-4.714.073-6.428 0z" style="fill:#fff"/><path d="M18.77 32.236c.14-.15.365-.372.627-.439-.557-.071-1.167.046-1.617.391a.514.514 0 0 1-.095-.534c-.635.407-.722.832-.722.832-.216-.242-.26-.582-.26-.582s-.679.5-.513 1.116c-.667-.173-1.18.154-1.18.154s.326.084.502.307c1.045.133 3.307-.636 3.258-1.245z" style="fill:#f9a307"/><path d="M12.482 42.108c1.066.13 1.835 3.73 1.166 4.68-.094.133-.644.344-1.05-.494-.226-.464-.876-.852-1.078-1.81-.258-1.227-.097-2.505.963-2.376z" style="fill:#ffc940"/><path d="M12.511 42.798c.279.088.582.516.746 1.226-.971-.211-.728 1.422.116 1.452a7.103 7.103 0 0 1-.039.511c-.406-.595-.82-.356-1.23-1.243-.368-.8-.28-2.164.408-1.946z" style="fill:#f0a429"/><path d="M29.598 42.108c-1.065.13-1.835 3.73-1.164 4.68.093.133.643.344 1.05-.494.226-.464.875-.852 1.077-1.81.258-1.227.097-2.506-.963-2.376z" style="fill:#ffc940"/><path d="M28.824 44.021c.165-.708.467-1.135.745-1.223.689-.219.776 1.146.407 1.946-.409.887-.822.648-1.23 1.243a7.096 7.096 0 0 1-.037-.511c.835-.04 1.075-1.653.115-1.455z" style="fill:#f0a429"/><path d="M21.041 32.858c-5.822 0-8.627 4.404-8.275 10.529.07 1.231.834 4.047 1.555 5.489 1.275 2.545 4.6 4.442 6.72 4.442 2.118 0 5.447-1.897 6.72-4.442.722-1.442 1.485-4.258 1.555-5.49.352-6.124-2.453-10.528-8.275-10.528z" style="fill:#ffc940"/><path d="M22.398 46.828c-.144-.1-.481.054-1.357.054s-1.214-.154-1.358-.054c-.172.121.102.668 1.358.668 1.255 0 1.53-.547 1.357-.668zM21.04 48.78c-1.312-.386-3.258.183-3.258.183.74.807 1.284 1.853 3.259 1.853 2.26 0 2.646-1.188 3.258-1.853 0 0-1.947-.571-3.258-.183z" style="fill:#f0a429"/><path d="M18.27 49.1c1.377 1.155 4.156 1.162 5.54 0a81.084 81.084 0 0 1-5.54 0zm1.515-5.268c.048.373-.205.816-.907 1.148-.446.211-1.374.46-2.592-.054-.546-.23-1.078-.949-1.03-1.345.66-1.245 3.911-1.428 4.53.25z" style="fill:#fff"/><linearGradient id="c" x1="-425.747" x2="-425.747" y1="475.403" y2="475.791" gradientTransform="matrix(6.5701 0 0 -6.5701 2814.782 3168.527)" gradientUnits="userSpaceOnUse"><stop offset="0" style="stop-color:#a6694a"/><stop offset="1" style="stop-color:#4f2a1e"/></linearGradient><circle cx="17.579" cy="43.807" r="1.277" style="fill:url(#c)"/><path d="M16.94 43.783c0 .884 1.278.884 1.278 0 0-.82-1.277-.82-1.277 0z" style="fill:#1a1626"/><path d="M16.747 43.426c0 .37.535.37.535 0 0-.344-.535-.344-.535 0z" style="fill:#ab968c"/><path d="M19.791 43.881c-.518-1.667-4.054-1.421-4.536-.3.178-1.435 4.095-1.814 4.536.3z" style="fill:#f0a429"/><path d="M22.297 43.832c-.049.373.205.816.907 1.148.445.211 1.373.46 2.592-.054.546-.23 1.078-.949 1.03-1.345-.66-1.245-3.912-1.428-4.53.25z" style="fill:#fff"/><linearGradient id="d" x1="-427.397" x2="-427.397" y1="475.403" y2="475.791" gradientTransform="matrix(6.5701 0 0 -6.5701 2832.512 3168.527)" gradientUnits="userSpaceOnUse"><stop offset="0" style="stop-color:#a6694a"/><stop offset="1" style="stop-color:#4f2a1e"/></linearGradient><path d="M24.473 42.53a1.278 1.278 0 1 1 .001 2.555 1.278 1.278 0 0 1 0-2.556z" style="fill:url(#d)"/><path d="M23.835 43.783c0 .884 1.278.884 1.278 0 0-.82-1.277-.82-1.277 0z" style="fill:#1a1626"/><path d="M23.641 43.426c0 .37.535.37.535 0 0-.344-.535-.344-.535 0z" style="fill:#ab968c"/><path d="M22.29 43.881c.518-1.667 4.052-1.428 4.536-.3-.18-1.435-4.094-1.814-4.536.3z" style="fill:#f0a429"/><path d="M26.909 41.841c-1.099-.693-3.312-.894-4.178-.54-.186.068-.125.649.03.606 1.194-.357 3.05-.223 4.078.356.138.076.237-.324.07-.422zm-11.737 0c1.099-.693 3.311-.894 4.178-.54.185.068.125.649-.03.606-1.196-.357-3.049-.223-4.08.357-.136.075-.235-.325-.068-.423z" style="fill:#bb7c0a"/><path d="M17.58 32.735c-4.207.191-7.657 6.453-4.457 12.754 0 0 .257-5.493 2.575-7.132-.126 1.036-.402 1.768-.402 1.768s2.275-.36 4.279-1.638c-.234 1.145-.86 1.964-.86 1.964s4.137-.577 5.365-2.524c0 0 .81 1.705 2.817 2.933 0 0 .125-1.278-.151-2.183 1.966 1.935 2.198 6.803 2.198 6.803 4.148-9.1-3.976-16.723-11.364-12.745z" style="fill:#f9a307"/><path d="M17.922 32.926c-.126.683-.1 1.41-.1 1.41s-.405-.705-.327-1.279c-.877.677-2.08 2.019-2.08 2.019s.571-1.005 1.211-1.739c-4.229 1.237-5.065 6.47-4.048 9.261.49-2.601 1.85-4.684 4.17-6.222 0 0-.093 1.89-.923 2.925 2.453-.422 4.541-2.349 4.491-4.288.45 1.801.372 3.347-.642 4.777 2.078-.214 4.442-2.088 4.535-3.787.427 1.7.936 2.88 2.276 3.782 0-1.838-.908-3.56-.908-3.56s2.688 1.712 3.738 6.858c1.704-9.474-6.115-12.57-10.904-10.552 1.128.05 1.742.302 1.742.302s-1.266-.114-2.231.093z" style="fill:#ffb80d"/><path d="m26.45 37.69.358 1.227s1.681 2.227 2.135 6.563c.21-4.686-2.493-7.79-2.493-7.79zm-2.275.194-.092.267s.723 1.797 2.814 2.71c-1.694-1.072-2.722-2.977-2.722-2.977z" style="fill:#e68c00"/><path d="M24.353 36.857c.336 3.133-5.639 3.594-5.639 3.594s5.198-1.019 5.639-3.594zm-4.267.99c-1.036 1.96-4.79 2.278-4.79 2.278s2.902-.67 4.79-2.278zm-4.046.101c-2.676 3.134-2.917 7.54-2.917 7.54s-.706-4.732 2.917-7.54z" style="fill:#e68c00"/><path d="M29.315 43.083c.323-2.632-1.862-6.595-1.862-6.595s3.19 2.62 1.862 6.595z" style="fill:#f9a307"/><path d="M28.761 37.417c-3.48-6.228-9.355-5.045-9.355-5.045s6.84-1.835 9.355 5.045zm-12.213 1.451c2.577-2.075 2.166-4.983 2.166-4.983s1.326 3.134-2.166 4.983z" style="fill:#ffca25"/><path d="M25.833 38.38c-.65-2.164-2.053-4.495-2.053-4.495s1.905 1.503 2.053 4.494zm2.359.488c-.915-2.065-2.86-4.476-2.86-4.476s2.338 1.527 2.86 4.476zm-12.859-4.476c-2.145 2.588-2.665 5.773-2.665 5.773s-.35-3.913 2.665-5.773zm5.302 4.849c1.647-2.679.273-5.276.273-5.276s2.182 2.524-.273 5.276z" style="fill:#ffca25"/><path d="M19.674 39.79c3.827-1.136 3.2-4.84 3.2-4.84s1.322 4.79-3.2 4.84zm21.008-7.554c.14-.15.365-.372.627-.439-.557-.071-1.167.046-1.617.391a.514.514 0 0 1-.095-.534c-.635.407-.722.832-.722.832-.216-.242-.26-.582-.26-.582s-.679.5-.513 1.116c-.667-.173-1.18.154-1.18.154s.326.084.502.307c1.045.133 3.307-.636 3.258-1.245z" style="fill:#f9a307"/><path d="M34.395 42.108c1.065.13 1.834 3.73 1.165 4.68-.094.133-.643.344-1.05-.494-.226-.464-.876-.852-1.077-1.81-.26-1.227-.098-2.505.962-2.376z" style="fill:#ffc940"/><path d="M34.424 42.798c.278.088.581.516.746 1.226-.972-.211-.73 1.422.115 1.452a7.103 7.103 0 0 1-.039.511c-.406-.595-.82-.356-1.229-1.243-.37-.8-.281-2.164.407-1.946z" style="fill:#f0a429"/><path d="M51.51 42.108c-1.065.13-1.834 3.73-1.164 4.68.094.133.643.344 1.05-.494.226-.464.875-.852 1.077-1.81.258-1.227.097-2.506-.963-2.376z" style="fill:#ffc940"/><path d="M50.736 44.021c.165-.708.468-1.135.745-1.223.689-.219.776 1.146.407 1.946-.409.887-.822.648-1.229 1.243a7.096 7.096 0 0 1-.038-.511c.835-.04 1.075-1.653.115-1.455z" style="fill:#f0a429"/><path d="M42.953 32.858c-5.822 0-8.627 4.404-8.275 10.529.07 1.231.834 4.047 1.556 5.489 1.274 2.545 4.6 4.442 6.719 4.442 2.118 0 5.447-1.897 6.72-4.442.722-1.442 1.485-4.258 1.555-5.49.352-6.124-2.453-10.528-8.275-10.528z" style="fill:#ffc940"/><path d="M44.31 46.828c-.144-.1-.481.054-1.357.054s-1.214-.154-1.358-.054c-.172.121.102.668 1.358.668 1.255 0 1.53-.547 1.357-.668zm-1.357 1.952c-1.313-.386-3.258.183-3.258.183.74.807 1.283 1.853 3.258 1.853 2.261 0 2.647-1.188 3.258-1.853 0 0-1.947-.571-3.258-.183z" style="fill:#f0a429"/><path d="M40.183 49.1c1.376 1.155 4.155 1.162 5.54 0a81.084 81.084 0 0 1-5.54 0zm1.514-5.268c.048.373-.205.816-.907 1.148-.446.211-1.374.46-2.592-.054-.546-.23-1.078-.949-1.03-1.345.66-1.245 3.911-1.428 4.53.25z" style="fill:#fff"/><linearGradient id="e" x1="-422.412" x2="-422.412" y1="475.403" y2="475.791" gradientTransform="matrix(6.5701 0 0 -6.5701 2814.782 3168.527)" gradientUnits="userSpaceOnUse"><stop offset="0" style="stop-color:#a6694a"/><stop offset="1" style="stop-color:#4f2a1e"/></linearGradient><path d="M39.492 42.53a1.277 1.277 0 1 1 0 2.554 1.277 1.277 0 0 1 0-2.555z" style="fill:url(#e)"/><path d="M38.853 43.783c0 .884 1.277.884 1.277 0 0-.82-1.277-.82-1.277 0z" style="fill:#1a1626"/><path d="M38.66 43.426c0 .37.535.37.535 0 0-.344-.536-.344-.536 0z" style="fill:#ab968c"/><path d="M41.704 43.881c-.519-1.667-4.055-1.421-4.536-.3.177-1.435 4.094-1.814 4.536.3z" style="fill:#f0a429"/><path d="M44.209 43.832c-.049.373.205.816.907 1.148.445.211 1.373.46 2.592-.054.546-.23 1.078-.949 1.03-1.345-.66-1.245-3.912-1.428-4.53.25z" style="fill:#fff"/><linearGradient id="f" x1="-424.062" x2="-424.062" y1="475.403" y2="475.791" gradientTransform="matrix(6.5701 0 0 -6.5701 2832.512 3168.527)" gradientUnits="userSpaceOnUse"><stop offset="0" style="stop-color:#a6694a"/><stop offset="1" style="stop-color:#4f2a1e"/></linearGradient><path d="M46.385 42.53a1.278 1.278 0 1 1 .001 2.555 1.278 1.278 0 0 1 0-2.556z" style="fill:url(#f)"/><path d="M45.748 43.783c0 .884 1.277.884 1.277 0 0-.82-1.277-.82-1.277 0z" style="fill:#1a1626"/><path d="M45.553 43.426c0 .37.535.37.535 0 0-.344-.535-.344-.535 0z" style="fill:#ab968c"/><path d="M44.202 43.881c.518-1.667 4.052-1.428 4.536-.3-.179-1.435-4.094-1.814-4.536.3z" style="fill:#f0a429"/><path d="M48.82 41.841c-1.098-.693-3.31-.894-4.177-.54-.186.068-.125.649.03.606 1.194-.357 3.05-.223 4.078.356.138.076.237-.324.07-.422zm-11.736 0c1.099-.693 3.311-.894 4.178-.54.185.068.125.649-.03.606-1.196-.357-3.049-.223-4.08.357-.136.075-.235-.325-.068-.423z" style="fill:#bb7c0a"/><path d="M39.492 32.735c-4.207.191-7.657 6.453-4.456 12.754 0 0 .256-5.493 2.574-7.132-.125 1.036-.402 1.768-.402 1.768s2.275-.36 4.279-1.638c-.234 1.145-.86 1.964-.86 1.964s4.137-.577 5.366-2.524c0 0 .81 1.705 2.816 2.933 0 0 .125-1.278-.151-2.183 1.967 1.935 2.198 6.803 2.198 6.803 4.148-9.1-3.976-16.723-11.364-12.745z" style="fill:#f9a307"/><path d="M39.834 32.926c-.126.683-.1 1.41-.1 1.41s-.405-.705-.327-1.279c-.877.677-2.08 2.019-2.08 2.019s.571-1.005 1.211-1.739c-4.229 1.237-5.065 6.47-4.048 9.261.49-2.601 1.85-4.684 4.17-6.222 0 0-.093 1.89-.923 2.925 2.453-.422 4.541-2.349 4.491-4.288.45 1.801.372 3.347-.642 4.777 2.078-.214 4.442-2.088 4.535-3.787.427 1.7.936 2.88 2.276 3.782 0-1.838-.908-3.56-.908-3.56s2.688 1.712 3.738 6.858c1.704-9.474-6.115-12.57-10.904-10.552 1.128.05 1.742.302 1.742.302s-1.266-.114-2.231.093z" style="fill:#ffb80d"/><path d="m48.362 37.69.358 1.227s1.681 2.227 2.136 6.563c.21-4.686-2.494-7.79-2.494-7.79zm-2.275.194-.092.267s.723 1.797 2.814 2.71c-1.694-1.072-2.722-2.977-2.722-2.977z" style="fill:#e68c00"/><path d="M46.265 36.857c.336 3.133-5.639 3.594-5.639 3.594s5.198-1.019 5.639-3.594zm-4.267.99c-1.036 1.96-4.79 2.278-4.79 2.278s2.902-.67 4.79-2.278zm-4.046.101c-2.676 3.134-2.917 7.54-2.917 7.54s-.706-4.732 2.917-7.54z" style="fill:#e68c00"/><path d="M51.227 43.083c.323-2.632-1.862-6.595-1.862-6.595s3.19 2.62 1.862 6.595z" style="fill:#f9a307"/><path d="M50.673 37.417c-3.48-6.228-9.355-5.045-9.355-5.045s6.84-1.835 9.355 5.045zM38.46 38.868c2.577-2.075 2.166-4.983 2.166-4.983s1.327 3.134-2.166 4.983z" style="fill:#ffca25"/><path d="M47.745 38.38c-.649-2.164-2.053-4.495-2.053-4.495s1.905 1.503 2.053 4.494zm2.359.488c-.915-2.065-2.86-4.476-2.86-4.476s2.338 1.527 2.86 4.476zm-12.859-4.476c-2.145 2.588-2.665 5.773-2.665 5.773s-.35-3.913 2.665-5.773zm5.302 4.849c1.647-2.679.273-5.276.273-5.276s2.182 2.524-.273 5.276z" style="fill:#ffca25"/><path d="M41.586 39.79c3.827-1.136 3.2-4.84 3.2-4.84s1.322 4.79-3.2 4.84z" style="fill:#f9a307"/></svg>