<svg xmlns="http://www.w3.org/2000/svg" xml:space="preserve" style="enable-background:new 0 0 64 64" viewBox="0 0 64 64"><path d="M49.673 58 54 60.836c2.138-.368 3.409-.829 3.409-1.388v-1.447L49.673 58z" style="fill:#2b4f87"/><path d="M60.742 31.723c-1.271-1.645-7.428-3.657-7.428-3.657l-11.654.019s-5.957 1.993-7.228 3.638C32.352 34.413 32 39.697 32 39.697L36.673 58H57.41V45.085l5.551-4.93s-.138-5.74-2.218-8.43z" style="fill:#3a8fb0"/><path d="M41.656 28.085c0 4.888 11.658 4.87 11.658-.02l-1.168-.412h-9.27l-1.22.432z" style="fill:#007eb0"/><path d="M42.49 27.79c0 3.826 9.994 3.826 9.994 0v-4.234H42.49v4.234z" style="fill:#f5bb51"/><path d="m47.034 53.163-8.073.011S32 55.371 32 58.001V62c8.689 0 17.375-.366 22-1.164v-2.835c0-2.636-6.966-4.838-6.966-4.838z" style="fill:#8feaff"/><path d="M38.96 53.174c0 3.088 8.074 3.076 8.074-.011l-.81-.262h-6.418l-.845.273z" style="fill:#67dbf5"/><path d="M39.538 52.988c0 2.417 6.92 2.417 6.92 0v-2.674h-6.92v2.674z" style="fill:#f5bb51"/><path d="m35.573 61.98.308-.005c-.001-3.472-.307-3.47-.308.004zm14.545-.652.3-.029c-.036-2.574-.266-2.566-.3.029z" style="fill:#67dbf5"/><path d="M48.128 53.63s-.312-.119-1.094-.467c1-.94 1.716-.936 3.469-1.403 2.5-.667 3.937-3.73 6.753-5.73 0 0-.208-2.124.208-3.874 2.522-.497 5.362-1.866 5.362-1.866s.097 6.428-1.532 8.67c-1.268 1.747-7.708 4.404-8.416 5.133-.841.866-1.262 2.28-1.502 2.529-2.084 2.138-4.222 1.956-4.797 1.405-2.289-.235 2.518-3.252 1.55-4.398z" style="fill:#f5bb51"/><path d="M48.745 56.26s-1.209 1.476-2.166 1.767c1.12-.072 2.166-1.767 2.166-1.767zm1.313.046s-1.506 1.783-2.463 2.075c1.12-.073 2.463-2.075 2.463-2.075zm.728.236s-1.047 1.415-2.006 1.707c1.12-.072 2.006-1.707 2.006-1.707z" style="fill:#f0a429"/><path d="M37.867 53.64s.313-.117 1.094-.466c-.385-.616-1.14-.909-1.458-1.58-.505-1.069-1.155-3.703-1.321-4.703 0 0 .186-3.658.02-5.105C33.973 40.495 32 39.697 32 39.697v7.04c0 1.565 2.513 4.898 2.415 5.82-.202 1.909-.036 3.828.204 4.076 2.084 2.138 4.223 1.957 4.797 1.405 2.289-.235-2.518-3.251-1.549-4.397z" style="fill:#f5bb51"/><path d="M37.25 56.271s1.209 1.476 2.166 1.767c-1.12-.072-2.166-1.767-2.166-1.767zm-1.313.047s1.506 1.783 2.463 2.074c-1.119-.073-2.463-2.074-2.463-2.074zm-.728.236s1.047 1.415 2.006 1.706c-1.12-.071-2.006-1.706-2.006-1.706z" style="fill:#f0a429"/><path d="M14.326 58 10 60.836c-2.138-.368-3.409-.829-3.409-1.388v-1.447L14.326 58z" style="fill:#2b4f87"/><path d="M3.258 31.723c1.271-1.645 7.428-3.657 7.428-3.657l11.654.019s5.957 1.993 7.228 3.638c2.08 2.69 2.432 7.974 2.432 7.974L27.326 58H6.591V45.085l-5.551-4.93s.138-5.74 2.218-8.43z" style="fill:#3ab0a2"/><path d="M22.344 28.085c0 4.888-11.658 4.87-11.658-.02l1.168-.412h9.27l1.22.432z" style="fill:#2b998d"/><path d="M21.51 27.79c0 3.826-9.994 3.826-9.994 0v-4.234h9.994v4.234z" style="fill:#f5bb51"/><path d="m16.966 53.163 8.073.011S32 55.371 32 58.001V62c-8.689 0-17.375-.366-22-1.164v-2.835c0-2.636 6.966-4.838 6.966-4.838z" style="fill:#ff9ed2"/><path d="M25.04 53.174c0 3.088-8.074 3.076-8.074-.011l.81-.262h6.419l.844.273z" style="fill:#ff82c5"/><path d="M24.462 52.988c0 2.417-6.92 2.417-6.92 0v-2.674h6.92v2.674z" style="fill:#f5bb51"/><path d="m28.427 61.98-.308-.005c.001-3.472.307-3.47.308.004zm-14.545-.652-.3-.029c.036-2.574.266-2.566.3.029z" style="fill:#ff82c5"/><path d="M15.872 53.63s.312-.119 1.094-.467c-1-.94-1.716-.936-3.469-1.403-2.5-.667-3.937-3.73-6.753-5.73 0 0 .208-2.124-.208-3.874-2.522-.497-5.362-1.866-5.362-1.866s-.097 6.428 1.532 8.67c1.268 1.747 7.708 4.404 8.416 5.133.841.866 1.262 2.28 1.502 2.529 2.084 2.138 4.222 1.956 4.797 1.405 2.289-.235-2.518-3.252-1.55-4.398z" style="fill:#f5bb51"/><path d="M15.255 56.26s1.209 1.476 2.166 1.767c-1.12-.072-2.166-1.767-2.166-1.767zm-1.313.046s1.506 1.783 2.463 2.075c-1.12-.073-2.463-2.075-2.463-2.075zm-.728.236s1.046 1.415 2.005 1.707c-1.119-.072-2.005-1.707-2.005-1.707z" style="fill:#f0a429"/><path d="M26.133 53.64s-.313-.117-1.094-.466c.385-.616 1.14-.909 1.458-1.58.505-1.069 1.155-3.703 1.321-4.703 0 0-.186-3.658-.02-5.105C30.027 40.495 32 39.697 32 39.697v7.04c0 1.565-2.513 4.898-2.415 5.82.202 1.909.036 3.828-.204 4.076-2.084 2.138-4.223 1.957-4.797 1.405-2.289-.235 2.518-3.251 1.549-4.397z" style="fill:#f5bb51"/><path d="M26.75 56.271s-1.209 1.476-2.166 1.767c1.12-.072 2.166-1.767 2.166-1.767zm1.313.047s-1.506 1.783-2.463 2.074c1.119-.073 2.463-2.074 2.463-2.074zm.728.236s-1.047 1.415-2.006 1.706c1.12-.071 2.006-1.706 2.006-1.706zM32 46.796s.113-7.098 0-7.099c-.113 0 0 7.1 0 7.1z" style="fill:#f0a429"/><path d="M26.608 13.946c-1.562.188-2.691 5.416-1.707 6.797.138.192.942.5 1.54-.718.33-.675 1.284-1.238 1.58-2.629.379-1.782.142-3.639-1.413-3.45zm-20.19 0c1.563.188 2.691 5.416 1.707 6.797-.138.192-.942.5-1.54-.718-.33-.675-1.285-1.238-1.58-2.629-.38-1.782-.143-3.639 1.413-3.45z" style="fill:#ffc940"/><path d="M26.566 14.947c-.408.128-.853.75-1.094 1.781 1.425-.306 1.069 2.066-.17 2.11.012.239.027.484.057.742.596-.865 1.203-.519 1.804-1.807.541-1.16.413-3.142-.597-2.826zM7.554 16.725c-.243-1.03-.686-1.65-1.094-1.779-1.009-.316-1.14 1.666-.598 2.827.601 1.288 1.208.94 1.805 1.806.03-.258.046-.504.056-.743-1.226-.057-1.577-2.4-.17-2.11z" style="fill:#f0a429"/><path d="M16.512 3.891c-6.771 0-10.033 5.119-9.625 12.235.081 1.432.971 6.102 1.81 7.778.858 1.714 3.73 4.357 5.488 4.904 1.111.345 3.545.345 4.655 0 1.76-.547 4.632-3.19 5.49-4.904.84-1.676 1.728-6.345 1.808-7.778.41-7.116-2.852-12.235-9.626-12.235z" style="fill:#ffc940"/><path d="M23.87 13.424c-1.548-.821-4.512-.861-5.616-.288-.238.109-.08.885.118.812 1.538-.609 4.02-.622 5.46.052.193.087.273-.463.038-.576zm-14.714 0c1.548-.821 4.51-.861 5.616-.288.236.109.08.885-.119.812-1.54-.609-4.02-.622-5.461.052-.19.087-.27-.463-.036-.576z" style="fill:#bb7c0a"/><path d="M18.34 20.53c-.193-.134-.646.073-1.827.073-1.18 0-1.634-.208-1.827-.073-.231.163.137.898 1.827.898s2.06-.735 1.827-.898z" style="fill:#f0a429"/><path d="M15.006 16.214c.057.45-.247.98-1.089 1.378-.535.254-1.65.551-3.111-.065-.655-.277-1.294-1.136-1.236-1.612.793-1.494 4.694-1.713 5.436.3z" style="fill:#fff"/><linearGradient id="a" x1="-1212.279" x2="-1212.279" y1="170.752" y2="170.286" gradientTransform="translate(7977.155 -1104.145) scale(6.5701)" gradientUnits="userSpaceOnUse"><stop offset="0" style="stop-color:#a6694a"/><stop offset="1" style="stop-color:#4f2a1e"/></linearGradient><path d="M12.36 14.654a1.533 1.533 0 1 1-1.534 1.53c0-.845.685-1.53 1.533-1.53z" style="fill:url(#a)"/><path d="M11.593 16.156c0 1.06 1.533 1.06 1.533 0 0-.982-1.533-.982-1.533 0z" style="fill:#1a1626"/><path d="M11.36 15.727c0 .444.642.444.642 0 0-.41-.642-.41-.642 0z" style="fill:#ab968c"/><path d="M15.013 16.273c-.622-1.997-4.866-1.702-5.443-.359.213-1.72 4.913-2.175 5.443.359z" style="fill:#f0a429"/><path d="M18.02 16.214c-.057.45.246.98 1.089 1.378.535.254 1.648.551 3.11-.065.657-.277 1.295-1.136 1.237-1.612-.793-1.494-4.695-1.713-5.436.3z" style="fill:#fff"/><linearGradient id="b" x1="-1213.719" x2="-1213.719" y1="170.752" y2="170.286" gradientTransform="translate(7994.886 -1104.145) scale(6.5701)" gradientUnits="userSpaceOnUse"><stop offset="0" style="stop-color:#a6694a"/><stop offset="1" style="stop-color:#4f2a1e"/></linearGradient><path d="M20.632 14.654a1.532 1.532 0 1 1 .002 3.063 1.532 1.532 0 0 1-.002-3.063z" style="fill:url(#b)"/><path d="M19.867 16.156c0 1.06 1.533 1.06 1.533 0 0-.982-1.533-.982-1.533 0z" style="fill:#1a1626"/><path d="M19.633 15.727c0 .444.643.444.643 0 0-.41-.643-.41-.643 0z" style="fill:#ab968c"/><path d="M18.013 16.273c.62-1.996 4.863-1.71 5.443-.359-.216-1.72-4.913-2.175-5.443.359z" style="fill:#f0a429"/><path d="m24.573 6.026-1.54 1.865c3.12 1.914 1.373 6.913 2.791 10.555.483-3.633 2.74-11.56-1.25-12.42zM8.39 6.949l1.54.943c-3.12 1.913-1.31 6.912-2.728 10.554C6.72 14.813 4.401 7.81 8.39 6.95z" style="fill:#f9a307"/><path d="M22.94 7.363c1.982-.007 2.179 3.231 2.179 3.231s.595-3.687-1.923-3.687l-.256.456zm-14.347 1.6c-.794 1.94-1.075 3.935-1.075 3.935s-.42-1.397.581-3.865l.494-.07z" style="fill:#e68c00"/><path d="M23.73 6.608c1.549-.161 1.924 2.355 1.924 2.355s.213-2.93-1.755-2.732l-.17.377z" style="fill:#e68c00"/><path d="M24.573 6.026S22.263 2 16.482 2c-6.278 0-10.235 2.813-10.37 8.26 3.845-3.79 13.973 2.102 18.46-4.234z" style="fill:#ffb80d"/><path d="M24.573 6.026C23.98 4.167 20.833 2 16.482 2c2.41.17 5.59 1.365 5.916 2.12 0 0-3.335-1.799-7.835-1.01 4.126-.187 6.85 2.436 5.691 2.45-1.13.014-5.325.155-7.814 1.69 1.6-.108 4.762.753 4.619.809-3.188 1.233-9.586-1.7-10.9 2.2 4.94-4.233 14.368 2.585 18.414-4.233z" style="fill:#f9a307"/><path d="M24.573 6.026c-3.299 7.798-18.123-.923-17.779 5.607-1.513-7.493 12.9 1.749 17.779-5.607z" style="fill:#e68c00"/><path d="M23.67 7.194c-1.569-3.078-6.653-4.185-6.653-4.185s5.316.304 7.066 3.773l-.413.412zm-.806.697c-1.46-1.368-8.503-.885-8.503-.885s5.134-1.55 9.06.439l-.557.446z" style="fill:#e68c00"/><path d="M6.427 9.072s.69-5.602 10.32-5.183C8.831 4.986 6.427 9.072 6.427 9.072z" style="fill:#f9a307"/><path d="M7.023 8.75s3.815-4.992 12.19-3.733c-6.988-.204-12.19 3.734-12.19 3.734zm-.21-1.744s4.188-4.71 11.054-4.63C9.934 1.32 6.813 7.005 6.813 7.005z" style="fill:#ffca25"/><path d="M16.513 23.472c-1.523-.449-3.781.213-3.781.213.86.935 1.49 2.151 3.78 2.151 2.626 0 3.072-1.38 3.781-2.15 0 0-2.258-.664-3.78-.214z" style="fill:#f0a429"/><path d="M13.299 23.844c1.597 1.34 4.822 1.347 6.427 0-1.7.073-4.714.073-6.427 0z" style="fill:#fff"/><path d="M57.583 13.946c-1.562.188-2.691 5.416-1.708 6.797.138.192.943.5 1.54-.718.331-.675 1.285-1.238 1.58-2.629.38-1.782.143-3.639-1.412-3.45zm-20.191 0c1.563.188 2.692 5.416 1.708 6.797-.138.192-.943.5-1.54-.718-.33-.675-1.285-1.238-1.58-2.629-.38-1.782-.143-3.639 1.413-3.45z" style="fill:#ffc940"/><path d="M57.54 14.947c-.407.128-.852.75-1.093 1.781 1.425-.306 1.069 2.066-.17 2.11.012.239.027.484.057.742.596-.865 1.203-.519 1.804-1.807.541-1.16.413-3.142-.597-2.826zm-19.012 1.778c-.242-1.03-.686-1.65-1.093-1.779-1.009-.316-1.14 1.666-.598 2.827.6 1.288 1.208.94 1.805 1.806.03-.258.046-.504.055-.743-1.225-.057-1.577-2.4-.169-2.11z" style="fill:#f0a429"/><path d="M47.487 3.891c-6.771 0-10.033 5.119-9.626 12.235.082 1.432.972 6.102 1.81 7.778.859 1.714 3.73 4.357 5.488 4.904 1.112.345 3.546.345 4.656 0 1.76-.547 4.631-3.19 5.49-4.904.84-1.676 1.727-6.345 1.808-7.778.41-7.116-2.852-12.235-9.626-12.235z" style="fill:#ffc940"/><path d="M54.845 13.424c-1.548-.821-4.512-.861-5.616-.288-.238.109-.08.885.118.812 1.538-.609 4.02-.622 5.46.052.193.087.273-.463.038-.576zm-14.715 0c1.549-.821 4.511-.861 5.617-.288.236.109.08.885-.119.812-1.54-.609-4.02-.622-5.462.052-.19.087-.27-.463-.035-.576z" style="fill:#bb7c0a"/><path d="M49.315 20.53c-.193-.134-.646.073-1.828.073-1.178 0-1.633-.208-1.826-.073-.232.163.137.898 1.826.898 1.691 0 2.06-.735 1.828-.898z" style="fill:#f0a429"/><path d="M45.98 16.214c.058.45-.246.98-1.088 1.378-.535.254-1.65.551-3.111-.065-.655-.277-1.294-1.136-1.237-1.612.793-1.494 4.695-1.713 5.437.3z" style="fill:#fff"/><linearGradient id="c" x1="-1207.565" x2="-1207.565" y1="170.752" y2="170.286" gradientTransform="translate(7977.155 -1104.145) scale(6.5701)" gradientUnits="userSpaceOnUse"><stop offset="0" style="stop-color:#a6694a"/><stop offset="1" style="stop-color:#4f2a1e"/></linearGradient><path d="M43.334 14.654a1.533 1.533 0 1 1-1.534 1.53c0-.845.686-1.53 1.534-1.53z" style="fill:url(#c)"/><path d="M42.567 16.156c0 1.06 1.533 1.06 1.533 0 0-.982-1.533-.982-1.533 0z" style="fill:#1a1626"/><path d="M42.335 15.727c0 .444.642.444.642 0 0-.41-.642-.41-.642 0z" style="fill:#ab968c"/><path d="M45.988 16.273c-.622-1.997-4.867-1.702-5.444-.359.214-1.72 4.914-2.175 5.444.359z" style="fill:#f0a429"/><path d="M48.995 16.214c-.058.45.246.98 1.089 1.378.534.254 1.647.551 3.11-.065.657-.277 1.294-1.136 1.237-1.612-.793-1.494-4.695-1.713-5.436.3z" style="fill:#fff"/><linearGradient id="d" x1="-1209.004" x2="-1209.004" y1="170.752" y2="170.286" gradientTransform="translate(7994.886 -1104.145) scale(6.5701)" gradientUnits="userSpaceOnUse"><stop offset="0" style="stop-color:#a6694a"/><stop offset="1" style="stop-color:#4f2a1e"/></linearGradient><path d="M51.607 14.654a1.532 1.532 0 1 1 .002 3.063 1.532 1.532 0 0 1-.002-3.063z" style="fill:url(#d)"/><path d="M50.841 16.156c0 1.06 1.533 1.06 1.533 0 0-.982-1.533-.982-1.533 0z" style="fill:#1a1626"/><path d="M50.608 15.727c0 .444.642.444.642 0 0-.41-.642-.41-.642 0z" style="fill:#ab968c"/><path d="M48.987 16.273c.621-1.996 4.863-1.71 5.443-.359-.215-1.72-4.913-2.175-5.443.359z" style="fill:#f0a429"/><path d="M55.548 6.026 54.007 7.89c3.12 1.914 1.374 6.913 2.792 10.555.483-3.633 2.74-11.56-1.25-12.42zm-16.183.923 1.54.943c-3.12 1.913-1.312 6.912-2.729 10.554-.483-3.633-2.8-10.637 1.189-11.497z" style="fill:#f9a307"/><path d="M53.915 7.363c1.982-.007 2.179 3.231 2.179 3.231s.594-3.687-1.923-3.687l-.256.456zm-14.347 1.6c-.795 1.94-1.075 3.935-1.075 3.935s-.42-1.397.58-3.865l.495-.07z" style="fill:#e68c00"/><path d="M54.705 6.608c1.548-.161 1.924 2.355 1.924 2.355s.212-2.93-1.755-2.732l-.17.377z" style="fill:#e68c00"/><path d="M55.547 6.026S53.238 2 47.457 2c-6.278 0-10.235 2.813-10.37 8.26 3.845-3.79 13.973 2.102 18.46-4.234z" style="fill:#ffb80d"/><path d="M55.547 6.026C54.955 4.167 51.807 2 47.457 2c2.41.17 5.589 1.365 5.916 2.12 0 0-3.335-1.799-7.836-1.01 4.127-.187 6.851 2.436 5.692 2.45-1.13.014-5.325.155-7.815 1.69 1.602-.108 4.763.753 4.62.809-3.188 1.233-9.586-1.7-10.9 2.2 4.94-4.233 14.367 2.585 18.413-4.233z" style="fill:#f9a307"/><path d="M55.547 6.026c-3.298 7.798-18.123-.923-17.778 5.607-1.513-7.493 12.9 1.749 17.778-5.607z" style="fill:#e68c00"/><path d="M54.644 7.194c-1.568-3.078-6.652-4.185-6.652-4.185s5.315.304 7.066 3.773l-.414.412zm-.805.697c-1.46-1.368-8.503-.885-8.503-.885s5.134-1.55 9.06.439l-.557.446z" style="fill:#e68c00"/><path d="M37.402 9.072s.69-5.602 10.32-5.183c-7.917 1.097-10.32 5.183-10.32 5.183z" style="fill:#f9a307"/><path d="M37.997 8.75s3.815-4.992 12.191-3.733c-6.988-.204-12.19 3.734-12.19 3.734zm-.209-1.744s4.188-4.71 11.054-4.63c-7.934-1.055-11.054 4.63-11.054 4.63z" style="fill:#ffca25"/><path d="M47.487 23.472c-1.522-.449-3.78.213-3.78.213.86.935 1.489 2.151 3.78 2.151 2.625 0 3.072-1.38 3.781-2.15 0 0-2.258-.664-3.78-.214z" style="fill:#f0a429"/><path d="M44.274 23.844c1.597 1.34 4.821 1.347 6.427 0-1.7.073-4.714.073-6.427 0z" style="fill:#fff"/><path d="M13.35 42.876c-3.182 4.07.097 8.55-2.618 9.99 4.82 3.35 9.013-4.584 2.619-9.99z" style="fill:#e68c00"/><path d="M13.35 42.876c-6.454 4.266-.78 8.15-2.618 9.99 2.478.9 5.136-1.8 2.619-9.99z" style="fill:#ffb80d"/><path d="M13.35 42.876c-1.761 3.518 2.167 9.904-2.618 9.99 3.442 1.514 6.168-1.925 2.619-9.99z" style="fill:#f9a307"/><path d="M11.35 52.405c1.444-1.346-2.447-5.918 2.097-8.826-3.292 3.276.477 7.794-2.096 8.826z" style="fill:#ffca25"/><path d="M28.65 42.876c3.182 4.07-.097 8.55 2.618 9.99-4.82 3.35-9.013-4.584-2.619-9.99z" style="fill:#e68c00"/><path d="M28.65 42.876c6.454 4.266.78 8.15 2.618 9.99-2.478.9-5.136-1.8-2.619-9.99z" style="fill:#ffb80d"/><path d="M28.65 42.876c1.761 3.518-2.167 9.904 2.618 9.99-3.442 1.514-6.168-1.925-2.619-9.99z" style="fill:#f9a307"/><path d="M30.65 52.405c-1.444-1.346 2.447-5.918-2.097-8.826 3.292 3.276-.477 7.794 2.096 8.826z" style="fill:#ffca25"/><path d="M21 32c-6.786.004-11.081 5.973-8.438 13.64h16.876C32.081 37.973 27.785 32.004 21 32z" style="fill:#f9a307"/><path d="M12.442 42.454c1.066.13 1.834 3.73 1.165 4.68-.094.132-.643.344-1.05-.495-.226-.463-.876-.851-1.077-1.809-.259-1.227-.098-2.506.962-2.376z" style="fill:#ffc940"/><path d="M12.47 43.144c.279.088.582.516.747 1.226-.972-.211-.729 1.422.115 1.452a7.103 7.103 0 0 1-.038.511c-.407-.595-.82-.356-1.23-1.243-.369-.8-.281-2.164.407-1.946z" style="fill:#f0a429"/><path d="M29.557 42.454c-1.064.13-1.834 3.73-1.163 4.68.093.132.642.344 1.05-.495.225-.463.875-.851 1.076-1.809.259-1.227.098-2.506-.963-2.376z" style="fill:#ffc940"/><path d="M28.784 44.367c.165-.708.467-1.135.744-1.223.69-.219.777 1.146.408 1.946-.41.887-.823.648-1.23 1.243a7.154 7.154 0 0 1-.038-.512c.835-.04 1.075-1.652.116-1.454z" style="fill:#f0a429"/><path d="M21 33.204c-5.821 0-8.626 4.404-8.274 10.528.07 1.232.833 4.048 1.555 5.49 1.274 2.544 4.6 4.442 6.719 4.442 2.118 0 5.447-1.898 6.72-4.443.722-1.441 1.486-4.257 1.555-5.489.353-6.124-2.452-10.528-8.274-10.528z" style="fill:#ffc940"/><path d="M22.357 47.174c-.143-.1-.481.054-1.357.054s-1.214-.154-1.358-.054c-.172.121.103.668 1.358.668s1.53-.547 1.357-.668zM21 49.126c-1.313-.387-3.258.183-3.258.183.74.807 1.283 1.853 3.258 1.853 2.261 0 2.647-1.189 3.259-1.853 0 0-1.947-.571-3.259-.183z" style="fill:#f0a429"/><path d="M18.23 49.445c1.377 1.155 4.155 1.162 5.54 0a81.084 81.084 0 0 1-5.54 0zm1.515-5.267c.048.373-.206.816-.908 1.147-.445.212-1.373.46-2.592-.054-.546-.23-1.078-.948-1.03-1.344.66-1.245 3.912-1.428 4.53.25z" style="fill:#fff"/><linearGradient id="e" x1="-425.753" x2="-425.753" y1="475.35" y2="475.739" gradientTransform="matrix(6.5701 0 0 -6.5701 2814.782 3168.527)" gradientUnits="userSpaceOnUse"><stop offset="0" style="stop-color:#a6694a"/><stop offset="1" style="stop-color:#4f2a1e"/></linearGradient><path d="M17.539 42.875a1.277 1.277 0 1 1 0 2.555 1.277 1.277 0 0 1 0-2.555z" style="fill:url(#e)"/><path d="M16.9 44.129c0 .884 1.278.884 1.278 0 0-.82-1.278-.82-1.278 0z" style="fill:#1a1626"/><path d="M16.707 43.772c0 .37.535.37.535 0 0-.344-.535-.344-.535 0z" style="fill:#ab968c"/><path d="M19.751 44.227c-.519-1.668-4.055-1.422-4.536-.3.178-1.435 4.094-1.814 4.536.3z" style="fill:#f0a429"/><path d="M22.256 44.178c-.049.373.205.816.907 1.147.445.212 1.373.46 2.592-.054.547-.23 1.079-.948 1.03-1.344-.659-1.245-3.912-1.428-4.529.25z" style="fill:#fff"/><linearGradient id="f" x1="-427.403" x2="-427.403" y1="475.35" y2="475.739" gradientTransform="matrix(6.5701 0 0 -6.5701 2832.512 3168.527)" gradientUnits="userSpaceOnUse"><stop offset="0" style="stop-color:#a6694a"/><stop offset="1" style="stop-color:#4f2a1e"/></linearGradient><path d="M24.433 42.875a1.278 1.278 0 1 1 0 2.555 1.278 1.278 0 0 1 0-2.555z" style="fill:url(#f)"/><path d="M23.795 44.129c0 .884 1.277.884 1.277 0 0-.82-1.277-.82-1.277 0z" style="fill:#1a1626"/><path d="M23.6 43.772c0 .37.536.37.536 0 0-.344-.535-.344-.535 0z" style="fill:#ab968c"/><path d="M22.25 44.227c.518-1.667 4.052-1.428 4.536-.3-.18-1.435-4.094-1.814-4.536.3z" style="fill:#f0a429"/><path d="M26.85 42.497c-.82-.837-2.323-1.397-4.115-.902-.19.053-.178.646-.023.606 1.638-.424 3.006-.157 4.032.71.12.102.241-.275.106-.414zm-11.699 0c.82-.837 2.323-1.397 4.115-.902.19.053.178.646.023.606-1.638-.424-3.006-.157-4.032.71-.12.102-.242-.275-.106-.414z" style="fill:#bb7c0a"/><path d="M20.998 32.2c-3.413 0-6.343 1.915-7.666 4.2-1.205 2.083-1.443 5.76-.361 8.779.14-2.896 1.746-4.354 1.648-7.541 9.59 0 13.523 3.09 14.405 7.54 2.177-6.079-1.252-12.977-8.026-12.977z" style="fill:#f9a307"/><path d="M20.816 32.203c-3.413 0-6.161 1.912-7.484 4.198-1.205 2.082-1.71 4.753-.361 8.778-.692-4.439 1.209-7.916 1.209-7.916 9.322-1.011 13.85 3.114 14.844 7.916.217-1.639.004-9.24-8.475-9.9 6.306-.57 8.475 2.568 8.625 7.283 1.68-6.14-3.804-10.36-8.358-10.36z" style="fill:#ffb80d"/><path d="M29.024 45.179c-1.89-8.217-15.167-7.5-15.167-7.5s14.026-1.552 15.167 7.5z" style="fill:#e68c00"/><path d="M12.97 45.179c-.122-3.425 1.69-4.967 1.496-8.503.749 3.36-.865 5.028-1.495 8.503z" style="fill:#e68c00"/><path d="M29.174 42.562c.766-11.573-17.116-11.573-16.35 0 .666-9.72 15.683-9.72 16.35 0z" style="fill:#cfd8dd"/><path d="M29.174 42.187c.766-11.573-17.116-11.573-16.35 0 .666-9.72 15.683-9.72 16.35 0z" style="fill:#fff"/><path d="M12.923 37.847c3.413-7.552 10.509-4.627 10.509-4.627s-6.704-1.696-10.509 4.627zm14.613 2.526c-3.4-3.697-8.72-4.347-8.72-4.347s6.163-.886 8.72 4.346z" style="fill:#ffca25"/><path d="M40.73 32.582c.14-.151.364-.372.627-.44-.558-.07-1.168.047-1.618.392a.514.514 0 0 1-.095-.534c-.635.407-.721.832-.721.832-.217-.242-.26-.582-.26-.582s-.68.499-.514 1.116c-.666-.174-1.18.154-1.18.154s.327.084.502.307c1.045.133 3.307-.636 3.258-1.245z" style="fill:#f9a307"/><path d="M34.442 42.454c1.065.13 1.834 3.73 1.165 4.68-.094.132-.643.344-1.05-.495-.226-.463-.876-.851-1.077-1.809-.259-1.227-.097-2.506.962-2.376z" style="fill:#ffc940"/><path d="M34.47 43.144c.279.088.582.515.747 1.226-.972-.211-.729 1.422.115 1.452a7.103 7.103 0 0 1-.038.511c-.407-.595-.82-.356-1.23-1.243-.369-.8-.281-2.164.407-1.946z" style="fill:#f0a429"/><path d="M51.557 42.454c-1.065.13-1.834 3.73-1.163 4.68.093.132.642.344 1.05-.495.225-.463.875-.851 1.076-1.809.259-1.227.097-2.506-.963-2.376z" style="fill:#ffc940"/><path d="M50.784 44.367c.164-.708.467-1.135.744-1.223.689-.219.777 1.146.408 1.946-.41.887-.823.648-1.23 1.243a7.096 7.096 0 0 1-.038-.512c.835-.04 1.075-1.652.116-1.454z" style="fill:#f0a429"/><path d="M43 33.204c-5.821 0-8.626 4.404-8.274 10.528.07 1.232.833 4.048 1.555 5.49 1.274 2.544 4.6 4.442 6.719 4.442 2.118 0 5.447-1.898 6.72-4.443.722-1.441 1.485-4.257 1.555-5.489.353-6.124-2.453-10.528-8.274-10.528z" style="fill:#ffc940"/><path d="M44.357 47.174c-.143-.1-.481.054-1.357.054s-1.214-.154-1.358-.054c-.172.121.103.668 1.358.668 1.255 0 1.53-.547 1.357-.668zM43 49.126c-1.313-.387-3.258.183-3.258.183.74.807 1.283 1.853 3.258 1.853 2.261 0 2.647-1.189 3.259-1.853 0 0-1.947-.571-3.26-.183z" style="fill:#f0a429"/><path d="M40.23 49.445c1.377 1.155 4.155 1.162 5.54 0a81.084 81.084 0 0 1-5.54 0zm1.515-5.267c.047.373-.206.816-.908 1.147-.446.212-1.373.46-2.592-.054-.546-.23-1.078-.948-1.03-1.344.66-1.245 3.911-1.428 4.53.25z" style="fill:#fff"/><linearGradient id="g" x1="-422.405" x2="-422.405" y1="475.35" y2="475.739" gradientTransform="matrix(6.5701 0 0 -6.5701 2814.782 3168.527)" gradientUnits="userSpaceOnUse"><stop offset="0" style="stop-color:#a6694a"/><stop offset="1" style="stop-color:#4f2a1e"/></linearGradient><path d="M39.539 42.875a1.277 1.277 0 1 1 0 2.555 1.277 1.277 0 0 1 0-2.555z" style="fill:url(#g)"/><path d="M38.9 44.129c0 .884 1.278.884 1.278 0 0-.82-1.278-.82-1.278 0z" style="fill:#1a1626"/><path d="M38.707 43.772c0 .37.535.37.535 0 0-.344-.535-.344-.535 0z" style="fill:#ab968c"/><path d="M41.75 44.227c-.518-1.668-4.054-1.421-4.535-.3.178-1.435 4.094-1.814 4.536.3z" style="fill:#f0a429"/><path d="M44.256 44.178c-.049.373.205.816.907 1.147.445.212 1.373.46 2.592-.054.546-.23 1.078-.948 1.03-1.344-.659-1.245-3.912-1.428-4.529.25z" style="fill:#fff"/><linearGradient id="h" x1="-424.054" x2="-424.054" y1="475.35" y2="475.739" gradientTransform="matrix(6.5701 0 0 -6.5701 2832.512 3168.527)" gradientUnits="userSpaceOnUse"><stop offset="0" style="stop-color:#a6694a"/><stop offset="1" style="stop-color:#4f2a1e"/></linearGradient><path d="M46.433 42.875a1.278 1.278 0 1 1 0 2.555 1.278 1.278 0 0 1 0-2.555z" style="fill:url(#h)"/><path d="M45.795 44.129c0 .884 1.277.884 1.277 0 0-.82-1.277-.82-1.277 0z" style="fill:#1a1626"/><path d="M45.6 43.772c0 .37.536.37.536 0 0-.344-.536-.344-.536 0z" style="fill:#ab968c"/><path d="M44.25 44.227c.518-1.667 4.051-1.428 4.536-.3-.18-1.435-4.094-1.814-4.536.3z" style="fill:#f0a429"/><path d="M48.868 42.187c-1.099-.693-3.311-.895-4.178-.54-.186.068-.125.648.03.606 1.194-.357 3.05-.223 4.078.356.138.076.238-.325.07-.422zm-11.737 0c1.1-.693 3.311-.895 4.179-.54.185.068.124.648-.03.606-1.196-.357-3.05-.223-4.08.357-.136.075-.236-.326-.069-.423z" style="fill:#bb7c0a"/><path d="M39.539 33.081c-4.207.191-7.657 6.453-4.456 12.753 0 0 .256-5.492 2.575-7.132-.126 1.037-.403 1.769-.403 1.769s2.275-.36 4.279-1.639a5.33 5.33 0 0 1-.86 1.965s4.137-.577 5.366-2.525c0 0 .81 1.706 2.816 2.934 0 0 .126-1.278-.151-2.183 1.967 1.935 2.198 6.803 2.198 6.803 4.148-9.1-3.976-16.723-11.364-12.745z" style="fill:#f9a307"/><path d="M39.881 33.272c-.125.683-.1 1.41-.1 1.41s-.405-.705-.326-1.279c-.878.677-2.081 2.018-2.081 2.018s.572-1.005 1.212-1.738c-4.23 1.237-5.065 6.47-4.048 9.26.49-2.6 1.85-4.683 4.169-6.22 0 0-.092 1.89-.922 2.923 2.452-.421 4.54-2.348 4.49-4.287.45 1.8.372 3.347-.642 4.776 2.078-.213 4.442-2.087 4.535-3.786.427 1.699.936 2.879 2.276 3.782 0-1.839-.907-3.56-.907-3.56s2.687 1.712 3.737 6.857c1.704-9.473-6.115-12.57-10.904-10.552 1.128.05 1.743.302 1.743.302s-1.267-.114-2.232.094z" style="fill:#ffb80d"/><path d="m48.41 38.035.358 1.228s1.68 2.227 2.135 6.563c.21-4.687-2.493-7.79-2.493-7.79zm-2.276.195-.092.267s.723 1.797 2.814 2.71c-1.694-1.072-2.722-2.977-2.722-2.977z" style="fill:#e68c00"/><path d="M46.312 37.203c.336 3.133-5.638 3.594-5.638 3.594s5.197-1.019 5.638-3.594zm-4.266.99c-1.037 1.96-4.79 2.278-4.79 2.278s2.9-.67 4.79-2.278zm-4.046.1c-2.677 3.135-2.917 7.541-2.917 7.541s-.707-4.732 2.916-7.54z" style="fill:#e68c00"/><path d="M51.274 43.428c.324-2.631-1.861-6.594-1.861-6.594s3.189 2.62 1.861 6.594z" style="fill:#f9a307"/><path d="M50.72 37.763c-3.48-6.228-9.354-5.045-9.354-5.045s6.84-1.835 9.355 5.045zm-12.212 1.451c2.577-2.075 2.165-4.984 2.165-4.984s1.327 3.135-2.166 4.984z" style="fill:#ffca25"/><path d="M47.792 38.725c-.649-2.163-2.053-4.495-2.053-4.495s1.906 1.504 2.053 4.495zm2.36.489c-.916-2.065-2.861-4.476-2.861-4.476s2.338 1.527 2.86 4.476zm-12.86-4.476c-2.145 2.588-2.665 5.773-2.665 5.773s-.35-3.913 2.665-5.773zm5.303 4.849c1.646-2.68.272-5.276.272-5.276s2.182 2.524-.272 5.276z" style="fill:#ffca25"/><path d="M41.633 40.135c3.827-1.135 3.2-4.84 3.2-4.84s1.323 4.79-3.2 4.84z" style="fill:#f9a307"/></svg>