<svg xmlns="http://www.w3.org/2000/svg" xml:space="preserve" style="enable-background:new 0 0 64 64" viewBox="0 0 64 64"><linearGradient id="a" x1="31.556" x2="31.556" y1="63" y2="29.138" gradientUnits="userSpaceOnUse"><stop offset=".876" style="stop-color:#484258"/><stop offset=".951" style="stop-color:#555064"/><stop offset="1" style="stop-color:#605b6e"/></linearGradient><path d="m25.768 29.138 11.613.02 8.986 3.87-1.36 27.228c-.277 2-6.952 2.744-13.434 2.744-6.482 0-14.153-.743-14.433-2.74l-.396-27.234 9.024-3.888z" style="fill:url(#a)"/><path d="m37.369 30.76-5.814 3.343-5.813-3.343v-5.558h11.627z" style="fill:#f5bb51"/><path d="M31.555 39.098c5.19 0 6.17-7.887 6.208-8.223l-.821-.106c-.01.074-.93 7.458-5.386 7.458-4.458 0-5.378-7.384-5.385-7.458l-.823.106c.04.336 1.02 8.223 6.207 8.223" style="fill:#302c3b"/><path d="M31.555 31.949h4.141s-.75 5.226-4.14 5.226c-3.39 0-4.14-5.226-4.14-5.226h4.14z" style="fill:#e6ebef"/><path d="M34.566 35.19s-1.184-3.241-3.029-3.241c-1.844 0-2.992 3.24-2.992 3.24s-1.13-1.934-1.13-3.24h8.281s-.112 1.453-1.13 3.24" style="fill:#b3c2c6"/><path d="M32.864 35.218c.15.41.287.895.413 1.424-1.14.771-2.287.782-3.441 0a13.06 13.06 0 0 1 .412-1.424c.352-.962 2.264-.962 2.616 0z" style="fill:#d61924"/><path d="M30.359 35.218c.27.35 2.156.387 2.394 0 .567-.915 1.498-2.73 1.498-2.73s-.551-.54-2.694-.54c-2.146 0-2.695.54-2.695.54s.846 1.892 1.497 2.73z" style="fill:#e81c27"/><path d="M25.742 28.314c.51 2.922 5.814 3.635 5.814 3.635-1.851.595-4.617 4.507-4.617 4.507-2.553-4.128-1.197-8.142-1.197-8.142z" style="fill:#fff"/><path d="M37.369 28.314c-.512 2.922-5.814 3.635-5.814 3.635 1.85.595 4.615 4.507 4.615 4.507 2.554-4.128 1.199-8.142 1.199-8.142z" style="fill:#fff"/><path d="m20.153 62.022.793.172s-.285-24.96-.447-24.97c-.164-.01-.346 24.798-.346 24.798zm4.216.653.788.07s-.211-27.24-.356-27.25c-.146-.011-.432 27.18-.432 27.18zm4.635.285.778.019s-.247-22.842-.36-22.852c-.115-.01-.418 22.834-.418 22.834zm13.617-25.736c-.164.01-.446 24.838-.446 24.838l.79-.227s-.177-24.621-.344-24.61zm-4.301-1.73c-.146.01-.356 27.234-.356 27.234l.787-.082s-.284-27.162-.432-27.152zm-4.621 4.633c-.114.01-.36 22.858-.36 22.858l.778-.015s-.303-22.853-.418-22.843z" style="fill:#4e4961"/><path d="M44.189 61.308s.029-29.225 2.178-28.28c3.488 1.534 5.133 11.19 5.133 25.795 0 2.434-7.311 2.485-7.311 2.485z" style="fill:#484258"/><path d="M44.662 42.844s.21 13.22-.473 18.464c-.88-5.462.473-18.464.473-18.464z" style="fill:#302c3b"/><path d="M16.744 33.026C13.611 34.103 9.5 50.176 9.5 56.058c0 2.466 7.011 5.767 14.17 6.545.667.072 2.09-10.848 2.09-10.848l-6.705-1.768s-1.421-17.266-2.31-16.96z" style="fill:#484258"/><path d="M24.89 51.853c3.096-2.462 1.66 11.147-1.373 10.732-1.292-.177-.676-9.102 1.374-10.732zm-5.534-10.68c.94 3.59.215 8.939.215 8.939l-1.055-.283s.839-5.008.84-8.656z" style="fill:#302c3b"/><path d="M14.966 49.367c7.923.866 12.227 1.633 11.342 2.842-1.151-.938-3.963-1.02-11.342-2.842z" style="fill:#302c3b"/><path d="M25.744 51.87c.321-.317 2.168.405 2.035.892-.585 2.152.189 5.27-.293 6.769-.286.89-2.853 1.51-3.244.998-.796-1.04-.08-7.095 1.502-8.659z" style="fill:#e6ebef"/><linearGradient id="b" x1="154.166" x2="156.707" y1="187.52" y2="187.52" gradientTransform="rotate(14.999 598.245 -339.933)" gradientUnits="userSpaceOnUse"><stop offset="0" style="stop-color:#ab6730"/><stop offset=".645" style="stop-color:#794419"/><stop offset="1" style="stop-color:#5c300c"/></linearGradient><path d="m36.956 48.871-2.455-.653s-.28 2.618-.401 3.214c-.266 1.306-2.131 7.068-2.712 8.768a.821.821 0 0 0 .59 1.063l.492.119a.828.828 0 0 0 1.008-.63c.37-1.76 1.832-7.782 2.21-8.897.194-.577 1.268-2.983 1.268-2.983z" style="fill:url(#b)"/><path d="m37.077 49.123-2.808-.748a.368.368 0 0 1-.262-.45l.004-.012a.37.37 0 0 1 .453-.26l2.808.747a.367.367 0 0 1 .262.45l-.003.013a.37.37 0 0 1-.454.26z" style="fill:#5c300c"/><linearGradient id="c" x1="152.041" x2="152.041" y1="176.439" y2="169.065" gradientTransform="matrix(.9659 .2588 -.2659 .9923 -64.106 -166.304)" gradientUnits="userSpaceOnUse"><stop offset="0" style="stop-color:#a36c00"/><stop offset=".2" style="stop-color:#b17c14"/><stop offset=".607" style="stop-color:#d4a446"/><stop offset="1" style="stop-color:#facf7d"/></linearGradient><path d="m37.912 48.675-4.164-1.11 1.97-7.308 4.165 1.11z" style="fill:url(#c)"/><linearGradient id="d" x1="-27.087" x2="-27.087" y1="185.238" y2="177.866" gradientTransform="matrix(.7155 .1917 -.2588 .9659 107.767 -124.482)" gradientUnits="userSpaceOnUse"><stop offset=".123" style="stop-color:#5c300c"/><stop offset=".427" style="stop-color:#744117"/><stop offset="1" style="stop-color:#ab6730"/></linearGradient><path d="m41.593 49.55-2.302-.612a.811.811 0 0 1-.577-.994l1.495-5.546a.817.817 0 0 1 1-.574l2.301.613c.436.116.694.56.578.994l-1.495 5.546a.817.817 0 0 1-1 .574z" style="fill:url(#d)"/><linearGradient id="e" x1="-2045.246" x2="-2045.246" y1="153.365" y2="145.997" gradientTransform="matrix(.186 .0498 -.2867 1.07 462.628 -13.178)" gradientUnits="userSpaceOnUse"><stop offset="0" style="stop-color:#5c300c"/><stop offset=".344" style="stop-color:#814a1d"/><stop offset=".689" style="stop-color:#9f5f2b"/><stop offset=".882" style="stop-color:#ab6730"/></linearGradient><path d="m38.243 49.07-.014-.004a.406.406 0 0 1-.288-.497l1.913-7.097a.409.409 0 0 1 .5-.286l.014.003c.218.058.347.28.288.497l-1.913 7.097a.408.408 0 0 1-.5.287z" style="fill:url(#e)"/><linearGradient id="f" x1="-684.513" x2="-684.514" y1="141.22" y2="133.851" gradientTransform="matrix(.3685 .0987 -.299 1.1158 334.767 -40.213)" gradientUnits="userSpaceOnUse"><stop offset="0" style="stop-color:#5c300c"/><stop offset=".344" style="stop-color:#814a1d"/><stop offset=".689" style="stop-color:#9f5f2b"/><stop offset=".882" style="stop-color:#ab6730"/></linearGradient><path d="m40.703 49.906-.82-.219a.803.803 0 0 1-.572-.984l1.797-6.666a.809.809 0 0 1 .99-.568l.82.219a.803.803 0 0 1 .572.984l-1.797 6.665a.81.81 0 0 1-.99.569z" style="fill:url(#f)"/><linearGradient id="g" x1="1319.437" x2="1319.437" y1="184.952" y2="177.581" gradientTransform="matrix(-.7155 -.1917 -.2588 .9659 1023.198 121.096)" gradientUnits="userSpaceOnUse"><stop offset=".123" style="stop-color:#5c300c"/><stop offset=".427" style="stop-color:#744117"/><stop offset="1" style="stop-color:#ab6730"/></linearGradient><path d="m30.12 46.495 2.302.613a.817.817 0 0 0 1-.573l1.495-5.547a.81.81 0 0 0-.578-.994l-2.301-.613a.817.817 0 0 0-1 .574l-1.496 5.547a.81.81 0 0 0 .578.993z" style="fill:url(#g)"/><linearGradient id="h" x1="3134.218" x2="3134.218" y1="152.787" y2="145.419" gradientTransform="matrix(-.186 -.0498 -.2867 1.07 660.044 40.348)" gradientUnits="userSpaceOnUse"><stop offset="0" style="stop-color:#5c300c"/><stop offset=".344" style="stop-color:#814a1d"/><stop offset=".689" style="stop-color:#9f5f2b"/><stop offset=".882" style="stop-color:#ab6730"/></linearGradient><path d="m33.263 47.743.013.004a.408.408 0 0 0 .5-.287l1.913-7.097a.405.405 0 0 0-.288-.497l-.014-.004a.408.408 0 0 0-.5.287l-1.913 7.097a.406.406 0 0 0 .289.497z" style="fill:url(#h)"/><linearGradient id="i" x1="1928.576" x2="1928.576" y1="140.656" y2="133.287" gradientTransform="matrix(-.3685 -.0987 -.299 1.1158 783.864 80.763)" gradientUnits="userSpaceOnUse"><stop offset="0" style="stop-color:#5c300c"/><stop offset=".344" style="stop-color:#814a1d"/><stop offset=".689" style="stop-color:#9f5f2b"/><stop offset=".882" style="stop-color:#ab6730"/></linearGradient><path d="m30.712 47.245.82.218a.809.809 0 0 0 .99-.568l1.797-6.666a.803.803 0 0 0-.571-.984l-.821-.218a.809.809 0 0 0-.99.568L30.14 46.26c-.116.43.14.87.572.985z" style="fill:url(#i)"/><path d="M35.98 53.989c.865.028.946-1.631.173-1.93-1.028-.398-1.519-.029-1.925-1.495-.455-1.645-5.236 2.502-7.021 2.23-1.538-.234-1.507 5.728 0 5.478.811-.134 2.418-.162 2.507-.113 2.43 1.33 4.491 1.107 4.94 1.056.64-.071 1.19-1.469.421-1.554.9.007 1.276-1.627.382-1.726.872-.004 1.39-1.85.523-1.946z" style="fill:#f5bb51"/><linearGradient id="j" x1="48" x2="48" y1="59.49" y2="57.775" gradientUnits="userSpaceOnUse"><stop offset="0" style="stop-color:#a36c00"/><stop offset=".2" style="stop-color:#b17c14"/><stop offset=".607" style="stop-color:#d4a446"/><stop offset="1" style="stop-color:#facf7d"/></linearGradient><path d="M42.353 57.775h11.294v1.715H42.353z" style="fill:url(#j)"/><path d="M42.353 57.53h11.294v.245H42.353z" style="fill:#5c300c"/><linearGradient id="k" x1="48" x2="48" y1="63" y2="59.255" gradientUnits="userSpaceOnUse"><stop offset="0" style="stop-color:#5c300c"/><stop offset="1" style="stop-color:#ab6730"/></linearGradient><path d="M53.647 59.255H42.353c-.296 0-.853.422-.853.943V63h13v-2.802c0-.521-.557-.943-.853-.943z" style="fill:url(#k)"/><linearGradient id="l" x1="48" x2="48" y1="61.329" y2="60.198" gradientUnits="userSpaceOnUse"><stop offset="0" style="stop-color:#a36c00"/><stop offset=".2" style="stop-color:#b17c14"/><stop offset=".607" style="stop-color:#d4a446"/><stop offset="1" style="stop-color:#facf7d"/></linearGradient><path d="M41.5 60.198h13v1.132h-13z" style="fill:url(#l)"/><path d="M41.5 60.656h13v.216h-13z" style="fill:#5c300c"/><path d="M42.755 14.253c-1.733.209-2.985 6.009-1.894 7.54.153.213 1.046.556 1.709-.796.367-.748 1.424-1.373 1.753-2.916.42-1.978.158-4.037-1.568-3.828zm-22.399 0c1.734.209 2.986 6.009 1.894 7.54-.153.213-1.045.556-1.71-.796-.365-.748-1.424-1.373-1.752-2.916-.421-1.978-.157-4.037 1.568-3.828z" style="fill:#ffc940"/><path d="M42.709 15.363c-.453.143-.947.832-1.214 1.977 1.581-.34 1.186 2.291-.189 2.34.014.265.031.537.064.823.661-.96 1.335-.575 2.001-2.004.6-1.287.458-3.486-.662-3.136zm-21.093 1.973c-.269-1.142-.76-1.83-1.213-1.973-1.12-.35-1.264 1.848-.663 3.136.666 1.429 1.34 1.043 2.003 2.004.032-.286.05-.56.06-.824-1.359-.064-1.749-2.664-.187-2.343z" style="fill:#f0a429"/><path d="M31.555 3.098c-7.512 0-11.131 5.679-10.679 13.574.091 1.588 1.078 6.77 2.008 8.628.953 1.902 4.138 4.834 6.089 5.441 1.233.382 3.933.382 5.165 0 1.951-.607 5.138-3.539 6.09-5.44.932-1.86 1.917-7.04 2.006-8.63.455-7.894-3.164-13.573-10.679-13.573z" style="fill:#ffc940"/><path d="M39.718 13.673c-1.718-.91-5.005-.954-6.23-.319-.264.121-.09.983.13.901 1.707-.675 4.46-.69 6.059.058.213.097.301-.513.041-.64zm-16.324 0c1.717-.91 5.004-.954 6.23-.319.262.121.09.983-.131.901-1.71-.675-4.46-.69-6.06.058-.21.097-.299-.513-.04-.64z" style="fill:#bb7c0a"/><path d="M33.583 21.557c-.214-.149-.717.082-2.027.082-1.308 0-1.813-.23-2.027-.082-.257.182.152.997 2.027.997 1.875 0 2.285-.815 2.027-.997z" style="fill:#f0a429"/><path d="M29.884 16.77c.064.498-.274 1.086-1.208 1.528-.593.281-1.83.612-3.452-.073-.726-.306-1.435-1.26-1.371-1.788.88-1.657 5.208-1.9 6.03.332z" style="fill:#fff"/><linearGradient id="m" x1="-1210.059" x2="-1210.059" y1="170.862" y2="170.345" gradientTransform="translate(7977.155 -1104.145) scale(6.5701)" gradientUnits="userSpaceOnUse"><stop offset="0" style="stop-color:#a6694a"/><stop offset="1" style="stop-color:#4f2a1e"/></linearGradient><path d="M26.948 15.038a1.7 1.7 0 1 1 0 3.398 1.7 1.7 0 1 1 0-3.398z" style="fill:url(#m)"/><path d="M26.097 16.705c0 1.176 1.7 1.176 1.7 0 0-1.09-1.7-1.09-1.7 0z" style="fill:#1a1626"/><path d="M25.84 16.228c0 .493.711.493.711 0 0-.455-.712-.455-.712 0z" style="fill:#ab968c"/><path d="M29.892 16.835c-.69-2.216-5.4-1.888-6.04-.398.237-1.909 5.452-2.414 6.04.398z" style="fill:#f0a429"/><path d="M33.228 16.77c-.064.498.273 1.086 1.208 1.528.593.281 1.828.612 3.45-.073.729-.306 1.437-1.26 1.373-1.788-.88-1.657-5.209-1.9-6.031.332z" style="fill:#fff"/><linearGradient id="n" x1="-1211.361" x2="-1211.361" y1="170.862" y2="170.345" gradientTransform="translate(7994.886 -1104.145) scale(6.5701)" gradientUnits="userSpaceOnUse"><stop offset="0" style="stop-color:#a6694a"/><stop offset="1" style="stop-color:#4f2a1e"/></linearGradient><path d="M36.126 15.038a1.7 1.7 0 1 1-1.7 1.698 1.698 1.698 0 0 1 1.7-1.698z" style="fill:url(#n)"/><path d="M35.276 16.705c0 1.176 1.701 1.176 1.701 0 0-1.09-1.7-1.09-1.7 0z" style="fill:#1a1626"/><path d="M35.017 16.228c0 .493.713.493.713 0 0-.455-.713-.455-.713 0z" style="fill:#ab968c"/><path d="M33.22 16.835c.689-2.215 5.395-1.898 6.038-.398-.239-1.909-5.45-2.414-6.039.398z" style="fill:#f0a429"/><path d="m40.498 5.466-1.71 2.07c3.462 2.123 1.525 7.669 3.098 11.71.536-4.031 3.039-12.825-1.388-13.78zM22.544 6.49l1.71 1.046c-3.462 2.124-1.456 7.67-3.029 11.71-.535-4.031-3.107-11.801 1.319-12.756z" style="fill:#f9a307"/><path d="M38.686 6.95c2.199-.008 2.417 3.584 2.417 3.584s.66-4.09-2.133-4.09l-.284.506zM22.77 8.725c-.882 2.153-1.194 4.365-1.194 4.365s-.465-1.55.645-4.287l.549-.078z" style="fill:#e68c00"/><path d="M39.562 6.112c1.718-.179 2.135 2.613 2.135 2.613s.236-3.25-1.947-3.031l-.188.418z" style="fill:#e68c00"/><path d="M40.497 5.466S37.935 1 31.521 1c-6.964 0-11.354 3.12-11.504 9.163 4.266-4.205 15.502 2.333 20.48-4.697z" style="fill:#ffb80d"/><path d="M40.497 5.466C39.84 3.404 36.347 1 31.521 1c2.675.189 6.201 1.514 6.564 2.351 0 0-3.7-1.994-8.693-1.12 4.578-.207 7.6 2.703 6.314 2.719-1.253.015-5.908.172-8.67 1.874 1.777-.12 5.285.836 5.125.898-3.536 1.368-10.634-1.886-12.092 2.44 5.482-4.696 15.94 2.868 20.428-4.696z" style="fill:#f9a307"/><path d="M40.497 5.466c-3.66 8.652-20.106-1.023-19.723 6.221-1.68-8.313 14.31 1.94 19.723-6.22z" style="fill:#e68c00"/><path d="M39.495 6.762c-1.74-3.414-7.38-4.642-7.38-4.642s5.897.337 7.84 4.185l-.46.457zm-.893.774c-1.62-1.518-9.434-.983-9.434-.983s5.696-1.718 10.052.487l-.618.496z" style="fill:#e68c00"/><path d="M20.366 8.846s.767-6.215 11.45-5.75c-8.783 1.217-11.45 5.75-11.45 5.75z" style="fill:#f9a307"/><path d="M21.027 8.49s4.232-5.54 13.525-4.143C26.799 4.121 21.027 8.49 21.027 8.49zm-.232-1.936s4.646-5.226 12.263-5.138C24.257.246 20.795 6.554 20.795 6.554z" style="fill:#ffca25"/><path d="M31.555 24.821c-1.688-.497-4.194.237-4.194.237.955 1.037 1.652 2.386 4.194 2.386 2.913 0 3.408-1.53 4.195-2.386 0 0-2.506-.736-4.195-.237z" style="fill:#f0a429"/><path d="M27.99 25.234c1.772 1.486 5.35 1.494 7.13 0-1.886.08-5.229.08-7.13 0z" style="fill:#fff"/></svg>