<svg xmlns="http://www.w3.org/2000/svg" xml:space="preserve" style="enable-background:new 0 0 64 64" viewBox="0 0 64 64"><path d="m26.618 31.47 10.995.019 10.303 3.716-3.083 26.16C44.57 63.285 38.25 64 32.115 64c-6.138 0-13.4-.716-13.665-2.635l-2.366-26.16 10.534-3.735z" style="fill:#e3d3cc"/><path d="M37.827 33.028c0 3.873-11.654 3.873-11.654 0v-5.34h11.654v5.34z" style="fill:#f5bb51"/><path d="M42.056 47.899a1.11 1.11 0 0 0 1.15-.964c.432-3.111 1.71-11.858 1.736-12.88.009-.328-4.593-1.917-4.64-1.635-.21 1.218-.407 10.998-.468 14.282a1.114 1.114 0 0 0 1.055 1.14l1.167.057zm-18.467-.06a1.113 1.113 0 0 0 1.058-1.164c-.136-3.311-.544-13.04-.753-14.255-.05-.282-4.65 1.307-4.64 1.635.025 1.022 1.305 9.777 1.736 12.884.08.573.575.99 1.145.964l1.454-.064z" style="fill:#006099"/><path d="M56.2 53.71c.254 1.306-7.938-2.226-10.104-1.656-5.475 1.441-.029-17.588 1.824-16.85 3.796 1.515 6.968 8.699 8.249 13.187.086.3.78.543.8.74.257 2.648-1.144 2.653-.769 4.58z" style="fill:#e3d3cc"/><path d="M56.21 48.471s-2.72-2.759-6.827-.588c3.812-1.134 6.826.588 6.826.588zm.069 1.674s-4.126-3.64-7.6-.247c3.813-1.134 7.6.247 7.6.247z" style="fill:#dbc0b4"/><path d="M51.008 58.679c-.795.729-3.78-.998-3.636-1.402 1.06-2.966-.09-5.72 1.005-6.981.516-.594 6.894-1.177 6.987 2.675.047 1.997-2.387 3.901-4.356 5.708z" style="fill:#ffc940"/><path d="M7.8 53.71c-.254 1.306 7.938-2.226 10.104-1.656 5.475 1.441.029-17.588-1.824-16.85-3.796 1.515-6.968 8.699-8.25 13.187-.085.3-.779.543-.798.74-.258 2.648 1.143 2.653.768 4.58z" style="fill:#e3d3cc"/><path d="M7.79 48.471s2.72-2.759 6.827-.588c-3.812-1.134-6.826.588-6.826.588zm-.069 1.674s4.126-3.64 7.6-.247c-3.813-1.134-7.6.247-7.6.247z" style="fill:#dbc0b4"/><path d="M12.992 58.679c.795.729 3.78-.998 3.636-1.402-1.06-2.966.09-5.72-1.006-6.981-.515-.594-6.894-1.177-6.986 2.675-.047 1.997 2.387 3.901 4.356 5.708z" style="fill:#ffc940"/><path d="m16 64 2-19h28l2 19z" style="fill:#7d4822"/><path d="M15.899 49 18 45h1l-1.09 4zm30.192 0L45 45h1l2.101 4z" style="fill:#d67b3a"/><linearGradient id="a" x1="31.934" x2="31.934" y1="25.692" y2="7.517" gradientUnits="userSpaceOnUse"><stop offset="0" style="stop-color:#6e4900"/><stop offset=".209" style="stop-color:#825805"/><stop offset=".635" style="stop-color:#b77f11"/><stop offset="1" style="stop-color:#e8a31c"/></linearGradient><path d="M51.973 15.856c-.739 1.48-1.526 2.745-2.495 3.81l-1.201-.264.363 1.091c-2.967 2.63-7.599 5.142-16.7 5.142-13.901 0-18.167-5.316-20.036-9.779-1.69-4.034 41.568-3.002 40.07 0z" style="fill:url(#a)"/><path d="M39.96 47.25c-.09-1.552-1.497-1.745-2.346-2.87-1.055-1.397-2.201-1.712-3.403-1.233-1.554.618-2.564 2.131-1.597 3.738.967 1.608 2.568 2.136 3.432 2.94 1.06.984 4.102.655 3.914-2.574z" style="fill:#f2ab63"/><path d="M36.017 46.945c.078-.002.107-1.098 1.124-2.093-.735.371-1.274 1.434-1.124 2.093zm-1.879-.378c.105.018.427-1.443 2.047-2.511-1.08.306-2.078 1.59-2.047 2.51zm2.695.597c-.224-.087.02-.76.431-.755.27.003-.088.888-.43.755z" style="opacity:.5;fill:#b97544"/><path d="M43.189 43.189c-1.583-.487-2.297.844-3.734 1.274-1.786.533-2.525 1.56-2.494 2.936.04 1.778 1.174 3.348 3.136 2.98 1.962-.367 3.083-1.767 4.205-2.332 1.376-.69 2.177-3.847-1.113-4.858z" style="fill:#e69b4f"/><path d="M41.255 44.386c.024.066 1.28.04 1.91.701-.11-.417-1.02-.958-1.91-.7zm-1.287 4.138c.028-.078-1.056-.514-1.67-1.898.097.871.957 1.804 1.67 1.898zm.772-1.88c-.17.191-.75-.302-.593-.71.103-.268.852.417.593.71zm3.877-.604c-.163.184-1.07.071-.919-.321.1-.258 1.17.04.92.32z" style="opacity:.5;fill:#b97544"/><path d="M23.712 40.041c-.105-.001-1.96.501-1.52 1.651-.191.453-.588 1.319-1.01 1.766l.237.406s.45-1.245.948-2.049c.355-.012 1.446-.357 1.416-.451-.03-.094-.94-.099-.829-.128.111-.032.973-.355.969-.426-.006-.082-.62-.2-.516-.265.104-.066.402-.503.305-.504z" style="fill:#529320"/><path d="M21.781 39.134c-.05-.1-.083.564-.126.566-.042.002-.354-.459-.43-.407-.067.046.286 1.164.295 1.266.008.102-.668-.524-.74-.474-.04.026.319 1.09.576 1.381.006.467-.009 1.523-.23 2.151l.37.278s-.074-1.352.068-2.308c.744-.19.814-1.28.217-2.453z" style="fill:#529320"/><path d="M23.933 38.917c.067-.128-.31-.018-.528.045-.189.055.027-.605-.117-.564-.162.048-.345.758-.409.742-.064-.016-.184-.902-.316-.863-.12.034-.116 1.096-.142 1.244-.027.148-.483-.854-.543-.74-.075.14.278 1.078.14 1.01-.088-.044-.476-.55-.604-.513-.069.02.523 1.268.287 1.087-.236-.18-.465-.6-.577-.567-.082.024.402 1.345.669 1.81-.06.277-.174.734-.34 1.169a1.354 1.354 0 0 0-1.66.706l2.402 1.08c.297-.63.057-1.36-.529-1.69.099-.384.227-.801.384-1.142.48-.158 1.688-.63 1.705-.726.018-.106-.63.083-.78.046-.15-.038 1.138-.524 1.054-.65-.084-.126-.98-.016-.829-.11.153-.096.84-.672.804-.775-.042-.12-.875.208-.748.064.126-.145.58-.478.677-.663z" style="fill:#70b000"/><path d="m22.035 41.574 1.112-2.372c-.829.858-1.112 2.372-1.112 2.372z" style="fill:#529320"/><path d="M19.75 42.93c-1.06.509-1.172 4.928-1.595 6.451-.41 1.481-.455 3.756-.266 4.163.08.172 1.296-1.133 1.671-2.295.376-1.162 3.69-5.988 3.073-7.316-.368-.793-2.044-1.404-2.883-1.002z" style="fill:#ff7300"/><path d="M20.088 44.944s1.839.464 1.821 1.378c.368-.595-.577-1.396-1.821-1.378zm-.846 2.411s1.61.406 1.595 1.207c.322-.522-.505-1.224-1.595-1.207zm2.312-3.022s-1.692-.908-2.214-.19c.065-.714 1.263-.681 2.214.19zm-.896 2.614s-1.483-.796-1.939-.166c.057-.626 1.106-.597 1.939.166zm-.928 2.633s-.909-.745-1.382-.155c.18-.586.942-.56 1.382.154z" style="fill:#ff5e00"/><path d="M35.702 43.153c-.096-.038-1.993-.223-1.988.997-.336.353-1.007 1.016-1.556 1.283l.078.46s.853-.997 1.597-1.567c.334.112 1.466.175 1.471.078.005-.098-.836-.421-.723-.41.114.01 1.026.013 1.047-.055.023-.077-.505-.402-.385-.426.12-.025.55-.325.46-.36z" style="fill:#529320"/><path d="M36.3 42.189c.108-.096-.28-.126-.504-.144-.194-.016.238-.552.089-.564-.166-.013-.585.582-.639.544-.054-.037.146-.9.01-.91-.123-.01-.492.975-.568 1.103-.077.127-.148-.962-.244-.877-.118.104-.12 1.097-.224.986-.066-.072-.248-.677-.38-.688-.07-.006.04 1.359-.116 1.109-.155-.25-.22-.72-.335-.729-.085-.006-.1 1.388-.016 1.914a8.398 8.398 0 0 1-.725.963 1.342 1.342 0 0 0-1.786.073l1.848 1.843c.496-.48.53-1.24.103-1.752.226-.321.49-.663.756-.924.5.022 1.785.008 1.835-.075.054-.092-.613-.144-.738-.23-.127-.089 1.238-.087 1.204-.234-.034-.146-.903-.358-.73-.392.175-.036 1.014-.328 1.017-.437.003-.125-.884-.114-.716-.203.168-.09.706-.24.86-.376z" style="fill:#70b000"/><path d="m33.61 43.985 1.863-1.808c-1.07.504-1.863 1.808-1.863 1.808z" style="fill:#529320"/><path d="M31.016 44.441c-1.16.1-2.815 4.157-3.74 5.42-.901 1.229-1.74 3.321-1.708 3.765.014.187 1.599-.595 2.354-1.54.756-.946 5.521-4.257 5.415-5.704-.063-.864-1.403-2.019-2.321-1.94z" style="fill:#ff7300"/><path d="M31.732 39.205c.067-.128-.31-.018-.528.045-.188.054.028-.606-.117-.564-.162.047-.344.757-.408.741-.065-.015-.184-.901-.317-.863-.12.035-.116 1.096-.142 1.244-.027.148-.482-.854-.543-.74-.074.14.278 1.078.14 1.01-.087-.043-.476-.55-.603-.513-.07.02.522 1.268.286 1.087-.236-.18-.465-.6-.577-.567-.082.024.403 1.345.67 1.811a8.53 8.53 0 0 1-.341 1.168 1.354 1.354 0 0 0-1.66.707l2.403 1.08a1.296 1.296 0 0 0-.53-1.69c.1-.384.227-.802.384-1.143.48-.158 1.688-.63 1.705-.726.019-.106-.63.084-.779.046-.15-.038 1.138-.524 1.054-.65-.084-.126-.981-.015-.83-.11.153-.096.84-.672.804-.775-.042-.12-.875.208-.748.064.126-.145.58-.478.677-.662z" style="fill:#529320"/><path d="M27.55 43.218c-1.06.508-1.173 4.928-1.595 6.45-.411 1.481-.456 3.756-.266 4.163.08.172 1.295-1.132 1.67-2.295.376-1.162 3.69-5.988 3.074-7.316-.369-.793-2.045-1.404-2.884-1.002z" style="fill:#ff7d00"/><path d="M26.633 58.89c1.366.353 3.9-2.705 3.702-4.317-7.016-2.255-5.067 3.964-3.702 4.317z" style="fill:#ff7300"/><path d="M38.188 57.551c.792 1.183 6.937.798 7.841-.542-3.78-6.413-8.633-.642-7.841.542z" style="fill:#eba560"/><path d="M33.798 57.87c.593 1.377 5.292 1.03 5.997-.5-2.821-7.45-6.59-.876-5.997.5z" style="fill:#f2ab63"/><path d="M29.152 57.87c.593 1.377 5.292 1.03 5.997-.5-2.82-7.45-6.59-.876-5.997.5z" style="fill:#e69b4f"/><path d="M22.644 59.201c1.365.353 3.899-2.704 3.701-4.316-7.016-2.255-5.067 3.964-3.701 4.316z" style="fill:#ff7d00"/><path d="M18.489 54.425c-.898 1.087.797 4.678 2.341 5.182 5.016-5.4-1.443-6.27-2.341-5.182z" style="fill:#ff7300"/><path d="M29.265 40.853c-.111-.033-2.235-.052-2.097 1.305-.334.426-1.007 1.23-1.587 1.58l.136.504s.839-1.192 1.602-1.9c.382.092 1.645.051 1.64-.058-.004-.11-.973-.386-.847-.385.128 0 1.14-.086 1.156-.164.018-.088-.603-.397-.473-.436.13-.04.574-.416.47-.446z" style="fill:#529320"/><path d="M27.467 39.309c-.025-.122-.251.575-.297.565-.046-.01-.246-.595-.341-.563-.085.03-.031 1.327-.051 1.439-.02.11-.562-.759-.653-.728-.05.017.026 1.258.217 1.646-.129.499-.448 1.62-.866 2.224l.316.406s.31-1.463.736-2.44c.849.02 1.238-1.12.94-2.55z" style="fill:#529320"/><path d="M29.824 39.72c.108-.116-.325-.11-.576-.109-.217.002.204-.637.038-.636-.186.002-.586.704-.65.668-.063-.036.065-1.016-.088-1.015-.138.001-.44 1.134-.51 1.284-.071.15-.268-1.055-.366-.951-.12.127-.014 1.232-.141 1.119-.081-.073-.35-.73-.496-.728-.08 0 .192 1.508-.008 1.245-.2-.263-.323-.779-.452-.777-.094 0 .041 1.554.191 2.13-.143.276-.396.73-.7 1.143a1.49 1.49 0 0 0-1.973.257l2.25 1.87a1.44 1.44 0 0 0-.076-1.96 7.62 7.62 0 0 1 .738-1.103c.558-.025 1.982-.166 2.028-.264.05-.108-.695-.1-.844-.184-.15-.085 1.364-.218 1.31-.378-.053-.16-1.04-.31-.852-.365.19-.057 1.09-.465 1.08-.586-.01-.14-.993-.04-.816-.156.177-.116.758-.335.913-.503z" style="fill:#70b000"/><path d="m27.034 41.985 1.87-2.196c-1.131.667-1.87 2.196-1.87 2.196z" style="fill:#529320"/><path d="M24.206 42.748c-1.276.225-2.67 4.903-3.56 6.4-.865 1.456-1.568 3.867-1.483 4.358.035.207 1.708-.82 2.444-1.947.735-1.127 5.661-5.28 5.386-6.88-.165-.956-1.776-2.108-2.787-1.93z" style="fill:#ff7d00"/><path d="M23.987 44.996s1.827 1.044 1.545 2.014c.564-.526-.213-1.662-1.545-2.014zm-1.597 2.316s1.6.915 1.353 1.764c.494-.46-.186-1.455-1.353-1.764zm3.336-2.529s-1.543-1.474-2.306-.864c.275-.742 1.543-.35 2.306.864zM24.017 47.3s-1.352-1.29-2.02-.756c.24-.65 1.352-.305 2.02.757zm-1.749 2.53s-.754-1.065-1.429-.577c.361-.571 1.166-.316 1.43.577z" style="fill:#ff5e00"/><path d="M33.214 44.097c-.092-.058-1.994-.632-2.218.622-.408.295-1.218.84-1.828 1.003l-.006.488s1.057-.85 1.924-1.286c.32.183 1.464.477 1.487.378.024-.1-.775-.602-.662-.567.115.033 1.046.22 1.08.155.038-.075-.44-.515-.314-.516.126-.001.621-.222.537-.277z" style="fill:#529320"/><path d="M31.994 42.24c.008-.116-.373.45-.411.43-.039-.021-.069-.599-.163-.595-.084.005-.367 1.183-.414 1.278-.046.094-.31-.828-.4-.824-.048.002-.298 1.136-.225 1.534-.243.414-.817 1.336-1.347 1.769l.18.448s.652-1.233 1.285-1.998c.757.24 1.398-.681 1.495-2.042z" style="fill:#529320"/><path d="M34.005 43.228c.127-.076-.264-.186-.49-.25-.194-.055.347-.518.197-.561-.167-.047-.706.48-.753.43-.049-.05.317-.895.18-.934-.125-.035-.685.902-.787 1.018-.102.116.029-1.017-.085-.95-.14.083-.328 1.103-.413.968-.054-.087-.127-.746-.26-.783-.07-.02-.213 1.404-.325 1.115-.112-.289-.09-.783-.207-.816-.085-.024-.36 1.406-.373 1.963-.199.21-.543.55-.92.842a1.392 1.392 0 0 0-1.838-.286l1.543 2.268a1.342 1.342 0 0 0 .432-1.78c.29-.284.625-.582.945-.796.507.124 1.821.37 1.888.294.072-.083-.6-.271-.71-.386-.113-.116 1.28.161 1.273.004-.007-.157-.856-.551-.673-.55.186-.002 1.097-.133 1.12-.244.027-.128-.881-.296-.693-.353.189-.059.766-.104.949-.213z" style="fill:#70b000"/><path d="m30.92 44.53 2.241-1.482c-1.186.303-2.24 1.481-2.24 1.481z" style="fill:#529320"/><path d="M28.187 44.473c-1.203-.132-3.651 3.7-4.832 4.811-1.15 1.08-2.397 3.06-2.447 3.523-.021.195 1.743-.288 2.692-1.107.948-.818 6.433-3.255 6.595-4.764.096-.9-1.056-2.358-2.008-2.463z" style="fill:#ff7300"/><path d="M27.415 46.433s1.373 1.416.872 2.212c.64-.324.234-1.547-.872-2.212zm-2.025 1.661s1.202 1.24.763 1.937c.561-.283.205-1.355-.764-1.937zm3.641-1.397s-1.008-1.727-1.85-1.38c.437-.593 1.476.092 1.85 1.38zm-2.178 1.813s-.883-1.513-1.62-1.208c.382-.52 1.292.08 1.62 1.208zm-2.217 1.811s-.405-1.153-1.135-.892c.47-.418 1.127.022 1.135.892z" style="fill:#ff5e00"/><path d="M37.423 48.057c-.908-1.29-2.194-.73-3.51-1.26-1.636-.657-2.768-.337-3.523.695-.975 1.334-1.015 3.157.66 4.041 1.673.885 3.302.513 4.46.758 1.418.301 3.8-1.552 1.913-4.234z" style="fill:#eba560"/><path d="M34.593 47.67c-.026.068.8.916.97 1.376.069-.344-.28-1.108-.97-1.375zm-2.197 1.696c.065-.042-.498-1-.175-2.382-.42.7-.304 1.893.175 2.382zm-1.242-1.191c-.129.44.1 1.109.428 1.34.03-.03-.41-.52-.428-1.34zm5.683 1.434c-.235-.005-.554-.41-.24-.58.205-.111.599.588.24.58zm-3.597.266c-.236.04-.39-.664-.042-.872.228-.137.4.81.041.872z" style="opacity:.5;fill:#b97544"/><path d="M43.16 45.87c-1.553 0-1.839 1.395-3.016 2.178-1.463.973-1.853 2.1-1.457 3.33.513 1.589 1.953 2.687 3.62 1.814 1.665-.873 2.299-2.442 3.157-3.26 1.052-1.001.927-4.062-2.303-4.062z" style="fill:#f2ab63"/><path d="M39.838 48.59c.04.061 1.192-.129 1.659-.002-.238-.257-1.05-.414-1.659.003zm4.17.064c-.021.056.508.808.602 1.206.065-.29-.137-.954-.602-1.206zm-1.193-.105c-.05.08 1.182.778 1.253 2.148.309-.469-.093-1.773-1.253-2.148zm-.517-1.897c.031.058 1.193-.155 1.87.364-.16-.37-1.08-.736-1.87-.364zm-.583 3.208c-.101.22-.755-.064-.723-.475.02-.269.878.14.723.475zm2.973-1.963c-.098.21-.455.242-.425-.152.02-.26.574-.17.425.152z" style="opacity:.5;fill:#b97544"/><path d="M15.899 49h2.01v15h-2.01zm30.192 0h2.01v15h-2.01z" style="fill:#99582a"/><path d="M15.899 57h32.202v6H15.899z" style="fill:#b86a32"/><path d="M15.899 57h32.202v1H15.899z" style="fill:#d67b3a"/><path d="M15.899 50h32.202v6H15.899z" style="fill:#b86a32"/><path d="M15.899 50h32.202v1H15.899z" style="fill:#d67b3a"/><path d="M43.312 52.745c-.782-.41-1.33.85-.326 1.568.333.238 2.545.8 1.943 1.527-.485.586-3.136.744-4.788.54-.904-.112-1.112 1.011-.173 1.217 1.25.272 4.673.1 4.673.1s-2.719.637-4.901.53c-.868-.042-.932 1.236-.243 1.335 2.002.287 5.639-.313 5.639-.313s-2.336 1-4.511 1.14c-.683.044-.798 1.164.131 1.222 2.002.126 5.329-.802 5.329-.802s-1.01.626-2.974 1.043c-.5.107-.445 1.258.407 1.14 1.682-.236 3.793-.777 5.335-1.97.658-.508 1.419-1.682 2.155-2.343.913-.821-1.07-4.84-2.34-4.4-.574.199-1.461-.183-1.89-.45-1.267-.794-2.047-.338-3.466-1.084zm-22.624 0c.782-.41 1.33.85.326 1.568-.333.238-2.545.8-1.943 1.527.485.586 3.137.744 4.788.54.904-.112 1.112 1.011.173 1.217-1.25.272-4.673.1-4.673.1s2.719.637 4.901.53c.868-.042.932 1.236.243 1.335-2.002.287-5.639-.313-5.639-.313s2.336 1 4.511 1.14c.683.044.799 1.164-.131 1.222-2.002.126-5.329-.802-5.329-.802s1.01.626 2.975 1.043c.5.107.444 1.258-.408 1.14-1.682-.236-3.793-.777-5.335-1.97-.658-.508-1.419-1.682-2.155-2.343-.913-.821 1.07-4.84 2.34-4.4.574.199 1.461-.183 1.89-.45 1.267-.794 2.047-.338 3.466-1.084zm22.557-36.926c-1.74.21-2.997 6.033-1.901 7.571.153.214 1.05.557 1.715-.8.369-.751 1.43-1.378 1.76-2.928.422-1.985.16-4.053-1.574-3.843zm-22.49 0c1.741.21 2.998 6.033 1.902 7.571-.154.214-1.05.557-1.716-.8-.368-.751-1.43-1.378-1.76-2.928-.423-1.985-.159-4.053 1.574-3.843z" style="fill:#ffc940"/><path d="M43.199 16.934c-.455.143-.95.835-1.219 1.984 1.587-.341 1.19 2.301-.19 2.35.014.266.031.54.065.827.663-.964 1.34-.578 2.009-2.013.603-1.292.46-3.5-.665-3.148zM22.02 18.915c-.27-1.147-.764-1.838-1.218-1.982-1.123-.352-1.27 1.856-.666 3.149.67 1.435 1.346 1.048 2.011 2.012.032-.287.051-.561.062-.827-1.366-.064-1.757-2.674-.189-2.352z" style="fill:#f0a429"/><path d="M21.83 12.32c-.484 1.764-.677 3.758-.553 5.927.091 1.596 1.083 6.798 2.016 8.664.957 1.91 4.155 4.853 6.114 5.463 1.238.384 3.949.384 5.185 0 1.96-.61 5.16-3.553 6.115-5.463.937-1.866 1.925-7.067 2.015-8.664.125-2.169-.068-4.163-.552-5.927H21.83z" style="fill:#ffc940"/><path d="M40.196 15.237c-1.725-.914-5.026-.959-6.256-.32-.265.121-.09.986.132.904 1.712-.677 4.477-.692 6.082.058.214.097.303-.515.042-.642zm-16.391 0c1.725-.914 5.025-.959 6.256-.32.263.121.09.986-.132.904-1.716-.677-4.478-.692-6.084.058-.212.097-.3-.515-.04-.642z" style="fill:#bb7c0a"/><path d="M34.036 23.153c-.216-.15-.72.082-2.036.082-1.313 0-1.82-.232-2.035-.082-.257.182.153 1 2.035 1 1.883 0 2.295-.818 2.036-1z" style="fill:#f0a429"/><path d="M30.322 18.346c.063.5-.275 1.09-1.213 1.535-.596.282-1.837.614-3.466-.074-.73-.307-1.442-1.264-1.377-1.795.883-1.664 5.229-1.907 6.056.334z" style="fill:#fff"/><linearGradient id="b" x1="-1209.994" x2="-1209.994" y1="171.103" y2="170.584" gradientTransform="translate(7977.155 -1104.145) scale(6.5701)" gradientUnits="userSpaceOnUse"><stop offset="0" style="stop-color:#a6694a"/><stop offset="1" style="stop-color:#4f2a1e"/></linearGradient><path d="M27.373 16.607a1.707 1.707 0 1 1 0 3.412 1.707 1.707 0 1 1 0-3.412z" style="fill:url(#b)"/><path d="M26.52 18.281c0 1.18 1.707 1.18 1.707 0 0-1.095-1.708-1.095-1.708 0z" style="fill:#1a1626"/><path d="M26.26 17.802c0 .495.715.495.715 0 0-.456-.714-.456-.714 0z" style="fill:#ab968c"/><path d="M30.33 18.411c-.694-2.225-5.421-1.896-6.064-.4.238-1.916 5.473-2.422 6.064.4z" style="fill:#f0a429"/><path d="M33.68 18.346c-.065.5.273 1.09 1.212 1.535.596.282 1.835.614 3.464-.074.732-.307 1.442-1.264 1.379-1.795-.884-1.664-5.23-1.907-6.056.334z" style="fill:#fff"/><linearGradient id="c" x1="-1211.29" x2="-1211.29" y1="171.103" y2="170.584" gradientTransform="translate(7994.886 -1104.145) scale(6.5701)" gradientUnits="userSpaceOnUse"><stop offset="0" style="stop-color:#a6694a"/><stop offset="1" style="stop-color:#4f2a1e"/></linearGradient><path d="M36.589 16.607a1.706 1.706 0 1 1-1.708 1.705c0-.941.765-1.705 1.708-1.705z" style="fill:url(#c)"/><path d="M35.736 18.281c0 1.18 1.708 1.18 1.708 0 0-1.095-1.708-1.095-1.708 0z" style="fill:#1a1626"/><path d="M35.476 17.802c0 .495.716.495.716 0 0-.456-.716-.456-.716 0z" style="fill:#ab968c"/><path d="M33.67 18.411c.693-2.223 5.418-1.905 6.064-.4-.24-1.916-5.473-2.422-6.063.4z" style="fill:#f0a429"/><path d="M41.286 12.32c.521 2.562.053 5.858 1.086 8.511.283-2.129 1.106-5.577 1.181-8.511h-2.267zm-20.891 0c-.02 2.767.93 6.234 1.233 8.512 1.033-2.654.535-5.95 1.035-8.512h-2.268z" style="fill:#f9a307"/><path d="M32 26.43c-1.696-.5-4.212.238-4.212.238.959 1.042 1.66 2.396 4.212 2.396 2.924 0 3.421-1.537 4.211-2.396 0 0-2.515-.74-4.211-.238z" style="fill:#f0a429"/><path d="M28.42 26.845c1.779 1.492 5.37 1.5 7.16 0a105.25 105.25 0 0 1-7.16 0z" style="fill:#fff"/><radialGradient id="d" cx="3.615" cy="5.619" r="9.093" gradientTransform="matrix(.9757 0 0 1 28.593 0)" gradientUnits="userSpaceOnUse"><stop offset="0" style="stop-color:#fabd49"/><stop offset=".304" style="stop-color:#f9bb45"/><stop offset=".596" style="stop-color:#f5b53a"/><stop offset=".882" style="stop-color:#eeaa26"/><stop offset="1" style="stop-color:#eba51c"/></radialGradient><path d="M37.48 2.24C36.39 1.264 35.329 0 32.12 0c-3.208 0-4.27 1.265-5.36 2.24-1.997 1.784-5.926 2.715-5.926 8.998h22.572c0-6.283-3.928-7.214-5.926-8.998z" style="fill:url(#d)"/><linearGradient id="e" x1="32" x2="32" y1="25.693" y2="7.517" gradientUnits="userSpaceOnUse"><stop offset="0" style="stop-color:#6e4900"/><stop offset=".209" style="stop-color:#825805"/><stop offset=".635" style="stop-color:#b77f11"/><stop offset="1" style="stop-color:#e8a31c"/></linearGradient><path d="M51.973 15.856c-2.968 5.95-6.713-3.248-20.034-3.248-11.358 0-18.166 7.711-20.035 3.248-1.249-2.98.407-4.256 3.048-4.96l1.413.967.183-1.313c.168-.03.338-.06.509-.087l.704.694.278-.843c7.96-1.13 8.498-2.874 13.9-2.874 5.705 0 7.094 2.193 14.502 2.61l.489 1.244 1.6-.99c3.804.765 4.733 2.97 3.443 5.552z" style="fill:url(#e)"/></svg>