<svg xmlns="http://www.w3.org/2000/svg" xml:space="preserve" style="enable-background:new 0 0 64 64" viewBox="0 0 64 64"><radialGradient id="a" cx="-177.579" cy="76.386" r="21.526" gradientTransform="matrix(.8823 0 0 .7993 188.678 -9.596)" gradientUnits="userSpaceOnUse"><stop offset="0" style="stop-color:#f5fbff"/><stop offset=".331" style="stop-color:#ecf4f9"/><stop offset=".878" style="stop-color:#d3e2ea"/><stop offset="1" style="stop-color:#ccdde6"/></radialGradient><path d="M32 40.919c-12.559 0-18.827 2.045-19.56 3.82-1.626 3.937 4.576 16.414 4.576 16.414S22.518 62 32 62s14.984-.847 14.984-.847 6.202-12.477 4.576-16.415c-.733-1.774-7-3.82-19.56-3.82z" style="fill:url(#a)"/><linearGradient id="b" x1="3165.425" x2="3179.902" y1="52.929" y2="52.929" gradientTransform="matrix(-1 0 0 1 3182.902 0)" gradientUnits="userSpaceOnUse"><stop offset="0" style="stop-color:#f5fbff"/><stop offset=".331" style="stop-color:#ecf4f9"/><stop offset=".878" style="stop-color:#d3e2ea"/><stop offset="1" style="stop-color:#ccdde6"/></linearGradient><path d="M17.016 61.153s-14.171-1.246-14.015-3.67c.161-2.486 1.379-8.859 9.439-12.745 1.343-.647 6.608 8.203 4.576 16.415z" style="fill:url(#b)"/><path d="M10.324 52.313c-1.142 2.14-5.203 3.053-6.76 2.136l.176-.545 4.778-6.701s.184-.213.558-.437c1.371.356 2.34 3.501 1.248 5.547z" style="fill:#de0707"/><path d="M9.598 52.087c-1.172 1.842-4.338 2.546-5.858 1.817 0 0 .893-3.712 4.778-6.701 1.298.445 2.252 3.042 1.08 4.884z" style="fill:#4482b3"/><path d="M8.037 51.036c-.734 1.154-2.683 1.617-3.634 1.161 0 0 .83-2.131 3.104-4.142.813.279 1.263 1.828.53 2.981z" style="fill:#cc9976"/><path d="M6.222 49.361c-1.061 3.424 1.486 2.945 1.486 2.945s-2.887.993-1.814-2.546c0 0 .083-.165.328-.399z" style="fill:#ffde29"/><linearGradient id="c" x1="46.523" x2="61" y1="52.929" y2="52.929" gradientUnits="userSpaceOnUse"><stop offset="0" style="stop-color:#f5fbff"/><stop offset=".331" style="stop-color:#ecf4f9"/><stop offset=".878" style="stop-color:#d3e2ea"/><stop offset="1" style="stop-color:#ccdde6"/></linearGradient><path d="M46.984 61.153S61.155 59.907 61 57.483c-.16-2.486-1.379-8.86-9.439-12.745-1.342-.647-6.608 8.203-4.576 16.415z" style="fill:url(#c)"/><path d="M53.676 52.313c1.142 2.14 5.203 3.053 6.761 2.136l-.177-.545-4.777-6.701s-.184-.213-.56-.437c-1.37.356-2.338 3.501-1.247 5.547z" style="fill:#ffde29"/><path d="M54.402 52.087c1.172 1.842 4.338 2.546 5.857 1.817 0 0-.892-3.712-4.777-6.701-1.298.445-2.252 3.042-1.08 4.884z" style="fill:#4482b3"/><path d="M58.692 50.881c-.563-.249-.983-.302-.983-.302s.447 1.199.582 1.1c.371-.27.539-.246.877.293.016.026.042-.003.036-.026-.123-.506-.369-1.002-.512-1.065zm-2.223 1.621c.001.167.337.597.726.91.018.014.053-.001.036-.027-.338-.54-.297-.716.075-.987.134-.098-.731-.991-.731-.991s-.111.44-.106 1.095z" style="fill:#fff"/><path d="M56.895 51.889c.632 1.007.87 1.06 1.285.757.414-.301.458-.56-.175-1.567l-1.11.81z" style="fill:#de0707"/><path d="M55.358 48.153s-.178 1.256 1.228 3.496c.63 1.005.903 1.03 1.391.675.489-.356.567-.639-.063-1.643-1.407-2.24-2.556-2.528-2.556-2.528z" style="fill:#fff"/><path d="M56.478 49.936a.324.324 0 0 1 .47.098.383.383 0 0 1-.09.506.324.324 0 0 1-.47-.097.383.383 0 0 1 .09-.507z" style="fill:#4482b3"/><path d="M57.908 52.351c-.257-.41-.439-.76-.406-.784.033-.024.267.289.525.698.257.41.439.761.406.785-.033.024-.268-.29-.525-.699z" style="fill:#fff"/><path d="M55.359 48.153s-.067.47.203 1.35a1.61 1.61 0 0 0 .883-.645c-.656-.597-1.086-.705-1.086-.705z" style="fill:#de0707"/><path d="m35.815 53.743-1.26-.907h-7.008l-1.356.907h-5.448v7.855S24.436 62 32 62s11.257-.402 11.257-.402v-7.855h-7.442z" style="fill:#c5d5db"/><path d="M28.312 59.937h5.775v.156h-5.775zm-5.531-.906h2.534v.156h-2.534z" style="fill:#4e5e67"/><path d="M28.312 55.063h5.775v4.874h-5.775z" style="fill:#99a8ae"/><path d="M32.958 59.26H29.44l-.494-3.519h4.505z" style="fill:#c5d5db"/><path d="M32.804 58.815h-3.21l-.648-3.074h4.506z" style="fill:#e3edf2"/><path d="M25.315 59.03H22.78v-1.993c0-.245.198-.443.443-.443h1.648c.244 0 .443.198.443.443v1.994zm-3.1-5.755h2.534v.471h-2.534zm16.076 0h1.407v.471h-1.407z" style="fill:#99a8ae"/><path d="M41.35 57.965a2.67 2.67 0 1 1-5.34 0 2.67 2.67 0 0 1 5.34 0z" style="fill:#2b857a"/><path d="M41.35 57.734a2.67 2.67 0 1 1-5.34 0 2.67 2.67 0 0 1 5.34 0z" style="fill:#3ab0a2"/><path d="M40.87 57.734c0 1.21-4.38 1.21-4.38 0a2.19 2.19 0 0 1 4.38 0z" style="fill:#c5d5db"/><path d="M40.87 57.906c0 1.115-.98 2.018-2.19 2.018s-2.19-.903-2.19-2.018c0-1.115.98-2.019 2.19-2.019s2.19.904 2.19 2.019z" style="fill:#e3edf2"/><path d="M23.602 57.3h.892v1.247h-.892z" style="fill:#4e5e67"/><ellipse cx="32" cy="26.873" rx="20.387" ry="20.388" style="fill:#1a1626" transform="rotate(-45.001 32 26.873)"/><path d="M46.432 41.096c0 4.22-28.864 4.22-28.864 0-.01-6.02 28.864-6.02 28.864 0z" style="fill:#4e5e67"/><path d="M32 10.653c-9.251 0-13.708 6.993-13.15 16.715.111 1.957 1.327 8.337 2.472 10.626 1.173 2.342 5.095 5.953 7.498 6.7 1.518.471 4.843.471 6.36 0 2.404-.747 6.328-4.358 7.5-6.7 1.148-2.289 2.36-8.668 2.47-10.626.561-9.721-3.896-16.715-13.15-16.715z" style="fill:#ebc199"/><path d="M42.052 23.676c-2.115-1.121-6.164-1.175-7.673-.393-.324.149-.11 1.21.162 1.11 2.1-.832 5.492-.85 7.46.07.263.12.372-.631.051-.787zm-20.102 0c2.115-1.121 6.162-1.175 7.672-.393.323.149.11 1.21-.162 1.11-2.105-.832-5.492-.85-7.462.07-.26.12-.368-.631-.049-.787z" style="fill:#ab8c57"/><path d="M34.497 33.385c-.264-.184-.883.1-2.497.1-1.61 0-2.231-.284-2.495-.1-.316.223.187 1.227 2.495 1.227 2.31 0 2.815-1.004 2.497-1.227z" style="fill:#c99b71"/><path d="M29.942 27.489c.078.613-.338 1.338-1.488 1.882-.73.347-2.253.753-4.25-.09-.895-.377-1.768-1.55-1.69-2.202 1.084-2.04 6.414-2.339 7.428.41z" style="fill:#fff"/><linearGradient id="d" x1="-1210.154" x2="-1210.154" y1="172.552" y2="171.915" gradientTransform="translate(7977.155 -1104.145) scale(6.5701)" gradientUnits="userSpaceOnUse"><stop offset="0" style="stop-color:#a6694a"/><stop offset="1" style="stop-color:#4f2a1e"/></linearGradient><path d="M26.326 25.357c1.155 0 2.095.936 2.095 2.09a2.094 2.094 0 0 1-2.095 2.094 2.093 2.093 0 1 1 0-4.184z" style="fill:url(#d)"/><path d="M25.279 27.41c0 1.448 2.094 1.448 2.094 0 0-1.343-2.094-1.343-2.094 0z" style="fill:#1a1626"/><path d="M24.961 26.822c0 .607.877.607.877 0 0-.56-.877-.56-.877 0z" style="fill:#ab968c"/><path d="M29.952 27.569c-.85-2.729-6.65-2.325-7.437-.49.291-2.35 6.713-2.972 7.437.49z" style="fill:#c99b71"/><path d="M34.06 27.489c-.079.613.336 1.338 1.487 1.882.73.347 2.251.753 4.249-.09.898-.377 1.769-1.55 1.69-2.202-1.082-2.04-6.414-2.339-7.426.41z" style="fill:#fff"/><linearGradient id="e" x1="-1211.132" x2="-1211.132" y1="172.552" y2="171.915" gradientTransform="translate(7994.886 -1104.145) scale(6.5701)" gradientUnits="userSpaceOnUse"><stop offset="0" style="stop-color:#a6694a"/><stop offset="1" style="stop-color:#4f2a1e"/></linearGradient><path d="M37.628 25.357a2.093 2.093 0 1 1-2.094 2.09c0-1.154.938-2.09 2.094-2.09z" style="fill:url(#e)"/><path d="M36.583 27.41c0 1.448 2.094 1.448 2.094 0 0-1.343-2.094-1.343-2.094 0z" style="fill:#1a1626"/><path d="M36.263 26.822c0 .607.878.607.878 0 0-.56-.878-.56-.878 0z" style="fill:#ab968c"/><path d="M34.05 27.569c.848-2.727 6.644-2.337 7.436-.49-.295-2.35-6.712-2.972-7.436.49zM32 37.404c-2.08-.612-5.165.292-5.165.292 1.176 1.277 2.035 2.938 5.165 2.938 3.587 0 4.197-1.885 5.165-2.938 0 0-3.085-.907-5.165-.292z" style="fill:#c99b71"/><path d="M27.61 37.912c2.181 1.83 6.587 1.84 8.78 0-2.323.1-6.44.1-8.78 0z" style="fill:#fff"/><path d="M47.625 22.634a4.374 4.374 0 0 0-1.082-1.987c-.437-.458-.68-1.058-.747-1.684C45.364 15.033 43.147 7.047 32 7.047c-11.148 0-13.365 7.986-13.795 11.916-.07.626-.311 1.226-.747 1.684-.491.516-.9 1.21-1.083 1.987a24.46 24.46 0 0 0 0 8.938c.255 1.089.955 2.022 1.701 2.524a3.915 3.915 0 0 1 1.514 1.994c1.11 3.281 3.628 4.534 3.628 4.534S20.24 36.34 20.24 28.803c0-3.289.204-5.58.36-6.85a2.097 2.097 0 0 1 1.308-1.705c1.589-.625 4.882-1.589 10.092-1.589 5.21 0 8.503.964 10.092 1.589a2.096 2.096 0 0 1 1.308 1.705c.155 1.27.36 3.561.36 6.85 0 7.536-3.036 11.821-3.036 11.821s2.576-1.253 3.685-4.534a3.91 3.91 0 0 1 1.514-1.994c.747-.501 1.446-1.435 1.7-2.524.55-2.952.55-5.986.002-8.938z" style="fill:#3089c6"/><path d="M23.217 40.623c-1.47-2.194-2.28-4.717-2.8-7.25-.509-2.55-.497-5.157-.44-7.727.04-1.297.103-2.562.277-3.885a2.45 2.45 0 0 1 1.355-1.772 16.921 16.921 0 0 1 2.025-.689c2.724-.749 5.56-1.017 8.374-1.037 2.814.02 5.65.29 8.374 1.041.688.197 1.33.395 2.027.694a2.45 2.45 0 0 1 1.339 1.782c.171 1.32.238 2.587.275 3.884.057 2.569.07 5.177-.45 7.728-.53 2.53-1.359 5.05-2.848 7.232 1.317-2.265 2.048-4.775 2.433-7.294.428-2.523.342-5.085.206-7.64a56.554 56.554 0 0 0-.349-3.798 1.753 1.753 0 0 0-.958-1.271 16.126 16.126 0 0 0-1.897-.625c-2.63-.702-5.4-.943-8.151-.942-2.752-.005-5.521.237-8.152.936a16.95 16.95 0 0 0-1.902.623c-.507.233-.87.724-.97 1.264a55.6 55.6 0 0 0-.35 3.795c-.136 2.556-.22 5.118.196 7.643.376 2.52 1.09 5.032 2.386 7.308z" style="fill:#1f547c"/><path d="M34.659 7.236c.47 3.091.887 6.93 1.13 11.61 3.061.31 5.143.944 6.304 1.4a2.095 2.095 0 0 1 1.307 1.706c.14 1.144.318 3.123.353 5.906h.277c0-2.066-.004-10-2.414-17.664-1.624-1.438-3.868-2.548-6.957-2.958zm-5.319 0c-3.089.41-5.333 1.52-6.957 2.958-2.41 7.663-2.414 15.598-2.414 17.664h.277c.034-2.783.213-4.762.353-5.906a2.097 2.097 0 0 1 1.308-1.705c1.16-.457 3.242-1.09 6.303-1.4.244-4.68.66-8.52 1.13-11.611z" style="fill:#1f547c"/><path d="M57.394 32.761h-3.885a1.29 1.29 0 0 1-1.29-1.29v-9.726a2.316 2.316 0 0 1 2.316-2.316h1.833a2.316 2.316 0 0 1 2.316 2.316v9.726a1.29 1.29 0 0 1-1.29 1.29z" style="fill:#99a8ae"/><path d="M52.219 22.748h6.465v.381h-6.465z" style="fill:#4e5e67"/><path d="M54.243 20.581h2.416v1.504h-2.416z" style="fill:#302c3b"/><path d="M54.365 20.657h2.173v1.353h-2.173z" style="fill:#4e5e67"/><path d="M57.126 25.266c0 2.232-3.35 2.232-3.35 0 0-2.233 3.35-2.233 3.35 0z" style="fill:#7d8d96"/><path d="M56.791 25.266c0 1.785-2.68 1.785-2.68 0s2.68-1.785 2.68 0z" style="fill:#cfd8dd"/><radialGradient id="f" cx="55.452" cy="29.846" r="2.704" gradientUnits="userSpaceOnUse"><stop offset="0" style="stop-color:#fff"/><stop offset=".915" style="stop-color:#fff;stop-opacity:.0849"/><stop offset="1" style="stop-color:#fff;stop-opacity:0"/></radialGradient><path d="M58.156 29.846c0 3.604-5.409 3.604-5.409 0s5.409-3.604 5.409 0z" style="opacity:.8;fill:url(#f)"/><path d="M57.313 29.846c0 2.48-3.723 2.48-3.723 0 0-2.479 3.723-2.479 3.723 0z" style="fill:#fff"/><path d="M10.49 32.761H6.607a1.29 1.29 0 0 1-1.29-1.29v-9.726a2.316 2.316 0 0 1 2.316-2.316h1.833a2.316 2.316 0 0 1 2.316 2.316v9.726a1.29 1.29 0 0 1-1.29 1.29z" style="fill:#99a8ae"/><path d="M5.316 22.748h6.465v.381H5.316z" style="fill:#4e5e67"/><path d="M7.34 20.581h2.416v1.504H7.34z" style="fill:#302c3b"/><path d="M7.462 20.657h2.173v1.353H7.462z" style="fill:#4e5e67"/><path d="M10.223 25.266c0 2.232-3.35 2.232-3.35 0 0-2.233 3.35-2.233 3.35 0z" style="fill:#7d8d96"/><path d="M9.889 25.266c0 1.785-2.68 1.785-2.68 0s2.68-1.785 2.68 0z" style="fill:#cfd8dd"/><radialGradient id="g" cx="8.549" cy="29.846" r="2.704" gradientUnits="userSpaceOnUse"><stop offset="0" style="stop-color:#fff"/><stop offset=".915" style="stop-color:#fff;stop-opacity:.0849"/><stop offset="1" style="stop-color:#fff;stop-opacity:0"/></radialGradient><path d="M11.253 29.846c0 3.604-5.409 3.604-5.409 0s5.409-3.604 5.409 0z" style="opacity:.8;fill:url(#g)"/><path d="M10.41 29.846c0 2.48-3.723 2.48-3.723 0 0-2.479 3.723-2.479 3.723 0z" style="fill:#fff"/><radialGradient id="h" cx="-45.594" cy="247.837" r="3.945" gradientTransform="translate(87.534 -192.8) scale(.9412)" gradientUnits="userSpaceOnUse"><stop offset="0" style="stop-color:#f0f6fa"/><stop offset="1" style="stop-color:#c0cfd9"/></radialGradient><path d="M43.9 38.645c-1.959 1.197-1.092 3.958-3.648 4.732 5.95 0 8.738-5.825 8.738-5.825-.626 1.042-3.13-.105-5.09 1.093z" style="fill:url(#h)"/><linearGradient id="i" x1="44.484" x2="44.484" y1="41.017" y2="43.444" gradientTransform="matrix(1 0 0 -1 0 82)" gradientUnits="userSpaceOnUse"><stop offset="0" style="stop-color:#f0f6fa"/><stop offset="1" style="stop-color:#c0cfd9"/></linearGradient><path d="M45.405 38.695c-1-.723-2.896 1.56-1.809 2.233.636.393 2.898-1.446 1.81-2.233z" style="fill:url(#i)"/><linearGradient id="j" x1="38.999" x2="38.794" y1="39.605" y2="41.044" gradientTransform="matrix(1 0 0 -1 0 82)" gradientUnits="userSpaceOnUse"><stop offset="0" style="stop-color:#000"/><stop offset="1" style="stop-color:#2f373a"/></linearGradient><path d="M44.027 39.274c-2.962 1.27-5.215 1.905-7.173 2.075-.6.052-1.447-.622-2.52-.54-2.629.08-2.4 2.05 0 1.794 1.224-.085 1.903-.816 2.52-.839 1.435-.052 2.256-.192 4.683-.566 3.415-.41 4.5-2.73 2.49-1.924z" style="fill:url(#j)"/><radialGradient id="k" cx="-59.088" cy="226.935" r="29.676" gradientTransform="translate(87.534 -192.8) scale(.9412)" gradientUnits="userSpaceOnUse"><stop offset="0" style="stop-color:#f5fbff"/><stop offset="1" style="stop-color:#d4e0e8"/></radialGradient><path d="M32 6c-11.528 0-20.873 9.345-20.873 20.873S20.472 47.746 32 47.746 52.873 38.4 52.873 26.873 43.528 6 32 6zm14.834 34.259S42.23 44.26 32 44.26s-14.834-4.002-14.834-4.002c-6.054-7.824-4.368-16.466-4.368-16.466C14.727 20.017 19.883 13.194 32 13.194c12.118 0 17.273 6.823 19.2 10.599 0 0 1.687 8.642-4.366 16.466z" style="fill:url(#k)"/><radialGradient id="l" cx="-63.692" cy="230.067" r="24.311" gradientTransform="translate(87.534 -192.8) scale(.9412)" gradientUnits="userSpaceOnUse"><stop offset="0" style="stop-color:#fff;stop-opacity:.73"/><stop offset=".788" style="stop-color:#fff;stop-opacity:0"/></radialGradient><path d="M46.834 40.345S42.23 44.347 32 44.347s-14.834-4.002-14.834-4.002c-6.054-7.823-4.368-16.466-4.368-16.466C14.727 20.104 19.883 13.28 32 13.28c12.118 0 17.273 6.824 19.2 10.599 0 0 1.687 8.643-4.366 16.466z" style="opacity:.8;fill:url(#l);enable-background:new"/><radialGradient id="m" cx="-59.269" cy="598.905" r="17.639" gradientTransform="matrix(.9412 0 0 .3599 87.534 -195.799)" gradientUnits="userSpaceOnUse"><stop offset="0" style="stop-color:#efc177"/><stop offset=".419" style="stop-color:#edbf75"/><stop offset=".57" style="stop-color:#e8b96e"/><stop offset=".678" style="stop-color:#dfad63"/><stop offset=".765" style="stop-color:#d19c52"/><stop offset=".839" style="stop-color:#bf873c"/><stop offset=".904" style="stop-color:#aa6d21"/><stop offset=".914" style="stop-color:#a6681c"/></radialGradient><path d="M13.498 24.113s4.03-6.22 18.502-6.22c14.473 0 18.502 6.22 18.502 6.22S46.674 14.01 32 14.01 13.498 24.113 13.498 24.113z" style="fill:url(#m)"/><radialGradient id="n" cx="-59.003" cy="223.661" r="64.104" gradientTransform="translate(87.534 -192.8) scale(.9412)" gradientUnits="userSpaceOnUse"><stop offset=".086" style="stop-color:#a6681c"/><stop offset=".096" style="stop-color:#aa6d21"/><stop offset=".161" style="stop-color:#bf873c"/><stop offset=".235" style="stop-color:#d19c52"/><stop offset=".322" style="stop-color:#dfad63"/><stop offset=".43" style="stop-color:#e8b96e"/><stop offset=".581" style="stop-color:#edbf75"/><stop offset="1" style="stop-color:#efc177"/></radialGradient><path d="M32 17.408c-14.774 0-18.967 6.63-19.139 6.912l.415.252c.04-.066 4.25-6.679 18.724-6.679s18.683 6.612 18.724 6.679l.416-.253c-.173-.282-4.365-6.911-19.14-6.911z" style="fill:url(#n)"/><linearGradient id="o" x1="32" x2="32" y1="237.077" y2="204.554" gradientTransform="translate(0 -192)" gradientUnits="userSpaceOnUse"><stop offset="0" style="stop-color:#f0f6fa"/><stop offset="1" style="stop-color:#95a8b9"/></linearGradient><path d="M32 45.077c-10.383 0-15.115-4.011-15.311-4.181l-.098-.104c-6.185-7.993-4.578-16.685-4.507-17.05l.066-.192c2.097-4.107 7.464-10.996 19.85-10.996 12.385 0 17.752 6.89 19.849 10.996l.066.192c.071.366 1.678 9.058-4.507 17.05l-.097.104c-.195.17-4.928 4.18-15.311 4.18zm-14.307-5.242c.51.404 5.058 3.784 14.307 3.784 9.242 0 13.79-3.375 14.308-3.785 5.378-7.007 4.345-14.777 4.194-15.721-1.98-3.82-6.99-10.103-18.502-10.103-11.512 0-16.522 6.283-18.503 10.104-.15.942-1.184 8.713 4.196 15.72z" style="fill:url(#o)"/><radialGradient id="p" cx="-116.749" cy="-67.422" r="27.997" gradientTransform="matrix(.7732 0 0 -.2536 122.163 28.812)" gradientUnits="userSpaceOnUse"><stop offset="0" style="stop-color:#f0f6fa"/><stop offset="1" style="stop-color:#c0cfd9"/></radialGradient><path d="M45.812 42.552c-.466 0-2.582 3.071-13.812 3.071s-13.394-3.071-13.812-3.071c-.07 0-.143-.009-.143.321 0 1.456 1.93 5.504 13.956 5.504 12.025 0 13.956-4.048 13.956-5.504-.001-.33-.074-.321-.145-.321z" style="fill:url(#p)"/></svg>