<svg xmlns="http://www.w3.org/2000/svg" xml:space="preserve" viewBox="0 0 64 64"><radialGradient id="a" cx="907.371" cy="246.28" r="19.7" gradientTransform="scale(-1 1) rotate(-9.997 -635.272 5587.018)" gradientUnits="userSpaceOnUse"><stop offset="0" style="stop-color:#291d19"/><stop offset=".264" style="stop-color:#3a2a22"/><stop offset=".721" style="stop-color:#533b2e"/><stop offset="1" style="stop-color:#5c4233"/></radialGradient><path fill="url(#a)" d="M38.286 58.176c-9.417-5.838-6.26-17.816-6.26-17.816l28.364 5.001s-1.13 12.335-11.974 14.601c0 0-2.116.149-5.154-.387-3.041-.536-4.976-1.399-4.976-1.399z"/><path fill="#916B50" d="M48.351 30.705c7.351 1.296 9.836 7.907 8.036 15.525-.364 1.53-1.188 3.686-2.056 5.505-1.803 3.781-9.326 6.758-11.803 6.321-2.476-.437-6.587-5.465-6.99-9.634-.194-2.006-.231-4.314-.049-5.876.916-7.775 5.511-13.138 12.862-11.841z"/><path fill="#523C31" d="M38.58 40.449c1.764-.67 4.65-.282 5.668.567.217.173.032.849-.161.726-1.498-.958-3.955-1.426-5.61-.915-.221.068-.164-.282.103-.378zm15.621 2.755c-1.429-1.233-4.272-1.855-5.522-1.406-.263.088-.32.787-.096.738 1.736-.388 4.203.012 5.585 1.059.184.138.25-.21.033-.391z"/><path fill="#6B4D3C" d="M39.889 30.321c-.629-1.346 6.927-2.623 13.338.27 6.434 2.718 8.919 10.729 7.285 20-.776 4.403-5.334 9.519-12.096 9.371 8.149-3.799 7.866-9.043 6.909-15.493-4.521-3.803-10.098-5.495-13.438-9.681.239 1.609-2.78 3.052-4.796 6.466-3.06 5.183-5.121 10.608 1.195 16.922-5.9-2.085-8.94-8.539-8.164-12.943 1.933-10.96 7.216-16.162 9.767-14.912z"/><path fill="#5C4233" d="M39.889 30.321c-.637-1.108 3.24-2.084 7.766-1.286-5.632-.541-8.057 2.135-6.375 1.611 1.792-.559 6.026-1.082 10.976 2.304-5.666-2.29-11.321-1.877-10.604-1.02 1.132 1.353 7.528-.66 14.413 8.277.948 1.231-4.224-4.827-12.319-6.418.711 2.576 14.494 8.89 15.694 15.192-2.813-6.031-18.321-10.822-19.551-18.66zm-5.195 7.953s-5.207 8.933-.473 16.599c-7.287-8.115.473-16.599.473-16.599z"/><path fill="#5C4233" d="M55.057 44.139s1.393.516 2.345 2.002c.929 9.134-5.616 11.83-5.616 11.83s5.514-3.968 3.271-13.832z"/><path fill="#5C4233" d="M58.323 47.155s.63.384 1.157 2.224c-.169 5.439-4.37 7.484-4.37 7.484s4.244-3.651 3.213-9.708zM33.186 35.747c3.978-7.54 6.703-5.427 6.703-5.427s.968 2.962 1.951 4.114c1.629 2.92-5.907 3.849-7.672 14.944-.504-8.193 5.678-12.521 6.01-13.91.377-1.574-.514-4.253-1.493-4.729-1.061-.514-4.318 2.983-5.499 5.008z"/><path fill="#3D2E24" d="M59.48 49.379c-2.898-7.355-18.038-9.562-19.591-19.058 3.837 9.088 19.572 13.265 19.591 19.058z"/><path fill="#7A5B49" d="M39.405 33.918s-4.599 6.566-6.219 12.547c.74-9.505 6.219-12.547 6.219-12.547zm16.886 9.263s-4.299-4.007-9.918-7.678c6.437 1.537 9.918 7.678 9.918 7.678zm3.111-.115s-2.74-6.766-9.383-9.766c9.789 1.073 9.383 9.766 9.383 9.766z"/><path fill="#69452D" d="M43.382 48.94c.203-.082.566.201 1.627.449 1.062.248 1.516.154 1.66.316.176.195-.311.781-1.832.426-1.519-.353-1.699-1.091-1.455-1.191z"/><path fill="#704536" d="M40.4 52.153c-2.17 2.301 3.072 3.246 4.762.996l-4.762-.996z"/><path fill="#613628" d="M41.67 51.774c1.152-.34 1.938.699 3.492 1.375-1.508.393-3.486.133-3.664-.512 0 0-.646.322-1.152-.254-.567-.644.218-1.423 1.324-.609z"/><path fill="#855C40" d="M53.474 46.458c-.312 1.777-6.053.766-5.689-1.291.853-2.918 6.18-1.893 5.689 1.291z"/><path fill="#3D2D27" d="M53.474 46.458c-.312 1.777-6.055.766-5.691-1.293.295 1.031 5.09 2.002 5.691 1.293z"/><path fill="#855C40" d="M38.308 43.784c-.314 1.777 5.426 2.789 5.789.732.196-3.033-5.16-3.894-5.789-.732z"/><path fill="#3D2D27" d="M38.308 43.784c-.314 1.777 5.426 2.789 5.789.732-.629.867-5.465.139-5.789-.732z"/><linearGradient id="b" x1="-22.238" x2="-22.238" y1="-518.729" y2="-527.495" gradientTransform="matrix(-2.7664 .8895 .8472 2.6347 410.433 1416.088)" gradientUnits="userSpaceOnUse"><stop offset="0" style="stop-color:#db0100"/><stop offset=".584" style="stop-color:#f31317"/><stop offset="1" style="stop-color:#ff1c23"/></linearGradient><path fill="url(#b)" d="M26.182 10.008c1.811-7.38 13.074-8.346 15.561-.609 1.67 5.19-.961 11.332-9.023 20.137-3.408-6.134-16.494-1.49-19.537-10.952-2.49-7.737 7.227-13.516 12.999-8.576z"/><radialGradient id="c" cx="-116.538" cy="65.786" r="19.7" gradientTransform="rotate(-10.003 -83.356 -722.32)" gradientUnits="userSpaceOnUse"><stop offset="0" style="stop-color:#382415"/><stop offset=".294" style="stop-color:#4c311d"/><stop offset=".732" style="stop-color:#654226"/><stop offset="1" style="stop-color:#6e482a"/></radialGradient><path fill="url(#c)" d="M25.714 58.176c9.416-5.838 6.26-17.816 6.26-17.816L3.61 45.361s1.131 12.335 11.974 14.601c0 0 2.116.149 5.154-.387 3.041-.536 4.976-1.399 4.976-1.399z"/><path fill="#B88A6F" d="M15.649 30.705c-7.351 1.296-9.836 7.907-8.036 15.525.364 1.53 1.188 3.686 2.056 5.505 1.803 3.781 9.326 6.758 11.803 6.321 2.476-.437 6.587-5.465 6.99-9.634.194-2.006.231-4.314.049-5.876-.916-7.775-5.511-13.138-12.862-11.841z"/><path fill="#5E4533" d="M25.42 40.449c-1.764-.67-4.65-.282-5.668.567-.217.173-.032.849.161.726 1.498-.958 3.955-1.426 5.61-.915.221.068.164-.282-.103-.378zM9.799 43.204c1.429-1.233 4.272-1.855 5.522-1.406.263.088.32.787.096.738-1.736-.388-4.202.012-5.584 1.059-.185.138-.251-.21-.034-.391z"/><path fill="#805837" d="M24.111 30.321c.629-1.346-6.927-2.623-13.338.27-6.434 2.718-8.919 10.729-7.285 20 .776 4.403 5.334 9.519 12.096 9.371-8.149-3.799-7.865-9.043-6.909-15.493 4.521-3.803 10.098-5.495 13.438-9.681-.239 1.609 2.78 3.052 4.796 6.466 3.06 5.183 5.121 10.608-1.195 16.922 5.9-2.085 8.94-8.539 8.164-12.943-1.933-10.96-7.216-16.162-9.767-14.912z"/><path fill="#6E482A" d="M24.111 30.321c.637-1.108-3.24-2.084-7.766-1.286 5.632-.541 8.057 2.135 6.375 1.611-1.792-.559-6.026-1.082-10.976 2.304 5.665-2.29 11.321-1.877 10.604-1.02-1.132 1.353-7.529-.66-14.413 8.277-.948 1.231 4.224-4.827 12.319-6.418-.711 2.576-14.494 8.89-15.694 15.192 2.813-6.031 18.321-10.822 19.551-18.66zm5.195 7.953s5.207 8.933.473 16.599c7.287-8.115-.473-16.599-.473-16.599z"/><path fill="#6E482A" d="M8.943 44.139s-1.393.516-2.345 2.002c-.929 9.134 5.616 11.83 5.616 11.83S6.7 54.003 8.943 44.139z"/><path fill="#6E482A" d="M5.677 47.155s-.63.384-1.158 2.224c.169 5.439 4.37 7.484 4.37 7.484s-4.243-3.651-3.212-9.708zm25.137-11.408c-3.978-7.54-6.703-5.427-6.703-5.427s-.968 2.962-1.951 4.114c-1.629 2.92 5.907 3.849 7.672 14.944.504-8.193-5.678-12.521-6.01-13.91-.377-1.574.514-4.253 1.493-4.729 1.061-.514 4.318 2.983 5.499 5.008z"/><path fill="#52351F" d="M4.52 49.379c2.898-7.355 18.038-9.562 19.591-19.058C20.274 39.409 4.539 43.586 4.52 49.379z"/><path fill="#916643" d="M24.595 33.918s4.599 6.566 6.219 12.547c-.74-9.505-6.219-12.547-6.219-12.547zM7.709 43.181s4.299-4.007 9.918-7.678c-6.437 1.537-9.918 7.678-9.918 7.678zm-3.111-.115s2.74-6.766 9.383-9.766c-9.789 1.073-9.383 9.766-9.383 9.766z"/><path fill="#8C5F44" d="M20.618 48.94c-.203-.082-.566.201-1.627.449-1.062.248-1.516.154-1.66.316-.176.195.31.781 1.832.426 1.519-.353 1.699-1.091 1.455-1.191z"/><path fill="#945D44" d="M23.6 52.153c2.17 2.301-3.072 3.246-4.762.996l4.762-.996z"/><path fill="#854937" d="M22.33 51.774c-1.152-.34-1.938.699-3.492 1.375 1.508.393 3.486.133 3.664-.512 0 0 .646.322 1.152-.254.567-.644-.218-1.423-1.324-.609z"/><path fill="#A87A5C" d="M10.526 46.458c.312 1.777 6.053.766 5.689-1.291-.853-2.918-6.18-1.893-5.689 1.291z"/><path fill="#45332C" d="M10.526 46.458c.312 1.777 6.055.766 5.691-1.293-.295 1.031-5.09 2.002-5.691 1.293z"/><path fill="#A87A5C" d="M25.692 43.784c.315 1.777-5.426 2.789-5.789.732-.196-3.033 5.16-3.894 5.789-.732z"/><path fill="#45332C" d="M25.692 43.784c.315 1.777-5.426 2.789-5.789.732.629.867 5.465.139 5.789-.732z"/></svg>