<svg xmlns="http://www.w3.org/2000/svg" xml:space="preserve" style="enable-background:new 0 0 64 64" viewBox="0 0 64 64"><linearGradient id="a" x1="34.133" x2="34.133" y1="28.6" y2="3" gradientUnits="userSpaceOnUse"><stop offset="0" style="stop-color:#db0100"/><stop offset=".584" style="stop-color:#f31317"/><stop offset="1" style="stop-color:#ff1c23"/></linearGradient><path d="M34.132 6.864C29.937.045 18.33 2.707 18.325 11.274c0 5.148 4.32 8.785 12.747 15.594 2.859 2.309 3.265 2.31 6.125 0 8.421-6.81 12.742-10.444 12.744-15.596 0-8.564-11.612-11.227-15.809-4.408z" style="fill:url(#a)"/><radialGradient id="b" cx="26.357" cy="61" r="21.067" gradientTransform="translate(-8.211)" gradientUnits="userSpaceOnUse"><stop offset="0" style="stop-color:#bf6000"/><stop offset=".397" style="stop-color:#dc8103"/><stop offset=".772" style="stop-color:#f19a06"/><stop offset="1" style="stop-color:#f9a307"/></radialGradient><path d="M23.599 60.45c11-4.4 9.9-17.6 9.9-17.6H2.7s-1.1 13.2 9.9 17.6c0 0 2.2.55 5.5.55s5.5-.55 5.5-.55z" style="fill:url(#b)"/><path d="M18.1 29.65c-7.982 0-11.827 6.5-11.346 14.858.098 1.68.566 4.103 1.143 6.18C9.093 55.003 15.41 59.35 18.1 59.35c2.689 0 9.005-4.346 10.203-8.663.577-2.076 1.044-4.5 1.143-6.179.48-8.358-3.363-14.858-11.346-14.858z" style="fill:#ffc940"/><path d="M18.099 52.565c-1.87-.823-1.885-.033-4.773.16 1.084 1.231 1.882 2.813 4.772 2.813 3.317 0 3.878-1.797 4.776-2.813-2.891-.193-2.903-.983-4.775-.16z" style="fill:#d47706"/><path d="M14.193 53.032c1.885 1.962 5.951 1.936 7.813.001-2.903.312-4.91.312-7.813 0z" style="fill:#fff"/><path d="M26.58 41.727c-1.733-1.034-4.844-1.16-6.074-.456-.26.142-.191.889.034.795 1.756-.73 4.43-.767 6.079.079.22.112.225-.268-.038-.418zm-16.962 0c1.734-1.034 4.844-1.16 6.077-.456.26.142.19.889-.036.795-1.756-.73-4.428-.768-6.078.079-.221.112-.225-.268.037-.418z" style="fill:#bb7c0a"/><path d="M19.894 49.913c-.19-.133-.636.072-1.795.072-1.158 0-1.604-.205-1.794-.072-.228.16.134.883 1.794.883 1.66 0 2.024-.722 1.795-.883z" style="fill:#f0a429"/><path d="M16.324 44.863c.068.527-.29 1.153-1.284 1.623-.63.298-1.942.65-3.666-.077-.772-.326-1.525-1.34-1.457-1.9.934-1.763 5.533-2.02 6.407.354z" style="fill:#fff"/><linearGradient id="c" x1="-426.413" x2="-426.413" y1="475.167" y2="475.717" gradientTransform="matrix(6.5701 0 0 -6.5701 2814.782 3168.527)" gradientUnits="userSpaceOnUse"><stop offset="0" style="stop-color:#a6694a"/><stop offset="1" style="stop-color:#4f2a1e"/></linearGradient><path d="M13.204 43.02a1.807 1.807 0 1 1 0 3.614 1.807 1.807 0 0 1 0-3.614z" style="fill:url(#c)"/><path d="M12.301 44.794c0 1.25 1.807 1.25 1.807 0 0-1.16-1.807-1.16-1.807 0z" style="fill:#1a1626"/><path d="M12.026 44.288c0 .524.758.524.758 0 0-.485-.758-.485-.758 0z" style="fill:#ab968c"/><path d="M16.333 44.933c-.734-2.358-5.736-2.01-6.417-.425.253-2.03 5.792-2.566 6.417.425z" style="fill:#45332c"/><path d="M19.876 44.863c-.068.527.29 1.153 1.283 1.623.63.298 1.942.65 3.667-.077.773-.326 1.525-1.34 1.457-1.9-.933-1.763-5.533-2.02-6.407.354z" style="fill:#fff"/><linearGradient id="d" x1="-427.628" x2="-427.628" y1="475.167" y2="475.717" gradientTransform="matrix(6.5701 0 0 -6.5701 2832.512 3168.527)" gradientUnits="userSpaceOnUse"><stop offset="0" style="stop-color:#a6694a"/><stop offset="1" style="stop-color:#4f2a1e"/></linearGradient><path d="M22.955 43.02a1.807 1.807 0 1 1 0 3.614 1.807 1.807 0 0 1 0-3.614z" style="fill:url(#d)"/><path d="M22.053 44.794c0 1.25 1.807 1.25 1.807 0 0-1.16-1.807-1.16-1.807 0z" style="fill:#1a1626"/><path d="M21.778 44.288c0 .524.757.524.757 0 0-.485-.757-.485-.757 0z" style="fill:#ab968c"/><path d="M19.868 44.933c.733-2.357 5.731-2.02 6.415-.425-.253-2.03-5.79-2.566-6.415.425z" style="fill:#45332c"/><path d="M27.082 30.817c.912-1.3-6.808-4.049-14.097-2.193C5.705 30.293 1.6 38.267 1.6 48.335c0 4.782 3.85 11.016 10.999 12.116-7.877-5.514-6.605-10.984-4.4-17.6 5.469-3.165 11.656-3.91 15.95-7.7-.55 1.65 2.362 3.731 3.85 7.7 2.261 6.027 3.424 12.123-4.4 17.6 6.6-1.1 11-7.333 11-12.115 0-11.901-4.598-18.36-7.517-17.518z" style="fill:#ffb80d"/><path d="M27.082 30.817c.877-1.049-3.025-2.796-7.94-2.796 6.032.476 8.088 3.744 6.414 2.88-1.784-.921-6.145-2.259-11.987.388 6.392-1.36 12.271.126 11.357.895-1.444 1.215-7.806-2.093-16.716 6.041-1.227 1.12 5.344-4.3 14.165-4.471-1.227 2.58-16.915 6.671-19.35 13.085 4.085-5.83 21.307-7.995 24.057-16.022zm3.995 9.341s3.825 10.375-2.584 17.569c9.18-7.194 2.584-17.569 2.584-17.569z" style="fill:#f9a307"/><path d="M8.542 42.553s-1.563.284-2.841 1.672c-2.675 9.447 3.717 13.502 3.717 13.502s-5.07-5.202-.876-15.174z" style="fill:#f9a307"/><path d="M4.543 45.123s-.734.288-1.631 2.127c-.832 5.76 3.212 8.693 3.212 8.693s-3.792-4.632-1.58-10.82zm28.591-7.346c-2.789-8.68-6.052-6.96-6.052-6.96s-1.57 2.94-2.819 3.97c-2.257 2.773 5.506 5.151 5.304 17.164 2.053-8.535-3.654-14.242-3.746-15.766-.104-1.727 1.331-4.383 2.45-4.702 1.215-.346 3.996 3.942 4.863 6.294z" style="fill:#f9a307"/><path d="M2.912 47.25c4.418-7.208 20.772-6.72 24.17-16.433-5.728 8.86-23.075 10.336-24.17 16.433z" style="fill:#e68c00"/><path d="M26.925 34.696s3.624 7.769 4.22 14.369c.985-10.149-4.22-14.37-4.22-14.37zM7.42 41.315s5.272-3.422 11.871-6.245c-7.064.424-11.87 6.245-11.87 6.245zm-3.253-.699s4.142-6.617 11.695-8.542c-10.51-.688-11.696 8.542-11.696 8.542z" style="fill:#ffca25"/><path d="M60.548 41.975c-1.841.222-3.172 6.384-2.012 8.01.162.227 1.11.59 1.815-.845.39-.796 1.513-1.459 1.863-3.098.446-2.101.167-4.29-1.666-4.067zm-23.796 0c1.842.222 3.172 6.384 2.013 8.01-.163.227-1.111.59-1.816-.845-.39-.796-1.514-1.459-1.862-3.098-.448-2.101-.168-4.29 1.665-4.067z" style="fill:#ffc940"/><path d="M60.499 43.155c-.481.15-1.006.884-1.29 2.099 1.68-.36 1.26 2.435-.2 2.487.014.281.032.57.067.874.703-1.02 1.418-.611 2.126-2.129.638-1.368.487-3.704-.703-3.331zM38.091 45.25c-.285-1.213-.808-1.944-1.29-2.096-1.188-.372-1.342 1.964-.703 3.331.708 1.518 1.423 1.11 2.127 2.13.034-.305.054-.595.065-.876-1.444-.068-1.858-2.83-.199-2.488z" style="fill:#f0a429"/><path d="M48.65 30.125c-7.981 0-11.825 6.032-11.345 14.42.096 1.687 1.145 7.191 2.133 9.166 1.012 2.02 4.396 5.135 6.468 5.78 1.31.406 4.178.406 5.487 0 2.073-.645 5.459-3.76 6.47-5.78.99-1.975 2.036-7.477 2.13-9.166.485-8.387-3.36-14.42-11.343-14.42z" style="fill:#ffc940"/><path d="M57.321 41.36c-1.825-.968-5.317-1.015-6.619-.34-.28.129-.094 1.044.14.958 1.812-.718 4.738-.733 6.435.06.227.104.321-.544.044-.679zm-17.341 0c1.824-.968 5.316-1.015 6.619-.34.278.129.094 1.044-.14.958-1.816-.718-4.738-.733-6.437.06-.225.104-.318-.544-.043-.679z" style="fill:#bb7c0a"/><path d="M50.804 49.735c-.228-.159-.762.086-2.154.086-1.39 0-1.925-.245-2.153-.086-.272.192.162 1.058 2.153 1.058 1.993 0 2.428-.866 2.154-1.058z" style="fill:#f0a429"/><path d="M46.874 44.648c.068.53-.29 1.155-1.283 1.625-.63.298-1.944.65-3.667-.078-.772-.326-1.525-1.338-1.457-1.9.935-1.76 5.533-2.018 6.407.353z" style="fill:#fff"/><linearGradient id="e" x1="-1207.501" x2="-1207.501" y1="175.121" y2="174.572" gradientTransform="translate(7977.155 -1104.145) scale(6.5701)" gradientUnits="userSpaceOnUse"><stop offset="0" style="stop-color:#a6694a"/><stop offset="1" style="stop-color:#4f2a1e"/></linearGradient><path d="M43.755 42.81a1.805 1.805 0 1 1 0 3.609 1.806 1.806 0 1 1 0-3.61z" style="fill:url(#e)"/><path d="M42.851 44.58c0 1.25 1.807 1.25 1.807 0 0-1.158-1.807-1.158-1.807 0z" style="fill:#1a1626"/><path d="M42.578 44.074c0 .523.756.523.756 0 0-.484-.757-.484-.757 0z" style="fill:#ab968c"/><path d="M46.883 44.718c-.734-2.354-5.736-2.006-6.416-.423.252-2.028 5.791-2.564 6.416.423z" style="fill:#f0a429"/><path d="M50.426 44.648c-.067.53.29 1.155 1.284 1.625.63.298 1.942.65 3.665-.078.774-.326 1.526-1.338 1.458-1.9-.934-1.76-5.533-2.018-6.407.353z" style="fill:#fff"/><linearGradient id="f" x1="-1208.715" x2="-1208.715" y1="175.121" y2="174.572" gradientTransform="translate(7994.886 -1104.145) scale(6.5701)" gradientUnits="userSpaceOnUse"><stop offset="0" style="stop-color:#a6694a"/><stop offset="1" style="stop-color:#4f2a1e"/></linearGradient><path d="M53.505 42.81a1.806 1.806 0 1 1-1.806 1.803c0-.996.808-1.804 1.806-1.804z" style="fill:url(#f)"/><path d="M52.603 44.58c0 1.25 1.807 1.25 1.807 0 0-1.158-1.807-1.158-1.807 0z" style="fill:#1a1626"/><path d="M52.327 44.074c0 .523.758.523.758 0 0-.484-.758-.484-.758 0z" style="fill:#ab968c"/><path d="M50.418 44.718c.732-2.353 5.731-2.016 6.415-.423-.254-2.028-5.79-2.564-6.415.423z" style="fill:#f0a429"/><path d="m58.15 32.64-1.817 2.2c3.678 2.255 1.62 8.146 3.291 12.438.57-4.281 3.229-13.623-1.474-14.637zm-19.073 1.088 1.816 1.112c-3.677 2.255-1.547 8.147-3.217 12.44-.569-4.283-3.301-12.538 1.4-13.552z" style="fill:#f9a307"/><path d="M56.225 34.217c2.336-.009 2.568 3.808 2.568 3.808s.7-4.346-2.266-4.346l-.302.538zm-16.909 1.885c-.936 2.287-1.267 4.638-1.267 4.638s-.494-1.647.685-4.555l.582-.083z" style="fill:#e68c00"/><path d="M57.156 33.327c1.825-.19 2.268 2.776 2.268 2.776s.25-3.453-2.069-3.22l-.2.444z" style="fill:#e68c00"/><path d="M58.15 32.64s-2.722-4.744-9.537-4.744c-7.398 0-12.062 3.315-12.22 9.734 4.531-4.467 16.467 2.479 21.756-4.99z" style="fill:#ffb80d"/><path d="M58.15 32.64c-.699-2.19-4.41-4.744-9.537-4.744 2.842.2 6.588 1.608 6.974 2.498 0 0-3.931-2.12-9.235-1.19 4.863-.22 8.074 2.871 6.707 2.888-1.331.016-6.276.183-9.21 1.992 1.888-.128 5.614.887 5.444.953-3.757 1.453-11.297-2.004-12.846 2.592 5.824-4.988 16.934 3.047 21.702-4.988z" style="fill:#f9a307"/><path d="M58.15 32.64c-3.888 9.191-21.36-1.087-20.954 6.61-1.783-8.832 15.203 2.06 20.953-6.61z" style="fill:#e68c00"/><path d="M57.085 34.017c-1.849-3.627-7.84-4.931-7.84-4.931s6.264.358 8.327 4.446l-.487.486zm-.949.823c-1.721-1.613-10.022-1.045-10.022-1.045s6.051-1.825 10.679.518l-.657.526z" style="fill:#e68c00"/><path d="M36.763 36.231s.814-6.603 12.164-6.11c-9.331 1.294-12.164 6.11-12.164 6.11z" style="fill:#f9a307"/><path d="M37.465 35.852s4.496-5.884 14.368-4.4c-8.236-.24-14.368 4.4-14.368 4.4zm-.247-2.056s4.936-5.551 13.028-5.458c-9.35-1.243-13.028 5.458-13.028 5.458z" style="fill:#ffca25"/><path d="M48.65 53.202c-1.794-.528-4.456.252-4.456.252 1.014 1.102 1.755 2.535 4.456 2.535 3.094 0 3.62-1.627 4.456-2.535 0 0-2.662-.782-4.456-.252z" style="fill:#f0a429"/><path d="M44.862 53.64c1.882 1.58 5.683 1.588 7.576 0-2.005.086-5.556.086-7.576 0z" style="fill:#fff"/></svg>