<svg xmlns="http://www.w3.org/2000/svg" xml:space="preserve" style="enable-background:new 0 0 64 64" viewBox="0 0 64 64"><path d="m47.892 8.094.184 1.7c3.63.184-2.023 9.397 6.274 9.84-1.522-1.064-2.653-2.316-2.01-6.386.876-5.548-2.212-7.51-4.448-5.154z" style="fill:#805837"/><path d="m47.903 8.815.092 1.211c1-.247 1.411 1.55 1.029 3.87-.684 4.144 1.34 6.258 5.326 5.738-3.27-.94-4.377-2.747-4.001-6.031.52-4.547-1.147-5.522-2.446-4.788z" style="fill:#6e482a"/><path d="M49.348 7.584c3.227.332 2.12 4.378 2.397 7.124.337-2.728.963-7.756-2.397-7.124z" style="fill:#916643"/><path d="M48.465 9.42c2.78 1.217-1.75 8.72 3.476 9.705-4.738-1.888.073-9.43-3.477-9.706z" style="fill:#52351f"/><path d="M48.467 7.996c4.881.504-.25 8.09 4.391 10.714-3.847-3.037 1.173-11.23-4.39-10.714z" style="fill:#6e482a"/><path d="M48.136 7.65c-.94-1.353-.953 3.59-.027 2.447.667.982.523-3.52.026-2.447z" style="fill:#8e3ed6"/><linearGradient id="a" x1="-755.637" x2="-761.859" y1="13.77" y2="13.77" gradientTransform="translate(801.101)" gradientUnits="userSpaceOnUse"><stop offset=".307" style="stop-color:#b88a6f"/><stop offset=".508" style="stop-color:#b3856a"/><stop offset=".733" style="stop-color:#a6785d"/><stop offset=".97" style="stop-color:#8f6247"/><stop offset="1" style="stop-color:#8c5f44"/></linearGradient><path d="M39.242 15.743c.856-.387 1.018.98 1.018 1.43 0 1.424 2.085.68 4.816-1.612-.18-.658.033-2.55.033-2.55 1.694-6.993-3.073-1.61-5.867 2.732z" style="fill:url(#a)"/><path d="M36.629 5.414c-.238.313-.805 2.549-.432 3.6.285.8-.209 1.657-.779 2.279-.247.27-.323.619-.172.82.23.309.62.136.792.37.282.38-.056.618-.055.784 0 0 .989.306.418 1.177.1.099.46-.046.315.664-.097.468.35.943.972.97.654.028 4.188-.299 5.292-4.155.489-1.706-5.103-8.156-6.351-6.509z" style="fill:#b88a6f"/><path d="M35.983 13.268c-.066.463.856.817 1.508.321-1.025.16-1.244-.412-1.508-.322z" style="fill:#a35a3b"/><path d="M36.4 13.767c-.232.165-.217.552 0 .677.447-.105.89-.383 1.091-.855-.511.268-1.09.178-1.09.178z" style="fill:#a35a3b"/><path d="M48.043 7.274c-.785-4.384-4.578-5.632-7.383-5.19-3.076.483-4.908 2.875-4.27 3.94.788 1.318 3.19.129 4.939 4.022.759 1.69 2.46-1.052 3.842.329.825.825 3.355-.407 2.872-3.101z" style="fill:#805837"/><path d="M35.188 11.997c.09.544 1.716.78 1.643-.04-.214.77-1.701-.315-1.643.04z" style="fill:#8c5f44"/><path d="M38.105 9.946c-.31.495-1.03.61-1.03.61-.255-.22-.268-.644-.29-1.015.373-.058 1.32.405 1.32.405z" style="fill:#fff"/><linearGradient id="b" x1="-41.877" x2="-41.877" y1="12.439" y2="11.34" gradientTransform="matrix(.5738 -.061 .1057 .9944 59.787 -4.367)" gradientUnits="userSpaceOnUse"><stop offset="0" style="stop-color:#a6694a"/><stop offset="1" style="stop-color:#4f2a1e"/></linearGradient><path d="M36.758 10.017c.08.755.59.701.51-.054-.076-.701-.585-.647-.51.054z" style="fill:url(#b)"/><path d="M36.82 9.989c.04.356.245.334.207-.022-.036-.33-.242-.309-.206.022z" style="fill:#1a1626"/><path d="M36.943 9.824c.019.178.121.167.102-.01-.017-.165-.12-.154-.102.01z" style="fill:#ab968c"/><path d="M38.105 9.946c-.252-.352-.985-.706-1.28-.69-.178.37-.237.185 1.28.69z" style="fill:#45332c"/><path d="M38.105 9.946c-.934-.67-1.42-.41-1.715-.945.077 1.046.487.533 1.715.945z" style="fill:#1a1626"/><path d="M38.07 8.896c-.406-.354-1.13-.63-1.807-.325-.097.044.035.375.114.34.52-.23 1.038-.155 1.69.224.076.045.084-.168.003-.239z" style="fill:#5e4533"/><path d="M41.329 10.046c-1.126-3.832-4.512-2.62-5.065-4.408.05 1.888 3.468.675 5.065 4.408z" style="fill:#6e482a"/><path d="M36.39 5.638c.935-2.54 6.877-4.592 10.213-1.116C42.795.072 36.64 2.977 36.39 5.638z" style="fill:#916643"/><path d="M36.924 6.018c.656-1.551 4.381-2.965 7.592-1.703-3.749-2.323-7.592.167-7.592 1.703zm.846.508s2.896.432 5.833 1.44c-2.355-2.229-5.834-1.44-5.834-1.44z" style="fill:#916643"/><path d="M37.445 6.264c1.067-.858 3.513-.898 5.9-.441-2.828-1.46-5.384-.725-5.9.441z" style="fill:#916643"/><path d="M48.048 7.276c-.304-1.67-1.035-2.885-1.986-3.725.793.861 1.506 2.015 1.878 4.433-.653-3.205-4.083-4.685-4.083-4.685s3.178 2.301 3.946 5.274c-1.68-3.145-5.844-3.87-5.844-3.87s3.692 1.664 5.684 4.29c-2.359-2.123-6.142-2.729-6.142-2.729s4.394 1.775 5.883 3.333c-3.513-2.257-5.916-1.565-5.25.986 0 0 1.783-1.095 2.855-.023.825.825-1.155 4.137.211 3.247 1.215-.79 3.527-2.798 2.848-6.531z" style="fill:#6e482a"/><path d="M44.913 13.185c2.15-.711 2.776-2.46 2.776-2.46s-.682 1.111-2.776 2.46z" style="fill:#52351f"/><path d="M45.193 11.956c1.52-.04 2.61-1.581 2.61-1.581s-1.348 1.057-2.61 1.58zm.153-1.344c1.232.498 2.457-.451 2.457-.451s-1.34.463-2.457.451zm2.457-.706s-2.501-.284-4.293-1.112c1.715 1.488 4.293 1.112 4.293 1.112z" style="fill:#52351f"/><path d="M42.614 12.169c.124.08.804.206 1.147-.44.19-.358.788-.729.882-1.431.125-.901-2.91 1.295-2.029 1.87z" style="fill:#8c5f44"/><path d="M43.248 8.691c-1.182.24-1.557 2.883-.674 3.459.124.08.772.153 1.115-.494.19-.358.87-.72.966-1.424.124-.9-.232-1.78-1.407-1.54z" style="fill:#b88a6f"/><path d="M43.271 9.166c-.306.108-.585.46-.657.991.51-.133.56.855.112 1.05.036.116.077.234.13.356.37-.489.891-.387 1.215-1.083.294-.628-.038-1.582-.8-1.314z" style="fill:#8c5f44"/><path d="M42.83 32.75s-3.881-.458-7.733-2.398c.913-2.175 2.374-4.62 2.037-5.37-1.753-3.9 1.391-4.215 2.56-6.879.178-.408.293-.626.566-.931.408 1.61 3.41-1.486 4.816-1.611 5.164 4.289-2.043 10.467-2.246 17.19z" style="fill:#8e3ed6"/><path d="M8.298 48.337s-.541.264-.165.416c4.777 1.934 10.428 2.76 10.428 2.76.24-.203.128-.512.128-.512L8.298 48.337z" style="fill:#6e8189"/><path d="M16.299 46.988c-4.692-.18-7.753.02-8.001 1.35C14.224 50.43 18.688 51 18.688 51c1.37-2.45-.302-3.59-2.39-4.013z" style="fill:#99a8ae"/><path d="M11.354 47.024c.765 1.026 1.357 1.29 1.523.682.54.534.937.233.997-.134.606.388.933-.16.262-.932-.387-.413-2.988.108-2.782.384z" style="fill:#1a1626"/><path d="M44.102 34.067s.425-1.94-9.005-3.714c-7.496.38-12.882 1.491-13.698 2.116-1.395 1.067-3.708 7.515-7.263 14.17 1.115 1.936 4.733 4.094 5.225 2.763 1.667-4.512 5.614-10.959 5.614-10.959 9.965-1.062 19.761 2.833 19.127-4.376z" style="fill:#2b4f87"/><path d="M46.075 20.855c-1.723 7.58-2.429 9.959-1.709 16.68 3.123-4.894 1.71-16.68 1.71-16.68z" style="fill:#013366"/><linearGradient id="c" x1="34.492" x2="34.492" y1="42.744" y2="37.657" gradientUnits="userSpaceOnUse"><stop offset="0" style="stop-color:#23212b"/><stop offset=".314" style="stop-color:#32333c"/><stop offset=".939" style="stop-color:#576169"/><stop offset="1" style="stop-color:#5b666e"/></linearGradient><path d="M24.975 37.657H44.01v5.087H24.975z" style="fill:url(#c)"/><path d="M42.92 35.113v14.462h1.453V35.113c0-1.202-.977-2.18-2.18-2.18h-15.4a2.183 2.183 0 0 0-2.181 2.18v14.535h1.454V35.113c0-.4.326-.726.726-.726h15.401c.4 0 .727.326.727.726z" style="fill:#e81c27"/><linearGradient id="d" x1="34.779" x2="34.779" y1="33.236" y2="31.702" gradientUnits="userSpaceOnUse"><stop offset="0" style="stop-color:#23212b"/><stop offset=".314" style="stop-color:#32333c"/><stop offset=".939" style="stop-color:#576169"/><stop offset="1" style="stop-color:#5b666e"/></linearGradient><path d="M41.83 32.214c-3.249-.299-13.468-.68-14.63-.43-.929.198-1.314 1.452-.727 1.452h16.47c1.07 0-.127-.931-1.114-1.022z" style="fill:url(#d)"/><linearGradient id="e" x1="15.311" x2="15.311" y1="56.729" y2="53.538" gradientTransform="rotate(-1.403 -168.287 152.45)" gradientUnits="userSpaceOnUse"><stop offset="0" style="stop-color:#23212b"/><stop offset=".314" style="stop-color:#32333c"/><stop offset=".939" style="stop-color:#576169"/><stop offset="1" style="stop-color:#5b666e"/></linearGradient><path d="M17.323 50.778s-7.166-1.672-8.058-1.48c-.394.083-.722 1.138-.722 1.138l8.435 1.859.345-1.517z" style="fill:url(#e)"/><path d="m16.132 52.699 3.23-8.79a2.171 2.171 0 0 1 2.08-1.529h22.205v1.455H21.445c-.32 0-.6.205-.694.51l-3.232 8.79-1.387-.436z" style="fill:#c30000"/><path d="M24.25 48.921h19.398v1.454H24.25zm20.123-10.478V33.66c0-.824.178-1.891.451-3.058h-1.482c-.255 1.149-.422 2.21-.422 3.058v4.783h1.453z" style="fill:#c30000"/><path d="M23.727 58.004h5.815v.727h-5.815z" style="fill:#4e5e67" transform="rotate(-45.049 26.636 58.37)"/><path d="M26.271 55.46h.726v5.814h-.726z" style="fill:#4e5e67" transform="rotate(-45.001 26.633 58.367)"/><path d="M23.728 58.005h5.813v.725h-5.813z" style="fill:#4e5e67"/><path d="M26.272 55.461h.724v5.812h-.724z" style="fill:#4e5e67"/><linearGradient id="f" x1="26.634" x2="26.634" y1="62" y2="54.734" gradientUnits="userSpaceOnUse"><stop offset="0" style="stop-color:#767f82"/><stop offset=".318" style="stop-color:#8e979b"/><stop offset=".991" style="stop-color:#ccd5da"/><stop offset="1" style="stop-color:#cdd6db"/></linearGradient><path d="M26.591 62a3.637 3.637 0 0 1-3.59-3.676 3.635 3.635 0 0 1 3.675-3.59 3.639 3.639 0 0 1 3.591 3.676A3.636 3.636 0 0 1 26.591 62zm.073-6.132a2.5 2.5 0 1 0-.059 4.998 2.5 2.5 0 0 0 .059-4.998z" style="fill:url(#f)"/><path d="m17.875 52.206-9.59-2.343L8 51.453l9.494 2.261z" style="fill:#1a1626"/><linearGradient id="g" x1="49.866" x2="49.866" y1="22.329" y2="18.895" gradientUnits="userSpaceOnUse"><stop offset="0" style="stop-color:#767f82"/><stop offset=".318" style="stop-color:#8e979b"/><stop offset=".991" style="stop-color:#ccd5da"/><stop offset="1" style="stop-color:#cdd6db"/></linearGradient><path d="m53.217 20.205-6.306-1.302a.365.365 0 0 0-.433.287l-.254 1.295c-.062.322.496.687.768.742.439.09.49-.17.928-.08.44.09.387.351.826.443.44.09.49-.17.93-.079.438.089.387.351.826.44.439.09.49-.17.929-.079.44.092.39.352.83.443.277.058.927-.058.992-.384l.253-1.294a.372.372 0 0 0-.289-.432z" style="fill:url(#g)"/><linearGradient id="h" x1="42.702" x2="46.361" y1="26.846" y2="26.846" gradientUnits="userSpaceOnUse"><stop offset="0" style="stop-color:#23212b"/><stop offset=".314" style="stop-color:#32333c"/><stop offset=".939" style="stop-color:#576169"/><stop offset="1" style="stop-color:#5b666e"/></linearGradient><path d="M42.702 32.737c-.003-1.97 1.285-10.82 1.514-11.96.143-.708 2.278-.278 2.139.428-.224 1.109-1.477 9.656-1.473 11.527.002.732-2.179.723-2.18.005z" style="fill:url(#h)"/><path d="M27.043 57.606c-1.627-1.069-2.529-2.252-2.529-3.77V51.75l-1.57-.002v2.344c0 1.998 1.05 3.361 3.241 4.935 1.002.72 1.926-.72.858-1.421z" style="fill:#c30000"/><path d="M26.627 58.912a.546.546 0 1 1 .014-1.091.546.546 0 0 1-.014 1.091z" style="fill:#1a1626"/><path d="M31.835 49.193h23.623v.908H31.835z" style="fill:#4e5e67" transform="rotate(-44.96 43.642 49.646)"/><path d="M43.192 37.836h.908v23.623h-.908z" style="fill:#4e5e67" transform="rotate(-45.041 43.65 49.65)"/><path d="M31.835 49.194h23.623v.908H31.835z" style="fill:#4e5e67"/><path d="M43.192 37.836h.908v23.623h-.908z" style="fill:#4e5e67"/><linearGradient id="i" x1="43.646" x2="43.646" y1="62" y2="37.294" gradientUnits="userSpaceOnUse"><stop offset="0" style="stop-color:#767f82"/><stop offset=".318" style="stop-color:#8e979b"/><stop offset=".991" style="stop-color:#ccd5da"/><stop offset="1" style="stop-color:#cdd6db"/></linearGradient><path d="M43.647 62c-6.813 0-12.355-5.54-12.355-12.353 0-6.811 5.542-12.353 12.354-12.353C50.46 37.294 56 42.836 56 49.647 56 56.459 50.459 62 43.647 62zm0-22.89c-5.811 0-10.538 4.728-10.538 10.537 0 5.81 4.727 10.537 10.537 10.537 5.81 0 10.538-4.727 10.538-10.537 0-5.81-4.728-10.537-10.537-10.537z" style="fill:url(#i)"/><path d="M43.647 60.547c-6.011 0-10.9-4.888-10.9-10.9 0-6.01 4.889-10.9 10.9-10.9 6.01 0 10.9 4.89 10.9 10.9 0 6.011-4.89 10.9-10.9 10.9zm0-21.073c-5.61 0-10.174 4.564-10.174 10.173 0 5.611 4.563 10.173 10.174 10.173 5.609 0 10.173-4.562 10.173-10.173 0-5.61-4.564-10.173-10.173-10.173z" style="fill:#767f82"/><path d="M43.647 59.094c-5.21 0-9.448-4.238-9.448-9.447s4.24-9.446 9.448-9.446 9.447 4.237 9.447 9.446-4.238 9.447-9.447 9.447zm0-17.803c-4.609 0-8.358 3.748-8.358 8.356 0 4.61 3.75 8.357 8.358 8.357 4.607 0 8.357-3.748 8.357-8.357 0-4.608-3.75-8.356-8.357-8.356z" style="fill:#e81c27"/><path d="M43.647 46.74a2.906 2.906 0 1 1 0 5.813 2.906 2.906 0 0 1 0-5.812z" style="fill:#3b484f"/><path d="M43.647 47.467a2.18 2.18 0 1 1-.002 4.361 2.18 2.18 0 0 1 .002-4.36z" style="fill:#98a7ad"/><path d="M43.647 48.557a1.09 1.09 0 0 1 0 2.18 1.09 1.09 0 0 1 0-2.18z" style="fill:#4e5e67"/><linearGradient id="j" x1="23.715" x2="23.715" y1="52.724" y2="48.317" gradientUnits="userSpaceOnUse"><stop offset="0" style="stop-color:#23212b"/><stop offset=".314" style="stop-color:#32333c"/><stop offset=".939" style="stop-color:#576169"/><stop offset="1" style="stop-color:#5b666e"/></linearGradient><path d="M22.819 48.52v4c0 .267 1.793.277 1.793 0v-4c0-.27-1.793-.272-1.793 0z" style="fill:url(#j)"/><path d="m42.455 39.602-.885-.129c-.173-1.03 1.305-.865 1.993-1.908.89-1.35.574-6.342.865-8.969-.613-1.224-.781-2.54-.781-2.54l3.714-.536c.131.527.371 1.736.391 2.674.049 2.209-1.58 6.142-1.705 9.896-.022.65-.18 2.102-.586 2.692-.559.808-1.824 1.42-2.44.974-1.836.434-.035-1.592-.566-2.154z" style="fill:#a3765a"/><path d="M43.53 41.09s-.16.65-.509.666c.235-.209.508-.666.508-.666zm.935.02s-.21.734-.557.748c.233-.21.557-.748.557-.748zm.697-.301s-.115.68-.463.693c.235-.207.463-.693.463-.693z" style="fill:#8c5f44"/><path d="M42.09 19.548c-.278-2.68 3.127-4.073 3.982-1.641.895 2.539 1.717 8.178 1.717 8.178-1.645 1.068-4.486.964-4.486.964s-1.035-5.773-1.213-7.501z" style="fill:#732eb0"/></svg>