<svg xmlns="http://www.w3.org/2000/svg" xml:space="preserve" viewBox="0 0 64 64"><linearGradient id="a" x1="32" x2="32" y1="28.601" y2="3.001" gradientUnits="userSpaceOnUse"><stop offset="0" style="stop-color:#db0100"/><stop offset=".584" style="stop-color:#f31317"/><stop offset="1" style="stop-color:#ff1c23"/></linearGradient><path fill="url(#a)" d="M31.999 6.865c-4.197-6.819-15.805-4.157-15.807 4.41 0 5.147 4.318 8.784 12.746 15.594 2.858 2.309 3.264 2.31 6.125 0 8.42-6.811 12.742-10.444 12.744-15.597.001-8.563-11.612-11.226-15.808-4.407z"/><path fill="#916B50" d="M29.462 43.123c-1.847.223-3.182 6.404-2.019 8.036.163.227 1.114.591 1.821-.849.391-.798 1.518-1.463 1.869-3.108.447-2.107.167-4.302-1.671-4.079zm-23.87 0c1.848.223 3.182 6.404 2.019 8.036-.163.227-1.114.591-1.822-.849-.39-.798-1.518-1.463-1.868-3.108-.449-2.107-.168-4.302 1.671-4.079z"/><path fill="#69452D" d="M29.412 44.307c-.482.152-1.009.887-1.293 2.106 1.684-.362 1.263 2.442-.201 2.494.014.282.033.572.068.877.705-1.023 1.422-.613 2.132-2.136.64-1.372.488-3.715-.706-3.341zM6.935 46.409c-.286-1.218-.811-1.951-1.293-2.103-1.192-.374-1.347 1.97-.706 3.342.71 1.523 1.428 1.112 2.134 2.136.034-.305.054-.596.065-.878-1.449-.069-1.865-2.839-.2-2.497z"/><path fill="#916B50" d="M17.526 31.237c-8.005 0-11.862 6.051-11.38 14.464.097 1.693 1.149 7.214 2.14 9.195 1.015 2.026 4.409 5.151 6.488 5.798 1.314.407 4.191.407 5.504 0 2.08-.647 5.476-3.771 6.49-5.798.994-1.981 2.043-7.501 2.138-9.195.485-8.413-3.372-14.464-11.38-14.464z"/><path fill="#523C31" d="M26.225 42.506c-1.831-.97-5.334-1.017-6.64-.34-.281.129-.095 1.047.14.961 1.818-.719 4.752-.735 6.456.061.227.102.321-.548.044-.682zm-17.396 0c1.831-.97 5.333-1.017 6.64-.34.279.129.095 1.047-.14.961-1.822-.719-4.752-.735-6.457.061-.226.102-.32-.548-.043-.682z"/><path fill="#69452D" d="M19.687 50.907c-.228-.159-.764.087-2.16.087-1.394 0-1.931-.246-2.159-.087-.274.193.162 1.061 2.159 1.061 1.998.001 2.435-.868 2.16-1.061z"/><path fill="#FFF" d="M15.745 45.805c.068.531-.292 1.158-1.287 1.629-.632.3-1.95.652-3.678-.078-.774-.327-1.53-1.342-1.461-1.906.936-1.765 5.549-2.023 6.426.355z"/><linearGradient id="b" x1="-1212.24" x2="-1212.24" y1="175.298" y2="174.747" gradientTransform="translate(7977.155 -1104.145) scale(6.5701)" gradientUnits="userSpaceOnUse"><stop offset="0" style="stop-color:#a6694a"/><stop offset="1" style="stop-color:#4f2a1e"/></linearGradient><path fill="url(#b)" d="M12.616 43.96a1.811 1.811 0 1 1 0 3.621 1.811 1.811 0 1 1 0-3.621z"/><path fill="#1A1626" d="M11.71 45.737c0 1.253 1.812 1.253 1.812 0 0-1.162-1.812-1.162-1.812 0z"/><path fill="#AB968C" d="M11.435 45.229c0 .525.759.525.759 0 0-.485-.759-.485-.759 0z"/><path fill="#69452D" d="M15.754 45.875c-.736-2.362-5.754-2.012-6.436-.425.252-2.033 5.809-2.571 6.436.425z"/><path fill="#FFF" d="M19.309 45.805c-.068.531.291 1.158 1.287 1.629.632.3 1.948.652 3.677-.078.777-.327 1.531-1.342 1.463-1.906-.938-1.765-5.551-2.023-6.427.355z"/><linearGradient id="c" x1="-1213.45" x2="-1213.45" y1="175.298" y2="174.747" gradientTransform="translate(7994.886 -1104.145) scale(6.5701)" gradientUnits="userSpaceOnUse"><stop offset="0" style="stop-color:#a6694a"/><stop offset="1" style="stop-color:#4f2a1e"/></linearGradient><path fill="url(#c)" d="M22.396 43.96a1.81 1.81 0 1 1 0 3.621 1.811 1.811 0 1 1 0-3.621z"/><path fill="#1A1626" d="M21.492 45.737c0 1.253 1.812 1.253 1.812 0 0-1.162-1.812-1.162-1.812 0z"/><path fill="#AB968C" d="M21.215 45.229c0 .525.76.525.76 0 0-.485-.76-.485-.76 0z"/><path fill="#69452D" d="M19.3 45.875c.734-2.36 5.749-2.022 6.435-.424-.255-2.034-5.809-2.572-6.435.424z"/><path fill="#5C4233" d="m27.056 33.76-1.822 2.205c3.689 2.263 1.625 8.172 3.301 12.478.571-4.295 3.238-13.665-1.479-14.683zM7.923 34.851l1.822 1.115c-3.689 2.263-1.551 8.172-3.227 12.478-.57-4.296-3.311-12.576 1.405-13.593z"/><path fill="#3D2E24" d="M25.125 35.341c2.343-.009 2.576 3.819 2.576 3.819s.703-4.36-2.273-4.36l-.303.541zM8.164 37.233c-.94 2.294-1.272 4.651-1.272 4.651s-.495-1.651.687-4.569l.585-.082z"/><path fill="#3D2E24" d="M26.059 34.448c1.831-.19 2.275 2.784 2.275 2.784s.251-3.463-2.075-3.23l-.2.446z"/><path fill="#6B4D3C" d="M27.055 33.76S24.325 29 17.489 29c-7.421 0-12.1 3.326-12.258 9.765 4.546-4.481 16.519 2.486 21.824-5.005z"/><path fill="#5C4233" d="M27.055 33.76c-.7-2.197-4.422-4.76-9.566-4.76 2.851.201 6.608 1.613 6.995 2.505 0 0-3.943-2.125-9.264-1.193 4.879-.222 8.1 2.88 6.729 2.896-1.336.017-6.296.183-9.238 1.998 1.893-.128 5.631.89 5.461.956-3.769 1.458-11.333-2.01-12.886 2.601 5.841-5.003 16.986 3.058 21.769-5.003z"/><path fill="#3D2E24" d="M27.055 33.76c-3.899 9.219-21.426-1.091-21.018 6.629-1.789-8.858 15.25 2.068 21.018-6.629z"/><path fill="#3D2E24" d="M25.988 35.141c-1.854-3.639-7.865-4.947-7.865-4.947s6.284.359 8.353 4.46l-.488.487zm-.953.824c-1.726-1.617-10.053-1.047-10.053-1.047s6.07-1.831 10.712.519l-.659.528z"/><path fill="#5C4233" d="M5.603 37.362s.817-6.623 12.201-6.128c-9.36 1.297-12.201 6.128-12.201 6.128z"/><path fill="#7A5B49" d="M6.307 36.982s4.51-5.903 14.412-4.414c-8.262-.242-14.412 4.414-14.412 4.414zm-.248-2.063s4.951-5.568 13.068-5.475c-9.379-1.247-13.068 5.475-13.068 5.475z"/><path fill="#69452D" d="M17.526 54.386c-1.8-.53-4.47.252-4.47.252 1.017 1.106 1.761 2.543 4.47 2.543 3.103 0 3.631-1.631 4.47-2.543 0 0-2.67-.785-4.47-.252z"/><path fill="#FFF" d="M13.727 54.825c1.888 1.584 5.7 1.593 7.599 0-2.011.086-5.573.086-7.599 0z"/><path fill="#916B50" d="M58.409 43.123c-1.847.223-3.182 6.404-2.019 8.036.163.227 1.114.591 1.821-.849.391-.798 1.518-1.463 1.869-3.108.447-2.107.168-4.302-1.671-4.079zm-23.87 0c1.848.223 3.182 6.404 2.019 8.036-.163.227-1.114.591-1.822-.849-.39-.798-1.518-1.463-1.868-3.108-.449-2.107-.168-4.302 1.671-4.079z"/><path fill="#69452D" d="M58.359 44.307c-.482.152-1.009.887-1.293 2.106 1.684-.362 1.263 2.442-.201 2.494.014.282.033.572.068.877.705-1.023 1.422-.613 2.132-2.136.64-1.372.488-3.715-.706-3.341zm-22.477 2.102c-.286-1.218-.811-1.951-1.293-2.103-1.192-.374-1.347 1.97-.706 3.342.71 1.523 1.428 1.112 2.134 2.136.034-.305.054-.596.065-.878-1.449-.069-1.865-2.839-.2-2.497z"/><path fill="#916B50" d="M46.473 31.237c-8.005 0-11.862 6.051-11.38 14.464.097 1.693 1.149 7.214 2.14 9.195 1.015 2.026 4.409 5.151 6.488 5.798 1.314.407 4.191.407 5.504 0 2.08-.647 5.476-3.771 6.49-5.798.994-1.981 2.043-7.501 2.138-9.195.485-8.413-3.372-14.464-11.38-14.464z"/><path fill="#523C31" d="M55.172 42.506c-1.831-.97-5.334-1.017-6.64-.34-.281.129-.095 1.047.14.961 1.818-.719 4.752-.735 6.456.061.227.102.321-.548.044-.682zm-17.396 0c1.831-.97 5.333-1.017 6.64-.34.279.129.095 1.047-.14.961-1.822-.719-4.752-.735-6.457.061-.226.102-.319-.548-.043-.682z"/><path fill="#69452D" d="M48.634 50.907c-.228-.159-.764.087-2.16.087-1.394 0-1.931-.246-2.159-.087-.274.193.162 1.061 2.159 1.061 1.999.001 2.435-.868 2.16-1.061z"/><path fill="#FFF" d="M44.692 45.805c.068.531-.292 1.158-1.287 1.629-.632.3-1.95.652-3.678-.078-.774-.327-1.53-1.342-1.461-1.906.937-1.765 5.549-2.023 6.426.355z"/><linearGradient id="d" x1="-1207.834" x2="-1207.834" y1="175.298" y2="174.747" gradientTransform="translate(7977.155 -1104.145) scale(6.5701)" gradientUnits="userSpaceOnUse"><stop offset="0" style="stop-color:#a6694a"/><stop offset="1" style="stop-color:#4f2a1e"/></linearGradient><path fill="url(#d)" d="M41.563 43.96a1.811 1.811 0 1 1 0 3.621 1.811 1.811 0 1 1 0-3.621z"/><path fill="#1A1626" d="M40.657 45.737c0 1.253 1.812 1.253 1.812 0 0-1.162-1.812-1.162-1.812 0z"/><path fill="#AB968C" d="M40.382 45.229c0 .525.759.525.759 0 0-.485-.759-.485-.759 0z"/><path fill="#69452D" d="M44.701 45.875c-.736-2.361-5.754-2.012-6.436-.424.252-2.034 5.809-2.572 6.436.424z"/><path fill="#FFF" d="M48.256 45.805c-.068.531.291 1.158 1.287 1.629.632.3 1.948.652 3.677-.078.777-.327 1.531-1.342 1.463-1.906-.938-1.765-5.551-2.023-6.427.355z"/><linearGradient id="e" x1="-1209.044" x2="-1209.044" y1="175.298" y2="174.747" gradientTransform="translate(7994.886 -1104.145) scale(6.5701)" gradientUnits="userSpaceOnUse"><stop offset="0" style="stop-color:#a6694a"/><stop offset="1" style="stop-color:#4f2a1e"/></linearGradient><path fill="url(#e)" d="M51.344 43.96a1.81 1.81 0 1 1 0 3.621 1.811 1.811 0 1 1 0-3.621z"/><path fill="#1A1626" d="M50.439 45.737c0 1.253 1.812 1.253 1.812 0 0-1.162-1.812-1.162-1.812 0z"/><path fill="#AB968C" d="M50.162 45.229c0 .525.76.525.76 0 0-.485-.76-.485-.76 0z"/><path fill="#69452D" d="M48.247 45.875c.734-2.36 5.749-2.022 6.435-.424-.255-2.034-5.808-2.572-6.435.424z"/><path fill="#5C4233" d="m56.003 33.76-1.822 2.205c3.689 2.263 1.625 8.172 3.301 12.478.571-4.295 3.238-13.665-1.479-14.683zm-19.132 1.091 1.822 1.115c-3.689 2.263-1.551 8.172-3.227 12.478-.571-4.296-3.312-12.576 1.405-13.593z"/><path fill="#3D2E24" d="M54.072 35.341c2.343-.009 2.576 3.819 2.576 3.819s.703-4.36-2.273-4.36l-.303.541zm-16.961 1.892c-.94 2.294-1.272 4.651-1.272 4.651s-.495-1.651.687-4.569l.585-.082z"/><path fill="#3D2E24" d="M55.006 34.448c1.831-.19 2.275 2.784 2.275 2.784s.251-3.463-2.075-3.23l-.2.446z"/><path fill="#6B4D3C" d="M56.002 33.76S53.272 29 46.436 29c-7.421 0-12.1 3.326-12.258 9.765 4.546-4.481 16.519 2.486 21.824-5.005z"/><path fill="#5C4233" d="M56.002 33.76c-.7-2.197-4.422-4.76-9.566-4.76 2.851.201 6.608 1.613 6.995 2.505 0 0-3.943-2.125-9.264-1.193 4.879-.222 8.1 2.88 6.729 2.896-1.336.017-6.296.183-9.238 1.998 1.893-.128 5.631.89 5.461.956-3.769 1.458-11.333-2.01-12.886 2.601 5.841-5.003 16.986 3.058 21.769-5.003z"/><path fill="#3D2E24" d="M56.002 33.76c-3.899 9.219-21.426-1.091-21.018 6.629-1.789-8.858 15.25 2.068 21.018-6.629z"/><path fill="#3D2E24" d="M54.935 35.141c-1.854-3.639-7.865-4.947-7.865-4.947s6.284.359 8.353 4.46l-.488.487zm-.953.824c-1.726-1.617-10.053-1.047-10.053-1.047s6.07-1.831 10.712.519l-.659.528z"/><path fill="#5C4233" d="M34.55 37.362s.817-6.623 12.201-6.128c-9.36 1.297-12.201 6.128-12.201 6.128z"/><path fill="#7A5B49" d="M35.254 36.982s4.51-5.903 14.412-4.414c-8.261-.242-14.412 4.414-14.412 4.414zm-.248-2.063s4.951-5.568 13.068-5.475c-9.378-1.247-13.068 5.475-13.068 5.475z"/><path fill="#69452D" d="M46.474 54.386c-1.8-.53-4.47.252-4.47.252 1.017 1.106 1.761 2.543 4.47 2.543 3.103 0 3.631-1.631 4.47-2.543-.001 0-2.671-.785-4.47-.252z"/><path fill="#FFF" d="M42.674 54.825c1.888 1.584 5.7 1.593 7.599 0-2.011.086-5.573.086-7.599 0z"/></svg>