<svg xmlns="http://www.w3.org/2000/svg" xml:space="preserve" style="enable-background:new 0 0 64 64" viewBox="0 0 64 64"><path d="M43.134 58H20.866v2.566c0 1.755 22.268 1.755 22.268 0V58z" style="fill:#2b4f87"/><path d="M45.255 31.724c-1.272-1.646-7.428-3.658-7.428-3.658H26.173s-6.156 2.012-7.428 3.658c-2.08 2.69-2.809 8.43-2.809 8.43l4.93 4.93V58h22.268V45.084l4.93-4.93s-.729-5.74-2.809-8.43z" style="fill:#3ab0a2"/><path d="M26.169 28.085c0 4.888 11.658 4.87 11.658-.019l-1.168-.413h-9.27l-1.22.432z" style="fill:#2b998d"/><path d="M27.003 27.79c0 3.826 9.994 3.826 9.994 0v-4.233h-9.994v4.233z" style="fill:#f5bb51"/><path d="m35.896 52.721-7.792.013s-4.09 1.33-4.937 2.415c-1.014 1.298-1.559 4.332-1.781 5.889 3.005 1.283 18.24 1.282 21.232-.002-.215-1.558-.748-4.59-1.76-5.89-.85-1.09-4.962-2.425-4.962-2.425z" style="fill:#8feaff"/><path d="M28.104 52.734c0 3.241 7.792 3.23 7.792-.013l-.782-.274H28.92l-.815.287z" style="fill:#67dbf5"/><path d="M28.661 52.538c0 2.538 6.679 2.538 6.679 0V49.73h-6.68v2.807z" style="fill:#f5bb51"/><path d="m25.132 61.722-.298-.029c0-3.68.298-3.652.298.029zm14.034-.029-.299.029c0-3.68.3-3.71.3-.029z" style="fill:#67dbf5"/><path d="M38.001 53.545s-.313-.117-1.094-.466c1-.939 2.192.082 3.293-1.36 1.934-2.53 2.067-4.03 2.934-6.452 0 0-.358-1.282-.08-3.227 2.521-.497 4.875-1.75 4.875-1.75s.135 4.85.135 4.953c0 3.209-3.776 6.268-5.055 8.37-.629 1.03-1.52 2.676-1.76 2.925-2.084 2.138-4.223 1.956-4.797 1.405-2.289-.235 2.518-3.252 1.549-4.398z" style="fill:#f5bb51"/><path d="M38.618 56.176s-1.209 1.476-2.166 1.767c1.12-.072 2.166-1.767 2.166-1.767zm1.312.046s-1.505 1.783-2.462 2.075c1.119-.073 2.463-2.075 2.463-2.075zm.73.236s-1.048 1.415-2.007 1.707c1.12-.072 2.006-1.707 2.006-1.707z" style="fill:#f0a429"/><path d="M25.999 53.545s.313-.117 1.094-.466c-1-.939-2.192.082-3.293-1.36-1.934-2.53-2.066-4.03-2.934-6.452 0 0 .358-1.282.08-3.227-2.521-.497-4.875-1.75-4.875-1.75s-.135 4.85-.135 4.953c0 3.209 3.776 6.268 5.055 8.37.63 1.03 1.52 2.676 1.76 2.925 2.084 2.138 4.223 1.956 4.797 1.405 2.289-.235-2.518-3.252-1.549-4.398z" style="fill:#f5bb51"/><path d="M25.382 56.176s1.209 1.476 2.166 1.767c-1.12-.072-2.166-1.767-2.166-1.767zm-1.312.046s1.505 1.783 2.462 2.075c-1.119-.073-2.463-2.075-2.463-2.075zm-.73.236s1.048 1.415 2.007 1.707c-1.12-.072-2.006-1.707-2.006-1.707z" style="fill:#f0a429"/><path d="M42.096 13.946c-1.563.189-2.692 5.417-1.708 6.797.138.192.943.5 1.54-.718.331-.675 1.284-1.237 1.58-2.628.38-1.783.143-3.64-1.412-3.45zm-20.191 0c1.563.189 2.692 5.417 1.708 6.797-.138.192-.943.5-1.541-.718-.33-.675-1.284-1.237-1.58-2.628-.38-1.783-.142-3.64 1.413-3.45z" style="fill:#ffc940"/><path d="M42.054 14.947c-.408.128-.853.75-1.094 1.781 1.425-.306 1.068 2.066-.17 2.11.012.239.027.484.057.742.596-.865 1.203-.518 1.804-1.806.54-1.161.413-3.143-.597-2.827zm-19.013 1.779c-.242-1.03-.686-1.65-1.094-1.78-1.008-.315-1.139 1.667-.597 2.827.6 1.288 1.208.941 1.805 1.807.029-.258.046-.504.055-.743-1.225-.058-1.577-2.4-.169-2.111z" style="fill:#f0a429"/><path d="M32 3.892c-6.771 0-10.034 5.118-9.626 12.234.082 1.432.972 6.102 1.81 7.778.859 1.714 3.73 4.357 5.488 4.904 1.112.345 3.545.345 4.656 0 1.759-.547 4.631-3.19 5.489-4.904.84-1.676 1.728-6.345 1.808-7.778C42.036 9.011 38.773 3.892 32 3.892z" style="fill:#ffc940"/><path d="M39.358 13.424c-1.549-.821-4.512-.86-5.616-.288-.238.11-.08.886.118.812 1.538-.608 4.02-.621 5.46.052.193.087.273-.462.038-.576zm-14.715 0c1.549-.821 4.511-.86 5.617-.288.236.11.08.886-.119.812-1.54-.608-4.02-.621-5.462.052-.19.087-.27-.462-.036-.576z" style="fill:#bb7c0a"/><path d="M33.828 20.53c-.193-.134-.646.073-1.828.073-1.178 0-1.633-.207-1.826-.073-.232.164.137.898 1.826.898 1.691 0 2.06-.734 1.828-.898z" style="fill:#f0a429"/><path d="M30.494 16.215c.057.448-.247.98-1.09 1.378-.534.253-1.648.55-3.11-.066-.655-.276-1.295-1.136-1.237-1.612.793-1.494 4.695-1.712 5.437.3z" style="fill:#fff"/><linearGradient id="a" x1="-1209.922" x2="-1209.922" y1="170.753" y2="170.286" gradientTransform="translate(7977.155 -1104.145) scale(6.5701)" gradientUnits="userSpaceOnUse"><stop offset="0" style="stop-color:#a6694a"/><stop offset="1" style="stop-color:#4f2a1e"/></linearGradient><path d="M27.847 14.654a1.533 1.533 0 1 1-1.534 1.53c0-.845.686-1.53 1.534-1.53z" style="fill:url(#a)"/><path d="M27.08 16.157c0 1.06 1.533 1.06 1.533 0 0-.983-1.533-.983-1.533 0z" style="fill:#1a1626"/><path d="M26.848 15.727c0 .444.642.444.642 0 0-.41-.642-.41-.642 0z" style="fill:#ab968c"/><path d="M30.5 16.273c-.622-1.997-4.866-1.702-5.443-.359.213-1.72 4.914-2.175 5.444.36z" style="fill:#f0a429"/><path d="M33.508 16.215c-.058.448.246.98 1.088 1.378.535.253 1.648.55 3.11-.066.657-.276 1.295-1.136 1.238-1.612-.793-1.494-4.695-1.712-5.436.3z" style="fill:#fff"/><linearGradient id="b" x1="-1211.361" x2="-1211.361" y1="170.753" y2="170.286" gradientTransform="translate(7994.886 -1104.145) scale(6.5701)" gradientUnits="userSpaceOnUse"><stop offset="0" style="stop-color:#a6694a"/><stop offset="1" style="stop-color:#4f2a1e"/></linearGradient><path d="M36.12 14.654a1.532 1.532 0 1 1 .002 3.064 1.532 1.532 0 0 1-.002-3.064z" style="fill:url(#b)"/><path d="M35.354 16.157c0 1.06 1.533 1.06 1.533 0 0-.983-1.533-.983-1.533 0z" style="fill:#1a1626"/><path d="M35.12 15.727c0 .444.643.444.643 0 0-.41-.643-.41-.643 0z" style="fill:#ab968c"/><path d="M33.5 16.273c.621-1.996 4.863-1.71 5.443-.359-.215-1.72-4.913-2.175-5.443.36z" style="fill:#f0a429"/><path d="M40.061 6.026 38.52 7.892c3.12 1.913 1.374 6.912 2.792 10.554.483-3.633 2.74-11.56-1.25-12.42zm-16.183.923 1.54.943c-3.12 1.914-1.312 6.913-2.73 10.555-.482-3.634-2.8-10.638 1.19-11.498z" style="fill:#f9a307"/><path d="M38.428 7.364c1.982-.008 2.179 3.23 2.179 3.23s.594-3.687-1.923-3.687l-.256.457zM24.081 8.963c-.795 1.94-1.076 3.935-1.076 3.935s-.419-1.397.582-3.865l.494-.07z" style="fill:#e68c00"/><path d="M39.217 6.608c1.55-.16 1.925 2.355 1.925 2.355s.212-2.929-1.755-2.732l-.17.377z" style="fill:#e68c00"/><path d="M40.06 6.026S37.751 2 31.97 2c-6.278 0-10.235 2.813-10.37 8.26 3.845-3.79 13.973 2.103 18.46-4.234z" style="fill:#ffb80d"/><path d="M40.06 6.026C39.468 4.168 36.32 2 31.97 2c2.41.17 5.589 1.365 5.916 2.12 0 0-3.335-1.798-7.836-1.01 4.127-.187 6.851 2.437 5.692 2.45-1.13.015-5.326.155-7.815 1.69 1.601-.108 4.763.754 4.62.809-3.188 1.234-9.586-1.7-10.9 2.2 4.94-4.233 14.367 2.585 18.413-4.233z" style="fill:#f9a307"/><path d="M40.06 6.026c-3.298 7.798-18.123-.922-17.778 5.608-1.513-7.494 12.9 1.748 17.778-5.608z" style="fill:#e68c00"/><path d="M39.157 7.194C37.59 4.117 32.505 3.01 32.505 3.01s5.315.304 7.066 3.772l-.414.412zm-.805.697c-1.46-1.367-8.503-.885-8.503-.885s5.134-1.55 9.06.439l-.557.446z" style="fill:#e68c00"/><path d="M21.915 9.073s.69-5.603 10.32-5.184c-7.917 1.098-10.32 5.184-10.32 5.184z" style="fill:#f9a307"/><path d="M22.51 8.751s3.815-4.993 12.19-3.734c-6.987-.204-12.19 3.734-12.19 3.734zm-.21-1.745s4.188-4.71 11.055-4.63C25.42 1.32 22.3 7.005 22.3 7.005z" style="fill:#ffca25"/><path d="M32 23.472c-1.522-.448-3.78.214-3.78.214.86.935 1.489 2.15 3.78 2.15 2.625 0 3.072-1.38 3.781-2.15 0 0-2.259-.664-3.78-.214z" style="fill:#f0a429"/><path d="M28.787 23.844c1.596 1.34 4.821 1.347 6.427 0-1.7.073-4.714.073-6.427 0z" style="fill:#fff"/><path d="M29.729 32.237c.14-.152.365-.372.628-.44-.558-.071-1.168.047-1.618.391a.514.514 0 0 1-.095-.533c-.635.407-.722.831-.722.831-.216-.241-.26-.581-.26-.581s-.678.498-.513 1.115c-.667-.173-1.18.155-1.18.155s.326.083.502.307c1.045.132 3.307-.637 3.258-1.245z" style="fill:#f9a307"/><path d="M23.442 42.108c1.065.13 1.834 3.73 1.165 4.68-.094.133-.644.344-1.05-.494-.226-.464-.876-.852-1.078-1.81-.258-1.226-.097-2.505.963-2.376z" style="fill:#ffc940"/><path d="M23.47 42.798c.279.088.582.516.747 1.226-.972-.21-.73 1.422.115 1.453a7.103 7.103 0 0 1-.039.51c-.406-.595-.82-.356-1.23-1.243-.368-.8-.28-2.163.408-1.946z" style="fill:#f0a429"/><path d="M40.557 42.108c-1.065.13-1.835 3.73-1.164 4.68.094.133.643.344 1.05-.494.226-.464.875-.852 1.077-1.81.258-1.226.097-2.506-.963-2.376z" style="fill:#ffc940"/><path d="M39.783 44.022c.165-.709.467-1.136.745-1.223.689-.22.776 1.146.407 1.945-.409.887-.822.648-1.229 1.244a7.096 7.096 0 0 1-.038-.512c.835-.04 1.075-1.653.115-1.454z" style="fill:#f0a429"/><path d="M32 32.858c-5.822 0-8.627 4.405-8.275 10.529.07 1.232.834 4.047 1.556 5.489 1.274 2.545 4.6 4.443 6.719 4.443 2.118 0 5.447-1.898 6.72-4.443.722-1.442 1.485-4.257 1.555-5.49.352-6.123-2.453-10.528-8.275-10.528z" style="fill:#ffc940"/><path d="M33.357 46.828c-.144-.1-.481.054-1.357.054s-1.214-.154-1.358-.054c-.172.122.102.669 1.358.669s1.53-.547 1.357-.669zM32 48.78c-1.313-.386-3.258.184-3.258.184.74.807 1.283 1.853 3.258 1.853 2.261 0 2.647-1.189 3.258-1.853 0 0-1.947-.572-3.258-.184z" style="fill:#f0a429"/><path d="M29.23 49.1c1.376 1.155 4.155 1.162 5.54 0a81.084 81.084 0 0 1-5.54 0zm1.514-5.268c.048.374-.205.817-.907 1.148-.446.212-1.374.46-2.592-.054-.546-.23-1.078-.948-1.03-1.345.66-1.245 3.911-1.427 4.53.251z" style="fill:#fff"/><linearGradient id="c" x1="-424.079" x2="-424.079" y1="475.403" y2="475.791" gradientTransform="matrix(6.5701 0 0 -6.5701 2814.782 3168.527)" gradientUnits="userSpaceOnUse"><stop offset="0" style="stop-color:#a6694a"/><stop offset="1" style="stop-color:#4f2a1e"/></linearGradient><circle cx="28.539" cy="43.807" r="1.277" style="fill:url(#c)"/><path d="M27.9 43.783c0 .884 1.277.884 1.277 0 0-.82-1.277-.82-1.277 0z" style="fill:#1a1626"/><path d="M27.706 43.426c0 .37.536.37.536 0 0-.344-.536-.344-.536 0z" style="fill:#ab968c"/><path d="M30.75 43.881c-.518-1.667-4.054-1.421-4.535-.3.177-1.434 4.094-1.814 4.536.3z" style="fill:#f0a429"/><path d="M33.256 43.832c-.049.374.205.817.907 1.148.445.212 1.373.46 2.592-.054.546-.23 1.078-.948 1.03-1.345-.66-1.245-3.912-1.427-4.53.251z" style="fill:#fff"/><linearGradient id="d" x1="-425.729" x2="-425.729" y1="475.403" y2="475.791" gradientTransform="matrix(6.5701 0 0 -6.5701 2832.512 3168.527)" gradientUnits="userSpaceOnUse"><stop offset="0" style="stop-color:#a6694a"/><stop offset="1" style="stop-color:#4f2a1e"/></linearGradient><path d="M35.432 42.53a1.278 1.278 0 1 1 .001 2.555 1.278 1.278 0 0 1 0-2.555z" style="fill:url(#d)"/><path d="M34.795 43.783c0 .884 1.277.884 1.277 0 0-.82-1.277-.82-1.277 0z" style="fill:#1a1626"/><path d="M34.6 43.426c0 .37.535.37.535 0 0-.344-.535-.344-.535 0z" style="fill:#ab968c"/><path d="M33.25 43.881c.517-1.666 4.051-1.427 4.536-.3-.18-1.434-4.095-1.814-4.537.3z" style="fill:#f0a429"/><path d="M37.868 41.842c-1.099-.694-3.312-.895-4.178-.54-.186.067-.125.648.03.606 1.194-.358 3.05-.224 4.078.355.138.076.237-.324.07-.421zm-11.738 0c1.1-.694 3.312-.895 4.18-.54.184.067.124.648-.03.606-1.197-.358-3.05-.224-4.08.356-.137.075-.236-.325-.07-.422z" style="fill:#bb7c0a"/><path d="M28.539 32.736c-4.207.19-7.657 6.452-4.457 12.753 0 0 .257-5.493 2.575-7.132a8.374 8.374 0 0 1-.402 1.768s2.275-.36 4.279-1.638c-.234 1.145-.86 1.964-.86 1.964s4.137-.577 5.365-2.524c0 0 .811 1.705 2.817 2.934 0 0 .125-1.279-.151-2.184 1.966 1.935 2.198 6.803 2.198 6.803 4.148-9.1-3.976-16.723-11.364-12.744z" style="fill:#f9a307"/><path d="M28.88 32.927c-.125.682-.1 1.41-.1 1.41s-.404-.706-.326-1.28c-.877.677-2.08 2.019-2.08 2.019s.572-1.005 1.211-1.739c-4.229 1.237-5.065 6.47-4.048 9.261.49-2.601 1.85-4.684 4.17-6.221 0 0-.093 1.89-.923 2.924 2.453-.422 4.541-2.349 4.491-4.288.45 1.801.372 3.348-.642 4.777 2.078-.213 4.442-2.088 4.535-3.786.427 1.698.936 2.879 2.276 3.782 0-1.84-.908-3.56-.908-3.56s2.688 1.711 3.738 6.857c1.704-9.474-6.115-12.57-10.904-10.552 1.128.05 1.742.302 1.742.302s-1.266-.114-2.231.094z" style="fill:#ffb80d"/><path d="m37.41 37.69.357 1.227s1.681 2.228 2.136 6.563c.21-4.686-2.494-7.79-2.494-7.79zm-2.276.194-.092.268s.723 1.797 2.814 2.709c-1.694-1.071-2.722-2.977-2.722-2.977z" style="fill:#e68c00"/><path d="M35.312 36.857c.336 3.133-5.639 3.594-5.639 3.594s5.198-1.019 5.639-3.594zm-4.266.99c-1.037 1.96-4.791 2.278-4.791 2.278s2.902-.67 4.79-2.278zm-4.047.101c-2.676 3.134-2.917 7.54-2.917 7.54s-.706-4.732 2.917-7.54z" style="fill:#e68c00"/><path d="M40.274 43.083c.323-2.632-1.862-6.594-1.862-6.594s3.19 2.619 1.862 6.594z" style="fill:#f9a307"/><path d="M39.72 37.417c-3.48-6.228-9.355-5.045-9.355-5.045s6.84-1.834 9.355 5.045zm-12.213 1.451c2.577-2.075 2.166-4.983 2.166-4.983s1.327 3.134-2.166 4.983z" style="fill:#ffca25"/><path d="M36.792 38.38c-.649-2.164-2.053-4.495-2.053-4.495s1.905 1.504 2.053 4.495zm2.359.488c-.915-2.065-2.86-4.475-2.86-4.475s2.338 1.526 2.86 4.475zm-12.859-4.475c-2.145 2.587-2.666 5.772-2.666 5.772s-.349-3.913 2.666-5.772zm5.303 4.849c1.646-2.68.272-5.277.272-5.277s2.182 2.524-.273 5.277z" style="fill:#ffca25"/><path d="M30.633 39.79c3.827-1.136 3.2-4.84 3.2-4.84s1.323 4.79-3.2 4.84z" style="fill:#f9a307"/></svg>