<svg xmlns="http://www.w3.org/2000/svg" xml:space="preserve" style="enable-background:new 0 0 64 64" viewBox="0 0 64 64"><path d="M21.204 28.207h22.867v11.458H21.204z" style="fill:#1a1714"/><path d="M46.49 26.19c1.008-4.867 1.33-9.95.073-14.094 0 0-2.719 2.07-3.755 11.667-1.444 13.385 3.043 20.301 7.638 12.428-4.588 2.42-5.5-2.55-3.956-10z" style="fill:#473e35"/><path d="m45.806 22.675-3.517 1.358c-3.41 11.97 4.336 21.772 9.387 12.081-5.646 4.544-9.584-.36-5.87-13.439z" style="fill:#382e26"/><linearGradient id="a" x1="29.985" x2="29.985" y1="63.999" y2="35.264" gradientUnits="userSpaceOnUse"><stop offset="0" style="stop-color:#484258"/><stop offset=".594" style="stop-color:#4a445a"/><stop offset=".808" style="stop-color:#504b60"/><stop offset=".96" style="stop-color:#5c566a"/><stop offset="1" style="stop-color:#605b6e"/></linearGradient><path d="M50.591 41.132c-2.43-1.357-11.775-5.868-11.775-5.868H26.754s-7.545 2.217-9.004 2.925c-3.354 1.628-6.35 3.243-6.839 10.651-2.502.622-5.83 2.248-5.838 3.576-.01 2.46 2.983 8.87 5.334 9.526 5.283 1.477 7.462-5.707 7.462-5.707s.245 1.988.245 3.568c0 6.976 36.782 4.057 36.782-.142 0-2.547-.784-16.564-4.305-18.529z" style="fill:url(#a)"/><path d="M38.88 35.491c0 5.388-12.484 5.388-12.484 0v-5.96H38.88v5.96z" style="fill:#484258"/><path d="M.815 28.509c-1.04-1.155-.863-4.048-.632-4.649.415-1.08 1.962-3.268 2.535-4.03.279-.37 1.008.988.58 1.53-.603.765-1.7 2.816-1.624 3.466.157 1.355-.116 4.507-.859 3.683zm4.679 24.404c-1.214-3.697-.42-8.501-2.68-16.87-.53-1.961 5.54-2.56 5.588-1.128.259 7.788 2.882 8.539 4.092 14.43-.724 1.829-5.739 4.608-7 3.568z" style="fill:#5e4c3b"/><path d="M2.813 36.043c-.215-1.02-1.969-2.85-2.719-5.57-.413-1.5 1.185-2.912 2.086-2.155 3.118 2.618 2.176-5.581 2.79-4.719 1.155 1.625 3.18 4.683 3.305 6.09.111 1.246.796 4.62-.141 5.68-1.227 1.389-5.111 1.665-5.32.674z" style="fill:#5e4c3b"/><path d="m3.813 15.71-1.912.443c-.65-1.237-1.05-2.78-.798-3.82.308-1.277 2.117-1.98 2.742.297.378 1.374-.032 3.08-.032 3.08z" style="fill:#302c3b"/><path d="m2.268 16.068-.186.043s-.903-1.418-.914-3.144c.328 2.022 1.1 3.101 1.1 3.101z" style="fill:#1a1626"/><path d="m2.484 16.018-.186.043s-.802-1.868-.813-3.594c.328 2.022.999 3.55.999 3.55zm.554.703-.186.043s-.801-1.867-.813-3.593c.329 2.022 1 3.55 1 3.55z" style="fill:#1a1626"/><linearGradient id="b" x1="-378.294" x2="-375.552" y1="-986.004" y2="-986.004" gradientTransform="scale(1 -1) rotate(9.997 -5761.57 1668.7)" gradientUnits="userSpaceOnUse"><stop offset="0" style="stop-color:#9be022"/><stop offset=".267" style="stop-color:#91d422"/><stop offset=".747" style="stop-color:#78b423"/><stop offset="1" style="stop-color:#69a123"/></linearGradient><path d="M1.133 8.964s1.74-.182 2.715 3.545c.22.84-.734-1.017-.802-.097-.03.392-.677-.878-.915-.066-.16.543-.494-.87-.962.018-.41.777.507-2.203-.036-3.4z" style="fill:url(#b)"/><path d="M3.91 29.319c-.572-3.37-1.16-8.077-1.752-11.562.726-1.241 1.938-.385 1.938-.385.592 3.485 1.594 8.138 2.162 11.481.502 2.952.253 5.367-.283 5.473-.536.107-1.563-2.055-2.064-5.007z" style="fill:#7d625a"/><linearGradient id="c" x1="975.885" x2="975.885" y1="-475.228" y2="-473.242" gradientTransform="scale(1 -1) rotate(-80.003 762.05 334.232)" gradientUnits="userSpaceOnUse"><stop offset="0" style="stop-color:#b3c2c6"/><stop offset=".213" style="stop-color:#aebdc1"/><stop offset=".479" style="stop-color:#a0adb2"/><stop offset=".771" style="stop-color:#889499"/><stop offset="1" style="stop-color:#717b80"/></linearGradient><path d="m3.813 15.709.283 1.663a6.817 6.817 0 0 0-1.938.385l-.282-1.663a6.818 6.818 0 0 1 1.938-.385z" style="fill:url(#c)"/><linearGradient id="d" x1="976.217" x2="976.507" y1="-474.238" y2="-474.238" gradientTransform="scale(1 -1) rotate(-80.003 762.05 334.232)" gradientUnits="userSpaceOnUse"><stop offset="0" style="stop-color:#717b80"/><stop offset=".229" style="stop-color:#889499"/><stop offset=".521" style="stop-color:#a0adb2"/><stop offset=".787" style="stop-color:#aebdc1"/><stop offset="1" style="stop-color:#b3c2c6"/></linearGradient><path d="M4.074 17.015c-.009-.05-.034-.09-.057-.089a5.876 5.876 0 0 0-1.932.384c-.021.008-.032.055-.023.105.009.05.033.084.054.075a5.89 5.89 0 0 1 1.932-.383c.023 0 .034-.042.026-.092z" style="fill:url(#d)"/><linearGradient id="e" x1="975.85" x2="976.139" y1="-474.236" y2="-474.236" gradientTransform="scale(1 -1) rotate(-80.003 762.05 334.232)" gradientUnits="userSpaceOnUse"><stop offset="0" style="stop-color:#717b80"/><stop offset=".229" style="stop-color:#889499"/><stop offset=".521" style="stop-color:#a0adb2"/><stop offset=".787" style="stop-color:#aebdc1"/><stop offset="1" style="stop-color:#b3c2c6"/></linearGradient><path d="M4.012 16.654c-.008-.05-.034-.09-.056-.09a5.879 5.879 0 0 0-1.932.384c-.021.008-.032.055-.024.105.009.05.033.084.055.075a5.877 5.877 0 0 1 1.931-.383c.023 0 .035-.042.026-.091z" style="fill:url(#e)"/><path d="M3.43 31.63c0 .97-2.942.083-3.294-.969-.495-1.474.485-4.367.985-4.773 1.62-1.318 3.844-1.116 4.526-1.294.526-.137.399 1.245-.276 1.387-.954.202-2.503.93-2.693 1.556-.395 1.306.752 3.08.752 4.094z" style="fill:#5e4c3b"/><path d="M2.037 30.958c0 .97-1.528.021-1.88-1.03-.495-1.475.296-5.087.796-5.493 1.621-1.318 3.34-1.75 3.966-2.071.484-.248.66 1.128.032 1.414-.888.403-2.538 1.768-2.728 2.394-.395 1.306-.186 3.773-.186 4.786z" style="fill:#5e4c3b"/><path d="M.341 28.267C-.4 26.901.448 24.13.813 23.6c.656-.953 2.672-2.718 3.406-3.325.358-.296.75 1.195.207 1.622-.765.603-2.311 2.34-2.39 2.99-.163 1.355-1.165 4.356-1.695 3.381z" style="fill:#5e4c3b"/><path d="M45.773 16.407c-2.038.248-3.509 7.088-2.228 8.893.18.253 1.23.655 2.008-.939.431-.882 1.675-1.618 2.06-3.437.495-2.332.187-4.763-1.84-4.517zm-26.322 0c2.038.248 3.51 7.088 2.227 8.893-.179.253-1.23.655-2.008-.939-.43-.882-1.675-1.618-2.06-3.437-.495-2.332-.186-4.764 1.841-4.517z" style="fill:#735c48"/><path d="M45.717 17.72c-.53.167-1.11.98-1.426 2.33 1.858-.4 1.394 2.702-.22 2.76.013.311.035.633.073.97.778-1.132 1.568-.677 2.351-2.364.706-1.519.54-4.11-.778-3.696zm-24.786 2.324c-.315-1.346-.893-2.159-1.424-2.324-1.317-.416-1.485 2.178-.78 3.697.783 1.687 1.573 1.232 2.353 2.364.038-.338.06-.66.072-.972-1.598-.078-2.055-3.143-.22-2.765z" style="fill:#4a3728"/><path d="M32.612 3.255c-8.829 0-13.08 7.208-12.55 16.477.11 1.863.626 4.551 1.264 6.853 1.324 4.787 8.31 9.607 11.286 9.607 2.974 0 9.961-4.82 11.286-9.607.638-2.303 1.155-4.99 1.264-6.853.53-9.269-3.72-16.477-12.55-16.477z" style="fill:#735c48"/><path d="M32.61 28.668c-2.069-.913-2.085-.037-5.279.177 1.2 1.365 2.082 3.12 5.278 3.12 3.67 0 4.29-1.993 5.283-3.12-3.198-.214-3.21-1.09-5.282-.177z" style="fill:#472b27"/><path d="M28.29 29.186c2.085 2.175 6.583 2.147 8.642.001-3.21.345-5.43.345-8.642 0z" style="fill:#fff"/><path d="M41.992 16.65c-1.918-1.148-5.359-1.288-6.719-.506-.289.157-.212.985.038.882 1.942-.81 4.9-.85 6.723.086.244.124.25-.297-.042-.463zm-18.762 0c1.917-1.148 5.357-1.288 6.721-.506.29.157.211.985-.039.882-1.943-.81-4.898-.852-6.723.086-.245.124-.25-.297.04-.463z" style="fill:#302b27"/><path d="M34.596 25.726c-.21-.148-.703.08-1.985.08-1.28 0-1.774-.227-1.984-.08-.252.177.15.98 1.984.98 1.835 0 2.238-.8 1.985-.98z" style="fill:#4a3728"/><path d="M30.647 20.125c.075.586-.322 1.281-1.42 1.801-.697.331-2.148.721-4.055-.086-.854-.36-1.687-1.487-1.612-2.108 1.033-1.954 6.12-2.24 7.087.393z" style="fill:#fff"/><linearGradient id="f" x1="-1213.156" x2="-1213.156" y1="171.265" y2="170.655" gradientTransform="translate(7997.75 -1103.139) scale(6.5701)" gradientUnits="userSpaceOnUse"><stop offset="0" style="stop-color:#a6694a"/><stop offset="1" style="stop-color:#4f2a1e"/></linearGradient><path d="M27.196 18.082c1.104 0 1.998.897 1.998 2.004s-.895 2.004-1.998 2.004c-1.104 0-1.999-.897-1.999-2.004s.895-2.004 2-2.004z" style="fill:url(#f)"/><path d="M26.197 20.05c0 1.386 2 1.386 2 0 0-1.288-2-1.288-2 0z" style="fill:#1a1626"/><path d="M25.893 19.487c0 .581.838.581.838 0 0-.538-.838-.538-.838 0z" style="fill:#ab968c"/><path d="M30.657 20.202c-.812-2.615-6.344-2.229-7.097-.47.28-2.252 6.405-2.846 7.097.47z" style="fill:#45332c"/><path d="M34.576 20.125c-.075.586.322 1.281 1.42 1.801.697.331 2.148.721 4.055-.086.856-.36 1.687-1.487 1.612-2.108-1.032-1.954-6.12-2.24-7.087.393z" style="fill:#fff"/><linearGradient id="g" x1="-1214.213" x2="-1214.213" y1="171.265" y2="170.655" gradientTransform="translate(8015.48 -1103.139) scale(6.5701)" gradientUnits="userSpaceOnUse"><stop offset="0" style="stop-color:#a6694a"/><stop offset="1" style="stop-color:#4f2a1e"/></linearGradient><ellipse cx="37.982" cy="20.086" rx="1.999" ry="2.004" style="fill:url(#g)"/><path d="M36.984 20.05c0 1.386 2 1.386 2 0 0-1.288-2-1.288-2 0z" style="fill:#1a1626"/><path d="M36.68 19.487c0 .581.838.581.838 0 0-.538-.838-.538-.838 0z" style="fill:#ab968c"/><path d="M34.567 20.202c.81-2.614 6.34-2.24 7.096-.47-.28-2.252-6.405-2.846-7.096.47z" style="fill:#45332c"/><path d="M42.35 14.468c.903 2.135 2.02 5.195 2.157 7.558 1.371-2.787 1.492-5.467 1.228-7.558H42.35z" style="fill:#473e35"/><path d="M42.35 14.468c.903 2.135 2.02 5.195 2.157 7.558.69-2.97.268-5.593-.376-7.558H42.35z" style="fill:#382e26"/><path d="M42.043 14.468c1.207 2.273 2.085 5.093 2.464 7.558.161-2.182-.414-5.082-1.454-7.558h-1.01z" style="fill:#1a1714"/><path d="M24.399 14.364h-6.028c-5.021 10.88 4.207 24.64-3.284 22.214 3.233 3.493 9.145 2.73 7.59-6.413-1.252-7.358.708-13.345 1.722-15.8z" style="fill:#473e35"/><path d="M27.067 14.364h-5.634c-.728 1.292-3.352 6.725-1.653 15.367 1.372 6.981-1.95 9.938-6.298 6.934 4.467 6.696 11.577 3.775 9.527-7.135-1.485-7.9 2.916-13.795 4.058-15.166z" style="fill:#382e26"/><path d="M28.724 14.364h-1.89c-2.495 2.223-5.704 9.253-3.757 15.543-1.091-7.782 2.355-13.203 5.647-15.543z" style="fill:#1a1714"/><path d="M21.039 11.905s-6.685 7.719-1.865 19.458C16.666 20.59 21.04 11.905 21.04 11.905z" style="fill:#574f45"/><path d="M21.257 20.233c-2.237 9.208 2.576 15.033-1.774 17.906 5.837-.946.608-8.593 1.774-17.906z" style="fill:#1a1714"/><linearGradient id="h" x1="15.909" x2="47.604" y1="13.185" y2="13.185" gradientUnits="userSpaceOnUse"><stop offset="0" style="stop-color:#8a0000"/><stop offset=".036" style="stop-color:#8f0000"/><stop offset=".309" style="stop-color:#b10000"/><stop offset=".568" style="stop-color:#ca0100"/><stop offset=".805" style="stop-color:#d90100"/><stop offset="1" style="stop-color:#de0100"/></linearGradient><path d="M47.395 12.24c-4.869-2.46-10.309-2.46-15.338-2.46-5.032 0-10.424 1.651-15.477 2.866-.62 1.272-.67 3.944-.67 3.944 5.266-1.404 10.48-2.114 16.008-2.114s10.137.71 15.405 2.114c0 0 .58-2.709.072-4.35z" style="fill:url(#h)"/><linearGradient id="i" x1="25.02" x2="27.706" y1="1.343" y2="1.343" gradientUnits="userSpaceOnUse"><stop offset="0" style="stop-color:red"/><stop offset=".401" style="stop-color:#e30000"/><stop offset="1" style="stop-color:#bd0100"/></linearGradient><path d="m26 2.685 1.707-.768c-.597-3.99-4.462-.752-1.707.768z" style="fill:url(#i)"/><linearGradient id="j" x1="31.905" x2="31.905" y1="20.291" y2=".123" gradientUnits="userSpaceOnUse"><stop offset="0" style="stop-color:#bd0100"/><stop offset=".599" style="stop-color:#e30000"/><stop offset="1" style="stop-color:red"/></linearGradient><path d="M51.244 9.64c-2.538 6.614-8.095-.202-18.153.885-12.92 1.397-20.665 11.69-20.665 9.448 0-7.84 3.989-18.63 23.76-19.793C50.283-.648 51.97 7.745 51.244 9.64z" style="fill:url(#j)"/><path d="M63.266 53.633c-2.284-1.258-5.682 1.606-6.88.282-1.247-1.378 4.14-2.137 2.742-4.691l-6.31 5.763-22.557 1.13c0 5.516 10.26 8.456 17.815 7.79 13.989-1.239 17.712-8.884 15.19-10.274z" style="fill:#ab6a22"/><linearGradient id="k" x1="47.091" x2="47.091" y1="63.367" y2="46.956" gradientTransform="translate(0 .163)" gradientUnits="userSpaceOnUse"><stop offset="0" style="stop-color:#e38a47"/><stop offset=".294" style="stop-color:#eba053"/><stop offset="1" style="stop-color:#fdd36f"/></linearGradient><path d="M63.186 53.38c-2.285-1.259-5.75 1.552-6.948.228-1.246-1.378 5.265-2.76 2.279-5.007-1.491-1.123-9.682-2.182-15.992-.887-7.623 1.564-12.839 5.282-12.22 8.792.852 4.83 10.216 7.592 17.77 6.925 13.99-1.238 17.633-8.661 15.111-10.05zm-16.16-1.292c-.545-1.937 5.854-2.666 6.4-.73.546 1.936-5.853 2.666-6.4.73z" style="fill:url(#k)"/><path d="M31.79 52.702c-.565.596-.988 1.211-1.244 1.835 4.5 1.152 14.919 7.657 13.901 8.222-1.027.57-7.106-1.87-13.948-5.55.568 1.57 2.056 2.893 4.066 3.917 1.666-.247 4.996.651 8.597 2.283 1.653.15 3.324.163 4.914.023.55-.05 1.078-.11 1.597-.177-4.02-2.197-14.668-8.347-17.883-10.553zm1.877-1.557c3.938 2.25 15.02 8.986 14.347 9.36-.2.112-.728.026-1.51-.219 1.695.949 3.274 1.866 4.722 2.733a31.219 31.219 0 0 0 2.947-.654c-3.326-1.905-5.635-3.5-5.293-3.69.355-.197 3.43 1.189 7.027 3.15.242-.085.48-.173.711-.263l-20.88-11.605a17.66 17.66 0 0 0-2.071 1.188zm18.24 1.767a7.306 7.306 0 0 1-1.874.309 221.92 221.92 0 0 1 9.702 5.101c.461.257.908.51 1.356.762.404-.32.765-.641 1.08-.963 0 0-6.885-2.51-10.264-5.209zM41.79 49.963c.375-.208 2.32.495 5.211 1.816a.834.834 0 0 1 .098-.31c-2-.81-4.35-1.914-6.796-3.218a28.473 28.473 0 0 0-2.97.996c5.188 2.883 15.709 8.883 20.49 11.801.5-.23.966-.469 1.399-.715-5.663-2.616-18.124-9.985-17.432-10.37zm21.259 7.104c.41-.59.675-1.155.796-1.664a203.943 203.943 0 0 1-3.675-2.121c-.984.246-1.944.605-2.712.677l5.59 3.108zm-9.623-5.709a.82.82 0 0 1 .019.37l2.638 1.467c.043-.466.767-.943 1.52-1.462-3.532-2.177-5.919-3.87-6.376-4.554a41.464 41.464 0 0 0-2.68-.056c1.56 1 2.439 1.67 2.257 1.771-.21.117-1.805-.56-4.106-1.706a35.22 35.22 0 0 0-1.248.097l5.283 2.937c1.292.006 2.473.353 2.693 1.136z" style="opacity:.2;fill:#d48142"/><path d="M53.44 51.539c.023-2.202-6.619-1.57-6.445.278.84-1.41 5.614-1.797 6.445-.278z" style="fill:#ab6a22"/><path d="M43.559 50.387c-.492-.43-7.23.083-7.675.773-.676 1.046.932.846 1.535 1.293.637.473 2.838.05 3.916.05 1.439 0 1.152-.678 1.743-.816 1.065-.247 1.012-.835.48-1.3z" style="opacity:.15;fill:#9c4900"/><radialGradient id="l" cx="68.477" cy="-419.342" r="3.919" fx="68.463" fy="-416.536" gradientTransform="matrix(.9582 -.0472 -.1047 -.3735 -69.514 -102.645)" gradientUnits="userSpaceOnUse"><stop offset="0" style="stop-color:#ff562b"/><stop offset=".211" style="stop-color:#fd5229"/><stop offset=".429" style="stop-color:#f84523"/><stop offset=".651" style="stop-color:#ef3118"/><stop offset=".874" style="stop-color:#e3140a"/><stop offset="1" style="stop-color:#db0000"/></radialGradient><path d="M43.559 50.27c-.58-.22-.76-.633-1.248-.635-1.403-.005-1.757-.404-2.584-.14-1.218.388-1.552.324-2.232.462-.999.203-1.289.471-1.611 1.085-.56 1.066.932.846 1.535 1.294.637.473 2.838.05 3.916.05 1.439 0 1.152-.68 1.743-.817 1.065-.247 1.311-.985.48-1.3z" style="fill:url(#l)"/><path d="M61.825 55.861c.345-.653-1.135-.872-2.66-.93-1.827-.068-1.816.359-3.12.51-.979.115-1.017.74-1.036 1.309-.015.47.712.47.86.91.123.368.953.33 1.655.504 1.82.45 2.175-.355 3.095-.507 1.101-.182.305-.639.937-.904.614-.258.092-.554.27-.892z" style="opacity:.15;fill:#9c4900"/><radialGradient id="m" cx="87.495" cy="-432.851" r="3.642" fx="87.481" fy="-430.243" gradientTransform="matrix(.9007 -.1449 -.3216 -.3511 -159.65 -83.085)" gradientUnits="userSpaceOnUse"><stop offset="0" style="stop-color:#ffa200"/><stop offset=".263" style="stop-color:#ff9e00"/><stop offset=".535" style="stop-color:#ff9100"/><stop offset=".81" style="stop-color:#ff7d00"/><stop offset="1" style="stop-color:#ff6a00"/></radialGradient><path d="M61.825 55.708c.345-.653-1.135-.873-2.66-.93-1.827-.068-1.816.359-3.12.51-.979.115-1.017.74-1.036 1.309-.015.47.712.47.86.91.123.368.953.33 1.655.504 1.82.45 2.175-.355 3.095-.507 1.101-.182.305-.64.937-.904.614-.258.092-.555.27-.892z" style="fill:url(#m)"/><path d="M55.545 58.496c-1.265-.457-6.546.474-6.313 1.725.193 1.042 1.889.954 3.48.943 1.51-.011 2.139-.784 3.185-.834.978-.046 1.176-1.281-.352-1.834z" style="opacity:.15;fill:#9c4900"/><radialGradient id="n" cx="63.203" cy="-352.815" r="3.698" fx="63.189" fy="-350.167" gradientTransform="matrix(.9231 -.1489 -.2355 -.3551 -88.57 -56.686)" gradientUnits="userSpaceOnUse"><stop offset="0" style="stop-color:#f20fea"/><stop offset=".247" style="stop-color:#ee0fe6"/><stop offset=".503" style="stop-color:#e10eda"/><stop offset=".763" style="stop-color:#cd0dc6"/><stop offset="1" style="stop-color:#b30bad"/></radialGradient><path d="M55.545 58.346c-1.511-.578-1.34-.34-2.39-.452-1.523-.164-1.429.32-2.929.59-.994.179-1.193.904-.994 1.586.3 1.035 1.889.954 3.48.943 1.51-.01 2.139-.784 3.185-.833.978-.047 1.149-1.26-.352-1.834z" style="fill:url(#n)"/><path d="M43.928 62.522c.506.568 1.404.137 2.09.23 1.17.156 1.948-.22 1.931-.638-.023-.581.98-1.147.269-1.479-.702-.327-.41-.754-1.476-1.176-1.324-.525-3.23-.837-4.542-.092-1.105.627.076 1.187-.095 1.902-.143.6 1.525.918 1.823 1.253z" style="opacity:.15;fill:#9c4900"/><radialGradient id="o" cx="666.532" cy="-682.451" r="3.957" fx="666.518" fy="-679.618" gradientTransform="matrix(-.7555 -.3268 .4598 -.2814 862.445 86.335)" gradientUnits="userSpaceOnUse"><stop offset="0" style="stop-color:#a7ff19"/><stop offset=".209" style="stop-color:#a3fc18"/><stop offset=".426" style="stop-color:#96f414"/><stop offset=".647" style="stop-color:#82e70e"/><stop offset=".868" style="stop-color:#65d406"/><stop offset="1" style="stop-color:#50c700"/></radialGradient><path d="M43.928 62.393c.506.569 1.404.137 2.09.23 1.17.156 1.948-.22 1.931-.637-.023-.582.98-1.148.269-1.48-.702-.326-.41-.754-1.476-1.176-1.324-.524-3.23-.837-4.542-.092-1.105.628.076 1.187-.095 1.902-.143.6 1.525.918 1.823 1.253z" style="fill:url(#o)"/><path d="M39.803 55.14c.696-.61-.723-1.086-1.738-1.539-1.115-.498-4.492-.312-5.333.633-.501.563-.72 1.818 1.742 1.863 1.118.02 1.406.474 3.262.228 2.35-.31 1.34-.546 2.067-1.184z" style="opacity:.15;fill:#9c4900"/><radialGradient id="p" cx="142.586" cy="-579.769" r="3.953" fx="142.571" fy="-576.938" gradientTransform="matrix(.9173 .1592 .1658 -.3668 1.74 -180.693)" gradientUnits="userSpaceOnUse"><stop offset="0" style="stop-color:#00a2ff"/><stop offset=".201" style="stop-color:#009efb"/><stop offset=".41" style="stop-color:#0294ee"/><stop offset=".622" style="stop-color:#0481da"/><stop offset=".835" style="stop-color:#0768bd"/><stop offset="1" style="stop-color:#0a50a1"/></radialGradient><path d="M39.803 55.026c.696-.612-.723-1.086-1.738-1.54-1.115-.497-4.492-.311-5.333.633-.501.563-.72 1.818 1.742 1.864 1.118.02 1.406.473 3.262.228 2.35-.311 1.34-.547 2.067-1.185z" style="fill:url(#p)"/><path d="M35.179 57.587c-2.304.672-1.273 1.517-1.286 2.102-.008.428 1.044.935 2.934.685 1.261-.166 1.532.275 2.874-.346 1.048-.485 2.062-1.45.704-2.225-1.393-.794-3.035-.855-5.226-.216z" style="opacity:.15;fill:#9c4900"/><radialGradient id="q" cx="72.656" cy="-270.213" r="3.444" fx="72.643" fy="-267.747" gradientTransform="matrix(.9043 -.2179 -.4852 -.3895 -159.613 -30.921)" gradientUnits="userSpaceOnUse"><stop offset="0" style="stop-color:#ffeb7d"/><stop offset=".174" style="stop-color:#ffea79"/><stop offset=".354" style="stop-color:#ffe56c"/><stop offset=".537" style="stop-color:#ffde58"/><stop offset=".722" style="stop-color:#ffd43b"/><stop offset=".907" style="stop-color:#ffc716"/><stop offset="1" style="stop-color:#ffbf00"/></radialGradient><path d="M40.43 57.663c-1.393-.794-3.034-.855-5.226-.215-2.303.671-1.273 1.516-1.285 2.102-.009.427 1.043.934 2.934.685 1.26-.167 1.532.275 2.873-.346 1.048-.486 2.063-1.451.704-2.226z" style="fill:url(#q)"/><path d="M52.663 52.083c-.93-.917-2.783-.074-3.531.744-.97 1.06 1.014 2.347 1.821 1.595.883-.822 2.338-1.72 1.71-2.339z" style="fill:#5e4c3b"/></svg>