<svg xmlns="http://www.w3.org/2000/svg" xml:space="preserve" style="enable-background:new 0 0 64 64" viewBox="0 0 64 64"><linearGradient id="a" x1="-583.738" x2="-581.585" y1="-265.139" y2="-265.139" gradientTransform="rotate(45.001 -681.374 609.774)" gradientUnits="userSpaceOnUse"><stop offset="0" style="stop-color:#ecf1f5"/><stop offset=".272" style="stop-color:#e1e7eb"/><stop offset=".742" style="stop-color:#c5ccd0"/><stop offset="1" style="stop-color:#b3babf"/></linearGradient><path d="M7.838 61.685a1.077 1.077 0 1 1-1.523-1.523 1.077 1.077 0 0 1 1.523 1.523z" style="fill:url(#a)"/><linearGradient id="b" x1="-126.056" x2="-125.514" y1="125.22" y2="125.22" gradientTransform="rotate(45.001 39.985 262.461)" gradientUnits="userSpaceOnUse"><stop offset=".085" style="stop-color:#cfd8dd"/><stop offset=".891" style="stop-color:#a0aeb4"/><stop offset="1" style="stop-color:#99a8ae"/></linearGradient><path d="m28.747 39.76-.51-.51S15.16 52.337 11.047 56.44c-.247.25.262.76.512.51 4.123-4.119 17.188-17.19 17.188-17.19z" style="fill:url(#b)"/><linearGradient id="c" x1="-126.155" x2="-125.434" y1="136.288" y2="136.288" gradientTransform="rotate(45.001 39.985 262.461)" gradientUnits="userSpaceOnUse"><stop offset="0" style="stop-color:#ff000e"/><stop offset=".234" style="stop-color:#fa000d"/><stop offset=".501" style="stop-color:#ec000a"/><stop offset=".784" style="stop-color:#d60005"/><stop offset="1" style="stop-color:#bf0000"/></linearGradient><path d="M16.686 51.822c-.167.17-.647-.368-.514-.5l-8.773 8.77c-.17.17.34.68.511.508 1.005-1.003 8.776-8.778 8.776-8.778z" style="fill:url(#c)"/><linearGradient id="d" x1="-99.193" x2="-97.083" y1="82.143" y2="82.143" gradientTransform="rotate(35 37.278 263.879)" gradientUnits="userSpaceOnUse"><stop offset="0" style="stop-color:#5b666e"/><stop offset=".3" style="stop-color:#525a64"/><stop offset=".839" style="stop-color:#3c3b49"/><stop offset="1" style="stop-color:#343040"/></linearGradient><path d="M28.77 40.01c-.211.237-1.023-.571-.784-.782 1.394-1.231 2.724-2.51 3.924-3.923.971-1.053 1.84-.187.785.782-1.416 1.2-2.694 2.53-3.925 3.923z" style="fill:url(#d)"/><linearGradient id="e" x1="38.47" x2="30.575" y1="33.883" y2="30.39" gradientUnits="userSpaceOnUse"><stop offset="0" style="stop-color:#8c5f44"/><stop offset=".118" style="stop-color:#96694e"/><stop offset=".398" style="stop-color:#a97b60"/><stop offset=".688" style="stop-color:#b4866b"/><stop offset="1" style="stop-color:#b88a6f"/></linearGradient><path d="M38.733 25.759c-1.668 1.646-5.963 6.604-6.44 7.17-.46.549-1.982 1.924-2.13 2.44-.477 1.64-.946 1.995-.891 2.687l.935-.906s.553-.704.906-.504c-.927 1.287-.308 2.18.004 1.677.803-1.298 1.543-1.88 1.53-2.94-.004-.43.697-1.084.996-1.36 2.167-2.01 4.34-3.24 5.174-4.035 0 0-.052-4.297-.084-4.23z" style="fill:url(#e)"/><path d="M33.022 34.683c.209.017.853-.635.62-.66-2.558-.291-2.747.158-3.011.66 0 0 .688-.143 2.39 0z" style="fill:#302c3b"/><path d="M34.528 60.3c.233.087.083 1.7-1.17 1.7h-2.876c-2.053 0-3.974-.736-5.126-1.877-1.103-1.093-1.682-1.85-1.164-2.529 5.235 1.956 9.977 2.574 10.336 2.706zm-3.168-3.565c1.003.427-.162 2.319-3.903 1.26 2.814-.197 3.722-1.337 3.903-1.26z" style="fill:#6e8189"/><path d="M34.224 57.732c.173.293.527 1.532.304 2.568-1.211 1.087-2.64.157-4.06.572-3.146.919-6.643-2.62-6.267-3.299.62-1.117 1.232 1.204 6.554.047 1.917-.417 3.299-.18 3.47.112z" style="fill:#99a8ae"/><path d="M29.92 57.452c.221.857.712.658.491-.197-.018-.072-.51.125-.49.197zm-.69.25c.183.706.668.554.486-.151-.015-.06-.501.091-.485.15zm-.687.142c.08.56.582.447.501-.112-.007-.047-.508.065-.502.112zm-.666.09c.037.458.5.398.462-.06-.002-.039-.465.021-.462.06z" style="fill:#1a1626"/><path d="M57.264 55.7c.226-.101 1.272 1.144.385 2.023l-2.033 2.014C54.164 61.175 52.28 62 50.65 62c-1.56 0-2.51-.13-2.628-.973 5.098-2.284 8.893-5.168 9.24-5.326zm-4.786-.301c1.014-.4 1.54 1.753-1.86 3.624 1.85-2.11 1.677-3.552 1.86-3.624z" style="fill:#6e8189"/><path d="M55.216 54.098c.33.086 1.465.714 2.048 1.603-.082 1.617-1.756 1.96-2.464 3.249-1.568 2.852-6.567 2.8-6.785 2.056-.36-1.224 1.73-.012 4.668-4.558 1.057-1.637 2.203-2.438 2.533-2.35z" style="fill:#99a8ae"/><path d="M51.972 56.914c.768.451.973-.033.206-.483-.064-.038-.27.446-.206.483zm-.309.66c.632.372.868-.076.235-.447-.054-.031-.289.416-.236.447zm-.385.582c.456.34.73-.091.274-.43-.038-.028-.313.402-.274.43zm-.407.53c.354.298.638-.068.284-.367-.03-.025-.313.342-.284.367z" style="fill:#1a1626"/><linearGradient id="f" x1="40.222" x2="46.4" y1="14.064" y2="14.064" gradientUnits="userSpaceOnUse"><stop offset="0" style="stop-color:#8c5f44"/><stop offset=".03" style="stop-color:#8f6247"/><stop offset=".267" style="stop-color:#a6785d"/><stop offset=".492" style="stop-color:#b3856a"/><stop offset=".693" style="stop-color:#b88a6f"/></linearGradient><path d="M46.4 11.806c-1.548-3.902-3.431.063-6.178 4.292.842-.377 1.021.667 1.021 1.104 0 1.388 2.261.692 4.946-1.54-.601-1.236.211-3.856.211-3.856z" style="fill:url(#f)"/><path d="M47.003 31.766c-8.4-1.227-8.376 2.775-8.376 2.775 1.231 6.002 4.02 13.297 5.03 14.543.846 1.041 5.38 4.57 8.315 7.83 2.054-.915 5.502-1.41 4.501-2.33-3.808-3.505-7.768-8.959-7.768-8.959-2.791-4.418-2.94-9.705-1.702-13.86z" style="fill:#2a4178"/><path d="M47.003 31.766s-5.337-2.568-7.318 2.238c-.679 4.633-4.668 9.125-5.367 10.58-.762 1.59-1.96 8.651-3.85 12.187.802 2.308 3.746 4.222 4.198 3.122 2.164-5.27 5.218-13.057 5.218-13.057 5.991-8.127 9.462-7.69 7.119-15.07z" style="fill:#2b4f87"/><path d="M47.229 32.205s-4.054.166-8.602 2.416c-.56-2.392.502-7.12-.394-8.455-2.026-3.021.758-5.396 2.313-7.709.212-.316.41-1.017.698-1.255.768 1.48 3.572-1.11 4.945-1.54 4.628 5.077-2.05 9.015 1.04 16.543z" style="fill:#8e3ed6"/><path d="M52.168 25.817c-.183-.502-1.218-2.333-2.262-4.13a63.201 63.201 0 0 0-3.5 1.816c1.02 1.364 2.07 2.813 2.625 3.709.18 2.477 1.03 4.95.75 7.856-.128 1.26-.992.501-1.71 3.141-.114.414.862.36 1.18-.592.987.399-1.1 3.639.4 3.045.543.156 1.932-.422 2.507-2.422.092-.323.144-2.747.078-3.07-.252-1.247.258-8.468-.068-9.353z" style="fill:#b88a6f"/><path d="M50.402 38.865s-.254 1.307-.75 1.797c.67-.406.75-1.797.75-1.797zm.83-.395s-.333 1.593-.83 2.084c.67-.407.83-2.083.83-2.083zm.533-.09s-.174 1.218-.67 1.709c.67-.406.67-1.708.67-1.708z" style="fill:#8c5f44"/><path d="M50.997 23.07s-1.784-3.08-3.701-5.58c-1.67-2.179-5.117.142-3.667 2.479 1.482 2.385 3.542 5.292 3.542 5.292s2.476-1.566 3.826-2.19z" style="fill:#732eb0"/><path d="m49.731 9.338-.588 1.6c2.674 4.34-3.201 8.02 4.549 12.238-2.563-3.469 2-10.443-3.96-13.838z" style="fill:#805837"/><path d="m49.731 9.338-.588 1.6c2.674 4.34-3.201 8.02 4.549 12.238-6.313-4.052-.209-8.052-3.96-13.838z" style="fill:#6e482a"/><path d="m49.143 10.473-.21.465c2.38 4.394-2.991 8.02 4.759 12.238-7.61-5.14-1.443-7.122-4.549-12.703z" style="fill:#52351f"/><path d="M49.343 9.027c-.922-1.828-2.745 2.22-.47 2.094.716 1.29 2.067-2.882.47-2.094z" style="fill:#8e3ed6"/><path d="M37.205 5.508c-.244.322-.827 2.62-.444 3.699.292.824-.215 1.704-.8 2.342-.255.277-.332.636-.177.843.236.317.637.14.814.38.289.39-.058.635-.057.806 0 0 1.016.314.43 1.209.102.102.473-.047.323.682-.099.481.36.97 1 .997.671.03 4.302-.307 5.437-4.27.502-1.752-5.244-8.38-6.526-6.688z" style="fill:#b88a6f"/><path d="M36.54 13.578c-.067.477.88.84 1.55.33-1.053.166-1.278-.423-1.55-.33z" style="fill:#a35a3b"/><path d="M36.97 14.091c-.239.17-.223.567 0 .696.459-.108.915-.394 1.12-.878-.525.275-1.12.182-1.12.182z" style="fill:#a35a3b"/><path d="M48.933 7.42c-.807-4.505-4.704-5.788-7.586-5.334-3.161.497-5.043 2.955-4.388 4.05.81 1.353 3.278.132 5.075 4.132.78 1.736 2.529-1.081 3.948.338.848.848 3.447-.418 2.951-3.186z" style="fill:#805837"/><path d="M35.724 12.272c.093.56 1.763.802 1.688-.04-.22.79-1.748-.324-1.688.04z" style="fill:#8c5f44"/><path d="M38.72 10.166c-.317.508-1.058.626-1.058.626-.261-.227-.274-.661-.296-1.043.383-.06 1.355.417 1.355.417z" style="fill:#fff"/><linearGradient id="g" x1="-40.907" x2="-40.907" y1="12.736" y2="11.607" gradientTransform="matrix(.5738 -.061 .1057 .9944 59.787 -4.367)" gradientUnits="userSpaceOnUse"><stop offset="0" style="stop-color:#a6694a"/><stop offset="1" style="stop-color:#4f2a1e"/></linearGradient><path d="M37.337 10.238c.083.776.607.72.524-.055-.078-.72-.601-.666-.524.055z" style="fill:url(#g)"/><path d="M37.402 10.21c.04.365.25.342.211-.023-.036-.34-.247-.317-.211.022z" style="fill:#1a1626"/><path d="M37.527 10.04c.02.182.125.171.105-.01-.018-.17-.123-.159-.105.01z" style="fill:#ab968c"/><path d="M38.721 10.166c-.259-.363-1.012-.727-1.315-.709-.183.38-.243.19 1.315.709z" style="fill:#45332c"/><path d="M38.72 10.166c-.958-.69-1.457-.422-1.76-.972.078 1.075.5.548 1.76.972z" style="fill:#1a1626"/><path d="M38.686 9.086c-.418-.364-1.162-.646-1.857-.334-.1.045.036.386.116.35.535-.236 1.068-.16 1.738.23.078.046.086-.173.003-.246z" style="fill:#5e4533"/><path d="M42.034 10.268c-1.157-3.937-4.636-2.692-5.205-4.53.052 1.94 3.564.694 5.205 4.53z" style="fill:#6e482a"/><path d="M36.96 5.739c.96-2.61 7.065-4.72 10.493-1.147C43.541.02 37.217 3.004 36.96 5.739z" style="fill:#916643"/><path d="M37.508 6.13c.673-1.595 4.502-3.048 7.801-1.75-3.852-2.388-7.801.171-7.801 1.75zm.869.52s2.976.445 5.994 1.48c-2.42-2.29-5.994-1.48-5.994-1.48z" style="fill:#916643"/><path d="M38.043 6.382c1.097-.882 3.61-.922 6.063-.454-2.907-1.5-5.533-.744-6.063.454zm12.954 4.19c2.362 4.215-.597 6.552 1.867 11.642-1.168-4.944 1.14-8.646-1.867-11.642z" style="fill:#916643"/><path d="M48.938 7.422c-.312-1.716-1.063-2.965-2.04-3.828.815.885 1.547 2.07 1.929 4.555-.671-3.293-4.195-4.814-4.195-4.814s3.266 2.365 4.055 5.42c-1.726-3.232-6.005-3.977-6.005-3.977s3.793 1.71 5.84 4.408c-2.423-2.181-6.31-2.804-6.31-2.804s4.515 1.823 6.044 3.424c-3.61-2.319-6.078-1.608-5.395 1.014 0 0 1.833-1.125 2.934-.024.848.848-1.187 4.252.217 3.337 1.248-.813 3.624-2.876 2.926-6.711z" style="fill:#6e482a"/><path d="M45.717 13.494c2.21-.731 2.852-2.527 2.852-2.527s-.7 1.14-2.852 2.527z" style="fill:#52351f"/><path d="M46.005 12.23c1.562-.04 2.682-1.624 2.682-1.624s-1.386 1.087-2.682 1.624zm.157-1.38c1.266.512 2.525-.464 2.525-.464s-1.377.476-2.525.464zm2.525-.725s-2.57-.293-4.411-1.144c1.761 1.53 4.41 1.144 4.41 1.144z" style="fill:#52351f"/><path d="M43.355 12.45c.127.083.826.212 1.178-.453.196-.368.81-.749.907-1.47.128-.926-2.992 1.33-2.085 1.922z" style="fill:#8c5f44"/><path d="M44.006 8.876c-1.215.246-1.6 2.962-.693 3.554.127.083.794.158 1.146-.507.196-.368.895-.741.992-1.463.128-.926-.237-1.83-1.445-1.584z" style="fill:#b88a6f"/><path d="M44.03 9.364c-.315.11-.602.473-.676 1.018.524-.137.575.879.116 1.08.036.118.08.24.133.365.381-.503.916-.398 1.25-1.113.3-.645-.04-1.625-.823-1.35z" style="fill:#8c5f44"/></svg>