<svg xmlns="http://www.w3.org/2000/svg" xml:space="preserve" style="enable-background:new 0 0 64 64" viewBox="0 0 64 64"><path d="M32 36.85H14.03v24.479C14.369 63.275 24.104 64 32 64c7.896 0 17.63-.725 17.971-2.671v-24.48h-17.97z" style="fill:#484258"/><path d="M50.11 36.569s2.78 10.738 2.78 24.629c0 2.468-7.073 1.917-7.073 1.917V36.402l4.292.167z" style="fill:#484258"/><path d="M45.927 59.547v1.875S53 61.972 53 59.504c0-.624.004-1.202-.149-1.202-1.486 1.445-5.443 1.306-6.924 1.245zm0-3.547v1.875S53 58.426 53 55.957c0-.624-.148-1.202-.3-1.202-1.48 1.445-5.292 1.306-6.773 1.245z" style="fill:#ffe12c"/><path d="M45.817 44.328c-.705 10.913 0 18.787 0 18.787s1.199-6.87 0-18.787z" style="fill:#302c3b"/><path d="M13.89 36.569s-2.78 10.738-2.78 24.629c0 2.468 7.073 1.917 7.073 1.917V36.402l-4.293.167z" style="fill:#484258"/><path d="M18.073 59.547v1.875S11 61.972 11 59.504c0-.624-.004-1.202.149-1.202 1.486 1.445 5.443 1.306 6.924 1.245zm0-3.547v1.875S11 58.426 11 55.957c0-.624.148-1.202.3-1.202 1.48 1.445 5.292 1.306 6.773 1.245z" style="fill:#ffe12c"/><path d="M18.183 44.328c.705 10.913 0 18.787 0 18.787s-1.199-6.87 0-18.787z" style="fill:#302c3b"/><linearGradient id="a" x1="32" x2="32" y1="38.187" y2="30.837" gradientUnits="userSpaceOnUse"><stop offset="0" style="stop-color:#484258"/><stop offset=".472" style="stop-color:#4a455a"/><stop offset=".764" style="stop-color:#534d62"/><stop offset="1" style="stop-color:#605b6e"/></linearGradient><path d="m25.943 30.856 12.114-.02s12.052 4.13 12.052 5.733c0 2.157-36.219 2.157-36.219 0 0-1.605 12.053-5.713 12.053-5.713z" style="fill:url(#a)"/><path d="M25.943 30.856c-.012-.005.586 3.832 6.057 3.826 5.496-.005 6.048-3.841 6.057-3.845v-4.024H25.943v4.043z" style="fill:#5e4c3b"/><path d="m25.492 35.684-3.06-.411 3-4.149-3.967 4.427 3.238.245-2.69 4.83 9.985 13.126-9-13.127zm13.806.112 3.238-.245-3.966-4.427 3.001 4.149-3.063.411 2.496 4.941L32 55.752l9.987-15.127z" style="fill:#302c3b"/><path d="m34.373 44.51 3.424-9.129L32 34.64l-5.796.742 3.42 9.13z" style="fill:#e6ebef"/><path d="M33.398 37.84c-.377-.768-2.42-.768-2.797 0-.3.61-.746 5.67-.977 6.67l2.374 7.35 2.375-7.35c-.23-1-.678-6.06-.975-6.67z" style="fill:#1a1626"/><path d="M33.403 37.84c-.318.279-2.527.309-2.806 0-.664-.73-.738-2.177-.738-2.177s1.866-.981 2.14-.981c.276 0 2.142.981 2.142.981s.023 1.508-.738 2.177z" style="fill:#302c3b"/><path d="M32 34.64c-5.21-1.57-6.057-3.784-6.057-3.784s.012 2.215.261 4.525c.706.87 1.885 2.151 2.444 2.151.78 0 3.352-2.631 3.352-2.631s2.572 2.631 3.352 2.631c.56 0 1.738-1.282 2.445-2.15.248-2.311.26-4.545.26-4.545S37.211 33.07 32 34.639z" style="fill:#fff"/><path d="M37.876 53.905a.85.85 0 1 1-1.7 0 .85.85 0 0 1 1.7 0zm0 7.845a.85.85 0 1 1-1.7-.002.85.85 0 0 1 1.7.001zm-10.05-7.845a.85.85 0 1 1-1.7 0 .85.85 0 0 1 1.7 0zm0 7.845a.85.85 0 1 1-1.7-.002.85.85 0 0 1 1.7.001zm11.536-18.904h1.187v-.201h-1.498zm.338-.445-.169-.158h-1.309l.415.27h.953l.103.05h1.188l-.224-.162z" style="fill:#ffe12c"/><path d="M39.228 42.201h.39l.115.126h.824l-.17-.23-1.081-.01-.22-.204h-1.465l.416.271h1.11z" style="fill:#ffe12c"/><path d="m38.682 41.835.469.02.22.183.994.023-.048-.245h-1.313l-.28-.299h-1.648l.414.271h1.11zm2.888 1.011h1.187l.31-.201H41.57zm.846-.445h-.956l-.223.161h1.189l.102-.048h.954l.415-.271h-1.31z" style="fill:#ffe12c"/><path d="m42.811 42.087-1.08.01-.17.23h.825l.116-.126h.388l.083-.047h1.109l.414-.27h-1.465z" style="fill:#ffe12c"/><path d="m43.395 41.517-.28.299H41.8l-.046.245.994-.023.218-.184.47-.019.082-.047h1.109l.414-.27z" style="fill:#ffe12c"/><path d="M41.752 41.76h1.267l.315-.344-1.814.116a.492.492 0 1 1-.92 0l-1.815-.116.314.343h1.266a.696.696 0 0 0 1.387 0z" style="fill:#ffe12c"/><path d="M41.91 43.043a.85.85 0 1 1-1.7-.001.85.85 0 0 1 1.7 0z" style="fill:#ffe12c"/><path d="M41.662 43.043a.603.603 0 1 1-1.206-.003.603.603 0 0 1 1.206.003z" style="fill:#302c3b"/><path d="m41.059 42.393.146.448h.471l-.38.278.145.448-.383-.278-.38.278.145-.448-.38-.278h.47z" style="fill:#fff"/><path d="M43.206 15.933c-1.734.21-2.987 6.012-1.895 7.545.153.212 1.046.555 1.71-.797.367-.75 1.425-1.374 1.754-2.918.42-1.979.158-4.04-1.569-3.83zm-22.411 0c1.735.21 2.987 6.012 1.895 7.545-.153.212-1.046.555-1.71-.797-.366-.75-1.426-1.374-1.753-2.918-.422-1.979-.159-4.04 1.568-3.83z" style="fill:#735c48"/><path d="M43.16 17.044c-.453.142-.947.832-1.214 1.977 1.581-.34 1.186 2.293-.19 2.342.014.265.031.537.064.824.662-.96 1.336-.576 2.002-2.005.601-1.289.459-3.489-.662-3.138zm-21.104 1.974c-.269-1.143-.762-1.832-1.214-1.975-1.12-.35-1.265 1.85-.663 3.138.666 1.43 1.34 1.044 2.003 2.005a11.2 11.2 0 0 0 .061-.824c-1.36-.064-1.75-2.665-.187-2.344z" style="fill:#4a3728"/><path d="M32 4.773c-7.516 0-11.137 5.681-10.684 13.58.09 1.59 1.078 6.773 2.008 8.634.953 1.902 4.14 4.836 6.092 5.443 1.234.383 3.935.383 5.168 0 1.953-.607 5.14-3.54 6.093-5.443.933-1.86 1.918-7.043 2.007-8.634C43.14 10.454 39.52 4.773 32 4.773z" style="fill:#735c48"/><path d="M40.167 15.353c-1.719-.91-5.008-.955-6.234-.32-.264.122-.089.984.132.903 1.706-.676 4.462-.69 6.06.057.214.097.303-.513.042-.64zm-16.333 0c1.719-.91 5.007-.955 6.234-.32.262.122.09.984-.131.903-1.71-.676-4.462-.69-6.063.057-.211.097-.3-.513-.04-.64z" style="fill:#302b27"/><path d="M34.029 23.241c-.215-.149-.718.082-2.029.082-1.308 0-1.813-.23-2.027-.082-.257.182.152.997 2.027.997 1.877 0 2.287-.815 2.029-.997z" style="fill:#4a3728"/><path d="M30.328 18.45c.064.5-.274 1.088-1.209 1.53-.593.282-1.83.612-3.453-.072-.727-.307-1.437-1.26-1.372-1.79.88-1.658 5.21-1.9 6.034.333z" style="fill:#fff"/><linearGradient id="b" x1="-1209.992" x2="-1209.992" y1="171.118" y2="170.601" gradientTransform="translate(7977.155 -1104.145) scale(6.5701)" gradientUnits="userSpaceOnUse"><stop offset="0" style="stop-color:#a6694a"/><stop offset="1" style="stop-color:#4f2a1e"/></linearGradient><path d="M27.39 16.719a1.7 1.7 0 1 1 0 3.399 1.7 1.7 0 1 1 0-3.4z" style="fill:url(#b)"/><path d="M26.54 18.387c0 1.176 1.7 1.176 1.7 0 0-1.091-1.7-1.091-1.7 0z" style="fill:#1a1626"/><path d="M26.281 17.91c0 .493.712.493.712 0 0-.456-.712-.456-.712 0z" style="fill:#ab968c"/><path d="M30.336 18.516c-.69-2.217-5.402-1.889-6.042-.398.236-1.91 5.454-2.414 6.042.398z" style="fill:#4a3728"/><path d="M33.674 18.45c-.064.5.273 1.088 1.208 1.53.594.282 1.83.612 3.452-.072.73-.307 1.438-1.26 1.374-1.79-.88-1.658-5.212-1.9-6.034.333z" style="fill:#fff"/><linearGradient id="c" x1="-1211.293" x2="-1211.293" y1="171.118" y2="170.601" gradientTransform="translate(7994.886 -1104.145) scale(6.5701)" gradientUnits="userSpaceOnUse"><stop offset="0" style="stop-color:#a6694a"/><stop offset="1" style="stop-color:#4f2a1e"/></linearGradient><path d="M36.573 16.719a1.7 1.7 0 1 1-1.701 1.698 1.7 1.7 0 0 1 1.7-1.698z" style="fill:url(#c)"/><path d="M35.723 18.387c0 1.176 1.702 1.176 1.702 0 0-1.091-1.702-1.091-1.702 0z" style="fill:#1a1626"/><path d="M35.464 17.91c0 .493.713.493.713 0 0-.456-.713-.456-.713 0z" style="fill:#ab968c"/><path d="M33.665 18.516c.69-2.215 5.398-1.898 6.042-.398-.239-1.91-5.453-2.414-6.042.398z" style="fill:#4a3728"/><path d="m40.948 7.142-1.711 2.07c3.463 2.125 1.525 7.673 3.1 11.716.535-4.033 3.04-12.83-1.39-13.786zM22.984 8.166l1.71 1.047c-3.463 2.124-1.456 7.673-3.03 11.716-.535-4.034-3.108-11.808 1.32-12.763z" style="fill:#382e26"/><path d="M39.135 8.627c2.2-.009 2.418 3.586 2.418 3.586s.66-4.094-2.134-4.094l-.284.508zM23.21 10.402c-.882 2.154-1.194 4.368-1.194 4.368s-.465-1.55.645-4.29l.549-.078z" style="fill:#1a1714"/><path d="M40.011 7.788c1.72-.179 2.137 2.614 2.137 2.614s.235-3.251-1.949-3.033l-.188.419z" style="fill:#1a1714"/><path d="M40.947 7.142s-2.563-4.469-8.981-4.469c-6.968 0-11.36 3.123-11.51 9.168 4.268-4.207 15.51 2.334 20.49-4.7z" style="fill:#473e35"/><path d="M40.947 7.142c-.657-2.063-4.152-4.469-8.981-4.469 2.676.19 6.204 1.515 6.568 2.352 0 0-3.703-1.995-8.698-1.12 4.58-.208 7.605 2.704 6.317 2.72-1.254.015-5.91.172-8.674 1.876 1.778-.12 5.287.836 5.128.897-3.539 1.37-10.64-1.887-12.1 2.442 5.485-4.698 15.949 2.87 20.44-4.698z" style="fill:#382e26"/><path d="M40.947 7.142c-3.661 8.656-20.117-1.024-19.734 6.224-1.68-8.317 14.318 1.941 19.734-6.224z" style="fill:#1a1714"/><path d="M39.944 8.438c-1.74-3.416-7.384-4.645-7.384-4.645s5.9.338 7.843 4.188l-.459.457zm-.894.774c-1.62-1.518-9.438-.983-9.438-.983s5.699-1.72 10.058.488l-.62.495z" style="fill:#1a1714"/><path d="M20.805 10.523s.767-6.218 11.456-5.753c-8.788 1.218-11.456 5.753-11.456 5.753z" style="fill:#382e26"/><path d="M21.466 10.166s4.235-5.542 13.532-4.144c-7.757-.226-13.532 4.144-13.532 4.144zm-.232-1.936S25.882 3 33.504 3.09c-8.806-1.171-12.27 5.14-12.27 5.14z" style="fill:#574f45"/><path d="M32 26.507c-1.69-.498-4.196.237-4.196.237.955 1.038 1.653 2.388 4.196 2.388 2.914 0 3.41-1.532 4.197-2.388 0 0-2.507-.737-4.197-.237z" style="fill:#4a3728"/><path d="M28.433 26.92c1.773 1.487 5.352 1.495 7.135 0a104.9 104.9 0 0 1-7.135 0z" style="fill:#fff"/><path d="M45.99 8.036C45.56 4.09 41.306 0 32.003 0 22.697 0 18.439 4.09 18.01 8.036c-.142 1.31 1.322 2.192 2.554 4.27.664 1.122 22.211 1.122 22.874 0 1.232-2.078 2.695-2.96 2.553-4.27z" style="fill:#484258"/><path d="M20.002 10.3v.902h24V10.3c-2.706-2.567-21.296-2.567-24 0z" style="fill:#ffe12c"/><path d="M20.002 11.203v1.293s0 3.175 12 3.175 12-3.175 12-3.175v-1.293c-2.706-2.569-21.296-2.569-24 0z" style="fill:#484258"/><path d="M28.95 5.318h2.132v-.36h-2.69zm.609-.8-.305-.282h-2.352l.744.486h1.714l.184.087h2.136l-.401-.29z" style="fill:#ffe12c"/><path d="M28.71 4.16h.697l.21.225h1.48l-.305-.41-1.943-.022-.392-.364h-2.635l.746.486h1.994z" style="fill:#ffe12c"/><path d="m27.728 3.503.844.034.392.33 1.788.04-.086-.44h-2.358l-.505-.537h-2.96l.743.486h1.995zm5.19 1.815h2.134l.556-.36h-2.69zm1.522-.8h-1.718l-.4.29h2.134l.184-.086h1.714l.745-.486h-2.352z" style="fill:#ffe12c"/><path d="m35.15 3.953-1.94.022-.307.41h1.482l.209-.225h.697l.148-.085h1.993l.745-.486h-2.633z" style="fill:#ffe12c"/><path d="m36.198 2.93-.505.537h-2.36l-.085.44 1.788-.04.392-.33.843-.034.148-.087h1.995l.744-.486z" style="fill:#ffe12c"/><path d="M33.246 3.365h2.275l.566-.616-3.26.21a.886.886 0 1 1-1.655 0l-3.258-.21.564.616h2.275A1.252 1.252 0 0 0 32 4.535c.663 0 1.201-.517 1.246-1.17z" style="fill:#ffe12c"/><path d="M33.53 5.671a1.529 1.529 0 1 1-3.058.002 1.529 1.529 0 0 1 3.058-.002z" style="fill:#ffe12c"/><path d="M33.083 5.671a1.082 1.082 0 1 1-2.165 0 1.082 1.082 0 0 1 2.165 0z" style="fill:#302c3b"/><path d="m32 4.505.261.805h.848l-.685.498.262.807L32 6.117l-.685.498.26-.807-.684-.498h.847z" style="fill:#fff"/><path d="M21.98 11.767c.019-.015-.602.888.756 1.873 0-.015.372-1.349-.756-1.873z" style="fill:#ffe12c"/><path d="M23.807 11.157c-1.328-.22-1.83.586-1.826.607 1.112.686 1.838-.619 1.826-.607zm-.627 1.203c.017-.015-.464.88.88 1.666-.002-.013.218-1.293-.88-1.667z" style="fill:#ffe12c"/><path d="M24.82 11.615c-1.262-.082-1.642.724-1.64.742 1.096.524 1.649-.752 1.64-.742zm-.4 1.2c.014-.015-.349.878.993 1.49 0-.011.082-1.247-.993-1.49z" style="fill:#ffe12c"/><path d="M25.898 11.95c-1.21.04-1.483.846-1.478.862 1.087.386 1.486-.873 1.478-.863zm-.196 1.188c.01-.015-.235.856 1.077 1.302-.001-.01-.044-1.18-1.077-1.302z" style="fill:#ffe12c"/><path d="M27.006 12.184c-1.137.153-1.31.937-1.304.951 1.056.256 1.312-.962 1.303-.951zm.001 1.143c.01-.013-.133.83 1.149 1.124-.003-.01-.157-1.11-1.15-1.124z" style="fill:#ffe12c"/><path d="M28.15 12.3c-1.07.255-1.148 1.014-1.144 1.024 1.025.138 1.148-1.033 1.143-1.025zm-.238 1.06c-.021-.006.675.618 1.704-.027-.026.009-1.058-.608-1.704.026z" style="fill:#ffe12c"/><path d="M21.438 11.437c.002-.044 1.668 1.012 3.499 1.44 1.802.534 3.77.438 3.75.48.035.051-1.965.192-3.786-.347-1.85-.432-3.52-1.544-3.463-1.573zm20.585.33c-.02-.015.6.888-.757 1.873 0-.015-.372-1.349.757-1.873z" style="fill:#ffe12c"/><path d="M40.196 11.157c1.328-.22 1.83.586 1.826.607-1.113.686-1.838-.619-1.826-.607zm.626 1.203c-.017-.015.465.88-.88 1.666.003-.013-.218-1.293.88-1.667z" style="fill:#ffe12c"/><path d="M39.182 11.615c1.264-.082 1.643.724 1.64.742-1.096.524-1.648-.752-1.64-.742zm.401 1.2c-.013-.015.349.878-.994 1.49.002-.011-.081-1.247.994-1.49z" style="fill:#ffe12c"/><path d="M38.105 11.95c1.21.04 1.484.846 1.478.862-1.086.386-1.486-.873-1.477-.863zm.196 1.188c-.01-.015.234.856-1.078 1.302.002-.01.044-1.18 1.078-1.302z" style="fill:#ffe12c"/><path d="M36.996 12.184c1.14.153 1.312.937 1.305.951-1.056.256-1.311-.962-1.305-.951zm-.001 1.143c-.008-.013.135.83-1.147 1.124.002-.01.155-1.11 1.147-1.124z" style="fill:#ffe12c"/><path d="M35.854 12.3c1.07.255 1.148 1.014 1.142 1.024-1.023.138-1.147-1.033-1.142-1.025zm.236 1.06c.021-.006-.674.618-1.704-.027.027.009 1.06-.608 1.704.026z" style="fill:#ffe12c"/><path d="M42.565 11.437c-.003-.044-1.67 1.012-3.498 1.44-1.804.534-3.77.438-3.75.48-.035.051 1.963.192 3.784-.347 1.85-.432 3.521-1.544 3.464-1.573z" style="fill:#ffe12c"/></svg>