<svg xmlns="http://www.w3.org/2000/svg" xml:space="preserve" viewBox="0 0 64 64"><linearGradient id="a" x1="34.133" x2="34.133" y1="28.6" y2="3" gradientUnits="userSpaceOnUse"><stop offset="0" style="stop-color:#db0100"/><stop offset=".584" style="stop-color:#f31317"/><stop offset="1" style="stop-color:#ff1c23"/></linearGradient><path fill="url(#a)" d="M34.132 6.864c-4.195-6.819-15.803-4.157-15.807 4.41 0 5.148 4.321 8.785 12.746 15.594 2.859 2.309 3.266 2.309 6.125 0 8.422-6.811 12.742-10.444 12.744-15.597.001-8.563-11.611-11.226-15.808-4.407z"/><path fill="#735C48" d="M60.542 42.02c-1.847.223-3.182 6.404-2.019 8.036.163.227 1.115.591 1.821-.849.391-.798 1.518-1.463 1.869-3.108.447-2.107.168-4.302-1.671-4.079zm-23.871 0c1.848.223 3.182 6.404 2.019 8.036-.163.227-1.115.591-1.822-.849-.39-.798-1.518-1.463-1.868-3.108-.449-2.107-.168-4.302 1.671-4.079z"/><path fill="#4A3728" d="M60.493 43.203c-.482.152-1.009.887-1.293 2.106 1.684-.362 1.263 2.443-.201 2.494.014.282.033.572.068.877.705-1.023 1.422-.613 2.132-2.136.639-1.371.488-3.714-.706-3.341zm-22.479 2.103c-.286-1.218-.811-1.951-1.293-2.103-1.192-.374-1.347 1.97-.706 3.342.71 1.523 1.428 1.112 2.134 2.136.034-.305.054-.596.065-.878-1.449-.069-1.864-2.839-.2-2.497z"/><path fill="#735C48" d="M48.606 30.132c-8.006 0-11.862 6.051-11.38 14.465.097 1.693 1.149 7.215 2.14 9.196 1.015 2.027 4.41 5.151 6.488 5.798 1.314.407 4.192.407 5.504 0 2.08-.647 5.476-3.772 6.49-5.798.994-1.981 2.043-7.501 2.138-9.196.486-8.413-3.372-14.465-11.38-14.465z"/><path fill="#302B27" d="M57.305 41.402c-1.831-.971-5.334-1.017-6.64-.34-.281.129-.095 1.047.14.961 1.818-.719 4.753-.735 6.456.061.227.103.322-.547.044-.682zm-17.397 0c1.831-.971 5.333-1.017 6.64-.34.279.129.095 1.047-.14.961-1.822-.719-4.753-.735-6.458.061-.224.103-.318-.547-.042-.682z"/><path fill="#4A3728" d="M50.767 49.804c-.228-.159-.764.087-2.161.087-1.394 0-1.931-.246-2.16-.087-.274.193.162 1.062 2.16 1.062 1.999 0 2.436-.869 2.161-1.062z"/><path fill="#FFF" d="M46.825 44.702c.068.531-.292 1.158-1.287 1.629-.632.3-1.95.652-3.678-.078-.774-.327-1.53-1.342-1.462-1.906.937-1.766 5.55-2.024 6.427.355z"/><linearGradient id="b" x1="-1207.51" x2="-1207.51" y1="175.13" y2="174.579" gradientTransform="translate(7977.155 -1104.145) scale(6.5701)" gradientUnits="userSpaceOnUse"><stop offset="0" style="stop-color:#a6694a"/><stop offset="1" style="stop-color:#4f2a1e"/></linearGradient><path fill="url(#b)" d="M43.696 42.857a1.812 1.812 0 1 1 0 3.621 1.811 1.811 0 1 1 0-3.621z"/><path fill="#1A1626" d="M42.79 44.633c0 1.253 1.812 1.253 1.812 0 0-1.162-1.812-1.162-1.812 0z"/><path fill="#AB968C" d="M42.515 44.125c0 .525.759.525.759 0-.001-.485-.759-.485-.759 0z"/><path fill="#4A3728" d="M46.834 44.771c-.736-2.361-5.754-2.012-6.436-.424.252-2.034 5.809-2.572 6.436.424z"/><path fill="#FFF" d="M50.389 44.702c-.068.531.291 1.158 1.287 1.629.632.3 1.948.652 3.677-.078.777-.327 1.531-1.342 1.463-1.906-.938-1.766-5.551-2.024-6.427.355z"/><linearGradient id="c" x1="-1208.72" x2="-1208.72" y1="175.13" y2="174.579" gradientTransform="translate(7994.886 -1104.145) scale(6.5701)" gradientUnits="userSpaceOnUse"><stop offset="0" style="stop-color:#a6694a"/><stop offset="1" style="stop-color:#4f2a1e"/></linearGradient><path fill="url(#c)" d="M53.477 42.857a1.811 1.811 0 1 1-1.812 1.809 1.81 1.81 0 0 1 1.812-1.809z"/><path fill="#1A1626" d="M52.572 44.633c0 1.253 1.812 1.253 1.812 0 0-1.162-1.812-1.162-1.812 0z"/><path fill="#AB968C" d="M52.295 44.125c0 .525.76.525.76 0 0-.485-.76-.485-.76 0z"/><path fill="#4A3728" d="M50.38 44.771c.734-2.36 5.75-2.022 6.435-.424-.255-2.034-5.808-2.572-6.435.424z"/><path fill="#382E26" d="m58.137 32.656-1.822 2.205c3.689 2.263 1.625 8.173 3.301 12.479.57-4.295 3.238-13.667-1.479-14.684zm-19.134 1.091 1.822 1.115c-3.689 2.263-1.551 8.173-3.227 12.479-.571-4.296-3.312-12.577 1.405-13.594z"/><path fill="#1A1714" d="M56.206 34.237c2.343-.009 2.576 3.82 2.576 3.82s.703-4.36-2.273-4.36l-.303.54zm-16.963 1.892c-.94 2.294-1.272 4.652-1.272 4.652s-.495-1.651.687-4.569l.585-.083z"/><path fill="#1A1714" d="M57.139 33.344c1.831-.19 2.275 2.785 2.275 2.785s.251-3.463-2.075-3.23l-.2.445z"/><path fill="#473E35" d="M58.136 32.656s-2.73-4.76-9.566-4.76c-7.421 0-12.1 3.326-12.259 9.765 4.545-4.481 16.519 2.487 21.825-5.005z"/><path fill="#382E26" d="M58.136 32.656c-.7-2.198-4.422-4.76-9.566-4.76 2.851.201 6.609 1.613 6.996 2.505 0 0-3.943-2.125-9.264-1.193 4.879-.222 8.1 2.88 6.729 2.897-1.336.017-6.296.183-9.239 1.998 1.893-.128 5.631.891 5.461.956-3.769 1.458-11.333-2.01-12.887 2.601 5.841-5.004 16.986 3.057 21.77-5.004z"/><path fill="#1A1714" d="M58.136 32.656c-3.9 9.22-21.427-1.091-21.019 6.63-1.79-8.86 15.25 2.067 21.019-6.63z"/><path fill="#1A1714" d="M57.068 34.037c-1.854-3.639-7.865-4.947-7.865-4.947s6.284.359 8.354 4.46l-.489.487zm-.952.824c-1.726-1.617-10.053-1.047-10.053-1.047s6.07-1.831 10.713.519l-.66.528z"/><path fill="#382E26" d="M36.682 36.258s.817-6.624 12.202-6.129c-9.36 1.298-12.202 6.129-12.202 6.129z"/><path fill="#574F45" d="M37.386 35.878s4.51-5.903 14.413-4.414c-8.262-.242-14.413 4.414-14.413 4.414zm-.247-2.063s4.951-5.569 13.069-5.475c-9.38-1.247-13.069 5.475-13.069 5.475z"/><path fill="#4A3728" d="M48.606 53.283c-1.8-.53-4.47.252-4.47.252 1.017 1.106 1.761 2.543 4.47 2.543 3.104 0 3.632-1.631 4.47-2.543 0 0-2.67-.785-4.47-.252z"/><path fill="#FFF" d="M44.807 53.722c1.888 1.584 5.701 1.593 7.599 0-2.011.086-5.573.086-7.599 0z"/><radialGradient id="d" cx="26.409" cy="61" r="21.134" gradientTransform="translate(-8.211)" gradientUnits="userSpaceOnUse"><stop offset="0" style="stop-color:#997c28"/><stop offset=".313" style="stop-color:#af8e2e"/><stop offset=".74" style="stop-color:#c8a234"/><stop offset="1" style="stop-color:#d1a936"/></radialGradient><path fill="url(#d)" d="M23.669 60.448c11.036-4.414 9.933-17.656 9.933-17.656H2.703S1.6 56.034 12.633 60.448c0 0 2.208.552 5.517.552 3.313 0 5.519-.552 5.519-.552z"/><path fill="#EBC199" d="M18.152 29.551c-8.007 0-11.864 6.521-11.382 14.905.099 1.684.568 4.116 1.147 6.199 1.201 4.33 7.537 8.69 10.236 8.69 2.697 0 9.034-4.36 10.236-8.69.579-2.083 1.047-4.514 1.147-6.199.479-8.384-3.376-14.905-11.384-14.905z"/><path fill="#C98655" d="M18.151 52.539c-1.876-.825-1.891-.033-4.788.161 1.087 1.235 1.888 2.822 4.787 2.822 3.328 0 3.89-1.803 4.791-2.822-2.9-.195-2.911-.987-4.79-.161z"/><path fill="#FFF" d="M14.233 53.007c1.891 1.968 5.97 1.942 7.838.001-2.912.313-4.925.313-7.838-.001z"/><path fill="#AB8C57" d="M26.66 41.666c-1.739-1.037-4.86-1.164-6.094-.457-.262.142-.192.891.035.797 1.761-.733 4.444-.769 6.097.079.221.112.226-.268-.038-.419zm-17.017 0c1.739-1.037 4.859-1.164 6.096-.457.262.142.192.891-.036.797-1.762-.733-4.442-.771-6.097.079-.221.112-.226-.268.037-.419z"/><path fill="#C99B71" d="M19.952 49.878c-.191-.134-.638.072-1.801.072-1.162 0-1.609-.206-1.8-.072-.228.161.135.886 1.8.886s2.03-.725 1.801-.886z"/><path fill="#FFF" d="M16.371 44.812c.068.529-.292 1.157-1.288 1.628-.633.3-1.948.652-3.678-.078-.775-.327-1.53-1.344-1.462-1.906.937-1.767 5.551-2.026 6.428.356z"/><linearGradient id="e" x1="-426.408" x2="-426.408" y1="475.174" y2="475.725" gradientTransform="matrix(6.5701 0 0 -6.5701 2814.782 3168.527)" gradientUnits="userSpaceOnUse"><stop offset="0" style="stop-color:#a6694a"/><stop offset="1" style="stop-color:#4f2a1e"/></linearGradient><path fill="url(#e)" d="M13.24 42.964a1.813 1.813 0 1 1 0 3.627 1.813 1.813 0 0 1 0-3.627z"/><path fill="#1A1626" d="M12.335 44.743c0 1.253 1.813 1.253 1.813 0 0-1.164-1.813-1.164-1.813 0z"/><path fill="#AB968C" d="M12.059 44.235c0 .526.76.526.76 0 0-.487-.76-.487-.76 0z"/><path fill="#45332C" d="M16.38 44.882c-.736-2.365-5.753-2.016-6.437-.426.253-2.037 5.809-2.574 6.437.426z"/><path fill="#FFF" d="M19.934 44.812c-.068.529.292 1.157 1.288 1.628.633.3 1.948.652 3.678-.078.776-.327 1.53-1.344 1.462-1.906-.937-1.767-5.551-2.026-6.428.356z"/><linearGradient id="f" x1="-427.617" x2="-427.617" y1="475.174" y2="475.725" gradientTransform="matrix(6.5701 0 0 -6.5701 2832.512 3168.527)" gradientUnits="userSpaceOnUse"><stop offset="0" style="stop-color:#a6694a"/><stop offset="1" style="stop-color:#4f2a1e"/></linearGradient><path fill="url(#f)" d="M23.023 42.964a1.813 1.813 0 1 1 0 3.627 1.813 1.813 0 0 1 0-3.627z"/><path fill="#1A1626" d="M22.118 44.743c0 1.253 1.813 1.253 1.813 0 0-1.164-1.813-1.164-1.813 0z"/><path fill="#AB968C" d="M21.842 44.235c0 .526.76.526.76 0 0-.487-.76-.487-.76 0z"/><path fill="#45332C" d="M19.926 44.882c.735-2.364 5.749-2.026 6.436-.426-.255-2.037-5.81-2.574-6.436.426z"/><path fill="#F2D785" d="M27.163 30.722c.915-1.305-6.83-4.062-14.142-2.199C5.718 30.195 1.6 38.195 1.6 48.295c0 4.797 3.862 11.05 11.034 12.154-7.901-5.532-6.625-11.019-4.413-17.655 5.485-3.176 11.692-3.924 16.001-7.725-.552 1.655 2.369 3.743 3.862 7.725 2.267 6.046 3.434 12.161-4.415 17.655 6.622-1.104 11.036-7.356 11.036-12.154 0-11.939-4.614-18.418-7.542-17.573z"/><path fill="#E6C465" d="M27.163 30.722c.879-1.052-3.035-2.805-7.966-2.805 6.051.478 8.114 3.757 6.435 2.889-1.79-.924-6.165-2.266-12.025.39 6.412-1.364 12.31.126 11.393.898-1.448 1.218-7.831-2.1-16.769 6.06-1.231 1.123 5.361-4.314 14.21-4.486-1.23 2.588-16.969 6.692-19.411 13.126 4.098-5.848 21.374-8.02 24.133-16.072zm4.007 9.37s3.837 10.408-2.592 17.625c9.21-7.217 2.592-17.625 2.592-17.625z"/><path fill="#E6C465" d="M8.564 42.494s-1.568.286-2.851 1.678c-2.683 9.477 3.73 13.545 3.73 13.545s-5.086-5.218-.879-15.223z"/><path fill="#E6C465" d="M4.553 45.073s-.737.288-1.637 2.133c-.834 5.778 3.222 8.721 3.222 8.721S2.334 51.28 4.553 45.073zm28.681-7.37c-2.798-8.707-6.071-6.982-6.071-6.982s-1.575 2.948-2.828 3.983c-2.265 2.782 5.524 5.167 5.321 17.218 2.059-8.562-3.666-14.286-3.758-15.815-.105-1.733 1.335-4.398 2.458-4.718 1.218-.347 4.008 3.955 4.878 6.314z"/><path fill="#D1A936" d="M2.916 47.206c4.432-7.23 20.838-6.742 24.248-16.485-5.747 8.888-23.149 10.37-24.248 16.485z"/><path fill="#FAE29B" d="M27.005 34.613s3.635 7.794 4.233 14.415c.989-10.181-4.233-14.415-4.233-14.415zM7.439 41.252s5.288-3.432 11.908-6.264c-7.086.425-11.908 6.264-11.908 6.264zm-3.264-.701s4.155-6.638 11.733-8.569c-10.544-.69-11.733 8.569-11.733 8.569z"/></svg>