<svg xmlns="http://www.w3.org/2000/svg" xml:space="preserve" style="enable-background:new 0 0 64 64" viewBox="0 0 64 64"><radialGradient id="a" cx="31.988" cy="28.612" r="23.953" gradientTransform="matrix(1.0108 0 0 1.1919 -2.913 -1.096)" gradientUnits="userSpaceOnUse"><stop offset="0" style="stop-color:#ff3030"/><stop offset=".46" style="stop-color:#fd2f2f"/><stop offset=".626" style="stop-color:#f62b2b"/><stop offset=".744" style="stop-color:#eb2525"/><stop offset=".84" style="stop-color:#da1c1c"/><stop offset=".921" style="stop-color:#c41010"/><stop offset=".992" style="stop-color:#a90202"/><stop offset="1" style="stop-color:#a60000"/></radialGradient><path d="M45.791 41.266c-1.348 7.616-1.625 13.187-5.022 15.249-8.511 6.61-29.1 4.514-37.094-9.61-3.576-7.641-5.29-25.216-1.658-36.772 22.52 4.221 40.702 17.388 43.774 31.133z" style="fill:url(#a)"/><radialGradient id="b" cx="31.798" cy="13.381" r="23.798" gradientTransform="matrix(1.0108 0 0 1.0177 -2.913 4.6)" gradientUnits="userSpaceOnUse"><stop offset="0" style="stop-color:#ff3030"/><stop offset=".46" style="stop-color:#fd2f2f"/><stop offset=".626" style="stop-color:#f62b2b"/><stop offset=".744" style="stop-color:#eb2525"/><stop offset=".84" style="stop-color:#da1c1c"/><stop offset=".921" style="stop-color:#c41010"/><stop offset=".992" style="stop-color:#a90202"/><stop offset="1" style="stop-color:#a60000"/></radialGradient><path d="M45.791 41.266c-1.496 1.479-4.813-1.767-14.363-1.76-9.562.006-22.213 7.989-26.069-.242-3.576-7.641-6.673-19.692-3.341-29.13.829-2.349 3.049-4.545 4.688-5.235 8.218-3.46 27.399-3.893 35.817-.92 3.486 1.232 6.711 9.166 3.85 14.095-.001 10.713 6.807 15.887-.582 23.192z" style="fill:url(#b)"/><linearGradient id="c" x1="28.096" x2="40.104" y1="56.631" y2="56.631" gradientUnits="userSpaceOnUse"><stop offset="0" style="stop-color:#a60000"/><stop offset=".373" style="stop-color:#cd1515"/><stop offset=".782" style="stop-color:#f12828"/><stop offset="1" style="stop-color:#ff3030"/></linearGradient><path d="M32.412 53.539c-2.312 1.808-3.382 7.138.526 7.918 11.614 2.321 9.353-15.645-.526-7.918z" style="fill:url(#c)"/><linearGradient id="d" x1="3.675" x2="35.553" y1="54.453" y2="54.453" gradientUnits="userSpaceOnUse"><stop offset=".35" style="stop-color:#a60000"/><stop offset=".472" style="stop-color:#b00505"/><stop offset=".677" style="stop-color:#ca1313"/><stop offset=".939" style="stop-color:#f42a2a"/><stop offset="1" style="stop-color:#ff3030"/></linearGradient><path d="M25.284 54.419c-6.864 5.685-16.188-.704-21.609-7.514 5.17 13.721 16.458 15.1 26.02 15.094 9.55-.006 6.963-17-4.411-7.58z" style="fill:url(#d)"/><radialGradient id="e" cx="21.166" cy="21.037" r="9.495" gradientTransform="matrix(1 0 0 .7145 0 10.412)" gradientUnits="userSpaceOnUse"><stop offset="0" style="stop-color:#fff700"/><stop offset=".262" style="stop-color:#fff400"/><stop offset=".443" style="stop-color:#ffeb00"/><stop offset=".6" style="stop-color:#ffdc00"/><stop offset=".743" style="stop-color:#ffc600"/><stop offset=".875" style="stop-color:#fa0"/><stop offset="1" style="stop-color:#f80"/></radialGradient><path d="M27.482 24.473c3.069 11.654-21.334 9.084-17.656-1.29 1.184-3.34 4.75-3.367 4.75-3.367s5.257 3.854 12.906 4.657z" style="fill:url(#e)"/><path d="M24.627 27.255c0 3.999-7 3.999-7 0 0-4.001 7-4.001 7 0z" style="fill:#1a1626"/><radialGradient id="f" cx="42.847" cy="20.422" r="5.892" gradientTransform="matrix(1 0 0 .971 0 5.017)" gradientUnits="userSpaceOnUse"><stop offset="0" style="stop-color:#fff700"/><stop offset=".204" style="stop-color:#fff300"/><stop offset=".392" style="stop-color:#ffe800"/><stop offset=".572" style="stop-color:#ffd600"/><stop offset=".749" style="stop-color:#ffbc00"/><stop offset=".92" style="stop-color:#ff9a00"/><stop offset="1" style="stop-color:#f80"/></radialGradient><path d="M36.099 24.25c-1.893 11.654 13.502 9.134 10.429-.988-.861-2.837-2.702-3.446-2.702-3.446s-2.999 3.631-7.727 4.434z" style="fill:url(#f)"/><path d="M38.17 26.32c0 3.334 6 3.334 6 0 0-3.332-6-3.332-6 0z" style="fill:#1a1626"/><radialGradient id="g" cx="32.398" cy="40.861" r="14.64" gradientTransform="matrix(1 0 0 .7275 0 14.967)" gradientUnits="userSpaceOnUse"><stop offset="0" style="stop-color:#fff"/><stop offset=".155" style="stop-color:#faf9f8"/><stop offset=".387" style="stop-color:#ede8e3"/><stop offset=".666" style="stop-color:#d8ccc2"/><stop offset=".98" style="stop-color:#baa694"/><stop offset="1" style="stop-color:#b8a391"/></radialGradient><path d="M43.171 49.3c-.778 5.404-4.548-4.771-10.082-4.332-8.471.672-13.491 14.38-15.081 5.794-.843-4.551 5.553-7.622 14.553-8.351 5.907-.479 11.309 2.03 10.61 6.889z" style="fill:url(#g)"/><linearGradient id="h" x1="19.767" x2="19.767" y1="47.511" y2="33.236" gradientTransform="matrix(1.0108 0 0 1 -2.913 .214)" gradientUnits="userSpaceOnUse"><stop offset="0" style="stop-color:#1a1626"/><stop offset="1" style="stop-color:#3c454a"/></linearGradient><path d="M31.521 40.463c-11.078 1.868-10.096 5.596-16.827 7.089-6.729 1.491-16.989-6.981-9.4-14.103.422 4.071 3.528 5.151 3.528 5.151s-.494-1.896 1.825-4.317c1.73 3.235 4.992 7.423 20.874 6.18z" style="fill:url(#h)"/><linearGradient id="i" x1="45.522" x2="45.522" y1="44.124" y2="36.62" gradientTransform="matrix(1.0108 0 0 1 -2.913 .214)" gradientUnits="userSpaceOnUse"><stop offset="0" style="stop-color:#1a1626"/><stop offset="1" style="stop-color:#3c454a"/></linearGradient><path d="M35.724 40.587c4.742.984 6.704 2.877 9.584 3.661 2.878.784 7.272-3.669 4.022-7.414-.181 2.138-1.508 2.709-1.508 2.709s.21-.998-.782-2.272c-.741 1.701-4.519 3.972-11.316 3.316z" style="fill:url(#i)"/><path d="M38.856 25.552c0 1.001 1.5 1.001 1.5 0 0-1-1.5-.998-1.5 0zm-19.742.368c0 1 1.5 1 1.5 0s-1.5-.999-1.5 0z" style="fill:#4b585e"/><linearGradient id="j" x1="31.44" x2="31.633" y1="12.545" y2="19.396" gradientUnits="userSpaceOnUse"><stop offset=".25" style="stop-color:#ff3030;stop-opacity:0"/><stop offset=".351" style="stop-color:#f72d2d;stop-opacity:.1345"/><stop offset=".504" style="stop-color:#e22626;stop-opacity:.3386"/><stop offset=".69" style="stop-color:#c01a1a;stop-opacity:.587"/><stop offset=".901" style="stop-color:#910909;stop-opacity:.8677"/><stop offset="1" style="stop-color:#780000"/></linearGradient><path d="M31.916 12.046c-9.062-.448-7.644 5.312-5.235 5.189 2.878-.146 4.577 1.603 6.023 1.607 1.474.005 2.474-1.672 3.605-1.567 2.668.246 3.433-4.842-4.393-5.229z" style="fill:url(#j)"/><linearGradient id="k" x1="31.048" x2="31.287" y1="8.433" y2="16.876" gradientUnits="userSpaceOnUse"><stop offset=".25" style="stop-color:#ff3030;stop-opacity:0"/><stop offset=".351" style="stop-color:#f72d2d;stop-opacity:.1345"/><stop offset=".504" style="stop-color:#e22626;stop-opacity:.3386"/><stop offset=".69" style="stop-color:#c01a1a;stop-opacity:.587"/><stop offset=".901" style="stop-color:#910909;stop-opacity:.8677"/><stop offset="1" style="stop-color:#780000"/></linearGradient><path d="M31.64 7.818c-11.249-.556-9.489 6.594-6.499 6.442 3.573-.182 5.483 1.934 7.279 1.939 1.83.006 3.269-2.02 4.674-1.89 3.311.306 4.261-6.011-5.454-6.491z" style="fill:url(#k)"/><linearGradient id="l" x1="30.719" x2="30.987" y1="4.294" y2="13.769" gradientUnits="userSpaceOnUse"><stop offset=".25" style="stop-color:#ff3030;stop-opacity:0"/><stop offset=".351" style="stop-color:#f72d2d;stop-opacity:.1345"/><stop offset=".504" style="stop-color:#e22626;stop-opacity:.3386"/><stop offset=".69" style="stop-color:#c01a1a;stop-opacity:.587"/><stop offset=".901" style="stop-color:#910909;stop-opacity:.8677"/><stop offset="1" style="stop-color:#780000"/></linearGradient><path d="M31.464 3.61c-14.476-.622-12.212 7.374-8.363 7.203 4.598-.203 6.896 2.188 9.206 2.194 2.355.007 4.367-2.284 6.175-2.139 4.262.342 5.483-6.721-7.018-7.258z" style="fill:url(#l)"/><linearGradient id="m" x1="42.956" x2="45.886" y1="20.699" y2="35.268" gradientUnits="userSpaceOnUse"><stop offset=".485" style="stop-color:#ff3030"/><stop offset=".592" style="stop-color:#ef2929"/><stop offset=".8" style="stop-color:#c61515"/><stop offset="1" style="stop-color:#900"/></linearGradient><path d="M60.839 34.649c-7.925 2.947-20.783 5.371-29.955 4.901-2.087-.151-5.767-2.55-2.881-6.342 2.104-2.764.903-3.978 2.099-7.122.956-2.512 5.145-.817 6.01.592 3.128 5.097 13.411.787 19.873-1.531 5.405-2.206 12.071 6.448 4.854 9.502z" style="fill:url(#m)"/><linearGradient id="n" x1="39.682" x2="67.915" y1="10.474" y2="10.474" gradientTransform="rotate(-3.181 385.148 156.407)" gradientUnits="userSpaceOnUse"><stop offset=".273" style="stop-color:#ff3030"/><stop offset="1" style="stop-color:#ff5757"/></linearGradient><path d="M59.42 25.968c-4.583-2.304-9.542 5.036-27.245 4.952 8.136 4.205 32.805-2.158 27.245-4.952z" style="fill:url(#n)"/><radialGradient id="o" cx="302.208" cy="-259.864" r="8.093" gradientTransform="matrix(.899 0 0 .37 -239.794 119.913)" gradientUnits="userSpaceOnUse"><stop offset="0" style="stop-color:#ff3030"/><stop offset=".236" style="stop-color:#fc2e2e"/><stop offset=".441" style="stop-color:#f12828"/><stop offset=".634" style="stop-color:#df1f1f"/><stop offset=".819" style="stop-color:#c61111"/><stop offset=".999" style="stop-color:#a60000"/><stop offset="1" style="stop-color:#a60000"/></radialGradient><path d="M36.367 23.934c-1.569-1.92-7.438-1.92-9.007 0-.427.522-.214 3.114.574 2.745 2.015-.945 5.957-.881 7.858 0 .791.366 1.002-2.224.575-2.745z" style="fill:url(#o)"/><linearGradient id="p" x1="43.819" x2="43.819" y1="24.259" y2="7.573" gradientTransform="matrix(1.0108 0 0 1 -2.913 .214)" gradientUnits="userSpaceOnUse"><stop offset="0" style="stop-color:#1a1626"/><stop offset="1" style="stop-color:#3c454a"/></linearGradient><path d="M47.659 10.943s-1.453 13.462-11.935 13.531c-2.131.014 1.555-10.016 5.702-13.346-.942 2.143-2.707 3.953-3.073 6.315-.278 1.776 6.178-9.243 7.62-9.645.917-.254-.029 4.584-.029 4.584l1.715-1.439z" style="fill:url(#p)"/><linearGradient id="q" x1="18.2" x2="18.2" y1="24.788" y2="6.753" gradientUnits="userSpaceOnUse"><stop offset="0" style="stop-color:#1a1626"/><stop offset="1" style="stop-color:#3c454a"/></linearGradient><path d="M19.123 10.329c1.936 2.296 5.569 4.233 6.322 6.763.566 1.904-12.712-9.897-15.685-10.329-1.878-.272.064 4.91.064 4.91L6.3 10.131s5.008 14.123 22.222 14.655c4.382.136-.872-10.889-9.399-14.457z" style="fill:url(#q)"/></svg>