<svg xmlns="http://www.w3.org/2000/svg" xml:space="preserve" style="enable-background:new 0 0 64 64" viewBox="0 0 64 64"><path d="M39.19 39.482c-2.903-2.288-11.486-2.269-14.385.024-4.544 3.595 4.662 22.487 7.203 22.487 2.541 0 11.735-18.924 7.182-22.511z" style="fill:#006dae"/><path d="M39.266 40.91c0-1.24.265-1.1-.076-1.428-2.683-2.582-11.753-2.616-14.385.024-.331.332-.054.24-.054 1.403 0 5.814 14.515 5.814 14.515 0z" style="fill:#005c94"/><path d="M38.686 39.492v-3.92H25.331v3.92c0 5.814 13.355 5.814 13.355 0z" style="fill:#5e4c3b"/><path d="m15.616 61.831.608-15.746s-3.164-1.576-3.112-1.608C9.992 46.36 7 50.335 7 58.106c0 2.424 3.812 3.725 8.616 3.725z" style="fill:#006dae"/><path d="m15.616 61.831.45.027s7.614-3.85 16.507.142h.625v-2.207c0-.327-.134-.63-.371-.832-1.59-1.356-8-6.878-8-19.48 0-.148-.558-.14-.583.206-.122 1.737-10.31 6.108-10.848 4.407-.032-.1-.567-.02-.493.246.906 3.255 2.713 10.363 2.713 16.099v1.392z" style="fill:#302c3b"/><path d="m16.067 61.858 3.927.029c4.375-1.964 6.575.072 6.575.072s3.866.041 6.004.041v-1.844c0-.322-.13-.621-.362-.825-1.565-1.375-7.967-7.023-7.967-19.644 0-.354-2.62.734-2.697.833-1.149 1.455-3.458 2.048-5.323 2.194-.216.017-2.866 1.182-2.828 1.38.33 1.245 2.67 9.148 2.67 16.345v1.419z" style="fill:#f59e01"/><path d="M26.57 61.959c-2.592-8.16-5.178-16.542-5.023-21.44-1.619.56-3.675 1.42-5.323 2.195.185 3.226 1.758 11.22 3.77 19.173l6.575.072z" style="fill:#fff82c"/><path d="m48.384 61.831-.609-15.746s3.164-1.576 3.113-1.608C54.008 46.36 57 50.335 57 58.106c0 2.424-3.812 3.725-8.616 3.725z" style="fill:#006dae"/><path d="m48.384 61.831-.45.027s-7.614-3.85-16.507.142h-.626v-2.207c0-.327.134-.63.372-.832 1.59-1.356 8-6.878 8-19.48 0-.148.558-.14.583.206.122 1.737 10.31 6.108 10.848 4.407.032-.1.567-.02.493.246-.906 3.255-2.713 10.363-2.713 16.099v1.392z" style="fill:#302c3b"/><path d="m47.934 61.858-3.928.029c-4.375-1.964-6.575.072-6.575.072S33.565 62 31.427 62v-1.844c0-.322.13-.621.362-.825 1.565-1.375 7.967-7.023 7.967-19.644 0-.354 2.62.734 2.697.833 1.149 1.455 3.458 2.048 5.322 2.194.217.017 2.867 1.182 2.83 1.38-.33 1.245-2.671 9.148-2.671 16.345v1.419z" style="fill:#f59e01"/><path d="M37.43 61.959c2.592-8.16 5.178-16.542 5.023-21.44 1.618.56 3.675 1.42 5.322 2.195-.184 3.226-1.757 11.22-3.769 19.173l-6.575.072z" style="fill:#fff82c"/><path d="M45.02 21.56c-2.015.243-3.47 6.985-2.202 8.765.178.248 1.216.646 1.986-.925.427-.87 1.656-1.596 2.038-3.39.488-2.3.184-4.694-1.822-4.45zm-26.039 0c2.016.243 3.471 6.985 2.202 8.765-.178.248-1.215.646-1.987-.925-.425-.87-1.656-1.596-2.037-3.39-.49-2.3-.184-4.694 1.822-4.45z" style="fill:#735c48"/><path d="M44.966 22.85c-.526.166-1.1.968-1.41 2.298 1.836-.395 1.377 2.664-.22 2.72.015.309.035.625.073.958.769-1.116 1.552-.669 2.326-2.33.699-1.497.533-4.053-.77-3.645zm-24.52 2.294c-.312-1.328-.885-2.128-1.41-2.294-1.301-.407-1.47 2.148-.77 3.645.774 1.661 1.557 1.214 2.327 2.33.037-.333.059-.65.071-.958-1.58-.074-2.034-3.096-.218-2.723z" style="fill:#4a3728"/><path d="M32 8.593c-8.733 0-12.94 6.601-12.414 15.778.105 1.848 1.253 7.87 2.334 10.031 1.107 2.21 4.81 5.62 7.078 6.325 1.433.444 4.572.444 6.004 0 2.269-.706 5.973-4.114 7.08-6.325 1.084-2.16 2.228-8.182 2.331-10.03.53-9.177-3.678-15.779-12.413-15.779z" style="fill:#735c48"/><path d="M41.489 20.886c-1.997-1.058-5.819-1.11-7.243-.371-.306.14-.104 1.142.153 1.048 1.983-.785 5.184-.802 7.042.066.248.113.35-.596.048-.743zm-18.977 0c1.997-1.058 5.818-1.11 7.243-.371.305.14.104 1.142-.152 1.048-1.988-.785-5.185-.802-7.044.066-.246.113-.348-.596-.047-.743z" style="fill:#302b27"/><path d="M34.357 30.051c-.249-.173-.833.095-2.357.095-1.52 0-2.106-.268-2.355-.095-.299.21.176 1.158 2.355 1.158 2.18 0 2.657-.947 2.357-1.158z" style="fill:#4a3728"/><path d="M30.057 24.485c.074.58-.318 1.263-1.404 1.777-.69.327-2.127.711-4.013-.084-.844-.357-1.669-1.465-1.594-2.08 1.023-1.926 6.054-2.207 7.011.387z" style="fill:#fff"/><linearGradient id="a" x1="-1210.105" x2="-1210.105" y1="172.078" y2="171.476" gradientTransform="translate(7977.155 -1104.145) scale(6.5701)" gradientUnits="userSpaceOnUse"><stop offset="0" style="stop-color:#a6694a"/><stop offset="1" style="stop-color:#4f2a1e"/></linearGradient><path d="M26.644 22.473c1.09 0 1.977.884 1.977 1.973a1.976 1.976 0 0 1-1.977 1.976 1.976 1.976 0 1 1 0-3.95z" style="fill:url(#a)"/><path d="M25.655 24.41c0 1.367 1.977 1.367 1.977 0 0-1.267-1.977-1.267-1.977 0z" style="fill:#1a1626"/><path d="M25.355 23.856c0 .573.828.573.828 0 0-.529-.828-.529-.828 0z" style="fill:#ab968c"/><path d="M30.067 24.561c-.803-2.576-6.277-2.195-7.02-.463.274-2.218 6.336-2.805 7.02.463z" style="fill:#4a3728"/><path d="M33.944 24.485c-.074.58.317 1.263 1.404 1.777.69.327 2.125.711 4.011-.084.847-.357 1.67-1.465 1.596-2.08-1.022-1.926-6.055-2.207-7.01.387z" style="fill:#fff"/><linearGradient id="b" x1="-1211.18" x2="-1211.18" y1="172.078" y2="171.476" gradientTransform="translate(7994.886 -1104.145) scale(6.5701)" gradientUnits="userSpaceOnUse"><stop offset="0" style="stop-color:#a6694a"/><stop offset="1" style="stop-color:#4f2a1e"/></linearGradient><path d="M37.313 22.473a1.976 1.976 0 1 1-1.977 1.973c0-1.09.885-1.973 1.977-1.973z" style="fill:url(#b)"/><path d="M36.326 24.41c0 1.367 1.977 1.367 1.977 0 0-1.267-1.977-1.267-1.977 0z" style="fill:#1a1626"/><path d="M36.024 23.856c0 .573.829.573.829 0 0-.529-.829-.529-.829 0z" style="fill:#ab968c"/><path d="M33.935 24.561c.8-2.574 6.271-2.206 7.02-.463-.279-2.218-6.337-2.805-7.02.463z" style="fill:#4a3728"/><path d="m42.396 11.346-1.988 2.405c4.024 2.469 1.772 8.915 3.6 13.612.624-4.685 3.534-14.907-1.612-16.017zm-20.871 1.19 1.987 1.216c-4.024 2.468-1.692 8.915-3.52 13.612-.623-4.686-3.613-13.719 1.533-14.828z" style="fill:#382e26"/><path d="M40.29 13.07c2.555-.009 2.81 4.167 2.81 4.167s.766-4.755-2.48-4.755l-.33.589zm-18.503 2.064c-1.025 2.502-1.387 5.074-1.387 5.074s-.54-1.801.75-4.984l.637-.09z" style="fill:#1a1714"/><path d="M41.308 12.096c1.997-.207 2.482 3.038 2.482 3.038s.274-3.778-2.264-3.524l-.218.486z" style="fill:#1a1714"/><path d="M42.395 11.346S39.417 6.154 31.96 6.154c-8.095 0-13.199 3.628-13.372 10.652 4.958-4.889 18.02 2.712 23.807-5.46z" style="fill:#473e35"/><path d="M42.395 11.346C41.63 8.949 37.57 6.154 31.96 6.154c3.11.22 7.209 1.76 7.63 2.733 0 0-4.3-2.319-10.105-1.301 5.322-.242 8.836 3.141 7.34 3.16-1.457.017-6.867.199-10.078 2.179 2.065-.14 6.143.97 5.958 1.042-4.112 1.591-12.363-2.192-14.058 2.837 6.373-5.458 18.53 3.335 23.748-5.458z" style="fill:#382e26"/><path d="M42.395 11.346c-4.254 10.057-23.373-1.19-22.928 7.232-1.952-9.664 16.636 2.255 22.928-7.232z" style="fill:#1a1714"/><path d="M41.23 12.852c-2.023-3.969-8.58-5.397-8.58-5.397s6.856.392 9.113 4.866l-.533.531zm-1.039.899c-1.883-1.764-10.966-1.142-10.966-1.142s6.622-1.997 11.686.566l-.72.576z" style="fill:#1a1714"/><path d="M18.993 15.275s.891-7.226 13.31-6.686c-10.21 1.416-13.31 6.686-13.31 6.686z" style="fill:#382e26"/><path d="M19.761 14.86s4.92-6.44 15.722-4.815c-9.012-.263-15.722 4.815-15.722 4.815zm-.27-2.25s5.401-6.075 14.256-5.972C23.516 5.278 19.49 12.61 19.49 12.61z" style="fill:#574f45"/><path d="M32 33.845c-1.963-.578-4.876.275-4.876.275 1.11 1.206 1.921 2.774 4.876 2.774 3.386 0 3.962-1.78 4.876-2.774 0 0-2.913-.855-4.876-.275z" style="fill:#4a3728"/><path d="M27.855 34.325c2.06 1.728 6.219 1.737 8.29 0-2.194.094-6.08.094-8.29 0z" style="fill:#fff"/><radialGradient id="c" cx="-44.265" cy="9.283" r="13.484" fx="-44.304" fy="-2.621" gradientTransform="matrix(.9299 0 0 .5867 73.19 5.93)" gradientUnits="userSpaceOnUse"><stop offset="0" style="stop-color:#ffe12c"/><stop offset=".38" style="stop-color:#ffdf29"/><stop offset=".627" style="stop-color:#ffd721"/><stop offset=".837" style="stop-color:#ffca12"/><stop offset="1" style="stop-color:#fb0"/></radialGradient><path d="M45.865 18.878H18.133c0-8.648 2.268-15.372 13.867-15.372 11.597 0 13.865 6.724 13.865 15.372z" style="fill:url(#c)"/><linearGradient id="d" x1="32" x2="32" y1="20.208" y2="14.926" gradientUnits="userSpaceOnUse"><stop offset="0" style="stop-color:#fb0"/><stop offset=".342" style="stop-color:#ffcd15"/><stop offset=".717" style="stop-color:#ffdc26"/><stop offset="1" style="stop-color:#ffe12c"/></linearGradient><path d="M46.984 19.548c-.485-2.004-5.142-4.068-9.79-4.458-2.592-.218-7.796-.218-10.387 0-4.649.39-9.305 2.454-9.791 4.458-.081.334.165.66.476.66h29.016c.311 0 .557-.326.476-.66z" style="fill:url(#d)"/><path d="M36.754 15.437c.323-.3.383-10.958 0-11.463-.8-1.053-8.707-1.053-9.507 0-.383.505-.323 11.163 0 11.463.339.314 9.169.314 9.507 0z" style="opacity:.5;fill:#ffa200"/><linearGradient id="e" x1="32.001" x2="32.001" y1="16.037" y2="2" gradientUnits="userSpaceOnUse"><stop offset="0" style="stop-color:#fb0"/><stop offset=".175" style="stop-color:#ffc107"/><stop offset=".434" style="stop-color:#ffd31b"/><stop offset=".6" style="stop-color:#ffe12c"/><stop offset=".8" style="stop-color:#ffea66"/><stop offset="1" style="stop-color:#ffe12c"/></linearGradient><path d="M27.247 15.437V3.974C27.247 3.06 28.511 2 32.001 2c3.49 0 4.753 1.06 4.753 1.974v11.463c0 .8-9.507.8-9.507 0z" style="fill:url(#e)"/></svg>