<svg xmlns="http://www.w3.org/2000/svg" xml:space="preserve" style="enable-background:new 0 0 64 64" viewBox="0 0 64 64"><linearGradient id="a" x1="46.022" x2="55.336" y1="59.077" y2="49.762" gradientUnits="userSpaceOnUse"><stop offset="0" style="stop-color:#dadee6"/><stop offset=".136" style="stop-color:#dee3eb"/><stop offset=".575" style="stop-color:#e7eff8"/><stop offset="1" style="stop-color:#eaf3fc"/></linearGradient><path d="M53.803 48.228S56 53.648 56 58.115c0 2.998-8.547 2.393-8.547 2.393V48.026l6.35.202z" style="fill:url(#a)"/><linearGradient id="b" x1="8.664" x2="17.978" y1="49.762" y2="59.077" gradientUnits="userSpaceOnUse"><stop offset="0" style="stop-color:#eaf3fc"/><stop offset=".425" style="stop-color:#e7eff8"/><stop offset=".864" style="stop-color:#dee3eb"/><stop offset="1" style="stop-color:#dadee6"/></linearGradient><path d="M10.197 48.228S8 53.648 8 58.115c0 2.998 8.547 2.393 8.547 2.393V48.026l-6.35.202z" style="fill:url(#b)"/><linearGradient id="c" x1="32" x2="32" y1="53.768" y2="41.464" gradientUnits="userSpaceOnUse"><stop offset="0" style="stop-color:#eaf3fc"/><stop offset=".498" style="stop-color:#e8f1f9"/><stop offset=".797" style="stop-color:#e2e9f1"/><stop offset="1" style="stop-color:#dadee6"/></linearGradient><path d="M53.803 48.228c-.655-1.828-14.528-6.962-14.528-6.962l-14.55.024s-13.872 5.107-14.528 6.938c6.05 6.395 5.71 12.28 5.71 12.28S17.336 62 32 62s16.092-1.493 16.092-1.493-.34-5.884 5.71-12.279z" style="fill:url(#c)"/><path d="M24.98 43.375s4.053 8.31 7.02 8.31c2.968 0 7.021-8.31 7.021-8.31V37.41H24.98v5.966z" style="fill:#f3cca8"/><linearGradient id="d" x1="36.755" x2="36.755" y1="62" y2="40.17" gradientUnits="userSpaceOnUse"><stop offset="0" style="stop-color:#f2f8ff"/><stop offset=".577" style="stop-color:#f0f6fd"/><stop offset=".796" style="stop-color:#eaeff7"/><stop offset=".954" style="stop-color:#dfe3eb"/><stop offset="1" style="stop-color:#dadee6"/></linearGradient><path d="M39.021 40.17c0 .613-1.479 4.788-5.204 9.145-1.307 1.529-1.439 2.37-1.818 2.37L32 62l2.848-.016v-7.995c0-2.766 4.769-6.108 6.663-11.871-1.55-.7-2.49-1.948-2.49-1.948z" style="fill:url(#d)"/><linearGradient id="e" x1="27.245" x2="27.245" y1="62" y2="40.17" gradientUnits="userSpaceOnUse"><stop offset="0" style="stop-color:#f2f8ff"/><stop offset=".577" style="stop-color:#f0f6fd"/><stop offset=".796" style="stop-color:#eaeff7"/><stop offset=".954" style="stop-color:#dfe3eb"/><stop offset="1" style="stop-color:#dadee6"/></linearGradient><path d="M24.979 40.17c0 .613 1.479 4.788 5.204 9.145 1.307 1.529 1.439 2.37 1.818 2.37L32 62l-2.848-.016v-7.995c0-2.766-4.769-6.108-6.663-11.871a7.094 7.094 0 0 0 2.49-1.948z" style="fill:url(#e)"/><path d="M31.903 51.651h.195V62h-.195z" style="opacity:.5;fill:#dadee6"/><path d="M32 7.853c-9.176 0-13.597 7.474-13.046 17.08.113 1.928.65 4.717 1.315 7.107C21.64 37.004 27.712 42 31.999 42c4.288 0 10.353-4.996 11.731-9.96.664-2.39 1.202-5.172 1.315-7.107.55-9.606-3.87-17.08-13.046-17.08z" style="fill:#ffd8b4"/><path d="M41.972 20.778c-2.1-1.113-6.115-1.163-7.607-.392-.323.152-.108 1.202.158 1.1 2.086-.822 5.45-.84 7.398.07.26.126.367-.62.051-.778zm-19.945 0c2.1-1.113 6.115-1.163 7.614-.392.322.152.107 1.202-.158 1.1-2.087-.822-5.445-.84-7.4.07-.265.126-.372-.62-.056-.778z" style="fill:#826d58"/><path d="M34.478 30.422c-.259-.184-.879.1-2.479.1s-2.213-.284-2.478-.1c-.317.22.183 1.22 2.478 1.22 2.29 0 2.79-1 2.48-1.22zM32 34.203c-2.062-.607-5.123.291-5.123.291 1.164 1.27 2.018 2.915 5.122 2.915 3.554 0 4.162-1.865 5.123-2.915 0-.006-3.06-.904-5.123-.29z" style="fill:#deb38a"/><path d="M27.649 34.703c2.162 1.814 6.532 1.827 8.708 0-2.309.1-6.387.1-8.708 0zm2.308-10.137c.076.607-.335 1.328-1.474 1.866-.727.341-2.232.746-4.217-.089-.886-.373-1.752-1.543-1.676-2.188 1.075-2.024 6.361-2.32 7.367.411z" style="fill:#fff"/><linearGradient id="f" x1="-1210.316" x2="-1210.316" y1="171.952" y2="171.32" gradientTransform="translate(7978.266 -1103.139) scale(6.5701)" gradientUnits="userSpaceOnUse"><stop offset="0" style="stop-color:#a6694a"/><stop offset="1" style="stop-color:#4f2a1e"/></linearGradient><path d="M26.371 22.448c1.145 0 2.08.93 2.08 2.074a2.08 2.08 0 0 1-4.161 0c0-1.145.93-2.074 2.081-2.074z" style="fill:url(#f)"/><path d="M25.334 24.49c0 1.436 2.08 1.436 2.08 0-.006-1.334-2.08-1.334-2.08 0z" style="fill:#1a1626"/><path d="M25.018 23.908c0 .601.873.601.873 0-.007-.562-.873-.562-.873 0z" style="fill:#ab968c"/><path d="M29.97 24.648c-.841-2.713-6.596-2.308-7.38-.487.29-2.34 6.659-2.953 7.38.487z" style="fill:#deb38a"/><path d="M34.042 24.566c-.076.607.335 1.328 1.473 1.866.728.341 2.233.746 4.218-.089.892-.373 1.752-1.543 1.676-2.188-1.075-2.024-6.361-2.32-7.367.411z" style="fill:#fff"/><linearGradient id="g" x1="-1211.308" x2="-1211.308" y1="171.952" y2="171.32" gradientTransform="translate(7995.996 -1103.139) scale(6.5701)" gradientUnits="userSpaceOnUse"><stop offset="0" style="stop-color:#a6694a"/><stop offset="1" style="stop-color:#4f2a1e"/></linearGradient><path d="M37.583 22.448a2.08 2.08 0 1 1 0 4.16 2.08 2.08 0 0 1 0-4.16z" style="fill:url(#g)"/><path d="M36.546 24.49c0 1.436 2.08 1.436 2.08 0-.005-1.334-2.08-1.334-2.08 0z" style="fill:#1a1626"/><path d="M36.23 23.908c0 .601.873.601.873 0-.007-.562-.873-.562-.873 0z" style="fill:#ab968c"/><path d="M34.03 24.648c.84-2.706 6.589-2.32 7.373-.487-.285-2.34-6.653-2.953-7.374.487z" style="fill:#deb38a"/><path d="M32 15.043c3.955 0 5.952 2.306 4.663-2.141-.646-2.228-8.681-2.228-9.327 0-1.289 4.447.709 2.141 4.664 2.141z" style="fill:#eaf3fc"/><linearGradient id="h" x1="49.431" x2="34.255" y1="16.779" y2="2.565" gradientUnits="userSpaceOnUse"><stop offset="0" style="stop-color:#e05e00"/><stop offset=".138" style="stop-color:#ee6b00"/><stop offset=".322" style="stop-color:#fb7600"/><stop offset=".5" style="stop-color:#ff7a00"/><stop offset=".678" style="stop-color:#fb7600"/><stop offset=".862" style="stop-color:#ee6b00"/><stop offset="1" style="stop-color:#e05e00"/></linearGradient><path d="M30.577 2.056c9.68-.721 19.815 5.55 17.862 16.209-2.695-2.169-12.696-4.948-17.862-16.209z" style="fill:url(#h)"/><path d="M32.038 4.25c9.532 0 15.239 8.24 16.469 13.377-3.467-5.019-9.66-10.296-16.47-13.376z" style="opacity:.2;fill:#302c3b"/><linearGradient id="i" x1="48.952" x2="35.226" y1="21.364" y2="6.317" gradientUnits="userSpaceOnUse"><stop offset="0" style="stop-color:#e05e00"/><stop offset=".138" style="stop-color:#ee6b00"/><stop offset=".322" style="stop-color:#fb7600"/><stop offset=".5" style="stop-color:#ff7a00"/><stop offset=".678" style="stop-color:#fb7600"/><stop offset=".862" style="stop-color:#ee6b00"/><stop offset="1" style="stop-color:#e05e00"/></linearGradient><path d="M31.037 4.209c7.96.078 15.72 7.576 17.497 13.507.422 1.409.138 4.82-.59 5.879-2.694-2.169-11.741-8.126-16.907-19.386z" style="fill:url(#i)"/><path d="M47.944 23.595c-2.24-9.129-8.864-11.968-14.887-18.176 6.607 12.63 14.887 18.176 14.887 18.176z" style="opacity:.2;fill:#302c3b"/><linearGradient id="j" x1="47.087" x2="33.611" y1="27.778" y2="9.024" gradientUnits="userSpaceOnUse"><stop offset="0" style="stop-color:#e05e00"/><stop offset=".138" style="stop-color:#ee6b00"/><stop offset=".322" style="stop-color:#fb7600"/><stop offset=".5" style="stop-color:#ff7a00"/><stop offset=".678" style="stop-color:#fb7600"/><stop offset=".862" style="stop-color:#ee6b00"/><stop offset="1" style="stop-color:#e05e00"/></linearGradient><path d="M32.919 5.41a74.056 74.056 0 0 0-3.25 2.357c5.091 12.9 14.81 11.4 14.411 22.92 3.74-2.729 3.864-7.092 3.864-7.092-3.074-9.1-9.419-11.142-15.025-18.185z" style="fill:url(#j)"/><linearGradient id="k" x1="13.982" x2="32.068" y1="16.5" y2="1.193" gradientUnits="userSpaceOnUse"><stop offset="0" style="stop-color:#e05e00"/><stop offset=".138" style="stop-color:#ee6b00"/><stop offset=".322" style="stop-color:#fb7600"/><stop offset=".5" style="stop-color:#ff7a00"/><stop offset=".678" style="stop-color:#fb7600"/><stop offset=".862" style="stop-color:#ee6b00"/><stop offset="1" style="stop-color:#e05e00"/></linearGradient><path d="M33.423 2.056c-9.68-.721-19.815 5.55-17.863 16.209 2.695-2.169 12.696-4.948 17.863-16.209z" style="fill:url(#k)"/><path d="M31.962 4.25c-8.59-.389-15.64 7.944-16.47 13.377 3.467-5.019 9.66-10.296 16.47-13.376z" style="opacity:.2;fill:#302c3b"/><linearGradient id="l" x1="14.313" x2="31.593" y1="22.031" y2="3.378" gradientUnits="userSpaceOnUse"><stop offset="0" style="stop-color:#e05e00"/><stop offset=".138" style="stop-color:#ee6b00"/><stop offset=".322" style="stop-color:#fb7600"/><stop offset=".5" style="stop-color:#ff7a00"/><stop offset=".678" style="stop-color:#fb7600"/><stop offset=".862" style="stop-color:#ee6b00"/><stop offset="1" style="stop-color:#e05e00"/></linearGradient><path d="M32.962 4.209c-7.96.078-15.72 7.576-17.497 13.507-.422 1.409-.138 4.82.59 5.879 2.694-2.169 11.741-8.126 16.907-19.386z" style="fill:url(#l)"/><path d="M33.423 2.056c-6.533 8.895-14.846 11.07-17.368 21.539 0 0 14.72-10.77 17.368-21.539z" style="opacity:.2;fill:#302c3b"/><linearGradient id="m" x1="16.968" x2="34.185" y1="27.92" y2="2.4" gradientUnits="userSpaceOnUse"><stop offset="0" style="stop-color:#e05e00"/><stop offset=".138" style="stop-color:#ee6b00"/><stop offset=".322" style="stop-color:#fb7600"/><stop offset=".5" style="stop-color:#ff7a00"/><stop offset=".678" style="stop-color:#fb7600"/><stop offset=".862" style="stop-color:#ee6b00"/><stop offset="1" style="stop-color:#e05e00"/></linearGradient><path d="M36.632 2.446c-1.124-.615-3.21-.39-3.21-.39-6.072 9.958-13.854 11.14-17.367 21.539 0 0 .123 4.363 3.864 7.092-1.2-12.423 10.217-8.672 16.713-28.242z" style="fill:url(#m)"/></svg>