<svg xmlns="http://www.w3.org/2000/svg" xml:space="preserve" style="enable-background:new 0 0 64 64" viewBox="0 0 64 64"><path d="m50.682 16.49-36.275.677c-.61 13.096-6.671 24.219 3.627 31.633l29.606-.914c12.263-10.34.852-15.682 3.042-31.396z" style="fill:#6b4d3c"/><path d="M42.785 16.49h-26.51c-2.013 25.22 4.402 22.057 4.402 31.226h23.44c0-10.136 11.176-10.772-1.332-31.226z" style="fill:#3d2e24"/><path d="M20.114 43.641c-.333-6.091-6.926-10.062-6.938-18.277-2.583 6.325 4.85 13.402 6.938 18.277z" style="fill:#5c4233"/><path d="M17.288 46.145c.653-6.547-4.567-7.986-4.879-13.97-1.42 6.952 3.475 8.607 4.88 13.97z" style="fill:#7a5b49"/><path d="M44.36 45.205c.332-6.091 7.44-9.283 7.142-17.493 2.82 6.223-5.054 12.618-7.142 17.493z" style="fill:#5c4233"/><path d="M47.498 46.145c-.638-5.748 4.384-6.517 4.69-11.77 1.388 6.103-3.317 7.061-4.69 11.77z" style="fill:#7a5b49"/><path d="M52.785 56.192c1.013-3.11.88-6.602-.967-7.612-2.39-1.313-12.418-4.806-12.418-4.806H24.6s-9.959 3.501-12.363 4.809c-1.852 1.006-2 4.498-1 7.609h41.548z" style="fill:#916b50"/><path d="M51.818 48.58 32 57.774l-19.763-9.191C8.754 50.476 7.979 57.543 7.979 60c0 .867 3.316 1.157 8.2 1.568h31.642c4.885-.412 8.2-.7 8.2-1.568 0-2.452-.73-9.52-4.203-11.42z" style="fill:#916b50"/><radialGradient id="a" cx="31.813" cy="39.851" r="10.131" gradientTransform="matrix(1 0 0 .7898 0 8.376)" gradientUnits="userSpaceOnUse"><stop offset="0" style="stop-color:#69452d"/><stop offset="1" style="stop-color:#916b50"/></radialGradient><path d="M24.494 45.952s2.363 2.832 7.506 2.832c5.145 0 7.506-2.832 7.506-2.832v-6.035H24.495v6.035z" style="fill:url(#a)"/><path d="M48.377 20.641c-2.536.309-4.366 8.82-2.772 11.066.223.314 1.53.815 2.498-1.168.537-1.097 2.085-2.013 2.564-4.277.615-2.902.232-5.926-2.29-5.62zm-32.753 0c2.536.309 4.366 8.82 2.77 11.066-.222.314-1.53.815-2.498-1.168-.537-1.097-2.084-2.013-2.564-4.277-.615-2.902-.23-5.928 2.292-5.62z" style="fill:#916b50"/><path d="M48.307 22.275c-.66.207-1.382 1.218-1.774 2.898 2.313-.498 1.735 3.363-.275 3.434.018.389.045.789.092 1.208.968-1.408 1.952-.842 2.926-2.94.878-1.89.67-5.116-.969-4.6zm-30.841 2.892c-.391-1.675-1.112-2.686-1.772-2.892-1.639-.517-1.848 2.71-.97 4.6.974 2.098 1.957 1.532 2.927 2.94.047-.42.074-.82.09-1.21-1.988-.094-2.557-3.908-.275-3.438z" style="fill:#69452d"/><path d="M32 4.277c-10.985 0-16.277 8.97-15.616 20.501.136 2.319.78 5.663 1.573 8.528C19.604 39.262 28.297 45.26 32 45.26c3.7 0 12.394-5.998 14.043-11.954.793-2.865 1.437-6.21 1.573-8.528.66-11.532-4.63-20.501-15.616-20.501z" style="fill:#916b50"/><path d="M31.998 35.897c-2.574-1.135-2.594-.046-6.569.221C26.922 37.817 28.02 40 31.998 40c4.566 0 5.337-2.48 6.573-3.882-3.978-.267-3.995-1.356-6.572-.22z" style="fill:#a6282f"/><path d="M26.623 36.542c2.594 2.707 8.19 2.671 10.753.001-3.995.43-6.757.43-10.753-.001z" style="fill:#fff"/><path d="M43.672 20.942c-2.386-1.427-6.667-1.6-8.36-.628-.36.196-.263 1.226.047 1.097 2.416-1.01 6.097-1.059 8.365.106.303.156.31-.367-.052-.575zm-23.346 0c2.386-1.427 6.666-1.6 8.364-.628.359.196.263 1.226-.05 1.097-2.417-1.01-6.094-1.06-8.365.106-.304.156-.31-.367.05-.575z" style="fill:#523c31"/><path d="M34.469 32.237c-.262-.183-.875.1-2.47.1-1.594 0-2.208-.283-2.47-.1-.313.221.185 1.219 2.47 1.219 2.284 0 2.785-.996 2.47-1.219z" style="fill:#69452d"/><path d="M29.556 25.268c.093.729-.4 1.593-1.767 2.24-.868.413-2.673.898-5.046-.106-1.063-.45-2.1-1.85-2.006-2.624 1.286-2.43 7.616-2.786 8.819.49z" style="fill:#fff"/><linearGradient id="b" x1="-424.578" x2="-424.578" y1="478.047" y2="478.806" gradientTransform="matrix(6.5701 0 0 -6.5701 2814.782 3168.527)" gradientUnits="userSpaceOnUse"><stop offset="0" style="stop-color:#a6694a"/><stop offset="1" style="stop-color:#4f2a1e"/></linearGradient><path d="M25.26 22.726a2.49 2.49 0 0 1 2.488 2.493 2.49 2.49 0 0 1-2.487 2.493 2.49 2.49 0 0 1-2.487-2.493 2.49 2.49 0 0 1 2.487-2.493z" style="fill:url(#b)"/><path d="M24.019 25.173c0 1.725 2.487 1.725 2.487 0 0-1.601-2.487-1.601-2.487 0z" style="fill:#1a1626"/><path d="M23.64 24.474c0 .724 1.043.724 1.043 0 0-.67-1.043-.67-1.043 0z" style="fill:#ab968c"/><path d="M29.568 25.364c-.974-3.138-7.93-2.69-8.831-.586.347-2.801 7.97-3.54 8.83.586z" style="fill:#45332c"/><path d="M34.444 25.268c-.093.729.4 1.593 1.767 2.24.868.413 2.673.898 5.046-.106 1.064-.45 2.1-1.85 2.006-2.624-1.285-2.43-7.616-2.786-8.82.49z" style="fill:#fff"/><linearGradient id="c" x1="-425.234" x2="-425.234" y1="478.047" y2="478.806" gradientTransform="matrix(6.5701 0 0 -6.5701 2832.512 3168.527)" gradientUnits="userSpaceOnUse"><stop offset="0" style="stop-color:#a6694a"/><stop offset="1" style="stop-color:#4f2a1e"/></linearGradient><path d="M38.683 22.726a2.49 2.49 0 0 1 2.486 2.493 2.49 2.49 0 0 1-2.486 2.493 2.49 2.49 0 0 1-2.487-2.493 2.49 2.49 0 0 1 2.487-2.493z" style="fill:url(#c)"/><path d="M37.44 25.173c0 1.725 2.488 1.725 2.488 0 0-1.601-2.487-1.601-2.487 0z" style="fill:#1a1626"/><linearGradient id="d" x1="16.789" x2="16.789" y1="33.004" y2="31.004" gradientUnits="userSpaceOnUse"><stop offset="0" style="stop-color:#dbcdc1"/><stop offset="1" style="stop-color:#fff"/></linearGradient><path d="M15.789 31.966c0 1.383 2 1.383 2 0 0-1.283-2-1.283-2 0z" style="fill:url(#d)"/><linearGradient id="e" x1="47.211" x2="47.211" y1="33.004" y2="31.004" gradientUnits="userSpaceOnUse"><stop offset="0" style="stop-color:#dbcdc1"/><stop offset="1" style="stop-color:#fff"/></linearGradient><path d="M46.21 31.966c0 1.383 2 1.383 2 0 0-1.283-2-1.283-2 0z" style="fill:url(#e)"/><path d="M37.062 24.474c0 .724 1.042.724 1.042 0 0-.67-1.042-.67-1.042 0z" style="fill:#ab968c"/><path d="M34.433 25.364c.973-3.136 7.924-2.703 8.83-.586-.349-2.801-7.97-3.54-8.83.586zM21.69 22.65c-.125.312-.094.546-.094.546s-.405.156-.935-.25c-.074.451.078.813.078.813s-.374.2-.898-.172c.104 1.031.904 1.178.904 1.178s-.046-.907 1.83-1.76c0 0-.542.035-.885-.356z" style="fill:#45332c"/><path d="M42.309 22.65c.124.312.093.546.093.546s.405.156.935-.25c.074.451-.078.813-.078.813s.374.2.898-.172c-.103 1.031-.903 1.178-.903 1.178s.045-.907-1.83-1.76c0 0 .542.035.885-.356z" style="fill:#45332c"/><path d="M35.081 11.555c7.71 4.333 9.552 12.911 15.532 20.318 5.64-14.016-5.07-29.11-11.865-27.985 0 0-.643 4.167-3.667 7.667z" style="fill:#6b4d3c"/><path d="M35.585 11.367c8.792 5.709 9.419 14.991 14.961 20.291-6.2-10.385-3.044-15.932-13.419-23.176l-1.542 2.885z" style="fill:#5c4233"/><path d="M35.081 11.95c9.234 5.9 8.188 12.545 15.465 19.709-6.104-7.164-5.2-14.75-14.606-20.77l-.859 1.062z" style="fill:#3d2e24"/><path d="M50.365 25.78S49.65 13.33 39.263 5.673C52.872 10.006 50.365 25.78 50.365 25.78z" style="fill:#7a5b49"/><path d="M38.71 4.108c.726-1.901-9.008-3.738-17.037.328-8.068 3.817-11.607 18.433-6.905 26.544 1.028-8.584 20.06-13.164 23.942-26.872z" style="fill:#6b4d3c"/><path d="M38.71 4.108c-6.49 7.809-22.733 12.218-23.916 26.31 3.25-8.518 22.799-15.23 23.916-26.31z" style="fill:#5c4233"/><path d="M14.768 30.98c3.28-10.39 22.507-13.45 23.942-26.872C33.17 15.7 14.457 22.788 14.768 30.98z" style="fill:#3d2e24"/><path d="M13.797 18.268S19.223 7.038 31.751 3.94C17.52 2.735 13.797 18.268 13.797 18.268z" style="fill:#7a5b49"/><path d="M13.963 25.55c5.03-14.04 19.508-15.662 22.233-22.1-5.819 4.876-19.444 6.282-22.233 22.1z" style="fill:#5c4233"/><path d="M30.215 10.19c-.983 0-2.04-.678-2.04-2.162 0-1.75 1.286-2.752 2.32-3.554.583-.458 1.136-.888 1.136-1.253 0-.205.165-.366.367-.366.206 0 .37.161.37.366 0 .365.553.795 1.138 1.253 1.032.802 2.32 1.804 2.32 3.554 0 1.486-1.058 2.161-2.04 2.161-.674 0-1.371-.318-1.784-.925a2.069 2.069 0 0 1-.315.362 2.203 2.203 0 0 1-1.472.563zm2.153-2.194c0 .958.712 1.463 1.417 1.463.6 0 1.303-.376 1.303-1.431 0-1.393-1.08-2.235-2.036-2.978-.411-.32-.79-.618-1.054-.933-.26.315-.639.613-1.05.933-.954.743-2.036 1.585-2.036 2.978 0 1.055.703 1.43 1.303 1.43.362 0 .718-.135.974-.37.29-.264.442-.643.442-1.092 0-.203.165-.367.367-.367.206 0 .37.164.37.367z" style="fill:#f5f5f5"/><path d="M47.25 11.871c.567.223-.248 1.475-.817 1.25-6.598-2.604-22.292-2.593-28.866 0-.57.225-1.384-1.027-.817-1.25 7.379-2.912 23.12-2.912 30.5 0zM31.222 3.644c0 .79-1.26.79-1.26 0 0-.792 1.26-.792 1.26 0z" style="fill:#f5f5f5"/><path d="M19.247 11.543c-1.543-1.39-.271-3.061 1.79-3.232l.105.715c-1.74.146-2.327 1.175-1.395 2.004l-.5.513zm8.306-.774c-3.119-3.272-2.986-5.337-2.632-6.275.352-.923 1.2-1.531 2.268-1.629 1.399-.122 2.826.659 3.635 1.998l-.632.375c-.663-1.096-1.816-1.743-2.939-1.64-.79.07-1.388.492-1.642 1.156-.503 1.323.398 3.332 2.476 5.51l-.534.505z" style="fill:#f5f5f5"/><path d="M21.625 10.935c-1.206-1.533-.915-2.738-.633-3.32.441-.914 1.416-1.508 2.49-1.52h.03c1.147 0 2.137.656 2.72 1.802l-.655.33c-.46-.898-1.218-1.406-2.089-1.4-.795.01-1.511.442-1.832 1.103-.358.741-.163 1.648.547 2.552l-.578.453z" style="fill:#f5f5f5"/><path d="M20.887 7.907c0 .79-1.258.79-1.258 0 0-.793 1.258-.793 1.258 0zm3.948-2.279c0 .79-1.258.79-1.258 0 0-.792 1.258-.792 1.258 0zm7.943-1.984c0 .79 1.26.79 1.26 0 0-.792-1.26-.792-1.26 0zm11.977 7.899c1.542-1.39.27-3.061-1.793-3.232l-.102.715c1.738.146 2.326 1.175 1.395 2.004l.5.513z" style="fill:#f5f5f5"/><path d="M36.447 10.769c3.119-3.272 2.986-5.337 2.632-6.275-.352-.923-1.2-1.531-2.268-1.629-1.399-.122-2.826.659-3.636 1.998l.633.375c.663-1.096 1.816-1.743 2.939-1.64.79.07 1.388.492 1.642 1.156.503 1.323-.398 3.332-2.477 5.51l.535.505z" style="fill:#f5f5f5"/><path d="M42.375 10.935c1.206-1.533.915-2.738.632-3.32-.44-.914-1.415-1.508-2.489-1.52h-.03c-1.147 0-2.137.656-2.72 1.802l.655.33c.46-.898 1.218-1.406 2.089-1.4.795.01 1.511.442 1.832 1.103.358.741.162 1.648-.547 2.552l.578.453z" style="fill:#f5f5f5"/><path d="M43.113 7.907c0 .79 1.258.79 1.258 0 0-.793-1.258-.793-1.258 0zm-3.948-2.279c0 .79 1.258.79 1.258 0 0-.792-1.258-.792-1.258 0z" style="fill:#f5f5f5"/><radialGradient id="f" cx="32.001" cy="6.706" r="1.47" fx="31.401" fy="5.832" gradientTransform="matrix(1 0 0 1.5873 0 -3.938)" gradientUnits="userSpaceOnUse"><stop offset="0" style="stop-color:#4af9ff"/><stop offset=".207" style="stop-color:#46f5ff"/><stop offset=".434" style="stop-color:#3ae7ff"/><stop offset=".67" style="stop-color:#27d2ff"/><stop offset=".911" style="stop-color:#0cb3ff"/><stop offset="1" style="stop-color:#00a6ff"/></radialGradient><path d="M30.499 6.706c0 3.146 3.004 3.146 3.004 0 0-3.147-3.004-3.147-3.004 0z" style="fill:url(#f)"/><radialGradient id="g" cx="369.261" cy="681.787" r="1.223" fx="368.762" fy="681.06" gradientTransform="matrix(.866 .5 -.7937 1.3746 261.897 -1113.198)" gradientUnits="userSpaceOnUse"><stop offset="0" style="stop-color:#4af9ff"/><stop offset=".207" style="stop-color:#46f5ff"/><stop offset=".434" style="stop-color:#3ae7ff"/><stop offset=".67" style="stop-color:#27d2ff"/><stop offset=".911" style="stop-color:#0cb3ff"/><stop offset="1" style="stop-color:#00a6ff"/></radialGradient><path d="M39.484 8.01c-1.31 2.268.856 3.518 2.165 1.25 1.31-2.268-.856-3.518-2.165-1.25z" style="fill:url(#g)"/><radialGradient id="h" cx="2819.235" cy="-732.747" r="1.223" fx="2819.505" fy="-733.485" gradientTransform="matrix(-.866 .5 .7937 1.3746 3046.5 -393.727)" gradientUnits="userSpaceOnUse"><stop offset="0" style="stop-color:#4af9ff"/><stop offset=".207" style="stop-color:#46f5ff"/><stop offset=".434" style="stop-color:#3ae7ff"/><stop offset=".67" style="stop-color:#27d2ff"/><stop offset=".911" style="stop-color:#0cb3ff"/><stop offset="1" style="stop-color:#00a6ff"/></radialGradient><path d="M24.57 8.011c1.309 2.268-.856 3.518-2.166 1.25-1.309-2.268.856-3.518 2.165-1.25z" style="fill:url(#h)"/><path d="M48.13 48.161c-5.122 3.765-12.857 7.572-16.13 7.572-3.273 0-11.008-3.805-16.131-7.572-1.635-1.201-.188 6.821.373 7.336-.207 2.575-.063 6.071-.063 6.071S23.403 62 32 62c8.598 0 15.821-.432 15.821-.432s.144-3.496-.063-6.07c.561-.516 2.007-8.538.372-7.337z" style="fill:#018bc9"/><path d="M18.953 51.195c-2.755 12.071-18.39 5.071-13.42-.047-.266-2.826 3.822-2.068 4.94-3.912 1.508-2.486 2.329-2.825 7.024-.87-.927 2.418 1.863 3.048 1.456 4.83z" style="fill:#75d6ff"/><path d="M5.283 51.412c-1.798 5.429 7.84 6.636 13.31 1.011-1.474 7.051-6.65 7.676-11.314 6.218-3.474-1.086-4.267-5.108-1.996-7.23zm13.389-1.276c-6.187-2.092-7.713-5.85-2.329-3.88-5.641-.848 1.715 3.223 2.33 3.88z" style="fill:#54bfed"/><path d="M17.403 52.31c-5.655 2.213-10.553 1.98-11.87-1.162.04 6.318 9.896 3.864 11.87 1.162z" style="fill:#54bfed"/><path d="M17.978 51.12c-6.76.394-8.168-1.768-7.505-3.884-3.306 3.731.116 5.983 7.505 3.885z" style="fill:#54bfed"/><path d="M45.047 51.195c2.755 12.071 18.39 5.071 13.42-.047.266-2.826-3.822-2.068-4.94-3.912-1.508-2.486-2.329-2.825-7.024-.87.927 2.418-1.863 3.048-1.456 4.83z" style="fill:#75d6ff"/><path d="M58.717 51.412c1.798 5.429-7.84 6.636-13.31 1.011 1.474 7.051 6.65 7.676 11.314 6.218 3.475-1.086 4.267-5.108 1.996-7.23zm-13.389-1.276c6.187-2.092 7.713-5.85 2.329-3.88 5.641-.848-1.714 3.223-2.33 3.88z" style="fill:#54bfed"/><path d="M46.597 52.31c5.655 2.213 10.553 1.98 11.87-1.162-.04 6.318-9.896 3.864-11.87 1.162z" style="fill:#54bfed"/><path d="M46.022 51.12c6.76.394 8.168-1.768 7.505-3.884 3.306 3.731-.116 5.983-7.505 3.885z" style="fill:#54bfed"/></svg>