<svg xmlns="http://www.w3.org/2000/svg" xml:space="preserve" style="enable-background:new 0 0 64 64" viewBox="0 0 64 64"><path d="M45.862 11.531c-5.14-4.709-22.584-4.709-27.724 0-11.821 10.829-9.946 48.47-9.946 48.47h47.615s1.875-37.637-9.945-48.47z" style="fill:#cfd8dd"/><path d="M9.784 52.718C12.488 51.43 23 48.01 23 48.01l18-.03s10.59 3.442 13.276 4.735C58.18 54.587 59 57.144 59 59.56c0 1.231-7.746 1.997-17.369 2.295l-19.254.001C12.75 61.56 5 60.793 5 59.56c0-2.42.871-4.976 4.785-6.841z" style="fill:#f2f5f7"/><path d="M23.652 47.783h16.695L36.757 62h-9.512z" style="fill:#f2f5f7"/><path d="M22.999 41.912h18v10.205h-18z" style="fill:#f3cca8"/><path d="m41 46.91 1.491 1.131s-1.007 2.947-2.505 10.191l-7.987-6.115s6.436.111 9-5.207z" style="fill:#fff"/><path d="m23 46.91-1.49 1.131s1.005 2.947 2.503 10.191l7.986-6.115s-6.435.111-9-5.207z" style="fill:#fff"/><path d="M41.64 61.855s3.166-3.32 5.12-7.601l-2.485-2.375 3.953-.688s-2.635-2.056-5.737-3.15c0 0-2.19 6.414-5.734 13.959l4.883-.145zm-19.28.001s-3.163-3.32-5.117-7.602l2.485-2.375-3.953-.688s2.634-2.056 5.734-3.15c0 0 2.193 6.414 5.736 13.959l-4.884-.144z" style="fill:#dfe4e8"/><path d="M33 58.797c0 1.334-2 1.334-2 0 0-1.332 2-1.332 2 0z" style="fill:#fff"/><radialGradient id="a" cx="686.548" cy="-132.525" r="22.522" fx="668.527" fy="-124.353" gradientTransform="matrix(-.9613 -.0001 -.00005 -.5047 679.47 -6.606)" gradientUnits="userSpaceOnUse"><stop offset=".261" style="stop-color:#dfe4e8"/><stop offset=".364" style="stop-color:#ced3d6"/><stop offset=".503" style="stop-color:#dfe4e8"/></radialGradient><path d="M31.48 53.633c-1.083 3.06-6.67 3.888-7 3.438-.667-.918-1.29-4.627-.012-6.675.2-.315 6.185-.244 7.012 3.237z" style="fill:url(#a)"/><radialGradient id="b" cx="14.133" cy="-132.221" r="22.524" fx="-3.889" fy="-124.048" gradientTransform="matrix(.9613 -.0003 .0002 -.5047 30.933 -6.519)" gradientUnits="userSpaceOnUse"><stop offset=".261" style="stop-color:#dfe4e8"/><stop offset=".364" style="stop-color:#ced3d6"/><stop offset=".503" style="stop-color:#dfe4e8"/></radialGradient><path d="M32.519 53.633c1.083 3.06 6.669 3.888 6.999 3.436.668-.918 1.29-4.627.013-6.675-.198-.315-6.183-.244-7.012 3.239z" style="fill:url(#b)"/><linearGradient id="c" x1="70.036" x2="70.036" y1="55.571" y2="51.983" gradientTransform="matrix(1.1359 -.0002 -.0002 1 -47.544 -.138)" gradientUnits="userSpaceOnUse"><stop offset=".097" style="stop-color:#ced3d6"/><stop offset=".551" style="stop-color:#dfe4e8"/></linearGradient><path d="M32.002 55.326c-1.498.002-1.866.69-1.872-1.7-.002-2.388.37-1.7 1.868-1.702 1.498 0 1.869-.693 1.87 1.698.005 2.387-.368 1.704-1.866 1.704z" style="fill:url(#c)"/><path d="M48.44 25.454c-2.544.307-4.382 8.821-2.78 11.07.225.312 1.535.814 2.508-1.17.539-1.098 2.092-2.015 2.574-4.28.616-2.904.232-5.927-2.301-5.62zm-32.88 0c2.545.307 4.383 8.821 2.78 11.07-.224.312-1.534.814-2.509-1.17-.537-1.098-2.091-2.015-2.572-4.28-.619-2.904-.232-5.927 2.3-5.62z" style="fill:#ffd8b4"/><path d="M48.372 27.084c-.664.21-1.389 1.222-1.781 2.901 2.32-.498 1.74 3.365-.277 3.436.02.39.044.788.093 1.209.97-1.41 1.96-.845 2.937-2.942.882-1.89.673-5.118-.972-4.604zM17.41 29.98c-.395-1.677-1.117-2.687-1.782-2.896-1.642-.515-1.855 2.713-.972 4.603.978 2.097 1.966 1.532 2.94 2.942.046-.42.074-.821.089-1.21-1.996-.094-2.568-3.91-.275-3.438z" style="fill:#deb38a"/><path d="M32 9.08c-11.028 0-16.34 8.336-15.676 19.925.133 2.332 1.582 9.938 2.947 12.667 1.398 2.791 6.074 7.095 8.937 7.986 1.81.561 5.774.561 7.582 0 2.865-.891 7.543-5.195 8.94-7.986 1.37-2.73 2.814-10.333 2.945-12.667C48.344 17.417 43.03 9.08 31.999 9.08z" style="fill:#ffd8b4"/><path d="M43.982 24.604c-2.522-1.337-7.348-1.402-9.146-.47-.387.179-.131 1.443.192 1.324 2.505-.991 6.547-1.012 8.893.084.313.142.443-.753.061-.938zm-23.963 0c2.521-1.337 7.346-1.402 9.146-.47.385.179.13 1.443-.193 1.324-2.51-.991-6.546-1.012-8.895.084-.31.142-.439-.753-.058-.938z" style="fill:#826d58"/><path d="M34.976 36.177c-.315-.219-1.053.12-2.976.12-1.92 0-2.66-.339-2.975-.12-.377.266.223 1.462 2.975 1.462 2.753 0 3.355-1.196 2.976-1.462z" style="fill:#deb38a"/><path d="M29.546 29.148c.093.732-.402 1.596-1.773 2.245-.871.412-2.686.897-5.067-.107-1.066-.45-2.107-1.85-2.013-2.625 1.291-2.433 7.645-2.789 8.853.487z" style="fill:#fff"/><linearGradient id="d" x1="-1210.32" x2="-1210.32" y1="172.865" y2="172.106" gradientTransform="translate(7977.155 -1104.145) scale(6.5701)" gradientUnits="userSpaceOnUse"><stop offset="0" style="stop-color:#a6694a"/><stop offset="1" style="stop-color:#4f2a1e"/></linearGradient><path d="M25.236 26.607a2.496 2.496 0 0 1 2.497 2.492 2.496 2.496 0 0 1-2.497 2.496 2.495 2.495 0 1 1 0-4.988z" style="fill:url(#d)"/><path d="M23.987 29.054c0 1.726 2.497 1.726 2.497 0 0-1.6-2.497-1.6-2.497 0z" style="fill:#1a1626"/><path d="M23.609 28.354c0 .724 1.045.724 1.045 0 0-.668-1.045-.668-1.045 0z" style="fill:#ab968c"/><path d="M29.558 29.244c-1.014-3.253-7.926-2.771-8.865-.584.347-2.802 8.002-3.543 8.865.584z" style="fill:#deb38a"/><path d="M34.455 29.148c-.094.732.4 1.596 1.773 2.245.87.412 2.683.897 5.064-.107 1.07-.45 2.11-1.85 2.016-2.625-1.291-2.433-7.646-2.789-8.853.487z" style="fill:#fff"/><linearGradient id="e" x1="-1210.967" x2="-1210.967" y1="172.865" y2="172.106" gradientTransform="translate(7994.886 -1104.145) scale(6.5701)" gradientUnits="userSpaceOnUse"><stop offset="0" style="stop-color:#a6694a"/><stop offset="1" style="stop-color:#4f2a1e"/></linearGradient><path d="M38.708 26.607a2.495 2.495 0 1 1 0 4.988 2.495 2.495 0 1 1 0-4.988z" style="fill:url(#e)"/><path d="M37.462 29.054c0 1.726 2.497 1.726 2.497 0 0-1.6-2.497-1.6-2.497 0z" style="fill:#1a1626"/><path d="M37.081 28.354c0 .724 1.047.724 1.047 0 0-.668-1.047-.668-1.047 0z" style="fill:#ab968c"/><path d="M34.443 29.244c1.011-3.25 7.92-2.785 8.864-.584-.351-2.802-8.001-3.543-8.864.584z" style="fill:#deb38a"/><path d="m45.127 12.556-2.51 3.038c5.081 3.117 2.238 11.258 4.547 17.189.787-5.917 4.461-18.825-2.037-20.227zm-26.355 1.503 2.51 1.536c-5.082 3.117-2.138 11.258-4.446 17.188-.786-5.917-4.562-17.323 1.936-18.724z" style="fill:#403429"/><path d="M42.467 14.735c3.228-.013 3.549 5.261 3.549 5.261s.968-6.005-3.131-6.005l-.418.744zM19.103 17.34c-1.294 3.16-1.752 6.407-1.752 6.407s-.682-2.274.947-6.293l.805-.114z" style="fill:#2e2319"/><path d="M43.753 13.504c2.523-.262 3.134 3.836 3.134 3.836s.346-4.77-2.858-4.45l-.276.614z" style="fill:#2e2319"/><path d="M45.126 12.556S41.366 6 31.949 6c-10.223 0-16.667 4.581-16.886 13.451 6.261-6.173 22.755 3.425 30.063-6.895z" style="fill:#4f4236"/><path d="M45.126 12.556C44.16 9.53 39.034 6 31.949 6c3.927.277 9.103 2.222 9.636 3.451 0 0-5.432-2.927-12.761-1.643 6.72-.305 11.157 3.967 9.269 3.99-1.84.023-8.672.252-12.726 2.752 2.607-.176 7.756 1.227 7.522 1.317-5.191 2.009-15.61-2.769-17.75 3.583 8.046-6.894 23.398 4.21 29.987-6.894z" style="fill:#403429"/><path d="M45.126 12.556c-5.372 12.7-29.514-1.502-28.953 9.133-2.464-12.204 21.007 2.847 28.953-9.133z" style="fill:#2e2319"/><path d="M43.655 14.459c-2.554-5.012-10.834-6.815-10.834-6.815s8.657.495 11.508 6.144l-.674.67zm-1.312 1.135c-2.378-2.227-13.847-1.442-13.847-1.442s8.361-2.523 14.756.715l-.909.727z" style="fill:#2e2319"/><path d="M15.575 17.518S16.7 8.394 32.382 9.076c-12.893 1.787-16.807 8.442-16.807 8.442z" style="fill:#403429"/><path d="M16.545 16.994s6.213-8.131 19.853-6.08c-11.38-.333-19.853 6.08-19.853 6.08zm-.341-2.842s6.82-7.67 18.002-7.541c-12.92-1.717-18.002 7.541-18.002 7.541z" style="fill:#635547"/><path d="M32 40.968c-2.479-.73-6.157.347-6.157.347 1.401 1.523 2.425 3.504 6.157 3.504 4.275 0 5.002-2.248 6.157-3.503 0 0-3.678-1.081-6.157-.348z" style="fill:#deb38a"/><path d="M26.766 41.574c2.6 2.182 7.852 2.194 10.468 0-2.77.119-7.677.119-10.468 0z" style="fill:#fff"/><path d="M17.867 11.793C6.294 21.544 3.752 57.63 4.018 59.734c0 0 2.486 1.99 14.398 1.99-4.692-9.242-5.852-40.39-.55-49.931zm28.269 0c9.627 7.751 14.119 45.838 13.853 47.942 0 0-2.282 1.706-10.104 1.706 6.117-12.813-1.599-41.156-3.75-49.648z" style="opacity:.8;fill:#eff9ff"/><path d="M32 4c-9.539 0-12.67 4.056-15.247 8.629-.197.348 8.52 2.336 15.247 2.336 6.726 0 15.396-1.961 15.247-2.336C45.658 8.629 43.036 4 32 4z" style="opacity:.8;fill:#eff9ff"/><path d="M16.942 12.98c-.56-.244.245-1.614.806-1.369 6.516 2.852 22.012 2.84 28.504 0 .561-.245 1.366 1.125.806 1.37-7.286 3.188-22.83 3.188-30.116 0z" style="fill:#fff"/><path d="M33.763 5.98c.97 0 2.014.74 2.014 2.366 0 1.916-1.27 3.013-2.291 3.892-.576.5-1.122.973-1.122 1.372 0 .224-.163.4-.362.4-.204 0-.366-.176-.366-.4 0-.4-.546-.871-1.123-1.372-1.02-.879-2.29-1.976-2.29-3.892 0-1.627 1.044-2.367 2.014-2.367.665 0 1.354.349 1.762 1.013.1-.161.208-.294.31-.396a2.06 2.06 0 0 1 1.454-.617zm-2.127 2.4c0-1.05-.702-1.602-1.399-1.602-.592 0-1.286.411-1.286 1.567 0 1.525 1.066 2.448 2.01 3.26.406.351.78.678 1.04 1.023.258-.345.632-.672 1.038-1.022.942-.813 2.01-1.736 2.01-3.26 0-1.157-.694-1.568-1.286-1.568-.358 0-.709.149-.962.406-.286.29-.437.704-.437 1.196 0 .222-.163.402-.362.402-.204 0-.366-.18-.366-.402z" style="fill:#fff"/><path d="M32.96 5.628c0 1.335-1.92 1.335-1.92 0 0-1.34 1.92-1.34 1.92 0zm-.147 3.42c0 1.53-1.626 1.53-1.626 0 0-1.537 1.626-1.537 1.626 0zm1.841-2.917c0 .864 1.243.864 1.243 0 0-.868-1.243-.868-1.243 0zm11.106 6.403c.984-1.995-.745-3.262-2.724-2.693l.137.776c1.667-.477 2.552.373 1.954 1.568l.633.349z" style="fill:#fff"/><path d="M36.648 7.302c.78.077 1.37.54 1.622 1.266.463 1.351-.293 3.357-2.058 5.555h.962c2.221-2.988 2.091-4.915 1.777-5.84-.348-1.01-1.184-1.677-2.24-1.783-.608-.06-1.22.084-1.784.376.123.23.244.462.362.695a2.508 2.508 0 0 1 1.36-.27z" style="fill:#fff"/><path d="M42.197 13.6c1.497-1.344 1.48-2.701 1.334-3.39-.224-1.084-1.034-1.954-2.064-2.228a7.557 7.557 0 0 1-.03-.008c-1.104-.277-2.2.184-3.012 1.267l.558.511c.639-.848 1.48-1.206 2.317-.99a2.135 2.135 0 0 1 1.524 1.623c.182.878-.204 1.798-1.084 2.593l.457.623z" style="fill:#fff"/><path d="M42.973 9.205c0 .864 1.243.864 1.243 0 0-.868-1.243-.868-1.243 0zM38.292 7.76c0 1.158 1.667 1.158 1.667 0 0-1.165-1.667-1.165-1.667 0zm-8.946-1.629c0 .864-1.243.864-1.243 0 0-.868 1.243-.868 1.243 0zm5.308 6.908c0 .864 1.243.864 1.243 0 0-.868-1.243-.868-1.243 0zm-5.308 0c0 .864-1.243.864-1.243 0 0-.868 1.243-.868 1.243 0zm-11.106-.505c-.984-1.995.746-3.262 2.725-2.693l-.138.776c-1.667-.477-2.551.373-1.953 1.568l-.634.349z" style="fill:#fff"/><path d="M27.352 7.302c-.78.077-1.37.54-1.621 1.266-.464 1.351.292 3.357 2.058 5.555h-.963c-2.22-2.988-2.09-4.915-1.777-5.84.348-1.01 1.185-1.677 2.24-1.783.609-.06 1.22.084 1.785.376-.123.23-.245.462-.363.695a2.508 2.508 0 0 0-1.359-.27z" style="fill:#fff"/><path d="M21.803 13.6c-1.497-1.344-1.479-2.701-1.334-3.39.225-1.084 1.034-1.954 2.065-2.228l.029-.008c1.104-.277 2.201.184 3.013 1.267l-.559.511c-.638-.848-1.48-1.206-2.317-.99a2.135 2.135 0 0 0-1.523 1.623c-.183.878.203 1.798 1.084 2.593l-.458.623z" style="fill:#fff"/><path d="M21.027 9.205c0 .864-1.243.864-1.243 0 0-.868 1.243-.868 1.243 0zm19.405.075c0 .864 1.243.864 1.243 0 0-.868-1.243-.868-1.243 0zm-16.864 0c0 .864-1.242.864-1.242 0 0-.868 1.242-.868 1.242 0zm13.476-.725c0 .864 1.242.864 1.242 0 0-.868-1.242-.868-1.242 0zm-10.087 0c0 .864-1.243.864-1.243 0 0-.868 1.243-.868 1.243 0zm-1.249-.795c0 1.158-1.667 1.158-1.667 0 0-1.165 1.667-1.165 1.667 0zm12.584 4.776c0 1.159 1.667 1.159 1.667 0 0-1.165-1.667-1.165-1.667 0zm-12.584 0c0 1.159-1.667 1.159-1.667 0 0-1.165 1.667-1.165 1.667 0z" style="fill:#fff"/></svg>