<svg xmlns="http://www.w3.org/2000/svg" xml:space="preserve" style="enable-background:new 0 0 64 64" viewBox="0 0 64 64"><linearGradient id="a" x1="45.255" x2="55.405" y1="58.68" y2="48.529" gradientUnits="userSpaceOnUse"><stop offset="0" style="stop-color:#bd0100"/><stop offset=".083" style="stop-color:#ca0100"/><stop offset=".278" style="stop-color:#e10000"/><stop offset=".486" style="stop-color:#f20000"/><stop offset=".714" style="stop-color:#fc0000"/><stop offset="1" style="stop-color:red"/></linearGradient><path d="M52.95 46.074S56 51.212 56 58.296c0 2.858-8.848 2.281-8.848 2.281V45.881l5.798.193z" style="fill:url(#a)"/><linearGradient id="b" x1="8.595" x2="18.745" y1="48.529" y2="58.68" gradientUnits="userSpaceOnUse"><stop offset="0" style="stop-color:red"/><stop offset=".286" style="stop-color:#fc0000"/><stop offset=".514" style="stop-color:#f20000"/><stop offset=".722" style="stop-color:#e10000"/><stop offset=".917" style="stop-color:#ca0100"/><stop offset="1" style="stop-color:#bd0100"/></linearGradient><path d="M11.05 46.074S8 51.212 8 58.296c0 2.858 8.848 2.281 8.848 2.281V45.881l-5.798.193z" style="fill:url(#b)"/><linearGradient id="c" x1="32" x2="32" y1="53.042" y2="39.651" gradientUnits="userSpaceOnUse"><stop offset=".244" style="stop-color:red"/><stop offset=".614" style="stop-color:#fd0000"/><stop offset=".747" style="stop-color:#f60000"/><stop offset=".842" style="stop-color:#eb0000"/><stop offset=".918" style="stop-color:#da0100"/><stop offset=".983" style="stop-color:#c40100"/><stop offset="1" style="stop-color:#bd0100"/></linearGradient><path d="m38.643 39.437-13.286.022S11.65 44.33 11.05 46.074c5.524 6.096 5.214 11.115 5.214 11.115v3.388S18.61 62 32 62s15.737-1.423 15.737-1.423v-3.388s-.31-5.019 5.213-11.115c-.597-1.743-14.307-6.637-14.307-6.637z" style="fill:url(#c)"/><path d="M25.59 42.065s1.185 3.421 6.41 3.421 6.41-3.42 6.41-3.42v-5.689H25.59v5.688z" style="fill:#a3765a"/><path d="M40.346 40.061s-3.14 3.273-8.346 5.82V62h.62V46.49c3.61-.614 7.986-4.412 7.726-6.429z" style="fill:#ffcc14"/><linearGradient id="d" x1="36.172" x2="36.172" y1="45.881" y2="37.359" gradientUnits="userSpaceOnUse"><stop offset="0" style="stop-color:#eb0000"/><stop offset="1" style="stop-color:#b80100"/></linearGradient><path d="M39.048 37.612c-.259-.257-.637-.253-.637-.253 0 .858-2.794 2.996-4.188 3.627A3.812 3.812 0 0 0 32 44.466v1.415c2.883 0 8.346-3.71 8.346-5.82 0 0-.699-1.856-1.298-2.45z" style="fill:url(#d)"/><path d="M23.654 40.061s3.14 3.273 8.346 5.82V62h-.62V46.49c-3.61-.614-7.986-4.412-7.726-6.429z" style="fill:#ffcc14"/><linearGradient id="e" x1="3024.502" x2="3024.502" y1="45.881" y2="37.359" gradientTransform="matrix(-1 0 0 1 3052.33 0)" gradientUnits="userSpaceOnUse"><stop offset="0" style="stop-color:#eb0000"/><stop offset="1" style="stop-color:#b80100"/></linearGradient><path d="M24.952 37.612c.259-.257.637-.253.637-.253 0 .858 2.794 2.996 4.188 3.627A3.812 3.812 0 0 1 32 44.466v1.415c-2.883 0-8.346-3.71-8.346-5.82 0 0 .699-1.856 1.298-2.45z" style="fill:url(#e)"/><path d="M31.911 45.476h.178V62h-.178z" style="fill:#eb0000"/><path d="M27.238 48.875h9.524v.545h-9.524z" style="fill:#ffbe0d" transform="rotate(-180 32 49.147)"/><path d="M27.238 48.693h9.524v.363h-9.524z" style="fill:#ffcc14" transform="rotate(-180 32 48.875)"/><path d="M31.124 48.983c-.04.72 1.444.867 1.729.52-.148-.816-1.347-1.101-1.729-.52z" style="fill:#ffc629"/><path d="M32.883 48.947c-.618-.6-1.332-.646-1.701-.3-.055.052-.123.35-.058.336.69-.138 1.32.23 1.702.552.052.044.107-.54.057-.588z" style="fill:#ffde29"/><path d="M36.296 48.446c-.427.295.21 1.303.545 1.33.391-.457-.03-1.346-.545-1.33z" style="fill:#ffc629"/><path d="M37.172 49.547c.04-.66-.282-1.133-.657-1.214-.056-.012-.258.078-.219.113.413.376.512.941.514 1.327 0 .053.358-.173.361-.226z" style="fill:#ffde29"/><path d="M27.12 49.744c.497.145.859-.993.666-1.272-.597-.015-1.006.88-.666 1.272z" style="fill:#ffc629"/><path d="M27.402 48.359c-.528.389-.684.941-.507 1.286.027.051.223.152.226.099.023-.563.39-.999.683-1.246.04-.034-.36-.17-.402-.139z" style="fill:#ffde29"/><path d="M27.238 56.257h9.524v.545h-9.524z" style="fill:#ffbe0d" transform="rotate(-180 32 56.53)"/><path d="M27.238 56.075h9.524v.364h-9.524z" style="fill:#ffcc14" transform="rotate(-180 32 56.257)"/><path d="M31.124 56.366c-.04.719 1.444.866 1.729.52-.148-.816-1.347-1.102-1.729-.52z" style="fill:#ffc629"/><path d="M32.883 56.329c-.618-.6-1.332-.645-1.701-.3-.055.052-.123.35-.058.336.69-.138 1.32.23 1.702.553.052.044.107-.54.057-.59z" style="fill:#ffde29"/><path d="M36.296 55.828c-.427.296.21 1.303.545 1.33.391-.457-.03-1.346-.545-1.33z" style="fill:#ffc629"/><path d="M37.172 56.93c.04-.66-.282-1.134-.657-1.215-.056-.012-.258.078-.219.113.413.377.512.941.514 1.327 0 .053.358-.173.361-.226z" style="fill:#ffde29"/><path d="M27.12 57.126c.497.146.859-.993.666-1.272-.597-.015-1.006.88-.666 1.272z" style="fill:#ffc629"/><path d="M27.402 55.741c-.528.389-.684.941-.507 1.286.027.051.223.152.226.099.023-.563.39-.999.683-1.246.04-.034-.36-.17-.402-.139z" style="fill:#ffde29"/><path d="M44.99 20.517c-2.01.243-3.463 6.97-2.197 8.746.177.247 1.213.644 1.981-.924.426-.868 1.653-1.592 2.034-3.382.487-2.294.183-4.683-1.818-4.44zm-25.98 0c2.011.243 3.463 6.97 2.197 8.746-.178.247-1.213.644-1.983-.924-.424-.868-1.652-1.592-2.032-3.382-.489-2.294-.183-4.683 1.818-4.44z" style="fill:#b88a6f"/><path d="M44.936 21.805c-.525.165-1.098.965-1.408 2.292 1.834-.394 1.375 2.658-.219 2.715.016.307.036.622.074.955.767-1.114 1.548-.668 2.32-2.325.697-1.493.532-4.043-.767-3.637zm-24.464 2.288c-.312-1.325-.883-2.123-1.408-2.289-1.298-.406-1.466 2.144-.769 3.638.773 1.657 1.555 1.21 2.323 2.324.037-.332.059-.648.071-.956-1.577-.074-2.029-3.089-.217-2.716z" style="fill:#8c5f44"/><path d="M32 7.58c-8.714 0-12.911 6.586-12.386 15.742.105 1.843 1.25 7.852 2.328 10.009 1.105 2.205 4.8 5.606 7.062 6.31 1.43.443 4.562.443 5.99 0 2.264-.704 5.96-4.105 7.064-6.31 1.082-2.157 2.223-8.164 2.327-10.009.528-9.156-3.67-15.742-12.386-15.742z" style="fill:#b88a6f"/><path d="M41.467 19.845c-1.993-1.056-5.805-1.107-7.227-.37-.306.14-.103 1.14.153 1.045 1.978-.783 5.172-.8 7.026.067.247.112.35-.595.048-.742zm-18.934 0c1.992-1.056 5.804-1.107 7.227-.37.304.14.103 1.14-.153 1.045-1.982-.783-5.172-.8-7.028.067-.245.112-.347-.595-.046-.742z" style="fill:#5e4533"/><path d="M34.351 28.99c-.249-.174-.832.094-2.351.094-1.517 0-2.102-.268-2.35-.095-.298.21.175 1.156 2.35 1.156 2.175 0 2.65-.946 2.351-1.156z" style="fill:#8c5f44"/><path d="M30.06 23.436c.075.578-.317 1.26-1.4 1.773-.688.326-2.122.71-4.004-.085-.842-.355-1.665-1.46-1.59-2.074 1.02-1.922 6.04-2.203 6.995.386z" style="fill:#fff"/><linearGradient id="f" x1="-1210.103" x2="-1210.103" y1="171.917" y2="171.317" gradientTransform="translate(7977.155 -1104.145) scale(6.5701)" gradientUnits="userSpaceOnUse"><stop offset="0" style="stop-color:#a6694a"/><stop offset="1" style="stop-color:#4f2a1e"/></linearGradient><path d="M26.655 21.428c1.088 0 1.973.882 1.973 1.969 0 1.09-.884 1.972-1.973 1.972a1.971 1.971 0 1 1 0-3.941z" style="fill:url(#f)"/><path d="M25.669 23.361c0 1.364 1.972 1.364 1.972 0 0-1.264-1.972-1.264-1.972 0z" style="fill:#1a1626"/><path d="M25.37 22.808c0 .572.825.572.825 0 0-.527-.825-.527-.825 0z" style="fill:#ab968c"/><path d="M30.07 23.512c-.8-2.57-6.262-2.19-7.004-.462.274-2.213 6.322-2.799 7.004.462z" style="fill:#8c5f44"/><path d="M33.94 23.436c-.075.578.316 1.26 1.4 1.773.688.326 2.12.71 4.002-.085.845-.355 1.666-1.46 1.592-2.074-1.02-1.922-6.041-2.203-6.995.386z" style="fill:#fff"/><linearGradient id="g" x1="-1211.182" x2="-1211.182" y1="171.917" y2="171.317" gradientTransform="translate(7994.886 -1104.145) scale(6.5701)" gradientUnits="userSpaceOnUse"><stop offset="0" style="stop-color:#a6694a"/><stop offset="1" style="stop-color:#4f2a1e"/></linearGradient><path d="M37.3 21.428a1.971 1.971 0 1 1-1.972 1.969 1.97 1.97 0 0 1 1.972-1.97z" style="fill:url(#g)"/><path d="M36.315 23.361c0 1.364 1.973 1.364 1.973 0 0-1.264-1.973-1.264-1.973 0z" style="fill:#1a1626"/><path d="M36.014 22.808c0 .572.827.572.827 0 0-.527-.827-.527-.827 0z" style="fill:#ab968c"/><path d="M33.93 23.512c.799-2.569 6.257-2.201 7.004-.462-.278-2.213-6.322-2.799-7.004.462z" style="fill:#8c5f44"/><path d="M42.781 16.739c.52 2.92.042 6.594 1.2 9.569.319-2.396 1.23-6.239 1.359-9.57h-2.56zm-24.181 0c.036 3.151 1.078 7.008 1.418 9.57 1.158-2.975.647-6.65 1.144-9.57h-2.561z" style="fill:#6e482a"/><path d="M32 32.775c-1.959-.577-4.865.274-4.865.274 1.107 1.204 1.916 2.768 4.865 2.768 3.377 0 3.952-1.776 4.865-2.768 0 0-2.907-.853-4.865-.274z" style="fill:#8c5f44"/><path d="M27.864 33.253c2.055 1.724 6.204 1.734 8.27 0-2.188.094-6.065.094-8.27 0z" style="fill:#fff"/><linearGradient id="h" x1="32" x2="32" y1="13.851" y2="3.208" gradientUnits="userSpaceOnUse"><stop offset="0" style="stop-color:#009137"/><stop offset=".024" style="stop-color:#009338"/><stop offset=".356" style="stop-color:#00a740"/><stop offset=".683" style="stop-color:#00b444"/><stop offset="1" style="stop-color:#00b846"/></linearGradient><path d="M32 3.208c-6.897.001-6.758 9.623-6.758 9.623 4.512 1.36 9.006 1.36 13.517 0-.166-2.339.324-9.623-6.76-9.622z" style="fill:url(#h)"/><linearGradient id="i" x1="25.339" x2="25.339" y1="13.328" y2="3.208" gradientUnits="userSpaceOnUse"><stop offset="0" style="stop-color:#bd0100"/><stop offset=".254" style="stop-color:#da0100"/><stop offset=".508" style="stop-color:#e00"/><stop offset=".759" style="stop-color:#fb0000"/><stop offset="1" style="stop-color:red"/></linearGradient><path d="M18.678 12.03s2.426 2.275 6.564.801c0-1.348 1.441-8.165 6.758-9.622-9.242 0-13.065 6.406-13.322 8.82z" style="fill:url(#i)"/><linearGradient id="j" x1="38.66" x2="38.66" y1="13.328" y2="3.208" gradientUnits="userSpaceOnUse"><stop offset="0" style="stop-color:#bd0100"/><stop offset=".254" style="stop-color:#da0100"/><stop offset=".508" style="stop-color:#e00"/><stop offset=".759" style="stop-color:#fb0000"/><stop offset="1" style="stop-color:red"/></linearGradient><path d="M32 3.208c5.316 1.458 6.758 8.275 6.758 9.623 4.137 1.474 6.563-.802 6.563-.802-.257-2.414-4.08-8.82-13.321-8.82z" style="fill:url(#j)"/><path d="M45.321 12.03c-.776.126-4.737.639-13.321.639s-12.546-.513-13.322-.64c-.95-.155-1.081 4.736-.14 5.238.491.262 4.69 1.227 13.462 1.227 8.77 0 12.97-.965 13.46-1.227.943-.502.812-5.393-.139-5.238z" style="fill:#302c3b"/><linearGradient id="k" x1="32" x2="32" y1="3.812" y2="2" gradientUnits="userSpaceOnUse"><stop offset="0" style="stop-color:#bd0100"/><stop offset=".254" style="stop-color:#da0100"/><stop offset=".508" style="stop-color:#e00"/><stop offset=".759" style="stop-color:#fb0000"/><stop offset="1" style="stop-color:red"/></linearGradient><path d="M30.344 3.282c0 .707 3.311.707 3.311 0 0-.709-.74-1.282-1.654-1.282-.914 0-1.657.573-1.657 1.282z" style="fill:url(#k)"/><path d="M32.175 15.062h2.05l-.08-.231a2.26 2.26 0 0 0-1.612-1.478l-.084.34c.561.136 1.021.51 1.27 1.019h-1.544v-.38c.294.014.584.061.907.17-.19-.306-.547-.47-.907-.515v-.66h-.35v.66c-.36.044-.717.209-.907.515a3.29 3.29 0 0 1 .907-.17v.38H30.28c.252-.51.726-.893 1.286-1.024l-.08-.34a2.287 2.287 0 0 0-1.634 1.483l-.078.231h2.05v.315h-2.05v.35h2.05v.316h-2.05l.078.231a2.26 2.26 0 0 0 1.613 1.478l.084-.34a1.91 1.91 0 0 1-1.27-1.019h1.545v.38a3.255 3.255 0 0 1-.908-.17c.19.306.547.47.908.515v.66h.35v-.66c.36-.044.716-.209.906-.515a3.295 3.295 0 0 1-.906.17v-.38h1.543c-.252.51-.726.893-1.286 1.024l.08.34a2.288 2.288 0 0 0 1.634-1.483l.078-.23h-2.05v-.316h2.05v-.35h-2.05v-.316z" style="fill:#ffde29"/></svg>