<svg xmlns="http://www.w3.org/2000/svg" xml:space="preserve" style="enable-background:new 0 0 64 64" viewBox="0 0 64 64"><path d="M38.902 39.481c-2.787-2.287-11.027-2.268-13.81.025-4.361 3.595 4.477 22.486 6.916 22.486 2.44 0 11.265-18.923 6.894-22.51z" style="fill:#006dae"/><path d="M38.975 40.909c0-1.239.255-1.099-.073-1.427-2.575-2.582-11.282-2.616-13.81.024-.317.332-.05.24-.05 1.403 0 5.814 13.933 5.814 13.933 0z" style="fill:#005c94"/><path d="M38.419 39.492v-3.92H25.597v3.92c0 5.814 12.822 5.814 12.822 0z" style="fill:#f3cca8"/><path d="m16.271 61.831.584-15.747s-3.037-1.575-2.987-1.607C10.873 46.36 8 50.334 8 58.106c0 2.423 3.66 3.725 8.271 3.725z" style="fill:#006dae"/><path d="m16.271 61.831.433.027s7.309-3.85 15.846.142h.6v-2.208c0-.326-.128-.628-.356-.831-1.526-1.356-7.68-6.878-7.68-19.48 0-.148-.536-.14-.56.206-.117 1.737-9.897 6.107-10.414 4.406-.03-.099-.544-.02-.473.247.87 3.255 2.604 10.363 2.604 16.099v1.392z" style="fill:#302c3b"/><path d="m16.704 61.858 3.77.028c4.2-1.963 6.313.073 6.313.073s3.71.041 5.763.041v-1.844a1.11 1.11 0 0 0-.347-.825c-1.503-1.375-7.648-7.023-7.648-19.644 0-.354-2.516.734-2.59.832-1.103 1.456-3.32 2.049-5.11 2.194-.207.017-2.75 1.182-2.715 1.38.317 1.246 2.564 9.149 2.564 16.346v1.419z" style="fill:#f59e01"/><path d="M26.787 61.959c-2.488-8.16-4.97-16.542-4.822-21.44-1.554.56-3.528 1.42-5.11 2.195.178 3.226 1.688 11.22 3.62 19.172l6.311.073z" style="fill:#fff82c"/><path d="m47.729 61.831-.584-15.747s3.037-1.575 2.987-1.607C53.127 46.36 56 50.334 56 58.106c0 2.423-3.66 3.725-8.271 3.725z" style="fill:#006dae"/><path d="m47.729 61.831-.433.027s-7.309-3.85-15.846.142h-.6v-2.208c0-.326.128-.628.356-.831 1.526-1.356 7.68-6.878 7.68-19.48 0-.148.536-.14.56.206.117 1.737 9.897 6.107 10.414 4.406.03-.099.544-.02.473.247-.87 3.255-2.604 10.363-2.604 16.099v1.392z" style="fill:#302c3b"/><path d="m47.296 61.858-3.77.028c-4.2-1.963-6.313.073-6.313.073S33.502 62 31.45 62v-1.844c0-.322.124-.621.347-.825 1.502-1.375 7.648-7.023 7.648-19.644 0-.354 2.516.734 2.59.832 1.103 1.456 3.32 2.049 5.11 2.194.207.017 2.75 1.182 2.715 1.38-.317 1.246-2.564 9.149-2.564 16.346v1.419z" style="fill:#f59e01"/><path d="M37.214 61.959c2.487-8.16 4.97-16.542 4.821-21.44 1.554.56 3.528 1.42 5.11 2.195-.178 3.226-1.688 11.22-3.62 19.172l-6.311.073z" style="fill:#fff82c"/><path d="M18.843 26.405s.403 3.906-.59 6.536c1.396-.15 1.757-.855 1.757-.855s-.048 1.83-.758 3.112c1.312.217 2.118-.433 2.118-.433s0 1.384.103 2.335c3.822-.987 3.593-5.435 3.593-5.435l-6.223-5.26zm26.903 6.536c-.993-2.636-.59-6.536-.59-6.536l-6.217 5.26s-.229 4.448 3.593 5.435c.103-.951.103-2.335.103-2.335s.806.65 2.118.433c-.716-1.276-.758-3.112-.758-3.112s.355.705 1.752.855z" style="fill:#2e2319"/><path d="M45.018 21.536c-2.016.247-3.473 6.994-2.203 8.775.175.247 1.216.644 1.987-.927.427-.872 1.655-1.595 2.04-3.394.487-2.3.187-4.695-1.824-4.454zm-26.038 0c2.017.247 3.474 6.994 2.204 8.775-.175.247-1.216.644-1.986-.927-.428-.872-1.656-1.595-2.04-3.394-.488-2.3-.181-4.695 1.823-4.454z" style="fill:#ffd8b4"/><path d="M44.964 22.83c-.524.169-1.101.97-1.408 2.3 1.835-.398 1.378 2.665-.217 2.726.012.306.036.625.072.956.77-1.119 1.553-.668 2.33-2.335.692-1.498.53-4.056-.777-3.647zm-24.52 2.293c-.313-1.33-.885-2.13-1.409-2.293-1.3-.41-1.469 2.149-.77 3.647.776 1.661 1.559 1.216 2.329 2.336.036-.338.06-.65.072-.963-1.583-.073-2.034-3.094-.223-2.727z" style="fill:#deb38a"/><path d="M32 8.56c-8.734 0-12.94 7.114-12.417 16.256.108 1.836.62 4.49 1.252 6.765 1.306 4.725 7.084 9.48 11.164 9.48 4.081 0 9.853-4.755 11.165-9.48.632-2.275 1.144-4.923 1.252-6.765C44.94 15.674 40.733 8.56 32 8.56z" style="fill:#ffd8b4"/><path d="M41.491 20.862c-1.998-1.06-5.82-1.107-7.24-.373-.307.144-.103 1.143.15 1.047 1.986-.782 5.188-.8 7.042.066.247.12.35-.59.048-.74zm-18.983 0c1.998-1.06 5.82-1.107 7.247-.373.307.144.102 1.143-.15 1.047-1.987-.782-5.183-.8-7.043.066-.253.12-.355-.59-.054-.74z" style="fill:#826d58"/><path d="M34.359 30.04c-.247-.174-.837.096-2.36.096-1.522 0-2.106-.27-2.359-.096-.3.21.175 1.162 2.36 1.162 2.178 0 2.654-.951 2.359-1.162zM32 33.64c-1.963-.579-4.876.276-4.876.276 1.108 1.21 1.92 2.775 4.876 2.775 3.382 0 3.96-1.776 4.875-2.775 0-.006-2.913-.86-4.875-.277z" style="fill:#deb38a"/><path d="M27.859 34.115c2.058 1.727 6.217 1.74 8.287 0-2.196.096-6.079.096-8.287 0zm2.196-9.648c.073.578-.319 1.264-1.402 1.776-.692.325-2.125.71-4.014-.085-.843-.355-1.668-1.468-1.595-2.082 1.023-1.926 6.055-2.209 7.011.391z" style="fill:#fff"/><linearGradient id="a" x1="-1210.274" x2="-1210.274" y1="171.922" y2="171.32" gradientTransform="translate(7978.266 -1103.139) scale(6.5701)" gradientUnits="userSpaceOnUse"><stop offset="0" style="stop-color:#a6694a"/><stop offset="1" style="stop-color:#4f2a1e"/></linearGradient><path d="M26.643 22.45c1.09 0 1.98.886 1.98 1.975s-.885 1.974-1.98 1.974c-1.09 0-1.98-.885-1.98-1.974s.884-1.974 1.98-1.974z" style="fill:url(#a)"/><path d="M25.656 24.395c0 1.366 1.98 1.366 1.98 0-.006-1.27-1.98-1.27-1.98 0z" style="fill:#1a1626"/><path d="M25.355 23.841c0 .572.83.572.83 0-.006-.535-.83-.535-.83 0z" style="fill:#ab968c"/><path d="M30.067 24.545c-.8-2.582-6.277-2.196-7.023-.463.276-2.227 6.337-2.81 7.023.463z" style="fill:#deb38a"/><path d="M33.944 24.467c-.073.578.319 1.264 1.402 1.776.692.325 2.125.71 4.015-.085.848-.355 1.667-1.468 1.595-2.082-1.024-1.926-6.055-2.209-7.012.391z" style="fill:#fff"/><linearGradient id="b" x1="-1211.349" x2="-1211.349" y1="171.922" y2="171.32" gradientTransform="translate(7995.996 -1103.139) scale(6.5701)" gradientUnits="userSpaceOnUse"><stop offset="0" style="stop-color:#a6694a"/><stop offset="1" style="stop-color:#4f2a1e"/></linearGradient><circle cx="37.314" cy="24.431" r="1.98" style="fill:url(#b)"/><path d="M36.327 24.395c0 1.366 1.98 1.366 1.98 0-.006-1.27-1.98-1.27-1.98 0z" style="fill:#1a1626"/><path d="M36.026 23.841c0 .572.83.572.83 0-.005-.535-.83-.535-.83 0z" style="fill:#ab968c"/><path d="M33.932 24.545c.8-2.576 6.271-2.208 7.018-.463-.271-2.227-6.332-2.81-7.018.463z" style="fill:#deb38a"/><path d="M23.772 9.927c4.574 4.363 18.189 7.095 20.548 16.707-3.22-9.648-15.059-6.94-20.548-16.707z" style="fill:#2e2319"/><path d="M32.132 6.153c-5.315 0-7.969 2.407-8.51 3.55 6.626 10.118 17.857 6.693 20.698 16.937 5.712-9.094.969-20.487-12.188-20.487z" style="fill:#403429"/><path d="M32.132 6.153c-4.733 0-7.853 1.922-8.51 3.55 2.291 6.175 18.023 6.363 21.07 14.567-.641-5.888-5.306-9.815-5.306-9.815s4.196 2.71 6.282 6.535c-.388-5.492-4.718-8.654-4.718-8.654s3.904 2.71 5.193 5.833c-.762-6.332-3.803-12.016-14.011-12.016z" style="fill:#4f4236"/><path d="M43.361 12.498c-4.39-7.394-13.818-5.445-13.818-5.445s7.845.408 13.818 5.446z" style="fill:#635547"/><path d="M43.745 17.101c-6.304-11.798-18.09-7.936-18.09-7.936s10.195-.393 18.09 7.936z" style="fill:#635547"/><path d="M26.322 10.79c6.494 2.407 13.948 6.745 13.948 6.745s-4.407-6.62-13.948-6.745z" style="fill:#635547"/><path d="M23.621 9.704c-6.422 1.468-8.492 12.308-3.683 16.93.596-4.93 1.174-8.095 4.448-11.43 0 0 .192-2.93-.765-5.5z" style="fill:#403429"/><path d="M24.235 14.825s-4.219 3.913-4.297 11.809c.722-7.824 4.49-11.357 4.49-11.357l-.193-.451z" style="fill:#2e2319"/><path d="M23.688 9.927s-7.452 2.545-5.327 12.8c.048-.826.162-1.59.313-2.31-.014 1.279.177 2.684.668 4.219.644-7.126 4.779-10.605 4.779-10.605l-.433-4.104z" style="fill:#4f4236"/><path d="M19.1 20.297c.951-5.326 5.18-8.838 5.18-8.838s-5.88.388-5.18 8.838z" style="fill:#635547"/><path d="M23.621 9.704c-1.751 7.944 6.645 9.503 10.202 9.503-6.392-4.43-10.202-9.503-10.202-9.503z" style="fill:#403429"/><path d="M23.41 11.118c.17 4.55 2.649 7.39 10.413 8.089-6.073.41-11.345-2.624-10.412-8.089z" style="fill:#2e2319"/><path d="M23.621 9.704s-.972 7.154 10.202 9.503c-6.158-4.752-7.271-7.496-10.202-9.503z" style="fill:#4f4236"/><path d="M30.038 17.126c-1.97-1.286-5.151-5.928-5.151-5.928s.622 4.795 5.15 5.928z" style="fill:#635547"/><radialGradient id="c" cx="32.031" cy="9.283" r="13.485" fx="31.991" fy="-2.621" gradientTransform="matrix(1 0 0 .5867 0 5.93)" gradientUnits="userSpaceOnUse"><stop offset="0" style="stop-color:#ffe12c"/><stop offset=".38" style="stop-color:#ffdf29"/><stop offset=".627" style="stop-color:#ffd721"/><stop offset=".837" style="stop-color:#ffca12"/><stop offset="1" style="stop-color:#fb0"/></radialGradient><path d="M46.911 18.878H17.087c0-8.648 2.44-15.372 14.913-15.372 12.472 0 14.911 6.724 14.911 15.372z" style="fill:url(#c)"/><linearGradient id="d" x1="32" x2="32" y1="20.208" y2="14.926" gradientUnits="userSpaceOnUse"><stop offset="0" style="stop-color:#fb0"/><stop offset=".342" style="stop-color:#ffcd15"/><stop offset=".717" style="stop-color:#ffdc26"/><stop offset="1" style="stop-color:#ffe12c"/></linearGradient><path d="M48.115 19.548c-.523-2.004-5.53-4.068-10.53-4.458-2.787-.218-8.383-.218-11.17 0-4.999.39-10.007 2.454-10.53 4.458a.533.533 0 0 0 .513.66h31.204c.335 0 .6-.326.513-.66z" style="fill:url(#d)"/><path d="M37.113 15.437c.347-.3.412-10.958 0-11.463-.86-1.053-9.364-1.053-10.224 0-.412.505-.348 11.163 0 11.463.364.314 9.86.314 10.224 0z" style="opacity:.5;fill:#ffa200"/><linearGradient id="e" x1="32.001" x2="32.001" y1="16.037" y2="2" gradientUnits="userSpaceOnUse"><stop offset="0" style="stop-color:#fb0"/><stop offset=".175" style="stop-color:#ffc107"/><stop offset=".434" style="stop-color:#ffd31b"/><stop offset=".6" style="stop-color:#ffe12c"/><stop offset=".8" style="stop-color:#ffea66"/><stop offset="1" style="stop-color:#ffe12c"/></linearGradient><path d="M26.889 15.437V3.974C26.889 3.06 28.248 2 32 2s5.112 1.06 5.112 1.974v11.463c0 .8-10.224.8-10.224 0z" style="fill:url(#e)"/></svg>