<svg xmlns="http://www.w3.org/2000/svg" xml:space="preserve" style="enable-background:new 0 0 64 64" viewBox="0 0 64 64"><path d="M37.678 31.433h-11.34c-2.481 2.24-3.926 7.904-2.572 12.154H40.25c1.354-4.25-.09-9.915-2.571-12.154z" style="fill:#6e482a"/><path d="M36.986 31.433H27.03c-2.178 2.24-3.447 7.904-2.258 12.154h14.472c1.188-4.25-.08-9.915-2.258-12.154z" style="fill:#52351f"/><path d="M38.614 39.481c-2.67-2.287-10.567-2.268-13.234.025-4.18 3.595 4.29 22.486 6.628 22.486 2.337 0 10.795-18.923 6.606-22.51z" style="fill:#006dae"/><path d="M38.684 40.91c0-1.24.245-1.1-.07-1.428-2.467-2.582-10.812-2.616-13.234.024-.304.332-.049.24-.049 1.403 0 5.814 13.353 5.814 13.353 0z" style="fill:#005c94"/><path d="M38.151 39.492v-3.92H25.864v3.92c0 5.814 12.287 5.814 12.287 0z" style="fill:#a3765a"/><path d="m16.927 61.831.56-15.747s-2.911-1.575-2.864-1.607C11.753 46.36 9 50.335 9 58.106c0 2.424 3.507 3.725 7.927 3.725z" style="fill:#006dae"/><path d="m16.927 61.831.414.027s7.005-3.85 15.186.142h.576v-2.208a1.13 1.13 0 0 0-.342-.831c-1.463-1.356-7.36-6.878-7.36-19.48 0-.148-.514-.14-.536.206-.113 1.737-9.486 6.107-9.98 4.406-.03-.099-.522-.02-.454.247.833 3.255 2.496 10.363 2.496 16.099v1.392z" style="fill:#302c3b"/><path d="m17.341 61.858 3.613.028c4.026-1.963 6.05.073 6.05.073S30.56 62 32.527 62v-1.844c0-.322-.12-.621-.332-.825-1.44-1.375-7.33-7.023-7.33-19.644 0-.354-2.41.734-2.482.832-1.057 1.456-3.18 2.049-4.896 2.194-.2.017-2.637 1.182-2.603 1.38.304 1.246 2.457 9.149 2.457 16.346v1.419z" style="fill:#f59e01"/><path d="M27.004 61.959c-2.384-8.16-4.764-16.542-4.621-21.44-1.489.56-3.38 1.42-4.896 2.195.17 3.226 1.617 11.22 3.467 19.172l6.05.073z" style="fill:#fff82c"/><path d="m47.073 61.831-.56-15.747s2.911-1.575 2.864-1.607C52.247 46.36 55 50.335 55 58.106c0 2.424-3.507 3.725-7.927 3.725z" style="fill:#006dae"/><path d="m47.073 61.831-.414.027s-7.005-3.85-15.186.142h-.576v-2.208c0-.326.124-.628.342-.831 1.463-1.356 7.36-6.878 7.36-19.48 0-.148.514-.14.536.206.113 1.737 9.486 6.107 9.98 4.406.03-.099.522-.02.454.247-.833 3.255-2.496 10.363-2.496 16.099v1.392z" style="fill:#302c3b"/><path d="m46.659 61.858-3.613.028c-4.026-1.963-6.05.073-6.05.073S33.44 62 31.473 62v-1.844c0-.322.12-.621.332-.825 1.44-1.375 7.33-7.023 7.33-19.644 0-.354 2.41.734 2.482.832 1.057 1.456 3.18 2.049 4.896 2.194.2.017 2.637 1.182 2.603 1.38-.304 1.246-2.457 9.149-2.457 16.346v1.419z" style="fill:#f59e01"/><path d="M36.996 61.959c2.384-8.16 4.763-16.542 4.621-21.44 1.489.56 3.38 1.42 4.896 2.195-.17 3.226-1.617 11.22-3.467 19.172l-6.05.073z" style="fill:#fff82c"/><path d="M45.029 21.494c-2.017.244-3.472 6.994-2.205 8.775.178.249 1.217.646 1.987-.927.427-.87 1.657-1.596 2.038-3.391.49-2.302.185-4.7-1.82-4.457zm-26.041 0c2.016.244 3.471 6.994 2.203 8.775-.177.249-1.217.646-1.987-.927-.426-.87-1.657-1.596-2.038-3.391-.489-2.302-.183-4.7 1.822-4.457z" style="fill:#b88a6f"/><path d="M44.973 22.789c-.525.165-1.099.966-1.41 2.298 1.838-.395 1.378 2.667-.219 2.724.014.308.035.625.073.958.77-1.117 1.552-.668 2.326-2.333.698-1.498.533-4.056-.77-3.647zm-24.52 2.293c-.312-1.328-.884-2.13-1.41-2.293-1.302-.41-1.469 2.149-.77 3.647.774 1.665 1.555 1.216 2.327 2.333.037-.334.058-.652.071-.96-1.58-.075-2.033-3.1-.218-2.727z" style="fill:#8c5f44"/><path d="M32.008 8.515c-8.734 0-12.941 7.113-12.416 16.26.109 1.838.62 4.49 1.251 6.762 1.31 4.723 8.221 9.479 11.165 9.479 2.942 0 9.854-4.756 11.164-9.48.632-2.271 1.143-4.923 1.251-6.762.524-9.146-3.68-16.259-12.415-16.259z" style="fill:#b88a6f"/><path d="M32.007 33.592c-2.047-.9-2.063-.037-5.223.175 1.186 1.347 2.06 3.078 5.221 3.078 3.63 0 4.244-1.966 5.227-3.078-3.164-.212-3.177-1.076-5.225-.175z" style="fill:#a35a3b"/><path d="M27.733 34.103c2.062 2.146 6.512 2.118 8.549.001-3.176.341-5.372.341-8.55-.001z" style="fill:#fff"/><path d="M41.288 21.732c-1.897-1.132-5.301-1.27-6.647-.498-.286.155-.21.972.037.87 1.921-.8 4.848-.84 6.651.084.241.124.247-.291-.04-.456zm-18.562 0c1.897-1.132 5.3-1.27 6.65-.498.285.155.209.972-.039.87-1.922-.8-4.845-.84-6.65.084-.243.124-.248-.291.039-.456z" style="fill:#5e4533"/><path d="M33.97 30.69c-.207-.147-.695.078-1.963.078-1.268 0-1.755-.225-1.963-.079-.25.175.146.966 1.963.966s2.214-.79 1.964-.966z" style="fill:#8c5f44"/><path d="M30.065 25.162c.074.578-.319 1.264-1.405 1.777-.69.327-2.125.712-4.012-.084-.845-.356-1.67-1.467-1.595-2.08 1.023-1.928 6.055-2.21 7.012.387z" style="fill:#fff"/><linearGradient id="a" x1="-424.367" x2="-424.367" y1="478.14" y2="478.742" gradientTransform="matrix(6.5701 0 0 -6.5701 2814.782 3168.527)" gradientUnits="userSpaceOnUse"><stop offset="0" style="stop-color:#a6694a"/><stop offset="1" style="stop-color:#4f2a1e"/></linearGradient><path d="M26.65 23.146a1.977 1.977 0 1 1 0 3.954 1.977 1.977 0 0 1 0-3.954z" style="fill:url(#a)"/><path d="M25.663 25.087c0 1.368 1.977 1.368 1.977 0 0-1.27-1.977-1.27-1.977 0z" style="fill:#1a1626"/><path d="M25.362 24.533c0 .574.828.574.828 0 0-.531-.828-.531-.828 0z" style="fill:#ab968c"/><path d="M30.074 25.238c-.803-2.58-6.276-2.199-7.021-.464.276-2.221 6.337-2.808 7.02.464z" style="fill:#45332c"/><path d="M33.95 25.162c-.073.578.32 1.264 1.405 1.777.69.327 2.126.712 4.012-.084.847-.356 1.67-1.467 1.595-2.08-1.021-1.928-6.054-2.21-7.011.387z" style="fill:#fff"/><linearGradient id="b" x1="-425.441" x2="-425.441" y1="478.14" y2="478.742" gradientTransform="matrix(6.5701 0 0 -6.5701 2832.512 3168.527)" gradientUnits="userSpaceOnUse"><stop offset="0" style="stop-color:#a6694a"/><stop offset="1" style="stop-color:#4f2a1e"/></linearGradient><path d="M37.32 23.146a1.977 1.977 0 1 1 0 3.954 1.977 1.977 0 0 1 0-3.954z" style="fill:url(#b)"/><path d="M36.333 25.087c0 1.368 1.978 1.368 1.978 0 0-1.27-1.978-1.27-1.978 0z" style="fill:#1a1626"/><path d="M36.032 24.533c0 .574.83.574.83 0 0-.531-.83-.531-.83 0z" style="fill:#ab968c"/><path d="M33.943 25.238c.801-2.578 6.27-2.21 7.02-.464-.278-2.221-6.337-2.808-7.02.464z" style="fill:#45332c"/><path d="M39.393 17.338c1.166 3.036 4.881 3.39 4.874 7.9 4.04-5.405-1.468-8.627-1.468-8.627l-3.406.727z" style="fill:#805837"/><path d="M39.98 18.297c1.183 1.804 4.122 3.165 4.287 6.941 1.22-2.347-.628-5.468-2.137-7.042l-2.15.101z" style="fill:#6e482a"/><path d="M39.604 18.573c2.19 2.259 3.863 3.405 4.663 6.666.565-3.096-2.455-5.108-3.549-6.7l-1.114.034z" style="fill:#52351f"/><path d="M24.623 17.338c-1.166 3.036-4.881 3.39-4.874 7.9-4.04-5.405 1.468-8.627 1.468-8.627l3.406.727z" style="fill:#805837"/><path d="M24.035 18.297c-1.182 1.804-4.121 3.165-4.286 6.941-1.22-2.347.628-5.468 2.137-7.042l2.15.101z" style="fill:#6e482a"/><path d="M24.412 18.573c-2.19 2.259-3.863 3.405-4.663 6.666-.565-3.096 2.455-5.108 3.549-6.7l1.114.034z" style="fill:#52351f"/><radialGradient id="c" cx="-9.35" cy="9.283" r="13.484" fx="-9.389" fy="-2.621" gradientTransform="matrix(.9609 0 0 .5867 41.014 5.93)" gradientUnits="userSpaceOnUse"><stop offset="0" style="stop-color:#ffe12c"/><stop offset=".38" style="stop-color:#ffdf29"/><stop offset=".627" style="stop-color:#ffd721"/><stop offset=".837" style="stop-color:#ffca12"/><stop offset="1" style="stop-color:#fb0"/></radialGradient><path d="M46.328 18.878H17.67c0-8.648 2.345-15.372 14.33-15.372 11.984 0 14.328 6.724 14.328 15.372z" style="fill:url(#c)"/><linearGradient id="d" x1="32" x2="32" y1="20.208" y2="14.926" gradientUnits="userSpaceOnUse"><stop offset="0" style="stop-color:#fb0"/><stop offset=".342" style="stop-color:#ffcd15"/><stop offset=".717" style="stop-color:#ffdc26"/><stop offset="1" style="stop-color:#ffe12c"/></linearGradient><path d="M47.484 19.548c-.502-2.004-5.314-4.068-10.117-4.458-2.678-.218-8.056-.218-10.734 0-4.803.39-9.615 2.454-10.117 4.458-.084.334.17.66.493.66h29.983c.322 0 .576-.326.492-.66z" style="fill:url(#d)"/><path d="M36.913 15.437c.334-.3.395-10.958 0-11.463-.827-1.053-8.997-1.053-9.824 0-.396.505-.334 11.163 0 11.463.35.314 9.474.314 9.824 0z" style="opacity:.5;fill:#ffa200"/><linearGradient id="e" x1="32.001" x2="32.001" y1="16.037" y2="2" gradientUnits="userSpaceOnUse"><stop offset="0" style="stop-color:#fb0"/><stop offset=".175" style="stop-color:#ffc107"/><stop offset=".434" style="stop-color:#ffd31b"/><stop offset=".6" style="stop-color:#ffe12c"/><stop offset=".8" style="stop-color:#ffea66"/><stop offset="1" style="stop-color:#ffe12c"/></linearGradient><path d="M27.089 15.437V3.974C27.089 3.06 28.395 2 32 2s4.912 1.06 4.912 1.974v11.463c0 .8-9.824.8-9.824 0z" style="fill:url(#e)"/></svg>