<svg xmlns="http://www.w3.org/2000/svg" xml:space="preserve" viewBox="0 0 64 64"><radialGradient id="a" cx="32" cy="32" r="32.038" gradientUnits="userSpaceOnUse"><stop offset=".321" style="stop-color:#fff"/><stop offset=".567" style="stop-color:#fcfdfd"/><stop offset=".732" style="stop-color:#f3f6f7"/><stop offset=".873" style="stop-color:#e4e9ec"/><stop offset="1" style="stop-color:#cfd8dd"/></radialGradient><path fill="url(#a)" d="M59.871 23.619c-3.297 5.914-8.045 8.792-7.717 2.438C52.793 13.459 43.263 3 32 3S11.207 13.46 11.846 26.057c.328 6.354-4.421 3.477-7.718-2.438-1.073-1.92-4.231 11.891 8.675 19.602.572 7.02 1.467 14.908 2.861 16.881 2.311 3.26 5.183-3.398 8.9-3.398 3.717 0 3.721 4.191 7.436 4.191s3.719-4.191 7.436-4.191c3.718 0 6.59 6.658 8.9 3.398 1.395-1.973 2.289-9.861 2.861-16.881 12.907-7.711 9.748-21.522 8.674-19.602z"/><path fill="#CFD8DD" d="M61.662 24.164c-.316-1.146-.844-1.726-1.564-1.726-.215 0-.748.067-1.098.693-2.373 4.253-5.006 5.914-5.461 5.43-.115-.12-.479-.652-.387-2.454.33-6.526-2.004-12.925-6.404-17.556C42.731 4.327 37.494 2 32 2S21.27 4.327 17.252 8.551c-4.401 4.631-6.735 11.029-6.405 17.556.094 1.802-.271 2.334-.387 2.454-.453.476-3.088-1.176-5.46-5.43-.35-.626-.884-.693-1.099-.693-.722 0-1.248.58-1.563 1.727-.847 3.067-.873 13.164 9.51 19.646 1.072 12.822 2.224 15.77 3.001 16.869.621.875 1.377 1.32 2.247 1.32 1.299 0 2.461-1.016 3.691-2.092 1.18-1.033 2.52-2.205 3.776-2.205 1.409 0 2.099.775 2.971 1.76.963 1.084 2.159 2.432 4.466 2.432s3.503-1.348 4.465-2.432c.873-.984 1.563-1.76 2.972-1.76 1.257 0 2.597 1.172 3.778 2.205C44.443 60.984 45.605 62 46.904 62c.87 0 1.625-.445 2.246-1.32.777-1.1 1.93-4.047 3.002-16.869 10.383-6.483 10.356-16.579 9.51-19.647zm-2.012 6.215c-.73 3.458-3.121 8.734-9.207 12.373-.963 11.768-2.234 15.793-2.925 16.771-.335.475-.542.477-.613.477h-.001c-.547 0-1.517-.848-2.373-1.598-1.446-1.266-3.085-2.699-5.095-2.699-2.309 0-3.506 1.348-4.468 2.432-.872.984-1.562 1.76-2.969 1.76s-2.097-.775-2.969-1.76c-.963-1.084-2.159-2.432-4.468-2.432-2.01 0-3.648 1.434-5.095 2.699-.855.75-1.823 1.598-2.371 1.598-.069 0-.277 0-.614-.477-.691-.979-1.962-5.004-2.925-16.771-6.087-3.639-8.479-8.914-9.208-12.373-.429-2.027-.403-3.751-.248-4.87 1.693 2.607 4.052 5.137 6.143 5.137.65 0 1.228-.245 1.668-.708.726-.764 1.031-2.05.936-3.933-.305-5.981 1.83-11.841 5.854-16.076C22.338 6.106 27.06 4 32 4s9.663 2.106 13.299 5.93c4.023 4.235 6.158 10.095 5.854 16.076-.096 1.883.211 3.17.936 3.934a2.25 2.25 0 0 0 1.668.707h.002c2.09 0 4.447-2.529 6.141-5.137.155 1.118.18 2.843-.25 4.869z"/><ellipse cx="24" cy="21.476" fill="#302C3B" rx="5.999" ry="3.5" transform="rotate(-70.001 24 21.476)"/><ellipse cx="24.646" cy="22.476" fill="#4E5E67" rx="2.862" ry="1.669" transform="rotate(-70.007 24.646 22.477)"/><ellipse cx="39" cy="20.476" fill="#302C3B" rx="8" ry="4.5" transform="rotate(-109.999 39.001 20.476)"/><ellipse cx="38.417" cy="22.226" fill="#4E5E67" rx="3.909" ry="2.198" transform="rotate(-109.999 38.418 22.226)"/><path fill="#1A1626" d="M42.805 31.792c-1.696.409-5.635 1.26-10.805 1.26s-9.108-.851-10.805-1.26c-1.098-.264-1.781.544-1.687 1.508.503 5.055 4.846 10.079 12.492 10.079s11.989-5.023 12.491-10.078c.095-.965-.589-1.772-1.686-1.509z"/><linearGradient id="b" x1="32" x2="32" y1="34.868" y2="51.492" gradientUnits="userSpaceOnUse"><stop offset="0" style="stop-color:#690900"/><stop offset=".019" style="stop-color:#76120b"/><stop offset=".078" style="stop-color:#9a2c2b"/><stop offset=".143" style="stop-color:#b94247"/><stop offset=".214" style="stop-color:#d2545d"/><stop offset=".293" style="stop-color:#e5626e"/><stop offset=".384" style="stop-color:#f36c7a"/><stop offset=".498" style="stop-color:#fb7181"/><stop offset=".709" style="stop-color:#fd7383"/></linearGradient><path fill="url(#b)" d="M24.624 37.367v4.422c0 6.459 3.304 9.701 7.376 9.703 4.072-.002 7.376-3.244 7.376-9.703v-4.422c0-3.859-7.376-2.098-7.376-2.098s-7.376-1.761-7.376 2.098z"/><linearGradient id="c" x1="31.998" x2="31.998" y1="46.174" y2="35.07" gradientUnits="userSpaceOnUse"><stop offset="0" style="stop-color:#c21000;stop-opacity:.06"/><stop offset=".178" style="stop-color:#be1000;stop-opacity:.0814"/><stop offset=".355" style="stop-color:#b20f00;stop-opacity:.1026"/><stop offset=".531" style="stop-color:#9e0d00;stop-opacity:.1238"/><stop offset=".707" style="stop-color:#820b00;stop-opacity:.1449"/><stop offset=".881" style="stop-color:#5f0800;stop-opacity:.1658"/><stop offset="1" style="stop-color:#420600;stop-opacity:.18"/></linearGradient><path fill="url(#c)" d="M30.951 35.07 32 46.174l1.046-11.104c-.631.1-1.046.2-1.046.2s-.418-.1-1.049-.2z"/></svg>