<svg xmlns="http://www.w3.org/2000/svg" xml:space="preserve" style="enable-background:new 0 0 64 64" viewBox="0 0 64 64"><radialGradient id="a" cx="146.487" cy="-419.203" r="22.399" gradientTransform="matrix(1.3333 0 0 -.3054 -163.311 -123.231)" gradientUnits="userSpaceOnUse"><stop offset=".33" style="stop-color:#0174c7"/><stop offset=".66" style="stop-color:#00d0ff"/></radialGradient><path d="M32 8c-7.24 0-18-1.063-18-4s10.76-4 18-4 18 1.063 18 4-10.76 4-18 4zm0-5.428c-8.267 0-13.013 1.12-13.347 1.749C18.987 4.88 23.72 6 32 6s13.013-1.12 13.333-1.749c-.32-.561-5.066-1.68-13.333-1.68z" style="fill:url(#a)"/><path d="M31.997 2.572H32h-.003z" style="fill:#0174c7"/><path d="M22.4 1.93a17.743 17.743 0 0 1 1.573-.358 29.77 29.77 0 0 1 1.6-.26 48.343 48.343 0 0 1 3.232-.33 64.156 64.156 0 0 1 3.25-.13c.543-.01 1.087-.005 1.63.001.544.01 1.087.028 1.63.053 2.172.105 4.34.342 6.465.763a25.24 25.24 0 0 1 3.135.82c.509.177 1.011.37 1.485.617.236.123.466.258.673.42.101.083.197.172.274.274.04.05.07.106.094.162a.41.41 0 0 1 .025.176.516.516 0 0 0-.184-.294 1.597 1.597 0 0 0-.307-.208 4.549 4.549 0 0 0-.706-.303c-.492-.168-1.002-.3-1.516-.415a37.253 37.253 0 0 0-3.13-.539 76.487 76.487 0 0 0-6.365-.556 71.047 71.047 0 0 0-1.6-.064c-.534-.02-1.068-.028-1.603-.038a179.285 179.285 0 0 0-3.213-.019c-1.072.006-2.144.023-3.218.056a59.58 59.58 0 0 0-3.224.172z" style="opacity:.5;fill:#a1eeff"/><path d="M41.6 6.563c-.515.148-1.043.257-1.573.359a31.91 31.91 0 0 1-1.6.26 48.343 48.343 0 0 1-3.232.329 64.268 64.268 0 0 1-3.25.131 56.76 56.76 0 0 1-1.63-.002 60.603 60.603 0 0 1-1.63-.053c-2.172-.105-4.34-.342-6.465-.763a25.329 25.329 0 0 1-3.135-.82 11.104 11.104 0 0 1-1.485-.616 4.328 4.328 0 0 1-.673-.421 1.626 1.626 0 0 1-.274-.273.749.749 0 0 1-.094-.162.404.404 0 0 1-.025-.177.516.516 0 0 0 .184.295c.09.08.196.148.307.207.22.122.46.218.706.303.492.168 1.002.3 1.516.415 1.03.23 2.079.398 3.13.54a76.49 76.49 0 0 0 6.365.555c.533.029 1.067.048 1.6.064.534.02 1.068.029 1.602.039 1.071.013 2.142.023 3.214.018 1.072-.006 2.144-.023 3.217-.056a61.69 61.69 0 0 0 3.225-.172z" style="opacity:.5;fill:#00d0ff"/><radialGradient id="b" cx="109.2" cy="-88.62" r="3.376" gradientTransform="matrix(1.3236 -.1379 -.1236 -.871 -131.569 -62.247)" gradientUnits="userSpaceOnUse"><stop offset="0" style="stop-color:#fff;stop-opacity:.9"/><stop offset="1" style="stop-color:#fff;stop-opacity:0"/></radialGradient><path d="M24.314 2.95c2.367-.293 4.182-1.712 4.163-2.871-3.071.132-6.34.441-8.992.971.23 1.2 2.366 2.205 4.829 1.9z" style="fill:url(#b)"/><linearGradient id="c" x1="130.592" x2="129.527" y1="167.476" y2="162.887" gradientTransform="rotate(13.526 541.094 -274.432)" gradientUnits="userSpaceOnUse"><stop offset="0" style="stop-color:#ebf4fa"/><stop offset="1" style="stop-color:#ccd8e0"/></linearGradient><path d="M41.079 53.63s-1.15 3.41-1.596 4.374c-.447.964-1.1.929-1.515.523-.663-.649-1.986-2.56-1.668-5.605.771-1.7 3.906-.965 4.779.708z" style="fill:url(#c)"/><linearGradient id="d" x1="56.232" x2="54.425" y1="82.26" y2="74.473" gradientTransform="rotate(2.183 552.891 -268.229)" gradientUnits="userSpaceOnUse"><stop offset="0" style="stop-color:#ebf4fa"/><stop offset="1" style="stop-color:#ccd8e0"/></linearGradient><path d="M44.563 53.121s-.408 6.003-.68 7.734c-.272 1.732-1.124 1.852-1.787 1.289-1.059-.9-3.366-3.723-3.913-8.891.458-3.048 4.729-2.684 6.38-.132z" style="fill:url(#d)"/><linearGradient id="e" x1="62.786" x2="57.061" y1="83.742" y2="73.738" gradientTransform="rotate(2.183 552.891 -268.229)" gradientUnits="userSpaceOnUse"><stop offset="0" style="stop-color:#ebf4fa"/><stop offset="1" style="stop-color:#ccd8e0"/></linearGradient><path d="M46.956 53.134s2.99 6.432 3.502 8.44c.51 2.007-.382 2.782-1.244 2.276-.863-.506-5.668-3.03-6.596-6.573-.92-3.523 1.48-6.088 4.337-4.143z" style="fill:url(#e)"/><linearGradient id="f" x1="75.416" x2="63.089" y1="64.519" y2="65.495" gradientTransform="rotate(2.183 552.891 -268.229)" gradientUnits="userSpaceOnUse"><stop offset="0" style="stop-color:#ebf4fa"/><stop offset="1" style="stop-color:#ccd8e0"/></linearGradient><path d="M46.917 43.088s4.724.286 8.682-.372c3.968-.657 7.477-2.191 8.124-1.813.646.378.212 2.013-1.827 3.8-2.049 1.787-5.478 2.453-5.478 2.453s4.584.376 6.048 1.77c1.31 1.24-.482 2.855-4.66 2.505-4.18-.35-12.264-4.176-12.264-4.176l1.375-4.167z" style="fill:url(#f)"/><linearGradient id="g" x1="71.605" x2="63.475" y1="75.546" y2="69.324" gradientTransform="rotate(2.183 552.891 -268.229)" gradientUnits="userSpaceOnUse"><stop offset="0" style="stop-color:#ebf4fa"/><stop offset="1" style="stop-color:#ccd8e0"/></linearGradient><path d="M52.625 48.762s4.313 3.81 6.108 5.305c1.796 1.494.373 3.16-1.835 2.588-2.209-.574-5.84-1.785-7.793-6.239s1.857-2.699 3.52-1.654z" style="fill:url(#g)"/><linearGradient id="h" x1="67.525" x2="61.435" y1="79.8" y2="71.777" gradientTransform="rotate(2.183 552.891 -268.229)" gradientUnits="userSpaceOnUse"><stop offset="0" style="stop-color:#ebf4fa"/><stop offset="1" style="stop-color:#ccd8e0"/></linearGradient><path d="M49.033 47.183s4.345 9.79 5.159 11.084c.815 1.295.62 3.203-1.29 2.917-1.908-.302-7.166-4.335-7.979-11.024-.811-6.686 4.11-2.977 4.11-2.977z" style="fill:url(#h)"/><linearGradient id="i" x1="611.034" x2="604.286" y1="327.991" y2="327.492" gradientTransform="rotate(62.225 549.794 -275.67)" gradientUnits="userSpaceOnUse"><stop offset="0" style="stop-color:#ebf4fa"/><stop offset="1" style="stop-color:#ccd8e0"/></linearGradient><path d="M42.243 52.247s2.975 3.914 3.28 5.827c.298 1.904-3.807-.046-4.958-1.773-1.15-1.727-1.141-4.317-1.141-4.317s1.704-.96 2.819.263z" style="fill:url(#i)"/><linearGradient id="j" x1="411.953" x2="403.899" y1="309.468" y2="308.873" gradientTransform="rotate(42.853 551.224 -277.915)" gradientUnits="userSpaceOnUse"><stop offset="0" style="stop-color:#ebf4fa"/><stop offset="1" style="stop-color:#ccd8e0"/></linearGradient><path d="M44.501 50.01s4.67 3.451 5.735 5.6c1.055 2.141-4.053 1.476-5.942-.112s-2.883-4.667-2.883-4.667 1.434-1.825 3.09-.82z" style="fill:url(#j)"/><linearGradient id="k" x1="273.11" x2="265.172" y1="252.638" y2="252.052" gradientTransform="rotate(28.514 552.168 -277.61)" gradientUnits="userSpaceOnUse"><stop offset="0" style="stop-color:#ebf4fa"/><stop offset="1" style="stop-color:#ccd8e0"/></linearGradient><path d="M46.986 48.718s5.329 2.114 6.86 3.915c1.521 1.797-3.583 2.497-5.783 1.456s-3.88-3.763-3.88-3.763.965-2.146 2.803-1.608z" style="fill:url(#k)"/><linearGradient id="l" x1="69.316" x2="61.477" y1="67.528" y2="66.948" gradientTransform="rotate(2.183 552.891 -268.229)" gradientUnits="userSpaceOnUse"><stop offset="0" style="stop-color:#ebf4fa"/><stop offset="1" style="stop-color:#ccd8e0"/></linearGradient><path d="M48.072 46.261s5.658-.618 7.782.274c2.112.893-2.17 3.928-4.576 4.032-2.406.105-5.047-1.542-5.047-1.542s-.03-2.378 1.841-2.764z" style="fill:url(#l)"/><linearGradient id="m" x1="-20.543" x2="-29.167" y1="-133.494" y2="-134.131" gradientTransform="rotate(-18.612 556.054 -285.675)" gradientUnits="userSpaceOnUse"><stop offset="0" style="stop-color:#ebf4fa"/><stop offset="1" style="stop-color:#ccd8e0"/></linearGradient><path d="M48.122 43.36s5.58-2.832 8.105-2.768c2.513.068-.73 4.785-3.164 5.83-2.434 1.046-5.779.428-5.779.428s-.94-2.371.838-3.49z" style="fill:url(#m)"/><linearGradient id="n" x1="1104.013" x2="1102.948" y1="-66.694" y2="-71.283" gradientTransform="scale(-1 1) rotate(13.526 8.5 -4765.482)" gradientUnits="userSpaceOnUse"><stop offset="0" style="stop-color:#ebf4fa"/><stop offset="1" style="stop-color:#ccd8e0"/></linearGradient><path d="M22.921 53.63s1.15 3.41 1.596 4.374c.447.964 1.1.929 1.515.523.663-.649 1.986-2.56 1.668-5.605-.771-1.7-3.906-.965-4.779.708z" style="fill:url(#n)"/><linearGradient id="o" x1="1056.709" x2="1054.902" y1="44.115" y2="36.328" gradientTransform="scale(-1 1) rotate(2.183 20.29 -28216.867)" gradientUnits="userSpaceOnUse"><stop offset="0" style="stop-color:#ebf4fa"/><stop offset="1" style="stop-color:#ccd8e0"/></linearGradient><path d="M19.437 53.121s.408 6.003.68 7.734c.272 1.732 1.124 1.852 1.787 1.289 1.059-.9 3.366-3.723 3.913-8.891-.458-3.048-4.729-2.684-6.38-.132z" style="fill:url(#o)"/><linearGradient id="p" x1="1063.263" x2="1057.537" y1="45.597" y2="35.594" gradientTransform="scale(-1 1) rotate(2.183 20.29 -28216.867)" gradientUnits="userSpaceOnUse"><stop offset="0" style="stop-color:#ebf4fa"/><stop offset="1" style="stop-color:#ccd8e0"/></linearGradient><path d="M17.045 53.134s-2.992 6.432-3.503 8.44c-.51 2.007.382 2.782 1.244 2.276.863-.506 5.668-3.03 6.596-6.573.92-3.523-1.48-6.088-4.337-4.143z" style="fill:url(#p)"/><linearGradient id="q" x1="1075.893" x2="1063.566" y1="26.374" y2="27.351" gradientTransform="scale(-1 1) rotate(2.183 20.29 -28216.867)" gradientUnits="userSpaceOnUse"><stop offset="0" style="stop-color:#ebf4fa"/><stop offset="1" style="stop-color:#ccd8e0"/></linearGradient><path d="M17.083 43.088s-4.724.286-8.682-.372C4.433 42.059.924 40.525.278 40.903c-.647.378-.213 2.013 1.826 3.8 2.049 1.787 5.477 2.453 5.477 2.453s-4.583.376-6.047 1.77c-1.31 1.24.482 2.855 4.66 2.505 4.18-.35 12.264-4.176 12.264-4.176l-1.375-4.167z" style="fill:url(#q)"/><linearGradient id="r" x1="1072.082" x2="1063.952" y1="37.401" y2="31.179" gradientTransform="scale(-1 1) rotate(2.183 20.29 -28216.867)" gradientUnits="userSpaceOnUse"><stop offset="0" style="stop-color:#ebf4fa"/><stop offset="1" style="stop-color:#ccd8e0"/></linearGradient><path d="M11.375 48.762s-4.313 3.81-6.108 5.305c-1.796 1.494-.373 3.16 1.835 2.588 2.208-.574 5.84-1.785 7.793-6.239s-1.857-2.699-3.52-1.654z" style="fill:url(#r)"/><linearGradient id="s" x1="1068.002" x2="1061.912" y1="41.656" y2="33.632" gradientTransform="scale(-1 1) rotate(2.183 20.29 -28216.867)" gradientUnits="userSpaceOnUse"><stop offset="0" style="stop-color:#ebf4fa"/><stop offset="1" style="stop-color:#ccd8e0"/></linearGradient><path d="M14.967 47.183s-4.344 9.79-5.159 11.084c-.815 1.295-.62 3.203 1.29 2.917 1.908-.302 7.166-4.335 7.979-11.024.811-6.686-4.11-2.977-4.11-2.977z" style="fill:url(#s)"/><linearGradient id="t" x1="1077.594" x2="1070.847" y1="-557.874" y2="-558.372" gradientTransform="scale(-1 1) rotate(62.225 17.18 -1158.145)" gradientUnits="userSpaceOnUse"><stop offset="0" style="stop-color:#ebf4fa"/><stop offset="1" style="stop-color:#ccd8e0"/></linearGradient><path d="M21.757 52.247s-2.975 3.914-3.28 5.827c-.298 1.904 3.807-.046 4.958-1.773 1.15-1.727 1.142-4.317 1.142-4.317s-1.705-.96-2.82.263z" style="fill:url(#t)"/><linearGradient id="u" x1="1145.976" x2="1137.921" y1="-371.487" y2="-372.083" gradientTransform="scale(-1 1) rotate(42.852 18.61 -1635.18)" gradientUnits="userSpaceOnUse"><stop offset="0" style="stop-color:#ebf4fa"/><stop offset="1" style="stop-color:#ccd8e0"/></linearGradient><path d="M19.499 50.01s-4.67 3.451-5.735 5.6c-1.055 2.141 4.053 1.476 5.942-.112 1.889-1.588 2.883-4.667 2.883-4.667s-1.434-1.825-3.09-.82z" style="fill:url(#u)"/><linearGradient id="v" x1="1152.869" x2="1144.931" y1="-225.337" y2="-225.924" gradientTransform="scale(-1 1) rotate(28.515 19.55 -2373.595)" gradientUnits="userSpaceOnUse"><stop offset="0" style="stop-color:#ebf4fa"/><stop offset="1" style="stop-color:#ccd8e0"/></linearGradient><path d="M17.014 48.718s-5.329 2.114-6.86 3.915c-1.521 1.797 3.583 2.497 5.783 1.456s3.88-3.763 3.88-3.763-.965-2.146-2.803-1.608z" style="fill:url(#v)"/><linearGradient id="w" x1="1069.793" x2="1061.954" y1="29.383" y2="28.804" gradientTransform="scale(-1 1) rotate(2.183 20.29 -28216.867)" gradientUnits="userSpaceOnUse"><stop offset="0" style="stop-color:#ebf4fa"/><stop offset="1" style="stop-color:#ccd8e0"/></linearGradient><path d="M15.928 46.261s-5.658-.618-7.782.274c-2.112.893 2.17 3.928 4.576 4.032 2.406.105 5.047-1.542 5.047-1.542s.03-2.378-1.841-2.764z" style="fill:url(#w)"/><linearGradient id="x" x1="928.361" x2="919.736" y1="186.012" y2="185.374" gradientTransform="scale(-1 1) rotate(-18.609 23.417 2965.257)" gradientUnits="userSpaceOnUse"><stop offset="0" style="stop-color:#ebf4fa"/><stop offset="1" style="stop-color:#ccd8e0"/></linearGradient><path d="M15.878 43.36s-5.58-2.832-8.105-2.768c-2.513.068.731 4.785 3.165 5.83 2.433 1.046 5.778.428 5.778.428s.94-2.371-.838-3.49z" style="fill:url(#x)"/><path d="M53.091 29.51c-2.904.3-5 8.54-3.176 10.713.772.916 4.627-.459 5.8-5.271.683-2.815.265-5.739-2.624-5.442z" style="fill:#ffd8b4"/><path d="M53.011 31.09c-.76.186-1.584 1.182-2.031 2.807 2.646-.482 1.986 3.256-.315 3.324-.295 2.862 2.58.797 3.457-1.677 1.37-3.862-.07-4.708-1.111-4.454z" style="fill:#deb38a"/><path d="M10.909 29.51c2.902.3 5 8.54 3.174 10.713-.772.916-4.627-.459-5.797-5.271-.684-2.815-.266-5.739 2.623-5.442z" style="fill:#ffd8b4"/><path d="M10.987 31.09c.762.186 1.584 1.182 2.033 2.807-2.648-.482-1.986 3.256.313 3.324.297 2.862-2.578.797-3.455-1.677-1.371-3.862.07-4.708 1.11-4.454z" style="fill:#deb38a"/><path d="M31.999 9c-14.211 0-21.418 8.684-20.406 23.66.173 2.58 2.054 10.19 3.835 13.208 7.174 12.176 25.97 12.176 33.143 0 1.782-3.018 3.663-10.627 3.834-13.207C53.42 17.684 46.21 9 32 9z" style="fill:#ffd8b4"/><path d="M34.985 39.776c-.316-.256-1.057.138-2.986.138-1.928 0-2.67-.394-2.987-.139-.379.313.227 1.717 2.987 1.717 2.763 0 3.367-1.404 2.986-1.716z" style="fill:#deb38a"/><path d="M39.465 43.254c-.79-.883-2.646.477-7.467.477-4.818 0-6.675-1.36-7.467-.477-.947 1.07.561 5.883 7.467 5.883 6.909 0 8.418-4.813 7.467-5.883z" style="fill:#45332c"/><linearGradient id="y" x1="32" x2="32" y1="48.346" y2="46.44" gradientUnits="userSpaceOnUse"><stop offset="0" style="stop-color:#d63324"/><stop offset=".08" style="stop-color:#dc3f31"/><stop offset=".247" style="stop-color:#e75346"/><stop offset=".435" style="stop-color:#ee6155"/><stop offset=".657" style="stop-color:#f3695d"/><stop offset="1" style="stop-color:#f46c60"/></linearGradient><path d="M28.006 47.418c1.155.586 2.485.928 3.992.928 1.508 0 2.84-.342 3.995-.928 0 0-1.999-1.716-3.995-.601-1.994-1.115-3.992.601-3.992.601z" style="fill:url(#y)"/><path d="M35.584 32.582c0 5.418 10.46 5.418 10.46 0s-10.46-5.418-10.46 0z" style="fill:#fff"/><linearGradient id="z" x1="-424.943" x2="-424.943" y1="476.82" y2="477.791" gradientTransform="matrix(6.5701 0 0 -6.5701 2832.512 3168.527)" gradientUnits="userSpaceOnUse"><stop offset="0" style="stop-color:#a6694a"/><stop offset="1" style="stop-color:#4f2a1e"/></linearGradient><path d="M40.594 29.395a3.189 3.189 0 1 1 .002 6.377 3.189 3.189 0 0 1-.002-6.377z" style="fill:url(#z)"/><path d="M39.003 32.523c0 2.207 3.187 2.207 3.187 0 0-2.047-3.187-2.047-3.187 0z" style="fill:#1a1626"/><path d="M38.516 31.63c0 .925 1.338.925 1.338 0 0-.857-1.338-.857-1.338 0z" style="fill:#ab968c"/><path d="M28.414 32.582c0 5.418-10.46 5.418-10.46 0s10.46-5.418 10.46 0z" style="fill:#fff"/><linearGradient id="A" x1="-427.626" x2="-427.626" y1="476.82" y2="477.791" gradientTransform="matrix(6.5701 0 0 -6.5701 2832.95 3168.527)" gradientUnits="userSpaceOnUse"><stop offset="0" style="stop-color:#a6694a"/><stop offset="1" style="stop-color:#4f2a1e"/></linearGradient><path d="M23.402 29.395a3.189 3.189 0 1 1 .002 6.377 3.189 3.189 0 0 1-.002-6.377z" style="fill:url(#A)"/><path d="M21.81 32.523c0 2.207 3.188 2.207 3.188 0 0-2.047-3.188-2.047-3.188 0z" style="fill:#1a1626"/><path d="M21.324 31.63c0 .925 1.338.925 1.338 0 0-.857-1.338-.857-1.338 0z" style="fill:#ab968c"/><path d="M46.428 26.691c-1.921-1.787-5.44-2.982-9.636-1.925-.446.113-.417 1.38-.054 1.293 3.835-.906 7.04-.335 9.44 1.515.283.217.567-.588.25-.883zm-19.222-1.925c-4.196-1.057-7.715.138-9.635 1.925-.318.295-.033 1.1.249.883 2.401-1.85 5.605-2.42 9.44-1.515.363.086.392-1.18-.054-1.293z" style="fill:#deb38a"/></svg>