<svg xmlns="http://www.w3.org/2000/svg" xml:space="preserve" style="enable-background:new 0 0 64 64" viewBox="0 0 64 64"><path d="M53.091 31.51c-2.904.3-5 8.54-3.176 10.713.772.916 4.627-.459 5.8-5.271.683-2.815.265-5.739-2.624-5.442z" style="fill:#ffd8b4"/><path d="M53.011 33.09c-.76.186-1.584 1.182-2.031 2.807 2.646-.482 1.986 3.256-.315 3.324-.295 2.862 2.58.797 3.457-1.677 1.37-3.862-.07-4.707-1.111-4.454z" style="fill:#deb38a"/><path d="M10.909 31.51c2.902.3 5 8.54 3.174 10.713-.772.916-4.627-.459-5.797-5.271-.684-2.815-.266-5.739 2.623-5.442z" style="fill:#ffd8b4"/><path d="M10.987 33.09c.762.186 1.584 1.182 2.033 2.807-2.648-.482-1.986 3.256.313 3.324.297 2.862-2.578.797-3.455-1.677-1.371-3.862.07-4.707 1.11-4.454z" style="fill:#deb38a"/><path d="M31.999 11c-14.211 0-21.418 8.684-20.406 23.66.173 2.58 2.054 10.19 3.835 13.208 7.174 12.176 25.97 12.176 33.143 0 1.782-3.018 3.663-10.627 3.835-13.207C53.419 19.684 46.21 11 31.999 11z" style="fill:#ffd8b4"/><path d="M43.646 14.22c-3.16-2.551-4.635-1.006-9.62-5.232 0 0 6.991-2.087 9.62 5.232z" style="fill:#2e2319"/><path d="M43.646 14.22c-1.977-3.11-4.669-2.922-6.47-5.654 0 0 5.418-.199 6.47 5.653z" style="fill:#403429"/><path d="M42.147 11.688c-1.86-1.664-3.564-1.874-5.206-2.556 0 0 3.4-1.015 5.206 2.556z" style="fill:#4f4236"/><path d="M36.73 7.956c8.59 4.05-1.593 14.619-7.376 6.225 3.862 3.32 11.439-.633 7.376-6.225z" style="fill:#2e2319"/><path d="M24.375 10.986c5.161-6.147 12.235-3.847 13.966-1.892 4.272 4.828-3.807 11.575-8.987 5.087 5.161 2.675 7.654-1.9 5.13-3.807-1.709-1.293-7.255-1.085-10.109.612z" style="fill:#403429"/><path d="M26.546 9.56c8.698-4.15 12.998 2.879 6.945 6.174 11.567-2.357 1.798-12.953-6.945-6.174z" style="fill:#4f4236"/><path d="M37.223 12.983c.165-4.573-4.279-5.28-4.279-5.28s6.714-.105 4.28 5.28z" style="fill:#635547"/><path d="M20.352 13.794c7.162-3.723 15.656-3.24 10.421.088 12.713-.463-.934-9.667-10.42-.088z" style="fill:#2e2319"/><path d="M20.352 13.794c6.87-4.611 15.656-3.24 10.421.088 12.833-1.123-.54-11.834-10.42-.088z" style="fill:#403429"/><path d="M23.472 11.53c4.028-2.452 12.195-2.493 8.976 1.606 7.266-2.793-3.094-7.56-8.976-1.605z" style="fill:#4f4236"/><path d="M33.682 11.516c-.383-2.567-4.397-2.273-4.397-2.273s5.93-1.095 4.397 2.273z" style="fill:#635547"/><path d="M34.986 41.776c-.316-.256-1.057.139-2.986.139-1.928 0-2.67-.395-2.987-.14-.379.313.227 1.718 2.986 1.718 2.764 0 3.368-1.405 2.987-1.717z" style="fill:#deb38a"/><path d="M39.466 45.254c-.79-.882-2.646.477-7.467.477-4.818 0-6.675-1.36-7.467-.477-.947 1.07.561 5.883 7.467 5.883 6.909 0 8.418-4.812 7.467-5.883z" style="fill:#45332c"/><linearGradient id="a" x1="32" x2="32" y1="50.346" y2="48.44" gradientUnits="userSpaceOnUse"><stop offset="0" style="stop-color:#d63324"/><stop offset=".08" style="stop-color:#dc3f31"/><stop offset=".247" style="stop-color:#e75346"/><stop offset=".435" style="stop-color:#ee6155"/><stop offset=".657" style="stop-color:#f3695d"/><stop offset="1" style="stop-color:#f46c60"/></linearGradient><path d="M28.007 49.419c1.154.585 2.484.927 3.992.927s2.84-.342 3.995-.927c0 0-1.999-1.717-3.995-.602-1.994-1.115-3.992.602-3.992.602z" style="fill:url(#a)"/><path d="M35.585 34.583c0 5.418 10.46 5.418 10.46 0 0-5.419-10.46-5.419-10.46 0z" style="fill:#fff"/><linearGradient id="b" x1="-424.943" x2="-424.943" y1="476.516" y2="477.486" gradientTransform="matrix(6.5701 0 0 -6.5701 2832.512 3168.527)" gradientUnits="userSpaceOnUse"><stop offset="0" style="stop-color:#a6694a"/><stop offset="1" style="stop-color:#4f2a1e"/></linearGradient><path d="M40.595 31.395a3.189 3.189 0 1 1 .002 6.377 3.189 3.189 0 0 1-.002-6.377z" style="fill:url(#b)"/><path d="M39.003 34.524c0 2.207 3.188 2.207 3.188 0 0-2.047-3.188-2.047-3.188 0z" style="fill:#1a1626"/><path d="M38.517 33.631c0 .924 1.338.924 1.338 0 0-.857-1.338-.857-1.338 0z" style="fill:#ab968c"/><path d="M28.415 34.583c0 5.418-10.46 5.418-10.46 0 0-5.419 10.46-5.419 10.46 0z" style="fill:#fff"/><linearGradient id="c" x1="-427.626" x2="-427.626" y1="476.516" y2="477.486" gradientTransform="matrix(6.5701 0 0 -6.5701 2832.95 3168.527)" gradientUnits="userSpaceOnUse"><stop offset="0" style="stop-color:#a6694a"/><stop offset="1" style="stop-color:#4f2a1e"/></linearGradient><path d="M23.403 31.395a3.189 3.189 0 1 1 .002 6.377 3.189 3.189 0 0 1-.002-6.377z" style="fill:url(#c)"/><path d="M21.811 34.524c0 2.207 3.188 2.207 3.188 0 0-2.047-3.188-2.047-3.188 0z" style="fill:#1a1626"/><path d="M21.325 33.631c0 .924 1.338.924 1.338 0 0-.857-1.338-.857-1.338 0z" style="fill:#ab968c"/><path d="M46.428 28.692c-1.92-1.788-5.44-2.983-9.635-1.925-.446.112-.417 1.379-.054 1.293 3.835-.906 7.04-.335 9.44 1.515.282.217.567-.588.25-.883zm-19.221-1.925c-4.196-1.058-7.715.137-9.635 1.925-.318.295-.033 1.1.249.883 2.401-1.85 5.605-2.421 9.44-1.515.363.086.392-1.18-.054-1.293z" style="fill:#deb38a"/></svg>