<svg xmlns="http://www.w3.org/2000/svg" xml:space="preserve" style="enable-background:new 0 0 64 64" viewBox="0 0 64 64"><linearGradient id="a" x1="46.75" x2="56.197" y1="59.161" y2="49.714" gradientUnits="userSpaceOnUse"><stop offset="0" style="stop-color:#dadee6"/><stop offset=".136" style="stop-color:#dee3eb"/><stop offset=".575" style="stop-color:#e7eff8"/><stop offset="1" style="stop-color:#eaf3fc"/></linearGradient><path d="M54.711 48.228S57 53.648 57 58.115c0 2.998-8.903 2.393-8.903 2.393V48.026l6.614.202z" style="fill:url(#a)"/><linearGradient id="b" x1="7.803" x2="17.25" y1="49.714" y2="59.161" gradientUnits="userSpaceOnUse"><stop offset="0" style="stop-color:#eaf3fc"/><stop offset=".425" style="stop-color:#e7eff8"/><stop offset=".864" style="stop-color:#dee3eb"/><stop offset="1" style="stop-color:#dadee6"/></linearGradient><path d="M9.289 48.228S7 53.648 7 58.115c0 2.998 8.903 2.393 8.903 2.393V48.026l-6.614.202z" style="fill:url(#b)"/><linearGradient id="c" x1="32" x2="32" y1="53.768" y2="41.464" gradientUnits="userSpaceOnUse"><stop offset="0" style="stop-color:#eaf3fc"/><stop offset=".498" style="stop-color:#e8f1f9"/><stop offset=".797" style="stop-color:#e2e9f1"/><stop offset="1" style="stop-color:#dadee6"/></linearGradient><path d="M54.711 48.228c-.682-1.828-15.133-6.962-15.133-6.962l-15.156.024s-14.45 5.107-15.133 6.938c6.302 6.395 5.948 12.28 5.948 12.28S16.724 62 32 62c15.276 0 16.763-1.493 16.763-1.493s-.354-5.884 5.948-12.279z" style="fill:url(#c)"/><path d="M24.687 43.375s4.222 8.31 7.313 8.31c3.092 0 7.314-8.31 7.314-8.31V37.41H24.687v5.966z" style="fill:#d9b18d"/><linearGradient id="d" x1="36.953" x2="36.953" y1="62" y2="40.17" gradientUnits="userSpaceOnUse"><stop offset="0" style="stop-color:#f2f8ff"/><stop offset=".577" style="stop-color:#f0f6fd"/><stop offset=".796" style="stop-color:#eaeff7"/><stop offset=".954" style="stop-color:#dfe3eb"/><stop offset="1" style="stop-color:#dadee6"/></linearGradient><path d="M39.314 40.17c0 .613-1.54 4.788-5.421 9.145-1.362 1.529-1.499 2.37-1.894 2.37L32 62l2.966-.016v-7.995c0-2.766 4.968-6.108 6.941-11.871-1.614-.7-2.593-1.948-2.593-1.948z" style="fill:url(#d)"/><linearGradient id="e" x1="27.047" x2="27.047" y1="62" y2="40.17" gradientUnits="userSpaceOnUse"><stop offset="0" style="stop-color:#f2f8ff"/><stop offset=".577" style="stop-color:#f0f6fd"/><stop offset=".796" style="stop-color:#eaeff7"/><stop offset=".954" style="stop-color:#dfe3eb"/><stop offset="1" style="stop-color:#dadee6"/></linearGradient><path d="M24.686 40.17c0 .613 1.54 4.788 5.421 9.145 1.362 1.529 1.499 2.37 1.894 2.37L32 62l-2.966-.016v-7.995c0-2.766-4.968-6.108-6.941-11.871a7.322 7.322 0 0 0 2.593-1.948z" style="fill:url(#e)"/><path d="M31.898 51.651h.203V62h-.203z" style="opacity:.5;fill:#dadee6"/><path d="M32 7.853c-9.184 0-13.608 6.942-13.054 16.593.11 1.942 1.317 8.275 2.454 10.548 1.164 2.324 5.058 5.909 7.443 6.651 1.507.467 4.807.467 6.313 0 2.386-.742 6.281-4.327 7.445-6.651 1.14-2.273 2.343-8.605 2.452-10.548.557-9.65-3.867-16.593-13.054-16.593z" style="fill:#ebc199"/><path d="M41.978 20.78c-2.1-1.113-6.119-1.167-7.617-.39-.322.148-.109 1.201.16 1.102 2.086-.825 5.453-.843 7.406.07.26.118.37-.627.05-.782zm-19.955 0c2.1-1.113 6.117-1.167 7.616-.39.32.148.11 1.201-.16 1.102-2.09-.825-5.452-.843-7.408.07-.258.118-.366-.627-.048-.782z" style="fill:#ab8c57"/><path d="M34.478 30.418c-.262-.182-.876.1-2.478.1-1.599 0-2.215-.282-2.477-.1-.314.222.185 1.218 2.477 1.218 2.293 0 2.793-.996 2.478-1.218z" style="fill:#c99b71"/><path d="M29.956 24.565c.078.61-.335 1.329-1.476 1.87-.725.343-2.237.747-4.22-.09-.888-.375-1.755-1.54-1.676-2.186 1.075-2.026 6.366-2.322 7.372.406z" style="fill:#fff"/><linearGradient id="f" x1="-1210.147" x2="-1210.147" y1="172.105" y2="171.473" gradientTransform="translate(7977.155 -1104.145) scale(6.5701)" gradientUnits="userSpaceOnUse"><stop offset="0" style="stop-color:#a6694a"/><stop offset="1" style="stop-color:#4f2a1e"/></linearGradient><path d="M26.367 22.449c1.147 0 2.08.93 2.08 2.075 0 1.15-.932 2.078-2.08 2.078a2.078 2.078 0 1 1 0-4.153z" style="fill:url(#f)"/><path d="M25.328 24.487c0 1.437 2.079 1.437 2.079 0 0-1.333-2.08-1.333-2.08 0z" style="fill:#1a1626"/><path d="M25.012 23.904c0 .602.87.602.87 0 0-.557-.87-.557-.87 0z" style="fill:#ab968c"/><path d="M29.966 24.645c-.844-2.709-6.6-2.308-7.382-.487.29-2.333 6.663-2.95 7.382.487z" style="fill:#c99b71"/><path d="M34.044 24.565c-.078.61.334 1.329 1.477 1.87.725.343 2.234.747 4.217-.09.891-.375 1.756-1.54 1.678-2.186-1.075-2.026-6.367-2.322-7.372.406z" style="fill:#fff"/><linearGradient id="g" x1="-1211.138" x2="-1211.138" y1="172.105" y2="171.473" gradientTransform="translate(7994.886 -1104.145) scale(6.5701)" gradientUnits="userSpaceOnUse"><stop offset="0" style="stop-color:#a6694a"/><stop offset="1" style="stop-color:#4f2a1e"/></linearGradient><path d="M37.586 22.449a2.078 2.078 0 1 1-2.078 2.075c0-1.146.93-2.075 2.078-2.075z" style="fill:url(#g)"/><path d="M36.548 24.487c0 1.437 2.08 1.437 2.08 0 0-1.333-2.08-1.333-2.08 0z" style="fill:#1a1626"/><path d="M36.231 23.904c0 .602.872.602.872 0 0-.557-.872-.557-.872 0z" style="fill:#ab968c"/><path d="M34.034 24.645c.842-2.707 6.595-2.32 7.382-.487-.292-2.333-6.663-2.95-7.382.487zM32 34.408c-2.064-.608-5.127.29-5.127.29 1.167 1.268 2.02 2.917 5.127 2.917 3.56 0 4.165-1.872 5.127-2.918 0 0-3.063-.9-5.127-.289z" style="fill:#c99b71"/><path d="M27.641 34.913c2.166 1.817 6.54 1.827 8.717 0-2.306.098-6.393.098-8.717 0z" style="fill:#fff"/><path d="M20.927 36.885c1.149 2.328 5.53 5.282 7.915 6.025 1.508.468 4.807.468 6.314 0 2.386-.743 6.77-3.697 7.916-6.025 2.588-5.241 1.946-15.081 1.946-15.081l-1.108-.101c.517 4.356-.346 11.822-4.342 12.518-.6.105-1.029-.555-1.528-.81-1.97-1.012-10.091-1.022-12.08 0-.5.255-.928.915-1.528.81-3.997-.696-4.86-8.162-4.344-12.518l-1.106.1s-.638 9.84 1.945 15.082zm5.936-1.663c1.864-.802 5.136-.399 5.136-.399s3.272-.403 5.137.4c.843.363-1.782 3.854-3.492 3.092-.972-.434-2.317-.434-3.29 0-1.71.762-4.335-2.73-3.49-3.093z" style="fill:#f2d785"/><path d="M32 15.043c3.955 0 5.952 2.306 4.663-2.141-.646-2.228-8.681-2.228-9.327 0-1.289 4.447.709 2.141 4.664 2.141z" style="fill:#eaf3fc"/><linearGradient id="h" x1="49.431" x2="34.255" y1="16.779" y2="2.565" gradientUnits="userSpaceOnUse"><stop offset="0" style="stop-color:#e05e00"/><stop offset=".138" style="stop-color:#ee6b00"/><stop offset=".322" style="stop-color:#fb7600"/><stop offset=".5" style="stop-color:#ff7a00"/><stop offset=".678" style="stop-color:#fb7600"/><stop offset=".862" style="stop-color:#ee6b00"/><stop offset="1" style="stop-color:#e05e00"/></linearGradient><path d="M30.577 2.056c9.68-.721 19.815 5.55 17.862 16.209-2.695-2.169-12.696-4.948-17.862-16.209z" style="fill:url(#h)"/><path d="M32.038 4.25c9.532 0 15.239 8.24 16.469 13.377-3.467-5.019-9.66-10.296-16.47-13.376z" style="opacity:.2;fill:#302c3b"/><linearGradient id="i" x1="48.952" x2="35.226" y1="21.364" y2="6.317" gradientUnits="userSpaceOnUse"><stop offset="0" style="stop-color:#e05e00"/><stop offset=".138" style="stop-color:#ee6b00"/><stop offset=".322" style="stop-color:#fb7600"/><stop offset=".5" style="stop-color:#ff7a00"/><stop offset=".678" style="stop-color:#fb7600"/><stop offset=".862" style="stop-color:#ee6b00"/><stop offset="1" style="stop-color:#e05e00"/></linearGradient><path d="M31.037 4.209c7.96.078 15.72 7.576 17.497 13.507.422 1.409.138 4.82-.59 5.879-2.694-2.169-11.741-8.126-16.907-19.386z" style="fill:url(#i)"/><path d="M47.944 23.595c-2.24-9.129-8.864-11.968-14.887-18.176 6.607 12.63 14.887 18.176 14.887 18.176z" style="opacity:.2;fill:#302c3b"/><linearGradient id="j" x1="47.503" x2="33.844" y1="27.921" y2="8.913" gradientUnits="userSpaceOnUse"><stop offset="0" style="stop-color:#e05e00"/><stop offset=".138" style="stop-color:#ee6b00"/><stop offset=".322" style="stop-color:#fb7600"/><stop offset=".5" style="stop-color:#ff7a00"/><stop offset=".678" style="stop-color:#fb7600"/><stop offset=".862" style="stop-color:#ee6b00"/><stop offset="1" style="stop-color:#e05e00"/></linearGradient><path d="M32.919 5.41a74.056 74.056 0 0 0-3.25 2.357c5.091 12.9 15.458 11.4 15.038 22.92 3.935-2.729 3.237-7.092 3.237-7.092-3.074-9.1-9.419-11.142-15.025-18.185z" style="fill:url(#j)"/><linearGradient id="k" x1="13.982" x2="32.068" y1="16.5" y2="1.193" gradientUnits="userSpaceOnUse"><stop offset="0" style="stop-color:#e05e00"/><stop offset=".138" style="stop-color:#ee6b00"/><stop offset=".322" style="stop-color:#fb7600"/><stop offset=".5" style="stop-color:#ff7a00"/><stop offset=".678" style="stop-color:#fb7600"/><stop offset=".862" style="stop-color:#ee6b00"/><stop offset="1" style="stop-color:#e05e00"/></linearGradient><path d="M33.423 2.056c-9.68-.721-19.815 5.55-17.863 16.209 2.695-2.169 12.696-4.948 17.863-16.209z" style="fill:url(#k)"/><path d="M31.962 4.25c-8.59-.389-15.64 7.944-16.47 13.377 3.467-5.019 9.66-10.296 16.47-13.376z" style="opacity:.2;fill:#302c3b"/><linearGradient id="l" x1="14.313" x2="31.593" y1="22.031" y2="3.378" gradientUnits="userSpaceOnUse"><stop offset="0" style="stop-color:#e05e00"/><stop offset=".138" style="stop-color:#ee6b00"/><stop offset=".322" style="stop-color:#fb7600"/><stop offset=".5" style="stop-color:#ff7a00"/><stop offset=".678" style="stop-color:#fb7600"/><stop offset=".862" style="stop-color:#ee6b00"/><stop offset="1" style="stop-color:#e05e00"/></linearGradient><path d="M32.962 4.209c-7.96.078-15.72 7.576-17.497 13.507-.422 1.409-.138 4.82.59 5.879 2.694-2.169 11.741-8.126 16.907-19.386z" style="fill:url(#l)"/><path d="M33.423 2.056c-6.533 8.895-14.846 11.07-17.368 21.539 0 0 14.72-10.77 17.368-21.539z" style="opacity:.2;fill:#302c3b"/><linearGradient id="m" x1="16.599" x2="34.001" y1="28.086" y2="2.293" gradientUnits="userSpaceOnUse"><stop offset="0" style="stop-color:#e05e00"/><stop offset=".138" style="stop-color:#ee6b00"/><stop offset=".322" style="stop-color:#fb7600"/><stop offset=".5" style="stop-color:#ff7a00"/><stop offset=".678" style="stop-color:#fb7600"/><stop offset=".862" style="stop-color:#ee6b00"/><stop offset="1" style="stop-color:#e05e00"/></linearGradient><path d="M36.632 2.446c-1.124-.615-3.21-.39-3.21-.39-6.072 9.958-13.854 11.14-17.367 21.539 0 0-.698 4.363 3.237 7.092-1.263-12.423 10.844-8.672 17.34-28.242z" style="fill:url(#m)"/></svg>