<svg xmlns="http://www.w3.org/2000/svg" xml:space="preserve" style="enable-background:new 0 0 64 64" viewBox="0 0 64 64"><linearGradient id="a" x1="28.999" x2="28.999" y1="61.999" y2="43.592" gradientUnits="userSpaceOnUse"><stop offset="0" style="stop-color:#555f69"/><stop offset=".461" style="stop-color:#535d66"/><stop offset=".738" style="stop-color:#4b555e"/><stop offset=".966" style="stop-color:#3f4850"/><stop offset="1" style="stop-color:#3c454d"/></linearGradient><path d="M51.274 48.731c-2.686-1.291-10.26-4.144-13.884-4.68-4.129-.611-12.567-.612-16.695 0-3.63.538-11.207 3.397-13.91 4.683C2.872 50.597 0 57.145 0 59.562c0 3.25 57.998 3.25 57.998 0 0-2.413-2.82-8.961-6.724-10.83z" style="fill:url(#a)"/><path d="M20.122 44.69c0 5.187 17.755 5.187 17.755 0 0-4.7-17.755-4.7-17.755 0z" style="fill:#3c454d"/><radialGradient id="b" cx="28.999" cy="42.822" r="7.126" gradientTransform="matrix(1 0 0 5 0 -171.29)" gradientUnits="userSpaceOnUse"><stop offset="0" style="stop-color:#f2f9ff"/><stop offset=".393" style="stop-color:#eff6fc"/><stop offset=".685" style="stop-color:#e6edf3"/><stop offset=".944" style="stop-color:#d6dde3"/><stop offset="1" style="stop-color:#d1d8de"/></radialGradient><path d="M20.36 44.266c0 4.994 17.279 4.994 17.279 0v-6.632h-17.28v6.632z" style="fill:url(#b)"/><path d="M12.385 27.574s.509 4.933-.745 8.254c1.763-.19 2.22-1.08 2.22-1.08s-.062 2.311-.958 3.93c1.656.274 2.675-.547 2.675-.547s0 1.748.129 2.949c4.826-1.246 4.538-6.863 4.538-6.863l-7.86-6.643zm33.973 8.254c-1.254-3.329-.744-8.254-.744-8.254l-7.852 6.643s-.288 5.617 4.538 6.863c.129-1.2.129-2.949.129-2.949s1.018.82 2.675.547c-.904-1.611-.957-3.93-.957-3.93s.448.89 2.211 1.08z" style="fill:#3d2e24"/><path d="M45.439 21.425c-2.546.312-4.386 8.832-2.782 11.082.22.311 1.535.813 2.508-1.17.54-1.103 2.09-2.015 2.577-4.287.615-2.904.235-5.929-2.303-5.625zm-32.879 0c2.546.312 4.385 8.832 2.781 11.082-.22.311-1.535.813-2.508-1.17-.54-1.103-2.09-2.015-2.576-4.287-.616-2.904-.228-5.929 2.303-5.625z" style="fill:#916b50"/><path d="M45.37 23.06c-.66.212-1.39 1.223-1.778 2.903 2.318-.502 1.74 3.367-.274 3.443.015.388.046.79.091 1.208.973-1.413 1.961-.843 2.942-2.949.874-1.892.669-5.122-.98-4.605zm-30.964 2.895c-.395-1.68-1.117-2.69-1.778-2.895-1.642-.517-1.855 2.713-.973 4.605.98 2.098 1.969 1.536 2.941 2.95.046-.426.076-.821.092-1.217-2-.091-2.57-3.906-.282-3.443z" style="fill:#69452d"/><path d="M29 5.039c-11.029 0-16.342 8.984-15.68 20.529.136 2.318.782 5.67 1.58 8.542 1.65 5.967 8.946 11.971 14.1 11.971s12.441-6.004 14.098-11.97c.798-2.873 1.444-6.218 1.58-8.543C45.34 14.023 40.029 5.039 29 5.039z" style="fill:#916b50"/><path d="M40.985 20.574c-2.523-1.338-7.35-1.398-9.143-.471-.388.182-.13 1.444.19 1.322 2.508-.988 6.551-1.01 8.892.084.312.152.441-.745.06-.935zm-23.972 0c2.524-1.338 7.35-1.398 9.151-.471.388.182.13 1.444-.19 1.322-2.508-.988-6.544-1.01-8.892.084-.32.152-.449-.745-.069-.935z" style="fill:#523c31"/><path d="M31.979 32.165c-.312-.22-1.057.121-2.98.121s-2.66-.342-2.98-.121c-.38.266.221 1.467 2.98 1.467 2.752 0 3.352-1.201 2.98-1.467zM29 36.71c-2.479-.73-6.157.35-6.157.35 1.398 1.527 2.424 3.503 6.156 3.503 4.271 0 5.001-2.242 6.156-3.504 0-.007-3.678-1.086-6.156-.35z" style="fill:#69452d"/><path d="M23.77 37.31c2.6 2.181 7.851 2.197 10.466 0-2.774.122-7.677.122-10.466 0zm2.774-12.183c.091.73-.403 1.596-1.77 2.242-.875.41-2.684.897-5.07-.106-1.064-.449-2.106-1.855-2.014-2.63 1.292-2.432 7.646-2.79 8.854.494z" style="fill:#fff"/><linearGradient id="c" x1="-1210.945" x2="-1210.945" y1="172.1" y2="171.34" gradientTransform="translate(7978.266 -1103.139) scale(6.5701)" gradientUnits="userSpaceOnUse"><stop offset="0" style="stop-color:#a6694a"/><stop offset="1" style="stop-color:#4f2a1e"/></linearGradient><path d="M22.235 22.58c1.376 0 2.5 1.118 2.5 2.494s-1.117 2.492-2.5 2.492c-1.376 0-2.5-1.117-2.5-2.492s1.117-2.493 2.5-2.493z" style="fill:url(#c)"/><path d="M20.988 25.036c0 1.725 2.5 1.725 2.5 0-.007-1.604-2.5-1.604-2.5 0z" style="fill:#1a1626"/><path d="M20.608 24.336c0 .722 1.05.722 1.05 0-.008-.676-1.05-.676-1.05 0z" style="fill:#ab968c"/><path d="M26.56 25.226c-1.011-3.26-7.928-2.774-8.87-.586.35-2.812 8.003-3.549 8.87.586z" style="fill:#69452d"/><path d="M31.454 25.127c-.091.73.403 1.596 1.77 2.242.875.41 2.684.897 5.07-.106 1.072-.449 2.106-1.855 2.014-2.63-1.292-2.432-7.645-2.79-8.854.494z" style="fill:#fff"/><linearGradient id="d" x1="-1211.593" x2="-1211.593" y1="172.1" y2="171.34" gradientTransform="translate(7995.996 -1103.139) scale(6.5701)" gradientUnits="userSpaceOnUse"><stop offset="0" style="stop-color:#a6694a"/><stop offset="1" style="stop-color:#4f2a1e"/></linearGradient><path d="M35.71 22.58a2.5 2.5 0 1 1 0 5.002 2.5 2.5 0 0 1 0-5.001z" style="fill:url(#d)"/><path d="M34.464 25.036c0 1.725 2.5 1.725 2.5 0-.007-1.604-2.5-1.604-2.5 0z" style="fill:#1a1626"/><path d="M34.084 24.336c0 .722 1.049.722 1.049 0-.008-.676-1.05-.676-1.05 0z" style="fill:#ab968c"/><path d="M31.439 25.226c1.01-3.253 7.92-2.79 8.862-.586-.342-2.812-7.996-3.549-8.862.586z" style="fill:#69452d"/><path d="M47.909 2.826c-.338 13.336.547 21.538.547 21.538s1.02 2.345.853 2.85a4.216 4.216 0 0 0-1.799-.181c-2.24.26-3.853 2.208-3.601 4.345.25 2.142 2.27 3.663 4.508 3.406 2.24-.261 3.853-2.21 3.603-4.35-.026-.234-.186-.801-.2-.838-1.632-4.596-1.072-6.4-1.072-6.4l-2.84-20.37zm.289 30.084c-1.158.136-2.203-.652-2.332-1.758-.13-1.106.707-2.112 1.863-2.249 1.16-.134 2.205.654 2.332 1.76.133 1.105-.705 2.114-1.863 2.247z" style="fill:#bec3cf"/><path d="M18.61 6.766c5.776 5.51 22.968 8.96 25.947 21.098C40.491 15.68 25.541 19.1 18.61 6.766z" style="fill:#3d2e24"/><path d="M29.166 2.001c-6.71 0-10.063 3.04-10.747 4.484 8.368 12.776 22.55 8.451 26.138 21.386.773-2.575.122-5.829.122-5.829 10.547-3.223 10.875-10.53 10.875-10.53-11.161 4.54-9.693-9.51-26.388-9.51z" style="fill:#5c4233"/><path d="M29.166 2.001c-5.976 0-9.916 2.427-10.747 4.484 2.895 7.797 22.13 8.715 25.979 19.075-.776-5.675-2.922-7.606-2.922-7.606s4.104 2.548 10.349-2.397c-7.027 1.35-10.287-5.11-10.287-5.11s3.667 6.083 12.547 2.269C45.09 14.697 44.734 2 29.166 2z" style="fill:#6b4d3c"/><path d="M43.346 10.014C37.802.676 25.897 3.138 25.897 3.138s9.907.514 17.45 6.876z" style="fill:#7a5b49"/><path d="M43.08 16.239C34.084 1.614 20.988 5.805 20.988 5.805s11.025 1.08 22.092 10.434z" style="fill:#7a5b49"/><path d="M21.657 8.457c8.201 3.04 17.614 8.517 17.614 8.517s-5.565-8.359-17.614-8.517z" style="fill:#7a5b49"/><path d="M18.42 6.485C10.31 8.34 7.694 22.027 13.767 27.864c.752-6.225 1.482-10.222 5.617-14.433 0 0 .243-3.7-.966-6.946z" style="fill:#5c4233"/><path d="M19.195 12.953s-5.328 4.94-5.427 14.91c.912-9.88 5.67-14.34 5.67-14.34l-.243-.57z" style="fill:#3d2e24"/><path d="M18.503 6.766s-9.41 3.215-6.726 16.165a19.6 19.6 0 0 1 .395-2.919c-.018 1.617.223 3.39.844 5.329.813-8.999 6.034-13.392 6.034-13.392l-.547-5.183z" style="fill:#6b4d3c"/><path d="M12.71 19.862c1.2-6.725 6.54-11.16 6.54-11.16s-7.423.49-6.54 11.16z" style="fill:#7a5b49"/><path d="M18.42 6.485c-2.212 10.032 8.39 12 12.882 12-8.072-5.593-12.883-12-12.883-12z" style="fill:#5c4233"/><path d="M18.153 8.271c.213 5.746 3.345 9.333 13.15 10.214-7.67.517-14.328-3.313-13.15-10.214z" style="fill:#3d2e24"/><path d="M18.42 6.485s-1.228 9.034 12.882 12c-7.776-6-9.183-9.465-12.883-12z" style="fill:#6b4d3c"/><path d="M26.522 15.858c-2.489-1.625-6.505-7.486-6.505-7.486s.786 6.056 6.505 7.486z" style="fill:#7a5b49"/><path d="M56.725 22.053a3.894 3.894 0 0 0-.785 1.57c-.532-.135-2.069-2.194-2.069-2.194L37.626 8.364c5.39 8.153 10.705 11.588 10.806 12.977.182 2.506 2.78 2.37 3.373 1.17 0 0 1.717.667 4.926 4.416.025.03.447.459.636.605 1.764 1.328 4.332 1.028 5.739-.671 1.41-1.695 1.12-4.15-.643-5.48-1.762-1.328-4.326-1.025-5.738.672zm4.843 3.65a2.188 2.188 0 0 1-2.968.345 1.953 1.953 0 0 1-.332-2.835 2.183 2.183 0 0 1 2.967-.347 1.957 1.957 0 0 1 .334 2.836z" style="fill:#cfd8dd"/><path d="M51.006 20.527c.465.353.543 1.003.17 1.452-.375.45-1.054.53-1.521.181a1 1 0 0 1-.168-1.453 1.117 1.117 0 0 1 1.52-.18z" style="fill:#302c3b"/></svg>