<svg xmlns="http://www.w3.org/2000/svg" xml:space="preserve" style="enable-background:new 0 0 64 64" viewBox="0 0 64 64"><linearGradient id="a" x1="43.597" x2="52.019" y1="63.697" y2="55.275" gradientUnits="userSpaceOnUse"><stop offset="0" style="stop-color:#a30009"/><stop offset=".1" style="stop-color:#b30610"/><stop offset=".291" style="stop-color:#ca101a"/><stop offset=".495" style="stop-color:#db1721"/><stop offset=".719" style="stop-color:#e51b26"/><stop offset="1" style="stop-color:#e81c27"/></linearGradient><path d="M53 60.83c0-2.026-1.527-6.532-2.48-7.002-1.061-.523-6.807 2.788-6.807 2.788l2.258 6.92S53 62.954 53 60.83z" style="fill:url(#a)"/><linearGradient id="b" x1="11.981" x2="20.403" y1="55.275" y2="63.697" gradientUnits="userSpaceOnUse"><stop offset="0" style="stop-color:#e81c27"/><stop offset=".281" style="stop-color:#e51b26"/><stop offset=".504" style="stop-color:#db1721"/><stop offset=".709" style="stop-color:#ca101a"/><stop offset=".9" style="stop-color:#b30610"/><stop offset="1" style="stop-color:#a30009"/></linearGradient><path d="m18.029 63.535 2.258-6.92s-5.746-3.31-6.807-2.787c-.953.47-2.48 4.976-2.48 7.002 0 2.125 7.029 2.705 7.029 2.705z" style="fill:url(#b)"/><linearGradient id="c" x1="32" x2="32" y1="60.117" y2="48.856" gradientUnits="userSpaceOnUse"><stop offset=".244" style="stop-color:#e81c27"/><stop offset=".61" style="stop-color:#e61b26"/><stop offset=".742" style="stop-color:#df1823"/><stop offset=".836" style="stop-color:#d4141e"/><stop offset=".912" style="stop-color:#c30d17"/><stop offset=".977" style="stop-color:#ad040d"/><stop offset="1" style="stop-color:#a30009"/></linearGradient><path d="M45.971 63.535c.006-4.227 3.316-8.25 4.55-9.707l-11.323-5.153-14.396.026-11.322 5.127c1.233 1.456 4.543 5.48 4.549 9.707 0 0 6.188.465 13.353.465 0-.879.494-.879.494 0 7.195 0 14.095-.465 14.095-.465z" style="fill:url(#c)"/><path d="M41.262 49.39c-.455-.25.045 2.163.374 2.436.715.592 5.99 3.117 9.339 3.831.963.206.392-1.575-.338-2.008-.473-.285-8.635-3.85-9.375-4.258z" style="fill:#e6ebef"/><linearGradient id="d" x1="41.22" x2="51.318" y1="52.321" y2="52.321" gradientUnits="userSpaceOnUse"><stop offset="0" style="stop-color:#1a1626"/><stop offset="1" style="stop-color:#383345"/></linearGradient><path d="M41.223 49.673c.053.612.47 1.712.872 1.968 1.179.75 6.591 3.143 8.759 3.624.962.214.25-1.754-.525-2.098-1.103-.49-5.76-2.07-8.993-3.797-.11-.059-.124.179-.113.303z" style="fill:url(#d)"/><linearGradient id="e" x1="30.997" x2="30.997" y1="94.353" y2="92.607" gradientTransform="rotate(3.75 690.339 254.933)" gradientUnits="userSpaceOnUse"><stop offset="0" style="stop-color:#de7a00"/><stop offset="1" style="stop-color:#fff2a3"/></linearGradient><path d="M43.899 50.819c.544 1.171-1.23.997-1.824-.156-.663-1.28 1.249-1.06 1.824.156z" style="fill:url(#e)"/><path d="M22.738 49.39c.455-.25-.045 2.163-.374 2.436-.715.592-5.99 3.117-9.339 3.831-.963.206-.392-1.575.338-2.008.473-.285 8.635-3.85 9.375-4.258z" style="fill:#e6ebef"/><linearGradient id="f" x1="12.682" x2="22.78" y1="52.321" y2="52.321" gradientUnits="userSpaceOnUse"><stop offset="0" style="stop-color:#383345"/><stop offset="1" style="stop-color:#1a1626"/></linearGradient><path d="M22.777 49.673c-.053.612-.47 1.712-.872 1.968-1.178.75-6.591 3.143-8.759 3.624-.962.214-.25-1.754.525-2.098 1.103-.49 5.76-2.07 8.993-3.797.11-.059.124.179.113.303z" style="fill:url(#f)"/><linearGradient id="g" x1="1321.805" x2="1321.805" y1="9.757" y2="8.01" gradientTransform="scale(-1 1) rotate(3.75 11.551 -20481.722)" gradientUnits="userSpaceOnUse"><stop offset="0" style="stop-color:#de7a00"/><stop offset="1" style="stop-color:#fff2a3"/></linearGradient><path d="M20.101 50.819c-.544 1.171 1.23.997 1.824-.156.663-1.28-1.249-1.06-1.824.156z" style="fill:url(#g)"/><linearGradient id="h" x1="33.655" x2="33.655" y1="57.702" y2="55.202" gradientUnits="userSpaceOnUse"><stop offset="0" style="stop-color:#de7a00"/><stop offset="1" style="stop-color:#fff2a3"/></linearGradient><path d="M34.905 56.452c0 1.667-2.5 1.667-2.5 0s2.5-1.667 2.5 0z" style="fill:url(#h)"/><linearGradient id="i" x1="33.655" x2="33.655" y1="62.618" y2="60.118" gradientUnits="userSpaceOnUse"><stop offset="0" style="stop-color:#de7a00"/><stop offset="1" style="stop-color:#fff2a3"/></linearGradient><path d="M34.905 61.368c0 1.667-2.5 1.667-2.5 0s2.5-1.666 2.5 0z" style="fill:url(#i)"/><linearGradient id="j" x1="24.299" x2="31.595" y1="49.436" y2="49.436" gradientUnits="userSpaceOnUse"><stop offset="0" style="stop-color:#1a1626"/><stop offset="1" style="stop-color:#383345"/></linearGradient><path d="M24.3 47.472v-2.948h.972c-.604 6.904 6.323 7.086 6.323 7.086v2.737s-7.296-.025-7.296-6.875z" style="fill:url(#j)"/><linearGradient id="k" x1="32.405" x2="39.706" y1="49.436" y2="49.436" gradientUnits="userSpaceOnUse"><stop offset="0" style="stop-color:#383345"/><stop offset="1" style="stop-color:#1a1626"/></linearGradient><path d="M39.706 47.472v-2.948h-.977c.588 6.826-5.887 7.074-5.887 7.074l-.437 2.75s7.301-.026 7.301-6.876z" style="fill:url(#k)"/><linearGradient id="l" x1="37.598" x2="37.598" y1="51.824" y2="50.506" gradientUnits="userSpaceOnUse"><stop offset="0" style="stop-color:#de7a00"/><stop offset="1" style="stop-color:#fff2a3"/></linearGradient><path d="M38.052 50.595c-.698-.414-1.608.723-.907 1.14.698.412 1.605-.728.907-1.14z" style="fill:url(#l)"/><linearGradient id="m" x1="26.402" x2="26.402" y1="51.824" y2="50.506" gradientUnits="userSpaceOnUse"><stop offset="0" style="stop-color:#de7a00"/><stop offset="1" style="stop-color:#fff2a3"/></linearGradient><path d="M25.948 50.595c.698-.414 1.608.723.907 1.14-.698.412-1.605-.728-.907-1.14z" style="fill:url(#m)"/><path d="m32.422 54.347-.28-2.749c-.015-.166-.118-.321-.285-.339-1.194-.124-6.595-.908-7.456-5.464.647 4.377 4.591 5.78 6.911 5.905a.278.278 0 0 1 .268.28v2.367h.842z" style="fill:#e6ebef"/><path d="M32.143 51.598h.699v2.749h-.699z" style="fill:#1a1626"/><path d="M33.131 51.243c-.17.028-.421.183-.421.355v2.34a.211.211 0 0 1-.211.21h-.564c-.429 0-.553.349-.553.778V64h.494v-9.096c0-.117.22-.211.336-.211h.241c.43 0 .777-.052.777-.48v-2.274a.27.27 0 0 1 .244-.272c2.318-.267 5.644-1.741 6.157-5.99-.707 4.422-5.406 5.383-6.5 5.566z" style="fill:#e6ebef"/><path d="M45.14 31.142c-2.036.249-3.506 7.06-2.224 8.857.176.25 1.227.65 2.005-.935.431-.881 1.67-1.61 2.06-3.427.491-2.32.188-4.738-1.842-4.495zm-26.282 0c2.035.249 3.505 7.06 2.223 8.857-.176.25-1.227.65-2.005-.935-.431-.881-1.67-1.61-2.06-3.427-.491-2.32-.181-4.738 1.842-4.495z" style="fill:#ffd8b4"/><path d="M45.085 32.448c-.529.17-1.112.978-1.422 2.32 1.853-.4 1.391 2.692-.219 2.753.013.31.037.632.073.966.778-1.13 1.568-.675 2.351-2.358.7-1.512.535-4.094-.783-3.681zm-24.751 2.315c-.316-1.343-.893-2.151-1.422-2.315-1.312-.413-1.482 2.169-.777 3.681.783 1.677 1.573 1.228 2.35 2.358.037-.34.062-.656.074-.972-1.598-.073-2.054-3.123-.225-2.752z" style="fill:#deb38a"/><path d="M31.999 18.043c-8.816 0-13.062 7.181-12.534 16.41.11 1.853.626 4.532 1.264 6.828 1.318 4.77 7.15 9.569 11.27 9.569 4.118 0 9.945-4.8 11.27-9.569.637-2.296 1.154-4.97 1.263-6.828.528-9.229-3.718-16.41-12.533-16.41z" style="fill:#ffd8b4"/><path d="M34.38 39.726c-.25-.176-.844.097-2.381.097s-2.127-.273-2.382-.097c-.304.213.176 1.173 2.382 1.173 2.199 0 2.679-.96 2.381-1.173z" style="fill:#deb38a"/><path d="M30.036 34.1c.073.583-.322 1.276-1.415 1.792-.699.328-2.145.717-4.052-.085-.851-.358-1.683-1.482-1.61-2.102 1.032-1.944 6.111-2.23 7.077.395z" style="fill:#fff"/><linearGradient id="n" x1="-1210.282" x2="-1210.282" y1="173.391" y2="172.784" gradientTransform="translate(7978.266 -1103.139) scale(6.5701)" gradientUnits="userSpaceOnUse"><stop offset="0" style="stop-color:#a6694a"/><stop offset="1" style="stop-color:#4f2a1e"/></linearGradient><path d="M26.591 32.065c1.1 0 2 .893 2 1.993s-.894 1.992-2 1.992a2 2 0 0 1-1.998-1.992c0-1.1.893-1.993 1.998-1.993z" style="fill:url(#n)"/><path d="M25.595 34.027c0 1.38 1.999 1.38 1.999 0-.006-1.282-1.999-1.282-1.999 0z" style="fill:#1a1626"/><path d="M25.291 33.468c0 .578.839.578.839 0-.006-.54-.839-.54-.839 0z" style="fill:#ab968c"/><path d="M30.048 34.18c-.808-2.607-6.336-2.218-7.09-.469.28-2.247 6.398-2.837 7.09.468z" style="fill:#deb38a"/><path d="M33.96 34.1c-.072.583.323 1.276 1.416 1.792.7.328 2.145.717 4.053-.085.856-.358 1.682-1.482 1.61-2.102-1.033-1.944-6.112-2.23-7.078.395z" style="fill:#fff"/><linearGradient id="o" x1="-1211.341" x2="-1211.341" y1="173.391" y2="172.784" gradientTransform="translate(7995.996 -1103.139) scale(6.5701)" gradientUnits="userSpaceOnUse"><stop offset="0" style="stop-color:#a6694a"/><stop offset="1" style="stop-color:#4f2a1e"/></linearGradient><path d="M37.363 32.065a1.999 1.999 0 1 1 0 3.998 1.999 1.999 0 0 1 0-3.998z" style="fill:url(#o)"/><path d="M36.367 34.027c0 1.38 1.998 1.38 1.998 0-.006-1.282-1.998-1.282-1.998 0z" style="fill:#1a1626"/><path d="M36.063 33.468c0 .578.838.578.838 0-.006-.54-.838-.54-.838 0z" style="fill:#ab968c"/><path d="M33.949 34.18c.808-2.601 6.33-2.23 7.084-.469-.274-2.247-6.392-2.837-7.084.468zm2.673 10.044c-3.198 2.209-6.184 2.036-9.245 0 3.18-.532 6.066-.532 9.245 0z" style="fill:#deb38a"/><path d="M32 43.502c-1.35-.432-2.52.437-4.622.722 1.132.238 2.999.105 4.622.18 1.623-.075 3.488.058 4.622-.18-2.1-.285-3.274-1.154-4.622-.722z" style="fill:#c29c79"/><path d="M43.162 33.728v4.408c0 5.836-4.049 10.25-11.165 10.25-7.11 0-11.164-4.414-11.164-10.25v-4.408h-1.861v4.408c0 6.698 4.837 12.14 13.025 12.14 8.186 0 13.027-5.442 13.027-12.14v-4.408h-1.862z" style="fill:#1a1626"/><path d="M19.882 34.54a.7.7 0 0 1 .688.712.7.7 0 0 1-.688.711.702.702 0 0 1-.688-.711c0-.392.31-.712.688-.712m0-.251c-.515 0-.931.431-.931.963 0 .531.416.963.931.963.513 0 .931-.432.931-.963 0-.532-.418-.963-.93-.963z" style="fill:#ebab2a"/><path d="M19.884 35.749a.7.7 0 0 1 .686.711.7.7 0 0 1-.686.712c-.38 0-.69-.32-.69-.712 0-.392.31-.711.69-.711m0-.252c-.515 0-.933.432-.933.963s.418.963.933.963c.513 0 .93-.431.93-.963s-.417-.962-.93-.962z" style="fill:#ebc16c"/><path d="M19.882 36.956c.38 0 .688.32.688.712a.7.7 0 0 1-.688.711.701.701 0 0 1-.688-.711c0-.391.31-.712.688-.712m0-.251c-.515 0-.931.432-.931.963 0 .533.416.963.931.963.513 0 .931-.43.931-.963 0-.53-.418-.963-.93-.963z" style="fill:#ebab2a"/><path d="M19.886 38.162a.7.7 0 0 1 .686.711.7.7 0 0 1-.686.712c-.38 0-.69-.32-.69-.712 0-.392.31-.71.69-.71m0-.252c-.515 0-.933.431-.933.962 0 .532.418.964.933.964.513 0 .93-.432.93-.964 0-.531-.417-.962-.93-.962z" style="fill:#ebc16c"/><path d="M19.977 39.326a.7.7 0 0 1 .686.712.7.7 0 0 1-.686.711.7.7 0 0 1-.688-.711.7.7 0 0 1 .688-.712m0-.251c-.515 0-.931.431-.931.963s.416.963.931.963c.513 0 .93-.431.93-.963s-.417-.963-.93-.963z" style="fill:#ebab2a"/><path d="M20.2 40.45c.378 0 .686.32.686.712s-.308.711-.686.711c-.38 0-.69-.32-.69-.711s.31-.712.69-.712m0-.251c-.515 0-.934.431-.934.963s.419.963.934.963c.513 0 .93-.432.93-.963s-.417-.963-.93-.963z" style="fill:#ebc16c"/><path d="M20.546 41.527a.7.7 0 0 1 .686.712.7.7 0 0 1-.686.711.7.7 0 0 1-.688-.711.7.7 0 0 1 .688-.712m0-.251c-.515 0-.932.431-.932.963 0 .531.416.963.931.963.514 0 .93-.432.93-.963 0-.532-.416-.963-.93-.963z" style="fill:#ebab2a"/><path d="M21.01 42.552a.7.7 0 0 1 .687.712.7.7 0 0 1-.688.71.702.702 0 0 1-.688-.71c0-.392.31-.712.688-.712m0-.251c-.515 0-.931.431-.931.963 0 .531.416.962.931.962.513 0 .932-.43.932-.962s-.418-.963-.932-.963z" style="fill:#ebc16c"/><path d="M21.585 43.518c.38 0 .688.32.688.712a.7.7 0 0 1-.688.71.701.701 0 0 1-.688-.71c0-.392.31-.712.688-.712m0-.252c-.515 0-.931.433-.931.964 0 .532.416.962.931.962.513 0 .931-.43.931-.963 0-.53-.417-.962-.93-.962z" style="fill:#ebab2a"/><path d="M22.266 44.42a.7.7 0 0 1 .688.711.7.7 0 0 1-.688.712.701.701 0 0 1-.688-.712c0-.39.31-.71.688-.71m0-.252c-.515 0-.932.432-.932.962 0 .533.417.963.932.963.513 0 .931-.43.931-.963 0-.53-.418-.962-.931-.962z" style="fill:#ebc16c"/><path d="M23.043 45.252a.7.7 0 0 1 .688.712.7.7 0 0 1-.688.711.702.702 0 0 1-.688-.711c0-.392.31-.712.688-.712m0-.251c-.515 0-.931.431-.931.963 0 .531.416.963.931.963.513 0 .931-.432.931-.963 0-.532-.418-.963-.93-.963z" style="fill:#ebab2a"/><path d="M23.914 46.008a.7.7 0 0 1 .686.711.7.7 0 0 1-.686.712.701.701 0 0 1-.69-.712c0-.39.31-.711.69-.711m0-.252c-.516 0-.934.433-.934.963 0 .533.418.963.934.963.513 0 .93-.43.93-.963 0-.53-.417-.963-.93-.963z" style="fill:#ebc16c"/><path d="M24.868 46.682a.7.7 0 0 1 .686.711.7.7 0 0 1-.686.712.7.7 0 0 1-.688-.712c0-.39.308-.711.688-.711m0-.252c-.515 0-.932.433-.932.963 0 .533.417.963.932.963.513 0 .93-.43.93-.963 0-.53-.417-.963-.93-.963z" style="fill:#ebab2a"/><path d="M25.9 47.269a.7.7 0 0 1 .686.71.7.7 0 0 1-.686.712c-.38 0-.69-.32-.69-.711 0-.392.31-.711.69-.711m0-.252c-.515 0-.933.431-.933.963 0 .531.418.963.933.963.513 0 .93-.432.93-.963 0-.532-.417-.963-.93-.963z" style="fill:#ebc16c"/><path d="M27.002 47.762a.7.7 0 0 1 .688.711.7.7 0 0 1-.688.711.702.702 0 0 1-.688-.71c0-.393.31-.712.688-.712m0-.252c-.515 0-.931.432-.931.963 0 .532.416.963.931.963.513 0 .931-.431.931-.963 0-.531-.418-.963-.93-.963z" style="fill:#ebab2a"/><path d="M28.171 48.156a.7.7 0 0 1 .688.711.7.7 0 0 1-.688.712.702.702 0 0 1-.688-.712c0-.392.31-.711.688-.711m0-.252c-.515 0-.931.431-.931.963s.416.963.931.963c.513 0 .931-.431.931-.963 0-.531-.418-.963-.93-.963z" style="fill:#ebc16c"/><path d="M29.399 48.444a.7.7 0 0 1 .686.711.7.7 0 0 1-.686.711.7.7 0 0 1-.688-.711.7.7 0 0 1 .688-.711m0-.252c-.515 0-.931.432-.931.963 0 .532.416.963.93.963s.93-.431.93-.963-.416-.963-.93-.963z" style="fill:#ebab2a"/><path d="M30.678 48.621a.7.7 0 0 1 .686.712.7.7 0 0 1-.686.711.702.702 0 0 1-.69-.711c0-.392.31-.712.69-.712m0-.251c-.515 0-.933.431-.933.963 0 .531.418.963.933.963.513 0 .93-.432.93-.963 0-.532-.417-.963-.93-.963z" style="fill:#ebc16c"/><path d="M32.001 48.681a.7.7 0 0 1 .686.712.7.7 0 0 1-.686.711c-.38 0-.69-.32-.69-.711 0-.392.31-.712.69-.712m0-.251c-.517 0-.933.431-.933.963 0 .531.416.963.933.963.511 0 .93-.432.93-.963 0-.532-.419-.963-.93-.963z" style="fill:#ebab2a"/><path d="M33.324 48.621a.7.7 0 0 1 .688.712.701.701 0 0 1-.688.711.702.702 0 0 1-.688-.711c0-.393.31-.712.688-.712m0-.251c-.515 0-.932.43-.932.963 0 .53.417.963.932.963.513 0 .931-.433.931-.963 0-.533-.418-.963-.931-.963z" style="fill:#ebc16c"/><path d="M34.603 48.444a.7.7 0 0 1 .686.711.7.7 0 0 1-.686.711.702.702 0 0 1-.69-.711c0-.392.31-.711.69-.711m0-.252c-.515 0-.933.432-.933.963 0 .532.418.963.933.963.513 0 .93-.431.93-.963s-.417-.963-.93-.963z" style="fill:#ebab2a"/><path d="M35.829 48.156a.7.7 0 0 1 .688.711.7.7 0 0 1-.688.712.702.702 0 0 1-.688-.712c0-.392.31-.711.688-.711m0-.252c-.515 0-.931.431-.931.963s.416.963.93.963.932-.431.932-.963c0-.531-.418-.963-.931-.963z" style="fill:#ebc16c"/><path d="M37 47.762a.7.7 0 0 1 .686.711.7.7 0 0 1-.686.711.702.702 0 0 1-.69-.71c0-.393.31-.712.69-.712m0-.252c-.517 0-.933.432-.933.963 0 .532.416.963.933.963.511 0 .93-.431.93-.963 0-.531-.419-.963-.93-.963z" style="fill:#ebab2a"/><path d="M38.102 47.269a.7.7 0 0 1 .686.71.7.7 0 0 1-.686.712c-.38 0-.69-.32-.69-.711 0-.392.31-.711.69-.711m0-.252c-.515 0-.933.431-.933.963 0 .531.418.963.933.963.513 0 .93-.432.93-.963 0-.532-.417-.963-.93-.963z" style="fill:#ebc16c"/><path d="M39.134 46.682a.7.7 0 0 1 .686.711.7.7 0 0 1-.686.712.701.701 0 0 1-.69-.712c0-.39.31-.711.69-.711m0-.252c-.515 0-.933.433-.933.963 0 .533.418.963.933.963.514 0 .93-.43.93-.963 0-.53-.416-.963-.93-.963z" style="fill:#ebab2a"/><path d="M40.088 46.008a.7.7 0 0 1 .686.711.7.7 0 0 1-.686.712c-.38 0-.69-.32-.69-.712 0-.392.31-.711.69-.711m0-.252c-.515 0-.933.432-.933.963 0 .532.418.963.933.963.513 0 .93-.431.93-.963 0-.531-.416-.963-.93-.963z" style="fill:#ebc16c"/><path d="M40.957 45.252a.7.7 0 0 1 .686.712.7.7 0 0 1-.686.711c-.38 0-.69-.32-.69-.711 0-.392.31-.712.69-.712m0-.251c-.515 0-.933.431-.933.963 0 .531.418.963.933.963.513 0 .93-.432.93-.963 0-.532-.417-.963-.93-.963z" style="fill:#ebab2a"/><path d="M41.734 44.42a.7.7 0 0 1 .688.711.7.7 0 0 1-.688.712.701.701 0 0 1-.688-.712c0-.39.31-.71.688-.71m0-.252c-.515 0-.93.432-.93.962 0 .533.415.963.93.963.514 0 .932-.43.932-.963 0-.53-.418-.962-.932-.962z" style="fill:#ebc16c"/><path d="M42.415 43.518a.7.7 0 0 1 .686.712.7.7 0 0 1-.686.71.702.702 0 0 1-.69-.71c0-.393.31-.712.69-.712m0-.252c-.515 0-.933.432-.933.964 0 .531.418.962.933.962.513 0 .93-.43.93-.963 0-.531-.417-.962-.93-.962z" style="fill:#ebab2a"/><path d="M42.99 42.552a.7.7 0 0 1 .687.712.7.7 0 0 1-.686.71.701.701 0 0 1-.69-.71c0-.392.31-.712.69-.712m0-.251c-.515 0-.934.431-.934.963 0 .531.419.962.934.962.513 0 .93-.43.93-.962s-.417-.963-.93-.963z" style="fill:#ebc16c"/><path d="M43.455 41.527a.7.7 0 0 1 .686.712.7.7 0 0 1-.686.711c-.38 0-.69-.32-.69-.711 0-.392.31-.712.69-.712m0-.251c-.516 0-.934.431-.934.963 0 .531.418.963.934.963.513 0 .929-.432.929-.963 0-.532-.416-.963-.93-.963z" style="fill:#ebab2a"/><path d="M43.8 40.45c.38 0 .689.32.689.712s-.308.711-.689.711c-.378 0-.688-.32-.688-.711s.31-.712.688-.712m0-.251c-.515 0-.93.431-.93.963s.415.963.93.963c.514 0 .932-.432.932-.963s-.419-.963-.932-.963z" style="fill:#ebc16c"/><path d="M44.025 39.326a.7.7 0 0 1 .686.712.7.7 0 0 1-.686.711.702.702 0 0 1-.69-.711c0-.392.31-.712.69-.712m0-.251c-.517 0-.933.431-.933.963s.416.963.933.963c.511 0 .93-.431.93-.963s-.419-.963-.93-.963z" style="fill:#ebab2a"/><path d="M44.114 38.161c.38 0 .688.32.688.712a.7.7 0 0 1-.688.71.701.701 0 0 1-.688-.71c0-.392.31-.712.688-.712m0-.251c-.515 0-.931.432-.931.963 0 .532.416.963.931.963.513 0 .931-.431.931-.963 0-.531-.418-.963-.93-.963z" style="fill:#ebc16c"/><path d="M44.118 36.956a.7.7 0 0 1 .686.712.7.7 0 0 1-.686.711.701.701 0 0 1-.69-.711c0-.391.31-.712.69-.712m0-.251c-.517 0-.934.432-.934.963 0 .533.417.963.934.963.511 0 .93-.43.93-.963 0-.53-.419-.963-.93-.963z" style="fill:#ebab2a"/><path d="M44.116 35.749a.7.7 0 0 1 .688.711.7.7 0 0 1-.688.712.702.702 0 0 1-.688-.712c0-.392.31-.711.688-.711m0-.252c-.515 0-.931.432-.931.963s.416.963.931.963c.513 0 .931-.431.931-.963s-.418-.962-.931-.962z" style="fill:#ebc16c"/><path d="M44.118 34.54a.7.7 0 0 1 .686.712.7.7 0 0 1-.686.711c-.38 0-.69-.32-.69-.711 0-.392.31-.712.69-.712m0-.251c-.517 0-.934.431-.934.963 0 .531.417.963.934.963.511 0 .93-.432.93-.963 0-.532-.419-.963-.93-.963z" style="fill:#ebab2a"/><linearGradient id="p" x1="16" x2="48" y1="17.5" y2="17.5" gradientUnits="userSpaceOnUse"><stop offset="0" style="stop-color:#4c4b4f"/><stop offset=".077" style="stop-color:#414044"/><stop offset=".189" style="stop-color:#3b3a3d"/><stop offset=".5" style="stop-color:#39383b"/><stop offset=".811" style="stop-color:#3b3a3d"/><stop offset=".922" style="stop-color:#414044"/><stop offset="1" style="stop-color:#4c4b4f"/></linearGradient><path d="M47.997 14.57c-.053-.208.05-1.78-.645-2.928.192-.003.603.062.591-.088-.021-.235-.263-.809-1.193-2.476.592-.272 1.09-.336 1.023-.468-.1-.198-.546-1.58-1.872-2.673.403-.109.913-.153.816-.245-.143-.14-.892-1.233-2.388-2.055.12-.122.388-.234.273-.294-.158-.087-.755-.78-2.244-1.085.104-.175.394-.227.3-.327-.144-.155-1.425-.91-3.797-.981.062-.341.21-.529.074-.548-.199-.032-1.392.098-2.08.494.003-.258.22-.632.134-.642-.192-.022-1.438-.02-2.728.593.068-.814.17-.852.056-.847-.173.01-.944.195-2.317 1.316C30.627.196 29.856.009 29.683 0c-.114-.005-.012.033.056.848-1.29-.614-2.536-.616-2.728-.594-.087.01.131.384.135.642C26.457.5 25.264.37 25.065.402c-.136.02.012.207.074.548-2.372.07-3.653.827-3.797.98-.094.101.196.153.3.328-1.488.304-2.086.998-2.243 1.085-.116.06.151.172.272.294-1.496.822-2.244 1.916-2.388 2.055-.097.092.413.136.816.245-1.327 1.094-1.771 2.475-1.872 2.673-.067.132.431.196 1.023.468-.93 1.667-1.172 2.241-1.194 2.476-.011.15.4.085.592.088-.696 1.149-.592 2.72-.646 2.929-.036.144.347-.043.535-.121 0 1.32-.365 2.073-.48 2.242-.078.118.48-.039.742-.196-.535.836-.697 2.588-.685 2.806.005.15.212-.095.342-.094-.254 1.185-.345 2.295-.31 2.509.02.148.27-.063.37-.184.015.454-.274 1.24-.345 1.442-.047.14.386-.086.519-.277a15.267 15.267 0 0 1-.52 3.993c-.04.143.319-.085.533-.342-.095 1.31-.328 2.716-.27 2.89.016.044.129-.085.265-.18-.336 1.324-.24 2.529-.235 2.747.003.159.2-.181.517-.243-.336 1.135-.363 2.325-.337 2.492.017.12.532-.15.532-.15-.074.338-.16.913-.06.904.095-.008.564-.097.953-.3.089-.045.03.337.063.426.03.078 1.147-.28 1.476-.619.047.339-.143.577-.1.67.04.084 1.477-.186 2.667-1.308.147.488 0 1.042.127.993.187-.069 1.354-.549 2.157-1.6-.018.479-.322.978-.195.995.2.03 1.675-.112 2.923-1.292.077.376.007.735.086.754.2.049 1.388-.237 2.756-1.157-.013.164-.137.41-.007.395.22-.022 1.035-.29 1.979-.896.944.606 1.758.874 1.978.896.131.015.007-.23-.006-.395 1.368.92 2.555 1.206 2.756 1.157.08-.02.009-.378.086-.754 1.248 1.18 2.724 1.322 2.923 1.292.126-.017-.178-.516-.195-.995.803 1.051 1.97 1.531 2.157 1.6.127.049-.02-.505.127-.993 1.19 1.122 2.627 1.392 2.667 1.308.043-.093-.147-.331-.1-.67.329.339 1.446.697 1.475.619.033-.089-.025-.471.063-.425.39.202.859.29.954.3.1.008.014-.567-.06-.906 0 0 .515.27.531.15.027-.166 0-1.356-.336-2.49.317.06.514.4.517.242.006-.218.101-1.423-.235-2.747.136.095.25.224.264.18.059-.174-.174-1.58-.27-2.89.215.257.574.485.533.342a15.32 15.32 0 0 1-.519-3.992c.133.19.566.415.519.276-.07-.201-.36-.988-.345-1.442.1.121.35.332.37.184.035-.214-.056-1.324-.31-2.509.13 0 .337.244.342.094.011-.218-.15-1.97-.685-2.806.262.157.82.314.742.196-.115-.169-.48-.923-.48-2.242.188.078.571.264.534.12z" style="fill:url(#p)"/></svg>