<svg xmlns="http://www.w3.org/2000/svg" xml:space="preserve" style="enable-background:new 0 0 64 64" viewBox="0 0 64 64"><linearGradient id="a" x1="458.815" x2="459.989" y1="436.97" y2="436.97" gradientTransform="rotate(45.001 777.163 -264.469)" gradientUnits="userSpaceOnUse"><stop offset="0" style="stop-color:#cfd8dd"/><stop offset=".18" style="stop-color:#cad3d8"/><stop offset=".405" style="stop-color:#bac3c8"/><stop offset=".653" style="stop-color:#a1aaaf"/><stop offset=".916" style="stop-color:#7e888d"/><stop offset="1" style="stop-color:#717b80"/></linearGradient><path d="M61.71.78 48.97 13.65l.76.77L64 0z" style="fill:url(#a)"/><linearGradient id="b" x1="458.366" x2="460.603" y1="446.47" y2="446.47" gradientTransform="rotate(45.001 777.163 -264.469)" gradientUnits="userSpaceOnUse"><stop offset="0" style="stop-color:#9ef2ff"/><stop offset=".223" style="stop-color:#9aeffc"/><stop offset=".454" style="stop-color:#8de6f2"/><stop offset=".689" style="stop-color:#79d7e2"/><stop offset=".925" style="stop-color:#5cc3cc"/><stop offset="1" style="stop-color:#51bbc4"/></linearGradient><path d="m49.29 12.56-.49.5 1.56 1.59.5-.5z" style="fill:url(#b)"/><linearGradient id="c" x1="457.665" x2="461.348" y1="448.013" y2="448.013" gradientTransform="rotate(45.001 777.163 -264.469)" gradientUnits="userSpaceOnUse"><stop offset="0" style="stop-color:#9ef2ff"/><stop offset=".223" style="stop-color:#9aeffc"/><stop offset=".454" style="stop-color:#8de6f2"/><stop offset=".689" style="stop-color:#79d7e2"/><stop offset=".925" style="stop-color:#5cc3cc"/><stop offset="1" style="stop-color:#51bbc4"/></linearGradient><path d="m50.59 14.42-1.56-1.59-.84-.16-1.79 1.81 2.57 2.61 1.8-1.81z" style="fill:url(#c)"/><linearGradient id="d" x1="456.535" x2="462.535" y1="452.429" y2="452.429" gradientTransform="rotate(45.001 777.163 -264.469)" gradientUnits="userSpaceOnUse"><stop offset="0" style="stop-color:#9ef2ff"/><stop offset=".223" style="stop-color:#9aeffc"/><stop offset=".454" style="stop-color:#8de6f2"/><stop offset=".689" style="stop-color:#79d7e2"/><stop offset=".925" style="stop-color:#5cc3cc"/><stop offset="1" style="stop-color:#51bbc4"/></linearGradient><path d="m49.74 16.32-2.58-2.61-1.35-.26-5.08 5.15 4.21 4.21 5.05-5.12z" style="fill:url(#d)"/><linearGradient id="e" x1="440.569" x2="451.843" y1="460.613" y2="460.613" gradientTransform="rotate(45.001 776.332 -245.866)" gradientUnits="userSpaceOnUse"><stop offset="0" style="stop-color:#9ef2ff"/><stop offset=".223" style="stop-color:#9aeffc"/><stop offset=".454" style="stop-color:#8de6f2"/><stop offset=".689" style="stop-color:#79d7e2"/><stop offset=".925" style="stop-color:#5cc3cc"/><stop offset="1" style="stop-color:#51bbc4"/></linearGradient><path d="m45.89 21.85-4.21-4.21s-1.25-.72-1.73-1.06c-.53-.38-1.07.17-1.07.17l7.97 7.97s.47-.61.07-1.16c-.34-.47-1.03-1.71-1.03-1.71z" style="fill:url(#e)"/><linearGradient id="f" x1="458.898" x2="459.997" y1="447.263" y2="447.263" gradientTransform="rotate(45.001 777.163 -264.469)" gradientUnits="userSpaceOnUse"><stop offset="0" style="stop-color:#9ef2ff"/><stop offset=".223" style="stop-color:#9aeffc"/><stop offset=".454" style="stop-color:#8de6f2"/><stop offset=".689" style="stop-color:#79d7e2"/><stop offset=".925" style="stop-color:#5cc3cc"/><stop offset="1" style="stop-color:#51bbc4"/></linearGradient><path d="m49.67 12.94-1.62 1.63.77.77 1.61-1.63z" style="fill:url(#f)"/><linearGradient id="g" x1="458.276" x2="460.695" y1="452.419" y2="452.419" gradientTransform="rotate(45.001 777.163 -264.469)" gradientUnits="userSpaceOnUse"><stop offset="0" style="stop-color:#9ef2ff"/><stop offset=".223" style="stop-color:#9aeffc"/><stop offset=".454" style="stop-color:#8de6f2"/><stop offset=".689" style="stop-color:#79d7e2"/><stop offset=".925" style="stop-color:#5cc3cc"/><stop offset="1" style="stop-color:#51bbc4"/></linearGradient><path d="m48.82 15.34-.77-.77-1.04.15-5.04 5.11 1.67 1.68 5.03-5.11z" style="fill:url(#g)"/><linearGradient id="h" x1="451.273" x2="463.663" y1="490.587" y2="490.587" gradientTransform="rotate(45.001 775.162 -262.161)" gradientUnits="userSpaceOnUse"><stop offset="0" style="stop-color:#e6ebed"/><stop offset=".5" style="stop-color:#b3bbbf"/><stop offset="1" style="stop-color:#e6ebed"/></linearGradient><path d="m21.81 41.98-4.4-4.43-7 7.08 4.38 4.42 4.31 4.33 6.99-7.09z" style="fill:url(#h)"/><linearGradient id="i" x1="454.204" x2="460.908" y1="495.942" y2="495.942" gradientTransform="rotate(45.001 775.162 -262.161)" gradientUnits="userSpaceOnUse"><stop offset="0" style="stop-color:#e6ebed"/><stop offset=".5" style="stop-color:#b3bbbf"/><stop offset="1" style="stop-color:#e6ebed"/></linearGradient><path d="M20.21 38.89 4.17 55.03l4.68 4.71L24.88 43.6z" style="fill:url(#i)"/><linearGradient id="j" x1="450.812" x2="464.168" y1="492.612" y2="492.612" gradientTransform="rotate(45.001 775.162 -262.161)" gradientUnits="userSpaceOnUse"><stop offset="0" style="stop-color:#e6ebed"/><stop offset=".5" style="stop-color:#b3bbbf"/><stop offset="1" style="stop-color:#e6ebed"/></linearGradient><path d="m18.86 44.96-4.74-4.78-3.97 3.99 4.74 4.78 4.66 4.69 3.97-3.99z" style="fill:url(#j)"/><linearGradient id="k" x1="453.861" x2="461.232" y1="492.85" y2="492.85" gradientTransform="rotate(45.001 775.162 -262.161)" gradientUnits="userSpaceOnUse"><stop offset="0" style="stop-color:#e6ebed"/><stop offset=".5" style="stop-color:#b3bbbf"/><stop offset="1" style="stop-color:#e6ebed"/></linearGradient><path d="m16.02 42.6-3.81 3.82 5.19 5.22 3.8-3.82z" style="fill:url(#k)"/><path d="m6.8 57.68-.58-.59 16.03-16.14.59.59z" style="fill:#e6ebed"/><linearGradient id="l" x1="244.319" x2="261.85" y1="-318.51" y2="-318.51" gradientTransform="rotate(45.001 -323.949 -428.198)" gradientUnits="userSpaceOnUse"><stop offset=".242" style="stop-color:#e6ebed"/><stop offset="1" style="stop-color:#c6cfd4"/></linearGradient><path d="m.08 52.01 11.7 11.9c.39.4 1.55-.76 1.16-1.16l-11.7-11.9c-.39-.4-1.55.76-1.16 1.16z" style="fill:url(#l)"/><linearGradient id="m" x1="440.089" x2="452.411" y1="474.594" y2="474.594" gradientTransform="rotate(45.001 776.332 -245.866)" gradientUnits="userSpaceOnUse"><stop offset="0" style="stop-color:#87b5d4"/><stop offset=".065" style="stop-color:#98c3e1"/><stop offset=".169" style="stop-color:#acd5f2"/><stop offset=".272" style="stop-color:#b9dffc"/><stop offset=".372" style="stop-color:#bde3ff"/><stop offset="1" style="stop-color:#87b5d4"/></linearGradient><path d="M38.23 16.73 19.64 35.32l8.71 8.71 18.59-18.59a.58.58 0 0 0 0-.81l-7.91-7.91a.559.559 0 0 0-.8.01z" style="fill:url(#m)"/><radialGradient id="n" cx="444.937" cy="488.937" r="4.819" gradientTransform="rotate(45.001 3727.356 976.448) scale(1 5.9999)" gradientUnits="userSpaceOnUse"><stop offset="0" style="stop-color:#5f727d"/><stop offset=".252" style="stop-color:#5b6d78"/><stop offset=".559" style="stop-color:#506069"/><stop offset=".894" style="stop-color:#3d4a50"/><stop offset="1" style="stop-color:#364147"/></radialGradient><path d="m20.61 34.34-3.2 3.21 8.68 8.74 3.2-3.2z" style="fill:url(#n)"/><path d="m27.27 45.11-4.19-4.32-.43.44 4.19 4.31zm1.34-1.33-2.8-2.88-.43.44 2.79 2.87zm1.33-1.33-2.81-2.89-.43.43 2.8 2.89zm1.33-1.34-2.82-2.9-.43.44 2.82 2.9zm1.33-1.33-2.83-2.92-.43.44 2.83 2.91zm1.34-1.33-4.26-4.39-.43.44 4.25 4.38zm1.33-1.33-2.86-2.95-.43.44 2.85 2.94zm1.33-1.34-2.87-2.95-.43.43 2.87 2.96zm1.33-1.33-2.89-2.97-.42.44 2.88 2.96zm1.34-1.33-2.9-2.99-.43.44 2.89 2.98zm1.33-1.34-4.33-4.45-.42.44 4.32 4.45zm1.33-1.33L39 27.44l-.42.44 2.92 3zm1.33-1.33-2.94-3.02-.42.43 2.93 3.02zm1.34-1.33-2.96-3.04-.42.44 2.94 3.03zm1.33-1.34-2.97-3.05-.43.44 2.97 3.05z" style="fill:#1a1626"/><linearGradient id="o" x1="242.622" x2="263.469" y1="-330.419" y2="-330.419" gradientTransform="rotate(45.001 -323.949 -428.198)" gradientUnits="userSpaceOnUse"><stop offset=".242" style="stop-color:#e6ebed"/><stop offset="1" style="stop-color:#c6cfd4"/></linearGradient><path d="m7.3 42.39 14.04 14.26c.39.4 1.55-.77 1.16-1.16L8.47 41.22c-.4-.4-1.55.77-1.17 1.17z" style="fill:url(#o)"/></svg>