<svg xmlns="http://www.w3.org/2000/svg" xml:space="preserve" viewBox="0 0 64 64"><path fill="#99A8AE" d="M21.897 7.607c-1.092.393-3.346 1.7-3.346 1.7-.049.529 8.266 15.244 9.088 16.211 4.914-2.84-5.549-16.989-5.742-17.911z"/><radialGradient id="a" cx="44.636" cy="43.802" r="24.175" gradientTransform="matrix(-.7724 .7229 -.5897 -.4994 92.581 34.033)" gradientUnits="userSpaceOnUse"><stop offset=".77" style="stop-color:#eef8ff"/><stop offset=".818" style="stop-color:#e8f2f8"/><stop offset=".886" style="stop-color:#d6dfe5"/><stop offset=".968" style="stop-color:#bac2c6"/><stop offset="1" style="stop-color:#adb4b8"/></radialGradient><path fill="url(#a)" d="M33.692 22.002C-8.38 35.68 4.85 72.389 35.075 59.178c35.256-15.41 22.897-41.446-1.383-37.176zm-.138 35.809c-31.429 10.617-28.21-22.014.828-29.344 27.254-6.881 26.072 20.258-.828 29.344z"/><linearGradient id="b" x1="25.172" x2="31.703" y1="18.346" y2="35.788" gradientUnits="userSpaceOnUse"><stop offset=".261" style="stop-color:#edf8ff"/><stop offset="1" style="stop-color:#eef8ff;stop-opacity:0"/></linearGradient><path fill="url(#b)" d="M12.237 40.291c6.588-7.527 13.857-11.693 22.43-13.797 6.563-1.613 13.178-1.08 17.809 2.27 3.031 2.193.992-1.648-1.166-3.559-4.172-3.047-10.361-4.479-17.621-3.203-10.333 3.359-17.323 8.111-21.553 13.168-3.143 4.213-4.737 10.654.101 5.121z"/><linearGradient id="c" x1="14.844" x2="55.342" y1="59.446" y2="36.065" gradientUnits="userSpaceOnUse"><stop offset="0" style="stop-color:#e6f2f7"/><stop offset=".121" style="stop-color:#858c8f"/><stop offset=".63" style="stop-color:#eef8ff"/><stop offset=".674" style="stop-color:#e7f1f8"/><stop offset=".738" style="stop-color:#d5dfe5"/><stop offset=".812" style="stop-color:#b8c1c6"/><stop offset=".891" style="stop-color:#919a9e"/><stop offset="1" style="stop-color:#dae7ed"/></linearGradient><path fill="url(#c)" d="M51.093 29.883c3.549 7.107-2.959 19.648-18.913 25.273-12.412 4.375-19.176 1.4-20.9-4.119.258 7.111 7.486 12.059 22.397 7.023 19.008-6.421 25.051-22.101 17.416-28.177z"/><path fill="#99A8AE" d="M41.253 2.908c-5.855-.426.201 7.162.434 5.934.232-1.231-.174-5.805-.434-5.934z"/><linearGradient id="d" x1="34.424" x2="34.424" y1="24.824" y2="8.073" gradientUnits="userSpaceOnUse"><stop offset="0" style="stop-color:#26aeff"/><stop offset=".214" style="stop-color:#3bc5ff"/><stop offset=".445" style="stop-color:#4ad7ff"/><stop offset=".696" style="stop-color:#53e1ff"/><stop offset="1" style="stop-color:#56e4ff"/></linearGradient><path fill="url(#d)" d="M21.1 16.684c5.354 9.785 16.504 8.016 16.504 8.016s8.74-1.506 10.145-10.869C47.341 8.619 22.811 2.848 21.1 16.684z"/><path fill="#BFF3FF" d="m34.675 21.848 2.93 2.852 3.041-3.975c-2.172-1.012-5.971 1.123-5.971 1.123z"/><path fill="#57E5FF" d="m29.231 21.439 3.48 3.174 1.963-2.766c-2.17-1.011-5.443-.408-5.443-.408zm11.415-.714 2.15 1.6 1.908-3.92c-2.17-1.012-4.058 2.32-4.058 2.32z"/><path fill="#BFF3FF" d="m23.661 13.691 3.978-1.828-2.351-3.373z"/><path fill="#1FB7FF" d="m29.61 16.586 4.416-3.287-6.387-1.436z"/><path fill="#57E5FF" d="m22.077 8.584 3.211-.094 2.246-3.674z"/><linearGradient id="e" x1="20.332" x2="25.288" y1="11.27" y2="11.27" gradientUnits="userSpaceOnUse"><stop offset="0" style="stop-color:#57e5ff"/><stop offset=".194" style="stop-color:#52e0fd"/><stop offset=".422" style="stop-color:#45d2f8"/><stop offset=".668" style="stop-color:#2fbaef"/><stop offset=".925" style="stop-color:#1199e2"/><stop offset="1" style="stop-color:#078ede"/></linearGradient><path fill="url(#e)" d="m23.661 13.691 1.627-5.201-3.211.094s-1.732 2.531-1.744 5.465l3.328-.358z"/><path fill="#1FB7FF" d="m23.661 13.691-3.328.357s.002 1.543.768 2.635l2.56-2.992z"/><path fill="#57E5FF" d="M21.1 16.684s1.1 1.764 3.182 2.996l-.621-5.988-2.561 2.992z"/><path fill="#1FB7FF" d="M24.282 19.68s2.037 1.496 4.396 1.789l.932-4.883-5.328 3.094z"/><linearGradient id="f" x1="28.678" x2="34.675" y1="19.217" y2="19.217" gradientUnits="userSpaceOnUse"><stop offset="0" style="stop-color:#26aeff"/><stop offset="1" style="stop-color:#56e4ff"/></linearGradient><path fill="url(#f)" d="m29.61 16.586-.932 4.883c3.045.291 5.997.379 5.997.379l-5.065-5.262z"/><linearGradient id="g" x1="25.288" x2="41.907" y1="8.257" y2="8.257" gradientUnits="userSpaceOnUse"><stop offset="0" style="stop-color:#26aeff"/><stop offset=".214" style="stop-color:#3bc5ff"/><stop offset=".445" style="stop-color:#4ad7ff"/><stop offset=".696" style="stop-color:#53e1ff"/><stop offset="1" style="stop-color:#56e4ff"/></linearGradient><path fill="url(#g)" d="m39.087 4.096-5.879-.881-5.674 1.601-2.246 3.674 2.351 3.373 6.387 1.436 6.094-2.215 1.787-3.637z"/><path fill="#1FB7FF" d="m44.356 12.396-4.236-1.312 1.787-3.637z"/><path fill="#BFF3FF" d="m38.935 16.008-4.909-2.709 6.094-2.215z"/><path fill="#1FB7FF" d="m44.87 7.383-2.963.064-2.82-3.351z"/><linearGradient id="h" x1="41.907" x2="47.71" y1="9.89" y2="9.89" gradientUnits="userSpaceOnUse"><stop offset="0" style="stop-color:#57e5ff"/><stop offset=".194" style="stop-color:#52e0fd"/><stop offset=".422" style="stop-color:#45d2f8"/><stop offset=".668" style="stop-color:#2fbaef"/><stop offset=".925" style="stop-color:#1199e2"/><stop offset="1" style="stop-color:#078ede"/></linearGradient><path fill="url(#h)" d="m44.356 12.396-2.449-4.949 2.963-.064s2.348 2.049 2.84 4.955l-3.354.058z"/><path fill="#57E5FF" d="m44.356 12.396 3.354-.059s.244 1.521-.34 2.699l-3.014-2.64z"/><path fill="#1FB7FF" d="M47.37 15.037s-.801 1.883-2.666 3.367l-.348-6.008 3.014 2.641z"/><path fill="#1FB7FF" d="M44.704 18.404s-1.766 1.73-4.059 2.32l-1.711-4.717 5.77 2.397z"/><linearGradient id="i" x1="34.675" x2="40.645" y1="18.928" y2="18.928" gradientUnits="userSpaceOnUse"><stop offset="0" style="stop-color:#26aeff"/><stop offset="1" style="stop-color:#56e4ff"/></linearGradient><path fill="url(#i)" d="m38.935 16.008 1.711 4.717c-2.971.664-5.971 1.123-5.971 1.123l4.26-5.84z"/><linearGradient id="j" x1="26.487" x2="34.382" y1="23.696" y2="23.696" gradientUnits="userSpaceOnUse"><stop offset="0" style="stop-color:#858c8f"/><stop offset="1" style="stop-color:#eef8ff"/></linearGradient><path fill="url(#j)" d="M31.249 21.674s1.985 4.16 3.133 6.793c-1.932 1.848-1.52 1.152-3.254.961-.234-.027-1.383-3.482-4.641-8.627 2.398-1.271 5.105-3.123 5.105-3.123s-.429 3.888-.343 3.996z"/><linearGradient id="k" x1="36.237" x2="50.958" y1="20.329" y2="20.329" gradientUnits="userSpaceOnUse"><stop offset="0" style="stop-color:#eef8ff"/><stop offset="1" style="stop-color:#858c8f"/></linearGradient><path fill="url(#k)" d="M46.774 15.887c.572-.746-.107-1.301-1.486-2.51 3.059-.078 5.67-1.152 5.67-1.152-2.836 6.803-12.043 15.885-12.492 16.182-.227.148-2.229-.365-2.229-.365s5.239-5.263 10.537-12.155z"/><linearGradient id="l" x1="-6.055" x2="-2.099" y1="62.095" y2="62.095" gradientTransform="rotate(18.439 144.472 142.836)" gradientUnits="userSpaceOnUse"><stop offset="0" style="stop-color:#919a9e"/><stop offset=".401" style="stop-color:#bcc5cb"/><stop offset=".794" style="stop-color:#e0eaf1"/><stop offset="1" style="stop-color:#eef8ff"/></linearGradient><path fill="url(#l)" d="m30.434 21.469-3.947-.668 2.314-3.678 2.791.555z"/><linearGradient id="m" x1="46.181" x2="50.305" y1="12.541" y2="13.624" gradientUnits="userSpaceOnUse"><stop offset="0" style="stop-color:#eef8ff"/><stop offset=".206" style="stop-color:#e0eaf1"/><stop offset=".599" style="stop-color:#bcc5cb"/><stop offset="1" style="stop-color:#919a9e"/></linearGradient><path fill="url(#m)" d="m50.958 12.225-1.695 2.697-3.975-1.545 1.826-1.988z"/><linearGradient id="n" x1="-17.218" x2="-12.416" y1="54.283" y2="54.283" gradientTransform="rotate(18.439 144.472 142.836)" gradientUnits="userSpaceOnUse"><stop offset="0" style="stop-color:#919a9e"/><stop offset=".401" style="stop-color:#bcc5cb"/><stop offset=".794" style="stop-color:#e0eaf1"/><stop offset="1" style="stop-color:#eef8ff"/></linearGradient><path fill="url(#n)" d="m22.077 10.445-3.526-1.138L21.1 6.559l2.924 1.515z"/><linearGradient id="o" x1="37.987" x2="39.487" y1="4.783" y2="2.075" gradientUnits="userSpaceOnUse"><stop offset="0" style="stop-color:#eef8ff"/><stop offset=".206" style="stop-color:#e0eaf1"/><stop offset=".599" style="stop-color:#bcc5cb"/><stop offset="1" style="stop-color:#919a9e"/></linearGradient><path fill="url(#o)" d="m39.716 4.957-3.174-.894.76-2.063 3.951.908z"/></svg>