<svg xmlns="http://www.w3.org/2000/svg" xml:space="preserve" viewBox="0 0 64 64"><radialGradient id="a" cx="34.328" cy="41.747" r="13.799" gradientTransform="matrix(.9843 0 0 1.789 -1.789 -30.047)" gradientUnits="userSpaceOnUse"><stop offset="0" style="stop-color:#f7fafc"/><stop offset=".206" style="stop-color:#f3f6f8"/><stop offset=".416" style="stop-color:#e7ebed"/><stop offset=".628" style="stop-color:#d2d7da"/><stop offset=".84" style="stop-color:#b6bcbf"/><stop offset="1" style="stop-color:#9ba3a6"/></radialGradient><path fill="url(#a)" d="M17 45.088c1.077 2.185 1.896 6.1 1.87 8.251-.018 1.68 1.168 1.831 2.277 3.731C22.366 59.162 25.218 62 32 62s9.634-2.838 10.853-4.93c1.109-1.9 2.294-2.052 2.276-3.731-.024-2.151.793-6.066 1.871-8.251.153-.308-30.154-.308-30 0z"/><radialGradient id="b" cx="32.288" cy="53.243" r="11.254" gradientTransform="matrix(1 0 0 .7586 -.288 12.854)" gradientUnits="userSpaceOnUse"><stop offset="0" style="stop-color:#1a1626"/><stop offset="1" style="stop-color:#1a1626;stop-opacity:0"/></radialGradient><path fill="url(#b)" d="M21.813 48.313c.731 1.602 1.286 5.104 1.27 6.681-.012 1.232 4.311 3.161 8.917 3.161s8.93-1.929 8.918-3.161c-.018-1.577.538-5.079 1.27-6.681.104-.226-20.479-.226-20.375 0z"/><radialGradient id="c" cx="32.288" cy="25.05" r="27.956" gradientTransform="translate(-.288)" gradientUnits="userSpaceOnUse"><stop offset="0" style="stop-color:#f7fafc"/><stop offset=".455" style="stop-color:#f5f8fa"/><stop offset=".619" style="stop-color:#eef2f4"/><stop offset=".736" style="stop-color:#e3e7e9"/><stop offset=".831" style="stop-color:#d2d7da"/><stop offset=".912" style="stop-color:#bcc2c6"/><stop offset=".982" style="stop-color:#a1aaad"/><stop offset="1" style="stop-color:#99a2a6"/></radialGradient><path fill="url(#c)" d="M32 2C15.134 2 2.392 15.367 10.509 36.597c-.43 10.393 8.802 8.434 11.626 13.489.834 1.49 9.865 2.14 9.865 2.14s9.03-.649 9.864-2.14c2.826-5.056 12.058-3.097 11.626-13.489C61.609 15.367 48.865 2 32 2z"/><linearGradient id="d" x1="55.467" x2="50.288" y1="35.816" y2="20.279" gradientUnits="userSpaceOnUse"><stop offset="0" style="stop-color:#99a2a6;stop-opacity:.3"/><stop offset=".818" style="stop-color:#99a2a6;stop-opacity:0"/></linearGradient><path fill="url(#d)" d="M46.968 27.482c1.278 3.191 4.653 3.551 6.522 9.114 3.303-8.632 3.152-15.964.68-21.627-6.248-7.475-10.026 5.45-7.202 12.513z"/><linearGradient id="e" x1="422.807" x2="417.627" y1="35.816" y2="20.279" gradientTransform="matrix(-1 0 0 1 431.34 0)" gradientUnits="userSpaceOnUse"><stop offset="0" style="stop-color:#99a2a6;stop-opacity:.3"/><stop offset=".818" style="stop-color:#99a2a6;stop-opacity:0"/></linearGradient><path fill="url(#e)" d="M17.031 27.482c-1.275 3.191-4.65 3.551-6.521 9.114-3.301-8.632-3.15-15.964-.68-21.627 6.248-7.475 10.028 5.45 7.201 12.513z"/><radialGradient id="f" cx="34.909" cy="38.134" r="4.45" gradientTransform="matrix(1.0048 0 0 1.3165 -3.14 -2.078)" gradientUnits="userSpaceOnUse"><stop offset="0" style="stop-color:#4e5e67"/><stop offset=".365" style="stop-color:#4c5b65"/><stop offset=".601" style="stop-color:#47535d"/><stop offset=".801" style="stop-color:#3e4450"/><stop offset=".979" style="stop-color:#322f3e"/><stop offset="1" style="stop-color:#302c3b"/></radialGradient><path fill="url(#f)" d="M32 40.684c-3.021 0-4.758 9.435 0 5.224 4.757 4.21 3.021-5.224 0-5.224z"/><radialGradient id="g" cx="456.005" cy="79.981" r="6.9" gradientTransform="matrix(-1.0745 0 0 1.0182 531.665 -43.205)" gradientUnits="userSpaceOnUse"><stop offset="0" style="stop-color:#4e5e67"/><stop offset=".365" style="stop-color:#4c5b65"/><stop offset=".601" style="stop-color:#47535d"/><stop offset=".801" style="stop-color:#3e4450"/><stop offset=".979" style="stop-color:#322f3e"/><stop offset="1" style="stop-color:#302c3b"/></radialGradient><path fill="url(#g)" d="M37.479 30.419c2.58-2.074 10.282-1.816 12.033 2.489 4.229 10.397-8.809 10.185-13.735 5.362-.665-.65-1.266-5.46 1.702-7.851z"/><radialGradient id="h" cx="127.254" cy="79.981" r="6.9" gradientTransform="matrix(1.0745 0 0 1.0182 -114.42 -43.205)" gradientUnits="userSpaceOnUse"><stop offset="0" style="stop-color:#4e5e67"/><stop offset=".365" style="stop-color:#4c5b65"/><stop offset=".601" style="stop-color:#47535d"/><stop offset=".801" style="stop-color:#3e4450"/><stop offset=".979" style="stop-color:#322f3e"/><stop offset="1" style="stop-color:#302c3b"/></radialGradient><path fill="url(#h)" d="M26.522 30.419c-2.58-2.074-10.282-1.816-12.033 2.489-4.229 10.397 8.809 10.185 13.735 5.362.664-.65 1.266-5.46-1.702-7.851z"/><linearGradient id="i" x1="605.901" x2="606.574" y1="82.228" y2="78.497" gradientTransform="scale(-1 1) rotate(-10.224 148.035 3594.185)" gradientUnits="userSpaceOnUse"><stop offset=".079" style="stop-color:#a0a4a6"/><stop offset=".215" style="stop-color:#aeb1b3"/><stop offset=".468" style="stop-color:#c1c3c5"/><stop offset=".728" style="stop-color:#ccced0"/><stop offset="1" style="stop-color:#d0d2d4"/></linearGradient><path fill="url(#i)" d="M23.679 55.956c-.278.498 1.502 1.01 1.396.645-.368-1.268 1.167-2.243.918-2.953-.252-.718-1.921-.961-2.405-.424-.38.421.454 2.083.091 2.732z"/><linearGradient id="j" x1="593.256" x2="593.762" y1="76.361" y2="72.748" gradientTransform="scale(-1 1) rotate(-7.979 146.612 4505.728)" gradientUnits="userSpaceOnUse"><stop offset=".079" style="stop-color:#a5aaab"/><stop offset=".265" style="stop-color:#babdbf"/><stop offset=".502" style="stop-color:#cdd0d1"/><stop offset=".745" style="stop-color:#d8dadc"/><stop offset="1" style="stop-color:#dcdee0"/></linearGradient><path fill="url(#j)" d="M25.075 56.601c-.271.508 1.522.851 1.401.49-.418-1.254.904-2.141.627-2.84-.28-.708-1.958-.887-2.42-.332-.362.435.744 2.018.392 2.682z"/><linearGradient id="k" x1="592.48" x2="593.005" y1="76.928" y2="73.261" gradientTransform="scale(-1 1) rotate(-8.152 147.33 4417.115)" gradientUnits="userSpaceOnUse"><stop offset=".079" style="stop-color:#a0a4a6"/><stop offset=".215" style="stop-color:#aeb1b3"/><stop offset=".468" style="stop-color:#c1c3c5"/><stop offset=".728" style="stop-color:#ccced0"/><stop offset="1" style="stop-color:#d0d2d4"/></linearGradient><path fill="url(#k)" d="M26.476 57.091c-.271.506 1.734.764 1.613.402-.414-1.253.873-2.171.598-2.871-.277-.709-1.954-.894-2.418-.339-.363.435.563 2.145.207 2.808z"/><linearGradient id="l" x1="584.635" x2="585.087" y1="74.722" y2="71.021" gradientTransform="scale(-1 1) rotate(-6.962 141.191 5111.097)" gradientUnits="userSpaceOnUse"><stop offset=".079" style="stop-color:#b8bdbf"/><stop offset=".215" style="stop-color:#c6cacc"/><stop offset=".468" style="stop-color:#d9dcde"/><stop offset=".728" style="stop-color:#e4e7e9"/><stop offset="1" style="stop-color:#e8ebed"/></linearGradient><path fill="url(#l)" d="M28.089 57.493c-.26.515 1.957.811 1.829.452-.44-1.245.659-2.242.369-2.937-.293-.703-1.974-.853-2.426-.289-.353.442.57 2.106.228 2.774z"/><linearGradient id="m" x1="545.389" x2="545.389" y1="58.386" y2="54.761" gradientTransform="matrix(-1 0 0 1 576.144 0)" gradientUnits="userSpaceOnUse"><stop offset=".079" style="stop-color:#b8bdbf"/><stop offset=".215" style="stop-color:#c6cacc"/><stop offset=".468" style="stop-color:#d9dcde"/><stop offset=".728" style="stop-color:#e4e7e9"/><stop offset="1" style="stop-color:#e8ebed"/></linearGradient><path fill="url(#m)" d="M29.918 57.945c-.195.54 2.252.55 2.081.209-.592-1.184.335-2.26-.039-2.915-.378-.663-2.064-.612-2.443 0-.297.481.656 2.001.401 2.706z"/><linearGradient id="n" x1="374.071" x2="374.744" y1="40.414" y2="36.682" gradientTransform="rotate(-10.231 297.598 1919.901)" gradientUnits="userSpaceOnUse"><stop offset=".079" style="stop-color:#a0a4a6"/><stop offset=".215" style="stop-color:#aeb1b3"/><stop offset=".468" style="stop-color:#c1c3c5"/><stop offset=".728" style="stop-color:#ccced0"/><stop offset="1" style="stop-color:#d0d2d4"/></linearGradient><path fill="url(#n)" d="M40.32 55.956c.278.498-1.502 1.01-1.396.645.368-1.268-1.167-2.243-.918-2.953.252-.718 1.921-.961 2.405-.424.38.421-.454 2.083-.091 2.732z"/><linearGradient id="o" x1="359.965" x2="360.471" y1="43.663" y2="40.05" gradientTransform="rotate(-7.987 296.054 2357.934)" gradientUnits="userSpaceOnUse"><stop offset=".079" style="stop-color:#a5aaab"/><stop offset=".265" style="stop-color:#babdbf"/><stop offset=".502" style="stop-color:#cdd0d1"/><stop offset=".745" style="stop-color:#d8dadc"/><stop offset="1" style="stop-color:#dcdee0"/></linearGradient><path fill="url(#o)" d="M38.925 56.601c.271.508-1.522.851-1.401.49.418-1.254-.904-2.141-.627-2.84.28-.708 1.958-.887 2.42-.332.362.435-.745 2.018-.392 2.682z"/><linearGradient id="p" x1="359.294" x2="359.819" y1="43.524" y2="39.858" gradientTransform="rotate(-8.15 297.19 2315.186)" gradientUnits="userSpaceOnUse"><stop offset=".079" style="stop-color:#b8bdbf"/><stop offset=".215" style="stop-color:#c6cacc"/><stop offset=".468" style="stop-color:#d9dcde"/><stop offset=".728" style="stop-color:#e4e7e9"/><stop offset="1" style="stop-color:#e8ebed"/></linearGradient><path fill="url(#p)" d="M37.523 57.091c.271.506-1.734.764-1.613.402.414-1.253-.873-2.171-.598-2.871.277-.709 1.954-.894 2.418-.339.364.435-.562 2.145-.207 2.808z"/><linearGradient id="q" x1="350.8" x2="351.252" y1="46.17" y2="42.469" gradientTransform="rotate(-6.962 290.979 2648.538)" gradientUnits="userSpaceOnUse"><stop offset=".079" style="stop-color:#a0a4a6"/><stop offset=".215" style="stop-color:#aeb1b3"/><stop offset=".468" style="stop-color:#c1c3c5"/><stop offset=".728" style="stop-color:#ccced0"/><stop offset="1" style="stop-color:#d0d2d4"/></linearGradient><path fill="url(#q)" d="M35.91 57.493c.26.515-1.957.811-1.829.452.44-1.245-.659-2.242-.369-2.937.293-.703 1.974-.853 2.426-.289.353.442-.57 2.106-.228 2.774z"/><linearGradient id="r" x1="309.821" x2="309.821" y1="58.386" y2="54.761" gradientTransform="translate(-276.578)" gradientUnits="userSpaceOnUse"><stop offset=".079" style="stop-color:#b8bdbf"/><stop offset=".215" style="stop-color:#c6cacc"/><stop offset=".468" style="stop-color:#d9dcde"/><stop offset=".728" style="stop-color:#e4e7e9"/><stop offset="1" style="stop-color:#e8ebed"/></linearGradient><path fill="url(#r)" d="M34.081 57.945c.195.54-2.252.55-2.082.209.592-1.184-.335-2.26.039-2.915.378-.663 2.065-.612 2.444 0 .297.481-.656 2.001-.401 2.706z"/><linearGradient id="s" x1="552.332" x2="552.332" y1="53.775" y2="50.563" gradientTransform="matrix(-1 0 0 1 576.144 0)" gradientUnits="userSpaceOnUse"><stop offset="0" style="stop-color:#d0d2d4"/><stop offset=".272" style="stop-color:#ccced0"/><stop offset=".532" style="stop-color:#c1c3c5"/><stop offset=".785" style="stop-color:#aeb1b3"/><stop offset=".921" style="stop-color:#a0a4a6"/></linearGradient><path fill="url(#s)" d="M23.007 53.397c.216.407 1.578.471 1.66.262.229-.581-.315-1.36-.082-2.496.093-.451-1.959-.861-1.657-.391.521.812-.295 1.919.079 2.625z"/><linearGradient id="t" x1="550.738" x2="550.738" y1="54.375" y2="50.919" gradientTransform="matrix(-1 0 0 1 576.144 0)" gradientUnits="userSpaceOnUse"><stop offset="0" style="stop-color:#dcdee0"/><stop offset=".255" style="stop-color:#d8dadc"/><stop offset=".498" style="stop-color:#cdd0d1"/><stop offset=".735" style="stop-color:#babdbf"/><stop offset=".921" style="stop-color:#a5aaab"/></linearGradient><path fill="url(#t)" d="M24.507 53.985c.216.428 1.75.483 1.832.265.229-.609-.373-1.696-.086-2.573.15-.461-1.97-1.068-1.668-.574.521.851-.452 2.142-.078 2.882z"/><linearGradient id="u" x1="548.5" x2="548.5" y1="55.239" y2="51.219" gradientTransform="matrix(-1 0 0 1 576.144 0)" gradientUnits="userSpaceOnUse"><stop offset="0" style="stop-color:#ebeef0"/><stop offset=".247" style="stop-color:#e7eaec"/><stop offset=".482" style="stop-color:#dce0e2"/><stop offset=".711" style="stop-color:#c9cdcf"/><stop offset=".921" style="stop-color:#b0b6b8"/></linearGradient><path fill="url(#u)" d="M26.492 54.641c.504.623 2.256.752 2.471.423.421-.646-.533-1.985 0-3.013.425-.818-3.154-1.142-2.709-.47.554.836-.278 2.423.238 3.06z"/><linearGradient id="v" x1="545.643" x2="545.643" y1="55.877" y2="51.477" gradientTransform="matrix(-1 0 0 1 576.144 0)" gradientUnits="userSpaceOnUse"><stop offset="0" style="stop-color:#dcdee0"/><stop offset=".255" style="stop-color:#d8dadc"/><stop offset=".498" style="stop-color:#cdd0d1"/><stop offset=".735" style="stop-color:#babdbf"/><stop offset=".921" style="stop-color:#a5aaab"/></linearGradient><path fill="url(#v)" d="M29.127 55.257c.397.596 2.813.832 2.886.396.228-1.367-.418-2.056-.014-3.24.271-.793-3.271-1.325-3.037-.577.342 1.097-.326 2.685.165 3.421z"/><linearGradient id="w" x1="316.766" x2="316.766" y1="53.775" y2="50.563" gradientTransform="translate(-276.578)" gradientUnits="userSpaceOnUse"><stop offset="0" style="stop-color:#d0d2d4"/><stop offset=".272" style="stop-color:#ccced0"/><stop offset=".532" style="stop-color:#c1c3c5"/><stop offset=".785" style="stop-color:#aeb1b3"/><stop offset=".921" style="stop-color:#a0a4a6"/></linearGradient><path fill="url(#w)" d="M40.992 53.397c-.216.407-1.578.471-1.66.262-.229-.581.315-1.36.082-2.496-.093-.451 1.959-.861 1.657-.391-.52.812.295 1.919-.079 2.625z"/><linearGradient id="x" x1="315.172" x2="315.172" y1="54.375" y2="50.919" gradientTransform="translate(-276.578)" gradientUnits="userSpaceOnUse"><stop offset="0" style="stop-color:#d0d2d4"/><stop offset=".272" style="stop-color:#ccced0"/><stop offset=".532" style="stop-color:#c1c3c5"/><stop offset=".785" style="stop-color:#aeb1b3"/><stop offset=".921" style="stop-color:#a0a4a6"/></linearGradient><path fill="url(#x)" d="M39.492 53.985c-.216.428-1.75.483-1.832.265-.229-.609.373-1.696.086-2.573-.15-.461 1.97-1.068 1.668-.574-.52.851.452 2.142.078 2.882z"/><linearGradient id="y" x1="312.934" x2="312.934" y1="55.239" y2="51.219" gradientTransform="translate(-276.578)" gradientUnits="userSpaceOnUse"><stop offset="0" style="stop-color:#ebeef0"/><stop offset=".247" style="stop-color:#e7eaec"/><stop offset=".482" style="stop-color:#dce0e2"/><stop offset=".711" style="stop-color:#c9cdcf"/><stop offset=".921" style="stop-color:#b0b6b8"/></linearGradient><path fill="url(#y)" d="M37.508 54.641c-.504.623-2.256.752-2.471.423-.421-.646.533-1.985 0-3.013-.425-.818 3.154-1.142 2.709-.47-.555.836.277 2.423-.238 3.06z"/><linearGradient id="z" x1="310.076" x2="310.076" y1="55.877" y2="51.477" gradientTransform="translate(-276.578)" gradientUnits="userSpaceOnUse"><stop offset="0" style="stop-color:#f2f5f7"/><stop offset=".249" style="stop-color:#eef1f3"/><stop offset=".486" style="stop-color:#e3e6e8"/><stop offset=".717" style="stop-color:#d0d4d6"/><stop offset=".921" style="stop-color:#b8bdbf"/></linearGradient><path fill="url(#z)" d="M34.872 55.257c-.397.596-2.814.832-2.886.396-.228-1.367.418-2.056.014-3.24-.271-.793 3.271-1.325 3.038-.577-.343 1.097.325 2.685-.166 3.421z"/></svg>