<svg xmlns="http://www.w3.org/2000/svg" xml:space="preserve" style="enable-background:new 0 0 64 64" viewBox="0 0 64 64"><path d="M11.432 51.718C13.934 50.43 22.5 47.63 22.5 47.63l18.977-.035s8.662 2.827 11.148 4.12C56.24 53.588 57 56.477 57 61.56c0 3.254-50 3.254-50 0 0-5.086.807-7.976 4.432-9.842z" style="fill:#ff7a00"/><path d="m16.027 63.483-.695-.066c0-7.034.695-6.968.695.066zm32.639-.066-.693.066c0-7.034.693-7.1.693-.066zM22.5 47.63c0 7.668 18.977 7.633 18.977-.035l-1.707-.567H24.31l-1.81.602z" style="fill:#ed6a00"/><path d="M24 47.243c0 6.002 16 6.002 16 0v-6.64H24v6.64z" style="fill:#d9b18d"/><path d="M15.385 30.575s.51 4.933-.745 8.254c1.763-.19 2.22-1.079 2.22-1.079s-.061 2.31-.958 3.93c1.657.273 2.675-.548 2.675-.548s0 1.748.13 2.95c4.826-1.247 4.537-6.864 4.537-6.864l-7.86-6.643zm33.974 8.255c-1.254-3.33-.745-8.255-.745-8.255l-7.851 6.643s-.29 5.617 4.537 6.863c.13-1.2.13-2.949.13-2.949s1.018.821 2.675.547c-.905-1.61-.958-3.929-.958-3.929s.448.89 2.212 1.08z" style="fill:#d1a936"/><path d="M48.439 24.427c-2.546.311-4.385 8.831-2.782 11.08.22.313 1.536.814 2.508-1.17.54-1.102 2.09-2.014 2.577-4.286.616-2.903.236-5.928-2.303-5.624zm-32.879 0c2.546.311 4.385 8.831 2.781 11.08-.22.313-1.535.814-2.508-1.17-.54-1.102-2.09-2.014-2.576-4.286-.616-2.903-.228-5.928 2.303-5.624z" style="fill:#ebc199"/><path d="M48.37 26.06c-.66.213-1.39 1.224-1.778 2.904 2.318-.502 1.74 3.367-.273 3.443.015.388.045.79.09 1.208.974-1.413 1.962-.843 2.942-2.949.874-1.892.669-5.122-.98-4.605zm-30.963 2.896c-.396-1.68-1.118-2.69-1.779-2.895-1.641-.517-1.854 2.713-.973 4.605.98 2.098 1.969 1.536 2.942 2.95.045-.426.076-.821.09-1.217-1.998-.09-2.568-3.906-.28-3.443z" style="fill:#c99b71"/><path d="M32 8.04c-11.029 0-16.341 8.984-15.68 20.529.137 2.318.783 5.67 1.58 8.543 1.65 5.966 8.947 11.97 14.1 11.97s12.441-6.004 14.098-11.97c.798-2.873 1.444-6.217 1.581-8.543.661-11.545-4.651-20.529-15.68-20.529z" style="fill:#ebc199"/><path d="M43.985 23.575c-2.523-1.337-7.35-1.398-9.143-.47-.388.181-.13 1.443.19 1.321 2.508-.988 6.551-1.01 8.892.084.312.152.441-.745.061-.935zm-23.971 0c2.523-1.337 7.35-1.398 9.15-.47.388.181.13 1.443-.19 1.321-2.508-.988-6.544-1.01-8.892.084-.32.152-.448-.745-.068-.935z" style="fill:#ab8c57"/><path d="M34.979 35.166c-.312-.22-1.057.122-2.98.122s-2.66-.342-2.979-.122c-.38.266.22 1.467 2.98 1.467 2.75 0 3.351-1.201 2.979-1.467z" style="fill:#c99b71"/><path d="M28.826 27.975c-2.024 1.293-5.17 1.293-7.198 0-.31-.196-.494.015-.394.183 1.967 3.337 6.02 3.337 7.986 0 .1-.168-.084-.379-.394-.183zm13.546 0c-2.028 1.293-5.174 1.293-7.198 0-.31-.196-.493.015-.398.183 1.967 3.337 6.023 3.337 7.99 0 .1-.168-.088-.379-.394-.183z" style="fill:#45332c"/><path d="M32 40.556c-1.982 0-4.226.156-6.014-.526 1.111 2.217 3.852 2.924 6.014 2.924 2.162 0 4.903-.707 6.014-2.924-1.788.681-4.032.526-6.014.526z" style="fill:#c99b71"/><path d="M32 40.164c-1.703-.547-3.22.528-6.014-.134 1.082.864 3.223 1.228 6.014 1.228 2.79 0 4.932-.364 6.014-1.228-2.794.661-4.311-.413-6.014.134z" style="fill:#b38a64"/><path d="M21.61 9.765c5.776 5.51 22.968 8.96 25.947 21.098C43.491 18.68 28.541 22.1 21.61 9.765z" style="fill:#d1a936"/><path d="M32.167 5C25.456 5 22.104 8.04 21.42 9.484c8.368 12.775 22.55 8.451 26.137 21.386C54.77 19.387 48.781 5 32.167 5z" style="fill:#e6c465"/><path d="M32.167 5C26.19 5 22.25 7.427 21.42 9.484c2.894 7.796 22.76 8.034 26.608 18.394-.81-7.436-6.7-12.394-6.7-12.394s5.297 3.422 7.932 8.251c-.49-6.935-5.959-10.927-5.959-10.927s4.93 3.422 6.559 7.365C48.897 12.178 45.057 5 32.167 5z" style="fill:#f2d785"/><path d="M46.346 13.013c-5.543-9.338-17.449-6.876-17.449-6.876s9.907.514 17.45 6.876z" style="fill:#fae29b"/><path d="M46.83 18.825C38.87 3.927 23.99 8.803 23.99 8.803s12.873-.495 22.842 10.022z" style="fill:#fae29b"/><path d="M24.83 10.855c8.2 3.04 17.613 8.517 17.613 8.517s-5.565-8.359-17.614-8.517z" style="fill:#fae29b"/><path d="M21.42 9.484c-8.11 1.854-10.725 15.542-4.652 21.379.753-6.225 1.482-10.222 5.617-14.433 0 0 .243-3.7-.965-6.946z" style="fill:#e6c465"/><path d="M22.195 15.952s-5.328 4.94-5.427 14.91c.912-9.88 5.67-14.34 5.67-14.34l-.243-.57z" style="fill:#d1a936"/><path d="M21.503 9.765s-9.409 3.215-6.726 16.165c.06-1.043.204-2.01.395-2.919-.018 1.616.223 3.39.844 5.328.813-8.998 6.035-13.39 6.035-13.39l-.548-5.184z" style="fill:#f2d785"/><path d="M15.71 22.86c1.201-6.725 6.54-11.16 6.54-11.16s-7.423.49-6.54 11.16z" style="fill:#fae29b"/><path d="M21.42 9.484c-2.212 10.032 8.39 12 12.882 12-8.071-5.593-12.882-12-12.882-12z" style="fill:#e6c465"/><path d="M21.154 11.27c.212 5.745 3.344 9.333 13.148 10.214-7.668.517-14.326-3.313-13.148-10.214z" style="fill:#d1a936"/><path d="M21.42 9.484s-1.228 9.034 12.882 12c-7.776-6-9.182-9.465-12.882-12z" style="fill:#f2d785"/><path d="M29.522 18.857c-2.488-1.625-6.505-7.487-6.505-7.487s.787 6.056 6.505 7.487z" style="fill:#fae29b"/><path d="M26.328 11.152c-2.59.192-13.892-5.953-13.931 2.955-.012 2.815 3.392 8.487 3.537 10.149.25 2.875 3.37 2.84 3.252.771-.397-6.79-1.928-9.468.314-11.459.496-.44 4.701.84 6.559-.06 1.285-.625 1.09-2.414.27-2.356z" style="opacity:.15"/><path d="M26.223 10.98c-2.59.192-4.166-2.273-5.182-3.9-.705-1.129-3.272-2.049-3.951-3.719C16.328 1.486 16.15 0 16.15 0h-6.1s1.636 4.68 1.597 13.586c-.012 2.814 1.466 7.379 3.628 9.406 0 0 .25.803.694 1.992.828 2.221 3.246 1.657 2.787-.365-1.225-5.383-2.242-10.283 0-12.273.496-.44 5.31 1.6 7.168.697 1.285-.623 1.119-2.121.299-2.063z" style="fill:#d9b18d"/><path d="M37.67 11.152c2.592.192 13.894-5.953 13.932 2.955.013 2.815-3.391 8.487-3.536 10.149-.25 2.875-3.373 2.84-3.252.771.395-6.79 1.928-9.468-.314-11.459-.496-.44-4.703.84-6.559-.06-1.285-.625-1.09-2.414-.271-2.356z" style="opacity:.15"/><path d="M37.775 10.98c2.592.192 4.168-2.273 5.184-3.9.703-1.129 3.271-2.049 3.951-3.719.762-1.875.94-3.361.94-3.361h6.1s-1.635 4.68-1.598 13.586c.013 2.814-1.465 7.379-3.627 9.406 0 0-.25.803-.694 1.992-.828 2.221-3.248 1.657-2.787-.365 1.223-5.383 2.242-10.283 0-12.273-.496-.44-5.312 1.6-7.168.697-1.285-.623-1.119-2.121-.3-2.063z" style="fill:#d9b18d"/></svg>