<svg xmlns="http://www.w3.org/2000/svg" xml:space="preserve" style="enable-background:new 0 0 64 64" viewBox="0 0 64 64"><radialGradient id="a" cx="40.274" cy="50.499" r="29.047" gradientTransform="translate(-8.211)" gradientUnits="userSpaceOnUse"><stop offset="0" style="stop-color:#997c28"/><stop offset=".313" style="stop-color:#af8e2e"/><stop offset=".74" style="stop-color:#c8a234"/><stop offset="1" style="stop-color:#d1a936"/></radialGradient><path d="M39.582 49.741c15.168-6.066 13.651-24.267 13.651-24.267H10.767s-1.517 18.2 13.648 24.267c0 0 3.035.759 7.583.759 4.552 0 7.584-.759 7.584-.759z" style="fill:url(#a)"/><path d="M12.254 51.718c2.402-1.29 10.626-4.088 10.626-4.088l18.218-.035s8.315 2.826 10.702 4.119c3.47 1.873 4.2 7.43 4.2 9.846 0 3.254-48 3.254-48 0 0-2.42.774-7.977 4.254-9.842z" style="fill:#8e3ed6"/><path d="m47.999 63.417-.665.067c0-8.036.665-8.102.665-.067zm-31.998 0 .665.067c0-8.036-.665-8.102-.665-.067zM22.88 47.63c0 7.668 18.218 7.633 18.218-.035l-1.639-.567h-14.84l-1.74.602z" style="fill:#732eb0"/><path d="M24.32 47.243c0 6.002 15.36 6.002 15.36 0v-6.64H24.32v6.64z" style="fill:#d9b18d"/><path d="M32 7.275c-11.005 0-16.306 8.963-15.644 20.486.136 2.315.78 5.657 1.576 8.52 1.65 5.951 10.36 11.944 14.068 11.944 3.707 0 12.417-5.993 14.068-11.944.796-2.863 1.44-6.205 1.576-8.52C48.304 16.238 43.007 7.275 32 7.275z" style="fill:#ebc199"/><path d="M43.694 23.926c-2.39-1.425-6.68-1.6-8.376-.628-.36.196-.263 1.225.048 1.096 2.42-1.007 6.108-1.057 8.38.109.303.154.31-.37-.052-.577zm-23.389 0c2.391-1.425 6.679-1.6 8.38-.628.36.196.263 1.225-.05 1.096-2.421-1.007-6.105-1.059-8.38.109-.305.154-.31-.37.05-.577z" style="fill:#ab8c57"/><path d="M34.474 35.213c-.262-.184-.877.099-2.475.099-1.597 0-2.211-.283-2.473-.1-.314.221.185 1.218 2.473 1.218s2.79-.995 2.475-1.217z" style="fill:#c99b71"/><path d="M28.823 27.83c-2.026 1.29-5.175 1.29-7.201 0-.31-.2-.498.015-.399.18 1.97 3.34 6.026 3.34 7.994 0 .104-.165-.084-.38-.394-.18zm13.56 0c-2.03 1.29-5.179 1.29-7.205 0-.31-.2-.494.015-.399.18 1.97 3.34 6.03 3.34 7.998 0 .1-.165-.088-.38-.394-.18z" style="fill:#45332c"/><path d="M44.385 8.884C45.643 7.09 34.998 3.3 24.948 5.86 14.91 8.159 9.25 19.156 9.25 33.037c0 5.577 3.8 12.588 10.938 15.533l1.858-.653c-8.202-6.995-6.493-14.05-3.696-22.441 7.539-4.365 16.07-5.393 21.992-10.617-.759 2.275 3.255 5.144 5.308 10.617 2.864 7.637 4.45 15.355-3.687 22.416l1.746.613c6.762-2.982 11.041-9.93 11.041-15.468 0-16.409-6.34-25.314-10.365-24.153z" style="fill:#f2d785"/><path d="M44.385 8.884c1.208-1.446-4.171-3.856-10.948-3.856 8.317.656 11.152 5.163 8.844 3.971-2.46-1.27-8.474-3.114-16.528.536 8.813-1.875 16.92.173 15.659 1.234-1.99 1.674-10.763-2.886-23.048 8.329-1.692 1.545 7.369-5.928 19.53-6.165-1.69 3.558-23.321 9.198-26.678 18.041 5.632-8.037 29.377-11.023 33.17-22.09zm5.508 12.879s5.274 14.305-3.563 24.224c12.659-9.919 3.563-24.224 3.563-24.224z" style="fill:#e6c465"/><path d="M18.822 25.065s-2.155.392-3.918 2.305c-3.688 13.025 5.126 18.617 5.126 18.617s-6.99-7.172-1.208-20.922z" style="fill:#e6c465"/><path d="M13.309 28.609s-1.013.396-2.25 2.932c-1.147 7.941 4.428 11.987 4.428 11.987s-5.228-6.388-2.178-14.92zM52.73 18.48c-3.846-11.968-8.345-9.596-8.345-9.596s-2.164 4.052-3.887 5.474c-3.113 3.823 7.592 7.102 7.313 23.664 2.83-11.767-5.038-19.635-5.165-21.736-.144-2.382 1.835-6.045 3.378-6.484 1.674-.478 5.51 5.435 6.705 8.678z" style="fill:#e6c465"/><path d="M11.059 31.541c6.091-9.938 28.64-9.266 33.326-22.657C36.487 21.099 12.57 23.135 11.06 31.54z" style="fill:#d1a936"/><path d="M44.168 14.232s4.996 10.711 5.817 19.812c1.36-13.993-5.817-19.812-5.817-19.812zm-26.892 9.126s7.268-4.717 16.367-8.61c-9.74.584-16.367 8.61-16.367 8.61zm-4.487-.964s5.711-9.123 16.125-11.778C14.424 9.67 12.79 22.394 12.79 22.394z" style="fill:#fae29b"/><path d="M26.328 11.152c-2.59.192-13.892-5.953-13.931 2.955-.012 2.815 3.392 8.487 3.537 10.149.25 2.875 3.37 2.84 3.252.771-.397-6.79-1.928-9.468.314-11.459.496-.44 4.701.84 6.559-.06 1.285-.625 1.09-2.414.27-2.356z" style="opacity:.15"/><path d="M26.223 10.98c-2.59.192-4.166-2.273-5.182-3.9-.705-1.129-3.272-2.049-3.951-3.719C16.328 1.486 16.15 0 16.15 0h-6.1s1.636 4.68 1.597 13.586c-.012 2.814 1.466 7.379 3.628 9.406 0 0 .25.803.694 1.992.828 2.221 3.246 1.657 2.787-.365-1.225-5.383-2.242-10.283 0-12.273.496-.44 5.31 1.6 7.168.697 1.285-.623 1.119-2.121.299-2.063z" style="fill:#d9b18d"/><path d="M37.67 11.152c2.592.192 13.894-5.953 13.932 2.955.013 2.815-3.391 8.487-3.536 10.149-.25 2.875-3.373 2.84-3.252.771.395-6.79 1.928-9.468-.314-11.459-.496-.44-4.703.84-6.559-.06-1.285-.625-1.09-2.414-.271-2.356z" style="opacity:.15"/><path d="M37.775 10.98c2.592.192 4.168-2.273 5.184-3.9.703-1.129 3.271-2.049 3.951-3.719.762-1.875.94-3.361.94-3.361h6.1s-1.635 4.68-1.598 13.586c.013 2.814-1.465 7.379-3.627 9.406 0 0-.25.803-.694 1.992-.828 2.221-3.248 1.657-2.787-.365 1.223-5.383 2.242-10.283 0-12.273-.496-.44-5.312 1.6-7.168.697-1.285-.623-1.119-2.121-.3-2.063z" style="fill:#d9b18d"/><path d="M32 39.642c-1.982 0-4.226.155-6.014-.526 1.111 2.216 3.852 2.923 6.014 2.923 2.162 0 4.903-.707 6.014-2.923-1.788.681-4.032.526-6.014.526z" style="fill:#c98655"/><path d="M32 39.25c-1.703-.548-3.22.527-6.014-.134 1.082.863 3.223 1.228 6.014 1.228 2.79 0 4.932-.365 6.014-1.228-2.794.661-4.311-.414-6.014.133z" style="fill:#a66435"/></svg>