<svg xmlns="http://www.w3.org/2000/svg" xml:space="preserve" viewBox="0 0 64 64"><path fill="#6E8189" d="m55.16 8.028-4.375 20.934 3.022 1.283 6.564-22.217z"/><path fill="#4E5E67" d="M54.758 9.956c3.713 2.625 2.963 2.238-1.893 20.066-.063.232.941.223.941.223L60.37 8.028c.001 0-4.694.76-5.612 1.928z"/><path fill="#E81C27" d="M62 1.999h-9.137l-1.045 5.777s2.33 5.1 10.182 3.482V1.999z"/><linearGradient id="a" x1="18.259" x2="10.702" y1="29.189" y2="18.542" gradientUnits="userSpaceOnUse"><stop offset=".073" style="stop-color:#deb38a"/><stop offset=".14" style="stop-color:#e4ba92"/><stop offset=".336" style="stop-color:#f3cba5"/><stop offset=".54" style="stop-color:#fcd5b0"/><stop offset=".758" style="stop-color:#ffd8b4"/></linearGradient><path fill="url(#a)" d="M29.51 12.778C21.992 9.112 10.563 15.091 2 19.532v19.01c9.998-5.709 31.916-17.557 27.51-25.764z"/><radialGradient id="b" cx="22.511" cy="11.617" r="12.568" gradientTransform="matrix(.9084 -.4183 .2024 .4395 -.503 15.928)" gradientUnits="userSpaceOnUse"><stop offset="0" style="stop-color:#ff3030"/><stop offset=".257" style="stop-color:#fb2d2d"/><stop offset=".497" style="stop-color:#f02525"/><stop offset=".73" style="stop-color:#dd1717"/><stop offset=".958" style="stop-color:#c30404"/><stop offset="1" style="stop-color:#bd0000"/></radialGradient><path fill="url(#b)" d="M12.943 14.729c-1.354 1.451 4.361 4.93 6.656 4.705 9.436-.926 17.52-12.926 8.41-11.549-7.017 1.061-14.136 5.848-15.066 6.844z"/><linearGradient id="c" x1="24.047" x2="15.588" y1="39.94" y2="28.022" gradientUnits="userSpaceOnUse"><stop offset=".073" style="stop-color:#deb38a"/><stop offset=".14" style="stop-color:#e4ba92"/><stop offset=".336" style="stop-color:#f3cba5"/><stop offset=".54" style="stop-color:#fcd5b0"/><stop offset=".758" style="stop-color:#ffd8b4"/></linearGradient><path fill="url(#c)" d="M40.895 19.999C30.633 14.997 13.123 28.128 2 31.86v20.693c5.83-3.607 14.832-8.387 18.172-11.684 3.953-2.552 25.129-12.663 20.723-20.87z"/><radialGradient id="d" cx="33.894" cy="18.839" r="12.567" gradientTransform="matrix(.9084 -.4183 .2024 .4395 -.92 24.739)" gradientUnits="userSpaceOnUse"><stop offset="0" style="stop-color:#ff3030"/><stop offset=".257" style="stop-color:#fb2d2d"/><stop offset=".497" style="stop-color:#f02525"/><stop offset=".73" style="stop-color:#dd1717"/><stop offset=".958" style="stop-color:#c30404"/><stop offset="1" style="stop-color:#bd0000"/></radialGradient><path fill="url(#d)" d="M24.328 21.95c-1.354 1.451 4.361 4.93 6.656 4.705 9.436-.926 17.52-12.924 8.408-11.547-7.015 1.059-14.136 5.846-15.064 6.842z"/><linearGradient id="e" x1="24.224" x2="16.143" y1="56.895" y2="45.509" gradientUnits="userSpaceOnUse"><stop offset=".073" style="stop-color:#deb38a"/><stop offset=".14" style="stop-color:#e4ba92"/><stop offset=".336" style="stop-color:#f3cba5"/><stop offset=".54" style="stop-color:#fcd5b0"/><stop offset=".758" style="stop-color:#ffd8b4"/></linearGradient><path fill="url(#e)" d="M37.656 39.401c-10.26-5.002-28 8.096-35.656 10.6v12h12.592s1.721-1.115 2.34-1.729c3.957-2.55 25.131-12.664 20.724-20.871z"/><radialGradient id="f" cx="30.656" cy="38.241" r="12.568" gradientTransform="matrix(.9084 -.4183 .2024 .4395 -5.145 34.26)" gradientUnits="userSpaceOnUse"><stop offset="0" style="stop-color:#ff3030"/><stop offset=".257" style="stop-color:#fb2d2d"/><stop offset=".497" style="stop-color:#f02525"/><stop offset=".73" style="stop-color:#dd1717"/><stop offset=".958" style="stop-color:#c30404"/><stop offset="1" style="stop-color:#bd0000"/></radialGradient><path fill="url(#f)" d="M21.09 41.353c-1.354 1.451 4.361 4.93 6.656 4.705 9.436-.926 17.52-12.924 8.41-11.549-7.017 1.06-14.136 5.847-15.066 6.844z"/><linearGradient id="g" x1="40.703" x2="54.124" y1="35.523" y2="35.523" gradientUnits="userSpaceOnUse"><stop offset="0" style="stop-color:#ff3030"/><stop offset=".228" style="stop-color:#fb2d2d"/><stop offset=".44" style="stop-color:#f02525"/><stop offset=".646" style="stop-color:#dd1717"/><stop offset=".847" style="stop-color:#c30404"/><stop offset=".885" style="stop-color:#bd0000"/></linearGradient><path fill="url(#g)" d="M54.061 29.392s-2.402.631-3.1-1.264c-1.416 5.33-6.041 4.789-6.834 10.414l3.293 4.375c4.881-1.135 7.125-7.5 6.641-13.525z"/></svg>