<svg xmlns="http://www.w3.org/2000/svg" xml:space="preserve" viewBox="0 0 64 64"><linearGradient id="a" x1="-42.256" x2="-14.293" y1="75.088" y2="75.088" gradientTransform="scale(-1 1) rotate(45 0 39.987)" gradientUnits="userSpaceOnUse"><stop offset="0" style="stop-color:#ffd94d"/><stop offset=".343" style="stop-color:#fed64b"/><stop offset=".619" style="stop-color:#fccc44"/><stop offset=".87" style="stop-color:#f8bb39"/><stop offset="1" style="stop-color:#f5af31"/></linearGradient><path fill="url(#a)" d="M57.628 57.627c-5.461 5.459-13.91 5.861-18.875.898l-16.639-16.64 19.773-19.772L58.524 38.75c4.965 4.965 4.563 13.415-.896 18.877z"/><linearGradient id="b" x1="-42.256" x2="-14.291" y1="38.847" y2="38.847" gradientTransform="scale(-1 1) rotate(45 0 39.987)" gradientUnits="userSpaceOnUse"><stop offset="0" style="stop-color:#ff2121"/><stop offset=".33" style="stop-color:#fc1f1f"/><stop offset=".596" style="stop-color:#f2181b"/><stop offset=".838" style="stop-color:#e10b13"/><stop offset="1" style="stop-color:#d1000b"/></linearGradient><path fill="url(#b)" d="M6.374 6.373c-5.461 5.461-5.861 13.911-.9 18.876l16.641 16.637 19.773-19.772L25.249 5.475C20.284.51 11.834.915 6.374 6.373z"/><radialGradient id="c" cx="451.784" cy="117.644" r="36.988" gradientTransform="matrix(.0836 .6433 .6485 -.0843 -99.967 -282.248)" gradientUnits="userSpaceOnUse"><stop offset="0" style="stop-color:#fff;stop-opacity:.4"/><stop offset=".861" style="stop-color:#fff;stop-opacity:0"/></radialGradient><path fill="url(#c)" d="M18.105 28.8c6.848-.885 11.68-7.113 10.794-13.901-.883-6.797-7.146-11.581-13.991-10.69-6.847.888-11.68 7.116-10.801 13.91.884 6.798 7.157 11.578 13.998 10.681z"/></svg>