<svg xmlns="http://www.w3.org/2000/svg" xml:space="preserve" style="enable-background:new 0 0 64 64" viewBox="0 0 64 64"><path d="M26.488 53.613C9.518 40.129 1 33.36 1 22.865 1 11.91 10.225 6 18.905 6c5.246 0 9.884 2.04 13.092 5.68C35.207 8.04 39.847 6 45.093 6 53.774 6 63 11.91 63 22.865c0 10.493-8.514 17.257-25.476 30.733C36.146 54.693 31.997 58 31.997 58s-4.136-3.297-5.509-4.387z" style="fill:#ffcd00"/><linearGradient id="a" x1="32" x2="32" y1="55.545" y2="7.906" gradientUnits="userSpaceOnUse"><stop offset=".5" style="stop-color:#ffcd00"/><stop offset="1" style="stop-color:#ffed63"/></linearGradient><path d="M31.997 14.893c-7.714-12.331-29.06-7.515-29.06 7.972 0 10.39 9.846 17.34 29.06 32.68 19.214-15.34 29.065-22.29 29.065-32.68 0-15.487-21.348-20.303-29.065-7.972z" style="fill:url(#a)"/></svg>