<svg xmlns="http://www.w3.org/2000/svg" xml:space="preserve" style="enable-background:new 0 0 64 64" viewBox="0 0 64 64"><linearGradient id="a" x1="-486.677" x2="-486.677" y1="-403.594" y2="-421.66" gradientTransform="matrix(2.9058 0 0 2.7675 1446.186 1173.945)" gradientUnits="userSpaceOnUse"><stop offset="0" style="stop-color:#ff2e7e"/><stop offset=".28" style="stop-color:#ff448e"/><stop offset=".743" style="stop-color:#ff64a4"/><stop offset="1" style="stop-color:#ff70ac"/></linearGradient><path d="M31.997 14.335C24.034 1.392 2 6.445 2 22.7 2 33.604 12.163 40.9 31.997 57 51.831 40.9 62 33.604 62 22.7c0-16.254-22.037-21.308-30.003-8.365z" style="fill:url(#a)"/><radialGradient id="b" cx="31" cy="26.549" r="27.82" fx="23.243" fy="30.257" gradientUnits="userSpaceOnUse"><stop offset="0" style="stop-color:#f80"/><stop offset=".263" style="stop-color:#ffaa10"/><stop offset=".572" style="stop-color:#ffcb21"/><stop offset=".829" style="stop-color:#ffe02a"/><stop offset="1" style="stop-color:#ffe72e"/></radialGradient><path d="M54.264 38.083C47.218 40 33.884 40 23.35 37.506c-4.557-1.08-8.952 1.072-13.614.578-6.883-5.422-7.26-11.442-7.26-11.442 2.658 1.34 13.908 3.012 18.824 2.257 7.5 2.667 35 .167 40.223-2.257 0 0-.264 5.358-7.26 11.44z" style="fill:url(#b)"/><linearGradient id="c" x1="19.206" x2="19.206" y1="55.095" y2="36.643" gradientUnits="userSpaceOnUse"><stop offset=".206" style="stop-color:#ffe12c"/><stop offset=".488" style="stop-color:#ffd620"/><stop offset=".996" style="stop-color:#ffb700"/><stop offset="1" style="stop-color:#ffb700"/></linearGradient><path d="M15.424 39.077s2.445 4.505-.767 12.1l5.128-2.392 2.943 6.31s3.366-6.737-2.097-18.452l-5.207 2.434z" style="fill:url(#c)"/><linearGradient id="d" x1="30.837" x2="30.837" y1="48.842" y2="32.951" gradientUnits="userSpaceOnUse"><stop offset=".206" style="stop-color:#ffe12c"/><stop offset=".488" style="stop-color:#ffd620"/><stop offset=".996" style="stop-color:#ffb700"/><stop offset="1" style="stop-color:#ffb700"/></linearGradient><path d="M28.563 32.95s1.878 4.77 9.76 7.191l-5.129 2.39 2.945 6.311S28.814 47.09 23.35 35.376l5.212-2.425z" style="fill:url(#d)"/><radialGradient id="e" cx="1736.615" cy="113.996" r="45.267" fx="1700.395" fy="130.421" gradientTransform="matrix(-.8326 .4805 -.3785 -.6555 1497.2 -696.489)" gradientUnits="userSpaceOnUse"><stop offset=".261" style="stop-color:#ffe12c"/><stop offset=".364" style="stop-color:#ffb700"/><stop offset=".503" style="stop-color:#ffe12c"/></radialGradient><path d="M19.081 34.011c2.725 9.073-5.745 16.849-6.998 16.006-2.552-1.724-9.22-10.78-10.082-17.413-.132-1.023 10.394-6.85 17.08 1.407z" style="fill:url(#e)"/><radialGradient id="f" cx="-1009.402" cy="114.951" r="45.271" fx="-1045.625" fy="131.377" gradientTransform="matrix(.8323 -.481 -.3783 -.6556 935.277 -372.06)" gradientUnits="userSpaceOnUse"><stop offset=".261" style="stop-color:#ffe12c"/><stop offset=".364" style="stop-color:#ffb700"/><stop offset=".503" style="stop-color:#ffe12c"/></radialGradient><path d="M20.89 32.966c6.495 6.897 17.464 3.446 17.36 1.937-.219-3.072-4.725-13.375-10.038-17.44-.82-.626-11.127 5.58-7.322 15.503z" style="fill:url(#f)"/><linearGradient id="g" x1="-807.094" x2="-807.094" y1="490.76" y2="479.945" gradientTransform="matrix(.9836 -.5681 .4998 .8661 571.253 -845.41)" gradientUnits="userSpaceOnUse"><stop offset=".097" style="stop-color:#ffb700"/><stop offset=".551" style="stop-color:#ffe12c"/></linearGradient><path d="M22.543 37.904c-2.605 1.507-2.213 3.672-5.82-2.556-3.603-6.233-1.918-4.81.685-6.322 2.605-1.508 2.208-3.682 5.819 2.556 3.6 6.225 1.922 4.811-.684 6.322z" style="fill:url(#g)"/></svg>