<svg xmlns="http://www.w3.org/2000/svg" xml:space="preserve" style="enable-background:new 0 0 64 64" viewBox="0 0 64 64"><linearGradient id="a" x1="-486.677" x2="-486.677" y1="-402.871" y2="-422.383" gradientTransform="matrix(2.9058 0 0 2.7675 1446.186 1173.945)" gradientUnits="userSpaceOnUse"><stop offset="0" style="stop-color:#ff8abb"/><stop offset=".307" style="stop-color:#ffa3c9"/><stop offset=".75" style="stop-color:#ffc1da"/><stop offset="1" style="stop-color:#ffcce1"/></linearGradient><path d="M31.997 12.62C24.034-1.447 2 5.134 2 22.803 2 34.655 12.163 41.5 31.997 59 51.831 41.5 62 34.655 62 22.802c0-17.67-22.037-24.25-30.003-10.181z" style="fill:url(#a)"/><linearGradient id="b" x1="-520.222" x2="-520.222" y1="-323.214" y2="-342.735" gradientTransform="matrix(2.1309 0 0 1.9926 1140.54 695.482)" gradientUnits="userSpaceOnUse"><stop offset="0" style="stop-color:#ff549c"/><stop offset=".414" style="stop-color:#ff7cb3"/><stop offset=".789" style="stop-color:#ff9bc5"/><stop offset="1" style="stop-color:#ffa6cb"/></linearGradient><path d="M31.998 17.958C26.025 7.798 9.5 12.853 9.5 25.612c0 8.559 7.623 13.198 22.498 25.834C46.873 38.81 54.5 34.171 54.5 25.612c0-12.759-16.527-17.813-22.502-7.654z" style="fill:url(#b)"/><linearGradient id="c" x1="-551.175" x2="-551.175" y1="-200.075" y2="-217.388" gradientTransform="matrix(1.4529 0 0 1.3838 832.802 320.667)" gradientUnits="userSpaceOnUse"><stop offset="0" style="stop-color:#ff2e7e"/><stop offset=".307" style="stop-color:#ff478f"/><stop offset=".75" style="stop-color:#ff65a4"/><stop offset="1" style="stop-color:#ff70ac"/></linearGradient><path d="M31.998 23.36c-3.76-6.204-14.167-3.78-14.167 4.008 0 5.226 4.8 8.72 14.167 16.436 9.368-7.715 14.17-11.21 14.17-16.436 0-7.788-10.407-10.212-14.17-4.008z" style="fill:url(#c)"/></svg>