<svg xmlns="http://www.w3.org/2000/svg" xml:space="preserve" style="enable-background:new 0 0 64 64" viewBox="0 0 64 64"><linearGradient id="a" x1="32" x2="32" y1="28.6" y2="3" gradientUnits="userSpaceOnUse"><stop offset="0" style="stop-color:#db0100"/><stop offset=".584" style="stop-color:#f31317"/><stop offset="1" style="stop-color:#ff1c23"/></linearGradient><path d="M31.998 6.864c-4.195-6.819-15.802-4.157-15.806 4.41 0 5.148 4.32 8.785 12.746 15.594 2.86 2.309 3.266 2.31 6.125 0 8.422-6.81 12.742-10.444 12.744-15.596 0-8.564-11.611-11.227-15.809-4.408z" style="fill:url(#a)"/><path d="M35.226 47.608s.369 3.57-.539 5.973c1.276-.138 1.606-.781 1.606-.781s-.044 1.672-.693 2.843c1.2.198 1.936-.396 1.936-.396s0 1.265.094 2.134c3.493-.902 3.283-4.966 3.283-4.966l-5.687-4.807zm24.586 5.972c-.907-2.408-.539-5.972-.539-5.972l-5.681 4.807s-.21 4.064 3.283 4.966c.094-.869.094-2.134.094-2.134s.737.594 1.936.396c-.655-1.166-.693-2.843-.693-2.843s.324.643 1.6.78z" style="fill:#e68c00"/><path d="M59.147 43.158c-1.843.226-3.174 6.391-2.013 8.02.16.225 1.11.588 1.815-.848.39-.797 1.512-1.457 1.865-3.102.445-2.1.17-4.29-1.667-4.07zm-23.794 0c1.842.226 3.173 6.391 2.013 8.02-.16.225-1.111.588-1.815-.848-.39-.797-1.513-1.457-1.865-3.102-.445-2.1-.165-4.29 1.667-4.07z" style="fill:#ffc940"/><path d="M59.097 44.34c-.478.155-1.006.886-1.287 2.102 1.678-.363 1.26 2.436-.198 2.491.011.28.033.572.066.875.704-1.023 1.42-.61 2.129-2.134.632-1.37.484-3.707-.71-3.333zM36.69 46.436c-.287-1.215-.81-1.947-1.288-2.095-1.188-.374-1.342 1.963-.704 3.333.71 1.518 1.425 1.11 2.129 2.134.033-.308.055-.594.066-.88-1.447-.066-1.86-2.827-.204-2.492z" style="fill:#f0a429"/><path d="M47.25 31.3c-7.981 0-11.826 6.501-11.347 14.856.099 1.677.566 4.103 1.144 6.182C38.24 56.655 43.52 61 47.25 61c3.729 0 9.004-4.345 10.203-8.662.577-2.08 1.045-4.5 1.144-6.182C59.075 37.8 55.231 31.3 47.25 31.3z" style="fill:#ffc940"/><path d="M55.924 42.542c-1.826-.968-5.32-1.012-6.617-.34-.28.131-.094 1.044.137.956 1.815-.715 4.742-.731 6.436.06.225.11.319-.538.044-.676zm-17.348 0c1.826-.968 5.319-1.012 6.622-.34.28.131.094 1.044-.137.956-1.815-.715-4.736-.731-6.436.06-.23.11-.324-.538-.05-.676z" style="fill:#bb7c0a"/><path d="M49.406 50.93c-.226-.16-.765.088-2.156.088-1.392 0-1.925-.248-2.156-.088-.275.192.16 1.061 2.156 1.061 1.99 0 2.425-.869 2.156-1.061zm-2.156 3.289c-1.793-.528-4.455.253-4.455.253 1.012 1.105 1.754 2.535 4.455 2.535 3.091 0 3.62-1.622 4.455-2.535 0-.006-2.662-.787-4.455-.253z" style="fill:#f0a429"/><path d="M43.466 54.653c1.88 1.579 5.681 1.59 7.574 0-2.008.088-5.556.088-7.574 0zm2.007-8.816c.066.528-.291 1.155-1.281 1.622-.633.297-1.942.65-3.67-.077-.77-.324-1.523-1.342-1.457-1.903.935-1.76 5.534-2.018 6.408.358z" style="fill:#fff"/><linearGradient id="b" x1="-1207.883" x2="-1207.883" y1="175.149" y2="174.599" gradientTransform="translate(7978.266 -1103.139) scale(6.5701)" gradientUnits="userSpaceOnUse"><stop offset="0" style="stop-color:#a6694a"/><stop offset="1" style="stop-color:#4f2a1e"/></linearGradient><path d="M42.355 43.994c.995 0 1.81.809 1.81 1.804a1.81 1.81 0 0 1-3.62 0c0-.995.809-1.804 1.81-1.804z" style="fill:url(#b)"/><path d="M41.453 45.77c0 1.25 1.81 1.25 1.81 0-.006-1.16-1.81-1.16-1.81 0z" style="fill:#1a1626"/><path d="M41.178 45.265c0 .522.759.522.759 0-.006-.49-.76-.49-.76 0z" style="fill:#ab968c"/><path d="M45.484 45.908c-.731-2.36-5.737-2.007-6.419-.423.253-2.035 5.792-2.569 6.42.423z" style="fill:#f0a429"/><path d="M49.026 45.837c-.066.528.292 1.155 1.282 1.622.633.297 1.942.65 3.669-.077.775-.324 1.523-1.342 1.457-1.903-.935-1.76-5.533-2.018-6.408.358z" style="fill:#fff"/><linearGradient id="c" x1="-1209.097" x2="-1209.097" y1="175.149" y2="174.599" gradientTransform="translate(7995.996 -1103.139) scale(6.5701)" gradientUnits="userSpaceOnUse"><stop offset="0" style="stop-color:#a6694a"/><stop offset="1" style="stop-color:#4f2a1e"/></linearGradient><circle cx="52.106" cy="45.804" r="1.81" style="fill:url(#c)"/><path d="M51.205 45.77c0 1.25 1.81 1.25 1.81 0-.006-1.16-1.81-1.16-1.81 0z" style="fill:#1a1626"/><path d="M50.93 45.265c0 .522.758.522.758 0-.005-.49-.759-.49-.759 0z" style="fill:#ab968c"/><path d="M49.015 45.908c.732-2.354 5.732-2.018 6.414-.423-.248-2.035-5.787-2.569-6.414.423z" style="fill:#f0a429"/><path d="M39.73 32.549c4.181 3.987 16.623 6.484 18.779 15.268C55.566 39 44.747 41.475 39.73 32.549z" style="fill:#e68c00"/><path d="M47.37 29.1c-4.856 0-7.281 2.2-7.776 3.245 6.055 9.246 16.319 6.116 18.915 15.477 5.22-8.31.885-18.722-11.138-18.722z" style="fill:#f9a307"/><path d="M47.37 29.1c-4.324 0-7.175 1.757-7.776 3.245 2.094 5.642 16.47 5.814 19.256 13.312-.587-5.382-4.85-8.97-4.85-8.97s3.835 2.477 5.741 5.972c-.355-5.02-4.312-7.908-4.312-7.908s3.568 2.476 4.746 5.33C59.478 34.295 56.7 29.1 47.371 29.1z" style="fill:#ffb80d"/><path d="M57.632 34.899c-4.012-6.758-12.627-4.976-12.627-4.976s7.17.372 12.627 4.976z" style="fill:#ffca25"/><path d="M57.983 39.105c-5.761-10.782-16.53-7.252-16.53-7.252s9.316-.359 16.53 7.252z" style="fill:#ffca25"/><path d="M42.061 33.337c5.935 2.2 12.747 6.164 12.747 6.164s-4.028-6.05-12.747-6.164z" style="fill:#ffca25"/><path d="M39.593 32.345c-5.868 1.342-7.76 11.248-3.366 15.472.545-4.505 1.073-7.398 4.065-10.445 0 0 .176-2.678-.699-5.027z" style="fill:#f9a307"/><path d="M40.154 37.026S36.3 40.6 36.227 47.816c.66-7.15 4.103-10.378 4.103-10.378l-.176-.412z" style="fill:#e68c00"/><path d="M39.654 32.549s-6.81 2.326-4.868 11.698a14.27 14.27 0 0 1 .286-2.112c-.013 1.17.162 2.453.61 3.856.59-6.512 4.368-9.691 4.368-9.691l-.396-3.751z" style="fill:#ffb80d"/><path d="M35.461 42.026c.87-4.867 4.734-8.077 4.734-8.077s-5.372.355-4.734 8.077z" style="fill:#ffca25"/><path d="M39.593 32.345c-1.6 7.26 6.073 8.685 9.323 8.685-5.841-4.048-9.323-8.685-9.323-8.685z" style="fill:#f9a307"/><path d="M39.4 33.638c.155 4.158 2.421 6.754 9.516 7.392-5.55.374-10.368-2.398-9.515-7.392z" style="fill:#e68c00"/><path d="M39.593 32.345s-.888 6.538 9.323 8.685c-5.627-4.343-6.645-6.85-9.323-8.685z" style="fill:#ffb80d"/><path d="M45.457 39.128c-1.8-1.176-4.707-5.418-4.707-5.418s.569 4.383 4.707 5.418z" style="fill:#ffca25"/><path d="M4.726 47.608s.368 3.57-.54 5.973c1.277-.138 1.607-.781 1.607-.781s-.044 1.672-.693 2.843c1.199.198 1.936-.396 1.936-.396s0 1.265.093 2.134c3.493-.902 3.284-4.966 3.284-4.966l-5.687-4.807zm24.586 5.972c-.908-2.408-.54-5.972-.54-5.972l-5.68 4.807s-.21 4.064 3.283 4.966c.093-.869.093-2.134.093-2.134s.737.594 1.936.396c-.654-1.166-.693-2.843-.693-2.843s.325.643 1.6.78z" style="fill:#e68c00"/><path d="M28.646 43.158c-1.842.226-3.173 6.391-2.013 8.02.16.225 1.111.588 1.815-.848.39-.797 1.513-1.457 1.865-3.102.446-2.1.17-4.29-1.667-4.07zm-23.794 0c1.843.226 3.174 6.391 2.013 8.02-.16.225-1.11.588-1.815-.848-.39-.797-1.512-1.457-1.864-3.102-.446-2.1-.165-4.29 1.666-4.07z" style="fill:#ffc940"/><path d="M28.597 44.34c-.479.155-1.007.886-1.287 2.102 1.677-.363 1.26 2.436-.198 2.491.01.28.033.572.066.875.704-1.023 1.419-.61 2.128-2.134.633-1.37.484-3.707-.71-3.333zM6.189 46.436c-.286-1.215-.809-1.947-1.287-2.095-1.188-.374-1.342 1.963-.704 3.333.71 1.518 1.424 1.11 2.128 2.134.033-.308.055-.594.066-.88-1.446-.066-1.859-2.827-.203-2.492z" style="fill:#f0a429"/><path d="M16.75 31.3c-7.982 0-11.826 6.501-11.348 14.856.1 1.677.567 4.103 1.144 6.182C7.74 56.655 13.02 61 16.75 61s9.004-4.345 10.203-8.662c.578-2.08 1.045-4.5 1.144-6.182C28.575 37.8 24.73 31.3 16.75 31.3z" style="fill:#ffc940"/><path d="M25.423 42.542c-1.826-.968-5.319-1.012-6.617-.34-.28.131-.093 1.044.138.956 1.815-.715 4.741-.731 6.435.06.226.11.32-.538.044-.676zm-17.348 0c1.826-.968 5.32-1.012 6.623-.34.28.131.093 1.044-.138.956-1.815-.715-4.736-.731-6.435.06-.231.11-.325-.538-.05-.676z" style="fill:#bb7c0a"/><path d="M18.905 50.93c-.225-.16-.764.088-2.156.088-1.391 0-1.925-.248-2.156-.088-.275.192.16 1.061 2.156 1.061 1.991 0 2.426-.869 2.156-1.061zm-2.155 3.289c-1.794-.528-4.456.253-4.456.253 1.012 1.105 1.755 2.535 4.455 2.535 3.091 0 3.62-1.622 4.456-2.535 0-.006-2.663-.787-4.456-.253z" style="fill:#f0a429"/><path d="M12.965 54.653c1.881 1.579 5.682 1.59 7.574 0-2.008.088-5.555.088-7.574 0zm2.008-8.816c.066.528-.292 1.155-1.282 1.622-.632.297-1.942.65-3.669-.077-.77-.324-1.523-1.342-1.457-1.903.935-1.76 5.533-2.018 6.408.358z" style="fill:#fff"/><linearGradient id="d" x1="-1212.525" x2="-1212.525" y1="175.149" y2="174.599" gradientTransform="translate(7978.266 -1103.139) scale(6.5701)" gradientUnits="userSpaceOnUse"><stop offset="0" style="stop-color:#a6694a"/><stop offset="1" style="stop-color:#4f2a1e"/></linearGradient><path d="M11.854 43.994c.996 0 1.81.809 1.81 1.804a1.81 1.81 0 0 1-3.62 0c0-.995.809-1.804 1.81-1.804z" style="fill:url(#d)"/><path d="M10.952 45.77c0 1.25 1.81 1.25 1.81 0-.006-1.16-1.81-1.16-1.81 0z" style="fill:#1a1626"/><path d="M10.677 45.265c0 .522.759.522.759 0-.005-.49-.759-.49-.759 0z" style="fill:#ab968c"/><path d="M14.984 45.908c-.732-2.36-5.737-2.007-6.42-.423.254-2.035 5.793-2.569 6.42.423z" style="fill:#f0a429"/><path d="M18.526 45.837c-.066.528.291 1.155 1.281 1.622.633.297 1.942.65 3.67-.077.775-.324 1.523-1.342 1.457-1.903-.935-1.76-5.534-2.018-6.408.358z" style="fill:#fff"/><linearGradient id="e" x1="-1213.739" x2="-1213.739" y1="175.149" y2="174.599" gradientTransform="translate(7995.996 -1103.139) scale(6.5701)" gradientUnits="userSpaceOnUse"><stop offset="0" style="stop-color:#a6694a"/><stop offset="1" style="stop-color:#4f2a1e"/></linearGradient><circle cx="21.606" cy="45.804" r="1.81" style="fill:url(#e)"/><path d="M20.704 45.77c0 1.25 1.81 1.25 1.81 0-.006-1.16-1.81-1.16-1.81 0z" style="fill:#1a1626"/><path d="M20.429 45.265c0 .522.759.522.759 0-.005-.49-.759-.49-.759 0z" style="fill:#ab968c"/><path d="M18.515 45.908c.731-2.354 5.731-2.018 6.413-.423-.247-2.035-5.786-2.569-6.413.423z" style="fill:#f0a429"/><path d="M9.23 32.549c4.18 3.987 16.622 6.484 18.778 15.268C25.066 39 14.247 41.475 9.23 32.549z" style="fill:#e68c00"/><path d="M16.87 29.1c-4.857 0-7.282 2.2-7.777 3.245 6.056 9.246 16.32 6.116 18.915 15.477 5.22-8.31.886-18.722-11.138-18.722z" style="fill:#f9a307"/><path d="M16.87 29.1c-4.325 0-7.176 1.757-7.777 3.245 2.094 5.642 16.47 5.814 19.256 13.312-.587-5.382-4.85-8.97-4.85-8.97s3.835 2.477 5.742 5.972c-.356-5.02-4.313-7.908-4.313-7.908s3.568 2.476 4.747 5.33c-.697-5.786-3.477-10.98-12.805-10.98z" style="fill:#ffb80d"/><path d="M27.132 34.899c-4.012-6.758-12.628-4.976-12.628-4.976s7.17.372 12.628 4.976z" style="fill:#ffca25"/><path d="M27.482 39.105c-5.76-10.782-16.53-7.252-16.53-7.252s9.316-.359 16.53 7.252z" style="fill:#ffca25"/><path d="M11.56 33.337c5.935 2.2 12.747 6.164 12.747 6.164s-4.027-6.05-12.746-6.164z" style="fill:#ffca25"/><path d="M9.093 32.345c-5.869 1.342-7.761 11.248-3.366 15.472.544-4.505 1.072-7.398 4.064-10.445 0 0 .176-2.678-.698-5.027z" style="fill:#f9a307"/><path d="M9.654 37.026S5.798 40.6 5.727 47.816c.66-7.15 4.103-10.378 4.103-10.378l-.176-.412z" style="fill:#e68c00"/><path d="M9.153 32.549s-6.809 2.326-4.867 11.698c.044-.755.147-1.454.285-2.112-.012 1.17.162 2.453.611 3.856C5.771 39.479 9.55 36.3 9.55 36.3l-.396-3.751z" style="fill:#ffb80d"/><path d="M4.96 42.026c.87-4.867 4.734-8.077 4.734-8.077s-5.372.355-4.734 8.077z" style="fill:#ffca25"/><path d="M9.093 32.345c-1.6 7.26 6.072 8.685 9.323 8.685-5.841-4.048-9.323-8.685-9.323-8.685z" style="fill:#f9a307"/><path d="M8.9 33.638c.154 4.158 2.42 6.754 9.516 7.392-5.55.374-10.368-2.398-9.516-7.392z" style="fill:#e68c00"/><path d="M9.093 32.345s-.888 6.538 9.323 8.685c-5.628-4.343-6.645-6.85-9.323-8.685z" style="fill:#ffb80d"/><path d="M14.957 39.128c-1.801-1.176-4.708-5.418-4.708-5.418s.57 4.383 4.707 5.418z" style="fill:#ffca25"/></svg>