<svg xmlns="http://www.w3.org/2000/svg" xml:space="preserve" style="enable-background:new 0 0 64 64" viewBox="0 0 64 64"><path d="M42.038 12.425c8.817-1.42 16.057 4.503 17.717 12.287.103.482.748.325.765-.223.3-8.31-6.771-16.936-18.353-12.958-.502.172-.6.97-.129.894z" style="fill:#ff70ac"/><path d="M46.901 8.546c7.198-1.16 13.11 3.676 14.465 10.032.084.394.612.266.627-.182.244-6.786-5.53-13.827-14.988-10.58-.408.14-.488.792-.104.73zm-24.939 3.879c-8.816-1.42-16.057 4.503-17.717 12.287-.103.482-.748.325-.767-.223-.3-8.31 6.771-16.936 18.355-12.958.502.172.6.97.129.894z" style="fill:#ff70ac"/><path d="M17.099 8.546c-7.2-1.16-13.11 3.676-14.465 10.032-.084.394-.611.266-.627-.182-.244-6.786 5.53-13.827 14.988-10.58.408.14.488.792.104.73z" style="fill:#ff70ac"/><linearGradient id="a" x1="-500.435" x2="-500.435" y1="-352.609" y2="-370.676" gradientTransform="matrix(2.4215 0 0 2.3247 1244.038 876.71)" gradientUnits="userSpaceOnUse"><stop offset="0" style="stop-color:#ff2e7e"/><stop offset=".28" style="stop-color:#ff448e"/><stop offset=".743" style="stop-color:#ff64a4"/><stop offset="1" style="stop-color:#ff70ac"/></linearGradient><path d="M32.231 21.16c-6.634-10.87-24.998-6.624-24.998 7.029 0 9.16 8.471 15.288 24.998 28.812 16.53-13.524 25.002-19.653 25.002-28.812 0-13.653-18.363-17.9-25.002-7.027z" style="fill:url(#a)"/></svg>