<svg xmlns="http://www.w3.org/2000/svg" xml:space="preserve" style="enable-background:new 0 0 64 64" viewBox="0 0 64 64"><linearGradient id="a" x1="42.834" x2="57.549" y1="37.979" y2="49.501" gradientUnits="userSpaceOnUse"><stop offset="0" style="stop-color:#3d0a0a"/><stop offset=".025" style="stop-color:#540e18"/><stop offset=".086" style="stop-color:#881837"/><stop offset=".145" style="stop-color:#b32050"/><stop offset=".203" style="stop-color:#d42664"/><stop offset=".258" style="stop-color:#ec2a72"/><stop offset=".308" style="stop-color:#fa2d7b"/><stop offset=".351" style="stop-color:#ff2e7e"/><stop offset=".541" style="stop-color:#ff5896"/><stop offset=".74" style="stop-color:#ff7eaa"/><stop offset=".9" style="stop-color:#ff95b7"/><stop offset="1" style="stop-color:#ff9ebc"/></linearGradient><path d="M61.611 23.471s-1.603 19.333-33.59 20.478V55.59c40.633-9.62 33.59-32.12 33.59-32.12z" style="fill:url(#a)"/><linearGradient id="b" x1=".672" x2="34.691" y1="12.659" y2="14.953" gradientUnits="userSpaceOnUse"><stop offset="0" style="stop-color:#ff9ebc"/><stop offset=".1" style="stop-color:#ff95b7"/><stop offset=".26" style="stop-color:#ff7eaa"/><stop offset=".459" style="stop-color:#ff5896"/><stop offset=".648" style="stop-color:#ff2e7e"/><stop offset=".723" style="stop-color:#fc2d7c"/><stop offset=".775" style="stop-color:#f32c77"/><stop offset=".82" style="stop-color:#e4296e"/><stop offset=".861" style="stop-color:#ce2561"/><stop offset=".9" style="stop-color:#b12050"/><stop offset=".936" style="stop-color:#8f193b"/><stop offset=".97" style="stop-color:#661223"/><stop offset="1" style="stop-color:#3d0a0a"/></linearGradient><path d="M1.922 23.237s9.115-17.998 32.717-12.274l1.379-6.218C6.18.176 1.922 23.237 1.922 23.237z" style="fill:url(#b)"/><linearGradient id="c" x1="-481.542" x2="-481.542" y1="-414.434" y2="-423.467" gradientTransform="matrix(2.9058 0 0 2.7675 1446.186 1173.945)" gradientUnits="userSpaceOnUse"><stop offset="0" style="stop-color:#ff2e7e"/><stop offset=".28" style="stop-color:#ff448e"/><stop offset=".743" style="stop-color:#ff64a4"/><stop offset="1" style="stop-color:#ff70ac"/></linearGradient><path d="M46.92 5.668C42.94-.804 31.922 1.723 31.922 9.85c0 5.452 5.082 9.1 14.998 17.15 9.918-8.05 15.002-11.698 15.002-17.15 0-8.127-11.02-10.654-15.002-4.182z" style="fill:url(#c)"/><linearGradient id="d" x1="-457.681" x2="-457.681" y1="-452.758" y2="-461.576" gradientTransform="matrix(4.0681 0 0 3.8557 1884.313 1807.7)" gradientUnits="userSpaceOnUse"><stop offset="0" style="stop-color:#ff2e7e"/><stop offset=".28" style="stop-color:#ff448e"/><stop offset=".743" style="stop-color:#ff64a4"/><stop offset="1" style="stop-color:#ff70ac"/></linearGradient><path d="M22.418 32.987c-5.44-8.8-20.496-5.364-20.496 5.69 0 7.415 6.945 12.375 20.496 23.323 13.557-10.948 20.504-15.908 20.504-23.323 0-11.054-15.059-14.49-20.504-5.69z" style="fill:url(#d)"/></svg>