<svg xmlns="http://www.w3.org/2000/svg" xml:space="preserve" viewBox="0 0 64 64"><radialGradient id="a" cx="-135.82" cy="-86.6" r="9.676" gradientTransform="matrix(3.6673 .0394 -.0378 1.8505 518.211 207.562)" gradientUnits="userSpaceOnUse"><stop offset="0" style="stop-color:#d6805c"/><stop offset=".323" style="stop-color:#c27251"/><stop offset=".984" style="stop-color:#8d4f35"/><stop offset="1" style="stop-color:#8c4e34"/></radialGradient><path fill="url(#a)" d="M58.351 56.195c-8.516 7.762-44.083 7.717-52.673 0C.795 51.811.76 43.178 5.66 38.797c8.615-7.701 44.193-7.757 52.708 0 4.856 4.424 4.834 12.974-.017 17.398z"/><radialGradient id="b" cx="20.625" cy="53.087" r="27.598" gradientTransform="matrix(1 0 0 .6588 0 -9.096)" gradientUnits="userSpaceOnUse"><stop offset="0" style="stop-color:#d6805c"/><stop offset=".204" style="stop-color:#cf7b58"/><stop offset=".511" style="stop-color:#ba6d4d"/><stop offset=".882" style="stop-color:#98563b"/><stop offset="1" style="stop-color:#8c4e34"/></radialGradient><path fill="url(#b)" d="M31.729 20.256c-9.553 0-24.502 1.118-24.502 12.622 0 16.829 49.545 16.829 49.545 0 0-11.503-14.889-12.622-25.043-12.622z"/><radialGradient id="c" cx="25.633" cy="13.006" r="25.858" gradientTransform="matrix(1 0 0 .67 0 4.291)" gradientUnits="userSpaceOnUse"><stop offset="0" style="stop-color:#d6805c"/><stop offset=".22" style="stop-color:#cc7956"/><stop offset=".598" style="stop-color:#b06648"/><stop offset="1" style="stop-color:#8c4e34"/></radialGradient><path fill="url(#c)" d="M47.838 15.706c-4.345-9.641-24.58.286-21.104-11.399.524-1.76.503-2.527-.836-2.251-7.283 1.511-12.527 9.013-10.681 15.217 5.945 19.978 38.48 11.439 32.621-1.567z"/><path fill="#1A1626" d="M43.433 45.979c-2.73-.502-6.578-.979-11.431-.979-4.853 0-8.705.475-11.436.979-1.378.252-2.129 1.373-2.063 2.51C18.839 54.201 23.301 59 32.002 59s13.159-4.799 13.493-10.512c.067-1.136-.685-2.258-2.062-2.509z"/><path fill="#FD7383" d="M25.718 56.051s2.792 1.475 6.281 1.475c3.491 0 6.282-1.475 6.282-1.475s-2.094-2.209-6.279-1.473c-4.189-.736-6.284 1.473-6.284 1.473z"/><linearGradient id="d" x1="20.801" x2="43.198" y1="49.002" y2="49.002" gradientUnits="userSpaceOnUse"><stop offset="0" style="stop-color:#cfd7e6"/><stop offset=".037" style="stop-color:#dae0ec"/><stop offset=".126" style="stop-color:#eef1f6"/><stop offset=".215" style="stop-color:#fbfcfd"/><stop offset=".3" style="stop-color:#fff"/><stop offset=".7" style="stop-color:#fff"/><stop offset=".785" style="stop-color:#fbfcfd"/><stop offset=".874" style="stop-color:#eef1f6"/><stop offset=".963" style="stop-color:#dae0ec"/><stop offset="1" style="stop-color:#cfd7e6"/></linearGradient><path fill="url(#d)" d="M42.16 47.996C40.404 47.635 36.688 47 32 47c-4.685 0-8.401.635-10.161.996-1.098.229-1.12.775-.974 1.826.128.918.214 1.164 1.065 1.178.781.012 10.07 0 10.07 0s9.288.012 10.071 0c.852-.014.938-.26 1.065-1.178.144-1.051.121-1.597-.976-1.826z"/><path fill="#FFF" d="M36 34.825a7 7 0 1 0 14.002-.002A7 7 0 0 0 36 34.825z"/><ellipse cx="42.332" cy="34.762" fill="#1A1626" rx="4.34" ry="4.25"/><path fill="#FFF" d="M41.988 32.638c0 1.542-2.369 1.542-2.369 0 0-1.548 2.369-1.548 2.369 0zM28 34.825a7 7 0 1 1-14.002-.002A7 7 0 0 1 28 34.825z"/><path fill="#1A1626" d="M21.667 30.512c-2.396 0-4.34 1.903-4.34 4.25s1.943 4.25 4.34 4.25c2.4 0 4.342-1.903 4.342-4.25-.001-2.346-1.942-4.25-4.342-4.25z"/><path fill="#FFF" d="M22.012 32.638c0 1.542 2.367 1.542 2.367 0 0-1.548-2.367-1.548-2.367 0z"/></svg>