<svg xmlns="http://www.w3.org/2000/svg" xml:space="preserve" style="enable-background:new 0 0 64 64" viewBox="0 0 64 64"><radialGradient id="a" cx="32.726" cy="26.376" r="32.623" gradientTransform="matrix(1 0 0 .8746 -.392 3.308)" gradientUnits="userSpaceOnUse"><stop offset="0" style="stop-color:#f0fbff"/><stop offset=".446" style="stop-color:#eefafe"/><stop offset=".628" style="stop-color:#e7f6fc"/><stop offset=".762" style="stop-color:#dbeff8"/><stop offset=".873" style="stop-color:#c9e5f2"/><stop offset=".967" style="stop-color:#b3d8eb"/><stop offset="1" style="stop-color:#a9d2e8"/></radialGradient><path d="M32 2C.66 2-6.13 34.2 11.65 48.14c1.25 2.97 2.18 8-1.65 13.86 7.35-1.37 10.5-6.23 11.69-8.88 3.08.86 6.51 1.33 10.31 1.33C72 54.45 72 2 32 2z" style="fill:url(#a)"/><path d="M32 3c19.93 0 29 13.07 29 25.22s-9.08 25.22-29 25.22c-3.58 0-6.95-.44-10.04-1.29l-.83-.23-.35.78c-1.02 2.26-3.45 6.03-8.74 7.75 2.6-5.23 1.79-9.73.53-12.71l-.1-.24-.2-.16C4.13 40.95.94 30.04 4.35 20.18 8.06 9.43 18.4 3 32 3m0-1C.66 2-6.13 34.2 11.65 48.14c1.25 2.97 2.18 8-1.65 13.86 7.35-1.37 10.5-6.23 11.69-8.88 3.08.86 6.51 1.33 10.31 1.33C72 54.45 72 2 32 2z" style="fill:#a9d2e8"/><path d="M21.99 29c0 1.66-1.34 3-3 3s-3-1.34-3-3 1.34-3 3-3c1.65 0 3 1.34 3 3z" style="fill:#a9d2e8"/><circle cx="32" cy="29" r="3" style="fill:#a9d2e8"/><path d="M48.01 29c0 1.66-1.34 3-3 3s-3-1.34-3-3 1.34-3 3-3 3 1.34 3 3z" style="fill:#a9d2e8"/></svg>