<svg xmlns="http://www.w3.org/2000/svg" xml:space="preserve" style="enable-background:new 0 0 64 64" viewBox="0 0 64 64"><linearGradient id="a" x1=".286" x2="20.082" y1="11.587" y2="31.383" gradientUnits="userSpaceOnUse"><stop offset="0" style="stop-color:#ff3b3b"/><stop offset="1" style="stop-color:#c90100"/></linearGradient><path d="M11.314 39.698c.517-19.356 3.782-34.042 4.498-37.056.073-.307-.133-.61-.436-.626-1.422-.076-3.824.13-4.978.243a2.103 2.103 0 0 0-1.182.51C7.84 3.963 3.142 8.438 2.021 11.635c-.206.587 1.155.861 1.525.759.3-.083 4.705-3.654 4.654-3.34-1.069 6.581-3.352 19.34-3.097 31.805.036 1.769 3.58.588 5.507-.136.415-.155.692-.566.704-1.025z" style="fill:url(#a)"/><linearGradient id="b" x1="17.514" x2="36.579" y1="9.033" y2="28.098" gradientUnits="userSpaceOnUse"><stop offset="0" style="stop-color:#ff3b3b"/><stop offset="1" style="stop-color:#c90100"/></linearGradient><path d="M24.943 35.56c8.109 0 11.84-8.671 12.728-17.06.522-5.19.514-10.287-1.933-13.722C34.248 2.688 32.09 2 28.9 2c-3.278 0-6.337 1.543-8.345 4.103-2.62 3.338-3.905 8.39-4.413 13.334-.837 8.156 1.135 16.124 8.801 16.124zm-2.636-16.074c.786-7.307 3.196-11.079 5.899-11.079 2.836 0 4.094 3.115 3.411 9.903-.77 7.117-2.922 11.454-5.887 11.454-2.836 0-4.142-3.439-3.423-10.278z" style="fill:url(#b)"/><linearGradient id="c" x1="42.126" x2="60.366" y1="8.531" y2="26.771" gradientUnits="userSpaceOnUse"><stop offset="0" style="stop-color:#ff3b3b"/><stop offset="1" style="stop-color:#c90100"/></linearGradient><path d="M49.175 33.718c8 0 11.676-8.197 12.555-16.125.512-4.904.503-9.72-1.908-12.964C58.35 2.651 56.228 2 53.08 2c-3.236 0-6.243 1.47-8.233 3.876-2.574 3.165-3.85 7.93-4.356 12.604-.824 7.706 1.122 15.238 8.684 15.238zm-2.6-15.191c.77-6.907 3.152-10.472 5.818-10.472 2.799 0 4.037 2.943 3.364 9.363-.756 6.72-2.877 10.822-5.808 10.822-2.797 0-4.084-3.251-3.373-9.713z" style="fill:url(#c)"/><linearGradient id="d" x1="24.34" x2="47.31" y1="31.829" y2="54.799" gradientUnits="userSpaceOnUse"><stop offset="0" style="stop-color:#ff3b3b"/><stop offset="1" style="stop-color:#c90100"/></linearGradient><path d="M14.453 41.918c-2.135.881-4.213 7.83.857 5.874 10.071-3.884 30.404-7.65 44.726-5.923 1.288.155-.965-4.163-3.65-4.59-12.581-1.996-29.474-.5-41.933 4.64z" style="fill:url(#d)"/><linearGradient id="e" x1="21.715" x2="46.155" y1="41.585" y2="66.025" gradientUnits="userSpaceOnUse"><stop offset="0" style="stop-color:#ff3b3b"/><stop offset="1" style="stop-color:#c90100"/></linearGradient><path d="M59.042 45.624c-14.973-1.738-36.726 2.337-50.631 9.39-2.452 1.243-1.937 8.71 2.179 6.618 11.933-6.066 35.47-12.04 51.014-11.247 1.381.07-1.185-4.602-2.562-4.761z" style="fill:url(#e)"/></svg>