<svg xmlns="http://www.w3.org/2000/svg" xml:space="preserve" viewBox="0 0 64 64"><linearGradient id="a" x1="32.001" x2="32.001" y1="64" y2="0" gradientUnits="userSpaceOnUse"><stop offset="0" style="stop-color:#d90100"/><stop offset=".117" style="stop-color:#e01313"/><stop offset=".366" style="stop-color:#ee3535"/><stop offset=".603" style="stop-color:#f74d4d"/><stop offset=".821" style="stop-color:#fd5c5c"/><stop offset="1" style="stop-color:#ff6161"/></linearGradient><path fill="url(#a)" d="M44.701 35.415 64 24.713l-21.655.941 6.431-13.285-11.729 8.346 1.448-18.323-8.534 15.1L17.115 0l5.521 21.792-19.267-6.396 15.355 14.027L0 33.067l17.948 4.087L7.884 55.116l16.473-9.947L25.036 64l6.748-17.2 9.08 13.61-.503-16.346 15.632 5.97z"/><linearGradient id="b" x1="31.796" x2="31.796" y1="48.726" y2="14.211" gradientUnits="userSpaceOnUse"><stop offset="0" style="stop-color:#f80"/><stop offset=".211" style="stop-color:#ffa113"/><stop offset=".543" style="stop-color:#ffc32b"/><stop offset=".818" style="stop-color:#ffd83a"/><stop offset="1" style="stop-color:#ffdf40"/></linearGradient><path fill="url(#b)" d="m39.095 33.786 11.301-5.24-12.533-.371 3.362-7.452-6.641 3.804.248-10.133-4.458 8.448-6.715-8.632 2.934 10.879-11.186-2.833 9.142 7.888-11.353 2.669 10.39 2.391-7.325 11.235 11.231-7.606.307 9.893 4.035-9.038 4.561 6.751-.078-8.182 8.211 3.599z"/><linearGradient id="c" x1="31.794" x2="31.794" y1="38.775" y2="24.161" gradientUnits="userSpaceOnUse"><stop offset="0" style="stop-color:#fff1a3"/><stop offset=".16" style="stop-color:#fff4b6"/><stop offset=".527" style="stop-color:#fffade"/><stop offset=".82" style="stop-color:#fffef6"/><stop offset="1" style="stop-color:#fff"/></linearGradient><path fill="url(#c)" d="m34.885 32.448 4.785-2.219-5.307-.156 1.423-3.155-2.81 1.611.104-4.292-1.888 3.577-2.843-3.654 1.244 4.607-4.739-1.201 3.872 3.34-4.809 1.132 4.4 1.012-3.099 4.757 4.754-3.222.132 4.19 1.708-3.827 1.931 2.859-.034-3.465 3.478 1.524z"/></svg>