<svg xmlns="http://www.w3.org/2000/svg" xml:space="preserve" style="enable-background:new 0 0 64 64" viewBox="0 0 64 64"><linearGradient id="a" x1="15.994" x2="15.994" y1="57.774" y2="48.163" gradientUnits="userSpaceOnUse"><stop offset="0" style="stop-color:#a9d2e8"/><stop offset=".328" style="stop-color:#c5e2f1"/><stop offset=".759" style="stop-color:#e4f4fb"/><stop offset="1" style="stop-color:#f0fbff"/></linearGradient><path d="M9.9 50.87c-1.94 6.09 10.28 9.91 12.22 3.83 1.77-5.55-10.45-9.38-12.22-3.83z" style="fill:url(#a)"/><linearGradient id="b" x1="6.858" x2="6.858" y1="62" y2="56.287" gradientUnits="userSpaceOnUse"><stop offset="0" style="stop-color:#a9d2e8"/><stop offset=".328" style="stop-color:#c5e2f1"/><stop offset=".759" style="stop-color:#e4f4fb"/><stop offset="1" style="stop-color:#f0fbff"/></linearGradient><path d="M5.14 56.75c-2.87 2.18.74 6.86 3.61 4.68 2.57-1.94-1.04-6.63-3.61-4.68z" style="fill:url(#b)"/><radialGradient id="c" cx="29.5" cy="21.136" r="33.221" gradientTransform="matrix(1 0 0 .7806 0 4.638)" gradientUnits="userSpaceOnUse"><stop offset="0" style="stop-color:#f0fbff"/><stop offset=".446" style="stop-color:#eefafe"/><stop offset=".628" style="stop-color:#e7f6fc"/><stop offset=".762" style="stop-color:#dbeff8"/><stop offset=".873" style="stop-color:#c9e5f2"/><stop offset=".967" style="stop-color:#b3d8eb"/><stop offset="1" style="stop-color:#a9d2e8"/></radialGradient><path d="M59.03 16.14c.17-5.53-4.79-9.19-8.46-8.17-3.35-5.63-9.75-5.44-13.42-2.83C31.29-.63 21.87 1.99 19.5 9.46 10.55 4.29 1.25 15.01 5.04 21.98c-8.02 8.41 1.21 22.79 11.61 19 1.75 7.53 14.85 11.27 20.11 2.75 3.83 4.08 12.36.84 11.87-4.3 6.75 2.42 12.41-4.33 10.34-10.16 3.83-2.78 4.23-10.05.06-13.13z" style="fill:url(#c)"/><path d="M14.45 49.16c2.41 0 5.1 1.2 6.25 2.78.58.79.74 1.62.47 2.45-.66 2.07-2.74 2.38-3.93 2.38-2.27 0-4.75-1.13-5.88-2.68-.67-.91-.84-1.9-.51-2.92.56-1.75 2.49-2.01 3.6-2.01m0-1c-2.09 0-3.94.8-4.55 2.71-1.25 3.92 3.38 6.9 7.35 6.9 2.19 0 4.19-.91 4.88-3.08 1.15-3.63-3.7-6.53-7.68-6.53zm-7.97 9.13c.79 0 1.72.81 2.05 1.77.23.68.1 1.22-.38 1.58-.32.24-.65.36-.99.36-.8 0-1.66-.71-1.97-1.61-.17-.52-.22-1.26.55-1.84.23-.18.48-.26.74-.26m0-1c-.45 0-.91.14-1.34.47C2.78 58.54 4.78 62 7.16 62c.53 0 1.07-.17 1.59-.56 2.14-1.63-.01-5.15-2.27-5.15zM29.65 3c2.52 0 4.93 1.01 6.8 2.85l.6.59.68-.49c1.41-1 3.24-1.57 5.02-1.57 1.69 0 4.84.53 6.96 4.1l.39.66.74-.2c.32-.09.66-.13 1.02-.13 1.41 0 2.96.72 4.13 1.93 1.38 1.43 2.11 3.33 2.05 5.37l-.02.52.42.31c1.64 1.21 2.58 3.29 2.57 5.69-.01 2.43-1.02 4.66-2.62 5.82l-.61.44.25.71c.73 2.06.37 4.42-.97 6.32-1.35 1.91-3.4 3.01-5.62 3.01-.82 0-1.65-.15-2.47-.45l-1.48-.53.15 1.57c.12 1.28-.5 2.27-1.05 2.87-1.2 1.32-3.25 2.18-5.23 2.18-1.11 0-2.68-.27-3.87-1.53l-.89-.95-.7 1.11c-2.37 3.84-6.09 4.41-8.1 4.41-4.82 0-9.3-3.01-10.19-6.86l-.26-1.1-1.06.39c-1.03.37-2.07.56-3.11.56-3.82 0-7.55-2.7-9.27-6.72-1.72-4.01-1.03-8.2 1.84-11.21l.5-.53-.33-.64c-1.16-2.12-.95-4.9.55-7.43 1.79-3.02 4.99-4.97 8.15-4.97 1.49 0 2.96.41 4.37 1.23l1.08.62.38-1.19C21.73 5.72 25.43 3 29.65 3m0-1c-4.41 0-8.67 2.78-10.16 7.46-1.64-.95-3.29-1.36-4.87-1.36-7.04 0-12.68 8.19-9.58 13.88-7.11 7.46-.65 19.62 8.16 19.62 1.12 0 2.28-.2 3.45-.62 1.04 4.49 6.12 7.63 11.16 7.63 3.42 0 6.82-1.44 8.95-4.88 1.21 1.29 2.88 1.84 4.6 1.84 3.72 0 7.61-2.63 7.27-6.15.97.35 1.91.5 2.81.5 5.4 0 9.3-5.67 7.53-10.66 3.83-2.77 4.24-10.04.06-13.13.15-4.91-3.73-8.34-7.18-8.34-.44 0-.87.06-1.28.17-1.95-3.28-4.94-4.58-7.82-4.58-2.06 0-4.07.67-5.6 1.76C34.96 2.99 32.27 2 29.65 2z" style="fill:#a9d2e8"/></svg>