<svg xmlns="http://www.w3.org/2000/svg" xml:space="preserve" style="enable-background:new 0 0 64 64" viewBox="0 0 64 64"><linearGradient id="a" x1="-550.98" x2="-512.798" y1="2412.168" y2="2412.168" gradientTransform="matrix(0 -1 -1 0 2464.448 -499.888)" gradientUnits="userSpaceOnUse"><stop offset="0" style="stop-color:#db0100"/><stop offset="1" style="stop-color:#ff1c23"/></linearGradient><path d="M60.26 13.78c-.87-.92-2.35-1.15-3.49-.51-4.48 2.51-14.2 8.77-14.2 18.73s9.73 16.22 14.2 18.73c1.14.64 2.61.42 3.49-.51l1.08-1.14c.98-1.04.86-2.59-.25-3.51-2.96-2.45-9.75-8.03-9.75-13.57 0-5.54 6.79-11.11 9.75-13.57 1.11-.92 1.23-2.47.25-3.51l-1.08-1.14z" style="fill:url(#a)"/><linearGradient id="b" x1="2381.038" x2="2342.856" y1="621.857" y2="621.857" gradientTransform="matrix(0 1 1 0 -610.138 -2329.948)" gradientUnits="userSpaceOnUse"><stop offset="0" style="stop-color:#db0100"/><stop offset="1" style="stop-color:#ff1c23"/></linearGradient><path d="M3.74 50.22c.87.92 2.35 1.15 3.49.51 4.48-2.51 14.2-8.77 14.2-18.73S11.7 15.78 7.23 13.27c-1.14-.64-2.61-.42-3.49.51l-1.08 1.14c-.98 1.04-.86 2.59.25 3.51 2.96 2.45 9.75 8.03 9.75 13.57S5.87 43.11 2.91 45.57c-1.11.92-1.23 2.47-.25 3.51l1.08 1.14z" style="fill:url(#b)"/><linearGradient id="c" x1="7.439" x2="7.439" y1="55.247" y2="74.686" gradientTransform="matrix(1 0 0 -1 24.56 117.247)" gradientUnits="userSpaceOnUse"><stop offset="0" style="stop-color:#db0100"/><stop offset="1" style="stop-color:#ff1c23"/></linearGradient><path d="M50.22 60.26c.92-.87 1.15-2.35.51-3.49-2.51-4.48-8.77-14.2-18.73-14.2s-16.22 9.73-18.73 14.2c-.64 1.14-.42 2.61.51 3.49l1.14 1.08c1.04.98 2.59.86 3.51-.25 2.45-2.96 8.03-9.75 13.57-9.75 5.54 0 11.11 6.79 13.57 9.75.92 1.11 2.47 1.23 3.51.25l1.14-1.08z" style="fill:url(#c)"/><linearGradient id="d" x1="1822.619" x2="1822.619" y1="2978.778" y2="2959.339" gradientTransform="matrix(-1 0 0 1 1854.62 -2957.34)" gradientUnits="userSpaceOnUse"><stop offset="0" style="stop-color:#db0100"/><stop offset="1" style="stop-color:#ff1c23"/></linearGradient><path d="M13.78 3.74c-.92.87-1.15 2.35-.51 3.49 2.51 4.48 8.77 14.2 18.73 14.2s16.22-9.73 18.73-14.2c.64-1.14.42-2.61-.51-3.49l-1.14-1.08c-1.04-.98-2.59-.86-3.51.25-2.45 2.96-8.03 9.75-13.57 9.75S20.89 5.87 18.43 2.91c-.92-1.11-2.47-1.23-3.51-.25l-1.14 1.08z" style="fill:url(#d)"/></svg>