<svg xmlns="http://www.w3.org/2000/svg" xml:space="preserve" style="enable-background:new 0 0 64 64" viewBox="0 0 64 64"><linearGradient id="a" x1="-179.157" x2="-167.053" y1="40.99" y2="61.955" gradientTransform="scale(1 -1) rotate(30 109.051 347.865)" gradientUnits="userSpaceOnUse"><stop offset="0" style="stop-color:#005eff"/><stop offset=".105" style="stop-color:#006eff"/><stop offset=".333" style="stop-color:#018bff"/><stop offset=".56" style="stop-color:#019fff"/><stop offset=".784" style="stop-color:#01acff"/><stop offset="1" style="stop-color:#01b0ff"/></linearGradient><path d="M21.15 51.68c.4-.23.76-.14 1 .27l1.52 2.63c.23.41.14.77-.27 1l-10.9 6.29c-.41.23-.77.14-1-.27l-1.2-2.08c-.18-.3-.23-.58-.23-.92l.59-14.13-6.03 3.48c-.4.23-.77.14-1-.27l-1.52-2.64c-.23-.41-.14-.77.27-1l10.64-6.14c.4-.24.76-.14 1 .27l1.2 2.08c.18.3.23.57.23.92l-.59 14.13 6.29-3.62z" style="fill:url(#a)"/><linearGradient id="b" x1="-130.864" x2="-120.361" y1="44.308" y2="73.167" gradientTransform="scale(1 -1) rotate(19.999 203.271 446.546)" gradientUnits="userSpaceOnUse"><stop offset="0" style="stop-color:#005eff"/><stop offset=".105" style="stop-color:#006eff"/><stop offset=".333" style="stop-color:#018bff"/><stop offset=".56" style="stop-color:#019fff"/><stop offset=".784" style="stop-color:#01acff"/><stop offset="1" style="stop-color:#01b0ff"/></linearGradient><path d="M37 34.53c.57-.21 1.01 0 1.22.57l1.35 3.72c.21.57 0 1.01-.57 1.22l-15.37 5.59c-.57.21-1.01 0-1.22-.57l-1.07-2.93c-.15-.43-.16-.79-.08-1.23l3.95-17.96-8.51 3.1c-.57.21-1.01.01-1.22-.57l-1.35-3.72c-.21-.57 0-1.01.57-1.22l15.01-5.46c.57-.21 1.01 0 1.22.57L32 18.58c.16.43.17.79.08 1.23l-3.95 17.95L37 34.53z" style="fill:url(#b)"/><linearGradient id="c" x1="-42.285" x2="-42.285" y1="38.001" y2="68.001" gradientTransform="matrix(1 0 0 -1 94 70)" gradientUnits="userSpaceOnUse"><stop offset="0" style="stop-color:#005eff"/><stop offset=".105" style="stop-color:#006eff"/><stop offset=".333" style="stop-color:#018bff"/><stop offset=".56" style="stop-color:#019fff"/><stop offset=".784" style="stop-color:#01acff"/><stop offset="1" style="stop-color:#01b0ff"/></linearGradient><path d="M60.93 25.4c.68 0 1.07.38 1.07 1.07v4.46c0 .68-.39 1.07-1.07 1.07H42.5c-.69 0-1.07-.39-1.07-1.07v-3.51c0-.51.13-.9.38-1.33L52.91 8.6h-10.2c-.68 0-1.07-.38-1.07-1.07V3.07c0-.68.39-1.07 1.07-1.07h18c.69 0 1.07.39 1.07 1.07v3.51c0 .52-.13.9-.38 1.33L50.3 25.4h10.63z" style="fill:url(#c)"/></svg>