<svg xmlns="http://www.w3.org/2000/svg" xml:space="preserve" style="enable-background:new 0 0 64 64" viewBox="0 0 64 64"><linearGradient id="a" x1="-43.329" x2="-43.329" y1="976.37" y2="947.629" gradientTransform="translate(94 -930)" gradientUnits="userSpaceOnUse"><stop offset="0" style="stop-color:#018bc9"/><stop offset=".978" style="stop-color:#5fcff6"/></linearGradient><path d="m38.34 37.3 8.21 8.21a2.958 2.958 0 0 0 4.16 0l11.43-11.43c1.15-1.14 1.14-3.01 0-4.16L50.71 18.49a2.945 2.945 0 0 0-4.15 0l-8.21 8.21c1.2 1.43 1.92 3.28 1.92 5.3s-.73 3.87-1.93 5.3z" style="fill:url(#a)"/><linearGradient id="b" x1="-61.999" x2="-61.999" y1="993" y2="968.34" gradientTransform="translate(94 -930)" gradientUnits="userSpaceOnUse"><stop offset="0" style="stop-color:#018bc9"/><stop offset=".978" style="stop-color:#5fcff6"/></linearGradient><path d="m34.08 62.14 11.44-11.43c1.14-1.14 1.14-3.01 0-4.16l-8.21-8.21a8.244 8.244 0 0 1-10.6 0l-8.21 8.21c-1.14 1.14-1.14 3.01 0 4.16l11.43 11.43c1.13 1.15 3.01 1.15 4.15 0z" style="fill:url(#b)"/><linearGradient id="c" x1="-80.671" x2="-80.671" y1="976.37" y2="947.631" gradientTransform="translate(94 -930)" gradientUnits="userSpaceOnUse"><stop offset="0" style="stop-color:#018bc9"/><stop offset=".978" style="stop-color:#5fcff6"/></linearGradient><path d="m25.66 26.7-8.21-8.21a2.958 2.958 0 0 0-4.16 0L1.86 29.92c-1.14 1.14-1.14 3.01 0 4.16l11.43 11.43c1.14 1.14 3.01 1.14 4.16 0l8.21-8.21c-1.2-1.44-1.92-3.28-1.92-5.3s.72-3.87 1.92-5.3z" style="fill:url(#c)"/><linearGradient id="d" x1="-62.001" x2="-62.001" y1="955.66" y2="931" gradientTransform="translate(94 -930)" gradientUnits="userSpaceOnUse"><stop offset="0" style="stop-color:#018bc9"/><stop offset=".978" style="stop-color:#5fcff6"/></linearGradient><path d="m37.3 25.66 8.21-8.21a2.958 2.958 0 0 0 0-4.16L34.08 1.86c-1.14-1.14-3.01-1.14-4.16 0L18.49 13.29a2.958 2.958 0 0 0 0 4.16l8.21 8.21c1.43-1.2 3.28-1.93 5.3-1.93s3.87.73 5.3 1.93z" style="fill:url(#d)"/><radialGradient id="e" cx="-63.21" cy="960.185" r="9.568" gradientTransform="translate(94 -930)" gradientUnits="userSpaceOnUse"><stop offset="0" style="stop-color:#ffa8f0"/><stop offset=".271" style="stop-color:#fd9ced"/><stop offset=".765" style="stop-color:#f87be5"/><stop offset="1" style="stop-color:#f569e0"/></radialGradient><circle cx="32" cy="32" r="7.5" style="fill:url(#e)"/></svg>