<svg xmlns="http://www.w3.org/2000/svg" xml:space="preserve" style="enable-background:new 0 0 64 64" viewBox="0 0 64 64"><path d="M57 37.5H7L2 56.43h60z" style="fill:#777d80"/><path d="M2 56.43c0 1.42 60 1.42 60 0H2z" style="fill:#666b6e"/><path d="M7 37.5h50V7.45c0-.52-.43-.95-.95-.95H7.95a.95.95 0 0 0-.95.95V37.5z" style="fill:#302c3b"/><linearGradient id="a" x1="32" x2="32" y1="35" y2="9" gradientUnits="userSpaceOnUse"><stop offset="0" style="stop-color:#4e5e67"/><stop offset="1" style="stop-color:#6e8189"/></linearGradient><path d="M7.5 9h49v26h-49z" style="fill:url(#a)"/><path d="M32.4 7.75c0 .53-.79.53-.79 0s.79-.53.79 0zm-9.25 0c0 .53-.79.53-.79 0s.79-.53.79 0z" style="fill:#4e5e67"/><path d="M27.63 7.75c0 .33-.5.33-.5 0s.5-.33.5 0zm9.25 0c0 .33-.5.33-.5 0s.5-.33.5 0z" style="fill:#1a1626"/><path d="M41.65 7.75c0 .53-.79.53-.79 0s.79-.53.79 0z" style="fill:#4e5e67"/><path d="m30.95 35.75.09.09v.02l-.09.09h-.02l-.09-.09v-.01l.09-.09c.01-.01.02-.01.02-.01zm1.43.26c.14 0 .25.12.25.27 0 .15-.12.27-.25.27-.08 0-.14-.03-.18-.09v.25c0 .01 0 .01-.01.02-.01 0-.01.01-.02.01h-.06c-.01 0-.01 0-.02-.01 0 0-.01-.01 0-.02v-.68s.01-.01.02-.01h.06c.01 0 .01 0 .02.01 0 0 .01.01.01.02v.05c.04-.05.1-.09.18-.09zm-.01.43c.09 0 .16-.07.16-.16s-.07-.16-.16-.16-.16.07-.16.16.06.16.16.16zm.35.09c-.01 0-.01 0-.02-.01 0 0-.01-.01 0-.02v-.48s.01-.01.02-.01h.06s.01 0 .02.01c0 0 .01.01.01.02v.46c0 .01 0 .01-.01.02 0 0-.01.01-.02.01h-.06zm.56-.02c.01.01 0 .03-.02.03h-.06c-.01 0-.02-.01-.03-.02l-.1-.15-.1.15c-.01.01-.02.02-.03.02h-.07c-.02 0-.03-.01-.01-.03l.15-.23-.14-.22c-.01-.02 0-.03.01-.03h.07c.01 0 .02.01.03.02l.09.14.09-.14c0-.01.02-.02.03-.02h.07c.02 0 .02.01.02.03l-.14.22.14.23zm.26-.5c.15 0 .25.12.25.27v.03c0 .01 0 .01-.01.02-.01 0-.01.01-.02 0h-.38c.02.08.08.13.16.13.04 0 .08-.02.11-.05.01-.01.02-.01.03-.01h.06c.02 0 .03.01.02.03-.04.08-.12.13-.22.13-.16 0-.27-.11-.27-.27.01-.16.12-.28.27-.28zm-.15.23h.29c-.01-.09-.08-.12-.14-.12-.08-.01-.13.04-.15.12zm.48.29s-.01 0-.02-.01c0 0-.01-.01-.01-.02v-.68c0-.01 0-.01.01-.02 0 0 .01-.01.02-.01h.06c.01 0 .01 0 .02.01 0 0 .01.01.01.02v.68c0 .01 0 .01-.01.02 0 0-.01.01-.02.01h-.06zm.27-.36c0 .1.28.03.28.22 0 .1-.09.16-.2.16-.1 0-.19-.05-.2-.14 0-.01 0-.01.01-.02 0 0 .01-.01.02-.01h.06c.01 0 .02.01.02.02.01.04.04.05.09.05.05 0 .09-.02.09-.06 0-.1-.28-.03-.28-.22 0-.1.09-.16.19-.16s.18.05.19.15v.02c-.01 0-.01.01-.02.01h-.06c-.01 0-.02-.01-.02-.02-.01-.04-.04-.05-.08-.05-.05-.01-.09.01-.09.05zm-3.17-.14c.01 0 .01 0 .02.01.01 0 .01.01.01.02v.5c0 .13-.06.2-.18.2-.01 0-.01 0-.02-.01 0 0-.01-.01-.01-.02v-.06c0-.01 0-.01.01-.02 0 0 .01-.01.02-.01.05 0 .08-.03.08-.09v-.52c.01 0 .01-.01.02-.01h.05zm.36.52c-.15 0-.27-.12-.26-.27 0-.15.12-.27.27-.27a.269.269 0 0 1 .19.46c-.07.05-.13.08-.2.08zm0-.11c.07 0 .12-.04.15-.1.02-.06.01-.13-.03-.17a.157.157 0 0 0-.17-.04c-.06.02-.1.08-.1.15 0 .04.01.08.04.11.02.03.06.05.11.05zm.61-.39c0-.01.01-.02.03-.02h.07c.02 0 .02.01.02.03l-.23.67c0 .01-.01.02-.03.02h-.07c-.02 0-.03-.01-.02-.03l.06-.18-.19-.47c-.01-.02 0-.03.02-.03h.07c.01 0 .02.01.03.02l.13.33.11-.34zm-1.88-.15c.2 0 .36.16.36.36s-.16.36-.36.36c-.2 0-.36-.16-.36-.36s.16-.36.36-.36zm0-.12c-.27 0-.48.21-.48.48a.48.48 0 1 0 .48-.48z" style="fill:#b3c2c6"/><path d="M30.15 36.31c-.01 0-.01 0-.02-.01 0 0-.01-.01 0-.02v-.07c.01 0 .01-.01.02-.01h.16c.01 0 .01 0 .02.01 0 0 .01.01 0 .02v.02c0 .11-.07.21-.17.26a.28.28 0 0 1-.3-.06s-.01-.01-.01-.02 0-.01.01-.02l.05-.05s.01-.01.02-.01c0 0 .01 0 .02.01.04.04.09.05.15.04.05-.01.09-.05.11-.1h-.06z" style="fill:#b3c2c6"/><path d="M43.85 55.3c.02.26-.17.48-.42.48H20.57c-.25 0-.44-.22-.42-.48l.68-5.59c.02-.26.24-.48.48-.48H42.7c.24 0 .46.22.48.48l.67 5.59z" style="fill:#666b6e"/><path d="M43.73 55.16c.02.26-.17.47-.41.47H20.68c-.25 0-.43-.21-.41-.47l.67-5.45c.02-.26.23-.47.48-.47H42.6c.24 0 .46.21.47.47l.66 5.45z" style="fill:#a7aeb3"/><path d="M4.64 48.29 7.3 37.9c.03-.12.23-.23.45-.23h1.11c.22 0 .37.1.34.23L6.75 48.29c-.04.15-.26.28-.5.28H5.01c-.24-.01-.41-.13-.37-.28zm52.61 0L54.79 37.9c-.03-.12.12-.23.34-.23h1.11c.22 0 .42.1.45.23l2.66 10.39c.04.15-.13.28-.37.28h-1.24c-.23-.01-.46-.13-.49-.28z" style="fill:#666b6e"/><path d="M11.73 39.57H9.54c-.2 0-.34-.1-.31-.22l.31-1.31c.03-.12.21-.21.4-.21h2.15c.2 0 .34.1.31.21l-.27 1.31c-.02.12-.2.22-.4.22zm3.16 0h-2.18c-.2 0-.34-.1-.32-.22l.26-1.31c.02-.12.2-.21.4-.21h2.15c.2 0 .34.1.32.21l-.22 1.31c-.03.12-.21.22-.41.22zm3.16 0h-2.18c-.2 0-.35-.1-.32-.22l.22-1.31c.02-.12.2-.21.39-.21h2.15c.2 0 .34.1.33.21l-.18 1.31c-.03.12-.21.22-.41.22zm3.16 0h-2.18c-.2 0-.35-.1-.33-.22l.18-1.31c.02-.12.19-.21.38-.21h2.15c.2 0 .35.1.33.21l-.14 1.31c-.01.12-.19.22-.39.22zm3.17 0H22.2c-.2 0-.35-.1-.34-.22l.14-1.31c.01-.12.18-.21.38-.21h2.15c.2 0 .35.1.34.21l-.1 1.31c-.02.12-.19.22-.39.22zm3.16 0h-2.18c-.2 0-.35-.1-.35-.22l.09-1.31c.01-.12.17-.21.37-.21h2.15c.2 0 .35.1.35.21l-.05 1.31c-.02.12-.18.22-.38.22zm3.16 0h-2.18c-.2 0-.36-.1-.35-.22l.05-1.31c0-.12.17-.21.36-.21h2.15c.2 0 .35.1.35.21l-.01 1.31c0 .12-.17.22-.37.22zm3.16 0h-2.18c-.2 0-.36-.1-.36-.22l.01-1.31c0-.12.16-.21.36-.21h2.15c.2 0 .36.1.36.21l.03 1.31c-.01.12-.17.22-.37.22zm3.17 0h-2.18c-.2 0-.36-.1-.37-.22l-.03-1.31c0-.12.15-.21.35-.21h2.15c.2 0 .36.1.37.21l.07 1.31c-.01.12-.16.22-.36.22zm3.16 0H38c-.2 0-.37-.1-.37-.22l-.08-1.31c-.01-.12.15-.21.34-.21h2.15c.2 0 .36.1.37.21l.11 1.31c.02.12-.13.22-.33.22zm3.17 0h-2.18c-.2 0-.37-.1-.38-.22l-.12-1.31c-.01-.12.14-.21.34-.21h2.15c.2 0 .37.1.38.21l.16 1.31c-.01.12-.16.22-.35.22zm3.15 0h-2.18c-.2 0-.37-.1-.39-.22l-.16-1.31c-.01-.12.13-.21.33-.21h2.15c.2 0 .37.1.39.21l.2 1.31c.01.12-.14.22-.34.22zm3.17 0H47.5c-.2 0-.38-.1-.4-.22l-.2-1.31c-.02-.12.13-.21.32-.21h2.15c.2 0 .37.1.39.21l.24 1.31c.02.12-.12.22-.32.22zm4.78 0h-3.8c-.2 0-.38-.1-.4-.22l-.24-1.31c-.02-.12.12-.21.32-.21h3.73c.2 0 .38.1.4.21l.31 1.31c.01.12-.13.22-.32.22zm-2.13.25h2.19c.2 0 .39.1.41.22l.32 1.37c.03.12-.11.23-.32.23H52.7c-.2 0-.39-.1-.42-.23L52 40.04c-.01-.12.13-.22.33-.22zm-3.17 0h2.19c.2 0 .38.1.41.22l.27 1.37c.03.12-.12.23-.32.23h-2.23c-.2 0-.39-.1-.41-.23l-.23-1.37c-.02-.12.12-.22.32-.22zm-3.17 0h2.19c.2 0 .38.1.4.22l.23 1.37c.02.12-.13.23-.33.23h-2.23c-.2 0-.38-.1-.4-.23l-.19-1.37c-.02-.12.13-.22.33-.22zm-3.18 0H45c.2 0 .38.1.39.22l.19 1.37c.02.12-.13.23-.34.23h-2.23c-.2 0-.38-.1-.39-.23l-.15-1.37c0-.12.15-.22.34-.22zm-3.16 0h2.19c.2 0 .37.1.39.22l.14 1.37c.01.12-.14.23-.35.23h-2.23c-.2 0-.38-.1-.39-.23l-.1-1.37c-.01-.12.15-.22.35-.22zm-3.18 0h2.19c.2 0 .37.1.38.22l.1 1.37c.01.12-.15.23-.35.23h-2.23c-.2 0-.37-.1-.38-.23l-.06-1.37c0-.12.16-.22.35-.22zm-3.16 0h2.19c.2 0 .37.1.37.22l.05 1.37c0 .12-.16.23-.36.23h-2.23c-.2 0-.37-.1-.37-.23l-.01-1.37c-.01-.12.16-.22.36-.22zm-3.18 0h2.19c.2 0 .36.1.36.22l.01 1.37c0 .12-.16.23-.37.23H30.1c-.2 0-.37-.1-.36-.23l.03-1.37c0-.12.17-.22.36-.22zm-3.17 0h2.19c.2 0 .36.1.36.22l-.03 1.37c0 .12-.17.23-.38.23h-2.23c-.2 0-.36-.1-.36-.23l.07-1.37c.02-.12.18-.22.38-.22zm-3.17 0h2.19c.2 0 .36.1.35.22l-.08 1.37c-.01.12-.18.23-.38.23h-2.23c-.2 0-.36-.1-.35-.23l.12-1.37c.02-.12.19-.22.38-.22zm-3.17 0h2.19c.2 0 .35.1.34.22l-.12 1.37c-.01.12-.19.23-.39.23h-2.23c-.2 0-.36-.1-.34-.23l.16-1.37c.02-.12.19-.22.39-.22zm-3.17 0h2.19c.2 0 .35.1.34.22l-.17 1.37c-.02.12-.19.23-.4.23h-2.23c-.2 0-.35-.1-.33-.23l.21-1.37c.02-.12.2-.22.39-.22zm-3.17 0h2.19c.2 0 .35.1.33.22l-.21 1.37c-.02.12-.2.23-.4.23h-2.23c-.2 0-.35-.1-.33-.23l.25-1.37c.02-.12.2-.22.4-.22zm-4.79 0h3.81c.2 0 .34.1.32.22l-.25 1.37c-.02.12-.21.23-.41.23H9.07c-.2 0-.35-.1-.32-.23l.32-1.37c.04-.12.22-.22.42-.22zm37.53 2.07h2.24c.2 0 .39.1.41.23l.25 1.42c.02.13-.13.24-.34.24H47.3c-.21 0-.39-.11-.41-.24l-.21-1.42c-.01-.13.13-.23.34-.23zm-3.24 0h2.24c.2 0 .39.1.4.23l.2 1.42c.02.13-.14.24-.34.24H44c-.21 0-.39-.11-.4-.24l-.16-1.42c-.02-.13.14-.23.34-.23zm-3.24 0h2.24c.2 0 .38.1.4.23l.16 1.42c.01.13-.14.24-.35.24H40.7c-.21 0-.39-.11-.4-.24l-.12-1.42c.01-.13.16-.23.36-.23zm-3.23 0h2.24c.2 0 .38.1.39.23l.11 1.42c.01.13-.15.24-.36.24h-2.28c-.21 0-.38-.11-.39-.24l-.07-1.42c-.01-.13.15-.23.36-.23zm-3.24 0h2.24c.2 0 .38.1.38.23l.07 1.42c.01.13-.16.24-.37.24h-2.28c-.21 0-.38-.11-.38-.24l-.02-1.42c0-.13.15-.23.36-.23zm-3.24 0h2.24c.2 0 .37.1.37.23l.02 1.42c0 .13-.17.24-.37.24h-2.28c-.21 0-.38-.11-.37-.24l.02-1.42c0-.13.17-.23.37-.23zm-3.24 0h2.24c.2 0 .37.1.37.23l-.03 1.42c0 .13-.17.24-.38.24h-2.28c-.21 0-.37-.11-.37-.24l.07-1.42c.01-.13.18-.23.38-.23zm-3.23 0h2.24c.2 0 .37.1.36.23l-.07 1.42c-.01.13-.18.24-.39.24h-2.28c-.21 0-.37-.11-.36-.24l.11-1.42c.01-.13.18-.23.39-.23zm-3.24 0h2.24c.2 0 .36.1.35.23l-.12 1.42c-.01.13-.19.24-.4.24h-2.28c-.21 0-.37-.11-.35-.24l.16-1.42c.02-.13.19-.23.4-.23zm-3.24 0h2.24c.2 0 .36.1.34.23l-.16 1.42c-.01.13-.2.24-.4.24h-2.28c-.21 0-.36-.11-.34-.24l.21-1.42c.01-.13.19-.23.39-.23zm-3.24 0h2.24c.2 0 .36.1.34.23L17 43.55c-.02.13-.2.24-.41.24h-2.28c-.21 0-.36-.11-.34-.24l.25-1.42c.04-.14.22-.24.42-.24zm-5.63 0h4.62c.2 0 .35.1.33.23l-.26 1.42c-.02.13-.21.24-.42.24h-4.7c-.21 0-.35-.11-.32-.24l.33-1.42c.04-.13.22-.23.42-.23zm41.35 0h4.62c.2 0 .39.1.42.23l.33 1.42c.03.13-.11.24-.32.24H50.7c-.21 0-.4-.11-.42-.24l-.26-1.42c0-.13.14-.23.34-.23zM18.13 46.4h3.1c.21 0 .38.11.36.25l-.15 1.56c-.01.14-.2.26-.42.26h-3.16c-.22 0-.38-.12-.36-.26l.21-1.56c.02-.14.21-.25.42-.25zm21.11 0h3.1c.21 0 .4.11.41.25l.16 1.56c.01.14-.15.26-.37.26h-3.16c-.22 0-.4-.12-.41-.26l-.1-1.56c-.01-.14.15-.25.37-.25zm-16.87 0h15.79c.21 0 .39.11.4.25l.1 1.56c.01.14-.16.26-.38.26h-16.1c-.22 0-.38-.12-.37-.26l.15-1.56c.02-.14.2-.25.41-.25zm-7.62 0h2.34c.21 0 .37.11.35.25l-.22 1.56c-.02.14-.21.26-.43.26h-2.38c-.22 0-.37-.12-.35-.26l.26-1.56c.03-.14.21-.25.43-.25zm28.69 0h2.34c.21 0 .4.11.42.25l.21 1.56c.02.14-.14.26-.36.26h-2.38c-.22 0-.41-.12-.42-.26l-.16-1.56c-.02-.14.14-.25.35-.25zm3.49 1.01h2.36c.22 0 .41.12.43.26l.09.54c.02.14-.13.26-.35.26h-2.38c-.22 0-.41-.12-.43-.26l-.07-.54c-.03-.14.13-.26.35-.26zm3.57 0h2.36c.22 0 .41.12.44.26l.11.54c.03.14-.13.26-.34.26h-2.38c-.22 0-.41-.12-.44-.26l-.09-.54c-.03-.14.12-.26.34-.26zm-.21-1.19h2.33c.21 0 .41.11.44.25l.1.53c.03.14-.12.25-.34.25h-2.36c-.22 0-.41-.11-.43-.25l-.09-.52c-.02-.14.14-.26.35-.26zm3.61 1.19h2.36c.22 0 .42.12.45.26l.12.54c.03.14-.12.26-.33.26h-2.38c-.22 0-.42-.12-.45-.26l-.11-.54c-.03-.14.12-.26.34-.26zM11.37 46.4h2.34c.21 0 .37.11.34.25l-.27 1.56c-.02.14-.22.26-.44.26h-2.38c-.22 0-.37-.12-.34-.26l.31-1.56c.03-.14.22-.25.44-.25zm-3.39 0h2.34c.21 0 .36.11.34.25l-.32 1.56c-.03.14-.23.26-.45.26H7.51c-.22 0-.37-.12-.33-.26l.36-1.56c.03-.14.23-.25.44-.25zm37.58-2.35h2.28c.21 0 .4.11.42.24l.24 1.49c.02.14-.13.25-.35.25h-2.33c-.21 0-.4-.11-.42-.25l-.19-1.49c-.02-.13.14-.24.35-.24zm-3.31 0h2.28c.21 0 .39.11.41.24l.19 1.49c.02.14-.14.25-.35.25h-2.33c-.21 0-.4-.11-.41-.25l-.14-1.49c-.01-.13.14-.24.35-.24zm-3.31 0h2.28c.21 0 .39.11.4.24l.14 1.49c.01.14-.15.25-.36.25h-2.33c-.21 0-.39-.11-.4-.25l-.1-1.49c0-.13.16-.24.37-.24zm-3.31 0h2.28c.21 0 .38.11.39.24l.09 1.49c.01.14-.16.25-.37.25H35.7c-.21 0-.39-.11-.39-.25l-.05-1.49c0-.13.16-.24.37-.24zm-3.3 0h2.28c.21 0 .38.11.39.24l.04 1.49c0 .14-.17.25-.38.25h-2.33c-.21 0-.39-.11-.39-.25v-1.49c.01-.13.18-.24.39-.24zm-3.31 0h2.28c.21 0 .38.11.38.24v1.49c0 .14-.17.25-.39.25h-2.33c-.21 0-.38-.11-.38-.25l.05-1.49c.01-.13.18-.24.39-.24zm-3.31 0H28c.21 0 .37.11.37.24l-.05 1.49c0 .14-.18.25-.39.25H25.6c-.21 0-.38-.11-.37-.25l.1-1.49c0-.13.18-.24.38-.24zm-3.31 0h2.28c.21 0 .37.11.36.24l-.1 1.49c-.01.14-.19.25-.4.25h-2.33c-.21 0-.37-.11-.36-.25l.15-1.49c.02-.13.19-.24.4-.24zm-3.3 0h2.28c.21 0 .37.11.35.24l-.15 1.49c-.01.14-.2.25-.41.25h-2.33c-.21 0-.37-.11-.35-.25l.19-1.49c.03-.13.21-.24.42-.24zm-3.31 0h2.28c.21 0 .36.11.35.24l-.2 1.49c-.02.14-.21.25-.42.25h-2.33c-.21 0-.37-.11-.35-.25l.24-1.49c.04-.13.22-.24.43-.24zm-7.27 0h6.14c.21 0 .36.11.34.24l-.25 1.49c-.02.14-.21.25-.43.25H8.07c-.21 0-.36-.11-.33-.25l.35-1.49c.03-.13.22-.24.43-.24zm40.55 0h6.41c.21 0 .4.11.43.24l.35 1.49c.03.14-.12.25-.33.25H49.4c-.21 0-.4-.11-.43-.25l-.24-1.49c-.01-.13.13-.24.34-.24z" style="fill:#bac2c7"/></svg>