<svg xmlns="http://www.w3.org/2000/svg" xml:space="preserve" style="enable-background:new 0 0 64 64" viewBox="0 0 64 64"><linearGradient id="a" x1="44.15" x2="44.15" y1="56.25" y2="46.382" gradientUnits="userSpaceOnUse"><stop offset=".497" style="stop-color:#cfd8dd"/><stop offset=".643" style="stop-color:#cbd5da"/><stop offset=".773" style="stop-color:#c1cbd0"/><stop offset=".897" style="stop-color:#aebbc1"/><stop offset="1" style="stop-color:#99a8ae"/></linearGradient><path d="m44.26 58.54 3.33-1.38-2.78-4.38v-7.27l-3.37.83-.73 7.42z" style="fill:url(#a)"/><linearGradient id="b" x1="38.106" x2="40.016" y1="55.08" y2="46.488" gradientUnits="userSpaceOnUse"><stop offset="0" style="stop-color:#99a8ae"/><stop offset=".3" style="stop-color:#95a3a9"/><stop offset=".64" style="stop-color:#89969c"/><stop offset=".997" style="stop-color:#758085"/><stop offset="1" style="stop-color:#758085"/></linearGradient><path d="m31.72 52.65 12.54 5.89-2.56-4.69-.26-7.51-7.02-1.89.06 6.88z" style="fill:url(#b)"/><linearGradient id="c" x1="30.307" x2="30.307" y1="61.711" y2="51.842" gradientUnits="userSpaceOnUse"><stop offset=".497" style="stop-color:#cfd8dd"/><stop offset=".643" style="stop-color:#cbd5da"/><stop offset=".773" style="stop-color:#c1cbd0"/><stop offset=".897" style="stop-color:#aebbc1"/><stop offset="1" style="stop-color:#99a8ae"/></linearGradient><path d="m30.42 64 3.33-1.38-2.78-4.38v-7.27l-3.38.83-.72 7.42z" style="fill:url(#c)"/><linearGradient id="d" x1="24.297" x2="26.352" y1="60.389" y2="51.147" gradientUnits="userSpaceOnUse"><stop offset="0" style="stop-color:#99a8ae"/><stop offset=".3" style="stop-color:#95a3a9"/><stop offset=".64" style="stop-color:#89969c"/><stop offset=".997" style="stop-color:#758085"/><stop offset="1" style="stop-color:#758085"/></linearGradient><path d="M17.88 58.11 30.42 64l-2.56-4.69-.27-7.51-7.01-2.8.06 7.79z" style="fill:url(#d)"/><linearGradient id="e" x1="39.395" x2="39.395" y1="37.955" y2="30.174" gradientUnits="userSpaceOnUse"><stop offset=".497" style="stop-color:#cfd8dd"/><stop offset=".643" style="stop-color:#cbd5da"/><stop offset=".773" style="stop-color:#c1cbd0"/><stop offset=".897" style="stop-color:#aebbc1"/><stop offset="1" style="stop-color:#99a8ae"/></linearGradient><path d="M41.35 37.95c-.15-.52-.18-7.74-.18-7.74s-3.81-.26-3.73.62c.18 2.1.44 5.56 1.05 7.12h2.86z" style="fill:url(#e)"/><linearGradient id="f" x1="37.675" x2="37.675" y1="37.955" y2="28.71" gradientUnits="userSpaceOnUse"><stop offset="0" style="stop-color:#99a8ae"/><stop offset=".441" style="stop-color:#97a6ac"/><stop offset=".672" style="stop-color:#909ea4"/><stop offset=".854" style="stop-color:#849196"/><stop offset="1" style="stop-color:#758085"/></linearGradient><path d="M35.54 37.95h4.66c-.17-.53-.25-7.74-.25-7.74l-4.8-1.5s.23 7.27.37 9.15c.01.03.02.06.02.09z" style="fill:url(#f)"/><linearGradient id="g" x1="43.971" x2="43.971" y1="33.05" y2="25.303" gradientUnits="userSpaceOnUse"><stop offset="0" style="stop-color:#99a8ae"/><stop offset=".16" style="stop-color:#aebbc1"/><stop offset=".352" style="stop-color:#c1cbd0"/><stop offset=".554" style="stop-color:#cbd5da"/><stop offset=".781" style="stop-color:#cfd8dd"/></linearGradient><path d="m52.25 32.32-.34-2.16c-.2-.97-.99-1.74-2.02-1.96l-13.94-2.9-.26 1.71 13.25 6.04 3.31-.73z" style="fill:url(#g)"/><path d="m29.96 25.59-.05 3.14c0 .24.17.45.42.5l18.62 3.82-.31-2.01c-.2-.98-1-1.76-2.04-1.98l-16.64-3.47z" style="fill:#99a8ae"/><path d="M46.45 31.73c-.88.11-1.14-1.69-.26-1.8.89-.11 1.15 1.69.26 1.8z" style="fill:#cfd8dd"/><path d="M36.13 9.62C36.57 4.95 33.75.25 24.21.25c-7.96 0-13.09 6.63-13.09 13.07 0 14.89-.82 28.04 2.22 28.04 10.19 0 21.28-15.63 22.79-31.74z" style="fill:#004c78"/><linearGradient id="h" x1="25.977" x2="25.977" y1="40.459" y2="1.056" gradientUnits="userSpaceOnUse"><stop offset="0" style="stop-color:#005687"/><stop offset=".623" style="stop-color:#1475ae"/><stop offset="1" style="stop-color:#2289c7"/></linearGradient><path d="M36.85 11.35c.44-4.67-2.5-10.3-10.41-10.3-7.96 0-12.43 6.74-12.43 12.59 0 14.89 2.97 17.23 1.77 26.8 0 0 15.71.49 21.64-4.05 1.88-8.2-2.08-8.93-.57-25.04z" style="fill:url(#h)"/><linearGradient id="i" x1="38.986" x2="34.194" y1="53.999" y2="36.065" gradientUnits="userSpaceOnUse"><stop offset=".397" style="stop-color:#005687"/><stop offset=".442" style="stop-color:#065f92"/><stop offset=".559" style="stop-color:#1271a9"/><stop offset=".685" style="stop-color:#1b7fba"/><stop offset=".824" style="stop-color:#2087c4"/><stop offset="1" style="stop-color:#2289c7"/></linearGradient><path d="m37.43 36.39-21.64 4.05c-1.16 0 .54 5.84 1.57 6.85 2.68 2.64 16.49 7.36 16.49 7.36s14.47-3.78 20.6-5.61c1.14-.34 1.56-5.42 1.56-7.76-.01-1.52-6.67-1.62-18.58-4.89z" style="fill:url(#i)"/><path d="M15.54 40.57c-.95-.64-.63 5.6.4 6.61 2.68 2.64 14.45 7.1 17.9 7.47.09-1.83.29-5.95-.16-7.37-.36-1.16-7.19-.83-18.14-6.71z" style="fill:#004c78"/><linearGradient id="j" x1="25.534" x2="25.534" y1="9.695" y2="0" gradientUnits="userSpaceOnUse"><stop offset="0" style="stop-color:#fff"/><stop offset=".272" style="stop-color:#f8fafb"/><stop offset=".652" style="stop-color:#e6ebef"/></linearGradient><path d="M32.03 8.89s1.76-5.1-.27-7.25c-1.4-1.49-10.2-2.78-13.42-.03 4.84.43 2.22 8.09 2.22 8.09l11.47-.81z" style="fill:url(#j)"/><linearGradient id="k" x1="18.328" x2="18.328" y1="49.005" y2="34.514" gradientUnits="userSpaceOnUse"><stop offset=".497" style="stop-color:#cfd8dd"/><stop offset=".643" style="stop-color:#cbd5da"/><stop offset=".773" style="stop-color:#c1cbd0"/><stop offset=".897" style="stop-color:#aebbc1"/><stop offset="1" style="stop-color:#99a8ae"/></linearGradient><path d="M15.63 38.91c-.04-1.09-.09-4.36-.09-4.36s-3.81-.26-3.73.62c.85 10.15 7.78 13.74 11.58 13.83 1.37.04 1.82-2.1 1.19-2.36-4.87-1.98-8.78-2.97-8.95-7.73z" style="fill:url(#k)"/><linearGradient id="l" x1="16.905" x2="16.905" y1="49.035" y2="33.05" gradientUnits="userSpaceOnUse"><stop offset="0" style="stop-color:#99a8ae"/><stop offset=".441" style="stop-color:#97a6ac"/><stop offset=".672" style="stop-color:#909ea4"/><stop offset=".854" style="stop-color:#849196"/><stop offset="1" style="stop-color:#758085"/></linearGradient><path d="M14.4 38.91c-.11-1.09-.09-4.36-.09-4.36l-4.8-1.5.56 7.5c.27 3.63 3.01 6.6 6.74 7.63 1.52.42 2.46.76 6.25.85 1.37.04 1.51-1.92.85-2.13-6.92-2.19-9.13-4.09-9.51-7.99z" style="fill:url(#l)"/><linearGradient id="m" x1="17.458" x2="17.458" y1="37.223" y2="29.335" gradientUnits="userSpaceOnUse"><stop offset="0" style="stop-color:#99a8ae"/><stop offset=".16" style="stop-color:#aebbc1"/><stop offset=".352" style="stop-color:#c1cbd0"/><stop offset=".554" style="stop-color:#cbd5da"/><stop offset=".781" style="stop-color:#cfd8dd"/></linearGradient><path d="m26.92 36.6-.26-2.17c-.17-.98-.93-1.77-1.94-2.03l-11.37-2.87c-.9-.23-1.84-.26-2.76-.09L8 29.88l15.59 7.34 3.33-.62z" style="fill:url(#m)"/><path d="M8 29.88v3.14c-.01.24.15.45.4.51l15.19 3.69-.23-2.02c-.16-.99-.93-1.79-1.96-2.04L8 29.88z" style="fill:#99a8ae"/></svg>