<svg xmlns="http://www.w3.org/2000/svg" xml:space="preserve" style="enable-background:new 0 0 64 64" viewBox="0 0 64 64"><linearGradient id="a" x1="32" x2="32" y1="62" y2="2" gradientUnits="userSpaceOnUse"><stop offset="0" style="stop-color:#302c3b"/><stop offset=".337" style="stop-color:#3c3c49"/><stop offset=".992" style="stop-color:#5b656e"/><stop offset="1" style="stop-color:#5b666e"/></linearGradient><path d="M59 2H5C3.35 2 2 3.35 2 5v55.5c0 .83.67 1.5 1.5 1.5h57c.82 0 1.5-.67 1.5-1.5v-4h-.55v-33H62V5c0-1.65-1.35-3-3-3z" style="fill:url(#a)"/><circle cx="32" cy="32" r="29.53" style="fill:#302c3b"/><path d="M32 2.94C15.95 2.94 2.94 15.95 2.94 32c0 16.05 13.01 29.06 29.06 29.06S61.06 48.05 61.06 32C61.06 15.95 48.05 2.94 32 2.94zm0 32.45c-1.87 0-3.39-1.52-3.39-3.39s1.52-3.39 3.39-3.39 3.39 1.52 3.39 3.39-1.52 3.39-3.39 3.39z" style="fill:#bdccd6"/><path d="M32 3.42C16.22 3.42 3.42 16.22 3.42 32c0 15.78 12.8 28.58 28.58 28.58 15.78 0 28.58-12.8 28.58-28.58 0-15.78-12.8-28.58-28.58-28.58zm0 32.39c-2.1 0-3.81-1.71-3.81-3.81s1.71-3.81 3.81-3.81 3.81 1.71 3.81 3.81-1.71 3.81-3.81 3.81z" style="fill:#e0d7b1"/><linearGradient id="b" x1="1931.495" x2="1989.62" y1="-562.769" y2="-562.769" gradientTransform="rotate(24.998 -335.61 -4458.645) scale(.9667)" gradientUnits="userSpaceOnUse"><stop offset=".3" style="stop-color:#fff;stop-opacity:0"/><stop offset=".5" style="stop-color:#fff"/><stop offset=".7" style="stop-color:#fff;stop-opacity:0"/></linearGradient><path d="M43.87 6.54C29.81-.02 13.1 6.07 6.54 20.13-.02 34.19 6.07 50.9 20.13 57.46c14.06 6.56 30.78.47 37.33-13.59 6.56-14.06.48-30.77-13.59-37.33zM30.42 35.4a3.735 3.735 0 0 1-1.81-4.98c.87-1.87 3.1-2.68 4.98-1.81 1.87.88 2.68 3.11 1.81 4.98a3.759 3.759 0 0 1-4.98 1.81z" style="fill:url(#b)"/><linearGradient id="c" x1="627.189" x2="685.317" y1="-165.631" y2="-165.631" gradientTransform="rotate(150 307.432 -144.747) scale(.9666)" gradientUnits="userSpaceOnUse"><stop offset=".4" style="stop-color:#d44fef;stop-opacity:0"/><stop offset=".5" style="stop-color:#d44fef;stop-opacity:.3"/><stop offset=".6" style="stop-color:#d44fef;stop-opacity:0"/></linearGradient><path d="M46.05 56.33c13.44-7.76 18.04-24.94 10.28-38.38C48.57 4.52 31.39-.09 17.95 7.67 4.52 15.43-.09 32.61 7.67 46.05c7.76 13.43 24.94 18.04 38.38 10.28zM30.13 28.76a3.756 3.756 0 0 1 5.12 1.37c1.03 1.79.42 4.08-1.37 5.12a3.756 3.756 0 0 1-5.12-1.37 3.743 3.743 0 0 1 1.37-5.12z" style="fill:url(#c)"/><linearGradient id="d" x1="1125.76" x2="1183.888" y1="-749.437" y2="-749.437" gradientTransform="rotate(90 195.924 -888.33) scale(.9666)" gradientUnits="userSpaceOnUse"><stop offset=".4" style="stop-color:#ef7630;stop-opacity:0"/><stop offset=".5" style="stop-color:#ef7630;stop-opacity:.3"/><stop offset=".6" style="stop-color:#ef7630;stop-opacity:0"/></linearGradient><path d="M60.09 32C60.09 16.48 47.51 3.91 32 3.9 16.49 3.91 3.91 16.48 3.91 32c0 15.51 12.58 28.09 28.09 28.09C47.52 60.1 60.09 47.52 60.09 32zm-31.84 0c0-2.07 1.68-3.75 3.75-3.75 2.07 0 3.74 1.68 3.75 3.75 0 2.07-1.68 3.75-3.75 3.75-2.07 0-3.75-1.68-3.75-3.75z" style="fill:url(#d)"/><linearGradient id="e" x1="689.335" x2="747.463" y1="-356.987" y2="-356.987" gradientTransform="rotate(135.001 285.113 -293.722) scale(.9666)" gradientUnits="userSpaceOnUse"><stop offset=".4" style="stop-color:#4f94ef;stop-opacity:0"/><stop offset=".5" style="stop-color:#4f94ef;stop-opacity:.3"/><stop offset=".6" style="stop-color:#4f94ef;stop-opacity:0"/></linearGradient><path d="M51.87 51.87c10.97-10.97 10.97-28.76 0-39.73-10.97-10.97-28.76-10.97-39.73 0-10.97 10.97-10.97 28.76 0 39.73 10.97 10.97 28.75 10.97 39.73 0zM29.35 29.35a3.754 3.754 0 0 1 5.3 0 3.754 3.754 0 0 1 0 5.3 3.754 3.754 0 0 1-5.3 0 3.754 3.754 0 0 1 0-5.3z" style="fill:url(#e)"/><linearGradient id="f" x1="796.942" x2="855.07" y1="-523.784" y2="-523.784" gradientTransform="rotate(120 259.818 -458.39) scale(.9666)" gradientUnits="userSpaceOnUse"><stop offset=".4" style="stop-color:#1fff40;stop-opacity:0"/><stop offset=".5" style="stop-color:#1fff40;stop-opacity:.3"/><stop offset=".6" style="stop-color:#1fff40;stop-opacity:0"/></linearGradient><path d="M56.33 46.05c7.76-13.44 3.15-30.62-10.28-38.38C32.61-.09 15.43 4.52 7.67 17.95-.09 31.39 4.52 48.57 17.95 56.33c13.44 7.76 30.62 3.15 38.38-10.28zM28.76 30.13a3.745 3.745 0 0 1 5.12-1.37c1.79 1.03 2.4 3.33 1.37 5.12a3.756 3.756 0 0 1-5.12 1.37c-1.79-1.04-2.41-3.33-1.37-5.12z" style="fill:url(#f)"/><linearGradient id="g" x1="946.224" x2="1004.35" y1="-658.722" y2="-658.722" gradientTransform="rotate(105.001 230.797 -651.762) scale(.9666)" gradientUnits="userSpaceOnUse"><stop offset=".4" style="stop-color:#fffa7d;stop-opacity:0"/><stop offset=".5" style="stop-color:#fffa7d;stop-opacity:.5"/><stop offset=".6" style="stop-color:#fffa7d;stop-opacity:0"/></linearGradient><path d="M59.14 39.27c4.02-14.99-4.88-30.39-19.86-34.41C24.29.85 8.88 9.74 4.86 24.73.85 39.72 9.74 55.12 24.73 59.14c14.99 4.01 30.39-4.88 34.41-19.87zm-30.76-8.24c.53-2 2.59-3.18 4.59-2.65 2 .54 3.18 2.59 2.65 4.59-.54 2-2.59 3.18-4.59 2.65-2-.54-3.18-2.59-2.65-4.59z" style="fill:url(#g)"/><path d="M32 25.22a6.78 6.78 0 1 0 0 13.56c3.75 0 6.78-3.04 6.78-6.78s-3.03-6.78-6.78-6.78zm0 11.38a4.6 4.6 0 1 1 .001-9.201A4.6 4.6 0 0 1 32 36.6z" style="opacity:.5;fill:#fff"/><linearGradient id="h" x1="21.828" x2="42.172" y1="32" y2="32" gradientUnits="userSpaceOnUse"><stop offset="0" style="stop-color:#b2bfc4;stop-opacity:.6"/><stop offset="1" style="stop-color:#586875;stop-opacity:.6"/></linearGradient><path d="M32 21.83c-5.62 0-10.17 4.55-10.17 10.17S26.38 42.17 32 42.17 42.17 37.62 42.17 32 37.62 21.83 32 21.83zm0 17.92a7.75 7.75 0 1 1 0-15.5 7.75 7.75 0 0 1 0 15.5z" style="fill:url(#h)"/><linearGradient id="i" x1="1.649" x2="28.077" y1="1.651" y2="28.078" gradientUnits="userSpaceOnUse"><stop offset="0" style="stop-color:#fff;stop-opacity:.5"/><stop offset="1" style="stop-color:#fff;stop-opacity:0"/></linearGradient><path d="M5.5 2.5c-1.65 0-3 1.35-3 3v51.29L56.78 2.5H5.5z" style="fill:url(#i)"/><linearGradient id="j" x1="40" x2="61.451" y1="40" y2="40" gradientUnits="userSpaceOnUse"><stop offset="0" style="stop-color:#fff;stop-opacity:.5"/><stop offset="1" style="stop-color:#fff;stop-opacity:0"/></linearGradient><path d="M42 23.5c-1.1 0-2 .9-2 2v29c0 1.1.9 2 2 2h19.45v-33H42z" style="fill:url(#j)"/><linearGradient id="k" x1="41" x2="62" y1="32" y2="32" gradientUnits="userSpaceOnUse"><stop offset="0" style="stop-color:#cfd8dd"/><stop offset="1" style="stop-color:#e6ebed"/></linearGradient><path d="M43 23.5c-1.1 0-2 .9-2 2v13c0 1.1.9 2 2 2h19v-17H43z" style="fill:url(#k)"/></svg>