<svg xmlns="http://www.w3.org/2000/svg" xml:space="preserve" style="enable-background:new 0 0 64 64" viewBox="0 0 64 64"><linearGradient id="a" x1="4.521" x2="57.964" y1="6.008" y2="59.451" gradientUnits="userSpaceOnUse"><stop offset="0" style="stop-color:#6d7073"/><stop offset=".86" style="stop-color:#56585b"/><stop offset="1" style="stop-color:#525457"/></linearGradient><path d="m58.855 8.417-3.269-3.272a.495.495 0 0 0-.35-.145h-2.829a.499.499 0 0 0-.352.146L51.2 6h-1L12.201 7.203V5.25a.25.25 0 0 0-.25-.251H5.9A.904.904 0 0 0 5 5.9v52.102c0 .551.447.998.998.998h52.004a.998.998 0 0 0 .998-.998V8.768a.497.497 0 0 0-.145-.35zM56 55.497a.502.502 0 0 1-.502.503h-1.996a.502.502 0 0 1-.502-.502v-1.996c0-.277.225-.502.502-.502h1.996c.277 0 .502.225.502.502v1.996z" style="fill:url(#a)"/><path d="M48.697 31.5H15.303c-.996 0-1.803.807-1.803 1.803V59h37V33.303c0-.996-.807-1.803-1.803-1.803z" style="fill:#393b3d"/><path d="M12.201 6v18.994c0 .556.45 1.006 1.006 1.006h35.987c.556 0 1.007-.45 1.007-1.006v-19.5a.25.25 0 0 0-.25-.25H15.369a.5.5 0 0 0-.302.102l-.733.554a.497.497 0 0 1-.3.1h-1.833z" style="fill:#525457"/><path d="M14 54V33.483c0-.819.664-1.483 1.483-1.483h33.033c.82 0 1.484.664 1.484 1.484V54H14z" style="fill:#fff"/><linearGradient id="b" x1="34" x2="34" y1="25.551" y2="5" gradientUnits="userSpaceOnUse"><stop offset=".941" style="stop-color:#b3b9bd"/><stop offset=".964" style="stop-color:#b5bbbf"/><stop offset=".973" style="stop-color:#bcc1c4"/><stop offset=".979" style="stop-color:#c7cbce"/><stop offset=".984" style="stop-color:#d8dbdc"/><stop offset=".988" style="stop-color:#eee"/><stop offset=".988" style="stop-color:#f0f0f0"/></linearGradient><path d="M19 5.246v19.31c0 .549.446.995.996.995h28.008c.55 0 .996-.446.996-.996V5.246A.246.246 0 0 0 48.754 5H19.246a.246.246 0 0 0-.246.246z" style="fill:url(#b)"/><path d="M42.498 23.275h-6.996a.502.502 0 0 1-.502-.502V7.777c0-.277.225-.502.502-.502h6.996c.277 0 .502.225.502.502v14.996a.502.502 0 0 1-.502.502zM11 55.498v-1.996a.502.502 0 0 0-.502-.502H8.502a.502.502 0 0 0-.502.502v1.996c0 .277.225.502.502.502h1.996a.502.502 0 0 0 .502-.502zm-.9-44.882L8.76 8.258c-.075-.134-.244-.134-.32 0L7.1 10.615h.75v2.316c0 .125.087.226.193.226h1.115c.106 0 .193-.1.193-.226v-2.316h.75z" style="fill:#525457"/><path d="M14 54h36v5H14zm0-3.75h36v.5H14zm0-7.5h36v.5H14zm0 3.75h36v.5H14zm0-11.25h36v.5H14zM14 39h36v.5H14z" style="fill:#ff1c29"/></svg>