<svg xmlns="http://www.w3.org/2000/svg" xml:space="preserve" style="enable-background:new 0 0 64 64" viewBox="0 0 64 64"><linearGradient id="a" x1="46.538" x2="46.538" y1="62" y2="26" gradientUnits="userSpaceOnUse"><stop offset="0" style="stop-color:#0081de"/><stop offset="1" style="stop-color:#00abf1"/></linearGradient><path d="M48.76 39.5 59 29.129 55.909 26l-9.37 9.494L37.163 26l-3.087 3.129L44.315 39.5h-4.634V44h4.592v4.5H39.68V53h4.592v9h4.531v-9h4.586v-4.5h-4.586V44h4.586v-4.5h-4.586z" style="fill:url(#a)"/><linearGradient id="b" x1="15.385" x2="15.385" y1="38" y2="2" gradientUnits="userSpaceOnUse"><stop offset="0" style="stop-color:#0081de"/><stop offset="1" style="stop-color:#00abf1"/></linearGradient><path d="M19.313 18.4a67.843 67.843 0 0 0-2.308-.989v-6.85c1.543.573 2.625 1.917 2.73 3.467h6.034c0-4.487-3.802-8.207-8.763-8.9V2h-3.245v3.108C8.835 5.722 5 9.156 5 13.664c0 3.646 2.619 6.235 5.379 7.571 1.079.54 2.25 1.004 3.382 1.452v6.775c-1.553-.558-2.655-1.91-2.729-3.45H5c0 4.471 3.835 8.2 8.761 8.87V38h3.245v-3.116c4.961-.635 8.763-4.053 8.763-8.467 0-4.089-3.32-6.518-6.456-8.017zm-7.953-5.1c0-1.533.917-2.486 2.4-2.859v5.518c-1.415-.753-2.4-1.583-2.4-2.658zm5.646 16.203v-5.417c1.399.73 2.355 1.558 2.355 2.696-.001 1.288-.926 2.287-2.355 2.72z" style="fill:url(#b)"/><linearGradient id="c" x1="-69.906" x2="-69.906" y1="11.685" y2="31.684" gradientTransform="matrix(1 0 0 -1 94 70)" gradientUnits="userSpaceOnUse"><stop offset="0" style="stop-color:#00a661"/><stop offset=".19" style="stop-color:#00b970"/><stop offset=".465" style="stop-color:#00cd80"/><stop offset=".737" style="stop-color:#00da8a"/><stop offset="1" style="stop-color:#00de8d"/></linearGradient><path d="M25.302 45.535c-3.2-.31-7.621-3.47-7.621-3.47l-5.058 3.869c2.995 2.884 8.56 5.433 12.679 6.274v6.107l10.264-9.855-10.264-10.144v7.22z" style="fill:url(#c)"/><linearGradient id="d" x1="-51.266" x2="-51.266" y1="45.775" y2="65.774" gradientTransform="matrix(1 0 0 -1 94 70)" gradientUnits="userSpaceOnUse"><stop offset="0" style="stop-color:#00a661"/><stop offset=".19" style="stop-color:#00b970"/><stop offset=".465" style="stop-color:#00cd80"/><stop offset=".737" style="stop-color:#00da8a"/><stop offset="1" style="stop-color:#00de8d"/></linearGradient><path d="M42.539 17.358c1.565.569 4.851 2.934 6.058 4.096l4.882-5.073c-2.728-2.628-7.203-4.642-10.94-5.412V4.226l-10.55 10.467 10.55 9.532v-6.867z" style="fill:url(#d)"/></svg>