<svg xmlns="http://www.w3.org/2000/svg" xml:space="preserve" viewBox="0 0 64 64"><linearGradient id="a" x1="32" x2="32" y1="2" y2="62" gradientUnits="userSpaceOnUse"><stop offset="0" style="stop-color:#47de00"/><stop offset=".281" style="stop-color:#45da00"/><stop offset=".573" style="stop-color:#41cd00"/><stop offset=".868" style="stop-color:#39b900"/><stop offset="1" style="stop-color:#35ad00"/></linearGradient><path fill="url(#a)" d="M62 54c0 4.4-3.6 8-8 8H10c-4.4 0-8-3.6-8-8V10c0-4.4 3.6-8 8-8h44c4.4 0 8 3.6 8 8v44z"/><path fill="#FFF" d="M29.119 18.813 38 10h-6.104l-4.925 4.887L22.078 10H16v.004l8.816 8.805v.009h-4.515v4.297h4.515v4.295h-4.515v4.295h4.515V36h4.303v-4.295h4.6V27.41h-4.6v-4.295h4.6v-4.297h-4.6zm15.932 13.98-4.256-2.895-6.777 11.863-4.977-2.756-4.082 7.672-4.476-3.209L14 52.23A26.456 26.456 0 0 0 18.27 54l3.236-4.373 5.07 3.637 4.359-8.199 4.856 2.689 6.555-11.475 3.977 2.707L52 30.48A22.939 22.939 0 0 0 50.92 24l-5.869 8.793z"/></svg>