<svg xmlns="http://www.w3.org/2000/svg" xml:space="preserve" viewBox="0 0 64 64"><path fill="#E6EBEF" d="M2 14h60v32H2z"/><path fill="#9085B9" d="M37.774 16.989 39.589 14H56.27l1.592 2.506z"/><path fill="#6964AA" d="M50.163 18.439 52.313 14h-4.581z"/><path fill="#9085B9" d="M39.633 46h16.681l-1.752-4.438-13.543.307z"/><path fill="#6964AA" d="M45.12 40.594 47.421 46h4.892l2.63-5.258z"/><path fill="#C0C4E5" d="M17.818 15.575h42.08v28.983h-42.08z"/><path fill="#68618A" d="M58.615 18.496H37.774v21.682h9.958v-5.929h10.883z"/><path fill="#9EA2CD" d="M42.065 31.461h16.55v12.168h-16.55z"/><circle cx="6.314" cy="41.947" r="2.434" fill="#7F848F"/><circle cx="6.314" cy="41.947" r="2.184" fill="#A5ACB9"/><path fill="#FFE12C" d="M16.229 29.002h.554v1.991h-.554zm.142-.568h.412s-.277-1.937 1.035-2.229c-1.589 0-1.447 2.229-1.447 2.229zm.412 2.559h1.97v.642h-1.97z"/><path fill="#49334F" d="M6.087 18.362h-.792c.002.095.002.164.002.209 0 .192-.014.371-.041.535a3.747 3.747 0 0 1-.148.564c.4.129.631.2.688.212.106.024.211.037.313.037a.68.68 0 0 0 .415-.118.68.68 0 0 0 .232-.373l.111.027c-.043.33-.149.579-.318.749a.773.773 0 0 1-.564.256.905.905 0 0 1-.378-.075c-.112-.05-.32-.188-.623-.416a1.18 1.18 0 0 1-.266.369.459.459 0 0 1-.305.122c-.103 0-.188-.035-.257-.105s-.103-.167-.103-.29c0-.138.047-.252.142-.343a.499.499 0 0 1 .361-.137c.035 0 .074.002.117.006.043.005.092.011.145.019l.008-.138.002-.099c0-.18-.021-.517-.064-1.011h-.597v-.291h.597a8.82 8.82 0 0 1-.041-.611c0-.25.051-.479.15-.686.102-.206.24-.364.416-.474.178-.11.367-.165.57-.165.258 0 .452.07.582.209.13.14.195.278.195.418a.244.244 0 0 1-.075.175.223.223 0 0 1-.165.077c-.077 0-.143-.039-.193-.117a.656.656 0 0 1-.046-.237c-.008-.122-.043-.212-.104-.27a.385.385 0 0 0-.268-.086c-.161 0-.295.063-.4.19s-.158.351-.158.67c0 .149.013.341.037.574l.031.332h.792v.292zm-1.306 1.496c-.045-.028-.089-.05-.132-.064s-.086-.021-.129-.021a.297.297 0 0 0-.216.075.26.26 0 0 0-.076.195c0 .073.02.132.061.175a.182.182 0 0 0 .139.064c.068 0 .135-.031.199-.095s.115-.173.154-.329zm5.114-.273-.291.802H7.146v-.113c.723-.659 1.231-1.198 1.526-1.616.295-.417.442-.799.442-1.146a.906.906 0 0 0-.242-.65.775.775 0 0 0-.581-.256.916.916 0 0 0-.552.18c-.162.12-.283.296-.36.527h-.113c.052-.379.184-.67.395-.872.213-.203.477-.305.795-.305.338 0 .619.108.846.326.227.217.34.473.34.768 0 .211-.049.422-.148.633-.15.331-.396.683-.736 1.054-.51.557-.828.893-.955 1.007H8.89c.222 0 .376-.008.466-.024a.61.61 0 0 0 .428-.314h.111zm.488-1.256c0-.476.072-.884.216-1.228.144-.343.333-.598.571-.766a.958.958 0 0 1 .571-.2c.319 0 .606.163.86.488.316.403.476.95.476 1.641 0 .483-.069.894-.209 1.231s-.317.583-.532.735c-.217.152-.425.229-.625.229-.398 0-.729-.234-.992-.703-.224-.394-.336-.87-.336-1.427zm.602.076c0 .574.071 1.042.212 1.404.117.305.291.457.522.457.11 0 .226-.049.344-.148s.209-.266.271-.499c.094-.353.141-.849.141-1.49 0-.475-.049-.871-.146-1.188-.074-.235-.17-.402-.286-.5a.482.482 0 0 0-.676.086c-.147.17-.247.437-.301.802a7.319 7.319 0 0 0-.081 1.076z"/><linearGradient id="a" x1="47.352" x2="47.352" y1="42.338" y2="22.087" gradientUnits="userSpaceOnUse"><stop offset="0" style="stop-color:#9ea2cd"/><stop offset=".133" style="stop-color:#aeb1da"/><stop offset=".309" style="stop-color:#bbbee5"/><stop offset=".537" style="stop-color:#c3c5eb"/><stop offset="1" style="stop-color:#c5c7ed"/></linearGradient><path fill="url(#a)" d="m42.271 42.338 12.438-.027s-3.382-2.418-3.541-3.521c-.221-1.526-.781-3.573-.073-4.063 3.937-3.781-.938-12.375-4.688-12.625s-7.548 2.719-6.094 7.641c.113 3.598 1.984 7.219 3.303 7.684 0 0 .321 1.06.572 2.389.06.318-1.964 2.183-1.917 2.522z"/><path fill="#9EA2CD" d="M53.881 28.16c-.051-.154-.321-.642-.391-.66.104-.649 1.145-.969 1.066-1.637-.762.07-.86-.616-.44-1.207.102-.145.432-.786.004-.769-.344.014-.475.567-.718.546-.06-.375-.357-1.056-.119-1.379.266-.356.599-1.563-.226-.935.026-.02-.909.995-.824.499.14-.826-.005-.477-.478-.461-.403.014-.118-1.102-.055-1.267.386-1.014-.442-.913-.788-.118-.283.653-.887.585-.667-.166.229-.791-.747.037-.957.383-.022-.202-.197-.21-.275-.444-.111-.349-.041-.951.088-1.279.22-.576-.33-1.222-.891-.692-.022.021-.361 1.02-.374 1.093-.032.199-.11.442-.374.41-.31-.036-.046-.408-.146-.612-.431-.889-.707.459-.903.435-.861-.12-.119-1.504-.551-1.86-.93-.765-.702 1.072-.811 1.335-.305.746-1.423-.249-1.384.548-.522-.146-.061-.769-.411-1.025-.448-.332-.674.292-.67.609.009.253.015.505.022.757.134.402.006.566-.383.493-.079.036-.481.773-.511.18-.021-.436-.676-.117-.696.196-.025.38.292.624.242 1.032-.135 1.125 7.157-1.37 12.725 7.249.616-.454.081-.686-.104-1.254-.024-.071-.012-.032 0 0z"/><path fill="#4F4A69" d="M53.969 28.818c-.363-1.471-1.154-1.373-.999-2.73.187-1.631-2.103-1.609-2.476-2.672-.569-1.623-1.94-1.448-2.902-2.147-1.6-1.16-3.405.2-4.608-.009-1.888-.331-1.245.858-2.972 1.63-1.764.789-.296 2.772-1.38 4.695-1.215 2.157.545 2.137 1.555 3.073.297 4.401 1.72 5.025 1.993 5.629.479 1.052 1.286 1.248 1.369 1.312.078.058.713 3.113.803 3.208 0 0 1.245.015 1.531 0-1.245-1.063-1.428-2.893-1.356-2.891.615.018 2.207-.571 2.726-1.115-1.391.493-1.709.284-3.338.576-.422.074-.873-.381-1.022-.79-.157-.424-.079-.95.362-1.158-.156-.138-.877-.218-.792-.436.126.031.936.122 1.46-.332-1.059.103-1.328-.252-.524-.346.231-.027 2.397.054 2.673-.486-.794.366-2.028-.149-2.795.048-.301.077-.463-.128-.461-.221.027-1.094.378-.922 1.014-1.223.399-.189.547.161.623.031.136-.236-.265-.302-.406-.302-.487 0-.856.488-1.373.23-.473-.237-.345-.773-.164-1.182.18-.408.688-2.462.6-2.671-.459-1.076-1.968-1.199-2.417-.978-.31-2.148.941-3.199 2.807-2.931 1.328.191 2.951-.746 3.982.423 1.87 2.116 1.893 3.261 2.348 5.47.207.996 1.588 1.008 1.587 1.28-.001.455.121 2.432-1.174 2.035-.515-.158-.397.258-.28.52.629 1.407 2.781 1.31 2.984-.629.191-1.834 1.658-2.333 1.022-4.911zM40.86 32.497c-.124-.506-.219-1.021-.219-1.563 0-.532.215-.915.383-1.398.159.067.34.122.398.044 0 0-.365-.123-.341-.375.085-.033.374-.097.374-.097-.188.564.902.733.904.081 0 0 .222.108.314.211-.13 1.164-1.698 3.562-1.813 3.097zm1.87-3.358c-.001.004-.677-.829-2.009-.318a.496.496 0 0 1 .012-.421c.812-.278 2.179-.008 1.997.739z"/><path fill="#4F4A69" d="M44.571 27.744c-.402.136-.047.686.263.569 2.133-.801 3.163-.181 3.082-.393-.1-.261-1.197-.903-3.345-.176zm.057 1.604c-.214.286.602.593.9.441-.385-.131-.599-.552.064-.623.106.651 1.205.556 1.297-.049.258-.027.843.321.843.321-.354-.995-2.2-1.291-3.104-.09z"/><path fill="#CFD8DD" d="M59 50H5l-3-4h60z"/><path fill="#99A8AE" d="m2.99 47.32.328.44 57.045-.219zm-.701-.935.332.443 58.742-.221zm56.074 3.019-53.97-.215.32.426zm-54.674-1.15.327.434 55.347-.217z"/><path fill="#BEC3CF" d="M38.5 50h-13l-.5-4h14z"/><path fill="#4C841A" d="M26.5 50h-2l-.5-4h2zm13 0h-2l.5-4h2z"/><path fill="#E6EBEF" d="M25 14h14v32H25z"/><path fill="#92C932" d="M38 14h2v32h-2zm-14 0h2v32h-2z"/><path fill="#7E32BF" d="M32 32.283a3.24 3.24 0 0 0-.096-.797h2.319v-1.879H30.97c-.044-.059-.075-.113-.121-.176a18.477 18.477 0 0 0-.328-.438c-.462-.602-.745-.996-.745-1.486 0-1.197.997-2.172 2.224-2.172s2.224.975 2.224 2.172H36c0-2.156-1.795-3.908-4-3.908-2.206 0-4 1.752-4 3.908 0 .863.379 1.537.779 2.1H28v1.879h2.029c.189.412.193.639.193.797 0 1.434-1.429 2.355-2.223 2.381V36.4h8v-1.736h-4.823A3.857 3.857 0 0 0 32 32.283z"/><path fill="#68618A" d="M57.264 39.925c-.389-.501-.952-.604-1.419-.269-.218.154-.391.385-.516.685-.12.286-.182.63-.182 1.021 0 .251.034.48.09.695H54.8l-.072.125a.255.255 0 0 1-.066.08.213.213 0 0 1-.082.035c-.059.01-.161.015-.308.015h-.229c.092-.098.196-.211.314-.34.276-.302.472-.582.597-.855.089-.189.134-.386.134-.583 0-.291-.111-.546-.332-.758-.426-.408-1.159-.422-1.579-.017-.201.19-.327.461-.374.803l-.038.284h.552l.058-.17a.539.539 0 0 1 .182-.274c.163-.12.376-.129.523.026a.44.44 0 0 1 .114.318c0 .206-.097.448-.287.718-.212.299-.587.694-1.114 1.176l-.081.074v.446h2.274l.329-.903c.038.102.065.211.117.303.307.542.694.656.965.656.203 0 .409-.073.614-.219.202-.142.366-.365.487-.662.117-.281.177-.626.177-1.022 0-.575-.139-1.042-.411-1.388zm-.641 2.344c-.042.162-.094.225-.121.248-.063.052-.095.054-.099.054-.022 0-.09 0-.16-.186-.095-.243-.143-.568-.143-.966 0-.251.02-.512.058-.775.041-.281.114-.413.169-.477.047-.054.077-.054.09-.054.041 0 .061.011.068.018.028.023.084.089.137.259.066.215.1.491.1.821 0 .46-.034.815-.099 1.058z"/><path fill="#4F4A69" d="M53.356 21.535h-3.611v-.508l.082-.074c.92-.839 1.574-1.53 1.943-2.054.351-.497.528-.948.528-1.342 0-.278-.081-.498-.246-.673-.314-.332-.793-.32-1.138-.068-.171.125-.295.309-.38.563l-.058.17h-.611l.037-.283c.073-.547.271-.978.587-1.279.321-.307.726-.463 1.202-.463.503 0 .93.165 1.27.491.344.329.518.725.518 1.176 0 .311-.072.622-.215.927-.205.45-.541.931-.997 1.429-.345.376-.617.67-.824.888h.811c.334 0 .489-.015.561-.027a.541.541 0 0 0 .211-.088.63.63 0 0 0 .172-.198l.072-.124h.648l-.562 1.537zm2.558.096c-.61 0-1.116-.35-1.505-1.039-.31-.549-.466-1.213-.466-1.975 0-.646.101-1.214.298-1.688.204-.488.482-.858.827-1.102.727-.526 1.584-.362 2.197.425.445.564.671 1.332.671 2.28 0 .656-.098 1.226-.29 1.692-.198.48-.46.838-.777 1.063-.321.229-.642.344-.955.344zm.035-5.345c-.067 0-.171.017-.293.157-.158.182-.27.488-.332.911a9.54 9.54 0 0 0-.101 1.361c0 .709.087 1.291.258 1.729.167.435.368.435.444.435.082 0 .179-.046.286-.135.11-.094.204-.273.27-.52.115-.433.174-1.061.174-1.868 0-.588-.061-1.082-.18-1.467-.079-.253-.18-.438-.293-.532a.366.366 0 0 0-.233-.071z"/><path fill="#C0C4E5" d="m53.561 20.246-.379 1.039h-3.187v-.147c.938-.854 1.598-1.553 1.979-2.095.383-.542.574-1.037.574-1.485 0-.343-.105-.624-.315-.845a.998.998 0 0 0-.752-.33c-.266 0-.504.077-.715.232-.212.155-.367.383-.469.684h-.146c.065-.491.236-.869.512-1.132.274-.263.617-.394 1.029-.394.438 0 .804.141 1.097.422.294.281.44.613.44.995 0 .274-.063.548-.191.821-.196.43-.515.885-.955 1.365-.662.723-1.074 1.158-1.239 1.307h1.41c.287 0 .487-.011.604-.031a.775.775 0 0 0 .556-.406h.147zm.632-1.629c0-.616.093-1.146.278-1.592.187-.444.433-.775.741-.993.239-.173.485-.259.74-.259.415 0 .786.211 1.115.633.412.523.618 1.232.618 2.127 0 .627-.091 1.159-.271 1.597-.181.438-.411.757-.69.954-.28.198-.551.297-.811.297-.516 0-.944-.304-1.287-.912-.288-.513-.433-1.13-.433-1.852zm.781.099c0 .744.092 1.351.275 1.82.151.396.377.594.677.594.144 0 .292-.064.446-.193.153-.129.271-.345.351-.647.122-.456.183-1.101.183-1.932 0-.615-.063-1.129-.191-1.541-.095-.306-.219-.521-.37-.649a.61.61 0 0 0-.395-.131c-.181 0-.341.081-.481.243-.191.22-.321.566-.391 1.039s-.104.938-.104 1.397zm.056 23.591-.22.604h-1.85v-.086c.544-.496.927-.901 1.149-1.216.222-.314.333-.602.333-.862a.687.687 0 0 0-.183-.49.583.583 0 0 0-.438-.191.685.685 0 0 0-.415.135.791.791 0 0 0-.271.396h-.086c.039-.285.138-.504.298-.656a.831.831 0 0 1 .598-.229c.254 0 .466.081.637.245.17.163.255.355.255.577 0 .159-.036.318-.11.477a3.13 3.13 0 0 1-.555.793 16.82 16.82 0 0 1-.72.759h.818c.167 0 .283-.007.351-.019a.48.48 0 0 0 .182-.075.498.498 0 0 0 .141-.161h.086zm.367-.946c0-.357.054-.666.162-.924.107-.258.251-.45.43-.577a.726.726 0 0 1 .431-.149c.24 0 .456.122.646.367.239.304.358.715.358 1.234 0 .364-.052.673-.157.927-.104.255-.238.439-.4.554a.821.821 0 0 1-.471.173c-.299 0-.548-.177-.747-.529-.168-.298-.252-.657-.252-1.076zm.454.058c0 .432.054.784.16 1.057.087.229.219.345.393.345.083 0 .17-.038.259-.112.09-.075.157-.2.203-.376.071-.265.106-.639.106-1.121 0-.357-.037-.656-.11-.895-.056-.178-.127-.303-.215-.377a.362.362 0 0 0-.508.065c-.111.128-.187.329-.227.604s-.061.543-.061.81z"/><path fill="#68618A" d="M15.142 28.717v.465h.729v1.991h.554v-2.456zm1.283 2.456h1.97v.642h-1.97z"/><path fill="#FFE12C" d="M16.283 17.762c0 .667-1 .667-1 0s1-.667 1 0zm-1.141 2.698c0 .667-1 .667-1 0s1-.667 1 0zm2.283 1.325c0 .667-1 .667-1 0s1-.667 1 0zm-2.283 2.962c0 .667-1 .667-1 0s1-.667 1 0zm5.22 1.958c0 .667-1 .667-1 0s1-.667 1 0zm1.532-4.75c0 .667-1 .667-1 0s1-.667 1 0zm-2.032-2.344c0 .667-1 .667-1 0s1-.667 1 0zm2.032-2.75c0 .667-1 .667-1 0s1-.667 1 0zm-8.567 14.632c0 .667-1 .667-1 0s1-.667 1 0zm2.456 3.333c0 .667-1 .667-1 0s1-.667 1 0zm1.5 3.625c0 .667-1 .667-1 0s1-.667 1 0zm-2.5 1.312c0 .667-1 .667-1 0s1-.667 1 0zm-2.053 1.576c0 .667-1 .667-1 0s1-.667 1 0zm3.695 1.877c0 .667-1 .667-1 0s1-.667 1 0zm-3.195.915c0 .667-1 .667-1 0s1-.667 1 0z"/></svg>