<svg xmlns="http://www.w3.org/2000/svg" xml:space="preserve" style="enable-background:new 0 0 64 64" viewBox="0 0 64 64"><path d="M32 2C15.43 2 2 15.43 2 32s13.43 30 30 30 30-13.43 30-30S48.57 2 32 2zm0 33.5c-1.93 0-3.5-1.57-3.5-3.5s1.57-3.5 3.5-3.5 3.5 1.57 3.5 3.5-1.57 3.5-3.5 3.5z" style="fill:#bdccd6"/><path d="M32 2.5C15.71 2.5 2.5 15.71 2.5 32S15.71 61.5 32 61.5 61.5 48.29 61.5 32 48.29 2.5 32 2.5zm0 33.43a3.93 3.93 0 1 1 .001-7.861A3.93 3.93 0 0 1 32 35.93z" style="fill:#d3d9e0"/><linearGradient id="a" x1="1930.557" x2="1990.557" y1="-562.769" y2="-562.769" gradientTransform="rotate(24.998 -335.61 -4458.645) scale(.9667)" gradientUnits="userSpaceOnUse"><stop offset=".3" style="stop-color:#fff;stop-opacity:0"/><stop offset=".5" style="stop-color:#fff"/><stop offset=".7" style="stop-color:#fff;stop-opacity:0"/></linearGradient><path d="M44.26 5.72C29.74-1.05 12.49 5.23 5.72 19.74c-6.77 14.52-.49 31.77 14.03 38.54s31.77.49 38.54-14.03c6.76-14.51.48-31.76-14.03-38.53zM30.37 35.51c-1.94-.9-2.77-3.2-1.87-5.14.9-1.93 3.2-2.77 5.14-1.87 1.93.9 2.77 3.21 1.87 5.14-.91 1.93-3.21 2.77-5.14 1.87z" style="fill:url(#a)"/><linearGradient id="b" x1="626.251" x2="686.255" y1="-165.631" y2="-165.631" gradientTransform="rotate(150 307.432 -144.747) scale(.9666)" gradientUnits="userSpaceOnUse"><stop offset=".4" style="stop-color:#d44fef;stop-opacity:0"/><stop offset=".5" style="stop-color:#d44fef;stop-opacity:.3"/><stop offset=".6" style="stop-color:#d44fef;stop-opacity:0"/></linearGradient><path d="M46.5 57.12c13.87-8.01 18.62-25.74 10.62-39.61C49.11 3.63 31.37-1.12 17.5 6.89 3.63 14.89-1.12 32.63 6.89 46.5c8 13.87 25.74 18.62 39.61 10.62zM30.07 28.65a3.864 3.864 0 0 1 5.28 1.42c1.07 1.85.43 4.21-1.42 5.28a3.861 3.861 0 0 1-5.28-1.42 3.864 3.864 0 0 1 1.42-5.28z" style="fill:url(#b)"/><linearGradient id="c" x1="1124.822" x2="1184.826" y1="-749.437" y2="-749.437" gradientTransform="rotate(90 195.924 -888.33) scale(.9666)" gradientUnits="userSpaceOnUse"><stop offset=".4" style="stop-color:#ef7630;stop-opacity:0"/><stop offset=".5" style="stop-color:#ef7630;stop-opacity:.3"/><stop offset=".6" style="stop-color:#ef7630;stop-opacity:0"/></linearGradient><path d="M61 32C61 15.98 48.02 3 32 3 15.99 3 3 15.98 3 32s12.98 29 29 29 29-12.98 29-29zm-32.87 0c0-2.14 1.73-3.87 3.87-3.87 2.13 0 3.87 1.73 3.87 3.87s-1.73 3.87-3.87 3.87c-2.13 0-3.87-1.73-3.87-3.87z" style="fill:url(#c)"/><linearGradient id="d" x1="688.398" x2="748.4" y1="-356.988" y2="-356.988" gradientTransform="rotate(135.001 285.113 -293.722) scale(.9666)" gradientUnits="userSpaceOnUse"><stop offset=".4" style="stop-color:#4f94ef;stop-opacity:0"/><stop offset=".5" style="stop-color:#4f94ef;stop-opacity:.3"/><stop offset=".6" style="stop-color:#4f94ef;stop-opacity:0"/></linearGradient><path d="M52.51 52.51c11.33-11.33 11.33-29.69 0-41.01C41.18.18 22.82.18 11.5 11.5.18 22.83.18 41.19 11.5 52.51c11.32 11.32 29.68 11.32 41.01 0zM29.27 29.27a3.869 3.869 0 0 1 5.47 5.47 3.869 3.869 0 0 1-5.47-5.47z" style="fill:url(#d)"/><linearGradient id="e" x1="796.004" x2="856.007" y1="-523.784" y2="-523.784" gradientTransform="rotate(120 259.818 -458.39) scale(.9666)" gradientUnits="userSpaceOnUse"><stop offset=".4" style="stop-color:#1fff40;stop-opacity:0"/><stop offset=".5" style="stop-color:#1fff40;stop-opacity:.3"/><stop offset=".6" style="stop-color:#1fff40;stop-opacity:0"/></linearGradient><path d="M57.11 46.5c8.01-13.87 3.26-31.61-10.61-39.62-13.87-8-31.6-3.25-39.61 10.62-8.01 13.87-3.26 31.61 10.61 39.61 13.87 8.01 31.61 3.26 39.61-10.61zM28.65 30.07a3.873 3.873 0 0 1 5.28-1.42 3.873 3.873 0 0 1 1.42 5.28 3.863 3.863 0 0 1-5.28 1.41 3.85 3.85 0 0 1-1.42-5.27z" style="fill:url(#e)"/><linearGradient id="f" x1="945.286" x2="1005.287" y1="-658.722" y2="-658.722" gradientTransform="rotate(105.001 230.797 -651.762) scale(.9666)" gradientUnits="userSpaceOnUse"><stop offset=".4" style="stop-color:#fffa7d;stop-opacity:0"/><stop offset=".5" style="stop-color:#fffa7d;stop-opacity:.5"/><stop offset=".6" style="stop-color:#fffa7d;stop-opacity:0"/></linearGradient><path d="M60.01 39.51c4.15-15.47-5.03-31.37-20.5-35.52C24.04-.16 8.14 9.02 3.99 24.49-.16 39.96 9.03 55.87 24.5 60.01c15.46 4.15 31.37-5.03 35.51-20.5zM28.27 31a3.874 3.874 0 0 1 4.74-2.74A3.86 3.86 0 0 1 35.74 33 3.865 3.865 0 0 1 31 35.73 3.855 3.855 0 0 1 28.27 31z" style="fill:url(#f)"/><path d="M32 25c-3.87 0-7 3.13-7 7s3.13 7 7 7 7-3.13 7-7-3.13-7-7-7zm0 11.75c-2.62 0-4.75-2.13-4.75-4.75s2.13-4.75 4.75-4.75 4.75 2.13 4.75 4.75-2.13 4.75-4.75 4.75z" style="opacity:.5;fill:#fff"/><linearGradient id="g" x1="21.5" x2="42.5" y1="32" y2="32" gradientUnits="userSpaceOnUse"><stop offset="0" style="stop-color:#b2bfc4;stop-opacity:.6"/><stop offset="1" style="stop-color:#586875;stop-opacity:.6"/></linearGradient><path d="M32 21.5c-5.8 0-10.5 4.7-10.5 10.5S26.2 42.5 32 42.5 42.5 37.8 42.5 32 37.8 21.5 32 21.5zM32 40c-4.42 0-8-3.58-8-8s3.58-8 8-8 8 3.58 8 8-3.58 8-8 8z" style="fill:url(#g)"/></svg>