<svg xmlns="http://www.w3.org/2000/svg" xml:space="preserve" style="enable-background:new 0 0 64 64" viewBox="0 0 64 64"><path d="M2 2h60v60H2z" style="fill:#e6ebef"/><path d="M55.89 2h.5v60h-.5zm-5.37 0h.5v60h-.5zm-5.36 0h.5v60h-.5zm-5.37 0h.5v60h-.5zm-5.36 0h.5v60h-.5zm-5.36 0h.5v60h-.5zM23.7 2h.5v60h-.5zm-5.36 0h.5v60h-.5zm-5.36 0h.5v60h-.5zM7.61 2h.5v60h-.5z" style="fill:#cfd8dd"/><path d="M2 7.61h60v.5H2zm0 5.37h60v.5H2zm0 5.36h60v.5H2zm0 5.37h60v.5H2zm0 5.36h60v.5H2zm0 5.36h60v.5H2zm0 5.36h60v.5H2zm0 5.37h60v.5H2zm0 5.36h60v.5H2zm0 5.37h60v.5H2z" style="fill:#cfd8dd"/><linearGradient id="a" x1="31.903" x2="31.903" y1="61.5" y2="2.5" gradientUnits="userSpaceOnUse"><stop offset="0" style="stop-color:#009af7"/><stop offset="1" style="stop-color:#4ecee6"/></linearGradient><path d="M59.6 61.5h1.9v-2.44L47.12 40.62l-9.07 6.62-12.48-27.11-13.4 9.44L4.07 2.5H2.5l-.19 4.58 8.18 27.35 13.86-9.77 12.51 27.17 9.68-7.08z" style="fill:url(#a)"/><path d="M61 2h1v60h-1zM2 2h1v60H2z" style="fill:#cfd8dd"/><path d="M2 2h60v1H2zm0 59h60v1H2z" style="fill:#cfd8dd"/></svg>