<svg xmlns="http://www.w3.org/2000/svg" xml:space="preserve" viewBox="0 0 64 64"><linearGradient id="a" x1="-325.5" x2="-325.5" y1="55" y2="8.001" gradientTransform="matrix(-1 0 0 1 -296 0)" gradientUnits="userSpaceOnUse"><stop offset=".75" style="stop-color:#e4bb5e"/><stop offset="1" style="stop-color:#ffd699"/></linearGradient><path fill="url(#a)" d="m2 55 55-4V13.617c0-.379-.215-.725-.553-.895l-1.148-.574a.992.992 0 0 1-.447-.447l-.576-1.148a.997.997 0 0 0-.893-.553H19.617c-.379 0-.725-.215-.895-.553l-.447-.895A.996.996 0 0 0 17.381 8H5.617a.998.998 0 0 0-.894.553l-.575 1.148c-.098.193-.254.35-.447.447l-1.148.574a1 1 0 0 0-.553.895V55z"/><linearGradient id="b" x1="32.001" x2="32.001" y1="56" y2="17" gradientUnits="userSpaceOnUse"><stop offset="0" style="stop-color:#ffd699"/><stop offset="1" style="stop-color:#ffe7ba"/></linearGradient><path fill="url(#b)" d="M56 56H3a1 1 0 0 1-1-1s0-17.527 5-34c0 0 1.43-.074 1.855-.337.344-.213.867-1.11.867-1.11a1 1 0 0 1 .895-.553h11.764a1 1 0 0 0 .895-.553l.447-.895a1 1 0 0 1 .895-.553h33.766c.379 0 .725.213.893.553l.449.895a.996.996 0 0 0 .891.553H62c-5 17.5-5 36-5 36a1 1 0 0 1-1 1z"/></svg>