<svg xmlns="http://www.w3.org/2000/svg" xml:space="preserve" viewBox="0 0 64 64"><linearGradient id="a" x1="-306.831" x2="-306.831" y1="60.999" y2="2" gradientTransform="matrix(-1 0 0 1 -277.331 0)" gradientUnits="userSpaceOnUse"><stop offset="0" style="stop-color:#b9c2c7"/><stop offset=".241" style="stop-color:#d2d9dc"/><stop offset=".412" style="stop-color:#e6ebed"/></linearGradient><path fill="url(#a)" d="M3.799 56.719 57 60.999V2H2v50.688c0 2.554.745 3.831 1.799 4.031z"/><path fill="#99A8AE" d="M7 9h12v1H7zm0 4h45v1H7zm0 4h45v1H7zm0 4h45v1H7zm0 4h28v1H7zm0 4h45v1H7zm0 4h45v1H7zm0 3.999h45v1H7zm0 4h16v1H7zm0 4h45v1H7zm0 4h45v1H7zm0 4h45v1H7z"/><linearGradient id="b" x1="-310.231" x2="-310.231" y1="43.5" y2="18.399" gradientTransform="matrix(-1 -.0875 0 1 -277.331 -11.466)" gradientUnits="userSpaceOnUse"><stop offset="0" style="stop-color:#b3bbbf"/><stop offset=".211" style="stop-color:#dbdfe1"/><stop offset=".387" style="stop-color:#f5f6f7"/><stop offset=".491" style="stop-color:#fff"/></linearGradient><path fill="url(#b)" d="M8.492 41.999 62 52.471c-.244 5.51-1.158 9.807-4.615 9.516-18.43-1.555-53.586-5.268-53.586-5.268 4.849-.531 4.693-6.622 4.693-14.72z"/></svg>