<svg xmlns="http://www.w3.org/2000/svg" xml:space="preserve" viewBox="0 0 64 64"><linearGradient id="a" x1="417.278" x2="419.899" y1="-197.637" y2="-197.637" gradientTransform="rotate(45 55.065 -878.448) scale(1.6306 1)" gradientUnits="userSpaceOnUse"><stop offset="0" style="stop-color:#b3c2c6"/><stop offset=".136" style="stop-color:#aebdc1"/><stop offset=".305" style="stop-color:#a0adb2"/><stop offset=".491" style="stop-color:#889499"/><stop offset=".636" style="stop-color:#717b80"/><stop offset=".713" style="stop-color:#768186"/><stop offset=".813" style="stop-color:#869196"/><stop offset=".925" style="stop-color:#9facb0"/><stop offset="1" style="stop-color:#b3c2c6"/></linearGradient><path fill="url(#a)" d="M27.2 33.787 11.219 49.77 6 58l8.24-5.207 15.981-15.982z"/><linearGradient id="b" x1="119.987" x2="133.226" y1="-225.767" y2="-225.767" gradientTransform="rotate(45.001 -219 -205.622)" gradientUnits="userSpaceOnUse"><stop offset="0" style="stop-color:#ff2121"/><stop offset=".409" style="stop-color:#ef1619"/><stop offset="1" style="stop-color:#d1000b"/></linearGradient><path fill="url(#b)" d="m35.12 38.375-9.351-9.356 18.355-18.37 9.35 9.364z"/><radialGradient id="c" cx="67.796" cy="-239.924" r="21.225" gradientTransform="rotate(44.999 -244.74 -134.737) scale(.9072)" gradientUnits="userSpaceOnUse"><stop offset="0" style="stop-color:#ff2121"/><stop offset=".315" style="stop-color:#fc1f1f"/><stop offset=".591" style="stop-color:#f1171a"/><stop offset=".851" style="stop-color:#df0a12"/><stop offset="1" style="stop-color:#d1000b"/></radialGradient><path fill="url(#c)" d="M33.374 30.65c-5.439-5.443-13.502-8.742-19.898-8.03l27.909 27.94c.714-6.407-2.572-14.466-8.011-19.91z"/><radialGradient id="d" cx="67.384" cy="-255.468" r="15.94" gradientTransform="matrix(.6415 .6415 -.3919 .3919 -103.195 69.835)" gradientUnits="userSpaceOnUse"><stop offset="0" style="stop-color:#ff2121"/><stop offset=".276" style="stop-color:#fa1d1e"/><stop offset=".62" style="stop-color:#ea1217"/><stop offset="1" style="stop-color:#d1000b"/></radialGradient><path fill="url(#d)" d="M39.496 6c-.884 4.655 2.659 10.68 5.247 13.268 2.584 2.585 8.602 6.129 13.257 5.242L39.496 6z"/></svg>