<svg xmlns="http://www.w3.org/2000/svg" xml:space="preserve" style="enable-background:new 0 0 64 64" viewBox="0 0 64 64"><linearGradient id="a" x1="32.001" x2="32.001" y1="35" y2="25" gradientUnits="userSpaceOnUse"><stop offset=".201" style="stop-color:#646a6e"/><stop offset=".296" style="stop-color:#6b7175"/><stop offset=".434" style="stop-color:#7d8488"/><stop offset=".599" style="stop-color:#9ba3a8"/><stop offset=".634" style="stop-color:#a3abb0"/><stop offset=".724" style="stop-color:#92999e"/><stop offset=".904" style="stop-color:#666c70"/><stop offset=".911" style="stop-color:#646a6e"/></linearGradient><path d="M8.001 25h48v10h-48z" style="fill:url(#a)"/><linearGradient id="b" x1="58.5" x2="58.5" y1="41" y2="19" gradientUnits="userSpaceOnUse"><stop offset=".201" style="stop-color:#7f868a"/><stop offset=".265" style="stop-color:#868d91"/><stop offset=".357" style="stop-color:#98a0a4"/><stop offset=".468" style="stop-color:#b7bfc4"/><stop offset=".591" style="stop-color:#e1ebf0"/><stop offset=".628" style="stop-color:#eff9ff"/><stop offset=".809" style="stop-color:#a4acb1"/><stop offset=".911" style="stop-color:#7f868a"/></linearGradient><path d="M61.5 41h-6a.5.5 0 0 1-.5-.5v-21a.5.5 0 0 1 .5-.5h6a.5.5 0 0 1 .5.5v21a.5.5 0 0 1-.5.5z" style="fill:url(#b)"/><path d="M56 29.267h6v1.466h-6zm0-1.953h6v1.465h-6zm0-1.953h6v1.465h-6zm0-1.954h6v1.465h-6zm0-1.953h6v1.465h-6zm0-1.954h6v1.465h-6zm0 19.534h6V40.5h-6zm0-1.953h6v1.465h-6zm0-1.953h6v1.465h-6zm0-1.954h6v1.465h-6zm0-1.953h6v1.465h-6z" style="opacity:.2;fill:#4a4a4a"/><linearGradient id="c" x1="-187.203" x2="-187.203" y1="41" y2="19" gradientTransform="matrix(-1 0 0 1 -181.703 0)" gradientUnits="userSpaceOnUse"><stop offset=".201" style="stop-color:#7f868a"/><stop offset=".265" style="stop-color:#868d91"/><stop offset=".357" style="stop-color:#98a0a4"/><stop offset=".468" style="stop-color:#b7bfc4"/><stop offset=".591" style="stop-color:#e1ebf0"/><stop offset=".628" style="stop-color:#eff9ff"/><stop offset=".809" style="stop-color:#a4acb1"/><stop offset=".911" style="stop-color:#7f868a"/></linearGradient><path d="M2.5 41h6a.5.5 0 0 0 .5-.5v-21a.5.5 0 0 0-.5-.5h-6a.5.5 0 0 0-.5.5v21a.5.5 0 0 0 .5.5z" style="fill:url(#c)"/><path d="M2 29.267h6v1.466H2zm0-1.953h6v1.465H2zm0-1.953h6v1.465H2zm0-1.954h6v1.465H2zm0-1.953h6v1.465H2zM2 19.5h6v1.465H2zm0 19.534h6V40.5H2zm0-1.953h6v1.465H2zm0-1.953h6v1.465H2zm0-1.954h6v1.465H2zm0-1.953h6v1.465H2z" style="opacity:.2;fill:#4a4a4a"/><linearGradient id="d" x1="52.996" x2="52.996" y1="62" y2="30.144" gradientUnits="userSpaceOnUse"><stop offset="0" style="stop-color:#646a6e"/><stop offset=".128" style="stop-color:#676e72"/><stop offset=".244" style="stop-color:#72787d"/><stop offset=".356" style="stop-color:#848b8f"/><stop offset=".465" style="stop-color:#9ca4a9"/><stop offset=".489" style="stop-color:#a3abb0"/><stop offset=".626" style="stop-color:#92999e"/><stop offset=".9" style="stop-color:#666c70"/><stop offset=".911" style="stop-color:#646a6e"/></linearGradient><path d="M54.236 32.065c-.643-1.797-4.366-1.141-3.839.637 2.392 8.061 4.944 17.107 4.38 22.145-.435 3.882-2.112 3.882-4.16-.664-1.92-4.262-4.65-2.08-3.232 1.413C50.739 63.864 59 64.873 59 54.183c0-4.44-2.299-15.237-4.765-22.118z" style="fill:url(#d)"/><linearGradient id="e" x1="-150.003" x2="-150.003" y1="62" y2="30.144" gradientTransform="matrix(-1 0 0 1 -138.997 0)" gradientUnits="userSpaceOnUse"><stop offset="0" style="stop-color:#646a6e"/><stop offset=".128" style="stop-color:#676e72"/><stop offset=".244" style="stop-color:#72787d"/><stop offset=".356" style="stop-color:#848b8f"/><stop offset=".465" style="stop-color:#9ca4a9"/><stop offset=".489" style="stop-color:#a3abb0"/><stop offset=".626" style="stop-color:#92999e"/><stop offset=".9" style="stop-color:#666c70"/><stop offset=".911" style="stop-color:#646a6e"/></linearGradient><path d="M9.766 32.065c.644-1.797 4.366-1.141 3.839.637-2.392 8.061-4.944 17.107-4.38 22.145.435 3.882 2.112 3.882 4.16-.664 1.92-4.262 4.65-2.08 3.232 1.413-3.354 8.268-11.616 9.277-11.616-1.413 0-4.44 2.299-15.237 4.765-22.118z" style="fill:url(#e)"/><path d="M50.501 58h-37a.5.5 0 0 1-.5-.5V54h38v3.5a.5.5 0 0 1-.5.5z" style="fill:#afb5b8"/><path d="M13.001 55.32v.44l38-.219zm0-.935v.443l38-.22zm38 3.019-38-.215v.311zm-38-1.15v.434l38-.217z" style="fill:#898989"/><path d="M51.001 54h-38V31a.5.5 0 0 1 .5-.5h37a.5.5 0 0 1 .5.5v23z" style="fill:#dfe4e8"/><path d="M50.501 29.5h-37a.5.5 0 0 1-.5-.5V2.5a.5.5 0 0 1 .5-.5h37a.5.5 0 0 1 .5.5V29a.5.5 0 0 1-.5.5z" style="fill:#e6ebef"/><path d="M32.001 4.5h9v1h-9zm0 4h17v1h-17zm0 3h17v1h-17zm0 3h17v1h-17zm0 3h17v1h-17zm0 3h17v1h-17z" style="fill:#99a0a3"/><path d="M15.001 4.5h15v17h-15z" style="fill:#fff"/><path d="m28.097 21.5.257-2.411-3.598-1.7-4.51.009-3.598 1.69.258 2.412z" style="fill:#dcdcdc"/><path d="M23.35 21.5a33.045 33.045 0 0 0-.184-1.857c-.04-.3-1.29-.3-1.33 0-.072.54-.133 1.17-.185 1.857h1.7z" style="fill:#a6a6a6"/><path d="M27.259 21.5c.085-1.46.686-2.605.686-2.605l-2.284-1.078-2.146 3.683h3.744zm-5.771 0-2.147-3.683-2.283 1.078s.6 1.144.686 2.605h3.744z" style="fill:#6b6b6b"/><path d="M27.36 21.5a7.129 7.129 0 0 1 .585-2.605l-.535-.253a7.773 7.773 0 0 0-.635 2.858h.585zm-9.132 0a7.775 7.775 0 0 0-.635-2.857l-.535.252s.546 1.144.584 2.605h.586zm5.999 0 2.014-3.41-.58-.273-2.146 3.683zm-2.739 0-2.147-3.683-.58.273 2.015 3.41z" style="fill:#898989"/><path d="m20.228 17.733 2.273 1.252 2.274-1.252v-2.081h-4.547z" style="fill:#c6c6c6"/><path d="M23.205 19.778c-.158.131-1.267.146-1.407 0-.333-.342-.305-1.022-.305-1.022s.88-.46 1.009-.46c.13 0 1.009.46 1.009.46s.077.709-.306 1.022z" style="fill:#aeaeae"/><path d="m24.775 17.176.588.463-.823 2.127a.154.154 0 0 1-.266.063l-1.773-1.534s1.626.259 2.274-1.12z" style="opacity:.1;fill:#3b3b3b"/><path d="m24.775 17.096.588.543-.825 1.922a.154.154 0 0 1-.258.065l-1.779-1.33s1.744-.072 2.274-1.2z" style="fill:#dcdcdc"/><path d="m20.228 17.176-.588.463.823 2.127a.154.154 0 0 0 .265.063l1.773-1.534s-1.626.259-2.273-1.12z" style="opacity:.1;fill:#3b3b3b"/><path d="m20.228 17.096-.588.543.824 1.922c.037.115.176.15.259.065l1.778-1.33s-1.743-.072-2.273-1.2zm9.419 4.404s.244-1.545-1.293-2.411c-.404.693-.571 1.555-.642 2.411h1.935zm-12.357 0c-.07-.856-.237-1.718-.642-2.411-1.536.866-1.293 2.411-1.293 2.411h1.936z" style="fill:#dcdcdc"/><path d="M17.918 12.555s.14 1.36-.206 2.277c.487-.053.613-.298.613-.298s-.017.637-.265 1.084c.458.075.738-.151.738-.151s0 .482.036.813c1.331-.343 1.252-1.893 1.252-1.893l-2.168-1.832zm9.372 2.277c-.346-.919-.206-2.277-.206-2.277l-2.166 1.832s-.08 1.55 1.252 1.893c.036-.33.036-.813.036-.813s.28.226.738.15c-.25-.444-.264-1.083-.264-1.083s.123.245.61.298z" style="fill:#6b6b6b"/><path d="M27.036 10.859c-.702.086-1.21 2.436-.767 3.057.06.086.423.224.692-.323.149-.304.576-.556.71-1.183.17-.8.065-1.635-.635-1.551zm-9.07 0c.702.086 1.21 2.436.767 3.057-.06.086-.423.224-.692-.323-.148-.304-.576-.556-.71-1.183-.17-.8-.063-1.635.635-1.551z" style="fill:#dcdcdc"/><path d="M27.017 11.31c-.182.058-.383.337-.49.8.64-.138.48.93-.076.95.004.107.013.218.025.333.269-.39.541-.232.812-.813.24-.522.184-1.413-.27-1.27zm-8.541.798c-.11-.463-.309-.742-.491-.799-.453-.142-.512.749-.268 1.271.27.579.543.423.81.814.013-.118.022-.227.026-.336-.551-.025-.709-1.078-.078-.95z" style="fill:#aeaeae"/><path d="M22.501 6.339c-3.042 0-4.508 2.478-4.325 5.662.038.64.216 1.564.436 2.357.455 1.646 2.468 3.302 3.89 3.302s3.431-1.656 3.888-3.302c.22-.793.399-1.715.436-2.357.183-3.184-1.283-5.662-4.325-5.662z" style="fill:#dcdcdc"/><path d="M25.808 10.624c-.697-.37-2.028-.386-2.523-.13-.107.05-.035.398.053.365.692-.273 1.807-.28 2.453.023.086.042.121-.206.017-.258zm-6.613 0c.696-.37 2.027-.386 2.524-.13.107.05.036.398-.052.365-.692-.273-1.806-.28-2.453.023-.088.042-.124-.206-.02-.258z" style="fill:#6b6b6b"/><path d="M23.323 13.821c-.086-.06-.291.034-.822.034-.53 0-.734-.095-.822-.034-.105.073.061.405.822.405.76 0 .925-.332.822-.405zm-.822 1.254c-.683-.201-1.698.096-1.698.096.386.422.669.967 1.698.967 1.178 0 1.38-.619 1.698-.967 0-.002-1.014-.3-1.698-.096z" style="fill:#aeaeae"/><path d="M21.059 15.24c.717.602 2.165.607 2.887 0a40.87 40.87 0 0 1-2.887 0zm.765-3.36c.025.201-.111.44-.489.618-.24.114-.74.248-1.398-.03-.294-.123-.58-.51-.556-.725.357-.67 2.11-.769 2.443.137z" style="fill:#fff"/><path d="M20.635 11.177a.689.689 0 1 1 0 1.375.689.689 0 1 1 0-1.375z" style="fill:#545454"/><path d="M20.291 11.855c0 .475.69.475.69 0-.002-.443-.69-.443-.69 0z" style="fill:#1e1e1e"/><path d="M20.186 11.662c0 .199.29.199.29 0-.002-.187-.29-.187-.29 0z" style="fill:#b2b2b2"/><path d="M21.828 11.907c-.279-.9-2.187-.765-2.447-.161.097-.776 2.208-.98 2.447.161z" style="fill:#aeaeae"/><path d="M23.178 11.88c-.025.201.111.44.489.618.241.114.74.248 1.398-.03.296-.123.581-.51.556-.725-.356-.67-2.11-.769-2.443.137z" style="fill:#fff"/><path d="M24.352 11.177a.69.69 0 1 1 0 1.38.69.69 0 0 1 0-1.38z" style="fill:#545454"/><path d="M24.009 11.855c0 .475.69.475.69 0-.003-.443-.69-.443-.69 0z" style="fill:#1e1e1e"/><path d="M23.904 11.662c0 .199.29.199.29 0-.003-.187-.29-.187-.29 0z" style="fill:#b2b2b2"/><path d="M23.174 11.907c.279-.897 2.185-.77 2.445-.161-.095-.776-2.206-.98-2.445.161z" style="fill:#aeaeae"/><path d="M19.635 6.814c1.593 1.52 6.336 2.472 7.158 5.82-1.122-3.36-5.246-2.417-7.158-5.82z" style="fill:#3b3b3b"/><path d="M22.547 5.5c-1.851 0-2.776.839-2.965 1.237 2.309 3.524 6.221 2.331 7.21 5.9 1.99-3.168.338-7.137-4.245-7.137z" style="fill:#6b6b6b"/><path d="M22.547 5.5c-1.649 0-2.735.67-2.965 1.237.799 2.15 6.279 2.216 7.34 5.074-.223-2.051-1.848-3.419-1.848-3.419s1.462.944 2.189 2.276c-.136-1.913-1.644-3.014-1.644-3.014s1.36.944 1.81 2.032C27.161 7.48 26.102 5.5 22.546 5.5z" style="fill:#898989"/><path d="M26.459 7.71c-1.53-2.576-4.814-1.896-4.814-1.896s2.733.142 4.814 1.896z" style="fill:#aeaeae"/><path d="M26.592 9.314c-2.195-4.11-6.3-2.765-6.3-2.765s3.55-.137 6.3 2.765z" style="fill:#aeaeae"/><path d="M20.523 7.115c2.262.839 4.86 2.35 4.86 2.35s-1.536-2.306-4.86-2.35z" style="fill:#aeaeae"/><path d="M19.582 6.737c-2.237.511-2.958 4.287-1.283 5.897.208-1.717.41-2.82 1.55-3.98 0 0 .067-1.022-.267-1.917z" style="fill:#6b6b6b"/><path d="M19.796 8.521s-1.47 1.363-1.497 4.114c.252-2.726 1.564-3.957 1.564-3.957l-.067-.157z" style="fill:#3b3b3b"/><path d="M19.606 6.814s-2.596.887-1.856 4.46c.017-.288.056-.554.109-.805-.005.445.062.935.233 1.47.224-2.483 1.665-3.695 1.665-3.695l-.151-1.43z" style="fill:#898989"/><path d="M18.007 10.427c.332-1.855 1.805-3.079 1.805-3.079s-2.048.136-1.805 3.08z" style="fill:#aeaeae"/><path d="M19.582 6.737c-.61 2.767 2.315 3.31 3.554 3.31-2.226-1.543-3.553-3.31-3.553-3.31z" style="fill:#6b6b6b"/><path d="M19.51 7.23c.058 1.585.922 2.574 3.626 2.817-2.115.143-3.952-.914-3.627-2.817z" style="fill:#3b3b3b"/><path d="M19.582 6.737s-.338 2.492 3.554 3.31c-2.145-1.655-2.533-2.61-3.553-3.31z" style="fill:#898989"/><path d="M21.818 9.323c-.687-.449-1.795-2.066-1.795-2.066s.217 1.671 1.795 2.066z" style="fill:#aeaeae"/><linearGradient id="f" x1="23.001" x2="25.36" y1="26.597" y2="26.597" gradientUnits="userSpaceOnUse"><stop offset="0" style="stop-color:#1c1c1c"/><stop offset="1" style="stop-color:#1c1c1c"/></linearGradient><path d="M25.36 26.597c0 1.56-2.359 1.56-2.359 0s2.36-1.56 2.36 0z" style="fill:url(#f)"/><linearGradient id="g" x1="23.001" x2="25.36" y1="34.403" y2="34.403" gradientUnits="userSpaceOnUse"><stop offset="0" style="stop-color:#1c1c1c"/><stop offset="1" style="stop-color:#1c1c1c"/></linearGradient><path d="M25.36 34.402c0 1.561-2.359 1.561-2.359 0 0-1.56 2.36-1.56 2.36 0z" style="fill:url(#g)"/><linearGradient id="h" x1="24.181" x2="24.181" y1="35.304" y2="25.695" gradientUnits="userSpaceOnUse"><stop offset=".201" style="stop-color:#7f868a"/><stop offset=".265" style="stop-color:#868d91"/><stop offset=".357" style="stop-color:#98a0a4"/><stop offset=".468" style="stop-color:#b7bfc4"/><stop offset=".591" style="stop-color:#e1ebf0"/><stop offset=".628" style="stop-color:#eff9ff"/><stop offset=".809" style="stop-color:#a4acb1"/><stop offset=".911" style="stop-color:#7f868a"/></linearGradient><path d="M24.99 34.414a.812.812 0 0 1-1.617 0v-7.83a.812.812 0 0 1 1.616 0v7.83z" style="fill:url(#h)"/><linearGradient id="i" x1="38.644" x2="41.001" y1="26.596" y2="26.596" gradientUnits="userSpaceOnUse"><stop offset="0" style="stop-color:#1c1c1c"/><stop offset="1" style="stop-color:#1c1c1c"/></linearGradient><path d="M41.001 26.597c0 1.558-2.357 1.558-2.357 0 0-1.56 2.357-1.56 2.357 0z" style="fill:url(#i)"/><linearGradient id="j" x1="38.644" x2="41.001" y1="34.403" y2="34.403" gradientUnits="userSpaceOnUse"><stop offset="0" style="stop-color:#1c1c1c"/><stop offset="1" style="stop-color:#1c1c1c"/></linearGradient><path d="M41.001 34.402c0 1.561-2.357 1.561-2.357 0 0-1.56 2.357-1.56 2.357 0z" style="fill:url(#j)"/><linearGradient id="k" x1="39.822" x2="39.822" y1="35.304" y2="25.695" gradientUnits="userSpaceOnUse"><stop offset=".201" style="stop-color:#7f868a"/><stop offset=".265" style="stop-color:#868d91"/><stop offset=".357" style="stop-color:#98a0a4"/><stop offset=".468" style="stop-color:#b7bfc4"/><stop offset=".591" style="stop-color:#e1ebf0"/><stop offset=".628" style="stop-color:#eff9ff"/><stop offset=".809" style="stop-color:#a4acb1"/><stop offset=".911" style="stop-color:#7f868a"/></linearGradient><path d="M40.63 34.414a.811.811 0 0 1-1.615 0v-7.83a.811.811 0 0 1 1.615 0v7.83z" style="fill:url(#k)"/></svg>