<svg xmlns="http://www.w3.org/2000/svg" xml:space="preserve" viewBox="0 0 64 64"><path fill="#E6EBEF" d="M56 62V23.702C56 17.245 42.543 2 38.867 2H8v60h48z"/><linearGradient id="a" x1="53.781" x2="38.896" y1="11.482" y2="21.432" gradientUnits="userSpaceOnUse"><stop offset="0" style="stop-color:#4e5e67"/><stop offset=".041" style="stop-color:#5b6a72"/><stop offset=".195" style="stop-color:#859198"/><stop offset=".352" style="stop-color:#a8b1b7"/><stop offset=".51" style="stop-color:#c3cbd0"/><stop offset=".669" style="stop-color:#d7dde1"/><stop offset=".832" style="stop-color:#e2e7ec"/><stop offset="1" style="stop-color:#e6ebef"/></linearGradient><path fill="url(#a)" d="M38.867 2.015C42.313 2.015 56 15.62 56 23.702V45.5S2.521 38.63 14.854 2l24.013.015z"/><path fill="#99A8AE" d="M13 9h12v1H13zm0 8h38v1H13zm0 4h38v1H13zm0 4h38v1H13zm0 4h38v1H13zm0 4h33v1H13zm0 8h21v1H13zm0 4h38v1H13zm0 4h38v1H13zm0 4h13v1H13zm0 4h6v1h-6z"/><linearGradient id="b" x1="547.054" x2="539.513" y1="124.959" y2="117.418" gradientTransform="rotate(-90 241.193 316.13)" gradientUnits="userSpaceOnUse"><stop offset="0" style="stop-color:#d3d7db"/><stop offset=".02" style="stop-color:#d6dade"/><stop offset=".159" style="stop-color:#e9ebed"/><stop offset=".324" style="stop-color:#f5f6f7"/><stop offset=".54" style="stop-color:#fdfdfd"/><stop offset="1" style="stop-color:#fff"/></linearGradient><path fill="url(#b)" d="M38.867 2.015C43.459 2.015 56 14.954 56 23.702c0 0-1.375-8.331-14.207-6.581 1.582-10-1.355-14.876-2.926-15.106z"/></svg>