<svg xmlns="http://www.w3.org/2000/svg" xml:space="preserve" viewBox="0 0 64 64"><path fill="#FFE1BD" d="M51.805 61.71a1.003 1.003 0 0 1-1.414-.001l-48.099-48.1a1.003 1.003 0 0 1 0-1.416l9.903-9.902a1.001 1.001 0 0 1 1.413 0l48.101 48.1a1.003 1.003 0 0 1 0 1.414l-9.904 9.905z"/><path fill="#F5CFA0" d="m52.918 60.598 2.949-2.951c-5.011-4.631-11.141-10.531-17.694-17.082-15.787-15.792-27.924-29.254-27.108-30.073.235-.232 1.499.59 3.544 2.244a351.558 351.558 0 0 1-6.227-6.633L5.787 8.697c3.952 3.625 8.565 8.047 13.433 12.912 13.329 13.326 23.422 24.842 22.544 25.719-.875.875-12.392-9.217-25.718-22.545-4.867-4.867-9.286-9.479-12.913-13.432l-.841.842a1.003 1.003 0 0 0 0 1.416l24.969 24.969c2.185-.096 10.237 6.191 18.937 14.889a163.405 163.405 0 0 1 6.72 7.131zm-8.346-20.735c-.208.209-1.068-.256-2.439-1.262 6.16 6.176 11.691 11.938 16.082 16.697l2.395-2.396a333.861 333.861 0 0 1-3.229-3.186c-7.561-7.559-13.37-14.012-12.969-14.41.396-.398 6.849 5.408 14.41 12.971a317.694 317.694 0 0 1 3.112 3.158.997.997 0 0 0-.226-1.045L13.607 2.29a1.001 1.001 0 0 0-1.413 0l-1.378 1.38c3.753 3.43 8.182 7.662 12.863 12.348 12.357 12.353 21.71 23.029 20.893 23.845z"/><path fill="#1A1626" d="M61.354 50.744a.501.501 0 0 1 0 .707l-9.903 9.905a.503.503 0 0 1-.707 0l-48.098-48.1a.503.503 0 0 1 0-.709l9.903-9.902a.5.5 0 0 1 .706 0l48.099 48.099m.355-.353-48.101-48.1a1.001 1.001 0 0 0-1.413 0l-9.903 9.902a1.003 1.003 0 0 0 0 1.416l48.099 48.1a1.003 1.003 0 0 0 1.414.001l9.904-9.905a1.003 1.003 0 0 0 0-1.414z" opacity=".1"/><path fill="#302C3B" d="m13.587 2.273.2.196-4.08 4.16-.2-.195zm.813.815.2.199-1.747 1.756-.2-.199zm.808.804.196.197-1.757 1.749-.196-.197zm.792.791.2.2-1.75 1.757-.2-.199zm.801.8.202.201-1.755 1.755-.201-.202zm.797.801.2.2-2.552 2.55-.2-.199zm.799.798.198.197-1.753 1.753-.197-.198zm.801.801.2.202-1.755 1.747-.2-.201zm.792.794.199.2-1.748 1.755-.2-.198zm.803.801.2.201-1.756 1.748-.2-.201zm.785.786.2.2-4.098 4.139-.201-.2zm.812.812.201.203-1.76 1.744-.201-.203zm.799.796.197.197-1.753 1.754-.198-.198zm.796.798.2.198-1.754 1.753-.2-.199zm.797.798.201.202-1.752 1.752-.201-.202zm.795.795.199.197-2.54 2.564-.198-.197zm.806.803.2.201-1.762 1.744-.199-.201zm.797.798.202.204-1.756 1.747-.202-.204zm.785.789.204.2-1.735 1.768-.204-.2zm.809.809.199.198-1.748 1.756-.199-.197zm.798.796.2.2-4.12 4.12-.2-.2zm.797.796.202.201-1.749 1.758-.202-.201zm.801.803.2.2-1.753 1.752-.199-.2zm.806.803.197.201-1.769 1.734-.197-.2zm.792.792.2.201-1.756 1.748-.2-.201zm.797.798.2.2-2.553 2.552-.2-.2zm.793.796.198.195-1.745 1.762-.198-.195zm.802.801.202.202L33.61 25.8l-.201-.202zm.804.8.199.2-1.757 1.748-.199-.2zm.794.796.2.2-1.753 1.752-.2-.2zm.792.794.203.2-4.11 4.13-.202-.201zm.801.796.201.199-1.746 1.763-.201-.199zm.798.799.2.2-1.743 1.76-.2-.2zm-.751 2.76-.199-.203 1.754-1.75.197.197zm2.349-1.159.202.201L39.2 31.39l-.202-.2zm.801.801.2.2-2.55 2.55-.2-.2zm.802.798.198.2-1.756 1.748-.198-.2zm.793.797.202.201-1.752 1.752-.202-.201zm.805.802.198.2-1.756 1.747-.198-.2zm.785.791.2.197-1.739 1.765-.2-.197zm.79.784.202.2-4.09 4.15-.202-.2zm.811.816.2.198-1.75 1.758-.199-.199zm.803.798.2.2-1.754 1.753-.2-.2zm.796.8.202.201-1.752 1.752-.201-.202zm.797.795.2.197-1.744 1.76-.2-.196zm.791.789.201.197-2.527 2.578-.201-.198zm.809.81.199.2-1.752 1.752-.2-.2zm.792.791.201.199-1.744 1.761-.2-.199zm.808.813.197.199-1.76 1.743-.197-.199zm.795.791.198.197-1.754 1.754-.197-.197zm.808.81.201.203-4.138 4.098-.201-.203zm.788.787.197.198-1.751 1.751-.197-.197zm.798.798.201.202-1.753 1.752-.201-.201zm.794.795.205.203-1.75 1.757-.203-.203zm.802.808.199.197-1.748 1.757-.199-.198zm.807.796.198.2-2.558 2.545-.198-.199zm.795.795.2.201-1.758 1.75-.2-.202zm.795.797.2.2-1.754 1.752-.2-.2zm.793.791.2.197-1.74 1.765-.2-.197zm.797.806.2.199-1.748 1.756-.2-.199zm.785.778.201.197-4.08 4.16-.2-.197z"/></svg>