<svg xmlns="http://www.w3.org/2000/svg" xml:space="preserve" style="enable-background:new 0 0 64 64" viewBox="0 0 64 64"><path d="M57 4s0-2-2-2H15c-9.55 9.54 0 54 0 54s42 10.79 42-2V4z" style="fill:#839aa3"/><linearGradient id="a" x1="15" x2="7" y1="30" y2="30" gradientUnits="userSpaceOnUse"><stop offset="0" style="stop-color:#302c3b"/><stop offset=".307" style="stop-color:#2d2938"/><stop offset=".554" style="stop-color:#231f2e"/><stop offset=".685" style="stop-color:#1a1626"/></linearGradient><path d="M7 58V4c0-2 2-2 2-2h6v54l-8 2z" style="fill:url(#a)"/><path d="M55 56H9s-2 0-2 2v2c0 2 2 2 2 2h46s2 0 2-2v-6c0 2-2 2-2 2z" style="fill:#4e5e67"/><path d="M55 57H9c-1 0-1 1-1 1v2s0 1 1 1h46c.55 0 1-.45 1-1v-3.25c-.5.25-1 .25-1 .25z" style="fill:#e6ebef"/><path d="M8 58.75v.5L55.62 59zm0 1V60s0 .11.04.25L55.62 60 8 59.75zm.04-2C8 57.89 8 58 8 58v.25L55.62 58l-47.58-.25z" style="fill:#cfd8dd"/><linearGradient id="b" x1="50" x2="50" y1="62" y2="2" gradientUnits="userSpaceOnUse"><stop offset=".097" style="stop-color:#3f4c54"/><stop offset=".102" style="stop-color:#425058"/><stop offset=".123" style="stop-color:#4b5b63"/><stop offset=".145" style="stop-color:#4e5e67"/></linearGradient><path d="M49 2h2v60h-2z" style="fill:url(#b)"/><path d="m26.21 18.97-2.63-3.41h-.66v4.88h.83v-3.41l2.62 3.41h.67v-4.88h-.83zm5.31-3.17c-.35-.2-.76-.3-1.24-.3s-.89.1-1.24.3c-.35.2-.62.49-.8.86-.19.37-.28.82-.28 1.34 0 .51.09.96.28 1.33.19.38.46.66.8.87.35.2.76.3 1.24.3s.89-.1 1.24-.3c.35-.2.61-.49.8-.87.19-.38.29-.82.29-1.34 0-.51-.09-.96-.28-1.33-.2-.37-.46-.66-.81-.86zm-.19 3.54c-.26.31-.61.46-1.06.46-.44 0-.79-.15-1.05-.46-.26-.31-.38-.76-.38-1.34 0-.59.13-1.03.38-1.34.26-.3.61-.46 1.05-.46.45 0 .8.15 1.06.46.26.3.38.75.38 1.34.01.58-.12 1.03-.38 1.34zm1.44-3.06h1.6v4.16h.89v-4.16h1.59v-.72h-4.08zm4.69 4.16h3.27v-.69h-2.4v-1.44h2.27v-.7h-2.27v-1.36h2.4v-.69h-3.27zm7.5-1.91c-.08-.15-.2-.28-.35-.38-.16-.11-.34-.2-.57-.28a5.87 5.87 0 0 0-.76-.21c-.25-.06-.45-.12-.61-.18a.844.844 0 0 1-.35-.22.472.472 0 0 1-.11-.33c0-.23.09-.41.27-.54.18-.13.43-.19.75-.19.26 0 .51.04.75.13.24.08.47.22.69.39l.3-.65c-.13-.12-.29-.23-.47-.31a2.989 2.989 0 0 0-1.27-.27c-.38 0-.71.06-.99.19s-.5.3-.66.53c-.16.22-.23.48-.23.77 0 .21.04.39.11.55.08.15.19.29.33.4.15.11.33.2.55.29.22.08.47.15.76.2.24.05.45.11.61.17.16.06.29.13.37.22.08.08.12.19.12.32 0 .22-.09.38-.28.5-.19.12-.45.18-.79.18-.31 0-.59-.04-.84-.12-.26-.08-.51-.21-.76-.4l-.3.65c.15.12.33.23.53.32s.41.15.64.2c.23.04.47.07.72.07.4 0 .75-.06 1.04-.18.29-.12.51-.28.67-.5.16-.22.23-.47.23-.77a.924.924 0 0 0-.1-.55z" style="fill:#4e5e67"/></svg>