<svg xmlns="http://www.w3.org/2000/svg" xml:space="preserve" style="enable-background:new 0 0 64 64" viewBox="0 0 64 64"><path d="M11 52s-2 0-2 4 2 4 2 4h6v-8h-6z" style="fill:#013366"/><path d="M17 52v8h36s2 0 2-2v-8l-38 2z" style="fill:#006dae"/><linearGradient id="a" x1="32.253" x2="32.253" y1="7" y2="15.958" gradientTransform="matrix(1 0 0 -1 0 66)" gradientUnits="userSpaceOnUse"><stop offset="0" style="stop-color:#fff"/><stop offset=".226" style="stop-color:#f5f6f7"/><stop offset=".607" style="stop-color:#dbdfe2"/><stop offset="1" style="stop-color:#b9c2c7"/></linearGradient><path d="M16.98 53h-5.935a.404.404 0 0 0-.109.011c-.221.06-.936.452-.936 2.989 0 2.331.603 2.851.873 2.967a.468.468 0 0 0 .186.033h41.447s2 0 2-2v-6.455a.502.502 0 0 0-.543-.501L17.02 52.998a.486.486 0 0 1-.04.002z" style="fill:url(#a)"/><path d="M53 53H17v-6h38v4c0 2-2 2-2 2z" style="fill:#006dae"/><path d="M55 6s0-2-2-2H17v48h36s2 0 2-2V6z" style="fill:#0fb4d4"/><linearGradient id="b" x1="9" x2="17" y1="30" y2="30" gradientUnits="userSpaceOnUse"><stop offset=".218" style="stop-color:#013366"/><stop offset="1" style="stop-color:#006dae"/></linearGradient><path d="M11 52s-2 0-2 4V8c0-4 2-4 2-4h6v48h-6z" style="fill:url(#b)"/><path d="M10.238 58.041c.057.184.119.332.184.451l42.941-.226-43.125-.225zm-.179-.932c.02.164.041.316.066.453l43.238-.228-43.304-.225zm-.055-.933c.002.16.006.313.016.455l43.346-.226-43.362-.229zm.023-.932c-.01.143-.018.295-.021.455l43.357-.228-43.336-.227zm.121-.931a5.562 5.562 0 0 0-.076.454l43.291-.227-43.215-.227zm.348-.93a2.193 2.193 0 0 0-.215.451l43.082-.227-42.867-.224z" style="fill:#bec3cf"/><path d="M35 12.749a2.247 2.247 0 0 1 2.246 2.253 2.25 2.25 0 0 1-4.497 0A2.25 2.25 0 0 1 35 12.749zM35 12a3 3 0 1 0 0 6 3 3 0 0 0 0-6z" style="fill:#006dae"/><path d="M35.599 15.298a.122.122 0 0 1-.112-.036.126.126 0 0 1-.036-.112v-.301a.127.127 0 0 1 .036-.11c.032-.029.07-.046.112-.038h.978a.128.128 0 0 1 .111.038.137.137 0 0 1 .037.11v.153c0 .695-.421 1.327-1.065 1.593a1.72 1.72 0 0 1-1.879-.375.126.126 0 0 1-.054-.107c0-.041.019-.079.054-.104l.318-.321c.023-.034.065-.051.106-.051s.08.017.104.051a.974.974 0 0 0 1.617-.39h-.327zm-9.452 5.952L25.1 23.67l-1.036-2.42h-.594l1.394 3.13h.466l1.389-3.13zm2.053.987a.997.997 0 0 0-.527-.134c-.211 0-.398.049-.559.147a1.03 1.03 0 0 0-.378.409 1.284 1.284 0 0 0-.136.604c0 .238.047.443.141.616a.948.948 0 0 0 .402.396c.174.091.382.136.622.136.158 0 .314-.024.468-.073.154-.048.284-.116.389-.204l-.158-.378a1.135 1.135 0 0 1-.677.233c-.22 0-.384-.063-.493-.187-.096-.11-.142-.284-.153-.503h1.521v-.084c0-.228-.04-.426-.121-.593a.903.903 0 0 0-.341-.385zm-.514.262a.45.45 0 0 1 .376.167.68.68 0 0 1 .11.338h-1.014a.713.713 0 0 1 .12-.318.483.483 0 0 1 .408-.187zm2.637-.391c-.17 0-.323.05-.457.149a.652.652 0 0 0-.215.32l-.045-.417h-.519c.015.102.024.208.029.314.004.107.006.212.006.314v1.591h.549v-1.2c0-.111.021-.211.064-.301a.5.5 0 0 1 .189-.213.595.595 0 0 1 .323-.079c.102 0 .199.019.29.057l.009-.501a.45.45 0 0 0-.101-.026.773.773 0 0 0-.122-.008zm1.604 1.006-.373-.092a.495.495 0 0 1-.222-.092.198.198 0 0 1-.064-.154.22.22 0 0 1 .105-.193.525.525 0 0 1 .295-.07c.114 0 .229.021.345.062.116.041.229.104.341.189l.158-.378a1.14 1.14 0 0 0-.382-.209 1.457 1.457 0 0 0-.457-.072c-.182 0-.342.029-.479.088-.138.059-.245.14-.321.244s-.114.223-.114.358c0 .161.051.294.152.398.101.104.253.178.455.222l.37.083c.12.029.205.064.255.103.05.04.075.093.075.161a.208.208 0 0 1-.105.185.585.585 0 0 1-.308.066c-.15 0-.293-.022-.431-.066a1.276 1.276 0 0 1-.382-.198l-.154.387c.234.185.554.277.958.277.284 0 .508-.06.672-.178a.564.564 0 0 0 .246-.481.565.565 0 0 0-.152-.411c-.103-.107-.263-.182-.483-.229zm1.099-.954h.549v2.22h-.549zM33 21.153h.611v.541H33zm2.771 1.091a1.19 1.19 0 0 0-.591-.141 1.21 1.21 0 0 0-.6.141.96.96 0 0 0-.389.402 1.304 1.304 0 0 0-.136.613c0 .238.045.442.136.613a.969.969 0 0 0 .389.398c.168.094.368.141.6.141.226 0 .422-.047.591-.141a.982.982 0 0 0 .392-.398c.092-.171.138-.376.138-.613 0-.234-.046-.439-.138-.613a.962.962 0 0 0-.392-.402zm-.171 1.562a.508.508 0 0 1-.42.183c-.188 0-.332-.061-.431-.183-.1-.122-.149-.304-.149-.547 0-.24.051-.421.152-.543a.529.529 0 0 1 .429-.183c.182 0 .321.061.42.183.098.122.147.302.147.543-.001.244-.05.426-.148.547zm2.45-1.703a.894.894 0 0 0-.481.129.782.782 0 0 0-.272.31l-.042-.382h-.518c.015.102.024.206.029.312.004.105.006.211.006.316v1.591h.549v-1.257c0-.176.051-.317.152-.424a.534.534 0 0 1 .407-.161c.141 0 .245.041.312.121.067.081.101.207.101.38v1.341h.549v-1.363c0-.608-.264-.913-.792-.913zm2.506-.395h1.573L40.71 24.38h.606l1.42-2.708v-.422h-2.18zm2.65 2.057h.62v.615h-.62zm3.031-2.141c-.195-.273-.478-.409-.85-.409-.373 0-.656.136-.851.409-.195.272-.292.669-.292 1.191s.098.919.294 1.191c.196.272.479.409.849.409.369 0 .652-.136.848-.409.196-.272.294-.671.294-1.196 0-.518-.097-.914-.292-1.186zm-.406 2.072a.467.467 0 0 1-.444.279.466.466 0 0 1-.444-.279c-.094-.186-.141-.481-.141-.886 0-.399.047-.69.141-.873a.467.467 0 0 1 .444-.274c.202 0 .35.091.444.272.094.182.141.473.141.875-.001.405-.047.7-.141.886z" style="fill:#006dae"/></svg>