<svg xmlns="http://www.w3.org/2000/svg" xml:space="preserve" style="enable-background:new 0 0 64 64" viewBox="0 0 64 64"><linearGradient id="a" x1="32" x2="32" y1="52" y2="12" gradientUnits="userSpaceOnUse"><stop offset="0" style="stop-color:#66666e"/><stop offset=".01" style="stop-color:#63636b"/><stop offset=".079" style="stop-color:#53535a"/><stop offset=".155" style="stop-color:#4a4a50"/><stop offset=".25" style="stop-color:#47474d"/><stop offset=".75" style="stop-color:#47474d"/><stop offset=".845" style="stop-color:#4a4a50"/><stop offset=".921" style="stop-color:#53535a"/><stop offset=".99" style="stop-color:#63636b"/><stop offset="1" style="stop-color:#66666e"/></linearGradient><path d="M60.9 17.161a6.668 6.668 0 0 0-3.873-3.791c-4.879-1.827-45.175-1.827-50.054 0A6.668 6.668 0 0 0 3.1 17.16c-1.466 3.621-1.466 26.057 0 29.678a6.668 6.668 0 0 0 3.873 3.791c4.879 1.827 45.176 1.827 50.054 0A6.668 6.668 0 0 0 60.9 46.84c1.466-3.621 1.466-26.057 0-29.678z" style="fill:url(#a)"/><linearGradient id="b" x1="32.004" x2="32.004" y1="33.456" y2="21.456" gradientUnits="userSpaceOnUse"><stop offset="0" style="stop-color:#9be022"/><stop offset=".407" style="stop-color:#99de22"/><stop offset=".608" style="stop-color:#93d622"/><stop offset=".762" style="stop-color:#89c922"/><stop offset=".894" style="stop-color:#7ab723"/><stop offset="1" style="stop-color:#69a123"/></linearGradient><path d="M57.004 31.456c0 1.1-.9 2-2 2h-46c-1.1 0-2-.9-2-2v-8c0-1.1.9-2 2-2h46c1.1 0 2 .9 2 2v8z" style="fill:url(#b)"/><path d="M18.116 46.5h-2.442c-1.285 0-3.01-.71-3.927-1.618L6.352 39.52c-.74-.733-.66-1.308-.545-1.586.114-.277.462-.743 1.503-.743h8.715c1.39 0 2.745 1.057 3.084 2.406l1.072 4.253c.172.68.047 1.359-.344 1.86-.39.502-1.018.79-1.72.79zm17.079 0h-8.714c-1.39 0-2.747-1.057-3.087-2.406l-1.07-4.252c-.173-.682-.047-1.36.344-1.861.39-.502 1.018-.79 1.72-.79h8.716c1.369 0 2.753 1.08 3.086 2.407l1.07 4.252c.17.683.045 1.362-.347 1.863-.39.5-1.016.787-1.718.787zm12.049 0h-2.44c-1.37 0-2.753-1.08-3.086-2.407l-1.07-4.251c-.171-.683-.045-1.362.346-1.863.39-.5 1.017-.788 1.718-.788h13.683c.863 0 1.548.428 1.789 1.116.215.617.007 1.294-.53 1.722l-6.369 5.061c-.995.79-2.77 1.41-4.04 1.41z" style="fill:#1a1626"/><linearGradient id="c" x1="12.995" x2="12.995" y1="46" y2="37.691" gradientUnits="userSpaceOnUse"><stop offset="0" style="stop-color:#616d75"/><stop offset=".028" style="stop-color:#5b646b"/><stop offset=".092" style="stop-color:#50545a"/><stop offset=".163" style="stop-color:#494a50"/><stop offset=".25" style="stop-color:#47474d"/><stop offset=".75" style="stop-color:#47474d"/><stop offset=".838" style="stop-color:#494a50"/><stop offset=".908" style="stop-color:#50545a"/><stop offset=".972" style="stop-color:#5b646b"/><stop offset="1" style="stop-color:#616d75"/></linearGradient><path d="M19.695 43.972c.283 1.115-.43 2.028-1.579 2.028h-2.442c-1.149 0-2.758-.664-3.575-1.474l-5.395-5.36c-.817-.81-.544-1.475.606-1.475h8.715c1.15 0 2.319.914 2.6 2.029l1.07 4.252z" style="fill:url(#c)"/><linearGradient id="d" x1="29.791" x2="29.791" y1="46" y2="37.691" gradientUnits="userSpaceOnUse"><stop offset="0" style="stop-color:#616d75"/><stop offset=".028" style="stop-color:#5b646b"/><stop offset=".092" style="stop-color:#50545a"/><stop offset=".163" style="stop-color:#494a50"/><stop offset=".25" style="stop-color:#47474d"/><stop offset=".75" style="stop-color:#47474d"/><stop offset=".838" style="stop-color:#494a50"/><stop offset=".908" style="stop-color:#50545a"/><stop offset=".972" style="stop-color:#5b646b"/><stop offset="1" style="stop-color:#616d75"/></linearGradient><path d="M36.775 43.972c.279 1.115-.431 2.028-1.58 2.028h-8.714c-1.15 0-2.32-.913-2.603-2.028l-1.07-4.252c-.28-1.115.431-2.029 1.58-2.029h8.716c1.15 0 2.32.914 2.6 2.029l1.07 4.252z" style="fill:url(#d)"/><path d="M16.371 41.846c0 2.09-3.136 2.09-3.136 0 0-2.091 3.136-2.091 3.136 0z" style="fill:#e81c27"/><path d="m32.983 41.846-5.506-1.376v2.752z" style="fill:#e6ebef"/><linearGradient id="e" x1="49.42" x2="49.42" y1="46" y2="37.691" gradientUnits="userSpaceOnUse"><stop offset="0" style="stop-color:#616d75"/><stop offset=".028" style="stop-color:#5b646b"/><stop offset=".092" style="stop-color:#50545a"/><stop offset=".163" style="stop-color:#494a50"/><stop offset=".25" style="stop-color:#47474d"/><stop offset=".75" style="stop-color:#47474d"/><stop offset=".838" style="stop-color:#494a50"/><stop offset=".908" style="stop-color:#50545a"/><stop offset=".972" style="stop-color:#5b646b"/><stop offset="1" style="stop-color:#616d75"/></linearGradient><path d="M50.974 44.699c-.9.715-2.58 1.301-3.73 1.301h-2.44c-1.15 0-2.322-.913-2.6-2.028l-1.071-4.252c-.28-1.115.43-2.029 1.579-2.029h13.684c1.374 0 1.766 1.293.946 1.947l-6.368 5.06z" style="fill:url(#e)"/><path d="M50.145 42.652h-5.082c-1.104 0-1.104-1.612 0-1.612h5.082c1.104 0 1.104 1.612 0 1.612z" style="fill:#a6e639"/><path d="M13.992 26.728a2.219 2.219 0 0 0-1.126-.279 2.24 2.24 0 0 0-.868.158c-.08.033-.151.08-.225.123v-1.537h2.924v-1.15h-4.382v4.036h.854a2.007 2.007 0 0 1 1.275-.47c.243 0 .452.043.628.13.176.086.31.21.403.374.092.163.138.36.138.59 0 .344-.1.608-.302.79-.2.182-.5.274-.896.274-.313 0-.626-.056-.94-.168a3.67 3.67 0 0 1-.92-.494l-.48 1.074c.263.236.606.423 1.031.56a4.17 4.17 0 0 0 1.29.207c.537 0 1.002-.096 1.395-.287.393-.192.698-.46.916-.806.217-.345.326-.748.326-1.208 0-.441-.093-.825-.278-1.15a2.017 2.017 0 0 0-.763-.767zm5.753 0a2.219 2.219 0 0 0-1.126-.279 2.24 2.24 0 0 0-.868.158c-.08.033-.152.08-.226.123v-1.537h2.925v-1.15h-4.382v4.036h.853c.18-.153.382-.27.61-.35.226-.08.448-.12.665-.12.243 0 .453.043.629.13.175.086.31.21.402.374.093.163.14.36.14.59 0 .344-.102.608-.303.79-.201.182-.5.274-.896.274-.313 0-.627-.056-.94-.168a3.67 3.67 0 0 1-.92-.494l-.48 1.074c.262.236.606.423 1.031.56a4.17 4.17 0 0 0 1.29.207c.537 0 1.002-.096 1.395-.287a2.18 2.18 0 0 0 .915-.806c.218-.345.326-.748.326-1.208 0-.441-.092-.825-.278-1.15a2.017 2.017 0 0 0-.762-.767zm5.305.629c.334-.113.605-.288.793-.543.208-.281.312-.62.312-1.016a1.69 1.69 0 0 0-.283-.974 1.819 1.819 0 0 0-.8-.642c-.346-.15-.752-.226-1.218-.226-.448 0-.887.069-1.319.207-.431.137-.784.324-1.059.56l.48 1.075c.287-.218.585-.383.896-.494.31-.112.612-.168.906-.168.307 0 .547.073.72.22.171.147.258.361.258.643 0 .287-.096.499-.288.633-.191.134-.489.201-.891.201h-.806v1.16h.978c.416 0 .718.07.906.211.188.14.283.361.283.662 0 .32-.094.549-.283.69-.188.14-.49.21-.906.21a2.9 2.9 0 0 1-.95-.162 3.408 3.408 0 0 1-.92-.499l-.479 1.074c.275.236.63.424 1.064.561a4.46 4.46 0 0 0 1.352.206c.78 0 1.397-.173 1.85-.517.454-.346.681-.819.681-1.42 0-.44-.118-.808-.354-1.102-.218-.27-.532-.447-.922-.55zm2.428.358h2.982v1.131h-2.982zm6.884-2.579c.243 0 .508.05.796.153.288.103.585.272.892.509l.489-1.075a2.874 2.874 0 0 0-1.016-.57 3.883 3.883 0 0 0-1.228-.197c-.594 0-1.107.144-1.539.432-.431.287-.762.7-.992 1.236-.23.538-.345 1.18-.345 1.928 0 1.093.243 1.933.728 2.522.486.588 1.17.882 2.052.882.454 0 .857-.099 1.208-.297.352-.198.627-.472.825-.82.198-.348.297-.746.297-1.194 0-.429-.088-.809-.263-1.14a1.982 1.982 0 0 0-.73-.783 2.021 2.021 0 0 0-1.068-.282c-.275 0-.532.049-.772.148-.24.1-.441.239-.604.417-.07.077-.125.163-.176.251.027-.645.144-1.155.363-1.512.25-.405.61-.608 1.083-.608zm-1.145 2.992a.92.92 0 0 1 .364-.384 1.05 1.05 0 0 1 .532-.135c.313 0 .56.1.743.298.182.198.273.463.273.796 0 .326-.092.588-.278.786-.185.198-.431.297-.738.297-.198 0-.375-.046-.532-.14a.96.96 0 0 1-.364-.378 1.17 1.17 0 0 1-.13-.565c0-.217.043-.41.13-.575zm6.898-2.992c.243 0 .508.05.796.153.288.103.585.272.892.509l.489-1.075a2.874 2.874 0 0 0-1.017-.57 3.883 3.883 0 0 0-1.227-.197c-.594 0-1.108.144-1.539.432-.432.287-.762.7-.993 1.236-.23.538-.344 1.18-.344 1.928 0 1.093.242 1.933.728 2.522.486.588 1.17.882 2.052.882.454 0 .857-.099 1.208-.297.352-.198.627-.472.825-.82.198-.348.297-.746.297-1.194 0-.429-.088-.809-.264-1.14a1.982 1.982 0 0 0-.728-.783 2.021 2.021 0 0 0-1.07-.282c-.274 0-.532.049-.772.148-.239.1-.44.239-.603.417-.07.077-.126.163-.176.251.027-.645.143-1.155.362-1.512.25-.405.611-.608 1.084-.608zm-1.146 2.992a.92.92 0 0 1 .364-.384 1.05 1.05 0 0 1 .533-.135c.313 0 .56.1.743.298.182.198.273.463.273.796 0 .326-.092.588-.278.786-.186.198-.431.297-.738.297-.199 0-.376-.046-.533-.14a.96.96 0 0 1-.364-.378 1.17 1.17 0 0 1-.13-.565c0-.217.044-.41.13-.575zm8.045-1.4a2.219 2.219 0 0 0-1.127-.279c-.326 0-.616.053-.868.158-.08.033-.151.08-.225.123v-1.537h2.924v-1.15h-4.382v4.036h.854c.179-.153.382-.27.609-.35.227-.08.449-.12.666-.12.243 0 .452.043.628.13.176.086.31.21.403.374.092.163.139.36.139.59 0 .344-.101.608-.302.79-.202.182-.5.274-.897.274-.313 0-.626-.056-.94-.168a3.668 3.668 0 0 1-.92-.494l-.48 1.074c.263.236.606.423 1.032.56.424.138.854.207 1.289.207.537 0 1.002-.096 1.395-.287.393-.192.699-.46.916-.806.217-.345.326-.748.326-1.208 0-.441-.093-.825-.278-1.15a2.017 2.017 0 0 0-.763-.767zm6.917 1.735h-.93v-4.42h-1.198l-3.126 4.468v1.112h2.848v1.246h1.476v-1.246h.93v-1.16zm-3.887 0 1.481-2.129v2.13h-1.481z" style="fill:#014f27"/></svg>