<svg xmlns="http://www.w3.org/2000/svg" xml:space="preserve" style="enable-background:new 0 0 64 64" viewBox="0 0 64 64"><linearGradient id="a" x1="-62" x2="-62" y1="68" y2="8" gradientTransform="matrix(1 0 0 -1 94 70)" gradientUnits="userSpaceOnUse"><stop offset="0" style="stop-color:#ff3b3b"/><stop offset=".256" style="stop-color:#fb3737"/><stop offset=".521" style="stop-color:#f02b2a"/><stop offset=".789" style="stop-color:#dd1616"/><stop offset="1" style="stop-color:#c90100"/></linearGradient><path d="m49.11 2-8.55 14.73L32 2l-8.56 14.73L14.89 2S3 17.46 3 33.8C3 52.13 15.98 62 32 62s29-9.87 29-28.2C61 17.46 49.11 2 49.11 2z" style="fill:url(#a)"/><path d="m12 29.5-.39 15.88c0 .83.69 1.5 1.53 1.5h37.71c.84 0 1.53-.67 1.53-1.5L52 29.5H12z" style="opacity:.2;fill:#302c3b"/><path d="M12 29.5c0-.83.67-1.5 1.5-1.5h37c.83 0 1.5.67 1.5 1.5v15c0 .83-.67 1.5-1.5 1.5h-37c-.83 0-1.5-.67-1.5-1.5v-15z" style="fill:#fff"/></svg>