<svg xmlns="http://www.w3.org/2000/svg" xml:space="preserve" style="enable-background:new 0 0 64 64" viewBox="0 0 64 64"><linearGradient id="a" x1="-1433.139" x2="-1433.139" y1="1226.566" y2="1207.394" gradientTransform="rotate(-134.999 -947.322 324.278)" gradientUnits="userSpaceOnUse"><stop offset=".272" style="stop-color:#ba0000"/><stop offset=".437" style="stop-color:#bf0001"/><stop offset=".621" style="stop-color:#cc0004"/><stop offset=".813" style="stop-color:#e20008"/><stop offset="1" style="stop-color:#ff000e"/></linearGradient><path d="M4.456 9.65c-3.056 3.564-3.278 8.753-.567 12.587 4.487 6.347 8.078 12.429 16.762 21.113 8.684 8.683 14.765 12.274 21.112 16.761 3.834 2.71 9.023 2.489 12.588-.567 1.863-1.597 3.719-3.273 4.863-4.529-2.787-4.017-14.747-11.743-18.311-11.363-2.681 2.022-4.023 1.677-6.06.467-5.15-3.057-11.904-9.812-14.962-14.961-1.21-2.038-1.555-3.38.467-6.06.38-3.565-7.346-15.525-11.363-18.312-1.256 1.144-2.932 3-4.53 4.864z" style="fill:url(#a)"/><linearGradient id="b" x1="-1418.634" x2="-1397.598" y1="1218.453" y2="1218.453" gradientTransform="rotate(-134.999 -947.322 324.278)" gradientUnits="userSpaceOnUse"><stop offset="0" style="stop-color:#ba0000"/><stop offset="1" style="stop-color:#ff000e"/></linearGradient><path d="M4.456 9.65c-3.056 3.564-3.278 8.753-.567 12.587 4.487 6.347 14.437 3.541 16.459.86.38-3.564-7.346-15.524-11.363-18.31-1.256 1.143-2.932 2.999-4.53 4.862z" style="fill:url(#b)"/><linearGradient id="c" x1="-1137.591" x2="-1116.555" y1="1218.453" y2="1218.453" gradientTransform="scale(1 -1) rotate(-45 -2075.504 -833.61)" gradientUnits="userSpaceOnUse"><stop offset="0" style="stop-color:#ba0000"/><stop offset="1" style="stop-color:#ff000e"/></linearGradient><path d="M54.35 59.544c-3.564 3.056-8.753 3.278-12.587.567-6.347-4.487-3.541-14.437-.86-16.459 3.564-.38 15.524 7.347 18.31 11.363-1.143 1.256-2.999 2.932-4.863 4.53z" style="fill:url(#c)"/><linearGradient id="d" x1="-1419.527" x2="-1397.939" y1="1225.024" y2="1228.83" gradientTransform="rotate(-134.999 -947.322 324.278)" gradientUnits="userSpaceOnUse"><stop offset="0" style="stop-color:#ba0000"/><stop offset=".261" style="stop-color:#d80006"/><stop offset=".52" style="stop-color:#ee000a"/><stop offset=".77" style="stop-color:#fb000d"/><stop offset="1" style="stop-color:#ff000e"/></linearGradient><path d="M20.348 23.098c.056.145 4.65-2.546 4.487-3.137-1.556-5.657-6.84-13.8-11.32-17.94-.322-.297-4.657 2.584-4.53 2.765 3.737 5.341 10 14.783 11.363 18.311z" style="fill:url(#d)"/><linearGradient id="e" x1="-479.336" x2="-501.114" y1="1228.799" y2="1224.959" gradientTransform="scale(1 -1) rotate(-45 -1756.634 -63.79)" gradientUnits="userSpaceOnUse"><stop offset="0" style="stop-color:#ff000e"/><stop offset=".23" style="stop-color:#fb000d"/><stop offset=".48" style="stop-color:#ee000a"/><stop offset=".739" style="stop-color:#d80006"/><stop offset="1" style="stop-color:#ba0000"/></linearGradient><path d="M40.903 43.652c-.146-.056 2.545-4.65 3.136-4.487 5.657 1.556 13.8 6.84 17.94 11.32.297.322-2.584 4.657-2.765 4.53-5.341-3.737-14.783-10-18.311-11.363z" style="fill:url(#e)"/></svg>