<svg xmlns="http://www.w3.org/2000/svg" xml:space="preserve" viewBox="0 0 64 64"><path fill="#006DAE" d="M32 12c-4.73-5.91-20.76-.874-29.061-.485a.99.99 0 0 0-.939.996v40.673c0 .5.369.912.863.993C11.141 55.52 27.254 49.073 32 55c4.742-5.922 20.83.521 29.136-.824.495-.08.864-.493.864-.993V12.511a.99.99 0 0 0-.941-.996C52.73 11.128 36.727 6.095 32 12z"/><path fill="#006DAE" d="M28 47v5.213c0 3.716 8 3.716 8 0V47h-8z"/><path fill="#014D87" d="M30 49v3.214c0 .404.973.786 2 .786 1.027 0 2-.382 2-.786V49h-4z"/><path fill="#E6EBEF" d="M8 9.505s-1.344 1.617-4 3.269v39.078c4-2.138 5-3.981 5-3.981L8 9.505z"/><path fill="#CFD8DD" d="M6.75 11.945c.107 6.255.08 7.51.125 13.764-.045 6.255-.018 12.51-.125 18.765-.107-6.255-.08-12.51-.125-18.765.045-6.254.018-7.509.125-13.764zm-2.25 2c.107 6.922.08 8.843.125 15.764-.045 6.922-.018 13.843-.125 20.765-.107-6.922-.08-13.843-.125-20.765.045-6.921.018-8.842.125-15.764zm1.5-3c.107 4.922.08 7.843.125 12.764-.045 4.922-.018 9.843-.125 14.765-.107-4.922-.082-9.843-.125-14.765.045-4.921.018-7.842.125-12.764z"/><path fill="#E6EBEF" d="M56 9.505s1.344 1.617 4 3.269v39.078c-4-2.138-5-3.981-5-3.981l1-38.366z"/><path fill="#CFD8DD" d="M59.199 48.474c-.107-6.255-.08-12.51-.125-18.765.045-6.254.018-10.509.125-16.764.107 6.255.082 10.51.125 16.764-.045 6.255-.017 12.51-.125 18.765zm-2.699-3c-.107-6.422-.08-12.843-.125-19.265.045-6.421.018-7.842.125-14.264.107 6.422.08 7.843.125 14.264-.045 6.422-.018 12.843-.125 19.265zm1.75 1.29c-.107-4.921-.08-9.843-.125-14.764.045-4.921.018-9.843.125-14.764.107 4.921.08 9.843.125 14.764-.045 4.921-.018 9.843-.125 14.764z"/><path fill="#013366" d="M56 46.867c-17-5.773-31-5.773-48 0l-4 4.984c8.721 1.438 20.229-3.54 28 .257 7.767-3.797 19.279 1.181 28-.257l-4-4.984z"/><path fill="#B3C2C6" d="M56 46.867c-17-5.773-31-5.773-48 0l-4 4.984c6.768 1.115 18.657-4.566 28 0 9.341-4.566 21.232 1.115 28 0l-4-4.984z"/><path fill="#99A8AE" d="M8 50.5c2.021-.254 4.018-.666 6.024-1.024 2.002-.37 4.014-.725 6.047-.933 2.033-.18 4.092-.212 6.121.055 2.029.254 4.023.854 5.809 1.847-1.83-.905-3.816-1.439-5.828-1.682-2.018-.237-4.059-.176-6.078.029-2.023.178-4.035.504-6.041.847-2.009.348-4.021.703-6.054.861z"/><path fill="#99A8AE" d="M14 49.028c2.994-.645 6.043-1.109 9.121-1.152 1.539.016 3.08.16 4.584.495 1.504.323 2.963.866 4.295 1.629a18.372 18.372 0 0 0-4.33-1.467c-1.496-.304-3.023-.418-4.549-.407-3.058-.047-6.089.469-9.121.902z"/><path fill="#99A8AE" d="M18 47.468c2.357-.369 4.748-.701 7.156-.543 1.199.095 2.393.308 3.541.666 1.149.354 2.251.843 3.303 1.409-2.186-.967-4.484-1.688-6.861-1.826-1.184-.097-2.375-.057-3.564.017-1.192.076-2.383.185-3.575.277zm38 3.282c-2.043-.188-4.057-.6-6.064-.999-2.01-.394-4.023-.769-6.055-.974-2.027-.231-4.082-.296-6.104-.016-2.016.284-3.992.913-5.777 1.925 1.734-1.097 3.718-1.794 5.753-2.089 2.037-.312 4.111-.275 6.152-.068 2.043.234 4.057.639 6.063 1.06 2.009.409 4.003.877 6.032 1.161z"/><path fill="#99A8AE" d="M50 49.068c-3.037-.511-6.08-1.101-9.156-1.049-1.533-.008-3.07.131-4.564.485-1.49.36-2.936.917-4.279 1.674a13.995 13.995 0 0 1 4.24-1.836c1.502-.385 3.053-.555 4.602-.572 3.1.038 6.163.578 9.157 1.298z"/><path fill="#99A8AE" d="M46 47.285c-1.199-.113-2.396-.243-3.594-.333-1.197-.087-2.398-.13-3.588-.017-2.391.168-4.678 1.009-6.818 2.101 1.027-.627 2.109-1.176 3.251-1.58a14.425 14.425 0 0 1 3.547-.77c2.429-.191 4.835.19 7.202.599z"/><linearGradient id="a" x1="8" x2="32.001" y1="28.432" y2="28.432" gradientUnits="userSpaceOnUse"><stop offset="0" style="stop-color:#cfd8dd"/><stop offset=".224" style="stop-color:#e1e7eb"/><stop offset=".466" style="stop-color:#eef2f4"/><stop offset=".7" style="stop-color:#f2f5f7"/><stop offset=".762" style="stop-color:#eef1f4"/><stop offset=".827" style="stop-color:#e1e7e9"/><stop offset=".892" style="stop-color:#cdd5d8"/><stop offset=".958" style="stop-color:#b0bcc1"/><stop offset="1" style="stop-color:#99a8ae"/></linearGradient><path fill="url(#a)" d="M8 9.505v37.362c11.973 0 16.049-3.595 24 .996V11.571c-5.216-5.133-16.517-.767-24-2.066z"/><linearGradient id="b" x1="32.001" x2="56" y1="28.432" y2="28.432" gradientUnits="userSpaceOnUse"><stop offset="0" style="stop-color:#99a8ae"/><stop offset=".043" style="stop-color:#b0bcc1"/><stop offset=".108" style="stop-color:#cdd5d8"/><stop offset=".173" style="stop-color:#e1e7e9"/><stop offset=".238" style="stop-color:#eef1f4"/><stop offset=".3" style="stop-color:#f2f5f7"/><stop offset=".534" style="stop-color:#eef2f4"/><stop offset=".776" style="stop-color:#e1e7eb"/><stop offset="1" style="stop-color:#cfd8dd"/></linearGradient><path fill="url(#b)" d="M32 11.571v36.292c7.951-4.591 12.025-.996 24-.996V9.505c-7.482 1.299-18.785-3.067-24 2.066z"/><path fill="#99A8AE" d="M54 11.709c-6.463.354-14.818-2.072-20 .474v.5c5.182-2.546 13.537-.119 20-.474v-.5zm0 2.502c-6.463.354-14.818-2.072-20 .474v.5c5.182-2.546 13.537-.119 20-.474v-.5zm0 2.502c-6.463.354-14.818-2.072-20 .474v.5c5.182-2.546 13.537-.119 20-.474v-.5zm0 2.502c-6.463.354-14.818-2.072-20 .474v.5c5.182-2.546 13.537-.119 20-.474v-.5zm0 2.502c-6.463.354-14.818-2.072-20 .474v.5c5.182-2.546 13.537-.119 20-.474v-.5zm0 2.502c-6.463.354-14.818-2.072-20 .474v.5c5.182-2.546 13.537-.119 20-.474v-.5zm0 2.502c-6.463.354-14.818-2.072-20 .474v.5c5.182-2.546 13.537-.119 20-.474v-.5zm0 2.502c-6.463.354-14.818-2.072-20 .474v.5c5.182-2.546 13.537-.119 20-.474v-.5zm0 2.502c-6.463.354-14.818-2.072-20 .474v.5c5.182-2.546 13.537-.119 20-.474v-.5zm0 2.502c-6.463.354-14.818-2.072-20 .474v.5c5.182-2.546 13.537-.119 20-.474v-.5zm0 2.502c-6.463.354-14.818-2.072-20 .474v.5c5.182-2.546 13.537-.119 20-.474v-.5zm0 2.501c-6.463.354-14.818-2.072-20 .474v.5c5.182-2.546 13.537-.119 20-.474v-.5zm0 2.502c-6.463.354-14.818-2.072-20 .474v.5c5.182-2.546 13.537-.119 20-.474v-.5zm0 2.502c-6.463.354-14.818-2.072-20 .474v.5c5.182-2.546 13.537-.119 20-.474v-.5zM10 11.709c6.461.354 14.817-2.072 20 .474v.5c-5.184-2.546-13.539-.119-20-.474v-.5zm0 2.502c6.461.354 14.817-2.072 20 .474v.5c-5.184-2.546-13.539-.119-20-.474v-.5zm0 2.502c6.461.354 14.817-2.072 20 .474v.5c-5.184-2.546-13.539-.119-20-.474v-.5zm0 2.502c6.461.354 14.817-2.072 20 .474v.5c-5.184-2.546-13.539-.119-20-.474v-.5zm0 2.502c6.461.354 14.817-2.072 20 .474v.5c-5.184-2.546-13.539-.119-20-.474v-.5zm0 2.502c6.461.354 14.817-2.072 20 .474v.5c-5.184-2.546-13.539-.119-20-.474v-.5zm0 2.502c6.461.354 14.817-2.072 20 .474v.5c-5.184-2.546-13.539-.119-20-.474v-.5zm0 2.502c6.461.354 14.817-2.072 20 .474v.5c-5.184-2.546-13.539-.119-20-.474v-.5zm0 2.502c6.461.354 14.817-2.072 20 .474v.5c-5.184-2.546-13.539-.119-20-.474v-.5zm0 2.502c6.461.354 14.817-2.072 20 .474v.5c-5.184-2.546-13.539-.119-20-.474v-.5zm0 2.502c6.461.354 14.817-2.072 20 .474v.5c-5.184-2.546-13.539-.119-20-.474v-.5zm0 2.501c6.461.354 14.817-2.072 20 .474v.5c-5.184-2.546-13.539-.119-20-.474v-.5zm0 2.502c6.461.354 14.817-2.072 20 .474v.5c-5.184-2.546-13.539-.119-20-.474v-.5zm0 2.502c6.461.354 14.817-2.072 20 .474v.5c-5.184-2.546-13.539-.119-20-.474v-.5z"/><path fill="#E81C27" d="M33.959 52.894c-2.091-3.484-2.927-13.607-2.484-39.951.016-.883.025-1.484.025-1.734 0-.277 1-.277 1 0 0 .253-.01.859-.025 1.752-.549 32.576.97 37.136 2.341 39.419.143.237-.574-.056-.574-.056s-.189.726-.283.57z"/></svg>