<svg xmlns="http://www.w3.org/2000/svg" xml:space="preserve" viewBox="0 0 64 64"><path fill="#E6EBEF" d="M51.198 64V23.149C51.198 16.261 36.845 0 32.924 0H0v64h51.198z"/><linearGradient id="a" x1="48.832" x2="32.955" y1="10.114" y2="20.726" gradientUnits="userSpaceOnUse"><stop offset="0" style="stop-color:#4e5e67"/><stop offset=".041" style="stop-color:#5b6a72"/><stop offset=".195" style="stop-color:#859198"/><stop offset=".352" style="stop-color:#a8b1b7"/><stop offset=".51" style="stop-color:#c3cbd0"/><stop offset=".669" style="stop-color:#d7dde1"/><stop offset=".832" style="stop-color:#e2e7ec"/><stop offset="1" style="stop-color:#e6ebef"/></linearGradient><path fill="url(#a)" d="M32.924.016c3.674 0 18.274 14.513 18.274 23.133V46.4S-5.844 39.071 7.312 0l25.612.016z"/><path fill="#99A8AE" d="M5 7h12v1H5zm0 9h40v1H5zm0 4h40v1H5zm0 4h40v1H5zm0 4h40v1H5zm0 4h36v1H5zm0 9h22v1H5zm0 4h40v1H5zm0 4h40v1H5zm0 4h14v1H5zm0 4h6v1H5z"/><linearGradient id="b" x1="548.502" x2="540.459" y1="119.759" y2="111.716" gradientTransform="rotate(-90 241.193 316.13)" gradientUnits="userSpaceOnUse"><stop offset="0" style="stop-color:#d3d7db"/><stop offset=".02" style="stop-color:#d6dade"/><stop offset=".159" style="stop-color:#e9ebed"/><stop offset=".324" style="stop-color:#f5f6f7"/><stop offset=".54" style="stop-color:#fdfdfd"/><stop offset="1" style="stop-color:#fff"/></linearGradient><path fill="url(#b)" d="M32.924.016c4.897 0 18.274 13.802 18.274 23.133 0 0-1.467-8.886-15.153-7.02C37.731 5.462 34.599.261 32.924.016z"/><path fill="#F9C802" d="m35.152 51.14 19.604-19.604 4.377 4.377L39.53 55.517z"/><radialGradient id="c" cx="22.577" cy="-8.012" r="3.706" gradientTransform="matrix(.9787 -.0879 -.0879 .9788 37.632 38.144)" gradientUnits="userSpaceOnUse"><stop offset="0" style="stop-color:#ff709b"/><stop offset=".258" style="stop-color:#f96d97"/><stop offset=".608" style="stop-color:#e8638b"/><stop offset="1" style="stop-color:#cc5478"/></radialGradient><path fill="url(#c)" d="m63.121 28.1-.556-.555c-1.057-1.055-2.545-1.277-3.805-.017l-1.892 1.894 4.375 4.377 1.894-1.894c1.261-1.26 1.038-2.749-.016-3.805z"/><linearGradient id="d" x1="88.014" x2="83.711" y1="48.72" y2="44.299" gradientTransform="translate(-28.016 -13.625)" gradientUnits="userSpaceOnUse"><stop offset="0" style="stop-color:#6e787a"/><stop offset=".612" style="stop-color:#d6dbde"/><stop offset=".693" style="stop-color:#d2d8da"/><stop offset=".768" style="stop-color:#c7cdd0"/><stop offset=".841" style="stop-color:#b4bbbe"/><stop offset=".912" style="stop-color:#9aa2a4"/><stop offset=".981" style="stop-color:#788284"/><stop offset="1" style="stop-color:#6e787a"/></linearGradient><path fill="url(#d)" d="m61.244 33.799-4.377-4.378-2.483 2.482 4.379 4.378z"/><linearGradient id="e" x1="-143.006" x2="-146.407" y1="232.328" y2="228.835" gradientTransform="rotate(45.001 196.865 376.887)" gradientUnits="userSpaceOnUse"><stop offset="0" style="stop-color:#6e787a"/><stop offset=".612" style="stop-color:#d6dbde"/><stop offset=".693" style="stop-color:#d2d8da"/><stop offset=".768" style="stop-color:#c7cdd0"/><stop offset=".841" style="stop-color:#b4bbbe"/><stop offset=".912" style="stop-color:#9aa2a4"/><stop offset=".981" style="stop-color:#788284"/><stop offset="1" style="stop-color:#6e787a"/></linearGradient><path fill="url(#e)" d="m61.244 33.799-4.377-4.378c-.188-.188-.715.34-.527.528.741.744 3.342 3.343 4.377 4.377.187.189.715-.34.527-.527z"/><linearGradient id="f" x1="-143.006" x2="-146.406" y1="233.075" y2="229.582" gradientTransform="rotate(45.001 196.865 376.887)" gradientUnits="userSpaceOnUse"><stop offset="0" style="stop-color:#6e787a"/><stop offset=".612" style="stop-color:#d6dbde"/><stop offset=".693" style="stop-color:#d2d8da"/><stop offset=".768" style="stop-color:#c7cdd0"/><stop offset=".841" style="stop-color:#b4bbbe"/><stop offset=".912" style="stop-color:#9aa2a4"/><stop offset=".981" style="stop-color:#788284"/><stop offset="1" style="stop-color:#6e787a"/></linearGradient><path fill="url(#f)" d="m60.717 34.326-4.377-4.377c-.188-.188-.716.341-.528.527.743.744 3.344 3.343 4.377 4.378.189.188.715-.339.528-.528z"/><linearGradient id="g" x1="-143.006" x2="-146.406" y1="233.821" y2="230.329" gradientTransform="rotate(45.001 196.865 376.887)" gradientUnits="userSpaceOnUse"><stop offset="0" style="stop-color:#6e787a"/><stop offset=".612" style="stop-color:#d6dbde"/><stop offset=".693" style="stop-color:#d2d8da"/><stop offset=".768" style="stop-color:#c7cdd0"/><stop offset=".841" style="stop-color:#b4bbbe"/><stop offset=".912" style="stop-color:#9aa2a4"/><stop offset=".981" style="stop-color:#788284"/><stop offset="1" style="stop-color:#6e787a"/></linearGradient><path fill="url(#g)" d="m60.188 34.854-4.377-4.377c-.188-.188-.715.339-.527.527l4.377 4.378c.188.187.717-.34.527-.528z"/><path fill="#FFE463" d="m54.388 31.909 1.238 1.239-19.24 19.224-1.238-1.239z"/><path fill="#EA8800" d="m57.521 35.037 1.24 1.24-19.225 19.24-1.24-1.239z"/><linearGradient id="h" x1="62.088" x2="65.022" y1="67.073" y2="70.345" gradientTransform="translate(-28.016 -13.625)" gradientUnits="userSpaceOnUse"><stop offset="0" style="stop-color:#fed0ac"/><stop offset=".245" style="stop-color:#fccda8"/><stop offset=".503" style="stop-color:#f5c39b"/><stop offset=".766" style="stop-color:#ebb286"/><stop offset="1" style="stop-color:#de9e6d"/></linearGradient><path fill="url(#h)" d="m35.153 51.138-2.564 5.63 1.303 1.314 5.638-2.567c.123-1.376-1.051-.678-.975-1.502.066-.738-1.161-1.966-1.9-1.9-.941.084-.119-1.099-1.502-.975z"/><linearGradient id="i" x1="60.491" x2="62.205" y1="70.156" y2="71.831" gradientTransform="translate(-28.016 -13.625)" gradientUnits="userSpaceOnUse"><stop offset="0" style="stop-color:#4e5e67"/><stop offset=".374" style="stop-color:#3f4450"/><stop offset=".738" style="stop-color:#343241"/><stop offset="1" style="stop-color:#302c3b"/></linearGradient><path fill="url(#i)" d="M32.139 57.752c-.354.782-.005 1.13.774.776l2.734-1.245-2.262-2.264-1.246 2.733z"/></svg>