<svg xmlns="http://www.w3.org/2000/svg" xml:space="preserve" viewBox="0 0 64 64"><path fill="#C1CACF" d="M15.056 12h38.89v50h-38.89z"/><path fill="#F2F5F7" d="M48.5 41.5h5v4h-5z"/><path fill="#7AB51D" d="M53.5 41.5h6v4h-6z"/><linearGradient id="a" x1="6.092" x2="56.909" y1="19.329" y2="48.669" gradientUnits="userSpaceOnUse"><stop offset="0" style="stop-color:#b9c2c7"/><stop offset=".282" style="stop-color:#c0c8cd"/><stop offset=".685" style="stop-color:#d2d9dd"/><stop offset="1" style="stop-color:#e6ebed"/></linearGradient><path fill="url(#a)" d="M12.057 8.999h38.889v50H12.057z"/><path fill="#99A8AE" d="M18.538 19.185h29.63v.926h-29.63zm0 3.703h29.63v.926h-29.63zm0 3.704h29.63v.926h-29.63zm0 3.703h29.63v.926h-29.63zm0 8.704h29.63v.926h-29.63zm0 4.259h29.63v.927h-29.63zm0 3.704h29.63v.926h-29.63zm0 3.704h29.63v.926h-29.63zm0 3.703h29.63v.926h-29.63z"/><path fill="#E6E9EB" d="M45.502 13.499h5v4h-5z"/><path fill="#E8000D" d="M50.502 13.499h6v4h-6z"/><path fill="#E6EBEF" d="M44.5 52V20.085C44.5 14.704 33.285 2 30.222 2H4.5v50h40z"/><linearGradient id="b" x1="42.651" x2="30.247" y1="9.901" y2="18.193" gradientUnits="userSpaceOnUse"><stop offset="0" style="stop-color:#4e5e67"/><stop offset=".041" style="stop-color:#5b6a72"/><stop offset=".195" style="stop-color:#859198"/><stop offset=".352" style="stop-color:#a8b1b7"/><stop offset=".51" style="stop-color:#c3cbd0"/><stop offset=".669" style="stop-color:#d7dde1"/><stop offset=".832" style="stop-color:#e2e7ec"/><stop offset="1" style="stop-color:#e6ebef"/></linearGradient><path fill="url(#b)" d="M30.222 2.012c2.872 0 14.278 11.338 14.278 18.073V38.25S-.066 32.525 10.212 2l20.01.012z"/><path fill="#99A8AE" d="M8.667 7.833h10v.834h-10zm0 6.667h31.667v.833H8.667zm0 3.333h31.667v.834H8.667zm0 3.334h31.667V22H8.667zm0 3.333h31.667v.833H8.667zm0 3.333h27.5v.834h-27.5zm0 6.667h17.5v.833h-17.5zm0 3.333h31.667v.834H8.667zm0 3.334h31.667V42H8.667zm0 3.333H19.5v.833H8.667zm0 3.333h5v.834h-5z"/><linearGradient id="c" x1="548.433" x2="542.148" y1="114.455" y2="108.171" gradientTransform="rotate(-90 241.193 316.13)" gradientUnits="userSpaceOnUse"><stop offset="0" style="stop-color:#d3d7db"/><stop offset=".02" style="stop-color:#d6dade"/><stop offset=".159" style="stop-color:#e9ebed"/><stop offset=".324" style="stop-color:#f5f6f7"/><stop offset=".54" style="stop-color:#fdfdfd"/><stop offset="1" style="stop-color:#fff"/></linearGradient><path fill="url(#c)" d="M30.222 2.012c3.827 0 14.278 10.783 14.278 18.073 0 0-1.146-6.942-11.84-5.484 1.319-8.333-1.129-12.397-2.438-12.589z"/><path fill="#FFF" d="M38.5 31.999h5v4h-5z"/><path fill="#0FB4D4" d="M43.5 31.999h6v4h-6z"/></svg>