<svg xmlns="http://www.w3.org/2000/svg" xml:space="preserve" viewBox="0 0 64 64"><linearGradient id="a" x1="17.809" x2="25.349" y1="49.278" y2="-5.897" gradientUnits="userSpaceOnUse"><stop offset=".358" style="stop-color:#0fb4d4"/><stop offset=".861" style="stop-color:#0fb4d4;stop-opacity:0"/></linearGradient><path fill="url(#a)" d="M18.878 5.977c-9.191 7.335-11.136 18.727-6.344 30.505L30.253 42C16.919 29.608 12.454 15.47 18.878 5.977z"/><linearGradient id="b" x1="28.179" x2="35.718" y1="50.694" y2="-4.48" gradientUnits="userSpaceOnUse"><stop offset=".358" style="stop-color:#0fb4d4"/><stop offset=".861" style="stop-color:#0fb4d4;stop-opacity:0"/></linearGradient><path fill="url(#b)" d="M26.325 2c-8.043 8.932-8.227 20.379-1.625 30.879l18.538 1.878C28.017 25.341 21.377 12.484 26.325 2z"/><linearGradient id="c" x1="37.587" x2="45.126" y1="51.98" y2="-3.193" gradientUnits="userSpaceOnUse"><stop offset=".358" style="stop-color:#0fb4d4"/><stop offset=".861" style="stop-color:#0fb4d4;stop-opacity:0"/></linearGradient><path fill="url(#c)" d="M39.147 28.576c5.784-.408 9.98-1.508 14.853-1.425-11.305-3.128-22.498-9.434-23.51-16.379-2.489 5.686 2.488 13.311 8.657 17.804z"/><linearGradient id="d" x1="72.49" x2="72.49" y1="31.027" y2="-5.825" gradientTransform="matrix(.9955 -.0952 .1964 .9858 -42.112 35.928)" gradientUnits="userSpaceOnUse"><stop offset="0" style="stop-color:#e6ebed"/><stop offset=".512" style="stop-color:#dbe2e5"/><stop offset="1" style="stop-color:#ccd5d9"/></linearGradient><path fill="url(#d)" d="M60 54.461 11.201 62 4 25.669C32.434 30.847 54.463 24 54.463 24L60 54.461z"/><path fill="#99A8AE" d="M32.536 30.334 11.201 62C36.52 51.249 60 54.461 60 54.461L32.536 30.334z"/><linearGradient id="e" x1="72.23" x2="72.23" y1="31.027" y2="2.661" gradientTransform="matrix(.9955 -.0952 .1964 .9858 -42.112 35.928)" gradientUnits="userSpaceOnUse"><stop offset="0" style="stop-color:#e6ebed"/><stop offset=".26" style="stop-color:#e3e9eb"/><stop offset=".454" style="stop-color:#dae1e4"/><stop offset=".576" style="stop-color:#cfd8dd"/></linearGradient><path fill="url(#e)" d="M32.746 31.445 11.201 62 60 54.461z"/><path fill="#99A8AE" d="M34.798 48.124 4 25.669C33.25 31.22 54.463 24 54.463 24L36.948 47.871c-.495.678-1.416.787-2.15.253z"/><linearGradient id="f" x1="72.508" x2="72.508" y1="18.052" y2="-71.806" gradientTransform="matrix(.9955 -.0952 .1964 .9858 -42.112 35.928)" gradientUnits="userSpaceOnUse"><stop offset="0" style="stop-color:#b9c2c7"/><stop offset=".046" style="stop-color:#c2cacf"/><stop offset=".203" style="stop-color:#dce2e5"/><stop offset=".297" style="stop-color:#e6ebed"/></linearGradient><path fill="url(#f)" d="M34.644 47.162 4 25.669 54.463 24 36.741 46.921c-.495.642-1.38.745-2.097.241z"/><linearGradient id="g" x1="72.508" x2="72.508" y1="18.902" y2="-5.825" gradientTransform="matrix(.9955 -.0952 .1964 .9858 -42.112 35.928)" gradientUnits="userSpaceOnUse"><stop offset="0" style="stop-color:#e6ebed"/><stop offset=".582" style="stop-color:#e3e9ec"/><stop offset="1" style="stop-color:#dae3e8"/></linearGradient><path fill="url(#g)" d="M34.644 47.162 4 25.669 54.463 24 36.741 46.921c-.495.642-1.38.745-2.097.241z"/></svg>