<svg xmlns="http://www.w3.org/2000/svg" xml:space="preserve" style="enable-background:new 0 0 64 64" viewBox="0 0 64 64"><path d="M54.36 51.02h5.55l-1.11 6.64h-4.44z" style="fill:#ff000e"/><linearGradient id="a" x1="28.178" x2="28.178" y1="64" y2="0" gradientUnits="userSpaceOnUse"><stop offset=".806" style="stop-color:#ff000e"/><stop offset="1" style="stop-color:#cf0000"/></linearGradient><path d="M54.36 0H12.01C7.09 0 2 6.95 2 26v38h4.45v-6h33.33v6h4.44L54.36 0z" style="fill:url(#a)"/><path d="M34.07 31.26c2.45 0 4.44 1.79 4.44 4v13.48c0 2.2-1.99 4-4.44 4H12.16c-2.45 0-4.44-1.8-4.44-4V35.26c0-2.21 1.99-4 4.44-4h21.91m0-.53H12.16c-2.76 0-5 2.03-5 4.53v13.48c0 2.5 2.24 4.53 5 4.53h21.91c2.76 0 5-2.03 5-4.53V35.26c0-2.5-2.25-4.53-5-4.53z" style="fill:#b00505"/><linearGradient id="b" x1="29.849" x2="29.849" y1="19.113" y2="3.513" gradientUnits="userSpaceOnUse"><stop offset="0" style="stop-color:#ff000e"/><stop offset="1" style="stop-color:#b80000"/></linearGradient><path d="M44.25 3.51h-28.8v15.6h24.58c.6-7.61 2.19-12.62 4.22-15.6z" style="fill:url(#b)"/><path d="M21.13 19.11c-3.33.43-12.98 3.38-12.98 3.38h31.69c.04-1.18.11-2.31.19-3.38h-18.9z" style="fill:#b00505"/><linearGradient id="c" x1="53.112" x2="53.112" y1="64" y2="0" gradientUnits="userSpaceOnUse"><stop offset="0" style="stop-color:#870000"/><stop offset="1" style="stop-color:#b30000"/></linearGradient><path d="M54.22 0c-4.91 0-10 6.95-10 26v38l3.2-1.45v-5.99l11.38-5.12v6.21l3.2-1.72V20c0-11.04-2.87-20-7.78-20z" style="fill:url(#c)"/><path d="M37.8 8.07h-5.56c-.3 0-.3-.53 0-.53h5.56c.31 0 .31.53 0 .53z" style="fill:#910404"/><linearGradient id="d" x1="14.64" x2="14.64" y1="22.494" y2="3.513" gradientUnits="userSpaceOnUse"><stop offset="0" style="stop-color:#870000"/><stop offset="1" style="stop-color:#b30000"/></linearGradient><path d="M21.13 19.11c0-8.06-2.09-15.6-5.68-15.6-3.58 0-7.3 5.08-7.3 18.98l12.98-3.38z" style="fill:url(#d)"/><path d="m15.38 43.55-2.12-4.84h-1.15v6.58h1.27v-3.54l1.52 3.54h.94l1.5-3.57.01 3.57h1.28v-6.58h-1.14zm6.84-4.84-3.02 6.58h1.45l.63-1.46h3.07l.63 1.46h1.43l-3.02-6.58h-1.17zm-.46 4.02 1.07-2.47 1.06 2.47h-2.13zm5.21-4.02h1.44v6.58h-1.44zm4.2 5.41v-5.41h-1.44v6.58h4.38v-1.17z" style="fill:#fff"/></svg>