<svg xmlns="http://www.w3.org/2000/svg" xml:space="preserve" style="enable-background:new 0 0 64 64" viewBox="0 0 64 64"><linearGradient id="a" x1="27" x2="41" y1="52" y2="52" gradientUnits="userSpaceOnUse"><stop offset=".17" style="stop-color:#9e6c48"/><stop offset=".348" style="stop-color:#996948"/><stop offset=".55" style="stop-color:#8c6148"/><stop offset=".739" style="stop-color:#785647"/></linearGradient><path d="M27 42h14v20H27z" style="fill:url(#a)"/><radialGradient id="b" cx="30.642" cy="13.71" r="11.368" gradientTransform="matrix(-.0878 -.9737 4.9807 -.4291 -34.95 53.293)" gradientUnits="userSpaceOnUse"><stop offset="0" style="stop-color:#abbdc5"/><stop offset=".26" style="stop-color:#a7b8c0"/><stop offset=".566" style="stop-color:#9aaab2"/><stop offset=".895" style="stop-color:#86949a"/><stop offset="1" style="stop-color:#7e8b91"/></radialGradient><path d="M45.82 6c-8.94 0-28.69 1.03-28.69 1.03L33.31 49 62 42.94V20.72C62 12.03 54.75 6 45.82 6z" style="fill:url(#b)"/><path d="M36.99 48.34c-.88.44-3.68.66-3.68.66s-.51-3.58 0-6.88c.61 2.35 2.25.99 3.68 1.76 1.64.9 1.41 3.76 0 4.46z" style="fill:#687a82"/><path d="M17.13 7.03C8.19 7.03 2 14.08 2 22.78V46.6L33.31 49V22.78c0-8.7-7.24-15.75-16.18-15.75z" style="fill:#6e8189"/><linearGradient id="c" x1="17.373" x2="17.373" y1="48.324" y2="7.703" gradientUnits="userSpaceOnUse"><stop offset="0" style="stop-color:#7e8b91"/><stop offset=".147" style="stop-color:#859399"/><stop offset="1" style="stop-color:#abbdc5"/></linearGradient><path d="M16.85 7.7c-8.63 0-14.57 6.84-14.57 15.27v23.29l30.19 2.06V22.97c0-8.43-7-15.27-15.62-15.27z" style="fill:url(#c)"/><linearGradient id="d" x1="572.766" x2="572.766" y1="346.383" y2="353.557" gradientTransform="rotate(180 295.212 180.72)" gradientUnits="userSpaceOnUse"><stop offset="0" style="stop-color:#1a1626;stop-opacity:0"/><stop offset=".939" style="stop-color:#1a1626;stop-opacity:.15"/></linearGradient><path d="M19.49 12.79V7.88l-3.67.82v4.1c0 3.01 3.67 3.01 3.67-.01z" style="fill:url(#d)"/><radialGradient id="e" cx="574.06" cy="350.848" r="2.889" gradientTransform="matrix(.0287 -.9996 9.9959 .2871 -3507.145 483.7)" gradientUnits="userSpaceOnUse"><stop offset=".091" style="stop-color:#6e8189"/><stop offset=".266" style="stop-color:#677880"/><stop offset=".556" style="stop-color:#555e69"/><stop offset=".924" style="stop-color:#373544"/><stop offset="1" style="stop-color:#302c3b"/></radialGradient><path d="M15.88 13.68c1.05 0 1.77-.83 1.77-1.86 0-1.69.83-3.91 1.82-3.91 0 0-2.19-.41-3.52-.19-.99.16-1.97 2.22-1.97 4.1 0 1.03.86 1.86 1.9 1.86z" style="fill:url(#e)"/><radialGradient id="f" cx="35.631" cy="67.335" r="1.577" gradientTransform="matrix(1 0 0 1.1667 0 -32.796)" gradientUnits="userSpaceOnUse"><stop offset=".091" style="stop-color:#cfd8dd"/><stop offset=".59" style="stop-color:#a0abb0"/><stop offset="1" style="stop-color:#7e8a8f"/></radialGradient><path d="M37.08 46.17c0 2-2.57 2-2.57 0s2.57-2 2.57 0z" style="fill:url(#f)"/><linearGradient id="g" x1="18.109" x2="16.035" y1="40.788" y2="29.028" gradientUnits="userSpaceOnUse"><stop offset="0" style="stop-color:#abbdc5"/><stop offset="1" style="stop-color:#6e8189"/></linearGradient><path d="M27.16 39.18h-.05L6.93 37.82a.8.8 0 0 1-.73-.78v-5.66c0-.4.33-.73.73-.73l20.22.97c.41.02.74.37.74.77v6.08c0 .19-.07.38-.21.51a.75.75 0 0 1-.52.2zM6.93 31.15c-.14 0-.24.1-.24.23v5.66c0 .14.12.27.27.28l20.19 1.36.02.25v-.25c.06 0 .12-.02.15-.06.04-.04.06-.1.06-.16v-6.08c0-.14-.12-.27-.26-.27l-20.19-.96z" style="fill:url(#g)"/><linearGradient id="h" x1="-359.892" x2="-359.892" y1="361.273" y2="336.539" gradientTransform="rotate(90 1.598 395.28)" gradientUnits="userSpaceOnUse"><stop offset="0" style="stop-color:#cf0000"/><stop offset="1" style="stop-color:#ff000e"/></linearGradient><path d="M60.34 40V26.2l-22.73 4.07c-2.67 0-2.67 4 0 4l16.67-3.17v10.28L60.34 40z" style="fill:url(#h)"/><path d="m41.13 28.9-6.35 7.35-.78.14v-6.95l7.13-.97z" style="fill:#1a1626"/><linearGradient id="i" x1="38.604" x2="37.608" y1="35.643" y2="29.355" gradientUnits="userSpaceOnUse"><stop offset=".83" style="stop-color:#302c3b"/><stop offset=".875" style="stop-color:#343240"/><stop offset=".935" style="stop-color:#3e434f"/><stop offset="1" style="stop-color:#4e5e67"/></linearGradient><path d="m41.13 28.9-6.65.95.29.3.01 6.1 6.74-1.18-.03-5.94z" style="fill:url(#i)"/><path d="m10.23 27.73-2.02-5.14-.85-.04v6.47l.94.04V25.1l1.57 4.03.71.02 1.55-3.93.01 4 .95.04v-6.48l-.85-.03zm6.16-4.81-2.66 6.36 1.07.04.6-1.49 2.87.12.59 1.54 1.06.04-2.66-6.58-.87-.03zm-.63 4.02 1.08-2.72 1.08 2.81-2.16-.09zm4.8 2.62 1.06.04v-6.47l-1.06-.04zm3.41-.82v-5.51l-1.07-.05v6.48l3.81.15v-.96z" style="fill:#6e8189"/></svg>