<svg xmlns="http://www.w3.org/2000/svg" xml:space="preserve" style="enable-background:new 0 0 64 64" viewBox="0 0 64 64"><path d="M31.44 37.83v6.71c0 .77-1.01.77-1.01 0v-6.71c-.01-.83 1.01-.83 1.01 0z" style="fill:#b00505"/><linearGradient id="a" x1="25.584" x2="29.851" y1="52.66" y2="52.66" gradientTransform="translate(3.213 -.84)" gradientUnits="userSpaceOnUse"><stop offset="0" style="stop-color:#ff3641"/><stop offset=".273" style="stop-color:#fc343f"/><stop offset=".477" style="stop-color:#f22e39"/><stop offset=".657" style="stop-color:#e2242e"/><stop offset=".825" style="stop-color:#cc151f"/><stop offset=".983" style="stop-color:#af020b"/><stop offset="1" style="stop-color:#ab0009"/></linearGradient><path d="M30.93 45.86c-1.86-.87-2.27 6.71-2.1 9.42.02-.19.07-1.78.22-2.84-.11 2.02-.06 4.23-.06 4.45 0 .22.29.33.29.33-.05-1.24.07-2.49.07-2.49s-.09 1.6.03 2.6c.37.27.69.33.69.33-.07-1.5.21-5.78.21-5.78s-.2 3.93-.04 5.87c.26.08.71.09.71.09s.45-.01.7-.09c.16-1.94-.04-5.87-.04-5.87s.28 4.28.21 5.78c0 0 .32-.06.69-.33.12-1 .02-2.6.02-2.6s.12 1.25.07 2.49c0 0 .29-.11.29-.33 0-.22.05-2.44-.06-4.45.15 1.06.2 2.66.22 2.84.15-2.7-.26-10.29-2.12-9.42z" style="fill:url(#a)"/><path d="M31.58 45.86c0 .34-1.31.34-1.31 0s1.31-.34 1.31 0z" style="fill:#b00505"/><linearGradient id="b" x1="26.811" x2="28.625" y1="45.831" y2="45.831" gradientTransform="translate(3.213 -.84)" gradientUnits="userSpaceOnUse"><stop offset="0" style="stop-color:#ff3641"/><stop offset=".273" style="stop-color:#fc343f"/><stop offset=".477" style="stop-color:#f22e39"/><stop offset=".657" style="stop-color:#e2242e"/><stop offset=".825" style="stop-color:#cc151f"/><stop offset=".983" style="stop-color:#af020b"/><stop offset="1" style="stop-color:#ab0009"/></linearGradient><path d="M31.84 44.99c0 1.24-1.81 1.24-1.81 0-.01-1.24 1.81-1.24 1.81 0z" style="fill:url(#b)"/><path d="M25.5 39.98v6.71c0 .77-1.01.77-1.01 0v-6.71c-.01-.83 1.01-.83 1.01 0z" style="fill:#b00505"/><linearGradient id="c" x1="19.643" x2="23.911" y1="54.813" y2="54.813" gradientTransform="translate(3.213 -.84)" gradientUnits="userSpaceOnUse"><stop offset="0" style="stop-color:#ff3641"/><stop offset=".273" style="stop-color:#fc343f"/><stop offset=".477" style="stop-color:#f22e39"/><stop offset=".657" style="stop-color:#e2242e"/><stop offset=".825" style="stop-color:#cc151f"/><stop offset=".983" style="stop-color:#af020b"/><stop offset="1" style="stop-color:#ab0009"/></linearGradient><path d="M24.99 48.02c-1.86-.87-2.27 6.71-2.1 9.42.02-.19.07-1.78.22-2.85-.11 2.02-.06 4.23-.06 4.45 0 .22.29.33.29.33-.05-1.24.07-2.49.07-2.49s-.09 1.6.03 2.6c.37.27.69.33.69.33-.07-1.5.21-5.78.21-5.78s-.2 3.93-.04 5.87c.26.08.71.09.71.09s.45-.01.7-.09c.16-1.94-.04-5.87-.04-5.87s.28 4.28.21 5.78c0 0 .32-.06.69-.33.12-1 .03-2.6.03-2.6s.11 1.25.07 2.49c0 0 .29-.11.29-.33 0-.22.05-2.44-.06-4.45.15 1.06.2 2.66.22 2.85.14-2.71-.27-10.29-2.13-9.42z" style="fill:url(#c)"/><path d="M25.64 48.02c0 .34-1.31.34-1.31 0 .01-.34 1.31-.34 1.31 0z" style="fill:#b00505"/><linearGradient id="d" x1="20.869" x2="22.685" y1="47.985" y2="47.985" gradientTransform="translate(3.213 -.84)" gradientUnits="userSpaceOnUse"><stop offset="0" style="stop-color:#ff3641"/><stop offset=".273" style="stop-color:#fc343f"/><stop offset=".477" style="stop-color:#f22e39"/><stop offset=".657" style="stop-color:#e2242e"/><stop offset=".825" style="stop-color:#cc151f"/><stop offset=".983" style="stop-color:#af020b"/><stop offset="1" style="stop-color:#ab0009"/></linearGradient><path d="M25.9 47.15c0 1.24-1.82 1.24-1.82 0 0-1.25 1.82-1.25 1.82 0z" style="fill:url(#d)"/><linearGradient id="e" x1="43.666" x2="46.131" y1="13.101" y2="38.904" gradientTransform="translate(3.213 -.84)" gradientUnits="userSpaceOnUse"><stop offset="0" style="stop-color:#f7dd45"/><stop offset=".18" style="stop-color:#f5d742"/><stop offset=".43" style="stop-color:#efc538"/><stop offset=".72" style="stop-color:#e5a729"/><stop offset="1" style="stop-color:#d98416"/></linearGradient><path d="M47.97 12.16c-.51 1.61.77 7.29-.92 10.99-1.8 3.94-6.73 8.75-12.82 11.65v4.71c7.56-3.35 15.58-8.57 19.35-9.78 2.26-.73 8.41-1.07 10.07-1.74L47.97 12.16z" style="fill:url(#e)"/><path d="M48.04 11.85c-1.52 1.54 14.38 17.61 15.9 16.06 1.11-1.12-14.79-17.18-15.9-16.06z" style="fill:#f7dd45"/><linearGradient id="f" x1="-458.933" x2="-456.319" y1="950.54" y2="950.54" gradientTransform="rotate(134.999 -8.131 591.607)" gradientUnits="userSpaceOnUse"><stop offset="0" style="stop-color:#e69800"/><stop offset=".145" style="stop-color:#e19500"/><stop offset=".307" style="stop-color:#d48c00"/><stop offset=".477" style="stop-color:#be7d00"/><stop offset=".653" style="stop-color:#9e6800"/><stop offset=".831" style="stop-color:#774e00"/><stop offset="1" style="stop-color:#4a3000"/></linearGradient><path d="M48.2 11.88c-1.42 1.43 14.29 17.31 15.71 15.88 1.03-1.04-14.68-16.92-15.71-15.88z" style="fill:url(#f)"/><linearGradient id="g" x1="-174.887" x2="-174.887" y1="75.48" y2="66.215" gradientTransform="rotate(18.096 39.057 647.405)" gradientUnits="userSpaceOnUse"><stop offset="0" style="stop-color:#d98416"/><stop offset=".28" style="stop-color:#e5a729"/><stop offset=".57" style="stop-color:#efc538"/><stop offset=".82" style="stop-color:#f5d742"/><stop offset="1" style="stop-color:#f7dd45"/></linearGradient><path d="M23.35 35.62c-9.15-.87-11.77-4.4-16.04-8.66l-2.38 2.38c3.75 3.61 9.01 9.7 18.03 10.56 1.19.12 1.59-4.17.39-4.28z" style="fill:url(#g)"/><radialGradient id="h" cx="24.394" cy="19.554" r="19.211" gradientTransform="translate(3.213 -.84)" gradientUnits="userSpaceOnUse"><stop offset="0" style="stop-color:#f7dd45"/><stop offset=".435" style="stop-color:#f6db44"/><stop offset=".606" style="stop-color:#f4d440"/><stop offset=".731" style="stop-color:#f0c83a"/><stop offset=".833" style="stop-color:#eab731"/><stop offset=".92" style="stop-color:#e3a025"/><stop offset=".997" style="stop-color:#d98517"/><stop offset="1" style="stop-color:#d98416"/></radialGradient><path d="M27.44 4C17.43 4 9.32 12.19 9.32 22.3c0 10.11 8.12 18.3 18.12 18.3 10.01 0 18.12-8.19 18.12-18.3C45.56 12.19 37.45 4 27.44 4zm0 31.68c-7.32 0-13.25-5.99-13.25-13.38 0-7.39 5.93-13.38 13.25-13.38s13.25 5.99 13.25 13.38c0 7.39-5.93 13.38-13.25 13.38z" style="fill:url(#h)"/><linearGradient id="i" x1="17.321" x2="18.806" y1="37.599" y2="37.599" gradientTransform="translate(3.213 -.84)" gradientUnits="userSpaceOnUse"><stop offset="0" style="stop-color:#ff3641"/><stop offset=".273" style="stop-color:#fc343f"/><stop offset=".477" style="stop-color:#f22e39"/><stop offset=".657" style="stop-color:#e2242e"/><stop offset=".825" style="stop-color:#cc151f"/><stop offset=".983" style="stop-color:#af020b"/><stop offset="1" style="stop-color:#ab0009"/></linearGradient><path d="M20.53 33.43v6.71c0 .76 1.49.76 1.49 0v-6.71c0-.83-1.49-.83-1.49 0z" style="fill:url(#i)"/><linearGradient id="j" x1="18.806" x2="20.291" y1="38.035" y2="38.035" gradientTransform="translate(3.213 -.84)" gradientUnits="userSpaceOnUse"><stop offset="0" style="stop-color:#ff3641"/><stop offset=".273" style="stop-color:#fc343f"/><stop offset=".477" style="stop-color:#f22e39"/><stop offset=".657" style="stop-color:#e2242e"/><stop offset=".825" style="stop-color:#cc151f"/><stop offset=".983" style="stop-color:#af020b"/><stop offset="1" style="stop-color:#ab0009"/></linearGradient><path d="M22.02 33.87v6.71c0 .76 1.49.76 1.49 0v-6.71c-.01-.84-1.49-.84-1.49 0z" style="fill:url(#j)"/><linearGradient id="k" x1="20.291" x2="21.777" y1="38.225" y2="38.225" gradientTransform="translate(3.213 -.84)" gradientUnits="userSpaceOnUse"><stop offset="0" style="stop-color:#ff3641"/><stop offset=".273" style="stop-color:#fc343f"/><stop offset=".477" style="stop-color:#f22e39"/><stop offset=".657" style="stop-color:#e2242e"/><stop offset=".825" style="stop-color:#cc151f"/><stop offset=".983" style="stop-color:#af020b"/><stop offset="1" style="stop-color:#ab0009"/></linearGradient><path d="M23.5 34.05v6.71c0 .77 1.49.77 1.49 0v-6.71c0-.82-1.49-.82-1.49 0z" style="fill:url(#k)"/><linearGradient id="l" x1="21.777" x2="23.263" y1="38.588" y2="38.588" gradientTransform="translate(3.213 -.84)" gradientUnits="userSpaceOnUse"><stop offset="0" style="stop-color:#ff3641"/><stop offset=".273" style="stop-color:#fc343f"/><stop offset=".477" style="stop-color:#f22e39"/><stop offset=".657" style="stop-color:#e2242e"/><stop offset=".825" style="stop-color:#cc151f"/><stop offset=".983" style="stop-color:#af020b"/><stop offset="1" style="stop-color:#ab0009"/></linearGradient><path d="M24.99 34.42v6.71c0 .76 1.49.76 1.49 0v-6.71c0-.83-1.49-.83-1.49 0z" style="fill:url(#l)"/><linearGradient id="m" x1="23.263" x2="24.748" y1="38.757" y2="38.757" gradientTransform="translate(3.213 -.84)" gradientUnits="userSpaceOnUse"><stop offset="0" style="stop-color:#ff3641"/><stop offset=".273" style="stop-color:#fc343f"/><stop offset=".477" style="stop-color:#f22e39"/><stop offset=".657" style="stop-color:#e2242e"/><stop offset=".825" style="stop-color:#cc151f"/><stop offset=".983" style="stop-color:#af020b"/><stop offset="1" style="stop-color:#ab0009"/></linearGradient><path d="M26.48 34.59v6.71c0 .77 1.49.77 1.49 0v-6.71c-.01-.83-1.49-.83-1.49 0z" style="fill:url(#m)"/><linearGradient id="n" x1="30.689" x2="32.174" y1="37.161" y2="37.161" gradientTransform="translate(3.213 -.84)" gradientUnits="userSpaceOnUse"><stop offset="0" style="stop-color:#ff3641"/><stop offset=".273" style="stop-color:#fc343f"/><stop offset=".477" style="stop-color:#f22e39"/><stop offset=".657" style="stop-color:#e2242e"/><stop offset=".825" style="stop-color:#cc151f"/><stop offset=".983" style="stop-color:#af020b"/><stop offset="1" style="stop-color:#ab0009"/></linearGradient><path d="M35.39 32.99v6.71c0 .77-1.49.77-1.49 0v-6.71c0-.83 1.49-.83 1.49 0z" style="fill:url(#n)"/><linearGradient id="o" x1="29.203" x2="30.689" y1="37.748" y2="37.748" gradientTransform="translate(3.213 -.84)" gradientUnits="userSpaceOnUse"><stop offset="0" style="stop-color:#ff3641"/><stop offset=".273" style="stop-color:#fc343f"/><stop offset=".477" style="stop-color:#f22e39"/><stop offset=".657" style="stop-color:#e2242e"/><stop offset=".825" style="stop-color:#cc151f"/><stop offset=".983" style="stop-color:#af020b"/><stop offset="1" style="stop-color:#ab0009"/></linearGradient><path d="M33.9 33.58v6.71c0 .76-1.49.76-1.49 0v-6.71c.01-.83 1.49-.83 1.49 0z" style="fill:url(#o)"/><linearGradient id="p" x1="27.718" x2="29.203" y1="38.225" y2="38.225" gradientTransform="translate(3.213 -.84)" gradientUnits="userSpaceOnUse"><stop offset="0" style="stop-color:#ff3641"/><stop offset=".273" style="stop-color:#fc343f"/><stop offset=".477" style="stop-color:#f22e39"/><stop offset=".657" style="stop-color:#e2242e"/><stop offset=".825" style="stop-color:#cc151f"/><stop offset=".983" style="stop-color:#af020b"/><stop offset="1" style="stop-color:#ab0009"/></linearGradient><path d="M32.42 34.05v6.71c0 .77-1.49.77-1.49 0v-6.71c0-.82 1.49-.82 1.49 0z" style="fill:url(#p)"/><linearGradient id="q" x1="26.234" x2="27.718" y1="38.588" y2="38.588" gradientTransform="translate(3.213 -.84)" gradientUnits="userSpaceOnUse"><stop offset="0" style="stop-color:#ff3641"/><stop offset=".273" style="stop-color:#fc343f"/><stop offset=".477" style="stop-color:#f22e39"/><stop offset=".657" style="stop-color:#e2242e"/><stop offset=".825" style="stop-color:#cc151f"/><stop offset=".983" style="stop-color:#af020b"/><stop offset="1" style="stop-color:#ab0009"/></linearGradient><path d="M30.93 34.42v6.71c0 .76-1.48.76-1.48 0v-6.71c0-.83 1.48-.83 1.48 0z" style="fill:url(#q)"/><linearGradient id="r" x1="24.748" x2="26.234" y1="38.757" y2="38.757" gradientTransform="translate(3.213 -.84)" gradientUnits="userSpaceOnUse"><stop offset="0" style="stop-color:#ff3641"/><stop offset=".273" style="stop-color:#fc343f"/><stop offset=".477" style="stop-color:#f22e39"/><stop offset=".657" style="stop-color:#e2242e"/><stop offset=".825" style="stop-color:#cc151f"/><stop offset=".983" style="stop-color:#af020b"/><stop offset="1" style="stop-color:#ab0009"/></linearGradient><path d="M29.45 34.59v6.71c0 .77-1.49.77-1.49 0v-6.71c0-.83 1.49-.83 1.49 0z" style="fill:url(#r)"/><linearGradient id="s" x1="-46.923" x2="-40.039" y1="-221.849" y2="-221.849" gradientTransform="rotate(-45.001 280.096 -155.445)" gradientUnits="userSpaceOnUse"><stop offset="0" style="stop-color:#d98416"/><stop offset=".423" style="stop-color:#e6ab2b"/><stop offset="1" style="stop-color:#f7dd45"/></linearGradient><path d="M4.74 22.07c-.45-.13-1.69.84-2.79 1.94S-.12 26.35.01 26.8c.07.24.65.96 1.02.59.74-.74 2.58-.45 2.58.82 0 .88 1.15.39 1.15 1.19 0 .92 1.03.32 1.97-.62s1.54-1.97.62-1.97c-.81 0-.31-1.15-1.19-1.15-1.27 0-1.56-1.84-.82-2.58.36-.36-.36-.94-.6-1.01z" style="fill:url(#s)"/><path d="M5.35 22.99S3.21 25.26.94 27.4c2.73-2.06 4.41-4.41 4.41-4.41zm1.43 3.42s-1.18 1.25-2.43 2.43c1.5-1.14 2.43-2.43 2.43-2.43zm-3.15 1.71s1.18-1.25 2.43-2.43c-1.5 1.14-2.43 2.43-2.43 2.43zm3.71-1.28S6.1 28.16 4.78 29.4c1.58-1.2 2.56-2.56 2.56-2.56z" style="opacity:.3;fill:#d98416"/></svg>