<svg xmlns="http://www.w3.org/2000/svg" xml:space="preserve" viewBox="0 0 64 64"><linearGradient id="a" x1="45.343" x2="45.343" y1="62" y2="16.185" gradientUnits="userSpaceOnUse"><stop offset="0" style="stop-color:#b3815d"/><stop offset=".217" style="stop-color:#bf8c66"/><stop offset=".687" style="stop-color:#d49e75"/><stop offset="1" style="stop-color:#dba57b"/></linearGradient><path fill="url(#a)" d="M31.9 31.561C29.167 36.025 31.9 62 31.9 62c2.081 0 25.53-15.406 26.282-16.238.91-1.012 2.553-28.359 1.453-29.578 0 0-23.75 8.871-27.735 15.377z"/><linearGradient id="b" x1="31.9" x2="31.9" y1="31.561" y2="2.001" gradientUnits="userSpaceOnUse"><stop offset="0" style="stop-color:#ebb68d"/><stop offset=".318" style="stop-color:#e4af87"/><stop offset=".796" style="stop-color:#cf9c77"/><stop offset="1" style="stop-color:#c4926e"/></linearGradient><path fill="url(#b)" d="M31.9 2C30.685 2 5.556 14.627 4.166 16.168c0 0 8.891 14.023 27.734 15.393l27.735-15.377C57.863 14.217 33.219 2 31.9 2z"/><path fill="#9E6C49" d="m31.9 31.561 27.735-15.377C56.65 17.276 39.297 26.62 31.9 31.561z"/><linearGradient id="c" x1="8.246" x2="28.728" y1="48.872" y2="28.39" gradientUnits="userSpaceOnUse"><stop offset="0" style="stop-color:#e0b18b"/><stop offset=".352" style="stop-color:#e6b690"/><stop offset=".816" style="stop-color:#f6c49c"/><stop offset="1" style="stop-color:#ffcba3"/></linearGradient><path fill="url(#c)" d="M4.166 16.168c-.701.775 1.008 29.562 1.65 30.273C6.271 46.945 29.351 62 31.9 62V31.561L4.166 16.168z"/><linearGradient id="d" x1="16.595" x2="50.03" y1="15.295" y2="15.295" gradientUnits="userSpaceOnUse"><stop offset="0" style="stop-color:#785647"/><stop offset=".2" style="stop-color:#7f5c4b"/><stop offset=".502" style="stop-color:#946c55"/><stop offset=".866" style="stop-color:#b68767"/><stop offset="1" style="stop-color:#c4926e"/></linearGradient><path fill="url(#d)" d="M50.027 21.047c-11.984-6.678-28-14.51-28-14.51l-5.432 2.734s15.205 7.51 27.991 14.781c1.529-.014 5.572-1.37 5.441-3.005z"/><path fill="#1A1626" d="M19.494 7.813s15.129 7.549 27.913 14.82c-12.659-7.617-27.913-14.82-27.913-14.82z" opacity=".1"/><linearGradient id="e" x1="47.407" x2="47.407" y1="35.303" y2="21.048" gradientUnits="userSpaceOnUse"><stop offset="0" style="stop-color:#785647"/><stop offset=".159" style="stop-color:#896450"/><stop offset=".508" style="stop-color:#a97d60"/><stop offset=".8" style="stop-color:#bd8c6a"/><stop offset="1" style="stop-color:#c4926e"/></linearGradient><path fill="url(#e)" d="M50.027 21.047s-2.467 1.676-5.441 3.006c.176 4.898.031 11.25.031 11.25l5.449-3.375c0-.001.391-5.308-.039-10.881z"/><linearGradient id="f" x1="48.036" x2="46.203" y1="52.428" y2="47.177" gradientUnits="userSpaceOnUse"><stop offset="0" style="stop-color:#785647"/><stop offset=".2" style="stop-color:#7f5c4b"/><stop offset=".502" style="stop-color:#946c55"/><stop offset=".866" style="stop-color:#b68767"/><stop offset="1" style="stop-color:#c4926e"/></linearGradient><path fill="url(#f)" d="M50.229 46.439s-2.268 1.406-5.34 3.229c-.034 3.02-.307 5.133-.307 5.133l5.484-3.523c0-.001.223-2.026.163-4.839z"/><path fill="#F2F5F7" d="m5.925 19.731 6.237 3.486.314 11.168-6.236-3.492z"/><path fill="#4E5E67" d="M6.708 24.838v.342l4.954 2.773v-.346zm.348 5.591-.129-4.555-.234-.135.129 4.555zm.211.145-.129-4.556-.082-.071.129 4.555zm.516.271-.129-4.555-.235-.135.129 4.555zm.211.145-.129-4.556-.082-.071.129 4.555zm.515.271-.129-4.555-.234-.135.129 4.555zm.211.145-.129-4.556-.082-.071.129 4.555zm.363.208-.128-4.556-.082-.071.128 4.555zm.516.271L9.47 27.33l-.234-.135.129 4.555zm.211.145-.129-4.556-.082-.071.129 4.555zm.516.271-.129-4.555-.235-.135.129 4.556zm.211.145-.129-4.556-.082-.071.129 4.556zm.363.208-.129-4.556-.082-.071.129 4.556zm.363.208-.129-4.556-.082-.071.129 4.556zm.516.271-.129-4.555-.234-.135.128 4.556zM6.66 22.475c-.004-.025.002-.036.014-.03l.059.034c.01.006.016.021.016.045.008.078.037.132.08.156.047.026.066-.008.064-.069-.004-.078-.041-.134-.086-.194-.068-.095-.15-.202-.158-.434-.008-.208.061-.275.137-.231s.15.184.164.4c.002.027-.004.037-.014.03l-.059-.033c-.01-.006-.016-.021-.018-.046-.008-.073-.033-.122-.068-.143-.035-.021-.057.012-.053.073.002.08.035.135.078.197.068.093.156.2.164.432.008.209-.059.275-.145.227-.084-.048-.162-.191-.175-.414zm.683-.344.037 1.016c.002.024-.004.033-.014.028l-.058-.035c-.012-.005-.018-.021-.018-.046l-.016-.42-.152-.087.016.421c.004.023-.002.033-.012.029l-.061-.035c-.01-.006-.016-.022-.016-.047l-.038-1.015c0-.022.004-.033.014-.027l.059.034c.012.006.018.022.018.047l.016.389.152.087-.016-.389c-.002-.023.002-.035.014-.029l.059.033c.008.005.016.023.016.046zm.098.021.059.035c.01.005.016.022.018.047l.037 1.014c.002.024-.004.034-.012.029l-.061-.035c-.012-.006-.016-.021-.016-.046l-.039-1.015c0-.024.002-.034.014-.029zm.496.64c.008.201-.055.323-.139.274l-.082-.046.012.328c.002.023-.004.033-.014.028l-.059-.034c-.012-.007-.016-.021-.018-.046L7.6 22.281c0-.023.002-.034.014-.028l.074.042.082.047c.087.05.159.251.167.45zm-.09-.051c-.004-.09-.033-.178-.068-.196l-.082-.048.012.322.082.048c.035.02.058-.035.056-.126zm.576.014.004.13c0 .025-.004.035-.014.029l-.096-.054.031.847c.002.023-.002.035-.012.027l-.061-.032c-.01-.006-.016-.022-.018-.047l-.031-.848-.094-.055c-.01-.005-.016-.021-.016-.046l-.006-.131c-.002-.024.004-.034.014-.028l.184.107.096.054c.012.006.017.024.019.047zm.02.509c-.012-.318.086-.505.217-.429s.246.385.258.703c.014.319-.084.506-.215.429-.133-.075-.248-.384-.26-.703zm.385.223c-.008-.209-.078-.395-.16-.441-.082-.049-.141.063-.135.271.01.209.078.394.162.442.082.047.142-.062.133-.272zm.316-.06c0 .132-.121.049-.121-.083s.121-.049.121.083zm0 .596c0 .132-.121.05-.121-.083 0-.132.121-.049.121.083z"/></svg>