<svg xmlns="http://www.w3.org/2000/svg" xml:space="preserve" style="enable-background:new 0 0 64 64" viewBox="0 0 64 64"><linearGradient id="a" x1="32" x2="32" y1="62" y2="2" gradientUnits="userSpaceOnUse"><stop offset="0" style="stop-color:#ff6a00"/><stop offset=".113" style="stop-color:#ff7400"/><stop offset=".415" style="stop-color:#f80"/><stop offset=".713" style="stop-color:#ff9500"/><stop offset="1" style="stop-color:#f90"/></linearGradient><path d="M62 50c0 6.6-5.4 12-12 12H14C7.4 62 2 56.6 2 50V14C2 7.4 7.4 2 14 2h36c6.6 0 12 5.4 12 12v36z" style="fill:url(#a)"/><path d="M33.47 40.89v4.09H15.05V16.51h18.42v6.6h2.24v-6.7c0-2.41-2.04-4.41-4.58-4.41H17.29c-2.54 0-4.58 2.01-4.58 4.41v31.18c0 2.51 2.04 4.41 4.58 4.41h13.84c2.54 0 4.58-2.01 4.58-4.41v-6.7h-2.24zM21.97 13.6h4.48c.31 0 .61.2.61.6 0 .3-.3.6-.61.6h-4.48c-.3 0-.61-.2-.61-.6.1-.29.31-.6.61-.6zm2.24 36.29c-.81 0-1.43-.6-1.43-1.3 0-.7.61-1.3 1.43-1.3.81 0 1.43.6 1.43 1.3 0 .7-.61 1.3-1.43 1.3z" style="fill:#fff"/><path d="M26.94 26.41c-.9-.52-1.97-.78-3.22-.78-1.25 0-2.32.26-3.23.78-.91.52-1.61 1.25-2.1 2.21-.5.95-.74 2.08-.74 3.37 0 1.3.25 2.43.74 3.38.49.95 1.19 1.69 2.1 2.22.91.52 1.98.79 3.23.79 1.24 0 2.32-.26 3.22-.79.9-.52 1.6-1.26 2.08-2.22.49-.95.73-2.08.73-3.38 0-1.29-.24-2.41-.73-3.37a5.11 5.11 0 0 0-2.08-2.21zm-.78 8.76c-.6.73-1.41 1.09-2.43 1.09-1.04 0-1.85-.36-2.44-1.08-.59-.72-.89-1.79-.89-3.19s.3-2.45.89-3.17c.59-.72 1.41-1.07 2.44-1.07 1.02 0 1.83.36 2.43 1.07.6.71.9 1.77.9 3.17 0 1.39-.3 2.45-.9 3.18zm5.73 3.04h2.69v-5.23h5.33v-2.15h-5.33v-2.88h5.68v-2.16h-8.37zm18.46-10.26v-2.16h-8.38v12.42h2.69v-5.23H50v-2.15h-5.34v-2.88z" style="fill:#fff"/></svg>