<svg xmlns="http://www.w3.org/2000/svg" xml:space="preserve" viewBox="0 0 64 64"><path fill="#594640" d="M22.686 51.142c-10.571 0-15.66-16.628-18.568-29.135-.774-3.33.003-6.679 2.187-9.429C9.396 8.684 14.977 6.36 21.231 6.36c2.374 0 4.82.325 7.272.966 1.142.302 3.003-.477 5.155-1.418 2.52-1.101 5.655-2.472 8.986-2.472 4.911 0 9.105 2.933 12.823 8.965 4.401 7.143 5.81 11.817 4.433 14.71-1.457 3.06-5.727 3.617-10.247 4.207-7.263.948-14.771 1.928-13.833 12.389l.021.234-.166.166c-4.696 4.667-9.066 7.035-12.989 7.035zM21.231 7.36c-5.952 0-11.24 2.183-14.145 5.84-2.02 2.543-2.709 5.51-1.995 8.581 2.831 12.176 7.734 28.361 17.594 28.361 3.605 0 7.682-2.213 12.12-6.579-.885-11.2 7.762-12.327 14.719-13.235 4.243-.554 8.251-1.077 9.475-3.645 1.2-2.522-.232-7.022-4.382-13.756-3.52-5.713-7.436-8.49-11.972-8.49-3.122 0-6.025 1.269-8.586 2.388-2.34 1.022-4.353 1.85-5.81 1.469-2.368-.62-4.729-.934-7.018-.934z"/><linearGradient id="a" x1="34.125" x2="37.735" y1="35.959" y2="39.569" gradientUnits="userSpaceOnUse"><stop offset="0" style="stop-color:#ff2121"/><stop offset=".278" style="stop-color:#fb1f1f"/><stop offset=".537" style="stop-color:#f0181b"/><stop offset=".788" style="stop-color:#dd0d13"/><stop offset="1" style="stop-color:#c7000a"/></linearGradient><path fill="url(#a)" d="M37.737 35.96c-2.41-2.399-6.029 1.202-3.617 3.605 2.412 2.401 6.031-1.202 3.617-3.605z"/><linearGradient id="b" x1="37.927" x2="41.537" y1="31.706" y2="35.316" gradientUnits="userSpaceOnUse"><stop offset="0" style="stop-color:#eb0000"/><stop offset=".348" style="stop-color:#bf0002"/><stop offset="1" style="stop-color:#630005"/></linearGradient><path fill="url(#b)" d="M41.54 31.708c-2.41-2.399-6.029 1.202-3.617 3.604 2.412 2.401 6.031-1.201 3.617-3.604z"/><linearGradient id="c" x1="13.133" x2="16.743" y1="6.005" y2="9.616" gradientUnits="userSpaceOnUse"><stop offset="0" style="stop-color:#eb0000"/><stop offset=".348" style="stop-color:#bf0002"/><stop offset="1" style="stop-color:#630005"/></linearGradient><path fill="url(#c)" d="M16.746 6.007c-2.41-2.399-6.029 1.202-3.617 3.604 2.412 2.401 6.031-1.2 3.617-3.604z"/><linearGradient id="d" x1="26.393" x2="30.003" y1="6.129" y2="9.74" gradientUnits="userSpaceOnUse"><stop offset="0" style="stop-color:#eb0000"/><stop offset=".22" style="stop-color:#e70000"/><stop offset=".425" style="stop-color:#dc0001"/><stop offset=".624" style="stop-color:#c90003"/><stop offset=".819" style="stop-color:#af0005"/><stop offset="1" style="stop-color:#8f0007"/></linearGradient><path fill="url(#d)" d="M30.006 6.132c-2.41-2.399-6.029 1.202-3.617 3.604 2.412 2.401 6.031-1.201 3.617-3.604z"/><linearGradient id="e" x1="28.916" x2="32.527" y1="45.938" y2="49.549" gradientUnits="userSpaceOnUse"><stop offset="0" style="stop-color:#eb0000"/><stop offset=".348" style="stop-color:#bf0002"/><stop offset="1" style="stop-color:#630005"/></linearGradient><path fill="url(#e)" d="M32.53 45.94c-2.412-2.4-6.029 1.202-3.619 3.604 2.412 2.401 6.031-1.201 3.619-3.604z"/><linearGradient id="f" x1="43.47" x2="47.081" y1="29.465" y2="33.076" gradientUnits="userSpaceOnUse"><stop offset="0" style="stop-color:#eb0000"/><stop offset=".22" style="stop-color:#e70000"/><stop offset=".425" style="stop-color:#dc0001"/><stop offset=".624" style="stop-color:#c90003"/><stop offset=".819" style="stop-color:#af0005"/><stop offset="1" style="stop-color:#8f0007"/></linearGradient><path fill="url(#f)" d="M47.085 29.468c-2.412-2.4-6.031 1.202-3.619 3.605 2.412 2.402 6.029-1.201 3.619-3.605z"/><linearGradient id="g" x1="49.321" x2="52.931" y1="28.654" y2="32.264" gradientUnits="userSpaceOnUse"><stop offset="0" style="stop-color:#eb0000"/><stop offset=".22" style="stop-color:#e70000"/><stop offset=".425" style="stop-color:#dc0001"/><stop offset=".624" style="stop-color:#c90003"/><stop offset=".819" style="stop-color:#af0005"/><stop offset="1" style="stop-color:#8f0007"/></linearGradient><path fill="url(#g)" d="M52.935 28.656c-2.41-2.399-6.031 1.202-3.617 3.605 2.41 2.4 6.029-1.2 3.617-3.605z"/><linearGradient id="h" x1="54.84" x2="58.449" y1="27.018" y2="30.628" gradientUnits="userSpaceOnUse"><stop offset="0" style="stop-color:#eb0000"/><stop offset=".348" style="stop-color:#bf0002"/><stop offset="1" style="stop-color:#630005"/></linearGradient><path fill="url(#h)" d="M58.453 27.02c-2.41-2.399-6.029 1.202-3.617 3.605 2.41 2.4 6.029-1.201 3.617-3.605z"/><linearGradient id="i" x1="57.591" x2="61.202" y1="21.83" y2="25.44" gradientUnits="userSpaceOnUse"><stop offset="0" style="stop-color:#eb0000"/><stop offset=".22" style="stop-color:#e70000"/><stop offset=".425" style="stop-color:#dc0001"/><stop offset=".624" style="stop-color:#c90003"/><stop offset=".819" style="stop-color:#af0005"/><stop offset="1" style="stop-color:#8f0007"/></linearGradient><path fill="url(#i)" d="M61.205 21.832c-2.412-2.4-6.029 1.202-3.619 3.605 2.412 2.4 6.031-1.201 3.619-3.605z"/><linearGradient id="j" x1="56.127" x2="59.737" y1="16.057" y2="19.667" gradientUnits="userSpaceOnUse"><stop offset="0" style="stop-color:#eb0000"/><stop offset=".348" style="stop-color:#bf0002"/><stop offset="1" style="stop-color:#630005"/></linearGradient><path fill="url(#j)" d="M59.741 16.059c-2.412-2.4-6.031 1.201-3.619 3.605 2.412 2.4 6.029-1.202 3.619-3.605z"/><linearGradient id="k" x1="7.675" x2="11.285" y1="8.723" y2="12.333" gradientUnits="userSpaceOnUse"><stop offset="0" style="stop-color:#eb0000"/><stop offset=".348" style="stop-color:#bf0002"/><stop offset="1" style="stop-color:#630005"/></linearGradient><path fill="url(#k)" d="M11.29 8.726c-2.412-2.4-6.031 1.201-3.619 3.605 2.412 2.399 6.029-1.202 3.619-3.605z"/><linearGradient id="l" x1="53.148" x2="56.759" y1="10.661" y2="14.271" gradientUnits="userSpaceOnUse"><stop offset="0" style="stop-color:#eb0000"/><stop offset=".348" style="stop-color:#bf0002"/><stop offset="1" style="stop-color:#630005"/></linearGradient><path fill="url(#l)" d="M56.763 10.664c-2.412-2.401-6.029 1.201-3.619 3.604 2.412 2.4 6.031-1.201 3.619-3.604z"/><linearGradient id="m" x1="49.52" x2="53.13" y1="5.973" y2="9.583" gradientUnits="userSpaceOnUse"><stop offset="0" style="stop-color:#eb0000"/><stop offset=".22" style="stop-color:#e70000"/><stop offset=".425" style="stop-color:#dc0001"/><stop offset=".624" style="stop-color:#c90003"/><stop offset=".819" style="stop-color:#af0005"/><stop offset="1" style="stop-color:#8f0007"/></linearGradient><path fill="url(#m)" d="M53.132 5.975c-2.41-2.399-6.029 1.202-3.617 3.605 2.412 2.4 6.029-1.202 3.617-3.605z"/><linearGradient id="n" x1="44.176" x2="47.786" y1="2.79" y2="6.4" gradientUnits="userSpaceOnUse"><stop offset="0" style="stop-color:#ff2121"/><stop offset=".278" style="stop-color:#fb1f1f"/><stop offset=".537" style="stop-color:#f0181b"/><stop offset=".788" style="stop-color:#dd0d13"/><stop offset="1" style="stop-color:#c7000a"/></linearGradient><path fill="url(#n)" d="M47.789 2.792c-2.412-2.4-6.029 1.202-3.617 3.604 2.412 2.4 6.029-1.201 3.617-3.604z"/><linearGradient id="o" x1="32.709" x2="36.319" y1="4.421" y2="8.031" gradientUnits="userSpaceOnUse"><stop offset="0" style="stop-color:#ff2121"/><stop offset=".278" style="stop-color:#fb1f1f"/><stop offset=".537" style="stop-color:#f0181b"/><stop offset=".788" style="stop-color:#dd0d13"/><stop offset="1" style="stop-color:#c7000a"/></linearGradient><path fill="url(#o)" d="M36.321 4.423c-2.412-2.4-6.029 1.202-3.617 3.604 2.412 2.401 6.029-1.2 3.617-3.604z"/><linearGradient id="p" x1="38.287" x2="41.897" y1="2.789" y2="6.399" gradientUnits="userSpaceOnUse"><stop offset="0" style="stop-color:#eb0000"/><stop offset=".348" style="stop-color:#bf0002"/><stop offset="1" style="stop-color:#630005"/></linearGradient><path fill="url(#p)" d="M41.901 2.791C39.489.392 35.87 3.992 38.282 6.396c2.412 2.401 6.03-1.202 3.619-3.605z"/><linearGradient id="q" x1="3.801" x2="7.41" y1="13.755" y2="17.365" gradientUnits="userSpaceOnUse"><stop offset="0" style="stop-color:#eb0000"/><stop offset=".22" style="stop-color:#e70000"/><stop offset=".425" style="stop-color:#dc0001"/><stop offset=".624" style="stop-color:#c90003"/><stop offset=".819" style="stop-color:#af0005"/><stop offset="1" style="stop-color:#8f0007"/></linearGradient><path fill="url(#q)" d="M7.415 13.757c-2.414-2.399-6.031 1.202-3.619 3.605 2.41 2.4 6.029-1.201 3.619-3.605z"/><linearGradient id="r" x1="19.55" x2="23.159" y1="5.34" y2="8.949" gradientUnits="userSpaceOnUse"><stop offset="0" style="stop-color:#eb0000"/><stop offset=".22" style="stop-color:#e70000"/><stop offset=".425" style="stop-color:#dc0001"/><stop offset=".624" style="stop-color:#c90003"/><stop offset=".819" style="stop-color:#af0005"/><stop offset="1" style="stop-color:#8f0007"/></linearGradient><path fill="url(#r)" d="M23.164 5.342c-2.414-2.399-6.031 1.202-3.619 3.605 2.41 2.4 6.029-1.202 3.619-3.605z"/><linearGradient id="s" x1="2.8" x2="6.41" y1="20.088" y2="23.698" gradientUnits="userSpaceOnUse"><stop offset="0" style="stop-color:#eb0000"/><stop offset=".22" style="stop-color:#e70000"/><stop offset=".425" style="stop-color:#dc0001"/><stop offset=".624" style="stop-color:#c90003"/><stop offset=".819" style="stop-color:#af0005"/><stop offset="1" style="stop-color:#8f0007"/></linearGradient><path fill="url(#s)" d="M6.414 20.09c-2.412-2.399-6.031 1.202-3.619 3.605 2.412 2.401 6.029-1.201 3.619-3.605z"/><linearGradient id="t" x1="4.475" x2="8.085" y1="26.469" y2="30.079" gradientUnits="userSpaceOnUse"><stop offset="0" style="stop-color:#eb0000"/><stop offset=".348" style="stop-color:#bf0002"/><stop offset="1" style="stop-color:#630005"/></linearGradient><path fill="url(#t)" d="M8.089 26.471c-2.412-2.4-6.029 1.201-3.619 3.604 2.412 2.401 6.031-1.2 3.619-3.604z"/><linearGradient id="u" x1="6.352" x2="9.963" y1="31.928" y2="35.539" gradientUnits="userSpaceOnUse"><stop offset="0" style="stop-color:#eb0000"/><stop offset=".348" style="stop-color:#bf0002"/><stop offset="1" style="stop-color:#630005"/></linearGradient><path fill="url(#u)" d="M9.967 31.931c-2.412-2.4-6.031 1.202-3.619 3.605 2.412 2.4 6.029-1.201 3.619-3.605z"/><linearGradient id="v" x1="8.508" x2="12.118" y1="37.876" y2="41.486" gradientUnits="userSpaceOnUse"><stop offset="0" style="stop-color:#ff2121"/><stop offset=".278" style="stop-color:#fb1f1f"/><stop offset=".537" style="stop-color:#f0181b"/><stop offset=".788" style="stop-color:#dd0d13"/><stop offset="1" style="stop-color:#c7000a"/></linearGradient><path fill="url(#v)" d="M12.121 37.878c-2.41-2.4-6.029 1.201-3.617 3.604s6.031-1.202 3.617-3.604z"/><linearGradient id="w" x1="12.004" x2="15.616" y1="43.469" y2="47.08" gradientUnits="userSpaceOnUse"><stop offset="0" style="stop-color:#eb0000"/><stop offset=".22" style="stop-color:#e70000"/><stop offset=".425" style="stop-color:#dc0001"/><stop offset=".624" style="stop-color:#c90003"/><stop offset=".819" style="stop-color:#af0005"/><stop offset="1" style="stop-color:#8f0007"/></linearGradient><path fill="url(#w)" d="M15.618 43.471c-2.41-2.399-6.031 1.202-3.617 3.605 2.412 2.402 6.031-1.201 3.617-3.605z"/><linearGradient id="x" x1="17.027" x2="20.637" y1="47.572" y2="51.182" gradientUnits="userSpaceOnUse"><stop offset="0" style="stop-color:#eb0000"/><stop offset=".348" style="stop-color:#bf0002"/><stop offset="1" style="stop-color:#630005"/></linearGradient><path fill="url(#x)" d="M20.64 47.573c-2.41-2.4-6.029 1.203-3.617 3.605 2.412 2.401 6.029-1.2 3.617-3.605z"/><linearGradient id="y" x1="23.485" x2="27.096" y1="48.438" y2="52.049" gradientUnits="userSpaceOnUse"><stop offset="0" style="stop-color:#eb0000"/><stop offset=".22" style="stop-color:#e70000"/><stop offset=".425" style="stop-color:#dc0001"/><stop offset=".624" style="stop-color:#c90003"/><stop offset=".819" style="stop-color:#af0005"/><stop offset="1" style="stop-color:#8f0007"/></linearGradient><path fill="url(#y)" d="M27.099 48.44c-2.41-2.4-6.029 1.201-3.617 3.605 2.41 2.401 6.029-1.2 3.617-3.605z"/><linearGradient id="z" x1="33.519" x2="37.129" y1="41.948" y2="45.558" gradientUnits="userSpaceOnUse"><stop offset="0" style="stop-color:#eb0000"/><stop offset=".22" style="stop-color:#e70000"/><stop offset=".425" style="stop-color:#dc0001"/><stop offset=".624" style="stop-color:#c90003"/><stop offset=".819" style="stop-color:#af0005"/><stop offset="1" style="stop-color:#8f0007"/></linearGradient><path fill="url(#z)" d="M37.132 41.95c-2.41-2.4-6.029 1.201-3.617 3.605 2.41 2.401 6.029-1.201 3.617-3.605z"/><path fill="#4E5E67" d="m60.378 44.289-.688-.575c-4.007 4.794-16.707 4.061-16.707 4.061s4.774 11.498 15.228 12.701l.019-.896c-5.292-.112-9.847-4.814-12.461-8.222 3.739 3.287 10.091 7.873 14.577 5.855l-.367-.816c-3.63 1.633-8.902-1.803-12.534-4.805 3.746 2.123 9.116 4.328 13.825 3.092l-.228-.867c-4.05 1.064-8.761-.679-12.311-2.565 3.899 1.372 8.995 2.351 13.269.462l-.361-.818c-4.654 2.057-10.536.398-14.423-1.209 3.709.68 9.235.973 14.401-1.538l-.392-.806c-5.266 2.559-11.062 2.027-14.629 1.286 4.175-.087 10.832-.81 13.782-4.34z"/><path fill="#38444A" d="m59.688 43.403-.539-.715c-6.802 5.109-16.028 4.971-16.12 4.969 0 0 3.795 11.865 14.752 14.343l.197-.873c-7.926-1.834-12.059-8.628-12.749-10.286.113.115 6.357 9.089 14.079 8.361l-.114-.888c-5.015.646-10.115-3.866-13.118-7.169 3.479 2.505 9.123 5.734 14.4 5.053l-.113-.888c-4.878.63-10.042-2.145-13.26-4.343 3.164 1.909 8.119 3.697 14.704 2.393l-.28-.85c-4.432 1.465-10.039-.494-13.862-2.329 3.864 1.042 9.356 1.847 13.861-.108l-.354-.822c-4.504 1.953-10.225.934-13.986-.152 4.361.35 10.883.213 13.739-3.205l-.688-.574c-2.545 3.046-8.607 3.199-12.791 2.887 3.402-.509 8.178-1.751 12.242-4.804z"/><radialGradient id="A" cx="-334.708" cy="-585.679" r="1.27" gradientTransform="rotate(-68.746 312.519 -542.404)" gradientUnits="userSpaceOnUse"><stop offset="0" style="stop-color:#d6e5ed"/><stop offset="1" style="stop-color:#858c8f"/></radialGradient><path fill="url(#A)" d="M38.116 43.774c1.275.496.207 3.244-1.069 2.748s-.208-3.244 1.069-2.748z"/><linearGradient id="B" x1="-336.662" x2="-333.444" y1="-584.163" y2="-584.163" gradientTransform="rotate(-68.746 312.519 -542.404)" gradientUnits="userSpaceOnUse"><stop offset="0" style="stop-color:#eb0000"/><stop offset=".22" style="stop-color:#e70000"/><stop offset=".425" style="stop-color:#dc0001"/><stop offset=".624" style="stop-color:#c90003"/><stop offset=".819" style="stop-color:#af0005"/><stop offset="1" style="stop-color:#8f0007"/></linearGradient><path fill="url(#B)" d="M39.453 44.52c1.392.542.225 3.54-1.167 2.999s-.225-3.54 1.167-2.999z"/><radialGradient id="C" cx="-335.184" cy="-581.427" r="2.121" gradientTransform="rotate(-68.746 312.519 -542.404)" gradientUnits="userSpaceOnUse"><stop offset="0" style="stop-color:#d6e5ed"/><stop offset="1" style="stop-color:#858c8f"/></radialGradient><path fill="url(#C)" d="M42.06 45.366c2.888 1.123 1.514 4.656-1.375 3.533-2.888-1.123-1.514-4.656 1.375-3.533z"/><linearGradient id="D" x1="-337.242" x2="-333.835" y1="-578.956" y2="-578.956" gradientTransform="rotate(-68.746 312.519 -542.404)" gradientUnits="userSpaceOnUse"><stop offset="0" style="stop-color:#eb0000"/><stop offset=".22" style="stop-color:#e70000"/><stop offset=".425" style="stop-color:#dc0001"/><stop offset=".624" style="stop-color:#c90003"/><stop offset=".819" style="stop-color:#af0005"/><stop offset="1" style="stop-color:#8f0007"/></linearGradient><path fill="url(#D)" d="M44.163 46.771c1.474.573.239 3.747-1.233 3.175-1.475-.573-.24-3.748 1.233-3.175z"/></svg>