<svg xmlns="http://www.w3.org/2000/svg" xml:space="preserve" style="enable-background:new 0 0 64 64" viewBox="0 0 64 64"><path d="M20.5 58h3v2.43h-3z" style="fill:#1a1626"/><linearGradient id="a" x1="22" x2="22" y1="61" y2="60" gradientUnits="userSpaceOnUse"><stop offset="0" style="stop-color:#302c3b"/><stop offset=".513" style="stop-color:#454853"/><stop offset="1" style="stop-color:#5b666e"/></linearGradient><path d="M24 60h-4c-.55 0-1 .45-1 1h6c0-.55-.45-1-1-1z" style="fill:url(#a)"/><path d="M40.5 58h3v2.43h-3z" style="fill:#1a1626"/><linearGradient id="b" x1="42" x2="42" y1="61" y2="60" gradientUnits="userSpaceOnUse"><stop offset="0" style="stop-color:#302c3b"/><stop offset=".513" style="stop-color:#454853"/><stop offset="1" style="stop-color:#5b666e"/></linearGradient><path d="M44 60h-4c-.55 0-1 .45-1 1h6c0-.55-.45-1-1-1z" style="fill:url(#b)"/><linearGradient id="c" x1="47.355" x2="47.355" y1="51.525" y2="42.474" gradientUnits="userSpaceOnUse"><stop offset="0" style="stop-color:#302c3b"/><stop offset=".502" style="stop-color:#312e3d"/><stop offset=".682" style="stop-color:#363543"/><stop offset=".811" style="stop-color:#3f404d"/><stop offset=".915" style="stop-color:#4c515c"/><stop offset="1" style="stop-color:#5b666e"/></linearGradient><path d="M44.85 42.47h5v9.05h-5z" style="fill:url(#c)"/><radialGradient id="d" cx="52.819" cy="47" r="4.744" gradientUnits="userSpaceOnUse"><stop offset="0" style="stop-color:#b3c2c6"/><stop offset=".415" style="stop-color:#b0bfc3"/><stop offset=".756" style="stop-color:#a6b5ba"/><stop offset="1" style="stop-color:#99a8ae"/></radialGradient><path d="M49.64 41.09H56V52.9h-6.36z" style="fill:url(#d)"/><path d="m48.86 51.53.78 1.38V41.09l-.78 1.38z" style="fill:#6e8189"/><radialGradient id="e" cx="57.831" cy="47" r="4.686" gradientUnits="userSpaceOnUse"><stop offset="0" style="stop-color:#b3c2c6"/><stop offset=".415" style="stop-color:#b0bfc3"/><stop offset=".756" style="stop-color:#a6b5ba"/><stop offset="1" style="stop-color:#99a8ae"/></radialGradient><path d="M56.49 40.51h2.67v12.98h-2.67z" style="fill:url(#e)"/><path d="m56 52.91.49.58V40.51l-.49.58z" style="fill:#6e8189"/><path d="M24.73 40.79h-4.46l-6-18.79 3.46-2zm18-2h-4.46l8-22.79 3.46 2z" style="fill:#8a989e"/><path d="M19.32 37.15h-.64L8.4 23.93l.43-.21zm24.23-.03h-.7l11.74-16.77.46.23z" style="fill:#302c3b"/><path d="M22.61 17.19c5.09 8.82-8.13 16.45-13.23 7.63C4.3 16 17.52 8.37 22.61 17.19z" style="fill:#302c3b"/><radialGradient id="f" cx="-31.477" cy="-15.993" r="14" gradientTransform="rotate(-30 61.3 -86.088)" gradientUnits="userSpaceOnUse"><stop offset="0" style="stop-color:#b3c2c6"/><stop offset=".415" style="stop-color:#b0bfc3"/><stop offset=".756" style="stop-color:#a6b5ba"/><stop offset="1" style="stop-color:#99a8ae"/></radialGradient><path d="M9 8.88C2.31 12.74.01 21.31 3.88 28c3.87 6.7 12.43 8.99 19.12 5.12 6.7-3.87 8.99-12.43 5.12-19.13C24.26 7.31 15.7 5.01 9 8.88zm8.84 1.65c.24-4.08 9.71 1.39 6.3 3.64l-4.36 2.88c-1.34.88-2.35.3-2.26-1.3l.32-5.22zm-3.68 0 .31 5.21c.1 1.6-.92 2.19-2.26 1.3l-4.36-2.88c-3.4-2.24 6.06-7.7 6.31-3.63zm-8.15 6.83 4.67 2.34c1.43.71 1.43 1.89 0 2.6l-4.67 2.34c-3.65 1.83-3.65-9.1 0-7.28zm8.15 14.11c-.25 4.08-9.71-1.39-6.3-3.64l4.36-2.88c1.34-.88 2.35-.29 2.26 1.3l-.32 5.22zm3.68 0-.31-5.21c-.09-1.6.92-2.19 2.26-1.3l4.36 2.88c3.4 2.24-6.06 7.71-6.31 3.63zm8.15-6.83-4.67-2.34c-1.43-.72-1.43-1.89 0-2.61l4.67-2.34c3.65-1.81 3.65 9.12 0 7.29z" style="fill:url(#f)"/><path d="M14.38 20.1c.42.74-.68 1.37-1.1.64-.43-.74.68-1.37 1.1-.64zm1.59 2.76c.42.74-.68 1.37-1.1.64-.43-.74.68-1.38 1.1-.64zm1.16-4.35c.42.73-.68 1.37-1.1.64-.42-.74.68-1.37 1.1-.64zm1.6 2.76c.42.73-.68 1.37-1.1.64-.43-.74.67-1.38 1.1-.64zm35.88-.45c-5.09 8.82-18.32 1.18-13.23-7.64 5.1-8.81 18.32-1.18 13.23 7.64z" style="fill:#302c3b"/><radialGradient id="g" cx="106.107" cy="26.122" r="14" gradientTransform="rotate(30 94.065 -86.868)" gradientUnits="userSpaceOnUse"><stop offset="0" style="stop-color:#b3c2c6"/><stop offset=".415" style="stop-color:#b0bfc3"/><stop offset=".756" style="stop-color:#a6b5ba"/><stop offset="1" style="stop-color:#99a8ae"/></radialGradient><path d="M55 4.88C48.3 1.01 39.74 3.31 35.87 10 32.01 16.7 34.3 25.26 41 29.13 47.69 33 56.26 30.7 60.12 24 63.99 17.31 61.69 8.74 55 4.88zm2.99 8.48c3.65-1.83 3.65 9.1 0 7.28l-4.67-2.34c-1.43-.72-1.43-1.89 0-2.61l4.67-2.33zm-1.85-3.19-4.36 2.88c-1.34.88-2.35.3-2.26-1.3l.31-5.21c.25-4.08 9.72 1.38 6.31 3.63zm-9.98-3.64.31 5.21c.09 1.6-.92 2.19-2.26 1.3l-4.36-2.88c-3.41-2.24 6.06-7.7 6.31-3.63zm-8.15 14.11c-3.65 1.83-3.65-9.1 0-7.28l4.67 2.34c1.43.72 1.43 1.89 0 2.61l-4.67 2.33zm1.84 3.19 4.36-2.88c1.34-.88 2.35-.29 2.26 1.3l-.31 5.21c-.25 4.09-9.72-1.38-6.31-3.63zm9.99 3.64-.31-5.21c-.1-1.6.92-2.19 2.26-1.3l4.36 2.88c3.4 2.24-6.06 7.71-6.31 3.63z" style="fill:url(#g)"/><path d="M47.97 15.15c-.42.74-1.53.1-1.1-.63.42-.74 1.52-.11 1.1.63zm-1.59 2.75c-.42.74-1.53.1-1.1-.64.42-.73 1.52-.09 1.1.64zm4.34-1.16c-.43.73-1.53.1-1.1-.64.42-.73 1.53-.1 1.1.64zm-1.59 2.75c-.42.73-1.53.1-1.1-.64.42-.73 1.52-.09 1.1.64z" style="fill:#302c3b"/><linearGradient id="h" x1="32" x2="32" y1="59" y2="35" gradientUnits="userSpaceOnUse"><stop offset="0" style="stop-color:#4e5e67"/><stop offset=".542" style="stop-color:#506069"/><stop offset=".786" style="stop-color:#556770"/><stop offset=".97" style="stop-color:#5f727d"/><stop offset="1" style="stop-color:#617580"/></linearGradient><path d="M47 57c0 1.1-.89 2-1.97 2H18.97c-1.08 0-1.97-.9-1.97-2V37c0-1.1.89-2 1.97-2h26.05c1.08 0 1.97.9 1.97 2v20z" style="fill:url(#h)"/><linearGradient id="i" x1="28.032" x2="28.032" y1="57" y2="46.275" gradientUnits="userSpaceOnUse"><stop offset=".242" style="stop-color:#6e8189"/><stop offset=".706" style="stop-color:#7a8f97"/><stop offset="1" style="stop-color:#839aa3"/></linearGradient><path d="M36.06 56c0 .55-.45 1-1 1H21c-.55 0-1-.45-1-1v-8.72c0-.55.45-1 1-1h14.06c.55 0 1 .45 1 1V56z" style="fill:url(#i)"/><path d="M34.21 49.29H21.85c-.36 0-.65-.19-.84-.46.04.51.46.92.98.92h12.06c.52 0 .94-.41.98-.92-.17.27-.47.46-.82.46zm0 2.6H21.85c-.36 0-.65-.19-.84-.46.04.51.46.92.98.92h12.06c.52 0 .94-.41.98-.92-.17.27-.47.46-.82.46zm0 2.6H21.85c-.36 0-.65-.19-.84-.46.04.51.46.92.98.92h12.06c.52 0 .94-.41.98-.92-.17.27-.47.46-.82.46z" style="fill:#4e5e67"/></svg>