<svg xmlns="http://www.w3.org/2000/svg" xml:space="preserve" style="enable-background:new 0 0 64 64" viewBox="0 0 64 64"><path d="M29.4 9.11h19.05v1.16H29.4z" style="fill:#99a8ae" transform="rotate(-45.033 38.929 9.695)"/><path d="m18.73 2.56-.82.82 13.5 13.45.82-.82z" style="fill:#99a8ae"/><path d="M25.41 15.13c0-1.07.94-1.95 2.1-1.95h8.99c1.15 0 2.1.88 2.1 1.95H25.41z" style="fill:#8c1b1b"/><path d="M7.36 52.7 6.64 62h2.44l3.03-9.3zm49.28 0 .72 9.3h-2.44l-3.03-9.3z" style="fill:#4f2b1c"/><path d="M45 2.29c-.38.38-.38.99 0 1.37.38.38.99.38 1.37 0 .38-.38.38-.99 0-1.37-.39-.38-1-.39-1.37 0zm-25.99 0c.38.38.38.99 0 1.37-.38.38-.99.38-1.37 0a.966.966 0 0 1 0-1.37c.38-.38.99-.39 1.37 0z" style="fill:#cfd8dd"/><linearGradient id="a" x1="32" x2="32" y1="56.663" y2="14.417" gradientUnits="userSpaceOnUse"><stop offset="0" style="stop-color:#b01313"/><stop offset="1" style="stop-color:#ff4747"/></linearGradient><path d="M58.9 54.56c-13.15 2.81-40.65 2.81-53.8 0-1.07-.23-3.1-1.39-3.1-3.1V19.62c0-1.71 2.03-2.87 3.1-3.1 13.15-2.81 40.65-2.81 53.8 0 1.07.23 3.1 1.39 3.1 3.1v31.83c0 1.72-2.03 2.88-3.1 3.11z" style="fill:url(#a)"/><linearGradient id="b" x1="55.911" x2="55.911" y1="51.938" y2="19.143" gradientUnits="userSpaceOnUse"><stop offset="0" style="stop-color:#ff4747"/><stop offset=".405" style="stop-color:#fb4b4b"/><stop offset=".842" style="stop-color:#ee5858"/><stop offset="1" style="stop-color:#e85f5f"/></linearGradient><path d="M58.83 19.14h-5.84c-.79 0-1.43.64-1.43 1.43v29.94c0 .79.64 1.43 1.43 1.43h5.84c.79 0 1.43-.64 1.43-1.43V20.57c0-.79-.64-1.43-1.43-1.43z" style="fill:url(#b)"/><path d="M51.56 36.04h8.7v.47h-8.7zm0 .85h8.7v.47h-8.7zm0 .85h8.7v.47h-8.7zm0 .85h8.7v.47h-8.7zm0 .85h8.7v.47h-8.7zm0 .85h8.7v.47h-8.7zm0 .85h8.7v.46h-8.7zm0 .85h8.7v.47h-8.7zm0 .85h8.7v.47h-8.7zm0 .85h8.7v.47h-8.7zm0 .85h8.7v.47h-8.7zm0 .85h8.7v.47h-8.7zm0 .85h8.7v.47h-8.7zm0 .85h8.7v.47h-8.7zm0 .85h8.7v.47h-8.7zm0 .86h8.7v.47h-8.7z" style="fill:#8c1b1b"/><linearGradient id="c" x1="26.776" x2="26.776" y1="52.384" y2="18.698" gradientUnits="userSpaceOnUse"><stop offset="0" style="stop-color:#ff4747"/><stop offset="1" style="stop-color:#b01313"/></linearGradient><path d="M49.04 35.54c-.08-5.44-.33-10.3-.5-13.11-.09-1.48-1.2-2.66-2.62-2.81-3.52-.35-10.54-.93-19.14-.93-8.6 0-15.63.57-19.14.93-1.42.14-2.53 1.33-2.62 2.81-.17 2.81-.43 7.67-.5 13.11-.09 5.69.21 10.74.43 13.66.12 1.52 1.3 2.7 2.77 2.77 3.54.16 10.5.42 19.06.42 8.55 0 15.51-.26 19.05-.42 1.47-.07 2.65-1.25 2.77-2.77.22-2.92.52-7.97.44-13.66z" style="fill:url(#c)"/><radialGradient id="d" cx="26.726" cy="38.693" r="30.332" fx="26.726" fy="12.344" gradientTransform="matrix(1 0 0 .602 0 15.402)" gradientUnits="userSpaceOnUse"><stop offset="0" style="stop-color:#969593"/><stop offset=".215" style="stop-color:#898889"/><stop offset=".612" style="stop-color:#676670"/><stop offset="1" style="stop-color:#3f3f52"/></radialGradient><path d="M44.55 22.6c-3.6-3.61-31.94-3.61-35.54 0-3.95 3.96-4.05 23.22 0 26.49 3.46 2.8 32.08 2.8 35.54 0 4.04-3.28 3.95-22.53 0-26.49z" style="fill:url(#d)"/><path d="M59.39 23.51c0 1.93-1.56 3.49-3.48 3.49s-3.48-1.56-3.48-3.49c0-1.93 1.56-3.49 3.48-3.49s3.48 1.56 3.48 3.49z" style="fill:#424555"/><linearGradient id="e" x1="53.299" x2="58.523" y1="23.508" y2="23.508" gradientUnits="userSpaceOnUse"><stop offset="0" style="stop-color:#99a8ae"/><stop offset=".289" style="stop-color:#94a3aa"/><stop offset=".634" style="stop-color:#85969d"/><stop offset="1" style="stop-color:#6e8088"/></linearGradient><path d="M58.52 23.51c0 1.45-1.17 2.62-2.61 2.62s-2.61-1.17-2.61-2.62a2.62 2.62 0 0 1 2.61-2.62c1.44 0 2.61 1.17 2.61 2.62z" style="fill:url(#e)"/><linearGradient id="f" x1="-394.483" x2="-393.567" y1="146.186" y2="146.186" gradientTransform="rotate(45.001 -20.964 627.965)" gradientUnits="userSpaceOnUse"><stop offset="0" style="stop-color:#99a8ae"/><stop offset="1" style="stop-color:#6e8088"/></linearGradient><path d="m54.22 25.85-.64-.65 4.02-4.03.64.64z" style="fill:url(#f)"/><path d="M58.38 33.98a3.498 3.498 0 0 1-4.93.01 3.48 3.48 0 0 1 .01-4.93 3.489 3.489 0 0 1 4.93 0 3.486 3.486 0 0 1-.01 4.92z" style="fill:#424555"/><linearGradient id="g" x1="-226.338" x2="-221.114" y1="312.871" y2="312.871" gradientTransform="rotate(45.001 255.723 509.74)" gradientUnits="userSpaceOnUse"><stop offset="0" style="stop-color:#99a8ae"/><stop offset=".289" style="stop-color:#94a3aa"/><stop offset=".634" style="stop-color:#85969d"/><stop offset="1" style="stop-color:#6e8088"/></linearGradient><path d="M57.76 33.36a2.629 2.629 0 0 1-3.7.01 2.62 2.62 0 0 1 0-3.7 2.62 2.62 0 0 1 3.7 0 2.607 2.607 0 0 1 0 3.69z" style="fill:url(#g)"/><linearGradient id="h" x1="-387.791" x2="-386.876" y1="548.447" y2="548.447" gradientTransform="rotate(90 92.754 511.603)" gradientUnits="userSpaceOnUse"><stop offset="0" style="stop-color:#99a8ae"/><stop offset="1" style="stop-color:#6e8088"/></linearGradient><path d="M53.06 31.97v-.9l5.7-.01v.91z" style="fill:url(#h)"/></svg>