<svg xmlns="http://www.w3.org/2000/svg" xml:space="preserve" style="enable-background:new 0 0 64 64" viewBox="0 0 64 64"><path d="M1 46.168v4.619C1 52.004 2 53 3.223 53h57.554A2.224 2.224 0 0 0 63 50.787v-4.619H1z" style="fill:#252429"/><path d="M63 12.001A1 1 0 0 0 62 11H2a1 1 0 0 0-1 1.001l30 1.32L63 12z" style="fill:#6e7078"/><linearGradient id="a" x1="32" x2="32" y1="23.123" y2="12.001" gradientUnits="userSpaceOnUse"><stop offset="0" style="stop-color:#6e7078"/><stop offset=".347" style="stop-color:#5c5c64"/><stop offset="1" style="stop-color:#3c3a42"/></linearGradient><path d="M1 12.001v10.01c0 .613.5 1.112 1.112 1.112h59.776c.61 0 1.112-.5 1.112-1.112V12H1z" style="fill:url(#a)"/><linearGradient id="b" x1="32" x2="32" y1="52.041" y2="2.589" gradientUnits="userSpaceOnUse"><stop offset="0" style="stop-color:#3c3a42"/><stop offset=".653" style="stop-color:#5c5c64"/><stop offset="1" style="stop-color:#6e7078"/></linearGradient><path d="M60.777 23.123V16.45H3.223v6.673H1v26.704c0 1.219 1 2.214 2.223 2.214h57.554A2.225 2.225 0 0 0 63 49.827V23.123h-2.223z" style="fill:url(#b)"/><path d="M55.796 23.123H8.202c-2.75 0-4.979 4.482-4.979 10.01 0 5.529 2.228 10.01 4.979 10.01h47.594c2.75 0 4.98-4.481 4.98-10.01 0-5.528-2.23-10.01-4.98-10.01z" style="fill:#6e7078"/><radialGradient id="c" cx="31.999" cy="33.069" r="32.004" gradientTransform="matrix(1 0 0 .4638 0 17.797)" gradientUnits="userSpaceOnUse"><stop offset=".509" style="stop-color:#effaff"/><stop offset=".585" style="stop-color:#e7f2f7"/><stop offset=".703" style="stop-color:#d1dce1"/><stop offset=".848" style="stop-color:#adb9bd"/><stop offset=".927" style="stop-color:#96a2a6"/></radialGradient><path d="M56.284 24.235H7.654c-.737.226-3.221 3.313-3.221 8.898 0 5.587 2.484 8.667 3.28 8.898h48.59c.81-.276 3.262-3.359 3.262-8.898 0-5.585-2.484-8.668-3.28-8.898z" style="fill:url(#c)"/><linearGradient id="d" x1="7.668" x2="33.397" y1="33.133" y2="33.133" gradientUnits="userSpaceOnUse"><stop offset="0" style="stop-color:#5b666e"/><stop offset=".008" style="stop-color:#58626a"/><stop offset=".06" style="stop-color:#464a55"/><stop offset=".115" style="stop-color:#3a3947"/><stop offset=".175" style="stop-color:#322f3e"/><stop offset=".25" style="stop-color:#302c3b"/></linearGradient><path d="M22.677 24.235H10.862a13.93 13.93 0 0 0-3.194 8.898c0 3.382 1.198 6.48 3.194 8.898h11.815V24.235z" style="fill:url(#d)"/><path d="M26.885 33.133a6.355 6.355 0 0 1-6.353 6.356 6.354 6.354 0 0 1-6.352-6.356 6.354 6.354 0 0 1 6.352-6.356 6.355 6.355 0 0 1 6.353 6.356z" style="fill:#e6ebef"/><path d="m17.158 37.712.632-1.099a4.45 4.45 0 0 1-1.64-2.844h-1.27a5.722 5.722 0 0 0 2.28 3.943zm0-9.158a5.726 5.726 0 0 0-2.28 3.945h1.273a4.439 4.439 0 0 1 1.64-2.844l-.633-1.101z" style="fill:#6e8189"/><path d="M20.532 30.591a2.542 2.542 0 0 0 0 5.085v-5.085z" style="fill:#4e5e67"/><path d="M20.532 27.413a5.63 5.63 0 0 0-2.282.496l.634 1.097a4.446 4.446 0 0 1 1.648-.322v-1.27zm0 10.169c-.586 0-1.14-.12-1.648-.322l-.634 1.097c.7.311 1.466.496 2.282.496v-1.271z" style="fill:#6e8189"/><path d="m53.017 24.235-.795 11.122 1.24-1.879.347-9.243z" style="fill:#302c3b"/><linearGradient id="e" x1="35.684" x2="53.473" y1="33.133" y2="33.133" gradientUnits="userSpaceOnUse"><stop offset=".75" style="stop-color:#302c3b"/><stop offset=".825" style="stop-color:#322f3e"/><stop offset=".885" style="stop-color:#3a3947"/><stop offset=".94" style="stop-color:#464a55"/><stop offset=".992" style="stop-color:#58626a"/><stop offset="1" style="stop-color:#5b666e"/></linearGradient><path d="M53.473 33.133c0 4.916-3.982 8.898-8.894 8.898a8.894 8.894 0 0 1-8.895-8.898 8.894 8.894 0 0 1 8.895-8.898c4.912 0 8.894 3.982 8.894 8.898z" style="fill:url(#e)"/><path d="M38.226 33.133a6.353 6.353 0 1 0 12.704 0 6.353 6.353 0 1 0-12.704 0z" style="fill:#e6ebef"/><path d="m47.953 37.712-.636-1.099a4.464 4.464 0 0 0 1.644-2.844h1.27a5.72 5.72 0 0 1-2.278 3.943zm0-9.158c1.236.927 2.098 2.324 2.278 3.945h-1.27a4.453 4.453 0 0 0-1.644-2.844l.636-1.101z" style="fill:#6e8189"/><path d="M44.58 30.591a2.543 2.543 0 0 1 0 5.086V30.59z" style="fill:#4e5e67"/><path d="M44.58 27.413v1.271c.581 0 1.135.12 1.645.322l.634-1.097a5.628 5.628 0 0 0-2.28-.496zm1.645 9.847a4.457 4.457 0 0 1-1.646.322v1.27a5.59 5.59 0 0 0 2.28-.495l-.634-1.097z" style="fill:#6e8189"/><path d="M21.01 23.123h23.091v20.02H21.01z" style="fill:#6e7078"/><path d="M42.99 40.64c0 .765-.625 1.39-1.39 1.39H23.511c-.764 0-1.39-.625-1.39-1.39V25.626c0-.765.626-1.39 1.39-1.39h18.09c.764 0 1.389.625 1.389 1.39V40.64z" style="fill:#302c3b"/><path d="M42.434 25.904c0-.61-.501-1.112-1.112-1.112H23.79c-.612 0-1.111.501-1.111 1.112v3.336h19.756v-3.336z" style="fill:#018bc9"/><path d="M22.678 29.24v11.122c0 .613.499 1.113 1.111 1.113h17.533c.61 0 1.112-.5 1.112-1.113V29.24H22.678z" style="fill:#fff"/><path d="M24.345 30.631h16.422v.278H24.345zm0 2.294h16.422v.278H24.345zm0 2.293h16.422v.278H24.345zm0 4.588h16.422v.278H24.345zm0-2.294h16.422v.278H24.345z" style="fill:#99a8ae"/></svg>