<svg xmlns="http://www.w3.org/2000/svg" xml:space="preserve" style="enable-background:new 0 0 64 64" viewBox="0 0 64 64"><linearGradient id="a" x1="13.23" x2="23.037" y1="14.133" y2="14.133" gradientUnits="userSpaceOnUse"><stop offset="0" style="stop-color:#d6e5ed"/><stop offset=".048" style="stop-color:#d1e0e7"/><stop offset=".481" style="stop-color:#a8b2b8"/><stop offset=".812" style="stop-color:#8f969a"/><stop offset="1" style="stop-color:#858c8f"/></linearGradient><path d="M22.55 13.07h-8.83c-.27 0-.49.19-.49.43v1.71h9.81V13.5c0-.24-.22-.43-.49-.43z" style="fill:url(#a)"/><path d="M13.48 13.49h.49v1.71h-.49zm.98 0h.49v1.71h-.49zm.98 0h.49v1.71h-.49zm.98 0h.49v1.71h-.49zm.98 0h.49v1.71h-.49zm.98 0h.49v1.71h-.49zm.98 0h.49v1.71h-.49zm.98 0h.49v1.71h-.49zm.98 0h.49v1.71h-.49zm.98 0h.49v1.71h-.49z" style="opacity:.2;fill:#1a1626"/><path d="M0 21.33h2.13v1.07H0zm61.87 0H64v1.07h-2.13z" style="fill:#cfd8dd"/><linearGradient id="b" x1="4.622" x2="12.101" y1="14.093" y2="14.093" gradientUnits="userSpaceOnUse"><stop offset="0" style="stop-color:#d6e5ed"/><stop offset=".048" style="stop-color:#d1e0e7"/><stop offset=".481" style="stop-color:#a8b2b8"/><stop offset=".812" style="stop-color:#8f969a"/><stop offset="1" style="stop-color:#858c8f"/></linearGradient><path d="M12.09 15.07H4.62s.43-1.38.97-1.6c1.28-.52 4.26-.52 5.54 0 .58.24 1.06 1.9.96 1.6z" style="fill:url(#b)"/><path d="M7.26 12.93h2.19v2.13H7.26z" style="fill:#cfd8dd"/><linearGradient id="c" x1="1.067" x2="62.933" y1="35.2" y2="35.2" gradientUnits="userSpaceOnUse"><stop offset=".9" style="stop-color:#323844"/><stop offset="1" style="stop-color:#1a1626"/></linearGradient><path d="M1.07 21.33h61.87v27.73H1.07z" style="fill:url(#c)"/><linearGradient id="d" x1="1.067" x2="62.933" y1="50.133" y2="50.133" gradientUnits="userSpaceOnUse"><stop offset="0" style="stop-color:#7b8589"/><stop offset=".012" style="stop-color:#8d979b"/><stop offset=".034" style="stop-color:#aab3b8"/><stop offset=".057" style="stop-color:#bec8cc"/><stop offset=".079" style="stop-color:#cbd4d9"/><stop offset=".1" style="stop-color:#cfd8dd"/><stop offset=".9" style="stop-color:#cfd8dd"/><stop offset=".921" style="stop-color:#cbd4d9"/><stop offset=".943" style="stop-color:#bec8cc"/><stop offset=".966" style="stop-color:#aab3b8"/><stop offset=".988" style="stop-color:#8d979b"/><stop offset="1" style="stop-color:#7b8589"/></linearGradient><path d="M60.83 51.2H3.17c-2.1 0-2.1-2.13-2.1-2.13h61.87c-.01 0-.01 2.13-2.11 2.13z" style="fill:url(#d)"/><linearGradient id="e" x1="1.067" x2="62.933" y1="17.067" y2="17.067" gradientUnits="userSpaceOnUse"><stop offset="0" style="stop-color:#7b8589"/><stop offset=".012" style="stop-color:#8d979b"/><stop offset=".034" style="stop-color:#aab3b8"/><stop offset=".057" style="stop-color:#bec8cc"/><stop offset=".079" style="stop-color:#cbd4d9"/><stop offset=".1" style="stop-color:#cfd8dd"/><stop offset=".9" style="stop-color:#cfd8dd"/><stop offset=".921" style="stop-color:#cbd4d9"/><stop offset=".943" style="stop-color:#bec8cc"/><stop offset=".966" style="stop-color:#aab3b8"/><stop offset=".988" style="stop-color:#8d979b"/><stop offset="1" style="stop-color:#7b8589"/></linearGradient><path d="m62.93 13.81-1.57-1.01h-30.5c-5.42 0-6.11 2.25-11.31 2.25H2.14c-1.07 0-1.07.91-1.07.91v5.37h61.87v-7.52z" style="fill:url(#e)"/><path d="M31.66 45.67a2.87 2.87 0 1 1-2.87-2.87c1.58 0 2.87 1.29 2.87 2.87z" style="fill:#99a8ae"/><path d="M30.89 45.67a2.11 2.11 0 1 1-4.22 0 2.11 2.11 0 0 1 4.22 0z" style="fill:#302c3b"/><radialGradient id="f" cx="41.6" cy="33.556" r="16.533" gradientTransform="rotate(-45.001 -160.932 117.446) scale(1 5.9999)" gradientUnits="userSpaceOnUse"><stop offset=".23" style="stop-color:#effaff"/><stop offset=".369" style="stop-color:#e7f2f7"/><stop offset=".587" style="stop-color:#d1dce1"/><stop offset=".854" style="stop-color:#adb9bd"/><stop offset="1" style="stop-color:#96a2a6"/></radialGradient><circle cx="41.6" cy="33.56" r="16.53" style="fill:url(#f)"/><circle cx="41.6" cy="33.56" r="14.53" style="fill:#1a1626"/><circle cx="41.6" cy="33.56" r="13.03" style="fill:#25222e"/><linearGradient id="g" x1="33.452" x2="49.748" y1="25.408" y2="41.705" gradientUnits="userSpaceOnUse"><stop offset="0" style="stop-color:#302c3b"/><stop offset=".475" style="stop-color:#312e3d"/><stop offset=".749" style="stop-color:#363742"/><stop offset=".972" style="stop-color:#3f454b"/><stop offset="1" style="stop-color:#40474d"/></linearGradient><path d="M53.12 33.56c0 6.37-5.16 11.52-11.52 11.52-6.36 0-11.52-5.16-11.52-11.52 0-6.36 5.16-11.52 11.52-11.52 6.36-.01 11.52 5.15 11.52 11.52z" style="fill:url(#g)"/><path d="M48.79 33.56a7.191 7.191 0 0 1-14.38 0 7.191 7.191 0 0 1 14.38 0z" style="opacity:.2;fill:#302c3b"/><path d="M49.12 33.56a7.51 7.51 0 0 1-7.52 7.51c-4.15 0-7.51-3.36-7.51-7.51s3.36-7.51 7.51-7.51c4.15-.01 7.52 3.36 7.52 7.51z" style="fill:#35313d"/><path d="M47.61 33.56c0 3.32-2.69 6.01-6.01 6.01s-6.01-2.69-6.01-6.01 2.69-6.01 6.01-6.01c3.32-.01 6.01 2.69 6.01 6.01z" style="fill:#272430"/><path d="M46.11 33.56a4.511 4.511 0 0 1-9.02 0 4.511 4.511 0 0 1 9.02 0z" style="fill:#2d2a36"/><path d="M44.61 33.56c0 1.66-1.35 3.01-3.01 3.01-1.66 0-3.01-1.35-3.01-3.01 0-1.66 1.35-3.01 3.01-3.01 1.66 0 3.01 1.35 3.01 3.01z" style="fill:#35313d"/><path d="M42.6 33.56c0 .55-.45 1-1 1s-1-.45-1-1 .45-1 1-1a.99.99 0 0 1 1 1z" style="fill:#1a1626"/><radialGradient id="h" cx="583.822" cy="38.374" r="27.007" gradientTransform="matrix(.3583 .4654 -.5242 .4036 -154.45 -262.523)" gradientUnits="userSpaceOnUse"><stop offset="0" style="stop-color:#fff;stop-opacity:.2"/><stop offset="1" style="stop-color:#fff;stop-opacity:0"/></radialGradient><path d="M45.14 38.59c-4.04 3.11-9.55 2.73-12.31-.86s-1.73-9.02 2.31-12.13c4.04-3.12 9.56-2.73 12.32.86s1.72 9.02-2.32 12.13z" style="fill:url(#h)"/><circle cx="23.79" cy="18.19" r="1.6" style="fill:#4e5e67"/><circle cx="23.79" cy="18.19" r="1.07" style="fill:#99a8ae"/><path d="M24.48 18.19c0 .38-.31.69-.69.69-.38 0-.69-.31-.69-.69 0-.38.31-.69.69-.69.38 0 .69.31.69.69z" style="fill:#1a1626"/><linearGradient id="i" x1="1.067" x2="19.548" y1="35.2" y2="35.2" gradientUnits="userSpaceOnUse"><stop offset="0" style="stop-color:#302c3b"/><stop offset=".015" style="stop-color:#33313f"/><stop offset=".099" style="stop-color:#3f4551"/><stop offset=".194" style="stop-color:#47535d"/><stop offset=".309" style="stop-color:#4c5b65"/><stop offset=".5" style="stop-color:#4e5e67"/><stop offset=".631" style="stop-color:#4a5862"/><stop offset=".803" style="stop-color:#414853"/><stop offset=".997" style="stop-color:#302c3b"/><stop offset="1" style="stop-color:#302c3b"/></linearGradient><path d="M1.07 21.33h18.48v27.73H1.07z" style="fill:url(#i)"/><path d="M18.25 17.13c0-.44-.36-.8-.8-.8h-9.6c-.44 0-.8.36-.8.8v2.13c0 .44.36.8.8.8h9.6c.44 0 .8-.36.8-.8v-2.13z" style="fill:#6e8189"/><linearGradient id="j" x1="7.321" x2="17.988" y1="18.194" y2="18.194" gradientUnits="userSpaceOnUse"><stop offset=".006" style="stop-color:#acb4b8"/><stop offset=".029" style="stop-color:#b8bec2"/><stop offset=".093" style="stop-color:#d2d6d8"/><stop offset=".163" style="stop-color:#e6e8e9"/><stop offset=".243" style="stop-color:#f4f5f6"/><stop offset=".34" style="stop-color:#fcfdfd"/><stop offset=".5" style="stop-color:#fff"/><stop offset=".662" style="stop-color:#fcfdfd"/><stop offset=".76" style="stop-color:#f4f5f6"/><stop offset=".841" style="stop-color:#e6e8e9"/><stop offset=".912" style="stop-color:#d2d6d8"/><stop offset=".977" style="stop-color:#b8bec2"/><stop offset="1" style="stop-color:#acb4b8"/></linearGradient><path d="M17.99 17.13c0-.29-.24-.53-.53-.53h-9.6c-.29 0-.53.24-.53.53v2.13c0 .29.24.53.53.53h9.6c.29 0 .53-.24.53-.53v-2.13z" style="fill:url(#j)"/><path d="M7.32 18.78h10.67v.11H7.32zm0 .64h10.67v.11H7.32zm0-1.28h10.67v.11H7.32zm0-.64h10.67v.11H7.32z" style="opacity:.3;fill:#6e8189"/><path d="M16.55 16.33h.11v3.73h-.11zm-7.9 0h.11v3.73h-.11z" style="opacity:.3;fill:#6e8189"/><path d="M7.32 16.86h10.67v.11H7.32z" style="opacity:.3;fill:#6e8189"/></svg>