<svg xmlns="http://www.w3.org/2000/svg" xml:space="preserve" viewBox="0 0 64 64"><radialGradient id="a" cx="31.999" cy="32" r="26.2" gradientUnits="userSpaceOnUse"><stop offset="0" style="stop-color:#545061"/><stop offset=".279" style="stop-color:#464253"/><stop offset=".611" style="stop-color:#312d3d"/><stop offset=".796" style="stop-color:#211d2d"/><stop offset=".956" style="stop-color:#1a1626"/></radialGradient><path fill="url(#a)" d="M7.368 23.676c-11.1 32.841 38.163 49.489 49.262 16.648C67.73 7.482 18.469-9.166 7.368 23.676z"/><radialGradient id="b" cx="19.826" cy="31.999" r="3.931" gradientTransform="matrix(1 0 0 1.927 0 -29.663)" gradientUnits="userSpaceOnUse"><stop offset=".082" style="stop-color:#e1e3e7"/><stop offset=".215" style="stop-color:#d9e0e4"/><stop offset=".395" style="stop-color:#d6dde1"/><stop offset=".629" style="stop-color:#c2cacd"/><stop offset=".767" style="stop-color:#a2aaad"/><stop offset="1" style="stop-color:#a2aaad"/></radialGradient><path fill="url(#b)" d="M20.972 37.371c-3.431 0-3.431-10.743.001-10.743l.282-.001v10.746l-.283-.002z"/><linearGradient id="c" x1="22.628" x2="22.628" y1="26.626" y2="37.371" gradientUnits="userSpaceOnUse"><stop offset="0" style="stop-color:#545061"/><stop offset=".279" style="stop-color:#464253"/><stop offset=".619" style="stop-color:#211d2d"/><stop offset="1" style="stop-color:#1a1626"/></linearGradient><path fill="url(#c)" d="M21.253 37.371c-2.403.003-2.402-10.743.001-10.745l4.551.001V37.37h-4.552z"/><radialGradient id="d" cx="23.755" cy="31.999" r="4.066" gradientTransform="matrix(1 0 0 1.927 0 -29.663)" gradientUnits="userSpaceOnUse"><stop offset=".082" style="stop-color:#e1e3e7"/><stop offset=".215" style="stop-color:#d9e0e4"/><stop offset=".395" style="stop-color:#d6dde1"/><stop offset=".629" style="stop-color:#c2cacd"/><stop offset=".767" style="stop-color:#a2aaad"/><stop offset="1" style="stop-color:#a2aaad"/></radialGradient><path fill="url(#d)" d="M23.506 37.372c-2.402-.001-2.401-10.745.001-10.746h2.299v10.745l-2.3.001z"/><radialGradient id="e" cx="29.806" cy="31.999" r="10.245" gradientTransform="matrix(1 0 0 1.927 0 -29.663)" gradientUnits="userSpaceOnUse"><stop offset="0" style="stop-color:#e1e3e7"/><stop offset=".117" style="stop-color:#d9e0e4"/><stop offset=".23" style="stop-color:#d6dde1"/><stop offset=".449" style="stop-color:#c2cacd"/><stop offset=".64" style="stop-color:#a2aaad"/><stop offset=".802" style="stop-color:#a2aaad"/><stop offset="1" style="stop-color:#4e5e67"/></radialGradient><path fill="url(#e)" d="M25.805 37.371c-2.945-.824-2.945-9.918 0-10.743 3.251-.911 10.211-11.545 10.211-11.545v33.834c0-.001-6.961-10.634-10.211-11.546z"/><linearGradient id="f" x1="30.999" x2="43.599" y1="31.999" y2="31.999" gradientUnits="userSpaceOnUse"><stop offset=".074" style="stop-color:#e6ebef"/><stop offset=".256" style="stop-color:#d9e0e4"/><stop offset=".534" style="stop-color:#d6dde1"/><stop offset=".974" style="stop-color:#c2cacd"/></linearGradient><path fill="url(#f)" d="M37.6 49.499c7.999 0 7.999-35 0-35-8.802 0-8.802 35 0 35z"/><radialGradient id="g" cx="37.94" cy="31.999" r="11.641" gradientUnits="userSpaceOnUse"><stop offset="0" style="stop-color:#545061"/><stop offset=".279" style="stop-color:#464253"/><stop offset=".611" style="stop-color:#312d3d"/><stop offset=".796" style="stop-color:#211d2d"/><stop offset=".956" style="stop-color:#1a1626"/></radialGradient><path fill="url(#g)" d="M38.002 47.749c6.31 0 6.31-31.5 0-31.5-2.37 0-3.951 3.499-4.742 8.166l-.113.597c1.503 4.149 1.616 9.108-.001 13.966l.321 1.723c.846 4.095 2.357 7.048 4.535 7.048z"/><linearGradient id="h" x1="34.42" x2="34.42" y1="25.011" y2="38.977" gradientUnits="userSpaceOnUse"><stop offset="0" style="stop-color:#d9e0e4"/><stop offset=".232" style="stop-color:#d6dde1"/><stop offset=".831" style="stop-color:#c2cacd"/></linearGradient><path fill="url(#h)" d="M33.147 25.011c4.116.263 4.115 13.705-.001 13.966-.726-4.057-.714-10.263.001-13.966z"/><radialGradient id="i" cx="34.51" cy="31.994" r="5.086" gradientUnits="userSpaceOnUse"><stop offset="0" style="stop-color:#d9e0e4"/><stop offset=".354" style="stop-color:#d6dde1"/><stop offset=".528" style="stop-color:#c2cacd"/><stop offset=".753" style="stop-color:#a2aaad"/><stop offset="1" style="stop-color:#a2aaad"/></radialGradient><path fill="url(#i)" d="M32.786 36.157c2.976-.297 3.065-9.741.262-10.573.032-.194.064-.39.099-.573 4.116.263 4.115 13.703-.001 13.965a32.22 32.22 0 0 1-.36-2.819z"/><linearGradient id="j" x1="16.997" x2="47.002" y1="6.015" y2="57.985" gradientUnits="userSpaceOnUse"><stop offset="0" style="stop-color:#ff3b3b"/><stop offset=".256" style="stop-color:#fb3737"/><stop offset=".521" style="stop-color:#f02b2a"/><stop offset=".789" style="stop-color:#dd1616"/><stop offset="1" style="stop-color:#c90100"/></linearGradient><path fill="url(#j)" d="M32 2C15.432 2 2 15.432 2 32s13.432 30 30 30c16.568 0 30-13.432 30-30S48.568 2 32 2zm24 30a23.89 23.89 0 0 1-5.045 14.713L17.289 13.045A23.886 23.886 0 0 1 32 8c13.256 0 24 10.746 24 24zM8 32a23.884 23.884 0 0 1 5.046-14.712l33.666 33.668A23.893 23.893 0 0 1 32 56C18.746 56 8 45.256 8 32z"/></svg>