<svg xmlns="http://www.w3.org/2000/svg" xml:space="preserve" viewBox="0 0 64 64"><linearGradient id="a" x1="32" x2="32" y1="2" y2="62" gradientUnits="userSpaceOnUse"><stop offset="0" style="stop-color:#00abf1"/><stop offset=".229" style="stop-color:#00a7ef"/><stop offset=".467" style="stop-color:#009ae9"/><stop offset=".708" style="stop-color:#0086e0"/><stop offset=".95" style="stop-color:#0069d3"/><stop offset="1" style="stop-color:#0062d0"/></linearGradient><path fill="url(#a)" d="M62 54c0 4.4-3.6 8-8 8H10c-4.4 0-8-3.6-8-8V10c0-4.4 3.6-8 8-8h44c4.4 0 8 3.6 8 8v44z"/><path fill="#FFF" d="M42 24.227H24c-.656 0-3.871.291-3.988 5.705L12.932 36c-.578-1.641-.932-3.545-.932-5.773 0-10.271 7.176-14 12-14h18v-4l10 8-10 8v-4zM22 39.773h18c.656 0 3.871-.291 3.989-5.705L51.068 28c.579 1.642.932 3.545.932 5.773 0 10.271-7.177 14-12 14H22v4l-10-8 10-8v4z"/></svg>