<svg xmlns="http://www.w3.org/2000/svg" xml:space="preserve" style="enable-background:new 0 0 64 64" viewBox="0 0 64 64"><radialGradient id="a" cx="107.409" cy="37.298" r="27.32" gradientTransform="matrix(.9 0 0 22.0706 -71.034 -786.573)" gradientUnits="userSpaceOnUse"><stop offset="0" style="stop-color:#9be022"/><stop offset=".119" style="stop-color:#87c622"/><stop offset=".248" style="stop-color:#76b223"/><stop offset=".376" style="stop-color:#6ca523"/><stop offset=".5" style="stop-color:#69a123"/><stop offset=".724" style="stop-color:#6ba323"/><stop offset=".819" style="stop-color:#70aa23"/><stop offset=".889" style="stop-color:#7ab723"/><stop offset=".947" style="stop-color:#88c822"/><stop offset=".998" style="stop-color:#9adf22"/><stop offset="1" style="stop-color:#9be022"/></radialGradient><path d="M50 56.76c0 8.32-36 8.32-36 0V5.2h36v51.56z" style="fill:url(#a)"/><path d="M32.62 15.89c0 .18-.16.33-.35.33h-.54c-.2 0-.36-.15-.36-.33v-4.33c0-.18.16-.33.36-.33h.54c.2 0 .35.15.35.33v4.33z" style="fill:#fff"/><path d="M29.84 14.35c-.18 0-.34-.16-.34-.36v-.54c0-.2.15-.36.34-.36h4.33c.18 0 .33.16.33.36v.54c0 .2-.15.36-.33.36h-4.33zm0 43.78c-.18 0-.34-.16-.34-.36v-.54c0-.2.15-.36.34-.36h4.33c.18 0 .33.16.33.36v.54c0 .2-.15.36-.33.36h-4.33zm-.32-17.23.47-.46c.01-.01.02-.01.03-.01.01 0 .03.01.03.01l.47.46c.01.01.01.02.01.03 0 .01-.01.02-.01.03l-.47.46c-.02.02-.05.02-.07 0l-.47-.46c-.01-.01-.01-.04.01-.06zm1.3-7.15c0-.69.58-1.26 1.33-1.26.75 0 1.33.57 1.33 1.26 0 .4-.16.7-.43.89h1.26c.03 0 .06.01.08.03.02.02.03.05.03.08v.32c.01.03-.01.06-.03.08-.02.02-.05.03-.08.03H31c-.03.01-.06-.01-.08-.03s-.03-.05-.03-.08v-.32c0-.03.01-.06.03-.08.02-.02.05-.03.08-.03h.25c-.27-.2-.43-.49-.43-.89zm2.14.09c0-.46-.34-.8-.81-.8-.47 0-.81.34-.81.8s.34.8.8.8c.48 0 .82-.35.82-.8zm.46-1.78c0 .03-.01.06-.03.08-.02.02-.05.03-.08.03H31c-.03.01-.06-.01-.08-.03a.114.114 0 0 1-.03-.08v-.32c0-.03.01-.06.03-.09.02-.02.05-.03.08-.03h2.3c.03 0 .06.01.08.03.02.02.03.05.03.09l.01.32zm-.14-2.78c.08-.05.14-.01.14.08v.33c0 .06-.03.11-.08.14l-.77.49.77.49c.05.03.08.08.08.14v.33c0 .09-.06.13-.14.08l-1.17-.75-1.09.7c-.08.05-.14.02-.14-.08v-.33c0-.06.03-.11.07-.14l.7-.44-.7-.45c-.05-.03-.08-.08-.07-.14v-.33c0-.09.06-.13.14-.08l1.09.7 1.17-.74zm-2.46-1.34c0-.76.61-1.25 1.33-1.25h.12c.03 0 .06.01.08.04.02.02.03.05.03.08v1.89c.41-.08.63-.39.63-.78a.687.687 0 0 0-.24-.55.191.191 0 0 1-.07-.14v-.32c0-.08.05-.13.12-.1.41.19.66.6.66 1.12 0 .81-.57 1.34-1.33 1.34-.75 0-1.33-.54-1.33-1.33zm1.12.77v-1.46c-.43.07-.62.38-.62.7 0 .4.24.68.62.76zm1.48-2.42c0 .03-.01.06-.03.08-.02.02-.05.03-.08.03H29.9c-.03 0-.06-.01-.08-.03a.114.114 0 0 1-.03-.08v-.32c-.01-.03.01-.06.03-.08.02-.02.05-.03.08-.03h3.41c.03 0 .06.01.08.03.02.02.03.05.03.08v.32zm-1.82-1.35c.51 0 .14-1.4 1.11-1.4.5 0 .78.43.78.99 0 .52-.25.93-.73.99-.03.01-.07 0-.09-.02-.02-.02-.04-.06-.03-.09v-.31c0-.07.04-.1.1-.12.18-.04.26-.22.26-.44 0-.27-.09-.45-.29-.45-.5 0-.14 1.4-1.11 1.4-.49 0-.78-.44-.78-.96 0-.47.25-.88.73-.94.03-.01.06 0 .09.02.02.02.04.05.03.09v.31c0 .07-.04.1-.1.12-.18.04-.25.21-.25.39-.01.24.09.42.28.42zm-.71 15.85c0-.03.01-.06.03-.08.02-.02.05-.03.08-.03h2.52c.66 0 .99.31.98.92 0 .03-.01.06-.03.08-.02.02-.05.03-.09.03h-.3c-.03 0-.06-.01-.08-.03a.114.114 0 0 1-.03-.08c-.01-.26-.14-.38-.45-.38H31c-.03 0-.06-.01-.08-.03a.114.114 0 0 1-.03-.08v-.32zm2.59-1.76c0 .73-.6 1.33-1.33 1.32a1.33 1.33 0 1 1 0-2.66c.36 0 .7.14.95.39.25.26.38.6.38.95zm-.53 0a.82.82 0 0 0-.49-.75.783.783 0 0 0-.87.17c-.23.23-.3.57-.18.87.12.3.41.5.74.5.21.01.42-.07.57-.22a.81.81 0 0 0 .23-.57zm-1.97-3.06c-.06-.02-.1-.07-.09-.13v-.34c0-.08.05-.12.13-.09l3.32 1.14c.06.02.1.07.09.13v.35c0 .08-.05.12-.13.09l-.91-.31-2.37.93c-.08.03-.13-.01-.13-.09v-.35c-.01-.06.03-.11.09-.13l1.65-.64-1.65-.56zm-.71 9.4a1.81 1.81 0 1 1 3.62 0 1.81 1.81 0 0 1-3.62 0zm-.6 0c0 1.33 1.08 2.41 2.41 2.41s2.41-1.08 2.41-2.41-1.08-2.41-2.41-2.41c-.64 0-1.25.25-1.7.71-.46.45-.71 1.07-.71 1.7z" style="fill:#fff"/><path d="M32.32 44.89c0 .03-.01.07-.03.09s-.06.03-.09.03h-.24c-.03.01-.07-.01-.09-.03s-.04-.06-.03-.09v-.78c-.01-.03.01-.07.03-.09.02-.02.06-.03.09-.03h.12c.56 0 1.07.34 1.28.85.21.52.1 1.11-.3 1.51-.02.03-.05.04-.09.04-.03 0-.06-.02-.08-.04l-.26-.26c-.03-.02-.04-.05-.04-.09 0-.03.02-.06.04-.08.19-.19.27-.47.21-.74a.774.774 0 0 0-.52-.56v.27z" style="fill:#fff"/><path d="M50 5.2c0-5.03-36-5.02-36 0 0 5.03 36 5.03 36 0z" style="fill:#619c37"/><path d="M47.29 4.7c0-3.47-30.58-3.47-30.58 0s30.58 3.47 30.58 0z" style="fill:#cfd8dd"/><radialGradient id="b" cx="112.429" cy="9.241" r="5.998" gradientTransform="matrix(.9 0 0 5.758 -71.034 -48.891)" gradientUnits="userSpaceOnUse"><stop offset="0" style="stop-color:#b3c2c6"/><stop offset=".213" style="stop-color:#aebdc1"/><stop offset=".479" style="stop-color:#a0adb2"/><stop offset=".771" style="stop-color:#889499"/><stop offset="1" style="stop-color:#717b80"/></radialGradient><path d="M38.39 2.46H25.61l-1 2.37c0 1.78 14.78 1.78 14.78 0l-1-2.37z" style="fill:url(#b)"/><path d="M38.39 2.46c0-1.78-12.78-1.78-12.78 0 0 1.79 12.78 1.79 12.78 0z" style="fill:#b3c2c6"/><path d="M37.83 2.09c0-1.45-11.66-1.45-11.66 0s11.66 1.45 11.66 0z" style="fill:#cfd8dd"/></svg>