<svg xmlns="http://www.w3.org/2000/svg" xml:space="preserve" viewBox="0 0 64 64"><linearGradient id="a" x1="32" x2="32" y1="2" y2="62" gradientUnits="userSpaceOnUse"><stop offset="0" style="stop-color:#00abf1"/><stop offset=".229" style="stop-color:#00a7ef"/><stop offset=".467" style="stop-color:#009ae9"/><stop offset=".708" style="stop-color:#0086e0"/><stop offset=".95" style="stop-color:#0069d3"/><stop offset="1" style="stop-color:#0062d0"/></linearGradient><path fill="url(#a)" d="M62 54c0 4.4-3.6 8-8 8H10c-4.4 0-8-3.6-8-8V10c0-4.4 3.6-8 8-8h44c4.4 0 8 3.6 8 8v44z"/><path fill="#FFF" d="M42 26v4l10-8-10-8v4c-7.266 0-11.237 6.621-14.43 11.942C24.649 34.809 22.545 38 20 38h-8v8h8c7.265 0 11.237-6.621 14.43-11.941C37.35 29.19 39.455 26 42 26z"/><path fill="#FFF" d="M42 38c-1.771 0-3.336-1.572-5.105-4.155-.26.425-.512.845-.75 1.243-1.148 1.914-2.395 3.979-3.85 5.889C34.766 43.828 37.842 46 42 46v4l10-8-10-8v4zm-16.895-7.845c.259-.425.511-.844.75-1.242 1.148-1.914 2.395-3.979 3.85-5.89C27.233 20.172 24.157 18 20 18h-8v8h8c1.772 0 3.336 1.572 5.105 4.155z"/></svg>