<svg xmlns="http://www.w3.org/2000/svg" xml:space="preserve" viewBox="0 0 64 64"><linearGradient id="a" x1="-49.243" x2="-27.313" y1="56.991" y2="19.008" gradientTransform="matrix(1 0 0 -1 94 70)" gradientUnits="userSpaceOnUse"><stop offset=".202" style="stop-color:#00abf1"/><stop offset=".578" style="stop-color:#00a7ef"/><stop offset=".967" style="stop-color:#009aea"/><stop offset="1" style="stop-color:#0099e9"/></linearGradient><path fill="url(#a)" d="M53.774 55.397c0-.182.04-.367.127-.55 6.942-14.733 6.942-30.961 0-45.696-.378-.805.127-1.706 1.132-2.009 1.005-.308 2.13.102 2.509.908 7.277 15.443 7.277 32.454 0 47.901-.379.805-1.504 1.211-2.509.906-.778-.235-1.259-.829-1.259-1.46z"/><linearGradient id="b" x1="-57.684" x2="-45.887" y1="48.218" y2="27.786" gradientTransform="matrix(1 0 0 -1 94 70)" gradientUnits="userSpaceOnUse"><stop offset=".202" style="stop-color:#00abf1"/><stop offset=".578" style="stop-color:#00a7ef"/><stop offset=".967" style="stop-color:#009aea"/><stop offset="1" style="stop-color:#0099e9"/></linearGradient><path fill="url(#b)" d="M40.269 43.7c-.001-.129.019-.26.061-.391a36.862 36.862 0 0 0 0-22.622c-.269-.835.361-1.685 1.401-1.899 1.039-.214 2.1.289 2.368 1.124a39.446 39.446 0 0 1 0 24.174c-.269.835-1.329 1.337-2.368 1.123-.881-.181-1.462-.814-1.462-1.509z"/><linearGradient id="c" x1="-53.365" x2="-36.84" y1="52.313" y2="23.69" gradientTransform="matrix(1 0 0 -1 94 70)" gradientUnits="userSpaceOnUse"><stop offset=".202" style="stop-color:#00abf1"/><stop offset=".578" style="stop-color:#00a7ef"/><stop offset=".967" style="stop-color:#009aea"/><stop offset="1" style="stop-color:#0099e9"/></linearGradient><path fill="url(#c)" d="M46.95 49.158c0-.176.037-.354.116-.528 4.814-10.727 4.814-22.537 0-33.261-.364-.809.159-1.706 1.171-1.997s2.128.128 2.49.939c5.121 11.405 5.121 23.968 0 35.375-.366.811-1.482 1.232-2.49.939-.793-.229-1.287-.829-1.287-1.467z"/><radialGradient id="d" cx="-93.563" cy="212.625" r="5.84" gradientTransform="matrix(.9936 0 0 -1.927 96.068 441.728)" gradientUnits="userSpaceOnUse"><stop offset=".082" style="stop-color:#e1e3e7"/><stop offset=".215" style="stop-color:#d9e0e4"/><stop offset=".395" style="stop-color:#d6dde1"/><stop offset=".629" style="stop-color:#c2cacd"/><stop offset=".767" style="stop-color:#a2aaad"/><stop offset="1" style="stop-color:#a2aaad"/></radialGradient><path fill="url(#d)" d="M4.799 39.981c-5.065 0-5.065-15.962.002-15.962l.415-.002v15.966l-.417-.002z"/><linearGradient id="e" x1="-86.756" x2="-86.756" y1="45.983" y2="30.019" gradientTransform="matrix(1 0 0 -1 94 70)" gradientUnits="userSpaceOnUse"><stop offset="0" style="stop-color:#545061"/><stop offset=".279" style="stop-color:#464253"/><stop offset=".619" style="stop-color:#211d2d"/><stop offset="1" style="stop-color:#1a1626"/></linearGradient><path fill="url(#e)" d="M5.214 39.981c-3.547.004-3.545-15.962.002-15.964l6.718.002v15.962h-6.72z"/><radialGradient id="f" cx="-87.726" cy="212.625" r="6.041" gradientTransform="matrix(.9936 0 0 -1.927 96.068 441.728)" gradientUnits="userSpaceOnUse"><stop offset=".082" style="stop-color:#e1e3e7"/><stop offset=".215" style="stop-color:#d9e0e4"/><stop offset=".395" style="stop-color:#d6dde1"/><stop offset=".629" style="stop-color:#c2cacd"/><stop offset=".767" style="stop-color:#a2aaad"/><stop offset="1" style="stop-color:#a2aaad"/></radialGradient><path fill="url(#f)" d="M8.539 39.983c-3.546-.002-3.544-15.964.001-15.966h3.394v15.964l-3.395.002z"/><radialGradient id="g" cx="-78.736" cy="212.625" r="15.22" gradientTransform="matrix(.9936 0 0 -1.927 96.068 441.728)" gradientUnits="userSpaceOnUse"><stop offset="0" style="stop-color:#e1e3e7"/><stop offset=".117" style="stop-color:#d9e0e4"/><stop offset=".23" style="stop-color:#d6dde1"/><stop offset=".449" style="stop-color:#c2cacd"/><stop offset=".64" style="stop-color:#a2aaad"/><stop offset=".802" style="stop-color:#a2aaad"/><stop offset="1" style="stop-color:#4e5e67"/></radialGradient><path fill="url(#g)" d="M11.934 39.981c-4.348-1.226-4.348-14.735 0-15.962 4.799-1.353 15.072-17.153 15.072-17.153v50.268S16.73 41.335 11.934 39.981z"/><linearGradient id="h" x1="-74.4" x2="-55.801" y1="38" y2="38" gradientTransform="matrix(1 0 0 -1 94 70)" gradientUnits="userSpaceOnUse"><stop offset=".074" style="stop-color:#e6ebef"/><stop offset=".256" style="stop-color:#d9e0e4"/><stop offset=".534" style="stop-color:#d6dde1"/><stop offset=".974" style="stop-color:#c2cacd"/></linearGradient><path fill="url(#h)" d="M29.345 58c11.806 0 11.806-52 0-52-12.993 0-12.993 52 0 52z"/><radialGradient id="i" cx="-66.651" cy="38" r="17.296" gradientTransform="matrix(.9936 0 0 -1 96.068 70)" gradientUnits="userSpaceOnUse"><stop offset="0" style="stop-color:#545061"/><stop offset=".279" style="stop-color:#464253"/><stop offset=".611" style="stop-color:#312d3d"/><stop offset=".796" style="stop-color:#211d2d"/><stop offset=".956" style="stop-color:#1a1626"/></radialGradient><path fill="url(#i)" d="M29.937 55.399c9.315 0 9.315-46.799 0-46.799-3.498 0-5.834 5.198-7 12.131l-.166.888c2.219 6.164 2.385 13.532-.002 20.749l.475 2.559c1.249 6.086 3.479 10.472 6.693 10.472z"/><linearGradient id="j" x1="-69.351" x2="-69.351" y1="48.381" y2="27.632" gradientTransform="matrix(1 0 0 -1 94 70)" gradientUnits="userSpaceOnUse"><stop offset="0" style="stop-color:#d9e0e4"/><stop offset=".232" style="stop-color:#d6dde1"/><stop offset=".831" style="stop-color:#c2cacd"/></linearGradient><path fill="url(#j)" d="M22.771 21.619c6.076.39 6.073 20.36-.002 20.749-1.072-6.028-1.055-15.248.002-20.749z"/><radialGradient id="k" cx="-71.747" cy="38.008" r="7.556" gradientTransform="matrix(.9936 0 0 -1 96.068 70)" gradientUnits="userSpaceOnUse"><stop offset="0" style="stop-color:#d9e0e4"/><stop offset=".354" style="stop-color:#d6dde1"/><stop offset=".528" style="stop-color:#c2cacd"/><stop offset=".753" style="stop-color:#a2aaad"/><stop offset="1" style="stop-color:#a2aaad"/></radialGradient><path fill="url(#k)" d="M22.238 38.177c4.394-.44 4.525-14.472.387-15.708.047-.287.096-.579.146-.85 6.077.39 6.075 20.358 0 20.747a47.75 47.75 0 0 1-.533-4.189z"/></svg>