<svg xmlns="http://www.w3.org/2000/svg" xml:space="preserve" style="enable-background:new 0 0 64 64" viewBox="0 0 64 64"><linearGradient id="a" x1="32" x2="32" y1="2.971" y2="65.141" gradientUnits="userSpaceOnUse"><stop offset="0" style="stop-color:#ffd900"/><stop offset=".314" style="stop-color:#ffcf00"/><stop offset=".855" style="stop-color:#ffb300"/><stop offset="1" style="stop-color:#fa0"/></linearGradient><path d="M32 17c-8.28 0-15 6.72-15 15s6.71 15 15 15c8.28 0 15-6.72 15-15s-6.72-15-15-15zm0 25c-5.52 0-10-4.48-10-10s4.48-10 10-10 10 4.48 10 10-4.48 10-10 10z" style="fill:url(#a)"/><linearGradient id="b" x1="32" x2="32" y1="2.971" y2="65.141" gradientUnits="userSpaceOnUse"><stop offset="0" style="stop-color:#ffd900"/><stop offset=".314" style="stop-color:#ffcf00"/><stop offset=".855" style="stop-color:#ffb300"/><stop offset="1" style="stop-color:#fa0"/></linearGradient><circle cx="32" cy="9" r="3" style="fill:url(#b)"/><linearGradient id="c" x1="32" x2="32" y1="2.971" y2="65.141" gradientUnits="userSpaceOnUse"><stop offset="0" style="stop-color:#ffd900"/><stop offset=".314" style="stop-color:#ffcf00"/><stop offset=".855" style="stop-color:#ffb300"/><stop offset="1" style="stop-color:#fa0"/></linearGradient><circle cx="32" cy="55" r="3" style="fill:url(#c)"/><linearGradient id="d" x1="48.264" x2="48.264" y1="2.971" y2="65.141" gradientUnits="userSpaceOnUse"><stop offset="0" style="stop-color:#ffd900"/><stop offset=".314" style="stop-color:#ffcf00"/><stop offset=".855" style="stop-color:#ffb300"/><stop offset="1" style="stop-color:#fa0"/></linearGradient><path d="M46.14 13.62a3 3 0 0 0 0 4.24 3 3 0 0 0 4.24 0 3 3 0 0 0 0-4.24 2.982 2.982 0 0 0-4.24 0z" style="fill:url(#d)"/><linearGradient id="e" x1="15.737" x2="15.737" y1="2.971" y2="65.141" gradientUnits="userSpaceOnUse"><stop offset="0" style="stop-color:#ffd900"/><stop offset=".314" style="stop-color:#ffcf00"/><stop offset=".855" style="stop-color:#ffb300"/><stop offset="1" style="stop-color:#fa0"/></linearGradient><path d="M13.62 46.14a3 3 0 0 0 0 4.24 3 3 0 0 0 4.24 0 3 3 0 0 0 0-4.24 3 3 0 0 0-4.24 0z" style="fill:url(#e)"/><linearGradient id="f" x1="55" x2="55" y1="2.971" y2="65.141" gradientUnits="userSpaceOnUse"><stop offset="0" style="stop-color:#ffd900"/><stop offset=".314" style="stop-color:#ffcf00"/><stop offset=".855" style="stop-color:#ffb300"/><stop offset="1" style="stop-color:#fa0"/></linearGradient><circle cx="55" cy="32" r="3" style="fill:url(#f)"/><linearGradient id="g" x1="9" x2="9" y1="2.971" y2="65.141" gradientUnits="userSpaceOnUse"><stop offset="0" style="stop-color:#ffd900"/><stop offset=".314" style="stop-color:#ffcf00"/><stop offset=".855" style="stop-color:#ffb300"/><stop offset="1" style="stop-color:#fa0"/></linearGradient><circle cx="9" cy="32" r="3" style="fill:url(#g)"/><linearGradient id="h" x1="48.264" x2="48.264" y1="2.971" y2="65.141" gradientUnits="userSpaceOnUse"><stop offset="0" style="stop-color:#ffd900"/><stop offset=".314" style="stop-color:#ffcf00"/><stop offset=".855" style="stop-color:#ffb300"/><stop offset="1" style="stop-color:#fa0"/></linearGradient><path d="M46.14 46.14a3 3 0 0 0 0 4.24 3 3 0 0 0 4.24 0 3 3 0 0 0 0-4.24 3 3 0 0 0-4.24 0z" style="fill:url(#h)"/><linearGradient id="i" x1="15.737" x2="15.737" y1="2.971" y2="65.141" gradientUnits="userSpaceOnUse"><stop offset="0" style="stop-color:#ffd900"/><stop offset=".314" style="stop-color:#ffcf00"/><stop offset=".855" style="stop-color:#ffb300"/><stop offset="1" style="stop-color:#fa0"/></linearGradient><path d="M17.86 17.86a3 3 0 0 0 0-4.24 3 3 0 0 0-4.24 0 3 3 0 0 0 0 4.24 3 3 0 0 0 4.24 0z" style="fill:url(#i)"/></svg>