<svg xmlns="http://www.w3.org/2000/svg" xml:space="preserve" style="enable-background:new 0 0 64 64" viewBox="0 0 64 64"><linearGradient id="a" x1="32" x2="32" y1="36" y2="4" gradientUnits="userSpaceOnUse"><stop offset="0" style="stop-color:#7a869c"/><stop offset="1" style="stop-color:#97a4be"/></linearGradient><path d="M61 20 45 4v10H3v12h42v10z" style="fill:url(#a)"/><linearGradient id="b" x1="6.452" x2="6.452" y1="60" y2="44" gradientUnits="userSpaceOnUse"><stop offset="0" style="stop-color:#7a869c"/><stop offset="1" style="stop-color:#97a4be"/></linearGradient><path d="M11.764 52.252c-.414-.387-.978-.735-1.695-1.041-.717-.307-1.611-.57-2.683-.79-.884-.189-1.543-.368-1.978-.537-.433-.167-.727-.347-.879-.536a.989.989 0 0 1-.228-.636c0-.482.225-.866.674-1.15.447-.285 1.041-.428 1.78-.428s1.485.124 2.239.373c.753.249 1.476.62 2.172 1.117l1.26-2.914c-.392-.352-.895-.654-1.51-.91a10.266 10.266 0 0 0-2.01-.592A11.686 11.686 0 0 0 6.714 44c-1.275 0-2.39.218-3.347.657-.955.439-1.7 1.038-2.236 1.797a4.334 4.334 0 0 0-.805 2.565c0 .6.083 1.14.25 1.622.166.482.456.918.87 1.305.411.387.984.73 1.716 1.03.73.3 1.653.558 2.769.777.811.176 1.434.347 1.868.516.435.167.732.35.892.547.159.198.238.42.238.67 0 .423-.228.76-.684 1.007-.456.249-1.126.373-2.01.373a9.027 9.027 0 0 1-4.952-1.49L0 58.29c.477.35 1.054.655 1.727.91.672.256 1.393.453 2.16.592.768.138 1.535.208 2.304.208 1.434 0 2.65-.197 3.65-.591.998-.395 1.758-.957 2.28-1.689.522-.73.783-1.6.783-2.608a4.5 4.5 0 0 0-.261-1.567 3.342 3.342 0 0 0-.88-1.293z" style="fill:url(#b)"/><linearGradient id="c" x1="22.529" x2="22.529" y1="60" y2="44" gradientUnits="userSpaceOnUse"><stop offset="0" style="stop-color:#7a869c"/><stop offset="1" style="stop-color:#97a4be"/></linearGradient><path d="M26.668 44.975c-1.153-.65-2.525-.975-4.118-.975-1.593 0-2.968.326-4.128.975a6.735 6.735 0 0 0-2.692 2.773c-.639 1.198-.957 2.608-.957 4.23 0 1.637.315 3.054.944 4.252a6.724 6.724 0 0 0 2.694 2.784c1.167.658 2.546.986 4.14.986 1.592 0 2.964-.328 4.117-.986a6.747 6.747 0 0 0 2.671-2.784c.63-1.198.946-2.615.946-4.252 0-1.622-.316-3.032-.946-4.23a6.687 6.687 0 0 0-2.671-2.773zm-1.413 10.664c-.673.818-1.575 1.227-2.705 1.227-1.13 0-2.028-.406-2.694-1.217-.667-.81-.999-2.034-.999-3.671 0-1.622.332-2.835.999-3.638.666-.804 1.564-1.206 2.694-1.206s2.032.406 2.705 1.216c.674.811 1.01 2.02 1.01 3.628 0 1.622-.336 2.842-1.01 3.66z" style="fill:url(#c)"/><linearGradient id="d" x1="40.018" x2="40.018" y1="60" y2="44" gradientUnits="userSpaceOnUse"><stop offset="0" style="stop-color:#7a869c"/><stop offset="1" style="stop-color:#97a4be"/></linearGradient><path d="M44.156 44.975c-1.152-.65-2.524-.975-4.117-.975s-2.969.326-4.128.975a6.736 6.736 0 0 0-2.693 2.773c-.638 1.198-.956 2.608-.956 4.23 0 1.637.314 3.054.944 4.252a6.725 6.725 0 0 0 2.694 2.784c1.167.658 2.546.986 4.139.986 1.593 0 2.965-.328 4.117-.986a6.746 6.746 0 0 0 2.672-2.784c.63-1.198.946-2.615.946-4.252 0-1.622-.317-3.032-.946-4.23a6.686 6.686 0 0 0-2.672-2.773zm-1.412 10.664c-.674.818-1.575 1.227-2.705 1.227-1.13 0-2.028-.406-2.694-1.217-.667-.81-1-2.034-1-3.671 0-1.622.333-2.835 1-3.638.666-.804 1.564-1.206 2.694-1.206s2.031.406 2.705 1.216c.673.811 1.01 2.02 1.01 3.628 0 1.622-.337 2.842-1.01 3.66z" style="fill:url(#d)"/><linearGradient id="e" x1="57.08" x2="57.08" y1="59.803" y2="44.197" gradientUnits="userSpaceOnUse"><stop offset="0" style="stop-color:#7a869c"/><stop offset="1" style="stop-color:#97a4be"/></linearGradient><path d="M60.155 44.197v8.82l-7.017-8.82H50.16v15.606h3.803v-8.855l7.017 8.855H64V44.197z" style="fill:url(#e)"/></svg>