<svg xmlns="http://www.w3.org/2000/svg" xml:space="preserve" viewBox="0 0 64 64"><linearGradient id="a" x1="209.045" x2="209.045" y1="-83.501" y2="-128.915" gradientTransform="rotate(-45.001 292.6 179.338)" gradientUnits="userSpaceOnUse"><stop offset="0" style="stop-color:#ffd94d"/><stop offset="1" style="stop-color:#f5af31"/></linearGradient><path fill="url(#a)" d="M33.449 7.947c-4.257 4.303-5.736 10.345-4.443 15.858h-.002c.206.981.465 2.313-.105 2.889-7.089 7.161-20.384 20.524-26.686 26.89l-.054 2.246S3.173 57.435 2 60.942c0 .245 3.297-.371 6.443-.403 0 0 9.621-9.106 23.294-23.275.146-.151 3.274 3.232 3.409 3.099 1.858-1.857 1.451-2.178 2.917-3.66.797-.807 1.886-.561 3.977-.23a16.599 16.599 0 0 0 15.061-4.63c6.532-6.599 6.532-17.296-.001-23.895a16.607 16.607 0 0 0-23.651-.001zm19.57 9.511a3.742 3.742 0 0 1-5.33 0 3.834 3.834 0 0 1 0-5.385 3.74 3.74 0 0 1 5.33.002 3.838 3.838 0 0 1 0 5.383z"/><linearGradient id="b" x1="232.607" x2="232.607" y1="-85.803" y2="-126.997" gradientTransform="rotate(-45.001 292.6 179.338)" gradientUnits="userSpaceOnUse"><stop offset="0" style="stop-color:#ffc55e"/><stop offset="1" style="stop-color:#ffd94d"/></linearGradient><path fill="url(#b)" d="M34.549 9.059c-3.002 3.033-4.481 7.023-4.439 11l15.007 15.158a15.042 15.042 0 0 0 10.887-4.484c5.927-5.985 5.927-15.691 0-21.674a15.061 15.061 0 0 0-21.455 0zm18.47 8.399a3.742 3.742 0 0 1-5.33 0 3.834 3.834 0 0 1 0-5.385 3.74 3.74 0 0 1 5.33.002 3.838 3.838 0 0 1 0 5.383z"/><linearGradient id="c" x1="232.813" x2="241.718" y1="-103.467" y2="-112.373" gradientTransform="rotate(-45.001 292.6 179.338)" gradientUnits="userSpaceOnUse"><stop offset="0" style="stop-color:#e09500"/><stop offset=".467" style="stop-color:#ffe173"/><stop offset=".548" style="stop-color:#fddd6d"/><stop offset=".661" style="stop-color:#f8d15b"/><stop offset=".792" style="stop-color:#f0bd3d"/><stop offset=".937" style="stop-color:#e5a214"/><stop offset="1" style="stop-color:#e09500"/></linearGradient><path fill="url(#c)" d="M47.091 11.47a4.694 4.694 0 0 0 0 6.592 4.577 4.577 0 0 0 6.524 0 4.697 4.697 0 0 0 0-6.593 4.58 4.58 0 0 0-6.524.001zm5.834 5.894a3.61 3.61 0 0 1-5.145 0 3.698 3.698 0 0 1 .002-5.198 3.609 3.609 0 0 1 5.142 0 3.701 3.701 0 0 1 .001 5.198z"/><linearGradient id="d" x1="195.902" x2="195.902" y1="-102.55" y2="-106.919" gradientTransform="rotate(-45.001 292.6 179.338)" gradientUnits="userSpaceOnUse"><stop offset="0" style="stop-color:#ffd94d"/><stop offset="1" style="stop-color:#d68e00"/></linearGradient><path fill="url(#d)" d="M35.277 33.441c2.189-2.211 4.411.033 2.223 2.247-1.256 1.268-5.238 5.29-5.684 5.742-.196.198-2.451-.079-2.576.049-.371.372-1.129 1.14-1.5 1.514-.146.146-.291 2.849-.553 3.112-.304.306-1.916.285-2.063.433-.242.246-1.284 1.297-1.42 1.434-.087.088.013 1.094-.279 1.388-.31.315-2.75.389-2.914.555-.265.266-.896.903-1.157 1.168-.136.138-.301 2.768-.463 2.934-.271.275-2.941.979-3.077 1.115-.286.284-.769.775-1.049 1.063-.149.145-.522 2.044-.727 2.252-.262.266-2.033.349-2.499.699-.139.102-1.057 1.558-1.179 1.53-.911-.201-1.917-.137-1.917-.137s26.092-26.345 26.834-27.098z"/><linearGradient id="e" x1="193.531" x2="193.531" y1="-109.869" y2="-114.868" gradientTransform="rotate(-45.001 292.6 179.338)" gradientUnits="userSpaceOnUse"><stop offset="0" style="stop-color:#ffd94d"/><stop offset="1" style="stop-color:#d68e00"/></linearGradient><path fill="url(#e)" d="M32.249 30.383A2117020.9 2117020.9 0 0 1 2 60.942l.159-5.112S28.765 28.951 29.8 27.909c2.245-2.269 4.695.206 2.449 2.474z"/><linearGradient id="f" x1="219.386" x2="241.524" y1="-97.223" y2="-119.361" gradientTransform="rotate(-45.001 292.6 179.338)" gradientUnits="userSpaceOnUse"><stop offset="0" style="stop-color:#e09500"/><stop offset=".467" style="stop-color:#ffe173"/><stop offset=".548" style="stop-color:#fddd6d"/><stop offset=".661" style="stop-color:#f8d15b"/><stop offset=".792" style="stop-color:#f0bd3d"/><stop offset=".937" style="stop-color:#e5a214"/><stop offset="1" style="stop-color:#e09500"/></linearGradient><path fill="url(#f)" d="M56.236 30.967c-2.969 3-6.921 4.628-11.124 4.584l-.136-.002-15.197-15.351v-.136c-.044-4.248 1.566-8.241 4.537-11.24 6.044-6.104 15.876-6.104 21.918 0 6.048 6.107 6.048 16.04.002 22.145zm-10.985 3.918a14.652 14.652 0 0 0 10.518-4.39c5.785-5.846 5.785-15.356 0-21.201-5.787-5.846-15.2-5.846-20.984 0-2.813 2.84-4.352 6.609-4.346 10.625l14.812 14.966z"/></svg>