<svg xmlns="http://www.w3.org/2000/svg" xml:space="preserve" viewBox="0 0 64 64"><linearGradient id="a" x1="32.001" x2="32.001" y1="32" y2="4" gradientUnits="userSpaceOnUse"><stop offset="0" style="stop-color:#bec8cc"/><stop offset=".261" style="stop-color:#bbc5c9"/><stop offset=".443" style="stop-color:#b2bcc0"/><stop offset=".601" style="stop-color:#a3adb1"/><stop offset=".745" style="stop-color:#8e979b"/><stop offset=".878" style="stop-color:#737c7f"/><stop offset="1" style="stop-color:#535b5e"/></linearGradient><path fill="url(#a)" d="M32 4c-7.181 0-13 5.904-13 13.188v8.97c0 .604.481.604.481.604h4.378s.584 0 .584-.604v-.923h-1.877v-1.519c0-.15 1.198-.831 1.877-1.204v-5.324c0-10.252 15.113-10.252 15.113 0V32H45V17.188C45 9.904 39.178 4 32 4z"/><linearGradient id="b" x1="25.981" x2="25.981" y1="32" y2="4.742" gradientUnits="userSpaceOnUse"><stop offset="0" style="stop-color:#fafdff;stop-opacity:.7"/><stop offset=".897" style="stop-color:#fafdff;stop-opacity:0"/></linearGradient><path fill="url(#b)" d="M21.15 26.762v-8.83c0-8.586 6.26-12.609 11.331-13.189-7.181 0-13 5.906-13 13.189v8.83h1.669z"/><linearGradient id="c" x1="-121.37" x2="-121.37" y1="32" y2="4.742" gradientTransform="matrix(-1 0 0 1 -83.456 0)" gradientUnits="userSpaceOnUse"><stop offset="0" style="stop-color:#0b0c0d;stop-opacity:.3"/><stop offset=".897" style="stop-color:#0b0c0d;stop-opacity:0"/></linearGradient><path fill="url(#c)" d="M31.413 4.742c7.181 0 13.001 5.906 13.001 13.189V32h-1.67V17.932c0-8.586-6.26-12.61-11.331-13.19z"/><linearGradient id="d" x1="22.566" x2="41.434" y1="20.242" y2="20.242" gradientUnits="userSpaceOnUse"><stop offset="0" style="stop-color:#0b0c0d;stop-opacity:.3"/><stop offset=".099" style="stop-color:#242526;stop-opacity:.3198"/><stop offset=".727" style="stop-color:#bcbfc1;stop-opacity:.4454"/><stop offset="1" style="stop-color:#fafdff;stop-opacity:.5"/></linearGradient><path fill="url(#d)" d="M22.566 17.523v6.192c0-.112.67-.521 1.293-.877v-6.091c0-10.557 16.281-10.557 16.281 0v16.091h1.293V17.523c.001-13.171-18.867-13.171-18.867 0z"/><path fill="#92999C" d="M22.566 25.234h1.293v1.527h-1.293z"/><linearGradient id="e" x1="14" x2="50" y1="45.56" y2="45.56" gradientUnits="userSpaceOnUse"><stop offset="0" style="stop-color:#ffd231"/><stop offset="1" style="stop-color:#db7600"/></linearGradient><path fill="url(#e)" d="M50 58.898c0 .606-.496 1.102-1.102 1.102H15.102A1.105 1.105 0 0 1 14 58.898V32.225c0-.605.496-1.104 1.102-1.104h33.797c.605 0 1.102.498 1.102 1.104v26.673z"/><path fill="#C46A12" d="M49.082 31.121c0 1.557-34.164 1.557-34.164 0h34.164z"/></svg>