<svg xmlns="http://www.w3.org/2000/svg" xml:space="preserve" style="enable-background:new 0 0 64 64" viewBox="0 0 64 64"><linearGradient id="a" x1="32" x2="32" y1="36" y2="4" gradientUnits="userSpaceOnUse"><stop offset="0" style="stop-color:#7a869c"/><stop offset="1" style="stop-color:#97a4be"/></linearGradient><path d="M62 20 46 4v10H18V4L2 20l16 16V26h28v10z" style="fill:url(#a)"/><linearGradient id="b" x1="48.761" x2="48.761" y1="54.795" y2="44" gradientUnits="userSpaceOnUse"><stop offset="0" style="stop-color:#7a869c"/><stop offset="1" style="stop-color:#97a4be"/></linearGradient><path d="M47.03 54.795h3.462L51.001 44h-4.48z" style="fill:url(#b)"/><linearGradient id="c" x1="48.761" x2="48.761" y1="60" y2="56.55" gradientUnits="userSpaceOnUse"><stop offset="0" style="stop-color:#7a869c"/><stop offset="1" style="stop-color:#97a4be"/></linearGradient><path d="M47.029 56.55h3.463V60h-3.463z" style="fill:url(#c)"/><linearGradient id="d" x1="20.824" x2="20.824" y1="60" y2="44" gradientUnits="userSpaceOnUse"><stop offset="0" style="stop-color:#7a869c"/><stop offset="1" style="stop-color:#97a4be"/></linearGradient><path d="M25 44.975c-1.163-.65-2.547-.975-4.154-.975-1.607 0-2.995.325-4.165.975a6.766 6.766 0 0 0-2.717 2.773c-.644 1.198-.965 2.608-.965 4.23 0 1.637.318 3.054.953 4.252a6.75 6.75 0 0 0 2.718 2.784c1.177.658 2.569.986 4.176.986 1.607 0 2.991-.328 4.154-.986a6.773 6.773 0 0 0 2.695-2.784c.635-1.198.954-2.615.954-4.253 0-1.62-.319-3.03-.954-4.23A6.716 6.716 0 0 0 25 44.975zm-1.425 10.664c-.68.817-1.59 1.227-2.73 1.227s-2.045-.406-2.718-1.217c-.672-.81-1.007-2.034-1.007-3.672 0-1.62.335-2.834 1.007-3.637.673-.804 1.579-1.206 2.719-1.206s2.05.406 2.729 1.216c.68.811 1.018 2.02 1.018 3.627 0 1.623-.339 2.843-1.018 3.662z" style="fill:url(#d)"/><linearGradient id="e" x1="37.585" x2="37.585" y1="60" y2="44" gradientUnits="userSpaceOnUse"><stop offset="0" style="stop-color:#7a869c"/><stop offset="1" style="stop-color:#97a4be"/></linearGradient><path d="M40.765 53.042 33.507 44h-3.08v16h3.934v-9.079L41.619 60h3.124V44h-3.978z" style="fill:url(#e)"/></svg>