<svg xmlns="http://www.w3.org/2000/svg" xml:space="preserve" style="enable-background:new 0 0 64 64" viewBox="0 0 64 64"><radialGradient id="a" cx="-62.001" cy="38" r="26.2" gradientTransform="matrix(1 0 0 -1 94 70)" gradientUnits="userSpaceOnUse"><stop offset="0" style="stop-color:#545061"/><stop offset=".279" style="stop-color:#464253"/><stop offset=".611" style="stop-color:#312d3d"/><stop offset=".796" style="stop-color:#211d2d"/><stop offset=".956" style="stop-color:#1a1626"/></radialGradient><path d="M7.37 23.68c-11.1 32.84 38.16 49.49 49.26 16.65C67.73 7.48 18.47-9.17 7.37 23.68z" style="fill:url(#a)"/><linearGradient id="b" x1="-62.001" x2="-62.001" y1="50.614" y2="58" gradientTransform="matrix(1 0 0 -1 94 70)" gradientUnits="userSpaceOnUse"><stop offset="0" style="stop-color:#854500"/><stop offset=".212" style="stop-color:#a5630c"/><stop offset=".572" style="stop-color:#d6901e"/><stop offset=".846" style="stop-color:#f4ac2a"/><stop offset="1" style="stop-color:#ffb62e"/></linearGradient><path d="M30.1 15.5c.09-1.07.89-1.91 1.89-1.91.99 0 1.8.84 1.89 1.91h1.48c-.1-1.95-1.57-3.5-3.36-3.5-1.8 0-3.26 1.55-3.35 3.5h1.45z" style="fill:url(#b)"/><radialGradient id="c" cx="22.907" cy="32.169" r="12.267" gradientTransform="matrix(.9333 0 0 4.9905 10.62 -131.464)" gradientUnits="userSpaceOnUse"><stop offset="0" style="stop-color:#ffcf3d"/><stop offset=".586" style="stop-color:#eca31a"/><stop offset="1" style="stop-color:#de8100"/></radialGradient><path d="M41.64 24.21c0-6.86-4.82-9.41-9.64-9.41s-9.64 2.55-9.64 9.41c0 13.92-7.16 12.15-7.16 19.15h33.6c0-7-7.16-5.23-7.16-19.15z" style="fill:url(#c)"/><linearGradient id="d" x1="-75.169" x2="-44.891" y1="-1212.812" y2="-1212.812" gradientTransform="matrix(1.0121 0 0 -.5462 92.756 -618.864)" gradientUnits="userSpaceOnUse"><stop offset="0" style="stop-color:#4d2800"/><stop offset=".036" style="stop-color:#6b3e00"/><stop offset=".108" style="stop-color:#a26500"/><stop offset=".171" style="stop-color:#ca8100"/><stop offset=".22" style="stop-color:#e29300"/><stop offset=".25" style="stop-color:#eb9900"/><stop offset=".5" style="stop-color:#4d2800"/><stop offset=".75" style="stop-color:#eb9900"/><stop offset=".78" style="stop-color:#e29300"/><stop offset=".829" style="stop-color:#ca8100"/><stop offset=".892" style="stop-color:#a26500"/><stop offset=".964" style="stop-color:#6b3e00"/><stop offset="1" style="stop-color:#4d2800"/></linearGradient><path d="M47.32 43.88c0 2.05-30.65 2.05-30.65 0 .01-2.86 30.65-2.86 30.65 0z" style="fill:url(#d)"/><radialGradient id="e" cx="30.915" cy="42.574" r="5.349" gradientUnits="userSpaceOnUse"><stop offset="0" style="stop-color:#ffdb40"/><stop offset=".506" style="stop-color:#eeaf21"/><stop offset="1" style="stop-color:#db8000"/></radialGradient><path d="M28.22 41.97a4.2 4.2 0 1 0 7.56 0h-7.56z" style="fill:url(#e)"/><linearGradient id="f" x1="31.999" x2="31.999" y1="44.62" y2="41.35" gradientUnits="userSpaceOnUse"><stop offset="0" style="stop-color:#472500"/><stop offset=".13" style="stop-color:#512c00"/><stop offset=".35" style="stop-color:#6c3f00"/><stop offset=".634" style="stop-color:#975e00"/><stop offset=".967" style="stop-color:#d38900"/><stop offset="1" style="stop-color:#d98d00"/></linearGradient><path d="M15.2 43.45c0 .48 1.19.87 3.12 1.17-1.04-.21-1.64-.46-1.64-.74 0-2.26 30.64-2.26 30.64 0 0 .29-.6.54-1.64.74 1.93-.3 3.12-.69 3.12-1.17 0-2.8-33.6-2.8-33.6 0z" style="fill:url(#f)"/><linearGradient id="g" x1="-77.002" x2="-46.997" y1="63.985" y2="12.015" gradientTransform="matrix(1 0 0 -1 94 70)" gradientUnits="userSpaceOnUse"><stop offset="0" style="stop-color:#ff3b3b"/><stop offset=".256" style="stop-color:#fb3737"/><stop offset=".521" style="stop-color:#f02b2a"/><stop offset=".789" style="stop-color:#dd1616"/><stop offset="1" style="stop-color:#c90100"/></linearGradient><path d="M32 2C15.43 2 2 15.43 2 32s13.43 30 30 30 30-13.43 30-30S48.57 2 32 2zm24 30c0 5.55-1.89 10.65-5.04 14.71L17.29 13.04C21.35 9.89 26.46 8 32 8c13.26 0 24 10.75 24 24zM8 32c0-5.54 1.89-10.65 5.04-14.71l33.67 33.67A23.916 23.916 0 0 1 32 56C18.75 56 8 45.26 8 32z" style="fill:url(#g)"/></svg>