<svg xmlns="http://www.w3.org/2000/svg" xml:space="preserve" viewBox="0 0 64 64"><linearGradient id="a" x1="25" x2="25" y1="32" y2="4" gradientUnits="userSpaceOnUse"><stop offset="0" style="stop-color:#bec8cc"/><stop offset=".261" style="stop-color:#bbc5c9"/><stop offset=".443" style="stop-color:#b2bcc0"/><stop offset=".601" style="stop-color:#a3adb1"/><stop offset=".745" style="stop-color:#8e979b"/><stop offset=".878" style="stop-color:#737c7f"/><stop offset="1" style="stop-color:#535b5e"/></linearGradient><path fill="url(#a)" d="M25 4c-7.181 0-13 5.904-13 13.188V32h5.443V17.188c0-10.252 15.113-10.252 15.113 0V32h5.443V17.188C37.999 9.904 32.177 4 25 4z"/><linearGradient id="b" x1="18.981" x2="18.981" y1="32" y2="4.742" gradientUnits="userSpaceOnUse"><stop offset="0" style="stop-color:#fafdff;stop-opacity:.7"/><stop offset=".897" style="stop-color:#fafdff;stop-opacity:0"/></linearGradient><path fill="url(#b)" d="M25.481 4.742c-7.181 0-13 5.906-13 13.189V32h1.669V17.932c0-8.586 6.26-12.61 11.331-13.19z"/><linearGradient id="c" x1="-114.369" x2="-114.369" y1="32" y2="4.742" gradientTransform="matrix(-1 0 0 1 -83.456 0)" gradientUnits="userSpaceOnUse"><stop offset="0" style="stop-color:#0b0c0d;stop-opacity:.3"/><stop offset=".897" style="stop-color:#0b0c0d;stop-opacity:0"/></linearGradient><path fill="url(#c)" d="M24.413 4.742c7.18 0 13 5.906 13 13.189V32h-1.67V17.932c0-8.586-6.259-12.61-11.33-13.19z"/><linearGradient id="d" x1="15.566" x2="34.433" y1="19.822" y2="19.822" gradientUnits="userSpaceOnUse"><stop offset="0" style="stop-color:#0b0c0d;stop-opacity:.3"/><stop offset=".099" style="stop-color:#242526;stop-opacity:.3198"/><stop offset=".727" style="stop-color:#bcbfc1;stop-opacity:.4454"/><stop offset="1" style="stop-color:#fafdff;stop-opacity:.5"/></linearGradient><path fill="url(#d)" d="M34.433 32V17.523c0-13.172-18.866-13.172-18.866 0V32h1.293V16.748c0-10.557 16.28-10.557 16.28 0V32h1.293z"/><linearGradient id="e" x1="7" x2="42.999" y1="45.56" y2="45.56" gradientUnits="userSpaceOnUse"><stop offset="0" style="stop-color:#ffd231"/><stop offset="1" style="stop-color:#db7600"/></linearGradient><path fill="url(#e)" d="M42.999 58.898c0 .605-.496 1.102-1.102 1.102H8.102A1.105 1.105 0 0 1 7 58.898V32.225c0-.605.496-1.104 1.102-1.104h33.796c.605 0 1.102.498 1.102 1.104v26.673z"/><path fill="#C46A12" d="M42.081 31.121c0 1.557-34.163 1.557-34.163 0h34.163z"/><linearGradient id="f" x1="273.065" x2="273.065" y1="329.663" y2="296.396" gradientTransform="rotate(-90 19.125 285.938)" gradientUnits="userSpaceOnUse"><stop offset="0" style="stop-color:#ffd94d"/><stop offset="1" style="stop-color:#f5af31"/></linearGradient><path fill="url(#f)" d="M32.372 16.251c.022 4.436 2.387 8.33 5.913 10.517v.001c.613.401 1.438.957 1.441 1.551.037 7.383.072 21.191.105 27.751l1.135 1.192s1.357.309 2.566 2.731c.127.126 1.516-1.9 3.129-3.547 0 0 .267-9.701.01-24.124-.003-.154 3.37-.021 3.371-.161 0-1.923-.377-1.878-.386-3.405-.005-.831.687-1.268 1.94-2.179a12.158 12.158 0 0 0 5.402-10.2C56.966 9.575 51.425 4.035 44.622 4a12.164 12.164 0 0 0-12.25 12.251zm15.063-5.21a2.741 2.741 0 0 1-2.762 2.762 2.812 2.812 0 0 1-2.789-2.791 2.741 2.741 0 0 1 2.763-2.76 2.812 2.812 0 0 1 2.788 2.789z"/><linearGradient id="g" x1="290.326" x2="290.326" y1="327.978" y2="297.801" gradientTransform="rotate(-90 19.125 285.938)" gradientUnits="userSpaceOnUse"><stop offset="0" style="stop-color:#ffc55e"/><stop offset="1" style="stop-color:#ffd94d"/></linearGradient><path fill="url(#g)" d="M33.517 16.257a11.247 11.247 0 0 0 3.398 7.998l15.625.08a11.021 11.021 0 0 0 3.316-7.963C55.826 10.2 50.799 5.173 44.63 5.145a11.031 11.031 0 0 0-11.113 11.112zm13.918-5.216a2.741 2.741 0 0 1-2.762 2.762 2.812 2.812 0 0 1-2.789-2.791 2.741 2.741 0 0 1 2.763-2.76 2.812 2.812 0 0 1 2.788 2.789z"/><linearGradient id="h" x1="290.478" x2="297.001" y1="315.038" y2="308.514" gradientTransform="rotate(-90 19.125 285.938)" gradientUnits="userSpaceOnUse"><stop offset="0" style="stop-color:#e09500"/><stop offset=".467" style="stop-color:#ffe173"/><stop offset=".548" style="stop-color:#fddd6d"/><stop offset=".661" style="stop-color:#f8d15b"/><stop offset=".792" style="stop-color:#f0bd3d"/><stop offset=".937" style="stop-color:#e5a214"/><stop offset="1" style="stop-color:#e09500"/></linearGradient><path fill="url(#h)" d="M41.262 11.009a3.44 3.44 0 0 0 3.415 3.416 3.353 3.353 0 0 0 3.38-3.381 3.442 3.442 0 0 0-3.415-3.415 3.359 3.359 0 0 0-3.38 3.38zm6.075.032a2.644 2.644 0 0 1-2.664 2.665 2.708 2.708 0 0 1-2.691-2.694 2.642 2.642 0 0 1 2.663-2.663 2.71 2.71 0 0 1 2.692 2.692z"/><linearGradient id="i" x1="263.438" x2="263.438" y1="315.71" y2="312.51" gradientTransform="rotate(-90 19.125 285.938)" gradientUnits="userSpaceOnUse"><stop offset="0" style="stop-color:#ffd94d"/><stop offset="1" style="stop-color:#d68e00"/></linearGradient><path fill="url(#i)" d="M46.524 28.51c-.011-2.279 2.302-2.267 2.315.013.005 1.308.026 5.454.03 5.919 0 .204-1.311 1.229-1.31 1.359l.007 1.562c0 .151 1.325 1.627 1.326 1.898 0 .316-.844 1.141-.845 1.293l.007 1.479c.001.09.574.559.574.864.003.322-1.223 1.625-1.223 1.796l.006 1.204c.001.142 1.279 1.59 1.28 1.76.002.283-1.017 2.03-1.017 2.172-.001.295.004.798.008 1.095-.002.152.788 1.328.79 1.542.001.273-.872 1.234-.932 1.656-.02.124.26 1.354.181 1.404-.574.366-1.063.922-1.063.922s-.128-27.163-.134-27.938z"/><linearGradient id="j" x1="261.701" x2="261.701" y1="310.349" y2="306.687" gradientTransform="rotate(-90 19.125 285.938)" gradientUnits="userSpaceOnUse"><stop offset="0" style="stop-color:#ffd94d"/><stop offset="1" style="stop-color:#d68e00"/></linearGradient><path fill="url(#j)" d="m43.37 28.495.162 31.499-2.566-2.731s-.141-27.706-.145-28.78c-.012-2.34 2.539-2.326 2.549.012z"/><linearGradient id="k" x1="280.642" x2="296.859" y1="319.612" y2="303.395" gradientTransform="rotate(-90 19.125 285.938)" gradientUnits="userSpaceOnUse"><stop offset="0" style="stop-color:#e09500"/><stop offset=".467" style="stop-color:#ffe173"/><stop offset=".548" style="stop-color:#fddd6d"/><stop offset=".661" style="stop-color:#f8d15b"/><stop offset=".792" style="stop-color:#f0bd3d"/><stop offset=".937" style="stop-color:#e5a214"/><stop offset="1" style="stop-color:#e09500"/></linearGradient><path fill="url(#k)" d="M56.1 16.372a11.212 11.212 0 0 1-3.389 8.137l-.071.069-15.824-.08-.069-.07a11.44 11.44 0 0 1-3.473-8.173A11.286 11.286 0 0 1 44.628 4.901c6.295.032 11.44 5.178 11.472 11.471zm-3.662 7.721a10.734 10.734 0 0 0 3.175-7.723c-.032-6.024-4.959-10.952-10.983-10.982a10.804 10.804 0 0 0-10.87 10.869 10.965 10.965 0 0 0 3.253 7.756l15.425.08z"/></svg>