<svg xmlns="http://www.w3.org/2000/svg" xml:space="preserve" style="enable-background:new 0 0 64 64" viewBox="0 0 64 64"><radialGradient id="a" cx="-62.001" cy="38" r="26.2" gradientTransform="matrix(1 0 0 -1 94 70)" gradientUnits="userSpaceOnUse"><stop offset="0" style="stop-color:#545061"/><stop offset=".279" style="stop-color:#464253"/><stop offset=".611" style="stop-color:#312d3d"/><stop offset=".796" style="stop-color:#211d2d"/><stop offset=".956" style="stop-color:#1a1626"/></radialGradient><path d="M7.37 23.68c-11.1 32.84 38.16 49.49 49.26 16.65C67.73 7.48 18.47-9.17 7.37 23.68z" style="fill:url(#a)"/><path d="M25.07 19.32h-2.8l-6.43 4.35v4.89l4.43-3.04v14.74h-4.74v4.45h14.32v-4.45h-4.78zM46.98 33.5c-.82-.93-1.94-1.5-3.25-1.85 1.12-.35 2.1-.89 2.85-1.77.91-1.07 1.37-2.4 1.37-3.99 0-1.43-.34-2.65-1.03-3.67s-1.63-1.81-2.82-2.37c-1.19-.57-2.54-.85-4.03-.85-1.5 0-2.84.28-4.03.84-1.19.56-2.13 1.35-2.82 2.37s-1.03 2.25-1.03 3.67c0 1.55.46 2.86 1.37 3.94.74.87 1.72 1.43 2.85 1.82-1.29.34-2.41.89-3.23 1.8-1.01 1.12-1.51 2.57-1.51 4.35 0 1.5.36 2.78 1.08 3.85.72 1.07 1.71 1.9 2.97 2.48 1.26.58 2.71.88 4.35.88 1.64 0 3.09-.29 4.36-.88 1.26-.58 2.25-1.41 2.97-2.48.72-1.07 1.08-2.35 1.08-3.85-.01-1.73-.51-3.16-1.5-4.29zm-9.33-9.45c.63-.53 1.43-.8 2.42-.8s1.79.27 2.42.8c.63.54.94 1.35.94 2.44 0 1.05-.32 1.87-.95 2.46-.64.59-1.44.99-2.4 1.18-.96-.19-1.76-.58-2.4-1.18-.64-.59-.95-1.41-.95-2.46-.02-1.09.29-1.91.92-2.44zm5.26 15.85c-.73.57-1.68.86-2.85.86-1.17 0-2.12-.29-2.85-.86-.73-.57-1.09-1.41-1.09-2.53 0-1.07.37-1.91 1.11-2.53.74-.62 1.68-1.03 2.83-1.25 1.15.21 2.09.63 2.83 1.25.74.62 1.11 1.46 1.11 2.53.01 1.12-.36 1.96-1.09 2.53z" style="fill:#fff"/><linearGradient id="b" x1="-77.002" x2="-46.998" y1="63.985" y2="12.015" gradientTransform="matrix(1 0 0 -1 94 70)" gradientUnits="userSpaceOnUse"><stop offset="0" style="stop-color:#ff3b3b"/><stop offset=".256" style="stop-color:#fb3737"/><stop offset=".521" style="stop-color:#f02b2a"/><stop offset=".789" style="stop-color:#dd1616"/><stop offset="1" style="stop-color:#c90100"/></linearGradient><path d="M32 2C15.43 2 2 15.43 2 32s13.43 30 30 30 30-13.43 30-30S48.57 2 32 2zm24 30c0 5.55-1.89 10.65-5.04 14.71L17.29 13.04C21.35 9.89 26.45 8 32 8c13.25 0 24 10.75 24 24zM8 32c0-5.55 1.89-10.65 5.04-14.71l33.67 33.67A23.937 23.937 0 0 1 32 56C18.74 56 8 45.26 8 32z" style="fill:url(#b)"/></svg>