<svg xmlns="http://www.w3.org/2000/svg" xml:space="preserve" style="enable-background:new 0 0 64 64" viewBox="0 0 64 64"><linearGradient id="a" x1="32" x2="32" y1="36" y2="4" gradientUnits="userSpaceOnUse"><stop offset="0" style="stop-color:#7a869c"/><stop offset="1" style="stop-color:#97a4be"/></linearGradient><path d="m32 4 16 16H38v16H26V20H16z" style="fill:url(#a)"/><linearGradient id="b" x1="16.252" x2="16.252" y1="59.803" y2="44.197" gradientUnits="userSpaceOnUse"><stop offset="0" style="stop-color:#7a869c"/><stop offset="1" style="stop-color:#97a4be"/></linearGradient><path d="M9.523 47.528h4.648v12.275h4.163V47.528h4.647v-3.33H9.522z" style="fill:url(#b)"/><linearGradient id="c" x1="31.202" x2="31.202" y1="60" y2="44" gradientUnits="userSpaceOnUse"><stop offset="0" style="stop-color:#7a869c"/><stop offset="1" style="stop-color:#97a4be"/></linearGradient><path d="M35.377 44.975c-1.163-.65-2.547-.975-4.154-.975-1.607 0-2.995.326-4.165.975a6.764 6.764 0 0 0-2.716 2.773c-.644 1.198-.965 2.608-.965 4.23 0 1.637.317 3.054.952 4.252a6.752 6.752 0 0 0 2.718 2.784c1.178.658 2.57.986 4.176.986 1.607 0 2.991-.328 4.154-.986a6.774 6.774 0 0 0 2.696-2.784c.635-1.198.954-2.615.954-4.252 0-1.622-.32-3.032-.954-4.23a6.714 6.714 0 0 0-2.696-2.773zm-1.425 10.664c-.68.818-1.589 1.227-2.729 1.227-1.14 0-2.046-.406-2.718-1.217-.673-.81-1.008-2.034-1.008-3.671 0-1.622.335-2.835 1.008-3.638.672-.804 1.578-1.206 2.718-1.206s2.05.406 2.73 1.216c.679.811 1.018 2.02 1.018 3.628 0 1.622-.34 2.842-1.019 3.66z" style="fill:url(#c)"/><linearGradient id="d" x1="47.956" x2="47.956" y1="59.803" y2="44.197" gradientUnits="userSpaceOnUse"><stop offset="0" style="stop-color:#7a869c"/><stop offset="1" style="stop-color:#97a4be"/></linearGradient><path d="M48.866 44.197h-7.43v15.606h4.121V53.71h3.309c1.782 0 3.164-.431 4.142-1.294.98-.862 1.47-2.016 1.47-3.463 0-1.446-.484-2.6-1.447-3.463-.965-.862-2.353-1.293-4.165-1.293zm1.217 6.017c-.373.284-.962.427-1.765.427h-2.76V47.31h2.76c.82 0 1.41.141 1.775.427.366.284.548.705.548 1.26 0 .526-.186.932-.558 1.217z" style="fill:url(#d)"/></svg>