<svg xmlns="http://www.w3.org/2000/svg" xml:space="preserve" style="enable-background:new 0 0 64 64" viewBox="0 0 64 64"><linearGradient id="a" x1="32" x2="32" y1="2" y2="62" gradientUnits="userSpaceOnUse"><stop offset="0" style="stop-color:#00abf1"/><stop offset=".229" style="stop-color:#00a7ef"/><stop offset=".467" style="stop-color:#009ae9"/><stop offset=".708" style="stop-color:#0086e0"/><stop offset=".95" style="stop-color:#0069d3"/><stop offset="1" style="stop-color:#0062d0"/></linearGradient><path d="M62 54c0 4.4-3.6 8-8 8H10c-4.4 0-8-3.6-8-8V10c0-4.4 3.6-8 8-8h44c4.4 0 8 3.6 8 8v44z" style="fill:url(#a)"/><path d="M24.26 16.31h-4l-9.18 5.36v6.02l6.33-3.74v18.16h-6.77v5.49h20.44v-5.49h-6.82zm28.09 3.78c-2.01-2.72-4.9-4.09-8.68-4.09-3.78 0-6.67 1.36-8.68 4.09-2.01 2.73-3.01 6.67-3.01 11.82 0 5.25 1 9.24 3.01 11.98S39.89 48 43.67 48c3.78 0 6.68-1.38 8.68-4.13 2.01-2.75 3.01-6.74 3.01-11.96 0-5.16-1-9.1-3.01-11.82zm-4.9 20.09c-.79 1.7-2.05 2.55-3.78 2.55s-2.99-.85-3.78-2.55c-.79-1.7-1.19-4.46-1.19-8.27 0-3.72.39-6.43 1.19-8.13.79-1.7 2.05-2.55 3.78-2.55s2.99.85 3.78 2.55c.79 1.7 1.19 4.41 1.19 8.13 0 3.81-.4 6.57-1.19 8.27z" style="fill:#fff"/></svg>