<svg xmlns="http://www.w3.org/2000/svg" xml:space="preserve" style="enable-background:new 0 0 64 64" viewBox="0 0 64 64"><linearGradient id="a" x1="-62" x2="-62" y1="68" y2="8" gradientTransform="matrix(1 0 0 -1 94 70)" gradientUnits="userSpaceOnUse"><stop offset="0" style="stop-color:#00abf1"/><stop offset=".229" style="stop-color:#00a7ef"/><stop offset=".467" style="stop-color:#009ae9"/><stop offset=".708" style="stop-color:#0086e0"/><stop offset=".95" style="stop-color:#0069d3"/><stop offset="1" style="stop-color:#0062d0"/></linearGradient><path d="M62 54c0 4.4-3.6 8-8 8H10c-4.4 0-8-3.6-8-8V10c0-4.4 3.6-8 8-8h44c4.4 0 8 3.6 8 8v44z" style="fill:url(#a)"/><path d="M14 14h16v4H14zm0 8v4h6v4h4v-4h6v-4zm35.52-3.01c-.32-.49-.74-.88-1.2-1.23-.13-.1-.2-.15-.33-.24l-.27-.21a6.77 6.77 0 0 1-.48-.44c-.6-.59-.97-1.21-1.15-1.75-.15-.46-.17-.84-.15-1.12h-3.23l-2.07 10.81c-.61-.17-1.28-.27-2-.27-2.57 0-4.65 1.22-4.65 2.73S36.07 30 38.64 30c2.43 0 4.41-1.09 4.63-2.48l1.92-10.02c.26.21.54.42.84.6.23.14.47.28.71.4.12.06.25.12.37.18.08.04.24.12.31.16.38.21.75.47 1.03.77.27.3.45.64.5 1.02.05.38-.02.78-.18 1.16-.32.77-.88 1.43-1.4 1.95-.52.52-1.02.92-1.38 1.19-.36.27-.57.41-.57.41s.24-.11.64-.33c.4-.22.96-.55 1.59-1.01.62-.47 1.33-1.06 1.86-1.9.26-.42.46-.93.48-1.48.04-.57-.15-1.15-.47-1.63zM26.44 46.05c.38-.6.72-1.24.99-1.96.45-1.19.7-2.47.76-3.86h-2.74c-.07 1.38-.36 2.61-.87 3.7-.04.08-.09.13-.12.21l-2.69-2.65c.35-.2.68-.41.96-.63.63-.48 1.1-1 1.4-1.55.31-.55.46-1.14.46-1.79 0-1.07-.37-1.92-1.12-2.57-.74-.63-1.74-.95-2.98-.95-.89 0-1.68.16-2.36.48-.68.32-1.21.77-1.59 1.34s-.57 1.24-.57 2.02c0 .39.06.79.19 1.17.13.39.32.78.59 1.17.21.31.47.62.77.93-.87.49-1.56 1.02-2.05 1.57-.72.82-1.08 1.79-1.08 2.9 0 .88.23 1.64.7 2.29.47.65 1.12 1.16 1.95 1.53.83.37 1.81.55 2.92.55 1.11 0 2.15-.24 3.12-.72a7.69 7.69 0 0 0 1.55-1.05c.41.35.82.67 1.27.93.62.36 1.33.66 2.12.89l1.6-2.28c-.72-.19-1.38-.45-1.98-.79-.42-.24-.82-.54-1.2-.88zm-7.07-9.41c.29-.28.68-.43 1.16-.43.42 0 .77.13 1.03.38.26.26.4.61.4 1.06 0 .32-.1.63-.3.92-.2.29-.52.59-.98.88-.17.11-.39.23-.6.35-.2-.21-.37-.4-.51-.56-.24-.29-.41-.54-.5-.77-.1-.23-.14-.46-.14-.69 0-.47.14-.85.44-1.14zm.68 10.79c-.73 0-1.32-.18-1.77-.55-.45-.37-.67-.87-.67-1.51 0-.44.09-.84.28-1.22.19-.37.49-.72.89-1.03.12-.1.28-.19.42-.28l3.56 3.54c-.04.04-.07.09-.12.12-.78.62-1.64.93-2.59.93zm24.94-13.34-9.18 15.82h3.24l9.18-15.82zm-5.96 8.35c.68-.81 1.02-2.02 1.02-3.62 0-1.59-.34-2.79-1.02-3.6-.68-.81-1.62-1.22-2.8-1.22-1.19 0-2.12.4-2.81 1.21-.69.81-1.03 2-1.03 3.59 0 1.62.34 2.83 1.03 3.64.69.82 1.63 1.22 2.81 1.22 1.19.01 2.12-.4 2.8-1.22zm-3.6-1.51c-.18-.41-.27-1.12-.27-2.11 0-.98.09-1.67.27-2.09.18-.41.44-.62.8-.62.34 0 .6.21.78.62.18.42.27 1.11.27 2.09 0 .99-.08 1.7-.26 2.11-.17.42-.43.62-.79.62-.35.01-.62-.2-.8-.62zm15.16.63c-.68-.81-1.62-1.22-2.8-1.22-1.18 0-2.12.4-2.81 1.21-.69.81-1.03 2-1.03 3.59 0 1.62.34 2.83 1.03 3.65.69.8 1.62 1.21 2.81 1.21s2.12-.41 2.8-1.22c.68-.81 1.02-2.02 1.02-3.62 0-1.59-.34-2.79-1.02-3.6zm-2.01 5.71c-.17.42-.43.62-.79.62-.35 0-.62-.21-.8-.62-.18-.41-.27-1.12-.27-2.11 0-.98.09-1.67.27-2.09.18-.42.44-.62.8-.62.34 0 .6.21.78.62.18.41.27 1.11.27 2.09-.01.99-.09 1.69-.26 2.11z" style="fill:#fff"/></svg>