<svg xmlns="http://www.w3.org/2000/svg" xml:space="preserve" style="enable-background:new 0 0 64 64" viewBox="0 0 64 64"><linearGradient id="a" x1="32" x2="32" y1="2" y2="62" gradientUnits="userSpaceOnUse"><stop offset="0" style="stop-color:#00abf1"/><stop offset=".229" style="stop-color:#00a7ef"/><stop offset=".467" style="stop-color:#009ae9"/><stop offset=".708" style="stop-color:#0086e0"/><stop offset=".95" style="stop-color:#0069d3"/><stop offset="1" style="stop-color:#0062d0"/></linearGradient><path d="M62 54c0 4.4-3.6 8-8 8H10c-4.4 0-8-3.6-8-8V10c0-4.4 3.6-8 8-8h44c4.4 0 8 3.6 8 8v44z" style="fill:url(#a)"/><path d="m19.24 11.5-8.27 18h3.97l1.73-3.99h8.39l1.71 3.99h3.92l-8.27-18h-3.18zm-1.27 11 2.91-6.75 2.89 6.75h-5.8zm30.09-2.31c.87-.3 1.58-.75 2.09-1.42.56-.73.83-1.6.83-2.59 0-1.45-.55-2.59-1.64-3.43-1.09-.83-2.57-1.25-4.42-1.25h-8.29v18h8.55c1.95 0 3.49-.44 4.61-1.33 1.12-.88 1.68-2.09 1.68-3.6 0-1.16-.32-2.13-.95-2.91-.59-.71-1.43-1.19-2.46-1.47zm-7.57-5.66h3.76c1.01 0 1.76.17 2.25.52s.73.89.73 1.63c0 .73-.24 1.26-.72 1.62-.48.35-1.23.53-2.26.53h-3.76v-4.3zm6.53 11.41c-.48.35-1.25.53-2.31.53h-4.22v-4.6h4.22c1.06 0 1.83.19 2.31.57.48.38.72.96.72 1.76s-.24 1.38-.72 1.74zm-25.7 11.64c.82 0 1.61.14 2.35.41.75.27 1.52.7 2.31 1.29l1.21-2.76c-.69-.64-1.56-1.14-2.61-1.49-1.05-.35-2.16-.53-3.33-.53-1.79 0-3.35.37-4.66 1.11a7.496 7.496 0 0 0-3.03 3.13c-.71 1.35-1.06 2.93-1.06 4.73 0 1.83.35 3.42 1.06 4.77.71 1.36 1.72 2.4 3.03 3.14 1.32.74 2.87 1.11 4.66 1.11 1.17 0 2.28-.18 3.33-.53 1.05-.35 1.92-.85 2.61-1.49l-1.21-2.76c-.79.59-1.56 1.02-2.31 1.3-.75.27-1.53.41-2.35.41-1.56 0-2.77-.51-3.63-1.52-.85-1.01-1.28-2.49-1.28-4.43 0-1.94.43-3.41 1.28-4.4.85-.99 2.06-1.49 3.63-1.49zm27.35-2.02c-1.41-.71-3.1-1.06-5.07-1.06h-6.98v18h6.98c1.99 0 3.69-.36 5.09-1.07 1.41-.72 2.48-1.74 3.22-3.09.74-1.34 1.11-2.96 1.11-4.87 0-1.89-.37-3.5-1.12-4.84-.75-1.34-1.83-2.36-3.23-3.07zm-1.03 12.3c-.96.97-2.4 1.45-4.32 1.45h-2.76V37.68h2.76c3.84 0 5.76 1.93 5.76 5.79 0 1.96-.48 3.42-1.44 4.39z" style="fill:#fff"/></svg>