<svg xmlns="http://www.w3.org/2000/svg" xml:space="preserve" viewBox="0 0 64 64"><linearGradient id="a" x1="-349.603" x2="-333.564" y1="199.625" y2="199.625" gradientTransform="scale(-1 1) rotate(45 4.883 485.107)" gradientUnits="userSpaceOnUse"><stop offset="0" style="stop-color:#6e787a"/><stop offset=".008" style="stop-color:#727c7e"/><stop offset=".097" style="stop-color:#9da5a7"/><stop offset=".176" style="stop-color:#bcc3c5"/><stop offset=".244" style="stop-color:#cfd5d7"/><stop offset=".291" style="stop-color:#d6dbde"/><stop offset=".751" style="stop-color:#6e787a"/></linearGradient><path fill="url(#a)" d="m22.629 12.24 39.674 39.675c2.598 2.598-7.79 12.984-10.386 10.388-7.008-7.006-39.676-39.675-39.676-39.675L22.629 12.24z"/><linearGradient id="b" x1="-341.49" x2="-341.697" y1="181.392" y2="178.434" gradientTransform="scale(-1 1) rotate(45 4.883 485.107)" gradientUnits="userSpaceOnUse"><stop offset="0" style="stop-color:#3b4042"/><stop offset=".009" style="stop-color:#3c4143"/><stop offset=".328" style="stop-color:#696f72"/><stop offset=".611" style="stop-color:#8a9094"/><stop offset=".845" style="stop-color:#9ea5a9"/><stop offset="1" style="stop-color:#a5acb0"/></linearGradient><path fill="url(#b)" d="m19.586 29.973 11.329-9.446c.353-.352-1.533-2.237-1.886-1.885l-11.33 9.444c-.35.351 1.535 2.237 1.887 1.887z"/><linearGradient id="c" x1="-341.488" x2="-341.695" y1="185.216" y2="182.257" gradientTransform="scale(-1 1) rotate(45 4.883 485.107)" gradientUnits="userSpaceOnUse"><stop offset="0" style="stop-color:#3b4042"/><stop offset=".009" style="stop-color:#3c4143"/><stop offset=".328" style="stop-color:#696f72"/><stop offset=".611" style="stop-color:#8a9094"/><stop offset=".845" style="stop-color:#9ea5a9"/><stop offset="1" style="stop-color:#a5acb0"/></linearGradient><path fill="url(#c)" d="m22.29 32.676 11.329-9.444c.354-.351-1.535-2.239-1.885-1.888L20.403 30.79c-.353.351 1.535 2.237 1.887 1.886z"/><linearGradient id="d" x1="-341.488" x2="-341.695" y1="189.038" y2="186.079" gradientTransform="scale(-1 1) rotate(45 4.883 485.107)" gradientUnits="userSpaceOnUse"><stop offset="0" style="stop-color:#3b4042"/><stop offset=".009" style="stop-color:#3c4143"/><stop offset=".328" style="stop-color:#696f72"/><stop offset=".611" style="stop-color:#8a9094"/><stop offset=".845" style="stop-color:#9ea5a9"/><stop offset="1" style="stop-color:#a5acb0"/></linearGradient><path fill="url(#d)" d="m24.989 35.38 11.331-9.445c.352-.353-1.532-2.239-1.886-1.886l-11.331 9.444c-.349.352 1.535 2.236 1.886 1.887z"/><linearGradient id="e" x1="-341.489" x2="-341.696" y1="192.861" y2="189.902" gradientTransform="scale(-1 1) rotate(45 4.883 485.107)" gradientUnits="userSpaceOnUse"><stop offset="0" style="stop-color:#3b4042"/><stop offset=".009" style="stop-color:#3c4143"/><stop offset=".328" style="stop-color:#696f72"/><stop offset=".611" style="stop-color:#8a9094"/><stop offset=".845" style="stop-color:#9ea5a9"/><stop offset="1" style="stop-color:#a5acb0"/></linearGradient><path fill="url(#e)" d="m27.694 38.082 11.331-9.444c.354-.351-1.535-2.241-1.89-1.888l-11.328 9.446c-.352.351 1.537 2.238 1.887 1.886z"/><linearGradient id="f" x1="-341.485" x2="-341.692" y1="210.631" y2="207.671" gradientTransform="scale(-1 1) rotate(45 4.883 485.107)" gradientUnits="userSpaceOnUse"><stop offset="0" style="stop-color:#3b4042"/><stop offset=".009" style="stop-color:#3c4143"/><stop offset=".328" style="stop-color:#696f72"/><stop offset=".611" style="stop-color:#8a9094"/><stop offset=".845" style="stop-color:#9ea5a9"/><stop offset="1" style="stop-color:#a5acb0"/></linearGradient><path fill="url(#f)" d="m40.253 50.647 11.334-9.443c.35-.352-1.535-2.238-1.887-1.887l-11.33 9.445c-.351.351 1.533 2.237 1.883 1.885z"/><linearGradient id="g" x1="-341.484" x2="-341.691" y1="214.452" y2="211.493" gradientTransform="scale(-1 1) rotate(45 4.883 485.107)" gradientUnits="userSpaceOnUse"><stop offset="0" style="stop-color:#3b4042"/><stop offset=".009" style="stop-color:#3c4143"/><stop offset=".328" style="stop-color:#696f72"/><stop offset=".611" style="stop-color:#8a9094"/><stop offset=".845" style="stop-color:#9ea5a9"/><stop offset="1" style="stop-color:#a5acb0"/></linearGradient><path fill="url(#g)" d="m42.958 53.352 11.332-9.445c.348-.352-1.537-2.238-1.89-1.887l-11.329 9.446c-.351.35 1.535 2.236 1.887 1.886z"/><linearGradient id="h" x1="-341.484" x2="-341.691" y1="218.273" y2="215.316" gradientTransform="scale(-1 1) rotate(45 4.883 485.107)" gradientUnits="userSpaceOnUse"><stop offset="0" style="stop-color:#3b4042"/><stop offset=".009" style="stop-color:#3c4143"/><stop offset=".328" style="stop-color:#696f72"/><stop offset=".611" style="stop-color:#8a9094"/><stop offset=".845" style="stop-color:#9ea5a9"/><stop offset="1" style="stop-color:#a5acb0"/></linearGradient><path fill="url(#h)" d="m45.66 56.055 11.328-9.444c.354-.351-1.531-2.236-1.882-1.885l-11.332 9.443c-.349.351 1.534 2.236 1.886 1.886z"/><linearGradient id="i" x1="-341.484" x2="-341.691" y1="222.098" y2="219.139" gradientTransform="scale(-1 1) rotate(45 4.883 485.107)" gradientUnits="userSpaceOnUse"><stop offset="0" style="stop-color:#3b4042"/><stop offset=".009" style="stop-color:#3c4143"/><stop offset=".328" style="stop-color:#696f72"/><stop offset=".611" style="stop-color:#8a9094"/><stop offset=".845" style="stop-color:#9ea5a9"/><stop offset="1" style="stop-color:#a5acb0"/></linearGradient><path fill="url(#i)" d="m48.362 58.758 11.332-9.444c.354-.352-1.535-2.238-1.885-1.885l-11.332 9.444c-.349.351 1.536 2.236 1.885 1.885z"/><linearGradient id="j" x1="-341.484" x2="-341.691" y1="225.919" y2="222.961" gradientTransform="scale(-1 1) rotate(45 4.883 485.107)" gradientUnits="userSpaceOnUse"><stop offset="0" style="stop-color:#3b4042"/><stop offset=".009" style="stop-color:#3c4143"/><stop offset=".328" style="stop-color:#696f72"/><stop offset=".611" style="stop-color:#8a9094"/><stop offset=".845" style="stop-color:#9ea5a9"/><stop offset="1" style="stop-color:#a5acb0"/></linearGradient><path fill="url(#j)" d="m51.067 61.462 11.327-9.445c.353-.353-1.532-2.238-1.885-1.886L49.18 59.575c-.351.35 1.536 2.237 1.887 1.887z"/><linearGradient id="k" x1="236.728" x2="246.228" y1="-97.577" y2="-97.577" gradientTransform="rotate(-45.001 276.527 245.697)" gradientUnits="userSpaceOnUse"><stop offset="0" style="stop-color:#808487"/><stop offset="1" style="stop-color:#5b6163"/></linearGradient><path fill="url(#k)" d="M1.583 25.624c-.389.389-.4 1.014-.024 1.39l8.192 8.192c.375.376 1.001.365 1.39-.024l6.18-5.838-9.898-9.899-5.84 6.179z"/><path fill="#CFD8DD" d="m25.625 1.583-6.181 5.839 9.899 9.899 5.84-6.18c.39-.389.399-1.016.024-1.392l-8.193-8.191c-.374-.375-1-.364-1.389.025z"/><linearGradient id="l" x1="246.227" x2="263.228" y1="-97.578" y2="-97.578" gradientTransform="rotate(-45.001 276.527 245.697)" gradientUnits="userSpaceOnUse"><stop offset="0" style="stop-color:#91989e"/><stop offset="1" style="stop-color:#b8bfc4"/></linearGradient><path fill="url(#l)" d="M29.343 17.321 17.322 29.342l-9.899-9.899L19.444 7.421z"/><linearGradient id="m" x1="176.288" x2="211.635" y1="271.411" y2="271.411" gradientTransform="rotate(-45.001 -199.253 356.868)" gradientUnits="userSpaceOnUse"><stop offset="0" style="stop-color:#1c1d1f"/><stop offset=".181" style="stop-color:#3e4143"/><stop offset=".445" style="stop-color:#6a6f72"/><stop offset=".679" style="stop-color:#8a9094"/><stop offset=".872" style="stop-color:#9ea5a9"/><stop offset="1" style="stop-color:#a5acb0"/></linearGradient><path fill="url(#m)" d="m34.679 11.382-3.958 4.153c-.76.795-1.995.832-2.746.082L21.147 8.79c-.75-.751-.713-1.986.083-2.745l4.153-3.959c.291-.278.593-.549.873-.788a1.006 1.006 0 0 0-.631.284l-6.181 5.839L7.423 19.443l-5.84 6.181a1.005 1.005 0 0 0-.285.631c.239-.28.511-.583.789-.873l3.96-4.152c.759-.796 1.995-.833 2.745-.083l6.827 6.827c.75.75.713 1.986-.083 2.745l-4.153 3.958c-.275.263-.607.545-.934.802.249-.007.5-.105.692-.298l6.18-5.838 12.021-12.021 5.84-6.18a.996.996 0 0 0 .284-.632c-.237.28-.509.581-.787.872zm-7.049 4.58c.75.75.729 2.001-.049 2.779l-8.839 8.839c-.778.777-2.03.799-2.78.049l-6.827-6.827c-.75-.75-.729-2.002.049-2.779l8.838-8.84c.778-.777 2.029-.799 2.78-.048l6.828 6.827z"/><linearGradient id="n" x1="236.727" x2="246.228" y1="-68.688" y2="-68.688" gradientTransform="rotate(-45.001 276.527 245.697)" gradientUnits="userSpaceOnUse"><stop offset="0" style="stop-color:#808487"/><stop offset="1" style="stop-color:#5b6163"/></linearGradient><path fill="url(#n)" d="M22.01 46.052c-.389.389-.399 1.015-.024 1.39l8.192 8.192c.375.375 1.002.364 1.391-.024l6.181-5.84-9.899-9.898-5.841 6.18z"/><path fill="#CFD8DD" d="m46.054 22.011-6.182 5.839 9.898 9.899 5.841-6.18c.39-.389.398-1.016.024-1.391l-8.192-8.191c-.376-.376-1.001-.364-1.389.024z"/><linearGradient id="o" x1="246.227" x2="263.228" y1="-68.688" y2="-68.688" gradientTransform="rotate(-45.001 276.527 245.697)" gradientUnits="userSpaceOnUse"><stop offset="0" style="stop-color:#91989e"/><stop offset="1" style="stop-color:#b8bfc4"/></linearGradient><path fill="url(#o)" d="M49.771 37.749 37.75 49.77l-9.899-9.899L39.872 27.85z"/><linearGradient id="p" x1="176.288" x2="211.635" y1="300.301" y2="300.301" gradientTransform="rotate(-45.001 -199.253 356.868)" gradientUnits="userSpaceOnUse"><stop offset="0" style="stop-color:#1c1d1f"/><stop offset=".181" style="stop-color:#3e4143"/><stop offset=".445" style="stop-color:#6a6f72"/><stop offset=".679" style="stop-color:#8a9094"/><stop offset=".872" style="stop-color:#9ea5a9"/><stop offset="1" style="stop-color:#a5acb0"/></linearGradient><path fill="url(#p)" d="m55.106 31.81-3.958 4.154c-.761.795-1.996.832-2.746.082l-6.827-6.827c-.75-.75-.713-1.986.083-2.745l4.153-3.959c.291-.278.592-.55.873-.789a1.005 1.005 0 0 0-.631.285l-6.182 5.839-12.02 12.021-5.841 6.181a1.004 1.004 0 0 0-.284.631c.239-.28.511-.583.789-.873l3.96-4.152c.759-.796 1.995-.833 2.745-.083l6.829 6.827c.75.75.712 1.985-.084 2.745l-4.153 3.959a13.14 13.14 0 0 1-.934.801c.248-.006.5-.104.691-.297l6.181-5.84 12.021-12.021 5.841-6.18a.993.993 0 0 0 .284-.631c-.241.279-.512.582-.79.872zm-7.047 4.581c.75.749.729 2.001-.049 2.779l-8.839 8.839c-.778.778-2.029.799-2.779.049l-6.829-6.827c-.75-.75-.729-2.002.049-2.779l8.839-8.839c.777-.777 2.029-.799 2.78-.049l6.828 6.827z"/></svg>