<svg xmlns="http://www.w3.org/2000/svg" xml:space="preserve" style="enable-background:new 0 0 64 64" viewBox="0 0 64 64"><path d="M26.417 35.645h1.65v.392h-1.65z" style="fill:#7aadc2" transform="translate(-.128 .098)"/><path d="m28.156 35.837-1.832.01v-.785l1.83-.007z" style="fill:#4b4f52"/><path d="m28.522 35.469-2.564.006-.007-2.254 2.563-.012z" style="fill:#63676b"/><linearGradient id="a" x1="25.88" x2="28.587" y1="33.437" y2="33.437" gradientUnits="userSpaceOnUse"><stop offset=".089" style="stop-color:#7f868a"/><stop offset=".191" style="stop-color:#a4acb1"/><stop offset=".372" style="stop-color:#eff9ff"/><stop offset=".409" style="stop-color:#e1ebf0"/><stop offset=".532" style="stop-color:#b7bfc4"/><stop offset=".643" style="stop-color:#98a0a4"/><stop offset=".735" style="stop-color:#868d91"/><stop offset=".799" style="stop-color:#7f868a"/></linearGradient><path d="m28.587 34.5-2.7.011-.007-2.139 2.7-.008z" style="fill:url(#a)"/><path d="m28.79 32.538-3.12.01-.003-2.123 3.113-.01z" style="fill:#63676b"/><linearGradient id="b" x1="25.586" x2="28.866" y1="31.48" y2="31.48" gradientUnits="userSpaceOnUse"><stop offset=".089" style="stop-color:#7f868a"/><stop offset=".191" style="stop-color:#a4acb1"/><stop offset=".372" style="stop-color:#eff9ff"/><stop offset=".409" style="stop-color:#e1ebf0"/><stop offset=".532" style="stop-color:#b7bfc4"/><stop offset=".643" style="stop-color:#98a0a4"/><stop offset=".735" style="stop-color:#868d91"/><stop offset=".799" style="stop-color:#7f868a"/></linearGradient><path d="m28.866 32.215-3.274.01-.006-1.477 3.274-.013z" style="fill:url(#b)"/><path d="M17.448 32.448h.393v1.649h-.393z" style="fill:#7aadc2" transform="rotate(-60.132 17.643 33.271)"/><path d="m18.436 33.728-1.587-.908.391-.68 1.589.908z" style="fill:#4b4f52"/><path d="M17.262 30.691h2.258v2.565h-2.258z" style="fill:#63676b" transform="rotate(-60.178 18.39 31.972)"/><linearGradient id="c" x1="17.509" x2="20.518" y1="30.483" y2="32.077" gradientUnits="userSpaceOnUse"><stop offset=".089" style="stop-color:#7f868a"/><stop offset=".191" style="stop-color:#a4acb1"/><stop offset=".372" style="stop-color:#eff9ff"/><stop offset=".409" style="stop-color:#e1ebf0"/><stop offset=".532" style="stop-color:#b7bfc4"/><stop offset=".643" style="stop-color:#98a0a4"/><stop offset=".735" style="stop-color:#868d91"/><stop offset=".799" style="stop-color:#7f868a"/></linearGradient><path d="m19.479 32.785-2.343-1.34L18.2 29.59l2.342 1.343z" style="fill:url(#c)"/><path d="m20.635 31.185-2.706-1.548 1.059-1.844 2.706 1.548z" style="fill:#63676b"/><linearGradient id="d" x1="18.522" x2="21.56" y1="28.689" y2="30.574" gradientUnits="userSpaceOnUse"><stop offset=".089" style="stop-color:#7f868a"/><stop offset=".191" style="stop-color:#a4acb1"/><stop offset=".372" style="stop-color:#eff9ff"/><stop offset=".409" style="stop-color:#e1ebf0"/><stop offset=".532" style="stop-color:#b7bfc4"/><stop offset=".643" style="stop-color:#98a0a4"/><stop offset=".735" style="stop-color:#868d91"/><stop offset=".799" style="stop-color:#7f868a"/></linearGradient><path d="m20.866 30.944-2.841-1.625.738-1.282L21.6 29.66z" style="fill:url(#d)"/><path d="M21.793 35.14h.462v1.95h-.462z" style="fill:#7aadc2" transform="rotate(-74.995 22.023 36.115)"/><path d="M21.679 34.587h.926v2.163h-.926z" style="fill:#4b4f52" transform="rotate(-75.066 22.141 35.668)"/><path d="M21.147 32.889h2.669v3.031h-2.669z" style="fill:#63676b" transform="rotate(-75.001 22.482 34.405)"/><linearGradient id="e" x1="21.03" x2="24.625" y1="32.885" y2="33.894" gradientUnits="userSpaceOnUse"><stop offset=".089" style="stop-color:#7f868a"/><stop offset=".191" style="stop-color:#a4acb1"/><stop offset=".372" style="stop-color:#eff9ff"/><stop offset=".409" style="stop-color:#e1ebf0"/><stop offset=".532" style="stop-color:#b7bfc4"/><stop offset=".643" style="stop-color:#98a0a4"/><stop offset=".735" style="stop-color:#868d91"/><stop offset=".799" style="stop-color:#7f868a"/></linearGradient><path d="m23.972 35.002-3.078-.824.651-2.44 3.082.826z" style="fill:url(#e)"/><path d="M22.104 29.292h2.511v3.687h-2.511z" style="fill:#63676b" transform="rotate(-74.983 23.36 31.137)"/><linearGradient id="f" x1="21.401" x2="25.451" y1="30.622" y2="31.687" gradientUnits="userSpaceOnUse"><stop offset=".089" style="stop-color:#7f868a"/><stop offset=".191" style="stop-color:#a4acb1"/><stop offset=".372" style="stop-color:#eff9ff"/><stop offset=".409" style="stop-color:#e1ebf0"/><stop offset=".532" style="stop-color:#b7bfc4"/><stop offset=".643" style="stop-color:#98a0a4"/><stop offset=".735" style="stop-color:#868d91"/><stop offset=".799" style="stop-color:#7f868a"/></linearGradient><path d="m25.001 32.48-3.736-1 .449-1.688 3.74 1.002z" style="fill:url(#f)"/><path d="M24.947 60.498h-4.008v-3.506l4.006-.5zm-7.731-13.656c10.917 1.907 15.744 5.05 15.746 9.149l4.827-7.722-20.573-1.427z" style="fill:#4b4f52"/><linearGradient id="g" x1="-31.773" x2="-8.214" y1="-14.567" y2="-14.567" gradientTransform="rotate(10.003 -350.21 269.377)" gradientUnits="userSpaceOnUse"><stop offset="0" style="stop-color:#6c7275"/><stop offset=".166" style="stop-color:#72787c"/><stop offset=".399" style="stop-color:#848a8e"/><stop offset=".67" style="stop-color:#a0a8ac"/><stop offset=".908" style="stop-color:#bfc7cc"/></linearGradient><path d="m36.054 48.131-23.211-4.018-.239 1.342a.571.571 0 0 0 .466.663l22.644 3.917.34-1.904z" style="fill:url(#g)"/><radialGradient id="h" cx="32.591" cy="36.634" r="15.507" gradientTransform="matrix(1.002 0 0 1.2005 1.513 -9.505)" gradientUnits="userSpaceOnUse"><stop offset=".524" style="stop-color:#4b4f52"/><stop offset=".598" style="stop-color:#515559"/><stop offset=".701" style="stop-color:#62676b"/><stop offset=".821" style="stop-color:#7f8489"/><stop offset=".908" style="stop-color:#979da3"/></radialGradient><path d="M35.217 13.927 31.96 26.946c2.44.506 11.021 2.006 11.021 10.014 0 7.153-5.873 11.116-5.873 11.116l-3.145 5.91c4.008 0 16.032-6.01 16.032-22.032 0-15.089-14.78-18.027-14.78-18.027z" style="fill:url(#h)"/><linearGradient id="i" x1="-46.765" x2="-36.638" y1="-73.683" y2="-73.682" gradientTransform="rotate(14.999 -351.512 236.42)" gradientUnits="userSpaceOnUse"><stop offset=".089" style="stop-color:#7f868a"/><stop offset=".191" style="stop-color:#a4acb1"/><stop offset=".372" style="stop-color:#eff9ff"/><stop offset=".409" style="stop-color:#e1ebf0"/><stop offset=".532" style="stop-color:#b7bfc4"/><stop offset=".643" style="stop-color:#98a0a4"/><stop offset=".735" style="stop-color:#868d91"/><stop offset=".799" style="stop-color:#7f868a"/></linearGradient><path d="m30.516 27.591-3.72 2.148-6.846-1.835 4.715-17.591 2.481-1.433 1.311-4.888 5.867 1.572-1.31 4.889 1.432 2.48z" style="fill:url(#i)"/><linearGradient id="j" x1="37.239" x2="37.239" y1="62.574" y2="50.556" gradientTransform="translate(1.734 -2.577)" gradientUnits="userSpaceOnUse"><stop offset="0" style="stop-color:#6c7275"/><stop offset=".182" style="stop-color:#72787c"/><stop offset=".439" style="stop-color:#848a8e"/><stop offset=".739" style="stop-color:#a0a8ac"/><stop offset="1" style="stop-color:#bfc7cc"/></linearGradient><path d="m32.96 51.893.002 8.104h12.024s-3.507-6.974-5.01-9.957c-1.743-3.464-7.014-2.37-7.016 1.853z" style="fill:url(#j)"/><linearGradient id="k" x1="17.885" x2="30.449" y1="27.293" y2="30.727" gradientUnits="userSpaceOnUse"><stop offset="0" style="stop-color:#7f868a"/><stop offset=".079" style="stop-color:#a4acb1"/><stop offset=".22" style="stop-color:#eff9ff"/><stop offset=".265" style="stop-color:#e1ebf0"/><stop offset=".417" style="stop-color:#b7bfc4"/><stop offset=".553" style="stop-color:#98a0a4"/><stop offset=".667" style="stop-color:#868d91"/><stop offset=".745" style="stop-color:#7f868a"/></linearGradient><path d="m29.9 31.656-12.468-3.338.139-.52.518.14.28-1.04-.518-.139.138-.517 12.468 3.338-.14.518-.517-.139-.282 1.04.523.139z" style="fill:url(#k)"/><linearGradient id="l" x1="27.082" x2="33.929" y1="2.576" y2="4.411" gradientUnits="userSpaceOnUse"><stop offset=".089" style="stop-color:#6c7275"/><stop offset=".197" style="stop-color:#91989c"/><stop offset=".372" style="stop-color:#d5dee3"/><stop offset=".392" style="stop-color:#ced6db"/><stop offset=".521" style="stop-color:#a4abaf"/><stop offset=".636" style="stop-color:#858c8f"/><stop offset=".733" style="stop-color:#73797c"/><stop offset=".799" style="stop-color:#6c7275"/></linearGradient><path d="M34.41 5.586 28.37 3.97a.418.418 0 0 1-.295-.513l.31-1.147a.418.418 0 0 1 .51-.295l6.038 1.618c.223.06.355.289.295.512l-.306 1.147a.418.418 0 0 1-.512.295z" style="fill:url(#l)"/><linearGradient id="m" x1="24.865" x2="34.354" y1="9.318" y2="11.86" gradientUnits="userSpaceOnUse"><stop offset=".089" style="stop-color:#6c7275"/><stop offset=".197" style="stop-color:#91989c"/><stop offset=".372" style="stop-color:#d5dee3"/><stop offset=".392" style="stop-color:#ced6db"/><stop offset=".521" style="stop-color:#a4abaf"/><stop offset=".636" style="stop-color:#858c8f"/><stop offset=".733" style="stop-color:#73797c"/><stop offset=".799" style="stop-color:#6c7275"/></linearGradient><path d="M33.013 10.453 27.146 8.88l-2.481 1.433 9.78 2.62z" style="fill:url(#m)"/><linearGradient id="n" x1="-33.508" x2="-33.508" y1="-64.164" y2="-79.345" gradientTransform="rotate(14.999 -351.512 236.42)" gradientUnits="userSpaceOnUse"><stop offset="0" style="stop-color:#7f868a"/><stop offset=".373" style="stop-color:#81888c"/><stop offset=".508" style="stop-color:#878f93"/><stop offset=".604" style="stop-color:#939a9e"/><stop offset=".681" style="stop-color:#a3abaf"/><stop offset=".748" style="stop-color:#b8c0c5"/><stop offset=".805" style="stop-color:#d1dbe0"/><stop offset=".857" style="stop-color:#eff9ff"/><stop offset=".949" style="stop-color:#a4acb1"/><stop offset="1" style="stop-color:#7f868a"/></linearGradient><path d="m30.516 27.591 4.899 1.314a1.005 1.005 0 0 0 1.227-.708l3.41-12.728a1.002 1.002 0 0 0-.708-1.227l-4.9-1.31-3.928 14.66z" style="fill:url(#n)"/><path d="M37.37 21.57a2.024 2.024 0 0 1-2.48 1.431 2.022 2.022 0 0 1-1.433-2.478 2.025 2.025 0 0 1 3.912 1.047z" style="fill:#4b4f52"/><linearGradient id="o" x1="35.413" x2="35.413" y1="22.725" y2="19.368" gradientUnits="userSpaceOnUse"><stop offset="0" style="stop-color:#7f868a"/><stop offset=".149" style="stop-color:#868d91"/><stop offset=".366" style="stop-color:#98a0a4"/><stop offset=".625" style="stop-color:#b7bfc4"/><stop offset=".913" style="stop-color:#e1ebf0"/><stop offset="1" style="stop-color:#eff9ff"/></linearGradient><path d="M37.035 21.481a1.681 1.681 0 0 1-3.246-.868 1.68 1.68 0 0 1 3.246.868z" style="fill:url(#o)"/><path d="M38.665 52.507a2.024 2.024 0 0 1-2.48 1.431 2.022 2.022 0 0 1-1.432-2.478 2.025 2.025 0 0 1 3.912 1.047z" style="fill:#4b4f52"/><linearGradient id="p" x1="36.709" x2="36.709" y1="53.662" y2="50.305" gradientUnits="userSpaceOnUse"><stop offset="0" style="stop-color:#7f868a"/><stop offset=".149" style="stop-color:#868d91"/><stop offset=".366" style="stop-color:#98a0a4"/><stop offset=".625" style="stop-color:#b7bfc4"/><stop offset=".913" style="stop-color:#e1ebf0"/><stop offset="1" style="stop-color:#eff9ff"/></linearGradient><path d="M38.331 52.418a1.681 1.681 0 0 1-3.246-.868 1.68 1.68 0 0 1 3.246.868z" style="fill:url(#p)"/><linearGradient id="q" x1="32.229" x2="32.229" y1="64.543" y2="60.604" gradientTransform="translate(1.734 -2.577)" gradientUnits="userSpaceOnUse"><stop offset="0" style="stop-color:#6c7275"/><stop offset=".166" style="stop-color:#72787c"/><stop offset=".399" style="stop-color:#848a8e"/><stop offset=".67" style="stop-color:#a0a8ac"/><stop offset=".908" style="stop-color:#bfc7cc"/></linearGradient><path d="M52.018 59.962c-7.981-2.633-21.958-2.078-26.565-1.428-10.556 1.46-10.526.937-10.526 3.466H53c.002-.992-.1-1.749-.982-2.038z" style="fill:url(#q)"/><linearGradient id="r" x1="16.631" x2="27.52" y1="57.278" y2="57.278" gradientTransform="translate(.867 -1.288)" gradientUnits="userSpaceOnUse"><stop offset="0" style="stop-color:#57e5ff"/><stop offset="1" style="stop-color:#078ede"/></linearGradient><path d="m18.223 57.92 9.816-1.73a.422.422 0 0 0 .342-.489l-.228-1.3a.422.422 0 0 0-.489-.342l-9.817 1.731a.421.421 0 0 0-.342.489l.23 1.3c.04.229.258.382.488.342z" style="fill:url(#r)"/><linearGradient id="s" x1="18.337" x2="29.629" y1="27.408" y2="30.511" gradientUnits="userSpaceOnUse"><stop offset="0" style="stop-color:#6c7275"/><stop offset=".102" style="stop-color:#91989c"/><stop offset=".268" style="stop-color:#d5dee3"/><stop offset=".293" style="stop-color:#ced6db"/><stop offset=".453" style="stop-color:#a4abaf"/><stop offset=".596" style="stop-color:#858c8f"/><stop offset=".716" style="stop-color:#73797c"/><stop offset=".799" style="stop-color:#6c7275"/></linearGradient><path d="m18.09 27.939 11.428 3.06.282-1.04-11.43-3.061z" style="fill:url(#s)"/><linearGradient id="t" x1="20.537" x2="20.878" y1="45.474" y2="43.537" gradientUnits="userSpaceOnUse"><stop offset="0" style="stop-color:#4b4f52"/><stop offset=".469" style="stop-color:#4d5154"/><stop offset=".638" style="stop-color:#53575b"/><stop offset=".759" style="stop-color:#5e6366"/><stop offset=".856" style="stop-color:#6e7377"/><stop offset=".939" style="stop-color:#82888d"/><stop offset="1" style="stop-color:#979da3"/></linearGradient><path d="m30.07 45.158-18.388-3.212a.43.43 0 0 0-.498.348l-.176.986a.505.505 0 0 0 .41.586l18.74 3.271.262-1.48a.43.43 0 0 0-.35-.5z" style="fill:url(#t)"/></svg>