<svg xmlns="http://www.w3.org/2000/svg" xml:space="preserve" style="enable-background:new 0 0 64 64" viewBox="0 0 64 64"><linearGradient id="a" x1="41.678" x2="41.678" y1="60.57" y2="3.429" gradientUnits="userSpaceOnUse"><stop offset="0" style="stop-color:#009c1d"/><stop offset=".263" style="stop-color:#0da72a"/><stop offset=".638" style="stop-color:#1ab236"/><stop offset="1" style="stop-color:#1eb53a"/></linearGradient><path d="M30.89 21.68 32 60.57l20.46-17.86V3.43z" style="fill:url(#a)"/><linearGradient id="b" x1="21.767" x2="21.767" y1="60.57" y2="3.429" gradientUnits="userSpaceOnUse"><stop offset="0" style="stop-color:#fc0"/><stop offset=".068" style="stop-color:#ffce00"/><stop offset=".542" style="stop-color:#ffdb00"/><stop offset="1" style="stop-color:#ffdf00"/></linearGradient><path d="M11.53 3.43v39.28L32 60.57V21.29z" style="fill:url(#b)"/><path d="M32 62c-.38 0-.75-.13-1.05-.38L10.48 43.76c-.3-.27-.48-.65-.48-1.05V3.43c0-.57.36-1.08.92-1.31.56-.23 1.21-.12 1.66.27L32 19.33 51.42 2.39c.45-.39 1.1-.5 1.66-.27.56.22.92.74.92 1.31v39.28c0 .4-.18.77-.48 1.04L33.05 61.62c-.3.25-.67.38-1.05.38zM13.07 42.1 32 58.61 50.93 42.1V6.73l-17.88 15.6c-.59.51-1.51.51-2.1 0L13.07 6.73V42.1z" style="fill:#302c3b"/></svg>