<svg xmlns="http://www.w3.org/2000/svg" xml:space="preserve" style="enable-background:new 0 0 64 64" viewBox="0 0 64 64"><linearGradient id="a" x1="26.882" x2="37.118" y1="56.902" y2="56.902" gradientUnits="userSpaceOnUse"><stop offset="0" style="stop-color:#ffd94f"/><stop offset=".274" style="stop-color:#fcca3c"/><stop offset=".728" style="stop-color:#f8b523"/><stop offset="1" style="stop-color:#f7ad19"/></linearGradient><path d="M36.29 61.01c-1.52 1.32-7.06 1.32-8.58 0-1.87-1.63 0-9.21 0-9.21h8.58s1.87 7.58 0 9.21z" style="fill:url(#a)"/><linearGradient id="b" x1="20.128" x2="20.128" y1="53.359" y2="18.991" gradientUnits="userSpaceOnUse"><stop offset="0" style="stop-color:#ffd94f"/><stop offset=".354" style="stop-color:#ffdd59"/><stop offset=".946" style="stop-color:#ffe772"/><stop offset="1" style="stop-color:#ffe875"/></linearGradient><path d="M13.23 19.06c3.45 12.89-1.87 11.82-1.63 20.37.17 5.77 4.39 8.39 8.92 9.58 3.72.97 6.5.04 7.23-3.04.35-1.49 4.31 7.39 3.33 7.39-5.97 0-21.54-.77-22.04-12.85-.39-9.41 4.69-10.1 2.66-20.59-.25-1.3 1.53-.86 1.53-.86z" style="fill:url(#b)"/><linearGradient id="c" x1="18.656" x2="18.656" y1="55.422" y2="19.416" gradientUnits="userSpaceOnUse"><stop offset="0" style="stop-color:#f7ad19"/><stop offset=".272" style="stop-color:#f8b523"/><stop offset=".727" style="stop-color:#fcca3c"/><stop offset="1" style="stop-color:#ffd94f"/></linearGradient><path d="M12.05 19.45c3.2 11.95-3.83 12.39-2.47 22.05 1.58 11.17 16.08 10.53 19.48 10.53 1.53 0 1.57 3.4.59 3.4-5.97 0-22.13-.77-22.64-12.85-.39-9.41 5.57-11.65 3.55-22.13-.24-1.31 1.49-1 1.49-1z" style="fill:url(#c)"/><linearGradient id="d" x1="10.966" x2="10.966" y1="23.017" y2="8.788" gradientUnits="userSpaceOnUse"><stop offset="0" style="stop-color:#ffd94f"/><stop offset=".354" style="stop-color:#ffdd59"/><stop offset=".946" style="stop-color:#ffe772"/><stop offset="1" style="stop-color:#ffe875"/></linearGradient><path d="m8.65 23.02 3.64-2.62s1.98-11.82 1.39-11.6c-1.45.52-7.25 7.55-5.03 14.22z" style="fill:url(#d)"/><linearGradient id="e" x1="14.058" x2="14.058" y1="20.393" y2="8.786" gradientUnits="userSpaceOnUse"><stop offset="0" style="stop-color:#f7ad19"/><stop offset=".272" style="stop-color:#f8b523"/><stop offset=".727" style="stop-color:#fcca3c"/><stop offset="1" style="stop-color:#ffd94f"/></linearGradient><path d="m12.29 20.39 4.5-.98c-3.95-4.05-2.52-10.84-3.11-10.63-1.45.54-3.61 4.95-1.39 11.61z" style="fill:url(#e)"/><linearGradient id="f" x1="558.511" x2="558.511" y1="53.359" y2="18.991" gradientTransform="matrix(-1 0 0 1 602.383 0)" gradientUnits="userSpaceOnUse"><stop offset="0" style="stop-color:#ffd94f"/><stop offset=".354" style="stop-color:#ffdd59"/><stop offset=".946" style="stop-color:#ffe772"/><stop offset="1" style="stop-color:#ffe875"/></linearGradient><path d="M50.77 19.06c-3.45 12.89 1.87 11.82 1.63 20.37-.17 5.77-4.39 8.39-8.92 9.58-3.72.97-6.5.04-7.23-3.04-.35-1.49-4.31 7.39-3.33 7.39 5.97 0 21.54-.77 22.04-12.85.39-9.41-4.69-10.1-2.66-20.59.25-1.3-1.53-.86-1.53-.86z" style="fill:url(#f)"/><linearGradient id="g" x1="557.039" x2="557.039" y1="55.422" y2="19.416" gradientTransform="matrix(-1 0 0 1 602.383 0)" gradientUnits="userSpaceOnUse"><stop offset="0" style="stop-color:#f7ad19"/><stop offset=".272" style="stop-color:#f8b523"/><stop offset=".727" style="stop-color:#fcca3c"/><stop offset="1" style="stop-color:#ffd94f"/></linearGradient><path d="M51.95 19.45c-3.21 11.95 3.83 12.39 2.47 22.05-1.58 11.17-16.08 10.53-19.48 10.53-1.53 0-1.57 3.4-.59 3.4 5.97 0 22.13-.77 22.64-12.85.39-9.41-5.57-11.65-3.55-22.13.24-1.31-1.49-1-1.49-1z" style="fill:url(#g)"/><linearGradient id="h" x1="549.349" x2="549.349" y1="23.017" y2="8.788" gradientTransform="matrix(-1 0 0 1 602.383 0)" gradientUnits="userSpaceOnUse"><stop offset="0" style="stop-color:#ffd94f"/><stop offset=".354" style="stop-color:#ffdd59"/><stop offset=".946" style="stop-color:#ffe772"/><stop offset="1" style="stop-color:#ffe875"/></linearGradient><path d="m55.35 23.02-3.64-2.62S49.73 8.58 50.32 8.8c1.45.52 7.25 7.55 5.03 14.22z" style="fill:url(#h)"/><linearGradient id="i" x1="552.441" x2="552.441" y1="20.393" y2="8.786" gradientTransform="matrix(-1 0 0 1 602.383 0)" gradientUnits="userSpaceOnUse"><stop offset="0" style="stop-color:#f7ad19"/><stop offset=".272" style="stop-color:#f8b523"/><stop offset=".727" style="stop-color:#fcca3c"/><stop offset="1" style="stop-color:#ffd94f"/></linearGradient><path d="m51.71 20.39-4.5-.98c3.95-4.05 2.52-10.84 3.11-10.63 1.45.54 3.61 4.95 1.39 11.61z" style="fill:url(#i)"/><linearGradient id="j" x1="29.693" x2="29.693" y1="51.511" y2="11.606" gradientUnits="userSpaceOnUse"><stop offset="0" style="stop-color:#ffd94f"/><stop offset=".354" style="stop-color:#ffdd59"/><stop offset=".946" style="stop-color:#ffe772"/><stop offset="1" style="stop-color:#ffe875"/></linearGradient><path d="M32 50.78V11.61h-1.99l-2.62 39.9z" style="fill:url(#j)"/><linearGradient id="k" x1="34.307" x2="34.307" y1="51.511" y2="11.606" gradientUnits="userSpaceOnUse"><stop offset=".097" style="stop-color:#ffd94f"/><stop offset=".344" style="stop-color:#fcca3c"/><stop offset=".754" style="stop-color:#f8b523"/><stop offset="1" style="stop-color:#f7ad19"/></linearGradient><path d="M32 50.78V11.61h1.99l2.62 39.9z" style="fill:url(#k)"/><linearGradient id="l" x1="29.446" x2="29.446" y1="15.065" y2="2" gradientUnits="userSpaceOnUse"><stop offset="0" style="stop-color:#ffd94f"/><stop offset=".354" style="stop-color:#ffdd59"/><stop offset=".946" style="stop-color:#ffe772"/><stop offset="1" style="stop-color:#ffe875"/></linearGradient><path d="M32 2v11.56l-5.11 1.5c0 .01.62-5.15 5.11-13.06z" style="fill:url(#l)"/><linearGradient id="m" x1="34.554" x2="34.554" y1="15.065" y2="2" gradientUnits="userSpaceOnUse"><stop offset="0" style="stop-color:#f7ad19"/><stop offset=".272" style="stop-color:#f8b523"/><stop offset=".727" style="stop-color:#fcca3c"/><stop offset="1" style="stop-color:#ffd94f"/></linearGradient><path d="M32 2v11.56l5.11 1.5c0 .01-.62-5.15-5.11-13.06z" style="fill:url(#m)"/><linearGradient id="n" x1="32" x2="32" y1="62" y2="45.967" gradientUnits="userSpaceOnUse"><stop offset="0" style="stop-color:#ffd94f"/><stop offset=".354" style="stop-color:#ffdd59"/><stop offset=".946" style="stop-color:#ffe772"/><stop offset="1" style="stop-color:#ffe875"/></linearGradient><path d="M32 45.97s-2.32 5.18-7.58 5.96C29.68 53.09 32 62 32 62s2.32-8.91 7.58-10.07c-5.26-.79-7.58-5.96-7.58-5.96z" style="fill:url(#n)"/></svg>