<svg xmlns="http://www.w3.org/2000/svg" xml:space="preserve" viewBox="0 0 64 64"><linearGradient id="a" x1="32" x2="32" y1="2" y2="62" gradientUnits="userSpaceOnUse"><stop offset="0" style="stop-color:#bc2af7"/><stop offset=".216" style="stop-color:#b928f3"/><stop offset=".44" style="stop-color:#b121e6"/><stop offset=".668" style="stop-color:#a217d2"/><stop offset=".896" style="stop-color:#8e08b5"/><stop offset=".995" style="stop-color:#8400a6"/></linearGradient><path fill="url(#a)" d="M62 54c0 4.4-3.6 8-8 8H10c-4.4 0-8-3.6-8-8V10c0-4.4 3.6-8 8-8h44c4.4 0 8 3.6 8 8v44z"/><path fill="#FFF" d="M50.084 21.773c-.322 9.314-7.692 16.917-16.881 17.533V36.76c7.848-.604 13.997-6.948 14.391-14.944l.026-.524h-2.404l-.021.479c-.285 6.646-5.4 11.956-11.992 12.554v-2.223c5.495-.584 9.598-4.843 9.83-10.288l.022-.521H40.65l-.04.455c-.364 4.104-3.441 7.35-7.407 7.908v-2.607c2.664-.516 4.606-2.559 4.889-5.204l.06-.553h-2.417l-.07.417c-.225 1.341-1.166 2.402-2.462 2.831v-5.248h-2.409v5.248c-1.296-.43-2.237-1.49-2.461-2.831l-.07-.417h-2.417l.06.553c.284 2.645 2.225 4.688 4.889 5.204v2.607c-3.967-.559-7.043-3.804-7.406-7.907l-.041-.456h-2.406l.022.521c.233 5.445 4.336 9.704 9.83 10.288v2.223c-6.592-.598-11.706-5.907-11.991-12.554l-.021-.479h-2.404l.026.524c.394 7.996 6.543 14.34 14.39 14.944v2.547c-9.189-.616-16.56-8.22-16.883-17.533l-.017-.482h-2.405l.017.517c.358 10.648 8.787 19.312 19.288 19.934v4.691c-.963.321-1.779.992-2.031 1.65-1.82.527-2.896 1.465-2.896 2.539 0 1.885 4.693 2.031 6.131 2.031 1.438 0 6.131-.146 6.131-2.031 0-1.074-1.076-2.012-2.895-2.539-.252-.658-1.068-1.329-2.031-1.65v-4.691c10.499-.621 18.929-9.285 19.289-19.934l.018-.517h-2.409l-.017.481zm-37.309-1.959c.31 0 .595-.125.802-.351.147-.161.323-.45.323-.914 0-.694-.184-1.113-.346-1.483-.199-.453-.356-.811-.109-1.79l.486-1.929-1.341 1.47c-.055.061-1.339 1.499-1.058 3.787.097.794.699 1.21 1.243 1.21zm4.895 0c.31 0 .595-.125.802-.351.147-.161.323-.45.323-.914 0-.694-.184-1.113-.346-1.483-.199-.453-.356-.811-.109-1.79l.486-1.929-1.34 1.47c-.055.061-1.339 1.499-1.058 3.787.096.794.697 1.21 1.242 1.21zm4.573 0c.31 0 .595-.125.802-.351.147-.161.323-.45.323-.914 0-.694-.184-1.113-.346-1.483-.199-.453-.356-.811-.109-1.79l.486-1.929-1.34 1.47c-.055.061-1.339 1.499-1.058 3.788.097.793.698 1.209 1.242 1.209z"/><path fill="#FFF" d="M27.188 19.814c.31 0 .595-.125.802-.351.148-.161.323-.45.323-.914 0-.694-.184-1.113-.346-1.483-.199-.453-.357-.811-.11-1.79l.486-1.929-1.34 1.47c-.055.061-1.339 1.499-1.058 3.788.097.793.699 1.209 1.243 1.209zm4.877-2c.31 0 .595-.125.802-.351.147-.161.323-.45.323-.914 0-.694-.184-1.113-.346-1.483-.199-.453-.356-.812-.11-1.79l.486-1.929-1.34 1.47c-.055.061-1.339 1.499-1.058 3.788.097.793.699 1.209 1.243 1.209zm4.878 2c.309 0 .595-.125.802-.351.148-.161.323-.45.323-.914 0-.694-.184-1.113-.346-1.483-.199-.453-.356-.811-.109-1.79l.486-1.929-1.341 1.47c-.055.061-1.339 1.499-1.059 3.788.098.793.699 1.209 1.244 1.209zm4.944 0c.31 0 .595-.125.802-.351.147-.161.323-.45.323-.914 0-.694-.184-1.113-.346-1.483-.199-.453-.356-.811-.109-1.79l.486-1.929-1.341 1.47c-.055.061-1.339 1.499-1.058 3.787.097.794.699 1.21 1.243 1.21zm4.574 0c.31 0 .595-.125.802-.351.147-.161.323-.45.323-.914 0-.694-.184-1.113-.346-1.483-.199-.453-.356-.811-.109-1.79l.486-1.929-1.341 1.47c-.055.061-1.339 1.499-1.058 3.787.097.794.699 1.21 1.243 1.21zm4.893 0c.31 0 .595-.125.802-.351.147-.161.323-.45.323-.914 0-.694-.184-1.113-.346-1.483-.199-.453-.356-.811-.109-1.79l.486-1.929-1.341 1.47c-.055.061-1.339 1.499-1.058 3.787.097.794.699 1.21 1.243 1.21z"/></svg>