<svg xmlns="http://www.w3.org/2000/svg" xml:space="preserve" style="enable-background:new 0 0 64 64" viewBox="0 0 64 64"><path d="M43.694 57.13s.116 1.5.075 2.616c-.018.5-1.216.836-1.782.897-.091.01-.178-.168-.178-.168-1.474 1.193-3.565 1.674-6.054 1.485-1.634-.123-.945-1.14.122-1.778 1.796-1.075 2.963-6.019 7.817-3.052zm-20.307-.53s1.2 1.622 0 3.4H21.34v-1.03S20.673 60 14.404 60c-1.76 0-1.948-1.699-.094-1.699 1.067 0 2.604-1.941 3.342-3.4l5.735 1.7z" style="fill:#2a36a5"/><path d="M19.92 46.94c.555-2.72 5.424-5.955 8.203-11.319H39.37s3.059 1.44 1.393 7.939c-1.018 3.942.225 8.74 3.559 13.587 0 0-3.839 3.049-8.864 1.528 0 0 1.272-3.055-1.34-9.598-.841-2.114 1.11-4.212-.863-8.878 0 0-.953 1.982-8.068 7.923 0 0 1.406 4.105-.264 8.883 0 0-1.063.447-4.902.447-3.588 0-5.373-.447-5.373-.447s3.44-.99 5.273-10.065z" style="fill:#be8aee"/><path d="M23.099 50.175s1.327-1.44 1.975-1.96c-.878.554-2.08 1.302-1.975 1.96zm17.097 1.139s-.104-2.98.035-4.237c-.345 1.54-.828 3.638-.035 4.237zm-.979-1.959s.595-1.964.995-2.76c-.633.943-1.507 2.224-.995 2.76zm-6.447-8.771s-1.431.067-2.038.007c.745.157 1.76.378 2.038-.007zm-8.47 11.47s.543-2.898.833-3.676c-.47.924-1.26 3.164-.833 3.676zm-4.187-1.934s-.124-2.136-.02-2.714c-.244.69-.5 2.352.02 2.715zm12.584-9.792s-1.86-.216-3.075-2.18c.483 1.399 1.816 2.295 3.075 2.18z" style="fill:#b17be3"/><path d="M31.476 16.973s5.338-3.05 4.832.32c-4.328 4.027-6.065 10.545-6.065 10.545s-1.7-7.9 1.233-10.865z" style="fill:#5e4c3b"/><path d="M31.476 16.973c-.771 2.407-1.088 9.837-1.088 9.837s1.72-8.491 6.127-10.128c0 0-2.338 11.434 0 20.199 0 0-2.904.355-5.548-.11l.048.203c-.978-.193-2.04-.601-2.824-1.156-3.162-12.98 3.285-18.845 3.285-18.845z" style="fill:#fff"/><path d="M30.388 26.81s-.828 5.46.627 10.164c-1.09-4.473-.627-10.164-.627-10.164z" style="fill:#f7f7f7"/><path d="M30.779 17.063c-1.657.462-3.491.06-3.776.226-.584.34-4.423-.695-5.334-1.182 0 0-2.59-4.172-3.175-7.52l-3.89 2.488s1.596 4.61 3.849 8.258c.333.533 5.228 2.782 7.737 2.92 0 0 1.714 8.447-2.937 14.215 0 0 2.1-.855 5.329-1.17 0 0-2.048-8.034 2.197-18.235z" style="fill:#be8aee"/><path d="M27.152 37.29s.53-.715 1.039-1.472v-.48s-2.654.092-4.938 1.13c0 0-.443 1.372 3.899.823z" style="fill:#9b5cd6"/><path d="M36.69 16.999s3.896.937 4.425 1.45c.769.746 4.346 2.548 7.56 5.3.931.798 1.532 3.396 2.27 9.288l-4.847.135c.113-4.657-.873-6.484-.873-6.484s-3.243-1.603-6.192-3.18c0 0-3.443 6.22 4.024 12.96 0 0 .27 4.835-10.225 1.901.002 0-4.169-9.653 3.859-21.37z" style="fill:#be8aee"/><path d="M51 33.867s-1.902.693-5.19.111c0 0 1.586-1.211 5.19-.111zM14.07 10.308s1.717-1.359 4.53-1.858c0 0-1.29 1.706-4.53 1.858z" style="fill:#9b5cd6"/><path d="m36.515 16.793 3.478 1.485-3.282.804 1.043 2.217s-8.044 4.684-4.92 17.069c-3.02-7.847-.845-17.43 3.681-21.575z" style="fill:#2a36a5"/><path d="m36.342 16.71 3.202 1.555-3.247.643 1.003 2.256s-7.72 4.852-4.466 17.203c-3.102-7.813-.974-17.464 3.508-21.656z" style="fill:#debaff"/><path d="m31.242 16.682-3.288.905 1.117 1.1-2.258.494s-.536 7.908 1.769 16.116c-1.182-8.687.664-15.659 2.66-18.615z" style="fill:#2a36a5"/><path d="m31.666 16.682-3.288.905 1.3 1.161-2.456.515s-.945 7.826 1.36 16.035c-1.182-8.688 1.087-15.66 3.084-18.616z" style="fill:#debaff"/><path d="M43.056 36.469s-7.261 1.716-10.222 1.9c3.681.218 7.781-.822 8.16-.402.096.308.19.918.19.918.952-.239 1.873-1.208 1.873-2.416zm-2.748-2.249s-3.702-1.687-5.107-2.6c1.571 1.31 4.639 3.016 5.107 2.6z" style="fill:#9b5cd6"/><path d="M17.97 6.058c-.277-.762-.782-3.123-.903-3.6-.197-.777-1.324-.487-1.145.286.233 1.004.55 2.538.533 2.833 0 0 1.442.449 1.515.48zm-2.561 4.088a2.83 2.83 0 0 0-.679-1.278c-.513-.552 3.605-1.304 3.237-.549-.203.418-.072.606-.02.833.08.34-2.45 1.333-2.538.995z" style="fill:#735c48"/><path d="M13.7 6.787c.121.523.277 1.373.922 2.027.96.975 4.372.616 3.644-2.532-.064-.277-4.746-.273-4.566.505z" style="fill:#735c48"/><path d="M13.465 6.644c-.238-.56.812-.926 1.098-.389l.383.759c.336.611-.36.863-.665.801-.37-.075-.65-.78-.816-1.17z" style="fill:#4a3728"/><path d="M13.44 6.575c-.25-.555.791-.94 1.09-.409l.4.75c.35.605-.342.87-.649.814-.372-.068-.667-.767-.84-1.155z" style="fill:#735c48"/><path d="M14.176 6.014c-.12-.577.962-.874 1.186-.222 0 0 .271.6.506.932.4.563-.527 1.117-1.043.519-.405-.469-.578-.89-.649-1.229z" style="fill:#4a3728"/><path d="M14.146 5.948c-.126-.576.97-.91 1.193-.258 0 0 .271.601.506.932.4.564-.526 1.117-1.042.52-.405-.469-.584-.863-.657-1.194z" style="fill:#735c48"/><path d="M15.243 5.455c-.057-.596 1.05-.775 1.204-.093l.404.996-1.093.407s-.481-.96-.515-1.31z" style="fill:#4a3728"/><path d="M15.219 5.385c-.08-.593 1.039-.836 1.21-.158l.431.985-1.081.435s-.514-.921-.56-1.262z" style="fill:#735c48"/><path d="M17.22 6.382s-1.204.337-1.115 1.6c.125-1.01 1.115-1.6 1.115-1.6z" style="fill:#4a3728"/><path d="M16.667 5.426c-.178.001-.818.409-1.343.62-.29.118-.293.79.363.907.577.103 1.104-.232 1.104-.232.262.318.447.364.447.364s.916-.734.847-.927c-.15-.418-1.22-.734-1.418-.732z" style="fill:#4a3728"/><path d="M16.724 5.45c-.177.002-.803.413-1.329.625-.289.117-.326.71.351.78.583.061 1.076-.26 1.076-.26s.18.308.416.49c.153.118 1.074-.604 1.028-.803-.1-.433-1.343-.833-1.541-.831zM46.54 33.632s1.152-.349 3.128-.18c0 0 .254 2.95.165 3.295-.56 2.129-2.277 2.842-2.98 2.723-1.858.738.52-2.804-.77-3.14-.323 1.016-1.56 1.15-1.45.71.688-2.807 1.852-2.087 1.907-3.408z" style="fill:#735c48"/><path d="M47.653 37.538s-.21 1.381-.8 1.932c.818-.477.8-1.932.8-1.932zm1.022-.478s-.287 1.685-.877 2.237c.817-.477.877-2.236.877-2.236zm.67-.136s-.117 1.282-.706 1.833c.817-.476.706-1.833.706-1.833z" style="fill:#4a3728"/><path d="m14.926 12.315-.082-.165 2.173-2.306 2.24.511.07.101s-.358.648-1.48 1.2l-.58-1.19-.07 1.5s-1.45.605-2.27.349z" style="fill:#2a36a5"/><path d="M14.844 12.15s-.38-1.038-.774-1.842c0 0 2.066-.162 4.53-1.856 0 0 .23.975.657 1.903 0 0-.266.535-1.388 1.087l-.679-1.355-.083 1.718s-1.443.601-2.263.345z" style="fill:#debaff"/><path d="M50.945 31.53v.168l-3.956 1.583-1.079-1.489s.002-.137 0-.168c0 0 .124-.185.443-.217l.548 1.182.136-1.315s3.125-.322 3.908.256z" style="fill:#2a36a5"/><path d="M50.945 31.698s-.029 1.202.055 2.169c0 0-1.772-.653-5.19.11 0 0 .164-1.075.1-2.185 0 0 .124-.184.443-.217l.611 1.319.161-1.446s3.037-.328 3.82.25z" style="fill:#debaff"/><path d="M31.615 17.19s-1.841.427-3.112 1.177c0 0 2.322 1.068 1.885 8.443.547-3.461.39-7.729 1.227-9.62zm4.539-.574s1.453.837 2.39 2.635c0 0-5.281-2.157-8.156 7.56 1.529-8.207 5.766-10.195 5.766-10.195z" style="fill:#f7f7f7"/><path d="M28.582 35.298s-3.293 0-5.329 1.17c2.463-.847 5.329-1.17 5.329-1.17zm14.474 1.171s-4.126.889-10.224 1.9c6.342-.397 10.224-1.9 10.224-1.9z" style="fill:#2a36a5"/><path d="M38.988 9.522c-.885.106-1.524 3.068-.967 3.85.078.108.534.283.872-.407.188-.382.728-.701.896-1.489.214-1.01.08-2.061-.8-1.954zm-11.435 0c.885.106 1.524 3.068.967 3.85-.078.108-.534.283-.873-.407-.187-.382-.727-.701-.895-1.489-.215-1.01-.08-2.061.8-1.954z" style="fill:#735c48"/><path d="M38.965 10.089c-.232.072-.484.424-.62 1.009.807-.174.605 1.17-.097 1.195.007.135.016.274.033.42.338-.49.681-.294 1.022-1.023.306-.658.233-1.78-.338-1.601zm-10.769 1.007c-.137-.583-.388-.935-.62-1.008-.57-.178-.645.944-.338 1.601.34.73.684.533 1.023 1.023.016-.146.026-.285.03-.42-.693-.033-.892-1.36-.095-1.196z" style="fill:#4a3728"/><path d="M33.27 3.827c-3.835 0-5.683 2.9-5.452 6.93.047.81.55 3.456 1.025 4.405.487.97 2.113 2.468 3.109 2.778.63.195 2.008.195 2.636 0 .997-.31 2.624-1.807 3.11-2.778.476-.95.978-3.594 1.024-4.405.233-4.03-1.615-6.93-5.452-6.93z" style="fill:#735c48"/><path d="M37.438 9.226c-.877-.465-2.556-.487-3.181-.163-.135.062-.046.502.067.46.87-.345 2.277-.352 3.092.03.11.049.155-.263.022-.327zm-8.334 0c.877-.465 2.554-.487 3.18-.163.134.062.046.502-.067.46-.872-.345-2.276-.352-3.093.03-.108.049-.153-.263-.02-.327z" style="fill:#302b27"/><path d="M34.306 13.25c-.11-.075-.367.042-1.036.042-.667 0-.925-.117-1.034-.041-.131.092.077.508 1.034.508.958 0 1.167-.416 1.035-.508z" style="fill:#4a3728"/><path d="M32.417 10.807c.032.254-.14.554-.617.78-.303.144-.934.312-1.762-.037-.37-.157-.733-.643-.7-.913.449-.846 2.659-.97 3.079.17z" style="fill:#fff"/><linearGradient id="a" x1="-1209.841" x2="-1209.841" y1="169.83" y2="169.566" gradientTransform="translate(7979.696 -1104.145) scale(6.5701)" gradientUnits="userSpaceOnUse"><stop offset="0" style="stop-color:#a6694a"/><stop offset="1" style="stop-color:#4f2a1e"/></linearGradient><path d="M30.918 9.923a.868.868 0 1 1 0 1.736.868.868 0 0 1 0-1.736z" style="fill:url(#a)"/><path d="M30.484 10.774c0 .6.868.6.868 0 0-.557-.868-.557-.868 0z" style="fill:#1a1626"/><path d="M30.352 10.53c0 .252.363.252.363 0 0-.232-.363-.232-.363 0z" style="fill:#ab968c"/><path d="M32.421 10.84c-.352-1.131-2.756-.964-3.083-.203.12-.975 2.783-1.232 3.083.203z" style="fill:#4a3728"/><path d="M34.124 10.807c-.032.254.14.554.617.78.303.144.933.312 1.761-.037.372-.157.734-.643.701-.913-.449-.846-2.66-.97-3.079.17z" style="fill:#fff"/><linearGradient id="b" x1="-1211.827" x2="-1211.827" y1="169.83" y2="169.566" gradientTransform="translate(7997.426 -1104.145) scale(6.5701)" gradientUnits="userSpaceOnUse"><stop offset="0" style="stop-color:#a6694a"/><stop offset="1" style="stop-color:#4f2a1e"/></linearGradient><path d="M35.603 9.923a.868.868 0 1 1 .002 1.735.868.868 0 0 1-.002-1.735z" style="fill:url(#b)"/><path d="M35.17 10.774c0 .6.868.6.868 0 0-.557-.868-.557-.868 0z" style="fill:#1a1626"/><path d="M35.038 10.53c0 .252.364.252.364 0 0-.232-.364-.232-.364 0z" style="fill:#ab968c"/><path d="M34.12 10.84c.352-1.13 2.754-.969 3.083-.203-.122-.975-2.783-1.232-3.083.203z" style="fill:#4a3728"/><path d="m37.836 5.036-.873 1.057c1.767 1.084.778 3.915 1.581 5.978.274-2.058 1.552-6.548-.708-7.035zm-9.166.523.873.534c-1.768 1.084-.744 3.915-1.546 5.978-.274-2.058-1.587-6.025.673-6.512z" style="fill:#382e26"/><path d="M36.91 5.794c1.123-.005 1.235 1.83 1.235 1.83s.337-2.09-1.09-2.09l-.144.26zm-8.125.906c-.45 1.099-.61 2.228-.61 2.228s-.237-.791.33-2.189l.28-.04z" style="fill:#1a1714"/><path d="M37.358 5.366c.877-.091 1.09 1.334 1.09 1.334s.12-1.66-.994-1.548l-.096.214z" style="fill:#1a1714"/><path d="M37.835 5.036s-1.307-2.28-4.582-2.28c-3.556 0-5.797 1.593-5.873 4.678 2.178-2.147 7.914 1.19 10.455-2.398z" style="fill:#473e35"/><path d="M37.835 5.036c-.335-1.053-2.118-2.28-4.582-2.28 1.365.096 3.166.773 3.35 1.2 0 0-1.888-1.018-4.437-.571 2.337-.107 3.88 1.38 3.223 1.387-.64.008-3.016.088-4.426.957.907-.061 2.698.427 2.617.458-1.806.699-5.43-.963-6.174 1.246 2.799-2.397 8.138 1.465 10.43-2.397z" style="fill:#382e26"/><path d="M37.835 5.036c-1.868 4.417-10.264-.522-10.069 3.176-.857-4.244 7.306.99 10.07-3.176z" style="fill:#1a1714"/><path d="M37.324 5.698c-.888-1.744-3.768-2.37-3.768-2.37s3.01.172 4.002 2.136l-.234.234zm-.456.395c-.827-.775-4.816-.502-4.816-.502s2.908-.878 5.132.248l-.316.253z" style="fill:#1a1714"/><path d="M27.558 6.761s.391-3.173 5.845-2.936c-4.484.622-5.845 2.936-5.845 2.936z" style="fill:#382e26"/><path d="M27.895 6.58s2.161-2.83 6.905-2.116c-3.958-.116-6.905 2.114-6.905 2.114zm-.118-.989s2.372-2.668 6.26-2.623c-4.493-.597-6.26 2.623-6.26 2.623z" style="fill:#574f45"/><path d="M33.27 14.917c-.862-.254-2.141.121-2.141.121.487.53.844 1.218 2.141 1.218 1.487 0 1.74-.781 2.142-1.218 0 0-1.28-.376-2.142-.12z" style="fill:#4a3728"/><path d="M31.45 15.128c.905.759 2.731.763 3.64 0-.963.041-2.67.041-3.64 0z" style="fill:#fff"/></svg>