<svg xmlns="http://www.w3.org/2000/svg" xml:space="preserve" style="enable-background:new 0 0 64 64" viewBox="0 0 64 64"><linearGradient id="a" x1="47.244" x2="60.35" y1="64.12" y2="51.014" gradientTransform="translate(-3.946 -1.626)" gradientUnits="userSpaceOnUse"><stop offset="0" style="stop-color:#13171a"/><stop offset=".04" style="stop-color:#161a1d"/><stop offset=".316" style="stop-color:#23292e"/><stop offset=".62" style="stop-color:#2b3238"/><stop offset="1" style="stop-color:#2e353b"/></linearGradient><path d="M56 60.742c0-7.562-1.745-14.057-2.833-14.539-1.214-.537-7.78 2.864-7.78 2.864l2.58 14.15S56 62.926 56 60.742z" style="fill:url(#a)"/><linearGradient id="b" x1="11.542" x2="24.648" y1="51.014" y2="64.12" gradientTransform="translate(-3.946 -1.626)" gradientUnits="userSpaceOnUse"><stop offset="0" style="stop-color:#3c454d"/><stop offset="1" style="stop-color:#555f69"/></linearGradient><path d="m16.033 63.217 2.58-14.15s-6.565-3.401-7.78-2.864C9.746 46.685 8 53.18 8 60.743c0 2.183 8.033 2.474 8.033 2.474z" style="fill:url(#b)"/><linearGradient id="c" x1="35.946" x2="35.946" y1="65.626" y2="42.534" gradientTransform="translate(-3.946 -1.626)" gradientUnits="userSpaceOnUse"><stop offset="0" style="stop-color:#555f69"/><stop offset="1" style="stop-color:#3c454d"/></linearGradient><path d="M47.967 63.217c.008-4.84.741-12.282 5.2-17.014l-12.94-5.295-16.453.026-12.94 5.269c4.458 4.732 5.191 12.175 5.2 17.014 0 0 7.337.783 12.878.783 2.557-1.825 3.95-1.501 6.176 0 5.585 0 12.88-.783 12.88-.783z" style="fill:url(#c)"/><path d="M33.098 64c2.503-5.893 10.208-17.717 6.997-22.538-2.38-3.575-13.731-3.511-16.19 0C20.61 46.17 24.39 58.107 28.912 64h4.186z" style="fill:#ededf7"/><path d="M24.263 36.56v5.6c.869 2.243 4.254 4.174 7.737 5.263 3.484-1.09 6.87-3.02 7.737-5.263v-5.6H24.263z" style="fill:#f3cca8"/><linearGradient id="d" x1="33.094" x2="38.798" y1="56.835" y2="56.835" gradientTransform="translate(-3.946 -1.626)" gradientUnits="userSpaceOnUse"><stop offset="0" style="stop-color:#211c1a;stop-opacity:.05"/><stop offset="1" style="stop-color:#211c1a;stop-opacity:.3"/></linearGradient><path d="M33.762 51.348c.5-.678.858-3.442.858-3.442h-5.24s.358 2.764.858 3.442c-.367.774-1.883 8.386-.553 10.318.775 1.127 3.856 1.127 4.63 0 1.33-1.932-.186-9.544-.553-10.318z" style="fill:url(#d)"/><linearGradient id="e" x1="33.333" x2="38.559" y1="58.935" y2="58.935" gradientTransform="translate(-3.946 -1.626)" gradientUnits="userSpaceOnUse"><stop offset="0" style="stop-color:#2e353b"/><stop offset="1" style="stop-color:#181b1f"/></linearGradient><path d="M33.571 51.348c-.413-.972-2.728-.972-3.142 0-.327.773-2.1 10.43-.117 12.652h3.376c1.983-2.222.21-11.879-.117-12.652z" style="fill:url(#e)"/><linearGradient id="f" x1="33.55" x2="38.341" y1="50.993" y2="50.993" gradientTransform="translate(-3.946 -1.626)" gradientUnits="userSpaceOnUse"><stop offset="0" style="stop-color:#2e353b"/><stop offset=".432" style="stop-color:#2c3238"/><stop offset=".731" style="stop-color:#252a2f"/><stop offset=".99" style="stop-color:#191c20"/><stop offset="1" style="stop-color:#181b1f"/></linearGradient><path d="M32 47.423c-1.736-.938-2.395.483-2.395.483s.378 2.764.824 3.442c.249.377 2.894.377 3.142 0 .446-.678.825-3.442.825-3.442s-.66-1.421-2.396-.483z" style="fill:url(#f)"/><linearGradient id="g" x1="-38.526" x2="-38.526" y1="52.841" y2="44.013" gradientTransform="matrix(-1 0 0 1 -11.196 -1.626)" gradientUnits="userSpaceOnUse"><stop offset="0" style="stop-color:#211c1a;stop-opacity:.05"/><stop offset="1" style="stop-color:#211c1a;stop-opacity:.3"/></linearGradient><path d="M32 47.423c-1.398-.048-3.02 1.531-4.143 3.682-.089.17-.348.13-.463-.028-1.002-1.36-3.347-4.753-4.734-8.69 4.147 3.478 9.34 5.036 9.34 5.036z" style="fill:url(#g)"/><linearGradient id="h" x1="40.616" x2="40.616" y1="52.841" y2="44.013" gradientTransform="translate(-3.946 -1.626)" gradientUnits="userSpaceOnUse"><stop offset="0" style="stop-color:#211c1a;stop-opacity:.05"/><stop offset="1" style="stop-color:#211c1a;stop-opacity:.3"/></linearGradient><path d="M32 47.423c1.398-.048 3.02 1.531 4.143 3.682.09.17.348.13.464-.028 1.002-1.36 3.346-4.753 4.733-8.69-4.147 3.478-9.34 5.036-9.34 5.036z" style="fill:url(#h)"/><path d="M41.339 42.121c-.174-.416-1.35-1.843-1.602-1.75 0 1.998-4.575 5.542-7.737 7.052 1.786-.45 2.99 1.258 4.366 2.99.088.11.277.106.35-.012.832-1.34 4.92-7.567 4.623-8.28z" style="fill:#ededf7"/><path d="M41.339 42.121c-.174-.416-1.35-1.843-1.602-1.75.14 2.884-5.98 6.506-5.446 7.052.767.782 1.428 1.764 2.11 2.823.076.117.227.265.315.155 1.227-1.54 4.92-7.567 4.623-8.28z" style="fill:#fafafa"/><path d="M22.661 42.121c.174-.416 1.35-1.843 1.602-1.75 0 1.998 4.575 5.542 7.737 7.052-1.786-.45-2.99 1.258-4.366 2.99-.087.11-.277.106-.35-.012-.832-1.34-4.92-7.567-4.623-8.28z" style="fill:#ededf7"/><path d="M22.661 42.121c.174-.416 1.35-1.843 1.602-1.75-.14 2.884 5.98 6.506 5.446 7.052-.767.782-1.428 1.764-2.11 2.823-.075.117-.227.265-.315.155-1.227-1.54-4.92-7.567-4.623-8.28z" style="fill:#fafafa"/><path d="M46.945 39.25c0-1.849-7.483-6.833-7.431-5.324.394 11.323 1.248 11.7-6.79 30.074h2.364c5.683-6.614 11.388-20.366 11.388-20.97 0-.208-4.231-1.317-4.231-1.78 0-.303 4.7-1.731 4.7-2zm-22.459-5.324c.053-1.51-7.43 3.475-7.43 5.324 0 .269 4.7 1.696 4.7 2 0 .463-4.232 1.572-4.232 1.78 0 .603 5.706 14.356 11.388 20.97h2.365c-8.039-18.374-7.184-18.751-6.79-30.074z" style="fill:#555f69"/><radialGradient id="i" cx="40.261" cy="48.782" r="23.289" gradientTransform="matrix(1 0 0 .8976 -8.211 -3.605)" gradientUnits="userSpaceOnUse"><stop offset="0" style="stop-color:#2e2319"/><stop offset=".615" style="stop-color:#46392e"/><stop offset="1" style="stop-color:#4f4236"/></radialGradient><path d="M48.23 20.325H15.77s-4.744 14.555 8.478 19.85v-3.16h15.483v3.167c13.244-5.289 8.499-19.857 8.499-19.857z" style="fill:url(#i)"/><path d="M32 6.118c-9.966 0-14.767 8.117-14.167 18.552.123 2.097.706 5.123 1.427 7.716 1.494 5.39 9.381 10.816 12.74 10.816 3.357 0 11.244-5.427 12.74-10.816.72-2.593 1.304-5.619 1.427-7.716.599-10.435-4.2-18.552-14.167-18.552z" style="fill:#ffd8b4"/><path d="M31.998 34.73c-2.335-1.027-2.353-.041-5.959.2 1.353 1.537 2.35 3.513 5.958 3.513 4.142 0 4.842-2.244 5.964-3.513-3.61-.241-3.624-1.227-5.962-.2z" style="fill:#de935d"/><path d="M27.122 35.314c2.354 2.449 7.43 2.417 9.755.001-3.624.389-6.13.389-9.755-.001z" style="fill:#fff"/><path d="M43.853 18.908c-3.027-1.804-8.458-2.025-10.606-.795-.455.248-.334 1.55.06 1.388 3.065-1.276 7.734-1.34 10.611.137.385.195.394-.467-.065-.73zM21.826 20.64c2.355-.898 6.207-.385 7.572.747.29.23.045 1.134-.214.97-2.004-1.276-5.281-1.897-7.493-1.21-.296.09-.22-.378.135-.506z" style="fill:#826d58"/><path d="M34.24 31.419c-.237-.167-.794.09-2.241.09-1.446 0-2.003-.257-2.24-.09-.285.2.167 1.102 2.24 1.102 2.072 0 2.527-.901 2.24-1.102z" style="fill:#deb38a"/><path d="M33.357 24.265c-.11.863.473 1.883 2.093 2.65 1.028.486 3.167 1.059 5.977-.127 1.264-.531 2.49-2.183 2.38-3.099-1.525-2.871-9.026-3.29-10.45.576z" style="fill:#fff"/><linearGradient id="j" x1="-1210.417" x2="-1210.417" y1="172.436" y2="171.54" gradientTransform="translate(7990.94 -1105.77) scale(6.5701)" gradientUnits="userSpaceOnUse"><stop offset="0" style="stop-color:#a6694a"/><stop offset="1" style="stop-color:#4f2a1e"/></linearGradient><path d="M38.378 21.266a2.945 2.945 0 1 1 0 5.887 2.944 2.944 0 1 1 0-5.887z" style="fill:url(#j)"/><path d="M36.907 24.154c0 2.037 2.946 2.037 2.946 0 0-1.89-2.947-1.89-2.947 0z" style="fill:#1a1626"/><path d="M36.457 23.328c0 .854 1.235.854 1.235 0 0-.789-1.235-.789-1.235 0z" style="fill:#ab968c"/><path d="M33.343 24.378c1.193-3.836 9.347-3.287 10.462-.69-.414-3.306-9.443-4.18-10.462.69zm-10.783.606c1.562-.888 4.373-.946 6.06 0 .39.22 1.038.067.893-.19-1.475-2.599-6.375-2.595-7.847 0-.145.258.505.412.893.19z" style="fill:#45332c"/><path d="M40.455 9.693c1.163-1.49-13.791-3.832-21.028 2.372-4.219 3.617-7.646 6.969-7.646 14.537 0 5.32 3.835 12.194 12.467 13.73v-.347c-9.214-6.148-7.61-12.28-4.87-19.659 6.971-3.622 14.86-4.475 20.335-8.811-.702 1.888 3.01 4.27 4.908 8.811 2.81 6.725 4.285 13.525-4.89 19.67v.329c8.009-1.548 12.488-8.41 12.488-13.723 0-10.644-6.2-13.13-11.764-16.91z" style="fill:#4f4236"/><path d="M43.452 6.556c1.116-1.2-27.566 10.995-30.67 18.334 5.207-6.67 27.163-9.149 30.67-18.334zm5.092 10.689s4.877 11.873-3.295 20.105c11.705-8.232 3.295-20.105 3.295-20.105z" style="fill:#403429"/><path d="M19.815 19.985s-1.992.326-3.622 1.914c-3.41 10.81 4.739 15.451 4.739 15.451s-6.463-5.952-1.117-17.365z" style="fill:#403429"/><path d="M14.717 22.927s-.936.329-2.08 2.434c-1.06 6.59 4.095 9.948 4.095 9.948s-4.834-5.301-2.015-12.382z" style="fill:#403429"/><path d="M12.637 25.36c5.632-8.247 26.482-7.69 30.814-18.804C36.15 16.694 14.034 18.384 12.637 25.36z" style="fill:#2e2319"/><path d="M43.25 10.995s4.62 8.89 5.38 16.443c1.256-11.614-5.38-16.443-5.38-16.443z" style="fill:#635547"/><linearGradient id="k" x1="50.776" x2="59.946" y1="54.603" y2="54.603" gradientTransform="translate(-3.946 -1.626)" gradientUnits="userSpaceOnUse"><stop offset="0" style="stop-color:#3c454d"/><stop offset="1" style="stop-color:#555f69"/></linearGradient><path d="M53.909 42.875c-.179-.533-3.25-.233-5.938 1.083-1.328.651-1.13 19.371-1.13 19.371S56 63.217 56 60.742c0-8.68-1.596-16.39-2.092-17.867z" style="fill:url(#k)"/><path d="M42.925 34.046c-.758-1.11 2.23-1.928 2.723.02.199.789 8.358.58 9.01 1.745 1.172 2.091-1.518 6.219-1.123 7.068.393.849-5.488 2.183-5.373 1.115.378-3.5-1.375-2.176-2.126-5.12-.566-2.214-2.1-3.343-3.111-4.828z" style="fill:#ffd8b4"/><linearGradient id="l" x1="-300.438" x2="-298.535" y1="214.826" y2="214.826" gradientTransform="scale(-1 1) rotate(45 48.372 429.67)" gradientUnits="userSpaceOnUse"><stop offset=".236" style="stop-color:#b3c2c6"/><stop offset=".806" style="stop-color:#737e80"/></linearGradient><path d="m45.558 30.308 1.596 1.596-1.344 1.345-1.597-1.595z" style="fill:url(#l)"/><linearGradient id="m" x1="-300.667" x2="-298.305" y1="215.828" y2="215.828" gradientTransform="scale(-1 1) rotate(45 48.372 429.67)" gradientUnits="userSpaceOnUse"><stop offset="0" style="stop-color:#b3c2c6"/><stop offset=".176" style="stop-color:#9ca9ac"/><stop offset=".391" style="stop-color:#859194"/><stop offset=".589" style="stop-color:#788385"/><stop offset=".751" style="stop-color:#737e80"/></linearGradient><path d="M45.396 33.163c-.198-.2 1.471-1.87 1.67-1.67l.322.32c.2.199-1.471 1.87-1.67 1.67l-.322-.32z" style="fill:url(#m)"/><linearGradient id="n" x1="-287.943" x2="-284.467" y1="364.019" y2="364.019" gradientTransform="rotate(-45.001 -519.182 -203.61)" gradientUnits="userSpaceOnUse"><stop offset=".121" style="stop-color:#302c3b"/><stop offset=".619" style="stop-color:#45505b"/><stop offset=".891" style="stop-color:#4e5e67"/></linearGradient><path d="m48.689 32.327-2.458 2.458s-.166-.167-.543-1.237c-.123-.35 1.412-1.887 1.763-1.764 1.072.377 1.238.543 1.238.543z" style="fill:url(#n)"/><linearGradient id="o" x1="-287.943" x2="-284.467" y1="369.384" y2="369.384" gradientTransform="rotate(-45.001 -519.182 -203.61)" gradientUnits="userSpaceOnUse"><stop offset=".327" style="stop-color:#302c3b"/><stop offset=".55" style="stop-color:#383946"/><stop offset=".96" style="stop-color:#4c5a64"/><stop offset="1" style="stop-color:#4e5e67"/></linearGradient><path d="M54.809 38.447c.795.794-1.663 3.25-2.458 2.457L46.246 34.8c-.279-.278 2.178-2.738 2.456-2.459l6.107 6.107z" style="fill:url(#o)"/><linearGradient id="p" x1="-299.486" x2="-299.486" y1="214.102" y2="212.751" gradientTransform="scale(-1 1) rotate(45 48.372 429.67)" gradientUnits="userSpaceOnUse"><stop offset="0" style="stop-color:#b3c2c6"/><stop offset=".176" style="stop-color:#9ca9ac"/><stop offset=".391" style="stop-color:#859194"/><stop offset=".589" style="stop-color:#788385"/><stop offset=".751" style="stop-color:#737e80"/></linearGradient><path d="m45.201 29.626.656.655c.2.2-1.47 1.872-1.67 1.672l-.656-.656c-.2-.2 1.47-1.87 1.67-1.67z" style="fill:url(#p)"/><path d="m45.084 29.743.656.655-.091.093-.656-.657z" style="fill:#737e80"/><path d="M45.106 29.922h.13v.927h-.13z" style="fill:#737e80" transform="rotate(-45.001 45.171 30.386)"/><path d="m44.689 30.274.655.656-.092.093-.656-.656z" style="fill:#737e80"/><path d="M44.674 30.416h.13v.927h-.13z" style="fill:#737e80" transform="rotate(-44.944 44.739 30.88)"/><path d="M44.442 30.648h.13v.927h-.13z" style="fill:#737e80" transform="rotate(-44.944 44.507 31.113)"/><path d="M44.179 30.849h.131v.927h-.131z" style="fill:#737e80" transform="rotate(-44.984 44.242 31.313)"/><path d="M43.91 31.044h.13v.927h-.13z" style="fill:#737e80" transform="rotate(-44.996 43.972 31.506)"/><linearGradient id="q" x1="59.283" x2="59.283" y1="68.209" y2="52.994" gradientTransform="translate(-20.82 -36.044)" gradientUnits="userSpaceOnUse"><stop offset="0" style="stop-color:#fff;stop-opacity:0"/><stop offset="1" style="stop-color:#fff"/></linearGradient><path d="M43.842 29.938a7.608 7.608 0 1 0-10.758-10.76 7.608 7.608 0 0 0 10.758 10.76z" style="opacity:.65;fill:url(#q)"/><linearGradient id="r" x1="427.923" x2="439.944" y1="-1033.597" y2="-1045.618" gradientTransform="rotate(-45.001 1520.754 -30.133)" gradientUnits="userSpaceOnUse"><stop offset="0" style="stop-color:#737e80"/><stop offset="1" style="stop-color:#b3c2c6"/></linearGradient><path d="M32.453 18.548a8.5 8.5 0 1 0 12.02 12.02 8.5 8.5 0 0 0-12.02-12.02zm10.96 10.96a7.002 7.002 0 0 1-9.9-9.901 7.002 7.002 0 0 1 9.9 9.901z" style="fill:url(#r)"/><linearGradient id="s" x1="53.389" x2="65.177" y1="66.496" y2="54.708" gradientTransform="translate(-20.82 -36.044)" gradientUnits="userSpaceOnUse"><stop offset="0" style="stop-color:#cfd8dd"/><stop offset="1" style="stop-color:#e6ebed"/></linearGradient><path d="M44.358 18.665a8.336 8.336 0 1 0-11.789 11.788 8.336 8.336 0 0 0 11.789-11.788zm-.768 11.02a7.25 7.25 0 1 1-10.254-10.254 7.254 7.254 0 0 1 10.254 0 7.252 7.252 0 0 1 0 10.255z" style="opacity:.5;fill:url(#s)"/><path d="M50.06 31.538c1.521-.054 1.88 1.178 1.88 1.178 1.38.152 1.9 1.488 1.9 1.488 2.653 1.347-1.226 6.86-2.106 4.037-1.122 1.39-2.729.436-1.777-1.183-1.225 1.663-2.619-.185-1.925-1.212.261-.383.448-.859.754-1.298-1.269 1.67-2.504-.056-2.08-1.103.472-1.16 1.185-2.212 1.552-2.46.729-.491 1.606.195 1.802.553z" style="fill:#ffd8b4"/><path d="M47.004 34.91c1.327 1.51 2.69-1.726 2.733-2.36-.861 2.147-2.163 2.881-2.733 2.36zm1.196 2.472c1.327 1.512 2.938-1.663 3.315-3.524-1.15 3.333-2.745 4.048-3.316 3.524zm1.754 1.307c1.327 1.512 3.04-1.685 3.415-3.546-1.15 3.332-2.843 4.07-3.415 3.546z" style="fill:#deb38a"/><path d="M56 17.041c0 2.069-6.052 4.255-24 4.255-17.953 0-24-2.186-24-4.255 0-2.068 6.047-3.745 24-3.745 17.948 0 24 1.677 24 3.745z" style="fill:#555f69"/><radialGradient id="t" cx="132.369" cy="9.136" r="11.954" gradientTransform="matrix(1.0688 0 0 3 -109.476 -19.899)" gradientUnits="userSpaceOnUse"><stop offset="0" style="stop-color:#555f69"/><stop offset=".4" style="stop-color:#4e5862"/><stop offset="1" style="stop-color:#3c454d"/></radialGradient><path d="M48.178 12.529c.69 3.323-33.047 3.323-32.356 0C19.524-5.263 22.794 1.11 32 1.11c9.204 0 12.476-6.374 16.178 11.418z" style="fill:url(#t)"/><radialGradient id="u" cx="322.263" cy="657.882" r="3.725" fx="319.648" fy="657.933" gradientTransform="matrix(.9313 -.4907 .9043 1.5021 -852.78 -823.74)" gradientUnits="userSpaceOnUse"><stop offset="0" style="stop-color:#3c454d"/><stop offset="1" style="stop-color:#3c454d;stop-opacity:0"/></radialGradient><path d="M45.632 12.711C42.872 15.557 32.512 2.502 38.8.465c4.547-1.473 10.953 7.996 6.83 12.246z" style="fill:url(#u)"/><radialGradient id="v" cx="3058.171" cy="-653.788" r="3.725" fx="3055.556" fy="-653.737" gradientTransform="matrix(-.9313 -.4907 -.9043 1.5021 2278.694 2489.13)" gradientUnits="userSpaceOnUse"><stop offset="0" style="stop-color:#3c454d"/><stop offset="1" style="stop-color:#3c454d;stop-opacity:0"/></radialGradient><path d="M18.368 12.711C21.128 15.557 31.488 2.502 25.2.465c-4.547-1.473-10.953 7.996-6.83 12.246z" style="fill:url(#v)"/><path d="m15.822 12.529-.488 3.191c6.512 2.102 26.82 2.102 33.332 0l-.488-3.191c-6.315 2.103-26.043 2.103-32.356 0z" style="fill:#1a1626"/></svg>