<svg xmlns="http://www.w3.org/2000/svg" xml:space="preserve" viewBox="0 0 64 64"><linearGradient id="a" x1="-396.323" x2="-361.074" y1="209.08" y2="173.831" gradientTransform="rotate(19.999 272.343 1242.97)" gradientUnits="userSpaceOnUse"><stop offset="0" style="stop-color:#99a8ae"/><stop offset=".018" style="stop-color:#9baab0"/><stop offset=".264" style="stop-color:#b8c3c9"/><stop offset=".478" style="stop-color:#c9d3d8"/><stop offset=".636" style="stop-color:#cfd8dd"/></linearGradient><path fill="url(#a)" d="M33.646 24.919c-1.187 2.674-12.987 29.118-13.612 30.352-4.698 9.27-17.821 2.79-14.103-6.297C12.88 31.994 21.815 8.696 21.815 8.696c3.229-8.377 16.107-4.092 11.883 5.368-.98 2.193-11.206 28.318-11.671 29.399-2.823 6.56-11.483 2.776-9.053-3.042 1.645-3.938 3.948-7.096 8.491-19.407-.442-.376-1.499-.823-2.091-.74-4.528 12.272-6.814 15.398-8.474 19.363-3.707 8.865 9.105 14.138 13.188 4.633.485-1.118 10.705-27.229 11.662-29.372C40.93 3.307 24.19-3.633 19.718 7.973c0 0-8.927 23.275-15.866 40.234C-.98 60.008 16.068 67.995 22.038 56.2c.658-1.297 12.48-27.789 13.66-30.449-1.217-.75-2.045-.831-2.052-.832z"/><linearGradient id="b" x1="-300.778" x2="-265.478" y1="980.581" y2="945.281" gradientTransform="rotate(160.001 -37.23 526.236)" gradientUnits="userSpaceOnUse"><stop offset="0" style="stop-color:#99a8ae"/><stop offset="1" style="stop-color:#cfd8dd"/></linearGradient><path fill="url(#b)" d="M38.835 46.047c-.81-2.815-8.767-30.697-9.08-32.044C27.396 3.869 41.61.392 44.602 9.753c5.592 17.499 13.72 41.123 13.72 41.123 2.91 8.505-9.707 13.506-12.551 3.531-.658-2.313-9.615-28.936-9.955-30.064-2.053-6.848 7.012-9.521 8.89-3.494 1.271 4.081 1.536 7.985 5.969 20.353.582.003 1.679-.333 2.076-.778-4.418-12.33-4.676-16.2-5.952-20.308-2.858-9.188-16.059-4.983-13.079 4.936.349 1.17 9.301 27.778 9.946 30.038 3.482 12.222 20.762 6.773 16.729-5.009 0 0-8.122-23.599-13.705-41.077-3.885-12.162-22.076-7.316-19.068 5.576.33 1.419 8.301 29.349 9.107 32.149 1.414-.208 2.1-.68 2.106-.682z"/><linearGradient id="c" x1="-410.638" x2="-375.388" y1="194.766" y2="159.516" gradientTransform="rotate(19.999 272.342 1242.969)" gradientUnits="userSpaceOnUse"><stop offset="0" style="stop-color:#99a8ae"/><stop offset=".018" style="stop-color:#9baab0"/><stop offset=".264" style="stop-color:#b8c3c9"/><stop offset=".478" style="stop-color:#c9d3d8"/><stop offset=".636" style="stop-color:#cfd8dd"/></linearGradient><path fill="url(#c)" d="M22.349 7.587c2.77-4.86 9.362-4.09 11.504 0h2.316c-2.502-6.432-12.718-8.378-16.281 0h2.461z"/></svg>