<svg xmlns="http://www.w3.org/2000/svg" xml:space="preserve" style="enable-background:new 0 0 64 64" viewBox="0 0 64 64"><radialGradient id="a" cx="145.085" cy="4.837" r="23.778" gradientTransform="matrix(1.1763 -.0273 .0484 1.4643 -136.024 24.626)" gradientUnits="userSpaceOnUse"><stop offset=".449" style="stop-color:#ffd8b4"/><stop offset=".702" style="stop-color:#fdd6b2"/><stop offset=".824" style="stop-color:#f7cfaa"/><stop offset=".917" style="stop-color:#edc49d"/><stop offset=".997" style="stop-color:#dfb48b"/><stop offset="1" style="stop-color:#deb38a"/></radialGradient><path d="M52.3 33.6c-.96-3.95-5.33-4.48-7.17-3.4-.24-4.13-7.09-5.01-8.49-2.85V4.95c0-5.7-9.19-5.47-9.19 0v21.59c-3.58-1.23-7.66.61-7.93 3.56-.11 1.22-.47 4.61-.5 5.72-3.77 1.52-9.44 2.75-8.04 6.43 1.86 4.9 3.05 10.61 6.7 12.15 4.07 1.72 5.91 3.83 5.91 6.32 0 4.59 22.94 4.18 22.94-.07-.01-12.23 10.15-9.03 5.77-27.05z" style="fill:url(#a)"/><path d="M53.04 33.42c-.45-1.84-1.63-3.25-3.33-3.97-1.3-.55-2.79-.65-4-.31-.49-1.62-1.94-2.86-4.03-3.42-1.4-.38-3.05-.39-4.28.12V4.95c0-3.4-2.74-4.95-5.28-4.95-2.7 0-5.43 1.7-5.43 4.95v20.6c-1.97-.39-4.06-.04-5.65.99-1.34.87-2.15 2.11-2.27 3.49-.03.31-.07.77-.13 1.3-.13 1.28-.29 2.95-.35 3.96-.47.18-.97.36-1.47.54-2.76 1-5.61 2.03-6.53 4.02-.38.82-.39 1.72-.02 2.68.45 1.19.84 2.44 1.21 3.65 1.21 3.92 2.83 7.63 5.9 8.93 3.69 1.56 6.2 3.3 6.2 5.62 0-2.35-.89-5.02-5.62-7.02-2.42-1.02-3.93-4.4-5.04-7.97-.38-1.24-.78-2.51-1.24-3.74-.22-.57-.22-1.06-.02-1.5.65-1.41 3.31-2.37 5.67-3.22.68-.25 1.35-.49 1.97-.74l.46-.19.01-.5c.02-.79.22-2.86.37-4.37l.13-1.29c.08-.91.65-1.74 1.59-2.35 1.47-.95 3.56-1.17 5.34-.56l1 .35V4.95c0-2.36 2.03-3.43 3.91-3.43 1.88 0 3.77 1.06 3.77 3.43V29.9l1.39-2.14c.44-.68 2.16-1.07 4.01-.57.69.18 2.97.95 3.09 3.05l.07 1.24 1.07-.63c.75-.44 2.22-.59 3.6 0 .88.37 2.03 1.19 2.45 2.93 2.56 10.54-.89 13.5-2.5 16.92-1.07 2.29-2.54 4.88-2.54 9.95 0-4.73 2.86-7.06 3.92-9.3 1.66-3.53 5.28-6.87 2.6-17.93z" style="fill:#cfa47c"/><path d="M19.83 35.42c0 2.72.55 6.19-2.77 10.58 2.29-5.83 1.01-7.56 1.21-10.17.03-.38 1.56-.78 1.56-.41zm7.43-3.29c.6-3.18-.6-2.71-.59-5.92 0-.38 1.58.05 1.58.42.02 2.73.24 3.12-.99 5.5zm9.56-.23c-.65-2.8.62-2.91.62-5.35 0-.38-1.58-.31-1.62.07-.12 1.09-.56 2.48 1 5.28zm8.3 3.4c-.65-3.04.77-2.63.92-5.76.02-.38-1.68-.8-1.62-.43.37 2.18-1.2 3.47.7 6.19z" style="fill:#cfa47c"/><path d="M29.26 6.59c-.12-.7-.23-2.12-.15-2.62.32-2.24 5.53-2.22 5.84 0 .08.56-.01 2.06-.17 2.77-.47 2.12-5.15 2.03-5.52-.15z" style="opacity:.3;fill:#fff"/></svg>