<svg xmlns="http://www.w3.org/2000/svg" xml:space="preserve" viewBox="0 0 64 64"><path fill="#748288" d="M34.779 3.11c0 .661-5.555.661-5.555 0 0-1.48 5.555-1.48 5.555 0z"/><radialGradient id="a" cx="35.306" cy="32.401" r="27.752" gradientTransform="matrix(1.0088 0 0 1.5 -3.616 -16.2)" gradientUnits="userSpaceOnUse"><stop offset="0" style="stop-color:#dfe6e8"/><stop offset=".171" style="stop-color:#dae1e3"/><stop offset=".375" style="stop-color:#cbd4d6"/><stop offset=".596" style="stop-color:#b3bdc1"/><stop offset=".827" style="stop-color:#929ea3"/><stop offset="1" style="stop-color:#748288"/></radialGradient><path fill="url(#a)" d="M51.947 14.243C44.951 9.803 40.963 2.803 32 2.803c-8.961 0-12.95 7-19.946 11.44-8.804 5.587-6.95 14.912-1.147 19.607C23.37 43.931 16.777 62 32 62c15.223 0 8.631-18.069 21.094-28.15 5.802-4.695 7.656-14.02-1.147-19.607z"/><path fill="#748288" d="M19.612 39.628h-.016a.504.504 0 0 1-.436-.284c-1.262-2.635-3.482-4.485-5.443-6.117-.818-.683-1.592-1.327-2.268-1.996-2.5-2.479-3.641-5.64-3.127-8.673.408-2.414 2.076-5.856 7.703-8.548a.498.498 0 0 1 .699.58c-1.291 4.829.475 8.826 2.18 12.692 1.799 4.075 3.498 7.924 1.143 12.092a.498.498 0 0 1-.435.254z"/><linearGradient id="b" x1="8.704" x2="20.697" y1="26.794" y2="26.794" gradientUnits="userSpaceOnUse"><stop offset="0" style="stop-color:#b6c5cc"/><stop offset=".357" style="stop-color:#ccd8dd"/><stop offset=".707" style="stop-color:#dbe5e7"/><stop offset="1" style="stop-color:#e0e9eb"/></linearGradient><path fill="url(#b)" d="M16.241 14.461c-2.723 10.193 7.75 16.917 3.371 24.667-1.832-3.824-5.496-5.959-7.811-8.253-4.353-4.315-5.142-11.831 4.44-16.414z"/><path fill="#748288" d="M43.953 39.374c-2.355-4.168-.656-8.017 1.143-12.092 1.705-3.866 3.471-7.863 2.18-12.692a.498.498 0 0 1 .699-.58c5.627 2.691 7.295 6.134 7.703 8.548.514 3.033-.627 6.194-3.127 8.673-.676.669-1.449 1.313-2.268 1.996-1.961 1.632-4.182 3.482-5.443 6.117a.504.504 0 0 1-.436.284h-.016a.5.5 0 0 1-.435-.254z"/><linearGradient id="c" x1="101.998" x2="113.991" y1="26.794" y2="26.794" gradientTransform="matrix(-1 0 0 1 157.295 0)" gradientUnits="userSpaceOnUse"><stop offset="0" style="stop-color:#b6c5cc"/><stop offset=".357" style="stop-color:#ccd8dd"/><stop offset=".707" style="stop-color:#dbe5e7"/><stop offset="1" style="stop-color:#e0e9eb"/></linearGradient><path fill="url(#c)" d="M47.76 14.461c2.723 10.193-7.75 16.917-3.371 24.667 1.832-3.824 5.496-5.959 7.811-8.253 4.353-4.315 5.142-11.831-4.44-16.414z"/><radialGradient id="d" cx="39.135" cy="32.185" r="21.906" gradientTransform="matrix(1.0154 0 0 5 -7.737 -128.738)" gradientUnits="userSpaceOnUse"><stop offset="0" style="stop-color:#b8bebf"/><stop offset=".011" style="stop-color:#b6bcbd"/><stop offset=".186" style="stop-color:#969ea0"/><stop offset=".368" style="stop-color:#7d878a"/><stop offset=".558" style="stop-color:#6c767a"/><stop offset=".761" style="stop-color:#616c71"/><stop offset="1" style="stop-color:#5e696e"/></radialGradient><path fill="url(#d)" d="M40.049 35.115c1.133-7.833 5.461-10.65 5.461-17.606 0-7.346-6.045-13.302-13.506-13.302s-13.51 5.956-13.51 13.302c0 6.956 4.328 9.773 5.459 17.606.854 5.9-1.697 10.371-.85 16.285.689 4.791 3.987 8.762 8.901 8.762 4.915 0 8.208-3.971 8.895-8.762.849-5.914-1.702-10.384-.85-16.285z"/><linearGradient id="e" x1="32.002" x2="32.002" y1="29.635" y2="5.384" gradientUnits="userSpaceOnUse"><stop offset="0" style="stop-color:#b8bebf"/><stop offset=".011" style="stop-color:#b6bcbd"/><stop offset=".186" style="stop-color:#969ea0"/><stop offset=".368" style="stop-color:#7d878a"/><stop offset=".558" style="stop-color:#6c767a"/><stop offset=".761" style="stop-color:#616c71"/><stop offset="1" style="stop-color:#5e696e"/></linearGradient><ellipse cx="32.001" cy="17.509" fill="url(#e)" rx="12.313" ry="12.126"/><ellipse cx="32.001" cy="15.642" fill="#444C4F" rx="9.756" ry="9.607"/><radialGradient id="f" cx="36.905" cy="13.04" r="10.664" gradientTransform="matrix(1.0154 0 0 1 -7.737 0)" gradientUnits="userSpaceOnUse"><stop offset="0" style="stop-color:#ff000e"/><stop offset=".18" style="stop-color:#fa000d"/><stop offset=".405" style="stop-color:#ea000b"/><stop offset=".653" style="stop-color:#d10007"/><stop offset=".916" style="stop-color:#ae0002"/><stop offset="1" style="stop-color:#a10000"/></radialGradient><ellipse cx="32.001" cy="15.642" fill="url(#f)" rx="9.18" ry="9.04"/><radialGradient id="g" cx="-422.719" cy="1238.266" r="9.342" fx="-416.087" fy="1238.248" gradientTransform="matrix(-.7069 -.7128 .9054 -.8836 -1388.18 808.933)" gradientUnits="userSpaceOnUse"><stop offset="0" style="stop-color:#fff;stop-opacity:.6"/><stop offset=".673" style="stop-color:#fff;stop-opacity:0"/></radialGradient><path fill="url(#g)" d="M32.001 24.682c5.075 0 9.18-3.941 9.18-8.974 0-5.028-4.105-9.107-9.18-9.107-5.071 0-9.18 4.079-9.18 9.107 0 5.032 4.11 8.974 9.18 8.974z"/></svg>