<svg xmlns="http://www.w3.org/2000/svg" xml:space="preserve" viewBox="0 0 64 64"><linearGradient id="a" x1="32.001" x2="32.001" y1="62" y2="2.001" gradientUnits="userSpaceOnUse"><stop offset=".97" style="stop-color:#6e8189"/><stop offset=".97" style="stop-color:#6f828a"/><stop offset=".988" style="stop-color:#849299"/><stop offset="1" style="stop-color:#8b989e"/></linearGradient><path fill="url(#a)" d="M53 61c0 .549-.45 1-1 1H12c-.55 0-1-.451-1-1V3c0-.551.45-1 1-1h40c.55 0 1 .449 1 1v58z"/><path fill="#302C3B" d="M50 29c0 .549-.451 1-1 1H15c-.551 0-1-.451-1-1V6c0-.551.449-1 1-1h34c.549 0 1 .449 1 1v23z"/><linearGradient id="b" x1="32.001" x2="32.001" y1="29.5" y2="5.5" gradientUnits="userSpaceOnUse"><stop offset=".952" style="stop-color:#6e8189"/><stop offset=".953" style="stop-color:#6f828a"/><stop offset=".981" style="stop-color:#849299"/><stop offset="1" style="stop-color:#8b989e"/></linearGradient><path fill="url(#b)" d="M49.5 29c0 .275-.225.5-.5.5H15a.501.501 0 0 1-.5-.5V6c0-.275.225-.5.5-.5h34c.275 0 .5.225.5.5v23z"/><linearGradient id="c" x1="32.001" x2="32.001" y1="16" y2="9" gradientUnits="userSpaceOnUse"><stop offset="0" style="stop-color:#7e8a8f"/><stop offset="1" style="stop-color:#cfd8dd"/></linearGradient><path fill="url(#c)" d="M37.5 15c0 .549-.451 1-1 1h-9c-.551 0-1-.451-1-1v-5c0-.551.449-1 1-1h9c.549 0 1 .449 1 1v5z"/><linearGradient id="d" x1="32.001" x2="32.001" y1="15.5" y2="9.5" gradientUnits="userSpaceOnUse"><stop offset=".751" style="stop-color:#fff"/><stop offset=".812" style="stop-color:#fbfcfc"/><stop offset=".87" style="stop-color:#f0f1f2"/><stop offset=".927" style="stop-color:#dce0e2"/><stop offset=".984" style="stop-color:#c1c7cc"/><stop offset="1" style="stop-color:#b8bfc4"/></linearGradient><path fill="url(#d)" d="M37 15c0 .275-.225.5-.5.5h-9a.501.501 0 0 1-.5-.5v-5c0-.275.225-.5.5-.5h9c.275 0 .5.225.5.5v5z"/><linearGradient id="e" x1="32" x2="32" y1="26.214" y2="22.428" gradientUnits="userSpaceOnUse"><stop offset=".121" style="stop-color:#1a1626;stop-opacity:0"/><stop offset="1" style="stop-color:#1a1626;stop-opacity:.2"/></linearGradient><path fill="url(#e)" d="M38.761 23.887a10.98 10.98 0 0 1-13.521 0c-.319-.258-.319-1.684 0-1.428a10.98 10.98 0 0 0 13.521 0c.318-.256.318 1.17 0 1.428z"/><radialGradient id="f" cx="32" cy="22.981" r="6.898" gradientTransform="matrix(1 0 0 .5 0 11.49)" gradientUnits="userSpaceOnUse"><stop offset=".533" style="stop-color:#cfd8dd"/><stop offset=".609" style="stop-color:#cad4d9"/><stop offset=".693" style="stop-color:#bdc7cd"/><stop offset=".78" style="stop-color:#a7b2b8"/><stop offset=".871" style="stop-color:#88949c"/><stop offset=".964" style="stop-color:#606f77"/><stop offset="1" style="stop-color:#4e5e67"/></radialGradient><path fill="url(#f)" d="M38.728 23.695H25.272c-.363 0-.363-1.428 0-1.428h13.455c.363.001.363 1.428.001 1.428z"/><path fill="#302C3B" d="M50 58c0 .549-.451 1-1 1H15c-.551 0-1-.451-1-1V35c0-.551.449-1 1-1h34c.549 0 1 .449 1 1v23z"/><linearGradient id="g" x1="32.001" x2="32.001" y1="58.5" y2="34.5" gradientUnits="userSpaceOnUse"><stop offset=".952" style="stop-color:#6e8189"/><stop offset=".953" style="stop-color:#6f828a"/><stop offset=".981" style="stop-color:#849299"/><stop offset="1" style="stop-color:#8b989e"/></linearGradient><path fill="url(#g)" d="M49.5 58c0 .275-.225.5-.5.5H15a.501.501 0 0 1-.5-.5V35c0-.275.225-.5.5-.5h34c.275 0 .5.225.5.5v23z"/><linearGradient id="h" x1="32.001" x2="32.001" y1="45" y2="38" gradientUnits="userSpaceOnUse"><stop offset="0" style="stop-color:#7e8a8f"/><stop offset="1" style="stop-color:#cfd8dd"/></linearGradient><path fill="url(#h)" d="M37.5 44c0 .549-.451 1-1 1h-9c-.551 0-1-.451-1-1v-5c0-.551.449-1 1-1h9c.549 0 1 .449 1 1v5z"/><linearGradient id="i" x1="32.001" x2="32.001" y1="44.5" y2="38.5" gradientUnits="userSpaceOnUse"><stop offset=".751" style="stop-color:#fff"/><stop offset=".812" style="stop-color:#fbfcfc"/><stop offset=".87" style="stop-color:#f0f1f2"/><stop offset=".927" style="stop-color:#dce0e2"/><stop offset=".984" style="stop-color:#c1c7cc"/><stop offset="1" style="stop-color:#b8bfc4"/></linearGradient><path fill="url(#i)" d="M37 44c0 .275-.225.5-.5.5h-9a.501.501 0 0 1-.5-.5v-5c0-.275.225-.5.5-.5h9c.275 0 .5.225.5.5v5z"/><linearGradient id="j" x1="32" x2="32" y1="55.215" y2="51.429" gradientUnits="userSpaceOnUse"><stop offset=".121" style="stop-color:#1a1626;stop-opacity:0"/><stop offset="1" style="stop-color:#1a1626;stop-opacity:.2"/></linearGradient><path fill="url(#j)" d="M38.761 52.887a10.98 10.98 0 0 1-13.521 0c-.319-.258-.319-1.684 0-1.428a10.98 10.98 0 0 0 13.521 0c.318-.256.318 1.17 0 1.428z"/><radialGradient id="k" cx="32" cy="51.981" r="6.898" gradientTransform="matrix(1 0 0 .5 0 25.99)" gradientUnits="userSpaceOnUse"><stop offset=".533" style="stop-color:#cfd8dd"/><stop offset=".609" style="stop-color:#cad4d9"/><stop offset=".693" style="stop-color:#bdc7cd"/><stop offset=".78" style="stop-color:#a7b2b8"/><stop offset=".871" style="stop-color:#88949c"/><stop offset=".964" style="stop-color:#606f77"/><stop offset="1" style="stop-color:#4e5e67"/></radialGradient><path fill="url(#k)" d="M38.728 52.695H25.272c-.363 0-.363-1.428 0-1.428h13.455c.363.001.363 1.428.001 1.428z"/></svg>