<svg xmlns="http://www.w3.org/2000/svg" xml:space="preserve" viewBox="0 0 64 64"><path fill="#717B80" d="M41.547 60.443H51.94c.307 0 .506-.336.506-.75s-.199-.75-.506-.75H41.547v1.5z"/><path fill="#A2ABAE" d="M51.889 59.693c0 1.996 1.111 2.004 1.111 0 0-1.998-1.111-2.004-1.111 0z"/><path fill="#717B80" d="M38.455 60.443H28.062c-.307 0-.506-.336-.506-.75s.199-.75.506-.75h10.393v1.5z"/><path fill="#A2ABAE" d="M28.113 59.693c0 1.996-1.113 2.004-1.113 0 0-1.998 1.113-2.004 1.113 0z"/><linearGradient id="a" x1="-438.207" x2="-432.67" y1="-54.379" y2="-54.379" gradientTransform="matrix(-1 0 0 1 -395.44 98.585)" gradientUnits="userSpaceOnUse"><stop offset=".248" style="stop-color:#6e787a"/><stop offset=".709" style="stop-color:#d6dbde"/><stop offset=".756" style="stop-color:#cfd5d7"/><stop offset=".824" style="stop-color:#bcc3c5"/><stop offset=".903" style="stop-color:#9da5a7"/><stop offset=".992" style="stop-color:#727c7e"/><stop offset="1" style="stop-color:#6e787a"/></linearGradient><path fill="url(#a)" d="M37.465 30.742h5.072V57.67h-5.072z"/><linearGradient id="b" x1="-435.373" x2="-435.51" y1="-63.865" y2="-65.819" gradientTransform="matrix(-1 0 0 1 -395.44 98.585)" gradientUnits="userSpaceOnUse"><stop offset="0" style="stop-color:#3b4042"/><stop offset=".009" style="stop-color:#3c4143"/><stop offset=".328" style="stop-color:#696f72"/><stop offset=".611" style="stop-color:#8a9094"/><stop offset=".845" style="stop-color:#9ea5a9"/><stop offset="1" style="stop-color:#a5acb0"/></linearGradient><path fill="url(#b)" d="m37.465 34.131 5.072.771c.172.002.172-1.545 0-1.545l-5.072-.773c-.172 0-.172 1.547 0 1.547z"/><linearGradient id="c" x1="-435.373" x2="-435.509" y1="-61.634" y2="-63.586" gradientTransform="matrix(-1 0 0 1 -395.44 98.585)" gradientUnits="userSpaceOnUse"><stop offset="0" style="stop-color:#3b4042"/><stop offset=".009" style="stop-color:#3c4143"/><stop offset=".328" style="stop-color:#696f72"/><stop offset=".611" style="stop-color:#8a9094"/><stop offset=".845" style="stop-color:#9ea5a9"/><stop offset="1" style="stop-color:#a5acb0"/></linearGradient><path fill="url(#c)" d="m37.465 36.361 5.07.771c.174.002.174-1.545.002-1.545l-5.072-.771c-.172-.003-.172 1.545 0 1.545z"/><linearGradient id="d" x1="-435.373" x2="-435.509" y1="-59.402" y2="-61.358" gradientTransform="matrix(-1 0 0 1 -395.44 98.585)" gradientUnits="userSpaceOnUse"><stop offset="0" style="stop-color:#3b4042"/><stop offset=".009" style="stop-color:#3c4143"/><stop offset=".328" style="stop-color:#696f72"/><stop offset=".611" style="stop-color:#8a9094"/><stop offset=".845" style="stop-color:#9ea5a9"/><stop offset="1" style="stop-color:#a5acb0"/></linearGradient><path fill="url(#d)" d="m37.465 38.592 5.07.773c.174 0 .174-1.545 0-1.545l-5.07-.775c-.172.002-.172 1.545 0 1.547z"/><linearGradient id="e" x1="-435.372" x2="-435.509" y1="-57.171" y2="-59.127" gradientTransform="matrix(-1 0 0 1 -395.44 98.585)" gradientUnits="userSpaceOnUse"><stop offset="0" style="stop-color:#3b4042"/><stop offset=".009" style="stop-color:#3c4143"/><stop offset=".328" style="stop-color:#696f72"/><stop offset=".611" style="stop-color:#8a9094"/><stop offset=".845" style="stop-color:#9ea5a9"/><stop offset="1" style="stop-color:#a5acb0"/></linearGradient><path fill="url(#e)" d="m37.465 40.822 5.07.773c.174.002.174-1.547 0-1.547l-5.07-.773c-.172 0-.172 1.547 0 1.547z"/><linearGradient id="f" x1="-435.371" x2="-435.508" y1="-50.939" y2="-52.895" gradientTransform="matrix(-1 0 0 1 -395.44 98.585)" gradientUnits="userSpaceOnUse"><stop offset="0" style="stop-color:#3b4042"/><stop offset=".009" style="stop-color:#3c4143"/><stop offset=".328" style="stop-color:#696f72"/><stop offset=".611" style="stop-color:#8a9094"/><stop offset=".845" style="stop-color:#9ea5a9"/><stop offset="1" style="stop-color:#a5acb0"/></linearGradient><path fill="url(#f)" d="m37.463 47.053 5.072.775c.172-.002.174-1.547 0-1.547l-5.072-.773c-.172 0-.172 1.545 0 1.545z"/><linearGradient id="g" x1="-435.371" x2="-435.507" y1="-48.708" y2="-50.664" gradientTransform="matrix(-1 0 0 1 -395.44 98.585)" gradientUnits="userSpaceOnUse"><stop offset="0" style="stop-color:#3b4042"/><stop offset=".009" style="stop-color:#3c4143"/><stop offset=".328" style="stop-color:#696f72"/><stop offset=".611" style="stop-color:#8a9094"/><stop offset=".845" style="stop-color:#9ea5a9"/><stop offset="1" style="stop-color:#a5acb0"/></linearGradient><path fill="url(#g)" d="m37.463 49.285 5.072.773c.172-.004.172-1.547 0-1.547l-5.072-.773c-.172 0-.172 1.545 0 1.547z"/><linearGradient id="h" x1="-435.371" x2="-435.507" y1="-46.48" y2="-48.432" gradientTransform="matrix(-1 0 0 1 -395.44 98.585)" gradientUnits="userSpaceOnUse"><stop offset="0" style="stop-color:#3b4042"/><stop offset=".009" style="stop-color:#3c4143"/><stop offset=".328" style="stop-color:#696f72"/><stop offset=".611" style="stop-color:#8a9094"/><stop offset=".845" style="stop-color:#9ea5a9"/><stop offset="1" style="stop-color:#a5acb0"/></linearGradient><path fill="url(#h)" d="m37.463 51.518 5.072.77c.172.002.172-1.543 0-1.543l-5.072-.773c-.172-.001-.172 1.544 0 1.546z"/><linearGradient id="i" x1="-435.371" x2="-435.508" y1="-44.248" y2="-46.203" gradientTransform="matrix(-1 0 0 1 -395.44 98.585)" gradientUnits="userSpaceOnUse"><stop offset="0" style="stop-color:#3b4042"/><stop offset=".009" style="stop-color:#3c4143"/><stop offset=".328" style="stop-color:#696f72"/><stop offset=".611" style="stop-color:#8a9094"/><stop offset=".845" style="stop-color:#9ea5a9"/><stop offset="1" style="stop-color:#a5acb0"/></linearGradient><path fill="url(#i)" d="m37.463 53.744 5.072.775c.174 0 .172-1.547 0-1.545l-5.072-.775c-.172.002-.172 1.545 0 1.545z"/><linearGradient id="j" x1="-435.371" x2="-435.507" y1="-42.017" y2="-43.971" gradientTransform="matrix(-1 0 0 1 -395.44 98.585)" gradientUnits="userSpaceOnUse"><stop offset="0" style="stop-color:#3b4042"/><stop offset=".009" style="stop-color:#3c4143"/><stop offset=".328" style="stop-color:#696f72"/><stop offset=".611" style="stop-color:#8a9094"/><stop offset=".845" style="stop-color:#9ea5a9"/><stop offset="1" style="stop-color:#a5acb0"/></linearGradient><path fill="url(#j)" d="m37.463 55.977 5.072.773c.172 0 .172-1.547 0-1.547l-5.072-.771c-.172-.002-.172 1.545 0 1.545z"/><linearGradient id="k" x1="36" x2="44" y1="28.932" y2="28.932" gradientUnits="userSpaceOnUse"><stop offset="0" style="stop-color:#d6dbde"/><stop offset=".167" style="stop-color:#ccd2d5"/><stop offset=".445" style="stop-color:#b3b9bc"/><stop offset=".799" style="stop-color:#899194"/><stop offset="1" style="stop-color:#6e787a"/></linearGradient><path fill="url(#k)" d="M36 27.988h8v1.887h-8z"/><path fill="#717B80" d="m36 29.875 1.465 1.867h5.072L44 29.875z"/><linearGradient id="l" x1="28" x2="28" y1="-8.299" y2="48.014" gradientUnits="userSpaceOnUse"><stop offset="0" style="stop-color:#565e61"/><stop offset=".558" style="stop-color:#c4ccd1"/><stop offset=".627" style="stop-color:#bec6cb"/><stop offset=".72" style="stop-color:#aeb6bb"/><stop offset=".824" style="stop-color:#939b9f"/><stop offset=".937" style="stop-color:#6e7679"/><stop offset="1" style="stop-color:#565e61"/></linearGradient><path fill="url(#l)" d="M43.865 41.1H23.467c-.777 0-1.133-.311-1.133-1.148v-29.9c0-.84.355-1.15 1.133-1.15h20.355V8.4C39.527 8.139 38.588 2 26.816 2c-21.074 0-21.102 46 0 46 6.375 0 8.051-3.461 11.916-2.439.313.082.633.141.955.141h4.18c.625 0 1.133-.516 1.133-1.15v-2.297c0-.638-.508-1.155-1.135-1.155z"/><linearGradient id="m" x1="35.539" x2="44.463" y1="59.692" y2="59.692" gradientUnits="userSpaceOnUse"><stop offset="0" style="stop-color:#d6dbde"/><stop offset=".167" style="stop-color:#ccd2d5"/><stop offset=".445" style="stop-color:#b3b9bc"/><stop offset=".799" style="stop-color:#899194"/><stop offset="1" style="stop-color:#6e787a"/></linearGradient><path fill="url(#m)" d="M35.539 57.885V61.5a.5.5 0 0 0 .5.5h7.924a.5.5 0 0 0 .5-.5v-3.615c0-.275-.225-.5-.5-.5h-7.924a.5.5 0 0 0-.5.5z"/><linearGradient id="n" x1="12.341" x2="21.418" y1="25" y2="25" gradientUnits="userSpaceOnUse"><stop offset="0" style="stop-color:#565e61"/><stop offset=".315" style="stop-color:#7d8588"/><stop offset=".775" style="stop-color:#b0b8bd"/><stop offset="1" style="stop-color:#c4ccd1"/></linearGradient><path fill="url(#n)" d="M20.621 8.113c.01-1.033-1.463-1.516-2.184-.707-7.643 8.561-7.771 26.412.061 35.195.713.799 2.172.314 2.168-.707-.041-9.74-.17-19.861-.045-33.781z"/><linearGradient id="o" x1="33.516" x2="33.516" y1="48.25" y2="2.445" gradientUnits="userSpaceOnUse"><stop offset="0" style="stop-color:#565e61"/><stop offset=".558" style="stop-color:#a9b1b5"/><stop offset=".641" style="stop-color:#a3abaf"/><stop offset=".751" style="stop-color:#939b9f"/><stop offset=".876" style="stop-color:#788083"/><stop offset="1" style="stop-color:#565e61"/></linearGradient><path fill="url(#o)" d="M44 8.4H23.529c-1.084 0-1.635.555-1.635 1.65v29.9c0 1.094.551 1.648 1.635 1.648H35.56c.865 0 1.904-.004 1.904-.004v-.5s-1.039-.496-1.904-.496H23.529c-.499 0-.635-.08-.635-.648v-29.9c0-.568.136-.65.635-.65h10.449l1.75 1.299H44c1.516 0 1.516-2.299 0-2.299z"/></svg>