<svg xmlns="http://www.w3.org/2000/svg" xml:space="preserve" viewBox="0 0 64 64"><path fill="#E6EBEF" d="M7 5h50v54H7z"/><path fill="#CFD8DD" d="M7 59h50v3H7z"/><path fill="#99A8AE" d="M7 60.871v.66l50-.328zm0-1.402v.664l50-.33z"/><path fill="#BAD6E6" d="M7 14.34h50v.301H7zm0 3.418h50v.301H7zm0 3.419h50v.301H7zm0 3.418h50v.301H7zm0 3.418h50v.301H7zm0 3.419h50v.301H7zm0 3.418h50v.301H7zm0 3.418h50v.301H7zm0 3.419h50v.301H7zm0 3.417h50v.301H7zm0 3.418h50v.301H7zm0 3.419h50v.301H7zm0 3.418h50v.301H7z"/><linearGradient id="a" x1="46.188" x2="53.567" y1="48.81" y2="58.128" gradientUnits="userSpaceOnUse"><stop offset="0" style="stop-color:#717b80"/><stop offset=".115" style="stop-color:#889499"/><stop offset=".261" style="stop-color:#a0adb2"/><stop offset=".394" style="stop-color:#aebdc1"/><stop offset=".5" style="stop-color:#b3c2c6"/><stop offset="1" style="stop-color:#b3c2c6;stop-opacity:0"/></linearGradient><path fill="url(#a)" d="M37.029 59s13.875 1.523 19.955-7.415V40.688S56.967 54.029 37.029 59z"/><linearGradient id="b" x1="51.765" x2="46.247" y1="54.098" y2="48.58" gradientUnits="userSpaceOnUse"><stop offset="0" style="stop-color:#b8bfc4"/><stop offset=".065" style="stop-color:#c1c7cc"/><stop offset=".292" style="stop-color:#dce0e2"/><stop offset=".522" style="stop-color:#f0f1f2"/><stop offset=".756" style="stop-color:#fbfcfc"/><stop offset="1" style="stop-color:#fff"/></linearGradient><path fill="url(#b)" d="M56.984 39.679C56.984 51.601 50.48 59 37.029 59c0 0 9.219-2.353 9.219-10.423 11.637 0 10.736-8.898 10.736-8.898z"/><path fill="#302C3B" d="M15.682 8.106c0 2.33-3.5 2.33-3.5 0 0-2.335 3.5-2.335 3.5 0z"/><radialGradient id="c" cx="15.682" cy="-15.983" r="2.663" gradientTransform="matrix(.9669 0 0 1.2567 -1.232 25.587)" gradientUnits="userSpaceOnUse"><stop offset="0" style="stop-color:#e5eaee"/><stop offset=".2" style="stop-color:#ced7dc"/><stop offset=".5" style="stop-color:#b3c2c6"/><stop offset="1" style="stop-color:#717b80"/></radialGradient><path fill="url(#c)" d="M13.931 2a1 1 0 0 0-.999 1.001v5a1 1 0 0 0 2 0v-5A1 1 0 0 0 13.931 2z"/><path fill="#302C3B" d="M24.716 8.106c0 2.33-3.5 2.33-3.5 0 0-2.335 3.5-2.335 3.5 0z"/><radialGradient id="d" cx="25.025" cy="-15.983" r="2.663" gradientTransform="matrix(.9669 0 0 1.2567 -1.232 25.587)" gradientUnits="userSpaceOnUse"><stop offset="0" style="stop-color:#e5eaee"/><stop offset=".2" style="stop-color:#ced7dc"/><stop offset=".5" style="stop-color:#b3c2c6"/><stop offset="1" style="stop-color:#717b80"/></radialGradient><path fill="url(#d)" d="M22.965 2a1 1 0 0 0-.999 1.001v5a1 1 0 0 0 2 0v-5A1 1 0 0 0 22.965 2z"/><path fill="#302C3B" d="M33.75 8.106c0 2.33-3.5 2.33-3.5 0 0-2.335 3.5-2.335 3.5 0z"/><radialGradient id="e" cx="34.368" cy="-15.983" r="2.663" gradientTransform="matrix(.9669 0 0 1.2567 -1.232 25.587)" gradientUnits="userSpaceOnUse"><stop offset="0" style="stop-color:#e5eaee"/><stop offset=".2" style="stop-color:#ced7dc"/><stop offset=".5" style="stop-color:#b3c2c6"/><stop offset="1" style="stop-color:#717b80"/></radialGradient><path fill="url(#e)" d="M32 2a1 1 0 0 0-1 1.001v5a1 1 0 0 0 2 0v-5A1 1 0 0 0 32 2z"/><path fill="#302C3B" d="M42.784 8.106c0 2.33-3.5 2.33-3.5 0 0-2.335 3.5-2.335 3.5 0z"/><radialGradient id="f" cx="43.711" cy="-15.983" r="2.663" gradientTransform="matrix(.9669 0 0 1.2567 -1.232 25.587)" gradientUnits="userSpaceOnUse"><stop offset="0" style="stop-color:#e5eaee"/><stop offset=".2" style="stop-color:#ced7dc"/><stop offset=".5" style="stop-color:#b3c2c6"/><stop offset="1" style="stop-color:#717b80"/></radialGradient><path fill="url(#f)" d="M41.033 2a1 1 0 0 0-.999 1.001v5a1 1 0 0 0 2 0v-5A1 1 0 0 0 41.033 2z"/><path fill="#302C3B" d="M51.818 8.106c0 2.33-3.5 2.33-3.5 0 0-2.335 3.5-2.335 3.5 0z"/><radialGradient id="g" cx="53.054" cy="-15.983" r="2.663" gradientTransform="matrix(.9669 0 0 1.2567 -1.232 25.587)" gradientUnits="userSpaceOnUse"><stop offset="0" style="stop-color:#e5eaee"/><stop offset=".2" style="stop-color:#ced7dc"/><stop offset=".5" style="stop-color:#b3c2c6"/><stop offset="1" style="stop-color:#717b80"/></radialGradient><path fill="url(#g)" d="M50.068 2a1 1 0 0 0-1 1.001v5a1 1 0 0 0 2 0v-5a1 1 0 0 0-1-1.001z"/></svg>