<svg xmlns="http://www.w3.org/2000/svg" xml:space="preserve" style="enable-background:new 0 0 64 64" viewBox="0 0 64 64"><radialGradient id="a" cx="32.236" cy="32.846" r="32.61" gradientUnits="userSpaceOnUse"><stop offset="0" style="stop-color:#f0fbff"/><stop offset=".258" style="stop-color:#ecf9fe"/><stop offset=".485" style="stop-color:#e2f3fa"/><stop offset=".702" style="stop-color:#d0e8f5"/><stop offset=".91" style="stop-color:#b6daec"/><stop offset="1" style="stop-color:#a9d2e8"/></radialGradient><path d="M59.05 33.89s-7.39-2.61-7.7-4.89c-.47-3.44 9.19-10.33 9.19-10.33s-9.2 3.54-11.07 1.45c-1.53-1.7 2.03-8.95 2.03-8.95s-5.02 5.01-6.42 3.29C43.34 12.34 44.04 4.2 44.04 4.2s-2.76 8.52-5.69 8.85c-1.73.2-3.67-4.95-3.67-4.95s-.41 5.77-1.97 6.1c-2.94.62-7.96-9.08-7.96-9.08s2 8.13.65 10.04c-2.13 2.99-8.29-5.07-8.29-5.07s2.11 7.23.79 8.78c-1.87 2.19-10.27-1.71-10.27-1.71s6.58 4.97 6.34 7.99c-.24 2.97-10.04 5.77-10.04 5.77s13.1-.4 12.9 2.97c-.13 2.12-6.08 6.45-6.08 6.45s13.55-3.47 10.33 2.22C17.63 48.65 8.04 61.5 8.04 61.5S24.1 49.28 30.25 48.57c3.32-.38 6.36 5.06 6.36 5.06s-.04-7.23 2.19-7.57c2.32-.35 8.22 5.94 8.22 5.94s-3.39-7.21-1.79-8.74c2.2-2.1 11.7 3.17 11.7 3.17s-8.41-7.6-7.23-10.58c.88-2.25 9.35-1.96 9.35-1.96z" style="fill:url(#a)"/><path d="m5.55 64 2.09-2.8c.1-.13 9.61-12.89 13.01-18.89.3-.52.59-1.23.33-1.7-.31-.53-1.37-.83-2.99-.83-3.06 0-7.08 1.02-7.12 1.03l-2.49.64 2.09-1.52c2.23-1.62 5.79-4.7 5.88-6.08.01-.22-.07-.42-.25-.61-1.08-1.16-5.16-1.85-10.92-1.85-.75 0-1.22.01-1.23.01L0 31.53l3.8-1.09c3.66-1.05 9.53-3.43 9.69-5.34.18-2.25-4.38-6.22-6.14-7.56l-3.69-2.79 4.18 1.94c.05.02 5.06 2.33 8.05 2.33.8 0 1.37-.17 1.64-.5.79-.92-.04-5.42-.88-8.31l-.74-2.51 1.59 2.08c1.39 1.83 6.06 7.11 7.5 5.09.89-1.25.03-6.57-.72-9.63l-.98-4 1.89 3.64c1.77 3.42 5.31 8.85 7.25 8.85.06 0 .12-.01.18-.02.71-.15 1.39-3.04 1.58-5.65l.16-2.21.79 2.07c.71 1.87 2.18 4.64 3.11 4.63 1.95-.22 4.3-5.34 5.33-8.52L44.88 0l-.36 4.24c-.19 2.21-.39 8.3.93 9.92.07.08.18.18.44.18 1.43 0 4.28-2.53 5.26-3.51l2.08-2.07-1.3 2.64c-1.42 2.89-3.01 7.4-2.11 8.4.29.33.94.5 1.87.5 3.23 0 8.62-2.06 8.67-2.08l3.63-1.4-3.18 2.26c-2.62 1.87-9.35 7.28-8.99 9.86.19 1.36 4.43 3.45 7.38 4.49l3.02 1.07-3.2-.11s-.34-.01-.89-.01c-4.46 0-7.59.65-7.99 1.66-.77 1.94 3.95 7.18 7.11 10.03l3.19 2.88-3.75-2.08c-.06-.04-6.53-3.6-9.84-3.6-.61 0-1.04.12-1.29.36-.93.89.55 5.31 1.9 8.17l1.32 2.81-2.12-2.26c-1.55-1.65-6.05-6.03-7.8-5.79-1.24.19-1.79 4.33-1.77 7.08l.01 1.9-.92-1.65c-.03-.05-2.89-5.14-5.88-4.81-5.95.67-21.81 12.69-21.97 12.81L5.55 64zM18 38.8c2.07 0 3.32.43 3.83 1.32.4.7.29 1.6-.33 2.68-2.48 4.37-8.15 12.27-11.15 16.37 4.84-3.5 15.08-10.54 19.84-11.09 2.5-.29 4.78 2.29 5.97 3.96.13-2.35.63-6.17 2.56-6.46 1.71-.26 4.84 2.38 6.85 4.29-.92-2.4-1.91-5.79-.68-6.96.44-.42 1.1-.63 1.96-.63 2.08 0 5.17 1.23 7.43 2.27-2.49-2.58-5.92-6.66-5.04-8.89.64-1.61 4.02-2.13 7.26-2.25-2.33-1.02-5.41-2.66-5.64-4.34-.36-2.59 4.05-6.6 6.98-8.96-1.87.57-4.3 1.17-6.15 1.17-1.24 0-2.09-.27-2.59-.82-1.18-1.32-.01-4.93 1-7.36-1.28 1.05-2.98 2.22-4.2 2.22-.5 0-.91-.19-1.2-.54-1.14-1.4-1.33-4.91-1.29-7.53-1.12 2.62-2.96 6.05-5.01 6.29l-.15.01c-1.3 0-2.52-1.98-3.28-3.55-.28 1.93-.89 4.42-2.15 4.69-2.16.46-5.15-3.64-6.94-6.6.46 2.61.83 6.08-.08 7.36-.41.57-.98.87-1.65.87-1.91 0-4.43-2.46-6-4.23.55 2.4 1.14 5.92.13 7.09-.47.55-1.27.84-2.38.84-1.67 0-3.84-.63-5.56-1.25 1.94 1.79 4.29 4.4 4.13 6.41-.17 2.19-4.44 4.14-7.48 5.25 3.6.1 8.34.54 9.82 2.14.37.4.54.85.51 1.35-.09 1.57-2.7 3.96-4.54 5.47 1.47-.29 3.47-.59 5.22-.59z" style="fill:#a9d2e8"/></svg>