<svg xmlns="http://www.w3.org/2000/svg" xml:space="preserve" viewBox="0 0 64 64"><radialGradient id="a" cx="53.912" cy="-28.381" r="4.957" gradientTransform="matrix(.8928 0 0 .8457 -29.37 27.624)" gradientUnits="userSpaceOnUse"><stop offset="0" style="stop-color:#ffe14d"/><stop offset=".25" style="stop-color:#ffdf4a"/><stop offset=".469" style="stop-color:#ffd93f"/><stop offset=".677" style="stop-color:#ffcf2d"/><stop offset=".876" style="stop-color:#ffc214"/><stop offset="1" style="stop-color:#ffb700"/></radialGradient><path fill="url(#a)" d="M18.836 6.988c3.84-.959 3.989-5.468 4.882-6.988-2.261 1.266-2.857.449-4.403 1.564-.347.249-2.15-1.235-2.442-1.003-.343.272-.446 1.72-1.606 2.678-4.264 3.52 2.053 4.554 3.569 3.749z"/><linearGradient id="b" x1="14.678" x2="21.382" y1="4.223" y2="4.223" gradientUnits="userSpaceOnUse"><stop offset="0" style="stop-color:#ffe14d"/><stop offset=".652" style="stop-color:#ffc418"/><stop offset="1" style="stop-color:#ffb700"/></linearGradient><path fill="url(#b)" d="M17.682 7.63s-.065-5.349 3.7-6.813c-3.259 0-4.45 3.55-6.057 1.014-2.323 3.578 2.357 5.799 2.357 5.799z"/><path fill="#115E5E" d="M14.894 6.853c.813-.819 3.79-.819 4.603 0 1.787 1.8-6.391 1.8-4.603 0z"/><linearGradient id="c" x1="32.214" x2="32.214" y1="64" y2="7.866" gradientUnits="userSpaceOnUse"><stop offset="0" style="stop-color:#5dcfbe"/><stop offset="1" style="stop-color:#9ef2e6"/></linearGradient><path fill="url(#c)" d="M45.415 53.668s-2.841-3.213-2.558-11.391c0 0 .684-1.753-.44-3.492 2.735-.341 9.583-.709 9.583-.709l-10.015-1.269 8.699-3.695-10.617 1.722 5.363-6.178-8.056 5.062-1.579-8.001-1.442 8.22-7.972-4.979 5.428 5.707-9.009.6c-4.787-14.361-2.306-18.602-3.882-21.855l2.944-.974-2.012-4.57-6.222.24c-2.311 4.441-.827 5.226.585 5.569.572 5.242-.624 6.9 1.121 8.361 1.719 2.571.226 8.713 2.392 16.656-.119.493-5.93 11.714-.175 12.696 4.21 3.959.793 4.488 3.661 11.795 0 0 4.726.816 14.29.816 11.432 0 15.36-1.062 15.36-1.062-2.187-6.792-1.139-7.858-5.447-9.269zm-16.912-8.903c-2.495.1-1.888-5.796-1.888-5.796l2.625-.217c2.782 2.741-.737 6.013-.737 6.013zm1.704-8.221-5.265 1.255-1.279-1.993 6.544.738z"/><path fill="#198787" d="M26.583 63.729c1.134.143 2.713.151 2.713.151s2.891-3.149 3.903-9.648c-1.521 3.793-6.616 9.497-6.616 9.497z"/><path fill="#198787" fill-rule="evenodd" d="M45.76 53.574c-.093-2.364-2.948-4.226-2.736-11.144.088-.29.991-.168.547-3.545 2.732-.34 8.43-.81 8.43-.81l-8.41-.065c.013-.854-.35-1.658-.35-1.658 2.431-1.129 7.444-3.24 7.444-3.24l-7.703 2.418s-.443-1.053-1.711-1.811c1.318-1.685 4.16-5.063 4.16-5.063l-5.337 4.426s-1.076-.598-2.696-.756l-1.602-6.609-.357 6.623s-1.961.267-3.052.843l-6.005-4.225 4.645 5.226c-.901.628-1.606 1.391-1.606 1.391l-5.557-.336c-.744-5.308-2.948-8.79-3.986-14.399 1.214-1.557-.904-3.944.582-6.631 2.362.108 4.183-1.529 1.355-4.343.647-.783.519-2.547-4.278-2.547-5.261 0-5.679 1.131-5.007 2.67-1.15 1.249-.27 3.875 1.142 4.22.331.576-.071 1.332.67 2.077-.33.083-.745 1.479-.198 2.58-.381 1.298-.182 2.612 1.24 3.32 1.582 8.337-.755 8.469 1.979 16.883-4.452 5.764-3.981 13.491.479 13.187-.782 3.352.785 4.228 1.863 5.066-.813 1.375-.803 2.801.326 3.342 0 0-.739.748-.739 1.754 0 .729 4.433 1.088 4.433 1.088s4.078-4.73 5.587-15.119c-3.612 9.658-8.666 11.562-8.666 11.562-.398-5.981 7.224-12.376 9.509-16.57.17-.313.285-.688.378-1.107.173.076.368.132.572.177.078.599.143 1.575.807 1.222.244-.131-.539-1.425-.539-1.425l.473-.408s.354.773.605 1.086c.367-.662.087-1.714 0-2.51.659-1.893 2.897-1.732 3.901-3.275.522 1.304 3.334.529 3.504 2.189-1.718-.241-2.276.21-2.558.68-.162 1.091.593 3.218-.202 3.257-.566.024-1.31-.445-1.481.271-.081.341 1.356.003 1.413.339.081.478-.354.428-.604.271-.254.269-1.011.679-1.011.679.963.103 2.652-.584 2.154.068-.32.42-1.437 0-1.818.34.354.448 1.749.475 2.29.107.289-.193.322-.529.538-.786-.519-.111-1.047-.212-1.078-.814 1.296-.013.402-.688.402-.688V41.21s1.784-.003 2.104.697c.571 1.265-.154 2.542-1.195 4.654-.374.76-3.712 1.59-5.62-.857-.156 1.834 1.721 3.339 2.627 4.612 1.513 2.136.208 4.875-2.424-.136.687 2.8 2.657 5.435 5.454 4.479-1.999.2-3.19-1.595-1.206-1.358.279-4.002 2.616-4.714 3.967-11.601l.428.548s-.336 1.245-.158 1.353c.339.205.607-.094.788-.477-.034.307-.076.608-.124.907-.044.125-.438 1.165-1.271.655-.79 2.129.696 7.711-.391 7.83-.924.099-.483-4.711-.483-4.711s-1.879 3.67-2.425 5.495c.77.827 4.796 1.552 6.378-.116.765.704 1.759 1.418 3.042 2.148-5.5-.812-9.255.556-9.255.556s1.358 2.708-2.072 7.991c0 0 3.009-1.24 5.707-6.574 0 0 6.67-1.333 8.299 5.807 0 0 1.645-.252 1.645-.695-.001-2.225-.337-7.666-5.956-8.843zM18.728 8.294c.221.025.268.804.049.82-8.383.625-5.588-1.494-.049-.82zm-5.875 4.098c-1.086-4.032 7.17-2.43 8.413-.532-4.285-.576-5.449-.034-8.413.532zm5.157 3.254c-.055-.83.824-.595 1.294 1.823.521 2.686-1.113 1.068-1.294-1.823zm-2.362 5.816c-1.373-.46-1.175-1.973-.844-2.761-.447-1.232-.131-2.147.033-2.268-.672-1.027-.331-1.578-.497-2.68 1.506.148.166 1.644 1.406 2.762.38.163 1.522-.46 2.035.345-.744.543-1.77-.065-2.387.74.897.016 2.585-.001 2.531 1.016-1.006.232-1.652-.517-2.411.118 1.405.081 2.441.853 1.962 1.345-.927-.065-1.118-.557-2.046-.441.002 0 .119 1.16.218 1.824zm.303 1.16s2.022-.61 2.096.079c.45 4.222-1.918 3.57-2.096-.079zm1.169 28.52c-2.265-10.997 1.551-5.969 3.599-4.81-2.848-7.479-4.592-10.151-4.128-18.854 3.728-.328.596 5.281 5.984 15.705 1.82-6.528 1.956 4.515-5.455 7.959zm21.192-10.97c.36-.612 1.496-.359 1.539-.024.044.314-.733-.239-1.539.024zm-14.338-4.224 5.363.607s-.257.572-.17.99l-3.442.327c-.966-.321-1.751-1.924-1.751-1.924zm4.488 8.711c-2.061-.307-.492-4.319-1.618-5.52l2.386-.152c.578 1.521-.523 2.245.546 3.645-.391.721-.987 1.25-1.314 2.027zm11.73-6.555c-1.328-.646-3.396-.76-3.864-2.296-.299 1.325-1.959 1.457-3.002 2.296-.808.648-.997 1.639-2.29 1.289.036.414.372.528.604.747-.487.224-.695.73-.963 1.177.046-.478.079-.998.084-1.623.039-4.618 7.202-7.441 10.568-2.508-.034.164-.314 1.319-1.137.918z" clip-rule="evenodd"/><path fill="#198787" fill-rule="evenodd" d="M36.151 40.683c-.075.487-.847.909-1.75.882.18-.113.408-.178.607-.271-.776.009-1.659-.147-2.089-.679.622-.233 1.025-.685 1.887-.679-.262-.143-.953-.215-1.279-.068.188-.504 2.872-.759 2.624.815zm-5.52 2.238c.229.987.605 2.119 1.887 1.832.64 1.247.152 3.231.268 4.953-.475-.333-2.899-5.341-2.155-6.785z" clip-rule="evenodd"/><path fill="#115E5E" fill-rule="evenodd" d="M31.552 36.703a3.938 3.938 0 0 0-.325.472c-.815-.744-1.497-.709-1.497-.709.218-1.172 1-.46 1.822.237zm.584-.682c-.241.176-.409.398-.409.398-.684-.871-1.426-1.01-1.426-1.01.641-1.059 1.138-.211 1.835.612zm.713-.583c-.251.152-.462.341-.462.341-.501-.988-1.229-1.252-1.229-1.252.835-.914 1.168-.034 1.691.911zm.796-.467c-.286.114-.505.274-.505.274-.333-1.058-1.004-1.435-1.004-1.435.971-.762 1.146.143 1.509 1.161zm.963-.363c-.323.075-.59.213-.59.213-.2-1.084-.754-1.619-.754-1.619 1.101-.56 1.117.303 1.344 1.406zm1.034-.189a8.49 8.49 0 0 0-.657.107c-.155-1.121-.505-1.707-.505-1.707 1.138-.469 1.061.343 1.162 1.6zm-4.537 3.003c-.145.266-.227.543-.227.543-.561-.467-1.087-.382-1.467-.436.063-1.244 1.111-.571 1.694-.107zm10.154-.799c.191.237.329.473.329.473.831-.746 1.527-.71 1.527-.71-.225-1.171-1.021-.459-1.856.237zm-.597-.683c.244.178.416.398.416.398.697-.87 1.454-1.009 1.454-1.009-.653-1.058-1.162-.211-1.87.611zm-.727-.583c.255.151.472.341.472.341.512-.988 1.251-1.252 1.251-1.252-.851-.913-1.189-.033-1.723.911zm-.811-.466c.292.114.515.274.515.274.34-1.057 1.023-1.434 1.023-1.434-.991-.762-1.17.143-1.538 1.16zm-.982-.362c.33.073.602.212.602.212.204-1.084.767-1.619.767-1.619-1.12-.559-1.137.303-1.369 1.407zm-1.054-.19c.346.04.671.107.671.107.157-1.121.514-1.706.514-1.706-1.162-.469-1.081.343-1.185 1.599zm4.624 3.004c.147.266.23.541.23.541.57-.465 1.108-.38 1.494-.434-.061-1.245-1.129-.572-1.724-.107zm-4.893-4.795c-.112.692-.053 1.805-.053 1.805-.374-.029-.807.013-.807.013s-.009-.978-.155-1.773c.224-.115.776-.191 1.015-.045z" clip-rule="evenodd"/></svg>