<svg xmlns="http://www.w3.org/2000/svg" xml:space="preserve" style="enable-background:new 0 0 64 64" viewBox="0 0 64 64"><linearGradient id="a" x1="45.343" x2="45.343" y1="64" y2="23.156" gradientUnits="userSpaceOnUse"><stop offset="0" style="stop-color:#abbdc5"/><stop offset=".542" style="stop-color:#adbfc7"/><stop offset=".786" style="stop-color:#b3c6ce"/><stop offset=".97" style="stop-color:#bed2db"/><stop offset="1" style="stop-color:#c1d5de"/></linearGradient><path d="M31.9 36.86c-2.73 3.98 0 27.14 0 27.14 2.08 0 25.53-13.73 26.28-14.48.91-.9 2.55-25.28 1.45-26.37 0 .01-23.75 7.92-27.73 13.71z" style="fill:url(#a)"/><linearGradient id="b" x1="31.899" x2="31.899" y1="36.864" y2="9.446" gradientUnits="userSpaceOnUse"><stop offset="0" style="stop-color:#abbdc5"/><stop offset=".233" style="stop-color:#a4b6be"/><stop offset=".585" style="stop-color:#8fa1a9"/><stop offset="1" style="stop-color:#6e8189"/></linearGradient><path d="M31.9 9.45S5.56 21.77 4.16 23.15c0 0 8.89 12.5 27.74 13.72l27.73-13.71C57.86 21.4 31.9 9.45 31.9 9.45z" style="fill:url(#b)"/><path d="M42.14 28.23 20.23 17.37l-1.2.63 21.62 10.94z" style="fill:#4e5e67"/><linearGradient id="c" x1="28.95" x2="40.114" y1="22.907" y2="3.569" gradientUnits="userSpaceOnUse"><stop offset="0" style="stop-color:#f7b91d"/><stop offset=".009" style="stop-color:#f7bb1d"/><stop offset=".096" style="stop-color:#f7cf1d"/><stop offset=".196" style="stop-color:#f8dd1c"/><stop offset=".321" style="stop-color:#f8e51c"/><stop offset=".545" style="stop-color:#f8e71c"/></linearGradient><path d="M31.43 0C19.39 9.02 21.11 18.38 21.11 18.38l18.64 9.34S39.33 18.06 50.4 9.5L31.43 0z" style="fill:url(#c)"/><linearGradient id="d" x1="8.644" x2="28.32" y1="52.961" y2="33.284" gradientUnits="userSpaceOnUse"><stop offset="0" style="stop-color:#6e8189"/><stop offset=".415" style="stop-color:#8fa1a9"/><stop offset=".767" style="stop-color:#a4b6be"/><stop offset="1" style="stop-color:#abbdc5"/></linearGradient><path d="M4.17 23.14c-.7.69 1.01 26.35 1.65 26.99C6.27 50.58 29.35 64 31.9 64V36.86L4.17 23.14z" style="fill:url(#d)"/><path d="M31.9 42.2 4.08 28.47v.47L31.9 42.66l28.09-14.25v-.47z" style="opacity:.1;fill:#1a1626"/><path d="M27.68 14c1.43 3.16 3.22 6.07 3.67 5.37 2.67-4.2 5.37-7.57 9.82-12.49.56-.62-4.17 1.8-9.99 9.27-.43-.84-.89-2.41-.9-2.73-.04-.5-2.81.13-2.6.58z" style="fill:#302c3b"/></svg>