<svg xmlns="http://www.w3.org/2000/svg" xml:space="preserve" style="enable-background:new 0 0 64 64" viewBox="0 0 64 64"><linearGradient id="a" x1="32.673" x2="32.673" y1="61.721" y2="1.72" gradientTransform="translate(-.673 .28)" gradientUnits="userSpaceOnUse"><stop offset="0" style="stop-color:#ff9500"/><stop offset=".192" style="stop-color:#ffad00"/><stop offset=".545" style="stop-color:#ffd500"/><stop offset=".827" style="stop-color:#ffed00"/><stop offset="1" style="stop-color:#fff600"/></linearGradient><path d="M32 2c16.57 0 30 13.43 30 30S48.57 62 32 62 2 48.57 2 32 15.43 2 32 2z" style="fill:url(#a)"/><path d="M16.1 39.88c4.83 14.3 26.97 14.3 31.8 0 .31-.91-.14-1.97-1.02-.67-6.37 9.38-23.39 9.38-29.76 0-.89-1.3-1.33-.24-1.02.67z" style="fill:#1a1626"/><linearGradient id="b" x1="42.023" x2="53.513" y1="44.453" y2="56.708" gradientTransform="translate(-.673 .28)" gradientUnits="userSpaceOnUse"><stop offset="0" style="stop-color:#690900"/><stop offset=".019" style="stop-color:#76120b"/><stop offset=".078" style="stop-color:#9a2c2b"/><stop offset=".143" style="stop-color:#b94247"/><stop offset=".214" style="stop-color:#d2545d"/><stop offset=".293" style="stop-color:#e5626e"/><stop offset=".384" style="stop-color:#f36c7a"/><stop offset=".498" style="stop-color:#fb7181"/><stop offset=".709" style="stop-color:#fd7383"/></linearGradient><path d="M36.63 50.03s3.75 3.89 4.64 4.78c4.82 4.82 9.46 5.02 12.2 2.29 2.73-2.74 2.53-7.38-2.29-12.2-.89-.89-3.86-3.53-3.86-3.53s-1.87-.73-5.25 3.57c-5.61 3.12-5.44 5.09-5.44 5.09z" style="fill:url(#b)"/><linearGradient id="c" x1="42.947" x2="52.092" y1="44.718" y2="53.548" gradientTransform="translate(-.673 .28)" gradientUnits="userSpaceOnUse"><stop offset="0" style="stop-color:#420600;stop-opacity:.18"/><stop offset=".118" style="stop-color:#5f0800;stop-opacity:.1658"/><stop offset=".293" style="stop-color:#820b00;stop-opacity:.1449"/><stop offset=".469" style="stop-color:#9e0d00;stop-opacity:.1238"/><stop offset=".645" style="stop-color:#b20f00;stop-opacity:.1026"/><stop offset=".822" style="stop-color:#be1000;stop-opacity:.0814"/><stop offset="1" style="stop-color:#c21000;stop-opacity:.06"/></linearGradient><path d="M42.33 44.61s4.7 3.42 8.98 9.19c-5.75-6.15-9.69-8.61-9.69-8.61s.19-.16.45-.27c.22-.38.26-.31.26-.31z" style="fill:url(#c)"/><path d="M15.74 29.1c4.27-5.52 7.26-5.52 11.53 0 .65.84 1.97.21 1.7-.6-3.63-10.68-11.3-10.68-14.93 0-.28.82 1.05 1.44 1.7.6zm21 0c4.27-5.52 7.26-5.52 11.53 0 .65.83 1.97.21 1.7-.6-3.63-10.68-11.3-10.68-14.93 0-.28.82 1.05 1.44 1.7.6z" style="fill:#1a1626"/></svg>