<svg xmlns="http://www.w3.org/2000/svg" xml:space="preserve" style="enable-background:new 0 0 64 64" viewBox="0 0 64 64"><linearGradient id="a" x1="32" x2="32" y1="62" y2="2" gradientUnits="userSpaceOnUse"><stop offset="0" style="stop-color:#ff9500"/><stop offset=".192" style="stop-color:#ffad00"/><stop offset=".545" style="stop-color:#ffd500"/><stop offset=".827" style="stop-color:#ffed00"/><stop offset="1" style="stop-color:#fff600"/></linearGradient><circle cx="32" cy="32" r="30" style="fill:url(#a)"/><path d="M47.24 36.33C43.6 35.65 38.47 35 32 35c-6.47 0-11.61.65-15.25 1.33-1.84.34-2.84 1.87-2.75 3.41C14.45 47.49 20.4 54 32 54s17.55-6.51 17.99-14.27c.09-1.54-.91-3.06-2.75-3.4z" style="fill:#1a1626"/><path d="M23.47 50s3.79 2 8.53 2 8.53-2 8.53-2-2.84-3-8.53-2c-5.68-1-8.53 2-8.53 2z" style="fill:#fd7383"/><linearGradient id="b" x1="16.012" x2="47.989" y1="39.498" y2="39.498" gradientUnits="userSpaceOnUse"><stop offset="0" style="stop-color:#cfd7e6"/><stop offset=".037" style="stop-color:#dae0ec"/><stop offset=".126" style="stop-color:#eef1f6"/><stop offset=".215" style="stop-color:#fbfcfd"/><stop offset=".3" style="stop-color:#fff"/><stop offset=".7" style="stop-color:#fff"/><stop offset=".785" style="stop-color:#fbfcfd"/><stop offset=".874" style="stop-color:#eef1f6"/><stop offset=".963" style="stop-color:#dae0ec"/><stop offset="1" style="stop-color:#cfd7e6"/></linearGradient><path d="M46.51 38.24C44 37.79 38.69 37 32 37c-6.69 0-11.99.79-14.51 1.24-1.57.28-1.6.97-1.39 2.28.18 1.15.3 1.45 1.52 1.47 1.12.02 14.38 0 14.38 0s13.26.02 14.38 0c1.21-.02 1.34-.32 1.52-1.47.21-1.31.17-1.99-1.39-2.28z" style="fill:url(#b)"/><path d="M15.74 29.1c4.27-5.52 7.26-5.52 11.53 0 .65.83 1.97.21 1.7-.6-3.63-10.68-11.3-10.68-14.93 0-.28.82 1.05 1.44 1.7.6zm21 0c4.27-5.52 7.26-5.52 11.53 0 .65.83 1.97.21 1.7-.6-3.63-10.68-11.3-10.68-14.93 0-.28.82 1.05 1.44 1.7.6z" style="fill:#1a1626"/><radialGradient id="c" cx="931.006" cy="-138.639" r="2.578" fx="931.006" fy="-136.771" gradientTransform="matrix(3.154 0 0 4.4839 -2880.283 635.31)" gradientUnits="userSpaceOnUse"><stop offset="0" style="stop-color:#73efff"/><stop offset=".187" style="stop-color:#6fecff"/><stop offset=".364" style="stop-color:#64e3ff"/><stop offset=".537" style="stop-color:#51d3ff"/><stop offset=".707" style="stop-color:#36bdff"/><stop offset=".874" style="stop-color:#14a1ff"/><stop offset=".956" style="stop-color:#0091ff"/></radialGradient><path d="M56.78 6.61c-.44-1.27-1.12-1.28-1.56 0-1.3 3.75-5.22 8.83-5.22 13.23 0 3.21 2.69 5.81 6 5.81s6-2.6 6-5.81c0-4.39-3.94-9.53-5.22-13.23z" style="fill:url(#c)"/><linearGradient id="d" x1="849.984" x2="852.941" y1="-140.111" y2="-142.724" gradientTransform="matrix(2.7319 0 0 3.0921 -2270.3 451.847)" gradientUnits="userSpaceOnUse"><stop offset=".053" style="stop-color:#c4eeff;stop-opacity:0"/><stop offset=".45" style="stop-color:#cdf0ff;stop-opacity:.4197"/><stop offset="1" style="stop-color:#d4f2ff"/></linearGradient><path d="M56.48 6.31c-.15-.58-.81-.58-.96 0-.8 3-3.59 7.99-3.59 11.51 0 4.23 8.14 4.23 8.14 0 0-3.52-2.8-8.55-3.59-11.51z" style="fill:url(#d)"/></svg>