<svg xmlns="http://www.w3.org/2000/svg" xml:space="preserve" style="enable-background:new 0 0 64 64" viewBox="0 0 64 64"><linearGradient id="a" x1="32" x2="32" y1="62" y2="2" gradientUnits="userSpaceOnUse"><stop offset="0" style="stop-color:#ff9500"/><stop offset=".192" style="stop-color:#ffad00"/><stop offset=".545" style="stop-color:#ffd500"/><stop offset=".827" style="stop-color:#ffed00"/><stop offset="1" style="stop-color:#fff600"/></linearGradient><circle cx="32" cy="32" r="30" style="fill:url(#a)"/><radialGradient id="b" cx="14.19" cy="35.127" r="11" gradientUnits="userSpaceOnUse"><stop offset="0" style="stop-color:#ff6399;stop-opacity:.55"/><stop offset=".202" style="stop-color:#ff6596;stop-opacity:.4387"/><stop offset=".365" style="stop-color:#ff6c8c;stop-opacity:.3493"/><stop offset=".513" style="stop-color:#ff767b;stop-opacity:.2676"/><stop offset=".654" style="stop-color:#ff8663;stop-opacity:.1903"/><stop offset=".789" style="stop-color:#ff9a44;stop-opacity:.1162"/><stop offset=".917" style="stop-color:#ffb21f;stop-opacity:.0455"/><stop offset="1" style="stop-color:#ffc403;stop-opacity:0"/></radialGradient><circle cx="14.19" cy="35.13" r="11" style="fill:url(#b)"/><radialGradient id="c" cx="49.81" cy="35.127" r="11" gradientUnits="userSpaceOnUse"><stop offset="0" style="stop-color:#ff6399;stop-opacity:.55"/><stop offset=".202" style="stop-color:#ff6596;stop-opacity:.4387"/><stop offset=".365" style="stop-color:#ff6c8c;stop-opacity:.3493"/><stop offset=".513" style="stop-color:#ff767b;stop-opacity:.2676"/><stop offset=".654" style="stop-color:#ff8663;stop-opacity:.1903"/><stop offset=".789" style="stop-color:#ff9a44;stop-opacity:.1162"/><stop offset=".917" style="stop-color:#ffb21f;stop-opacity:.0455"/><stop offset="1" style="stop-color:#ffc403;stop-opacity:0"/></radialGradient><circle cx="49.81" cy="35.13" r="11" style="fill:url(#c)"/><path d="M44.52 37.12c-7.63 5.82-17.43 5.82-25.05 0-1.08-.82-1.73.07-1.38.76 5.85 11.87 21.96 11.87 27.81 0 .35-.69-.29-1.58-1.38-.76zM15.74 27.1c4.27-5.52 7.26-5.52 11.53 0 .65.83 1.97.21 1.7-.6-3.63-10.68-11.3-10.68-14.93 0-.28.82 1.05 1.44 1.7.6zm21 0c4.27-5.52 7.26-5.52 11.53 0 .65.83 1.97.21 1.7-.6-3.63-10.68-11.3-10.68-14.93 0-.28.82 1.05 1.44 1.7.6z" style="fill:#1a1626"/></svg>