<svg xmlns="http://www.w3.org/2000/svg" xml:space="preserve" style="enable-background:new 0 0 64 64" viewBox="0 0 64 64"><linearGradient id="a" x1="-211.915" x2="-211.915" y1="275.918" y2="276.918" gradientTransform="matrix(60 0 0 -60 12746.9 16617.07)" gradientUnits="userSpaceOnUse"><stop offset="0" style="stop-color:#ff9500"/><stop offset=".192" style="stop-color:#ffad00"/><stop offset=".545" style="stop-color:#ffd500"/><stop offset=".827" style="stop-color:#ffed00"/><stop offset="1" style="stop-color:#fff600"/></linearGradient><circle cx="32" cy="32" r="30" style="fill:url(#a)"/><path d="M42.64 43.28c-5.38 4.14-15.89 4.16-21.29 0-.92-.7-1.58.56-1.28 1.16 5.02 10.18 18.84 10.18 23.86 0 .29-.6-.37-1.87-1.29-1.16zm-15.9-15.9c-2.54 2.67-7.79 3.75-11.35 2-.83-.4-1.97.18-1.59.75 3.88 5.84 13.06 4.21 14.7-2.59.16-.67-1.13-.83-1.76-.16zm10.52 0c2.54 2.67 7.79 3.75 11.36 2 .82-.4 1.97.18 1.59.75-3.88 5.84-13.05 4.21-14.7-2.59-.17-.67 1.12-.83 1.75-.16z" style="fill:#1a1626"/><path d="M13.86 16.81c-9.25 6.62-2.92 7.32 5.57 2.69 4.8-2.62.52-7.05-5.57-2.69zm36.27.02c-6.09-4.36-10.37.07-5.57 2.69 8.5 4.63 14.82 3.93 5.57-2.69z" style="fill:#d69600"/></svg>