<svg xmlns="http://www.w3.org/2000/svg" xml:space="preserve" style="enable-background:new 0 0 64 64" viewBox="0 0 64 64"><linearGradient id="a" x1="32" x2="32" y1="62" y2="2" gradientUnits="userSpaceOnUse"><stop offset="0" style="stop-color:#ff9500"/><stop offset=".192" style="stop-color:#ffad00"/><stop offset=".545" style="stop-color:#ffd500"/><stop offset=".827" style="stop-color:#ffed00"/><stop offset="1" style="stop-color:#fff600"/></linearGradient><circle cx="32" cy="32" r="30" style="fill:url(#a)"/><ellipse cx="22" cy="29" rx="4" ry="5" style="fill:#1a1626"/><ellipse cx="42" cy="29" rx="4" ry="5" style="fill:#1a1626"/><path d="M24.89 47.23c3.66-2.57 10.26-2.74 14.21 0 .92.63 2.43.19 2.09-.55-3.46-7.54-14.95-7.52-18.4 0-.33.74 1.19 1.19 2.1.55z" style="fill:#1a1626"/><path d="M16.71 15.23c-8.63 7.4-2.27 7.55 5.79 2.19 4.54-3.03-.11-7.07-5.79-2.19zm30.58.01c-5.68-4.87-10.33-.84-5.78 2.19 8.06 5.36 14.42 5.21 5.78-2.19z" style="fill:#d69600"/></svg>