<svg xmlns="http://www.w3.org/2000/svg" xml:space="preserve" style="enable-background:new 0 0 64 64" viewBox="0 0 64 64"><linearGradient id="a" x1="-211.915" x2="-211.915" y1="275.918" y2="276.918" gradientTransform="matrix(60 0 0 -60 12746.9 16617.07)" gradientUnits="userSpaceOnUse"><stop offset="0" style="stop-color:#ff9500"/><stop offset=".192" style="stop-color:#ffad00"/><stop offset=".545" style="stop-color:#ffd500"/><stop offset=".827" style="stop-color:#ffed00"/><stop offset="1" style="stop-color:#fff600"/></linearGradient><path d="M32 2c16.57 0 30 13.43 30 30S48.57 62 32 62 2 48.57 2 32 15.43 2 32 2z" style="fill:url(#a)"/><path d="M29.2 27.92c-3.35-3.89-13.57-2.73-17.04 3.11-.23.39.08.87.61.54 3.35-2.06 7.57-1.96 7.57-1.96.01 2.81 2.23 5.08 4.97 5.08 3.96 0 5.85-4.49 3.89-6.77zm25.33 0c-3.35-3.89-13.57-2.73-17.04 3.11-.23.39.08.87.61.54 3.35-2.06 7.57-1.96 7.57-1.96.01 2.81 2.23 5.08 4.97 5.08 3.96 0 5.85-4.49 3.89-6.77zM43.79 45.11c-6.25-2.03-14.2-.03-17.81 4.93-.29.41.1.88.54.57 3.61-2.51 11.04-4.09 16.29-2.2 2.02.72 3.11-2.61.98-3.3z" style="fill:#1a1626"/></svg>