<svg xmlns="http://www.w3.org/2000/svg" xml:space="preserve" style="enable-background:new 0 0 64 64" viewBox="0 0 64 64"><linearGradient id="a" x1="88" x2="88" y1="-142" y2="-82" gradientTransform="matrix(1 0 0 -1 -56 -80)" gradientUnits="userSpaceOnUse"><stop offset="0" style="stop-color:#ff9500"/><stop offset=".192" style="stop-color:#ffad00"/><stop offset=".545" style="stop-color:#ffd500"/><stop offset=".827" style="stop-color:#ffed00"/><stop offset="1" style="stop-color:#fff600"/></linearGradient><circle cx="32" cy="32" r="30" style="fill:url(#a)"/><path d="M42.59 52.64c-1.81 0-2.94-1.42-3.84-2.57-.45-.57-1.13-1.43-1.49-1.43-.35 0-1.01.85-1.44 1.42-.89 1.15-2 2.58-3.82 2.58-1.82 0-2.93-1.43-3.82-2.58-.44-.56-1.1-1.42-1.44-1.42-.36 0-1.04.86-1.49 1.43-.91 1.14-2.03 2.57-3.84 2.57-3.12 0-4.65-3.9-4.81-4.34a1.5 1.5 0 0 1 .89-1.93c.77-.29 1.64.11 1.92.88.37.97 1.29 2.38 2 2.38.36 0 1.04-.86 1.49-1.43.91-1.14 2.03-2.57 3.84-2.57 1.82 0 2.93 1.43 3.82 2.58.44.56 1.1 1.42 1.44 1.42.35 0 1.01-.85 1.45-1.42.89-1.15 2-2.58 3.82-2.58 1.81 0 2.94 1.43 3.84 2.57.45.57 1.13 1.43 1.49 1.43.71 0 1.64-1.41 2-2.38.29-.77 1.15-1.17 1.93-.88.78.29 1.17 1.15.88 1.92-.17.46-1.7 4.35-4.82 4.35zm5.97-11.48c-3.2-1.64-9.6-4.28-13.06-5.32-.64-.19-.67-.86-.05-1.15 4.16-1.92 8-3.89 12.54-6.35.84-.45 1.67.81.98 1.52-1.86 1.88-4.5 3.64-6.44 4.94 2.21 1.15 5.25 3.18 7.21 4.99.78.72-.39 1.78-1.18 1.37zm-34.3-1.36c1.97-1.81 5.01-3.84 7.21-4.99-1.93-1.3-4.58-3.06-6.44-4.94-.7-.7.14-1.97.98-1.52 4.54 2.46 8.39 4.42 12.54 6.35.62.29.59.96-.05 1.15-3.46 1.04-9.86 3.68-13.06 5.32-.79.4-1.96-.66-1.18-1.37z" style="fill:#1a1626"/></svg>