<svg xmlns="http://www.w3.org/2000/svg" xml:space="preserve" style="enable-background:new 0 0 64 64" viewBox="0 0 64 64"><linearGradient id="a" x1="32" x2="32" y1="62" y2="2" gradientUnits="userSpaceOnUse"><stop offset="0" style="stop-color:#ff9500"/><stop offset=".192" style="stop-color:#ffad00"/><stop offset=".545" style="stop-color:#ffd500"/><stop offset=".827" style="stop-color:#ffed00"/><stop offset="1" style="stop-color:#fff600"/></linearGradient><circle cx="32" cy="32" r="30" style="fill:url(#a)"/><path d="M26.46 30.88c-2.3 2.89-7.43 4.41-11.14 2.98-.86-.33-1.95.35-1.52.89 4.37 5.47 13.37 3.05 14.42-3.86.11-.68-1.18-.73-1.76-.01zm11.08 0c2.3 2.89 7.43 4.41 11.14 2.98.86-.33 1.95.35 1.52.89-4.37 5.47-13.37 3.05-14.42-3.86-.1-.68 1.19-.73 1.76-.01zM24.89 51.23c3.66-2.57 10.26-2.74 14.21 0 .92.63 2.43.19 2.09-.55-3.46-7.54-14.95-7.52-18.4 0-.33.74 1.19 1.19 2.1.55z" style="fill:#1a1626"/></svg>