<svg xmlns="http://www.w3.org/2000/svg" xml:space="preserve" style="enable-background:new 0 0 64 64" viewBox="0 0 64 64"><linearGradient id="a" x1="32" x2="32" y1="62" y2="2" gradientUnits="userSpaceOnUse"><stop offset="0" style="stop-color:#ff9500"/><stop offset=".192" style="stop-color:#ffad00"/><stop offset=".545" style="stop-color:#ffd500"/><stop offset=".827" style="stop-color:#ffed00"/><stop offset="1" style="stop-color:#fff600"/></linearGradient><path d="M32 2c16.57 0 30 13.43 30 30S48.57 62 32 62 2 48.57 2 32 15.43 2 32 2z" style="fill:url(#a)"/><path d="M32 32c-8.84-.06-15.95 4.95-16 11.17-.03 3.45 1.33 6.6 5.57 6.63 3.08.02 6.48-1.46 10.43-1.44 3.95-.03 7.35 1.46 10.43 1.44 4.24-.03 5.6-3.19 5.57-6.63-.06-6.22-7.16-11.23-16-11.17z" style="fill:#1a1626"/><path d="M32 44.1c-4.66-2.35-9.32 3.63-9.32 3.63s5.8-1.57 9.32-1.57c3.52 0 9.32 1.57 9.32 1.57S36.66 41.75 32 44.1z" style="fill:#fd7383"/><linearGradient id="b" x1="21" x2="42.998" y1="36" y2="36" gradientUnits="userSpaceOnUse"><stop offset="0" style="stop-color:#cfd7e6"/><stop offset=".037" style="stop-color:#dae0ec"/><stop offset=".126" style="stop-color:#eef1f6"/><stop offset=".215" style="stop-color:#fbfcfd"/><stop offset=".3" style="stop-color:#fff"/><stop offset=".7" style="stop-color:#fff"/><stop offset=".785" style="stop-color:#fbfcfd"/><stop offset=".874" style="stop-color:#eef1f6"/><stop offset=".963" style="stop-color:#dae0ec"/><stop offset="1" style="stop-color:#cfd7e6"/></linearGradient><path d="M42.72 37.04C40.01 35.16 36.51 34 32 34c-4.51 0-8.01 1.15-10.72 3.04-.44.3-.39.96.38.96h20.68c.77 0 .82-.66.38-.96z" style="fill:url(#b)"/><path d="M48.56 29.41c-3.2-1.64-9.6-4.28-13.06-5.32-.64-.19-.67-.86-.05-1.15 4.16-1.92 8-3.89 12.54-6.35.84-.45 1.67.81.98 1.52-1.86 1.88-4.5 3.64-6.44 4.94 2.21 1.15 5.25 3.18 7.21 4.99.78.72-.39 1.78-1.18 1.37zm-34.3-1.37c1.97-1.81 5.01-3.84 7.21-4.99-1.93-1.3-4.58-3.06-6.44-4.94-.7-.7.14-1.97.98-1.52 4.54 2.46 8.39 4.42 12.54 6.35.62.29.59.95-.05 1.15-3.46 1.04-9.86 3.68-13.06 5.32-.79.41-1.96-.65-1.18-1.37z" style="fill:#1a1626"/></svg>