<svg xmlns="http://www.w3.org/2000/svg" xml:space="preserve" style="enable-background:new 0 0 64 64" viewBox="0 0 64 64"><linearGradient id="a" x1="32" x2="32" y1="62" y2="2" gradientUnits="userSpaceOnUse"><stop offset="0" style="stop-color:#ff9500"/><stop offset=".192" style="stop-color:#ffad00"/><stop offset=".545" style="stop-color:#ffd500"/><stop offset=".827" style="stop-color:#ffed00"/><stop offset="1" style="stop-color:#fff600"/></linearGradient><circle cx="32" cy="32" r="30" style="fill:url(#a)"/><path d="M37 48.89c0 5.88-10 5.88-10 0 0-3.09 2.24-5.59 5-5.59s5 2.5 5 5.59z" style="fill:#1a1626"/><ellipse cx="22" cy="31" rx="4" ry="5" style="fill:#1a1626"/><ellipse cx="42" cy="31" rx="4" ry="5" style="fill:#1a1626"/><path d="M17.05 15.65c-9.79 5.79-3.55 7.04 5.32 3.16 5-2.18 1.12-6.97-5.32-3.16zm29.9.02c-6.44-3.81-10.32.97-5.32 3.16 8.87 3.88 15.11 2.63 5.32-3.16z" style="fill:#d69600"/></svg>