<svg xmlns="http://www.w3.org/2000/svg" xml:space="preserve" style="enable-background:new 0 0 64 64" viewBox="0 0 64 64"><linearGradient id="a" x1="32" x2="32" y1="62" y2="2" gradientUnits="userSpaceOnUse"><stop offset="0" style="stop-color:#ff9500"/><stop offset=".192" style="stop-color:#ffad00"/><stop offset=".545" style="stop-color:#ffd500"/><stop offset=".827" style="stop-color:#ffed00"/><stop offset="1" style="stop-color:#fff600"/></linearGradient><circle cx="32" cy="32" r="30" style="fill:url(#a)"/><path d="M26.46 22.34c-2.3 2.89-7.43 4.41-11.14 2.98-.86-.33-1.95.35-1.52.89 4.37 5.48 13.37 3.05 14.42-3.86.11-.68-1.18-.72-1.76-.01zm11.08 0c2.3 2.89 7.43 4.41 11.14 2.98.86-.33 1.95.35 1.52.89-4.37 5.48-13.37 3.05-14.42-3.86-.11-.68 1.18-.72 1.76-.01zM32 34c-8.84-.06-15.95 4.95-16 11.17-.03 3.45 1.33 6.6 5.57 6.63 3.08.02 6.48-1.46 10.43-1.44 3.95-.03 7.35 1.46 10.43 1.44 4.24-.03 5.6-3.19 5.57-6.63-.06-6.22-7.16-11.23-16-11.17z" style="fill:#1a1626"/><path d="M32 46.1c-4.66-2.35-9.32 3.63-9.32 3.63s5.8-1.57 9.32-1.57c3.52 0 9.32 1.57 9.32 1.57S36.66 43.75 32 46.1z" style="fill:#fd7383"/><linearGradient id="b" x1="20.999" x2="42.998" y1="38" y2="38" gradientUnits="userSpaceOnUse"><stop offset="0" style="stop-color:#cfd7e6"/><stop offset=".037" style="stop-color:#dae0ec"/><stop offset=".126" style="stop-color:#eef1f6"/><stop offset=".215" style="stop-color:#fbfcfd"/><stop offset=".3" style="stop-color:#fff"/><stop offset=".7" style="stop-color:#fff"/><stop offset=".785" style="stop-color:#fbfcfd"/><stop offset=".874" style="stop-color:#eef1f6"/><stop offset=".963" style="stop-color:#dae0ec"/><stop offset="1" style="stop-color:#cfd7e6"/></linearGradient><path d="M42.72 39.04C40.01 37.16 36.51 36 32 36c-4.51 0-8.01 1.15-10.72 3.04-.44.3-.39.96.38.96h20.68c.77 0 .82-.66.38-.96z" style="fill:url(#b)"/><path d="M18.71 12.89c-8.63 7.4-2.27 7.55 5.79 2.19 4.54-3.03-.11-7.07-5.79-2.19zm26.58.01c-5.68-4.87-10.33-.83-5.78 2.19 8.05 5.37 14.42 5.21 5.78-2.19z" style="fill:#d69600"/></svg>