<svg xmlns="http://www.w3.org/2000/svg" xml:space="preserve" style="enable-background:new 0 0 64 64" viewBox="0 0 64 64"><linearGradient id="a" x1="32" x2="32" y1="62" y2="2" gradientUnits="userSpaceOnUse"><stop offset="0" style="stop-color:#ff9500"/><stop offset=".192" style="stop-color:#ffad00"/><stop offset=".545" style="stop-color:#ffd500"/><stop offset=".827" style="stop-color:#ffed00"/><stop offset="1" style="stop-color:#fff600"/></linearGradient><circle cx="32" cy="32" r="30" style="fill:url(#a)"/><path d="M39.67 50.47c-1.93-4.02-13.41-4.02-15.34 0-1.54 3.21 2.49 1.56 7.67 1.56 5.17 0 9.21 1.65 7.67-1.56zM27.26 31.49c-2.97 2.19-8.32 2.34-11.53 0-.74-.54-1.97-.17-1.7.46 2.8 6.42 12.13 6.41 14.93 0 .28-.62-.96-1-1.7-.46zm9.48 0c2.97 2.19 8.32 2.34 11.53 0 .74-.54 1.97-.17 1.7.46-2.8 6.42-12.13 6.41-14.93 0-.28-.62.96-1 1.7-.46z" style="fill:#1a1626"/><path d="M15.23 19.9c-10.26 4.91-4.15 6.71 5.02 3.61 5.17-1.74 1.73-6.85-5.02-3.61zm33.54.02c-6.75-3.24-10.2 1.87-5.02 3.61 9.17 3.09 15.28 1.3 5.02-3.61z" style="fill:#d69600"/><radialGradient id="b" cx="93.27" cy="-1055.251" r="9.546" fx="96.668" fy="-1050.411" gradientTransform="matrix(.6196 -.7859 1.2343 .9697 1289.547 1142.2)" gradientUnits="userSpaceOnUse"><stop offset=".055" style="stop-color:#73efff"/><stop offset=".285" style="stop-color:#70edff"/><stop offset=".446" style="stop-color:#67e5ff"/><stop offset=".587" style="stop-color:#57d8ff"/><stop offset=".715" style="stop-color:#42c7ff"/><stop offset=".835" style="stop-color:#25afff"/><stop offset=".948" style="stop-color:#0393ff"/><stop offset=".956" style="stop-color:#0091ff"/></radialGradient><path d="M51.43 41.81c-6.06-2.76-15.54.15-16.32.81-.31.27-.33.6.33.92 3.77 1.81 5.54 3.62 8.26 8.79 7.5 14.23 23.54-3.32 7.73-10.52z" style="fill:url(#b)"/><linearGradient id="c" x1="326.315" x2="326.315" y1="79.245" y2="68.942" gradientTransform="matrix(1.1848 -.00937 .00785 1 -342.491 -24.265)" gradientUnits="userSpaceOnUse"><stop offset=".053" style="stop-color:#c4eeff;stop-opacity:0"/><stop offset=".45" style="stop-color:#cdf0ff;stop-opacity:.4197"/><stop offset="1" style="stop-color:#d4f2ff"/></linearGradient><path d="M48.96 42.41c-4.61-1.75-11.85-.11-12.46.31-.24.17-.26.38.23.59 2.84 1.21 4.59 2.42 6.43 5.57 4.79 8.24 15.91-2.64 5.8-6.47z" style="fill:url(#c)"/></svg>