<svg xmlns="http://www.w3.org/2000/svg" xml:space="preserve" style="enable-background:new 0 0 64 64" viewBox="0 0 64 64"><linearGradient id="a" x1="32" x2="32" y1="62" y2="2" gradientUnits="userSpaceOnUse"><stop offset="0" style="stop-color:#ff9500"/><stop offset=".192" style="stop-color:#ffad00"/><stop offset=".545" style="stop-color:#ffd500"/><stop offset=".827" style="stop-color:#ffed00"/><stop offset="1" style="stop-color:#fff600"/></linearGradient><circle cx="32" cy="32" r="30" style="fill:url(#a)"/><radialGradient id="b" cx="14.189" cy="40.254" r="10" gradientUnits="userSpaceOnUse"><stop offset="0" style="stop-color:#ff6399;stop-opacity:.55"/><stop offset=".202" style="stop-color:#ff6596;stop-opacity:.4387"/><stop offset=".365" style="stop-color:#ff6c8c;stop-opacity:.3493"/><stop offset=".513" style="stop-color:#ff767b;stop-opacity:.2676"/><stop offset=".654" style="stop-color:#ff8663;stop-opacity:.1903"/><stop offset=".789" style="stop-color:#ff9a44;stop-opacity:.1162"/><stop offset=".917" style="stop-color:#ffb21f;stop-opacity:.0455"/><stop offset="1" style="stop-color:#ffc403;stop-opacity:0"/></radialGradient><circle cx="14.19" cy="40.25" r="10" style="fill:url(#b)"/><radialGradient id="c" cx="49.81" cy="40" r="10" gradientUnits="userSpaceOnUse"><stop offset="0" style="stop-color:#ff6399;stop-opacity:.55"/><stop offset=".202" style="stop-color:#ff6596;stop-opacity:.4387"/><stop offset=".365" style="stop-color:#ff6c8c;stop-opacity:.3493"/><stop offset=".513" style="stop-color:#ff767b;stop-opacity:.2676"/><stop offset=".654" style="stop-color:#ff8663;stop-opacity:.1903"/><stop offset=".789" style="stop-color:#ff9a44;stop-opacity:.1162"/><stop offset=".917" style="stop-color:#ffb21f;stop-opacity:.0455"/><stop offset="1" style="stop-color:#ffc403;stop-opacity:0"/></radialGradient><circle cx="49.81" cy="40" r="10" style="fill:url(#c)"/><path d="M32 32z" style="fill:#302c3b"/><path d="M37.11 52H26.89c-2.52 0-2.52-4 0-4H37.1c2.53 0 2.53 4 .01 4z" style="fill:#1a1626"/><circle cx="20" cy="29" r="9.5" style="fill:#fff"/><circle cx="44" cy="29" r="9.5" style="fill:#fff"/><circle cx="20" cy="29" r="4.5" style="fill:#1a1626"/><circle cx="44" cy="29" r="4.5" style="fill:#1a1626"/><path d="M18.59 9.84c-10.95 3.06-5.25 5.88 4.32 4.43 5.4-.82 2.89-6.44-4.32-4.43zm26.82.02c-7.21-2.01-9.72 3.61-4.32 4.43 9.57 1.45 15.27-1.37 4.32-4.43z" style="fill:#d69600"/></svg>