<svg xmlns="http://www.w3.org/2000/svg" xml:space="preserve" style="enable-background:new 0 0 64 64" viewBox="0 0 64 64"><linearGradient id="a" x1="32" x2="32" y1="62" y2="2" gradientUnits="userSpaceOnUse"><stop offset="0" style="stop-color:#ff9500"/><stop offset=".192" style="stop-color:#ffad00"/><stop offset=".545" style="stop-color:#ffd500"/><stop offset=".827" style="stop-color:#ffed00"/><stop offset="1" style="stop-color:#fff600"/></linearGradient><circle cx="32" cy="32" r="30" style="fill:url(#a)"/><linearGradient id="b" x1="22.605" x2="22.605" y1="26.651" y2="14.893" gradientUnits="userSpaceOnUse"><stop offset="0" style="stop-color:#005b91"/><stop offset="1" style="stop-color:#007ec9"/></linearGradient><path d="M26.97 21.24c-.21-.4-.69-.56-1.06-.35l-2 1.16.67-4.97a.861.861 0 0 0-.1-.54l-.64-1.21a.86.86 0 0 0-.47-.41.717.717 0 0 0-.59.06l-4.94 2.87c-.18.1-.31.28-.36.49-.05.21-.02.44.08.64l.67 1.27c.21.41.69.56 1.06.35l1.87-1.08-.66 4.88c-.02.18.01.37.1.54l.67 1.27c.18.34.55.51.88.42.06-.02.12-.04.17-.07l5.04-2.91c.18-.11.3-.28.36-.49.05-.21.03-.44-.08-.63l-.67-1.29z" style="fill:url(#b)"/><linearGradient id="c" x1="34.933" x2="34.933" y1="20.298" y2="5.656" gradientUnits="userSpaceOnUse"><stop offset="0" style="stop-color:#005b91"/><stop offset="1" style="stop-color:#007ec9"/></linearGradient><path d="M40.65 8.03a.788.788 0 0 0-.49-.37l-7.87-1.98c-.42-.11-.82.17-.91.61L31 8.24c-.04.21 0 .43.11.62s.29.32.49.37l3.61.91-5.47 4.73c-.13.12-.22.28-.26.45l-.38 1.95c-.04.21 0 .43.11.62s.29.32.49.37l8.02 2.02c.11.03.22.03.33 0a.783.783 0 0 0 .58-.62l.38-1.94c.08-.44-.19-.89-.6-.99l-3.83-.96 5.56-4.82c.13-.11.22-.28.26-.45l.36-1.84a.91.91 0 0 0-.11-.63z" style="fill:url(#c)"/><linearGradient id="d" x1="52.591" x2="52.591" y1="22.46" y2="2" gradientUnits="userSpaceOnUse"><stop offset="0" style="stop-color:#005b91"/><stop offset="1" style="stop-color:#007ec9"/></linearGradient><path d="M54.98 22.42c.19-.07.34-.21.43-.39l1.15-2.46c.18-.38.02-.83-.37-1.01l-5.83-2.76 10.13-5.03c.15-.07.28-.2.35-.35l1.1-2.34c.18-.38.02-.83-.36-1.01L51 2.07a.756.756 0 0 0-1.01.36L48.82 4.9c-.18.38-.02.83.36 1.01l5.54 2.62-9.97 4.95a.79.79 0 0 0-.35.35l-1.16 2.46a.775.775 0 0 0 .37 1.01l10.78 5.09c.19.08.4.09.59.03z" style="fill:url(#d)"/><path d="M27.26 35.49c-2.97 2.19-8.32 2.34-11.53 0-.74-.54-1.97-.17-1.7.46 2.8 6.42 12.13 6.41 14.93 0 .28-.62-.96-1-1.7-.46zm9.48 0c2.97 2.19 8.32 2.34 11.53 0 .74-.54 1.97-.17 1.7.46-2.8 6.42-12.13 6.41-14.93 0-.28-.62.96-1 1.7-.46zM37 52.55c0 5.88-10 5.88-10 0 0-3.09 2.24-5.59 5-5.59s5 2.5 5 5.59z" style="fill:#1a1626"/></svg>