<svg xmlns="http://www.w3.org/2000/svg" xml:space="preserve" style="enable-background:new 0 0 64 64" viewBox="0 0 64 64"><path d="M7.983 3.212c6.331 1.782 16.591 8.37 16.591 8.37L7.768 26.772s-4.875-9.436-3.53-21.81c.189-1.721 1.693-2.327 3.745-1.75z" style="fill:#ffe600"/><linearGradient id="a" x1="608.511" x2="627.412" y1="15.542" y2="15.542" gradientTransform="matrix(-1 0 0 1 631.273 .123)" gradientUnits="userSpaceOnUse"><stop offset="0" style="stop-color:#ba0085;stop-opacity:.7"/><stop offset="1" style="stop-color:#ff87f3;stop-opacity:.5"/></linearGradient><path d="M8.232 5.17c4.52 2.679 8.464 7.59 11.098 11.462L8.328 26.824S4.145 18.694 4.813 6.63c.108-1.98 1.141-2.813 3.42-1.46z" style="fill:url(#a)"/><path d="M55.968 3.212c-6.333 1.782-16.594 8.37-16.594 8.37l16.807 15.19s4.877-9.436 3.53-21.81c-.186-1.721-1.693-2.327-3.743-1.75z" style="fill:#ffe600"/><linearGradient id="b" x1="-35.298" x2="-16.397" y1="15.542" y2="15.542" gradientTransform="translate(76.484 .123)" gradientUnits="userSpaceOnUse"><stop offset="0" style="stop-color:#ba0085;stop-opacity:.7"/><stop offset="1" style="stop-color:#ff87f3;stop-opacity:.5"/></linearGradient><path d="M55.717 5.17c-4.52 2.679-8.464 7.59-11.098 11.462L55.62 26.824s4.184-8.13 3.516-20.194c-.108-1.98-1.14-2.813-3.42-1.46z" style="fill:url(#b)"/><path d="M27.48 18.89c-5.63-4.563-12.623-3.768-16.092-2.964-1.57.362-1.805.699-.668 1.45 1.672 1.106 3.48 2.917 4.978 5.66 1.867 3.408 14.19-2.188 11.782-4.146z" style="fill:#ffe600"/><path d="M25.536 18.987c-6.57-3.068-13.16-.599-16.331 1.017-1.429.733-1.58 1.114-.29 1.57 1.888.668 4.079 1.985 6.2 4.285 2.64 2.857 13.232-5.56 10.421-6.872zm10.984-.097c5.63-4.563 12.622-3.768 16.092-2.964 1.57.362 1.805.699.668 1.45-1.672 1.106-3.48 2.917-4.978 5.66-1.867 3.408-14.19-2.188-11.782-4.146z" style="fill:#ffe600"/><path d="M38.464 18.987c6.57-3.068 13.16-.599 16.331 1.017 1.429.733 1.58 1.114.29 1.57-1.888.668-4.08 1.985-6.2 4.285-2.64 2.857-13.232-5.56-10.421-6.872z" style="fill:#ffe600"/><linearGradient id="c" x1="32" x2="32" y1="61" y2="9.261" gradientUnits="userSpaceOnUse"><stop offset="0" style="stop-color:#f90"/><stop offset=".721" style="stop-color:#ffe600"/></linearGradient><path d="M32 9.261c-22.469 0-30.95 27.396-27.108 37.971C7.81 55.261 26.134 61 32.001 61c5.865 0 24.191-5.74 27.107-13.768C62.95 36.657 54.468 9.262 32 9.262z" style="fill:url(#c)"/><linearGradient id="d" x1="32" x2="32" y1="21.111" y2="9.237" gradientUnits="userSpaceOnUse"><stop offset="0" style="stop-color:#de9400;stop-opacity:.5"/><stop offset="1" style="stop-color:#de9400"/></linearGradient><path d="M30.17 9.343s1.83-.237 3.66 0c0 15.691-3.66 15.691-3.66 0z" style="fill:url(#d)"/><linearGradient id="e" x1="26.36" x2="26.36" y1="17.115" y2="9.572" gradientUnits="userSpaceOnUse"><stop offset="0" style="stop-color:#de9400;stop-opacity:.5"/><stop offset="1" style="stop-color:#de9400"/></linearGradient><path d="M27.956 9.572s-1.632.207-3 .665c-.864 9.473 1.394 9.076 3-.665z" style="fill:url(#e)"/><linearGradient id="f" x1="654.958" x2="654.958" y1="17.115" y2="9.572" gradientTransform="matrix(-1 0 0 1 692.6 0)" gradientUnits="userSpaceOnUse"><stop offset="0" style="stop-color:#de9400;stop-opacity:.5"/><stop offset="1" style="stop-color:#de9400"/></linearGradient><path d="M36.046 9.572s1.63.207 3 .665c.862 9.473-1.394 9.076-3-.665z" style="fill:url(#f)"/><linearGradient id="g" x1="53.21" x2="59.847" y1="45.523" y2="45.523" gradientUnits="userSpaceOnUse"><stop offset="0" style="stop-color:#de9400;stop-opacity:.5"/><stop offset="1" style="stop-color:#de9400"/></linearGradient><path d="M59.847 43.977s-.16 1.825-.683 3.093c-8.395-.79-7.68-2.829.683-3.093z" style="fill:url(#g)"/><linearGradient id="h" x1="53.384" x2="58.601" y1="49.849" y2="49.849" gradientUnits="userSpaceOnUse"><stop offset="0" style="stop-color:#de9400;stop-opacity:.5"/><stop offset="1" style="stop-color:#de9400"/></linearGradient><path d="M58.6 48.343s-1.088 1.95-2.46 3.035c-4.551-2.273-3.284-3.225 2.46-3.035z" style="fill:url(#h)"/><linearGradient id="i" x1="56.158" x2="59.979" y1="41.202" y2="41.202" gradientUnits="userSpaceOnUse"><stop offset="0" style="stop-color:#de9400;stop-opacity:.5"/><stop offset="1" style="stop-color:#de9400"/></linearGradient><path d="M59.966 42.592s.033-2.087-.006-2.78c-5.444 1.182-4.68 2.528.006 2.78z" style="fill:url(#i)"/><linearGradient id="j" x1="682.393" x2="689.03" y1="45.523" y2="45.523" gradientTransform="matrix(-1 0 0 1 693.184 0)" gradientUnits="userSpaceOnUse"><stop offset="0" style="stop-color:#de9400;stop-opacity:.5"/><stop offset="1" style="stop-color:#de9400"/></linearGradient><path d="M4.153 43.977s.16 1.825.683 3.093c8.397-.79 7.68-2.829-.683-3.093z" style="fill:url(#j)"/><linearGradient id="k" x1="682.568" x2="687.784" y1="49.849" y2="49.849" gradientTransform="matrix(-1 0 0 1 693.184 0)" gradientUnits="userSpaceOnUse"><stop offset="0" style="stop-color:#de9400;stop-opacity:.5"/><stop offset="1" style="stop-color:#de9400"/></linearGradient><path d="M5.4 48.343s1.09 1.95 2.46 3.035c4.551-2.273 3.283-3.225-2.46-3.035z" style="fill:url(#k)"/><linearGradient id="l" x1="685.341" x2="689.162" y1="41.202" y2="41.202" gradientTransform="matrix(-1 0 0 1 693.184 0)" gradientUnits="userSpaceOnUse"><stop offset="0" style="stop-color:#de9400;stop-opacity:.5"/><stop offset="1" style="stop-color:#de9400"/></linearGradient><path d="M4.034 42.592s-.033-2.087.008-2.78c5.442 1.182 4.68 2.528-.008 2.78z" style="fill:url(#l)"/><radialGradient id="m" cx="13.503" cy="47.904" r="10" gradientTransform="matrix(.9655 0 0 .9667 2.144 -4.537)" gradientUnits="userSpaceOnUse"><stop offset=".151" style="stop-color:#ff6442"/><stop offset=".295" style="stop-color:#fe6c3d;stop-opacity:.8253"/><stop offset=".517" style="stop-color:#fd812e;stop-opacity:.5569"/><stop offset=".786" style="stop-color:#fba415;stop-opacity:.23"/><stop offset=".976" style="stop-color:#f9c101;stop-opacity:0"/></radialGradient><path d="M15.18 32.105c5.332 0 9.656 4.33 9.656 9.668 0 5.34-4.324 9.667-9.655 9.667-5.333 0-9.656-4.327-9.656-9.667 0-5.337 4.322-9.668 9.655-9.668z" style="opacity:.6;fill:url(#m)"/><radialGradient id="n" cx="48.346" cy="47.686" r="10" gradientTransform="matrix(.9655 0 0 .9667 2.144 -4.537)" gradientUnits="userSpaceOnUse"><stop offset=".151" style="stop-color:#ff6442"/><stop offset=".295" style="stop-color:#fe6c3d;stop-opacity:.8253"/><stop offset=".517" style="stop-color:#fd812e;stop-opacity:.5569"/><stop offset=".786" style="stop-color:#fba415;stop-opacity:.23"/><stop offset=".976" style="stop-color:#f9c101;stop-opacity:0"/></radialGradient><path d="M48.821 31.893c5.331 0 9.656 4.331 9.656 9.669 0 5.341-4.325 9.667-9.656 9.667-5.335 0-9.655-4.326-9.655-9.667 0-5.337 4.32-9.668 9.655-9.668z" style="opacity:.6;fill:url(#n)"/><path d="M39.878 33.64c2.868-2.119 8.033-2.26 11.134 0 .717.523 1.904.16 1.638-.448-2.708-6.208-11.709-6.195-14.41 0-.266.608.925.975 1.638.449zm-26.888 0c2.868-2.119 8.035-2.26 11.134 0 .717.523 1.904.16 1.639-.448-2.708-6.208-11.711-6.195-14.414 0-.265.608.928.975 1.641.449z" style="fill:#674d21"/><path d="M34.308 55.76h-1.282a1.206 1.206 0 0 1-1.206-1.207c0-.668.54-1.209 1.206-1.209h1.282c.893 0 1.596-.17 1.98-.482a.882.882 0 0 0 .339-.722c0-1.591-1.985-2.42-1.985-2.42s1.977-.793 1.977-2.425a.88.88 0 0 0-.338-.72c-.38-.31-1.082-.48-1.973-.48h-1.282a1.207 1.207 0 0 1-1.206-1.21c0-.667.54-1.208 1.206-1.208h1.282c1.487 0 2.664.345 3.498 1.024a3.286 3.286 0 0 1 1.227 2.594c0 .91-.328 1.767-.854 2.42.53.654.862 1.512.862 2.425 0 1.027-.438 1.95-1.23 2.596-.835.68-2.014 1.025-3.503 1.025z" style="fill:#8f5d08"/><path d="M17.297 22.64c-8.012 2.24-3.84 4.309 3.16 3.245 3.95-.6 2.116-4.72-3.16-3.245zm29.404 0c-5.272-1.476-7.107 2.644-3.156 3.245 6.998 1.063 11.17-1.005 3.156-3.246z" style="fill:#c4810a"/><linearGradient id="o" x1="32" x2="32" y1="39.197" y2="22.677" gradientUnits="userSpaceOnUse"><stop offset="0" style="stop-color:#b97e00;stop-opacity:.4"/><stop offset=".422" style="stop-color:#b97e00;stop-opacity:0"/></linearGradient><path d="M36.866 37.855c-2.78-6.057 2.915-15.926 2.915-15.926H24.219s5.694 9.869 2.913 15.926h9.734z" style="fill:url(#o)"/><linearGradient id="p" x1="31.999" x2="31.999" y1="41.397" y2="36.397" gradientUnits="userSpaceOnUse"><stop offset="0" style="stop-color:#db758a"/><stop offset=".19" style="stop-color:#e7889c"/><stop offset=".465" style="stop-color:#f49cb0"/><stop offset=".737" style="stop-color:#fca9bc"/><stop offset="1" style="stop-color:#ffadc0"/></linearGradient><path d="M26.999 38.192c0 1.775 2.485 3.205 5 3.205 2.514 0 5-1.43 5-3.205 0-.896-1.331-1.795-5-1.795s-5 .9-5 1.795z" style="fill:url(#p)"/><path d="M35.737 39.5c.457-1.5-3.192.613-2.687 1.56 1.335-1.017 2.481-.885 2.687-1.56zm-7.477 0c-.456-1.5 3.193.613 2.686 1.56-1.332-1.017-2.48-.885-2.686-1.56z" style="opacity:.5;fill:#944446"/><path d="M39.432 40.928c8.325 2.128 13.71 10.72 13.673 11.427-.012.23-4.424-8.362-13.673-11.427z" style="fill:#f0e0d0"/><path d="M39.296 40.048c9.078.293 15.97 8.09 16.03 8.845.02.245-5.846-7.78-16.03-8.845z" style="fill:#f0e0d0"/><path d="M40.338 39.432c8.627-.714 16.03 4.06 16.19 4.804.052.242-6.472-4.853-16.19-4.803zm-15.77 1.496c-8.325 2.128-13.71 10.72-13.673 11.427.012.23 4.424-8.362 13.673-11.427z" style="fill:#f0e0d0"/><path d="M24.704 40.048c-9.078.293-15.97 8.09-16.03 8.845-.02.245 5.846-7.78 16.03-8.845z" style="fill:#f0e0d0"/><path d="M23.662 39.432c-8.627-.714-16.03 4.06-16.19 4.804-.052.242 6.472-4.853 16.19-4.803z" style="fill:#f0e0d0"/></svg>