<svg xmlns="http://www.w3.org/2000/svg" xml:space="preserve" style="enable-background:new 0 0 64 64" viewBox="0 0 64 64"><linearGradient id="a" x1="32" x2="32" y1="53.228" y2="12.001" gradientUnits="userSpaceOnUse"><stop offset="0" style="stop-color:#ff9500"/><stop offset=".01" style="stop-color:#ff9700"/><stop offset=".161" style="stop-color:#ffb400"/><stop offset=".311" style="stop-color:#ffc800"/><stop offset=".46" style="stop-color:#ffd500"/><stop offset=".604" style="stop-color:#ffd900"/><stop offset=".716" style="stop-color:#ffd600"/><stop offset=".79" style="stop-color:#ffcd00"/><stop offset=".853" style="stop-color:#ffbe00"/><stop offset=".91" style="stop-color:#ffa900"/><stop offset=".951" style="stop-color:#ff9500"/></linearGradient><path d="M53.035 10.617h-42.07C5.433 16.06 2 23.627 2 32c0 8.154 3.258 15.543 8.537 20.95h42.926C58.743 47.544 62 40.155 62 32c0-8.373-3.434-15.94-8.965-21.383z" style="fill:url(#a)"/><ellipse cx="22" cy="31" rx="4" ry="5.5" style="fill:#1a1626"/><ellipse cx="42" cy="31" rx="4" ry="5.5" style="fill:#1a1626"/><path d="M63.992 12.525c.19-.785-3.105-3.417-6.44-2.126-.499-.772-1.862-1.557-3.604-.354 0 0-2.889-2.671-7.101-.76 0 0 .364-1.822-1.89-1.67.177-3.886-2.106-5.493-5.238-4.658-.837-3.354-6.359-4.1-7.83-.456-.81-.709-4.698-2.683-7.182 1.114-2.62-5.62-10.287-4.075-11.124.456-.702-.152-4.159.43-5.185 2.937-11.39-3.015-11.109 13.72.325 10.428.404.974 2.821 1.658 4.59 1.114.31 2.1 3.86 4.252 7.182 2.733.972 1.873 4.293 1.873 5.292-.759 1.7 1.924 6.898 1.43 8.64-.81 2.079 2.683 8.1 3.316 9.126-1.468 0 0 1.917.456 3.078-.911.486.607 7.506 4.505 9.504-2.354 3.7-.102 7.493-.945 7.857-2.456z" style="fill:#e8f3f7"/><path d="M63.992 12.525c-.814.975-5.905-.197-7.664.858-.63-1.333-3.667-1.166-4.185.815 0 0-3.72-1.578-6.177 1.257 0 0-2.527-3.479-6.534-1.577-1.432-2.575-6.104-2.346-7.432.394-.756-4.05-5.24-3.554-6.724-.213-1.234-1.527-5.114-2.083-6.58.46-3.78-3.24-8.872-1.288-9.423.658-.62-.785-2.43-1.256-3.348.38C5.032 13.901 0 15.16.202 10.647c-1.024 3.814 1.851 8.709 8.52 6.788.406.974 2.822 1.658 4.59 1.114.311 2.1 3.862 4.252 7.183 2.733.972 1.873 4.293 1.873 5.292-.759 1.7 1.924 6.898 1.43 8.64-.81 2.079 2.683 8.1 3.316 9.126-1.468 0 0 1.917.456 3.078-.911.486.607 7.506 4.505 9.504-2.354 3.7-.102 7.493-.945 7.857-2.456z" style="fill:#c7ddeb"/><path d="M14.415 17.06c.514-3.046 5.494-4.421 7.19-1.706-2.03-.892-5.887.28-7.19 1.706zm12.715.234c.52-3.365 5.853-5.215 7.704-2.364-2.19-.835-6.32.714-7.703 2.364z" style="fill:#e8f3f7"/><path d="M5.04 51.44s3.158-2.671 7.761-.76c0 0-.398-1.823 2.066-1.671-.194-3.885 2.302-5.493 5.725-4.657.914-3.354 6.949-4.101 8.557-.456.885-.709 5.135-2.683 7.85 1.114 2.862-5.62 11.242-4.076 12.157.455.767-.152 4.544.43 5.665 2.938 12.449-3.016 12.142 13.72-.354 10.427-.442.975-3.083 1.658-5.016 1.114-.34 2.101-4.22 4.253-7.85 2.734-1.062 1.873-4.691 1.873-5.783-.76-1.859 1.924-7.54 1.43-9.443-.81-2.272 2.684-8.852 3.316-9.973-1.468 0 0-2.095.456-3.364-.91-.531.607-8.204 4.505-10.387-2.355-4.043-.101-3.325-6.388 2.39-4.936z" style="fill:#f0fbff"/><path d="M.126 53.61s.42 2.006 2.647 1.959c1.74-1.288 5.235-1.108 6.296 1.555 0 0 1.704-2.422 5.111-1.307 0 0 2.889-2.866 6.296.096C22 52.95 26 52.95 27.556 55.22c.826-4.05 6.934-3.974 8.557-.632 1.535-.76 6.65-1.758 9.148 1.725 2.65-2.892 8.25-1.69 8.853.256.678-.784 4.618-1.265 5.622.37.963-1.556 4.264 0 4.044-4.896 1.118 3.814-2.024 8.708-9.313 6.787-.442.975-3.083 1.659-5.016 1.114-.34 2.101-4.22 4.253-7.85 2.734-1.062 1.873-4.691 1.873-5.783-.76-1.859 1.925-7.54 1.43-9.443-.81-2.272 2.684-8.852 3.317-9.973-1.467 0 0-2.096.455-3.364-.912-.532.608-8.204 4.506-10.387-2.354-2.216.187-2.98-1.832-2.525-2.765z" style="fill:#d3e8f5"/><path d="M48.369 59.084c-.299-3.088-4.842-5.074-6.575-2.59 1.936-.633 5.449 1.012 6.575 2.59zm-23.797-2.576c-1.978-2.823-6.931-1.848-7.01 1.69 1.285-1.86 5.175-2.51 7.01-1.69z" style="fill:#f0fbff"/></svg>