<svg xmlns="http://www.w3.org/2000/svg" xml:space="preserve" style="enable-background:new 0 0 64 64" viewBox="0 0 64 64"><path d="M7.063 6.005c6.151-.13 16.91 2.548 16.91 2.548L11.877 24.454S5.427 18.257 4.02 8.27c-.195-1.388 1.049-2.223 3.043-2.265z" style="fill:#ffe600"/><linearGradient id="a" x1="618.639" x2="636.496" y1="-77.227" y2="-77.227" gradientTransform="scale(-1 1) rotate(14.999 -41.605 -2470.228)" gradientUnits="userSpaceOnUse"><stop offset="0" style="stop-color:#ba0085;stop-opacity:.7"/><stop offset="1" style="stop-color:#ff87f3;stop-opacity:.5"/></linearGradient><path d="M7.706 7.473c4.69 1.007 9.332 3.893 12.56 6.285l-7.866 10.6S6.858 19.017 4.9 9.436c-.323-1.573.44-2.471 2.806-1.963z" style="fill:url(#a)"/><path d="M56.938 6.005c-6.154-.13-16.913 2.548-16.913 2.548L52.12 24.454s6.455-6.196 7.86-16.183c.196-1.39-1.05-2.224-3.042-2.266z" style="fill:#ffe600"/><linearGradient id="b" x1="-1.752" x2="16.106" y1="100.426" y2="100.426" gradientTransform="rotate(14.999 354.934 217.951)" gradientUnits="userSpaceOnUse"><stop offset="0" style="stop-color:#ba0085;stop-opacity:.7"/><stop offset="1" style="stop-color:#ff87f3;stop-opacity:.5"/></linearGradient><path d="M56.293 7.473c-4.692 1.007-9.332 3.893-12.56 6.285l7.867 10.6s5.543-5.342 7.5-14.922c.324-1.573-.44-2.472-2.806-1.964z" style="fill:url(#b)"/><path d="M27.627 15.134c-5.447-4.398-12.212-3.632-15.569-2.857-1.518.35-1.746.673-.646 1.398 1.618 1.066 3.366 2.81 4.816 5.454 1.806 3.285 13.729-2.109 11.4-3.995z" style="fill:#ffe600"/><path d="M25.746 15.226c-6.356-2.956-12.73-.577-15.8.981-1.382.706-1.528 1.073-.28 1.512 1.826.644 3.946 1.914 5.998 4.13 2.555 2.754 12.8-5.358 10.082-6.623zm10.625-.092c5.448-4.398 12.213-3.632 15.57-2.857 1.518.35 1.746.673.646 1.398-1.618 1.066-3.366 2.81-4.816 5.454-1.806 3.285-13.73-2.109-11.4-3.995z" style="fill:#ffe600"/><path d="M38.253 15.226c6.356-2.956 12.73-.577 15.8.981 1.382.706 1.528 1.073.28 1.512-1.826.644-3.946 1.914-5.999 4.13-2.554 2.754-12.8-5.358-10.081-6.623z" style="fill:#ffe600"/><linearGradient id="c" x1="32" x2="32" y1="58" y2="6.459" gradientUnits="userSpaceOnUse"><stop offset="0" style="stop-color:#f90"/><stop offset=".721" style="stop-color:#ffe600"/></linearGradient><path d="M32 6.46C9.531 6.46 1.05 33.75 4.893 44.284 7.81 52.283 26.133 58 32 58c5.865 0 24.191-5.717 27.107-13.715C62.95 33.75 54.467 6.46 32 6.46z" style="fill:url(#c)"/><linearGradient id="d" x1="31.999" x2="31.999" y1="13.208" y2="6.435" gradientUnits="userSpaceOnUse"><stop offset="0" style="stop-color:#de9400;stop-opacity:.5"/><stop offset="1" style="stop-color:#de9400"/></linearGradient><path d="M30.17 6.54s1.83-.235 3.66 0c0 8.89-3.66 8.89-3.66 0z" style="fill:url(#d)"/><linearGradient id="e" x1="26.421" x2="26.421" y1="11.45" y2="6.769" gradientUnits="userSpaceOnUse"><stop offset="0" style="stop-color:#de9400;stop-opacity:.5"/><stop offset="1" style="stop-color:#de9400"/></linearGradient><path d="M27.955 6.77s-1.63.204-3 .661c-.515 5.619 2.013 5.299 3-.662z" style="fill:url(#e)"/><linearGradient id="f" x1="655.02" x2="655.02" y1="11.45" y2="6.769" gradientTransform="matrix(-1 0 0 1 692.6 0)" gradientUnits="userSpaceOnUse"><stop offset="0" style="stop-color:#de9400;stop-opacity:.5"/><stop offset="1" style="stop-color:#de9400"/></linearGradient><path d="M36.045 6.77s1.632.204 3 .661c.513 5.619-2.012 5.299-3-.662z" style="fill:url(#f)"/><linearGradient id="g" x1="53.209" x2="59.846" y1="42.582" y2="42.582" gradientUnits="userSpaceOnUse"><stop offset="0" style="stop-color:#de9400;stop-opacity:.5"/><stop offset="1" style="stop-color:#de9400"/></linearGradient><path d="M59.846 41.041s-.16 1.819-.683 3.083c-8.396-.788-7.68-2.82.683-3.083z" style="fill:url(#g)"/><linearGradient id="h" x1="53.383" x2="58.599" y1="46.891" y2="46.891" gradientUnits="userSpaceOnUse"><stop offset="0" style="stop-color:#de9400;stop-opacity:.5"/><stop offset="1" style="stop-color:#de9400"/></linearGradient><path d="M58.6 45.391s-1.089 1.944-2.46 3.023c-4.552-2.265-3.285-3.213 2.46-3.023z" style="fill:url(#h)"/><linearGradient id="i" x1="56.157" x2="59.978" y1="38.278" y2="38.278" gradientUnits="userSpaceOnUse"><stop offset="0" style="stop-color:#de9400;stop-opacity:.5"/><stop offset="1" style="stop-color:#de9400"/></linearGradient><path d="M59.965 39.662s.033-2.08-.006-2.768c-5.445 1.175-4.68 2.517.006 2.768z" style="fill:url(#i)"/><linearGradient id="j" x1="682.393" x2="689.03" y1="42.582" y2="42.582" gradientTransform="matrix(-1 0 0 1 693.184 0)" gradientUnits="userSpaceOnUse"><stop offset="0" style="stop-color:#de9400;stop-opacity:.5"/><stop offset="1" style="stop-color:#de9400"/></linearGradient><path d="M4.154 41.041s.16 1.819.683 3.083c8.396-.788 7.68-2.82-.683-3.083z" style="fill:url(#j)"/><linearGradient id="k" x1="682.567" x2="687.784" y1="46.891" y2="46.891" gradientTransform="matrix(-1 0 0 1 693.184 0)" gradientUnits="userSpaceOnUse"><stop offset="0" style="stop-color:#de9400;stop-opacity:.5"/><stop offset="1" style="stop-color:#de9400"/></linearGradient><path d="M5.4 45.391s1.09 1.944 2.46 3.023c4.551-2.265 3.283-3.213-2.46-3.023z" style="fill:url(#k)"/><linearGradient id="l" x1="685.341" x2="689.162" y1="38.278" y2="38.278" gradientTransform="matrix(-1 0 0 1 693.184 0)" gradientUnits="userSpaceOnUse"><stop offset="0" style="stop-color:#de9400;stop-opacity:.5"/><stop offset="1" style="stop-color:#de9400"/></linearGradient><path d="M4.035 39.662s-.034-2.08.007-2.768c5.442 1.175 4.68 2.517-.007 2.768z" style="fill:url(#l)"/><path d="M15.924 15.928c-7.16 4.223-2.594 5.137 3.89 2.306 3.66-1.597.824-5.087-3.89-2.306zm32.151 0c-4.712-2.781-7.55.71-3.888 2.306 6.485 2.831 11.05 1.917 3.889-2.306z" style="fill:#c4810a"/><path d="M39.876 27.65c2.869-2.11 8.034-2.252 11.134 0 .716.521 1.904.16 1.639-.446-2.708-6.184-11.71-6.173-14.411 0-.267.606.925.97 1.638.446zm-26.886 0c2.869-2.11 8.034-2.252 11.132 0 .717.521 1.905.16 1.64-.446-2.709-6.184-11.71-6.173-14.412 0-.266.606.928.97 1.64.446z" style="fill:#674d21"/><path d="M44.068 40.622c0 7.19-6.515 10.803-12.069 10.803-5.552 0-12.068-3.613-12.068-10.803 0 0 9.53-1.935 12.068-1.935 2.54 0 12.07 1.935 12.07 1.935z" style="fill:#1a1626"/><path d="M26.51 41.077a37.45 37.45 0 0 1 10.982 0c.708.107 1.832-1.458.98-1.59a44.176 44.176 0 0 0-12.94 0c-.854.132.269 1.697.978 1.59z" style="fill:#fff"/><path d="M38.993 49.533c-2.897-3.057-11.087-3.057-13.988 0 1.84 1.46 4.294 1.89 6.994 1.89 2.701 0 5.152-.43 6.994-1.89z" style="fill:#ed7196"/><path d="M24.578 40.569c.224 1.767 1.04 1.767 1.265 0 .054-.438.002-1.092.002-1.092h-1.27s-.053.654.003 1.092zm13.58 0c.224 1.767 1.04 1.767 1.264 0 .054-.438.002-1.092.002-1.092h-1.27s-.053.654.004 1.092z" style="fill:#fff"/><path d="M32 52.026c-6.144 0-12.673-3.996-12.673-11.404 0-.25.157-.476.394-.565.217-.08 5.4-1.972 12.278-1.972 6.88 0 12.063 1.892 12.28 1.972a.605.605 0 0 1 .393.565c0 7.408-6.529 11.404-12.673 11.404zM20.542 41.048c.247 6.354 6.02 9.775 11.456 9.775 5.439 0 11.21-3.421 11.458-9.773-1.338-.436-5.87-1.762-11.458-1.762-5.597 0-10.12 1.326-11.456 1.76z" style="fill:#8f5d08"/><path d="M32 35.49c-.219 0-.21 3.562 0 3.562.208 0 .218-3.562 0-3.562z" style="fill:#8f5d08"/><linearGradient id="m" x1="32" x2="32" y1="33.289" y2="16.769" gradientUnits="userSpaceOnUse"><stop offset="0" style="stop-color:#b97e00;stop-opacity:.4"/><stop offset=".422" style="stop-color:#b97e00;stop-opacity:0"/></linearGradient><path d="M36.866 31.947c-2.78-6.057 2.915-15.926 2.915-15.926H24.219s5.694 9.87 2.913 15.926h9.734z" style="fill:url(#m)"/><linearGradient id="n" x1="31.999" x2="31.999" y1="35.49" y2="30.49" gradientUnits="userSpaceOnUse"><stop offset="0" style="stop-color:#db758a"/><stop offset=".19" style="stop-color:#e7889c"/><stop offset=".465" style="stop-color:#f49cb0"/><stop offset=".737" style="stop-color:#fca9bc"/><stop offset="1" style="stop-color:#ffadc0"/></linearGradient><path d="M26.999 32.284c0 1.775 2.485 3.206 5 3.206 2.514 0 5-1.43 5-3.206 0-.895-1.331-1.794-5-1.794s-5 .899-5 1.794z" style="fill:url(#n)"/><path d="M35.737 33.593c.457-1.501-3.192.613-2.687 1.559 1.335-1.017 2.481-.884 2.687-1.56zm-7.477 0c-.456-1.501 3.193.613 2.686 1.559-1.332-1.017-2.48-.884-2.686-1.56z" style="opacity:.5;fill:#944446"/><path d="M39.898 35c8.848 2.128 14.57 10.72 14.531 11.427-.012.23-4.701-8.363-14.53-11.427z" style="fill:#f0e0d0"/><path d="M39.754 34.12c9.648.293 16.972 8.09 17.036 8.844.022.245-6.213-7.78-17.036-8.844z" style="fill:#f0e0d0"/><path d="M40.861 33.504c9.169-.714 17.037 4.06 17.206 4.804.056.242-6.877-4.853-17.206-4.804zM24.101 35c-8.847 2.128-14.57 10.72-14.53 11.427.012.23 4.701-8.363 14.53-11.427z" style="fill:#f0e0d0"/><path d="M24.246 34.12c-9.648.293-16.972 8.09-17.037 8.844-.021.245 6.214-7.78 17.037-8.844z" style="fill:#f0e0d0"/><path d="M23.138 33.504c-9.168-.714-17.036 4.06-17.206 4.804-.055.242 6.878-4.853 17.206-4.804z" style="fill:#f0e0d0"/><radialGradient id="o" cx="398.699" cy="-1066.295" r="7.821" fx="401.482" fy="-1062.329" gradientTransform="matrix(.9593 -.0543 .0878 1.5045 -235.551 1660.111)" gradientUnits="userSpaceOnUse"><stop offset=".055" style="stop-color:#73efff"/><stop offset=".285" style="stop-color:#70edff"/><stop offset=".446" style="stop-color:#67e5ff"/><stop offset=".587" style="stop-color:#57d8ff"/><stop offset=".715" style="stop-color:#42c7ff"/><stop offset=".835" style="stop-color:#25afff"/><stop offset=".948" style="stop-color:#0393ff"/><stop offset=".956" style="stop-color:#0091ff"/></radialGradient><path d="M58.93 36.128c-1.532-5.009-8.188-9.082-8.987-9.191-.319-.044-.526.12-.369.671.897 3.162.756 5.154-.87 9.448-4.482 11.835 14.218 12.135 10.225-.928z" style="fill:url(#o)"/><linearGradient id="p" x1="482.43" x2="482.43" y1="-159.626" y2="-167.731" gradientTransform="matrix(.7921 .8812 -.7438 .6685 -451.37 -280.939)" gradientUnits="userSpaceOnUse"><stop offset=".053" style="stop-color:#c4eeff;stop-opacity:0"/><stop offset=".45" style="stop-color:#cdf0ff;stop-opacity:.4197"/><stop offset="1" style="stop-color:#d4f2ff"/></linearGradient><path d="M57.283 34.987c-1.375-3.629-6.113-7.038-6.676-7.175-.224-.055-.361.045-.228.448.766 2.305.97 3.965.067 6.691-2.354 7.108 9.85 7.986 6.837.036z" style="fill:url(#p)"/><radialGradient id="q" cx="168.073" cy="-1068.479" r="7.821" fx="170.857" fy="-1064.513" gradientTransform="matrix(-.9593 -.0543 -.0878 1.5045 78.114 1650.87)" gradientUnits="userSpaceOnUse"><stop offset=".055" style="stop-color:#73efff"/><stop offset=".285" style="stop-color:#70edff"/><stop offset=".446" style="stop-color:#67e5ff"/><stop offset=".587" style="stop-color:#57d8ff"/><stop offset=".715" style="stop-color:#42c7ff"/><stop offset=".835" style="stop-color:#25afff"/><stop offset=".948" style="stop-color:#0393ff"/><stop offset=".956" style="stop-color:#0091ff"/></radialGradient><path d="M5.07 36.128c1.532-5.009 8.188-9.082 8.987-9.191.319-.044.525.12.369.671-.897 3.162-.756 5.154.87 9.448C19.778 48.89 1.078 49.19 5.07 36.128z" style="fill:url(#q)"/><linearGradient id="r" x1="357.395" x2="357.395" y1="5.191" y2="-2.913" gradientTransform="matrix(-.7921 .8812 .7438 .6685 293.738 -280.939)" gradientUnits="userSpaceOnUse"><stop offset=".053" style="stop-color:#c4eeff;stop-opacity:0"/><stop offset=".45" style="stop-color:#cdf0ff;stop-opacity:.4197"/><stop offset="1" style="stop-color:#d4f2ff"/></linearGradient><path d="M6.717 34.987c1.375-3.629 6.113-7.038 6.676-7.175.224-.055.361.045.227.448-.765 2.305-.969 3.965-.066 6.691 2.354 7.108-9.85 7.986-6.837.036z" style="fill:url(#r)"/></svg>