<svg xmlns="http://www.w3.org/2000/svg" xml:space="preserve" style="enable-background:new 0 0 64 64" viewBox="0 0 64 64"><linearGradient id="a" x1="32" x2="32" y1="62" y2="2" gradientUnits="userSpaceOnUse"><stop offset=".3" style="stop-color:#fa0"/><stop offset=".85" style="stop-color:#26b0ff"/></linearGradient><circle cx="32" cy="32" r="30" style="fill:url(#a)"/><ellipse cx="22" cy="33" rx="4" ry="5" style="fill:#1a1626"/><ellipse cx="42" cy="33" rx="4" ry="5" style="fill:#1a1626"/><path d="M42.93 51.77C43.61 47.62 38.83 43 32 43c-6.82 0-11.7 4.65-10.93 8.77.73 3.91 5.73 1.46 10.93 1.46 5.38.01 10.28 2.47 10.93-1.46z" style="fill:#1a1626"/><path d="M18.05 19.89c-9.79 5.79-3.55 7.04 5.32 3.16 5-2.19 1.12-6.97-5.32-3.16zm27.9.02c-6.44-3.81-10.32.97-5.32 3.16 8.87 3.88 15.11 2.62 5.32-3.16z" style="fill:#016abd"/><radialGradient id="b" cx="916.422" cy="-128.789" r="2.578" fx="916.422" fy="-126.921" gradientTransform="matrix(3.154 0 0 4.4839 -2880.283 620.932)" gradientUnits="userSpaceOnUse"><stop offset="0" style="stop-color:#73efff"/><stop offset=".187" style="stop-color:#6fecff"/><stop offset=".364" style="stop-color:#64e3ff"/><stop offset=".537" style="stop-color:#51d3ff"/><stop offset=".707" style="stop-color:#36bdff"/><stop offset=".874" style="stop-color:#14a1ff"/><stop offset=".956" style="stop-color:#0091ff"/></radialGradient><path d="M10.78 36.39c-.44-1.27-1.12-1.28-1.56 0C7.93 40.15 4 45.23 4 49.63c0 3.21 2.69 5.81 6 5.81s6-2.6 6-5.81c0-4.39-3.94-9.53-5.22-13.24z" style="fill:url(#b)"/><linearGradient id="c" x1="833.147" x2="836.103" y1="-130.478" y2="-133.09" gradientTransform="matrix(2.7319 0 0 3.0921 -2270.3 451.847)" gradientUnits="userSpaceOnUse"><stop offset=".053" style="stop-color:#c4eeff;stop-opacity:0"/><stop offset=".45" style="stop-color:#cdf0ff;stop-opacity:.4197"/><stop offset="1" style="stop-color:#d4f2ff"/></linearGradient><path d="M10.48 36.1c-.15-.58-.81-.58-.96 0-.8 3-3.59 7.99-3.59 11.51 0 4.23 8.14 4.23 8.14 0 0-3.52-2.8-8.55-3.59-11.51z" style="fill:url(#c)"/></svg>