<svg xmlns="http://www.w3.org/2000/svg" xml:space="preserve" style="enable-background:new 0 0 64 64" viewBox="0 0 64 64"><path d="M8.008 3.212c6.33 1.782 16.592 8.37 16.592 8.37L7.793 26.772s-4.875-9.436-3.53-21.81c.188-1.721 1.693-2.327 3.745-1.75z" style="fill:#ffe600"/><linearGradient id="a" x1="608.486" x2="627.386" y1="15.542" y2="15.542" gradientTransform="matrix(-1 0 0 1 631.273 .123)" gradientUnits="userSpaceOnUse"><stop offset="0" style="stop-color:#ba0085;stop-opacity:.7"/><stop offset="1" style="stop-color:#ff87f3;stop-opacity:.5"/></linearGradient><path d="M8.257 5.169c4.52 2.68 8.463 7.59 11.098 11.463L8.353 26.824S4.17 18.694 4.838 6.63c.108-1.98 1.14-2.813 3.419-1.461z" style="fill:url(#a)"/><path d="M55.993 3.212c-6.332 1.782-16.594 8.37-16.594 8.37l16.807 15.19s4.877-9.436 3.53-21.81c-.186-1.721-1.694-2.327-3.743-1.75z" style="fill:#ffe600"/><linearGradient id="b" x1="-35.273" x2="-16.372" y1="15.542" y2="15.542" gradientTransform="translate(76.484 .123)" gradientUnits="userSpaceOnUse"><stop offset="0" style="stop-color:#ba0085;stop-opacity:.7"/><stop offset="1" style="stop-color:#ff87f3;stop-opacity:.5"/></linearGradient><path d="M55.742 5.169c-4.52 2.68-8.464 7.59-11.098 11.463l11.002 10.192s4.183-8.13 3.515-20.194c-.108-1.98-1.141-2.813-3.419-1.461z" style="fill:url(#b)"/><path d="M27.48 18.89c-5.63-4.563-12.623-3.768-16.093-2.964-1.57.363-1.805.698-.668 1.45 1.674 1.106 3.48 2.917 4.979 5.66 1.867 3.409 14.19-2.188 11.783-4.146z" style="fill:#ffe600"/><path d="M25.536 18.987c-6.57-3.069-13.158-.599-16.331 1.017-1.43.733-1.58 1.114-.29 1.57 1.887.668 4.078 1.985 6.2 4.285 2.64 2.857 13.231-5.56 10.421-6.872zm10.984-.097c5.63-4.563 12.623-3.768 16.093-2.964 1.57.363 1.805.698.668 1.45-1.673 1.106-3.48 2.917-4.979 5.66-1.867 3.409-14.19-2.188-11.782-4.146z" style="fill:#ffe600"/><path d="M38.464 18.987c6.57-3.069 13.159-.599 16.331 1.017 1.43.733 1.58 1.114.29 1.57-1.887.668-4.078 1.985-6.2 4.285-2.64 2.857-13.231-5.56-10.421-6.872z" style="fill:#ffe600"/><linearGradient id="c" x1="32" x2="32" y1="61" y2="9.261" gradientUnits="userSpaceOnUse"><stop offset="0" style="stop-color:#f90"/><stop offset=".721" style="stop-color:#ffe600"/></linearGradient><path d="M32 9.261c-22.47 0-30.95 27.396-27.107 37.972C7.809 55.26 26.133 61 32 61c5.865 0 24.19-5.74 27.107-13.767C62.95 36.657 54.468 9.26 32 9.26z" style="fill:url(#c)"/><linearGradient id="d" x1="32" x2="32" y1="21.111" y2="9.237" gradientUnits="userSpaceOnUse"><stop offset="0" style="stop-color:#de9400;stop-opacity:.5"/><stop offset="1" style="stop-color:#de9400"/></linearGradient><path d="M30.17 9.343s1.83-.238 3.66 0c0 15.691-3.66 15.691-3.66 0z" style="fill:url(#d)"/><linearGradient id="e" x1="26.36" x2="26.36" y1="17.115" y2="9.572" gradientUnits="userSpaceOnUse"><stop offset="0" style="stop-color:#de9400;stop-opacity:.5"/><stop offset="1" style="stop-color:#de9400"/></linearGradient><path d="M27.956 9.572s-1.632.207-3 .665c-.865 9.473 1.392 9.076 3-.665z" style="fill:url(#e)"/><linearGradient id="f" x1="654.959" x2="654.959" y1="17.115" y2="9.572" gradientTransform="matrix(-1 0 0 1 692.6 0)" gradientUnits="userSpaceOnUse"><stop offset="0" style="stop-color:#de9400;stop-opacity:.5"/><stop offset="1" style="stop-color:#de9400"/></linearGradient><path d="M36.046 9.572s1.63.207 3 .665c.862 9.473-1.393 9.076-3-.665z" style="fill:url(#f)"/><linearGradient id="g" x1="53.209" x2="59.847" y1="45.524" y2="45.524" gradientUnits="userSpaceOnUse"><stop offset="0" style="stop-color:#de9400;stop-opacity:.5"/><stop offset="1" style="stop-color:#de9400"/></linearGradient><path d="M59.847 43.977s-.16 1.826-.683 3.093c-8.396-.79-7.681-2.829.683-3.093z" style="fill:url(#g)"/><linearGradient id="h" x1="53.384" x2="58.6" y1="49.848" y2="49.848" gradientUnits="userSpaceOnUse"><stop offset="0" style="stop-color:#de9400;stop-opacity:.5"/><stop offset="1" style="stop-color:#de9400"/></linearGradient><path d="M58.6 48.343s-1.087 1.95-2.459 3.034c-4.553-2.273-3.285-3.224 2.46-3.034z" style="fill:url(#h)"/><linearGradient id="i" x1="56.158" x2="59.979" y1="41.202" y2="41.202" gradientUnits="userSpaceOnUse"><stop offset="0" style="stop-color:#de9400;stop-opacity:.5"/><stop offset="1" style="stop-color:#de9400"/></linearGradient><path d="M59.966 42.592s.033-2.087-.006-2.78c-5.445 1.182-4.68 2.528.006 2.78z" style="fill:url(#i)"/><linearGradient id="j" x1="682.393" x2="689.03" y1="45.524" y2="45.524" gradientTransform="matrix(-1 0 0 1 693.184 0)" gradientUnits="userSpaceOnUse"><stop offset="0" style="stop-color:#de9400;stop-opacity:.5"/><stop offset="1" style="stop-color:#de9400"/></linearGradient><path d="M4.153 43.977s.161 1.826.683 3.093c8.397-.79 7.68-2.829-.683-3.093z" style="fill:url(#j)"/><linearGradient id="k" x1="682.568" x2="687.784" y1="49.848" y2="49.848" gradientTransform="matrix(-1 0 0 1 693.184 0)" gradientUnits="userSpaceOnUse"><stop offset="0" style="stop-color:#de9400;stop-opacity:.5"/><stop offset="1" style="stop-color:#de9400"/></linearGradient><path d="M5.4 48.343s1.088 1.95 2.46 3.034c4.55-2.273 3.283-3.224-2.46-3.034z" style="fill:url(#k)"/><linearGradient id="l" x1="685.342" x2="689.163" y1="41.202" y2="41.202" gradientTransform="matrix(-1 0 0 1 693.184 0)" gradientUnits="userSpaceOnUse"><stop offset="0" style="stop-color:#de9400;stop-opacity:.5"/><stop offset="1" style="stop-color:#de9400"/></linearGradient><path d="M4.034 42.592s-.033-2.087.007-2.78c5.443 1.182 4.68 2.528-.007 2.78z" style="fill:url(#l)"/><path d="M40.18 47c9.165 2.128 15.092 10.719 15.051 11.427-.013.23-4.87-8.363-15.05-11.427z" style="fill:#f0e0d0"/><path d="M40.031 46.12c9.993.293 17.579 8.09 17.646 8.844.022.245-6.436-7.78-17.646-8.845z" style="fill:#f0e0d0"/><path d="M41.178 45.504c9.497-.714 17.646 4.06 17.822 4.804.057.242-7.124-4.853-17.822-4.804zM23.819 47c-9.164 2.128-15.091 10.719-15.05 11.427.012.23 4.87-8.363 15.05-11.427z" style="fill:#f0e0d0"/><path d="M23.969 46.12c-9.993.293-17.579 8.09-17.646 8.844-.022.245 6.436-7.78 17.646-8.845z" style="fill:#f0e0d0"/><path d="M22.822 45.504C13.326 44.79 5.176 49.564 5 50.308c-.057.242 7.124-4.853 17.822-4.804z" style="fill:#f0e0d0"/><linearGradient id="m" x1="32.001" x2="32.001" y1="44.823" y2="28.303" gradientUnits="userSpaceOnUse"><stop offset="0" style="stop-color:#b97e00;stop-opacity:.4"/><stop offset=".422" style="stop-color:#b97e00;stop-opacity:0"/></linearGradient><path d="M36.867 43.481c-2.78-6.057 2.915-15.925 2.915-15.925H24.22s5.694 9.868 2.913 15.925h9.734z" style="fill:url(#m)"/><linearGradient id="n" x1="32" x2="32" y1="47.024" y2="42.024" gradientUnits="userSpaceOnUse"><stop offset="0" style="stop-color:#db758a"/><stop offset=".19" style="stop-color:#e7889c"/><stop offset=".465" style="stop-color:#f49cb0"/><stop offset=".737" style="stop-color:#fca9bc"/><stop offset="1" style="stop-color:#ffadc0"/></linearGradient><path d="M27 43.819c0 1.775 2.485 3.205 5 3.205 2.514 0 5-1.43 5-3.205 0-.896-1.331-1.795-5-1.795s-5 .899-5 1.794z" style="fill:url(#n)"/><path d="M35.738 45.127c.457-1.501-3.192.613-2.687 1.559 1.335-1.016 2.481-.884 2.687-1.56zm-7.478 0c-.455-1.501 3.194.613 2.687 1.559-1.332-1.016-2.48-.884-2.686-1.56z" style="opacity:.5;fill:#944446"/><path d="M32 47.024c-.218 0-.209 3.562 0 3.562.21 0 .219-3.562 0-3.562z" style="fill:#8f5d08"/><path d="M41.655 48.196c0 6.971-4.324 9.666-9.656 9.666-5.331 0-9.654-2.695-9.654-9.666 0 0 7.216 1.347 9.654 1.347 2.439 0 9.656-1.347 9.656-1.347z" style="fill:#1a1626"/><path d="M37.61 56.487c-2.325-2.22-8.896-2.22-11.22 0 1.477 1.06 3.442 1.373 5.61 1.373 2.167 0 4.135-.313 5.61-1.373z" style="fill:#ed7196"/><path d="M27.05 50.55c1.76 1.555 8.142 1.555 9.899 0 .436-.385.022-.96.022-.96h-9.94s-.416.575.02.96z" style="fill:#fff"/><path d="M25.736 50.269c.218 1.556 1.013 1.556 1.232 0 .053-.387.002-.963.002-.963h-1.237s-.051.576.003.963zm11.296 0c.219 1.556 1.013 1.556 1.232 0 .053-.387.002-.963.002-.963H37.03s-.052.576.002.963z" style="fill:#fff"/><path d="M32 58.467c-6.52 0-10.259-3.744-10.259-10.271a.604.604 0 0 1 .845-.554c.029.012 3.074 1.297 9.414 1.297 6.339 0 9.386-1.285 9.415-1.297a.604.604 0 0 1 .844.554c0 6.527-3.74 10.27-10.26 10.27zm-9.028-9.413c.398 7.113 5.774 8.204 9.027 8.204s8.631-1.091 9.03-8.204c-1.354.411-4.306 1.092-9.03 1.092-4.723 0-7.674-.68-9.027-1.092z" style="fill:#8f5d08"/><path d="M44.957 28.073c-4.94.042-6.872 4.493-6.48 7.7.292 2.386 12.76 1.014 12.914-.359.387-3.469-1.887-7.38-6.434-7.34z" style="fill:#ebb955"/><path d="M44.86 29.119c-3.525 0-6.379 2.772-6.379 6.188 0 2.953 2.351 6.19 6.38 6.19s5.864-3.774 5.864-6.19c0-3.416-2.339-6.188-5.864-6.188z" style="fill:#fff8d6"/><path d="M43.775 30.356c2.402 0 4.347 2.191 4.347 4.89 0 2.7-1.945 4.89-4.347 4.89-2.403 0-4.348-2.19-4.348-4.89 0-2.699 1.945-4.89 4.348-4.89z" style="fill:#1a1626"/><path d="M44.011 32.75c0 1.79-2.751 1.79-2.751 0 0-1.793 2.751-1.793 2.751 0z" style="fill:#fff"/><path d="M19.043 28.073c4.94.042 6.873 4.493 6.48 7.7-.292 2.386-12.76 1.014-12.914-.359-.387-3.469 1.887-7.38 6.434-7.34z" style="fill:#ebb955"/><path d="M19.14 29.119c3.525 0 6.379 2.772 6.379 6.188 0 2.953-2.35 6.19-6.38 6.19-4.028 0-5.864-3.774-5.864-6.19 0-3.416 2.339-6.188 5.865-6.188z" style="fill:#fff8d6"/><path d="M20.225 30.356c-2.402 0-4.347 2.191-4.347 4.89 0 2.7 1.945 4.89 4.347 4.89 2.404 0 4.349-2.19 4.349-4.89 0-2.699-1.945-4.89-4.349-4.89z" style="fill:#1a1626"/><path d="M19.99 32.75c0 1.79 2.75 1.79 2.75 0 0-1.793-2.75-1.793-2.75 0z" style="fill:#fff"/></svg>