<svg xmlns="http://www.w3.org/2000/svg" xml:space="preserve" style="enable-background:new 0 0 64 64" viewBox="0 0 64 64"><path d="M7.981 3.212c6.332 1.782 16.592 8.37 16.592 8.37L7.767 26.772s-4.875-9.436-3.529-21.81c.187-1.721 1.692-2.327 3.743-1.75z" style="fill:#ffe600"/><linearGradient id="a" x1="608.512" x2="627.411" y1="15.542" y2="15.542" gradientTransform="matrix(-1 0 0 1 631.273 .123)" gradientUnits="userSpaceOnUse"><stop offset="0" style="stop-color:#ba0085;stop-opacity:.7"/><stop offset="1" style="stop-color:#ff87f3;stop-opacity:.5"/></linearGradient><path d="M8.23 5.17c4.521 2.679 8.464 7.59 11.1 11.462L8.326 26.824s-4.18-8.13-3.512-20.194C4.92 4.65 5.952 3.817 8.23 5.17z" style="fill:url(#a)"/><path d="M55.968 3.212c-6.333 1.782-16.594 8.37-16.594 8.37l16.807 15.19s4.877-9.436 3.53-21.81c-.186-1.721-1.693-2.327-3.743-1.75z" style="fill:#ffe600"/><linearGradient id="b" x1="-35.299" x2="-16.397" y1="15.542" y2="15.542" gradientTransform="translate(76.484 .123)" gradientUnits="userSpaceOnUse"><stop offset="0" style="stop-color:#ba0085;stop-opacity:.7"/><stop offset="1" style="stop-color:#ff87f3;stop-opacity:.5"/></linearGradient><path d="M55.717 5.17c-4.52 2.679-8.464 7.59-11.099 11.462L55.62 26.824s4.183-8.13 3.516-20.194c-.108-1.98-1.142-2.813-3.42-1.46z" style="fill:url(#b)"/><path d="M27.48 18.89c-5.631-4.563-12.624-3.768-16.094-2.964-1.57.362-1.805.699-.668 1.45 1.673 1.106 3.48 2.917 4.978 5.66 1.868 3.408 14.192-2.188 11.784-4.146z" style="fill:#ffe600"/><path d="M25.535 18.987c-6.57-3.068-13.159-.599-16.33 1.017-1.43.733-1.582 1.114-.292 1.57 1.888.668 4.08 1.985 6.201 4.285 2.64 2.857 13.232-5.56 10.421-6.872zm10.984-.097c5.63-4.563 12.624-3.768 16.093-2.964 1.57.362 1.805.699.668 1.45-1.673 1.106-3.48 2.917-4.978 5.66-1.867 3.408-14.192-2.188-11.783-4.146z" style="fill:#ffe600"/><path d="M38.463 18.987c6.57-3.068 13.16-.599 16.331 1.017 1.43.733 1.581 1.114.291 1.57-1.888.668-4.08 1.985-6.201 4.285-2.64 2.857-13.23-5.56-10.421-6.872z" style="fill:#ffe600"/><linearGradient id="c" x1="32" x2="32" y1="61" y2="9.262" gradientUnits="userSpaceOnUse"><stop offset="0" style="stop-color:#f90"/><stop offset=".721" style="stop-color:#ffe600"/></linearGradient><path d="M32 9.262c-22.47 0-30.951 27.395-27.107 37.97C7.809 55.261 26.133 61 32 61c5.865 0 24.192-5.74 27.108-13.768C62.95 36.657 54.468 9.262 32 9.262z" style="fill:url(#c)"/><linearGradient id="d" x1="31.999" x2="31.999" y1="21.111" y2="9.238" gradientUnits="userSpaceOnUse"><stop offset="0" style="stop-color:#de9400;stop-opacity:.5"/><stop offset="1" style="stop-color:#de9400"/></linearGradient><path d="M30.169 9.343s1.831-.237 3.66 0c0 15.691-3.66 15.691-3.66 0z" style="fill:url(#d)"/><linearGradient id="e" x1="26.359" x2="26.359" y1="17.115" y2="9.572" gradientUnits="userSpaceOnUse"><stop offset="0" style="stop-color:#de9400;stop-opacity:.5"/><stop offset="1" style="stop-color:#de9400"/></linearGradient><path d="M27.955 9.572s-1.632.207-3 .665c-.864 9.473 1.393 9.076 3-.665z" style="fill:url(#e)"/><linearGradient id="f" x1="654.959" x2="654.959" y1="17.115" y2="9.572" gradientTransform="matrix(-1 0 0 1 692.6 0)" gradientUnits="userSpaceOnUse"><stop offset="0" style="stop-color:#de9400;stop-opacity:.5"/><stop offset="1" style="stop-color:#de9400"/></linearGradient><path d="M36.045 9.572s1.632.207 3.001.665c.861 9.473-1.394 9.076-3.001-.665z" style="fill:url(#f)"/><linearGradient id="g" x1="53.209" x2="59.847" y1="45.523" y2="45.523" gradientUnits="userSpaceOnUse"><stop offset="0" style="stop-color:#de9400;stop-opacity:.5"/><stop offset="1" style="stop-color:#de9400"/></linearGradient><path d="M59.847 43.977s-.16 1.825-.683 3.093c-8.396-.79-7.681-2.829.683-3.093z" style="fill:url(#g)"/><linearGradient id="h" x1="53.383" x2="58.6" y1="49.848" y2="49.848" gradientUnits="userSpaceOnUse"><stop offset="0" style="stop-color:#de9400;stop-opacity:.5"/><stop offset="1" style="stop-color:#de9400"/></linearGradient><path d="M58.6 48.343s-1.088 1.95-2.46 3.034c-4.552-2.273-3.284-3.224 2.46-3.034z" style="fill:url(#h)"/><linearGradient id="i" x1="56.158" x2="59.979" y1="41.202" y2="41.202" gradientUnits="userSpaceOnUse"><stop offset="0" style="stop-color:#de9400;stop-opacity:.5"/><stop offset="1" style="stop-color:#de9400"/></linearGradient><path d="M59.966 42.592s.033-2.087-.006-2.78c-5.444 1.182-4.68 2.528.006 2.78z" style="fill:url(#i)"/><linearGradient id="j" x1="682.393" x2="689.03" y1="45.523" y2="45.523" gradientTransform="matrix(-1 0 0 1 693.184 0)" gradientUnits="userSpaceOnUse"><stop offset="0" style="stop-color:#de9400;stop-opacity:.5"/><stop offset="1" style="stop-color:#de9400"/></linearGradient><path d="M4.153 43.977s.16 1.825.683 3.093c8.396-.79 7.68-2.829-.683-3.093z" style="fill:url(#j)"/><linearGradient id="k" x1="682.568" x2="687.785" y1="49.848" y2="49.848" gradientTransform="matrix(-1 0 0 1 693.184 0)" gradientUnits="userSpaceOnUse"><stop offset="0" style="stop-color:#de9400;stop-opacity:.5"/><stop offset="1" style="stop-color:#de9400"/></linearGradient><path d="M5.399 48.343s1.09 1.95 2.46 3.034c4.551-2.273 3.284-3.224-2.46-3.034z" style="fill:url(#k)"/><linearGradient id="l" x1="685.343" x2="689.163" y1="41.202" y2="41.202" gradientTransform="matrix(-1 0 0 1 693.184 0)" gradientUnits="userSpaceOnUse"><stop offset="0" style="stop-color:#de9400;stop-opacity:.5"/><stop offset="1" style="stop-color:#de9400"/></linearGradient><path d="M4.034 42.592s-.033-2.087.006-2.78c5.442 1.182 4.68 2.528-.006 2.78z" style="fill:url(#l)"/><path d="M21.288 23.39c-8.207-1.36-5.299 2.28 1.494 4.277 3.832 1.127 3.91-3.382-1.494-4.277zm22.771-1.973c-5.404.894-5.326 5.404-1.492 4.276 6.79-1.997 9.699-5.636 1.492-4.276z" style="fill:#c4810a"/><path d="M39.513 46.243c9.017-2.684 18.418 1.85 18.732 2.487.103.206-8.369-4.86-18.732-2.487z" style="fill:#f0e0d0"/><path d="M39.019 45.498c9.068-4.208 19.34-.63 19.738.016.13.209-9.236-4.079-19.738-.016z" style="fill:#f0e0d0"/><path d="M39.818 44.471c8.392-4.502 17.777-3.44 18.24-2.83.15.197-8.48-1.55-18.24 2.83zm-14.252 2.542c-8.68 3.63-13.085 13.093-12.926 13.784.051.225 3.401-9.06 12.926-13.784z" style="fill:#f0e0d0"/><path d="M25.566 46.12C15.763 48.08 9.589 57.036 9.649 57.791c.02.246 5.043-8.747 15.917-11.673z" style="fill:#f0e0d0"/><path d="M24.332 45.705c-9.482.884-16.717 6.954-16.766 7.718-.016.248 6.211-5.977 16.766-7.718z" style="fill:#f0e0d0"/><path d="M44.957 28.073c-4.94.042-6.872 4.493-6.48 7.7.292 2.386 12.76 1.014 12.914-.359.387-3.47-1.887-7.38-6.434-7.34z" style="fill:#ebb955"/><path d="M44.86 29.119c-3.525 0-6.379 2.772-6.379 6.188 0 2.953 2.351 6.19 6.38 6.19s5.864-3.774 5.864-6.19c0-3.416-2.339-6.188-5.864-6.188z" style="fill:#fff8d6"/><path d="M43.775 30.356c2.402 0 4.347 2.191 4.347 4.89 0 2.7-1.945 4.89-4.347 4.89-2.403 0-4.348-2.19-4.348-4.89 0-2.699 1.944-4.89 4.348-4.89z" style="fill:#1a1626"/><path d="M44.011 32.75c0 1.79-2.751 1.79-2.751 0 0-1.793 2.751-1.793 2.751 0z" style="fill:#fff"/><path d="M19.043 28.073c4.94.042 6.873 4.493 6.48 7.7-.292 2.386-12.76 1.014-12.914-.359-.387-3.47 1.887-7.38 6.434-7.34z" style="fill:#ebb955"/><path d="M19.14 29.119c3.525 0 6.379 2.772 6.379 6.188 0 2.953-2.35 6.19-6.38 6.19-4.028 0-5.864-3.774-5.864-6.19 0-3.416 2.339-6.188 5.865-6.188z" style="fill:#fff8d6"/><path d="M20.225 30.356c-2.402 0-4.347 2.191-4.347 4.89 0 2.7 1.945 4.89 4.347 4.89 2.404 0 4.349-2.19 4.349-4.89 0-2.699-1.945-4.89-4.349-4.89z" style="fill:#1a1626"/><path d="M19.99 32.75c0 1.79 2.75 1.79 2.75 0 0-1.793-2.75-1.793-2.75 0z" style="fill:#fff"/><path d="M32 48.024c-.218 0-.209 3.562 0 3.562.21 0 .219-3.562 0-3.562z" style="fill:#8f5d08"/><path d="M42.439 46.024c-1.319 2.062-4.77 6.162-14.522 4.927-1.983-.252-2.388 2.223-.311 2.537 10.355 1.57 14.474-2.909 15.511-7.196.11-.45-.403-.697-.678-.268z" style="fill:#8f5d08"/><linearGradient id="m" x1="32" x2="32" y1="45.823" y2="29.303" gradientUnits="userSpaceOnUse"><stop offset="0" style="stop-color:#b97e00;stop-opacity:.4"/><stop offset=".422" style="stop-color:#b97e00;stop-opacity:0"/></linearGradient><path d="M36.866 44.481c-2.78-6.057 2.915-15.926 2.915-15.926H24.219s5.694 9.87 2.913 15.926h9.734z" style="fill:url(#m)"/><linearGradient id="n" x1="31.999" x2="31.999" y1="48.024" y2="43.024" gradientUnits="userSpaceOnUse"><stop offset="0" style="stop-color:#db758a"/><stop offset=".19" style="stop-color:#e7889c"/><stop offset=".465" style="stop-color:#f49cb0"/><stop offset=".737" style="stop-color:#fca9bc"/><stop offset="1" style="stop-color:#ffadc0"/></linearGradient><path d="M26.999 44.818c0 1.775 2.485 3.206 5 3.206 2.514 0 5-1.43 5-3.206 0-.895-1.331-1.794-5-1.794s-5 .899-5 1.794z" style="fill:url(#n)"/><path d="M35.737 46.127c.457-1.501-3.192.613-2.687 1.559 1.335-1.016 2.481-.884 2.687-1.56zm-7.477 0c-.456-1.501 3.193.613 2.686 1.559-1.332-1.016-2.48-.884-2.686-1.56z" style="opacity:.5;fill:#944446"/></svg>