<svg xmlns="http://www.w3.org/2000/svg" xml:space="preserve" style="enable-background:new 0 0 64 64" viewBox="0 0 64 64"><path d="M3.68 52.13c1.14 1.15.4 7.83.4 8.51 0 1.81 15.68 1.81 15.68 0 0-.62-.47-7.57.88-8.51H3.68z" style="fill:#8c5f44"/><path d="M20.06 52.13c-1.21 3.36-.31 7.75-.31 8.51.36-.77-.03-5.33 1.35-8.51h-1.04zm-15.88 0H3.13c1.44 3.39.66 7.82.95 8.51-.04-.69 1.08-5.11.1-8.51z" style="fill:#70513d"/><radialGradient id="a" cx="231.983" cy="-608.663" r="27.307" gradientTransform="matrix(-.006 .9966 -1.186 .0072 -708.892 -199.732)" gradientUnits="userSpaceOnUse"><stop offset=".689" style="stop-color:#b88a6f"/><stop offset=".87" style="stop-color:#a07358"/><stop offset="1" style="stop-color:#8c5f44"/></radialGradient><path d="M26.98 34.6c-3.98 3.54-4.61 7.9-5.22 1.22-.32-3.45-.32-8.18-.36-14.31-.02-3.2-4.54-2.73-4.63-.45-.16 4.36-.25 13.83-.25 13.83s-.38-15.54-.39-16.43c-.03-2.41-4.86-2.94-4.99.25-.17 4.35-.29 15.89-.29 15.89s-.18-11.13-.37-14.34c-.13-2.22-4.14-2.25-4.36.41-.21 2.55-.39 13.95-.39 13.95s-.16-6.96-.13-8.44c.06-2.65-3.63-2.26-3.99.13-.51 3.34-.52 7.02-.79 10.04-1.05 11.82.34 19.27 11.05 18.27 14.18 1.72 12.02-7.94 19.93-18.57 1.26-1.7-1.86-4.08-4.82-1.45z" style="fill:url(#a)"/><path d="M27.91 33.31c-1.4.69-3.05 2.69-4.12 4.26-1 1.47-1.3.83-1.4-.37-.24-2.9-.45-10.49-.48-14.5l-.01-1.2c-.01-1.88-1.39-2.75-2.75-2.77h-.05c-.94 0-1.92.41-2.45 1.13-.02-.76-.03-1.27-.03-1.41-.02-1.57-1.57-2.44-3.02-2.46-1.46-.01-2.92.81-2.99 2.7-.01.14-.01.29-.02.45-.43-.61-1.2-.99-2.12-1h-.03c-1.28 0-2.71.78-2.85 2.49-.06.72-.12 2.14-.17 3.8-.38-.35-.87-.52-1.33-.56-1.29-.1-2.77.76-3.01 2.37-.33 2.16-.45 4.43-.57 6.62-.07 1.22-.13 2.37-.22 3.45-.76 8.53-.69 17.55 7.77 18.49-6.64-2.23-7.73-7.29-6.75-18.41.1-1.09.16-2.25.23-3.48.12-2.17.24-4.41.56-6.53.16-1.03 1.11-1.6 1.92-1.54.69.05 1.07.54 1.06 1.32-.03 1.49.32 9.14.32 9.14l.77-.17s.25-11.91.46-14.42c.09-1.1.98-1.59 1.83-1.59h.02c.71.01 1.44.37 1.49 1.17.19 3.17.51 14.54.51 14.54h.75s.26-11.81.42-16.1c.05-1.3 1.02-1.76 1.92-1.76h.03c.98.01 2 .57 2.01 1.49.01.88.55 16.56.55 16.56l.75-.01s.21-9.64.37-13.95c.03-.87.96-1.36 1.86-1.36.41.01 1.73.15 1.74 1.79l.01 1.2c.02 4.21.32 11.4.61 14.89.21 2.62 1.76 2.47 2.76 1 .94-1.37 2.34-3.49 4.25-4.51 2.18-1.16 3.53.95 2.69 1.89-5.96 6.68-4.05 14.33-14.17 18.82 9.9-1.55 9.78-12.83 14.94-18.19 1.68-1.72-.57-5-4.06-3.28z" style="fill:#70513d"/><path d="M17.55 35.35c-1.42-.26-2.15-.06-2.15-.06s.94-.34 1.14-1.2c.38.86 1.01 1.26 1.01 1.26zm-5.69-.05c-.95-.38-2.21 0-2.21 0s.94-.65 1.22-1.39c.38.85.99 1.39.99 1.39zm-6.15-.97c-.08.99-.99 1.48-.99 1.48s.81-.23 2.33-.5c0 0-.96-.22-1.34-.98z" style="fill:#70513d"/><path d="M19.53 40.34c-7.82 2.49-7.99 9.04-7.53 11.68.1.57.29.36.33-.01.26-2.78 1.15-8.39 7.35-11.4.6-.29.49-.47-.15-.27z" style="opacity:.3;fill:#70513d"/><path d="M60.32 52.13c-1.14 1.15-.4 7.83-.4 8.51 0 1.81-15.68 1.81-15.68 0 0-.62.47-7.57-.88-8.51h16.96z" style="fill:#8c5f44"/><path d="M43.94 52.13c1.21 3.36.31 7.75.31 8.51-.36-.77.03-5.33-1.35-8.51h1.04zm15.88 0h1.05c-1.44 3.39-.66 7.82-.95 8.51.04-.69-1.08-5.11-.1-8.51z" style="fill:#70513d"/><radialGradient id="b" cx="697.475" cy="-605.861" r="27.307" gradientTransform="matrix(.006 .9966 1.186 .0072 766.775 -663.661)" gradientUnits="userSpaceOnUse"><stop offset=".689" style="stop-color:#b88a6f"/><stop offset=".87" style="stop-color:#a07358"/><stop offset="1" style="stop-color:#8c5f44"/></radialGradient><path d="M37.02 34.6c3.98 3.54 4.61 7.9 5.22 1.22.32-3.45.32-8.18.36-14.31.02-3.2 4.54-2.73 4.63-.45.16 4.36.25 13.83.25 13.83s.38-15.54.39-16.43c.03-2.41 4.86-2.94 4.99.25.17 4.35.29 15.89.29 15.89s.18-11.13.37-14.34c.13-2.22 4.14-2.25 4.36.41.21 2.55.39 13.95.39 13.95s.16-6.96.13-8.44c-.06-2.65 3.63-2.26 3.99.13.51 3.34.53 7.02.79 10.04 1.05 11.82-.34 19.27-11.05 18.27-14.18 1.72-12.02-7.94-19.93-18.57-1.26-1.7 1.86-4.08 4.82-1.45z" style="fill:url(#b)"/><path d="M36.09 33.31c1.4.69 3.05 2.69 4.12 4.26 1 1.47 1.3.83 1.4-.37.24-2.9.45-10.49.48-14.5l.01-1.2c.01-1.88 1.39-2.75 2.75-2.77h.05c.94 0 1.92.41 2.45 1.13.02-.76.03-1.27.03-1.41.02-1.57 1.57-2.44 3.02-2.46 1.46-.01 2.92.81 2.99 2.7.01.14.01.29.02.45.43-.61 1.2-.99 2.12-1h.03c1.28 0 2.71.78 2.85 2.49.06.72.12 2.14.17 3.8.38-.35.87-.52 1.33-.56 1.29-.1 2.77.76 3.01 2.37.33 2.16.45 4.43.57 6.62.07 1.22.13 2.37.22 3.45.76 8.53.69 17.55-7.77 18.49 6.64-2.23 7.73-7.29 6.75-18.41-.1-1.09-.16-2.25-.23-3.48-.12-2.17-.24-4.41-.56-6.53-.16-1.03-1.11-1.6-1.92-1.54-.69.05-1.07.54-1.06 1.32.03 1.48-.32 9.13-.32 9.13l-.77-.17s-.25-11.91-.46-14.42c-.09-1.1-.98-1.59-1.83-1.59h-.02c-.71.01-1.44.37-1.49 1.17-.19 3.17-.51 14.54-.51 14.54h-.75s-.26-11.81-.42-16.1c-.05-1.3-1.02-1.76-1.92-1.76h-.03c-.98.01-2 .57-2.01 1.49-.01.88-.55 16.56-.55 16.56l-.75-.01s-.21-9.64-.37-13.95c-.03-.87-.96-1.36-1.86-1.36-.41.01-1.73.15-1.74 1.79l-.01 1.2c-.02 4.21-.32 11.4-.61 14.89-.21 2.62-1.76 2.47-2.76 1-.94-1.37-2.34-3.49-4.25-4.51-2.18-1.16-3.53.95-2.69 1.89 5.96 6.68 4.05 14.33 14.17 18.82-9.9-1.55-9.78-12.83-14.94-18.19-1.68-1.71.57-4.99 4.06-3.27z" style="fill:#70513d"/><path d="M46.45 35.35c1.42-.26 2.15-.06 2.15-.06s-.94-.34-1.14-1.2c-.38.86-1.01 1.26-1.01 1.26zm5.69-.05c.95-.38 2.21 0 2.21 0s-.94-.65-1.22-1.39c-.38.85-.99 1.39-.99 1.39zm6.15-.97c.08.99.99 1.48.99 1.48s-.81-.23-2.33-.5c0 0 .96-.22 1.34-.98z" style="fill:#70513d"/><path d="M44.47 40.34c7.82 2.49 7.99 9.04 7.53 11.68-.1.57-.29.36-.33-.01-.26-2.78-1.15-8.39-7.35-11.4-.6-.29-.49-.47.15-.27z" style="opacity:.3;fill:#70513d"/><path d="M30.03 5.06c0 4.17 2 8.94 2 8.94s2-4.77 2-8.94c0-6.75-4-6.75-4 0zM19.8 7.26C21.89 10.87 26 14 26 14s-.65-5.13-2.73-8.74c-3.38-5.85-6.85-3.85-3.47 2zm20.93-2C38.65 8.87 38 14 38 14s4.11-3.13 6.2-6.74c3.38-5.84-.09-7.85-3.47-2z" style="fill:#0fb4d4"/></svg>