<svg xmlns="http://www.w3.org/2000/svg" xml:space="preserve" style="enable-background:new 0 0 64 64" viewBox="0 0 64 64"><path d="M11.432 48.718C13.934 47.43 22.5 44.63 22.5 44.63l18.977-.035s8.662 2.827 11.148 4.12C56.24 50.588 57 54.477 57 59.56c0 3.254-50 3.254-50 0 0-5.086.807-8.976 4.432-10.842z" style="fill:#3ab0a2"/><path d="m16.027 61.483-.695-.066c0-7.034.695-6.968.695.066zm32.639-.066-.693.066c0-7.034.693-7.1.693-.066zM22.5 44.63c0 7.668 18.977 7.633 18.977-.035l-1.707-.567H24.31l-1.81.602z" style="fill:#2b998d"/><path d="M24 44.243c0 6.002 16 6.002 16 0v-6.64H24v6.64z" style="fill:#a3765a"/><path d="M48.44 21.454c-2.544.307-4.382 8.821-2.78 11.07.225.312 1.535.814 2.508-1.17.539-1.098 2.091-2.015 2.574-4.28.617-2.904.232-5.927-2.301-5.62zm-32.88 0c2.545.307 4.383 8.821 2.78 11.07-.224.312-1.534.814-2.509-1.17-.537-1.098-2.091-2.015-2.572-4.28-.619-2.904-.232-5.927 2.3-5.62z" style="fill:#b88a6f"/><path d="M48.373 23.084c-.665.21-1.39 1.222-1.782 2.901 2.32-.498 1.74 3.365-.277 3.436.02.39.045.788.093 1.209.97-1.41 1.96-.845 2.938-2.942.881-1.89.672-5.118-.972-4.604zM17.41 25.98c-.395-1.677-1.117-2.687-1.782-2.896-1.642-.515-1.855 2.713-.972 4.603.978 2.098 1.966 1.532 2.94 2.942.046-.42.074-.821.089-1.21-1.996-.093-2.568-3.91-.275-3.438z" style="fill:#8c5f44"/><path d="M32 5.08c-11.028 0-16.34 8.336-15.676 19.925.133 2.332 1.582 9.938 2.947 12.667 1.398 2.791 6.074 7.095 8.937 7.986 1.81.561 5.774.561 7.582 0 2.865-.891 7.543-5.195 8.94-7.986 1.37-2.73 2.814-10.333 2.945-12.667C48.344 13.417 43.03 5.08 31.999 5.08z" style="fill:#b88a6f"/><path d="m45.127 8.556-2.51 3.038c5.081 3.117 2.238 11.258 4.547 17.189.787-5.917 4.461-18.825-2.037-20.227zm-26.355 1.503 2.51 1.536c-5.082 3.117-2.138 11.258-4.446 17.189-.786-5.918-4.561-17.324 1.936-18.725z" style="fill:#6e482a"/><path d="M42.467 10.735c3.228-.013 3.549 5.261 3.549 5.261s.968-6.005-3.131-6.005l-.418.744zM19.103 13.34c-1.294 3.16-1.752 6.407-1.752 6.407s-.682-2.274.947-6.293l.805-.114z" style="fill:#52351f"/><path d="M43.753 9.504c2.523-.262 3.134 3.836 3.134 3.836s.346-4.77-2.858-4.45l-.276.614z" style="fill:#52351f"/><path d="M45.126 8.556S41.366 2 31.949 2C21.726 2 15.282 6.581 15.063 15.451c6.261-6.173 22.755 3.425 30.063-6.895z" style="fill:#805837"/><path d="M45.126 8.556C44.16 5.53 39.035 2 31.949 2c3.927.277 9.103 2.222 9.636 3.451 0 0-5.432-2.927-12.761-1.643 6.72-.305 11.157 3.967 9.269 3.99-1.84.023-8.672.252-12.726 2.752 2.607-.176 7.756 1.227 7.522 1.317-5.191 2.009-15.61-2.769-17.75 3.583 8.046-6.893 23.398 4.21 29.987-6.893z" style="fill:#6e482a"/><path d="M45.126 8.556c-5.372 12.7-29.514-1.502-28.953 9.133C13.71 5.484 37.18 20.535 45.126 8.555z" style="fill:#52351f"/><path d="M43.655 10.459c-2.554-5.012-10.833-6.815-10.833-6.815s8.656.495 11.507 6.144l-.674.67zm-1.312 1.135c-2.378-2.227-13.847-1.442-13.847-1.442s8.361-2.523 14.756.715l-.909.727z" style="fill:#52351f"/><path d="M15.575 13.518S16.7 4.394 32.382 5.076c-12.893 1.787-16.807 8.442-16.807 8.442z" style="fill:#6e482a"/><path d="M16.545 12.994s6.213-8.131 19.853-6.08c-11.38-.333-19.853 6.08-19.853 6.08zm-.341-2.842s6.82-7.67 18.002-7.54c-12.92-1.719-18.002 7.54-18.002 7.54z" style="fill:#916643"/><path d="M34.975 32.108c-.315-.218-1.053.12-2.977.12-1.92 0-2.66-.338-2.974-.12-.377.266.222 1.461 2.974 1.461 2.754 0 3.356-1.195 2.977-1.46z" style="fill:#8c5f44"/><path d="M29.545 25.085c.094.73-.402 1.594-1.773 2.242-.871.412-2.686.897-5.067-.107-1.066-.45-2.107-1.848-2.013-2.623 1.29-2.43 7.644-2.786 8.853.488z" style="fill:#fff"/><linearGradient id="a" x1="-424.582" x2="-424.582" y1="478.074" y2="478.833" gradientTransform="matrix(6.5701 0 0 -6.5701 2814.782 3168.527)" gradientUnits="userSpaceOnUse"><stop offset="0" style="stop-color:#a6694a"/><stop offset="1" style="stop-color:#4f2a1e"/></linearGradient><path d="M25.235 22.546a2.494 2.494 0 0 1 2.496 2.49 2.495 2.495 0 0 1-2.496 2.494 2.494 2.494 0 0 1-2.498-2.494 2.494 2.494 0 0 1 2.498-2.49z" style="fill:url(#a)"/><path d="M23.986 24.991c0 1.725 2.497 1.725 2.497 0 0-1.6-2.497-1.6-2.497 0z" style="fill:#1a1626"/><path d="M23.608 24.292c0 .723 1.045.723 1.045 0 0-.668-1.045-.668-1.045 0z" style="fill:#ab968c"/><path d="M29.557 25.18c-1.014-3.25-7.926-2.769-8.865-.583.347-2.8 8.002-3.54 8.865.584z" style="fill:#8c5f44"/><path d="M34.453 25.085c-.094.73.4 1.594 1.774 2.242.87.412 2.683.897 5.064-.107 1.07-.45 2.11-1.848 2.016-2.623-1.291-2.43-7.647-2.786-8.854.488z" style="fill:#fff"/><linearGradient id="b" x1="-425.23" x2="-425.23" y1="478.074" y2="478.833" gradientTransform="matrix(6.5701 0 0 -6.5701 2832.512 3168.527)" gradientUnits="userSpaceOnUse"><stop offset="0" style="stop-color:#a6694a"/><stop offset="1" style="stop-color:#4f2a1e"/></linearGradient><path d="M38.707 22.546a2.493 2.493 0 1 1 0 4.984 2.493 2.493 0 1 1 0-4.984z" style="fill:url(#b)"/><path d="M37.461 24.991c0 1.725 2.496 1.725 2.496 0 0-1.6-2.496-1.6-2.496 0z" style="fill:#1a1626"/><path d="M37.08 24.292c0 .723 1.047.723 1.047 0 0-.668-1.047-.668-1.047 0z" style="fill:#ab968c"/><path d="M34.442 25.18c1.011-3.247 7.92-2.783 8.865-.583-.352-2.8-8.002-3.54-8.865.584z" style="fill:#8c5f44"/><path d="M27.385 38.978a8.921 8.921 0 0 1 9.232 0c.399.242.448-.018.325-.226-2.08-3.499-7.801-3.499-9.881 0-.123.208-.076.468.324.226z" style="fill:#7d5039"/><path d="M43.238 20.507c-2.636-2.164-7.046.863-8.814.531-.373.024-.016 1.273.295 1.254 2.426-.034 6.086-2.916 8.531-.953.32.225.383-.527-.012-.832zm-22.474 0c2.635-2.164 7.043.863 8.81.531.373.024.02 1.273-.293 1.254-2.423-.034-6.085-2.916-8.53-.953-.323.225-.384-.527.013-.832z" style="fill:#5e4533"/><path d="M29.633 39.863a4.859 4.859 0 0 1 4.738 0c.203.116.229-.009.166-.109-1.068-1.675-4.004-1.675-5.072 0-.063.1-.04.224.168.109z" style="fill:#8c5f44"/></svg>