<svg xmlns="http://www.w3.org/2000/svg" xml:space="preserve" style="enable-background:new 0 0 64 64" viewBox="0 0 64 64"><path d="M39.502.079c3.996 1.072-2.166 9.336-2.48 9.252-.319-.084-1.524-10.325 2.48-9.252zm14.135 8.105c2.373 3.389-7.66 5.76-7.848 5.492-.187-.27 5.47-8.888 7.848-5.492zM24.503.079c3.995-1.07 2.791 9.168 2.477 9.252-.317.086-6.48-8.18-2.477-9.252zM10.364 8.18c2.373-3.388 8.034 5.23 7.846 5.496-.188.27-10.223-2.101-7.846-5.496z" style="fill:#0fb4d4"/><path d="M50.206 33.628c-7.476-3.658-28.936-3.658-36.413 0C8.944 36 4.745 56.224 14.597 61.62L32 60.537l17.403 1.083c9.851-5.396 5.652-25.621.802-27.992z" style="fill:#602694"/><path d="M9.518 51.844c-.88.333 2.479-2.064 6.098-1.831 5.296-8.57 3.32-19.772-2.177-16.183-5.287 3.45-10.767 19.643-9.151 23.206 2.21 4.879 14.064 5.788 14.064 5.788s.457-3.856 4.363-6.384c-5.776-3.458-5.651-7.45-13.197-4.596z" style="fill:#8e3ed6"/><path d="M31.142 60.334c1.51-1.067-4.478-4.11-7.89-4.11-5.041 0-10.096 7.855-1.53 6.792 3.75.42 5.7 1.912 5.851.127 0 0 .768-.135 1.598.314.856.469 1.973-.6 1.244-1.251 1.813.07 1.662-1.563.727-1.872z" style="fill:#d9b18d"/><path d="M23.733 61.104s5.438 1.088 3.57 2.72c.848-1.323-3.57-2.72-3.57-2.72zm1.125-1.342s7.413 1.848 5.546 3.483c.845-1.324-5.546-3.483-5.546-3.483zm1.02-1.592s7.453 1.398 5.793 3.579c.727-1.789-5.793-3.58-5.793-3.58z" style="fill:#c99b71"/><path d="M54.482 51.844c.881.333-2.479-2.064-6.098-1.831-5.297-8.57-3.32-19.772 2.176-16.183 5.287 3.45 10.768 19.643 9.152 23.206-2.21 4.879-14.064 5.788-14.064 5.788s-.457-3.856-4.364-6.384c5.776-3.458 5.652-7.45 13.198-4.596z" style="fill:#8e3ed6"/><path d="M32.859 60.334c-1.512-1.067 4.476-4.11 7.888-4.11 5.041 0 10.096 7.855 1.532 6.792-3.752.42-5.702 1.912-5.852.127 0 0-.768-.135-1.598.314-.857.469-1.972-.6-1.244-1.251-1.812.07-1.664-1.563-.726-1.872z" style="fill:#d9b18d"/><path d="M40.267 61.104s-5.438 1.088-3.57 2.72c-.848-1.323 3.57-2.72 3.57-2.72zm-1.125-1.342s-7.412 1.848-5.547 3.483c-.846-1.324 5.547-3.483 5.547-3.483zm-1.02-1.592s-7.455 1.398-5.793 3.579c-.726-1.789 5.793-3.58 5.793-3.58z" style="fill:#c99b71"/><path d="M13.364 36.116c2.282.072 4.576 6.982 3.336 8.956-.176.275-1.298.783-2.316-.787-.563-.87-2.013-1.516-2.616-3.355-.776-2.356-.67-4.887 1.596-4.814z" style="fill:#ebc199"/><path d="M13.666 38.635c.604.107 1.317.814 1.785 2.045-2.092-.207-1.304 2.646.488 2.556.013.293.018.594.004.912-.96-.986-1.795-.492-2.812-1.996-.916-1.353-.959-3.787.535-3.517z" style="fill:#c99b71"/><path d="M50.634 36.116c-2.28.072-4.576 6.982-3.332 8.956.174.275 1.297.783 2.315-.787.564-.87 2.012-1.516 2.615-3.355.776-2.356.67-4.887-1.598-4.814z" style="fill:#ebc199"/><path d="M48.552 40.676c.467-1.229 1.178-1.934 1.78-2.041 1.496-.27 1.452 2.164.537 3.517-1.015 1.504-1.85 1.01-2.812 1.996-.014-.32-.008-.62.005-.914 1.775.072 2.553-2.746.49-2.558z" style="fill:#c99b71"/><path d="M32.002 18.248c-11.595 0-17.181 9.345-16.48 22.338C16.157 52.449 26.4 54.398 32 54.398c5.592 0 15.85-1.949 16.48-13.812.702-12.993-4.884-22.338-16.478-22.338z" style="fill:#ebc199"/><path d="M35.318 51.18c-.35-.176-1.686.637-3.318.637-1.632 0-2.967-.813-3.32-.637-.419.213.981 1.718 3.32 1.718 2.34 0 3.741-1.505 3.318-1.718z" style="fill:#c99b71"/><path d="M29.337 44.15c.1.794-.435 1.731-1.926 2.436-.946.447-2.914.975-5.5-.115-1.159-.49-2.288-2.012-2.186-2.853 1.401-2.643 8.3-3.03 9.612.533z" style="fill:#fff"/><g transform="translate(2.699 .332)"><linearGradient id="a" x1="-427.369" x2="-427.369" y1="474.928" y2="475.753" gradientTransform="matrix(6.5701 0 0 -6.5701 2829.816 3166.013)" gradientUnits="userSpaceOnUse"><stop offset="0" style="stop-color:#a6694a"/><stop offset="1" style="stop-color:#4f2a1e"/></linearGradient><path d="M19.79 41.366a2.689 2.689 0 0 0-.543 1.611 2.709 2.709 0 1 0 5.42 0c0-.605-.206-1.16-.542-1.61H19.79z" style="fill:url(#a)"/><path d="M20.602 42.927c0 1.876 2.71 1.876 2.71 0 0-1.739-2.71-1.739-2.71 0z" style="fill:#1a1626"/><path d="M20.192 42.169c0 .787 1.136.787 1.136 0 0-.729-1.136-.729-1.136 0z" style="fill:#ab968c"/></g><path d="M29.35 44.254c-1.05-3.37-8.656-2.894-9.625-.636.378-3.045 8.687-3.85 9.625.636z" style="fill:#c99b71"/><path d="M34.665 44.15c-.102.794.436 1.731 1.926 2.436.944.447 2.912.975 5.5-.115 1.158-.49 2.287-2.012 2.186-2.853-1.4-2.643-8.301-3.03-9.612.533z" style="fill:#fff"/><g transform="translate(2.33 .332)"><linearGradient id="b" x1="-427.472" x2="-427.472" y1="474.928" y2="475.753" gradientTransform="matrix(6.5701 0 0 -6.5701 2845.487 3166.013)" gradientUnits="userSpaceOnUse"><stop offset="0" style="stop-color:#a6694a"/><stop offset="1" style="stop-color:#4f2a1e"/></linearGradient><path d="M34.787 41.366a2.688 2.688 0 0 0-.542 1.611 2.71 2.71 0 1 0 5.421 0c0-.605-.206-1.16-.542-1.61h-4.337z" style="fill:url(#b)"/><path d="M35.602 42.927c0 1.876 2.71 1.876 2.71 0 0-1.739-2.71-1.739-2.71 0z" style="fill:#1a1626"/><path d="M35.19 42.169c0 .787 1.134.787 1.134 0 0-.729-1.134-.729-1.134 0z" style="fill:#ab968c"/></g><path d="M34.652 44.254c1.047-3.368 8.65-2.908 9.625-.636-.381-3.045-8.687-3.85-9.625.636z" style="fill:#c99b71"/><path d="M44.452 39.926c-2.332-1.47-7.027-1.898-8.865-1.144-.393.143-.264 1.375.063 1.285 2.534-.76 6.472-.475 8.654.754.292.162.503-.688.148-.895zm-24.904 0c2.332-1.47 7.025-1.898 8.867-1.144.39.143.263 1.375-.063 1.285-2.54-.76-6.472-.475-8.659.756-.289.16-.5-.69-.145-.897z" style="fill:#ab8c57"/><path d="M39.844 15.967c-4.417 2.3 8.37 26.256 10.243 18.465 7.916-8.869-.983-23.287-10.243-18.465z" style="fill:#e6c465"/><path d="M38.13 19.305c-4.417 2.299 10.085 22.918 11.957 15.127 4.21-9.926-2.696-19.95-11.957-15.127z" style="fill:#d1a936"/><path d="M37.704 15.046c-4.333 2.47 7.184 14.687 9.056 6.896 1.052-4.379-6.307-8.477-9.056-6.896z" style="fill:#8e3ed6"/><path d="M31.4 14.005c-20.42 0-20.696 23.04-15.96 27.496 3.405-7.928 17.168-5.514 22.422-13.346 3.025 7.834 9.669 7.418 9.483 13.338 3.618-3.405 5.258-18.754-4.658-22.188-1.805-3.795-6.467-5.3-11.287-5.3z" style="fill:#f2d785"/><path d="M31.4 14.005c6.532.694 9.188 5.189 7.522 8.26-5.713 10.533-24.565 9.525-23.482 19.236 3.405-7.928 17.168-5.514 22.422-13.346 3.025 7.834 9.669 7.418 9.483 13.338 2.316-8.61-9.888-6.36-4.658-22.188-1.805-3.795-6.467-5.3-11.287-5.3z" style="fill:#e6c465"/><path d="M16.294 23.964C22.7 15.561 33.21 15.74 33.21 15.74s-11.178-3.088-16.915 8.225zm16.894-2.544c-15.545-2.84-18.967 10.398-18.967 10.398s6.153-9.666 18.967-10.398z" style="fill:#fae29b"/><path d="M41.828 18.559c-7.526 7.744-14.057 2.753-22.77 12.518 11.663-7.372 18.89-1.524 22.77-12.518z" style="fill:#e6c465"/><path d="M41.58 19.666c-.435-3.053-9.344-5.256-17.875.393 11.445-3.764 18.554 4.37 17.875-.393z" style="fill:#e6c465"/><path d="M42.687 19.305c-4.434 7.814 3.198 12.417 3.198 12.417s-3.283-5.444-3.198-12.417z" style="fill:#e6c465"/><path d="M43.373 21.21c5.633 6.547 5.072 14.993 5.072 14.993s3.643-9.21-5.072-14.994z" style="fill:#fae29b"/><path d="M44.151 15.697c5.82 2.664 8.062 8.986 8.062 8.986s-.404-8.012-8.062-8.986z" style="fill:#f2d785"/><path d="M15.44 41.5c4.593-9.18 22.315-2.366 27.247-22.195-7.041 19.136-24.17 12.234-27.247 22.196z" style="fill:#d1a936"/><path d="m38.27 28.098-.637.382c3.766 8.277 9.23 7.121 9.712 13.013.494-5.546-5.57-6.027-9.075-13.395z" style="fill:#d1a936"/></svg>