<svg xmlns="http://www.w3.org/2000/svg" xml:space="preserve" style="enable-background:new 0 0 64 64" viewBox="0 0 64 64"><path d="M16.697 23.555s.469 4.543-.686 7.602c1.624-.175 2.044-.994 2.044-.994s-.056 2.128-.882 3.619c1.526.252 2.464-.504 2.464-.504s0 1.61.119 2.716c4.445-1.148 4.179-6.321 4.179-6.321l-7.238-6.118zm31.291 7.602c-1.155-3.066-.686-7.602-.686-7.602l-7.231 6.118s-.266 5.173 4.18 6.32c.118-1.105.118-2.715.118-2.715s.938.756 2.464.504c-.833-1.484-.882-3.62-.882-3.62s.413.82 2.037.995z" style="fill:#d1a936"/><path d="M47.141 17.892c-2.345.287-4.039 8.134-2.562 10.206.203.287 1.414.749 2.31-1.078.497-1.015 1.925-1.855 2.373-3.948.567-2.674.217-5.46-2.12-5.18zm-30.283 0c2.345.287 4.039 8.134 2.562 10.206-.203.287-1.414.749-2.31-1.078-.497-1.015-1.925-1.855-2.373-3.948-.568-2.674-.21-5.46 2.12-5.18z" style="fill:#ebc199"/><path d="M47.078 19.397c-.609.196-1.28 1.127-1.638 2.674 2.135-.462 1.603 3.1-.252 3.17.014.358.042.729.084 1.114.896-1.302 1.806-.777 2.71-2.716.804-1.743.615-4.718-.904-4.242zm-28.519 2.667c-.364-1.547-1.03-2.478-1.638-2.667-1.512-.476-1.708 2.499-.896 4.242.903 1.932 1.813 1.414 2.709 2.716.042-.392.07-.756.084-1.12-1.841-.084-2.366-3.598-.26-3.171z" style="fill:#c99b71"/><path d="M32 2.8c-10.158 0-15.051 8.274-14.442 18.907.126 2.135.72 5.222 1.456 7.868C20.533 35.07 27.254 40.6 31.999 40.6c4.746 0 11.46-5.53 12.986-11.025.735-2.646 1.33-5.726 1.456-7.868C47.051 11.074 42.157 2.8 32 2.8z" style="fill:#ebc199"/><path d="M43.039 17.108c-2.324-1.232-6.77-1.288-8.421-.434-.357.168-.12 1.33.175 1.218 2.31-.91 6.034-.931 8.19.077.287.14.406-.686.056-.861zm-22.079 0c2.324-1.232 6.77-1.288 8.428-.434.357.168.12 1.33-.175 1.218-2.31-.91-6.027-.931-8.19.077-.294.14-.413-.686-.063-.861z" style="fill:#ab8c57"/><path d="M34.744 27.783c-.287-.203-.973.112-2.745.112-1.77 0-2.45-.315-2.744-.112-.35.245.203 1.35 2.744 1.35 2.535 0 3.088-1.105 2.745-1.35zM32 31.969c-2.283-.672-5.67.322-5.67.322 1.287 1.407 2.232 3.227 5.67 3.227 3.934 0 4.606-2.065 5.67-3.227 0-.007-3.388-1.001-5.67-.322z" style="fill:#c99b71"/><path d="M27.183 32.522c2.394 2.009 7.232 2.023 9.64 0-2.555.112-7.07.112-9.64 0zM29.738 21.3c.084.673-.37 1.47-1.63 2.066-.806.378-2.472.826-4.67-.098-.98-.413-1.94-1.708-1.855-2.422 1.19-2.24 7.042-2.569 8.155.455z" style="fill:#fff"/><linearGradient id="a" x1="-1210.407" x2="-1210.407" y1="171.488" y2="170.788" gradientTransform="translate(7978.266 -1103.139) scale(6.5701)" gradientUnits="userSpaceOnUse"><stop offset="0" style="stop-color:#a6694a"/><stop offset="1" style="stop-color:#4f2a1e"/></linearGradient><path d="M25.77 18.956c1.266 0 2.302 1.029 2.302 2.296s-1.029 2.296-2.303 2.296c-1.267 0-2.303-1.03-2.303-2.296s1.03-2.296 2.303-2.296z" style="fill:url(#a)"/><path d="M24.621 21.217c0 1.589 2.303 1.589 2.303 0-.007-1.477-2.303-1.477-2.303 0z" style="fill:#1a1626"/><path d="M24.271 20.573c0 .665.966.665.966 0-.007-.623-.966-.623-.966 0z" style="fill:#ab968c"/><path d="M29.752 21.392c-.93-3.003-7.301-2.555-8.17-.539.323-2.59 7.372-3.269 8.17.539z" style="fill:#c99b71"/><path d="M34.26 21.3c-.083.673.372 1.47 1.632 2.066.805.378 2.47.826 4.669-.098.987-.413 1.939-1.708 1.855-2.422-1.19-2.24-7.042-2.569-8.155.455z" style="fill:#fff"/><linearGradient id="b" x1="-1211.217" x2="-1211.217" y1="171.488" y2="170.788" gradientTransform="translate(7995.996 -1103.139) scale(6.5701)" gradientUnits="userSpaceOnUse"><stop offset="0" style="stop-color:#a6694a"/><stop offset="1" style="stop-color:#4f2a1e"/></linearGradient><path d="M38.18 18.956a2.303 2.303 0 1 1 0 4.606 2.303 2.303 0 0 1 0-4.606z" style="fill:url(#b)"/><path d="M37.033 21.217c0 1.589 2.303 1.589 2.303 0-.007-1.477-2.303-1.477-2.303 0z" style="fill:#1a1626"/><path d="M36.683 20.573c0 .665.966.665.966 0-.007-.623-.966-.623-.966 0z" style="fill:#ab968c"/><path d="M34.247 21.392c.93-2.996 7.294-2.569 8.162-.539-.315-2.59-7.364-3.269-8.162.539z" style="fill:#c99b71"/><path d="M22.43 4.389c5.32 5.075 21.155 8.253 23.9 19.432C42.583 12.6 28.813 15.75 22.43 4.389z" style="fill:#d1a936"/><path d="M32.153 0c-6.18 0-9.268 2.8-9.898 4.13 7.707 11.767 20.77 7.784 24.074 19.698C52.972 13.251 47.456 0 32.153 0z" style="fill:#e6c465"/><path d="M32.153 0c-5.504 0-9.133 2.236-9.898 4.13 2.666 7.18 20.963 7.4 24.508 16.942-.747-6.849-6.172-11.415-6.172-11.415s4.88 3.151 7.307 7.6c-.453-6.388-5.489-10.066-5.489-10.066s4.541 3.152 6.041 6.784C47.563 6.611 44.026 0 32.153 0z" style="fill:#f2d785"/><path d="M45.214 7.38c-5.106-8.6-16.072-6.333-16.072-6.333s9.125.474 16.072 6.333z" style="fill:#fae29b"/><path d="M45.66 12.734C38.328-.99 24.62 3.504 24.62 3.504s11.857-.457 21.039 9.23z" style="fill:#fae29b"/><path d="M25.396 5.393c7.553 2.8 16.223 7.845 16.223 7.845s-5.126-7.7-16.223-7.845z" style="fill:#fae29b"/><path d="M22.255 4.13c-7.47 1.708-9.877 14.315-4.284 19.691.693-5.733 1.365-9.415 5.173-13.293 0 0 .224-3.41-.89-6.398z" style="fill:#e6c465"/><path d="M22.969 10.087s-4.907 4.55-4.998 13.734c.84-9.1 5.222-13.209 5.222-13.209l-.224-.525z" style="fill:#d1a936"/><path d="M22.332 4.389s-8.666 2.96-6.195 14.889c.056-.961.188-1.851.363-2.689-.016 1.489.206 3.122.778 4.908.749-8.288 5.558-12.334 5.558-12.334l-.504-4.774z" style="fill:#f2d785"/><path d="M16.995 16.45c1.107-6.194 6.025-10.279 6.025-10.279s-6.837.452-6.024 10.28z" style="fill:#fae29b"/><path d="M22.255 4.13c-2.037 9.24 7.728 11.053 11.866 11.053C26.686 10.031 22.255 4.13 22.255 4.13z" style="fill:#e6c465"/><path d="M22.01 5.775c.196 5.292 3.08 8.596 12.11 9.408-7.063.476-13.195-3.052-12.11-9.408z" style="fill:#d1a936"/><path d="M22.255 4.13s-1.13 8.321 11.866 11.053C26.958 9.656 25.663 6.465 22.255 4.13z" style="fill:#f2d785"/><path d="M29.718 12.763c-2.292-1.496-5.991-6.896-5.991-6.896s.724 5.578 5.99 6.896z" style="fill:#fae29b"/><linearGradient id="c" x1="32" x2="32" y1="64" y2="38.533" gradientUnits="userSpaceOnUse"><stop offset="0" style="stop-color:#ff7a00"/><stop offset=".721" style="stop-color:#d86100"/></linearGradient><path d="M54.633 45.05c-5.798-10.203-12.115-5.342-22.763-5.343-10.555-.002-16.845-4.908-22.522 5.354-3.03 5.477 5.055 7.551 5.055 7.551v7c0 5.85 35.401 5.85 35.401 0v-7s7.87-2.21 4.828-7.562z" style="fill:url(#c)"/><path d="M58.922 17.482s-.438-.471-1.095-.252c-2.113-.467-4.527 3.932-13.394 8.195l2.27 5.785c4.034-1.635 9.09-6.21 12.905-11.545 1.012-1.415-.2-2.308-.686-2.183z" style="fill:#d9b18d"/><path d="M57.827 17.23c-3.17 3.423-6.61 5.25-6.61 5.25s3.169-2.334 6.61-5.25zm1.095.252c-2.488 3.625-7.575 6.437-7.575 6.437s4.577-3.218 7.575-6.437z" style="fill:#c99b71"/><path d="M5.078 17.482s.438-.471 1.095-.252c2.113-.467 4.527 3.932 13.394 8.195l-2.27 5.785C13.263 29.575 8.207 25 4.392 19.665c-1.013-1.415.2-2.308.686-2.183z" style="fill:#d9b18d"/><path d="M6.173 17.23c3.17 3.423 6.61 5.25 6.61 5.25s-3.169-2.334-6.61-5.25zm-1.095.252c2.488 3.625 7.575 6.437 7.575 6.437s-4.577-3.218-7.575-6.437z" style="fill:#c99b71"/><path d="M41.505 36.557c2.166-1.844 5.957-5.309 5.957-5.309L44.658 25S39.44 27.94 32 31.342C24.562 27.94 19.343 25 19.343 25l-2.807 6.248s3.793 3.465 5.96 5.309C11.484 41.92 4.179 47.617 10.67 53.077 14.65 56.421 22.163 50.06 32 43.73c9.834 6.33 17.352 12.69 21.329 9.345 6.494-5.459-.81-11.156-11.823-16.52z" style="fill:#ff7a00"/><linearGradient id="d" x1="27.262" x2="23.679" y1="35.821" y2="30.404" gradientUnits="userSpaceOnUse"><stop offset="0" style="stop-color:#d86100"/><stop offset=".325" style="stop-color:#eb6d00"/><stop offset=".695" style="stop-color:#fa7700"/><stop offset="1" style="stop-color:#ff7a00"/></linearGradient><path d="M32.001 31.343C24.562 27.94 19.343 25 19.343 25l-2.807 6.248s3.793 3.465 5.96 5.308L32 31.343z" style="fill:url(#d)"/><linearGradient id="e" x1="36.391" x2="42.766" y1="38.112" y2="43.987" gradientUnits="userSpaceOnUse"><stop offset="0" style="stop-color:#d86100"/><stop offset=".325" style="stop-color:#eb6d00"/><stop offset=".695" style="stop-color:#fa7700"/><stop offset="1" style="stop-color:#ff7a00"/></linearGradient><path d="M41.505 36.557 32 43.731c9.834 6.33 17.352 12.69 21.329 9.346 6.494-5.46-.81-11.156-11.823-16.52z" style="fill:url(#e)"/></svg>