<svg xmlns="http://www.w3.org/2000/svg" xml:space="preserve" style="enable-background:new 0 0 64 64" viewBox="0 0 64 64"><linearGradient id="a" x1="57.543" x2="57.543" y1="35.808" y2="17.047" gradientUnits="userSpaceOnUse"><stop offset="0" style="stop-color:#805b4c"/><stop offset=".332" style="stop-color:#845e4e"/><stop offset=".629" style="stop-color:#8e6554"/><stop offset=".912" style="stop-color:#a1735f"/><stop offset="1" style="stop-color:#a87863"/></linearGradient><path d="M59.422 35.53c8.542-4.908 4.487-23.825-6.833-17.025-4.545 2.73 2.235 19.666 6.833 17.025z" style="fill:url(#a)"/><radialGradient id="b" cx="1088.348" cy="-893.403" r="8.846" gradientTransform="matrix(0 .9308 1.1711 0 1107.1 -985.717)" gradientUnits="userSpaceOnUse"><stop offset=".261" style="stop-color:#ebbb96"/><stop offset=".485" style="stop-color:#e7b792"/><stop offset=".729" style="stop-color:#daaa85"/><stop offset=".98" style="stop-color:#c69470"/><stop offset="1" style="stop-color:#c4926e"/></radialGradient><path d="M58.766 33.757c6.21-4.208 3.031-18.552-3.906-12.188-4.75 4.36-1.105 15.585 3.906 12.188z" style="opacity:.7;fill:url(#b)"/><linearGradient id="c" x1="6.458" x2="6.458" y1="35.808" y2="17.047" gradientUnits="userSpaceOnUse"><stop offset="0" style="stop-color:#805b4c"/><stop offset=".332" style="stop-color:#845e4e"/><stop offset=".629" style="stop-color:#8e6554"/><stop offset=".912" style="stop-color:#a1735f"/><stop offset="1" style="stop-color:#a87863"/></linearGradient><path d="M4.578 35.53C-3.963 30.622.09 11.705 11.412 18.505c4.545 2.73-2.236 19.666-6.834 17.025z" style="fill:url(#c)"/><radialGradient id="d" cx="1088.436" cy="-1035.217" r="8.947" gradientTransform="matrix(0 .9308 -1.1711 0 -1209.149 -985.717)" gradientUnits="userSpaceOnUse"><stop offset=".261" style="stop-color:#ebbb96"/><stop offset=".485" style="stop-color:#e7b792"/><stop offset=".729" style="stop-color:#daaa85"/><stop offset=".98" style="stop-color:#c69470"/><stop offset="1" style="stop-color:#c4926e"/></radialGradient><path d="M5.234 33.757C-.976 29.55 2.203 15.205 9.141 21.57c4.9 4.499 1.854 16.094-3.907 12.188z" style="opacity:.7;fill:url(#d)"/><path d="M25.3 6.923C29.223 1.144 35.65.123 38.935.007c1.485-.054 1.775.204.94 1.21-1.225 1.481-2.4 3.663-3.079 6.66-.85 3.72-13.175 1.522-11.498-.954z" style="fill:#a87863"/><path d="M27.668 5.975c5.121-4.593 11.586-3.917 14.8-3.183 1.45.333 1.677.657.637 1.419-1.525 1.118-3.162 2.931-4.503 5.66-1.667 3.39-13.126-1.93-10.934-3.896z" style="fill:#a87863"/><path d="M19.482 6.889c1.444-2.667 7.254-5.632 11.055-6.65 1.44-.386 1.766-.296 1.214.906-.81 1.77-1.395 4.202-1.299 7.278.117 3.821-12.366 1.042-10.97-1.534z" style="fill:#a87863"/><linearGradient id="e" x1="32" x2="32" y1="60" y2="2.352" gradientUnits="userSpaceOnUse"><stop offset="0" style="stop-color:#916856"/><stop offset="1" style="stop-color:#a87863"/></linearGradient><path d="M59.169 35.56c-1.16-5.846-3.773-8.26-5.147-11.576C49.782 7.87 43.542 2.352 32 2.352c-11.54 0-17.782 5.518-22.021 21.632C8.604 27.3 5.99 29.714 4.83 35.56c-3.167 15.974 9.68 15.773 13.134 18.708C22.255 57.916 26.285 60 32 60c5.716 0 9.746-2.084 14.036-5.73 3.454-2.936 16.3-2.735 13.133-18.71z" style="fill:url(#e)"/><linearGradient id="f" x1="74.998" x2="74.998" y1="82.041" y2="52.039" gradientTransform="matrix(.9165 0 0 .9828 -28.488 -33.173)" gradientUnits="userSpaceOnUse"><stop offset=".575" style="stop-color:#ebbb96"/><stop offset=".719" style="stop-color:#e8b893"/><stop offset=".84" style="stop-color:#dead89"/><stop offset=".952" style="stop-color:#cd9c78"/><stop offset="1" style="stop-color:#c4926e"/></linearGradient><path d="M53.996 32.715c0 8.141-6.155 14.742-13.747 14.742-7.593 0-13.748-6.6-13.748-14.742 0-8.142 6.155-14.743 13.748-14.743 7.591 0 13.747 6.6 13.747 14.743z" style="fill:url(#f)"/><linearGradient id="g" x1="56.999" x2="56.999" y1="82.041" y2="52.039" gradientTransform="matrix(.9165 0 0 .9828 -28.488 -33.173)" gradientUnits="userSpaceOnUse"><stop offset=".575" style="stop-color:#ebbb96"/><stop offset=".719" style="stop-color:#e8b893"/><stop offset=".84" style="stop-color:#dead89"/><stop offset=".952" style="stop-color:#cd9c78"/><stop offset="1" style="stop-color:#c4926e"/></linearGradient><path d="M37.5 32.715c0 8.141-6.156 14.742-13.748 14.742s-13.748-6.6-13.748-14.742c0-8.142 6.156-14.743 13.748-14.743 7.591 0 13.747 6.6 13.747 14.743z" style="fill:url(#g)"/><path d="M43.922 27.927c-3.402 0-4.733 3.578-4.436 6.369.221 2.074 8.656 2.074 8.874 0 .316-3.02-1.33-6.369-4.438-6.369z" style="fill:#785647"/><radialGradient id="h" cx="-47.125" cy="167.13" r="6.475" fx="-49.21" fy="164.48" gradientTransform="matrix(.695 0 0 .7902 76.675 -98.256)" gradientUnits="userSpaceOnUse"><stop offset=".043" style="stop-color:#413f4a"/><stop offset=".284" style="stop-color:#3d3a46"/><stop offset=".558" style="stop-color:#302d3a"/><stop offset=".847" style="stop-color:#1a1626"/></radialGradient><path d="M43.923 28.694c2.486 0 4.5 2.29 4.5 5.116 0 2.826-2.014 5.117-4.5 5.117-2.485 0-4.5-2.291-4.5-5.117s2.015-5.116 4.5-5.116z" style="fill:url(#h)"/><path d="M43.815 31.735c0 1.842-2.65 1.842-2.65 0 0-1.845 2.65-1.845 2.65 0z" style="fill:#6e8189"/><path d="M20.078 27.927c3.402 0 4.733 3.578 4.436 6.369-.221 2.074-8.656 2.074-8.874 0-.316-3.02 1.33-6.369 4.438-6.369z" style="fill:#785647"/><radialGradient id="i" cx="-303.546" cy="167.13" r="6.475" fx="-305.631" fy="164.48" gradientTransform="matrix(-.695 0 0 .7902 -190.888 -98.256)" gradientUnits="userSpaceOnUse"><stop offset=".043" style="stop-color:#413f4a"/><stop offset=".284" style="stop-color:#3d3a46"/><stop offset=".558" style="stop-color:#302d3a"/><stop offset=".847" style="stop-color:#1a1626"/></radialGradient><path d="M20.077 28.694c-2.486 0-4.5 2.29-4.5 5.116 0 2.826 2.015 5.117 4.5 5.117s4.5-2.291 4.5-5.117-2.015-5.116-4.5-5.116z" style="fill:url(#i)"/><path d="M20.185 31.735c0 1.842 2.649 1.842 2.649 0 0-1.845-2.649-1.845-2.649 0z" style="fill:#6e8189"/><linearGradient id="j" x1="32.001" x2="32.001" y1="58.348" y2="30.469" gradientUnits="userSpaceOnUse"><stop offset="0" style="stop-color:#c4926e"/><stop offset=".074" style="stop-color:#cd9c78"/><stop offset=".249" style="stop-color:#dead89"/><stop offset=".436" style="stop-color:#e8b893"/><stop offset=".659" style="stop-color:#ebbb96"/></linearGradient><path d="M37.815 36.928c-1.971-4.26-2.367-6.46-5.815-6.46-3.447 0-3.843 2.2-5.814 6.46-.9 1.945-6.654 2.57-6.654 9.48 0 5.033 5.132 11.94 12.468 11.94s12.47-6.907 12.47-11.94c0-6.91-5.755-7.535-6.655-9.48z" style="fill:url(#j)"/><linearGradient id="k" x1="150.117" x2="150.117" y1="272.21" y2="259.231" gradientTransform="matrix(.8466 0 0 .693 -95.089 -143.903)" gradientUnits="userSpaceOnUse"><stop offset="0" style="stop-color:#ebbb96"/><stop offset=".79" style="stop-color:#fac8a3"/></linearGradient><path d="M32 35.744c-3.302 0-5.983 1.502-5.983 5.627 0 2.155 3.247 3.367 5.983 3.367 2.74 0 5.982-1.212 5.982-3.367 0-4.125-2.676-5.627-5.982-5.627z" style="fill:url(#k)"/><linearGradient id="l" x1="150.117" x2="150.117" y1="272.21" y2="264.349" gradientTransform="matrix(.8466 0 0 .693 -95.089 -143.903)" gradientUnits="userSpaceOnUse"><stop offset="0" style="stop-color:#ebbb96"/><stop offset=".532" style="stop-color:#d4a37e"/><stop offset="1" style="stop-color:#c4926e"/></linearGradient><path d="M32 40.529c-3.302 0-5.983-3.283-5.983.842 0 2.155 4.16 3.367 5.983 3.367 1.827 0 5.982-1.212 5.982-3.367 0-4.125-2.676-.842-5.982-.842z" style="fill:url(#l)"/><path d="M36.655 41.065c.572-2.24-4.858 2.01-3.346 2.326 2.203.46 3.09-1.32 3.346-2.326zm-9.311 0c-.568-2.24 4.86 2.01 3.346 2.326-2.201.458-3.09-1.32-3.346-2.326z" style="fill:#785647"/><path d="M40 47.191c0 3.25-3.582 6.206-8 6.206-4.417 0-8-2.955-8-6.206 0 0 3.458 1.143 8 1.143s8-1.143 8-1.143z" style="fill:#1a1626"/><path d="M36.552 52.001c-1.887-1.656-7.216-1.656-9.101 0 1.246 1.758 7.953 1.745 9.101 0z" style="fill:#ed7196"/><path d="M32 54.022c-4.675 0-8.625-3.128-8.625-6.83a.625.625 0 0 1 .821-.594c.034.01 3.426 1.111 7.804 1.111 4.379 0 7.77-1.1 7.805-1.111a.625.625 0 0 1 .82.594c0 3.702-3.95 6.83-8.625 6.83zm-7.28-5.976c.58 2.601 3.734 4.726 7.28 4.726 3.547 0 6.7-2.125 7.28-4.726-1.34.347-4.026.913-7.28.913-3.253 0-5.94-.566-7.28-.913z" style="fill:#785647"/><path d="M12.307 31.253c4.266-7.18 8.162-12.748 10.824-8.832 3.85-2.997 7.028-.664 5.702 1.592 2.254-.365 3.547 1.081 2.062 3.527-2.675 4.405-4.606 8.548-4.668 10.482 1.458 14.935-19.93 10.912-19.454-2.584.049-1.395 1.38-2.604 1.817-6.217.228-1.902 3.848-.005 3.717 2.032z" style="fill:#ffdaad"/><path d="M21.74 33.77c1.99-5.004 5.24-8.911 7.35-9.787.858-2.502-1.673-2.9-1.673-2.9 3.792 2.739-3.415 3.743-5.678 12.687zm-4.908-1.21c1.401-4.477 4.08-7.811 6.299-10.139-.286-1.25-1.873-1.288-1.873-1.288 2.478 1.573-3.437 4.321-4.426 11.427zm14.005-8.253c2.28 2.897-5.142 7.285-5.6 13.552-.714 9.595-11.574 9.051-1.962 9.46 1.19-1.033 4.32-5.531 3.22-9.14.698-6.243 7.529-12.163 4.342-13.872zM9.882 28.485c3.396 2.38.253 3.36 1.662 7.783-.226-2.607.455-4.254.905-5.25-.481-2.235-2.567-2.533-2.567-2.533z" style="fill:#e3b182"/><linearGradient id="m" x1="-22.271" x2="-3.345" y1="59.562" y2="59.562" gradientTransform="rotate(4.997 84.202 375.737)" gradientUnits="userSpaceOnUse"><stop offset="0" style="stop-color:#a87863"/><stop offset=".301" style="stop-color:#a47561"/><stop offset=".613" style="stop-color:#976c59"/><stop offset=".928" style="stop-color:#835d4d"/><stop offset="1" style="stop-color:#7d594a"/></linearGradient><path d="M23.616 46.206c-3.703 3.984-7.668-7.786-9.532-1.91-.829 2.616-7.584-8.388-6.274-3.087 1.233 4.984-1.138 12.93-2.648 17.48-1.861 5.605 12.91 7.312 13.739 2.49.623-3.622 1.98-10.49 4.935-13.546 1.682-1.741 2.14-3.969-.22-1.427z" style="fill:url(#m)"/><path d="M51.692 31.253c-4.266-7.18-8.162-12.748-10.822-8.832-3.85-2.997-7.03-.664-5.704 1.592-2.254-.365-3.544 1.081-2.061 3.527 2.675 4.405 4.605 8.548 4.67 10.482-1.461 14.935 19.928 10.912 19.451-2.584-.046-1.395-1.378-2.604-1.815-6.217-.23-1.902-3.847-.005-3.719 2.032z" style="fill:#ffdaad"/><path d="M42.26 33.77c-1.988-5.004-5.241-8.911-7.35-9.787-.86-2.502 1.674-2.9 1.674-2.9-3.792 2.739 3.415 3.743 5.676 12.687zm4.909-1.21c-1.403-4.477-4.08-7.811-6.299-10.139.284-1.25 1.87-1.288 1.87-1.288-2.477 1.573 3.44 4.321 4.429 11.427zm-14.005-8.253c-2.28 2.897 5.142 7.285 5.6 13.552.714 9.595 11.572 9.051 1.96 9.46-1.188-1.033-4.32-5.531-3.22-9.14-.698-6.243-7.529-12.163-4.34-13.872zm20.956 4.178c-3.396 2.38-.256 3.36-1.665 7.783.228-2.607-.455-4.254-.904-5.25.48-2.235 2.568-2.533 2.568-2.533z" style="fill:#e3b182"/><linearGradient id="n" x1="50.645" x2="69.571" y1="53.18" y2="53.18" gradientTransform="scale(-1 1) rotate(5.002 15.643 -1194.624)" gradientUnits="userSpaceOnUse"><stop offset="0" style="stop-color:#a87863"/><stop offset=".301" style="stop-color:#a47561"/><stop offset=".613" style="stop-color:#976c59"/><stop offset=".928" style="stop-color:#835d4d"/><stop offset="1" style="stop-color:#7d594a"/></linearGradient><path d="M40.385 46.206c3.703 3.984 7.668-7.786 9.53-1.91.829 2.616 7.584-8.388 6.274-3.087-1.232 4.984 1.139 12.93 2.649 17.48 1.861 5.606-12.908 7.312-13.737 2.49-.623-3.622-1.981-10.49-4.935-13.546-1.685-1.741-2.141-3.969.219-1.427z" style="fill:url(#n)"/></svg>