<svg xmlns="http://www.w3.org/2000/svg" xml:space="preserve" style="enable-background:new 0 0 64 64" viewBox="0 0 64 64"><path d="M39.501.079c3.996 1.072-2.166 9.336-2.48 9.252-.319-.084-1.524-10.325 2.48-9.252zm14.135 8.105c2.373 3.389-7.66 5.76-7.848 5.492-.187-.27 5.47-8.888 7.848-5.492zM24.502.079c3.995-1.07 2.791 9.168 2.477 9.252-.317.086-6.48-8.18-2.477-9.252zM10.363 8.18c2.373-3.388 8.034 5.23 7.846 5.496-.187.27-10.223-2.101-7.846-5.496z" style="fill:#0fb4d4"/><path d="M50.206 33.628c-7.476-3.658-28.936-3.658-36.413 0C8.944 36 4.745 56.224 14.597 61.62L32 60.537l17.403 1.083c9.851-5.396 5.652-25.621.802-27.992z" style="fill:#258278"/><path d="M9.518 51.844c-.88.333 2.479-2.064 6.098-1.831 5.296-8.57 3.32-19.772-2.177-16.183-5.287 3.45-10.767 19.643-9.151 23.206 2.21 4.879 14.063 5.788 14.063 5.788s.458-3.856 4.364-6.384c-5.776-3.458-5.651-7.45-13.197-4.596z" style="fill:#3ab0a2"/><path d="M31.142 60.334c1.51-1.067-4.478-4.11-7.89-4.11-5.041 0-10.096 7.855-1.53 6.792 3.75.42 5.7 1.912 5.851.128 0 0 .768-.136 1.598.313.856.469 1.973-.6 1.244-1.251 1.813.07 1.662-1.563.727-1.872z" style="fill:#f3cca8"/><path d="M23.732 61.104s5.439 1.088 3.572 2.72c.847-1.323-3.572-2.72-3.572-2.72zm1.125-1.342s7.414 1.848 5.546 3.483c.846-1.324-5.546-3.483-5.546-3.483zm1.021-1.592s7.453 1.398 5.793 3.579c.727-1.789-5.793-3.58-5.793-3.58z" style="fill:#deb38a"/><path d="M54.482 51.844c.881.333-2.479-2.064-6.098-1.831-5.297-8.57-3.32-19.772 2.176-16.183 5.287 3.45 10.768 19.643 9.152 23.206-2.21 4.879-14.064 5.788-14.064 5.788s-.457-3.856-4.364-6.384c5.776-3.458 5.652-7.45 13.198-4.596z" style="fill:#3ab0a2"/><path d="M32.858 60.334c-1.511-1.067 4.477-4.11 7.89-4.11 5.04 0 10.095 7.855 1.53 6.792-3.751.42-5.7 1.912-5.851.128 0 0-.768-.136-1.598.313-.857.469-1.972-.6-1.244-1.251-1.812.07-1.664-1.563-.727-1.872z" style="fill:#f3cca8"/><path d="M40.267 61.104s-5.438 1.088-3.57 2.72c-.848-1.323 3.57-2.72 3.57-2.72zm-1.125-1.342s-7.412 1.848-5.547 3.483c-.846-1.324 5.547-3.483 5.547-3.483zm-1.02-1.592s-7.455 1.398-5.793 3.579c-.726-1.789 5.793-3.58 5.793-3.58z" style="fill:#deb38a"/><path d="M13.364 36.116c2.282.072 4.576 6.982 3.336 8.956-.176.275-1.299.783-2.316-.787-.563-.87-2.013-1.516-2.616-3.355-.776-2.356-.67-4.887 1.596-4.814z" style="fill:#ffd8b4"/><path d="M13.666 38.635c.604.107 1.317.814 1.785 2.045-2.092-.207-1.304 2.646.488 2.556.013.293.018.594.004.912-.96-.986-1.795-.492-2.812-1.996-.916-1.353-.959-3.787.535-3.517z" style="fill:#deb38a"/><path d="M50.634 36.116c-2.28.072-4.576 6.982-3.332 8.956.174.275 1.297.783 2.315-.787.564-.87 2.012-1.516 2.615-3.355.776-2.356.67-4.887-1.598-4.814z" style="fill:#ffd8b4"/><path d="M48.552 40.676c.467-1.229 1.178-1.934 1.78-2.041 1.496-.27 1.452 2.164.537 3.517-1.015 1.504-1.851 1.01-2.812 1.996a10.04 10.04 0 0 1 .005-.914c1.775.072 2.553-2.746.49-2.558z" style="fill:#deb38a"/><path d="M32.002 18.248c-11.595 0-17.181 9.345-16.481 22.338.637 11.863 10.88 13.812 16.48 13.812 5.59 0 15.848-1.949 16.48-13.812.701-12.993-4.885-22.338-16.48-22.338z" style="fill:#ffd8b4"/><path d="M35.318 51.18c-.35-.176-1.686.637-3.318.637-1.632 0-2.967-.813-3.32-.637-.419.213.981 1.718 3.32 1.718 2.34 0 3.741-1.505 3.318-1.718z" style="fill:#deb38a"/><path d="M29.337 44.15c.1.794-.435 1.731-1.926 2.436-.946.447-2.914.975-5.5-.115-1.159-.49-2.288-2.012-2.187-2.853 1.402-2.643 8.3-3.03 9.613.533z" style="fill:#fff"/><linearGradient id="a" x1="-424.67" x2="-424.67" y1="475.26" y2="476.085" gradientTransform="matrix(6.5701 0 0 -6.5701 2814.782 3168.527)" gradientUnits="userSpaceOnUse"><stop offset="0" style="stop-color:#a6694a"/><stop offset="1" style="stop-color:#4f2a1e"/></linearGradient><path d="M22.488 41.698a2.689 2.689 0 0 0-.542 1.612 2.709 2.709 0 1 0 5.42 0c0-.606-.206-1.16-.542-1.612h-4.336z" style="fill:url(#a)"/><path d="M23.3 43.259c0 1.877 2.71 1.877 2.71 0 0-1.738-2.71-1.738-2.71 0z" style="fill:#1a1626"/><path d="M22.89 42.501c0 .787 1.136.787 1.136 0 0-.728-1.135-.728-1.135 0z" style="fill:#ab968c"/><path d="M29.35 44.254c-1.05-3.37-8.656-2.894-9.626-.636.379-3.045 8.688-3.85 9.626.636z" style="fill:#deb38a"/><path d="M34.665 44.15c-.102.794.436 1.731 1.926 2.436.944.447 2.912.975 5.5-.115 1.158-.49 2.287-2.012 2.186-2.853-1.4-2.643-8.301-3.03-9.612.533z" style="fill:#fff"/><linearGradient id="b" x1="-425.142" x2="-425.142" y1="475.26" y2="476.085" gradientTransform="matrix(6.5701 0 0 -6.5701 2832.512 3168.527)" gradientUnits="userSpaceOnUse"><stop offset="0" style="stop-color:#a6694a"/><stop offset="1" style="stop-color:#4f2a1e"/></linearGradient><path d="M37.116 41.698a2.687 2.687 0 0 0-.542 1.612 2.71 2.71 0 1 0 5.421 0c0-.606-.206-1.16-.542-1.612h-4.337z" style="fill:url(#b)"/><path d="M37.93 43.259c0 1.877 2.71 1.877 2.71 0 0-1.738-2.71-1.738-2.71 0z" style="fill:#1a1626"/><path d="M37.519 42.501c0 .787 1.135.787 1.135 0 0-.728-1.135-.728-1.135 0z" style="fill:#ab968c"/><path d="M34.651 44.254c1.048-3.368 8.65-2.908 9.626-.636-.381-3.045-8.687-3.85-9.626.636z" style="fill:#deb38a"/><path d="M44.452 39.926c-2.332-1.47-7.027-1.898-8.865-1.144-.394.143-.265 1.375.063 1.285 2.534-.76 6.472-.475 8.654.754.292.162.503-.688.148-.895zm-24.904 0c2.332-1.47 7.025-1.898 8.867-1.144.39.143.263 1.375-.063 1.285-2.54-.76-6.472-.475-8.659.756-.289.16-.5-.69-.145-.897z" style="fill:#826d58"/><path d="M25.125 16.782c-8.076 1.026-17.37 11.692-9.304 26.31 0 0 .535-7.625 5.376-11.843-.263 2.667-.84 4.55-.84 4.55s4.75-.925 8.934-4.216c-.488 2.947-1.797 5.055-1.797 5.055s8.64-1.484 11.205-6.496c0 0 1.693 4.388 5.881 7.55 0 0 .262-3.29-.316-5.619 4.107 4.979 4.59 11.003 4.59 11.003 1.96-2.832 3.563-10.29 1.45-16.636-3.352-10.07-16.909-15.132-25.179-9.658z" style="fill:#403429"/><path d="M25.84 17.274c-.262 1.756-.21 3.627-.21 3.627s-.845-1.814-.68-3.29c-1.833 1.742-4.346 5.194-4.346 5.194s1.195-2.586 2.53-4.474c-8.83 3.183-10.575 14.344-8.452 19.462 1.023-4.769 3.863-7.683 8.706-11.64 0 0-.192 4.864-1.926 7.525 5.121-1.085 9.482-6.044 9.378-11.034.94 4.635.776 8.614-1.341 12.292 4.338-.548 9.274-5.372 9.469-9.744.891 4.372 1.954 7.41 4.751 9.734 0-4.733-1.894-9.162-1.894-9.162s5.612 3.485 7.804 12.917C54 21.046 36.86 11.06 26.861 16.255c2.356.13 3.638.778 3.638.778s-2.644-.294-4.66.241z" style="fill:#4f4236"/><path d="m43.648 29.532.747 3.158s3.51 2.438 4.459 10.386c.438-8.591-5.206-13.544-5.206-13.544zm-4.752.5-.192.688s1.51 4.625 5.876 6.972c-3.537-2.756-5.684-7.66-5.684-7.66z" style="fill:#2e2319"/><path d="M39.268 27.389c.702 8.063-11.774 9.25-11.774 9.25s10.853-2.622 11.774-9.25zm-8.908 2.549c-2.164 5.041-10.003 5.861-10.003 5.861s6.059-1.723 10.003-5.861zm-8.45.258c-5.587 8.066-6.09 12.895-6.09 12.895s-1.475-5.668 6.09-12.895z" style="fill:#2e2319"/><path d="M49.63 38.68c.674-4.823-3.888-12.24-3.888-12.24s6.659 4.954 3.887 12.24z" style="fill:#403429"/><path d="M48.473 28.83C41.206 12.804 28.94 15.847 28.94 15.847s14.283-4.72 19.534 12.985zm-25.502 3.734c5.382-5.339 4.523-12.824 4.523-12.824s2.77 8.066-4.523 12.824z" style="fill:#635547"/><path d="M42.358 31.307c-1.355-5.567-4.287-11.567-4.287-11.567s3.979 3.87 4.287 11.567zm4.21-1.548c-2.468-4.98-7.166-10.518-7.166-10.518s5.267 3.157 7.166 10.518zm-26.134-8.713c-4.48 6.66-5.565 14.856-5.565 14.856s-.73-10.07 5.565-14.856zm11.072 12.48c3.438-6.896.569-13.58.569-13.58s4.556 6.496-.57 13.58z" style="fill:#635547"/><path d="M29.499 34.936c7.99-2.923 6.682-12.455 6.682-12.455s2.76 12.326-6.682 12.455z" style="fill:#403429"/></svg>