<svg xmlns="http://www.w3.org/2000/svg" xml:space="preserve" style="enable-background:new 0 0 64 64" viewBox="0 0 64 64"><radialGradient id="a" cx="40.274" cy="47.499" r="29.047" gradientTransform="translate(-8.211)" gradientUnits="userSpaceOnUse"><stop offset="0" style="stop-color:#1a1714"/><stop offset=".586" style="stop-color:#2f2721"/><stop offset="1" style="stop-color:#382e26"/></radialGradient><path d="M39.582 46.742c15.168-6.067 13.651-24.268 13.651-24.268H10.767s-1.517 18.2 13.648 24.267c0 0 3.035.759 7.583.759 4.552 0 7.584-.758 7.584-.758z" style="fill:url(#a)"/><path d="M12.254 48.718c2.402-1.289 10.626-4.088 10.626-4.088l18.218-.035s8.315 2.826 10.702 4.12c3.47 1.872 4.2 8.429 4.2 10.845 0 3.254-48 3.254-48 0 0-2.42.774-8.977 4.254-10.842z" style="fill:#8e3ed6"/><path d="m47.999 61.417-.665.067c0-8.035.665-8.102.665-.067zm-31.998 0 .665.067c0-8.035-.665-8.102-.665-.067zM22.88 44.63c0 7.668 18.218 7.633 18.218-.035l-1.639-.566h-14.84l-1.74.601z" style="fill:#732eb0"/><path d="M24.32 44.243c0 6.002 15.36 6.002 15.36 0v-6.64H24.32v6.64z" style="fill:#5e4c3b"/><path d="M32 4.275c-11.005 0-16.306 8.963-15.644 20.486.136 2.316.78 5.657 1.576 8.52 1.65 5.951 10.36 11.944 14.068 11.944 3.707 0 12.417-5.993 14.068-11.944.796-2.863 1.44-6.204 1.576-8.52C48.304 13.238 43.007 4.275 32 4.275z" style="fill:#735c48"/><path d="M34.474 32.213c-.263-.183-.877.099-2.476.099-1.596 0-2.211-.282-2.473-.099-.314.22.186 1.217 2.473 1.217 2.289 0 2.79-.995 2.476-1.217z" style="fill:#4a3728"/><path d="M29.552 25.25c.092.727-.402 1.591-1.771 2.239-.87.41-2.678.895-5.055-.108-1.064-.448-2.103-1.847-2.01-2.62 1.29-2.429 7.63-2.784 8.836.49z" style="fill:#fff"/><linearGradient id="b" x1="-424.58" x2="-424.58" y1="478.05" y2="478.808" gradientTransform="matrix(6.5701 0 0 -6.5701 2814.782 3168.527)" gradientUnits="userSpaceOnUse"><stop offset="0" style="stop-color:#a6694a"/><stop offset="1" style="stop-color:#4f2a1e"/></linearGradient><path d="M25.25 22.71a2.49 2.49 0 1 1-.002 4.982 2.49 2.49 0 0 1 .002-4.982z" style="fill:url(#b)"/><path d="M24.006 25.156c0 1.722 2.49 1.722 2.49 0 0-1.6-2.49-1.6-2.49 0z" style="fill:#1a1626"/><path d="M23.627 24.457c0 .723 1.043.723 1.043 0 0-.669-1.043-.669-1.043 0z" style="fill:#ab968c"/><path d="M29.564 25.346c-1.012-3.251-7.908-2.77-8.848-.585.348-2.799 7.985-3.538 8.848.585z" style="fill:#45332c"/><path d="M34.449 25.25c-.094.727.4 1.591 1.77 2.239.868.41 2.677.895 5.054-.108 1.066-.448 2.104-1.847 2.01-2.62-1.287-2.429-7.63-2.784-8.834.49z" style="fill:#fff"/><linearGradient id="c" x1="-425.232" x2="-425.232" y1="478.05" y2="478.808" gradientTransform="matrix(6.5701 0 0 -6.5701 2832.512 3168.527)" gradientUnits="userSpaceOnUse"><stop offset="0" style="stop-color:#a6694a"/><stop offset="1" style="stop-color:#4f2a1e"/></linearGradient><path d="M38.695 22.71a2.493 2.493 0 0 1 2.492 2.491 2.492 2.492 0 0 1-4.984 0 2.491 2.491 0 0 1 2.492-2.49z" style="fill:url(#c)"/><path d="M37.45 25.156c0 1.722 2.493 1.722 2.493 0 0-1.6-2.492-1.6-2.492 0z" style="fill:#1a1626"/><path d="M37.072 24.457c0 .723 1.043.723 1.043 0 0-.669-1.043-.669-1.043 0z" style="fill:#ab968c"/><path d="M34.437 25.346c1.012-3.249 7.903-2.784 8.846-.585-.35-2.799-7.985-3.538-8.846.585z" style="fill:#45332c"/><path d="M27.384 38.979a8.92 8.92 0 0 1 9.233 0c.398.241.447-.019.324-.227-2.08-3.498-7.8-3.498-9.88 0-.124.208-.077.468.323.227z" style="fill:#301f12"/><path d="M43.238 20.642c-2.637-2.164-7.045.863-8.813.531-.373.024-.017 1.273.293 1.254 2.426-.034 6.088-2.916 8.532-.953.322.225.382-.527-.012-.832zm-22.475 0c2.635-2.164 7.045.863 8.813.531.373.024.017 1.273-.295 1.254-2.424-.034-6.084-2.916-8.531-.953-.32.225-.383-.527.013-.832z" style="fill:#302b27"/><path d="M29.632 39.863a4.859 4.859 0 0 1 4.739 0c.203.116.228-.009.166-.108-1.069-1.676-4.004-1.676-5.073 0-.062.1-.039.224.168.108z" style="fill:#4a3728"/><path d="M44.385 5.884C45.643 4.09 34.998.302 24.948 2.861 14.91 5.16 9.25 16.156 9.25 30.037c0 5.577 3.8 12.588 10.938 15.534l1.858-.654c-8.202-6.995-6.493-14.05-3.696-22.441 7.539-4.365 16.07-5.393 21.992-10.617-.759 2.275 3.255 5.144 5.308 10.617 2.864 7.637 4.45 15.355-3.687 22.417l1.746.612c6.762-2.982 11.041-9.93 11.041-15.468 0-16.409-6.34-25.314-10.365-24.153z" style="fill:#473e35"/><path d="M44.385 5.884c1.208-1.446-4.171-3.856-10.948-3.856C41.754 2.685 44.589 7.192 42.28 6c-2.46-1.27-8.473-3.114-16.528.536 8.813-1.875 16.92.173 15.659 1.234-1.99 1.674-10.763-2.886-23.048 8.329-1.692 1.545 7.369-5.928 19.53-6.165-1.69 3.558-23.321 9.198-26.678 18.041 5.632-8.037 29.377-11.023 33.17-22.09zm5.508 12.879s5.274 14.306-3.563 24.224c12.659-9.918 3.563-24.224 3.563-24.224z" style="fill:#382e26"/><path d="M18.822 22.065s-2.155.392-3.918 2.306c-3.688 13.025 5.126 18.616 5.126 18.616s-6.99-7.172-1.208-20.922z" style="fill:#382e26"/><path d="M13.309 25.609s-1.013.396-2.25 2.932c-1.147 7.941 4.428 11.987 4.428 11.987s-5.228-6.388-2.178-14.92zM52.73 15.48c-3.846-11.968-8.345-9.596-8.345-9.596s-2.164 4.052-3.887 5.474c-3.113 3.824 7.592 7.102 7.313 23.665 2.83-11.768-5.038-19.636-5.165-21.737-.144-2.382 1.835-6.045 3.378-6.484 1.674-.478 5.51 5.435 6.705 8.678z" style="fill:#382e26"/><path d="M11.059 28.541c6.091-9.938 28.64-9.266 33.326-22.657C36.487 18.099 12.57 20.136 11.06 28.541z" style="fill:#1a1714"/><path d="M44.168 11.232s4.996 10.712 5.817 19.812c1.36-13.993-5.817-19.812-5.817-19.812zm-26.892 9.126s7.268-4.717 16.367-8.61c-9.74.585-16.367 8.61-16.367 8.61zm-4.487-.964S18.5 10.271 28.914 7.617C14.424 6.669 12.79 19.394 12.79 19.394z" style="fill:#574f45"/></svg>