<svg xmlns="http://www.w3.org/2000/svg" xml:space="preserve" style="enable-background:new 0 0 64 64" viewBox="0 0 64 64"><linearGradient id="a" x1="32" x2="32" y1="62.001" y2="2" gradientUnits="userSpaceOnUse"><stop offset="0" style="stop-color:#ff9500"/><stop offset=".192" style="stop-color:#ffad00"/><stop offset=".545" style="stop-color:#ffd500"/><stop offset=".827" style="stop-color:#ffed00"/><stop offset="1" style="stop-color:#fff600"/></linearGradient><path d="M32 2c16.57 0 30 13.43 30 30S48.57 62 32 62 2 48.57 2 32 15.43 2 32 2z" style="fill:url(#a)"/><path d="M29.16 25.41c1.43 5.34-1.74 10.82-7.07 12.25-5.34 1.43-10.82-1.73-12.25-7.07-1.43-5.33 1.73-10.82 7.07-12.25 5.33-1.43 10.82 1.74 12.25 7.07z" style="fill:#fff"/><path d="M22.19 20.65a4.5 4.5 0 0 1-8.69 2.33c-.64-2.4 1.01-4 3.42-4.64 2.39-.64 4.63-.09 5.27 2.31z" style="fill:#1a1626"/><path d="M54.16 25.41c1.43 5.34-1.74 10.82-7.07 12.25-5.34 1.43-10.82-1.73-12.25-7.07-1.43-5.33 1.74-10.82 7.07-12.25 5.33-1.43 10.82 1.74 12.25 7.07z" style="fill:#fff"/><path d="M47.19 20.65c.64 2.4-.79 4.87-3.18 5.51a4.5 4.5 0 0 1-5.51-3.18c-.64-2.4 1.01-4 3.42-4.64 2.39-.64 4.63-.09 5.27 2.31zM38.21 46.1c-4.53-.8-10.58.54-13.48 2.72-.74.55-.4 1.17.2 1.03 3.11-.71 8.54-.71 12.88-.06 1.66.24 2.14-3.38.4-3.69z" style="fill:#1a1626"/></svg>