<svg xmlns="http://www.w3.org/2000/svg" xml:space="preserve" style="enable-background:new 0 0 64 64" viewBox="0 0 64 64"><path d="M47.712 50.166c0 1.698-.44 3.074-.984 3.074h-1.476l.055-6.148h1.421c.544 0 .984 1.377.984 3.074zm-31.424 0c0 1.698.44 3.074.984 3.074h1.476l-.055-6.148h-1.421c-.544 0-.984 1.377-.984 3.074z" style="fill:#434c4f"/><path d="M33.973 32h-3.946L12.275 64h39.45z" style="fill:#4e5e67"/><path d="M34 32h-.155L44.9 64h7.344zm-4 0L11.755 64H19.1l11.056-32z" style="opacity:.5;fill:#303030"/><linearGradient id="a" x1="40.435" x2="42.036" y1="48.83" y2="48.08" gradientUnits="userSpaceOnUse"><stop offset="0" style="stop-color:#99a8ae"/><stop offset=".312" style="stop-color:#9cabb1"/><stop offset=".559" style="stop-color:#a6b4b9"/><stop offset=".783" style="stop-color:#b7c2c8"/><stop offset=".993" style="stop-color:#ced7dc"/><stop offset="1" style="stop-color:#cfd8dd"/></linearGradient><path d="M34.042 32h-.104l12.11 32h4.429z" style="fill:url(#a)"/><linearGradient id="b" x1="-151.868" x2="-150.541" y1="121.189" y2="121.972" gradientTransform="matrix(1 0 0 -1 194 170)" gradientUnits="userSpaceOnUse"><stop offset="0" style="stop-color:#cfd8dd"/><stop offset=".253" style="stop-color:#cad3d9"/><stop offset=".558" style="stop-color:#bbc6cc"/><stop offset=".889" style="stop-color:#a3b1b7"/><stop offset="1" style="stop-color:#99a8ae"/></linearGradient><path d="M34.1 32h-.086l15.29 32H53z" style="fill:url(#b)"/><linearGradient id="c" x1="1182.062" x2="1183.664" y1="48.83" y2="48.08" gradientTransform="matrix(-1 0 0 1 1205.627 0)" gradientUnits="userSpaceOnUse"><stop offset="0" style="stop-color:#99a8ae"/><stop offset=".312" style="stop-color:#9cabb1"/><stop offset=".559" style="stop-color:#a6b4b9"/><stop offset=".783" style="stop-color:#b7c2c8"/><stop offset=".993" style="stop-color:#ced7dc"/><stop offset="1" style="stop-color:#cfd8dd"/></linearGradient><path d="M29.958 32h.104l-12.11 32h-4.429z" style="fill:url(#c)"/><linearGradient id="d" x1="989.759" x2="991.086" y1="121.189" y2="121.972" gradientTransform="rotate(180 505.814 85)" gradientUnits="userSpaceOnUse"><stop offset="0" style="stop-color:#cfd8dd"/><stop offset=".253" style="stop-color:#cad3d9"/><stop offset=".558" style="stop-color:#bbc6cc"/><stop offset=".889" style="stop-color:#a3b1b7"/><stop offset="1" style="stop-color:#99a8ae"/></linearGradient><path d="M29.9 32h.086l-15.29 32H11z" style="fill:url(#d)"/><path d="M44.653 50.796c0 2.045-.441 3.704-.984 3.704h-1.887l.055-7.408h1.832c.543 0 .984 1.658.984 3.704z" style="fill:#636f75"/><path d="M42.766 50.796c0 2.045-.441 3.704-.984 3.704s-.984-1.659-.984-3.704c0-2.046.44-3.704.984-3.704s.984 1.658.984 3.704z" style="fill:#434c4f"/><path d="M19.348 50.796c0 2.045.44 3.704.984 3.704h1.886l-.055-7.408h-1.832c-.543 0-.983 1.658-.983 3.704z" style="fill:#636f75"/><path d="M21.235 50.796c0 2.045.44 3.704.984 3.704.543 0 .983-1.659.983-3.704 0-2.046-.44-3.704-.984-3.704-.543 0-.983 1.658-.983 3.704z" style="fill:#434c4f"/><linearGradient id="e" x1="13.535" x2="50.465" y1="27.951" y2="27.951" gradientUnits="userSpaceOnUse"><stop offset="0" style="stop-color:#f9b302"/><stop offset=".031" style="stop-color:#fbc101"/><stop offset=".084" style="stop-color:#fdd201"/><stop offset=".15" style="stop-color:#fedd00"/><stop offset=".243" style="stop-color:#ffe400"/><stop offset=".5" style="stop-color:#ffe600"/><stop offset=".69" style="stop-color:#ffe300"/><stop offset=".804" style="stop-color:#fedb00"/><stop offset=".898" style="stop-color:#fccd01"/><stop offset=".981" style="stop-color:#fab902"/><stop offset="1" style="stop-color:#f9b302"/></linearGradient><path d="M13.535 9.659v1.829s9.21 12.543 0 19.512v15.243h36.93V31c-13.646-8.415 0-19.512 0-19.512v-1.83h-36.93z" style="fill:url(#e)"/><path d="M42.342 0H21.655c-1.63 0-2.953 1.363-2.953 3.046 0 .42.332.76.74.76a.75.75 0 0 0 .74-.76c0-.842.662-1.523 1.475-1.523h4.02c1.72 0 1.89.845 2.18 2.242.085.422.189 2.1.38 2.568h1.797c-.388-.245-.542-1.942-.73-2.88-.123-.59-.27-1.303-.627-1.93h6.648c-.36.627-.504 1.342-.624 1.93-.194.938-.347 2.635-.735 2.88h1.795c.19-.468.296-2.147.382-2.568.288-1.397.461-2.242 2.178-2.242h4.023c.812 0 1.476.681 1.476 1.523 0 .42.333.76.742.76a.75.75 0 0 0 .736-.76C45.295 1.363 43.972 0 42.342 0z" style="fill:#99a8ae"/><path d="M12.925 30.695c0-.168.137-.305.305-.305h37.54c.168 0 .305.137.305.305a.306.306 0 0 1-.305.305H13.23a.306.306 0 0 1-.305-.305zm0 15.243c0-.167.137-.304.305-.304h37.54c.168 0 .305.137.305.304a.306.306 0 0 1-.305.305H13.23a.306.306 0 0 1-.305-.305z" style="fill:#f59e01"/><linearGradient id="f" x1="32" x2="32" y1="9.659" y2="6" gradientUnits="userSpaceOnUse"><stop offset="0" style="stop-color:#636f75"/><stop offset=".081" style="stop-color:#6f7b81"/><stop offset=".331" style="stop-color:#8e9ba0"/><stop offset=".572" style="stop-color:#a4b2b7"/><stop offset=".8" style="stop-color:#b1bfc4"/><stop offset="1" style="stop-color:#b6c4c9"/></linearGradient><path d="M44.848 6H19.152c-4.674 0-6.227 3.659-6.227 3.659h38.15S49.522 6 44.848 6z" style="fill:url(#f)"/><linearGradient id="g" x1="13.535" x2="50.465" y1="21.244" y2="21.244" gradientUnits="userSpaceOnUse"><stop offset="0" style="stop-color:#a4adb3"/><stop offset=".011" style="stop-color:#abb4b9"/><stop offset=".054" style="stop-color:#c1c8cd"/><stop offset=".105" style="stop-color:#d2d8dc"/><stop offset=".168" style="stop-color:#dde3e7"/><stop offset=".256" style="stop-color:#e4e9ed"/><stop offset=".5" style="stop-color:#e6ebef"/><stop offset=".745" style="stop-color:#e4e9ed"/><stop offset=".833" style="stop-color:#dde3e7"/><stop offset=".895" style="stop-color:#d2d8dc"/><stop offset=".946" style="stop-color:#c1c8cd"/><stop offset=".989" style="stop-color:#abb4b9"/><stop offset="1" style="stop-color:#a4adb3"/></linearGradient><path d="M13.535 12.097h36.93V30.39h-36.93z" style="fill:url(#g)"/><path d="M12.315 46.243h39.37a.61.61 0 0 1 .61.61v2.44a.61.61 0 0 1-.61.609h-39.37a.61.61 0 0 1-.61-.61v-2.439a.61.61 0 0 1 .61-.61z" style="fill:#f9b700"/><path d="M12.925 11.793c0-.168.137-.305.305-.305h37.54c.168 0 .305.137.305.305a.306.306 0 0 1-.305.304H13.23a.306.306 0 0 1-.305-.304zm26.478 4.286V27.95h9.538V16.079c-1.773-2.184-7.754-2.196-9.538 0z" style="fill:#99a8ae"/><linearGradient id="h" x1="-149.828" x2="-149.828" y1="142.659" y2="154.853" gradientTransform="matrix(1 0 0 -1 194 170)" gradientUnits="userSpaceOnUse"><stop offset="0" style="stop-color:#302c3b"/><stop offset="1" style="stop-color:#096692"/></linearGradient><path d="M40.013 16.394v10.947h8.318V16.394c-1.353-1.662-6.965-1.662-8.318 0z" style="fill:url(#h)"/><path d="M26.731 16.079V27.95H37.27V16.079c-1.773-2.184-8.753-2.196-10.538 0z" style="fill:#99a8ae"/><linearGradient id="i" x1="-162" x2="-162" y1="142.659" y2="154.853" gradientTransform="matrix(1 0 0 -1 194 170)" gradientUnits="userSpaceOnUse"><stop offset="0" style="stop-color:#302c3b"/><stop offset="1" style="stop-color:#096692"/></linearGradient><path d="M27.341 16.394v10.947h9.318V16.394c-1.353-1.662-7.965-1.662-9.318 0z" style="fill:url(#i)"/><path d="M15.06 16.079V27.95h9.537V16.079c-1.772-2.184-7.753-2.196-9.537 0z" style="fill:#99a8ae"/><linearGradient id="j" x1="-174.172" x2="-174.172" y1="142.659" y2="154.853" gradientTransform="matrix(1 0 0 -1 194 170)" gradientUnits="userSpaceOnUse"><stop offset="0" style="stop-color:#302c3b"/><stop offset="1" style="stop-color:#096692"/></linearGradient><path d="M15.67 16.394v10.947h8.317V16.394c-1.353-1.662-6.965-1.662-8.318 0z" style="fill:url(#j)"/><path d="M12.925 49.902h38.15v2.439h-38.15V49.9z" style="fill:#45332c"/><linearGradient id="k" x1="32" x2="32" y1="41.975" y2="33.438" gradientUnits="userSpaceOnUse"><stop offset="0" style="stop-color:#636f75"/><stop offset=".081" style="stop-color:#6f7b81"/><stop offset=".331" style="stop-color:#8e9ba0"/><stop offset=".572" style="stop-color:#a4b2b7"/><stop offset=".8" style="stop-color:#b1bfc4"/><stop offset="1" style="stop-color:#b6c4c9"/></linearGradient><circle cx="32" cy="37.707" r="4.269" style="fill:url(#k)"/><path d="M32 34.353a3.354 3.354 0 1 1 0 6.708 3.354 3.354 0 0 1 0-6.708z" style="fill:#302c3b"/><path d="M35.05 37.707A3.047 3.047 0 0 1 32 40.756a3.047 3.047 0 0 1-3.05-3.05A3.047 3.047 0 0 1 32 34.659a3.047 3.047 0 0 1 3.05 3.049z" style="fill:#fff"/><linearGradient id="l" x1="44.172" x2="44.172" y1="37.097" y2="33.438" gradientUnits="userSpaceOnUse"><stop offset="0" style="stop-color:#636f75"/><stop offset=".081" style="stop-color:#6f7b81"/><stop offset=".331" style="stop-color:#8e9ba0"/><stop offset=".572" style="stop-color:#a4b2b7"/><stop offset=".8" style="stop-color:#b1bfc4"/><stop offset="1" style="stop-color:#b6c4c9"/></linearGradient><path d="M44.172 33.438a1.83 1.83 0 1 1 0 3.659 1.83 1.83 0 0 1 0-3.659z" style="fill:url(#l)"/><path d="M44.172 34.01a1.258 1.258 0 1 1 0 2.515 1.258 1.258 0 0 1 0-2.515z" style="fill:#302c3b"/><path d="M45.315 35.267a1.143 1.143 0 1 1-2.285.002 1.143 1.143 0 0 1 2.285-.002z" style="fill:#fff"/><linearGradient id="m" x1="19.828" x2="19.828" y1="37.097" y2="33.438" gradientUnits="userSpaceOnUse"><stop offset="0" style="stop-color:#636f75"/><stop offset=".081" style="stop-color:#6f7b81"/><stop offset=".331" style="stop-color:#8e9ba0"/><stop offset=".572" style="stop-color:#a4b2b7"/><stop offset=".8" style="stop-color:#b1bfc4"/><stop offset="1" style="stop-color:#b6c4c9"/></linearGradient><path d="M19.828 33.438a1.83 1.83 0 1 1 0 3.659 1.83 1.83 0 0 1 0-3.659z" style="fill:url(#m)"/><path d="M19.828 34.01a1.258 1.258 0 1 1 0 2.515 1.258 1.258 0 0 1 0-2.515z" style="fill:#302c3b"/><path d="M20.972 35.267a1.143 1.143 0 1 1-2.286.002 1.143 1.143 0 0 1 2.286-.002z" style="fill:#fff"/></svg>