<svg xmlns="http://www.w3.org/2000/svg" xml:space="preserve" style="enable-background:new 0 0 64 64" viewBox="0 0 64 64"><path d="M9.071 52.276v8.347c0 1.836 8 1.836 8 0v-8.347h-8zm45.858 0v8.347c0 1.836-8 1.836-8 0v-8.347h8z" style="fill:#504f54"/><linearGradient id="a" x1="32" x2="32" y1="12.732" y2="29.784" gradientTransform="matrix(1 0 0 -1 0 66)" gradientUnits="userSpaceOnUse"><stop offset="0" style="stop-color:#ffe600"/><stop offset=".513" style="stop-color:#ffe400"/><stop offset=".698" style="stop-color:#fedd00"/><stop offset=".829" style="stop-color:#fdd201"/><stop offset=".935" style="stop-color:#fbc101"/><stop offset="1" style="stop-color:#f9b202"/></linearGradient><path d="m54.27 53.268 1.395-5.325.103-5.936.157-.333v-5.458H8.075v5.458l.157.333.103 5.936 1.248 5.325z" style="fill:url(#a)"/><path d="M44.788 41.862c3.997 0 9.09-2.5 9.09-2.5l.374-2.5H9.747l.374 2.5s5.093 2.5 9.09 2.5h25.577z" style="fill:#ffc400"/><path d="m10.62 42.46-.34-5.243h-.345l.346 5.243zm43.099 0 .346-5.243h-.345l-.34 5.243z" style="fill:#f59e01"/><path d="M47.914 50.56v1.665l7.396-1.288.355-2.994c-.284.473-3.845 1.784-7.75 2.617zm-31.828 0v1.665L8.69 50.937l-.356-2.994c.285.473 3.845 1.784 7.75 2.617z" style="fill:#ffc400"/><path d="M54.69 46.989c.414-.457.84-5.033.84-5.033l-6.935 1.617c-.53.124-.902.602-.89 1.147l.101 4.69s5.775-1.198 6.884-2.421zm-45.38 0c-.415-.457-.84-5.033-.84-5.033l6.934 1.617c.53.124.902.602.89 1.147l-.101 4.69s-5.775-1.198-6.883-2.421z" style="fill:#fff"/><path d="m55.925 41.674-7.399 1.699c-.6.138-1.026.672-1.026 1.288v8.846h.5V44.72c0-.431.292-.808.71-.914l7.058-1.8.157-.333zm-47.85 0 .157.333 7.058 1.8c.418.106.71.483.71.914v8.786h.5V44.66c0-.616-.426-1.15-1.026-1.288l-7.399-1.7z" style="fill:#f59e01"/><linearGradient id="b" x1="32" x2="32" y1="9" y2="15.063" gradientTransform="matrix(1 0 0 -1 0 66)" gradientUnits="userSpaceOnUse"><stop offset="0" style="stop-color:#f9b202"/><stop offset="1" style="stop-color:#ffe600"/></linearGradient><path d="M55.31 50.937s-5.628.83-7.31.903c-8.185.353-23.815.353-32 0-1.682-.073-7.31-.903-7.31-.903-.434 0 .055 4.463.567 4.858 1.296 1 5.247 1.205 6.994 1.205H47.75c1.748 0 5.698-.204 6.994-1.205.512-.395 1.001-4.858.567-4.858z" style="fill:url(#b)"/><path d="m16.497 57-.003-5.243H16L16.251 57zm31.252 0L48 51.757h-.494L47.503 57z" style="opacity:.5;fill:#f59e01;enable-background:new"/><path d="m56.986 11.493.898 9.6a.637.637 0 0 0 .812.556c.617-.178 1.859-.514 2.462-.737.718-.266.782-.945.781-1.969 0-2.029-3.254-10.72-4.932-10.437-1.158.196-1.068 1.657-2.831 1.344l.364 3.178 2.446-1.535z" style="fill:#1a1626"/><linearGradient id="c" x1="59.503" x2="59.503" y1="45.997" y2="57.574" gradientTransform="matrix(1 0 0 -1 0 66)" gradientUnits="userSpaceOnUse"><stop offset="0" style="stop-color:#343040"/><stop offset=".325" style="stop-color:#363343"/><stop offset=".566" style="stop-color:#3d3c4b"/><stop offset=".781" style="stop-color:#494d58"/><stop offset=".979" style="stop-color:#59636c"/><stop offset="1" style="stop-color:#5b666e"/></linearGradient><path d="M58.75 19.35a.68.68 0 0 0 .865.627c.933-.266 2.34-.731 2.347-1.115.04-2.03.225-6.862-.821-8.811-.814-1.517-2.982-1.791-4.134-1.545 1.571.906 1.588 7.764 1.743 10.844z" style="fill:url(#c)"/><path d="m7.013 11.493-.897 9.6a.637.637 0 0 1-.812.556c-.617-.178-1.859-.514-2.462-.737-.719-.266-.782-.945-.782-1.969 0-2.029 3.255-10.72 4.933-10.437 1.158.196 1.068 1.657 2.831 1.344l-.364 3.178-2.447-1.535z" style="fill:#1a1626"/><linearGradient id="d" x1="4.497" x2="4.497" y1="45.997" y2="57.574" gradientTransform="matrix(1 0 0 -1 0 66)" gradientUnits="userSpaceOnUse"><stop offset="0" style="stop-color:#343040"/><stop offset=".325" style="stop-color:#363343"/><stop offset=".566" style="stop-color:#3d3c4b"/><stop offset=".781" style="stop-color:#494d58"/><stop offset=".979" style="stop-color:#59636c"/><stop offset="1" style="stop-color:#5b666e"/></linearGradient><path d="M5.25 19.35a.68.68 0 0 1-.865.627c-.933-.266-2.34-.731-2.347-1.115-.04-2.03-.225-6.862.821-8.811.814-1.517 2.982-1.791 4.134-1.545-1.572.906-1.588 7.764-1.743 10.844z" style="fill:url(#d)"/><path d="M51.639 2.959C50.544 2.549 41.708 2 32 2s-18.544.55-19.639.959c-1.143.427-1.688 2.456-1.688 2.456h42.654s-.545-2.029-1.688-2.456z" style="fill:#ffe600"/><path d="M53.327 5.415C51.912 4.862 38.202 4.333 32 4.333c-6.202 0-19.912.53-21.327 1.082-2.839 8.041-2.736 25.059-2.635 30.801.016.931 1.13 1.522 1.71 1.67C15.14 39.272 19.72 39.629 32 39.629s16.86-.357 22.253-1.741c.579-.149 1.693-.74 1.71-1.67.1-5.743.203-22.76-2.636-30.802z" style="fill:#1a1626"/><linearGradient id="e" x1="32" x2="32" y1="33.435" y2="58.825" gradientTransform="matrix(1 0 0 -1 0 66)" gradientUnits="userSpaceOnUse"><stop offset="0" style="stop-color:#302c3b"/><stop offset=".114" style="stop-color:#28384d"/><stop offset=".347" style="stop-color:#1b4c6b"/><stop offset=".576" style="stop-color:#115a80"/><stop offset=".797" style="stop-color:#0b638e"/><stop offset="1" style="stop-color:#096692"/></linearGradient><path d="M53.404 8.655a.874.874 0 0 0-.718-.672c-3.027-.48-15.01-.808-20.686-.808s-17.66.327-20.686.808a.874.874 0 0 0-.718.672c-1.901 8.194-1.819 20.727-1.79 23.509a.404.404 0 0 0 .408.401h45.572a.404.404 0 0 0 .408-.401c.028-2.782.111-15.315-1.79-23.51z" style="fill:url(#e)"/><path d="M54.52 15.684c-.262-2.471-.621-4.897-1.116-7.03a.874.874 0 0 0-.718-.67c-3.027-.482-15.01-.81-20.686-.81s-17.66.328-20.686.81a.873.873 0 0 0-.718.67c-.495 2.133-.854 4.559-1.116 7.03h45.04z" style="opacity:.5;fill:#1a1626;enable-background:new"/><linearGradient id="f" x1="35.753" x2="35.753" y1="34.15" y2="35.236" gradientTransform="matrix(1 0 0 -1 0 66)" gradientUnits="userSpaceOnUse"><stop offset="0" style="stop-color:#343040"/><stop offset=".056" style="stop-color:#373443"/><stop offset=".672" style="stop-color:#515862"/><stop offset="1" style="stop-color:#5b666e"/></linearGradient><path d="M45.594 31.849c.493.029.457-.546-.034-.616-4.723-.67-14.025-.62-19.349.141-.803.115-.855.382-.206.328 6.739-.562 16.64-.026 19.589.147z" style="fill:url(#f)"/><linearGradient id="g" x1="46.118" x2="46.118" y1="28.784" y2="34.854" gradientTransform="matrix(1 0 0 -1 0 66)" gradientUnits="userSpaceOnUse"><stop offset="0" style="stop-color:#343040"/><stop offset=".056" style="stop-color:#373443"/><stop offset=".672" style="stop-color:#515862"/><stop offset="1" style="stop-color:#5b666e"/></linearGradient><path d="M51.078 37.173c.44.271.902-.816.454-1.07-4.111-2.33-8.712-4.432-10.673-4.947-.22-.057-.418.135-.304.185 2.54 1.112 6.684 3.475 10.523 5.832z" style="fill:url(#g)"/><linearGradient id="h" x1="28.244" x2="28.244" y1="32.534" y2="33.679" gradientTransform="matrix(1 0 0 -1 0 66)" gradientUnits="userSpaceOnUse"><stop offset="0" style="stop-color:#343040"/><stop offset=".056" style="stop-color:#373443"/><stop offset=".672" style="stop-color:#515862"/><stop offset="1" style="stop-color:#5b666e"/></linearGradient><path d="M18.4 33.273c-.493.02-.45-.554.041-.615 4.73-.59 14.032-.384 19.346.467.802.129.85.396.203.331-6.732-.675-16.638-.306-19.59-.183z" style="fill:url(#h)"/><linearGradient id="i" x1="18.108" x2="18.108" y1="28.787" y2="33.37" gradientTransform="matrix(1 0 0 -1 0 66)" gradientUnits="userSpaceOnUse"><stop offset="0" style="stop-color:#343040"/><stop offset=".056" style="stop-color:#373443"/><stop offset=".672" style="stop-color:#515862"/><stop offset="1" style="stop-color:#5b666e"/></linearGradient><path d="M12.874 37.188c-.463.208-.82-.937-.351-1.127 4.303-1.742 9.07-3.191 11.068-3.429.223-.026.403.192.284.226-2.627.751-6.966 2.522-11 4.33z" style="fill:url(#i)"/><path d="M27.073 12.232c-.004-.086.041-.132.123-.132h.485c.075 0 .116.046.132.128.034.307.221.427.512.427.33 0 .52-.155.52-.462V9.685c0-.081.044-.127.125-.127h.482c.081 0 .127.046.127.127v2.508c0 .809-.609 1.177-1.257 1.177-.614.002-1.191-.332-1.249-1.138zm2.979-.802c0-1.093.864-1.942 1.943-1.942 1.077 0 1.942.849 1.942 1.941a1.928 1.928 0 0 1-1.942 1.943 1.925 1.925 0 0 1-1.943-1.943zm3.15 0c0-.72-.53-1.227-1.207-1.227-.679 0-1.208.509-1.208 1.226 0 .718.53 1.226 1.208 1.226.677.003 1.207-.507 1.207-1.226zm3.702-1.72-1.137 1.93v1.534c0 .081-.047.126-.129.126h-.479c-.08 0-.127-.045-.127-.126V11.64l-1.134-1.927c-.052-.089-.013-.152.085-.152h.557c.071 0 .117.029.15.09l.712 1.28.71-1.28a.157.157 0 0 1 .15-.09h.557c.095-.001.137.062.085.15z" style="fill:#f9b700"/><path d="M53.914 50.74v2.154c0 .126.102.228.228.228h1.295a.228.228 0 0 0 .228-.228V50.42a.228.228 0 0 0-.283-.222l-1.294.32a.228.228 0 0 0-.174.221zm-43.828 0v2.154a.228.228 0 0 1-.228.228H8.563a.228.228 0 0 1-.228-.228V50.42c0-.149.139-.258.283-.222l1.294.32a.228.228 0 0 1 .174.221z" style="fill:#f58301"/><path d="M44.057 43.757H19.943A.943.943 0 0 0 19 44.7v6.114c0 .52.422.943.943.943h24.114a.943.943 0 0 0 .943-.943V44.7a.943.943 0 0 0-.943-.943z" style="fill:#ffc400"/><path d="M19 44.745h26v.25H19zm0 1.155h26v.25H19zm0 1.154h26v.25H19zm0 1.155h26v.25H19zm0 1.155h26v.25H19zm0 1.155h26v.25H19z" style="fill:#f59e01"/><path d="M43.953 43.507H20.047c-.716 0-1.297.58-1.297 1.296v5.907c0 .717.58 1.297 1.297 1.297h23.906c.716 0 1.297-.58 1.297-1.297v-5.907c0-.716-.58-1.296-1.297-1.296zm.797 7.168c0 .46-.372.832-.832.832H20.083a.832.832 0 0 1-.832-.832V44.84c0-.46.372-.832.832-.832H43.92c.459 0 .831.372.831.832v5.836z" style="fill:#f59e01"/></svg>