<svg xmlns="http://www.w3.org/2000/svg" xml:space="preserve" style="enable-background:new 0 0 64 64" viewBox="0 0 64 64"><path d="M37.62 52.4 35.158 59H64v-5.345z" style="fill:#3d4447"/><path d="M62.895 56.667A5.337 5.337 0 0 1 57.555 62a5.337 5.337 0 0 1-5.338-5.333 5.336 5.336 0 0 1 5.338-5.334 5.337 5.337 0 0 1 5.34 5.334z" style="fill:#4d5559"/><path d="M61.826 56.667a4.27 4.27 0 0 1-4.27 4.266 4.27 4.27 0 0 1-4.271-4.266 4.269 4.269 0 0 1 4.27-4.267 4.27 4.27 0 0 1 4.271 4.267z" style="fill:#636f75"/><path d="M59.69 56.667a2.133 2.133 0 0 1-2.135 2.133 2.134 2.134 0 1 1 0-4.267c1.182 0 2.136.956 2.136 2.134z" style="fill:#3d4447"/><path d="M43.675 56.667A5.336 5.336 0 0 1 38.337 62a5.337 5.337 0 0 1-5.34-5.333 5.337 5.337 0 0 1 5.34-5.334 5.336 5.336 0 0 1 5.338 5.334z" style="fill:#4d5559"/><path d="M42.608 56.667a4.27 4.27 0 0 1-4.271 4.266 4.27 4.27 0 0 1-4.271-4.266 4.27 4.27 0 0 1 4.27-4.267 4.27 4.27 0 0 1 4.272 4.267z" style="fill:#636f75"/><path d="M40.472 56.667a2.134 2.134 0 0 1-2.135 2.133 2.133 2.133 0 1 1 0-4.267c1.18 0 2.135.956 2.135 2.134z" style="fill:#3d4447"/><path d="M51.15 59.867h-6.407l-1.068-3.2h8.542z" style="fill:#4d5559"/><linearGradient id="a" x1="47.946" x2="47.946" y1="57.733" y2="55.6" gradientUnits="userSpaceOnUse"><stop offset="0" style="stop-color:#3d4447"/><stop offset=".247" style="stop-color:#444b4f"/><stop offset=".629" style="stop-color:#556065"/><stop offset="1" style="stop-color:#6c7980"/></linearGradient><path d="M57.555 55.6H38.337c-1.423 0-1.423 2.133 0 2.133h19.218c1.423 0 1.423-2.133 0-2.133z" style="fill:url(#a)"/><linearGradient id="b" x1="43.155" x2="31.27" y1="48.799" y2="12.296" gradientUnits="userSpaceOnUse"><stop offset=".184" style="stop-color:#abb3b8"/><stop offset=".293" style="stop-color:#b4bcc0"/><stop offset=".47" style="stop-color:#ccd3d7"/><stop offset=".626" style="stop-color:#e7ecf0"/><stop offset=".674" style="stop-color:#e1e6ea"/><stop offset=".738" style="stop-color:#d0d6db"/><stop offset=".811" style="stop-color:#b4bcc1"/><stop offset=".831" style="stop-color:#abb3b8"/></linearGradient><path d="M12.181 30.814s-4.113 14.615-.555 19.532C34.396 52.35 64 47.044 64 47.044V13.568s-13.877-3.231-32.742 5.903c0 0-9.6 4.525-19.077 11.343z" style="fill:url(#b)"/><linearGradient id="c" x1="40.605" x2="40.605" y1="48.702" y2="23.29" gradientUnits="userSpaceOnUse"><stop offset="0" style="stop-color:#005687"/><stop offset=".004" style="stop-color:#005688"/><stop offset=".251" style="stop-color:#0f6da3"/><stop offset=".499" style="stop-color:#1a7cb7"/><stop offset=".749" style="stop-color:#2086c3"/><stop offset="1" style="stop-color:#2289c7"/></linearGradient><path d="m17.21 48.702 12.95-1.98S38.761 30.602 64 23.29c-30.067 1.83-46.79 25.412-46.79 25.412z" style="fill:url(#c)"/><linearGradient id="d" x1="50.123" x2="50.123" y1="48.256" y2="26.862" gradientUnits="userSpaceOnUse"><stop offset="0" style="stop-color:#005687"/><stop offset=".004" style="stop-color:#005688"/><stop offset=".251" style="stop-color:#0f6da3"/><stop offset=".499" style="stop-color:#1a7cb7"/><stop offset=".749" style="stop-color:#2086c3"/><stop offset="1" style="stop-color:#2289c7"/></linearGradient><path d="m36.247 48.256 10.005-1.754S50.358 33.871 64 26.862c-18.266 4.19-27.753 21.394-27.753 21.394z" style="fill:url(#d)"/><linearGradient id="e" x1="38.091" x2="38.091" y1="56.261" y2="45.826" gradientUnits="userSpaceOnUse"><stop offset="0" style="stop-color:#525c61"/><stop offset=".221" style="stop-color:#5a6469"/><stop offset=".562" style="stop-color:#6f7a7e"/><stop offset=".979" style="stop-color:#929da1"/><stop offset="1" style="stop-color:#949fa3"/></linearGradient><path d="M12.181 56.261H28.17c2.7 0 35.83-6.467 35.83-6.467v-3.968H14.058l-1.877 10.435z" style="fill:url(#e)"/><linearGradient id="f" x1="14.575" x2="2.073" y1="53.965" y2="31.813" gradientUnits="userSpaceOnUse"><stop offset=".205" style="stop-color:#005687"/><stop offset=".304" style="stop-color:#055d90"/><stop offset=".464" style="stop-color:#1270a8"/><stop offset=".625" style="stop-color:#2289c7"/><stop offset=".681" style="stop-color:#2085c2"/><stop offset=".744" style="stop-color:#187bb5"/><stop offset=".809" style="stop-color:#0d699f"/><stop offset=".862" style="stop-color:#005687"/></linearGradient><path d="M12.181 56.261s3.995-2.46 4.439-11.608c.45-9.27-4.439-13.84-4.439-13.84C5.337 33.799-.748 41.624.075 46.946c.896 5.8 8.26 9.625 12.106 9.316z" style="fill:url(#f)"/><linearGradient id="g" x1="42.42" x2="42.42" y1="57.295" y2="48.32" gradientUnits="userSpaceOnUse"><stop offset="0" style="stop-color:#525c61"/><stop offset=".221" style="stop-color:#5a6469"/><stop offset=".562" style="stop-color:#6f7a7e"/><stop offset=".979" style="stop-color:#929da1"/><stop offset="1" style="stop-color:#949fa3"/></linearGradient><path d="M36.252 48.702c-4.327 0-9.63 5.442-15.413 7.56 0 0 4.073 1.26 8.741 1.26 5.784 0 6.357-2.481 8.831-2.481H64v-6.249s-19.206-.09-27.748-.09z" style="fill:url(#g)"/><linearGradient id="h" x1="54.847" x2="49.815" y1="14.09" y2="-1.1" gradientUnits="userSpaceOnUse"><stop offset="0" style="stop-color:#abb3b8"/><stop offset=".14" style="stop-color:#bec5ca"/><stop offset=".35" style="stop-color:#d5dbdf"/><stop offset=".549" style="stop-color:#e2e8ec"/><stop offset=".726" style="stop-color:#e7ecf0"/></linearGradient><path d="M39.706 8.007s1.274 8.527 19.194 7.265c0 0 3.056-1.704 5.1-1.704V2C50.123 2 42.602 5.466 39.706 8.007z" style="fill:url(#h)"/><path d="M58.9 15.272c-12.355 5.617-27.642 4.198-27.642 4.198s1.122-6.003 8.448-11.463c6.266 2.723 18.266 0 19.194 7.265z" style="fill:#849196"/><linearGradient id="i" x1="44.865" x2="44.865" y1="20.369" y2="7.113" gradientUnits="userSpaceOnUse"><stop offset="0" style="stop-color:#302c3b"/><stop offset="1" style="stop-color:#096692"/></linearGradient><path d="M35.735 19.13c-1.77 0-3.628-.117-4.35-.164.47-1.555 2.305-6.386 7.928-10.661 2.266 1.248 5.575 1.453 8.354 1.724 5.088.496 9.902.965 10.68 4.943-8.179 3.613-17.651 4.158-22.612 4.158z" style="fill:url(#i)"/></svg>