<svg xmlns="http://www.w3.org/2000/svg" xml:space="preserve" style="enable-background:new 0 0 64 64" viewBox="0 0 64 64"><linearGradient id="a" x1="17.068" x2="17.068" y1="51.736" y2="42.483" gradientUnits="userSpaceOnUse"><stop offset="0" style="stop-color:#ffe600"/><stop offset=".441" style="stop-color:#fbc401"/><stop offset=".81" style="stop-color:#f9ab02"/></linearGradient><path d="M16.92 42.62c-.902 1.895-1.465 6.202-1.162 8.642.06.479 1.65.68 1.583.193-.36-2.633.12-6.273 1.11-8.54.14-.316-1.378-.615-1.53-.295z" style="fill:url(#a)"/><linearGradient id="b" x1="32.278" x2="32.278" y1="51.893" y2="40.099" gradientUnits="userSpaceOnUse"><stop offset="0" style="stop-color:#ffe600"/><stop offset=".441" style="stop-color:#fbc401"/><stop offset=".81" style="stop-color:#f9ab02"/></linearGradient><path d="M32.251 40.256c-.174-.368-1.838-.02-1.68.347 1.138 2.611 2.362 7.475 1.396 10.982-.15.54 1.616.31 1.74-.23.874-3.764-.425-8.917-1.456-11.1z" style="fill:url(#b)"/><linearGradient id="c" x1="27.787" x2="27.787" y1="13.374" y2="11.942" gradientUnits="userSpaceOnUse"><stop offset="0" style="stop-color:#525c61"/><stop offset=".155" style="stop-color:#616c70"/><stop offset=".49" style="stop-color:#7d888c"/><stop offset=".783" style="stop-color:#8e999d"/><stop offset="1" style="stop-color:#949fa3"/></linearGradient><path d="M53.404 11.942H3.343c-.637 0-1.733 1.432-1.2 1.432h50.06c.53 0 1.834-1.432 1.203-1.432z" style="fill:url(#c)"/><path d="M27.032 11h1.508v6.403h-1.508z" style="fill:#525c61"/><linearGradient id="d" x1="26.427" x2="29.146" y1="13.781" y2="13.781" gradientUnits="userSpaceOnUse"><stop offset="0" style="stop-color:#949fa3"/><stop offset=".021" style="stop-color:#929da1"/><stop offset=".438" style="stop-color:#6f7a7e"/><stop offset=".779" style="stop-color:#5a6469"/><stop offset="1" style="stop-color:#525c61"/></linearGradient><path d="M29.146 16.133h-2.72V11.74c0-.173.14-.312.313-.312h2.095c.173 0 .312.14.312.312v4.392z" style="fill:url(#d)"/><linearGradient id="e" x1="27.786" x2="27.786" y1="16.598" y2="15.504" gradientUnits="userSpaceOnUse"><stop offset="0" style="stop-color:#525c61"/><stop offset=".221" style="stop-color:#5a6469"/><stop offset=".562" style="stop-color:#6f7a7e"/><stop offset=".979" style="stop-color:#929da1"/><stop offset="1" style="stop-color:#949fa3"/></linearGradient><path d="M25.835 15.504h3.903v1.094h-3.903z" style="fill:url(#e)"/><linearGradient id="f" x1="32.399" x2="32.399" y1="13.557" y2="11.758" gradientUnits="userSpaceOnUse"><stop offset="0" style="stop-color:#525c61"/><stop offset=".221" style="stop-color:#5a6469"/><stop offset=".562" style="stop-color:#6f7a7e"/><stop offset=".979" style="stop-color:#929da1"/><stop offset="1" style="stop-color:#949fa3"/></linearGradient><path d="M29.923 11.758h4.952v1.8h-4.952z" style="fill:url(#f)"/><linearGradient id="g" x1="22.998" x2="22.998" y1="13.557" y2="11.758" gradientUnits="userSpaceOnUse"><stop offset="0" style="stop-color:#525c61"/><stop offset=".221" style="stop-color:#5a6469"/><stop offset=".562" style="stop-color:#6f7a7e"/><stop offset=".979" style="stop-color:#929da1"/><stop offset="1" style="stop-color:#949fa3"/></linearGradient><path d="M20.522 11.758h4.952v1.8h-4.952z" style="fill:url(#g)"/><linearGradient id="h" x1="34.65" x2="36.666" y1="29.092" y2="17.661" gradientUnits="userSpaceOnUse"><stop offset="0" style="stop-color:#f9ab02"/><stop offset=".168" style="stop-color:#fbbb01"/><stop offset=".473" style="stop-color:#fdd301"/><stop offset=".758" style="stop-color:#fee100"/><stop offset="1" style="stop-color:#ffe600"/></linearGradient><path d="m55.858 25.544-13.884.045a3.343 3.343 0 0 1-2.847-1.578l-.894-1.439a3.35 3.35 0 0 0-2.845-1.58.675.675 0 0 1-.675-.675V18.13a.972.972 0 0 0-.972-.971H21.9c-1.027 0-1.56 2.189-6.871 4.137 3.28 10.68 40.83 6.585 40.83 6.585v-2.338z" style="fill:url(#h)"/><linearGradient id="i" x1="53.926" x2="60.593" y1="17.822" y2="24.489" gradientUnits="userSpaceOnUse"><stop offset="0" style="stop-color:#ffe600"/><stop offset=".242" style="stop-color:#fee100"/><stop offset=".527" style="stop-color:#fdd301"/><stop offset=".832" style="stop-color:#fbbb01"/><stop offset="1" style="stop-color:#f9ab02"/></linearGradient><path d="M58.705 13.043 52.308 23.8l.904 1.114-1.81 3.237h5.529L62 13.043z" style="fill:url(#i)"/><path d="M58.673 17.034a1.209 1.209 0 0 1 1.09-.683h1.127l.037-.111h-1.253a1.21 1.21 0 0 0-1.089.683l-5.117 10.586h.142l5.063-10.475z" style="fill:#f9ab02"/><linearGradient id="j" x1="54.777" x2="57.773" y1="30.09" y2="37.248" gradientUnits="userSpaceOnUse"><stop offset="0" style="stop-color:#f9ab02"/><stop offset=".168" style="stop-color:#fbbb01"/><stop offset=".473" style="stop-color:#fdd301"/><stop offset=".758" style="stop-color:#fee100"/><stop offset="1" style="stop-color:#ffe600"/></linearGradient><path d="m57.377 37.28 2.018-.895-2.683-7.996h-5.294l4.674 8.104z" style="fill:url(#j)"/><linearGradient id="k" x1="49.438" x2="48.849" y1="35.122" y2="28.117" gradientUnits="userSpaceOnUse"><stop offset="0" style="stop-color:#f9ab02"/><stop offset=".423" style="stop-color:#fbc101"/><stop offset="1" style="stop-color:#ffe600"/></linearGradient><path d="M36.335 27.387v8.95L62 29.35v-1.882z" style="fill:url(#k)"/><radialGradient id="l" cx="20.53" cy="30.853" r="19.162" fx="22.272" fy="19.09" gradientTransform="matrix(1 0 0 .7691 0 7.309)" gradientUnits="userSpaceOnUse"><stop offset="0" style="stop-color:#ffe600"/><stop offset=".5" style="stop-color:#ffe400"/><stop offset=".68" style="stop-color:#fedd00"/><stop offset=".808" style="stop-color:#fdd201"/><stop offset=".911" style="stop-color:#fbc101"/><stop offset="1" style="stop-color:#f9ab02"/></radialGradient><path d="M38.05 30.154C35.414 18.929 20.647 17.16 12.46 22.1c-4.297 3.743-8.923 14.444-5.486 19.585 6.74 6.63 34.858 4.569 31.076-11.531z" style="fill:url(#l)"/><linearGradient id="m" x1="8.064" x2="8.064" y1="41.685" y2="22.1" gradientUnits="userSpaceOnUse"><stop offset="0" style="stop-color:#302c3b"/><stop offset=".162" style="stop-color:#243e56"/><stop offset=".359" style="stop-color:#185070"/><stop offset=".562" style="stop-color:#105c83"/><stop offset=".772" style="stop-color:#0b648e"/><stop offset="1" style="stop-color:#096692"/></linearGradient><path d="M12.725 22.1c-1.977 1.439-15.718 13.063-5.703 19.585-.423-5.754 2.851-16.64 5.703-19.585z" style="fill:url(#m)"/><path d="M21.237 31.894c-.114-.303-.205-.548-1.059-.164l-.895.404c-.856.384-.765.628-.651.931.068.182 2.673-.99 2.605-1.17z" style="fill:#f9ab02"/><linearGradient id="n" x1="22.432" x2="22.432" y1="53" y2="47.663" gradientUnits="userSpaceOnUse"><stop offset="0" style="stop-color:#525c61"/><stop offset=".155" style="stop-color:#616c70"/><stop offset=".49" style="stop-color:#7d888c"/><stop offset=".783" style="stop-color:#8e999d"/><stop offset="1" style="stop-color:#949fa3"/></linearGradient><path d="M38.96 51.12H9.763a2.235 2.235 0 0 1-1.645-.722l-1.41-1.535a.95.95 0 0 0-1.405 1.278l1.692 1.88c.561.623 1.36.979 2.198.979h29.716c1.17 0 1.205-1.88.051-1.88z" style="fill:url(#n)"/><path d="M10.337 40.857c-.85 0-1.322-.144-1.436-.438-.16-.41-.513-3.084.064-5.49l.27.062c-.556 2.31-.222 4.954-.075 5.334.065.17.57.32 1.772.246 3.463-.215 10.322-2.114 10.64-3.445.413-1.715.524-5.704.367-8.213l.277-.017c.157 2.528.042 6.553-.374 8.29-.382 1.59-7.63 3.448-10.893 3.65a9.07 9.07 0 0 1-.612.021z" style="fill:#f9ab02"/><linearGradient id="o" x1="15.531" x2="15.531" y1="35.842" y2="22.619" gradientUnits="userSpaceOnUse"><stop offset="0" style="stop-color:#302c3b"/><stop offset=".162" style="stop-color:#243e56"/><stop offset=".359" style="stop-color:#185070"/><stop offset=".562" style="stop-color:#105c83"/><stop offset=".772" style="stop-color:#0b648e"/><stop offset="1" style="stop-color:#096692"/></linearGradient><path d="M20.787 22.825c-.92-.63-7.67.314-8.286 1.111-.972 1.261-3.78 11.172-3.663 11.854.118.684 13.4-5.661 13.39-6.352-.017-1.288-.017-5.636-1.441-6.613z" style="fill:url(#o)"/></svg>