<svg xmlns="http://www.w3.org/2000/svg" xml:space="preserve" style="enable-background:new 0 0 64 64" viewBox="0 0 64 64"><path d="M16.523.416 5.306 8.268a.831.831 0 0 0 0 1.363l9.583 6.708H17L6.444 8.949 17 1.56l10.556 7.39L17 16.338h2.111l9.583-6.708a.831.831 0 0 0 0-1.363L17.477.416a.831.831 0 0 0-.954 0z" style="fill:#99a8ae"/><path d="M18.056 1.056a1.056 1.056 0 1 1-2.112 0 1.056 1.056 0 0 1 2.112 0z" style="fill:#b6c4c9"/><path d="M17.792 1.056a.792.792 0 1 1-1.584 0 .792.792 0 0 1 1.584 0z" style="fill:#6e8189"/><path d="M29.14 8.95a1.056 1.056 0 1 1-2.111 0 1.056 1.056 0 0 1 2.11 0zm-22.169 0a1.056 1.056 0 1 1-2.11 0 1.056 1.056 0 0 1 2.11 0z" style="fill:#b6c4c9"/><path d="M28.876 8.95a.792.792 0 1 1-1.584 0 .792.792 0 0 1 1.584 0zm-22.169 0a.792.792 0 1 1-1.583 0 .792.792 0 0 1 1.583 0z" style="fill:#6e8189"/><linearGradient id="a" x1="1.5" x2="62.5" y1="34.999" y2="34.999" gradientUnits="userSpaceOnUse"><stop offset="0" style="stop-color:#e6c382"/><stop offset=".007" style="stop-color:#ebcb8e"/><stop offset=".023" style="stop-color:#f4d8a2"/><stop offset=".041" style="stop-color:#fae1b0"/><stop offset=".063" style="stop-color:#fee6b8"/><stop offset=".1" style="stop-color:#ffe8bb"/><stop offset=".9" style="stop-color:#ffe8bb"/><stop offset=".937" style="stop-color:#fee6b8"/><stop offset=".959" style="stop-color:#fae1b0"/><stop offset=".977" style="stop-color:#f4d8a2"/><stop offset=".993" style="stop-color:#ebcb8e"/><stop offset="1" style="stop-color:#e6c382"/></linearGradient><path d="M1.5 21.999v5h1v14h-1v7h61v-7h-1v-14h1v-5z" style="fill:url(#a)"/><path d="M4.696 55.995h54.608v4H4.696v-4z" style="fill:#585f63"/><path d="M27.613 59.5c0 2.485-2.017 4.5-4.505 4.5a4.503 4.503 0 0 1-4.505-4.5c0-2.485 2.018-4.5 4.505-4.5a4.503 4.503 0 0 1 4.505 4.5z" style="fill:#6e797d"/><ellipse cx="23.108" cy="59.5" rx="3.603" ry="3.6" style="fill:#849196"/><path d="M24.91 59.5a1.8 1.8 0 0 1-1.802 1.8 1.8 1.8 0 1 1 0-3.6 1.8 1.8 0 0 1 1.802 1.8z" style="fill:#585f63"/><path d="M11.396 59.5c0 2.485-2.017 4.5-4.504 4.5a4.503 4.503 0 0 1-4.505-4.5c0-2.485 2.017-4.5 4.505-4.5a4.502 4.502 0 0 1 4.504 4.5z" style="fill:#6e797d"/><path d="M10.496 59.5c0 1.988-1.614 3.6-3.604 3.6s-3.604-1.612-3.604-3.6 1.614-3.6 3.604-3.6a3.602 3.602 0 0 1 3.604 3.6z" style="fill:#849196"/><path d="M8.694 59.5a1.8 1.8 0 0 1-1.802 1.8 1.8 1.8 0 1 1 0-3.6 1.8 1.8 0 0 1 1.802 1.8z" style="fill:#585f63"/><path d="M17.703 61.4h-5.406l-.9-2h7.207z" style="fill:#6e797d"/><linearGradient id="b" x1="15" x2="15" y1="60.4" y2="58.6" gradientUnits="userSpaceOnUse"><stop offset="0" style="stop-color:#525c61"/><stop offset=".221" style="stop-color:#5a6469"/><stop offset=".562" style="stop-color:#6f7a7e"/><stop offset=".979" style="stop-color:#929da1"/><stop offset="1" style="stop-color:#949fa3"/></linearGradient><path d="M23.108 58.6H6.892c-1.2 0-1.2 1.8 0 1.8h16.216c1.2 0 1.2-1.8 0-1.8z" style="fill:url(#b)"/><path d="M61 59.5c0 2.485-2.017 4.5-4.505 4.5a4.503 4.503 0 0 1-4.505-4.5c0-2.485 2.017-4.5 4.505-4.5A4.503 4.503 0 0 1 61 59.5z" style="fill:#6e797d"/><ellipse cx="56.495" cy="59.5" rx="3.603" ry="3.6" style="fill:#849196"/><path d="M58.297 59.5a1.8 1.8 0 0 1-1.802 1.8 1.8 1.8 0 1 1 0-3.6 1.8 1.8 0 0 1 1.802 1.8z" style="fill:#585f63"/><path d="M44.783 59.5c0 2.485-2.017 4.5-4.504 4.5a4.503 4.503 0 0 1-4.505-4.5c0-2.485 2.017-4.5 4.505-4.5a4.502 4.502 0 0 1 4.504 4.5z" style="fill:#6e797d"/><path d="M43.882 59.5c0 1.988-1.613 3.6-3.603 3.6-1.99 0-3.604-1.612-3.604-3.6s1.614-3.6 3.604-3.6a3.602 3.602 0 0 1 3.603 3.6z" style="fill:#849196"/><path d="M42.08 59.5a1.8 1.8 0 0 1-1.801 1.8 1.8 1.8 0 1 1 0-3.6 1.8 1.8 0 0 1 1.802 1.8z" style="fill:#585f63"/><path d="M51.09 61.4h-5.406l-.9-2h7.206z" style="fill:#6e797d"/><linearGradient id="c" x1="48.387" x2="48.387" y1="60.4" y2="58.6" gradientUnits="userSpaceOnUse"><stop offset="0" style="stop-color:#525c61"/><stop offset=".221" style="stop-color:#5a6469"/><stop offset=".562" style="stop-color:#6f7a7e"/><stop offset=".979" style="stop-color:#929da1"/><stop offset="1" style="stop-color:#949fa3"/></linearGradient><path d="M56.495 58.6H40.279c-1.2 0-1.2 1.8 0 1.8h16.216c1.2 0 1.2-1.8 0-1.8z" style="fill:url(#c)"/><path d="M24.5 16h-15c-1.1 0-2 .9-2 1.999h19c0-1.1-.9-1.999-2-1.999z" style="fill:#b6c4c9"/><linearGradient id="d" x1="-162" x2="-162" y1="148.001" y2="153.001" gradientTransform="matrix(1 0 0 -1 194 170)" gradientUnits="userSpaceOnUse"><stop offset="0" style="stop-color:#52a100"/><stop offset=".213" style="stop-color:#5ba904"/><stop offset=".56" style="stop-color:#73bf10"/><stop offset=".997" style="stop-color:#9be323"/><stop offset="1" style="stop-color:#9be323"/></linearGradient><path d="M60.5 16.999h-57c-1.1 0-2 .9-2 2v3h61v-3c0-1.1-.9-2-2-2z" style="fill:url(#d)"/><linearGradient id="e" x1="5.678" x2="5.678" y1="40.999" y2="26.999" gradientUnits="userSpaceOnUse"><stop offset="0" style="stop-color:#005d8c"/><stop offset="1" style="stop-color:#2a83a5"/></linearGradient><path d="M1.856 26.999v14h6.641c.554 0 1.003-.449 1.003-1.003V28.001C9.5 27.448 9.051 27 8.498 27H1.856z" style="fill:url(#e)"/><linearGradient id="f" x1="23.5" x2="23.5" y1="40.999" y2="26.999" gradientUnits="userSpaceOnUse"><stop offset="0" style="stop-color:#005d8c"/><stop offset="1" style="stop-color:#2a83a5"/></linearGradient><path d="M16.5 28.002v11.994c0 .554.449 1.003 1.002 1.003h11.996c.553 0 1.002-.449 1.002-1.003V28.001c0-.553-.449-1.002-1.002-1.002H17.503c-.554 0-1.003.449-1.003 1.003z" style="fill:url(#f)"/><linearGradient id="g" x1="40.477" x2="40.477" y1="40.999" y2="26.999" gradientUnits="userSpaceOnUse"><stop offset="0" style="stop-color:#005d8c"/><stop offset="1" style="stop-color:#2a83a5"/></linearGradient><path d="M33.477 28.002v11.994c0 .554.449 1.003 1.003 1.003h11.995c.553 0 1.002-.449 1.002-1.003V28.001c0-.553-.449-1.002-1.002-1.002H34.48c-.554 0-1.003.449-1.003 1.003z" style="fill:url(#g)"/><linearGradient id="h" x1="58.322" x2="58.322" y1="40.999" y2="26.999" gradientUnits="userSpaceOnUse"><stop offset="0" style="stop-color:#005d8c"/><stop offset="1" style="stop-color:#2a83a5"/></linearGradient><path d="M54.5 28.002v11.994c0 .554.449 1.003 1.002 1.003h6.642v-14h-6.642c-.553 0-1.002.449-1.002 1.003z" style="fill:url(#h)"/><linearGradient id="i" x1="32" x2="32" y1="57.995" y2="47.995" gradientUnits="userSpaceOnUse"><stop offset="0" style="stop-color:#314f00"/><stop offset=".054" style="stop-color:#375d00"/><stop offset=".17" style="stop-color:#417600"/><stop offset=".301" style="stop-color:#488900"/><stop offset=".453" style="stop-color:#4e9700"/><stop offset=".644" style="stop-color:#519f00"/><stop offset="1" style="stop-color:#52a100"/></linearGradient><path d="M1 47.995h62v10H1v-10z" style="fill:url(#i)"/><linearGradient id="j" x1="62.5" x2="62.5" y1="57.995" y2="52.995" gradientUnits="userSpaceOnUse"><stop offset="0" style="stop-color:#abb3b8"/><stop offset="1" style="stop-color:#e7ecf0"/></linearGradient><path d="M61.32 52.995h2.36a.32.32 0 0 1 .32.32v4.36a.32.32 0 0 1-.32.32h-1.43c-.69 0-1.25-.56-1.25-1.25v-3.43a.32.32 0 0 1 .32-.32z" style="fill:url(#j)"/><linearGradient id="k" x1="1.5" x2="1.5" y1="57.995" y2="52.995" gradientUnits="userSpaceOnUse"><stop offset="0" style="stop-color:#abb3b8"/><stop offset="1" style="stop-color:#e7ecf0"/></linearGradient><path d="M0 52.995h3v4.07a.93.93 0 0 1-.93.93H0v-5z" style="fill:url(#k)"/><path d="M1 48.995h62v4H1v-4z" style="fill:#f9b700"/><linearGradient id="l" x1="1" x2="63" y1="23.749" y2="23.749" gradientUnits="userSpaceOnUse"><stop offset="0" style="stop-color:#c7a25d"/><stop offset="0" style="stop-color:#c7a35e"/><stop offset=".014" style="stop-color:#d7b678"/><stop offset=".029" style="stop-color:#e3c58c"/><stop offset=".045" style="stop-color:#ebd09a"/><stop offset=".066" style="stop-color:#f0d6a2"/><stop offset=".1" style="stop-color:#f2d8a5"/><stop offset=".9" style="stop-color:#f2d8a5"/><stop offset=".934" style="stop-color:#f0d6a2"/><stop offset=".955" style="stop-color:#ebd09a"/><stop offset=".971" style="stop-color:#e3c58c"/><stop offset=".986" style="stop-color:#d7b678"/><stop offset="1" style="stop-color:#c7a35e"/><stop offset="1" style="stop-color:#c7a25d"/></linearGradient><path d="M1.408 22.999h61.184c.544 0 .544 1.5 0 1.5H1.408c-.544 0-.544-1.5 0-1.5z" style="fill:url(#l)"/><linearGradient id="m" x1="1" x2="63" y1="46.245" y2="46.245" gradientUnits="userSpaceOnUse"><stop offset="0" style="stop-color:#c7a25d"/><stop offset="0" style="stop-color:#c7a35e"/><stop offset=".014" style="stop-color:#d7b678"/><stop offset=".029" style="stop-color:#e3c58c"/><stop offset=".045" style="stop-color:#ebd09a"/><stop offset=".066" style="stop-color:#f0d6a2"/><stop offset=".1" style="stop-color:#f2d8a5"/><stop offset=".9" style="stop-color:#f2d8a5"/><stop offset=".934" style="stop-color:#f0d6a2"/><stop offset=".955" style="stop-color:#ebd09a"/><stop offset=".971" style="stop-color:#e3c58c"/><stop offset=".986" style="stop-color:#d7b678"/><stop offset="1" style="stop-color:#c7a35e"/><stop offset="1" style="stop-color:#c7a25d"/></linearGradient><path d="M1.408 45.495h61.184c.544 0 .544 1.5 0 1.5H1.408c-.544 0-.544-1.5 0-1.5z" style="fill:url(#m)"/></svg>