<svg xmlns="http://www.w3.org/2000/svg" xml:space="preserve" style="enable-background:new 0 0 64 64" viewBox="0 0 64 64"><linearGradient id="a" x1="27" x2="31" y1="33" y2="33" gradientUnits="userSpaceOnUse"><stop offset="0" style="stop-color:#525c61"/><stop offset=".047" style="stop-color:#687277"/><stop offset=".105" style="stop-color:#7b868a"/><stop offset=".172" style="stop-color:#899498"/><stop offset=".253" style="stop-color:#929da1"/><stop offset=".391" style="stop-color:#949fa3"/><stop offset=".677" style="stop-color:#737e82"/><stop offset="1" style="stop-color:#525c61"/></linearGradient><path d="M27 2v62h4V2h-4z" style="fill:url(#a)"/><linearGradient id="b" x1="26.5" x2="31.5" y1="1.5" y2="1.5" gradientUnits="userSpaceOnUse"><stop offset="0" style="stop-color:#727a7d"/><stop offset=".015" style="stop-color:#777f82"/><stop offset=".121" style="stop-color:#96a0a3"/><stop offset=".209" style="stop-color:#a9b4b8"/><stop offset=".268" style="stop-color:#b0bbbf"/><stop offset=".468" style="stop-color:#97a1a5"/><stop offset=".728" style="stop-color:#7c8588"/><stop offset=".877" style="stop-color:#727a7d"/></linearGradient><path d="M29 0c-.551 0-2.5.895-2.5 1.174v1.321c0 .28.226.505.505.505h3.99a.505.505 0 0 0 .505-.505V1.174C31.5.895 29.551 0 29 0z" style="fill:url(#b)"/><linearGradient id="c" x1="683.343" x2="683.343" y1="792.298" y2="780.298" gradientTransform="rotate(90 744.82 70.478)" gradientUnits="userSpaceOnUse"><stop offset="0" style="stop-color:#b0bbbf"/><stop offset=".157" style="stop-color:#aeb9bd"/><stop offset=".213" style="stop-color:#a8b2b6"/><stop offset=".253" style="stop-color:#9da7ab"/><stop offset=".285" style="stop-color:#8d969a"/><stop offset=".313" style="stop-color:#798184"/><stop offset=".32" style="stop-color:#727a7d"/><stop offset=".349" style="stop-color:#8d969a"/><stop offset=".377" style="stop-color:#a0abae"/><stop offset=".406" style="stop-color:#acb7bb"/><stop offset=".433" style="stop-color:#b0bbbf"/><stop offset=".493" style="stop-color:#a6b1b5"/><stop offset=".595" style="stop-color:#8c9599"/><stop offset=".68" style="stop-color:#727a7d"/><stop offset=".687" style="stop-color:#798184"/><stop offset=".715" style="stop-color:#8d969a"/><stop offset=".747" style="stop-color:#9da7ab"/><stop offset=".787" style="stop-color:#a8b2b6"/><stop offset=".844" style="stop-color:#aeb9bd"/><stop offset="1" style="stop-color:#b0bbbf"/></linearGradient><path d="M34.495 7h-10.99a.505.505 0 0 0-.505.505v2.99c0 .28.226.505.505.505h10.99a.505.505 0 0 0 .505-.505v-2.99A.505.505 0 0 0 34.495 7z" style="fill:url(#c)"/><linearGradient id="d" x1="703.343" x2="703.343" y1="792.298" y2="780.298" gradientTransform="rotate(90 744.82 70.478)" gradientUnits="userSpaceOnUse"><stop offset="0" style="stop-color:#b0bbbf"/><stop offset=".157" style="stop-color:#aeb9bd"/><stop offset=".213" style="stop-color:#a8b2b6"/><stop offset=".253" style="stop-color:#9da7ab"/><stop offset=".285" style="stop-color:#8d969a"/><stop offset=".313" style="stop-color:#798184"/><stop offset=".32" style="stop-color:#727a7d"/><stop offset=".349" style="stop-color:#8d969a"/><stop offset=".377" style="stop-color:#a0abae"/><stop offset=".406" style="stop-color:#acb7bb"/><stop offset=".433" style="stop-color:#b0bbbf"/><stop offset=".493" style="stop-color:#a6b1b5"/><stop offset=".595" style="stop-color:#8c9599"/><stop offset=".68" style="stop-color:#727a7d"/><stop offset=".687" style="stop-color:#798184"/><stop offset=".715" style="stop-color:#8d969a"/><stop offset=".747" style="stop-color:#9da7ab"/><stop offset=".787" style="stop-color:#a8b2b6"/><stop offset=".844" style="stop-color:#aeb9bd"/><stop offset="1" style="stop-color:#b0bbbf"/></linearGradient><path d="M34.495 27h-10.99a.505.505 0 0 0-.505.505v2.99c0 .28.226.505.505.505h10.99a.505.505 0 0 0 .505-.505v-2.99a.505.505 0 0 0-.505-.505z" style="fill:url(#d)"/><linearGradient id="e" x1="47" x2="47" y1="33" y2="5" gradientUnits="userSpaceOnUse"><stop offset="0" style="stop-color:#0062d0"/><stop offset=".295" style="stop-color:#0065d1"/><stop offset=".508" style="stop-color:#006ed6"/><stop offset=".696" style="stop-color:#007edd"/><stop offset=".867" style="stop-color:#0094e7"/><stop offset="1" style="stop-color:#00abf1"/></linearGradient><path d="M61 32c0 .55-.45 1-1 1H34c-.55 0-1-.45-1-1V6c0-.55.45-1 1-1h26c.55 0 1 .45 1 1v26z" style="fill:url(#e)"/><circle cx="43" cy="22" r="1" style="fill:#fff"/><path d="M43.5 12h7v1h-7z" style="fill:#fff"/><circle cx="51" cy="22" r="1" style="fill:#fff"/><path d="M47 7c-6.627 0-12 5.375-12 12s5.373 12 12 12 12-5.375 12-12S53.627 7 47 7zm7 11.495a.505.505 0 0 1-.505.505H53v4.004c0 .55-.446.996-.996.996H52v1.504a.496.496 0 0 1-.496.496h-1.008a.496.496 0 0 1-.496-.496V24h-6v1.504a.496.496 0 0 1-.496.496h-1.008a.496.496 0 0 1-.496-.496V24h-.004a.996.996 0 0 1-.996-.996V19h-.495a.505.505 0 0 1-.505-.505v-2.99c0-.28.226-.505.505-.505H41v-3.004c0-.55.446-.996.996-.996h10.008c.55 0 .996.446.996.996V15h.495c.28 0 .505.226.505.505v2.99z" style="fill:#fff"/><path d="M51.495 14h-8.99a.505.505 0 0 0-.505.505v4.99c0 .28.226.505.505.505h8.99a.505.505 0 0 0 .505-.505v-4.99a.505.505 0 0 0-.505-.505z" style="fill:#fff"/><linearGradient id="f" x1="14" x2="14" y1="41" y2="5" gradientUnits="userSpaceOnUse"><stop offset="0" style="stop-color:#ffc801"/><stop offset=".577" style="stop-color:#ffc903"/><stop offset=".784" style="stop-color:#fecc0a"/><stop offset=".932" style="stop-color:#fed015"/><stop offset="1" style="stop-color:#fdd41e"/></linearGradient><path d="M25 40c0 .55-.45 1-1 1H4c-.55 0-1-.45-1-1V6c0-.55.45-1 1-1h20c.55 0 1 .45 1 1v34z" style="fill:url(#f)"/><path d="M4.5 9.5h9v9h-9z" style="fill:#fff"/><path d="M8.714 14.715c0 .842-.662 1.285-1.402 1.285-.697 0-1.327-.395-1.395-1.146-.006-.092.046-.14.131-.14h.51c.08 0 .12.044.138.125.05.253.27.41.617.41.404 0 .63-.218.63-.534 0-.317-.226-.534-.63-.534h-.287c-.085 0-.132-.048-.132-.133v-.286a.27.27 0 0 1 .057-.166l.657-.873H6.2c-.086 0-.134-.047-.134-.133v-.457c0-.085.048-.133.134-.133h2.2c.086 0 .133.048.133.133v.415a.27.27 0 0 1-.057.166l-.667.877c.516.15.905.542.905 1.124zm3.37.012v.457c0 .087-.049.136-.136.136h-.293v.544c0 .087-.048.136-.135.136h-.523c-.087 0-.136-.049-.136-.136v-.544H9.063c-.088 0-.136-.049-.136-.136v-.505c0-.06.012-.11.038-.17l1.239-2.412a.161.161 0 0 1 .159-.097h.558c.103 0 .146.066.097.163L9.774 14.59h1.087v-.812c0-.087.049-.136.136-.136h.523c.087 0 .135.049.135.136v.812h.293c.087 0 .136.049.136.136z" style="fill:#2d2b33"/><path d="M14.5 9.5h9v9h-9z" style="fill:#fff"/><path d="M16.88 12h2.314c.087 0 .136.049.136.136v.445c0 .06-.011.11-.033.169l-1.278 3.147c-.027.072-.082.103-.158.103h-.55c-.098 0-.141-.06-.103-.157l1.255-3.089H16.88c-.087 0-.135-.048-.135-.135v-.483c0-.087.048-.136.135-.136zm3.681 0h.558c.088 0 .136.049.136.136v3.728c0 .087-.048.136-.136.136h-.514c-.087 0-.136-.049-.136-.136v-3.073l-.772.425c-.093.054-.163.01-.163-.093v-.499c0-.071.029-.126.093-.162l.765-.42a.302.302 0 0 1 .17-.042z" style="fill:#2d2b33"/><path d="M4.5 21.5h9v9h-9z" style="fill:#fff"/><path d="M8.357 25.329c0 .734-.593 1.328-1.35 1.328H6.3v1.207c0 .087-.049.136-.136.136H5.65c-.087 0-.136-.049-.136-.136v-3.728c0-.087.049-.136.136-.136h1.357c.757 0 1.35.593 1.35 1.329zm-.786 0c0-.333-.244-.592-.564-.592H6.3v1.183h.707c.32 0 .564-.26.564-.591zm1.07.671c0-1.125.84-2 2.007-2 .86 0 1.594.53 1.83 1.303.025.089-.022.147-.112.147h-.535c-.073 0-.117-.036-.148-.103-.172-.375-.572-.61-1.035-.61-.755 0-1.25.523-1.25 1.263 0 .74.495 1.263 1.25 1.263.463 0 .863-.236 1.035-.61.031-.067.075-.103.148-.103h.535c.09 0 .138.054.114.136-.228.775-.967 1.314-1.832 1.314-1.166 0-2.007-.875-2.007-2z" style="fill:#2d2b33"/><path d="M14.5 21.5h9v9h-9zm-10 12h19v3h-19z" style="fill:#fff"/><path d="M16.215 27.867v-.348c0-.064.02-.116.069-.164l1.264-1.275c.246-.251.458-.542.458-.819 0-.33-.198-.51-.488-.51-.282 0-.478.122-.523.398-.013.086-.059.13-.139.13h-.508c-.085 0-.133-.049-.128-.14.065-.789.666-1.139 1.282-1.139.637 0 1.275.397 1.275 1.261 0 .449-.28.89-.62 1.225l-.789.771h1.339c.085 0 .133.048.133.133v.477c0 .085-.048.133-.133.133h-2.359c-.085 0-.133-.048-.133-.133zm5.57-1.152c0 .842-.661 1.285-1.401 1.285-.698 0-1.327-.395-1.396-1.146-.005-.092.046-.14.132-.14h.51c.08 0 .119.044.137.125.05.253.27.41.617.41.405 0 .63-.218.63-.534 0-.317-.225-.534-.63-.534h-.286c-.086 0-.133-.048-.133-.133v-.286a.27.27 0 0 1 .058-.166l.657-.873h-1.41c-.085 0-.133-.047-.133-.133v-.457c0-.085.048-.133.133-.133h2.2c.086 0 .134.048.134.133v.415a.27.27 0 0 1-.058.166l-.666.877c.515.15.904.542.904 1.124z" style="fill:#2d2b33"/></svg>