<svg xmlns="http://www.w3.org/2000/svg" xml:space="preserve" style="enable-background:new 0 0 64 64" viewBox="0 0 64 64"><path d="M32.85 33.377v3.973L48.664 62l1.013-8.178z" style="fill:#364147"/><linearGradient id="a" x1="47.15" x2="35.594" y1="51.61" y2="37.758" gradientUnits="userSpaceOnUse"><stop offset=".333" style="stop-color:#4e5e67"/><stop offset=".549" style="stop-color:#3c6479"/><stop offset=".885" style="stop-color:#196f9c"/></linearGradient><path d="M30 28v3.972l15.815 22.734 1.013-8.178z" style="fill:url(#a)"/><linearGradient id="b" x1="47.695" x2="63.262" y1="61.477" y2="45.91" gradientUnits="userSpaceOnUse"><stop offset="0" style="stop-color:#47565e"/><stop offset=".476" style="stop-color:#495860"/><stop offset=".757" style="stop-color:#526067"/><stop offset=".986" style="stop-color:#606c72"/><stop offset="1" style="stop-color:#616d73"/></linearGradient><path d="M45.815 46.528v8.178h2.85V62H64V46.528z" style="fill:url(#b)"/><linearGradient id="c" x1="34.124" x2="58" y1="27.581" y2="49.348" gradientUnits="userSpaceOnUse"><stop offset=".286" style="stop-color:#88989e"/><stop offset=".321" style="stop-color:#85949a"/><stop offset=".559" style="stop-color:#717f85"/><stop offset=".789" style="stop-color:#657177"/><stop offset="1" style="stop-color:#616d73"/></linearGradient><path d="m30 28 15.815 18.528H64L35.775 28z" style="fill:url(#c)"/><path d="M30.715 28H30l15.815 18.528h2.713L30.715 28z" style="fill:#f9b700"/><path d="M22.973 30h-3.946L1.275 62h39.45z" style="fill:#4e5e67"/><path d="M23 30h-.155L33.9 62h7.344zm-4 0L.755 62H8.1l11.056-32z" style="opacity:.5;fill:#303030"/><linearGradient id="d" x1="29.435" x2="31.037" y1="46.83" y2="46.08" gradientUnits="userSpaceOnUse"><stop offset="0" style="stop-color:#99a8ae"/><stop offset=".312" style="stop-color:#9cabb1"/><stop offset=".559" style="stop-color:#a6b4b9"/><stop offset=".783" style="stop-color:#b7c2c8"/><stop offset=".993" style="stop-color:#ced7dc"/><stop offset="1" style="stop-color:#cfd8dd"/></linearGradient><path d="M23.042 30h-.104l12.11 32h4.429z" style="fill:url(#d)"/><linearGradient id="e" x1="-162.868" x2="-161.541" y1="123.189" y2="123.972" gradientTransform="matrix(1 0 0 -1 194 170)" gradientUnits="userSpaceOnUse"><stop offset="0" style="stop-color:#cfd8dd"/><stop offset=".253" style="stop-color:#cad3d9"/><stop offset=".558" style="stop-color:#bbc6cc"/><stop offset=".889" style="stop-color:#a3b1b7"/><stop offset="1" style="stop-color:#99a8ae"/></linearGradient><path d="M23.1 30h-.086l15.29 32H42z" style="fill:url(#e)"/><linearGradient id="f" x1="1193.062" x2="1194.664" y1="46.83" y2="46.08" gradientTransform="matrix(-1 0 0 1 1205.627 0)" gradientUnits="userSpaceOnUse"><stop offset="0" style="stop-color:#99a8ae"/><stop offset=".312" style="stop-color:#9cabb1"/><stop offset=".559" style="stop-color:#a6b4b9"/><stop offset=".783" style="stop-color:#b7c2c8"/><stop offset=".993" style="stop-color:#ced7dc"/><stop offset="1" style="stop-color:#cfd8dd"/></linearGradient><path d="M18.958 30h.104L6.952 62H2.523z" style="fill:url(#f)"/><linearGradient id="g" x1="1000.759" x2="1002.086" y1="123.189" y2="123.972" gradientTransform="rotate(180 505.814 85)" gradientUnits="userSpaceOnUse"><stop offset="0" style="stop-color:#cfd8dd"/><stop offset=".253" style="stop-color:#cad3d9"/><stop offset=".558" style="stop-color:#bbc6cc"/><stop offset=".889" style="stop-color:#a3b1b7"/><stop offset="1" style="stop-color:#99a8ae"/></linearGradient><path d="M18.9 30h.086L3.696 62H0z" style="fill:url(#g)"/><linearGradient id="h" x1="51.374" x2="51.374" y1="45.844" y2="38.971" gradientUnits="userSpaceOnUse"><stop offset="0" style="stop-color:#364147;stop-opacity:0"/><stop offset="1" style="stop-color:#364147"/></linearGradient><path d="M50.488 38.971h1.772v6.873h-1.772z" style="opacity:.25;fill:url(#h)"/><linearGradient id="i" x1="1443.613" x2="1445.386" y1="26.648" y2="26.648" gradientTransform="matrix(-1 0 0 1 1495.873 0)" gradientUnits="userSpaceOnUse"><stop offset="0" style="stop-color:#525c61"/><stop offset=".047" style="stop-color:#687277"/><stop offset=".105" style="stop-color:#7b868a"/><stop offset=".172" style="stop-color:#899498"/><stop offset=".253" style="stop-color:#929da1"/><stop offset=".391" style="stop-color:#949fa3"/><stop offset=".677" style="stop-color:#737e82"/><stop offset="1" style="stop-color:#525c61"/></linearGradient><path d="M52.26 13.886v25.156c0 .49-1.772.49-1.772 0V13.886h1.772z" style="fill:url(#i)"/><linearGradient id="j" x1="1443.392" x2="1445.607" y1="13.665" y2="13.665" gradientTransform="matrix(-1 0 0 1 1495.873 0)" gradientUnits="userSpaceOnUse"><stop offset="0" style="stop-color:#727a7d"/><stop offset=".015" style="stop-color:#777f82"/><stop offset=".121" style="stop-color:#96a0a3"/><stop offset=".209" style="stop-color:#a9b4b8"/><stop offset=".268" style="stop-color:#b0bbbf"/><stop offset=".468" style="stop-color:#97a1a5"/><stop offset=".728" style="stop-color:#7c8588"/><stop offset=".877" style="stop-color:#727a7d"/></linearGradient><path d="M51.374 13c.244 0 1.108.397 1.108.52v.586c0 .123-.1.223-.224.223H50.49a.224.224 0 0 1-.224-.223v-.586c0-.123.864-.52 1.108-.52z" style="fill:url(#j)"/><linearGradient id="k" x1="1444.5" x2="1444.5" y1="24" y2="15" gradientTransform="matrix(-1 0 0 1 1495.873 0)" gradientUnits="userSpaceOnUse"><stop offset="0" style="stop-color:#0062d0"/><stop offset=".295" style="stop-color:#0065d1"/><stop offset=".508" style="stop-color:#006ed6"/><stop offset=".696" style="stop-color:#007edd"/><stop offset=".867" style="stop-color:#0094e7"/><stop offset="1" style="stop-color:#00abf1"/></linearGradient><path d="M43.374 15.5v8a.5.5 0 0 0 .5.5h15a.5.5 0 0 0 .5-.5v-8a.5.5 0 0 0-.5-.5h-15a.5.5 0 0 0-.5.5z" style="fill:url(#k)"/><path d="M44.374 17.5h14v1h-14zm2 3h10v1h-10z" style="fill:#fff"/><path d="m7.19 43.198.058 2.44c.019.804.593 1.51 1.434 1.74C10.87 47.975 15.428 49 21 49s10.13-1.024 12.319-1.623c.84-.23 1.414-.935 1.433-1.74l.058-2.44H7.19z" style="fill:#005687"/><linearGradient id="l" x1="21" x2="21" y1="45.627" y2="27.869" gradientUnits="userSpaceOnUse"><stop offset="0" style="stop-color:#005687"/><stop offset=".038" style="stop-color:#065f92"/><stop offset=".141" style="stop-color:#1271a9"/><stop offset=".252" style="stop-color:#1b7fba"/><stop offset=".373" style="stop-color:#2086c4"/><stop offset=".525" style="stop-color:#2289c7"/></linearGradient><path d="M39.59 32.19c.307-5.76-37.487-5.76-37.18 0 .142 2.648 1.371 8.796 3.414 10.517 4.621 3.894 25.73 3.894 30.352 0 2.043-1.721 3.272-7.869 3.414-10.518z" style="fill:url(#l)"/><linearGradient id="m" x1="21" x2="21" y1="38.338" y2="2" gradientUnits="userSpaceOnUse"><stop offset="0" style="stop-color:#abb3b8"/><stop offset=".396" style="stop-color:#d2d8dc"/><stop offset=".666" style="stop-color:#e7ecf0"/></linearGradient><path d="M39.001 6.591c-.031-.739-.53-1.382-1.279-1.652C35.12 4.003 28.656 2 21 2 13.344 2 6.88 4.003 4.278 4.94c-.75.269-1.247.913-1.28 1.651-.193 4.512-.85 20.66-.587 25.598 0 0 2.709 6.149 18.589 6.149 15.88 0 18.59-6.149 18.59-6.149.263-4.937-.395-21.086-.589-25.598z" style="fill:url(#m)"/><path d="M21 33.651c-2.934 0-6.194-.503-7.505-.729-.311-.053-.593.167-.593.459v2.586c0 .227.172.42.416.458 1.078.165 4.13.577 7.682.569a52.547 52.547 0 0 0 7.683-.57.471.471 0 0 0 .416-.457V33.38c0-.292-.282-.512-.594-.459-1.31.226-4.57.73-7.505.73z" style="fill:#9fa7ab"/><linearGradient id="n" x1="29.924" x2="38.043" y1="33.042" y2="33.042" gradientUnits="userSpaceOnUse"><stop offset="0" style="stop-color:#302c3b"/><stop offset="1" style="stop-color:#6e7b85"/></linearGradient><path d="M36.639 30.102c-2.27 1.43-4.94 2.25-5.945 2.485-.452.105-.77.475-.77.903v2.22c0 .302.3.525.62.455 1.31-.291 4.424-1.122 6.58-2.826 1.457-1.15 1.098-4.235-.486-3.237z" style="fill:url(#n)"/><linearGradient id="o" x1="30.43" x2="34.429" y1="33.913" y2="33.913" gradientUnits="userSpaceOnUse"><stop offset="0" style="stop-color:#ff000e"/><stop offset=".465" style="stop-color:#fd4907"/><stop offset=".824" style="stop-color:#fc7b02"/><stop offset="1" style="stop-color:#fc8e00"/></linearGradient><path d="M30.43 33.49c0-.213.16-.4.389-.453a20.96 20.96 0 0 0 2.724-.874c1.08-.424 1.22 2.115.16 2.54a21.68 21.68 0 0 1-3.272 1.008l-.001-2.221z" style="fill:url(#o)"/><linearGradient id="p" x1="1262.415" x2="1270.535" y1="33.042" y2="33.042" gradientTransform="matrix(-1 0 0 1 1274.492 0)" gradientUnits="userSpaceOnUse"><stop offset="0" style="stop-color:#302c3b"/><stop offset="1" style="stop-color:#6e7b85"/></linearGradient><path d="M5.362 30.102c2.27 1.43 4.94 2.25 5.944 2.485.452.105.77.475.77.903v2.22c0 .302-.3.525-.619.455-1.312-.291-4.425-1.122-6.582-2.826-1.455-1.15-1.096-4.235.487-3.237z" style="fill:url(#p)"/><linearGradient id="q" x1="1262.922" x2="1266.921" y1="33.913" y2="33.913" gradientTransform="matrix(-1 0 0 1 1274.492 0)" gradientUnits="userSpaceOnUse"><stop offset="0" style="stop-color:#ff000e"/><stop offset=".465" style="stop-color:#fd4907"/><stop offset=".824" style="stop-color:#fc7b02"/><stop offset="1" style="stop-color:#fc8e00"/></linearGradient><path d="M11.57 33.49c0-.213-.16-.4-.389-.453a20.96 20.96 0 0 1-2.723-.874c-1.08-.424-1.221 2.115-.162 2.54a21.68 21.68 0 0 0 3.273 1.008l.001-2.221z" style="fill:url(#q)"/><linearGradient id="r" x1="21" x2="21" y1="29.923" y2="4.175" gradientUnits="userSpaceOnUse"><stop offset="0" style="stop-color:#302c3b"/><stop offset="1" style="stop-color:#096692"/></linearGradient><path d="M34.84 8.951c.12-1.245-.664-2.407-1.934-2.855-2.32-.82-6.453-1.921-11.906-1.921-5.452 0-9.586 1.102-11.906 1.92-1.27.45-2.054 1.611-1.933 2.856.467 4.833 1.86 16.957 4.21 18.81 3.652 2.883 15.606 2.882 19.259 0 2.349-1.853 3.742-13.977 4.21-18.81z" style="fill:url(#r)"/><linearGradient id="s" x1="37.391" x2="37.391" y1="25.098" y2="6.591" gradientUnits="userSpaceOnUse"><stop offset="0" style="stop-color:#302c3b"/><stop offset="1" style="stop-color:#096692"/></linearGradient><path d="m39.001 6.591-3.804 16.251c-.426 1.818 1.974 3.007 3.422 1.708.337-.303.662-.63.961-.982.278-10.305-.579-16.977-.579-16.977z" style="fill:url(#s)"/><linearGradient id="t" x1="1244.071" x2="1244.071" y1="25.098" y2="6.591" gradientTransform="matrix(-1 0 0 1 1248.68 0)" gradientUnits="userSpaceOnUse"><stop offset="0" style="stop-color:#302c3b"/><stop offset="1" style="stop-color:#096692"/></linearGradient><path d="m2.999 6.591 3.805 16.251c.425 1.818-1.974 3.007-3.422 1.708-.338-.303-.663-.63-.962-.982-.278-10.305.579-16.977.579-16.977z" style="fill:url(#t)"/><path d="M13.401 33.12h.225v3.026h-.225zm7.487.671h.225v3.026h-.225zm-.749 0h.225v3.026h-.225zm-.749 0h.225v3.026h-.225zm-.748-.056h.225v3.026h-.225zm-.749 0h.225v3.026h-.225zm-.749-.086h.225v3.026h-.225zm-.748-.078h.225v3.026h-.225zm-.749-.059h.225v3.026h-.225zm-.749-.11h.225v3.026h-.225zm-.748-.091h.225v3.026h-.225z" style="fill:#616769"/><path d="M28.374 33.12h.225v3.026h-.225z" style="fill:#616769" transform="rotate(-180 28.487 34.633)"/><path d="M21.636 33.791h.225v3.026h-.225z" style="fill:#616769" transform="rotate(-180 21.749 35.304)"/><path d="M22.385 33.791h.225v3.026h-.225z" style="fill:#616769" transform="rotate(-180 22.497 35.304)"/><path d="M23.134 33.735h.225v3.026h-.225z" style="fill:#616769" transform="rotate(-180 23.246 35.248)"/><path d="M23.882 33.735h.225v3.026h-.225z" style="fill:#616769" transform="rotate(-180 23.995 35.248)"/><path d="M24.631 33.649h.225v3.026h-.225z" style="fill:#616769" transform="rotate(-180 24.743 35.162)"/><path d="M25.38 33.571h.225v3.026h-.225z" style="fill:#616769" transform="rotate(-180 25.492 35.084)"/><path d="M26.128 33.512h.225v3.026h-.225z" style="fill:#616769" transform="rotate(-180 26.24 35.025)"/><path d="M26.877 33.402h.225v3.026h-.225z" style="fill:#616769" transform="rotate(-180 26.99 34.915)"/><path d="M27.625 33.311h.225v3.026h-.225z" style="fill:#616769" transform="rotate(-180 27.738 34.824)"/><path d="M28.505 32.922c-1.31.226-4.57.73-7.505.73s-6.194-.504-7.505-.73c-.312-.053-.593.167-.593.458v2.587c0 .227.172.42.416.458 1.078.165 4.13.577 7.682.569a52.527 52.527 0 0 0 7.683-.57.471.471 0 0 0 .416-.457V33.38c0-.29-.282-.511-.594-.458zm.087 3.045a51.717 51.717 0 0 1-7.487.561h-.21a51.81 51.81 0 0 1-7.494-.562l.007-2.585c1.282.22 4.602.736 7.592.736 2.99 0 6.31-.515 7.598-.737l-.006 2.587z" style="fill:#9fa7ab"/></svg>