<svg xmlns="http://www.w3.org/2000/svg" xml:space="preserve" style="enable-background:new 0 0 64 64" viewBox="0 0 64 64"><path d="M21.513 18.54h1.377v5.643h-1.377z" style="fill:#99a8ae"/><path d="M7.342 23.596s4.558-3.397 14.17-5.056v5.056H7.343z" style="fill:#cfd8dd"/><linearGradient id="a" x1="11.733" x2="11.733" y1="55.501" y2="23.001" gradientUnits="userSpaceOnUse"><stop offset="0" style="stop-color:#c6cfd4"/><stop offset=".229" style="stop-color:#d4dbe0"/><stop offset=".564" style="stop-color:#e1e7eb"/><stop offset=".861" style="stop-color:#e6ebef"/></linearGradient><path d="M22.4 55.5V24.085a1.08 1.08 0 0 0-1.067-1.083H6.4c-.587 0-1.2.47-1.36 1.041 0 0-.117.42-.31 1.126l.07 5.416-3.183 7.583s-.55 2.348-.55 4.334v13H22.4z" style="fill:url(#a)"/><path d="M9.081 52.755H5.646a.942.942 0 0 1-.933-.948V38.98c0-.456.077-1.189.173-1.634L7.52 25.082c.106-.497.602-.9 1.102-.9h11.956c.515 0 .934.425.934.948v18.183c0 .495-.309 1.109-.703 1.4L10.606 52.25c-.373.277-1.058.504-1.525.504zm-.458-28.302c-.377 0-.76.314-.842.686L5.146 37.403a9.213 9.213 0 0 0-.166 1.577v12.827a.67.67 0 0 0 .665.676h3.436c.413 0 1.038-.207 1.37-.45l10.203-7.538c.32-.238.592-.778.592-1.182V25.13c0-.374-.3-.677-.667-.677H8.623z" style="opacity:.1;fill:#1a1626"/><path d="M63.467 10H22.934a.538.538 0 0 0-.534.541V45.75H64V10.542a.539.539 0 0 0-.533-.541z" style="fill:#f59e01"/><linearGradient id="b" x1="43.2" x2="43.2" y1="44.126" y2="11.626" gradientUnits="userSpaceOnUse"><stop offset="0" style="stop-color:#ffc800"/><stop offset="1" style="stop-color:#ffe600"/></linearGradient><path d="M24 11.626h38.4v32.5H24z" style="fill:url(#b)"/><path d="M27 42.66h1.066v.542H27zm31.333 0H59.4v.542h-1.067z" style="fill:#e81c27"/><path d="M12.8 51.168H1.066C.48 51.168 0 51.655 0 52.25v2.166c0 .596.48 1.084 1.066 1.084H12.8v-4.333z" style="fill:#4e5e67"/><linearGradient id="c" x1="3.91" x2="3.91" y1="38.167" y2="25.168" gradientUnits="userSpaceOnUse"><stop offset="0" style="stop-color:#302c3b"/><stop offset="1" style="stop-color:#096692"/></linearGradient><path d="M5.333 25.168h-.604l-3.112 13h1.05c.585 0 1.164-.477 1.283-1.06l2.232-10.88c.12-.584-.263-1.06-.849-1.06z" style="fill:url(#c)"/><linearGradient id="d" x1="13.164" x2="13.164" y1="38.167" y2="25.168" gradientUnits="userSpaceOnUse"><stop offset="0" style="stop-color:#302c3b"/><stop offset="1" style="stop-color:#096692"/></linearGradient><path d="M19.2 25.168H9.6c-.587 0-1.164.476-1.285 1.06l-2.232 10.88c-.118.583.263 1.06.85 1.06H19.2a1.08 1.08 0 0 0 1.067-1.084V26.251a1.08 1.08 0 0 0-1.067-1.083z" style="fill:url(#d)"/><path d="M1.332 44.667H3.2v4.334H1.332v-4.334z" style="fill:#e6ebef"/><path d="M3.2 44.667v4.334l1.067-1.084v-3.25H3.2z" style="fill:#f59e01"/><path d="M19.704 40.367c0-.395 0-.717-1.258-.717h-1.323c-1.263 0-1.263.322-1.263.717 0 .237 3.844.237 3.844 0z" style="fill:#99a8ae"/><path d="M17.066 45.75c-5.23 0-9.472 4.436-9.472 9.75h55.34c.587 0 1.066-.487 1.066-1.083v-8.666H17.066z" style="fill:#4e5e67"/><path d="M24.451 55.432c0-4.108-3.303-7.432-7.387-7.432-4.073-.002-7.38 3.33-7.383 7.432h14.77z" style="fill:#1a1626"/><radialGradient id="e" cx="-24.617" cy="95.058" r="5.606" gradientTransform="matrix(1.1526 0 0 1.1596 45.44 -54.73)" gradientUnits="userSpaceOnUse"><stop offset=".491" style="stop-color:#5b666e"/><stop offset=".644" style="stop-color:#525a64"/><stop offset=".918" style="stop-color:#3c3b49"/><stop offset="1" style="stop-color:#343040"/></radialGradient><path d="M23.528 55.499c0 3.591-2.892 6.501-6.461 6.501-3.569 0-6.462-2.91-6.462-6.501 0-3.592 2.893-6.5 6.462-6.5 3.57 0 6.461 2.908 6.461 6.5z" style="fill:url(#e)"/><path d="M21.536 55.499c0 2.484-2.001 4.496-4.47 4.496-2.468 0-4.467-2.012-4.467-4.496 0-2.484 1.999-4.497 4.468-4.497 2.468 0 4.469 2.013 4.469 4.497z" style="fill:#e6ebef"/><path d="M20.325 56.613a3.51 3.51 0 0 0 .185-1.114c0-.39-.068-.763-.186-1.112l-1.916 1.112 1.916 1.114zm-2.588-2.284 1.915-1.112a3.445 3.445 0 0 0-1.915-1.116v2.228zm-3.927.056a3.445 3.445 0 0 0 0 2.227l1.917-1.113-1.917-1.114zm3.927 2.283v2.228a3.444 3.444 0 0 0 1.917-1.115l-1.917-1.113zm-1.341-2.338V52.1a3.446 3.446 0 0 0-1.915 1.116l1.915 1.113zm0 2.339L14.48 57.78a3.447 3.447 0 0 0 1.915 1.115V56.67z" style="fill:#4e5e67"/><path d="M18.822 55.499a1.76 1.76 0 0 1-1.755 1.766 1.76 1.76 0 0 1-1.757-1.766c0-.976.786-1.767 1.757-1.767a1.76 1.76 0 0 1 1.755 1.767z" style="fill:#cfd8dd"/><path d="M17.65 55.499a.583.583 0 1 1-1.167 0 .583.583 0 1 1 1.168 0z" style="fill:#e6ebef"/><path d="M17.319 54.442c0 .335-.503.335-.503 0 0-.337.503-.337.503 0zm0 2.114c0 .337-.503.337-.503 0 0-.335.503-.335.503 0zm.784-1.367c-.29.169-.54-.27-.25-.438.288-.167.539.269.25.438zm-1.821 1.057c-.288.168-.539-.268-.25-.437.29-.169.54.27.25.437zm1.568 0c-.288-.167-.037-.606.253-.437.289.169.038.605-.252.437zm-1.819-1.057c-.29-.169-.037-.605.251-.438.29.169.04.607-.25.438z" style="fill:#4e5e67"/><path d="M61.785 55.432c0-4.108-3.303-7.432-7.386-7.432-4.074-.002-7.38 3.33-7.384 7.432h14.77z" style="fill:#1a1626"/><radialGradient id="f" cx="7.774" cy="95.058" r="5.606" gradientTransform="matrix(1.1526 0 0 1.1596 45.44 -54.73)" gradientUnits="userSpaceOnUse"><stop offset=".491" style="stop-color:#5b666e"/><stop offset=".644" style="stop-color:#525a64"/><stop offset=".918" style="stop-color:#3c3b49"/><stop offset="1" style="stop-color:#343040"/></radialGradient><path d="M60.862 55.499c0 3.591-2.892 6.501-6.461 6.501-3.569 0-6.462-2.91-6.462-6.501 0-3.592 2.893-6.5 6.462-6.5 3.57 0 6.461 2.908 6.461 6.5z" style="fill:url(#f)"/><path d="M58.87 55.499c0 2.484-2.001 4.496-4.47 4.496-2.468 0-4.467-2.012-4.467-4.496 0-2.484 1.999-4.497 4.468-4.497 2.468 0 4.469 2.013 4.469 4.497z" style="fill:#e6ebef"/><path d="M57.658 56.613a3.51 3.51 0 0 0 .186-1.114c0-.39-.068-.763-.186-1.112l-1.916 1.112 1.916 1.114zm-2.587-2.284 1.915-1.112A3.445 3.445 0 0 0 55.07 52.1v2.228zm-3.927.056a3.445 3.445 0 0 0 0 2.227l1.917-1.113-1.917-1.114zm3.927 2.283v2.228a3.444 3.444 0 0 0 1.916-1.115l-1.916-1.113zM53.73 54.33V52.1a3.446 3.446 0 0 0-1.915 1.116l1.915 1.113zm0 2.339-1.915 1.112a3.447 3.447 0 0 0 1.915 1.115V56.67z" style="fill:#4e5e67"/><path d="M56.156 55.499a1.76 1.76 0 0 1-1.755 1.766 1.76 1.76 0 0 1-1.757-1.766c0-.976.786-1.767 1.757-1.767a1.76 1.76 0 0 1 1.755 1.767z" style="fill:#cfd8dd"/><path d="M54.985 55.499a.583.583 0 1 1-1.167 0 .583.583 0 1 1 1.167 0z" style="fill:#e6ebef"/><path d="M54.653 54.442c0 .335-.503.335-.503 0 0-.337.503-.337.503 0zm0 2.114c0 .337-.503.337-.503 0 0-.335.503-.335.503 0zm.784-1.367c-.29.169-.54-.27-.25-.438.288-.167.539.269.25.438zm-1.821 1.057c-.288.168-.539-.268-.25-.437.29-.169.54.27.25.437zm1.569 0c-.289-.167-.038-.606.252-.437.289.169.038.605-.252.437zm-1.82-1.057c-.29-.169-.037-.605.251-.438.29.169.04.607-.25.438z" style="fill:#4e5e67"/></svg>