<svg xmlns="http://www.w3.org/2000/svg" xml:space="preserve" style="enable-background:new 0 0 64 64" viewBox="0 0 64 64"><path d="M52.502 18H34.917c-4.845 0-6.4 5.238-6.4 5.238h2.755s.49-3.143 3.645-3.143h17.585c3.155 0 3.645 3.143 3.645 3.143h2.755S57.347 18 52.502 18z" style="fill:#302c3b"/><linearGradient id="a" x1="31.976" x2="31.976" y1="49.766" y2="21.143" gradientUnits="userSpaceOnUse"><stop offset="0" style="stop-color:#009af7"/><stop offset=".121" style="stop-color:#0da3f4"/><stop offset=".495" style="stop-color:#30baec"/><stop offset=".802" style="stop-color:#46c9e8"/><stop offset="1" style="stop-color:#4ecee6"/></linearGradient><path d="M2.136 49.766S-.05 44.504.418 43.396c.307-.722 1.818-2.323 1.818-3.102V37.14c0-1.596 5.718-3.276 11.734-3.774 5.34-3.148 9.752-8.608 12.366-10.867.094-.08.479-.289.58-.313 7.164-1.654 28.383-1.202 34.407.393.231.06.139.775-.1.79-.758.035-2.44.35-2.416.922.073 1.826.639 5.517 3.714 8.017.548 2.074 1.47 9.008.897 12.065.098 3.441-3.287 5.394-3.287 5.394H2.136z" style="fill:url(#a)"/><path d="m35.896 48.038.745-14.639-.267-.012-.746 14.651zm14.637-3.042-.265-.025c.856-8.655-1.77-12.965-1.797-13.009l.227-.136c.027.043 2.7 4.428 1.835 13.17zm-32.385.629-.265-.035.284-2.16c.898-6.885 1.014-7.77 3.317-10.55l.207.165c-2.254 2.722-2.35 3.45-3.26 10.418l-.283 2.162z" style="fill:#018bc9"/><linearGradient id="b" x1="20.153" x2="20.153" y1="33.676" y2="22.498" gradientUnits="userSpaceOnUse"><stop offset="0" style="stop-color:#302c3b"/><stop offset="1" style="stop-color:#096692"/></linearGradient><path d="M13.97 33.365s2.475.69 3.67.015c1.197-.676 4.463-6.523 8.696-10.882-3.582 2.205-8.373 6.801-12.366 10.867z" style="fill:url(#b)"/><linearGradient id="c" x1="37.515" x2="37.515" y1="33.676" y2="22.498" gradientUnits="userSpaceOnUse"><stop offset="0" style="stop-color:#302c3b"/><stop offset="1" style="stop-color:#096692"/></linearGradient><path d="M26.617 24.14c-3.842 4.883-6.075 9.536-5.651 9.536h32.21c2.505 0-.798-10.641-.798-10.641s-10.313-1.486-24.712.486c-.491.069-.769.262-1.05.618z" style="fill:url(#c)"/><linearGradient id="d" x1="60.396" x2="60.396" y1="32.042" y2="23.552" gradientUnits="userSpaceOnUse"><stop offset="0" style="stop-color:#302c3b"/><stop offset="1" style="stop-color:#096692"/></linearGradient><path d="M60 23.552s-1.425.08-1.414.49c.12 4.287.261 6.142 3.62 8-.424-2.705-1.807-7.68-2.207-8.49z" style="fill:url(#d)"/><path d="m36.53 22.668-1.74 11.008h3.386l.638-11.113zm10.28-.08.2 11.088h2.544l-1.072-11z" style="fill:#1a1626"/><linearGradient id="e" x1="32" x2="32" y1="53.62" y2="43.697" gradientUnits="userSpaceOnUse"><stop offset="0" style="stop-color:#302c3b"/><stop offset=".214" style="stop-color:#33303f"/><stop offset=".446" style="stop-color:#3e3d4b"/><stop offset=".686" style="stop-color:#4f5360"/><stop offset=".931" style="stop-color:#66717c"/><stop offset="1" style="stop-color:#6e7b85"/></linearGradient><path d="M63.418 44.372c-2.216-.075-2.208 1.576-2.933 2.555-.45-.855-.997-1.58-1.672-1.993-2.693-1.649-11.402-1.649-14.095 0-.854.522-1.509 1.54-2.01 2.695H22.647c-.501-1.156-1.156-2.172-2.01-2.695-2.694-1.649-11.402-1.649-14.094 0-.85.52-1.5 1.526-2 2.67-2.225-.252-1.13-3.336-4.142-3.232-1.592 5.298 2.03 5.098 2.784 8.318.595.452 1.107.93 1.871.93H60.3c.764 0 1.266-.478 1.86-.93.754-3.22 2.85-3.02 1.259-8.318z" style="fill:url(#e)"/><path d="M60.3 53.62H43.298s.998-5.154 3.119-6.42c2.044-1.218 8.652-1.218 10.695 0 2.12 1.266 3.186 6.42 3.186 6.42z" style="fill:#1a1626"/><radialGradient id="f" cx="5.488" cy="102.714" r="6.478" gradientTransform="matrix(1.1526 0 0 1.1321 45.44 -61.615)" gradientUnits="userSpaceOnUse"><stop offset=".491" style="stop-color:#5b666e"/><stop offset=".644" style="stop-color:#525a64"/><stop offset=".918" style="stop-color:#3c3b49"/><stop offset="1" style="stop-color:#343040"/></radialGradient><path d="M59.233 54.667c0 4.054-3.34 7.333-7.467 7.333-4.12 0-7.467-3.279-7.467-7.333s3.347-7.333 7.467-7.333c4.127 0 7.467 3.28 7.467 7.333z" style="fill:url(#f)"/><path d="M56.928 54.667c0 2.793-2.311 5.07-5.162 5.07s-5.163-2.277-5.163-5.07c0-2.807 2.312-5.07 5.163-5.07 2.85 0 5.162 2.263 5.162 5.07z" style="fill:#e6ebef"/><path d="M55.528 55.914c.14-.387.212-.802.212-1.247 0-.444-.073-.86-.212-1.247l-2.21 1.247 2.21 1.247zm-2.989-2.564 2.21-1.26a3.975 3.975 0 0 0-2.21-1.248v2.507zm-4.535.057c-.14.4-.212.816-.212 1.26 0 .445.073.86.212 1.247l2.209-1.247-2.21-1.26zm4.535 2.577v2.507a3.987 3.987 0 0 0 2.216-1.246l-2.216-1.26zm-1.546-2.634v-2.508a3.992 3.992 0 0 0-2.217 1.248l2.217 1.26zm0 2.634-2.217 1.261a3.985 3.985 0 0 0 2.217 1.246v-2.507zm1.707-1.317c0 .5-.424.916-.934.916a.927.927 0 0 1-.933-.916c0-.5.415-.917.933-.917.51 0 .933.416.933.917z" style="fill:#4e5e67"/><path d="M25.328 34.81v-2.626c.001-1.104-4.86-.202-4.86.734v1.872c0 .393 4.86.931 4.86.02z" style="fill:#018bc9"/><path d="M22.046 53.62H5.056S6.12 48.466 8.24 47.2c2.042-1.218 8.653-1.218 10.695 0 2.121 1.266 3.11 6.42 3.11 6.42z" style="fill:#1a1626"/><radialGradient id="g" cx="-27.634" cy="102.714" r="6.478" gradientTransform="matrix(1.1526 0 0 1.1321 45.44 -61.615)" gradientUnits="userSpaceOnUse"><stop offset=".491" style="stop-color:#5b666e"/><stop offset=".644" style="stop-color:#525a64"/><stop offset=".918" style="stop-color:#3c3b49"/><stop offset="1" style="stop-color:#343040"/></radialGradient><path d="M21.055 54.667c0 4.051-3.342 7.333-7.467 7.333-4.124 0-7.466-3.282-7.466-7.333s3.342-7.333 7.466-7.333c4.126 0 7.467 3.282 7.467 7.333z" style="fill:url(#g)"/><path d="M18.753 54.667c0 2.801-2.312 5.074-5.165 5.074s-5.164-2.273-5.164-5.074c0-2.804 2.311-5.074 5.165-5.074 2.853 0 5.164 2.27 5.164 5.074z" style="fill:#e6ebef"/><path d="M17.352 55.92a3.86 3.86 0 0 0 .213-1.253c0-.441-.078-.86-.213-1.254l-2.212 1.254 2.212 1.254zm-2.989-2.574 2.213-1.252a4 4 0 0 0-2.213-1.259v2.51zm-4.539.064a3.872 3.872 0 0 0-.213 1.257c0 .437.078.86.213 1.253l2.216-1.253-2.216-1.256zm4.539 2.576v2.511a3.987 3.987 0 0 0 2.213-1.255l-2.213-1.256zm-1.549-2.64v-2.51a3.998 3.998 0 0 0-2.213 1.258l2.213 1.252zm0 2.642L10.6 57.242a3.99 3.99 0 0 0 2.213 1.255v-2.51zm1.708-1.322a.924.924 0 0 1-.933.915.924.924 0 0 1-.934-.916c0-.504.418-.916.934-.916.515 0 .933.412.933.916z" style="fill:#4e5e67"/><path d="M34.773 35.793c0-.497 0-.903-1.64-.903h-1.721c-1.643 0-1.643.406-1.643.903 0 .3 5.004.3 5.004 0z" style="fill:#cfd8dd"/><path d="M62.521 34.735c.15.69.898 5.766-.254 5.762-.334-.001-2.831-3.507-1.948-5.696.235-.583 2.121-.442 2.202-.066z" style="fill:#900"/><path d="M48.47 35.792c0-.496 0-.902-1.64-.902h-1.72c-1.642 0-1.642.406-1.642.902 0 .3 5.003.3 5.003 0z" style="fill:#cfd8dd"/><path d="M2.502 37.139h3.345v3.156H2.502z" style="fill:#e6ebef"/><path d="M6.899 37.139H5.847v3.155h2.345S8.11 37.711 6.9 37.14z" style="fill:#f59e01"/></svg>