<svg xmlns="http://www.w3.org/2000/svg" xml:space="preserve" style="enable-background:new 0 0 64 64" viewBox="0 0 64 64"><linearGradient id="a" x1="31.467" x2="31.467" y1="47.19" y2="18" gradientUnits="userSpaceOnUse"><stop offset=".176" style="stop-color:#cfd8dd"/><stop offset=".438" style="stop-color:#d8dfe4"/><stop offset="1" style="stop-color:#e6ebef"/></linearGradient><path d="M1.067 38.677v4.864S0 43.541 0 47.191h62.933V21.324C62.933 18.99 61.57 18 59.2 18H23.467c-7.825 0-10.046 3.288-21.6 16.454-.99 1.127-.8 4.223-.8 4.223z" style="fill:url(#a)"/><linearGradient id="b" x1="80.73" x2="81.946" y1="-571.364" y2="-571.364" gradientTransform="rotate(-90 363.831 -241.878)" gradientUnits="userSpaceOnUse"><stop offset="0" style="stop-color:#e6ebef"/><stop offset=".208" style="stop-color:#e1e7eb"/><stop offset=".453" style="stop-color:#d3dadf"/><stop offset=".716" style="stop-color:#bbc6cb"/><stop offset=".992" style="stop-color:#9aa9af"/><stop offset="1" style="stop-color:#99a8ae"/></linearGradient><path d="m61.013 41.14-.017-1.041s-41.79-.412-53.317.51c11.552.923 53.334.531 53.334.531z" style="fill:url(#b)"/><linearGradient id="c" x1="32" x2="32" y1="54.488" y2="47.19" gradientUnits="userSpaceOnUse"><stop offset=".176" style="stop-color:#cfd8dd"/><stop offset=".438" style="stop-color:#d8dfe4"/><stop offset="1" style="stop-color:#e6ebef"/></linearGradient><path d="M62.933 54.488c.588 0 1.067-.549 1.067-1.216v-4.865c0-.67-.479-1.217-1.067-1.217H0v6.082c0 .667.481 1.216 1.067 1.216h61.866z" style="fill:url(#c)"/><path d="M1.426 38.677h3.255v4.864H1.426v-4.864z" style="fill:#e6ebef"/><linearGradient id="d" x1="15.467" x2="15.467" y1="32.596" y2="21.324" gradientUnits="userSpaceOnUse"><stop offset="0" style="stop-color:#302c3b"/><stop offset="1" style="stop-color:#096692"/></linearGradient><path d="M14.492 23.045c.829-.946 2.468-1.72 3.641-1.72h4.446c1.173 0 1.9 1.062 1.615 2.36l-1.436 6.55c-.285 1.3-1.477 2.36-2.65 2.36H7.78c-1.173 0-1.454-.774-.625-1.72.988-1.125 6.167-6.495 7.338-7.83z" style="fill:url(#d)"/><linearGradient id="e" x1="44.432" x2="44.432" y1="32.596" y2="21.324" gradientUnits="userSpaceOnUse"><stop offset="0" style="stop-color:#302c3b"/><stop offset="1" style="stop-color:#096692"/></linearGradient><path d="M29.165 23.716c-.215-1.315.568-2.392 1.741-2.392h27.29c1.173 0 1.54 1.01 1.54 2.337v6.599c0 1.327-.367 2.336-1.54 2.336h-25.44c-1.172 0-2.31-1.076-2.527-2.391l-1.064-6.49z" style="fill:url(#e)"/><path d="M12.209 51.836h-7.63v-.153A1836 1836 0 0 0 4.548 41.1c-.038-7.577-.042-8.551.492-9.16 3.235-3.688 6.214-6.875 7.991-8.78.398-.427.732-.783.986-1.059.796-.86 2.312-1.785 3.762-1.785h5.171c.71 0 1.362.374 1.833 1.055.46.665.656 1.502.513 2.186a802.725 802.725 0 0 1-1.38 6.373c-.914 4.183-1.862 8.512-2.179 10.387-1.2 7.11-9.418 11.463-9.502 11.506l-.026.014zm-7.363-.304h7.304c.508-.273 8.185-4.514 9.325-11.273.319-1.884 1.267-6.216 2.183-10.404.513-2.339.996-4.548 1.38-6.37.123-.587-.061-1.341-.465-1.926-.419-.605-.996-.94-1.623-.94h-5.17c-1.378 0-2.822.883-3.58 1.703-.254.275-.588.63-.986 1.059-1.777 1.903-4.752 5.089-7.987 8.774-.454.517-.448 1.804-.413 8.941.015 2.679.032 6.005.032 10.436z" style="fill:#b3c2c6"/><path d="M16.8 34.858h4.267v1.217H16.8v-1.217z" style="fill:#99a8ae"/><path d="M60.8 41.109v2.432l2.133 2.433v-4.865H60.8z" style="fill:#e81c27"/><path d="M60.8 38.677v2.432h2.133v-4.865L60.8 38.677z" style="fill:#ea8800"/><path d="M60.8 54.49c0-4.746-3.817-8.588-8.533-8.588-4.709-.002-8.53 3.849-8.534 8.588H60.8z" style="fill:#1a1626"/><radialGradient id="f" cx="5.923" cy="94.186" r="6.478" gradientTransform="matrix(1.1526 0 0 1.1596 45.44 -54.73)" gradientUnits="userSpaceOnUse"><stop offset=".491" style="stop-color:#5b666e"/><stop offset=".644" style="stop-color:#525a64"/><stop offset=".918" style="stop-color:#3c3b49"/><stop offset="1" style="stop-color:#343040"/></radialGradient><ellipse cx="52.267" cy="54.488" rx="7.467" ry="7.512" style="fill:url(#f)"/><path d="M57.431 54.488c0 2.869-2.31 5.196-5.164 5.196-2.85 0-5.163-2.327-5.163-5.196 0-2.87 2.313-5.196 5.163-5.196 2.854 0 5.164 2.326 5.164 5.196z" style="fill:#e6ebef"/><path d="M56.031 55.774a3.968 3.968 0 0 0 0-2.57l-2.214 1.284 2.214 1.286zm-2.99-2.638 2.213-1.284a3.971 3.971 0 0 0-2.213-1.289v2.573zm-4.537.066a4.03 4.03 0 0 0-.215 1.286c0 .449.08.881.215 1.285l2.215-1.285-2.215-1.286zm4.537 2.637v2.574a3.977 3.977 0 0 0 2.215-1.29l-2.215-1.284zm-1.549-2.702v-2.574a3.968 3.968 0 0 0-2.213 1.289l2.213 1.285zm0 2.703-2.213 1.283a3.98 3.98 0 0 0 2.213 1.29V55.84z" style="fill:#4e5e67"/><path d="M54.296 54.488c0 1.128-.906 2.04-2.03 2.04a2.034 2.034 0 0 1-2.029-2.04c0-1.128.909-2.042 2.03-2.042 1.123 0 2.029.914 2.029 2.042z" style="fill:#cfd8dd"/><path d="M52.942 54.488a.675.675 0 1 1-1.348 0c0-.374.302-.677.673-.677.373 0 .675.303.675.677z" style="fill:#e6ebef"/><path d="M52.558 53.266c0 .387-.581.387-.581 0 0-.388.581-.388.581 0zm0 2.444c0 .388-.581.388-.581 0s.581-.388.581 0zm.906-1.582c-.335.196-.625-.31-.29-.504.334-.193.624.311.29.504zm-2.104 1.223c-.333.194-.623-.311-.29-.505.336-.195.626.31.29.505zm1.813 0c-.334-.195-.044-.7.291-.505.334.194.044.7-.291.505zm-2.103-1.223c-.335-.193-.043-.697.29-.504.336.195.046.7-.29.504z" style="fill:#4e5e67"/><path d="M22.4 54.488c0-4.747-3.816-8.588-8.535-8.588-4.707-.002-8.528 3.848-8.532 8.588H22.4z" style="fill:#1a1626"/><radialGradient id="g" cx="-27.393" cy="94.186" r="6.478" gradientTransform="matrix(1.1526 0 0 1.1596 45.44 -54.73)" gradientUnits="userSpaceOnUse"><stop offset=".491" style="stop-color:#5b666e"/><stop offset=".644" style="stop-color:#525a64"/><stop offset=".918" style="stop-color:#3c3b49"/><stop offset="1" style="stop-color:#343040"/></radialGradient><ellipse cx="13.867" cy="54.488" rx="7.467" ry="7.512" style="fill:url(#g)"/><path d="M19.031 54.488c0 2.87-2.31 5.196-5.164 5.196-2.85 0-5.163-2.326-5.163-5.196 0-2.87 2.313-5.196 5.163-5.196 2.854 0 5.164 2.326 5.164 5.196z" style="fill:#e6ebef"/><path d="M17.631 55.775a3.977 3.977 0 0 0 0-2.572l-2.212 1.285 2.212 1.287zm-2.989-2.639 2.212-1.285a3.98 3.98 0 0 0-2.212-1.289v2.574zm-4.538.064a4.054 4.054 0 0 0-.212 1.288c0 .45.077.881.212 1.286l2.215-1.286-2.215-1.287zm4.538 2.639v2.575a3.976 3.976 0 0 0 2.214-1.29l-2.214-1.285zm-1.55-2.702v-2.575a3.98 3.98 0 0 0-2.213 1.289l2.213 1.286zm0 2.703-2.213 1.284a3.983 3.983 0 0 0 2.213 1.29V55.84z" style="fill:#4e5e67"/><path d="M15.896 54.488c0 1.128-.906 2.04-2.03 2.04a2.034 2.034 0 0 1-2.029-2.04c0-1.128.909-2.042 2.03-2.042 1.123 0 2.029.914 2.029 2.042z" style="fill:#cfd8dd"/><path d="M14.544 54.488a.674.674 0 1 1-1.35 0 .675.675 0 1 1 1.35 0z" style="fill:#e6ebef"/><path d="M14.158 53.267c0 .386-.58.386-.58 0 0-.39.58-.39.58 0zm0 2.442c0 .39-.58.39-.58 0 0-.387.58-.387.58 0zm.906-1.579c-.335.194-.622-.311-.287-.506.331-.193.62.31.287.505zm-2.104 1.221c-.333.194-.623-.31-.29-.505.336-.195.626.311.29.505zm1.813 0c-.331-.194-.044-.7.291-.505.334.196.044.7-.291.505zM12.67 54.13c-.335-.196-.043-.7.29-.506.336.195.046.7-.29.505z" style="fill:#4e5e67"/></svg>