<svg xmlns="http://www.w3.org/2000/svg" xml:space="preserve" style="enable-background:new 0 0 64 64" viewBox="0 0 64 64"><linearGradient id="a" x1="-18.217" x2="-11.902" y1="36.295" y2="36.181" gradientTransform="matrix(1 0 -.3071 1 79.985 0)" gradientUnits="userSpaceOnUse"><stop offset=".127" style="stop-color:#e6ebef"/><stop offset=".28" style="stop-color:#dce2e6"/><stop offset=".534" style="stop-color:#c3cacf"/><stop offset=".778" style="stop-color:#a4adb3"/></linearGradient><path d="M59.153 27.547c.043-.244-3.427-.052-3.568.384-2.977 9.22-7.267 15.717-7.267 15.717l4.76 1.318s4.386-7.783 6.075-17.419z" style="fill:url(#a)"/><path d="M59.03 26.033c-.461 0-3.2 1.157-3.445 1.898-.095.287 2.273.563 2.76.414 1.765-.538 1.372-2.312.684-2.312z" style="fill:#a4adb3"/><path d="m30.38 31.329-8.519 6.388c14.223 2.981 25.53 4.262 25.53 4.262-9.164-11.21-17.01-10.65-17.01-10.65z" style="fill:#e6ebef"/><linearGradient id="b" x1="40.148" x2="40.148" y1="42.994" y2="35.759" gradientUnits="userSpaceOnUse"><stop offset="0" style="stop-color:#302c3b"/><stop offset="1" style="stop-color:#096692"/></linearGradient><path d="M34.07 41c7.314 1.302 12.156 1.994 12.156 1.994-2.739-3.355-5.375-5.66-7.733-7.235L34.07 41z" style="fill:url(#b)"/><linearGradient id="c" x1="28.878" x2="28.878" y1="40.698" y2="32.34" gradientUnits="userSpaceOnUse"><stop offset="0" style="stop-color:#302c3b"/><stop offset="1" style="stop-color:#096692"/></linearGradient><path d="M37.225 34.957c-4.842-2.848-8.189-2.612-8.189-2.612l-8.506 6.034c4.285.898 8.316 1.671 11.866 2.32l4.83-5.742z" style="fill:url(#c)"/><linearGradient id="d" x1="31.977" x2="31.977" y1="61.999" y2="36.704" gradientUnits="userSpaceOnUse"><stop offset="0" style="stop-color:#a1a9ad"/><stop offset=".021" style="stop-color:#a7afb3"/><stop offset=".125" style="stop-color:#bec5c9"/><stop offset=".244" style="stop-color:#d0d6da"/><stop offset=".387" style="stop-color:#dde2e6"/><stop offset=".576" style="stop-color:#e4e9ed"/><stop offset="1" style="stop-color:#e6ebef"/></linearGradient><path d="M63.954 56.872c-3.697-2.667-4.141-7.512-.958-8.26-.208-1.367-1.197-2.831-1.197-2.831C26.187 34.398 1.312 36.89 1.04 37.024.636 37.224 0 38.79 0 38.79s2.025.082 1.208 1.433c7.864 8.74 15.113 20.538 28.665 21.39 9.426.605 12.114.672 30.457-1.094 1.166-.84 3.249-1.07 3.218-1.482-.104-1.433.406-2.165.406-2.165z" style="fill:url(#d)"/><linearGradient id="e" x1="1.208" x2="63.548" y1="50.371" y2="50.371" gradientUnits="userSpaceOnUse"><stop offset=".184" style="stop-color:#f5faff"/><stop offset=".525" style="stop-color:#d9dfe4;stop-opacity:.582"/><stop offset="1" style="stop-color:#abb3b8;stop-opacity:0"/></linearGradient><path d="M1.208 40.223C9.072 48.963 25.384 60.38 60.33 60.52c1.166-.84 3.249-1.07 3.218-1.482C20.384 57.991 8.05 45.485 1.208 40.223z" style="fill:url(#e)"/><linearGradient id="f" x1="1.208" x2="43.904" y1="51.112" y2="51.112" gradientUnits="userSpaceOnUse"><stop offset=".184" style="stop-color:#f5faff"/><stop offset=".525" style="stop-color:#d9dfe4;stop-opacity:.582"/><stop offset="1" style="stop-color:#abb3b8;stop-opacity:0"/></linearGradient><path d="M33.738 61.85c3.416.174 6.208.217 10.166.017-29.78-4.093-36.77-17.09-42.696-21.644 5.874 6.526 14.176 16.782 32.53 21.627z" style="fill:url(#f)"/><path d="M59.812 26.023s-.489-.061-.852.016c-3.073 9.25-7.965 17.524-7.965 17.524l1.397.338c7.42-11.048 7.42-17.878 7.42-17.878z" style="fill:#e6ebef"/><linearGradient id="g" x1="53.675" x2="59.846" y1="34.577" y2="35.694" gradientUnits="userSpaceOnUse"><stop offset="0" style="stop-color:#009af7"/><stop offset=".079" style="stop-color:#0095ef"/><stop offset=".471" style="stop-color:#007fcc"/><stop offset=".792" style="stop-color:#0072b6"/><stop offset="1" style="stop-color:#006dae"/></linearGradient><path d="M59.812 26.023c-2.935 10.18-7.42 17.878-7.42 17.878l4.405 1.066s3.662-8.29 5.52-18.552c.032-.175-1.487-.35-2.505-.392z" style="fill:url(#g)"/><linearGradient id="h" x1="0" x2="62.996" y1="43.437" y2="43.437" gradientUnits="userSpaceOnUse"><stop offset=".4" style="stop-color:#ff000e"/><stop offset=".56" style="stop-color:#fc000d"/><stop offset=".676" style="stop-color:#f3000b"/><stop offset=".777" style="stop-color:#e30007"/><stop offset=".87" style="stop-color:#cd0002"/><stop offset=".9" style="stop-color:#c40000"/></linearGradient><path d="M62.996 48.611C42.586 39.661 1.208 36.996 0 38.791l62.996 9.82z" style="fill:url(#h)"/><linearGradient id="i" x1="0" x2="64" y1="47.82" y2="47.82" gradientUnits="userSpaceOnUse"><stop offset="0" style="stop-color:#009af7"/><stop offset=".079" style="stop-color:#0095ef"/><stop offset=".471" style="stop-color:#007fcc"/><stop offset=".792" style="stop-color:#0072b6"/><stop offset="1" style="stop-color:#006dae"/></linearGradient><path d="M62.996 48.611C30.215 37.828 0 38.791 0 38.791s.884 1.135 1.208 1.432c7.238 6.63 36.017 16.298 62.746 16.65.365-2.45-1.583-5.256-.677-6.127.302-.29-.281-2.135-.281-2.135z" style="fill:url(#i)"/></svg>