<svg xmlns="http://www.w3.org/2000/svg" xml:space="preserve" style="enable-background:new 0 0 64 64" viewBox="0 0 64 64"><radialGradient id="a" cx="32.001" cy="24.182" r="21.119" gradientTransform="matrix(1 0 0 5 0 -96.727)" gradientUnits="userSpaceOnUse"><stop offset=".521" style="stop-color:#cc000b"/><stop offset=".622" style="stop-color:#e43139"/><stop offset=".72" style="stop-color:#f75b5f"/><stop offset=".77" style="stop-color:#ff6b6e"/><stop offset="1" style="stop-color:#b30000"/></radialGradient><path d="M50.89 8.9C50.55 5.97 41.27 4.5 32 4.5c-9.27 0-18.54 1.47-18.89 4.4-1.16 12.44-2.35 22.09-3.58 34.52 7.47.58 37.45.58 44.93 0-1.22-12.43-2.41-22.08-3.57-34.52z" style="fill:url(#a)"/><radialGradient id="b" cx="32" cy="22.23" r="17.793" gradientTransform="matrix(1 0 0 5 0 -88.922)" gradientUnits="userSpaceOnUse"><stop offset=".188" style="stop-color:#ff000e"/><stop offset=".311" style="stop-color:#ff0b17"/><stop offset=".525" style="stop-color:#ff2731"/><stop offset=".802" style="stop-color:#ff5559"/><stop offset="1" style="stop-color:#ff7a7a"/></radialGradient><path d="M51.29 38.38c-.88-9.46-1.73-17.76-2.57-27.9-.3-2.94-8.51-4.4-16.72-4.4-8.21 0-16.42 1.47-16.72 4.4-.84 10.15-1.7 18.44-2.57 27.9 5.48-.88 33.1-.88 38.58 0z" style="fill:url(#b)"/><path d="M44.65 25.07c0 16.5-24.75 16.5-24.75 0s24.75-16.5 24.75 0z" style="fill:#b00505"/><radialGradient id="c" cx="32.274" cy="25.072" r="9.217" gradientTransform="matrix(1 0 0 1.5666 0 -14.205)" gradientUnits="userSpaceOnUse"><stop offset=".321" style="stop-color:#ff8a8a"/><stop offset=".406" style="stop-color:#ff7275"/><stop offset=".6" style="stop-color:#ff4149"/><stop offset=".771" style="stop-color:#ff1e29"/><stop offset=".91" style="stop-color:#ff0815"/><stop offset="1" style="stop-color:#ff000e"/></radialGradient><path d="M41.9 25.07c0 12.84-19.25 12.84-19.25 0 0-12.83 19.25-12.83 19.25 0z" style="fill:url(#c)"/><radialGradient id="d" cx="32.19" cy="32.944" r="4.431" gradientTransform="matrix(1 0 0 5 0 -131.777)" gradientUnits="userSpaceOnUse"><stop offset="0" style="stop-color:#f0000d"/><stop offset=".236" style="stop-color:#e8000b"/><stop offset=".6" style="stop-color:#d20007"/><stop offset="1" style="stop-color:#b30000"/></radialGradient><path d="M28.15 28.15h8.07v9.59h-8.07z" style="fill:url(#d)"/><linearGradient id="e" x1="18.703" x2="18.703" y1="44.066" y2="5.018" gradientUnits="userSpaceOnUse"><stop offset=".2" style="stop-color:#fff;stop-opacity:0"/><stop offset=".531" style="stop-color:#ffd9db;stop-opacity:.2071"/><stop offset=".828" style="stop-color:#ffbdc1;stop-opacity:.3922"/><stop offset="1" style="stop-color:#ffb3b7;stop-opacity:.5"/></linearGradient><path d="M22.2 6.8c.04-.67.31-1.25.68-1.78-.68.08-1.34.17-1.98.28-2.18.78-3.61 1.85-3.73 3.22-.86 12.67-1.75 22.54-2.65 35.2 1.97.12 3.94.27 5.91.35.61-13.35 1.2-23.92 1.77-37.27z" style="fill:url(#e);enable-background:new"/><linearGradient id="f" x1="45.297" x2="45.297" y1="44.066" y2="5.015" gradientUnits="userSpaceOnUse"><stop offset=".2" style="stop-color:#fff;stop-opacity:0"/><stop offset=".531" style="stop-color:#ffd9db;stop-opacity:.2071"/><stop offset=".828" style="stop-color:#ffbdc1;stop-opacity:.3922"/><stop offset="1" style="stop-color:#ffb3b7;stop-opacity:.5"/></linearGradient><path d="M43.57 44.07c1.97-.08 3.94-.23 5.91-.35-.91-12.66-1.79-22.54-2.65-35.2-.12-1.37-1.55-2.44-3.73-3.22-.64-.1-1.3-.19-1.99-.28.38.53.65 1.12.69 1.79.57 13.34 1.17 23.91 1.77 37.26z" style="fill:url(#f);enable-background:new"/><path d="M40.53 25.07c0 .92-16.5.92-16.5 0 0-.91 16.5-.91 16.5 0z" style="opacity:.3;fill:#fff"/><radialGradient id="g" cx="32" cy="45.774" r="24.585" gradientTransform="matrix(1 0 0 5 0 -183.096)" gradientUnits="userSpaceOnUse"><stop offset=".521" style="stop-color:#f0000c"/><stop offset=".622" style="stop-color:#f73139"/><stop offset=".72" style="stop-color:#fd5b5f"/><stop offset=".77" style="stop-color:#ff6b6e"/><stop offset="1" style="stop-color:#b30000"/></radialGradient><path d="M55.98 43.56c0-1.63-47.95-1.63-47.95 0l-.78 5.65h49.5l-.77-5.65z" style="fill:url(#g)"/><radialGradient id="h" cx="32" cy="53.089" r="19.967" gradientTransform="matrix(1 0 0 5 0 -212.355)" gradientUnits="userSpaceOnUse"><stop offset="0" style="stop-color:#5b666e"/><stop offset=".315" style="stop-color:#505861"/><stop offset=".913" style="stop-color:#343240"/><stop offset="1" style="stop-color:#302c3b"/></radialGradient><path d="M5.37 48.52 4.5 59.5h55l-.87-10.98c0-2.46-53.26-2.46-53.26 0z" style="fill:url(#h)"/></svg>