<svg xmlns="http://www.w3.org/2000/svg" xml:space="preserve" viewBox="0 0 64 64"><linearGradient id="a" x1="5" x2="62" y1="24.018" y2="24.018" gradientUnits="userSpaceOnUse"><stop offset="0" style="stop-color:#cf000b"/><stop offset=".5" style="stop-color:#ff1724"/><stop offset="1" style="stop-color:#cf000b"/></linearGradient><path fill="url(#a)" d="M5 6.07v35.249C25.66 46.5 41.498 18.667 62 23.695 45.415 3 24.04 22.188 5 6.07z"/><linearGradient id="b" x1="3.5" x2="6.5" y1="35.35" y2="35.35" gradientUnits="userSpaceOnUse"><stop offset="0" style="stop-color:#9ca4a6"/><stop offset=".076" style="stop-color:#b6bec0"/><stop offset=".169" style="stop-color:#ced6d8"/><stop offset=".267" style="stop-color:#dfe7e9"/><stop offset=".373" style="stop-color:#eaf1f4"/><stop offset=".5" style="stop-color:#edf4f7"/><stop offset="1" style="stop-color:#9ca4a6"/></linearGradient><path fill="url(#b)" d="M3.5 7.051v56.207c0 .988 3 .99 3 .002V7.053c0-.471-3-.473-3-.002z"/><radialGradient id="c" cx="4.25" cy="2" r="3.846" gradientUnits="userSpaceOnUse"><stop offset="0" style="stop-color:#edf4f7"/><stop offset=".191" style="stop-color:#e7eef1"/><stop offset=".457" style="stop-color:#d5dcdf"/><stop offset=".766" style="stop-color:#b7bfc1"/><stop offset="1" style="stop-color:#9ca4a6"/></radialGradient><circle cx="5" cy="3" r="3" fill="url(#c)"/><linearGradient id="d" x1="3.958" x2="6.042" y1="6.518" y2="6.518" gradientUnits="userSpaceOnUse"><stop offset="0" style="stop-color:#9ca4a6"/><stop offset=".022" style="stop-color:#a2aaac"/><stop offset=".126" style="stop-color:#bac2c4"/><stop offset=".237" style="stop-color:#cbd3d5"/><stop offset=".356" style="stop-color:#d5dde0"/><stop offset=".5" style="stop-color:#d8e0e3"/><stop offset="1" style="stop-color:#9ca4a6"/></linearGradient><path fill="url(#d)" d="M3.958 5.822v1.156c0 .311 2.084.313 2.084 0V5.822H3.958z"/></svg>