<svg xmlns="http://www.w3.org/2000/svg" xml:space="preserve" viewBox="0 0 64 64"><linearGradient id="a" x1="-58.313" x2="-53.251" y1="168.657" y2="168.657" gradientTransform="matrix(1.1852 0 0 1.2112 80.113 -171.277)" gradientUnits="userSpaceOnUse"><stop offset=".145" style="stop-color:#cfd8dd"/><stop offset=".406" style="stop-color:#c3cdd2"/><stop offset=".877" style="stop-color:#a3b0b6"/><stop offset="1" style="stop-color:#99a8ae"/></linearGradient><path fill="url(#a)" d="M11 4h6v58h-6z"/><linearGradient id="b" x1="-27.939" x2="-22.877" y1="168.657" y2="168.657" gradientTransform="matrix(1.1852 0 0 1.2112 80.113 -171.277)" gradientUnits="userSpaceOnUse"><stop offset=".145" style="stop-color:#cfd8dd"/><stop offset=".406" style="stop-color:#c3cdd2"/><stop offset=".877" style="stop-color:#a3b0b6"/><stop offset="1" style="stop-color:#99a8ae"/></linearGradient><path fill="url(#b)" d="M47 4h6v58h-6z"/><circle cx="50" cy="8" r="6" fill="red"/><radialGradient id="c" cx="50" cy="8" r="5" gradientUnits="userSpaceOnUse"><stop offset=".442" style="stop-color:#e80000"/><stop offset=".476" style="stop-color:#ea0600"/><stop offset=".832" style="stop-color:#f94500"/><stop offset="1" style="stop-color:#ff5e00"/></radialGradient><circle cx="50" cy="8" r="5" fill="url(#c)"/><circle cx="14" cy="8" r="6" fill="red"/><radialGradient id="d" cx="14" cy="8" r="5" gradientUnits="userSpaceOnUse"><stop offset=".442" style="stop-color:#e80000"/><stop offset=".476" style="stop-color:#ea0600"/><stop offset=".832" style="stop-color:#f94500"/><stop offset="1" style="stop-color:#ff5e00"/></radialGradient><circle cx="14" cy="8" r="5" fill="url(#d)"/><radialGradient id="e" cx="15.25" cy="34.268" r="20.962" gradientTransform="matrix(1.0404 0 0 1.017 16.134 -13.85)" gradientUnits="userSpaceOnUse"><stop offset="0" style="stop-color:#ffe600"/><stop offset="1" style="stop-color:#f9c802"/></radialGradient><path fill="url(#e)" d="M2 14h60v14H2z"/><path fill="#1A1626" d="M18 14 4 28h10l14-14zm20 0L24 28h10l14-14zm24 0h-4L44 28h10l8-8zM8 14H2v6z"/><radialGradient id="f" cx="15.25" cy="53.934" r="20.962" gradientTransform="matrix(1.0404 0 0 1.017 16.134 -13.85)" gradientUnits="userSpaceOnUse"><stop offset="0" style="stop-color:#ffe600"/><stop offset="1" style="stop-color:#f9c802"/></radialGradient><path fill="url(#f)" d="M2 34h60v14H2z"/><path fill="#1A1626" d="M18 34 4 48h10l14-14zm20 0L24 48h10l14-14zm24 0h-4L44 48h10l8-8zM8 34H2v6z"/></svg>