<svg xmlns="http://www.w3.org/2000/svg" xml:space="preserve" style="enable-background:new 0 0 64 64" viewBox="0 0 64 64"><radialGradient id="a" cx="-62.001" cy="38" r="26.2" gradientTransform="matrix(1 0 0 -1 94 70)" gradientUnits="userSpaceOnUse"><stop offset="0" style="stop-color:#545061"/><stop offset=".279" style="stop-color:#464253"/><stop offset=".611" style="stop-color:#312d3d"/><stop offset=".796" style="stop-color:#211d2d"/><stop offset=".956" style="stop-color:#1a1626"/></radialGradient><path d="M7.37 23.68c-11.1 32.84 38.16 49.49 49.26 16.65C67.73 7.48 18.47-9.17 7.37 23.68z" style="fill:url(#a)"/><path d="M12 32h34v7H12zm35 0h2v7h-2zm3 0h2v7h-2zM36.49 14.46c5.06 0 4.6 5.89 4.6 5.89 6.6 0 8.91 4.65 8.91 10.13-5.44-7.21-17.8 0-17.8-10.18-14.78-4.29 2.35-17.82 4.29-5.84z" style="fill:#fff"/><linearGradient id="b" x1="-77.002" x2="-46.998" y1="63.985" y2="12.015" gradientTransform="matrix(1 0 0 -1 94 70)" gradientUnits="userSpaceOnUse"><stop offset="0" style="stop-color:#ff3b3b"/><stop offset=".256" style="stop-color:#fb3737"/><stop offset=".521" style="stop-color:#f02b2a"/><stop offset=".789" style="stop-color:#dd1616"/><stop offset="1" style="stop-color:#c90100"/></linearGradient><path d="M32 2C15.43 2 2 15.43 2 32s13.43 30 30 30 30-13.43 30-30S48.57 2 32 2zm24 30c0 5.55-1.89 10.65-5.05 14.71L17.29 13.04C21.35 9.89 26.45 8 32 8c13.25 0 24 10.74 24 24zM8 32c0-5.55 1.89-10.65 5.04-14.71l33.67 33.67A23.916 23.916 0 0 1 32 56C18.74 56 8 45.25 8 32z" style="fill:url(#b)"/></svg>