<svg xmlns="http://www.w3.org/2000/svg" xml:space="preserve" style="enable-background:new 0 0 64 64" viewBox="0 0 64 64"><radialGradient id="a" cx="47.197" cy="69.069" r="37.127" gradientTransform="matrix(1.0667 0 0 .5401 -26.212 7.836)" gradientUnits="userSpaceOnUse"><stop offset="0" style="stop-color:#4ecee6"/><stop offset="1" style="stop-color:#009af7"/></radialGradient><path d="M64 42H0v22h64V42z" style="fill:url(#a)"/><linearGradient id="b" x1="406.262" x2="399.022" y1="57.404" y2="57.404" gradientTransform="scale(-1 1) rotate(-9.997 -48.497 2492.832)" gradientUnits="userSpaceOnUse"><stop offset=".307" style="stop-color:#916b50"/><stop offset=".519" style="stop-color:#8c674c"/><stop offset=".756" style="stop-color:#7f5a40"/><stop offset="1" style="stop-color:#69452d"/></linearGradient><path d="M30.216 18.648c-1.026-.526-2.536 1.078-2.63 1.606-.295 1.675-1.505-.334-4.24-3.596.603-1.462.558-3.906.558-3.906 2.274-4.295 3.928.21 6.312 5.896z" style="fill:url(#b)"/><path d="M12.018 35.382s8.24 2.055 11.597 1.322c-.031-7.668 4.615-9.25 4.2-15.506-.184-2.754-4.47-4.54-4.47-4.54-5.437 4.189-8.868 11.485-11.327 18.724z" style="fill:#3ab0a2"/><path d="M13.006 45.546a423.44 423.44 0 0 0 49.925-13.441c.354-.026.71-.051 1.069-.079l-.169-1.992a432.631 432.631 0 0 1-60.36.248l-.288-1.021c-1.06-.07-2.123-.147-3.183-.225.67 8.406 7.833 14.879 13.006 16.51z" style="fill:#b00505"/><linearGradient id="c" x1="4.027" x2="63.054" y1="39.377" y2="39.377" gradientUnits="userSpaceOnUse"><stop offset="0" style="stop-color:#ff3b3b"/><stop offset=".282" style="stop-color:#fc3838"/><stop offset=".528" style="stop-color:#f32d2d"/><stop offset=".762" style="stop-color:#e31b1b"/><stop offset=".987" style="stop-color:#cd0302"/><stop offset="1" style="stop-color:#cc0100"/></linearGradient><path d="M13.006 45.546c3.486 1.701 45.917 1.389 49.088-.621 1.433-4.951.837-12.82.837-12.82a434.325 434.325 0 0 1-58.904.218c2.867 9.479 8.985 13.23 8.98 13.223z" style="fill:url(#c)"/><path d="M62.663 36.74c-9.988 2.128-43.313 1.534-56.217 0 13.777.41 38.444 1.323 56.217 0zm-.609 4.689c-9.267 2.129-40.185 1.535-52.156 0 12.781.41 35.667 1.324 52.156 0z" style="fill:#b00505"/><path d="M17.375 44.681c.805-.156 1.707.349 2.085.709.648-.422 1.783-.261 2.53-.02.794-.34 2.23-.132 3.124.318 3.56.455 5.867.263 8.999.646.149-.522 1.79-.8 2.313-.192.428-.758 2.225-.36 2.449.145 1.148-.609 5.215-.84 9.745-.905.968-.544 2.813-.474 3.223.17.708-.314 2.79-.464 3.653.191 1.063-.748 1.994-.755 3.654-.609.142-.094 1.211-.696 1.789-.554.41-.35 1.48.13 1.621.363.24.39-.75.27-.987.661-.45.744-1.42.143-2.2.592-1.118.643-2.546.482-3.243.66-2.44.625-4.362-.278-5.185-.074-1.064.263-2.202-.174-3.295-.057-1.064.114-3.715.191-4.291.296-1.715.314-2.965-.439-4.11-.093-1.096.33-2.138-.324-2.64-.079-1.19.582-2.195-.207-2.813.125-1.323.714-7.992-.43-10.117.454-2.107.877-5.24-.433-7.307-.39-5.461.115-6.263-1.26-4.082-1.921-.08-.888 1.473-1.667 2.696-1.316 1.032-1.103 2.321-.287 2.389.88zm42.532-.896c-.322-.576.625-1.039.948-.463.312.558-.635 1.02-.948.463zm-3.314 4.135c-.454-.665.88-1.198 1.334-.534.44.644-.894 1.177-1.334.533z" style="fill:#e6fbff"/><path d="M38.753 45.113c-.323-.576.625-1.038.947-.462.312.557-.635 1.02-.947.462zM24.98 47.968c-.323-.576.624-1.038.947-.462.312.558-.635 1.02-.948.462zm-14.153-3.962c-.322-.575.625-1.038.948-.462.312.558-.635 1.02-.948.462zm8.423.313c-.323-.576.624-1.038.947-.463.312.558-.636 1.02-.948.463z" style="fill:#e6fbff"/><path d="M59.297 49.64c-2.243-1.885-18.858 2.474-39.04.622-18.428-1.69-11.499-9.196-15.407-7.076-3.586 1.945-6.095 8.398 14.806 9.51 19.004 1.01 43.037-.204 39.641-3.057z" style="opacity:.2;fill:#c2f8ff"/><linearGradient id="d" x1="38.722" x2="47.478" y1="290.638" y2="290.638" gradientTransform="rotate(45.001 319.261 141.82)" gradientUnits="userSpaceOnUse"><stop offset="0" style="stop-color:#db9442"/><stop offset=".395" style="stop-color:#cf843d"/><stop offset="1" style="stop-color:#b86432"/></linearGradient><path d="M20.201 45.467c-3.55 2.004-11.885 10.04-11.7 11.364.38 2.691 2.505 4.777 5.165 5.166 1.34.195 9.422-8.065 11.422-11.641 2.996-5.361 2.193-7.09 2.193-7.09s-1.767-.803-7.08 2.201z" style="fill:url(#d)"/><linearGradient id="e" x1="40.945" x2="45.238" y1="254.547" y2="254.547" gradientTransform="rotate(45.001 319.261 141.82)" gradientUnits="userSpaceOnUse"><stop offset="0" style="stop-color:#db9442"/><stop offset=".395" style="stop-color:#cf843d"/><stop offset="1" style="stop-color:#b86432"/></linearGradient><path d="m47.418 26.14-3.035-3.038c-1.055 1.057-1.74 4.777-1.74 4.777s3.718-.681 4.775-1.74z" style="fill:url(#e)"/><linearGradient id="f" x1="43.096" x2="43.096" y1="302.704" y2="252.243" gradientTransform="rotate(45.001 319.261 141.82)" gradientUnits="userSpaceOnUse"><stop offset="0" style="stop-color:#f5a54a"/><stop offset=".339" style="stop-color:#eb9e47"/><stop offset="1" style="stop-color:#db9442"/></linearGradient><path d="M10.813 60.79s-.594-.37-1.073-1.059l35.627-35.645 1.065 1.069-35.62 35.635z" style="fill:url(#f)"/><linearGradient id="g" x1="38.73" x2="47.477" y1="295.299" y2="295.299" gradientTransform="rotate(45.001 319.261 141.82)" gradientUnits="userSpaceOnUse"><stop offset="0" style="stop-color:#60a0b5"/><stop offset=".347" style="stop-color:#5097ac"/><stop offset="1" style="stop-color:#288294"/></linearGradient><path d="M11.69 52.662c-1.886 1.933-3.264 3.623-3.188 4.169.379 2.691 2.504 4.777 5.164 5.166 1.1.16 6.732-5.368 9.826-9.335H11.69z" style="fill:url(#g)"/><linearGradient id="h" x1="43.101" x2="43.101" y1="302.704" y2="252.243" gradientTransform="rotate(45.001 319.261 141.82)" gradientUnits="userSpaceOnUse"><stop offset="0" style="stop-color:#60a0b5"/><stop offset="1" style="stop-color:#60a0b5"/></linearGradient><path d="M16.806 52.662 9.74 59.731a4.113 4.113 0 0 0 1.072 1.059l8.125-8.128h-2.131z" style="fill:url(#h)"/><path d="m41.877 27.575.71-.711c-.804-.756-1.138-.012-2.724 1.002 0 0-5.906-.559-9.75-3.32l-1.803 3.222c4.5 2.746 10.424 2.762 10.424 2.762.475.443 1.97.758 2.676.65.973-.148 2.076-1.017 1.943-1.767 1.194-1.461-1.255-1.057-1.476-1.838z" style="fill:#916b50"/><path d="M42.533 29.579s.656.14.82-.166c-.289.119-.82.166-.82.166zm-.39.849s.752.133.916-.174c-.29.12-.916.174-.916.174zm-.577.496s.662.194.827-.113c-.29.12-.827.113-.827.113z" style="fill:#69452d"/><path d="M27.023 20.239c-.7-1.145-2.468-1.018-3.46-.08-.997.933-.735 2.258-.141 3.465.902 1.83 2.615 3.336 4.619 4.554l2.57-4.162c-1.367-.984-2.63-2.219-3.588-3.777z" style="fill:#25a898"/><path d="M24.65 52.903c-.137-.246-1.292-1.037-2.207-.551-.628-.2-1.527-.063-1.693.017-1.827-.308-2.606-.911-3.85-.268-.899-.74-2.211-.231-3.024.012-1.33-.637-4.043.468-2.82.546 2.476.156 3.689 1 6.448.615.789-.11 2.331.542 3.628.01.903-.372 1.874.746 2.439.047.296-.367 1.309-.015 1.079-.428zm-14.4-2.015c-.292-.577.567-1.04.86-.464.283.56-.577 1.023-.86.464z" style="fill:#e6fbff"/><path d="M35.406 7.215c.158.933.62 2.965-.265 4.05-.396.486-.028 1.864.532 2.757.243.388.259.838.031 1.056-.348.332-.787.034-1.049.287-.426.411-.066.78-.103.986 0 0-1.242-.007-.736 1.197-.144.101-.396.003-.374.914.016.601-.69 1.302-1.4.995-4.48-1.94-5.89-2.99-5.744-6.282.235-5.276.03-11.103 9.108-5.96z" style="fill:#916b50"/><path d="M34.551 16.35c-.02.59-1.224.83-1.912.075 1.217.42 1.61-.244 1.912-.074z" style="fill:#69452d"/><path d="M33.931 16.88c.248.255.178.56-.115.668-.522-.226-1.036-.495-1.177-1.123.566.442 1.292.455 1.292.455zm1.869-1.935c-.23.657-2.266.6-1.998-.403.093 1 2.147-.024 1.998.403z" style="fill:#69452d"/><path d="M32.686 11.774c.27.68 1.125.978 1.125.978.36-.22.51-.884.489-1.264-.443-.152-1.614.286-1.614.286z" style="fill:#fff"/><linearGradient id="i" x1="2515.32" x2="2515.32" y1="303.606" y2="302.09" gradientTransform="matrix(-.5545 -.1597 -.2768 .9609 1512.561 122.734)" gradientUnits="userSpaceOnUse"><stop offset="0" style="stop-color:#a6694a"/><stop offset="1" style="stop-color:#4f2a1e"/></linearGradient><path d="M34.316 12.15c-.247.925-.875.744-.611-.176.245-.853.928-1.01.61.177z" style="fill:url(#i)"/><path d="M34.245 12.103c-.125.433-.371.362-.247-.072.116-.402.362-.33.247.072z" style="fill:#1a1626"/><path d="M34.132 11.872c-.062.216-.185.18-.123-.035.058-.2.18-.165.123.035z" style="fill:#ab968c"/><path d="M32.686 11.774c.634-.484 1.29-.61 1.713-.518.049.214-.007.288-.007.288s-.36-.191-1.706.23z" style="fill:#69452d"/><path d="M32.958 10.478c.573-.352 1.519-.537 2.278-.014.11.075-.123.548-.211.488-.585-.398-1.235-.416-2.115-.086-.102.038-.066-.318.048-.388z" style="fill:#523c31"/><path d="M21.74 7.19c.627-1.875 1.63-2.89 1.63-2.89.65-1.739 2.632-2.848 7.323-2.02 4.848.854 6.392 3.79 4.795 5.398-.17.17-2.81.057-4.447-.944 0 0-.215.977-.044 2.352.106.848-1.475 1.034-1.885 2.159-.701 1.927-1.504.706-2.516.129-2.272-.987-1.956 3.37-2.738 3.999-1.264-1.182-3.555-3.886-2.118-8.183z" style="fill:#6b4d3c"/><path d="M23.058 13.8c-.71-1.44-.495-3.106-.495-3.106s.335 2.3 1.379 3.34c-.656-1.972-.017-3.11-.017-3.11s-.202.978.375 2.511c.33-1.042 1.007-3.487 1.567-2.192-2.054 1.42-.586 5.46-2.009 4.13-1.021-.956-2.714-2.905-2.567-5.886 0 0-.002 2.468 1.767 4.313zm6.313-7.66.684.298s.211 1.324-1.166 3.275c1.07-2.33.482-3.572.482-3.572zm-2.062-.978.615.236s.139 1.624-1.626 3.4c1.487-2.173 1.01-3.636 1.01-3.636zm-1.245-.47-.523-.136s-.866.355-1.284 2.279c.823-1.751 1.807-2.143 1.807-2.143zm.682.084s2.422.343 5.483-1.258c-2.677 1.962-4.62 1.661-4.62 1.661l-.863-.403zm2.841 1.264s3.146.218 5.65-1.023c-2.069 1.683-4.625 1.507-4.625 1.507l-1.025-.483zm-4.578-1.722.39.126s.477-.813 2.105-1.562c-1.735.354-2.495 1.436-2.495 1.436z" style="fill:#5c4233"/><path d="M27.239 13.982c-.163.07-.988.077-1.257-.755-.15-.46-.776-1.02-.741-1.866.04-1.085 3.155 2.127 1.998 2.621z" style="fill:#69452d"/><path d="M27.215 9.762c1.34.526 1.233 3.712.076 4.206-.163.07-.94.02-1.209-.81-.15-.461-.875-1.03-.84-1.876.04-1.085.64-2.045 1.973-1.52z" style="fill:#916b50"/><path d="M23.37 4.3c4.925.293 8.101 4.212 12.118 3.378-4.054.192-8.241-4.102-12.119-3.378z" style="fill:#5c4233"/><path d="M30.152 5.617S31.955 5.5 34.267 4.3c-2.053 1.967-4.115 1.317-4.115 1.317zm-5.703-.995s-.742.878-1.602 2.291c.188-2.024 1.602-2.29 1.602-2.29zm3.22 4.728s.85-1.181.936-3.196c.785 2.218-.936 3.196-.936 3.196zm-1.295-4.067s-.182 1.366-1.308 3.01c.073-2.109 1.308-3.01 1.308-3.01zm.192-1.085s1.615-.856 3.584-.99c-1.86 1.101-3.584.99-3.584.99zm-.149-1.508s-.95.49-1.91 1.097c.422-1.036 1.91-1.096 1.91-1.096zm5.722 4.074s1.611.208 3.912-.657c-2.242 1.738-3.912.657-3.912.657z" style="fill:#7a5b49"/><path d="M27.1 10.322c.33.191.578.67.55 1.319-.56-.264-.826.909-.351 1.233a4.4 4.4 0 0 1-.225.4c-.324-.661-.946-.645-1.173-1.543-.206-.811.378-1.884 1.2-1.41z" style="fill:#69452d"/></svg>