<svg xmlns="http://www.w3.org/2000/svg" xml:space="preserve" style="enable-background:new 0 0 64 64" viewBox="0 0 64 64"><path d="M13 2h38v60H13z" style="fill:#694126"/><linearGradient id="a" x1="836.875" x2="885.125" y1="8.125" y2="56.375" gradientTransform="matrix(-1 0 0 1 893 0)" gradientUnits="userSpaceOnUse"><stop offset="0" style="stop-color:#9e6c49"/><stop offset="1" style="stop-color:#c4895e"/></linearGradient><path d="M13.5 2.5h37V62h-37z" style="fill:url(#a)"/><path d="M17 40v18l29-17 1-1z" style="fill:#694126"/><path d="m47 40-1 1-28 16-1 1h30z" style="fill:#c4926e"/><path d="M47 6H17v23L45.97 7z" style="fill:#694126"/><path d="m47 6-1.03 1-28 21-.97 1h30z" style="fill:#c4926e"/><path d="M17.97 7h28v21h-28zM18 41h28v16H18z" style="fill:#9e6c49"/><path d="M17 31v7l29-6 1-1z" style="fill:#694126"/><path d="m47 31-1 1-28 5-1 1h30z" style="fill:#c4926e"/><path d="M18 32h28v5H18z" style="fill:#9e6c49"/><linearGradient id="b" x1="844.25" x2="844.25" y1="37.583" y2="26.917" gradientTransform="matrix(-1 0 0 1 893 0)" gradientUnits="userSpaceOnUse"><stop offset="0" style="stop-color:#f5af31"/><stop offset="1" style="stop-color:#ffd94d"/></linearGradient><path d="M47.75 36.47c0 1.49 2 1.49 2 0v-8.43c0-1.49-2-1.49-2 0v8.43z" style="fill:url(#b)"/><path d="m49.05 35.08-.13-.8c.08-.05.12-.14.12-.24 0-.17-.13-.3-.3-.3s-.3.13-.3.3c0 .1.05.18.12.24l-.12.8h.61z" style="fill:#302c3b"/><linearGradient id="c" x1="-234.175" x2="-235.375" y1="-149.304" y2="-149.304" gradientTransform="matrix(0 1 1 0 195.554 265.525)" gradientUnits="userSpaceOnUse"><stop offset="0" style="stop-color:#e09500"/><stop offset=".069" style="stop-color:#e39d0b"/><stop offset=".364" style="stop-color:#efba38"/><stop offset=".628" style="stop-color:#f8cf58"/><stop offset=".849" style="stop-color:#fddc6c"/><stop offset="1" style="stop-color:#ffe173"/></linearGradient><path d="M48.65 31.35c.33 0 .6-.27.6-.6 0-.33-.27-.6-.6-.6h-4.8c-.33 0-.6.27-.6.6 0 .33.27.6.6.6h4.8z" style="fill:url(#c)"/></svg>