<svg xmlns="http://www.w3.org/2000/svg" xml:space="preserve" style="enable-background:new 0 0 64 64" viewBox="0 0 64 64"><path d="M60 47H4a3 3 0 0 1-3-3V20a3 3 0 0 1 3-3h56a3 3 0 0 1 3 3v24a3 3 0 0 1-3 3z" style="fill:#5b666e"/><linearGradient id="a" x1="32" x2="32" y1="46" y2="18" gradientUnits="userSpaceOnUse"><stop offset=".545" style="stop-color:#302c3b"/><stop offset=".67" style="stop-color:#33303e"/><stop offset=".785" style="stop-color:#3b3b48"/><stop offset=".898" style="stop-color:#494e59"/><stop offset="1" style="stop-color:#5b666e"/></linearGradient><path d="M4 46c-1.1 0-2-.9-2-2V20c0-1.1.9-2 2-2h56c1.1 0 2 .9 2 2v24c0 1.1-.9 2-2 2H4z" style="fill:url(#a)"/><path d="M5.883 28.523c2.935-4.673 9.302-4.677 12.232.002.694 1.106 2.418.08 1.72-1.033-3.751-5.99-11.917-5.986-15.673-.002-.7 1.114 1.027 2.139 1.72 1.034zm20 0c2.935-4.673 9.303-4.677 12.232.002.694 1.106 2.418.08 1.72-1.033-3.751-5.99-11.917-5.986-15.673-.002-.7 1.114 1.027 2.139 1.72 1.034zm20 0c2.935-4.673 9.303-4.677 12.232.002.694 1.104 2.418.08 1.72-1.033-3.751-5.99-11.917-5.986-15.673-.002-.7 1.114 1.027 2.139 1.72 1.034z" style="fill:#4e5e67"/><linearGradient id="b" x1="32" x2="32" y1="25" y2="39" gradientUnits="userSpaceOnUse"><stop offset="0" style="stop-color:#ffe72e"/><stop offset=".291" style="stop-color:#ffe52a"/><stop offset=".592" style="stop-color:#ffde1d"/><stop offset=".897" style="stop-color:#ffd209"/><stop offset="1" style="stop-color:#ffcd00"/></linearGradient><circle cx="32" cy="32" r="7" style="fill:url(#b)"/><linearGradient id="c" x1="51.998" x2="51.998" y1="25" y2="39" gradientUnits="userSpaceOnUse"><stop offset="0" style="stop-color:#47de00"/><stop offset=".308" style="stop-color:#45da00"/><stop offset=".628" style="stop-color:#41cd00"/><stop offset=".952" style="stop-color:#38b900"/><stop offset="1" style="stop-color:#37b500"/></linearGradient><circle cx="51.998" cy="32" r="7" style="fill:url(#c)"/><linearGradient id="d" x1="-82" x2="-82" y1="45" y2="31" gradientTransform="matrix(1 0 0 -1 94 70)" gradientUnits="userSpaceOnUse"><stop offset="0" style="stop-color:#ff3b3b"/><stop offset=".256" style="stop-color:#fb3737"/><stop offset=".521" style="stop-color:#f02b2a"/><stop offset=".789" style="stop-color:#dd1616"/><stop offset="1" style="stop-color:#c90100"/></linearGradient><path d="M19 32a7 7 0 0 1-6.999 7A6.999 6.999 0 0 1 5 32a7 7 0 1 1 14 0z" style="fill:url(#d)"/></svg>