<svg xmlns="http://www.w3.org/2000/svg" xml:space="preserve" style="enable-background:new 0 0 64 64" viewBox="0 0 64 64"><radialGradient id="a" cx="-62" cy="38" r="26.2" gradientTransform="matrix(1 0 0 -1 94 70)" gradientUnits="userSpaceOnUse"><stop offset="0" style="stop-color:#545061"/><stop offset="1" style="stop-color:#1a1626"/></radialGradient><path d="M56.63 40.33C45.53 73.17-3.73 56.52 7.37 23.67 18.47-9.17 67.73 7.48 56.63 40.33z" style="fill:url(#a)"/><path d="M16.05 36.67s0 7.99 2.65 13.09h9.84c2.65-5.1 2.65-13.09 2.65-13.09H16.05zm14.11 5.89H17.08s-.43-2.92-.48-5.31h14.04c-.05 2.39-.48 5.31-.48 5.31zm9.39-22.42c0-.14-.11-.25-.25-.25h-7.14c-.14 0-.25.11-.25.25v2.01h-2.7c-4.41 0-7.98 3.62-8.06 8.1-.33.06-.52.14-.52.22v2.9c0 .7 6.41.7 6.41 0v-2.9c0-.08-.19-.15-.5-.22.07-1.45 1.24-2.61 2.68-2.61h13.7v-5.5h-3.37v-2zm-9.61-2.92c.59 0 .55-.51 1.89-.45.28.01 1.09.45 1.09.45h1.89v1.45h1.86v-1.45h1.89s.8-.44 1.09-.45c1.34-.06 1.3.45 1.89.45 1.56 0 1.56-2.98 0-2.98-.59 0-.55.51-1.89.45-.28-.01-1.09-.45-1.09-.45h-5.64s-.8.44-1.09.45c-1.34.06-1.3-.45-1.89-.45-1.56-.01-1.56 2.98 0 2.98zm14.19 4.04h1.82v7.27h-1.82z" style="fill:#fff"/><linearGradient id="b" x1="-77.002" x2="-46.998" y1="63.985" y2="12.015" gradientTransform="matrix(1 0 0 -1 94 70)" gradientUnits="userSpaceOnUse"><stop offset="0" style="stop-color:#ff3b3b"/><stop offset=".256" style="stop-color:#fb3737"/><stop offset=".521" style="stop-color:#f02b2a"/><stop offset=".789" style="stop-color:#dd1616"/><stop offset="1" style="stop-color:#c90100"/></linearGradient><path d="M32 2C15.43 2 2 15.43 2 32s13.43 30 30 30 30-13.43 30-30S48.57 2 32 2zm24 30c0 5.55-1.89 10.65-5.04 14.71L17.29 13.04C21.35 9.89 26.45 8 32 8c13.26 0 24 10.75 24 24zM8 32c0-5.54 1.89-10.65 5.05-14.71l33.67 33.67A23.966 23.966 0 0 1 32 56C18.75 56 8 45.26 8 32z" style="fill:url(#b)"/></svg>