<svg xmlns="http://www.w3.org/2000/svg" xml:space="preserve" style="enable-background:new 0 0 64 64" viewBox="0 0 64 64"><linearGradient id="a" x1="37.117" x2="31.279" y1="13.399" y2="13.399" gradientUnits="userSpaceOnUse"><stop offset=".307" style="stop-color:#916b50"/><stop offset=".519" style="stop-color:#8c674c"/><stop offset=".756" style="stop-color:#7f5a40"/><stop offset="1" style="stop-color:#69452d"/></linearGradient><path d="M31.28 15.386c.833-.377.938.823.938 1.26 0 1.388 2.24.693 4.899-1.54-.175-.641-.158-3.12-.158-3.12.818-5.604-2.959-.83-5.68 3.4z" style="fill:url(#a)"/><path d="M28.757 5.591c-.26.727-.928 2.175-.367 3.172.251.447-.243 1.501-.823 2.14-.252.277-.328.636-.175.843.234.317.63.14.807.38.286.39-.058.635-.057.806 0 0 1.004.17.424 1.066.102.101.32.058.171.787-.098.48.357 1.026.99.997 2.626-.12 4.993-2.296 5.537-4.232 1.166-4.148 1.563-8.804-6.507-5.959z" style="fill:#916b50"/><path d="M28.142 12.932c-.067.476.872.84 1.535.33-1.043.165-1.267-.424-1.535-.33z" style="fill:#733b2a"/><path d="M28.567 13.445c-.236.17-.223.424-.001.553.454-.108.907-.251 1.111-.736-.52.276-1.11.183-1.11.183z" style="fill:#733b2a"/><path d="M27.333 11.626c.092.56 1.747.802 1.672-.04-.217.79-1.731-.324-1.672.04z" style="fill:#69452d"/><path d="M30.267 8.44c-.414-.364-1.151-.647-1.84-.334-.099.045.022.458.102.423.529-.237 1.057-.16 1.72.23.078.045.1-.246.018-.319z" style="fill:#523c31"/><path d="M25.528 60.057c.233.086.083 1.7-1.17 1.7h-2.876c-2.053 0-3.974-.736-5.126-1.878-1.103-1.092-1.682-1.85-1.165-2.529 5.236 1.956 9.978 2.575 10.337 2.707zm-3.168-3.566c1.002.428-.162 2.319-3.903 1.26 2.814-.197 3.722-1.337 3.903-1.26z" style="fill:#6e8189"/><path d="M25.224 57.489c.172.293.527 1.53.304 2.568-1.211 1.086-2.64.156-4.06.571-3.146.919-6.644-2.62-6.267-3.299.62-1.117 1.232 1.204 6.554.047 1.916-.417 3.299-.18 3.47.113z" style="fill:#99a8ae"/><path d="M20.92 57.208c.221.857.712.658.491-.197-.018-.072-.51.126-.49.197zm-.69.25c.183.706.668.554.486-.151-.016-.06-.501.092-.486.15zm-.687.142c.08.56.582.448.501-.112-.007-.047-.508.065-.502.112zm-.666.09c.037.459.5.398.462-.06-.003-.039-.465.022-.462.06z" style="fill:#1a1626"/><path d="M48.264 55.7c.226-.101 1.272 1.144.385 2.023l-2.033 2.014C45.164 61.175 43.281 62 41.651 62c-1.56 0-2.51-.13-2.628-.973 5.098-2.284 8.893-5.168 9.24-5.326zm-4.786-.301c1.014-.4 1.541 1.753-1.86 3.624 1.85-2.11 1.677-3.552 1.86-3.624z" style="fill:#6e8189"/><path d="M46.216 54.098c.33.086 1.465.714 2.048 1.603-.081 1.617-1.756 1.96-2.464 3.249-1.568 2.852-6.567 2.8-6.785 2.056-.36-1.224 1.73-.012 4.668-4.558 1.057-1.637 2.203-2.438 2.533-2.35z" style="fill:#99a8ae"/><path d="M42.972 56.914c.768.451.974-.033.206-.483-.064-.038-.27.446-.206.483zm-.309.66c.632.372.868-.076.235-.447-.053-.031-.289.416-.235.447zm-.385.582c.456.34.73-.091.274-.43-.038-.028-.313.402-.274.43zm-.407.53c.354.298.638-.068.284-.367-.03-.025-.313.342-.284.367z" style="fill:#1a1626"/><path d="M38.003 31.766c-8.4-1.227-8.376 2.775-8.376 2.775 1.232 6.002 4.02 13.297 5.03 14.543.845 1.041 5.38 4.57 8.315 7.83 2.054-.915 5.502-1.41 4.501-2.33-3.808-3.505-7.768-8.959-7.768-8.959-2.791-4.418-2.94-9.705-1.702-13.86z" style="fill:#2a4178"/><path d="M38.003 31.766s-5.336-2.568-7.318 2.238c-.679 4.633-4.668 9.125-5.367 10.58-.762 1.59-1.96 8.652-3.85 12.187.802 2.308 3.746 4.222 4.198 3.122 2.164-5.27 5.218-13.057 5.218-13.057 5.991-8.127 9.462-7.69 7.12-15.07z" style="fill:#2b4f87"/><linearGradient id="b" x1="22.427" x2="29.318" y1="33.09" y2="33.09" gradientUnits="userSpaceOnUse"><stop offset="0" style="stop-color:#916b50"/><stop offset=".326" style="stop-color:#8d684d"/><stop offset=".629" style="stop-color:#825d43"/><stop offset=".922" style="stop-color:#6f4b33"/><stop offset="1" style="stop-color:#69452d"/></linearGradient><path d="M29.318 27.61c-1.576 1.8-3.388 4.206-3.77 4.654-.467.548-2.283 1.677-2.435 2.194-.642 2.186-.877 2.336-.516 3.634.272.983.554.233.513-.314-.06-.848.56-2.18 1.244-1.797-.94 1.286-.312 2.179.004 1.677.813-1.298 1.56-1.88 1.548-2.941-.004-.393 1.103-1.77 3.412-3.037v-4.07z" style="fill:url(#b)"/><path d="M38.14 32.086s-4.008.285-8.514 2.535c-.638-2.75-.148-7.687-.696-8.455-2.619-3.67 1.704-5.67 2.673-8.713.11-.343.348-.583.615-.807.761 1.48 3.539-1.11 4.899-1.54 4.986 6.41-2.403 7.95 1.023 16.98z" style="fill:#8e3ed6"/><path d="M43.038 25.152c-.182-.502-1.218-2.333-2.262-4.13a63.13 63.13 0 0 0-3.5 1.816c1.02 1.364 2.07 2.812 2.625 3.709.18 2.476 1.03 4.95.75 7.856-.127 1.259-.991.501-1.71 3.14-.113.415.862.36 1.18-.591.988.399-1.1 3.639.401 3.045.543.156 1.932-.422 2.506-2.422.092-.323.144-2.747.078-3.07-.251-1.247.259-8.468-.068-9.353z" style="fill:#916b50"/><path d="M41.272 38.2s-.253 1.307-.75 1.797c.67-.406.75-1.797.75-1.797zm.83-.394s-.333 1.591-.83 2.083c.67-.407.83-2.084.83-2.084zm.533-.09s-.173 1.216-.67 1.708c.67-.407.67-1.708.67-1.708z" style="fill:#69452d"/><path d="M41.868 22.405a83.159 83.159 0 0 0-3.387-5.62c-1.503-2.297-5.049-.165-3.83 2.3.66 1.342 1.714 3.124 3.39 5.51a25.21 25.21 0 0 1 3.827-2.19z" style="fill:#732eb0"/><path d="M30.319 9.52c-.319.508-1.059.626-1.059.626-.262-.227-.274-.661-.297-1.043.383-.06 1.356.417 1.356.417z" style="fill:#fff"/><linearGradient id="c" x1="-55.268" x2="-55.268" y1="11.205" y2="10.077" gradientTransform="matrix(.5738 -.061 .1057 .9944 59.787 -4.367)" gradientUnits="userSpaceOnUse"><stop offset="0" style="stop-color:#a6694a"/><stop offset="1" style="stop-color:#4f2a1e"/></linearGradient><path d="M28.935 9.592c.083.776.607.72.524-.055-.078-.72-.601-.665-.524.055z" style="fill:url(#c)"/><path d="M29 9.563c.039.366.25.344.211-.022-.036-.34-.248-.317-.211.022z" style="fill:#1a1626"/><path d="M29.125 9.395c.02.182.125.17.105-.012-.018-.169-.123-.157-.105.012z" style="fill:#ab968c"/><path d="M30.319 9.52c-.26-.362-1.012-.726-1.315-.709-.183.38-.243.19 1.315.709z" style="fill:#3d2d27"/><path d="M30.319 9.52c-.96-.69-1.458-.421-1.762-.971.079 1.074.5.547 1.762.97z" style="fill:#1a1626"/><path d="m40.321 8.571-.54 1.974c2.03 1.924-1.154 9.799 6.079 11.094-3.773-3.965.213-11.273-5.539-13.068z" style="fill:#6b4d3c"/><path d="m40.232 8.886-.507 1.57c1.728 4.703-1.524 10.798 6.134 11.183-5.422-1.874-3.361-8.253-5.627-12.753z" style="fill:#5c4233"/><path d="M41.474 9.57c1.87 2.353 1.094 5.23 2.359 7.943-.63-2.913.223-6.466-2.359-7.942z" style="fill:#7a5b49"/><path d="M40.302 10.52c1.077 3.88-.42 9.233 3.541 10.397-3.553-2.394-2.096-7.511-3.541-10.396z" style="fill:#3d2e24"/><path d="M40.714 9.211c1.873 3.663.662 9.345 4.392 11.771-3.049-3.155-1.71-8.86-4.392-11.77z" style="fill:#5c4233"/><path d="M39.99 8.42c-.903-1.865-2.828 2.194-.515 2.107.571 1.282 1.808-2.964.515-2.107z" style="fill:#8e3ed6"/><path d="M39.502 6.817c-.74-4.004-4.317-5.144-6.962-4.74-2.9.441-4.627 2.626-4.026 3.599.743 1.203 3.008.117 4.657 3.673.715 1.543 2.32-.96 3.622.3.779.754 3.164-.371 2.709-2.832z" style="fill:#6b4d3c"/><path d="M33.17 9.349c-1.06-3.5-4.254-2.393-4.775-4.026.047 1.724 3.27.616 4.776 4.026z" style="fill:#5c4233"/><path d="M28.514 5.323c.882-2.32 6.484-4.194 9.63-1.02-3.59-4.063-9.394-1.41-9.63 1.02z" style="fill:#7a5b49"/><path d="M29.017 5.67c.618-1.416 4.131-2.708 7.16-1.555-3.536-2.122-7.16.152-7.16 1.555zm.798.464s2.731.394 5.5 1.314c-2.22-2.034-5.5-1.314-5.5-1.314z" style="fill:#7a5b49"/><path d="M29.509 5.895c1.006-.784 3.312-.82 5.563-.403-2.667-1.334-5.077-.662-5.564.403z" style="fill:#7a5b49"/><path d="M39.506 6.819c-.286-1.525-.975-2.635-1.873-3.402.749.787 1.421 1.84 1.771 4.049-.615-2.928-3.85-4.28-3.85-4.28s2.998 2.102 3.722 4.818c-1.584-2.872-5.511-3.535-5.511-3.535s3.481 1.52 5.36 3.918C36.9 6.45 33.333 5.895 33.333 5.895s4.144 1.62 5.547 3.043c-3.312-2.06-5.577-1.429-4.95.901 0 0 1.682-1 2.692-.021.778.754-1.09 3.78.2 2.966 1.144-.722 3.325-2.556 2.684-5.965z" style="fill:#5c4233"/><path d="M36.55 12.216c2.028-.65 2.618-2.246 2.618-2.246s-.643 1.014-2.617 2.246z" style="fill:#3d2e24"/><path d="M36.814 11.093c1.434-.036 2.462-1.444 2.462-1.444s-1.272.966-2.462 1.444zm.145-1.227c1.162.455 2.317-.412 2.317-.412s-1.263.423-2.317.412zm2.317-.644s-2.36-.26-4.048-1.017c1.617 1.36 4.048 1.017 4.048 1.017z" style="fill:#3d2e24"/><path d="M34.376 11.916c.121.08.785.202 1.12-.43.187-.349.77-.71.862-1.397.121-.88-2.843 1.265-1.982 1.827z" style="fill:#69452d"/><path d="M34.995 8.52c-1.155.234-1.52 2.815-.658 3.378.12.079.754.15 1.088-.482.187-.35.851-.704.944-1.39.121-.88-.226-1.739-1.374-1.506z" style="fill:#916b50"/><path d="M35.008 8.988c-.293.107-.56.457-.63.984.488-.132.536.85.108 1.043a3.6 3.6 0 0 0 .124.354c.355-.486.853-.384 1.164-1.076.28-.624-.037-1.571-.766-1.305z" style="fill:#69452d"/></svg>