<svg xmlns="http://www.w3.org/2000/svg" xml:space="preserve" style="enable-background:new 0 0 64 64" viewBox="0 0 64 64"><linearGradient id="a" x1="-138.679" x2="-145.791" y1="-93.823" y2="-93.823" gradientTransform="rotate(-20.566 247.285 -504.902)" gradientUnits="userSpaceOnUse"><stop offset=".307" style="stop-color:#ffd8b4"/><stop offset=".513" style="stop-color:#fbd4af"/><stop offset=".744" style="stop-color:#f1c8a2"/><stop offset=".987" style="stop-color:#dfb48b"/><stop offset="1" style="stop-color:#deb38a"/></linearGradient><path d="M24.189 19.432c.912-.705 2.691.595 2.88 1.097.597 1.593 1.418-.604 3.509-4.313-.861-1.327-.976-2.298-.976-2.298-3.023-3.805-4.112-.512-5.413 5.514z" style="fill:url(#a)"/><path d="M18.509 13.296c-1.272-2.417 1.204-4.776-1.398-6.219-2.63 2.52-1.246 4.789 1.398 6.219z" style="fill:#2e2319"/><path d="M17.076 9.276c.014.946-.129 2.896.944 3.798.48.405.368 1.828-.023 2.81-.17.427-.103.873.162 1.044.405.263.784-.112 1.09.088.496.325.207.755.282.95 0 0 1.226-.236.945 1.041.16.073.393-.07.536.83.095.594.921 1.152 1.566.718 4.076-2.738 5.278-4.033 4.533-7.242-1.195-5.146-1.998-10.779-10.035-4.037z" style="fill:#ffd8b4"/><path d="M19.53 17.966c.129.576 1.363.589 1.905-.282-1.127.64-1.636.06-1.904.282z" style="fill:#deb38a"/><path d="M20.24 18.372c-.199.297-.073.583.236.635.475-.319.934-.679.959-1.323-.479.54-1.195.688-1.195.688zm-2.2-1.557c.346.603 2.35.169 1.902-.766.09 1-2.127.374-1.902.766z" style="fill:#deb38a"/><path d="M20.54 13.12c-.143.718-.934 1.17-.934 1.17-.395-.15-.664-.774-.714-1.153.41-.231 1.648-.018 1.648-.018z" style="fill:#fff"/><linearGradient id="b" x1="127.734" x2="127.734" y1="-80.295" y2="-81.811" gradientTransform="matrix(.5158 -.2587 .4483 .8939 -10.286 119.108)" gradientUnits="userSpaceOnUse"><stop offset="0" style="stop-color:#a6694a"/><stop offset="1" style="stop-color:#4f2a1e"/></linearGradient><path d="M18.998 13.792c.412.863 1 .569.571-.286-.398-.794-1.1-.822-.571.286z" style="fill:url(#b)"/><path d="M19.06 13.732c.201.403.432.287.23-.116-.188-.374-.418-.258-.23.116z" style="fill:#1a1626"/><path d="M19.129 13.484c.1.2.215.143.115-.057-.094-.186-.209-.129-.115.057z" style="fill:#ab968c"/><path d="M20.54 13.12c-.715-.36-1.385-.362-1.788-.192-.009.22.06.282.06.282s.32-.255 1.728-.09z" style="fill:#deb38a"/><path d="M20.035 11.895c-.631-.24-1.6-.246-2.255.409-.094.094.222.516.298.441.506-.5 1.145-.638 2.075-.477.108.019.008-.325-.118-.373z" style="fill:#826d58"/><path d="M28.882 4.902c-2.064-2.122-4.461-2.788-8.204-1.66-3.032.913-5.04 3.383-4.958 5.516.114 2.973 4.486 1.55 6.602 3.383 0 0 .199-1.692-1.523-3.455 2.606 2.156 4.267 2.427 5.476 2.43 1.315 1.825 2.094 3.854 2.388 5.68.717-.535 1.244-1.316 1.577-2.211.134.393.274.822.421 1.307 1.67-2.627 1.016-8.118-1.779-10.99z" style="fill:#403429"/><path d="M28.3 5.106c-1.994-2.189-3.88-2.992-7.622-1.864-3.032.913-4.749 3.148-4.458 4.954.27 1.672 1.648.89 5.423 3.022 0 0-.938-2.137-3.695-4.295 3.847.714 5.031 3.87 7.733 3.279 2.852-.625 2.954 2.482 3.58 4.425 1.073-1.49.73-3.438.73-3.438s.66 1.203.849 2.69c.73-2.107-.558-6.597-2.54-8.773z" style="fill:#4f4236"/><path d="M18.258 4.944c3.32-.133 8.313 1.584 10.852 5.417-1.507-5.217-7.788-7.133-10.852-5.417z" style="fill:#635547"/><path d="M20.378 3.67c3.447-.508 7.394 1.217 9.294 5.011-1.146-4.916-5.83-6.578-9.294-5.012zm-.385 5.87S17.65 8.1 16.896 6.07c-1.418 3.25 3.097 3.47 3.097 3.47zm-2.439-3.632c2.777.225 6.502 4.824 9.013 3.268-3.035.252-5.68-4.695-9.013-3.268z" style="fill:#635547"/><path d="M25.64 9.323c-1.249.81-.44 3.935.845 4.174.18.034.96-.182 1.052-1.062.052-.488.664-1.205.444-2.034-.28-1.064-1.1-1.883-2.341-1.078z" style="fill:#ffd8b4"/><path d="M25.939 9.844c-.299.25-.463.763-.32 1.388.515-.364.987.724.567 1.13.089.115.185.23.295.345.21-.705.837-.809.907-1.726.065-.828-.708-1.758-1.45-1.137z" style="fill:#deb38a"/><path d="M50 38.998c-6.076 0-11 4.924-11 11s4.924 11 11 11c6.074 0 11-4.924 11-11s-4.926-11-11-11zm0 20a9 9 0 0 1 0-18 9 9 0 0 1 0 18zm-36-20c-6.076 0-11 4.924-11 11s4.924 11 11 11c6.074 0 11-4.924 11-11s-4.926-11-11-11zm0 20a9 9 0 0 1 0-18 9 9 0 0 1 0 18z" style="fill:#99a8ae"/><path d="M14 37.998c-6.627 0-12 5.373-12 12 0 6.63 5.373 12 12 12s12-5.37 12-12c0-6.625-5.373-12-12-12zM14 60C8.476 60 4 55.522 4 49.998c0-5.521 4.476-10 10-10 5.523 0 10 4.479 10 10C24 55.524 19.523 60 14 60zm36-22.002c-6.627 0-12 5.373-12 12 0 6.63 5.373 12 12 12s12-5.37 12-12c0-6.625-5.373-12-12-12zM50 60c-5.524 0-10-4.478-10-10.002 0-5.521 4.476-10 10-10 5.523 0 10 4.479 10 10C60 55.524 55.523 60 50 60z" style="fill:#302c3b"/><path d="M28.156 31.735c-1.715 3.545 2.362 3.545 6.377 10.271l1.934-2.93c-2.637-2.76-1.303-3.396-3.065-6.716l-5.246-.625z" style="fill:#f3cca8"/><path d="M39.654 32.42 37 26.998c-2.615 1.5-7.146 2.342-8.844 4.737 0 0 1.58 1.613 6.217 3.14 1.95-.775 5.281-2.455 5.281-2.455z" style="fill:#ed6a00"/><path d="M21 27.998c-.717-.336-3-1-3-1v2l1.883.471-.883 3.53 2 1 1-4s1.564-.798-1-2z" style="fill:#302c3b"/><path d="M50.66 49.233 40.522 37.192l1.373-2.745c.246-.494-1.544-1.388-1.79-.896l-1.316 2.635-19.494-4.367-6.238 17.85c-.395 1.12 1.525 1.683 1.886.665l5.387-15.26 11.877 15.534c.008.011.021.015.03.023.087.106.618.367.765.367h17.014c.556 0 .865-1.584.644-1.765zM37.867 38.03 32.82 48.12 22.465 34.576l15.402 3.453zm-3.25 10.968 4.932-9.857 8.3 9.857H34.618z" style="fill:#0fb4d4"/><path d="M16 49.998c0 2.668-4 2.668-4 0 0-2.666 4-2.666 4 0z" style="fill:#302c3b"/><path d="m50 47.998-17.002-1v-1l17.002 1zm0 5-17 1v-1l17-1z" style="fill:#bec3cf"/><path d="M53 49.998c0 4-6 4-6 0s6-4 6 0zm-20.002 4c-5.33 0-5.33-8 0-8 5.336 0 5.336 8 0 8z" style="fill:#302c3b"/><path d="M31 56.998h-2l3-7h2z" style="fill:#6e8189"/><path d="M34 50.002c0 1.33-2 1.33-2 0 0-1.338 2-1.338 2 0z" style="fill:#99a8ae"/><path d="M45 34.998c-2 1-4-1-8-1 0 0 0-2 2-2 4.123 0 5.434-.783 7 0 2 1 .264 2.37-1 3z" style="fill:#302c3b"/><path d="M31.984 39.444c-.513 2.101 2.672 6.994 1.186 14.158h4.22c-1.107-7.164.672-8.639.172-13.967 0 0-4.95-2.744-5.578-.191z" style="fill:#f3cca8"/><path d="M46.236 25.461c-4.908-10.568-18.127-13.11-19.691-9.086-1.053 2.713 6.217 5.37 10.455 10.623-1.633 3-4.764 8.822-5.016 12.446 0 0 1.961.043 5.668 1.476 2.533-7.558 11.412-9.365 8.584-15.459z" style="fill:#ff7a00"/><path d="m36.272 40.42-1.997-.586c.946-4.285 3.307-6.797 5.157-8.842 1.629-1.798 2.537-2.88 2.302-4.207-.564-3.187-4.67-6.254-11.56-8.636l.654-1.891c5.381 1.861 11.982 5.137 12.875 10.178.418 2.355-1.068 3.998-2.787 5.898-1.78 1.967-3.814 4.322-4.644 8.086z" style="fill:#ffa959"/><path d="M27.123 23.424c.156.887.324 1.34.377 1.875-3.188 1.656-3.996 2.465-6.982.7-2-1.182-5.875-1.274-5.051 2.796.353 1.748 2.558-2.937 3.402-1.312 1.332 2.562 1.8 2.017 3.694 1.918 4.49-.237 9.119-.4 8.945-2.123-.106-1.043.053-3.301.053-3.301l-4.438-.553z" style="fill:#f3cca8"/><path d="M31.453 17.664c-.531-3.927-5.32-3.312-5.084-.086.135 1.858.754 5.846.754 5.846 2.418.74 4.438.553 4.438.553.136-2.11.16-4.328-.108-6.313z" style="fill:#ed6a00"/><path d="M20 28.004c0 2.658-4 2.658-4 0 0-2.672 4-2.672 4 0z" style="fill:#302c3b"/><path d="M19 28c0 1.33-2 1.33-2 0 0-1.336 2-1.336 2 0zm8 28.998s-.416 1.725.002 2c.488.325 2.32-.697 2.33.004h.004c.01-.701 2.318-.701 2.328 0h.004c.01-.701 1.842.32 2.33-.004.418-.275.002-2 .002-2h-7z" style="fill:#99a8ae"/><path d="M31 57.717c0 .668-1 .668-1 0 0-.666 1-.666 1 0zm-1.648 0c0 .334-2 .334-2 0 0-.332 2-.332 2 0zm4.296 0c0 .334-2 .334-2 0 0-.332 2-.332 2 0zM28.285 8.354s-1.152-.264-1.119.015c.133 1.164-.563 3.971-.563 3.971s-3.1-1.477-4.482-4.502c-.117-.258-.893.381-.92.662-.172 1.707 5.004 5.13 5.004 5.13s-1.197 4.59-2.342 6.032c3.13.45 4.422-11.308 4.422-11.308z" style="fill:#302c3b"/><path d="M37.285 52.82c-1.072 1.036-3.385.833-4.049.31-2.236.82-2.586 1.917-5.595 2.216-1.25.125-.868 1.535-.641 1.652 1.15.592 5.225-.424 9.287.293 1.92.338 1.285-4.5.998-4.47z" style="fill:#e81c27"/><path d="M32.74 53.328c-.74.17-1.092.563-1.092.563 1.412 1.168 2.536.846 1.092-.563zm-1.22.67c-.743.172-1.094.563-1.094.563 1.17.968 2.308.625 1.094-.563zm-1.196.647c-.742.17-.765.314-.765.314.869.717 1.699.598.765-.314z" style="fill:#302c3b"/><path d="M30.846 6.233c.226.152 1.32.724 1.357.99.018.129-.102.334-.098.486.008.246 1.194 1.67 1.006 1.854-1.57 1.539.494 1.056-.476 1.826a23.881 23.881 0 0 1-2.258 1.57c-.887.543-1.787-.129-6.086-2.152-.084-.041-1.162.49-1.629.463-.332-.02-1.771-.48-2.113-.547-1.004-.195-5.283-.424-5.817-.865-.658-4.9 7.475-12.198 17.594-4.506.4.304-1.48.88-1.48.88z" style="fill-rule:evenodd;clip-rule:evenodd;fill:#e81c27"/><path d="M15.78 8.05c-.282.397 3.302-3.589 9.663-4.048-1.78-1.724-7.832.262-9.664 4.047zm15.314-1.667s1.084-.416 1.277-.89c-1.516-.16-2.478-.464-2.812.023l1.535.867zm-3.053 1.555c2.904 1.082 4.469 2.611 4.469 2.611s.092-.416.537-.922c-.734-1.289-2.645-2.842-3.025-2.853-.563-.02-2.383 1.015-1.981 1.164zm-11.178.531c-.486.766 1.719.693 4.074.42.848-.1 6.301-2.154 6.67-2.738.078-.125-.29-1.184-.603-1.192-2.262-.052-8.988 2.03-10.14 3.51z" style="fill-rule:evenodd;clip-rule:evenodd;fill:#8a0404"/></svg>