<svg xmlns="http://www.w3.org/2000/svg" xml:space="preserve" style="enable-background:new 0 0 64 64" viewBox="0 0 64 64"><path d="M21.48 39.02H9s0 13.18 4.37 21.6c.9 1.85 15.33 1.85 16.23 0 4.37-8.42 4.37-21.6 4.37-21.6H21.48z" style="fill:#c5d7e8"/><path d="M21.48 39.22H9.66c0 4.13.81 9.6.81 9.6h22.02s.81-5.47.81-9.6H21.48z" style="fill:#e6ebef"/><linearGradient id="a" x1="10.47" x2="32.494" y1="54.498" y2="54.498" gradientUnits="userSpaceOnUse"><stop offset="0" style="stop-color:#a3ddff"/><stop offset=".198" style="stop-color:#9edafd"/><stop offset=".431" style="stop-color:#90d1f7"/><stop offset=".681" style="stop-color:#78c1ed"/><stop offset=".943" style="stop-color:#57acde"/><stop offset="1" style="stop-color:#4fa7db"/></linearGradient><path d="M10.47 48.82s1.65 7.91 3.38 10.39c.96 1.37 14.21 1.21 15.26 0 2.05-2.36 3.38-10.39 3.38-10.39H10.47z" style="fill:url(#a)"/><path d="M21.48 48.01c6.18 0 11.01.36 11.01.81 0 .45-4.83.81-11.01.81s-11.01-.36-11.01-.81c0-.45 4.83-.81 11.01-.81z" style="fill:#a3ddff"/><path d="M21.48 38C14.59 38 9 38.46 9 39.02s5.59 1.02 12.48 1.02c6.89 0 12.48-.46 12.48-1.02S28.38 38 21.48 38z" style="fill:#c5d7e8"/><path d="M21.48 38.15c6.45 0 11.68.36 11.68.81 0 .45-5.23.81-11.68.81-6.45 0-11.68-.36-11.68-.81.01-.45 5.23-.81 11.68-.81z" style="fill:#f5f5f5"/><path d="M14.26 60.37c5.95 1.04 7.11 1.25 13.91-.06-5.14.3-9.12.44-13.91.06z" style="fill:#b2c1d1"/><path d="M16.43 61.06c3.87.69 8.23.51 12.28-.29-4.13.08-8.13.41-12.28.29z" style="fill:#b2c1d1"/><linearGradient id="b" x1="16.568" x2="27.142" y1="36.673" y2="36.673" gradientUnits="userSpaceOnUse"><stop offset="0" style="stop-color:#c2e8ff"/><stop offset=".176" style="stop-color:#bde6ff"/><stop offset=".383" style="stop-color:#afe1ff"/><stop offset=".607" style="stop-color:#97d8ff"/><stop offset=".84" style="stop-color:#76ccff"/><stop offset="1" style="stop-color:#5bc2ff"/></linearGradient><path d="M16.57 33.57h10.57s-3.15 3.05-3.15 6.19c0 0-2.09.06-4.28.01 0-3.46-3.14-6.2-3.14-6.2z" style="fill:url(#b)"/><linearGradient id="c" x1="15.526" x2="27.269" y1="44.843" y2="44.843" gradientUnits="userSpaceOnUse"><stop offset="0" style="stop-color:#a3ddff"/><stop offset=".198" style="stop-color:#9edafd"/><stop offset=".431" style="stop-color:#90d1f7"/><stop offset=".681" style="stop-color:#78c1ed"/><stop offset=".943" style="stop-color:#57acde"/><stop offset="1" style="stop-color:#4fa7db"/></linearGradient><path d="M18.17 49.6s3.87.19 7.59-.03c-1.42-1.11-1.75-.7-1.75-9.56h-4.29c-.01 7.22.01 8.24-1.55 9.59z" style="fill:url(#c)"/><path d="M22.13 52.07c-.72-.68.55-1.76 1.27-1.09.78.73-.49 1.82-1.27 1.09z" style="fill:#c6ebf5"/><path d="M20.82 48.03c-.1-.5-3.37-4.1-2.14-4.15.69-.02 2.08 1.65 2.14 4.15zm-1.02.74c-.42-.35-4.44-1.81-3.28-2.28.57-.24 3.05.82 3.28 2.28z" style="fill:#b1e1ed"/><path d="M26.64 44.58c1.49.07-2.52 2.28-2.47 3.6-.53-1.43 1.37-3.65 2.47-3.6zm3.88 2.36c.59.58-4.5.19-5.46 1.88-.74-1.17 4.19-3.13 5.46-1.88z" style="fill:#7ac1e4"/><path d="M24.91 52.39c-.3-.28.22-.72.52-.44.32.29-.21.74-.52.44zm-2.03 4.67c-.3-.28.23-.72.52-.44.32.3-.2.74-.52.44zm-2.66-6.52c-.3-.28.22-.72.52-.44.32.3-.2.74-.52.44z" style="fill:#c6ebf5"/><path d="M17.88 45.86c-.3-.28.22-.72.52-.44.32.3-.2.74-.52.44z" style="fill:#d8f7ff"/><path d="M23.45 44.83c-.3-.28.23-.72.52-.44.32.29-.2.73-.52.44zm-5.15-8.82c-.3-.28.23-.72.52-.44.32.3-.2.74-.52.44zm5.72 2.36c-.3-.28.23-.72.52-.44.32.29-.2.73-.52.44zm-1.8 8.82c-.3-.28.23-.72.52-.44.32.3-.2.74-.52.44z" style="fill:#c6ebf5"/><path d="M23.81 42.09c-.3-.28.23-.72.52-.44.32.29-.2.73-.52.44zm-2.95 1.38c-.3-.28.23-.72.52-.44.32.3-.2.74-.52.44zm-.75-2.41c-.3-.28.22-.72.52-.44.32.29-.2.74-.52.44z" style="fill:#d8f7ff"/><path d="M20.99 38.14c-.3-.28.23-.72.52-.44.32.3-.2.74-.52.44z" style="fill:#c6ebf5"/><path d="M27.86 44.59c-.3-.28.22-.72.52-.44.32.3-.2.74-.52.44zm1.61 3.86c-.3-.28.22-.72.52-.44.32.3-.2.74-.52.44z" style="fill:#7ac1e4"/><path d="M23.06 54.58c-.62-.22-.12-1.22.49-1.01.67.24.18 1.24-.49 1.01zm-.01-18.28c-.62-.22-.12-1.22.49-1.01.66.23.17 1.24-.49 1.01zm-2.13 17.98c-.62-.22-.12-1.22.49-1.01.67.24.18 1.24-.49 1.01z" style="fill:#c6ebf5"/><linearGradient id="d" x1="36.638" x2="39.709" y1="6.919" y2="6.919" gradientUnits="userSpaceOnUse"><stop offset="0" style="stop-color:#99a8ae"/><stop offset=".267" style="stop-color:#ecf1f5"/><stop offset=".309" style="stop-color:#e4eaee"/><stop offset=".499" style="stop-color:#c3cdd2"/><stop offset=".682" style="stop-color:#acb9be"/><stop offset=".853" style="stop-color:#9eacb2"/><stop offset="1" style="stop-color:#99a8ae"/></linearGradient><path d="M36.64 3.79h3.07v6.26h-3.07z" style="fill:url(#d)"/><path d="M43.69 9.72c.18 0 .32.14.32.31v3.69c0 .17-.15.31-.32.31l-2.76.08V9.64l2.76.08z" style="fill:#8d9ba1"/><path d="m32.65 9.72 2.76-.08v4.46l-2.76-.08c-.18 0-.32-.14-.32-.31v-3.69c0-.16.15-.3.32-.3z" style="fill:#cfd8dd"/><path d="M35.41 9.64h5.52v4.46h-5.52z" style="fill:#99a8ae"/><path d="M32.44 13.95c.06.05.13.08.21.08l2.76.08h5.52l2.76-.08c.09 0 .17-.04.23-.09-.13.02-.28.03-.4.03l-1.86.04c-.36.01-.65-.26-.65-.6v-3.07c0-.34.29-.61.65-.6l1.86.04c.13 0 .26.01.38.02a.323.323 0 0 0-.21-.08l-2.76-.08h-5.52l-2.76.08c-.08 0-.15.03-.21.08.12-.01.25-.01.38-.02l1.86-.04c.36-.01.65.26.65.6v3.07c0 .34-.29.61-.65.6l-1.86-.04c-.12-.01-.26-.02-.38-.02zm3.06-3.61c0-.34.29-.61.65-.61h4.06c.36 0 .65.28.65.61v3.07c0 .34-.29.61-.65.61h-4.06c-.36 0-.65-.28-.65-.61v-3.07z" style="fill:#6e8189"/><linearGradient id="e" x1="31.879" x2="44.469" y1="14.985" y2="14.985" gradientUnits="userSpaceOnUse"><stop offset="0" style="stop-color:#99a8ae"/><stop offset=".267" style="stop-color:#ecf1f5"/><stop offset=".309" style="stop-color:#e4eaee"/><stop offset=".499" style="stop-color:#c3cdd2"/><stop offset=".682" style="stop-color:#acb9be"/><stop offset=".853" style="stop-color:#9eacb2"/><stop offset="1" style="stop-color:#99a8ae"/></linearGradient><path d="M31.88 13.74v2.92h12.59v-2.92c0-.23-.18-.42-.41-.42H32.29c-.23 0-.41.19-.41.42z" style="fill:url(#e)"/><linearGradient id="f" x1="46.097" x2="46.097" y1="6.919" y2="2" gradientUnits="userSpaceOnUse"><stop offset=".193" style="stop-color:#99a8ae"/><stop offset=".578" style="stop-color:#ecf1f5"/><stop offset=".658" style="stop-color:#e4eaee"/><stop offset=".781" style="stop-color:#ced7dc"/><stop offset=".932" style="stop-color:#abb8be"/><stop offset="1" style="stop-color:#99a8ae"/></linearGradient><path d="M47.73 2c-.97 0-.9.84-3.11.75-.47-.02-1.79-.75-1.79-.75-.66 2.68 0 4.92 0 4.92s1.32-.73 1.79-.75c2.21-.1 2.14.75 3.11.75 2.57 0 2.57-4.92 0-4.92z" style="fill:url(#f)"/><linearGradient id="g" x1="1729.457" x2="1729.457" y1="6.919" y2="2" gradientTransform="matrix(-1 0 0 1 1759.708 0)" gradientUnits="userSpaceOnUse"><stop offset=".193" style="stop-color:#99a8ae"/><stop offset=".578" style="stop-color:#ecf1f5"/><stop offset=".658" style="stop-color:#e4eaee"/><stop offset=".781" style="stop-color:#ced7dc"/><stop offset=".932" style="stop-color:#abb8be"/><stop offset="1" style="stop-color:#99a8ae"/></linearGradient><path d="M28.62 2c.97 0 .9.84 3.11.75.47-.02 1.79-.75 1.79-.75.66 2.68 0 4.92 0 4.92s-1.32-.73-1.79-.75c-2.21-.1-2.14.75-3.11.75-2.58 0-2.58-4.92 0-4.92z" style="fill:url(#g)"/><linearGradient id="h" x1="952.132" x2="957.051" y1="772.541" y2="772.541" gradientTransform="rotate(90 880.423 -69.708)" gradientUnits="userSpaceOnUse"><stop offset="0" style="stop-color:#99a8ae"/><stop offset=".267" style="stop-color:#ecf1f5"/><stop offset=".309" style="stop-color:#e4eaee"/><stop offset=".499" style="stop-color:#c3cdd2"/><stop offset=".682" style="stop-color:#acb9be"/><stop offset=".853" style="stop-color:#9eacb2"/><stop offset="1" style="stop-color:#99a8ae"/></linearGradient><path d="M33.52 2h9.3v4.92h-9.3z" style="fill:url(#h)"/><linearGradient id="i" x1="16.568" x2="27.142" y1="31.61" y2="31.61" gradientUnits="userSpaceOnUse"><stop offset="0" style="stop-color:#99a8ae"/><stop offset=".267" style="stop-color:#ecf1f5"/><stop offset=".309" style="stop-color:#e4eaee"/><stop offset=".499" style="stop-color:#c3cdd2"/><stop offset=".682" style="stop-color:#acb9be"/><stop offset=".853" style="stop-color:#9eacb2"/><stop offset="1" style="stop-color:#99a8ae"/></linearGradient><path d="M16.57 28.79v4.78c0 1.16 10.57 1.16 10.57 0v-4.78H16.57z" style="fill:url(#i)"/><linearGradient id="j" x1="16.568" x2="27.142" y1="28.787" y2="28.787" gradientUnits="userSpaceOnUse"><stop offset="0" style="stop-color:#ecf1f5"/><stop offset=".417" style="stop-color:#c3cdd2"/><stop offset=".79" style="stop-color:#a4b2b8"/><stop offset="1" style="stop-color:#99a8ae"/></linearGradient><path d="M21.85 28.11c2.92 0 5.29.3 5.29.67 0 .37-2.37.67-5.29.67s-5.29-.3-5.29-.67c.01-.37 2.38-.67 5.29-.67z" style="fill:url(#j)"/><linearGradient id="k" x1="31.314" x2="37.314" y1="13.448" y2="26.187" gradientUnits="userSpaceOnUse"><stop offset="0" style="stop-color:#ecf1f5"/><stop offset=".417" style="stop-color:#c3cdd2"/><stop offset=".79" style="stop-color:#a4b2b8"/><stop offset="1" style="stop-color:#99a8ae"/></linearGradient><path d="M49.24 15.05H30.73c-7.35 0-13.31 6.1-13.31 13.61 0 .69 8.87.69 8.87 0 0-2.51 1.99-4.54 4.44-4.54h18.51c1.23 0 2.39.54 3.2 1.48V13.57c-.81.94-1.97 1.48-3.2 1.48z" style="fill:url(#k)"/><path d="M54.91 25.44c0 .19-.17.34-.38.34h-2.02c-.21 0-.37-.15-.37-.34l-.09-2.93H55l-.09 2.93z" style="fill:#8d9ba1"/><path d="m54.9 13.74.1 2.92h-2.96l.09-2.92c0-.19.17-.34.37-.34h2.02c.22 0 .38.15.38.34z" style="fill:#cfd8dd"/><path d="M52.04 16.66H55v5.85h-2.96z" style="fill:#99a8ae"/><path d="M52.23 13.52a.31.31 0 0 0-.09.22l-.09 2.92v5.85l.09 2.93c0 .09.04.18.11.24-.02-.14-.03-.29-.04-.42l-.05-1.97c-.01-.38.32-.69.73-.69h1.27c.41 0 .74.31.73.69l-.05 1.97c0 .14-.01.28-.02.4a.31.31 0 0 0 .09-.22l.09-2.93v-5.85l-.1-2.92c0-.09-.04-.16-.09-.22.01.13.02.27.02.4l.05 1.97c.01.38-.32.69-.73.69h-1.27c-.41 0-.74-.31-.73-.69l.05-1.97.03-.4zm1.93 3.23c.41 0 .75.31.75.69v4.3c0 .38-.34.69-.75.69h-1.27c-.41 0-.75-.31-.75-.69v-4.3c0-.38.34-.69.75-.69h1.27z" style="fill:#6e8189"/><linearGradient id="l" x1="15.113" x2="15.113" y1="58.089" y2="37.931" gradientUnits="userSpaceOnUse"><stop offset="0" style="stop-color:#fff;stop-opacity:0"/><stop offset=".114" style="stop-color:#fff;stop-opacity:.1142"/><stop offset="1" style="stop-color:#fff"/></linearGradient><path d="M10.29 40.38s-.06 8.38 3.18 16.51c.24.59 6.65 1.78 6.47.87-1.68-8.58-1.61-16.82-1.61-16.82s-5.82-.24-8.04-.56z" style="opacity:.7;fill:url(#l);enable-background:new"/></svg>