<svg xmlns="http://www.w3.org/2000/svg" xml:space="preserve" style="enable-background:new 0 0 64 64" viewBox="0 0 64 64"><linearGradient id="a" x1="22.517" x2="29.385" y1="33.012" y2="33.012" gradientUnits="userSpaceOnUse"><stop offset="0" style="stop-color:#ffd8b4"/><stop offset=".319" style="stop-color:#fcd5b0"/><stop offset=".615" style="stop-color:#f3cba5"/><stop offset=".901" style="stop-color:#e5ba92"/><stop offset="1" style="stop-color:#deb38a"/></linearGradient><path d="M29.385 27.518c-1.57 1.805-3.377 4.216-3.757 4.666-.465.55-2.276 1.682-2.427 2.2-.64 2.192-.874 2.342-.515 3.643.272.986.553.234.513-.314-.06-.851.557-2.187 1.239-1.802-.936 1.29-.312 2.185.004 1.682.81-1.302 1.555-1.885 1.542-2.95-.003-.393 1.1-1.774 3.401-3.045v-4.08z" style="fill:url(#a)"/><linearGradient id="b" x1="31.273" x2="37.333" y1="13.46" y2="13.46" gradientUnits="userSpaceOnUse"><stop offset="0" style="stop-color:#deb38a"/><stop offset=".013" style="stop-color:#dfb48b"/><stop offset=".256" style="stop-color:#f1c8a2"/><stop offset=".487" style="stop-color:#fbd4af"/><stop offset=".693" style="stop-color:#ffd8b4"/></linearGradient><path d="M37.333 11.319c-1.472-3.708-3.45-.124-6.06 3.896.8-.358 1.08.855 1.08 1.27 0 1.32 2.24.619 4.792-1.504-.572-1.174.188-3.662.188-3.662z" style="fill:url(#b)"/><path d="M28.822 5.306c-.26.729-.921 2.3-.362 3.3.25.447-.242 1.505-.82 2.145-.251.278-.327.638-.175.846.234.317.63.14.804.38.286.392-.057.637-.056.808 0 0 1.001.172.422 1.07.102.101.32.058.171.789-.098.482.372 1.146.987 1 3.884-.927 5.169-1.572 5.518-4.244.56-4.283 1.553-8.947-6.49-6.094z" style="fill:#ffd8b4"/><path d="M28.213 12.786c-.067.477.869.842 1.53.33-1.04.167-1.262-.424-1.53-.33z" style="fill:#deb38a"/><path d="M28.637 13.3c-.236.17-.223.425-.002.554.453-.108.905-.251 1.108-.737-.519.276-1.106.183-1.106.183zm-1.23-1.824c.091.561 1.74.804 1.666-.04-.217.792-1.726-.325-1.666.04z" style="fill:#deb38a"/><path d="M30.365 9.364c-.314.51-1.045.628-1.045.628-.258-.228-.284-.784-.214-1.088.378-.06 1.26.46 1.26.46z" style="fill:#fff"/><linearGradient id="c" x1="-55.135" x2="-55.135" y1="11.058" y2="9.818" gradientTransform="matrix(.5738 -.061 .1057 .9944 59.787 -4.367)" gradientUnits="userSpaceOnUse"><stop offset="0" style="stop-color:#a6694a"/><stop offset="1" style="stop-color:#4f2a1e"/></linearGradient><path d="M28.999 9.436c.067.78.6.723.517-.055-.076-.722-.603-.945-.517.055z" style="fill:url(#c)"/><path d="M29.063 9.408c.039.366.247.344.209-.023-.036-.34-.245-.318-.209.023z" style="fill:#1a1626"/><path d="M29.187 9.238c.02.183.123.171.104-.011-.018-.17-.122-.158-.104.011z" style="fill:#ab968c"/><path d="M30.365 9.364c-.441-.48-.951-.675-1.306-.66-.07.165-.035.233-.035.233s.316-.103 1.341.427z" style="fill:#deb38a"/><path d="M30.33 8.282c-.411-.365-1.147-.649-1.833-.335-.098.045.022.459.101.423.528-.237 1.054-.16 1.716.23.076.046.098-.246.016-.318z" style="fill:#826d58"/><path d="M39.833 7.227c-.239-1.6-.902-2.56-.902-2.56C38.654 3.175 37.215 2 33.319 2c-4.026 0-5.687 2.146-4.629 3.667.112.161 2.256.445 3.716-.128 0 0 .034.817-.299 1.9-.205.668 1.042 1.043 1.212 2.007.291 1.651 1.111.782 2.008.46 1.97-.471 1.097 2.993 1.637 3.61 1.186-.772 3.416-2.625 2.869-6.29z" style="fill:#4f4236"/><path d="M37.833 12.364c.776-1.059.839-2.432.839-2.432s-.596 1.804-1.584 2.494c.807-1.495.454-2.502.454-2.502s.024.816-.658 1.97c-.118-.887-.316-2.952-.95-1.989 1.452 1.435-.304 4.48 1.03 3.611.959-.624 2.599-1.954 2.904-4.375 0 0-.35 1.988-2.035 3.223zm-3.998-7.066-.593.142s-.358 1.036.474 2.804c-.531-2.029.12-2.946.12-2.946zm1.801-.496-.53.104s-.342 1.288.827 2.968c-.889-1.961-.297-3.072-.297-3.072zm1.069-.202.44-.034s.647.408.71 2.017c-.414-1.527-1.15-1.983-1.15-1.983zm-.562-.028s-2-.068-4.237-1.792c1.877 1.96 3.485 1.994 3.485 1.994l.752-.202zm-2.468.615s-2.564-.272-4.405-1.627c1.428 1.65 3.511 1.87 3.511 1.87l.894-.243zm3.933-.737-.333.045s-.268-.722-1.473-1.556c1.347.53 1.806 1.51 1.806 1.51z" style="fill:#403429"/><path d="M34.439 11.916c.121.08.785.202 1.12-.43.186-.349.769-.71.862-1.397.12-.88-2.844 1.265-1.982 1.827z" style="fill:#deb38a"/><path d="M35.058 8.52c-1.155.234-1.52 2.815-.659 3.378.121.079.754.15 1.089-.482.187-.35.85-.704.943-1.39.122-.88-.225-1.739-1.373-1.506z" style="fill:#ffd8b4"/><path d="M38.93 4.667c-4.008-.463-7.123 2.242-10.24 1 3.238.73 7.22-2.133 10.24-1z" style="fill:#403429"/><path d="M33.28 4.765s-1.435-.35-3.127-1.645c1.375 1.876 3.128 1.645 3.128 1.645zm4.736.009s.472.812.964 2.072c.136-1.656-.964-2.072-.964-2.072zm-3.266 3.35s-.517-1.072-.3-2.707c-.947 1.675.3 2.707.3 2.707zm1.621-3.091s-.047 1.126.626 2.61c.241-1.71-.626-2.61-.626-2.61zm-.001-.902s-1.178-.918-2.745-1.306c1.34 1.151 2.745 1.306 2.745 1.306zm.335-1.193s.695.53 1.382 1.154c-.192-.894-1.382-1.153-1.382-1.153zm-5.188 2.469s-1.327-.061-3.057-1.085c1.56 1.718 3.057 1.085 3.057 1.085z" style="fill:#635547"/><path d="M35.07 8.988c-.293.107-.56.457-.629.984.488-.132.536.85.107 1.043a3.6 3.6 0 0 0 .125.354c.355-.486.853-.384 1.163-1.076.281-.624-.036-1.571-.766-1.305z" style="fill:#deb38a"/><path d="M25.608 60.296c.232.087.083 1.704-1.167 1.704h-2.865c-2.047 0-4.82-1.641-5.684-3.016-.826-1.317-1.218-2.188-.563-2.734 4.645 3.093 9.921 3.913 10.279 4.046z" style="fill:#6e8189"/><path d="M22.482 57.029c.878.644-.677 2.228-4.072.35 2.777.443 3.914-.466 4.072-.35z" style="fill:#6e8189"/><path d="M25.305 57.721c.172.294.525 1.535.303 2.575-1.207 1.09-3.02.296-4.47.573-3.207.614-6.313-4.059-5.795-4.637.852-.952.926 1.454 6.354 1.525 1.954.025 3.438-.33 3.608-.036z" style="fill:#99a8ae"/><path d="M20.198 57.492c.018.731.524.693.505-.037-.002-.062-.507-.024-.505.037zm-.7-.016c-.047.565.465.569.512.004.004-.047-.508-.051-.512-.004zm-.666-.062c-.067.456.396.502.462.045.006-.038-.457-.083-.462-.045z" style="fill:#1a1626"/><path d="M48.266 55.684c.226-.103 1.268 1.147.384 2.027l-2.026 2.02C45.177 61.173 43.3 62 41.676 62c-1.555 0-2.501-.13-2.62-.975 5.082-2.29 8.864-5.183 9.21-5.341zm-4.769-.303c1.01-.4 1.536 1.758-1.854 3.634 1.843-2.115 1.671-3.561 1.854-3.634z" style="fill:#6e8189"/><path d="M46.225 54.076c.33.087 1.46.716 2.041 1.608-.08 1.621-1.75 1.966-2.455 3.257-1.563 2.86-6.545 2.808-6.762 2.062-.359-1.227 1.724-.011 4.652-4.57 1.053-1.641 2.195-2.444 2.524-2.357z" style="fill:#99a8ae"/><path d="M42.684 57.562c.63.373.865-.076.235-.448-.053-.031-.288.417-.235.448zm-.384.584c.455.34.729-.092.274-.432-.038-.028-.312.403-.273.432zm-.405.531c.353.3.636-.068.283-.368-.029-.024-.312.343-.282.368z" style="fill:#1a1626"/><path d="M38.04 31.684c-8.371-1.23-8.347 2.783-8.347 2.783 1.227 6.018 4.005 13.333 5.012 14.582.843 1.044 5.67 4.788 8.103 8.125 2.4 0 6.528-.24 5.795-1.387-2.4-3.751-8.866-10.206-8.866-10.206-1.63-3.511-2.93-9.731-1.697-13.897z" style="fill:#2a4178"/><path d="M38.04 31.684s-5.318-2.574-7.293 2.244c-1.162 3.722-4.652 9.15-5.348 10.61-.76 1.593-2.879 8.389-4.723 12.727.8 2.315 4.637 4.508 5.093 3.407 2.596-6.26 4.636-13.567 4.636-13.567 6.311-6.894 9.97-8.02 7.635-15.42z" style="fill:#2b4f87"/><path d="M38.184 32.125s-4.002.166-8.492 2.422c-.876-3.794-.976-9.233-.716-12.67.17-2.237 2.036-4.26 3.378-5.391.758 1.483 3.435-1.072 4.79-1.505 5.102 4.783-.257 10.525 1.04 17.144z" style="fill:#3ab0a2"/><path d="M43.059 25.053c-.182-.503-1.215-2.34-2.255-4.142a62.802 62.802 0 0 0-3.488 1.821c1.017 1.368 2.063 2.82 2.616 3.72.18 2.482 1.026 4.963.748 7.877-.127 1.262-.989.502-1.704 3.149-.114.415.859.36 1.175-.594.984.4-1.096 3.649.4 3.054.54.156 1.925-.423 2.498-2.429.091-.324.143-2.754.077-3.078-.25-1.25.258-8.49-.067-9.378z" style="fill:#ffd8b4"/><path d="M41.298 38.136s-.252 1.31-.747 1.802c.668-.408.747-1.802.747-1.802zm.828-.396s-.332 1.596-.828 2.089c.669-.407.828-2.089.828-2.089zm.531-.09s-.173 1.22-.668 1.713c.668-.407.668-1.713.668-1.713z" style="fill:#deb38a"/><path d="M42.004 22.336s-1.453-2.494-3.632-5.46c-1.587-2.16-5.145.372-3.81 2.782 1.748 3.156 3.085 4.832 3.085 4.832 2.807-.51 4.357-2.154 4.357-2.154z" style="fill:#25a898"/></svg>