<svg xmlns="http://www.w3.org/2000/svg" xml:space="preserve" style="enable-background:new 0 0 64 64" viewBox="0 0 64 64"><path d="M15.73 23.94c-2.57-.19-7.37 1.28-9.25 2.36-.8-1.64.18-3.06 1.35-3.63 1.38-2.57 7.23-2.17 7.9 1.27z" style="fill:#006dae"/><path d="M13.44 22.28c.48.05 2.98 1.39 3.64 2.59.5.92 1.68 1.19 2.72 1.19.45 0 .83.22.89.52.09.46-.39.67-.31 1.02.12.57.61.46.76.6 0 0-.53 1.15.73 1.35.01.17-.42.38.35.83.51.3.57 1.1.09 1.68-.51.61-3.71 3.53-8.13 1.34-1.98-.96-3.27-11.36-.74-11.12z" style="fill:#735c48"/><path d="M21.13 28.2c.48.32.04 1.45-.95 1.63.99-.79.65-1.46.95-1.63z" style="fill:#302116"/><path d="M21.24 28.99c.34-.07.68.26.62.56-.46.32-1.08.49-1.67.28.66-.24 1.05-.84 1.05-.84zm-.62-2.56c.42.53-.7 2.2-1.38 1.45.87.45 1.11-1.79 1.38-1.45z" style="fill:#302116"/><path d="M15.43 26.47c.01-.66.35-1.54 1.19-1.9.12-.05.31.34.22.38-.64.28-.99.81-1.18 1.71-.03.11-.23-.06-.23-.19z" style="fill:#403229"/><path d="M17.83 26.19c.53 1.2-1.11 1.23-1.84 1.24.87-.41 1.64-.43 1.84-1.24z" style="fill:#302116"/><linearGradient id="a" x1="-43.181" x2="-43.181" y1="-80.397" y2="-89.653" gradientTransform="matrix(.9911 -.1328 .1489 1.1109 65.875 115.667)" gradientUnits="userSpaceOnUse"><stop offset="0" style="stop-color:#006dae"/><stop offset=".436" style="stop-color:#006fb0"/><stop offset=".679" style="stop-color:#0074b8"/><stop offset=".873" style="stop-color:#007cc6"/><stop offset="1" style="stop-color:#0085d4"/></linearGradient><path d="m14.17 31.68-7.02.89c-2.79-4.81-1.27-9.07 1.62-9.73.56-1.34 2.39-1.37 3.15-.67 4.27-1.83 3.42 7.09 2.25 9.51z" style="fill:url(#a)"/><path d="M13.9 54.3c-.1.95-.27 5.06-.27 5.06s3.81.11 4.16-.63c.54-1.15 1.12-2.87 1.21-4.43h-5.1zm36.17 0c.1.95.27 5.06.27 5.06s-3.81.11-4.16-.63c-.54-1.15-1.12-2.87-1.21-4.43h5.1z" style="fill:#5d696e"/><path d="M14.34 54.62c.02-2.06-1.77-3.86-1.64-3.9.13-.05 2.39 1.69 2.29 4.01 0 .13-.65.02-.65-.11zm-1.19-.17c-.44-2.51-2.7-3.65-2.6-3.73.1-.08 2.56 1 3.17 3.81.03.12-.54.05-.57-.08zm-.96-.14c-1.38-2.43-2.65-2.37-2.56-2.46.09-.09 1.73 0 3.05 2.55.06.11-.42.02-.49-.09zm37.44.31c-.02-2.06 1.77-3.86 1.64-3.9-.13-.05-2.39 1.69-2.29 4.01 0 .13.65.02.65-.11zm1.18-.17c.44-2.51 2.7-3.65 2.6-3.73-.1-.08-2.56 1-3.17 3.81-.03.12.55.05.57-.08zm.96-.14c1.38-2.43 2.65-2.37 2.56-2.46-.09-.09-1.73 0-3.05 2.55-.05.11.43.02.49-.09z" style="opacity:.25;fill:#545f63"/><linearGradient id="b" x1="58.059" x2="60.059" y1="22.56" y2="22.56" gradientUnits="userSpaceOnUse"><stop offset="0" style="stop-color:#767f82"/><stop offset=".179" style="stop-color:#7d8689"/><stop offset=".443" style="stop-color:#90999d"/><stop offset=".759" style="stop-color:#b0b9bd"/><stop offset="1" style="stop-color:#cdd6db"/></linearGradient><path d="M60.06 33.88h-2V11.45c0-.31 2-.26 2 0v22.43z" style="fill:url(#b)"/><radialGradient id="c" cx="51.125" cy="12.141" r="9.027" gradientTransform="matrix(1 0 0 .9533 0 -.202)" gradientUnits="userSpaceOnUse"><stop offset=".76" style="stop-color:#767f82"/><stop offset=".803" style="stop-color:#7e878a"/><stop offset=".87" style="stop-color:#939ca0"/><stop offset=".952" style="stop-color:#b6bfc3"/><stop offset="1" style="stop-color:#cdd6db"/></radialGradient><path d="M58.06 11.45c0-3.16-1.48-5.62-4.06-6.77-3.14-1.39-5.68-.67-8.85 2.2L43.8 5.41c3.77-3.41 7.13-4.26 11-2.55 3.29 1.46 5.25 4.67 5.25 8.59h-1.99z" style="fill:url(#c)"/><linearGradient id="d" x1="58.059" x2="60.059" y1="11.479" y2="11.479" gradientUnits="userSpaceOnUse"><stop offset="0" style="stop-color:#767f82"/><stop offset=".335" style="stop-color:#788184"/><stop offset=".523" style="stop-color:#80898d"/><stop offset=".675" style="stop-color:#8e979a"/><stop offset=".808" style="stop-color:#a1aaae"/><stop offset=".927" style="stop-color:#bac3c7"/><stop offset="1" style="stop-color:#cdd6db"/></linearGradient><path d="M58.06 11.33v.12c0 .25 2 .25 2 0v-.12c-.36.14-1.64.14-2 0z" style="fill:url(#d)"/><linearGradient id="e" x1="602.415" x2="605.86" y1="537.461" y2="537.461" gradientTransform="rotate(45.057 965.686 -402.24)" gradientUnits="userSpaceOnUse"><stop offset="0" style="stop-color:#cdd6db"/><stop offset=".009" style="stop-color:#ccd5da"/><stop offset=".682" style="stop-color:#8e979b"/><stop offset="1" style="stop-color:#767f82"/></linearGradient><path d="m45.67 7.59-2.43-2.44 1.11-1.11c.43-.43 2.86 2.01 2.43 2.44l-1.11 1.11z" style="fill:url(#e)"/><linearGradient id="f" x1="598.593" x2="609.32" y1="540.517" y2="540.517" gradientTransform="rotate(45.057 965.686 -402.24)" gradientUnits="userSpaceOnUse"><stop offset="0" style="stop-color:#cdd6db"/><stop offset=".009" style="stop-color:#ccd5da"/><stop offset=".682" style="stop-color:#8e979b"/><stop offset="1" style="stop-color:#767f82"/></linearGradient><path d="M45.23 12.92c-.64.64-8.22-6.95-7.58-7.59 1.32-1.32 5.05-1.64 7.14.46 2.1 2.09 1.76 5.81.44 7.13z" style="fill:url(#f)"/><linearGradient id="g" x1="598.593" x2="609.32" y1="541.705" y2="541.705" gradientTransform="rotate(45.057 965.686 -402.24)" gradientUnits="userSpaceOnUse"><stop offset="0" style="stop-color:#9ea5a8"/><stop offset=".141" style="stop-color:#899093"/><stop offset=".341" style="stop-color:#72797c"/><stop offset=".528" style="stop-color:#646b6e"/><stop offset=".69" style="stop-color:#5f6669"/></linearGradient><path d="M45.23 12.92c.27-.27.5-.64.67-1.08-.05-.97-1.13-2.71-2.8-4.38-1.66-1.67-3.41-2.75-4.38-2.8-.44.17-.81.4-1.08.67-.63.64 6.95 8.23 7.59 7.59z" style="opacity:.2;fill:url(#g)"/><linearGradient id="h" x1="606.762" x2="601.152" y1="545.346" y2="539.736" gradientTransform="rotate(45.057 965.686 -402.24)" gradientUnits="userSpaceOnUse"><stop offset="0" style="stop-color:#cdd6db"/><stop offset=".083" style="stop-color:#c1cacf"/><stop offset=".339" style="stop-color:#a0a9ad"/><stop offset=".583" style="stop-color:#899295"/><stop offset=".81" style="stop-color:#7b8487"/><stop offset="1" style="stop-color:#767f82"/></linearGradient><path d="M45.23 12.92c-.64.64-2.86-.54-4.96-2.63-2.09-2.1-3.27-4.32-2.62-4.96.64-.64 2.86.54 4.96 2.63 2.09 2.09 3.27 4.31 2.62 4.96z" style="fill:url(#h)"/><path d="m40.55 10.04-.18-.18.13-.13.18.18c.05.05.1.1.16.15l-.13.13a.752.752 0 0 1-.16-.15zm-.51-.53c-.11-.12-.22-.24-.32-.36l.14-.12c.1.12.21.23.31.35l-.13.13zm1.01 1.02.12-.13c.12.11.24.21.35.31l-.12.14c-.11-.11-.23-.21-.35-.32zm-1.63-1.74c-.1-.13-.2-.25-.29-.38l.14-.11c.09.12.19.25.29.37l-.14.12zm2.36 2.36.11-.14c.13.1.25.2.37.29l-.11.14a9.36 9.36 0 0 1-.37-.29zm-2.94-3.12c-.09-.14-.18-.27-.26-.4l.15-.09c.08.13.16.26.25.39l-.14.1zm3.7 3.7.1-.15c.14.09.27.18.39.26l-.09.15c-.13-.08-.26-.17-.4-.26zM38.35 7.2a5.21 5.21 0 0 1-.2-.44l.17-.06c.05.13.11.27.19.42l-.16.08zm5.01 5.02.08-.16c.15.08.29.14.42.19l-.06.17a5.21 5.21 0 0 1-.44-.2zm-5.33-5.94c-.02-.23.02-.4.14-.52l.13.13c-.07.08-.1.2-.09.37l-.18.02zm6.26 6.26.02-.18c.17.02.29-.01.37-.09l.14.11-.02.02c-.11.11-.28.16-.51.14zM38.66 5.8l.02-.18c.14.01.3.05.48.12l-.06.16c-.16-.06-.31-.09-.44-.1zm6.11 6.09c-.01-.13-.05-.27-.11-.44l.17-.06c.07.18.11.34.12.48l-.18.02zm-5.24-5.8.08-.16c.13.07.28.15.42.24l-.09.15c-.15-.09-.28-.16-.41-.23zm4.93 4.94c-.07-.13-.14-.27-.23-.41l.15-.09c.09.14.17.28.24.42l-.16.08zm-4.13-4.46.1-.15c.13.09.26.18.39.28l-.11.14c-.13-.09-.26-.18-.38-.27zm3.65 3.65c-.09-.12-.18-.25-.27-.38l.14-.11c.1.13.19.26.28.39l-.15.1zm-2.9-3.08L41.2 7l.37.31-.12.14c-.13-.11-.25-.22-.37-.31zm2.34 2.33-.3-.36.14-.12c.11.12.21.25.31.37l-.15.11zM41.8 7.75l.12-.13c.12.11.23.22.35.33l-.13.13c-.11-.11-.23-.22-.34-.33zm1 1.01c-.1-.11-.21-.23-.32-.34l.13-.13c.11.12.22.23.33.35l-.14.12zm-1.85.85.13-.13c.12.12.23.23.35.34l-.12.13c-.12-.1-.24-.22-.36-.34zm-.34-.35a5.49 5.49 0 0 1-.33-.37l.14-.12c.1.12.21.24.33.36l-.14.13zm1.06 1.03.12-.14.37.31-.11.14c-.12-.1-.25-.2-.38-.31zm-1.7-1.78c-.11-.14-.21-.27-.3-.4l.15-.1c.09.13.18.26.29.39l-.14.11zm2.48 2.39.1-.15c.14.1.28.19.4.26l-.09.16c-.12-.08-.26-.17-.41-.27zM39.4 7.7c-.1-.17-.17-.32-.22-.45l.17-.06c.05.12.12.27.21.42l-.16.09zm3.92 3.69.06-.17c.18.07.32.08.37.03l.14.11-.01.01c-.11.12-.3.12-.56.02zm-4.14-4.7c.11-.11.3-.12.56-.02l-.06.17c-.18-.07-.31-.08-.36-.03l-.14-.12zm4.54 4.18c-.05-.12-.12-.26-.21-.42l.16-.09c.1.17.17.32.22.45l-.17.06zM40.1 7.05l.09-.16c.13.08.27.17.42.27l-.1.15c-.15-.1-.28-.19-.41-.26zm3.14 3c-.09-.12-.19-.25-.29-.39l.14-.11c.11.14.21.27.3.39l-.15.11zM40.89 7.6l.11-.14c.12.1.25.2.38.32l-.12.14c-.12-.12-.24-.22-.37-.32zm1.75 1.69c-.1-.12-.21-.24-.33-.36l.13-.12c.12.12.23.25.33.37l-.13.11zm-1.01-1.05.12-.13c.12.11.24.22.35.34l-.13.13c-.11-.12-.22-.23-.34-.34zm.88 1.77c-.12.12-.66-.22-1.2-.76-.54-.54-.88-1.08-.76-1.2.12-.12.66.22 1.2.76.54.54.88 1.08.76 1.2z" style="fill:#5d696e"/><radialGradient id="i" cx="30.457" cy="27.295" r="37.415" gradientTransform="matrix(1 0 0 .7513 0 6.007)" gradientUnits="userSpaceOnUse"><stop offset="0" style="stop-color:#fff"/><stop offset=".277" style="stop-color:#fafbfc"/><stop offset=".584" style="stop-color:#edf1f2"/><stop offset=".904" style="stop-color:#d7dfe3"/><stop offset="1" style="stop-color:#cfd8dd"/></radialGradient><path d="M3.12 36.12s2.04 1.48 2.04 7.98c0 12.36 9.5 12.34 9.5 12.34H49.3s9.5.02 9.5-12.34c0-6.5 2.04-7.98 2.04-7.98H3.12z" style="fill:url(#i)"/><linearGradient id="j" x1="235.501" x2="237.579" y1="6.084" y2="-8.389" gradientTransform="matrix(-1 0 0 .814 288.285 57.047)" gradientUnits="userSpaceOnUse"><stop offset="0" style="stop-color:#cdd6db"/><stop offset=".021" style="stop-color:#c7d0d4"/><stop offset=".148" style="stop-color:#a4adb1"/><stop offset=".267" style="stop-color:#8b9497"/><stop offset=".375" style="stop-color:#7b8487"/><stop offset=".46" style="stop-color:#767f82"/><stop offset=".595" style="stop-color:#879094"/><stop offset=".862" style="stop-color:#b4bdc1"/><stop offset="1" style="stop-color:#cdd6db"/></linearGradient><path d="M52.65 58.39c2.59.25 3.53 2.42 2.27 2.52 0 0 .02.95-1.32.66-.33.96-3.38.14-3.79-.75-.7-1.5-1.48-3.84-1.48-5.83-.94-.33-.78-2.23.43-2.23.67-1.59 1.95-2.65 2.51-2.04.63-.99 2.22-.9 2.14 0 .54-.4 1.64.37.93 1.13.82.91-1.13.58-2.18 2.55-.43.79.51 3.67.49 3.99z" style="fill:url(#j)"/><linearGradient id="k" x1="11.18" x2="13.258" y1="6.084" y2="-8.389" gradientTransform="matrix(1 0 0 .814 0 57.047)" gradientUnits="userSpaceOnUse"><stop offset="0" style="stop-color:#cdd6db"/><stop offset=".021" style="stop-color:#c7d0d4"/><stop offset=".148" style="stop-color:#a4adb1"/><stop offset=".267" style="stop-color:#8b9497"/><stop offset=".375" style="stop-color:#7b8487"/><stop offset=".46" style="stop-color:#767f82"/><stop offset=".595" style="stop-color:#879094"/><stop offset=".862" style="stop-color:#b4bdc1"/><stop offset="1" style="stop-color:#cdd6db"/></linearGradient><path d="M11.32 58.39c-2.59.25-3.53 2.42-2.27 2.52 0 0-.02.95 1.32.66.33.96 3.38.14 3.79-.75.7-1.5 1.48-3.84 1.48-5.83.94-.33.78-2.23-.43-2.23-.67-1.59-1.95-2.65-2.51-2.04-.63-.99-2.22-.9-2.14 0-.54-.4-1.64.37-.93 1.13-.82.91 1.13.58 2.18 2.55.42.79-.51 3.67-.49 3.99z" style="fill:url(#k)"/><path d="M10.36 61.57c0-.02-.47-1.95 1.87-2.29.14-.02.56.19.42.21-1.88.27-2.28 2.2-2.29 2.08zm-1.31-.66c-.02-.61.19-1.84 1.78-2.08.14-.02.56.26.42.28-1.55.24-2.2 1.92-2.2 1.8zm44.55.66c0-.02.47-1.95-1.87-2.29-.14-.02-.56.19-.42.21 1.89.27 2.29 2.2 2.29 2.08zm1.32-.66c.02-.61-.19-1.84-1.78-2.08-.14-.02-.56.26-.42.28 1.54.24 2.19 1.92 2.2 1.8z" style="opacity:.25;fill:#545f63"/><linearGradient id="l" x1="-272.276" x2="-272.276" y1="36.541" y2="33.544" gradientTransform="translate(304.276)" gradientUnits="userSpaceOnUse"><stop offset="0" style="stop-color:#cfd8dd"/><stop offset=".293" style="stop-color:#d8dfe4"/><stop offset=".776" style="stop-color:#f1f4f5"/><stop offset="1" style="stop-color:#fff"/></linearGradient><path d="M60.5 36.54h-57c-.83 0-1.5-.67-1.5-1.5s.67-1.5 1.5-1.5h57c.83 0 1.5.67 1.5 1.5s-.67 1.5-1.5 1.5z" style="fill:url(#l)"/><linearGradient id="m" x1="-271.553" x2="-271.553" y1="38.211" y2="26.998" gradientTransform="translate(304.276)" gradientUnits="userSpaceOnUse"><stop offset="0" style="stop-color:#c2f8ff"/><stop offset=".125" style="stop-color:#c8f9ff"/><stop offset="1" style="stop-color:#ebfcff"/></linearGradient><path d="M59.79 31.15c.27-1.81-2.02-5.25-3.67-3.81-.05.05-2.6-.5-3.25.6-.97-1.33-3.03-1-3.88.63-.17.33-1.97-.82-2.81.15-.94-1.38-3.25-1.63-4.34-.28-.12.15-.94-.75-1.4.37-.62-.29-1.36-.41-2.08-.21-1.05-1.21-4.43-.01-4.68 1.9-.07.5-1.69-.72-2.16.75-.8-.43-1.82-.57-2.75-.07-.96-1.34-3.37-1.99-4.28-.11-.21.44-2.16-.72-3.46.4-.72-.28-1.56-.31-2.34.09-.9-1.43-2.76-2.16-4.76-.25-.44.42-1.86-1.65-3.29-.05-.95-.5-4.21.43-3.98.99-1.42.16-2.53.5-2.68 1.78-.16 1.41 3.03-.59 3.81.78.81 1.42 2.11-.29 2.56 1.56.58 2.36 2.45 2.43 3.6.4.85-1.5 2.9-.5 3.9-1.25 1.46-1.1 1.21-2.08 4.25-.46 3.25 1.73 3.59-2.21 6.81 0 1.19.82 2.55.6 2.41 1.5-.21 1.33 2.09 1.84 1.86.46-.24-1.5 1.64-.74 2.14-1.08 1.11-.74.56-2.08 2.8-.92 3.29 1.69 4.64-2.19 7.84-.36 1.24.71 2.09.79 3.3 2.29 1.38 1.72 3.21 1.62 4.47-.58 1-1.75 1.83-1.15 2.72-1.58 2.06-1 2.51-.41 3.75-.66 1.77-.37 1.67-2.26-.41-2.98z" style="fill:url(#m)"/><linearGradient id="n" x1="-266.834" x2="-266.834" y1="20.865" y2="18.701" gradientTransform="matrix(1 0 0 1.0362 304.276 2.605)" gradientUnits="userSpaceOnUse"><stop offset="0" style="stop-color:#c2f8ff"/><stop offset=".125" style="stop-color:#c8f9ff"/><stop offset="1" style="stop-color:#ebfcff"/></linearGradient><path d="M36.69 22.24c-.93.68-.36 2.28 1.05 1.94 1.94-.47.4-3-1.05-1.94z" style="fill:url(#n)"/><linearGradient id="o" x1="-257.418" x2="-257.418" y1="34.388" y2="32.224" gradientTransform="matrix(1 0 0 1.0362 304.276 2.605)" gradientUnits="userSpaceOnUse"><stop offset="0" style="stop-color:#c2f8ff"/><stop offset=".125" style="stop-color:#c8f9ff"/><stop offset="1" style="stop-color:#ebfcff"/></linearGradient><path d="M46.1 36.25c-.93.68-.36 2.28 1.05 1.94 1.94-.46.41-3-1.05-1.94z" style="fill:url(#o)"/><linearGradient id="p" x1="-278.084" x2="-278.084" y1="38.201" y2="36.037" gradientTransform="matrix(1 0 0 1.0362 304.276 2.605)" gradientUnits="userSpaceOnUse"><stop offset="0" style="stop-color:#c2f8ff"/><stop offset=".125" style="stop-color:#c8f9ff"/><stop offset="1" style="stop-color:#ebfcff"/></linearGradient><path d="M25.44 40.2c-.93.68-.36 2.28 1.05 1.94 1.94-.46.4-3-1.05-1.94z" style="fill:url(#p)"/><linearGradient id="q" x1="-253.366" x2="-253.366" y1="18.06" y2="15.896" gradientTransform="matrix(1 0 0 1.0362 304.276 2.605)" gradientUnits="userSpaceOnUse"><stop offset="0" style="stop-color:#c2f8ff"/><stop offset=".125" style="stop-color:#c8f9ff"/><stop offset="1" style="stop-color:#ebfcff"/></linearGradient><path d="M50.15 19.33c-.93.68-.36 2.28 1.05 1.94 1.94-.46.41-3-1.05-1.94z" style="fill:url(#q)"/><linearGradient id="r" x1="-274.627" x2="-274.627" y1="25.359" y2="23.195" gradientTransform="matrix(1 0 0 1.0362 304.276 2.605)" gradientUnits="userSpaceOnUse"><stop offset="0" style="stop-color:#c2f8ff"/><stop offset=".125" style="stop-color:#c8f9ff"/><stop offset="1" style="stop-color:#ebfcff"/></linearGradient><path d="M28.89 26.9c-.93.68-.36 2.28 1.05 1.94 1.94-.47.41-3.01-1.05-1.94z" style="fill:url(#r)"/><linearGradient id="s" x1="-284.906" x2="-284.906" y1="19.923" y2="17.759" gradientTransform="matrix(1 0 0 1.0362 304.276 2.605)" gradientUnits="userSpaceOnUse"><stop offset="0" style="stop-color:#c2f8ff"/><stop offset=".125" style="stop-color:#c8f9ff"/><stop offset="1" style="stop-color:#ebfcff"/></linearGradient><path d="M18.61 21.27c-.93.68-.36 2.28 1.05 1.94 1.94-.47.41-3.01-1.05-1.94z" style="fill:url(#s)"/><linearGradient id="t" x1="-261.175" x2="-261.175" y1="23.825" y2="22.507" gradientTransform="matrix(1 0 0 1.0362 304.276 2.605)" gradientUnits="userSpaceOnUse"><stop offset="0" style="stop-color:#c2f8ff"/><stop offset=".125" style="stop-color:#c8f9ff"/><stop offset="1" style="stop-color:#ebfcff"/></linearGradient><path d="M42.64 26.08c-.56.41-.22 1.39.64 1.18 1.18-.28.25-1.82-.64-1.18z" style="fill:url(#t)"/><linearGradient id="u" x1="-273.207" x2="-273.207" y1="20.159" y2="18.841" gradientTransform="matrix(1 0 0 1.0362 304.276 2.605)" gradientUnits="userSpaceOnUse"><stop offset="0" style="stop-color:#c2f8ff"/><stop offset=".125" style="stop-color:#c8f9ff"/><stop offset="1" style="stop-color:#ebfcff"/></linearGradient><path d="M30.61 22.29c-.56.41-.22 1.39.64 1.18 1.18-.29.25-1.83-.64-1.18z" style="fill:url(#u)"/><linearGradient id="v" x1="-289.246" x2="-289.246" y1="34.931" y2="33.614" gradientTransform="matrix(1 0 0 1.0362 304.276 2.605)" gradientUnits="userSpaceOnUse"><stop offset="0" style="stop-color:#c2f8ff"/><stop offset=".125" style="stop-color:#c8f9ff"/><stop offset="1" style="stop-color:#ebfcff"/></linearGradient><path d="M14.57 37.59c-.56.41-.22 1.39.64 1.18 1.18-.28.25-1.83-.64-1.18z" style="fill:url(#v)"/><linearGradient id="w" x1="-297.414" x2="-297.414" y1="33.41" y2="32.092" gradientTransform="matrix(1 0 0 1.0362 304.276 2.605)" gradientUnits="userSpaceOnUse"><stop offset="0" style="stop-color:#c2f8ff"/><stop offset=".125" style="stop-color:#c8f9ff"/><stop offset="1" style="stop-color:#ebfcff"/></linearGradient><path d="M6.4 36.02c-.56.41-.22 1.39.64 1.18 1.18-.29.25-1.83-.64-1.18z" style="fill:url(#w)"/><linearGradient id="x" x1="-267.57" x2="-267.57" y1="34.931" y2="33.614" gradientTransform="matrix(1 0 0 1.0362 304.276 2.605)" gradientUnits="userSpaceOnUse"><stop offset="0" style="stop-color:#c2f8ff"/><stop offset=".125" style="stop-color:#c8f9ff"/><stop offset="1" style="stop-color:#ebfcff"/></linearGradient><path d="M36.25 37.59c-.56.41-.22 1.39.64 1.18 1.18-.28.24-1.83-.64-1.18z" style="fill:url(#x)"/><linearGradient id="y" x1="-246.445" x2="-246.445" y1="34.931" y2="33.614" gradientTransform="matrix(1 0 0 1.0362 304.276 2.605)" gradientUnits="userSpaceOnUse"><stop offset="0" style="stop-color:#c2f8ff"/><stop offset=".125" style="stop-color:#c8f9ff"/><stop offset="1" style="stop-color:#ebfcff"/></linearGradient><path d="M57.37 37.59c-.56.41-.22 1.39.64 1.18 1.18-.28.25-1.83-.64-1.18z" style="fill:url(#y)"/><linearGradient id="z" x1="-250.55" x2="-250.55" y1="21.899" y2="20.582" gradientTransform="matrix(1 0 0 1.0362 304.276 2.605)" gradientUnits="userSpaceOnUse"><stop offset="0" style="stop-color:#c2f8ff"/><stop offset=".125" style="stop-color:#c8f9ff"/><stop offset="1" style="stop-color:#ebfcff"/></linearGradient><path d="M53.27 24.09c-.56.41-.22 1.39.64 1.18 1.18-.28.24-1.83-.64-1.18z" style="fill:url(#z)"/><linearGradient id="A" x1="-257.894" x2="-257.894" y1="19.783" y2="18.465" gradientTransform="matrix(1 0 0 1.0362 304.276 2.605)" gradientUnits="userSpaceOnUse"><stop offset="0" style="stop-color:#c2f8ff"/><stop offset=".125" style="stop-color:#c8f9ff"/><stop offset="1" style="stop-color:#ebfcff"/></linearGradient><path d="M45.92 21.9c-.56.41-.22 1.39.64 1.18 1.18-.29.25-1.83-.64-1.18z" style="fill:url(#A)"/><linearGradient id="B" x1="-280.299" x2="-280.299" y1="21.261" y2="19.943" gradientTransform="matrix(1 0 0 1.0362 304.276 2.605)" gradientUnits="userSpaceOnUse"><stop offset="0" style="stop-color:#c2f8ff"/><stop offset=".125" style="stop-color:#c8f9ff"/><stop offset="1" style="stop-color:#ebfcff"/></linearGradient><path d="M23.52 23.43c-.56.41-.22 1.39.64 1.18 1.18-.29.24-1.83-.64-1.18z" style="fill:url(#B)"/><linearGradient id="C" x1="-300.036" x2="-300.036" y1="27.023" y2="25.705" gradientTransform="matrix(1 0 0 1.0362 304.276 2.605)" gradientUnits="userSpaceOnUse"><stop offset="0" style="stop-color:#c2f8ff"/><stop offset=".125" style="stop-color:#c8f9ff"/><stop offset="1" style="stop-color:#ebfcff"/></linearGradient><path d="M3.78 29.4c-.56.41-.22 1.39.64 1.18 1.18-.29.25-1.83-.64-1.18z" style="fill:url(#C)"/></svg>