<svg xmlns="http://www.w3.org/2000/svg" xml:space="preserve" viewBox="0 0 64 64"><linearGradient id="a" x1="-62" x2="-62" y1="68" y2="8.001" gradientTransform="matrix(1 0 0 -1 94 70)" gradientUnits="userSpaceOnUse"><stop offset="0" style="stop-color:#00abf1"/><stop offset=".229" style="stop-color:#00a7ef"/><stop offset=".467" style="stop-color:#009ae9"/><stop offset=".708" style="stop-color:#0086e0"/><stop offset=".95" style="stop-color:#0069d3"/><stop offset="1" style="stop-color:#0062d0"/></linearGradient><path fill="url(#a)" d="M62 54c0 4.4-3.6 8-8 8H10c-4.399 0-8-3.6-8-8V10c0-4.4 3.601-8 8-8h44c4.4 0 8 3.6 8 8v44z"/><path fill="#FFF" d="M31.457 23.144c0 5.528 10.823 5.528 10.823 0v-5.512H31.457l-4.306 3.308h4.306v2.204zm10.822-6.617v-4.41H30.381l1.076 4.41zm-13.72 23.744 12.287-11.563H30.829l-.021.009c-.624-.005-1.278.232-1.864.833l-5.841 5.985-2.421-2.481c-2.487-2.548-6.198 1.254-3.711 3.801l4.253 4.357c.533.545 1.119.786 1.691.824a1.977 1.977 0 0 0 .379 0c.571-.038 1.158-.279 1.69-.824l3.576-3.664v2.723zM45.23 28.708 28.584 44.654h13.923v-7.521h.744V49.18c0 3.604 4.248 3.604 4.248 0V31.033c.001-1.279-1.02-2.325-2.269-2.325z"/><path fill="#FFF" d="M28.559 46.491h13.949v5.393H28.559zm-6.485-26.055v8.677l.424-.01c.623-.017 1.133-.552 1.133-1.19v-9.94c0-.638-.51-1.147-1.133-1.131l-6.407.167s3.12.679 4.159.908c1.311.287 1.824 1.049 1.824 2.519z"/><path fill="#FFF" d="M21.365 30.282v-9.94c0-.638-.489-1.309-1.086-1.491l-4.692-1.424c-.597-.181-1.086.193-1.086.831v9.939c0 .638.489 1.309 1.086 1.49l4.692 1.425c.597.181 1.086-.192 1.086-.83z"/></svg>