<svg xmlns="http://www.w3.org/2000/svg" xml:space="preserve" viewBox="0 0 64 64"><linearGradient id="a" x1="-62" x2="-62" y1="68" y2="8.001" gradientTransform="matrix(1 0 0 -1 94 70)" gradientUnits="userSpaceOnUse"><stop offset="0" style="stop-color:#00abf1"/><stop offset=".229" style="stop-color:#00a7ef"/><stop offset=".467" style="stop-color:#009ae9"/><stop offset=".708" style="stop-color:#0086e0"/><stop offset=".95" style="stop-color:#0069d3"/><stop offset="1" style="stop-color:#0062d0"/></linearGradient><path fill="url(#a)" d="M62 54c0 4.4-3.6 8-8 8H10c-4.399 0-8-3.6-8-8V10c0-4.4 3.601-8 8-8h44c4.4 0 8 3.6 8 8v44z"/><path fill="#FFF" d="M48.621 54H15.377C13.517 54 12 52.504 12 50.666V27.334C12 25.496 13.517 24 15.377 24h33.244C50.484 24 52 25.496 52 27.334v23.332C52 52.504 50.484 54 48.621 54zM15.377 26c-.76 0-1.377.6-1.377 1.334v23.332c0 .736.617 1.334 1.377 1.334h33.244c.76 0 1.379-.598 1.379-1.334V27.334C50 26.6 49.381 26 48.621 26H15.377z"/><path fill="#FFF" d="M47 34h-3v16h3a1 1 0 0 0 1-1V35a1 1 0 0 0-1-1zm-9 0v-4c0-1.104-.898-2-2-2h-8a2 2 0 0 0-2 2v4h-4v16h20V34h-4zm-2 0h-8v-4h8v4zm-19 0a1 1 0 0 0-1 1v14a1 1 0 0 0 1 1h3V34h-3zm26.73-21.644c-3.197-.016-9.926-.033-13.523-.051-.289-.001-.559-.403-.755-.703a6.068 6.068 0 0 0-5.125-2.881 5.927 5.927 0 0 0-5.969 5.969c.016 3.314 2.716 6.015 6.03 6.031a5.926 5.926 0 0 0 4.971-2.633c.443-.611.656-.948 1.062-.945.743.004.722.188 1.66.188.026 0 .032-.263.035-.577l1.075.006c.1.001.598-.639.662-.638l.76.003c.074 0 .793.646.926.646.154 0 .557-.412.631-.412l.721.003c.043 0 .271.28.42.28.158.001.793-.596.875-.595l.588.003c.068 0 .773.622.857.623.139.001.988-.495 1.059-.495l.533.003c.074-.001.646.384.752.385.133.001.602-.425.807-.454.061-.009.66.126.684.089.178-.281.449-.519.449-.519.803-.787 1.727-1.525 1.727-1.525l-1.912-1.801zm-21.94 3.706a1.37 1.37 0 0 1-1.359-1.359 1.336 1.336 0 0 1 1.346-1.346 1.37 1.37 0 0 1 1.359 1.359c.003.747-.6 1.349-1.346 1.346z"/></svg>