<svg xmlns="http://www.w3.org/2000/svg" xml:space="preserve" style="enable-background:new 0 0 64 64" viewBox="0 0 64 64"><linearGradient id="a" x1="6.205" x2="58.205" y1="48.99" y2="48.99" gradientUnits="userSpaceOnUse"><stop offset="0" style="stop-color:#b89470"/><stop offset=".051" style="stop-color:#c29c76"/><stop offset=".157" style="stop-color:#d0a87f"/><stop offset=".285" style="stop-color:#d8af84"/><stop offset=".5" style="stop-color:#dbb186"/><stop offset=".715" style="stop-color:#d8af84"/><stop offset=".844" style="stop-color:#d0a87f"/><stop offset=".95" style="stop-color:#c29c76"/><stop offset="1" style="stop-color:#b89470"/></linearGradient><path d="M56.582 60.179c-5.663.831-7.655 1.29-14.147 1.54-3.139-6.052-14.747-6.647-20.496-.003-6.526-.248-8.432-.703-14.125-1.54-1.364-.2-1.61-1.05-1.61-1.737V36.263h52v21.646c0 1.411-.265 2.07-1.622 2.27z" style="fill:url(#a)"/><linearGradient id="b" x1="32.205" x2="32.205" y1="56.163" y2="36.263" gradientUnits="userSpaceOnUse"><stop offset=".441" style="stop-color:#d9a45f;stop-opacity:0"/><stop offset=".522" style="stop-color:#c69556;stop-opacity:.156"/><stop offset=".688" style="stop-color:#936e3d;stop-opacity:.4738"/><stop offset=".91" style="stop-color:#473218;stop-opacity:.9"/></linearGradient><path d="M6.205 36.263h52v19.9h-52z" style="fill:url(#b)"/><linearGradient id="c" x1="1038.834" x2="1038.834" y1="482.514" y2="446.868" gradientTransform="matrix(.507 0 0 .6878 -494.502 -269.873)" gradientUnits="userSpaceOnUse"><stop offset=".456" style="stop-color:#a1816a"/><stop offset=".608" style="stop-color:#9f7f68"/><stop offset=".689" style="stop-color:#977862"/><stop offset=".752" style="stop-color:#896d58"/><stop offset=".807" style="stop-color:#765c49"/><stop offset=".841" style="stop-color:#664e3d"/></linearGradient><path d="M22.506 38.02s-.178 19.428-.567 23.696c0 .379 3.03.379 3.03 0 3.821-3.774 10.727-3.566 14.437.002 0 .376 3.03.376 3.03 0-.387-9.56-.71-23.698-.71-23.698h-19.22z" style="fill:url(#c)"/><linearGradient id="d" x1="1038.834" x2="1038.834" y1="482.104" y2="446.877" gradientTransform="matrix(.507 0 0 .6878 -494.502 -269.873)" gradientUnits="userSpaceOnUse"><stop offset="0" style="stop-color:#473218"/><stop offset="1" style="stop-color:#120c08"/></linearGradient><path d="M25.368 38.02s-.126 19.428-.4 23.696c5.989-.374 14.438.002 14.438.002-.272-9.56-.5-23.698-.5-23.698H25.368z" style="fill:url(#d)"/><linearGradient id="e" x1="2" x2="62" y1="34.029" y2="34.029" gradientUnits="userSpaceOnUse"><stop offset="0" style="stop-color:#664e3d"/><stop offset=".028" style="stop-color:#745a47"/><stop offset=".084" style="stop-color:#886b57"/><stop offset=".146" style="stop-color:#967862"/><stop offset=".223" style="stop-color:#9e7f68"/><stop offset=".349" style="stop-color:#a1816a"/><stop offset=".503" style="stop-color:#9b7c66"/><stop offset=".7" style="stop-color:#8b6e5a"/><stop offset=".92" style="stop-color:#715846"/><stop offset="1" style="stop-color:#664e3d"/></linearGradient><path d="M8.836 26.818c-4.738 4.953-6.414 8.768-6.784 10.694-.288 1.496.661 2.183 1.968 1.852.837.823 2.538.253 2.538.253s.823.515 2.84.461c.975.942 2.529.107 2.529.107s.858.747 2.731.593c.918.613 2.653-.205 2.653-.205s1.5.58 2.661.096c.933.483 2.027-.474 2.027-.474s1.197 1.064 2.858.402c.852 1.027 2.715-.22 2.715-.22s1.108.884 2.667.25c.722 1.14 2.11.115 2.11.115s2.078.804 2.745.076c1 .806 2.237-.417 2.237-.417s1.063 1.591 2.935.39c.736 1.037 2.574-.488 2.574-.488s.981 1.462 2.757.256c1.409.766 2.137-.306 2.137-.306s1.025.628 2.467 0c.978.538 2.2-.32 2.2-.32s1.853 1.497 3.033-.063c1.083 1.494 2.12-.096 2.12-.096s1.47.799 2.419-.355c1.442.704 2.3-.259 1.949-1.687-.535-2.177-3.506-6.854-7.037-10.914H8.836z" style="fill:url(#e)"/><path d="M31.632 40.35s.702-6.472.242-10.683c-.532 4.034-.242 10.684-.242 10.684zM4.098 38.465s-.45-5.334 5.318-9.888c-4.549 4.77-5.318 9.888-5.318 9.888zm2.524.597s-.63-5.315 4.98-10.072c-4.385 4.929-4.98 10.072-4.98 10.072zm2.654.652s-.898-5.274 4.464-10.322c-4.13 5.155-4.464 10.322-4.464 10.322zm2.571.136s-.732-4.008 3.647-9.968c-3.148 5.835-3.647 9.969-3.647 9.969zm2.716.5s-.666-3.58 2.872-10.1c-2.335 6.224-2.872 10.1-2.872 10.1zm2.559-.221s-.684-3.578 2.821-10.115c-2.303 6.235-2.821 10.115-2.821 10.115zm2.681.075s-.886-3.53 2.242-10.266c-1.946 6.362-2.242 10.266-2.242 10.266zM21.63 40s-.886-3.531 2.242-10.266c-1.945 6.361-2.242 10.265-2.242 10.265zm2.676.204s-1.104-3.465 1.597-10.391c-1.545 6.476-1.597 10.39-1.597 10.39zm2.641 0s-1.28-3.402 1.065-10.463c-1.213 6.55-1.066 10.463-1.066 10.463zm2.568.098s-1.216-2.388.359-9.67c-.505 6.646-.359 9.67-.359 9.67zm29.97-1.837s.45-5.334-5.318-9.888c4.549 4.77 5.318 9.888 5.318 9.888zm-2.525.597s.631-5.315-4.979-10.072c4.385 4.929 4.98 10.072 4.98 10.072zm-2.652.652s.898-5.274-4.464-10.322c4.13 5.155 4.464 10.322 4.464 10.322zm-2.572.136s.733-4.008-3.647-9.968c3.148 5.835 3.647 9.969 3.647 9.969zm-2.716.5s.666-3.58-2.871-10.1c2.334 6.224 2.871 10.1 2.871 10.1zm-2.559-.221s.684-3.578-2.82-10.115c2.303 6.235 2.82 10.115 2.82 10.115zm-2.681.075s.886-3.53-2.241-10.266c1.945 6.362 2.241 10.266 2.241 10.266zM41.953 40s.886-3.531-2.242-10.266c1.946 6.361 2.242 10.265 2.242 10.265zm-2.675.204s1.104-3.465-1.597-10.391c1.544 6.476 1.597 10.39 1.597 10.39zm-2.641 0s1.279-3.402-1.066-10.463c1.213 6.55 1.066 10.463 1.066 10.463zm-2.569.098s1.216-2.388-.359-9.67c.505 6.646.359 9.67.359 9.67z" style="opacity:.3;fill:#664e3d"/><linearGradient id="f" x1="4.659" x2="58.92" y1="27.115" y2="27.115" gradientUnits="userSpaceOnUse"><stop offset="0" style="stop-color:#664e3d"/><stop offset=".028" style="stop-color:#745a47"/><stop offset=".084" style="stop-color:#886b57"/><stop offset=".146" style="stop-color:#967862"/><stop offset=".223" style="stop-color:#9e7f68"/><stop offset=".349" style="stop-color:#a1816a"/><stop offset=".943" style="stop-color:#6b5341"/><stop offset="1" style="stop-color:#664e3d"/></linearGradient><path d="M12.681 21.227c-5.29 6.249-8.039 9.589-8.022 10.276.009.405 1.5.004 1.5.004s.874.535 1.997.281c.718.631 1.951-.028 1.951-.028s.707.395 2.44.354c.84.722 2.174.082 2.174.082s.737.572 2.347.454c.789.47 2.28-.157 2.28-.157s1.29.444 2.287.073c.801.37 1.74-.363 1.74-.363s1.03.816 2.457.309c.732.786 2.333-.17 2.333-.17s.952.678 2.292.193c.62.872 1.814.088 1.814.088s1.785.616 2.358.058c.86.617 1.922-.32 1.922-.32s.913 1.22 2.522.3c.632.794 2.213-.375 2.213-.375s.842 1.12 2.368.196c1.21.587 1.837-.234 1.837-.234s.88.481 2.12 0c.84.412 1.89-.246 1.89-.246s1.592 1.147 2.606-.048c.93 1.145 1.822-.073 1.822-.073s1.055.968 1.87.084c1.152.884 1.73-.066 1.73-.066s1.256.728 1.377.011c.253-1.488-3.056-4.23-7.816-10.684H12.68z" style="fill:url(#f)"/><path d="M31.76 32.217s.397-6.154.062-10.207c-.387 3.883-.062 10.207-.062 10.207zM6.362 30.868s2.516-4.563 6.74-8.61c-3.192 4.12-3.17 4.092-6.74 8.61zm1.775.469s2.27-4.697 6.273-8.975c-2.946 4.262-6.273 8.975-6.273 8.975zm2.249.172s2.038-4.809 5.826-9.288c-2.734 4.41-5.826 9.288-5.826 9.288zm2.264.245s1.723-4.936 5.214-9.664a1331.23 1331.23 0 0 1-5.214 9.664zm1.96.155s1.45-4.638 4.601-9.155c-2.155 4.343-4.602 9.154-4.602 9.154zm1.959.154s1.357-4.58 4.335-9.05a1256.41 1256.41 0 0 1-4.335 9.05zm1.969.163s1.272-4.67 4.132-9.251c-1.934 4.388-4.132 9.251-4.132 9.251zm2.324-.128s.898-4.412 3.429-8.888c-1.6 4.213-3.43 8.888-3.43 8.888zm2.171.149s.616-4.847 2.753-9.845c-1.28 4.666-2.753 9.845-2.753 9.845zm2.454.241s.261-4.624 1.903-9.514a1301.19 1301.19 0 0 1-1.903 9.514zm1.993-.416s.145-4.583 1.65-9.474c-.76 4.487-1.65 9.474-1.65 9.474zm2.114.152s-.137-4.555 1.157-9.521c-.526 4.508-1.157 9.521-1.157 9.521zm27.616-1.356s-2.517-4.563-6.74-8.61c3.19 4.12 3.17 4.092 6.74 8.61zm-1.776.469s-2.27-4.697-6.273-8.975a1295.93 1295.93 0 0 0 6.273 8.975zm-2.249.172s-2.038-4.809-5.826-9.288c2.734 4.41 5.826 9.288 5.826 9.288zm-2.264.245s-1.723-4.936-5.214-9.664a1331.23 1331.23 0 0 0 5.214 9.664zm-1.959.155s-1.45-4.638-4.602-9.155a1223.17 1223.17 0 0 0 4.602 9.154zm-1.96.154s-1.357-4.58-4.335-9.05c2.03 4.292 4.335 9.05 4.335 9.05zm-1.969.163s-1.272-4.67-4.132-9.251c1.934 4.388 4.132 9.251 4.132 9.251zm-2.323-.128s-.9-4.412-3.43-8.888c1.6 4.213 3.43 8.888 3.43 8.888zm-2.172.149s-.616-4.847-2.753-9.845c1.28 4.666 2.753 9.845 2.753 9.845zm-2.454.241s-.261-4.624-1.903-9.514c.88 4.507 1.903 9.514 1.903 9.514zm-1.994-.416s-.144-4.583-1.65-9.474c.761 4.487 1.65 9.474 1.65 9.474zm-2.113.152s.137-4.555-1.157-9.521c.526 4.508 1.157 9.521 1.157 9.521z" style="opacity:.3;fill:#664e3d"/><linearGradient id="g" x1="9.71" x2="53.868" y1="20.719" y2="20.719" gradientUnits="userSpaceOnUse"><stop offset="0" style="stop-color:#664e3d"/><stop offset=".028" style="stop-color:#745a47"/><stop offset=".084" style="stop-color:#886b57"/><stop offset=".146" style="stop-color:#967862"/><stop offset=".223" style="stop-color:#9e7f68"/><stop offset=".349" style="stop-color:#a1816a"/><stop offset=".503" style="stop-color:#9b7c66"/><stop offset=".7" style="stop-color:#8b6e5a"/><stop offset=".92" style="stop-color:#715846"/><stop offset="1" style="stop-color:#664e3d"/></linearGradient><path d="M46.778 15.928h-29.72c-4.745 5.167-7.362 7.92-7.348 8.46.007.303 1.22.004 1.22.004s.712.4 1.626.21c.585.47 1.588-.021 1.588-.021s.576.295 1.986.264c.682.539 1.769.061 1.769.061s.6.427 1.91.339c.642.35 1.855-.117 1.855-.117s1.05.331 1.861.054c.653.277 1.417-.27 1.417-.27s.838.608 2 .23c.595.587 1.898-.127 1.898-.127s.775.506 1.865.144c.505.651 1.476.066 1.476.066s1.453.46 1.919.043c.7.46 1.565-.238 1.565-.238s.743.91 2.052.223c.515.593 1.8-.28 1.8-.28s.686.836 1.928.147c.986.438 1.495-.175 1.495-.175s.717.359 1.725 0c.684.308 1.538-.184 1.538-.184s1.296.857 2.122-.035c.757.854 1.482-.055 1.482-.055s.858.723 1.522.063c.938.66 1.407-.05 1.407-.05s1.023.544 1.122.009c.216-1.17-2.896-3.372-7.08-8.765z" style="fill:url(#g)"/><path d="M31.634 24.837s.673-6.577.254-9.571c-.484 2.868-.254 9.571-.254 9.571zm-19.841-1.26s2.868-5.422 7.916-9.058c-3.856 3.75-7.916 9.058-7.916 9.058zm1.927.545s2.6-5.564 7.466-9.458c-3.669 3.946-7.465 9.458-7.465 9.458zm2.141.407s2.274-5.715 6.906-9.901c-3.434 4.164-6.906 9.9-6.906 9.9zm2.009-.149s2.222-5.737 6.817-9.968c-3.398 4.198-6.817 9.967-6.817 9.967zm1.895.351s1.646-5.149 5.417-9.102c-2.737 3.86-5.416 9.102-5.416 9.102zm2.54-.317s1.163-5.027 4.454-9.104c-2.309 3.9-4.454 9.104-4.454 9.104zm2.097.196s.785-5.077 3.953-9.405c-2.126 4.065-3.953 9.405-3.953 9.405zm2.183.2s.793-4.835 2.9-9.806c-1.153 4.464-2.9 9.807-2.9 9.807zm2.782-.119s-.009-4.905 1.257-10.172c-.408 4.602-1.257 10.172-1.257 10.172zm22.415-1.088s-2.867-5.422-7.916-9.058c3.856 3.75 7.916 9.058 7.916 9.058zm-1.927.545s-2.6-5.564-7.466-9.457c3.67 3.945 7.466 9.457 7.466 9.457zm-2.141.407s-2.274-5.714-6.906-9.901c3.435 4.165 6.906 9.9 6.906 9.9zm-2.009-.15s-2.222-5.736-6.816-9.967c3.397 4.198 6.816 9.967 6.816 9.967zm-1.895.353s-1.646-5.15-5.417-9.103c2.737 3.861 5.417 9.103 5.417 9.103zm-2.54-.318s-1.163-5.027-4.454-9.104c2.31 3.9 4.454 9.104 4.454 9.104zm-2.097.197s-.784-5.078-3.953-9.406c2.126 4.065 3.953 9.406 3.953 9.406zm-2.183.2s-.792-4.836-2.9-9.806c1.153 4.464 2.9 9.806 2.9 9.806zm-2.782-.12s.009-4.904-1.257-10.171c.408 4.6 1.257 10.171 1.257 10.171z" style="opacity:.3;fill:#664e3d"/><linearGradient id="h" x1="16.232" x2="47.815" y1="14.057" y2="14.057" gradientUnits="userSpaceOnUse"><stop offset="0" style="stop-color:#664e3d"/><stop offset=".028" style="stop-color:#745a47"/><stop offset=".084" style="stop-color:#886b57"/><stop offset=".146" style="stop-color:#967862"/><stop offset=".223" style="stop-color:#9e7f68"/><stop offset=".349" style="stop-color:#a1816a"/><stop offset=".943" style="stop-color:#6b5341"/><stop offset="1" style="stop-color:#664e3d"/></linearGradient><path d="M41.29 10.008H22.906c-3.66 3.367-6.266 5.817-6.639 6.452-.247.421.859.004.859.004s.195.56.994.291c.074.678 1.148-.03 1.148-.03s.215.42 1.255.376c.167.799 1.245.088 1.245.088s.205.634 1.221.5c.307.538 1.42-.175 1.42-.175s.644.501 1.346.082c.392.42 1.12-.399 1.12-.399s.454.913 1.403.338c.33.902 1.41-.186 1.41-.186s.517.762 1.354.212c.35 1.006 1.085.098 1.085.098s1.104.708 1.42.066c.571.712 1.122-.355 1.122-.355s.71 1.405 1.55.331c.535.923 1.246-.414 1.246-.414s.782 1.278 1.458.216c.91.665 1.021-.257 1.021-.257s.688.533 1.254 0c.66.455 1.016-.264 1.016-.264s1.467 1.28 1.504-.052c1.13 1.273 1.027-.077 1.027-.077s1.15 1.062 1.137.09c1.205.972.972-.071.972-.071s1.273.614.887-.166c-.636-1.286-3.267-3.562-6.453-6.698z" style="fill:url(#h)"/><path d="M31.928 17.42s.288-5.679-.005-7.728c-.29 1.954.005 7.727.005 7.727zm-14.371-1.492s3.43-4.355 7.169-6.236c-3.203 2.315-7.17 6.236-7.17 6.236zm.762.622s3.18-4.548 6.805-6.645c-3.066 2.499-6.805 6.646-6.805 6.646zm3.561.437s2.043-4.594 4.7-6.987c-2.17 2.691-4.7 6.987-4.7 6.987zm-1.743-.201s2.494-4.357 5.377-6.46c-2.43 2.45-5.377 6.46-5.377 6.46zm3.191.461s1.734-4.542 4.31-7.083c-2.038 2.768-4.31 7.083-4.31 7.083zm1.952.263s1.047-4.63 3.228-7.48c-1.613 2.981-3.228 7.48-3.228 7.48zm1.906-.09s.607-4.715 2.364-7.747c-1.236 3.114-2.364 7.746-2.364 7.746zm3.177-.068s.061-4.695 1.285-7.908c-.764 3.22-1.285 7.908-1.285 7.908zm-1.572-.231s.411-4.677 1.87-7.786c-1.001 3.151-1.87 7.786-1.87 7.786zm17.502-1.193s-3.431-4.355-7.17-6.236c3.203 2.315 7.17 6.236 7.17 6.236zm-.763.622s-3.179-4.548-6.805-6.645c3.067 2.499 6.806 6.646 6.806 6.646zm-3.56.437s-2.043-4.594-4.7-6.987c2.17 2.691 4.7 6.987 4.7 6.987zm1.743-.201s-2.495-4.357-5.378-6.46c2.43 2.45 5.378 6.46 5.378 6.46zm-3.192.461s-1.734-4.542-4.31-7.083c2.038 2.768 4.31 7.083 4.31 7.083zm-1.951.263s-1.048-4.63-3.229-7.48c1.614 2.981 3.229 7.48 3.229 7.48zm-1.907-.09s-.606-4.715-2.363-7.747c1.236 3.114 2.364 7.746 2.364 7.746zm-3.177-.068s-.06-4.695-1.285-7.908c.765 3.22 1.285 7.908 1.285 7.908zm1.573-.231s-.411-4.677-1.871-7.786c1.002 3.151 1.87 7.786 1.87 7.786z" style="opacity:.3;fill:#664e3d"/><linearGradient id="i" x1="20.925" x2="43.035" y1="7.372" y2="7.372" gradientUnits="userSpaceOnUse"><stop offset="0" style="stop-color:#664e3d"/><stop offset=".028" style="stop-color:#745a47"/><stop offset=".084" style="stop-color:#886b57"/><stop offset=".146" style="stop-color:#967862"/><stop offset=".223" style="stop-color:#9e7f68"/><stop offset=".349" style="stop-color:#a1816a"/><stop offset=".503" style="stop-color:#9b7c66"/><stop offset=".7" style="stop-color:#8b6e5a"/><stop offset=".92" style="stop-color:#715846"/><stop offset="1" style="stop-color:#664e3d"/></linearGradient><path d="M42.896 11.337C41.579 9.662 33.39 2 32.35 2c-.99 0-10.282 8.03-11.301 9.399-.512.688.719.31.719.31s.213.32.834.074c.11.577 1.231-.113 1.231-.113s-.008.763.767.332c.129.722 1.409-.253 1.409-.253s-.045.807.933.348c.006.985 1.113-.168 1.113-.168s.438.845 1.247.308c.16 1.002 1.422-.369 1.422-.369s.355.99 1.203.425c.621 1.002 1.366-.286 1.366-.286s.934 1.16 1.413.426c.7.772 1.543-.286 1.543-.286s.184.863 1.105.318c.9.74 1.116-.233 1.116-.233s.866.433 1.099.022c.958.394 1.247-.291 1.247-.291s.8.783.867-.05c.732.452.707-.292.707-.292s1.005.351.505-.284z" style="fill:url(#i)"/><path d="M32.35 2s-5.347 4.64-9.238 9.368C27.266 6.988 32.35 2 32.35 2zm0 0s-3.722 4.52-5.83 9.604C28.49 7.596 32.35 2 32.35 2zm0 0s-2.138 4.904-2.83 9.716C30.494 8.056 32.35 2 32.35 2zm0 0s-1.4 6.142-1.441 9.665C31.696 6.985 32.35 2 32.35 2z" style="opacity:.3;fill:#664e3d"/><path d="M32.35 2s-5.946 4.135-9.863 8.84C26.665 6.485 32.351 2 32.351 2z" style="opacity:.3;fill:#664e3d"/><path d="M32.35 2s-4.833 4.954-7.745 9.604C27.205 7.991 32.351 2 32.351 2z" style="opacity:.3;fill:#664e3d"/><path d="M32.35 2s-3.16 4.788-4.255 9.521C29.373 7.961 32.35 2 32.35 2zm0 0s-.198 5.727-.317 9.915c.603-4.03.318-9.915.318-9.915z" style="opacity:.3;fill:#664e3d"/><path d="M32.35 2s5.105 4.64 8.996 9.368C37.192 6.988 32.35 2 32.35 2zm0 0s3.48 4.52 5.588 9.604C35.968 7.596 32.35 2 32.35 2zm0 0s1.895 4.904 2.588 9.716L32.35 2zm0 0s1.158 6.142 1.199 9.665C32.762 6.985 32.35 2 32.35 2z" style="opacity:.3;fill:#664e3d"/><path d="M32.35 2s5.704 4.135 9.62 8.84C37.792 6.485 32.35 2 32.35 2z" style="opacity:.3;fill:#664e3d"/><path d="M32.35 2s4.591 4.954 7.502 9.604C37.252 7.991 32.351 2 32.351 2z" style="opacity:.3;fill:#664e3d"/><path d="M32.35 2s2.918 4.788 4.013 9.521C35.084 7.961 32.351 2 32.351 2z" style="opacity:.3;fill:#664e3d"/></svg>