<svg xmlns="http://www.w3.org/2000/svg" xml:space="preserve" viewBox="0 0 64 64"><linearGradient id="a" x1="-62" x2="-62" y1="9" y2="67.001" gradientTransform="matrix(1 0 0 -1 94 70)" gradientUnits="userSpaceOnUse"><stop offset="0" style="stop-color:#d3d9de"/><stop offset=".127" style="stop-color:#d9dee3"/><stop offset=".643" style="stop-color:#ecf0f4"/><stop offset="1" style="stop-color:#f3f7fa"/></linearGradient><path fill="url(#a)" d="M61 43.045c0 .531-.308 1.274-.684 1.65L44.695 60.316c-.376.376-1.119.684-1.65.684h-22.09c-.531 0-1.274-.308-1.65-.684L3.684 44.695C3.308 44.319 3 43.576 3 43.045V20.956c0-.531.308-1.274.684-1.65L19.305 3.684c.376-.376 1.119-.684 1.65-.684h22.09c.531 0 1.274.308 1.65.684l15.621 15.622c.376.376.684 1.119.684 1.65v22.089z"/><linearGradient id="b" x1="-62" x2="-62" y1="12" y2="64.001" gradientTransform="matrix(1 0 0 -1 94 70)" gradientUnits="userSpaceOnUse"><stop offset="0" style="stop-color:#c90100"/><stop offset="1" style="stop-color:#ff4a4a"/></linearGradient><path fill="url(#b)" d="M58 41.84c0 .51-.296 1.224-.656 1.584l-13.917 13.92c-.362.361-1.075.656-1.585.656H22.159c-.511 0-1.224-.295-1.585-.656L6.656 43.424C6.296 43.063 6 42.35 6 41.84V22.16c0-.511.296-1.225.656-1.585L20.574 6.656C20.936 6.295 21.648 6 22.159 6h19.683c.51 0 1.224.295 1.585.656l13.917 13.918c.36.361.656 1.075.656 1.586v19.68z"/></svg>