<svg xmlns="http://www.w3.org/2000/svg" xml:space="preserve" style="enable-background:new 0 0 64 64" viewBox="0 0 64 64"><linearGradient id="a" x1="32" x2="32" y1="2" y2="62" gradientUnits="userSpaceOnUse"><stop offset="0" style="stop-color:#00abf1"/><stop offset=".229" style="stop-color:#00a7ef"/><stop offset=".467" style="stop-color:#009ae9"/><stop offset=".708" style="stop-color:#0086e0"/><stop offset=".95" style="stop-color:#0069d3"/><stop offset="1" style="stop-color:#0062d0"/></linearGradient><path d="M62 54c0 4.4-3.6 8-8 8H10c-4.4 0-8-3.6-8-8V10c0-4.4 3.6-8 8-8h44c4.4 0 8 3.6 8 8v44z" style="fill:url(#a)"/><path d="m13.25 27.981 4.167 4.167c8.054-8.054 21.112-8.054 29.166 0l4.167-4.167c-10.355-10.355-27.145-10.355-37.5 0z" style="fill:#fff"/><path d="m19.5 34.231 4.167 4.167c4.602-4.602 12.064-4.602 16.666 0l4.167-4.167c-6.904-6.903-18.096-6.903-25 0zM7 21.731l4.167 4.167c11.506-11.506 30.16-11.506 41.666 0L57 21.731c-13.807-13.807-36.193-13.807-50 0z" style="fill:#fff"/><circle cx="32" cy="46.731" r="5.893" style="fill:#fff"/></svg>