<svg xmlns="http://www.w3.org/2000/svg" xml:space="preserve" viewBox="0 0 64 64"><linearGradient id="a" x1="-62" x2="-62" y1="68" y2="8.001" gradientTransform="matrix(1 0 0 -1 94 70)" gradientUnits="userSpaceOnUse"><stop offset="0" style="stop-color:#00abf1"/><stop offset=".229" style="stop-color:#00a7ef"/><stop offset=".467" style="stop-color:#009ae9"/><stop offset=".708" style="stop-color:#0086e0"/><stop offset=".95" style="stop-color:#0069d3"/><stop offset="1" style="stop-color:#0062d0"/></linearGradient><path fill="url(#a)" d="M62 54c0 4.4-3.6 8-8 8H10c-4.4 0-8-3.6-8-8V10c0-4.4 3.6-8 8-8h44c4.4 0 8 3.6 8 8v44z"/><path fill="#FFF" d="M31 12.152 24.568 6l-6.43 6.152h4.364v6.515h4.134v-6.515zm2 .363 6.432 6.152 6.431-6.152h-4.365V6h-4.135v6.515zm12.564 13.152a4.237 4.237 0 0 1 4.232 4.234v18.084a4.237 4.237 0 0 1-4.232 4.234H18.437a4.238 4.238 0 0 1-4.234-4.234V29.901a4.239 4.239 0 0 1 4.234-4.234h27.127m0-3H18.437c-3.979 0-7.234 3.255-7.234 7.234v18.084c0 3.979 3.255 7.234 7.234 7.234h27.128c3.979 0 7.232-3.255 7.232-7.234V29.901c0-3.979-3.254-7.234-7.233-7.234z"/><path fill="#FFF" d="M23.434 32.682h-3.473c-.869 0-2.171.595-2.171 1.736v5.831c0 .908 1.302.908 1.302 0v-4.528h.435v13.036c0 1.142 1.953 1.142 1.953 0v-8.26h.435v8.26c0 1.142 1.954 1.142 1.954 0V35.721h.434v4.528c0 .908 1.303.908 1.303 0v-5.831c-.002-1.142-1.304-1.736-2.172-1.736z"/><circle cx="21.697" cy="29.953" r="2.233" fill="#FFF"/><circle cx="42.303" cy="29.953" r="2.233" fill="#FFF"/><path fill="#FFF" d="M46.236 39.524c.311.853 1.535.406 1.225-.445l-1.76-4.836c-.443-1.219-1.334-1.562-2.158-1.562h-2.48c-.826 0-1.715.343-2.158 1.562l-1.76 4.836c-.311.853.912 1.299 1.223.445l1.385-3.805h.379l-2.48 7.753h2.48v5.284c0 1.142 1.955 1.142 1.955 0v-5.284h.434v5.284c0 1.142 1.953 1.142 1.953 0v-5.284h2.482l-2.482-7.753h.381l1.381 3.805z"/><circle cx="32" cy="29.953" r="2.233" fill="#FFF"/><path fill="#FFF" d="M28.065 39.524c-.311.853-1.535.406-1.224-.445l1.76-4.836c.444-1.219 1.333-1.562 2.158-1.562h2.977c.869 0 2.17.595 2.17 1.736v5.831c0 .908-1.301.908-1.301 0V35.72h-.435v13.036c0 1.142-1.953 1.142-1.953 0v-5.291l-.001.007h-.435v5.284c0 1.142-1.953 1.142-1.953 0v-5.284h-2.48l2.48-7.753h-.378l-1.385 3.805z"/></svg>