<svg xmlns="http://www.w3.org/2000/svg" xml:space="preserve" style="enable-background:new 0 0 64 64" viewBox="0 0 64 64"><linearGradient id="a" x1="11.505" x2="31.509" y1="54.743" y2="34.739" gradientUnits="userSpaceOnUse"><stop offset="0" style="stop-color:#849599"/><stop offset="1" style="stop-color:#bfd1db"/></linearGradient><path d="m20.488 30.288-2.544 30.894h2.594l2.544-30.894z" style="fill:url(#a)"/><linearGradient id="b" x1="14.027" x2="14.027" y1="23.731" y2="21.908" gradientUnits="userSpaceOnUse"><stop offset="0" style="stop-color:#849599"/><stop offset=".231" style="stop-color:#8c9da2"/><stop offset=".609" style="stop-color:#a2b4bb"/><stop offset="1" style="stop-color:#bfd1db"/></linearGradient><path d="M21.57 23.73H6.035v-1.822H21.57c.6 0 .6 1.823 0 1.823z" style="fill:url(#b)"/><linearGradient id="c" x1="13.198" x2="13.198" y1="32.524" y2="30.701" gradientUnits="userSpaceOnUse"><stop offset="0" style="stop-color:#849599"/><stop offset=".231" style="stop-color:#8c9da2"/><stop offset=".609" style="stop-color:#a2b4bb"/><stop offset="1" style="stop-color:#bfd1db"/></linearGradient><path d="M21.202 32.524H4.744V30.7h16.458c.6 0 .6 1.823 0 1.823z" style="fill:url(#c)"/><linearGradient id="d" x1="12.761" x2="12.761" y1="41.317" y2="39.494" gradientUnits="userSpaceOnUse"><stop offset="0" style="stop-color:#849599"/><stop offset=".231" style="stop-color:#8c9da2"/><stop offset=".609" style="stop-color:#a2b4bb"/><stop offset="1" style="stop-color:#bfd1db"/></linearGradient><path d="M20.766 41.317H4.307v-1.823h16.459c.6 0 .6 1.823 0 1.823z" style="fill:url(#d)"/><linearGradient id="e" x1="12.004" x2="12.004" y1="50.11" y2="48.287" gradientUnits="userSpaceOnUse"><stop offset="0" style="stop-color:#849599"/><stop offset=".231" style="stop-color:#8c9da2"/><stop offset=".609" style="stop-color:#a2b4bb"/><stop offset="1" style="stop-color:#bfd1db"/></linearGradient><path d="M20.008 50.11H3.549v-1.823h16.459c.6 0 .6 1.823 0 1.823z" style="fill:url(#e)"/><linearGradient id="f" x1="11.177" x2="11.177" y1="58.903" y2="57.08" gradientUnits="userSpaceOnUse"><stop offset="0" style="stop-color:#849599"/><stop offset=".231" style="stop-color:#8c9da2"/><stop offset=".609" style="stop-color:#a2b4bb"/><stop offset="1" style="stop-color:#bfd1db"/></linearGradient><path d="M19.181 58.903H2.723V57.08H19.18c.6 0 .6 1.823 0 1.823z" style="fill:url(#f)"/><linearGradient id="g" x1="42.262" x2="42.262" y1="62" y2="10.928" gradientUnits="userSpaceOnUse"><stop offset="0" style="stop-color:#3ab0a2"/><stop offset="1" style="stop-color:#28edd5"/></linearGradient><path d="M22.523 11.063C25.544 25.595 32.304 62 58.815 62h2.69c1.344 0 .073-6.301-5.308-9.131-22.588-11.878-13.02-33.424-29.45-41.275-1.88-.898-4.016-.676-4.224-.531z" style="fill:url(#g)"/><path d="M55.1 53.515c-22.716-10.68-14.078-38.273-32.577-42.452l-.298 2.936C19.265 36.703 30.792 62 59.877 62c1.344 0-.825-6.627-4.777-8.485z" style="fill:#3ab0a2"/><linearGradient id="h" x1="37.876" x2="37.876" y1="62" y2="13.304" gradientUnits="userSpaceOnUse"><stop offset="0" style="stop-color:#bfd1db"/><stop offset=".034" style="stop-color:#baccd5"/><stop offset=".3" style="stop-color:#93a4aa"/><stop offset=".435" style="stop-color:#849599"/><stop offset=".527" style="stop-color:#8d9ea3"/><stop offset=".681" style="stop-color:#a4b6bd"/><stop offset=".823" style="stop-color:#bfd1db"/><stop offset=".862" style="stop-color:#b8cad3"/><stop offset=".924" style="stop-color:#a4b6bd"/><stop offset=".999" style="stop-color:#849599"/><stop offset="1" style="stop-color:#849599"/></linearGradient><path d="M48.873 62h11.004c.138-1.208-2.523-4.295-6.21-5.916-27.36-12.029-15.4-43.095-37.791-42.778C15.486 21.264 34.76 62 48.873 62z" style="fill:url(#h)"/><linearGradient id="i" x1="27.986" x2="27.986" y1="62" y2="9.473" gradientUnits="userSpaceOnUse"><stop offset="0" style="stop-color:#3ab0a2"/><stop offset="1" style="stop-color:#28edd5"/></linearGradient><path d="M6.735 9.529C24.675 25.297 20.531 62 45.76 62h3.114c1.344 0-1.177-6.473-5.078-8.433-22.928-11.518-14.87-37.082-33.217-43.73-.643-.234-3.002-.477-3.843-.308z" style="fill:url(#i)"/><path d="M6.035 19.025C22.236 21.95 16.674 62 45.759 62c1.344 0 .06-5.633-3.892-7.49C19.15 43.828 26.409 14.554 6.735 9.528l-.7 9.496z" style="fill:#3ab0a2"/><linearGradient id="j" x1="10.53" x2="12.03" y1="22.452" y2="2.452" gradientUnits="userSpaceOnUse"><stop offset="0" style="stop-color:#849599"/><stop offset="1" style="stop-color:#bfd1db"/></linearGradient><path d="m12.54 2.143-2.148-.136a3.53 3.53 0 0 0-3.738 3.23L2 62h2.594l3.444-42.384s-.744-.46-1.909-.684l.771-9.36 1.97-.043.31-3.957a1.255 1.255 0 0 1 1.354-1.15l1.905.158a2.387 2.387 0 0 1 2.188 2.498l-.258 5.316c-.045.493 2.247 2.926 2.323 2.07l.363-7.271a4.818 4.818 0 0 0-4.515-5.05z" style="fill:url(#j)"/><linearGradient id="k" x1="22.589" x2="31.801" y1="14.964" y2="5.753" gradientUnits="userSpaceOnUse"><stop offset="0" style="stop-color:#849599"/><stop offset="1" style="stop-color:#bfd1db"/></linearGradient><path d="M32.108 8.4c.123-2.638-1.759-4.89-4.22-5.051l-2.008-.135c-1.793-.121-3.346 1.315-3.495 3.23l-.61 7.706.509.186.346-3.249 1.807-.117.31-4.191c.052-.693.619-1.208 1.265-1.15l1.781.157c1.2.106 2.104 1.21 2.046 2.498l-.242 5.317c-.041.493 2.1 2.925 2.172 2.07l.34-7.272z" style="fill:url(#k)"/></svg>