<svg xmlns="http://www.w3.org/2000/svg" xml:space="preserve" style="enable-background:new 0 0 64 64" viewBox="0 0 64 64"><path d="M7.785 56.34a3.78 3.78 0 0 1 3.785-3.772 3.778 3.778 0 0 1 3.785 3.772 3.778 3.778 0 0 1-3.785 3.773 3.78 3.78 0 0 1-3.785-3.773z" style="fill:#525557"/><path d="M10.303 52.418c1.21 1.207 2.806 3.776 2.199 4.379-.606.606-3.184-.984-4.395-2.193-2.01-2.002.186-4.188 2.196-2.186z" style="fill:#6e8189"/><path d="M11.57 51.326c0 .78-1.271 1.414-2.84 1.414-1.566 0-2.837-.634-2.837-1.414 0-.78 1.271-1.416 2.837-1.416 1.569 0 2.84.635 2.84 1.416z" style="fill:#6e8189"/><path d="M46.701 56.34a3.78 3.78 0 0 1 3.785-3.772 3.778 3.778 0 0 1 3.786 3.772 3.778 3.778 0 0 1-3.786 3.773 3.78 3.78 0 0 1-3.785-3.773z" style="fill:#525557"/><path d="M49.219 52.418c1.21 1.207 2.806 3.776 2.2 4.379-.606.606-3.185-.984-4.396-2.193-2.01-2.002.186-4.188 2.196-2.186z" style="fill:#6e8189"/><path d="M44.809 51.326c0 .78 1.27 1.414 2.838 1.414 1.57 0 2.84-.634 2.84-1.414 0-.78-1.27-1.416-2.84-1.416-1.569 0-2.838.635-2.838 1.416z" style="fill:#6e8189"/><path d="m33.799 38.688-.81-.485L51.997 6.528l1.197-.13z" style="fill:#b3c2c6"/><path d="M35.373 38.18a.975.975 0 0 1-1.951 0 .975.975 0 0 1 1.951 0z" style="fill:#b3c2c6"/><path d="M49.066 48.496h-.015l-20.82.63a.48.48 0 0 0-.28.1l-1.89 1.493a.457.457 0 0 0-.141.205h1.406l1.092-.86 20.662-.624a.471.471 0 0 0-.014-.943zm-8.517-2.828h-2.365a2.365 2.365 0 0 1-2.366-2.36v-2.396l-9.98-.904a.476.476 0 0 1-.43-.514.473.473 0 0 1 .516-.425l10.41.941c.242.024.43.227.43.47v2.829a1.42 1.42 0 0 0 1.42 1.416h2.365a.471.471 0 1 1 0 .943z" style="fill:#99a8ae"/><path d="m49.053 46.61-21.768.628a.504.504 0 0 0-.256.084l-2.728 1.89-12.166.542a.467.467 0 0 0-.238.078l-1.791 1.19h1.707l.498-.332 12.173-.545a.48.48 0 0 0 .246-.082l2.725-1.885 21.625-.625a.473.473 0 0 0 .46-.484.483.483 0 0 0-.487-.46z" style="fill:#99a8ae"/><path d="M7.426 53.211a.472.472 0 0 1-.262-.863l1.893-1.258a.477.477 0 0 1 .255-.08l39.747-.627a.457.457 0 0 1 .48.463.473.473 0 0 1-.465.48l-39.607.625-1.778 1.182a.483.483 0 0 1-.263.078z" style="fill:#99a8ae"/><path d="M49.066 46.131v6.363h.948v-6.363a2.36 2.36 0 0 0-.33-1.2l-1.444-2.433a3.97 3.97 0 0 0-3.04-1.93l-5.882-.54a1.418 1.418 0 0 0-1.347.68 1.4 1.4 0 0 0 .031 1.505l2.103 3.19c.153.232.233.5.233.777v6.56a.471.471 0 0 0 .945 0v-6.56c0-.461-.133-.908-.387-1.295l-2.103-3.19a.463.463 0 0 1-.01-.501.455.455 0 0 1 .45-.227l5.878.541c.955.086 1.82.637 2.315 1.47l1.443 2.434c.129.217.197.465.197.719z" style="fill:#99a8ae"/><path d="M48.371 31.522s-1.635-.088-39.55-1.68c-2.25-.094-3.282-1.933-3.288-3.602-.006-1.877 1.197-3.834 3.514-3.949 28.326-1.385 41.888-2.086 41.888-2.086a.46.46 0 0 1 .497.448.473.473 0 0 1-.45.496s-13.56.699-41.89 2.086c-1.801.087-2.617 1.617-2.612 3.002.004 1.183.631 2.59 2.381 2.664 19.754.828 39.746 1.668 39.746 1.668l-.236.953z" style="fill:#b3c2c6"/><path d="M49.54 53.211H6.952a.471.471 0 1 1 0-.943H49.54c.262 0 .475.21.475.472 0 .26-.213.471-.475.471z" style="fill:#99a8ae"/><path d="M-.743 26.194h21.552v.946H-.743z" style="fill:#99a8ae" transform="rotate(-85.383 10.032 26.666)"/><path d="M6.641 25.943h23.325v.946H6.641z" style="fill:#99a8ae" transform="rotate(-83.846 18.304 26.417)"/><path d="M14.266 25.759h25.203v.947H14.266z" style="fill:#99a8ae" transform="rotate(-81.593 26.868 26.234)"/><path d="M18.072 25.601h26.392v.946H18.072z" style="fill:#99a8ae" transform="rotate(-80.503 31.268 26.073)"/><path d="M25.887 25.36h28.889v.947H25.887z" style="fill:#99a8ae" transform="rotate(-77.743 40.332 25.833)"/><path d="M30.014 25.123H59.88v.948H30.014z" style="fill:#99a8ae" transform="rotate(-76.538 44.946 25.599)"/><path d="M21.926 25.453h27.637v.946H21.926z" style="fill:#99a8ae" transform="rotate(-79.298 35.745 25.927)"/><path d="m21.479 38.4-.94-.118 3.088-24.07.938.119z" style="fill:#99a8ae"/><path d="M2.896 26.046h22.457v.947H2.896z" style="fill:#99a8ae" transform="rotate(-84.675 14.125 26.519)"/><path d="M46.37 40.951c-.016 0-.03 0-.044-.002L6.338 37.456c-.746-.064-1.307-.681-1.276-1.406l.764-18.709c.027-.66.535-1.203 1.211-1.293l46.7-6.21a.472.472 0 0 1 .521.58l-7.432 30.175a.47.47 0 0 1-.457.36zM6.771 17.377l-.764 18.71c-.01.22.17.407.412.429l39.584 3.46 7.17-29.114L7.162 16.98c-.219.03-.383.197-.39.396z" style="fill:#b3c2c6"/><path d="m54.17 10.776 1.508-5.92-.918-.232-1.565 6.152z" style="fill:#b3c2c6"/><path d="M58.642 2.038c-3.519.882-6.644 4.49-6.644 4.49l3.082.683s1.225-1.431 4.105-2.699c1.397-.615.854-2.826-.543-2.474z" style="fill:#e81c27"/><radialGradient id="a" cx="496.468" cy="58.228" r="3.772" gradientTransform="matrix(-1.0035 0 0 1 507.883 0)" gradientUnits="userSpaceOnUse"><stop offset=".38" style="stop-color:#525557"/><stop offset=".455" style="stop-color:#595c5e"/><stop offset=".614" style="stop-color:#606365"/><stop offset="1" style="stop-color:#626567"/></radialGradient><path d="M5.893 58.227a3.78 3.78 0 0 1 3.785-3.772 3.778 3.778 0 0 1 3.785 3.772A3.778 3.778 0 0 1 9.678 62a3.78 3.78 0 0 1-3.785-3.773z" style="fill:url(#a)"/><path d="M8.41 54.303c1.211 1.207 2.807 3.777 2.2 4.38-.606.604-3.184-.984-4.397-2.193-2.008-2.002.187-4.19 2.197-2.187z" style="fill:#99a8ae"/><linearGradient id="b" x1="6.839" x2="6.839" y1="51.797" y2="54.627" gradientUnits="userSpaceOnUse"><stop offset="0" style="stop-color:#b3c2c6"/><stop offset=".213" style="stop-color:#aebdc1"/><stop offset=".479" style="stop-color:#a0adb2"/><stop offset=".771" style="stop-color:#889499"/><stop offset="1" style="stop-color:#717b80"/></linearGradient><path d="M9.678 53.211c0 .781-1.272 1.416-2.838 1.416-1.569 0-2.84-.635-2.84-1.416 0-.781 1.272-1.414 2.84-1.414 1.566 0 2.838.633 2.838 1.414z" style="fill:url(#b)"/><radialGradient id="c" cx="52.982" cy="58.228" r="3.772" gradientTransform="matrix(1.0035 0 0 1 -.788 0)" gradientUnits="userSpaceOnUse"><stop offset=".38" style="stop-color:#525557"/><stop offset=".455" style="stop-color:#595c5e"/><stop offset=".614" style="stop-color:#606365"/><stop offset="1" style="stop-color:#626567"/></radialGradient><path d="M48.594 58.227a3.78 3.78 0 0 1 3.785-3.772 3.778 3.778 0 0 1 3.785 3.772A3.778 3.778 0 0 1 52.38 62a3.78 3.78 0 0 1-3.785-3.773z" style="fill:url(#c)"/><path d="M51.111 54.303c1.211 1.207 2.807 3.777 2.202 4.38-.608.604-3.186-.984-4.397-2.193-2.01-2.002.186-4.19 2.195-2.187z" style="fill:#99a8ae"/><linearGradient id="d" x1="-37.54" x2="-37.54" y1="51.797" y2="54.627" gradientTransform="matrix(-1 0 0 1 12 0)" gradientUnits="userSpaceOnUse"><stop offset="0" style="stop-color:#b3c2c6"/><stop offset=".213" style="stop-color:#aebdc1"/><stop offset=".479" style="stop-color:#a0adb2"/><stop offset=".771" style="stop-color:#889499"/><stop offset="1" style="stop-color:#717b80"/></linearGradient><path d="M46.701 53.211c0 .781 1.27 1.416 2.838 1.416 1.57 0 2.84-.635 2.84-1.416 0-.781-1.27-1.414-2.84-1.414-1.568 0-2.838.633-2.838 1.414z" style="fill:url(#d)"/></svg>