<svg xmlns="http://www.w3.org/2000/svg" xml:space="preserve" style="enable-background:new 0 0 64 64" viewBox="0 0 64 64"><path d="m59.887 18-2.244 1.565h.394l.728-.507v1.291l-.717 1.81-1.14-.854-.386.11 1.404 1.05-.657 1.661h.394l1.496-3.777v-1.567L60.282 18z" style="fill:#9fa6ab"/><path d="M57.75 21.473h-1.941l.18-1.128h1.581z" style="fill:#cfd8dd"/><path d="M52.191 39.674h8.178c.242 0 .414.268.345.535l-.896 3.428-7.627-1.492v-2.471z" style="fill:#9fa6ab"/><linearGradient id="a" x1="46.281" x2="46.281" y1="24.953" y2="23.374" gradientUnits="userSpaceOnUse"><stop offset="0" style="stop-color:#abb3b8"/><stop offset=".088" style="stop-color:#bac1c6"/><stop offset=".242" style="stop-color:#ced4d9"/><stop offset=".419" style="stop-color:#dce2e6"/><stop offset=".635" style="stop-color:#e5eaee"/><stop offset="1" style="stop-color:#e7ecf0"/></linearGradient><path d="M37.863 24.222s.041-.448-.2-.95c13.992 0 16.046-.272 17.235.95H37.863z" style="fill:url(#a)"/><linearGradient id="b" x1="42.201" x2="42.201" y1="43.774" y2="28.227" gradientUnits="userSpaceOnUse"><stop offset="0" style="stop-color:#005687"/><stop offset=".004" style="stop-color:#005688"/><stop offset=".251" style="stop-color:#0f6da3"/><stop offset=".499" style="stop-color:#1a7cb7"/><stop offset=".749" style="stop-color:#2086c3"/><stop offset="1" style="stop-color:#2289c7"/></linearGradient><path d="M34.111 28.227h17.45l3.319 15.547-25.357-2.296 3.315-11.52z" style="fill:url(#b)"/><linearGradient id="c" x1="40.219" x2="40.219" y1="42.643" y2="29.957" gradientUnits="userSpaceOnUse"><stop offset="0" style="stop-color:#302c3b"/><stop offset="1" style="stop-color:#096692"/></linearGradient><path d="m49.194 42.643-1.9-12.16c-.048-.305-.256-.526-.497-.526h-8.369a.466.466 0 0 0-.377.217l-6.806 11.56 17.949.91z" style="fill:url(#c)"/><linearGradient id="d" x1="31.038" x2="31.038" y1="41.474" y2="29.957" gradientUnits="userSpaceOnUse"><stop offset="0" style="stop-color:#302c3b"/><stop offset="1" style="stop-color:#096692"/></linearGradient><path d="M35.87 29.957h-3.032l-6.865 9.6c-.337 2.264 3.486 1.894 3.486 1.894l6.595-10.941c.152-.21.037-.553-.185-.553z" style="fill:url(#d)"/><path d="M52.191 27.796v1.973h-3.48l-1.216-1.973z" style="fill:#9fa6ab"/><linearGradient id="e" x1="34.111" x2="59.748" y1="26.224" y2="26.224" gradientUnits="userSpaceOnUse"><stop offset="0" style="stop-color:#e7ecf0"/><stop offset=".278" style="stop-color:#dbe1e5"/><stop offset=".779" style="stop-color:#bbc2c7"/><stop offset="1" style="stop-color:#abb3b8"/></linearGradient><path d="M34.111 28.227s1.533-2.515 3.752-4.005H58.89c1.8 0 .283 4.005-.197 4.005H34.111z" style="fill:url(#e)"/><linearGradient id="f" x1="54.232" x2="54.232" y1="26" y2="22.617" gradientUnits="userSpaceOnUse"><stop offset="0" style="stop-color:#abb3b8"/><stop offset=".081" style="stop-color:#b2babf"/><stop offset=".448" style="stop-color:#cfd5da"/><stop offset=".767" style="stop-color:#e1e6ea"/><stop offset="1" style="stop-color:#e7ecf0"/></linearGradient><path d="M47.714 25.512c-1.204 0 1.015-2.58 2.681-2.58 8.156 0 12.6 2.58 9.917 2.58H47.714z" style="fill:url(#f)"/><linearGradient id="g" x1="31.91" x2="32.064" y1="43.665" y2="38.605" gradientUnits="userSpaceOnUse"><stop offset="0" style="stop-color:#abb3b8"/><stop offset=".088" style="stop-color:#bac1c6"/><stop offset=".242" style="stop-color:#ced4d9"/><stop offset=".419" style="stop-color:#dce2e6"/><stop offset=".635" style="stop-color:#e5eaee"/><stop offset="1" style="stop-color:#e7ecf0"/></linearGradient><path d="M2.95 42.916c-.38-1.26 23.023-3.36 23.023-3.36-.263 2.251 14.471 1.774 30.388 1.774 1.748 0 4.54 2.307 4.54 2.307s-24.444 0-57.951-.72z" style="fill:url(#g)"/><path d="m.221 37.502 2.729 5.414.572.133-2.798-5.547zm4.962.478 2.32 5.216h.428L5.61 37.98zm5.947-.044 2.162 4.858h.473l-2.162-4.858zm7.568-.066 1.705 4.794h.446l-1.705-4.793zm8.019.075.876 4.729h.448l-.877-4.729zm7.991.44-.597 4.413h.411l.597-4.413zm6.49 1.607-.487 2.924h.447l.45-2.706z" style="fill:#6e8189"/><path d="M.16 37.93c-.251-.018-.189-.574.061-.553 17.842 1.414 37.498-2.345 46.375 5.522.198.176-.177.544-.375.363-8.413-7.65-28.24-3.914-46.061-5.333z" style="fill:#99a8ae"/><linearGradient id="h" x1="2.95" x2="64" y1="50.87" y2="50.87" gradientUnits="userSpaceOnUse"><stop offset="0" style="stop-color:#abb3b8"/><stop offset=".088" style="stop-color:#bac1c6"/><stop offset=".242" style="stop-color:#ced4d9"/><stop offset=".419" style="stop-color:#dce2e6"/><stop offset=".635" style="stop-color:#e5eaee"/><stop offset="1" style="stop-color:#e7ecf0"/></linearGradient><path d="M2.95 42.916c21.535-1.667 57.95.721 57.95.721L64 56.452s-33.814 8.962-57.858-4.287C3.123 47.15 2.95 42.916 2.95 42.916z" style="fill:url(#h)"/><linearGradient id="i" x1="4.841" x2="63.513" y1="52.123" y2="52.123" gradientUnits="userSpaceOnUse"><stop offset=".163" style="stop-color:#c40000"/><stop offset=".196" style="stop-color:#c70001"/><stop offset=".523" style="stop-color:#e60008"/><stop offset=".803" style="stop-color:#f8000c"/><stop offset="1" style="stop-color:#ff000e"/></linearGradient><path d="m63.513 54.438-.123-.508s-40.696.93-58.55-4.228c0 0 .17.409.298.625 16.217 5.259 58.375 4.11 58.375 4.11z" style="fill:url(#i)"/><linearGradient id="j" x1="9.139" x2="48.003" y1="45.855" y2="45.855" gradientUnits="userSpaceOnUse"><stop offset="0" style="stop-color:#676e73"/><stop offset="1" style="stop-color:#4b4e55"/></linearGradient><path d="M48.003 44.652s-17.487-1.065-38.622-.155a.252.252 0 0 0-.186.41l1.881 2.307a1 1 0 0 0 .775.368H32.63a1 1 0 0 0 .705-.29l.777-.773a1 1 0 0 1 .636-.288l12.429-.856.827-.723z" style="fill:url(#j)"/><path d="M18.357 46.586v-1.315a.25.25 0 0 0-.25-.25h-7.453a.25.25 0 0 0-.195.407l.99 1.223a.5.5 0 0 0 .388.185h6.27a.25.25 0 0 0 .25-.25zm7.676 0v-1.315a.25.25 0 0 0-.25-.25h-6.258a.25.25 0 0 0-.25.25v1.315c0 .138.112.25.25.25h6.258a.25.25 0 0 0 .25-.25zm6.915-.108.875-1.047a.25.25 0 0 0-.191-.41h-6.43a.25.25 0 0 0-.25.25v1.315c0 .138.112.25.25.25h4.979a1 1 0 0 0 .767-.358z" style="fill:#2d2b33"/><linearGradient id="k" x1="6.142" x2="64" y1="57.077" y2="57.077" gradientUnits="userSpaceOnUse"><stop offset="0" style="stop-color:#005687"/><stop offset=".004" style="stop-color:#005688"/><stop offset=".251" style="stop-color:#0f6da3"/><stop offset=".499" style="stop-color:#1a7cb7"/><stop offset=".749" style="stop-color:#2086c3"/><stop offset="1" style="stop-color:#2289c7"/></linearGradient><path d="M6.142 52.153C9.53 59.01 19.63 62 24.317 62h37.426C62.72 62 64 56.439 64 56.439c-37.283 0-45.774.034-57.858-4.286z" style="fill:url(#k)"/></svg>