<svg xmlns="http://www.w3.org/2000/svg" xml:space="preserve" style="enable-background:new 0 0 64 64" viewBox="0 0 64 64"><linearGradient id="a" x1="32" x2="32" y1="62" y2="20" gradientUnits="userSpaceOnUse"><stop offset="0" style="stop-color:#3b7500"/><stop offset=".321" style="stop-color:#3d7702"/><stop offset=".492" style="stop-color:#457e08"/><stop offset=".628" style="stop-color:#538b14"/><stop offset=".745" style="stop-color:#669d23"/><stop offset=".851" style="stop-color:#7fb438"/><stop offset=".946" style="stop-color:#9dd051"/><stop offset="1" style="stop-color:#b2e362"/></linearGradient><path d="M2 20h60v42H2z" style="fill:url(#a)"/><linearGradient id="b" x1="32" x2="32" y1="20" y2="15" gradientUnits="userSpaceOnUse"><stop offset="0" style="stop-color:#9ebd74"/><stop offset=".004" style="stop-color:#9fbe74"/><stop offset=".143" style="stop-color:#b1d083"/><stop offset=".309" style="stop-color:#bddc8e"/><stop offset=".528" style="stop-color:#c5e494"/><stop offset="1" style="stop-color:#c7e696"/></linearGradient><path d="M49 17c-6 2.496-13 0-14 0-3.182 0-6.176 2.158-8 2-1.897-.166-5.096-2-7-2-.827 0-2.969 1.351-5 1-.889-.154-5.1-2-6-2-1.375 0-7 2-7 2v2h60v-3s-4.666-2-6-2c-1.125 0-5.152 1.232-7 2z" style="fill:url(#b)"/><linearGradient id="c" x1="-162" x2="-162" y1="108" y2="150" gradientTransform="matrix(1 0 0 -1 194 170)" gradientUnits="userSpaceOnUse"><stop offset="0" style="stop-color:#424a4f"/><stop offset=".753" style="stop-color:#535c63"/><stop offset="1" style="stop-color:#59636b"/></linearGradient><path d="M34 20h-4L2 40v22h60V40z" style="fill:url(#c)"/><path d="M2 44v4l28-28zm60 0v4L34 20z" style="fill:#f9b700"/><path d="M24.333 40 27 32h-1.143l-3.427 8zm3.237-12h.763l1.334-4h-.38zm-7.713 18L13 62h4l5.333-16zm10.476-24L31 20l-.857 2zM41.57 40l-3.427-8H37l2.668 8zm-5.902-12h.762l-1.715-4h-.381zm-1.811-6L33 20l.667 2zm10.286 24h-2.475L47 62h4z" style="fill:#fff"/><radialGradient id="d" cx="134.188" cy="397.833" r="3.917" gradientTransform="matrix(1.2439 0 0 .3388 -156.917 -108.147)" gradientUnits="userSpaceOnUse"><stop offset="0" style="stop-color:#144700;stop-opacity:.5"/><stop offset=".141" style="stop-color:#144700;stop-opacity:.4293"/><stop offset="1" style="stop-color:#144700;stop-opacity:0"/></radialGradient><ellipse cx="10" cy="26.638" rx="4.873" ry="1.327" style="fill:url(#d)"/><radialGradient id="e" cx="169.561" cy="397.833" r="3.917" gradientTransform="matrix(1.2439 0 0 .3388 -156.917 -108.147)" gradientUnits="userSpaceOnUse"><stop offset="0" style="stop-color:#144700;stop-opacity:.5"/><stop offset=".141" style="stop-color:#144700;stop-opacity:.4293"/><stop offset="1" style="stop-color:#144700;stop-opacity:0"/></radialGradient><ellipse cx="54" cy="26.638" rx="4.873" ry="1.327" style="fill:url(#e)"/><linearGradient id="f" x1="357.531" x2="357.531" y1="432.216" y2="431.216" gradientTransform="rotate(45.001 696.062 -195.32)" gradientUnits="userSpaceOnUse"><stop offset=".307" style="stop-color:#6c6f73"/><stop offset=".544" style="stop-color:#7d8188"/><stop offset=".795" style="stop-color:#898e97"/><stop offset="1" style="stop-color:#8d939c"/></linearGradient><path d="m10.834 5.5 5.657 5.657-.707.707-5.657-5.657z" style="fill:url(#f)"/><linearGradient id="g" x1="114.271" x2="114.271" y1="-548.856" y2="-549.856" gradientTransform="rotate(-45.001 756.091 -193.58)" gradientUnits="userSpaceOnUse"><stop offset=".307" style="stop-color:#6c6f73"/><stop offset=".544" style="stop-color:#7d8188"/><stop offset=".795" style="stop-color:#898e97"/><stop offset="1" style="stop-color:#8d939c"/></linearGradient><path d="M47.509 11.157 53.166 5.5l.707.707-5.657 5.657z" style="fill:url(#g)"/><linearGradient id="h" x1="32" x2="32" y1="6" y2="5" gradientUnits="userSpaceOnUse"><stop offset=".307" style="stop-color:#6c6f73"/><stop offset=".544" style="stop-color:#7d8188"/><stop offset=".795" style="stop-color:#898e97"/><stop offset="1" style="stop-color:#8d939c"/></linearGradient><path d="M10 5h44v1H10z" style="fill:url(#h)"/><linearGradient id="i" x1="32" x2="32" y1="13" y2="12" gradientUnits="userSpaceOnUse"><stop offset=".307" style="stop-color:#6c6f73"/><stop offset=".544" style="stop-color:#7d8188"/><stop offset=".795" style="stop-color:#898e97"/><stop offset="1" style="stop-color:#8d939c"/></linearGradient><path d="M10 12h44v1H10z" style="fill:url(#i)"/><linearGradient id="j" x1="-140.944" x2="-139.056" y1="144.457" y2="144.457" gradientTransform="matrix(1 0 0 -1 194 170)" gradientUnits="userSpaceOnUse"><stop offset="0" style="stop-color:#8d939c"/><stop offset=".16" style="stop-color:#afb1b5"/><stop offset=".23" style="stop-color:#bfbfc1"/><stop offset=".418" style="stop-color:#b0b0b2"/><stop offset=".782" style="stop-color:#87898d"/><stop offset="1" style="stop-color:#6c6f73"/></linearGradient><path d="M53.056 24.36v2.324c0 .316 1.888.316 1.888 0V24.36c0-.26-1.888-.26-1.888 0z" style="fill:url(#j)"/><linearGradient id="k" x1="-140.734" x2="-139.266" y1="156.674" y2="156.674" gradientTransform="matrix(1 0 0 -1 194 170)" gradientUnits="userSpaceOnUse"><stop offset="0" style="stop-color:#8d939c"/><stop offset=".16" style="stop-color:#afb1b5"/><stop offset=".23" style="stop-color:#bfbfc1"/><stop offset=".418" style="stop-color:#b0b0b2"/><stop offset=".782" style="stop-color:#87898d"/><stop offset="1" style="stop-color:#6c6f73"/></linearGradient><path d="M53.266 2.415v22c0 .316 1.468.316 1.468 0v-22c0-.553-1.468-.553-1.468 0z" style="fill:url(#k)"/><linearGradient id="l" x1="-184.944" x2="-183.056" y1="144.457" y2="144.457" gradientTransform="matrix(1 0 0 -1 194 170)" gradientUnits="userSpaceOnUse"><stop offset="0" style="stop-color:#8d939c"/><stop offset=".16" style="stop-color:#afb1b5"/><stop offset=".23" style="stop-color:#bfbfc1"/><stop offset=".418" style="stop-color:#b0b0b2"/><stop offset=".782" style="stop-color:#87898d"/><stop offset="1" style="stop-color:#6c6f73"/></linearGradient><path d="M9.056 24.36v2.324c0 .316 1.888.316 1.888 0V24.36c0-.26-1.888-.26-1.888 0z" style="fill:url(#l)"/><linearGradient id="m" x1="-184.734" x2="-183.266" y1="156.674" y2="156.674" gradientTransform="matrix(1 0 0 -1 194 170)" gradientUnits="userSpaceOnUse"><stop offset="0" style="stop-color:#8d939c"/><stop offset=".16" style="stop-color:#afb1b5"/><stop offset=".23" style="stop-color:#bfbfc1"/><stop offset=".418" style="stop-color:#b0b0b2"/><stop offset=".782" style="stop-color:#87898d"/><stop offset="1" style="stop-color:#6c6f73"/></linearGradient><path d="M9.266 2.415v22c0 .316 1.468.316 1.468 0v-22c0-.553-1.468-.553-1.468 0z" style="fill:url(#m)"/><path d="M16.439 2H47.56c.796 0 1.44.644 1.44 1.439V14.56c0 .795-.644 1.439-1.439 1.439H16.44A1.439 1.439 0 0 1 15 14.561V3.44c0-.796.644-1.44 1.439-1.44z" style="fill:#2f6d53"/><path d="M47.492 2.375H16.508c-.625 0-1.133.508-1.133 1.133v10.984c0 .625.508 1.133 1.133 1.133h30.983c.626 0 1.134-.508 1.134-1.133V3.508c0-.625-.508-1.133-1.133-1.133zm.883 12.117a.884.884 0 0 1-.883.883H16.508a.884.884 0 0 1-.883-.883V3.508c0-.486.397-.883.883-.883h30.983c.488 0 .884.397.884.883v10.984z" style="fill:#458f6f"/><path d="M29.874 6.813h.88v7.119h1.367V6.813h.88a.206.206 0 0 0 .172-.32L31.609 4.16a.206.206 0 0 0-.343 0l-1.564 2.332a.206.206 0 0 0 .172.321zm-8.604 0h.88v7.119h1.367V6.813h.88a.206.206 0 0 0 .172-.32L23.005 4.16a.206.206 0 0 0-.343 0l-1.564 2.332a.206.206 0 0 0 .172.321zm25.538.955-2.745-.594a.206.206 0 0 0-.235.277l.284.716c-.626.155-2.338.699-3.881 2.254V6.813h.88a.206.206 0 0 0 .171-.32L39.718 4.16a.206.206 0 0 0-.342 0l-1.564 2.332a.206.206 0 0 0 .17.321h.881v7.119h1.368v-.493c.984-3.074 3.66-3.844 4.386-3.999l.365.919c.06.153.268.177.361.04l1.591-2.313a.206.206 0 0 0-.126-.319z" style="fill:#fff"/></svg>