<svg xmlns="http://www.w3.org/2000/svg" xml:space="preserve" style="enable-background:new 0 0 64 64" viewBox="0 0 64 64"><linearGradient id="a" x1="27.55" x2="27.55" y1="21.637" y2="23.373" gradientTransform="matrix(1 0 0 -1 0 66)" gradientUnits="userSpaceOnUse"><stop offset="0" style="stop-color:#5a5f63"/><stop offset=".026" style="stop-color:#5d6266"/><stop offset=".458" style="stop-color:#828990"/><stop offset=".797" style="stop-color:#99a1a9"/><stop offset="1" style="stop-color:#a2aab3"/></linearGradient><path d="M20.48 42.63h14.15v1.74H20.48z" style="fill:url(#a)"/><linearGradient id="b" x1="12.546" x2="10.354" y1="19.9" y2="18.949" gradientTransform="matrix(1 0 0 -1 0 66)" gradientUnits="userSpaceOnUse"><stop offset="0" style="stop-color:#5a5f63"/><stop offset=".026" style="stop-color:#5d6266"/><stop offset=".458" style="stop-color:#828990"/><stop offset=".797" style="stop-color:#99a1a9"/><stop offset="1" style="stop-color:#a2aab3"/></linearGradient><path d="m11.11 48.74 2.07-.8-.85-3.86-2.89 1.38z" style="fill:url(#b)"/><linearGradient id="c" x1="16.202" x2="19.486" y1="17.997" y2="17.197" gradientTransform="matrix(1 0 0 -1 0 66)" gradientUnits="userSpaceOnUse"><stop offset="0" style="stop-color:#a2aab3"/><stop offset=".203" style="stop-color:#99a1a9"/><stop offset=".542" style="stop-color:#828990"/><stop offset=".974" style="stop-color:#5d6266"/><stop offset="1" style="stop-color:#5a5f63"/></linearGradient><path d="m16.09 48.36 2.88 3.17 1.25-5.41-3.51-.69z" style="fill:url(#c)"/><linearGradient id="d" x1="17.574" x2="17.947" y1="17.025" y2="18.261" gradientTransform="matrix(1 0 0 -1 0 66)" gradientUnits="userSpaceOnUse"><stop offset="0" style="stop-color:#81898f"/><stop offset=".263" style="stop-color:#929aa1"/><stop offset=".724" style="stop-color:#aab2ba"/><stop offset="1" style="stop-color:#b3bbc4"/></linearGradient><path d="m15.39 48.25 4.37 1.46.23-.96a.436.436 0 0 0-.3-.51l-3.46-1.11c-.14-.05-.3.02-.36.15l-.48.97z" style="fill:url(#d)"/><linearGradient id="e" x1="7.809" x2="22.435" y1="21.309" y2="21.309" gradientTransform="matrix(1 0 0 -1 0 66)" gradientUnits="userSpaceOnUse"><stop offset="0" style="stop-color:#81898f"/><stop offset=".263" style="stop-color:#929aa1"/><stop offset=".724" style="stop-color:#aab2ba"/><stop offset="1" style="stop-color:#b3bbc4"/></linearGradient><path d="M7.81 42.43v2.43c0 .38.2.73.54.97l1.66 1.13 2.64-1.87c.27-.63 1.22-.8 1.78-.33L16.46 46l3.02.67c.71.15 1.44-.18 1.66-.76l1.31-3.49-14.64.01z" style="fill:url(#e)"/><linearGradient id="f" x1="41.932" x2="44.25" y1="20.025" y2="18.805" gradientTransform="matrix(1 0 0 -1 0 66)" gradientUnits="userSpaceOnUse"><stop offset="0" style="stop-color:#a2aab3"/><stop offset=".203" style="stop-color:#99a1a9"/><stop offset=".542" style="stop-color:#828990"/><stop offset=".974" style="stop-color:#5d6266"/><stop offset="1" style="stop-color:#5a5f63"/></linearGradient><path d="m43.5 48.74-2.06-.8.84-3.86 2.89 1.38z" style="fill:url(#f)"/><linearGradient id="g" x1="34.979" x2="38.41" y1="17.206" y2="18.028" gradientTransform="matrix(1 0 0 -1 0 66)" gradientUnits="userSpaceOnUse"><stop offset="0" style="stop-color:#a2aab3"/><stop offset=".203" style="stop-color:#99a1a9"/><stop offset=".542" style="stop-color:#828990"/><stop offset=".974" style="stop-color:#5d6266"/><stop offset="1" style="stop-color:#5a5f63"/></linearGradient><path d="m38.52 48.36-2.87 3.17-1.32-5.48 3.58-.62z" style="fill:url(#g)"/><linearGradient id="h" x1="36.645" x2="37.038" y1="18.347" y2="17.052" gradientTransform="matrix(1 0 0 -1 0 66)" gradientUnits="userSpaceOnUse"><stop offset="0" style="stop-color:#b3bbc4"/><stop offset=".276" style="stop-color:#aab2ba"/><stop offset=".737" style="stop-color:#929aa1"/><stop offset="1" style="stop-color:#81898f"/></linearGradient><path d="m39.23 48.25-4.37 1.46-.23-.96c-.05-.22.08-.44.3-.51l3.46-1.11c.14-.05.3.02.36.15l.48.97z" style="fill:url(#h)"/><linearGradient id="i" x1="32.175" x2="46.8" y1="21.309" y2="21.309" gradientTransform="matrix(1 0 0 -1 0 66)" gradientUnits="userSpaceOnUse"><stop offset="0" style="stop-color:#81898f"/><stop offset=".263" style="stop-color:#929aa1"/><stop offset=".724" style="stop-color:#aab2ba"/><stop offset="1" style="stop-color:#b3bbc4"/></linearGradient><path d="M46.8 42.43v2.43c0 .38-.2.73-.54.97l-1.66 1.13-2.64-1.87c-.27-.63-1.22-.8-1.78-.33L38.15 46l-3.02.67c-.71.15-1.44-.18-1.66-.76l-1.31-3.49 14.64.01z" style="fill:url(#i)"/><linearGradient id="j" x1="45.273" x2="56.025" y1="21.363" y2="21.363" gradientTransform="matrix(1 0 0 -1 0 66)" gradientUnits="userSpaceOnUse"><stop offset="0" style="stop-color:#b3bbc4"/><stop offset=".276" style="stop-color:#aab2ba"/><stop offset=".737" style="stop-color:#929aa1"/><stop offset="1" style="stop-color:#81898f"/></linearGradient><path d="M48.02 47.91s4.28.51 7.9-3.19c.19-.26.07-1.43.07-1.43l-9.26-1.96s-2 5.51-1.31 5.07c1.82-1.05 2.6 1.51 2.6 1.51z" style="fill:url(#j)"/><linearGradient id="k" x1="49.692" x2="57.677" y1="14.695" y2="18.375" gradientTransform="matrix(1 0 0 -1 0 66)" gradientUnits="userSpaceOnUse"><stop offset="0" style="stop-color:#c413c0"/><stop offset=".177" style="stop-color:#cd34c9"/><stop offset=".43" style="stop-color:#d85dd4"/><stop offset=".66" style="stop-color:#e07bdc"/><stop offset=".858" style="stop-color:#e48de0"/><stop offset="1" style="stop-color:#e693e2"/></linearGradient><path d="M51.23 53.9c2.19 0 6.86-1.92 7.66-3.41.47-.87-.55-1.6-2.97-5.76-3.66 2.24-7.9 3.19-7.9 3.19 2.54 4.84 2.31 5.98 3.21 5.98z" style="fill:url(#k)"/><linearGradient id="l" x1="31.749" x2="31.749" y1="22.707" y2="24.443" gradientTransform="matrix(1 0 0 -1 0 66)" gradientUnits="userSpaceOnUse"><stop offset="0" style="stop-color:#81898f"/><stop offset=".263" style="stop-color:#929aa1"/><stop offset=".724" style="stop-color:#aab2ba"/><stop offset="1" style="stop-color:#b3bbc4"/></linearGradient><path d="M55.99 43.3H7.51v-1.74h48.18z" style="fill:url(#l)"/><linearGradient id="m" x1="19.407" x2="43.704" y1="48.654" y2="48.654" gradientTransform="matrix(1 0 0 -1 0 66)" gradientUnits="userSpaceOnUse"><stop offset="0" style="stop-color:#3ab0a2"/><stop offset=".274" style="stop-color:#36bcac"/><stop offset=".767" style="stop-color:#2ddcc7"/><stop offset="1" style="stop-color:#28edd5"/></linearGradient><path d="M43.7 30.59C29.43 26.32 27.4 8.64 28.33 5.63c1.09-3.52-8.99-3.88-8.92-.05.43 21.34 19.06 29.67 24.29 25.01z" style="fill:url(#m)"/><path d="M7.66 9.06C6.91 7.75 16.56 2 25.2 2c1.42.18 1.59 2.98 1.29 6.53-2.95 1.36-13.08 2.53-18.83.53z" style="fill:#e344df"/><linearGradient id="n" x1="5" x2="56.199" y1="82.268" y2="82.268" gradientTransform="matrix(1 0 0 -1.0459 0 107.98)" gradientUnits="userSpaceOnUse"><stop offset="0" style="stop-color:#3ab0a2"/><stop offset=".055" style="stop-color:#35c0b0"/><stop offset=".146" style="stop-color:#2fd4c0"/><stop offset=".25" style="stop-color:#2be2cc"/><stop offset=".377" style="stop-color:#29ebd3"/><stop offset=".594" style="stop-color:#28edd5"/></linearGradient><path d="M7.53 9.48C7.47 7.51 19.77 1.96 25.2 2.65c3.64.45-4.17 20.88 16.6 28.18.79.28 1.06-.49 1.4-.39 4.4 1.33 14.13-1.12 12.89 9.29-22.84 5.33-35.79-4.51-50.8-7.74C3.89 23.23 8 24.56 7.53 9.48z" style="fill:url(#n)"/><path d="M25.35 15.01c1.33.07 1.47-1.96.14-2.03-1.32-.05-1.46 1.97-.14 2.03zm1.21 4.6c1.33.04 1.43-1.99.1-2.03-1.32-.04-1.42 1.98-.1 2.03zm2.2 4.34c1.33.03 1.41-2 .08-2.03-1.32-.03-1.4 2-.08 2.03zm2.92 3.68c1.33.07 1.47-1.96.14-2.03-1.33-.06-1.47 1.96-.14 2.03zm3.81 2.89c1.33.07 1.47-1.96.14-2.03-1.33-.07-1.47 1.96-.14 2.03zm3.99 2.08c1.33.07 1.47-1.96.14-2.03-1.32-.05-1.46 1.96-.14 2.03z" style="fill:#157569"/><linearGradient id="o" x1="5.292" x2="20.567" y1="67.913" y2="67.913" gradientTransform="matrix(1 0 0 -1.0459 0 107.98)" gradientUnits="userSpaceOnUse"><stop offset="0" style="stop-color:#703f28"/><stop offset=".109" style="stop-color:#75422a"/><stop offset=".621" style="stop-color:#864b30"/><stop offset="1" style="stop-color:#8c4f32"/></linearGradient><path d="M20.57 35.64v5.24c0 .5-.42.91-.94.91H7.55c-.47 0-.88-.3-1-.73-.69-2.37-1.35-5.89-1.25-8.93l15.27 3.51z" style="fill:url(#o)"/><path d="M20.57 40.9v-.27H6.42c.04.14.08.31.12.44.11.38.44.64.83.7h12.4c.45-.06.8-.41.8-.87zM6.13 39.48h14.45v-1.15H5.88c.08.39.16.78.25 1.15zm-.46-2.3h14.9v-1.15H5.51c.04.39.1.77.16 1.15zm11.48-2.3-5-1.15H5.31c.02.39.04.76.07 1.15h11.77z" style="fill:#8c4f32"/><linearGradient id="p" x1="5.292" x2="56.12" y1="68.1" y2="68.1" gradientTransform="matrix(1 0 0 -1.0459 0 107.98)" gradientUnits="userSpaceOnUse"><stop offset="0" style="stop-color:#703f28"/><stop offset=".109" style="stop-color:#75422a"/><stop offset=".621" style="stop-color:#864b30"/><stop offset="1" style="stop-color:#8c4f32"/></linearGradient><path d="M56.09 39.73c.11 0-.1 1.9-.4 1.9-5.76 0-9.92.01-13.88 0-18.33-.04-21.52-7.18-36.49-7.9l-.02-1.85c14.48 0 17.3 7.52 36.48 7.85 3.98.07 8.58 0 14.31 0z" style="fill:url(#p)"/><path d="M28.63 12.42c-.34.08-2.81.76-3.69.99-.54.14-.2 1.55.33 1.38 1.18-.4 3.06-.84 3.67-.98.47-.12.31-1.54-.31-1.39zm1.33 4.27c-1.23.66-2.99 1.06-3.86 1.31-.54.15-.19 1.48.36 1.37 1.17-.24 2.83-.75 4.03-1.39.42-.24.03-1.59-.53-1.29zm1.8 3.93c-1.12.83-2.74 1.46-3.57 1.83-.5.23.04 1.48.57 1.31 1.12-.41 2.66-1.12 3.74-1.93.38-.3-.24-1.59-.74-1.21zm2.32 3.48c-.96.99-2.3 1.7-3.06 2.19-.46.3.29 1.47.77 1.2 1.04-.57 2.28-1.35 3.22-2.32.33-.35-.5-1.52-.93-1.07zm2.95 2.97c-.76 1.15-1.58 1.57-2.23 2.19-.4.38.56 1.39.99 1.04.92-.74 1.65-1.25 2.39-2.37.26-.4-.8-1.38-1.15-.86zm3.18 2.07c-.59 1.23-.97 1.64-1.41 2.4-.27.47.94 1.19 1.25.74.67-.95.95-1.26 1.47-2.49.14-.35-1.11-1.09-1.31-.65z" style="fill:#e344df"/><linearGradient id="q" x1="13.576" x2="13.576" y1="4.178" y2="18.557" gradientTransform="matrix(1 0 0 -1 0 66)" gradientUnits="userSpaceOnUse"><stop offset="0" style="stop-color:#c413c0"/><stop offset=".177" style="stop-color:#cd34c9"/><stop offset=".43" style="stop-color:#d85dd4"/><stop offset=".66" style="stop-color:#e07bdc"/><stop offset=".858" style="stop-color:#e48de0"/><stop offset="1" style="stop-color:#e693e2"/></linearGradient><path d="M21.08 54.49c0 4.15-3.35 7.51-7.5 7.51s-7.5-3.36-7.5-7.51 3.35-7.51 7.5-7.51c4.14.01 7.5 3.36 7.5 7.51z" style="fill:url(#q)"/><path d="M8.99 54.49c0-2.53 2.06-4.59 4.59-4.59s4.59 2.06 4.59 4.59-2.06 4.59-4.59 4.59c-2.53.01-4.59-2.05-4.59-4.59z" style="fill:#e693e2"/><linearGradient id="r" x1="-222.076" x2="-222.076" y1="-206.584" y2="-198.497" gradientTransform="matrix(-1 0 0 1 -208.5 256.955)" gradientUnits="userSpaceOnUse"><stop offset="0" style="stop-color:#c413c0"/><stop offset=".177" style="stop-color:#cd34c9"/><stop offset=".43" style="stop-color:#d85dd4"/><stop offset=".66" style="stop-color:#e07bdc"/><stop offset=".858" style="stop-color:#e48de0"/><stop offset="1" style="stop-color:#e693e2"/></linearGradient><path d="M9.36 54.49a4.22 4.22 0 1 1 4.22 4.22c-2.33.01-4.22-1.89-4.22-4.22z" style="fill:url(#r)"/><linearGradient id="s" x1="-222.076" x2="-222.076" y1="-200.316" y2="-204.526" gradientTransform="matrix(-1 0 0 1 -208.5 256.955)" gradientUnits="userSpaceOnUse"><stop offset="0" style="stop-color:#6f767a"/><stop offset=".151" style="stop-color:#757c81"/><stop offset=".369" style="stop-color:#878e94"/><stop offset=".628" style="stop-color:#a3acb4"/><stop offset=".916" style="stop-color:#cad4df"/><stop offset="1" style="stop-color:#d7e1ed"/></linearGradient><path d="M11.38 54.49c0-1.21.99-2.2 2.2-2.2 1.21 0 2.2.99 2.2 2.2s-.99 2.2-2.2 2.2a2.2 2.2 0 0 1-2.2-2.2z" style="fill:url(#s)"/><linearGradient id="t" x1="197.629" x2="193.817" y1="1252.231" y2="1252.231" gradientTransform="rotate(90 703.5 562.307)" gradientUnits="userSpaceOnUse"><stop offset="0" style="stop-color:#7d848a"/><stop offset=".244" style="stop-color:#9ca5ad"/><stop offset=".579" style="stop-color:#c2ccd7"/><stop offset=".843" style="stop-color:#d9e4f0"/><stop offset="1" style="stop-color:#e2edfa"/></linearGradient><path d="M15.3 55.49V53.5l-1.72-1-1.73 1v1.99l1.73.99z" style="fill:url(#t)"/><path d="M12.29 54.49c0-.71.58-1.29 1.29-1.29.71 0 1.29.58 1.29 1.29 0 .71-.58 1.29-1.29 1.29-.71 0-1.29-.58-1.29-1.29z" style="fill:#5a5f63"/><linearGradient id="u" x1="-222.076" x2="-222.076" y1="-201.292" y2="-203.587" gradientTransform="matrix(-1 0 0 1 -208.5 256.955)" gradientUnits="userSpaceOnUse"><stop offset="0" style="stop-color:#e2edfa"/><stop offset=".158" style="stop-color:#d9e4f0"/><stop offset=".421" style="stop-color:#c2ccd7"/><stop offset=".756" style="stop-color:#9ca5ad"/><stop offset="1" style="stop-color:#7d848a"/></linearGradient><path d="M12.38 54.49c0-.66.54-1.2 1.2-1.2.66 0 1.2.54 1.2 1.2s-.54 1.2-1.2 1.2c-.66 0-1.2-.54-1.2-1.2z" style="fill:url(#u)"/><linearGradient id="v" x1="41.626" x2="41.626" y1="4.178" y2="18.558" gradientTransform="matrix(1 0 0 -1 0 66)" gradientUnits="userSpaceOnUse"><stop offset="0" style="stop-color:#c413c0"/><stop offset=".177" style="stop-color:#cd34c9"/><stop offset=".43" style="stop-color:#d85dd4"/><stop offset=".66" style="stop-color:#e07bdc"/><stop offset=".858" style="stop-color:#e48de0"/><stop offset="1" style="stop-color:#e693e2"/></linearGradient><path d="M49.13 54.49c0 4.15-3.35 7.51-7.5 7.51s-7.5-3.36-7.5-7.51 3.35-7.51 7.5-7.51 7.5 3.36 7.5 7.51z" style="fill:url(#v)"/><path d="M37.04 54.49c0-2.53 2.06-4.59 4.59-4.59s4.59 2.06 4.59 4.59-2.06 4.59-4.59 4.59c-2.53.01-4.59-2.05-4.59-4.59z" style="fill:#e693e2"/><linearGradient id="w" x1="-250.126" x2="-250.126" y1="-206.586" y2="-198.498" gradientTransform="matrix(-1 0 0 1 -208.5 256.955)" gradientUnits="userSpaceOnUse"><stop offset="0" style="stop-color:#c413c0"/><stop offset=".177" style="stop-color:#cd34c9"/><stop offset=".43" style="stop-color:#d85dd4"/><stop offset=".66" style="stop-color:#e07bdc"/><stop offset=".858" style="stop-color:#e48de0"/><stop offset="1" style="stop-color:#e693e2"/></linearGradient><path d="M37.41 54.49a4.22 4.22 0 1 1 4.22 4.22c-2.33.01-4.22-1.89-4.22-4.22z" style="fill:url(#w)"/><linearGradient id="x" x1="-250.126" x2="-250.126" y1="-200.317" y2="-204.528" gradientTransform="matrix(-1 0 0 1 -208.5 256.955)" gradientUnits="userSpaceOnUse"><stop offset="0" style="stop-color:#6f767a"/><stop offset=".151" style="stop-color:#757c81"/><stop offset=".369" style="stop-color:#878e94"/><stop offset=".628" style="stop-color:#a3acb4"/><stop offset=".916" style="stop-color:#cad4df"/><stop offset="1" style="stop-color:#d7e1ed"/></linearGradient><path d="M39.43 54.49c0-1.21.99-2.2 2.2-2.2 1.21 0 2.2.99 2.2 2.2s-.99 2.2-2.2 2.2c-1.21 0-2.2-.99-2.2-2.2z" style="fill:url(#x)"/><linearGradient id="y" x1="197.628" x2="193.816" y1="1224.181" y2="1224.181" gradientTransform="rotate(90 703.5 562.307)" gradientUnits="userSpaceOnUse"><stop offset="0" style="stop-color:#7d848a"/><stop offset=".244" style="stop-color:#9ca5ad"/><stop offset=".579" style="stop-color:#c2ccd7"/><stop offset=".843" style="stop-color:#d9e4f0"/><stop offset="1" style="stop-color:#e2edfa"/></linearGradient><path d="M43.35 55.49V53.5l-1.72-1-1.73 1v1.99l1.73.99z" style="fill:url(#y)"/><path d="M40.34 54.49c0-.71.58-1.29 1.29-1.29.71 0 1.29.58 1.29 1.29s-.58 1.29-1.29 1.29c-.71 0-1.29-.58-1.29-1.29z" style="fill:#5a5f63"/><linearGradient id="z" x1="-250.126" x2="-250.126" y1="-201.293" y2="-203.588" gradientTransform="matrix(-1 0 0 1 -208.5 256.955)" gradientUnits="userSpaceOnUse"><stop offset="0" style="stop-color:#e2edfa"/><stop offset=".158" style="stop-color:#d9e4f0"/><stop offset=".421" style="stop-color:#c2ccd7"/><stop offset=".756" style="stop-color:#9ca5ad"/><stop offset="1" style="stop-color:#7d848a"/></linearGradient><path d="M40.43 54.49c0-.66.54-1.2 1.2-1.2.66 0 1.2.54 1.2 1.2s-.54 1.2-1.2 1.2c-.66 0-1.2-.54-1.2-1.2z" style="fill:url(#z)"/><path d="M25.75 10.53s-.27-.63-.19-1.25c-.65.1-2.18-.56-1.94.94.22 1.48 1.34.44 2.13.31zm-.34-3.95s-.13-.67.07-1.26c-.65-.04-2.01-1.01-2.1.51-.08 1.49 1.24.7 2.03.75z" style="fill:#e344df"/></svg>