<svg xmlns="http://www.w3.org/2000/svg" xml:space="preserve" viewBox="0 0 64 64"><path fill="#302C3B" d="M44.562 55.707c-1.785.325-3.132.563-3.132.563H21.274l1.452 2.119 18.851-.003s1.272-.304 2.984-.717v-1.962z"/><linearGradient id="a" x1="11.911" x2="23.882" y1="49.971" y2="49.971" gradientTransform="translate(1.772 -1.399)" gradientUnits="userSpaceOnUse"><stop offset="0" style="stop-color:#92c932"/><stop offset=".208" style="stop-color:#99cc2f"/><stop offset=".506" style="stop-color:#acd328"/><stop offset=".856" style="stop-color:#cae01d"/><stop offset="1" style="stop-color:#d9e617"/></linearGradient><path fill="url(#a)" d="m14.532 40.102-.849 5.234 7.794 11.707h4.177z"/><path fill="#77B516" d="m19.488 54.059 1.988 2.984 4.458.219c.001 0-1.402-4.551-6.446-3.203z"/><linearGradient id="b" x1="42.403" x2="53.886" y1="53.803" y2="53.803" gradientTransform="translate(1.772 -1.399)" gradientUnits="userSpaceOnUse"><stop offset="0" style="stop-color:#99a8ae"/><stop offset=".123" style="stop-color:#a3b0b6"/><stop offset=".594" style="stop-color:#c3cdd2"/><stop offset=".855" style="stop-color:#cfd8dd"/></linearGradient><path fill="url(#b)" d="M44.175 57.25v-2.17c0-3.658 3.193-7.518 8.064-7.521.937-.002 2.072.002 2.908.002.68 0 .68 1.124 0 1.125-.924 0-1.762-.002-2.7 0-3.609-.001-6.731 2.971-6.731 6.392v1.978l-1.541.194z"/><path fill="#77B516" d="m12.223 61.496-2.273-.697s1.358-.848 1.358-1.867v-3.244l.915-.002v5.81z"/><path fill="#77B516" d="m16.85 56.567-1.335 2.053s-.347-1.619-1.271-1.93c-1.263-.435-2.936-1.003-2.936-1.003l.283-.918 5.259 1.798z"/><path fill="#77B516" d="m13.816 50.418 1.447 1.969s-1.572-.15-2.14.673a808.482 808.482 0 0 0-1.815 2.628l-.743-.567 3.251-4.703z"/><path fill="#77B516" d="m7.312 51.551 2.233-.84s-.626 1.526-.053 2.35c.779 1.131 1.816 2.627 1.816 2.627l-.743.563-3.253-4.7z"/><path fill="#77B516" d="m6.327 58.397-.069-2.489s1.187 1.093 2.11.781c1.266-.435 2.94-1.002 2.94-1.002l.283.913-5.264 1.797z"/><path fill="#77B516" d="M11.156 49.858c-3.063-.001-5.544 2.61-5.549 5.827 0 3.22 2.485 5.829 5.551 5.828 3.063 0 5.545-2.608 5.546-5.828 0-3.217-2.483-5.826-5.548-5.827zm.003 10.402c-2.405 0-4.355-2.047-4.355-4.574s1.95-4.572 4.355-4.574c2.402.002 4.352 2.05 4.352 4.574 0 2.525-1.949 4.574-4.352 4.574z"/><radialGradient id="c" cx="-29.093" cy="56.348" r="6.375" gradientTransform="matrix(.9543 0 0 1.0025 38.92 -.805)" gradientUnits="userSpaceOnUse"><stop offset=".491" style="stop-color:#5b666e"/><stop offset=".644" style="stop-color:#525a64"/><stop offset=".918" style="stop-color:#3c3b49"/><stop offset="1" style="stop-color:#343040"/></radialGradient><path fill="url(#c)" d="M11.308 49.373A6.313 6.313 0 0 0 5 55.684 6.312 6.312 0 0 0 11.307 62c3.481-.002 6.007-2.829 6.007-6.313-.001-3.484-2.526-6.312-6.006-6.314zm0 11.267c-2.607-.001-4.718-2.218-4.715-4.954-.002-2.736 2.109-4.951 4.715-4.953 2.601 0 4.712 2.217 4.712 4.953 0 2.738-2.109 4.955-4.712 4.954z"/><path fill="#77B516" d="m53.667 61.496-2.382-.695s1.421-.849 1.421-1.867l.002-3.248h.959v5.81z"/><path fill="#77B516" d="m58.515 56.568-1.396 2.054s-.365-1.619-1.334-1.932c-1.322-.436-3.076-1.005-3.076-1.005l.295-.916 5.511 1.799z"/><path fill="#77B516" d="m55.337 50.418 1.518 1.967s-1.646-.148-2.242.674l-1.904 2.627-.776-.563 3.404-4.705z"/><path fill="#77B516" d="m48.521 51.551 2.339-.84s-.654 1.523-.058 2.349l1.905 2.626-.777.566-3.409-4.701z"/><path fill="#77B516" d="m47.49 58.397-.075-2.489s1.248 1.095 2.212.781c1.327-.434 3.081-1.004 3.081-1.004l.296.916-5.514 1.796z"/><path fill="#77B516" d="M52.706 49.859c-3.211-.001-5.812 2.608-5.812 5.826a5.815 5.815 0 0 0 5.812 5.826c3.21.002 5.813-2.604 5.813-5.828 0-3.214-2.602-5.825-5.813-5.824zm-.002 10.401c-2.518.002-4.557-2.049-4.558-4.572a4.57 4.57 0 0 1 4.56-4.576 4.565 4.565 0 0 1 4.559 4.574 4.566 4.566 0 0 1-4.561 4.574z"/><radialGradient id="d" cx="50.934" cy="56.35" r="6.295" gradientTransform="matrix(1 0 0 1.0025 1.772 -.805)" gradientUnits="userSpaceOnUse"><stop offset=".491" style="stop-color:#5b666e"/><stop offset=".644" style="stop-color:#525a64"/><stop offset=".918" style="stop-color:#3c3b49"/><stop offset="1" style="stop-color:#343040"/></radialGradient><path fill="url(#d)" d="M52.706 49.375c-3.476 0-6.295 2.826-6.296 6.311 0 3.485 2.82 6.314 6.296 6.314 3.477-.002 6.296-2.829 6.294-6.314.002-3.483-2.817-6.311-6.294-6.311zm0 11.264c-2.729-.001-4.939-2.217-4.939-4.953s2.211-4.951 4.939-4.951c2.731-.002 4.938 2.217 4.938 4.951.001 2.736-2.207 4.955-4.938 4.953z"/><path fill="#529320" d="m21.477 57.043 1.452 2.117H41.78s8.223-1.963 11.137-2.723c.979-.254.592-1.709-.395-1.48-3.052.711-10.891 2.086-10.891 2.086H21.477z"/><path fill="#4E5E67" d="M23.087 55.723c-.001 1.058-1.582 1.058-1.583 0 .001-1.057 1.582-1.057 1.583 0z"/><linearGradient id="e" x1="9.506" x2="13.568" y1="45.125" y2="45.125" gradientTransform="translate(1.772 -1.399)" gradientUnits="userSpaceOnUse"><stop offset="0" style="stop-color:#d9e617"/><stop offset=".144" style="stop-color:#cae01d"/><stop offset=".494" style="stop-color:#acd328"/><stop offset=".791" style="stop-color:#99cc2f"/><stop offset="1" style="stop-color:#92c932"/></linearGradient><path fill="url(#e)" d="m13.958 48.318-2.68-.422 1.384-8.76 2.678.425z"/><linearGradient id="f" x1="14.703" x2="12.58" y1="31.898" y2="31.545" gradientTransform="translate(1.772 -1.399)" gradientUnits="userSpaceOnUse"><stop offset="0" style="stop-color:#92c932"/><stop offset=".208" style="stop-color:#99cc2f"/><stop offset=".506" style="stop-color:#acd328"/><stop offset=".856" style="stop-color:#cae01d"/><stop offset="1" style="stop-color:#d9e617"/></linearGradient><path fill="url(#f)" d="m15.143 39.108-2.153-.34 2.721-17.229 2.155.342z"/><linearGradient id="g" x1="14.149" x2="17.315" y1="18.579" y2="18.579" gradientTransform="translate(1.772 -1.399)" gradientUnits="userSpaceOnUse"><stop offset=".145" style="stop-color:#cfd8dd"/><stop offset=".406" style="stop-color:#c3cdd2"/><stop offset=".877" style="stop-color:#a3b0b6"/><stop offset="1" style="stop-color:#99a8ae"/></linearGradient><path fill="url(#g)" d="m17.479 22.392-1.558-.248 1.605-10.176 1.561.249z"/><path fill="#99A8AE" d="M13.565 50.792c-1.6.958-2.678-.428-2.678-.428l.346-2.18 2.677.425-.345 2.183z"/><linearGradient id="h" x1="8.891" x2="11.793" y1="54.83" y2="54.83" gradientTransform="translate(1.772 -1.399)" gradientUnits="userSpaceOnUse"><stop offset=".145" style="stop-color:#cfd8dd"/><stop offset=".406" style="stop-color:#c3cdd2"/><stop offset=".877" style="stop-color:#a3b0b6"/><stop offset="1" style="stop-color:#99a8ae"/></linearGradient><path fill="url(#h)" d="M12.109 55.938c-.249.866-1.475.676-1.446-.214.103-2.947.224-5.359.224-5.359l2.678.428c0-.001-.633 2.258-1.456 5.145z"/><path fill="#302C3B" d="M11.964 55.686a.527.527 0 1 1-1.053 0c0-.295.237-.529.526-.527a.52.52 0 0 1 .527.527z"/><circle cx="52.707" cy="55.687" r=".528" fill="#302C3B"/><path fill="#CFD8DD" d="m17.983 22.357-2.531-.402c-.46-.074-.319-.967.142-.896l2.529.406c.461.069.319.965-.14.892zm-3.956 26.491-2.976-.473c-.462-.072-.324-.966.14-.895l2.976.473c.46.074.318.968-.14.895zm1.411-8.946-2.975-.473c-.463-.076-.319-.967.141-.894l2.976.472c.462.073.319.968-.142.895z"/><path fill="#302C3B" d="M15.674 12.062c-.002.951-.662 1.724-1.468 1.724-.809 0-1.467-.771-1.467-1.722.002-.949.657-1.721 1.468-1.721.804-.001 1.465.77 1.467 1.719z"/><linearGradient id="i" x1="12.942" x2="12.942" y1="14.784" y2="12.142" gradientTransform="translate(1.772 -1.399)" gradientUnits="userSpaceOnUse"><stop offset="0" style="stop-color:#302c3b"/><stop offset=".364" style="stop-color:#3d3e4b"/><stop offset="1" style="stop-color:#5b666e"/></linearGradient><path fill="url(#i)" d="m15.786 10.743-1.479.002c-1.315 0-1.314 2.639 0 2.641h1.478c.426-.001.427-2.643.001-2.643z"/><path fill="#302C3B" d="M17.521 12.063c0 .887-.678 1.609-1.513 1.608-.837.001-1.515-.724-1.515-1.61 0-.883.677-1.607 1.516-1.607.834.001 1.512.723 1.512 1.609z"/><path fill="#B3C2C6" d="m17.423 11.203-1.495.001c-.787 0-.786 1.721.001 1.721h1.494c.445.002.444-1.721 0-1.722z"/><linearGradient id="j" x1="16.508" x2="16.508" y1="14.828" y2="12.099" gradientTransform="translate(1.772 -1.399)" gradientUnits="userSpaceOnUse"><stop offset="0" style="stop-color:#99a8ae"/><stop offset=".123" style="stop-color:#a3b0b6"/><stop offset=".594" style="stop-color:#c3cdd2"/><stop offset=".855" style="stop-color:#cfd8dd"/></linearGradient><path fill="url(#j)" d="M19.251 10.7h-1.917c-1.276 0-1.275 2.728.001 2.729l1.915-.002c1.244 0 1.243-2.727.001-2.727z"/><path fill="#B3C2C6" d="m21.06 11.09-1.824.002c-.93-.002-.931 1.944 0 1.941l1.825.002c.501.002.502-1.942-.001-1.945z"/><path fill="#302C3B" d="M22.975 12.062c.001 1.008-.769 1.827-1.718 1.824-.948 0-1.716-.817-1.716-1.824-.001-1.005.767-1.821 1.714-1.821.95-.002 1.721.814 1.72 1.821z"/><linearGradient id="k" x1="20.024" x2="20.024" y1="15.019" y2="11.905" gradientTransform="translate(1.772 -1.399)" gradientUnits="userSpaceOnUse"><stop offset="0" style="stop-color:#302c3b"/><stop offset=".364" style="stop-color:#3d3e4b"/><stop offset="1" style="stop-color:#5b666e"/></linearGradient><path fill="url(#k)" d="M23.406 10.506h-1.822c-1.866-.002-1.867 3.114 0 3.114h1.822v-3.114z"/><ellipse cx="23.154" cy="12.062" fill="#302C3B" rx="1.896" ry="2.065"/><ellipse cx="23.422" cy="12.062" fill="#CFD8DD" rx="1.353" ry="1.548"/></svg>