<svg xmlns="http://www.w3.org/2000/svg" xml:space="preserve" style="enable-background:new 0 0 64 64" viewBox="0 0 64 64"><path d="M35.2 36.802h-2.634l-.718 17.85h3z" style="fill:#1a1626"/><linearGradient id="a" x1="48.136" x2="48.136" y1="54.614" y2="24.227" gradientUnits="userSpaceOnUse"><stop offset="0" style="stop-color:#c40000"/><stop offset=".066" style="stop-color:#ce0002"/><stop offset=".245" style="stop-color:#e40008"/><stop offset=".443" style="stop-color:#f3000b"/><stop offset=".672" style="stop-color:#fc000d"/><stop offset="1" style="stop-color:#ff000e"/></linearGradient><path d="M34.345 37.821c-.006 7.188-.84 12.528-1.004 13.515-.016.091.052.17.145.176l29.279 2.077a.157.157 0 0 0 .168-.157V39.868a3.066 3.066 0 0 0-3.066-3.066h-24.51c-.56 0-1.011.458-1.012 1.02z" style="fill:url(#a)"/><linearGradient id="b" x1="17.589" x2="17.589" y1="54.857" y2="22.017" gradientUnits="userSpaceOnUse"><stop offset="0" style="stop-color:#c40000"/><stop offset=".066" style="stop-color:#ce0002"/><stop offset=".245" style="stop-color:#e40008"/><stop offset=".443" style="stop-color:#f3000b"/><stop offset=".672" style="stop-color:#fc000d"/><stop offset="1" style="stop-color:#ff000e"/></linearGradient><path d="M33.066 51.732s2.21-14.488.204-26.723C32.984 23.264 31.447 22 29.68 22h-6.713a4.25 4.25 0 0 0-3.823 2.395l-5.271 10.872-10.22 2.758A3.497 3.497 0 0 0 1.065 41.4v10.331h32z" style="fill:url(#b)"/><linearGradient id="c" x1="23.581" x2="23.581" y1="54.65" y2="50.45" gradientUnits="userSpaceOnUse"><stop offset="0" style="stop-color:#c40000"/><stop offset=".066" style="stop-color:#ce0002"/><stop offset=".245" style="stop-color:#e40008"/><stop offset=".443" style="stop-color:#f3000b"/><stop offset=".672" style="stop-color:#fc000d"/><stop offset="1" style="stop-color:#ff000e"/></linearGradient><path d="M32 50.45H14.097v4.2H32a1.06 1.06 0 0 0 1.066-1.05v-2.1c0-.575-.48-1.05-1.066-1.05z" style="fill:url(#c)"/><linearGradient id="d" x1="41.05" x2="41.05" y1="54.65" y2="50.45" gradientUnits="userSpaceOnUse"><stop offset="0" style="stop-color:#c40000"/><stop offset=".066" style="stop-color:#ce0002"/><stop offset=".245" style="stop-color:#e40008"/><stop offset=".443" style="stop-color:#f3000b"/><stop offset=".672" style="stop-color:#fc000d"/><stop offset="1" style="stop-color:#ff000e"/></linearGradient><path d="M48.787 50.45H34.379c-.586 0-1.066.475-1.066 1.05v2.1c0 .579.48 1.05 1.066 1.05h14.408v-4.2z" style="fill:url(#d)"/><linearGradient id="e" x1="4.827" x2="4.827" y1="54.65" y2="48.351" gradientUnits="userSpaceOnUse"><stop offset="0" style="stop-color:#302c3b"/><stop offset=".214" style="stop-color:#33303f"/><stop offset=".446" style="stop-color:#3e3d4b"/><stop offset=".686" style="stop-color:#4f5360"/><stop offset=".931" style="stop-color:#66717c"/><stop offset="1" style="stop-color:#6e7b85"/></linearGradient><path d="M9.653 48.35H1.066c0 .869-1.066 1.085-1.066 2.1v3.15c0 .579.481 1.05 1.066 1.05h8.587v-6.3z" style="fill:url(#e)"/><path d="M32.133 52.826c-.005.023-.007.03 0 0zm-14.948-4.531-1.735-12.83-.384.055L16.8 48.351zm2.551 4.136h13.4v.395h-13.4z" style="opacity:.2;fill:#261616"/><linearGradient id="f" x1="16.845" x2="16.845" y1="35.267" y2="23.398" gradientUnits="userSpaceOnUse"><stop offset="0" style="stop-color:#302c3b"/><stop offset=".149" style="stop-color:#253c53"/><stop offset=".357" style="stop-color:#194f6f"/><stop offset=".568" style="stop-color:#105c82"/><stop offset=".782" style="stop-color:#0b638e"/><stop offset="1" style="stop-color:#096692"/></linearGradient><path d="M19.816 23.398c-2.971 2.408-5.943 11.87-5.943 11.87h1.083l4.86-11.87z" style="fill:url(#f)"/><linearGradient id="g" x1="24.059" x2="24.059" y1="35.267" y2="23.398" gradientUnits="userSpaceOnUse"><stop offset="0" style="stop-color:#302c3b"/><stop offset=".149" style="stop-color:#253c53"/><stop offset=".357" style="stop-color:#194f6f"/><stop offset=".568" style="stop-color:#105c82"/><stop offset=".782" style="stop-color:#0b638e"/><stop offset="1" style="stop-color:#096692"/></linearGradient><path d="m20.106 24.623-4.15 10.644h15.555c.36 0 .655-.298.651-.659-.048-4.548-.582-8.208-.9-10.004a1.465 1.465 0 0 0-1.447-1.206h-7.918c-.792 0-1.503.486-1.791 1.225z" style="fill:url(#g)"/><path d="M1.332 41.583h4.002l-1.067 4H1.332v-4z" style="fill:#e6ebef"/><path d="M5.334 41.583c.587 0-.48 4-1.067 4H3.2v-4h2.134z" style="fill:#f59e01"/><path d="M61.867 39.951c-.586 0-1.067.475-1.067 1.05v2.1c0 .58.481 1.05 1.067 1.05h1.066v-4.2h-1.066z" style="fill:#b00505"/><path d="M61.867 44.151c-.586 0-.586 2.1 0 2.1h1.066v-2.1h-1.066z" style="fill:#f59e01"/><path d="M32.166 38.233c0-.44 0-.8-1.638-.8h-1.72c-1.642 0-1.642.36-1.642.8 0 .267 5 .267 5 0zM16.56 35.912l-.003-2.374c.002-1.003-2.628-.006-3.021.66-.215.365-.254 1.356.002 1.694.457.601 3.022.844 3.022.02z" style="fill:#b00505"/><linearGradient id="h" x1="-2058.731" x2="-2058.731" y1="54.65" y2="48.351" gradientTransform="matrix(-1 0 0 1 -1999.558 0)" gradientUnits="userSpaceOnUse"><stop offset="0" style="stop-color:#302c3b"/><stop offset=".214" style="stop-color:#33303f"/><stop offset=".446" style="stop-color:#3e3d4b"/><stop offset=".686" style="stop-color:#4f5360"/><stop offset=".931" style="stop-color:#66717c"/><stop offset="1" style="stop-color:#6e7b85"/></linearGradient><path d="M54.347 48.35h8.586c0 .869 1.067 1.085 1.067 2.1v3.15c0 .578-.481 1.05-1.067 1.05h-8.586v-6.3z" style="fill:url(#h)"/><path d="M58.667 54.652c0-4.642-3.817-8.398-8.534-8.398-4.708-.002-8.529 3.764-8.533 8.398h17.067z" style="fill:#1a1626"/><radialGradient id="i" cx="4.072" cy="96.108" r="6.478" gradientTransform="matrix(1.1526 0 0 1.1344 45.44 -54.374)" gradientUnits="userSpaceOnUse"><stop offset=".491" style="stop-color:#5b666e"/><stop offset=".644" style="stop-color:#525a64"/><stop offset=".918" style="stop-color:#3c3b49"/><stop offset="1" style="stop-color:#343040"/></radialGradient><path d="M57.6 54.65c0 4.06-3.342 7.35-7.467 7.35-4.123 0-7.466-3.29-7.466-7.35 0-4.057 3.343-7.347 7.466-7.347 4.125 0 7.467 3.29 7.467 7.347z" style="fill:url(#i)"/><path d="M55.298 54.65c0 2.807-2.31 5.083-5.165 5.083-2.85 0-5.162-2.276-5.162-5.083 0-2.805 2.312-5.082 5.162-5.082 2.854 0 5.165 2.277 5.165 5.082z" style="fill:#e6ebef"/><path d="M53.898 55.91a3.82 3.82 0 0 0 0-2.515l-2.215 1.255 2.215 1.26zm-2.99-2.58 2.213-1.258a4 4 0 0 0-2.213-1.262v2.52zm-4.538.063a3.89 3.89 0 0 0-.214 1.257c0 .442.08.863.215 1.257l2.214-1.257-2.214-1.257zm4.538 2.58v2.518a4.013 4.013 0 0 0 2.215-1.26l-2.215-1.258zm-1.55-2.643v-2.52a4 4 0 0 0-2.212 1.262l2.212 1.257zm0 2.643-2.212 1.258a4.011 4.011 0 0 0 2.212 1.26v-2.518z" style="fill:#4e5e67"/><path d="M52.163 54.65c0 1.104-.907 1.997-2.03 1.997-1.12 0-2.029-.893-2.029-1.997 0-1.101.909-1.996 2.03-1.996 1.122 0 2.029.895 2.029 1.996z" style="fill:#cfd8dd"/><path d="M50.808 54.65a.667.667 0 0 1-.675.662.667.667 0 0 1-.673-.662c0-.365.303-.662.673-.662.373 0 .675.297.675.662z" style="fill:#e6ebef"/><path d="M50.425 53.457c0 .38-.581.38-.581 0 0-.379.58-.379.58 0zm0 2.389c0 .379-.581.379-.581 0 0-.38.58-.38.58 0zm.906-1.546c-.335.19-.625-.304-.29-.492.334-.19.624.303.29.492zm-2.104 1.195c-.333.19-.623-.304-.29-.494.336-.191.626.303.29.494zm1.813 0c-.334-.191-.044-.685.291-.494.334.19.044.684-.291.494zM48.938 54.3c-.336-.189-.044-.683.289-.492.336.188.046.681-.29.492z" style="fill:#4e5e67"/><path d="M20.267 54.65c0-4.642-3.817-8.398-8.536-8.398-4.706-.002-8.527 3.765-8.53 8.398h17.066z" style="fill:#1a1626"/><radialGradient id="j" cx="-29.244" cy="96.108" r="6.478" gradientTransform="matrix(1.1526 0 0 1.1344 45.44 -54.374)" gradientUnits="userSpaceOnUse"><stop offset=".491" style="stop-color:#5b666e"/><stop offset=".644" style="stop-color:#525a64"/><stop offset=".918" style="stop-color:#3c3b49"/><stop offset="1" style="stop-color:#343040"/></radialGradient><path d="M19.2 54.65c0 4.06-3.342 7.35-7.467 7.35-4.12 0-7.466-3.29-7.466-7.35 0-4.057 3.345-7.347 7.466-7.347 4.125 0 7.467 3.29 7.467 7.347z" style="fill:url(#j)"/><path d="M16.898 54.65c0 2.81-2.31 5.083-5.165 5.083-2.85 0-5.162-2.273-5.162-5.083 0-2.805 2.312-5.082 5.162-5.082 2.854 0 5.165 2.277 5.165 5.082z" style="fill:#e6ebef"/><path d="M15.498 55.91a3.81 3.81 0 0 0 0-2.515l-2.213 1.255 2.213 1.26zm-2.99-2.58 2.213-1.258a4 4 0 0 0-2.213-1.262v2.52zm-4.538.063a3.88 3.88 0 0 0-.212 1.257c0 .442.077.863.213 1.26l2.215-1.26-2.215-1.257zm4.538 2.58v2.518a3.984 3.984 0 0 0 2.215-1.26l-2.215-1.258zm-1.549-2.643v-2.52a4.004 4.004 0 0 0-2.213 1.262l2.213 1.257zm0 2.643L8.746 57.23a3.997 3.997 0 0 0 2.213 1.26v-2.518z" style="fill:#4e5e67"/><path d="M13.763 54.65c0 1.104-.907 1.997-2.03 1.997-1.12 0-2.029-.893-2.029-1.997 0-1.101.908-1.996 2.03-1.996 1.122 0 2.029.895 2.029 1.996z" style="fill:#cfd8dd"/><path d="M12.41 54.65a.669.669 0 0 1-.677.662.667.667 0 0 1-.672-.662c0-.367.301-.662.672-.662a.67.67 0 0 1 .677.662z" style="fill:#e6ebef"/><path d="M12.025 53.457c0 .38-.581.38-.581 0 0-.382.58-.382.58 0zm0 2.389c0 .38-.581.38-.581 0s.58-.38.58 0zm.906-1.546c-.335.19-.623-.304-.287-.492.331-.19.62.301.287.492zm-2.104 1.195c-.333.19-.623-.304-.29-.494.336-.191.626.306.29.494zm1.813 0c-.332-.188-.044-.685.291-.494.334.19.044.684-.291.494zM10.538 54.3c-.336-.19-.044-.683.29-.492.335.188.045.681-.29.492z" style="fill:#4e5e67"/></svg>