<svg xmlns="http://www.w3.org/2000/svg" xml:space="preserve" viewBox="0 0 64 64"><radialGradient id="a" cx="10.547" cy="53.502" r="8.546" gradientTransform="translate(0 -.048)" gradientUnits="userSpaceOnUse"><stop offset=".491" style="stop-color:#5b666e"/><stop offset=".644" style="stop-color:#525a64"/><stop offset=".918" style="stop-color:#3c3b49"/><stop offset="1" style="stop-color:#343040"/></radialGradient><path fill="url(#a)" d="M10.545 44.907A8.54 8.54 0 0 0 2 53.454 8.542 8.542 0 0 0 10.545 62a8.544 8.544 0 0 0 8.549-8.546 8.543 8.543 0 0 0-8.549-8.547zm0 13.639a5.093 5.093 0 1 1 0-10.186 5.093 5.093 0 1 1 0 10.186z"/><path fill="#CFD8DD" d="M11.584 52.188v2.529h3.781v-2.529h-3.781zm2.408 1.915h-1.036c-.896 0-.896-1.302 0-1.302h1.036c.895 0 .895 1.302 0 1.302zm-5.06-.389-1.889 3.277 2.191 1.268 1.889-3.277-2.191-1.268zm.456 3.047c-.446.776-1.574.125-1.126-.65l.518-.896c.447-.774 1.574-.125 1.127.65l-.519.896zm-.154-8.115-2.191 1.266 1.894 3.278 2.191-1.267-1.894-3.277zm-.455 3.044-.517-.895c-.449-.775.679-1.426 1.125-.651l.519.897c.448.774-.679 1.426-1.127.649z"/><path fill="#B3C2C6" d="M10.543 47.897a5.556 5.556 0 1 0 .01 11.111 5.556 5.556 0 0 0-.01-11.111zm0 10.186a4.63 4.63 0 0 1 0-9.26 4.635 4.635 0 0 1 4.634 4.635 4.634 4.634 0 0 1-4.634 4.625z"/><path fill="#B3C2C6" d="M10.548 55.091a1.637 1.637 0 1 1-.003-3.277 1.637 1.637 0 0 1 .003 3.277z"/><path fill="#302C3B" d="m9.748 53.085 3.163-9.014a.9.9 0 0 1 1.152-.556.908.908 0 0 1 .554 1.154l-3.162 9.015c-.33.946-2.055.397-1.707-.599z"/><linearGradient id="b" x1="12.078" x2="12.078" y1="52.243" y2="41.56" gradientUnits="userSpaceOnUse"><stop offset="0" style="stop-color:#de9400"/><stop offset=".392" style="stop-color:#edba00"/><stop offset=".784" style="stop-color:#fada00"/><stop offset="1" style="stop-color:#ffe600"/></linearGradient><path fill="url(#b)" d="M8.269 47.97c4.272 0 6.41 4.273 9.615 4.273h3.347c0-5.344-3.347-10.684-10.826-10.684-5.342 0-7.479 3.204-7.479 4.273 0 1.066.093 2.137 2.137 2.137h3.206z"/><path fill="#E81C27" d="M60.932 40.633h-1.068v4.274h1.068C62 44.907 62 43.948 62 42.771c0-1.182 0-2.138-1.068-2.138"/><path fill="#302C3B" d="M20.924 48.482h14.978v1.39H20.924z"/><path fill="#4E5E67" d="M55.59 40.633h5.342v4.274H55.59z"/><linearGradient id="c" x1="36.273" x2="36.273" y1="53.454" y2="21.402" gradientUnits="userSpaceOnUse"><stop offset="0" style="stop-color:#de9400"/><stop offset=".032" style="stop-color:#e09902"/><stop offset=".204" style="stop-color:#eaad08"/><stop offset=".397" style="stop-color:#f2bc0d"/><stop offset=".629" style="stop-color:#f6c410"/><stop offset="1" style="stop-color:#f7c711"/></linearGradient><path fill="url(#c)" d="M16.958 27.812v-6.41h4.272c3.205 0 2.137 6.41 0 6.41-2.315 0-2.421 6.144-2.421 10.686 0 6.943 2.279 10.683 5.484 10.683H35.38s-.174-4.272 1.852-7.526c-3.356-1.91-5.289-3.156-5.289-5.294 5.811-1.674 21.083 0 21.083 0C61.807 40.396 62 53.454 62 53.454s-8.295-7.076-23.379-1.211H18.025c0-5.165-7.478-9.473-7.478-11.61.001-2.136 6.411-10.684 6.411-12.821"/><path fill="#6E8189" d="M21.23 22.471a2.136 2.136 0 1 1 .002 4.272 2.136 2.136 0 0 1-.002-4.272"/><path fill="#282433" d="M21.23 23.539a1.068 1.068 0 1 0 0 2.136h2.137v-2.137H21.23z"/><linearGradient id="d" x1="42.93" x2="42.93" y1="36.359" y2="31.512" gradientUnits="userSpaceOnUse"><stop offset="0" style="stop-color:#302c3b"/><stop offset=".364" style="stop-color:#3d3e4b"/><stop offset="1" style="stop-color:#5b666e"/></linearGradient><path fill="url(#d)" d="M51.762 31.512c-2.997 0-9.816.998-17.805.998-2 0-2.015 3.85-2.015 3.85h21.035c.001-.001 2.778-4.848-1.215-4.848"/><linearGradient id="e" x1="15.426" x2="15.426" y1="27.811" y2="21.402" gradientUnits="userSpaceOnUse"><stop offset="0" style="stop-color:#626c75"/><stop offset=".01" style="stop-color:#646e77"/><stop offset=".177" style="stop-color:#7b878f"/><stop offset=".35" style="stop-color:#8c9aa0"/><stop offset=".531" style="stop-color:#96a4ab"/><stop offset=".733" style="stop-color:#99a8ae"/></linearGradient><path fill="url(#e)" d="M13.895 21.402h3.063v6.41H14.82z"/><path fill="#6E8189" d="M23.367 23.539a1.068 1.068 0 1 1 0 2.135 1.068 1.068 0 0 1 0-2.135m-4.85-1.068c.316 0 .62-.238.674-.528l.966-5.356c.051-.291-.167-.526-.483-.526-.318 0-.527.235-.579.526l-1.062 5.356c-.053.289.166.528.484.528"/><path fill="#99A8AE" d="M21.23 12h-1.068v6.411h1.068c.294 0 1.068-1.07 1.068-3.207S21.524 12 21.23 12"/><path fill="#6E8189" d="M20.162 12c-.293 0-1.068 1.067-1.068 3.204s.775 3.207 1.068 3.207c.295 0 1.068-1.07 1.068-3.207S20.457 12 20.162 12"/><radialGradient id="f" cx="51.316" cy="53.502" r="8.546" gradientTransform="translate(0 -.048)" gradientUnits="userSpaceOnUse"><stop offset=".491" style="stop-color:#5b666e"/><stop offset=".644" style="stop-color:#525a64"/><stop offset=".918" style="stop-color:#3c3b49"/><stop offset="1" style="stop-color:#343040"/></radialGradient><path fill="url(#f)" d="M51.313 44.907a8.54 8.54 0 0 0-8.544 8.547A8.542 8.542 0 0 0 51.313 62a8.545 8.545 0 0 0 8.55-8.546 8.543 8.543 0 0 0-8.55-8.547zm0 13.639a5.091 5.091 0 0 1-5.092-5.09 5.094 5.094 0 1 1 10.187 0 5.09 5.09 0 0 1-5.095 5.09z"/><path fill="#CFD8DD" d="M52.352 52.188v2.529h3.782v-2.529h-3.782zm2.408 1.915h-1.035c-.896 0-.896-1.302 0-1.302h1.035c.895 0 .895 1.302 0 1.302zm-5.059-.389-1.891 3.277 2.191 1.268 1.891-3.277-2.191-1.268zm.456 3.047c-.448.776-1.574.125-1.128-.65l.52-.896c.446-.774 1.574-.125 1.126.65l-.518.896z"/><path fill="#B3C2C6" d="M51.313 47.897a5.557 5.557 0 0 0-5.553 5.562 5.558 5.558 0 0 0 5.553 5.55c3.068 0 5.559-2.492 5.559-5.55a5.56 5.56 0 0 0-5.559-5.562zm0 10.186a4.631 4.631 0 0 1 0-9.26 4.634 4.634 0 0 1 4.633 4.635 4.635 4.635 0 0 1-4.633 4.625z"/><linearGradient id="g" x1="47.989" x2="47.989" y1="56.815" y2="49.873" gradientUnits="userSpaceOnUse"><stop offset="0" style="stop-color:#626c75"/><stop offset=".014" style="stop-color:#646e77"/><stop offset=".242" style="stop-color:#7b878f"/><stop offset=".477" style="stop-color:#8c9aa0"/><stop offset=".724" style="stop-color:#96a4ab"/><stop offset="1" style="stop-color:#99a8ae"/></linearGradient><path fill="url(#g)" d="M51.425 56.814c-1.884 0-10.365-1.418-10.365-3.272 0-1.015.38-2.825 1.102-3.443.599-.508 8.411 0 9.264 0 4.658 0 4.658 6.715-.001 6.715z"/><circle cx="51.316" cy="53.454" r="2.563" fill="#B3C2C6"/><path fill="#4E5E67" d="M40.69 50.211c-1.511-.155-2.737 2.482-3.533 4.139-.579 1.204.754 2.751 2.692 2.576 7.07-.64 8.13-4.784.841-6.715z"/><ellipse cx="42.225" cy="53.346" fill="#302C3B" rx="4.165" ry="3.068"/><path fill="#AB5C10" d="m42.226 55.829.018-.001h-.037l.019.001z" opacity=".5"/><path fill="#4E5E67" d="M44.414 51.412a4.467 4.467 0 0 0-2.188-.552c-.832 0-1.587.212-2.188.552h4.376zm-5.492 1.104h6.605a2.372 2.372 0 0 0-.379-.552h-5.847c-.159.171-.28.357-.379.552zm-.214.83c0 .093.024.183.037.274h6.959c.014-.092.04-.182.04-.274 0-.095-.026-.185-.04-.278h-6.959c-.013.093-.037.183-.037.278zm.593 1.378h5.849c.161-.169.28-.355.379-.551h-6.606c.098.195.218.382.378.551zm.733.55a4.424 4.424 0 0 0 2.172.554h.037a4.429 4.429 0 0 0 2.174-.554h-4.383z"/><linearGradient id="h" x1="49.471" x2="49.471" y1="53.454" y2="38.497" gradientUnits="userSpaceOnUse"><stop offset="0" style="stop-color:#de9400"/><stop offset=".392" style="stop-color:#edba00"/><stop offset=".784" style="stop-color:#fada00"/><stop offset="1" style="stop-color:#ffe600"/></linearGradient><path fill="url(#h)" d="M48.111 38.497c-13.194 0-12.648 15.076-8.738 13.742C51.492 48.109 62 53.454 62 53.454s0-14.957-13.889-14.957"/><path fill="#EA8C00" d="M60.572 43.589h-.697v2.443h.697c.699 0 .699-.549.699-1.223s0-1.22-.699-1.22"/><linearGradient id="i" x1="59.165" x2="59.165" y1="46.208" y2="43.411" gradientUnits="userSpaceOnUse"><stop offset="0" style="stop-color:#de9400"/><stop offset=".032" style="stop-color:#e09902"/><stop offset=".204" style="stop-color:#eaad08"/><stop offset=".397" style="stop-color:#f2bc0d"/><stop offset=".629" style="stop-color:#f6c410"/><stop offset="1" style="stop-color:#f7c711"/></linearGradient><path fill="url(#i)" d="M57.965 44.019c.412-.469 2.607-.607 2.607-.607v2.797s-2.195-.138-2.607-.605c-.277-.316-.277-1.273 0-1.585z"/></svg>