<svg xmlns="http://www.w3.org/2000/svg" xml:space="preserve" style="enable-background:new 0 0 64 64" viewBox="0 0 64 64"><linearGradient id="a" x1="16.505" x2="61.976" y1="59.394" y2="51.007" gradientUnits="userSpaceOnUse"><stop offset="0" style="stop-color:#005687"/><stop offset=".004" style="stop-color:#005688"/><stop offset=".251" style="stop-color:#0f6da3"/><stop offset=".499" style="stop-color:#1a7cb7"/><stop offset=".749" style="stop-color:#2086c3"/><stop offset="1" style="stop-color:#2289c7"/></linearGradient><path d="M15.762 48.533c2.69 3.816 5.168 8.345 6.696 13.467H62V48.533H15.762z" style="fill:url(#a)"/><linearGradient id="b" x1="13.009" x2="42.273" y1="47.358" y2="39.155" gradientUnits="userSpaceOnUse"><stop offset="0" style="stop-color:#d1dae0"/><stop offset=".555" style="stop-color:#e1e7ec"/><stop offset=".716" style="stop-color:#e7ecf0"/></linearGradient><path d="M62 35.066H3.676s6.082 4.953 12.086 13.467H62V35.066z" style="fill:url(#b)"/><path d="M50.329 3.223a.5.5 0 0 0-.471.667l.453 1.278h1.273l1.537-1.945h-2.792z" style="fill:#a90000"/><linearGradient id="c" x1="53.394" x2="53.394" y1="11.814" y2="3.639" gradientUnits="userSpaceOnUse"><stop offset=".163" style="stop-color:#c40000"/><stop offset=".196" style="stop-color:#c70001"/><stop offset=".523" style="stop-color:#e60008"/><stop offset=".803" style="stop-color:#f8000c"/><stop offset="1" style="stop-color:#ff000e"/></linearGradient><path d="m50.31 5.168-2.416 7.285h11V5.168z" style="fill:url(#c)"/><linearGradient id="d" x1="1196.836" x2="1196.836" y1="-777.668" y2="-780.623" gradientTransform="rotate(180 626.496 -387.695)" gradientUnits="userSpaceOnUse"><stop offset=".188" style="stop-color:#ff000e"/><stop offset=".403" style="stop-color:#f4000b"/><stop offset=".776" style="stop-color:#d80005"/><stop offset="1" style="stop-color:#c40000"/></linearGradient><path d="m58.882 5.168 3.053-2.821A.2.2 0 0 0 61.8 2h-6.793a2 2 0 0 0-1.242.432l-3.454 2.736h8.57z" style="fill:url(#d)"/><path d="M47.225 10.445h12.34v1.241h-12.34z" style="fill:#99a8ae"/><radialGradient id="e" cx="38.388" cy="5.563" r="1.089" gradientUnits="userSpaceOnUse"><stop offset="0" style="stop-color:#e7ecf0"/><stop offset=".308" style="stop-color:#e4e9ed"/><stop offset=".541" style="stop-color:#dae0e4"/><stop offset=".75" style="stop-color:#cad1d5"/><stop offset=".943" style="stop-color:#b3bbc0"/><stop offset="1" style="stop-color:#abb3b8"/></radialGradient><path d="M39.678 5.846a1.09 1.09 0 1 1-2.179 0 1.09 1.09 0 0 1 2.178 0z" style="fill:url(#e)"/><linearGradient id="f" x1="38.588" x2="38.588" y1="10.721" y2="7.174" gradientUnits="userSpaceOnUse"><stop offset="0" style="stop-color:#abb3b8"/><stop offset=".249" style="stop-color:#b4bcc1"/><stop offset=".658" style="stop-color:#cdd4d8"/><stop offset="1" style="stop-color:#e7ecf0"/></linearGradient><path d="M38.382 7.174h.414v3.547h-.414z" style="fill:url(#f)"/><linearGradient id="g" x1="42.243" x2="42.243" y1="10.828" y2="7.281" gradientUnits="userSpaceOnUse"><stop offset="0" style="stop-color:#abb3b8"/><stop offset=".249" style="stop-color:#b4bcc1"/><stop offset=".658" style="stop-color:#cdd4d8"/><stop offset="1" style="stop-color:#e7ecf0"/></linearGradient><path d="M42.286 7.28H40.46l1.74 3.548h1.827z" style="fill:url(#g)"/><path d="M42.107 3.975c-.484 1.148-1.244 2.96-1.244 2.96h.27l1.209-2.87v2.87h.245v-3.04c0-.227-.306-.332-.48.08z" style="fill:#99a8ae"/><path d="M40.701 6.415h2.158v.173h-2.158zm.552-1.308h1.605v.173h-1.605zm-.274.654h1.88v.173h-1.88zm.566-1.307h1.314v.173h-1.314z" style="fill:#6e8189"/><linearGradient id="h" x1="39.805" x2="39.805" y1="7.74" y2="6.455" gradientUnits="userSpaceOnUse"><stop offset="0" style="stop-color:#abb3b8"/><stop offset=".057" style="stop-color:#b3bbc0"/><stop offset=".251" style="stop-color:#cad1d5"/><stop offset=".459" style="stop-color:#dae0e4"/><stop offset=".692" style="stop-color:#e4e9ed"/><stop offset="1" style="stop-color:#e7ecf0"/></linearGradient><path d="M36.819 6.865c-.43 0-.43.618 0 .618h6.04c.34 0 .34-.618 0-.618h-6.04z" style="fill:url(#h)"/><linearGradient id="i" x1="54.303" x2="54.303" y1="15.822" y2="11.228" gradientUnits="userSpaceOnUse"><stop offset="0" style="stop-color:#bcc4c9"/><stop offset=".338" style="stop-color:#c7ced3"/><stop offset=".921" style="stop-color:#e3e8ec"/><stop offset="1" style="stop-color:#e7ecf0"/></linearGradient><path d="m46.605 11.367 3.829 3.699H62v-3.7z" style="fill:url(#i)"/><linearGradient id="j" x1="20.297" x2="60.916" y1="23.259" y2="38.043" gradientUnits="userSpaceOnUse"><stop offset=".201" style="stop-color:#e7ecf0"/><stop offset=".35" style="stop-color:#dfe5ea"/><stop offset=".646" style="stop-color:#d4dde2"/><stop offset="1" style="stop-color:#d1dae0"/></linearGradient><path d="m23.7 25.442-1.889 2.36c1.95 2.689-2.821 3.528-2.821 3.528L16 35.066h46v-10H24.48a1 1 0 0 0-.78.376z" style="fill:url(#j)"/><linearGradient id="k" x1="28.228" x2="61.766" y1="14.326" y2="26.532" gradientUnits="userSpaceOnUse"><stop offset=".084" style="stop-color:#e7ecf0"/><stop offset=".237" style="stop-color:#d8dfe4"/><stop offset=".419" style="stop-color:#cdd6dc"/><stop offset=".637" style="stop-color:#cad3d9"/></linearGradient><path d="m33.7 15.442-1.889 2.36s1.285 2.347-2.821 3.527L26 25.066h36v-10H34.48a1 1 0 0 0-.78.376z" style="fill:url(#k)"/><linearGradient id="l" x1="30.14" x2="50.434" y1="12.566" y2="12.566" gradientUnits="userSpaceOnUse"><stop offset=".084" style="stop-color:#e7ecf0"/><stop offset=".157" style="stop-color:#dbe1e5"/><stop offset=".299" style="stop-color:#cad1d5"/><stop offset=".453" style="stop-color:#bfc7cc"/><stop offset=".637" style="stop-color:#bcc4c9"/></linearGradient><path d="M50.434 15.066H35.262a2 2 0 0 1-1.414-.586l-1.396-1.396s1.672-1.062-1.717-1.717l-.448-.448a.5.5 0 0 1 .354-.853h13.136a4 4 0 0 1 2.828 1.171l3.829 3.829z" style="fill:url(#l)"/><linearGradient id="m" x1="36.593" x2="36.593" y1="13.084" y2="11.254" gradientUnits="userSpaceOnUse"><stop offset="0" style="stop-color:#302c3b"/><stop offset="1" style="stop-color:#096692"/></linearGradient><path d="m42.452 13.084-1.718-1.717h-10l1.718 1.717z" style="fill:url(#m)"/><linearGradient id="n" x1="45.495" x2="45.495" y1="21.329" y2="17.803" gradientUnits="userSpaceOnUse"><stop offset="0" style="stop-color:#302c3b"/><stop offset="1" style="stop-color:#096692"/></linearGradient><path d="m62 21.293-33.01.036 2.821-3.526H62z" style="fill:url(#n)"/><linearGradient id="o" x1="40.495" x2="40.495" y1="31.329" y2="27.803" gradientUnits="userSpaceOnUse"><stop offset="0" style="stop-color:#302c3b"/><stop offset="1" style="stop-color:#096692"/></linearGradient><path d="m62 31.293-43.01.037 2.821-3.527H62z" style="fill:url(#o)"/><linearGradient id="p" x1="2" x2="28.578" y1="34" y2="34" gradientUnits="userSpaceOnUse"><stop offset=".163" style="stop-color:#c40000"/><stop offset=".196" style="stop-color:#c70001"/><stop offset=".523" style="stop-color:#e60008"/><stop offset=".803" style="stop-color:#f8000c"/><stop offset="1" style="stop-color:#ff000e"/></linearGradient><path d="M28.578 35.066H3.676L2.18 33.814c-.36-.301-.144-.88.328-.88h23.668a2.19 2.19 0 0 1 1.985 1.248l.417.884z" style="fill:url(#p)"/><path d="M58 40.533h2v2h-2zm-4 0h2v2h-2zm-24.5-1.467h-3a.5.5 0 0 1-.5-.5v-1a.5.5 0 0 1 .5-.5h3a.5.5 0 0 1 .5.5v1a.5.5 0 0 1-.5.5zm-5 0h-3a.5.5 0 0 1-.5-.5v-1a.5.5 0 0 1 .5-.5h3a.5.5 0 0 1 .5.5v1a.5.5 0 0 1-.5.5zm-5 0h-3a.5.5 0 0 1-.5-.5v-1a.5.5 0 0 1 .5-.5h3a.5.5 0 0 1 .5.5v1a.5.5 0 0 1-.5.5zm-5 0h-3a.5.5 0 0 1-.5-.5v-1a.5.5 0 0 1 .5-.5h3a.5.5 0 0 1 .5.5v1a.5.5 0 0 1-.5.5zM54 45.533h2v2h-2zm-4 0h2v2h-2zm-4 0h2v2h-2zm-12 0h2v2h-2zm-4 0h2v2h-2zm-4 0h2v2h-2zm28 5h2v2h-2zm-4 0h2v2h-2zm-12 0h2v2h-2zm-4 0h2v2h-2zm-4 0h2v2h-2z" style="fill:#36363d"/><linearGradient id="q" x1="35.211" x2="35.211" y1="36.575" y2="34.52" gradientUnits="userSpaceOnUse"><stop offset="0" style="stop-color:#e66000"/><stop offset=".5" style="stop-color:#f17200"/><stop offset="1" style="stop-color:#f80"/></linearGradient><path d="M38.653 34.702c0-.202-6.884-.202-6.884 0 0 .428.662 1.848 2.934 1.848h2.177c1.463 0 1.773-1.431 1.773-1.848z" style="fill:url(#q)"/><linearGradient id="r" x1="42.769" x2="42.769" y1="36.575" y2="34.52" gradientUnits="userSpaceOnUse"><stop offset="0" style="stop-color:#e66000"/><stop offset=".5" style="stop-color:#f17200"/><stop offset="1" style="stop-color:#f80"/></linearGradient><path d="M46.211 34.702c0-.202-6.884-.202-6.884 0 0 .428.662 1.848 2.934 1.848h2.177c1.463 0 1.773-1.431 1.773-1.848z" style="fill:url(#r)"/><linearGradient id="s" x1="50.327" x2="50.327" y1="36.575" y2="34.52" gradientUnits="userSpaceOnUse"><stop offset="0" style="stop-color:#e66000"/><stop offset=".5" style="stop-color:#f17200"/><stop offset="1" style="stop-color:#f80"/></linearGradient><path d="M53.77 34.702c0-.202-6.885-.202-6.885 0 0 .428.662 1.848 2.934 1.848h2.177c1.462 0 1.773-1.431 1.773-1.848z" style="fill:url(#s)"/></svg>