<svg xmlns="http://www.w3.org/2000/svg" xml:space="preserve" viewBox="0 0 64 64"><path fill="#E81C27" d="M2.999 39.749c.096 11.169 5.348 14.632 15.213 6.938 1.337-1.044 30.263-20.842 30.761-21.19.219-.152 1.517.871 1.517.99 0 1.252-30.739 21.421-31.759 22.252C8.41 57.177.795 50.891.005 40.129c-.14-1.868 2.983-1.98 2.994-.38z"/><path fill="#B00505" d="M2.999 39.749c.396 11.16 6.513 15.391 16.377 7.695 1.338-1.043 30.316-20.811 30.856-21.059.542-.247.542 1.932.21 2.229-.335.295-29.529 20.051-30.545 20.884-10.32 8.438-17.938 2.152-18.729-8.611-.136-1.868 1.787-2.427 1.831-1.138z"/><path fill="#B00505" d="M17.39 34.436c.818.536 14.458 9.757 16.303 10.946.224.146.388 1.831.207 2.006-.244.238-1.196.99-1.295.892-3.79-3.747-15.746-11.9-16.775-12.594-.436-.295 1.023-1.603 1.56-1.25zm22.673-15.499c.818.537 14.456 9.758 16.302 10.948.226.145.388 1.83.209 2.006-.244.237-1.196.989-1.296.89-3.79-3.746-15.746-11.9-16.775-12.593-.437-.296 1.022-1.603 1.56-1.251z"/><path fill="#E81C27" d="M16.33 48.337c.096 11.169 5.346 14.633 15.211 6.938 1.337-1.044 30.264-20.84 30.764-21.189.216-.152 1.514.871 1.514.99 0 1.252-30.741 21.42-31.757 22.254-10.321 8.438-17.938 2.152-18.728-8.613-.138-1.869 2.981-1.982 2.996-.38z"/><path fill="#B00505" d="M63.563 34.975c-.167.076-3.035 2.007-6.958 4.668l-1.39-8.635-1.39.603 1.402 8.969c-7.434 5.049-17.659 12.041-21.248 14.549l-1.375-8.568-1.386.6 1.485 8.873c-9.862 7.696-15.981 3.466-16.375-7.695-.046-1.29-1.967-.73-1.831 1.139.789 10.765 8.406 17.049 18.726 8.61 1.02-.832 30.213-20.587 30.546-20.883.336-.301.336-2.476-.206-2.23z"/><path fill="#E81C27" d="M32.605 48.279c.2.142.015-1.923-.213-2.065-1.844-1.19-15.485-10.411-16.302-10.948-.538-.353-.49 1.448-.053 1.744.917.616 9.184 6.16 13.988 9.467l1.41 8.851 1.269.705-1.277-8.584c.461.321.861.602 1.178.83zm22.459-17.564c-1.846-1.191-15.485-10.411-16.302-10.948-.54-.352-.487 1.449-.055 1.743.913.615 9.113 6.113 13.926 9.426l1.335 8.863 1.259.78-1.192-8.673c.488.339.908.637 1.242.874.198.143.015-1.92-.213-2.065z"/><linearGradient id="a" x1="41.103" x2="28.276" y1="38.243" y2="28.077" gradientUnits="userSpaceOnUse"><stop offset="0" style="stop-color:#916958"/><stop offset=".265" style="stop-color:#976d5b"/><stop offset=".613" style="stop-color:#a77763"/><stop offset="1" style="stop-color:#c2886f"/></linearGradient><path fill="url(#a)" d="M44.932 16.009c-.819.537-30.096 20.672-31.942 21.862-.227.146-.21 1.216-.186 1.47.525 5.426 6.507 10.896 14.563 10.034 4.137-3.323 32.172-23.894 32.172-23.894s-14.072-9.825-14.607-9.472z"/><path fill="#45332C" d="M59.54 25.481S29.042 46.495 27.197 47.685c-4.659 1.095-13.867-3.216-14.294-9.681-1.729 6.399 7.996 13.154 14.465 11.37 3.32-2.385 30.876-21.353 31.995-22.108.437-.292.177-1.785.177-1.785z"/><path fill="#45332C" d="M47.535 17.399 13.653 40.973l.103.36 34.167-23.688zm3.732 2.431L16.144 44.322l.106.36 35.358-24.624zm3.985 2.693L20.076 47.085l.106.359 35.468-24.65z"/></svg>