<svg xmlns="http://www.w3.org/2000/svg" xml:space="preserve" style="enable-background:new 0 0 64 64" viewBox="0 0 64 64"><linearGradient id="a" x1="28.865" x2="32.484" y1="35.15" y2="35.15" gradientUnits="userSpaceOnUse"><stop offset="0" style="stop-color:#947558"/><stop offset="1" style="stop-color:#6b4c24"/></linearGradient><path d="M32.484 32.56c0-.537-2.518-1.075-3-.409-.829 1.148-.823 4.835 0 5.988.479.669 3 .162 3-.409v-5.17z" style="fill:url(#a)"/><path d="M43.514 20.64v19.804H48.5V15.148H21.15v3.565h20.439c1.064 0 1.926.863 1.926 1.927z" style="fill:#c28500"/><path d="m23.371 42.833 4.963 3.532v-3.532z" style="fill:#008c48"/><linearGradient id="b" x1="27.583" x2="27.583" y1="43.368" y2="39.367" gradientUnits="userSpaceOnUse"><stop offset="0" style="stop-color:#6b4c24"/><stop offset="1" style="stop-color:#947558"/></linearGradient><path d="M23.018 40.499v1.737c0 .625.506 1.132 1.132 1.132h7.999v-4.001h-8c-.625 0-1.131.507-1.131 1.132z" style="fill:url(#b)"/><linearGradient id="c" x1="43.831" x2="47.451" y1="35.15" y2="35.15" gradientUnits="userSpaceOnUse"><stop offset="0" style="stop-color:#947558"/><stop offset="1" style="stop-color:#6b4c24"/></linearGradient><path d="M47.451 32.56c0-.537-2.518-1.075-3-.409-.829 1.148-.823 4.835 0 5.988.479.669 3 .162 3-.409v-5.17z" style="fill:url(#c)"/><path d="m38.338 42.833 4.963 3.532v-3.532z" style="fill:#008c48"/><linearGradient id="d" x1="42.55" x2="42.55" y1="43.368" y2="39.367" gradientUnits="userSpaceOnUse"><stop offset="0" style="stop-color:#6b4c24"/><stop offset="1" style="stop-color:#947558"/></linearGradient><path d="M37.984 40.499v1.737c0 .625.507 1.132 1.132 1.132h8v-4.001h-8c-.625 0-1.132.507-1.132 1.132z" style="fill:url(#d)"/><radialGradient id="e" cx="47.909" cy="60.185" r="5.057" gradientTransform="matrix(1.3841 0 0 -1.3842 -14.405 138.308)" gradientUnits="userSpaceOnUse"><stop offset=".491" style="stop-color:#5b666e"/><stop offset=".644" style="stop-color:#525a64"/><stop offset=".918" style="stop-color:#3c3b49"/><stop offset="1" style="stop-color:#343040"/></radialGradient><path d="M51.906 48c3.864 0 7 3.135 7 7a7.001 7.001 0 0 1-14 0 7 7 0 0 1 7-7z" style="fill:url(#e)"/><path d="M56.486 55.002a4.581 4.581 0 1 1-9.162-.003 4.581 4.581 0 0 1 9.162.002z" style="fill:#99a8ae"/><path d="M51.906 51.074a3.927 3.927 0 0 1 0 7.852A3.928 3.928 0 0 1 47.98 55a3.928 3.928 0 0 1 3.926-3.926z" style="fill:#e6ebef"/><path d="M52.32 52.072c0 .55-.83.55-.83 0 0-.549.83-.549.83 0zm0 5.854c0 .555-.83.555-.83 0 0-.546.83-.546.83 0zm2.328-4.038c-.476.278-.884-.433-.409-.71.471-.273.883.44.409.71zm-5.075 2.932c-.469.27-.88-.438-.406-.71.47-.275.882.435.406.71zm4.659 0c-.468-.275-.06-.984.414-.71.473.272.062.98-.414.71zm-5.065-2.932c-.476-.27-.063-.978.406-.707.476.274.065.984-.406.707z" style="fill:#4e5e67"/><path d="M54.196 55a2.29 2.29 0 1 1-4.583 0 2.29 2.29 0 0 1 4.583 0z" style="fill:#99a8ae"/><path d="M53.737 55a1.831 1.831 0 1 1-3.664 0 1.831 1.831 0 1 1 3.664 0z" style="fill:#e6ebef"/><radialGradient id="f" cx="-69.632" cy="15.202" r="5.833" gradientTransform="matrix(1.2 0 0 -1.2 92.936 73.243)" gradientUnits="userSpaceOnUse"><stop offset=".491" style="stop-color:#5b666e"/><stop offset=".644" style="stop-color:#525a64"/><stop offset=".918" style="stop-color:#3c3b49"/><stop offset="1" style="stop-color:#343040"/></radialGradient><path d="M9.378 48a7 7 0 1 1 0 14 7 7 0 0 1 0-14z" style="fill:url(#f)"/><path d="M13.96 55.002a4.582 4.582 0 1 1-9.164-.005 4.582 4.582 0 0 1 9.164.005z" style="fill:#99a8ae"/><path d="M9.378 51.074a3.927 3.927 0 1 1 0 7.854 3.927 3.927 0 0 1 0-7.854z" style="fill:#e6ebef"/><path d="M9.791 52.072c0 .55-.829.55-.829 0 0-.549.83-.549.83 0zm0 5.854c0 .555-.829.555-.829 0 0-.546.83-.546.83 0zm2.329-4.038c-.476.278-.885-.433-.409-.71.471-.273.882.44.41.71zM7.046 56.82c-.47.27-.881-.438-.409-.71.473-.275.886.435.409.71zm4.66 0c-.468-.275-.062-.984.412-.71.472.272.062.98-.412.71zm-5.069-2.932c-.472-.27-.061-.978.409-.707.474.274.064.984-.409.707z" style="fill:#4e5e67"/><path d="M11.668 55a2.289 2.289 0 1 1-4.58 0 2.287 2.287 0 0 1 2.289-2.288A2.287 2.287 0 0 1 11.667 55z" style="fill:#99a8ae"/><path d="M11.211 55a1.837 1.837 0 0 1-1.838 1.832c-1.01 0-1.829-.82-1.829-1.832s.82-1.832 1.829-1.832c1.012 0 1.838.82 1.838 1.832z" style="fill:#e6ebef"/><path d="M8.225 44.893c-5.805 1.347-6.737 7.415-6.014 8.128.96.938 1.378-4.244 8.346-4.438 3.75-.105 3.187-4.97-2.332-3.69z" style="fill:#008c48"/><linearGradient id="g" x1="31.497" x2="32.997" y1="27.36" y2="27.36" gradientUnits="userSpaceOnUse"><stop offset="0" style="stop-color:#ced7dc"/><stop offset=".189" style="stop-color:#c4cdd1"/><stop offset=".518" style="stop-color:#a9b1b5"/><stop offset=".943" style="stop-color:#7c8488"/><stop offset="1" style="stop-color:#767d81"/></linearGradient><path d="M32.997 38.014h-1.5V16.705h1.5z" style="fill:url(#g)"/><linearGradient id="h" x1="-78.404" x2="-78.404" y1="33.538" y2="54.873" gradientTransform="matrix(1 0 0 -1 94 70)" gradientUnits="userSpaceOnUse"><stop offset="0" style="stop-color:#302c3b"/><stop offset="1" style="stop-color:#096692"/></linearGradient><path d="M17.825 15.416c-1.41 1.368-9.611 17.307-9.611 20.19l8.922.856 5.843-21.335-5.154.29z" style="fill:url(#h)"/><linearGradient id="i" x1="-74.367" x2="-74.367" y1="14.274" y2="31.959" gradientTransform="matrix(1 0 0 -1 94 70)" gradientUnits="userSpaceOnUse"><stop offset="0" style="stop-color:#008c48"/><stop offset="1" style="stop-color:#00bf62"/></linearGradient><path d="M27.8 43.394v9.195h-7.667c-1.066 0-2.133-1.046-2.133-2.092V38.041H7.334c0 1.711.404 17.685 11.879 17.685h11.654l1.066-12.332H27.8z" style="fill:url(#i)"/><path d="M18 38.041H7.334c0-1.428.092-2.435.092-2.435h6.597c1.29 0 2.39-.9 2.61-2.135l4.58-16.63 2.648-1.57-5.86 22.77z" style="fill:#ffe12c"/><linearGradient id="j" x1="-77.353" x2="-33" y1="44.98" y2="44.98" gradientTransform="matrix(1 0 0 -1 94 70)" gradientUnits="userSpaceOnUse"><stop offset="0" style="stop-color:#ffe600"/><stop offset="1" style="stop-color:#ffc800"/></linearGradient><path d="M61 40.041c0-3.792-1.351-9.65-1.815-21.335 0 0-2.184-2.001-5.203-5.711 0 0-6.667-2-9.66-2.995-3.591.46-10.229.3-13.646 0-5.161 1.112-8.688 1.572-10.269 1.743a1.403 1.403 0 0 0-1.182.988c-.963 3.127-3.328 3.45-2.342 3.974l4.33.136H44.01a2.333 2.333 0 0 1 2.333 2.332v20.868H61z" style="fill:url(#j)"/><linearGradient id="k" x1="-47.567" x2="-47.567" y1="6.967" y2="32.152" gradientTransform="matrix(1 0 0 -1 94 70)" gradientUnits="userSpaceOnUse"><stop offset="0" style="stop-color:#008c48"/><stop offset="1" style="stop-color:#00bf62"/></linearGradient><path d="M43.396 40.041c-.85 0-1.58.513-1.736 1.324l-2.106 9.827c-.158.81-.306 1.397-1.154 1.397h-4.333c-.975 0-1.067-.099-1.067-1.046V37.967h-1.467a.666.666 0 0 0-.666.667v17.092h14.12c.527 0 .991-.35 1.138-.856l.733-2.526a3.108 3.108 0 0 1 2.985-2.242h4.3c1.379 0 2.593.909 2.981 2.232l.747 2.54c.148.505.611.852 1.137.852h1.523A1.47 1.47 0 0 0 62 54.256l-1.56-5.61s-.416-.354.56-.855v-2.57c-1.053-.428-.56-.857-.56-.857v-2.569s-.34-.37.56-.856v-.898H43.396z" style="fill:url(#k)"/><path d="M60.44 41.795c-.236-.28-1.168-.332-1.67-.34v3.158c.45.018 1.427.025 1.67-.249.425-.481.414-2.078 0-2.569z" style="fill:#ff8400"/><linearGradient id="l" x1="59.793" x2="59.793" y1="43.375" y2="42.701" gradientUnits="userSpaceOnUse"><stop offset="0" style="stop-color:#767d81"/><stop offset=".057" style="stop-color:#7c8488"/><stop offset=".482" style="stop-color:#a9b1b5"/><stop offset=".811" style="stop-color:#c4cdd1"/><stop offset="1" style="stop-color:#ced7dc"/></linearGradient><path d="M60.728 42.713c-.277 0-1.456-.012-1.959-.012-.08 0-.08.662 0 .662.45 0 1.704.012 1.984.012.181 0 .156-.662-.025-.662z" style="fill:url(#l)"/><path d="M45.175 40.94c-.606 0-.606.855 0 .855H60.44l.56-.856H45.175zm-.952 3.424c-.608 0-.608.858 0 .858H61l-.56-.858H44.223zm-.954 3.427a.428.428 0 0 0 0 .855h17.17L61 47.79H43.269z" style="fill:#009e51"/><linearGradient id="m" x1="11.098" x2="11.098" y1="41.435" y2="38.646" gradientUnits="userSpaceOnUse"><stop offset="0" style="stop-color:#a1a9ad"/><stop offset=".14" style="stop-color:#a9b1b5"/><stop offset=".685" style="stop-color:#c4cdd1"/><stop offset="1" style="stop-color:#ced7dc"/></linearGradient><path d="M12.886 41.435H8.827c-.233 0-.233-2.788 0-2.789h4.059c.876 0 .876 2.79 0 2.79z" style="fill:url(#m)"/><path d="M12.525 41.151H8.802c-.39 0-.39-2.22 0-2.22h3.723c.481 0 .481 2.22 0 2.22z" style="fill:#ff8400"/><path d="M59.185 18.706S53.569 16.85 43.66 16.85c-.571 0-.571.429 0 .429 9.898 0 15.525 1.427 15.525 1.427z" style="opacity:.5;fill:#c28500"/><path d="M48.013 38.206c.244 0 .442.192.442.432s-.198.433-.442.433a.437.437 0 0 1-.442-.433c0-.24.199-.432.442-.432zm5.867-.001c.243 0 .441.195.441.433 0 .24-.198.433-.441.433a.438.438 0 0 1-.442-.433c0-.238.198-.433.442-.433zm5.868.006c.244 0 .441.191.441.427a.435.435 0 0 1-.441.428.436.436 0 0 1-.442-.428c0-.236.198-.427.442-.427z" style="fill:#c28500"/></svg>