<svg xmlns="http://www.w3.org/2000/svg" xml:space="preserve" style="enable-background:new 0 0 64 64" viewBox="0 0 64 64"><linearGradient id="a" x1="12.192" x2="17.075" y1="119.618" y2="97.666" gradientTransform="matrix(.9433 .1439 -.1557 1.0363 15.8 -82.522)" gradientUnits="userSpaceOnUse"><stop offset=".296" style="stop-color:#01458a"/><stop offset=".368" style="stop-color:#014487"/><stop offset=".421" style="stop-color:#013f7e"/><stop offset=".468" style="stop-color:#01376e"/><stop offset=".512" style="stop-color:#012c57"/><stop offset=".553" style="stop-color:#011d3a"/><stop offset=".558" style="stop-color:#011b36"/></linearGradient><path d="M21.086 25.893 5.162 23.137 2.396 43.544l15.993 2.671z" style="fill:url(#a)"/><path d="M4.838 22.584 2 43.98l16.657 2.78 2.839-21.397-16.657-2.78zm8.386 2.086 3.71.62-.843 6.485-3.71-.62.843-6.485zM15.2 38.628l-3.71-.619.844-6.486 3.71.619-.844 6.486zm-.89 6.853-3.71-.62.843-6.485 3.71.62-.844 6.485zm-6.865-7.772 3.709.619-.844 6.486-3.708-.62.843-6.485zm.891-6.853 3.709.619-.843 6.486-3.71-.619.844-6.486zm.891-6.853 3.71.62-.844 6.485-3.709-.62.844-6.485zm-3.998-.667 3.71.619-.844 6.486-3.71-.62.844-6.485zm-.891 6.853 3.71.619-.844 6.486-3.71-.62.844-6.485zm-.892 6.853 3.71.619-.843 6.485-3.71-.619.843-6.485zm14.86 9.106-3.708-.619.844-6.485 3.708.618-.843 6.486zm.892-6.853-3.709-.619.844-6.486 3.708.619-.843 6.486zm-2.817-7.472.843-6.485 3.709.618-.844 6.486-3.708-.619z" style="fill:#9298a1"/><linearGradient id="b" x1="308.136" x2="327.961" y1="-627.245" y2="-627.245" gradientTransform="scale(1 -1) rotate(-45 926.3 .134)" gradientUnits="userSpaceOnUse"><stop offset="0" style="stop-color:#b3b4b5"/><stop offset=".262" style="stop-color:#d5d5d6"/><stop offset=".454" style="stop-color:#f0f0f0"/><stop offset=".51" style="stop-color:#e1e1e3"/><stop offset=".62" style="stop-color:#b8bbc0"/><stop offset=".73" style="stop-color:#8a9099"/><stop offset=".897" style="stop-color:#a2a5a9"/><stop offset="1" style="stop-color:#b3b4b5"/></linearGradient><path d="M42.104 9.847c3.83-3.827 10.066-3.791 13.936.081 3.874 3.87 3.91 10.108.083 13.935L42.104 9.848z" style="fill:url(#b)"/><linearGradient id="c" x1="307.446" x2="328.653" y1="-630.919" y2="-630.919" gradientTransform="scale(1 -1) rotate(-45 926.3 .134)" gradientUnits="userSpaceOnUse"><stop offset="0" style="stop-color:#d3d4d6"/><stop offset=".355" style="stop-color:#f5f5f5"/><stop offset=".454" style="stop-color:#fff"/><stop offset=".507" style="stop-color:#f0f0f2"/><stop offset=".612" style="stop-color:#c7cacf"/><stop offset=".73" style="stop-color:#9298a1"/><stop offset=".841" style="stop-color:#aaaeb5"/><stop offset="1" style="stop-color:#d3d4d6"/></linearGradient><path d="M54.453 26.51 39.458 11.516l1.96-1.96c2.258-2.258 7.444-.733 11.584 3.41 4.143 4.14 5.669 9.326 3.414 11.584l-1.963 1.96z" style="fill:url(#c)"/><path d="M51.375 14.595c-4.144-4.14-9.167-5.829-11.223-3.771l.33-.328c2.058-2.06 7.081-.368 11.22 3.771 4.14 4.142 5.83 9.165 3.772 11.223l-.328.328c2.058-2.058.369-7.081-3.771-11.223z" style="fill:#9298a1"/><path d="M40.851 25.12c-4.37-4.373-5.984-9.847-3.603-12.227 2.383-2.383 7.857-.77 12.227 3.6 4.373 4.37 5.984 9.844 3.603 12.228-2.383 2.38-7.857.769-12.227-3.601z" style="fill:#f29f00"/><linearGradient id="d" x1="306.858" x2="329.241" y1="-634.323" y2="-634.323" gradientTransform="scale(1 -1) rotate(-45 926.3 .134)" gradientUnits="userSpaceOnUse"><stop offset="0" style="stop-color:#ffd500"/><stop offset=".49" style="stop-color:#ffc700"/><stop offset="1" style="stop-color:#ffb300"/></linearGradient><path d="M49.444 16.526c-4.375-4.37-9.832-5.998-12.192-3.635l.538-.535c2.363-2.366 7.82-.735 12.19 3.634 4.369 4.372 5.997 9.83 3.634 12.192l-.535.536c2.362-2.363.734-7.82-3.635-12.192z" style="fill:url(#d)"/><linearGradient id="e" x1="307.446" x2="328.653" y1="-641.496" y2="-641.496" gradientTransform="scale(1 -1) rotate(-45 926.3 .134)" gradientUnits="userSpaceOnUse"><stop offset="0" style="stop-color:#6e7b85"/><stop offset=".244" style="stop-color:#636d78"/><stop offset=".707" style="stop-color:#454754"/><stop offset="1" style="stop-color:#302c3b"/></linearGradient><path d="M43.776 37.186 28.782 22.192l8.355-8.355c2.258-2.258 7.443-.732 11.584 3.41 4.142 4.14 5.669 9.326 3.414 11.584l-8.359 8.355z" style="fill:url(#e)"/><linearGradient id="f" x1="307.446" x2="328.653" y1="-646.666" y2="-646.666" gradientTransform="scale(1 -1) rotate(-45 926.3 .134)" gradientUnits="userSpaceOnUse"><stop offset="0" style="stop-color:#02d6b4"/><stop offset=".205" style="stop-color:#24e2c4"/><stop offset=".454" style="stop-color:#52f2d9"/><stop offset=".514" style="stop-color:#4be3cc"/><stop offset=".632" style="stop-color:#37baa8"/><stop offset=".73" style="stop-color:#259487"/><stop offset=".805" style="stop-color:#239789"/><stop offset=".867" style="stop-color:#1ea290"/><stop offset=".925" style="stop-color:#15b39c"/><stop offset=".98" style="stop-color:#08cbad"/><stop offset="1" style="stop-color:#02d6b4"/></linearGradient><path d="M38.87 42.092 23.878 27.098 34.73 16.242c2.258-2.258 7.443-.732 11.584 3.41 4.142 4.14 5.668 9.326 3.413 11.584L38.871 42.092z" style="fill:url(#f)"/><path d="M27.042 38.93c-4.37-4.373-5.984-9.847-3.604-12.227 2.383-2.384 7.857-.77 12.227 3.6 4.373 4.37 5.984 9.844 3.604 12.227-2.384 2.38-7.857.77-12.227-3.6z" style="fill:#f29f00"/><path d="M27.47 38.501c-3.955-3.958-5.467-8.86-3.376-10.95 2.093-2.094 6.995-.582 10.95 3.373 3.958 3.955 5.467 8.857 3.377 10.95-2.094 2.091-6.996.582-10.95-3.373z" style="fill:#269184"/><path d="M28.119 37.852c-3.278-3.28-4.531-7.342-2.798-9.075 1.734-1.735 5.797-.482 9.075 2.796 3.28 3.277 4.53 7.34 2.798 9.075-1.735 1.733-5.798.482-9.075-2.796z" style="fill:#494f52"/><linearGradient id="g" x1="306.858" x2="329.241" y1="-653.7" y2="-653.7" gradientTransform="scale(1 -1) rotate(-45 926.3 .134)" gradientUnits="userSpaceOnUse"><stop offset="0" style="stop-color:#ffd500"/><stop offset=".49" style="stop-color:#ffc700"/><stop offset="1" style="stop-color:#ffb300"/></linearGradient><path d="M35.634 30.336c-4.374-4.37-9.831-5.998-12.192-3.635l.755-.752c2.363-2.366 7.82-.735 12.19 3.634 4.369 4.372 5.997 9.83 3.634 12.192l-.752.752c2.363-2.362.735-7.82-3.635-12.191z" style="fill:url(#g)"/><path d="M37.365 28.605c-4.144-4.14-9.167-5.829-11.223-3.771l.33-.328c2.058-2.06 7.081-.368 11.22 3.771 4.14 4.142 5.83 9.165 3.772 11.223l-.328.327c2.058-2.057.369-7.08-3.77-11.222zm8.732-8.732c-4.144-4.14-9.24-5.756-11.386-3.608l.344-.342c2.148-2.15 7.244-.531 11.384 3.608 4.14 4.142 5.755 9.238 3.608 11.386l-.342.342c2.147-2.148.531-7.244-3.608-11.386z" style="fill:#269184"/><linearGradient id="h" x1="309.897" x2="326.2" y1="-659.519" y2="-659.519" gradientTransform="scale(1 -1) rotate(-45 926.3 .134)" gradientUnits="userSpaceOnUse"><stop offset="0" style="stop-color:#d3d4d6"/><stop offset=".355" style="stop-color:#f5f5f5"/><stop offset=".454" style="stop-color:#fff"/><stop offset=".507" style="stop-color:#f0f0f2"/><stop offset=".612" style="stop-color:#c7cacf"/><stop offset=".73" style="stop-color:#9298a1"/><stop offset=".841" style="stop-color:#aaaeb5"/><stop offset="1" style="stop-color:#d3d4d6"/></linearGradient><path d="M31.403 46.092 19.876 34.565l4.938-4.938c1.82-1.82 5.875-.716 9.058 2.469 3.184 3.182 4.29 7.237 2.471 9.057l-4.94 4.939z" style="fill:url(#h)"/><path d="M22.345 43.625c-3.182-3.185-4.29-7.24-2.471-9.058 1.82-1.82 5.875-.713 9.057 2.47 3.185 3.182 4.29 7.237 2.472 9.057-1.82 1.818-5.875.713-9.058-2.47z" style="fill:#9298a1"/><path d="M23.58 42.389c-2.27-2.276-3.193-5.04-2.056-6.176 1.136-1.137 3.905-.217 6.176 2.057 2.276 2.273 3.194 5.04 2.057 6.176-1.137 1.137-3.902.217-6.176-2.057z" style="fill:#494f52"/><linearGradient id="i" x1="304.471" x2="331.625" y1="-668.145" y2="-668.145" gradientTransform="scale(1 -1) rotate(-45 926.3 .134)" gradientUnits="userSpaceOnUse"><stop offset="0" style="stop-color:#b3b4b5"/><stop offset=".262" style="stop-color:#d5d5d6"/><stop offset=".454" style="stop-color:#f0f0f0"/><stop offset=".51" style="stop-color:#e1e1e3"/><stop offset=".62" style="stop-color:#b8bbc0"/><stop offset=".73" style="stop-color:#8a9099"/><stop offset=".897" style="stop-color:#a2a5a9"/><stop offset="1" style="stop-color:#b3b4b5"/></linearGradient><path d="M11.495 35.272c2.124-2.12 8.093-2.15 14.72 4.48 6.63 6.627 6.6 12.601 4.481 14.72l-19.2-19.2z" style="fill:url(#i)"/><radialGradient id="j" cx="316.39" cy="-674.559" r="12.597" gradientTransform="rotate(45.001 554.692 -154.062) scale(1 -.5436)" gradientUnits="userSpaceOnUse"><stop offset="0" style="stop-color:#f0f0f0"/><stop offset=".206" style="stop-color:#e1e1e3"/><stop offset=".603" style="stop-color:#b8bbc0"/><stop offset="1" style="stop-color:#8a9099"/></radialGradient><path d="M17.255 48.713c-5.302-5.302-7.88-11.322-5.76-13.441h.002c2.124-2.12 8.14.46 13.44 5.762 5.301 5.3 7.878 11.319 5.759 13.438-2.12 2.12-8.137-.458-13.441-5.76z" style="fill:url(#j)"/><linearGradient id="k" x1="316.375" x2="319.722" y1="-670.81" y2="-670.81" gradientTransform="scale(1 -1) rotate(-45 926.3 .134)" gradientUnits="userSpaceOnUse"><stop offset="0" style="stop-color:#d3d4d6"/><stop offset=".355" style="stop-color:#f5f5f5"/><stop offset=".454" style="stop-color:#fff"/><stop offset=".507" style="stop-color:#f0f0f2"/><stop offset=".612" style="stop-color:#c7cacf"/><stop offset=".73" style="stop-color:#9298a1"/><stop offset=".841" style="stop-color:#aaaeb5"/><stop offset="1" style="stop-color:#d3d4d6"/></linearGradient><path d="m22.473 45.861-2.365-2.366.286-.287c.374-.373 1.206-.147 1.86.507.653.653.88 1.486.507 1.86l-.288.286z" style="fill:url(#k)"/><path d="M20.614 45.355c-.653-.654-.88-1.486-.507-1.86.374-.373 1.206-.146 1.86.507.653.654.88 1.486.506 1.86-.373.373-1.206.146-1.859-.507z" style="fill:#9298a1"/><path d="M21.158 44.81c-.266-.266-.358-.605-.206-.757.152-.152.491-.06.757.206.267.267.359.606.207.758-.152.152-.491.06-.758-.207z" style="fill:#494f52"/><linearGradient id="l" x1="320.932" x2="321.704" y1="-674.923" y2="-675.597" gradientTransform="scale(1 -1) rotate(-45 926.3 .134)" gradientUnits="userSpaceOnUse"><stop offset="0" style="stop-color:#494f52"/><stop offset=".345" style="stop-color:#5f656a"/><stop offset="1" style="stop-color:#9298a1"/></linearGradient><path d="M26.61 49.587c-3.758.442-7.523.878-11.282 1.32-.648.077-.702-.938-.052-1.014l11.28-1.321c.653-.076.703.938.054 1.015z" style="fill:url(#l)"/><linearGradient id="m" x1="317.01" x2="316.057" y1="-673.234" y2="-673.456" gradientTransform="scale(1 -1) rotate(-45 926.3 .134)" gradientUnits="userSpaceOnUse"><stop offset="0" style="stop-color:#494f52"/><stop offset=".345" style="stop-color:#5f656a"/><stop offset="1" style="stop-color:#9298a1"/></linearGradient><path d="M22.39 40.364c-2.038 3.189-4.073 6.383-6.112 9.574-.352.55-1.242.063-.89-.49l6.113-9.576c.352-.55 1.242-.06.89.492z" style="fill:url(#m)"/><linearGradient id="n" x1="315.37" x2="314.663" y1="-675.812" y2="-676.485" gradientTransform="scale(1 -1) rotate(-45 926.3 .134)" gradientUnits="userSpaceOnUse"><stop offset="0" style="stop-color:#494f52"/><stop offset=".345" style="stop-color:#5f656a"/><stop offset="1" style="stop-color:#9298a1"/></linearGradient><path d="M16.433 41.572c-.104 3.783-.12 4.686-.223 8.471-.018.653-1.033.694-1.015.039.101-3.785.121-4.687.222-8.474.019-.652 1.034-.691 1.016-.036z" style="fill:url(#n)"/><linearGradient id="o" x1="314.987" x2="321.11" y1="-677.659" y2="-677.659" gradientTransform="scale(1 -1) rotate(-45 926.3 .134)" gradientUnits="userSpaceOnUse"><stop offset="0" style="stop-color:#d3d4d6"/><stop offset=".355" style="stop-color:#f5f5f5"/><stop offset=".454" style="stop-color:#fff"/><stop offset=".507" style="stop-color:#f0f0f2"/><stop offset=".612" style="stop-color:#c7cacf"/><stop offset=".73" style="stop-color:#9298a1"/><stop offset=".841" style="stop-color:#aaaeb5"/><stop offset="1" style="stop-color:#d3d4d6"/></linearGradient><path d="m18.212 52.085-4.329-4.329.525-.524c.683-.684 2.206-.27 3.401.927 1.196 1.195 1.611 2.718.929 3.401l-.526.525z" style="fill:url(#o)"/><path d="M14.81 51.158c-1.194-1.196-1.61-2.718-.927-3.401.683-.684 2.206-.268 3.401.927 1.196 1.196 1.61 2.718.928 3.402-.683.683-2.206.268-3.401-.928z" style="fill:#9298a1"/><linearGradient id="p" x1="316.555" x2="319.542" y1="-682.642" y2="-682.642" gradientTransform="scale(1 -1) rotate(-45 926.3 .134)" gradientUnits="userSpaceOnUse"><stop offset="0" style="stop-color:#b3b4b5"/><stop offset=".262" style="stop-color:#d5d5d6"/><stop offset=".454" style="stop-color:#f0f0f0"/><stop offset=".51" style="stop-color:#e1e1e3"/><stop offset=".62" style="stop-color:#b8bbc0"/><stop offset=".73" style="stop-color:#8a9099"/><stop offset=".897" style="stop-color:#a2a5a9"/><stop offset="1" style="stop-color:#b3b4b5"/></linearGradient><path d="m10.833 56.051-.916-.916 4.86-6.054c.333-.334 1.076-.132 1.659.452.583.583.785 1.326.452 1.66l-6.055 4.858z" style="fill:url(#p)"/><linearGradient id="q" x1="316.865" x2="319.233" y1="-686.706" y2="-686.706" gradientTransform="scale(1 -1) rotate(-45 926.3 .134)" gradientUnits="userSpaceOnUse"><stop offset="0" style="stop-color:#02d6b4"/><stop offset=".205" style="stop-color:#24e2c4"/><stop offset=".454" style="stop-color:#52f2d9"/><stop offset=".514" style="stop-color:#4be3cc"/><stop offset=".632" style="stop-color:#37baa8"/><stop offset=".73" style="stop-color:#259487"/><stop offset=".805" style="stop-color:#239789"/><stop offset=".867" style="stop-color:#1ea290"/><stop offset=".925" style="stop-color:#15b39c"/><stop offset=".98" style="stop-color:#08cbad"/><stop offset="1" style="stop-color:#02d6b4"/></linearGradient><path d="m10.772 56.873-1.675-1.675.718-.717c.264-.265.853-.104 1.315.358.463.463.623 1.052.36 1.316l-.718.718z" style="fill:url(#q)"/><path d="M9.456 56.514c-.462-.463-.623-1.052-.36-1.316.265-.264.854-.103 1.317.36.462.461.623 1.05.359 1.315-.265.264-.854.104-1.316-.359z" style="fill:#269184"/><linearGradient id="r" x1="37.978" x2="37.978" y1="40.57" y2="37.763" gradientUnits="userSpaceOnUse"><stop offset="0" style="stop-color:#494f52"/><stop offset=".345" style="stop-color:#5f656a"/><stop offset="1" style="stop-color:#9298a1"/></linearGradient><path d="M41.907 37.763h-7.37c-.65 0-.65 2.807 0 2.807h7.37v-2.807z" style="fill:url(#r)"/><linearGradient id="s" x1="51.846" x2="57.425" y1="128.146" y2="103.067" gradientTransform="matrix(.9433 .1439 -.1557 1.0363 15.8 -82.522)" gradientUnits="userSpaceOnUse"><stop offset=".296" style="stop-color:#01458a"/><stop offset=".368" style="stop-color:#014487"/><stop offset=".421" style="stop-color:#013f7e"/><stop offset=".468" style="stop-color:#01376e"/><stop offset=".512" style="stop-color:#012c57"/><stop offset=".553" style="stop-color:#011d3a"/><stop offset=".558" style="stop-color:#011b36"/></linearGradient><path d="m61.512 32.347-18.984-3.03-3.3 22.813 19.066 2.938z" style="fill:url(#s)"/><path d="M42.142 28.707 38.79 52.37l19.858 3.058L62 31.765l-19.858-3.058zm9.997 2.296 4.423.68-1.006 7.136-4.422-.68 1.005-7.136zm2.355 15.356-4.423-.68 1.006-7.137 4.422.68-1.005 7.137zM53.43 53.9l-4.422-.682 1.005-7.135 4.423.681L53.43 53.9zm-8.182-8.551 4.42.68-1.005 7.136-4.421-.68 1.005-7.136zm1.062-7.54 4.421.68-1.005 7.137-4.422-.68 1.006-7.137zm1.062-7.54 4.422.681-1.006 7.136-4.421-.68 1.005-7.136zm-4.767-.733 4.423.68-1.006 7.136-4.422-.681 1.005-7.136zm-1.062 7.539 4.422.68-1.005 7.137-4.423-.68 1.006-7.137zm-1.063 7.54 4.423.68-1.006 7.136-4.422-.68 1.005-7.136zm17.716 10.018-4.42-.68 1.005-7.136 4.42.68-1.005 7.136zm1.063-7.539-4.421-.68 1.005-7.137 4.421.68-1.005 7.137zm-3.359-8.22 1.005-7.136 4.422.68-1.006 7.136-4.421-.68z" style="fill:#9298a1"/></svg>