<svg xmlns="http://www.w3.org/2000/svg" xml:space="preserve" style="enable-background:new 0 0 64 64" viewBox="0 0 64 64"><radialGradient id="a" cx="1451.109" cy="69.13" r="26.293" gradientTransform="matrix(-1.0083 0 0 1.1556 1494.96 -47.51)" gradientUnits="userSpaceOnUse"><stop offset="0" style="stop-color:#deb38a"/><stop offset=".252" style="stop-color:#eec59e"/><stop offset=".534" style="stop-color:#fbd3ae"/><stop offset=".754" style="stop-color:#ffd8b4"/></radialGradient><path d="M4.575 56.326c0 3.697 24.304 3.431 24.304 0 0-1.663.274-5.536 3.218-8.648 5.135-5.43 5.36-13.566 22.009-16.649 10.878-2.014-.842-14.576-16.638-5.767-2.506 1.398-6.986-4.335 1.795-9.873 5.48-.054 11.042 6.038 19.893 2.417 3.492-1.43 2.23-6.013-1.141-6.6-4.188-.73-10.16-3.578-13.788-4.827-2.234-.768-12.51-.967-15.945.208C18.065 10.082 8.675 16.794 6.458 21.773c-7.913 17.766-1.883 23.38-1.883 34.553z" style="fill:url(#a)"/><path d="M53.367 13.216c1.144.683 3.928 1.04 5.018.674.89-.299 1.916-2.349 1.309-2.484-.919-.204-2.865-.343-4.319-.783-1.532-.465-3.58 1.652-2.008 2.593z" style="opacity:.3;fill:#fff"/><path d="M61.98 14.52c-.206-2.031-1.784-3.7-3.836-4.058-3.69-.642-9.666-3.407-13.672-4.796-2.414-.83-12.854-1.016-16.435.207C17.901 9.34 8.12 16.19 5.768 21.466.162 34.054 2.259 41.854 3.019 47.31c.325 2.33 1.556 9.017 1.556 9.017s-.33-6.867-.663-9.256c-.766-5.507-2.178-12.837 3.234-24.991 2.201-4.94 11.592-11.431 21.38-14.778 1.627-.557 5.039-.793 8.282-.793 3.137 0 6.118.22 7.173.583 4.049 1.404 10.094 4.193 13.904 4.857 1.549.27 2.476 1.574 2.593 2.723.111 1.103-.488 1.977-1.607 2.435-4.955 2.026-8.756.508-13.3-1.102-2.433-.862-4.65-1.348-6.316-1.37l-.213.001-.182.114c-5.698 3.594-4.633 7.272-3.91 8.545 1.177 2.076 1.25 3.831 2.875 2.959 7.242-3.895 13.456-3.455 17.309-1.38 1.98 1.067 2.6 2.529 2.343 3.69-.206.933-1.488 1.323-3.429 1.713-16.887 3.397-18.325 12.248-22.67 17.689-3.274 4.098-2.5 8.36-2.5 8.36s.39-4.337 3.172-7.47c4.431-4.99 5.278-13.057 22.113-17.074 3.578-.854 4.575-1.937 4.787-2.895.41-1.853-.466-3.925-3.1-5.343-4.128-2.224-10.761-2.91-18.738 1.38-.742.394.013-.85-.85-2.373-1.07-1.887.073-4.368 3.218-6.406 1.421.042 3.382.5 5.588 1.282 4.761 1.688 8.943 3.298 14.373 1.077 1.74-.712 2.717-2.211 2.538-3.985z" style="fill:#cfa47c"/><path d="M21.397 25.311c8.811 8.396 4.761 17.616 2.427 21.009-.5.727-.627.317-.43-.228 1.466-4.042 3.941-12.404-2.364-20.504-.605-.778-.352-.962.367-.277z" style="opacity:.3;fill:#cfa47c"/><linearGradient id="b" x1="1449.009" x2="1464.773" y1="19.1" y2="19.1" gradientTransform="matrix(-1 0 0 1 1489.064 0)" gradientUnits="userSpaceOnUse"><stop offset="0" style="stop-color:#deb38a"/><stop offset=".136" style="stop-color:#e8be97"/><stop offset=".379" style="stop-color:#f5cda7"/><stop offset=".649" style="stop-color:#fdd5b1"/><stop offset="1" style="stop-color:#ffd8b4"/></linearGradient><path d="M24.29 9.438c5.004-8.495 15.145 3.118 15.712 5.79.457 2.157-2.2 8.375-2.452 13.1-.257 4.81-6.905 4.274-7.15.682-.464-6.81-1.106-5.913-6.11-19.572z" style="fill:url(#b)"/><path d="M34.637 25.575c-.327.684-1.138 3.976-.595 4.39 1.053.801 2.724.087 2.87-.458.221-.824.411-2.967.702-4.303.278-1.28-2.388-.86-2.977.371z" style="opacity:.3;fill:#fff"/><path d="M29.646 29.063c-.313-4.596-.7-5.566-2.557-10.224a314.14 314.14 0 0 1-3.507-9.136l-.126-.342.185-.314c1.955-3.318 4.573-3.65 6.418-3.34 5.018.834 10.212 7.145 10.682 9.362.268 1.265-.284 3.353-.983 5.995-.625 2.362-1.333 5.039-1.454 7.304-.154 2.891-2.292 4.2-4.343 4.216h-.034c-1.966 0-4.125-1.228-4.28-3.521zm-4.518-19.54c1.47 3.997 2.56 6.733 3.363 8.745 1.885 4.728 2.334 5.852 2.663 10.69.093 1.366 1.493 2.097 2.772 2.097h.025c1.304-.009 2.736-.742 2.844-2.768.129-2.426.859-5.183 1.503-7.617.569-2.15 1.157-4.375.965-5.28-.345-1.628-5.14-7.46-9.45-8.176a5.162 5.162 0 0 0-.84-.071c-1.552 0-2.816.785-3.845 2.38z" style="fill:#cfa47c"/><linearGradient id="c" x1="1454.931" x2="1470.405" y1="20.352" y2="20.352" gradientTransform="matrix(-1 0 0 1 1489.064 0)" gradientUnits="userSpaceOnUse"><stop offset="0" style="stop-color:#deb38a"/><stop offset=".136" style="stop-color:#e8be97"/><stop offset=".379" style="stop-color:#f5cda7"/><stop offset=".649" style="stop-color:#fdd5b1"/><stop offset="1" style="stop-color:#ffd8b4"/></linearGradient><path d="M18.659 10.403c5.003-8.495 15.552 3.228 15.473 5.465-.12 3.432-2.852 7.64-3.336 14.423-.295 4.12-7.363 4.442-7.707-1.3-.43-7.188-4.43-18.588-4.43-18.588z" style="fill:url(#c)"/><path d="M27.893 26.316c-.386.714-1.407 4.832-.845 5.315.996.854 2.789.278 2.952-.347.247-.945.52-3.534.851-5.07.288-1.335-2.238-1.232-2.958.102z" style="opacity:.3;fill:#fff"/><path d="M27.209 34.112c-2.276-.013-4.665-1.588-4.875-5.075-.418-6.996-4.349-18.266-4.388-18.378l-.118-.339.181-.308c1.747-2.964 4.338-4.033 7.5-3.094 4.678 1.393 9.445 7.103 9.379 8.977-.056 1.592-.616 3.284-1.264 5.24-.847 2.557-1.806 5.453-2.075 9.21-.177 2.477-2.298 3.767-4.313 3.767h-.027zM19.49 10.496c.686 2.005 3.958 11.857 4.353 18.45.16 2.672 1.917 3.63 3.373 3.638h.02c1.274 0 2.69-.733 2.805-2.348.282-3.95 1.317-7.075 2.148-9.585.611-1.845 1.139-3.438 1.186-4.808-.007-.957-4.024-6.29-8.449-7.503a5.864 5.864 0 0 0-1.547-.224c-1.58 0-2.863.787-3.889 2.38z" style="fill:#cfa47c"/><linearGradient id="d" x1="1461.208" x2="1482.686" y1="21.442" y2="21.442" gradientTransform="matrix(-1 0 0 1 1489.064 0)" gradientUnits="userSpaceOnUse"><stop offset="0" style="stop-color:#deb38a"/><stop offset=".113" style="stop-color:#edc39d"/><stop offset=".246" style="stop-color:#f7cfaa"/><stop offset=".417" style="stop-color:#fdd6b2"/><stop offset=".749" style="stop-color:#ffd8b4"/></linearGradient><path d="M6.442 22.123c3.043-10.305 9.486-12.7 11.016-12.7 3.063-.001 9.529 4.567 10.282 8.018.765 3.506-2.485 10.308-3.233 13.81-.863 4.036-5.784 2.106-6.42-2.256-.583-3.995.77-4.39.572-6.053-.658-5.533-3.584.122-4.451 1.238-1.182 1.52-8.591.736-7.766-2.057z" style="fill:url(#d)"/><path d="M22.148 27.12c-.415.635-1.559 4.08-1.067 4.573 1.234 1.239 2.485.99 2.678.426.292-.853.797-3.506 1.205-4.897.415-1.415-2.065-1.247-2.816-.102z" style="opacity:.3;fill:#fff"/><path d="M17.459 8.658c3.473 0 10.19 4.815 11.02 8.618.544 2.496-.66 6.03-1.826 9.45-.587 1.725-1.143 3.355-1.405 4.675-.353 1.779-1.473 2.831-3.005 2.831-.029 0-.06 0-.089-.002-1.964-.05-4.364-2.024-4.815-5.123-.385-2.639.036-3.875.343-4.776.17-.5.496-2.74-.207-3.014-.764-.299-2.071 2.049-3.353 2.958 1.08-1.394 2.27-4.785 3.677-4.45 1.153.276 1.47 1.859 1.61 3.025.098.816-.103 1.407-.298 1.979-.285.836-.608 1.784-.276 4.055.326 2.24 2 3.783 3.358 3.819 1.047.01 1.425-.857 1.573-1.603.282-1.42.853-3.097 1.458-4.872 1.046-3.069 2.23-6.548 1.778-8.622-.667-3.058-6.744-7.42-9.543-7.42-1.102.001-7.187 4.369-10.842 13.118l-1.31-.783C9.16 12.92 15.905 8.659 17.46 8.658z" style="fill:#cfa47c"/></svg>