<svg xmlns="http://www.w3.org/2000/svg" xml:space="preserve" style="enable-background:new 0 0 64 64" viewBox="0 0 64 64"><linearGradient id="a" x1="31.634" x2="31.634" y1="60.311" y2="3.743" gradientUnits="userSpaceOnUse"><stop offset="0" style="stop-color:#deb38a"/><stop offset=".121" style="stop-color:#ebc29a"/><stop offset=".285" style="stop-color:#f6cea9"/><stop offset=".482" style="stop-color:#fdd6b1"/><stop offset=".8" style="stop-color:#ffd8b4"/></linearGradient><path d="M60.73 23.13c-1.69-3.91-11.55-8.74-15.38-18.06-1.24-3.01-9.09-.82-7.24 5.61.22.77-2.93.61-3.24 3.45-1.67 15.03-14.03 17.55-15.13 27.01H4.96c-3.63 0-4.27 18.88 0 18.88 5.01 0 25.36.61 30.2.05 5.34-.62 21.12-11.95 22.92-15.46 2.58-5 4.04-18.29 2.65-21.48zM38.5 38.73c-2.79-5.25 4.33-9.64 4.89-18.41 0 0 1.42 4.9 4.04 7.46-1.38 3.95-1.07 7.68-1.07 7.68-3.59.73-7.86 3.27-7.86 3.27z" style="fill:url(#a)"/><path d="M36.94 20.33c.52-.67 1.21-5.29.91-6.02-.53-1.29-2.35-1.27-2.52-.52-.26 1.12-1.11 4.37-1.47 6.2-.14.77 2.74.78 3.08.34zm7.81-10.11c-.61-.46-2.36-3.88-2.22-4.57.15-.72 2.09-1.25 2.2-.82.25.94 1.63 3.54 2.36 4.92.32.58-1.28 1.26-2.34.47z" style="opacity:.3;fill:#fff"/><path d="M61.41 22.84c-.72-1.67-2.63-3.34-5.04-5.46-3.59-3.15-8.06-7.06-10.33-12.59-.66-1.62-2.76-2.23-4.98-1.46-2.56.89-4.67 3.45-3.75 7.21-.09.04-.19.09-.28.13-.92.4-2.64 1.15-2.89 3.39-.9 8.11-6 12.54-9.16 16.44-2.44 3.02-5.16 5.76-5.84 9.65l-14.17 1 15.44.74.08-.65c.46-3.97 3.12-6.68 5.66-9.82 3.28-4.06 8.53-8.66 9.47-17.2.14-1.29.96-1.74 2.01-2.2.55-.24 1.46-.64 1.2-1.54-.93-3.23.88-5.12 2.72-5.76 1.43-.5 2.77-.22 3.12.63 2.4 5.85 7.02 9.89 10.72 13.14 2.18 1.91 4.07 3.56 4.66 4.93 1.27 2.94-.08 15.91-2.63 20.85-1.74 3.38-17.44 14.49-22.35 15.06-3.42.4-18.77.45-30.11.69 11.88 1.35 28.72.96 30.28.78 5.46-.63 21.52-12.01 23.5-15.85 2.55-4.95 4.2-18.59 2.67-22.11z" style="fill:#cfa47c"/><path d="m48.28 27.57-.33-.33c-2.44-2.39-3.83-7.09-3.85-7.14l-1.18-4.05-.27 4.21c-.25 3.91-2 7.09-3.54 9.9-1.89 3.44-2.95 5.74-1.27 8.91l.38.72.68-.45c.05-.03 4.19-2.47 7.6-3.16l.64-.13-.04-.65c0-.04-.28-3.62 1.03-7.38l.15-.45zm-2.69 7.31c-2.75.72-5.34 1.89-6.76 2.76-.71-2.23 0-3.89 1.58-6.76 1.23-2.24 2.58-4.7 3.28-7.62.66 1.5 1.62 3.34 2.89 4.71-.95 2.96-1.02 5.7-.99 6.91zm3.2-25.22c.74 1.82 1.51 3.61 2.36 5.37.84 1.76 1.83 3.43 2.81 5.16.24.43.47.87.7 1.31.24.44.44.94.55 1.43.24.99.31 1.98.4 2.96.15 1.96.3 3.93.84 5.83-.63-1.87-.88-3.85-1.13-5.8-.13-.97-.26-1.95-.53-2.87-.25-.91-.85-1.69-1.36-2.53-1.08-1.62-2.23-3.26-3.21-4.99-1-1.72-1.91-3.48-2.78-5.25l1.35-.62z" style="fill:#cfa47c"/><path d="m43.94 22.35-1.42-.32c.36-4.33.45-7.95-1.27-9.55-.88-.81-2.37-.84-3.57-.54l-.27-1.4c1.86-.61 3.59-.36 4.86.82 2.15 2.01 2.23 6 1.67 10.99zm-25 19.17 1.6-.84s-.45 2.84.45 4.47c-1.89-1.29-2.05-3.63-2.05-3.63z" style="fill:#cfa47c"/></svg>