<svg xmlns="http://www.w3.org/2000/svg" xml:space="preserve" style="enable-background:new 0 0 64 64" viewBox="0 0 64 64"><radialGradient id="a" cx="1613.535" cy="5.279" r="39.046" gradientTransform="matrix(-1.0025 -.00002 -.00002 1.0658 1649.097 3.711)" gradientUnits="userSpaceOnUse"><stop offset=".648" style="stop-color:#916b50"/><stop offset=".771" style="stop-color:#8e684d"/><stop offset=".87" style="stop-color:#845e44"/><stop offset=".962" style="stop-color:#734e35"/><stop offset="1" style="stop-color:#69452d"/></radialGradient><path d="M59.9 11.68c-36.97 0-52.84-3-55.84 1.82C1.45 17.7.76 35.87.76 39.79c0 3.33 7.17 3.8 7.17 3.8-.83 3.28 1.53 11.77 8.38 9.18 6.89-2.61 13.68-2.69 16.89-5.14 2.89-2.2 6.49-7.31 9.04-9.97.44-.46 13.81-4.03 17.66-4.03 5.47 0 5.47-21.95 0-21.95z" style="fill:url(#a)"/><linearGradient id="b" x1="1623.705" x2="1626.775" y1="18.228" y2="28.187" gradientTransform="matrix(-1 0 0 1 1645.935 0)" gradientUnits="userSpaceOnUse"><stop offset=".515" style="stop-color:#916b50"/><stop offset=".701" style="stop-color:#856045"/><stop offset="1" style="stop-color:#69452d"/></linearGradient><path d="M29.71 22.73c1.19 4.16-5.14 11.58-5.14 11.58-1.88-6.15-11.25-7.65-12.08-13.92-1.52-8.72 15.92-2.21 17.22 2.34z" style="fill:url(#b)"/><linearGradient id="c" x1="211.321" x2="216.678" y1="-207.19" y2="-201.348" gradientTransform="scale(1 -1) rotate(-11.953 931.296 826.55)" gradientUnits="userSpaceOnUse"><stop offset=".232" style="stop-color:#69452d;stop-opacity:0"/><stop offset=".802" style="stop-color:#69452d"/></linearGradient><path d="M10.07 30.83c-.02-1.89 5.64-5.06 5.64-5.06 1.81 1.51 9.15 5.39 8.65 9.04-8.31 9.77-13.67-.19-14.29-3.98z" style="fill:url(#c)"/><path d="M8.21 44.34c.04 0 .08 0 .13-.01.11-.02 7.69-1.42 14.29-6.91 6.51-5.42 7.76-13.13 7.76-13.13s-2.61 6.9-8.66 11.93c-6.29 5.23-13.53 6.61-13.64 6.62-.41.07-.68.46-.61.86.05.38.37.64.73.64z" style="fill:#543b28"/><path d="M24.86 33.49c-2.21-7.2-10.79-6.66-12.37-13.1-.5 6.69 9.16 7.4 11.58 14.19l.79-1.09z" style="fill:#543b28"/><path d="M15.97 26.37c.37-.18-.66-1.07-1.05-.92-4.57 1.75-6.02 7.46-6.02 7.46s2.54-4.41 7.07-6.54z" style="fill:#543b28"/><path d="M14.1 34.81s-2.84-2.34-3.25-5.81c-.05-.41 1.44-.69 1.47-.27.21 2.71 1.78 6.08 1.78 6.08z" style="fill:#543b28"/><path d="M0 39.79C0 36.3.6 17.62 3.41 13.1c2.2-3.54 7.78-3.34 22.69-2.8 7.23.26 33.8 1.37 33.8 1.37-8.96.37-26.61.39-33.85.13-13.46-.49-19.6-.71-21.34 2.08-2.42 3.89-3.19 21.32-3.19 25.9 0 2.14 4.78 2.94 6.46 3.05l.91.06-.22.87c-.47 1.86.24 5.77 2.41 7.67 1.33 1.16 2.99 1.37 4.96.63 3.11-1.18 6.19-1.85 8.91-2.44 3.29-.72 6.14-1.34 7.79-2.6 1.76-1.34 3.9-3.93 5.79-6.22 1.14-1.38 2.21-2.68 3.16-3.67.72-.76 13.84-3.82 18.22-3.52-3.67.43-16.36 4.05-17.11 4.54-.91.95-1.97 2.23-3.09 3.59-2.03 2.46-4.14 5.01-6.04 6.46-1.92 1.47-4.92 2.12-8.39 2.87-2.67.58-5.69 1.24-8.69 2.37-1 .38-1.9.54-2.7.54-1.71 0-2.97-.71-3.8-1.44-2.42-2.12-3.25-5.92-3.02-8.3C4.97 44.01 0 43.07 0 39.79z" style="fill:#543b28"/></svg>