<svg xmlns="http://www.w3.org/2000/svg" xml:space="preserve" style="enable-background:new 0 0 64 64" viewBox="0 0 64 64"><linearGradient id="a" x1="15.883" x2="37.234" y1="41.302" y2="15.876" gradientUnits="userSpaceOnUse"><stop offset=".526" style="stop-color:#916b50"/><stop offset=".765" style="stop-color:#7a553b"/><stop offset=".911" style="stop-color:#69452d"/></linearGradient><path d="M53.824 34.645C49.867 24.603 41.15 14.806 28.74 12.34c-4.571-.917-11.862.307-19.832-5.168C5.617 4.917-2.732 25.517.894 26.982c1.923.777 6.814 3.704 8.072 6.024 6.77 12.508 28.154 27.172 32.104 17.062 3.218.585 5.363-.711 5.474-3.758 2.652-.39 5.052-2.553 5.05-4.82 3.489-.17 3.261-4.229 2.23-6.845z" style="fill:url(#a)"/><path d="M27.51 41.548c2.803 1.019.907 1.844 13.481 9.397l.684-1.562c-12.529-5.61-11.028-7.612-14.166-7.835zm4.665-4.994c1.617 2.692 4.992 2.058 13.964 10.434l.995-1.367c-11.06-8.278-12.362-6.65-14.959-9.067zm4.415-6.868c.452 2.49 5.202 2.158 14.471 12.351l1.253-1.107c-10.6-9.657-14.334-9.181-15.725-11.244z" style="fill:#543b28"/><path d="M54.52 34.363c-4.32-10.961-13.663-20.391-25.635-22.77a86.97 86.97 0 0 0-2.219-.403c-4.508-.782-11.249-.11-17.758-4.018 6.925 4.758 12.863 4.714 17.505 5.519.782.135 1.511.261 2.182.396 11.464 2.279 20.406 11.37 24.532 21.841.627 1.591.924 3.727.174 4.913-.352.558-.923.848-1.743.889l-.715.035.001.726c.002 1.82-2.057 3.721-4.407 4.066l-.62.091-.022.635c-.04 1.12-.388 1.956-1.033 2.482-.785.642-2.017.834-3.56.554l-.604-.11-.226.578c-.706 1.808-2.03 2.75-4.048 2.877-7.307.458-21.532-9.797-26.948-19.805-1.42-2.617-5.224-4.806-8.481-5.876 3.632 1.815 6.322 4.376 7.415 6.39 5.049 9.33 19.087 20.83 27.549 20.83.188 0 .375-.007.558-.019 2.371-.15 4.125-1.28 5.106-3.278 1.723.207 3.16-.12 4.18-.955.852-.696 1.379-1.726 1.542-3.001 2.552-.606 4.662-2.62 5.04-4.776 1.225-.236 1.91-.928 2.279-1.51 1.11-1.754.67-4.49-.044-6.301z" style="fill:#543b28"/><linearGradient id="b" x1="45.753" x2="37.791" y1="38.488" y2="13.844" gradientUnits="userSpaceOnUse"><stop offset="0" style="stop-color:#69452d"/><stop offset=".167" style="stop-color:#704c33"/><stop offset=".415" style="stop-color:#845f45"/><stop offset=".539" style="stop-color:#916b50"/></linearGradient><path d="M55.105 10.277c-3.873 3.145-8.2 4.654-9.079 4.36-9.86-3.305-14.579-2.502-18.224-2.19-2.835.24-3.81 4.23-8.81 9.528-2.493 2.642 3.309 10.121 10.531-.632 1.594-2.373 18.467 3.648 24.868 14.662 1.259-2.324 6.805-6.288 8.726-7.066 3.625-1.464-4.881-21.202-8.012-18.662z" style="fill:url(#b)"/><radialGradient id="c" cx="97.825" cy="-213.203" r="4.194" gradientTransform="matrix(.9498 -.3936 .4076 1.0113 9.075 293.488)" gradientUnits="userSpaceOnUse"><stop offset=".521" style="stop-color:#916b50"/><stop offset=".665" style="stop-color:#8b654b"/><stop offset=".859" style="stop-color:#7a553c"/><stop offset="1" style="stop-color:#69452d"/></radialGradient><path d="M12.202 38.52c-.511 1.273-.544 3.07-.534 4.185.022 2.608 3.665 6.113 6.256 1.844.527-.868.417-3.388.48-4.679.172-3.422-5-4.346-6.202-1.35z" style="fill:url(#c)"/><path d="M15.124 47.31c-.343 0-.646-.055-.891-.124-1.78-.503-3.298-2.552-3.316-4.474-.01-1.264.038-3.104.591-4.48.692-1.727 2.577-2.616 4.564-2.168 1.612.364 3.189 1.694 3.081 3.845a32.69 32.69 0 0 0-.024 1c-.028 1.807-.088 3.252-.566 4.04-1.156 1.905-2.457 2.362-3.439 2.362zm-.048-9.833c-.88 0-1.799.38-2.18 1.33-.502 1.252-.485 3.238-.479 3.89.01 1.235 1.09 2.703 2.218 3.022 1.196.34 2.102-.666 2.65-1.569.301-.495.327-2.229.344-3.266.006-.391.012-.754.026-1.051.068-1.35-.94-2.064-1.908-2.282a3.052 3.052 0 0 0-.67-.074z" style="fill:#543b28"/><radialGradient id="d" cx="-17.449" cy=".241" r="5.02" gradientTransform="matrix(.9286 -.0483 .0749 1.1187 37.498 42.058)" gradientUnits="userSpaceOnUse"><stop offset=".521" style="stop-color:#916b50"/><stop offset=".665" style="stop-color:#8b654b"/><stop offset=".859" style="stop-color:#7a553c"/><stop offset="1" style="stop-color:#69452d"/></radialGradient><path d="M19.492 42.117c-.648.854-2.582 3.432-2.939 4.387-.99 2.648 2.119 7.485 5.1 4.67.693-.652 3.58-4.553 3.992-5.774 1.086-3.24-4.152-5.914-6.153-3.282z" style="fill:url(#d)"/><path d="M19.767 52.792c-.62 0-1.242-.2-1.835-.605-1.795-1.227-2.786-4.064-2.08-5.954.347-.928 1.847-3.003 3.046-4.58 1.327-1.746 3.654-1.601 5.256-.728 1.592.869 2.89 2.665 2.2 4.721-.472 1.4-3.47 5.408-4.192 6.087-.746.704-1.569 1.06-2.395 1.06zm.318-10.21c-1.535 2.022-2.62 3.628-2.83 4.191-.469 1.253.281 3.308 1.514 4.15.787.538 1.586.434 2.373-.307.65-.611 3.436-4.406 3.794-5.462.433-1.294-.533-2.365-1.492-2.888-1.063-.58-2.565-.726-3.359.317z" style="fill:#543b28"/><radialGradient id="e" cx="42.639" cy="48.829" r="5.109" gradientTransform="matrix(1.0224 0 0 1.0542 -16.561 -4.215)" gradientUnits="userSpaceOnUse"><stop offset=".521" style="stop-color:#916b50"/><stop offset=".665" style="stop-color:#8b654b"/><stop offset=".859" style="stop-color:#7a553c"/><stop offset="1" style="stop-color:#69452d"/></radialGradient><path d="M25.224 46.034c-.674.815-2.897 4.336-3.268 5.269-1.375 3.424 3.033 5.864 5.306 3.758 1.91-1.77 2.962-4.811 3.525-5.906 1.433-2.804-3.046-6.186-5.563-3.12z" style="fill:url(#e)"/><path d="M25.2 56.612a4.4 4.4 0 0 1-2.538-.832c-1.567-1.11-2.117-2.98-1.4-4.764.418-1.051 2.707-4.648 3.386-5.47 1.582-1.926 3.81-1.763 5.315-.745 1.439.971 2.412 2.9 1.49 4.705-.114.219-.245.516-.4.867-.66 1.49-1.658 3.741-3.285 5.25-.71.658-1.623.99-2.567.99zm2.432-11.034c-.623 0-1.27.26-1.832.944l-.002.002c-.634.766-2.814 4.23-3.146 5.065-.675 1.68.494 2.677.869 2.941.901.639 2.303.834 3.235-.031 1.399-1.297 2.32-3.375 2.929-4.751.17-.383.314-.708.436-.945.54-1.055-.133-2.157-.989-2.734-.43-.29-.955-.491-1.5-.491z" style="fill:#543b28"/><radialGradient id="f" cx="48.572" cy="38.992" r="4.664" gradientTransform="matrix(1.0224 0 0 .836 -16.561 17.003)" gradientUnits="userSpaceOnUse"><stop offset=".521" style="stop-color:#916b50"/><stop offset=".665" style="stop-color:#8b654b"/><stop offset=".859" style="stop-color:#7a553c"/><stop offset="1" style="stop-color:#69452d"/></radialGradient><path d="M30.855 49.397c-.518.744-1.796 3.127-2.003 3.923-.616 2.371 3.252 4.087 5.26 1.935 1.183-1.266 1.811-3.004 1.939-4.042.349-2.83-3.26-4.603-5.196-1.816z" style="fill:url(#f)"/><path d="M31.828 57a4.352 4.352 0 0 1-2.107-.548c-1.302-.737-1.928-2.043-1.595-3.326.247-.947 1.587-3.407 2.115-4.168 1.053-1.515 2.744-2.098 4.306-1.483 1.552.61 2.455 2.15 2.248 3.832-.154 1.252-.876 3.12-2.14 4.473A3.794 3.794 0 0 1 31.829 57zm1.455-8.246c-.678 0-1.326.376-1.815 1.082-.527.758-1.727 3.047-1.89 3.678-.235.9.609 1.458.872 1.607.87.491 2.215.58 3.117-.39 1.025-1.096 1.62-2.64 1.74-3.612a2.08 2.08 0 0 0-2.024-2.365z" style="fill:#543b28"/><path d="M24.5 19.214c-.147.676-2.607 3.734-3.244 3.796-1.599.155-1.986-.735-1.615-1.238.561-.76 2.496-2.898 3.444-4.1.4-.507 1.51 1.097 1.414 1.542z" style="opacity:.2;fill:#fff"/><path d="M54.43 34.634C48.696 25.86 36.424 20.24 31.342 20.072c-1.223-.03-2.03.234-2.438.841-3.345 4.981-5.977 5.443-7.239 5.27a2.93 2.93 0 0 1-2.379-1.909c-.24-.69-.147-1.354.248-1.772 2.076-2.2 3.462-4.167 4.576-5.748 1.635-2.32 2.478-3.44 3.755-3.549l.886-.08c3.421-.321 8.102-.762 17.04 2.234 1.363.456 5.798-1.98 9.314-5.083-3.875 2.675-8.211 3.749-8.844 3.638-9.235-3.096-14.098-2.64-17.647-2.306l-.875.08c-2.024.172-3.209 1.853-4.85 4.18-1.085 1.54-2.437 3.46-4.439 5.58-.794.842-1.01 2.088-.579 3.332.538 1.551 1.95 2.696 3.599 2.914 1.618.22 4.88-.273 8.67-5.92.066-.072.497-.258 1.614-.149 4.963.488 16.89 5.99 21.992 14.766l.667 1.151.635-1.17c1.132-2.09 4.787-5.12 8.069-7.433-4.09 1.937-6.666 3.227-8.687 5.695z" style="fill:#543b28"/><path d="M13.308 40.603c-.11-.48-.089-1.561.042-1.936.33-.953 3.487-.738 3.734.262.099.402-.116 1.584-.345 2.087-.7 1.544-3.106 1.001-3.431-.413zm6.782 3.419c.165-.502.79-1.464 1.11-1.742.868-.753 3.607 1.302 3.28 2.388-.128.424-.984 1.378-1.472 1.706-1.498 1.004-3.403-.876-2.918-2.352zm5.61 4.046c.133-.495.638-1.528.963-1.769.71-.526 3.47.977 3.147 1.972-.133.411-.86 1.41-1.3 1.768-1.354 1.1-3.202-.515-2.81-1.971zm5.993 2.856c.056-.412.374-1.273.596-1.519.51-.564 2.816.595 2.774 1.282-.021.346-.55 1.219-.87 1.55-.985 1.02-2.664-.103-2.5-1.313z" style="opacity:.2;fill:#fff"/></svg>