<svg xmlns="http://www.w3.org/2000/svg" xml:space="preserve" viewBox="0 0 64 64"><linearGradient id="a" x1="-78" x2="-65.999" y1="3" y2="3" gradientTransform="matrix(1 0 0 -1 104 10)" gradientUnits="userSpaceOnUse"><stop offset="0" style="stop-color:#f80"/><stop offset="1" style="stop-color:red"/></linearGradient><path fill="url(#a)" d="M38.001 10H26c0-3.313 2.684-6 6-6a6.002 6.002 0 0 1 6.001 6z"/><path fill="#1A1626" d="M23 13c0-1.659 1.006-3 3-3h12.001c1.996 0 3 1.341 3 3H23z"/><path fill="#AABBC2" d="m1.893 8.313 1.168-.206 2.986 20.688L4.879 29z"/><linearGradient id="b" x1="-127.094" x2="-126.27" y1="35.964" y2="40.638" gradientTransform="scale(1 -1) rotate(9.997 200.39 753.09)" gradientUnits="userSpaceOnUse"><stop offset="0" style="stop-color:#1a1626"/><stop offset="1" style="stop-color:#65747d"/></linearGradient><circle cx="2.373" cy="7.626" r="2.373" fill="url(#b)"/><path fill="#AABBC2" d="m60.94 8.107 1.168.206L59.122 29l-1.168-.205z"/><linearGradient id="c" x1="-9.274" x2="-10.098" y1="-33.432" y2="-28.758" gradientTransform="scale(1 -1) rotate(-9.997 160.133 -427.031)" gradientUnits="userSpaceOnUse"><stop offset="0" style="stop-color:#1a1626"/><stop offset="1" style="stop-color:#65747d"/></linearGradient><circle cx="61.628" cy="7.626" r="2.373" fill="url(#c)"/><linearGradient id="d" x1="32.001" x2="32.001" y1="45" y2="27" gradientUnits="userSpaceOnUse"><stop offset="0" style="stop-color:#1a1626"/><stop offset="1" style="stop-color:#65747d"/></linearGradient><path fill="url(#d)" d="M60.798 27H3.201c-4.268 0-4.268 18 0 18h57.597c4.269 0 4.269-18 0-18z"/><linearGradient id="e" x1="32.001" x2="32.001" y1="60" y2="11.999" gradientUnits="userSpaceOnUse"><stop offset="0" style="stop-color:#00788f"/><stop offset="1" style="stop-color:#0ba1bf"/></linearGradient><path fill="url(#e)" d="M58.001 54.5c0 3.023-2.475 5.5-5.5 5.5H11.5C8.475 60 6 57.523 6 54.5v-37c0-3.024 2.475-5.501 5.5-5.501h41.001c3.025 0 5.5 2.477 5.5 5.501v37z"/><path fill="#CFD8DD" d="M10 57a.997.997 0 0 0-.846-.988l-.001 1.975A.997.997 0 0 0 10 57zm-2.001-.002c0 .502.368.916.848.988l.001-1.975a1 1 0 0 0-.849.987z"/><path fill="#AABBC2" d="M9.154 57.844v-1.688a1.966 1.966 0 0 0-.307 0l-.001 1.688c.05.006.257.008.308 0z"/><path fill="#CFD8DD" d="M55.708 56.293a.998.998 0 0 0-1.297-.1l1.396 1.395a.994.994 0 0 0-.099-1.295zm-1.416 1.414c.354.354.908.387 1.299.1l-1.396-1.396a.996.996 0 0 0 .097 1.296z"/><path fill="#AABBC2" d="m55.706 57.488-1.193-1.193a1.853 1.853 0 0 0-.217.217l1.193 1.193c.039-.031.186-.176.217-.217z"/><path fill="#CFD8DD" d="M9 14.001a.996.996 0 0 0-.987.846h1.975A.997.997 0 0 0 9 14.001zm0 2c.5.001.915-.367.987-.848H8.013a.999.999 0 0 0 .987.848z"/><path fill="#AABBC2" d="M9.845 14.847H8.157a1.749 1.749 0 0 0 0 .307h1.687c.007-.05.008-.257.001-.307z"/><path fill="#CFD8DD" d="M54.294 14.293a.996.996 0 0 0-.1 1.296l1.396-1.396a.996.996 0 0 0-1.296.1zm1.414 1.415a1 1 0 0 0 .1-1.298l-1.396 1.396a.996.996 0 0 0 1.296-.098z"/><path fill="#AABBC2" d="m55.489 14.294-1.193 1.193c.029.042.176.188.217.217l1.193-1.192a2.35 2.35 0 0 0-.217-.218z"/><linearGradient id="f" x1="32.001" x2="32.001" y1="15" y2="57.001" gradientUnits="userSpaceOnUse"><stop offset="0" style="stop-color:#accddd"/><stop offset="1" style="stop-color:#6aa5b5"/></linearGradient><path fill="url(#f)" d="M55.001 53c0 2.199-1.801 4-4 4H13c-2.2 0-4-1.801-4-4V19c0-2.2 1.8-4 4-4h38.001c2.199 0 4 1.8 4 4v34z"/><path fill="#1A1626" d="M43.003 40.03c-4.968 0-9.003-4.028-9.003-8.997 0-4.973 4.035-9 9.003-9a8.995 8.995 0 0 1 8.998 9 8.995 8.995 0 0 1-8.998 8.997z"/><path fill="#FFF" d="M43.003 38.532c-4.141 0-7.503-3.36-7.503-7.499a7.502 7.502 0 0 1 7.503-7.501 7.494 7.494 0 0 1 7.498 7.501 7.497 7.497 0 0 1-7.498 7.499z"/><ellipse cx="43.003" cy="31.032" fill="#1A1626" rx="3.502" ry="4"/><path fill="#1A1626" d="M21 40.031a9 9 0 1 1 0-17.998c4.975 0 9 4.027 9 9a8.996 8.996 0 0 1-9 8.998z"/><path fill="#FFF" d="M21 38.531a7.499 7.499 0 0 1-7.502-7.498c0-4.146 3.357-7.502 7.502-7.502s7.499 3.356 7.499 7.502A7.496 7.496 0 0 1 21 38.531z"/><ellipse cx="21" cy="31.032" fill="#1A1626" rx="3.5" ry="4"/><path fill="#1A1626" d="M43.999 51.71c0 .709-.563 1.29-1.25 1.29H21.248c-.688 0-1.25-.581-1.25-1.29v-5.42c0-.709.563-1.29 1.25-1.29h21.501c.688 0 1.25.581 1.25 1.29v5.42z"/><linearGradient id="g" x1="31.998" x2="31.998" y1="52" y2="46" gradientUnits="userSpaceOnUse"><stop offset="0" style="stop-color:#fff"/><stop offset=".191" style="stop-color:#f6f8f9"/><stop offset=".501" style="stop-color:#dee4e7"/><stop offset=".891" style="stop-color:#b6c5cb"/><stop offset="1" style="stop-color:#aabbc2"/></linearGradient><path fill="url(#g)" d="M42.999 51.218c0 .43-.338.782-.75.782H21.748c-.412 0-.75-.353-.75-.782v-4.436c0-.43.338-.782.75-.782h20.501c.412 0 .75.353.75.782v4.436z"/><path fill="#1A1626" d="M24 45.5h1v6.75h-1zm5 0h1v6.75h-1zm5 0h1.001v6.75H34zm5.001 0h1v6.75h-1z"/><path fill="#CFD8DD" d="M30.939 39.438a1.493 1.493 0 0 0-.148 1.945l2.095-2.095a1.499 1.499 0 0 0-1.947.15zm2.123 2.125c.529-.53.579-1.362.149-1.948l-2.096 2.095c.586.43 1.416.383 1.947-.147z"/><path fill="#AABBC2" d="m32.733 39.441-1.79 1.79c.043.062.264.281.324.325l1.791-1.79a3.692 3.692 0 0 0-.325-.325z"/></svg>