<svg xmlns="http://www.w3.org/2000/svg" xml:space="preserve" style="enable-background:new 0 0 64 64" viewBox="0 0 64 64"><linearGradient id="a" x1="32" x2="32" y1="62" y2="2.001" gradientUnits="userSpaceOnUse"><stop offset="0" style="stop-color:#ff9500"/><stop offset=".192" style="stop-color:#ffad00"/><stop offset=".545" style="stop-color:#ffd500"/><stop offset=".827" style="stop-color:#ffed00"/><stop offset="1" style="stop-color:#fff600"/></linearGradient><path d="M32 2c16.57 0 30 13.43 30 30S48.57 62 32 62 2 48.57 2 32 15.43 2 32 2z" style="fill:url(#a)"/><path d="M47.88 37c-.32 0-6.65 2-15.88 2s-15.55-2-15.88-2c-.73 0-1.12.51-1.12 1 0 7.27 5.96 15 17 15s17-7.73 17-15c0-.49-.39-1-1.12-1z" style="fill:#1a1626"/><linearGradient id="b" x1="31.999" x2="31.999" y1="41.304" y2="64" gradientUnits="userSpaceOnUse"><stop offset="0" style="stop-color:#0e260d"/><stop offset=".117" style="stop-color:#0d6608"/><stop offset=".226" style="stop-color:#0d9904"/><stop offset=".307" style="stop-color:#0cb901"/><stop offset=".351" style="stop-color:#0cc500"/></linearGradient><path d="M21.92 44.72v6.03C21.92 59.57 26.44 64 32 64c5.56 0 10.08-4.43 10.08-13.25v-6.03c0-5.27-10.08-2.87-10.08-2.87s-10.08-2.4-10.08 2.87z" style="fill:url(#b)"/><circle cx="19.5" cy="23" r="11" style="fill:#fff"/><circle cx="44.5" cy="23" r="11" style="fill:#fff"/><circle cx="19.5" cy="23" r="10" style="fill:#0cc500"/><circle cx="44.5" cy="23" r="10" style="fill:#0cc500"/><path d="M35.5 53.54c-.19-.33-.45-.59-.76-.8-.32-.21-.66-.37-1.04-.49-.29-.09-.59-.17-.88-.25v-2.57c.69.12 1.38.43 2.05.92l.7-1.54c-.26-.22-.57-.41-.94-.58-.37-.17-.77-.29-1.2-.39-.16-.03-.32-.06-.48-.08v-1.53h-1.68v1.55c-.38.06-.74.17-1.07.32-.57.26-1.02.62-1.35 1.07-.33.45-.5.97-.5 1.55 0 .51.09.94.28 1.27.19.33.44.6.76.81.32.21.67.37 1.05.5.33.11.66.2.98.29v2.49c-.38-.03-.74-.1-1.09-.22-.49-.16-.95-.41-1.4-.74l-.7 1.54c.46.35 1.01.62 1.65.81.44.13.9.21 1.39.26v1.51h1.68v-1.56c.37-.06.71-.16 1.03-.3.57-.25 1.02-.6 1.34-1.05.32-.45.48-.96.48-1.55-.01-.5-.11-.92-.3-1.24zm-4.74-2.29c-.19-.16-.29-.38-.29-.67 0-.39.15-.68.45-.9.14-.1.3-.17.48-.22v2.14c-.26-.09-.47-.21-.64-.35zm2.43 4.53c-.11.07-.24.13-.38.18v-1.99c.21.08.39.18.54.29.19.15.29.36.29.61 0 .41-.15.71-.45.91zM48 23.81c-.19-.33-.45-.59-.76-.8-.32-.21-.66-.37-1.04-.49-.29-.09-.59-.17-.88-.25V19.7c.69.12 1.38.43 2.05.92l.7-1.54c-.26-.22-.57-.41-.94-.58a6.127 6.127 0 0 0-1.69-.47V16.5h-1.68v1.55c-.38.06-.74.17-1.07.32-.57.26-1.02.62-1.35 1.07-.33.45-.5.97-.5 1.55 0 .51.09.94.28 1.27.19.33.44.6.76.81.32.21.67.37 1.05.5.33.11.66.2.98.29v2.49c-.38-.03-.74-.1-1.09-.22-.49-.16-.95-.41-1.4-.74l-.7 1.54c.46.35 1.01.62 1.65.81.44.13.9.21 1.39.26v1.51h1.68v-1.56c.37-.06.71-.16 1.03-.3.57-.25 1.02-.6 1.34-1.05.32-.45.48-.96.48-1.55 0-.5-.1-.92-.29-1.24zm-4.74-2.29c-.19-.16-.29-.38-.29-.67 0-.39.15-.68.45-.9.14-.1.3-.17.48-.22v2.14c-.25-.09-.47-.21-.64-.35zm2.43 4.53c-.11.07-.24.13-.38.18v-1.99c.21.08.39.18.54.29.19.15.29.36.29.61 0 .4-.15.71-.45.91zM23 23.81c-.19-.33-.45-.59-.76-.8-.32-.21-.66-.37-1.04-.49-.29-.09-.59-.17-.88-.25V19.7c.69.12 1.38.43 2.05.92l.7-1.54c-.26-.22-.57-.41-.94-.58-.37-.17-.77-.29-1.2-.39-.16-.03-.32-.06-.48-.08V16.5h-1.68v1.55c-.38.06-.74.17-1.07.32-.57.26-1.02.62-1.35 1.07-.33.45-.5.97-.5 1.55 0 .51.09.94.28 1.27.19.33.44.6.76.81.32.21.67.37 1.05.5.33.11.66.2.98.29v2.49c-.38-.03-.74-.1-1.09-.22-.49-.16-.95-.41-1.4-.74l-.7 1.54c.46.35 1.01.62 1.65.81.44.13.9.21 1.39.26v1.51h1.68v-1.56c.37-.06.71-.16 1.03-.3.57-.25 1.02-.6 1.34-1.05.32-.45.48-.96.48-1.55-.01-.5-.11-.92-.3-1.24zm-4.74-2.29c-.19-.16-.29-.38-.29-.67 0-.39.15-.68.45-.9.14-.1.3-.17.48-.22v2.14c-.25-.09-.47-.21-.64-.35zm2.43 4.53c-.11.07-.24.13-.38.18v-1.99c.21.08.39.18.54.29.19.15.29.36.29.61 0 .4-.15.71-.45.91z" style="fill:#fff"/></svg>