<svg xmlns="http://www.w3.org/2000/svg" xml:space="preserve" viewBox="0 0 64 64"><linearGradient id="a" x1="-202" x2="-202" y1="283" y2="343" gradientTransform="matrix(1 0 0 -1 234 345)" gradientUnits="userSpaceOnUse"><stop offset="0" style="stop-color:#00c213"/><stop offset="1" style="stop-color:#cf0"/></linearGradient><circle cx="32" cy="32" r="30" fill="url(#a)"/><path fill="#1A1626" d="M38.466 43.531c-2.96-1.051-9.972-1.051-12.932.002-.802.297-1.163-3.348-1.163-3.348 4.234-1.507 11.021-1.507 15.258 0 0 .001-.359 3.647-1.163 3.346z"/><ellipse cx="21.999" cy="26" fill="#1A1626" rx="4" ry="5"/><ellipse cx="41.999" cy="26" fill="#1A1626" rx="4" ry="5"/><radialGradient id="b" cx="-183.835" cy="307.104" r="12.799" gradientTransform="matrix(1 0 0 -1 234 345)" gradientUnits="userSpaceOnUse"><stop offset="0" style="stop-color:#cf0"/><stop offset=".1" style="stop-color:#c2fc01"/><stop offset=".269" style="stop-color:#a8f403"/><stop offset=".484" style="stop-color:#7ee807"/><stop offset=".738" style="stop-color:#44d60d"/><stop offset="1" style="stop-color:#00c213"/></radialGradient><path fill="url(#b)" d="M49.311 32c5.521 0 10 4.477 10 10 0 5.521-4.479 10-10 10-5.524 0-10-4.479-10-10 0-5.523 4.474-10 10-10z" opacity=".75"/><radialGradient id="c" cx="-563.167" cy="307.104" r="12.799" gradientTransform="rotate(180 -274.666 172.5)" gradientUnits="userSpaceOnUse"><stop offset="0" style="stop-color:#cf0"/><stop offset=".1" style="stop-color:#c2fc01"/><stop offset=".269" style="stop-color:#a8f403"/><stop offset=".484" style="stop-color:#7ee807"/><stop offset=".738" style="stop-color:#44d60d"/><stop offset="1" style="stop-color:#00c213"/></radialGradient><path fill="url(#c)" d="M14.689 32c-5.521 0-10 4.477-10 10 0 5.521 4.479 10 10 10 5.524 0 10-4.479 10-10 0-5.523-4.474-10-10-10z" opacity=".75"/><path fill="#009C22" d="M41.188 36.225c-4.039 1.271-4.039 10.279 0 11.551-2.023-2.747-2.023-8.805 0-11.551zm-18.375 11.55c4.041-1.271 4.041-10.281 0-11.551 2.022 2.747 2.022 8.803 0 11.551z"/><radialGradient id="d" cx="49.31" cy="42" r="10" gradientUnits="userSpaceOnUse"><stop offset=".1" style="stop-color:#ff6399;stop-opacity:.6"/><stop offset=".208" style="stop-color:#fb6597;stop-opacity:.5277"/><stop offset=".321" style="stop-color:#ee6990;stop-opacity:.4528"/><stop offset=".435" style="stop-color:#da7185;stop-opacity:.3766"/><stop offset=".551" style="stop-color:#bc7c76;stop-opacity:.2995"/><stop offset=".667" style="stop-color:#978a62;stop-opacity:.2218"/><stop offset=".785" style="stop-color:#699b4a;stop-opacity:.1434"/><stop offset=".901" style="stop-color:#34af2e;stop-opacity:.0661"/><stop offset="1" style="stop-color:#00c213;stop-opacity:0"/></radialGradient><path fill="url(#d)" d="M49.311 32c5.52 0 10 4.477 10 10 0 5.521-4.48 10-10 10-5.525 0-10-4.479-10-10 0-5.523 4.474-10 10-10z" opacity=".5"/><radialGradient id="e" cx="14.69" cy="42" r="10" gradientUnits="userSpaceOnUse"><stop offset=".1" style="stop-color:#ff6399;stop-opacity:.6"/><stop offset=".208" style="stop-color:#fb6597;stop-opacity:.5277"/><stop offset=".321" style="stop-color:#ee6990;stop-opacity:.4528"/><stop offset=".435" style="stop-color:#da7185;stop-opacity:.3766"/><stop offset=".551" style="stop-color:#bc7c76;stop-opacity:.2995"/><stop offset=".667" style="stop-color:#978a62;stop-opacity:.2218"/><stop offset=".785" style="stop-color:#699b4a;stop-opacity:.1434"/><stop offset=".901" style="stop-color:#34af2e;stop-opacity:.0661"/><stop offset="1" style="stop-color:#00c213;stop-opacity:0"/></radialGradient><path fill="url(#e)" d="M14.689 32c5.52 0 10 4.477 10 10 0 5.521-4.48 10-10 10-5.525 0-10-4.479-10-10 0-5.523 4.475-10 10-10z" opacity=".5"/><path fill="#009C22" d="M16.872 12.892c-9.245 6.62-2.92 7.324 5.574 2.686 4.792-2.616.512-7.046-5.574-2.686zm30.254.015c-6.086-4.359-10.366.07-5.572 2.686 8.496 4.64 14.821 3.934 5.572-2.686z"/></svg>