<svg xmlns="http://www.w3.org/2000/svg" xml:space="preserve" style="enable-background:new 0 0 64 64" viewBox="0 0 64 64"><linearGradient id="a" x1="32" x2="32" y1="62" y2="2" gradientUnits="userSpaceOnUse"><stop offset="0" style="stop-color:#ff9500"/><stop offset=".192" style="stop-color:#ffad00"/><stop offset=".545" style="stop-color:#ffd500"/><stop offset=".827" style="stop-color:#ffed00"/><stop offset="1" style="stop-color:#fff600"/></linearGradient><circle cx="32" cy="32" r="30" style="fill:url(#a)"/><path d="M47.24 36.33C43.6 35.65 38.47 35 32 35s-11.61.65-15.25 1.33c-1.84.34-2.84 1.87-2.75 3.41C14.45 47.49 20.4 54 32 54s17.55-6.51 18-14.27c.08-1.54-.92-3.06-2.76-3.4z" style="fill:#1a1626"/><path d="M23.47 50s3.79 2 8.53 2c4.74 0 8.53-2 8.53-2s-2.84-3-8.53-2c-5.68-1-8.53 2-8.53 2z" style="fill:#fd7383"/><linearGradient id="b" x1="16.012" x2="47.988" y1="39.498" y2="39.498" gradientUnits="userSpaceOnUse"><stop offset="0" style="stop-color:#cfd7e6"/><stop offset=".037" style="stop-color:#dae0ec"/><stop offset=".126" style="stop-color:#eef1f6"/><stop offset=".215" style="stop-color:#fbfcfd"/><stop offset=".3" style="stop-color:#fff"/><stop offset=".7" style="stop-color:#fff"/><stop offset=".785" style="stop-color:#fbfcfd"/><stop offset=".874" style="stop-color:#eef1f6"/><stop offset=".963" style="stop-color:#dae0ec"/><stop offset="1" style="stop-color:#cfd7e6"/></linearGradient><path d="M46.51 38.24C44 37.79 38.69 37 32 37c-6.69 0-12 .79-14.51 1.24-1.57.28-1.6.97-1.39 2.28.18 1.15.31 1.45 1.52 1.47 1.12.02 14.38 0 14.38 0s13.26.02 14.38 0c1.22-.02 1.34-.32 1.52-1.47.21-1.31.17-1.99-1.39-2.28z" style="fill:url(#b)"/><linearGradient id="c" x1="100.954" x2="100.954" y1="-34.87" y2="-59.992" gradientTransform="rotate(14.999 -176.034 -220.715)" gradientUnits="userSpaceOnUse"><stop offset="0" style="stop-color:#b023aa"/><stop offset="1" style="stop-color:#ff3bf6"/></linearGradient><path d="m59.69 18.36-7.72-3.32-1.64-8.25c-.13-.65-.59-.78-1.03-.28l-5.55 6.32-8.35-.99c-.66-.08-.92.33-.58.9l4.3 7.23-3.52 7.64c-.28.6.02.98.67.83l8.2-1.85 6.18 5.71c.49.45.94.28 1-.38l.77-8.37 7.33-4.11c.57-.34.55-.82-.06-1.08z" style="fill:url(#c)"/><linearGradient id="d" x1="-44.184" x2="-44.184" y1="96.216" y2="71.094" gradientTransform="rotate(-14.999 -261.253 -184.155)" gradientUnits="userSpaceOnUse"><stop offset="0" style="stop-color:#b023aa"/><stop offset="1" style="stop-color:#ff3bf6"/></linearGradient><path d="m29.01 11.85-8.35.99-5.55-6.32c-.44-.5-.9-.38-1.03.28l-1.64 8.25-7.72 3.32c-.61.26-.64.74-.06 1.07l7.33 4.11.77 8.37c.06.66.51.83 1 .38l6.18-5.7 8.2 1.85c.65.15.95-.23.67-.83l-3.52-7.64 4.3-7.23c.34-.58.08-.98-.58-.9z" style="fill:url(#d)"/></svg>