<svg xmlns="http://www.w3.org/2000/svg" xml:space="preserve" style="enable-background:new 0 0 64 64" viewBox="0 0 64 64"><linearGradient id="a" x1="32" x2="32" y1="62" y2="3.935" gradientUnits="userSpaceOnUse"><stop offset="0" style="stop-color:#ffae61"/><stop offset=".461" style="stop-color:#ffd497"/><stop offset=".811" style="stop-color:#ffedba"/><stop offset="1" style="stop-color:#fff6c7"/></linearGradient><path d="M32 3.94c16.02 0 29 12.99 29 29.03C61 49 48.02 62 32 62S3 49 3 32.96C3 16.93 15.98 3.94 32 3.94z" style="fill:url(#a)"/><radialGradient id="b" cx="14.647" cy="35.78" r="9.846" gradientTransform="matrix(1.0495 0 0 1.0507 -.939 -1.523)" gradientUnits="userSpaceOnUse"><stop offset="0" style="stop-color:#ffa580"/><stop offset="1" style="stop-color:#ffa580;stop-opacity:0"/></radialGradient><path d="M14.43 25.73c5.7 0 10.33 4.63 10.33 10.35 0 5.71-4.63 10.34-10.33 10.34-5.71 0-10.33-4.63-10.33-10.34 0-5.72 4.63-10.35 10.33-10.35z" style="fill:url(#b)"/><radialGradient id="c" cx="48.989" cy="36.005" r="9.847" gradientTransform="matrix(1.0496 0 0 1.0504 -1.854 -1.749)" gradientUnits="userSpaceOnUse"><stop offset="0" style="stop-color:#ffa580"/><stop offset="1" style="stop-color:#ffa580;stop-opacity:0"/></radialGradient><path d="M49.57 25.73c5.71 0 10.33 4.64 10.33 10.34 0 5.72-4.63 10.35-10.33 10.35-5.71 0-10.33-4.63-10.33-10.35-.01-5.71 4.62-10.34 10.33-10.34z" style="fill:url(#c)"/><linearGradient id="d" x1="30.729" x2="30.729" y1="-51.035" y2="-64.584" gradientTransform="matrix(.7857 0 0 .8399 7.856 85.66)" gradientUnits="userSpaceOnUse"><stop offset="0" style="stop-color:#b00000"/><stop offset=".21" style="stop-color:#c80000"/><stop offset=".531" style="stop-color:#e60000"/><stop offset=".806" style="stop-color:#f80000"/><stop offset="1" style="stop-color:red"/></linearGradient><path d="M32 31.42c3.42 0 6.2 2.55 6.2 5.69 0 3.14-2.78 5.69-6.2 5.69-3.43 0-6.2-2.55-6.2-5.69 0-3.14 2.77-5.69 6.2-5.69z" style="fill:url(#d)"/><path d="M20.24 40.5c-.75 0-1.49.21-2.13.6-1.95 1.19-2.57 3.73-1.39 5.67 2.5 4.12 7.82 8.53 15.28 8.53 7.45 0 12.77-4.4 15.28-8.53.57-.94.74-2.05.48-3.12a4.107 4.107 0 0 0-1.87-2.55c-.64-.39-1.38-.6-2.14-.6-1.43 0-2.78.76-3.52 1.98A9.64 9.64 0 0 1 32 47.04a9.64 9.64 0 0 1-8.23-4.56 4.169 4.169 0 0 0-3.53-1.98z" style="fill:red"/><path d="M32 52.04c-6.18 0-10.58-3.75-12.64-7.26a.772.772 0 0 1 .28-1.06c.37-.22.84-.09 1.06.27 1.84 3.14 5.78 6.49 11.3 6.49 5.52 0 9.46-3.35 11.3-6.49a.77.77 0 0 1 1.06-.27c.37.22.49.69.27 1.06-2.05 3.51-6.46 7.26-12.63 7.26z" style="fill:#fff"/><path d="M43.27 18.25c-.84 1.55 4.13 1.55 3.28 0-2.07-3.83-1.2-3.82-3.28 0zm3.29 14.95c.84-1.55-4.13-1.55-3.28 0 2.07 3.83 1.2 3.83 3.28 0z" style="fill:#0070d9"/><path d="M44.92 17.97c4.28 0 7.75 3.47 7.75 7.76 0 4.29-3.47 7.76-7.75 7.76-4.28 0-7.75-3.47-7.75-7.76 0-4.29 3.46-7.76 7.75-7.76z" style="fill:#0070d9"/><path d="M44.92 19.52c3.42 0 6.2 2.78 6.2 6.21a6.201 6.201 0 1 1-12.4 0c0-3.43 2.77-6.21 6.2-6.21z" style="fill:#fff"/><path d="M44.47 21.93c2.09 0 3.79 1.7 3.79 3.79s-1.7 3.79-3.79 3.79-3.79-1.7-3.79-3.79 1.7-3.79 3.79-3.79z" style="fill:#1a1626"/><path d="M44.07 23.8c0 1.31-1.97 1.31-1.97 0s1.97-1.31 1.97 0z" style="fill:#fff"/><path d="M20.73 18.25c.84 1.55-4.12 1.55-3.28 0 2.07-3.83 1.2-3.82 3.28 0zM17.44 33.2c-.84-1.55 4.13-1.55 3.28 0-2.07 3.83-1.2 3.83-3.28 0z" style="fill:#0070d9"/><path d="M19.08 17.97c-4.28 0-7.75 3.47-7.75 7.76 0 4.29 3.47 7.76 7.75 7.76 4.28 0 7.75-3.47 7.75-7.76 0-4.29-3.46-7.76-7.75-7.76z" style="fill:#0070d9"/><path d="M19.08 19.52c-3.42 0-6.2 2.78-6.2 6.21a6.201 6.201 0 1 0 12.4 0c0-3.43-2.77-6.21-6.2-6.21z" style="fill:#fff"/><path d="M19.53 21.93c-2.09 0-3.79 1.7-3.79 3.79s1.7 3.79 3.79 3.79 3.79-1.7 3.79-3.79-1.7-3.79-3.79-3.79z" style="fill:#1a1626"/><path d="M19.93 23.8c0 1.31 1.97 1.31 1.97 0s-1.97-1.31-1.97 0z" style="fill:#fff"/><linearGradient id="e" x1="-212.16" x2="-226.74" y1="232.156" y2="217.576" gradientTransform="rotate(45.001 171.556 443.112)" gradientUnits="userSpaceOnUse"><stop offset="0" style="stop-color:#0056a8"/><stop offset=".188" style="stop-color:#0061bc"/><stop offset=".416" style="stop-color:#0069cc"/><stop offset=".67" style="stop-color:#006ed6"/><stop offset="1" style="stop-color:#0070d9"/></linearGradient><path d="M59.48 15.25s2.16-3.67-1.81-7.17c.43-2.95-3.15-5.69-5.56-4.86-4.46-2.82-6.86.15-6.86.15-4.57-2.18-6.89 1.3-6.89 1.3C40.21 8.95 46.24 10 46.24 10c1.18 4.29 6.21 5.77 6.21 5.77 1.57 4.29 6.63 6.86 6.63 6.86s2.79-2.67.4-7.38z" style="fill:url(#e)"/><linearGradient id="f" x1="-75.513" x2="-90.094" y1="95.51" y2="80.929" gradientTransform="scale(-1 1) rotate(45 42.927 132.59)" gradientUnits="userSpaceOnUse"><stop offset="0" style="stop-color:#0056a8"/><stop offset=".188" style="stop-color:#0061bc"/><stop offset=".416" style="stop-color:#0069cc"/><stop offset=".67" style="stop-color:#006ed6"/><stop offset="1" style="stop-color:#0070d9"/></linearGradient><path d="M4.52 15.25s-2.16-3.67 1.81-7.17c-.42-2.96 3.16-5.7 5.57-4.86 4.46-2.82 6.86.15 6.86.15 4.57-2.18 6.89 1.3 6.89 1.3C23.8 8.95 17.77 10 17.77 10c-1.18 4.29-6.21 5.77-6.21 5.77-1.57 4.29-6.63 6.86-6.63 6.86s-2.8-2.67-.41-7.38z" style="fill:url(#f)"/></svg>