<svg xmlns="http://www.w3.org/2000/svg" xml:space="preserve" style="enable-background:new 0 0 64 64" viewBox="0 0 64 64"><path d="m51.842 42.51-12.63-4.527-14.425.022-12.629 4.506C9.065 43.822 8 51.76 8 60.437c0 2.43 12.559 3.617 24.829 3.561 5.795-.026 15.838-1.056 15.838-1.827 0-.547-.04-2.187-.017-2.19 4.369-.594 7.35-3.413 7.35-4.58 0-4.813-1.065-11.578-4.158-12.89z" style="fill:#ff7a00"/><path d="m24.787 38.005-1.742.619c0 7.544 17.91 7.524 17.91-.02l-1.742-.621-14.426.022z" style="fill:#ed6a00"/><path d="M24.586 32.798v5.64c0 5.353 14.828 5.353 14.828 0v-5.64H24.586z" style="fill:#5e4c3b"/><path d="m16.028 63.177-.695-.09c0-12.122.695-12.032.695.09z" style="fill:#ed6a00"/><path d="M16.924 23.376s.462 4.509-.676 7.544c1.6-.173 2.014-.986 2.014-.986s-.056 2.112-.87 3.591c1.504.25 2.428-.5 2.428-.5s0 1.598.117 2.696c4.38-1.14 4.118-6.273 4.118-6.273l-7.131-6.072zm30.827 7.544c-1.138-3.042-.676-7.544-.676-7.544l-7.124 6.072s-.262 5.133 4.117 6.273c.118-1.098.118-2.696.118-2.696s.924.75 2.427.5c-.82-1.472-.869-3.591-.869-3.591s.407.813 2.007.986z" style="fill:#1a1714"/><path d="M46.917 17.756c-2.31.285-3.98 8.072-2.524 10.129.2.284 1.393.743 2.275-1.07.49-1.008 1.897-1.841 2.338-3.918.559-2.654.214-5.419-2.09-5.14zm-29.835 0c2.31.285 3.98 8.072 2.524 10.129-.2.284-1.393.743-2.276-1.07-.49-1.008-1.896-1.841-2.337-3.918-.56-2.654-.207-5.419 2.09-5.14z" style="fill:#735c48"/><path d="M46.855 19.25c-.6.194-1.262 1.118-1.614 2.653 2.103-.458 1.58 3.078-.248 3.147.013.355.04.723.082 1.105.883-1.292 1.78-.771 2.67-2.695.792-1.73.606-4.683-.89-4.21zm-28.097 2.646c-.359-1.535-1.014-2.459-1.614-2.646-1.49-.473-1.683 2.48-.883 4.21.89 1.917 1.787 1.403 2.67 2.695.04-.39.068-.75.082-1.112-1.814-.083-2.33-3.57-.255-3.147z" style="fill:#4a3728"/><path d="M32 2.779c-10.007 0-14.828 8.21-14.228 18.763.124 2.119.71 5.183 1.434 7.808C20.703 34.804 27.324 40.292 32 40.292c4.675 0 11.29-5.488 12.793-10.942.724-2.626 1.31-5.682 1.434-7.808C46.827 10.99 42.007 2.78 32 2.78z" style="fill:#735c48"/><path d="M42.875 16.978c-2.29-1.223-6.669-1.278-8.296-.43-.352.166-.117 1.32.172 1.208 2.276-.903 5.945-.924 8.07.076.282.14.4-.68.054-.854zm-21.751 0c2.29-1.223 6.669-1.278 8.303-.43.352.166.117 1.32-.172 1.208-2.276-.903-5.938-.924-8.07.076-.289.14-.406-.68-.061-.854z" style="fill:#302b27"/><path d="M34.703 27.572c-.283-.202-.959.111-2.704.111-1.744 0-2.413-.313-2.703-.111-.345.243.2 1.34 2.704 1.34 2.496 0 3.04-1.097 2.703-1.34z" style="fill:#4a3728"/><path d="M29.13 20.934c-1.833 1.176-4.677 1.176-6.51 0-.28-.181-.447.014-.359.166 1.78 3.039 5.446 3.039 7.225 0 .09-.152-.078-.347-.357-.166zm12.25 0c-1.833 1.176-4.677 1.176-6.51 0-.28-.181-.445.014-.358.166 1.78 3.039 5.446 3.039 7.225 0 .09-.152-.078-.347-.357-.166z" style="fill:#2e221e"/><path d="M27.803 33.862a8.061 8.061 0 0 1 8.393 0c.362.22.407-.017.295-.208-1.891-3.203-7.092-3.203-8.983 0-.111.19-.069.429.295.208z" style="fill:#301f12"/><path d="M22.572 4.324c5.241 5 20.841 8.13 23.545 19.144-3.69-11.055-17.255-7.951-23.545-19.144z" style="fill:#1a1714"/><path d="M32.151 0c-6.09 0-9.13 2.759-9.752 4.069 7.594 11.592 20.462 7.668 23.718 19.406C52.66 13.055 47.227 0 32.15 0z" style="fill:#382e26"/><path d="M32.151 0c-5.423 0-8.998 2.202-9.752 4.069 2.627 7.074 20.652 7.29 24.145 16.69-.736-6.747-6.08-11.246-6.08-11.246S45.27 12.618 47.661 17c-.446-6.292-5.407-9.915-5.407-9.915s4.474 3.105 5.951 6.683C47.332 6.513 43.847 0 32.151 0z" style="fill:#473e35"/><path d="M45.018 7.271c-5.03-8.473-15.833-6.24-15.833-6.24s8.989.467 15.833 6.24z" style="fill:#574f45"/><path d="M45.457 12.545C38.234-.974 24.73 3.451 24.73 3.451s11.682-.45 20.727 9.094z" style="fill:#574f45"/><path d="M25.494 5.313c7.44 2.758 15.982 7.729 15.982 7.729s-5.05-7.585-15.982-7.73z" style="fill:#574f45"/><path d="M22.4 4.069c-7.36 1.683-9.732 14.103-4.221 19.399.683-5.648 1.345-9.276 5.096-13.096 0 0 .221-3.359-.876-6.303z" style="fill:#382e26"/><path d="M23.103 9.937s-4.835 4.483-4.924 13.53c.827-8.964 5.145-13.012 5.145-13.012l-.221-.518z" style="fill:#1a1714"/><path d="M22.475 4.324s-8.538 2.917-6.103 14.668c.055-.947.185-1.823.358-2.649-.016 1.467.203 3.076.766 4.835.738-8.165 5.476-12.15 5.476-12.15l-.497-4.704z" style="fill:#473e35"/><path d="M17.218 16.207c1.09-6.103 5.936-10.127 5.936-10.127s-6.736.445-5.936 10.127z" style="fill:#574f45"/><path d="M22.4 4.069c-2.007 9.103 7.613 10.889 11.69 10.889C26.764 9.882 22.4 4.068 22.4 4.068z" style="fill:#382e26"/><path d="M22.158 5.69c.193 5.213 3.034 8.468 11.931 9.268-6.958.469-13-3.007-11.93-9.269z" style="fill:#1a1714"/><path d="M22.4 4.069s-1.114 8.198 11.69 10.889c-7.057-5.445-8.333-8.589-11.69-10.89z" style="fill:#473e35"/><path d="M29.752 12.574C27.494 11.1 23.849 5.78 23.849 5.78s.714 5.495 5.903 6.793z" style="fill:#574f45"/><radialGradient id="a" cx="33.708" cy="23.479" r="12.688" gradientTransform="matrix(.9588 -.2842 .3578 1.2073 -7.011 4.712)" gradientUnits="userSpaceOnUse"><stop offset="0" style="stop-color:#260000;stop-opacity:.5"/><stop offset="1" style="stop-color:#260000;stop-opacity:0"/></radialGradient><path d="M48.411 18.177C50.543 9.083 44.681 0 32.151 0c-6.09 0-9.13 2.779-9.751 4.099-5.445 1.254-8.156 8.429-6.967 14.238-.777.92-.818 2.764-.44 4.56.441 2.077 1.848 2.91 2.338 3.918.502 1.03 1.099 1.317 1.562 1.328.101.409.205.814.314 1.207C20.703 34.804 27.324 40.292 32 40.292c4.675 0 11.29-5.488 12.793-10.942.109-.393.213-.798.314-1.207.463-.011 1.06-.298 1.562-1.328.49-1.008 1.896-1.841 2.338-3.918.401-1.91.331-3.87-.596-4.72z" style="opacity:.3;fill:url(#a);enable-background:new"/><path d="M54.803 51.007c-3.734-11.72-20.459-13.382-11.915-31.513-3.632.652-3.555 5.567-3.909 3.693-.485-2.584-2.045-7.438-2.336-8.763-.522-2.399-3.597-1.97-3.575.487.341 1.704 1.573 6.726 1.434 6.76-.131.027-3.676-6.266-4.153-7.081-1.32-2.264-3.955-1.188-3.245 1.372 1.102 2.697 3.63 6.892 3.428 6.995-.17.086-4.036-4.347-4.594-5.092-1.447-1.931-4.245.273-2.564 2.28.063.077 4.561 5.298 4.376 5.393-.154.079-3.228-2.4-3.228-2.4-1.514-1.03-3.306.617-2.011 2.068 2.885 3.24 3.664 2.752 5.49 6.869.898 2.023 2.741 4.532 4.536 4.957.113.357.18.65.347 1.029-.187.278-.147.872-.07 1.077 6.065 16.36 13.123 21.02 13.123 21.02 8.712-1.094 9.916-5.856 8.866-9.151z" style="opacity:.3;fill:#260000;enable-background:new"/><path d="M33.286 38.346c-.637-1.676 8.87-6.518 9.605-4.454 2.493 6.988 11.605 12.442 13.018 20.623 1.034 5.985-7.03 7.96-9.23 6.248-5.2-4.05-8.8-10.358-13.393-22.417z" style="fill:#ff7a00"/><path d="M42.164 33.807c.608 1.202-7.846 5.53-8.451 4.328-3.994-7.908 4.6-11.96 8.451-4.328z" style="fill:#735c48"/><path d="M42.114 19.768c-2.837 1.53-1.636 4.524-2.819 4.262-.242-.054-.66-.718-.73-1.078-.48-2.582-1.576-7.246-1.868-8.572-.523-2.397-3.79-1.728-3.267.67.027.12 2.204 8.803 2.065 8.837-.132.028-4.677-8.758-5.155-9.576-1.32-2.263-4.206-.464-2.835 1.767.055.092 5.113 9.281 4.912 9.384-.172.086-5.723-6.91-6.304-7.639-1.634-2.046-4.233.157-2.552 2.163.064.076 6.017 6.93 5.831 7.023-.154.08-4.688-3.812-4.688-3.812-1.562-1.509-3.492.486-1.927 1.996 3.32 3.205 4.313 3.406 6.14 7.52 1.59 3.582 4.874 5.045 8.834 3.025 8.656-4.418 3.044-9.429 6.523-15.192.436-.713-.746-1.54-2.16-.778z" style="fill:#735c48"/></svg>