<svg xmlns="http://www.w3.org/2000/svg" xml:space="preserve" style="enable-background:new 0 0 64 64" viewBox="0 0 64 64"><linearGradient id="a" x1="32" x2="32" y1="62" y2="2" gradientUnits="userSpaceOnUse"><stop offset="0" style="stop-color:#ff9500"/><stop offset=".192" style="stop-color:#ffad00"/><stop offset=".545" style="stop-color:#ffd500"/><stop offset=".827" style="stop-color:#ffed00"/><stop offset="1" style="stop-color:#fff600"/></linearGradient><circle cx="32" cy="32" r="30" style="fill:url(#a)"/><linearGradient id="b" x1="32" x2="32" y1="62" y2="2" gradientUnits="userSpaceOnUse"><stop offset=".248" style="stop-color:#ffe81a;stop-opacity:0"/><stop offset=".291" style="stop-color:#ffd518;stop-opacity:.0689"/><stop offset=".502" style="stop-color:#ff7b0e;stop-opacity:.4135"/><stop offset=".673" style="stop-color:#ff3906;stop-opacity:.6939"/><stop offset=".797" style="stop-color:#ff1002;stop-opacity:.8961"/><stop offset=".861" style="stop-color:red"/></linearGradient><circle cx="32" cy="32" r="30" style="opacity:.6;fill:url(#b)"/><linearGradient id="c" x1="22.01" x2="36.01" y1="46.922" y2="48.36" gradientUnits="userSpaceOnUse"><stop offset="0" style="stop-color:#854e00"/><stop offset=".818" style="stop-color:#854e00;stop-opacity:0"/></linearGradient><path d="M32.81 33.82c-2.63 7.56-7.34 15.06-20.5 20.81A29.847 29.847 0 0 0 32 62c8.91-8.16 3.91-25.41.81-28.18z" style="fill:url(#c)"/><path d="M24.89 47.54c3.66-2.57 10.26-2.74 14.21 0 .92.63 2.43.19 2.09-.55-3.46-7.54-14.95-7.52-18.4 0-.33.74 1.19 1.18 2.1.55z" style="fill:#1a1626"/><linearGradient id="d" x1="18.284" x2="18.284" y1="61.698" y2="32.553" gradientUnits="userSpaceOnUse"><stop offset="0" style="stop-color:#dfe4e8"/><stop offset=".359" style="stop-color:#e6eaed"/><stop offset=".885" style="stop-color:#fafbfb"/><stop offset="1" style="stop-color:#fff"/></linearGradient><path d="M29.91 32.82c-11.16 8-18.59 5.34-24.22 7.8-1.53.67 2.04 3.33 1.43 6.48 0 0-2.35.81-4.33 1.21-1.95.4-.25 6.14 5.14 8.63 2.05.94 7.39-1.84 8.5 2.05.64 2.25-.87 3.18.77 2.84 20.66-4.22 20.06-34.28 12.71-29.01z" style="fill:url(#d)"/><linearGradient id="e" x1="17.898" x2="11.194" y1="43.436" y2="37.085" gradientUnits="userSpaceOnUse"><stop offset="0" style="stop-color:#cdd4d9"/><stop offset=".279" style="stop-color:#d5dce1;stop-opacity:.6755"/><stop offset=".723" style="stop-color:#ecf3f7;stop-opacity:.1605"/><stop offset=".861" style="stop-color:#f5fbff;stop-opacity:0"/></linearGradient><path d="M25.15 37.95c-7.29 2.1-14.47 1.88-19.41 3.39 2.54 4.13 1.37 5.76 1.37 5.76 11.35-4.23 23.67-10.77 18.04-9.15z" style="fill:url(#e)"/><linearGradient id="f" x1="6.575" x2="26.346" y1="54.556" y2="34.786" gradientUnits="userSpaceOnUse"><stop offset=".158" style="stop-color:#cdd4d9;stop-opacity:0"/><stop offset="1" style="stop-color:#cdd4d9"/></linearGradient><path d="M28.29 38.79c-8.12 6-19.26 8.71-24.36 10.19-.73 3.93 4.74 7.12 4.74 7.12 15.95-8.21 24.77-21.11 19.62-17.31z" style="fill:url(#f)"/><linearGradient id="g" x1="14.157" x2="32.455" y1="59.943" y2="41.645" gradientUnits="userSpaceOnUse"><stop offset=".158" style="stop-color:#cdd4d9;stop-opacity:0"/><stop offset="1" style="stop-color:#cdd4d9"/></linearGradient><path d="M30.25 41.62c-7.83 9.62-11.63 10.74-19.52 14.9 8.45-1.13 6.4 4.49 6.4 4.49 14.49-5.3 17.27-24.49 13.12-19.39z" style="fill:url(#g)"/><path d="M48.56 31.93c-3.2-1.64-9.6-4.28-13.06-5.32-.64-.19-.67-.86-.05-1.15 4.16-1.92 8-3.89 12.54-6.35.84-.45 1.67.81.98 1.52-1.86 1.88-4.5 3.64-6.44 4.94 2.21 1.15 5.25 3.18 7.21 4.99.78.72-.39 1.78-1.18 1.37zm-34.3-1.36c1.97-1.81 5.01-3.84 7.21-4.99-1.93-1.3-4.58-3.06-6.44-4.94-.7-.7.14-1.97.98-1.52 4.54 2.46 8.39 4.42 12.54 6.35.62.29.59.96-.05 1.15-3.46 1.04-9.86 3.68-13.06 5.32-.79.4-1.96-.66-1.18-1.37z" style="fill:#1a1626"/></svg>