<svg xmlns="http://www.w3.org/2000/svg" xml:space="preserve" style="enable-background:new 0 0 64 64" viewBox="0 0 64 64"><linearGradient id="a" x1="32" x2="32" y1="60.001" y2="1.999" gradientUnits="userSpaceOnUse"><stop offset="0" style="stop-color:#ff9500"/><stop offset=".192" style="stop-color:#ffad00"/><stop offset=".545" style="stop-color:#ffd500"/><stop offset=".827" style="stop-color:#ffed00"/><stop offset="1" style="stop-color:#fff600"/></linearGradient><path d="M32 2c16.02 0 29 12.98 29 29S48.02 60 32 60 3 47.02 3 31 15.98 2 32 2z" style="fill:url(#a)"/><path d="M36.5 39.11c0 3.53-9 3.53-9 0 0-1.85 2.02-3.35 4.5-3.35 2.49-.01 4.5 1.49 4.5 3.35zM22.33 18.2c2.14 0 3.87 2.16 3.87 4.83s-1.73 4.83-3.87 4.83-3.87-2.16-3.87-4.83c.01-2.67 1.74-4.83 3.87-4.83zm19.34 0c2.14 0 3.87 2.16 3.87 4.83s-1.73 4.83-3.87 4.83-3.87-2.16-3.87-4.83 1.73-4.83 3.87-4.83z" style="fill:#1a1626"/><path d="M33.47 34.46c0 4.11-2.64 11.56-2.64 11.56l8.71-.46s1.5-5.85 1.76-10.98c.32-6.08-7.83-6.32-7.83-.12z" style="fill:#99a8ae"/><path d="m38.11 43.78-4.59.24s1.81-5.07 1.81-9.56c0-3.64 4.23-3.62 4.12.07-.15 4.97-1.34 9.25-1.34 9.25z" style="fill:#fff"/><path d="M38.65 41.47c-4.19 0-9.66 2.35-11.29 8.95-3.62 13.87 14.26 18 17.81 8.22 1.3-3.68 2.96-5.42 4.16-6.68 4.36-3.97-.29-7.83-2.97-6.9-1.31-2.17-4.22-3.59-7.71-3.59z" style="fill:#99a8ae"/><path d="M49.19 48.8c-.01 1.51-3.51 2.71-5.82 9.23-2.63 7.44-17.15 4.59-14.25-7.15 2.47-10 15-8.71 15.99-3.84.29 1.43-1.4 2.15-1.41 2.13a6.914 6.914 0 0 0-6.7-3.3c3.79.05 9.34 5.61 4.65 6.68-2.73-3.14-6.11-3.11-7.83-2.89 4.06.2 6.24 1.8 7.11 3.73.83 1.86-.63 4.76-2.5 2.77-1.25-1.33-2.71-2.06-5.02-2 2.37.63 3.67 1.41 4.77 2.94 1.95 2.72 4.99-.92 3.9-3.56 2-.62 2.51-2.09 2.03-3.41 1.67-.84 1.89-1.97 1.81-2.71 1.37-1.49 3.28-.02 3.27 1.38z" style="fill:#fff"/><path d="M18.22 9.03c-10.25 4.91-4.15 6.71 5.02 3.61 5.17-1.74 1.73-6.85-5.02-3.61zm27.56.02c-6.75-3.24-10.2 1.87-5.02 3.61 9.17 3.09 15.28 1.3 5.02-3.61z" style="fill:#d69600"/></svg>