<svg xmlns="http://www.w3.org/2000/svg" xml:space="preserve" style="enable-background:new 0 0 64 64" viewBox="0 0 64 64"><linearGradient id="a" x1="31.776" x2="31.776" y1="61.552" y2="2" gradientUnits="userSpaceOnUse"><stop offset="0" style="stop-color:#ff9500"/><stop offset=".192" style="stop-color:#ffad00"/><stop offset=".545" style="stop-color:#ffd500"/><stop offset=".827" style="stop-color:#ffed00"/><stop offset="1" style="stop-color:#fff600"/></linearGradient><path d="M31.78 2c16.45 0 29.78 13.33 29.78 29.78 0 16.44-13.33 29.78-29.78 29.78C15.33 61.55 2 48.22 2 31.78 2 15.33 15.33 2 31.78 2z" style="fill:url(#a)"/><path d="M42 20.61c-3.03 2.08-7.09 5.23-11.63 9.77-4.54 4.54-7.69 8.6-9.77 11.63-1.05 1.53-.68 3.3.46 4.32 5.76 5.13 14.5 5.52 22.64-2.62s7.74-16.88 2.62-22.64c-1.01-1.15-2.79-1.51-4.32-.46z" style="fill:#1a1626"/><path d="M34.92 46.88s4.06-1.26 7.39-4.58c3.33-3.32 4.58-7.39 4.58-7.39s-4.1-.11-7.39 4.58c-4.69 3.29-4.58 7.39-4.58 7.39z" style="fill:#fd7383"/><linearGradient id="b" x1="-318.365" x2="-286.627" y1="-14.772" y2="-14.772" gradientTransform="rotate(-45.001 -76.173 -396.24)" gradientUnits="userSpaceOnUse"><stop offset="0" style="stop-color:#cfd7e6"/><stop offset=".037" style="stop-color:#dae0ec"/><stop offset=".126" style="stop-color:#eef1f6"/><stop offset=".215" style="stop-color:#fbfcfd"/><stop offset=".3" style="stop-color:#fff"/><stop offset=".7" style="stop-color:#fff"/><stop offset=".785" style="stop-color:#fbfcfd"/><stop offset=".874" style="stop-color:#eef1f6"/><stop offset=".963" style="stop-color:#dae0ec"/><stop offset="1" style="stop-color:#cfd7e6"/></linearGradient><path d="M42.83 22.47c-2.08 1.45-6.36 4.61-11.05 9.31-4.69 4.69-7.86 8.98-9.31 11.05-.9 1.3-.44 1.8.62 2.57.93.68 1.23.8 2.1-.04.79-.77 10.09-10.09 10.09-10.09s9.32-9.3 10.09-10.09c.84-.87.71-1.17.04-2.1-.78-1.06-1.28-1.51-2.58-.61z" style="fill:url(#b)"/><path d="M39.47 16.23c-3.4 1.09-9.74 3.74-12.9 5.43-.58.31-1.07-.13-.84-.77 1.57-4.27 2.89-8.34 4.35-13.26.27-.9 1.74-.6 1.75.38.02 2.62-.6 5.72-1.05 7.98 2.36-.74 5.91-1.45 8.57-1.56 1.05-.03.96 1.53.12 1.8zM14.44 39.35c.11-2.66.82-6.21 1.56-8.57-2.27.44-5.36 1.07-7.98 1.05-.98-.01-1.28-1.48-.38-1.75 4.91-1.46 8.99-2.78 13.26-4.35.64-.23 1.08.26.77.84-1.69 3.16-4.34 9.5-5.43 12.9-.28.84-1.84.93-1.8-.12z" style="fill:#1a1626"/><radialGradient id="c" cx="103.619" cy="-1123.97" r="7.821" fx="106.403" fy="-1120.005" gradientTransform="matrix(.5452 -.8368 1.314 .8528 1471.28 1062.68)" gradientUnits="userSpaceOnUse"><stop offset=".055" style="stop-color:#73efff"/><stop offset=".285" style="stop-color:#70edff"/><stop offset=".446" style="stop-color:#67e5ff"/><stop offset=".587" style="stop-color:#57d8ff"/><stop offset=".715" style="stop-color:#42c7ff"/><stop offset=".835" style="stop-color:#25afff"/><stop offset=".948" style="stop-color:#0393ff"/><stop offset=".956" style="stop-color:#0091ff"/></radialGradient><path d="M55.89 13.86c-5.14-1.8-12.65 1.26-13.23 1.87-.23.24-.22.51.33.72 3.2 1.2 4.78 2.54 7.38 6.55 7.15 11.03 18.91-4.44 5.52-9.14z" style="fill:url(#c)"/><linearGradient id="d" x1="288.446" x2="288.446" y1="24.049" y2="15.624" gradientTransform="matrix(1.1792 -.1161 .0979 .9953 -291.284 32.141)" gradientUnits="userSpaceOnUse"><stop offset=".053" style="stop-color:#c4eeff;stop-opacity:0"/><stop offset=".45" style="stop-color:#cdf0ff;stop-opacity:.4197"/><stop offset="1" style="stop-color:#d4f2ff"/></linearGradient><path d="M53.92 14.53c-3.89-1.08-9.66.79-10.12 1.17-.18.15-.18.33.23.47 2.4.78 3.92 1.63 5.64 4.07 4.51 6.35 12.76-3.33 4.25-5.71z" style="fill:url(#d)"/><radialGradient id="e" cx="211.534" cy="-1106.458" r="7.821" fx="214.317" fy="-1102.493" gradientTransform="matrix(-.8368 .5452 .8528 1.314 1138.045 1389.435)" gradientUnits="userSpaceOnUse"><stop offset=".055" style="stop-color:#73efff"/><stop offset=".285" style="stop-color:#70edff"/><stop offset=".446" style="stop-color:#67e5ff"/><stop offset=".587" style="stop-color:#57d8ff"/><stop offset=".715" style="stop-color:#42c7ff"/><stop offset=".835" style="stop-color:#25afff"/><stop offset=".948" style="stop-color:#0393ff"/><stop offset=".956" style="stop-color:#0091ff"/></radialGradient><path d="M13.86 55.89c-1.8-5.14 1.26-12.65 1.87-13.23.24-.23.51-.22.72.33 1.2 3.2 2.54 4.78 6.55 7.38 11.03 7.15-4.44 18.91-9.14 5.52z" style="fill:url(#e)"/><linearGradient id="f" x1="359.405" x2="359.405" y1="-44.954" y2="-53.379" gradientTransform="matrix(-.1161 1.1792 .9953 .0979 109.055 -368.198)" gradientUnits="userSpaceOnUse"><stop offset=".053" style="stop-color:#c4eeff;stop-opacity:0"/><stop offset=".45" style="stop-color:#cdf0ff;stop-opacity:.4197"/><stop offset="1" style="stop-color:#d4f2ff"/></linearGradient><path d="M14.53 53.92c-1.08-3.89.79-9.66 1.17-10.12.15-.18.33-.18.47.23.78 2.4 1.63 3.92 4.07 5.64 6.35 4.51-3.33 12.76-5.71 4.25z" style="fill:url(#f)"/></svg>