<svg xmlns="http://www.w3.org/2000/svg" xml:space="preserve" style="enable-background:new 0 0 64 64" viewBox="0 0 64 64"><linearGradient id="a" x1="641.072" x2="661.395" y1="45.929" y2="45.929" gradientTransform="matrix(.9874 0 0 .9797 -589.061 -28.75)" gradientUnits="userSpaceOnUse"><stop offset="0" style="stop-color:#000"/><stop offset=".044" style="stop-color:#0a0603"/><stop offset=".281" style="stop-color:#3f2513"/><stop offset=".503" style="stop-color:#683d20"/><stop offset=".704" style="stop-color:#864f29"/><stop offset=".876" style="stop-color:#98592e"/><stop offset="1" style="stop-color:#9e5d30"/></linearGradient><path d="M55.95 8.94c3.41-2.94 9.48-.93 7.75 6.11-2.72 11-20.72 12.4-19.72 5.94-.01 0 8.14-8.74 11.97-12.05z" style="fill:url(#a)"/><linearGradient id="b" x1="-30.68" x2="-10.357" y1="45.929" y2="45.929" gradientTransform="matrix(-.9874 0 0 .9797 -10.227 -28.75)" gradientUnits="userSpaceOnUse"><stop offset="0" style="stop-color:#000"/><stop offset=".044" style="stop-color:#0a0603"/><stop offset=".281" style="stop-color:#3f2513"/><stop offset=".503" style="stop-color:#683d20"/><stop offset=".704" style="stop-color:#864f29"/><stop offset=".876" style="stop-color:#98592e"/><stop offset="1" style="stop-color:#9e5d30"/></linearGradient><path d="M8.05 8.94C4.64 6-1.43 8.02.31 15.05c2.72 11 20.72 12.4 19.72 5.94 0 0-8.15-8.74-11.98-12.05z" style="fill:url(#b)"/><linearGradient id="c" x1="32" x2="32" y1="64" y2="8" gradientUnits="userSpaceOnUse"><stop offset="0" style="stop-color:#ff9500"/><stop offset=".192" style="stop-color:#ffad00"/><stop offset=".545" style="stop-color:#ffd500"/><stop offset=".827" style="stop-color:#ffed00"/><stop offset="1" style="stop-color:#fff600"/></linearGradient><circle cx="32" cy="36" r="28" style="fill:url(#c)"/><linearGradient id="d" x1="32" x2="32" y1="28.753" y2="8.07" gradientUnits="userSpaceOnUse"><stop offset="0" style="stop-color:#ffcd1a;stop-opacity:0"/><stop offset=".183" style="stop-color:#edad12;stop-opacity:.1831"/><stop offset=".392" style="stop-color:#de900a;stop-opacity:.3915"/><stop offset=".599" style="stop-color:#d27c04;stop-opacity:.5989"/><stop offset=".803" style="stop-color:#cb6f01;stop-opacity:.803"/><stop offset="1" style="stop-color:#c96b00"/></linearGradient><path d="M59.07 28.84C55.91 16.84 44.99 8 32 8S8.09 16.84 4.93 28.84h54.14z" style="fill:url(#d)"/><path d="M22.67 27.7c2.06 0 3.73 2.09 3.73 4.67s-1.67 4.67-3.73 4.67-3.73-2.09-3.73-4.67c-.01-2.58 1.66-4.67 3.73-4.67zm18.66 0c2.06 0 3.73 2.09 3.73 4.67s-1.67 4.67-3.73 4.67-3.73-2.09-3.73-4.67 1.67-4.67 3.73-4.67zM25.15 51.84c7.23 1.87 16.12-.95 19.87-6.82.31-.48-.17-.99-.65-.61-3.92 3.1-12.24 5.4-18.34 3.62-2.33-.69-3.35 3.17-.88 3.81z" style="fill:#1a1626"/><radialGradient id="e" cx="291.002" cy="157.028" r="11.081" gradientTransform="matrix(.6013 0 0 4.6017 -135.993 -711.971)" gradientUnits="userSpaceOnUse"><stop offset="0" style="stop-color:#996540"/><stop offset=".589" style="stop-color:#ad7650"/><stop offset="1" style="stop-color:#b47d56"/></radialGradient><path d="M42.95.69C40.1-1.94 36.66 3.8 32 3.74c-.26 5.84-.65 11.68-1.17 17.5-.31-.38 6.32-.13 16.33-10.11-2.85-5.71-2.29-8.67-4.21-10.44z" style="fill:url(#e)"/><radialGradient id="f" cx="-1069.153" cy="157.028" r="11.081" gradientTransform="matrix(-.6013 0 0 4.6017 -617.868 -711.971)" gradientUnits="userSpaceOnUse"><stop offset="0" style="stop-color:#996540"/><stop offset=".589" style="stop-color:#ad7650"/><stop offset="1" style="stop-color:#b47d56"/></radialGradient><path d="M21.04.69C23.9-1.94 27.34 3.8 32 3.74c.26 5.84.65 11.68 1.17 17.5.31-.38-6.32-.12-16.33-10.11 2.85-5.71 2.29-8.67 4.2-10.44z" style="fill:url(#f)"/><radialGradient id="g" cx="50.198" cy="50.228" r="12.414" gradientTransform="matrix(.9449 0 0 1.2144 -15.433 -46.858)" gradientUnits="userSpaceOnUse"><stop offset="0" style="stop-color:#4d4b54"/><stop offset=".289" style="stop-color:#47454e"/><stop offset=".69" style="stop-color:#35333d"/><stop offset="1" style="stop-color:#23202b"/></radialGradient><path d="M47.16 11.14S40.24 12.78 32 12.78s-15.16-1.64-15.16-1.64l-1.27 2.06c-.19 5.26 33.04 5.26 32.85 0l-1.26-2.06z" style="fill:url(#g)"/><radialGradient id="h" cx="32.965" cy="31.652" r="17.502" gradientTransform="matrix(.9978 0 0 1.0784 -.892 -18.666)" gradientUnits="userSpaceOnUse"><stop offset=".261" style="stop-color:#b47d56"/><stop offset=".81" style="stop-color:#a8683b"/><stop offset="1" style="stop-color:#a36031"/></radialGradient><path d="M32 14.97c-14.97 0-19.94-2.69-23.95-6.02C12.22 13.36 17.78 22 32 21.99c14.22.01 19.78-8.63 23.95-13.05-4.01 3.34-8.98 6.03-23.95 6.03z" style="fill:url(#h)"/></svg>