<svg xmlns="http://www.w3.org/2000/svg" xml:space="preserve" style="enable-background:new 0 0 64 64" viewBox="0 0 64 64"><radialGradient id="a" cx="40.269" cy="41.764" r="26.662" gradientTransform="translate(-8.211)" gradientUnits="userSpaceOnUse"><stop offset="0" style="stop-color:#291d19"/><stop offset=".264" style="stop-color:#3a2a22"/><stop offset=".721" style="stop-color:#533b2e"/><stop offset="1" style="stop-color:#5c4233"/></radialGradient><path d="M38.96 41.068C52.881 35.5 51.49 18.794 51.49 18.794H12.51S11.118 35.5 25.038 41.067c0 0 2.786.696 6.96.696 4.178 0 6.961-.696 6.961-.696z" style="fill:url(#a)"/><path d="m51.842 42.51-12.63-4.528-14.425.023-12.629 4.506C9.065 43.822 8 51.76 8 60.437c0 2.43 12.559 3.617 24.829 3.561 5.795-.026 15.838-1.056 15.838-1.827 0-.547-.04-2.187-.017-2.19 4.369-.594 7.35-3.413 7.35-4.58 0-4.813-1.065-11.578-4.158-12.89z" style="fill:#8e3ed6"/><path d="m24.787 38.005-1.742.619c0 7.544 17.91 7.524 17.91-.02l-1.742-.621-14.426.022z" style="fill:#732eb0"/><path d="M24.586 32.798v5.64c0 5.353 14.828 5.353 14.828 0v-5.64H24.586z" style="fill:#855e45"/><path d="m16.028 63.177-.695-.09c0-12.122.695-12.032.695.09z" style="fill:#732eb0"/><path d="M32 2.088c-10.102 0-14.967 8.227-14.36 18.805.125 2.125.717 5.192 1.447 7.82C20.602 34.176 28.596 39.677 32 39.677c3.403 0 11.397-5.501 12.913-10.964.73-2.628 1.322-5.695 1.447-7.82C46.966 10.315 42.103 2.088 32 2.088z" style="fill:#916b50"/><path d="M42.734 17.373c-2.195-1.308-6.132-1.468-7.689-.577-.33.18-.242 1.125.044 1.007 2.221-.925 5.607-.971 7.692.099.279.141.285-.339-.047-.53zm-21.469 0c2.195-1.308 6.13-1.468 7.691-.577.33.18.242 1.125-.045 1.007-2.223-.925-5.604-.973-7.692.099-.28.141-.285-.339.046-.53z" style="fill:#523c31"/><path d="M29.13 20.934c-1.833 1.176-4.677 1.176-6.51 0-.28-.181-.447.014-.359.166 1.78 3.039 5.446 3.039 7.225 0 .09-.152-.078-.347-.357-.166zm12.25 0c-1.833 1.176-4.677 1.176-6.51 0-.28-.181-.445.014-.358.166 1.78 3.039 5.446 3.039 7.225 0 .09-.152-.078-.347-.357-.166z" style="fill:#3d2d27"/><path d="M27.803 33.862a8.061 8.061 0 0 1 8.393 0c.362.22.407-.017.295-.208-1.891-3.203-7.092-3.203-8.983 0-.111.19-.069.429.295.208z" style="fill:#5c3821"/><path d="M34.27 27.733c-.24-.169-.804.09-2.271.09-1.466 0-2.03-.259-2.27-.09-.289.202.17 1.117 2.27 1.117s2.561-.914 2.271-1.117z" style="fill:#69452d"/><radialGradient id="b" cx="34.688" cy="25.445" r="12.506" gradientTransform="matrix(.9588 -.284 .3579 1.2081 -7.677 4.556)" gradientUnits="userSpaceOnUse"><stop offset="0" style="stop-color:#260000;stop-opacity:.5"/><stop offset="1" style="stop-color:#260000;stop-opacity:0"/></radialGradient><path d="M32 2.088c-10.102 0-14.967 8.227-14.36 18.805.125 2.125.717 5.192 1.447 7.82C20.602 34.176 28.596 39.677 32 39.677c3.403 0 11.397-5.501 12.913-10.964.73-2.628 1.322-5.695 1.447-7.82C46.966 10.315 42.103 2.088 32 2.088z" style="opacity:.3;fill:url(#b);enable-background:new"/><path d="M43.368 3.565C44.523 1.92 34.752-1.559 25.528.79c-9.215 2.11-14.41 12.204-14.41 24.945 0 4.89 3.181 10.98 9.176 13.873l2-.714c-6.877-6.258-5.324-12.597-2.823-20.1 6.92-4.006 14.75-4.95 20.186-9.744-.696 2.088 2.988 4.721 4.872 9.745 2.86 7.627 4.333 15.342-5.57 22.273 8.355-1.392 13.923-9.28 13.923-15.333 0-15.061-5.82-23.235-9.514-22.17z" style="fill:#6b4d3c"/><path d="M43.368 3.565C44.478 2.238 39.54.026 33.318.026c7.635.603 10.237 4.74 8.119 3.645-2.258-1.166-7.778-2.858-15.171.492 8.09-1.721 15.53.159 14.373 1.132-1.827 1.538-9.879-2.649-21.155 7.646C17.93 14.359 26.247 7.5 37.41 7.282c-1.553 3.266-21.408 8.443-24.488 16.56 5.169-7.377 26.964-10.118 30.445-20.277zm5.056 11.822s4.84 13.131-3.27 22.235c11.619-9.104 3.27-22.235 3.27-22.235z" style="fill:#5c4233"/><path d="M19.904 18.418s-1.978.36-3.596 2.116c-3.385 11.956 4.705 17.088 4.705 17.088s-6.417-6.583-1.109-19.204z" style="fill:#5c4233"/><path d="M14.843 21.67s-.93.365-2.065 2.692c-1.053 7.29 4.065 11.003 4.065 11.003s-4.799-5.863-2-13.694zm36.185-9.297c-3.53-10.985-7.66-8.808-7.66-8.808S41.382 7.285 39.8 8.59c-2.857 3.51 6.969 6.519 6.713 21.722 2.597-10.802-4.624-18.024-4.741-19.953-.132-2.186 1.685-5.548 3.1-5.951 1.538-.438 5.058 4.989 6.156 7.965z" style="fill:#5c4233"/><path d="M12.778 24.362c5.591-9.121 26.29-8.505 30.59-20.797-7.25 11.213-29.204 13.082-30.59 20.797z" style="fill:#3d2e24"/><path d="M43.169 8.474s4.586 9.832 5.34 18.186c1.247-12.844-5.34-18.186-5.34-18.186zM18.485 16.85s6.671-4.329 15.023-7.902c-8.94.536-15.023 7.903-15.023 7.903zm-4.119-.884s5.242-8.374 14.802-10.81c-13.3-.87-14.802 10.81-14.802 10.81z" style="fill:#7a5b49"/><path d="M54.803 51.007c-3.734-11.72-20.459-13.382-11.915-31.513-3.632.652-3.555 5.567-3.909 3.693-.485-2.584-2.045-7.438-2.336-8.763-.522-2.399-3.597-1.97-3.575.487.341 1.704 1.573 6.726 1.434 6.76-.131.027-3.676-6.266-4.153-7.081-1.32-2.264-3.955-1.188-3.245 1.372 1.102 2.697 3.63 6.892 3.428 6.995-.17.086-4.036-4.347-4.594-5.092-1.447-1.931-4.245.273-2.564 2.28.063.077 4.561 5.298 4.376 5.393-.154.079-3.228-2.4-3.228-2.4-1.514-1.03-3.306.617-2.011 2.068 2.885 3.24 3.664 2.752 5.49 6.869.898 2.023 2.741 4.532 4.536 4.957.113.357.18.65.347 1.029-.187.278-.147.872-.07 1.077 6.065 16.36 13.123 21.02 13.123 21.02 8.712-1.094 9.916-5.856 8.866-9.151z" style="opacity:.3;fill:#260000;enable-background:new"/><path d="M33.286 38.346c-.637-1.676 8.87-6.518 9.605-4.454 2.493 6.988 11.605 12.442 13.018 20.623 1.034 5.985-7.03 7.96-9.23 6.248-5.2-4.05-8.8-10.358-13.393-22.417z" style="fill:#8e3ed6"/><path d="M42.164 33.807c.608 1.202-7.846 5.53-8.451 4.328-3.994-7.908 4.6-11.96 8.451-4.328z" style="fill:#916b50"/><path d="M42.114 19.768c-2.837 1.53-1.636 4.524-2.819 4.262-.242-.054-.66-.718-.73-1.078-.48-2.582-1.576-7.246-1.868-8.572-.523-2.397-3.79-1.728-3.267.67.027.12 2.204 8.803 2.065 8.837-.132.028-4.677-8.758-5.155-9.576-1.32-2.263-4.206-.464-2.835 1.767.055.092 5.113 9.281 4.912 9.384-.172.086-5.723-6.91-6.304-7.639-1.634-2.046-4.233.157-2.552 2.163.064.076 6.017 6.93 5.831 7.023-.154.08-4.688-3.812-4.688-3.812-1.562-1.509-3.492.486-1.927 1.996 3.32 3.205 4.313 3.406 6.14 7.52 1.59 3.582 4.874 5.045 8.834 3.025 8.656-4.418 3.044-9.429 6.523-15.192.436-.713-.746-1.54-2.16-.778z" style="fill:#916b50"/></svg>