<svg xmlns="http://www.w3.org/2000/svg" xml:space="preserve" style="enable-background:new 0 0 64 64" viewBox="0 0 64 64"><linearGradient id="a" x1="43.173" x2="56.327" y1="60.355" y2="47.201" gradientUnits="userSpaceOnUse"><stop offset="0" style="stop-color:#13171a"/><stop offset=".04" style="stop-color:#161a1d"/><stop offset=".316" style="stop-color:#23292e"/><stop offset=".62" style="stop-color:#2b3238"/><stop offset="1" style="stop-color:#2e353b"/></linearGradient><path d="M56 58.742c0-7.562-1.672-14.057-2.716-14.539-1.163-.537-8.455 2.864-8.455 2.864l3.473 14.455S56 60.926 56 58.742z" style="fill:url(#a)"/><linearGradient id="b" x1="7.673" x2="20.827" y1="47.201" y2="60.355" gradientUnits="userSpaceOnUse"><stop offset="0" style="stop-color:#2e353b"/><stop offset=".381" style="stop-color:#2b3238"/><stop offset=".684" style="stop-color:#23292e"/><stop offset=".96" style="stop-color:#161a1d"/><stop offset="1" style="stop-color:#13171a"/></linearGradient><path d="m15.698 61.522 3.473-14.455s-7.292-3.402-8.455-2.864C9.672 44.685 8 51.18 8 58.743c0 2.183 7.698 2.78 7.698 2.78z" style="fill:url(#b)"/><linearGradient id="c" x1="32" x2="32" y1="62" y2="38.908" gradientUnits="userSpaceOnUse"><stop offset=".103" style="stop-color:#2e353b"/><stop offset=".524" style="stop-color:#30373d"/><stop offset=".676" style="stop-color:#363e44"/><stop offset=".784" style="stop-color:#42494f"/><stop offset=".871" style="stop-color:#525a60"/><stop offset=".945" style="stop-color:#686f76"/><stop offset="1" style="stop-color:#7d858c"/></linearGradient><path d="M48.302 61.522c.007-4.839.71-12.587 4.982-17.319l-13.4-5.295-15.768.026-13.4 5.269c4.272 4.732 4.975 12.48 4.982 17.32 0 0 6.013.477 13.86.477 1.587-1.825 2.976-1.501 4.359 0 7.88 0 14.385-.478 14.385-.478z" style="fill:url(#c)"/><path d="M33.052 62c2.4-5.893 7.789-22.538 7.789-22.538H23.159S27.68 56.107 30.488 62h2.564z" style="fill:#ededf7"/><path d="M30.953 47.382h.192V62h-.192z" style="fill:#fafafa"/><path d="M31.552 58.725c0 .634.896.634.896 0 0-.588-.896-.588-.896 0zm0-5.709c0 .634.896.634.896 0 0-.588-.896-.588-.896 0z" style="fill:#13171a"/><path d="M40.239 54.247h6.596v1.414h-6.596z" style="fill:#ededf7"/><path d="M24.586 34.56v5.6c.832 2.243 4.076 4.174 7.414 5.263 3.338-1.09 6.583-3.02 7.414-5.263v-5.6H24.586z" style="fill:#f5bb51"/><linearGradient id="d" x1="-34.775" x2="-34.775" y1="49.215" y2="40.387" gradientTransform="matrix(-1 0 0 1 -7.25 0)" gradientUnits="userSpaceOnUse"><stop offset="0" style="stop-color:#211c1a;stop-opacity:.05"/><stop offset="1" style="stop-color:#211c1a;stop-opacity:.3"/></linearGradient><path d="M32 45.423c-1.34-.048-2.894 1.531-3.97 3.682-.086.17-.334.13-.445-.028-.96-1.36-3.207-4.753-4.536-8.69C27.023 43.865 32 45.423 32 45.423z" style="fill:url(#d)"/><linearGradient id="e" x1="36.476" x2="36.476" y1="49.215" y2="40.387" gradientUnits="userSpaceOnUse"><stop offset="0" style="stop-color:#211c1a;stop-opacity:.05"/><stop offset="1" style="stop-color:#211c1a;stop-opacity:.3"/></linearGradient><path d="M32 45.423c1.34-.048 2.894 1.531 3.97 3.682.086.17.334.13.445-.028.96-1.36 3.207-4.753 4.536-8.69C36.977 43.865 32 45.423 32 45.423z" style="fill:url(#e)"/><path d="M40.95 40.121c-.167-.416-1.293-1.843-1.536-1.75 0 1.998-4.384 5.542-7.414 7.052 1.712-.45 2.865 1.258 4.184 2.99.084.11.266.106.336-.012.797-1.34 4.715-7.567 4.43-8.28z" style="fill:#ededf7"/><path d="M40.95 40.121c-.167-.416-1.293-1.843-1.536-1.75.135 2.884-5.73 6.506-5.219 7.052.735.782 1.369 1.764 2.023 2.823.072.117.218.265.302.155 1.175-1.54 4.715-7.567 4.43-8.28z" style="fill:#fafafa"/><path d="M23.05 40.121c.167-.416 1.294-1.843 1.536-1.75 0 1.998 4.384 5.542 7.414 7.052-1.712-.45-2.865 1.258-4.184 2.99-.084.11-.266.106-.336-.012-.797-1.34-4.715-7.567-4.43-8.28z" style="fill:#ededf7"/><path d="M23.05 40.121c.167-.416 1.294-1.843 1.536-1.75-.135 2.884 5.731 6.506 5.219 7.052-.735.782-1.369 1.764-2.023 2.823-.072.117-.218.265-.302.155-1.175-1.54-4.715-7.567-4.43-8.28z" style="fill:#fafafa"/><linearGradient id="f" x1="24.878" x2="24.878" y1="62" y2="38.678" gradientUnits="userSpaceOnUse"><stop offset="0" style="stop-color:#424b54"/><stop offset=".521" style="stop-color:#444d56"/><stop offset=".709" style="stop-color:#4b535c"/><stop offset=".843" style="stop-color:#565f68"/><stop offset=".95" style="stop-color:#676f78"/><stop offset="1" style="stop-color:#727a82"/></linearGradient><path d="M22.764 44.145c0 .423-2.004 2.603-2.004 2.793 0 .622 5.368 10.137 8.798 15.062h1.002c-2.915-6.128-6.883-22.72-6.443-23.316-.11-.176-4.922 3.337-4.922 3.854 0 .245 3.569 1.33 3.569 1.607z" style="fill:url(#f)"/><linearGradient id="g" x1="38.749" x2="38.749" y1="62" y2="38.678" gradientUnits="userSpaceOnUse"><stop offset="0" style="stop-color:#424b54"/><stop offset=".521" style="stop-color:#444d56"/><stop offset=".709" style="stop-color:#4b535c"/><stop offset=".843" style="stop-color:#565f68"/><stop offset=".95" style="stop-color:#676f78"/><stop offset="1" style="stop-color:#727a82"/></linearGradient><path d="M32.693 62h1.224c3.527-6.034 9.323-14.512 9.323-15.062 0-.19-2.004-2.37-2.004-2.793 0-.276 3.57-1.362 3.57-1.607 0-.517-4.813-4.03-4.923-3.853.443.599-3.891 16.137-7.19 23.315z" style="fill:url(#g)"/><radialGradient id="h" cx="891.376" cy="-125.176" r="21.393" fx="874.259" fy="-117.414" gradientTransform="matrix(-.8357 -.0001 -.00005 -.5047 766.593 -10.246)" gradientUnits="userSpaceOnUse"><stop offset=".261" style="stop-color:#2e353b"/><stop offset=".364" style="stop-color:#181b1f"/><stop offset=".503" style="stop-color:#2e353b"/></radialGradient><path d="M31.57 46.593c-.895 2.906-5.506 3.694-5.778 3.266-.553-.872-1.066-4.395-.01-6.34.162-.3 5.106-.231 5.789 3.074z" style="fill:url(#h)"/><radialGradient id="i" cx="-192.296" cy="-124.789" r="21.395" fx="-209.414" fy="-117.026" gradientTransform="matrix(.8357 -.0003 .0002 -.5047 203.042 -10.2)" gradientUnits="userSpaceOnUse"><stop offset=".261" style="stop-color:#2e353b"/><stop offset=".364" style="stop-color:#181b1f"/><stop offset=".503" style="stop-color:#2e353b"/></radialGradient><path d="M32.429 46.593c.894 2.906 5.506 3.694 5.778 3.264.554-.872 1.068-4.395.012-6.34-.162-.3-5.106-.232-5.79 3.076z" style="fill:url(#i)"/><linearGradient id="j" x1="70.036" x2="70.036" y1="48.442" y2="45.034" gradientTransform="matrix(1.1359 -.0002 -.0002 1 -47.544 -.138)" gradientUnits="userSpaceOnUse"><stop offset=".097" style="stop-color:#181b1f"/><stop offset=".551" style="stop-color:#2e353b"/></linearGradient><path d="M32.003 48.201c-1.237.002-1.542.655-1.547-1.614 0-2.269.306-1.615 1.543-1.617 1.238 0 1.542-.658 1.545 1.613.003 2.267-.304 1.618-1.54 1.618z" style="fill:url(#j)"/><path d="M16.935 25.189s.462 4.472-.675 7.483c1.598-.172 2.012-.978 2.012-.978s-.055 2.095-.869 3.562c1.503.248 2.426-.496 2.426-.496s0 1.585.117 2.674c4.376-1.13 4.114-6.223 4.114-6.223l-7.125-6.022zm30.805 7.483c-1.138-3.018-.676-7.484-.676-7.484l-7.119 6.023s-.262 5.093 4.114 6.223c.118-1.089.118-2.674.118-2.674s.923.744 2.425.496c-.82-1.46-.868-3.562-.868-3.562s.407.806 2.005.978z" style="fill:#e68c00"/><path d="M46.906 19.614c-2.31.282-3.977 8.007-2.523 10.047.2.282 1.392.737 2.274-1.061.49-1 1.896-1.827 2.337-3.887.558-2.632.213-5.375-2.088-5.1zm-29.813 0c2.309.282 3.977 8.007 2.522 10.047-.2.282-1.391.737-2.274-1.061-.489-1-1.895-1.827-2.336-3.887-.558-2.632-.207-5.375 2.088-5.1z" style="fill:#ffc940"/><path d="M46.844 21.095c-.6.193-1.262 1.11-1.613 2.633 2.102-.455 1.578 3.052-.248 3.121.014.352.041.717.083 1.096.882-1.282 1.778-.765 2.667-2.674.792-1.716.606-4.644-.89-4.176zM18.768 23.72c-.358-1.522-1.013-2.439-1.613-2.625-1.488-.468-1.681 2.46-.882 4.176.89 1.902 1.785 1.392 2.667 2.674.042-.386.07-.744.083-1.103-1.813-.082-2.33-3.542-.255-3.121z" style="fill:#f0a429"/><path d="M32 4.756c-10 0-14.817 8.146-14.218 18.613.125 2.102.71 5.141 1.434 7.746 1.495 5.41 8.111 10.853 12.783 10.853 4.673 0 11.282-5.444 12.784-10.853.724-2.605 1.31-5.637 1.434-7.746.599-10.467-4.218-18.613-14.218-18.613z" style="fill:#ffc940"/><path d="M42.867 18.842c-2.288-1.213-6.664-1.268-8.29-.427-.352.165-.117 1.309.172 1.199 2.274-.896 5.94-.917 8.063.075.283.138.4-.675.055-.847zm-21.735 0c2.288-1.213 6.664-1.268 8.297-.427.351.165.117 1.309-.172 1.199-2.275-.896-5.934-.917-8.063.075-.29.138-.407-.675-.062-.847z" style="fill:#bb7c0a"/><path d="M34.7 29.35c-.282-.2-.957.11-2.7.11-1.744 0-2.413-.31-2.702-.11-.345.242.2 1.33 2.701 1.33 2.495 0 3.04-1.088 2.702-1.33zM32 33.472c-2.247-.662-5.583.317-5.583.317 1.268 1.385 2.199 3.176 5.582 3.176 3.873 0 4.535-2.033 5.583-3.177 0-.006-3.336-.985-5.583-.316z" style="fill:#f0a429"/><path d="M27.258 34.016c2.357 1.978 7.119 1.992 9.49 0-2.516.11-6.96.11-9.49 0zm2.515-11.046c.083.661-.365 1.447-1.605 2.032-.793.373-2.433.814-4.597-.096-.965-.407-1.909-1.681-1.826-2.384 1.172-2.205 6.933-2.53 8.028.448z" style="fill:#fff"/><linearGradient id="k" x1="-1210.392" x2="-1210.392" y1="171.737" y2="171.048" gradientTransform="translate(7978.266 -1103.139) scale(6.5701)" gradientUnits="userSpaceOnUse"><stop offset="0" style="stop-color:#a6694a"/><stop offset="1" style="stop-color:#4f2a1e"/></linearGradient><path d="M25.866 20.661a2.267 2.267 0 0 1 2.267 2.26 2.268 2.268 0 0 1-4.534 0 2.263 2.263 0 0 1 2.267-2.26z" style="fill:url(#k)"/><path d="M24.736 22.887c0 1.564 2.267 1.564 2.267 0-.007-1.454-2.267-1.454-2.267 0z" style="fill:#1a1626"/><path d="M24.391 22.253c0 .655.951.655.951 0-.007-.613-.95-.613-.95 0z" style="fill:#ab968c"/><path d="M29.787 23.06c-.916-2.957-7.188-2.516-8.042-.531.317-2.55 7.257-3.219 8.042.53z" style="fill:#f0a429"/><path d="M34.225 22.97c-.082.661.366 1.447 1.606 2.032.793.373 2.433.814 4.597-.096.971-.407 1.909-1.681 1.826-2.384-1.172-2.205-6.933-2.53-8.029.448z" style="fill:#fff"/><linearGradient id="l" x1="-1211.231" x2="-1211.231" y1="171.737" y2="171.048" gradientTransform="translate(7995.996 -1103.139) scale(6.5701)" gradientUnits="userSpaceOnUse"><stop offset="0" style="stop-color:#a6694a"/><stop offset="1" style="stop-color:#4f2a1e"/></linearGradient><path d="M38.085 20.661a2.267 2.267 0 1 1 0 4.534 2.267 2.267 0 0 1 0-4.534z" style="fill:url(#l)"/><path d="M36.954 22.887c0 1.564 2.268 1.564 2.268 0-.007-1.454-2.268-1.454-2.268 0z" style="fill:#1a1626"/><path d="M36.61 22.253c0 .655.95.655.95 0-.006-.613-.95-.613-.95 0z" style="fill:#ab968c"/><path d="M34.212 23.06c.916-2.95 7.18-2.53 8.035-.531-.31-2.55-7.25-3.219-8.035.53z" style="fill:#f0a429"/><path d="M22.579 6.32c5.237 4.997 20.826 8.125 23.527 19.13C42.42 14.404 28.864 17.505 22.58 6.32z" style="fill:#e68c00"/><path d="M32.151 2c-6.085 0-9.124 2.756-9.744 4.066 7.587 11.584 20.446 7.663 23.7 19.391C52.646 15.045 47.215 2 32.15 2z" style="fill:#f9a307"/><path d="M32.151 2c-5.42 0-8.991 2.2-9.744 4.066 2.624 7.069 20.636 7.284 24.126 16.678-.735-6.742-6.076-11.238-6.076-11.238s4.804 3.103 7.193 7.482c-.445-6.288-5.403-9.909-5.403-9.909s4.47 3.103 5.947 6.679C47.321 8.508 43.839 2 32.151 2z" style="fill:#ffb80d"/><path d="M45.008 9.266C39.981.799 29.187 3.03 29.187 3.03s8.982.466 15.821 6.235z" style="fill:#ffca25"/><path d="M45.447 14.536C38.23 1.026 24.736 5.449 24.736 5.449s11.673-.45 20.711 9.087z" style="fill:#ffca25"/><path d="M25.498 7.309c7.436 2.756 15.97 7.723 15.97 7.723s-5.045-7.58-15.97-7.723z" style="fill:#ffca25"/><path d="M22.407 6.066c-7.354 1.681-9.724 14.092-4.218 19.384.682-5.644 1.344-9.268 5.093-13.086 0 0 .22-3.356-.875-6.298z" style="fill:#f9a307"/><path d="M23.11 11.93s-4.831 4.48-4.921 13.52c.827-8.958 5.141-13.003 5.141-13.003l-.22-.517z" style="fill:#e68c00"/><path d="M22.482 6.32s-8.531 2.916-6.099 14.658c.056-.946.185-1.822.359-2.647-.016 1.466.202 3.074.765 4.832.737-8.16 5.472-12.143 5.472-12.143l-.497-4.7z" style="fill:#ffb80d"/><path d="M17.229 18.195c1.09-6.098 5.931-10.12 5.931-10.12s-6.73.445-5.931 10.12z" style="fill:#ffca25"/><path d="M22.407 6.066c-2.006 9.096 7.608 10.88 11.68 10.88-7.318-5.071-11.68-10.88-11.68-10.88z" style="fill:#f9a307"/><path d="M22.165 7.685c.193 5.21 3.033 8.462 11.923 9.262-6.954.468-12.99-3.005-11.923-9.262z" style="fill:#e68c00"/><path d="M22.407 6.066s-1.113 8.191 11.68 10.88c-7.05-5.44-8.326-8.582-11.68-10.88z" style="fill:#ffb80d"/><path d="M29.753 14.564c-2.256-1.473-5.898-6.788-5.898-6.788s.713 5.491 5.898 6.788z" style="fill:#ffca25"/></svg>