<svg xmlns="http://www.w3.org/2000/svg" xml:space="preserve" style="enable-background:new 0 0 64 64" viewBox="0 0 64 64"><path d="m29.152 55.321-2.415-.24c-1.122 3.005-8.97-7.318-13.345-.923 5.124-1.29 13.462 7.888 15.76 1.163z" style="fill:#473e35"/><path d="m28.356 55.1-1.233-.063c-2.855 1.94-8.774-7.498-13.731-.88 6.038-5.034 12.023 6.093 14.964.943z" style="fill:#382e26"/><path d="m27.345 55.141-.616-.288c-1.138 2.038-9.006-7.532-13.337-.695 5.43-6.544 11.675 3.933 13.953.983z" style="fill:#1a1714"/><path d="M28.097 56.545c-3.815 2.364-5.94-3.61-12.525-2.854 6.154.496 9.456 6.056 12.525 2.854z" style="fill:#574f45"/><path d="M29.106 55.144c1.815-.74-3.256-3.318-2.495-.818-1.262.593 3.82 2.674 2.495.818z" style="fill:#8e3ed6"/><path d="M12.883 7.673c3.28 3.613 6.479 4.674 8.349 8.664.693 1.175 3 2.76 4.05 4.116 0 0-.848 3.95-5.045 3.806-.914-1.407-2.71-5.509-3.099-6.616-.292-.836-1.694-3.59-6.234-8.232-.37-.379 1.803-1.934 1.98-1.738zm37.355 9.475c-2.033 1.628-7.646 1.308-10.858 4.36-1.284 1-3.814 1.038-5.639 1.89 0 0-1.452 3.872 3.476 4.916 2.096-1.279 4.111-2.864 4.958-3.684.64-.62 4.07-2.942 8.957-4.892.494-.197-.686-2.758-.894-2.59z" style="fill:#5e4c3b"/><path d="M20.237 24.259s1.02-1.995 5.046-3.806c2.087 2.051 3.243 4.2 3.243 4.2s.77.074 1.366.356c1.295-.63 3.85-1.612 3.85-1.612s2.544 2.224 3.475 4.917c0 0-2.682 1.833-4.494 2.913-2.225 1.327-8.864 1.42-9.463-.07-1.066-2.65-.54-3.528-3.023-6.898z" style="fill:#8e3ed6"/><path d="M31.965 42.351c.762.396 1.694-.173 2.196.037.602.252 3.723.778 4.035 1.033 1.87 1.595 3.864 2.126 5.417 4.58.202.324-.196 1.34.102 2.148.377 1.023-.07 1.617.19 1.662.578.104 1.003-.42.82-1.459 1.088.274.922 1.633 1.69 2.694.177.244.74.263.603-.376 0 0 .602.36.477-.42.537 0 .33-.656.33-.656.917-.191-1.966-4.763-2.278-5.138-1.822-2.17-5.04-5.52-5.91-5.883-.367-.153-5.757-1.407-6.453-2.389-.52 1.254-1.07 2.815-1.22 4.167z" style="fill:#5e4c3b"/><path d="M47.018 52.67c-.603-.95-1.325-2.314-1.325-2.314s.57 1.701 1.325 2.314zm.477-.42c-.477-.359-1.54-2.326-1.54-2.326s.97 2.327 1.54 2.327zm.329-.656c-.624-.508-1.545-2.256-1.545-2.256s.923 2.176 1.545 2.256z" style="fill:#302b27"/><path d="M25.217 44.569c2.92-1.902 6.612-.449 7.44-2.394.332-.778.707-2.582.527-3.99-.296-2.316-1.98-3.26-.46-6.958 0 0-5.338.616-9.88-1.203.852 3.54.875 6.522.349 9.445-.238.761.448 6.126 2.024 5.1z" style="fill:#8e3ed6"/><path d="M16.358 61.018c-.325-.068-.477.875.181.914 3.068.178 3.59.022 4.735-.644.831-.485.9.914 2.502.644.525-.088.633-.84.258-.934-1.398-.355-1.444-1.456-1.865-2.423-.474-1.08-.414-7.758-.414-7.758s.861-3.218 1.352-4.13c.395-.733 1.438-1.289 2.11-2.218.606-.837-1.67-6.494-1.885-5.478-.367 1.736-2.169 2.948-4.536 10.489-.388 1.235.154 2.884 1.31 7.91.13.573-.293 1.661-.595 2.284-.4.828-2.414 1.498-3.153 1.344z" style="fill:#5e4c3b"/><path d="M16.53 61.036c2.045.086 2.78-.664 2.78-.664s-.966.615-2.78.664z" style="fill:#302b27"/><path d="M31.538 41.356c-.299-2.469-5.324-1.889-4.505.75.365 1.178.08 2.426.08 2.426l3.806-.95s.792-.802.62-2.226zm4.349 7.218c-.823.044-1.881-2.551-1.5-3.353.054-.112.44-.344.86.23.231.32.774.522 1.052 1.213.36.885.406 1.866-.412 1.91zM25.48 50.409c.788-.24.894-3.04.26-3.663-.087-.087-.53-.173-.727.51-.109.379-.549.755-.576 1.5-.033.954.259 1.892 1.042 1.653z" style="fill:#5e4c3b"/><path d="M35.774 48.06c-.223-.029-.507-.309-.726-.82.762.03.363-1.161-.28-1.072a6.105 6.105 0 0 1-.039-.388c.388.392.669.158 1.095.768.384.55.5 1.584-.05 1.513zm-9.962.81c-.031.554-.202.914-.4 1.018-.492.254-.74-.757-.566-1.404.191-.72.536-.596.766-1.097.038.132.07.256.096.378-.627.142-.594 1.383.104 1.106z" style="fill:#302b27"/><path d="M31.598 54.678c3.49-.616 4.67-3.755 3.816-7.373-.173-.726-.564-1.75-.976-2.614-.857-1.795-3.954-3.209-5.13-3.001-1.176.207-3.603 2.595-3.794 4.575-.093.952-.11 2.048-.024 2.79.435 3.692 2.617 6.238 6.108 5.623z" style="fill:#735c48"/><path d="M29.831 44.657c.881.216.827-.131 2.075-.438-.569-.455-1.04-1.086-2.304-.863-1.45.256-1.557 1.085-1.871 1.599 1.279-.138 1.345.206 2.1-.298z" style="fill:#472b27"/><path d="M31.503 44.151c-.976-.712-2.752-.387-3.417.602a14.527 14.527 0 0 1 3.417-.602z" style="fill:#fff"/><path d="M26.958 50.05c.838.319 2.208.134 2.691-.269.103-.082.015-.403-.076-.345-.711.455-1.878.677-2.664.435-.105-.032-.078.134.049.18zm7.418-1.308c-.679.586-2.029.881-2.622.668-.126-.042-.153-.373-.046-.35.824.184 1.995-.006 2.652-.503.088-.066.119.1.016.185zm-5.126-2.787c.094.044.273-.08.78-.17.507-.09.717-.034.79-.107.087-.087-.127-.375-.852-.247-.726.128-.83.471-.717.524z" style="fill:#302b27"/><path d="M31.201 47.888c-.07-.225.039-.527.436-.808.253-.18.8-.434 1.61-.25.363.083.77.469.784.72-.273.842-2.264 1.31-2.83.338z" style="fill:#fff"/><linearGradient id="a" x1="-474.856" x2="-474.856" y1="503.846" y2="504.09" gradientTransform="scale(-6.5701 6.5701) rotate(10 2598.794 2941.056)" gradientUnits="userSpaceOnUse"><stop offset="0" style="stop-color:#a6694a"/><stop offset="1" style="stop-color:#4f2a1e"/></linearGradient><path d="M32.708 48.453a.802.802 0 1 1-.279-1.58.802.802 0 0 1 .279 1.58z" style="fill:url(#a)"/><path d="M32.966 47.608c-.096-.546-.887-.407-.79.14.09.507.88.367.79-.14z" style="fill:#1a1626"/><path d="M33.125 47.808c-.04-.23-.371-.17-.331.059.037.212.369.154.331-.059z" style="fill:#ab968c"/><path d="M31.192 47.858c.503.975 2.663.437 2.839-.309.046.907-2.335 1.569-2.839.31z" style="fill:#45332c"/><path d="M29.648 48.162c-.011-.236-.216-.482-.686-.61-.3-.083-.9-.135-1.598.316-.313.202-.564.703-.49.943.543.699 2.575.457 2.774-.649z" style="fill:#fff"/><linearGradient id="b" x1="-476.895" x2="-476.895" y1="503.846" y2="504.09" gradientTransform="scale(-6.5701 6.5701) rotate(10 2597.445 2956.478)" gradientUnits="userSpaceOnUse"><stop offset="0" style="stop-color:#a6694a"/><stop offset="1" style="stop-color:#4f2a1e"/></linearGradient><path d="M28.443 49.205a.802.802 0 1 1-.279-1.58.802.802 0 0 1 .28 1.58z" style="fill:url(#b)"/><path d="M28.701 48.36c-.096-.546-.886-.407-.79.14.09.507.88.367.79-.14z" style="fill:#1a1626"/><path d="M28.86 48.56c-.04-.23-.371-.17-.33.058.037.213.368.154.33-.058z" style="fill:#ab968c"/><path d="M29.646 48.131c-.139 1.087-2.35 1.325-2.773.68.268.869 2.73.676 2.773-.68z" style="fill:#45332c"/><path d="M28.113 54.932c-2.27-.113-3.596-4.052-2.61-6.105.37 1.703 1.528 3.651 3.276 4.496 0 0-.45.575-.666 1.61z" style="fill:#382e26"/><path d="M28.852 53.454s-2.82-1.093-3.35-4.627C26.37 52.03 28.9 53.27 28.9 53.27l-.048.184z" style="fill:#1a1714"/><path d="M28.125 54.844s-2.963-.494-2.73-5.223c.732 2.634 3.232 3.936 3.232 3.936l-.502 1.287z" style="fill:#473e35"/><path d="M25.686 51.043c.72 1.466 2.212 2.672 2.212 2.672s-1.781-.375-2.212-2.672z" style="fill:#574f45"/><path d="M25.876 52.047c.59 1.512 2.067 2.367 2.067 2.367s-1.623-.073-2.067-2.367z" style="fill:#574f45"/><path d="M28.113 54.932c1.558-1.966 6.922-4.058 7.237-7.841-.66 3.858-6.765 3.85-7.237 7.841z" style="fill:#1a1714"/><path d="M31.786 55.662c-2.147.378-3.378-.338-3.673-.73 1.595-4.336 6.769-3.789 7.237-7.843 2.385 3.052 1.196 7.733-3.564 8.573z" style="fill:#382e26"/><path d="M29.62 55.586c.896-.174 1.135-.452 1.135-.452s-.735.237-1.533.289c1.014-.421 1.775-1.177 1.775-1.177s-1.091.776-2.234.964c.69-.848 2.269-2.09 2.269-2.09s-1.693 1.146-2.677 1.805c1.59-3.777 6.7-3.938 7.065-7.14.199 2.009-2.28 4.029-2.28 4.029s2.271-1.705 2.801-3.191c-.146 1.416-1.879 3.448-1.879 3.448s1.732-1.683 2.18-2.733c-.033 1.313-1.305 3.37-1.305 3.37s1.16-1.157 1.473-2.423c.112 2.436-1.83 5.661-6.79 5.301z" style="fill:#473e35"/><path d="M35.653 52.776c-1.428 2.607-4.857 2.64-4.857 2.64s3.145-.62 4.857-2.64z" style="fill:#574f45"/><path d="M35.764 50.797c-1.34 3.408-5.736 4.379-5.736 4.379s3.592-1.578 5.736-4.38zm-1.326.076c-1.587 2.636-4.984 3.896-4.984 3.896s2.493-1.454 4.984-3.896zm-2.503.918c-1.314 1.033-3.235 2.746-3.235 2.746s1.134-2.03 3.235-2.745z" style="fill:#574f45"/><path d="M13.182 7.686c-.398-.896-1.583-1.316-2.291-2.016-.798-.79-1.175-2.599-2.18-2.964-.342-1.12-1.618-.754-1.425.036a.503.503 0 0 0-.45.615c-.339.063-.469.477-.39.607-.242.07-.356.378-.271.599-1.081 1.001 3.166 3.602 4.048 4.46 1.19 1.158 3.95.9 2.959-1.337z" style="fill:#5e4c3b"/><path d="M7.866 3.393c-.397-.089-.9-.635-.55-1.04.012.28.097.419.55 1.04zm-.703.617s-.649-.612-.226-1.087c-.125.373.226 1.086.226 1.086zm-.511.53s-.518-.49-.141-.95c-.124.372.14.95.14.95zm-.248.51s-.546-.475-.198-.881c-.124.372.198.882.198.882z" style="fill:#302b27"/><path d="M50.785 16.851c.872-.23 1.94.537 2.826.805.998.301 2.604-.28 3.363.417 1.045-.264 1.353 1.038.638 1.267.16.386-.115.666-.275.705.108.329-.158.651-.297.648a.463.463 0 0 1-.347.539c-.285 1.452-4.329-.96-5.419-1.3-1.473-.46-2.663-2.508-.489-3.08z" style="fill:#5e4c3b"/><path d="M56.826 19.16c.256.304.924.47 1.08-.042-.227.13-.377.127-1.08.042zm-.158.926s.787.262.964-.348c-.236.297-.964.348-.964.348zm-.18.716s.63.208.816-.354c-.235.295-.816.354-.816.354zm-.288.475s.632.239.79-.27c-.236.295-.79.27-.79.27z" style="fill:#302b27"/></svg>