<svg xmlns="http://www.w3.org/2000/svg" xml:space="preserve" style="enable-background:new 0 0 64 64" viewBox="0 0 64 64"><path d="M7.611 30.373h4.891v2.133H7.611zm51.126-5.097c.937-1.533-.47-2.51-2.693.176-1.717 2.072-7.514 5.794-3.327 6.732 2.983.668 10.254-4.387 11.162-9.473.827-4.62-2.779 1.569-5.142 2.565z" style="fill:#d9b18d"/><path d="M5.262 25.276c-.938-1.533.47-2.51 2.691.176 1.717 2.072 7.516 5.794 3.328 6.732C8.3 32.852 1.027 27.797.121 22.71c-.828-4.62 2.776 1.569 5.14 2.565zm46.619 5.097h4.889v2.133h-4.889z" style="fill:#d9b18d"/><path d="M57.348 32.094h-6.09l.219 13.143s-2.05-3.754-5.363-6.3c-5.061-3.884-8.887.231-13.922.231s-8.864-4.115-13.924-.23c-3.315 2.545-5.364 6.299-5.364 6.299l.221-13.143H7.033S6.25 47.862 6.545 53.11c.275 4.848 4.178 6.687 12.223-3.385 0 0 1.021 5.71 1.021 9.291 0 3.979 24.803 3.979 24.803 0 0-3.582 1.022-9.291 1.022-9.291 8.045 10.072 11.947 8.233 12.224 3.385.295-5.248-.49-21.016-.49-21.016z" style="fill:#ff7a00"/><path d="m14.832 42.4-1.916 2.075-.107 4.758zm34.718 0 1.917 2.075.108 4.758zm-24.49-4.612c0 5.934 13.88 5.913 13.88-.021 0-1.342-13.881-1.318-13.88.021z" style="fill:#ed6a00"/><path d="M26.155 37.43c0 4.646 11.69 4.646 11.69.001v-5.14h-11.69v5.138z" style="fill:#d9b18d"/><path d="M18.987 28.819s.992 3.483.511 6.031c1.244-.36 1.46-1.057 1.46-1.057s.249 1.67-.191 2.948c1.226-.014 1.855-.733 1.855-.733s.222 1.257.467 2.104c3.313-1.508 2.393-5.512 2.393-5.512l-6.495-3.781zm25.483 1.628c-1.323-2.235-1.582-5.843-1.582-5.843l-4.805 5.774s.505 4.077 4.135 4.361c-.06-.88-.282-2.137-.282-2.137s.837.461 1.994.054c-.855-1.044-1.187-2.705-1.187-2.705s.435.583 1.728.496z" style="fill:#d1a936"/><path d="M41.983 20.204c-1.792.547-2.035 6.909-.596 8.324.198.196 1.208.39 1.656-1.16.248-.862 1.248-1.714 1.31-3.41.074-2.167-.583-4.295-2.37-3.754zm-23.65 4.17c1.87-.099 4.274 5.796 3.406 7.618-.119.252-1.001.78-1.952-.524-.528-.724-1.76-1.184-2.397-2.756-.811-2.01-.916-4.236.943-4.338z" style="fill:#ebc199"/><path d="M42.14 21.388c-.448.237-.845 1.056-.91 2.314 1.603-.655 1.679 2.201.24 2.511.06.277.133.563.218.858.52-1.14 1.304-.856 1.742-2.494.389-1.473-.169-3.77-1.29-3.189zm-21.904 6.01c-.497-1.158-1.145-1.794-1.647-1.857-1.246-.164-.99 2.187-.115 3.436.97 1.385 1.61.855 2.49 1.748-.022-.312-.05-.6-.09-.886-1.449.188-2.343-2.484-.638-2.441z" style="fill:#c99b71"/><path d="M28.08 10.502c-7.933 1.399-10.615 8.535-8.675 16.755.392 1.65 1.282 3.98 2.22 5.944 1.944 4.083 7.954 7.476 11.66 6.823 3.706-.654 8.188-5.897 8.623-10.399.21-2.168.25-4.655.053-6.345-.988-8.388-5.95-14.176-13.882-12.778z" style="fill:#ebc199"/><path d="M38.671 20.157c-1.985-.643-5.464-.074-6.636.82-.256.18.09 1.055.304.927 1.679-1.029 4.584-1.558 6.407-1.067.243.07.222-.592-.075-.68zm-17.243 3.04c1.646-1.282 5.11-1.938 6.523-1.5.302.082.276 1.023.03.976-1.929-.393-4.834.103-6.385 1.188-.21.15-.417-.48-.168-.664z" style="fill:#ab8c57"/><path d="M33.663 29.636c-.252-.12-.745.221-2.128.465-1.383.244-1.957.091-2.158.29-.24.24.344 1.028 2.329.678 1.979-.35 2.258-1.29 1.957-1.433z" style="fill:#c99b71"/><path d="M28.861 25.263c.158.513-.087 1.199-.99 1.837-.576.406-1.815.985-3.659.566-.822-.187-1.75-1.066-1.782-1.636.62-1.913 5.146-2.976 6.431-.767z" style="fill:#fff"/><linearGradient id="a" x1="-1200.874" x2="-1200.874" y1="130.066" y2="129.511" gradientTransform="rotate(-9.999 -8658.707 -44798.199) scale(6.5701)" gradientUnits="userSpaceOnUse"><stop offset="0" style="stop-color:#a6694a"/><stop offset="1" style="stop-color:#4f2a1e"/></linearGradient><path d="M25.439 23.978c.99-.175 1.94.486 2.115 1.476a1.826 1.826 0 0 1-3.597.634 1.823 1.823 0 0 1 1.482-2.11z" style="fill:url(#a)"/><path d="M24.854 25.902c.218 1.24 2.017.924 1.798-.317-.209-1.153-2.002-.837-1.799.317z" style="fill:#1a1626"/><path d="M24.491 25.447c.092.52.846.386.755-.133-.091-.486-.84-.354-.755.133z" style="fill:#ab968c"/><path d="M28.885 25.332c-1.14-2.217-6.054-.99-6.454.704-.105-2.067 5.306-3.568 6.454-.704z" style="fill:#c99b71"/><path d="M32.393 24.64c.027.536.492 1.097 1.558 1.388.68.185 2.044.305 3.633-.72.714-.458 1.28-1.6 1.115-2.146-1.238-1.586-5.853-1.037-6.306 1.478z" style="fill:#fff"/><linearGradient id="b" x1="-1202.075" x2="-1202.075" y1="130.066" y2="129.511" gradientTransform="rotate(-9.999 -8667.574 -44899.53) scale(6.5701)" gradientUnits="userSpaceOnUse"><stop offset="0" style="stop-color:#a6694a"/><stop offset="1" style="stop-color:#4f2a1e"/></linearGradient><path d="M35.132 22.269a1.826 1.826 0 1 1 .634 3.597 1.826 1.826 0 0 1-.634-3.597z" style="fill:url(#b)"/><path d="M34.546 24.193c.22 1.24 2.018.923 1.799-.318-.209-1.152-2.002-.836-1.799.318z" style="fill:#1a1626"/><path d="M34.184 23.738c.092.52.846.386.755-.133-.092-.486-.84-.354-.755.133z" style="fill:#ab968c"/><path d="M32.395 24.713c.314-2.468 5.342-3.01 6.3-1.545-.603-1.98-6.202-1.539-6.3 1.545z" style="fill:#c99b71"/><path d="M34.901 33.477c-1.66.265-4.028.416-5.948.258-.725-.06-.912.937-.152 1.037 2.133.275 4.593.058 6.325-.73.42-.192.178-.63-.225-.565z" style="fill:#b88455"/><path d="M20.825 13.097c4.854 3.23 17.657 3.532 21.34 11.884-4.47-8.247-14.79-3.89-21.34-11.884z" style="fill:#d1a936"/><path d="M27.814 8.33c-4.827.852-6.853 3.463-7.161 4.589 7.64 8.128 17.292 3.219 21.513 12.068 3.732-9.175-2.401-18.764-14.352-16.657z" style="fill:#e6c465"/><path d="M27.814 8.33c-4.299.758-6.825 3.004-7.161 4.589 3.07 5.24 17.39 2.892 21.472 9.856-1.526-5.246-6.392-8.065-6.392-8.065s4.245 1.79 6.753 4.929c-1.233-4.926-5.672-7.105-5.672-7.105s3.98 1.836 5.651 4.466c-1.706-5.629-5.38-10.305-14.65-8.67z" style="fill:#f2d785"/><path d="M39.03 12.296c-5.172-6.014-13.423-2.733-13.423-2.733s7.19-.887 13.423 2.733z" style="fill:#fae29b"/><path d="M40.115 16.415c-7.615-9.707-17.7-4.312-17.7-4.312s9.196-1.989 17.7 4.312z" style="fill:#fae29b"/><path d="M23.28 13.473c6.283 1.146 13.749 3.892 13.749 3.892s-5.063-5.307-13.75-3.892z" style="fill:#fae29b"/><path d="M20.653 12.919c-5.598 2.362-5.743 12.54-.635 15.967-.248-4.572-.23-7.54 2.21-11.093 0 0-.295-2.693-1.575-4.874z" style="fill:#e6c465"/><path d="M22.03 17.473s-3.205 4.229-2.012 11.413c-.597-7.222 2.26-11.034 2.26-11.034l-.247-.38z" style="fill:#d1a936"/><path d="M20.748 13.11s-6.36 3.506-2.788 12.481a14.386 14.386 0 0 1-.086-2.15c.193 1.165.59 2.41 1.283 3.726-.556-6.576 2.642-10.398 2.642-10.398l-1.05-3.659z" style="fill:#f2d785"/><path d="M18.242 23.265c.011-4.99 3.29-8.858 3.29-8.858s-5.278 1.295-3.29 8.858z" style="fill:#fae29b"/><path d="M20.653 12.919c-.319 7.496 7.557 7.567 10.788 6.998-6.515-3-10.788-6.998-10.788-6.998z" style="fill:#e6c465"/><path d="M20.688 14.237c.882 4.106 3.589 6.29 10.753 5.68-5.45 1.344-10.725-.567-10.753-5.68z" style="fill:#d1a936"/><path d="M20.653 12.919s.262 6.654 10.788 6.998c-6.354-3.33-7.805-5.644-10.788-6.998z" style="fill:#f2d785"/><path d="M27.67 18.633c-1.997-.853-5.629-4.56-5.629-4.56s1.334 4.256 5.628 4.56z" style="fill:#fae29b"/></svg>