<svg xmlns="http://www.w3.org/2000/svg" xml:space="preserve" style="enable-background:new 0 0 64 64" viewBox="0 0 64 64"><path d="M12.883 7.673c3.28 3.613 6.479 4.674 8.349 8.664.693 1.175 3 2.76 4.05 4.116 0 0-.848 3.95-5.045 3.806-.914-1.407-2.71-5.509-3.099-6.616-.292-.836-1.694-3.59-6.234-8.232-.37-.379 1.803-1.934 1.98-1.738zm37.355 9.475c-2.033 1.628-7.646 1.308-10.858 4.36-1.284 1-3.814 1.038-5.639 1.89 0 0-1.452 3.872 3.476 4.916 2.096-1.279 4.111-2.864 4.958-3.684.64-.62 4.07-2.942 8.957-4.892.494-.197-.686-2.758-.894-2.59z" style="fill:#855e45"/><path d="M20.237 24.259s1.02-1.995 5.046-3.806c2.087 2.051 3.243 4.2 3.243 4.2s.77.074 1.366.356c1.295-.63 3.85-1.612 3.85-1.612s2.544 2.224 3.475 4.917c0 0-2.143 1.833-4.1 2.913-2.403 1.327-9.57 1.42-10.218-.07-1.15-2.65-.18-3.528-2.662-6.898z" style="fill:#3ab0a2"/><path d="M31.965 42.351c.762.396 1.694-.173 2.196.037.602.252 3.723.778 4.035 1.033 1.87 1.595 3.864 2.126 5.417 4.58.202.324-.196 1.34.102 2.148.377 1.023-.07 1.617.19 1.662.578.104 1.003-.42.82-1.459 1.088.274.922 1.633 1.69 2.694.177.244.74.263.603-.376 0 0 .602.36.477-.42.537 0 .33-.656.33-.656.917-.191-1.966-4.763-2.278-5.138-1.822-2.17-5.04-5.52-5.91-5.883-.367-.153-5.757-1.407-6.453-2.389-.52 1.254-1.07 2.815-1.22 4.167z" style="fill:#855e45"/><path d="M47.018 52.67c-.603-.95-1.325-2.314-1.325-2.314s.57 1.701 1.325 2.314zm.477-.42c-.477-.359-1.54-2.326-1.54-2.326s.97 2.327 1.54 2.327zm.329-.656c-.624-.508-1.545-2.256-1.545-2.256s.923 2.176 1.545 2.256z" style="fill:#69452d"/><path d="M25.217 44.569c2.92-1.902 6.612-.449 7.44-2.394.332-.778.707-2.582.527-3.99-.296-2.316-1.083-3.266-.066-6.958 0 0-5.763.616-10.668-1.203.92 3.54 1.27 6.522.743 9.445-.238.761.448 6.126 2.024 5.1z" style="fill:#3ab0a2"/><path d="M16.358 61.018c-.325-.068-.477.875.181.914 3.068.178 3.59.022 4.735-.644.831-.485.9.914 2.502.644.525-.088.633-.84.258-.934-1.398-.355-1.444-1.456-1.865-2.423-.474-1.08-.414-7.758-.414-7.758s.861-3.218 1.352-4.13c.395-.733 1.438-1.289 2.11-2.218.606-.837-1.67-6.494-1.885-5.478-.367 1.736-2.169 2.948-4.536 10.489-.388 1.235.154 2.884 1.31 7.91.13.573-.293 1.661-.595 2.284-.4.828-2.414 1.498-3.153 1.344z" style="fill:#855e45"/><path d="M16.53 61.036c2.045.086 2.78-.664 2.78-.664s-.966.615-2.78.664z" style="fill:#69452d"/><path d="M31.442 41.892c-.286-1.967-5.097-1.505-4.313.597.35.939.076 1.933.076 1.933l3.645-.757s.757-.639.592-1.773zM13.182 7.686c-.398-.896-1.583-1.316-2.291-2.016-.798-.79-1.175-2.599-2.18-2.964-.342-1.12-1.618-.754-1.425.036a.503.503 0 0 0-.45.615c-.339.063-.469.477-.39.607-.242.07-.356.378-.271.599-1.081 1.001 3.166 3.602 4.048 4.46 1.19 1.158 3.95.9 2.959-1.337z" style="fill:#855e45"/><path d="M7.866 3.393c-.397-.089-.9-.635-.55-1.04.012.28.097.419.55 1.04zm-.703.617s-.649-.612-.226-1.087c-.125.373.226 1.086.226 1.086zm-.511.53s-.518-.49-.141-.95c-.124.372.14.95.14.95zm-.248.51s-.546-.475-.198-.881c-.124.372.198.882.198.882z" style="fill:#69452d"/><path d="M50.785 16.851c.872-.23 1.94.537 2.826.805.998.301 2.604-.28 3.363.417 1.045-.264 1.353 1.038.638 1.267.16.386-.115.666-.275.705.108.329-.158.651-.297.648a.463.463 0 0 1-.347.539c-.285 1.452-4.329-.96-5.419-1.3-1.473-.46-2.663-2.508-.489-3.08z" style="fill:#855e45"/><path d="M56.826 19.16c.256.304.924.47 1.08-.042-.227.13-.377.127-1.08.042zm-.158.926s.787.262.964-.348c-.236.297-.964.348-.964.348zm-.18.716s.63.208.816-.354c-.235.295-.816.354-.816.354zm-.288.475s.632.239.79-.27c-.236.295-.79.27-.79.27z" style="fill:#69452d"/><path d="M25.21 50.955c.786-.239.892-3.03.261-3.65-.088-.086-.53-.172-.727.509-.109.376-.548.752-.574 1.495-.033.95.256 1.884 1.04 1.646zm10.382-1.831c-.82.045-1.875-2.541-1.494-3.34.053-.111.44-.343.857.23.231.316.773.52 1.05 1.208.358.882.404 1.858-.413 1.902z" style="fill:#916b50"/><path d="M25.14 50.437c.198-.103.37-.463.401-1.016-.705.287-.737-.965-.104-1.1a5.913 5.913 0 0 0-.096-.376c-.228.499-.572.375-.764 1.092-.173.646.072 1.654.563 1.4zm9.616-2.639c.218.508.502.786.724.815.547.072.435-.96.05-1.507-.425-.608-.706-.374-1.091-.765.008.135.022.263.039.386.635-.081 1.028 1.092.278 1.07z" style="fill:#69452d"/><path d="M31.313 55.21c3.482-.614 4.695-3.542 3.84-7.164-.172-.73-1.053-3.05-1.636-3.836-.597-.804-2.313-1.902-3.267-2.024-.602-.077-1.854.144-2.394.422-.855.44-2.092 2.06-2.378 3.02-.28.937-.313 3.419-.225 4.163.434 3.697 2.576 6.033 6.06 5.419z" style="fill:#916b50"/><path d="M26.665 50.975c.87.282 2.398.034 2.914-.36.112-.079-.04-.464-.135-.408-.735.452-2.01.684-2.812.469-.107-.028-.098.262.033.3zm7.566-1.334c-.721.563-2.241.852-2.862.657-.13-.034-.121-.448-.012-.428.847.173 2.123-.045 2.804-.522.09-.062.18.213.07.293z" style="fill:#523c31"/><path d="M28.864 46.82c.112.051.326-.097.933-.204.606-.107.859-.041.946-.128.104-.105-.152-.45-1.02-.296-.87.153-.993.565-.859.627z" style="fill:#69452d"/><path d="M30.97 48.736c-.07-.225.038-.526.435-.807.252-.179.798-.433 1.606-.248.361.082.768.466.782.717-.273.84-2.259 1.306-2.823.338z" style="fill:#fff"/><linearGradient id="a" x1="-1125.271" x2="-1125.271" y1="156.486" y2="156.242" gradientTransform="rotate(170.001 -3637.583 862.737) scale(6.5701)" gradientUnits="userSpaceOnUse"><stop offset="0" style="stop-color:#a6694a"/><stop offset="1" style="stop-color:#4f2a1e"/></linearGradient><path d="M32.472 49.299a.8.8 0 1 1-.278-1.576.8.8 0 0 1 .278 1.576z" style="fill:url(#a)"/><path d="M32.73 48.457c-.096-.545-.884-.406-.788.139.09.505.878.366.788-.14z" style="fill:#1a1626"/><path d="M32.889 48.657c-.04-.229-.37-.17-.33.058.037.21.367.153.33-.058z" style="fill:#ab968c"/><path d="M30.96 48.707c.502.97 2.658.434 2.833-.31.046.905-2.33 1.565-2.832.31z" style="fill:#69452d"/><path d="M29.42 49.01c-.011-.236-.215-.482-.685-.61-.298-.082-.897-.134-1.593.316-.313.201-.563.701-.49.94.543.697 2.57.456 2.768-.646z" style="fill:#fff"/><linearGradient id="b" x1="-1127.312" x2="-1127.312" y1="156.486" y2="156.242" gradientTransform="rotate(170.001 -3646.449 863.513) scale(6.5701)" gradientUnits="userSpaceOnUse"><stop offset="0" style="stop-color:#a6694a"/><stop offset="1" style="stop-color:#4f2a1e"/></linearGradient><path d="M28.218 50.05a.8.8 0 1 1-.279-1.576.8.8 0 0 1 .28 1.575z" style="fill:url(#b)"/><path d="M28.476 49.207c-.096-.545-.885-.406-.789.139.09.505.878.366.789-.139z" style="fill:#1a1626"/><path d="M28.635 49.407c-.04-.229-.37-.17-.33.058.037.211.367.153.33-.058z" style="fill:#ab968c"/><path d="M29.419 48.979c-.139 1.083-2.346 1.32-2.767.678.267.865 2.724.673 2.767-.678z" style="fill:#69452d"/><path d="m26.974 54.843.623-1.099c-1.778-.7-1.333-3.43-2.393-5.174.081 1.912-.36 6.193 1.77 6.273zm8.238-1.942-.878-.345c1.432-1.267.049-3.674.447-5.675.578 1.825 2.405 5.216.431 6.02z" style="fill:#5c4233"/><path d="M27.692 54.007c-1.018.184-1.413-1.463-1.413-1.463s.029 1.95 1.323 1.722l.09-.259zm7.233-2.123c.233-1.07.197-2.121.197-2.121s.342.68.05 2.04l-.247.08z" style="fill:#3d2e24"/><path d="M27.355 54.468c-.782.223-1.203-1.037-1.203-1.037s.156 1.525 1.15 1.246l.053-.21z" style="fill:#3d2e24"/><path d="M26.974 54.843s1.553 1.861 4.526 1.337c3.228-.57 5.008-2.375 4.583-5.188-1.633 2.298-7.376.186-9.109 3.851z" style="fill:#6b4d3c"/><path d="M26.974 54.843c.473.902 2.289 1.731 4.526 1.337-1.255.131-2.998-.195-3.235-.553 0 0 1.878.622 4.121-.192-2.105.47-3.744-.631-3.149-.744.58-.11 2.725-.562 3.866-1.577-.814.2-2.518.044-2.45.003 1.528-.924 5.084.005 5.407-2.12-2.157 2.625-7.623-.027-9.086 3.846z" style="fill:#5c4233"/><path d="M26.974 54.843c.99-4.309 9.404-1.169 8.634-4.496 1.458 3.717-6.792.271-8.634 4.496z" style="fill:#3d2e24"/><path d="M27.333 54.16c1.085 1.441 3.8 1.55 3.8 1.55s-2.76.325-3.976-1.3l.176-.25zm.351-.43c.875.57 4.453-.316 4.453-.316s-2.5 1.262-4.7.595l.247-.28z" style="fill:#3d2e24"/><path d="M36.03 51.631s.152 2.944-4.838 3.602c3.972-1.282 4.837-3.602 4.837-3.602z" style="fill:#5c4233"/><path d="M35.752 51.85s-1.509 2.914-5.93 3.026c3.612-.529 5.93-3.025 5.93-3.025zm.266.879s-1.726 2.802-5.265 3.384c4.176-.177 5.265-3.384 5.265-3.384z" style="fill:#7a5b49"/><path d="M29.537 45.14c.823.093 1.925-.452 1.925-.452-.527-.403-.96-.97-2.14-.763-1.35.238-1.454.988-1.748 1.449 0 0 1.221.136 1.963-.233z" style="fill:#69452d"/><path d="M31.156 44.658c-.943-.544-2.602-.256-3.305.583a49.359 49.359 0 0 1 3.305-.583z" style="fill:#fff"/></svg>