<svg xmlns="http://www.w3.org/2000/svg" xml:space="preserve" style="enable-background:new 0 0 64 64" viewBox="0 0 64 64"><radialGradient id="a" cx="114.142" cy="-96.283" r="18.795" gradientTransform="matrix(.9857 -.1736 .1738 .9848 -60.392 144.05)" gradientUnits="userSpaceOnUse"><stop offset="0" style="stop-color:#291d19"/><stop offset=".264" style="stop-color:#3a2a22"/><stop offset=".721" style="stop-color:#533b2e"/><stop offset="1" style="stop-color:#5c4233"/></radialGradient><path d="M40.09 28.08c8.992-5.57 5.978-16.997 5.978-16.997l-27.085 4.771s1.08 11.769 11.434 13.93c0 0 2.021.143 4.922-.368 2.903-.511 4.751-1.335 4.751-1.335z" style="fill:url(#a)"/><path d="M31.377 26.98c-4.743.988-5.91 4.781-5.914 5.704-.004.759-1.405 6.29-1.72 9.269-2.206 2.821-10.156 15.923-7.02 18.507 2.532-.415 18.86-34.357 14.654-33.48z" style="fill:#732eb0"/><linearGradient id="b" x1="1490.273" x2="1503.933" y1="61.199" y2="34.055" gradientTransform="matrix(-1 0 0 1 1530.218 0)" gradientUnits="userSpaceOnUse"><stop offset="0" style="stop-color:#732eb0"/><stop offset=".018" style="stop-color:#742fb1"/><stop offset=".349" style="stop-color:#8237c6"/><stop offset=".678" style="stop-color:#8b3cd2"/><stop offset="1" style="stop-color:#8e3ed6"/></linearGradient><path d="M23.418 41.69c-1.28-.504-2.257-2.535-.142-4.96l-.016.029c.672-1.008 1.598-1.89 2.186-2.704 3.213-4.434 1.238-5.9 7.849-7.931 3.265-.052 5.367.247 6.677.862h.006c2.57.4 5.007 1.688 5.49 6.452.46 4.563 1.442 18.478-.626 18.845-.394.068-1.245-.09-2.343-.388.539 13.742-18.628 15.45-24.062 6.817-2.66-4.221-2.248-12.232 4.98-17.021z" style="fill:url(#b)"/><path d="M21.864 44.916c.866-.307 1.931-1.307 2.666-1.365 3.809-.315 5.675-.867 4.084 2.63-.645.274-1.28.103-4.086 2.304-.841.664-1.306.426-.906.004 3.197-3.394.359-.634-.324-.009-.933.852-1.88.696-1.38.215 3.239-3.12 2-2.16-.166-.163-.488.448-1.272.117-.509-.596 2.407-2.245 1.754-1.852-.213-.094-.434.384-1.023.278-.562-.34.204-.265 1.375-1.524 1.882-2.007-.9.185-1.197-.33-.486-.58zm3.058 18.611c-.39-1.465-2.163.041-4.757-3.224-.387-.493 3.395 1.899 3.372.04-2.213-.621-2.211-2.165-5.824-2.146-.355.25-1.058 1.804-.985 2.105.942 1.191 1.795 2.04 2.494 2.39 1.074.539 5.84 1.368 5.7.835z" style="fill:#855e45"/><linearGradient id="c" x1="33.881" x2="42.327" y1="36.97" y2="44.506" gradientUnits="userSpaceOnUse"><stop offset="0" style="stop-color:#5d1e96;stop-opacity:0"/><stop offset="1" style="stop-color:#5d1e96"/></linearGradient><path d="M40.072 35.057a33.673 33.673 0 0 1-.747-4.223l-10.66 12.475c.637.244 12.583 3.421 12.726 2.806.145-.614-.763-8.842-1.319-11.058z" style="fill:url(#c)"/><linearGradient id="d" x1="28.25" x2="42.522" y1="55.1" y2="55.1" gradientUnits="userSpaceOnUse"><stop offset="0" style="stop-color:#5d1e96;stop-opacity:0"/><stop offset="1" style="stop-color:#5d1e96"/></linearGradient><path d="M42.498 51.895c-3.396-1.146-12.394-4.298-14.248-5.694l1.43 17.798c6.193 0 13.3-4.016 12.818-12.104z" style="fill:url(#d)"/><path d="M38.58 25.968c.692 3.914-6.743 5.22-7.435 1.306l-.806-4.559 7.435-1.304.805 4.556z" style="fill:#855e45"/><path d="M30.827 1.753c6.86-1.25 11.151 3.92 12.005 11.415.17 1.506.135 3.73-.046 5.664-.374 4.02-6.243 8.867-8.555 9.288-2.311.421-7.303-2.449-8.987-6.093-.81-1.753-1.58-3.832-1.919-5.307-1.679-7.345.64-13.717 7.502-14.967z" style="fill:#916b50"/><path d="M33.067 22.193c1.483-1.023 1.616-.324 4.127-.605-.745 1.263-1.191 2.793-3.675 3.245-2.852.52-3.606-.989-4.532-1.75 2.455-.624 2.346-1.327 4.08-.89z" style="fill:#733b2a"/><path d="M36.495 21.997c-1.323 2.036-4.822 2.65-6.715 1.224 2.542-.178 4.267-.492 6.715-1.224z" style="fill:#fff"/><path d="M24.133 13.9c1.334-1.19 3.989-1.789 5.153-1.356.246.085.299.759.09.711-1.619-.374-3.924.013-5.212 1.021-.172.134-.235-.202-.031-.377zm14.582-2.656c-1.647-.646-4.34-.272-5.293.547-.203.167-.03.819.15.7 1.4-.923 3.69-1.375 5.237-.882.208.065.154-.272-.094-.365z" style="fill:#523c31"/><path d="M31.122 20.12c.143-.148.558-.036 1.554-.217.995-.182 1.348-.433 1.531-.345.22.106.019.805-1.408 1.065-1.427.26-1.85-.324-1.677-.503z" style="fill:#69452d"/><path d="M33.925 14.967c1.442.617 3.454.251 4.602-.838.178-.166.32-.048.275.075-.88 2.432-3.475 2.903-5.11.93-.081-.1.014-.262.233-.167zm-8.662 1.578c1.44.617 3.452.251 4.602-.838.176-.167.316-.048.273.074-.88 2.432-3.473 2.904-5.107.93-.084-.098.011-.26.232-.166z" style="fill:#3d2d27"/><path d="M47.886 15.732C46.04 5.276 40.995.312 38.559 1.505c.6-1.284-6.615-2.502-12.736.258-6.145 2.593-8.518 10.236-6.957 19.081.603 3.418 3.596 7.285 8.168 8.533l.984-.911c-5.31-3.484-5.006-8.024-4.198-13.463 4.317-3.628 9.643-5.242 12.832-9.236-.228 1.535 2.655 2.912 4.58 6.169 2.776 4.697 4.69 9.604-.296 15.248l.69.22c4.62-2.47 6.93-7.871 6.26-11.672z" style="fill:#6b4d3c"/><path d="M38.559 1.505C39.167.448 35.465-.483 31.143.278c5.378-.516 7.693 2.038 6.087 1.537-1.712-.533-5.754-1.032-10.481 2.198 5.41-2.184 10.81-1.79 10.126-.973-1.082 1.291-7.19-.63-13.763 7.898-.906 1.174 4.033-4.606 11.763-6.123-.679 2.457-13.84 8.482-14.987 14.494C22.576 13.554 37.385 8.984 38.56 1.505zm4.961 7.588s4.973 8.524.452 15.837c6.958-7.743-.452-15.837-.452-15.837z" style="fill:#5c4233"/><path d="M24.075 14.688s-1.33.493-2.24 1.91c-.887 8.714 5.363 11.287 5.363 11.287s-5.265-3.785-3.123-13.197z" style="fill:#5c4233"/><path d="M20.957 17.566s-.601.367-1.105 2.122c.161 5.19 4.172 7.14 4.172 7.14s-4.052-3.482-3.067-9.262zM44.96 6.682c-3.799-7.194-6.401-5.177-6.401-5.177s-.925 2.826-1.864 3.925c-1.555 2.786 5.64 3.673 7.326 14.258.481-7.817-5.422-11.946-5.739-13.27-.36-1.503.49-4.059 1.426-4.512 1.014-.492 4.125 2.845 5.252 4.776z" style="fill:#5c4233"/><path d="M19.852 19.688c2.767-7.017 17.224-9.123 18.707-18.183-3.664 8.671-18.69 12.657-18.707 18.183z" style="fill:#3d2e24"/><path d="M39.022 4.937s4.391 6.265 5.938 11.971c-.706-9.069-5.938-11.97-5.938-11.97zm-16.125 8.837s4.105-3.822 9.47-7.325c-6.146 1.467-9.47 7.325-9.47 7.325zm-2.97-.109s2.616-6.456 8.96-9.317c-9.349 1.024-8.96 9.317-8.96 9.317z" style="fill:#7a5b49"/></svg>