<svg xmlns="http://www.w3.org/2000/svg" xml:space="preserve" style="enable-background:new 0 0 64 64" viewBox="0 0 64 64"><path d="M38.42 58.22c-.04-1.9-.15-3.12-2.25-7.14-2.33-4.43 23.56-3.28 20.28 1.19-1.81 2.47-2.3 4.36-2.3 5.95 0 2.37-15.67 2.37-15.73 0z" style="fill:#69452d"/><path d="M56.84 50.35c-2.43-2.91-17.73-3.74-20.73-1.11-.66.58-.59 1.37-.19 2.15 2.11 4.02 2.17 4.97 2.5 6.84-.05-2.01.36-3.36-1.79-7.46-.09-.16-.15-.28.14-.53 2.59-2.27 17.19-1.53 19.28.98.17.21.21.35-.02.66-1.66 2.26-1.88 4.28-1.88 6.35.37-1.86 1.1-3.57 2.59-5.59.56-.78.68-1.6.1-2.29z" style="fill:#543b28"/><radialGradient id="a" cx="-159.403" cy="-363.395" r="40.316" gradientTransform="matrix(-.0429 .8469 -.47 -.0119 -128.477 151.136)" gradientUnits="userSpaceOnUse"><stop offset=".412" style="stop-color:#916b50"/><stop offset=".65" style="stop-color:#8e694e"/><stop offset=".797" style="stop-color:#866046"/><stop offset=".919" style="stop-color:#77533a"/><stop offset="1" style="stop-color:#69452d"/></radialGradient><path d="M63.13 24.23c.71-2.83-4.58-4.13-6.13-.09 0 0 .37-6.28-2.04-13.87-1.26-3.98-5.57-3.11-6.26-1.77 0 0-.1-.58-.17-1-.69-4.33-7.61-3.1-6.91 1.27-.71-.9-6.13-.33-4.84 4.83.44 1.77.99 5.08.99 5.08-.88-4.27-6.64-3.14-5.65 1.13 2.62 11.31 0 11.41 0 18.31 0 9.37 4.06 16.06 12.48 17.21 12.8 1.74 16.2-9.74 16.96-12.81 1.3-5.24.01-12.06 1.57-18.29z" style="fill:url(#a)"/><path d="M57.79 21.66c-.08-2.98-.47-6.52-2.09-11.62-1.2-3.8-4.75-3.82-6.47-3-1.24-4.73-7.94-3.49-8.43.62-2.34-.22-5.94 1.53-4.79 6.14.13.5.26 1.14.39 1.79-2.67-1.3-5.88.86-5.06 4.42 2.58 11.13-.02 11.23-.02 18.14 0 8.96 3.6 14.71 10.14 16.46-5.56-2.99-8.57-8.38-8.57-16.46 0-6.85 2.65-6.95-.02-18.49-.64-2.75 2.83-4.26 3.95-1.35.63 1.64 1.42 7.69 1.62 12.22.15 0 .42-.06.57-.06.52-4.53-.3-10.92-1.48-17.05-.66-3.4 1.69-4.56 3.54-4.1.46.72 2.29 12.43 2.44 20.56.08-.01.43 0 .51 0 .45-6.95-.43-15.74-1.61-21.07-.79-3.56 4.86-4.49 5.34-1.18.03.24.08.52.12.73-1.59 3.4 2.48 4.91 1.87 21.39.09-.02.46-.06.56-.08.93-7.03.2-13.08-.9-17.27-1.48-5.66 3.73-5.26 4.8-1.89 2.14 6.76 2.05 11.69 2.02 12.87C53.67 28.57 54.29 35 54.29 35s.29.46 1.19.76c-.29-4.07.62-8.97 2.1-11.51 2.34-4.01 5.38-2.07 4.7.13-2.11 6.91-.19 12.72-1.49 17.96-1.6 6.47-5.06 11.21-10.43 12.84 6.63-.81 10.25-5.57 11.95-12.47 1.41-5.72-.4-10.34 1.57-18.31.84-3.33-3.18-5.47-6.09-2.74z" style="fill:#543b28"/><linearGradient id="b" x1="44.137" x2="55.479" y1="42.493" y2="42.493" gradientUnits="userSpaceOnUse"><stop offset="0" style="stop-color:#543b28;stop-opacity:.3"/><stop offset=".778" style="stop-color:#543b28;stop-opacity:.9285"/><stop offset=".866" style="stop-color:#543b28"/></linearGradient><path d="M54.29 35c-3.65.85-10.13 4.75-10.15 14.46 0 .71.47.69.53-.03.72-8.45 6.8-13.09 10.81-13.67-.03-.41-1.19-.76-1.19-.76z" style="fill:url(#b)"/><path d="M38.65 29.41c-.22 1.27-1.39 1.78-1.39 1.78s1.01-.2 2.88-.35c0 0-1.13-.4-1.49-1.43zm5.15-.63c-.29 1.25-1.48 1.7-1.48 1.7s1.02-.14 2.9-.18c0 0-1.11-.47-1.42-1.52zm6.35-.21c-.42 1.21-1.65 1.53-1.65 1.53s1.03-.03 2.9.13c0 0-1.05-.59-1.25-1.66z" style="fill:#543b28"/><path d="M25.58 58.22c.05-1.9.15-3.12 2.25-7.14 2.33-4.43-23.56-3.28-20.28 1.19 1.81 2.47 2.3 4.36 2.3 5.95 0 2.37 15.67 2.37 15.73 0z" style="fill:#69452d"/><path d="M7.16 50.35c2.43-2.91 17.73-3.74 20.73-1.11.66.58.59 1.37.19 2.15-2.11 4.02-2.17 4.97-2.5 6.84.05-2.01-.36-3.36 1.79-7.46.09-.16.15-.28-.14-.53-2.59-2.27-17.19-1.53-19.28.98-.17.21-.21.35.02.66 1.66 2.26 1.88 4.28 1.88 6.35-.37-1.86-1.1-3.57-2.59-5.59-.56-.78-.68-1.6-.1-2.29z" style="fill:#543b28"/><radialGradient id="c" cx="524.328" cy="-381.237" r="40.316" gradientTransform="matrix(.0429 .8469 .47 -.0119 171.53 -428.13)" gradientUnits="userSpaceOnUse"><stop offset=".412" style="stop-color:#916b50"/><stop offset=".65" style="stop-color:#8e694e"/><stop offset=".797" style="stop-color:#866046"/><stop offset=".919" style="stop-color:#77533a"/><stop offset="1" style="stop-color:#69452d"/></radialGradient><path d="M.87 24.23C.16 21.4 5.45 20.1 7 24.14c0 0-.37-6.28 2.04-13.87 1.26-3.98 5.57-3.11 6.26-1.77 0 0 .1-.58.17-1 .69-4.33 7.61-3.1 6.91 1.27.71-.9 6.13-.33 4.84 4.83-.44 1.77-.99 5.08-.99 5.08.88-4.27 6.64-3.14 5.65 1.13-2.62 11.31 0 11.41 0 18.31 0 9.37-4.06 16.06-12.48 17.21-12.8 1.76-16.2-9.72-16.96-12.8-1.3-5.25-.01-12.07-1.57-18.3z" style="fill:url(#c)"/><path d="M6.21 21.66c.08-2.98.47-6.52 2.09-11.62 1.2-3.8 4.75-3.82 6.47-3 1.24-4.73 7.94-3.49 8.43.62 2.34-.22 5.94 1.53 4.79 6.14-.13.5-.26 1.14-.39 1.79 2.67-1.3 5.88.86 5.06 4.42-2.58 11.13.02 11.23.02 18.14 0 8.96-3.6 14.71-10.14 16.46 5.56-2.99 8.57-8.38 8.57-16.46 0-6.85-2.65-6.95.02-18.49.64-2.75-2.83-4.26-3.95-1.35-.63 1.64-1.42 7.69-1.62 12.22-.15 0-.42-.06-.57-.06-.52-4.53.3-10.92 1.48-17.05.66-3.4-1.69-4.56-3.54-4.1-.46.72-2.3 12.43-2.44 20.56-.08-.01-.43 0-.51 0-.45-6.95.43-15.74 1.61-21.07.79-3.56-4.86-4.49-5.33-1.18-.03.24-.08.52-.12.73 1.59 3.4-2.48 4.91-1.87 21.39-.09-.02-.46-.06-.56-.08-.93-7.03-.2-13.08.9-17.27 1.48-5.66-3.73-5.26-4.8-1.89-2.16 6.76-2.07 11.69-2.04 12.87C10.33 28.57 9.71 35 9.71 35s-.29.46-1.19.76c.29-4.07-.62-8.97-2.1-11.51-2.34-4.01-5.38-2.07-4.7.13 2.11 6.91.19 12.72 1.49 17.96 1.6 6.47 5.06 11.21 10.43 12.84-6.63-.8-10.26-5.56-11.96-12.46C.27 37 2.08 32.38.11 24.41c-.83-3.34 3.19-5.48 6.1-2.75z" style="fill:#543b28"/><linearGradient id="d" x1="639.27" x2="650.612" y1="42.493" y2="42.493" gradientTransform="matrix(-1 0 0 1 659.133 0)" gradientUnits="userSpaceOnUse"><stop offset="0" style="stop-color:#543b28;stop-opacity:.3"/><stop offset=".778" style="stop-color:#543b28;stop-opacity:.9285"/><stop offset=".866" style="stop-color:#543b28"/></linearGradient><path d="M9.71 35c3.65.85 10.13 4.75 10.15 14.46 0 .71-.47.69-.53-.03-.72-8.45-6.8-13.09-10.81-13.67.03-.41 1.19-.76 1.19-.76z" style="fill:url(#d)"/><path d="M25.35 29.41c.22 1.27 1.39 1.78 1.39 1.78s-1.01-.2-2.88-.35c0 0 1.13-.4 1.49-1.43zm-5.15-.63c.29 1.25 1.48 1.7 1.48 1.7s-1.02-.14-2.9-.18c0 0 1.11-.47 1.42-1.52zm-6.35-.21c.42 1.21 1.65 1.53 1.65 1.53s-1.03-.03-2.9.13c0 0 1.05-.59 1.25-1.66z" style="fill:#543b28"/></svg>