<svg xmlns="http://www.w3.org/2000/svg" xml:space="preserve" style="enable-background:new 0 0 64 64" viewBox="0 0 64 64"><path d="M24.304 21.041c-.851-.916-2.945.678-3.268.93-1.071.83-3.82-3.766-2.373-4.524 1.255-.663 1.145-2.476 1.145-2.476.85-.12 5.013-3.514 4.496 6.07zM9.613 38.5c2.27-.409 4.21-2.336 6.752.796-.006 2.91-.908 4.15-1.72 4.913-1.55 1.45-3.914.508-7.74 4.538l-3.052-2.003c2.633-2.628 3.193-4.559 5.78-5.525.384-.745.342-1.535-.02-2.718z" style="fill:#f5bb51"/><path d="m3.264 47.508 3.18 1.78.64-.9-2.965-2.057s-.772.567-.855 1.177z" style="fill:#e6ebef"/><path d="m2.75 54.013-2.619-1.7c-.384-.249.198-.682.198-.682s2.777-.083 10.092 5.704c0 0-2.847 1.658-7.67-3.322z" style="fill:#c3bfbd"/><path d="M1.945 49.047c.234-.779 1.537-2.543 1.712-2.258.34.552 2.209 1.652 2.773 1.663.416-1.761 1.755-.7 1.49-.246-3.7 6.35 4.609 6.425 2.5 9.13 0 0-3.964-.104-7.235-3.818L.33 51.631c.622-1.777 1.566-2.423 1.616-2.584z" style="fill:#ed7100"/><path d="M7.843 53.404c-1.575-.323-1.744-.738-1.206-1.234-.913-.32-.847-.918-.495-1.175-.803-.477-.431-1.118.815-.777.687.22 1.31 3.27.886 3.186z" style="fill:#c3bfbd"/><path d="M29.183 15.554c1.159-2.162-1.049-4.297 1.298-5.575 2.345 2.28 1.086 4.31-1.298 5.575z" style="fill:#e68c00"/><path d="M30.498 11.954c-.02.85.095 2.602-.875 3.405-.434.36-.343 1.639.002 2.524.15.384.086.784-.153.936-.365.233-.703-.106-.979.071-.448.29-.25.63-.29.83 0 0-1.122-.15-.878 1-.145.064-.3-.116-.435.692-.09.533-.835 1.028-1.412.634-3.641-2.487-4.713-3.658-4.021-6.535 1.108-4.613 1.868-9.668 9.04-3.557z" style="fill:#ffc940"/><path d="M29.58 18.719c-.315.54-2.112.135-1.703-.702-.088.899 1.908.35 1.703.702z" style="fill:#f0a429"/><path d="M27.36 15.382c.123.647.83 1.058.83 1.058.357-.131.602-.691.65-1.03-.367-.212-1.48-.028-1.48-.028z" style="fill:#fff"/><linearGradient id="a" x1="642.591" x2="642.591" y1="559.541" y2="558.18" gradientTransform="matrix(-.5138 -.2626 -.4551 .8904 613.005 -313.053)" gradientUnits="userSpaceOnUse"><stop offset="0" style="stop-color:#a6694a"/><stop offset="1" style="stop-color:#4f2a1e"/></linearGradient><path d="M28.74 15.997c-.376.772-.902.504-.511-.261.363-.71.995-.73.512.261z" style="fill:url(#a)"/><path d="M28.686 15.942c-.184.36-.39.255-.207-.105.172-.335.378-.23.207.105z" style="fill:#1a1626"/><path d="M28.625 15.72c-.092.179-.194.126-.103-.053.085-.167.188-.114.103.053z" style="fill:#ab968c"/><path d="M27.36 15.382c.644-.317 1.247-.315 1.607-.16.006.197-.056.253-.056.253s-.286-.23-1.551-.093z" style="fill:#f0a429"/><path d="M27.822 14.286c.568-.211 1.438-.21 2.022.383.084.085-.203.462-.27.394-.45-.453-1.024-.582-1.86-.443-.098.016-.005-.292.108-.334z" style="fill:#bb7c0a"/><path d="M19.924 7.944c1.868-1.891 4.026-2.473 7.38-1.434 2.717.84 4.503 3.073 4.414 4.988-.122 2.67-4.039 1.36-5.952 2.993 0 0-.18-1.294 1.379-2.866-2.576 1.506-3.836 1.924-4.922 1.92-1.194 1.628-1.907 3.446-2.184 5.084-.64-.486-1.108-1.19-1.4-1.997-.125.352-.253.736-.388 1.171-1.482-2.371-.857-7.298 1.673-9.859z" style="fill:#f9a307"/><path d="M20.073 8.105c1.806-1.951 3.877-2.634 7.23-1.595 2.718.84 4.512 3.177 4.238 4.797-.253 1.5-1.015 1.685-4.803 2.302 0 0 .96-2.257 2.98-2.939-3.731.178-4.643 2.009-6.956 2.056-2.622.054-2.67 2.21-3.246 3.95-.934-1.924-.158-4.515-.158-4.515s-.868 1.679-1.254 3.833c-.861-2.287.174-5.947 1.97-7.889z" style="fill:#ffb80d"/><path d="M22.806 11.938c1.115.735.368 3.537-.788 3.743-.163.03-.862-.17-.937-.961-.044-.439-.588-1.088-.385-1.83.258-.954 1.001-1.684 2.11-.952z" style="fill:#ffc940"/><path d="M22.534 12.403c.266.227.41.688.278 1.25-.46-.332-.892.642-.518 1.01-.08.103-.167.206-.267.308-.184-.634-.746-.732-.803-1.556-.053-.745.648-1.574 1.31-1.012z" style="fill:#f0a429"/><path d="M19.333 10.2c3.71-5.76 8.651-3.11 8.651-3.11s-4.623-.686-8.65 3.11z" style="fill:#ffca25"/><path d="M20.742 11.145c3.777-4.729 8.492-3.07 8.492-3.07s-4.243.584-8.492 3.07zm8.609 1.678c1.63-1.849 1.696-3.126 1.696-3.126s1.085 1.921-1.696 3.126zm-5.923-1.499c2.994-1.842 5.652-2.299 5.652-2.299s-1.296 1.77-5.652 2.299z" style="fill:#ffca25"/><path d="M20.93 16.185c.136.74 1.673 1.564 2.35 1.346 1.263-.404 2.526-3.906 2.03-5.2-.272-.692-1.955-1.428-2.61-1.132-1.214.547-2.112 3.145-1.77 4.986zm3.154-4.024c.443-.427 1.242.504.8.936-.44.429-1.238-.505-.8-.936zm-.3 4.09c.285.663-.951 1.288-1.24.63-.289-.66.953-1.29 1.24-.63zm-.168-4.394c.11.649-1.11.909-1.225.26-.112-.654 1.107-.909 1.225-.26z" style="fill:#ff7a00"/><path d="M25.25 22.05c.265.222 1.229.293 1.094.11-2.069-2.806-2.065-5.123-2.533-5.59-.12-.118-.788.418-.786.59.015.933.823 3.723 2.225 4.89z" style="fill:#f2f5f7"/><path d="M29.668 7.72c.051-.067-.524-.587-.762-.489-1.05.42-4.787 3.36-5.687 4.305-.283.291.054.78.39.632 1.163-.529 5.346-3.523 6.06-4.449z" style="fill:#e3e6e8"/><path d="M30.237 8.25c.092-.194-.529-.579-.63-.533-1.111.504-4.278 3.529-4.996 4.498-.305.409.198.732.453.581 1.025-.59 4.71-3.564 5.173-4.546z" style="fill:#f2f5f7"/><path d="M26.948 30.3c-.241-.068-.831.85-.512.79.194-.035 1.452.385 2.272.717.502.204.86-.278.697-.358-1.426-.701-1.097-.757-2.457-1.149z" style="fill:#f0a429"/><path d="M26.085 30.148c-.242-.058-.795.982-.479.996.192.01 1.348.653 2.095 1.124.456.293.851-.062.713-.18-.962-.814-2.005-1.867-2.33-1.94z" style="fill:#f0a429"/><path d="M29.236 30.763c-.558-.148-1.324-.666-1.633-.66-.26.007-1.184-.201-1.825-.187-.592.013-3.07-.662-6.807-3.091-1.316 1-2.629 2.009-3.955 2.995 3.266 1.142 7.284.789 8.543 2.118.675.71 1.72.625 2.715 1.81.458.551 1.02-.12-.38-1.742-.35-.402.366-.626.584-.67.427-.084 1.512-.165 2.172 0 .262.07 1.458-.337.586-.573zm-10.74-15.042c-2.104 8.596-.79 11.658 2.606 9.825 1.076-.585 2.464-1.875 1.794-3.97-.272-1.534-1.96-4.358-4.4-5.855zm-6.873 28.376c1.851-1.436 2.81-4.369 6.43-2.773 1.251 2.601.808 3.669.411 4.733-.76 2.027-3.055 3.621-4.841 8.462l-3.587-.346c1.217-3.589.886-5.577 2.776-7.66.024-.846-.354-1.53-1.19-2.416z" style="fill:#f5bb51"/><path d="M4.594 29.26c3.859-2.59 4.369-11.481 10.445-14.191 2.23-.996 4.495 1.105 4.533 2.59.052 2.202 1.517 5.346 3.187 3.256.182.196.137.662.137.662-3.74 10.298-12.217 9.194-10.207 11.445 2.057 2.306 4.04 5.269 5.363 8.302-2.167.56-4.629 1.36-6.43 2.773-2.66-1.946-3.133-3.852-5.66-4.945-3.884-1.677-4.5-7.793-1.368-9.893z" style="fill:#ff7a00"/><path d="M12.521 17.117c-3.504 3.697-.118 7.726 3.504 4.18 4.494-4.393.566-8.464-3.504-4.18z" style="fill:#f5bb51"/><path d="m9.841 55.134 3.606.09.184-1.108-3.536-.437s-.442.871-.254 1.455z" style="fill:#e6ebef"/><path d="M12.187 61.181 9.115 60.9c-.45-.041-.117-.7-.117-.7s2.443-1.387 11.466.325c0 0-1.828 2.824-8.277.656z" style="fill:#c3bfbd"/><path d="M9.324 57.131c-.122-.807.277-2.997.56-2.824.54.331 2.681.429 3.187.171-.386-1.766 1.266-1.45 1.224-.92-.56 7.415 6.883 3.56 6.168 6.967 0 0-3.583 1.778-8.102.006L8.998 60.2c-.21-1.88.352-2.905.326-3.069z" style="fill:#ff7a00"/><path d="M16.47 58.233c-1.546.457-1.875.164-1.607-.533-.955.147-1.156-.42-.952-.814-.92-.046-.867-.795.394-1.075.706-.13 2.578 2.297 2.164 2.422z" style="fill:#c3bfbd"/><path d="M19.895 36.122c.1.333-.58 1.673-1.01 2.858-.062.168-.734-.093-.645-.622.14-.867.25-2.182.146-2.367-.169-.306 1.436-.118 1.51.13z" style="fill:#f0a429"/><path d="M8.774 28.851c-.317-.365.357-3.768 5.074-12.365 1.773-3.227 5.867-.307 4.261 3.024-2.337 4.845-4.346 7.678-4.346 7.678 1.545 1.214 4.638 4.814 6.519 7.317.424.569.969 3.648 1.043 3.898.101.33-.58 1.672-1.013 2.858-.06.164-.731-.092-.643-.624.141-.864.25-2.182.149-2.365-.17-.307-1.755-1.47-1.555-2.823-2.704-1.193-6.926-3.648-9.489-6.598zm32.886-5.574c1.29-.543 2.48 1.127 2.726 1.452.818 1.08 4.673-2.657 3.474-3.762-1.039-.96-.46-2.684-.46-2.684-.789-.335-3.733-4.397-5.74 4.994z" style="fill:#f5bb51"/><path d="M38.33 16.574c-.723-2.344 1.852-4.017-.206-5.72-2.739 1.789-1.892 4.021.206 5.72z" style="fill:#e68c00"/><path d="M37.73 12.788c-.145.838-.593 2.536.205 3.51.358.436.023 1.674-.485 2.477-.22.349-.234.753-.029.948.314.3.711.031.947.258.385.37.109.73.143.914 0 0 1.125.065.665 1.146.13.091.305-.097.283.722-.015.54.623 1.169 1.264.893 4.05-1.745 5.326-2.689 5.199-5.645-.205-4.74.017-9.846-8.193-5.223z" style="fill:#ffc940"/><path d="M37.335 19.604c.206.59 2.046.537 1.805-.362-.085.898-1.94-.021-1.805.362z" style="fill:#f0a429"/><path d="M40.152 16.754c-.245.611-1.018.88-1.018.88-.324-.198-.458-.794-.44-1.136.401-.137 1.458.256 1.458.256z" style="fill:#fff"/><linearGradient id="b" x1="-3887.282" x2="-3887.282" y1="-471.946" y2="-473.308" gradientTransform="matrix(.5546 -.1594 .2762 .9611 2325.317 -148.278)" gradientUnits="userSpaceOnUse"><stop offset="0" style="stop-color:#a6694a"/><stop offset="1" style="stop-color:#4f2a1e"/></linearGradient><path d="M38.68 17.094c.22.83.789.667.552-.16-.22-.766-.837-.906-.552.16z" style="fill:url(#b)"/><path d="M38.744 17.05c.112.39.334.325.223-.064-.104-.361-.327-.297-.223.064z" style="fill:#1a1626"/><path d="M38.846 16.843c.056.194.167.162.111-.032-.052-.18-.162-.148-.11.032z" style="fill:#ab968c"/><path d="M40.153 16.754c-.572-.435-1.164-.548-1.547-.464-.044.192.006.259.006.259s.325-.172 1.54.205z" style="fill:#f0a429"/><path d="M39.909 15.59c-.518-.316-1.372-.482-2.058-.012-.1.068.11.493.19.44.529-.359 1.116-.376 1.91-.08.092.035.06-.285-.042-.348z" style="fill:#bb7c0a"/><path d="M48.875 10.878c-1.472-2.214-3.478-3.198-6.968-2.82-2.828.304-5.01 2.152-5.289 4.05-.39 2.643 3.704 2.108 5.27 4.077 0 0 .423-1.236-.805-3.077 2.24 1.971 3.397 2.623 4.463 2.826.86 1.827 1.212 3.748 1.17 5.41.722-.355 1.316-.958 1.757-1.693.054.37.107.77.156 1.224 1.91-2.044 2.239-7 .246-9.997z" style="fill:#f9a307"/><path d="M48.697 11.008c-1.398-2.262-3.3-3.328-6.79-2.95-2.828.304-5.037 2.253-5.078 3.896-.039 1.52.673 1.848 4.273 3.179 0 0-.51-2.399-2.362-3.455 3.629.889 4.172 2.86 6.434 3.35 2.563.554 2.197 2.68 2.43 4.499 1.285-1.71 1.019-4.402 1.019-4.402s.53 1.814.497 4.002c1.283-2.08.968-5.87-.423-8.12z" style="fill:#ffb80d"/><path d="M45.282 14.246c-1.236.508-1.038 3.401.057 3.824.153.06.878-.002 1.103-.764.127-.422.786-.954.728-1.722-.07-.986-.66-1.844-1.888-1.338z" style="fill:#ffc940"/><path d="M45.46 14.755c-.305.171-.535.596-.512 1.172.515-.236.752.802.314 1.092.06.116.125.233.204.353.301-.587.872-.576 1.086-1.374.194-.72-.335-1.669-1.092-1.243z" style="fill:#f0a429"/><path d="M49.023 13.205c-2.539-6.363-7.896-4.71-7.896-4.71s4.67.213 7.896 4.71z" style="fill:#ffca25"/><path d="M47.46 13.863c-2.803-5.365-7.748-4.64-7.748-4.64s4.053 1.386 7.747 4.64zm-8.772-.001c-1.246-2.127-1.066-3.393-1.066-3.393s-1.433 1.677 1.066 3.393zm6.1-.338c-2.585-2.381-5.107-3.338-5.107-3.338s.934 1.984 5.107 3.338z" style="fill:#ffca25"/><path d="M45.528 13.541c-.587-.416-2.38-.016-2.779.612-.735 1.174-.166 4.853.996 5.491.623.344 2.29-.17 2.564-.87.689-1.742.305-4.464-.781-5.233zm-2.507 1.445c-.352-.51.61-1.27.963-.766.348.507-.614 1.27-.963.766zm1.57 4.162c-.408.59-1.502-.26-1.095-.857.408-.591 1.506.264 1.096.857zm1.063-4.647c-.237.615-1.385.126-1.152-.49.24-.614 1.388-.13 1.152.49z" style="fill:#e81c27"/><path d="M40.947 23.704c-.303.166-1.263.05-1.095-.103 2.568-2.358 3.008-4.632 3.556-5 .14-.094.694.56.659.728-.194.913-1.521 3.497-3.12 4.375z" style="fill:#f2f5f7"/><path d="M39.354 8.791c-.037-.075.626-.475.842-.333.95.613 4.055 4.214 4.757 5.314.222.34-.203.755-.504.545-1.04-.74-4.572-4.48-5.095-5.526z" style="fill:#e3e6e8"/><path d="M38.694 9.203c-.053-.208.63-.466.72-.402.994.708 3.523 4.282 4.042 5.372.221.459-.334.68-.556.483-.892-.775-3.94-4.4-4.206-5.453z" style="fill:#f2f5f7"/><path d="m57.64 39.31-5.518 3.424c.582 1.042 2.894 3.453 5.075 8.433l3.547-.729c-1.964-3.806-.67-5.704-3.018-8.397-.59-.677-.086-2.73-.086-2.73z" style="fill:#f5bb51"/><path d="m61.028 51.336-3.588.485-.286-1.038 3.483-.81s.526.783.391 1.363z" style="fill:#e6ebef"/><path d="m59.257 57.38 3.036-.608c.445-.09.051-.685.051-.685s-2.565-1.054-11.406 1.582c0 0 2.085 2.498 8.319-.289z" style="fill:#c3bfbd"/><path d="M61.73 53.187c.05-.783-.557-2.831-.822-2.637-.508.378-2.634.71-3.165.518.222-1.732-1.398-1.246-1.308-.746 1.257 7.031-6.53 4.167-5.497 7.348 0 0 3.74 1.303 8.083-.891l3.323-.692c.033-1.822-.627-2.736-.615-2.9z" style="fill:#d91a24"/><path d="M54.707 55.034c1.583.264 1.886-.05 1.554-.689.963.037 1.11-.527.87-.882.917-.147.792-.854-.494-.985-.716-.047-2.356 2.483-1.93 2.556z" style="fill:#c3bfbd"/><path d="M44.379 37.061c.2-.15 1.263.623.968.758-.177.083-.955 1.152-1.426 1.893-.287.456-.85.276-.778.11.503-1.152.962-2.562 1.236-2.76z" style="fill:#f0a429"/><path d="M45.272 36.888c.163-.184 1.225.342.975.536-.151.118-.712 1.309-1.044 2.121-.2.502-.73.44-.687.263.306-1.215.535-2.673.756-2.92z" style="fill:#f0a429"/><path d="M42.244 39.157c.372-.438.71-1.283.967-1.452.216-.146.854-.833 1.388-1.19.493-.323 2.141-2.268 3.841-6.314 1.637.043 3.277.09 4.911.113-2.033 2.762-5.743 4.433-5.425 6.172.168.933-.516 1.716-.157 3.165.17.673-.699.743-1.169-1.273-.114-.5-1.497-.385-1.716-.358-.348.044-1.317.799-1.763 1.309-.178.2-1.46.507-.877-.172zm5.909-20.493c2.105 8.287.791 11.24-2.606 9.472-1.077-.561-2.706-1.564-2.035-3.584.27-1.478 1.295-4.48 4.641-5.888zm5.184 26.267c-1.85-1.385-1.874-4.837-5.493-3.299-1.625 2.11-1.181 3.284-.658 4.251.416.768.83 3.695 2.511 8.902l3.584-.336c-1.214-3.461.548-5.573-.594-8.21-.173-.402-.228-.694.65-1.308z" style="fill:#f5bb51"/><path d="M62.055 31.718c-3.859-2.496-4.369-11.071-10.444-13.685-2.23-.96-4.497 1.066-4.534 2.498-.052 2.124-1.74 5.366-3.411 3.35-.162.213-.154.671-.154.671 3.738 9.934 12.85 8.933 10.243 10.355-3.117 1.7-4.763 5.154-5.91 6.725 2.166.541 3.69 1.936 5.492 3.3 2.66-1.879 4.682-3.388 7.209-4.442 3.884-1.617 4.641-6.748 1.51-8.772z" style="fill:#e81c27"/><path d="M53.924 20.825c1.736 4.279-1.392 6.321-4.163 3.703-4.496-4.237 1.989-9.06 4.163-3.703z" style="fill:#f5bb51"/><path d="m53.478 55.377-3.606.084-.184-1.067 3.534-.422s.445.841.256 1.405z" style="fill:#e6ebef"/><path d="m51.134 61.21 3.07-.273c.45-.038.118-.674.118-.674s-2.444-1.339-11.466.313c0 0 1.824 2.726 8.278.635z" style="fill:#c3bfbd"/><path d="M53.994 57.301c.123-.776-.277-2.888-.558-2.721-.54.319-2.682.415-3.19.167.388-1.704-1.264-1.4-1.222-.891.56 7.152-6.885 3.435-6.168 6.72 0 0 3.582 1.716 8.102.007l3.364-.32c.208-1.813-.354-2.8-.328-2.962z" style="fill:#e81c27"/><path d="M46.85 58.366c1.544.441 1.872.159 1.607-.514.953.142 1.155-.403.95-.785.92-.045.868-.765-.393-1.036-.707-.126-2.577 2.215-2.164 2.335z" style="fill:#c3bfbd"/><path d="M35.433 26.405c-.317-.124-1.67.442-2.856.777-.168.048.032.733.556.685.85-.07 2.132-.08 2.304.037.284.193.234-1.405-.004-1.5zm-.937-1.938c-.15-.265-1.423-.631-2.446-1.064-.143-.063-.396.53-.002.79.634.43 1.538 1.146 1.592 1.325.087.297.97-.852.856-1.05z" style="fill:#f0a429"/><path d="M46.156 32.15c.473.062 2.813-1.742 7.033-10.293 1.582-3.211-3.08-4.954-4.84-1.824-2.562 4.556-3.693 7.743-3.693 7.743-1.85-.6-7.05-.606-7.312-.786-.57-.399-2.7-2.475-2.882-2.652-.241-.235-1.713-.233-2.936-.38-.172-.02-.258.683.24.845.814.257 2.001.747 2.116.92.183.286.459 2.198 1.72 2.62 1.86.238 6.737 3.33 10.554 3.808z" style="fill:#f5bb51"/><path d="M38.734 21.168c.372.107.315.45.315.45-.15.042-.052.552.176.49.787-.215 1.326-1.089 1.451-1.564-1.253.279-2.761.092-1.942.624z" style="fill:#f0a429"/><path d="M38.734 21.168s.239.398.315.45c.248-.067 1.005-.468 1.41-.926l-1.725.476z" style="fill:#fff"/><path d="M27.933 19.898c-.387.034-.396.38-.396.38.14.072-.056.554-.268.449-.73-.365-1.091-1.325-1.122-1.816 1.175.515 2.691.623 1.786.987z" style="fill:#f0a429"/><path d="M27.933 19.898s-.312.345-.396.38c-.23-.114-.897-.652-1.204-1.181l1.6.8z" style="fill:#fff"/></svg>