<svg xmlns="http://www.w3.org/2000/svg" xml:space="preserve" style="enable-background:new 0 0 64 64" viewBox="0 0 64 64"><path d="M12.883 7.673c3.28 3.613 6.479 4.674 8.349 8.664.693 1.175 3 2.76 4.05 4.116 0 0-.848 3.95-5.045 3.806-.914-1.407-2.71-5.509-3.099-6.616-.292-.836-1.694-3.59-6.234-8.232-.37-.379 1.803-1.934 1.98-1.738zm37.355 9.475c-2.033 1.628-7.646 1.308-10.858 4.36-1.284 1-3.814 1.038-5.639 1.89 0 0-1.452 3.872 3.476 4.916 2.096-1.279 4.111-2.864 4.958-3.684.64-.62 4.07-2.942 8.957-4.892.494-.197-.686-2.758-.894-2.59z" style="fill:#5e4c3b"/><path d="M20.237 24.259s1.02-1.995 5.046-3.806c2.087 2.051 3.243 4.2 3.243 4.2s.77.074 1.366.356c1.295-.63 3.85-1.612 3.85-1.612s2.544 2.224 3.475 4.917c0 0-2.143 1.833-4.1 2.913-2.403 1.327-9.57 1.42-10.218-.07-1.15-2.65-.18-3.528-2.662-6.898z" style="fill:#ff7a00"/><path d="M31.965 42.351c.762.396 1.694-.173 2.196.037.602.252 3.723.778 4.035 1.033 1.87 1.595 3.864 2.126 5.417 4.58.202.324-.196 1.34.102 2.148.377 1.023-.07 1.617.19 1.662.578.104 1.003-.42.82-1.459 1.088.274.922 1.633 1.69 2.694.177.244.74.263.603-.376 0 0 .602.36.477-.42.537 0 .33-.656.33-.656.917-.191-1.966-4.763-2.278-5.138-1.822-2.17-5.04-5.52-5.91-5.883-.367-.153-5.757-1.407-6.453-2.389-.52 1.254-1.07 2.815-1.22 4.167z" style="fill:#5e4c3b"/><path d="M47.018 52.67c-.603-.95-1.325-2.314-1.325-2.314s.57 1.701 1.325 2.314zm.477-.42c-.477-.359-1.54-2.326-1.54-2.326s.97 2.327 1.54 2.327zm.329-.656c-.624-.508-1.545-2.256-1.545-2.256s.923 2.176 1.545 2.256z" style="fill:#4a3728"/><path d="M25.217 44.569c2.92-1.902 6.612-.449 7.44-2.394.332-.778.707-2.582.527-3.99-.296-2.316-1.083-3.266-.066-6.958 0 0-5.763.616-10.668-1.203.92 3.54 1.27 6.522.743 9.445-.238.761.448 6.126 2.024 5.1z" style="fill:#ff7a00"/><path d="M16.358 61.018c-.325-.068-.477.875.181.914 3.068.178 3.59.022 4.735-.644.831-.485.9.914 2.502.644.525-.088.633-.84.258-.934-1.398-.355-1.444-1.456-1.865-2.423-.474-1.08-.414-7.758-.414-7.758s.861-3.218 1.352-4.13c.395-.733 1.438-1.289 2.11-2.218.606-.837-1.67-6.494-1.885-5.478-.367 1.736-2.169 2.948-4.536 10.489-.388 1.235.154 2.884 1.31 7.91.13.573-.293 1.661-.595 2.284-.4.828-2.414 1.498-3.153 1.344z" style="fill:#5e4c3b"/><path d="M16.53 61.036c2.045.086 2.78-.664 2.78-.664s-.966.615-2.78.664z" style="fill:#4a3728"/><path d="M31.442 41.892c-.286-1.967-5.097-1.505-4.313.597.35.939.076 1.933.076 1.933l3.645-.757s.757-.639.592-1.773zM13.182 7.686c-.398-.896-1.583-1.316-2.291-2.016-.798-.79-1.175-2.599-2.18-2.964-.342-1.12-1.618-.754-1.425.036a.503.503 0 0 0-.45.615c-.339.063-.469.477-.39.607-.242.07-.356.378-.271.599-1.081 1.001 3.166 3.602 4.048 4.46 1.19 1.158 3.95.9 2.959-1.337z" style="fill:#5e4c3b"/><path d="M7.866 3.393c-.397-.089-.9-.635-.55-1.04.012.28.097.419.55 1.04zm-.703.617s-.649-.612-.226-1.087c-.125.373.226 1.086.226 1.086zm-.511.53s-.518-.49-.141-.95c-.124.372.14.95.14.95zm-.248.51s-.546-.475-.198-.881c-.124.372.198.882.198.882z" style="fill:#4a3728"/><path d="M50.785 16.851c.872-.23 1.94.537 2.826.805.998.301 2.604-.28 3.363.417 1.045-.264 1.353 1.038.638 1.267.16.386-.115.666-.275.705.108.329-.158.651-.297.648a.463.463 0 0 1-.347.539c-.285 1.452-4.329-.96-5.419-1.3-1.473-.46-2.663-2.508-.489-3.08z" style="fill:#5e4c3b"/><path d="M56.826 19.16c.256.304.924.47 1.08-.042-.227.13-.377.127-1.08.042zm-.158.926s.787.262.964-.348c-.236.297-.964.348-.964.348zm-.18.716s.63.208.816-.354c-.235.295-.816.354-.816.354zm-.288.475s.632.239.79-.27c-.236.295-.79.27-.79.27z" style="fill:#4a3728"/><path d="M35.487 47.152s-.437-1.535-.225-2.658c-.548.16-.643.467-.643.467s-.11-.736.084-1.3c-.54.006-.818.323-.818.323s-.097-.554-.205-.927c-1.46.665-1.055 2.43-1.055 2.43l2.862 1.665zm-11.23-.717c.583.985.697 2.575.697 2.575l2.118-2.545s-.223-1.796-1.822-1.922c.026.388.124.942.124.942s-.37-.203-.88-.024c.378.46.524 1.192.524 1.192s-.192-.256-.761-.218z" style="fill:#1a1714"/><path d="M25.353 50.949c.79-.241.897-3.045.263-3.668-.088-.087-.532-.172-.73.511-.11.38-.55.755-.577 1.503-.033.955.256 1.892 1.044 1.654zm10.423-1.838c-.825.044-1.884-2.554-1.501-3.357.052-.111.44-.344.86.23.233.32.775.522 1.056 1.216.358.886.404 1.866-.415 1.911z" style="fill:#735c48"/><path d="M25.284 50.427c.197-.104.372-.465.401-1.02-.707.29-.74-.97-.106-1.106a5.595 5.595 0 0 0-.096-.378c-.23.502-.575.377-.768 1.1-.171.648.075 1.66.569 1.404zm9.653-2.648c.22.51.505.79.726.818.549.072.436-.964.05-1.514-.427-.61-.71-.377-1.097-.77.01.137.022.264.04.39.638-.083 1.032 1.095.281 1.076z" style="fill:#4a3728"/><path d="M31.48 55.224c3.496-.616 4.678-3.76 3.823-7.383-.173-.727-.565-1.754-.978-2.62-.857-1.799-3.505-3.294-5.139-3.006-1.633.288-3.608 2.598-3.8 4.582-.092.956-.11 2.052-.024 2.797.436 3.696 2.622 6.247 6.118 5.63z" style="fill:#735c48"/><path d="M26.813 50.97c.874.283 2.408.032 2.924-.362.113-.08-.04-.465-.134-.408-.74.453-2.02.686-2.823.47-.108-.03-.099.26.033.3zm7.598-1.34c-.725.565-2.251.854-2.874.66-.133-.035-.122-.45-.014-.429.85.173 2.131-.045 2.814-.523.093-.067.184.21.074.292z" style="fill:#302b27"/><path d="M29.02 46.792c.11.053.328-.097.937-.205.61-.107.863-.04.952-.128.105-.105-.152-.452-1.027-.298-.872.154-.995.568-.862.631zm.69-1.607c.826.093 1.932-.455 1.932-.455-.529-.406-.964-.975-2.147-.766-1.354.239-1.46.99-1.756 1.455 0 .002 1.227.138 1.971-.234z" style="fill:#4a3728"/><path d="M31.334 44.703c-.946-.547-2.611-.258-3.317.585a48.366 48.366 0 0 1 3.317-.585zm-.198 4.017c-.07-.227.038-.529.436-.81.254-.179.8-.434 1.613-.25.362.083.77.47.785.721-.273.843-2.268 1.312-2.834.339z" style="fill:#fff"/><linearGradient id="a" x1="-1260.333" x2="-1260.333" y1="142.452" y2="142.207" gradientTransform="rotate(170.001 -4085.216 855.45) scale(6.5701)" gradientUnits="userSpaceOnUse"><stop offset="0" style="stop-color:#a6694a"/><stop offset="1" style="stop-color:#4f2a1e"/></linearGradient><path d="M32.644 49.286a.803.803 0 1 1-.279-1.58.803.803 0 1 1 .279 1.58z" style="fill:url(#a)"/><path d="M32.902 48.438c-.096-.547-.889-.407-.793.14.093.508.883.368.793-.14z" style="fill:#1a1626"/><path d="M33.062 48.638c-.04-.229-.373-.17-.333.059.04.214.37.156.333-.059z" style="fill:#ab968c"/><path d="M31.125 48.69c.503.976 2.668.435 2.845-.311.046.91-2.339 1.572-2.845.31z" style="fill:#4a3728"/><path d="M29.58 48.994c-.012-.236-.217-.483-.687-.612-.3-.08-.9-.134-1.601.317-.315.202-.564.706-.492.947.546.698 2.58.456 2.78-.652z" style="fill:#fff"/><linearGradient id="b" x1="-1262.372" x2="-1262.372" y1="142.452" y2="142.207" gradientTransform="rotate(170.001 -4094.081 856.225) scale(6.5701)" gradientUnits="userSpaceOnUse"><stop offset="0" style="stop-color:#a6694a"/><stop offset="1" style="stop-color:#4f2a1e"/></linearGradient><path d="M28.372 50.039a.805.805 0 1 1-.28-1.585.805.805 0 0 1 .28 1.585z" style="fill:url(#b)"/><path d="M28.63 49.191c-.096-.547-.889-.407-.792.14.092.508.882.368.792-.14z" style="fill:#1a1626"/><path d="M28.79 49.392c-.04-.23-.373-.17-.333.058.04.214.37.156.333-.058z" style="fill:#ab968c"/><path d="M29.579 48.962c-.139 1.087-2.355 1.327-2.777.68.266.873 2.733.679 2.777-.68z" style="fill:#4a3728"/><path d="M34.677 54.097c-2.139-1.424-7.781-1.557-9.404-5.238 1.97 3.635 6.518 1.715 9.404 5.238z" style="fill:#1a1714"/><path d="M31.597 56.197c2.128-.375 3.02-1.526 3.156-2.022-3.366-3.582-7.62-1.418-9.48-5.318-1.645 4.043 1.058 8.269 6.324 7.34z" style="fill:#382e26"/><path d="M31.597 56.197c1.895-.334 3.008-1.323 3.156-2.022-1.353-2.31-7.663-1.274-9.463-4.343.673 2.311 2.817 3.554 2.817 3.554s-1.87-.789-2.976-2.172c.544 2.17 2.5 3.13 2.5 3.13s-1.754-.809-2.49-1.968c.752 2.481 2.37 4.542 6.456 3.821z" style="fill:#473e35"/><path d="M26.654 54.45c2.28 2.65 5.916 1.204 5.916 1.204s-3.17.39-5.916-1.204z" style="fill:#574f45"/><path d="M26.176 52.634c3.356 4.278 7.801 1.9 7.801 1.9s-4.053.877-7.801-1.9zm7.42 1.297c-2.77-.505-6.06-1.715-6.06-1.715s2.232 2.338 6.06 1.715z" style="fill:#574f45"/><path d="M34.753 54.175c2.467-1.04 2.531-5.526.28-7.037.11 2.015.101 3.323-.974 4.89 0 0 .13 1.186.694 2.147z" style="fill:#382e26"/><path d="M34.146 52.168s1.413-1.863.887-5.03c.263 3.183-.996 4.863-.996 4.863l.11.167z" style="fill:#1a1714"/><path d="M34.711 54.09s2.803-1.544 1.229-5.5c.039.335.048.649.038.948a5.398 5.398 0 0 0-.566-1.642c.246 2.898-1.164 4.582-1.164 4.582l.463 1.613z" style="fill:#473e35"/><path d="M35.816 49.615c-.005 2.2-1.45 3.904-1.45 3.904s2.326-.57 1.45-3.904z" style="fill:#574f45"/><path d="M34.753 54.175c.14-3.304-3.33-3.335-4.754-3.084 2.871 1.322 4.754 3.084 4.754 3.084z" style="fill:#382e26"/><path d="M34.738 53.594c-.389-1.81-1.582-2.771-4.74-2.503 2.403-.592 4.728.25 4.74 2.503z" style="fill:#1a1714"/><path d="M34.753 54.175s-.115-2.932-4.754-3.084c2.8 1.468 3.44 2.487 4.754 3.084z" style="fill:#473e35"/><path d="M31.661 51.657c.88.376 2.48 2.01 2.48 2.01s-.587-1.876-2.48-2.01z" style="fill:#574f45"/></svg>