<svg xmlns="http://www.w3.org/2000/svg" xml:space="preserve" viewBox="0 0 64 64"><path fill="#6E8189" d="M58.955 38.929C61.874 23.004 40.998 2.125 25.073 5.044c15.281-.378 34.263 18.604 33.882 33.885z"/><path fill="#6E8189" d="M60.793 29.599C63.066 17.196 46.806.932 34.402 3.208c11.903-.296 26.687 14.49 26.391 26.391z"/><path fill="#6E8189" d="M61.85 20.586C63.438 11.921 52.079.563 43.414 2.149c8.315-.206 18.643 10.122 18.436 18.437z"/><path fill="#018BC9" d="M7.379 13.51c-20.471 20.469 22.643 63.582 43.112 43.11C70.961 36.151 27.849-6.962 7.379 13.51z"/><path fill="#006DAE" d="M11.868 10.187c-.512.416-1.014.857-1.502 1.346-20.471 20.471 21.632 62.573 42.102 42.102.487-.487.929-.99 1.347-1.501a18.51 18.51 0 0 1-3.323 4.486C30.022 77.092-13.091 33.979 7.379 13.51a18.531 18.531 0 0 1 4.489-3.323z"/><path fill="#75D6FF" d="M23.427 52.468C11.372 44.564 3.043 28.581 7.598 18.15c-3.209 12.366 6.803 27.885 15.829 34.318z"/><path fill="#006DAE" d="M47.012 46.104c-2.123 2.123-4.361 3.167-7.338 3.369-3.468.235-3.242 2.059 0 2.041 3.092-.018 5.993-1.286 8.42-3.712C62.695 33.201 29.705 1.11 15.102 15.711c-3.728 3.729-4.512 8.214-3.566 12.438 1.992 8.894 6.897 10.971 4.621 4.983-2.939-7.737-1.68-12.724 1.74-16.145C31.225 3.66 60.342 32.776 47.012 46.104z"/><path fill="#75D6FF" d="M30.593 46.226c-10.075-5.717-18.402-18.138-12.872-27.002-4.576 10.377 4.438 21.328 12.872 27.002zm3.557-29.898c7.609 4.914 16.843 15.753 14.928 24.268 2.92-7.236-6.234-19.92-14.928-24.268z"/></svg>