<svg xmlns="http://www.w3.org/2000/svg" xml:space="preserve" viewBox="0 0 64 64"><path fill="#C5D7E8" d="M11.462 56.07c1.428-.956 2.092-1.894 3.346-6.407 1.994-7.168.68-8.078.68-8.078l4.621 1.193s-1.606.157-3.602 7.322c-1.253 4.515-1.171 5.646-.421 7.16 2.654.943 4.777 2.149 4.584 2.849-.256.911-3.738.8-7.789-.246-4.046-1.042-7.122-2.63-6.866-3.539.196-.698 2.659-.725 5.447-.254z"/><path fill="#E6EBEF" d="M13.341 59.396c4.996 1.29-6.807-2.384-3.743-2.866 2.503-.396-2.509-.585-2.646-.078-.156.564 2.268 1.875 6.389 2.944z" opacity=".3"/><path fill="#C5D7E8" d="M19.316 11.921c1.941-1.197 11.803 1.348 12.864 3.322.42.771-2.448 27.8-14.707 28.108-10.456-6.18 1.08-30.965 1.843-31.43z"/><path fill="#E6EBEF" d="M31.536 15.363c-.755-1.438-4.191-2.632-5.455-2.972-1.262-.311-4.866-.94-6.274-.05-.237.17-1.772 3.645-3.235 7.769l14.672-1.366c.229-1.808.411-3.116.292-3.381z"/><linearGradient id="a" x1="-61.223" x2="-61.223" y1="139.341" y2="113.76" gradientTransform="rotate(14.999 349.432 391.885)" gradientUnits="userSpaceOnUse"><stop offset="0" style="stop-color:#ffc847"/><stop offset=".056" style="stop-color:#ffcb4c"/><stop offset=".397" style="stop-color:#ffdb62"/><stop offset=".719" style="stop-color:#ffe570"/><stop offset="1" style="stop-color:#ffe875"/></linearGradient><path fill="url(#a)" d="M31.246 18.695s-3.302.857-14.65 1.328c-2.997 9.111-4.412 20.047 1.344 21.589 6.673 1.789 11.763-12.038 13.306-22.917z"/><path fill="#93B0C0" d="M15.294 40.698c.063-.25 1.022.838 2.756 1.386 1.161.369 1.834.02 1.748.36-.036.148-1.566.651-2.241.492-.712-.164-2.362-1.84-2.263-2.238z" opacity=".3"/><path fill="#FFE8BB" d="M30.916 20.773c-6.665-.817-9.95 4.571-14.991 1.428.498-1.638 1.092-3.322 1.092-3.322 4.288 1.895 7.193-1.804 14.466-2.05-.001 0-.118 1.513-.567 3.944z"/><path fill="#C5D7E8" d="M19.177 12.119c-.286 1.021 2.398 2.599 5.998 3.528 3.595.929 6.739.854 7.023-.162.203-.726-2.426-2.609-6-3.529-3.621-.935-6.823-.561-7.021.163z"/><path fill="#E6EBEF" d="M19.821 12.306c-.158.566 2.288 1.885 5.522 2.717 3.238.838 6.04.877 6.198.307.148-.518-2.272-2.015-5.491-2.848-3.256-.84-6.083-.701-6.229-.176z"/><path fill="#FFE8BB" d="M20.146 34.148c-.477 1.723 2.195 2.413 2.677.691.471-1.714-2.2-2.4-2.677-.691zm3.133-3.524c-.292 1.034 1.311 1.452 1.599.413.286-1.025-1.318-1.438-1.599-.413zm-1.978-2.163c-.384 1.37 1.753 1.924 2.134.547.38-1.366-1.753-1.921-2.134-.547zm3.479-2.208c-.192.684.878.963 1.066.277.191-.69-.877-.964-1.066-.277z"/><path fill="#93B0C0" d="M15.03 55.646c.684 2.001 1.435 3.074 1.251 3.052-1.807-.235-1.563-3.964-1.251-3.052z" opacity=".3"/><linearGradient id="b" x1="19.055" x2="19.055" y1="40.509" y2="13.723" gradientTransform="translate(-.367 -3.03)" gradientUnits="userSpaceOnUse"><stop offset="0" style="stop-color:#fff;stop-opacity:0"/><stop offset=".114" style="stop-color:#fff;stop-opacity:.1142"/><stop offset="1" style="stop-color:#fff"/></linearGradient><path fill="url(#b)" d="M19.498 13.95s-6.385 13.895-4.116 22.203c.358 1.312 2.042 2.143 2.047.064.034-11.224 5.051-20.807 5.051-20.807s-1.749-.346-2.982-1.46z" opacity=".7"/><path fill="#C5D7E8" d="M47.917 60.536c.742-1.518.83-2.651-.424-7.163-1.992-7.171-3.602-7.325-3.602-7.325l4.621-1.196s-1.311.912.683 8.084c1.251 4.51 1.91 5.45 3.344 6.4 2.787-.461 5.253-.438 5.446.258.252.913-2.821 2.494-6.871 3.54-4.048 1.053-7.531 1.157-7.783.25-.193-.706 1.928-1.914 4.586-2.848z"/><path fill="#E6EBEF" d="M51.269 62.506c4.997-1.289-7.129 1.219-4.725-.674 1.96-1.552-2.477.701-2.334 1.205.154.567 2.937.531 7.059-.531z" opacity=".3"/><path fill="#C5D7E8" d="M44.688 15.19c-1.942-1.195-11.803 1.345-12.863 3.323-.423.768 2.447 27.798 14.708 28.105 10.453-6.177-1.084-30.96-1.845-31.428z"/><path fill="#E6EBEF" d="M32.468 18.633c.753-1.439 4.193-2.634 5.454-2.975 1.261-.311 4.868-.939 6.275-.049.235.173 1.771 3.647 3.234 7.77L32.76 22.013c-.226-1.811-.41-3.114-.292-3.38z"/><linearGradient id="c" x1="565.367" x2="565.367" y1="-24.814" y2="-50.642" gradientTransform="scale(-1 1) rotate(14.999 -6.094 -2311.651)" gradientUnits="userSpaceOnUse"><stop offset="0" style="stop-color:#ffc847"/><stop offset=".056" style="stop-color:#ffcb4c"/><stop offset=".397" style="stop-color:#ffdb62"/><stop offset=".719" style="stop-color:#ffe570"/><stop offset="1" style="stop-color:#ffe875"/></linearGradient><path fill="url(#c)" d="M32.758 21.965s3.303.856 14.649 1.328c2.998 9.109 4.665 20.235-1.338 21.843-6.434 1.725-11.769-12.291-13.311-23.171z"/><path fill="#93B0C0" d="M48.337 44.358c-.059-.218-.868.75-2.365 1.264-1 .346-1.595.062-1.514.353.033.127 1.376.533 1.961.379.616-.159 2.016-1.653 1.918-1.996z" opacity=".3"/><path fill="#FFE8BB" d="M33.088 24.042c6.663-.818 9.95 4.568 14.993 1.429-.501-1.638-1.095-3.324-1.095-3.324-4.288 1.894-7.194-1.802-14.466-2.05.001 0 .12 1.515.568 3.945z"/><path fill="#C5D7E8" d="M44.826 15.388c.286 1.019-2.396 2.598-5.997 3.524-3.596.929-6.74.858-7.024-.159-.201-.724 2.426-2.607 5.999-3.53 3.623-.933 6.823-.558 7.022.165z"/><path fill="#E6EBEF" d="M44.182 15.574c.157.566-2.285 1.882-5.522 2.721-3.237.837-6.041.876-6.197.306-.15-.521 2.275-2.018 5.489-2.849 3.258-.844 6.084-.703 6.23-.178z"/><path fill="#FFE8BB" d="M43.859 37.418c.475 1.725-2.198 2.41-2.675.691-.474-1.713 2.195-2.401 2.675-.691zm-3.132-3.526c.288 1.035-1.311 1.455-1.602.417-.286-1.027 1.318-1.439 1.602-.417zm1.976-2.161c.382 1.37-1.754 1.923-2.135.548-.38-1.369 1.753-1.923 2.135-.548zm-3.478-2.212c.192.688-.878.966-1.067.28-.192-.69.878-.964 1.067-.28z"/><path fill="#93B0C0" d="M50.789 58.448c1.63 1.399 2.835 1.969 2.666 2.037-1.687.67-3.412-2.678-2.666-2.037z" opacity=".3"/><linearGradient id="d" x1="181.375" x2="181.375" y1="208.924" y2="181.939" gradientTransform="rotate(-30 -200.606 380.784)" gradientUnits="userSpaceOnUse"><stop offset="0" style="stop-color:#fff;stop-opacity:0"/><stop offset=".114" style="stop-color:#fff;stop-opacity:.1142"/><stop offset="1" style="stop-color:#fff"/></linearGradient><path fill="url(#d)" d="M32.969 20.112s1.676 15.111 7.949 21.211c.988.964 2.88.873 1.809-.933-5.793-9.734-6.419-20.453-6.419-20.453s-1.693.548-3.339.175z" opacity=".7"/><path fill="#0FB4D4" d="M46.538 6.109c2.985 3.348-7.802 6.924-8.037 6.661-.237-.267 5.049-10.014 8.037-6.661zM28.594.044c-4.5.818 1.608 10.105 1.965 10.04S33.097-.775 28.594.044zm9.809.725c4.326 1.46-3.164 9.759-3.502 9.643-.343-.117-.822-11.103 3.502-9.643z"/></svg>