<svg xmlns="http://www.w3.org/2000/svg" xml:space="preserve" viewBox="0 0 64 64"><linearGradient id="a" x1="6" x2="58" y1="34" y2="34" gradientUnits="userSpaceOnUse"><stop offset="0" style="stop-color:#a6b6c4"/><stop offset=".054" style="stop-color:#afc0cf"/><stop offset=".16" style="stop-color:#bccddd"/><stop offset=".287" style="stop-color:#c3d5e5"/><stop offset=".5" style="stop-color:#c5d7e8"/><stop offset=".713" style="stop-color:#c3d5e5"/><stop offset=".84" style="stop-color:#bccddd"/><stop offset=".946" style="stop-color:#afc0cf"/><stop offset="1" style="stop-color:#a6b6c4"/></linearGradient><path fill="url(#a)" d="M32 6C17.64 6 6 7.032 6 8.583l4.159 48.248C10.759 59.663 19.961 62 32 62c12.038 0 21.241-2.337 21.841-5.169L58 8.583C58 7.227 46.358 6 32 6z"/><linearGradient id="b" x1="9.878" x2="54.121" y1="50.717" y2="50.717" gradientUnits="userSpaceOnUse"><stop offset="0" style="stop-color:#e6ebef;stop-opacity:0"/><stop offset=".095" style="stop-color:#eef2f4;stop-opacity:.1907"/><stop offset=".301" style="stop-color:#fbfcfc;stop-opacity:.6022"/><stop offset=".5" style="stop-color:#fff"/><stop offset=".699" style="stop-color:#fbfcfc;stop-opacity:.6022"/><stop offset=".905" style="stop-color:#eef2f4;stop-opacity:.1907"/><stop offset="1" style="stop-color:#e6ebef;stop-opacity:0"/></linearGradient><path fill="url(#b)" d="m9.878 43.632.913 9.611c.58 2.499 9.52 4.56 21.209 4.56s20.627-2.061 21.209-4.56l.912-9.611H9.878z"/><linearGradient id="c" x1="6.783" x2="57.226" y1="21.021" y2="21.021" gradientUnits="userSpaceOnUse"><stop offset="0" style="stop-color:#e6ebef;stop-opacity:.5"/><stop offset=".5" style="stop-color:#fff"/><stop offset="1" style="stop-color:#e6ebef;stop-opacity:.5"/></linearGradient><path fill="url(#c)" d="M32 11.169c-12.483 0-22.392-.672-25.217-1.962l2.139 23.72h46.156l2.147-23.812C54.374 10.366 44.646 11.169 32 11.169z"/><linearGradient id="d" x1="6.727" x2="57.273" y1="8.455" y2="8.455" gradientUnits="userSpaceOnUse"><stop offset="0" style="stop-color:#e6ebef;stop-opacity:.5"/><stop offset=".5" style="stop-color:#fff"/><stop offset="1" style="stop-color:#e6ebef;stop-opacity:.5"/></linearGradient><path fill="url(#d)" d="M32 6.268c-17.082 0-25.273 1.181-25.273 2.316 0 1.137 11.316 2.058 25.273 2.058 13.959 0 25.273-.921 25.273-2.058 0-1.136-8.191-2.316-25.273-2.316z"/><path fill="#42759E" d="M15.135 54.302c14.421 4.278 17.237 5.123 33.73-.226-12.469 1.195-22.118 1.809-33.73.226z" opacity=".3"/><radialGradient id="e" cx="8.705" cy="47.447" r="27.188" gradientTransform="matrix(.9473 0 0 .5778 24.096 21.003)" gradientUnits="userSpaceOnUse"><stop offset="0" style="stop-color:#ffac07"/><stop offset=".153" style="stop-color:#fba807"/><stop offset=".311" style="stop-color:#f09b06"/><stop offset=".471" style="stop-color:#dd8705"/><stop offset=".634" style="stop-color:#c26a04"/><stop offset=".798" style="stop-color:#a04402"/><stop offset=".961" style="stop-color:#761701"/><stop offset="1" style="stop-color:#6b0b00"/></radialGradient><path fill="url(#e)" d="M10.02 45.853c1.069 8.946 42.89 8.946 43.957 0l1.102-12.926H8.922l1.098 12.926z"/><radialGradient id="f" cx="8.343" cy="31.939" r="24.339" gradientTransform="matrix(.9473 0 0 .1259 24.096 28.905)" gradientUnits="userSpaceOnUse"><stop offset="0" style="stop-color:#ffac07"/><stop offset=".184" style="stop-color:#fca807"/><stop offset=".374" style="stop-color:#f19b06"/><stop offset=".568" style="stop-color:#e08705"/><stop offset=".764" style="stop-color:#c86a03"/><stop offset=".96" style="stop-color:#aa4501"/><stop offset="1" style="stop-color:#a33c00"/></radialGradient><path fill="url(#f)" d="M32 30.342c-12.719 0-23.078 1.149-23.078 2.585.551 1.436 10.359 2.586 23.078 2.586s22.527-1.149 23.078-2.586c0-1.436-10.359-2.585-23.078-2.585z"/><linearGradient id="g" x1="16.421" x2="16.421" y1="49.968" y2="6.503" gradientUnits="userSpaceOnUse"><stop offset="0" style="stop-color:#fff;stop-opacity:0"/><stop offset=".114" style="stop-color:#fff;stop-opacity:.1142"/><stop offset="1" style="stop-color:#fff"/></linearGradient><path fill="url(#g)" d="M10.159 11.789s2.052 24.399 2.702 34.497c.081 1.267 9.825 5.087 9.821 3.138-.028-11.58-.723-36.75-.723-36.75s-8.863-.201-11.8-.885z" opacity=".3"/></svg>