<svg xmlns="http://www.w3.org/2000/svg" xml:space="preserve" style="enable-background:new 0 0 64 64" viewBox="0 0 64 64"><linearGradient id="a" x1="24.002" x2="42.002" y1="15.933" y2="15.933" gradientUnits="userSpaceOnUse"><stop offset="0" style="stop-color:#ff000e"/><stop offset=".728" style="stop-color:#dd0004"/><stop offset="1" style="stop-color:#cf0000"/></linearGradient><path d="M36 2 24 29.87h5L42 2z" style="fill:url(#a)"/><linearGradient id="b" x1="34.002" x2="54" y1="15.933" y2="15.933" gradientUnits="userSpaceOnUse"><stop offset="0" style="stop-color:#005687"/><stop offset=".262" style="stop-color:#0b669b"/><stop offset=".737" style="stop-color:#1c7fbb"/><stop offset="1" style="stop-color:#2289c7"/></linearGradient><path d="M48 2 34 29.87h6L54 2z" style="fill:url(#b)"/><linearGradient id="c" x1="29.002" x2="48.002" y1="15.933" y2="15.933" gradientUnits="userSpaceOnUse"><stop offset=".333" style="stop-color:#eef2f5"/><stop offset=".647" style="stop-color:#e4e8ea"/><stop offset="1" style="stop-color:#d4d7d9"/></linearGradient><path d="M42 2 29 29.87h5L48 2z" style="fill:url(#c)"/><path d="M40 27.88H24s-4 0-4 3.98v3.98h2v-3.98c0-1.99 2-1.99 2-1.99h16s2 0 2 1.99v3.98h2v-3.98c0-3.98-4-3.98-4-3.98z" style="fill:#ea8800"/><linearGradient id="d" x1="22.002" x2="40.002" y1="15.933" y2="15.933" gradientUnits="userSpaceOnUse"><stop offset="0" style="stop-color:#005687"/><stop offset=".262" style="stop-color:#0b669b"/><stop offset=".737" style="stop-color:#1c7fbb"/><stop offset="1" style="stop-color:#2289c7"/></linearGradient><path d="M28 2h-6l12 27.87h6z" style="fill:url(#d)"/><linearGradient id="e" x1="10" x2="29.002" y1="15.933" y2="15.933" gradientUnits="userSpaceOnUse"><stop offset="0" style="stop-color:#cf0000"/><stop offset=".272" style="stop-color:#dd0004"/><stop offset="1" style="stop-color:#ff000e"/></linearGradient><path d="M16 2h-6l14 27.87h5z" style="fill:url(#e)"/><radialGradient id="f" cx="25.002" cy="17.311" r="11.769" gradientTransform="matrix(1 0 0 .9952 0 -1.295)" gradientUnits="userSpaceOnUse"><stop offset=".333" style="stop-color:#eef2f5"/><stop offset=".647" style="stop-color:#e4e8ea"/><stop offset="1" style="stop-color:#d4d7d9"/></radialGradient><path d="M29 29.87h5L22 2h-6z" style="fill:url(#f)"/><ellipse cx="32" cy="46.08" rx="16" ry="15.92" style="fill:#8f4500"/><linearGradient id="g" x1="44.047" x2="44.047" y1="57.217" y2="29.352" gradientTransform="translate(-18.342 -3.68) scale(1.1429)" gradientUnits="userSpaceOnUse"><stop offset="0" style="stop-color:#f08926"/><stop offset=".409" style="stop-color:#f79f3a"/><stop offset="1" style="stop-color:#ffbb54"/></linearGradient><ellipse cx="32" cy="45.79" rx="16" ry="15.92" style="fill:url(#g)"/><path d="M32 31.05c8.01 0 14.5 6.46 14.5 14.43S40.01 59.91 32 59.91s-14.5-6.46-14.5-14.43S23.99 31.05 32 31.05z" style="fill:#8f4500"/><radialGradient id="h" cx="-1374.808" cy="3381.774" r="177.709" gradientTransform="matrix(.0577 .0574 -.1154 .1148 501.582 -263.63)" gradientUnits="userSpaceOnUse"><stop offset="0" style="stop-color:#d47b00"/><stop offset=".224" style="stop-color:#ce7600"/><stop offset=".521" style="stop-color:#bd6900"/><stop offset=".858" style="stop-color:#a25400"/><stop offset="1" style="stop-color:#944900"/></radialGradient><path d="M32 31.35c8.01 0 14.5 6.46 14.5 14.43S40.01 60.21 32 60.21s-14.5-6.46-14.5-14.43S23.99 31.35 32 31.35z" style="fill:url(#h)"/><path d="M36.93 46.87c-.5-.62-1.22-1.02-2.11-1.25.76-.26 1.39-.65 1.82-1.24.48-.64.71-1.41.71-2.32 0-.84-.22-1.58-.65-2.22-.43-.63-1.04-1.12-1.83-1.46-.79-.34-1.72-.51-2.79-.51-1.02 0-2.03.16-3.02.47-.99.31-1.53 3.5-1.53 3.5l.2.23c.66-.5 1.34-.87 2.05-1.12.71-.26 1.4-.38 2.07-.38.7 0 1.25.17 1.65.5.39.34.59.82.59 1.46 0 .66-.22 1.14-.66 1.44-.44.31-1.12.46-2.04.46l-2.05 2.42.2.23h2.24c.95 0 1.64.16 2.08.48.43.32.65.82.65 1.51 0 .73-.22 1.25-.65 1.57-.43.32-1.12.48-2.08.48-.73 0-1.46-.12-2.17-.37-.72-.25-3.41 1.09-3.41 1.09l.2.23c.63.54 1.44.96 2.44 1.28.99.31 2.03.47 3.1.47 1.78 0 3.2-.39 4.23-1.18 1.04-.79 1.56-1.86 1.56-3.23.01-1.04-.26-1.87-.8-2.54z" style="fill:#8f4500"/><path d="M36.73 46.64c-.5-.62-1.22-1.02-2.11-1.25.76-.26 1.39-.65 1.82-1.24.48-.64.71-1.41.71-2.32 0-.84-.22-1.58-.65-2.22-.43-.63-1.04-1.12-1.83-1.46-.79-.34-1.72-.51-2.79-.51-1.02 0-2.03.16-3.02.47-.99.31-1.8.74-2.43 1.28l1.1 2.45c.66-.5 1.34-.87 2.05-1.12.71-.26 1.4-.38 2.07-.38.7 0 1.25.17 1.65.5.39.34.59.82.59 1.46 0 .66-.22 1.14-.66 1.44-.44.31-1.12.46-2.04.46h-1.84v2.64h2.24c.95 0 1.64.16 2.08.48.43.32.65.82.65 1.51 0 .73-.22 1.25-.65 1.57-.43.32-1.12.48-2.08.48-.73 0-1.46-.12-2.17-.37-.72-.25-1.42-.63-2.11-1.14l-1.1 2.45c.63.54 1.44.96 2.44 1.28.99.31 2.03.47 3.1.47 1.78 0 3.2-.39 4.23-1.18 1.04-.79 1.56-1.86 1.56-3.23 0-1.01-.27-1.85-.81-2.52z" style="fill:#ffbb54"/></svg>