<svg xmlns="http://www.w3.org/2000/svg" xml:space="preserve" viewBox="0 0 64 64"><linearGradient id="a" x1="13.956" x2="43.57" y1="52.193" y2="52.193" gradientUnits="userSpaceOnUse"><stop offset="0" style="stop-color:#ff3b3b"/><stop offset=".25" style="stop-color:#fb3737"/><stop offset=".521" style="stop-color:#f02a2a"/><stop offset=".801" style="stop-color:#dd1514"/><stop offset="1" style="stop-color:#cc0100"/></linearGradient><path fill="url(#a)" d="M43.57 57.944c0 5.406-29.614 5.407-29.614 0V46.85c0-5.949 29.619-5.95 29.614 0v11.094z"/><radialGradient id="b" cx="58.574" cy="18.93" r="6.33" gradientTransform="matrix(.9827 .2897 -.8925 2.8713 10.761 -52.396)" gradientUnits="userSpaceOnUse"><stop offset="0" style="stop-color:#ff5252"/><stop offset=".21" style="stop-color:#fc4e4e"/><stop offset=".438" style="stop-color:#f44141"/><stop offset=".673" style="stop-color:#e72b2b"/><stop offset=".913" style="stop-color:#d40e0d"/><stop offset="1" style="stop-color:#cc0100"/></radialGradient><path fill="url(#b)" d="M44.944 15.093c5.773-2.797 10.769 5.871 8.494 13.038-1.874 5.908-5.503 12.759-10.382 17.549-9.478-17.549 1.888-30.587 1.888-30.587z"/><radialGradient id="c" cx="34.065" cy="14.243" r="20.519" gradientTransform="matrix(1.0267 0 0 2 -8.713 -14.243)" gradientUnits="userSpaceOnUse"><stop offset="0" style="stop-color:#ff5252"/><stop offset=".21" style="stop-color:#fc4e4e"/><stop offset=".438" style="stop-color:#f44141"/><stop offset=".673" style="stop-color:#e72b2b"/><stop offset=".913" style="stop-color:#d40e0d"/><stop offset="1" style="stop-color:#cc0100"/></radialGradient><path fill="url(#c)" d="M14.291 45.681c-2.254-2.933-9.01-31.044 1.16-40.448C19.86 1.157 36.975.068 41.714 7.14c7.54 11.249.398 10.566.007 17.597 4.36 5.127 4.303 11.563 1.336 20.944-1.2 3.793-25.184 4.658-28.766 0z"/><radialGradient id="d" cx="10.63" cy=".399" r="15.207" gradientTransform="matrix(.944 0 0 .4803 17.924 9.622)" gradientUnits="userSpaceOnUse"><stop offset="0" style="stop-color:#fff;stop-opacity:.3"/><stop offset="1" style="stop-color:#fff;stop-opacity:0"/></radialGradient><path fill="url(#d)" d="M27.957 2.509c-7.932 0-14.354 3.27-14.354 7.304 0 4.034 6.423 7.306 14.354 7.306 7.928 0 14.355-3.271 14.355-7.306.001-4.034-6.427-7.304-14.355-7.304z"/><linearGradient id="e" x1="17.159" x2="40.967" y1="54.857" y2="54.857" gradientUnits="userSpaceOnUse"><stop offset="0" style="stop-color:#f6fbff"/><stop offset=".287" style="stop-color:#f0f6fa"/><stop offset=".665" style="stop-color:#e0e7eb"/><stop offset="1" style="stop-color:#cbd4d9"/></linearGradient><path fill="url(#e)" d="M29.063 50.729c-7.116 0-11.904-1.405-11.904-1.405v9.661s4.788 1.406 11.904 1.406c7.114 0 11.903-1.406 11.903-1.406v-9.661c.001 0-4.788 1.405-11.903 1.405z"/></svg>