<svg xmlns="http://www.w3.org/2000/svg" xml:space="preserve" viewBox="0 0 64 64"><linearGradient id="a" x1="25.53" x2="25.53" y1="62" y2="2.001" gradientUnits="userSpaceOnUse"><stop offset="0" style="stop-color:#585e0f"/><stop offset="1" style="stop-color:#7d8717"/></linearGradient><path fill="url(#a)" d="M14.467 21.365c1.478 9.886 8.928 17.304 8.928 38.538 0 2.837 6.483 2.756 6.483 0 0-17.624-9.34-30.125-11.8-39.016C14.029 6.252 27.888-.507 35.937 6.735l.955-.479c-8.864-9.302-25.13-2.952-22.425 15.109z"/><path fill="#95A11A" d="M15.587 18.006C22.079 29.082 6.44 39.664 6.44 39.664s-2.795-16.791 9.147-21.658z"/><linearGradient id="b" x1="36.851" x2="55.398" y1="47.449" y2="47.449" gradientUnits="userSpaceOnUse"><stop offset="0" style="stop-color:#d62020"/><stop offset=".205" style="stop-color:#c91b1b"/><stop offset=".586" style="stop-color:#a60f0f"/><stop offset="1" style="stop-color:#7a0000"/></linearGradient><path fill="url(#b)" d="M36.892 43.654c.477-6.152 9.164 5.308 18.506 4.211-.99 6.163-19.536 9.102-18.506-4.211z"/><path fill="#A8B51D" d="M15.587 18.006C7.985 22.187 6.44 39.664 6.44 39.664s-14.598-18.955 9.147-21.658z"/><path fill="#848F17" d="M15.411 17.282C6.786 24.249 6.64 36.831 6.439 39.664c.385-2.963 2.659-16.079 9.909-21.809.218-.171-.22-1.153-.937-.573z"/><path fill="#768015" d="M16.322 10.329c-7.401.26-6.784-1.625-.902 2.729.473.347 1.497-2.746.902-2.729zm7.208 38.454c-6.611 3.215-6.862 1.254.361 2.84.581.127.172-3.098-.361-2.84zm-.612-15.088c7.362.778 6.887-1.144.698 2.787-.499.311-1.288-2.843-.698-2.787z"/><path fill="#899320" d="M35.841 6.183c5.43-3.027 6.546.007 6.546.007l-9.809 5.466s-2.165-2.45 3.263-5.473z"/><path fill="#899320" d="M33.874 9.814c11.916-9.865 16.196.215 25.151-.725-10.903 7.539-15.051-2.488-25.151.725z"/><linearGradient id="c" x1="-575.384" x2="-564.063" y1="836.767" y2="836.767" gradientTransform="rotate(150 -147.987 513.756)" gradientUnits="userSpaceOnUse"><stop offset="0" style="stop-color:#d62020"/><stop offset=".011" style="stop-color:#d41f1f"/><stop offset=".19" style="stop-color:#b31414"/><stop offset=".375" style="stop-color:#9a0b0b"/><stop offset=".567" style="stop-color:#880505"/><stop offset=".769" style="stop-color:#7d0101"/><stop offset="1" style="stop-color:#7a0000"/></linearGradient><path fill="url(#c)" d="M61.526 21.877c3.091 5.708-13.35 13.82-10.805-2.343 1.28-.269 8.825.115 10.805 2.343z"/><linearGradient id="d" x1="-567.746" x2="-553.049" y1="836.227" y2="836.227" gradientTransform="rotate(150 -147.987 513.756)" gradientUnits="userSpaceOnUse"><stop offset="0" style="stop-color:#d62020"/><stop offset=".011" style="stop-color:#d41f1f"/><stop offset=".19" style="stop-color:#b31414"/><stop offset=".375" style="stop-color:#9a0b0b"/><stop offset=".567" style="stop-color:#880505"/><stop offset=".769" style="stop-color:#7d0101"/><stop offset="1" style="stop-color:#7a0000"/></linearGradient><path fill="url(#d)" d="M51.678 33.746c1.7-.946 11.71-7.822-6.202-11.665-11.608 14.385 4.21 12.774 6.202 11.665z"/><linearGradient id="e" x1="-560.751" x2="-547.852" y1="840.769" y2="840.769" gradientTransform="rotate(150 -147.987 513.756)" gradientUnits="userSpaceOnUse"><stop offset="0" style="stop-color:#7a0000"/><stop offset=".231" style="stop-color:#7d0101"/><stop offset=".433" style="stop-color:#880505"/><stop offset=".625" style="stop-color:#9a0b0b"/><stop offset=".81" style="stop-color:#b31414"/><stop offset=".989" style="stop-color:#d41f1f"/><stop offset="1" style="stop-color:#d62020"/></linearGradient><path fill="url(#e)" d="M38.48 36.166c4.714 3.088 22.739-9.795-4.993-15.159 5.19 4.184.681 12.337 4.993 15.159z"/><linearGradient id="f" x1="-940.525" x2="-953.329" y1="816.073" y2="808.736" gradientTransform="matrix(-.5394 .3115 -.5434 -.9413 -22.44 1085.696)" gradientUnits="userSpaceOnUse"><stop offset="0" style="stop-color:#d62020"/><stop offset=".414" style="stop-color:#a11"/><stop offset=".795" style="stop-color:#870505"/><stop offset="1" style="stop-color:#7a0000"/></linearGradient><path fill="url(#f)" d="M50.261 31.922c1.06-.59 7.024-5.325-7.011-12.529-5.582 11.715 5.771 13.221 7.011 12.529z"/><linearGradient id="g" x1="-561.348" x2="-572.235" y1="847.253" y2="836.365" gradientTransform="rotate(150 -147.987 513.756)" gradientUnits="userSpaceOnUse"><stop offset="0" style="stop-color:#7a0000"/><stop offset=".231" style="stop-color:#7d0101"/><stop offset=".433" style="stop-color:#880505"/><stop offset=".625" style="stop-color:#9a0b0b"/><stop offset=".81" style="stop-color:#b31414"/><stop offset=".989" style="stop-color:#d41f1f"/><stop offset="1" style="stop-color:#d62020"/></linearGradient><path fill="url(#g)" d="M57.162 25.756c-.017 1.137-12.393 8.823-12.091-14.347.787 7.749 12.179 8.244 12.091 14.347z"/><linearGradient id="h" x1="727.311" x2="736.03" y1="841.031" y2="841.031" gradientTransform="scale(1 -1) rotate(30 2004.48 -879.088)" gradientUnits="userSpaceOnUse"><stop offset="0" style="stop-color:#7a0000"/><stop offset=".231" style="stop-color:#7d0101"/><stop offset=".433" style="stop-color:#880505"/><stop offset=".625" style="stop-color:#9a0b0b"/><stop offset=".81" style="stop-color:#b31414"/><stop offset=".989" style="stop-color:#d41f1f"/><stop offset="1" style="stop-color:#d62020"/></linearGradient><path fill="url(#h)" d="M44.44 33.933c4.908-3.922 3.176-12.165-5.078-15.957-.246 10.864 1.544 18.782 5.078 15.957z"/><linearGradient id="i" x1="-563.218" x2="-557.874" y1="839.484" y2="839.484" gradientTransform="rotate(150 -147.987 513.756)" gradientUnits="userSpaceOnUse"><stop offset="0" style="stop-color:#7a0000"/><stop offset=".231" style="stop-color:#7d0101"/><stop offset=".433" style="stop-color:#880505"/><stop offset=".625" style="stop-color:#9a0b0b"/><stop offset=".81" style="stop-color:#b31414"/><stop offset=".989" style="stop-color:#d41f1f"/><stop offset="1" style="stop-color:#d62020"/></linearGradient><path fill="url(#i)" d="M46.6 30.194c.915.383 8.099-6.105-3.428-8.003 2.832 2.28.836 6.919 3.428 8.003z"/><linearGradient id="j" x1="-81.358" x2="-73.813" y1="-6.805" y2="-6.805" gradientTransform="rotate(14.999 -128.985 488.792)" gradientUnits="userSpaceOnUse"><stop offset="0" style="stop-color:#d62020"/><stop offset=".011" style="stop-color:#d41f1f"/><stop offset=".19" style="stop-color:#b31414"/><stop offset=".375" style="stop-color:#9a0b0b"/><stop offset=".567" style="stop-color:#880505"/><stop offset=".769" style="stop-color:#7d0101"/><stop offset="1" style="stop-color:#7a0000"/></linearGradient><path fill="url(#j)" d="M52.128 26.003c-.12 1.006-10.02 3.909-5.75-7.219.663 3.689 6.092 4.375 5.75 7.219z"/><linearGradient id="k" x1="-567.788" x2="-557.7" y1="839.565" y2="839.565" gradientTransform="rotate(150 -147.987 513.756)" gradientUnits="userSpaceOnUse"><stop offset="0" style="stop-color:#d62020"/><stop offset=".011" style="stop-color:#d41f1f"/><stop offset=".19" style="stop-color:#b31414"/><stop offset=".375" style="stop-color:#9a0b0b"/><stop offset=".567" style="stop-color:#880505"/><stop offset=".769" style="stop-color:#7d0101"/><stop offset="1" style="stop-color:#7a0000"/></linearGradient><path fill="url(#k)" d="M46.6 30.194c-2.989-3.429 16.64-13.554-3.592-7.913 2.829 2.282.505 6.795 3.592 7.913z"/><linearGradient id="l" x1="726.905" x2="742.709" y1="841.432" y2="841.432" gradientTransform="scale(1 -1) rotate(30 2004.48 -879.088)" gradientUnits="userSpaceOnUse"><stop offset="0" style="stop-color:#d62020"/><stop offset=".011" style="stop-color:#d41f1f"/><stop offset=".19" style="stop-color:#b31414"/><stop offset=".375" style="stop-color:#9a0b0b"/><stop offset=".567" style="stop-color:#880505"/><stop offset=".769" style="stop-color:#7d0101"/><stop offset="1" style="stop-color:#7a0000"/></linearGradient><path fill="url(#l)" d="M42.874 34.494c-6.104-6.11 23.049-18.134-2.617-17.568-.244 10.864-1.516 16.656 2.617 17.568z"/><linearGradient id="m" x1="-571.004" x2="-547.831" y1="839.301" y2="839.301" gradientTransform="rotate(150 -147.987 513.756)" gradientUnits="userSpaceOnUse"><stop offset="0" style="stop-color:#7a0000"/><stop offset=".231" style="stop-color:#7d0101"/><stop offset=".433" style="stop-color:#880505"/><stop offset=".625" style="stop-color:#9a0b0b"/><stop offset=".81" style="stop-color:#b31414"/><stop offset=".989" style="stop-color:#d41f1f"/><stop offset="1" style="stop-color:#d62020"/></linearGradient><path fill="url(#m)" d="M57.162 25.756c-.442-7.315-18.658-.729-20.628 7.939 1.424-17.295 21.709-18.961 20.628-7.939z"/><linearGradient id="n" x1="-565.082" x2="-547.381" y1="842.019" y2="842.019" gradientTransform="rotate(150 -147.987 513.756)" gradientUnits="userSpaceOnUse"><stop offset="0" style="stop-color:#7a0000"/><stop offset=".231" style="stop-color:#7d0101"/><stop offset=".433" style="stop-color:#880505"/><stop offset=".625" style="stop-color:#9a0b0b"/><stop offset=".81" style="stop-color:#b31414"/><stop offset=".989" style="stop-color:#d41f1f"/><stop offset="1" style="stop-color:#d62020"/></linearGradient><path fill="url(#n)" d="M47.969 19c-.573 6.027-16.323 12.146-9.208 17.325-6.104-2.88-1.483-10.711-5.553-15.293 2.432-3.009 11.336-4.16 14.761-2.032z"/><linearGradient id="o" x1="-639.932" x2="-618.376" y1="909.068" y2="909.068" gradientTransform="matrix(-.7786 .4496 -.4418 -.7653 -47.255 993.814)" gradientUnits="userSpaceOnUse"><stop offset="0" style="stop-color:#d62020"/><stop offset=".339" style="stop-color:#ba1616"/><stop offset="1" style="stop-color:#7a0000"/></linearGradient><path fill="url(#o)" d="M52.945 16.59c.05 1.334-4.231 7.941-18.579 5.387-9.326-6.947 6.057-27.641 18.579-5.387z"/><linearGradient id="p" x1="-549.6" x2="-570.612" y1="845.949" y2="845.949" gradientTransform="rotate(150 -147.987 513.756)" gradientUnits="userSpaceOnUse"><stop offset="0" style="stop-color:#d62020"/><stop offset=".28" style="stop-color:#b21414"/><stop offset=".574" style="stop-color:#940909"/><stop offset=".825" style="stop-color:#810202"/><stop offset="1" style="stop-color:#7a0000"/></linearGradient><path fill="url(#p)" d="M52.945 16.59c1.165 1.169-4.41 9.362-20.811 5.949.938-5.619 12.586-.675 15.623-2.239 2.316-1.195 4.433-2.733 5.188-3.71z"/><linearGradient id="q" x1="-575.652" x2="-560.393" y1="846.572" y2="846.572" gradientTransform="rotate(150 -147.987 513.756)" gradientUnits="userSpaceOnUse"><stop offset="0" style="stop-color:#d62020"/><stop offset=".205" style="stop-color:#c91b1b"/><stop offset=".586" style="stop-color:#a60f0f"/><stop offset="1" style="stop-color:#7a0000"/></linearGradient><path fill="url(#q)" d="M61.909 23.561c.906-3.02-5.234-6.723-7.49-9.703-3.375-4.464-10.363-10.207-17.527-6.434 7.339 22.91 20.943 9.221 25.017 16.137z"/><path fill="#A8B51D" d="M38.025 6.912c-7.021.822-15.138 8.316-11.476 15.844 1.943-7.268 9.608-11.338 11.476-15.844z"/></svg>