<svg xmlns="http://www.w3.org/2000/svg" xml:space="preserve" style="enable-background:new 0 0 64 64" viewBox="0 0 64 64"><radialGradient id="a" cx="32" cy="57.581" r="27.09" gradientTransform="matrix(1 0 0 1.9848 0 -58.712)" gradientUnits="userSpaceOnUse"><stop offset="0" style="stop-color:#bccad6"/><stop offset=".282" style="stop-color:#b9c7d3"/><stop offset=".482" style="stop-color:#b0beca"/><stop offset=".656" style="stop-color:#a1aebb"/><stop offset=".816" style="stop-color:#8b98a5"/><stop offset=".964" style="stop-color:#6f7c8a"/><stop offset="1" style="stop-color:#677482"/></radialGradient><path d="M5 49.61v3.59s2.9 8.35 27 8.35 27-8.35 27-8.35v-3.59H5z" style="fill:url(#a)"/><path d="M32 39.39c-14.91 0-27 4.57-27 10.21 0 5.64 12.09 10.21 27 10.21s27-4.57 27-10.21c0-5.63-12.09-10.21-27-10.21z" style="fill:#e6ebef"/><radialGradient id="b" cx="32" cy="44.468" r="26.318" fx="25.28" fy="44.594" gradientTransform="matrix(1 0 0 2 0 -44.468)" gradientUnits="userSpaceOnUse"><stop offset="0" style="stop-color:red"/><stop offset=".12" style="stop-color:#fa0000"/><stop offset=".273" style="stop-color:#ea0000"/><stop offset=".443" style="stop-color:#d00000"/><stop offset=".625" style="stop-color:#ac0000"/><stop offset=".815" style="stop-color:#7e0100"/><stop offset="1" style="stop-color:#4a0100"/></radialGradient><path d="M7 31.07v19.4s2.68 7.4 25 7.4c22.31 0 25-7.4 25-7.4v-19.4H7z" style="fill:url(#b)"/><linearGradient id="c" x1="38.455" x2="42.47" y1="60.898" y2="60.898" gradientUnits="userSpaceOnUse"><stop offset="0" style="stop-color:#bccad6"/><stop offset="1" style="stop-color:#677482"/></linearGradient><path d="M38.45 59.8v1.34c1.3 1.11 4.02 1.18 4.02.03v-1.19c-2.41.2-4.02-.18-4.02-.18z" style="fill:url(#c)"/><path d="M42.32 59.4s.15.21.15.58c0 1.27-2.66.86-4.02-.18l3.87-.4z" style="fill:#e6ebef"/><linearGradient id="d" x1="21.53" x2="25.545" y1="60.898" y2="60.898" gradientUnits="userSpaceOnUse"><stop offset="0" style="stop-color:#bccad6"/><stop offset="1" style="stop-color:#677482"/></linearGradient><path d="M25.55 59.8v1.34c-1.3 1.11-4.02 1.18-4.02.03v-1.19c2.41.2 4.02-.18 4.02-.18z" style="fill:url(#d)"/><path d="M21.68 59.4s-.15.21-.15.58c0 1.27 2.66.86 4.02-.18l-3.87-.4z" style="fill:#e6ebef"/><linearGradient id="e" x1="52.92" x2="56.746" y1="56.53" y2="56.53" gradientUnits="userSpaceOnUse"><stop offset="0" style="stop-color:#bccad6"/><stop offset="1" style="stop-color:#677482"/></linearGradient><path d="M52.92 56.42v1.17c1.65.55 3.83-.04 3.83-1.04v-1.29c-2.13 1.13-3.83 1.16-3.83 1.16z" style="fill:url(#e)"/><path d="M56.32 54.55s.22.14.37.47c.5 1.16-2.1 1.82-3.76 1.4 1.9-.79 3.39-1.87 3.39-1.87z" style="fill:#e6ebef"/><linearGradient id="f" x1="702.094" x2="705.92" y1="56.53" y2="56.53" gradientTransform="matrix(-1 0 0 1 713.173 0)" gradientUnits="userSpaceOnUse"><stop offset="0" style="stop-color:#677482"/><stop offset="1" style="stop-color:#bccad6"/></linearGradient><path d="M11.08 56.42v1.17c-1.65.55-3.83-.04-3.83-1.04v-1.29c2.13 1.13 3.83 1.16 3.83 1.16z" style="fill:url(#f)"/><path d="M7.68 54.55s-.22.14-.37.47c-.5 1.16 2.1 1.82 3.76 1.4-1.9-.79-3.39-1.87-3.39-1.87z" style="fill:#e6ebef"/><linearGradient id="g" x1="40.625" x2="41.625" y1="48.985" y2="48.985" gradientUnits="userSpaceOnUse"><stop offset="0" style="stop-color:#bccad6"/><stop offset="1" style="stop-color:#677482"/></linearGradient><path d="M40.62 37.66v22.42c0 .3 1 .3 1 0V37.66h-1z" style="fill:url(#g)"/><linearGradient id="h" x1="721.375" x2="722.375" y1="48.985" y2="48.985" gradientTransform="matrix(-1 0 0 1 744.75 0)" gradientUnits="userSpaceOnUse"><stop offset="0" style="stop-color:#677482"/><stop offset="1" style="stop-color:#bccad6"/></linearGradient><path d="M23.37 37.66v22.42c0 .3-1 .3-1 0V37.66h1z" style="fill:url(#h)"/><linearGradient id="i" x1="55" x2="56" y1="44.762" y2="44.762" gradientUnits="userSpaceOnUse"><stop offset="0" style="stop-color:#bccad6"/><stop offset="1" style="stop-color:#677482"/></linearGradient><path d="M55 33.58v22.14c0 .3 1 .3 1 0V33.58h-1z" style="fill:url(#i)"/><linearGradient id="j" x1="8" x2="9" y1="44.762" y2="44.762" gradientUnits="userSpaceOnUse"><stop offset="0" style="stop-color:#bccad6"/><stop offset="1" style="stop-color:#677482"/></linearGradient><path d="M8 33.58v22.14c0 .3 1 .3 1 0V33.58H8z" style="fill:url(#j)"/><radialGradient id="k" cx="32" cy="36.917" r="28.188" gradientTransform="matrix(1 0 0 .9924 0 -1.568)" gradientUnits="userSpaceOnUse"><stop offset="0" style="stop-color:#bccad6"/><stop offset=".282" style="stop-color:#b9c7d3"/><stop offset=".482" style="stop-color:#b0beca"/><stop offset=".656" style="stop-color:#a1aebb"/><stop offset=".816" style="stop-color:#8b98a5"/><stop offset=".964" style="stop-color:#6f7c8a"/><stop offset="1" style="stop-color:#677482"/></radialGradient><path d="M4 29.87v2.29s3.01 8.11 28 8.11c24.99 0 28-8.11 28-8.11v-2.29H4z" style="fill:url(#k)"/><path d="M32 20.21c-15.47 0-28 4.32-28 9.66 0 5.33 12.53 9.47 28 9.47 15.46 0 28-4.14 28-9.47 0-5.34-12.54-9.66-28-9.66z" style="fill:#e6ebef"/><radialGradient id="l" cx="32" cy="33.902" r="26.897" gradientTransform="matrix(1 0 0 .9924 0 -1.568)" gradientUnits="userSpaceOnUse"><stop offset="0" style="stop-color:#bccad6"/><stop offset=".282" style="stop-color:#b9c7d3"/><stop offset=".482" style="stop-color:#b0beca"/><stop offset=".656" style="stop-color:#a1aebb"/><stop offset=".816" style="stop-color:#8b98a5"/><stop offset=".964" style="stop-color:#6f7c8a"/><stop offset="1" style="stop-color:#677482"/></radialGradient><path d="M5 26.11v3.59s2.9 8.35 27 8.35 27-8.35 27-8.35v-3.59H5z" style="fill:url(#l)"/><path d="M32 15.89c-14.91 0-27 4.57-27 10.21 0 5.64 12.09 10.21 27 10.21s27-4.57 27-10.21c0-5.63-12.09-10.21-27-10.21z" style="fill:#e6ebef"/><radialGradient id="m" cx="32" cy="23.467" r="25.272" gradientTransform="matrix(1 0 0 .9924 0 -1.568)" gradientUnits="userSpaceOnUse"><stop offset="0" style="stop-color:#bccad6"/><stop offset=".282" style="stop-color:#b9c7d3"/><stop offset=".482" style="stop-color:#b0beca"/><stop offset=".656" style="stop-color:#a1aebb"/><stop offset=".816" style="stop-color:#8b98a5"/><stop offset=".964" style="stop-color:#6f7c8a"/><stop offset="1" style="stop-color:#677482"/></radialGradient><path d="M32 18.65c13.07 0 23.81 3.46 25.07 7.9.08-.29.13-.58.13-.88 0-4.85-11.28-8.78-25.2-8.78S6.8 20.82 6.8 25.67c0 .3.04.59.13.88 1.26-4.44 12-7.9 25.07-7.9z" style="fill:url(#m)"/><path d="M32 34.45c13.07 0 23.81-3.46 25.07-7.9-1.26-4.44-12.01-7.9-25.07-7.9-13.07 0-23.81 3.46-25.07 7.9 1.26 4.43 12 7.9 25.07 7.9z" style="fill:#fff"/><linearGradient id="n" x1="143.315" x2="145.295" y1="217.728" y2="217.728" gradientTransform="rotate(134.999 121.885 90.16)" gradientUnits="userSpaceOnUse"><stop offset="0" style="stop-color:#fdd674"/><stop offset="1" style="stop-color:#e6b53c"/></linearGradient><path d="M2.23 3.61c-.79-.78.6-2.17 1.39-1.38 12.94 12.84 26.32 26.42 26.32 26.42l-1.08 1.07c0 .01-13.69-13.26-26.63-26.11z" style="fill:url(#n)"/><linearGradient id="o" x1="37.13" x2="35.027" y1="30.652" y2="32.756" gradientTransform="translate(-6.382 -2.211)" gradientUnits="userSpaceOnUse"><stop offset="0" style="stop-color:#fdd674"/><stop offset="1" style="stop-color:#e6b53c"/></linearGradient><path d="M28.25 30.15c-1.54-1.53.58-3.62 2.11-2.1 2.59 2.57.47 4.66-2.11 2.1z" style="fill:url(#o)"/><path d="M14.13 13.19c.24.24.23.62-.01.86-.24.24-.63.23-.87-.01a.595.595 0 0 1 .01-.86c.25-.24.63-.23.87.01zm.15-.15a.83.83 0 0 0-1.16-.01c-.32.31-.33.83-.01 1.15.32.32.84.32 1.16.01.32-.31.33-.83.01-1.15z" style="fill:#302c3b"/><path d="M13.75 13.78c-.02-.02-.02-.04 0-.06l.06-.06c.02-.02.04-.02.06 0l.19.19c.02.02.02.04 0 .06l-.03.03c-.19.18-.48.18-.67-.01a.46.46 0 0 1-.13-.33c0-.03.01-.04.04-.04h.12c.03 0 .04.01.04.04 0 .07.03.14.07.19.09.08.21.1.31.05l-.06-.06zm1.48.21v.22c0 .01-.01.02-.01.02H15c-.01 0-.02-.01-.02-.02v-.22c0-.01.01-.02.02-.02h.22c0 .01.01.01.01.02zm1.32 1.94c.16.16.15.42-.02.58-.17.17-.44.17-.59.01a.33.33 0 0 1-.1-.3l-.29.28c-.01.02-.04.02-.05 0l-.07-.07c-.02-.02-.02-.04 0-.05l.76-.74c.02-.02.04-.02.05 0l.07.07c.02.02.02.04 0 .05l-.06.05c.1 0 .21.03.3.12zm-.52.46c.1.1.26.11.37 0 .11-.1.11-.26.01-.36-.1-.1-.26-.11-.37 0-.11.1-.11.26-.01.36zm.3.51c-.02-.02-.02-.03 0-.05l.53-.51c.02-.02.04-.02.05 0l.07.07c.02.02.02.03 0 .05l-.53.51c-.02.02-.04.02-.05 0l-.07-.07zm.67.6c-.01.03-.03.03-.05.02l-.08-.08c-.01-.01-.02-.03-.01-.05l.07-.28-.29.06c-.02 0-.04 0-.05-.01l-.07-.08c-.02-.02-.02-.04.01-.05l.44-.09.09-.4c.01-.03.03-.03.05-.01l.08.07c.01.01.02.03.01.05l-.06.26.26-.05c.02 0 .03 0 .05.01l.08.08c.02.02.01.04-.01.05l-.41.08-.11.42zm.87-.24c.17.17.14.42-.03.59l-.03.03c-.02.01-.04.01-.05 0l-.43-.43c-.08.11-.05.23.03.32.05.06.12.08.18.07.02 0 .03 0 .05.02l.07.07c.02.02.02.04-.01.05-.14.05-.29.01-.4-.11-.18-.19-.17-.43 0-.6.19-.18.44-.18.62-.01zm-.43.08.33.34c.08-.11.06-.22-.02-.3-.09-.1-.21-.11-.31-.04zm.21.88c-.02-.02-.02-.04 0-.05l.79-.76c.02-.02.03-.02.05 0l.07.07c.02.02.02.03 0 .05l-.79.76c-.02.02-.04.02-.05 0l-.07-.07zm.73-.09c-.12.11.29.35.06.57-.12.11-.28.07-.41-.05-.12-.12-.15-.27-.06-.39.02-.02.04-.02.05 0l.07.07c.02.01.01.03.01.05-.03.05-.01.11.04.16.06.06.12.08.17.04.12-.11-.29-.35-.06-.57.11-.11.28-.07.4.04.11.11.14.26.04.38-.02.02-.04.02-.05 0l-.07-.07c-.02-.01-.01-.03 0-.05.03-.05.01-.1-.03-.15-.06-.05-.12-.07-.16-.03zm-3.45-3.79c.02.02.02.03 0 .05l-.58.56c-.15.15-.3.15-.43.01-.02-.02-.02-.04 0-.05l.07-.07c.02-.02.04-.01.05 0 .06.05.12.05.19-.02l.58-.56c.02-.02.04-.02.05 0l.07.08zm-.19.98a.417.417 0 0 1 0-.6c.17-.17.44-.16.61.01.17.17.17.43 0 .6-.18.17-.45.16-.61-.01zm.12-.12c.1.1.26.1.36 0 .11-.1.11-.26 0-.36-.1-.1-.26-.1-.36 0-.1.11-.1.26 0 .36zm1.15.26c.02-.01.04 0 .05.01l.08.08c.02.02.02.04-.01.05l-1.02.48c-.02.01-.04.01-.05-.01l-.08-.08c-.02-.02-.02-.04.01-.05l.28-.13.34-.74c.01-.03.03-.03.05-.01l.08.08c.01.01.02.03.01.05l-.23.52.49-.25z" style="fill:#302c3b"/><linearGradient id="p" x1="-269.337" x2="-267.364" y1="-299.578" y2="-299.578" gradientTransform="scale(1 -1) rotate(-57.999 147.475 -439.311)" gradientUnits="userSpaceOnUse"><stop offset="0" style="stop-color:#fdd674"/><stop offset="1" style="stop-color:#e6b53c"/></linearGradient><path d="M61.63 3.78c.95-.59-.1-2.24-1.04-1.66-15.52 9.62-31.63 19.87-31.63 19.87l.81 1.29s16.34-9.87 31.86-19.5z" style="fill:url(#p)"/><linearGradient id="q" x1="694.484" x2="692.384" y1="104.61" y2="106.71" gradientTransform="scale(-1 1) rotate(-13.002 -31.065 3234.054)" gradientUnits="userSpaceOnUse"><stop offset="0" style="stop-color:#fdd674"/><stop offset="1" style="stop-color:#e6b53c"/></linearGradient><path d="M30.26 23.83c1.84-1.14.26-3.66-1.58-2.51-3.1 1.91-1.51 4.43 1.58 2.51z" style="fill:url(#q)"/><path d="M43 13.47c.29-.17.67-.09.84.2.18.29.08.66-.21.84-.29.18-.66.09-.84-.2a.617.617 0 0 1 .21-.84zm-.11-.17c-.38.23-.51.73-.27 1.12.24.38.74.5 1.12.27.38-.24.51-.73.27-1.12a.805.805 0 0 0-1.12-.27z" style="fill:#302c3b"/><path d="M43.5 13.97c-.02.01-.04.01-.06-.01l-.04-.07c-.01-.02-.01-.04.01-.06l.23-.14c.02-.01.04-.01.05.01l.02.03c.13.22.06.51-.16.64-.11.06-.24.08-.36.05-.03-.01-.04-.02-.03-.05l.03-.12c.01-.03.02-.04.05-.03.07.02.14.01.2-.03.1-.06.14-.18.12-.29l-.06.07zm.54-1.38.21.05c.01 0 .02.01.01.02l-.05.21c0 .01-.01.02-.02.01l-.21-.05c-.01 0-.01-.01-.01-.02l.05-.21c0-.01.01-.01.02-.01zm2.19-.84c.19-.12.44-.05.57.15.13.21.07.46-.12.57-.11.07-.22.07-.32.03l.21.35c.01.02.01.04-.01.05l-.09.05c-.02.01-.04.01-.05-.01l-.55-.91c-.01-.02-.01-.04.01-.05l.09-.05c.02-.01.04-.01.05.01l.04.07c.01-.1.06-.19.17-.26zm.34.6c.13-.08.16-.23.08-.35-.08-.13-.23-.16-.36-.09-.13.08-.16.23-.08.36.08.13.23.16.36.08zm.57-.17c-.02.01-.04.01-.05-.01l-.39-.63c-.01-.02-.01-.04.01-.05l.09-.05c.02-.01.04-.01.05.01l.38.63c.01.02.01.04-.01.05l-.08.05zm.74-.51c.03.01.03.03 0 .05l-.09.06c-.02.01-.03.01-.05 0l-.27-.13-.01.29c0 .02-.01.03-.02.04l-.09.05c-.02.02-.04.01-.04-.02l.01-.44-.38-.18c-.03-.01-.03-.04 0-.05l.09-.06c.02-.01.03-.01.05 0l.24.12.01-.26c0-.02.01-.03.03-.04l.09-.06c.02-.02.04 0 .04.02l-.01.42.4.19zm-.04-.9c.21-.13.45-.04.57.16.01.01.01.02.02.03.01.02 0 .04-.02.05l-.52.32c.09.1.21.1.32.04.07-.04.1-.1.11-.16 0-.02.01-.03.03-.04l.09-.05c.02-.01.04-.01.05.02.02.14-.05.28-.2.37-.22.14-.46.07-.59-.14-.13-.22-.08-.46.14-.6zm-.02.44.4-.25c-.09-.1-.21-.1-.3-.05-.11.07-.14.18-.1.3zm.91-.01c-.02.01-.04.01-.05-.01l-.57-.93c-.01-.02-.01-.04.01-.05l.09-.05c.02-.01.04-.01.05.01l.57.93c.01.02.01.04-.01.05l-.09.05zm.08-.72c.09.14.41-.2.57.07.08.14.01.29-.14.38-.14.09-.3.09-.4-.03-.01-.02-.01-.04.01-.05l.09-.05c.02-.01.04-.01.05.01.04.04.1.03.16 0 .07-.04.11-.1.08-.15-.09-.14-.41.2-.57-.07-.08-.13-.01-.29.13-.37.13-.08.29-.08.38.04.01.02.01.04-.01.05l-.09.05c-.02.01-.03.01-.05-.01-.04-.04-.1-.03-.15 0-.06.02-.1.07-.06.13zm-4.5 2.47c.02-.01.04-.01.05.01l.42.69c.11.18.08.32-.09.42-.02.01-.04.01-.05-.01l-.05-.08c-.01-.02-.01-.04.01-.05.07-.05.08-.1.03-.19l-.42-.69c-.01-.02-.01-.04.01-.05l.09-.05zm.92.42c-.2.13-.46.07-.59-.14a.425.425 0 0 1 .14-.59c.2-.13.46-.07.59.14.13.2.06.46-.14.59zm-.09-.15c.12-.07.16-.23.08-.35a.252.252 0 0 0-.35-.09c-.12.07-.16.22-.08.35.08.13.23.16.35.09zm.51-1.05c0-.02 0-.04.02-.05l.1-.06c.02-.01.04-.01.05.02l.24 1.1c.01.02 0 .04-.02.05l-.1.06c-.02.01-.04.01-.05-.02l-.07-.3-.65-.49c-.02-.02-.02-.04 0-.05l.1-.06c.02-.01.04-.01.05 0l.46.34-.13-.54z" style="fill:#302c3b"/><linearGradient id="r" x1="22.128" x2="23.622" y1="38.234" y2="38.234" gradientUnits="userSpaceOnUse"><stop offset="0" style="stop-color:#bccad6"/><stop offset="1" style="stop-color:#677482"/></linearGradient><path d="M22.13 37.84v.45c0 .45 1.49.45 1.49 0v-.45h-1.49z" style="fill:url(#r)"/><path d="M23.62 37.84c0 .49-1.49.49-1.49 0s1.49-.49 1.49 0z" style="fill:#e6ebef"/><linearGradient id="s" x1="22.375" x2="23.375" y1="37.054" y2="37.054" gradientUnits="userSpaceOnUse"><stop offset="0" style="stop-color:#677482"/><stop offset="1" style="stop-color:#bccad6"/></linearGradient><path d="M22.37 36.06v1.76c0 .3 1 .3 1 0v-1.76h-1z" style="fill:url(#s)"/><path d="M23.37 36.06c0 .33-1 .33-1 0s1-.33 1 0z" style="fill:#e6ebef"/><linearGradient id="t" x1="40.378" x2="41.872" y1="38.234" y2="38.234" gradientUnits="userSpaceOnUse"><stop offset="0" style="stop-color:#bccad6"/><stop offset="1" style="stop-color:#677482"/></linearGradient><path d="M40.38 37.84v.45c0 .45 1.49.45 1.49 0v-.45h-1.49z" style="fill:url(#t)"/><path d="M41.87 37.84c0 .49-1.49.49-1.49 0s1.49-.49 1.49 0z" style="fill:#e6ebef"/><linearGradient id="u" x1="40.625" x2="41.625" y1="37.054" y2="37.054" gradientUnits="userSpaceOnUse"><stop offset="0" style="stop-color:#bccad6"/><stop offset="1" style="stop-color:#677482"/></linearGradient><path d="M40.62 36.06v1.76c0 .3 1 .3 1 0v-1.76h-1z" style="fill:url(#u)"/><path d="M41.62 36.06c0 .33-1 .33-1 0s1-.33 1 0z" style="fill:#e6ebef"/><linearGradient id="v" x1="54.753" x2="56.247" y1="34.149" y2="34.149" gradientUnits="userSpaceOnUse"><stop offset="0" style="stop-color:#bccad6"/><stop offset="1" style="stop-color:#677482"/></linearGradient><path d="M54.75 33.76v.45c0 .45 1.49.45 1.49 0v-.45h-1.49z" style="fill:url(#v)"/><path d="M56.25 33.76c0 .49-1.49.49-1.49 0-.01-.5 1.49-.5 1.49 0z" style="fill:#e6ebef"/><linearGradient id="w" x1="55" x2="56" y1="32.969" y2="32.969" gradientUnits="userSpaceOnUse"><stop offset="0" style="stop-color:#bccad6"/><stop offset="1" style="stop-color:#677482"/></linearGradient><path d="M55 31.98v1.76c0 .3 1 .3 1 0v-1.76h-1z" style="fill:url(#w)"/><path d="M56 31.98c0 .33-1 .33-1 0s1-.33 1 0z" style="fill:#e6ebef"/><linearGradient id="x" x1="7.753" x2="9.247" y1="34.149" y2="34.149" gradientUnits="userSpaceOnUse"><stop offset="0" style="stop-color:#bccad6"/><stop offset="1" style="stop-color:#677482"/></linearGradient><path d="M7.75 33.76v.45c0 .45 1.49.45 1.49 0v-.45H7.75z" style="fill:url(#x)"/><path d="M9.25 33.76c0 .49-1.49.49-1.49 0-.01-.5 1.49-.5 1.49 0z" style="fill:#e6ebef"/><linearGradient id="y" x1="8" x2="9" y1="32.969" y2="32.969" gradientUnits="userSpaceOnUse"><stop offset="0" style="stop-color:#bccad6"/><stop offset="1" style="stop-color:#677482"/></linearGradient><path d="M8 31.98v1.76c0 .3 1 .3 1 0v-1.76H8z" style="fill:url(#y)"/><path d="M9 31.98c0 .33-1 .33-1 0s1-.33 1 0z" style="fill:#e6ebef"/></svg>