<svg xmlns="http://www.w3.org/2000/svg" xml:space="preserve" viewBox="0 0 64 64"><path fill="#FFE8BB" d="M60.235 42.077c0 9.346-12.72 16.923-28.41 16.923-15.693 0-28.411-6.815-28.411-16.923 0-20.629 56.821-20.629 56.821 0z"/><path fill="#D99025" d="M3.004 39.764c-.15 3.424 4.008 8.746 6.579 10.066 1.833.942 3.653 1.211 5.346 2.563 1.65 1.318 3.402 1.983 5.317 2.638 4.597 1.572 8.869 1.573 13.574 2.142 4.029.485 6.616-2.412 10.623-2.155 3.547.229 9.191-2.257 11.366-5.61.899-1.385 4.11-7.337 4.11-9.242 0-17.49-56.078-19.651-56.915-.402z"/><path fill="#FFE8BB" d="M3 37.087c0 9.346 12.721 16.926 28.411 16.926 15.691 0 28.41-6.818 28.41-16.926 0-20.628-56.821-20.628-56.821 0z"/><path fill="#D99025" d="M60.231 34.775c.149 3.424-4.008 8.744-6.578 10.065-1.834.939-3.653 1.211-5.346 2.563-1.65 1.32-3.402 1.983-5.317 2.637-4.597 1.574-8.87 1.575-13.575 2.142-4.028.486-6.615-2.412-10.621-2.151-3.547.227-9.193-2.259-11.367-5.612-.899-1.387-.733-3.278-1.559-4.69-.835-1.433-2.551-2.648-2.551-4.552 0-17.491 56.077-19.654 56.914-.402z"/><path fill="#FFE8BB" d="M60.235 32.098c0 9.348-12.721 16.925-28.41 16.925-15.693 0-28.411-6.818-28.411-16.925 0-20.626 56.821-20.626 56.821 0z"/><path fill="#D99025" d="M3.004 29.786c-.149 3.424 4.008 8.747 6.579 10.065 1.833.942 3.653 1.211 5.346 2.563 1.65 1.32 3.402 1.983 5.317 2.638 4.597 1.572 8.869 1.574 13.574 2.142 4.029.486 6.616-2.411 10.623-2.155 3.547.229 9.191-2.256 11.366-5.608.899-1.386 4.11-7.338 4.11-9.244 0-17.49-56.078-19.652-56.915-.401z"/><path fill="#FFE8BB" d="M3 27.109c0 9.346 12.721 16.924 28.411 16.924 15.691 0 28.41-6.816 28.41-16.924C59.821 6.481 3 6.481 3 27.109z"/><path fill="#D99025" d="M60.231 24.796c.149 3.426-4.008 8.746-6.578 10.068-1.834.938-3.653 1.209-5.346 2.56-1.65 1.321-3.402 1.984-5.317 2.641-4.597 1.57-8.87 1.572-13.575 2.14-4.028.485-6.615-2.412-10.621-2.153-3.547.228-9.193-2.258-11.367-5.609-.899-1.388-4.11-7.342-4.11-9.243 0-17.493 56.077-19.654 56.914-.404z"/><path fill="#FFE8BB" d="M60.235 22.12c0 9.345-12.721 16.923-28.41 16.923-15.693 0-28.411-6.816-28.411-16.923 0-20.629 56.821-20.629 56.821 0z"/><radialGradient id="a" cx="46.259" cy="38.565" r="29.247" gradientTransform="matrix(.9667 0 0 .6509 -12.973 -7.594)" gradientUnits="userSpaceOnUse"><stop offset="0" style="stop-color:#ffc95e"/><stop offset=".276" style="stop-color:#fdc65b"/><stop offset=".517" style="stop-color:#f6bb50"/><stop offset=".745" style="stop-color:#eaa93e"/><stop offset=".964" style="stop-color:#d99025"/></radialGradient><path fill="url(#a)" d="M3.004 19.807c-.149 3.424 4.008 8.745 6.579 10.065 1.833.942 3.653 1.211 5.346 2.564 1.65 1.319 3.402 1.982 5.317 2.637 4.597 1.573 8.869 1.573 13.574 2.142 4.029.485 6.616-2.412 10.623-2.155 3.547.23 9.191-2.256 11.366-5.61.899-1.385.733-3.277 1.56-4.691.836-1.43 2.551-2.646 2.551-4.551C59.919 2.718 3.841.557 3.004 19.807z"/><linearGradient id="b" x1="33.127" x2="33.127" y1="57.849" y2="5" gradientUnits="userSpaceOnUse"><stop offset=".442" style="stop-color:#ab5c10"/><stop offset=".758" style="stop-color:#cd7407"/><stop offset="1" style="stop-color:#ea8800"/></linearGradient><path fill="url(#b)" d="M60.645 33.861c-.316-1.157.829-2.141.118-3.776-.549-1.266.473-2.962-.402-4.058-.666-.834-.969-2.846-1.411-3.734-.705-1.413-2.124-2.628-4.575-4.092C45.839 13.118 46.196 5 33.09 5 19.945 5 5.254 11.479 5.254 15.909c0 3.011 10.589 3.289 12.911 6.168 1.425 1.771.406 5.945-1.912 9.421-.59.884-1.847 1.618-1.8 4.006.021 1.057-1.08 2.3-1.087 3.666-.007 1.354-1.264 2.566-1.488 3.985-.252 1.602.172 2.326.02 3.888-.103 1.051-.605 2.497-.798 3.865-.155 1.105-.509 5.377 2.704 6.746 1.787.762 4.798-.707 3.325-4.583-.483-1.271.454-4.051.237-5.53-.205-1.403-.934-2.156-.925-3.589.007-1.321 1.208-3.124 1.193-4.408-.021-1.718 1.654-1.42 1.484-3.131-.142-1.437 1.234-1.971 1.96-2.392C25.853 31.259 31.687 25 37.485 25c3.967 0 9.791 1.116 12.931 2.104 1.872.589 5.647 2.248 7.364 2.774 1.254.385 1.277 1.999.615 3.673-.52 1.313.924 2.692-.261 5.49-1.612 3.81 2.423.531 2.039-1.51-.36-1.924 1.084-1.435.472-3.67z" opacity=".8"/><path fill="#F5C793" d="M15.814 57.117c.75-.492 1.003-1.486.898-2.355-.042-.444-.161-.876-.297-1.298-.139-.404-.345-.86-.351-1.363-.04-.958.128-1.868.234-2.771.11-.923.21-1.766-.071-2.607-.235-.819-.732-1.656-.788-2.667-.078-1.021.351-1.936.649-2.762.159-.421.314-.839.418-1.256.134-.422.038-.759.175-1.368.146-.547.562-.924.87-1.194.327-.279.513-.549.536-.929.015-.091-.003-.193-.001-.291-.002-.155-.015-.223-.004-.376.011-.3.096-.548.213-.791.247-.478.64-.79 1.02-1.03.785-.451 1.493-.83 2.214-1.324 1.429-.951 2.81-2.009 4.223-3.016 2.802-2.004 5.753-4.062 9.115-4.712-1.651.405-3.191 1.188-4.646 2.098-1.461.904-2.855 1.932-4.233 2.988-1.376 1.059-2.748 2.133-4.192 3.11-.703.494-1.507.939-2.211 1.352-.342.219-.649.485-.813.819-.187.356-.133.615-.13 1.219-.009.562-.386 1.083-.724 1.354-.343.297-.604.549-.704.902-.091.276-.033.888-.181 1.344-.122.468-.289.899-.453 1.323-.32.855-.696 1.659-.633 2.502.031.852.477 1.628.743 2.547.065.227.119.483.15.7.032.26.038.498.028.739-.021.478-.084.938-.153 1.392-.132.908-.317 1.81-.302 2.687-.008.429.155.822.29 1.28.13.446.208.914.221 1.387.043.928-.323 1.952-1.11 2.367zm43.874-19.304c-.113-.496-.111-1.069.167-1.52.282-.429.463-.907.374-1.42-.046-.486-.322-1.003-.195-1.563.084-.532.273-1.017.315-1.511a2.65 2.65 0 0 0-.243-1.431c-.21-.514-.188-1.107-.143-1.621.048-.521.119-1.032.066-1.505a1.687 1.687 0 0 0-.211-.632c-.104-.155-.307-.409-.421-.653-.48-.966-.674-2.01-1.017-2.938-.359-.9-1.009-1.638-1.735-2.274-1.45-1.299-3.249-2.077-4.844-3.313-1.591-1.214-2.987-2.695-4.289-4.227-1.305-1.527-2.567-3.082-4.05-4.357-2.969-2.611-6.923-3.429-10.721-3.519 1.914-.043 3.847.064 5.734.523 1.883.47 3.696 1.35 5.249 2.624 1.571 1.256 2.851 2.85 4.163 4.348 1.307 1.508 2.682 2.938 4.238 4.104 1.52 1.194 3.33 2.009 4.845 3.38.751.667 1.47 1.484 1.864 2.508.362 1.004.54 2.028.949 2.914.1.223.213.365.387.633.145.256.227.546.255.828.048.568-.048 1.092-.104 1.601-.054.511-.088.997.084 1.451.201.466.308 1.064.221 1.598-.073.544-.289 1.022-.386 1.512-.142.488.095.962.128 1.505.074.544-.16 1.081-.455 1.476-.287.419-.315.973-.225 1.479zM20.237 7.854c-10.151 1.85-14.471 6.407-14.093 8.015.39 1.652 10.87 2.804 13.274 6.775-2.229-5.852-10.763-5.934-10.752-7.546.01-1.614 2.556-4.045 11.571-7.244z" opacity=".3"/><linearGradient id="c" x1="88" x2="88" y1="-1.098" y2="12.402" gradientTransform="matrix(1 0 0 -1 -56 20)" gradientUnits="userSpaceOnUse"><stop offset="0" style="stop-color:#ffe54a"/><stop offset=".16" style="stop-color:#ffe54d"/><stop offset=".298" style="stop-color:#ffe758"/><stop offset=".429" style="stop-color:#ffea6a"/><stop offset=".555" style="stop-color:#ffed83"/><stop offset=".677" style="stop-color:#fff2a3"/><stop offset=".709" style="stop-color:#fff3ad"/></linearGradient><path fill="url(#c)" d="M32 7.598c-1.997 0-7.75 2.859-10.184 4.197-.588.332-.61 3.11 0 3.355 2.409 1.675 8.187 5.947 10.184 5.947 1.789 0 7.969-4.066 10.208-5.943.543-.459.591-3.027 0-3.354C39.772 10.457 34.071 7.598 32 7.598z"/></svg>