<svg xmlns="http://www.w3.org/2000/svg" xml:space="preserve" viewBox="0 0 64 64"><linearGradient id="a" x1="440.733" x2="497.777" y1="41.119" y2="41.119" gradientTransform="rotate(-45.001 220.469 569.451)" gradientUnits="userSpaceOnUse"><stop offset="0" style="stop-color:#faaa52"/><stop offset=".042" style="stop-color:#fbb262"/><stop offset=".113" style="stop-color:#fdbd76"/><stop offset=".182" style="stop-color:#ffc383"/><stop offset=".25" style="stop-color:#ffc587"/><stop offset=".5" style="stop-color:#faaa52"/><stop offset=".75" style="stop-color:#ffc587"/><stop offset=".818" style="stop-color:#ffc383"/><stop offset=".887" style="stop-color:#fdbd76"/><stop offset=".958" style="stop-color:#fbb262"/><stop offset="1" style="stop-color:#faaa52"/></linearGradient><path fill="url(#a)" d="M1.069 37.456c-.042 1.02 1.114 1.169 1.302 1.357.427.427.219 1.488 1.136 2.14 0 0 .688.581 1.458 1.156 2.969 1.815 3.948-5.098 6.896-7.212 4.302-3.079 6.552-1.352 13.01-7.266 7.594-6.97 7.261-11.063 11.803-15.021 3.197-2.774 8.978-4.928 10.02-6.314.666-.877.281-1.596.281-1.596-1.084-.154-1.292-1.47-1.292-1.47-.708-.554-.333-1.107-1.042-1.777-12.124.544-18.572 7.344-23.978 14.466-5.334 7.029-19.094 7.756-19.594 21.537z"/><linearGradient id="b" x1="476.168" x2="524.25" y1="-17.107" y2="-17.107" gradientTransform="rotate(-45.001 307.672 571.443)" gradientUnits="userSpaceOnUse"><stop offset="0" style="stop-color:#fa7a52"/><stop offset=".236" style="stop-color:#fa7a52;stop-opacity:.7"/><stop offset=".5" style="stop-color:#fa7a52"/><stop offset=".75" style="stop-color:#fa7a52;stop-opacity:.7"/><stop offset="1" style="stop-color:#fa7a52"/></linearGradient><path fill="url(#b)" d="M30.1 12.938c-1.364 1.78-3.813 5.519-4.917 7.424-1 1.741-2.323 3.695-3.938 4.985-4.375 3.496-8.04 2.647-11.922 7.139-3.4 3.934 2.541-1.84 8.769-3.19 3.762-.816 6.244-3.588 8.101-6.505 3.136-4.921 6.083-8.928 8.563-10.887 4.813-3.798 10.988-4.921 12.218-7.197-.209-.621-1.292-1.475-1.292-1.475-2.249 2.585-10.446 2.971-15.582 9.706z"/><linearGradient id="c" x1="436.619" x2="491.39" y1="48.219" y2="48.219" gradientTransform="rotate(-45.001 208.82 568.098)" gradientUnits="userSpaceOnUse"><stop offset="0" style="stop-color:#cc5625"/><stop offset=".25" style="stop-color:#cc5625;stop-opacity:.8"/><stop offset=".5" style="stop-color:#cc5625"/><stop offset=".75" style="stop-color:#cc5625;stop-opacity:.8"/><stop offset="1" style="stop-color:#cc5625"/></linearGradient><path fill="url(#c)" d="M31.194 8.315c-4.188 3.259-6.167 6.981-7.677 9.604-1.01 1.743-3.021 3.736-4.625 5.028-4.375 3.494-7.698 2.464-11.896 6.661-2.073 2.063-3.771 6.686-5.656 8.602.208.487 1.229.482 1.448 1.702 2.385-2.252 2.354-5.984 5.698-8.935 3.031-2.682 10.729-3.975 15.594-11.6 3.135-4.922 4.782-7.52 7.271-9.482 4.813-3.797 14.437-7.146 11.739-6.642-2.647.494-8.677 2.553-11.896 5.062z"/><linearGradient id="d" x1="392.876" x2="474.822" y1="79.541" y2="79.541" gradientTransform="rotate(-45.001 157.285 557.382)" gradientUnits="userSpaceOnUse"><stop offset="0" style="stop-color:#900"/><stop offset=".04" style="stop-color:#ad1b00"/><stop offset=".094" style="stop-color:#c23800"/><stop offset=".147" style="stop-color:#d24c00"/><stop offset=".199" style="stop-color:#db5900"/><stop offset=".25" style="stop-color:#de5d00"/><stop offset=".5" style="stop-color:#900"/><stop offset=".75" style="stop-color:#de5d00"/><stop offset=".836" style="stop-color:#d75000"/><stop offset=".993" style="stop-color:#c32f00"/><stop offset="1" style="stop-color:#c22d00"/></linearGradient><path fill="url(#d)" d="M42.745.035c-2.728 1.097-5.062-.127-12.25 4.522-3.322 2.141-6.094 5.27-7.281 6.899-1.677 2.295-3.427 4.523-5.719 6.528-4.667 4.086-9.406 5.025-13.427 9.746C2.62 29.433-.151 32.934.005 35.167c.063.945.688 1.031 1.063 2.288 0 0 1.385-4.784 5.021-8.891 3.646-4.109 7.458-4.193 9.573-5.522 4.198-2.638 6.552-5.109 7.906-7.541 2.729-4.896 5.104-7.275 9.333-9.599C36.6 3.873 42.526 1.95 44.64 1.453 44.245.965 43.381-.22 42.745.035z"/><linearGradient id="e" x1="431.156" x2="501.433" y1="61.299" y2="61.299" gradientTransform="rotate(-45.001 220.469 569.451)" gradientUnits="userSpaceOnUse"><stop offset="0" style="stop-color:#faaa52"/><stop offset=".042" style="stop-color:#fbb262"/><stop offset=".113" style="stop-color:#fdbd76"/><stop offset=".182" style="stop-color:#ffc383"/><stop offset=".25" style="stop-color:#ffc587"/><stop offset=".5" style="stop-color:#faaa52"/><stop offset=".75" style="stop-color:#ffc587"/><stop offset=".818" style="stop-color:#ffc383"/><stop offset=".887" style="stop-color:#fdbd76"/><stop offset=".958" style="stop-color:#fbb262"/><stop offset="1" style="stop-color:#faaa52"/></linearGradient><path fill="url(#e)" d="M8.089 57.748c-.042 1.308 2.083.66 2.323.903.552.549-.344 2.755.833 3.595 0 0 1.052.852 2.052 1.592 2.49 1.442 4.375-7.132 8.146-9.819 5.5-3.921 8.864-1.17 17.083-8.709 9.697-8.887 9.395-15.898 15.738-20.275 3.156-2.179 8.918-3.101 9.699-5.704-.625-.847-.115-1.938-.115-1.938-.135-.676-.459-1.456-.635-2.316-.043-.215-.49-.793-.844-.999-13.532-3.004-21.168 8.299-28.052 17.394-6.79 8.976-25.675 8.608-26.228 26.276z"/><linearGradient id="f" x1="459.778" x2="527.038" y1="3.679" y2="3.679" gradientTransform="rotate(-45.001 307.672 571.443)" gradientUnits="userSpaceOnUse"><stop offset="0" style="stop-color:#fa7a52"/><stop offset=".236" style="stop-color:#fa7a52;stop-opacity:.7"/><stop offset=".5" style="stop-color:#fa7a52"/><stop offset=".75" style="stop-color:#fa7a52;stop-opacity:.7"/><stop offset="1" style="stop-color:#fa7a52"/></linearGradient><path fill="url(#f)" d="M45.625 26.619c-1.729 2.271-4.942 7.337-6.337 9.771-1.271 2.229-3.573 4.084-5.636 5.731-5.573 4.451-10.083 3.38-15.438 8.735-2.635 2.63-4.479 7.303-4.948 9.829-.823 4.438 2.771-4.668 6.74-8.168 3.875-3.42 14.021-3.663 20.187-13.408 3.989-6.292 7.552-11.908 10.719-14.404 6.146-4.837 10.188-3.662 13.053-5.374.125-.359-.115-1.939-.115-1.939-4.198 1.4-11.694.625-18.225 9.227z"/><linearGradient id="g" x1="427.691" x2="490.252" y1="66.814" y2="66.814" gradientTransform="rotate(-45.001 208.82 568.098)" gradientUnits="userSpaceOnUse"><stop offset="0" style="stop-color:#cc5625"/><stop offset=".25" style="stop-color:#cc5625;stop-opacity:.8"/><stop offset=".5" style="stop-color:#cc5625"/><stop offset=".75" style="stop-color:#cc5625;stop-opacity:.8"/><stop offset="1" style="stop-color:#cc5625"/></linearGradient><path fill="url(#g)" d="M42.162 24.696c-1.25 1.646-3.51 4.8-5.437 8.153-1.271 2.225-3.99 4.895-6.042 6.539-5.583 4.453-10.219 2.474-15.573 7.827-2.635 2.631-3.906 8.896-6.302 11.342 1.604.094 1.896-.179 1.802.999 3.052-2.87 1.927-7.104 6.188-10.863 3.875-3.419 14.542-3.521 20.72-13.268 3.978-6.287 5.357-10.265 8.54-12.755 5.454-4.268 11.731-6.23 8.934-5.619-4.576 1.002-8.771 2.306-12.83 7.645z"/><linearGradient id="h" x1="378.548" x2="479.253" y1="98.682" y2="98.682" gradientTransform="rotate(-45.001 157.285 557.382)" gradientUnits="userSpaceOnUse"><stop offset="0" style="stop-color:#900"/><stop offset=".04" style="stop-color:#ad1b00"/><stop offset=".094" style="stop-color:#c23800"/><stop offset=".147" style="stop-color:#d24c00"/><stop offset=".199" style="stop-color:#db5900"/><stop offset=".25" style="stop-color:#de5d00"/><stop offset=".5" style="stop-color:#900"/><stop offset=".75" style="stop-color:#de5d00"/><stop offset=".836" style="stop-color:#d75000"/><stop offset=".993" style="stop-color:#c32f00"/><stop offset="1" style="stop-color:#c22d00"/></linearGradient><path fill="url(#h)" d="M58.309 12.588c-1.418.415-2.084-1.582-12.657 3.495-4.542 2.186-7.363 6.818-8.874 8.897-2.135 2.932-4.448 5.976-7.771 7.911-6.865 3.999-14.25 5.232-17.896 12.722-1.24 2.556-4.615 6.332-4.406 9.193.104 1.212.885 1.329 1.385 2.941 0 0 1.115-6.727 6.375-11.365 2.927-2.574 6.979-5.44 12.531-7.077 2.031-.599 8.219-6.941 9.511-8.972 4.718-7.393 7.812-11.248 12.926-13.134 5.063-1.871 7.021-3.717 12.938-3.123-1.562-1.534-2.959-1.812-4.062-1.488z"/></svg>