<svg xmlns="http://www.w3.org/2000/svg" xml:space="preserve" style="enable-background:new 0 0 64 64" viewBox="0 0 64 64"><linearGradient id="a" x1="4.978" x2="11.797" y1="4.978" y2="11.797" gradientUnits="userSpaceOnUse"><stop offset="0" style="stop-color:#7b7b82"/><stop offset=".353" style="stop-color:#79797f"/><stop offset=".566" style="stop-color:#707077"/><stop offset=".741" style="stop-color:#636369"/><stop offset=".895" style="stop-color:#4f4f55"/><stop offset="1" style="stop-color:#3d3d42"/></linearGradient><path d="M20.064 3.53c-2.909.088-6.792-3.77-9.16-3.518C9.473.162.161 9.475.011 10.903c-.252 2.37 3.608 6.25 3.518 9.16l2.246-5.088c-1.48-.282-3.112-3.52-3.025-4.155.154-1.154 6.915-7.915 8.07-8.071.634-.085 3.872 1.548 4.155 3.027l5.088-2.246z" style="fill:url(#a)"/><linearGradient id="b" x1="52.205" x2="59.023" y1="52.203" y2="59.021" gradientUnits="userSpaceOnUse"><stop offset="0" style="stop-color:#3d3d42"/><stop offset=".105" style="stop-color:#4f4f55"/><stop offset=".259" style="stop-color:#636369"/><stop offset=".434" style="stop-color:#707077"/><stop offset=".647" style="stop-color:#79797f"/><stop offset="1" style="stop-color:#7b7b82"/></linearGradient><path d="M43.938 60.47c2.909-.088 6.79 3.77 9.159 3.518 1.428-.15 10.74-9.463 10.891-10.891.252-2.37-3.606-6.25-3.516-9.16l-2.248 5.088c1.481.282 3.114 3.52 3.027 4.155-.154 1.154-6.915 7.915-8.07 8.069-.636.087-3.874-1.546-4.156-3.025l-5.087 2.246z" style="fill:url(#b)"/><radialGradient id="c" cx="52.081" cy="40.786" r="28.813" gradientTransform="translate(-23.574 -11.527) scale(1.0667)" gradientUnits="userSpaceOnUse"><stop offset=".915" style="stop-color:#343438"/><stop offset=".916" style="stop-color:#343438"/><stop offset=".93" style="stop-color:#48484d"/><stop offset=".947" style="stop-color:#55555b"/><stop offset=".967" style="stop-color:#5e5e63"/><stop offset="1" style="stop-color:#606066"/></radialGradient><path d="M31.98 1.245c-41.67 0-40.283 61.47 0 61.47 41.674 0 40.283-61.47 0-61.47z" style="fill:url(#c)"/><radialGradient id="d" cx="52.081" cy="40.787" r="27.16" gradientTransform="translate(-23.574 -11.527) scale(1.0667)" gradientUnits="userSpaceOnUse"><stop offset="0" style="stop-color:#ffb829"/><stop offset=".304" style="stop-color:#ffb529"/><stop offset=".555" style="stop-color:#ffab28"/><stop offset=".786" style="stop-color:#ff9927"/><stop offset="1" style="stop-color:#ff8226"/></radialGradient><path d="M31.98 6.368c-34.726 0-33.57 51.227 0 51.227 34.729 0 33.57-51.227 0-51.227z" style="fill:url(#d)"/><path d="M17.126 25.293c-3.037 3.04-1.592 4.491 1.448 1.45 3.044-3.042 1.006-3.902-1.448-1.45zm34.726 1.756c-3.038 3.042-1.593 4.492 1.45 1.452 3.04-3.044 1.005-3.904-1.45-1.452zM34.615 51.617c-3.039 3.046-1.592 4.49 1.45 1.45 3.042-3.039 1.004-3.902-1.45-1.45zm-7.211-41.385c2.507-2.396 1.693-4.453-1.418-1.483-3.107 2.974-1.692 4.454 1.418 1.483zm-2.558 35.1c-2.84-1.99-4.696-.787-1.175 1.682 3.522 2.464 4.698.785 1.175-1.682zM45.645 47.7c-2.84-1.99-4.698-.788-1.175 1.679 3.522 2.467 4.698.787 1.175-1.679zm-.85-35.093c-2.84-1.989-4.698-.787-1.176 1.68 3.524 2.466 4.698.787 1.176-1.68zm-9.219 0c-2.842-1.989-4.7-.787-1.178 1.68 3.524 2.466 4.699.787 1.178-1.68zM45.82 23.878c-2.843-1.991-4.698-.787-1.176 1.68 3.524 2.463 4.699.787 1.175-1.68zm-21.3 27.738c-3.04 3.044-1.592 4.492 1.45 1.452 3.04-3.04 1.002-3.904-1.45-1.452zm5.157-20.324c-3.04 3.043-1.594 4.49 1.448 1.45 3.039-3.042 1.004-3.902-1.448-1.45z" style="fill:#ffe12c"/><path d="M11.491 26.532c-1.24 0-1.488 2.05 0 2.05s1.24-2.05 0-2.05zm13.849 4.952c-1.242 0-1.487 2.05 0 2.05 1.485 0 1.24-2.05 0-2.05zM9.754 34.71c-1.24 0-1.487 2.05 0 2.048 1.486.003 1.24-2.048 0-2.048zM20.8 47.414c-1.24 0-1.486 2.05 0 2.05 1.487 0 1.24-2.05 0-2.05zm8.107-31.825c-1.24 0-1.487 2.048 0 2.048 1.488 0 1.24-2.048 0-2.048zm12.294-1.026c-1.24 0-1.485 2.05.002 2.05 1.485 0 1.24-2.05-.002-2.05zm11.796 20.034c-1.24 0-1.485 2.05 0 2.05 1.487-.002 1.24-2.05 0-2.05zM30.735 52.472c1.24 0 1.486 2.048 0 2.048-1.487 0-1.24-2.048 0-2.048z" style="fill:#529320"/><path d="M46.093 17.017c-.002 0-1.116 5.434 4.86 5.394l.58-1.624c-5.039-1.08-4.184-4.558-5.44-3.77zm-28.942 1.127-1.7-.29c-.187 5.146-3.76 4.909-2.767 6.013-.001.002 5.545.153 4.467-5.723zm20.574 27.841-1.217 1.223c4.098 3.121 1.844 5.904 3.317 5.728.002 0 3.322-4.443-2.1-6.95z" style="fill:#297124"/><path d="M44.88 30.269s.347-3.44-2.583.433c-2.552 3.377 5.892 1.965 2.583-.433z" style="fill:#ffe8bb"/><radialGradient id="e" cx="54.85" cy="46.409" r="10.306" gradientTransform="matrix(.8213 -.6807 .432 .5212 -30.16 51.128)" gradientUnits="userSpaceOnUse"><stop offset="0" style="stop-color:#d47706"/><stop offset=".245" style="stop-color:#c26c0c"/><stop offset=".734" style="stop-color:#944f1a"/><stop offset="1" style="stop-color:#783e23"/></radialGradient><path d="M39.28 32.305c-1.602.842-3.083 1.347-6.987 1.518-7.496.327-10.092 11.252-3.283 13.75 7.437 2.72 7.98-7.721 11.68-11.28 4.865-4.68 3.534-7.383-1.41-3.988z" style="fill:url(#e)"/><path d="M20.915 29.363s-1.502 3.114 2.574.476c3.555-2.303-4.862-3.862-2.574-.476z" style="fill:#ffe8bb"/><radialGradient id="f" cx="50.005" cy="33.383" r="15.257" gradientTransform="matrix(1.0062 -.3542 .1733 .4923 -26.333 25.364)" gradientUnits="userSpaceOnUse"><stop offset="0" style="stop-color:#d47706"/><stop offset=".245" style="stop-color:#c26c0c"/><stop offset=".734" style="stop-color:#944f1a"/><stop offset="1" style="stop-color:#783e23"/></radialGradient><path d="M41.746 18.53c-6.321-4.397-10.14 4.526-14.831 6.603-6.176 2.735-5.847 5.728-.04 4.232 1.794-.245 3.356-.212 7.085.963 7.156 2.256 13.742-7.656 7.786-11.798z" style="fill:url(#f)"/><path d="M50.424 23.784c-1.24 0-1.49 2.048 0 2.048 1.485 0 1.24-2.048 0-2.048z" style="fill:#529320"/><path d="M47.701 30.105c.308.439 1.483 2.407 1.643 1.979.138-.368-2.219-2.798-1.643-1.98z" style="fill:#9e2f00"/><path d="M49.709 34.36c.236-.002.021-2.016-.108-2.247-.034-.056-.767-.244-.717-.144.199.404.6 2.391.825 2.391z" style="fill:#9e2f00"/><path d="M49.996 34.27c.09-.124-.48-.192-.562-.06-.4.653-.516 2.285-.261 2.334.196.036.328-1.607.823-2.273zm-3.03 4.053c.26.38.351 1.244.542.908.164-.29-1.053-1.65-.542-.908z" style="fill:#9e2f00"/><path d="M47.348 40.145c.197.041.445-.623.369-.843-.02-.055-.603-.347-.575-.254.11.384.02 1.058.206 1.097z" style="fill:#9e2f00"/><path d="M47.597 40.122c.092-.09-.371-.25-.457-.152-.42.485-.735 1.86-.53 1.947.158.066.488-1.315.987-1.795zM45.892 31.1c.403.35 2.007 1.992 2.055 1.487.044-.435-2.806-2.138-2.055-1.487z" style="fill:#9e2f00"/><path d="M48.852 34.842c.227-.087-.47-2.121-.65-2.316-.046-.048-.794.018-.722.104.288.353 1.158 2.293 1.373 2.212z" style="fill:#9e2f00"/><path d="M49.105 34.647c.058-.164-.505-.03-.551.138-.224.826.062 2.58.318 2.538.197-.031-.077-1.801.233-2.676zm-4.581-.87c.466.149 2.376.931 2.308.533-.06-.345-3.174-.808-2.308-.533z" style="fill:#9e2f00"/><path d="M48.327 35.366c.018-.141-.491.125-.496.269-.025.695.652 1.947.887 1.842.18-.082-.487-1.352-.39-2.11zm-.777 1.215c.141-.191-1.384-1.062-1.621-1.078-.06-.003-.624.494-.526.505.398.05 2.017.757 2.148.573z" style="fill:#9e2f00"/><path d="M47.66 36.303c-.032-.139-.418.289-.373.424.215.662 1.28 1.603 1.464 1.42.142-.14-.92-1.1-1.09-1.844zm-1.648 2.341c.29.345.45 1.195.613.837.14-.31-1.183-1.514-.613-.837z" style="fill:#9e2f00"/><path d="M46.539 40.41c.2.017.395-.674.299-.883-.023-.054-.627-.274-.592-.183.14.365.105 1.047.293 1.065z" style="fill:#9e2f00"/><path d="M46.786 40.355c.086-.101-.39-.205-.469-.094-.377.532-.579 1.937-.367 1.999.163.047.38-1.366.836-1.905zm-1.899-1.774c.369.218.75.962.805.562.05-.345-1.528-.988-.805-.562z" style="fill:#9e2f00"/><path d="M45.863 40.055c.193-.058.192-.786.045-.95-.036-.04-.669-.021-.611.051.233.294.382.954.566.899z" style="fill:#9e2f00"/><path d="M46.082 39.91c.053-.127-.426-.046-.469.087-.216.646-.028 2.055.188 2.034.168-.016-.008-1.437.281-2.12zm-1.456-.855c.287.352.438 1.206.603.85.143-.306-1.165-1.539-.603-.85z" style="fill:#9e2f00"/><path d="M45.134 40.832c.199.022.4-.665.308-.877-.022-.053-.625-.285-.591-.194.137.368.094 1.05.283 1.071z" style="fill:#9e2f00"/><path d="M45.38 40.783c.088-.099-.388-.213-.466-.105-.383.525-.6 1.927-.39 1.993.163.05.395-1.36.857-1.888zm-1.26-2.5c.157.452.033 1.31.296 1.05.229-.223-.604-1.93-.297-1.05z" style="fill:#9e2f00"/><path d="M44.039 40.156c.179.106.58-.447.56-.684-.004-.059-.492-.534-.489-.436.013.403-.239 1.02-.071 1.12z" style="fill:#9e2f00"/><path d="M44.284 40.217c.111-.056-.295-.365-.4-.298-.52.323-1.158 1.534-.985 1.687.136.116.79-1.095 1.385-1.39zm7.484-7.54c4.58-7.318 6.352 5.346 2.342 11.385 4.952-7.298 1.909-18.845-2.44-11.785.068.153.098.4.098.4z" style="fill:#9e2f00"/><path d="M51.78 33.103c4.453-6.336 5.083 5.247 1.21 10.461 4.77-6.295 2.97-16.945-1.266-10.829.048.142.056.368.056.368z" style="fill:#9e2f00"/><radialGradient id="g" cx="485.597" cy="804.783" r="9.968" gradientTransform="matrix(-.1953 .9323 -.7654 -.1645 757.366 -282.53)" gradientUnits="userSpaceOnUse"><stop offset="0" style="stop-color:#ff5e00"/><stop offset=".274" style="stop-color:#fc5d00"/><stop offset=".464" style="stop-color:#f35800"/><stop offset=".629" style="stop-color:#e45100"/><stop offset=".78" style="stop-color:#ce4600"/><stop offset=".919" style="stop-color:#b23900"/><stop offset="1" style="stop-color:#9e2f00"/></radialGradient><path d="M46.124 46.863c.348.173 2.24-.563 2.611-1.119.435.004 1.553-1.088 1.632-1.522 3.007-2.66 1.841-15.971.58-11.416-.834 3.02-3.388 3.733-3.127 8.252 0 0-1.198-.914-1.773.852-.044-.217-.605-.71-1.178-.143-.16-.261-.701-.475-1.025-.205.031-.306-.319-1.013-.841-.995-.193-.245-.136-2.363.628-3.582 0 0-.362-1.34-.705-1.37-1.507.034-3.275 3.005-3.03 3.575-.608.55-.22 3.836.484 4.135.096.704 1.873 2.569 2.314 2.546.325.73 2.894 1.442 3.43.992z" style="fill:url(#g)"/><path d="M48.95 45.688c-2.405-.73-2.903-3.778-2.903-3.778s.16 2.862 2.575 3.968c.167-.017.327-.19.327-.19zm-2.607 1.199c-1.565-1.77-1.474-5.12-1.474-5.12s-.46 2.955 1.098 5.18c.16.046.376-.06.376-.06zm-3.53-.843c-.116-1.995 1.03-4.482 1.03-4.482s-1.228 1.858-1.358 4.24c.105.15.328.242.328.242zm-2.355-2.473c1.34-1.075 2.545-3.004 2.545-3.004s-1.886 2.235-2.762 2.657c.01.19.217.347.217.347z" style="fill:#9e2f00"/><linearGradient id="h" x1="437.632" x2="437.632" y1="738.497" y2="732.348" gradientTransform="rotate(90 591.389 189.388)" gradientUnits="userSpaceOnUse"><stop offset="0" style="stop-color:#de2800"/><stop offset=".365" style="stop-color:#ee4200"/><stop offset=".746" style="stop-color:#fa5700"/><stop offset="1" style="stop-color:#ff5e00"/></linearGradient><path d="M43.09 37.302c3.731-.143 6.633-2.433 4.748-2.791-.207-.52-.737-.488-1-.266-.507-.69-1.185.068-1.567.28-.624-.863-1.42.458-2.783 1.223-.662.372.458 1.56.602 1.554z" style="fill:url(#h)"/><path d="M49.937 37.38c0-1.116 1.734-1.116 1.734 0 0 1.12-1.734 1.12-1.734 0z" style="fill:#302c3b"/><path d="M51.105 37.232c-.301 0-.301-.468 0-.468.303 0 .303.468 0 .468z" style="fill:#6e8189"/><path d="M24.154 46.355c-.529-.093-2.75-.654-2.561-.24.162.36 3.547.41 2.561.24z" style="fill:#9e2f00"/><path d="M19.726 44.766c-.167.169 1.41 1.44 1.664 1.511.064.018.715-.369.609-.404-.426-.145-2.115-1.267-2.273-1.107z" style="fill:#9e2f00"/><path d="M19.586 45.031c.022.153.475-.203.438-.355-.178-.744-1.249-1.98-1.464-1.834-.165.113.905 1.368 1.026 2.19zm-.724-5.009c-.454-.083-1.129-.63-1.025-.257.089.32 1.911.422 1.025.257z" style="fill:#9e2f00"/><path d="M17.304 39.004c-.168.111.126.756.336.857.051.027.67-.18.586-.225-.35-.195-.762-.735-.922-.632z" style="fill:#9e2f00"/><path d="M17.143 39.198c0 .13.442-.086.432-.216-.047-.64-.796-1.836-1.002-1.75-.158.063.584 1.273.57 1.966zm7.587 5.173c-.532.038-2.829.012-2.506.402.276.34 3.497-.472 2.506-.402z" style="fill:#9e2f00"/><path d="M19.99 43.82c-.1.22 1.832 1.166 2.098 1.176.066.003.549-.573.436-.584-.453-.047-2.44-.803-2.535-.593z" style="fill:#9e2f00"/><path d="M19.95 44.135c.073.158.378-.335.29-.487-.426-.743-1.867-1.779-2.018-1.57-.117.162 1.328 1.219 1.727 2.057zm3.853-2.623c-.434.223-2.338 1.021-2.008 1.254.286.203 2.815-1.672 2.008-1.254z" style="fill:#9e2f00"/><path d="M19.99 43.076c.088.112.259-.435.162-.54-.475-.509-1.839-.916-1.93-.676-.07.186 1.3.612 1.768 1.216zm-.31-1.407c.037.234 1.73-.229 1.91-.385.044-.039.092-.79.014-.73-.315.248-1.96.893-1.923 1.115z" style="fill:#9e2f00"/><path d="M19.8 41.942c.12.076.09-.499-.036-.563-.62-.316-2.038-.228-2.04.03-.001.2 1.43.127 2.076.533zm-.49-2.82c-.45-.039-1.163-.525-1.025-.158.12.316 1.906.234 1.026.158z" style="fill:#9e2f00"/><path d="M17.689 38.247c-.154.128.197.754.413.835.053.023.636-.25.548-.289-.358-.16-.815-.667-.961-.546z" style="fill:#9e2f00"/><path d="M17.553 38.459c.01.133.422-.13.398-.265-.11-.642-.96-1.778-1.154-1.673-.148.084.698 1.234.756 1.938zm2.597-.089c-.416.109-1.21-.15-.966.174.208.28 1.778-.383.966-.174z" style="fill:#9e2f00"/><path d="M18.417 38.019c-.095.178.42.691.64.703.054.003.488-.457.396-.468-.373-.043-.944-.404-1.036-.235z" style="fill:#9e2f00"/><path d="M18.365 38.276c.052.127.333-.27.27-.393-.305-.61-1.433-1.473-1.572-1.305-.106.13 1.024 1.01 1.302 1.698zm1.634-.426c-.452-.045-1.162-.54-1.027-.174.116.318 1.912.264 1.027.175z" style="fill:#9e2f00"/><path d="M18.384 36.954c-.156.125.187.753.401.839.055.02.645-.241.557-.281-.359-.164-.81-.677-.958-.558z" style="fill:#9e2f00"/><path d="M18.244 37.163c.008.132.425-.125.404-.256-.1-.641-.938-1.786-1.134-1.684-.15.078.683 1.24.73 1.94zm2.659.875c-.431-.208-.95-.901-.953-.533-.003.32 1.794.938.953.533z" style="fill:#9e2f00"/><path d="M19.636 36.657c-.2.052-.095.728.087.881.045.038.725.028.654-.038-.294-.276-.552-.89-.741-.843z" style="fill:#9e2f00"/><path d="M19.42 36.788c-.041.118.466.05.492-.072.14-.597-.265-1.904-.495-1.889-.179.014.216 1.332.003 1.961zm.04 10.623c1.935 8.412-8.274.712-9.707-6.393 1.66 8.66 11.976 14.674 10.058 6.607a1.715 1.715 0 0 1-.351-.214z" style="fill:#9e2f00"/><path d="M19.15 47.118c1.33 7.629-7.306-.116-8.253-6.542 1.078 7.824 9.881 14.083 8.552 6.762-.135-.066-.3-.22-.3-.22z" style="fill:#9e2f00"/><radialGradient id="i" cx="1176.014" cy="-65.353" r="9.968" gradientTransform="matrix(-.5211 -.7974 .6575 -.4249 675.287 950.024)" gradientUnits="userSpaceOnUse"><stop offset="0" style="stop-color:#ff5e00"/><stop offset=".274" style="stop-color:#fc5d00"/><stop offset=".464" style="stop-color:#f35800"/><stop offset=".629" style="stop-color:#e45100"/><stop offset=".78" style="stop-color:#ce4600"/><stop offset=".919" style="stop-color:#b23900"/><stop offset="1" style="stop-color:#9e2f00"/></radialGradient><path d="M13.419 33.389c-.37.124-1.186 1.982-1.056 2.637-.308.305-.329 1.868-.078 2.23-.243 4.009 9.992 12.595 7.663 8.484-1.545-2.724-.244-5.036-3.623-8.046 0 0 1.494-.202.65-1.858.184.123.93.075.934-.73.298.07.833-.16.871-.58.195.238.94.49 1.297.109.31.036 1.767 1.574 2.09 2.976 0 0 1.204.692 1.468.471 1.04-1.09.19-4.441-.387-4.67.042-.82-2.558-2.868-3.266-2.582-.565-.43-3.14-.492-3.436-.164-.747-.287-3.066 1.026-3.127 1.723z" style="fill:url(#i)"/><path d="M12.252 36.218c2.216-1.185 4.724.618 4.724.618s-2.138-1.91-4.626-.984c-.107.13-.098.366-.098.366zm.996-2.691c2.357.145 4.661 2.58 4.661 2.58s-1.763-2.417-4.438-2.888c-.147.08-.223.308-.223.308zm3.092-1.899c1.491 1.328 2.44 3.898 2.44 3.898s-.445-2.183-2.038-3.96c-.18-.032-.402.062-.402.062zm3.412.083c-.187 1.708.325 3.924.325 3.924s-.247-2.914.075-3.832c-.141-.127-.4-.092-.4-.092z" style="fill:#9e2f00"/><linearGradient id="j" x1="1084.027" x2="1084.027" y1="-57.36" y2="-63.509" gradientTransform="rotate(-134.999 573.927 210.15)" gradientUnits="userSpaceOnUse"><stop offset="0" style="stop-color:#de2800"/><stop offset=".365" style="stop-color:#ee4200"/><stop offset=".746" style="stop-color:#fa5700"/><stop offset="1" style="stop-color:#ff5e00"/></linearGradient><path d="M22.325 38.004c-2.537 2.741-2.97 6.411-1.384 5.332.514.222.867-.177.896-.52.846.13.79-.884.91-1.304 1.05.168.68-1.328 1.102-2.834.206-.73-1.427-.78-1.524-.674z" style="fill:url(#j)"/><path d="M17.429 42.79c.789.79-.437 2.016-1.228 1.226-.79-.791.436-2.017 1.228-1.227z" style="fill:#302c3b"/><path d="M16.706 43.722c.214-.214.545.119.333.33-.215.216-.546-.115-.333-.33z" style="fill:#6e8189"/><path d="M17.64 22.822c.093-.529.654-2.75.239-2.561-.36.162-.41 3.547-.24 2.561z" style="fill:#9e2f00"/><path d="M19.23 18.392c-.17-.166-1.441 1.412-1.512 1.666-.018.064.369.715.404.609.145-.426 1.267-2.116 1.108-2.275z" style="fill:#9e2f00"/><path d="M18.964 18.253c-.152.023.203.476.355.439.743-.178 1.98-1.249 1.834-1.463-.113-.166-1.369.904-2.19 1.024zm5.008-.723c.084-.454.631-1.129.258-1.026-.32.09-.421 1.912-.258 1.026z" style="fill:#9e2f00"/><path d="M24.99 15.97c-.111-.166-.755.127-.856.338-.027.051.18.67.225.585.194-.35.735-.761.631-.922z" style="fill:#9e2f00"/><path d="M24.797 15.812c-.13-.001.086.44.216.431.64-.047 1.835-.796 1.75-1.002-.063-.159-1.274.584-1.966.57zm-5.173 7.584c-.038-.53-.013-2.827-.403-2.504-.338.276.473 3.497.403 2.505z" style="fill:#9e2f00"/><path d="M20.175 18.657c-.22-.099-1.166 1.833-1.176 2.099-.003.066.573.549.583.435.047-.453.804-2.44.593-2.534z" style="fill:#9e2f00"/><path d="M19.86 18.617c-.158.073.335.379.487.291.743-.426 1.779-1.867 1.57-2.018-.163-.118-1.219 1.328-2.058 1.727zm2.623 3.853c-.223-.434-1.021-2.337-1.255-2.007-.202.286 1.673 2.815 1.255 2.008z" style="fill:#9e2f00"/><path d="M20.919 18.658c-.112.088.436.259.539.162.51-.475.917-1.839.677-1.93-.186-.07-.612 1.3-1.216 1.768zm1.407-.31c-.234.037.229 1.73.385 1.91.039.043.79.092.728.015-.247-.317-.891-1.961-1.113-1.925z" style="fill:#9e2f00"/><path d="M22.052 18.468c-.074.12.499.09.563-.036.317-.62.229-2.04-.03-2.04-.198-.001-.127 1.43-.533 2.076zm2.821-.489c.038-.452.525-1.166.158-1.026-.316.12-.234 1.906-.158 1.026z" style="fill:#9e2f00"/><path d="M25.748 16.356c-.128-.153-.754.198-.836.412-.021.055.25.638.29.55.16-.358.667-.816.546-.962z" style="fill:#9e2f00"/><path d="M25.535 16.22c-.132.011.132.422.265.4.642-.111 1.78-.962 1.673-1.155-.082-.149-1.234.698-1.938.755zm.09 2.598c-.108-.416.15-1.21-.174-.967-.28.209.382 1.778.174.967z" style="fill:#9e2f00"/><path d="M25.977 17.085c-.18-.095-.693.42-.704.64-.003.054.457.488.467.396.043-.373.405-.945.237-1.036z" style="fill:#9e2f00"/><path d="M25.719 17.032c-.127.053.268.334.392.272.61-.306 1.473-1.434 1.306-1.573-.13-.106-1.01 1.023-1.698 1.301zm.424 1.635c.046-.452.542-1.163.175-1.027-.317.116-.263 1.91-.175 1.027z" style="fill:#9e2f00"/><path d="M27.041 17.05c-.125-.155-.754.188-.839.403-.02.055.24.644.281.557.163-.359.676-.81.558-.96z" style="fill:#9e2f00"/><path d="M26.831 16.912c-.13.008.125.425.257.403.642-.1 1.786-.938 1.684-1.133-.079-.15-1.24.683-1.941.73zm-.875 2.659c.209-.431.902-.95.533-.953-.32-.003-.938 1.794-.533.953z" style="fill:#9e2f00"/><path d="M27.338 18.304c-.053-.2-.728-.095-.882.087-.037.045-.028.725.04.654.274-.294.89-.552.842-.741z" style="fill:#9e2f00"/><path d="M27.206 18.088c-.117-.041-.049.466.073.492.597.14 1.905-.265 1.889-.495-.014-.179-1.332.215-1.962.003zm-10.622.039c-8.413 1.935-.712-8.273 6.394-9.706-8.663 1.659-14.675 11.976-6.608 10.058.06-.156.214-.352.214-.352z" style="fill:#9e2f00"/><path d="M16.876 17.817c-7.628 1.332.117-7.305 6.543-8.252-7.825 1.077-14.083 9.881-6.763 8.552.066-.134.22-.3.22-.3z" style="fill:#9e2f00"/><radialGradient id="k" cx="372.541" cy="-285.155" r="9.968" gradientTransform="matrix(.7974 -.5211 .4249 .6575 -151.989 399.8)" gradientUnits="userSpaceOnUse"><stop offset="0" style="stop-color:#ff5e00"/><stop offset=".274" style="stop-color:#fc5d00"/><stop offset=".464" style="stop-color:#f35800"/><stop offset=".629" style="stop-color:#e45100"/><stop offset=".78" style="stop-color:#ce4600"/><stop offset=".919" style="stop-color:#b23900"/><stop offset="1" style="stop-color:#9e2f00"/></radialGradient><path d="M30.606 12.087c-.124-.37-1.982-1.186-2.637-1.056-.305-.31-1.87-.329-2.232-.078-4.007-.243-12.594 9.992-8.483 7.663 2.726-1.545 5.037-.244 8.046-3.623 0 0 .202 1.493 1.858.65-.123.184-.075.93.73.934-.07.298.16.832.58.871-.237.194-.49.94-.108 1.297-.036.31-1.575 1.767-2.976 2.09 0 0-.693 1.204-.472 1.467 1.09 1.042 4.443.191 4.67-.386.82.041 2.87-2.558 2.582-3.266.432-.565.493-3.14.165-3.436.286-.747-1.027-3.066-1.723-3.127z" style="fill:url(#k)"/><path d="M27.777 10.92c1.185 2.216-.619 4.723-.619 4.723s1.91-2.137.985-4.627c-.13-.105-.366-.096-.366-.096zm2.691.996c-.145 2.357-2.58 4.661-2.58 4.661s2.417-1.764 2.888-4.438c-.082-.147-.308-.223-.308-.223zm1.898 3.092c-1.328 1.491-3.897 2.44-3.897 2.44s2.183-.446 3.96-2.039c.03-.179-.063-.401-.063-.401zm-.082 3.412c-1.708-.187-3.924.325-3.924.325s2.913-.247 3.831.075c.127-.141.093-.4.093-.4z" style="fill:#9e2f00"/><linearGradient id="l" x1="337.263" x2="337.263" y1="-264.288" y2="-270.436" gradientTransform="rotate(-45.001 527.797 255.709)" gradientUnits="userSpaceOnUse"><stop offset="0" style="stop-color:#de2800"/><stop offset=".365" style="stop-color:#ee4200"/><stop offset=".746" style="stop-color:#fa5700"/><stop offset="1" style="stop-color:#ff5e00"/></linearGradient><path d="M25.99 20.993c-2.74-2.538-6.41-2.97-5.332-1.384-.22.514.178.867.52.895-.13.847.886.791 1.305.91-.169 1.05 1.329.68 2.833 1.103.732.205.78-1.427.674-1.524z" style="fill:url(#l)"/><path d="M21.205 16.096c-.79.79-2.016-.437-1.225-1.227.79-.79 2.016.436 1.225 1.227z" style="fill:#302c3b"/><path d="M20.273 15.374c.213.214-.119.545-.332.332-.213-.214.118-.546.332-.332z" style="fill:#6e8189"/></svg>