<svg xmlns="http://www.w3.org/2000/svg" xml:space="preserve" viewBox="0 0 64 64"><radialGradient id="a" cx="21.061" cy="-29.15" r="26.354" gradientTransform="scale(.9991 .99999) rotate(45 -39.72 26.49)" gradientUnits="userSpaceOnUse"><stop offset=".442" style="stop-color:#356628"/><stop offset=".626" style="stop-color:#305e24"/><stop offset=".907" style="stop-color:#224918"/><stop offset="1" style="stop-color:#1d4013"/></radialGradient><path fill="url(#a)" d="M55.044 5.54C49.59 1.951 1.022 45.625 7.112 51.721c22.853 22.875 40.75 2.641 46.788-13.047 4.708-12.227 10.405-27.036 1.144-33.134z"/><path fill="#BCE042" d="M54.021 22.939c8.575-14.358 1.18-25.184-15.129-14.845-8.809 5.584-18.047 7.778-26.844 17.594C-9.007 49.177 15.41 67.87 37.602 48.237c8.568-7.579 12.877-19.362 16.419-25.298z"/><radialGradient id="b" cx="99.705" cy="-46.779" r="26.515" gradientTransform="matrix(.6667 .6679 -1.6098 1.6129 -109.745 38.549)" gradientUnits="userSpaceOnUse"><stop offset=".158" style="stop-color:#fdf286"/><stop offset=".396" style="stop-color:#edee75"/><stop offset=".865" style="stop-color:#c3e24a"/><stop offset=".939" style="stop-color:#bce042"/></radialGradient><path fill="url(#b)" d="M52.252 22.843c8.296-13.4 1.895-23.052-13.335-13.072-8.224 5.39-16.732 7.696-25.087 16.953-19.991 22.153 1.697 38.438 22.604 19.774 8.07-7.207 12.388-18.116 15.818-23.655z"/><radialGradient id="c" cx="-35.638" cy="51.738" r="12.302" fx="-36.318" fy="60.943" gradientTransform="matrix(.8775 -.8786 .5953 .596 24.993 -28.222)" gradientUnits="userSpaceOnUse"><stop offset=".206" style="stop-color:#3d4a11;stop-opacity:.4"/><stop offset=".309" style="stop-color:#424e14;stop-opacity:.3476"/><stop offset=".422" style="stop-color:#4f5a1c;stop-opacity:.2897"/><stop offset=".54" style="stop-color:#656d29;stop-opacity:.2293"/><stop offset=".662" style="stop-color:#84883c;stop-opacity:.167"/><stop offset=".786" style="stop-color:#acab54;stop-opacity:.1034"/><stop offset=".911" style="stop-color:#dbd572;stop-opacity:.0396"/><stop offset=".989" style="stop-color:#fdf286;stop-opacity:0"/></radialGradient><path fill="url(#c)" d="M37.745 22.38C50.9 35.551 26.383 60.096 13.23 46.926.076 33.756 24.592 9.21 37.745 22.38z"/><radialGradient id="d" cx="5.473" cy="-18.066" r="11.603" gradientTransform="matrix(.7065 .7071 -1.0851 1.0861 .25 42.694)" gradientUnits="userSpaceOnUse"><stop offset="0" style="stop-color:#e6a157"/><stop offset=".129" style="stop-color:#db974f"/><stop offset=".356" style="stop-color:#bd7b3a"/><stop offset=".653" style="stop-color:#8e4e18"/><stop offset=".776" style="stop-color:#783a09"/><stop offset="1" style="stop-color:#542906"/></radialGradient><path fill="url(#d)" d="M35.554 27.35c-.613 10.443-7.894 16.83-14.024 17.619-5.744.74-9.008-5.434-8.414-11.037.735-6.918 7.529-12.494 17.792-11.512 3.431.328 4.795 2.384 4.646 4.93z"/><path fill="#16002B" d="M25.488 22.999c-6.376 2.095-10.625 7.931-11.521 14.47 1.921-6.149 5.962-11.225 11.521-14.47zm-1.773 19.808c6.159-2.666 9.863-8.863 10.162-15.457-1.356 6.298-4.92 11.72-10.162 15.457z" opacity=".1"/><path fill="#16002B" d="M16.138 40.016c3.398-3.412 4.907-12.256 6.982-13.956-4.504 3.284-4.462 9.442-6.982 13.956zm16.267-14.965c-1.698 3.698-12.216 10.226-13.35 16.314 2.648-6.636 11.562-9.269 13.35-16.314zm-1.04 5.445c-4.822 2.938-6.2 9.07-10.986 12.063 5.631-1.727 8.385-10.288 10.986-12.063zm-2.568-7.327c-5.295 1.217-6.5 11.485-7.87 12.794 4.1-3.358 3.049-10.089 7.87-12.794z" opacity=".1"/><radialGradient id="e" cx="557.17" cy="55.103" r="22.02" gradientTransform="matrix(.3579 .4654 -.5992 .4619 -147.439 -260.027)" gradientUnits="userSpaceOnUse"><stop offset="0" style="stop-color:#fff;stop-opacity:.2"/><stop offset=".764" style="stop-color:#fff;stop-opacity:0"/></radialGradient><path fill="url(#e)" d="M27.492 36.09c-3.766 2.904-8.641 2.885-10.887-.039-2.251-2.928-1.023-7.65 2.743-10.552 3.766-2.905 8.641-2.886 10.893.039 2.251 2.926 1.017 7.651-2.749 10.552z"/></svg>