<svg xmlns="http://www.w3.org/2000/svg" xml:space="preserve" viewBox="0 0 64 64"><path fill="#48821D" d="M49.805 11.745c-.503-.205 4.355-1.364 4.145-1.856-.212-.488-3.442-.5-2.844-.769.6-.276 3.407-2.028 3.348-2.417-.068-.448-3.219.35-2.675-.112.541-.462 2.364-1.451 2.825-2.07.321-.429-1.078-.203-1.887-.076-.7.108.503-2.162-.035-2.078-.602.094-1.719 2.563-1.934 2.475-.217-.086-.042-3.318-.537-3.242-.442.07-1.141 3.88-1.334 4.4-.191.519-1.124-3.285-1.414-2.903-.356.47.256 3.996-.183 3.689-.279-.196-1.308-2.19-1.781-2.117-.257.04.988 4.789.279 4.035-.709-.757-1.232-2.365-1.649-2.3-.376.059.944 7.534 1.522 7.443 1.353-.212 6.791-1.545 6.926-1.915.138-.37-2.27.016-2.772-.187z"/><path fill="#297124" d="M53.191 17.189c-.312-.456 4.227 1.333 4.296.802.066-.53-2.566-2.375-1.946-2.261.625.109 3.778.236 3.92-.124.162-.414-2.801-1.535-2.131-1.613.669-.08 2.643.126 3.322-.13.474-.176-.78-.785-1.504-1.138-.626-.308 1.471-1.526.99-1.76-.537-.263-2.66 1.17-2.793.975-.135-.195 1.592-2.806 1.151-3.022-.397-.195-2.834 2.605-3.247 2.931-.411.324.691-3.394.268-3.239-.521.191-1.75 3.495-1.957 2.989-.133-.324.004-2.581-.418-2.787-.229-.113-1.542 4.576-1.75 3.541-.208-1.039.153-2.682-.22-2.866-.337-.164-2.923 6.853-2.406 7.105 1.209.59 6.306 2.564 6.598 2.33.292-.232-1.863-1.278-2.173-1.733z"/><path fill="#297124" d="M39.942 24.689s5.856-5.795 10.349-8.378l-.206-1.611s-6.027 5.779-10.386 7.442l.243 2.547z"/><path fill="#48821D" d="M40.26 25.021s3.128-7.765 6.246-12.011l-.808-1.389s-3.294 7.818-6.646 11.17l1.208 2.23z"/><path fill="#529320" d="M39.733 25.301s4.688-6.914 8.858-10.07l-.725-1.848s-4.883 6.901-9.192 8.994l1.059 2.924z"/><path fill="#529320" d="M42.188 29.937c3.108-2.534 3.516-7.034.906-10.053-2.611-3.02-7.252-3.415-10.361-.88l9.455 10.933z"/><radialGradient id="a" cx="-23.794" cy="-16.089" r="10.214" gradientTransform="matrix(.7071 .7377 -3.1364 3.2721 -6.591 105.83)" gradientUnits="userSpaceOnUse"><stop offset="0" style="stop-color:#ff9100"/><stop offset=".255" style="stop-color:#ff8b00"/><stop offset=".591" style="stop-color:#ff7b00"/><stop offset=".971" style="stop-color:#ff5f00"/><stop offset="1" style="stop-color:#ff5d00"/></radialGradient><path fill="url(#a)" d="M33.796 16.195c-6.442 0-17.225 21.388-22.847 27.854C5.479 50.341 0 61.381 0 63.821c0 1.027 9.065-2.506 13.621-7.319 4.557-4.812 32.204-20.668 32.204-28.625 0-4.75-6.927-11.682-12.029-11.682z"/><path fill="#FF5E00" d="M30.823 26.854s8.075 6.593 5.875 11.03c3.207-2.057.359-8.199-5.875-11.03zm-9.779 9.821s7.073 5.775 5.144 9.661c2.809-1.8.313-7.181-5.144-9.661zM9.928 48.773s5.539 2.919 3.834 6.8c2.346-2.347.509-6.24-3.834-6.8zM3.704 55.69s4.541 2.65 3.597 5.239c1.584-1.428-.201-4.391-3.597-5.239zM39.53 27.302s-6.318-8.424-10.574-6.128c1.971-3.346 7.858-.373 10.574 6.128zm-10.502 10.7s-5.536-7.378-9.262-5.366c1.727-2.931 6.884-.327 9.262 5.366zM18.324 48.719s-2.8-5.778-6.519-3.999c2.252-2.448 5.982-.532 6.519 3.999zm-7.85 7.514s-2.026-4.373-4.867-2.951c1.739-1.911 4.531-.507 4.867 2.951z"/><path fill="#529320" d="M54.194 14.561c-.662-.539 6.87.105 6.744-.711-.128-.814-4.845-2.378-3.872-2.482.979-.115 5.732-1.321 5.79-1.914.066-.682-4.834-1.033-3.869-1.443.964-.413 3.995-.978 4.899-1.655.629-.47-1.501-.815-2.73-1.02-1.063-.176 1.537-2.902.721-3.038-.913-.149-3.464 2.903-3.745 2.674-.284-.229 1.17-4.849.42-4.973-.675-.11-3.11 5.101-3.582 5.764-.475.661-.426-5.319-.991-4.902-.695.513-1.109 5.935-1.635 5.28-.337-.421-1.1-3.815-1.818-3.933-.39-.065-.333 7.441-1.09 6.001-.757-1.44-.925-4.031-1.558-4.134-.569-.094-1.415 11.411-.537 11.555 2.055.341 10.498 1.008 10.835.536.336-.476-3.325-1.07-3.982-1.605z"/><path fill="#297124" d="m48.301 14.915 11.02-9.008c-6.108 2.257-11.02 9.008-11.02 9.008z"/><path fill="#7AB51D" d="m52.019 12.774 5.685.213c-4.86-1.782-5.685-.213-5.685-.213zm-4.072-3.333 1.097 3.358c.001-.001 1.413-.49-1.097-3.358zm5.686 5.606-3.175-1.677c0 .001-.524 1.385 3.175 1.677zm-2.108-9.195-.147 4.709s1.613-.424.147-4.709zm1.896-1.204-.044 3.62c.001.001 1.597-.265.044-3.62zm6.071 5.3c-4.411-1.073-4.692.567-4.692.567l4.692-.567z"/></svg>