<svg xmlns="http://www.w3.org/2000/svg" xml:space="preserve" viewBox="0 0 64 64"><linearGradient id="a" x1="405.848" x2="405.848" y1="215.391" y2="168.334" gradientTransform="rotate(-45.001 21.732 564.91)" gradientUnits="userSpaceOnUse"><stop offset="0" style="stop-color:#ebcf8d"/><stop offset=".086" style="stop-color:#edd290"/><stop offset=".541" style="stop-color:#f7de9c"/><stop offset="1" style="stop-color:#fae2a0"/></linearGradient><path fill="url(#a)" d="M52.208 6.533c1.702-4.348-7.397.333-10.21-.754 1.327-4.46-6.031.463-10.868-1.189-.441-5.388-6.492 4.623-11.288 4.906-1.343-3.563-7.174 3.031-9.745 8.626C7.14 14.794-1.924 34.265 3.926 34.058c1.159 9.159-2.408 15.021 1.442 14.889.303 5.782 3.172 6.463 3.735 10.938.524 4.168 5.636-4.748 12.303-3.888 16.006 2.066 33.379-12.533 35.689-33.396.85-7.679 2.768-9.313 4.247-10.751 2.664-2.592-3.237-1.8-9.134-5.317z"/><linearGradient id="b" x1="370.853" x2="380.509" y1="199.856" y2="196.588" gradientTransform="rotate(-45.001 21.732 564.91)" gradientUnits="userSpaceOnUse"><stop offset="0" style="stop-color:#ffe9b0"/><stop offset=".004" style="stop-color:#ffe9b0;stop-opacity:.9944"/><stop offset=".764" style="stop-color:#ffe9b0;stop-opacity:0"/></linearGradient><path fill="url(#b)" d="M11.435 59.367c7.059-5.193 6.849-2.944 9.941-5.316 2.928-2.245-18.802-6.245-14.531-.521 4.148 5.558 1.259 8.287 4.59 5.837z"/><linearGradient id="c" x1="376.764" x2="388.041" y1="189.466" y2="188.725" gradientTransform="rotate(-45.001 21.732 564.91)" gradientUnits="userSpaceOnUse"><stop offset="0" style="stop-color:#ffe9b0"/><stop offset=".004" style="stop-color:#ffe9b0;stop-opacity:.9944"/><stop offset=".764" style="stop-color:#ffe9b0;stop-opacity:0"/></linearGradient><path fill="url(#c)" d="M6.436 47.877c10.066-1.942 9.236.787 13.052.029 3.614-.722-1.485-9.734-14.542-10.74.393 7.465-2.561 11.492 1.49 10.711z"/><linearGradient id="d" x1="387.187" x2="397.464" y1="181.096" y2="182.422" gradientTransform="rotate(-45.001 21.732 564.91)" gradientUnits="userSpaceOnUse"><stop offset="0" style="stop-color:#ffe9b0"/><stop offset=".004" style="stop-color:#ffe9b0;stop-opacity:.9944"/><stop offset=".764" style="stop-color:#ffe9b0;stop-opacity:0"/></linearGradient><path fill="url(#d)" d="M4.716 33.589c10.06 1.974 12.035 6.156 15.903 6.567 3.664.39 1.19-11.43-14.43-17.758-2.334 3.093-5.171 10.464-1.473 11.191z"/><linearGradient id="e" x1="395.938" x2="405.474" y1="177.475" y2="182.791" gradientTransform="rotate(-45.001 21.732 564.91)" gradientUnits="userSpaceOnUse"><stop offset="0" style="stop-color:#ffe9b0"/><stop offset=".004" style="stop-color:#ffe9b0;stop-opacity:.9944"/><stop offset=".764" style="stop-color:#ffe9b0;stop-opacity:0"/></linearGradient><path fill="url(#e)" d="M9.884 22.398c9.055 4.771 12.333 9.448 15.071 12.195 2.605 2.613 6.372-4.709-10.139-21.596-2.975 2.474-7.349 8.128-4.932 9.401z"/><linearGradient id="f" x1="408.636" x2="414.199" y1="173.738" y2="184.103" gradientTransform="rotate(-45.001 21.732 564.91)" gradientUnits="userSpaceOnUse"><stop offset="0" style="stop-color:#ffe9b0"/><stop offset=".004" style="stop-color:#ffe9b0;stop-opacity:.9944"/><stop offset=".764" style="stop-color:#ffe9b0;stop-opacity:0"/></linearGradient><path fill="url(#f)" d="M18.145 12.589c7.298 7.91 8.084 10.873 9.28 15.442.937 3.577 9.87-1.341-.934-22.375-4.221 5.571-10.906 4.158-8.346 6.933z"/><linearGradient id="g" x1="419.084" x2="421.501" y1="177.635" y2="188.705" gradientTransform="rotate(-45.001 21.732 564.91)" gradientUnits="userSpaceOnUse"><stop offset="0" style="stop-color:#ffe9b0"/><stop offset=".004" style="stop-color:#ffe9b0;stop-opacity:.9944"/><stop offset=".764" style="stop-color:#ffe9b0;stop-opacity:0"/></linearGradient><path fill="url(#g)" d="M28.459 7.632c1.093 4.08 2.806 6.18 4.091 15.899.484 3.667 7.85 4.673 6.592-18.963-6.201 2.488-12.058-2.062-10.683 3.064z"/><linearGradient id="h" x1="425.345" x2="426.536" y1="186.134" y2="196.136" gradientTransform="rotate(-45.001 21.732 564.91)" gradientUnits="userSpaceOnUse"><stop offset="0" style="stop-color:#ffe9b0"/><stop offset=".004" style="stop-color:#ffe9b0;stop-opacity:.9944"/><stop offset=".764" style="stop-color:#ffe9b0;stop-opacity:0"/></linearGradient><path fill="url(#h)" d="M39.021 7.496c2.357 10.063-.308 12.105-1.158 16.379-.721 3.628 12.898 5.176 11.641-18.459-6.2 2.486-11.346-1.603-10.483 2.08z"/><linearGradient id="i" x1="430.356" x2="431.092" y1="193.294" y2="202.096" gradientTransform="rotate(-45.001 21.732 564.91)" gradientUnits="userSpaceOnUse"><stop offset="0" style="stop-color:#ffe9b0"/><stop offset=".004" style="stop-color:#ffe9b0;stop-opacity:.9944"/><stop offset=".764" style="stop-color:#ffe9b0;stop-opacity:0"/></linearGradient><path fill="url(#i)" d="M49.088 8.277c1.657 6.65 1.115 12.408-.636 16.604-1.425 3.41 4.681 2.223 10.679-14.811-5.478-1.564-10.957-5.465-10.043-1.793z"/><linearGradient id="j" x1="433.194" x2="426.592" y1="196.762" y2="190.605" gradientTransform="rotate(-45.001 21.732 564.91)" gradientUnits="userSpaceOnUse"><stop offset="0" style="stop-color:#ebbd78"/><stop offset=".006" style="stop-color:#ebbd78;stop-opacity:.9944"/><stop offset="1" style="stop-color:#ebbd78;stop-opacity:0"/></linearGradient><path fill="url(#j)" d="M41.941 6.129c-1.875 5.534 4.727 23.111 7.086 13.385 2.449-10.099-4.663-16.108 3.181-12.98.175-3.534-6.171.927-10.267-.405z"/><linearGradient id="k" x1="426.246" x2="419.669" y1="189.494" y2="183.362" gradientTransform="rotate(-45.001 21.732 564.91)" gradientUnits="userSpaceOnUse"><stop offset="0" style="stop-color:#ebbd78"/><stop offset=".006" style="stop-color:#ebbd78;stop-opacity:.9944"/><stop offset="1" style="stop-color:#ebbd78;stop-opacity:0"/></linearGradient><path fill="url(#k)" d="M31.774 5.303c-1.875 5.534 4.734 24.487 6.496 14.635C40.2 9.14 34.152 2.651 41.998 5.779c.174-3.534-6.128.856-10.224-.476z"/><linearGradient id="l" x1="517.889" x2="510.386" y1="328.502" y2="321.506" gradientTransform="rotate(-63.404 19.962 562.014)" gradientUnits="userSpaceOnUse"><stop offset="0" style="stop-color:#ebbd78"/><stop offset=".006" style="stop-color:#ebbd78;stop-opacity:.9944"/><stop offset="1" style="stop-color:#ebbd78;stop-opacity:0"/></linearGradient><path fill="url(#l)" d="M20.593 9.604c-.041 5.844 10.975 20.781 10.676 10.771-.316-10.636-8.576-16.364-.148-15.884-.946-3.41-6.223 5.078-10.528 5.113z"/><linearGradient id="m" x1="559.282" x2="550.214" y1="498.881" y2="490.425" gradientTransform="rotate(-82.652 17.137 561.01)" gradientUnits="userSpaceOnUse"><stop offset="0" style="stop-color:#ebbd78"/><stop offset=".006" style="stop-color:#ebbd78;stop-opacity:.9944"/><stop offset="1" style="stop-color:#ebbd78;stop-opacity:0"/></linearGradient><path fill="url(#m)" d="M9.781 19.773c1.88 5.532 18.699 13.482 15.582 3.969-3.429-10.462-13.591-12.573-5.52-14.246-2.13-3.542-9.005 7.201-10.062 10.277z"/><linearGradient id="n" x1="528.166" x2="518.352" y1="714.525" y2="705.375" gradientTransform="rotate(-105.903 10.703 560.95)" gradientUnits="userSpaceOnUse"><stop offset="0" style="stop-color:#ebbd78"/><stop offset=".006" style="stop-color:#ebbd78;stop-opacity:.9944"/><stop offset="1" style="stop-color:#ebbd78;stop-opacity:0"/></linearGradient><path fill="url(#n)" d="M3.538 32.596c10.685.679 21.895 4.732 15.292-2.771-7.263-8.252-13.029-5.125-8.732-11.702-2.99-1.872-7.872 10.837-6.56 14.473z"/><linearGradient id="o" x1="441.908" x2="433.618" y1="863.509" y2="855.778" gradientTransform="rotate(-123.89 5.474 562.242)" gradientUnits="userSpaceOnUse"><stop offset="0" style="stop-color:#ebbd78"/><stop offset=".006" style="stop-color:#ebbd78;stop-opacity:.9944"/><stop offset="1" style="stop-color:#ebbd78;stop-opacity:0"/></linearGradient><path fill="url(#o)" d="M4.358 47.702c8.163-5.244 19.449-2.941 11.438-8.907-3.576-2.664-5.553-3.84-11.871-4.737 1.298 6.632-.79 10.63.433 13.644z"/><linearGradient id="p" x1="254.563" x2="247.164" y1="1019.231" y2="1012.332" gradientTransform="rotate(-149.275 -1.723 565.594)" gradientUnits="userSpaceOnUse"><stop offset="0" style="stop-color:#ebbd78"/><stop offset=".006" style="stop-color:#ebbd78;stop-opacity:.9944"/><stop offset="1" style="stop-color:#ebbd78;stop-opacity:0"/></linearGradient><path fill="url(#p)" d="M10.07 60.044c5.076-8.054 9.98-11.263 4.066-12.197-1.631-.258-4.415.144-8.768 1.1.913 4.915 2.681 6.535 4.702 11.097z"/><linearGradient id="q" x1="404.976" x2="404.79" y1="204.019" y2="233.152" gradientTransform="matrix(.7071 -.7071 .7442 .7442 -413.6 160.31)" gradientUnits="userSpaceOnUse"><stop offset="0" style="stop-color:#ffe9b0"/><stop offset=".004" style="stop-color:#ffe9b0;stop-opacity:.9955"/><stop offset=".764" style="stop-color:#ffe9b0;stop-opacity:.2"/></linearGradient><path fill="url(#q)" d="M50.775 19.889c-6.535 9.744-8.041-7.063-11.418.058-4.354 9.174-5.72-2.913-6.837 1.889-1.517 6.505-6.359-.18-6.015 3.772.55 6.319-8.553.303-5.835 4.136 5.929 8.366-8.991 3.675-4.088 8.757 2.084 2.162 4.773 6.441-1.344 7.344-5.917.874 8.181 1.57.51 7.343-3.843 2.893 2.547.444 6.677 1.337 11.428 2.473 31.231-11.186 33.188-30.037.567-5.472-.642-10.849-4.838-4.599z"/></svg>