<svg xmlns="http://www.w3.org/2000/svg" xml:space="preserve" style="enable-background:new 0 0 64 64" viewBox="0 0 64 64"><linearGradient id="a" x1="15.055" x2="48.945" y1="40.208" y2="40.208" gradientUnits="userSpaceOnUse"><stop offset="0" style="stop-color:#e6ebef"/><stop offset=".049" style="stop-color:#e3e9ed"/><stop offset=".667" style="stop-color:#c0cdd1"/><stop offset="1" style="stop-color:#b3c2c6"/></linearGradient><path d="M45.007 57.371c-.708 8.84-25.31 8.838-26.014 0-1.888-23.67-3.938-40.956-3.938-40.956h33.89S46.895 33.7 45.007 57.37z" style="fill:url(#a)"/><linearGradient id="b" x1="16.212" x2="47.788" y1="38.921" y2="38.921" gradientUnits="userSpaceOnUse"><stop offset="0" style="stop-color:#02d6b4"/><stop offset=".197" style="stop-color:#0fc2a7"/><stop offset=".486" style="stop-color:#1fab99"/><stop offset=".759" style="stop-color:#289e90"/><stop offset="1" style="stop-color:#2b998d"/></linearGradient><path d="M16.212 27.01c.525 5.06 1.179 11.7 1.86 19.409 6.099 5.896 22.438 5.88 27.856-.002.68-7.709 1.335-14.348 1.86-19.41-8.1 3.696-23.473 3.725-31.576.003z" style="fill:url(#b)"/><linearGradient id="c" x1="14" x2="50" y1="17.609" y2="17.609" gradientUnits="userSpaceOnUse"><stop offset="0" style="stop-color:#e6ebef"/><stop offset=".267" style="stop-color:#e1e7eb"/><stop offset=".567" style="stop-color:#d4dce0"/><stop offset=".883" style="stop-color:#bdcace"/><stop offset="1" style="stop-color:#b3c2c6"/></linearGradient><path d="M50 17.535c0 1.626-8.059 2.948-18.001 2.948-9.94 0-17.999-1.322-17.999-2.948l.327-2.8h35.306l.367 2.8z" style="fill:url(#c)"/><path d="M49.633 14.736c0 1.627-7.903 2.947-17.653 2.947-9.747 0-17.653-1.32-17.653-2.947 0-1.626 7.907-2.944 17.653-2.944 9.751 0 17.653 1.318 17.653 2.944z" style="fill:#e6ebef"/><path d="M44.4 14.752c0 1.034-5.56 1.872-12.42 1.872-6.858 0-12.42-.838-12.42-1.872 0-1.033 5.563-1.87 12.42-1.87 6.86 0 12.42.837 12.42 1.87z" style="fill:#b3c2c6"/><path d="M44.4 14.949c0 .996-5.56 1.803-12.42 1.803-6.858 0-12.42-.808-12.42-1.803 0-.995 5.563-1.802 12.42-1.802 6.86 0 12.42.807 12.42 1.802z" style="fill:#dde2e6"/><linearGradient id="d" x1="24.387" x2="39.764" y1="14.607" y2="14.607" gradientUnits="userSpaceOnUse"><stop offset="0" style="stop-color:#e6ebef"/><stop offset=".445" style="stop-color:#d2dbdf"/><stop offset="1" style="stop-color:#b3c2c6"/></linearGradient><path d="M39.764 14.814c0 .72-3.445 1.305-7.69 1.305-4.246 0-7.687-.585-7.687-1.305l.142-1.72h15.079l.156 1.72z" style="fill:url(#d)"/><path d="M32.07 11.792c4.162 0 7.538.585 7.538 1.304 0 .721-3.376 1.306-7.539 1.306-4.167 0-7.541-.585-7.541-1.306 0-.72 3.375-1.304 7.541-1.304z" style="fill:#e6ebef"/><path d="M32.068 12.617c1.525 0 2.761.214 2.761.477 0 .265-1.236.479-2.76.479-1.527 0-2.763-.215-2.763-.479 0-.263 1.236-.477 2.762-.477z" style="fill:#b3c2c6"/><linearGradient id="e" x1="32.99" x2="30.365" y1="10.878" y2="11.107" gradientUnits="userSpaceOnUse"><stop offset="0" style="stop-color:#c6b1a0"/><stop offset="1" style="stop-color:#ffebd9"/></linearGradient><path d="m30.178 8.462.397 5.03c1.245.18 2.545.043 2.545.043l-.342-5.308-2.6.235z" style="fill:url(#e)"/><linearGradient id="f" x1="33.055" x2="30.43" y1="11.618" y2="11.847" gradientUnits="userSpaceOnUse"><stop offset="0" style="stop-color:#c21413"/><stop offset=".048" style="stop-color:#c51815"/><stop offset="1" style="stop-color:#ff6445"/></linearGradient><path d="m30.294 9.935.281 3.558c1.245.18 2.545.042 2.545.042l-.161-2.495c-.577.364-2.28-.134-2.665-1.105z" style="fill:url(#f)"/><linearGradient id="g" x1="32.776" x2="29.984" y1="6.834" y2="7.063" gradientUnits="userSpaceOnUse"><stop offset="0" style="stop-color:#c21413"/><stop offset=".048" style="stop-color:#c51815"/><stop offset="1" style="stop-color:#ff6445"/></linearGradient><path d="M29.972 5.63c-.118.059-.186.43-.016.514-.195.2-.19.39.021.563-.198.207-.188.395.026.57-.175.155-.194.415.028.56-.177.173-.151.59.147.626.513.062 1.98-.003 2.6-.236.235-.088.294-.488.106-.615.207-.174.197-.423-.021-.563.204-.176.195-.423-.025-.564.21-.173.202-.426-.02-.563.16-.112.137-.474-.064-.524-.304-.076-2.537.11-2.782.232z" style="fill:url(#g)"/><path d="M29.956 6.144s.957.204 2.861-.222c-1.547.193-2.86.222-2.86.222zm.104.566s.925.25 2.728-.209c-1.47.228-2.728.21-2.728.21zm.03.557s.925.252 2.727-.21c-1.469.231-2.728.21-2.728.21zm0 .569s.94.305 2.727-.21c-1.461.274-2.728.21-2.728.21z" style="opacity:.5;fill:#c21413"/><linearGradient id="h" x1="263.626" x2="263.923" y1="23.887" y2="25.929" gradientTransform="scale(1 -1) rotate(20.481 228.798 -610.801)" gradientUnits="userSpaceOnUse"><stop offset="0" style="stop-color:#c6b1a0"/><stop offset=".256" style="stop-color:#cab5a4"/><stop offset=".525" style="stop-color:#d7c2b1"/><stop offset=".8" style="stop-color:#ebd7c5"/><stop offset="1" style="stop-color:#ffebd9"/></linearGradient><path d="M47.725.005s-15.97 3.34-16.89 3.633c-.342.109-1.03.802-.863 1.992.016.119 1.611-.026 2.782-.232 1.02-.18 15.392-3.181 15.392-3.181.643-.113.22-2.332-.42-2.212z" style="fill:url(#h)"/><linearGradient id="i" x1="268.644" x2="268.941" y1="23.16" y2="25.197" gradientTransform="scale(1 -1) rotate(20.481 228.798 -610.801)" gradientUnits="userSpaceOnUse"><stop offset="0" style="stop-color:#c21413"/><stop offset=".216" style="stop-color:#c51816"/><stop offset=".444" style="stop-color:#cf251e"/><stop offset=".678" style="stop-color:#df3a2b"/><stop offset=".913" style="stop-color:#f5573d"/><stop offset="1" style="stop-color:#ff6445"/></linearGradient><path d="M42.878 1.024c-.83.275-1.584 2.015-.778 2.452l3.345-.696c-.772-.572-.034-2.178.824-2.47l-3.39.714z" style="fill:url(#i)"/><linearGradient id="j" x1="261.248" x2="261.545" y1="24.236" y2="26.277" gradientTransform="scale(1 -1) rotate(20.481 228.798 -610.801)" gradientUnits="userSpaceOnUse"><stop offset="0" style="stop-color:#c21413"/><stop offset=".216" style="stop-color:#c51816"/><stop offset=".444" style="stop-color:#cf251e"/><stop offset=".678" style="stop-color:#df3a2b"/><stop offset=".913" style="stop-color:#f5573d"/><stop offset="1" style="stop-color:#ff6445"/></linearGradient><path d="M35.34 2.627c-.948.343-1.048 2.087-.465 2.345l3.471-.716c-.642-.444-.658-1.947.508-2.38l-3.514.751z" style="fill:url(#j)"/><linearGradient id="k" x1="255.541" x2="255.834" y1="25.056" y2="27.074" gradientTransform="scale(1 -1) rotate(20.481 228.798 -610.801)" gradientUnits="userSpaceOnUse"><stop offset="0" style="stop-color:#c21413"/><stop offset=".216" style="stop-color:#c51816"/><stop offset=".444" style="stop-color:#cf251e"/><stop offset=".678" style="stop-color:#df3a2b"/><stop offset=".913" style="stop-color:#f5573d"/><stop offset="1" style="stop-color:#ff6445"/></linearGradient><path d="M30.836 3.638c-.343.109-1.032.802-.864 1.992.016.115 1.564.091 2.678-.215-.846-.12-1.533-1.12-1.814-1.777z" style="fill:url(#k)"/><path d="M48.126 2.06c-.492.084-.808-1.807-.317-1.894.49-.082.808 1.81.317 1.895z" style="fill:#302c3b"/><path d="M32 34.544c3.362.001 6.097 2.653 6.097 5.912 0 3.26-2.735 5.913-6.097 5.914-3.361 0-6.096-2.655-6.095-5.913-.001-3.26 2.734-5.913 6.095-5.913zm0-1.969c-4.489-.001-8.128 3.53-8.13 7.881.002 4.357 3.643 7.883 8.13 7.881 4.489 0 8.128-3.524 8.13-7.88-.002-4.352-3.641-7.882-8.13-7.882z" style="fill:#02d6b4"/><path d="M33.628 41.246c-.275 0-.41-.129-.41-.394v-.79c0-.263.136-.392.41-.392h2.64c.274-.001.407.13.406.395v.392c0 2.505-2.092 4.532-4.674 4.532a4.732 4.732 0 0 1-3.303-1.326c-.191-.188-.191-.371-.001-.56l.862-.835c.191-.186.382-.186.572 0a2.686 2.686 0 0 0 1.87.753c1.175 0 2.172-.747 2.516-1.774h-.888z" style="fill:#02d6b4"/></svg>