<svg xmlns="http://www.w3.org/2000/svg" xml:space="preserve" viewBox="0 0 64 64"><path fill="#99A8AE" d="M52 55.975C52 59.148 45.074 62 32.005 62c-13.07 0-19.998-2.852-19.998-6.025v-1.352H52v1.352z"/><path fill="#E6EBEF" d="M32.003 49.684C43.047 49.684 52 51.342 52 54.621c0 3.285-8.953 5.945-19.997 5.945-11.041 0-19.996-2.66-19.996-5.945.001-3.279 8.956-4.937 19.996-4.937z"/><linearGradient id="a" x1="12.389" x2="51.621" y1="34.322" y2="34.322" gradientUnits="userSpaceOnUse"><stop offset="0" style="stop-color:#297124"/><stop offset=".014" style="stop-color:#307723"/><stop offset=".08" style="stop-color:#4a8d1e"/><stop offset=".152" style="stop-color:#5e9f1b"/><stop offset=".235" style="stop-color:#6cab18"/><stop offset=".334" style="stop-color:#74b316"/><stop offset=".5" style="stop-color:#77b516"/><stop offset=".666" style="stop-color:#74b316"/><stop offset=".765" style="stop-color:#6cab18"/><stop offset=".848" style="stop-color:#5e9f1b"/><stop offset=".92" style="stop-color:#4a8d1e"/><stop offset=".986" style="stop-color:#307723"/><stop offset="1" style="stop-color:#297124"/></linearGradient><path fill="url(#a)" d="M12.389 8.77v44.652c0 3.564 6.793 6.453 19.615 6.453 12.823 0 19.618-2.889 19.618-6.453V8.77H12.389z"/><linearGradient id="b" x1="12.389" x2="51.621" y1="34.322" y2="34.322" gradientUnits="userSpaceOnUse"><stop offset="0" style="stop-color:#5f9409"/><stop offset=".033" style="stop-color:#679f0b"/><stop offset=".113" style="stop-color:#76b30f"/><stop offset=".205" style="stop-color:#81c112"/><stop offset=".316" style="stop-color:#87c914"/><stop offset=".5" style="stop-color:#89cc14"/><stop offset=".684" style="stop-color:#87c914"/><stop offset=".795" style="stop-color:#81c112"/><stop offset=".887" style="stop-color:#76b30f"/><stop offset=".967" style="stop-color:#679f0b"/><stop offset="1" style="stop-color:#5f9409"/></linearGradient><path fill="url(#b)" d="M32.003 26.183c-12.822 0-19.615-2.889-19.615-6.453v22.731c0 3.566 6.793 6.453 19.615 6.453 12.823 0 19.618-2.887 19.618-6.453V19.729c0 3.565-6.795 6.454-19.618 6.454z"/><circle cx="32.003" cy="36.915" r="14.001" fill="#89CC14"/><circle cx="32.003" cy="36.915" r="12.001" fill="#7AB51D"/><path fill="#99A8AE" d="M51.992 8.67c0 3.174-6.926 5.746-19.995 5.746S12 11.844 12 8.67V7.318h39.992V8.67z"/><path fill="#E6EBEF" d="M31.998 2C43.04 2 51.993 4.381 51.993 7.318c0 2.941-8.953 5.322-19.995 5.322C20.955 12.641 12 10.26 12 7.318 12 4.381 20.955 2 31.998 2z"/><linearGradient id="c" x1="13.037" x2="50.955" y1="7.172" y2="7.172" gradientUnits="userSpaceOnUse"><stop offset="0" style="stop-color:#6e8189"/><stop offset=".247" style="stop-color:#72858c"/><stop offset=".484" style="stop-color:#7d9097"/><stop offset=".718" style="stop-color:#91a2a8"/><stop offset=".948" style="stop-color:#acbbc0"/><stop offset="1" style="stop-color:#b3c2c6"/></linearGradient><path fill="url(#c)" d="M31.998 2.326c10.469 0 18.958 2.17 18.958 4.844 0 2.68-8.488 4.848-18.958 4.848-10.47 0-18.96-2.168-18.96-4.848-.001-2.674 8.489-4.844 18.96-4.844z"/><path fill="#CFD8DD" d="M15.607 9.607c-.055-.148 32.834-.148 32.777 0 .795-.348 1.422-.725 1.859-1.121-.843-2.466-8.69-4.402-18.245-4.402-9.558 0-17.404 1.936-18.248 4.402.438.397 1.064.774 1.857 1.121z"/><path fill="#99A8AE" d="M31.998 4.707c-9.097 0-16.472 1.992-16.472 4.447 0 .154.027.305.082.453.182.08.369.158.566.234-.076-.17 31.723-.17 31.646 0 .197-.076.385-.154.564-.234.057-.148.084-.299.084-.453.001-2.455-7.374-4.447-16.47-4.447z"/><path fill="#CFD8DD" d="M47.82 9.842c.076-.17.127-.342.127-.516 0-2.365-7.143-4.279-15.95-4.279-8.808 0-15.951 1.914-15.951 4.279 0 .174.051.346.127.516 3.395 1.313 9.211 2.273 15.824 2.273 6.612 0 12.431-.961 15.823-2.273z"/><path fill="#D5F78D" d="M32.003 29.415c4.135 0 7.5 3.365 7.5 7.5s-3.365 7.5-7.5 7.5-7.5-3.365-7.5-7.5 3.366-7.5 7.5-7.5zm0-2.5c-5.521 0-10 4.479-10 10 0 5.524 4.478 10 10 10s10-4.476 10-10c.001-5.521-4.478-10-10-10z"/><path fill="#D5F78D" d="M34.004 37.917c-.336 0-.502-.165-.502-.5v-1.001c0-.335.166-.5.502-.5h3.248c.338 0 .502.165.502.5v.499a5.75 5.75 0 0 1-9.814 4.068c-.237-.24-.237-.472-.003-.709L29 39.214c.236-.236.469-.236.705 0a3.253 3.253 0 0 0 5.393-1.297h-1.094z"/></svg>