<svg xmlns="http://www.w3.org/2000/svg" xml:space="preserve" style="enable-background:new 0 0 64 64" viewBox="0 0 64 64"><path d="m59.7 15.88-.23-2.35s-11.09 10.03 3.69 12.91l-.14-7.55-3.32-3.01z" style="fill:#d67615"/><radialGradient id="a" cx="-417.222" cy="203.42" r="3.576" gradientTransform="matrix(-.9918 .1677 .3826 3.9135 -431.43 -693.911)" gradientUnits="userSpaceOnUse"><stop offset="0" style="stop-color:#ffad33"/><stop offset=".358" style="stop-color:#f39d2a"/><stop offset="1" style="stop-color:#d67615"/></radialGradient><path d="m56.93 28.71.42 16.03s5.33 2.07 6.65-3.12l-.52-17.01-6.55 4.1z" style="fill:url(#a)"/><radialGradient id="b" cx="-414.406" cy="208.286" r="3.834" gradientTransform="matrix(-.9924 .1619 .3694 3.9157 -430.79 -709.888)" gradientUnits="userSpaceOnUse"><stop offset="0" style="stop-color:#ffad33"/><stop offset=".358" style="stop-color:#f39d2a"/><stop offset="1" style="stop-color:#d67615"/></radialGradient><path d="m54.12 34.83.06 16.93s5.82 1.7 7.14-3.49l-.52-17.53-6.68 4.09z" style="fill:url(#b)"/><radialGradient id="c" cx="-405.683" cy="211.834" r="4.496" gradientTransform="matrix(-.9988 .0645 .147 3.941 -387.665 -765.427)" gradientUnits="userSpaceOnUse"><stop offset="0" style="stop-color:#ffad33"/><stop offset=".358" style="stop-color:#f39d2a"/><stop offset="1" style="stop-color:#d67615"/></radialGradient><path d="M44.28 39.8c-2.81 4.61.13 17.32.13 17.32 2.06 2.09 8.71 2.57 10.03-2.61l-.32-19.67c0-.01-8.4 2.6-9.84 4.96z" style="fill:url(#c)"/><radialGradient id="d" cx="-394.793" cy="214.071" r="5.512" gradientTransform="matrix(-1 0 0 3.9457 -357.008 -798.466)" gradientUnits="userSpaceOnUse"><stop offset="0" style="stop-color:#ffad33"/><stop offset=".358" style="stop-color:#f39d2a"/><stop offset="1" style="stop-color:#d67615"/></radialGradient><path d="M32 41.7c-2.6 18.35 0 17.4 0 17.4 1.44 2.72 10.24 5.65 12.41-1.98.4-8.08-.13-17.32-.13-17.32L32 41.7z" style="fill:url(#d)"/><path d="m4.3 15.88.23-2.35S15.62 23.56.84 26.44l.14-7.55 3.32-3.01z" style="fill:#d67615"/><radialGradient id="e" cx="3.786" cy="203.42" r="3.576" gradientTransform="matrix(.9918 .1677 -.3826 3.9135 77.859 -764.53)" gradientUnits="userSpaceOnUse"><stop offset="0" style="stop-color:#ffad33"/><stop offset=".358" style="stop-color:#f39d2a"/><stop offset="1" style="stop-color:#d67615"/></radialGradient><path d="m7.07 28.71-.42 16.03S1.32 46.81 0 41.62l.52-17.01 6.55 4.1z" style="fill:url(#e)"/><radialGradient id="f" cx="6.603" cy="208.286" r="3.834" gradientTransform="matrix(.9924 .1619 -.3694 3.9157 76.985 -778.065)" gradientUnits="userSpaceOnUse"><stop offset="0" style="stop-color:#ffad33"/><stop offset=".358" style="stop-color:#f39d2a"/><stop offset="1" style="stop-color:#d67615"/></radialGradient><path d="m9.88 34.83-.06 16.93S4 53.46 2.68 48.27l.52-17.53 6.68 4.09z" style="fill:url(#f)"/><radialGradient id="g" cx="15.325" cy="211.834" r="4.496" gradientTransform="matrix(.9988 .0645 -.147 3.941 31.162 -792.564)" gradientUnits="userSpaceOnUse"><stop offset="0" style="stop-color:#ffad33"/><stop offset=".358" style="stop-color:#f39d2a"/><stop offset="1" style="stop-color:#d67615"/></radialGradient><path d="M19.72 39.8c2.81 4.61-.13 17.32-.13 17.32-2.06 2.09-8.71 2.57-10.03-2.61l.32-19.67c0-.01 8.4 2.6 9.84 4.96z" style="fill:url(#g)"/><radialGradient id="h" cx="25.645" cy="214.071" r="5.399" gradientTransform="matrix(1 0 0 3.9457 0 -798.466)" gradientUnits="userSpaceOnUse"><stop offset="0" style="stop-color:#ffad33"/><stop offset=".358" style="stop-color:#f39d2a"/><stop offset="1" style="stop-color:#d67615"/></radialGradient><path d="M32 41.7v17.4c-1.44 2.72-10.24 5.65-12.41-1.98-.4-8.08.13-17.32.13-17.32L32 41.7z" style="fill:url(#h)"/><radialGradient id="i" cx="32" cy="95.46" r="32.891" gradientTransform="matrix(1 0 0 .6984 0 -45.708)" gradientUnits="userSpaceOnUse"><stop offset=".332" style="stop-color:#d67615"/><stop offset=".576" style="stop-color:#d87916"/><stop offset=".726" style="stop-color:#de811b"/><stop offset=".851" style="stop-color:#e98f23"/><stop offset=".961" style="stop-color:#f8a42e"/><stop offset="1" style="stop-color:#ffad33"/></radialGradient><path d="M60.94 21.48c4.62-2.24.52-5.75-2.31-6.34 2.83-2.67-2.23-5.54-4.68-5.17.36-2.53-4.34-5.17-7.15-4.17-.92-2.4-5.04-3.41-7.37-2.19-1.41-1.69-5.87-2.24-7.43-.72-1.56-1.52-6.02-.98-7.45.71-2.33-1.21-6.44-.21-7.37 2.19-2.81-1-7.51 1.64-7.15 4.17-2.45-.37-7.51 2.51-4.68 5.17-2.83.58-6.92 4.09-2.31 6.34-4.01 1.87-3.06 6.4 1.24 7.18-3.45 3.46 1.81 8.47 5.58 6.18-.94 6.63 7.02 7.66 9.83 4.96 1.26 6.92 10.68 5.54 12.28 1.9 1.61 3.64 11.02 5.02 12.28-1.9 2.81 2.69 10.78 1.66 9.83-4.96 3.77 2.29 9.03-2.72 5.58-6.18 4.34-.77 5.3-5.3 1.28-7.17z" style="fill:url(#i)"/><path d="M34.93 3.27c1.59 0 3.26.55 3.87 1.28.18.21.41.33.65.33.12 0 .24-.03.35-.09.54-.28 1.23-.43 1.99-.43 1.87 0 3.73.9 4.16 2.01.17.43.5.7.86.7.08 0 .17-.01.25-.04.32-.12.7-.17 1.11-.17 1.9 0 3.93 1.19 4.63 2.3.15.24.23.46.21.59-.06.4.03.8.24 1.1.18.26.44.4.7.4.04 0 .07 0 .11-.01.11-.02.22-.02.35-.02 1.68 0 3.87 1.33 4.09 2.22.04.17-.2.48-.43.69-.32.3-.47.82-.38 1.32.09.5.4.88.79.96 1.83.37 3.52 1.89 3.58 2.61.01.14-.23.69-1.45 1.28-.38.18-.63.66-.63 1.2 0 .53.26 1.01.64 1.19 1.24.58 1.97 1.48 1.9 2.34-.07.91-1.03 2.04-2.96 2.39-.39.07-.7.44-.8.93-.1.5.04 1.02.35 1.33.94.94.75 1.69.69 1.94-.32 1.23-1.84 2.54-3.61 2.54-.6 0-1.16-.16-1.67-.46a.772.772 0 0 0-.4-.12.81.81 0 0 0-.59.27c-.28.29-.42.77-.35 1.23.16 1.13.01 2.05-.47 2.81-.79 1.26-2.48 2.04-4.4 2.04-1.39 0-2.71-.44-3.45-1.14a.83.83 0 0 0-.57-.24.8.8 0 0 0-.33.08c-.3.15-.53.48-.6.89-.67 3.66-4.21 3.94-5.28 3.94-2.58 0-4.73-1.24-5.23-2.38-.17-.39-.49-.63-.83-.63-.34 0-.66.24-.83.63-.5 1.14-2.65 2.38-5.23 2.38-1.07 0-4.61-.28-5.28-3.94-.08-.41-.3-.75-.6-.89a.8.8 0 0 0-.33-.08c-.2 0-.4.08-.57.24-.73.7-2.05 1.14-3.45 1.14-1.92 0-3.61-.78-4.4-2.04-.48-.76-.63-1.68-.47-2.81.07-.47-.07-.94-.35-1.23a.81.81 0 0 0-.59-.27c-.14 0-.27.04-.4.12-.51.31-1.07.46-1.67.46-1.77 0-3.3-1.31-3.61-2.54-.06-.25-.26-.99.69-1.94.31-.31.45-.83.35-1.33-.1-.5-.41-.86-.8-.93-1.93-.35-2.89-1.49-2.96-2.39-.07-.86.66-1.76 1.9-2.34.38-.18.64-.65.64-1.19 0-.53-.25-1.01-.63-1.2-1.22-.59-1.46-1.14-1.45-1.28.05-.72 1.75-2.24 3.58-2.61.39-.08.7-.46.79-.96.09-.5-.06-1.02-.38-1.32-.27-.23-.51-.53-.47-.7.22-.9 2.41-2.22 4.09-2.22.12 0 .24.01.35.02.04.01.07.01.11.01.27 0 .52-.14.7-.4.21-.29.3-.7.24-1.1-.02-.13.06-.36.21-.59.7-1.11 2.73-2.3 4.63-2.3.41 0 .78.06 1.11.17.08.03.17.04.25.04.36 0 .69-.26.86-.7.43-1.11 2.29-2.01 4.16-2.01.77 0 1.46.15 1.99.43.12.06.24.09.36.09.23 0 .46-.11.65-.33.62-.73 2.28-1.28 3.87-1.28 1.25 0 2.03.33 2.35.64.17.18.37.26.57.26.2 0 .4-.08.57-.25.32-.31 1.11-.64 2.36-.64m0-1.27c-1.19 0-2.3.28-2.93.89-.63-.61-1.74-.89-2.93-.89-1.75 0-3.67.6-4.52 1.61-.67-.35-1.5-.52-2.35-.52-2.09 0-4.36 1-5.02 2.71-.42-.15-.88-.22-1.36-.22-2.74 0-6.09 2.23-5.79 4.39-.13-.02-.28-.03-.44-.03-2.56 0-6.88 2.7-4.22 5.21-2.83.58-6.92 4.09-2.31 6.34-4.01 1.87-3.06 6.4 1.24 7.18-2.85 2.85.23 6.76 3.51 6.76.7 0 1.41-.18 2.07-.58-.63 4.42 2.7 6.35 5.82 6.35 1.56 0 3.08-.48 4.01-1.38.65 3.55 3.44 4.91 6.22 4.91 2.64 0 5.28-1.24 6.06-3.01.78 1.78 3.42 3.01 6.06 3.01 2.78 0 5.57-1.37 6.22-4.91.94.9 2.45 1.38 4.01 1.38 3.12 0 6.45-1.93 5.82-6.35.66.4 1.37.58 2.07.58 3.28 0 6.36-3.9 3.51-6.76 4.3-.78 5.26-5.31 1.24-7.18 4.62-2.24.52-5.75-2.31-6.34 2.66-2.51-1.66-5.21-4.22-5.21-.16 0-.31.01-.46.03.31-2.16-3.05-4.39-5.79-4.39-.48 0-.94.07-1.36.22-.66-1.71-2.92-2.71-5.02-2.71-.85 0-1.67.17-2.35.52C38.6 2.6 36.67 2 34.93 2z" style="fill:#ffad33"/><path d="M32 41.52c-15.8 0-28.66-8.46-28.66-18.85S16.2 3.82 32 3.82s28.66 8.46 28.66 18.85S47.8 41.52 32 41.52zm0-36.51c-15.22 0-27.59 7.92-27.59 17.66S16.79 40.33 32 40.33c15.21 0 27.59-7.92 27.59-17.66S47.21 5.01 32 5.01z" style="fill:#ffad33"/><path d="M32 31.1c-7.15 0-12.98-3.78-12.98-8.44 0-4.65 5.82-8.44 12.98-8.44 7.15 0 12.98 3.78 12.98 8.44S39.15 31.1 32 31.1zm0-15.68c-6.55 0-11.88 3.25-11.88 7.25 0 3.99 5.33 7.25 11.88 7.25 6.55 0 11.88-3.25 11.88-7.25S38.55 15.42 32 15.42z" style="fill:#ffad33"/><path d="M32.55 30.51h-1.1c0-3.99-5.33-7.25-11.88-7.25v-1.19c6.55 0 11.88-3.25 11.88-7.25h1.1c0 4 5.33 7.25 11.88 7.25v1.19c-6.55 0-11.88 3.25-11.88 7.25zm-8.19-7.84c3.65.95 6.49 2.94 7.64 5.41 1.14-2.47 3.99-4.46 7.64-5.41-3.65-.95-6.49-2.94-7.64-5.41-1.14 2.47-3.99 4.46-7.64 5.41z" style="fill:#ffad33"/><path d="M32 25.75c-2.52 0-4.49-1.35-4.49-3.08s1.97-3.08 4.49-3.08c2.52 0 4.49 1.35 4.49 3.08s-1.97 3.08-4.49 3.08zm0-4.98c-2 0-3.39 1-3.39 1.89s1.39 1.9 3.39 1.9 3.39-1 3.39-1.89-1.39-1.9-3.39-1.9zm-12.02 14.7c-4.42 0-7.88-2.3-7.88-5.22 0-.33.25-.6.55-.6.3 0 .55.27.55.6 0 2.19 3.11 4.03 6.79 4.03.3 0 .55.27.55.6s-.26.59-.56.59zm24.04 0c-.3 0-.55-.27-.55-.6s.25-.6.55-.6c3.68 0 6.79-1.85 6.79-4.03 0-.33.25-.6.55-.6.3 0 .55.27.55.6 0 2.94-3.47 5.23-7.89 5.23z" style="fill:#ffad33"/><path d="M38.89 37.71c-1.52 0-2.99-.4-3.9-1.15-1.08-.89-1.28-2.18-.57-3.53.77-1.44 2.33-1.69 3.44-1.47 1.01.2 1.71.78 1.81 1.51.07.49-.08 1.2-1.2 1.87-.27.16-.6.05-.74-.24a.617.617 0 0 1 .22-.81c.51-.31.66-.56.65-.64-.02-.12-.32-.41-.93-.53-.82-.16-1.84.05-2.29.9-.44.83-.35 1.46.28 1.99 1.55 1.28 5.61 1.24 7.2-.5.85-.94 1.1-2.04.68-3.12-.8-2.08-4.3-4.5-11.54-4.5s-10.75 2.42-11.54 4.5c-.41 1.07-.17 2.18.68 3.12 1.59 1.74 5.65 1.79 7.2.5.63-.53.72-1.16.28-1.99-.45-.85-1.47-1.06-2.29-.9-.61.12-.91.41-.93.53-.01.08.13.33.65.64.27.16.36.52.22.81-.15.29-.48.4-.74.24-1.12-.67-1.28-1.39-1.2-1.87.11-.73.8-1.31 1.81-1.51 1.11-.22 2.67.03 3.44 1.47.72 1.35.51 2.63-.57 3.53-1.97 1.63-6.61 1.63-8.65-.61-1.17-1.28-1.5-2.89-.92-4.41.97-2.53 4.78-5.23 12.56-5.23 7.77 0 11.58 2.7 12.56 5.23.59 1.52.25 3.13-.91 4.41-1.11 1.21-2.97 1.76-4.76 1.76z" style="fill:#ffad33"/><path d="M29.7 39.85c-.49 0-1.04-.09-1.65-.3-.29-.1-.45-.44-.35-.75.09-.31.4-.48.69-.38 1.36.48 2.41.17 2.85-.35.11-.13.28-.4.16-.7-.17-.42-.86-.88-2.33-.91-.3-.01-.54-.28-.54-.61a.59.59 0 0 1 .56-.58c2.34.05 3.08 1.04 3.31 1.63.26.66.13 1.39-.36 1.97-.44.54-1.24.98-2.34.98z" style="fill:#ffad33"/><path d="M34.3 39.85c-1.1 0-1.9-.45-2.35-.98-.49-.58-.62-1.31-.36-1.97.23-.59.97-1.58 3.31-1.63.32.02.55.26.56.58.01.33-.23.6-.54.61-1.46.03-2.16.49-2.33.91-.12.3.05.57.16.7.43.52 1.48.83 2.85.35.29-.1.6.07.69.38.09.31-.06.65-.35.75-.6.21-1.15.3-1.64.3zm17.06-24.17c-.3 0-.55-.27-.55-.6 0-2.19-3.11-4.03-6.79-4.03-.3 0-.55-.27-.55-.6s.25-.6.55-.6c4.42 0 7.88 2.29 7.88 5.22.01.35-.24.61-.54.61zm-38.72 0c-.3 0-.55-.27-.55-.6 0-2.93 3.46-5.22 7.88-5.22.3 0 .55.27.55.6s-.25.6-.55.6c-3.68 0-6.79 1.85-6.79 4.03.01.33-.23.59-.54.59z" style="fill:#ffad33"/><path d="M32 19.03c-7.77 0-11.58-2.7-12.56-5.23-.59-1.52-.25-3.13.92-4.41 2.04-2.24 6.68-2.24 8.65-.61 1.08.89 1.29 2.18.57 3.53-.77 1.44-2.33 1.69-3.44 1.47-1.01-.2-1.71-.78-1.81-1.51-.07-.48.08-1.2 1.2-1.87.27-.16.6-.05.74.24.15.29.05.65-.22.81-.51.31-.66.56-.65.64.02.12.32.41.93.53.82.16 1.84-.05 2.29-.9.44-.83.35-1.46-.28-1.99-1.55-1.28-5.61-1.24-7.2.5-.85.94-1.1 2.04-.68 3.12.8 2.08 4.3 4.5 11.54 4.5 7.24 0 10.74-2.42 11.54-4.5.41-1.07.17-2.18-.68-3.12-1.59-1.74-5.65-1.79-7.2-.5-.63.53-.72 1.16-.28 1.99.45.85 1.47 1.05 2.29.9.61-.12.91-.41.93-.53.01-.08-.13-.33-.65-.64-.27-.16-.36-.52-.22-.81.15-.29.48-.4.74-.24 1.12.67 1.27 1.39 1.2 1.87-.11.73-.8 1.31-1.81 1.51-1.1.22-2.67-.03-3.44-1.47-.72-1.35-.51-2.64.57-3.53 1.97-1.63 6.61-1.63 8.65.61 1.17 1.28 1.5 2.89.91 4.41-.97 2.53-4.78 5.23-12.55 5.23z" style="fill:#ffad33"/><path d="M34.91 10.06h-.01c-2.34-.05-3.08-1.04-3.31-1.63-.26-.66-.13-1.39.36-1.97.65-.78 2.05-1.36 3.99-.68.29.1.45.44.35.75-.09.31-.4.49-.69.38-1.36-.48-2.41-.17-2.85.35-.11.13-.28.4-.16.7.17.42.86.87 2.33.91.3.01.54.28.54.61 0 .32-.25.58-.55.58z" style="fill:#ffad33"/><path d="M29.08 10.06c-.3 0-.54-.26-.55-.58-.01-.33.23-.6.54-.61 1.46-.03 2.16-.49 2.33-.91.12-.3-.05-.57-.16-.7-.43-.52-1.48-.83-2.85-.35-.29.1-.6-.07-.69-.38-.09-.31.06-.65.35-.75 1.95-.68 3.34-.1 3.99.68.49.58.62 1.32.36 1.97-.23.59-.97 1.58-3.31 1.63h-.01zM15.56 31.02c-1.42 0-2.83-.22-4.12-.69-2.39-.87-3.13-2.62-2.8-3.97.43-1.76 2.66-3.27 6.56-2.45 1.77.38 2.28 1.15 2.39 1.72.12.58-.14 1.18-.68 1.59-.82.62-2.37.85-3.84-.14-.26-.17-.34-.54-.18-.82.16-.28.5-.36.75-.19 1.12.75 2.18.52 2.63.18.16-.13.26-.27.24-.37-.03-.17-.4-.57-1.53-.8-3.07-.65-4.98.3-5.29 1.58-.24 1 .58 1.99 2.09 2.54 3.4 1.24 7.8.63 10.45-1.45 1.63-1.28 2.5-3.04 2.5-5.09s-.86-3.81-2.5-5.09c-2.65-2.07-7.05-2.68-10.45-1.45-1.51.55-2.33 1.54-2.09 2.54.31 1.28 2.23 2.23 5.29 1.58 1.13-.24 1.49-.63 1.53-.8.02-.1-.07-.24-.24-.37-.44-.34-1.51-.57-2.63.18-.26.17-.6.09-.75-.19-.16-.28-.08-.65.18-.82 1.47-.98 3.02-.76 3.84-.14.54.41.79 1.01.68 1.59-.11.58-.62 1.35-2.39 1.72-3.9.82-6.14-.69-6.56-2.45-.33-1.35.41-3.11 2.8-3.97 3.71-1.35 8.53-.67 11.44 1.61 1.93 1.51 2.95 3.6 2.95 6.05s-1.02 4.54-2.95 6.05c-1.9 1.52-4.63 2.32-7.32 2.32z" style="fill:#ffad33"/><path d="M8.37 23.26c-1.26 0-2.56-.44-3.03-1.33-.2-.37-.41-1.14.4-2.06a.52.52 0 0 1 .78-.02c.22.23.23.6.02.84-.24.27-.32.49-.24.64.28.53 1.79.93 3 .62.54-.14 1.19-.45 1.23-1.16.02-.33.28-.58.58-.56.3.02.53.3.52.63-.06 1.11-.82 1.93-2.08 2.25-.37.1-.77.15-1.18.15z" style="fill:#ffad33"/><path d="M6.14 25.64c-.14 0-.29-.06-.4-.18-.81-.92-.6-1.68-.4-2.05.62-1.17 2.71-1.56 4.21-1.19 1.26.32 2.02 1.14 2.08 2.25.02.33-.21.61-.52.63-.3.05-.56-.23-.58-.56-.04-.71-.69-1.03-1.23-1.16-1.22-.31-2.72.08-3 .62-.08.15 0 .37.24.64.21.24.2.61-.02.84-.11.11-.24.16-.38.16zm42.3 5.38c-2.69 0-5.42-.8-7.33-2.3-1.93-1.51-2.95-3.6-2.95-6.05s1.02-4.54 2.95-6.05c2.92-2.28 7.73-2.96 11.44-1.61 2.39.87 3.13 2.62 2.8 3.97-.43 1.76-2.66 3.27-6.56 2.45-1.77-.37-2.28-1.14-2.39-1.72-.12-.58.14-1.18.68-1.59.82-.62 2.37-.85 3.84.14.26.17.34.54.18.82-.16.28-.5.37-.75.19-1.12-.75-2.18-.52-2.63-.18-.16.13-.26.27-.24.37.03.17.4.57 1.53.8 3.06.65 4.98-.3 5.29-1.58.24-1-.58-1.99-2.09-2.54-3.4-1.23-7.8-.63-10.46 1.45-1.63 1.28-2.5 3.04-2.5 5.09s.86 3.81 2.5 5.09c2.65 2.07 7.05 2.68 10.45 1.45 1.51-.55 2.33-1.54 2.09-2.54-.31-1.28-2.23-2.23-5.29-1.58-1.13.24-1.49.63-1.53.8-.02.1.07.25.24.37.44.34 1.51.58 2.63-.18.26-.17.6-.09.75.19.16.28.08.65-.18.82-1.47.98-3.02.76-3.84.14-.54-.41-.79-1.01-.68-1.59.11-.58.62-1.35 2.39-1.72 3.9-.82 6.14.69 6.56 2.45.33 1.35-.41 3.11-2.8 3.97-1.27.45-2.68.67-4.1.67z" style="fill:#ffad33"/><path d="M57.86 25.64c-.14 0-.27-.05-.38-.17a.628.628 0 0 1-.02-.84c.24-.27.32-.49.24-.64-.28-.53-1.79-.93-3-.62-.54.14-1.19.45-1.23 1.16-.02.33-.29.6-.58.56-.3-.02-.53-.3-.52-.63.06-1.11.82-1.93 2.08-2.25 1.5-.38 3.59.01 4.21 1.19.2.37.41 1.14-.4 2.05a.51.51 0 0 1-.4.19z" style="fill:#ffad33"/><path d="M55.63 23.26c-.41 0-.81-.05-1.18-.14-1.26-.32-2.02-1.14-2.08-2.25-.02-.33.21-.61.52-.63.3-.02.56.23.58.56.04.71.69 1.03 1.23 1.16 1.22.31 2.72-.09 3-.62.08-.15 0-.37-.24-.64-.21-.24-.2-.61.02-.84a.52.52 0 0 1 .78.02c.81.92.6 1.68.4 2.06-.47.87-1.78 1.32-3.03 1.32z" style="fill:#ffad33"/></svg>