<svg xmlns="http://www.w3.org/2000/svg" xml:space="preserve" viewBox="0 0 64 64"><linearGradient id="a" x1="2" x2="62" y1="30.314" y2="30.314" gradientUnits="userSpaceOnUse"><stop offset=".303" style="stop-color:#facd71"/><stop offset=".536" style="stop-color:#f8ca6f"/><stop offset=".681" style="stop-color:#f3c268"/><stop offset=".802" style="stop-color:#e9b35c"/><stop offset=".91" style="stop-color:#dc9f4c"/><stop offset="1" style="stop-color:#cc8739"/></linearGradient><path fill="url(#a)" d="M27.151 35.2s-11.09 8.735-20.762 8.702c-9.327-.032-1.417-17.265 2.026-20.997C16.706 13.92 30.14 4.545 41.98 2.118c10.767-2.206 38.518 26.773 1.039 51.755-13.549 8.427-15.762 3.598-16.725 1.045-.964-2.556-2.504-11.226.857-19.718z"/><linearGradient id="b" x1="29.177" x2="60.943" y1="41.31" y2="41.31" gradientUnits="userSpaceOnUse"><stop offset="0" style="stop-color:#6b0b00"/><stop offset=".187" style="stop-color:#6e0f02"/><stop offset=".366" style="stop-color:#781a07"/><stop offset=".543" style="stop-color:#892e10"/><stop offset=".718" style="stop-color:#a1491d"/><stop offset=".89" style="stop-color:#bf6c2e"/><stop offset="1" style="stop-color:#d6863a"/></linearGradient><path fill="url(#b)" d="M60.943 25.614c-2.199 21.765-28.731 32.142-31.075 31.349-5.851-3.882 27.254-9.9 31.075-31.349z"/><linearGradient id="c" x1="30.97" x2="19.012" y1="27.724" y2="22.166" gradientUnits="userSpaceOnUse"><stop offset="0" style="stop-color:#c7792e"/><stop offset=".218" style="stop-color:#e09741;stop-opacity:.6169"/><stop offset=".435" style="stop-color:#f4af50;stop-opacity:.2359"/><stop offset=".57" style="stop-color:#fbb855;stop-opacity:0"/></linearGradient><path fill="url(#c)" d="M34.553 12.287c2.443-3.204 5.616-3.631 2.579.706-5.954 8.502-8.268 16.856-10.057 22.401 0 0-4.271 3.485-11.371 6.417C6.239 29.33 27.879 21.04 34.553 12.287z"/><linearGradient id="d" x1="6.381" x2="3.549" y1="42.655" y2="35.048" gradientUnits="userSpaceOnUse"><stop offset="0" style="stop-color:#6b0b00"/><stop offset=".134" style="stop-color:#80230b"/><stop offset=".405" style="stop-color:#a54e1f"/><stop offset=".649" style="stop-color:#c06c2e"/><stop offset=".855" style="stop-color:#d07f37"/><stop offset="1" style="stop-color:#d6863a"/></linearGradient><path fill="url(#d)" d="M5.35 43.146c-.61.34-6.459-1.122-.721-13.815-3.848 10.6 1.54 13.359.721 13.815z"/><linearGradient id="e" x1="41.785" x2="52.847" y1="45.688" y2="60.732" gradientUnits="userSpaceOnUse"><stop offset=".079" style="stop-color:#aeb3b5"/><stop offset=".156" style="stop-color:#bcc1c4"/><stop offset=".297" style="stop-color:#cfd5d7"/><stop offset=".459" style="stop-color:#dde3e5"/><stop offset=".657" style="stop-color:#e5ebee"/><stop offset="1" style="stop-color:#e7edf0"/></linearGradient><path fill="url(#e)" d="M58.93 54c-7.904-4-12.951-8.735-12.951-8.735-4.854 2.99-10.904 6.29-10.904 6.29S40.168 59.111 48.521 62c0 0 5.577-2.86 10.409-8z"/><radialGradient id="f" cx="1.845" cy="232.705" r="3.996" gradientTransform="matrix(1.2163 .4291 -1.8993 4.9895 477.725 -1135.697)" gradientUnits="userSpaceOnUse"><stop offset="0" style="stop-color:#fff;stop-opacity:.3"/><stop offset="1" style="stop-color:#fff;stop-opacity:0"/></radialGradient><path fill="url(#f)" d="M30.061 46.994C22.7 44.396 38.555 2.749 45.917 5.347c7.36 2.596-8.495 44.244-15.856 41.647z"/><radialGradient id="g" cx="-64.481" cy="274.213" r="3.484" gradientTransform="matrix(1.0284 .7583 -2.568 3.228 784.966 -811.281)" gradientUnits="userSpaceOnUse"><stop offset="0" style="stop-color:#fff;stop-opacity:.3"/><stop offset="1" style="stop-color:#fff;stop-opacity:0"/></radialGradient><path fill="url(#g)" d="M5.138 36.727c-5.426-4.001 13.264-27.489 18.69-23.488 5.425 3.999-13.264 27.489-18.69 23.488z"/></svg>