<svg xmlns="http://www.w3.org/2000/svg" xml:space="preserve" viewBox="0 0 64 64"><path fill="#2B4D28" d="M32.004 30.975c27.127 5.455 5.837 22.998-6.494 11.441-21.297-4.124-4.847-26.97 6.494-11.441z"/><path fill="#92C932" d="M18.773 32.633c3.615 7.589-4.997 8.792-4.997 24.491.895 5.125 12.172 6.906 14.912 1.92-3.882-7.364 4.507-15.161 10.858-15.554 7.285-.497 3.819-2.829 3.43-3.697-4.745-.355-10.636.391-15.099 3.271 1.82-3.31 5.748-6.119 10.456-8.292-11.955-9.006-8.35.142-13.706 4.483-1.643-10.926-1.928-9.683-5.854-6.622z"/><path fill="#7AB51D" d="M27.875 43.064c-.963.785-1.75 2.918-1.75 3.419 4.214-6.018 17.026-5.625 16.848-6.693-3.891-1.032-13.169.819-15.098 3.274zm-14.099 14.06c.892 5.125 12.171 6.906 14.912 1.92-2.098-4.976-12.985-4.373-14.912-1.92z"/><path fill="#7AB51D" d="M15.274 57.445c-.964.784 2.918.46 2.918.961-.882-2.956-1.323-4.414-.787-7.729-1.572 2.463-.204 4.314-2.131 6.768z"/><path fill="#7AB51D" d="M17.201 59.972c-.963.785 2.918.463 2.918.962-.883-2.956-1.168-5.552-.631-8.869-1.57 2.46-.36 5.454-2.287 7.907zm9.939-1.225c.962.786-2.918.464-2.918.962.881-2.957 0-4.913 3.068-8.869-1.736 4.168-2.08 5.454-.15 7.907zM21.7 41.464c-.964.783 1.964-1.068 2.927-2.208-.178-6.196-2.383-14.105-5.676-7.298-2.119-.563.885 2.59.707 4.095 1.408.736 2.184-1.08 2.184-1.08 1.418 3.391.424 5.767-.142 6.491z"/><path fill="#C5DCA8" d="M14.838 57.34c.765 4.395 10.438 5.922 12.786 1.646-1.797-4.265-11.132-3.75-12.786-1.646z"/><radialGradient id="a" cx="340.006" cy="-2.318" r="14.441" gradientTransform="matrix(.6717 -.9004 .7818 .5822 -212.52 325.864)" gradientUnits="userSpaceOnUse"><stop offset="0" style="stop-color:#438f31"/><stop offset=".302" style="stop-color:#408131"/><stop offset=".876" style="stop-color:#395b2f"/><stop offset="1" style="stop-color:#37522f"/></radialGradient><path fill="url(#a)" d="M14.989 33.648c-3.038 1.804-8.415 1.33-8.473-4.235-2.942-1.943-4.065-8.381.897-10.511 9.12-21.49 29.206 17.885 7.576 14.746z"/><radialGradient id="b" cx="17.29" cy="2.616" r="15.044" gradientTransform="matrix(.975 0 0 .9742 4.255 8.909)" gradientUnits="userSpaceOnUse"><stop offset="0" style="stop-color:#438f31"/><stop offset=".302" style="stop-color:#408131"/><stop offset=".876" style="stop-color:#395b2f"/><stop offset="1" style="stop-color:#37522f"/></radialGradient><path fill="url(#b)" d="M17.5 26.446c-3.503.486-8.377-5.881-5.447-10.508-1.816-4.233-.687-10.518 5.107-10 1.079-3.887 9.246-5.356 9.969-2.29C49.444 2.22 29.585 38.462 17.5 26.446z"/><radialGradient id="c" cx="37.864" cy="4" r="19.107" gradientTransform="matrix(.975 0 0 .9742 4.255 8.909)" gradientUnits="userSpaceOnUse"><stop offset="0" style="stop-color:#438f31"/><stop offset=".302" style="stop-color:#408131"/><stop offset=".876" style="stop-color:#395b2f"/><stop offset="1" style="stop-color:#37522f"/></radialGradient><path fill="url(#c)" d="M57.767 23.145c9.278 19.791-47.58 8.197-26.203-10.433.519-5.184 5.016-9.894 12.602-7.878 3.618-2.145 9.524.663 10.791 5.719 4.584 1.856 5.409 8.378 2.81 12.592z"/><radialGradient id="d" cx="-95.661" cy="372.415" r="12.185" gradientTransform="matrix(.5727 .9663 -1.0527 .6229 495.544 -106.776)" gradientUnits="userSpaceOnUse"><stop offset="0" style="stop-color:#438f31"/><stop offset=".302" style="stop-color:#408131"/><stop offset=".876" style="stop-color:#395b2f"/><stop offset="1" style="stop-color:#37522f"/></radialGradient><path fill="url(#d)" d="M52.35 47.194c-.878 4.737-11.223 3.063-10.852-2.072-10.959-9.25-1.125-21.557 6.745-18.413 3.632-1.892 8.864-.208 8.989 5.02 2.499.813 3.852 6.049 1.685 8.899 1.173 2.361-3.368 7.173-6.567 6.566z"/><radialGradient id="e" cx="51.917" cy="16.37" r="14.851" gradientTransform="matrix(1.1239 0 0 .9742 -25.17 8.909)" gradientUnits="userSpaceOnUse"><stop offset="0" style="stop-color:#438f31"/><stop offset=".302" style="stop-color:#408131"/><stop offset=".876" style="stop-color:#395b2f"/><stop offset="1" style="stop-color:#37522f"/></radialGradient><path fill="url(#e)" d="M45.649 29.165c1.814 5.999-4.605 12.673-10.678 9.62-3.949 1.046-9.281.14-10.172-4.194-2.596-1.112-5.397-6.284-1.419-10.131.346-4.783 4.789-7.439 10.427-5.654 3.799-1.577 9.166.094 8.676 3.144 3.328.416 5.305 4.496 3.166 7.215z"/><path fill="#6CC265" d="M22.625 4.667c0 1.333-2 1.333-2 0s2-1.334 2 0zm.769 4.037c0 1.333-2 1.333-2 0s2-1.333 2 0z" opacity=".3"/><path fill="#2B4D28" d="M22.394 12.162c0 1.333-2 1.333-2 0s2-1.333 2 0z" opacity=".3"/><path fill="#6CC265" d="M19.513 14.446c0 1.333-2 1.333-2 0s2-1.333 2 0zm-5.179-4.191c0 1.333-2 1.333-2 0s2-1.333 2 0z" opacity=".3"/><path fill="#2B4D28" d="M26.125 5.838c0 1.333-2 1.333-2 0s2-1.333 2 0zM16.5 8.198c0 1.333-2 1.333-2 0s2-1.333 2 0zm-.657 4.964c0 1.333-2 1.333-2 0s2-1.333 2 0zm11.014-3.964c0 1.333-2 1.333-2 0s2-1.333 2 0zM15.5 16.349c0 1.333-2 1.333-2 0s2-1.333 2 0zm4.884-9.151c0 1.333-2 1.333-2 0s2-1.333 2 0zm-1.261 3.057c0 1.333-2 1.333-2 0s2-1.333 2 0z" opacity=".3"/><path fill="#6CC265" d="M46.931 9.912c0 1.333-2 1.333-2 0s2-1.333 2 0zm-4.19 3.25c0 1.333-2 1.333-2 0s2-1.333 2 0zm-1.379-5.964c0 1.333-2 1.333-2 0s2-1.333 2 0zm-4.351 4.464c0 1.333-2 1.333-2 0s2-1.333 2 0z" opacity=".3"/><path fill="#2B4D28" d="M43.685 10.255c0 1.333-2 1.333-2 0s2-1.333 2 0zm-4.674 4.191c0 1.333-2 1.333-2 0s2-1.333 2 0zm6.674-7.779c0 1.333-2 1.333-2 0s2-1.334 2 0z" opacity=".3"/><path fill="#6CC265" d="M51.945 8.432c0 1.333-2 1.333-2 0s2-1.333 2 0z" opacity=".3"/><path fill="#2B4D28" d="M40.362 10.432c0 1.333-2 1.333-2 0s2-1.333 2 0zm-2.583-2.594c0 1.333-2 1.333-2 0s2-1.333 2 0zm-3.229 5.824c0 1.333-2 1.333-2 0s2-1.333 2 0zm11.381-.625c0 1.333-2 1.333-2 0s2-1.333 2 0zm2.942-5.839c0 1.333-2 1.333-2 0s2-1.333 2 0z" opacity=".3"/><path fill="#6CC265" d="M32.623 29.338c0 1.333-2 1.333-2 0s2-1.333 2 0z" opacity=".3"/><path fill="#2B4D28" d="M27.72 23.162c0 1.333-2 1.333-2 0s2-1.333 2 0z" opacity=".3"/><path fill="#6CC265" d="M7.748 22.162c0 1.333-2 1.333-2 0s2-1.333 2 0zm2.781-2.532c0 1.333-2 1.333-2 0s2-1.333 2 0z" opacity=".3"/><path fill="#2B4D28" d="M10.529 23.162c0 1.333-2 1.333-2 0s2-1.333 2 0zm-.749 4.796c0 1.333-2 1.333-2 0s2-1.333 2 0z" opacity=".3"/><path fill="#6CC265" d="M11.966 25.631c0 1.333-2 1.333-2 0s2-1.333 2 0z" opacity=".3"/><path fill="#2B4D28" d="M7.248 25.958c0 1.333-2 1.333-2 0s2-1.333 2 0z" opacity=".3"/><path fill="#6CC265" d="M35.55 20.98c0 1.333-2 1.333-2 0s2-1.333 2 0zm15.944 10.937c0 1.333-2 1.333-2 0s2-1.333 2 0z" opacity=".3"/><path fill="#2B4D28" d="M50.182 28.891c0 1.333-2 1.333-2 0s2-1.333 2 0z" opacity=".3"/><path fill="#6CC265" d="M54.596 28.891c0 1.333-2 1.333-2 0s2-1.333 2 0z" opacity=".3"/><path fill="#2B4D28" d="M49.043 34.589c0 1.333-2 1.333-2 0s2-1.333 2 0zm-.861-3.228c0 1.333-2 1.333-2 0s2-1.333 2 0zm6.639 1c0 1.333-2 1.333-2 0s2-1.333 2 0zm-2.639 3.134c0 1.333-2 1.333-2 0s2-1.333 2 0zm2.639 1.094c0 1.333-2 1.333-2 0s2-1.333 2 0z" opacity=".3"/><path fill="#6CC265" d="M57.223 33.918c0 1.333-2 1.333-2 0 0-1.334 2-1.334 2 0zM29.72 20.63c0 1.333-2 1.333-2 0s2-1.333 2 0z" opacity=".3"/><path fill="#2B4D28" d="M33.342 26.338c0 1.333-2 1.333-2 0s2-1.333 2 0zm5.065-2.484c0 1.333-2 1.333-2 0s2-1.333 2 0z" opacity=".3"/><path fill="#6CC265" d="M37.17 27.338c0 1.333-2 1.333-2 0s2-1.333 2 0z" opacity=".3"/><path fill="#2B4D28" d="M35.17 23.854c0 1.333-2 1.333-2 0s2-1.333 2 0z" opacity=".3"/><path fill="#6CC265" d="M31.169 23.646c0 1.333-2 1.333-2 0s2-1.333 2 0z" opacity=".3"/><path fill="#2B4D28" d="M27.197 29.891c0 1.333-2 1.333-2 0s2-1.333 2 0zm5.973-8.729c0 1.333-2 1.333-2 0s2-1.333 2 0zm-3.45 5.796c0 1.333-2 1.333-2 0s2-1.333 2 0z" opacity=".3"/><path fill="#6CC265" d="M27.125 26.162c0 1.333-2 1.333-2 0s2-1.333 2 0z" opacity=".3"/><path fill="#C5DCA8" d="M14.769 49.178c-.593-.26-.056-.99-.212-1.544-.203-.719.863.527 2.019-.236 1.315-.868.833 1.145 3.125.639 2.281-.504 5.757 1.206 3.984 1.141-5.969-.22-7.739.516-8.916 0z"/><path fill="#7AB51D" d="M14.581 49.537c-.593-.26.156-1.244 0-1.798-.203-.719.698.727 1.852.277 1.469-.571.773 1.045 3.065.539 2.281-.504 5.96.687 4.188.621-5.97-.218-7.928.878-9.105.361z"/><path fill="#C5DCA8" d="M29.681 49.416c.441-.021 1.008-.214 1.158-.708.205-.672-.859-.111-.957-.892-.11-.887-1.088.534-1.886-.361-.793-.891-3.489-.646-2.599-.25 3.001 1.338 3.409 2.253 4.284 2.211z"/><path fill="#7AB51D" d="M29.513 49.677c.656-.563 1.203-.312 1.326-.844.152-.654-.976-.004-1.26-.58-.363-.733-1 .484-1.797-.411-.793-.892-3.275-1.033-2.385-.637 3.001 1.338 3.241 2.515 4.116 2.472zm-.586-8.189c.656-.563 1.241-.315 1.365-.848.151-.654-1.021.326-1.305-.25-.363-.733-1.037.521-1.834-.375-.793-.892-3.012.612-2.049.459 2.627-.416 2.947 1.057 3.823 1.014z"/><path fill="#C5DCA8" d="M17.794 41.824c-.3-.323-.26-.872-.329-1.384-.09-.667.435.601 1.049.109.698-.558.406 1.143 1.602 1.059 1.189-.084 2.949 1.975 2.035 1.636-3.081-1.137-3.759-.778-4.357-1.42z"/><path fill="#7AB51D" d="M17.464 42.152c-.301-.322.081-1.103.012-1.615-.089-.666.345.751.951.537.772-.271.378 1.045 1.573.96 1.19-.084 3.066 1.549 2.152 1.21-3.082-1.137-4.091-.45-4.688-1.092z"/></svg>