<svg xmlns="http://www.w3.org/2000/svg" xml:space="preserve" viewBox="0 0 64 64"><linearGradient id="a" x1="-726" x2="-726" y1="738" y2="678" gradientTransform="translate(758 -676)" gradientUnits="userSpaceOnUse"><stop offset="0" style="stop-color:#05f"/><stop offset=".976" style="stop-color:#0ef"/></linearGradient><circle cx="32" cy="32" r="30" fill="url(#a)"/><path fill="#75D6FF" d="M49.139 38.206c-5.25-2.849-29.332-3.033-34.351 0-4.099 2.478-3.328 8.035 0 10.858 4.714 4.002 29.313 3.822 34.351 0 3.447-2.612 4.179-8.591 0-10.858z"/><path fill="#013366" d="M49.139 37.206c-5.25-2.849-29.332-3.033-34.351 0-4.099 2.478-3.328 8.035 0 10.858 4.714 4.002 29.313 3.822 34.351 0 3.447-2.612 4.179-8.591 0-10.858z"/><linearGradient id="b" x1="-548" x2="-516" y1="260.511" y2="260.511" gradientTransform="matrix(1 0 0 -1 564 300)" gradientUnits="userSpaceOnUse"><stop offset="0" style="stop-color:#cfd7e6"/><stop offset=".037" style="stop-color:#dae0ec"/><stop offset=".126" style="stop-color:#eef1f6"/><stop offset=".215" style="stop-color:#fbfcfd"/><stop offset=".3" style="stop-color:#fff"/><stop offset=".7" style="stop-color:#fff"/><stop offset=".785" style="stop-color:#fbfcfd"/><stop offset=".874" style="stop-color:#eef1f6"/><stop offset=".963" style="stop-color:#dae0ec"/><stop offset="1" style="stop-color:#cfd7e6"/></linearGradient><path fill="url(#b)" d="M46.506 38.037C43.996 37.659 38.689 37 32 37c-6.688 0-11.994.659-14.504 1.037-1.479.22-1.568.759-1.467 1.52.063.45.158 1 .303 1.588.162.651.291.823 1.447.834h28.443c1.155-.011 1.28-.183 1.446-.834.146-.588.242-1.138.299-1.588.109-.761.015-1.3-1.461-1.52z"/><linearGradient id="c" x1="-89.664" x2="-59.665" y1="117.179" y2="117.179" gradientTransform="matrix(-1 0 0 1 -42.664 -70.668)" gradientUnits="userSpaceOnUse"><stop offset="0" style="stop-color:#cfd7e6"/><stop offset=".037" style="stop-color:#dae0ec"/><stop offset=".126" style="stop-color:#eef1f6"/><stop offset=".215" style="stop-color:#fbfcfd"/><stop offset=".3" style="stop-color:#fff"/><stop offset=".7" style="stop-color:#fff"/><stop offset=".785" style="stop-color:#fbfcfd"/><stop offset=".874" style="stop-color:#eef1f6"/><stop offset=".963" style="stop-color:#dae0ec"/><stop offset="1" style="stop-color:#cfd7e6"/></linearGradient><path fill="url(#c)" d="M18.4 47.964C20.754 48.341 25.729 49 32 49c6.27 0 11.244-.659 13.598-1.036 1.385-.22 1.469-.76 1.375-1.521-.059-.45-.147-1-.285-1.588-.149-.652-.271-.823-1.354-.834H18.668c-1.084.011-1.201.182-1.356.834a14.422 14.422 0 0 0-.279 1.588c-.105.761-.017 1.301 1.367 1.521z"/><ellipse cx="22" cy="25" fill="#013366" rx="4" ry="5"/><ellipse cx="42" cy="25" fill="#013366" rx="4" ry="5"/><linearGradient id="d" x1="-545.727" x2="-545.727" y1="236" y2="251.027" gradientTransform="matrix(1 0 0 -1 564 300)" gradientUnits="userSpaceOnUse"><stop offset=".43" style="stop-color:#a1e4ff"/><stop offset="1" style="stop-color:#c9edff"/></linearGradient><path fill="url(#d)" d="M16.391 50.02C16.045 53.077 18.277 64 18.277 64s2.133-10.957 1.896-13.98c-.105-1.344-3.616-1.448-3.782 0z"/><linearGradient id="e" x1="-542.907" x2="-542.907" y1="237.91" y2="250.67" gradientTransform="matrix(1 0 0 -1 564 300)" gradientUnits="userSpaceOnUse"><stop offset=".43" style="stop-color:#a1e4ff"/><stop offset="1" style="stop-color:#c9edff"/></linearGradient><path fill="url(#e)" d="M19.564 50.003c-.267 2.341 1.621 12.087 1.621 12.087s1.629-9.479 1.448-11.793c-.078-1.027-2.944-1.401-3.069-.294z"/><linearGradient id="f" x1="-522.273" x2="-522.273" y1="236" y2="250.634" gradientTransform="matrix(1 0 0 -1 564 300)" gradientUnits="userSpaceOnUse"><stop offset=".43" style="stop-color:#a1e4ff"/><stop offset="1" style="stop-color:#c9edff"/></linearGradient><path fill="url(#f)" d="M39.682 50.385C39.305 53.363 41.732 64 41.732 64s2.315-10.671 2.061-13.615c-.115-1.308-3.934-1.408-4.111 0z"/><linearGradient id="g" x1="-519.113" x2="-519.113" y1="239.938" y2="250.634" gradientTransform="matrix(1 0 0 -1 564 300)" gradientUnits="userSpaceOnUse"><stop offset=".43" style="stop-color:#a1e4ff"/><stop offset="1" style="stop-color:#c9edff"/></linearGradient><path fill="url(#g)" d="M43.322 50.146c-.287 2.277 1.57 9.916 1.57 9.916s1.772-7.664 1.575-9.916c-.084-1.001-3.008-1.078-3.145 0z"/><linearGradient id="h" x1="-527.687" x2="-527.687" y1="240.324" y2="250.246" gradientTransform="matrix(1 0 0 -1 564 300)" gradientUnits="userSpaceOnUse"><stop offset=".43" style="stop-color:#a1e4ff"/><stop offset="1" style="stop-color:#c9edff"/></linearGradient><path fill="url(#h)" d="M35.178 50.384c-.209 1.845 1.139 9.292 1.139 9.292s1.285-7.469 1.144-9.292c-.066-.81-2.184-.87-2.283 0z"/><linearGradient id="i" x1="-539.343" x2="-539.343" y1="240.324" y2="250.246" gradientTransform="matrix(1 0 0 -1 564 300)" gradientUnits="userSpaceOnUse"><stop offset=".43" style="stop-color:#a1e4ff"/><stop offset="1" style="stop-color:#c9edff"/></linearGradient><path fill="url(#i)" d="M23.521 50.384c-.209 1.845 1.139 9.292 1.139 9.292s1.285-7.469 1.143-9.292c-.065-.81-2.182-.87-2.282 0z"/><linearGradient id="j" x1="-536.219" x2="-536.219" y1="243.316" y2="249.962" gradientTransform="matrix(1 0 0 -1 564 300)" gradientUnits="userSpaceOnUse"><stop offset=".43" style="stop-color:#a1e4ff"/><stop offset="1" style="stop-color:#c9edff"/></linearGradient><path fill="url(#j)" d="M27.021 50.46c-.142 1.233.762 6.224.762 6.224s.861-5.002.766-6.224c-.043-.542-1.461-.583-1.528 0z"/><linearGradient id="k" x1="-555.714" x2="-555.714" y1="273.118" y2="287.378" gradientTransform="matrix(1 0 0 -1 564 300)" gradientUnits="userSpaceOnUse"><stop offset=".43" style="stop-color:#a1e4ff"/><stop offset="1" style="stop-color:#c9edff"/></linearGradient><path fill="url(#k)" d="M6.313 15.2c-.36 2.465 2.115 11.682 2.115 11.682s2.094-11.071 1.848-13.509c-.182-1.792-3.688-.051-3.963 1.827z"/><linearGradient id="l" x1="-551.64" x2="-551.64" y1="270.924" y2="293.519" gradientTransform="matrix(1 0 0 -1 564 300)" gradientUnits="userSpaceOnUse"><stop offset=".43" style="stop-color:#a1e4ff"/><stop offset="1" style="stop-color:#c9edff"/></linearGradient><path fill="url(#l)" d="M9.002 10.531c-.574 3.91 3.357 18.545 3.357 18.545s3.776-17.442 3.389-21.311c-.303-2.947-6.295-.312-6.746 2.766z"/><linearGradient id="m" x1="-508.484" x2="-508.484" y1="264.93" y2="289.231" gradientTransform="matrix(1 0 0 -1 564 300)" gradientUnits="userSpaceOnUse"><stop offset=".43" style="stop-color:#a1e4ff"/><stop offset="1" style="stop-color:#c9edff"/></linearGradient><path fill="url(#m)" d="M53.297 11.477c-.412 2.84 2.742 23.594 2.742 23.594s1.701-15.703 1.732-18.524c.028-2.547-4.101-7.649-4.474-5.07z"/><linearGradient id="n" x1="-519.477" x2="-519.477" y1="244.629" y2="250.246" gradientTransform="matrix(1 0 0 -1 564 300)" gradientUnits="userSpaceOnUse"><stop offset="0" style="stop-color:#fff;stop-opacity:0"/><stop offset="1" style="stop-color:#fff;stop-opacity:.6"/></linearGradient><path fill="url(#n)" d="M43.826 50.164c-.128 1.196.699 5.207.699 5.207s.789-4.024.701-5.207c-.037-.526-1.338-.566-1.4 0z"/><linearGradient id="o" x1="-522.705" x2="-522.705" y1="241.504" y2="250.059" gradientTransform="matrix(1 0 0 -1 564 300)" gradientUnits="userSpaceOnUse"><stop offset="0" style="stop-color:#fff;stop-opacity:0"/><stop offset="1" style="stop-color:#fff;stop-opacity:.6"/></linearGradient><path fill="url(#o)" d="M40.23 50.565c-.194 1.822 1.067 7.931 1.067 7.931s1.206-6.13 1.073-7.931c-.057-.801-2.045-.862-2.14 0z"/><linearGradient id="p" x1="11.465" x2="11.465" y1="20.243" y2="7.707" gradientUnits="userSpaceOnUse"><stop offset="0" style="stop-color:#fff;stop-opacity:0"/><stop offset="1" style="stop-color:#fff;stop-opacity:.8"/></linearGradient><path fill="url(#p)" d="M9.602 9.954c-.318 2.169 1.863 10.289 1.863 10.289s2.095-9.678 1.88-11.824c-.168-1.635-3.493-.173-3.743 1.535z"/><linearGradient id="q" x1="7.607" x2="7.607" y1="21.634" y2="13.923" gradientUnits="userSpaceOnUse"><stop offset="0" style="stop-color:#fff;stop-opacity:0"/><stop offset="1" style="stop-color:#fff;stop-opacity:.8"/></linearGradient><path fill="url(#q)" d="M6.729 15.306c-.149 1.334.878 6.328.878 6.328s.986-5.952.885-7.272c-.079-1.007-1.644-.107-1.763.944z"/><linearGradient id="r" x1="1138.944" x2="1138.944" y1="24.246" y2="12.463" gradientTransform="matrix(-1 0 0 1 1194.27 0)" gradientUnits="userSpaceOnUse"><stop offset="0" style="stop-color:#fff;stop-opacity:0"/><stop offset="1" style="stop-color:#fff;stop-opacity:.8"/></linearGradient><path fill="url(#r)" d="M54.23 13.133c-.125 2.018 1.094 11.113 1.094 11.113s1.271-7.632 1.086-9.671c-.146-1.604-2.082-2.978-2.18-1.442z"/><linearGradient id="s" x1="-527.917" x2="-527.917" y1="244.629" y2="249.75" gradientTransform="matrix(1 0 0 -1 564 300)" gradientUnits="userSpaceOnUse"><stop offset="0" style="stop-color:#fff;stop-opacity:0"/><stop offset="1" style="stop-color:#fff;stop-opacity:.6"/></linearGradient><path fill="url(#s)" d="M35.468 50.624c-.112 1.091.617 4.747.617 4.747s.697-3.669.62-4.747c-.033-.48-1.183-.517-1.237 0z"/><linearGradient id="t" x1="-539.604" x2="-539.604" y1="245.039" y2="249.962" gradientTransform="matrix(1 0 0 -1 564 300)" gradientUnits="userSpaceOnUse"><stop offset="0" style="stop-color:#fff;stop-opacity:0"/><stop offset="1" style="stop-color:#fff;stop-opacity:.6"/></linearGradient><path fill="url(#t)" d="M23.78 50.397c-.112 1.049.617 4.563.617 4.563s.697-3.527.62-4.563c-.033-.46-1.182-.496-1.237 0z"/><linearGradient id="u" x1="-543.115" x2="-543.115" y1="243.837" y2="250.244" gradientTransform="matrix(1 0 0 -1 564 300)" gradientUnits="userSpaceOnUse"><stop offset="0" style="stop-color:#fff;stop-opacity:0"/><stop offset="1" style="stop-color:#fff;stop-opacity:.6"/></linearGradient><path fill="url(#u)" d="M20.096 50.224c-.144 1.364.791 5.939.791 5.939s.895-4.591.795-5.939c-.042-.601-1.516-.646-1.586 0z"/><linearGradient id="v" x1="-546.032" x2="-546.032" y1="241.504" y2="250.535" gradientTransform="matrix(1 0 0 -1 564 300)" gradientUnits="userSpaceOnUse"><stop offset="0" style="stop-color:#fff;stop-opacity:0"/><stop offset="1" style="stop-color:#fff;stop-opacity:.6"/></linearGradient><path fill="url(#v)" d="M16.913 50.124c-.191 1.922 1.058 8.372 1.058 8.372s1.196-6.472 1.063-8.372c-.056-.847-2.027-.911-2.121 0z"/></svg>