<svg xmlns="http://www.w3.org/2000/svg" xml:space="preserve" style="enable-background:new 0 0 64 64" viewBox="0 0 64 64"><linearGradient id="a" x1="-162" x2="-162" y1="1108" y2="1168" gradientTransform="matrix(1 0 0 -1 194 1170)" gradientUnits="userSpaceOnUse"><stop offset="0" style="stop-color:#ff9500"/><stop offset=".192" style="stop-color:#ffad00"/><stop offset=".545" style="stop-color:#ffd500"/><stop offset=".827" style="stop-color:#ffed00"/><stop offset="1" style="stop-color:#fff600"/></linearGradient><circle cx="32" cy="32" r="30" style="fill:url(#a)"/><path d="M20 21c2.21 0 4 2.24 4 5s-1.79 5-4 5-4-2.24-4-5 1.79-5 4-5zm24 0c2.21 0 4 2.24 4 5s-1.79 5-4 5-4-2.24-4-5 1.79-5 4-5zm-1.31 28.51c-2.27-1.72-3.29-7.73-10.69-7.73-7.39 0-8.42 6.02-10.69 7.73.08.42 1.42.61 1.42.61s-.08.3-.02.63c0 0 1.48.27 2.66-.09-.11.49-.06.59-.06.59 1.02.13 2.72-.56 2.72-.56s-.08.34-.03.67c.93-.08 1.85-.73 2.58-1.48 0 0 .5.33.58.25.57-.64.84-1.63.84-1.63s.27.99.83 1.62c.08.08.58-.25.58-.25.73.75 1.65 1.4 2.58 1.48.05-.32-.03-.67-.03-.67s1.71.69 2.73.56c0 0 .05-.11-.06-.59 1.18.36 2.66.09 2.66.09.06-.33-.02-.63-.02-.63s1.34-.18 1.42-.6zM22.63 7.44c-.64 3.58-5.97 4.88-3.37 9.15 5.73-1.89 5.31-7.11 3.37-9.15zM6.2 12.68c2.32 1.67 5.92.13 6.88 3.54-2.85-.03-6.49-.18-6.49-.18s-.58-1.38-.39-3.36z" style="fill:#1a1626"/><path d="M8.39 10.59c2.23 2.41 6.82 1.36 7 5.52-5.18.76-7.43-3.27-7-5.52z" style="fill:#1a1626"/><path d="M11.86 8.67c1.26 2.9 5.99 3.12 4.67 7.13-5.19-.65-5.88-5.1-4.67-7.13z" style="fill:#1a1626"/><path d="M15.04 7.42c.72 3.4 5.85 4.44 3.5 8.62-5.54-1.59-5.29-6.59-3.5-8.62z" style="fill:#1a1626"/><path d="M19.04 6.87c-.27 3.53 4.5 5.67.96 9.31-5.01-2.77-3.32-7.68-.96-9.31z" style="fill:#1a1626"/><path d="M26.92 10.77c-2.24 2.45-6.83 1.45-7.01 5.61 5.17.7 7.43-3.37 7.01-5.61z" style="fill:#1a1626"/><path d="M28.74 13.43c-3.11 1.59-6.95-.77-8.87 3.06 3.24.79 8.42.79 8.42.79s.63-1.48.45-3.85zm15.96 3.16c2.6-4.28-2.73-5.57-3.37-9.15-1.94 2.04-2.36 7.26 3.37 9.15zm12.67-.55s-3.64.14-6.49.18c.96-3.41 4.56-1.87 6.88-3.54.19 1.98-.39 3.36-.39 3.36z" style="fill:#1a1626"/><path d="M48.57 16.1c.18-4.16 4.76-3.1 7-5.52.43 2.26-1.82 6.29-7 5.52z" style="fill:#1a1626"/><path d="M47.43 15.8c-1.32-4.01 3.41-4.23 4.67-7.13 1.22 2.03.52 6.48-4.67 7.13z" style="fill:#1a1626"/><path d="M45.42 16.04c-2.35-4.19 2.78-5.22 3.5-8.62 1.79 2.03 2.04 7.03-3.5 8.62z" style="fill:#1a1626"/><path d="M43.97 16.19c-3.54-3.64 1.23-5.79.96-9.31 2.35 1.62 4.05 6.53-.96 9.31z" style="fill:#1a1626"/><path d="M44.06 16.38c-.19-4.16-4.77-3.17-7.02-5.61-.42 2.24 1.84 6.31 7.02 5.61z" style="fill:#1a1626"/><path d="M35.67 17.28s5.19 0 8.42-.79c-1.91-3.83-5.76-1.47-8.87-3.06-.18 2.37.45 3.85.45 3.85z" style="fill:#1a1626"/><path d="M37.18 43.98c-2.33 1.22-2.32 2.29-5.18 2.29s-2.85-1.08-5.19-2.29c-4.37-2.28 14.75-2.28 10.37 0z" style="fill:#de8762"/><radialGradient id="b" cx="-59.617" cy="1182.397" r="7.745" gradientTransform="matrix(.8697 0 0 -1.0808 93.025 1312.923)" gradientUnits="userSpaceOnUse"><stop offset="0" style="stop-color:#ffa680"/><stop offset=".372" style="stop-color:#f79e78"/><stop offset=".962" style="stop-color:#e08964"/><stop offset="1" style="stop-color:#de8762"/></radialGradient><path d="M42.79 40.85c.15 2.36-1.95 4.29-4.35 4.29-1.51 0-1.5-.99-3.14-.17-2.15 1.06 1.15-14.74 1.15-14.74 1.53 6.67 6.02 5.77 6.34 10.62z" style="fill:url(#b)"/><radialGradient id="c" cx="-200.522" cy="1182.397" r="7.745" gradientTransform="matrix(-.8697 0 0 -1.0808 -151.552 1312.923)" gradientUnits="userSpaceOnUse"><stop offset="0" style="stop-color:#ffa680"/><stop offset=".372" style="stop-color:#f79e78"/><stop offset=".962" style="stop-color:#e08964"/><stop offset="1" style="stop-color:#de8762"/></radialGradient><path d="M21.21 40.85c-.15 2.36 1.95 4.29 4.35 4.29 1.51 0 1.5-.99 3.14-.17 2.15 1.06-1.15-14.74-1.15-14.74-1.53 6.67-6.02 5.77-6.34 10.62z" style="fill:url(#c)"/><linearGradient id="d" x1="-147.755" x2="-148.146" y1="1004.244" y2="1002.913" gradientTransform="matrix(.9956 .0936 .0777 -.8265 96.142 887.262)" gradientUnits="userSpaceOnUse"><stop offset="0" style="stop-color:#874a37"/><stop offset=".03" style="stop-color:#8e4f3a"/><stop offset=".186" style="stop-color:#ab6349"/><stop offset=".351" style="stop-color:#c17354"/><stop offset=".53" style="stop-color:#d17e5c"/><stop offset=".731" style="stop-color:#db8561"/><stop offset="1" style="stop-color:#de8762"/></linearGradient><path d="M24.96 43.27c-.77.26.22 1.85 1.97 1.12 1.03-.43 2.04.77 1.81.29-.53-1.1-2.05-2-3.78-1.41z" style="fill:url(#d)"/><linearGradient id="e" x1="1445.427" x2="1445.036" y1="1184.668" y2="1183.338" gradientTransform="matrix(-.9956 .0936 -.0777 -.8265 1568.049 887.262)" gradientUnits="userSpaceOnUse"><stop offset="0" style="stop-color:#874a37"/><stop offset=".03" style="stop-color:#8e4f3a"/><stop offset=".186" style="stop-color:#ab6349"/><stop offset=".351" style="stop-color:#c17354"/><stop offset=".53" style="stop-color:#d17e5c"/><stop offset=".731" style="stop-color:#db8561"/><stop offset="1" style="stop-color:#de8762"/></linearGradient><path d="M39.04 43.27c.77.26-.22 1.85-1.97 1.12-1.03-.43-2.04.77-1.81.29.53-1.1 2.05-2 3.78-1.41z" style="fill:url(#e)"/><radialGradient id="f" cx="-179.24" cy="1380.721" r="5.621" gradientTransform="matrix(.8357 0 0 -2.7466 181.83 3821.385)" gradientUnits="userSpaceOnUse"><stop offset="0" style="stop-color:#ffa680"/><stop offset=".337" style="stop-color:#faa17b"/><stop offset=".744" style="stop-color:#eb936e"/><stop offset="1" style="stop-color:#de8762"/></radialGradient><path d="M35.02 23.3c-1.19-1.27-4.84-1.27-6.04 0-2.69 2.86-4.53 14.3-2.32 18.59 2.01 3.9 8.67 3.9 10.68 0 2.2-4.28.37-15.73-2.32-18.59z" style="fill:url(#f)"/><radialGradient id="g" cx="-192.248" cy="1097.721" r="7.103" gradientTransform="matrix(.8222 0 0 -.8632 190.065 986.558)" gradientUnits="userSpaceOnUse"><stop offset="0" style="stop-color:#ffa680"/><stop offset=".9" style="stop-color:#ffa680;stop-opacity:0"/></radialGradient><path d="M32 32.87c3.22 0 5.84 2.75 5.84 6.13 0 3.39-2.61 6.13-5.84 6.13s-5.84-2.75-5.84-6.13 2.62-6.13 5.84-6.13z" style="fill:url(#g)"/><linearGradient id="h" x1="-724.684" x2="-724.684" y1="1656.742" y2="1638.339" gradientTransform="translate(772.47 -1621.786)" gradientUnits="userSpaceOnUse"><stop offset="0" style="stop-color:#fff;stop-opacity:0"/><stop offset="1" style="stop-color:#fff"/></linearGradient><path d="M36.87 19.73c-2.23 2.19.66 11.11 5.75 13.91 2.6 1.43 11.03 2.53 13.73-1.33 2.68-3.81 4.37-11.6 1.98-13.76-3.27-2.97-17.55-2.66-21.46 1.18z" style="opacity:.5;fill:url(#h);enable-background:new"/><linearGradient id="i" x1="-558.834" x2="-558.834" y1="1657.441" y2="1639.037" gradientTransform="matrix(-1 0 0 1 -542.622 -1622.415)" gradientUnits="userSpaceOnUse"><stop offset="0" style="stop-color:#fff;stop-opacity:0"/><stop offset="1" style="stop-color:#fff"/></linearGradient><path d="M27.13 19.73c2.23 2.19-.66 11.11-5.75 13.92-2.6 1.43-11.03 2.52-13.73-1.34-2.68-3.81-4.37-11.6-1.99-13.76 3.28-2.97 17.55-2.66 21.47 1.18z" style="opacity:.5;fill:url(#i);enable-background:new"/><path d="M63.8 17.1c-2.15-.08-4.98-1.65-11.01-2-8.31-.5-11.06.87-16.24 1.74-1.6.27-3.1.41-4.55.4-1.45.01-2.94-.13-4.55-.4-5.17-.87-7.94-2.23-16.24-1.74-6.03.35-8.87 1.92-11.02 2-.13 1.09-.38 2.72 0 3.83.29.87 1.1 1.08 1.62 1.68C4.48 25.67 2.98 36.1 12.88 36.9c9.28.75 13.4-3.08 15.68-9.36.64-1.77 1.71-4.84 3.44-4.84s2.79 3.07 3.43 4.84c2.28 6.27 6.4 10.11 15.68 9.36 9.9-.81 8.4-11.24 11.05-14.29.53-.6 1.34-.81 1.63-1.68.38-1.11.14-2.74.01-3.83zM21.38 33.64c-2.6 1.43-11.03 2.52-13.73-1.33-2.68-3.81-4.37-11.6-1.99-13.76 3.27-2.96 17.55-2.65 21.47 1.18 2.24 2.19-.66 11.1-5.75 13.91zm34.97-1.34c-2.7 3.86-11.13 2.76-13.73 1.33-5.09-2.8-7.99-11.72-5.75-13.91 3.92-3.84 18.2-4.15 21.47-1.19 2.38 2.18.68 9.96-1.99 13.77z" style="fill:#1a1626"/></svg>