<svg xmlns="http://www.w3.org/2000/svg" xml:space="preserve" style="enable-background:new 0 0 64 64" viewBox="0 0 64 64"><linearGradient id="a" x1="-249.369" x2="-249.369" y1="-161.882" y2="-162.882" gradientTransform="matrix(60 0 0 60 14994.15 9774.9)" gradientUnits="userSpaceOnUse"><stop offset="0" style="stop-color:#ff9500"/><stop offset=".192" style="stop-color:#ffad00"/><stop offset=".545" style="stop-color:#ffd500"/><stop offset=".827" style="stop-color:#ffed00"/><stop offset="1" style="stop-color:#fff600"/></linearGradient><circle cx="32" cy="32" r="30" style="fill:url(#a)"/><circle cx="43" cy="30" r="7" style="fill:#fff"/><path d="M43 25.33c2.58 0 4.67 2.09 4.67 4.67s-2.09 4.67-4.67 4.67-4.67-2.09-4.67-4.67 2.09-4.67 4.67-4.67z" style="fill:#1a1626"/><path d="M44.21 30.95c1.21 0 2.19 1.13 2.19 2.53s-.98 2.53-2.19 2.53-2.19-1.13-2.19-2.53.98-2.53 2.19-2.53zm-2.94-2.43c.71 0 1.28.66 1.28 1.48s-.57 1.48-1.28 1.48-1.28-.66-1.28-1.48.57-1.48 1.28-1.48z" style="fill:#fff"/><circle cx="21" cy="30" r="7" style="fill:#fff"/><path d="M21 25.33c2.58 0 4.67 2.09 4.67 4.67s-2.09 4.67-4.67 4.67-4.67-2.09-4.67-4.67c.01-2.58 2.09-4.67 4.67-4.67z" style="fill:#1a1626"/><path d="M22.21 30.95c1.21 0 2.19 1.13 2.19 2.53s-.98 2.53-2.19 2.53-2.19-1.13-2.19-2.53.98-2.53 2.19-2.53zm-2.94-2.43c.71 0 1.28.66 1.28 1.48s-.57 1.48-1.28 1.48c-.71 0-1.28-.66-1.28-1.48s.57-1.48 1.28-1.48z" style="fill:#fff"/><path d="M40.95 44.27c-5.45 4.66-12.45 4.66-17.89 0-.77-.66-1.23.05-.99.61 4.18 9.5 15.69 9.5 19.87 0 .24-.56-.22-1.27-.99-.61z" style="fill:#1a1626"/><path d="M15.03 15.77c-9.79 5.79-3.55 7.04 5.32 3.16 5-2.19 1.12-6.97-5.32-3.16zm33.94.02c-6.44-3.81-10.32.97-5.32 3.16 8.87 3.88 15.11 2.63 5.32-3.16z" style="fill:#d69600"/><radialGradient id="b" cx="928.095" cy="-127.215" r="2.32" fx="928.095" fy="-125.534" gradientTransform="matrix(3.154 0 0 4.4839 -2880.283 618.634)" gradientUnits="userSpaceOnUse"><stop offset="0" style="stop-color:#73efff"/><stop offset=".187" style="stop-color:#6fecff"/><stop offset=".364" style="stop-color:#64e3ff"/><stop offset=".537" style="stop-color:#51d3ff"/><stop offset=".707" style="stop-color:#36bdff"/><stop offset=".874" style="stop-color:#14a1ff"/><stop offset=".956" style="stop-color:#0091ff"/></radialGradient><path d="M47.53 41.86c-.4-1.15-1.01-1.15-1.41 0-1.16 3.38-4.7 7.95-4.7 11.91 0 2.89 2.42 5.23 5.4 5.23 2.98 0 5.4-2.34 5.4-5.23.01-3.95-3.54-8.58-4.69-11.91z" style="fill:url(#b)"/><linearGradient id="c" x1="846.782" x2="849.442" y1="-129.098" y2="-131.449" gradientTransform="matrix(2.7319 0 0 3.0921 -2270.3 451.847)" gradientUnits="userSpaceOnUse"><stop offset=".053" style="stop-color:#c4eeff;stop-opacity:0"/><stop offset=".45" style="stop-color:#cdf0ff;stop-opacity:.4197"/><stop offset="1" style="stop-color:#d4f2ff"/></linearGradient><path d="M47.26 41.59c-.14-.52-.73-.52-.87 0-.72 2.7-3.23 7.19-3.23 10.36 0 3.81 7.32 3.81 7.32 0 .01-3.16-2.51-7.69-3.22-10.36z" style="fill:url(#c)"/></svg>