<svg xmlns="http://www.w3.org/2000/svg" xml:space="preserve" style="enable-background:new 0 0 64 64" viewBox="0 0 64 64"><linearGradient id="a" x1="32.104" x2="32.104" y1="37.363" y2="11" gradientUnits="userSpaceOnUse"><stop offset=".423" style="stop-color:#0064b5"/><stop offset=".428" style="stop-color:#0165b7"/><stop offset=".507" style="stop-color:#1374d1"/><stop offset=".594" style="stop-color:#2180e5"/><stop offset=".692" style="stop-color:#2b89f4"/><stop offset=".81" style="stop-color:#318dfc"/><stop offset="1" style="stop-color:#338fff"/></linearGradient><path d="M43.181 11.536c-7.52.973-14.285-2.148-20.608.685-7.115 3.192-10.458 19.25-18.498 19.25v5.722c10.986 0 12.569-15.883 19.813-19.619 6.166-3.187 11.212.73 19.527-.89 6.169-1.202 7.427 20.679 16.718 20.679v-5.725c-5.833 0-7.183-21.37-16.952-20.102z" style="fill:url(#a)"/><path d="M60.675 38.404c0-5.77-3.19-11.401-11.948-11.401h-33.45c-8.758 0-11.948 5.63-11.948 11.401 0 5.095 2.125 12.847 10.752 13.47 9.557.693 11.215-3.02 13.14-6.13 1.64-2.638 7.925-2.638 9.56 0 1.925 3.11 3.584 6.823 13.14 6.13 8.627-.623 10.754-8.375 10.754-13.47z" style="opacity:.5;fill:#e6ebef"/><path d="M48.727 27.003h-33.45c-8.758 0-11.948 5.63-11.948 11.401 0 5.095 2.125 12.847 10.752 13.47 7.646.553 10.233-1.307 11.95-4.116-1.296 1.047-6.835.637-10.158.395-6.04-.436-7.527-5.861-7.527-9.43 0-4.039 2.233-7.981 8.364-7.981h30.584c6.13 0 8.36 3.942 8.36 7.981 0 3.569-1.488 8.994-7.525 9.43-3.323.242-8.864.652-10.158-.395 1.715 2.81 4.302 4.67 11.95 4.117 8.627-.624 10.754-8.376 10.754-13.47 0-5.771-3.19-11.402-11.948-11.402z" style="opacity:.5;fill:#e6ebef"/><path d="M48.15 52.98h-.002c-7.865 0-10.163-2.858-11.844-5.768-1.794-3.131-6.979-2.803-8.606 0-1.806 3.126-4.281 6.38-13.716 5.696-8.736-.63-11.849-7.907-11.849-14.504 0-6.015 3.454-12.44 13.144-12.44h33.45c9.69 0 13.14 6.425 13.14 12.44 0 6.597-3.113 13.874-11.846 14.504-.659.048-1.281.072-1.871.072zm-9.71-6.7c1.63 2.824 3.318 4.621 9.708 4.621h.002c.527 0 1.083-.02 1.673-.06 9.192-.668 9.656-10.477 9.656-12.437 0-3.115-1.048-10.36-10.752-10.36h-33.45c-9.704 0-10.752 7.245-10.752 10.36 0 1.96.465 11.769 9.656 12.437 7.732.56 9.615-1.502 11.381-4.562 2.744-4.764 10.115-4.78 12.878 0z" style="fill:#bec3cf"/><path d="M3.775 44.722s-1.688-1.007-2.05-1.443c-1.444-1.741-1.444-8.106 0-9.848.362-.434 2.05-1.443 2.05-1.443v12.734z" style="fill:#bec3cf"/><path d="M0 34.536h1.388v7.639H0zm2.75 0h.846v7.639H2.75z" style="fill:#338fff"/><path d="M60.227 44.722s1.686-1.007 2.05-1.443c1.444-1.741 1.444-8.106 0-9.848-.364-.434-2.05-1.443-2.05-1.443v12.734z" style="fill:#bec3cf"/><path d="M62.615 34.536H64v7.639h-1.385zm-2.209 0h.846v7.639h-.846z" style="fill:#338fff"/></svg>