<svg xmlns="http://www.w3.org/2000/svg" xml:space="preserve" style="enable-background:new 0 0 64 64" viewBox="0 0 64 64"><linearGradient id="a" x1="31.975" x2="31.975" y1="62" y2="2" gradientUnits="userSpaceOnUse"><stop offset="0" style="stop-color:#ff9500"/><stop offset=".192" style="stop-color:#ffad00"/><stop offset=".545" style="stop-color:#ffd500"/><stop offset=".827" style="stop-color:#ffed00"/><stop offset="1" style="stop-color:#fff600"/></linearGradient><path d="M31.98 2c16.57 0 30 13.43 30 30s-13.43 30-30 30-30-13.43-30-30 13.43-30 30-30z" style="fill:url(#a)"/><radialGradient id="b" cx="14.165" cy="35.678" r="11" gradientUnits="userSpaceOnUse"><stop offset="0" style="stop-color:#ff6399;stop-opacity:.55"/><stop offset=".202" style="stop-color:#ff6596;stop-opacity:.4387"/><stop offset=".365" style="stop-color:#ff6c8c;stop-opacity:.3493"/><stop offset=".513" style="stop-color:#ff767b;stop-opacity:.2676"/><stop offset=".654" style="stop-color:#ff8663;stop-opacity:.1903"/><stop offset=".789" style="stop-color:#ff9a44;stop-opacity:.1162"/><stop offset=".917" style="stop-color:#ffb21f;stop-opacity:.0455"/><stop offset="1" style="stop-color:#ffc403;stop-opacity:0"/></radialGradient><circle cx="14.16" cy="35.68" r="11" style="fill:url(#b)"/><radialGradient id="c" cx="49.785" cy="35.678" r="11" gradientUnits="userSpaceOnUse"><stop offset="0" style="stop-color:#ff6399;stop-opacity:.55"/><stop offset=".202" style="stop-color:#ff6596;stop-opacity:.4387"/><stop offset=".365" style="stop-color:#ff6c8c;stop-opacity:.3493"/><stop offset=".513" style="stop-color:#ff767b;stop-opacity:.2676"/><stop offset=".654" style="stop-color:#ff8663;stop-opacity:.1903"/><stop offset=".789" style="stop-color:#ff9a44;stop-opacity:.1162"/><stop offset=".917" style="stop-color:#ffb21f;stop-opacity:.0455"/><stop offset="1" style="stop-color:#ffc403;stop-opacity:0"/></radialGradient><circle cx="49.79" cy="35.68" r="11" style="fill:url(#c)"/><path d="M40.92 40.27c-5.45 4.66-12.45 4.66-17.89 0-.77-.66-1.23.05-.99.61 4.18 9.5 15.69 9.5 19.87 0 .24-.56-.21-1.27-.99-.61zM15.71 29.1c4.27-5.52 7.26-5.52 11.53 0 .65.83 1.97.21 1.7-.6-3.63-10.68-11.3-10.68-14.93 0-.27.82 1.05 1.44 1.7.6zm21 0c4.27-5.52 7.26-5.52 11.53 0 .65.83 1.97.21 1.7-.6-3.63-10.68-11.3-10.68-14.93 0-.27.82 1.05 1.44 1.7.6z" style="fill:#1a1626"/><linearGradient id="d" x1="37.426" x2="33.926" y1="55.127" y2="73.8" gradientTransform="rotate(10.003 158.92 152.932)" gradientUnits="userSpaceOnUse"><stop offset="0" style="stop-color:#ff1c23"/><stop offset=".416" style="stop-color:#f31317"/><stop offset="1" style="stop-color:#db0100"/></linearGradient><path d="M54.07 39.8c-1.96-4.95-9.87-4.55-10.86 1.06-.59 3.37 1.81 6.25 6.55 11.68 1.6 1.84 1.87 1.89 4.01.71 6.3-3.49 9.55-5.37 10.15-8.74.98-5.61-6.32-8.69-9.85-4.71z" style="fill:url(#d)"/><linearGradient id="e" x1="-148.805" x2="-151.767" y1="113.249" y2="129.054" gradientTransform="rotate(-22.849 -244.516 -318.788)" gradientUnits="userSpaceOnUse"><stop offset="0" style="stop-color:#ff1c23"/><stop offset=".416" style="stop-color:#f31317"/><stop offset="1" style="stop-color:#db0100"/></linearGradient><path d="M11.86 46.22c-3.67-2.62-9.1 1.3-7.23 5.74 1.13 2.67 4.16 3.61 10.02 5.3 1.99.57 2.2.48 3.18-1.34 2.88-5.37 4.33-8.2 3.2-10.87-1.88-4.44-8.48-3.28-9.17 1.17z" style="fill:url(#e)"/><linearGradient id="f" x1="-61.787" x2="-65.644" y1="69.622" y2="90.195" gradientTransform="rotate(-9.713 -431.604 -468.198)" gradientUnits="userSpaceOnUse"><stop offset="0" style="stop-color:#ff1c23"/><stop offset=".416" style="stop-color:#f31317"/><stop offset="1" style="stop-color:#db0100"/></linearGradient><path d="M22.97 4.77C19.1.36 11.05 3.72 12.1 9.91c.64 3.72 4.2 5.81 11.13 9.68 2.35 1.31 2.64 1.26 4.42-.76 5.24-5.96 7.91-9.12 7.27-12.84-1.05-6.18-9.76-6.66-11.95-1.22z" style="fill:url(#f)"/></svg>