<svg xmlns="http://www.w3.org/2000/svg" xml:space="preserve" style="enable-background:new 0 0 64 64" viewBox="0 0 64 64"><linearGradient id="a" x1="32" x2="32" y1="62" y2="2" gradientUnits="userSpaceOnUse"><stop offset="0" style="stop-color:#ff9500"/><stop offset=".192" style="stop-color:#ffad00"/><stop offset=".545" style="stop-color:#ffd500"/><stop offset=".827" style="stop-color:#ffed00"/><stop offset="1" style="stop-color:#fff600"/></linearGradient><path d="M32 2c16.57 0 30 13.43 30 30S48.57 62 32 62 2 48.57 2 32 15.43 2 32 2z" style="fill:url(#a)"/><radialGradient id="b" cx="16.189" cy="42.007" r="11" gradientUnits="userSpaceOnUse"><stop offset="0" style="stop-color:#ff6399;stop-opacity:.55"/><stop offset=".202" style="stop-color:#ff6596;stop-opacity:.4387"/><stop offset=".365" style="stop-color:#ff6c8c;stop-opacity:.3493"/><stop offset=".513" style="stop-color:#ff767b;stop-opacity:.2676"/><stop offset=".654" style="stop-color:#ff8663;stop-opacity:.1903"/><stop offset=".789" style="stop-color:#ff9a44;stop-opacity:.1162"/><stop offset=".917" style="stop-color:#ffb21f;stop-opacity:.0455"/><stop offset="1" style="stop-color:#ffc403;stop-opacity:0"/></radialGradient><circle cx="16.19" cy="42.01" r="11" style="fill:url(#b)"/><radialGradient id="c" cx="47.811" cy="42.007" r="11" gradientUnits="userSpaceOnUse"><stop offset="0" style="stop-color:#ff6399;stop-opacity:.55"/><stop offset=".202" style="stop-color:#ff6596;stop-opacity:.4387"/><stop offset=".365" style="stop-color:#ff6c8c;stop-opacity:.3493"/><stop offset=".513" style="stop-color:#ff767b;stop-opacity:.2676"/><stop offset=".654" style="stop-color:#ff8663;stop-opacity:.1903"/><stop offset=".789" style="stop-color:#ff9a44;stop-opacity:.1162"/><stop offset=".917" style="stop-color:#ffb21f;stop-opacity:.0455"/><stop offset="1" style="stop-color:#ffc403;stop-opacity:0"/></radialGradient><circle cx="47.81" cy="42.01" r="11" style="fill:url(#c)"/><circle cx="19.5" cy="33.96" r="9.5" style="fill:#fff"/><path d="M19.98 25.24c3.87 0 7 3.13 7 7s-3.13 7-7 7-7-3.13-7-7 3.13-7 7-7z" style="fill:#1a1626"/><path d="M20.13 34.18c1.52 0 2.75 1.42 2.75 3.18 0 1.76-1.23 3.18-2.75 3.18s-2.75-1.42-2.75-3.18c0-1.75 1.23-3.18 2.75-3.18zm-4.36-4.25c1.11 0 2 1.03 2 2.31 0 1.27-.9 2.31-2 2.31s-2-1.04-2-2.31c0-1.28.9-2.31 2-2.31z" style="fill:#fff"/><circle cx="44.5" cy="33.96" r="9.5" style="fill:#fff"/><path d="M44.03 25.24c3.87 0 7 3.13 7 7s-3.13 7-7 7-7-3.13-7-7 3.13-7 7-7z" style="fill:#1a1626"/><path d="M45.13 34.18c1.52 0 2.75 1.42 2.75 3.18 0 1.76-1.23 3.18-2.75 3.18s-2.75-1.42-2.75-3.18c0-1.75 1.23-3.18 2.75-3.18zm-4.36-4.25c1.11 0 2 1.03 2 2.31 0 1.27-.9 2.31-2 2.31s-2-1.04-2-2.31c0-1.28.9-2.31 2-2.31z" style="fill:#fff"/><path d="M24.89 52.94c3.66-2.57 10.26-2.74 14.21 0 .92.63 2.43.19 2.09-.55-3.46-7.54-14.95-7.52-18.4 0-.33.75 1.19 1.19 2.1.55z" style="fill:#1a1626"/><path d="M15.87 16.66c-9.25 6.62-2.92 7.32 5.57 2.69 4.8-2.62.52-7.05-5.57-2.69zm32.26.02c-6.09-4.36-10.37.07-5.57 2.69 8.49 4.64 14.81 3.93 5.57-2.69z" style="fill:#d69600"/></svg>