<svg xmlns="http://www.w3.org/2000/svg" xml:space="preserve" style="enable-background:new 0 0 64 64" viewBox="0 0 64 64"><linearGradient id="a" x1="32" x2="32" y1="62" y2="2" gradientUnits="userSpaceOnUse"><stop offset="0" style="stop-color:red"/><stop offset="1" style="stop-color:#ffc000"/></linearGradient><path d="M32 2C15.43 2 2 15.43 2 32s13.43 30 30 30 30-13.43 30-30S48.57 2 32 2z" style="fill:url(#a)"/><path d="M45.72 48c-1.5-3.59-5.15-6-13.72-6s-12.21 2.41-13.71 6c-1.92 4.59 3.68 6 13.72 6 10.02 0 15.62-1.41 13.71-6z" style="fill:#1a1626"/><linearGradient id="b" x1="32.002" x2="32.002" y1="64" y2="45" gradientUnits="userSpaceOnUse"><stop offset=".291" style="stop-color:#fd7383"/><stop offset=".502" style="stop-color:#fb7181"/><stop offset=".616" style="stop-color:#f36c7a"/><stop offset=".707" style="stop-color:#e5626e"/><stop offset=".786" style="stop-color:#d2545d"/><stop offset=".857" style="stop-color:#b94247"/><stop offset=".922" style="stop-color:#9a2c2b"/><stop offset=".981" style="stop-color:#76120b"/><stop offset="1" style="stop-color:#690900"/></linearGradient><path d="M23.25 47.81v5.31C23.25 60.36 27.17 64 32 64s8.75-3.64 8.75-10.89V47.8c0-4.33-8.75-2.36-8.75-2.36s-8.75-1.97-8.75 2.37z" style="fill:url(#b)"/><linearGradient id="c" x1="32" x2="32" y1="58.032" y2="45.227" gradientUnits="userSpaceOnUse"><stop offset="0" style="stop-color:#c21000;stop-opacity:.06"/><stop offset=".178" style="stop-color:#be1000;stop-opacity:.0814"/><stop offset=".355" style="stop-color:#b20f00;stop-opacity:.1026"/><stop offset=".531" style="stop-color:#9e0d00;stop-opacity:.1238"/><stop offset=".707" style="stop-color:#820b00;stop-opacity:.1449"/><stop offset=".881" style="stop-color:#5f0800;stop-opacity:.1658"/><stop offset="1" style="stop-color:#420600;stop-opacity:.18"/></linearGradient><path d="M30.76 45.23 32 58.03l1.24-12.81c-.75.12-1.24.23-1.24.23s-.49-.11-1.24-.22z" style="fill:url(#c)"/><ellipse cx="22" cy="33" rx="4" ry="5" style="fill:#1a1626"/><ellipse cx="42" cy="33" rx="4" ry="5" style="fill:#1a1626"/><path d="M16.87 20.02c-9.25 6.62-2.92 7.32 5.57 2.69 4.8-2.62.52-7.05-5.57-2.69zm30.25.02c-6.08-4.36-10.37.07-5.57 2.69 8.5 4.63 14.82 3.93 5.57-2.69z" style="fill:#c25507"/><radialGradient id="d" cx="-51.007" cy="-1068.676" r="7.119" fx="-48.473" fy="-1065.066" gradientTransform="matrix(.9178 .1331 -.1906 1.5561 -99.534 1705.051)" gradientUnits="userSpaceOnUse"><stop offset=".055" style="stop-color:#73efff"/><stop offset=".285" style="stop-color:#70edff"/><stop offset=".446" style="stop-color:#67e5ff"/><stop offset=".587" style="stop-color:#57d8ff"/><stop offset=".715" style="stop-color:#42c7ff"/><stop offset=".835" style="stop-color:#25afff"/><stop offset=".948" style="stop-color:#0393ff"/><stop offset=".956" style="stop-color:#0091ff"/></radialGradient><path d="M61.93 38.1c-.49-4.94-5.55-9.92-6.22-10.17-.27-.1-.47.02-.43.56.25 3.1-.2 4.93-2.31 8.64-5.83 10.22 10.23 13.84 8.96.97z" style="fill:url(#d)"/><linearGradient id="e" x1="238.714" x2="238.714" y1="173.944" y2="166.568" gradientTransform="matrix(.6114 1.0149 -.8566 .516 56.465 -294.481)" gradientUnits="userSpaceOnUse"><stop offset=".053" style="stop-color:#c4eeff;stop-opacity:0"/><stop offset=".45" style="stop-color:#cdf0ff;stop-opacity:.4197"/><stop offset="1" style="stop-color:#d4f2ff"/></linearGradient><path d="M60.7 36.74c-.58-3.62-4.1-7.65-4.56-7.87-.18-.09-.32-.02-.27.38.28 2.28.18 3.87-1.05 6.24-3.21 6.19 7.16 9.19 5.88 1.25z" style="fill:url(#e)"/><radialGradient id="f" cx="18.369" cy="-1068.532" r="6.811" fx="20.793" fy="-1065.079" gradientTransform="matrix(-.9273 .00875 -.0198 1.5676 3.252 1716.213)" gradientUnits="userSpaceOnUse"><stop offset=".055" style="stop-color:#73efff"/><stop offset=".285" style="stop-color:#70edff"/><stop offset=".446" style="stop-color:#67e5ff"/><stop offset=".587" style="stop-color:#57d8ff"/><stop offset=".715" style="stop-color:#42c7ff"/><stop offset=".835" style="stop-color:#25afff"/><stop offset=".948" style="stop-color:#0393ff"/><stop offset=".956" style="stop-color:#0091ff"/></radialGradient><path d="M2.76 43.41c1.1-4.62 6.53-8.69 7.2-8.84.27-.06.45.08.34.59-.63 2.91-.44 4.7 1.09 8.49 4.2 10.43-11.49 11.8-8.63-.24z" style="fill:url(#f)"/><linearGradient id="g" x1="275.346" x2="275.346" y1="126.135" y2="119.078" gradientTransform="matrix(-.7421 .9237 .7797 .6263 116.878 -289.353)" gradientUnits="userSpaceOnUse"><stop offset=".053" style="stop-color:#c4eeff;stop-opacity:0"/><stop offset=".45" style="stop-color:#cdf0ff;stop-opacity:.4197"/><stop offset="1" style="stop-color:#d4f2ff"/></linearGradient><path d="M4.1 42.28c1.02-3.36 4.87-6.72 5.34-6.88.19-.06.31.02.21.39-.56 2.13-.66 3.64.2 6.05 2.23 6.29-7.98 7.8-5.75.44z" style="fill:url(#g)"/><radialGradient id="h" cx="66.958" cy="-1091.369" r="5.076" fx="68.765" fy="-1088.795" gradientTransform="matrix(-.9652 -.2642 -.4171 1.5132 -373.765 1680.895)" gradientUnits="userSpaceOnUse"><stop offset=".055" style="stop-color:#73efff"/><stop offset=".285" style="stop-color:#70edff"/><stop offset=".446" style="stop-color:#67e5ff"/><stop offset=".587" style="stop-color:#57d8ff"/><stop offset=".715" style="stop-color:#42c7ff"/><stop offset=".835" style="stop-color:#25afff"/><stop offset=".948" style="stop-color:#0393ff"/><stop offset=".956" style="stop-color:#0091ff"/></radialGradient><path d="M12.77 12.16c1.72-3.09 6.7-4.85 7.24-4.81.22.02.33.15.15.5-1.04 1.96-1.23 3.3-.76 6.37 1.29 8.46-11.11 6.02-6.63-2.06z" style="fill:url(#h)"/><linearGradient id="i" x1="288.763" x2="288.763" y1="72.163" y2="66.684" gradientTransform="matrix(-.9588 .6961 .5876 .8092 253.287 -245.03)" gradientUnits="userSpaceOnUse"><stop offset=".053" style="stop-color:#c4eeff;stop-opacity:0"/><stop offset=".45" style="stop-color:#cdf0ff;stop-opacity:.4197"/><stop offset="1" style="stop-color:#d4f2ff"/></linearGradient><path d="M14.02 11.64c1.42-2.2 5.04-3.79 5.43-3.8.16 0 .23.08.09.33-.83 1.42-1.2 2.48-.99 4.41.55 5.04-7.64 3.89-4.53-.94z" style="fill:url(#i)"/></svg>