<svg xmlns="http://www.w3.org/2000/svg" xml:space="preserve" style="enable-background:new 0 0 64 64" viewBox="0 0 64 64"><linearGradient id="a" x1="32" x2="32" y1="62" y2="2" gradientUnits="userSpaceOnUse"><stop offset="0" style="stop-color:#ff9500"/><stop offset=".192" style="stop-color:#ffad00"/><stop offset=".545" style="stop-color:#ffd500"/><stop offset=".827" style="stop-color:#ffed00"/><stop offset="1" style="stop-color:#fff600"/></linearGradient><path d="M32 2c16.568 0 30 13.434 30 30.002C62 48.568 48.568 62 32 62 15.432 62 2 48.568 2 32.002 2 15.433 15.432 2 32 2z" style="fill:url(#a)"/><circle cx="19.5" cy="29.956" r="9.5" style="fill:#fff"/><path d="M19.979 22.956a6.997 6.997 0 0 1 6.997 7 7 7 0 1 1-6.998-7z" style="fill:#1a1626"/><path d="M20.134 31.85c1.517 0 2.749 1.422 2.749 3.18 0 1.757-1.232 3.18-2.75 3.18s-2.75-1.423-2.75-3.18c0-1.758 1.232-3.18 2.75-3.18zm-4.365-4.253c1.105 0 2.002 1.033 2.002 2.31 0 1.275-.896 2.312-2.002 2.312-1.103 0-1.998-1.037-1.998-2.311 0-1.277.894-2.31 1.998-2.31z" style="fill:#fff"/><circle cx="44.5" cy="29.956" r="9.5" style="fill:#fff"/><path d="M44.029 22.956a6.997 6.997 0 0 1 6.997 7 7.001 7.001 0 1 1-6.997-7z" style="fill:#1a1626"/><path d="M45.134 31.85c1.517 0 2.749 1.422 2.749 3.18 0 1.757-1.232 3.18-2.75 3.18s-2.75-1.423-2.75-3.18c0-1.758 1.232-3.18 2.75-3.18zm-4.365-4.253c1.105 0 2.002 1.033 2.002 2.31 0 1.275-.896 2.312-2.002 2.312-1.103 0-1.998-1.037-1.998-2.311 0-1.277.895-2.31 1.998-2.31z" style="fill:#fff"/><path d="M42.644 44.276c-5.381 4.143-15.889 4.159-21.29 0-.917-.705-1.58.56-1.282 1.16 5.023 10.177 18.835 10.175 23.857 0 .295-.6-.365-1.865-1.285-1.16z" style="fill:#1a1626"/><path d="M42.827 16.97c7.597 3.684 13.12-1.217 10.839-1.214-4.153.008-8.226-1.797-10.98-4.106-3.277-2.75-6.396 2.151.14 5.32zm-21.655-.016c-7.597 3.683-13.12-1.217-10.839-1.214 4.153.008 8.226-1.797 10.98-4.106 3.277-2.75 6.395 2.15-.141 5.32z" style="fill:#d69600"/><radialGradient id="b" cx="19.563" cy="90.018" r="9.405" fx="19.612" fy="93.585" gradientTransform="matrix(1 0 0 .8652 0 -46.254)" gradientUnits="userSpaceOnUse"><stop offset="0" style="stop-color:#bdebff;stop-opacity:.7"/><stop offset=".221" style="stop-color:#baeafe;stop-opacity:.7663"/><stop offset=".375" style="stop-color:#b1e7fc;stop-opacity:.8125"/><stop offset=".508" style="stop-color:#a2e2f8;stop-opacity:.8525"/><stop offset=".63" style="stop-color:#8cdbf3;stop-opacity:.889"/><stop offset=".744" style="stop-color:#70d3ec;stop-opacity:.9231"/><stop offset=".851" style="stop-color:#4dc8e3;stop-opacity:.9554"/><stop offset=".953" style="stop-color:#25bbd9;stop-opacity:.9858"/><stop offset="1" style="stop-color:#0fb4d4"/></radialGradient><path d="M27.903 32.717c-2.13.235-3.362 1.833-8.403 1.778-5.04.055-6.274-1.543-8.403-1.778-.223-.025-.903.104-.72.579 1.456 3.774 4.99 6.439 9.123 6.439s7.667-2.665 9.123-6.44c.183-.474-.497-.603-.72-.578z" style="fill:url(#b)"/><radialGradient id="c" cx="44.563" cy="90.018" r="9.405" fx="44.612" fy="93.585" gradientTransform="matrix(1 0 0 .8652 0 -46.254)" gradientUnits="userSpaceOnUse"><stop offset="0" style="stop-color:#bdebff;stop-opacity:.7"/><stop offset=".221" style="stop-color:#baeafe;stop-opacity:.7663"/><stop offset=".375" style="stop-color:#b1e7fc;stop-opacity:.8125"/><stop offset=".508" style="stop-color:#a2e2f8;stop-opacity:.8525"/><stop offset=".63" style="stop-color:#8cdbf3;stop-opacity:.889"/><stop offset=".744" style="stop-color:#70d3ec;stop-opacity:.9231"/><stop offset=".851" style="stop-color:#4dc8e3;stop-opacity:.9554"/><stop offset=".953" style="stop-color:#25bbd9;stop-opacity:.9858"/><stop offset="1" style="stop-color:#0fb4d4"/></radialGradient><path d="M52.903 32.717c-2.13.235-3.362 1.833-8.403 1.778-5.04.055-6.274-1.543-8.403-1.778-.223-.025-.903.104-.72.579 1.456 3.774 4.99 6.439 9.123 6.439s7.667-2.665 9.123-6.44c.183-.474-.497-.603-.72-.578z" style="fill:url(#c)"/></svg>