<svg xmlns="http://www.w3.org/2000/svg" xml:space="preserve" style="enable-background:new 0 0 64 64" viewBox="0 0 64 64"><radialGradient id="a" cx="31.704" cy="41.037" r="41.704" gradientUnits="userSpaceOnUse"><stop offset=".391" style="stop-color:#421d0f"/><stop offset=".468" style="stop-color:#623015"/><stop offset=".566" style="stop-color:#82441b"/><stop offset=".667" style="stop-color:#9c541f"/><stop offset=".77" style="stop-color:#af5f22"/><stop offset=".879" style="stop-color:#b96624"/><stop offset="1" style="stop-color:#bd6825"/></radialGradient><path d="M57.598 21.703s2.606 0 5.05 1.574c0 0 .32-9.3-10.128-13.738 0 0 2.557-1.066 5.6-.737 0 0-5.809-6.559-15.944-4.91 0 0 1.281-1.688 4.125-2.551C36.088-2.372 32 2.804 32 2.804s-4.09-5.176-14.301-1.463c2.844.863 4.125 2.55 4.125 2.55-10.137-1.65-15.946 4.91-15.946 4.91 3.045-.328 5.602.738 5.602.738C1.03 13.978 1.352 23.277 1.352 23.277c2.444-1.574 5.047-1.574 5.047-1.574-10.536 11.436-4.886 20.922-4.886 20.922 1.842-3.638 4.165-4.5 4.165-4.5C4.077 53.162 13.489 57.5 13.489 57.5c.803-2.537 2.51-4.263 2.51-4.263 2.098 5.7 7.186 7.875 7.186 7.875-.158-3.037 1.607-4.574 1.607-4.574C26.819 63.213 36.809 64 36.809 64s-3.137-4.425 2.4-7.462c0 0 1.762.637 1.603 3.675 0 0 5.091-1.276 7.187-6.976 0 0 2.67.825 3.47 3.363 0 0 8.454-3.438 6.854-18.475 0 0 2.322.862 4.164 4.5 0 0 5.65-9.486-4.89-20.922z" style="fill:url(#a)"/><path d="M49.8 20.887c3.146 1.657 4.688 6.578 4.936 8.816.112 1.011-2.229-2.123-5.087-2.24-2.33-.097-1.496-7.444.15-6.576z" style="fill:#f99a00"/><path d="M51.789 26.794c2.949 1.989 3.95 7.047 3.954 9.3.003 1.016-1.986-2.352-4.815-2.779-2.305-.347-.682-7.56.86-6.52z" style="fill:#f99a00"/><path d="M53.54 32.655c2.286 2.724 1.854 7.863 1.237 10.029-.278.978-1.26-2.808-3.862-3.998-2.12-.97 1.428-7.456 2.625-6.03z" style="fill:#f99a00"/><path d="M55.087 37.575c.458 3.527-2.675 7.623-4.362 9.115-.761.675.451-3.045-1.1-5.449-1.263-1.959 5.222-5.511 5.462-3.666zM14.2 20.887c-3.146 1.657-4.688 6.578-4.936 8.816-.112 1.011 2.229-2.123 5.087-2.24 2.33-.097 1.496-7.444-.15-6.576z" style="fill:#f99a00"/><path d="M12.211 26.794c-2.949 1.989-3.95 7.047-3.954 9.3-.003 1.016 1.986-2.352 4.815-2.779 2.305-.347.682-7.56-.86-6.52z" style="fill:#f99a00"/><path d="M10.46 32.655c-2.286 2.724-1.854 7.863-1.237 10.029.278.978 1.26-2.808 3.862-3.998 2.12-.97-1.428-7.456-2.625-6.03z" style="fill:#f99a00"/><path d="M8.913 37.575c-.458 3.527 2.675 7.623 4.362 9.115.761.675-.451-3.045 1.1-5.449 1.263-1.959-5.222-5.511-5.462-3.666z" style="fill:#f99a00"/><radialGradient id="b" cx="30.578" cy="27.762" r="21.579" fx="30.69" fy="11.765" gradientTransform="matrix(.9898 0 0 1.0106 1.733 4.391)" gradientUnits="userSpaceOnUse"><stop offset="0" style="stop-color:#f9b700"/><stop offset=".431" style="stop-color:#f9b400"/><stop offset=".723" style="stop-color:#f9ab00"/><stop offset=".973" style="stop-color:#f99c00"/><stop offset="1" style="stop-color:#f99a00"/></radialGradient><path d="M9.383 37.193C8.569 44.063 21.503 52.848 32 52.848c10.495 0 23.429-8.785 22.616-15.655-3.074-25.967-10-25.144-22.617-25.143-12.616 0-19.543-.821-22.617 25.143z" style="fill:url(#b)"/><radialGradient id="c" cx="37.597" cy="31.097" r="8.064" gradientTransform="matrix(.9012 0 0 .9769 14.42 -14.742)" gradientUnits="userSpaceOnUse"><stop offset="0" style="stop-color:#f9b700"/><stop offset=".431" style="stop-color:#f9b400"/><stop offset=".723" style="stop-color:#f9ab00"/><stop offset=".973" style="stop-color:#f99c00"/><stop offset="1" style="stop-color:#f99a00"/></radialGradient><path d="M52.053 23.445c2.205-2.497 3.549-4.76 3.543-6.937-.01-3.691-4.156-8.191-6.933-8.66-2.016-.34-5.524.732-7.621 4.565-.335.611 1.898 1.885 2.946 2.49 4.12-1.313 8.558 3.57 7.117 7.239 0 .363.709 1.573.948 1.303z" style="fill:url(#c)"/><linearGradient id="d" x1="43.961" x2="54.077" y1="16.191" y2="16.191" gradientUnits="userSpaceOnUse"><stop offset="0" style="stop-color:#bd8a3e"/><stop offset="1" style="stop-color:#ffe8bb"/></linearGradient><path d="M51.105 22.142c1.721-1.806 2.974-4.008 2.972-5.547-.005-3.258-3.202-5.993-4.493-6.273-2.665-.578-4.137 1.965-5.623 4.565 2.867 1.592 6.322 5.351 7.144 7.255z" style="fill:url(#d)"/><radialGradient id="e" cx="276.146" cy="31.097" r="8.064" gradientTransform="matrix(-.9012 0 0 .9769 264.56 -14.742)" gradientUnits="userSpaceOnUse"><stop offset="0" style="stop-color:#f9b700"/><stop offset=".431" style="stop-color:#f9b400"/><stop offset=".723" style="stop-color:#f9ab00"/><stop offset=".973" style="stop-color:#f99c00"/><stop offset="1" style="stop-color:#f99a00"/></radialGradient><path d="M11.947 23.445c-2.205-2.497-3.549-4.76-3.543-6.937.01-3.691 4.156-8.191 6.933-8.66 2.016-.34 5.524.732 7.621 4.565.335.611-1.898 1.885-2.946 2.49-4.12-1.313-8.558 3.57-7.117 7.239 0 .363-.709 1.573-.948 1.303z" style="fill:url(#e)"/><linearGradient id="f" x1="258.941" x2="269.057" y1="16.191" y2="16.191" gradientTransform="matrix(-1 0 0 1 278.98 0)" gradientUnits="userSpaceOnUse"><stop offset="0" style="stop-color:#bd8a3e"/><stop offset="1" style="stop-color:#ffe8bb"/></linearGradient><path d="M12.895 22.142c-1.721-1.806-2.974-4.008-2.972-5.547.005-3.258 3.202-5.993 4.493-6.273 2.665-.578 4.137 1.965 5.623 4.565-2.867 1.592-6.322 5.351-7.144 7.255z" style="fill:url(#f)"/><linearGradient id="g" x1="5.26" x2="5.26" y1="60.476" y2="53.65" gradientTransform="matrix(.9324 0 0 1 27.096 0)" gradientUnits="userSpaceOnUse"><stop offset="0" style="stop-color:#bd8a3e"/><stop offset=".17" style="stop-color:#cb9d58"/><stop offset=".554" style="stop-color:#e7c68d"/><stop offset=".843" style="stop-color:#f8dfae"/><stop offset="1" style="stop-color:#ffe8bb"/></linearGradient><path d="M20.841 53.65c1.033 6.285 6.112 6.826 11.159 6.826 5.048 0 10.126-.54 11.158-6.826H20.841z" style="fill:url(#g)"/><path d="M42.805 53.084c-2.905 3.23-7.322.563-10.803.565-3.48 0-7.9 2.666-10.806-.565-.674-.75-1.274.463-.707 1.214 3.053 4.056 7.03 1.055 11.513 1.055 4.48-.002 8.46 3 11.51-1.055.565-.75-.032-1.965-.707-1.214z" style="fill:#2d2d30"/><linearGradient id="h" x1="31.387" x2="31.387" y1="55.483" y2="45.032" gradientTransform="matrix(.9995 0 0 1.0004 .629 .16)" gradientUnits="userSpaceOnUse"><stop offset="0" style="stop-color:#bd8a3e"/><stop offset=".127" style="stop-color:#cea25e"/><stop offset=".291" style="stop-color:#dfbb7f"/><stop offset=".459" style="stop-color:#edcf99"/><stop offset=".63" style="stop-color:#f7ddac"/><stop offset=".808" style="stop-color:#fde5b7"/><stop offset="1" style="stop-color:#ffe8bb"/></linearGradient><path d="M32 45.985s-18.715-4.299-12.491 7.351c2.476 4.635 9.95.92 12.491.92 2.541 0 10.015 3.715 12.491-.92C50.715 41.686 32 45.986 32 45.986z" style="fill:url(#h)"/><path d="M32 49.18c-.547 0 0 5.246 0 5.246s.549-5.246 0-5.246z" style="fill:#2d2d30"/><path d="M21.639 47.984c-.09.605.815.75.906.145.091-.606-.815-.751-.906-.145zm-2.323 1.823c-.09.604.816.75.907.145.09-.606-.816-.752-.907-.145zm2.591 1.247c-.09.605.816.75.907.146.09-.607-.816-.752-.907-.146zm20.454-3.07c.09.605-.815.75-.906.145-.091-.606.815-.751.906-.145zm2.323 1.823c.09.604-.816.75-.907.145-.09-.606.816-.752.907-.145zm-2.591 1.247c.09.605-.816.75-.907.146-.09-.607.816-.752.907-.146z" style="opacity:.5;fill:#bd8a3e"/><linearGradient id="i" x1="32.215" x2="32.215" y1="48.732" y2="37.435" gradientUnits="userSpaceOnUse"><stop offset=".482" style="stop-color:#f99a00"/><stop offset="1" style="stop-color:#f9b700"/></linearGradient><path d="M32 37.435c-7.531 0-7.014 3.214-7.014 9.666 0 2.191 13.647 2.158 14.028 0 1.12-6.354.524-9.666-7.014-9.666z" style="fill:url(#i)"/><radialGradient id="j" cx="59.979" cy="134.399" r="8.249" fx="59.978" fy="132.202" gradientTransform="matrix(1.0639 0 0 .3961 -31.812 -5.916)" gradientUnits="userSpaceOnUse"><stop offset="0" style="stop-color:#a86546"/><stop offset=".236" style="stop-color:#a26145"/><stop offset=".557" style="stop-color:#915742"/><stop offset=".924" style="stop-color:#74463e"/><stop offset=".994" style="stop-color:#6e423d"/></radialGradient><path d="M32 44.073c-3.871 0-7.014.532-7.014 3.289 0 2.192 5.583 4.135 7.014 4.135 1.434 0 7.013-1.943 7.013-4.135 0-2.757-3.138-3.289-7.013-3.289z" style="fill:url(#j)"/><path d="M37.404 48.353c.662-2.319-4.613.947-3.883 2.409 1.928-1.57 3.586-1.366 3.883-2.41zm-10.809 0c-.66-2.319 4.616.947 3.884 2.409-1.926-1.57-3.584-1.366-3.884-2.41z" style="fill:#2d2d30"/><path d="M42.96 26.647c-4.94.042-6.873 4.493-6.48 7.7.292 2.385 12.76 1.013 12.914-.36.387-3.469-1.887-7.38-6.434-7.34z" style="fill:#5e4132"/><path d="M42.863 27.692c-3.525 0-6.379 2.773-6.379 6.189 0 2.952 2.35 6.19 6.38 6.19 4.028 0 5.864-3.774 5.864-6.19 0-3.416-2.34-6.189-5.865-6.189z" style="fill:#ffeeb8"/><path d="M41.778 28.93c2.402 0 4.347 2.19 4.347 4.89 0 2.7-1.945 4.889-4.347 4.889-2.404 0-4.349-2.19-4.349-4.89 0-2.698 1.945-4.89 4.349-4.89z" style="fill:#1a1626"/><path d="M42.014 31.323c0 1.79-2.751 1.79-2.751 0 0-1.793 2.75-1.793 2.75 0z" style="fill:#fff"/><path d="M21.04 26.647c4.94.042 6.873 4.493 6.48 7.7-.292 2.385-12.76 1.013-12.914-.36-.387-3.469 1.887-7.38 6.434-7.34z" style="fill:#5e4132"/><path d="M21.137 27.692c3.525 0 6.379 2.773 6.379 6.189 0 2.952-2.35 6.19-6.38 6.19-4.028 0-5.864-3.774-5.864-6.19 0-3.416 2.339-6.189 5.865-6.189z" style="fill:#ffeeb8"/><path d="M22.222 28.93c-2.402 0-4.347 2.19-4.347 4.89 0 2.7 1.945 4.889 4.347 4.889 2.404 0 4.349-2.19 4.349-4.89 0-2.698-1.945-4.89-4.349-4.89z" style="fill:#1a1626"/><path d="M21.986 31.323c0 1.79 2.751 1.79 2.751 0 0-1.793-2.75-1.793-2.75 0z" style="fill:#fff"/></svg>