<svg xmlns="http://www.w3.org/2000/svg" xml:space="preserve" style="enable-background:new 0 0 64 64" viewBox="0 0 64 64"><linearGradient id="a" x1="-37.007" x2="-34.791" y1="113.286" y2="105.3" gradientTransform="rotate(-8.11 -453.422 -430.392)" gradientUnits="userSpaceOnUse"><stop offset="0" style="stop-color:#cfd8dd"/><stop offset=".791" style="stop-color:#ebf1f5"/><stop offset="1" style="stop-color:#f3f8fc"/></linearGradient><path d="M48.894 46.005s-19.014-1.69-24.923-6.82c5.618 12.239 24.471 12.72 24.923 6.82z" style="fill:url(#a)"/><linearGradient id="b" x1="-252.456" x2="-258.582" y1="258.136" y2="240.942" gradientTransform="rotate(27.006 300.741 762.23)" gradientUnits="userSpaceOnUse"><stop offset="0" style="stop-color:#cfd8dd"/><stop offset=".015" style="stop-color:#d0d9de"/><stop offset=".631" style="stop-color:#e9eff4"/><stop offset="1" style="stop-color:#f3f8fc"/></linearGradient><path d="M46.224 61.667s-14.598-11.68-16.32-19.055c-2.864 13 12.344 23.609 16.32 19.055z" style="fill:url(#b)"/><linearGradient id="c" x1="-185.457" x2="-187.492" y1="190.877" y2="175.931" gradientTransform="rotate(15.147 417.012 975.33)" gradientUnits="userSpaceOnUse"><stop offset="0" style="stop-color:#cfd8dd"/><stop offset=".791" style="stop-color:#ebf1f5"/><stop offset="1" style="stop-color:#f3f8fc"/></linearGradient><path d="M51.617 59.947S34.806 51.26 31.493 44.34c.087 13.321 17.254 20.843 20.124 15.607z" style="fill:url(#c)"/><linearGradient id="d" x1="-132.588" x2="-132.457" y1="150.677" y2="137.994" gradientTransform="rotate(6.805 733.14 1562.511)" gradientUnits="userSpaceOnUse"><stop offset="0" style="stop-color:#cfd8dd"/><stop offset=".791" style="stop-color:#ebf1f5"/><stop offset="1" style="stop-color:#f3f8fc"/></linearGradient><path d="M52.955 56.712s-17.941-6.356-22.29-12.776c2.165 13.207 20.275 18.356 22.29 12.776z" style="fill:url(#d)"/><linearGradient id="e" x1="-82.76" x2="-81.319" y1="118.82" y2="108.333" gradientTransform="matrix(1 -.0075 .0075 1 122.216 -67.248)" gradientUnits="userSpaceOnUse"><stop offset="0" style="stop-color:#cfd8dd"/><stop offset=".791" style="stop-color:#ebf1f5"/><stop offset="1" style="stop-color:#f3f8fc"/></linearGradient><path d="M53.156 50.189s-18.617-4.22-23.789-10.096c3.934 12.88 22.554 15.882 23.79 10.096z" style="fill:url(#e)"/><linearGradient id="f" x1="-81.99" x2="-80.549" y1="122.108" y2="111.623" gradientTransform="matrix(1 -.0075 .0075 1 122.216 -67.248)" gradientUnits="userSpaceOnUse"><stop offset="0" style="stop-color:#cfd8dd"/><stop offset=".791" style="stop-color:#ebf1f5"/><stop offset="1" style="stop-color:#f3f8fc"/></linearGradient><path d="M53.952 53.472s-18.617-4.22-23.79-10.095c3.935 12.88 22.553 15.88 23.79 10.095z" style="fill:url(#f)"/><linearGradient id="g" x1="-42.45" x2="-42.45" y1="119.858" y2="106.868" gradientTransform="rotate(14.442 329.564 267.58)" gradientUnits="userSpaceOnUse"><stop offset="0" style="stop-color:#94796a"/><stop offset=".008" style="stop-color:#937869"/><stop offset=".284" style="stop-color:#725b4e"/><stop offset=".547" style="stop-color:#5a463b"/><stop offset=".792" style="stop-color:#4c392f"/><stop offset="1" style="stop-color:#47352b"/></linearGradient><path d="M0 17.773c.946 1.291 1.877.841 4.394 1.986-1.456.391-2.838 1.027-3.92 2.135 1.865 1.094 2.722-.012 6.115-.207-1.74 1.069-3.35 2.445-4.133 4.408 1.62.236 2.22-.497 3.757-1.51-.963 1.495-1.624 3.22-1.602 5.264 1.878-.035 2.375-.936 3.435-2.347-.54 1.291-.824 2.77-.667 4.504 3.805.39 3.286-2.197 9.899-5.59 0 0-10.573-10.87-17.278-8.643z" style="fill:url(#g)"/><linearGradient id="h" x1="117.948" x2="143.033" y1="509.526" y2="509.526" gradientTransform="scale(-1 1) rotate(-66.234 -315.475 377.266)" gradientUnits="userSpaceOnUse"><stop offset="0" style="stop-color:#94796a"/><stop offset=".24" style="stop-color:#796154"/><stop offset=".537" style="stop-color:#5d493d"/><stop offset=".8" style="stop-color:#4d3a30"/><stop offset="1" style="stop-color:#47352b"/></linearGradient><path d="M13.385 19.835c7.938 1.231 9.329 8.331 14.482 9.707l-10.883 5.579c-.17-17.158-15.373-10.871-14.83-20.225.153-2.637-.691 3.091 11.23 4.939z" style="fill:url(#h)"/><linearGradient id="i" x1="68.352" x2="46.699" y1="-.441" y2="-6.955" gradientTransform="rotate(-4.083 360.698 254.263)" gradientUnits="userSpaceOnUse"><stop offset=".303" style="stop-color:#47352b"/><stop offset=".454" style="stop-color:#4b392f"/><stop offset=".618" style="stop-color:#584439"/><stop offset=".788" style="stop-color:#6e574b"/><stop offset=".961" style="stop-color:#8c7264"/><stop offset="1" style="stop-color:#94796a"/></linearGradient><path d="M54.156 8.42c6.366-1.04 8.815-.196 9.143-1.21-1.723-1.019-5.192-1.125-8.61-.932 4.872-1.48 6.89-1.381 7.059-2.332-2-.633-6.22.132-10.014 1.056C56.785 2.17 58.938 1.814 58.94.789 55.446 1.262 51.272 3 47.983 4.573 51.397 1.653 52.91.918 52.72 0c-2.43.88-11.263 7.283-13.09 8.584-.134-.42.01-1.555-.342-1.274-2.566 2.05-5.712 4.543-6.292 6.188-2.984 8.455-5.92 16.967-11.425 17.354 0 0 12.638 10.221 15.114 8.574a8.048 8.048 0 0 0-1.16-1.458c.942.332 1.649.448 2.696-.203a7.626 7.626 0 0 0-.738-.943c.894.315 1.587.405 2.602-.263a7.933 7.933 0 0 0-1.01-1.291c1.157.443 1.905.705 3.103-.074a8.12 8.12 0 0 0-.87-1.134c.973.364 1.683.504 2.76-.212a8.345 8.345 0 0 0-.84-1.123c.777.248 1.43.26 2.354-.371a8.11 8.11 0 0 0-1.136-1.472c.738.209 1.376.206 2.257-.356a7.971 7.971 0 0 0-1.178-1.42c1.204.228 1.979.35 3.03-.642a7.485 7.485 0 0 0-1.077-1c.84.007 1.486-.157 2.237-1.024a7.395 7.395 0 0 0-1.365-.95c1.133.041 1.891.009 2.803-.988a7.085 7.085 0 0 0-1.353-.86c1.169-.016 1.932-.074 2.806-1.152a7.156 7.156 0 0 0-1.261-.744c.836-.071 1.47-.277 2.18-1.127a6.8 6.8 0 0 0-1.348-.707c1.409-.055 2.242-.017 3.217-1.18a7.023 7.023 0 0 0-1.62-.814c1.103-.045 1.846-.145 2.694-1.158a7.057 7.057 0 0 0-1.002-.56c1.243.06 2.03.09 3.017-.912a7.057 7.057 0 0 0-1.472-.91c1.19.193 1.96.288 3.015-.58a7.211 7.211 0 0 0-1.69-1.243c3.035.383 4.446 1.228 4.696.527-2.388-1.764-5.62-2.427-8.697-2.608 6.515-.782 9.337 1.317 9.664.298-2.72-1.885-6.458-2.377-9.844-2.352z" style="fill:url(#i)"/><linearGradient id="j" x1="72.231" x2="61.162" y1="-4.962" y2="-15.338" gradientTransform="rotate(-4.083 360.698 254.263)" gradientUnits="userSpaceOnUse"><stop offset="0" style="stop-color:#805f4d"/><stop offset="1" style="stop-color:#805f4d;stop-opacity:0"/></linearGradient><path d="M54.167 6.308c-12.47 1.999-15.096 7.045-15.096 7.045 1.41-1.425 15.096-7.045 15.096-7.045z" style="fill:url(#j)"/><linearGradient id="k" x1="69.654" x2="58.236" y1="-1.319" y2="-12.024" gradientTransform="rotate(-4.083 360.698 254.263)" gradientUnits="userSpaceOnUse"><stop offset="0" style="stop-color:#805f4d"/><stop offset="1" style="stop-color:#805f4d;stop-opacity:0"/></linearGradient><path d="M56.48 14.352c-14.945-1.707-19.674 2.38-19.674 2.38 2.102-.958 19.674-2.38 19.674-2.38z" style="fill:url(#k)"/><linearGradient id="l" x1="66.988" x2="55.572" y1="1.772" y2="-8.931" gradientTransform="rotate(-4.083 360.698 254.263)" gradientUnits="userSpaceOnUse"><stop offset="0" style="stop-color:#805f4d"/><stop offset="1" style="stop-color:#805f4d;stop-opacity:0"/></linearGradient><path d="M53.88 18.135c-13.905-1.814-18.275 2.237-18.275 2.237 1.949-.941 18.275-2.237 18.275-2.237z" style="fill:url(#l)"/><linearGradient id="m" x1="63.837" x2="52.325" y1="5.491" y2="-5.301" gradientTransform="rotate(-4.083 360.698 254.263)" gradientUnits="userSpaceOnUse"><stop offset="0" style="stop-color:#805f4d"/><stop offset="1" style="stop-color:#805f4d;stop-opacity:0"/></linearGradient><path d="M49.107 23.618c-10.01-3.58-13.58-.126-13.58-.126 1.51-.685 13.58.126 13.58.126z" style="fill:url(#m)"/><linearGradient id="n" x1="61.016" x2="49.464" y1="8.751" y2="-2.079" gradientTransform="rotate(-4.083 360.698 254.263)" gradientUnits="userSpaceOnUse"><stop offset="0" style="stop-color:#805f4d"/><stop offset="1" style="stop-color:#805f4d;stop-opacity:0"/></linearGradient><path d="M46.486 27.519c-9.782-4.263-13.554-1.066-13.554-1.066 1.55-.576 13.554 1.066 13.554 1.066z" style="fill:url(#n)"/><linearGradient id="o" x1="58.619" x2="47.023" y1="11.528" y2=".656" gradientTransform="rotate(-4.083 360.698 254.263)" gradientUnits="userSpaceOnUse"><stop offset="0" style="stop-color:#805f4d"/><stop offset="1" style="stop-color:#805f4d;stop-opacity:0"/></linearGradient><path d="M43.953 30.85c-9.194-4.797-13.035-1.977-13.035-1.977 1.534-.45 13.035 1.977 13.035 1.977z" style="fill:url(#o)"/><linearGradient id="p" x1="56.141" x2="44.508" y1="14.376" y2="3.471" gradientTransform="rotate(-4.083 360.698 254.263)" gradientUnits="userSpaceOnUse"><stop offset="0" style="stop-color:#805f4d"/><stop offset="1" style="stop-color:#805f4d;stop-opacity:0"/></linearGradient><path d="M41.023 33.844c-8.885-5.43-12.894-2.888-12.894-2.888 1.56-.34 12.894 2.888 12.894 2.888z" style="fill:url(#p)"/><linearGradient id="q" x1="54.24" x2="42.54" y1="16.619" y2="5.65" gradientTransform="rotate(-4.083 360.698 254.263)" gradientUnits="userSpaceOnUse"><stop offset="0" style="stop-color:#805f4d"/><stop offset="1" style="stop-color:#805f4d;stop-opacity:0"/></linearGradient><path d="M37.254 36.555c-5.492-4.518-8.4-3.216-8.4-3.216 1.075-.072 8.4 3.216 8.4 3.216z" style="fill:url(#q)"/><linearGradient id="r" x1="72.162" x2="60.823" y1="-4.321" y2="-14.951" gradientTransform="rotate(-4.083 360.698 254.263)" gradientUnits="userSpaceOnUse"><stop offset="0" style="stop-color:#805f4d"/><stop offset="1" style="stop-color:#805f4d;stop-opacity:0"/></linearGradient><path d="M54.016 10.68c-6.833-.94-11.35 2.42-11.35 2.42.887-.646 11.35-2.42 11.35-2.42z" style="fill:url(#r)"/><path d="M19.462 53.883c-1.182 1.222-3.46 1.755-3.46 1.755l-.27 2.02c3.272-.35 5.377-1.894 5.377-1.894.694-2.28-1.647-1.881-1.647-1.881zm4.191 2.137c-1.21 1.495-3.746 2.312-3.746 2.312l-.083 2.324c3.684-.7 5.912-2.647 5.912-2.647.54-2.661-2.083-1.99-2.083-1.988z" style="fill:#f59e01"/><path d="M22.794 55.787c-2.91.784-6.027-1.417-3.045-2.83 3.603-1.1 5.435-3.944 5.435-3.944s3.25 4.757-2.39 6.774z" style="fill:#805f4d"/><linearGradient id="s" x1="-110.919" x2="-86.113" y1="198.706" y2="198.706" gradientTransform="rotate(10.642 788.77 795.67)" gradientUnits="userSpaceOnUse"><stop offset="0" style="stop-color:#94796a"/><stop offset=".198" style="stop-color:#8e7365"/><stop offset=".473" style="stop-color:#7c6356"/><stop offset=".792" style="stop-color:#5e493e"/><stop offset="1" style="stop-color:#47352b"/></linearGradient><path d="M22.246 55.798c1.415 3.558 2.912 1.708 2.912 1.708-.28 1.373.421 2.502.421 2.502 1.61-1.001 1.988-2.364 2.074-3.037.062 1.031 2.508 2.386 2.508 2.386 1.332-1.7 1.907-2.48 1.804-2.89 1.065 1.437 3.562 1.702 3.562 1.702.297-1.127-.187-3.34-.187-3.34s1.076.325 2.545-.254c-.201-2.21-1.623-4.039-1.623-4.039 1.14.04 2.244-1.117 2.244-1.117-.776-1.804-2.074-2.625-2.074-2.625 1.158-.243 2.074-1.344 2.074-1.344-10.135-6.265-5.452-12.285-19.085-17.167l-4.074 11.912c.384 9.483 16.233 7.078 6.9 15.603z" style="fill:url(#s)"/><path d="M10.273 53.151c3.166 3.557.892 5.834 2.758 7.195 7.221-4.031 5.1-9.59 3.644-7.9.579 2.28-1.792 3.68-1.564 2.543.389-1.902-.346-5.192-1.733-3.515.522.852.361 5.414-.53 3.41-1.591-3.58-2.635-2.381-2.575-1.733z" style="fill:#f9c802"/><path d="M11.23 60.647c.865-.64.83-2.763 2.17-1.12.87 1.064-3.246 1.912-2.17 1.12zm-.138-7.766c1.223 1.524-.65 1.125-1.364 1.816-.885.855.575-2.801 1.364-1.816zm2.965-1.405c1.225 1.523-.652 1.126-1.364 1.817-.885.855.575-2.804 1.364-1.817zm3.251 1.007c1.223 1.525-.653 1.127-1.364 1.817-.885.856.577-2.803 1.364-1.816z" style="fill:#302c3b"/><path d="M15.492 56.194c3.166 3.555.892 5.835 2.758 7.197 7.222-4.032 5.1-9.59 3.643-7.905.582 2.285-1.79 3.682-1.563 2.546.389-1.9-.347-5.193-1.734-3.513.526.853.363 5.41-.527 3.409-1.589-3.581-2.637-2.383-2.577-1.734z" style="fill:#f9c802"/><path d="M16.448 63.69c.867-.638.83-2.763 2.173-1.12.87 1.063-3.246 1.91-2.173 1.12zm-.134-7.766c1.223 1.525-.652 1.125-1.367 1.818-.883.855.578-2.803 1.367-1.818zm2.962-1.406c1.226 1.523-.65 1.125-1.363 1.82-.886.85.576-2.805 1.363-1.82zm3.254 1.01c1.222 1.524-.651 1.123-1.367 1.814-.884.856.577-2.8 1.366-1.814z" style="fill:#302c3b"/><radialGradient id="t" cx="7.518" cy="76.441" r="7.882" gradientTransform="matrix(.9608 -.2856 .2773 .9898 -13.838 -40.069)" gradientUnits="userSpaceOnUse"><stop offset="0" style="stop-color:#f4f8fc"/><stop offset=".32" style="stop-color:#f1f5f9"/><stop offset=".592" style="stop-color:#e6ecf0"/><stop offset=".846" style="stop-color:#d5dce1"/><stop offset="1" style="stop-color:#c6cfd4"/></radialGradient><path d="M9.479 33.653c-.018-1.32 2.799-8.056 10.09-7.486-1.055.389-1.61 1.11-1.61 1.11s3.007-.8 5.041 1.779c-1.177-.07-2.32.513-2.32.513s3.595 1.025 3.81 5.019c-1.12-.644-2.453-.744-2.453-.744s1.833 1.738 1.438 4.698c-1.415.94-3.215-.713-3.215-.713s1.128 2.82.544 4.596c-2.085.07-3.356-1.384-3.356-1.384s.059 1.906-.976 3.496c-3.155-2.981 1.16-10.995-4.855-7.716 0 0-2.101-.345-2.138-3.168z" style="fill:url(#t)"/><path d="M11.72 40.448s-.152-2.364.368-3.2c1.602-2.578 2.62-2.3 2.572-3.477-2.78.686-5.371 4.391-2.94 6.677z" style="fill:#f9c802"/><path d="M11.72 40.448s-.659-1.917-.053-3.434c.552-1.374 1.93-1.782 2.993-3.244-3.362 1.283-6.396 3.557-2.94 6.678z" style="fill:#de8f01"/><radialGradient id="u" cx=".505" cy="77.071" r="7.324" gradientTransform="matrix(.49 -.898 .2891 .1674 -14.511 23.62)" gradientUnits="userSpaceOnUse"><stop offset="0" style="stop-color:#ffc800"/><stop offset=".354" style="stop-color:#fab201"/><stop offset=".708" style="stop-color:#f6a301"/><stop offset="1" style="stop-color:#f59e01"/></radialGradient><path d="M9.488 33.878c-2.21 2.233-2.16 3.439-1.96 4.4.213 1.018 1.11 2.074 2.6 2.656 0 0-1.117-1.732-.783-2.156 1.539-1.958.683-2.583 5.315-5.007-1.627.464-2.746 1.096-3.329 1.48a.394.394 0 0 1-.598-.234c-.176-.678-.765-1.624-1.245-1.14z" style="fill:url(#u)"/><path d="M9.52 34.556c.271-.294.639-.008.869.31-.442-.207-1.078-.085-.87-.31z" style="fill:#de8f01"/><radialGradient id="v" cx="12.867" cy="31.085" r="4.157" gradientTransform="matrix(.7496 -.6619 .6292 .7124 -16.335 17.456)" gradientUnits="userSpaceOnUse"><stop offset=".289" style="stop-color:#8a9094"/><stop offset=".403" style="stop-color:#91979b;stop-opacity:.8403"/><stop offset=".565" style="stop-color:#a4a9ad;stop-opacity:.6121"/><stop offset=".756" style="stop-color:#c2c7cb;stop-opacity:.3427"/><stop offset=".969" style="stop-color:#edf1f5;stop-opacity:.044"/><stop offset="1" style="stop-color:#f4f8fc;stop-opacity:0"/></radialGradient><path d="M9.645 33.76c3.612 4.883 11.313-2.578 6.392-5.408-3.261 1.324-3.73 4.176-6.392 5.408z" style="fill:url(#v)"/><path d="M14.598 30.426c1.22 1.178-.892 2.793-1.978 2.097-1.139-1.52 1.127-2.92 1.978-2.097z" style="fill:#ffaf00"/><path d="M14.51 30.516c1.063 1.066-.914 2.55-1.887 1.94-.989-1.46 1.016-2.813 1.887-1.94z" style="fill:#1a1626"/><linearGradient id="w" x1="13.062" x2="14.107" y1="30.891" y2="31.916" gradientUnits="userSpaceOnUse"><stop offset="0" style="stop-color:#6b2e00"/><stop offset=".212" style="stop-color:#945f29"/><stop offset=".477" style="stop-color:#c29558"/><stop offset=".707" style="stop-color:#e3bd7a"/><stop offset=".889" style="stop-color:#f7d58e"/><stop offset="1" style="stop-color:#ffde96"/></linearGradient><path d="M14.513 30.96c.537 1.325-1.458 2.099-1.971.763-.466-1.21 1.435-2.085 1.971-.764z" style="fill:url(#w)"/><path d="M14.004 31.157c.26.641-.693 1.01-.952.37-.26-.639.693-1.008.952-.37z" style="fill:#1a1626"/><path d="M14.09 30.913c.009.365-.538.356-.546-.01-.008-.364.538-.355.547.01z" style="fill:#fff"/><path d="M10.884 33.07c2.429-.529 2.967-3.275 4.866-4.612-2.643.988-2.928 3.51-4.866 4.611z" style="fill:#ffaf00"/><path d="M9.645 33.76c3.004-.681 4.042-4.363 6.667-5.544-3.449.581-4.278 4.157-6.668 5.544z" style="fill:#f4f8fc"/></svg>