<svg xmlns="http://www.w3.org/2000/svg" xml:space="preserve" viewBox="0 0 64 64"><linearGradient id="a" x1="41.157" x2="45.36" y1="10.398" y2="6.662" gradientUnits="userSpaceOnUse"><stop offset="0" style="stop-color:#b00000"/><stop offset=".167" style="stop-color:#ca290a"/><stop offset=".342" style="stop-color:#e14c13"/><stop offset=".507" style="stop-color:#f2651a"/><stop offset=".656" style="stop-color:#fc751e"/><stop offset=".776" style="stop-color:#ff7a1f"/></linearGradient><path fill="url(#a)" d="M49.874 11.685s-5.876-7.76-15.169-4.414c-1.061.382-1.342 1.569-.385 1.267 2.088-.654 7.934-.267 9.071 4.584.001.001 3.285 1.303 6.483-1.437z"/><radialGradient id="b" cx="240.005" cy="281.514" r=".758" gradientTransform="matrix(9.8257 1.3652 -.3329 2.7538 -2225.27 -1093.921)" gradientUnits="userSpaceOnUse"><stop offset=".57" style="stop-color:#252a40"/><stop offset=".833" style="stop-color:#535d6d"/><stop offset="1" style="stop-color:#6c7985"/></radialGradient><path fill="url(#b)" d="M45.348 7.988c-2.607-1.394-6.242-2.301-10.643-.717-1.061.382-1.342 1.569-.385 1.267 1.623-.511 5.516-.388 7.704 1.972-.838-3.544 6.222-.976 3.324-2.522z"/><linearGradient id="c" x1="105.203" x2="112.615" y1="-102.897" y2="-102.897" gradientTransform="matrix(1 0 0 -1 -56 -80)" gradientUnits="userSpaceOnUse"><stop offset="0" style="stop-color:#b00000"/><stop offset=".086" style="stop-color:#bd1000"/><stop offset=".309" style="stop-color:#d93600"/><stop offset=".516" style="stop-color:#ee5200"/><stop offset=".698" style="stop-color:#fb6200"/><stop offset=".836" style="stop-color:#ff6800"/></linearGradient><path fill="url(#c)" d="M55.234 27.309c-8.567-.065-4.822-3.031-5.82-5.008-1.325-3.559 3.96-3.459 5.447-3.817.942 1.977 3.215 4.133.373 8.825z"/><linearGradient id="d" x1="101.387" x2="110.269" y1="-114.513" y2="-105.63" gradientTransform="matrix(1 0 0 -1 -56 -80)" gradientUnits="userSpaceOnUse"><stop offset="0" style="stop-color:#b00000"/><stop offset="1" style="stop-color:#ff6800"/></linearGradient><path fill="url(#d)" d="M55.735 27.167c.315.885-4.259 7.317-8.798 8.353 0 0-3.758-2.43-2.939-3.108 2.867-2.382 3.482-6.117 6.725-6.794.766-.215 4.699.664 5.012 1.549z"/><radialGradient id="e" cx="297.234" cy="-362.434" r=".731" gradientTransform="matrix(8.5143 5.4324 2.4543 -4.4217 -1589.777 -3197.772)" gradientUnits="userSpaceOnUse"><stop offset="0" style="stop-color:#7a0000"/><stop offset="1" style="stop-color:#ff6800"/></radialGradient><path fill="url(#e)" d="M43.392 13.123s3.71-.422 6.482-1.438c2.874.204 4.896 3.531 5.353 7.013.225 1.714-4.72-1.33-5.813 3.603-3.375.212-5.566-3.472-7.021-4.757-4.932-3.387.999-4.421.999-4.421z"/><radialGradient id="f" cx="240.081" cy="282.025" r="1.163" gradientTransform="matrix(9.5906 2.6667 -.4109 1.6986 -2146.647 -1104.851)" gradientUnits="userSpaceOnUse"><stop offset="0" style="stop-color:#6c7985"/><stop offset=".274" style="stop-color:#535d6d"/><stop offset=".703" style="stop-color:#252a40"/></radialGradient><path fill="url(#f)" d="M37.744 12.864c.106-.97 2.342.229 2.342.229.391-.989 3.306.03 3.306.03.444 1.894-2.866 1.894-.999 4.421-.706-.623-4.542-2.648-6.451-3.493-.73-.325-.418-.862-.367-.994.359-.925 2.169-.193 2.169-.193z"/><linearGradient id="g" x1="397.513" x2="401.683" y1="-64.728" y2="-68.435" gradientTransform="scale(-1 1) rotate(21.359 -7.23 -1130.95)" gradientUnits="userSpaceOnUse"><stop offset="0" style="stop-color:#b00000"/><stop offset=".167" style="stop-color:#ca290a"/><stop offset=".342" style="stop-color:#e14c13"/><stop offset=".507" style="stop-color:#f2651a"/><stop offset=".656" style="stop-color:#fc751e"/><stop offset=".776" style="stop-color:#ff7a1f"/></linearGradient><path fill="url(#g)" d="M10.926 14.036s2.837-9.525 12.629-10.034c1.117-.058 1.782.937.787 1.027-2.167.205-7.478 2.853-6.889 7.813.001 0-2.617 2.494-6.527 1.194z"/><radialGradient id="h" cx="292.117" cy="268.432" r=".759" gradientTransform="matrix(-8.6869 5.1081 1.2454 2.4347 2223.182 -2138.339)" gradientUnits="userSpaceOnUse"><stop offset=".57" style="stop-color:#252a40"/><stop offset=".833" style="stop-color:#535d6d"/><stop offset="1" style="stop-color:#6c7985"/></radialGradient><path fill="url(#h)" d="M13.885 8.824c1.956-2.317 5.033-4.579 9.671-4.822 1.117-.058 1.782.937.787 1.027-1.685.16-5.27 1.794-6.505 4.845-.423-3.624-6.125 1.522-3.953-1.05z"/><linearGradient id="i" x1="461.202" x2="468.731" y1="-27.663" y2="-27.663" gradientTransform="rotate(158.638 233.42 -43.695)" gradientUnits="userSpaceOnUse"><stop offset="0" style="stop-color:#b00000"/><stop offset=".086" style="stop-color:#bd1000"/><stop offset=".309" style="stop-color:#d93600"/><stop offset=".516" style="stop-color:#ee5200"/><stop offset=".698" style="stop-color:#fb6200"/><stop offset=".836" style="stop-color:#ff6800"/></linearGradient><path fill="url(#i)" d="M11.241 30.678c7.955-3.406 3.461-4.708 3.72-6.937.025-3.833-4.864-1.676-6.371-1.428-.203 2.208-1.59 5.104 2.651 8.365z"/><linearGradient id="j" x1="457.695" x2="466.389" y1="-38.998" y2="-30.304" gradientTransform="rotate(158.638 233.42 -43.695)" gradientUnits="userSpaceOnUse"><stop offset="0" style="stop-color:#b00000"/><stop offset="1" style="stop-color:#ff6800"/></linearGradient><path fill="url(#j)" d="M10.727 30.743c.006.946 6.452 5.148 11.031 4.344 0 0 2.672-3.729 1.683-4.043-3.482-1.099-5.323-4.339-8.571-3.704-.788.099-4.152 2.454-4.143 3.403z"/><radialGradient id="k" cx="348.734" cy="-349.046" r=".731" gradientTransform="matrix(-6.084 8.3838 -3.7877 -3.1596 811.74 -4004.646)" gradientUnits="userSpaceOnUse"><stop offset="0" style="stop-color:#7a0000"/><stop offset="1" style="stop-color:#ff6800"/></radialGradient><path fill="url(#k)" d="M17.454 12.842s-3.6 1.054-6.527 1.194c-2.607 1.311-3.36 5.199-2.602 8.619.373 1.685 3.942-3.082 6.637 1.086 3.214-1.12 4.001-5.408 4.923-7.171 3.442-5.081-2.431-3.728-2.431-3.728z"/><radialGradient id="l" cx="292.194" cy="268.943" r="1.163" gradientTransform="matrix(-8.0259 6.2283 .9596 1.4214 2108.06 -2189.454)" gradientUnits="userSpaceOnUse"><stop offset="0" style="stop-color:#6c7985"/><stop offset=".274" style="stop-color:#535d6d"/><stop offset=".703" style="stop-color:#252a40"/></radialGradient><path fill="url(#l)" d="M22.623 10.398c-.426-.865-2.102 1.125-2.102 1.125-.698-.769-3.067 1.318-3.067 1.318.226 1.936 3.311.643 2.431 3.728.444-.856 3.331-4.24 4.82-5.773.57-.585.097-.964.005-1.069-.651-.719-2.087.671-2.087.671z"/><linearGradient id="m" x1="244.209" x2="244.209" y1="-120.677" y2="-117.014" gradientTransform="rotate(168.667 116.137 -50)" gradientUnits="userSpaceOnUse"><stop offset="0" style="stop-color:#b00000"/><stop offset="1" style="stop-color:#ff6800"/></linearGradient><path fill="url(#m)" d="M6.311 41.812c-3.019 1.62-4.307 3.146-4.307 3.146s-.287-3.055 3.877-4.512c.277-.097.695 1.224.43 1.366z"/><linearGradient id="n" x1="71.816" x2="71.816" y1="-49.462" y2="-44.709" gradientTransform="rotate(144.489 22.514 -7.635)" gradientUnits="userSpaceOnUse"><stop offset="0" style="stop-color:#b00000"/><stop offset="1" style="stop-color:#ff6800"/></linearGradient><path fill="url(#n)" d="M6.975 50.623c-1.798 2.552-2.747 6.18-2.747 6.18s-.7-3.541 1.922-7.202c.194-.27 1.018.75.825 1.022z"/><linearGradient id="o" x1="-429.776" x2="-429.776" y1="-273.187" y2="-269.181" gradientTransform="rotate(70.98 -438.14 206.387)" gradientUnits="userSpaceOnUse"><stop offset="0" style="stop-color:#b00000"/><stop offset="1" style="stop-color:#ff6800"/></linearGradient><path fill="url(#o)" d="M14.666 57.071c.92 1.137 3.987 2.896 3.987 2.896s-3.606.467-4.982-2.165c-.16-.306.787-.985.995-.731z"/><linearGradient id="p" x1="146.361" x2="146.361" y1="-908.69" y2="-903.987" gradientTransform="rotate(-69.452 750.375 -336.938)" gradientUnits="userSpaceOnUse"><stop offset="0" style="stop-color:#b00000"/><stop offset="1" style="stop-color:#ff6800"/></linearGradient><path fill="url(#p)" d="M5.514 32.64c-2.647-3.647-1.307-7.943-1.307-7.943s.302 3.395 2.346 6.898c.199.34-.814 1.357-1.039 1.045z"/><linearGradient id="q" x1="239.867" x2="239.867" y1="-121.052" y2="-116.916" gradientTransform="rotate(168.667 116.137 -50)" gradientUnits="userSpaceOnUse"><stop offset="0" style="stop-color:#b00000"/><stop offset="1" style="stop-color:#ff6800"/></linearGradient><path fill="url(#q)" d="M11.9 43.317c-1.361.678-4.529-1.526-6.839-.412-.374.182-.936-1.666-.585-1.918 2.134-1.55 6.47-.699 7.717.638.257.275.02 1.536-.293 1.692z"/><linearGradient id="r" x1="65.766" x2="65.766" y1="-46.806" y2="-43.7" gradientTransform="rotate(144.489 22.514 -7.635)" gradientUnits="userSpaceOnUse"><stop offset="0" style="stop-color:#b00000"/><stop offset="1" style="stop-color:#ff6800"/></linearGradient><path fill="url(#r)" d="M12.397 47.7c-2.128.613-4.094 1.422-5.434 3.246-.275.376-1.354-1.004-1.145-1.439 1.184-2.482 4.991-4.488 6.374-3.668.332.199.561 1.76.205 1.861z"/><linearGradient id="s" x1="65.256" x2="65.256" y1="-56.236" y2="-49.362" gradientTransform="rotate(144.489 22.514 -7.635)" gradientUnits="userSpaceOnUse"><stop offset="0" style="stop-color:#b00000"/><stop offset="1" style="stop-color:#ff6800"/></linearGradient><path fill="url(#s)" d="M14.904 51.901c-1.108 1.498.244 3.994 0 5.275-.095.5-1.021 1.172-1.399 1.006-1.523-.676-2.756-8.133 1.014-8.412.367-.025.636 1.793.385 2.131z"/><linearGradient id="t" x1="237.947" x2="237.947" y1="-117.445" y2="-108.101" gradientTransform="rotate(168.667 116.137 -50)" gradientUnits="userSpaceOnUse"><stop offset="0" style="stop-color:#b00000"/><stop offset="1" style="stop-color:#ff6800"/></linearGradient><path fill="url(#t)" d="M12.397 39.579c-2.231.264-5.818-3.477-7.131-6.85-.189-.49 1.041-1.819 1.31-1.395 2.014 3.176 4.572 5.095 6.114 6.553.272.259.043 1.655-.293 1.692z"/><linearGradient id="u" x1="234.042" x2="234.042" y1="-124.086" y2="-119.153" gradientTransform="rotate(168.667 116.137 -50)" gradientUnits="userSpaceOnUse"><stop offset="0" style="stop-color:#b00000"/><stop offset="1" style="stop-color:#ff6800"/></linearGradient><path fill="url(#u)" d="M17.997 45.23s-5.472.14-6.368-1.601c-.244-.475-.078-2.176.36-2.227 1.448-.162 5.444.864 5.444.864l.564 2.964z"/><linearGradient id="v" x1="59.375" x2="59.375" y1="-52.709" y2="-44.674" gradientTransform="rotate(144.489 22.514 -7.635)" gradientUnits="userSpaceOnUse"><stop offset="0" style="stop-color:#b00000"/><stop offset="1" style="stop-color:#ff6800"/></linearGradient><path fill="url(#v)" d="M21.882 48.192s-5.731 1.102-9.689 0c-.532-.145-.737-2.533-.229-2.79 1.406-.71 4.691 1.122 7.479.029.778-.303 2.439 2.761 2.439 2.761z"/><linearGradient id="w" x1="58.963" x2="58.963" y1="-56.499" y2="-49.506" gradientTransform="rotate(144.489 22.514 -7.635)" gradientUnits="userSpaceOnUse"><stop offset="0" style="stop-color:#b00000"/><stop offset="1" style="stop-color:#ff6800"/></linearGradient><path fill="url(#w)" d="M25.158 50.512s-5.578 3.847-10.459 1.882c-.519-.209-.767-2.883-.228-2.793 2.59.438 7.727-.973 7.727-.973l2.96 1.884z"/><linearGradient id="x" x1="233.23" x2="233.23" y1="-120.123" y2="-115.126" gradientTransform="rotate(168.667 116.137 -50)" gradientUnits="userSpaceOnUse"><stop offset="0" style="stop-color:#b00000"/><stop offset="1" style="stop-color:#ff6800"/></linearGradient><path fill="url(#x)" d="M17.997 41.188s-3.967-.334-6.096-1.047c-.553-.186-.183-2.979.382-2.894 1.899.296 5.15.976 5.15.976l.564 2.965z"/><linearGradient id="y" x1="-292.989" x2="-292.989" y1="-228.336" y2="-224.673" gradientTransform="scale(1 -1) rotate(-11.332 809.875 -1912.988)" gradientUnits="userSpaceOnUse"><stop offset="0" style="stop-color:#b00000"/><stop offset="1" style="stop-color:#ff6800"/></linearGradient><path fill="url(#y)" d="M57.689 41.812c3.02 1.62 4.307 3.146 4.307 3.146s.29-3.051-3.877-4.512c-.275-.097-.693 1.224-.43 1.366z"/><linearGradient id="z" x1="-374.137" x2="-374.137" y1="-367.711" y2="-362.959" gradientTransform="scale(1 -1) rotate(-35.513 329.775 -885.052)" gradientUnits="userSpaceOnUse"><stop offset="0" style="stop-color:#b00000"/><stop offset="1" style="stop-color:#ff6800"/></linearGradient><path fill="url(#z)" d="M57.026 50.623c1.798 2.552 2.747 6.18 2.747 6.18s.699-3.541-1.922-7.202c-.194-.27-1.019.75-.825 1.022z"/><linearGradient id="A" x1="-251.221" x2="-251.221" y1="-791.153" y2="-787.146" gradientTransform="scale(-1 1) rotate(70.98 -744.081 -222.685)" gradientUnits="userSpaceOnUse"><stop offset="0" style="stop-color:#b00000"/><stop offset="1" style="stop-color:#ff6800"/></linearGradient><path fill="url(#A)" d="M49.336 57.071c-.922 1.137-3.988 2.896-3.988 2.896s3.607.467 4.982-2.165c.16-.306-.787-.985-.994-.731z"/><linearGradient id="B" x1="338.657" x2="338.657" y1="-395.682" y2="-390.979" gradientTransform="scale(-1 1) rotate(-69.452 444.44 104.471)" gradientUnits="userSpaceOnUse"><stop offset="0" style="stop-color:#b00000"/><stop offset="1" style="stop-color:#ff6800"/></linearGradient><path fill="url(#B)" d="M58.486 32.64c2.648-3.647 1.308-7.943 1.308-7.943s-.304 3.395-2.346 6.898c-.2.34.816 1.357 1.038 1.045z"/><linearGradient id="C" x1="-297.331" x2="-297.331" y1="-228.711" y2="-224.576" gradientTransform="scale(1 -1) rotate(-11.332 809.875 -1912.988)" gradientUnits="userSpaceOnUse"><stop offset="0" style="stop-color:#b00000"/><stop offset="1" style="stop-color:#ff6800"/></linearGradient><path fill="url(#C)" d="M52.101 43.317c1.361.678 4.529-1.526 6.839-.412.375.182.936-1.666.586-1.918-2.135-1.55-6.471-.699-7.718.638-.257.275-.021 1.536.293 1.692z"/><linearGradient id="D" x1="-380.188" x2="-380.188" y1="-365.055" y2="-361.949" gradientTransform="scale(1 -1) rotate(-35.513 329.775 -885.052)" gradientUnits="userSpaceOnUse"><stop offset="0" style="stop-color:#b00000"/><stop offset="1" style="stop-color:#ff6800"/></linearGradient><path fill="url(#D)" d="M51.604 47.7c2.126.613 4.093 1.422 5.433 3.246.273.376 1.355-1.004 1.145-1.439-1.184-2.482-4.99-4.488-6.374-3.668-.331.199-.56 1.76-.204 1.861z"/><linearGradient id="E" x1="-380.697" x2="-380.697" y1="-374.485" y2="-367.611" gradientTransform="scale(1 -1) rotate(-35.513 329.775 -885.052)" gradientUnits="userSpaceOnUse"><stop offset="0" style="stop-color:#b00000"/><stop offset="1" style="stop-color:#ff6800"/></linearGradient><path fill="url(#E)" d="M49.098 51.901c1.105 1.498-.244 3.994 0 5.275.096.5 1.02 1.172 1.398 1.006 1.521-.676 2.756-8.133-1.014-8.412-.367-.025-.636 1.793-.384 2.131z"/><linearGradient id="F" x1="-299.25" x2="-299.25" y1="-225.105" y2="-215.76" gradientTransform="scale(1 -1) rotate(-11.332 809.875 -1912.988)" gradientUnits="userSpaceOnUse"><stop offset="0" style="stop-color:#b00000"/><stop offset="1" style="stop-color:#ff6800"/></linearGradient><path fill="url(#F)" d="M51.604 39.579c2.23.264 5.817-3.477 7.13-6.85.191-.49-1.039-1.819-1.311-1.395-2.014 3.176-4.572 5.095-6.113 6.553-.271.259-.042 1.655.294 1.692z"/><linearGradient id="G" x1="-303.155" x2="-303.155" y1="-231.746" y2="-226.813" gradientTransform="scale(1 -1) rotate(-11.332 809.875 -1912.988)" gradientUnits="userSpaceOnUse"><stop offset="0" style="stop-color:#b00000"/><stop offset="1" style="stop-color:#ff6800"/></linearGradient><path fill="url(#G)" d="M46.004 45.23s5.473.14 6.369-1.601c.243-.475.078-2.176-.361-2.227-1.447-.162-5.443.864-5.443.864l-.565 2.964z"/><linearGradient id="H" x1="-386.578" x2="-386.578" y1="-370.957" y2="-362.923" gradientTransform="scale(1 -1) rotate(-35.513 329.775 -885.052)" gradientUnits="userSpaceOnUse"><stop offset="0" style="stop-color:#b00000"/><stop offset="1" style="stop-color:#ff6800"/></linearGradient><path fill="url(#H)" d="M42.119 48.192s5.73 1.102 9.688 0c.532-.145.736-2.533.229-2.79-1.406-.71-4.689 1.122-7.48.029-.777-.303-2.437 2.761-2.437 2.761z"/><linearGradient id="I" x1="-386.99" x2="-386.99" y1="-374.747" y2="-367.755" gradientTransform="scale(1 -1) rotate(-35.513 329.775 -885.052)" gradientUnits="userSpaceOnUse"><stop offset="0" style="stop-color:#b00000"/><stop offset="1" style="stop-color:#ff6800"/></linearGradient><path fill="url(#I)" d="M38.845 50.512s5.577 3.847 10.456 1.882c.521-.209.77-2.883.229-2.793-2.59.438-7.727-.973-7.727-.973l-2.958 1.884z"/><linearGradient id="J" x1="-303.968" x2="-303.968" y1="-227.783" y2="-222.786" gradientTransform="scale(1 -1) rotate(-11.332 809.875 -1912.988)" gradientUnits="userSpaceOnUse"><stop offset="0" style="stop-color:#b00000"/><stop offset="1" style="stop-color:#ff6800"/></linearGradient><path fill="url(#J)" d="M46.004 41.188s3.967-.334 6.097-1.047c.552-.186.183-2.979-.384-2.894-1.896.296-5.148.976-5.148.976l-.565 2.965z"/><path fill="#1A1626" d="m26.288 24.205-1.376 1.188c1.102 1.163 1.18 2.537 1.18 2.537l1.653-.474s-.308-1.436-1.457-3.251z"/><path fill="#1A1626" d="M25.789 26.052c.944-.252 1.093-1.186.836-1.808-.187-.469-2.53.163-2.461.662.101.723.761 1.38 1.625 1.146z"/><path fill="#667980" d="M25.728 25.821c.68-.183 1.088-.856.917-1.503-.152-.563-.864-1.033-1.542-.848-.682.183-1.042 1.048-.918 1.508.171.649.861 1.028 1.543.843z"/><path fill="#1A1626" d="M25.787 25.56a.956.956 0 0 1-1.171-.689.964.964 0 0 1 .671-1.182.957.957 0 0 1 1.167.688.963.963 0 0 1-.667 1.183z"/><path fill="#FFF" d="M25.731 25.07c-.09-.334.416-.472.505-.138.092.346-.413.485-.505.138z"/><path fill="#1A1626" d="m37.709 24.205 1.377 1.188c-1.1 1.163-1.18 2.537-1.18 2.537l-1.653-.474s.308-1.436 1.456-3.251z"/><path fill="#1A1626" d="M38.209 26.052c-.944-.252-1.094-1.186-.836-1.808.188-.469 2.53.163 2.461.662-.102.723-.762 1.38-1.625 1.146z"/><path fill="#667980" d="M38.27 25.821c-.679-.183-1.088-.856-.916-1.503.15-.563.864-1.033 1.543-.848.681.183 1.041 1.048.917 1.508-.171.649-.862 1.028-1.544.843z"/><path fill="#1A1626" d="M38.211 25.56a.957.957 0 0 0 1.172-.689.965.965 0 0 0-.672-1.182.956.956 0 0 0-1.167.688.963.963 0 0 0 .667 1.183z"/><path fill="#FFF" d="M38.266 25.07c.092-.334-.414-.472-.504-.138-.092.346.412.485.504.138z"/><radialGradient id="K" cx="239.273" cy="284.717" r="1.809" gradientTransform="matrix(9.9079 0 0 10.6226 -2338.695 -2981.436)" gradientUnits="userSpaceOnUse"><stop offset=".005" style="stop-color:#ff6800"/><stop offset=".27" style="stop-color:#fd6500"/><stop offset=".455" style="stop-color:#f65c00"/><stop offset=".615" style="stop-color:#ea4d00"/><stop offset=".761" style="stop-color:#da3700"/><stop offset=".897" style="stop-color:#c41b00"/><stop offset="1" style="stop-color:#b00000"/></radialGradient><path fill="url(#K)" d="M49.318 40.556s.473-1.482.235-2.926c-.146-.87-.64-1.531-.64-1.531s.301-2.082-.471-3.088c-.84-1.091-2.238-.959-2.238-.959s-.141-1.241-.855-1.875c-.949-.846-2.212-.429-2.212-.429s-.546-1.201-1.263-1.647c-.637-.392-1.911-.059-1.911-.059s-.542-1.027-1.097-1.329c-.784-.431-2.09.125-2.09.125s-.36-.917-1.174-.984c-.785-.062-1.541.545-1.541.545s-.375-.933-2.061-.933c-1.684 0-2.063.932-2.063.932s-.757-.606-1.543-.545c-.813.067-1.174.984-1.174.984s-1.302-.556-2.088-.125c-.554.302-1.097 1.329-1.097 1.329s-1.274-.333-1.91.059c-.719.446-1.263 1.647-1.263 1.647s-1.262-.417-2.212.429c-.714.634-.856 1.875-.856 1.875s-1.397-.131-2.238.959c-.771 1.006-.471 3.088-.471 3.088s-.494.661-.64 1.531c-.238 1.443.235 2.926.235 2.926s-.891 1.37-.724 2.035c.313 1.27 2.266.807 5.947 5.579.637.826 2.821 1.868 3.649 2.466.841.606 1.356.441 2.011 2.357.318.934 3.896.824 3.896.824s1.013.597 2.538.597c1.523 0 2.537-.597 2.537-.597s3.579.109 3.897-.824c.653-1.916 1.169-1.751 2.011-2.357.828-.598 3.013-1.64 3.649-2.466 3.681-4.772 5.634-4.31 5.948-5.579.17-.664-.721-2.034-.721-2.034z"/><path fill="#AF1F23" d="M27.943 30.992a.346.346 0 0 0 0-.691c-.49.003-.49.691 0 .691zm-1.867 1.566c.783 0 .783-1.104 0-1.104-.784.001-.784 1.104 0 1.104zm-.49-1.912a.346.346 0 0 0 0-.691c-.487.002-.487.691 0 .691zm-2.953 3.3a.345.345 0 0 0 0-.689c-.488.003-.488.689 0 .689zm-.217 2.432c.783 0 .783-1.104 0-1.104s-.783 1.104 0 1.104zm1.112 3.26a.346.346 0 0 0 0-.691c-.488 0-.488.691 0 .691zm2.552.162c-.768 0-.768-1.08 0-1.08.768.002.768 1.08 0 1.08zm.194 2.9c-.587 0-.587-.828 0-.828s.587.828 0 .828zm-3.206 5.215a.415.415 0 0 1 0-.828c.587.002.587.828 0 .828zm1.426-2.471c-.768 0-.768-1.083 0-1.083.768.001.768 1.083 0 1.083zm-1.426-2.93c-.768 0-.768-1.083 0-1.083.769 0 .767 1.083 0 1.083zm12.989-11.522a.346.346 0 0 1 0-.691c.488.003.488.691 0 .691zm1.867 1.566c-.783 0-.783-1.104 0-1.104.783.001.783 1.104 0 1.104zm.488-1.912c-.489 0-.489-.691 0-.691.488.002.488.691 0 .691zm2.955 3.3a.345.345 0 0 1 0-.689c.488.003.488.689 0 .689zm.217 2.432c-.783 0-.783-1.104 0-1.104.782 0 .782 1.104 0 1.104zm-1.113 3.26c-.49 0-.49-.691 0-.691.489 0 .489.691 0 .691zm-2.551.162c.768 0 .768-1.08 0-1.08-.768.002-.768 1.08 0 1.08zm-.193 2.9c.586 0 .586-.828 0-.828a.415.415 0 0 0 0 .828zm3.205 5.215a.415.415 0 0 0 0-.828c-.587.002-.587.828 0 .828zm-1.426-2.471c.768 0 .768-1.083 0-1.083-.77.001-.77 1.083 0 1.083zm1.426-2.93c.768 0 .768-1.083 0-1.083-.769 0-.767 1.083 0 1.083z"/></svg>