<svg xmlns="http://www.w3.org/2000/svg" xml:space="preserve" style="enable-background:new 0 0 64 64" viewBox="0 0 64 64"><linearGradient id="a" x1="22.768" x2="22.768" y1="60.966" y2="31.658" gradientUnits="userSpaceOnUse"><stop offset=".054" style="stop-color:#8a5e40"/><stop offset=".35" style="stop-color:#a47a5d"/><stop offset="1" style="stop-color:#d9b39b"/></linearGradient><path d="M18.784 34.874c-.775 7.468 3.014 8.812 4.366 12.954 1.861 5.715.693 10.229.773 12.86.022.67 2.242.029 2.184-.829-.143-2.126-.559-9.993-.02-13.36.647-4.061 1.549-7.405-.49-10.393-2.47-3.619-6.188-7.26-6.813-1.232z" style="fill:url(#a)"/><path d="M23.923 60.688s-.693 1.476-.305 1.802h2.264c.857 0-.05-1.867.072-2.129.121-.26-2.031.327-2.031.327z" style="fill:#302c3b"/><linearGradient id="b" x1="66.007" x2="66.007" y1="2.245" y2="-10.133" gradientTransform="rotate(-3.714 670.118 193.762)" gradientUnits="userSpaceOnUse"><stop offset="0" style="stop-color:#5c4236"/><stop offset=".081" style="stop-color:#694a3b"/><stop offset=".371" style="stop-color:#916649"/><stop offset=".601" style="stop-color:#ab7753"/><stop offset=".739" style="stop-color:#b47d56"/></linearGradient><path d="M51.98 29.4c2.387 1.56 5.52 3.51 4.736 11.53-.117 1.19-1.092.389-1.082-.744.051-6.16-3.654-10.787-3.654-10.787z" style="fill:url(#b)"/><path d="M18.273 16.812c-2.721-2.387-.5-5.998-.223-5.586.887 1.318 2.072 2.055 1.77 3.789-.131.76-1.206 2.094-1.547 1.797z" style="fill:#9e6c49"/><path d="M6.11 2.042c2.455 9.657 10.885 4.659 14.94 9.162l-.746.93c-3.625-4.262-12.863.027-14.303-10.07-.012-.088.088-.107.11-.022z" style="fill:#5c4236"/><path d="M13.808 1.523c.17 2.463 3.63 5.67 2.836 8.193-.012.031-.895.031-.891.018.795-2.463-2.13-5.506-2.057-8.213.004-.113.106-.103.112.002zM10.942 6.29c-.01.965.594 1.399.592 2.143-.002.28-.619.283-.592.047.106-.89-.365-1.092-.14-2.2.058-.279.14-.107.14.01zM20.763.972c5.344 7.664-.459 8.87-.678 14.465-.287.549-1.693.506-1.695.482-.336-6.119 6.797-6.002 2.24-14.886-.049-.094.072-.147.133-.06z" style="fill:#5c4236"/><linearGradient id="c" x1="49.413" x2="49.413" y1="60.95" y2="29.379" gradientUnits="userSpaceOnUse"><stop offset=".054" style="stop-color:#8a5e40"/><stop offset=".35" style="stop-color:#a47a5d"/><stop offset="1" style="stop-color:#d9b39b"/></linearGradient><path d="M43.964 35.555c-.775 7.467 5.477 13.354 5.477 13.354-.565 1.818-4.346 10.415-3.774 11.779.266.636 2.034.021 2.182-.828 1.326-7.518 5.17-11.639 4.225-12.92-3.018-4.092 5.597-11.549 1.925-15.867-2.9-3.412-9.41-1.545-10.035 4.482z" style="fill:url(#c)"/><path d="M45.667 60.688s-.693 1.476-.306 1.802h2.263c.86 0-.05-1.867.073-2.129.12-.26-2.03.327-2.03.327z" style="fill:#302c3b"/><path d="M47.488 28.01c-8.448.739-21.727 5.057-22.419-6.495-.32-5.342-2.3-7.34-5.11-7.166-2.187.135-4.774 1.416-5.29 2.369-.428.789-4.313 3.64-4.52 4.256-.459 1.359 7.186 1.605 8.14.978-.132 11.139-2.153 12.181 1.7 16.59 5.092 5.826 30.198 3.798 33.598.027 5.506-6.117-2.277-10.892-6.1-10.558z" style="fill:#b47d56"/><linearGradient id="d" x1="30.376" x2="30.376" y1="43.556" y2="18.179" gradientUnits="userSpaceOnUse"><stop offset="0" style="stop-color:#d9b39b"/><stop offset=".31" style="stop-color:#d7b198"/><stop offset=".526" style="stop-color:#d3aa8f"/><stop offset=".713" style="stop-color:#ca9e80"/><stop offset=".882" style="stop-color:#bf8d6a"/><stop offset="1" style="stop-color:#b47d56"/></linearGradient><path d="M48.566 38.112c-5.72 5.748-21.08 3.172-24.997.988-3.82-2.129-5.513-3.88-5.412-7.78.053-2.067-.185-5.606 1.313-6.75 3.646-2.788 2.797-7.926.988-5.95-.607.66-8.137 3.418-10.308 2.354.294 1.404.568 1.416 1.035 1.392.049.399.548.796 2.284.475 1.867.063 4.266-.952 4.583-.244.263.588-.89 1.76-.552 2.7.276.768-2.037 8.685 1.823 14.086 5.582 7.811 18.782 2.155 26.186 2.713 7.014.53 5.487-6.425 3.057-3.984z" style="fill:url(#d)"/><linearGradient id="e" x1="15.246" x2="19.373" y1="17.697" y2="17.697" gradientUnits="userSpaceOnUse"><stop offset="0" style="stop-color:#d9b39b"/><stop offset=".052" style="stop-color:#d5ad94"/><stop offset=".282" style="stop-color:#c79879"/><stop offset=".516" style="stop-color:#bc8965"/><stop offset=".753" style="stop-color:#b6805a"/><stop offset="1" style="stop-color:#b47d56"/></linearGradient><path d="M19.373 16.915s-1.523 2.257-2.828 2.16c-2.238-.168-1.76-4.262 2.828-2.16z" style="fill-rule:evenodd;clip-rule:evenodd;fill:url(#e)"/><path d="M45.908 38.833c2.115 7.656 9.152 10.035 9.152 10.035.166 2.003-1.879 11.777-1.307 13.222.266.674 2.354.021 2.182-.877-1.469-7.709 3.176-13.338 1.81-14.252-4.363-2.92.866-13.368-4.193-16.269-3.996-2.293-9.35 1.961-7.644 8.14z" style="fill:#b47d56"/><path d="M53.753 62.09s-.695 1.564-.306 1.91h2.263c.858 0-.052-1.98.07-2.254.124-.275-2.027.344-2.027.344z" style="fill:#302c3b"/><path d="M21.376 35.22c-.773 7.782 3.016 9.185 4.367 13.501 1.862 5.957.692 10.66.774 13.4.021.7 2.242.031 2.183-.861-.142-2.217-.56-10.416-.021-13.926.648-4.23 1.55-7.714-.49-10.83-2.471-3.77-6.186-7.564-6.813-1.285z" style="fill:#b47d56"/><path d="M26.517 62.121s-.694 1.54-.305 1.879h2.264c.855 0-.053-1.947.068-2.217.123-.271-2.027.338-2.027.338z" style="fill:#302c3b"/><path d="M8.405.06c1.86 9.828 10.27 5.496 13.95 10.305l-.77.87C18.308 6.702 9.153 10.262 8.298.075c-.006-.09.092-.102.107-.014z" style="fill:#785647"/><path d="M15.87.142c.033 2.47 3.207 5.94 2.307 8.394-.014.032-.867-.037-.864-.05.901-2.397-1.765-5.66-1.55-8.356.01-.113.105-.093.107.012zm-3.021 4.533c-.06.963.5 1.442.459 2.186-.016.277-.614.234-.575 0 .149-.883-.295-1.12-.02-2.207.071-.274.142-.096.136.021zM22.618.132c4.758 8.063-.914 8.815-1.42 14.38-.306.526-1.662.374-1.662.352 0-6.134 6.883-5.462 2.952-14.68-.043-.1.078-.141.13-.052z" style="fill:#785647"/><path d="M23.907 11.308c-1.869 1.535-3.939 2.547-4.2 4.246-.116.74.939 1.86 1.571 1.477 5.038-3.026 3.215-6.205 2.63-5.723z" style="fill:#b47d56"/><linearGradient id="f" x1="192.361" x2="197.961" y1="-236.462" y2="-236.462" gradientTransform="matrix(.7779 -.5154 .6228 .555 18.07 246.054)" gradientUnits="userSpaceOnUse"><stop offset="0" style="stop-color:#785647"/><stop offset=".003" style="stop-color:#785647"/><stop offset=".345" style="stop-color:#8d6248"/><stop offset=".681" style="stop-color:#9a6a49"/><stop offset="1" style="stop-color:#9e6c49"/></linearGradient><path d="M21.6 16.405c3.428-2.11 2.637-4.816 2.089-4.388-3.69 2.886-2.715 4.771-2.088 4.389z" style="fill:url(#f)"/><path d="M12.94 22.304c-.669.227-1.348.168-1.78.066.415.307 1.123.29 1.884.027.546-.188 1.007.136 1.663-.772-.637.675-1.293.517-1.768.679z" style="fill:#785647"/><path d="M10.675 20.355c.658-.448 1.03 1.976.738 2.044-1.08.26-2.19-1.058-.738-2.044z" style="fill:#302c3b"/><path d="M16.369 16.922c-.725.136-.702.745-.538 1.27.121.388 1.945.047 1.916-.36-.04-.592-.717-1.034-1.378-.91z" style="fill:#785647"/><radialGradient id="g" cx="1.827" cy="64.985" r="1.121" fx="1.466" fy="64.526" gradientTransform="matrix(.7582 -.1421 .1455 .7767 5.904 -32.44)" gradientUnits="userSpaceOnUse"><stop offset=".043" style="stop-color:#413f4a"/><stop offset=".284" style="stop-color:#3d3a46"/><stop offset=".558" style="stop-color:#302d3a"/><stop offset=".847" style="stop-color:#1a1626"/></radialGradient><path d="M16.367 17.075c.53-.1 1.279.215 1.38.757.036.187-.503.619-1.101.73-.598.113-.78-.184-.815-.37-.102-.543.007-1.018.536-1.117z" style="fill:url(#g)"/><path d="M16.525 17.458c.05.264-.372.342-.421.079-.05-.265.371-.343.42-.08z" style="fill:#6e8189"/></svg>