<svg xmlns="http://www.w3.org/2000/svg" xml:space="preserve" style="enable-background:new 0 0 64 64" viewBox="0 0 64 64"><linearGradient id="a" x1="24.744" x2="61" y1="24.348" y2="24.348" gradientUnits="userSpaceOnUse"><stop offset="0" style="stop-color:#947552"/><stop offset=".19" style="stop-color:#987955"/><stop offset=".385" style="stop-color:#a48460"/><stop offset=".581" style="stop-color:#b99871"/><stop offset=".779" style="stop-color:#d5b38a"/><stop offset=".976" style="stop-color:#fad5a9"/><stop offset="1" style="stop-color:#ffdaad"/></linearGradient><path d="M27.03 12.2c.188-.222.779.179.779.179s.03-.984.196-1.323c.57-1.177 2.57-2.64 3.217-2.853.38-.127.837.285.837.285s-.257-.795.196-1.27c.618-.65 2.191-1.742 2.94-1.797.81-.062.623.915.623.915s.416-1.202.72-1.43c1.93-1.444 7.718-.946 7.135 0-.528.85-.738 1.523-.738 1.523S44.004 5 44.69 4.867c1.706-.326 5.4.81 5.258 2.074-.047.426-.99 1.627-.99 1.627s1.757-1.443 2.587-1.222c2.299.616 4.341 3.149 4.872 4.091.537.955-1.566 2.53-1.566 2.53s1.766-1.066 2.705-.743c1.44.49 2.57 4.292 2.284 5.095-.212.59-1.319 1.242-1.319 1.242s1.15-.186 1.405 0c.954.69 1.546 4.525.582 5.684-.598.72-2.574 1.177-2.574 1.177s2.218-.038 2.458.499c.497 1.118-.07 4.136-.815 4.614-.744.478-1.387.422-1.387.422s.93.194 1.212 1.024c.175.516-1.415 4.017-1.995 4.302-.937.46-1.519.396-1.519.396s.512.923.54 1.32c.131 1.843-2.608 4.728-4.362 5.542-1.752.811-11.283-1.786-11.948-2.266C31.96 36.39 19.602 20.978 27.03 12.201z" style="fill:url(#a)"/><linearGradient id="b" x1="44.764" x2="73.879" y1="16.09" y2="16.09" gradientTransform="matrix(.9679 -.0651 .0668 .9941 -15.35 13.175)" gradientUnits="userSpaceOnUse"><stop offset="0" style="stop-color:#302c3b"/><stop offset=".329" style="stop-color:#33313e"/><stop offset=".699" style="stop-color:#3c3e48"/><stop offset=".988" style="stop-color:#464e54"/></linearGradient><path d="M28.193 13.173c-.014-1.122 2.509-3.753 4.277-3.69.404.014.914 1.038.914 1.038s-.056-1.7.464-2.16c1.005-.895 5.147-1.879 6.415-1.186.753.41.458 2.62.458 2.62s.971-2.045 1.796-2.16c1.107-.152 4.334.242 5.115 1.307.24.328-1.318 2.088-1.318 2.088s1.966-1.48 2.484-1.35c2.088.527 3.699 2.756 4.182 3.827.489 1.083-.78 2.613-.78 2.613s1.529.056 2.232.487c1.77 1.081 3.346 7.25 2.578 8.992-.397.904-2.741 1.226-2.741 1.226s1.925.662 2.429 1.1c1.457 1.261.578 5.51-.81 8.107-.505.944-2.63.938-2.63.938s1.11.954 1.138 1.76c.051 1.443-2.81 4.884-4.618 4.784-11.559-.632-21.468-21.09-21.585-30.341z" style="fill:url(#b)"/><linearGradient id="c" x1="12.05" x2="22.711" y1="56.634" y2="56.634" gradientUnits="userSpaceOnUse"><stop offset="0" style="stop-color:#d6af98"/><stop offset=".262" style="stop-color:#d1a177"/><stop offset=".568" style="stop-color:#cd9357"/><stop offset=".825" style="stop-color:#ca8a43"/><stop offset="1" style="stop-color:#c9873c"/></linearGradient><path d="M18.677 52.193s.268 6.334-1.587 6.828c-.82.22-4.182.097-4.196.798-1.284.751-.952.992-.006.702.635.105 4.838.267 5.09-.284.319.562.554.838.826.838.222 0 .512-.614.855-.919 1.375.461 2.122-.14 3.052.205-.202-1.014-2.434-.396-2.72-2.45-.407-2.903 1.358-5.563 1.358-5.563l-2.672-.155z" style="fill:url(#c)"/><linearGradient id="d" x1="17.325" x2="27.988" y1="57.56" y2="57.56" gradientUnits="userSpaceOnUse"><stop offset="0" style="stop-color:#d6af98"/><stop offset=".262" style="stop-color:#d1a177"/><stop offset=".568" style="stop-color:#cd9357"/><stop offset=".825" style="stop-color:#ca8a43"/><stop offset="1" style="stop-color:#c9873c"/></linearGradient><path d="M23.952 53.12s.266 6.331-1.587 6.826c-.82.218-4.18.096-4.197.8-1.284.748-.95.991-.006.701.638.104 4.838.267 5.09-.283.319.56.554.836.825.836.223 0 .513-.612.854-.919 1.376.46 2.125-.138 3.057.205-.203-1.015-2.436-.395-2.721-2.451-.408-2.901 1.36-5.563 1.36-5.563l-2.675-.153z" style="fill:url(#d)"/><linearGradient id="e" x1="402.501" x2="402.501" y1="450.829" y2="423.398" gradientTransform="rotate(-116.596 91.51 346.738)" gradientUnits="userSpaceOnUse"><stop offset="0" style="stop-color:#5b666e"/><stop offset=".086" style="stop-color:#4f555f"/><stop offset=".22" style="stop-color:#41434f"/><stop offset=".379" style="stop-color:#373644"/><stop offset=".584" style="stop-color:#322e3d"/><stop offset="1" style="stop-color:#302c3b"/></linearGradient><path d="M43.77 39.579c11.495-7.744-1.56-28.534-14.665-25.53-26.825 1.862-.557 42.252 14.665 25.53z" style="fill:url(#e)"/><linearGradient id="f" x1="403.838" x2="403.838" y1="447.748" y2="430.729" gradientTransform="rotate(-116.596 91.51 346.738)" gradientUnits="userSpaceOnUse"><stop offset="0" style="stop-color:#5b666e"/><stop offset=".086" style="stop-color:#4f555f"/><stop offset=".22" style="stop-color:#41434f"/><stop offset=".379" style="stop-color:#373644"/><stop offset=".584" style="stop-color:#322e3d"/><stop offset="1" style="stop-color:#302c3b"/></linearGradient><path d="M40.325 39.578c11.495-7.743-1.562-28.533-14.666-25.528-10.62.736 8.7 32.085 14.666 25.528z" style="fill:url(#f)"/><linearGradient id="g" x1="404.268" x2="404.268" y1="444.404" y2="427.385" gradientTransform="rotate(-116.596 91.51 346.738)" gradientUnits="userSpaceOnUse"><stop offset="0" style="stop-color:#5b666e"/><stop offset=".086" style="stop-color:#4f555f"/><stop offset=".22" style="stop-color:#41434f"/><stop offset=".379" style="stop-color:#373644"/><stop offset=".584" style="stop-color:#322e3d"/><stop offset="1" style="stop-color:#302c3b"/></linearGradient><path d="M37.141 40.69c11.495-7.742-1.56-28.531-14.664-25.528-10.621.738 8.7 32.084 14.664 25.528z" style="fill:url(#g)"/><linearGradient id="h" x1="404.511" x2="404.511" y1="440.332" y2="423.313" gradientTransform="rotate(-116.596 91.51 346.738)" gradientUnits="userSpaceOnUse"><stop offset="0" style="stop-color:#5b666e"/><stop offset=".086" style="stop-color:#4f555f"/><stop offset=".22" style="stop-color:#41434f"/><stop offset=".379" style="stop-color:#373644"/><stop offset=".584" style="stop-color:#322e3d"/><stop offset="1" style="stop-color:#302c3b"/></linearGradient><path d="M33.392 42.295c11.495-7.74-1.56-28.53-14.666-25.528-10.62.74 8.701 32.085 14.666 25.528z" style="fill:url(#h)"/><linearGradient id="i" x1="403.875" x2="403.875" y1="437.865" y2="420.847" gradientTransform="rotate(-116.596 91.51 346.738)" gradientUnits="userSpaceOnUse"><stop offset="0" style="stop-color:#5b666e"/><stop offset=".086" style="stop-color:#4f555f"/><stop offset=".22" style="stop-color:#41434f"/><stop offset=".379" style="stop-color:#373644"/><stop offset=".584" style="stop-color:#322e3d"/><stop offset="1" style="stop-color:#302c3b"/></linearGradient><path d="M31.471 43.97c11.496-7.742-1.561-28.533-14.666-25.53-10.619.74 8.701 32.085 14.666 25.53z" style="fill:url(#i)"/><linearGradient id="j" x1="402.702" x2="402.702" y1="435.428" y2="418.41" gradientTransform="rotate(-116.596 91.51 346.738)" gradientUnits="userSpaceOnUse"><stop offset="0" style="stop-color:#5b666e"/><stop offset=".086" style="stop-color:#4f555f"/><stop offset=".22" style="stop-color:#41434f"/><stop offset=".379" style="stop-color:#373644"/><stop offset=".584" style="stop-color:#322e3d"/><stop offset="1" style="stop-color:#302c3b"/></linearGradient><path d="M29.816 46.107c11.496-7.74-1.56-28.529-14.664-25.525-10.62.736 8.7 32.082 14.664 25.525z" style="fill:url(#j)"/><linearGradient id="k" x1="34.882" x2="34.882" y1="-77.372" y2="-105.01" gradientTransform="scale(-1 1) rotate(2.619 -2860.257 -1230.79)" gradientUnits="userSpaceOnUse"><stop offset="0" style="stop-color:#5b666e"/><stop offset=".086" style="stop-color:#4f555f"/><stop offset=".22" style="stop-color:#41434f"/><stop offset=".379" style="stop-color:#373644"/><stop offset=".584" style="stop-color:#322e3d"/><stop offset="1" style="stop-color:#302c3b"/></linearGradient><path d="M36.475 43.395c-1.441 13.398-29.576 14.214-32.976-.261-5.785-24.631 40.77-20.636 32.976.26z" style="fill:url(#k)"/><linearGradient id="l" x1="35.927" x2="35.927" y1="-80.778" y2="-103.011" gradientTransform="scale(-1 1) rotate(2.619 -2860.257 -1230.79)" gradientUnits="userSpaceOnUse"><stop offset="0" style="stop-color:#5b666e"/><stop offset=".086" style="stop-color:#4f555f"/><stop offset=".22" style="stop-color:#41434f"/><stop offset=".379" style="stop-color:#373644"/><stop offset=".584" style="stop-color:#322e3d"/><stop offset="1" style="stop-color:#302c3b"/></linearGradient><path d="M34.792 40.512c-1.439 13.398-29.363 12.822-31.293.04-3.417-22.632 34.35-8.228 31.293-.04z" style="fill:url(#l)"/><linearGradient id="m" x1="35.961" x2="35.961" y1="-84.297" y2="-104.442" gradientTransform="scale(-1 1) rotate(2.619 -2860.257 -1230.79)" gradientUnits="userSpaceOnUse"><stop offset="0" style="stop-color:#5b666e"/><stop offset=".086" style="stop-color:#4f555f"/><stop offset=".22" style="stop-color:#41434f"/><stop offset=".379" style="stop-color:#373644"/><stop offset=".584" style="stop-color:#322e3d"/><stop offset="1" style="stop-color:#302c3b"/></linearGradient><path d="M34.25 37.308c-1.44 13.395-29.976 12.206-30.73-.69-1.024-17.554 33.788-7.5 30.73.69z" style="fill:url(#m)"/><linearGradient id="n" x1="35.738" x2="35.738" y1="-88.031" y2="-105.475" gradientTransform="scale(-1 1) rotate(2.619 -2860.257 -1230.79)" gradientUnits="userSpaceOnUse"><stop offset="0" style="stop-color:#5b666e"/><stop offset=".086" style="stop-color:#4f555f"/><stop offset=".22" style="stop-color:#41434f"/><stop offset=".379" style="stop-color:#373644"/><stop offset=".584" style="stop-color:#322e3d"/><stop offset="1" style="stop-color:#302c3b"/></linearGradient><path d="M33.881 33.388c-1.436 13.395-30.456 12.665-29.865-.239.537-11.645 32.926-7.952 29.865.239z" style="fill:url(#n)"/><linearGradient id="o" x1="364.014" x2="377.046" y1="185.318" y2="185.318" gradientTransform="rotate(-68.857 94.353 352.776)" gradientUnits="userSpaceOnUse"><stop offset="0" style="stop-color:#947552"/><stop offset=".19" style="stop-color:#987955"/><stop offset=".385" style="stop-color:#a48460"/><stop offset=".581" style="stop-color:#b99871"/><stop offset=".779" style="stop-color:#d5b38a"/><stop offset=".976" style="stop-color:#fad5a9"/><stop offset="1" style="stop-color:#ffdaad"/></linearGradient><path d="M42.282 43.506c5.853 2.19 10.12 1.005 2.813-8.158-16.925-21.236-32.004-2.757-2.813 8.158z" style="fill:url(#o)"/><linearGradient id="p" x1="359.954" x2="372.985" y1="187.884" y2="187.884" gradientTransform="rotate(-68.857 94.353 352.776)" gradientUnits="userSpaceOnUse"><stop offset="0" style="stop-color:#947552"/><stop offset=".19" style="stop-color:#987955"/><stop offset=".385" style="stop-color:#a48460"/><stop offset=".581" style="stop-color:#b99871"/><stop offset=".779" style="stop-color:#d5b38a"/><stop offset=".976" style="stop-color:#fad5a9"/><stop offset="1" style="stop-color:#ffdaad"/></linearGradient><path d="M43.209 48.218c5.854 2.19 10.12 1.007 2.816-8.159-16.93-21.233-32.006-2.755-2.816 8.159z" style="fill:url(#p)"/><linearGradient id="q" x1="354.932" x2="367.963" y1="189.562" y2="189.562" gradientTransform="rotate(-68.857 94.353 352.776)" gradientUnits="userSpaceOnUse"><stop offset="0" style="stop-color:#947552"/><stop offset=".19" style="stop-color:#987955"/><stop offset=".385" style="stop-color:#a48460"/><stop offset=".581" style="stop-color:#b99871"/><stop offset=".779" style="stop-color:#d5b38a"/><stop offset=".976" style="stop-color:#fad5a9"/><stop offset="1" style="stop-color:#ffdaad"/></linearGradient><path d="M42.965 53.508c5.851 2.191 10.119 1.006 2.811-8.158-16.926-21.237-32.004-2.755-2.811 8.158z" style="fill:url(#q)"/><linearGradient id="r" x1="351.882" x2="364.915" y1="187.173" y2="187.173" gradientTransform="rotate(-68.857 94.353 352.776)" gradientUnits="userSpaceOnUse"><stop offset="0" style="stop-color:#947552"/><stop offset=".19" style="stop-color:#987955"/><stop offset=".385" style="stop-color:#a48460"/><stop offset=".581" style="stop-color:#b99871"/><stop offset=".779" style="stop-color:#d5b38a"/><stop offset=".976" style="stop-color:#fad5a9"/><stop offset="1" style="stop-color:#ffdaad"/></linearGradient><path d="M39.636 55.49c5.853 2.189 10.121 1.004 2.814-8.159-16.927-21.236-32.005-2.76-2.814 8.16z" style="fill:url(#r)"/><linearGradient id="s" x1="349.428" x2="362.463" y1="183.111" y2="183.111" gradientTransform="rotate(-68.857 94.353 352.776)" gradientUnits="userSpaceOnUse"><stop offset="0" style="stop-color:#947552"/><stop offset=".19" style="stop-color:#987955"/><stop offset=".385" style="stop-color:#a48460"/><stop offset=".581" style="stop-color:#b99871"/><stop offset=".779" style="stop-color:#d5b38a"/><stop offset=".976" style="stop-color:#fad5a9"/><stop offset="1" style="stop-color:#ffdaad"/></linearGradient><path d="M34.962 56.313c5.855 2.19 10.122 1.005 2.815-8.16-16.927-21.237-32.007-2.758-2.815 8.16z" style="fill:url(#s)"/><linearGradient id="t" x1="347.683" x2="360.715" y1="178.07" y2="178.07" gradientTransform="rotate(-68.857 94.353 352.776)" gradientUnits="userSpaceOnUse"><stop offset="0" style="stop-color:#947552"/><stop offset=".19" style="stop-color:#987955"/><stop offset=".385" style="stop-color:#a48460"/><stop offset=".581" style="stop-color:#b99871"/><stop offset=".779" style="stop-color:#d5b38a"/><stop offset=".976" style="stop-color:#fad5a9"/><stop offset="1" style="stop-color:#ffdaad"/></linearGradient><path d="M29.63 56.123c5.855 2.19 10.122 1.007 2.815-8.158C15.519 26.728.437 45.208 29.63 56.123z" style="fill:url(#t)"/><linearGradient id="u" x1="386.366" x2="398.762" y1="122.205" y2="122.205" gradientTransform="matrix(.2965 -.9974 .6588 .1119 -160.791 411.155)" gradientUnits="userSpaceOnUse"><stop offset="0" style="stop-color:#302c3b"/><stop offset=".769" style="stop-color:#515862"/><stop offset="1" style="stop-color:#5b666e"/></linearGradient><path d="M39.076 40.095c4.245.209 7.466-2.28 2.46-8.65-11.585-14.762-23.623 7.609-2.46 8.65z" style="fill:url(#u)"/><linearGradient id="v" x1="382.45" x2="394.849" y1="124.685" y2="124.685" gradientTransform="matrix(.2965 -.9974 .6588 .1119 -160.791 411.155)" gradientUnits="userSpaceOnUse"><stop offset="0" style="stop-color:#302c3b"/><stop offset=".769" style="stop-color:#515862"/><stop offset="1" style="stop-color:#5b666e"/></linearGradient><path d="M39.549 44.277c4.243.208 7.464-2.279 2.46-8.651-11.586-14.765-23.621 7.612-2.46 8.651z" style="fill:url(#v)"/><linearGradient id="w" x1="377.51" x2="389.908" y1="126.262" y2="126.262" gradientTransform="matrix(.2965 -.9974 .6588 .1119 -160.791 411.155)" gradientUnits="userSpaceOnUse"><stop offset="0" style="stop-color:#302c3b"/><stop offset=".769" style="stop-color:#515862"/><stop offset="1" style="stop-color:#5b666e"/></linearGradient><path d="M39.123 49.38c4.243.21 7.463-2.278 2.461-8.649-11.588-14.765-23.622 7.612-2.461 8.65z" style="fill:url(#w)"/><linearGradient id="x" x1="374.285" x2="386.682" y1="123.829" y2="123.829" gradientTransform="matrix(.2965 -.9974 .6588 .1119 -160.791 411.155)" gradientUnits="userSpaceOnUse"><stop offset="0" style="stop-color:#302c3b"/><stop offset=".769" style="stop-color:#515862"/><stop offset="1" style="stop-color:#5b666e"/></linearGradient><path d="M36.562 52.325c4.246.21 7.465-2.276 2.462-8.651-11.584-14.76-23.623 7.613-2.462 8.651z" style="fill:url(#x)"/><linearGradient id="y" x1="371.543" x2="383.944" y1="119.74" y2="119.74" gradientTransform="matrix(.2965 -.9974 .6588 .1119 -160.791 411.155)" gradientUnits="userSpaceOnUse"><stop offset="0" style="stop-color:#302c3b"/><stop offset=".769" style="stop-color:#515862"/><stop offset="1" style="stop-color:#5b666e"/></linearGradient><path d="M33.059 54.604c4.24.203 7.463-2.283 2.458-8.654-11.585-14.766-23.62 7.61-2.458 8.654z" style="fill:url(#y)"/><linearGradient id="z" x1="369.45" x2="381.848" y1="114.69" y2="114.69" gradientTransform="matrix(.2965 -.9974 .6588 .1119 -160.791 411.155)" gradientUnits="userSpaceOnUse"><stop offset="0" style="stop-color:#302c3b"/><stop offset=".769" style="stop-color:#515862"/><stop offset="1" style="stop-color:#5b666e"/></linearGradient><path d="M29.11 56.125c4.242.211 7.462-2.276 2.461-8.65-11.587-14.764-23.622 7.611-2.462 8.65z" style="fill:url(#z)"/><linearGradient id="A" x1="363.021" x2="363.021" y1="189.092" y2="161.078" gradientTransform="rotate(-68.857 94.353 352.776)" gradientUnits="userSpaceOnUse"><stop offset="0" style="stop-color:#5b666e"/><stop offset=".086" style="stop-color:#4f555f"/><stop offset=".22" style="stop-color:#41434f"/><stop offset=".379" style="stop-color:#373644"/><stop offset=".584" style="stop-color:#322e3d"/><stop offset="1" style="stop-color:#302c3b"/></linearGradient><path d="M24.219 53.395C37.927 56.344 45.2 33.1 34.067 25.822c-11.04-10.074-24.23-.36-19.675 11.625-5.67 5.792-.2 16.14 9.827 15.948z" style="fill:url(#A)"/><linearGradient id="B" x1="363.049" x2="363.049" y1="185.907" y2="168.977" gradientTransform="rotate(-68.857 94.353 352.776)" gradientUnits="userSpaceOnUse"><stop offset="0" style="stop-color:#5b666e"/><stop offset=".086" style="stop-color:#4f555f"/><stop offset=".22" style="stop-color:#41434f"/><stop offset=".379" style="stop-color:#373644"/><stop offset=".584" style="stop-color:#322e3d"/><stop offset="1" style="stop-color:#302c3b"/></linearGradient><path d="M21.29 52.142C35 55.089 42.27 31.844 31.138 24.57c-7.712-7.04-18.918 27.75-9.846 27.572z" style="fill:url(#B)"/><linearGradient id="C" x1="363.192" x2="363.192" y1="181.879" y2="164.948" gradientTransform="rotate(-68.857 94.353 352.776)" gradientUnits="userSpaceOnUse"><stop offset="0" style="stop-color:#5b666e"/><stop offset=".086" style="stop-color:#4f555f"/><stop offset=".22" style="stop-color:#41434f"/><stop offset=".379" style="stop-color:#373644"/><stop offset=".584" style="stop-color:#322e3d"/><stop offset="1" style="stop-color:#302c3b"/></linearGradient><path d="M17.584 50.555c13.708 2.948 20.98-20.295 9.848-27.57-7.713-7.042-18.919 27.746-9.848 27.57z" style="fill:url(#C)"/><linearGradient id="D" x1="373.552" x2="373.552" y1="184.115" y2="171.161" gradientTransform="rotate(-68.857 94.353 352.776)" gradientUnits="userSpaceOnUse"><stop offset="0" style="stop-color:#5b666e"/><stop offset=".086" style="stop-color:#4f555f"/><stop offset=".22" style="stop-color:#41434f"/><stop offset=".379" style="stop-color:#373644"/><stop offset=".584" style="stop-color:#322e3d"/><stop offset="1" style="stop-color:#302c3b"/></linearGradient><path d="M33.258 35.84c2.633.243 6.783-5.498 3.56-9.04-12.258-13.47-15.023 7.985-3.56 9.04z" style="fill:url(#D)"/><linearGradient id="E" x1="373.056" x2="373.056" y1="181.747" y2="168.929" gradientTransform="rotate(-68.857 94.353 352.776)" gradientUnits="userSpaceOnUse"><stop offset="0" style="stop-color:#5b666e"/><stop offset=".086" style="stop-color:#4f555f"/><stop offset=".22" style="stop-color:#41434f"/><stop offset=".379" style="stop-color:#373644"/><stop offset=".584" style="stop-color:#322e3d"/><stop offset="1" style="stop-color:#302c3b"/></linearGradient><path d="M31.238 36.2c2.635.243 7.022-9.193 3.299-11.834-13.197-9.354-14.763 10.779-3.3 11.834z" style="fill:url(#E)"/><linearGradient id="F" x1="372.286" x2="372.286" y1="178.942" y2="166.44" gradientTransform="rotate(-68.857 94.353 352.776)" gradientUnits="userSpaceOnUse"><stop offset="0" style="stop-color:#5b666e"/><stop offset=".086" style="stop-color:#4f555f"/><stop offset=".22" style="stop-color:#41434f"/><stop offset=".379" style="stop-color:#373644"/><stop offset=".584" style="stop-color:#322e3d"/><stop offset="1" style="stop-color:#302c3b"/></linearGradient><path d="M27.936 36.429c2.646.02 8.527-11.81 4.406-13.648-13.218-5.904-16.927 13.548-4.406 13.648z" style="fill:url(#F)"/><linearGradient id="G" x1="371.79" x2="371.79" y1="175.86" y2="163.574" gradientTransform="rotate(-68.857 94.353 352.776)" gradientUnits="userSpaceOnUse"><stop offset="0" style="stop-color:#5b666e"/><stop offset=".086" style="stop-color:#4f555f"/><stop offset=".22" style="stop-color:#41434f"/><stop offset=".379" style="stop-color:#373644"/><stop offset=".584" style="stop-color:#322e3d"/><stop offset="1" style="stop-color:#302c3b"/></linearGradient><path d="M24.446 36.2c2.647.02 9.642-13.486 5.334-14.519-13.773-3.3-17.856 14.422-5.334 14.52z" style="fill:url(#G)"/><linearGradient id="H" x1="5.098" x2="17.792" y1="23.167" y2="23.167" gradientUnits="userSpaceOnUse"><stop offset="0" style="stop-color:#ff4545"/><stop offset=".309" style="stop-color:#fc4242"/><stop offset=".58" style="stop-color:#f13737"/><stop offset=".835" style="stop-color:#e02625"/><stop offset="1" style="stop-color:#d11615"/></linearGradient><path d="M13.292 29.224c-1.702-5.444 1.47-7.956 2.491-8.856 7.065-6.226-6.819-13.003-6.29-3.534.514 9.22-5.142 8.327-4.312 17.307 3.876.648 8.111-4.916 8.111-4.916z" style="fill:url(#H)"/><radialGradient id="I" cx="8.72" cy="18.946" r="5.804" gradientTransform="matrix(.99 0 0 1.0123 1.582 -3.974)" gradientUnits="userSpaceOnUse"><stop offset="0" style="stop-color:#4ecee6"/><stop offset=".173" style="stop-color:#47c5e1"/><stop offset=".455" style="stop-color:#33add3"/><stop offset=".808" style="stop-color:#1485bc"/><stop offset="1" style="stop-color:#006dae"/></radialGradient><path d="M8.941 15.958c-.003.027-.028 4.516.356 4.714 5.766-.402 7.768-5.89 6.204-7.725-1.485-1.74-6.092-1.277-6.56 3.01z" style="fill:url(#I)"/><path d="M11.769 18.12s-3.506.799-4.494 3.615c1.269-1.427 4.794-.973 4.494-3.614z" style="fill:#d47706"/><path d="M11.769 18.12c-2.162.19-1.37-1.505-2.578-.629-2.502 1.816-2.345 3.865-1.827 4.719-.09-3.064 3.653-1.95 4.405-4.09z" style="fill:#f59e01"/><radialGradient id="J" cx="8.26" cy="19.907" r="6.669" gradientTransform="matrix(.99 0 0 1.0123 1.582 -3.974)" gradientUnits="userSpaceOnUse"><stop offset="0" style="stop-color:#ff4545"/><stop offset=".309" style="stop-color:#fc4242"/><stop offset=".58" style="stop-color:#f13737"/><stop offset=".835" style="stop-color:#e02625"/><stop offset="1" style="stop-color:#d11615"/></radialGradient><path d="M9.409 17.346c-.44-.553-.143-2.249-.468-1.388-.098.257-2.806 4.19-2.634 5.098.667 3.512-.61 9.014-.215 8.63 1.767-1.726 1.11-7.203.982-8.68-.083-.966 1.047-2.66 2.335-3.66z" style="fill:url(#J)"/><path d="M12.78 15.415c.706 1.443-1.505 2.333-2.325 1.429-.621-1.803 1.775-2.553 2.325-1.429z" style="fill:#e67a6c"/><path d="M12.677 15.476c.63 1.278-1.465 2.105-2.203 1.307-.392-1.482 1.713-2.302 2.203-1.307z" style="fill:#1a1626"/><path d="M12.301 15.244c.875 1.199-.843 2.261-1.63 1.357-.73-.842 1.108-2.072 1.63-1.357z" style="fill:#38363d"/><path d="M11.875 15.936c.07.574-.78.665-.85.09-.07-.572.78-.663.85-.09z" style="fill:#1a1626"/><path d="M11.914 15.486c.045.333-.428.378-.473.045-.044-.332.429-.377.473-.045z" style="fill:#6e8189"/><path d="M12.717 15.486c-.394-1.158-2.814-.533-2.243 1.297-.016-1.31 1.541-2.354 2.243-1.297z" style="fill:#e67a6c"/></svg>