<svg xmlns="http://www.w3.org/2000/svg" xml:space="preserve" style="enable-background:new 0 0 64 64" viewBox="0 0 64 64"><path d="M30.454 39.722c-6.543 10.729 29.68-6.51 22.333-23.764-7.246 5.516-5.684 12.363-22.333 23.764z" style="fill:#5e4220"/><path d="M19.18 30.176c.263-.212 2.256-.03 2.685.206.528.285.056 1.025-.515.871-.594-.16-.942-.71-1.953-.543-.342.056-.543-.26-.216-.534z" style="fill:#cc8327"/><path d="M23.86 26.032c-.852.687-1.647 3.135-2.383 3.947-.482.532-.136 1.533.46 1.086.46-.34 2.185-2.839 3.123-3.92.819-.954-.174-1.955-1.2-1.113z" style="fill:#db9135"/><path d="M24.351 25.72c-.869.588-.312 1.109-.056 1.78.195.521 1.713 1.346 2.572 2.238.763.78 2.44-1.084 1.922-2.215-.432-.936-3.745-2.27-4.438-1.804z" style="fill:#e69f45"/><path d="M28.432 27.104c-1.026-.05-1.984.76-2.189 1.72-.162.745 2.437 3.19 2.358 7.386-.03 1.512 2.31-.053 2.58-1.745.225-1.4-1.931-7.322-2.749-7.36z" style="fill:#db9135"/><path d="M28.063 20.64c.338-.035 1.903 1.202 2.131 1.633.285.524-.52.887-.914.448-.406-.458-.394-1.105-1.331-1.516-.317-.14-.309-.513.114-.565z" style="fill:#cc8327"/><path d="M34.27 19.718c-1.093.114-3.113 1.726-4.177 2.007-.698.183-.964 1.207-.217 1.158.575-.036 3.4-1.186 4.78-1.58 1.214-.352.938-1.728-.386-1.585z" style="fill:#db9135"/><path d="M34.854 19.725c-1.051.02-.875.76-1.033 1.46-.125.541.687 2.056.91 3.268.207 1.066 2.643.423 2.834-.807.157-1.017-1.873-3.933-2.71-3.92z" style="fill:#e69f45"/><path d="M37.5 23.102c-.83-.6-2.08-.443-2.785.25-.545.532.273 3.99-2.116 7.455-.861 1.25 1.961 1.212 3.124-.055.961-1.05 2.439-7.172 1.777-7.65z" style="fill:#db9135"/><path d="M31.762 16.977c.334-.052 1.96 1.105 2.21 1.525.309.508-.477.91-.89.492-.47-.476-.694-1.203-1.62-1.57-.22-.087-.122-.375.3-.447z" style="fill:#cc8327"/><path d="M37.912 15.745c-1.088.168-2.92 2.073-4.203 2.305-.447.08-.714 1.159.029 1.07.57-.064 3.28-1.35 4.642-1.812 1.192-.41.846-1.771-.468-1.563z" style="fill:#db9135"/><path d="M38.569 15.723c-1.05.073-.982 1.07-1.11 1.779-.096.545.868 1.75 1.155 2.95.26 1.054 2.66.289 2.788-.948.105-1.024-1.996-3.837-2.833-3.78z" style="fill:#e69f45"/><path d="M41.31 18.965c-.861-.561-2.333-.104-3 .62-.516.56.955 3.336-1.502 7.318-.798 1.29 2.018 1.114 3.116-.212.906-1.094 2.07-7.284 1.385-7.726z" style="fill:#db9135"/><path d="M24.585 31.147c-1.102.083-4.537 1.735-4.704 2.246-.205.646-.02.838.726.81.576-.02 2.208-.733 3.613-1.087 1.237-.318 1.698-2.074.365-1.969z" style="fill:#e69f45"/><path d="M25.119 30.947c-1.052 0-.69 1.33-1.032 1.985-.267.506 1.234 1.21 1.133 2.43-.079 1.075 1.548 1.032 2.061-.133.425-.963-.96-4.282-2.162-4.282z" style="fill:#db9135"/><linearGradient id="a" x1="3.387" x2="11.553" y1="42.792" y2="42.792" gradientUnits="userSpaceOnUse"><stop offset="0" style="stop-color:#5e3200"/><stop offset=".164" style="stop-color:#72430a"/><stop offset=".501" style="stop-color:#a76f23"/><stop offset=".979" style="stop-color:#fbb54b"/><stop offset="1" style="stop-color:#ffb84d"/></linearGradient><path d="M11.553 37.431c-2.751 1.663-5.264 5.358-7.415 9.892-.617 1.298-1.01.973-.551-.285 1.075-2.95 2.83-6.006 2.27-9.372l5.696-.235z" style="fill:url(#a)"/><path d="M20.814 33.336c-.832-3.014-5.788-3.81-7.969-1.38-.921 1.029.47 2.56 1.325 3.42.714.72 1.644-1.369 4.392-.103 1.621.747 2.758-.09 2.252-1.938z" style="fill:#e69f45"/><linearGradient id="b" x1="-.296" x2="13.495" y1="41.553" y2="33.835" gradientUnits="userSpaceOnUse"><stop offset="0" style="stop-color:#5e3200"/><stop offset=".164" style="stop-color:#72430a"/><stop offset=".501" style="stop-color:#a76f23"/><stop offset=".979" style="stop-color:#fbb54b"/><stop offset="1" style="stop-color:#ffb84d"/></linearGradient><path d="M14.389 35.858c-1.119 2.433-4.984 4.692-7.357 3.128-1.142-.752-3.112.16-5.964 2.585-1.054.898-1.374.692-.753-.354 3.327-5.602 7.905-9.045 11.463-9.53 1.736-.238 3.187 2.92 2.61 4.171z" style="fill:url(#b)"/><path d="M24.641 36.141c-.922-1.079-3.166-2.73-4.174-3.438-.63-.444-2.236 1.557-2.14 2.237.185 1.31 3.7 1.967 5.203 4.879.826 1.6 2.347-2.236 1.111-3.678z" style="fill:#f0a648"/><radialGradient id="c" cx="41.821" cy="29.217" r="5.822" gradientUnits="userSpaceOnUse"><stop offset="0" style="stop-color:#e09534"/><stop offset=".284" style="stop-color:#d48a2f"/><stop offset=".793" style="stop-color:#b56d21"/><stop offset="1" style="stop-color:#a6601b"/></radialGradient><path d="M48.19 31.224S44.53 26.023 38.636 24c0 0-2.326.822-3.184 2.847 5.824 3.85 9.851 7.587 9.851 7.587 2.309-1.066 2.887-3.21 2.887-3.21z" style="fill:url(#c)"/><radialGradient id="d" cx="25.244" cy="41.076" r="2.17" gradientUnits="userSpaceOnUse"><stop offset="0" style="stop-color:#e09534"/><stop offset=".284" style="stop-color:#d48a2f"/><stop offset=".793" style="stop-color:#b56d21"/><stop offset="1" style="stop-color:#a6601b"/></radialGradient><path d="M23.333 39.597c-2.01 2.192 1.92 4.93 4.065 2.087 1.57-2.08-3.238-2.987-4.065-2.087z" style="fill:url(#d)"/><radialGradient id="e" cx="27.448" cy="42.243" r="2.17" gradientUnits="userSpaceOnUse"><stop offset="0" style="stop-color:#e09534"/><stop offset=".284" style="stop-color:#d48a2f"/><stop offset=".793" style="stop-color:#b56d21"/><stop offset="1" style="stop-color:#a6601b"/></radialGradient><path d="M25.537 40.764c-2.011 2.192 1.92 4.93 4.065 2.087 1.57-2.08-3.239-2.988-4.065-2.087z" style="fill:url(#e)"/><radialGradient id="f" cx="44.751" cy="26.172" r="5.609" gradientUnits="userSpaceOnUse"><stop offset="0" style="stop-color:#e09534"/><stop offset=".284" style="stop-color:#d48a2f"/><stop offset=".793" style="stop-color:#b56d21"/><stop offset="1" style="stop-color:#a6601b"/></radialGradient><path d="M50.866 27.303s-4.855-3.492-9.347-6.183c0 0-1.949.62-2.883 2.88 5.516 2.95 9.554 7.224 9.554 7.224 2.777-1.9 2.676-3.92 2.676-3.92z" style="fill:url(#f)"/><radialGradient id="g" cx="47.103" cy="22.595" r="5.165" gradientUnits="userSpaceOnUse"><stop offset="0" style="stop-color:#e09534"/><stop offset=".284" style="stop-color:#d48a2f"/><stop offset=".793" style="stop-color:#b56d21"/><stop offset="1" style="stop-color:#a6601b"/></radialGradient><path d="M52.611 22.271s-4.678-2.55-8.459-4.385c0 0-1.691.575-2.633 3.234 3.234 3.898 9.347 6.183 9.347 6.183 2.372-1.803 1.745-5.032 1.745-5.032z" style="fill:url(#g)"/><radialGradient id="h" cx="48.856" cy="18.357" r="4.328" gradientUnits="userSpaceOnUse"><stop offset="0" style="stop-color:#e09534"/><stop offset=".284" style="stop-color:#d48a2f"/><stop offset=".793" style="stop-color:#b56d21"/><stop offset="1" style="stop-color:#a6601b"/></radialGradient><path d="M52.783 15.78c-.472-1.005-3.486-1.558-4.348-1.256-1.285.451-3.523 1.767-4.283 3.362 1.943 3.57 8.459 4.385 8.459 4.385 1.875-2.835.442-5.915.172-6.49z" style="fill:url(#h)"/><linearGradient id="i" x1="48.269" x2="52.96" y1="13.172" y2="13.172" gradientUnits="userSpaceOnUse"><stop offset=".543" style="stop-color:#cc8327"/><stop offset=".68" style="stop-color:#d28a2e"/><stop offset=".883" style="stop-color:#e19c42"/><stop offset="1" style="stop-color:#eda951"/></linearGradient><path d="M51.7 10.482c-1.03-.561-2.033-.795-3.117.668-.732.99.087 2.346-.203 3.651-.312 1.44 3.731 1.892 4.176 1.125.997-1.713-.07-5.015-.855-5.444z" style="fill:url(#i)"/><linearGradient id="j" x1="47.197" x2="51.508" y1="9.77" y2="8.318" gradientUnits="userSpaceOnUse"><stop offset=".367" style="stop-color:#cc8327"/><stop offset=".557" style="stop-color:#d28a2e"/><stop offset=".838" style="stop-color:#e19c42"/><stop offset="1" style="stop-color:#eda951"/></linearGradient><path d="M50.587 6.017c-1.123-.216-2.153-.575-2.954 1.01-.54 1.073.974 2.57.934 3.895-.048 1.462 2.513 1.272 2.947.503 1.31-2.318-.008-5.231-.927-5.408z" style="fill:url(#j)"/><linearGradient id="k" x1="47.284" x2="49.284" y1="6.487" y2="3.71" gradientUnits="userSpaceOnUse"><stop offset=".367" style="stop-color:#cc8327"/><stop offset=".557" style="stop-color:#d28a2e"/><stop offset=".838" style="stop-color:#e19c42"/><stop offset="1" style="stop-color:#eda951"/></linearGradient><path d="M47.992 2.043c-1.1.06-3.502 1.945-2.75 2.391.908.534 2.16 1.522 2.601 2.796.49 1.404 2.859.572 2.994-.27.406-2.542-1.827-4.974-2.845-4.917z" style="fill:url(#k)"/><linearGradient id="l" x1="44.606" x2="45.643" y1="4.348" y2=".644" gradientUnits="userSpaceOnUse"><stop offset=".367" style="stop-color:#cc8327"/><stop offset="1" style="stop-color:#eda951"/></linearGradient><path d="M42.298.271c-1.37 4.85 5.75 4.882 6.045 3.026C48.752.756 42.55-.619 42.298.272z" style="fill:url(#l)"/><path d="M36.144 11.267s1.545-.66 1.939 1.804c.93-2.446-2.168-3.241-2.168-3.241l.23 1.437z" style="fill:#5e3200"/><linearGradient id="m" x1="38.748" x2="36.541" y1="8.186" y2="1.401" gradientUnits="userSpaceOnUse"><stop offset="0" style="stop-color:#a6601b"/><stop offset=".192" style="stop-color:#aa641d"/><stop offset=".383" style="stop-color:#b66f22"/><stop offset=".574" style="stop-color:#ca812a"/><stop offset=".73" style="stop-color:#e09534"/></linearGradient><path d="M42.008.325c-5.116 1.766-14.01 8.99-8.035 8.781 1.533-.053 7.32-4.213 9.06-6.047.776-.814.252-3.175-1.025-2.734z" style="fill:url(#m)"/><path d="M32.129 7.823c-.882 2 2.493 2.637 2.663 1.571.233-1.46-2.447-2.063-2.663-1.57z" style="fill:#db9135"/><radialGradient id="n" cx="33.754" cy="10.169" r="3.036" fx="32.496" fy="9.061" gradientTransform="matrix(.9308 .3656 -.2155 .5486 4.528 -7.75)" gradientUnits="userSpaceOnUse"><stop offset="0" style="stop-color:#e09534"/><stop offset=".238" style="stop-color:#da9031"/><stop offset=".553" style="stop-color:#c9802a"/><stop offset=".909" style="stop-color:#ae681f"/><stop offset="1" style="stop-color:#a6601b"/></radialGradient><path d="M31.774 8.505c-1.535 3.478 4.337 4.586 4.634 2.733.404-2.542-4.258-3.59-4.634-2.733z" style="fill:url(#n)"/><radialGradient id="o" cx="39.244" cy="32.06" r="5.652" gradientUnits="userSpaceOnUse"><stop offset="0" style="stop-color:#e09534"/><stop offset=".284" style="stop-color:#d48a2f"/><stop offset=".793" style="stop-color:#b56d21"/><stop offset="1" style="stop-color:#a6601b"/></radialGradient><path d="M45.303 34.434s-4.4-6.257-9.851-7.587c0 0-1.53.443-2.267 2.281a805.59 805.59 0 0 0 9.836 8.144c2.033-1.17 2.282-2.838 2.282-2.838z" style="fill:url(#o)"/><radialGradient id="p" cx="36.565" cy="33.424" r="5.282" gradientUnits="userSpaceOnUse"><stop offset="0" style="stop-color:#e09534"/><stop offset=".284" style="stop-color:#d48a2f"/><stop offset=".793" style="stop-color:#b56d21"/><stop offset="1" style="stop-color:#a6601b"/></radialGradient><path d="M42.676 35.972s-4.253-5.136-9.49-6.844c0 0-2.51 1.55-2.732 3.511.916 3.498 4.696 4.845 6.805 5.052 2.945.29 5.417-1.719 5.417-1.719z" style="fill:url(#p)"/><radialGradient id="q" cx="30.915" cy="37.046" r="6.471" gradientUnits="userSpaceOnUse"><stop offset="0" style="stop-color:#e09534"/><stop offset=".284" style="stop-color:#d48a2f"/><stop offset=".793" style="stop-color:#b56d21"/><stop offset="1" style="stop-color:#a6601b"/></radialGradient><path d="M38.653 36.028c-.779-3.944-6.727-.667-7.922-3.611-.48-1.185-2.777 2.389-4.936 3.083-1.098.353-1.86 1.329-1.97 2.564-1.969 2.644 1.031 1.422 1.712 2.7 1.43-.403 3.722 3.23 6.361-.68 3.917.333 6.961-3.013 6.755-4.056z" style="fill:url(#q)"/><path d="M63.95 33.79c-.444-.655-2.017-1.344-2.61-1.45-.724-.131-.94.61-.29.852.74.27 1.869.51 2.334.974.291.297.771-.076.567-.376z" style="fill:#cc8327"/><path d="M61.431 32.231c-.775-1.295-.512-5.09-1.011-6.465-.221-.608-1.68-.122-1.671.712.021 2.281 1.534 5.086 1.768 6.328.185.978 1.3.066.914-.575z" style="fill:#db9135"/><path d="M60.162 25.256c-2.625-1.256-5.628-2.316-7.43-1.518-1.628.722-.813 2.594.756 2.098 2.155-.681 3.093.625 5.106 1 .986.184 2.417-1.173 1.568-1.58z" style="fill:#e69f45"/><path d="M52.177 23.82c-.846.085-3.708 4.207-3.99 5.768-.344 1.888 2.156 2.255 2.581.488.575-2.393 2.92-2.642 3.012-4.434.056-1.077-.535-1.931-1.603-1.821z" style="fill:#db9135"/><path d="M60.93 38.972c.012-.29-1.925-1.458-2.562-1.596-.772-.174-1.19.56-.52.835.756.312 1.53.136 2.39 1.006.298.302.678.122.692-.245z" style="fill:#cc8327"/><path d="M58.835 37.42c-.335-1.505.137-5.32-.246-6.676-.461-1.64-2.045-1.124-1.854.516.217 1.86.984 4.614.717 6.389-.142.95 1.45.086 1.383-.23z" style="fill:#db9135"/><path d="M58.343 29.896c-2.159-.567-5.483-2.42-7.386-2.09-1.961.344-2.489 2.276-.684 2.398 2.046.137 4.897.206 6.247 1.25.85.656 2.81-1.3 1.823-1.558z" style="fill:#e69f45"/><path d="M49.686 28.323c-2.372.099-3.713 5.36-6.73 7.242-1.737 1.084 2.103 2.748 2.855 1.03 1.264-2.885 5.042-5.262 5.36-6.048.417-1.016-.278-2.274-1.485-2.224z" style="fill:#f0a648"/><path d="M48.454 49.962c.16-.243-.887-2.235-1.359-2.68-.569-.546-1.308-.133-.882.445.486.657 1.239.904 1.52 2.088.098.411.517.451.72.147z" style="fill:#cc8327"/><path d="M47.472 47.557c.5-1.459 2.896-4.481 3.278-5.838.46-1.64-1.164-2.011-1.858-.507-.786 1.702-1.568 4.45-2.722 5.832-.62.74 1.195.818 1.302.513z" style="fill:#db9135"/><path d="M50.981 40.869c-1.55-1.593-3.427-4.885-5.228-5.577-1.857-.712-3.319.67-1.838 1.7 1.678 1.168 4.082 2.688 4.693 4.274.385.997 3.083.331 2.373-.397z" style="fill:#e69f45"/><path d="M44.094 35.06c-2.329-.464-5.643 4.345-9.026 5.465-1.945.644 1.386 3.165 2.53 1.672 1.915-2.506 6.909-3.939 7.405-4.628.648-.89.276-2.276-.909-2.51z" style="fill:#db9135"/><path d="M44.916 54.748c.061-.23-1.136-1.639-1.575-1.905-.534-.323-.97.168-.532.551.493.436.967.338 1.523 1.31.166.292.503.338.584.044z" style="fill:#cc8327"/><path d="M43.58 52.83c-.102-1.425 1.286-4.318 1.257-5.508-.035-1.436-1.181-1.594-1.69-.294-.465 1.19-.669 5.285-.634 5.902.05.802 1.114.511 1.068-.1z" style="fill:#db9135"/><path d="M44.973 46.857c.5-.425-.762-4.178-1.156-5.524-.402-1.383-3.014-.404-2.136.64 1.478 1.753.818 4.092 1.218 4.594.517.651 1.447.823 2.074.29z" style="fill:#e69f45"/><path d="M43.292 40.691c-.57-.642-7.977-.861-9.872.67-.543.44-.383 2.166.328 1.96 3.484-1.006 7.67-.073 8.583-.403 1.184-.426 1.683-1.413.96-2.227z" style="fill:#f0a648"/><path d="M32.893 41.88c.947 1.188 3.65 2.46 4.043 3.224.493.962-2.874 2.377-4.128 2.501-.963.096-1.94-3.715-3.502-4.829-.879-.627 1.703-3.262 3.587-.897z" style="fill:#f0a648"/><path d="M37.286 45.102c1.796 1.506 1.508 7.077-1.121 9.652-1.115 1.09-3.017-1.372-3.027-2.655-.011-1.627 1.353-2.947-.71-4.418-1.705-1.216 3.163-4.004 4.858-2.579z" style="fill:#e69f45"/><linearGradient id="r" x1="-52.134" x2="-42.184" y1="87.039" y2="77.72" gradientTransform="rotate(13.712 81.478 374.916)" gradientUnits="userSpaceOnUse"><stop offset="0" style="stop-color:#5e3200"/><stop offset=".164" style="stop-color:#72430a"/><stop offset=".501" style="stop-color:#a76f23"/><stop offset=".979" style="stop-color:#fbb54b"/><stop offset="1" style="stop-color:#ffb84d"/></linearGradient><path d="M32.267 59.238c-3.974.674-7.483 4.976-14.449 4.754-1.002-.032-.99-.477.189-.631 2.108-.277 6.742-1.541 7.424-5.534l6.836 1.41z" style="fill:url(#r)"/><linearGradient id="s" x1="-54.248" x2="-39.649" y1="83.989" y2="74.232" gradientTransform="rotate(13.712 81.478 374.916)" gradientUnits="userSpaceOnUse"><stop offset="0" style="stop-color:#5e3200"/><stop offset=".164" style="stop-color:#72430a"/><stop offset=".501" style="stop-color:#a76f23"/><stop offset=".979" style="stop-color:#fbb54b"/><stop offset="1" style="stop-color:#ffb84d"/></linearGradient><path d="M36.56 55.517c-.713 2.844-6.082 5.9-9.31 3.022-1.181-1.057-5.367.967-9.59-.65-1.562-.596-1.536-.81-.09-.86 10.122-.337 9.3-4.677 13.57-5.742 2.777-.693 5.946 2.137 5.42 4.23z" style="fill:url(#s)"/><path d="M29.744 37.362c.075 1.217-1.178 1.758-2.259.92.134-1.162 1.583-1.604 2.26-.92z" style="fill:#1a1626"/><path d="M28.402 37.813c-.068.353-.612.273-.541-.08.07-.354.61-.274.541.08z" style="fill:#6e8189"/><path d="M25.3 36.504c-.458.898.174 1.763 1.157 1.52.304-.932-.488-1.794-1.157-1.52z" style="fill:#1a1626"/><path d="M26.285 37.236c-.055.283-.489.219-.433-.064.056-.282.487-.218.433.064z" style="fill:#6e8189"/></svg>