<svg xmlns="http://www.w3.org/2000/svg" xml:space="preserve" viewBox="0 0 64 64"><path fill="#4A2F24" d="M21.246 36.055c10.311 3.205-6.503 8.236-1.914 20.67-9.915-7.032-4.25-20.903 1.914-20.67z"/><path fill="#4A2F24" d="M18.598 35.982c-5.93-.138-11.507 12.986-2.034 19.473-4.298-11.639 11.92-16.596 2.034-19.473zm26.806 0c-9.889 2.877 6.33 7.834 2.031 19.473 9.473-6.486 3.897-19.61-2.031-19.473z"/><path fill="#4A2F24" d="M42.754 36.055c-10.311 3.205 6.502 8.236 1.915 20.67 9.917-7.032 4.252-20.903-1.915-20.67z"/><radialGradient id="a" cx="17.142" cy="53.883" r="8.736" gradientTransform="matrix(.973 0 0 1 5.763 0)" gradientUnits="userSpaceOnUse"><stop offset="0" style="stop-color:#916958"/><stop offset=".218" style="stop-color:#8c6554"/><stop offset=".474" style="stop-color:#7e594a"/><stop offset=".749" style="stop-color:#664639"/><stop offset="1" style="stop-color:#4a2f24"/></radialGradient><path fill="url(#a)" d="M26.589 56.717c-.208-1.557-.052-3.1.262-4.502h-2.417c-.776 6.494-3.896 5.816-3.763 6.59-.62.959-5.801.076-5.826 1.324-2.188 1.334-1.688 1.408-.072.889 1.076.182 8.238.471 8.669-.506.538.997.941 1.488 1.402 1.488.38 0 .875-1.088 1.458-1.634 2.342.817 3.616-.243 5.201.364-.344-1.8-4.425-.364-4.914-4.013z"/><radialGradient id="b" cx="36.602" cy="53.883" r="8.737" gradientTransform="matrix(.9729 0 0 1 5.95 0)" gradientUnits="userSpaceOnUse"><stop offset="0" style="stop-color:#916958"/><stop offset=".218" style="stop-color:#8c6554"/><stop offset=".474" style="stop-color:#7e594a"/><stop offset=".749" style="stop-color:#664639"/><stop offset="1" style="stop-color:#4a2f24"/></radialGradient><path fill="url(#b)" d="M49.157 60.129c-.027-1.248-5.206-.365-5.826-1.324.131-.773-2.989-.096-3.766-6.59h-2.416c.314 1.402.471 2.945.264 4.502-.489 3.649-4.572 2.213-4.917 4.014 1.585-.607 2.859.453 5.202-.364.585.545 1.079 1.633 1.46 1.633.457 0 .863-.491 1.4-1.488.43.977 7.592.688 8.673.506 1.611.519 2.112.445-.074-.889z"/><linearGradient id="c" x1="42.278" x2="42.278" y1="57.627" y2="46.388" gradientUnits="userSpaceOnUse"><stop offset="0" style="stop-color:#916b3e"/><stop offset=".046" style="stop-color:#987245"/><stop offset=".349" style="stop-color:#c49f72"/><stop offset=".619" style="stop-color:#e4bf92"/><stop offset=".846" style="stop-color:#f8d3a6"/><stop offset="1" style="stop-color:#ffdaad"/></linearGradient><path fill="url(#c)" d="M46.765 47.668c-1.444-1.707-7.53-1.707-8.971 0-1.771 2.088 4.204 9.959 4.483 9.959.284 0 6.255-7.871 4.488-9.959z"/><linearGradient id="d" x1="21.722" x2="21.722" y1="57.627" y2="46.388" gradientUnits="userSpaceOnUse"><stop offset="0" style="stop-color:#916b3e"/><stop offset=".046" style="stop-color:#987245"/><stop offset=".349" style="stop-color:#c49f72"/><stop offset=".619" style="stop-color:#e4bf92"/><stop offset=".846" style="stop-color:#f8d3a6"/><stop offset="1" style="stop-color:#ffdaad"/></linearGradient><path fill="url(#d)" d="M26.209 47.668c-1.445-1.707-7.529-1.707-8.974 0-1.768 2.088 4.205 9.959 4.488 9.959.28 0 6.255-7.871 4.486-9.959z"/><linearGradient id="e" x1="35.424" x2="35.424" y1="58.207" y2="46.969" gradientUnits="userSpaceOnUse"><stop offset="0" style="stop-color:#916b3e"/><stop offset=".046" style="stop-color:#987245"/><stop offset=".349" style="stop-color:#c49f72"/><stop offset=".619" style="stop-color:#e4bf92"/><stop offset=".846" style="stop-color:#f8d3a6"/><stop offset="1" style="stop-color:#ffdaad"/></linearGradient><path fill="url(#e)" d="M39.908 48.246c-1.44-1.703-7.523-1.703-8.97 0-1.77 2.09 4.206 9.961 4.487 9.961s6.256-7.871 4.483-9.961z"/><linearGradient id="f" x1="28.574" x2="28.574" y1="58.207" y2="46.969" gradientUnits="userSpaceOnUse"><stop offset="0" style="stop-color:#916b3e"/><stop offset=".046" style="stop-color:#987245"/><stop offset=".349" style="stop-color:#c49f72"/><stop offset=".619" style="stop-color:#e4bf92"/><stop offset=".846" style="stop-color:#f8d3a6"/><stop offset="1" style="stop-color:#ffdaad"/></linearGradient><path fill="url(#f)" d="M33.059 48.246c-1.443-1.703-7.527-1.703-8.969 0-1.772 2.09 4.203 9.961 4.484 9.961s6.255-7.871 4.485-9.961z"/><linearGradient id="g" x1="18.313" x2="18.313" y1="53.967" y2="41.327" gradientUnits="userSpaceOnUse"><stop offset="0" style="stop-color:#916b3e"/><stop offset=".046" style="stop-color:#987245"/><stop offset=".349" style="stop-color:#c49f72"/><stop offset=".619" style="stop-color:#e4bf92"/><stop offset=".846" style="stop-color:#f8d3a6"/><stop offset="1" style="stop-color:#ffdaad"/></linearGradient><path fill="url(#g)" d="M22.793 42.766c-1.442-1.918-7.521-1.918-8.962 0-1.767 2.348 4.2 11.201 4.479 11.201.282 0 6.251-8.854 4.483-11.201z"/><linearGradient id="h" x1="45.688" x2="45.688" y1="53.967" y2="41.327" gradientUnits="userSpaceOnUse"><stop offset="0" style="stop-color:#916b3e"/><stop offset=".046" style="stop-color:#987245"/><stop offset=".349" style="stop-color:#c49f72"/><stop offset=".619" style="stop-color:#e4bf92"/><stop offset=".846" style="stop-color:#f8d3a6"/><stop offset="1" style="stop-color:#ffdaad"/></linearGradient><path fill="url(#h)" d="M50.169 42.766c-1.441-1.918-7.521-1.918-8.963 0-1.765 2.348 4.202 11.201 4.482 11.201s6.246-8.854 4.481-11.201z"/><linearGradient id="i" x1="25.156" x2="25.156" y1="55.123" y2="42.484" gradientUnits="userSpaceOnUse"><stop offset="0" style="stop-color:#916b3e"/><stop offset=".046" style="stop-color:#987245"/><stop offset=".349" style="stop-color:#c49f72"/><stop offset=".619" style="stop-color:#e4bf92"/><stop offset=".846" style="stop-color:#f8d3a6"/><stop offset="1" style="stop-color:#ffdaad"/></linearGradient><path fill="url(#i)" d="M29.635 43.924c-1.439-1.92-7.52-1.92-8.959 0-1.765 2.346 4.201 11.199 4.479 11.199.283 0 6.25-8.853 4.48-11.199z"/><linearGradient id="j" x1="38.845" x2="38.845" y1="55.123" y2="42.484" gradientUnits="userSpaceOnUse"><stop offset="0" style="stop-color:#916b3e"/><stop offset=".046" style="stop-color:#987245"/><stop offset=".349" style="stop-color:#c49f72"/><stop offset=".619" style="stop-color:#e4bf92"/><stop offset=".846" style="stop-color:#f8d3a6"/><stop offset="1" style="stop-color:#ffdaad"/></linearGradient><path fill="url(#j)" d="M43.327 43.924c-1.446-1.92-7.521-1.92-8.962 0-1.772 2.346 4.197 11.199 4.479 11.199s6.245-8.853 4.483-11.199z"/><linearGradient id="k" x1="32.001" x2="32.001" y1="55.123" y2="42.484" gradientUnits="userSpaceOnUse"><stop offset="0" style="stop-color:#916b3e"/><stop offset=".046" style="stop-color:#987245"/><stop offset=".349" style="stop-color:#c49f72"/><stop offset=".619" style="stop-color:#e4bf92"/><stop offset=".846" style="stop-color:#f8d3a6"/><stop offset="1" style="stop-color:#ffdaad"/></linearGradient><path fill="url(#k)" d="M36.48 43.924c-1.44-1.92-7.519-1.92-8.959 0-1.771 2.346 4.2 11.199 4.479 11.199s6.247-8.853 4.48-11.199z"/><linearGradient id="l" x1="17.522" x2="17.522" y1="46.359" y2="33.18" gradientUnits="userSpaceOnUse"><stop offset="0" style="stop-color:#916b3e"/><stop offset=".046" style="stop-color:#987245"/><stop offset=".349" style="stop-color:#c49f72"/><stop offset=".619" style="stop-color:#e4bf92"/><stop offset=".846" style="stop-color:#f8d3a6"/><stop offset="1" style="stop-color:#ffdaad"/></linearGradient><path fill="url(#l)" d="M20.523 34.68a3.52 3.52 0 0 0-5.765 0c-1.732 2.447 1.1 11.68 1.375 11.68.275-.001 6.125-9.233 4.39-11.68z"/><linearGradient id="m" x1="46.477" x2="46.477" y1="46.359" y2="33.18" gradientUnits="userSpaceOnUse"><stop offset="0" style="stop-color:#916b3e"/><stop offset=".046" style="stop-color:#987245"/><stop offset=".349" style="stop-color:#c49f72"/><stop offset=".619" style="stop-color:#e4bf92"/><stop offset=".846" style="stop-color:#f8d3a6"/><stop offset="1" style="stop-color:#ffdaad"/></linearGradient><path fill="url(#m)" d="M49.24 34.68a3.52 3.52 0 0 0-5.765 0c-1.735 2.447 4.117 11.68 4.395 11.68.273-.001 3.103-9.233 1.37-11.68z"/><linearGradient id="n" x1="42.065" x2="42.065" y1="48.09" y2="34.912" gradientUnits="userSpaceOnUse"><stop offset="0" style="stop-color:#916b3e"/><stop offset=".046" style="stop-color:#987245"/><stop offset=".349" style="stop-color:#c49f72"/><stop offset=".619" style="stop-color:#e4bf92"/><stop offset=".846" style="stop-color:#f8d3a6"/><stop offset="1" style="stop-color:#ffdaad"/></linearGradient><path fill="url(#n)" d="M46.459 36.41c-1.415-1.998-7.369-1.998-8.787 0-1.732 2.445 4.121 11.68 4.396 11.68s6.123-9.235 4.391-11.68z"/><linearGradient id="o" x1="21.934" x2="21.934" y1="48.09" y2="34.912" gradientUnits="userSpaceOnUse"><stop offset="0" style="stop-color:#916b3e"/><stop offset=".046" style="stop-color:#987245"/><stop offset=".349" style="stop-color:#c49f72"/><stop offset=".619" style="stop-color:#e4bf92"/><stop offset=".846" style="stop-color:#f8d3a6"/><stop offset="1" style="stop-color:#ffdaad"/></linearGradient><path fill="url(#o)" d="M26.328 36.41c-1.416-1.998-7.375-1.998-8.787 0-1.735 2.445 4.119 11.68 4.392 11.68.274 0 6.128-9.235 4.395-11.68z"/><linearGradient id="p" x1="35.357" x2="35.357" y1="48.773" y2="35.592" gradientUnits="userSpaceOnUse"><stop offset="0" style="stop-color:#916b3e"/><stop offset=".046" style="stop-color:#987245"/><stop offset=".349" style="stop-color:#c49f72"/><stop offset=".619" style="stop-color:#e4bf92"/><stop offset=".846" style="stop-color:#f8d3a6"/><stop offset="1" style="stop-color:#ffdaad"/></linearGradient><path fill="url(#p)" d="M39.75 37.092c-1.414-2-7.373-2-8.785 0-1.734 2.449 4.116 11.682 4.391 11.682.273-.001 6.127-9.233 4.394-11.682z"/><linearGradient id="q" x1="28.645" x2="28.645" y1="48.773" y2="35.592" gradientUnits="userSpaceOnUse"><stop offset="0" style="stop-color:#916b3e"/><stop offset=".046" style="stop-color:#987245"/><stop offset=".349" style="stop-color:#c49f72"/><stop offset=".619" style="stop-color:#e4bf92"/><stop offset=".846" style="stop-color:#f8d3a6"/><stop offset="1" style="stop-color:#ffdaad"/></linearGradient><path fill="url(#q)" d="M33.037 37.092c-1.412-2-7.373-2-8.785 0-1.735 2.449 4.119 11.682 4.391 11.682.276-.001 6.127-9.233 4.394-11.682z"/><linearGradient id="r" x1="20.606" x2="20.606" y1="40.145" y2="26.966" gradientUnits="userSpaceOnUse"><stop offset="0" style="stop-color:#916b3e"/><stop offset=".046" style="stop-color:#987245"/><stop offset=".349" style="stop-color:#c49f72"/><stop offset=".619" style="stop-color:#e4bf92"/><stop offset=".846" style="stop-color:#f8d3a6"/><stop offset="1" style="stop-color:#ffdaad"/></linearGradient><path fill="url(#r)" d="M24.963 28.466c-1.389-2-7.235-2-8.621 0-1.699 2.448 3.047 11.679 3.316 11.679s7.004-9.231 5.305-11.679z"/><linearGradient id="s" x1="43.395" x2="43.395" y1="40.145" y2="26.966" gradientUnits="userSpaceOnUse"><stop offset="0" style="stop-color:#916b3e"/><stop offset=".046" style="stop-color:#987245"/><stop offset=".349" style="stop-color:#c49f72"/><stop offset=".619" style="stop-color:#e4bf92"/><stop offset=".846" style="stop-color:#f8d3a6"/><stop offset="1" style="stop-color:#ffdaad"/></linearGradient><path fill="url(#s)" d="M47.658 28.466c-1.389-2-7.234-2-8.62 0-1.7 2.448 5.036 11.679 5.304 11.679.269 0 5.017-9.231 3.316-11.679z"/><linearGradient id="t" x1="25.417" x2="25.417" y1="41.5" y2="28.322" gradientUnits="userSpaceOnUse"><stop offset="0" style="stop-color:#916b3e"/><stop offset=".046" style="stop-color:#987245"/><stop offset=".349" style="stop-color:#c49f72"/><stop offset=".619" style="stop-color:#e4bf92"/><stop offset=".846" style="stop-color:#f8d3a6"/><stop offset="1" style="stop-color:#ffdaad"/></linearGradient><path fill="url(#t)" d="M29.726 29.821c-1.386-2-7.233-2-8.617 0C19.407 32.27 25.15 41.5 25.417 41.5c.269 0 6.01-9.23 4.309-11.679z"/><linearGradient id="u" x1="38.584" x2="38.584" y1="41.5" y2="28.322" gradientUnits="userSpaceOnUse"><stop offset="0" style="stop-color:#916b3e"/><stop offset=".046" style="stop-color:#987245"/><stop offset=".349" style="stop-color:#c49f72"/><stop offset=".619" style="stop-color:#e4bf92"/><stop offset=".846" style="stop-color:#f8d3a6"/><stop offset="1" style="stop-color:#ffdaad"/></linearGradient><path fill="url(#u)" d="M42.893 29.821c-1.387-2-7.234-2-8.618 0-1.7 2.449 4.041 11.679 4.308 11.679.269 0 6.01-9.23 4.31-11.679z"/><linearGradient id="v" x1="32.001" x2="32.001" y1="42.855" y2="29.676" gradientUnits="userSpaceOnUse"><stop offset="0" style="stop-color:#916b3e"/><stop offset=".046" style="stop-color:#987245"/><stop offset=".349" style="stop-color:#c49f72"/><stop offset=".619" style="stop-color:#e4bf92"/><stop offset=".846" style="stop-color:#f8d3a6"/><stop offset="1" style="stop-color:#ffdaad"/></linearGradient><path fill="url(#v)" d="M36.312 31.176c-1.39-2.001-7.233-2.001-8.623 0C25.99 33.623 31.73 42.855 32 42.855s6.01-9.232 4.312-11.679z"/><linearGradient id="w" x1="37.244" x2="37.244" y1="63.489" y2="25.718" gradientTransform="matrix(.9174 .0487 -.0521 .9799 15.387 -7.1)" gradientUnits="userSpaceOnUse"><stop offset="0" style="stop-color:#5c3f1e"/><stop offset=".331" style="stop-color:#795731"/><stop offset="1" style="stop-color:#bd915f"/></linearGradient><path fill="url(#w)" d="M44.272 19.88c-10.645 8.609 8.354 13.296 5.384 37.228 9.596-15.493 1.242-39.3-5.384-37.228z"/><path fill="#704C25" d="M43.02 25.55c-.748 3.965 5.778 6.907 7.83 21.394.767-10.108-6.28-19.428-7.83-21.394zm9.907 10.272c-.244-5.721-2.819-10.755-5.349-14.387-2.458 2.559 1.66.235 5.349 14.387z"/><path fill="#704C25" d="M44.063 23.678c.556 2.606 8.676 7.857 7.887 25.406 2.537-14.402-4.003-23.962-7.887-25.406z"/><linearGradient id="x" x1="220.764" x2="220.764" y1="59.69" y2="21.919" gradientTransform="matrix(-.9174 .0487 .0521 .9799 217.172 -12.315)" gradientUnits="userSpaceOnUse"><stop offset="0" style="stop-color:#5c3f1e"/><stop offset=".331" style="stop-color:#795731"/><stop offset="1" style="stop-color:#bd915f"/></linearGradient><path fill="url(#x)" d="M19.729 19.88c10.638 8.609-8.354 13.296-5.383 37.228-9.596-15.493-1.252-39.3 5.383-37.228z"/><path fill="#704C25" d="M20.973 25.55c.755 3.964-5.77 6.907-7.821 21.394-.769-10.108 6.278-19.43 7.821-21.394zm-9.898 10.274c.234-5.722 2.811-10.756 5.349-14.39 2.457 2.562-1.66.236-5.349 14.39z"/><path fill="#704C25" d="M19.939 23.677c-.554 2.609-8.675 7.858-7.888 25.407-2.538-14.402 4.004-23.962 7.888-25.407z"/><linearGradient id="y" x1="32.001" x2="32.001" y1="32.281" y2="2" gradientUnits="userSpaceOnUse"><stop offset="0" style="stop-color:#bd915f"/><stop offset=".669" style="stop-color:#795731"/><stop offset="1" style="stop-color:#5c3f1e"/></linearGradient><path fill="url(#y)" d="M52.562 20.385C54.059 14.037 52.729 2 31.998 2 11.272 2 9.941 14.037 11.438 20.385 13.059 27.271 26.348 32.281 32 32.281c5.656 0 18.941-5.01 20.562-11.896z"/><linearGradient id="z" x1="32.227" x2="32.227" y1="33.217" y2="7.696" gradientTransform="matrix(1.0153 0 0 1 -.72 0)" gradientUnits="userSpaceOnUse"><stop offset="0" style="stop-color:#916b3e"/><stop offset=".074" style="stop-color:#a78154"/><stop offset=".204" style="stop-color:#c6a174"/><stop offset=".34" style="stop-color:#dfba8d"/><stop offset=".48" style="stop-color:#f1cc9f"/><stop offset=".629" style="stop-color:#fcd7aa"/><stop offset=".8" style="stop-color:#ffdaad"/></linearGradient><path fill="url(#z)" d="M50.695 22.727c1.361-5.192.154-15.031-18.697-15.031-18.846 0-20.055 9.842-18.693 15.031C14.778 28.358 26.86 33.217 32 33.217s17.222-4.86 18.695-10.49z"/><path fill="#4A2F24" d="M41.314 9.049c14.115 3.622 10.18 18.123-1.485 22.316 16.038-3.267 14.851-23.67 1.485-22.316zm-18.628 0c-14.115 3.622-10.18 18.123 1.486 22.316C8.133 28.098 9.32 7.695 22.686 9.049z"/><path fill="#4A2F24" d="M41.237 12.811c-4.559 0-6.344 3.863-5.945 6.877.295 2.238 11.602 2.238 11.895 0 .421-3.262-1.784-6.877-5.95-6.877z"/><linearGradient id="A" x1="35.292" x2="47.187" y1="19.349" y2="19.349" gradientUnits="userSpaceOnUse"><stop offset="0" style="stop-color:#ffc800"/><stop offset=".033" style="stop-color:#ffc500"/><stop offset=".394" style="stop-color:#ffad00"/><stop offset=".726" style="stop-color:#ff9e00"/><stop offset="1" style="stop-color:#f90"/></linearGradient><path fill="url(#A)" d="M41.239 13.887c-3.285 0-5.947 2.445-5.947 5.461 0 2.607 2.662 5.463 5.947 5.463 3.287 0 5.947-3.33 5.947-5.463.001-3.016-2.66-5.461-5.947-5.461z"/><ellipse cx="40.667" cy="19.294" fill="#1A1626" rx="4.441" ry="4.349"/><path fill="#FFF" d="M40.313 17.121c0 1.578-2.422 1.578-2.422 0 .001-1.584 2.422-1.584 2.422 0z"/><path fill="#4A2F24" d="M22.761 12.811c4.561 0 6.346 3.863 5.947 6.877-.297 2.238-11.604 2.238-11.895 0-.423-3.262 1.786-6.877 5.948-6.877z"/><linearGradient id="B" x1="16.814" x2="28.708" y1="19.349" y2="19.349" gradientUnits="userSpaceOnUse"><stop offset="0" style="stop-color:#ffc800"/><stop offset=".033" style="stop-color:#ffc500"/><stop offset=".394" style="stop-color:#ffad00"/><stop offset=".726" style="stop-color:#ff9e00"/><stop offset="1" style="stop-color:#f90"/></linearGradient><path fill="url(#B)" d="M22.761 13.887c3.287 0 5.947 2.445 5.947 5.461 0 2.607-2.66 5.463-5.947 5.463-3.285 0-5.947-3.33-5.947-5.463-.001-3.016 2.662-5.461 5.947-5.461z"/><ellipse cx="23.333" cy="19.294" fill="#1A1626" rx="4.442" ry="4.349"/><path fill="#FFF" d="M23.684 17.121c0 1.578 2.424 1.578 2.424 0 0-1.584-2.424-1.584-2.424 0z"/><radialGradient id="C" cx="6.708" cy="1.585" r="1.792" gradientTransform="matrix(.8415 0 0 4.0784 26.356 17.894)" gradientUnits="userSpaceOnUse"><stop offset="0" style="stop-color:#916958"/><stop offset=".21" style="stop-color:#8a6353"/><stop offset=".526" style="stop-color:#755243"/><stop offset=".908" style="stop-color:#53372b"/><stop offset="1" style="stop-color:#4a2f24"/></radialGradient><path fill="url(#C)" d="M31.999 22.627c-1.207 0-.719 1.608-2.264 5.268.809.694 1.387 2.576 1.758 3.263.338.626.674.626 1.012 0 .373-.687.949-2.568 1.76-3.263-1.545-3.66-1.057-5.268-2.266-5.268z"/><path fill="#4A2F24" d="M48.466 9.549c-.405-.879-1.555-2.193-3.646-3.365-1.058-.59-3.145 3.391-1.028 3.379 1.708-.007 3.175.08 4.109.316.636.161.748.066.565-.33z"/><path fill="#4A2F24" d="M50.422 8.004c-.457-.853-1.685-2.094-3.843-3.138-1.092-.524-2.935 3.573-.822 3.435 1.703-.11 3.173-.112 4.121.067.644.123.752.023.544-.364z"/><path fill="#4A2F24" d="M51.884 5.898c-.654-.713-2.148-1.614-4.498-2.095-1.187-.24-1.961 4.187.051 3.531 1.623-.525 3.048-.89 4.01-.95.655-.039.734-.163.437-.486z"/><path fill="#4A2F24" d="M52.525 3.542c-.929-.557-2.429-.947-4.142-.765-1.203.129-1.447 4.62.293 3.417 1.404-.97 2.666-1.728 3.569-2.061.617-.225.657-.365.28-.591zM15.533 9.549c.406-.879 1.555-2.193 3.646-3.365 1.059-.59 3.145 3.391 1.029 3.379-1.708-.007-3.175.08-4.109.316-.636.161-.749.066-.566-.33z"/><path fill="#4A2F24" d="M13.578 8.004c.457-.853 1.684-2.094 3.842-3.138 1.092-.524 2.936 3.573.823 3.435-1.704-.11-3.172-.112-4.121.067-.645.123-.753.023-.544-.364z"/><path fill="#4A2F24" d="M12.115 5.898c.654-.713 2.148-1.614 4.498-2.095 1.188-.24 1.962 4.187-.051 3.531-1.623-.525-3.047-.89-4.009-.95-.655-.039-.734-.163-.438-.486z"/><path fill="#4A2F24" d="M11.475 3.542c.928-.557 2.427-.947 4.141-.765 1.203.129 1.447 4.62-.293 3.417-1.405-.97-2.665-1.728-3.569-2.061-.617-.225-.656-.365-.279-.591z"/><linearGradient id="D" x1="32.001" x2="32.001" y1="15.367" y2="2.731" gradientUnits="userSpaceOnUse"><stop offset=".049" style="stop-color:#ffdaad"/><stop offset=".08" style="stop-color:#f5d1a4"/><stop offset=".239" style="stop-color:#c7a47c"/><stop offset=".398" style="stop-color:#a0805a"/><stop offset=".555" style="stop-color:#826440"/><stop offset=".71" style="stop-color:#6d4f2d"/><stop offset=".859" style="stop-color:#604322"/><stop offset="1" style="stop-color:#5c3f1e"/></linearGradient><path fill="url(#D)" d="M49.578 2.73C37.335 2.73 32 7.484 32 7.484S26.668 2.73 14.422 2.73c.797 8.475 11.732 5.375 15.542 11.375 1.067 1.682 3.007 1.682 4.074 0 3.808-6 14.739-2.902 15.54-11.375z"/><path fill="#4A2F24" d="M14.422 2.73c3.529 4.504 13.207 5.795 15.542 11.375-3.81-6-14.786-2.751-15.542-11.375zm35.156 0c-3.529 4.504-13.207 5.795-15.54 11.375 3.808-6 14.785-2.751 15.54-11.375z"/></svg>