<svg xmlns="http://www.w3.org/2000/svg" xml:space="preserve" style="enable-background:new 0 0 64 64" viewBox="0 0 64 64"><path d="M63.637 43.331c-1.046-4-.13-6.648-.437-10.5-.375-4.673-3.035-7.692-7.238-8.627-2.481-.55 6.876 12.705 6.433 17.672-.35 3.911.904 8.553 1.154 7.911.748-1.893.41-5.22.088-6.456z" style="fill:#59656b"/><path d="M28.803 46.236c.66 3.458 2.82 4.246 3.697 9.942.354 2.288-2.396 1.952-1.802 4.912h5.205c1.644 0-.141-3.185.045-4.93.156-1.468 1.66-6.866 1.66-8.718-4.842-2.936-9.377-4.222-8.805-1.206z" style="fill:#535e63"/><path d="M32.02 61.09h-1.354c0-1.26 1.354-1.26 1.354 0zm1.353 0H32.02c0-1.26 1.353-1.26 1.353 0z" style="fill:#59656b"/><path d="M44.096 36.12c1.6 10.143 6.336 5.563 9.996 17.099 1.616 5.094-2.195 4.04-1.83 7.87h5.52c1.05 0 1.426-2.092.967-2.86-1.122-1.874 1.234-5.025.566-6.524-3.596-8.072 4.092-12.42-1.559-22.433-3.771-6.687-15.217-3.04-13.66 6.848z" style="fill:#535e63"/><path d="M53.618 61.09h-1.356c0-1.378 1.356-1.378 1.356 0zm1.352 0h-1.352c0-1.378 1.351-1.378 1.351 0z" style="fill:#59656b"/><linearGradient id="a" x1="44.123" x2="37.242" y1="49.83" y2="22.819" gradientUnits="userSpaceOnUse"><stop offset=".103" style="stop-color:#5e6a70"/><stop offset=".303" style="stop-color:#6e7a80"/><stop offset=".531" style="stop-color:#79858a"/><stop offset=".8" style="stop-color:#7c888d"/></linearGradient><path d="M60.364 27.182c7.668 14.865-2.285 11.29-12.547 19.049-3.68 2.78-9.979 2.457-13.01 2.772-1.2 2.166-10.203-.354-10.262-2.34-8.752-5.592-9.28-19.158-1.309-22.645 4.165-1.824 6.919 1.377 13.614-.226 3.979-.953 6.732.397 11.05-1.56 2.222-1.006 10.622 1.38 12.464 4.95z" style="fill:url(#a)"/><path d="M12.805 23.719c1.088 2.54-.297 3.816 2.1 6.05 0 0 .214-1.341.824-2.76-2.133-.917-1.457-3.36-2.924-3.29z" style="fill:#59656b"/><path d="M12.951 23.724c.89.236.13 2.509 1.244 4.039-.173 1.237-1.591 2.173-1.316-1.757.065-.915-.494-2.435.072-2.282z" style="fill:#1a1626"/><linearGradient id="b" x1="13.899" x2="13.899" y1="46.344" y2="23.684" gradientUnits="userSpaceOnUse"><stop offset="0" style="stop-color:#5e6a70"/><stop offset=".212" style="stop-color:#6e7a80"/><stop offset=".454" style="stop-color:#79858a"/><stop offset=".739" style="stop-color:#7c888d"/></linearGradient><path d="M2.768 38.217c-.29.957.642 1.237.36 1.61-.487.646.366 2.655.339 2.835-.028.178.185.028.105.415-.232 1.142 1.39 3.049 1.385 1.59.936.117 1.592 1.553 3.233 1.204.318.94 1.73.172 2.105.267 3.064.766 5.064-4.229 8.3-3.95.47.04 1.466 1.664 2.706 1.48 3.025-.446 5.406-15.47 2.398-18.722-3.283-3.55-5.994 1.516-6.713 1.535-5.322.16-2.908 4.516-7.765 5.73-.283.074-5.457 2.715-6.453 6.006z" style="fill:url(#b)"/><linearGradient id="c" x1="3.075" x2=".257" y1="32.63" y2="34.592" gradientUnits="userSpaceOnUse"><stop offset=".248" style="stop-color:#d3dde1"/><stop offset=".475" style="stop-color:#d0dade"/><stop offset=".662" style="stop-color:#c6d0d4"/><stop offset=".833" style="stop-color:#b6bec2"/><stop offset=".897" style="stop-color:#aeb6ba"/></linearGradient><path d="M.313 28.91c-.875.363.136 6.312 2.42 9.46.238.332 2.736-2.204 2.47-3.508C.301 32.435.926 28.653.313 28.91z" style="fill:url(#c)"/><linearGradient id="d" x1="4.885" x2="8.168" y1="32.92" y2="30.777" gradientUnits="userSpaceOnUse"><stop offset=".103" style="stop-color:#aeb6ba"/><stop offset=".167" style="stop-color:#b6bec2"/><stop offset=".338" style="stop-color:#c6d0d4"/><stop offset=".525" style="stop-color:#d0dade"/><stop offset=".751" style="stop-color:#d3dde1"/></linearGradient><path d="M5.914 29.273c-.945-1.228-.795 2.873-.095 5.304.126.443 3.07.309 3.544-2.283-.421-1.115-2.556-1.862-3.449-3.021z" style="fill:url(#d)"/><path d="M4.813 43.48c-2.1-.872.57-1.479.996-1.195.2.134-.883 1.243-.996 1.196zm.144 1.187c2.873.456 4.2-1.71 4.2-1.71s-1.708 1.46-4.2 1.71z" style="fill:#1a1626"/><path d="M9.703 33.193c-.896 1.048-1.408 1.977-2.685 2.163 1.15.388 2.129-.97 2.685-2.163zm-3.935 2.501c-.723 1.604-.963 3.026-2.684 3.293 1.842.617 2.523-1.46 2.684-3.293zM4.426 41.85c1.049-.519 1.65-.423 1.98.529.02-1.12-.64-1.628-1.98-.528z" style="fill:#59656b"/><path d="M19.738 23.982c.51 3.204 1.15 4.543-1.128 7.126 0 0-1.565-.278-2.245-1.733 1.444-1.78 1.604-6.868 3.373-5.393z" style="fill:#7c888d"/><linearGradient id="e" x1="17.752" x2="20.485" y1="27.387" y2="27.387" gradientUnits="userSpaceOnUse"><stop offset="0" style="stop-color:#1a1626"/><stop offset=".389" style="stop-color:#353843"/><stop offset=".775" style="stop-color:#4b545a"/><stop offset="1" style="stop-color:#535e63"/></linearGradient><path d="M20.012 24.332c-.838-1.252-1.58-.633-2.148 2.846-.467 2.869.668 4.844.845 3.344 2.5-2.697 1.774-5.493 1.303-6.19z" style="fill:url(#e)"/><path d="M17.752 32.867c-.818-1.562-1.709-2.385-1.193-4.874-1.18 2.354-.014 4.02 1.193 4.874zm1.014 9.097c2.756-1.766 2.933-4.2 4.467-11.895-1.924 4.486-1.272 8.715-4.467 11.895z" style="fill:#59656b"/><linearGradient id="f" x1="25.146" x2="34.227" y1="53.813" y2="53.813" gradientUnits="userSpaceOnUse"><stop offset="0" style="stop-color:#7c888d"/><stop offset=".291" style="stop-color:#727e84"/><stop offset="1" style="stop-color:#5e6a70"/></linearGradient><path d="M25.188 47.145c.658 3.46 2.82 4.247 3.697 9.943.354 2.287-2.397 1.953-1.805 4.912h5.207c1.645 0-.142-3.184.043-4.93.159-1.47 1.899-6.516 1.897-8.37-4.182-2.594-9.611-4.57-9.04-1.555z" style="fill:url(#f)"/><path d="M28.405 62H27.05c0-1.263 1.354-1.263 1.354 0z" style="fill:#849296"/><path d="M29.758 62h-1.353c0-1.263 1.353-1.263 1.353 0z" style="fill:#849296"/><linearGradient id="g" x1="55.492" x2="55.492" y1="62" y2="26.782" gradientUnits="userSpaceOnUse"><stop offset="0" style="stop-color:#5e6a70"/><stop offset=".577" style="stop-color:#727e84"/><stop offset="1" style="stop-color:#7c888d"/></linearGradient><path d="M47.659 37.028c1.6 10.143 6.336 5.565 9.996 17.1 1.615 5.094-2.196 4.042-1.828 7.872h5.517c1.051 0 1.426-2.095.967-2.863-1.12-1.872 1.234-5.022.567-6.525-3.596-8.07 4.091-12.418-1.559-22.431-3.772-6.687-15.217-3.04-13.66 6.847z" style="fill:url(#g)"/><path d="M57.18 62h-1.353c0-1.38 1.353-1.38 1.353 0zm1.352 0H57.18c0-1.38 1.352-1.38 1.352 0z" style="fill:#849296"/><path d="M24.78 46.08c.484-2.426 5.115-.857 9.814 2.35-4.334-4.04-10.504-6.278-9.815-2.35z" style="fill:#59656b"/><path d="M27.643 33.862s.416 10.878 8.584 14.07c-6.582-4.613-8.584-14.07-8.584-14.07zm-1.203-8.911c-1.66 7.058.093 8.736-2.35 15.76 3.29-6.31 1.754-9.975 2.35-15.76zm16.213 5.479s-.592 10.492 7.576 13.685c-6.582-4.613-7.576-13.684-7.576-13.684z" style="fill:#59656b"/><path d="M40.706 36.275s.359 6.43 8.656 8.116c-7.438-2.936-8.657-8.116-8.657-8.116z" style="fill:#59656b"/><path d="M28.016 52.724s1.082.699 3.045.995c-2.387.472-3.045-.995-3.045-.995zm.389.944s.836.54 2.355.769c-1.848.367-2.355-.769-2.355-.769zm28.461-2.463s1.08.698 3.043.996c-2.387.47-3.043-.996-3.043-.996zm.386.945s.836.54 2.356.769c-1.846.367-2.355-.77-2.355-.77z" style="fill:#849296"/><path d="M9.904 38.209c1.112 1.83 3.036.849 3.505-.81-1.867-.474-3.689-.284-3.505.81z" style="fill:#1a1626"/><path d="M12.406 37.582c.1.52-.66.684-.759.164-.1-.527.658-.69.76-.164z" style="fill:#b3c4cc"/><path d="M13.41 37.398c-.693-.489-4.036-.84-3.506.81.047-.863 2.693-.713 3.505-.81z" style="fill:#59656b"/></svg>