<svg xmlns="http://www.w3.org/2000/svg" xml:space="preserve" style="enable-background:new 0 0 64 64" viewBox="0 0 64 64"><radialGradient id="a" cx="31.923" cy="31.778" r="34.962" gradientTransform="matrix(1 0 0 1.04 .003 -1.28)" gradientUnits="userSpaceOnUse"><stop offset="0" style="stop-color:#332824"/><stop offset=".329" style="stop-color:#43352f"/><stop offset=".975" style="stop-color:#6e564b"/><stop offset="1" style="stop-color:#70574c"/></radialGradient><path d="M61.657 6.131C56.957 5.21 45.644 8.738 32 29.951 18.356 8.738 7.044 5.209 2.343 6.13c-3.02.592-2.993 5.538-.65 9.327 6.602 10.687 3.047 19.345 10.59 17.526.689-.166 2.473-.411 4.715-.678-3.362 1.807-5.451 4.319-6.305 6.086-5.35 11.077 11.774 25.665 15.992 16.955 1.606-3.314 5.25-14.1 5.314-14.281.064.182 3.708 10.967 5.314 14.281 4.218 8.71 21.341-5.878 15.992-16.954-.854-1.768-2.943-4.28-6.305-6.087 2.242.267 4.026.512 4.715.678 7.543 1.82 3.988-6.839 10.592-17.525 2.342-3.789 2.37-8.735-.65-9.327z" style="fill:url(#a)"/><path d="M32.266 33.675c1.005 2.85.53 7.668.932 8.649.403.982 4.602 13.322 5.003 13.322.403 0 .513-.082.477-.406-.026-.22-2.917-6.979-4.52-13.068-.798-3.034.11-5.93-1.733-8.957-.617-1.017-.387-.188-.16.46z" style="fill:#ffd817"/><path d="M32.854 33.454c1.222 3.002 1.578 7.675 1.826 8.718.74 3.118 4.024 12.074 4.286 12.414.851 1.1 1.546-.011 1.51-.337-.022-.191-2.74-5.975-4.358-11.197-1.139-3.678-1.48-8.217-3.287-10.199-.784-.86-.235-.034.023.6z" style="fill:#ffd817"/><path d="M36.234 41.142c.36 3.2 4.54 12.57 4.803 12.907.85 1.1 2.697-.102 2.66-.428-.021-.192-2.364-13.275-9.565-19.67-.861-.767 1.562 2.396 2.102 7.19z" style="fill:#ffd817"/><path d="M40.333 41.452c-.853-.716 2.916 4.238 3.848 11.732.178 1.438 2.538-.396 2.537-1.514 0-.192-1.814-4.49-2.719-7.346-.367-1.158-1-.63-3.666-2.872zm3.92 2.355c-.478.088 2.248 4.53 2.646 7.023.227 1.43 2.537-.397 2.537-1.512 0-.192-2.693-4.433-3.235-5.098-.397-.49-1.454-.505-1.948-.413z" style="fill:#ffd817"/><path d="M45.886 43.241c.293.434 2.858 3.061 4.028 5.235.37.687 1.372-1.56 1.37-2.675 0-.193-4.3-5.005-6.449-6.402-.512-.332-.006 2.283 1.051 3.842zm-1.591-4.844c.46.37 5.273 4.063 7.267 6.04.632.626.12-3.345-.277-3.941-.125-.185-5.928-3.67-8.594-4.804-.624-.265-.051 1.375 1.604 2.705zm-1.99-3.357c.303.535 4.447 1.594 8.442 4.33.72.493-.371-2.076-.77-2.672-.123-.185-5.216-4.215-9.304-3.038-.645.184.974.22 1.632 1.38z" style="fill:#ffb117"/><path d="M39.812 33.247c.47.214 1.496-.29 3.866-.077.234.02.878-.686.713-.82-.17-.136-7.654-1.762-11.742-.585-.22.063.301 1.524.81 1.344 2.947-1.039 5.378-.301 6.353.138z" style="fill:#f2841e"/><path d="M44.343 31.223c.235.021.933-.736.768-.87-.167-.135-9.526-.774-12.704.677-.21.098-.34.608.17.428 2.948-1.04 9.398-.447 11.766-.235z" style="fill:#f2841e"/><path d="M52.858 30.282c.352.027 1.775-.917 1.775-1.304-.001-.65.3-2.276 0-2.429-1.572-.793-9.73-2.137-12.364-1.362-.22.064-10.344 5.752-9.844 5.544 4.413-1.856 14.746-.896 20.434-.45z" style="fill:#f2841e"/><path d="M53.948 25.39c.55.122 1.305-.937 1.305-1.404 0-.732-1.407-2.466-1.956-2.71-.192-.086-4.02-.671-5.78-.285-.223.048-4.262 3.536-3.73 3.483 1.755-.173 7.83.401 10.161.916z" style="fill:#e6591c"/><path d="M42.817 24.25c.52-.228 4.369-3.43 4.555-3.851.256-.575 2.59-3.998 2.012-3.872-.205.045-4.828 1.691-9.035 6.071-.166.174-6.074 6.64-5.65 6.274 1.389-1.207 5.907-3.646 8.118-4.621z" style="fill:#c21413"/><path d="M33.933 29.35c.26-.242 5.02-6.093 6.095-7.153.668-.658 4.32-3.974 7.829-5.673 1.228-.595-3.262.065-9.2 5.337-.178.158-6.58 8.29-6.049 8.344.149.016.851-.413 1.325-.856zm19.509-9.046c.585.008 2.404-1.078 2.397-1.425-.013-.595.222-3.114-.176-3.421-.172-.132-2.915.171-4.677.55-.222.047-3.047 4.342-2.514 4.296 1.684-.144 2.594-.03 4.97 0z" style="fill:#c21413"/><path d="M39.536 39.853c.801 1.5 4.156 3.108 4.38 3.2.726.299 1.454.195 1.426.022-.118-.715-1.048-1.458-1.067-3.908-.004-.67-2.25-1.635-2.44-3.933-.064-.775-4.618-3.056-7.818-1.957-.65.223 2.611 1.126 5.52 6.576z" style="fill:#ffb117"/><path d="M54.54 13.044c-.37-.89 1.624-1.106 4.694-.933.202.01.063 1.376-.226 1.52-.883.437-4.226-.009-4.468-.587zm-.424-1.713c-.37-.888 1.213-1.574 4.565-1.684.201-.007.507 1.746.191 1.73-1.527-.076-4.514.534-4.756-.046zm-1.318-1.604c-.375-.705.576-1.452 4.27-2.26.16-.034 1.034 1.211.765 1.236-1.332.117-4.789 1.482-5.035 1.024z" style="fill:#c21413"/><path d="M50.85 10.854c-.17-.309-1.763.811-1.558 1.479.133.433 1.746-.06 2.158-.644.135-.193-.533-.716-.6-.835zm-3.46 2.018c-.363.02-1.993 1.448-1.54 1.987.294.348 2.226-.666 2.6-1.416.123-.247-.713-.59-1.06-.571zm-2.617 2.596c-.422-.174-3.323 2.03-2.735 2.519.383.315 2.86-.794 3.504-1.644.213-.278-.607-.81-.77-.875z" style="fill:#ffe8bb"/><path d="M51.111 12.933c-1.783.172-3.52 1.984-3.21 2.343.204.23 2.82-.5 3.086-1.01.088-.167.22-1.342.124-1.333zm.726-.149c-.24.061-.257 1.405-.08 1.414.289.019 1.913-.339 2.18-.848.088-.167-.303-1.022-2.1-.566zm.418-1.534c-.2.05-.534.803-.275 1.1.168.19 1.236-.394 1.457-.816.072-.139.304-.662-1.182-.284z" style="fill:#ffbf42"/><path d="M44.747 32.983c-.401-.873 1.485-.621 1.822-.176.573.755-1.513.846-1.822.176zm9.879-1.952c-.401-.872 1.356-2.377 1.694-1.932.572.755-1.385 2.603-1.694 1.932zm.932-4.878c-.402-.873 1.715-.683 1.601-.059-.372 2.043-.804 1.788-1.601.06zm.283-3.362c.03-.966 1.607-.229 1.945.216.914 1.204-2.014 1.963-1.945-.216zm.664-2.507c-.4-.873 2.559-.95 2.253.1-.427 1.467-1.685 1.133-2.253-.1zm1.155-2.636c-.4-.873 2.638-1.242 2.253.101-.421 1.469-1.684 1.132-2.252-.1zm-.496-1.998c-.668-1.597 5.163-1.514 3.838.026-.567.66-3.518.743-3.838-.026zm3.249-2.747c-.117-.282-.115-1.787 1.063-1.787 1.286 0 .993.967.906 1.536-.137.893-1.649 1.02-1.97.251zm-.611-3.085c-.371-.889.617-.885.945-.428.508.71-.624 1.198-.945.428zm-.849-1.667c-.37-.89.618-.883.946-.425.508.707-.624 1.195-.946.425zm1.914-.561c-.373-.888.617-.883.945-.426.508.709-.625 1.197-.945.427zm.82 1.959c-.37-.889.619-.882.945-.426.509.71-.623 1.198-.945.426zM47.509 33.736c-.303-.921 1.522.38 1.86.825.574.753-1.495.286-1.86-.825zm3.386 3.396c-.304-.92 1.29-.086 1.561.892.257.923-1.196.218-1.561-.892zm1.49 8.053c.052-1.246 1.358-.707.871.556-.329.854-.932.946-.87-.556zm-.242-5.247c.051-1.246.903-.687.98.613.053.918-1.042.89-.98-.613zm.49 2.634c.15-1.197.93-.196.993.288.107.82-1.174 1.152-.993-.288zm-1.704 7.268c-.32-1.252 1.698-3.19 1.594-1.918-.049.586-1.344 2.896-1.594 1.918zm-2.75 2.6c.084-.834 1.658-1.55 1.717-1.206.234 1.362-1.9 3.011-1.717 1.206zm-3.109 2.644c.143-1.043 2.126-1.847 2.032-.977-.076.711-2.205 2.235-2.031.977zm-2.918.809c.143-1.043 1.735-.423 1.782-.002.08.712-1.953 1.258-1.782.002zm-2.77.563c.118-.9 1.675-.556 1.719-.193.074.615-1.863 1.278-1.72.193z" style="fill:#ffe8bb"/><path d="M31.734 33.675c-1.005 2.85-.53 7.668-.932 8.649-.403.982-4.602 13.322-5.003 13.322-.403 0-.513-.082-.477-.406.026-.22 2.917-6.979 4.52-13.068.798-3.034-.11-5.93 1.733-8.957.617-1.017.387-.188.16.46z" style="fill:#ffd817"/><path d="M31.146 33.454c-1.222 3.002-1.578 7.675-1.826 8.718-.74 3.118-4.024 12.074-4.286 12.414-.851 1.1-1.546-.011-1.51-.337.022-.191 2.74-5.975 4.358-11.197 1.138-3.678 1.48-8.217 3.287-10.199.784-.86.235-.034-.023.6z" style="fill:#ffd817"/><path d="M27.766 41.142c-.36 3.2-4.54 12.57-4.803 12.907-.85 1.1-2.697-.102-2.66-.428.021-.192 2.364-13.275 9.565-19.67.861-.767-1.562 2.396-2.102 7.19z" style="fill:#ffd817"/><path d="M23.667 41.452c.853-.716-2.916 4.238-3.848 11.732-.178 1.438-2.538-.396-2.537-1.514 0-.192 1.814-4.49 2.719-7.346.367-1.158 1-.63 3.666-2.872zm-3.92 2.355c.478.088-2.248 4.53-2.647 7.023-.226 1.43-2.537-.397-2.537-1.512 0-.192 2.694-4.433 3.236-5.098.397-.49 1.454-.505 1.948-.413z" style="fill:#ffd817"/><path d="M18.114 43.241c-.293.434-2.858 3.061-4.028 5.235-.371.687-1.372-1.56-1.371-2.675 0-.193 4.302-5.005 6.45-6.402.512-.332.006 2.283-1.05 3.842zm1.591-4.844c-.46.37-5.274 4.063-7.268 6.04-.632.626-.119-3.345.278-3.941.125-.185 5.928-3.67 8.594-4.804.624-.265.051 1.375-1.604 2.705zm1.99-3.357c-.303.535-4.448 1.594-8.442 4.33-.72.493.37-2.076.77-2.672.122-.185 5.216-4.215 9.304-3.038.645.184-.974.22-1.632 1.38z" style="fill:#ffb117"/><path d="M24.188 33.247c-.47.214-1.496-.29-3.866-.077-.234.02-.878-.686-.713-.82.17-.136 7.654-1.762 11.742-.585.22.063-.301 1.524-.81 1.344-2.947-1.039-5.378-.301-6.353.138z" style="fill:#f2841e"/><path d="M19.657 31.223c-.235.021-.933-.736-.768-.87.167-.135 9.526-.774 12.704.677.21.098.34.608-.17.428-2.947-1.04-9.398-.447-11.766-.235z" style="fill:#f2841e"/><path d="M11.142 30.282c-.352.027-1.775-.917-1.775-1.304.001-.65-.3-2.276 0-2.429 1.572-.793 9.73-2.137 12.364-1.362.22.064 10.344 5.752 9.844 5.544-4.413-1.856-14.746-.896-20.433-.45z" style="fill:#f2841e"/><path d="M10.052 25.39c-.55.122-1.305-.937-1.305-1.404 0-.732 1.407-2.466 1.956-2.71.192-.086 4.02-.671 5.78-.285.223.048 4.262 3.536 3.73 3.483-1.755-.173-7.83.401-10.161.916z" style="fill:#e6591c"/><path d="M21.183 24.25c-.52-.228-4.369-3.43-4.555-3.851-.256-.575-2.59-3.998-2.012-3.872.205.045 4.828 1.691 9.035 6.071.166.174 6.074 6.64 5.65 6.274-1.389-1.207-5.907-3.646-8.118-4.621z" style="fill:#c21413"/><path d="M30.067 29.35c-.26-.242-5.02-6.093-6.095-7.153-.668-.658-4.32-3.974-7.829-5.673-1.228-.595 3.262.065 9.2 5.337.178.158 6.58 8.29 6.049 8.344-.149.016-.85-.413-1.325-.856zm-19.51-9.046c-.585.008-2.404-1.078-2.397-1.425.014-.595-.22-3.114.177-3.421.172-.132 2.915.171 4.677.55.222.047 3.046 4.342 2.513 4.296-1.683-.144-2.594-.03-4.97 0z" style="fill:#c21413"/><path d="M24.464 39.853c-.801 1.5-4.156 3.108-4.38 3.2-.726.299-1.454.195-1.426.022.118-.715 1.048-1.458 1.067-3.908.004-.67 2.25-1.635 2.44-3.933.064-.775 4.618-3.056 7.818-1.957.65.223-2.611 1.126-5.52 6.576z" style="fill:#ffb117"/><path d="M9.46 13.044c.37-.89-1.624-1.106-4.695-.933-.2.01-.062 1.376.227 1.52.883.437 4.226-.009 4.468-.587zm.424-1.713c.37-.888-1.213-1.574-4.565-1.684-.201-.007-.507 1.746-.191 1.73 1.527-.076 4.514.534 4.756-.046zm1.318-1.604c.375-.705-.576-1.452-4.27-2.26-.16-.034-1.034 1.211-.765 1.236 1.332.117 4.789 1.482 5.035 1.024z" style="fill:#c21413"/><path d="M13.15 10.854c.17-.309 1.763.811 1.558 1.479-.133.433-1.746-.06-2.158-.644-.135-.193.533-.716.6-.835zm3.46 2.018c.363.02 1.993 1.448 1.54 1.987-.294.348-2.226-.666-2.6-1.416-.123-.247.712-.59 1.06-.571zm2.617 2.596c.422-.174 3.323 2.03 2.735 2.519-.383.315-2.86-.794-3.504-1.644-.213-.278.607-.81.77-.875z" style="fill:#ffe8bb"/><path d="M12.889 12.933c1.783.172 3.52 1.984 3.21 2.343-.204.23-2.82-.5-3.086-1.01-.088-.167-.22-1.342-.124-1.333zm-.726-.149c.24.061.257 1.405.08 1.414-.289.019-1.913-.339-2.18-.848-.088-.167.303-1.022 2.1-.566zm-.418-1.534c.2.05.534.803.275 1.1-.168.19-1.236-.394-1.457-.816-.072-.139-.304-.662 1.182-.284z" style="fill:#ffbf42"/><path d="M19.253 32.983c.401-.873-1.485-.621-1.822-.176-.573.755 1.513.846 1.822.176zm-9.879-1.952c.401-.872-1.356-2.377-1.693-1.932-.573.755 1.384 2.603 1.693 1.932zm-.932-4.878c.402-.873-1.716-.683-1.601-.059.372 2.043.803 1.788 1.601.06zm-.283-3.362c-.031-.966-1.607-.229-1.945.216-.914 1.204 2.014 1.963 1.945-.216zm-.664-2.507c.4-.873-2.559-.95-2.253.1.427 1.467 1.685 1.133 2.253-.1zm-1.156-2.636c.401-.873-2.637-1.242-2.252.101.422 1.469 1.683 1.132 2.252-.1zm.497-1.998c.668-1.597-5.163-1.514-3.838.026.566.66 3.517.743 3.838-.026zm-3.249-2.747c.117-.282.115-1.787-1.063-1.787-1.286 0-.993.967-.906 1.536.137.893 1.648 1.02 1.969.251zm.611-3.085c.371-.889-.617-.885-.945-.428-.508.71.624 1.198.945.428zm.849-1.667c.37-.89-.618-.883-.946-.425-.508.707.624 1.195.946.425zM3.134 7.59c.372-.888-.618-.883-.946-.426-.508.709.625 1.197.946.427zm-.821 1.959c.37-.889-.619-.882-.945-.426-.509.71.623 1.198.945.426zm14.178 24.187c.303-.921-1.522.38-1.86.825-.574.753 1.495.286 1.86-.825zm-3.386 3.396c.304-.92-1.29-.086-1.561.892-.257.923 1.196.218 1.561-.892zm-1.491 8.053c-.052-1.246-1.357-.707-.871.556.33.854.933.946.871-.556zm.243-5.247c-.051-1.246-.903-.687-.98.613-.053.918 1.042.89.98-.613zm-.49 2.634c-.15-1.197-.93-.196-.993.288-.107.82 1.174 1.152.993-.288zm1.704 7.268c.32-1.252-1.698-3.19-1.594-1.918.048.586 1.344 2.896 1.594 1.918zm2.75 2.6c-.084-.834-1.658-1.55-1.717-1.206-.234 1.362 1.899 3.011 1.717 1.206zm3.108 2.644c-.143-1.043-2.125-1.847-2.032-.977.078.711 2.205 2.235 2.032.977zm2.919.809c-.143-1.043-1.736-.423-1.783-.002-.08.712 1.954 1.258 1.783.002zm2.77.563c-.118-.9-1.675-.556-1.719-.193-.074.615 1.863 1.278 1.72.193z" style="fill:#ffe8bb"/><radialGradient id="b" cx="43.363" cy="32.444" r="11.733" gradientTransform="matrix(0 1.04 -.2273 0 39.376 -12.636)" gradientUnits="userSpaceOnUse"><stop offset="0" style="stop-color:#544d4a"/><stop offset=".313" style="stop-color:#4e4744"/><stop offset=".748" style="stop-color:#3f3532"/><stop offset="1" style="stop-color:#332824"/></radialGradient><path d="M36.89 12.689c-2.355 3.183-2.497 8.393-3.867 10.07-.127.157-.656-1.236-.594-.21.025.399-.205.6-.429.604-.224-.004-.454-.205-.43-.603.063-1.027-.466.366-.593.21-1.37-1.678-1.512-6.888-3.867-10.071-.843-1.138-2.447-.15-.115.438 2.334 3.358 1.598 5.525 3.636 10.313-.5.929-.653 1.99-.095 2.622-.905 1.177-1.711 12.584-.717 15.946.265.895.61 9.825 2.181 9.825 1.57 0 1.916-8.93 2.18-9.825.995-3.362.189-14.77-.716-15.946.558-.632.404-1.693-.095-2.622 2.037-4.788 1.302-6.955 3.636-10.313 2.332-.588.728-1.577-.115-.438z" style="fill-rule:evenodd;clip-rule:evenodd;fill:url(#b)"/><path d="M33.823 41.813s-1.949.557-3.654-.021c0 0 0 .65.164 1.137 1.233.548 3.313.114 3.313.114s.23-.661.177-1.23zm-.2 1.652s-1.735.556-3.253-.022c0 0 0 .65.147 1.138 1.095.547 2.947.114 2.947.114s.205-.662.16-1.23zm-.194 1.798s-1.528.437-2.864-.016c0 0 0 .509.13.892.964.428 2.594.088 2.594.088s.18-.518.14-.964zm-.157 1.653s-1.359.435-2.548-.018c0 0 0 .51.114.892.858.429 2.31.09 2.31.09s.16-.519.123-.964zm-.222 1.521s-1.122.487-2.104-.02c0 0 0 .57.095.997.71.478 1.905.1 1.905.1s.133-.578.104-1.077z" style="opacity:.2;fill:#ffe8bb"/><path d="M33.059 25.062c-.277-.295-.836.025-.507.605.252.443.974-.105.507-.605zm-2.171.605c.252.444.974-.105.506-.605-.276-.295-.834.025-.506.605zm1.938-2.046c-.216-.242-.651.02-.395.495.196.363.76-.085.395-.495zm-1.693.495c.196.363.76-.085.394-.495-.216-.242-.651.02-.394.495z" style="fill:#ffe8bb"/><linearGradient id="c" x1="32" x2="32" y1="34.642" y2="26.549" gradientUnits="userSpaceOnUse"><stop offset=".091" style="stop-color:#ffe8bb;stop-opacity:0"/><stop offset="1" style="stop-color:#ffe8bb"/></linearGradient><path d="M32.313 34.642h-.627s-.85-6.549 0-7.956c.112-.182.516-.182.627 0 .85 1.407 0 7.956 0 7.956z" style="opacity:.2;fill:url(#c)"/></svg>