<svg xmlns="http://www.w3.org/2000/svg" xml:space="preserve" style="enable-background:new 0 0 64 64" viewBox="0 0 64 64"><path d="M35.513 53.4c3.399 4.33 4.66 7.889 3.843 8.19-1.493.552-2.99 2.41-1.223 2.41h5.455c1.031 0-.284-7.279-2.33-12.992-1.622-4.528-9.62-2.543-5.745 2.392zm-21.088-3.527c-1.279 8.193-1.743 11.418-2.56 11.718-1.493.552-2.99 2.409-1.221 2.409h5.453c1.03 0 .89-1.912 1.313-4.44.428-2.545 2.783-2.326 4.332-6.473 3.183-8.516-6.096-11.03-7.317-3.214z" style="fill:#1c787d"/><path d="M40.767 55.065c-11.972 2.246-28.412-3.143-30.564-15.888-5.277-15.51 7.593-26.9-.995-31.357-.825-.428-.16-7.129 1.359-6.73 12.334 3.23 2.58 24.577 6.078 31.907 8.19-1.965 26.805 5.044 29.375 12.068 3.854 2.973 15.629 6.192 17.732 12.047.965 2.684-.484 5.974-11.744 5.974-5.161 0 13.192-1.87 6.632-6.317-5.93-4.017-12.806-2.655-17.873-1.704z" style="fill:#31a7ad"/><path d="M53.327 62.323c3.912-.649 11.079-2.543 4.519-6.99-5.93-4.017-11.741-2.506-16.852-1.814-12.072 1.631-27.737-2.112-29.889-14.855-.957-2.968-3.849-5.112 1.772-23.738 1.945-6.444-2.684-6.593-2.786-9.983-.234.5-5.165 3.78-5.165 3.78 3.448 3.083 8.666-1.899 6.196 6.44-4.686 15.82-2.114 21.103-1.159 24.07 2.152 12.745 18.867 18.237 30.839 15.99 5.068-.95 11.698-2.39 17.628 1.626 4.788 3.246-5.103 5.473-5.103 5.473z" style="fill:#218b90"/><path d="M40.253 54.172c4.6-4.298 2.883-8.002 2.883-8.002 3.17 5.18-2.883 8.002-2.883 8.002z" style="fill:#218b90"/><path d="M38.976 54.017c5.961-1.74 6.003-5.851 6.003-5.851.63 6.1-6.003 5.852-6.003 5.852zm-10.404-4.866c4.006 3.963 7.757 2.853 7.757 2.853-5.286 2.163-7.757-2.852-7.757-2.852zm-8.912-8.179S16.433 45.112 21 51.95c0 0-6.823-5.427-1.34-10.977zm-6.354-3.948c.118-3.8 3.34-4.026 3.34-4.026-2.385 1.42-3.34 4.026-3.34 4.026z" style="fill:#218b90"/><linearGradient id="a" x1="30.721" x2="42.447" y1="54.734" y2="54.734" gradientUnits="userSpaceOnUse"><stop offset="0" style="stop-color:#31a7ad"/><stop offset=".313" style="stop-color:#2ea4a9"/><stop offset=".616" style="stop-color:#249a9e"/><stop offset=".913" style="stop-color:#158a8a"/><stop offset="1" style="stop-color:#0f8483"/></linearGradient><path d="M33.579 50.743c.793 9.01-.018 10.546-.835 10.847-1.493.552-2.99 2.41-1.221 2.41h5.453c1.03 0 .777-1.919.777-4.486 0-2.979 2.614-2.767 4.163-6.912 3.186-8.517-9.03-9.744-8.337-1.859z" style="fill:url(#a)"/><path d="M40.75 54.826c5.386-11.541-7.958-12.232-6.905-.273-4.216-14.324 15.28-11.696 6.904.273z" style="fill:#218b90"/><linearGradient id="b" x1="17.796" x2="27.358" y1="53.608" y2="53.608" gradientUnits="userSpaceOnUse"><stop offset="0" style="stop-color:#31a7ad"/><stop offset=".313" style="stop-color:#2ea4a9"/><stop offset=".616" style="stop-color:#249a9e"/><stop offset=".913" style="stop-color:#158a8a"/><stop offset="1" style="stop-color:#0f8483"/></linearGradient><path d="M19.32 48.58c2.102 8.778 1.315 12.71.5 13.011-1.493.551-2.99 2.409-1.223 2.409h5.455c1.031 0 .775-1.918.775-4.486 0-2.979 2.414-5.133 2.526-9.747.24-9.676-9.517-7.382-8.033-1.186z" style="fill:url(#b)"/><path d="M26.576 53.893c3.502-13.041-8.78-13.528-6.487-1.642-5.684-13.28 12.23-13.878 6.488 1.642z" style="fill:#218b90"/><path d="M9.69 8.593C4.619 8.49.524 10.37.847 7.25-.94 7.106.51 3.962 1.462 3.869 5.79 3.444 3.497 0 5.9 0c1.647 0 2.623.841 4.534.93 1.296.06-.014 2.629.678 3.681.993 1.51-.05 4.009-1.422 3.982z" style="fill:#31a7ad"/><path d="M7.345 6.916c-3.77 1.816-6.498.335-6.498.335 2.92.503 6.498-.335 6.498-.335z" style="fill:#1c787d"/><path d="M8.801 3c-.487 1.438-1.904 2.1-3.214.914C7.289 4.706 7.799 4.18 8.8 3zm-3.875.533c-.012-1.518 1.62-2.8 3.248-2.112-1.818-.12-2.644.727-3.248 2.112zm6.579 3.116c.216-1.502-1.582-3.292-.715-4.834-.396 1.838 1.485 3.489.715 4.834zm.275 2.046c1.405-1.584-.231-4.367.855-6.594-.545 2.643.923 5.63-.856 6.594z" style="fill:#218b90"/><path d="M12.047 9.25c1.22-1.366 1.944-3.674 2.353-5.913.156 2.373-.806 5.135-2.353 5.912z" style="fill:#218b90"/><path d="M11.546 9.946c1.294-.428 2.461-1.693 3.37-3.038-.515 1.665-1.985 3.14-3.37 3.038zm-.037.66c1.15-.031 2.394-.54 3.446-1.134-.807.83-2.345 1.407-3.446 1.134zM8.482 3.114c-.308 1.428-2.234 1.747-2.736.261C5.2 1.76 8.942.987 8.482 3.114z" style="fill:#218b90"/><path d="M7.906 3.114c0 1.051-1.584 1.051-1.584 0 0-1.05 1.584-1.05 1.584 0z" style="fill:#302c3b"/><path d="M5.295.93c.238.3-.311.747-.36.696-.05-.05.121-.995.36-.695z" style="fill:#218b90"/><path d="M7.036 2.764c0 .315-.475.315-.475 0 0-.316.475-.316.475 0z" style="fill:#6e8189"/><path d="M18.56 35.47c-1.382-.01-1.372 1.982.011 1.993 1.383.01 1.373-1.983-.012-1.993z" style="fill:#218b90"/><path d="M20.82 38.622c-.798-.007-.792 1.14.007 1.147.797.006.789-1.143-.008-1.147zm8.833 1.891c-.796-.01-.79 1.14.006 1.147.797.006.791-1.144-.006-1.147z" style="fill:#1c787d"/><path d="M20.82 33.521c-.796-.006-.792 1.143.007 1.148.795.007.789-1.144-.008-1.148zm17.826 6.278c-.795-.006-.791 1.142.008 1.148.794.007.788-1.144-.008-1.148z" style="fill:#218b90"/><path d="M35.669 37.808c-.795-.007-.789 1.142.008 1.148.797.005.788-1.145-.008-1.148z" style="fill:#1c787d"/><path d="M26.238 34.387c-.99-.008-.985 1.421.01 1.428.99.008.981-1.422-.01-1.428z" style="fill:#218b90"/><path d="M28.468 36.954c-.993-.009-.985 1.42.008 1.428.99.007.983-1.422-.008-1.428zm-5.645-1.201c-.993-.008-.985 1.421.008 1.428.989.008.983-1.422-.008-1.428z" style="fill:#1c787d"/><path d="M34.14 40.373c-.993-.009-.985 1.42.008 1.428.99.007.982-1.422-.009-1.428zm-8.649-1.709c-1.38-.013-1.37 1.981.015 1.99 1.379.01 1.369-1.982-.015-1.99zm6.256-1.992c-1.381-.011-1.371 1.981.012 1.992 1.384.011 1.371-1.985-.012-1.992z" style="fill:#218b90"/></svg>