<svg xmlns="http://www.w3.org/2000/svg" xml:space="preserve" style="enable-background:new 0 0 64 64" viewBox="0 0 64 64"><path d="M43.05 45.956c-2.528-20.076-1.606-31.202-.314-32.61 2.222-2.428-.366 12.416 2.763 30.83.283 1.668-2.26 3.27-2.449 1.78z" style="fill:#916f4c"/><linearGradient id="a" x1="28.553" x2="38.465" y1="26.709" y2="30.811" gradientUnits="userSpaceOnUse"><stop offset="0" style="stop-color:#47342a"/><stop offset=".173" style="stop-color:#5b4433"/><stop offset=".53" style="stop-color:#906e4a"/><stop offset="1" style="stop-color:#deac6d"/></linearGradient><path d="M29.16 46.791c9.529-13.898 6.995-25.638 12.899-30.198 4.632-1.716-.302-8.312-2.835-2.516-2.977 6.808-14.711 22.617-14.072 30.261.143 1.75 2.41 3.068 4.007 2.453z" style="fill:url(#a)"/><linearGradient id="b" x1="36.272" x2="36.272" y1="52.274" y2="40.581" gradientUnits="userSpaceOnUse"><stop offset="0" style="stop-color:#f2c68c"/><stop offset=".119" style="stop-color:#ecc188"/><stop offset=".281" style="stop-color:#dbb27f"/><stop offset=".467" style="stop-color:#be9a6e"/><stop offset=".671" style="stop-color:#977858"/><stop offset=".887" style="stop-color:#644d3b"/><stop offset="1" style="stop-color:#47342a"/></linearGradient><path d="M16.814 49.997s3.604 3.447 11.788 1.859C40.744 49.5 50.36 49.712 54.19 46.944c4.258-3.076 2.004-9.292-37.377-4.765v7.818z" style="fill:url(#b)"/><linearGradient id="c" x1="23.796" x2="23.796" y1="52.699" y2="39.532" gradientUnits="userSpaceOnUse"><stop offset="0" style="stop-color:#47342a;stop-opacity:0"/><stop offset="1" style="stop-color:#47342a;stop-opacity:.6"/></linearGradient><path d="M21.578 51.105c1.445-.001 2.889.015 4.333.03a52.372 52.372 0 0 0-.15-11.603H21.43c.486 3.837.521 7.723.15 11.573z" style="fill:url(#c)"/><linearGradient id="d" x1="29.427" x2="29.427" y1="51.568" y2="39.532" gradientUnits="userSpaceOnUse"><stop offset="0" style="stop-color:#47342a;stop-opacity:0"/><stop offset="1" style="stop-color:#47342a;stop-opacity:.6"/></linearGradient><path d="M27.167 51.568a32.813 32.813 0 0 1 4.439-1.105 52.34 52.34 0 0 0-.213-10.93H27.06c.507 3.99.527 8.034.107 12.035z" style="fill:url(#d)"/><linearGradient id="e" x1="35.059" x2="35.059" y1="50.93" y2="39.532" gradientUnits="userSpaceOnUse"><stop offset="0" style="stop-color:#47342a;stop-opacity:0"/><stop offset="1" style="stop-color:#47342a;stop-opacity:.6"/></linearGradient><path d="M32.859 50.93c1.425-.363 2.94-.555 4.404-.76a52.206 52.206 0 0 0-.238-10.638H32.69c.48 3.779.52 7.606.168 11.398z" style="fill:url(#e)"/><linearGradient id="f" x1="40.693" x2="40.693" y1="49.877" y2="39.532" gradientUnits="userSpaceOnUse"><stop offset="0" style="stop-color:#47342a;stop-opacity:0"/><stop offset="1" style="stop-color:#47342a;stop-opacity:.6"/></linearGradient><path d="M38.589 49.877a36.383 36.383 0 0 1 4.387-.762 52.3 52.3 0 0 0-.322-9.583H38.32c.436 3.43.518 6.899.268 10.345z" style="fill:url(#f)"/><linearGradient id="g" x1="46.316" x2="46.316" y1="48.926" y2="39.532" gradientUnits="userSpaceOnUse"><stop offset="0" style="stop-color:#47342a;stop-opacity:0"/><stop offset="1" style="stop-color:#47342a;stop-opacity:.6"/></linearGradient><path d="M44.28 48.926s2.684-.218 4.357-.78a52.143 52.143 0 0 0-.352-8.614h-4.333c.395 3.114.497 6.26.328 9.394z" style="fill:url(#g)"/><linearGradient id="h" x1="51.955" x2="51.955" y1="48.313" y2="39.532" gradientUnits="userSpaceOnUse"><stop offset="0" style="stop-color:#47342a;stop-opacity:0"/><stop offset="1" style="stop-color:#47342a;stop-opacity:.6"/></linearGradient><path d="M49.93 48.313s2.817-.665 4.396-1.98a52.093 52.093 0 0 0-.41-6.8h-4.333c.37 2.91.471 5.85.348 8.78z" style="fill:url(#h)"/><path d="M52.964 46.364c.142.596-1.27.962-1.406.366-.148-.596 1.267-.962 1.406-.366zM47.4 47.75c.141.597-1.27.961-1.406.367-.149-.597 1.266-.962 1.407-.367zm-5.776.714c.142.597-1.27.961-1.406.366-.149-.596 1.267-.962 1.406-.366zm-5.66.766c.142.596-1.27.96-1.406.365-.149-.596 1.266-.962 1.406-.365z" style="opacity:.3;fill:#1a1626"/><path d="M9.62 39.177C8.213 36.133 3.355 19.66 2 11.739c1.134 10.736 6.166 24.243 7.277 27.73.037.11.39-.189.342-.292z" style="fill:#deac6d"/><path d="M6.586 54.37c-2.146.498-2.953 1.933-2.675 2.28.21.265 1.41-1.446 3.415-1.313.275.015-.311-1.07-.74-.968z" style="fill:#a37d56"/><path d="M7.444 55.555c2.15-4.16 2.31-7.049 1.578-7.547-1.258-.862.004 2.426-2.453 6.126-.224.336.718 1.73.875 1.421z" style="fill:#916f4c"/><linearGradient id="i" x1="40.537" x2="40.942" y1="43.583" y2="31.125" gradientUnits="userSpaceOnUse"><stop offset="0" style="stop-color:#47342a"/><stop offset=".173" style="stop-color:#5b4433"/><stop offset=".53" style="stop-color:#906e4a"/><stop offset="1" style="stop-color:#deac6d"/></linearGradient><path d="M20.418 42.03s30.559 2.79 37.78 1.496c4.632-.83 4.287-5.069 2.847-5.157-9.68-.589-29.63-4.555-41.68-.098l1.053 3.758z" style="fill:url(#i)"/><linearGradient id="j" x1="18.592" x2="18.592" y1="50.842" y2="36.211" gradientUnits="userSpaceOnUse"><stop offset="0" style="stop-color:#47342a"/><stop offset=".173" style="stop-color:#5b4433"/><stop offset=".53" style="stop-color:#906e4a"/><stop offset="1" style="stop-color:#deac6d"/></linearGradient><path d="M10.948 38.127c2.724-1.225 6.237-2.193 14.418-1.845.371.017.757.062.808.404.178 1.249.256 4.638-3.887 5.56-.6.135-1.822.006-1.964 1.506-.143 1.5.735 4.075-.96 6.243-1.49 1.905-5.1 0-5.1 0s.558-5.372-3.315-11.868z" style="fill:url(#j)"/><linearGradient id="k" x1="11.363" x2="11.363" y1="52.354" y2="37.652" gradientUnits="userSpaceOnUse"><stop offset="0" style="stop-color:#47342a"/><stop offset=".079" style="stop-color:#574031"/><stop offset=".394" style="stop-color:#906e4b"/><stop offset=".663" style="stop-color:#bb905d"/><stop offset=".874" style="stop-color:#d4a469"/><stop offset="1" style="stop-color:#deac6d"/></linearGradient><path d="M15.625 40.524c-.315-1.24-1.353-2.273-2.684-2.633-1.982-.532-4.813-.48-6.126 3.436-2.124 6.353 3.903 10.644 5.285 10.997 1.377.354 3.819-2.49 3.819-2.49s1.163-3.588-.294-9.31z" style="fill:url(#k)"/><path d="M9.946 39.373C8.431 35.63 3.642 15.573 2.56 6c.587 12.924 5.819 29.444 6.937 33.697.036.134.502-.195.45-.324z" style="fill:#deac6d"/><path d="M10.823 59.439c-2.083.71-2.749 2.219-2.44 2.539.232.242 1.265-1.582 3.271-1.652.272-.011-.41-1.034-.83-.887z" style="fill:#a37d56"/><path d="M11.791 60.534c1.743-4.36 1.629-7.256.853-7.68-1.332-.733.234 2.418-1.858 6.35-.19.358.877 1.654 1.005 1.33z" style="fill:#916f4c"/><path d="M12.493 52.108c2.09-.971 5.125-4.903 7.143-3.118.389.343-.223 1.128-.501 1.354-2.087 1.704-4.07 1.114-6.125 3-.62.57-1.735-.67-.517-1.236z" style="fill:#826344"/><path d="M46.026 46.192c1.683-.543 2.567-.304-.059-1.542-.93-.437-.9 1.85.059 1.542z" style="fill:#bd9a77"/><path d="M46.013 44.31c1.684-.543 2.568-.303-.059-1.541-.93-.437-.9 1.85.059 1.542zm.101-3.501c1.685-.544 2.569-.304-.058-1.542-.93-.437-.9 1.85.059 1.542z" style="fill:#bd9a77"/><path d="M46.114 39.083c1.685-.544 2.569-.304-.058-1.542-.93-.436-.9 1.85.059 1.542zm.391-3.117c1.685-.544 2.57-.305-.058-1.543-.93-.437-.899 1.852.058 1.543z" style="fill:#bd9a77"/><path d="M46.505 34.339c1.685-.543 2.57-.304-.058-1.542-.93-.436-.899 1.85.058 1.542zm.373-3.641c1.685-.544 2.57-.303-.058-1.542-.93-.437-.899 1.851.058 1.542zm.305-4.25c1.684-.544 2.568-.303-.059-1.542-.93-.437-.9 1.85.059 1.542z" style="fill:#bd9a77"/><path d="M46.294 52.846c4.35.234 6.666 2.536 6.331 3.24-.254.531-4.157-2.456-7.901-1.613-.508.115.693-1.674 1.57-1.627z" style="fill:#a37d56"/><path d="M43.894 53.884c-.226-23.194 1.957-35.792 3.402-37.26 2.486-2.528-1.778 14.133-.765 35.495.091 1.934-2.62 3.485-2.637 1.765z" style="fill:#916f4c"/><linearGradient id="l" x1="34.023" x2="42.454" y1="30.595" y2="34.728" gradientUnits="userSpaceOnUse"><stop offset="0" style="stop-color:#47342a"/><stop offset=".173" style="stop-color:#5b4433"/><stop offset=".53" style="stop-color:#906e4a"/><stop offset="1" style="stop-color:#deac6d"/></linearGradient><path d="M32.96 50.09c9.53-13.897 7.624-25.618 13.528-30.179 4.633-1.716-.301-8.311-2.834-2.516-2.979 6.808-15.668 23.787-15.029 31.432.144 1.748 2.74 1.88 4.335 1.263z" style="fill:url(#l)"/><path d="M34.759 60.032c3.485-.623 5.616.975 5.438 1.665-.136.52-3.612-1.386-6.481.079-.39.198.34-1.617 1.043-1.744z" style="fill:#a37d56"/><path d="M33.27 61.857c-2.8-7.01-2.619-11.663-1.37-12.347 2.141-1.176-.378 3.888 2.988 10.212.304.573-1.41 2.654-1.617 2.135z" style="fill:#916f4c"/><path d="M31.991 49.15c-3.181.312-9.585-2.303-10.736 1.312-.22.698 1.065 1.215 1.56 1.292 3.695.58 5.648-1.556 9.434-.73 1.145.25 1.6-2.057-.258-1.873z" style="fill:#826344"/><radialGradient id="m" cx="-72.136" cy="42.944" r="2.563" gradientTransform="matrix(.7978 -.001 .0765 1.0117 66.757 1.18)" gradientUnits="userSpaceOnUse"><stop offset="0" style="stop-color:#7a5142"/><stop offset=".214" style="stop-color:#704c40"/><stop offset=".582" style="stop-color:#543f39"/><stop offset="1" style="stop-color:#2d2d30"/></radialGradient><path d="M10.468 40.947c-.668.958-.613 2.435.127 3.3.638.75 1.881.797 2.551-.162.67-.956.398-2.688-.125-3.302-.74-.866-1.88-.794-2.553.164z" style="fill:url(#m)"/><path d="M11.588 40.583c.545-.035.99.357.993.871.004.515-.435.959-.98.993-.545.035-.99-.354-.993-.87-.004-.514.435-.96.98-.994z" style="opacity:.3;fill:#ffc2a6"/></svg>