<svg xmlns="http://www.w3.org/2000/svg" xml:space="preserve" viewBox="0 0 64 64"><path fill="#D19754" d="M40.489 39.778c2.745 4.048 3.354 9.288 4.442 10.472.33.358-.252 1.193-.08 2.056.182.909-2.21 8.592-2.834 9.86-.198.408 2.386 1.191 2.386 1.191-.171-1.599.86-1.188.245-2.304-.416-.758 1.131-4.884 2.753-8.099.953-1.89-1.224-3.305-.294-13.531.162-1.778-8.276-2.088-6.618.355zm-18.835-.821c2.015 5.085 1.241 10.05 1.919 11.786.252.64-.167.85-.048 1.941.213 1.945-.985 8.214-1.606 9.481-.201.411 2.384 1.191 2.384 1.191-.526-1.382.193-1.571-.018-2.275-.297-.979.211-4.985 1.568-8.126.955-.994.198-1.567.296-2.161.314-1.996-.072-9.087.828-12.562 1.522-5.884-7.959-5.929-5.323.725z"/><path fill="#C48845" d="M25.447 46.395c-.209.065-.951.042-.951.042s.321.886.526.872c.227-.014.926.102.784-.07-.181-.217-.096-.926-.359-.844z"/><path fill="#B37C3F" d="M23.077 41.488c.229-.014.926.26.784.088-.185-.217-.108-1.553-.37-1.473-.209.067-.953.045-.953.045s.332 1.355.539 1.34zm.987 2.223c-.18-.215-.108-1.551-.37-1.471-.207.065-.951.043-.951.043s.334 1.355.539 1.342c.229-.014.924.259.782.086zm1.747-.772c-.209.065-1.5-.467-1.5-.467s.175 1.533.382 1.518c.229-.012 1.482.209 1.341.039-.185-.218.041-1.171-.223-1.09zm.182-.409c.454-.116.779-1.562.612-1.956-.205-.499-1.979-.918-2.166-.868-.545.153-.233 2.147-.233 2.147s1.364.789 1.787.677z"/><path fill="#C48845" d="M23.758 44.202c-.546.154.334 1.546.334 1.546s1.11.439 1.529.328c.458-.114.467-.61.304-1.005-.205-.501-1.982-.919-2.167-.869zm21.827 1.571c-.241.088-1.122.14-1.122.14s.483.848.725.813c.267-.037 1.112.007.923-.15-.244-.196-.227-.908-.526-.803z"/><path fill="#B37C3F" d="M42.197 41.135c.269-.036 1.126.164.939.007-.243-.196-.311-1.532-.615-1.427-.239.088-1.118.141-1.118.141s.551 1.314.794 1.279zm1.433 2.111c-.239-.197-.311-1.534-.611-1.427-.241.086-1.121.14-1.121.14s.554 1.313.796 1.28c.27-.037 1.126.162.936.007zm1.974-.944c-.238.085-1.828-.313-1.828-.313s.387 1.506.628 1.47c.269-.035 1.783.059 1.593-.096-.243-.201-.09-1.17-.393-1.061zm.167-.426c.524-.162.738-1.634.497-2.009-.305-.475-2.453-.712-2.669-.644-.625.208-.022 2.16-.022 2.16s1.708.647 2.194.493z"/><path fill="#C48845" d="M43.325 43.765c-.628.209.579 1.502.579 1.502s1.363.327 1.846.174c.529-.162.482-.655.244-1.029-.306-.478-2.455-.717-2.669-.647z"/><path fill="#8C5730" d="M34.269 27.679c-3.184-.895-2.947-3.853-4.493-4.656a9.246 9.246 0 0 1-1.873-1.261l-.203.105.121-.169c-.049-.043-.085-.091-.134-.135l-.177.097.031-.25a6.702 6.702 0 0 1-.971-1.217l-.271.042.221-.125c-.028-.044-.049-.092-.074-.138l-.29.061.223-.196c-.018-.03-.034-.062-.054-.095l-.323.1.25-.244c-.009-.019-.02-.033-.027-.051l-.301.141.156-.43c-.361-.813-.623-1.713-.886-2.706h-.473l.431-.156c-.011-.041-.021-.082-.033-.12h-.489l.445-.17c-.011-.04-.021-.085-.033-.125h-.412l.384-.107-.021-.08h-.577l.516-.237a40.627 40.627 0 0 0-.941-3.146l-.194.056.156-.157c-.029-.087-.063-.176-.096-.263l-.594.057.519-.265c-.016-.038-.028-.074-.041-.111l-.526.099.434-.347a27.442 27.442 0 0 0-.852-1.953l-.408.257.341-.394c-.072-.147-.154-.3-.229-.451l-.343.142.267-.286-.12-.238-.468.203.414-.309a32.419 32.419 0 0 0-2.381-3.785l-3.062 2.04c6.003 9.316.904 15.245 5.807 24.806 1.864 3.634 24.525-.228 11.654-3.833z"/><linearGradient id="a" x1="26.768" x2="26.768" y1="33.37" y2="5.144" gradientUnits="userSpaceOnUse"><stop offset=".242" style="stop-color:#ffd494"/><stop offset=".387" style="stop-color:#facd8c"/><stop offset=".613" style="stop-color:#eeba75"/><stop offset=".891" style="stop-color:#da9c51"/><stop offset="1" style="stop-color:#d18e41"/></linearGradient><path fill="url(#a)" d="M28.784 23.195c-6.42-3.33-2.811-8.06-10.064-18.052l-3.06 2.042c5.998 9.316.9 15.244 5.804 24.804 1.867 3.637 25.458-.656 12.588-4.264-3.185-.892-3.725-3.726-5.268-4.53z"/><linearGradient id="b" x1="34.558" x2="34.558" y1="42.46" y2="25.339" gradientUnits="userSpaceOnUse"><stop offset="0" style="stop-color:#ffecd4"/><stop offset=".037" style="stop-color:#ffe8c9"/><stop offset=".137" style="stop-color:#ffdfb2"/><stop offset=".244" style="stop-color:#ffd9a1"/><stop offset=".361" style="stop-color:#ffd597"/><stop offset=".509" style="stop-color:#ffd494"/></linearGradient><path fill="url(#b)" d="M23.227 39.706c4.137-.004 5.988 3.593 12.027 2.571 3.939-.668 14.713-5.577 13.314-8.962-1.813-4.378-6.134-6.083-9.054-6.567-2.573-.426-7.868-.15-10.477-.379-2.409-.215-7.595-3.651-8.372 3.354-.544 4.945-.362 9.987 2.562 9.983z"/><linearGradient id="c" x1="27.766" x2="27.766" y1="63.357" y2="30.69" gradientUnits="userSpaceOnUse"><stop offset=".127" style="stop-color:#d18e41"/><stop offset=".758" style="stop-color:#ffd494"/></linearGradient><path fill="url(#c)" d="M23.275 38.661c4.146 5.034 6.48 11.175 6.798 12.574-.167 1.351.849 1.413 1.145 1.905.74 1.229.713 7.758.096 9.025-.203.411 2.385 1.191 2.385 1.191-.375-1.815.755-1.343.057-2.548-.704-1.219-.548-4.544-.768-7.854.401-1.784-.584-2.44-1.14-3.412-.96-1.676-1.814-7.873-1.393-11.033 1.67-12.512-14.011-8.15-7.18.152z"/><linearGradient id="d" x1="49.304" x2="49.304" y1="55.793" y2="31.547" gradientUnits="userSpaceOnUse"><stop offset=".382" style="stop-color:#593c2f"/><stop offset=".489" style="stop-color:#785134"/><stop offset=".642" style="stop-color:#9f6c39"/><stop offset=".783" style="stop-color:#ba7e3e"/><stop offset=".907" style="stop-color:#cb8a40"/><stop offset="1" style="stop-color:#d18e41"/></linearGradient><path fill="url(#d)" d="M51.71 45.735c-1.272-3.201-.835-9.528-4.097-14.189-4.671.787 3.685 6.543 3.002 14.746-.445 5.384.399 2.951.294 9.501 2.141-5.952 1.616-8.013.801-10.058z"/><path fill="#593C2F" d="M51.697 49.574c-.356-.599-.73 1.853-1.289 5.412 1.898-3.058 1.954-4.291 1.289-5.412z"/><path fill="#593C2F" d="M51.563 48.938c-.357-.598-.731 1.853-1.287 5.412 1.894-3.06 1.952-4.291 1.287-5.412z"/><linearGradient id="e" x1="45.9" x2="45.9" y1="63.357" y2="29.315" gradientUnits="userSpaceOnUse"><stop offset=".127" style="stop-color:#d18e41"/><stop offset=".758" style="stop-color:#ffd494"/></linearGradient><path fill="url(#e)" d="M41.411 36.99c4.333 5.677 5.35 10.892 6.943 12.494 1.124 1.128 2.119 3.01 2.415 3.501.74 1.232.216 7.913-.405 9.181-.203.411 2.383 1.191 2.383 1.191-.507-1.762.583-1.191.148-2.331-.292-.757-.324-5.104-.352-8.225.953-2.481-.195-2.646-.733-3.631-3.728-6.813-.482-15.039-5.974-18.997-1.543-1.114-11.73-2.749-4.425 6.817z"/><path fill="#D18E41" d="M24.721 2.343c-.868.18-2.734.501-5.029 1.712.307.455 1.23 1.678 1.457 1.663 3.362.407 4.768-3.622 3.572-3.375z"/><linearGradient id="f" x1="21.611" x2="24.137" y1="3.297" y2="4.755" gradientUnits="userSpaceOnUse"><stop offset="0" style="stop-color:#806052"/><stop offset=".041" style="stop-color:#8c6c5b"/><stop offset=".195" style="stop-color:#b59378"/><stop offset=".346" style="stop-color:#d5b28f"/><stop offset=".491" style="stop-color:#ecc8a0"/><stop offset=".627" style="stop-color:#fad5aa"/><stop offset=".746" style="stop-color:#ffdaad"/></linearGradient><path fill="url(#f)" d="M24.574 2.469c-4.578 1.162-4.001 3.187-3.502 3.159 3.28.391 4.72-3.466 3.502-3.159z"/><path fill="#D18E41" d="M11.422 2.343c.87.18 2.734.501 5.03 1.712-.311.455-1.232 1.678-1.457 1.663-3.366.407-4.771-3.622-3.573-3.375z"/><linearGradient id="g" x1="12.005" x2="14.531" y1="4.755" y2="3.297" gradientUnits="userSpaceOnUse"><stop offset=".255" style="stop-color:#ffdaad"/><stop offset=".373" style="stop-color:#fad5aa"/><stop offset=".509" style="stop-color:#ecc8a0"/><stop offset=".654" style="stop-color:#d5b28f"/><stop offset=".805" style="stop-color:#b59378"/><stop offset=".959" style="stop-color:#8c6c5b"/><stop offset="1" style="stop-color:#806052"/></linearGradient><path fill="url(#g)" d="M11.567 2.469c4.576 1.162 4.004 3.187 3.504 3.159-3.281.391-4.72-3.466-3.504-3.159z"/><linearGradient id="h" x1="18.072" x2="18.072" y1="4.662" y2="0" gradientUnits="userSpaceOnUse"><stop offset=".194" style="stop-color:#d18e41"/><stop offset=".405" style="stop-color:#cf8c41"/><stop offset=".511" style="stop-color:#c78740"/><stop offset=".595" style="stop-color:#ba7e3e"/><stop offset=".666" style="stop-color:#a7713b"/><stop offset=".73" style="stop-color:#8e6137"/><stop offset=".787" style="stop-color:#714c33"/><stop offset=".824" style="stop-color:#593c2f"/></linearGradient><path fill="url(#h)" d="M20.277.326c0-.435-1.125-.435-1.125 0 0 1.62-.585 2.209-1.078 2.209-.497 0-1.083-.589-1.083-2.209 0-.435-1.124-.435-1.124 0 0 1.928-.807 2.262.365 3.738.626.797 3.052.797 3.682 0 1.169-1.477.363-1.812.363-3.738z"/><linearGradient id="i" x1="32.722" x2="32.722" y1="11.783" y2="1.898" gradientTransform="matrix(.9269 0 0 .9937 -12.26 1.077)" gradientUnits="userSpaceOnUse"><stop offset=".242" style="stop-color:#ffd494"/><stop offset=".387" style="stop-color:#facd8c"/><stop offset=".613" style="stop-color:#eeba75"/><stop offset=".891" style="stop-color:#da9c51"/><stop offset="1" style="stop-color:#d18e41"/></linearGradient><path fill="url(#i)" d="M21.538 3.753c-1.054-.632-2.515-.791-3.469-.791-.951 0-2.414.159-3.468.791.326.379 0 .683.563 1.144-1.46 2.685.34 4.414.861 5.467.361.726-.095 2.421 2.044 2.421 2.143 0 1.686-1.695 2.048-2.421.525-1.053 2.323-2.782.859-5.467.562-.461.236-.765.562-1.144z"/><path fill="#FFDAAD" d="M20.977 4.897c-1.979.346-2.907 3.439-.859 5.467.525-1.053 2.409-2.842.859-5.467zm-5.813 0c1.981.346 2.905 3.439.861 5.467-.521-1.053-2.408-2.842-.861-5.467z"/><path fill="#302C3B" d="M19.394 10.488c.161-.614-1.126.254-.951.643.473-.421.879-.364.951-.643zm-2.646 0c-.16-.614 1.129.254.951.643-.472-.421-.877-.364-.951-.643z"/><path fill="#D18E41" d="M19.571 7.442c.666-.483 1.55 1.336.877 1.27-.641-.064-.558 1.125-.928.322-.272-.586-.33-1.316.051-1.592z"/><path fill="#D18E41" d="M21.507 7.446c-.028.844-.644 1.709-.644 1.709.512-1.24-.514-1.645-.343-2.053.129-.309.995.053.987.344zm-.779 1.918-.486.778c-.378-.31-.325-.734-.019-1.056.23-.244.661.03.505.278zm-4.155-1.922c-.668-.483-1.553 1.336-.877 1.27.64-.064.556 1.125.926.322.273-.586.331-1.316-.049-1.592z"/><path fill="#D18E41" d="M14.638 7.446c.025.844.642 1.709.642 1.709-.511-1.24.516-1.645.345-2.053-.132-.309-.998.053-.987.344zm.777 1.918.488.778c.376-.31.327-.734.019-1.056-.231-.244-.664.03-.507.278z"/><path fill="#302C3B" d="M20.368 6.891c-.102.521.144.995.552 1.06.404.064.819-.305.921-.826.101-.522-.145-.996-.55-1.063-.407-.062-.821.308-.923.829z"/><path fill="#6E8189" d="M21.718 6.582c0 .314-.479.314-.479 0s.479-.315.479 0z"/><path fill="#8C5730" d="M22.313 6.227c-.435-.079-.476-.348-.928-.348-.409 0-.998.297-1.041 1.208.299-.943 1.357-.452 1.969-.86z"/><path fill="#302C3B" d="M15.776 6.891c.1.521-.146.995-.552 1.06-.409.064-.817-.305-.923-.826-.104-.522.146-.996.552-1.063.408-.062.82.308.923.829z"/><path fill="#6E8189" d="M14.425 6.582c0 .314.481.314.481 0s-.481-.315-.481 0z"/><path fill="#8C5730" d="M13.828 6.227c.436-.079.476-.348.928-.348.41 0 .999.297 1.044 1.208-.299-.943-1.359-.452-1.972-.86z"/><path fill="#A66739" d="M18.069 3.792c-1.135 0-2.095.244-1.501.596 1.203.713 1.501 3.126 1.501 3.126s.304-2.413 1.502-3.126c.594-.352-.359-.596-1.502-.596z"/><path fill="#302C3B" d="M19.214 11.979a3.229 3.229 0 0 1-2.283 0c-.102-.039-.114.036-.083.07.564.616 1.885.616 2.449 0 .029-.034.018-.109-.083-.07z"/><path fill="#A66739" d="M21.604 9.851s-1.284 2.49-1.292 2.934c-.016.665 1.003 2.708 1.227 2.605.432-.195 1.771-.964 1.752-1.368-.531-2.055-1.687-4.171-1.687-4.171zm.315 6.39c.2-.301 1.617-1.42 1.617-1.42s.943 3.225 1.399 4.437c.114.312-1.045.676-1.239.807-.18.122-1.768-.608-1.911-1.014-.156-.447-.084-2.487.134-2.81zm1.926 4.488c.198-.299 1.366-.898 1.366-.898s.701 1.371 2.254 2.564c.274.211-.851 1.176-1.043 1.307-.182.122-2.379-.167-2.379-.167s-.419-2.483-.198-2.806zm3.089 3.397c.198-.299 1.123-1.34 1.123-1.34s1.763.65 2.772 2.664c.15.299-.582.935-.777 1.064-.18.122-2.228-.762-2.228-.762s-1.11-1.3-.89-1.626zm3.433 2.919c.202-.252.901-1.066.901-1.066s.33.428 3.303.5c.357.01-.687 1.81-.882 1.92-.178.104-2.321.259-2.321.259s-1.215-1.336-1.001-1.613zm4.219 1.146c.142-.261.708-1.695.708-1.695s1.646-.079 3.396.124c.334.041-.361 2.031-.525 2.163-.152.121-1.847.532-1.847.532s-1.89-.842-1.732-1.124zm4.116.515c.142-.261.646-1.983.646-1.983s1.764.253 3.355.948c.317.106-.681 2.154-.846 2.285-.152.121-3.311-.97-3.155-1.25zm3.88.981c.145-.26.765-1.725.765-1.725s1.416.524 2.842 1.927c-.152.121-1.166 1.328-1.546 1.293-.403-.034-2.219-1.214-2.061-1.495zm-7.52 4.464c1.004-.238.989-1.062 1.952-1.089.615-.018.968 1.435 3.396 2.393.488.193-1.903.852-2.286.817-.402-.035-3.395-2.041-3.062-2.121zm-10.917-9.693c.143-.26 2.146-.239 2.146-.239s.942 1.383.855 1.76c-.101.471-1.596.328-1.979.294-.4-.035-1.179-1.532-1.022-1.815zm4.432 3.763c.144-.26 1.242-.573 1.242-.573s1.229 1.726 1.145 2.104c-.105.471-1.937 1.174-2.319 1.14-.402-.036-.225-2.39-.068-2.671zm15.886 8.448c.144-.26 1.153-.979 1.153-.979s3.361.882 3.278 1.259c-.105.472-1.789 1.731-2.172 1.696-.401-.035-2.416-1.695-2.259-1.976zm-12.818-7.19c.142-.26 2.511-.591 2.511-.591s1.767.862 1.683 1.239c-.104.472-1.081 1.584-1.463 1.549-.403-.035-2.886-1.915-2.731-2.197zm13.145 6.209c-.136.294-2.696 1.654-2.696 1.654s-1.236-1.209-1.164-1.641c.091-.539 1.037-1.792 1.422-1.743.407.053 2.588 1.408 2.438 1.73zm-7.128-2.903c.143-.26 2.511-.591 2.511-.591s1.765.863 1.681 1.241c-.104.472-1.081 1.584-1.463 1.549-.403-.036-2.885-1.916-2.729-2.199z"/><path fill="#D19964" d="M37.887 36.886c.135-.256 2.392-.569 2.392-.569s1.372 1.106 1.296 1.48c-.098.464-.702 1.32-1.067 1.284-.384-.038-2.77-1.916-2.621-2.195z"/><path fill="#A66739" d="M36.347 30.198c.062-.288 1.861-.883 1.861-.883s3.02 1.082 3.085 1.463c.133.759-4.954 1.625-5.335 1.688-.397.065.323-1.96.389-2.268zm-5.155 6.016c.009-.394 3.43-1.621 3.11-1.456 0 0 3.03 1.744 3.185 2.284.302 1.075-5.511 1.396-5.914 1.414-.421.02-.389-1.824-.381-2.242zm-9.235-15.658c.146-.26 1.264.153 1.264.153s.285 1.858.201 2.235c-.102.471-2.513-.535-2.918-.813-.326-.219 1.299-1.294 1.453-1.575zm-.106 2.866c.14-.188 1.731.427 1.731.427s.18 1.303.089 1.573c-.116.335-1.524-.161-1.881-.344-.286-.143-.091-1.452.061-1.656zm-2.358-7.276c.104-.18 1.737-.173 1.836.131.074.223-.278 1.139-.34 1.404-.075.328-1.139.301-1.431.108-.232-.154-.179-1.444-.065-1.643zm2.21 3.801c-.036.134-1.542 2.004-1.872 1.823-.488-.268-.169-2.984-.175-3.167-.007-.225 1.131-.182 1.353-.098.178.065.734 1.296.694 1.442zm1.735 8.94c-1.251-.291-1.79-2.915-1.639-3.153.192-.297 2.394.688 2.671.944.217.205-.78 2.268-1.032 2.209zm-2.282-4.118c-.038.135-1.231-.623-1.231-.623s-.127-1.286-.134-1.466c-.006-.227 1.093.238 1.314.321.178.067.092 1.624.051 1.768zm7.201 3.068c-.157.079-1.346-.859-1.346-.859s.599-.414.732-.547c.16-.164 1.114.266 1.372.416.203.119-.591.9-.758.99zm3.189 4.46c-.223.088-1.863-1.005-1.863-1.005s1.402-.8 1.62-.977c.276-.221 1.164.729 1.384 1.038.173.245-.901.85-1.141.944zm2.313 2.211c-.104.114-2.221.72-2.221.72s.572-.978.688-1.533c.047-.232.722-.16.938-.013.175.114.714.702.595.826zm.469-.675c-.229.066-2.117-1.234-2.117-1.234s.78-.961 1-1.139c.275-.22.58.642 2.115.871.313.045.349 1.118-.998 1.502zm10.471.971c-.223.089-1.319-.969-1.319-.969s.977-1.045 1.196-1.223c.275-.219 1.164.73 1.384 1.039.17.244-1.018 1.058-1.261 1.153zm1.172 8.583c-.242-.001-.511-1.016-.511-1.016s3.625-1.719 3.843-1.897c.274-.219-.142.943.194 1.497.152.255-2.028 1.422-3.526 1.416zm-1.838-3.617c-.22.089-1.567-1.998-1.567-1.998s1.043-.566 1.263-.744c.277-.22 1.239 1.213 1.457 1.521.174.243-.908 1.126-1.153 1.221z"/><path fill="#BF7B3B" d="M48.714 44.682c-.22.088-.663-1.299-.663-1.299s1.221-.606 1.44-.784c.272-.22.258 1.003.476 1.313.173.242-1.007.675-1.253.77z"/><path fill="#D99545" d="M49.294 48.632c-.22.088-.939-1.679-.939-1.679s1.494-.227 1.714-.405c.274-.219.26 1.003.478 1.313.172.243-1.01.676-1.253.771z"/><path fill="#CC833F" d="M49.417 46.481c-.224.089-.667-1.298-.667-1.298s.805-.201 1.024-.38c.274-.219.26 1.002.478 1.313.173.244-.594.273-.835.365z"/><path fill="#BF7B3B" d="M46.666 44.898c-.158.063-.472-.921-.472-.921s1.305-.204 1.459-.331c.194-.155.184.711.34.93.123.173-1.154.255-1.327.322z"/><path fill="#CC833F" d="M47.739 46.818c-.147.042-.859-1.411-.859-1.411s1.264-.287 1.407-.382c.18-.116.566 1.218.734 1.407.131.15-1.117.341-1.282.386z"/><path fill="#E8AD69" d="M29.897 48.066c-.147.043-.523-.786-.523-.786s.549-.082.693-.178c.177-.116.228.596.396.783.132.151-.4.136-.566.181z"/><path fill="#E8A456" d="M50.508 49.914c-.148.042-.524-1.202-.524-1.202s.55-.084.691-.178c.182-.117.249.826.416 1.017.131.147-.418.319-.583.363zm-1.235.205c-.15.043-.523-.784-.523-.784s.811-.384.95-.478c.184-.116.271.815.438 1.004.131.151-.7.215-.865.258z"/><path fill="#D99545" d="M48.401 49.099c-.15.044-1-1.657-1-1.657s.55-.084.689-.178c.182-.117.706 1.468.874 1.656.132.149-.398.134-.563.179z"/><path fill="#E8A456" d="M50.66 51.096c-.148.043-.522-.784-.522-.784s.548-.085.691-.179c.18-.116.229.595.396.784.13.149-.398.135-.565.179z"/><path fill="#CC833F" d="M27.558 42.597c-.149.041-.605-1.249-.605-1.249s.549-.082.692-.177c.178-.116.334 1.212.501 1.401.13.149-.423-.022-.588.025z"/><path fill="#D99545" d="M28.044 44.675c-.147.042-.606-1.248-.606-1.248s.55-.082.693-.178c.18-.116.334 1.213.499 1.402.131.149-.421-.022-.586.024z"/><path fill="#A66739" d="M22.273 39.285c-.547-.203-1.239-1.313-1.239-1.313s1.094-.066 1.239-.162c.18-.116 1.093 1.592 1.258 1.781.134.148-1.031-.225-1.258-.306zm-1.413-1.808c-.109-.102-.336-1.753-.336-1.753s.927.368 1.021.645c.16.474.445.781.612.97.134.148-1.123.298-1.297.138zm-.38-2.249c-.11-.101-.053-2.021-.053-2.021s.927.864.939 1.026c.044.493.156 1.002.287 1.396.063.184-1.002-.24-1.173-.401zm-.04-2.494c-.11-.101.082-2.915.182-2.581.144.478.616 2.823.745 3.219.064.183-.754-.478-.927-.638z"/><path fill="#D99545" d="M29.135 44.837c-.15.044-.518-1.444-.518-1.444s1.031.344 1.173.248c.18-.117.167.856.334 1.046.131.147-.824.107-.989.15z"/><path fill="#A66739" d="M45.907 41.643c-.223.089-1.246-1.358-1.246-1.358s.911-1.068 1.132-1.247c.277-.219 2.177 1.018 2.395 1.326.175.243-2.038 1.183-2.281 1.279zm3.005-1.611c-.221.089-1.443-1.146-1.443-1.146s1.367-1.338 1.585-1.516c.276-.22.481.85.541 1.552.027.292-.438 1.016-.683 1.11zm.249-3.822c-.224.088-3.701-1.19-3.701-1.19s.785-.812 1.008-.989c.272-.219 1.974-.201 1.974-.201s.534 1.191.719 2.38zm-6.371-2.822c-.221.09-1.998-1.644-1.998-1.644s1.002-.441 1.338-1.217c.136-.311 2.094.982 2.312 1.29.172.246-1.409 1.477-1.652 1.571zM27.723 31.1c-.289.169-3.825-.878-3.825-.878s1.085-2.722 1.388-3.03c.374-.383 2.446.81 2.672 1.273.184.366.084 2.456-.235 2.635zm-1.092 2.821c-.291.17-2.816-1.523-2.816-1.523s-.142-.98.156-1.287c.379-.382 2.682.331 2.91.796.182.365.065 1.837-.25 2.014zm3.404 4.096c-.292.169-2.88-1.988-2.88-1.988s-.302-1.465 0-1.773c.375-.381 2.958 1.214 3.187 1.678.184.364.011 1.905-.307 2.083zm-3.571-1.906c-.291.169-1.964-.749-1.964-.749s-.301-1.464 0-1.772c.377-.382 1.731.752 1.96 1.216.182.366.319 1.127.004 1.305zM22.84 29.54c-.291.168-1.825.425-1.825.425s-1.006-1.758-.706-2.067c.379-.382 1.648-.018 1.879.448.181.364.969 1.015.652 1.194zm-1.391-2.22c-.293.167-1.328-.036-1.328-.036s-.332-1.973-.131-2.344c.084-.156 1.224.329 1.224.685 0 .401.551 1.515.235 1.695zm2.448 8.444c-1.188-.165-1.92.223-1.92.223s-.53-2.396-.232-2.704c.376-.382 2.42-.562 2.254-.075-.301.869.266 2.608-.102 2.556zm1.612 4.272c-.29.17-3.364-3.41-3.062-3.72.376-.382 2.937-.284 2.78.206-.38 1.188.601 3.336.282 3.514zm1.998-1.348c-.292.17-1.733-.484-1.733-.484s-.377-1.545 0-1.773c.129-.077 1.502.144 1.733.608.18.366.315 1.472 0 1.649zm-4.284-6.385c-.292.168-1.579.325-1.579.325s-.409-1.937-.033-2.163c.129-.078 1.447-.813 1.676-.35.181.367.253 2.009-.064 2.188zm6.62 7.98c-.289.169-1.414-.417-1.414-.417s-.541-1.925-.165-2.151c.129-.078 1.541.796 1.771 1.26.18.365.127 1.129-.192 1.308z"/><path fill="#CC833F" d="M29.86 43.213c-.292.168-1.415-.416-1.415-.416s-.543-1.926-.167-2.153c.129-.076 1.497.087 1.726.552.182.365.171 1.838-.144 2.017z"/><path fill="#A66739" d="M27.824 40.625c-.289.169-1.172-.108-1.172-.108s-.864-1.25-.488-1.478c.129-.077 1.497.087 1.728.551.179.366.25.857-.068 1.035z"/><path fill="#DEA664" d="M30.144 46.766c-.29.168-1.174-.108-1.174-.108s-.862-1.251-.488-1.478c.131-.079 1.497.085 1.729.55.18.366.25.857-.067 1.036z"/><path fill="#D19964" d="M32.211 40.036c-.291.17-1.56.087-1.56.087s-.06-1.065.317-1.294c.127-.075 1.149-.272 1.378.191.182.368.182.838-.135 1.016z"/><path fill="#FFCB7D" d="M42.515 39.274c-.478.539-2.627 1.173-2.627 1.173s-.063-.786.314-1.013c.127-.078.467.416 1.655-.979.269-.314.895.554.658.819zm-3.485 1.563c-1.788 1.098-3.992 1.01-3.992 1.01s-.057-1.065.319-1.292c.127-.078 1.203-.107 3.811-.732.42-.103.173.824-.138 1.014zm-4.687 1.171c-1.195.368-3.263-.092-3.263-.092s-.059-1.065.315-1.294c.129-.078 2.854-.095 3.083.37.182.365.218.906-.135 1.016z"/><path fill="#D19964" d="M39.567 39.36c-.292.169-4.062.676-4.062.676s.296-1.353.672-1.58c.127-.077 1.637-.902 1.865-.439.183.367 1.843 1.165 1.525 1.343zm-4.693.969c-.288.168-1.972-.096-1.972-.096s-.057-1.065.317-1.292c.129-.078 1.871-.759 2.102-.294.183.367-.131 1.503-.447 1.682z"/><path fill="#A66739" d="M31.002 35.487c-.342.102-3.495-2.012-3.495-2.012s.199-1.763.531-1.982c.412-.274 3.303 1.084 3.685 1.522.302.347-.344 2.367-.721 2.472zm-12.13-21.999c-.005-.137 1.075-.186 1.075-.186s.762 2.098.816 2.272c.074.215-1.345-.086-1.586-.11-.187-.022-.303-1.827-.305-1.976zm26.51 18.156c.234-.196 1.341-1.217 1.341-1.217s1.047.884 1.49 2.847c-.189.064-1.358.28-1.665.097-.443-.266-1.42-1.514-1.166-1.727z"/><path fill="#302C3B" d="M21.919 62.166c-.564.915-2.273 1.831-1.449 1.831h3.277c.158.043.635-.355.556-.64-1.19-.338-2.384-1.191-2.384-1.191zm9.394 0c-.567.915-2.275 1.831-1.449 1.831h3.275c.16.043.637-.355.559-.64-1.193-.338-2.385-1.191-2.385-1.191zm10.705 0c-.566.915-2.271 1.831-1.447 1.831h3.277c.158.043.634-.355.556-.64-1.191-.338-2.386-1.191-2.386-1.191zm8.346 0c-.566.915-2.275 1.831-1.448 1.831h3.275c.158.043.634-.355.556-.64-1.191-.338-2.383-1.191-2.383-1.191z"/></svg>