<svg xmlns="http://www.w3.org/2000/svg" xml:space="preserve" style="enable-background:new 0 0 64 64" viewBox="0 0 64 64"><path d="M.114 55.974c9.17-3.591 10.624-8.335 10.863-7.586.404 1.252 2.695-10.267 2.72-10.493.045-.38 1.868 4.031 2.274 5.03.409 1-1.512-6.976-2.463-7.117-.59-.09-2.786 11.19-3.077 12.05-.253.752-2.101 3.87-10.317 8.117zm51.736-36.56-7.25 5.564s-8.489 3.502-8.916 3.502c-.966 0-10.726-3.991-11.67-3.991-1.268 0-3.546 15.713-2.902 14.856.841-1.126 2.935-12.95 3.24-12.839.77.27 12.48 4.532 11.777 3.096-.315-.643 8.89-3.596 8.89-3.596l7.278-6.055s3.54-5.105 4.139-7.682c-.803 2.406-4.586 7.145-4.586 7.145zM17.046 44.742c.158 4.162 3.991 6.863 3.38 1.79 3.519 2.672 3.853.281 2.277-1.12 3.48 1.198 3.02-1.588.358-2.917-3.442-1.72-6.015 2.247-6.015 2.247z" style="fill:#876045"/><linearGradient id="a" x1="40.185" x2="47.12" y1="16.647" y2="16.647" gradientTransform="rotate(-4.106 389.201 -76.835)" gradientUnits="userSpaceOnUse"><stop offset="0" style="stop-color:#e3c496"/><stop offset=".198" style="stop-color:#b99c75"/><stop offset=".46" style="stop-color:#886d4f"/><stop offset=".691" style="stop-color:#654b32"/><stop offset=".879" style="stop-color:#4f3721"/><stop offset="1" style="stop-color:#472f1b"/></linearGradient><path d="M54.743 41.634c-2.57-.42-3.815-1.223-7.087-1.856.196 1.007.405 2.172.519 3.216 4.329-.368 5.85-.794 6.568-1.36z" style="fill:url(#a)"/><linearGradient id="b" x1="34.119" x2="40.615" y1="15.871" y2="15.871" gradientTransform="rotate(-4.106 389.201 -76.835)" gradientUnits="userSpaceOnUse"><stop offset="0" style="stop-color:#e3c496"/><stop offset=".198" style="stop-color:#b99c75"/><stop offset=".46" style="stop-color:#886d4f"/><stop offset=".691" style="stop-color:#654b32"/><stop offset=".879" style="stop-color:#4f3721"/><stop offset="1" style="stop-color:#472f1b"/></linearGradient><path d="M47.777 39.703c-1.86-.354-4.324-.86-6.29-1.17.445 1.558.721 3.229.834 4.847 1.92-.1 4.251-.129 6.006-.266a37.676 37.676 0 0 0-.55-3.41z" style="fill:url(#b)"/><linearGradient id="c" x1="27.49" x2="34.824" y1="15.229" y2="15.229" gradientTransform="rotate(-4.106 389.201 -76.835)" gradientUnits="userSpaceOnUse"><stop offset="0" style="stop-color:#e3c496"/><stop offset=".198" style="stop-color:#b99c75"/><stop offset=".46" style="stop-color:#886d4f"/><stop offset=".691" style="stop-color:#654b32"/><stop offset=".879" style="stop-color:#4f3721"/><stop offset="1" style="stop-color:#472f1b"/></linearGradient><path d="M41.587 38.436c-1.638-.242-4.761-.533-6.422-.696-.018 1.97.096 3.282-.006 5.242 1.913-.054 5.4.6 7.389.506-.122-1.707-.425-3.425-.96-5.052z" style="fill:url(#c)"/><linearGradient id="d" x1="20.96" x2="28.477" y1="14.349" y2="14.349" gradientTransform="rotate(-4.106 389.201 -76.835)" gradientUnits="userSpaceOnUse"><stop offset="0" style="stop-color:#e3c496"/><stop offset=".198" style="stop-color:#b99c75"/><stop offset=".46" style="stop-color:#886d4f"/><stop offset=".691" style="stop-color:#654b32"/><stop offset=".879" style="stop-color:#4f3721"/><stop offset="1" style="stop-color:#472f1b"/></linearGradient><path d="M36.034 43.05c.114-2.008-.221-3.957-.612-5.457-1.772-.146-5.369-.216-7.115-.218.237 2.1.297 3.149.28 5.264 1.446-.004 5.726.452 7.447.41z" style="fill:url(#d)"/><linearGradient id="e" x1="14.309" x2="21.586" y1="13.879" y2="13.879" gradientTransform="rotate(-4.106 389.201 -76.835)" gradientUnits="userSpaceOnUse"><stop offset="0" style="stop-color:#e3c496"/><stop offset=".198" style="stop-color:#b99c75"/><stop offset=".46" style="stop-color:#886d4f"/><stop offset=".691" style="stop-color:#654b32"/><stop offset=".879" style="stop-color:#4f3721"/><stop offset="1" style="stop-color:#472f1b"/></linearGradient><path d="M28.592 37.191c-1.497.033-3.993.17-5.431.353-2.493.316-1.214 4.858-.177 5.688.245.197 3.341-.508 6.159-.494.01-2.115-.22-3.861-.551-5.547z" style="fill:url(#e)"/><linearGradient id="f" x1="30.477" x2="30.477" y1="22.347" y2="15.742" gradientTransform="rotate(-4.106 389.201 -76.835)" gradientUnits="userSpaceOnUse"><stop offset="0" style="stop-color:#debc78"/><stop offset=".206" style="stop-color:#d9b573"/><stop offset=".516" style="stop-color:#cba066"/><stop offset=".891" style="stop-color:#b57e51"/><stop offset="1" style="stop-color:#ad734a"/></linearGradient><path d="M21.545 44.053c7.73-1.487 16.415 10.394 33.2-2.391-15.837 3.374-24.478-2.954-33.2 2.391z" style="fill:url(#f)"/><linearGradient id="g" x1="180.88" x2="191.702" y1="-18.544" y2="-18.544" gradientTransform="matrix(1.7551 .0217 .0217 1.4306 -299.593 43.471)" gradientUnits="userSpaceOnUse"><stop offset="0" style="stop-color:#bf9f86"/><stop offset=".193" style="stop-color:#b7967c;stop-opacity:.9036"/><stop offset=".524" style="stop-color:#a07c60;stop-opacity:.7381"/><stop offset=".951" style="stop-color:#7d5334;stop-opacity:.5247"/><stop offset="1" style="stop-color:#784e2e;stop-opacity:.5"/></linearGradient><path d="M34.702 5.135c-11.773-13.127-9.95 24.613-16.953 34.37 15.028-.59 21.954-28.785 16.953-34.37z" style="opacity:.5;fill:url(#g)"/><linearGradient id="h" x1="181.656" x2="197.042" y1="-19.423" y2="-19.423" gradientTransform="matrix(1.7551 .0217 .0217 1.4306 -299.593 43.471)" gradientUnits="userSpaceOnUse"><stop offset="0" style="stop-color:#bf9f86"/><stop offset=".193" style="stop-color:#b7967c;stop-opacity:.9036"/><stop offset=".524" style="stop-color:#a07c60;stop-opacity:.7381"/><stop offset=".951" style="stop-color:#7d5334;stop-opacity:.5247"/><stop offset="1" style="stop-color:#784e2e;stop-opacity:.5"/></linearGradient><path d="M43.753 3.011c-10.552-14.117-14.218 25.37-24.642 36.5 15.024-.587 32.36-26.172 24.642-36.5z" style="opacity:.5;fill:url(#h)"/><path d="M15.692 41.955s-1.351 4.41-11.778 4.654c8.508 1.353 12.53-4.32 12.53-4.32l-.752-.334zM64 63.775c-5.278-.567-13.827-3.22-14.244-3.465-.408-.24-11.476-7.814-11.694-7.467-1.063 1.693-6.873-17.449-7.107-17.848-.222-.382-5.848 11.14-7.665 12.66-.954.798 6.58-14.902 8.198-14.902 1.263 0 7.696 18.84 7.948 19.114.277.302 10.383 7.216 10.861 7.64.458.405 8.591 3.172 13.703 4.268z" style="fill:#876045"/><linearGradient id="i" x1="22.524" x2="21.493" y1="24.738" y2="15.91" gradientTransform="matrix(1.0695 .1249 -.1169 1.0009 -1.13 18.606)" gradientUnits="userSpaceOnUse"><stop offset="0" style="stop-color:#5c3c25"/><stop offset=".165" style="stop-color:#64442a"/><stop offset=".427" style="stop-color:#7b5839"/><stop offset=".751" style="stop-color:#a17a51"/><stop offset="1" style="stop-color:#c29867"/></linearGradient><path d="M25.418 41.584c-.248 2.13-4.841 4.834-7.11 4.567-2.27-.265-3.907-2.208-3.66-4.34.25-2.131 4.843-4.835 7.111-4.567 2.268.265 3.908 2.207 3.659 4.34z" style="fill:url(#i)"/><path d="M6.341 63.775c9.17-4.061 11.216-10.754 11.456-9.908.404 1.416 1.518-9.644 1.545-9.899.045-.43.283 3.788.69 4.917.41 1.128.655-9.343-.297-9.503-.59-.101-2.786 12.653-3.076 13.625-.256.85-2.681 6.222-10.318 10.768zm52.495-42.612-8.171 6.548S41.1 31.83 40.618 31.83c-1.088 0-12.085-4.696-13.15-4.696-1.427 0-3.426 18.974-2.704 17.966.949-1.324 2.363-16.38 2.704-16.251.868.318 14.564 6.237 13.774 4.546-.355-.756 9.958-4.556 9.958-4.556l8.292-7s3.833-6.053 4.508-9.085c-.906 2.833-5.164 8.41-5.164 8.41z" style="fill:#876045"/><path d="M12.221 49.295C7.932 55.86.848 62.782.114 63.775-1.27 65.642 10.3 55.57 15.886 46.273c.32-.534-4.486-.059-3.764 2.66-1.54.781-1.177.761.1.362z" style="fill:#876045"/><linearGradient id="j" x1="16.337" x2="11.841" y1="47.985" y2="42.864" gradientUnits="userSpaceOnUse"><stop offset="0" style="stop-color:#5c3c25"/><stop offset=".165" style="stop-color:#64442a"/><stop offset=".427" style="stop-color:#7b5839"/><stop offset=".751" style="stop-color:#a17a51"/><stop offset="1" style="stop-color:#c29867"/></linearGradient><path d="M11.188 44.758c-1.126 3.461 1.432 5.525 4.537 3.738 1.418-.815 2-2.108 1.61-4.041.562-.446-.272-2.03-1.128-1.362-.482-.757-3.735-2.282-5.019 1.665z" style="fill:url(#j)"/><radialGradient id="k" cx="14.01" cy="48.389" r="2.563" gradientTransform="matrix(.9982 0 0 1.0019 .554 .144)" gradientUnits="userSpaceOnUse"><stop offset="0" style="stop-color:#1d58a3"/><stop offset=".157" style="stop-color:#1e5499"/><stop offset=".428" style="stop-color:#224a7d"/><stop offset=".777" style="stop-color:#293950"/><stop offset="1" style="stop-color:#2d2d30"/></radialGradient><path d="M12.36 44.907c-.926.947-.997 2.41-.153 3.268.727.743 2.278.791 3.207-.157.929-.946.751-2.662.156-3.27-.844-.858-2.279-.789-3.21.16z" style="fill:url(#k)"/><path d="M13.804 44.453c.686-.044 1.194.462 1.135 1.126-.059.665-.663 1.238-1.348 1.282-.687.045-1.196-.459-1.135-1.124.058-.665.663-1.24 1.348-1.284z" style="opacity:.2;fill:#a6a6ff"/></svg>