<svg xmlns="http://www.w3.org/2000/svg" xml:space="preserve" style="enable-background:new 0 0 64 64" viewBox="0 0 64 64"><linearGradient id="a" x1="-39.101" x2="-39.101" y1="12.837" y2="-35.82" gradientTransform="rotate(13.043 -209.623 328.563)" gradientUnits="userSpaceOnUse"><stop offset=".061" style="stop-color:#302c3b"/><stop offset=".072" style="stop-color:#3d343e"/><stop offset=".107" style="stop-color:#614a45"/><stop offset=".145" style="stop-color:#7f5d4b"/><stop offset=".184" style="stop-color:#976b50"/><stop offset=".227" style="stop-color:#a77553"/><stop offset=".273" style="stop-color:#b17b55"/><stop offset=".333" style="stop-color:#b47d56"/></linearGradient><path d="m37.982 34.941-8.852-1.553c.17 1.192.53 2.488 1.153 3.927 1.582 3.657 4.24 8.52 3.998 10.67-.133 1.173-7.862 3.603-10.024 4.953-1.592.995-3.412 3.275-3.97 4.24-.319.553.324.932 1.634.387.297-.121 2.685-2.052 3.315-2.54 3.88-3 8.357-2.44 9.965-3.237 1.605-.799 3.093-1.557 2.819-2.329-2.622-7.414-1.845-11.538-.038-14.518z" style="fill:url(#a)"/><path d="M11.902 41.481c.178-.308-.395.167-1.149.39-.171.05.363.98 1.149-.39z" style="fill:#302c3b"/><path d="M11.394 41.523c.178-.31-.397.165-1.15.39-.17.049.363.978 1.15-.39z" style="fill:#302c3b"/><path d="M11.03 41.562c.177-.309-.396.166-1.15.388-.172.051.364.98 1.15-.388z" style="fill:#302c3b"/><linearGradient id="b" x1="-134.058" x2="-134.058" y1="-14.343" y2="-25.826" gradientTransform="rotate(25.737 -186.97 331.868)" gradientUnits="userSpaceOnUse"><stop offset=".036" style="stop-color:#302c3b"/><stop offset=".089" style="stop-color:#514042"/><stop offset=".15" style="stop-color:#6f5348"/><stop offset=".218" style="stop-color:#88624d"/><stop offset=".293" style="stop-color:#9c6e51"/><stop offset=".379" style="stop-color:#aa7754"/><stop offset=".487" style="stop-color:#b27c56"/><stop offset=".685" style="stop-color:#b47d56"/></linearGradient><path d="M14.742 33.334c-.319.813-7.097 5.225-7.134 6.438-.04 1.279 1.554 2.307 1.82 2.437.348.169 1.68.326 2.116.09.66-.356-1.916-.484-1.919-1.425 0-.437.76.519 1.204.14.245-.206-.562-.96-.976-1.227-.44-.284 6.998-3.143 9.42-4.205 2.424-1.06-4.1-3.35-4.531-2.248z" style="fill:url(#b)"/><path d="M12.266 41.513c.177-.31-.395.164-1.15.389-.171.05.364.98 1.15-.39zm-1.414.113c-.057.262-.11-.057-.47-.579-.082-.12.72-.575.47.58z" style="fill:#565261"/><linearGradient id="c" x1="-15.632" x2="11.15" y1="-6.404" y2="-6.404" gradientTransform="rotate(10.003 -227.275 327.78)" gradientUnits="userSpaceOnUse"><stop offset="0" style="stop-color:#b47d56"/><stop offset=".156" style="stop-color:#af7a55"/><stop offset=".334" style="stop-color:#a17252"/><stop offset=".524" style="stop-color:#8a634d"/><stop offset=".722" style="stop-color:#6a5047"/><stop offset=".924" style="stop-color:#41373f"/><stop offset="1" style="stop-color:#302c3b"/></linearGradient><path d="M42.39 32.092c4.836 2.527 2.852 20.049 11.064 22.49 3.606 1.069 7.012-.265 9.313-3.477 2.07-2.89 1.362-3.428-.854-1.411-4.407 4.007-8.217 2.124-9.744-1.507-2.715-6.451-1.575-20.6-7.27-27.482-4.963-5.998-3.66 10.785-2.509 11.387z" style="fill:url(#c)"/><linearGradient id="d" x1="-16.801" x2="1.767" y1="-.547" y2="-.547" gradientTransform="rotate(10.003 -227.275 327.78)" gradientUnits="userSpaceOnUse"><stop offset="0" style="stop-color:#ffd1ad"/><stop offset=".267" style="stop-color:#fbcca8"/><stop offset=".591" style="stop-color:#eebf99"/><stop offset=".943" style="stop-color:#daa981"/><stop offset="1" style="stop-color:#d6a57c"/></linearGradient><path d="M41.277 34.241c5.443 2.547 3.965 17.9 12.178 20.34-8.793-4.435-4.637-18.708-11.065-22.49-6.709-3.945-2.289 1.602-1.113 2.15z" style="fill:url(#d)"/><path d="M16.751 35.6c7.409 2.045 12.225-2.642 16.496-2.096 25.217 3.219 11.727-24.115-5.801-18.821-9.07 2.738-12.2 13.772-16.185 8.58-2.853-3.714-8.373 8.51 5.49 12.338z" style="fill:#b47d56"/><linearGradient id="e" x1="-47.519" x2="-20.225" y1="-5.663" y2="-5.663" gradientTransform="rotate(10.003 -227.275 327.78)" gradientUnits="userSpaceOnUse"><stop offset="0" style="stop-color:#ffd1ad"/><stop offset=".267" style="stop-color:#fbcca8"/><stop offset=".591" style="stop-color:#eebf99"/><stop offset=".943" style="stop-color:#daa981"/><stop offset="1" style="stop-color:#d6a57c"/></linearGradient><path d="M16.574 36.016c7.482 1.76 12.237-2.168 16.538-1.934 2.528.136 2.274-2.289.03-2.82-7.288-1.72-22.592 6.719-24.938-3.875-.593 3.008 1.02 6.901 8.37 8.629z" style="fill:url(#e)"/><linearGradient id="f" x1="-17.532" x2="-17.532" y1="22.322" y2="-26.014" gradientTransform="rotate(10.003 -227.275 327.78)" gradientUnits="userSpaceOnUse"><stop offset=".061" style="stop-color:#302c3b"/><stop offset=".072" style="stop-color:#453c44"/><stop offset=".098" style="stop-color:#705b56"/><stop offset=".126" style="stop-color:#957665"/><stop offset=".154" style="stop-color:#b38c71"/><stop offset=".184" style="stop-color:#cb9d7b"/><stop offset=".216" style="stop-color:#dbaa82"/><stop offset=".251" style="stop-color:#e5b186"/><stop offset=".297" style="stop-color:#e8b387"/><stop offset=".534" style="stop-color:#d19b71"/><stop offset=".861" style="stop-color:#b47d56"/></linearGradient><path d="M47.117 27.558c.417-4.32-3.263-9.729-8.833-12.208 4.449 10.127-11.734 12.534-5.19 25.691 1.775 3.57 4.687 8.282 4.56 10.445-.07 1.176-7.66 4.012-9.748 5.476-1.537 1.078-3.235 3.451-3.74 4.446-.29.567.324.866 1.603.253.291-.138 2.621-2.146 3.226-2.666 3.715-3.202 8.215-2.883 9.78-3.763 1.56-.882 3.006-1.72 2.691-2.475-6.877-16.583 4.858-16.991 5.65-25.2z" style="fill:url(#f)"/><path d="M8.068 22.408c-4.358-3.213-3.97-8.23-3.43-7.669 1.73 1.791 3.455 2.773 4.111 5.164.288 1.046-.135 2.904-.681 2.505z" style="fill:#9e6c49"/><linearGradient id="g" x1="-55.231" x2="-44.264" y1="-10.347" y2="-10.347" gradientTransform="rotate(10.003 -227.275 327.78)" gradientUnits="userSpaceOnUse"><stop offset="0" style="stop-color:#302c3b"/><stop offset=".038" style="stop-color:#493c41"/><stop offset=".096" style="stop-color:#684f48"/><stop offset=".162" style="stop-color:#84604e"/><stop offset=".236" style="stop-color:#9a6e53"/><stop offset=".323" style="stop-color:#ab7857"/><stop offset=".431" style="stop-color:#b6805a"/><stop offset=".581" style="stop-color:#bd845c"/><stop offset="1" style="stop-color:#bf855c"/></linearGradient><path d="M8.255 20.503c-2.043.332-3.246 1.963-3.725 2.572-1.052 1.335-.755 2.093-3.818 4.57-1.337 1.085.121 2.646.52 2.605 1.65.951 2.996.645 4.238-.404 1.283-1.085 6.453 1.268 6.33-5.15-.056-3.018-.275-4.726-3.545-4.193z" style="fill:url(#g)"/><path d="M.712 27.645c.29-.176-.256.826.92.914.666.05-.545 1.61-.687 1.576-.758-.179-1.565-1.674-.233-2.49z" style="fill:#302c3b"/><path d="M1.232 30.25s2.303.283 3.422-.842c.068.686-2.075 1.835-3.422.842z" style="fill:#694830"/><path d="M9.369 23.093c4.942-3.49 3.6-8.626 3.01-8.025-1.878 1.91-3.883 2.997-4.3 5.485-.183 1.086.668 2.977 1.29 2.54z" style="fill:#bf855c"/><linearGradient id="h" x1="225.717" x2="232.181" y1="13.838" y2="13.838" gradientTransform="matrix(.8535 -.4003 .5206 .6835 -191.72 101.352)" gradientUnits="userSpaceOnUse"><stop offset="0" style="stop-color:#785647"/><stop offset=".003" style="stop-color:#785647"/><stop offset=".345" style="stop-color:#8d6248"/><stop offset=".681" style="stop-color:#9a6a49"/><stop offset="1" style="stop-color:#9e6c49"/></linearGradient><path d="M9.732 22.22c3.369-2.451 2.92-6.664 2.374-6.137-3.692 3.559-2.99 6.583-2.374 6.138z" style="fill:url(#h)"/><path d="M16.224 44.208c.088-.346-.336.268-1.002.688-.15.094.616.843 1.002-.688z" style="fill:#302c3b"/><path d="M15.746 44.387c.086-.347-.336.265-1.002.685-.152.096.615.845 1.002-.685z" style="fill:#302c3b"/><path d="M15.406 44.523c.087-.346-.336.266-1.002.685-.152.096.615.845 1.002-.685z" style="fill:#302c3b"/><linearGradient id="i" x1="-37.438" x2="-37.438" y1="7.968" y2="-10.559" gradientTransform="rotate(10.003 -227.275 327.78)" gradientUnits="userSpaceOnUse"><stop offset=".036" style="stop-color:#302c3b"/><stop offset=".075" style="stop-color:#594a4c"/><stop offset=".124" style="stop-color:#846a5e"/><stop offset=".173" style="stop-color:#a8846d"/><stop offset=".222" style="stop-color:#c49978"/><stop offset=".271" style="stop-color:#d8a780"/><stop offset=".32" style="stop-color:#e4b085"/><stop offset=".37" style="stop-color:#e8b387"/><stop offset=".577" style="stop-color:#d19b71"/><stop offset=".861" style="stop-color:#b47d56"/></linearGradient><path d="M18.443 28.887c-.283-1.873-6.864-3.434-5.096.707 1.631 3.813 3.522 4.83 3.404 6.007-.087.867-5.42 6.952-5.127 8.128.31 1.243 2.123 1.8 2.413 1.851.382.068 1.709-.143 2.064-.487.54-.523-1.976.053-2.234-.85-.12-.422.873.293 1.197-.191.18-.266-.8-.773-1.272-.917-.5-.153 5.887-4.923 7.934-6.603 2.046-1.677-2.81-4.565-3.283-7.645z" style="fill:url(#i)"/><path d="M16.583 44.14c.087-.347-.335.267-1.001.685-.153.097.615.844 1.001-.685zm-1.332.494c.017.266-.12-.026-.609-.432-.111-.09.538-.748.61.432z" style="fill:#565261"/><path d="M5.226 25.262c.035.353.755.81 1.383.618.628-.19 1.11-.92 1.02-1.403-1.071-.364-2.475.064-2.403.785z" style="fill:#1a1626"/><path d="M6.128 24.78c.135.456-.499.667-.634.212-.136-.462.498-.673.634-.211z" style="fill:#6e8189"/><path d="M7.63 24.477c-.44-.436-1.515-.478-2.13-.172-.259.129-.424.439-.274.957.133-.74.704-.578 2.403-.785z" style="fill:#694830"/></svg>