<svg xmlns="http://www.w3.org/2000/svg" xml:space="preserve" viewBox="0 0 64 64"><path fill="#595451" d="M62.248 45.154c3.329-4.236.89-5.479.89-5.479s.985 1.419-.89 5.479z"/><path fill="#595451" d="M62.104 44.691c.986-3.457-.312-3.701 1.232-5.656-.7 2.463.723 2.279-1.232 5.656z"/><path fill="#877E7A" d="M63.66 41.381c.019-6.461-2.141-11.084-4.102-12.143-2.711-1.463 1.706 7.512 3.267 11.94.883 2.504.831 1.629.835.203z"/><path fill="#595451" d="M62.614 45.914c.688-2.934-.753-3.67.825-5.76-.094 2.127.88 3.002-.825 5.76z"/><path fill="#5E5855" d="M47.871 56.139c-.557-1.582-3.809 2.424-2.01 2.424 3.311 0 2.54-.905 2.01-2.424z"/><path fill="#756E6A" d="M48.078 44.725c-1.627 1.914 1.205 3.572 1.205 7.105 0 .381-.926 3.012-1.204 3.434-.18.27-1.731 1.053-2.218 2.754 2.956 0 7.439.689 7.6-1.357.1-1.27 1.995-3.494 2.145-5.066.062-.65.4-7.699-1.182-8.24-2.402-.82-4.564-.726-6.346 1.37z"/><path fill="#5E5855" d="M47.994 56.359c-.521-1.111-3.993 2.525-1.829 2.525 3.985.001 2.469-.997 1.829-2.525z"/><path fill="#5E5855" d="M50.152 56.623c-.544-1.332-3.245 2.094-1.486 2.094 3.236.002 2.006-.819 1.486-2.094zm-30.073-.484c-.557-1.582-3.809 2.424-2.01 2.424 3.311 0 2.54-.905 2.01-2.424z"/><path fill="#756E6A" d="M22.193 41.561c-2.425.623-.702 6.736-.702 10.27 0 .381-.926 3.012-1.204 3.434-.18.27-1.731 1.053-2.218 2.754 2.956 0 7.439.689 7.6-1.357.1-1.27 1.033-2.488 1.183-4.059.062-.652 3.371-5.73 1.46-7.012-2.618-1.753-3.409-4.724-6.119-4.03z"/><path fill="#5E5855" d="M20.202 56.359c-.521-1.111-3.992 2.525-1.829 2.525 3.985.001 2.469-.997 1.829-2.525z"/><path fill="#5E5855" d="M22.36 56.623c-.544-1.332-3.245 2.094-1.486 2.094 3.236.002 2.006-.819 1.486-2.094z"/><linearGradient id="a" x1="37.665" x2="37.665" y1="51.543" y2="22.583" gradientUnits="userSpaceOnUse"><stop offset="0" style="stop-color:#877f7a"/><stop offset=".31" style="stop-color:#8b827d"/><stop offset=".602" style="stop-color:#968c87"/><stop offset=".884" style="stop-color:#a99d98"/><stop offset="1" style="stop-color:#b3a6a1"/></linearGradient><path fill="url(#a)" d="M23.995 24.474C14.057 21.703 8.372 41.205 18.52 43.93c1.575 1.416 2.565 3.627 5.225 3.869 1.381 2.096 6.426 4.172 8.752 3.074 0 0 9.937 2.215 18.004-.938 0 0 5.273 1.975 9.267-3.555 3.275-4.537 3.569-15.269-1.551-18.436-3.396-2.1-10.2-6.337-19.698-5.136-6.092.772-11.496.244-14.524 1.666z"/><linearGradient id="b" x1="41.488" x2="41.488" y1="49.769" y2="40.92" gradientUnits="userSpaceOnUse"><stop offset="0" style="stop-color:#997c75"/><stop offset=".606" style="stop-color:#997c75;stop-opacity:0"/></linearGradient><path fill="url(#b)" d="M31.834 51.068s12.384 2.191 20.146-.918c0 0 4.999-1.541 4.55-4.514-1.304-8.627-37.168-10.418-28.862 1.473 1.227 1.756 4.166 3.959 4.166 3.959z"/><path fill="#756E6A" d="M25.989 41.982c3.33-7.85 2.746-14.397-1.994-17.508 4.545 4.752 3.485 13.233 1.994 17.508z"/><path fill="#756E6A" d="M18.521 43.93s7.897-2.473 6.25-10.879c.226 7.099-6.25 10.879-6.25 10.879z"/><radialGradient id="c" cx="-148.071" cy="25.753" r="9.152" gradientTransform="matrix(.7082 .7109 -.4765 .4811 168.88 127.102)" gradientUnits="userSpaceOnUse"><stop offset="0" style="stop-color:#ad8c84"/><stop offset="1" style="stop-color:#ad8c84;stop-opacity:0"/></radialGradient><path fill="url(#c)" d="M58.227 40.734c-2.408 2.434-7.263 1.492-10.843-2.102-3.579-3.594-4.529-8.477-2.12-10.91 2.407-2.432 7.263-1.491 10.843 2.102 3.579 3.596 4.528 8.481 2.12 10.91z"/><path fill="#6E6763" d="M23.476 59.256c-.557-1.582-3.81 2.422-2.011 2.422 3.31 0 2.54-.905 2.011-2.422z"/><linearGradient id="d" x1="21.465" x2="32.301" y1="52.908" y2="52.908" gradientUnits="userSpaceOnUse"><stop offset="0" style="stop-color:#877f7a"/><stop offset=".31" style="stop-color:#8b827d"/><stop offset=".602" style="stop-color:#968c87"/><stop offset=".884" style="stop-color:#a99d98"/><stop offset="1" style="stop-color:#b3a6a1"/></linearGradient><path fill="url(#d)" d="M25.589 44.676c-2.425.623-.701 6.736-.701 10.27 0 .381-.927 3.012-1.204 3.434-.181.27-1.732 1.055-2.219 2.754 2.956 0 7.439.689 7.6-1.357.1-1.27 1.033-2.488 1.183-4.059.062-.65 3.371-5.73 1.46-7.012-2.618-1.753-3.409-4.724-6.119-4.03z"/><path fill="#6E6763" d="M23.598 59.475C23.076 58.363 19.605 62 21.77 62c3.984 0 2.468-.996 1.828-2.525z"/><path fill="#6E6763" d="M25.756 59.738c-.544-1.33-3.244 2.094-1.486 2.094 3.236 0 2.006-.818 1.486-2.094zm25.781-.482c-.557-1.582-3.809 2.422-2.01 2.422 3.311 0 2.54-.905 2.01-2.422z"/><linearGradient id="e" x1="49.527" x2="59.977" y1="53.514" y2="53.514" gradientUnits="userSpaceOnUse"><stop offset="0" style="stop-color:#b3a6a1"/><stop offset=".116" style="stop-color:#a99d98"/><stop offset=".398" style="stop-color:#968c87"/><stop offset=".69" style="stop-color:#8b827d"/><stop offset="1" style="stop-color:#877f7a"/></linearGradient><path fill="url(#e)" d="M51.745 47.84c-1.628 1.914 1.204 3.572 1.204 7.105 0 .381-.926 3.012-1.204 3.434-.18.27-1.731 1.055-2.218 2.754 4.05.77 5.856.25 7.168-1.322 1.041-1.248 3.299-6.604 3.282-8.182-.019-1.836-1.203-2.943-.672-4.65.816-2.624-5.779-1.235-7.56.861z"/><path fill="#6E6763" d="M51.66 59.475C51.139 58.363 47.668 62 49.831 62c3.985 0 2.469-.996 1.829-2.525z"/><path fill="#6E6763" d="M53.818 59.738c-.544-1.33-3.245 2.094-1.486 2.094 3.236 0 2.006-.818 1.486-2.094z"/><path fill="#756E6A" d="M8.445 22.867c-1.738-.603-1.306 5.492 4.639 1.563-.564-2.261-3.674-1.231-4.639-1.563z"/><path fill="#8F746D" d="M12.999 41.676c.82.855 5.791 2.164 7.031-3.016-2.974-1.531-4.793.082-7.031 3.016z"/><linearGradient id="f" x1="-58.273" x2="-68.754" y1="50.092" y2="33.146" gradientTransform="rotate(15.762 8.92 308.596)" gradientUnits="userSpaceOnUse"><stop offset=".109" style="stop-color:#997c75"/><stop offset=".271" style="stop-color:#998780"/><stop offset=".504" style="stop-color:#998f88"/><stop offset="1" style="stop-color:#99918a"/></linearGradient><path fill="url(#f)" d="M14.465 22.167c-.973-.277-2.541-.28-3.896.56-1.169.722-1.833.933-2.125 1.976-.248.885-.891.909-1.69 1.223-.672.262-1.174 1.479-.795 2.084.379.602-.004.75-.604 1.281C4.167 30.34.191 32.676.637 33.215c.208.252-.211.328-.294.561-.415 1.16-.458 3.301-.103 4.469.171.559.7 1.912 1.591 1.744-.47 1.6 3.182 1.098 6.577 2.252 3.298 1.121 6.961-.662 8.453-2.941 1.421.064 4.791.027 6.517-6.123 1.184-4.221.673-9.33-4.167-10.705-2.432-.692-3.113.157-4.746-.305z"/><path fill="#5E5452" d="M15.694 27.061c-2.196-2.677-4.626-2.401-5.376 1.083 1.387-2.606 2.87-2.42 5.376-1.083zM4.75 39.025c-.635-.096-2.919.963-2.919.963s1.837-.217 2.795.018c2.86.695 9.667 4.121 11.889-5.068-3.218 7.447-9.05 4.5-11.765 4.087z"/><path fill="#69625E" d="M16.861 39.299c5.011.727 6.118-4.91 6.118-4.91s-1.623 4.422-6.118 4.91z"/><path fill="#5E5452" d="M8.638 33.082c-.235-.482-.922-.35-1.381-.057-1.324.949-1.296 2.051-.67 2.182.179.035.301-.201.177-.336-.166-.182-.025-.371.149-.582.709-.854 1.476-1.266.895-.199-.106.199.11.41.286.27.388-.315.711-.786.544-1.278z"/><radialGradient id="g" cx="-34.23" cy="-69.218" r="5.484" gradientTransform="matrix(.773 .1434 -.1223 .6681 39.479 79.192)" gradientUnits="userSpaceOnUse"><stop offset="0" style="stop-color:#ad8c84"/><stop offset="1" style="stop-color:#ad8c84;stop-opacity:0"/></radialGradient><path fill="url(#g)" d="M25.724 28.827c-.37 2.022-2.569 3.312-4.91 2.878-2.342-.435-3.938-2.427-3.567-4.45.37-2.022 2.567-3.313 4.909-2.879 2.34.434 3.937 2.427 3.568 4.451z"/><path fill="#5E5452" d="M21.873 23.851c-.522-.955-1.913-.965-2.495.133.649-.858 1.773-.778 2.157.092.494 1.134-.147 2.714-1.707 3.413 1.991-.595 2.73-2.39 2.045-3.638z"/><linearGradient id="h" x1="-24.355" x2="-26.7" y1="133.74" y2="134.584" gradientTransform="matrix(.9764 .0046 -.1289 -.7896 61.907 131.964)" gradientUnits="userSpaceOnUse"><stop offset="0" style="stop-color:#7a6d69"/><stop offset="1" style="stop-color:#4c4442"/></linearGradient><path fill="url(#h)" d="M18.259 27.379c2.162.154 3.2-1.559 2.719-2.657-.403-.919-1.976-.599-1.858 1.319.043.697-1.721 1.147-.861 1.338z"/><path fill="#5E5452" d="M12.864 26.784c-1.059.014-1.463.933-1.362 1.646.074.53 2.698.501 2.76-.03.09-.775-.432-1.626-1.398-1.616z"/><path fill="#C4B8B1" d="M12.867 27.04c-.765.008-1.374.593-1.366 1.31.006.618.629 1.288 1.394 1.28.762-.008 1.372-.807 1.366-1.31-.008-.717-.632-1.288-1.394-1.28z"/><path fill="#1A1626" d="M12.737 27.292a1.032 1.032 0 1 1 .019 2.063 1.032 1.032 0 0 1-.019-2.063z"/><path fill="#FFF" d="M12.66 27.809c.004.372-.559.379-.563.007-.004-.377.559-.384.563-.007z"/></svg>