<svg xmlns="http://www.w3.org/2000/svg" xml:space="preserve" style="enable-background:new 0 0 64 64" viewBox="0 0 64 64"><linearGradient id="a" x1="40.439" x2="40.439" y1="19.776" y2="9.508" gradientUnits="userSpaceOnUse"><stop offset="0" style="stop-color:#786055"/><stop offset="1" style="stop-color:#8e7368"/></linearGradient><path d="M35.175 19.776c5.846-2.201 10.57-3.359 10.57-4.803-.73-9.846-11.352-5.256-10.57 4.803z" style="fill:url(#a)"/><linearGradient id="b" x1="21.748" x2="21.748" y1="44.752" y2="17.207" gradientUnits="userSpaceOnUse"><stop offset="0" style="stop-color:#57453e"/><stop offset=".154" style="stop-color:#604c45"/><stop offset="1" style="stop-color:#8e7368"/></linearGradient><path d="M17.42 23.157c.486 27.134 8.658 31 8.658-1.705 0-7.138-8.768-4.384-8.659 1.705z" style="fill:url(#b)"/><path d="M22.966 57.244c-4.53 2.555-8.572-.426-12.431-.455 4.192-1.058 8.468 1.168 12.431.455z" style="fill:#786055"/><path d="M29.68 55.756c-3.578 3.782-8.317 2.129-12.013 3.244 3.696-2.252 8.435-1.39 12.012-3.244z" style="fill:#786055"/><path d="M36.827 53.213c-3.086 4.844-7.993 3.628-11.525 5.434 3.392-3.108 8.202-2.798 11.525-5.434z" style="fill:#786055"/><path d="M47.87 48.765c-4.304 8.236-11.147 6.169-16.072 9.239 4.73-5.285 11.438-4.758 16.072-9.239z" style="fill:#786055"/><path d="M53.91 42.877c-1.639 9.154-8.785 9.246-12.563 13.66 2.93-6.467 9.485-7.988 12.563-13.66zM21.73 56.693c-5.424 1.86-10.689-.178-14.212-4.805 4.054 2.745 9.383 4.848 14.212 4.805z" style="fill:#786055"/><path d="M16.031 56.041c-5.617-1.147-9.132-5.577-9.841-11.357 2.115 4.425 5.654 8.944 9.841 11.358z" style="fill:#786055"/><linearGradient id="c" x1="29.677" x2="23.903" y1="26.769" y2="14.62" gradientTransform="rotate(3.032 -70.682 132.628)" gradientUnits="userSpaceOnUse"><stop offset=".214" style="stop-color:#8f6242"/><stop offset=".26" style="stop-color:#946544"/><stop offset=".488" style="stop-color:#a6734e"/><stop offset=".729" style="stop-color:#b07a54"/><stop offset="1" style="stop-color:#b47d56"/></linearGradient><path d="M64 5C51.148 9.088 20.882 26.936 0 28.936v15.43c27.896-5.786 53.394-27.19 64-32.448V5z" style="fill:url(#c)"/><path d="M26.749 26.295c.439-2.687-3.873-7.612-1.734-7.717 1.85-.096 3.985 5.01 1.734 7.717z" style="fill:#f2e5d3"/><path d="M24.938 28.068c.46-3.227-4.389-9.52-2.011-9.49 2.058.02 4.486 6.372 2.01 9.49z" style="fill:#f2e5d3"/><path d="M22.408 29.44c.817-3.157-3.296-9.948-.937-9.655 2.042.247 3.745 6.83.937 9.655zm22.139-10.32c.994-2.535-2.186-8.256-.072-7.91 1.83.296 2.842 5.737.072 7.91z" style="fill:#f2e5d3"/><path d="M42.404 20.472c1.128-3.058-2.289-10.23.03-9.7 2.007.453 3.045 7.173-.03 9.7z" style="fill:#f2e5d3"/><path d="M39.642 21.282c1.463-2.915-1.13-10.42 1.114-9.637 1.945.672 2.225 7.465-1.114 9.637z" style="fill:#f2e5d3"/><path d="M14.902 37.947c20.368-.606 21.08-5.959 24.963-11.801 8.112-12.203 30.28 7.966 17.814 16.616-5.533 3.837-6.394 8.144-20.387 12.153-17.01 4.871-22.745 2.379-26.686-2.656-3.976-5.086-3.397-14.084 4.296-14.313z" style="fill:#786055"/><linearGradient id="d" x1="10.748" x2="4.745" y1="47.936" y2="19.754" gradientTransform="rotate(2.922 -81.498 159.194)" gradientUnits="userSpaceOnUse"><stop offset="0" style="stop-color:#786055"/><stop offset="1" style="stop-color:#8e7368"/></linearGradient><path d="M10.85 25.527c2.828-4.771 8.675-4.162 9.128-1.643.436 2.425-5.527 10.208 1.652 21.204 5.872 8.996-6.694 13.58-11.172 7.641-8.89-11.79-1.424-24.136.393-27.202z" style="fill:url(#d)"/><path d="M15.725 27.409c-2.413 1.052-3.345 2.632-2.733 4.752.26-1.807 1.188-3.42 2.733-4.752z" style="opacity:.5;fill:#634e48"/><path d="M17.42 26.954c-1.949.834-2.861 2.13-2.687 3.902.437-1.495 1.35-2.82 2.688-3.902zm-1.788 4.862c.438-1.496 1.352-2.82 2.688-3.901-1.95.832-2.861 2.13-2.688 3.9zm2.128 18.071c.859 3.122 3.045 4.727 6.597 4.746-2.765-.908-5.005-2.523-6.598-4.746z" style="opacity:.5;fill:#634e48"/><path d="M21.818 52.729c-1.507-.971-2.653-2.233-3.38-3.717.233 1.846 1.35 3.095 3.38 3.717zm-8.142-7.174c-2.767-.91-5.006-2.524-6.598-4.746.86 3.122 3.045 4.727 6.598 4.746z" style="opacity:.5;fill:#634e48"/><path d="M11.49 43.383c-1.506-.97-2.653-2.233-3.382-3.718.235 1.846 1.353 3.096 3.382 3.718zm-3.48-.089c.232 1.846 1.35 3.096 3.38 3.718-1.507-.973-2.654-2.234-3.38-3.718z" style="opacity:.5;fill:#634e48"/><path d="M60.15 23.023c-7.086-7.065-17.143-3.693-20.957 4.537-.482 1.04 15.363 16.84 16.404 16.36 8.257-3.806 11.638-13.833 4.552-20.897z" style="fill:#8e7368"/><path d="M63.112 30.504c-1.25-2.502-4.922-3.413-5.982-4.47-1.06-1.057-1.973-4.718-4.486-5.963-3.364-1.67-10.814 1.58-13.534 7.456-.487 1.046-.266 7.37 4.431 12.057 4.698 4.68 11.041 4.9 12.092 4.418 5.892-2.718 9.152-10.143 7.479-13.498z" style="fill:#786055"/><path d="M55.729 26.56c1.636-.941 3.324-.82 5.054.405-1.696-.598-3.413-.735-5.054-.404z" style="fill:#786055"/><path d="M55.687 26.643c2.231-.842 4.444-.061 5.966 1.818-1.719-1.09-3.96-1.897-5.966-1.818z" style="fill:#786055"/><path d="M56.564 27.4c.939-1.643.818-3.337-.403-5.074.596 1.702.733 3.426.403 5.073z" style="fill:#786055"/><path d="M55.04 28.107c1.753-.7 2.71-2.1 2.83-4.223-.589 1.705-1.55 3.14-2.83 4.223z" style="fill:#786055"/><path d="M56.483 27.441c.838-2.24.06-4.461-1.812-5.989 1.086 1.726 1.89 3.975 1.812 5.99z" style="fill:#786055"/><path d="M55.345 27.814C52.78 14.531 32.535 26.044 44.83 38.3c12.29 12.256 23.838-7.927 10.515-10.486z" style="fill:#ffe1bd"/><path d="M60.285 37.672c-2.081 5.017-7.228 5-7.602 4.542 0 0 2.991-2.799.184-4.75-2.276-1.583.481-6.423 4.689-4.707 2.82 1.15 2.729 4.915 2.729 4.915zM45.496 22.826c-4.998 2.09-4.98 7.256-4.525 7.632 0 0 2.788-3.003 4.733-.185 1.576 2.285 6.397-.483 4.689-4.707-1.145-2.83-4.897-2.74-4.897-2.74z" style="fill:#5e564c"/><path d="M57.688 34.48c-1.14-1.145-2.787-.39-3.623.65-.622.773 2.207 3.612 2.976 2.987 1.118-.91 1.689-2.591.647-3.637z" style="fill:#3d3831"/><radialGradient id="e" cx="-352.7" cy="126.937" r="2.8" fx="-353.602" fy="125.791" gradientTransform="matrix(.4914 .4933 -.5588 .5609 300.283 138.93)" gradientUnits="userSpaceOnUse"><stop offset=".043" style="stop-color:#413f4a"/><stop offset=".284" style="stop-color:#3d3a46"/><stop offset=".558" style="stop-color:#302d3a"/><stop offset=".847" style="stop-color:#1a1626"/></radialGradient><path d="M57.431 34.738c.834.837.741 2.286-.206 3.237-.948.952-1.755.406-2.589-.431s-1.377-1.647-.43-2.598c.948-.952 2.392-1.044 3.225-.208z" style="fill:url(#e)"/><path d="M56.375 35.725c-.618.62-1.506-.271-.888-.891.619-.622 1.507.27.888.891z" style="fill:#6e8189"/><path d="M48.686 25.444c1.14 1.145.387 2.797-.648 3.636-.77.624-3.598-2.215-2.976-2.987.907-1.123 2.582-1.696 3.624-.65z" style="fill:#3d3831"/><radialGradient id="f" cx="-13.029" cy="127.235" r="2.8" fx="-13.931" fy="126.089" gradientTransform="matrix(-.4914 -.4933 -.5588 .5609 111.727 -50.69)" gradientUnits="userSpaceOnUse"><stop offset=".043" style="stop-color:#413f4a"/><stop offset=".284" style="stop-color:#3d3a46"/><stop offset=".558" style="stop-color:#302d3a"/><stop offset=".847" style="stop-color:#1a1626"/></radialGradient><path d="M48.428 25.701c-.833-.837-2.277-.744-3.224.207-.948.952-.404 1.762.43 2.599.833.836 1.64 1.382 2.588.431.947-.951 1.04-2.4.206-3.237z" style="fill:url(#f)"/><path d="M47.445 26.761c-.618.62.27 1.512.888.892.62-.621-.27-1.513-.888-.892z" style="fill:#6e8189"/><path d="M51.293 39.174c-2.038.07-2.981-1.986-4.161-3.17-1.179-1.183-3.229-2.131-3.158-4.177.017-.476-.583-.282-.636.157-.29 2.367 1.72 3.055 3.238 4.579 1.518 1.523 2.204 3.54 4.56 3.25.437-.055.63-.656.157-.64z" style="fill:#3d3831"/><radialGradient id="g" cx="-134.809" cy="138.828" r="3.585" fx="-134.809" fy="137.873" gradientTransform="matrix(.7523 .7552 -.2621 .2631 186.902 99.33)" gradientUnits="userSpaceOnUse"><stop offset="0" style="stop-color:#4b4b52"/><stop offset=".335" style="stop-color:#46464c"/><stop offset=".787" style="stop-color:#36363b"/><stop offset="1" style="stop-color:#2d2d30"/></radialGradient><path d="M50.033 33.107c-1.19-1.195-2.309-2.01-3.102-1.215-.63.633.527 2.916.967 3.358.44.442 2.714 1.602 3.344.97.793-.796-.018-1.918-1.21-3.113z" style="fill:url(#g)"/><path d="M50.59 35.88c.87-.465-1.69-1.149-1.886-.502 1.045.142 1.496.712 1.887.503zm-3.321-3.334c.464-.873 1.146 1.698.5 1.894-.14-1.048-.708-1.5-.5-1.894z" style="opacity:.5;fill:#2d2d30"/><path d="M54.208 28.044c1.78-.904 3.6-.658 5.45.78-1.822-.76-3.674-1.025-5.45-.78z" style="fill:#ffe1bd"/><path d="M52.866 29.305c1.065-1.692 2.753-2.42 5.076-2.138-1.952.286-3.676 1.013-5.076 2.138z" style="fill:#ffe1bd"/><path d="M55.044 28.021c2.198-.386 4.15.489 5.834 2.669-1.825-1.434-3.806-2.34-5.834-2.669z" style="fill:#ffe1bd"/><path d="M57.453 28.568c2.143.622 3.514 2.268 4.074 4.969-1.012-2.093-2.396-3.78-4.074-4.97zm-2.366.357c.9-1.786.655-3.613-.778-5.47.757 1.829 1.021 3.688.778 5.47z" style="fill:#ffe1bd"/><path d="M55.11 28.086c.383-2.206-.488-4.165-2.66-5.855 1.43 1.83 2.332 3.82 2.66 5.855z" style="fill:#ffe1bd"/><path d="M54.565 25.668c-.62-2.151-2.26-3.527-4.95-4.09 2.084 1.017 3.765 2.406 4.95 4.09z" style="fill:#ffe1bd"/><linearGradient id="h" x1="-324.793" x2="-330.525" y1="177.755" y2="140.165" gradientTransform="scale(-1 1) rotate(26.56 83.301 710.32)" gradientUnits="userSpaceOnUse"><stop offset="0" style="stop-color:#786055"/><stop offset="1" style="stop-color:#8e7368"/></linearGradient><path d="M34.328 16.768c-4.667-3.22-9.338 1.883-6.751 4.168 3.794 3.351 2.207 6.13 2.127 15.377-.15 17.352 21.937 18.36 21.957 9.628.01-4.567-11.693-8.822-12.096-11.937-.765-5.92 1.817-12.367-5.237-17.236z" style="fill:url(#h)"/><path d="M40.567 39.273c.383 3.057-.176 5.893-1.652 8.343 2.728-2.033 3.252-4.83 1.652-8.343zm-1.524 4.226c1.115-1.752 1.073-3.598-.086-5.52.515 1.852.544 3.724.086 5.52zm-4.246-10.074c2.728-2.034 3.253-4.83 1.652-8.343.384 3.056-.177 5.892-1.652 8.343z" style="opacity:.5;fill:#634e48"/><path d="M37.525 27.326c.515 1.849.544 3.723.086 5.518 1.116-1.754 1.072-3.597-.086-5.518zm-5.903-10.734c1.711 1.487 2.9 3.472 3.498 5.844.157-2.964-1.027-4.903-3.498-5.844z" style="opacity:.5;fill:#634e48"/><path d="M36.049 20.243c-.401-1.738-1.352-2.758-2.826-3.085 1.158.711 2.118 1.76 2.826 3.085z" style="opacity:.5;fill:#634e48"/></svg>