<svg xmlns="http://www.w3.org/2000/svg" xml:space="preserve" style="enable-background:new 0 0 64 64" viewBox="0 0 64 64"><path d="M44.796 45.08c.637-2.977 1.356-6.56.119-8.085-4.116-5.073-.614-10.991.52-9.03.534-1.43 2.275-.835 2.207.1 1.134-.527 2.193.723.942 2.291-.663.828.192 1.852.25 4.054.046 1.749 1.25 3.174 3.499 5.554 3.852 4.08-8.852 11.261-7.537 5.116z" style="fill:#40342b"/><linearGradient id="a" x1="67.312" x2="82.107" y1="89.874" y2="89.874" gradientTransform="rotate(-6.174 -438.724 231.668)" gradientUnits="userSpaceOnUse"><stop offset="0" style="stop-color:#735d4e"/><stop offset=".534" style="stop-color:#6f594a"/><stop offset="1" style="stop-color:#655041"/></linearGradient><path d="M58.848 20.258c-1.635 8.506 7.649 20.502-7.55 22.178-4.619.509 4.072 10.744 6.19 8.49 11.823-12.574 4.203-20.747 2.84-29.468-.272-1.742-1.197-2.671-1.48-1.2z" style="fill-rule:evenodd;clip-rule:evenodd;fill:url(#a)"/><path d="M21.741 32.485c1.612-4.175 4.05 4.32 5.797 4.263-3.697 2.8-3.879 2.09-5.797-4.263z" style="fill:#655041"/><linearGradient id="b" x1="36.31" x2="70.465" y1="91.034" y2="95.479" gradientTransform="rotate(-6.174 -438.724 231.668)" gradientUnits="userSpaceOnUse"><stop offset="0" style="stop-color:#917561"/><stop offset="1" style="stop-color:#ab917f"/></linearGradient><path d="M21.48 30.232c-.462-1.899-15.803 1.8-15.58 3.734C8.93 60.2 49.965 52.156 56.133 46.672c-17.226-23.897-30.367 1.173-34.652-16.44z" style="fill:url(#b)"/><linearGradient id="c" x1="29.467" x2="55.735" y1="86.662" y2="106.849" gradientTransform="rotate(-6.174 -438.724 231.668)" gradientUnits="userSpaceOnUse"><stop offset=".295" style="stop-color:#655041"/><stop offset=".623" style="stop-color:#6f594a"/><stop offset="1" style="stop-color:#735d4e"/></linearGradient><path d="M8.452 34.574c-.776-1.779-5.338-3.242-5.376-1.286C2.823 46.58 8.75 55.833 18.833 59.127c16.816 5.493 33.929 4.017 37.3-12.455-21.41-9.383-35.944 14.8-47.68-12.098z" style="fill:url(#c)"/><linearGradient id="d" x1="-8.829" x2="-10.505" y1="-22.03" y2="-29.315" gradientTransform="rotate(10.469 -342.606 221.097)" gradientUnits="userSpaceOnUse"><stop offset="0" style="stop-color:#40342b"/><stop offset=".284" style="stop-color:#44372e"/><stop offset=".56" style="stop-color:#504136"/><stop offset=".833" style="stop-color:#635043"/><stop offset="1" style="stop-color:#735d4e"/></linearGradient><path d="M29.86 35.32c4.256 1.138 4.507 6.31 3.3 5.665.164 1.336-1.342 2.003-1.658 1.305-.626 1.072-1.605.169-1.518-1.727.03-.664-.942 1.196-1.469-1.417-.41-2.036-3.13-2.375-3.102-2.708.127-1.5 2.475-1.647 4.447-1.119z" style="fill:url(#d)"/><linearGradient id="e" x1="47.003" x2="23.488" y1="85.154" y2="85.154" gradientTransform="rotate(-6.569 -361.104 220.106)" gradientUnits="userSpaceOnUse"><stop offset="0" style="stop-color:#40342b"/><stop offset=".009" style="stop-color:#41352c"/><stop offset=".204" style="stop-color:#57473b"/><stop offset=".417" style="stop-color:#675346"/><stop offset=".66" style="stop-color:#705b4c"/><stop offset="1" style="stop-color:#735d4e"/></linearGradient><path d="M12.449 50.297c-2.6-3.88-6.688-5.98-8.328-13.642-1.496-6.986 5.301-4.054 6.706-1.498 2.159 2.89 3.682 6.036 4.017 6.92.78-1.14 5.004-2.312 6.312-3.664 4.351-4.502 9.23.134 7.558 1.328 1.187.75.646 2.775-.136 2.62.414 1.392-.659 2.554-1.944.94-.679-.852-1.557.085-3.405-.02-1.467-.083-2.89 1.844-5.12 4.85-.227.308.82.22.334.579-.287.211-2.037.89-2.39 1.052-.316.146.832.637.476.704-.731.139-1.952-.032-3.157-.555-1.061-.46-.23 1.422-.923.386z" style="fill:url(#e)"/><linearGradient id="f" x1="68.862" x2="91.136" y1="163.876" y2="137.399" gradientTransform="rotate(-13.663 -372.972 232.452)" gradientUnits="userSpaceOnUse"><stop offset=".06" style="stop-color:#735d4e"/><stop offset=".556" style="stop-color:#58483c"/><stop offset=".955" style="stop-color:#40342b"/></linearGradient><path d="M60.373 44.992C56.273 58.662 44.655 62 36.31 62c-6.014 0-6.615-14.37 4.863-20.059 5.268-2.61 8.892-.313 9.7-.274 1.12-2.631 2.495-5.765 1.52-7.597-3.24-6.094 1.292-10.573 2.085-8.361.784-1.181 2.423-.067 2.193.793 1.226-.137 2.07 1.379.545 2.463-.806.572-.128 1.81-.451 3.907-.258 1.666.73 3.37 2.538 6.354.186.305.408-.613.562-.071.09.32.15 2.05.183 2.408.029.32.747-.472.702-.146-.092.67-.422 2.29-1.107 3.186-.525.685.863-.059.729.389z" style="fill:url(#f)"/><path d="M27.501 17.591c-.987-.684-4.49-.659-5.683.61-.333.353 4.448 4.43 4.966 4.161 2.41-1.256 1.858-3.977.717-4.77z" style="fill:#917561"/><linearGradient id="g" x1="25.73" x2="25.73" y1="21.967" y2="18.48" gradientUnits="userSpaceOnUse"><stop offset="0" style="stop-color:#735d4e"/><stop offset=".534" style="stop-color:#6f594a"/><stop offset="1" style="stop-color:#655041"/></linearGradient><path d="M23.74 18.871c-.002 1.085 1.473 3.115 2.505 3.096 2.027-.564 2.606-4.77-2.505-3.096z" style="fill:url(#g)"/><path d="M.975 17.592c.989-.685 4.485-.66 5.681.61.334.354-4.445 4.431-4.966 4.159-2.409-1.255-1.857-3.976-.715-4.769z" style="fill:#917561"/><linearGradient id="h" x1="2.746" x2="2.746" y1="21.968" y2="18.477" gradientUnits="userSpaceOnUse"><stop offset="0" style="stop-color:#735d4e"/><stop offset=".534" style="stop-color:#6f594a"/><stop offset="1" style="stop-color:#655041"/></linearGradient><path d="M4.736 18.87c.001 1.084-1.475 3.116-2.507 3.098-2.027-.565-2.603-4.775 2.507-3.099z" style="fill:url(#h)"/><radialGradient id="i" cx="14.035" cy="30.415" r="13.224" fx="14.049" fy="24.412" gradientTransform="matrix(1.0016 0 0 .9682 .217 -2.908)" gradientUnits="userSpaceOnUse"><stop offset="0" style="stop-color:#ffe6b3"/><stop offset=".235" style="stop-color:#fce3b1"/><stop offset=".417" style="stop-color:#f2d9aa"/><stop offset=".581" style="stop-color:#e2c99e"/><stop offset=".735" style="stop-color:#ccb18d"/><stop offset=".88" style="stop-color:#af9477"/><stop offset="1" style="stop-color:#917561"/></radialGradient><path d="M20.413 14.973a6.96 6.96 0 0 1 .487-.608c.503-.547.323-.683-.568-.658-.589.021-1.357.098-2.193.261a7.34 7.34 0 0 1 .784-1.14c.487-.558.311-.693-.582-.64-1.064.06-2.67.293-4.283.978.056-.189.108-.384.183-.548.31-.664.095-.749-.746-.463-1.695.567-4.326 1.218-7.55 3.813-4.8 3.866-6.138 10.484-5.659 13.343 1.506 8.994 9.611 6.981 13.948 7.14 4.345-.167 12.437 1.853 13.954-7.14.539-3.177-1.412-11.102-7.775-14.338z" style="fill:url(#i)"/><linearGradient id="j" x1="178.365" x2="178.365" y1="-471.161" y2="-485.941" gradientTransform="translate(-164.129 504.972)" gradientUnits="userSpaceOnUse"><stop offset="0" style="stop-color:#cfd8dd;stop-opacity:0"/><stop offset=".565" style="stop-color:#e0e6ea;stop-opacity:.3957"/><stop offset="1" style="stop-color:#e6ebef;stop-opacity:.7"/></linearGradient><path d="M14.237 19.031c-8.916 0-13.006 14.784 0 14.78 13.006.004 8.915-14.78 0-14.78z" style="fill:url(#j)"/><path d="M14.237 26.704c-.722 4.132-3.232 3.921-3.53 3.216 0 1.18 2.02 1.433 3.53-.662 1.509 2.094 3.527 1.844 3.527.662-.3.707-2.804.915-3.527-3.216z" style="fill:#2d2d30"/><path d="M19.02 22.34c-.25.94 4.177 2.206 4.41 1.263.866-3.491-3.545-4.506-4.41-1.263z" style="fill:#655041"/><linearGradient id="k" x1="-235.806" x2="-235.806" y1="-157.472" y2="-161.427" gradientTransform="matrix(.6405 .2801 -.3572 .8168 115.453 218.937)" gradientUnits="userSpaceOnUse"><stop offset="0" style="stop-color:#413f4a"/><stop offset=".177" style="stop-color:#3c3945"/><stop offset=".409" style="stop-color:#2c2937"/><stop offset=".6" style="stop-color:#1a1626"/></linearGradient><path d="M23.43 23.603c-.01.33-.982 1.021-2.528.679-1.983-.439-1.986-1.757-1.881-1.942 1.418-2.506 4.505-1.676 4.41 1.263z" style="fill:url(#k)"/><path d="M21.098 21.982c0 .797-1.239.797-1.239 0s1.24-.797 1.24 0z" style="fill:#6e8189"/><path d="M9.451 22.34c.25.94-4.175 2.206-4.41 1.263-.865-3.491 3.546-4.506 4.41-1.263z" style="fill:#655041"/><linearGradient id="l" x1="-1679.769" x2="-1679.769" y1="337.697" y2="333.742" gradientTransform="matrix(-.6405 .2801 .3572 .8168 -1188.713 218.937)" gradientUnits="userSpaceOnUse"><stop offset="0" style="stop-color:#413f4a"/><stop offset=".177" style="stop-color:#3c3945"/><stop offset=".409" style="stop-color:#2c2937"/><stop offset=".6" style="stop-color:#1a1626"/></linearGradient><path d="M5.042 23.603c.01.33.982 1.021 2.528.679 1.983-.439 1.986-1.757 1.881-1.942-1.418-2.506-4.505-1.676-4.41 1.263z" style="fill:url(#l)"/><path d="M7.374 21.982c0 .797 1.24.797 1.24 0s-1.24-.797-1.24 0z" style="fill:#6e8189"/><radialGradient id="m" cx="40.997" cy="166.886" r="5.49" fx="40.997" fy="165.424" gradientTransform="matrix(.8985 0 0 .3781 -22.6 -38.542)" gradientUnits="userSpaceOnUse"><stop offset="0" style="stop-color:#4b4b52"/><stop offset=".335" style="stop-color:#46464c"/><stop offset=".787" style="stop-color:#36363b"/><stop offset="1" style="stop-color:#2d2d30"/></radialGradient><path d="M14.236 22.17c-1.479 0-3.557 1.507-3.557 3.088 0 1.256 2.831 2.37 3.557 2.37.727 0 3.557-1.114 3.557-2.37 0-1.58-2.076-3.089-3.557-3.089z" style="fill:url(#m)"/><path d="M16.977 25.57c.335-1.328-2.34.544-1.97 1.382.979-.9 1.82-.784 1.97-1.381zm-5.482 0c-.334-1.328 2.341.544 1.97 1.382-.977-.9-1.818-.784-1.97-1.381z" style="opacity:.5;fill:#2d2d30"/><path d="M18.31 26.853c4.563 1.043 7.514 5.254 7.494 5.601-.007.113-2.425-4.099-7.493-5.6z" style="fill:#cfbda9"/><path d="M18.236 26.422c4.975.143 8.752 3.965 8.785 4.335.011.12-3.204-3.814-8.785-4.335z" style="fill:#cfbda9"/><path d="M18.807 26.12c4.728-.35 8.785 1.99 8.873 2.355.028.118-3.547-2.38-8.873-2.355zm-8.642.733c-4.563 1.043-7.514 5.254-7.493 5.601.006.113 2.424-4.099 7.493-5.6z" style="fill:#cfbda9"/><path d="M10.24 26.422c-4.976.143-8.753 3.965-8.786 4.335-.011.12 3.204-3.814 8.785-4.335z" style="fill:#cfbda9"/><path d="M9.668 26.12C4.94 25.77.883 28.11.795 28.475c-.028.118 3.547-2.38 8.873-2.355z" style="fill:#cfbda9"/></svg>