<svg xmlns="http://www.w3.org/2000/svg" xml:space="preserve" style="enable-background:new 0 0 64 64" viewBox="0 0 64 64"><linearGradient id="a" x1="53.37" x2="53.37" y1="8.067" y2="-11.55" gradientTransform="rotate(-3.509 336.536 129.564)" gradientUnits="userSpaceOnUse"><stop offset="0" style="stop-color:#78716c"/><stop offset=".173" style="stop-color:#7f7772"/><stop offset=".419" style="stop-color:#918a85"/><stop offset=".71" style="stop-color:#b0a7a2"/><stop offset="1" style="stop-color:#d6ccc7"/></linearGradient><path d="M47.464 24.272c-.184-8.375-7.336-6.8-7.539-16.216-.059-2.757 2.007-1.19 2.387-.648.28-.478 1.489-.464 2.31.287.485-1.008 2.076-1.218 2.562-.741.515-1.576 3.003-1.945 2.785 2.126-.658 12.286 2.286 9.233 1.403 10.322-1.736 2.141-3.82 8.93-3.908 4.87z" style="fill:url(#a)"/><path d="M47.106 16.93c-3.985-3.778-5.033-9.499-4.794-9.522.078-.008 1.364 4.754 4.794 9.521zm1.602.008c-.738-7.615-1.76-10.041-1.524-9.984.077.019 1.161 1.322 1.524 9.983zm-1.732-2.341c-1.394-4.666-2.622-6.907-2.353-6.902.088.002 1.374 2.115 2.353 6.902z" style="opacity:.2;fill:#78716c"/><linearGradient id="b" x1="60.906" x2="60.906" y1="15.811" y2="-9.06" gradientTransform="rotate(-2.224 372.45 131.667)" gradientUnits="userSpaceOnUse"><stop offset="0" style="stop-color:#78716c"/><stop offset=".173" style="stop-color:#7f7772"/><stop offset=".419" style="stop-color:#918a85"/><stop offset=".71" style="stop-color:#b0a7a2"/><stop offset="1" style="stop-color:#d6ccc7"/></linearGradient><path d="M55.592 27.028c-.98-9.216 10.415-13.928 4.888-22.877-1.619-2.62-2.494-.045-2.502.667-.538-.3-1.598.36-1.869 1.504-1.039-.687-2.572-.034-2.713.674-1.41-1.205-2.923-1.554-1.546 2.753 3.058 9.568-.522 9.232-.979 9.336-2.915.663 5.197 12.411 4.721 7.943z" style="fill:url(#b)"/><path d="M55.457 18.46c3.597-4.648 2.746-13.748 2.521-13.642-.074.034.362 7.978-2.521 13.642zm-1.658.211c-.3-8.45-.229-11.855-.403-11.675-.057.059-.432 2.123.403 11.675zm1.466-2.788c.79-5.296 1.079-9.71.844-9.56-.077.048-.5 4.184-.844 9.56z" style="opacity:.2;fill:#78716c"/><radialGradient id="c" cx="20.988" cy="-45.072" r="33.353" gradientTransform="matrix(1.0032 -.0299 .0215 .9069 5.517 73.103)" gradientUnits="userSpaceOnUse"><stop offset=".324" style="stop-color:#d6ccc7"/><stop offset=".523" style="stop-color:#d3c9c4"/><stop offset=".651" style="stop-color:#cbc1bc"/><stop offset=".76" style="stop-color:#bcb3ae"/><stop offset=".858" style="stop-color:#a79e99"/><stop offset=".947" style="stop-color:#8c847f"/><stop offset="1" style="stop-color:#78716c"/></radialGradient><path d="M5.397 38.92c-.339 1.7 1.713 12.16 7.66 16.5 9.13 6.662 27.264 8.061 34.812.317 9.298-9.54 9.359-21.118 7.186-31.85-.82-4.049-4.239-7.987-8.052-1.624-8.694 14.507-18.792 4.824-20.612 6.5 0 0-.103-1.343-1.527-1.073-.16-.832-.707-.705-.707-.705-3.344-4.593-25.488-.46-18.76 11.935z" style="fill:url(#c)"/><path d="M24.864 27.69c-.154 6.919-3.892 10.092-4.049 9.902-.051-.062 2.695-2.77 4.049-9.902zm1.526 1.072c-2.779 1.098.543 4.463.744 4.33.402-.262-3.005-2.815-.743-4.33zM5.548 39.684c.614 3.734 3.617 5.845 3.656 5.65.079-.386-2.61-2.165-3.656-5.65zm30.287-9.226c5.107 2.022 7.444 8.532 7.216 8.597-.075.022-2.946-5.927-7.216-8.597z" style="opacity:.2;fill:#78716c"/><path d="M35.432 30.548c2.538 1.88 2.81 5.86 2.647 5.867-.054.002-.54-3.383-2.647-5.867zM5.397 38.92c2.814 4.481 7.22 5.775 7.224 5.585.001-.062-4.368-2.039-7.224-5.585z" style="opacity:.2;fill:#78716c"/><linearGradient id="d" x1="44.673" x2="44.673" y1="-104.581" y2="-119.484" gradientTransform="rotate(-12.041 815.207 96.109)" gradientUnits="userSpaceOnUse"><stop offset="0" style="stop-color:#78716c"/><stop offset=".393" style="stop-color:#8b837e"/><stop offset="1" style="stop-color:#a49c97"/></linearGradient><path d="M7.593 47.998c2.686 9.395 8.598 13.161 16.719 11.67.528-.096 1.45-.697 1.499-1.712.039-.82 1.275-1.407 1.126-2.268-.17-.975.68-1.979.615-2.708-.153-1.69-12.602 5.826-19.959-4.981z" style="fill:url(#d)"/><path d="M27.061 52.878c1.258-.176.548.257.203.8-.065.102-.477-.761-.203-.8zm-.539 2.811c1.239-.065.512.33.099.818-.077.092-.376-.804-.099-.818zm-.86 2.265c1.36-.002.03.53-.218.705-.097.069-.06-.704.218-.705z" style="fill:#66605c"/><path d="M25.529 55.271c-5.697 3.192-12.874-.724-12.818-1.04.018-.105 6.65 3.386 12.818 1.04zm-1.324 2.395c-3.747 1.986-9.063-.233-9.01-.505.018-.09 4.553 1.8 9.01.505z" style="opacity:.3;fill:#66605c"/><linearGradient id="e" x1="221.081" x2="239.004" y1="205.933" y2="207.73" gradientTransform="matrix(.0452 -1.0884 -1.1369 -.002 257.557 273.6)" gradientUnits="userSpaceOnUse"><stop offset="0" style="stop-color:#a09893"/><stop offset="1" style="stop-color:#d6ccc7"/></linearGradient><path d="M26.656 28.991c8.737-5.165 4.805-8.816 4.984-13.445.124-3.19 1.963-3.018 2.754-1.601 1.562-.147 1.796 2.145 1.796 2.145 1.122-.23 1.302 2.219 1.302 2.219s1.092.266 1.184 2.171c1.454-1.083 3.162 8.588-4.796 11.795-4.19 1.689-9.335-2.036-7.224-3.284z" style="fill:url(#e)"/><path d="M33.885 19.688c.997-1.975-.99-4.218.51-5.743-1.686 1.143-.307 3.683-.51 5.743zm1.685.963c.911-1.853-.674-3.845.62-4.56-1.313.365-.396 2.598-.62 4.56zm1.054 1.335c1.008-1.772-.202-2.711.868-3.677-1.158.355-.449 2.18-.868 3.677zm1.106 1.774c1.008-1.773-.124-2.314.946-3.28-1.158.355-.527 1.783-.946 3.28z" style="opacity:.2;fill:#78716c"/><path d="M32.602 13.382c1.026-2.166.772-.144 1.147.936.08.23-1.672.171-1.147-.936zm1.97 1.661c1.156-2.221.765-.167.871.924.048.492-1.296-.108-.871-.924zm1.535 1.893c.631-2.152.719-.502.923.531.038.193-1.059-.069-.923-.531zm1.178 2.094c.762-2 .61-.524.813.539.038.199-.98-.102-.813-.538zm1.167 2.01c.441-1.857.474-.562.77.31.055.164-.866.095-.77-.31z" style="fill:#78716c"/><linearGradient id="f" x1="27.816" x2="27.816" y1="-115.03" y2="-136.958" gradientTransform="rotate(-8.795 1015.044 46.717)" gradientUnits="userSpaceOnUse"><stop offset="0" style="stop-color:#b8afaa"/><stop offset=".376" style="stop-color:#b5aca7"/><stop offset=".616" style="stop-color:#ada49f"/><stop offset=".818" style="stop-color:#9e9691"/><stop offset=".997" style="stop-color:#89827d"/><stop offset="1" style="stop-color:#89827d"/></linearGradient><path d="M2 27.225c-.153 18.097 25.406 11.255 21.811-3.034-3.234-12.853-21.699-10.1-21.81 3.034z" style="fill:url(#f)"/><linearGradient id="g" x1=".102" x2=".102" y1="23.767" y2="19.387" gradientTransform="matrix(.9907 .1364 -.1554 1.1288 21.015 -1.018)" gradientUnits="userSpaceOnUse"><stop offset="0" style="stop-color:#615b57"/><stop offset="1" style="stop-color:#615b57;stop-opacity:0"/></linearGradient><path d="M18.214 20.897c-2.332-.396-4.143 2.027-3.17 3.747.683 1.208 4.026 1.709 4.978.707 1.343-1.413.497-4.063-1.808-4.454z" style="fill:url(#g)"/><path d="M17.934 21.995c1.375.205 2.45 1.38 2.129 3.05-.288 1.496-5.077.814-4.978-.707.12-1.841 1.543-2.538 2.849-2.343z" style="fill:#1a1626"/><path d="M17.173 23.135c.122.713-.939.904-1.06.19-.121-.712.94-.902 1.06-.19z" style="fill:#879fa8"/><linearGradient id="h" x1="922.834" x2="922.834" y1="-235.153" y2="-239.51" gradientTransform="matrix(-.8856 .4644 .5292 1.0091 949.657 -163.748)" gradientUnits="userSpaceOnUse"><stop offset="0" style="stop-color:#615b57"/><stop offset="1" style="stop-color:#615b57;stop-opacity:0"/></linearGradient><path d="M5.567 23.17c2.063-1.185 4.566.462 4.218 2.42-.244 1.374-3.223 3.012-4.45 2.402-1.729-.86-1.808-3.648.232-4.821z" style="fill:url(#h)"/><path d="M6.193 24.106c-1.226.673-1.85 2.153-.997 3.613.764 1.306 5.045-1.006 4.45-2.403-.72-1.69-2.289-1.849-3.453-1.21z" style="fill:#1a1626"/><path d="M7.284 24.913c.122.714 1.182.523 1.06-.19-.12-.713-1.18-.522-1.06.19z" style="fill:#879fa8"/><path d="M10.375 32.156c.652 3.834 6.932 2.705 6.28-1.13-.367-2.16-6.647-1.031-6.28 1.13z" style="fill:#1a1626"/><linearGradient id="i" x1="30.948" x2="30.948" y1="-130.912" y2="-138.553" gradientTransform="rotate(-9.915 970.8 49.774)" gradientUnits="userSpaceOnUse"><stop offset="0" style="stop-color:#78716c"/><stop offset=".393" style="stop-color:#8b837e"/><stop offset="1" style="stop-color:#a49c97"/></linearGradient><path d="M12.579 26.094c-3.628.653-6.992 3.72-5.54 6.997 1.162 2.62 6.755.156 6.755.156s6.08.366 6.307-2.504c.286-3.59-3.89-5.302-7.522-4.649z" style="fill:url(#i)"/><path d="M12.666 26.59c-1.195.215-2.13.594-1.948 1.665.145.851 1.996 1.296 2.438 1.217.44-.08 2.034-1.144 1.89-1.995-.183-1.07-1.186-1.101-2.38-.886z" style="fill:#1a1626"/><path d="M12.88 27.85c.239-.043.72 4.24.72 4.24s-.96-4.196-.72-4.24z" style="fill:#1a1626"/><path d="M4.252 17.176c2.784 1.305 4.433 4.059 4.235 4.19-.065.042-1.562-2.268-4.235-4.19zm-1.068 1.949c3.284.525 4.71 2.516 4.55 2.696-.051.058-1.788-1.755-4.55-2.696zm14.29-4.326c-2.19 2.198-2.832 5.365-2.602 5.418.075.018.721-2.678 2.602-5.418zm1.646 1.461c-2.915 1.64-3.599 4.01-3.39 4.123.068.037 1.104-2.275 3.39-4.124zm3.197 9.722c-3.02.488-5.324 2.686-5.166 2.867.051.059 2.092-1.754 5.166-2.867zm1.081 6.506c-2.51-1.961-4.95-1.578-4.88-1.264.024.103 2.148-.097 4.88 1.264zm.626-3.413c-3.235-.783-5.28.511-5.198.739.026.075 2.296-.935 5.198-.739zm-20.639.312c3.002-.596 5.894.668 5.805.893-.028.074-2.547-.919-5.805-.893zm1.129 6.496c1.715-2.72 4.137-3.211 4.173-2.89.012.104-2.052.657-4.173 2.89zM2.8 32.892c2.784-1.866 5.135-1.362 5.133-1.12 0 .08-2.468-.077-5.134 1.12z" style="fill:#615b57"/></svg>