<svg xmlns="http://www.w3.org/2000/svg" xml:space="preserve" viewBox="0 0 64 64"><linearGradient id="a" x1="30.706" x2="30.706" y1="62.001" y2="4" gradientUnits="userSpaceOnUse"><stop offset="0" style="stop-color:#cfd8dd"/><stop offset=".298" style="stop-color:#e0e4e6"/><stop offset=".642" style="stop-color:#ebeced"/><stop offset="1" style="stop-color:#efefef"/></linearGradient><path fill="url(#a)" d="M18.027 40.205c.775-4.283 11.838-14.047 7.335-27.042C22.037 3.567 14.385 2.932 8.96 4.905 3.91 6.74 3.487 11.95 4.456 12.73c7.325 6.212 10.522-2.071 10.522-2.071C26.783 21.133.882 32.876 3.141 49.227c.838 6.094 2.711 8.299 9.696 9.357 27.534 9.281 41.734-2.195 45.576-12.398-.763 0-41.907 2.408-40.386-5.981z"/><linearGradient id="b" x1="13.336" x2="20.085" y1="14.38" y2="13.729" gradientUnits="userSpaceOnUse"><stop offset="0" style="stop-color:#cfd8dd"/><stop offset=".298" style="stop-color:#e0e4e6"/><stop offset=".642" style="stop-color:#ebeced"/><stop offset="1" style="stop-color:#efefef"/></linearGradient><path fill="url(#b)" d="M17.506 19.73s5.003-8.095-2.081-11.303c0 0-.226 2.23-1.489 4.071 5.535-.391 3.57 7.232 3.57 7.232z"/><linearGradient id="c" x1="4.639" x2="7.124" y1="16.709" y2="17.459" gradientUnits="userSpaceOnUse"><stop offset="0" style="stop-color:#ffe354"/><stop offset=".371" style="stop-color:#ffc32f"/><stop offset=".779" style="stop-color:#ffa50d"/><stop offset="1" style="stop-color:#f90"/></linearGradient><path fill="url(#c)" d="M4.087 21.229c-2.303-1.023 1.952-4.251 1.356-8.467 5.672-.435 2.622 3.817-1.356 8.467z"/><path fill="#302C3B" d="M8.81 8.627c-1.686 1.301-1.753 2.925-4.113 3.911-.756.315-1.147 3.043.569 2.648.446-.099.359.626.599.387.852-.866-.651-2.704.386-2.63 5.355.379-1.915 7.377-2.163 8.286 9.474-9.747 1.645-7.144 4.722-12.602z"/><path fill="#302C3B" d="M8.563 11.822c-1.262 0-1.262-2.325 0-2.325s1.261 2.325 0 2.325z"/><path fill="#6E8189" d="M8.393 10.252c0 .407-.527.407-.527 0-.001-.405.527-.405.527 0z"/><path fill="#302C3B" d="M6.197 16.721c-.268.4-.861.012-.558-.358 1.218-1.484 1.515-1.31.558.358z"/><linearGradient id="d" x1="15.83" x2="46.154" y1="42.283" y2="42.283" gradientUnits="userSpaceOnUse"><stop offset="0" style="stop-color:#cfd8dd"/><stop offset=".298" style="stop-color:#e0e4e6"/><stop offset=".642" style="stop-color:#ebeced"/><stop offset="1" style="stop-color:#efefef"/></linearGradient><path fill="url(#d)" d="M46.154 28.912C41.608 53.984 23.5 60.092 15.83 52.754c.748-25.587 24.023-17.299 30.324-23.842z"/><linearGradient id="e" x1="46.348" x2="60.773" y1="40.025" y2="40.025" gradientUnits="userSpaceOnUse"><stop offset=".267" style="stop-color:#cfd8dd"/><stop offset=".52" style="stop-color:#d5dce0"/><stop offset=".853" style="stop-color:#e5e8ea"/><stop offset="1" style="stop-color:#efefef"/></linearGradient><path fill="url(#e)" d="M60.493 31.908c1.009 3.594-.228 17.081-11.875 16.192-8.664-7.594 10.143-7.002 11.875-16.192z"/><linearGradient id="f" x1="43.648" x2="58.072" y1="40.668" y2="40.668" gradientUnits="userSpaceOnUse"><stop offset=".4" style="stop-color:#cfd8dd"/><stop offset=".607" style="stop-color:#d5dce0"/><stop offset=".88" style="stop-color:#e5e8ea"/><stop offset="1" style="stop-color:#efefef"/></linearGradient><path fill="url(#f)" d="M57.792 32.551c1.01 3.596-.227 17.08-11.873 16.191-8.665-7.596 10.142-7.002 11.873-16.191z"/><linearGradient id="g" x1="45.243" x2="61" y1="46.185" y2="46.185" gradientUnits="userSpaceOnUse"><stop offset=".267" style="stop-color:#cfd8dd"/><stop offset=".52" style="stop-color:#d5dce0"/><stop offset=".853" style="stop-color:#e5e8ea"/><stop offset="1" style="stop-color:#efefef"/></linearGradient><path fill="url(#g)" d="M60.952 39.324c.487 3.773-2.622 16.736-13.948 13.078-7.449-9.537 10.955-4.459 13.948-13.078z"/><linearGradient id="h" x1="38.425" x2="58.413" y1="50.772" y2="50.772" gradientUnits="userSpaceOnUse"><stop offset=".267" style="stop-color:#cfd8dd"/><stop offset=".52" style="stop-color:#d5dce0"/><stop offset=".853" style="stop-color:#e5e8ea"/><stop offset="1" style="stop-color:#efefef"/></linearGradient><path fill="url(#h)" d="M38.576 50.215c8.482 14.225 18.271 4.125 19.837-.111-7.361 5.849-21.608-16.398-19.837.111z"/><linearGradient id="i" x1="47.054" x2="56.841" y1="42.162" y2="42.162" gradientUnits="userSpaceOnUse"><stop offset=".151" style="stop-color:#cfd8dd"/><stop offset="1" style="stop-color:#efefef"/></linearGradient><path fill="url(#i)" d="M56.841 38.141c-.326 4.854-3.56 8.256-9.655 8.033-1.203-7.074 6.146-4.01 9.655-8.033z"/><linearGradient id="j" x1="75.728" x2="85.546" y1="89.82" y2="89.82" gradientTransform="matrix(1.2038 .1256 -.1112 1.0654 -35.337 -59.725)" gradientUnits="userSpaceOnUse"><stop offset=".151" style="stop-color:#cfd8dd"/><stop offset="1" style="stop-color:#efefef"/></linearGradient><path fill="url(#j)" d="M58.105 42.393c-.967 5.133-5.263 8.375-12.57 7.418-.614-7.682 7.871-3.547 12.57-7.418z"/><linearGradient id="k" x1="41.205" x2="56.443" y1="50.518" y2="50.518" gradientUnits="userSpaceOnUse"><stop offset=".151" style="stop-color:#cfd8dd"/><stop offset="1" style="stop-color:#efefef"/></linearGradient><path fill="url(#k)" d="M56.443 47.752c-1.034 3.492-6.148 6.998-13.335 4.902-7.188-2.091 7.916-4.459 13.335-4.902z"/><linearGradient id="l" x1="37.589" x2="53.046" y1="54.826" y2="54.826" gradientUnits="userSpaceOnUse"><stop offset=".151" style="stop-color:#cfd8dd"/><stop offset="1" style="stop-color:#efefef"/></linearGradient><path fill="url(#l)" d="M53.046 52.697c-1.314 3.33-6.686 6.104-13.66 3.023-6.976-3.079 8.235-3.333 13.66-3.023z"/><linearGradient id="m" x1="39.449" x2="51.805" y1="33.635" y2="33.635" gradientUnits="userSpaceOnUse"><stop offset=".236" style="stop-color:#cfd8dd"/><stop offset=".733" style="stop-color:#e3e6e8"/><stop offset="1" style="stop-color:#efefef"/></linearGradient><path fill="url(#m)" d="M51.46 27.61c1.876 7.335-4.177 13.316-11.647 11.82-2.641-9.93 9.914-4.076 11.647-11.82z"/><linearGradient id="n" x1="-.673" x2="13.876" y1="93.961" y2="93.961" gradientTransform="rotate(11 311.173 263.587)" gradientUnits="userSpaceOnUse"><stop offset=".4" style="stop-color:#cfd8dd"/><stop offset=".79" style="stop-color:#e3e6e8"/><stop offset="1" style="stop-color:#efefef"/></linearGradient><path fill="url(#n)" d="M52.981 32.268c.113 9.688-9.73 16.111-16.778 13.221-.699-10.253 13.6-5.95 16.778-13.221z"/><linearGradient id="o" x1="7.293" x2="30.328" y1="75.381" y2="75.381" gradientTransform="rotate(6.332 308.714 269.589)" gradientUnits="userSpaceOnUse"><stop offset=".236" style="stop-color:#cfd8dd"/><stop offset=".733" style="stop-color:#e3e6e8"/><stop offset="1" style="stop-color:#efefef"/></linearGradient><path fill="url(#o)" d="M54.519 35.805c-1.095 14.109-19.997 24.729-24.727 14.092 5.05-8.973 17.924-4.612 24.727-14.092z"/><linearGradient id="p" x1="-27.684" x2="-10.094" y1="152.471" y2="152.471" gradientTransform="rotate(19.746 306.532 275.163)" gradientUnits="userSpaceOnUse"><stop offset=".067" style="stop-color:#cfd8dd"/><stop offset=".673" style="stop-color:#e3e6e8"/><stop offset="1" style="stop-color:#efefef"/></linearGradient><path fill="url(#p)" d="M52.587 45.416C49.273 55.703 33.352 60.24 31.723 51.5c5.342-5.77 14.131-.248 20.864-6.084z"/><linearGradient id="q" x1="38.171" x2="50.06" y1="36.842" y2="36.842" gradientUnits="userSpaceOnUse"><stop offset=".236" style="stop-color:#cfd8dd"/><stop offset=".421" style="stop-color:#d8dee2"/><stop offset="1" style="stop-color:#efefef"/></linearGradient><path fill="url(#q)" d="M50.061 32.768c-.508 4.854-5.412 8.559-11.89 8.113 1.3-7.391 8.693-5.613 11.89-8.113z"/><linearGradient id="r" x1="37.767" x2="49.654" y1="40.205" y2="40.205" gradientUnits="userSpaceOnUse"><stop offset=".236" style="stop-color:#cfd8dd"/><stop offset=".421" style="stop-color:#d8dee2"/><stop offset="1" style="stop-color:#efefef"/></linearGradient><path fill="url(#r)" d="M49.654 36.129c-.507 4.855-5.412 8.561-11.888 8.115 1.3-7.392 8.693-5.613 11.888-8.115z"/><linearGradient id="s" x1="36.159" x2="48.794" y1="43.842" y2="43.842" gradientUnits="userSpaceOnUse"><stop offset=".236" style="stop-color:#cfd8dd"/><stop offset=".421" style="stop-color:#d8dee2"/><stop offset="1" style="stop-color:#efefef"/></linearGradient><path fill="url(#s)" d="M48.794 40.668c-1.018 4.717-6.269 7.498-12.635 5.889 2.071-7.088 9.206-3.989 12.635-5.889z"/><linearGradient id="t" x1="34.405" x2="47.438" y1="47.914" y2="47.914" gradientUnits="userSpaceOnUse"><stop offset=".236" style="stop-color:#cfd8dd"/><stop offset=".421" style="stop-color:#d8dee2"/><stop offset="1" style="stop-color:#efefef"/></linearGradient><path fill="url(#t)" d="M47.438 45.313c-1.384 4.555-6.826 6.615-13.033 4.158 2.622-6.77 9.472-2.731 13.033-4.158z"/><linearGradient id="u" x1="31.907" x2="45.211" y1="51.639" y2="51.639" gradientUnits="userSpaceOnUse"><stop offset=".236" style="stop-color:#cfd8dd"/><stop offset=".421" style="stop-color:#d8dee2"/><stop offset="1" style="stop-color:#efefef"/></linearGradient><path fill="url(#u)" d="M45.211 50.057c-1.756 4.332-7.339 5.607-13.304 2.285 3.17-6.358 9.643-1.371 13.304-2.285z"/><linearGradient id="v" x1="28.808" x2="42.22" y1="55.002" y2="55.002" gradientUnits="userSpaceOnUse"><stop offset=".236" style="stop-color:#cfd8dd"/><stop offset=".421" style="stop-color:#d8dee2"/><stop offset="1" style="stop-color:#efefef"/></linearGradient><path fill="url(#v)" d="M42.22 54.4c-2.082 4.08-7.733 4.619-13.412.529 3.644-5.908 9.7-.099 13.412-.529z"/><linearGradient id="w" x1="28.283" x2="44.827" y1="37.547" y2="37.547" gradientUnits="userSpaceOnUse"><stop offset=".158" style="stop-color:#cfd8dd"/><stop offset=".554" style="stop-color:#e0e4e7"/><stop offset="1" style="stop-color:#efefef"/></linearGradient><path fill="url(#w)" d="M44.827 33.03c-.708 5.384-7.531 9.487-16.544 8.995 1.81-8.193 12.097-6.222 16.544-8.995z"/><linearGradient id="x" x1="25.958" x2="43.541" y1="41.647" y2="41.647" gradientUnits="userSpaceOnUse"><stop offset=".158" style="stop-color:#cfd8dd"/><stop offset=".554" style="stop-color:#e0e4e7"/><stop offset="1" style="stop-color:#efefef"/></linearGradient><path fill="url(#x)" d="M43.541 38.129c-1.418 5.227-8.722 8.311-17.583 6.525 2.884-7.851 12.809-4.42 17.583-6.525z"/><linearGradient id="y" x1="23.202" x2="41.336" y1="45.83" y2="45.83" gradientUnits="userSpaceOnUse"><stop offset=".158" style="stop-color:#cfd8dd"/><stop offset=".554" style="stop-color:#e0e4e7"/><stop offset="1" style="stop-color:#efefef"/></linearGradient><path fill="url(#y)" d="M41.336 42.945c-1.926 5.049-9.5 7.334-18.134 4.609 3.647-7.503 13.178-3.025 18.134-4.609z"/><linearGradient id="z" x1="19.725" x2="38.234" y1="49.51" y2="49.51" gradientUnits="userSpaceOnUse"><stop offset=".158" style="stop-color:#cfd8dd"/><stop offset=".554" style="stop-color:#e0e4e7"/><stop offset="1" style="stop-color:#efefef"/></linearGradient><path fill="url(#z)" d="M38.234 47.758c-2.443 4.801-10.209 6.215-18.51 2.533 4.411-7.049 13.419-1.52 18.51-2.533z"/><linearGradient id="A" x1="14.759" x2="33.42" y1="52.928" y2="52.928" gradientUnits="userSpaceOnUse"><stop offset=".158" style="stop-color:#cfd8dd"/><stop offset=".554" style="stop-color:#e0e4e7"/><stop offset="1" style="stop-color:#efefef"/></linearGradient><path fill="url(#A)" d="M33.42 52.262c-2.896 4.521-10.762 5.119-18.661.588 5.067-6.551 13.495-.112 18.661-.588z"/></svg>