<svg xmlns="http://www.w3.org/2000/svg" xml:space="preserve" style="enable-background:new 0 0 64 64" viewBox="0 0 64 64"><path d="M46.302 61.931c17.508.959 22.164-8.39 4.707-8.61-20.734-.26-36.322 6.879-4.707 8.61z" style="fill:#30241d"/><linearGradient id="a" x1="19.293" x2="19.293" y1="61.913" y2="57.268" gradientUnits="userSpaceOnUse"><stop offset="0" style="stop-color:#4d2915"/><stop offset=".197" style="stop-color:#532d18"/><stop offset=".464" style="stop-color:#643a21"/><stop offset=".769" style="stop-color:#814e30"/><stop offset="1" style="stop-color:#9b613d"/></linearGradient><path d="M25.68 60.537c-7.361-.003-9.288 2.019-11.683 1.167-.187-.067-.92.21-2.014-.204-.9-.34-.712-1.403.056-1.417-.599-.366-.49-1.409.108-1.52.116-.32.312-.402.69-.465.084-.155.37-.157.481-.108.23-.281 5.648.677 7.888-.42 3.022-1.481 8.735 2.969 4.475 2.967z" style="fill:url(#a)"/><path d="M11.537 60.357c-.034.433.912.273 1.09.134.71-.55-1.05-.632-1.09-.134zm.271-1.495c-.064.55.928.483 1.122.332.774-.6-1.048-.962-1.122-.332zM13 57.995c-.047.097.33.117.41.096.315-.084-.358-.207-.41-.096z" style="fill:#8f6145"/><path d="M13.404 57.963c-.029.066.248.055.305.036.226-.075-.272-.112-.305-.036zm-.936.251c-.068.254.587.271.722.21.537-.243-.643-.502-.722-.21z" style="fill:#8f6145"/><path d="m5.14 19.788-1.221-.308c-.084 1.42 1.039 2.335 1.306 2.433.104.038.36.04.446-.021.086-.063-.67-.87-.532-2.104z" style="fill:#ddceb1"/><linearGradient id="b" x1="3.904" x2="5.711" y1="30.956" y2="30.956" gradientUnits="userSpaceOnUse"><stop offset="0" style="stop-color:#ad9789"/><stop offset=".195" style="stop-color:#a38e80"/><stop offset=".522" style="stop-color:#8a7669"/><stop offset=".939" style="stop-color:#604f42"/><stop offset="1" style="stop-color:#59493c"/></linearGradient><path d="M5.462 24.562c-.538.537-.402-1.27-.683-1.104-1.096.655-.952 14.904-.684 15.002.102.036 1.137-.167 1.114-1.054-.151-5.881.987-13.576.253-12.844z" style="fill:url(#b)"/><linearGradient id="c" x1="7.182" x2="45.437" y1="16.945" y2="49.222" gradientUnits="userSpaceOnUse"><stop offset=".218" style="stop-color:#bf7b50"/><stop offset=".384" style="stop-color:#b37148"/><stop offset=".684" style="stop-color:#935732"/><stop offset="1" style="stop-color:#6b3716"/></linearGradient><path d="M43.669 23.928c.184-.023 1.274.132.575-.614-2.498-2.662-5.91-3.417-5.515-3.534.333-.1 1.303-.101.331-.53-6.697-2.957-12.458-.758-20.697-7.024.384-.177.548-.258.048-.595-.679-.458-1.73-.605-1.73-.605s1.259-.352.546-.577c-2.725-.862-8.531-.783-14.405 2.967-1.238.79-.492 6.413 1.012 6.618.758.105 3.294 1.057 2.64 1.905-2.588 3.354 2.37.806 4.467 3.89 1.585 2.33 5.71 6.28 5.766 9.21.558 29.202 21.57 28.006 28.878 19.13.158-.194-.148 1.414.6.358 1.255-1.775 1.27-4.21 1.984-6.349.154-.457.313 1.943.715.316 1.171-4.734.28-11.596-.89-15.208-.291-.903 1.032.687.76-.28-1.907-6.753-5.431-9.035-5.085-9.078z" style="fill:url(#c)"/><path d="M3.468 13.02c-.074-.068-2.281.396-1.142 4.098.408-1.234 3.446-1.961 1.142-4.097z" style="fill:#30241d"/><linearGradient id="d" x1="13.764" x2="17.659" y1="15.185" y2="12.931" gradientUnits="userSpaceOnUse"><stop offset="0" style="stop-color:#bf7b50;stop-opacity:0"/><stop offset=".083" style="stop-color:#c68155;stop-opacity:.0831"/><stop offset=".364" style="stop-color:#d89163;stop-opacity:.3642"/><stop offset=".661" style="stop-color:#e39a6b;stop-opacity:.6615"/><stop offset="1" style="stop-color:#e69d6e"/></linearGradient><path d="M14.833 15.89c-1.069-.377-1.222-1.4-1.027-1.89 3.259-7.395 6.792 3.689 1.027 1.89z" style="fill:url(#d)"/><path d="M14.566 15.354c-.788-.275-.546-.767-.404-1.127 2.14-5.384 4.379 2.526.404 1.127z" style="fill:#4d2915"/><linearGradient id="e" x1="3.689" x2="14.416" y1="28.042" y2="28.042" gradientUnits="userSpaceOnUse"><stop offset="0" style="stop-color:#4d2915"/><stop offset=".152" style="stop-color:#673c23"/><stop offset=".404" style="stop-color:#8d5736"/><stop offset=".638" style="stop-color:#a96b44"/><stop offset=".844" style="stop-color:#b9774d"/><stop offset="1" style="stop-color:#bf7b50"/></linearGradient><path d="M13.186 23.397C9.373 29.52 8.9 29.113 6.634 28.5c-.154-2.758-1.707-1.66-2.188-2.315-.96-1.316-1.638-.335-1.415.463-.648-.687-1.342.88-.535 1.585-.712.14-.586 1.305.074 1.607-.606 1.167.67 1.778 2.372 1.997 1.926.247 2.538.764 4.394 2.396 1.226 1.078.52-.339.662-.197 3.021 3.061 7.185 2.194 9.032.76.121-.093-.611 1.642.685.2 1.246-1.388 1.533-4.2 1.602-3.942.105.392.092 1.492.452.12 2.209-8.408-3.632-15.728-8.583-7.778z" style="fill:url(#e)"/><linearGradient id="f" x1="35.79" x2="22.196" y1="56.135" y2="41.14" gradientUnits="userSpaceOnUse"><stop offset="0" style="stop-color:#6b3716"/><stop offset=".003" style="stop-color:#6b3716"/><stop offset=".678" style="stop-color:#a76840"/><stop offset="1" style="stop-color:#bf7b50"/></linearGradient><path d="M23.436 37.248c-.647.517.139.278.679.217.23-.026-2.584 1.04-3.537 2.796-.374.687.144.297.485.188.523-.168-1.826 1.686-2.714 4.492-.19.601 0 .808.581.292.37-.326-1.504 2.169-1.5 7.09 0 1.962.373.733.542.374.152-.323.198 3.653 3.364 6.165 1.6 1.268.414-.585.662-.398 2 1.505 4.387 3.143 6.88 2.903.386-.038-1.618.915.455.535 1.502-.276 4.661-1.078 5.93-4.935.11-.336-.129 2.074.96.208 1.485-2.546 2.276-6.212 2.198-8.625-.023-.675.65 1.618.708-.04.517-14.782-10.385-15.505-15.693-11.261z" style="fill:url(#f)"/><path d="M18.713 14.563c.409 2.837 1.72 4.354 3.96 4.488-1.707-.91-3.05-2.435-3.96-4.488zm8.624 6.77c2.134 1.749 4.066 1.876 5.77.322-1.823.601-3.783.49-5.77-.322zm1.244-1.067c1.568-1.16 3.467-1.684 5.592-1.55-2.53-.98-4.407-.48-5.592 1.55zm3.449.18c1.876-.38 3.81-.034 5.7 1.012-1.937-1.994-3.843-2.352-5.7-1.012zm-8.518-.244c1.358.98 2.413 2.317 3.11 3.933-.279-2.062-1.31-3.385-3.11-3.933zm6.123-2.502c-1.102-.666-2.187-.498-3.247.53 1.069-.54 2.17-.717 3.247-.53zm-3.454-.696c-2.099.058-4.073-.648-5.807-2.07 1.533 2.415 3.466 3.13 5.807 2.07zm2.154 1.79c-1.723.41-3.334.246-4.738-.478 1.227 1.477 2.807 1.656 4.738.478zM44.98 40.422c-.465 2.352.385 3.946 2.595 4.743-1.434-1.242-2.314-2.855-2.595-4.743zm1.93.928a6.063 6.063 0 0 1-1.403-3.164c-.244 1.373.213 2.434 1.404 3.164zm-6.892-13.127c1.236 2.32 1.617 4.874 1.131 7.528 1.619-2.922 1.268-5.444-1.131-7.528zm1.527-1.4c2.161 1.344 3.694 3.348 4.523 5.904.024-3.394-1.466-5.387-4.523-5.904zm1.992 13.496c1.322-2.342 1.184-4.514-.472-6.49.795 2.077.954 4.279.472 6.49zm-1.474-3.207c-.978 2.676-.575 4.847 1.255 6.476-1.018-1.925-1.445-4.124-1.255-6.476zM34.88 21.858c2.276 1.534 4.351 1.526 6.2-.08-1.966.699-4.072.726-6.2.08zm-.707.881c1.712 1.818 2.7 4.02 2.918 6.476.753-2.923-.2-5.093-2.918-6.476zm8.461 7.586a7.798 7.798 0 0 1 2.214 3.82c.119-1.76-.61-3.045-2.214-3.82zm3.631 7.53c.893-1.561.805-3.017-.301-4.347.528 1.393.63 2.87.301 4.347zm-7.684-13.081c1.947.013 3.723.518 5.226 1.482-1.242-1.602-2.981-2.112-5.226-1.482zm.162 5.16c.648-1.143.518-2.429-.425-3.847.483 1.337.627 2.643.425 3.847zm-7.959-5.594c1.34.075 2.517.468 3.465 1.155-.713-1.097-1.868-1.495-3.465-1.155zM10.623 13.375c-1.509 1.256-3.668.885-3.668.885.29-2.341 3.458-2.811 3.668-.885z" style="opacity:.5;fill:#4d2915"/><path d="M10.623 13.375c-.168 1.878-2.209 2.415-3.668.885.474-1.747 2.791-2.087 3.668-.885z" style="fill:#1a1626"/><path d="M8.466 13.753c-.187.526-1 .277-.81-.247.189-.524.996-.277.81.247z" style="fill:#6e8189"/></svg>