<svg xmlns="http://www.w3.org/2000/svg" xml:space="preserve" style="enable-background:new 0 0 64 64" viewBox="0 0 64 64"><path d="M19.452 49.74c3.259 4.325 2.976 6.232 1.684 6.838-1.28.603-3.48.615-3.525 3.052h5.002c3.86 0 4.001-4.436 4.654-10.675 2.195-20.934-17.285-11.782-7.815.785z" style="fill-rule:evenodd;clip-rule:evenodd;fill:#4f413a"/><path d="M18.666 58.498c-.41.097-.645.27-.775.451.054-.242.138-.451.138-.451-.984.235-2.416 1.132-2.416 1.132h2.968c-.253-.307.085-1.132.085-1.132z" style="fill:#bdb9b4"/><path d="M47.997 54.588c2.89.788 2.76 1.93 1.643 2.445-1.11.513-4.067.525-4.108 2.597h4.756c5.053 0 5.67-2.533 5.281-3.68-.504-1.495-1.216-2.605-.186-4.566 9.808-18.72-29.21-2.726-7.386 3.204z" style="fill-rule:evenodd;clip-rule:evenodd;fill:#4f413a"/><path d="M46.445 58.67c-.354.08-.556.225-.67.383.045-.208.12-.384.12-.384-.852.195-2.308.96-2.308.96h2.783c-.217-.26.075-.96.075-.96z" style="fill:#bdb9b4"/><path d="M63.033 39.814c-1.826-4.684-8.754 3.598-7.5 6.32 3.393 7.37 7.795 9.882 7.722 8.25-.153-3.49 1.456-10.263-.222-14.57z" style="fill:#4f413a"/><linearGradient id="a" x1="39.991" x2="37.953" y1="54.761" y2="38.225" gradientUnits="userSpaceOnUse"><stop offset="0" style="stop-color:#4f413a"/><stop offset=".231" style="stop-color:#6e655f"/><stop offset=".461" style="stop-color:#87817d"/><stop offset=".658" style="stop-color:#97938f"/><stop offset=".8" style="stop-color:#9c9995"/></linearGradient><path d="M59.1 51.26c6.516-6.135 5.978-13.288.174-17.793-11.033-8.566-24.79 1.438-42.46 1.438-9.34 0-1.253 13.312 4.357 16.474 5.839 3.288 12.159 2.05 17.779 3.157 8.052 1.586 15.417 1.178 20.15-3.276z" style="fill:url(#a)"/><path d="m7.697 37.763 4.284-1.695c1.385-3.411-4.685-4.77-4.284 1.695z" style="fill:#99a8ae"/><linearGradient id="b" x1="16.209" x2="22.503" y1="47.347" y2="36.555" gradientUnits="userSpaceOnUse"><stop offset="0" style="stop-color:#4f413a"/><stop offset=".231" style="stop-color:#6e655f"/><stop offset=".461" style="stop-color:#87817d"/><stop offset=".658" style="stop-color:#97938f"/><stop offset=".8" style="stop-color:#9c9995"/></linearGradient><path d="M19.394 34.853c-3.132.115-6.824-1.344-9.757.425-5.91 3.567-6.35 10.865-8.62 14.458.917.68 2.207.798 4.052.486.474.76 3.314-1.093 5.741-1.564 5.03-.976 11.016 3.623 13.932 4.78 8.058 3.199 5.975-19-5.348-18.585z" style="fill:url(#b)"/><path d="M4.999 46.73c-1.898.699-2.11.062-1.144-1.433 2.008-3.105 2.331-7.385 7.019-10.314 3.109-1.946 2.272 3.722 2.543 3.618 1.71-.657.125-8.83-2.755-4.27-.676 1.072-5.496 1.625-8.202 10.414-3.399 2.157-1.283 5.236-1.283 5.236 3.371 3.223 10.132-5.466 19.719-4.594-7.453-6.79-12.255 0-15.897 1.342z" style="fill:#e6ebef"/><path d="M1.927 45.126c.666.293.889 3.58-.75 4.855C.49 49.45-.212 47.42.06 46.543c.136-.44 1.648-1.514 1.867-1.417z" style="fill:#4f413a"/><linearGradient id="c" x1="23.997" x2="29.489" y1="62.323" y2="39.335" gradientUnits="userSpaceOnUse"><stop offset=".291" style="stop-color:#4f413a"/><stop offset=".472" style="stop-color:#6a605a"/><stop offset=".691" style="stop-color:#857f7a"/><stop offset=".875" style="stop-color:#96928e"/><stop offset="1" style="stop-color:#9c9995"/></linearGradient><path d="M24.488 52.108c3.26 4.327 2.977 6.232 1.685 6.839-1.283.604-3.481.614-3.527 3.053h5.005c3.86 0 4-4.437 4.652-10.677 2.195-20.933-17.284-11.782-7.815.785z" style="fill-rule:evenodd;clip-rule:evenodd;fill:url(#c)"/><path d="M23.701 60.868c-.408.096-.643.27-.774.451.053-.241.139-.451.139-.451-.985.235-2.418 1.132-2.418 1.132h2.969c-.254-.306.084-1.132.084-1.132z" style="fill:#bdb9b4"/><linearGradient id="d" x1="59.183" x2="54.043" y1="61.62" y2="36.219" gradientUnits="userSpaceOnUse"><stop offset=".291" style="stop-color:#4f413a"/><stop offset=".472" style="stop-color:#6a605a"/><stop offset=".691" style="stop-color:#857f7a"/><stop offset=".875" style="stop-color:#96928e"/><stop offset="1" style="stop-color:#9c9995"/></linearGradient><path d="M52.707 51.994c3.14 2.86 3.822 6.346 2.512 6.952-1.305.605-4.78.615-4.827 3.054h5.934c5.475 0 5.996-3.954 5.54-5.118-.593-1.51-.742-4.725.203-6.83 10.651-23.729-27.048-14.164-9.362 1.942z" style="fill-rule:evenodd;clip-rule:evenodd;fill:url(#d)"/><path d="M51.464 60.868c-.416.096-.655.27-.789.451.056-.241.14-.451.14-.451-.998.235-2.428 1.132-2.428 1.132h2.99c-.256-.306.087-1.132.087-1.132z" style="fill:#bdb9b4"/><radialGradient id="e" cx="-8.021" cy="48.5" r="2.402" gradientTransform="matrix(1.1264 -.0499 -.0499 1.0197 19.656 -7.506)" gradientUnits="userSpaceOnUse"><stop offset=".225" style="stop-color:#9c9995"/><stop offset=".75" style="stop-color:#9c9995;stop-opacity:0"/></radialGradient><path d="M11.057 41.268c.994 3.029-4.607 5.347-5.67 2.264-1.173-3.4 4.65-5.368 5.67-2.264z" style="fill:url(#e)"/><path d="M9.453 41.85c-1.05 1.165-2.799 1.119-2.799 1.119-.038-1.885 2.414-2.618 2.799-1.12z" style="fill:#2d2d30"/><path d="M9.453 41.85c.082 1.504-1.47 2.162-2.799 1.119.175-1.436 1.969-1.97 2.799-1.12z" style="fill:#1a1626"/><path d="M7.79 42.396c-.087.436-.758.333-.667-.104.088-.436.755-.333.668.104z" style="fill:#899ca3"/></svg>