<svg xmlns="http://www.w3.org/2000/svg" xml:space="preserve" style="enable-background:new 0 0 64 64" viewBox="0 0 64 64"><path d="M36.453 55.5c-.443-.177-.525-2.836 1.552-7.224-1.698-.768-3.344.583-3.344.583.15 5.662-1.827 6.31-2.328 6.598-2.588 1.485-5.734 1.596-6.644 2.522-.162.165-.235.854-.006.91.932.225 4.606-.375 6.208-.946-1.028.69-.543 1.343-.291 1.343.254 0 3.174-1.115 3.564-1.512 1.646.028 3.748.326 5.138.583.626.117 1.17-.467.527-.885-.858-.562-2.469-1.214-4.376-1.972z" style="fill:#bf581b"/><path d="M26.028 57.978c-.833.067-1.399 1.384-1.399 1.384s.963-.44 1.393-.473c.601-.047.243-.928.006-.91zm5.491.397c-.55.386-.962 1.287-.962 1.287l1.447-.52c.565-.205-.293-.902-.485-.767zm9.308-.793c.55.385.955.984.955.984s-.856-.087-1.26-.232c-.564-.203.113-.887.305-.752z" style="fill:#1a1626"/><linearGradient id="a" x1="22.079" x2="17.826" y1="26.68" y2="-.285" gradientUnits="userSpaceOnUse"><stop offset=".194" style="stop-color:#99a8ae"/><stop offset=".445" style="stop-color:#96a5ab"/><stop offset=".658" style="stop-color:#8c9aa1"/><stop offset=".857" style="stop-color:#7b8991"/><stop offset="1" style="stop-color:#6a7780"/></linearGradient><path d="M22.261 44.002C9.096 41.758 8.89 29.016 16.687 23.329c3.74-2.728 4.128-7.342.745-5.734-4.62 2.198-1.229-10.62-3.95-11.261-.83-.195-.339-3.167 2.926-3.988C24.418.332 35.15 7.43 29.996 15.593c-2.09 3.308-2.607 7.693.85 7.062 4.479-.816-6.187 21.756-8.585 21.347z" style="fill:url(#a)"/><path d="M11.445 24.064c2.389-1.275 2.777-4.431 8.693-5.806 6.21-1.444 5.69-9.032 2.489-12.915-12.23 4.906-15.388 16.446-15.388 16.446s2.864 2.118 4.206 2.275z" style="fill:#d4c9b8"/><path d="M11.445 24.064c-2.428 1.366-4.697-.111-4.697-.111l2.172-2.57s1.881 2.24 2.525 2.681z" style="fill:#b55801"/><linearGradient id="b" x1="49.498" x2="26.004" y1="47.543" y2="26.871" gradientUnits="userSpaceOnUse"><stop offset="0" style="stop-color:#6a7780"/><stop offset=".177" style="stop-color:#7b8991"/><stop offset=".424" style="stop-color:#8c9aa1"/><stop offset=".689" style="stop-color:#96a5ab"/><stop offset="1" style="stop-color:#99a8ae"/></linearGradient><path d="M21.164 43.329c6.755 6.205 33.1 8.538 37.946-7.383-8.37-5.47-8.932-13.168-21.507-13.693-17.11-.715-27.283 11.115-16.439 21.076z" style="fill:url(#b)"/><path d="M19.49 42.253c7.049 7.742 31.48 10.886 38.27-3.182-9.389 10.4-30.491 8.113-38.27 3.182z" style="fill:#99a8ae"/><linearGradient id="c" x1="2" x2="10.128" y1="20.214" y2="20.214" gradientUnits="userSpaceOnUse"><stop offset="0" style="stop-color:#f59e01"/><stop offset=".213" style="stop-color:#f58f01"/><stop offset=".714" style="stop-color:#f57201"/><stop offset="1" style="stop-color:#f56701"/></linearGradient><path d="M10.058 20.002c-1.518 2.993-5.03 5.241-1.425 7.095-9.084.967-8.58-13.811-.064-13.811.588 0 1.873 5.959 1.489 6.716z" style="fill:url(#c)"/><linearGradient id="d" x1="7.9" x2="23.694" y1="11.838" y2="11.838" gradientUnits="userSpaceOnUse"><stop offset="0" style="stop-color:#fff5e6"/><stop offset=".328" style="stop-color:#f5eadb"/><stop offset=".905" style="stop-color:#d9cebd"/><stop offset="1" style="stop-color:#d4c9b8"/></linearGradient><path d="M10.058 20.002c3.404-2.541 9.573-2.273 12.226-6.359 3.737-5.76-.214-14.376-8.801-7.31-.836.687-.129 2.082-1.042 3.362-.57.802-1.327 2-2.082 2.01-.47.007-.47.967-.706.898-.844-.25-.98.538-1.084.683-2.062 2.798 1.28 4.598 1.489 6.716z" style="fill:url(#d)"/><path d="M9.555 17.275c-.602-1.088.943-1.858.795-1.628-.462.706-.664 1.864-.795 1.628z" style="fill:#302c3b"/><linearGradient id="e" x1="35.872" x2="35.872" y1="61.625" y2="50.378" gradientUnits="userSpaceOnUse"><stop offset="0" style="stop-color:#f57701"/><stop offset=".211" style="stop-color:#e87207"/><stop offset=".602" style="stop-color:#c56416"/><stop offset="1" style="stop-color:#9c5328"/></linearGradient><path d="M38.997 57.839c-.443-.178-.526-2.836 1.551-7.224-1.697-.77-3.342.582-3.342.582.148 5.662-1.828 6.31-2.329 6.598-2.59 1.486-5.734 1.596-6.644 2.522-.162.164-.236.855-.006.91.932.225 4.605-.375 6.207-.946-1.026.69-.542 1.344-.29 1.344.254 0 3.174-1.116 3.563-1.513 1.646.028 3.749.325 5.14.583.625.117 1.168-.467.527-.885-.86-.561-2.47-1.214-4.377-1.971z" style="fill:url(#e)"/><path d="M28.572 60.317c-.833.066-1.399 1.383-1.399 1.383s.964-.44 1.393-.474c.601-.046.244-.927.006-.909zm5.491.396C33.513 61.099 33.1 62 33.1 62l1.448-.52c.564-.204-.294-.902-.486-.767zm9.309-.793c.55.386.955.985.955.985s-.857-.087-1.26-.232c-.565-.204.113-.888.305-.753z" style="fill:#1a1626"/><linearGradient id="f" x1="39.166" x2="13.112" y1="53.269" y2="5.074" gradientUnits="userSpaceOnUse"><stop offset="0" style="stop-color:#6a7780"/><stop offset=".141" style="stop-color:#7b8991"/><stop offset=".337" style="stop-color:#8c9aa1"/><stop offset=".547" style="stop-color:#96a5ab"/><stop offset=".794" style="stop-color:#99a8ae"/></linearGradient><path d="M41.623 49.912c-1.018 3.387-3.369.553-4.417 1.285-10.99-5.204-8.817-11.017-3.494-9.79 4.457 1.027 8.558 6.356 7.911 8.505z" style="fill:url(#f)"/><linearGradient id="g" x1="289.011" x2="306.155" y1="-417.53" y2="-417.53" gradientTransform="rotate(28.967 -713.7 -697.98)" gradientUnits="userSpaceOnUse"><stop offset="0" style="stop-color:#e8dcca"/><stop offset=".516" style="stop-color:#f6ebdb"/><stop offset="1" style="stop-color:#fff5e6"/></linearGradient><path d="M46.557 34.422c-9.183 12.127-19.897 10.021-21.694 3.793 7.432-13.534 16.746-2.15 21.694-3.793z" style="fill:url(#g)"/><linearGradient id="h" x1="297.932" x2="307.358" y1="-419.452" y2="-419.452" gradientTransform="rotate(28.967 -713.7 -697.98)" gradientUnits="userSpaceOnUse"><stop offset="0" style="stop-color:#e8dcca"/><stop offset=".516" style="stop-color:#f6ebdb"/><stop offset="1" style="stop-color:#fff5e6"/></linearGradient><path d="M45.986 37.937c-1.835 2.684-6.371 2.86-10.725-.088 3.16-3.867 7.746.255 10.725.088z" style="fill:url(#h)"/><linearGradient id="i" x1="296.632" x2="306.711" y1="-416.979" y2="-416.979" gradientTransform="rotate(28.967 -713.7 -697.98)" gradientUnits="userSpaceOnUse"><stop offset="0" style="stop-color:#e8dcca"/><stop offset=".516" style="stop-color:#f6ebdb"/><stop offset="1" style="stop-color:#fff5e6"/></linearGradient><path d="M43.94 40.296c-2.15 2.389-6.64 1.872-10.564-1.725 3.602-3.362 7.603 1.436 10.565 1.725z" style="fill:url(#i)"/><linearGradient id="j" x1="295.085" x2="305.523" y1="-414.546" y2="-414.546" gradientTransform="rotate(28.967 -713.7 -697.98)" gradientUnits="userSpaceOnUse"><stop offset="0" style="stop-color:#e8dcca"/><stop offset=".516" style="stop-color:#f6ebdb"/><stop offset="1" style="stop-color:#fff5e6"/></linearGradient><path d="M41.513 42.228c-2.355 2.143-6.761 1.117-10.313-2.92 3.89-2.947 7.405 2.297 10.313 2.92z" style="fill:url(#j)"/><linearGradient id="k" x1="293.122" x2="303.813" y1="-412.409" y2="-412.409" gradientTransform="rotate(28.967 -713.7 -697.98)" gradientUnits="userSpaceOnUse"><stop offset="0" style="stop-color:#e8dcca"/><stop offset=".516" style="stop-color:#f6ebdb"/><stop offset="1" style="stop-color:#fff5e6"/></linearGradient><path d="M38.637 43.894c-2.542 1.854-6.804.304-9.923-4.148 4.142-2.475 7.105 3.179 9.923 4.148z" style="fill:url(#k)"/><linearGradient id="l" x1="290.288" x2="301.106" y1="-410.435" y2="-410.435" gradientTransform="rotate(28.967 -713.7 -697.98)" gradientUnits="userSpaceOnUse"><stop offset="0" style="stop-color:#e8dcca"/><stop offset=".516" style="stop-color:#f6ebdb"/><stop offset="1" style="stop-color:#fff5e6"/></linearGradient><path d="M34.996 44.882c-2.693 1.57-6.778-.45-9.466-5.238 4.334-2.014 6.758 3.957 9.466 5.238z" style="fill:url(#l)"/><linearGradient id="m" x1="236.966" x2="248.334" y1="642.24" y2="642.24" gradientTransform="scale(1 -1) rotate(-42.146 -730.261 548.609)" gradientUnits="userSpaceOnUse"><stop offset="0" style="stop-color:#e8dcca"/><stop offset=".516" style="stop-color:#f6ebdb"/><stop offset="1" style="stop-color:#fff5e6"/></linearGradient><path d="M56.188 40.776c3.747-6.079-4.62-11.836-4.62-11.836-1.944 4.367 4.71 8.718 4.62 11.836z" style="fill:url(#m)"/><linearGradient id="n" x1="-598.063" x2="-588.616" y1="1047.093" y2="1047.093" gradientTransform="matrix(.4682 1.4769 .9861 -.2099 -698.57 1131.497)" gradientUnits="userSpaceOnUse"><stop offset="0" style="stop-color:#e8dcca"/><stop offset=".402" style="stop-color:#ebdfcd"/><stop offset=".733" style="stop-color:#f3e8d7"/><stop offset="1" style="stop-color:#fff5e6"/></linearGradient><path d="M58.398 42.38c3.934-6.737-4.017-13.33-6.83-13.44.412 4.246 6.52 8.99 6.83 13.44z" style="fill:url(#n)"/><linearGradient id="o" x1="-598.233" x2="-589.331" y1="1048.02" y2="1048.02" gradientTransform="matrix(.4682 1.4769 .9861 -.2099 -698.57 1131.497)" gradientUnits="userSpaceOnUse"><stop offset="0" style="stop-color:#e8dcca"/><stop offset=".753" style="stop-color:#f9eede"/><stop offset="1" style="stop-color:#fff5e6"/></linearGradient><path d="M59.97 40.919c3.395-6.201-3.741-15.033-8.402-11.979 1.649 2.196 8.094 7.528 8.403 11.979z" style="fill:url(#o)"/><linearGradient id="p" x1="-345.489" x2="-336.167" y1="917.01" y2="917.01" gradientTransform="matrix(.705 1.2 .9016 -.4451 -528.828 850.083)" gradientUnits="userSpaceOnUse"><stop offset="0" style="stop-color:#e8dcca"/><stop offset=".516" style="stop-color:#f6ebdb"/><stop offset="1" style="stop-color:#fff5e6"/></linearGradient><path d="M61.672 38.165c2.084-6.82-6.304-12.94-10.104-9.225 4.439-.096 8.696 4.802 10.104 9.225z" style="fill:url(#p)"/><linearGradient id="q" x1="236.863" x2="246.64" y1="647.99" y2="647.99" gradientTransform="scale(1 -1) rotate(-42.146 -730.261 548.609)" gradientUnits="userSpaceOnUse"><stop offset="0" style="stop-color:#e8dcca"/><stop offset=".516" style="stop-color:#f6ebdb"/><stop offset="1" style="stop-color:#fff5e6"/></linearGradient><path d="M61.472 32.413c.142-5.425-7.429-7.767-9.904-3.473 3.62-1.613 8.207.782 9.904 3.473z" style="fill:url(#q)"/><path d="M7.3 24.233c4.145-7.241 12.404-5.207 14.983-10.59C18.189 18.476 9.415 16.32 7.3 24.233z" style="fill:#8c2a1c"/><path d="M18.654 8.991c.363 2.868-3.037 3.248-4.178 1.738.289-2.592 2.987-2.293 4.178-1.738z" style="fill:#1a1626"/><path d="M18.131 9.26c.676 1.982-2.377 3.053-3.097 1.089-.683-1.863 2.434-3.033 3.097-1.088z" style="fill:#dec364"/><path d="M17.3 9.795c.047 1.005-1.49 1.049-1.537.044-.046-1.002 1.49-1.046 1.538-.044z" style="fill:#1a1626"/><path d="M17.672 9.28c.034.584-.821.598-.855.015-.033-.582.821-.596.855-.015z" style="fill:#fff"/><path d="M18.654 8.991c-1.036-1.93-4.688-1.034-4.178 1.738.702-2.073 2.707-2.323 4.178-1.738z" style="fill:#bdb19f"/></svg>