<svg xmlns="http://www.w3.org/2000/svg" xml:space="preserve" style="enable-background:new 0 0 64 64" viewBox="0 0 64 64"><linearGradient id="a" x1="1030.715" x2="1030.715" y1="-688.862" y2="-700.041" gradientTransform="rotate(-162.002 586.956 -240.227)" gradientUnits="userSpaceOnUse"><stop offset="0" style="stop-color:#ab0000"/><stop offset=".244" style="stop-color:#ae0000"/><stop offset=".454" style="stop-color:#b90000"/><stop offset=".651" style="stop-color:#cb0000"/><stop offset=".84" style="stop-color:#e30000"/><stop offset="1" style="stop-color:red"/></linearGradient><path d="M23.28 58.68c-.72 2.19 3.49 2.83 2.6-.94-.96-4.07.45-8.39.45-8.39s-1.41 4.32-4.6 7.06c-2.95 2.52.83 4.46 1.55 2.27z" style="fill:url(#a)"/><linearGradient id="b" x1="1030.715" x2="1030.715" y1="-688.297" y2="-700.187" gradientTransform="rotate(-162.002 586.956 -240.227)" gradientUnits="userSpaceOnUse"><stop offset=".198" style="stop-color:#ab0000"/><stop offset=".442" style="stop-color:#c90000"/><stop offset=".809" style="stop-color:#f00000"/><stop offset="1" style="stop-color:red"/></linearGradient><path d="M26.83 49.38c-1.75 5.34-1.77 7.87-2.4 9.8-.57 1.74-2.95.98-2.38-.77.6-1.83 2.11-3.99 3.86-9.33.18-.57 1.11-.27.92.3z" style="fill:url(#b)"/><linearGradient id="c" x1="147.084" x2="147.084" y1="191.748" y2="180.569" gradientTransform="rotate(17.998 651.468 -242.179)" gradientUnits="userSpaceOnUse"><stop offset="0" style="stop-color:#ab0000"/><stop offset=".244" style="stop-color:#ae0000"/><stop offset=".454" style="stop-color:#b90000"/><stop offset=".651" style="stop-color:#cb0000"/><stop offset=".84" style="stop-color:#e30000"/><stop offset="1" style="stop-color:red"/></linearGradient><path d="M40.72 5.32c.72-2.19-3.49-2.83-2.6.94.96 4.07-.45 8.39-.45 8.39s1.41-4.32 4.6-7.06c2.95-2.52-.83-4.46-1.55-2.27z" style="fill:url(#c)"/><linearGradient id="d" x1="147.085" x2="147.085" y1="192.314" y2="180.424" gradientTransform="rotate(17.998 651.468 -242.179)" gradientUnits="userSpaceOnUse"><stop offset=".198" style="stop-color:#ab0000"/><stop offset=".442" style="stop-color:#c90000"/><stop offset=".809" style="stop-color:#f00000"/><stop offset="1" style="stop-color:red"/></linearGradient><path d="M37.17 14.62c1.75-5.34 1.77-7.87 2.4-9.8.57-1.74 2.95-.98 2.38.77-.6 1.83-2.11 3.99-3.86 9.33-.18.57-1.11.27-.92-.3z" style="fill:url(#d)"/><linearGradient id="e" x1="693.389" x2="693.389" y1="-867.449" y2="-878.67" gradientTransform="rotate(-126.001 587.125 -240.097)" gradientUnits="userSpaceOnUse"><stop offset="0" style="stop-color:#ab0000"/><stop offset=".244" style="stop-color:#ae0000"/><stop offset=".454" style="stop-color:#b90000"/><stop offset=".651" style="stop-color:#cb0000"/><stop offset=".84" style="stop-color:#e30000"/><stop offset="1" style="stop-color:red"/></linearGradient><path d="M9.16 48.49c-1.88 1.35 1.15 4.33 2.66.76 1.63-3.86 5.33-6.53 5.33-6.53s-3.7 2.67-7.9 3.02c-3.88.32-1.97 4.1-.09 2.75z" style="fill:url(#e)"/><linearGradient id="f" x1="693.39" x2="693.39" y1="-866.881" y2="-878.815" gradientTransform="rotate(-126.001 587.125 -240.097)" gradientUnits="userSpaceOnUse"><stop offset=".198" style="stop-color:#ab0000"/><stop offset=".442" style="stop-color:#c90000"/><stop offset=".809" style="stop-color:#f00000"/><stop offset="1" style="stop-color:red"/></linearGradient><path d="M17.53 43.04c-4.57 3.3-6.09 5.33-7.74 6.53-1.49 1.08-2.97-.94-1.47-2.01 1.57-1.13 4.07-2 8.64-5.3.49-.35 1.06.43.57.78z" style="fill:url(#f)"/><linearGradient id="g" x1="485.317" x2="485.317" y1="370.72" y2="359.498" gradientTransform="rotate(53.999 608.977 -234.257)" gradientUnits="userSpaceOnUse"><stop offset="0" style="stop-color:#ab0000"/><stop offset=".244" style="stop-color:#ae0000"/><stop offset=".454" style="stop-color:#b90000"/><stop offset=".651" style="stop-color:#cb0000"/><stop offset=".84" style="stop-color:#e30000"/><stop offset="1" style="stop-color:red"/></linearGradient><path d="M54.84 15.51c1.88-1.35-1.15-4.33-2.66-.76-1.63 3.86-5.33 6.53-5.33 6.53s3.7-2.67 7.9-3.02c3.88-.32 1.97-4.1.09-2.75z" style="fill:url(#g)"/><linearGradient id="h" x1="485.318" x2="485.318" y1="371.288" y2="359.354" gradientTransform="rotate(53.999 608.977 -234.257)" gradientUnits="userSpaceOnUse"><stop offset=".198" style="stop-color:#ab0000"/><stop offset=".442" style="stop-color:#c90000"/><stop offset=".809" style="stop-color:#f00000"/><stop offset="1" style="stop-color:red"/></linearGradient><path d="M46.47 20.96c4.57-3.3 6.09-5.33 7.74-6.53 1.49-1.08 2.97.94 1.47 2.01-1.57 1.13-4.07 2-8.64 5.3-.49.35-1.06-.43-.57-.78z" style="fill:url(#h)"/><linearGradient id="i" x1="315.069" x2="315.069" y1="-813.78" y2="-825.023" gradientTransform="rotate(-90 587.25 -240.18)" gradientUnits="userSpaceOnUse"><stop offset="0" style="stop-color:#ab0000"/><stop offset=".244" style="stop-color:#ae0000"/><stop offset=".454" style="stop-color:#b90000"/><stop offset=".651" style="stop-color:#cb0000"/><stop offset=".84" style="stop-color:#e30000"/><stop offset="1" style="stop-color:red"/></linearGradient><path d="M3.77 32c-2.32 0-1.63 4.17 1.71 2.17C9.08 32 13.65 32 13.65 32s-4.57 0-8.17-2.17C2.14 27.83 1.45 32 3.77 32z" style="fill:url(#i)"/><linearGradient id="j" x1="315.069" x2="315.069" y1="-813.211" y2="-825.172" gradientTransform="rotate(-90 587.25 -240.18)" gradientUnits="userSpaceOnUse"><stop offset=".198" style="stop-color:#ab0000"/><stop offset=".442" style="stop-color:#c90000"/><stop offset=".809" style="stop-color:#f00000"/><stop offset="1" style="stop-color:red"/></linearGradient><path d="M13.76 32.48c-5.65 0-8.08.76-10.12.76-1.84 0-1.85-2.49 0-2.49 1.94 0 4.48.76 10.12.76.61.01.61.97 0 .97z" style="fill:url(#j)"/><linearGradient id="k" x1="863.723" x2="863.723" y1="316.506" y2="305.263" gradientTransform="rotate(90 599.29 -232.433)" gradientUnits="userSpaceOnUse"><stop offset="0" style="stop-color:#ab0000"/><stop offset=".244" style="stop-color:#ae0000"/><stop offset=".454" style="stop-color:#b90000"/><stop offset=".651" style="stop-color:#cb0000"/><stop offset=".84" style="stop-color:#e30000"/><stop offset="1" style="stop-color:red"/></linearGradient><path d="M60.23 32c2.32 0 1.63-4.17-1.71-2.17C54.92 32 50.35 32 50.35 32s4.57 0 8.17 2.17c3.34 2 4.03-2.17 1.71-2.17z" style="fill:url(#k)"/><linearGradient id="l" x1="863.723" x2="863.723" y1="317.075" y2="305.114" gradientTransform="rotate(90 599.29 -232.433)" gradientUnits="userSpaceOnUse"><stop offset=".198" style="stop-color:#ab0000"/><stop offset=".442" style="stop-color:#c90000"/><stop offset=".809" style="stop-color:#f00000"/><stop offset="1" style="stop-color:red"/></linearGradient><path d="M50.24 31.52c5.65 0 8.08-.76 10.12-.76 1.84 0 1.85 2.49 0 2.49-1.94 0-4.48-.76-10.12-.76-.61-.01-.61-.97 0-.97z" style="fill:url(#l)"/><linearGradient id="m" x1="40.805" x2="40.805" y1="-547.854" y2="-559.075" gradientTransform="rotate(-53.999 587.507 -240.042)" gradientUnits="userSpaceOnUse"><stop offset="0" style="stop-color:#ab0000"/><stop offset=".244" style="stop-color:#ae0000"/><stop offset=".454" style="stop-color:#b90000"/><stop offset=".651" style="stop-color:#cb0000"/><stop offset=".84" style="stop-color:#e30000"/><stop offset="1" style="stop-color:red"/></linearGradient><path d="M9.16 15.51c-1.88-1.35-3.79 2.43.1 2.75 4.19.35 7.9 3.02 7.9 3.02s-3.7-2.67-5.33-6.53c-1.52-3.56-4.55-.59-2.67.76z" style="fill:url(#m)"/><linearGradient id="n" x1="40.805" x2="40.805" y1="-547.286" y2="-559.22" gradientTransform="rotate(-53.999 587.507 -240.042)" gradientUnits="userSpaceOnUse"><stop offset=".198" style="stop-color:#ab0000"/><stop offset=".442" style="stop-color:#c90000"/><stop offset=".809" style="stop-color:#f00000"/><stop offset="1" style="stop-color:red"/></linearGradient><path d="M16.96 21.74c-4.57-3.3-6.98-4.1-8.64-5.3-1.49-1.08-.02-3.09 1.47-2.02 1.57 1.13 3.17 3.23 7.74 6.53.49.36-.08 1.15-.57.79z" style="fill:url(#n)"/><linearGradient id="o" x1="1138.249" x2="1138.249" y1="50.358" y2="39.136" gradientTransform="rotate(126.001 594.507 -231.512)" gradientUnits="userSpaceOnUse"><stop offset="0" style="stop-color:#ab0000"/><stop offset=".244" style="stop-color:#ae0000"/><stop offset=".454" style="stop-color:#b90000"/><stop offset=".651" style="stop-color:#cb0000"/><stop offset=".84" style="stop-color:#e30000"/><stop offset="1" style="stop-color:red"/></linearGradient><path d="M54.84 48.49c1.88 1.35 3.79-2.43-.1-2.75-4.2-.35-7.9-3.02-7.9-3.02s3.7 2.67 5.33 6.53c1.52 3.56 4.55.59 2.67-.76z" style="fill:url(#o)"/><linearGradient id="p" x1="1138.249" x2="1138.249" y1="50.925" y2="38.991" gradientTransform="rotate(126.001 594.507 -231.512)" gradientUnits="userSpaceOnUse"><stop offset=".198" style="stop-color:#ab0000"/><stop offset=".442" style="stop-color:#c90000"/><stop offset=".809" style="stop-color:#f00000"/><stop offset="1" style="stop-color:red"/></linearGradient><path d="M47.04 42.26c4.57 3.3 6.99 4.1 8.64 5.3 1.49 1.08.02 3.09-1.47 2.02-1.57-1.13-3.17-3.23-7.74-6.53-.49-.36.08-1.15.57-.79z" style="fill:url(#p)"/><linearGradient id="q" x1="-25.043" x2="-25.043" y1="-171.676" y2="-182.855" gradientTransform="rotate(-17.998 588.945 -240.639)" gradientUnits="userSpaceOnUse"><stop offset="0" style="stop-color:#ab0000"/><stop offset=".244" style="stop-color:#ae0000"/><stop offset=".454" style="stop-color:#b90000"/><stop offset=".651" style="stop-color:#cb0000"/><stop offset=".84" style="stop-color:#e30000"/><stop offset="1" style="stop-color:red"/></linearGradient><path d="M23.28 5.32c-.72-2.19-4.5-.25-1.55 2.28 3.19 2.73 4.6 7.05 4.6 7.05s-1.41-4.32-.45-8.39c.89-3.76-3.32-3.13-2.6-.94z" style="fill:url(#q)"/><linearGradient id="r" x1="-25.044" x2="-25.044" y1="-171.11" y2="-183" gradientTransform="rotate(-17.998 588.945 -240.639)" gradientUnits="userSpaceOnUse"><stop offset=".198" style="stop-color:#ab0000"/><stop offset=".442" style="stop-color:#c90000"/><stop offset=".809" style="stop-color:#f00000"/><stop offset="1" style="stop-color:red"/></linearGradient><path d="M25.9 14.92c-1.75-5.34-3.22-7.4-3.86-9.33-.57-1.74 1.81-2.51 2.38-.77.6 1.83.65 4.46 2.4 9.8.19.57-.73.87-.92.3z" style="fill:url(#r)"/><linearGradient id="s" x1="1203.564" x2="1203.564" y1="-326.474" y2="-337.653" gradientTransform="rotate(162.002 590.858 -230.887)" gradientUnits="userSpaceOnUse"><stop offset="0" style="stop-color:#ab0000"/><stop offset=".244" style="stop-color:#ae0000"/><stop offset=".454" style="stop-color:#b90000"/><stop offset=".651" style="stop-color:#cb0000"/><stop offset=".84" style="stop-color:#e30000"/><stop offset="1" style="stop-color:red"/></linearGradient><path d="M40.72 58.68c.72 2.19 4.5.25 1.55-2.28-3.19-2.73-4.6-7.05-4.6-7.05s1.41 4.32.45 8.39c-.89 3.76 3.32 3.13 2.6.94z" style="fill:url(#s)"/><linearGradient id="t" x1="1203.564" x2="1203.564" y1="-325.909" y2="-337.799" gradientTransform="rotate(162.002 590.858 -230.887)" gradientUnits="userSpaceOnUse"><stop offset=".198" style="stop-color:#ab0000"/><stop offset=".442" style="stop-color:#c90000"/><stop offset=".809" style="stop-color:#f00000"/><stop offset="1" style="stop-color:red"/></linearGradient><path d="M38.1 49.08c1.75 5.34 3.22 7.4 3.86 9.33.57 1.74-1.81 2.51-2.38.77-.6-1.83-.65-4.46-2.4-9.8-.19-.57.73-.87.92-.3z" style="fill:url(#t)"/><radialGradient id="u" cx="55.847" cy="13.307" r="20.95" gradientTransform="matrix(1.0557 0 0 1.0637 -27.003 17.946)" gradientUnits="userSpaceOnUse"><stop offset="0" style="stop-color:#505966"/><stop offset=".343" style="stop-color:#525b68"/><stop offset=".524" style="stop-color:#5a6370"/><stop offset=".668" style="stop-color:#67707e"/><stop offset=".791" style="stop-color:#798391"/><stop offset=".901" style="stop-color:#919aa9"/><stop offset="1" style="stop-color:#adb7c7"/></radialGradient><path d="M54.11 31.56c0 4.05-.48 8.04-2.35 11.31-1.94 3.37-5.15 5.85-8.5 7.8-3.25 1.89-6.93 3.67-10.95 3.67S24.36 53 21.11 51.1c-3.35-1.95-5.47-5.35-7.4-8.72-1.88-3.27-3.91-6.77-3.91-10.82 0-4.05 2.23-7.44 4.11-10.71 1.94-3.37 4.32-6.08 7.67-8.04 3.25-1.89 6.72-2.96 10.74-2.96 4.02 0 7.61.86 10.86 2.75 3.35 1.95 6.29 4.47 8.23 7.85 1.87 3.28 2.7 7.06 2.7 11.11z" style="fill:url(#u)"/><path d="M22.66 25.15c-1-.86.4-2.51 1.4-1.65 1 .86-.4 2.51-1.4 1.65z" style="fill:#ff7d12"/><path d="M22.59 24.86c-.67-.57.48-1.93 1.15-1.35.67.58-.48 1.93-1.15 1.35z" style="opacity:.2;fill:#1a1626"/><path d="M26.87 25.76c-.15 1.55-2.18 1.35-2.03-.2.15-1.55 2.18-1.35 2.03.2z" style="fill:#ff7d12"/><path d="M26.72 25.67c-.1 1.03-1.77.86-1.67-.16.1-1.03 1.77-.87 1.67.16z" style="opacity:.2;fill:#1a1626"/><path d="M19.83 36.23c-1.64.27-2.11-2.38-.48-2.65 1.64-.28 2.12 2.38.48 2.65z" style="fill:#ffea2b"/><path d="M19.5 36.06c-1.09.18-1.48-2-.39-2.18 1.09-.17 1.48 2 .39 2.18z" style="opacity:.2;fill:#1a1626"/><path d="M48.98 31.81c1.15.08 1.04 1.96-.11 1.87-1.15-.08-1.04-1.95.11-1.87z" style="fill:#ffea2b"/><path d="M49.18 31.98c.77.06.67 1.59-.09 1.54-.77-.06-.68-1.6.09-1.54z" style="opacity:.2;fill:#1a1626"/><path d="M39.63 42.04c.81 1.11-1 2.44-1.81 1.33-.8-1.11 1-2.44 1.81-1.33z" style="fill:#ffea2b"/><path d="M39.63 42.34c.54.74-.95 1.83-1.48 1.09-.54-.73.94-1.83 1.48-1.09z" style="opacity:.2;fill:#1a1626"/><path d="M31.64 21.71c-.08 1.41-2.34 1.24-2.26-.17.08-1.4 2.34-1.24 2.26.17z" style="fill:#ffea2b"/><path d="M31.46 21.63c-.06.94-1.91.8-1.85-.14.06-.93 1.91-.79 1.85.14z" style="opacity:.2;fill:#1a1626"/><path d="M37.26 29.19c-1.04.96-2.55-.72-1.51-1.68 1.04-.95 2.55.72 1.51 1.68z" style="fill:#ffea2b"/><path d="M37.19 29.01c-.69.64-1.93-.74-1.24-1.37.69-.64 1.93.74 1.24 1.37z" style="opacity:.2;fill:#1a1626"/><path d="M29.8 54.95c.05.71-2.05.19-1.72-.39 1.07-1.91 1.55-1.82 1.72.39z" style="fill:#ffea2b"/><path d="M29.72 55c-.06.39-1.67.05-1.59-.3.05-.29 1.63-.01 1.59.3z" style="opacity:.2;fill:#1a1626"/><path d="M37.77 54.1c.36.61-1.75 1.07-1.72.4.11-2.18.58-2.31 1.72-.4z" style="fill:#ffea2b"/><path d="M37.72 54.18c.12.37-1.47.77-1.56.43-.08-.28 1.46-.72 1.56-.43z" style="opacity:.2;fill:#1a1626"/><path d="M49.07 47.56c.57.42-1.19 1.66-1.42 1.04-.75-2.06-.37-2.36 1.42-1.04z" style="fill:#ffea2b"/><path d="M49.06 47.65c.26.3-1.05 1.28-1.27 1-.18-.23 1.07-1.24 1.27-1z" style="opacity:.2;fill:#1a1626"/><path d="M52.78 41.12c.71.09-.24 2.03-.74 1.59-1.66-1.44-1.47-1.88.74-1.59z" style="fill:#ffea2b"/><path d="M52.81 41.21c.37.14-.3 1.63-.62 1.49-.27-.12.33-1.6.62-1.49z" style="opacity:.2;fill:#1a1626"/><path d="M54.28 34.76c.69-.16.51 1.98-.12 1.75-2.06-.76-2.04-1.24.12-1.75z" style="fill:#ffea2b"/><path d="M54.35 34.83c.4 0 .31 1.63-.05 1.61-.29-.01-.26-1.61.05-1.61z" style="opacity:.2;fill:#1a1626"/><path d="M52.18 20.67c.54-.47 1.38 1.51.72 1.6-2.18.29-2.39-.14-.72-1.6z" style="fill:#ffea2b"/><path d="M52.27 20.7c.35-.19 1.04 1.29.72 1.44-.27.13-.99-1.29-.72-1.44z" style="opacity:.2;fill:#1a1626"/><path d="M47.71 15.02c.4-.59 1.72 1.11 1.1 1.37-2.03.83-2.35.47-1.1-1.37z" style="fill:#ffea2b"/><path d="M47.8 15.03c.29-.27 1.33.99 1.06 1.22-.22.19-1.28-1.01-1.06-1.22z" style="opacity:.2;fill:#1a1626"/><path d="M34.63 9.22c-.12-.7 2.02-.39 1.75.23-.88 1.99-1.37 1.95-1.75-.23z" style="fill:#ffea2b"/><path d="M34.7 9.16c.02-.39 1.65-.21 1.61.14-.03.29-1.63.17-1.61-.14z" style="opacity:.2;fill:#1a1626"/><path d="M13.16 41.7c-.39.43-1.26-1.11-.72-1.24 1.74-.43 1.95-.09.72 1.24z" style="fill:#ffea2b"/><path d="M13.08 41.68c-.27.18-.96-.96-.71-1.11.21-.13.92.97.71 1.11z" style="opacity:.2;fill:#1a1626"/><path d="M17.84 49.13c-.29.5-1.48-.8-.99-1.05 1.6-.8 1.88-.52.99 1.05z" style="fill:#ff7d12"/><path d="M17.76 49.13c-.22.24-1.15-.72-.95-.92.17-.17 1.12.74.95.92z" style="opacity:.2;fill:#1a1626"/><path d="M16.09 47.06c-.49.31-.93-1.4-.38-1.39 1.79.04 1.91.42.38 1.39z" style="fill:#ff7d12"/><path d="M16.02 47.02c-.3.11-.68-1.18-.4-1.26.23-.07.64 1.17.4 1.26z" style="opacity:.2;fill:#1a1626"/><path d="M41.63 20.83c-.55 1.3-2.62.4-2.07-.9.56-1.3 2.62-.4 2.07.9z" style="fill:#ff7d12"/><path d="M41.49 20.7c-.37.87-2.07.13-1.7-.74.37-.87 2.07-.13 1.7.74z" style="opacity:.2;fill:#1a1626"/><path d="M38.44 22.64c-.55 1.3-2.62.4-2.07-.9.55-1.3 2.62-.41 2.07.9z" style="fill:#ff7d12"/><path d="M38.3 22.5c-.37.87-2.07.13-1.7-.74.37-.86 2.07-.12 1.7.74z" style="opacity:.2;fill:#1a1626"/><path d="M27.38 43.23c-1.34.26-1.79-1.94-.45-2.2 1.34-.26 1.79 1.94.45 2.2z" style="fill:#ff7d12"/><path d="M27.11 43.1c-.89.17-1.26-1.64-.37-1.81.89-.17 1.26 1.64.37 1.81z" style="opacity:.2;fill:#1a1626"/><path d="M28.19 40.87c-1.16-.8.13-2.65 1.3-1.85 1.16.81-.14 2.65-1.3 1.85z" style="fill:#ff7d12"/><path d="M28.34 40.76c-.77-.53.29-2.05 1.06-1.52.78.54-.28 2.06-1.06 1.52z" style="opacity:.2;fill:#1a1626"/><path d="M44.57 34.14c-.16 1.65-2.85 1.38-2.69-.27.16-1.64 2.85-1.38 2.69.27z" style="fill:#ff7d12"/><path d="M44.36 34.04c-.11 1.1-2.31.88-2.21-.22.12-1.09 2.32-.87 2.21.22z" style="opacity:.2;fill:#1a1626"/><path d="M41.9 32.21c-1.04.96-2.55-.72-1.51-1.68 1.04-.96 2.55.72 1.51 1.68z" style="fill:#ff7d12"/><path d="M41.83 32.03c-.69.64-1.93-.74-1.24-1.37.7-.64 1.93.73 1.24 1.37z" style="opacity:.2;fill:#1a1626"/><path d="M24.4 48.83c-.37 1.35-3.07-.27-1.95-1.12 1.56-1.18 2.48-.82 1.95 1.12z" style="fill:#ff7d12"/><path d="M24.11 49.14c-.29.55-2.11-.45-1.84-.94.46-.81 2.28.12 1.84.94z" style="opacity:.2;fill:#1a1626"/><path d="M26.29 50.96c-.16 1.39-3.08.2-2.1-.81 1.36-1.4 2.33-1.19 2.1.81z" style="fill:#ff7d12"/><path d="M26.06 51.31c-.2.59-2.15-.13-1.96-.65.32-.87 2.26-.23 1.96.65z" style="opacity:.2;fill:#1a1626"/><path d="M40.93 49.22c.98 1.16-2.12 2.55-2.19 1.04-.11-2.11.78-2.71 2.19-1.04z" style="fill:#ff7d12"/><path d="M41.03 49.66c.32.59-1.7 1.58-1.97 1.05-.45-.9 1.5-1.94 1.97-1.05z" style="opacity:.2;fill:#1a1626"/><path d="M43.53 51.3c.49.58-1.66 1.42-1.74.71-.26-2.31.22-2.52 1.74-.71z" style="fill:#ff7d12"/><path d="M43.49 51.4c.19.37-1.42 1.06-1.57.72-.13-.29 1.42-1.02 1.57-.72z" style="opacity:.2;fill:#1a1626"/><path d="M51.7 28.72c1.35-.66 1.96 2.64.48 2.34-2.06-.4-2.43-1.39-.48-2.34z" style="fill:#ff7d12"/><path d="M52.15 28.73c.65-.16 1.12 2 .54 2.13-.97.21-1.51-1.89-.54-2.13z" style="opacity:.2;fill:#1a1626"/><path d="M54.08 26.73c.69-.3.92 1.98.21 1.86-2.3-.39-2.38-.91-.21-1.86z" style="fill:#ff7d12"/><path d="M54.16 26.79c.41-.08.64 1.65.27 1.7-.31.04-.59-1.63-.27-1.7z" style="opacity:.2;fill:#1a1626"/><path d="M40.18 13.65c.15-1.39 3.07-.21 2.1.8-1.35 1.4-2.32 1.2-2.1-.8z" style="fill:#ff7d12"/><path d="M40.41 13.29c.2-.59 2.15.12 1.96.64-.31.88-2.26.24-1.96-.64z" style="opacity:.2;fill:#1a1626"/><path d="M40.16 10.61c.15-.69 2.02.4 1.53.87-1.57 1.51-2 1.29-1.53-.87z" style="fill:#ff7d12"/><path d="M40.26 10.58c.17-.35 1.61.43 1.44.74-.15.26-1.58-.46-1.44-.74z" style="opacity:.2;fill:#1a1626"/><path d="M24.19 13.18c-.71-1.21 2.34-2 2.16-.61-.23 1.94-1.13 2.35-2.16.61z" style="fill:#ff7d12"/><path d="M24.17 12.76c-.19-.59 1.8-1.18 1.96-.65.27.89-1.67 1.54-1.96.65z" style="opacity:.2;fill:#1a1626"/><path d="M21.54 12.58c-.54-.46 1.32-1.57 1.5-.93.59 2.11.19 2.38-1.5.93z" style="fill:#ff7d12"/><path d="M21.56 12.49c-.23-.32 1.15-1.2 1.34-.91.16.25-1.15 1.16-1.34.91z" style="opacity:.2;fill:#1a1626"/><path d="M11.98 33.15c-1.25.65-1.89-2.41-.5-2.18 1.93.33 2.3 1.24.5 2.18z" style="fill:#ff7d12"/><path d="M11.56 33.16c-.6.17-1.1-1.84-.56-1.98.91-.23 1.46 1.73.56 1.98z" style="opacity:.2;fill:#1a1626"/><path d="M9.13 30.47c-.81.04-.17-2.32.49-1.94 2.16 1.26 2.04 1.8-.49 1.94z" style="fill:#ff7d12"/><path d="M9.07 30.38c-.44-.08-.01-1.89.38-1.8.33.08-.03 1.86-.38 1.8z" style="opacity:.2;fill:#1a1626"/><path d="M15.96 21.64c-1.32-.48.52-3.02 1.28-1.84 1.06 1.64.63 2.53-1.28 1.84z" style="fill:#ff7d12"/><path d="M15.67 21.33c-.53-.33.63-2.05 1.09-1.74.79.51-.29 2.24-1.09 1.74z" style="opacity:.2;fill:#1a1626"/><path d="M15.39 17.94c-.53-.29.81-1.52 1.07-1.02.85 1.63.57 1.92-1.07 1.02z" style="fill:#ff7d12"/><path d="M15.39 17.86c-.25-.22.74-1.19.94-.98.18.18-.75 1.16-.94.98z" style="opacity:.2;fill:#1a1626"/><path d="M12.1 23c-.59-.1.28-1.7.69-1.31 1.33 1.27 1.16 1.64-.69 1.31z" style="fill:#ffea2b"/><path d="M12.08 22.92c-.3-.13.32-1.36.58-1.23.22.11-.34 1.34-.58 1.23z" style="opacity:.2;fill:#1a1626"/><linearGradient id="v" x1="876.772" x2="876.772" y1="-806.695" y2="-818.823" gradientTransform="rotate(-143.998 587.383 -240.22)" gradientUnits="userSpaceOnUse"><stop offset="0" style="stop-color:#ab0000"/><stop offset=".244" style="stop-color:#ae0000"/><stop offset=".454" style="stop-color:#b90000"/><stop offset=".651" style="stop-color:#cb0000"/><stop offset=".84" style="stop-color:#e30000"/><stop offset="1" style="stop-color:red"/></linearGradient><path d="M14.03 56.57c-1.48 2.02 2.64 4.07 3-.1.38-4.51 3.29-8.5 3.29-8.5s-2.91 3.98-7.11 5.74c-3.9 1.62-.66 4.88.82 2.86z" style="fill:url(#v)"/><linearGradient id="w" x1="876.772" x2="876.772" y1="-806.082" y2="-818.979" gradientTransform="rotate(-143.998 587.383 -240.22)" gradientUnits="userSpaceOnUse"><stop offset=".198" style="stop-color:#ab0000"/><stop offset=".442" style="stop-color:#c90000"/><stop offset=".809" style="stop-color:#f00000"/><stop offset="1" style="stop-color:red"/></linearGradient><path d="M20.82 48.18c-3.6 4.92-4.47 7.52-5.77 9.3-1.17 1.61-3.37.02-2.2-1.58 1.23-1.69 3.52-3.41 7.12-8.33.38-.53 1.24.08.85.61z" style="fill:url(#w)"/><linearGradient id="x" x1="302.642" x2="302.642" y1="306.243" y2="294.115" gradientTransform="rotate(36.002 619.72 -237.306)" gradientUnits="userSpaceOnUse"><stop offset="0" style="stop-color:#ab0000"/><stop offset=".244" style="stop-color:#ae0000"/><stop offset=".454" style="stop-color:#b90000"/><stop offset=".651" style="stop-color:#cb0000"/><stop offset=".84" style="stop-color:#e30000"/><stop offset="1" style="stop-color:red"/></linearGradient><path d="M49.97 7.43c1.48-2.02-2.64-4.07-3 .1-.38 4.51-3.29 8.5-3.29 8.5s2.91-3.98 7.11-5.74c3.9-1.62.66-4.88-.82-2.86z" style="fill:url(#x)"/><linearGradient id="y" x1="302.643" x2="302.643" y1="306.856" y2="293.959" gradientTransform="rotate(36.002 619.72 -237.306)" gradientUnits="userSpaceOnUse"><stop offset=".198" style="stop-color:#ab0000"/><stop offset=".442" style="stop-color:#c90000"/><stop offset=".809" style="stop-color:#f00000"/><stop offset="1" style="stop-color:red"/></linearGradient><path d="M43.18 15.82c3.6-4.92 4.47-7.52 5.77-9.3 1.17-1.61 3.37-.02 2.2 1.58-1.23 1.69-3.52 3.41-7.12 8.33-.38.53-1.24-.08-.85-.61z" style="fill:url(#y)"/><linearGradient id="z" x1="499.932" x2="499.932" y1="-872.741" y2="-884.91" gradientTransform="rotate(-107.998 587.402 -240.472)" gradientUnits="userSpaceOnUse"><stop offset="0" style="stop-color:#ab0000"/><stop offset=".244" style="stop-color:#ae0000"/><stop offset=".454" style="stop-color:#b90000"/><stop offset=".651" style="stop-color:#cb0000"/><stop offset=".84" style="stop-color:#e30000"/><stop offset="1" style="stop-color:red"/></linearGradient><path d="M2.93 41.39c-2.39.77-.27 4.84 2.49 1.67 2.98-3.43 7.69-4.95 7.69-4.95s-4.71 1.52-9.15.49c-4.12-.97-3.42 3.56-1.03 2.79z" style="fill:url(#z)"/><linearGradient id="A" x1="499.932" x2="499.932" y1="-872.125" y2="-885.069" gradientTransform="rotate(-107.998 587.402 -240.472)" gradientUnits="userSpaceOnUse"><stop offset=".198" style="stop-color:#ab0000"/><stop offset=".442" style="stop-color:#c90000"/><stop offset=".809" style="stop-color:#f00000"/><stop offset="1" style="stop-color:red"/></linearGradient><path d="M13.38 38.56c-5.82 1.88-8.06 3.47-10.17 4.15-1.9.61-2.74-1.95-.84-2.56 2-.65 4.87-.7 10.68-2.58.63-.21.96.79.33.99z" style="fill:url(#A)"/><linearGradient id="B" x1="678.811" x2="678.811" y1="371.36" y2="359.19" gradientTransform="rotate(72.002 602.58 -233.469)" gradientUnits="userSpaceOnUse"><stop offset="0" style="stop-color:#ab0000"/><stop offset=".244" style="stop-color:#ae0000"/><stop offset=".454" style="stop-color:#b90000"/><stop offset=".651" style="stop-color:#cb0000"/><stop offset=".84" style="stop-color:#e30000"/><stop offset="1" style="stop-color:red"/></linearGradient><path d="M61.07 22.61c2.39-.77.27-4.84-2.49-1.67-2.98 3.43-7.69 4.95-7.69 4.95s4.71-1.52 9.15-.49c4.12.97 3.42-3.56 1.03-2.79z" style="fill:url(#B)"/><linearGradient id="C" x1="678.812" x2="678.812" y1="371.975" y2="359.032" gradientTransform="rotate(72.002 602.58 -233.469)" gradientUnits="userSpaceOnUse"><stop offset=".198" style="stop-color:#ab0000"/><stop offset=".442" style="stop-color:#c90000"/><stop offset=".809" style="stop-color:#f00000"/><stop offset="1" style="stop-color:red"/></linearGradient><path d="M50.62 25.44c5.82-1.88 8.06-3.47 10.17-4.15 1.9-.61 2.74 1.95.84 2.56-2 .65-4.87.7-10.68 2.58-.63.2-.96-.79-.33-.99z" style="fill:url(#C)"/><linearGradient id="D" x1="156.23" x2="156.23" y1="-704.028" y2="-716.197" gradientTransform="rotate(-72.002 586.988 -240.554)" gradientUnits="userSpaceOnUse"><stop offset="0" style="stop-color:#ab0000"/><stop offset=".244" style="stop-color:#ae0000"/><stop offset=".454" style="stop-color:#b90000"/><stop offset=".651" style="stop-color:#cb0000"/><stop offset=".84" style="stop-color:#e30000"/><stop offset="1" style="stop-color:red"/></linearGradient><path d="M2.93 22.61c-2.39-.77-3.08 3.76 1.03 2.8 4.44-1.03 9.15.48 9.15.48s-4.71-1.52-7.69-4.95c-2.77-3.17-4.88.9-2.49 1.67z" style="fill:url(#D)"/><linearGradient id="E" x1="156.23" x2="156.23" y1="-703.412" y2="-716.356" gradientTransform="rotate(-72.002 586.988 -240.554)" gradientUnits="userSpaceOnUse"><stop offset=".198" style="stop-color:#ab0000"/><stop offset=".442" style="stop-color:#c90000"/><stop offset=".809" style="stop-color:#f00000"/><stop offset="1" style="stop-color:red"/></linearGradient><path d="M13.06 26.44c-5.82-1.88-8.58-1.9-10.68-2.58-1.9-.61-1.06-3.18.84-2.56 2 .64 4.35 2.27 10.17 4.15.61.19.29 1.19-.33.99z" style="fill:url(#E)"/><linearGradient id="F" x1="1021.347" x2="1021.347" y1="203.682" y2="191.513" gradientTransform="rotate(107.998 596.288 -231.665)" gradientUnits="userSpaceOnUse"><stop offset="0" style="stop-color:#ab0000"/><stop offset=".244" style="stop-color:#ae0000"/><stop offset=".454" style="stop-color:#b90000"/><stop offset=".651" style="stop-color:#cb0000"/><stop offset=".84" style="stop-color:#e30000"/><stop offset="1" style="stop-color:red"/></linearGradient><path d="M61.07 41.39c2.39.77 3.08-3.76-1.03-2.8-4.44 1.03-9.15-.48-9.15-.48s4.71 1.52 7.69 4.95c2.77 3.17 4.88-.9 2.49-1.67z" style="fill:url(#F)"/><linearGradient id="G" x1="1021.346" x2="1021.346" y1="204.298" y2="191.355" gradientTransform="rotate(107.998 596.288 -231.665)" gradientUnits="userSpaceOnUse"><stop offset=".198" style="stop-color:#ab0000"/><stop offset=".442" style="stop-color:#c90000"/><stop offset=".809" style="stop-color:#f00000"/><stop offset="1" style="stop-color:red"/></linearGradient><path d="M50.94 37.56c5.82 1.88 8.58 1.9 10.68 2.58 1.9.61 1.06 3.18-.84 2.56-2-.64-4.35-2.27-10.17-4.15-.61-.19-.29-1.19.33-.99z" style="fill:url(#G)"/><linearGradient id="H" x1="-22.163" x2="-22.163" y1="-365.919" y2="-378.047" gradientTransform="rotate(-36.002 586.828 -240.263)" gradientUnits="userSpaceOnUse"><stop offset="0" style="stop-color:#ab0000"/><stop offset=".244" style="stop-color:#ae0000"/><stop offset=".454" style="stop-color:#b90000"/><stop offset=".651" style="stop-color:#cb0000"/><stop offset=".84" style="stop-color:#e30000"/><stop offset="1" style="stop-color:red"/></linearGradient><path d="M14.03 7.43c-1.48-2.02-4.72 1.24-.83 2.86 4.2 1.76 7.12 5.74 7.12 5.74s-2.91-3.98-3.29-8.5c-.36-4.18-4.48-2.12-3-.1z" style="fill:url(#H)"/><linearGradient id="I" x1="-22.164" x2="-22.164" y1="-365.306" y2="-378.203" gradientTransform="rotate(-36.002 586.828 -240.263)" gradientUnits="userSpaceOnUse"><stop offset=".198" style="stop-color:#ab0000"/><stop offset=".442" style="stop-color:#c90000"/><stop offset=".809" style="stop-color:#f00000"/><stop offset="1" style="stop-color:red"/></linearGradient><path d="M19.97 16.44c-3.6-4.92-5.81-6.55-7.11-8.33-1.17-1.6 1.02-3.19 2.19-1.59 1.24 1.69 2.18 4.38 5.77 9.3.38.53-.47 1.14-.85.62z" style="fill:url(#I)"/><linearGradient id="J" x1="1200.511" x2="1200.511" y1="-133.766" y2="-145.894" gradientTransform="rotate(143.998 592.584 -230.847)" gradientUnits="userSpaceOnUse"><stop offset="0" style="stop-color:#ab0000"/><stop offset=".244" style="stop-color:#ae0000"/><stop offset=".454" style="stop-color:#b90000"/><stop offset=".651" style="stop-color:#cb0000"/><stop offset=".84" style="stop-color:#e30000"/><stop offset="1" style="stop-color:red"/></linearGradient><path d="M49.97 56.57c1.48 2.02 4.72-1.24.83-2.86-4.2-1.76-7.12-5.74-7.12-5.74s2.91 3.98 3.29 8.5c.36 4.18 4.48 2.12 3 .1z" style="fill:url(#J)"/><linearGradient id="K" x1="1200.51" x2="1200.51" y1="-133.153" y2="-146.05" gradientTransform="rotate(143.998 592.584 -230.847)" gradientUnits="userSpaceOnUse"><stop offset=".198" style="stop-color:#ab0000"/><stop offset=".442" style="stop-color:#c90000"/><stop offset=".809" style="stop-color:#f00000"/><stop offset="1" style="stop-color:red"/></linearGradient><path d="M44.03 47.56c3.6 4.92 5.81 6.55 7.11 8.33 1.17 1.6-1.02 3.19-2.19 1.59-1.24-1.69-2.18-4.38-5.77-9.3-.38-.53.47-1.14.85-.62z" style="fill:url(#K)"/><linearGradient id="L" x1="32" x2="32" y1="12.256" y2=".16" gradientUnits="userSpaceOnUse"><stop offset="0" style="stop-color:#ab0000"/><stop offset=".244" style="stop-color:#ae0000"/><stop offset=".454" style="stop-color:#b90000"/><stop offset=".651" style="stop-color:#cb0000"/><stop offset=".84" style="stop-color:#e30000"/><stop offset="1" style="stop-color:red"/></linearGradient><path d="M32 1.63c0-2.5-4.55-1.75-2.36 1.83C32 7.34 32 12.26 32 12.26s0-4.92 2.36-8.8C36.55-.13 32-.87 32 1.63z" style="fill:url(#L)"/><linearGradient id="M" x1="32" x2="32" y1="12.868" y2="0" gradientUnits="userSpaceOnUse"><stop offset=".198" style="stop-color:#ab0000"/><stop offset=".442" style="stop-color:#c90000"/><stop offset=".809" style="stop-color:#f00000"/><stop offset="1" style="stop-color:red"/></linearGradient><path d="M31.47 12.38c0-6.08-.83-8.69-.83-10.89 0-1.98 2.71-1.99 2.71 0 0 2.09-.83 4.81-.83 10.89.01.65-1.05.65-1.05 0z" style="fill:url(#M)"/><linearGradient id="N" x1="1146.792" x2="1146.792" y1="-512.317" y2="-524.413" gradientTransform="rotate(180 589.396 -230.287)" gradientUnits="userSpaceOnUse"><stop offset="0" style="stop-color:#ab0000"/><stop offset=".244" style="stop-color:#ae0000"/><stop offset=".454" style="stop-color:#b90000"/><stop offset=".651" style="stop-color:#cb0000"/><stop offset=".84" style="stop-color:#e30000"/><stop offset="1" style="stop-color:red"/></linearGradient><path d="M32 62.37c0 2.5 4.55 1.75 2.36-1.84C32 56.66 32 51.74 32 51.74s0 4.92-2.36 8.8C27.45 64.13 32 64.87 32 62.37z" style="fill:url(#N)"/><linearGradient id="O" x1="1146.792" x2="1146.792" y1="-511.705" y2="-524.573" gradientTransform="rotate(180 589.396 -230.287)" gradientUnits="userSpaceOnUse"><stop offset=".198" style="stop-color:#ab0000"/><stop offset=".442" style="stop-color:#c90000"/><stop offset=".809" style="stop-color:#f00000"/><stop offset="1" style="stop-color:red"/></linearGradient><path d="M32.53 51.62c0 6.08.83 8.69.83 10.89 0 1.98-2.71 1.99-2.71 0 0-2.09.83-4.81.83-10.89-.01-.65 1.05-.65 1.05 0z" style="fill:url(#O)"/><linearGradient id="P" x1="47.455" x2="47.455" y1="-330.649" y2="-339.898" gradientTransform="matrix(.7973 -.6036 .5342 .7055 166.024 284.676)" gradientUnits="userSpaceOnUse"><stop offset="0" style="stop-color:#ab0000"/><stop offset=".244" style="stop-color:#ae0000"/><stop offset=".454" style="stop-color:#b90000"/><stop offset=".651" style="stop-color:#cb0000"/><stop offset=".84" style="stop-color:#e30000"/><stop offset="1" style="stop-color:red"/></linearGradient><path d="M23.08 17.29c-1.36-1.79-4.87 1.69-1.03 2.84 4.15 1.24 5.19 2.62 5.19 2.62s-1.05-1.37-1.13-5.68c-.07-3.98-4.39-1.57-3.03.22z" style="fill:url(#P)"/><linearGradient id="Q" x1="47.458" x2="47.458" y1="-330.027" y2="-338.531" gradientTransform="matrix(.7973 -.6036 .5342 .7055 166.024 284.676)" gradientUnits="userSpaceOnUse"><stop offset=".198" style="stop-color:#ab0000"/><stop offset=".442" style="stop-color:#c90000"/><stop offset=".809" style="stop-color:#f00000"/><stop offset="1" style="stop-color:red"/></linearGradient><path d="M26.89 23.22c-2.93-3.84-3.26-2.81-4.32-4.2-.96-1.25 1.38-3.01 2.33-1.76 1.01 1.32-.03 1.43 2.89 5.28.32.41-.59 1.09-.9.68z" style="fill:url(#Q)"/><linearGradient id="R" x1="1120.298" x2="1120.298" y1="52.892" y2="43.089" gradientTransform="matrix(-.6926 .8544 -.6285 -.5095 849.81 -891.778)" gradientUnits="userSpaceOnUse"><stop offset="0" style="stop-color:#ab0000"/><stop offset=".244" style="stop-color:#ae0000"/><stop offset=".454" style="stop-color:#b90000"/><stop offset=".651" style="stop-color:#cb0000"/><stop offset=".84" style="stop-color:#e30000"/><stop offset="1" style="stop-color:red"/></linearGradient><path d="M46.09 42.91c2.54.5 3-4.07-.57-3.56-3.15.45-4.91-.86-4.91-.86s1.56 1.44 1.64 3.86c.15 4.09 4.54 3.41 3.84.56z" style="fill:url(#R)"/><linearGradient id="S" x1="1120.273" x2="1120.273" y1="91.976" y2="81.289" gradientTransform="matrix(-.6926 .8544 -.5524 -.4478 866.895 -877.844)" gradientUnits="userSpaceOnUse"><stop offset=".198" style="stop-color:#ab0000"/><stop offset=".442" style="stop-color:#c90000"/><stop offset=".809" style="stop-color:#f00000"/><stop offset="1" style="stop-color:red"/></linearGradient><path d="M40.89 37.82c3.39 2.73 3.7 1.47 4.87 2.52 1.9 1.7-.42 4.43-2.27 2.78-1.12-.99-.1-1.49-3.48-4.22-.37-.29.52-1.37.88-1.08z" style="fill:url(#S)"/><linearGradient id="T" x1="466.262" x2="466.262" y1="489.768" y2="479.636" gradientTransform="matrix(.7064 .8431 -.5696 .4772 -7.685 -600.906)" gradientUnits="userSpaceOnUse"><stop offset="0" style="stop-color:#ab0000"/><stop offset=".244" style="stop-color:#ae0000"/><stop offset=".454" style="stop-color:#b90000"/><stop offset=".651" style="stop-color:#cb0000"/><stop offset=".84" style="stop-color:#e30000"/><stop offset="1" style="stop-color:red"/></linearGradient><path d="M47.52 21.86c1.61-2.83-3.33-3.61-3.36-.25-.02 2.96-1.48 4.28-1.48 4.28s1.58-1.23 3.79-.66c3.94 1.02 3.82-3.61 1.05-3.37z" style="fill:url(#T)"/><linearGradient id="U" x1="465.937" x2="465.937" y1="587.378" y2="579.239" gradientTransform="matrix(.7064 .8431 -.5007 .4195 7.162 -613.14)" gradientUnits="userSpaceOnUse"><stop offset=".198" style="stop-color:#ab0000"/><stop offset=".442" style="stop-color:#c90000"/><stop offset=".809" style="stop-color:#f00000"/><stop offset="1" style="stop-color:red"/></linearGradient><path d="M42.31 25.75c.95-.88.17-2.08 1.28-3.29 1.55-1.68 4.7 1.2 2.42 2.91-1.07.8-2.01.18-3.04 1.15-.3.29-.97-.49-.66-.77z" style="fill:url(#U)"/><linearGradient id="V" x1="197.48" x2="197.48" y1="-689.434" y2="-699.613" gradientTransform="matrix(.4506 -1.0033 .678 .3045 400.663 437.615)" gradientUnits="userSpaceOnUse"><stop offset="0" style="stop-color:#ab0000"/><stop offset=".244" style="stop-color:#ae0000"/><stop offset=".454" style="stop-color:#b90000"/><stop offset=".651" style="stop-color:#cb0000"/><stop offset=".84" style="stop-color:#e30000"/><stop offset="1" style="stop-color:red"/></linearGradient><path d="M16.57 27.04c-3.64-.22-2.03 5.09 1.38 3.47 3-1.42 4.43-1.32 4.43-1.32s-1.4-.27-1.9-2.75c-.88-4.42-5.5-2.04-3.91.6z" style="fill:url(#V)"/><linearGradient id="W" x1="197.207" x2="197.207" y1="-751.901" y2="-760.981" gradientTransform="matrix(.4506 -1.0033 .5959 .2676 382.15 429.054)" gradientUnits="userSpaceOnUse"><stop offset=".198" style="stop-color:#ab0000"/><stop offset=".442" style="stop-color:#c90000"/><stop offset=".809" style="stop-color:#f00000"/><stop offset="1" style="stop-color:red"/></linearGradient><path d="M22.56 30.03c-1.35-.52-2.19.84-3.94.32-2.44-.73-1.06-5.27 1.77-3.84 1.33.67 1.16 1.91 2.64 2.47.43.17-.04 1.21-.47 1.05z" style="fill:url(#W)"/><linearGradient id="X" x1="1087.369" x2="1087.369" y1="-557.506" y2="-571.093" gradientTransform="matrix(-1.2074 .0816 -.0479 -.7095 1319.168 -443.077)" gradientUnits="userSpaceOnUse"><stop offset=".198" style="stop-color:#ab0000"/><stop offset=".442" style="stop-color:#c90000"/><stop offset=".809" style="stop-color:#f00000"/><stop offset="1" style="stop-color:red"/></linearGradient><path d="M33.8 41.47c.27 4.04 1.55 6.03 1.56 7.5.03 2.38-3.67 2.55-3.7.25-.02-1.39.97-3.61.7-7.65-.02-.43 1.41-.53 1.44-.1z" style="fill:url(#X)"/><linearGradient id="Y" x1="1087.385" x2="1087.385" y1="-517.018" y2="-526.132" gradientTransform="matrix(-1.2074 .0816 -.0545 -.8072 1317.71 -464.69)" gradientUnits="userSpaceOnUse"><stop offset="0" style="stop-color:#ab0000"/><stop offset=".244" style="stop-color:#ae0000"/><stop offset=".454" style="stop-color:#b90000"/><stop offset=".651" style="stop-color:#cb0000"/><stop offset=".84" style="stop-color:#e30000"/><stop offset="1" style="stop-color:red"/></linearGradient><path d="M33.38 47.91c1.38 2.03 5.18-.58 2.31-2.66-2.53-1.84-2.76-3.86-2.76-3.86s-.02 1.98-1.8 3.58c-3 2.71.57 5.23 2.25 2.94z" style="fill:url(#Y)"/><linearGradient id="Z" x1="697.801" x2="697.801" y1="-1062.741" y2="-1076.495" gradientTransform="matrix(-.6531 -.8849 .5722 -.4224 1088.441 206.526)" gradientUnits="userSpaceOnUse"><stop offset=".198" style="stop-color:#ab0000"/><stop offset=".442" style="stop-color:#c90000"/><stop offset=".809" style="stop-color:#f00000"/><stop offset="1" style="stop-color:red"/></linearGradient><path d="M24.8 38.75c-3.3 2.42-4.38 4.5-5.62 5.31-2.01 1.32-3.97-1.43-2.02-2.72 1.17-.77 3.55-1.23 6.86-3.65.34-.26 1.13.8.78 1.06z" style="fill:url(#Z)"/><linearGradient id="aa" x1="697.755" x2="697.755" y1="-960.229" y2="-969.449" gradientTransform="matrix(-.6531 -.8849 .6509 -.4805 1105.177 194.097)" gradientUnits="userSpaceOnUse"><stop offset="0" style="stop-color:#ab0000"/><stop offset=".244" style="stop-color:#ae0000"/><stop offset=".454" style="stop-color:#b90000"/><stop offset=".651" style="stop-color:#cb0000"/><stop offset=".84" style="stop-color:#e30000"/><stop offset="1" style="stop-color:red"/></linearGradient><path d="M19.11 41.95c-1.06 2.18 3.03 3.69 3.4.33.33-2.96 1.94-4.24 1.94-4.24s-1.69 1.07-3.93.57c-3.78-.84-4.19 3.29-1.41 3.34z" style="fill:url(#aa)"/><linearGradient id="ab" x1="306.25" x2="306.25" y1="517.218" y2="505.077" gradientTransform="matrix(1.2523 .2869 -.1411 .6161 -276.998 -384.8)" gradientUnits="userSpaceOnUse"><stop offset=".198" style="stop-color:#ab0000"/><stop offset=".442" style="stop-color:#c90000"/><stop offset=".809" style="stop-color:#f00000"/><stop offset="1" style="stop-color:red"/></linearGradient><path d="M33.08 21.35c.73-3.2-.55-3.62-.11-5.65.54-2.46 4.24-1.61 3.77.5-.5 2.25-2.29 3.48-2.62 5.38-.06.35-1.12.11-1.04-.23z" style="fill:url(#ab)"/><linearGradient id="ac" x1="306.603" x2="306.603" y1="508.296" y2="500.091" gradientTransform="matrix(1.2523 .2869 -.1425 .6218 -278.293 -382.642)" gradientUnits="userSpaceOnUse"><stop offset="0" style="stop-color:#ab0000"/><stop offset=".244" style="stop-color:#ae0000"/><stop offset=".454" style="stop-color:#b90000"/><stop offset=".651" style="stop-color:#cb0000"/><stop offset=".84" style="stop-color:#e30000"/><stop offset="1" style="stop-color:red"/></linearGradient><path d="M34.19 17.9c-.61-3.78-5.56-1.7-2.9.6 1.94 1.68 2.36 2.97 2.36 2.97s-.01-.84 2.12-1.18c3.67-.59.77-4.73-1.58-2.39z" style="fill:url(#ac)"/><linearGradient id="ad" x1="651.75" x2="651.75" y1="-1078.905" y2="-1087.312" gradientTransform="matrix(-.579 -.9352 .5554 -.3439 1009.49 270.66)" gradientUnits="userSpaceOnUse"><stop offset=".198" style="stop-color:#ab0000"/><stop offset=".442" style="stop-color:#c90000"/><stop offset=".809" style="stop-color:#f00000"/><stop offset="1" style="stop-color:red"/></linearGradient><path d="M31.51 35.82c-2.21 1.8-5.6-2.33-2.48-4.04 1.46-.8 1.95.84 3.4-.17.43-.29.67 2.92-.92 4.21z" style="fill:url(#ad)"/><linearGradient id="ae" x1="1147.57" x2="1147.57" y1="-184.905" y2="-193.289" gradientTransform="matrix(-.9738 .5113 -.3037 -.5784 1093.577 -663.194)" gradientUnits="userSpaceOnUse"><stop offset=".198" style="stop-color:#ab0000"/><stop offset=".442" style="stop-color:#c90000"/><stop offset=".809" style="stop-color:#f00000"/><stop offset="1" style="stop-color:red"/></linearGradient><path d="M35.77 32.16c1.65 2.32-2.73 5.38-4.23 2.17-.7-1.51.99-1.87.07-3.38-.27-.45 2.98-.46 4.16 1.21z" style="fill:url(#ae)"/><linearGradient id="af" x1="229.791" x2="229.791" y1="436.526" y2="428.154" gradientTransform="matrix(1.0601 .2932 -.1742 .6296 -136.95 -308.93)" gradientUnits="userSpaceOnUse"><stop offset=".198" style="stop-color:#ab0000"/><stop offset=".442" style="stop-color:#c90000"/><stop offset=".809" style="stop-color:#f00000"/><stop offset="1" style="stop-color:red"/></linearGradient><path d="M29.15 29.67c.4-2.81 5.7-2.07 4.58 1.29-.53 1.58-2.01.7-2.38 2.42-.11.5-2.49-1.69-2.2-3.71z" style="fill:url(#af)"/></svg>