<svg xmlns="http://www.w3.org/2000/svg" xml:space="preserve" style="enable-background:new 0 0 64 64" viewBox="0 0 64 64"><path d="M8.326 50.15c.303.62 4.688.042 4.836-.862.878-5.323-7.055-3.665-4.836.862z" style="fill:#423f3f"/><path d="M20.57 53.052C23.603 63.41 16.702 59.608 16.612 64h7.198c1.246 0 2.19-3.757 4.784-9.125 5.074-10.481-10.881-11.58-8.026-1.823z" style="fill-rule:evenodd;clip-rule:evenodd;fill:#423f3f"/><path d="M17.7 62.93c-.422.092-.663.256-.798.428.055-.231.143-.427.143-.427-1.014.221-1.338 1.069-1.338 1.069h1.903c-.257-.29.09-1.07.09-1.07z" style="fill:#505057"/><path d="M38.648 58.757c2.97 2.928-2.928 2.227-2.928 5.243h3.072c2.5 0 5.098-2.602 4.597-3.82-.538-1.307 1.873-2.385 2.75-3.137 8.553-7.333-14.61-5.306-7.49 1.714z" style="fill-rule:evenodd;clip-rule:evenodd;fill:#423f3f"/><path d="M36.55 62.93c-.321.092-.507.256-.609.428.041-.231.11-.427.11-.427-.775.221-1.315 1.069-1.315 1.069h1.747c-.198-.29.068-1.07.068-1.07z" style="fill:#505057"/><path d="M54.3 8.59c-6.027-3.492-13.157 2.567-6.33 10.43-1.143-3.443-.99-9.398 6.33-10.43z" style="fill:#4d4949"/><path d="M52.12 10.532c-6.96.983-9.557 9.265.895 11.174-1.742-3.627-5.878-5.903-.896-11.174zm-3.057 28.563c7.86 5.344 16.742-3.277 7.678-15.06 1.603 5.091 1.649 13.819-7.678 15.06z" style="fill:#4d4949"/><path d="M45.572 38.443c1.72 9.12 14.323 8.974 16.428-5.553-2.56 4.715-8.873 10.968-16.428 5.553z" style="fill:#4d4949"/><path d="M46.293 35.845c7.857 5.344 16.741-3.277 7.678-15.06 1.603 5.091 1.648 13.819-7.678 15.06z" style="fill:#4d4949"/><path d="M32.835 7.045c-4.325 15.55 14.636 19.589 16.052 26.9 3.716-10.786-15.078-15.333-16.052-26.9z" style="fill:#4d4949"/><path d="M31.137 15.15c.346 10.918 12.351 10.463 15.434 14.635-.485-13.467-12.811-6.787-15.434-14.636z" style="fill:#4d4949"/><path d="M36.028 24.846c3.715 9.1 13.904 7.8 16.987 11.972-.485-13.465-12.093-8.605-16.987-11.972z" style="fill:#4d4949"/><path d="M45.866 38.324c10.262-4.328-11.765-13.8-12.48-25.709C32.647.2 50.59-6.236 58.437 8.48c-12.57-5.483-13.176 3.27-7.003 10.908 5.485 6.785 11.844 16.383-.239 23.042-5.03 2.774-5.328-4.105-5.328-4.105z" style="fill:#4d4949"/><path d="M51.697 38.894c6.74-9.13-11.089-14.958-13.378-26.501C36.994 5.718 42.676 1.747 48.863.995 41.407.093 34.093 5.59 35.097 13.483c1.308 10.289 22.99 19.811 12.73 24.14l3.87 1.27z" style="fill:#e6ebef"/><path d="M43.79 4.258c-8.594 1.462-10.241 11.039-2.322 15.637-1.595-2.972-5.428-8.982 2.321-15.637z" style="fill:#e6ebef"/><path d="M43.332 9.514c-8.596 1.463-5.907 10.453 2.012 15.05-1.238-4.917-8.053-7.524-2.012-15.05z" style="fill:#e6ebef"/><path d="M45.185 14.809c-8.594 1.462-2.112 10.379 5.807 14.976-1.236-4.917-8.785-6.465-5.807-14.976z" style="fill:#e6ebef"/><path d="M49.46 41.482c8.748-5.153 6.654-16.203-2.129-18.236 2.628 2.767 5.684 7.967 2.129 18.236z" style="fill:#e6ebef"/><path d="M50.29 44.335c6.642-7.524 1.08-17.396-7.926-16.687 3.395 1.838 7.98 5.862 7.925 16.687z" style="fill:#e6ebef"/><path d="M47.055 28.98c.034-3.2-2.635-5.164-9.407-7.436 3.106 4.703 4.716 4.436 9.407 7.436z" style="fill:#e6ebef"/><path d="M40.784 22.86c.034-3.2-3.136-8.503-7.25-10.149.599 3.58 2.562 7.15 7.25 10.15z" style="fill:#e6ebef"/><path d="M33.852 35.55c1.214 4.78-5.343 8.017-7.553 7.996 2.438-3.917 5.098-5.276 7.553-7.996z" style="fill:#4d4949"/><path d="M27.781 40.773c-.478 4.9-6.536 4.761-8.619 4.041 5.235-.603 5.816-1.892 8.62-4.04zm4.516 2.106c5.824-4.188 4.69-6.588 9.478-9.677-5.498-.821-10.345 4.918-9.478 9.677zM10.711 57.908c-.713 2.277-3.478 4.718-5.586 3.083-2.19-1.7.588-3.446 5.586-3.083z" style="fill:#4d4949"/><linearGradient id="a" x1="129.786" x2="129.786" y1="34.481" y2="10.845" gradientTransform="rotate(-19.369 160.287 327.091)" gradientUnits="userSpaceOnUse"><stop offset="0" style="stop-color:#423f3f"/><stop offset=".093" style="stop-color:#464343"/><stop offset=".327" style="stop-color:#4d4949"/></linearGradient><path d="M10.991 59.254c-5.342 1.967-6.497 2.15-8.25 1.192l-.21-2.33C4.37 55.98 4.863 50.78 8.978 47.833c6.311-4.519 14.496-1.963 19.214-5.573 5.777-4.42 13.041-11.657 22.925-8.94 11.006 3.026 7.787 13.683 3.697 18.414-6.983 6.183-18.68 8.689-26.375 9.663-6.447.818-12.114-3.234-17.448-2.143z" style="fill:url(#a)"/><path d="M10.582 48.542c5.384-3.42 13.868 2.887 20.059-3.259 6.732-6.685 19.14-10.616 24.113-10.403-6.037-5.756-17.618.023-25.687 7.88-3.962 3.86-14.166.352-19.285 4.54-1.725 1.41-1.746 2.857.8 1.242z" style="fill:#e6ebef"/><path d="M2.848 57.702c1.011.158.27 1.99-.11 2.74-.675-.193-1.298-1.376.11-2.74z" style="fill:#5c5757"/><path d="M10.17 57.702c-.346 1.74-3.054 4.149-4.615 3.24 1.404-.135 3.536-1.77 4.616-3.24z" style="fill:#2d2d30"/><path d="M8.097 49.503c-1.591 2.077-4.445 7.68-4.445 7.68s2.37-6.818 4.445-7.68z" style="fill:#e6ebef"/><path d="M9.676 49.614c.007.687 4.243 1.92 4.77 1.157 3.096-4.488-4.833-6.163-4.77-1.157z" style="fill:#4d4949"/><path d="M10.582 50.166c.005.474 2.36 1.184 2.754.676 2.425-3.123-2.797-4.15-2.754-.676z" style="fill:#5c5757"/><path d="M12.799 50.031s-.9-.23-1.49.24c-.213-.423.034-.973.034-.973-2.892 1.281.72 2.282.72 2.282.057-.852.736-1.549.736-1.549z" style="fill:#4d4949"/><path d="M27.507 48.58c-7.407 2.512-9.589-1.068-11.979-1.184 4.184-1.836 5.956-.078 11.979 1.184zm1.643-2.055c1.923-.365 6.6-5.609 12.944-6.385-4.38-1.989-11.636 2.17-12.945 6.385z" style="fill:#e6ebef"/><path d="M36.73 42.757c-4.392 6.01-13.706 6.02-15.58 4.777 6.551-3.036 10.378-3.09 15.58-4.777zm11.396-5.875c-6.077 1.257-8.933 1.84-12.704 5.515 3.322-4.134 9.29-9.036 12.704-5.515z" style="fill:#e6ebef"/><path d="M23.63 55.923c2.113 8.294-3.468 4.806-3.56 8.077h5.448c1.247 0 4.957-3.118 5.63-7.502 1.316-8.561-9.495-8.343-7.518-.575z" style="fill-rule:evenodd;clip-rule:evenodd;fill:#4d4949"/><path d="M21.157 62.93c-.42.092-.663.256-.797.428.055-.231.143-.427.143-.427C19.49 63.152 19.165 64 19.165 64h1.905c-.26-.29.087-1.07.087-1.07z" style="fill:#99a8ae"/><path d="M43.074 54.37c9.704 9.26-.23 6.04-.025 9.63h5.591c1.508 0 4.782-2.896 3.693-4.579-.985-1.523 2.02-5.1 2.787-6.534 10.974-20.513-25.624-11.473-12.046 1.483z" style="fill-rule:evenodd;clip-rule:evenodd;fill:#4d4949"/><path d="M44.297 62.93c-.421.092-.663.256-.796.428a2.53 2.53 0 0 1 .142-.427A1.892 1.892 0 0 0 42.306 64h1.903c-.26-.29.088-1.07.088-1.07z" style="fill:#99a8ae"/><path d="M8.206 53.117c-.624.35-.538 1.037-.222 1.434.235.296 1.779-.575 1.628-.916-.225-.495-.836-.84-1.406-.518z" style="fill:#2d2d30"/><path d="M8.299 53.269a.883.883 0 0 0-.344 1.233c.225.371.836.572 1.285.318.448-.25.527-.928.343-1.233-.262-.43-.834-.571-1.284-.319z" style="fill:#fff"/><linearGradient id="b" x1="8.682" x2="8.682" y1="54.943" y2="53.179" gradientUnits="userSpaceOnUse"><stop offset="0" style="stop-color:#704f3e"/><stop offset=".6" style="stop-color:#2d2d30"/></linearGradient><path d="M8.21 53.289c.42-.235.97-.082 1.23.347.258.424.127.961-.292 1.196-.42.237-.968.082-1.223-.343-.26-.428-.13-.964.286-1.2z" style="fill:url(#b)"/><path d="M8.56 53.606c.218.355-.306.65-.52.292-.214-.353.305-.648.52-.292z" style="fill:#fff"/></svg>