<svg xmlns="http://www.w3.org/2000/svg" xml:space="preserve" style="enable-background:new 0 0 64 64" viewBox="0 0 64 64"><linearGradient id="a" x1="30.079" x2="30.079" y1="62" y2="34.098" gradientUnits="userSpaceOnUse"><stop offset="0" style="stop-color:#ffa6c0"/><stop offset=".571" style="stop-color:#ff8fa6"/><stop offset="1" style="stop-color:#ff8298"/></linearGradient><path d="M31.245 34.468c1.747 9.988-.566 10.219.44 11.626.759 1.06.573 10.772.326 11.745-.347 1.38-3.41 1.051-4.72 1.223-.342.044-.17.389.076.376 2.083-.106-.442.583-.884.947-.273.226-.105.366.204.286.888-.233 2.495.399 1.607.955-.234.147-.54.595.411.24 2.161-.804 3.332-1.486 3.867-2.055.791-.842 1.223.088 1.235-.154.067-1.033-.605-1.46-.647-1.78-.264-1.967-.23-11.431.14-11.795.958-.943-1.565-4.712.331-11.88.092-.342-2.386.266-2.386.266z" style="fill:url(#a)"/><linearGradient id="b" x1="29.329" x2="29.329" y1="61.626" y2="59.422" gradientUnits="userSpaceOnUse"><stop offset="0" style="stop-color:#ffa6c0"/><stop offset=".571" style="stop-color:#ff8fa6"/><stop offset="1" style="stop-color:#ff8298"/></linearGradient><path d="M26.688 60.671c.62-.042 1.849.565 1.606.955 1.948-.79 4.275-2.163 3.56-2.203-.867-.05-5.485 1.269-5.166 1.248z" style="fill:url(#b)"/><linearGradient id="c" x1="29.017" x2="29.017" y1="60.183" y2="59.064" gradientUnits="userSpaceOnUse"><stop offset="0" style="stop-color:#ffa6c0"/><stop offset=".571" style="stop-color:#ff8fa6"/><stop offset="1" style="stop-color:#ff8298"/></linearGradient><path d="M27.367 59.438c.02.258-.524.745-.524.745 1.19-.415 3.633-.684 4.281-.986.639-.296-3.47-.045-3.757.24z" style="fill:url(#c)"/><linearGradient id="d" x1="34.835" x2="34.835" y1="55.92" y2="33.184" gradientUnits="userSpaceOnUse"><stop offset="0" style="stop-color:#ffa6c0"/><stop offset=".571" style="stop-color:#ff8fa6"/><stop offset="1" style="stop-color:#ff8298"/></linearGradient><path d="M44.224 42.535c-.46-.433-5.143-4.878-4.842-9.109.052-.705-2.267.354-2.267.354.796 2.544 2.359 3.861 5.853 9.204.46.705-12.548 5.807-13.66 6.458-1.375.803-3.282 3.844-4.101 4.863-.216.267.12.356.287.178 1.407-1.52.048.665-.037 1.197-.055.33.152.298.32.033.484-.764 2.014-1.499 1.73-.537-.077.253-.014.741.44-.14 1.028-2.002.48-3.331 1.656-4.42 1.151-1.066 13.38-6.272 14.108-6.36.786-.095 1.115-1.16.513-1.721z" style="fill:url(#d)"/><linearGradient id="e" x1="268.389" x2="268.389" y1="91.134" y2="89.144" gradientTransform="rotate(-45.001 104.135 362.948)" gradientUnits="userSpaceOnUse"><stop offset="0" style="stop-color:#ffa6c0"/><stop offset=".571" style="stop-color:#ff8fa6"/><stop offset="1" style="stop-color:#ff8298"/></linearGradient><path d="M25.777 55.713c.413-.46 1.66-.947 1.73-.537.772-1.587 1.198-3.902.848-3.645-.75.547-2.79 4.417-2.578 4.182z" style="fill:url(#e)"/><linearGradient id="f" x1="268.299" x2="268.299" y1="89.865" y2="88.665" gradientTransform="rotate(-45.001 104.135 362.948)" gradientUnits="userSpaceOnUse"><stop offset="0" style="stop-color:#ffa6c0"/><stop offset=".571" style="stop-color:#ff8fa6"/><stop offset="1" style="stop-color:#ff8298"/></linearGradient><path d="M25.494 54.483c.174.143.09.822.09.822.585-1.085 1.951-3.183 2.224-3.82.267-.628-2.29 2.62-2.314 2.998z" style="fill:url(#f)"/><linearGradient id="g" x1="10.59" x2="27.356" y1="14.398" y2="14.398" gradientTransform="matrix(1.0274 0 0 .9836 -2.676 3.616)" gradientUnits="userSpaceOnUse"><stop offset="0" style="stop-color:#ff1c60"/><stop offset=".081" style="stop-color:#ff2867"/><stop offset=".514" style="stop-color:#ff658c"/><stop offset=".833" style="stop-color:#ff8ba2"/><stop offset="1" style="stop-color:#ff99ab"/></linearGradient><path d="M19.122 24.213c-2.346 6.54-4.842-.256-1.433-7.04 2.727-5.428 3.432-7.108 2.094-10.432-1.272-3.17-4.375-4.912-8.012-4.728-1.562.081-3.537 2.213-3.522 3.284.54 1.766-.959 2.762 1.004 3.45 2.5.988 5.558-2.88 6.665-1.37 1.862 2.539-.536 6.068-2.732 10.326C10.72 22.48 7.25 35.564 25.145 33.294c1.533-3.34-3.512-8.79-6.023-9.08z" style="fill:url(#g)"/><linearGradient id="h" x1="-90.559" x2="-90.559" y1="53.221" y2="46.057" gradientTransform="rotate(20.109 75.42 305.37)" gradientUnits="userSpaceOnUse"><stop offset="0" style="stop-color:#ff6e90"/><stop offset=".304" style="stop-color:#f39eba"/><stop offset=".612" style="stop-color:#e9c8e0"/><stop offset=".855" style="stop-color:#e2e1f6"/><stop offset="1" style="stop-color:#e0ebff"/></linearGradient><path d="M7.731 11.162c.418-1.4 1.563-1.962 1.892-2.997.108-.335-.383-1.309.942-2.394l-.691-.548c-.981 1.043-1.213.008-1.625.073-.813 1.317-3.384 2.382-3.186 3.873.262 1.962 2.212 3.5 2.668 1.993z" style="fill:url(#h)"/><path d="M5.62 9.667c-.226-.05-.488-.633-.542-.9-.59 3.598 2.385 7.012 2.285 4.616-.056-1.347.417-1.422.368-2.221-.015-.193-1.52.252-1.866-.81.083-2.691 2.887-2.1 3.244-3.094-1.324.902-2.962.215-3.49 2.409zm.586-1.595c.297-.41 1.094-.458 1.523-1.105-.95.645-1.31.627-1.523 1.105z" style="fill:#302c3b"/><path d="M36.52 32.657c0 3.622-7.996 3.622-7.996 0 0-1.922 7.995-1.922 7.995 0zM59 29.538s-4.668-2.526-12.54-1.641c9.209-6.953 12.54 1.64 12.54 1.64z" style="fill:#ffa3b2"/><linearGradient id="i" x1="-2.24" x2="57.432" y1="25.537" y2="25.537" gradientUnits="userSpaceOnUse"><stop offset="0" style="stop-color:#ff99ab"/><stop offset=".167" style="stop-color:#ff8ba2"/><stop offset=".486" style="stop-color:#ff658c"/><stop offset=".919" style="stop-color:#ff2867"/><stop offset="1" style="stop-color:#ff1c60"/></linearGradient><path d="M33.12 33.963c4.419 4.328 8.007-.756 8.007-.756 6.664.264 8.593-3.466 15.424-3.335-3.33-2.73-6.16-2.825-6.16-2.825-.866-4.493-8.525-13.54-21.515-11.344-12.872 2.175-14.918 19.777 4.243 18.26z" style="fill:url(#i)"/><path d="M27.332 28.79c11.22 4.484 20.484 1.97 20.484 1.97-8.105-1.348-11.049-8.104-20.562-9.094-5.615-.58-12.183 2.227.078 7.123z" style="fill:#ffa3b2"/><linearGradient id="j" x1="20.238" x2="59" y1="22.481" y2="22.481" gradientUnits="userSpaceOnUse"><stop offset="0" style="stop-color:#ff1c60"/><stop offset=".081" style="stop-color:#ff2867"/><stop offset=".514" style="stop-color:#ff658c"/><stop offset=".833" style="stop-color:#ff8ba2"/><stop offset="1" style="stop-color:#ff99ab"/></linearGradient><path d="M31.068 28.785C47.416 32.565 59 25.27 59 25.27c-11.952-3.442-17.233-11.943-30.225-9.854-7.668 1.23-15.565 9.233 2.293 13.368z" style="fill:url(#j)"/><linearGradient id="k" x1="18.946" x2="47.791" y1="21.66" y2="21.66" gradientUnits="userSpaceOnUse"><stop offset="0" style="stop-color:#ff1c60"/><stop offset=".081" style="stop-color:#ff2867"/><stop offset=".514" style="stop-color:#ff658c"/><stop offset=".833" style="stop-color:#ff8ba2"/><stop offset="1" style="stop-color:#ff99ab"/></linearGradient><path d="M38.934 27.995c-6.21-.637-10.23-2.199-10.23-2.199C39.357 27.393 47.79 22.78 47.79 22.78c-6.151-2.722-15.934-2.297-15.934-2.297 4.962-1.867 14.513 1.18 14.513 1.18s-6.02-7.19-16.377-6.75c-10.585.452-21.822 16.302 8.94 13.082z" style="fill:url(#k)"/><path d="M11.42 4.963c.202 1.6-1.694 1.811-2.33.97.16-1.446 1.665-1.28 2.33-.97z" style="fill:#ff99ab"/><path d="M11.128 5.113c.377 1.105-1.325 1.702-1.727.607-.38-1.038 1.357-1.69 1.727-.607z" style="fill:#c2de64"/><path d="M10.665 5.411c.026.56-.831.585-.857.025-.026-.559.83-.584.857-.025z" style="fill:#1a1626"/><path d="M10.872 5.125c.019.325-.458.333-.477.008-.018-.325.458-.333.477-.008z" style="fill:#fff"/><path d="M11.42 4.963c-.578-1.077-2.615-.576-2.33.97.391-1.157 1.51-1.296 2.33-.97z" style="fill:#e0ebff"/></svg>