<svg xmlns="http://www.w3.org/2000/svg" xml:space="preserve" style="enable-background:new 0 0 64 64" viewBox="0 0 64 64"><path d="M62 62h-5.5v-3H59v-2.501h3zm-12.5 0h-7v-3h7v3zm-14 0h-7v-3h7v3zm-14 0h-7v-3h7v3zm-14 0H2v-5.501h3v2.5h2.5zM5 49.5H2v-7h3v7zm0-14H2v-7h3v7zm0-14H2v-7h3v7zm0-14H2V2h5.5v3H5zM49.5 5h-7V2h7v3zm-14 0h-7V2h7v3zm-14 0h-7V2h7v3zM62 7.5h-3V5h-2.5V2H62zm0 42h-3v-7h3v7zm0-14h-3v-7h3v7zm0-14h-3v-7h3v7z" style="fill:#6e8189"/><path d="m48.699 23.323-3.186 3.856c6.45 3.957 2.84 14.291 5.771 21.82.998-7.51 5.663-23.897-2.585-25.676zM15.247 25.23l3.185 1.95c-6.45 3.957-2.713 14.291-5.642 21.82-.998-7.512-5.79-21.99 2.457-23.77z" style="fill:#f07918"/><path d="M45.323 26.088c4.096-.015 4.503 6.679 4.503 6.679s1.23-7.623-3.974-7.623l-.53.944zm-29.656 3.307c-1.643 4.012-2.223 8.134-2.223 8.134s-.867-2.887 1.202-7.99l1.021-.144z" style="fill:#cf5d00"/><path d="M46.955 24.526c3.202-.333 3.978 4.87 3.978 4.87s.439-6.057-3.628-5.65l-.35.78z" style="fill:#cf5d00"/><path d="M48.697 23.323S43.924 15 31.972 15c-12.975 0-21.155 5.816-21.433 17.075 7.948-7.836 28.882 4.347 38.158-8.752z" style="fill:#ff8d30"/><path d="M48.697 23.323C47.473 19.48 40.965 15 31.972 15c4.984.352 11.555 2.821 12.23 4.381 0 0-6.893-3.716-16.196-2.086 8.53-.388 14.161 5.036 11.764 5.065-2.335.03-11.007.32-16.152 3.494 3.31-.224 9.845 1.557 9.548 1.672-6.59 2.55-19.815-3.515-22.531 4.547 10.213-8.75 29.699 5.345 38.062-8.75z" style="fill:#f07918"/><path d="M48.697 23.323c-6.818 16.121-37.461-1.907-36.748 11.592-3.129-15.49 26.663 3.615 36.748-11.592z" style="fill:#cf5d00"/><path d="M46.83 25.738c-3.242-6.363-13.75-8.651-13.75-8.651s10.987.628 14.605 7.799l-.855.852zm-1.664 1.442c-3.019-2.829-17.577-1.832-17.577-1.832s10.613-3.202 18.73.908l-1.154.923z" style="fill:#cf5d00"/><path d="M11.19 29.62s1.427-11.581 21.332-10.716C16.157 21.174 11.19 29.621 11.19 29.621z" style="fill:#f07918"/><path d="M12.42 28.956s7.886-10.322 25.2-7.719c-14.446-.421-25.2 7.72-25.2 7.72zm-.433-3.607s8.657-9.737 22.85-9.573c-16.4-2.18-22.85 9.573-22.85 9.573z" style="fill:#ff9b4a"/></svg>