<svg xmlns="http://www.w3.org/2000/svg" xml:space="preserve" style="enable-background:new 0 0 64 64" viewBox="0 0 64 64"><path d="M17.32 62c-.63 0-1.22-.11-1.76-.36-.5-.23-.92-.58-1.24-1.01-.5.07-1.04.04-1.56-.08-.73-.17-1.38-.53-1.88-1.01-.85.12-1.73-.05-2.52-.51a4.173 4.173 0 0 1-1.69-1.82c-1.37-.36-2.15-1.1-2.58-1.71-.65-.92-.91-2.15-.76-3.44-.9-1.49-1.79-3.45-1.05-5.08.77-1.68 2.68-1.89 3.83-2.02.24-.03.55-.06.65-.09 5.85-1.67 8.26-3.46 11.04-5.54 1.58-1.18 3.22-2.4 5.6-3.72 5.41-3.01 9.7-6.66 10.56-8.31 1.58-3.01 1.95-10.19 2.57-18.2 0 0 2.02 15.94.07 19.66-1.46 2.79-7.03 6.92-11.78 9.56-2.21 1.23-3.76 2.39-5.27 3.51-2.89 2.15-5.63 4.19-12 6.01-.35.1-.73.14-1.14.19-.41.05-1.25.14-1.47.32.03.01-.01.68 1.19 2.54l.36.55-.14.64c-.12.51-.13 1.21.16 1.63.24.34.73.55 1.45.62l1.24.12.11 1.27c.01.14.18.44.51.63.32.18.64.19.96.03l1.38-.69.64 1.44c.11.24.39.36.55.4.38.11.71.04.8-.02l1.99-1.68.43 2.61c.05.31.15.36.21.39.52.24 2.25.12 5.45-1.89 1.24-.78 2.66-.72 4.17-.66 1.5.06 3.2.13 5.14-.59 1.39-.52 3.04-1.46 4.79-2.45 3.15-1.8 6.72-3.83 10.62-4.54.37-.07.85-.11 1.45-.16 2.66-.22 7.6-.62 9.63-3.96 1.48-2.44 1.26-6.21-.67-11.19-2.35-6.09-.77-15.88.98-23.03.21-.87 1.43-2.89 1.27-3.59 0 0 1.33 1.69 1.01 4.36-.69 5.86-2.64 15.52-.48 21.13 2.3 5.94 2.44 10.64.43 13.95-2.83 4.66-8.98 5.16-11.94 5.4-.5.04-.9.07-1.17.12-3.4.62-6.74 2.52-9.69 4.2-1.82 1.07-3.58 2.07-5.2 2.67-2.49.92-4.59.84-6.28.77-1.09-.04-2.02-.08-2.49.21-1.89 1.19-4.37 2.42-6.48 2.42z" style="fill:#cfa47c"/><radialGradient id="a" cx="-8.036" cy="20.024" r="47.821" gradientTransform="matrix(.967 -.1227 .0977 .8095 30.347 3.21)" gradientUnits="userSpaceOnUse"><stop offset=".436" style="stop-color:#ffd8b4"/><stop offset=".66" style="stop-color:#fdd6b2"/><stop offset=".76" style="stop-color:#f8d0ab"/><stop offset=".835" style="stop-color:#eec59e"/><stop offset=".897" style="stop-color:#e0b58c"/><stop offset=".903" style="stop-color:#deb38a"/></radialGradient><path d="M58.77 32.84c-2.32-6.01-.38-16.28 1.04-22.09 2.96-12.13-23.72-10.85-23.28-1 .38 8.59.53 14.91-1.24 18.29-1.2 2.29-6.24 6.19-11.17 8.93-6.57 3.66-7.57 6.7-16.96 9.39-1.38.39-5.94-.31-2.26 5.38-.31 1.37-.22 3.82 2.93 4.13.12 1.37 1.88 2.78 3.62 1.91.65 1.46 2.76 1.7 3.66.94.41 2.47 3.47 2.34 7.92-.45 1.86-1.16 4.93.41 9.04-1.11 4.04-1.5 9.34-5.87 15.16-6.92 2.75-.51 18.45.45 11.54-17.4z" style="fill:url(#a)"/><path d="M54.48 34.38c7.55-7.95 1.46-9.08.74-18.15-1.44 7.63 3.59 9.9-.74 18.15z" style="fill:#cfa47c"/><path d="M7.16 46.36c-2.25.41-2.93.25-3.56 1.36 0 0-.24 3.35 2.79 1.22 1.86-1.3.77-2.58.77-2.58zm.11 3.97c-2.17.39-2.07 1.42-2.07 1.42s.58 2.85 2.1.76c.94-1.28-.03-2.18-.03-2.18zm2.49 3.02c-1.84.64-1.69 1.47-1.69 1.47s.71 2.25 1.88.31c.71-1.18-.19-1.78-.19-1.78zm2.97 1.17c-1.79.8-1.56 1.62-1.56 1.62s.89 2.18 1.89.15c.62-1.25-.33-1.77-.33-1.77zm3.97 1.61c-1.65 1.09-1.31 1.86-1.31 1.86s1.2 2.01 1.89-.17c.43-1.34-.58-1.69-.58-1.69z" style="opacity:.3;fill:#fff"/><path d="M6.46 49.87c-1.95.71-2.04 2.3-1.62 3.58-.02-1.27.77-2.83 2.43-3.12 1.12-2.55 4.49-3.87 7.05-4.44-2.24-.44-6.78 1.96-7.86 3.98zm1.92 7.23c-.31-1.1-.42-3.05 1.38-3.75.1-3.54 4.2-4.99 6.62-6.1-2.85.65-7.05 1.91-7.29 5.6-1.7.74-1.91 3.28-.71 4.25zm8.32-.97c-.06-3.98 5.41-4.13 5.17-6.13-.83 1.61-5.78 1.89-5.85 6.03-2.6 2.38-.15 4.02-.15 4.02s-1.45-2.22.83-3.92z" style="fill:#cfa47c"/><path d="M12.73 54.52c-.06-3.98 6.41-4.68 6.17-6.68-.83 1.61-6.57 2.25-6.65 6.39-2.58.97-1.59 3.98.07 4.5-.99-1.02-1.41-3.29.41-4.21z" style="fill:#cfa47c"/></svg>