<svg xmlns="http://www.w3.org/2000/svg" xml:space="preserve" style="enable-background:new 0 0 64 64" viewBox="0 0 64 64"><path d="M62 62h-5.5v-3H59v-2.501h3zm-12.5 0h-7v-3h7v3zm-14 0h-7v-3h7v3zm-14 0h-7v-3h7v3zm-14 0H2v-5.501h3v2.5h2.5zM5 49.5H2v-7h3v7zm0-14H2v-7h3v7zm0-14H2v-7h3v7zm0-14H2V2h5.5v3H5zM49.5 5h-7V2h7v3zm-14 0h-7V2h7v3zm-14 0h-7V2h7v3zM62 7.5h-3V5h-2.5V2H62zm0 42h-3v-7h3v7zm0-14h-3v-7h3v7zm0-14h-3v-7h3v7z" style="fill:#6e8189"/><path d="M51.904 32.091c-3.082.373-5.306 10.691-3.369 13.413.27.381 1.86.988 3.036-1.416.653-1.329 2.534-2.44 3.116-5.184.748-3.518.283-7.184-2.783-6.813zm-39.806 0c3.082.373 5.306 10.691 3.367 13.413-.27.381-1.86.988-3.036-1.416-.653-1.329-2.534-2.44-3.116-5.184-.748-3.518-.28-7.185 2.785-6.813z" style="fill:#ffc940"/><path d="M51.82 34.07c-.803.252-1.68 1.478-2.157 3.513 2.81-.604 2.108 4.076-.334 4.164.022.471.054.956.111 1.464 1.177-1.708 2.373-1.021 3.556-3.564 1.067-2.292.815-6.203-1.177-5.578zm-37.483 3.507c-.477-2.03-1.352-3.256-2.154-3.507-1.991-.626-2.246 3.285-1.179 5.577 1.184 2.543 2.379 1.856 3.558 3.564.057-.51.09-.995.109-1.466-2.417-.115-3.108-4.738-.334-4.168z" style="fill:#f0a429"/><path d="M32 12.253c-13.349 0-19.781 10.1-18.977 24.145.163 2.825 1.914 12.042 3.567 15.347h30.82c1.657-3.305 3.407-12.521 3.567-15.347.806-14.044-5.624-24.145-18.977-24.145z" style="fill:#ffc940"/><radialGradient id="a" cx="32.084" cy="27.666" r="17.978" fx="32.067" fy="15.915" gradientTransform="matrix(1 0 0 .8281 0 4.756)" gradientUnits="userSpaceOnUse"><stop offset="0" style="stop-color:#ffda61"/><stop offset=".435" style="stop-color:#ffd95e;stop-opacity:.5654"/><stop offset=".699" style="stop-color:#ffd456;stop-opacity:.301"/><stop offset=".917" style="stop-color:#ffcd48;stop-opacity:.0827"/><stop offset="1" style="stop-color:#ffc940;stop-opacity:0"/></radialGradient><path d="M32 12.253c-13.349 0-19.781 10.1-18.977 24.145.163 2.825 1.914 12.042 3.567 15.347h30.82c1.657-3.305 3.407-12.521 3.567-15.347.806-14.044-5.624-24.145-18.977-24.145z" style="fill:url(#a)"/></svg>