<svg xmlns="http://www.w3.org/2000/svg" xml:space="preserve" style="enable-background:new 0 0 64 64" viewBox="0 0 64 64"><path d="M60.017 43.78s-11.395-6.488-16.07-.363C40.976 47.31 43.199 63 43.199 63c9.653 0 13.51-.805 13.51-.805s5.914-6.362 3.31-18.416zm-56.035 0s11.396-6.488 16.07-.363c2.973 3.894.75 19.583.75 19.583-9.653 0-13.51-.805-13.51-.805s-5.914-6.362-3.31-18.416z" style="fill:#55212a"/><path d="M60.065 44.846c-1.648-3.444-5.474-6.938-8.064-8.278-5.785-7.015-16.711-2.197-20-2.197-3.291 0-14.217-4.818-20.002 2.197-2.59 1.34-6.416 4.834-8.064 8.278-7.944 6.86 11.14 15.62 11.14 15.62 4.932-1.152 2.035-4.286 2.035-4.286-3.35-1.893-3.34-4.95-6.736-7.987 3.166-.648 6.441-3.69 6.441-3.69.871 6.274 4.721 6.977 3.934 18.497h22.504c-.787-11.52 3.06-12.223 3.933-18.496 0 0 3.274 3.041 6.44 3.69-3.395 3.037-3.387 6.093-6.737 7.986 0 0-2.896 3.135 2.036 4.287 0 0 19.084-8.762 11.14-15.621z" style="fill:#0080cc"/><path d="M49.775 42.944c-3.485.987-2.042 6.875-12.667 5.938 8.604-.292 8.177-5.695 12.667-5.938zm-35.635 0c3.484.987 2.041 6.875 12.666 5.938-8.604-.292-8.176-5.695-12.667-5.938z" style="fill:#006099"/><linearGradient id="a" x1="32.001" x2="32.001" y1="62.377" y2="55.054" gradientUnits="userSpaceOnUse"><stop offset="0" style="stop-color:#f80"/><stop offset=".211" style="stop-color:#ffa113"/><stop offset=".543" style="stop-color:#ffc32b"/><stop offset=".818" style="stop-color:#ffd83a"/><stop offset="1" style="stop-color:#ffdf40"/></linearGradient><path d="M44.151 57.49c-.804-.806-4.615.069-8.44-1.48-3.046-1.236-4.19-1.313-7.423 0-3.813 1.549-7.611.676-8.412 1.48-.494.498-.733 2.276 0 2.717 1.17.705 4.812-.125 8.396 1.346 2.643 1.086 4.75 1.101 7.424.033 3.7-1.48 7.41-.611 8.455-1.379.668-.49.494-2.219 0-2.717z" style="fill:url(#a)"/><path d="M24.632 57.01a1.269 1.269 0 0 0-.344.398c-.26.508-.385 2.328 0 2.78.07.082.158.158.256.234-.213-.86-.111-2.725.088-3.412zm14.736 0c.154.123.271.256.344.398.26.508.385 2.328 0 2.78-.07.082-.158.158-.256.234.213-.86.111-2.725-.088-3.412z" style="fill:#ff9e00"/><path d="M46.96 56.135c-2.152.355-2.285-.867-3.09-.992-.478-.075-.822.615-.924 1.646-.094.98-1.234 1.986-3.326 3.201-1.375.8-.328 2.313.94 1.756.355.787 1.425.787 1.425.787 1.88 1.576 5.35-1.283 6.94-2.068-1.96-2.285-1.965-4.33-1.965-4.33z" style="fill:#5e4c3b"/><path d="M43.102 60.582s-1.005.666-2.542 1.164c1.39-.685 2.542-1.164 2.542-1.164zm1.026 1.254s-.735.697-2.143.697c1.117-.174 2.143-.697 2.143-.697z" style="fill:#4a3728"/><path d="M17.04 56.135c2.182.361 2.287-.86 3.09-.992.478-.078.824.615.924 1.646.095.98 1.236 1.986 3.326 3.201 1.377.8.33 2.313-.94 1.756-.355.787-1.425.787-1.425.787-1.88 1.576-5.35-1.283-6.94-2.068 1.96-2.285 1.965-4.33 1.965-4.33z" style="fill:#5e4c3b"/><path d="M20.897 60.582s1.006.666 2.543 1.164a48.672 48.672 0 0 0-2.543-1.164zm-1.025 1.254s.734.697 2.143.697c-1.118-.174-2.143-.697-2.143-.697z" style="fill:#4a3728"/><linearGradient id="b" x1="32" x2="32" y1="62.716" y2="54.716" gradientUnits="userSpaceOnUse"><stop offset="0" style="stop-color:#fff047"/><stop offset=".008" style="stop-color:#fff049"/><stop offset=".229" style="stop-color:#fff273"/><stop offset=".444" style="stop-color:#fff394"/><stop offset=".649" style="stop-color:#fff4ac"/><stop offset=".839" style="stop-color:#fff5ba"/><stop offset="1" style="stop-color:#fff5bf"/></linearGradient><path d="M32 54.716c-2.206 0-4 1.794-4 4 0 2.205 1.794 4 4 4s4-1.795 4-4c0-2.206-1.794-4-4-4z" style="fill:url(#b)"/><linearGradient id="c" x1="32" x2="32" y1="62.216" y2="55.216" gradientUnits="userSpaceOnUse"><stop offset="0" style="stop-color:#f80"/><stop offset=".211" style="stop-color:#ffa113"/><stop offset=".543" style="stop-color:#ffc32b"/><stop offset=".818" style="stop-color:#ffd83a"/><stop offset="1" style="stop-color:#ffdf40"/></linearGradient><path d="M32 56.09a2.629 2.629 0 0 1 2.626 2.626A2.629 2.629 0 0 1 32 61.341a2.63 2.63 0 0 1-2.626-2.625A2.63 2.63 0 0 1 32 56.091zm0-.874a3.501 3.501 0 1 0 3.5 3.5 3.5 3.5 0 0 0-3.5-3.5z" style="fill:url(#c)"/><linearGradient id="d" x1="32.264" x2="32.264" y1="60.729" y2="58.365" gradientUnits="userSpaceOnUse"><stop offset="0" style="stop-color:#f80"/><stop offset=".211" style="stop-color:#ffa113"/><stop offset=".543" style="stop-color:#ffc32b"/><stop offset=".818" style="stop-color:#ffd83a"/><stop offset="1" style="stop-color:#ffdf40"/></linearGradient><path d="M32.7 59.066c-.116 0-.176-.058-.176-.175v-.35c0-.118.06-.176.176-.176h1.137c.118 0 .176.058.176.176v.175a2.012 2.012 0 0 1-3.435 1.423c-.084-.083-.084-.164-.001-.248l.373-.37c.082-.083.164-.083.246 0a1.14 1.14 0 0 0 1.887-.454H32.7z" style="fill:url(#d)"/><linearGradient id="e" x1="32" x2="32" y1="48.148" y2="39.449" gradientUnits="userSpaceOnUse"><stop offset="0" style="stop-color:#fa0"/><stop offset=".033" style="stop-color:#ffad00"/><stop offset=".456" style="stop-color:#ffd500"/><stop offset=".793" style="stop-color:#ffed00"/><stop offset="1" style="stop-color:#fff600"/></linearGradient><path d="M31.797 39.693c.112-.326.294-.326.406 0l1.013 2.967 3.249-.002c.378 0 .441.17.14.377l-2.637 1.824 1.013 2.964c.112.327-.043.424-.343.216L32 46.22l-2.638 1.82c-.3.208-.455.11-.343-.216l1.013-2.964-2.638-1.824c-.3-.207-.237-.376.141-.376l3.249.001 1.013-2.967z" style="fill:url(#e)"/><path d="M59.236 41.063c-1.643-3.688-7.325-9.73-14.27-9.896C42.092 28.945 32 29.6 32 29.6s-10.092-.655-12.966 1.567c-6.945.166-12.627 6.208-14.27 9.895C2.735 42.313 2 44.584 2 48.334v11.23s1.527 1.854 5.295 2.632c0 0-4.747-8.82-2.748-15.951.78-2.782 4.188-4.244 7.22-8.428 5.932-8.188 14.305.278 20.234-1.456 5.928 1.734 14.3-6.732 20.233 1.456 3.031 4.184 6.438 5.646 7.218 8.428 2 7.131-2.747 15.95-2.747 15.95C60.473 61.418 62 59.563 62 59.563V48.334c0-3.75-.735-6.02-2.764-7.27z" style="fill:#e81c27"/><path d="M16.632 31.458c3.681-.377 6.711 1.721 10.118 2.37-4.562-1.69-6.5-3.562-10.118-2.37zM3.529 42.134s1.877-1.652 4.771-1.957c-3.506-.471-4.771 1.957-4.771 1.957zm43.839-10.676c-3.681-.377-6.711 1.721-10.118 2.37 4.562-1.69 6.5-3.562 10.118-2.37zM60.47 42.134s-1.876-1.652-4.77-1.957c3.505-.471 4.77 1.957 4.77 1.957z" style="fill:#a3141b"/><path d="M26.501 31.738c0 1.748 3.793 4.622 5.5 4.622 1.707 0 5.5-2.874 5.5-4.622v-2.904h-11v2.904z" style="fill:#5e4c3b"/><path d="M43.224 16.26c-1.739.21-2.993 6.03-1.9 7.564.153.215 1.048.557 1.712-.799.367-.75 1.428-1.375 1.758-2.923.42-1.983.158-4.051-1.57-3.842zm-22.446 0c1.737.21 2.993 6.03 1.899 7.564-.153.215-1.05.557-1.713-.799-.367-.75-1.428-1.375-1.756-2.923-.422-1.983-.158-4.051 1.57-3.842z" style="fill:#735c48"/><path d="M43.177 17.377c-.453.143-.948.832-1.217 1.98 1.584-.34 1.19 2.3-.188 2.348.012.266.03.54.063.826.664-.963 1.338-.576 2.004-2.01.603-1.292.459-3.498-.662-3.144zM22.04 19.354c-.268-1.145-.762-1.836-1.215-1.977-1.123-.353-1.265 1.852-.664 3.144.668 1.434 1.342 1.047 2.006 2.01.033-.287.05-.56.062-.826-1.363-.064-1.753-2.672-.189-2.351z" style="fill:#4a3728"/><path d="M32 5.074c-7.526 0-11.153 5.696-10.7 13.616.092 1.591 1.078 6.789 2.012 8.654.955 1.908 4.144 4.847 6.101 5.457 1.236.385 3.94.385 5.176 0 1.955-.61 5.146-3.549 6.101-5.457.934-1.865 1.92-7.06 2.01-8.655.455-7.92-3.17-13.615-10.7-13.615z" style="fill:#735c48"/><path d="M43.435 9.516c-.142-.732-.542-1.382-1.06-1.918-2.058-2.128-3.068-4.558-6.351-4.558-2.059 0-15.311 5.802-15.417 6.418-.519 3.02.562 4.242.562 8.181h1.075c-.482-5.365 1.17-8.597 2.86-8.115 3.362.958 4.093 1.246 7.645.119 1.83-.581 5.765-.887 7.306.42 1.336 1.134 2.182 2.211 1.7 7.576h1.076c0-2.573 1.3-4.535.604-8.123z" style="fill:#382e26"/><path d="M43.202 9.557c-.142-.732-.31-1.423-.827-1.96C40.316 5.47 37.872 1 34.59 1c-2.059 0-3.718.92-6.793.814-3.208-.11-5.056 4.375-6.402 5.981a3.525 3.525 0 0 0-.788 1.662c-.52 3.022.748 1.122.748 1.122 2.669-3.717 5.632.43 13.52-2.117 2.415-.78 2.9-2.984 4.688-3.977.143-.08-2.852 3.56-1.655 3.722 1.084.147 3.12 1.117 3.764 2.36 1.356 2.613 2.227 2.578 1.53-1.01z" style="fill:#473e35"/><path d="M22.618 7.833c3.831 1.93 8.89-1.04 12.302-.226-3.286-3.301-9.36.418-12.302.226zM39.1 5.765s2.494.635 3.69 3.99c-.56-3.99-3.69-3.99-3.69-3.99zm-.467 2.138s2.875.685 4.035 3.556c-.415-3.786-4.035-3.556-4.035-3.556z" style="fill:#574f45"/><path d="M21.151 13.182c1.056-.686 1.085-2.56 1.74-3.15-1.725.24-2.036 1.73-1.74 3.15z" style="fill:#473e35"/><path d="M33.39 1.309c2.337.094 3.71.835 5.647 3.349-.51-2.447-3.521-4.032-5.647-3.35zM23.327 5.921c3.75-2.4 8.753-3.237 12.109-1.898C31.9.599 25.583 2.838 23.327 5.921z" style="fill:#574f45"/><path d="M38.323 5.921c-2.11-3.443-6.334-4.209-6.334-4.209s4.3-.828 6.893 3.474l-.56.735zm-.272 1.184c2.437.134 4.06 1.887 4.06 1.887s-.768-2.294-3.76-2.757l-.3.87zm-.652.482C33.975 4.118 25.93 5.681 25.93 5.681s7.978-3.068 11.945.841L37.4 7.587z" style="fill:#382e26"/><path d="M24.562 9.496c-2.03.836-2.396 5.824-2.396 5.824s-.904-4.875 2.153-6.108l.243.284zm13.207-.356c.017-1.935 1.792-4.634 1.792-4.634s-2.411 2.247-2.356 4.711l.564-.077z" style="fill:#1a1714"/><path d="M41.605 12.33c-2.232-4.023-5.885-3.339-10.125-2.14-4.544 1.285-7.09-1.991-10.125.388 2.393-3.4 5.008.522 9.89-.786 5.016-1.343 9.277-1.656 10.36 2.536z" style="fill:#1a1714"/><path d="M34.032 23.588c-.215-.148-.72.082-2.031.082-1.312 0-1.816-.23-2.033-.082-.256.182.154 1 2.033 1s2.289-.818 2.031-1zM32 26.691c-1.692-.498-4.202.237-4.202.237.955 1.04 1.656 2.39 4.203 2.39 2.916 0 3.412-1.533 4.201-2.39 0 0-2.51-.739-4.201-.237z" style="fill:#4a3728"/><path d="M28.429 27.104c1.775 1.488 5.36 1.5 7.144 0-1.892.08-5.24.082-7.144 0z" style="fill:#fff"/><path d="M40.179 15.68c-1.721-.912-5.016-.955-6.244-.32-.262.123-.088.986.132.904 1.711-.676 4.469-.692 6.07.056.213.098.303-.513.042-.64zm-16.358 0c1.723-.912 5.016-.955 6.244-.32.262.123.088.986-.132.904-1.713-.676-4.467-.692-6.07.056-.214.098-.302-.513-.042-.64z" style="fill:#302b27"/><path d="M32.018 16.697c-2.746.002-8.314-4.523-10.937.977 1.143 10.52 8.135 2.351 10.937 2.355 2.797.004 9.854 8.26 10.9-2.355-2.622-5.502-8.161-.979-10.9-.977z" style="fill:#e81c27"/><path d="M30.327 18.902c.063.496-.273 1.088-1.21 1.532-.595.283-1.835.613-3.46-.073-.728-.308-1.44-1.261-1.375-1.793.883-1.66 5.219-1.904 6.045.334z" style="fill:#fff"/><linearGradient id="f" x1="-424.255" x2="-424.255" y1="479.134" y2="479.652" gradientTransform="matrix(6.5701 0 0 -6.5701 2814.782 3168.527)" gradientUnits="userSpaceOnUse"><stop offset="0" style="stop-color:#a6694a"/><stop offset="1" style="stop-color:#4f2a1e"/></linearGradient><path d="M27.382 17.164a1.704 1.704 0 1 1 .002 3.408 1.704 1.704 0 0 1-.002-3.408z" style="fill:url(#f)"/><path d="M26.53 18.836c0 1.182 1.707 1.182 1.707 0 0-1.094-1.707-1.094-1.707 0z" style="fill:#1a1626"/><path d="M26.274 18.361c0 .494.713.494.713 0 0-.457-.713-.457-.713 0z" style="fill:#ab968c"/><path d="M30.335 18.969c-.692-2.227-5.41-1.899-6.053-.4.24-1.917 5.463-2.42 6.053.4z" style="fill:#a3141b"/><path d="M33.677 18.902c-.065.496.273 1.088 1.21 1.532.594.283 1.83.613 3.458-.073.726-.308 1.437-1.261 1.373-1.793-.88-1.66-5.217-1.904-6.041.334z" style="fill:#fff"/><linearGradient id="g" x1="-425.554" x2="-425.554" y1="479.134" y2="479.652" gradientTransform="matrix(6.5701 0 0 -6.5701 2832.512 3168.527)" gradientUnits="userSpaceOnUse"><stop offset="0" style="stop-color:#a6694a"/><stop offset="1" style="stop-color:#4f2a1e"/></linearGradient><path d="M36.58 17.164a1.703 1.703 0 1 1 0 3.406 1.703 1.703 0 0 1 0-3.406z" style="fill:url(#g)"/><path d="M35.727 18.836c0 1.182 1.706 1.182 1.706 0 0-1.094-1.706-1.094-1.706 0z" style="fill:#1a1626"/><path d="M35.47 18.361c0 .494.713.494.713 0 0-.457-.713-.457-.713 0z" style="fill:#ab968c"/><path d="M33.667 18.969c.693-2.223 5.404-1.904 6.05-.4-.24-1.917-5.46-2.42-6.05.4z" style="fill:#a3141b"/></svg>