<svg xmlns="http://www.w3.org/2000/svg" xml:space="preserve" style="enable-background:new 0 0 64 64" viewBox="0 0 64 64"><path d="M58.15 44.78s-10.636-6.488-14.999-.363c-2.774 3.894-.7 19.583-.7 19.583 9.01 0 12.61-.805 12.61-.805s5.52-6.362 3.089-18.416zm-52.3 0s10.636-6.488 14.999-.363c2.774 3.894.7 19.583.7 19.583-9.01 0-12.61-.805-12.61-.805S3.42 56.833 5.85 44.779z" style="fill:#55212a"/><path d="M58.194 45.846c-1.538-3.444-5.11-6.938-7.527-8.278-5.399-7.015-15.596-2.197-18.666-2.197-3.072 0-13.269-4.818-18.668 2.197-2.418 1.34-5.989 4.834-7.527 8.278-7.414 6.86 10.398 15.62 10.398 15.62 4.603-1.152 1.9-4.286 1.9-4.286-3.127-1.893-3.84-4.95-7.145-7.987 3.08-.648 6.869-3.69 6.869-3.69.813 6.274 4.406 6.977 3.671 18.497h21.004c-.735-11.52 2.856-12.223 3.671-18.496 0 0 3.787 3.041 6.867 3.69-3.302 3.036-4.018 6.093-7.144 7.986 0 0-2.703 3.134 1.9 4.287 0 0 17.811-8.762 10.397-15.621z" style="fill:#0080cc"/><path d="M48.59 43.944c-3.252.987-1.906 6.875-11.823 5.938 8.031-.292 7.632-5.695 11.823-5.938zm-33.26 0c3.252.987 1.906 6.875 11.822 5.938-8.03-.292-7.631-5.695-11.822-5.938z" style="fill:#006099"/><linearGradient id="a" x1="32.001" x2="32.001" y1="63.377" y2="56.054" gradientUnits="userSpaceOnUse"><stop offset="0" style="stop-color:#f80"/><stop offset=".211" style="stop-color:#ffa113"/><stop offset=".543" style="stop-color:#ffc32b"/><stop offset=".818" style="stop-color:#ffd83a"/><stop offset="1" style="stop-color:#ffdf40"/></linearGradient><path d="M43.341 58.49c-.75-.806-4.307.069-7.877-1.48-2.843-1.236-3.912-1.313-6.928 0-3.559 1.549-7.104.676-7.852 1.48-.461.498-.683 2.276 0 2.717 1.092.705 4.492-.125 7.837 1.346 2.466 1.086 4.433 1.101 6.929.033 3.452-1.48 6.916-.611 7.891-1.379.624-.49.461-2.219 0-2.717z" style="fill:url(#a)"/><path d="M25.123 58.01a1.25 1.25 0 0 0-.32.398c-.243.508-.36 2.328 0 2.78.065.082.147.158.238.234-.199-.86-.104-2.725.082-3.412zm13.754 0c.144.123.253.256.32.398.243.508.36 2.328 0 2.78a1.693 1.693 0 0 1-.238.234c.198-.86.104-2.725-.082-3.412z" style="fill:#ff9e00"/><path d="M45.962 57.135c-2.008.355-2.132-.867-2.883-.992-.447-.075-.768.615-.863 1.646-.087.98-1.152 1.986-3.104 3.201-1.283.8-.306 2.313.877 1.756.332.787 1.33.787 1.33.787 1.754 1.576 4.993-1.283 6.477-2.068-1.828-2.285-1.834-4.33-1.834-4.33z" style="fill:#855e45"/><path d="M42.362 61.582s-.939.666-2.373 1.164c1.298-.685 2.373-1.164 2.373-1.164zm.958 1.254s-.686.697-2 .697c1.042-.174 2-.697 2-.697z" style="fill:#69452d"/><path d="M18.037 57.135c2.036.361 2.135-.86 2.884-.992.447-.078.77.615.862 1.646.09.98 1.154 1.986 3.105 3.201 1.285.8.308 2.313-.877 1.756-.332.787-1.33.787-1.33.787-1.754 1.576-4.994-1.283-6.478-2.068 1.829-2.285 1.834-4.33 1.834-4.33z" style="fill:#855e45"/><path d="M21.638 61.582s.938.666 2.373 1.164c-1.298-.685-2.373-1.164-2.373-1.164zm-.958 1.254s.686.697 2 .697c-1.042-.174-2-.697-2-.697z" style="fill:#69452d"/><linearGradient id="b" x1="32" x2="32" y1="63.716" y2="55.716" gradientUnits="userSpaceOnUse"><stop offset="0" style="stop-color:#fff047"/><stop offset=".008" style="stop-color:#fff049"/><stop offset=".229" style="stop-color:#fff273"/><stop offset=".444" style="stop-color:#fff394"/><stop offset=".649" style="stop-color:#fff4ac"/><stop offset=".839" style="stop-color:#fff5ba"/><stop offset="1" style="stop-color:#fff5bf"/></linearGradient><path d="M32 55.716c-2.206 0-4 1.794-4 4 0 2.205 1.794 4 4 4s4-1.795 4-4c0-2.206-1.794-4-4-4z" style="fill:url(#b)"/><linearGradient id="c" x1="32" x2="32" y1="63.216" y2="56.216" gradientUnits="userSpaceOnUse"><stop offset="0" style="stop-color:#f80"/><stop offset=".211" style="stop-color:#ffa113"/><stop offset=".543" style="stop-color:#ffc32b"/><stop offset=".818" style="stop-color:#ffd83a"/><stop offset="1" style="stop-color:#ffdf40"/></linearGradient><path d="M32 57.09a2.629 2.629 0 0 1 2.626 2.626A2.629 2.629 0 0 1 32 62.341a2.63 2.63 0 0 1-2.626-2.625A2.63 2.63 0 0 1 32 57.091zm0-.874a3.501 3.501 0 1 0 3.5 3.5 3.5 3.5 0 0 0-3.5-3.5z" style="fill:url(#c)"/><linearGradient id="d" x1="32.264" x2="32.264" y1="61.729" y2="59.365" gradientUnits="userSpaceOnUse"><stop offset="0" style="stop-color:#f80"/><stop offset=".211" style="stop-color:#ffa113"/><stop offset=".543" style="stop-color:#ffc32b"/><stop offset=".818" style="stop-color:#ffd83a"/><stop offset="1" style="stop-color:#ffdf40"/></linearGradient><path d="M32.7 60.066c-.116 0-.176-.058-.176-.175v-.35c0-.118.06-.176.176-.176h1.137c.118 0 .176.058.176.176v.175a2.012 2.012 0 0 1-3.435 1.423c-.084-.083-.084-.164-.001-.248l.373-.37c.082-.083.164-.083.246 0a1.14 1.14 0 0 0 1.887-.454H32.7z" style="fill:url(#d)"/><linearGradient id="e" x1="32" x2="32" y1="49.148" y2="40.449" gradientUnits="userSpaceOnUse"><stop offset="0" style="stop-color:#fa0"/><stop offset=".033" style="stop-color:#ffad00"/><stop offset=".456" style="stop-color:#ffd500"/><stop offset=".793" style="stop-color:#ffed00"/><stop offset="1" style="stop-color:#fff600"/></linearGradient><path d="M31.797 40.693c.112-.326.294-.326.406 0l1.013 2.967 3.249-.002c.378 0 .441.17.14.377l-2.637 1.824 1.013 2.964c.112.327-.043.424-.343.216L32 47.22l-2.638 1.82c-.3.208-.455.11-.343-.216l1.013-2.964-2.638-1.824c-.3-.207-.237-.376.141-.376l3.249.001 1.013-2.967z" style="fill:url(#e)"/><path d="M57.42 42.063c-1.533-3.688-6.837-9.73-13.318-9.896C41.419 29.945 32 30.6 32 30.6s-9.42-.655-12.102 1.567c-6.482.166-11.785 6.208-13.318 9.895C4.686 43.313 4 45.584 4 49.334v11.23s1.425 1.854 4.942 2.632c0 0-4.431-8.82-2.564-15.951.728-2.782 3.908-4.244 6.737-8.428 5.537-8.188 13.353.278 18.886-1.456 5.533 1.734 13.346-6.732 18.884 1.456 2.829 4.184 6.009 5.646 6.737 8.428 1.867 7.131-2.565 15.95-2.565 15.95C58.575 62.418 60 60.563 60 60.563V49.334c0-3.75-.686-6.02-2.58-7.27z" style="fill:#e81c27"/><path d="M17.657 32.458c3.435-.377 6.264 1.721 9.444 2.37-4.259-1.69-6.067-3.562-9.444-2.37zM5.427 43.134s1.752-1.652 4.453-1.957c-3.272-.471-4.453 1.957-4.453 1.957zm40.916-10.676c-3.435-.377-6.264 1.721-9.444 2.37 4.259-1.69 6.067-3.562 9.444-2.37zm12.23 10.676s-1.752-1.652-4.453-1.957c3.272-.471 4.453 1.957 4.453 1.957z" style="fill:#a3141b"/><path d="M26.5 32.738c0 1.748 3.794 4.622 5.5 4.622 1.707 0 5.5-2.874 5.5-4.622v-2.904h-11v2.904z" style="fill:#855e45"/><path d="M21.328 21.499s.296 3.375-.433 5.647c1.024-.13 1.29-.738 1.29-.738s-.036 1.58-.557 2.688c.963.188 1.554-.374 1.554-.374s0 1.196.075 2.018c2.804-.853 2.636-4.696 2.636-4.696l-4.565-4.545zm21.774 5.647c-.73-2.277-.433-5.647-.433-5.647l-4.565 4.545s-.168 3.843 2.638 4.696c.075-.822.075-2.018.075-2.018s.592.562 1.556.374c-.526-1.102-.557-2.688-.557-2.688s.26.608 1.286.738z" style="fill:#3d2e24"/><path d="M43.247 17.22c-1.742.213-3 6.043-1.904 7.582.151.213 1.05.556 1.716-.8.37-.755 1.43-1.379 1.763-2.934.422-1.986.162-4.056-1.575-3.848zm-22.497 0c1.742.213 3.001 6.043 1.904 7.582-.151.213-1.05.556-1.716-.8-.37-.755-1.43-1.379-1.763-2.934-.422-1.986-.156-4.056 1.575-3.848z" style="fill:#916b50"/><path d="M43.2 18.338c-.453.146-.952.837-1.217 1.986 1.586-.343 1.19 2.304-.187 2.356.01.265.031.541.062.827.666-.967 1.342-.577 2.013-2.018.598-1.294.457-3.505-.671-3.151zM22.014 20.32c-.27-1.15-.764-1.842-1.217-1.982-1.123-.354-1.269 1.856-.666 3.151.671 1.436 1.347 1.05 2.013 2.018.031-.291.052-.562.062-.832-1.367-.062-1.757-2.673-.192-2.356z" style="fill:#69452d"/><path d="M31.998 6.008c-7.545 0-11.18 6.147-10.728 14.046.094 1.586.536 3.88 1.082 5.845 1.129 4.082 6.121 8.19 9.647 8.19s8.512-4.108 9.646-8.19c.546-1.965.988-4.254 1.082-5.845.452-7.9-3.183-14.046-10.728-14.046z" style="fill:#916b50"/><path d="M40.2 16.637c-1.727-.915-5.03-.956-6.257-.322-.265.125-.088.988.13.905 1.717-.676 4.483-.692 6.085.057.213.104.301-.51.041-.64zm-16.402 0c1.726-.915 5.028-.956 6.26-.322.266.125.09.988-.13.905-1.715-.676-4.477-.692-6.084.057-.218.104-.306-.51-.046-.64z" style="fill:#523c31"/><path d="M34.037 24.568c-.213-.15-.723.083-2.038.083s-1.82-.234-2.039-.083c-.26.182.15 1.004 2.038 1.004 1.883 0 2.294-.822 2.039-1.004zm-2.039 3.11c-1.695-.5-4.212.239-4.212.239.957 1.045 1.66 2.397 4.212 2.397 2.923 0 3.422-1.534 4.213-2.397 0-.005-2.517-.744-4.212-.24z" style="fill:#69452d"/><path d="M28.42 28.088c1.78 1.493 5.373 1.503 7.162 0-1.899.084-5.253.084-7.161 0z" style="fill:#fff"/><path d="M37.578 6.8c5.242.95 7.481 10.195 3.86 14.42-.74-4.222.921-3.915-1.516-7.423-1.555-2.237-2.343-6.996-2.343-6.996z" style="fill:#3d2e24"/><path d="M38.276 6.63c5.173 1.27 6.84 10.635 2.967 14.629-.48-4.259 1.16-3.85-1.057-7.501-1.415-2.329-1.91-7.127-1.91-7.127z" style="fill:#5c4233"/><path d="M40.44 8.91c1.719 1.395 3.36 6.387 1.516 9.083.746-5.322-1.84-4.868-2.65-8.483l1.134-.6z" style="fill:#6b4d3c"/><path d="M26.746 6.894c-5.268.791-7.784 9.965-4.291 14.296.867-4.197-.804-3.94 1.738-7.373 1.621-2.19 2.553-6.923 2.553-6.923z" style="fill:#3d2e24"/><path d="M25.678 6.812c-4.088 1.3-5.622 10.143-3.344 14.092.48-4.26-1.53-3.128.687-6.778 1.414-2.329 2.657-7.314 2.657-7.314z" style="fill:#5c4233"/><path d="M31.998 1.752c-2.912 0-4.17.93-5.512.494-2.147-.696-3.789 3.984-3.789 6.73 1.232-.922 3.023 2.533 9.301 2.533s8.07-3.455 9.301-2.534c0-5.396-5.96-7.223-9.3-7.223z" style="fill:#5c4233"/><path d="M32.018 17.7c-2.746.001-8.314-4.524-10.938.976 1.143 10.52 8.135 2.351 10.938 2.355 2.796.004 9.853 8.26 10.9-2.355-2.623-5.502-8.162-.979-10.9-.977z" style="fill:#e81c27"/><path d="M30.326 19.904c.063.496-.273 1.088-1.21 1.531-.594.282-1.835.612-3.46-.073-.728-.307-1.44-1.261-1.375-1.793.883-1.66 5.219-1.904 6.045.335z" style="fill:#fff"/><linearGradient id="f" x1="-424.255" x2="-424.255" y1="478.981" y2="479.5" gradientTransform="matrix(6.5701 0 0 -6.5701 2814.782 3168.527)" gradientUnits="userSpaceOnUse"><stop offset="0" style="stop-color:#a6694a"/><stop offset="1" style="stop-color:#4f2a1e"/></linearGradient><path d="M27.38 18.166a1.704 1.704 0 1 1 .003 3.407 1.704 1.704 0 0 1-.002-3.407z" style="fill:url(#f)"/><path d="M26.53 19.838c0 1.18 1.706 1.18 1.706 0 0-1.094-1.707-1.094-1.707 0z" style="fill:#1a1626"/><path d="M26.273 19.361c0 .494.713.494.713 0 0-.457-.713-.457-.713 0z" style="fill:#ab968c"/><path d="M30.334 19.969c-.691-2.225-5.41-1.897-6.053-.4.24-1.915 5.463-2.42 6.053.4z" style="fill:#a3141b"/><path d="M33.676 19.904c-.065.496.273 1.088 1.21 1.531.595.282 1.83.612 3.458-.073.726-.307 1.437-1.261 1.373-1.793-.88-1.66-5.217-1.904-6.041.335z" style="fill:#fff"/><linearGradient id="g" x1="-425.554" x2="-425.554" y1="478.981" y2="479.5" gradientTransform="matrix(6.5701 0 0 -6.5701 2832.512 3168.527)" gradientUnits="userSpaceOnUse"><stop offset="0" style="stop-color:#a6694a"/><stop offset="1" style="stop-color:#4f2a1e"/></linearGradient><path d="M36.58 18.166a1.703 1.703 0 1 1 0 3.406 1.703 1.703 0 0 1 0-3.406z" style="fill:url(#g)"/><path d="M35.727 19.838c0 1.18 1.705 1.18 1.705 0 0-1.094-1.706-1.094-1.706 0z" style="fill:#1a1626"/><path d="M35.469 19.361c0 .494.713.494.713 0 0-.457-.713-.457-.713 0z" style="fill:#ab968c"/><path d="M33.666 19.969c.693-2.221 5.404-1.905 6.05-.4-.24-1.915-5.46-2.42-6.05.4z" style="fill:#a3141b"/><path d="M18.999 0c1.124 13.629 9.732 4.548 12.998 11.174C32.331.313 23.428 7.079 19 0z" style="fill:#5c4233"/><path d="M20.994.689c3.938 13.095 10.466 2.42 15.04 8.22C34.099-1.783 26.802 6.69 20.995.69z" style="fill:#5c4233"/><path d="M24.74.124c-2.127 11.578 7.316 3.082 10.135 8.506-.537-9.379-8.522-1.899-10.134-8.506z" style="fill:#5c4233"/><path d="M19.419 4.172c.224 11.776 7.925.448 12.4 4.611-3.652-8.655-8.664 1.072-12.4-4.611z" style="fill:#5c4233"/><path d="M18.999 7.26c1.52 8.627 7.093 1.246 10.674 3.547-3.205-5.026-7.566-.304-10.674-3.546z" style="fill:#5c4233"/><path d="M18.999 7.26c2.06 5.732 6.091-.612 10.674 3.547-3.205-5.026-7.566-.304-10.674-3.546z" style="fill:#6b4d3c"/><path d="M19.771 4.968c2.5 4.533 7.843.226 10.834 6.131-1.526-7.08-7.556-3.333-10.834-6.131z" style="fill:#6b4d3c"/><path d="M19.419 10.417c2.146 6.99 6.021.27 9.523.779-4.205-2.477-6.08 1.35-9.523-.78z" style="fill:#3d2e24"/><path d="M19.419 10.417c2.6 6.38 6.165-.175 9.667.815-3.943-3.826-6.225.784-9.667-.815z" style="fill:#5c4233"/><path d="M19.419 10.417c2.24 3.88 5.584-1 9.667.815-3.943-3.826-6.225.784-9.667-.815z" style="fill:#6b4d3c"/><path d="M19.94 3.281c3.236 4.272 7.374 1.066 10.906 7.302-2.106-6.142-7.354-3.662-10.906-7.302z" style="fill:#3d2e24"/><path d="M20.431 7.22c3.117 2.285 5.248-.808 8.987 2.777C26.67 6.178 23.628 9 20.43 7.22z" style="fill:#3d2e24"/><path d="M19.94 9.71c3.34 1.942 4-1.585 8.554.881-3.661-2.954-5.188.55-8.554-.881z" style="fill:#3d2e24"/><path d="M24.815.689c.59 5.879 7.286 2.364 10.323 10.123C35.984.124 27.566 5.08 24.815.689z" style="fill:#6b4d3c"/><path d="M21.768 1.752c5.878 4.96 8.471.28 11.723 9.347-1.452-9.162-6.055-5.22-11.723-9.347z" style="fill:#3d2e24"/><path d="M24.924 1c1.614 5.048 8.536.995 10.214 9.812C34.776 1.96 26.915 5.732 24.925 1zm-5.505 6.942c2.708 2.96 4.446-.45 9.193 1.768-3.776-2.77-6.266.733-9.193-1.768zm1.107-2.26c3.31 2.27 5.827-.496 9.191 3.52-2.25-4.105-5.772-1.747-9.19-3.52z" style="fill:#7a5b49"/><path d="M19.316.78c2.344 6.782 9.888 1.85 12.607 10.636C31.27 1.286 22.96 5.306 19.316.779z" style="fill:#6b4d3c"/><path d="M20.142 1.92c3.78 3.8 7.467.453 11 6.689-2.107-6.142-6.992-3.559-11-6.69zm-.403 8.72c4.24 1.721 3.481-1.436 8.937.22-5.27-2.416-4.895 1.139-8.937-.22z" style="fill:#7a5b49"/><path d="M27.471 2.761c2.744 1.313 7.63 2.88 9.032 7.682 1.831-6.068-4.237-8.861-9.032-7.682z" style="fill:#6b4d3c"/><path d="M28.942 2.197c3.736.322 7.94 2.57 9.031 7.682 1.832-6.068-4.237-8.861-9.031-7.682z" style="fill:#6b4d3c"/><path d="M32.284 1.88c3.636.916 5.872 2.251 6.964 7.363 1.493-5.52-2.34-7.277-6.964-7.364z" style="fill:#6b4d3c"/><path d="M37.132 3.135c2.494 1.807 2.355 3.028 3.269 5.513.68-2.352-.119-4.267-3.269-5.513z" style="fill:#6b4d3c"/><path d="M27.828 2.823c4.552-.077 7.867 1.987 8.675 7.62.303-5.789-4.438-8.103-8.675-7.62z" style="fill:#7a5b49"/><path d="M29.982 2.024c4.542.303 7.646 2.182 7.98 7.862.785-5.743-3.718-7.989-7.98-7.862z" style="fill:#7a5b49"/><path d="M33.106 1.88c4.005.797 6.487 2.544 6.142 7.363 1.348-4.738-2.337-6.96-6.142-7.364z" style="fill:#7a5b49"/><path d="M39.004 4.286s1.339 1.094 1.397 4.362c.78-3.14-1.397-4.362-1.397-4.362z" style="fill:#7a5b49"/><path d="M34.815 2.496s3.078 1.082 3.906 5.782c.011-4.872-3.906-5.782-3.906-5.782z" style="fill:#3d2e24"/><path d="M28.284 3.368s3.62-.474 6.234 3.52c-1.91-4.483-6.234-3.52-6.234-3.52z" style="fill:#5c4233"/><path d="M30.44 2.507s4.186.46 6.639 5.154c-1.452-5.053-6.639-5.154-6.639-5.154z" style="fill:#3d2e24"/><path d="M40.272 9.844s.84 1.384 1.941 4.461c-.265-3.224-1.94-4.46-1.94-4.46z" style="fill:#7a5b49"/><path d="M41.293 8.663c-1.803-.269-3.34 3.035-10.842 2.772 7.667.843 9.063-2.77 10.842-2.772z" style="fill:#3d2e24"/></svg>