<svg xmlns="http://www.w3.org/2000/svg" xml:space="preserve" style="enable-background:new 0 0 64 64" viewBox="0 0 64 64"><linearGradient id="a" x1="150.578" x2="154.596" y1="129.538" y2="129.538" gradientTransform="rotate(81.118 154.405 -3.446)" gradientUnits="userSpaceOnUse"><stop offset="0" style="stop-color:#c8cbd4"/><stop offset=".189" style="stop-color:#c3c6cf"/><stop offset=".414" style="stop-color:#b6b8c0"/><stop offset=".658" style="stop-color:#9fa0a8"/><stop offset=".914" style="stop-color:#7f8087"/><stop offset="1" style="stop-color:#73737a"/></linearGradient><path d="m15.3 18.486-.154-1.208c-.165-1.277.641-2.462 1.811-2.658l13.214-2.525.503 3.5L15.3 18.486z" style="fill:url(#a)"/><path d="M19.863 13.307c-.03-.218-.204-.355-.362-.298-1.003.364-1.826.324-1.637 1.65l.453 3.151 2.28.623s-.556-3.904-.735-5.126zm6.777 3.003s.062.429.491.356c.517-.088 1.277-.264 1.227-.631-.253-1.75-.253-1.75-.503-3.5-.053-.366-.827-.281-1.344-.192-.43.074-.389.258-.356.482l.486 3.484z" style="fill:#73737a"/><path d="M27.183 13.965c-.237.04-.399.28-.362.539.038.258.258.433.495.392.236-.04.399-.281.36-.54-.036-.257-.257-.432-.493-.391z" style="fill:#3d3d42"/><linearGradient id="b" x1="46.389" x2="44.555" y1="20.74" y2="1.018" gradientUnits="userSpaceOnUse"><stop offset="0" style="stop-color:#73737a"/><stop offset=".086" style="stop-color:#7f8087"/><stop offset=".342" style="stop-color:#9fa0a8"/><stop offset=".586" style="stop-color:#b6b8c0"/><stop offset=".811" style="stop-color:#c3c6cf"/><stop offset="1" style="stop-color:#c8cbd4"/></linearGradient><path d="M52.33 2.191c1.08-.186.708-1.917 1.985-2.135 2.497-.426 8.514 1.521 9.51 8.47 1.452 10.117-6.575 11.554-6.837 12.773-.261 1.22-.947 1.44-1.687.84-.742-.598-22.414-1.676-25.131-3.874-2.717-2.197-6.324-11.126 1.408-12.443 7.732-1.315 16.61-2.928 20.751-3.63z" style="fill:url(#b)"/><linearGradient id="c" x1="143.251" x2="162.62" y1="106.121" y2="108.499" gradientTransform="rotate(81.118 154.405 -3.446)" gradientUnits="userSpaceOnUse"><stop offset="0" style="stop-color:#73737a"/><stop offset="1" style="stop-color:#3d3d42"/></linearGradient><path d="M52.416 20.627c1.439-3.21 3.276-5.966 5.17-6.287 3.033-.518 5.375-.915 5.005-3.489-.425-2.98-4.103-1.949-5.679-2.915-2.035-1.246-1.558-4.797-4.583-5.745-1.304.22-2.757.468-4.375.744 1.728 1.805 1.597 5.144-.357 5.476-1.099.188-11.717.832-13.76.839-1.636.005-2.823-1.889-3.163-3.221-6.791 1.889-3.11 10.128-.504 12.236.68.55 2.547 1.03 4.975 1.45-.96-2.27-1.12-5.12 2.073-5.243 1.74-.063 6.657-.156 8.355-.1 1.698.057 2.625-.03 2.868 1.663.24 1.694-2.17 3.213-1.974 4.565.02.136.106.318.244.53 2.266.223 4.325.413 5.867.579-.224-.354-.312-.746-.162-1.082z" style="fill:url(#c)"/><path d="M25.319 15.888c-1.761-.029-8.473.185-8.473.185l-.038 2.36s6.71-.213 8.472-.183a1.176 1.176 0 0 0 1.193-1.161 1.178 1.178 0 0 0-1.154-1.2z" style="fill:#c8cbd4"/><linearGradient id="d" x1="22.445" x2="50.625" y1="173.359" y2="173.359" gradientTransform="rotate(.945 6990.696 -1241.554)" gradientUnits="userSpaceOnUse"><stop offset="0" style="stop-color:#73737a"/><stop offset="1" style="stop-color:#3d3d42"/></linearGradient><path d="M.376 60.483s-.179-1.526 1.44-1.498c1.62.026 5.729.073 6.82-1 1.09-1.069 7.18-3.171 7.213-5.186l11.282.928s1.09 5.243 1.057 7.22c-.032 1.973-1.221 2.776-3.81 2.734-2.592-.045-3.046-.505-4.798-.532-1.754-.032-7.397.906-10.84.848C5.3 63.94-.028 62.827 0 61.093c.007-.393.376-.61.376-.61z" style="fill:url(#d)"/><path d="M15.849 52.8c-.017 1.015 11.264 1.98 11.282.927.018-1.054-11.266-1.945-11.282-.928z" style="fill:#73737a"/><path d="M17.093 52.875c-.02.642 8.772 1.44 8.795.779.022-.667-8.774-1.418-8.795-.779z" style="fill:#28282b"/><path d="m22.872 49.468 1.027.017c.493.01.505-1.173.02-1.18l-1.027-.017c-.476-.01-.525 1.174-.02 1.18zm-.038 2.362 1.026.016c.492.01.503-1.173.02-1.18l-1.026-.016c-.476-.01-.526 1.173-.02 1.18z" style="fill:#3d3d42"/><linearGradient id="e" x1="40.056" x2="45.59" y1="164.759" y2="164.759" gradientTransform="rotate(.945 6990.696 -1241.554)" gradientUnits="userSpaceOnUse"><stop offset="0" style="stop-color:#73737a"/><stop offset="1" style="stop-color:#3d3d42"/></linearGradient><path d="m23.269 53.876.108-6.56c.009-.52-.215-1.24-2.578-1.278-2.01-.033-2.944.52-2.944.52l-.017 1.005s1.607 1.696 1.652 5.967c1.171.163 2.58.293 3.779.346z" style="fill:url(#e)"/><linearGradient id="f" x1="40.643" x2="45.341" y1="160.86" y2="160.86" gradientTransform="rotate(.945 6990.696 -1241.554)" gradientUnits="userSpaceOnUse"><stop offset="0" style="stop-color:#c8cbd4"/><stop offset=".189" style="stop-color:#c3c6cf"/><stop offset=".414" style="stop-color:#b6b8c0"/><stop offset=".658" style="stop-color:#9fa0a8"/><stop offset=".914" style="stop-color:#7f8087"/><stop offset="1" style="stop-color:#73737a"/></linearGradient><path d="m18.474 44.671-.04 2.362c-.002.16 1.048.311 2.344.333 1.297.021 2.35-.093 2.351-.255l.041-2.36-4.696-.08z" style="fill:url(#f)"/><path d="M23.17 44.75c-.003.162-1.058.276-2.353.254-1.298-.021-2.347-.171-2.343-.333.002-.164 1.055-.278 2.352-.255 1.296.02 2.346.17 2.344.335z" style="fill:#73737a"/><linearGradient id="g" x1="19.062" x2="22.583" y1="40.711" y2="40.711" gradientUnits="userSpaceOnUse"><stop offset="0" style="stop-color:#c8cbd4"/><stop offset=".189" style="stop-color:#c3c6cf"/><stop offset=".414" style="stop-color:#b6b8c0"/><stop offset=".658" style="stop-color:#9fa0a8"/><stop offset=".914" style="stop-color:#7f8087"/><stop offset="1" style="stop-color:#73737a"/></linearGradient><path d="M19.062 36.563v8.049c-.005.288 3.517.347 3.521.058v-8.047l-3.521-.06z" style="fill:url(#g)"/><path d="M24.711 17.058a.588.588 0 1 0 1.176.02.592.592 0 0 0-.578-.6.59.59 0 0 0-.598.58z" style="fill:#3d3d42"/><linearGradient id="h" x1="76.458" x2="87.452" y1="111.742" y2="111.742" gradientTransform="matrix(1.1727 .0194 -.0144 .8716 -74.683 -69.553)" gradientUnits="userSpaceOnUse"><stop offset="0" style="stop-color:#73737a"/><stop offset="1" style="stop-color:#3d3d42"/></linearGradient><path d="M17.342 15.394h-2.484l-1.294 2.182v6.175l.917.531s-.102 10.808 3.094 19.107h5.951l1.538-1.175V40.4s-.816-.394-.843-.663c-.375-3.731 4.958-8.331-.309-16.965-.586-.96 1.033-3.466.955-4.794-.029-.517-.945-1.843-1.18-1.846-.236-.006-6.008 0-6.008 0l-.337-.738z" style="fill:url(#h)"/></svg>