<svg xmlns="http://www.w3.org/2000/svg" xml:space="preserve" viewBox="0 0 64 64"><linearGradient id="a" x1="56.5" x2="119.512" y1="-20.423" y2="-20.423" gradientTransform="matrix(1 0 0 -1 -56 20)" gradientUnits="userSpaceOnUse"><stop offset=".436" style="stop-color:#e69437"/><stop offset=".508" style="stop-color:#d07f2c"/><stop offset=".606" style="stop-color:#ba6920"/><stop offset=".713" style="stop-color:#aa5918"/><stop offset=".834" style="stop-color:#a15014"/><stop offset="1" style="stop-color:#9e4d12"/></linearGradient><path fill="url(#a)" d="m2.622 37.691 27.867 18.883c.839.568 2.196.568 3.034 0L61.39 37.691c1.409-.905 2.121-5.257 2.121-5.691C34.461 22.019 28.979 20.27.5 32c0 .808.712 4.786 2.122 5.691z"/><linearGradient id="b" x1="0" x2="64" y1="39.148" y2="39.148" gradientUnits="userSpaceOnUse"><stop offset=".4" style="stop-color:#f2af4b"/><stop offset=".422" style="stop-color:#f1ac49"/><stop offset=".547" style="stop-color:#eb9e3f"/><stop offset=".705" style="stop-color:#e79639"/><stop offset="1" style="stop-color:#e69437"/></linearGradient><path fill="url(#b)" d="M63.463 31.381c-13.053-8.545-49.71-8.32-62.915 0-.433.273-.789 1.625-.343 1.912C6.588 37.403 30.42 52.8 30.42 52.8c.874.586 2.297.588 3.174 0 0 0 21.96-14.208 30.213-19.525.422-.272.082-1.616-.344-1.894z"/><path fill="#F7C45E" d="M63.174 30.859c-12.933-8.545-49.252-8.32-62.335 0-.429.273-1.079 1.626-.633 1.913 6.383 4.11 30.215 19.507 30.215 19.507.874.586 2.297.588 3.174 0 0 0 21.96-14.208 30.213-19.525.421-.272-.213-1.615-.634-1.895z"/><linearGradient id="c" x1="56.5" x2="119.512" y1="-12.744" y2="-12.744" gradientTransform="matrix(1 0 0 -1 -56 20)" gradientUnits="userSpaceOnUse"><stop offset=".4" style="stop-color:#f2af4b"/><stop offset=".422" style="stop-color:#f1ac49"/><stop offset=".547" style="stop-color:#eb9e3f"/><stop offset=".705" style="stop-color:#e79639"/><stop offset="1" style="stop-color:#e69437"/></linearGradient><path fill="url(#c)" d="M60.797 26.005c-28.64-16.645-28.938-16.645-57.581 0C1.768 26.847.5 31.491.5 32.019l29.935 19.507c.865.586 2.274.588 3.144 0L63.512 32c0-.368-1.266-5.153-2.715-5.995z"/><path fill="#F7C45E" d="M60.797 26.005 33.493 7.419c-.82-.559-2.151-.559-2.974 0L3.216 26.005c-.82.56-.82 1.464 0 2.023L30.52 46.611c.822.56 2.153.56 2.974 0l27.304-18.583c.819-.559.819-1.464-.001-2.023z"/><linearGradient id="d" x1="83.397" x2="92.619" y1="8.376" y2="8.376" gradientTransform="matrix(1 0 0 -1 -56 20)" gradientUnits="userSpaceOnUse"><stop offset="0" style="stop-color:#9e4d12"/><stop offset=".176" style="stop-color:#a45416"/><stop offset=".435" style="stop-color:#b66821"/><stop offset=".618" style="stop-color:#c77a2c"/></linearGradient><path fill="url(#d)" d="m36.312 12.082-3.56-2.421c-.412-.28-1.075-.28-1.486 0l-3.56 2.421c-.412.281-.412.734 0 1.014l1.03.701h6.543l1.03-.701c.413-.28.413-.733.003-1.014z"/><radialGradient id="e" cx="63.972" cy="1.311" r="4.152" gradientTransform="matrix(1.0502 0 0 -1.0919 -35.195 17.18)" gradientUnits="userSpaceOnUse"><stop offset=".424" style="stop-color:#f2af4b"/><stop offset=".564" style="stop-color:#efab49"/><stop offset=".708" style="stop-color:#e59f41"/><stop offset=".852" style="stop-color:#d48a36"/><stop offset=".939" style="stop-color:#c77a2c"/></radialGradient><path fill="url(#e)" d="m31.503 11.913-2.767 1.884 2.528 1.72c.411.282 1.074.282 1.487 0l2.527-1.72-2.768-1.884c-.276-.188-.727-.188-1.007 0z"/><linearGradient id="f" x1="90.461" x2="99.684" y1="3.567" y2="3.567" gradientTransform="matrix(1 0 0 -1 -56 20)" gradientUnits="userSpaceOnUse"><stop offset="0" style="stop-color:#9e4d12"/><stop offset=".176" style="stop-color:#a45416"/><stop offset=".435" style="stop-color:#b66821"/><stop offset=".618" style="stop-color:#c77a2c"/></linearGradient><path fill="url(#f)" d="m43.375 16.893-3.558-2.423c-.413-.28-1.077-.28-1.487 0l-3.56 2.423c-.413.282-.413.732 0 1.014l1.028.7h6.543l1.031-.7c.414-.282.414-.734.003-1.014z"/><radialGradient id="g" cx="70.698" cy="-3.306" r="4.151" gradientTransform="matrix(1.0502 0 0 -1.0919 -35.195 16.947)" gradientUnits="userSpaceOnUse"><stop offset=".424" style="stop-color:#f2af4b"/><stop offset=".564" style="stop-color:#efab49"/><stop offset=".708" style="stop-color:#e59f41"/><stop offset=".852" style="stop-color:#d48a36"/><stop offset=".939" style="stop-color:#c77a2c"/></radialGradient><path fill="url(#g)" d="M38.568 16.722 35.8 18.607l2.529 1.721c.41.281 1.074.281 1.487 0l2.525-1.721-2.767-1.885c-.276-.191-.727-.191-1.006 0z"/><linearGradient id="h" x1="97.525" x2="106.747" y1="-1.242" y2="-1.242" gradientTransform="matrix(1 0 0 -1 -56 20)" gradientUnits="userSpaceOnUse"><stop offset="0" style="stop-color:#9e4d12"/><stop offset=".176" style="stop-color:#a45416"/><stop offset=".435" style="stop-color:#b66821"/><stop offset=".618" style="stop-color:#c77a2c"/></linearGradient><path fill="url(#h)" d="m50.439 21.702-3.559-2.423c-.412-.279-1.076-.279-1.486 0l-3.559 2.423c-.414.281-.414.731 0 1.014l1.028.699h6.542l1.031-.699c.414-.282.414-.734.003-1.014z"/><radialGradient id="i" cx="77.425" cy="-7.924" r="4.152" gradientTransform="matrix(1.0502 0 0 -1.0919 -35.195 16.715)" gradientUnits="userSpaceOnUse"><stop offset=".424" style="stop-color:#f2af4b"/><stop offset=".564" style="stop-color:#efab49"/><stop offset=".708" style="stop-color:#e59f41"/><stop offset=".852" style="stop-color:#d48a36"/><stop offset=".939" style="stop-color:#c77a2c"/></radialGradient><path fill="url(#i)" d="m45.632 21.531-2.767 1.884 2.529 1.722c.41.281 1.074.281 1.486 0l2.527-1.722-2.768-1.884a.96.96 0 0 0-1.007 0z"/><linearGradient id="j" x1="104.588" x2="113.811" y1="-6.051" y2="-6.051" gradientTransform="matrix(1 0 0 -1 -56 20)" gradientUnits="userSpaceOnUse"><stop offset="0" style="stop-color:#9e4d12"/><stop offset=".176" style="stop-color:#a45416"/><stop offset=".435" style="stop-color:#b66821"/><stop offset=".618" style="stop-color:#c77a2c"/></linearGradient><path fill="url(#j)" d="m57.504 26.509-3.559-2.42c-.414-.282-1.077-.282-1.486 0l-3.561 2.42c-.414.282-.414.734 0 1.015l1.029.701h6.543l1.031-.701c.413-.281.413-.733.003-1.015z"/><radialGradient id="k" cx="84.151" cy="-12.541" r="4.152" gradientTransform="matrix(1.0502 0 0 -1.0919 -35.195 16.482)" gradientUnits="userSpaceOnUse"><stop offset=".424" style="stop-color:#f2af4b"/><stop offset=".564" style="stop-color:#efab49"/><stop offset=".708" style="stop-color:#e59f41"/><stop offset=".852" style="stop-color:#d48a36"/><stop offset=".939" style="stop-color:#c77a2c"/></radialGradient><path fill="url(#k)" d="m52.696 26.34-2.767 1.885 2.529 1.719c.409.282 1.072.282 1.486 0l2.525-1.719-2.767-1.885c-.275-.19-.727-.19-1.006 0z"/><linearGradient id="l" x1="76.33" x2="85.554" y1="3.567" y2="3.567" gradientTransform="matrix(1 0 0 -1 -56 20)" gradientUnits="userSpaceOnUse"><stop offset="0" style="stop-color:#9e4d12"/><stop offset=".176" style="stop-color:#a45416"/><stop offset=".435" style="stop-color:#b66821"/><stop offset=".618" style="stop-color:#c77a2c"/></linearGradient><path fill="url(#l)" d="m29.245 16.893-3.559-2.423c-.413-.28-1.076-.28-1.487 0l-3.559 2.423c-.412.282-.412.732 0 1.014l1.03.7h6.542l1.031-.7c.413-.282.413-.734.002-1.014z"/><radialGradient id="m" cx="57.243" cy="-3.306" r="4.152" gradientTransform="matrix(1.0502 0 0 -1.0919 -35.195 16.947)" gradientUnits="userSpaceOnUse"><stop offset=".424" style="stop-color:#f2af4b"/><stop offset=".564" style="stop-color:#efab49"/><stop offset=".708" style="stop-color:#e59f41"/><stop offset=".852" style="stop-color:#d48a36"/><stop offset=".939" style="stop-color:#c77a2c"/></radialGradient><path fill="url(#m)" d="m24.438 16.722-2.767 1.885 2.528 1.721c.411.281 1.075.281 1.487 0l2.527-1.721-2.768-1.885a.956.956 0 0 0-1.007 0z"/><linearGradient id="n" x1="90.458" x2="99.681" y1="-6.052" y2="-6.052" gradientTransform="matrix(1 0 0 -1 -56 20)" gradientUnits="userSpaceOnUse"><stop offset="0" style="stop-color:#9e4d12"/><stop offset=".176" style="stop-color:#a45416"/><stop offset=".435" style="stop-color:#b66821"/><stop offset=".618" style="stop-color:#c77a2c"/></linearGradient><path fill="url(#n)" d="m43.373 26.511-3.559-2.422c-.413-.28-1.076-.28-1.486 0l-3.561 2.422c-.413.282-.413.732 0 1.015l1.029.699h6.543l1.031-.699c.413-.283.413-.734.003-1.015z"/><radialGradient id="o" cx="70.697" cy="-12.541" r="4.151" gradientTransform="matrix(1.0502 0 0 -1.0919 -35.195 16.482)" gradientUnits="userSpaceOnUse"><stop offset=".424" style="stop-color:#f2af4b"/><stop offset=".564" style="stop-color:#efab49"/><stop offset=".708" style="stop-color:#e59f41"/><stop offset=".852" style="stop-color:#d48a36"/><stop offset=".939" style="stop-color:#c77a2c"/></radialGradient><path fill="url(#o)" d="m38.565 26.34-2.767 1.885 2.529 1.721c.41.281 1.073.281 1.486 0l2.527-1.721-2.768-1.885c-.276-.19-.727-.19-1.007 0z"/><linearGradient id="p" x1="97.523" x2="106.745" y1="-10.859" y2="-10.859" gradientTransform="matrix(1 0 0 -1 -56 20)" gradientUnits="userSpaceOnUse"><stop offset="0" style="stop-color:#9e4d12"/><stop offset=".176" style="stop-color:#a45416"/><stop offset=".435" style="stop-color:#b66821"/><stop offset=".618" style="stop-color:#c77a2c"/></linearGradient><path fill="url(#p)" d="m50.438 31.318-3.559-2.423c-.412-.279-1.076-.279-1.486 0l-3.559 2.423c-.414.282-.414.732 0 1.014l1.027.7h6.543l1.031-.7c.413-.281.413-.731.003-1.014z"/><radialGradient id="q" cx="77.423" cy="-17.156" r="4.152" gradientTransform="matrix(1.0502 0 0 -1.0919 -35.195 16.252)" gradientUnits="userSpaceOnUse"><stop offset=".424" style="stop-color:#f2af4b"/><stop offset=".564" style="stop-color:#efab49"/><stop offset=".708" style="stop-color:#e59f41"/><stop offset=".852" style="stop-color:#d48a36"/><stop offset=".939" style="stop-color:#c77a2c"/></radialGradient><path fill="url(#q)" d="m45.63 31.147-2.767 1.885 2.529 1.723c.41.28 1.074.28 1.486 0l2.527-1.723-2.768-1.885a.965.965 0 0 0-1.007 0z"/><linearGradient id="r" x1="69.268" x2="78.489" y1="-1.242" y2="-1.242" gradientTransform="matrix(1 0 0 -1 -56 20)" gradientUnits="userSpaceOnUse"><stop offset="0" style="stop-color:#9e4d12"/><stop offset=".176" style="stop-color:#a45416"/><stop offset=".435" style="stop-color:#b66821"/><stop offset=".618" style="stop-color:#c77a2c"/></linearGradient><path fill="url(#r)" d="m22.182 21.702-3.559-2.423c-.413-.279-1.077-.279-1.487 0l-3.559 2.423c-.413.281-.413.731 0 1.014l1.029.699h6.543l1.031-.699c.411-.282.411-.734.002-1.014z"/><radialGradient id="s" cx="50.517" cy="-7.924" r="4.152" gradientTransform="matrix(1.0502 0 0 -1.0919 -35.195 16.715)" gradientUnits="userSpaceOnUse"><stop offset=".424" style="stop-color:#f2af4b"/><stop offset=".564" style="stop-color:#efab49"/><stop offset=".708" style="stop-color:#e59f41"/><stop offset=".852" style="stop-color:#d48a36"/><stop offset=".939" style="stop-color:#c77a2c"/></radialGradient><path fill="url(#s)" d="m17.373 21.531-2.768 1.884 2.529 1.722c.411.281 1.074.281 1.487 0l2.527-1.722-2.768-1.884c-.276-.19-.728-.19-1.007 0z"/><linearGradient id="t" x1="76.33" x2="85.554" y1="-6.051" y2="-6.051" gradientTransform="matrix(1 0 0 -1 -56 20)" gradientUnits="userSpaceOnUse"><stop offset="0" style="stop-color:#9e4d12"/><stop offset=".176" style="stop-color:#a45416"/><stop offset=".435" style="stop-color:#b66821"/><stop offset=".618" style="stop-color:#c77a2c"/></linearGradient><path fill="url(#t)" d="m29.245 26.509-3.559-2.42c-.413-.282-1.076-.282-1.487 0l-3.559 2.42c-.412.282-.412.734 0 1.015l1.03.701h6.542l1.031-.701c.413-.281.413-.733.002-1.015z"/><radialGradient id="u" cx="57.243" cy="-12.541" r="4.152" gradientTransform="matrix(1.0502 0 0 -1.0919 -35.195 16.482)" gradientUnits="userSpaceOnUse"><stop offset=".424" style="stop-color:#f2af4b"/><stop offset=".564" style="stop-color:#efab49"/><stop offset=".708" style="stop-color:#e59f41"/><stop offset=".852" style="stop-color:#d48a36"/><stop offset=".939" style="stop-color:#c77a2c"/></radialGradient><path fill="url(#u)" d="m24.438 26.34-2.767 1.885 2.528 1.719c.411.282 1.075.282 1.487 0l2.527-1.719-2.768-1.885a.96.96 0 0 0-1.007 0z"/><linearGradient id="v" x1="83.394" x2="92.617" y1="-10.861" y2="-10.861" gradientTransform="matrix(1 0 0 -1 -56 20)" gradientUnits="userSpaceOnUse"><stop offset="0" style="stop-color:#9e4d12"/><stop offset=".176" style="stop-color:#a45416"/><stop offset=".435" style="stop-color:#b66821"/><stop offset=".618" style="stop-color:#c77a2c"/></linearGradient><path fill="url(#v)" d="m36.31 31.32-3.56-2.423c-.412-.278-1.076-.278-1.486 0l-3.56 2.423c-.412.282-.412.732 0 1.014l1.029.7h6.542l1.031-.7c.414-.281.414-.731.004-1.014z"/><radialGradient id="w" cx="63.969" cy="-17.157" r="4.152" gradientTransform="matrix(1.0502 0 0 -1.0919 -35.195 16.252)" gradientUnits="userSpaceOnUse"><stop offset=".424" style="stop-color:#f2af4b"/><stop offset=".564" style="stop-color:#efab49"/><stop offset=".708" style="stop-color:#e59f41"/><stop offset=".852" style="stop-color:#d48a36"/><stop offset=".939" style="stop-color:#c77a2c"/></radialGradient><path fill="url(#w)" d="m31.502 31.149-2.768 1.885 2.529 1.723c.41.28 1.074.28 1.486 0l2.527-1.723-2.768-1.885c-.276-.189-.727-.189-1.006 0z"/><linearGradient id="x" x1="90.458" x2="99.681" y1="-15.67" y2="-15.67" gradientTransform="matrix(1 0 0 -1 -56 20)" gradientUnits="userSpaceOnUse"><stop offset="0" style="stop-color:#9e4d12"/><stop offset=".176" style="stop-color:#a45416"/><stop offset=".435" style="stop-color:#b66821"/><stop offset=".618" style="stop-color:#c77a2c"/></linearGradient><path fill="url(#x)" d="m43.373 36.129-3.559-2.422c-.413-.28-1.076-.28-1.486 0l-3.561 2.422c-.413.282-.413.732 0 1.015l1.029.699h6.543l1.031-.699c.413-.283.413-.735.003-1.015z"/><radialGradient id="y" cx="70.697" cy="-21.773" r="4.15" gradientTransform="matrix(1.0502 0 0 -1.0919 -35.195 16.02)" gradientUnits="userSpaceOnUse"><stop offset=".424" style="stop-color:#f2af4b"/><stop offset=".564" style="stop-color:#efab49"/><stop offset=".708" style="stop-color:#e59f41"/><stop offset=".852" style="stop-color:#d48a36"/><stop offset=".939" style="stop-color:#c77a2c"/></radialGradient><path fill="url(#y)" d="m38.565 35.958-2.767 1.885 2.529 1.721c.41.281 1.073.281 1.486 0l2.527-1.721-2.767-1.885c-.277-.189-.728-.189-1.008 0z"/><linearGradient id="z" x1="62.203" x2="71.425" y1="-6.051" y2="-6.051" gradientTransform="matrix(1 0 0 -1 -56 20)" gradientUnits="userSpaceOnUse"><stop offset="0" style="stop-color:#9e4d12"/><stop offset=".176" style="stop-color:#a45416"/><stop offset=".435" style="stop-color:#b66821"/><stop offset=".618" style="stop-color:#c77a2c"/></linearGradient><path fill="url(#z)" d="m15.117 26.509-3.56-2.42c-.412-.282-1.076-.282-1.487 0l-3.559 2.42c-.413.282-.413.734 0 1.015l1.029.701h6.543l1.031-.701c.413-.281.413-.733.003-1.015z"/><radialGradient id="A" cx="43.79" cy="-12.541" r="4.152" gradientTransform="matrix(1.0502 0 0 -1.0919 -35.195 16.482)" gradientUnits="userSpaceOnUse"><stop offset=".424" style="stop-color:#f2af4b"/><stop offset=".564" style="stop-color:#efab49"/><stop offset=".708" style="stop-color:#e59f41"/><stop offset=".852" style="stop-color:#d48a36"/><stop offset=".939" style="stop-color:#c77a2c"/></radialGradient><path fill="url(#A)" d="m10.309 26.34-2.767 1.885 2.529 1.719c.411.282 1.075.282 1.487 0l2.527-1.719-2.768-1.885a.963.963 0 0 0-1.008 0z"/><linearGradient id="B" x1="69.268" x2="78.489" y1="-10.859" y2="-10.859" gradientTransform="matrix(1 0 0 -1 -56 20)" gradientUnits="userSpaceOnUse"><stop offset="0" style="stop-color:#9e4d12"/><stop offset=".176" style="stop-color:#a45416"/><stop offset=".435" style="stop-color:#b66821"/><stop offset=".618" style="stop-color:#c77a2c"/></linearGradient><path fill="url(#B)" d="m22.182 31.318-3.559-2.423c-.413-.279-1.077-.279-1.487 0l-3.559 2.423c-.413.282-.413.732 0 1.014l1.029.7h6.543l1.031-.7c.411-.281.411-.731.002-1.014z"/><radialGradient id="C" cx="50.517" cy="-17.156" r="4.152" gradientTransform="matrix(1.0502 0 0 -1.0919 -35.195 16.252)" gradientUnits="userSpaceOnUse"><stop offset=".424" style="stop-color:#f2af4b"/><stop offset=".564" style="stop-color:#efab49"/><stop offset=".708" style="stop-color:#e59f41"/><stop offset=".852" style="stop-color:#d48a36"/><stop offset=".939" style="stop-color:#c77a2c"/></radialGradient><path fill="url(#C)" d="m17.373 31.147-2.768 1.885 2.529 1.723c.411.28 1.074.28 1.487 0l2.527-1.723-2.768-1.885c-.276-.189-.728-.189-1.007 0z"/><linearGradient id="D" x1="76.33" x2="85.554" y1="-15.67" y2="-15.67" gradientTransform="matrix(1 0 0 -1 -56 20)" gradientUnits="userSpaceOnUse"><stop offset="0" style="stop-color:#9e4d12"/><stop offset=".176" style="stop-color:#a45416"/><stop offset=".435" style="stop-color:#b66821"/><stop offset=".618" style="stop-color:#c77a2c"/></linearGradient><path fill="url(#D)" d="m29.245 36.129-3.559-2.422c-.413-.28-1.076-.28-1.487 0l-3.559 2.422c-.412.282-.412.732 0 1.015l1.03.699h6.542l1.031-.699c.413-.283.413-.735.002-1.015z"/><radialGradient id="E" cx="57.243" cy="-21.773" r="4.151" gradientTransform="matrix(1.0502 0 0 -1.0919 -35.195 16.02)" gradientUnits="userSpaceOnUse"><stop offset=".424" style="stop-color:#f2af4b"/><stop offset=".564" style="stop-color:#efab49"/><stop offset=".708" style="stop-color:#e59f41"/><stop offset=".852" style="stop-color:#d48a36"/><stop offset=".939" style="stop-color:#c77a2c"/></radialGradient><path fill="url(#E)" d="m24.438 35.958-2.767 1.885 2.528 1.721c.411.281 1.075.281 1.487 0l2.527-1.721-2.767-1.885a.967.967 0 0 0-1.008 0z"/><linearGradient id="F" x1="83.394" x2="92.617" y1="-20.478" y2="-20.478" gradientTransform="matrix(1 0 0 -1 -56 20)" gradientUnits="userSpaceOnUse"><stop offset="0" style="stop-color:#9e4d12"/><stop offset=".176" style="stop-color:#a45416"/><stop offset=".435" style="stop-color:#b66821"/><stop offset=".618" style="stop-color:#c77a2c"/></linearGradient><path fill="url(#F)" d="m36.31 40.937-3.56-2.421c-.412-.282-1.076-.282-1.486 0l-3.56 2.421c-.412.282-.412.734 0 1.013l1.029.703h6.542l1.031-.703c.414-.279.414-.731.004-1.013z"/><radialGradient id="G" cx="63.969" cy="-26.39" r="4.151" gradientTransform="matrix(1.0502 0 0 -1.0919 -35.195 15.789)" gradientUnits="userSpaceOnUse"><stop offset=".424" style="stop-color:#f2af4b"/><stop offset=".564" style="stop-color:#efab49"/><stop offset=".708" style="stop-color:#e59f41"/><stop offset=".852" style="stop-color:#d48a36"/><stop offset=".939" style="stop-color:#c77a2c"/></radialGradient><path fill="url(#G)" d="m31.502 40.768-2.768 1.885 2.529 1.719c.41.281 1.074.281 1.486 0l2.527-1.719-2.768-1.885c-.276-.191-.727-.191-1.006 0z"/><linearGradient id="H" x1="88.008" x2="88.008" y1="-12.643" y2="1.985" gradientTransform="matrix(1 0 0 -1 -56 20)" gradientUnits="userSpaceOnUse"><stop offset="0" style="stop-color:#ffe54a"/><stop offset=".16" style="stop-color:#ffe54d"/><stop offset=".298" style="stop-color:#ffe758"/><stop offset=".429" style="stop-color:#ffea6a"/><stop offset=".555" style="stop-color:#ffed83"/><stop offset=".677" style="stop-color:#fff2a3"/><stop offset=".709" style="stop-color:#fff3ad"/></linearGradient><path fill="url(#H)" d="M32.008 18.015c-1.677 0-6.506 3.416-8.55 4.952-.494.381-.511 3.569 0 3.853 2.022 1.921 6.873 5.823 8.55 5.823 1.502 0 6.689-3.666 8.57-5.819.454-.527.495-3.476 0-3.852-2.045-1.541-6.832-4.957-8.57-4.957z"/></svg>