<svg xmlns="http://www.w3.org/2000/svg" xml:space="preserve" style="enable-background:new 0 0 64 64" viewBox="0 0 64 64"><path d="m40.986 14.739.103 2.239c4.733.533-3.404 12.126 7.411 13.374-1.904-1.514-3.283-3.242-2.114-8.514 1.594-7.185-2.285-10-5.4-7.1z" style="fill:#805837"/><path d="m40.943 15.683.022 1.591c1.327-.243 1.72 2.142 1.032 5.145-1.228 5.364 1.25 8.292 6.503 7.933-4.2-1.493-5.502-3.945-4.746-8.21 1.047-5.904-1.053-7.314-2.811-6.459z" style="fill:#6e482a"/><path d="M42.931 14.19c4.195.694 2.42 5.896 2.56 9.51.662-3.54 1.886-10.066-2.56-9.51z" style="fill:#916643"/><path d="M41.628 16.519c3.539 1.817-2.993 11.265 3.763 12.973-6.044-2.851.857-12.327-3.763-12.973z" style="fill:#52351f"/><path d="M41.746 14.657c6.343 1.054-.981 10.56 4.878 14.367-4.786-4.282 2.44-14.593-4.878-14.367z" style="fill:#6e482a"/><path d="M40.958 14.535c-1.503-1.55-.471 4.845.484 3.17 1.07 1.129-.07-4.662-.484-3.17z" style="fill:#8e3ed6"/><linearGradient id="a" x1="-198.94" x2="-206.101" y1="-224.498" y2="-224.498" gradientTransform="scale(1 -1) rotate(10.532 -1173.176 1170.15)" gradientUnits="userSpaceOnUse"><stop offset=".307" style="stop-color:#b88a6f"/><stop offset=".508" style="stop-color:#b3856a"/><stop offset=".733" style="stop-color:#a6785d"/><stop offset=".97" style="stop-color:#8f6247"/><stop offset="1" style="stop-color:#8c5f44"/></linearGradient><path d="M33.059 27.038c.946-.638 1.066.304 1.167.83.32 1.666 3.065 1 5.848-2.276-.365-.73-.923-3.363-.923-3.363-1.144-9.002-3.694-.879-6.093 4.809z" style="fill:url(#a)"/><path d="M46.93 61.82s.57.064.57-.244c0-3.902-4.112-4.027-6.435-6.735-.246-.287-1.311.609-1.311.609l7.175 6.37z" style="fill:#6e8189"/><path d="M38.693 59.964c3.692.384 3.996 2.419 8.236 1.856 0-3.82-3.842-3.792-6.66-6.667-9.763.896-2.745 4.251-1.576 4.81z" style="fill:#99a8ae"/><path d="M42.688 61.168c-.152-1.238-1.08-2.083-1.643-1.413-.363-1.009-1.362-1.284-1.508-.72-.535-.863-2.648-1.576-.583 1.05 1.36.033 3.793 1.566 3.734 1.083z" style="fill:#1a1626"/><path d="M41.417 48.39s-5.012-4.679-10.107-.714c-5.869 2.332-11.573 5.638-14.897 8.339-2.25 1.83-.008 5.625 3.105 5.92 2.496.236 9.212-.122 19.436-1.85 0 0-.663-2.502-3.476-3.885 5.61-.372 9.046-1.5 5.94-7.81z" style="fill:#2b4f87"/><path d="M42.274 53.776c-4.041 3.631-12.698 1.453-17.393 3.347 5.595-.544 15.619.553 17.393-3.347z" style="fill:#2a4178"/><path d="M42.385 50.52s-4.861-3.758-11.075-2.844c.14-4.23.79-7.753.128-8.478-3.99-4.373 1.62-6.203 2.378-10.344.061-.334.247-.735.41-.987 1.032 1.854 2.655-1.025 5.848-2.275 4.533 4.75-.1 14.018 2.311 24.929z" style="fill:#8e3ed6"/><path d="M37.735 42.193c.218-.59 1.605-2.336 1.91-3.858l-4.644-.478s-.313.923-1.192 3.306c-1.737 2.375-3.672 5.16-6.154 7.585-.163.16-2.353.655-2.736.859-.475.253-1.52.775-1.578 1.345-.656 1.219 1.77.41 3.559.372 1.865-.039 2.646-.547 2.787-.866.833-1.871 7.666-7.227 8.048-8.265z" style="fill:#b88a6f"/><path d="M25.441 49.775c-1.826.257-2.1 1.177-2.1 1.177s.427-.717 2.1-1.177zm.452.644c-2.903.467-2.551 1.09-2.551 1.09s0-.557 2.55-1.09z" style="fill:#8c5f44"/><path d="M40.004 38.85s1.416-4.665 1.814-8.73c.312-3.182-4.826-3.896-5.252-.71-.592 4.43-1.723 8.63-1.723 8.63 1.72.118 3.451.392 5.16.81z" style="fill:#732eb0"/><path d="M27.12 16.17c-.08.958-.416 2.918.581 3.937.447.457.192 1.886-.3 2.842-.214.415-.19.873.06 1.072.384.306.805-.035 1.094.197.471.378.136.784.192.99 0 0 1.265-.119.854 1.146.156.09.405-.033.461.893.037.61.761 1.12 1.514.881 3.123-.993 5.272-4.377 5.302-6.882.066-5.372-.958-11.107-9.758-5.076z" style="fill:#b88a6f"/><path d="M28.747 25.207c.073.596 1.32.73 1.955-.097-1.203.535-1.662-.102-1.955.097z" style="fill:#a35a3b"/><path d="M29.425 25.688c-.23.28-.132.583.176.666.513-.276 1.013-.595 1.101-1.244-.537.5-1.277.578-1.277.578z" style="fill:#a35a3b"/><path d="M27.352 23.896c.291.644 2.362.402 2-.588-.006 1.021-2.19.168-2 .588z" style="fill:#8c5f44"/><path d="M29.857 19.113c-.616-.305-1.595-.408-2.323.19-.105.087.173.545.258.477.56-.456 1.221-.534 2.147-.279.107.03.04-.328-.082-.388z" style="fill:#5e4533"/><path d="M28.501 21.056c.793 1.106 1.69-.337 2.074-.98-.82.558-1.24 1.232-2.074.98z" style="fill:#45332c"/><path d="M40.454 14.178c-2.184-4.583-6.858-4.801-9.913-3.462-3.35 1.468-4.725 4.656-3.687 5.634 1.283 1.209 3.66-.83 6.793 2.92 1.36 1.627 2.484-1.906 4.46-.807 1.18.657 3.69-1.469 2.347-4.285z" style="fill:#805837"/><path d="M33.647 19.27c-2.408-3.872-5.895-1.508-7.05-3.307.612 2.06 4.136-.313 7.05 3.307z" style="fill:#6e482a"/><path d="M26.74 15.925c.314-3.078 6.455-7.143 11.268-4.335-5.635-3.735-11.768 1.332-11.268 4.335z" style="fill:#916643"/><path d="M27.458 16.18c.288-1.905 4.101-4.594 8.12-4.183-4.942-1.414-8.572 2.494-8.12 4.183zm1.313.247c3.05-1.415 3.394-.392 7.188-.23-3.142 1.003-4.4-.336-7.188.23z" style="fill:#916643"/><path d="M28.122 16.293c.96-1.27 3.724-2.057 6.57-2.281-3.642-.745-6.328.84-6.57 2.28z" style="fill:#916643"/><path d="M40.46 14.18c-.837-1.744-2.025-2.86-3.353-3.494 1.155.707 2.304 1.758 3.439 4.305-1.686-3.326-6.017-3.91-6.017-3.91s4.287 1.563 6.036 4.6c-2.835-2.948-7.306-2.91-7.306-2.91s4.211 1.137 7.247 3.42c-3.303-1.617-7.463-1.158-7.463-1.158s5.198.64 7.347 1.9c-4.654-1.413-7.178.08-5.671 2.682 0 0 1.702-1.746 3.235-.894 1.181.657-.092 4.903 1.197 3.508 1.146-1.24 3.18-4.151 1.309-8.05z" style="fill:#6e482a"/><path d="M38.902 20.742c2.135-.627 2.22-3.109 2.22-3.109s-1.02 1.771-2.22 3.11zm-.677-1.992c2.094.16 2.829-1.412 2.829-1.412s-1.575 1.017-2.829 1.412zm2.761-1.663s-3.618.389-5.643.2c2.623 1.415 5.643-.2 5.643-.2z" style="fill:#52351f"/><path d="M35.927 21.973c.172.056 1.01-.01 1.21-.879.112-.481.697-1.105.587-1.96-.138-1.1-3.016 2.44-1.797 2.839z" style="fill:#8c5f44"/><path d="M35.577 17.684c-1.316.654-.923 3.88.296 4.28.172.056.957-.063 1.156-.932.112-.481.797-1.123.687-1.979-.138-1.099-.832-2.02-2.14-1.37z" style="fill:#b88a6f"/><path d="M35.743 18.242c-.319.224-.528.732-.44 1.39.544-.318.919.849.465 1.22a4.5 4.5 0 0 0 .264.386c.27-.7.903-.738 1.054-1.67.137-.843-.55-1.881-1.343-1.326z" style="fill:#8c5f44"/></svg>