<svg xmlns="http://www.w3.org/2000/svg" xml:space="preserve" viewBox="0 0 64 64"><path fill="#B2BABF" d="M63.953 35.725c.587 2.321-4.438 6.521-6.929 7.89l-31.112 17.42c-1.881 1.031-5.426 1.46-7.987.144-7.927-4.054-12.837-6.99-16.54-13.435-.951-1.655-2.649-3.754.159-6.118 0 0 55.929-12.645 62.409-5.901z"/><path fill="#DDE2E6" d="M62.986 33.934c.906.947 1.921 2.905-.57 4.275l-37.18 20.754c-1.883 1.033-5.428 1.462-7.99.15C9.319 55.058 4.408 52.116.707 45.677c-.951-1.656-.277-3.714 2.449-5.208 0 0 22.369-11.592 33.667-17.078 2.54-1.23 4.675-.758 6.734.119 3.968 1.682 12.948 3.68 19.429 10.424z"/><path fill="#F0F3F5" d="M37.137 29.405C26.344 34.644 5.445 45.473 5.445 45.473c-1.275.703-2.08 1.53-2.462 2.383 4.056 5.208 7.793 7.23 14.544 10.685 2.521 1.291 6.014.871 7.866-.149L61.07 38.465c-6.348-5.923-13.891-7.413-17.498-8.948-1.968-.834-4.007-1.289-6.435-.112z"/><path fill="#FFCC29" d="M51.891 35.488c.164-.169.554-12.492-.051-13.118-.431-.454-19.131 13.591-19.342 14.035-.212.447-.3 13.586.532 13.586 1.191 0 17.853-13.448 18.861-14.503z"/><path fill="#FCB500" d="M33.03 49.991c.321 0-.08-13.111-.532-13.586-.551-.574-11.399-3.698-11.399-3.172 0 1.264 1.036 13.106 1.811 13.918.559.585 9.022 2.84 10.12 2.84z"/><path fill="#FDE781" d="M21.099 33.233c0 .384 10.833 3.172 11.399 3.172.649 0 19.561-13.811 19.342-14.035-1.135-1.19-8.824-2.49-9.803-2.361-1.269.174-20.938 12.391-20.938 13.224z"/><path fill="#FCB500" d="M11.529 44.307c-.477.173.743 10.114 1.525 10.935.424.438.332-4.144.261-4.441-.071-.295-1.203-6.709-1.786-6.494z"/><path fill="#FDE781" d="M11.529 44.307c-.25.266 1.307 6.515 1.574 6.791.584.61 13.958-.995 13.958-1.335 0-.649-2.452-6.603-3.198-6.938-.746-.339-12.117 1.254-12.334 1.482z"/><path fill="#FFCC29" d="M13.055 55.241c.443.46 12.372-1.024 12.939-1.361.57-.332 1.067-3.372 1.067-4.117 0-.474-13.958 1.335-13.958 1.335s-.296 3.882-.048 4.143z"/></svg>