<svg xmlns="http://www.w3.org/2000/svg" xml:space="preserve" viewBox="0 0 64 64"><path fill="#99A8AE" d="M32 62C17.296 62 5.333 55.807 5.333 48.195S17.296 34.391 32 34.391s26.667 6.193 26.667 13.805S46.704 62 32 62z"/><path fill="#CFD8DD" d="M32 60.883c-17.644 0-32-7.436-32-16.568 0-9.135 14.356-16.566 32-16.566 17.646 0 32 7.431 32 16.566 0 9.132-14.354 16.568-32 16.568z"/><radialGradient id="a" cx="32.002" cy="46.921" r="31.013" gradientTransform="matrix(1 0 0 .4713 0 20.9)" gradientUnits="userSpaceOnUse"><stop offset=".527" style="stop-color:#c6c6c6"/><stop offset=".658" style="stop-color:#cfd0d0"/><stop offset=".881" style="stop-color:#e7eaeb"/><stop offset=".964" style="stop-color:#f2f5f7"/></radialGradient><ellipse cx="32.001" cy="43.66" fill="url(#a)" rx="31.101" ry="15.59"/><path fill="#529320" d="M7.379 38.775c-9.375 10.229 7.121 5.602 6.377 13.566-.729 7.814 14.229-5.232 20.034 2.258 3.947 5.098 18.022-.453 17.256-5.311-.862-5.428 17.533-1.113 5.934-9.457-13.88-9.983-38.528-13.136-49.601-1.056z"/><path fill="#488A15" d="M57.513 41.123c11.979-4.68-1.704-3.965-6.846-9.169-5.165-5.234-18.648-.256-17.678-9.21.617-5.695-14.068 2.994-13.344 7.582.813 5.125-24.656.332-13.512 8.721 11.784 8.869 37.513 7.492 51.38 2.076z"/><path fill="#71AD11" d="M15.044 42.512s.386 2.691 2.627 3.336c-4.272 2.498-4.195 6.076-4.195 6.076s4.34-3.586 6.275-3.557c-.841 2.639-.588 4.469 1.06 6.123.021.01-.286-5.98 2.934-9.059.571 1.939 3.803 2.35 3.803 2.35-3.736-8.402-12.504-5.269-12.504-5.269zm47.671-5.532c-1.675-1.898-3.65-2.365-6.603-1.764.121-2.029 4.394-6.185 4.394-6.185s-3.901-.464-6.977 3.742c-.525-2.412-3.43-3.115-3.43-3.115S41.454 41.084 40.044 44.92c3.414.855 5.921-6.428 14.792-1.613 0 0-.184-3.422-2.259-4.23 3.627-3.038 10.138-2.071 10.138-2.097z"/><radialGradient id="b" cx="42.713" cy="27.064" r="12.699" gradientTransform="matrix(1 0 0 .9143 0 -1.44)" gradientUnits="userSpaceOnUse"><stop offset="0" style="stop-color:#e6a157"/><stop offset=".178" style="stop-color:#d9954e"/><stop offset=".507" style="stop-color:#b67435"/><stop offset=".95" style="stop-color:#7f400e"/><stop offset="1" style="stop-color:#783a09"/></radialGradient><path fill="url(#b)" d="M55.084 26.782c-.155-3.514-1.233-6.15-3.435-8.836-2.244-2.737-5.457-3.79-8.846-3.935-3.293-.137-6.248.971-8.619 3.395-1.242 1.271-2.241 2.877-2.925 4.526-.567 1.378-.323 2.827-.337 4.293-.015 1.407-.243 2.979.488 4.226.818 1.398 1.441 2.879 2.43 4.176 4.127 5.422 13.091 5.102 17.628.457 1.072-1.094 2.538-2.781 2.746-4.366.174-1.313.929-2.626.87-3.936z"/><path fill="#4D2828" d="M46.7 19.578c.581.838-1.514 1.524-1.514.498.001-1.026 1.133-1.05 1.514-.498zm5.386 1.626c.58.839-1.514 1.526-1.514.499 0-1.026 1.132-1.05 1.514-.499zm-17.119 3.581c-.867-.028-.059-2.653.634-1.679.593.835.376 1.713-.634 1.679zm-.958-4.634c-.759-.428 1.136-2.389 1.316-1.2.156 1.015-.431 1.698-1.316 1.2zm9.119 2.722c.364 1.317-2.18 1.357-2.017 0 .121-1.012 1.855-.582 2.017 0zm3.21 2.655c-.403 1.305-2.18 1.358-2.018 0 .121-1.012 2.334-1.022 2.018 0zm-7.358-6.25c-.605.819-1.513 1.024-1.513 0 .001-1.028 2.354-1.138 1.513 0zm4.668-3.114c-.604.819-1.515 1.025-1.515 0 .001-1.028 2.355-1.135 1.515 0zm8.399 10.884c-.605.818-1.514 1.024-1.514 0 0-1.028 2.355-1.137 1.514 0zm-9.245-7.801c.384.51-1.005.928-1.005.302 0-.625.751-.64 1.005-.302zm6.401 9.304c.373.589-.977 1.075-.977.352.001-.725.73-.74.977-.352zm1.261-4.759c.374.568-.975 1.032-.975.337 0-.693.73-.71.975-.337zm-3.32-.474c-.491-.091-.264-1.262.213-.738.408.447.361.844-.213.738zm-14.61 1.14c-.484-.452.17-1.512.485-.618.271.765.081 1.15-.485.618zm14.006-7.996c.363.023-.011 1.116-.29.694-.237-.357-.134-.721.29-.694zm-7.82 5.622c.148.893-.887.922-.822 0 .049-.686.755-.396.822 0zm-1.332-4.324c-.17.548-.917.57-.85 0 .052-.425.981-.428.85 0zm2.687-1.806c-.252.346-.636.431-.636 0s.99-.478.636 0zm10.389 2.962c-.362.493-.907.613-.907 0 0-.617 1.412-.683.907 0z" opacity=".3"/><radialGradient id="c" cx="1.013" cy="12.066" r="15.239" gradientTransform="matrix(.9166 0 0 .8381 18.675 17.33)" gradientUnits="userSpaceOnUse"><stop offset="0" style="stop-color:#e6a157"/><stop offset=".178" style="stop-color:#d9954e"/><stop offset=".507" style="stop-color:#b67435"/><stop offset=".95" style="stop-color:#7f400e"/><stop offset="1" style="stop-color:#783a09"/></radialGradient><path fill="url(#c)" d="M33.21 31.262c-.172-3.861-1.357-6.766-3.777-9.719-2.469-3.008-6.004-4.166-9.731-4.324-3.62-.155-6.872 1.067-9.481 3.732-1.367 1.396-2.466 3.164-3.217 4.979-.624 1.515-.356 3.111-.371 4.724-.015 1.545-.266 3.276.537 4.647.899 1.539 1.587 3.17 2.673 4.594 4.542 5.963 14.4 5.611 19.392.506 1.179-1.205 2.791-3.063 3.021-4.807.189-1.444 1.019-2.889.954-4.332z"/><path fill="#4D2828" d="M24.337 23.134c.639.922-1.666 1.678-1.666.549 0-1.128 1.245-1.155 1.666-.549zm5.016 1.813c.641.92-1.664 1.677-1.664.547-.001-1.127 1.245-1.154 1.664-.547zM22.31 36.432c.64.922-1.665 1.678-1.665.547 0-1.127 1.246-1.153 1.665-.547zm-11.23-7.364c-.952-.029-.064-2.916.699-1.846.653.916.412 1.883-.699 1.846zm-1.154-4.592c-.835-.469 1.249-2.627 1.45-1.321.169 1.117-.478 1.869-1.45 1.321zm.672 6.891c.95.063-.028 2.92-.757 1.825-.623-.94-.353-1.898.757-1.825zm5.743.576c.667.897-1.574 2.602-1.702 1.485-.122-1.063 1.03-2.387 1.702-1.485zm-2.145 6.276c-1.047.369-1.944-2.332-.859-2.105 1.028.21 1.909 1.738.859 2.105zm6.141-11.448c.402 1.449-2.396 1.494-2.219 0 .133-1.111 2.041-.64 2.219 0zm3.184 4.011c-.444 1.433-2.399 1.492-2.221 0 .136-1.114 2.569-1.121 2.221 0zm-7.328-8.491c-.665.9-1.665 1.127-1.665 0 0-1.133 2.589-1.25 1.665 0zm4.439-2.707c-.666.902-1.665 1.128-1.665 0 0-1.129 2.589-1.249 1.665 0zm-.934 3.392c.424.562-1.104 1.021-1.104.335 0-.688.826-.706 1.104-.335zm-1.194 14.893c.411.625-1.074 1.137-1.074.373 0-.765.803-.781 1.074-.373zm5.971-10.414c-.539-.099-.289-1.386.236-.811.447.49.395.928-.236.811zM8.404 28.708c-.531-.497.188-1.661.534-.678.299.84.09 1.262-.534.678zm16.499-8.845c.399.027-.012 1.228-.317.769-.262-.395-.149-.799.317-.769zm-10.041 8.291c.281.375-.66 1.091-.715.621-.05-.443.434-1.002.715-.621zm4.456 6.473c-.66.232-1.034-.902-.389-.873.611.023 1.049.642.389.873zm-5.132-9.886c.165.983-.975 1.016-.901 0 .053-.754.829-.435.901 0zm-.443-3.4c-.187.604-1.009.628-.935 0 .058-.468 1.08-.472.935 0zm5.701 8.446c-.348.47-.869.59-.869 0 0-.591 1.354-.654.869 0zm-2.743-10.431c-.279.38-.698.474-.698 0 0-.476 1.086-.526.698 0zm11.426 3.257c-.397.54-.997.676-.997 0 0-.679 1.553-.752.997 0z" opacity=".3"/><radialGradient id="d" cx="36.446" cy="38.86" r="20.26" gradientTransform="matrix(1 -.0094 .0083 .9143 -.32 .121)" gradientUnits="userSpaceOnUse"><stop offset="0" style="stop-color:#e6a157"/><stop offset=".178" style="stop-color:#d9954e"/><stop offset=".507" style="stop-color:#b67435"/><stop offset=".95" style="stop-color:#7f400e"/><stop offset="1" style="stop-color:#783a09"/></radialGradient><path fill="url(#d)" d="M51.821 39.555c-.187-4.213-1.48-7.381-4.122-10.604-2.692-3.281-6.548-4.543-10.614-4.718-3.95-.168-7.499 1.164-10.344 4.07-1.491 1.526-2.69 3.454-3.511 5.433-.681 1.652-.389 3.395-.404 5.152-.017 1.688-.291 3.574.586 5.07.981 1.676 1.731 3.457 2.916 5.01 4.955 6.506 15.71 6.121 21.155.553 1.284-1.313 3.045-3.338 3.295-5.242.209-1.576 1.115-3.15 1.043-4.724z"/><radialGradient id="e" cx="581.248" cy="531.841" r="12.281" gradientTransform="matrix(-1 0 0 -.9143 616.682 522.682)" gradientUnits="userSpaceOnUse"><stop offset="0" style="stop-color:#a5c967"/><stop offset=".343" style="stop-color:#a1c564"/><stop offset=".672" style="stop-color:#96ba5b"/><stop offset=".995" style="stop-color:#84a64b"/><stop offset="1" style="stop-color:#84a64b"/></radialGradient><path fill="url(#e)" d="M23.923 37.199c.156 3.514 1.46 6.99 3.663 9.678 2.244 2.738 5.026.791 8.419.938 3.294.141 6.253.805 8.626-1.619 1.243-1.273 2.243-2.879 2.926-4.531.569-1.377.323-2.832.339-4.297.014-1.408-.076-2.949-.807-4.199-.818-1.397-1.127-2.913-2.115-4.208-4.132-5.43-13.1-5.105-17.643-.46-1.073 1.093-2.152 3.033-2.362 4.619-.174 1.316-1.105 2.767-1.046 4.079z"/><path fill="#C99A55" d="M30.703 48.641c-1.413 0-2.442-.488-3.339-1.578-2.241-2.736-3.567-6.234-3.727-9.848-.036-.809.267-1.641.56-2.445.216-.594.418-1.154.489-1.688.229-1.739 1.4-3.723 2.441-4.786 2.225-2.275 5.631-3.633 9.109-3.633 3.703 0 6.97 1.502 8.963 4.12.596.78.953 1.641 1.302 2.474.243.586.499 1.192.832 1.764.771 1.314.86 2.936.847 4.348-.004.354.009.703.021 1.053.037 1.109.075 2.252-.381 3.354-.734 1.777-1.769 3.377-2.986 4.623-1.634 1.668-3.519 1.893-5.146 1.893-.721 0-1.45-.049-2.223-.102-.483-.029-.975-.064-1.474-.086-1.066-.053-2.072.121-3.037.283-.789.129-1.531.254-2.251.254zm5.534-23.4c-3.33 0-6.585 1.294-8.704 3.463-.95.97-2.071 2.86-2.28 4.455-.078.598-.304 1.215-.521 1.813-.272.748-.554 1.527-.523 2.217.155 3.488 1.432 6.865 3.597 9.504.776.947 1.669 1.369 2.898 1.369.673 0 1.394-.121 2.157-.246.995-.166 2.037-.34 3.156-.289.504.021.999.057 1.486.086.764.055 1.484.102 2.186.102 1.511 0 3.254-.203 4.738-1.723 1.17-1.195 2.16-2.73 2.867-4.439.405-.984.373-2.016.336-3.109a29.645 29.645 0 0 1-.02-1.078c.012-1.332-.068-2.854-.768-4.047-.354-.604-.615-1.23-.867-1.834-.349-.836-.676-1.623-1.227-2.346-1.885-2.478-4.987-3.898-8.511-3.898z"/><path fill="#284D30" d="M42.925 30.529c.781 1.129-2.035 2.051-2.035.673 0-1.382 1.522-1.413 2.035-.673zm3.473 3.051c.782 1.129-2.036 2.053-2.036.672 0-1.379 1.523-1.408 2.036-.672zm-4.406 12.219c.781 1.127-2.034 2.053-2.034.674 0-1.385 1.521-1.416 2.034-.674zm-16.261-9.598c-1.164-.037-.078-3.568.857-2.258.8 1.121.502 2.301-.857 2.258zm.512-3.357c-1.018-.578 1.527-3.214 1.771-1.615.212 1.365-.581 2.281-1.771 1.615zm.193 6.783c1.163.082-.036 3.572-.926 2.234-.763-1.146-.431-2.318.926-2.234zm6.162-5.494c1.163.08-.034 3.568-.926 2.23-.763-1.144-.43-2.316.926-2.23zm-.954 5.971c.816 1.096-1.926 3.182-2.084 1.813-.147-1.296 1.262-2.919 2.084-1.813zm-1.104 6.834c-1.279.447-2.377-2.852-1.049-2.576 1.259.255 2.335 2.122 1.049 2.576zm6.064-11.348c.491 1.768-2.932 1.824-2.711 0 .163-1.361 2.497-.783 2.711 0zm4.484 4.047c-.542 1.752-2.933 1.824-2.714 0 .165-1.364 3.14-1.373 2.714 0zm-5.282 5.951c-.543 1.756-2.934 1.824-2.715 0 .166-1.363 3.139-1.373 2.715 0zM32.707 29.2c-.814 1.103-2.035 1.377-2.035 0 0-1.382 3.163-1.531 2.035 0zm5.256-2.167c-.813 1.101-2.034 1.378-2.034 0 0-1.383 3.163-1.529 2.034 0zm8.758 13.086c-.814 1.102-2.034 1.377-2.034 0 0-1.385 3.165-1.529 2.034 0zm-8.978-9.23c.517.685-1.963 2.023-1.963 1.183 0-1.891 1.405-1.921 1.963-1.183zm-7.942 3.787c.517.689-1.353 1.252-1.353.408 0-.84 1.01-.859 1.353-.408zm-.508 4.849c.52.686-1.35 1.25-1.35.408 0-.839 1.01-.859 1.35-.408zm2.606 4.12c.518.686-1.352 1.25-1.352.404.001-.836 1.012-.858 1.352-.404zm6.712-1.749c.518.688-1.352 1.25-1.352.408.001-.837 1.011-.859 1.352-.408zm3.253.327c.518.686-1.352 1.248-1.352.406.001-.84 1.011-.859 1.352-.406zm1.989 2.181c.31.408-.801.74-.801.242s.599-.509.801-.242zm-1.654-4.207c.307.408-.802.742-.802.244s.6-.511.802-.244zm-6.257-6.627c.307.408-.801.74-.801.242s.6-.509.801-.242zm3.946-1.589c.307.408-.804.742-.804.244 0-.499.6-.512.804-.244zm2.948.521c.308.408-.801.74-.801.242s.598-.51.801-.242zm2.063-1.877c.308.407-.801.74-.801.241.001-.497.6-.51.801-.241zM28.822 33.35c.307.406-.802.738-.802.24s.6-.51.802-.24zm-1.601 4.871c.308.408-.801.74-.801.244 0-.5.6-.512.801-.244zm1.201 3.986c.308.408-.801.74-.801.242s.6-.511.801-.242zm1.502 1.166c.308.408-.803.74-.803.242 0-.5.6-.51.803-.242zm-.709-2.219c.307.406-.803.738-.803.24s.6-.509.803-.24zm1.566-5.187c.308.408-.801.74-.801.242 0-.5.6-.51.801-.242zm1.582 2.283c.308.404-.802.738-.802.24s.6-.511.802-.24zm-.179-5.201c.308.408-.802.742-.802.244 0-.5.599-.512.802-.244zm-1.243-2.424c.307.407-.802.74-.802.241.001-.497.6-.51.802-.241zm3.221-.227c.307.409-.803.741-.803.242 0-.497.6-.509.803-.242zm-2.688-3.292c.307.407-.802.739-.802.242 0-.498.599-.511.802-.242zm5.324 2.15c.308.408-.802.741-.802.242s.6-.509.802-.242zm4.962 4.39c.518.686-2.248 1.967-2.248 1.123 0-1.39 1.541-2.064 2.248-1.123zm2.247 4.223c.519.686-1.351 1.25-1.351.408 0-.839 1.011-.861 1.351-.408zm-7.53 2.436c.519.686-1.351 1.25-1.351.408 0-.84 1.011-.861 1.351-.408zm3.09-4.157c.518.686-1.352 1.25-1.352.408s1.011-.859 1.352-.408zm-4.427-9.014c.517.688-1.352 1.25-1.352.408 0-.839 1.011-.861 1.352-.408zm8.635 15.284c.503.793-1.313 1.445-1.313.473s.981-.998 1.313-.473zm1.939-.09c.503.791-.868 1.297-.868.322s.538-.847.868-.322zm-17.553 1.926c.501.793-1.313 1.445-1.313.471 0-.973.981-.995 1.313-.471zm.7-7.287c.502.791-1.313 1.445-1.313.473.001-.975.98-.997 1.313-.473zm.702-7.145c.501.792-1.313 1.447-1.313.472-.001-.974.98-.995 1.313-.472zm11.372-3.092c.503.793-1.312 1.446-1.312.473s.981-.996 1.312-.473zm-2.085 1.843c.503.792-1.313 1.446-1.313.473-.001-.976.98-.997 1.313-.473zm0 4.769c.503.791-1.313 1.445-1.313.473 0-.975.98-.997 1.313-.473zm7.597 2.775c.504.766-1.312 1.389-1.312.453.001-.931.983-.953 1.312-.453zm-3.616-.637c-.661-.123-.354-1.697.288-.994.549.604.485 1.139-.288.994zm-17.897 2.581c-.649-.611.228-2.035.654-.834.364 1.029.106 1.544-.654.834zm18.786-9.337c.488.033-.015 1.497-.388.937-.32-.481-.181-.973.388-.937zm.381 3.161c.49.03-.015 1.498-.39.935-.318-.48-.179-.972.39-.935zm-.467 7.623c.488.033-.014 1.5-.388.938-.319-.481-.181-.975.388-.938zm-2.187-3.24c.488.031-.014 1.498-.39.938-.317-.483-.18-.976.39-.938zm-1.378 7.267c.488.033-.016 1.498-.389.938-.318-.483-.18-.975.389-.938zm-1.778 2.379c.487.033-.015 1.5-.389.938-.319-.483-.182-.975.389-.938zm-.511-1.973c.487.035-.016 1.502-.389.939-.319-.48-.181-.974.389-.939zm-4.524-1.918c.487.031-.016 1.498-.39.938-.319-.482-.18-.975.39-.938zm4.779-4.175c.489.033-.016 1.5-.389.938-.319-.481-.179-.975.389-.938zm-4.47.537c1.343.09-.162 2.275-.65 1.545-.317-.483.08-1.58.65-1.545zm.779-6.578c.489.034-.015 1.5-.388.939-.319-.482-.181-.973.388-.939zm-1.771-.948c.49.033-.014 1.5-.389.938-.318-.481-.178-.975.389-.938zm2.491-1.975c.489.033-.014 1.5-.387.937-.32-.481-.18-.972.387-.937zm6.245-.966c.486.032-.017 1.498-.39.937-.319-.48-.181-.973.39-.937zM30.816 37.43c.343.461-.809 1.336-.873.764-.064-.546.531-1.229.873-.764zm4.995 6.131c-.807.285-1.264-1.104-.476-1.07.748.03 1.281.786.476 1.07zM30.548 32.48c.201 1.201-1.192 1.242-1.103 0 .066-.923 1.016-.534 1.103 0zm-.56-4.163c-.226.737-1.232.768-1.142 0 .072-.571 1.321-.574 1.142 0zm6.575 10.105c-.425.576-1.063.721-1.063 0-.001-.723 1.653-.799 1.063 0zm-3.312-11.549c-.341.465-.854.579-.854 0-.001-.579 1.331-.642.854 0zm6.633 3.734c-.489.661-1.221.824-1.221 0 0-.831 1.899-.921 1.221 0z" opacity=".3"/><path fill="#4D2828" d="M46.296 28.292c-.279.378-.698.473-.698 0 0-.475 1.087-.525.698 0zm-5.775 21.579c.64.926-1.664 1.68-1.664.549-.001-1.127 1.245-1.152 1.664-.549zm8.97-11.465c-.951-.029-.063-2.916.701-1.846.653.917.412 1.883-.701 1.846zm-3.271 8.203c.95.063-.027 2.918-.756 1.824-.624-.939-.353-1.896.756-1.824zm-13.813 5.053c-1.047.365-1.944-2.332-.858-2.107 1.027.209 1.909 1.736.858 2.107zm4.308-.351c.411.627-1.073 1.135-1.073.371s.803-.78 1.073-.371zm-12.778-7.797c-.54-.1-.289-1.389.235-.811.448.49.395.928-.235.811zm24.473 1.847c-.532-.498.188-1.662.534-.678.298.838.089 1.262-.534.678zm-22.888-.32c.399.027-.012 1.227-.317.766-.261-.395-.148-.797.317-.766zm18.268 4.563c.281.377-.662 1.092-.716.623-.052-.446.435-1.002.716-.623zm-8.374.263c-.659.232-1.032-.902-.387-.875.61.026 1.047.645.387.875zm14.568-8.933c.164.984-.976 1.016-.902 0 .054-.754.83-.436.902 0zm-.444-7.481c-.187.602-1.008.627-.934 0 .058-.469 1.081-.473.934 0zM28.813 49.514c-.349.469-.869.588-.869 0-.001-.592 1.353-.655.869 0zm19.004-19.002c-.399.541-1 .677-1 0s1.555-.751 1 0z" opacity=".3"/></svg>