<svg xmlns="http://www.w3.org/2000/svg" xml:space="preserve" style="enable-background:new 0 0 64 64" viewBox="0 0 64 64"><linearGradient id="a" x1="-89.36" x2="-96.737" y1="131.115" y2="131.115" gradientTransform="rotate(-10.532 -604.36 -629.917)" gradientUnits="userSpaceOnUse"><stop offset=".307" style="stop-color:#ffc940"/><stop offset=".528" style="stop-color:#fdc43d"/><stop offset=".775" style="stop-color:#f8b735"/><stop offset="1" style="stop-color:#f0a429"/></linearGradient><path d="M34.107 27.038c.977-.638 1.1.304 1.204.83.33 1.666 3.16 1 6.03-2.276-.375-.73-.748-3.457-.748-3.457-2.029-3.262-5.521.218-6.486 4.903z" style="fill:url(#a)"/><path d="M47.412 61.82s.588.064.588-.244c0-3.902-3.24-4.027-5.636-6.735-.253-.287-1.352.609-1.352.609l6.4 6.37z" style="fill:#6e8189"/><path d="M39.918 59.964c3.807.384 3.12 2.419 7.494 1.856 0-3.82-2.963-3.792-5.868-6.667-10.069.896-2.832 4.251-1.626 4.81z" style="fill:#99a8ae"/><path d="M44.038 61.168c-.157-1.238-1.115-2.083-1.695-1.413-.374-1.009-1.405-1.284-1.555-.72-.552-.863-2.73-1.576-.601 1.05 1.403.033 3.911 1.566 3.85 1.083z" style="fill:#1a1626"/><path d="M42.727 48.39s-5.168-4.679-10.423-.714c-6.052 2.332-11.935 5.638-15.363 8.339-2.32 1.83-.008 5.625 3.202 5.92 2.574.236 9.5-.122 20.043-1.85 0 0-.683-2.502-3.584-3.885 5.786-.372 9.33-1.5 6.125-7.81z" style="fill:#2b4f87"/><path d="M43.61 53.776c-4.167 3.631-13.094 1.453-17.936 3.347 5.77-.544 16.107.553 17.937-3.347z" style="fill:#2a4178"/><path d="M43.725 50.52s-5.013-3.758-11.42-2.844c.322-9.482-.808-14.059 3.006-19.809 1.064 1.854 2.738-1.025 6.03-2.275 4.676 4.75-.102 14.018 2.384 24.929z" style="fill:#ff7a00"/><path d="M38.93 42.193c.225-.59 1.655-2.336 1.97-3.858l-4.79-.478s-.322.923-1.228 3.306c-1.792 2.375-3.788 5.16-6.347 7.585-.168.16-2.426.655-2.821.859-.49.253-1.568.775-1.627 1.345-.677 1.219 1.824.41 3.67.372 1.923-.039 2.728-.547 2.874-.866.858-1.871 7.905-7.227 8.299-8.265z" style="fill:#ffc940"/><path d="M26.252 49.775c-1.884.257-2.165 1.177-2.165 1.177s.44-.717 2.165-1.177zm.466.644c-2.994.467-2.631 1.09-2.631 1.09s0-.557 2.63-1.09z" style="fill:#f0a429"/><path d="M41.27 38.85s1.46-4.665 1.87-8.73c.322-3.182-4.977-3.896-5.416-.71-.61 4.43-1.777 8.63-1.777 8.63 1.774.118 3.56.392 5.323.81z" style="fill:#ed6a00"/><path d="M29.172 20.25c-.991-2.65 1.86-4.75-.625-6.571-3.03 2.245-1.904 4.757.625 6.57z" style="fill:#e68c00"/><path d="M27.925 15.348c-.085 1.02-.442 3.102.618 4.185.474.486.204 2.005-.32 3.021-.227.442-.202.928.065 1.14.408.325.855-.038 1.162.209.501.402.145.834.205 1.052 0 0 1.344-.126.908 1.218.165.096.43-.035.49.95.039.648.902 1.39 1.608.936 4.5-2.89 5.875-4.62 5.636-7.315-.502-5.688-1.019-11.806-10.372-5.396z" style="fill:#ffc940"/><path d="M29.655 24.954c.077.633 1.403.776 2.078-.103-1.279.57-1.767-.108-2.078.104z" style="fill:#f0a429"/><path d="M30.375 25.465c-.245.299-.14.62.187.708.545-.293 1.076-.632 1.17-1.322-.57.53-1.357.614-1.357.614zm-2.203-1.905c.309.686 2.51.428 2.126-.625-.007 1.086-2.327.18-2.126.625z" style="fill:#f0a429"/><path d="M30.834 18.477c-.654-.325-1.695-.433-2.469.203-.111.091.184.578.274.506.596-.485 1.299-.567 2.282-.296.114.031.043-.349-.087-.413z" style="fill:#bb7c0a"/><path d="M29.408 20.554c.933 1.301 1.561-.079 2.013-.836-.964.656-1.032 1.132-2.013.836z" style="fill:#45332c"/><path d="M40.924 12.979c-1.844-2.449-4.22-3.446-8.212-2.775-3.234.543-5.62 2.818-5.812 5.02-.271 3.07 4.406 2.177 6.34 4.337 0 0 .425-1.713-1.114-3.748 2.396 2.554 4.067 3.049 5.309 3.21 1.113 2.045 1.649 4.232 1.713 6.147.806-.457 1.45-1.19 1.908-2.067.087.421.174.88.262 1.398 2.059-2.482 2.102-8.207-.394-11.523z" style="fill:#f9a307"/><path d="M40.298 13.112c-1.762-2.508-3.594-3.579-7.586-2.908-3.234.543-5.289 2.615-5.225 4.508.059 1.753 1.576 1.13 5.176 3.812 0 0-.684-2.318-3.235-4.894 3.859 1.235 4.663 4.632 7.517 4.376 3.011-.27 2.71 2.935 3.101 5.013 1.296-1.39 1.197-3.437 1.197-3.437s.522 1.322.522 2.875c1.025-2.07.286-6.85-1.467-9.345z" style="fill:#ffb80d"/><path d="M30.004 11.637c3.428.296 8.333 2.71 10.442 6.98-.867-5.557-7.071-8.344-10.442-6.98z" style="fill:#ffca25"/><path d="M32.348 10.603c3.607-.07 7.437 2.216 8.895 6.361-.537-5.2-5.132-7.518-8.895-6.36zm-1.161 5.981s-2.22-1.784-2.729-3.967c-1.88 3.152 2.729 3.967 2.729 3.967zm-2.032-4.049c2.824.594 6.05 5.804 8.833 4.533-3.15-.137-5.223-5.564-8.833-4.533z" style="fill:#ffca25"/><path d="M37.016 17.098c-1.388.669-.964 3.985.325 4.398.18.059 1.01-.062 1.218-.954.117-.494.84-1.152.722-2.032-.149-1.129-.886-2.078-2.265-1.412z" style="fill:#ffc940"/><path d="M37.255 17.672c-.339.218-.575.723-.51 1.384.577-.307.92.872.436 1.236.076.129.16.26.259.392.307-.697.964-.722 1.157-1.655.174-.842-.499-1.898-1.342-1.357z" style="fill:#f0a429"/></svg>