<svg xmlns="http://www.w3.org/2000/svg" xml:space="preserve" viewBox="0 0 64 64"><path fill="#89CC14" d="M7 15.752v41.882L31.504 64V20.001z"/><path fill="#7AB51D" d="M31.504 20.001V64l14.452-6.366V15.752z"/><path fill="#6BA117" d="m31.504 20.001 7.226 8.816V17.878z"/><path fill="#7AB51D" d="m7 15.752 24.504 4.249 14.452-4.249-23.338-4.239z"/><path fill="#89CC14" d="m17.035 13.029-1.993.54 23.688 4.309 1.918-.563z"/><path fill="#6BA117" d="M40.648 17.315v8.656l5.308-10.219z"/><path fill="#72AB18" d="m38.73 28.817 1.918-.675V17.315l-1.918.563z"/><path fill="#7AB51D" d="M19.251 29.742c5.153 1.294 9.33 6.881 9.33 12.479 0 5.597-4.177 9.085-9.33 7.792-5.149-1.295-9.329-6.885-9.329-12.48 0-5.595 4.18-9.086 9.329-7.791z"/><path fill="#D5F78D" d="M19.251 33.545c3.217.806 5.834 4.305 5.834 7.798s-2.617 5.677-5.834 4.87c-3.215-.809-5.83-4.308-5.83-7.799 0-3.49 2.615-5.679 5.83-4.869zm0-2.113c-4.294-1.077-7.774 1.831-7.774 6.491 0 4.666 3.48 9.322 7.774 10.399 4.294 1.08 7.776-1.824 7.776-6.491 0-4.662-3.482-9.321-7.776-10.399z"/><path fill="#D5F78D" d="M20.808 41.111c-.264-.064-.388-.233-.388-.518v-.842c0-.285.124-.395.388-.327l2.524.634c.262.066.392.239.392.522v.423c0 2.681-2.004 4.351-4.473 3.729-1.201-.301-2.326-1.104-3.159-2.215-.183-.25-.183-.444-.003-.598l.827-.689c.184-.153.364-.106.548.139.474.63 1.11 1.082 1.787 1.254 1.125.28 2.078-.275 2.407-1.297l-.85-.215z"/><linearGradient id="a" x1="65.186" x2="65.186" y1="403.559" y2="405.016" gradientTransform="rotate(180 51.662 210)" gradientUnits="userSpaceOnUse"><stop offset="0" style="stop-color:#1a1626"/><stop offset="1" style="stop-color:#529220;stop-opacity:0"/></linearGradient><ellipse cx="38.138" cy="15.714" fill="url(#a)" rx="2.349" ry=".728"/><linearGradient id="b" x1="-1055.261" x2="-1058.511" y1="410.282" y2="411.11" gradientTransform="matrix(1 0 0 -1 1096.723 420)" gradientUnits="userSpaceOnUse"><stop offset="0" style="stop-color:#d2d8db"/><stop offset=".085" style="stop-color:#e6e9eb"/><stop offset=".183" style="stop-color:#f4f6f6"/><stop offset=".302" style="stop-color:#fcfdfd"/><stop offset=".5" style="stop-color:#fff"/><stop offset=".698" style="stop-color:#fcfdfd"/><stop offset=".817" style="stop-color:#f4f6f6"/><stop offset=".915" style="stop-color:#e6e9eb"/><stop offset="1" style="stop-color:#d2d8db"/></linearGradient><path fill="url(#b)" d="m43.178 3.401-3.611 12.888c-.635.224-2.589.273-3.382-.173l3.754-13.344c1.561-2.281 3.239.629 3.239.629z"/><linearGradient id="c" x1="-1143.41" x2="-1142.813" y1="339.55" y2="342.579" gradientTransform="scale(1 -1) rotate(-15.497 -1817.38 -4214.345)" gradientUnits="userSpaceOnUse"><stop offset="0" style="stop-color:#d2d8db"/><stop offset=".085" style="stop-color:#e6e9eb"/><stop offset=".183" style="stop-color:#f4f6f6"/><stop offset=".302" style="stop-color:#fcfdfd"/><stop offset=".5" style="stop-color:#fff"/><stop offset=".698" style="stop-color:#fcfdfd"/><stop offset=".817" style="stop-color:#f4f6f6"/><stop offset=".915" style="stop-color:#e6e9eb"/><stop offset="1" style="stop-color:#d2d8db"/></linearGradient><path fill="url(#c)" d="m55.438 9.104-12.26-5.703c-1.542-1.835-.166-3.265-.166-3.265L56.741 6.46c.818.372-.489 3.022-1.303 2.644z"/><path fill="#302C3B" d="M56.707 6.694c-.624-.288-1.789 1.938-1.166 2.229.617.292 1.78-1.937 1.166-2.229z"/><linearGradient id="d" x1="40.622" x2="37.265" y1="13.093" y2="12.821" gradientUnits="userSpaceOnUse"><stop offset="0" style="stop-color:#ffc226"/><stop offset=".509" style="stop-color:#f5dd00"/><stop offset=".663" style="stop-color:#f7d806"/><stop offset=".876" style="stop-color:#fbcc18"/><stop offset="1" style="stop-color:#ffc226"/></linearGradient><path fill="url(#d)" d="M36.452 15.128s1.278-1.448 3.813-1.332l.84-2.999c-2.187-.468-3.666.86-3.666.86l-.987 3.471z"/><linearGradient id="e" x1="-66.078" x2="-63.699" y1="686.191" y2="686.305" gradientTransform="rotate(105.497 252.372 390.855)" gradientUnits="userSpaceOnUse"><stop offset="0" style="stop-color:#ffc226"/><stop offset=".509" style="stop-color:#f5dd00"/><stop offset=".663" style="stop-color:#f7d806"/><stop offset=".876" style="stop-color:#fbcc18"/><stop offset="1" style="stop-color:#ffc226"/></linearGradient><path fill="url(#e)" d="M50.916 3.779s-.927 1.368-.13 3.157l3.397 1.584c-.998-1.508-.043-3.256-.043-3.256l-3.224-1.485z"/><linearGradient id="f" x1="-67.109" x2="-64.767" y1="692.54" y2="692.652" gradientTransform="rotate(105.497 252.372 390.855)" gradientUnits="userSpaceOnUse"><stop offset="0" style="stop-color:#ffc226"/><stop offset=".509" style="stop-color:#f5dd00"/><stop offset=".663" style="stop-color:#f7d806"/><stop offset=".876" style="stop-color:#fbcc18"/><stop offset="1" style="stop-color:#ffc226"/></linearGradient><path fill="url(#f)" d="M45.13 1.119s-.746 1.487-.143 3.101l3.257 1.532c-.851-1.521.082-3.171.082-3.171L45.13 1.119z"/><linearGradient id="g" x1="42.291" x2="38.982" y1="6.858" y2="6.632" gradientUnits="userSpaceOnUse"><stop offset="0" style="stop-color:#ffc226"/><stop offset=".509" style="stop-color:#f5dd00"/><stop offset=".663" style="stop-color:#f7d806"/><stop offset=".876" style="stop-color:#fbcc18"/><stop offset="1" style="stop-color:#ffc226"/></linearGradient><path fill="url(#g)" d="m39.182 5.533-.833 2.987s1.341-1.475 3.619-.803l.712-2.539c-2.194-.897-3.498.355-3.498.355z"/><linearGradient id="h" x1="40.407" x2="43.468" y1="3.403" y2=".769" gradientUnits="userSpaceOnUse"><stop offset="0" style="stop-color:#ffc226"/><stop offset=".509" style="stop-color:#f5dd00"/><stop offset=".663" style="stop-color:#f7d806"/><stop offset=".876" style="stop-color:#fbcc18"/><stop offset="1" style="stop-color:#ffc226"/></linearGradient><path fill="url(#h)" d="M43.012.137c-.825-.396-2.157.09-2.643 1.198-.139.316-.431 1.438-.431 1.438s1.851-.872 3.239.629c-.76-1.417-.165-3.265-.165-3.265z"/></svg>