<svg xmlns="http://www.w3.org/2000/svg" xml:space="preserve" viewBox="0 0 64 64"><path fill="#7A3B0F" d="M45.554 54.643c-.868 2.471-.827 4.646-.827 4.646a13.4 13.4 0 0 1-4.19-.822c-.059 1.318-.723 2.344-.723 2.344-.676-.311-1.063-.607-1.268-.881-.61 1.086-1.467 1.73-1.467 1.73-.321-1.047-1.409-2.375-3.061-3.439l11.536-3.578z"/><path fill="#A6561C" d="M18.236 5.646c.684.354 1.562 3.258 2.427 3.027-1.496-1.686-1.013-4.521-1.013-4.521.349.427 2.237 2.104 2.386 2.404-.025-.94-.074-2.556-.074-2.556.771 2.13 3.965 6.321 6.01 7.294l-9.12 3.336c-.937-3.505-.616-8.984-.616-8.984z"/><radialGradient id="a" cx="214.357" cy="40.563" r="7.162" gradientTransform="matrix(.9073 -.3319 .6327 1.7474 -198.424 9.949)" gradientUnits="userSpaceOnUse"><stop offset="0" style="stop-color:#ffc042"/><stop offset=".271" style="stop-color:#f5ae3d"/><stop offset=".81" style="stop-color:#d9802e"/><stop offset="1" style="stop-color:#cf6e29"/></radialGradient><path fill="url(#a)" d="M23.254 4.054c-.867 2.034.453 3.826.068 5.384-1.306-.774-2.835-4.85-2.835-4.85-.088.586-1.18 3.615.059 6.33-2.259.042-3.09-3.804-3.09-3.804-1.062 4.322.927 6.084-2.698 10.668l17.412-6.641c-7.795.588-6.48-3.849-8.916-7.087z"/><path fill="#A6561C" d="M31.158 59.379c2.62 1.115 3.96 2.621 3.96 2.621a23.926 23.926 0 0 0 4.513-3.262c.913.857 2.366 1.129 2.366 1.129.615-.65.889-1.102.961-1.418 1.428.344 2.868.23 2.868.23-.282-.92.18-2.523 1.485-4.313l-16.153 5.013z"/><radialGradient id="b" cx="212.726" cy="69.192" r="32.896" gradientTransform="matrix(.9073 -.3319 .3195 .8825 -188.268 38.917)" gradientUnits="userSpaceOnUse"><stop offset="0" style="stop-color:#ffd073"/><stop offset=".178" style="stop-color:#fccb6f"/><stop offset=".394" style="stop-color:#f5bc64"/><stop offset=".63" style="stop-color:#e9a451"/><stop offset=".878" style="stop-color:#d98238"/><stop offset="1" style="stop-color:#cf6e29"/></radialGradient><path fill="url(#b)" d="M59.429 30.753c3.146 13.305-7.155 22.792-19.922 27.461-12.765 4.67-26.723 4.061-32.823-8.166-7.836-15.709 2.654-32.151 16.402-37.18 13.748-5.029 32.3.79 36.343 17.885z"/><radialGradient id="c" cx="207.855" cy="69.189" r="19.556" gradientTransform="matrix(.7433 -.6137 .4274 .501 -161.643 123.887)" gradientUnits="userSpaceOnUse"><stop offset="0" style="stop-color:#fdeb99;stop-opacity:.9"/><stop offset="1" style="stop-color:#fdeb99;stop-opacity:0"/></radialGradient><path fill="url(#c)" d="M11.949 21.45C-2.915 35.705 7.618 61.998 34.251 38.766 55.248 20.443 30.302 3.848 11.949 21.45z"/><radialGradient id="d" cx="224.511" cy="92.089" r="14.122" gradientTransform="matrix(-.7322 .6266 -.3744 -.4227 243.71 -56.073)" gradientUnits="userSpaceOnUse"><stop offset="0" style="stop-color:#fdeb99;stop-opacity:.9"/><stop offset="1" style="stop-color:#fdeb99;stop-opacity:0"/></radialGradient><path fill="url(#d)" d="M36.577 40.453c-19.14 15.605.908 28.105 18.681 5.527 4.836-6.148 3.485-23.596-18.681-5.527z" opacity=".7"/><linearGradient id="e" x1="-376.924" x2="-376.924" y1="231.228" y2="298.468" gradientTransform="scale(1 -1) rotate(19.999 679.549 1272.392)" gradientUnits="userSpaceOnUse"><stop offset="0" style="stop-color:#a34b2f"/><stop offset="1" style="stop-color:#a34b2f;stop-opacity:0"/></linearGradient><path fill="url(#e)" d="M23.65 14.633c3.951 14.458 9.041 28.07 15.369 42.794-4.01-15.675-11.548-36.003-15.369-42.794z" opacity=".6"/><linearGradient id="f" x1="-363.138" x2="-363.138" y1="231.245" y2="298.488" gradientTransform="scale(1 -1) rotate(19.999 679.549 1272.392)" gradientUnits="userSpaceOnUse"><stop offset="0" style="stop-color:#a34b2f"/><stop offset="1" style="stop-color:#a34b2f;stop-opacity:0"/></linearGradient><path fill="url(#f)" d="M33.865 11.863c11.382 9.841 17.847 25.942 14.475 41.186 5.005-13.692-.044-30.766-14.475-41.186z" opacity=".6"/><linearGradient id="g" x1="-369.69" x2="-369.69" y1="231.235" y2="298.478" gradientTransform="scale(1 -1) rotate(19.999 679.549 1272.392)" gradientUnits="userSpaceOnUse"><stop offset="0" style="stop-color:#a34b2f"/><stop offset="1" style="stop-color:#a34b2f;stop-opacity:0"/></linearGradient><path fill="url(#g)" d="M28.703 13.75c8.927 11.601 13.81 26.55 14.802 41.066.851-14.58-3.567-29.449-14.802-41.066z" opacity=".6"/><linearGradient id="h" x1="-355.644" x2="-355.644" y1="231.259" y2="298.498" gradientTransform="scale(1 -1) rotate(19.999 679.549 1272.392)" gradientUnits="userSpaceOnUse"><stop offset="0" style="stop-color:#a34b2f"/><stop offset="1" style="stop-color:#a34b2f;stop-opacity:0"/></linearGradient><path fill="url(#h)" d="M43.321 14.214c8.575 8.013 12.021 19.301 11.073 30.809 3.076-11.826.144-23.119-11.073-30.809z" opacity=".6"/><linearGradient id="i" x1="-390.717" x2="-390.717" y1="231.214" y2="298.454" gradientTransform="scale(1 -1) rotate(19.999 679.549 1272.392)" gradientUnits="userSpaceOnUse"><stop offset="0" style="stop-color:#a34b2f"/><stop offset="1" style="stop-color:#a34b2f;stop-opacity:0"/></linearGradient><path fill="url(#i)" d="M29.048 60.104c-11.381-9.842-17.845-25.941-14.472-41.185-5.007 13.691.041 30.765 14.472 41.185z" opacity=".6"/><linearGradient id="j" x1="-384.166" x2="-384.166" y1="231.221" y2="298.459" gradientTransform="scale(1 -1) rotate(19.999 679.549 1272.392)" gradientUnits="userSpaceOnUse"><stop offset="0" style="stop-color:#a34b2f"/><stop offset="1" style="stop-color:#a34b2f;stop-opacity:0"/></linearGradient><path fill="url(#j)" d="M34.212 58.217c-8.929-11.604-13.811-26.552-14.801-41.065-.856 14.577 3.566 29.446 14.801 41.065z" opacity=".6"/><linearGradient id="k" x1="-398.21" x2="-398.21" y1="231.199" y2="298.439" gradientTransform="scale(1 -1) rotate(19.999 679.549 1272.392)" gradientUnits="userSpaceOnUse"><stop offset="0" style="stop-color:#a34b2f"/><stop offset="1" style="stop-color:#a34b2f;stop-opacity:0"/></linearGradient><path fill="url(#k)" d="M19.592 57.754c-8.573-8.018-12.024-19.307-11.07-30.811-3.078 11.827-.146 23.118 11.07 30.811z" opacity=".6"/></svg>