<svg xmlns="http://www.w3.org/2000/svg" xml:space="preserve" style="enable-background:new 0 0 64 64" viewBox="0 0 64 64"><linearGradient id="a" x1="-89.22" x2="-96.737" y1="130.376" y2="130.376" gradientTransform="rotate(-10.532 -604.36 -629.917)" gradientUnits="userSpaceOnUse"><stop offset=".307" style="stop-color:#ffc940"/><stop offset=".528" style="stop-color:#fdc43d"/><stop offset=".775" style="stop-color:#f8b735"/><stop offset="1" style="stop-color:#f0a429"/></linearGradient><path d="M34.107 27.038c.977-.638 1.1.304 1.204.83.33 1.666 3.16 1 6.03-2.276-.375-.73-.843-5.306-.843-5.306-2.03-3.261-5.426 2.067-6.39 6.752z" style="fill:url(#a)"/><path d="M47.412 61.82s.588.064.588-.244c0-3.902-3.24-4.027-5.636-6.735-.253-.287-1.352.609-1.352.609l6.4 6.37z" style="fill:#6e8189"/><path d="M39.918 59.964c3.807.384 3.12 2.419 7.494 1.856 0-3.82-2.963-3.792-5.868-6.667-10.069.896-2.832 4.251-1.626 4.81z" style="fill:#99a8ae"/><path d="M44.038 61.168c-.157-1.238-1.115-2.083-1.695-1.413-.374-1.009-1.405-1.284-1.555-.72-.552-.863-2.73-1.576-.601 1.05 1.403.033 3.911 1.566 3.85 1.083z" style="fill:#1a1626"/><path d="M42.727 48.39s-5.168-4.679-10.423-.714c-6.052 2.332-11.935 5.638-15.363 8.339-2.32 1.83-.008 5.625 3.202 5.92 2.574.236 9.5-.122 20.043-1.85 0 0-.683-2.502-3.584-3.885 5.786-.372 9.33-1.5 6.125-7.81z" style="fill:#2b4f87"/><path d="M43.61 53.776c-4.167 3.631-13.094 1.453-17.936 3.347 5.77-.544 16.107.553 17.937-3.347z" style="fill:#2a4178"/><path d="M43.725 50.52s-5.013-3.758-11.42-2.844c.322-9.482-.808-14.059 3.006-19.809 1.064 1.854 2.738-1.025 6.03-2.275 4.676 4.75-.102 14.018 2.384 24.929z" style="fill:#3ab0a2"/><path d="M38.93 42.193c.225-.59 1.655-2.336 1.97-3.858l-4.79-.478s-.322.923-1.228 3.306c-1.792 2.375-3.788 5.16-6.347 7.585-.168.16-2.426.655-2.821.859-.49.253-1.568.775-1.627 1.345-.677 1.219 1.824.41 3.67.372 1.923-.039 2.728-.547 2.874-.866.858-1.871 7.905-7.227 8.299-8.265z" style="fill:#ffc940"/><path d="M26.252 49.775c-1.884.257-2.165 1.177-2.165 1.177s.44-.717 2.165-1.177zm.466.644c-2.994.467-2.631 1.09-2.631 1.09s0-.557 2.63-1.09z" style="fill:#f0a429"/><path d="M41.27 38.85s1.46-4.665 1.87-8.73c.322-3.182-4.977-3.896-5.416-.71-.61 4.43-1.777 8.63-1.777 8.63 1.774.118 3.56.392 5.323.81z" style="fill:#25a898"/><path d="M28.21 15.99c-.078.957-.366 3.056.627 4.076.444.457.193 1.884-.295 2.839-.212.414-.187.871.062 1.071.383.306.8-.034 1.088.198.468.379.136.784.192.989 0 0 1.257-.116.85 1.147.155.09.403-.032.46.892.038.61.815 1.257 1.506.883 4.364-2.36 5.699-3.549 5.259-6.868-.706-5.322-1.013-11.239-9.75-5.227z" style="fill:#ffc940"/><path d="M29.884 25.163c.073.595 1.314.731 1.943-.095-1.195.534-1.652-.104-1.943.095z" style="fill:#f0a429"/><path d="M30.559 25.644c-.229.28-.13.582.176.666.509-.275 1.005-.593 1.092-1.241-.534.498-1.268.575-1.268.575zm-2.063-1.794c.29.645 2.347.406 1.987-.584-.006 1.02-2.176.165-1.987.584z" style="fill:#f0a429"/><path d="M30.977 19.076c-.611-.306-1.585-.41-2.308.187-.104.086.174.544.258.476.556-.455 1.213-.531 2.133-.275.107.03.039-.327-.083-.388z" style="fill:#bb7c0a"/><path d="M42.044 14.753c-.8-1.843-1.906-2.782-1.906-2.782-.812-1.702-2.918-2.65-7.593-1.397-4.833 1.295-6.137 4.405-4.377 5.89.186.158 2.85-.19 4.419-1.348 0 0 .304.97.252 2.377-.032.868 1.586.916 2.1 2.019.881 1.889 1.586.582 2.559-.093 2.213-1.2 2.28 3.24 3.126 3.807 1.175-1.31 3.255-4.25 1.42-8.473z" style="fill:#ffb80d"/><path d="M41.295 21.563c.592-1.521.226-3.189.226-3.189s-.136 2.357-1.1 3.504c.489-2.055-.259-3.15-.259-3.15s.291.972-.157 2.575c-.426-1.026-1.328-3.441-1.78-2.08 2.205 1.255 1.077 5.475 2.4 4.003.949-1.058 2.49-3.182 2.077-6.187 0 0 .22 2.498-1.407 4.524zm-7.07-7.196-.667.362s-.096 1.358 1.471 3.212c-1.29-2.264-.804-3.574-.804-3.574zm2.001-1.174-.602.294s.003 1.656 1.948 3.297c-1.699-2.068-1.346-3.591-1.346-3.591zm1.219-.586.517-.184s.908.283 1.502 2.193c-.989-1.7-2.02-2.01-2.02-2.01zm-.684.146s-2.422.561-5.662-.788c2.884 1.75 4.825 1.272 4.825 1.272l.837-.484zm-2.764 1.532s-3.166.498-5.81-.536c2.243 1.52 4.815 1.115 4.815 1.115l.995-.58zm4.483-2.15-.384.162s-.555-.781-2.27-1.395c1.788.205 2.654 1.233 2.654 1.233z" style="fill:#f9a307"/><path d="M37.078 22.117c.17.056 1.007-.01 1.206-.876.111-.48.695-1.101.585-1.955-.137-1.095-3.006 2.433-1.79 2.831z" style="fill:#f0a429"/><path d="M36.728 17.842c-1.31.652-.919 3.868.296 4.266.171.056.954-.063 1.152-.929.112-.48.795-1.119.685-1.972-.137-1.095-.83-2.014-2.133-1.365z" style="fill:#ffc940"/><path d="M40.138 11.971c-4.961.733-7.83 4.982-11.97 4.494 4.12-.165 7.98-4.883 11.97-4.494z" style="fill:#f9a307"/><path d="M33.387 13.905s-1.835.042-4.283-.968c2.254 1.809 4.283.968 4.283.968zm5.687-1.512s.828.823 1.824 2.178c-.369-2.032-1.824-2.178-1.824-2.178zm-2.842 5.072s-.965-1.12-1.23-3.153c-.599 2.315 1.23 3.153 1.23 3.153zm.951-4.232s.305 1.367 1.591 2.932c-.26-2.13-1.59-2.932-1.59-2.932zm-.291-1.082s-1.71-.724-3.716-.685c1.98.95 3.716.685 3.716.685zm.018-1.539s1.005.411 2.03.94c-.518-1.011-2.03-.94-2.03-.94zm-5.432 4.631s-1.614.354-4.019-.318c2.424 1.56 4.019.318 4.019.318z" style="fill:#ffca25"/><path d="M36.894 18.399c-.317.223-.526.729-.439 1.384.543-.317.916.847.465 1.217.078.127.163.255.262.384.27-.697.901-.735 1.051-1.665.137-.84-.549-1.874-1.339-1.32z" style="fill:#f0a429"/><path d="M29.561 20.979c.933 1.3 1.561-.08 2.013-.836-.964.655-1.032 1.132-2.013.836z" style="fill:#45332c"/></svg>