<svg xmlns="http://www.w3.org/2000/svg" xml:space="preserve" viewBox="0 0 64 64"><path fill="#F9B700" d="M22.234 22.134c7.654-.298 6.747-9.169 0-9.768v9.768z"/><linearGradient id="a" x1="-232" x2="-172" y1="304.927" y2="304.927" gradientTransform="matrix(1 0 0 -1 234 345)" gradientUnits="userSpaceOnUse"><stop offset="0" style="stop-color:#ffc800"/><stop offset=".167" style="stop-color:#fec200"/><stop offset="1" style="stop-color:#f9a600"/></linearGradient><path fill="url(#a)" d="m2 29.908 60-11.761v33.688L2 62v-9.668c6.241 0 6.747-12.357 0-12.357V29.908z"/><linearGradient id="b" x1="-232" x2="-172" y1="326.023" y2="326.023" gradientTransform="matrix(1 0 0 -1 234 345)" gradientUnits="userSpaceOnUse"><stop offset="0" style="stop-color:#ffe12c"/><stop offset=".459" style="stop-color:#ffdf2c"/><stop offset=".725" style="stop-color:#ffd62c"/><stop offset=".941" style="stop-color:#ffc82c"/><stop offset="1" style="stop-color:#ffc32c"/></linearGradient><path fill="url(#b)" d="M2 29.908c0-.897 14.396-12.159 14.396-12.159 5.438 3.089 10.975-1.494 5.838-5.382l5.135-4.085c2.113 0 19.833-2.892 34.631 9.865 0 .1-60 12.658-60 11.761z"/><linearGradient id="c" x1="36.886" x2="35.141" y1="15.494" y2="10.701" gradientUnits="userSpaceOnUse"><stop offset="0" style="stop-color:#d99025"/><stop offset=".219" style="stop-color:#db9425"/><stop offset=".443" style="stop-color:#e1a026"/><stop offset=".669" style="stop-color:#eab528"/><stop offset=".896" style="stop-color:#f8d12b"/><stop offset="1" style="stop-color:#ffe12c"/></linearGradient><path fill="url(#c)" d="M42.471 13.462c-3.521-5.38-12.583-2.492-11.778 2.393l11.778-2.393z"/><path fill="#D99025" d="M42.471 13.462c-2.92-1.993-9.764-2.092-11.778 2.393 1.308 5.582 13.287 2.691 11.778-2.393z"/><linearGradient id="d" x1="27.207" x2="24.964" y1="45.145" y2="38.981" gradientUnits="userSpaceOnUse"><stop offset="0" style="stop-color:#ffe12c"/><stop offset=".02" style="stop-color:#fddd2b"/><stop offset=".217" style="stop-color:#efb81d"/><stop offset=".416" style="stop-color:#e39c13"/><stop offset=".613" style="stop-color:#db870c"/><stop offset=".809" style="stop-color:#d67b07"/><stop offset="1" style="stop-color:#d47706"/></linearGradient><path fill="url(#d)" d="M19.115 41.67c4.329 8.072 13.388 2.689 11.878-4.884L19.115 41.67z"/><path fill="#D47706" d="M19.115 41.67c3.221 2.889 10.368 2.393 11.878-4.884-2.012-8.772-14.093-2.989-11.878 4.884z"/><linearGradient id="e" x1="54.094" x2="51.703" y1="39.619" y2="33.05" gradientUnits="userSpaceOnUse"><stop offset="0" style="stop-color:#ffe12c"/><stop offset=".02" style="stop-color:#fddd2b"/><stop offset=".217" style="stop-color:#efb81d"/><stop offset=".416" style="stop-color:#e39c13"/><stop offset=".613" style="stop-color:#db870c"/><stop offset=".809" style="stop-color:#d67b07"/><stop offset="1" style="stop-color:#d47706"/></linearGradient><path fill="url(#e)" d="M45.893 36.287c5.236 7.875 14.197 2.092 11.982-5.482l-11.982 5.482z"/><path fill="#D47706" d="M45.893 36.287c3.625 2.691 10.977 1.896 11.982-5.482-3.021-8.671-15.002-2.291-11.982 5.482z"/><linearGradient id="f" x1="43.74" x2="41.837" y1="53.112" y2="47.883" gradientUnits="userSpaceOnUse"><stop offset="0" style="stop-color:#ffe12c"/><stop offset=".02" style="stop-color:#fddd2b"/><stop offset=".217" style="stop-color:#efb81d"/><stop offset=".416" style="stop-color:#e39c13"/><stop offset=".613" style="stop-color:#db870c"/><stop offset=".809" style="stop-color:#d67b07"/><stop offset="1" style="stop-color:#d47706"/></linearGradient><path fill="url(#f)" d="M47.1 46.453c.809 7.872-7.852 9.27-10.367 3.289L47.1 46.453z"/><path fill="#D47706" d="M47.1 46.453c-.904 3.787-5.938 7.375-10.367 3.289-2.618-7.076 8.253-9.867 10.367-3.289z"/><linearGradient id="g" x1="17.516" x2="16.003" y1="56.138" y2="51.982" gradientUnits="userSpaceOnUse"><stop offset="0" style="stop-color:#ffe12c"/><stop offset=".02" style="stop-color:#fddd2b"/><stop offset=".217" style="stop-color:#efb81d"/><stop offset=".416" style="stop-color:#e39c13"/><stop offset=".613" style="stop-color:#db870c"/><stop offset=".809" style="stop-color:#d67b07"/><stop offset="1" style="stop-color:#d47706"/></linearGradient><path fill="url(#g)" d="M19.416 50.739c1.713 5.081-3.725 7.475-6.241 4.085l6.241-4.085z"/><path fill="#D47706" d="M19.416 50.739c0 2.589-2.717 5.88-6.241 4.085-2.918-4.183 3.826-8.071 6.241-4.085z"/><linearGradient id="h" x1="17.76" x2="16.706" y1="23.795" y2="20.899" gradientUnits="userSpaceOnUse"><stop offset="0" style="stop-color:#d99025"/><stop offset=".219" style="stop-color:#db9425"/><stop offset=".443" style="stop-color:#e1a026"/><stop offset=".669" style="stop-color:#eab528"/><stop offset=".896" style="stop-color:#f8d12b"/><stop offset="1" style="stop-color:#ffe12c"/></linearGradient><path fill="url(#h)" d="M21.229 22.533c-2.315-3.089-7.952-1.396-7.349 1.396l7.349-1.396z"/><path fill="#D99025" d="M21.229 22.533c-1.813-1.195-6.141-1.195-7.349 1.396.907 3.289 8.354 1.594 7.349-1.396z"/></svg>