<svg xmlns="http://www.w3.org/2000/svg" xml:space="preserve" style="enable-background:new 0 0 64 64" viewBox="0 0 64 64"><linearGradient id="a" x1="32" x2="32" y1="58.471" y2="25.147" gradientUnits="userSpaceOnUse"><stop offset=".211" style="stop-color:#323940"/><stop offset=".272" style="stop-color:#343c43"/><stop offset=".627" style="stop-color:#3f464e"/><stop offset="1" style="stop-color:#424a52"/></linearGradient><path d="M62 25.147c-8.074 8.922-20.783 8.976-30 8.97-9.217.006-21.924-.048-30-8.97 0 16.412 16.28 21.006 9.486 30.965-2.146 3.146 43.176 3.146 41.03 0C45.723 46.151 62 41.558 62 25.146z" style="fill:url(#a)"/><linearGradient id="b" x1="32.001" x2="32.001" y1="60.34" y2="26.953" gradientUnits="userSpaceOnUse"><stop offset=".42" style="stop-color:#b3000a"/><stop offset=".469" style="stop-color:#c00008"/><stop offset=".601" style="stop-color:#db0005"/><stop offset=".733" style="stop-color:#ef0002"/><stop offset=".866" style="stop-color:#fb0001"/><stop offset="1" style="stop-color:red"/></linearGradient><path d="M32 33.97c-9.217.007-19.984-.515-28-7.017C4 36.68 27.28 48.022 20.486 57.98c-2.146 3.148 25.174 3.148 23.028 0-6.793-9.957 16.488-21.3 16.488-31.026-8.016 6.502-18.785 7.024-28.002 7.018z" style="fill:url(#b)"/><linearGradient id="c" x1="32" x2="32" y1="62.147" y2="48.285" gradientUnits="userSpaceOnUse"><stop offset="0" style="stop-color:#424a52"/><stop offset="1" style="stop-color:#323940"/></linearGradient><path d="M11.432 52.864c2.502-1.288 12.854-4.543 12.854-4.543l15.407-.036s10.446 3.284 12.932 4.577C56.24 54.734 57 57.29 57 59.706c0 3.254-50 3.254-50 0 0-2.419.807-4.975 4.432-6.842z" style="fill:url(#c)"/><path d="M24.383 46.784h15.311L36.16 60h-8.31z" style="fill:#e6ebef"/><path d="m41.533 45.849-1.683.248S34.793 53.134 32 58.842c-2.793-5.708-7.85-12.745-7.85-12.745l-1.683-.248S25.894 59.589 29.59 62h4.818c3.697-2.41 7.124-16.151 7.124-16.151z" style="fill:#ba0009"/><path d="m40.226 45.044.12 2.188-2.515 7.385-5.827-4.63 8.222-4.943zm-16.444 0-.118 2.188 2.514 7.385 5.826-4.63-8.222-4.943z" style="fill:#f5f5f5"/><path d="M39.07 61.911s3.106-3.595 4.993-7.126l-2.555-3.505 5.181-2.431s-3.463-2.597-6.965-3.752c0 0-1.896 10.678-5.315 16.903l4.66-.089zm-14.14 0s-3.108-3.595-4.992-7.126l2.554-3.505-5.181-2.431s3.464-2.597 6.965-3.752c0 0 1.896 10.678 5.315 16.903l-4.66-.089z" style="fill:#4c555e"/><path d="M49 41.306s3.314-19.238-4.682-28.31c-11.27.336-5.117 29.882-5.117 29.882L49 41.306zM18.922 12.995C10.926 22.068 15 41.305 15 41.305l9.8 1.573s5.393-29.546-5.878-29.883z" style="fill:#2a3036"/><path d="M48.086 25.877c-2.491.305-4.29 8.64-2.722 10.842.216.305 1.503.795 2.454-1.145.528-1.079 2.045-1.971 2.521-4.194.603-2.841.23-5.8-2.253-5.503zm-32.171 0c2.491.305 4.291 8.64 2.722 10.842-.216.305-1.502.795-2.454-1.145-.528-1.079-2.045-1.971-2.521-4.194-.603-2.841-.223-5.8 2.253-5.503z" style="fill:#735c48"/><path d="M48.02 27.476c-.648.208-1.362 1.197-1.741 2.84 2.268-.49 1.703 3.294-.268 3.369.015.379.045.773.09 1.182.951-1.383 1.918-.825 2.877-2.885.856-1.852.655-5.012-.959-4.506zm-30.298 2.833c-.386-1.644-1.093-2.633-1.74-2.833-1.606-.506-1.814 2.654-.952 4.506.96 2.052 1.926 1.502 2.878 2.885.045-.416.075-.803.09-1.19-1.956-.089-2.514-3.822-.276-3.368z" style="fill:#4a3728"/><path d="M32 9.844c-10.79 0-15.988 8.79-15.341 20.086.134 2.268.766 5.547 1.547 8.358C19.819 44.125 26.959 50 32 50s12.174-5.875 13.795-11.712c.78-2.811 1.413-6.083 1.547-8.358C47.989 18.634 42.79 9.844 32 9.844z" style="fill:#735c48"/><path d="M43.728 25.044c-2.469-1.309-7.191-1.368-8.946-.461-.38.178-.126 1.413.186 1.294 2.454-.967 6.41-.99 8.7.082.306.148.432-.73.06-.915zm-23.455 0c2.469-1.309 7.191-1.368 8.954-.461.38.178.126 1.413-.186 1.294-2.454-.967-6.403-.99-8.701.082-.312.148-.439-.73-.067-.915z" style="fill:#1a1626"/><path d="M34.916 36.384c-.305-.216-1.034.12-2.915.12-1.882 0-2.603-.335-2.915-.12-.372.26.215 1.435 2.915 1.435 2.692 0 3.28-1.175 2.915-1.435z" style="fill:#4a3728"/><path d="M32 40.831c-2.424-.714-6.023.342-6.023.342 1.368 1.495 2.372 3.428 6.024 3.428 4.179 0 4.893-2.193 6.023-3.428 0-.007-3.599-1.063-6.023-.342z" style="fill:#1a1626"/><path d="M26.884 41.419c2.544 2.134 7.682 2.149 10.24 0-2.714.119-7.51.119-10.24 0zm2.715-11.921c.089.714-.395 1.562-1.733 2.194-.855.402-2.625.877-4.96-.104-1.041-.439-2.06-1.815-1.971-2.573 1.264-2.38 7.481-2.73 8.664.483z" style="fill:#fff"/><linearGradient id="d" x1="-1210.466" x2="-1210.466" y1="172.757" y2="172.014" gradientTransform="translate(7978.266 -1103.139) scale(6.5701)" gradientUnits="userSpaceOnUse"><stop offset="0" style="stop-color:#c20606"/><stop offset="1" style="stop-color:#5e0000"/></linearGradient><path d="M25.382 27.007a2.447 2.447 0 0 1 2.447 2.44 2.447 2.447 0 0 1-4.893 0 2.442 2.442 0 0 1 2.446-2.44z" style="fill:url(#d)"/><path d="M24.162 29.409c0 1.688 2.447 1.688 2.447 0-.007-1.57-2.447-1.57-2.447 0z" style="fill:#1a1626"/><path d="M23.79 28.725c0 .706 1.027.706 1.027 0-.008-.662-1.026-.662-1.026 0z" style="fill:#ab968c"/><path d="M29.613 29.595c-.989-3.19-7.756-2.714-8.678-.573.342-2.751 7.83-3.473 8.678.573z" style="fill:#1a1626"/><path d="M34.403 29.498c-.09.714.394 1.562 1.732 2.194.856.402 2.626.877 4.96-.104 1.05-.439 2.06-1.815 1.971-2.573-1.264-2.38-7.48-2.73-8.663.483z" style="fill:#fff"/><linearGradient id="e" x1="-1211.158" x2="-1211.158" y1="172.757" y2="172.014" gradientTransform="translate(7995.996 -1103.139) scale(6.5701)" gradientUnits="userSpaceOnUse"><stop offset="0" style="stop-color:#c20606"/><stop offset="1" style="stop-color:#5e0000"/></linearGradient><path d="M38.567 27.007a2.446 2.446 0 1 1 0 4.893 2.446 2.446 0 0 1 0-4.893z" style="fill:url(#e)"/><path d="M37.348 29.409c0 1.688 2.446 1.688 2.446 0-.007-1.57-2.446-1.57-2.446 0z" style="fill:#1a1626"/><path d="M36.976 28.725c0 .706 1.026.706 1.026 0-.008-.662-1.026-.662-1.026 0z" style="fill:#ab968c"/><path d="M34.388 29.595c.989-3.183 7.749-2.73 8.67-.573-.334-2.751-7.822-3.473-8.67.573z" style="fill:#1a1626"/><path d="m27.299 41.527.871 3.39.928-3.277zm9.402 0-.87 3.39-.929-3.277z" style="fill:#fff"/><linearGradient id="f" x1="32.001" x2="32.001" y1="31.818" y2="6" gradientUnits="userSpaceOnUse"><stop offset="0" style="stop-color:#323940"/><stop offset="1" style="stop-color:#424a52"/></linearGradient><path d="M32.166 6c-6.71 0-10.064 3.035-10.744 4.474-8.113 1.851-10.723 15.514-4.648 21.344.754-6.21 1.48-10.2 5.617-14.405 2.412 3.227 7.424 5.042 11.91 5.042a23.959 23.959 0 0 1-4.711-4.458c7.494 3.434 15.885 5.631 17.969 13.821C54.768 20.36 48.779 6 32.166 6z" style="fill:url(#f)"/><path d="M21.422 10.47c-.102 5.721 2.208 10 12.879 11.983-7.65.516-15.5-4.105-12.879-11.982z" style="fill:#2a3036"/><path d="M22.093 17.047c-2.786 2.746-5.913 7.504-5.32 14.77.553-6.006 3.312-10.95 5.811-14.153a5.586 5.586 0 0 1-.491-.617zm4.777-1.813c5.594 5.342 19.344 4.995 20.688 16.582-3.588-11.271-15.746-8.742-20.689-16.582z" style="fill:#2a3036"/></svg>