<svg xmlns="http://www.w3.org/2000/svg" xml:space="preserve" style="enable-background:new 0 0 64 64" viewBox="0 0 64 64"><path d="M14.247 42.745c1.397-3.02 8.44-3.971 8.44-3.971l18.583-.028s7.096.96 8.494 3.995c4.506 9.78-2.797 9.473-2.797 16.938 0 5.765-29.98 5.765-29.98 0 0-7.43-7.25-7.196-2.74-16.934z" style="fill:#ff7a00"/><path d="M22.687 38.774c0 7.308 18.584 7.281 18.584-.027l-1.863-.62H24.633l-1.946.647z" style="fill:#ed6a00"/><path d="M24.017 38.332c0 5.721 15.93 5.721 15.93 0v-6.33h-15.93v6.33z" style="fill:#4f6659"/><path d="M22.687 38.774c-2.978.28-6.027.75-6.027.75-6.098-1.242-8.785 1.549-12.62 5.258-2.368 2.29 2.849 10.42 5.708 8.859 2.348-1.283 12.94-14.867 12.94-14.867z" style="fill:#ff7a00"/><path d="M11.918 50.4c9.38-.907 10.478-3.077 6.394-8.056 5.625 10.014-6.923 3.281-6.394 8.057z" style="fill:#d15d00"/><path d="M17.914 49.053c-2.703 2.326-11.145.953-13.63-2.228-1.82-2.327 3.946-3.708 3.927-4.295-.057-1.754 9.928-.49 9.603 1.017-.25 1.156 2.867 3.125.1 5.506z" style="fill:#b04300"/><path d="M17.564 44.703c-5.637-4.42-12.715-.279-13.162 1.01C2.59 50.926-.695 52.914.131 53.985c1.209 1.564 1.619 3.5 2.103 4.62.268.62 1.518.626 1.52-.534.002-.946-.196-2.002-.07-2.088 1.824 2.654 1.378 4.23 1.833 4.748.532.601 2.543.668 1.967-2.373 0 0 .854 1.474 1.117 2.767.282 1.373 2.444 1.082 2.594-.521.13-1.377-.863-3.885-.863-3.885s.816 1.242 1.576 2.861c.422.903 1.602.233 1.846-1.252.308-1.879-1.448-5.588-1.38-6.072.167-1.152 1.2-.807 2.302-2.14 0 0-1.248 2.388-.084 4.63.767 1.479 2.396 1.008 2.203.022-.582-2.969 1.123-3.106 1.123-4.653 0-1.416.85-4.468-.354-5.412z" style="fill:#99b5a7"/><path d="M3.637 58.6c.156-2.219-1.293-4.54-1.164-4.89.193-.528.543-1.358 1.082-2.27.154.517-.735 1.867-.485 2.705.17.564 1.418 3.023.567 4.455zm3.679 1.908c.573-2.184-2.025-5.846-1.896-6.197.191-.528.824-2.2 1.201-3.91-.055 2.205-.516 3.048-.588 4.004-.066.902 2.455 4.25 1.283 6.103zm3.674.75c.572-2.186-1.453-5.875-1.559-6.238-.34-1.17-.345-3.196.032-4.905-.057 2.205.08 3.653.5 4.938.281.854 2.201 4.352 1.027 6.205z" style="fill:#4f6659"/><path d="M41.312 38.774c2.98.28 6.027.75 6.027.75 6.098-1.242 8.786 1.549 12.62 5.258 2.369 2.29-2.848 10.42-5.707 8.859-2.348-1.283-12.94-14.867-12.94-14.867z" style="fill:#ff7a00"/><path d="M52.082 50.4c-9.381-.907-10.477-3.077-6.395-8.056-5.625 10.014 6.924 3.281 6.395 8.057z" style="fill:#d15d00"/><path d="M46.086 49.053c2.705 2.326 11.144.953 13.632-2.228 1.817-2.327-3.949-3.708-3.93-4.295.057-1.754-9.925-.49-9.6 1.017.247 1.156-2.87 3.125-.102 5.506z" style="fill:#b04300"/><path d="M46.435 44.703c5.637-4.42 12.715-.279 13.164 1.01 1.81 5.213 5.098 7.201 4.27 8.272-1.21 1.564-1.62 3.5-2.104 4.62-.267.62-1.515.626-1.52-.534-.001-.946.198-2.002.07-2.088-1.823 2.654-1.378 4.23-1.833 4.748-.531.601-2.541.668-1.967-2.373 0 0-.853 1.474-1.117 2.767-.28 1.373-2.443 1.082-2.594-.521-.129-1.377.865-3.885.865-3.885s-.818 1.242-1.576 2.861c-.424.903-1.601.233-1.845-1.252-.311-1.879 1.445-5.588 1.377-6.072-.166-1.152-1.2-.807-2.3-2.14 0 0 1.247 2.388.083 4.63-.768 1.479-2.397 1.008-2.203.022.582-2.969-1.123-3.106-1.123-4.653 0-1.416-.85-4.468.353-5.412z" style="fill:#99b5a7"/><path d="M60.363 58.6c-.156-2.219 1.293-4.54 1.164-4.89a13.925 13.925 0 0 0-1.082-2.27c-.154.517.734 1.867.484 2.705-.17.564-1.418 3.023-.566 4.455zm-3.68 1.908c-.572-2.184 2.026-5.846 1.897-6.197-.192-.528-.824-2.2-1.201-3.91.054 2.205.517 3.048.587 4.004.067.902-2.455 4.25-1.283 6.103zm-3.673.75c-.573-2.186 1.453-5.875 1.558-6.238.34-1.17.348-3.196-.03-4.905.055 2.205-.08 3.653-.501 4.938-.28.854-2.2 4.352-1.028 6.205z" style="fill:#4f6659"/><path d="M11.053 39.95c1.142-.102 2.806.066 3.289-.475-.276-.828.214-1.342.214-1.342s-3.556.262-3.503 1.817z" style="fill:#ff7a00"/><path d="M11.353 40.057c-1.037.45-2.37 1.373-3.09 1.137-.228-.84-.939-1.051-.939-1.051s3.197-1.445 4.03-.086z" style="fill:#ff7a00"/><path d="M12.463 39.717c-1.037.45-1.53.836-2.248.598-.229-.84-.002-1.848-.002-1.848s1.42-.11 2.25 1.25z" style="fill:#ed6a00"/><path d="M14.635 39.475c-1.305.2-1.684 1.768-4.846 2.398-1.178.165-1.633-.685-1.633-.685s3.197-2.233 6.479-1.713z" style="fill:#4f6659"/><path d="M14.851 39.475c-1.306.2-1.535 1.117-3.127 1.772-.474-.725-2.115-.602-2.115-.602s1.961-1.69 5.242-1.17z" style="fill:#99b5a7"/><path d="M12.254 41.688c-1.037.449-3.14 1.135-4.037.588-.229-.84-1.442-1.135-1.442-1.135s4.649-.813 5.479.547zm29.15 12.207c-.951 1.072-.592 3.16.068 3.472.95-.86 3.2-.181 3.2-.181s-1.547-3.578-3.268-3.291zm-.902.517c-.623-1.132-2.467-2.088-2.288-3.228 2.223-.205 2.215-2.568 2.215-2.568s2.297 3.068.073 5.796z" style="fill:#ed6a00"/><path d="M39.052 52.186c-.36.64-2.527.564-3.3-.856.226-1.215-.3-2.863-.3-2.863s2.636-.01 3.6 3.719z" style="fill:#d15d00"/><path d="M37.39 56.186c-1-1.399-2.96-.223-4.232-2.059 1.088-.762 2.594-2.797 2.594-2.797s2.576 2.809 1.638 4.856z" style="fill:#ed6a00"/><path d="M41.472 57.367c-1.515-.12-1.896 1.405-3.582 2.073.327-1.479-.5-3.254-.5-3.254s4.088-2.428 4.082 1.181zm-1.504-4.455c.248 1.504.684 2.225 1.344 2.54.89-.917 3.016-1.93 3.016-1.93s-2.631-1.688-4.36-.61z" style="fill:#d15d00"/><path d="M41.369 56.506c-1.992-1.353-3.887-.426-3.887-.426s.154-1.732-1.504-4.504c1.287.553 3.074.61 3.074.61s2.688 1.195 2.317 4.32z" style="fill:#4f6659"/><path d="M41.369 56.506c-1.992-1.353-3.979-.32-3.979-.32s-.117-1.899-1.113-4.084c2.035 1.615 4.02.084 5.092 4.404z" style="fill:#99b5a7"/><path d="M26.084 54.143c-2.067 2.17-1.94 3.597.06 3.767 2 .168 1.327-5.22-.06-3.767z" style="fill:#ed6a00"/><path d="M27.12 56.432c-1.3.467-1.337 2.482.042 2.6 1.38.115 2.553-3.53-.041-2.6zm-5.429-1.01c-.738-.598-.918 1.7.03 1.781.945.078 2.398.186-.03-1.78z" style="fill:#ed6a00"/><path d="M24.07 58.188c-.994.607-.627 1.16.02 1.214.644.055.533-1.55-.02-1.214zm-4.351-6.086c.792-.078 3.097-1.15.724-2.951-.635-.48-1.52 3.029-.724 2.95z" style="fill:#d15d00"/><path d="M40.078 46.823c.639-.305 1.703-.875-.264-1.303-.691-.15-2.564 2.65.264 1.303z" style="fill:#ed6a00"/><path d="M51.794 45.512c.704-.07 3.573-.268 2.938-.582-2.094-1.037-3.643.652-2.938.582zm1.717 1.098c-.842.547 3.13 1.662 3.563.754.17-.356-1.719-1.953-3.563-.754z" style="fill:#6b8a79"/><path d="M28.156 48.17c1.06-.002-.541-2-3.219-2-1.062 0-.322 2.004 3.22 2z" style="fill:#ed6a00"/><path d="M9.992 46.203c-.496 1.32 2.984 1.38 3.482.059.499-1.32-2.982-1.379-3.482-.059zm.592 2.299c-.236.625 1.41.65 1.646.028.235-.625-1.41-.653-1.646-.028zm2.791-.857c-.162.426.963.443 1.123.017.162-.425-.963-.445-1.123-.017z" style="fill:#6b8a79"/><path d="M39.319 5.282c1.922-1.433 5.867.458 7.322.299-.878 1.672-3.883 3.773-7.322-.299zM16.75 25.21s.463 4.475-.675 7.489c1.6-.173 2.014-.98 2.014-.98s-.056 2.097-.87 3.566c1.504.248 2.428-.497 2.428-.497s0 1.587.117 2.676c4.38-1.13 4.118-6.227 4.118-6.227l-7.131-6.028zm30.828 7.489c-1.138-3.021-.676-7.49-.676-7.49l-7.124 6.028s-.262 5.096 4.117 6.227c.118-1.09.118-2.676.118-2.676s.924.745 2.427.497c-.82-1.462-.869-3.566-.869-3.566s.407.807 2.007.98zM22.209 9.942l.021-3.873c-4.53.14-9.62 5.162-8.965 13.443 1.594-6.649 8.944-9.57 8.944-9.57z" style="fill:#1a1626"/><path d="m41.103 2.905-.627 5.866s7.65 4.132 10.186 13.224c.691-10.75-4.834-16.951-9.559-19.09zm-23.385 8.258c-3.308 2.4-5.328 10.458-3.671 16.806.689-5.144 4.003-7.084 4.003-7.084l-.332-9.722z" style="fill:#1a1626"/><path d="M46.896 19.631c-2.308.281-3.976 8.014-2.525 10.055.203.285 1.394.74 2.277-1.06.488-.999 1.899-1.83 2.336-3.89.559-2.634.211-5.384-2.088-5.105zm-29.838 0c2.31.281 3.977 8.014 2.524 10.055-.203.285-1.393.74-2.276-1.06-.488-.999-1.898-1.83-2.336-3.89-.56-2.634-.21-5.384 2.088-5.105z" style="fill:#99b5a7"/><path d="M46.834 21.113c-.602.19-1.26 1.11-1.618 2.633 2.108-.45 1.58 3.057-.25 3.123.016.352.042.717.085 1.1.882-1.283 1.777-.768 2.666-2.674.798-1.719.609-4.65-.883-4.182zm-28.098 2.629c-.355-1.521-1.012-2.44-1.615-2.629-1.492-.468-1.684 2.463-.883 4.182.887 1.906 1.783 1.39 2.666 2.674.045-.385.068-.748.084-1.102-1.813-.085-2.33-3.552-.252-3.125z" style="fill:#6b8a79"/><path d="M31.976 4.76c-10.008 0-14.828 8.15-14.224 18.629.123 2.107.709 5.146 1.431 7.75 1.502 5.412 9.422 10.863 12.793 10.863 3.373 0 11.291-5.451 12.793-10.863.725-2.604 1.31-5.643 1.434-7.75C46.804 12.91 41.986 4.76 31.976 4.76z" style="fill:#99b5a7"/><linearGradient id="a" x1="27.15" x2="48.7" y1="2.473" y2="17.956" gradientUnits="userSpaceOnUse"><stop offset="0" style="stop-color:#1a1626"/><stop offset=".741" style="stop-color:#302c3b"/></linearGradient><path d="M31.978 1.197c-6.09 0-9.13 2.84-9.752 4.188 4.856 12.137 20.403 5.282 23.718 19.977 6.544-10.727 1.11-24.165-13.966-24.165z" style="fill:url(#a)"/><linearGradient id="b" x1="14.979" x2="23.12" y1="15.37" y2="15.37" gradientUnits="userSpaceOnUse"><stop offset="0" style="stop-color:#1a1626"/><stop offset=".741" style="stop-color:#302c3b"/></linearGradient><path d="M22.227 5.385c-7.36 1.732-9.731 14.517-4.221 19.97.683-5.815 1.345-9.549 5.096-13.482 0 0 .221-3.457-.875-6.488z" style="fill:url(#b)"/><linearGradient id="c" x1="21.613" x2="33.014" y1="8.403" y2="18.791" gradientUnits="userSpaceOnUse"><stop offset="0" style="stop-color:#1a1626"/><stop offset=".741" style="stop-color:#302c3b"/></linearGradient><path d="M22.227 5.385c-3.995 9.985 7.613 11.21 11.69 11.21-7.325-5.226-11.69-11.21-11.69-11.21z" style="fill:url(#c)"/><path d="M35.76 2.38C34.49.345 30.126.68 28.828.001c.213 1.877 2.25 4.925 6.932 2.377z" style="fill:#1a1626"/><path d="M30.378 1.415s8.131 1.441 15.22 6.954c-1.654.292-1.795 1.629-1.795 1.629s-2.34-1.802-5.092-.36c0 0-1.116-3.494-4.638-1.672 0 0 .098-3.335-3.065-3.145 0 0 .364-1.766-.63-3.406z" style="opacity:.2;fill:#1a1626"/><path d="M30.113 1.091s2.016.395 2.374-1.093c0 0 1.78 1.215 4.5.08 0 0 .666 1.776 3.003 1.09 0 0 1.834 1.431 3.752 1.62 0 0-.026 2.321 1.705 2.649-.45.832-.227 2.511.666 2.886-2.048.066-2.4 1.354-2.4 1.354S41.58 7.84 38.829 9.28c0 0-.967-3.597-4.49-1.775 0 0 .073-3.104-3.09-2.915 0 0 .266-1.953-1.136-3.5z" style="fill:#eb6e7e"/><path d="M31.535 4.408s.62-.732 1.086-.77l-.004-.215c-.834.14-1.082.985-1.082.985zm.038-.514s.619-.733 1.086-.771l-.004-.215c-.834.14-1.082.986-1.082.986zm-1.088-2.64s.97.27 1.161.652l.224-.078c-.415-.656-1.385-.574-1.385-.574z" style="fill:#d96470"/><path d="M30.615 1.46s.97.27 1.162.652L32 2.034c-.416-.656-1.386-.573-1.386-.573zm3.661 4.316s.951-.337 1.368-.15l.123-.186c-.787-.273-1.492.336-1.492.336zm-.832-1.133s.877-.475 1.324-.354l.086-.2c-.828-.15-1.41.554-1.41.554z" style="fill:#d96470"/><path d="M34.543 6.63s.585-.755 1.05-.81l-.014-.214c-.827.17-1.036 1.023-1.036 1.023z" style="fill:#d96470"/><path d="M35.334 6.772s.11-.91.49-1.159l-.127-.18c-.639.506-.363 1.34-.363 1.34zm3.379 1.358s.464-.818.917-.93l-.046-.21c-.795.27-.87 1.14-.87 1.14zm.98.601s-.02-.913-.374-1.184l.145-.172c.586.541.229 1.356.229 1.356zM38.052 7.04s-.02-.914-.374-1.185l.145-.172c.586.541.229 1.356.229 1.356zm3.952 1.384s-.02-.913-.374-1.184l.145-.172c.586.54.229 1.356.229 1.356zm2.548-.103s-.02-.913-.373-1.184l.144-.172c.586.541.229 1.356.229 1.356z" style="fill:#d96470"/><path d="M39.034 8.731s.407-.842.212-1.222l.21-.103c.28.713-.422 1.325-.422 1.325zm4.738.073s-.5-.79-.957-.877l.038-.212c.805.224.92 1.09.92 1.09zm1.544-.557s-.499-.791-.956-.878l.037-.212c.806.225.92 1.09.92 1.09z" style="fill:#d96470"/><path d="M43.325 9.258s-.084-.91-.458-1.16l.133-.18c.624.506.325 1.34.325 1.34z" style="fill:#d96470"/><path d="M31.126 1.573s1.36-1.575 3.83-.727c0 0 2.9-.9 4.39 1.016 0 0 3.28-.77 3.84 1.63 0 0 2.443 1.516 1.836 4.207-.488-.257-1.57.007-1.798.665-.862-.676-2.805-1.061-3.858-.534-.601-1.276-2.133-2.278-4.177-1.984-.467-1.37-1.782-2.079-3.124-2.053.06-1.224-.94-2.22-.94-2.22z" style="fill:#e892bd"/><path d="M42.704 5.057c.95-.638.483-1.566.483-1.566-.876 1.143-1.614-.319-3.417-.226.316-1.337-1.13-2.068-1.13-2.068 1.382 3.056-1.502 1.007-2.7.887C35.774.664 34.047.63 34.047.63c.248.14 1.286 1.245.815 1.203-1.088-.096-1.85.822-2.247 1.553-.138-1.002-.867-1.709-1.49-1.813 0 0 .999.997.939 2.221 1.343-.026 2.657.683 3.124 2.053 2.044-.294 3.576.708 4.177 1.984 1.053-.527 2.997-.142 3.858.534-.632-.915-.503-1.432-.068-1.844.238-.225 1.264-.098 1.793.62-.402-1.65-1.634-1.417-2.245-2.083zm-.437 1.117c-.095 1.296-3.578 1.071-1.51-.904-.512-.224-1.718-.189-2.217.676-.346-.779-1.846-.671-1.582-1.028 1.438-1.94 5.447-.637 5.31 1.256zm-6.653-1.392c-.576-1.252-2.506-1.27-2.17-1.524 1.36-1.024 5.144-.292 2.17 1.524z" style="fill:#d988b1"/><path d="M33.818.606s1.772.199 1.622 1.645l.305.063C35.96.457 33.818.606 33.818.606z" style="fill:#c2799e"/><path d="M33.078 3.082s1.934-1.63 4.275.26c-2.58-2.85-4.275-.26-4.275-.26zm3.91.734s-.736 1.368-2.073 1.443l.274.587c1.79-.454 1.799-2.03 1.799-2.03zm3.435 1.576s-1.612.16-1.65 1.589l.35.418c.007-1.3 1.3-2.007 1.3-2.007zm4.389 1.429s-.683-1.394-2.09-.969l-.193.498c1.137-.547 2.282.471 2.282.471zM37.844 3.98s1.603-.5 3.366.197c-1.957-1.586-3.366-.197-3.366-.197z" style="fill:#c2799e"/><path d="M41.844 4.478s1.15 1.352.247 2.834c1.746-1.794-.247-2.835-.247-2.835zM38.64 1.197s1.306.94.534 2.335l.19-.006c1.182-1.51-.724-2.33-.724-2.33z" style="fill:#c2799e"/><path d="M42.614 2.44s1.239 1.224-.381 2.448l.089.146c2.097-1.322.292-2.594.292-2.594zM34.47 1.325s.41-.058.888.145l.045-.164c-.554-.21-.933.02-.933.02zm3.616 1.795s.364.173.607.594l.145-.109c-.298-.466-.752-.486-.752-.486zm-5.267-.915s.391.116.71.495l.123-.129c-.381-.414-.833-.366-.833-.366zM36.18 3.38s.135-.352-.005-.81l.188-.011c.133.526-.184.821-.184.821zm.907 2.177s-.245-.297-.745-.451l.099-.145c.558.197.646.596.646.596zm3.217-.937s.103-.36-.079-.806l.187-.025c.18.514-.108.831-.108.831zm-.309 2.163s-.405-.07-.896.118l-.034-.166c.566-.192.93.048.93.048zm4.375-1.175s-.408.065-.792.4l-.099-.144c.453-.36.89-.256.89-.256zM40.506 2.41s-.41-.05-.888.162l-.044-.163c.553-.22.932 0 .932 0z" style="fill:#c2799e"/><path d="M39.564 32.016c.694.831 2.102-.636 1.406-1.469-.695-.83-2.101.636-1.406 1.469zm1.781.821c.329.393.995-.3.666-.695-.33-.393-.994.302-.666.695zm.518-1.601c.225.27.678-.203.453-.472-.223-.27-.678.206-.453.472z" style="fill:#6b8a79"/><path d="M34.95 28.293c-.314-.221-1.052.12-2.976.12-1.92 0-2.66-.341-2.974-.12-.377.269.222 1.477 2.974 1.477 2.754 0 3.356-1.209 2.977-1.477z" style="fill:#4f6659"/><path d="M43.96 17.138c-2.435-1.22-7.091-1.28-8.826-.43-.37.166-.126 1.324.186 1.212 2.42-.904 6.318-.926 8.582.079.3.128.428-.69.059-.86zm-23.966 0c2.434-1.22 7.09-1.28 8.826-.43.371.166.127 1.324-.186 1.212-2.421-.904-6.318-.926-8.583.079-.301.128-.426-.69-.057-.86z" style="fill:#302c3b"/><path d="M37.664 18.913c-5.213 1.62-2.051 9.039 3.162 7.418 5.213-1.62 2.05-9.037-3.162-7.418zm-11.371 0c-5.215-1.619-8.377 5.797-3.166 7.418 5.215 1.62 8.377-5.798 3.166-7.418z" style="fill:#6b8a79"/><path d="M21.326 22.07c0-3.033 6.973-3.033 6.973 0 0 4.042-6.973 4.042-6.973 0z" style="fill:#fcc7c3"/><path d="M24.88 24.475c-.036.146-.38.4-.396.302-.03-.171-.168-.517.153-.687-.436.186-.198.73-.188.78.006.032-.002.142-.008.215.022.002.041.004.063.004l-.004-.24s.34-.085.38-.374zm.776.439c.094-.03.1-.612-.367-.749.342.127.363.543.33.68-.018.074-.383-.115-.422-.23.041.226.404.285.404.285l-.004.13c.016-.002.032-.004.047-.008-.007-.05-.01-.1.012-.108zm.801-.77c.035.146-.149.533-.207.456-.106-.138-.39-.377-.186-.68-.299.372.166.739.197.776a.8.8 0 0 1 .067.133c.017-.006.035-.012.053-.02l-.084-.154s.26-.237.16-.511zm.75-.022c.066-.071-.211-.596-.686-.5.362-.047.58.316.62.453.019.077-.393.077-.483-.008.146.181.494.067.494.067l.09.182.049-.04c-.043-.047-.108-.13-.084-.154zm.261-1.178c.133.124.2.637.09.598-.197-.068-.638-.117-.633-.559-.056.574.655.632.71.65.029.01.1.053.164.094l.04-.057-.197-.105s.106-.412-.174-.621zm.608-.516c.021-.124-.56-.468-.967-.02.324-.313.756-.096.875.018.065.066-.338.368-.475.346.25.083.52-.292.52-.292l.223.138c.006-.03.01-.06.013-.087-.068-.018-.197-.06-.19-.103zm-.496-.975c.162.044.441.434.334.452-.192.032-.576.188-.762-.177.203.495.81.227.863.217.045-.008.207.006.28.013l-.006-.075-.295.004s-.094-.384-.414-.434zm-3.453 3.076c-.04.114-.397.306-.412.23-.03-.134-.006-.546.328-.674-.453.14-.455.716-.365.746.023.008.017.069.007.124l.05.012-.005-.152s.354-.063.397-.286zm-.777-.981c.263.389-.098.693-.233.868-.074.099-.314-.397-.27-.584-.123.35.21.653.21.653l-.106.194.066.031c.032-.07.065-.146.084-.17.04-.049.633-.515.248-.992zm-.65.187c-.099.09-.495.152-.464.077.055-.134.318-.507.658-.517-.441-.02-.78.513-.728.57.02.02-.055.105-.102.158l.035.036.118-.19s.316.058.482-.134zm.144-1.218c.033.492-.561.521-.823.586-.144.036-.084-.53.088-.66-.363.216-.199.682-.199.682l-.346.138c.012.03.026.058.04.085.091-.047.265-.136.32-.15.074-.016 1.027-.037.92-.68zm-.637-.355c-.18.073-.625-.18-.53-.282.176-.186.77-.602 1.114-.31-.42-.437-1.23.19-1.229.34 0 .049-.142.13-.236.179l.002.095.281-.223s.262.388.598.2z" style="fill:#fc5a4e"/><linearGradient id="d" x1="25.014" x2="25.014" y1="24.09" y2="20.049" gradientUnits="userSpaceOnUse"><stop offset="0" style="stop-color:#a6694a"/><stop offset="1" style="stop-color:#4f2a1e"/></linearGradient><path d="M23.014 21.994c0 2.795 4 2.795 4 0 0-2.594-4-2.594-4 0z" style="fill:url(#d)"/><path d="M24.181 22.038c0 1.16 1.662 1.16 1.662 0 0-1.076-1.662-1.076-1.662 0z" style="fill:#1a1626"/><path d="M28.299 22.073v-.004c0-4.043-6.973-4.043-6.973 0v.004c1.4-1.068 5.72-.955 6.973 0z" style="fill:#4f6659"/><path d="M42.629 22.07c0-3.033-6.973-3.033-6.973 0 0 4.042 6.973 4.042 6.973 0z" style="fill:#fcc7c3"/><path d="M39.074 24.475c.037.146.38.4.396.302.03-.171.166-.517-.154-.687.438.186.197.73.188.78a1.94 1.94 0 0 0 .01.215c-.022.002-.042.004-.063.004l.004-.24s-.34-.085-.381-.374zm-.776.439c-.093-.03-.099-.612.368-.749-.344.127-.364.543-.332.68.02.074.384-.115.423-.23-.04.226-.404.285-.404.285l.004.13a.4.4 0 0 1-.047-.008c.008-.05.01-.1-.012-.108zm-.802-.77c-.035.146.15.533.209.456.105-.138.389-.377.185-.68.3.372-.168.739-.199.776-.013.02-.04.077-.066.133a.572.572 0 0 1-.053-.02l.086-.154s-.26-.237-.162-.511zm-.748-.022c-.067-.071.21-.596.685-.5-.361-.047-.582.316-.619.453-.021.077.393.077.483-.008-.147.181-.495.067-.495.067l-.091.182-.047-.04c.043-.047.107-.13.084-.154zm-.262-1.178c-.133.124-.201.637-.09.598.195-.068.639-.117.633-.559.055.574-.654.632-.71.65-.028.01-.1.053-.165.094-.012-.02-.027-.037-.039-.057l.197-.105s-.105-.412.174-.621zm-.607-.516c-.022-.124.56-.468.966-.02-.324-.313-.755-.096-.875.018-.064.066.336.368.475.346-.252.083-.52-.292-.52-.292l-.224.138-.012-.087c.069-.018.197-.06.19-.103zm.496-.975c-.164.044-.442.434-.334.452.191.032.576.188.762-.177-.204.495-.811.227-.866.217a1.784 1.784 0 0 0-.277.013l.006-.075.295.004s.093-.384.414-.434zm3.453 3.076c.039.114.394.306.412.23.03-.134.004-.546-.328-.674.453.14.455.716.363.746-.023.008-.017.069-.006.124l-.049.012.002-.152s-.351-.063-.394-.286zm.777-.981c-.264.389.098.693.233.868.074.099.312-.397.27-.584.122.35-.21.653-.21.653l.104.194-.065.031a1.323 1.323 0 0 0-.084-.17c-.039-.049-.633-.515-.248-.992zm.65.187c.098.09.493.152.463.077-.056-.134-.318-.507-.658-.517.442-.02.781.513.727.57-.018.02.056.105.103.158l-.035.036-.117-.19s-.316.058-.483-.134zm-.144-1.218c-.033.492.559.521.82.586.147.036.084-.53-.086-.66.364.216.198.682.198.682l.347.138-.039.085a2.846 2.846 0 0 0-.32-.15c-.076-.016-1.027-.037-.92-.68zm.637-.355c.18.073.625-.18.527-.282-.174-.186-.767-.602-1.113-.31.42-.437 1.232.19 1.23.34 0 .049.143.13.236.179l-.003.095-.28-.223s-.261.388-.597.2z" style="fill:#fc5a4e"/><linearGradient id="e" x1="-1825.916" x2="-1825.916" y1="24.09" y2="20.049" gradientTransform="matrix(-1 0 0 1 -1786.975 0)" gradientUnits="userSpaceOnUse"><stop offset="0" style="stop-color:#a6694a"/><stop offset="1" style="stop-color:#4f2a1e"/></linearGradient><path d="M40.941 21.994c0 2.795-4 2.795-4 0 0-2.594 4-2.594 4 0z" style="fill:url(#e)"/><path d="M39.773 22.038c0 1.16-1.662 1.16-1.662 0 0-1.076 1.662-1.076 1.662 0z" style="fill:#1a1626"/><path d="M35.656 22.073v-.004c0-4.043 6.973-4.043 6.973 0v.004c-1.352-1.52-5.018-2.39-6.973 0z" style="fill:#4f6659"/><path d="M21.588 32.703s.502-2.727 3.544-3.19c0 0-2.199 1.39-3.544 3.19z" style="fill:#6b8a79"/><path d="M21.755 32.487s.757-1.857 3.033-2.742c0 0-1.804 1.345-3.033 2.742z" style="fill:#fd7383"/><path d="M23.36 33.61s-.07-2.773 2.81-3.865c0 0-1.865 1.821-2.81 3.864z" style="fill:#6b8a79"/><path d="M23.479 33.363s.358-1.975 2.402-3.32c0 0-1.487 1.695-2.402 3.32z" style="fill:#fd7383"/><path d="M33.905 31.873c-.454.013-1.93.173-1.93.173s-1.464-.16-1.918-.173c-1.342-.05-3.462 1.5-3.812 3.091-.303 1.38 1.299 3.22 5.73 3.22 4.435 0 6.033-1.84 5.731-3.22-.347-1.59-2.459-3.138-3.801-3.09z" style="fill:#4f6659"/><path d="M31.974 32.406c-3.535 0-4.919 1.569-5.124 2.45-.252 1.08 2.3 2.156 5.124 2.155 2.776 0 5.372-1.075 5.13-2.155-.2-.882-1.595-2.45-5.13-2.45z" style="fill:#1a1626"/><path d="M31.976 35.421c-3.336-.393-3.914.83-3.914.83s1.518 1.425 3.914 1.425c2.395 0 3.913-1.434 3.913-1.434s-.577-1.214-3.913-.82z" style="fill:#fd9aa6"/><path d="M32.004 32.38v1.242c0 .3 1.63.286 1.63 0v-1.104s-.654-.137-1.63-.137zm3.262 1.243v-.652a7.789 7.789 0 0 0-1.631-.452v1.103c0 .3 1.631.286 1.631 0zm-6.54-.645v.644c0 .3 1.63.286 1.63 0v-1.1a7.81 7.81 0 0 0-1.63.456z" style="fill:#fff"/></svg>