<svg xmlns="http://www.w3.org/2000/svg" xml:space="preserve" style="enable-background:new 0 0 64 64" viewBox="0 0 64 64"><radialGradient id="a" cx="40.243" cy="25.244" r="14.811" gradientTransform="translate(-8.211)" gradientUnits="userSpaceOnUse"><stop offset="0" style="stop-color:#2e2319"/><stop offset=".615" style="stop-color:#46392e"/><stop offset="1" style="stop-color:#4f4236"/></radialGradient><path d="M35.866 24.857c7.734-3.093 6.961-12.373 6.961-12.373H21.174s-.774 9.28 6.959 12.373c0 0 1.547.387 3.867.387 2.32 0 3.866-.387 3.866-.387z" style="fill:url(#a)"/><linearGradient id="b" x1="31.994" x2="31.994" y1="56.671" y2="43.882" gradientUnits="userSpaceOnUse"><stop offset="0" style="stop-color:#35003d"/><stop offset=".152" style="stop-color:#470052"/><stop offset=".733" style="stop-color:#8a00a0"/><stop offset="1" style="stop-color:#a400bf"/></linearGradient><path d="M39.167 44.822h-14.34c-1.146 2.007-10.463-1.768-14.646-.768 0 0 17.49 12.588 22.07 12.617 4.58-.03 21.557-12.617 21.557-12.617-4.19-1-13.488 2.777-14.64.768z" style="fill:url(#b)"/><path d="M23 49.578c4.376 1.816 8.267 5.105 12.054 5.144 1.432-.514 3.072.93 4.59 1.25 1.71.36 4.36-.705 5.705.291 1.736-.517 2.38 1.459 1.197 1.887a.778.778 0 0 1-.396 1.115c.214.496-.203 1.021-.438 1.031.121.375-.176.79-.533.867-.342 2.27-7.39-1.013-9.256-1.437-.816-.186-1.42-.93-2.426-1.402l-10.095-.434c-1.397-5.385-.403-8.313-.403-8.313z" style="fill:#f3cca8"/><path d="M45.204 57.954c.461.442 1.602.627 1.817-.177-.371.224-.623.234-1.817.177zm-.177 1.446s1.351.32 1.591-.639c-.369.482-1.591.639-1.591.639zm-.235 1.123s1.08.254 1.342-.633c-.37.48-1.342.633-1.342.633zm-.439.762s1.088.302 1.305-.5c-.37.48-1.305.5-1.305.5z" style="fill:#deb38a"/><path d="M10.18 43.982c3.224-1.121 9.212 2.357 13.267 5.787 0 4.572.851 8.16.851 8.16-6.76-.074-11.625-3.918-15.113-6.338-2.93-2.03-2.746-6.305.996-7.61z" style="fill:#d428f0"/><path d="M40.997 49.578c-4.375 1.816-8.265 5.105-12.054 5.144-1.43-.514-3.07.93-4.588 1.25-1.711.36-4.362-.705-5.707.291-1.737-.517-2.381 1.459-1.197 1.887a.778.778 0 0 0 .396 1.115c-.215.496.203 1.021.438 1.031-.122.375.175.79.533.867.342 2.27 7.39-1.013 9.258-1.437.814-.186 1.417-.93 2.425-1.402l10.094-.434c1.397-5.385.402-8.313.402-8.313z" style="fill:#ffd8b4"/><path d="M18.792 57.954c-.46.442-1.601.627-1.816-.177.371.224.623.234 1.816.177zm.178 1.446s-1.352.32-1.592-.639c.37.482 1.592.639 1.592.639zm.234 1.123s-1.08.254-1.341-.633c.369.48 1.341.633 1.341.633zm.44.762s-1.088.302-1.305-.5c.37.48 1.305.5 1.305.5z" style="fill:#deb38a"/><path d="M53.816 43.982c-3.223-1.121-9.211 2.357-13.266 5.787 0 4.572-.85 8.16-.85 8.16 6.758-.074 11.623-3.918 15.112-6.338 2.93-2.03 2.746-6.305-.996-7.61z" style="fill:#d428f0"/><path d="M61.36 42.161c-.12-.025-1.267.036-1.267.036s1.082-.313 1.375-.41c.795-.258.549-1.08-.049-1.08-.889-.003-1.967.396-1.967.396s.008-1.197-.129-1.973c-.07-.424-1.152-.467-1.507-.717a.374.374 0 0 0-.248-.066c.89-.652.34-1.42-.088-1.242-1.176.484-1.457-.088-2.018.455-.392.379-1.78 2.316-2.148 2.207-1.918-.563-4.51-2.668-5.336-3.756-4.037-5.242-4.424-11.877-7.844-11.695-.785-.168-2.51-.686-4.604-.746-.25-.58-.37-.951-.42-1.614h-6.222c-.047.663-.17 1.034-.418 1.614-2.096.06-3.818.578-4.605.746-3.42-.182-3.805 6.453-7.844 11.695-.826 1.088-3.418 3.193-5.334 3.756-.371.11-1.756-1.828-2.149-2.207-.56-.543-.843.03-2.017-.455-.43-.178-.979.59-.09 1.242a.38.38 0 0 0-.248.066c-.356.25-1.436.293-1.508.717-.135.776-.127 1.973-.127 1.973s-1.078-.399-1.967-.397c-.597 0-.845.823-.05 1.08.292.098 1.374.41 1.374.41s-1.144-.06-1.267-.035c-.8.176-.83 1.104.059 1.252.205.034.732-.045.859-.035-.557.256-.658 1.28.547 1.246 1.627-.045 3.123.244 3.75.244.474 0 2.88-.132 3.738-1.408.666-.974 5.479-2.648 7.192-3.963 1.158-1.091 3.5-4.209 4.382-7.908 0 0 .291 1 .291 2.15h17.086c0-1.15.293-2.15.293-2.15.883 3.7 3.225 6.817 4.381 7.908 1.713 1.315 6.527 2.989 7.191 3.963.858 1.276 3.264 1.408 3.739 1.408.627 0 2.125-.289 3.75-.244 1.205.034 1.105-.99.547-1.246.127-.01.654.069.861.035.887-.148.86-1.076.057-1.252zm-53.324-2.01c-.539.647-.244 1.47-1.904.663-.219-.313-.297-.758-.14-1.098.82-.402.904-.918.732-1.191.28.148.643.285 1.123.396.27.424.19 1.23.19 1.23zm49.832.663c-1.66.807-1.365-.016-1.904-.662 0 0-.082-.807.19-1.23a4.607 4.607 0 0 0 1.12-.397c-.17.273-.087.789.733 1.191.158.34.08.785-.139 1.098z" style="fill:#f3cca8"/><path d="M56.243 43.11c-.043-.642-.882-2.234-2.302-2.046 1.326.385 1.972 1.342 2.302 2.047zm1.549-.785c1.895-.162 4.778.073 4.11-1.353.144 1.213-2.608.98-4.11 1.353zm1.66-1.445.004.223c-.83.31-1.256.238-1.256.238s.475-.13 1.252-.46zm-1.862 2.627c2.292-.432 4.689.684 4.345-.887-.049 1.258-2.14.123-4.346.887zM7.755 43.11c.043-.642.885-2.234 2.305-2.046-1.326.385-1.973 1.342-2.305 2.047zm-1.549-.785c-1.892-.162-4.777.073-4.107-1.353-.147 1.213 2.607.98 4.107 1.353zM4.548 40.88l-.004.223c.83.31 1.254.238 1.254.238s-.474-.13-1.25-.46zm1.863 2.627c-2.294-.432-4.691.684-4.347-.887.05 1.258 2.14.123 4.347.887z" style="fill:#deb38a"/><path d="M28.27 24.503s1.175 1.453 3.73 1.453c2.556 0 3.73-1.453 3.73-1.453V20.38h-7.46v4.123z" style="fill:#f3cca8"/><path d="M32 3.204c-5.611 0-8.314 4.57-7.976 10.446.069 1.18.398 2.884.803 4.344.841 3.035 5.282 6.09 7.173 6.09 1.89 0 6.331-3.056 7.174-6.09.405-1.46.734-3.164.803-4.344C40.314 7.774 37.613 3.204 32 3.204z" style="fill:#ffd8b4"/><path d="M37.963 11.695c-1.22-.727-3.406-.816-4.271-.32-.183.1-.134.624.024.558 1.234-.513 3.115-.539 4.273.055.155.079.159-.188-.026-.293zm-11.926 0c1.22-.727 3.405-.816 4.272-.32.184.1.135.624-.025.558-1.234-.513-3.113-.54-4.273.055-.155.079-.158-.188.026-.293z" style="fill:#826d58"/><path d="M33.261 17.45c-.133-.094-.447.05-1.262.05-.814 0-1.127-.144-1.26-.05-.16.112.094.62 1.26.62 1.167 0 1.423-.507 1.262-.62z" style="fill:#deb38a"/><path d="M38.315 4.024c.642-.914-4.786-2.846-9.91-1.54C23.286 3.654 20.4 9.261 20.4 16.34c0 2.633 1.68 5.871 4.816 7.532h1.665c-4.11-3.55-3.26-7.131-1.84-11.387 3.843-2.226 8.193-2.75 11.213-5.414-.387 1.16 1.66 2.623 2.706 5.414 1.455 3.879 2.244 7.797-1.852 11.387h1.526c3.053-1.66 4.966-4.899 4.966-7.532 0-8.367-3.233-12.908-5.285-12.316z" style="fill:#4f4236"/><path d="M38.315 4.024c.616-.737-2.127-1.966-5.582-1.966 4.24.335 5.686 2.633 4.51 2.025-1.255-.647-4.321-1.588-8.428.273 4.494-.956 8.627.089 7.984.63-1.015.853-5.488-1.472-11.752 4.247-.862.787 3.758-3.023 9.959-3.144-.862 1.814-11.892 4.69-13.603 9.2 2.871-4.099 14.979-5.621 16.912-11.264zm2.809 6.568s2.689 7.294-1.817 12.351c6.454-5.057 1.817-12.351 1.817-12.351z" style="fill:#403429"/><path d="M25.281 12.275s-1.099.2-1.998 1.176c-1.88 6.641 2.614 9.492 2.614 9.492s-3.564-3.657-.616-10.668z" style="fill:#403429"/><path d="M22.47 14.082s-.517.202-1.147 1.495c-.585 4.05 2.258 6.112 2.258 6.112s-2.666-3.257-1.111-7.607zm20.1-5.165c-1.96-6.102-4.255-4.892-4.255-4.892s-1.103 2.066-1.982 2.79c-1.587 1.95 3.871 3.622 3.73 12.067 1.442-6-2.57-10.012-2.635-11.083-.073-1.215.936-3.082 1.723-3.307.854-.243 2.81 2.772 3.419 4.425z" style="fill:#403429"/><path d="M21.323 15.577c3.106-5.067 14.603-4.725 16.992-11.553-4.027 6.229-16.222 7.267-16.992 11.553z" style="fill:#2e2319"/><path d="M38.204 6.751s2.548 5.462 2.967 10.102c.693-7.134-2.967-10.102-2.967-10.102zm-13.712 4.654s3.706-2.406 8.346-4.39c-4.966.298-8.346 4.39-8.346 4.39zm-2.287-.492s2.912-4.652 8.222-6.005c-7.389-.483-8.222 6.005-8.222 6.005z" style="fill:#635547"/><path d="M30.38 13.685c-1.033.658-2.639.658-3.672 0-.158-.102-.254.008-.203.092 1.004 1.703 3.072 1.703 4.076 0 .053-.084-.043-.194-.2-.092zm6.914 0c-1.035.658-2.64.658-3.674 0-.158-.102-.252.008-.203.092 1.004 1.703 3.074 1.703 4.078 0 .051-.084-.044-.194-.2-.092z" style="fill:#45332c"/><path d="M35.12 19.585c-1.826 1.864-4.511 1.737-6.24 0 2.194.168 4.047.168 6.24 0z" style="fill:#de935d"/><path d="M32 19.511c-.87-.277-1.66.225-3.12.074.723.338 2.012.45 3.12.485 1.109-.035 2.398-.147 3.12-.485-1.459.153-2.25-.353-3.12-.074z" style="fill:#b57241"/><path d="M39.138 24.085c.057-.289-2.014-.763-2.094-.361-1.914 9.72-8.178 9.709-10.09 0-.08-.402-2.15.072-2.093.361 1.449 7.397-1.536 8.795-1.536 8.795-.295 1.453 1.186 5.242 1.186 5.242.602 3.762.316 6.7.316 6.7 4.09 4.562 10.25 4.558 14.34 0 0 0-.281-2.938.32-6.7 0 0 1.481-3.789 1.186-5.242 0 0-2.984-1.398-1.535-8.795z" style="fill:#8e3ed6"/></svg>