<svg xmlns="http://www.w3.org/2000/svg" xml:space="preserve" style="enable-background:new 0 0 64 64" viewBox="0 0 64 64"><radialGradient id="a" cx="-177.579" cy="76.386" r="21.526" gradientTransform="matrix(.8823 0 0 .7993 188.678 -9.596)" gradientUnits="userSpaceOnUse"><stop offset="0" style="stop-color:#f5fbff"/><stop offset=".331" style="stop-color:#ecf4f9"/><stop offset=".878" style="stop-color:#d3e2ea"/><stop offset="1" style="stop-color:#ccdde6"/></radialGradient><path d="M32 40.919c-12.559 0-18.827 2.045-19.56 3.82-1.626 3.937 4.576 16.414 4.576 16.414S22.518 62 32 62s14.984-.847 14.984-.847 6.202-12.477 4.576-16.415c-.733-1.774-7-3.82-19.56-3.82z" style="fill:url(#a)"/><linearGradient id="b" x1="3165.425" x2="3179.902" y1="52.929" y2="52.929" gradientTransform="matrix(-1 0 0 1 3182.902 0)" gradientUnits="userSpaceOnUse"><stop offset="0" style="stop-color:#f5fbff"/><stop offset=".331" style="stop-color:#ecf4f9"/><stop offset=".878" style="stop-color:#d3e2ea"/><stop offset="1" style="stop-color:#ccdde6"/></linearGradient><path d="M17.016 61.153S2.845 59.907 3 57.483c.16-2.486 1.379-8.859 9.439-12.745 1.343-.647 6.608 8.203 4.576 16.415z" style="fill:url(#b)"/><path d="M10.324 52.313c-1.142 2.14-5.203 3.053-6.76 2.136l.176-.545 4.778-6.701s.183-.213.558-.437c1.371.356 2.34 3.501 1.248 5.547z" style="fill:#de0707"/><path d="M9.598 52.087c-1.172 1.842-4.338 2.546-5.858 1.817 0 0 .893-3.712 4.778-6.701 1.298.445 2.252 3.042 1.08 4.884z" style="fill:#4482b3"/><path d="M8.036 51.036c-.733 1.154-2.682 1.617-3.633 1.161 0 0 .83-2.131 3.104-4.142.813.279 1.263 1.828.53 2.981z" style="fill:#cc9976"/><path d="M6.222 49.361c-1.061 3.424 1.485 2.945 1.485 2.945s-2.886.993-1.813-2.546c0 0 .083-.165.328-.399z" style="fill:#ffde29"/><linearGradient id="c" x1="46.523" x2="61" y1="52.929" y2="52.929" gradientUnits="userSpaceOnUse"><stop offset="0" style="stop-color:#f5fbff"/><stop offset=".331" style="stop-color:#ecf4f9"/><stop offset=".878" style="stop-color:#d3e2ea"/><stop offset="1" style="stop-color:#ccdde6"/></linearGradient><path d="M46.984 61.153s14.171-1.246 14.015-3.67c-.16-2.486-1.379-8.86-9.439-12.745-1.343-.647-6.608 8.203-4.576 16.415z" style="fill:url(#c)"/><path d="M53.676 52.313c1.142 2.14 5.203 3.053 6.76 2.136l-.176-.545-4.778-6.701s-.183-.213-.558-.437c-1.371.356-2.34 3.501-1.248 5.547z" style="fill:#ffde29"/><path d="M54.402 52.087c1.172 1.842 4.338 2.546 5.857 1.817 0 0-.892-3.712-4.777-6.701-1.298.445-2.252 3.042-1.08 4.884z" style="fill:#4482b3"/><path d="M58.691 50.881c-.562-.249-.982-.302-.982-.302s.447 1.199.582 1.1c.371-.27.539-.246.877.293.016.026.042-.003.036-.026-.124-.506-.369-1.002-.513-1.065zm-2.222 1.621c.001.167.337.597.726.91.018.014.053-.001.036-.027-.338-.54-.297-.716.075-.987.134-.098-.732-.991-.732-.991s-.11.44-.105 1.095z" style="fill:#fff"/><path d="M56.895 51.889c.632 1.007.87 1.06 1.285.757.414-.301.457-.56-.175-1.567l-1.11.81z" style="fill:#de0707"/><path d="M55.358 48.153s-.179 1.256 1.228 3.496c.63 1.005.903 1.03 1.391.675.489-.356.567-.639-.063-1.643-1.407-2.24-2.556-2.528-2.556-2.528z" style="fill:#fff"/><path d="M56.478 49.936a.324.324 0 0 1 .47.098.383.383 0 0 1-.09.506.324.324 0 0 1-.47-.097.383.383 0 0 1 .09-.507z" style="fill:#4482b3"/><path d="M57.908 52.351c-.257-.41-.439-.76-.406-.784.032-.024.267.289.524.698.258.41.44.761.407.785-.033.024-.268-.29-.525-.699z" style="fill:#fff"/><path d="M55.359 48.153s-.067.47.203 1.35a1.61 1.61 0 0 0 .883-.645c-.656-.597-1.086-.705-1.086-.705z" style="fill:#de0707"/><path d="m35.815 53.743-1.26-.907h-7.008l-1.356.907h-5.448v7.855S24.436 62 32 62s11.257-.402 11.257-.402v-7.855h-7.442z" style="fill:#c5d5db"/><path d="M28.312 59.937h5.775v.156h-5.775zm-5.532-.906h2.534v.156H22.78z" style="fill:#4e5e67"/><path d="M28.312 55.063h5.775v4.874h-5.775z" style="fill:#99a8ae"/><path d="M32.958 59.26H29.44l-.495-3.519h4.506z" style="fill:#c5d5db"/><path d="M32.804 58.815h-3.21l-.648-3.074h4.506z" style="fill:#e3edf2"/><path d="M25.315 59.03H22.78v-1.993c0-.245.199-.443.443-.443h1.649c.244 0 .443.198.443.443v1.994zm-3.101-5.755h2.534v.471h-2.534zm16.077 0h1.407v.471h-1.407z" style="fill:#99a8ae"/><path d="M41.35 57.965a2.67 2.67 0 1 1-5.34 0 2.67 2.67 0 0 1 5.34 0z" style="fill:#2b857a"/><path d="M41.35 57.734a2.67 2.67 0 1 1-5.34 0 2.67 2.67 0 0 1 5.34 0z" style="fill:#3ab0a2"/><path d="M40.87 57.734c0 1.21-4.38 1.21-4.38 0a2.19 2.19 0 0 1 4.38 0z" style="fill:#c5d5db"/><path d="M40.87 57.906c0 1.115-.98 2.018-2.19 2.018s-2.19-.903-2.19-2.018c0-1.115.98-2.019 2.19-2.019s2.19.904 2.19 2.019z" style="fill:#e3edf2"/><path d="M23.602 57.3h.892v1.247h-.892z" style="fill:#4e5e67"/><ellipse cx="32" cy="26.873" rx="20.387" ry="20.388" style="fill:#1a1626" transform="rotate(-45.001 32 26.873)"/><path d="M46.432 41.096c0 4.22-28.864 4.22-28.864 0-.011-6.02 28.864-6.02 28.864 0z" style="fill:#4e5e67"/><path d="M32 10.653c-9.242 0-13.694 7.529-13.14 17.204.115 1.942.656 4.751 1.325 7.159 1.382 5 7.497 10.031 11.815 10.031s10.427-5.031 11.815-10.031c.669-2.408 1.21-5.21 1.325-7.16.554-9.674-3.898-17.203-13.14-17.203z" style="fill:#735c48"/><path d="M42.044 23.672c-2.114-1.12-6.159-1.172-7.662-.395-.325.153-.108 1.21.16 1.108 2.101-.828 5.49-.847 7.451.07.261.128.37-.624.051-.783zm-20.088 0c2.114-1.12 6.159-1.172 7.668-.395.325.153.109 1.21-.16 1.108-2.1-.828-5.483-.847-7.451.07-.268.128-.376-.624-.057-.783z" style="fill:#302b27"/><path d="M34.497 33.385c-.261-.184-.886.102-2.497.102-1.612 0-2.23-.287-2.497-.102-.318.223.185 1.23 2.497 1.23 2.306 0 2.809-1.007 2.497-1.23zM32 37.194c-2.076-.611-5.16.293-5.16.293 1.173 1.28 2.033 2.936 5.16 2.936 3.58 0 4.19-1.879 5.16-2.936 0-.006-3.084-.91-5.16-.293z" style="fill:#4a3728"/><path d="M27.618 37.697c2.178 1.828 6.58 1.841 8.77 0-2.324.102-6.433.102-8.77 0zm2.325-10.21c.076.612-.338 1.338-1.484 1.88-.733.343-2.249.75-4.249-.09-.891-.376-1.764-1.554-1.687-2.204 1.082-2.038 6.407-2.337 7.42.414z" style="fill:#fff"/><linearGradient id="d" x1="-1210.322" x2="-1210.322" y1="172.399" y2="171.762" gradientTransform="translate(7978.266 -1103.139) scale(6.5701)" gradientUnits="userSpaceOnUse"><stop offset="0" style="stop-color:#a6694a"/><stop offset="1" style="stop-color:#4f2a1e"/></linearGradient><path d="M26.331 25.354c1.153 0 2.096.936 2.096 2.089a2.096 2.096 0 0 1-4.191 0c0-1.153.936-2.09 2.095-2.09z" style="fill:url(#d)"/><path d="M25.287 27.41c0 1.447 2.095 1.447 2.095 0-.006-1.343-2.095-1.343-2.095 0z" style="fill:#1a1626"/><path d="M24.968 26.825c0 .605.88.605.88 0-.007-.567-.88-.567-.88 0z" style="fill:#ab968c"/><path d="M29.955 27.57c-.847-2.732-6.643-2.325-7.432-.49.293-2.357 6.706-2.975 7.432.49z" style="fill:#4a3728"/><path d="M34.057 27.487c-.076.612.338 1.338 1.484 1.88.733.343 2.249.75 4.249-.09.898-.376 1.764-1.554 1.687-2.204-1.082-2.038-6.407-2.337-7.42.414z" style="fill:#fff"/><linearGradient id="e" x1="-1211.302" x2="-1211.302" y1="172.399" y2="171.762" gradientTransform="translate(7995.996 -1103.139) scale(6.5701)" gradientUnits="userSpaceOnUse"><stop offset="0" style="stop-color:#a6694a"/><stop offset="1" style="stop-color:#4f2a1e"/></linearGradient><circle cx="37.624" cy="27.449" r="2.095" style="fill:url(#e)"/><path d="M36.58 27.41c0 1.447 2.095 1.447 2.095 0-.006-1.343-2.095-1.343-2.095 0z" style="fill:#1a1626"/><path d="M36.261 26.825c0 .605.879.605.879 0-.007-.567-.879-.567-.879 0z" style="fill:#ab968c"/><path d="M34.045 27.57c.847-2.726 6.636-2.337 7.426-.49-.286-2.357-6.7-2.975-7.426.49z" style="fill:#4a3728"/><path d="M47.007 22.634a4.43 4.43 0 0 0-1.04-1.987c-.418-.458-.652-1.058-.717-1.684-.414-3.93-2.543-11.916-13.25-11.916s-12.837 7.986-13.25 11.916c-.066.626-.299 1.226-.718 1.684a4.43 4.43 0 0 0-1.039 1.987 25.456 25.456 0 0 0 0 8.938c.245 1.089.917 2.022 1.633 2.524a3.901 3.901 0 0 1 1.454 1.994c1.066 3.281 3.485 4.534 3.485 4.534s-2.86-4.285-2.86-11.821c0-3.288.196-5.58.346-6.85.09-.763.562-1.42 1.256-1.705 1.526-.625 4.689-1.589 9.693-1.589 5.003 0 8.167.964 9.693 1.589.694.284 1.166.942 1.256 1.705.15 1.27.345 3.562.345 6.85 0 7.536-2.915 11.821-2.915 11.821s2.474-1.253 3.54-4.534a3.897 3.897 0 0 1 1.453-1.994c.718-.501 1.39-1.435 1.634-2.524.528-2.953.528-5.986.001-8.938z" style="fill:#3089c6"/><path d="M23.564 40.623c-1.412-2.194-2.19-4.718-2.69-7.25-.488-2.55-.477-5.157-.421-7.727.038-1.297.099-2.562.266-3.885.122-.724.585-1.42 1.3-1.773a15.79 15.79 0 0 1 1.946-.688c2.616-.749 5.34-1.017 8.042-1.037 2.703.02 5.427.29 8.043 1.041.661.197 1.278.395 1.947.694a2.442 2.442 0 0 1 1.286 1.782c.165 1.32.229 2.587.265 3.884.055 2.569.066 5.177-.432 7.728-.51 2.53-1.305 5.05-2.736 7.232 1.265-2.266 1.967-4.775 2.337-7.294.411-2.523.328-5.085.197-7.64a58.852 58.852 0 0 0-.334-3.798c-.092-.54-.436-1.034-.92-1.271a15.07 15.07 0 0 0-1.823-.625c-2.526-.702-5.186-.943-7.829-.941-2.643-.006-5.303.236-7.83.935-.62.175-1.271.387-1.826.623-.487.234-.835.724-.93 1.264a57.903 57.903 0 0 0-.337 3.796c-.131 2.555-.212 5.117.187 7.642.361 2.52 1.047 5.033 2.292 7.308z" style="fill:#1f547c"/><path d="M34.554 7.236c.452 3.091.852 6.93 1.085 11.61 2.94.31 4.94.944 6.054 1.4.695.285 1.167.943 1.257 1.706.134 1.144.305 3.123.338 5.906h.266c0-2.066-.003-10.001-2.318-17.664-1.56-1.437-3.715-2.548-6.682-2.958zm-5.109 0c-2.967.41-5.122 1.52-6.682 2.958-2.315 7.663-2.318 15.598-2.318 17.664h.266c.032-2.783.204-4.762.339-5.906.09-.763.562-1.42 1.255-1.705 1.115-.457 3.115-1.09 6.055-1.4.234-4.681.633-8.52 1.085-11.611z" style="fill:#1f547c"/><path d="M57.394 32.761h-3.885a1.29 1.29 0 0 1-1.29-1.29v-9.726a2.316 2.316 0 0 1 2.316-2.316h1.833a2.316 2.316 0 0 1 2.316 2.316v9.726a1.29 1.29 0 0 1-1.29 1.29z" style="fill:#99a8ae"/><path d="M52.219 22.748h6.465v.381h-6.465z" style="fill:#4e5e67"/><path d="M54.243 20.581h2.416v1.504h-2.416z" style="fill:#302c3b"/><path d="M54.365 20.657h2.173v1.353h-2.173z" style="fill:#4e5e67"/><path d="M57.126 25.266c0 2.232-3.35 2.232-3.35 0 0-2.233 3.35-2.233 3.35 0z" style="fill:#7d8d96"/><path d="M56.791 25.266c0 1.785-2.68 1.785-2.68 0s2.68-1.785 2.68 0z" style="fill:#cfd8dd"/><radialGradient id="f" cx="55.452" cy="29.846" r="2.704" gradientUnits="userSpaceOnUse"><stop offset="0" style="stop-color:#fff"/><stop offset=".915" style="stop-color:#fff;stop-opacity:.0849"/><stop offset="1" style="stop-color:#fff;stop-opacity:0"/></radialGradient><path d="M58.156 29.846c0 3.604-5.409 3.604-5.409 0s5.409-3.604 5.409 0z" style="opacity:.8;fill:url(#f)"/><path d="M57.313 29.846c0 2.48-3.723 2.48-3.723 0 0-2.479 3.723-2.479 3.723 0z" style="fill:#fff"/><path d="M10.49 32.761H6.607a1.29 1.29 0 0 1-1.29-1.29v-9.726a2.316 2.316 0 0 1 2.316-2.316h1.833a2.316 2.316 0 0 1 2.316 2.316v9.726a1.29 1.29 0 0 1-1.29 1.29z" style="fill:#99a8ae"/><path d="M5.316 22.748h6.465v.381H5.316z" style="fill:#4e5e67"/><path d="M7.34 20.581h2.416v1.504H7.34z" style="fill:#302c3b"/><path d="M7.462 20.657h2.173v1.353H7.462z" style="fill:#4e5e67"/><path d="M10.223 25.266c0 2.232-3.35 2.232-3.35 0 0-2.233 3.35-2.233 3.35 0z" style="fill:#7d8d96"/><path d="M9.888 25.266c0 1.785-2.68 1.785-2.68 0s2.68-1.785 2.68 0z" style="fill:#cfd8dd"/><radialGradient id="g" cx="8.549" cy="29.846" r="2.704" gradientUnits="userSpaceOnUse"><stop offset="0" style="stop-color:#fff"/><stop offset=".915" style="stop-color:#fff;stop-opacity:.0849"/><stop offset="1" style="stop-color:#fff;stop-opacity:0"/></radialGradient><path d="M11.253 29.846c0 3.604-5.409 3.604-5.409 0s5.409-3.604 5.409 0z" style="opacity:.8;fill:url(#g)"/><path d="M10.41 29.846c0 2.48-3.723 2.48-3.723 0 0-2.479 3.723-2.479 3.723 0z" style="fill:#fff"/><radialGradient id="h" cx="-45.594" cy="247.837" r="3.945" gradientTransform="translate(87.534 -192.8) scale(.9412)" gradientUnits="userSpaceOnUse"><stop offset="0" style="stop-color:#f0f6fa"/><stop offset="1" style="stop-color:#c0cfd9"/></radialGradient><path d="M43.9 38.645c-1.959 1.197-1.092 3.958-3.648 4.732 5.95 0 8.737-5.825 8.737-5.825-.625 1.042-3.129-.105-5.088 1.093z" style="fill:url(#h)"/><linearGradient id="i" x1="44.484" x2="44.484" y1="41.017" y2="43.444" gradientTransform="matrix(1 0 0 -1 0 82)" gradientUnits="userSpaceOnUse"><stop offset="0" style="stop-color:#f0f6fa"/><stop offset="1" style="stop-color:#c0cfd9"/></linearGradient><path d="M45.405 38.695c-1-.723-2.896 1.56-1.809 2.233.636.393 2.898-1.446 1.81-2.233z" style="fill:url(#i)"/><linearGradient id="j" x1="38.999" x2="38.794" y1="39.605" y2="41.044" gradientTransform="matrix(1 0 0 -1 0 82)" gradientUnits="userSpaceOnUse"><stop offset="0" style="stop-color:#000"/><stop offset="1" style="stop-color:#2f373a"/></linearGradient><path d="M44.027 39.274c-2.963 1.27-5.216 1.905-7.173 2.075-.601.052-1.447-.622-2.52-.54-2.63.08-2.4 2.05 0 1.794 1.224-.085 1.903-.816 2.52-.839 1.435-.052 2.256-.192 4.683-.566 3.415-.41 4.5-2.73 2.49-1.924z" style="fill:url(#j)"/><radialGradient id="k" cx="-59.088" cy="226.935" r="29.676" gradientTransform="translate(87.534 -192.8) scale(.9412)" gradientUnits="userSpaceOnUse"><stop offset="0" style="stop-color:#f5fbff"/><stop offset="1" style="stop-color:#d4e0e8"/></radialGradient><path d="M32 6c-11.528 0-20.873 9.345-20.873 20.873S20.472 47.746 32 47.746 52.873 38.4 52.873 26.873 43.528 6 32 6zm14.834 34.259S42.23 44.26 32 44.26s-14.834-4.002-14.834-4.002c-6.054-7.824-4.368-16.466-4.368-16.466C14.727 20.017 19.882 13.194 32 13.194c12.118 0 17.273 6.823 19.2 10.599 0 0 1.687 8.642-4.366 16.466z" style="fill:url(#k)"/><radialGradient id="l" cx="-63.693" cy="230.067" r="24.311" gradientTransform="translate(87.534 -192.8) scale(.9412)" gradientUnits="userSpaceOnUse"><stop offset="0" style="stop-color:#fff;stop-opacity:.73"/><stop offset=".788" style="stop-color:#fff;stop-opacity:0"/></radialGradient><path d="M46.834 40.345S42.23 44.347 32 44.347s-14.834-4.002-14.834-4.002c-6.054-7.823-4.368-16.466-4.368-16.466C14.727 20.104 19.882 13.28 32 13.28c12.118 0 17.273 6.823 19.2 10.598 0 0 1.687 8.643-4.366 16.466z" style="opacity:.8;fill:url(#l);enable-background:new"/><radialGradient id="m" cx="-59.269" cy="598.905" r="17.639" gradientTransform="matrix(.9412 0 0 .3599 87.534 -195.799)" gradientUnits="userSpaceOnUse"><stop offset="0" style="stop-color:#efc177"/><stop offset=".419" style="stop-color:#edbf75"/><stop offset=".57" style="stop-color:#e8b96e"/><stop offset=".678" style="stop-color:#dfad63"/><stop offset=".765" style="stop-color:#d19c52"/><stop offset=".839" style="stop-color:#bf873c"/><stop offset=".904" style="stop-color:#aa6d21"/><stop offset=".914" style="stop-color:#a6681c"/></radialGradient><path d="M13.497 24.113s4.03-6.22 18.503-6.22c14.472 0 18.502 6.22 18.502 6.22S46.674 14.01 32 14.01 13.497 24.113 13.497 24.113z" style="fill:url(#m)"/><radialGradient id="n" cx="-59.003" cy="223.661" r="64.104" gradientTransform="translate(87.534 -192.8) scale(.9412)" gradientUnits="userSpaceOnUse"><stop offset=".086" style="stop-color:#a6681c"/><stop offset=".096" style="stop-color:#aa6d21"/><stop offset=".161" style="stop-color:#bf873c"/><stop offset=".235" style="stop-color:#d19c52"/><stop offset=".322" style="stop-color:#dfad63"/><stop offset=".43" style="stop-color:#e8b96e"/><stop offset=".581" style="stop-color:#edbf75"/><stop offset="1" style="stop-color:#efc177"/></radialGradient><path d="M32 17.408c-14.774 0-18.967 6.63-19.139 6.912l.415.252c.04-.066 4.25-6.679 18.724-6.679s18.683 6.612 18.724 6.679l.415-.253c-.172-.282-4.364-6.911-19.14-6.911z" style="fill:url(#n)"/><linearGradient id="o" x1="32" x2="32" y1="237.077" y2="204.554" gradientTransform="translate(0 -192)" gradientUnits="userSpaceOnUse"><stop offset="0" style="stop-color:#f0f6fa"/><stop offset="1" style="stop-color:#95a8b9"/></linearGradient><path d="M32 45.077c-10.383 0-15.115-4.011-15.311-4.181l-.098-.104c-6.185-7.993-4.578-16.685-4.507-17.05l.066-.192c2.097-4.107 7.464-10.996 19.85-10.996 12.385 0 17.752 6.89 19.849 10.996l.066.192c.071.366 1.678 9.058-4.507 17.05l-.098.104c-.195.17-4.928 4.18-15.31 4.18zm-14.307-5.242c.51.404 5.058 3.784 14.307 3.784 9.242 0 13.79-3.375 14.308-3.785 5.378-7.007 4.345-14.777 4.194-15.721-1.98-3.82-6.99-10.103-18.502-10.103-11.512 0-16.522 6.283-18.503 10.104-.15.942-1.184 8.713 4.196 15.72z" style="fill:url(#o)"/><radialGradient id="p" cx="-116.75" cy="-67.422" r="27.997" gradientTransform="matrix(.7732 0 0 -.2536 122.163 28.812)" gradientUnits="userSpaceOnUse"><stop offset="0" style="stop-color:#f0f6fa"/><stop offset="1" style="stop-color:#c0cfd9"/></radialGradient><path d="M45.812 42.552c-.466 0-2.582 3.071-13.812 3.071s-13.394-3.071-13.812-3.071c-.07 0-.143-.009-.143.321 0 1.456 1.93 5.504 13.956 5.504 12.025 0 13.956-4.048 13.956-5.504-.001-.33-.074-.321-.145-.321z" style="fill:url(#p)"/></svg>