<svg xmlns="http://www.w3.org/2000/svg" xml:space="preserve" style="enable-background:new 0 0 64 64" viewBox="0 0 64 64"><path d="M58.961 52.18c-1.167-6.021-3.155-24.997-10.915-41.952C47.333 8.669 34.944 1 29.204 1c0 12.369 15.832 29.343 24.347 51.489.728 1.895 5.655.954 5.41-.309z" style="fill:#b3000a"/><linearGradient id="a" x1="-2306.359" x2="-2312.433" y1="380.435" y2="365.779" gradientTransform="rotate(6.91 1527.288 19802.194)" gradientUnits="userSpaceOnUse"><stop offset="0" style="stop-color:#beccd6"/><stop offset=".54" style="stop-color:#dbe5eb"/><stop offset="1" style="stop-color:#f0f6fa"/></linearGradient><path d="M50.701 48.838c-1.725.894-1.98 4.467-1.98 4.467l.574-.187c-.735 2.317.035 3.6.035 3.6l.374-.639C50.156 58.402 53 59.778 53 59.778l-.239-.843c2.029 1.645 3.59 1.595 3.59 1.595l-.422-.736c2.064.614 3.835-.088 3.835-.088l-.933-.371c1.556-.085 2.526-1.575 2.526-1.575s-.783-.14-.765-.35c.023-.285 1.097-.294 1.097-.294s-.473-.474-.353-.6c.079-.082.399.22.399.22s.661-.729.293-1.688l.546.375s1.082-2.752-.199-5.406l.554.18c-5.425-3.608-12.227-1.36-12.227-1.36z" style="fill:url(#a)"/><linearGradient id="b" x1="-2307.082" x2="-2313.259" y1="377.202" y2="362.725" gradientTransform="rotate(6.91 1527.288 19802.194)" gradientUnits="userSpaceOnUse"><stop offset="0" style="stop-color:#ebf2f7"/><stop offset=".516" style="stop-color:#f8fbfc"/><stop offset="1" style="stop-color:#fff"/></linearGradient><path d="M57.516 47.274c-.132-.72-.716-1.115-.716-1.115l-.06.506c-2.283-.646-2.931-.358-2.931-.358l.609.588c-3.296-.01-4.513 1.846-4.513 1.846l.796.097c-1.725.895-1.533 3.63-1.533 3.63l.992-1.072c-.984 2.732-.006 4.318-.006 4.318l.482-1.617c-.026 2.882 2.247 4.062 2.247 4.062l-.03-1.341c1.504 1.989 3.054 2 3.054 2l-.805-1.533c1.59 1.274 2.796.707 2.796.707l-.932-2.035c1.327 1.005 2.607.396 2.607.396s-.623-1.353.13-2.558c.92.632 1.025 1.909 1.025 1.909s.97-1.375.516-2.711l1.119 1.345s.665-2.078-.616-4.732l1.181.591s-.912-1.594-2.801-1.662l.19-.876s-.628.08-.899.404c-.526-1.147-1.362-1.75-1.362-1.75s-.266.953-.54.96z" style="fill:url(#b)"/><path d="M5.844 38.65s.67 6.49-.98 10.86c2.32-.25 2.92-1.42 2.92-1.42s-.08 3.04-1.26 5.17c2.18.36 3.52-.72 3.52-.72s0 2.3.17 3.88c6.35-1.64 5.97-9.03 5.97-9.03l-10.34-8.74zm44.7 10.86c-1.65-4.38-.98-10.86-.98-10.86l-10.33 8.74s-.38 7.39 5.97 9.03c.17-1.58.17-3.88.17-3.88s1.34 1.08 3.52.72c-1.19-2.12-1.26-5.17-1.26-5.17s.59 1.17 2.91 1.42z" style="fill:#b3c2c6"/><path d="M49.34 30.564c-3.35.406-5.769 11.62-3.663 14.58.295.413 2.021 1.073 3.3-1.54.71-1.445 2.755-2.652 3.387-5.634.813-3.824.307-7.808-3.025-7.406zm-43.268 0c3.35.406 5.768 11.62 3.66 14.58-.295.413-2.021 1.073-3.3-1.54-.71-1.445-2.754-2.652-3.387-5.634-.813-3.824-.305-7.81 3.027-7.406z" style="fill:#735c48"/><path d="M49.247 32.716c-.873.273-1.826 1.605-2.344 3.818 3.055-.656 2.292 4.432-.363 4.525.024.512.059 1.04.121 1.592 1.28-1.855 2.578-1.11 3.865-3.875 1.16-2.49.885-6.74-1.279-6.06zm-40.741 3.81c-.518-2.207-1.47-3.539-2.342-3.81-2.164-.681-2.442 3.57-1.281 6.06 1.287 2.766 2.586 2.02 3.867 3.875a23.21 23.21 0 0 0 .119-1.594c-2.627-.125-3.379-5.15-.363-4.53z" style="fill:#4a3728"/><path d="M27.705 9C.343 9 8.61 45.22 8.61 45.22c0 9.959 8.883 13.644 8.883 13.644S21.426 63 27.705 63c6.28 0 10.21-4.136 10.21-4.136s8.883-3.685 8.883-13.643c0 0 8.271-36.221-19.093-36.221z" style="fill:#735c48"/><radialGradient id="c" cx="71.681" cy="94.563" r="5.93" gradientTransform="matrix(1.032 0 0 .9086 -58.117 -38.812)" gradientUnits="userSpaceOnUse"><stop offset=".1" style="stop-color:#ff6399;stop-opacity:.35"/><stop offset=".248" style="stop-color:#fb6397;stop-opacity:.2926"/><stop offset=".401" style="stop-color:#ee628f;stop-opacity:.2331"/><stop offset=".556" style="stop-color:#da6183;stop-opacity:.1727"/><stop offset=".713" style="stop-color:#bd6073;stop-opacity:.1115"/><stop offset=".87" style="stop-color:#985e5d;stop-opacity:.0505"/><stop offset="1" style="stop-color:#735c48;stop-opacity:0"/></radialGradient><path d="M15.858 41.72c3.379 0 6.12 2.413 6.12 5.387 0 2.977-2.741 5.389-6.12 5.389-3.38 0-6.12-2.412-6.12-5.389 0-2.974 2.74-5.388 6.12-5.388z" style="opacity:.4;fill:url(#c)"/><radialGradient id="d" cx="94.639" cy="94.563" r="5.93" gradientTransform="matrix(1.032 0 0 .9086 -58.117 -38.812)" gradientUnits="userSpaceOnUse"><stop offset=".1" style="stop-color:#ff6399;stop-opacity:.35"/><stop offset=".248" style="stop-color:#fb6397;stop-opacity:.2926"/><stop offset=".401" style="stop-color:#ee628f;stop-opacity:.2331"/><stop offset=".556" style="stop-color:#da6183;stop-opacity:.1727"/><stop offset=".713" style="stop-color:#bd6073;stop-opacity:.1115"/><stop offset=".87" style="stop-color:#985e5d;stop-opacity:.0505"/><stop offset="1" style="stop-color:#735c48;stop-opacity:0"/></radialGradient><path d="M39.551 41.72c3.378 0 6.12 2.413 6.12 5.387 0 2.978-2.741 5.389-6.12 5.389-3.38 0-6.12-2.411-6.12-5.389 0-2.974 2.74-5.388 6.12-5.388z" style="opacity:.4;fill:url(#d)"/><path d="M30.967 45.84c-.346-.243-1.156.13-3.264.13-2.105 0-2.916-.373-3.261-.13-.414.29.244 1.607 3.261 1.607 3.018 0 3.68-1.314 3.264-1.608z" style="fill:#4a3728"/><path d="M31.155 37.496c1.369 3.933 7.802 5.933 7.802 5.933s-6.755-3.804-7.802-5.933zM16.454 43.43s6.414-1.96 7.802-5.934c-1.047 2.129-7.802 5.933-7.802 5.933z" style="fill:#634c39"/><path d="M24.457 36.16c.207.947-.343 2.137-2.066 3.145-1.096.64-3.416 1.484-6.654.441-1.45-.469-2.975-2.188-2.942-3.213 1.414-3.338 9.703-4.535 11.662-.373z" style="fill:#fff"/><linearGradient id="e" x1="-425.561" x2="-425.561" y1="476.194" y2="477.194" gradientTransform="matrix(6.5701 0 0 -6.5701 2814.782 3168.527)" gradientUnits="userSpaceOnUse"><stop offset="0" style="stop-color:#a6694a"/><stop offset="1" style="stop-color:#4f2a1e"/></linearGradient><path d="M18.803 33.316a3.285 3.285 0 1 1 0 6.57 3.285 3.285 0 0 1 0-6.57z" style="fill:url(#e)"/><path d="M17.163 36.54c0 2.274 3.285 2.274 3.285 0 0-2.108-3.285-2.108-3.285 0z" style="fill:#1a1626"/><path d="M16.663 35.623c0 .951 1.377.951 1.377 0 0-.885-1.377-.885-1.377 0z" style="fill:#ab968c"/><path d="M24.485 36.285c-1.703-4.156-10.707-2.732-11.69.248.137-3.717 10.084-5.566 11.69-.248z" style="fill:#4a3728"/><path d="M30.951 36.16c-.207.947.344 2.137 2.069 3.145 1.093.64 3.414 1.484 6.652.441 1.453-.467 2.975-2.188 2.942-3.213-1.412-3.338-9.702-4.535-11.662-.373z" style="fill:#fff"/><linearGradient id="f" x1="-425.561" x2="-425.561" y1="476.194" y2="477.194" gradientTransform="matrix(6.5701 0 0 -6.5701 2832.512 3168.527)" gradientUnits="userSpaceOnUse"><stop offset="0" style="stop-color:#a6694a"/><stop offset="1" style="stop-color:#4f2a1e"/></linearGradient><path d="M36.533 33.316a3.285 3.285 0 1 1 .001 6.57 3.285 3.285 0 0 1 0-6.57z" style="fill:url(#f)"/><path d="M34.893 36.54c0 2.274 3.285 2.274 3.285 0 0-2.108-3.285-2.108-3.285 0z" style="fill:#1a1626"/><path d="M34.393 35.623c0 .951 1.377.951 1.377 0 0-.885-1.377-.885-1.377 0z" style="fill:#ab968c"/><path d="M30.926 36.285c1.701-4.154 10.701-2.75 11.688.248-.137-3.717-10.082-5.566-11.688-.248zm-12.017 15.14c3.28 3.06 14.27 3.096 17.593 0-8.035 1.79-9.45 1.813-17.593 0z" style="fill:#4a3728"/><path d="M22.758 46.369c-2.695 2.89-5.588 4.697-4.478 8.79.119-3.886 2.582-4.618 4.478-8.79zm14.373 8.789c1.102-4.049-1.758-5.871-4.478-8.787 1.894 4.176 4.355 4.902 4.478 8.787z" style="fill:#634c39"/><linearGradient id="g" x1="37.254" x2="37.897" y1="32.176" y2="28.526" gradientUnits="userSpaceOnUse"><stop offset="0" style="stop-color:#cad7de"/><stop offset=".417" style="stop-color:#dbe5eb"/><stop offset="1" style="stop-color:#f0f6fa"/></linearGradient><path d="M33.612 31.454c2.465-.28 5.357-.383 6.618.566-.039-.23-.233-.61-.233-.61s1.082.378 1.718 1.172c.103-.444-.105-.992-.105-.992s.834.516 1.245 1.195c.124-1.354-.928-2.22-.928-2.22s.374.146.696.427c-.448-1.749-3.525-2.01-3.525-2.01s.454-.055.958.03c-2.654-.938-5.822-.3-7.188.334-2.015.936-.588 2.259.744 2.108z" style="fill:url(#g)"/><linearGradient id="h" x1="37.325" x2="37.91" y1="31.81" y2="28.488" gradientUnits="userSpaceOnUse"><stop offset="0" style="stop-color:#d4dee6"/><stop offset=".248" style="stop-color:#e6ebf0"/><stop offset=".597" style="stop-color:#f8fafb"/><stop offset=".842" style="stop-color:#fff"/></linearGradient><path d="M31.874 30.52c.605-.906 3.236-1.342 5.08-.952-1.529.036-2.494 1.047-2.494 1.047s3.358-.86 5.747-.314c-1.988.075-2.991.525-2.991.525s3.594-.587 4.536.351c-.848-.203-1.598-.117-1.598-.117s1.4.513 1.561 1.522c.103-.444-.105-.992-.105-.992s.834.516 1.245 1.195c.124-1.354-.928-2.22-.928-2.22s.373.146.696.427c-.448-1.749-3.525-2.01-3.525-2.01s.454-.055.957.03c-2.332-1.077-8.289-.403-8.18 1.507z" style="fill:url(#h)"/><linearGradient id="i" x1="18.156" x2="17.512" y1="32.176" y2="28.526" gradientUnits="userSpaceOnUse"><stop offset="0" style="stop-color:#cad7de"/><stop offset=".417" style="stop-color:#dbe5eb"/><stop offset="1" style="stop-color:#f0f6fa"/></linearGradient><path d="M21.798 31.454c-2.466-.28-5.358-.383-6.619.566.04-.23.234-.61.234-.61s-1.083.378-1.719 1.172c-.102-.444.106-.992.106-.992s-.835.516-1.245 1.195c-.125-1.354.927-2.22.927-2.22s-.373.146-.696.427c.449-1.749 3.525-2.01 3.525-2.01s-.454-.055-.957.03c2.654-.938 5.822-.3 7.187.334 2.015.936.589 2.259-.743 2.108z" style="fill:url(#i)"/><linearGradient id="j" x1="18.085" x2="17.499" y1="31.81" y2="28.488" gradientUnits="userSpaceOnUse"><stop offset="0" style="stop-color:#d4dee6"/><stop offset=".248" style="stop-color:#e6ebf0"/><stop offset=".597" style="stop-color:#f8fafb"/><stop offset=".842" style="stop-color:#fff"/></linearGradient><path d="M23.535 30.52c-.605-.906-3.236-1.342-5.08-.952 1.529.036 2.495 1.047 2.495 1.047s-3.359-.86-5.747-.314c1.988.075 2.99.525 2.99.525s-3.594-.587-4.535.351c.847-.203 1.597-.117 1.597-.117s-1.4.513-1.561 1.522c-.102-.444.106-.992.106-.992s-.835.516-1.245 1.195c-.125-1.354.927-2.22.927-2.22s-.373.146-.696.427c.449-1.749 3.525-2.01 3.525-2.01s-.453-.055-.957.03c2.333-1.077 8.29-.403 8.181 1.507z" style="fill:url(#j)"/><linearGradient id="k" x1="27.715" x2="27.715" y1="37.872" y2="37.02" gradientUnits="userSpaceOnUse"><stop offset="0" style="stop-color:#6b7578"/><stop offset="1" style="stop-color:#9caaae"/></linearGradient><path d="m26.08 37.872-.206-.455a4.469 4.469 0 0 1 3.682 0l-.206.455a3.979 3.979 0 0 0-3.27 0z" style="fill:url(#k)"/><linearGradient id="l" x1="46.309" x2="46.309" y1="38.118" y2="36.618" gradientUnits="userSpaceOnUse"><stop offset="0" style="stop-color:#6b7578"/><stop offset="1" style="stop-color:#9caaae"/></linearGradient><path d="m44.663 38.118 3.291-1v-.5l-3.29 1z" style="fill:url(#l)"/><linearGradient id="m" x1="9.101" x2="9.101" y1="38.118" y2="36.618" gradientUnits="userSpaceOnUse"><stop offset="0" style="stop-color:#6b7578"/><stop offset="1" style="stop-color:#9caaae"/></linearGradient><path d="M10.746 38.118v-.5l-3.29-1v.5z" style="fill:url(#m)"/><linearGradient id="n" x1="37.091" x2="37.091" y1="43.2" y2="36.66" gradientUnits="userSpaceOnUse"><stop offset="0" style="stop-color:#fff;stop-opacity:0"/><stop offset="1" style="stop-color:#fff;stop-opacity:.8"/></linearGradient><path d="M43.56 36.66H30.7c-2.305 0-1.109 3.334.853 5.474 1.468 1.601 10.141 1.35 11.406-.429 1.536-2.16 2.805-5.045.601-5.045z" style="fill:url(#n)"/><linearGradient id="o" x1="-82.281" x2="-82.281" y1="43.2" y2="36.66" gradientTransform="matrix(-1 0 0 1 -63.963 0)" gradientUnits="userSpaceOnUse"><stop offset="0" style="stop-color:#fff;stop-opacity:0"/><stop offset="1" style="stop-color:#fff;stop-opacity:.8"/></linearGradient><path d="M11.85 36.66h12.86c2.305 0 1.108 3.334-.853 5.474-1.468 1.601-10.142 1.35-11.407-.429-1.536-2.16-2.805-5.045-.6-5.045z" style="fill:url(#o)"/><linearGradient id="p" x1="37.092" x2="37.092" y1="43.451" y2="36.41" gradientUnits="userSpaceOnUse"><stop offset="0" style="stop-color:#6b7578"/><stop offset="1" style="stop-color:#9caaae"/></linearGradient><path d="M36.556 43.451c-2.228 0-4.44-.332-5.187-1.147-1.428-1.558-2.583-3.9-2.045-5.124.155-.351.519-.77 1.376-.77h12.86c.79 0 1.134.348 1.285.64.676 1.31-1.117 4.005-1.682 4.8-.852 1.198-4.187 1.495-5.19 1.557-.463.03-.94.044-1.417.044zm-5.856-6.54c-.478 0-.778.153-.918.47-.395.897.5 2.997 1.955 4.585.658.716 3.323 1.12 6.206.942 2.45-.152 4.339-.682 4.813-1.348 1.336-1.878 1.997-3.6 1.645-4.28-.128-.249-.403-.37-.84-.37H30.7z" style="fill:url(#p)"/><linearGradient id="q" x1="18.317" x2="18.317" y1="43.451" y2="36.41" gradientUnits="userSpaceOnUse"><stop offset="0" style="stop-color:#6b7578"/><stop offset="1" style="stop-color:#9caaae"/></linearGradient><path d="M18.853 43.451c-.476 0-.953-.015-1.417-.044-1.002-.062-4.338-.36-5.19-1.557-.565-.795-2.357-3.49-1.681-4.8.15-.292.495-.64 1.284-.64h12.86c.858 0 1.221.419 1.376.77.538 1.223-.617 3.566-2.044 5.124-.748.815-2.96 1.147-5.188 1.147zm-7.004-6.54c-.437 0-.712.12-.84.368-.352.682.31 2.403 1.645 4.281.474.667 2.363 1.196 4.813 1.348 2.882.18 5.548-.225 6.206-.942 1.454-1.588 2.35-3.688 1.955-4.585-.14-.317-.44-.47-.919-.47H11.85z" style="fill:url(#q)"/><path d="M13.817 11.27c7.6 7.25 30.222 11.79 34.142 27.76C42.609 23 22.938 27.5 13.817 11.27z" style="fill:#b3c2c6"/><path d="M27.708 5c-8.83 0-13.24 4-14.14 5.9 11.01 16.81 29.67 11.12 34.391 28.14C57.449 23.93 49.569 5 27.708 5z" style="fill:#cad4db"/><path d="M27.708 5c-7.864 0-13.047 3.194-14.14 5.9 3.807 10.258 29.946 10.57 35.01 24.203-1.066-9.784-8.817-16.308-8.817-16.308s6.971 4.502 10.438 10.857c-.646-9.125-7.84-14.379-7.84-14.379s6.487 4.503 8.63 9.692C49.722 14.445 44.669 5 27.708 5z" style="fill:#dae2e8"/><path d="M46.365 15.543C39.071 3.258 23.406 6.496 23.406 6.496s13.035.677 22.96 9.047z" style="fill:#e6ebef"/><path d="M47.003 23.191C36.528 3.588 16.947 10.004 16.947 10.004s16.94-.652 30.056 13.187z" style="fill:#e6ebef"/><path d="M18.054 12.704c10.79 4 23.175 11.207 23.175 11.207s-7.322-10.999-23.175-11.207z" style="fill:#e6ebef"/><path d="M13.567 10.9c-10.67 2.44-14.11 20.45-6.12 28.13.99-8.19 1.95-13.45 7.39-18.99 0 0 .32-4.87-1.27-9.14z" style="fill:#cad4db"/><path d="M14.587 19.41s-7.01 6.5-7.14 19.62c1.2-13 7.46-18.87 7.46-18.87l-.32-.75z" style="fill:#b3c2c6"/><path d="M13.677 11.27s-12.38 4.23-8.85 21.27c.08-1.373.268-2.644.52-3.84-.024 2.126.293 4.46 1.11 7.01 1.07-11.84 7.94-17.62 7.94-17.62l-.72-6.82z" style="fill:#dae2e8"/><path d="M6.054 28.501c1.58-8.85 8.607-14.685 8.607-14.685S4.892 14.46 6.053 28.5z" style="fill:#e6ebef"/><path d="M13.567 10.9c-2.91 13.2 11.04 15.79 16.951 15.79-10.62-7.36-16.95-15.79-16.95-15.79z" style="fill:#cad4db"/><path d="M13.217 13.25c.28 7.56 4.4 12.28 17.301 13.44-10.09.68-18.851-4.36-17.3-13.44z" style="fill:#b3c2c6"/><path d="M13.567 10.9s-1.615 11.887 16.951 15.79c-10.232-7.895-12.082-12.454-16.95-15.79z" style="fill:#dae2e8"/><path d="M24.228 23.233c-3.274-2.138-8.558-9.85-8.558-9.85s1.034 7.968 8.558 9.85z" style="fill:#e6ebef"/><linearGradient id="r" x1="3.366" x2="51.659" y1="11.066" y2="11.066" gradientUnits="userSpaceOnUse"><stop offset="0" style="stop-color:red"/><stop offset=".176" style="stop-color:#fb0001"/><stop offset=".351" style="stop-color:#ef0002"/><stop offset=".526" style="stop-color:#db0005"/><stop offset=".699" style="stop-color:#c00008"/><stop offset=".764" style="stop-color:#b3000a"/></linearGradient><path d="M29.204 1C21.197 1 3.366 12.151 3.366 21.131H51.66C49.945 9.799 36.279 1 29.204 1z" style="fill:url(#r)"/><path d="M30.774 6.419C42.202 11.497 46.1 16.338 46.1 16.338s1.594-1.975 1.542-5.078c-.013-.753-.948 1.69-2.09.969-7.241-4.575-14.78-5.81-14.78-5.81z" style="fill:#950000"/><linearGradient id="s" x1="3081.942" x2="3081.942" y1="203.842" y2="222.782" gradientTransform="rotate(180 1554.808 118.082)" gradientUnits="userSpaceOnUse"><stop offset="0" style="stop-color:#beccd6"/><stop offset=".54" style="stop-color:#dbe5eb"/><stop offset="1" style="stop-color:#f0f6fa"/></linearGradient><path d="M1.075 20.98s-.653 2.301 1.888 3.19c-1.924 1.437-1.517 4.784-1.517 4.784s.596-1.003 1.654-1.14c-1.974 2.25-.445 4.508-.445 4.508s.143-.916 1.912-1.638c0 0-.221.821.066 1.416 0 0 3.722-2.72 14.68-4.47-.766.513-1.326 1.533-1.326 1.533s6.016-1.639 11.413-1.803c-1.86.51-2.378 1.519-2.378 1.519s3.757-1.604 6.918-1.473c-2.237.453-3.625 1.485-3.625 1.485s6.813-1.552 12.307-.705c-1.579.143-2.86.938-2.86.938s10.987-.813 10.362 3.042c0 0 2.68-.463 2.055-3.665.577.3 2.057 1.311 2.057 1.311s.795-2.366-1.86-5.458c2.062-1.599 1.787-4.187 1.787-4.187s-.288 1.008-1.342 1.996c1.872-3.234-1.234-5.383-1.234-5.383s.568.801-.064 1.788c-1.652-2.804-7.01-3.799-7.01-3.799s.823.545.87 1.283c-7.006-2.966-14.772-2.66-14.772-2.66s1.504.425 2.452 1.126c-7.797-1.203-13.647.348-19.088.408.718-.335 2.242-.64 2.242-.64s-5.285-.243-10.347 2.197c.39-.617 1.253-1.027 1.253-1.027s-5.564 1.142-4.637 5.054c-.93-.685-.888-1.442-.888-1.442s-.825 1.431.83 3.044c-.88-.337-1.353-1.132-1.353-1.132z" style="fill:url(#s)"/><linearGradient id="t" x1="3081.919" x2="3081.919" y1="204.831" y2="222.782" gradientTransform="rotate(180 1554.808 118.082)" gradientUnits="userSpaceOnUse"><stop offset="0" style="stop-color:#ebf2f7"/><stop offset=".516" style="stop-color:#f8fbfc"/><stop offset="1" style="stop-color:#fff"/></linearGradient><path d="M1.392 21.825s.092 1.428 2.633 2.317c-1.924 1.437-1.852 3.379-1.852 3.379s1.411-1.37 3.245-1.12c-2.271 1.74-2.464 4.24-2.464 4.24s.945-.753 2.714-1.475c0 0-.673 1.275-.386 1.87 0 0 5.257-3.58 16.496-5.094-.896.421-2.069 2.438-2.069 2.438s6.27-2.04 11.667-2.203c-1.224.574-1.61 1.406-1.61 1.406s4.437-2.21 7.599-2.078c-1.594.558-3.317 2.375-3.317 2.375s6.37-1.19 11.849-.599c-1.58.143-3.771 1.443-3.771 1.443s8.985-1.247 8.36 2.61c0 0 1.453-.94.828-4.142.576.301 2.687 1.891 2.687 1.891s-1.02-3.307-3.012-4.118c2.06-1.599 2.7-3.038 2.7-3.038s-1.11 1-2.03 1.264c1.873-3.234.53-5.264.53-5.264s-.079.75-.813 1.422c-1.652-2.804-6.864-4.58-6.864-4.58s.824.545.87 1.283c-7.005-2.966-14.77-2.66-14.77-2.66s1.503.425 2.451 1.126c-7.798-1.203-13.647.348-19.088.408.718-.335 2.242-.64 2.242-.64s-5.285-.243-10.347 2.197c.39-.617 1.253-1.027 1.253-1.027s-5.147 1.55-4.22 5.463c-.847-.212-1.293-1.039-1.293-1.039s-.03 1.152 1.625 2.766c-.732.155-1.843-.82-1.843-.82z" style="fill:url(#t)"/></svg>