<svg xmlns="http://www.w3.org/2000/svg" xml:space="preserve" style="enable-background:new 0 0 64 64" viewBox="0 0 64 64"><linearGradient id="a" x1="-583.738" x2="-581.585" y1="-265.139" y2="-265.139" gradientTransform="rotate(45.001 -681.374 609.774)" gradientUnits="userSpaceOnUse"><stop offset="0" style="stop-color:#ecf1f5"/><stop offset=".272" style="stop-color:#e1e7eb"/><stop offset=".742" style="stop-color:#c5ccd0"/><stop offset="1" style="stop-color:#b3babf"/></linearGradient><path d="M7.838 61.684a1.077 1.077 0 1 1-1.523-1.522 1.077 1.077 0 0 1 1.523 1.522z" style="fill:url(#a)"/><linearGradient id="b" x1="-126.056" x2="-125.515" y1="125.22" y2="125.22" gradientTransform="rotate(45.001 39.985 262.461)" gradientUnits="userSpaceOnUse"><stop offset=".085" style="stop-color:#cfd8dd"/><stop offset=".891" style="stop-color:#a0aeb4"/><stop offset="1" style="stop-color:#99a8ae"/></linearGradient><path d="m28.747 39.759-.51-.51S15.16 52.338 11.047 56.44c-.247.25.262.76.512.51 4.123-4.12 17.188-17.191 17.188-17.191z" style="fill:url(#b)"/><linearGradient id="c" x1="-126.156" x2="-125.434" y1="136.287" y2="136.287" gradientTransform="rotate(45.001 39.985 262.461)" gradientUnits="userSpaceOnUse"><stop offset="0" style="stop-color:#ff000e"/><stop offset=".234" style="stop-color:#fa000d"/><stop offset=".501" style="stop-color:#ec000a"/><stop offset=".784" style="stop-color:#d60005"/><stop offset="1" style="stop-color:#bf0000"/></linearGradient><path d="M16.686 51.822c-.167.169-.647-.368-.514-.501l-8.773 8.77c-.17.17.34.68.511.509l8.776-8.778z" style="fill:url(#c)"/><linearGradient id="d" x1="-99.193" x2="-97.084" y1="82.143" y2="82.143" gradientTransform="rotate(35 37.278 263.879)" gradientUnits="userSpaceOnUse"><stop offset="0" style="stop-color:#5b666e"/><stop offset=".3" style="stop-color:#525a64"/><stop offset=".839" style="stop-color:#3c3b49"/><stop offset="1" style="stop-color:#343040"/></linearGradient><path d="M28.77 40.01c-.211.236-1.023-.572-.784-.782 1.394-1.232 2.724-2.51 3.924-3.924.971-1.052 1.84-.187.785.782-1.416 1.2-2.694 2.53-3.925 3.924z" style="fill:url(#d)"/><linearGradient id="e" x1="38.115" x2="30.539" y1="33.985" y2="30.633" gradientUnits="userSpaceOnUse"><stop offset="0" style="stop-color:#69452d"/><stop offset=".078" style="stop-color:#6f4b33"/><stop offset=".371" style="stop-color:#825d43"/><stop offset=".674" style="stop-color:#8d684d"/><stop offset="1" style="stop-color:#916b50"/></linearGradient><path d="M38.168 26.026c-1.668 1.646-5.398 6.336-5.875 6.902-.46.55-1.982 1.924-2.13 2.44-.477 1.64-.946 1.996-.891 2.687l.935-.906s.553-.703.906-.504c-.927 1.287-.308 2.18.004 1.678.803-1.299 1.543-1.881 1.53-2.941-.004-.43.697-1.083.996-1.36 2.167-2.01 3.792-2.573 4.626-3.367 0 0-.069-4.697-.1-4.63z" style="fill:url(#e)"/><path d="M33.022 34.682c.209.018.853-.635.62-.66-2.558-.29-2.747.158-3.011.66 0 0 .688-.142 2.39 0z" style="fill:#302c3b"/><path d="M37.7 9.072c-.28-2.21 2.288-3.303.714-5.15-2.73 1.17-2.323 3.3-.714 5.15z" style="fill:#3d2e24"/><linearGradient id="f" x1="46.117" x2="40.279" y1="14.075" y2="14.075" gradientUnits="userSpaceOnUse"><stop offset=".307" style="stop-color:#916b50"/><stop offset=".519" style="stop-color:#8c674c"/><stop offset=".756" style="stop-color:#7f5a40"/><stop offset="1" style="stop-color:#69452d"/></linearGradient><path d="M40.28 15.385c.833-.376.938.824.938 1.26 0 1.389 2.24.693 4.899-1.54-.175-.64-.124-2.38-.124-2.38-1.218-3.772-2.993-1.569-5.714 2.66z" style="fill:url(#f)"/><path d="M37.757 5.59c-.26.727-.928 2.176-.367 3.173.251.446-.243 1.5-.823 2.14-.252.276-.328.636-.175.843.234.316.63.139.806.379.287.39-.057.636-.056.806 0 0 1.004.171.424 1.066.101.102.32.058.171.787-.098.481.373 1.144.99.998 3.898-.924 5.187-1.568 5.537-4.232.562-4.272 1.563-8.805-6.507-5.96z" style="fill:#916b50"/><path d="M37.142 12.931c-.067.477.872.84 1.535.33-1.043.166-1.267-.423-1.535-.33z" style="fill:#69452d"/><path d="M37.568 13.444c-.237.17-.224.424-.002.553.454-.107.907-.25 1.111-.735-.52.275-1.11.182-1.11.182zm-1.235-1.819c.092.56 1.747.803 1.672-.04-.217.79-1.731-.324-1.672.04z" style="fill:#69452d"/><path d="M39.301 9.519c-.315.508-1.048.626-1.048.626-.26-.227-.286-.781-.215-1.084.38-.06 1.264.458 1.264.458z" style="fill:#fff"/><linearGradient id="g" x1="-39.77" x2="-39.77" y1="12.155" y2="10.918" gradientTransform="matrix(.5738 -.061 .1057 .9944 59.787 -4.367)" gradientUnits="userSpaceOnUse"><stop offset="0" style="stop-color:#a6694a"/><stop offset="1" style="stop-color:#4f2a1e"/></linearGradient><path d="M37.93 9.591c.068.777.602.72.52-.055-.077-.72-.606-.943-.52.055z" style="fill:url(#g)"/><path d="M37.995 9.562c.039.366.248.344.21-.022-.037-.34-.246-.317-.21.022z" style="fill:#1a1626"/><path d="M38.12 9.393c.019.182.123.171.103-.01-.018-.17-.122-.159-.104.01z" style="fill:#ab968c"/><path d="M39.302 9.519c-.443-.479-.955-.673-1.311-.658-.07.164-.035.232-.035.232s.317-.103 1.346.426z" style="fill:#69452d"/><path d="M39.267 8.44c-.414-.364-1.151-.647-1.84-.334-.099.045.022.457.102.422.529-.237 1.057-.16 1.72.23.078.045.1-.246.018-.318z" style="fill:#523c31"/><path d="M48.027 5.634c-.969-2.212-2.609-3.407-5.79-3.618-2.577-.172-4.819 1.138-5.366 2.791-.766 2.304 2.98 2.469 4.071 4.476 0 0 .574-1.04-.236-2.88 1.694 2.116 2.627 2.88 3.549 3.23.482 1.77.495 3.543.196 5.022.701-.203 1.327-.65 1.838-1.238a30.9 30.9 0 0 1-.053 1.12c2.029-1.529 3.102-5.909 1.791-8.903z" style="fill:#5c4233"/><path d="M47.848 5.722c-.896-2.243-2.43-3.496-5.61-3.706-2.578-.172-4.86 1.224-5.155 2.687-.273 1.354.312 1.76 3.323 3.515 0 0-.08-2.226-1.57-3.461 3.106 1.365 3.282 3.214 5.228 4.007 2.205.899 1.544 2.742 1.466 4.406 1.419-1.328 1.604-3.777 1.604-3.777s.19 1.706-.184 3.658c1.474-1.659 1.788-5.1.898-7.33z" style="fill:#6b4d3c"/><path d="M44.284 8.081c-1.185.26-1.463 2.88-.55 3.43.128.078.785.136 1.107-.51.18-.357.852-.73.922-1.426.091-.893-.301-1.753-1.48-1.494z" style="fill:#916b50"/><path d="M44.363 8.564c-.3.106-.572.45-.642.969.498-.13.546.835.11 1.026.034.113.074.228.126.347.362-.478.87-.378 1.187-1.058.287-.614-.037-1.545-.781-1.284z" style="fill:#69452d"/><path d="M34.528 60.056c.233.086.083 1.7-1.17 1.7h-2.876c-2.053 0-3.974-.736-5.126-1.877-1.103-1.093-1.682-1.85-1.165-2.53 5.236 1.957 9.979 2.575 10.337 2.707zM31.36 56.49c1.002.428-.162 2.32-3.903 1.26 2.814-.196 3.722-1.337 3.903-1.26z" style="fill:#6e8189"/><path d="M34.224 57.488c.172.293.527 1.531.304 2.568-1.211 1.087-2.64.157-4.06.572-3.146.918-6.643-2.62-6.267-3.3.62-1.116 1.232 1.205 6.555.048 1.915-.417 3.298-.181 3.468.112z" style="fill:#99a8ae"/><path d="M29.92 57.208c.221.856.712.658.491-.198-.018-.072-.51.126-.49.198zm-.69.249c.183.706.668.555.486-.15-.016-.06-.501.091-.486.15zm-.687.143c.08.559.582.447.501-.113-.007-.046-.508.066-.502.112zm-.666.09c.037.458.5.398.462-.061-.003-.038-.465.022-.462.06z" style="fill:#1a1626"/><path d="M57.264 55.7c.226-.102 1.272 1.144.385 2.022l-2.033 2.014C54.164 61.174 52.281 62 50.652 62c-1.56 0-2.51-.13-2.63-.972 5.1-2.285 8.894-5.169 9.242-5.327zm-4.786-.302c1.014-.4 1.541 1.753-1.86 3.625 1.85-2.11 1.677-3.552 1.86-3.625z" style="fill:#6e8189"/><path d="M55.216 54.097c.33.087 1.465.714 2.048 1.603-.081 1.617-1.756 1.961-2.464 3.249-1.568 2.853-6.567 2.8-6.785 2.056-.36-1.223 1.73-.011 4.668-4.558 1.057-1.636 2.203-2.437 2.533-2.35z" style="fill:#99a8ae"/><path d="M51.972 56.914c.768.45.974-.034.206-.484-.064-.038-.27.446-.206.484zm-.309.659c.632.372.868-.075.235-.446-.053-.032-.289.416-.235.446zm-.385.583c.456.34.73-.091.274-.43-.038-.029-.313.401-.274.43zm-.407.529c.354.299.638-.068.284-.366-.03-.025-.313.341-.284.366z" style="fill:#1a1626"/><path d="M47.003 31.765c-8.4-1.226-8.376 2.776-8.376 2.776 1.232 6.002 4.02 13.296 5.03 14.543.845 1.04 5.38 4.57 8.315 7.83 2.054-.915 5.502-1.41 4.501-2.331-3.808-3.504-7.768-8.958-7.768-8.958-2.791-4.418-2.94-9.706-1.702-13.86z" style="fill:#2a4178"/><path d="M47.003 31.765s-5.336-2.567-7.318 2.238c-.679 4.633-4.668 9.125-5.367 10.58-.762 1.59-1.96 8.652-3.85 12.187.802 2.308 3.746 4.223 4.198 3.122 2.164-5.269 5.218-13.057 5.218-13.057 5.991-8.127 9.462-7.689 7.12-15.07z" style="fill:#2b4f87"/><path d="M47.147 32.205s-4.015.166-8.52 2.416c-1.36-5.857-1.214-14.788 2.591-17.975.761 1.48 3.539-1.11 4.899-1.541 5.119 4.77-.271 10.498 1.03 17.1z" style="fill:#ff7a00"/><path d="M52.038 25.152c-.182-.502-1.218-2.333-2.262-4.131a63.13 63.13 0 0 0-3.5 1.816c1.02 1.365 2.07 2.813 2.625 3.71.18 2.476 1.03 4.95.75 7.856-.127 1.259-.991.5-1.71 3.14-.113.414.862.36 1.18-.591.988.398-1.1 3.638.401 3.045.543.156 1.932-.422 2.506-2.422.092-.324.144-2.747.078-3.07-.251-1.248.259-8.469-.068-9.353z" style="fill:#916b50"/><path d="M50.272 38.2s-.253 1.306-.75 1.796c.67-.406.75-1.796.75-1.796zm.83-.395s-.333 1.592-.83 2.083c.67-.406.83-2.083.83-2.083zm.533-.09s-.173 1.217-.67 1.708c.67-.406.67-1.708.67-1.708z" style="fill:#69452d"/><path d="M50.868 22.405a83.159 83.159 0 0 0-3.387-5.621c-1.503-2.296-5.049-.164-3.83 2.301.66 1.341 1.714 3.123 3.39 5.51a25.218 25.218 0 0 1 3.827-2.19z" style="fill:#ed6a00"/><path d="M47.793 7.739c-1.27-6.091-6.322-5.454-6.322-5.454s4.143.924 6.322 5.454z" style="fill:#7a5b49"/><path d="M46.291 8.081c-1.663-5.239-6.2-5.368-6.2-5.368s3.408 1.877 6.2 5.368zm-7.845-1.379c-.78-2.099-.42-3.203-.42-3.203s-1.546 1.275.42 3.203zm5.51.656c-1.939-2.536-4.044-3.788-4.044-3.788s.523 1.922 4.044 3.788z" style="fill:#7a5b49"/></svg>