<svg xmlns="http://www.w3.org/2000/svg" xml:space="preserve" viewBox="0 0 64 64"><linearGradient id="a" x1="32" x2="32" y1="28.6" y2="3" gradientUnits="userSpaceOnUse"><stop offset="0" style="stop-color:#db0100"/><stop offset=".584" style="stop-color:#f31317"/><stop offset="1" style="stop-color:#ff1c23"/></linearGradient><path fill="url(#a)" d="M31.999 6.864c-4.197-6.818-15.805-4.157-15.807 4.41 0 5.148 4.318 8.785 12.746 15.594 2.857 2.309 3.264 2.31 6.125 0 8.42-6.81 12.742-10.443 12.744-15.597.001-8.563-11.612-11.225-15.808-4.407z"/><path fill="#3D2E24" d="M4.732 47.565s.37 3.581-.541 5.992c1.28-.138 1.611-.783 1.611-.783s-.044 1.677-.695 2.852c1.203.199 1.942-.397 1.942-.397s0 1.269.094 2.141c3.504-.905 3.294-4.982 3.294-4.982l-5.705-4.823zm24.663 5.992c-.91-2.417-.541-5.992-.541-5.992l-5.7 4.822s-.21 4.077 3.294 4.982c.094-.872.094-2.141.094-2.141s.739.596 1.942.397c-.657-1.17-.695-2.852-.695-2.852s.326.646 1.606.784z"/><path fill="#916B50" d="M28.727 43.102c-1.848.226-3.184 6.411-2.019 8.044.16.226 1.115.59 1.821-.85.392-.8 1.517-1.462 1.87-3.112.447-2.107.171-4.303-1.672-4.082zm-23.868 0c1.848.226 3.184 6.411 2.019 8.044-.16.226-1.115.59-1.821-.85-.392-.8-1.517-1.462-1.87-3.112-.447-2.107-.165-4.303 1.672-4.082z"/><path fill="#69452D" d="M28.678 44.288c-.48.154-1.01.888-1.291 2.108 1.683-.364 1.263 2.444-.199 2.499.011.281.033.574.066.877.706-1.026 1.423-.612 2.135-2.141.635-1.373.486-3.718-.711-3.343zM6.2 46.39c-.287-1.219-.811-1.953-1.291-2.102-1.192-.375-1.346 1.97-.706 3.343.712 1.523 1.429 1.114 2.135 2.141.033-.309.055-.596.066-.883-1.451-.066-1.865-2.835-.204-2.499z"/><path fill="#916B50" d="M16.793 31.207c-8.006 0-11.863 6.521-11.382 14.902.099 1.683.568 4.116 1.148 6.201C7.756 56.641 13.053 61 16.793 61c3.741 0 9.032-4.359 10.235-8.69.579-2.085 1.048-4.513 1.148-6.201.48-8.381-3.377-14.902-11.383-14.902z"/><path fill="#523C31" d="M25.494 42.484c-1.832-.971-5.335-1.015-6.637-.342-.281.132-.094 1.048.138.96 1.821-.717 4.756-.734 6.455.061.226.11.32-.541.044-.679zm-17.402 0c1.832-.971 5.335-1.015 6.643-.342.281.132.094 1.048-.138.96-1.821-.717-4.751-.734-6.455.061-.232.11-.326-.541-.05-.679z"/><path fill="#69452D" d="M18.956 50.898c-.226-.16-.767.088-2.163.088s-1.931-.248-2.163-.088c-.276.193.16 1.065 2.163 1.065 1.997 0 2.433-.872 2.163-1.065zm-2.163 3.299c-1.799-.53-4.469.254-4.469.254 1.015 1.109 1.76 2.543 4.469 2.543 3.101 0 3.631-1.628 4.469-2.543 0-.006-2.67-.789-4.469-.254z"/><path fill="#FFF" d="M12.997 54.633c1.887 1.583 5.7 1.594 7.598 0-2.014.088-5.573.088-7.598 0zm2.014-8.844c.066.53-.292 1.159-1.286 1.628-.634.298-1.948.651-3.68-.077-.772-.326-1.528-1.346-1.462-1.909.938-1.766 5.551-2.025 6.428.358z"/><linearGradient id="b" x1="-1212.521" x2="-1212.521" y1="175.143" y2="174.591" gradientTransform="translate(7978.266 -1103.139) scale(6.5701)" gradientUnits="userSpaceOnUse"><stop offset="0" style="stop-color:#a6694a"/><stop offset="1" style="stop-color:#4f2a1e"/></linearGradient><path fill="url(#b)" d="M11.883 43.941c.999 0 1.815.811 1.815 1.81s-.811 1.81-1.815 1.81a1.815 1.815 0 0 1-1.815-1.81 1.81 1.81 0 0 1 1.815-1.81z"/><path fill="#1A1626" d="M10.978 45.723c0 1.252 1.815 1.252 1.815 0-.006-1.164-1.815-1.164-1.815 0z"/><path fill="#AB968C" d="M10.702 45.215c0 .524.761.524.761 0-.005-.491-.761-.491-.761 0z"/><path fill="#69452D" d="M15.022 45.861c-.734-2.367-5.755-2.014-6.439-.425.254-2.042 5.81-2.577 6.439.425z"/><path fill="#FFF" d="M18.575 45.789c-.066.53.292 1.159 1.286 1.628.635.298 1.948.651 3.68-.077.778-.326 1.528-1.346 1.462-1.909-.938-1.766-5.55-2.025-6.428.358z"/><linearGradient id="c" x1="-1213.731" x2="-1213.731" y1="175.143" y2="174.591" gradientTransform="translate(7995.996 -1103.139) scale(6.5701)" gradientUnits="userSpaceOnUse"><stop offset="0" style="stop-color:#a6694a"/><stop offset="1" style="stop-color:#4f2a1e"/></linearGradient><path fill="url(#c)" d="M21.665 43.941a1.815 1.815 0 1 1 0 3.63 1.815 1.815 0 0 1 0-3.63z"/><path fill="#1A1626" d="M20.76 45.723c0 1.252 1.815 1.252 1.815 0-.005-1.164-1.815-1.164-1.815 0z"/><path fill="#AB968C" d="M20.484 45.215c0 .524.761.524.761 0-.005-.491-.761-.491-.761 0z"/><path fill="#69452D" d="M18.564 45.861c.734-2.361 5.749-2.025 6.433-.425-.248-2.042-5.804-2.577-6.433.425z"/><path fill="#3D2E24" d="M9.251 32.459c4.193 4 16.674 6.505 18.837 15.316-2.952-8.844-13.805-6.361-18.837-15.316z"/><path fill="#5C4233" d="M16.914 29c-4.872 0-7.305 2.207-7.802 3.255 6.075 9.274 16.37 6.135 18.975 15.525C33.323 39.444 28.976 29 16.914 29z"/><path fill="#6B4D3C" d="M16.914 29c-4.339 0-7.198 1.762-7.802 3.255 2.101 5.66 16.522 5.832 19.316 13.353-.589-5.398-4.865-8.997-4.865-8.997s3.846 2.484 5.759 5.99c-.356-5.034-4.326-7.933-4.326-7.933s3.579 2.484 4.761 5.347C29.06 34.211 26.272 29 16.914 29z"/><path fill="#7A5B49" d="M27.208 34.817c-4.024-6.779-12.667-4.992-12.667-4.992s7.192.374 12.667 4.992z"/><path fill="#7A5B49" d="M27.56 39.037c-5.779-10.816-16.582-7.275-16.582-7.275s9.345-.36 16.582 7.275z"/><path fill="#7A5B49" d="M11.588 33.251c5.953 2.207 12.787 6.183 12.787 6.183s-4.04-6.068-12.787-6.183z"/><path fill="#5C4233" d="M9.113 32.255c-5.887 1.346-7.785 11.283-3.377 15.52.546-4.519 1.076-7.421 4.077-10.477.001 0 .177-2.687-.7-5.043z"/><path fill="#3D2E24" d="M9.676 36.95s-3.868 3.586-3.939 10.825c.662-7.172 4.116-10.411 4.116-10.411l-.177-.414z"/><path fill="#6B4D3C" d="M9.174 32.459s-6.831 2.334-4.883 11.735c.044-.758.148-1.459.287-2.119-.013 1.173.162 2.461.613 3.868.59-6.532 4.381-9.721 4.381-9.721l-.398-3.763z"/><path fill="#7A5B49" d="M4.967 41.966c.872-4.882 4.749-8.102 4.749-8.102s-5.389.356-4.749 8.102z"/><path fill="#5C4233" d="M9.113 32.255c-1.606 7.283 6.091 8.712 9.352 8.712-5.86-4.061-9.352-8.712-9.352-8.712z"/><path fill="#3D2E24" d="M8.92 33.552c.154 4.171 2.428 6.775 9.545 7.415-5.567.375-10.401-2.406-9.545-7.415z"/><path fill="#6B4D3C" d="M9.113 32.255s-.891 6.558 9.352 8.712c-5.645-4.356-6.666-6.871-9.352-8.712z"/><path fill="#7A5B49" d="M14.995 39.06c-1.806-1.179-4.722-5.435-4.722-5.435s.57 4.396 4.722 5.435z"/><path fill="#1A1714" d="M35.145 47.565s.37 3.581-.541 5.992c1.28-.138 1.611-.783 1.611-.783s-.044 1.677-.695 2.852c1.203.199 1.942-.397 1.942-.397s0 1.269.094 2.141c3.504-.905 3.294-4.982 3.294-4.982l-5.705-4.823zm24.663 5.992c-.91-2.417-.541-5.992-.541-5.992l-5.7 4.822s-.21 4.077 3.294 4.982c.094-.872.094-2.141.094-2.141s.739.596 1.942.397c-.657-1.17-.695-2.852-.695-2.852s.326.646 1.606.784z"/><path fill="#735C48" d="M59.14 43.102c-1.848.226-3.184 6.411-2.019 8.044.16.226 1.115.59 1.821-.85.392-.8 1.517-1.462 1.87-3.112.447-2.107.171-4.303-1.672-4.082zm-23.868 0c1.848.226 3.184 6.411 2.019 8.044-.16.226-1.115.59-1.821-.85-.392-.8-1.517-1.462-1.87-3.112-.447-2.107-.166-4.303 1.672-4.082z"/><path fill="#4A3728" d="M59.091 44.288c-.48.154-1.01.888-1.291 2.108 1.683-.364 1.263 2.444-.199 2.499.011.281.033.574.066.877.706-1.026 1.423-.612 2.135-2.141.635-1.373.486-3.718-.711-3.343zM36.613 46.39c-.287-1.219-.811-1.953-1.291-2.102-1.192-.375-1.346 1.97-.706 3.343.712 1.523 1.429 1.114 2.135 2.141.033-.309.055-.596.066-.883-1.451-.066-1.865-2.835-.204-2.499z"/><path fill="#735C48" d="M47.206 31.207c-8.006 0-11.863 6.521-11.382 14.902.099 1.683.568 4.116 1.148 6.201C38.168 56.641 43.465 61 47.206 61c3.741 0 9.032-4.359 10.235-8.69.579-2.085 1.048-4.513 1.148-6.201.48-8.381-3.377-14.902-11.383-14.902z"/><path fill="#302B27" d="M55.907 42.484c-1.832-.971-5.335-1.015-6.637-.342-.281.132-.094 1.048.138.96 1.821-.717 4.756-.734 6.455.061.226.11.32-.541.044-.679zm-17.402 0c1.832-.971 5.335-1.015 6.643-.342.281.132.094 1.048-.138.96-1.821-.717-4.751-.734-6.455.061-.232.11-.326-.541-.05-.679z"/><path fill="#4A3728" d="M49.369 50.898c-.226-.16-.767.088-2.163.088s-1.931-.248-2.163-.088c-.276.193.16 1.065 2.163 1.065 1.997 0 2.433-.872 2.163-1.065zm-2.163 3.299c-1.799-.53-4.469.254-4.469.254 1.015 1.109 1.76 2.543 4.469 2.543 3.101 0 3.631-1.628 4.469-2.543 0-.006-2.67-.789-4.469-.254z"/><path fill="#FFF" d="M43.41 54.633c1.887 1.583 5.7 1.594 7.598 0-2.014.088-5.573.088-7.598 0zm2.014-8.844c.066.53-.292 1.159-1.286 1.628-.634.298-1.948.651-3.68-.077-.772-.326-1.528-1.346-1.462-1.909.938-1.766 5.551-2.025 6.428.358z"/><linearGradient id="d" x1="-1207.892" x2="-1207.892" y1="175.143" y2="174.591" gradientTransform="translate(7978.266 -1103.139) scale(6.5701)" gradientUnits="userSpaceOnUse"><stop offset="0" style="stop-color:#a6694a"/><stop offset="1" style="stop-color:#4f2a1e"/></linearGradient><path fill="url(#d)" d="M42.295 43.941c.999 0 1.815.811 1.815 1.81s-.811 1.81-1.815 1.81a1.815 1.815 0 0 1-1.815-1.81c0-.999.811-1.81 1.815-1.81z"/><path fill="#1A1626" d="M41.391 45.723c0 1.252 1.815 1.252 1.815 0-.006-1.164-1.815-1.164-1.815 0z"/><path fill="#AB968C" d="M41.115 45.215c0 .524.761.524.761 0-.005-.491-.761-.491-.761 0z"/><path fill="#4A3728" d="M45.435 45.861c-.734-2.367-5.755-2.014-6.439-.425.254-2.042 5.81-2.577 6.439.425z"/><path fill="#FFF" d="M48.988 45.789c-.066.53.292 1.159 1.286 1.628.635.298 1.948.651 3.68-.077.778-.326 1.528-1.346 1.462-1.909-.938-1.766-5.551-2.025-6.428.358z"/><linearGradient id="e" x1="-1209.102" x2="-1209.102" y1="175.143" y2="174.591" gradientTransform="translate(7995.996 -1103.139) scale(6.5701)" gradientUnits="userSpaceOnUse"><stop offset="0" style="stop-color:#a6694a"/><stop offset="1" style="stop-color:#4f2a1e"/></linearGradient><path fill="url(#e)" d="M52.078 43.941a1.815 1.815 0 1 1 0 3.63 1.815 1.815 0 0 1 0-3.63z"/><path fill="#1A1626" d="M51.173 45.723c0 1.252 1.815 1.252 1.815 0-.005-1.164-1.815-1.164-1.815 0z"/><path fill="#AB968C" d="M50.897 45.215c0 .524.761.524.761 0-.005-.491-.761-.491-.761 0z"/><path fill="#4A3728" d="M48.977 45.861c.734-2.361 5.749-2.025 6.433-.425-.248-2.042-5.804-2.577-6.433.425z"/><path fill="#1A1714" d="M39.664 32.459c4.193 4 16.674 6.505 18.837 15.316-2.953-8.844-13.805-6.361-18.837-15.316z"/><path fill="#382E26" d="M47.327 29c-4.872 0-7.305 2.207-7.802 3.255C45.6 41.53 55.896 38.39 58.5 47.781 63.736 39.444 59.389 29 47.327 29z"/><path fill="#473E35" d="M47.327 29c-4.339 0-7.198 1.762-7.802 3.255 2.101 5.66 16.522 5.832 19.316 13.353-.589-5.398-4.865-8.997-4.865-8.997s3.846 2.484 5.759 5.99c-.356-5.034-4.326-7.933-4.326-7.933s3.579 2.484 4.761 5.347C59.473 34.211 56.685 29 47.327 29z"/><path fill="#574F45" d="M57.621 34.817c-4.024-6.779-12.667-4.992-12.667-4.992s7.192.374 12.667 4.992z"/><path fill="#574F45" d="M57.973 39.037c-5.779-10.816-16.582-7.275-16.582-7.275s9.345-.36 16.582 7.275z"/><path fill="#574F45" d="M42.001 33.251c5.953 2.207 12.787 6.183 12.787 6.183s-4.04-6.068-12.787-6.183z"/><path fill="#382E26" d="M39.526 32.255c-5.887 1.346-7.785 11.283-3.377 15.52.546-4.519 1.076-7.421 4.077-10.477 0 0 .177-2.687-.7-5.043z"/><path fill="#1A1714" d="M40.089 36.95s-3.868 3.586-3.939 10.825c.662-7.172 4.116-10.411 4.116-10.411l-.177-.414z"/><path fill="#473E35" d="M39.586 32.459s-6.831 2.334-4.883 11.735c.044-.758.148-1.459.287-2.119-.013 1.173.162 2.461.613 3.868.59-6.532 4.381-9.721 4.381-9.721l-.398-3.763z"/><path fill="#574F45" d="M35.38 41.966c.872-4.882 4.749-8.102 4.749-8.102s-5.389.356-4.749 8.102z"/><path fill="#382E26" d="M39.526 32.255c-1.606 7.283 6.091 8.712 9.352 8.712-5.86-4.061-9.352-8.712-9.352-8.712z"/><path fill="#1A1714" d="M39.333 33.552c.154 4.171 2.428 6.775 9.545 7.415-5.567.375-10.401-2.406-9.545-7.415z"/><path fill="#473E35" d="M39.526 32.255s-.891 6.558 9.352 8.712c-5.645-4.356-6.666-6.871-9.352-8.712z"/><path fill="#574F45" d="M45.408 39.06c-1.806-1.179-4.722-5.435-4.722-5.435s.57 4.396 4.722 5.435z"/></svg>