<svg xmlns="http://www.w3.org/2000/svg" xml:space="preserve" viewBox="0 0 64 64"><linearGradient id="a" x1="30.928" x2="52.708" y1="35.516" y2="35.516" gradientUnits="userSpaceOnUse"><stop offset="0" style="stop-color:#b9f44c"/><stop offset=".176" style="stop-color:#95e76c"/><stop offset=".321" style="stop-color:#7ede81"/><stop offset=".413" style="stop-color:#76db88"/><stop offset=".637" style="stop-color:#4ac5a3"/><stop offset=".877" style="stop-color:#20b0bc"/><stop offset="1" style="stop-color:#10a8c6"/></linearGradient><path fill="url(#a)" d="M50.718 46.471c-13.291.919-19.79-11.871-19.79-20.338 9.305-5.296 18.804 3.369 18.602 12.023-.059 2.575 6.301 7.965 1.188 8.315z"/><path fill="#297124" d="M51.119 44.858c-4.16-1.502-6.082-5.083-8.123-8.875-1.176-2.188-2.379-4.406-4.045-6.222 5.385-.051 7.398 2.612 8.841 6.924a.294.294 0 0 0 .376.189.312.312 0 0 0 .182-.39c-1.539-4.597-3.843-7.602-9.988-7.327-1.791-1.723-4.1-2.985-7.404-3.331a.297.297 0 0 0-.324.277.304.304 0 0 0 .266.333c1.499.156 2.78.511 3.896 1.011-.919 2.789.246 4.443 1.6 6.341 1.314 1.841 2.803 3.929 2.803 7.662 0 .169.133.302.295.302a.297.297 0 0 0 .297-.302c0-3.934-1.619-6.202-2.92-8.025-1.295-1.816-2.32-3.268-1.535-5.726 3.482 1.785 5.281 5.11 7.146 8.583 2.003 3.721 4.072 7.573 8.447 9.152a.293.293 0 0 0 .375-.187.31.31 0 0 0-.185-.389z" opacity=".1"/><linearGradient id="b" x1="30.928" x2="60" y1="13.113" y2="13.113" gradientUnits="userSpaceOnUse"><stop offset="0" style="stop-color:#b9f44c"/><stop offset=".176" style="stop-color:#95e76c"/><stop offset=".321" style="stop-color:#7ede81"/><stop offset=".413" style="stop-color:#76db88"/><stop offset=".637" style="stop-color:#4ac5a3"/><stop offset=".877" style="stop-color:#20b0bc"/><stop offset="1" style="stop-color:#10a8c6"/></linearGradient><path fill="url(#b)" d="M58.545.308C38.047-2.781 30.928 18.184 30.928 26.133c9.416.452 16.478-.607 16.717-6.235.217-5.125 8.244-2.423 6.861-9.877-.568-3.071 9.059-8.958 4.039-9.713z"/><path fill="#297124" d="M48.539 7.681c3.232-1.515 6.575-3.079 9.463-5.727a.312.312 0 0 0 .025-.43.285.285 0 0 0-.416-.027c-2.823 2.586-5.977 4.061-9.316 5.628-6.635 3.105-13.493 6.32-17.591 18.746.263.048.41.252.444.483 2.162-1.194 4.139-3.338 6.234-5.608.496-.544 1.001-1.09 1.508-1.625 1.859.11 2.729 1.083 3.496 1.949.652.744 1.281 1.459 2.37 1.459.538 0 1.187-.173 2.005-.603a.314.314 0 0 0 .131-.412.291.291 0 0 0-.396-.134c-2.082 1.092-2.713.369-3.672-.721-.736-.831-1.649-1.827-3.412-2.085 3.725-3.84 7.783-6.921 13.404-4.49a.295.295 0 0 0 .388-.162.311.311 0 0 0-.157-.402c-7.034-3.033-11.847 2.191-16.094 6.8-1.857 2.023-3.626 3.934-5.483 5.132 4.038-11.664 10.66-14.771 17.069-17.771z" opacity=".2"/><linearGradient id="c" x1="794.42" x2="813.179" y1="32.687" y2="32.687" gradientTransform="matrix(-1 0 0 1 825.219 0)" gradientUnits="userSpaceOnUse"><stop offset="0" style="stop-color:#b9f44c"/><stop offset=".176" style="stop-color:#95e76c"/><stop offset=".321" style="stop-color:#7ede81"/><stop offset=".413" style="stop-color:#76db88"/><stop offset=".637" style="stop-color:#4ac5a3"/><stop offset=".877" style="stop-color:#20b0bc"/><stop offset="1" style="stop-color:#10a8c6"/></linearGradient><path fill="url(#c)" d="M13.753 42.123c11.448.79 17.045-10.224 17.045-17.518-8.014-4.563-16.196 2.901-16.021 10.356.053 2.214-5.426 6.855-1.024 7.162z"/><path fill="#297124" d="M13.404 40.733c3.584-1.296 5.242-4.379 7-7.642 1.014-1.887 2.048-3.797 3.485-5.362-4.638-.044-6.373 2.247-7.614 5.961a.26.26 0 0 1-.242.18.226.226 0 0 1-.084-.015.266.266 0 0 1-.156-.336c1.325-3.959 3.311-6.547 8.603-6.31 1.542-1.487 3.531-2.57 6.377-2.868.139-.019.266.09.28.237a.26.26 0 0 1-.229.287c-1.293.134-2.394.44-3.357.869.792 2.406-.21 3.829-1.378 5.465-1.131 1.583-2.415 3.382-2.415 6.599a.26.26 0 0 1-.254.263.259.259 0 0 1-.252-.263c0-3.392 1.393-5.343 2.514-6.912 1.112-1.564 1.998-2.817 1.321-4.934-3.001 1.537-4.547 4.402-6.155 7.391-1.723 3.206-3.51 6.525-7.275 7.882a.252.252 0 0 1-.084.017.255.255 0 0 1-.24-.178.26.26 0 0 1 .155-.331z" opacity=".1"/><linearGradient id="d" x1="794.42" x2="819.46" y1="13.39" y2="13.39" gradientTransform="matrix(-1 0 0 1 825.219 0)" gradientUnits="userSpaceOnUse"><stop offset="0" style="stop-color:#b9f44c"/><stop offset=".176" style="stop-color:#95e76c"/><stop offset=".321" style="stop-color:#7ede81"/><stop offset=".413" style="stop-color:#76db88"/><stop offset=".637" style="stop-color:#4ac5a3"/><stop offset=".877" style="stop-color:#20b0bc"/><stop offset="1" style="stop-color:#10a8c6"/></linearGradient><path fill="url(#d)" d="M7.014 2.361C24.667-.301 30.799 17.757 30.799 24.605c-8.11.387-14.193-.527-14.399-5.369-.185-4.415-7.097-2.09-5.909-8.509.488-2.644-7.803-7.715-3.477-8.366z"/><path fill="#297124" d="M15.627 8.71c-2.783-1.302-5.663-2.652-8.148-4.932a.268.268 0 0 1-.021-.37.246.246 0 0 1 .357-.023c2.432 2.226 5.147 3.498 8.022 4.846 5.715 2.678 11.623 5.446 15.154 16.146a.473.473 0 0 0-.383.419c-1.863-1.027-3.567-2.875-5.37-4.834-.431-.466-.862-.935-1.3-1.399-1.601.094-2.352.936-3.01 1.684-.562.637-1.104 1.254-2.044 1.254-.462 0-1.022-.15-1.725-.519a.268.268 0 0 1-.114-.353.25.25 0 0 1 .343-.116c1.794.938 2.339.316 3.166-.625.631-.715 1.417-1.571 2.934-1.794-3.206-3.307-6.699-5.959-11.545-3.867a.25.25 0 0 1-.333-.142.264.264 0 0 1 .137-.344c6.06-2.614 10.202 1.886 13.861 5.856 1.599 1.739 3.124 3.39 4.72 4.421-3.477-10.047-9.177-12.722-14.701-15.308z" opacity=".2"/><path fill="#D9B18D" d="M23.957 18.436c-.753-.292-3.063 1-3.899 1.741-2.379.311-4.31 1.765-4.72 1.45-2.021-1.559-4.385-2.6-6.916-5.912 0-2.094-5.75 1.17-1.903 2.183 2.514.786 4.6 6.003 7.822 7.713.905.481 7.107-.353 9.617-1.96.76-1.748.84-3.986-.001-5.215zm13.518 35.913c.014-.842-1.283-1.178-3.018-.202-2.848-1.165-2.027-2.886-4.739-4.542-.299-.184-5.469-1.432-5.462-1.413.425 1.261-.027 3.165 2.249 4.74 2.955 2.05 7.204 5.289 7.204 5.289 1.704 1.534 2.729 4.652 5.015 5.459 2.387.847-1.354-3.123-1.249-9.331zm11.468 1.026c-.037-.949-1.438-2.647-3.315-1.515-3.261-1.254-2.741-3.206-5.494-5.662-.349-.313-6.843.121-6.663.318.593.652.979 1.807 2.146 2.567 3.436 2.243 9.365 6.858 9.365 6.858 1.35.903 2.992 5.031 4.9 5.813 2.666 1.086-.659-1.387-.939-8.379z"/><linearGradient id="e" x1="32.355" x2="32.355" y1="53.447" y2="34.296" gradientUnits="userSpaceOnUse"><stop offset="0" style="stop-color:#00b5b5"/><stop offset=".347" style="stop-color:#00c2bc"/><stop offset="1" style="stop-color:#00d6c8"/></linearGradient><path fill="url(#e)" d="M39.818 48.987c-1.077-1.89 3.185 1.476.432-.98-4.152-3.707-1.615-8.057-4.19-13.711-6.269 1.546-10.696.182-10.696.182-1.615 4.133-2.478 10.318-1.302 13.808.425 1.261.341 3.119 2.25 4.775 1.213 1.055.625-.346.347-.702-.501-.642 1.817.515 1.504.073-.93-1.305.955-.64.528-1.173-1.226-1.536 1.855.085 1.416-.432-.898-1.059 1.302-.327-.184-1.235-1.033-.631.844-3.894.385-7.379 1.258 3.485 2.068 5.104 3.162 6.304.593.652.768 1.717 1.813 2.621 1.236 1.071.813-.021.594-.623-.576-1.598 2.408 1.246 1.543-.175-1.127-1.853 2.322.559 1.813-.287-1.314-2.191 1.136-.097.585-1.066z"/><path fill="#D9B18D" d="M43.766 25.335c-1.369-1.173-1.419-2.515-3.945-4.129-1.676-3.177-5.376-3.263-5.376-3.263-.538.271.399 5.996 6.36 9.286 1.744.964.379 1.208 3.429 6.38-.036 4.296.711 5.263 1.094 3.108.439-.191.405.275 1.134 1.7 1.438 2.821 1.367-1.059 1.367-1.059.854-.568-.758-3.34-1.325-4.503-.885-1.819-.608-5.696-2.738-7.52z"/><linearGradient id="f" x1="29.906" x2="29.906" y1="34.828" y2="17.213" gradientUnits="userSpaceOnUse"><stop offset="0" style="stop-color:#00d6c8"/><stop offset=".653" style="stop-color:#00c2bc"/><stop offset="1" style="stop-color:#00b5b5"/></linearGradient><path fill="url(#f)" fill-rule="evenodd" d="M25.471 32.786c.019-3.485-1.84-5.425-2.392-8.666-.185-1.097 1.25-4.567.553-5.726 1.43-1.406 9.781-1.728 12.83-.022-.728 1.229.552 4.035.234 5.449-.694 3.09-1.263 4.59-.814 8.49.272 2.356-9.212 4.012-10.411.475z" clip-rule="evenodd"/><path fill="#00B5C2" d="M35.883 32.311c-2.116 2.491-8.847 2.943-10.412.498-.223.11-.305 1.382-.107 1.668 1.464 2.131 6.569 2.61 10.696-.182.25-.249-.046-1.984-.177-1.984z"/><path fill="#D9B18D" d="M27.436 16.794c-1.641 1.979 2.581 9.754 2.581 9.754s4.224-7.775 2.581-9.754c-.795-.961-4.368-.961-5.162 0z"/><path fill="#00E0E0" d="M26.148 21.5c0 .647-1.031.647-1.031 0 .001-.648 1.031-.648 1.031 0zm7.669 6.213c0 .647-1.03.647-1.03 0 0-.648 1.03-.648 1.03 0zm-5.996 1.365c0 .647-1.031.647-1.031 0 0-.649 1.031-.649 1.031 0zm4.66 3.494c0 .647-1.03.647-1.03 0 0-.649 1.03-.649 1.03 0zm1.936-9.957c0 .648-1.03.648-1.03 0s1.03-.648 1.03 0z"/><path fill="#7DE0FF" d="M32.612 25.142c0 .325-.518.325-.518 0s.518-.325.518 0zm2.615-5.25c0 .327-.518.327-.518 0 0-.325.518-.325.518 0zm-9.716-.7c0 .325-.518.325-.518 0 .001-.327.518-.327.518 0zm-.135 5.217c0 .327-.52.327-.52 0 .001-.326.52-.326.52 0zm3.536 7.902c0 .325-.518.325-.518 0s.518-.325.518 0zm2.539-2.992c0 .325-.518.325-.518 0 .001-.324.518-.324.518 0zm3.121 1.777c0 .327-.518.327-.518 0 .001-.325.518-.325.518 0zm.655-6.443c0 .327-.518.327-.518 0 0-.325.518-.325.518 0zm-6.95 1.583c0 .325-.518.325-.518 0s.518-.325.518 0z"/><path fill="#D9B18D" d="M27.165 17.879s.919.969 2.867.969c1.947 0 2.869-.969 2.869-.969v-2.748h-5.736v2.748z"/><path fill="#EBC199" d="M35.855 9.249c-.9.107-1.553 3.098-.984 3.887.078.111.543.286.888-.41.191-.386.742-.706.913-1.502.219-1.021.082-2.084-.817-1.975zm-11.648 0c.902.107 1.554 3.098.986 3.887-.08.111-.544.286-.89-.41-.191-.386-.74-.706-.911-1.502-.218-1.021-.081-2.084.815-1.975z"/><path fill="#C99B71" d="M35.832 9.821c-.235.073-.492.43-.631 1.019.822-.175.616 1.182-.099 1.207.007.137.017.276.034.425.342-.496.693-.296 1.039-1.033.313-.666.24-1.799-.343-1.618zm-10.969 1.016c-.141-.589-.396-.943-.631-1.017-.583-.181-.659.952-.345 1.617.347.737.696.537 1.041 1.033.017-.148.025-.29.032-.425-.707-.033-.909-1.372-.097-1.208z"/><path fill="#EBC199" d="M30.031 3.498c-3.906 0-5.789 2.928-5.553 6.998.048.819.559 3.49 1.043 4.448.497.981 2.152 2.492 3.168 2.807.642.195 2.045.195 2.686 0 1.014-.314 2.672-1.825 3.166-2.807.486-.958.997-3.629 1.043-4.448.238-4.071-1.645-6.998-5.553-6.998z"/><path fill="#A17C5B" d="M34.275 8.95c-.894-.469-2.604-.491-3.238-.166-.137.064-.047.508.067.465.889-.347 2.32-.354 3.151.031.111.05.157-.265.02-.33zm-8.488 0c.894-.469 2.602-.491 3.241-.166.137.064.047.508-.068.465-.888-.347-2.318-.354-3.151.031-.111.05-.157-.265-.022-.33z"/><path fill="#C99B71" d="M31.085 13.015c-.111-.077-.372.041-1.054.041-.68 0-.942-.118-1.054-.041-.135.094.08.515 1.054.515.977 0 1.189-.421 1.054-.515zm-1.054 1.594c-.877-.257-2.181.123-2.181.123.497.533.861 1.229 2.181 1.229 1.515 0 1.773-.789 2.182-1.229 0 0-1.303-.38-2.182-.123z"/><path fill="#FFF" d="M28.178 14.821c.922.767 2.781.771 3.709 0-.983.042-2.72.042-3.709 0zm.984-4.275c.034.256-.143.56-.629.787-.309.144-.95.314-1.794-.037-.378-.159-.747-.65-.713-.923.457-.852 2.707-.979 3.136.173z"/><linearGradient id="g" x1="-424.216" x2="-424.216" y1="480.528" y2="480.795" gradientTransform="matrix(6.5701 0 0 -6.5701 2814.78 3168.528)" gradientUnits="userSpaceOnUse"><stop offset="0" style="stop-color:#a6694a"/><stop offset="1" style="stop-color:#4f2a1e"/></linearGradient><ellipse cx="27.635" cy="10.528" fill="url(#g)" rx=".884" ry=".876"/><path fill="#1A1626" d="M27.194 10.512c0 .606.883.606.883 0 0-.562-.883-.562-.883 0z"/><path fill="#AB968C" d="M27.059 10.267c0 .254.37.254.37 0 0-.235-.37-.235-.37 0z"/><path fill="#C99B71" d="M29.167 10.58c-.36-1.144-2.808-.974-3.141-.206.124-.984 2.833-1.245 3.141.206z"/><path fill="#FFF" d="M30.9 10.546c-.032.256.143.56.629.787.309.144.95.314 1.794-.037.378-.159.747-.65.715-.923-.458-.852-2.709-.979-3.138.173z"/><linearGradient id="h" x1="-426.189" x2="-426.189" y1="480.528" y2="480.795" gradientTransform="matrix(6.5701 0 0 -6.5701 2832.511 3168.528)" gradientUnits="userSpaceOnUse"><stop offset="0" style="stop-color:#a6694a"/><stop offset="1" style="stop-color:#4f2a1e"/></linearGradient><ellipse cx="32.408" cy="10.528" fill="url(#h)" rx=".885" ry=".876"/><path fill="#1A1626" d="M31.967 10.512c0 .606.885.606.885 0 0-.562-.885-.562-.885 0z"/><path fill="#AB968C" d="M31.832 10.267c0 .254.372.254.372 0 0-.235-.372-.235-.372 0z"/><path fill="#C99B71" d="M30.898 10.58c.357-1.142 2.803-.979 3.14-.206-.124-.984-2.835-1.245-3.14.206z"/><linearGradient id="i" x1="30.032" x2="30.032" y1="2.384" y2="11.743" gradientUnits="userSpaceOnUse"><stop offset=".103" style="stop-color:#00edd1"/><stop offset=".178" style="stop-color:#00e5ca"/><stop offset=".508" style="stop-color:#00c8b0"/><stop offset=".794" style="stop-color:#00b6a1"/><stop offset="1" style="stop-color:#00b09b"/></linearGradient><path fill="url(#i)" d="M35.021 4.467c-.854-1.146-2.419-1.503-4.989-1.503-2.568 0-4.133.356-4.989 1.503-1.209 1.622-.799 7.031-.261 7.031.086 0 .099-1.893.261-3.2.132-1.067.389-2.099.682-2.267.898-.517 2.627.221 4.308.221s3.412-.737 4.308-.221c.294.168.549 1.199.682 2.267.164 1.308.177 3.2.261 3.2.536.001.948-5.409-.263-7.031z"/><path fill="#00EDD1" d="M35.021 4.469c-.825-1.169-2.419-2.053-4.989-2.038-2.568-.015-4.163.869-4.989 2.038 0 0 2.101 1.783 4.989 1.783 2.887 0 5.102-.362 4.989-1.783z"/><linearGradient id="j" x1="28.666" x2="28.666" y1="2.384" y2="11.742" gradientUnits="userSpaceOnUse"><stop offset=".103" style="stop-color:#00edd1"/><stop offset=".178" style="stop-color:#00e5ca"/><stop offset=".508" style="stop-color:#00c8b0"/><stop offset=".794" style="stop-color:#00b6a1"/><stop offset="1" style="stop-color:#00b09b"/></linearGradient><path fill="url(#j)" d="M25.006 3.861c-.444 2.227 3.46 3.169 7.353 2.558-4.029-.354-5.982-1.111-7.353-2.558z"/><path fill="#00EDD1" d="M25.006 3.861c.364 1.642 2.968 2.433 4.857 2.533-3.056-.777-3.376-2.204-4.857-2.533z"/><linearGradient id="k" x1="29.715" x2="29.715" y1="2.384" y2="11.742" gradientUnits="userSpaceOnUse"><stop offset=".103" style="stop-color:#00edd1"/><stop offset=".178" style="stop-color:#00e5ca"/><stop offset=".508" style="stop-color:#00c8b0"/><stop offset=".794" style="stop-color:#00b6a1"/><stop offset="1" style="stop-color:#00b09b"/></linearGradient><path fill="url(#k)" d="M25.341 3.394c-.057 2.462 5.134 4.112 8.75 2.511-1.834-1.774-7.017-1.28-8.75-2.511z"/><path fill="#00EDD1" d="M25.341 3.394c.957 1.758 3.712 3.013 6.886 2.441-3.748-.635-4.657-2.483-6.886-2.441z"/><path fill="#00EDD1" d="M25.93 3.036c1.489 1.267 7.942 4.381 8.859 1.921-.955 1.22-4.316-2.414-8.859-1.921z"/><linearGradient id="l" x1="30.409" x2="30.409" y1="2.385" y2="11.74" gradientUnits="userSpaceOnUse"><stop offset=".103" style="stop-color:#00edd1"/><stop offset=".178" style="stop-color:#00e5ca"/><stop offset=".508" style="stop-color:#00c8b0"/><stop offset=".794" style="stop-color:#00b6a1"/><stop offset="1" style="stop-color:#00b09b"/></linearGradient><path fill="url(#l)" d="M25.93 3.036c.248 1.954 7.496 4.55 8.958 2.182-2.2 1.07-7.694-1.028-8.958-2.182z"/><linearGradient id="m" x1="31.848" x2="31.848" y1="2.383" y2="11.745" gradientUnits="userSpaceOnUse"><stop offset=".103" style="stop-color:#00edd1"/><stop offset=".178" style="stop-color:#00e5ca"/><stop offset=".508" style="stop-color:#00c8b0"/><stop offset=".794" style="stop-color:#00b6a1"/><stop offset="1" style="stop-color:#00b09b"/></linearGradient><path fill="url(#m)" d="M28.666 3.498c1.715 1.733 6.621 3.342 6.354.972-.098 1.11-3.983.297-6.354-.972z"/><path fill="#FFE12C" d="M10.476 8.061 4.848 22.519c-.086.221-.928-.077-.841-.298L9.593 7.865c.599-.311.883.196.883.196z"/><path fill="#F9C802" d="m11.067 10.102.343-1.868 1.815-.798-1.768-.882-.232-1.886L9.788 5.99l-1.964-.369.885 1.704-.982 1.654 1.981-.271z"/><path fill="#D9B18D" d="M5.973 17.173s.479-.171.358-.737c.542-.007.639-.577.462-.88.221.038.442-.375.442-.375s-.246 1.509.29 1.849c1.174.743 1.761-.527 1.679-1-.252-1.463-1.599-1.463-2.137-2.763-.097-.233-.959-.073-.614 1.039 0 0-.744-.31-.831.684-.505-.254-.831.596-.494.917-.577.373-.45.929-.215 1.054-.484 1.025 1.445 1.352 1.06.212z"/><path fill="#E6B045" d="M5.973 17.173c-.401-.023-1.06-.213-1.06-.213s.503.338 1.06.213zm.358-.737c-.402-.025-1.203-.529-1.203-.529s.647.652 1.203.529zm.462-.88c-.399-.022-1.171-.566-1.171-.566s.616.689 1.171.566zm.442-.375c-.116-.579-.783-.875-.783-.875s.499.43.783.875z"/></svg>