<svg xmlns="http://www.w3.org/2000/svg" xml:space="preserve" viewBox="0 0 64 64"><linearGradient id="a" x1="-22.317" x2="-22.317" y1="-518.71" y2="-527.475" gradientTransform="matrix(-2.7664 .8895 .8472 2.6347 410.433 1416.088)" gradientUnits="userSpaceOnUse"><stop offset="0" style="stop-color:#db0100"/><stop offset=".584" style="stop-color:#f31317"/><stop offset="1" style="stop-color:#ff1c23"/></linearGradient><path fill="url(#a)" d="M26.417 9.989c1.811-7.38 13.073-8.346 15.561-.609 1.669 5.19-.961 11.332-9.024 20.137-3.407-6.134-16.494-1.49-19.536-10.952-2.491-7.737 7.227-13.516 12.999-8.576z"/><path fill="#1A1714" d="M33.15 45.564s.241 3.365 1.474 5.441c-1.204.081-1.614-.461-1.614-.461s.314 1.541 1.106 2.519c-1.078.379-1.857-.051-1.857-.051s.207 1.171.262 1.991c-3.38-.265-3.85-4.062-3.85-4.062l4.479-5.377zm-21.784 9.543c.447-2.378-.476-5.617-.476-5.617l6.044 3.522s.857 3.728-2.229 5.134c-.228-.789-.435-1.96-.435-1.96s-.585.67-1.728.683c.416-1.186.177-2.745.177-2.745s-.194.647-1.353.983z"/><path fill="#735C48" d="M10.281 45.35c1.742-.092 3.981 5.398 3.172 7.095-.111.235-.932.726-1.818-.488-.492-.674-1.638-1.102-2.232-2.567-.756-1.873-.859-3.944.878-4.04z"/><path fill="#4A3728" d="M10.52 46.436c.468.065 1.076.656 1.534 1.735-1.612-.062-.768 2.461.59 2.274.036.261.063.535.082.82-.819-.832-1.413-.333-2.319-1.628-.809-1.164-1.053-3.352.113-3.201z"/><path fill="#735C48" d="M19.358 32.431c7.388-1.303 12.008 4.088 12.928 11.9.182 1.569.145 3.891-.05 5.91-.4 4.192-4.579 9.076-8.031 9.684-3.452.609-9.044-2.553-10.859-6.354-.874-1.83-1.702-3.994-2.068-5.536-1.805-7.656.692-14.301 8.08-15.604z"/><path fill="#302B27" d="M13.164 44.253c1.532-1.194 4.758-1.805 6.069-1.396.281.076.257.952.029.908-1.797-.366-4.508.097-5.947 1.106-.191.14-.383-.445-.151-.618zm16.058-2.831c-1.848-.598-5.089-.069-6.186.765-.238.168.084.983.283.863 1.564-.958 4.264-1.45 5.967-.994.233.064.213-.552-.064-.634z"/><path fill="#4A3728" d="M20.564 51.057c.174-.192.716-.076 1.992-.359 1.277-.285 1.717-.619 1.962-.521.288.122.067 1.007-1.761 1.414-1.832.406-2.406-.302-2.193-.534zm6.655 2.461c2.169 2.303-3.072 3.247-4.763.997l4.763-.997z"/><path fill="#2B1E15" d="M25.95 53.14c-1.153-.341-1.938.699-3.493 1.375 1.509.393 3.486.134 3.665-.512 0 0 .645.322 1.151-.256.567-.642-.219-1.422-1.323-.607z"/><path fill="#614B38" d="M14.144 47.823c.311 1.776 6.054.765 5.689-1.292-.852-2.917-6.179-1.892-5.689 1.292z"/><path fill="#2E221E" d="M14.145 47.823c.312 1.776 6.054.765 5.69-1.293-.294 1.031-5.089 2.001-5.69 1.293z"/><path fill="#614B38" d="M29.31 45.149c.314 1.777-5.425 2.79-5.789.733-.194-3.033 5.16-3.894 5.789-.733z"/><path fill="#2E221E" d="M29.31 45.149c.314 1.777-5.425 2.79-5.789.733.629.867 5.466.14 5.789-.733z"/><path fill="#1A1714" d="M26.522 32.363c-3.219 4.373-14.328 8.715-14.89 17.198 1.285-8.641 11.703-8.116 14.89-17.198z"/><path fill="#382E26" d="M18.887 30.418c4.496-.793 7.1.848 7.729 1.734-4.097 9.547-14.108 8.325-14.983 17.414-6.189-6.841-3.876-17.186 7.254-19.148z"/><path fill="#473E35" d="M18.887 30.418c4.004-.706 6.929.455 7.729 1.734-1.018 5.565-14.298 8.07-15.652 15.465-.335-5.077 3.025-9.094 3.025-9.094s-3.145 2.918-4.34 6.465c-.49-4.704 2.701-8.024 2.701-8.024s-2.899 2.875-3.524 5.709c-.299-5.471 1.426-10.733 10.061-12.255z"/><path fill="#574F45" d="M10.334 37.461c2.611-6.91 10.877-6.667 10.877-6.667s-6.575 1.514-10.877 6.667z"/><path fill="#574F45" d="M10.697 41.411C14.269 30.491 24.814 32 24.814 32s-8.682 1.188-14.117 9.411z"/><path fill="#574F45" d="M24.494 33.473C19.359 36.478 13.7 41.26 13.7 41.26s2.741-6.257 10.794-7.787z"/><path fill="#382E26" d="M26.616 32.152c5.652.284 9.02 9.145 5.641 13.772-1.239-4.081-2.2-6.673-5.467-9.005 0 0-.6-2.45-.174-4.767z"/><path fill="#1A1714" d="M26.86 36.576s4.153 2.68 5.397 9.348c-1.778-6.511-5.492-8.937-5.492-8.937l.095-.411z"/><path fill="#473E35" d="M26.593 32.35s6.683 1.042 6.415 10.034a13.451 13.451 0 0 0-.609-1.909c.203 1.08.251 2.297.064 3.669-1.608-5.932-5.625-8.258-5.625-8.258l-.245-3.536z"/><path fill="#574F45" d="M32.021 40.439c-1.599-4.363-5.7-6.704-5.7-6.704s5.031-.548 5.7 6.704z"/><path fill="#382E26" d="M26.616 32.152c2.667 6.459-4.203 9.03-7.212 9.561 4.746-4.701 7.212-9.561 7.212-9.561z"/><path fill="#1A1714" d="M27.005 33.317c.536 3.874-1.138 6.647-7.602 8.396 5.199-.56 9.206-3.912 7.602-8.396z"/><path fill="#473E35" d="M26.616 32.152s1.89 5.907-7.212 9.561c4.5-4.938 5.033-7.426 7.212-9.561z"/><path fill="#574F45" d="M22.295 39.388c1.475-1.382 3.473-5.783 3.473-5.783s.189 4.149-3.473 5.783z"/><path fill="#52351F" d="M52.634 55.107c-.447-2.378.476-5.617.476-5.617l-6.044 3.523s-.857 3.728 2.229 5.134c.228-.789.435-1.96.435-1.96s.585.67 1.728.683c-.416-1.186-.177-2.745-.177-2.745s.194.646 1.353.982z"/><path fill="#B88A6F" d="M53.719 45.35c-1.742-.092-3.981 5.398-3.172 7.095.111.235.932.726 1.818-.488.492-.674 1.638-1.102 2.232-2.567.756-1.873.859-3.944-.878-4.04z"/><path fill="#8C5F44" d="M53.48 46.436c-.468.065-1.076.655-1.534 1.735 1.612-.062.768 2.461-.59 2.274-.036.262-.063.535-.082.82.819-.832 1.413-.334 2.319-1.628.809-1.164 1.053-3.352-.113-3.201z"/><path fill="#B88A6F" d="M44.642 32.431c-7.388-1.303-12.008 4.088-12.928 11.9-.182 1.569-.145 3.891.05 5.91.4 4.192 4.579 9.076 8.031 9.684 3.452.609 9.044-2.553 10.859-6.354.874-1.83 1.702-3.994 2.068-5.536 1.805-7.656-.692-14.302-8.08-15.604z"/><path fill="#5E4533" d="M50.836 44.253c-1.532-1.194-4.758-1.805-6.069-1.396-.281.076-.257.952-.029.908 1.797-.366 4.508.097 5.947 1.106.191.14.383-.445.151-.618zm-16.058-2.831c1.848-.598 5.089-.069 6.186.765.238.168-.084.983-.284.863-1.563-.958-4.264-1.45-5.967-.994-.232.064-.212-.552.065-.634z"/><path fill="#8C5F44" d="M43.436 51.057c-.174-.192-.716-.076-1.992-.359-1.277-.285-1.717-.619-1.962-.521-.288.122-.067 1.007 1.761 1.414 1.832.406 2.406-.302 2.193-.534zm-6.655 2.461c-2.169 2.303 3.072 3.247 4.763.997l-4.763-.997z"/><path fill="#6E4A35" d="M38.05 53.14c1.153-.341 1.938.699 3.493 1.375-1.509.393-3.486.134-3.665-.512 0 0-.646.322-1.151-.256-.567-.642.219-1.422 1.323-.607z"/><path fill="#A87A5C" d="M49.856 47.823c-.311 1.776-6.054.765-5.689-1.292.852-2.917 6.179-1.892 5.689 1.292z"/><path fill="#45332C" d="M49.855 47.823c-.312 1.776-6.054.765-5.69-1.293.294 1.031 5.089 2.001 5.69 1.293z"/><path fill="#A87A5C" d="M34.69 45.149c-.315 1.777 5.425 2.79 5.789.733.194-3.033-5.16-3.894-5.789-.733z"/><path fill="#45332C" d="M34.69 45.149c-.315 1.777 5.425 2.79 5.789.733-.629.867-5.466.14-5.789-.733z"/><path fill="#52351F" d="M37.478 32.363c3.219 4.373 14.328 8.715 14.89 17.198-1.285-8.641-11.703-8.116-14.89-17.198z"/><path fill="#6E482A" d="M45.113 30.418c-4.496-.793-7.1.848-7.729 1.734 4.097 9.547 14.108 8.325 14.983 17.414 6.189-6.841 3.876-17.186-7.254-19.148z"/><path fill="#805837" d="M45.113 30.418c-4.004-.706-6.929.455-7.729 1.734 1.018 5.565 14.298 8.07 15.652 15.465.335-5.077-3.025-9.094-3.025-9.094s3.145 2.918 4.34 6.465c.49-4.704-2.701-8.024-2.701-8.024s2.899 2.875 3.524 5.709c.299-5.471-1.426-10.733-10.061-12.255z"/><path fill="#916643" d="M53.665 37.461c-2.611-6.91-10.877-6.667-10.877-6.667s6.576 1.514 10.877 6.667z"/><path fill="#916643" d="M53.303 41.411C49.73 30.491 39.185 32 39.185 32s8.683 1.188 14.118 9.411z"/><path fill="#916643" d="M39.506 33.473c5.134 3.005 10.793 7.786 10.793 7.786s-2.74-6.256-10.793-7.786z"/><path fill="#6E482A" d="M37.384 32.152c-5.652.284-9.02 9.145-5.641 13.772 1.239-4.081 2.2-6.673 5.467-9.005 0 0 .6-2.45.174-4.767z"/><path fill="#52351F" d="M37.139 36.576s-4.153 2.68-5.397 9.348c1.778-6.511 5.492-8.937 5.492-8.937l-.095-.411z"/><path fill="#805837" d="M37.407 32.35s-6.683 1.042-6.415 10.034c.164-.692.374-1.322.609-1.909-.203 1.08-.251 2.297-.064 3.669 1.608-5.932 5.624-8.258 5.624-8.258l.246-3.536z"/><path fill="#916643" d="M31.979 40.439c1.599-4.363 5.7-6.704 5.7-6.704s-5.031-.548-5.7 6.704z"/><path fill="#6E482A" d="M37.384 32.152c-2.667 6.459 4.203 9.03 7.213 9.561-4.747-4.701-7.213-9.561-7.213-9.561z"/><path fill="#52351F" d="M36.995 33.317c-.536 3.874 1.138 6.647 7.602 8.396-5.199-.56-9.206-3.912-7.602-8.396z"/><path fill="#805837" d="M37.384 32.152s-1.889 5.907 7.213 9.561c-4.501-4.938-5.034-7.426-7.213-9.561z"/><path fill="#916643" d="M41.705 39.388c-1.475-1.382-3.473-5.783-3.473-5.783s-.189 4.149 3.473 5.783z"/></svg>