<svg xmlns="http://www.w3.org/2000/svg" xml:space="preserve" style="enable-background:new 0 0 64 64" viewBox="0 0 64 64"><linearGradient id="a" x1="33.649" x2="33.649" y1="57.119" y2="39.728" gradientUnits="userSpaceOnUse"><stop offset="0" style="stop-color:#d86100"/><stop offset="1" style="stop-color:#ff7a00"/></linearGradient><path d="M18.964 34.63c1.759-.946 7.776-3.002 7.776-3.002l13.332-.025s6.085 2.075 7.832 3.023c2.54 1.376 3.139 3.31 3.528 5.04.8 3.558 2.199 11.755 2.47 17.21-5.224 1.098-40.506-1.764-40.506-3.744 0-1.776 3.022-17.133 5.568-18.502z" style="fill:url(#a)"/><path d="M26.74 31.628c0 5.631 13.332 5.605 13.332-.025l-1.199-.415H28.012l-1.272.44z" style="fill:#d86100"/><path d="M27.795 31.345c0 4.406 11.24 4.406 11.24 0V26.47h-11.24v4.875z" style="fill:#f5bb51"/><linearGradient id="b" x1="-1262.092" x2="-1253.508" y1="-702.523" y2="-702.523" gradientTransform="rotate(-125.003 -416.118 -668.24)" gradientUnits="userSpaceOnUse"><stop offset="0" style="stop-color:#ccd4db"/><stop offset=".132" style="stop-color:#d8e0e6"/><stop offset=".333" style="stop-color:#e5ebf1"/><stop offset=".527" style="stop-color:#e9eff5"/><stop offset=".743" style="stop-color:#e6edf3"/><stop offset=".872" style="stop-color:#dee5eb"/><stop offset=".979" style="stop-color:#d0d8de"/><stop offset="1" style="stop-color:#ccd4db"/></linearGradient><path d="m31.424 42.725-.248.175 1.484 2.12 1.487 2.122.248-.174s1.09.668 2.145.357c1.19-.351 2.154-1.943 3.862-3.138 1.912-1.339 4.46-2.012 5.342-3.307.622-.912.291-2.045-1.202-4.179-1.494-2.133-2.446-2.83-3.515-2.56-1.52.388-3.023 2.552-4.935 3.89-1.708 1.197-3.532 1.557-4.27 2.556-.57.772-.398 2.138-.398 2.138z" style="fill:url(#b)"/><path d="M32.225 40.884c-.369.498-.342 1.476-.305 1.778l.038.3-.087.06 1.2 1.712 1.199 1.712.107-.075.28.17c.004.003.613.367 1.288.367.16 0 .313-.02.453-.063.551-.162 1.114-.717 1.764-1.36.55-.545 1.175-1.162 1.954-1.708.804-.563 1.689-1 2.543-1.421 1.142-.564 2.22-1.095 2.672-1.758l-13.106.286z" style="fill:#fff"/><linearGradient id="c" x1="-2663.613" x2="-2659.387" y1="-463.434" y2="-463.434" gradientTransform="rotate(-125 -1183.083 -908.497)" gradientUnits="userSpaceOnUse"><stop offset="0" style="stop-color:#ffa400"/><stop offset=".38" style="stop-color:#ffb10a"/><stop offset="1" style="stop-color:#ffcf21"/></linearGradient><path d="M29.768 44.825c-.7.49-.67 1.413-.805 1.62-.143.22-.77.648-.77.648-.268-.096-1.234.543-.588 1.467.648.924 1.578.234 1.579-.049 0 0 .617-.443.873-.504.244-.055 1.097.288 1.797-.201.17.241.671-.111.671-.111l-1.213-1.73-1.211-1.732s-.502.351-.333.593z" style="fill:url(#c)"/><linearGradient id="d" x1="-2664.226" x2="-2658.775" y1="-460.372" y2="-460.372" gradientTransform="rotate(-125 -1183.083 -908.497)" gradientUnits="userSpaceOnUse"><stop offset="0" style="stop-color:#0094eb"/><stop offset=".158" style="stop-color:#0c9bef"/><stop offset=".709" style="stop-color:#32affb"/><stop offset="1" style="stop-color:#40b7ff"/></linearGradient><path d="M30.99 43.118s-1.03.69-.93.832c0 0-.215.15-.146.25l1.29 1.84 1.288 1.841c.07.1.285-.05.285-.05.099.141 1.098-.59 1.098-.59s.236.09.42-.038l-1.563-2.233-1.562-2.232c-.184.129-.18.38-.18.38z" style="fill:url(#d)"/><path d="m32.344 45.052-1.016.71.18.256 1.014-.71zm.953 1.362-1.015.71.18.256 1.014-.71zM31.39 43.69l-1.015.71.18.256 1.013-.71z" style="fill:#0094eb"/><path d="M40.639 35.75c-.78-.426.082-1.25.753-.932 2.032.965 3.167 2.891 4.239 3.646 1.328.934-.328 5.44.447 6.059.703 1.416-3.654 2.693-4.21 2.39-1.075-1.687-1.534-2.818-1.518-4.586-.497-1.29-2.165-2.502-2.653-2.992-.385-.385-.183-1.272.123-1.32-.448-.482.21-1.35.656-1.149 1.18.532 2.85 2.066 2.962 1.983.054-.04-1.063-1.509-2.836-2.393-.467-.232.257-1.311 1.068-.882 2.006 1.06 3.187 2.548 3.258 2.537.202-.034-1.325-1.83-2.29-2.36z" style="fill:#f5bb51"/><path d="M46.691 44.375c1.565 2.783 5.55 8.347 6.81 11.25 1.905 4.38-2.087 6.777-4.597 6.156-3.249-.8-4.674-3.563-7.687-15.791.71-1.307 5.01-2.44 5.474-1.615z" style="fill:#ff7a00"/><linearGradient id="e" x1="-1942.051" x2="-1943.591" y1="56.632" y2="48.178" gradientTransform="matrix(-1 0 0 1 -1910.112 0)" gradientUnits="userSpaceOnUse"><stop offset="0" style="stop-color:#017bb0"/><stop offset=".19" style="stop-color:#0983b5"/><stop offset=".483" style="stop-color:#1f99c3"/><stop offset=".841" style="stop-color:#42bcda"/><stop offset="1" style="stop-color:#54cee6"/></linearGradient><path d="M19.68 52.569c8.148-9.753 27.813-1.89 25.118 4.38-3.689 8.578-25.118-4.38-25.118-4.38z" style="fill:url(#e)"/><linearGradient id="f" x1="-1944.075" x2="-1945.737" y1="57.175" y2="48.055" gradientTransform="matrix(-1 0 0 1 -1910.112 0)" gradientUnits="userSpaceOnUse"><stop offset="0" style="stop-color:#017bb0"/><stop offset=".246" style="stop-color:#1e98c3"/><stop offset=".55" style="stop-color:#3cb6d6"/><stop offset=".812" style="stop-color:#4ec8e2"/><stop offset="1" style="stop-color:#54cee6"/></linearGradient><path d="M27.87 55.319s2.28-4 7.4-6.825c2.001-1.103 6.472 1.642 6.25 2.507-4.182 16.286-13.65 4.318-13.65 4.318z" style="fill:url(#f)"/><path d="M44.672 58.927c.762-.459.195-1.662-.072-1.57-2.963 1.033-5.897.494-6.069-.678-.228-1.56 2.451-3.826.59-3.82-1.523.004-4.531 4.5-5.424 4.071-1.577-.017-.944 4.125-.43 4.496 7.586 1.216 9.807.553 11.405-2.499z" style="fill:#f5bb51"/><path d="M33.467 56.624c-7.991-2.119-8.211-4.287-15.787-6.26 14.855-8.175 2.351-16.105 1.076-15.618-4.112 1.57-9.871 18.253-8.569 20.628 1.684 3.079 10.342 6.164 23.375 6.424 1.132-1.08.862-4.92-.095-5.174z" style="fill:#ff7a00"/><linearGradient id="g" x1="23.382" x2="23.382" y1="52.548" y2="41.735" gradientUnits="userSpaceOnUse"><stop offset="0" style="stop-color:#c413c0"/><stop offset=".177" style="stop-color:#cd34c9"/><stop offset=".43" style="stop-color:#d85dd4"/><stop offset=".66" style="stop-color:#e07bdc"/><stop offset=".858" style="stop-color:#e48de0"/><stop offset="1" style="stop-color:#e693e2"/></linearGradient><path d="M16.89 50.386c-1.601-11.349 11.856-11.328 13.115-2.4-.927 1.318-4.962 2.635-6.425 4.511-2.685-1.209-6.69-2.11-6.69-2.11z" style="fill:url(#g)"/><linearGradient id="h" x1="-1940.456" x2="-1927.8" y1="45.412" y2="45.412" gradientTransform="matrix(-1 0 0 1 -1910.112 0)" gradientUnits="userSpaceOnUse"><stop offset="0" style="stop-color:#e693e2"/><stop offset=".349" style="stop-color:#f2aaef"/><stop offset=".727" style="stop-color:#fcbcf8"/><stop offset="1" style="stop-color:#ffc2fc"/></linearGradient><path d="M17.688 44.596c1.744-4.694 10.292-4.749 12.652 3.379.084.292-1.406 1.413-2.269 1.454-1.098-5.443-7.848-8.256-10.384-4.833z" style="fill:url(#h)"/><path d="M40.887 59.484s2.151.268 3.785-.557c-1.55.508-3.785.557-3.785.557zm-.266 1.359s2.016.044 3.379-.837c-1.254.538-3.379.837-3.379.837zm.037-20.625s-1.084-1.68-2.838-2.203c1.476.697 2.838 2.203 2.838 2.203z" style="fill:#f0a429"/><path d="M23.075 17.715s-.247 3.442-1.508 5.566c1.231.083 1.651-.471 1.651-.471s-.32 1.576-1.13 2.577c1.102.388 1.899-.052 1.899-.052s-.211 1.198-.268 2.037c3.458-.271 3.939-4.155 3.939-4.155l-4.583-5.502zm22.285 9.762c-.457-2.433.487-5.747.487-5.747l-6.183 3.604s-.877 3.814 2.28 5.252c.234-.808.445-2.006.445-2.006s.599.686 1.768.699c-.426-1.214-.182-2.81-.182-2.81s.2.665 1.386 1.008z" style="fill:#e68c00"/><path d="M46.47 17.495c-1.782-.094-4.072 5.523-3.245 7.258.114.24.954.743 1.86-.499.504-.69 1.676-1.127 2.284-2.626.773-1.916.878-4.035-.898-4.133zm-22.532-3.973c1.707.521 1.938 6.582.567 7.93-.189.187-1.15.372-1.577-1.105-.237-.82-1.19-1.633-1.248-3.249-.071-2.064.56-4.09 2.258-3.576z" style="fill:#ffc940"/><path d="M46.226 18.607c-.479.066-1.1.67-1.57 1.775 1.65-.064.787 2.517-.603 2.326-.036.268-.064.547-.083.84.837-.852 1.445-.342 2.372-1.666.827-1.192 1.077-3.43-.116-3.275zm-21.57-1.757c-.068-1.2-.44-1.98-.869-2.2-1.063-.553-1.599 1.635-1.223 3.039.418 1.556 1.163 1.29 1.66 2.376.082-.286.15-.553.209-.822-1.36-.304-1.289-2.988.223-2.393z" style="fill:#f0a429"/><path d="M37.184 4.279C29.626 2.946 24.9 8.46 23.958 16.453c-.186 1.605-.149 3.98.051 6.045.41 4.288 4.684 9.285 8.216 9.908 3.531.623 9.252-2.612 11.109-6.5.894-1.873 1.74-4.086 2.115-5.664 1.849-7.832-.707-14.63-8.265-15.963z" style="fill:#ffc940"/><path d="M43.521 16.373c-1.568-1.221-4.868-1.846-6.209-1.427-.288.078-.263.974-.03.929 1.839-.374 4.612.099 6.085 1.132.195.142.392-.457.154-.634zm-16.428-2.896c1.89-.612 5.206-.07 6.328.783.244.171-.086 1.005-.29.883-1.6-.98-4.362-1.484-6.104-1.017-.237.065-.218-.565.066-.65z" style="fill:#bb7c0a"/><path d="M35.948 23.229c-.187-.19-.739-.045-2.056-.277-1.318-.233-1.782-.556-2.028-.444-.292.137-.026 1.032 1.865 1.366 1.886.332 2.442-.418 2.22-.645zm-2.591 2.754c-1.61-.8-4.261-.504-4.261-.504.774 1.216 1.238 2.694 3.796 3.145 2.927.516 3.698-.932 4.642-1.657 0-.005-2.39-1.19-4.177-.984z" style="fill:#f0a429"/><path d="M29.701 25.763c1.518 1.809 5.115 2.454 7.172 1.265-1.915-.252-5.275-.845-7.172-1.265z" style="fill:#fff"/><path d="M32.514 17.688c-1.588.659-3.805.268-5.07-.894-.195-.177-.352-.051-.303.08.97 2.594 3.828 3.097 5.629.993.09-.107-.014-.28-.256-.179zm9.543 1.684c-1.586.658-3.803.267-5.07-.894-.193-.179-.348-.051-.3.079.97 2.595 3.825 3.097 5.626.992.093-.105-.012-.278-.256-.177z" style="fill:#45332c"/><path d="M29.855 4.209c3.293 4.474 14.659 8.916 15.234 17.594-1.315-8.84-11.974-8.303-15.234-17.594z" style="fill:#e68c00"/><path d="M37.666 2.219c-4.6-.811-7.263.867-7.907 1.774C33.95 13.76 44.192 12.51 45.088 21.81c6.33-6.999 3.965-17.582-7.422-19.59z" style="fill:#f9a307"/><path d="M37.666 2.219c-4.096-.722-7.089.465-7.907 1.774 1.042 5.693 14.627 8.256 16.013 15.822.343-5.194-3.095-9.304-3.095-9.304s3.218 2.985 4.44 6.614c.502-4.812-2.763-8.21-2.763-8.21s2.965 2.942 3.604 5.84C48.265 9.16 46.5 3.778 37.666 2.22z" style="fill:#ffb80d"/><path d="M46.416 9.424c-2.671-7.07-11.128-6.82-11.128-6.82s6.728 1.549 11.128 6.82z" style="fill:#ffca25"/><path d="M46.045 13.466C42.39 2.293 31.602 3.837 31.602 3.837s8.882 1.216 14.443 9.629z" style="fill:#ffca25"/><path d="M31.93 5.345c5.253 3.074 11.042 7.966 11.042 7.966S40.168 6.909 31.93 5.345z" style="fill:#ffca25"/><path d="M29.76 3.993c-5.783.291-9.229 9.356-5.772 14.09 1.268-4.175 2.25-6.827 5.593-9.212 0 0 .614-2.508.178-4.878z" style="fill:#f9a307"/><path d="M29.509 8.52s-4.248 2.741-5.521 9.563c1.819-6.661 5.619-9.144 5.619-9.144l-.098-.42z" style="fill:#e68c00"/><path d="M29.782 4.196s-6.837 1.066-6.563 10.266a13.69 13.69 0 0 1 .624-1.953c-.208 1.105-.257 2.35-.066 3.754 1.645-6.069 5.754-8.449 5.754-8.449l.252-3.618z" style="fill:#ffb80d"/><path d="M24.23 12.47c1.635-4.463 5.83-6.858 5.83-6.858s-5.146-.56-5.83 6.859z" style="fill:#ffca25"/><path d="M29.76 3.993c-2.729 6.608 4.3 9.239 7.378 9.781-4.856-4.809-7.379-9.78-7.379-9.78z" style="fill:#f9a307"/><path d="M29.361 5.185c-.548 3.964 1.164 6.8 7.777 8.59-5.318-.573-9.418-4.003-7.777-8.59z" style="fill:#e68c00"/><path d="M29.76 3.993s-1.934 6.043 7.378 9.781c-4.604-5.051-5.15-7.596-7.379-9.78z" style="fill:#ffb80d"/><path d="M34.18 11.396c-1.51-1.414-3.554-5.917-3.554-5.917s-.193 4.246 3.553 5.917z" style="fill:#ffca25"/></svg>