<svg xmlns="http://www.w3.org/2000/svg" xml:space="preserve" style="enable-background:new 0 0 64 64" viewBox="0 0 64 64"><path d="M32.017 23.117c-15.46-3.457-31.56 2.674-30.49 4.479 3.112 5.241 10.16 3.847 31.036 6.827 16.754 2.392 26.982-3.008 29.727-6.827 1.226-1.705-14.768-1.236-30.273-4.479z" style="fill:#006dae"/><path d="M48.48 22.81H15.518c-2.965 11.01-2.507 23.844 3.8 30.49H44.68c6.306-6.646 6.764-19.48 3.799-30.49z" style="fill:#e6ebef"/><path d="M46.258 22.81H17.74c-2.517 7.439-2.689 23.02 3.992 30.49h20.534c6.681-7.47 6.51-23.051 3.992-30.49z" style="fill:#cfd8dd"/><path d="M44.092 22.81H19.906c-2.827 10.698.472 23.992 4.982 30.49H39.11c4.51-6.498 7.81-19.792 4.982-30.49z" style="fill:#adbec4"/><path d="M38.761 47.69H25.31s-9.031 3.262-11.207 4.498L32 60.558l17.948-8.374c-2.163-1.24-11.187-4.494-11.187-4.494z" style="fill:#b88a6f"/><radialGradient id="a" cx="34.715" cy="45.187" r="7.261" gradientTransform="matrix(1.0022 0 0 1 -2.792 0)" gradientUnits="userSpaceOnUse"><stop offset="0" style="stop-color:#8c5f44"/><stop offset="1" style="stop-color:#b88a6f"/></radialGradient><path d="M25.201 45.097h13.597v7.596H25.201z" style="fill:url(#a)"/><path d="M51.388 52.2c-2.337-1.642-19.397 9.727-19.397 9.727s-16.975-11.36-19.328-9.723c-3.406 2.372-4.165 5.62-4.165 8.694 0 4.135 47.004 4.135 47.004 0 0-3.07-.715-6.317-4.114-8.697z" style="fill:#006dae"/><path d="M46.586 48.922c1.676-1.154 4.518.318 4.422 2.49 1.644-.648 3.417.163 3.246 3.26C60.031 62.07 44.482 64 32.523 64v-3.893c6.672-3.983 10.04-14.48 14.063-11.185z" style="fill:#0081cf"/><path d="M45.727 51.411s-2.952 7.183-12.83 10.516c0 0 8.118-4.569 12.83-10.516zm5.281.092S45.953 62.27 32.523 64c0 0 12.653-4.413 18.485-12.497z" style="fill:#006dae"/><path d="M54.254 54.673S50.274 62.369 32.523 64c0 0 18.538.203 21.731-9.327z" style="fill:#006dae"/><path d="M31.477 60.107V64h1.046v-3.893h-1.046z" style="fill:#014d87"/><path d="M17.414 48.92c-1.676-1.154-4.518.317-4.422 2.49-1.644-.646-3.417.165-3.246 3.263C3.969 62.069 19.518 64 31.477 64v-3.893c-6.672-3.986-10.04-14.483-14.063-11.187z" style="fill:#0081cf"/><path d="M18.273 51.411s2.952 7.18 12.83 10.514c0 0-8.118-4.567-12.83-10.514zm-5.281.089S18.047 62.27 31.477 64c0 0-12.653-4.413-18.485-12.5zm-3.246 3.173s3.98 7.696 21.731 9.327c0 0-18.538.203-21.731-9.327z" style="fill:#006dae"/><path d="M26.284 60.73c0 1.466-2.043 1.466-2.043 0a1.024 1.024 0 0 1 2.043 0zm13.476 0c0 1.466-2.044 1.466-2.044 0a1.024 1.024 0 0 1 2.043 0z" style="fill:#f59e01"/><path d="M39.027 61.277a26.324 26.324 0 0 1-14.054 0l.3-1.255a25.19 25.19 0 0 0 13.455 0l.299 1.255z" style="fill:#f9b700"/><path d="M32 11.932c-9.976 0-14.781 8.111-14.181 18.541.124 2.097.708 5.12 1.429 7.712C20.744 43.57 28.638 48.997 32 48.997c3.36 0 11.255-5.426 12.752-10.812.72-2.592 1.305-5.615 1.427-7.712.6-10.43-4.203-18.54-14.179-18.54z" style="fill:#b88a6f"/><path d="M34.241 37.22c-.237-.167-.795.088-2.243.088-1.446 0-2.004-.255-2.241-.089-.285.2.166 1.102 2.241 1.102s2.53-.902 2.243-1.102z" style="fill:#8c5f44"/><path d="M29.78 30.917c.084.658-.364 1.44-1.605 2.024-.788.373-2.427.812-4.582-.095-.964-.407-1.906-1.672-1.821-2.373 1.166-2.197 6.915-2.519 8.007.444z" style="fill:#fff"/><linearGradient id="b" x1="-424.484" x2="-424.484" y1="477.223" y2="477.909" gradientTransform="matrix(6.5701 0 0 -6.5701 2814.782 3168.527)" gradientUnits="userSpaceOnUse"><stop offset="0" style="stop-color:#a6694a"/><stop offset="1" style="stop-color:#4f2a1e"/></linearGradient><path d="M25.88 28.617a2.257 2.257 0 0 1 2.258 2.256 2.256 2.256 0 0 1-2.259 2.252 2.256 2.256 0 0 1-2.257-2.252 2.256 2.256 0 0 1 2.257-2.256z" style="fill:url(#b)"/><path d="M24.751 30.83c0 1.56 2.26 1.56 2.26 0 0-1.447-2.26-1.447-2.26 0z" style="fill:#1a1626"/><path d="M24.408 30.2c0 .654.947.654.947 0 0-.607-.947-.607-.947 0z" style="fill:#ab968c"/><path d="M29.79 31.004c-.787-2.525-7.299-2.205-8.018-.53.315-2.534 7.237-3.202 8.018.53z" style="fill:#45332c"/><path d="M34.218 30.917c-.084.658.364 1.44 1.605 2.024.788.373 2.428.812 4.582-.095.967-.407 1.907-1.672 1.822-2.373-1.167-2.197-6.915-2.519-8.01.444z" style="fill:#fff"/><linearGradient id="c" x1="-425.328" x2="-425.328" y1="477.223" y2="477.909" gradientTransform="matrix(6.5701 0 0 -6.5701 2832.512 3168.527)" gradientUnits="userSpaceOnUse"><stop offset="0" style="stop-color:#a6694a"/><stop offset="1" style="stop-color:#4f2a1e"/></linearGradient><path d="M38.068 28.617a2.256 2.256 0 0 1 2.258 2.256 2.256 2.256 0 0 1-2.258 2.252 2.256 2.256 0 0 1-2.259-2.252 2.257 2.257 0 0 1 2.26-2.256z" style="fill:url(#c)"/><path d="M36.94 30.83c0 1.56 2.258 1.56 2.258 0 0-1.447-2.257-1.447-2.257 0z" style="fill:#1a1626"/><path d="M36.595 30.2c0 .654.947.654.947 0 0-.607-.947-.607-.947 0z" style="fill:#ab968c"/><path d="M34.209 31.004c.785-2.523 7.293-2.217 8.018-.53-.317-2.534-7.237-3.202-8.018.53z" style="fill:#45332c"/><path d="M20.827 31.611a16.044 16.044 0 0 0 9.903 0l.694 2.135a18.296 18.296 0 0 1-11.292 0l.695-2.135zm12.442 0a16.044 16.044 0 0 0 9.903 0l.694 2.135a18.296 18.296 0 0 1-11.292 0l.695-2.135z" style="fill:#b88a6f"/><path d="M32 41.502a24.335 24.335 0 0 0-5.706-.082c4.167 3.27 8.26 3.43 11.373-.62-1.875.583-3.795.457-5.667.703z" style="fill:#a35a3b"/><path d="M34.274 40.69c-1.686-.68-2.286.227-2.274.215.01.011-.592-.895-2.274-.215-1.293.51-3.432.705-3.432.73 2.34-.037 2.684.662 5.706.568 3.019.094 3.9-.255 5.706-1.188-.022.011-2.14.4-3.432-.11z" style="fill:#803a1e"/><path d="M34.552 32.571c.258 1.064 2.012.995 2.713.702-1.96-.148-2.77-.938-2.713-.702zm-7.818.702c.7.293 2.455.362 2.713-.702.057-.236-.754.554-2.713.703z" style="fill:#8c5f44"/><path d="M35.755 28.304c1.718-.452 4.32-.963 6.151-.345-.035-.26-.321-.54-.321-.54s.732.188 1.197.517c-1.758-2.374-7.252-1.235-8.085-.718-1.23.764.13 1.33 1.058 1.086z" style="fill:#d4dee6"/><linearGradient id="d" x1="79.469" x2="79.469" y1="-240.075" y2="-243.13" gradientTransform="rotate(-14.999 1081.115 48.977)" gradientUnits="userSpaceOnUse"><stop offset="0" style="stop-color:#d4dee6"/><stop offset=".296" style="stop-color:#dbe4ea"/><stop offset=".735" style="stop-color:#eff3f6"/><stop offset="1" style="stop-color:#fff"/></linearGradient><path d="M34.266 27.992c.215-.578 2.014-1.137 3.447-1.141-1.1.204-1.55.883-1.55.883s2.222-.883 4.088-.865c-1.423.28-2.039.652-2.039.652s2.46-.759 3.374-.349c-.664-.012-1.186.127-1.186.127s1.14.117 1.506.66c-.035-.26-.321-.54-.321-.54s.732.188 1.197.517c-.244-.77-1.22-1.126-1.22-1.126s.307.036.61.154c-2.968-1.661-8.767-.154-7.906 1.028z" style="fill:url(#d)"/><path d="M28.243 28.304c-1.717-.452-4.319-.963-6.15-.345.035-.26.32-.54.32-.54s-.732.188-1.196.517c1.758-2.374 7.252-1.235 8.085-.718 1.23.764-.13 1.33-1.059 1.086z" style="fill:#d4dee6"/><linearGradient id="e" x1="3019.819" x2="3019.819" y1="541.641" y2="538.586" gradientTransform="scale(-1 1) rotate(-14.999 -449.708 11850.505)" gradientUnits="userSpaceOnUse"><stop offset="0" style="stop-color:#d4dee6"/><stop offset=".296" style="stop-color:#dbe4ea"/><stop offset=".735" style="stop-color:#eff3f6"/><stop offset="1" style="stop-color:#fff"/></linearGradient><path d="M29.733 27.992c-.215-.578-2.014-1.137-3.447-1.141 1.1.204 1.55.883 1.55.883s-2.222-.883-4.088-.865c1.423.28 2.038.652 2.038.652s-2.46-.759-3.373-.349c.664-.012 1.186.127 1.186.127s-1.14.117-1.506.66c.035-.26.32-.54.32-.54s-.731.188-1.196.517c.244-.77 1.22-1.126 1.22-1.126s-.307.036-.61.154c2.968-1.661 8.767-.154 7.906 1.028z" style="fill:url(#e)"/><path d="M40.426 21.677c4.49 6.31 5.435 10.141 5.723 19.23 2.566-6.908 2.064-13.52.714-18.794l-6.437-.436z" style="fill:#e6ebef"/><path d="M38.873 21.786c4.11 3.593 6.863 11.94 7.277 19.122.972-3.36 1.045-12.734-2.124-18.906l-5.153-.216z" style="fill:#cfd8dd"/><path d="M21.247 18.692s-5.277 3.907-6.854 14.877c6.187-7.341 16.298-9.933 16.298-9.933l-9.444-4.944z" style="fill:#e6ebef"/><path d="M27.288 21.17s-8.376 2.448-11.816 11.046c6.716-6.862 16.99-8.698 16.99-8.698l-5.174-2.348z" style="fill:#cfd8dd"/><path d="M30.69 23.206S20.133 25.228 14.394 33.57c5.63-6.318 16.803-9.83 16.803-9.83l-.505-.533z" style="fill:#adbec4"/><path d="M44.934 15.11c.177-3.382-5.594-5.947-4.7-9.482.432-1.711 3.086-2.86 1.87-5.628-2.009 3.702-11.996 0-16.984 6.529-3.991 2.448-12.379 13.244-8.766 17.007 7.596-1.348 22.733-1.888 32.177 0 3.537-3.687-2.322-7.84-3.597-8.426z" style="fill:#0081cf"/><path d="m21.78 17.38-2.72-2.813-1.834 1.104s1.713-3.977 5.99-7.652l-.274 2.51 3.636 1.86-3.9 1.392-.898 3.598zm9.494-7.702 1.825-2.318-1.15-2.629 3.086.802 2.504-1.768.081 2.813 2.697 1.536-3.034.937-.838 2.717-1.957-2.234zm16.093 13.316-4.285-.789-3.31 2.58-.308-3.74-3.803-1.802 4.094-1.522.96-3.695 2.838 2.8 3.35-.367s.294.235.584.527l-1.879 2.61 1.759 3.398z" style="fill:#ffe600"/><path d="M42.104 0c1.434 3.496-4.528 4.437-4.854 8.875 1.502-2.49 3.215-.705 2.952-1.88-.644-2.99 3.353-3.639 1.902-6.995zm1.141 11.504s-10.429 0-21.222 6.665c7.487-2.402 17.816-4.42 22.911-3.057.3-1.533-1.69-3.608-1.69-3.608zm2.829 6.666s-3.699.852-13.973 3.198c8.364-4.586 13.973-3.199 13.973-3.199z" style="opacity:.2;fill:#013366;enable-background:new"/><path d="M32.288 20.723C16.4 17.763-2.408 23.071 1.529 27.596c4.36 5.012 10.135-6.404 30-2.7 19.867 3.702 26.54 8.395 30.76 2.7 4.613-6.228-14.115-3.912-30.001-6.873z" style="fill:#006dae"/><radialGradient id="f" cx="27.362" cy="-242.561" r="5.234" gradientTransform="matrix(.9833 -.173 .1734 .9811 20.193 275.073)" gradientUnits="userSpaceOnUse"><stop offset=".23" style="stop-color:#bf0"/><stop offset=".429" style="stop-color:#b8fe00"/><stop offset=".559" style="stop-color:#b0fb00"/><stop offset=".668" style="stop-color:#a1f600"/><stop offset=".767" style="stop-color:#8cee00"/><stop offset=".858" style="stop-color:#70e400"/><stop offset=".942" style="stop-color:#4fd900"/><stop offset="1" style="stop-color:#34cf00"/></radialGradient><path d="M5.775 28.432a5.336 5.336 0 0 0-4.335 6.18c.513 2.902 3.287 4.835 6.191 4.324 2.905-.51 4.85-3.274 4.336-6.176a5.346 5.346 0 0 0-6.192-4.328z" style="fill:url(#f)"/><radialGradient id="g" cx="202.736" cy="-147.991" r="7.371" gradientTransform="matrix(.4329 .3946 -.6077 .6639 -174.68 48.396)" gradientUnits="userSpaceOnUse"><stop offset="0" style="stop-color:#fff"/><stop offset="1" style="stop-color:#fff;stop-opacity:0"/></radialGradient><path d="M6.488 33.385c-1.277 1.398-3.052 1.857-3.961 1.026-.912-.83-.615-2.634.663-4.03 1.28-1.397 3.054-1.858 3.966-1.028.912.832.613 2.638-.668 4.032z" style="fill:url(#g)"/><linearGradient id="h" x1="34.732" x2="39.461" y1="-218.788" y2="-218.788" gradientTransform="rotate(-10.003 1588.544 62.443)" gradientUnits="userSpaceOnUse"><stop offset="0" style="stop-color:#916958"/><stop offset=".284" style="stop-color:#815c4c"/><stop offset=".836" style="stop-color:#583a2e"/><stop offset="1" style="stop-color:#4a2f24"/></linearGradient><path d="M10.497 47.117 8.545 49.65c1.33 1.208 1.841 2.186 2.063 3.44.12.683.193 1.145-.331 2.657-.447 1.29 3.781 6.623 3.781 6.623-.903-2.632-.718-3.875-.262-4.94.269-.628.826-1.736.334-2.518-.313-.499-.096-1.603-.282-2.392-.55-2.34-1.722-3.924-3.35-5.403z" style="fill:url(#h)"/><linearGradient id="i" x1="29.522" x2="39.415" y1="-224.694" y2="-224.694" gradientTransform="rotate(-10.003 1588.544 62.443)" gradientUnits="userSpaceOnUse"><stop offset="0" style="stop-color:#916958"/><stop offset=".284" style="stop-color:#815c4c"/><stop offset=".836" style="stop-color:#583a2e"/><stop offset="1" style="stop-color:#4a2f24"/></linearGradient><path d="M1.01 35.957c.988 2.233 3.528 3.1 5.954 4.065 2.467.98 4.577 2.077 5.06 2.894.386.652.277 2.23-.207 2.819-.417.508-.028 1.502-.285 2.072-1.01 2.242-2.004 4.133-1.704 5.83.218 1.235 3.363 2.679 4.921 9.45 0 0-3.124-.371-5.064-1.125-.66-3.735-1.667-3.267-1.56-4.324.058-.57-1.455-1.37-1.763-3.11-.2-1.129.534-2.029.342-3.003-.102-.518.404-1.468.734-2.105.95-1.84 2.089-3.45 1.788-5.152-.478-2.708-8.543-2.032-8.216-8.31z" style="fill:url(#i)"/><linearGradient id="j" x1="32.231" x2="41.861" y1="-232.294" y2="-232.294" gradientTransform="rotate(-10.003 1588.544 62.443)" gradientUnits="userSpaceOnUse"><stop offset="0" style="stop-color:#916958"/><stop offset=".284" style="stop-color:#815c4c"/><stop offset=".836" style="stop-color:#583a2e"/><stop offset="1" style="stop-color:#4a2f24"/></linearGradient><path d="M12.833 33.877c-.269 3.99-5.759 6.4-7.447 8.933-.39.584.155 1.432-.118 1.995-.29.596.512 1.018.652 1.645.208.926 1.078 1.753 1.8 2.438 1.219-1.444 1.375-2.894 1.375-2.894-.496-.58-.758-.732-.886-1.455-.287-1.625 2.322-2.809 3.994-4.93.324-.41.007-1.175.51-1.304.207-.053.27-.548.319-.68.388-1.062.421-2.288-.199-3.748z" style="fill:url(#j)"/><path d="M13.637 62.406c-2.068-6.629-6.495-5.243-5.024-11.475-.15 6.102 3.316 3.34 5.024 11.475zm-2.15-.576c-2.3-3.252-3.483-6.118-3.483-6.118s2.5 2.003 3.483 6.117zm.948-5.131c1.242-3.878-1.298-7.602-1.298-7.602s3.972 3.026 1.298 7.602z" style="opacity:.3;fill:#1a1626"/><path d="M11.306 55.248c1.388-2.235-.82-4.635-.82-4.635s3.215 2.187.82 4.636zm-3.523-7.223c-2.496-3.22-.723-5.747-.723-5.747s-3.358 2.36.723 5.747zm-1.241-6.632c-3.605-1.458-4.905-3.667-4.905-3.667s.408 2.75 4.905 3.667z" style="opacity:.3;fill:#1a1626"/><path d="M7.306 40.663c-2.483-.472-3.593-1.714-3.593-1.714s.61 1.7 3.593 1.714zm1.243.604c3.178-2.239 3.94-4.684 3.94-4.684s.23 2.77-3.94 4.684zm1.572 4.196c-.935 3.023-3.042 6.252-3.042 6.252s1.202-3.56 3.042-6.252zM9.09 41.515c-2.589 2.317-1.462 3.98-1.462 3.98s-1.99-1.934 1.462-3.98z" style="opacity:.3;fill:#1a1626"/><path d="M8.977 50.195c1.2-3.177 4.758-6.998.743-8.052 2.903 2.265-.243 4.601-.743 8.052z" style="opacity:.3;fill:#1a1626"/></svg>