<svg xmlns="http://www.w3.org/2000/svg" xml:space="preserve" style="enable-background:new 0 0 64 64" viewBox="0 0 64 64"><path d="M49.39 24.113H14.61c0 7.03-1.042 22.52 3.306 27.832 2.36 2.885 25.807 2.885 28.166 0 4.35-5.312 3.309-20.803 3.309-27.832z" style="fill:#edd49a"/><path d="M24 38.912h16v16.035H24z" style="fill:#a3765a"/><linearGradient id="a" x1="32.002" x2="32.002" y1="62" y2="45.653" gradientUnits="userSpaceOnUse"><stop offset="0" style="stop-color:#009137"/><stop offset="1" style="stop-color:#00b846"/></linearGradient><path d="M44.139 45.663 32 56.233l-12.139-10.57c-.653-.17-6.448 1.832-8.111 2.638a.56.56 0 0 0-.291.668c.41 1.42 2.177 5 2.564 12.149C18.783 61.678 25.4 62 32 62c6.602 0 13.217-.323 17.977-.882.39-7.203 2.18-10.784 2.574-12.182a.547.547 0 0 0-.3-.635c-1.662-.805-7.459-2.808-8.112-2.638z" style="fill:url(#a)"/><path d="M32 56.234S31.471 62 32 62s0-5.766 0-5.766z" style="fill:#008733"/><linearGradient id="b" x1="10.523" x2="10.523" y1="61.118" y2="48.935" gradientUnits="userSpaceOnUse"><stop offset="0" style="stop-color:#009137"/><stop offset=".075" style="stop-color:#009739"/><stop offset=".364" style="stop-color:#00a940"/><stop offset=".666" style="stop-color:#00b445"/><stop offset="1" style="stop-color:#00b846"/></linearGradient><path d="M11.496 48.935C7.904 50.878 7 56.477 7 58.992c0 .944 2.784 1.626 7.023 2.126.292-9.016-2.448-12.224-2.527-12.183z" style="fill:url(#b)"/><linearGradient id="c" x1="2648.493" x2="2648.493" y1="61.118" y2="48.935" gradientTransform="matrix(-1 0 0 1 2701.971 0)" gradientUnits="userSpaceOnUse"><stop offset="0" style="stop-color:#009137"/><stop offset=".075" style="stop-color:#009739"/><stop offset=".364" style="stop-color:#00a940"/><stop offset=".666" style="stop-color:#00b445"/><stop offset="1" style="stop-color:#00b846"/></linearGradient><path d="M52.504 48.935C56.096 50.878 57 56.477 57 58.992c0 .944-2.784 1.626-7.023 2.126-.292-9.016 2.448-12.224 2.527-12.183z" style="fill:url(#c)"/><linearGradient id="d" x1="25.018" x2="25.018" y1="56.234" y2="39.646" gradientUnits="userSpaceOnUse"><stop offset="0" style="stop-color:#009137"/><stop offset="1" style="stop-color:#00b846"/></linearGradient><path d="M32 56.234s-6.932-16.588-13.965-16.588c0 0 2.697 1.867 1.826 6.017C23.587 54.033 32 56.233 32 56.233z" style="fill:url(#d)"/><linearGradient id="e" x1="2662.989" x2="2662.989" y1="56.234" y2="39.646" gradientTransform="matrix(-1 0 0 1 2701.971 0)" gradientUnits="userSpaceOnUse"><stop offset="0" style="stop-color:#009137"/><stop offset="1" style="stop-color:#00b846"/></linearGradient><path d="M32 56.234s6.932-16.588 13.965-16.588c0 0-2.698 1.867-1.826 6.017C40.413 54.033 32 56.233 32 56.233z" style="fill:url(#e)"/><linearGradient id="f" x1="30.438" x2="33.563" y1="55.431" y2="55.431" gradientUnits="userSpaceOnUse"><stop offset="0" style="stop-color:#fff"/><stop offset="1" style="stop-color:#c9cdd1"/></linearGradient><path d="M33.563 55.341c0 3.283-3.126 3.283-3.126 0 0-3.045 3.125-3.045 3.125 0z" style="fill:url(#f)"/><linearGradient id="g" x1="30.963" x2="33.047" y1="55.432" y2="55.432" gradientUnits="userSpaceOnUse"><stop offset="0" style="stop-color:#c9cdd1"/><stop offset="1" style="stop-color:#fff"/></linearGradient><path d="M33.047 55.365c0 2.463-2.084 2.463-2.084 0 0-2.284 2.084-2.284 2.084 0z" style="fill:url(#g)"/><path d="M20.127 31.867h-3.389c-.601 20.66-.086 14.51-.136 29.554l3.34.244s1.738-12.542.185-29.798z" style="fill:#fae6b9"/><path d="M19.472 31.867h-2.078c-.369 20.66-.053 14.51-.084 29.554l1.477.16c.718-7.314 1.247-19.523.685-29.714z" style="fill:#ffedc4"/><path d="M18.819 32.749h-.883c-.157 17.613-.023 8.96-.036 21.785 0 0 1.324-7.074.919-21.785z" style="fill:#fff5e0"/><path d="M43.873 31.867h3.389c.601 20.66.086 14.51.137 29.554l-3.34.244s-1.739-12.542-.186-29.798z" style="fill:#fae6b9"/><path d="M44.528 31.867h2.078c.37 20.66.053 14.51.084 29.554l-1.476.16c-.719-7.314-1.248-19.523-.686-29.714z" style="fill:#ffedc4"/><path d="M45.181 32.749h.884c.156 17.613.022 8.96.035 21.785 0 0-1.323-7.074-.919-21.785z" style="fill:#fff5e0"/><path d="M51.963 17.207c-5.262 2.316-8.248 12.137-6.03 15.246.225.313 1.536.815 2.509-1.168.539-1.097 2.003-2.033 2.574-4.277.767-3.031 2.761-10.602.947-9.8z" style="fill:#b88a6f"/><path d="M51.479 18.586c-1.817.773-3.184 3.768-3.948 5.875 1.67.365 1.207 3.512-.857 3.76-.027.388-.041 1.92.008 2.34.97-1.409 1.959-.844 2.937-2.94.881-1.888 2.858-9.46 1.86-9.035z" style="fill:#8c5f44"/><path d="M12.037 17.207c5.262 2.316 8.246 12.137 6.03 15.246-.225.313-1.536.815-2.508-1.168-.54-1.097-2.006-2.033-2.574-4.277-.77-3.031-2.764-10.602-.948-9.8z" style="fill:#b88a6f"/><path d="M12.522 18.586c1.814.773 3.181 3.768 3.945 5.875-1.668.365-1.207 3.512.86 3.76.025.388.04 1.92-.009 2.34-.97-1.409-1.959-.844-2.937-2.94-.881-1.888-2.857-9.46-1.86-9.035z" style="fill:#8c5f44"/><path d="M32 5.035c-11.008 0-16.31 8.966-15.65 20.49.136 2.314.781 5.66 1.578 8.527C19.574 40.007 26.857 46 32 46c5.143 0 12.419-5.993 14.072-11.948.797-2.868 1.442-6.206 1.578-8.527C48.31 14 43.008 5.035 32 5.035z" style="fill:#b88a6f"/><path d="M43.964 20.54c-2.52-1.334-7.336-1.395-9.127-.47-.387.182-.129 1.442.19 1.32 2.503-.986 6.54-1.009 8.876.084.31.151.44-.744.06-.933zm-23.927 0c2.518-1.334 7.336-1.395 9.133-.47.387.182.13 1.442-.19 1.32-2.503-.986-6.531-1.009-8.875.084-.319.151-.448-.744-.068-.933z" style="fill:#fae6b9"/><path d="M34.974 32.11c-.311-.22-1.055.121-2.974.121-1.92 0-2.655-.341-2.974-.121-.38.265.22 1.464 2.974 1.464 2.746 0 3.346-1.199 2.974-1.464zM32 36.646c-2.473-.728-6.145.35-6.145.35 1.396 1.524 2.42 3.496 6.145 3.496 4.263 0 4.992-2.238 6.145-3.497 0-.007-3.672-1.085-6.145-.349z" style="fill:#8c5f44"/><path d="M26.78 37.245c2.595 2.178 7.837 2.193 10.447 0-2.769.122-7.662.122-10.446 0zm2.77-12.16c.09.728-.402 1.593-1.768 2.238-.872.41-2.678.895-5.06-.106-1.062-.448-2.101-1.851-2.01-2.625 1.29-2.428 7.631-2.784 8.838.493z" style="fill:#fff"/><linearGradient id="h" x1="-1210.486" x2="-1210.486" y1="172.093" y2="171.334" gradientTransform="translate(7978.266 -1103.139) scale(6.5701)" gradientUnits="userSpaceOnUse"><stop offset="0" style="stop-color:#a6694a"/><stop offset="1" style="stop-color:#4f2a1e"/></linearGradient><path d="M25.248 22.543c1.373 0 2.496 1.116 2.496 2.489s-1.115 2.488-2.496 2.488c-1.373 0-2.496-1.115-2.496-2.488s1.116-2.489 2.496-2.489z" style="fill:url(#h)"/><path d="M24.004 24.994c0 1.722 2.496 1.722 2.496 0-.008-1.6-2.496-1.6-2.496 0z" style="fill:#1a1626"/><path d="M23.625 24.296c0 .72 1.047.72 1.047 0-.008-.675-1.047-.675-1.047 0z" style="fill:#ab968c"/><path d="M29.565 25.183c-1.01-3.254-7.912-2.769-8.853-.584.349-2.807 7.988-3.543 8.853.584z" style="fill:#8c5f44"/><path d="M34.45 25.085c-.09.728.402 1.593 1.768 2.238.872.41 2.678.895 5.06-.106 1.07-.448 2.101-1.851 2.01-2.625-1.29-2.428-7.631-2.784-8.838.493z" style="fill:#fff"/><linearGradient id="i" x1="-1211.138" x2="-1211.138" y1="172.093" y2="171.334" gradientTransform="translate(7995.996 -1103.139) scale(6.5701)" gradientUnits="userSpaceOnUse"><stop offset="0" style="stop-color:#a6694a"/><stop offset="1" style="stop-color:#4f2a1e"/></linearGradient><path d="M38.699 22.543a2.496 2.496 0 1 1 0 4.992 2.496 2.496 0 0 1 0-4.992z" style="fill:url(#i)"/><path d="M37.455 24.994c0 1.722 2.495 1.722 2.495 0-.007-1.6-2.495-1.6-2.495 0z" style="fill:#1a1626"/><path d="M37.075 24.296c0 .72 1.047.72 1.047 0-.008-.675-1.047-.675-1.047 0z" style="fill:#ab968c"/><path d="M34.435 25.183c1.01-3.247 7.905-2.784 8.846-.584-.342-2.807-7.981-3.543-8.846.584z" style="fill:#8c5f44"/><path d="M21.466 6.756c5.765 5.5 22.925 8.945 25.9 21.06-4.06-12.16-18.982-8.747-25.9-21.06z" style="fill:#edd49a"/><path d="M32.003 2C25.305 2 21.96 5.035 21.276 6.476c8.353 12.752 22.508 8.436 26.09 21.347C54.564 16.361 48.585 2 32.002 2z" style="fill:#fae6b9"/><path d="M25.487 3.487c2.807.053 3.679.82 3.679.82s-2.352-.35-4.795-.062c3.293.79 6.001 2.807 6.001 2.807s-3.717-1.896-7.275-1.85c2.541 2.359 7.98 5.492 7.98 5.492s-5.735-2.754-9.065-4.332c6.828 11.364 22.38 8.96 25.194 19.155-.471-6.642-9.053-11.786-9.053-11.786s7.786 4.238 10.183 8.767c-1.198-4.521-7.528-10.131-7.528-10.131s6.807 4.373 8.727 7.529c-.804-4.248-6.418-10.102-6.418-10.102s4.921 3.415 6.546 7.352c-.96-7.981-9.353-17.672-24.176-13.66z" style="fill:#ffedc4"/><path d="M45.246 9.165c-5.713-7.658-16.108-5.801-16.108-5.801s9.85.218 16.108 5.8z" style="fill:#fff5e0"/><path d="M46.64 15.533C40.767 5.224 26.943 4.587 26.943 4.587s11.71 3.071 19.697 10.946zm-4.054.514C36.375 8.387 25.422 6.24 25.422 6.24s8.321 3.295 17.164 9.807zm-8.066-1.552c-4.527-2.604-11.255-7.07-11.255-7.07s4.513 5.95 11.255 7.07z" style="fill:#fff5e0"/><path d="M21.276 6.476c-8.094 1.85-10.704 15.514-4.643 21.34.751-6.213 1.48-10.204 5.607-14.406 0 0 .242-3.695-.964-6.934z" style="fill:#fae6b9"/><path d="M22.05 12.932s-5.318 4.93-5.417 14.884c.91-9.862 5.66-14.315 5.66-14.315l-.243-.57z" style="fill:#edd49a"/><path d="M21.36 6.756s-9.392 3.21-6.714 16.136c.06-1.041.203-2.006.394-2.913-.017 1.613.223 3.383.842 5.318.812-8.982 6.024-13.367 6.024-13.367l-.546-5.173z" style="fill:#ffedc4"/><path d="M15.857 20.669c.77-5.309 4.052-10.51 4.052-10.51S15.02 13 15.857 20.67z" style="fill:#fff5e0"/><path d="M15.055 17.135c.976-5.25 4.993-8.876 4.993-8.876s-4.873 1.166-4.993 8.876z" style="fill:#fff5e0"/><path d="M21.276 6.476C19.07 16.49 29.651 18.455 34.135 18.455c-8.057-5.584-12.859-11.98-12.859-11.98z" style="fill:#fae6b9"/><path d="M21.01 8.259c.213 5.735 3.339 9.315 13.125 10.195-7.655.516-14.3-3.307-13.124-10.195z" style="fill:#edd49a"/><path d="M21.466 6.756s-.486 9.536 11.493 11.22c-9.566-5.515-11.493-11.22-11.493-11.22z" style="fill:#ffedc4"/><path d="M25.238 13.966c-1.766-2.231-3.55-6.312-3.55-6.312s.364 4.385 3.55 6.312z" style="fill:#fff5e0"/></svg>