<svg xmlns="http://www.w3.org/2000/svg" xml:space="preserve" style="enable-background:new 0 0 64 64" viewBox="0 0 64 64"><path d="M14.248 42.518c1.396-3.052 8.439-4.014 8.439-4.014l18.584-.028s7.096.97 8.494 4.038c4.505 9.885-2.797 9.574-2.797 17.118 0 5.826-29.98 5.826-29.98 0 0-7.509-7.251-7.272-2.74-17.114z" style="fill:#3ab0a2"/><path d="M22.687 38.504c0 7.387 18.584 7.359 18.584-.028l-1.863-.626H24.633l-1.946.654z" style="fill:#2b998d"/><path d="M24.017 38.058c0 5.782 15.93 5.782 15.93 0V31.66h-15.93v6.398z" style="fill:#4f6659"/><path d="M22.687 38.504c-2.979.282-6.027.758-6.027.758-6.098-1.255-8.785 1.565-12.619 5.314-2.369 2.315 2.848 10.531 5.707 8.954 2.348-1.297 12.939-15.026 12.939-15.026z" style="fill:#3ab0a2"/><path d="M11.918 50.255c9.381-.918 10.478-3.111 6.394-8.142 5.625 10.12-6.923 3.316-6.394 8.142z" style="fill:#247d73"/><path d="M17.914 48.893c-2.703 2.351-11.144.963-13.631-2.252C2.465 44.29 8.23 42.894 8.211 42.3c-.057-1.773 9.928-.496 9.603 1.028-.25 1.169 2.868 3.159.1 5.565z" style="fill:#1a5953"/><path d="M17.564 44.497c-5.636-4.467-12.714-.282-13.162 1.021-1.812 5.268-5.098 7.278-4.271 8.36 1.209 1.581 1.619 3.537 2.103 4.671.268.626 1.518.632 1.52-.541.002-.955-.195-2.023-.07-2.11 1.824 2.683 1.379 4.276 1.834 4.799.531.608 2.543.675 1.967-2.399 0 0 .853 1.49 1.117 2.797.281 1.388 2.443 1.094 2.594-.527.129-1.392-.863-3.926-.863-3.926s.816 1.255 1.576 2.892c.422.912 1.601.235 1.846-1.265.309-1.899-1.447-5.648-1.379-6.137.166-1.165 1.199-.815 2.301-2.164 0 0-1.248 2.414-.084 4.68.768 1.494 2.397 1.019 2.203.022-.582-3 1.123-3.139 1.123-4.702-.001-1.432.848-4.517-.355-5.471z" style="fill:#99b5a7"/><path d="M3.637 58.542c.156-2.242-1.293-4.588-1.164-4.943a14.3 14.3 0 0 1 1.082-2.294c.154.523-.734 1.887-.484 2.734.169.571 1.417 3.056.566 4.503zm3.679 1.929c.572-2.207-2.025-5.908-1.896-6.264.191-.533.824-2.223 1.201-3.952-.055 2.229-.516 3.081-.588 4.047-.066.912 2.455 4.295 1.283 6.169zm3.674.758c.572-2.209-1.453-5.938-1.559-6.305-.34-1.182-.346-3.229.031-4.957-.057 2.229.08 3.691.5 4.99.282.863 2.202 4.398 1.028 6.272z" style="fill:#4f6659"/><path d="M41.312 38.504c2.98.282 6.027.758 6.027.758 6.097-1.255 8.785 1.565 12.619 5.314 2.369 2.315-2.848 10.531-5.707 8.954-2.347-1.297-12.939-15.026-12.939-15.026z" style="fill:#3ab0a2"/><path d="M52.082 50.255c-9.381-.918-10.477-3.111-6.395-8.142-5.625 10.12 6.924 3.316 6.395 8.142z" style="fill:#247d73"/><path d="M46.086 48.893c2.705 2.351 11.144.963 13.633-2.252 1.816-2.351-3.949-3.746-3.93-4.341.057-1.773-9.926-.496-9.602 1.028.248 1.169-2.869 3.159-.101 5.565z" style="fill:#1a5953"/><path d="M46.435 44.497c5.637-4.467 12.715-.282 13.164 1.021 1.811 5.268 5.098 7.278 4.27 8.36-1.209 1.581-1.619 3.537-2.103 4.671-.268.626-1.516.632-1.52-.541-.002-.955.197-2.023.07-2.11-1.824 2.683-1.379 4.276-1.834 4.799-.531.608-2.541.675-1.967-2.399 0 0-.854 1.49-1.117 2.797-.279 1.388-2.443 1.094-2.594-.527-.129-1.392.865-3.926.865-3.926s-.818 1.255-1.576 2.892c-.424.912-1.602.235-1.846-1.265-.311-1.899 1.445-5.648 1.377-6.137-.166-1.165-1.199-.815-2.299-2.164 0 0 1.246 2.414.082 4.68-.767 1.494-2.396 1.019-2.203.022.582-3-1.123-3.139-1.123-4.702.001-1.432-.849-4.517.354-5.471z" style="fill:#99b5a7"/><path d="M60.363 58.542c-.156-2.242 1.293-4.588 1.164-4.943a14.125 14.125 0 0 0-1.082-2.294c-.154.523.734 1.887.484 2.734-.17.571-1.418 3.056-.566 4.503zm-3.68 1.929c-.572-2.207 2.025-5.908 1.896-6.264-.191-.533-.824-2.223-1.201-3.952.055 2.229.518 3.081.588 4.047.067.912-2.455 4.295-1.283 6.169zm-3.674.758c-.572-2.209 1.453-5.938 1.559-6.305.34-1.182.348-3.229-.029-4.957.055 2.229-.08 3.691-.502 4.99-.28.863-2.2 4.398-1.028 6.272z" style="fill:#4f6659"/><path d="M11.053 39.693c1.142-.103 2.807.067 3.289-.48-.275-.837.215-1.356.215-1.356s-3.557.264-3.504 1.836z" style="fill:#3ab0a2"/><path d="M11.354 39.801c-1.037.454-2.371 1.388-3.09 1.149-.229-.849-.939-1.062-.939-1.062s3.196-1.461 4.029-.087z" style="fill:#3ab0a2"/><path d="M12.463 39.458c-1.037.454-1.529.845-2.248.604-.228-.849-.002-1.867-.002-1.867s1.42-.111 2.25 1.263z" style="fill:#2b998d"/><path d="M14.635 39.213c-1.305.201-1.683 1.786-4.846 2.424-1.178.166-1.633-.693-1.633-.693s3.198-2.256 6.479-1.731z" style="fill:#4f6659"/><path d="M14.851 39.213c-1.307.201-1.535 1.129-3.127 1.79-.475-.732-2.115-.608-2.115-.608s1.961-1.707 5.242-1.182z" style="fill:#99b5a7"/><path d="M12.254 41.45c-1.037.454-3.141 1.147-4.037.594-.228-.849-1.441-1.147-1.441-1.147s4.648-.821 5.478.553zm29.15 12.337c-.951 1.084-.592 3.194.068 3.51.949-.871 3.199-.184 3.199-.184s-1.546-3.616-3.267-3.326zm-.902.523c-.623-1.145-2.467-2.11-2.287-3.263 2.222-.207 2.215-2.596 2.215-2.596s2.296 3.101.072 5.859z" style="fill:#2b998d"/><path d="M39.052 52.059c-.361.648-2.527.571-3.301-.864.227-1.228-.299-2.894-.299-2.894s2.636-.01 3.6 3.758z" style="fill:#247d73"/><path d="M37.39 56.102c-1-1.413-2.961-.225-4.233-2.08 1.088-.77 2.594-2.827 2.594-2.827s2.577 2.839 1.639 4.907z" style="fill:#2b998d"/><path d="M41.472 57.297c-1.516-.122-1.896 1.419-3.582 2.094.326-1.494-.5-3.289-.5-3.289s4.088-2.453 4.082 1.195zm-1.504-4.503c.248 1.52.684 2.248 1.344 2.566.891-.926 3.016-1.95 3.016-1.95s-2.631-1.706-4.36-.616z" style="fill:#247d73"/><path d="M41.369 56.426c-1.992-1.368-3.887-.43-3.887-.43s.154-1.751-1.504-4.552c1.287.559 3.074.616 3.074.616s2.688 1.208 2.317 4.366z" style="fill:#4f6659"/><path d="M41.369 56.426c-1.992-1.368-3.978-.324-3.978-.324s-.117-1.919-1.113-4.127c2.034 1.632 4.019.084 5.091 4.451z" style="fill:#99b5a7"/><path d="M26.084 54.037c-2.066 2.193-1.939 3.636.061 3.808 1.999.17 1.325-5.276-.061-3.808z" style="fill:#2b998d"/><path d="M27.121 56.351c-1.301.472-1.338 2.509.041 2.627 1.381.117 2.553-3.567-.041-2.627zm-5.43-1.021c-.738-.604-.918 1.717.029 1.8.946.08 2.399.188-.029-1.8z" style="fill:#2b998d"/><path d="M24.07 58.126c-.994.614-.627 1.173.02 1.228.644.055.533-1.568-.02-1.228zm-4.351-6.151c.793-.079 3.098-1.163.725-2.983-.636-.486-1.52 3.062-.725 2.983z" style="fill:#247d73"/><path d="M40.078 46.639c.639-.308 1.703-.884-.264-1.317-.691-.152-2.564 2.679.264 1.317z" style="fill:#2b998d"/><path d="M51.795 45.315c.703-.071 3.572-.271 2.938-.588-2.095-1.049-3.644.659-2.938.588zm1.716 1.109c-.842.553 3.129 1.68 3.563.762.17-.359-1.719-1.974-3.563-.762z" style="fill:#6b8a79"/><path d="M28.156 48.001c1.061-.002-.541-2.021-3.219-2.021-1.062 0-.322 2.025 3.219 2.021z" style="fill:#2b998d"/><path d="M47.554 19.047c-2.41.292-4.152 8.439-2.635 10.59.213.298 1.455.78 2.375-1.119.512-1.052 1.982-1.929 2.439-4.096.587-2.775.222-5.669-2.179-5.375zm-31.15 0c2.412.292 4.152 8.439 2.635 10.59-.213.298-1.455.78-2.377-1.119-.51-1.052-1.982-1.929-2.438-4.096-.585-2.775-.22-5.669 2.18-5.375z" style="fill:#99b5a7"/><path d="M47.49 20.606c-.629.199-1.316 1.169-1.688 2.775 2.197-.478 1.648 3.218-.264 3.287.02.371.043.754.09 1.157.92-1.35 1.855-.809 2.783-2.815.835-1.81.638-4.895-.921-4.404zm-29.334 2.772c-.373-1.605-1.059-2.572-1.688-2.771-1.555-.492-1.758 2.594-.922 4.404.928 2.006 1.863 1.465 2.785 2.815.045-.403.07-.788.086-1.159-1.89-.089-2.433-3.741-.261-3.289z" style="fill:#6b8a79"/><path d="M31.892 14.4c.096 0 .096 0 0 0 .096 0 .096 0 0 0z" style="fill:#e81c27"/><path d="M31.984 1.34c-11.068 0-15.797 5.918-15.797 14.021h31.588c0-8.103-4.73-14.021-15.791-14.021z" style="fill:#1a1626"/><path d="M31.982 7.63c-10.512 0-15.576 2.645-14.939 13.82.127 2.248 1.504 9.582 2.807 12.211 1.332 2.691 5.789 6.84 8.519 7.7 1.723.541 5.5.541 7.225 0 2.73-.861 7.187-5.01 8.519-7.7 1.303-2.629 2.682-9.963 2.809-12.211.634-11.175-4.43-13.82-14.94-13.82z" style="fill:#99b5a7"/><path d="M31.984 7.32c-6.355 0-20.109-3.777-14.543 17.153.332-2.469-.33-5.711.711-8.265 3.225-7.929 4.131-5.164 13.832-5.164 9.699 0 10.605-2.766 13.83 5.164 1.041 2.554.379 5.796.711 8.265C52.091 3.543 38.34 7.32 31.984 7.32z" style="fill:#1a1626"/><path d="M43.965 17.138c-2.436-1.22-7.092-1.281-8.826-.43-.371.166-.127 1.324.186 1.212 2.42-.904 6.318-.926 8.582.079.3.128.427-.689.058-.861zm-23.967 0c2.434-1.22 7.09-1.281 8.826-.43.371.166.127 1.324-.186 1.212-2.422-.904-6.318-.926-8.584.079-.3.128-.425-.689-.056-.861z" style="fill:#302c3b"/><path d="M37.668 18.913c-5.213 1.621-2.051 9.039 3.162 7.418 5.213-1.621 2.051-9.037-3.162-7.418zm-11.371 0c-5.215-1.619-8.377 5.798-3.166 7.418 5.214 1.62 8.377-5.798 3.166-7.418zm13.271 13.103c.693.831 2.102-.636 1.406-1.469-.695-.831-2.101.636-1.406 1.469zm1.781.821c.328.393.994-.3.666-.695-.33-.393-.994.302-.666.695zm.518-1.601c.225.271.678-.203.453-.472-.223-.27-.678.206-.453.472z" style="fill:#6b8a79"/><path d="M34.955 28.293c-.314-.221-1.053.121-2.977.121-1.92 0-2.66-.342-2.975-.121-.377.268.223 1.477 2.975 1.477 2.754 0 3.356-1.209 2.977-1.477z" style="fill:#4f6659"/><path d="M21.33 22.069c0-3.032 6.973-3.032 6.973 0 0 4.043-6.973 4.043-6.973 0z" style="fill:#fcc7c3"/><path d="M24.885 24.475c-.037.146-.381.399-.396.302-.029-.172-.168-.517.152-.687-.436.186-.197.73-.188.78.006.032-.002.142-.008.215.021.002.041.004.063.004l-.004-.241s.34-.085.381-.373zm.775.439c.094-.03.1-.612-.367-.748.342.126.363.543.33.679-.018.075-.383-.115-.422-.229.041.225.404.284.404.284l-.004.13a.385.385 0 0 0 .047-.008c-.007-.049-.009-.101.012-.108zm.801-.77c.035.146-.149.533-.207.456-.105-.138-.391-.377-.185-.679-.299.371.166.738.197.776.016.02.043.077.066.132.017-.006.035-.012.053-.02l-.084-.154s.259-.237.16-.511zm.75-.022c.066-.071-.211-.596-.686-.5.361-.047.58.316.619.452.02.077-.393.077-.483-.008.147.182.494.067.494.067l.09.182.049-.039c-.042-.047-.107-.13-.083-.154zm.261-1.178c.133.124.199.638.09.598-.197-.067-.639-.116-.633-.559-.057.574.654.632.709.649.029.01.1.053.164.095l.041-.057-.197-.105s.106-.412-.174-.621zm.608-.516c.021-.124-.561-.468-.967-.02.324-.314.756-.097.875.018.065.065-.338.367-.475.345.25.083.52-.292.52-.292l.223.138c.006-.03.01-.059.014-.087-.069-.017-.198-.058-.19-.102zm-.496-.975c.162.043.441.434.334.452-.191.032-.576.188-.762-.178.203.496.811.227.863.217.045-.008.207.006.279.014l-.006-.075-.295.004c.001 0-.093-.384-.413-.434zm-3.453 3.076c-.039.114-.396.306-.412.231-.029-.134-.006-.547.328-.675-.453.14-.455.716-.365.746.023.008.018.069.008.124l.049.012-.004-.152c-.001 0 .353-.063.396-.286zm-.778-.981c.264.389-.098.693-.233.869-.074.099-.314-.397-.27-.584-.123.349.209.653.209.653l-.106.194.066.032c.031-.071.064-.146.084-.17.041-.051.635-.517.25-.994zm-.65.187c-.098.091-.494.152-.463.077.055-.134.318-.507.658-.517-.441-.02-.781.513-.728.571.019.02-.055.105-.102.158l.035.036.117-.19c.001-.001.317.057.483-.135zm.145-1.218c.033.492-.561.521-.822.586-.145.035-.084-.531.088-.661-.363.217-.199.683-.199.683l-.346.138a1.1 1.1 0 0 0 .039.085c.092-.047.266-.136.32-.15.074-.016 1.027-.037.92-.681zm-.637-.355c-.18.073-.625-.18-.529-.282.176-.186.769-.602 1.113-.31-.42-.436-1.231.19-1.229.34 0 .049-.142.13-.236.18l.002.095.281-.223c0-.002.262.387.598.2z" style="fill:#fc5a4e"/><linearGradient id="a" x1="25.017" x2="25.017" y1="24.09" y2="20.049" gradientUnits="userSpaceOnUse"><stop offset="0" style="stop-color:#a6694a"/><stop offset="1" style="stop-color:#4f2a1e"/></linearGradient><path d="M23.017 21.994c0 2.795 4 2.795 4 0 0-2.594-4-2.594-4 0z" style="fill:url(#a)"/><path d="M24.185 22.038c0 1.161 1.662 1.161 1.662 0 0-1.076-1.662-1.076-1.662 0z" style="fill:#1a1626"/><path d="M28.303 22.073v-.004c0-4.043-6.973-4.043-6.973 0v.004c1.4-1.068 5.721-.955 6.973 0z" style="fill:#4f6659"/><path d="M42.632 22.069c0-3.032-6.972-3.032-6.972 0 0 4.043 6.972 4.043 6.972 0z" style="fill:#fcc7c3"/><path d="M39.078 24.475c.037.146.381.399.396.302.029-.172.166-.517-.154-.687.438.186.197.73.188.78-.004.032.004.142.01.215-.021.002-.041.004-.063.004l.004-.241s-.34-.085-.381-.373zm-.776.439c-.094-.03-.099-.612.367-.748-.344.126-.363.543-.332.679.02.075.385-.115.424-.229-.041.225-.404.284-.404.284l.004.13a.385.385 0 0 1-.047-.008c.008-.049.01-.101-.012-.108zm-.802-.77c-.035.146.15.533.209.456.105-.138.389-.377.186-.679.299.371-.168.738-.199.776-.014.02-.041.077-.066.132-.017-.006-.035-.012-.053-.02l.086-.154c-.001 0-.261-.237-.163-.511zm-.748-.022c-.066-.071.211-.596.686-.5-.361-.047-.582.316-.619.452-.021.077.393.077.482-.008-.146.182-.494.067-.494.067l-.092.182-.047-.039c.043-.047.107-.13.084-.154zm-.262-1.178c-.133.124-.201.638-.09.598.195-.067.639-.116.633-.559.055.574-.654.632-.711.649-.027.01-.1.053-.164.095-.012-.02-.027-.038-.039-.057l.197-.105s-.105-.412.174-.621zm-.607-.516c-.021-.124.561-.468.967-.02-.324-.314-.756-.097-.875.018-.064.065.336.367.475.345-.252.083-.52-.292-.52-.292l-.225.138a9.405 9.405 0 0 0-.012-.087c.069-.017.197-.058.19-.102zm.496-.975c-.164.043-.441.434-.334.452.191.032.576.188.762-.178-.203.496-.811.227-.865.217a1.758 1.758 0 0 0-.277.014l.006-.075.295.004c-.001 0 .092-.384.413-.434zm3.453 3.076c.039.114.395.306.412.231.029-.134.004-.547-.328-.675.453.14.455.716.363.746-.023.008-.018.069-.006.124l-.049.012.002-.152s-.351-.063-.394-.286zm.777-.981c-.264.389.098.693.232.869.074.099.313-.397.27-.584.123.349-.209.653-.209.653l.104.194-.065.032a1.263 1.263 0 0 0-.084-.17c-.039-.051-.633-.517-.248-.994zm.65.187c.098.091.492.152.463.077-.057-.134-.318-.507-.658-.517.441-.02.781.513.727.571-.018.02.057.105.104.158l-.035.036-.117-.19c-.001-.001-.318.057-.484-.135zm-.144-1.218c-.033.492.559.521.82.586.146.035.084-.531-.086-.661.363.217.197.683.197.683l.348.138-.039.085c-.092-.047-.266-.136-.32-.15-.076-.016-1.028-.037-.92-.681zm.637-.355c.18.073.625-.18.527-.282-.174-.186-.768-.602-1.113-.31.42-.436 1.232.19 1.23.34 0 .049.143.13.236.18 0 .031-.002.063-.004.095l-.279-.223c0-.002-.261.387-.597.2z" style="fill:#fc5a4e"/><linearGradient id="b" x1="-1825.92" x2="-1825.92" y1="24.09" y2="20.049" gradientTransform="matrix(-1 0 0 1 -1786.975 0)" gradientUnits="userSpaceOnUse"><stop offset="0" style="stop-color:#a6694a"/><stop offset="1" style="stop-color:#4f2a1e"/></linearGradient><path d="M40.945 21.994c0 2.795-4 2.795-4 0 0-2.594 4-2.594 4 0z" style="fill:url(#b)"/><path d="M39.777 22.038c0 1.161-1.662 1.161-1.662 0 0-1.076 1.662-1.076 1.662 0z" style="fill:#1a1626"/><path d="M35.66 22.073v-.004c0-4.043 6.972-4.043 6.972 0v.004c-1.351-1.52-5.017-2.39-6.972 0z" style="fill:#4f6659"/><path d="M9.992 46.013c-.496 1.334 2.984 1.394 3.482.059.499-1.334-2.982-1.393-3.482-.059zm.592 2.324c-.236.632 1.41.657 1.646.028.235-.632-1.41-.66-1.646-.028zm2.791-.867c-.162.43.963.448 1.123.018.162-.431-.963-.45-1.123-.018z" style="fill:#6b8a79"/><linearGradient id="c" x1="36.988" x2="43.388" y1="9.075" y2="14.942" gradientUnits="userSpaceOnUse"><stop offset="0" style="stop-color:#1a1626"/><stop offset=".777" style="stop-color:#302c3b"/></linearGradient><path d="M33.036 7.916c1.551 3.953 8.884 7.288 11.541 7.405-2.055-2.753-2.278-9.153-11.541-7.405z" style="fill:url(#c)"/><path d="M34.9 3.261C33.898 1.08 29.529.843 28.328.003 28.3 1.892 29.933 5.179 34.9 3.261zm10.668 6.243c2.215.88 2.867 5.165 3.613 6.434-1.866-.101-5.209-1.308-3.613-6.434z" style="fill:#1a1626"/><linearGradient id="d" x1="112.723" x2="122.977" y1="203.87" y2="209.578" gradientTransform="rotate(9.701 1225.794 -388.213)" gradientUnits="userSpaceOnUse"><stop offset="0" style="stop-color:#1a1626"/><stop offset=".741" style="stop-color:#302c3b"/></linearGradient><path d="M22.687 5.58c2.136 4.849 12.424 9.429 16.166 9.785-2.859-3.458-3.09-11.126-16.166-9.785z" style="fill:url(#d)"/><path d="M21.592 32.703s.502-2.727 3.544-3.189c0 0-2.199 1.389-3.544 3.189z" style="fill:#6b8a79"/><path d="M21.759 32.487s.757-1.857 3.033-2.742c0 0-1.804 1.345-3.033 2.742z" style="fill:#fd7383"/><path d="M23.364 33.609s-.07-2.773 2.81-3.864c0 0-1.865 1.821-2.81 3.864z" style="fill:#6b8a79"/><path d="M23.483 33.363s.358-1.976 2.402-3.32c0 0-1.487 1.695-2.402 3.32z" style="fill:#fd7383"/><path d="M33.909 31.873c-.454.013-1.929.173-1.929.173s-1.465-.16-1.919-.173c-1.342-.049-3.462 1.501-3.811 3.091-.303 1.38 1.299 3.22 5.731 3.22 4.434 0 6.032-1.84 5.73-3.22-.348-1.59-2.46-3.139-3.802-3.091z" style="fill:#4f6659"/><path d="M31.978 32.405c-3.536 0-4.919 1.569-5.125 2.45-.252 1.08 2.301 2.156 5.125 2.155 2.776-.001 5.372-1.075 5.129-2.155-.199-.881-1.594-2.45-5.129-2.45z" style="fill:#1a1626"/><path d="M31.98 35.421c-3.336-.393-3.914.83-3.914.83s1.518 1.425 3.914 1.425c2.395 0 3.913-1.434 3.913-1.434s-.577-1.214-3.913-.821z" style="fill:#fd9aa6"/><path d="M32.008 32.381v1.242c0 .301 1.631.285 1.631 0v-1.105s-.655-.137-1.631-.137zm3.262 1.241v-.651a7.74 7.74 0 0 0-1.631-.452v1.103c0 .301 1.631.286 1.631 0zm-6.54-.644v.644c0 .3 1.631.285 1.631 0v-1.101c-.538.093-1.1.24-1.631.457z" style="fill:#fff"/><linearGradient id="e" x1="8.723" x2="2.26" y1="-28.448" y2="-25.59" gradientTransform="rotate(-1.812 1217.077 -381.865)" gradientUnits="userSpaceOnUse"><stop offset="0" style="stop-color:#1a1626"/><stop offset="1" style="stop-color:#302c3b"/></linearGradient><path d="M23.261 3.217c-4.03 1.347-9.365 6.514-10.243 14.476 3.702-7.828 9.249-6.429 10.243-14.476z" style="fill:url(#e)"/><linearGradient id="f" x1="19.183" x2="14.422" y1="9.924" y2="21.338" gradientUnits="userSpaceOnUse"><stop offset="0" style="stop-color:#1a1626"/><stop offset=".794" style="stop-color:#302c3b"/></linearGradient><path d="M21.158 8.346c-6.554 1.293-7.863 10.041-6.459 13.951 1.414-4.233 7.798-10.058 6.459-13.951z" style="fill:url(#f)"/><linearGradient id="g" x1="1332.389" x2="1340.184" y1="863.886" y2="869.602" gradientTransform="rotate(76.779 1216.987 -390.96)" gradientUnits="userSpaceOnUse"><stop offset="0" style="stop-color:#1a1626"/><stop offset=".701" style="stop-color:#302c3b"/></linearGradient><path d="M24.567 6.322c-7.243-2.312-7.462 8.018-6.226 11.984 1.592-4.167 7.398-8.036 6.226-11.984z" style="fill:url(#g)"/><linearGradient id="h" x1="55.011" x2="62.777" y1="91.924" y2="97.618" gradientTransform="rotate(4.026 1218.257 -394.214)" gradientUnits="userSpaceOnUse"><stop offset="0" style="stop-color:#1a1626"/><stop offset=".758" style="stop-color:#302c3b"/></linearGradient><path d="M22.659 5.775c-4.332 6.306 5.364 9.58 9.479 9.563-3.466-2.772-5.401-9.524-9.479-9.563z" style="fill:url(#h)"/><path d="M30.121 1.415s8.131 1.442 15.221 6.954c-1.655.293-1.796 1.629-1.796 1.629s-2.341-1.801-5.092-.36c0 0-1.116-3.494-4.638-1.671 0 0 .098-3.334-3.065-3.145.001-.001.365-1.767-.63-3.407z" style="opacity:.2;fill:#1a1626"/><path d="M29.856 1.091s2.017.394 2.374-1.094c0 0 1.779 1.215 4.501.081 0 0 .666 1.775 3.002 1.09 0 0 1.834 1.431 3.752 1.619 0 0-.026 2.321 1.705 2.649-.449.832-.227 2.511.666 2.886-2.048.066-2.4 1.354-2.4 1.354s-2.133-1.836-4.884-.395c0 0-.967-3.597-4.489-1.775 0 0 .073-3.104-3.09-2.915 0 0 .265-1.953-1.137-3.5z" style="fill:#eb6e7e"/><path d="M31.279 4.408s.619-.733 1.086-.771l-.004-.214c-.834.139-1.082.985-1.082.985zm.038-.514s.619-.733 1.086-.771l-.004-.214c-.835.139-1.082.985-1.082.985zm-1.089-2.639s.97.27 1.161.651l.224-.077c-.415-.657-1.385-.574-1.385-.574z" style="fill:#d96470"/><path d="M30.359 1.46s.97.27 1.161.651l.224-.077c-.415-.656-1.385-.574-1.385-.574zm3.66 4.316s.952-.338 1.369-.151l.122-.185c-.786-.273-1.491.336-1.491.336zm-.832-1.133s.877-.475 1.324-.354l.086-.201c-.828-.15-1.41.555-1.41.555z" style="fill:#d96470"/><path d="M34.286 6.629s.585-.755 1.05-.81l-.014-.214c-.827.17-1.036 1.024-1.036 1.024z" style="fill:#d96470"/><path d="M35.078 6.772s.109-.91.49-1.159l-.127-.18c-.639.506-.363 1.339-.363 1.339zm3.379 1.358s.464-.818.917-.93l-.046-.21c-.795.27-.871 1.14-.871 1.14zm.979.601s-.019-.913-.374-1.184l.145-.172c.587.541.229 1.356.229 1.356zm-1.64-1.692s-.019-.913-.374-1.184l.145-.172c.586.541.229 1.356.229 1.356zm3.951 1.385s-.019-.913-.374-1.184l.145-.172c.587.541.229 1.356.229 1.356zm2.549-.103s-.019-.913-.374-1.184l.145-.172c.586.541.229 1.356.229 1.356z" style="fill:#d96470"/><path d="M38.777 8.731s.407-.842.212-1.222l.211-.103c.279.713-.423 1.325-.423 1.325zm4.739.073s-.499-.791-.957-.878l.037-.212c.806.225.92 1.09.92 1.09zm1.544-.557s-.499-.791-.957-.878l.037-.212c.806.225.92 1.09.92 1.09z" style="fill:#d96470"/><path d="M43.069 9.258s-.084-.91-.458-1.159l.132-.18c.624.505.326 1.339.326 1.339z" style="fill:#d96470"/><path d="M30.869 1.573S32.23-.002 34.7.846c0 0 2.899-.9 4.389 1.016 0 0 3.281-.769 3.841 1.63 0 0 2.442 1.517 1.835 4.208-.487-.258-1.57.007-1.797.664-.862-.675-2.805-1.061-3.858-.534-.601-1.276-2.133-2.278-4.177-1.984-.467-1.37-1.781-2.079-3.124-2.053.059-1.224-.94-2.22-.94-2.22z" style="fill:#e892bd"/><path d="M42.448 5.057c.95-.638.483-1.566.483-1.566-.876 1.143-1.613-.319-3.417-.227.316-1.336-1.13-2.068-1.13-2.068 1.382 3.057-1.502 1.008-2.701.888C35.519.664 33.792.628 33.792.628c.247.14 1.285 1.246.815 1.204-1.089-.097-1.85.821-2.247 1.552-.138-1.002-.867-1.708-1.491-1.812 0 0 .999.996.939 2.22 1.343-.026 2.657.683 3.124 2.053 2.044-.293 3.576.708 4.177 1.984 1.053-.527 2.996-.142 3.858.534-.632-.914-.503-1.431-.067-1.843.239-.226 1.264-.099 1.793.619-.403-1.649-1.635-1.415-2.245-2.082zm-.437 1.117c-.095 1.296-3.578 1.071-1.511-.904-.511-.225-1.717-.189-2.216.676-.346-.779-1.846-.672-1.582-1.029 1.438-1.939 5.447-.636 5.309 1.257zm-6.653-1.392c-.576-1.252-2.506-1.269-2.169-1.524 1.358-1.024 5.142-.292 2.169 1.524z" style="fill:#d988b1"/><path d="M33.562.606s1.772.199 1.622 1.645l.305.063C35.702.457 33.562.606 33.562.606z" style="fill:#c2799e"/><path d="M32.822 3.082s1.934-1.629 4.275.261c-2.58-2.85-4.275-.261-4.275-.261zm3.909.734s-.735 1.368-2.073 1.444l.274.587c1.791-.455 1.799-2.031 1.799-2.031zm3.436 1.576s-1.612.16-1.649 1.589l.349.419c.006-1.3 1.3-2.008 1.3-2.008zm4.388 1.429s-.683-1.394-2.089-.969l-.194.498c1.137-.547 2.283.471 2.283.471zM37.588 3.98s1.603-.5 3.366.198c-1.957-1.588-3.366-.198-3.366-.198z" style="fill:#c2799e"/><path d="M41.587 4.477s1.151 1.352.248 2.835c1.745-1.794-.248-2.835-.248-2.835zm-3.203-3.28s1.306.94.533 2.336l.191-.006c1.181-1.511-.724-2.33-.724-2.33z" style="fill:#c2799e"/><path d="M42.358 2.44s1.238 1.224-.382 2.448l.089.146c2.098-1.322.293-2.594.293-2.594zm-8.144-1.114s.41-.059.888.144l.045-.164c-.554-.209-.933.02-.933.02zm3.616 1.793s.364.173.606.595l.146-.109c-.298-.466-.752-.486-.752-.486zm-5.268-.914s.392.116.71.495l.124-.129c-.382-.414-.834-.366-.834-.366zm3.361 1.175s.135-.352-.004-.81l.188-.011c.132.526-.184.821-.184.821zm.907 2.177s-.244-.297-.745-.451l.099-.144c.559.196.646.595.646.595zm3.218-.937s.103-.361-.079-.806l.187-.025c.18.514-.108.831-.108.831zm-.309 2.163s-.406-.071-.896.117l-.034-.166c.566-.191.93.049.93.049zm4.374-1.175s-.408.066-.792.399l-.099-.143c.454-.361.891-.256.891-.256zM40.25 2.41s-.41-.05-.888.163l-.044-.164c.553-.22.932.001.932.001z" style="fill:#c2799e"/></svg>