<svg xmlns="http://www.w3.org/2000/svg" xml:space="preserve" style="enable-background:new 0 0 64 64" viewBox="0 0 64 64"><path d="M12.43 54.718c2.504-1.288 12.95-4.543 12.95-4.543l15.22-.037s10.538 3.284 13.024 4.577C57.24 56.588 58 59.144 58 61.56c0 3.253-50 3.253-50 0 0-2.42.806-4.976 4.43-6.842z" style="fill:#006dae"/><path d="M40.77 49.783H25.31s-10.376 3.604-12.876 4.969L33 64l20.625-9.252c-2.486-1.37-12.856-4.965-12.856-4.965z" style="fill:#006dae"/><path d="M23.002 50.6c0 8.488 19.994 8.459 19.994-.032L41 49.891H25l-1.998.709z" style="fill:#006099"/><path d="M25 50.074c0 6.36 16 6.36 16 0v-7.158H25v7.158z" style="fill:#5e4c3b"/><path d="M32.476 60.906V64h1.045v-3.094h-1.045z" style="fill:#014d87"/><path d="M18.402 49.69c-1.678-1.094-4.521.302-4.426 2.363-1.644-.615-3.42.154-3.247 3.094-5.782 7.019 9.779 8.851 21.747 8.851v-3.094c-3.799-2.15-6.71-6.443-9.1-9.213-.786-.916 1.624-1.8 1.624-1.8v-2.955c-2.78 0-6.373 1.312-6.598 2.754z" style="fill:#0081cf"/><path d="M19.262 52.053s2.955 6.816 12.84 9.978c0 0-8.126-4.336-12.84-9.978zm-5.286.086s5.059 10.218 18.5 11.86c0 0-12.662-4.188-18.5-11.86z" style="fill:#006dae"/><path d="M10.729 55.147s3.982 7.304 21.747 8.851c0 0-18.552.193-21.747-8.851z" style="fill:#006dae"/><path d="M47.597 49.69c1.678-1.094 4.522.302 4.424 2.363 1.647-.615 3.42.154 3.25 3.094 5.781 7.019-9.779 8.851-21.75 8.851v-3.094c3.8-2.15 6.713-6.443 9.1-9.213.789-.916-1.621-1.8-1.621-1.8v-2.955c2.777 0 6.37 1.312 6.597 2.754z" style="fill:#0081cf"/><path d="M46.736 52.053s-2.953 6.816-12.838 9.978c0 0 8.123-4.336 12.838-9.978zm5.285.086s-5.058 10.218-18.5 11.86c0 0 12.664-4.188 18.5-11.86z" style="fill:#006dae"/><path d="M55.271 55.147s-3.984 7.304-21.75 8.851c0 0 18.553.193 21.75-8.851z" style="fill:#006dae"/><path d="M27.172 61.994c0 1.334-2.082 1.334-2.082 0s2.082-1.334 2.082 0zm13.738 0c0 1.334-2.084 1.334-2.084 0s2.084-1.334 2.084 0z" style="fill:#f59e01"/><path d="M40.162 62.492a29.97 29.97 0 0 1-14.326 0l.304-1.14a28.693 28.693 0 0 0 13.717 0l.305 1.14z" style="fill:#f9b700"/><path d="M33.094 22.743c-14.462-3.4-29.524 2.63-28.522 4.406 2.91 5.156 9.503 3.785 29.032 6.717 15.674 2.353 25.242-2.96 27.81-6.717 1.147-1.678-13.815-1.216-28.32-4.406z" style="fill:#006dae"/><path d="M16.385 33.568s.51 4.932-.745 8.254c1.764-.19 2.22-1.08 2.22-1.08s-.061 2.31-.958 3.93c1.657.273 2.675-.548 2.675-.548s0 1.748.13 2.95c4.826-1.247 4.537-6.864 4.537-6.864l-7.859-6.642zm33.974 8.254c-1.254-3.33-.745-8.255-.745-8.255l-7.851 6.643s-.289 5.617 4.537 6.863c.13-1.2.13-2.949.13-2.949s1.018.821 2.675.548c-.905-1.612-.958-3.93-.958-3.93s.449.89 2.212 1.08z" style="fill:#b3c2c6"/><path d="M49.44 27.419c-2.547.311-4.386 8.831-2.783 11.081.22.312 1.536.813 2.509-1.17.54-1.102 2.09-2.014 2.576-4.287.616-2.903.236-5.928-2.303-5.624zm-32.88 0c2.546.311 4.385 8.831 2.782 11.081-.22.312-1.535.813-2.508-1.17-.54-1.102-2.09-2.014-2.577-4.287-.615-2.903-.228-5.928 2.303-5.624z" style="fill:#735c48"/><path d="M49.37 29.053c-.66.213-1.39 1.224-1.778 2.903 2.318-.501 1.74 3.367-.273 3.443.015.388.045.79.09 1.209.974-1.414 1.962-.844 2.942-2.95.874-1.892.669-5.122-.98-4.605zm-30.963 2.896c-.395-1.68-1.117-2.69-1.779-2.896-1.641-.517-1.854 2.713-.972 4.606.98 2.097 1.968 1.535 2.94 2.949.046-.426.077-.821.092-1.216-1.999-.092-2.569-3.907-.281-3.443z" style="fill:#4a3728"/><path d="M33 11.032c-11.028 0-16.341 8.984-15.68 20.529.137 2.318.783 5.67 1.58 8.543 1.65 5.966 8.947 11.97 14.1 11.97s12.441-6.004 14.098-11.97c.798-2.873 1.444-6.217 1.581-8.543.661-11.545-4.651-20.529-15.68-20.529z" style="fill:#735c48"/><path d="M35.979 38.158c-.312-.22-1.056.122-2.98.122-1.922 0-2.66-.342-2.979-.122-.38.266.22 1.467 2.98 1.467 2.751 0 3.351-1.2 2.979-1.467z" style="fill:#4a3728"/><path d="M30.545 31.12c.09.73-.403 1.596-1.771 2.242-.874.41-2.683.897-5.07-.106-1.064-.449-2.105-1.855-2.014-2.63 1.292-2.432 7.646-2.79 8.855.494z" style="fill:#fff"/><linearGradient id="a" x1="-1210.336" x2="-1210.336" y1="173.012" y2="172.252" gradientTransform="translate(7978.266 -1103.139) scale(6.5701)" gradientUnits="userSpaceOnUse"><stop offset="0" style="stop-color:#a6694a"/><stop offset="1" style="stop-color:#4f2a1e"/></linearGradient><path d="M26.235 28.574a2.5 2.5 0 0 1 2.5 2.493 2.501 2.501 0 0 1-5.001 0 2.496 2.496 0 0 1 2.501-2.493z" style="fill:url(#a)"/><path d="M24.989 31.029c0 1.725 2.5 1.725 2.5 0-.007-1.604-2.5-1.604-2.5 0z" style="fill:#1a1626"/><path d="M24.609 30.33c0 .722 1.049.722 1.049 0-.008-.677-1.05-.677-1.05 0z" style="fill:#ab968c"/><path d="M30.56 31.219c-1.01-3.26-7.927-2.774-8.87-.585.35-2.812 8.003-3.55 8.87.585z" style="fill:#4a3728"/><path d="M35.455 31.12c-.092.73.402 1.596 1.77 2.242.874.41 2.683.897 5.07-.106 1.072-.449 2.105-1.855 2.014-2.63-1.292-2.432-7.646-2.79-8.854.494z" style="fill:#fff"/><linearGradient id="b" x1="-1210.984" x2="-1210.984" y1="173.012" y2="172.252" gradientTransform="translate(7995.996 -1103.139) scale(6.5701)" gradientUnits="userSpaceOnUse"><stop offset="0" style="stop-color:#a6694a"/><stop offset="1" style="stop-color:#4f2a1e"/></linearGradient><path d="M39.71 28.574a2.5 2.5 0 1 1 0 5.001 2.5 2.5 0 0 1 0-5.001z" style="fill:url(#b)"/><path d="M38.464 31.029c0 1.725 2.5 1.725 2.5 0-.007-1.604-2.5-1.604-2.5 0z" style="fill:#1a1626"/><path d="M38.084 30.33c0 .722 1.05.722 1.05 0-.008-.677-1.05-.677-1.05 0z" style="fill:#ab968c"/><path d="M35.44 31.219c1.01-3.253 7.919-2.79 8.861-.585-.342-2.812-7.995-3.55-8.862.585zm4.334 10.495c-.487 3.408-8.546 5.838-11.992 1.816 8.811 1.424 11.992-1.816 11.992-1.816z" style="fill:#4a3728"/><path d="M33.079 42.849c-1.612-.569-2.789.756-5.297.68 8.78 2.105 11.992-1.815 11.992-1.815-2.654 1.92-4.89.306-6.695 1.135z" style="fill:#17100b"/><path d="M20.905 31.917a17.335 17.335 0 0 0 10.72 0c.252.772.502 1.545.753 2.317a19.77 19.77 0 0 1-12.225 0l.752-2.317zm13.47 0a17.335 17.335 0 0 0 10.72 0l.753 2.317a19.769 19.769 0 0 1-12.225 0c.25-.772.5-1.545.752-2.317z" style="fill:#735c48"/><path d="M35.764 32.959c.279 1.154 2.177 1.079 2.937.762-2.122-.161-2.999-1.018-2.937-.762zm-8.464.761c.759.318 2.658.393 2.937-.761.061-.256-.816.6-2.937.762z" style="fill:#4a3728"/><path d="M37.378 27.58c2.003-.529 5.035-1.126 7.17-.404-.042-.303-.375-.63-.375-.63s.854.219 1.396.603c-2.05-2.772-8.454-1.443-9.425-.838-1.433.892.153 1.553 1.234 1.268z" style="fill:#d4dee6"/><linearGradient id="c" x1="81.68" x2="81.68" y1="-240.114" y2="-243.678" gradientTransform="rotate(-14.999 1081.115 48.977)" gradientUnits="userSpaceOnUse"><stop offset="0" style="stop-color:#d4dee6"/><stop offset=".296" style="stop-color:#dbe4ea"/><stop offset=".735" style="stop-color:#eff3f6"/><stop offset="1" style="stop-color:#fff"/></linearGradient><path d="M35.642 27.214c.251-.674 2.348-1.327 4.017-1.332-1.28.238-1.805 1.032-1.805 1.032s2.589-1.031 4.764-1.01c-1.658.327-2.376.76-2.376.76s2.868-.886 3.933-.407c-.774-.014-1.383.148-1.383.148s1.33.137 1.756.771c-.041-.303-.375-.63-.375-.63s.854.219 1.396.603c-.284-.9-1.422-1.315-1.422-1.315s.357.042.71.18c-3.459-1.94-10.219-.18-9.215 1.2z" style="fill:url(#c)"/><path d="M28.622 27.58c-2.002-.529-5.035-1.126-7.17-.404.042-.303.375-.63.375-.63s-.854.219-1.395.603c2.049-2.772 8.453-1.443 9.424-.838 1.433.892-.152 1.553-1.234 1.268z" style="fill:#d4dee6"/><linearGradient id="d" x1="3020.096" x2="3020.096" y1="541.085" y2="537.52" gradientTransform="scale(-1 1) rotate(-14.999 -449.708 11850.505)" gradientUnits="userSpaceOnUse"><stop offset="0" style="stop-color:#d4dee6"/><stop offset=".296" style="stop-color:#dbe4ea"/><stop offset=".735" style="stop-color:#eff3f6"/><stop offset="1" style="stop-color:#fff"/></linearGradient><path d="M30.358 27.214c-.25-.674-2.347-1.327-4.017-1.332 1.281.238 1.806 1.032 1.806 1.032s-2.59-1.031-4.764-1.01c1.658.327 2.375.76 2.375.76s-2.867-.886-3.932-.407c.774-.014 1.383.148 1.383.148s-1.33.137-1.756.771c.041-.303.374-.63.374-.63s-.853.219-1.395.603c.284-.9 1.422-1.315 1.422-1.315s-.358.042-.711.18c3.46-1.94 10.22-.18 9.215 1.2z" style="fill:url(#d)"/><path d="M38.078 21.675h-5.213c6.408 3.058 13.16 4.595 15.693 12.181-1.356-5.522-5.655-9.243-10.48-12.18z" style="fill:#b3c2c6"/><path d="M33.93 21.675c6.334 2.833 12.444 4.315 14.628 12.189 1.822-2.902 2.801-5.989 2.98-8.982.064-1.086-17.608-3.207-17.608-3.207z" style="fill:#cad4db"/><path d="M42.008 21.675h-6.467c5.767 2.418 11.288 4.194 12.857 9.878-.298-4.195-3.824-7.791-6.39-9.878zm.431 0c2.455 1.664 5.69 4.205 7.091 6.853-.608-2.296-2.538-4.87-4.293-6.853H42.44zm4.103 0c1.681 1.351 3.375 2.907 4.19 4.247-.253-1.335-.98-2.827-1.857-4.247h-2.333z" style="fill:#dae2e8"/><path d="M14.775 21.675c-.907 4.383-.042 9.263 2.993 12.181.618-5.112 1.225-8.721 3.71-12.18h-6.703z" style="fill:#cad4db"/><path d="M21.093 21.675c-1.502 2.429-3.268 6.478-3.325 12.181.552-5.976 2.508-9.958 3.97-12.18h-.645z" style="fill:#b3c2c6"/><path d="M15.544 21.675c-.36 1.986-.362 4.377.233 7.249a19.7 19.7 0 0 1 .395-2.92c-.018 1.617.223 3.39.844 5.329.383-4.238 1.743-7.44 3.076-9.658h-4.548z" style="fill:#dae2e8"/><path d="M17.311 21.675c-.367 1.375-.538 3.033-.32 5.02.253-1.746.78-3.477 1.37-5.02h-1.05z" style="fill:#e6ebef"/><radialGradient id="e" cx="24.563" cy="-240.472" r="4.907" gradientTransform="matrix(.9812 -.173 .173 .9811 23.278 275.073)" gradientUnits="userSpaceOnUse"><stop offset=".23" style="stop-color:#bf0"/><stop offset=".429" style="stop-color:#b8fe00"/><stop offset=".559" style="stop-color:#b0fb00"/><stop offset=".668" style="stop-color:#a1f600"/><stop offset=".767" style="stop-color:#8cee00"/><stop offset=".858" style="stop-color:#70e400"/><stop offset=".942" style="stop-color:#4fd900"/><stop offset="1" style="stop-color:#34cf00"/></radialGradient><path d="M6.467 31.211a5.002 5.002 0 0 0-4.055 5.795 4.999 4.999 0 0 0 5.791 4.053 5 5 0 1 0-1.736-9.848z" style="fill:url(#e)"/><radialGradient id="f" cx="202.697" cy="-143.942" r="6.91" gradientTransform="matrix(.432 .3946 -.6064 .6639 -170.964 48.396)" gradientUnits="userSpaceOnUse"><stop offset="0" style="stop-color:#fff"/><stop offset="1" style="stop-color:#fff;stop-opacity:0"/></radialGradient><path d="M7.134 35.855c-1.195 1.31-2.855 1.74-3.706.962-.853-.778-.575-2.47.62-3.78 1.197-1.308 2.857-1.74 3.71-.962.854.78.574 2.473-.624 3.78z" style="fill:url(#f)"/><linearGradient id="g" x1="34.985" x2="39.408" y1="-217.623" y2="-217.623" gradientTransform="rotate(-10.003 1588.544 62.443)" gradientUnits="userSpaceOnUse"><stop offset="0" style="stop-color:#916958"/><stop offset=".284" style="stop-color:#815c4c"/><stop offset=".836" style="stop-color:#583a2e"/><stop offset="1" style="stop-color:#4a2f24"/></linearGradient><path d="m10.884 48.729-1.826 2.374c1.244 1.133 1.723 2.05 1.93 3.225.113.64.18 1.074-.31 2.492-.418 1.21 3.538 6.208 3.538 6.208-.845-2.467-.672-3.633-.246-4.631.251-.588.773-1.628.313-2.361-.293-.467-.09-1.503-.264-2.242-.515-2.194-1.611-3.679-3.135-5.065z" style="fill:url(#g)"/><linearGradient id="h" x1="30.116" x2="39.368" y1="-223.368" y2="-223.368" gradientTransform="rotate(-10.003 1588.544 62.443)" gradientUnits="userSpaceOnUse"><stop offset="0" style="stop-color:#916958"/><stop offset=".284" style="stop-color:#815c4c"/><stop offset=".836" style="stop-color:#583a2e"/><stop offset="1" style="stop-color:#4a2f24"/></linearGradient><path d="M2.009 38.266c.925 2.093 3.3 2.907 5.57 3.811 2.308.92 4.282 1.947 4.734 2.713.36.612.259 2.09-.194 2.643-.39.476-.026 1.408-.267 1.942-.945 2.103-1.874 3.875-1.594 5.467.205 1.157 3.05 2.103 4.507 8.451 0 0-2.705-.174-4.647-.673-.618-3.501-1.553-3.037-1.453-4.028.055-.535-1.361-1.285-1.649-2.915-.186-1.059.5-1.903.32-2.816-.096-.485.378-1.376.686-1.974.89-1.724 1.955-3.234 1.673-4.83-.447-2.538-7.992-1.904-7.686-7.79z" style="fill:url(#h)"/><linearGradient id="i" x1="32.647" x2="41.659" y1="-230.284" y2="-230.284" gradientTransform="rotate(-10.003 1588.544 62.443)" gradientUnits="userSpaceOnUse"><stop offset="0" style="stop-color:#916958"/><stop offset=".284" style="stop-color:#815c4c"/><stop offset=".836" style="stop-color:#583a2e"/><stop offset="1" style="stop-color:#4a2f24"/></linearGradient><path d="M13.07 36.316c-.252 3.741-5.388 6-6.967 8.375-.364.548.144 1.342-.11 1.87-.271.559.478.955.61 1.542.194.868 1.007 1.644 1.683 2.286 1.14-1.354 1.287-2.713 1.287-2.713-.465-.544-.71-.686-.83-1.364-.268-1.524 2.173-2.633 3.737-4.621.303-.385.006-1.102.477-1.224.193-.05.253-.513.298-.638.364-.995.395-2.144-.186-3.513z" style="fill:url(#i)"/><path d="M13.822 63.062c-1.935-6.214-6.076-4.915-4.7-10.758-.141 5.721 3.102 3.132 4.7 10.758zm-2.012-.541c-2.152-3.047-3.258-5.735-3.258-5.735s2.34 1.878 3.258 5.735zm.887-4.809c1.162-3.636-1.214-7.127-1.214-7.127s3.715 2.837 1.214 7.127z" style="opacity:.3;fill:#1a1626"/><path d="M11.64 56.352c1.3-2.096-.766-4.346-.766-4.346s3.007 2.05.767 4.346zM8.345 49.58c-2.335-3.019-.676-5.388-.676-5.388s-3.142 2.212.676 5.388zm-1.161-6.218c-3.372-1.367-4.588-3.437-4.588-3.437s.381 2.577 4.588 3.437z" style="opacity:.3;fill:#1a1626"/><path d="M7.899 42.678c-2.323-.442-3.361-1.607-3.361-1.607s.57 1.594 3.36 1.607zm1.163.566c2.972-2.098 3.686-4.39 3.686-4.39s.215 2.595-3.686 4.39zm1.47 3.934c-.874 2.834-2.846 5.861-2.846 5.861s1.125-3.337 2.846-5.861zm-.964-3.702c-2.422 2.173-1.367 3.732-1.367 3.732s-1.863-1.813 1.367-3.732z" style="opacity:.3;fill:#1a1626"/><path d="M9.462 51.614c1.122-2.978 4.451-6.56.696-7.548 2.715 2.123-.228 4.313-.696 7.548z" style="opacity:.3;fill:#1a1626"/><path d="M46.463 14.508c.19-3.247-6.019-5.71-5.057-9.105.465-1.642 3.32-2.745 2.013-5.403-2.162 3.555-12.907 0-18.274 6.269-4.294 2.35-13.318 12.716-9.43 16.33 8.172-1.294 24.458-1.813 34.618 0 3.806-3.54-2.499-7.528-3.87-8.09z" style="fill:#0081cf"/><path d="m21.552 16.687-2.926-2.7-1.974 1.06s1.843-3.819 6.445-7.347l-.295 2.41 3.912 1.785-4.195 1.337-.967 3.455zm10.214-7.395 1.963-2.225-1.236-2.524 3.32.77 2.693-1.698.088 2.7 2.902 1.476-3.265.9-.901 2.608-2.106-2.144zM49.08 22.078l-4.61-.758-3.561 2.478-.331-3.59-4.092-1.732 4.405-1.46 1.032-3.549 3.054 2.688 3.604-.352s.316.226.629.507l-2.021 2.506 1.891 3.262z" style="fill:#ffe600"/><path d="M43.419 0c1.542 3.357-4.873 4.26-5.223 8.521 1.615-2.39 3.459-.676 3.176-1.805C40.68 3.845 44.98 3.223 43.42 0zm1.226 11.046s-11.22 0-22.832 6.4c8.055-2.307 19.168-4.244 24.65-2.936.323-1.472-1.818-3.464-1.818-3.464zm3.045 6.399s-3.98.82-15.034 3.072c8.998-4.404 15.034-3.072 15.034-3.072z" style="opacity:.2;fill:#013366;enable-background:new"/><path d="M33.27 20.388C18.407 17.475.811 22.698 4.494 27.149c4.08 4.93 9.481-6.3 28.066-2.657 18.584 3.643 24.826 8.26 28.773 2.657 4.316-6.127-13.203-3.848-28.065-6.761z" style="fill:#006dae"/></svg>