<svg xmlns="http://www.w3.org/2000/svg" xml:space="preserve" style="enable-background:new 0 0 64 64" viewBox="0 0 64 64"><linearGradient id="a" x1="29.994" x2="29.994" y1="64" y2="35.264" gradientUnits="userSpaceOnUse"><stop offset="0" style="stop-color:#484258"/><stop offset=".594" style="stop-color:#4a445a"/><stop offset=".808" style="stop-color:#504b60"/><stop offset=".96" style="stop-color:#5c566a"/><stop offset="1" style="stop-color:#605b6e"/></linearGradient><path d="M50.591 40.132c-2.29-1.584-11.775-4.868-11.775-4.868H26.754s-7.987 2.43-9.446 3.138c-3.354 1.628-6.979 2.841-7.468 10.25-2.502.62-4.76 2.437-4.767 3.765-.011 2.46 2.984 8.869 5.334 9.526 5.283 1.476 7.462-5.707 7.462-5.707s.245 1.988.245 3.568c0 6.976 36.781 4.058 36.781-.142 0-2.548.546-16.174-4.304-19.53z" style="fill:url(#a)"/><path d="M39.637 35.491c0 5.388-14 5.388-14 0v-5.96h14v5.96z" style="fill:#484258"/><path d="M.815 28.509c-1.04-1.155-.863-4.048-.632-4.65.415-1.08 1.962-3.267 2.535-4.029.279-.371 1.008.987.58 1.53-.603.765-1.7 2.815-1.624 3.465.157 1.355-.116 4.508-.859 3.684zm4.679 24.404c-1.214-3.697-.42-8.501-2.68-16.87-.53-1.961 5.54-2.56 5.588-1.128.259 7.787 2.882 8.538 4.092 14.43-.724 1.828-5.739 4.608-7 3.568z" style="fill:#5e4c3b"/><path d="M2.813 36.043c-.215-1.02-1.969-2.85-2.719-5.571-.413-1.499 1.185-2.911 2.086-2.154 3.118 2.618 2.176-5.581 2.79-4.719 1.155 1.625 3.18 4.683 3.305 6.09.111 1.246.796 4.619-.141 5.68-1.227 1.388-5.111 1.665-5.32.674z" style="fill:#5e4c3b"/><path d="M2.986 21.584c-.014-.298-.196-.378-.283-.313-.13.098-1.45 1.78-1.45 1.78s1.738-1.348 1.733-1.467z" style="fill:#4a3728"/><path d="m3.813 15.71-1.912.443c-.65-1.237-1.05-2.78-.798-3.82.308-1.278 2.117-1.981 2.742.296.378 1.375-.032 3.08-.032 3.08z" style="fill:#302c3b"/><path d="m2.268 16.068-.186.043s-.903-1.418-.914-3.144c.328 2.022 1.1 3.1 1.1 3.1z" style="fill:#1a1626"/><path d="m2.484 16.017-.186.043s-.802-1.867-.813-3.593c.328 2.022.999 3.55.999 3.55zm.554.703-.186.044s-.801-1.868-.813-3.594c.329 2.022 1 3.55 1 3.55z" style="fill:#1a1626"/><linearGradient id="b" x1="-378.294" x2="-375.552" y1="-986.004" y2="-986.004" gradientTransform="scale(1 -1) rotate(9.997 -5761.57 1668.7)" gradientUnits="userSpaceOnUse"><stop offset="0" style="stop-color:#9be022"/><stop offset=".267" style="stop-color:#91d422"/><stop offset=".747" style="stop-color:#78b423"/><stop offset="1" style="stop-color:#69a123"/></linearGradient><path d="M1.133 8.963s1.74-.181 2.715 3.546c.22.84-.734-1.018-.802-.098-.03.393-.677-.878-.915-.066-.16.544-.494-.869-.962.02-.41.776.507-2.204-.036-3.402z" style="fill:url(#b)"/><path d="M3.91 29.319c-.572-3.37-1.16-8.077-1.752-11.562.726-1.242 1.938-.385 1.938-.385.592 3.485 1.594 8.138 2.162 11.48.502 2.953.253 5.368-.283 5.474-.536.107-1.563-2.055-2.064-5.007z" style="fill:#7d625a"/><linearGradient id="c" x1="975.885" x2="975.885" y1="-475.228" y2="-473.242" gradientTransform="scale(1 -1) rotate(-80.003 762.05 334.232)" gradientUnits="userSpaceOnUse"><stop offset="0" style="stop-color:#b3c2c6"/><stop offset=".213" style="stop-color:#aebdc1"/><stop offset=".479" style="stop-color:#a0adb2"/><stop offset=".771" style="stop-color:#889499"/><stop offset="1" style="stop-color:#717b80"/></linearGradient><path d="m3.813 15.708.283 1.664a6.817 6.817 0 0 0-1.938.385l-.282-1.663a6.818 6.818 0 0 1 1.938-.386z" style="fill:url(#c)"/><linearGradient id="d" x1="976.217" x2="976.506" y1="-474.238" y2="-474.238" gradientTransform="scale(1 -1) rotate(-80.003 762.05 334.232)" gradientUnits="userSpaceOnUse"><stop offset="0" style="stop-color:#717b80"/><stop offset=".229" style="stop-color:#889499"/><stop offset=".521" style="stop-color:#a0adb2"/><stop offset=".787" style="stop-color:#aebdc1"/><stop offset="1" style="stop-color:#b3c2c6"/></linearGradient><path d="M4.074 17.015c-.009-.05-.034-.09-.057-.09a5.876 5.876 0 0 0-1.932.384c-.021.009-.032.055-.023.106.009.05.033.083.054.075a5.89 5.89 0 0 1 1.932-.384c.023 0 .034-.041.026-.091z" style="fill:url(#d)"/><linearGradient id="e" x1="975.85" x2="976.139" y1="-474.236" y2="-474.236" gradientTransform="scale(1 -1) rotate(-80.003 762.05 334.232)" gradientUnits="userSpaceOnUse"><stop offset="0" style="stop-color:#717b80"/><stop offset=".229" style="stop-color:#889499"/><stop offset=".521" style="stop-color:#a0adb2"/><stop offset=".787" style="stop-color:#aebdc1"/><stop offset="1" style="stop-color:#b3c2c6"/></linearGradient><path d="M4.012 16.653c-.008-.05-.034-.09-.056-.09a5.879 5.879 0 0 0-1.932.385c-.021.008-.032.055-.024.105.009.05.033.083.055.075a5.877 5.877 0 0 1 1.931-.383c.023 0 .035-.042.026-.092z" style="fill:url(#e)"/><path d="M3.43 31.63c0 .97-2.942.083-3.294-.969-.495-1.474.485-4.367.985-4.774 1.62-1.317 3.844-1.116 4.526-1.293.526-.137.399 1.244-.276 1.387-.954.202-2.503.93-2.693 1.556-.395 1.305.752 3.08.752 4.093z" style="fill:#5e4c3b"/><path d="M2.037 30.958c0 .97-1.528.02-1.88-1.03-.495-1.475.296-5.088.796-5.494 1.621-1.317 3.34-1.75 3.966-2.07.484-.248.66 1.128.032 1.413-.888.404-2.538 1.769-2.728 2.395-.395 1.306-.186 3.773-.186 4.786z" style="fill:#5e4c3b"/><path d="M.341 28.267C-.4 26.9.448 24.13.813 23.599c.656-.953 2.672-2.719 3.406-3.326.358-.296.75 1.196.207 1.623-.765.603-2.311 2.34-2.39 2.99-.163 1.355-1.165 4.355-1.695 3.38z" style="fill:#5e4c3b"/><path d="M3.251 23.051c-.725.134-1.878 1.07-1.878 1.07l1.878-1.07zm.076 1.839c-.737-.035-1.718.666-1.718.666l1.718-.666z" style="fill:#4a3728"/><path d="M63.266 53.633c-2.284-1.258-5.682 1.606-6.88.283-1.247-1.379 4.14-2.137 2.742-4.692l-6.31 5.764-22.557 1.13c0 5.515 10.26 8.455 17.815 7.789 13.989-1.238 17.712-8.884 15.19-10.273z" style="fill:#ab6a22"/><linearGradient id="f" x1="47.091" x2="47.091" y1="63.367" y2="46.956" gradientTransform="translate(0 .163)" gradientUnits="userSpaceOnUse"><stop offset="0" style="stop-color:#e38a47"/><stop offset=".294" style="stop-color:#eba053"/><stop offset="1" style="stop-color:#fdd36f"/></linearGradient><path d="M63.186 53.38c-2.285-1.258-5.75 1.553-6.948.228-1.246-1.377 5.265-2.759 2.279-5.007-1.491-1.122-9.682-2.182-15.992-.886-7.623 1.563-12.839 5.282-12.22 8.792.852 4.83 10.216 7.592 17.77 6.924 13.99-1.237 17.633-8.66 15.111-10.05zm-16.16-1.292c-.545-1.936 5.854-2.665 6.4-.73.546 1.936-5.853 2.666-6.4.73z" style="fill:url(#f)"/><path d="M31.79 52.702c-.565.596-.988 1.212-1.244 1.835 4.5 1.152 14.919 7.657 13.901 8.223-1.027.57-7.106-1.871-13.948-5.55.568 1.57 2.056 2.893 4.066 3.916 1.666-.247 4.996.652 8.597 2.283 1.653.15 3.324.164 4.914.023a40.39 40.39 0 0 0 1.597-.177c-4.02-2.197-14.668-8.347-17.883-10.553zm1.877-1.557c3.938 2.25 15.02 8.987 14.347 9.361-.2.111-.728.025-1.51-.22 1.695.949 3.274 1.866 4.722 2.733a31.219 31.219 0 0 0 2.947-.654c-3.326-1.905-5.635-3.5-5.293-3.69.355-.196 3.43 1.189 7.027 3.151.242-.086.48-.173.711-.264l-20.88-11.605a17.66 17.66 0 0 0-2.071 1.188zm18.24 1.768a7.306 7.306 0 0 1-1.874.308 221.92 221.92 0 0 1 9.702 5.102c.461.256.908.51 1.356.762.404-.32.765-.642 1.08-.964 0 0-6.885-2.51-10.264-5.208zM41.79 49.964c.375-.208 2.32.494 5.211 1.815a.834.834 0 0 1 .098-.31c-2-.81-4.35-1.914-6.796-3.218a28.473 28.473 0 0 0-2.97.997c5.188 2.883 15.709 8.882 20.49 11.8.5-.23.966-.468 1.399-.715-5.663-2.616-18.124-9.984-17.432-10.37zm21.259 7.103c.41-.589.675-1.154.796-1.663-1.293-.73-2.524-1.44-3.675-2.122-.984.246-1.944.606-2.712.678l5.59 3.107zm-9.623-5.708a.82.82 0 0 1 .019.37l2.638 1.466c.043-.466.767-.942 1.52-1.462-3.532-2.177-5.919-3.869-6.376-4.554a41.464 41.464 0 0 0-2.68-.055c1.56.999 2.439 1.67 2.257 1.77-.21.118-1.805-.56-4.106-1.705a35.22 35.22 0 0 0-1.248.097l5.283 2.936c1.292.007 2.473.353 2.693 1.137z" style="opacity:.2;fill:#d48142"/><path d="M53.44 51.54c.023-2.203-6.619-1.571-6.445.277.84-1.409 5.614-1.797 6.445-.278z" style="fill:#ab6a22"/><path d="M43.559 50.388c-.492-.43-7.23.083-7.675.772-.676 1.047.932.846 1.535 1.294.637.473 2.838.05 3.916.05 1.439 0 1.152-.679 1.743-.816 1.065-.248 1.012-.835.48-1.3z" style="opacity:.15;fill:#9c4900"/><radialGradient id="g" cx="68.477" cy="-419.343" r="3.919" fx="68.462" fy="-416.537" gradientTransform="matrix(.9582 -.0472 -.1047 -.3735 -69.514 -102.645)" gradientUnits="userSpaceOnUse"><stop offset="0" style="stop-color:#ff562b"/><stop offset=".211" style="stop-color:#fd5229"/><stop offset=".429" style="stop-color:#f84523"/><stop offset=".651" style="stop-color:#ef3118"/><stop offset=".874" style="stop-color:#e3140a"/><stop offset="1" style="stop-color:#db0000"/></radialGradient><path d="M43.559 50.27c-.58-.22-.76-.633-1.248-.634-1.403-.006-1.757-.405-2.584-.141-1.218.389-1.552.324-2.232.462-.999.203-1.289.472-1.611 1.085-.56 1.067.932.847 1.535 1.294.637.473 2.838.05 3.916.05 1.439 0 1.152-.679 1.743-.816 1.065-.248 1.311-.985.48-1.3z" style="fill:url(#g)"/><path d="M61.825 55.862c.345-.654-1.135-.873-2.66-.93-1.827-.069-1.816.358-3.12.51-.979.114-1.017.74-1.036 1.308-.015.47.712.47.86.911.123.367.953.33 1.655.503 1.82.451 2.175-.354 3.095-.506 1.101-.182.305-.64.937-.904.614-.258.092-.555.27-.892z" style="opacity:.15;fill:#9c4900"/><radialGradient id="h" cx="87.494" cy="-432.851" r="3.642" fx="87.481" fy="-430.244" gradientTransform="matrix(.9007 -.1449 -.3216 -.3511 -159.65 -83.085)" gradientUnits="userSpaceOnUse"><stop offset="0" style="stop-color:#ffa200"/><stop offset=".263" style="stop-color:#ff9e00"/><stop offset=".535" style="stop-color:#ff9100"/><stop offset=".81" style="stop-color:#ff7d00"/><stop offset="1" style="stop-color:#ff6a00"/></radialGradient><path d="M61.825 55.709c.345-.654-1.135-.873-2.66-.93-1.827-.07-1.816.358-3.12.51-.979.114-1.017.74-1.036 1.308-.015.47.712.47.86.911.123.367.953.33 1.655.503 1.82.45 2.175-.354 3.095-.506 1.101-.182.305-.64.937-.905.614-.257.092-.554.27-.892z" style="fill:url(#h)"/><path d="M55.545 58.497c-1.265-.458-6.546.473-6.313 1.724.193 1.042 1.889.954 3.48.943 1.51-.01 2.139-.784 3.185-.833.978-.047 1.176-1.282-.352-1.834z" style="opacity:.15;fill:#9c4900"/><radialGradient id="i" cx="63.203" cy="-352.815" r="3.698" fx="63.189" fy="-350.168" gradientTransform="matrix(.9231 -.1489 -.2355 -.3551 -88.57 -56.686)" gradientUnits="userSpaceOnUse"><stop offset="0" style="stop-color:#f20fea"/><stop offset=".247" style="stop-color:#ee0fe6"/><stop offset=".503" style="stop-color:#e10eda"/><stop offset=".763" style="stop-color:#cd0dc6"/><stop offset="1" style="stop-color:#b30bad"/></radialGradient><path d="M55.545 58.346c-1.511-.578-1.34-.34-2.39-.452-1.523-.163-1.429.32-2.929.59-.994.18-1.193.904-.994 1.587.3 1.034 1.889.954 3.48.942 1.51-.01 2.139-.784 3.185-.833.978-.046 1.149-1.26-.352-1.834z" style="fill:url(#i)"/><path d="M43.928 62.522c.506.569 1.404.138 2.09.23 1.17.157 1.948-.22 1.931-.637-.023-.582.98-1.148.269-1.48-.702-.326-.41-.753-1.476-1.176-1.324-.524-3.23-.837-4.542-.092-1.105.628.076 1.187-.095 1.902-.143.601 1.525.918 1.823 1.253z" style="opacity:.15;fill:#9c4900"/><radialGradient id="j" cx="666.532" cy="-682.452" r="3.957" fx="666.517" fy="-679.619" gradientTransform="matrix(-.7555 -.3268 .4598 -.2814 862.445 86.335)" gradientUnits="userSpaceOnUse"><stop offset="0" style="stop-color:#a7ff19"/><stop offset=".209" style="stop-color:#a3fc18"/><stop offset=".426" style="stop-color:#96f414"/><stop offset=".647" style="stop-color:#82e70e"/><stop offset=".868" style="stop-color:#65d406"/><stop offset="1" style="stop-color:#50c700"/></radialGradient><path d="M43.928 62.393c.506.569 1.404.138 2.09.23 1.17.157 1.948-.22 1.931-.637-.023-.581.98-1.147.269-1.48-.702-.326-.41-.753-1.476-1.176-1.324-.524-3.23-.836-4.542-.092-1.105.628.076 1.188-.095 1.903-.143.6 1.525.918 1.823 1.252z" style="fill:url(#j)"/><path d="M39.803 55.141c.696-.612-.723-1.086-1.738-1.54-1.115-.497-4.492-.311-5.333.633-.501.563-.72 1.818 1.742 1.864 1.118.02 1.406.473 3.262.228 2.35-.311 1.34-.547 2.067-1.185z" style="opacity:.15;fill:#9c4900"/><radialGradient id="k" cx="142.587" cy="-579.769" r="3.953" fx="142.572" fy="-576.939" gradientTransform="matrix(.9173 .1592 .1658 -.3668 1.74 -180.693)" gradientUnits="userSpaceOnUse"><stop offset="0" style="stop-color:#00a2ff"/><stop offset=".201" style="stop-color:#009efb"/><stop offset=".41" style="stop-color:#0294ee"/><stop offset=".622" style="stop-color:#0481da"/><stop offset=".835" style="stop-color:#0768bd"/><stop offset="1" style="stop-color:#0a50a1"/></radialGradient><path d="M39.803 55.026c.696-.611-.723-1.086-1.738-1.539-1.115-.498-4.492-.312-5.333.633-.501.563-.72 1.818 1.742 1.863 1.118.02 1.406.474 3.262.228 2.35-.311 1.34-.547 2.067-1.185z" style="fill:url(#k)"/><path d="M35.179 57.588c-2.304.671-1.273 1.516-1.286 2.102-.008.427 1.044.934 2.934.685 1.261-.167 1.532.275 2.874-.346 1.048-.486 2.062-1.451.704-2.226-1.393-.794-3.035-.855-5.226-.215z" style="opacity:.15;fill:#9c4900"/><radialGradient id="l" cx="72.655" cy="-270.213" r="3.444" fx="72.642" fy="-267.748" gradientTransform="matrix(.9043 -.2179 -.4852 -.3895 -159.613 -30.921)" gradientUnits="userSpaceOnUse"><stop offset="0" style="stop-color:#ffeb7d"/><stop offset=".174" style="stop-color:#ffea79"/><stop offset=".354" style="stop-color:#ffe56c"/><stop offset=".537" style="stop-color:#ffde58"/><stop offset=".722" style="stop-color:#ffd43b"/><stop offset=".907" style="stop-color:#ffc716"/><stop offset="1" style="stop-color:#ffbf00"/></radialGradient><path d="M40.43 57.664c-1.393-.795-3.034-.855-5.226-.216-2.303.672-1.273 1.517-1.285 2.102-.009.427 1.043.934 2.934.685 1.26-.166 1.532.275 2.873-.346 1.048-.485 2.063-1.45.704-2.225z" style="fill:url(#l)"/><path d="M52.663 52.084c-.93-.917-2.783-.074-3.531.743-.97 1.06 1.014 2.348 1.821 1.595.883-.821 2.338-1.72 1.71-2.338z" style="fill:#5e4c3b"/><path d="M19.52 21.582s.402 3.894-.588 6.516c1.392-.15 1.752-.852 1.752-.852s-.048 1.824-.756 3.102c1.308.216 2.112-.432 2.112-.432s0 1.38.102 2.328c3.81-.984 3.583-5.418 3.583-5.418l-6.205-5.244zm26.822 6.516c-.99-2.628-.588-6.516-.588-6.516l-6.199 5.244s-.228 4.434 3.583 5.418c.102-.948.102-2.328.102-2.328s.804.648 2.112.432c-.714-1.272-.756-3.102-.756-3.102s.354.702 1.746.852z" style="fill:#1a1714"/><path d="M45.616 16.728c-2.01.246-3.462 6.972-2.196 8.748.173.246 1.212.642 1.98-.924.426-.87 1.65-1.59 2.034-3.384.486-2.292.186-4.68-1.818-4.44zm-25.958 0c2.01.246 3.462 6.972 2.196 8.748-.174.246-1.212.642-1.98-.924-.426-.87-1.65-1.59-2.034-3.384-.486-2.292-.18-4.68 1.818-4.44z" style="fill:#735c48"/><path d="M45.562 18.018c-.522.168-1.098.966-1.404 2.292 1.83-.396 1.374 2.658-.216 2.718.012.306.036.624.072.954.768-1.116 1.548-.666 2.322-2.328.69-1.494.528-4.044-.774-3.636zm-24.446 2.286c-.312-1.326-.882-2.124-1.404-2.286-1.296-.408-1.464 2.142-.768 3.636.774 1.656 1.554 1.212 2.322 2.328.036-.336.06-.648.072-.96-1.578-.072-2.028-3.084-.222-2.718z" style="fill:#4a3728"/><path d="M32.637 3.792c-8.706 0-12.9 7.092-12.379 16.206.108 1.83.618 4.476 1.248 6.744 1.303 4.71 7.063 9.45 11.131 9.45s9.822-4.74 11.13-9.45c.63-2.268 1.14-4.908 1.249-6.744.522-9.114-3.672-16.206-12.379-16.206z" style="fill:#735c48"/><path d="M42.1 16.056c-1.993-1.056-5.803-1.104-7.219-.372-.306.144-.102 1.14.15 1.044 1.98-.78 5.172-.798 7.02.066.246.12.349-.588.048-.738zm-18.926 0c1.993-1.056 5.803-1.104 7.225-.372.306.144.102 1.14-.15 1.044-1.98-.78-5.166-.798-7.02.066-.252.12-.354-.588-.055-.738z" style="fill:#302b27"/><path d="M34.99 25.206c-.247-.174-.835.096-2.353.096-1.518 0-2.1-.27-2.352-.096-.3.21.174 1.158 2.352 1.158 2.172 0 2.646-.948 2.352-1.158zm-2.353 3.588c-1.956-.576-4.86.276-4.86.276 1.104 1.206 1.914 2.766 4.86 2.766 3.372 0 3.948-1.77 4.86-2.766 0-.006-2.904-.858-4.86-.276z" style="fill:#4a3728"/><path d="M28.509 29.268c2.052 1.722 6.198 1.734 8.262 0-2.19.096-6.06.096-8.262 0zm2.19-9.618c.072.576-.318 1.26-1.398 1.77-.69.324-2.118.708-4.002-.084-.84-.354-1.662-1.464-1.59-2.076 1.02-1.92 6.036-2.202 6.99.39z" style="fill:#fff"/><linearGradient id="m" x1="-1210.175" x2="-1210.175" y1="171.188" y2="170.588" gradientTransform="translate(7978.266 -1103.139) scale(6.5701)" gradientUnits="userSpaceOnUse"><stop offset="0" style="stop-color:#a6694a"/><stop offset="1" style="stop-color:#4f2a1e"/></linearGradient><path d="M27.297 17.64c1.086 0 1.974.882 1.974 1.968s-.882 1.968-1.974 1.968c-1.086 0-1.974-.882-1.974-1.968s.882-1.968 1.974-1.968z" style="fill:url(#m)"/><path d="M26.313 19.578c0 1.362 1.974 1.362 1.974 0-.006-1.266-1.974-1.266-1.974 0z" style="fill:#1a1626"/><path d="M26.013 19.026c0 .57.828.57.828 0-.006-.534-.828-.534-.828 0z" style="fill:#ab968c"/><path d="M30.71 19.728c-.797-2.574-6.257-2.19-7.001-.462.276-2.22 6.318-2.802 7.002.462z" style="fill:#4a3728"/><path d="M34.575 19.65c-.072.576.318 1.26 1.398 1.77.69.324 2.118.708 4.002-.084.846-.354 1.662-1.464 1.59-2.076-1.02-1.92-6.036-2.202-6.99.39z" style="fill:#fff"/><linearGradient id="n" x1="-1211.254" x2="-1211.254" y1="171.188" y2="170.588" gradientTransform="translate(7995.996 -1103.139) scale(6.5701)" gradientUnits="userSpaceOnUse"><stop offset="0" style="stop-color:#a6694a"/><stop offset="1" style="stop-color:#4f2a1e"/></linearGradient><path d="M37.935 17.64a1.974 1.974 0 1 1 0 3.948 1.974 1.974 0 0 1 0-3.948z" style="fill:url(#n)"/><path d="M36.951 19.578c0 1.362 1.974 1.362 1.974 0-.006-1.266-1.974-1.266-1.974 0z" style="fill:#1a1626"/><path d="M36.651 19.026c0 .57.828.57.828 0-.006-.534-.828-.534-.828 0z" style="fill:#ab968c"/><path d="M34.563 19.728c.798-2.568 6.252-2.202 6.996-.462-.27-2.22-6.312-2.802-6.996.462z" style="fill:#4a3728"/><path d="M24.435 5.154c4.56 4.35 18.133 7.074 20.485 16.656-3.21-9.618-15.013-6.918-20.485-16.656z" style="fill:#1a1714"/><path d="M32.769 1.392c-5.298 0-7.944 2.4-8.484 3.54 6.606 10.086 17.802 6.672 20.635 16.884 5.694-9.066.966-20.424-12.151-20.424z" style="fill:#382e26"/><path d="M32.769 1.392c-4.718 0-7.828 1.916-8.484 3.54 2.284 6.155 17.968 6.342 21.006 14.521-.64-5.87-5.29-9.784-5.29-9.784s4.183 2.701 6.263 6.514c-.388-5.475-4.705-8.627-4.705-8.627s3.893 2.702 5.178 5.815c-.76-6.312-3.792-11.98-13.968-11.98z" style="fill:#473e35"/><path d="M43.964 7.718C39.587.346 30.188 2.29 30.188 2.29s7.821.406 13.776 5.428z" style="fill:#574f45"/><path d="M44.346 12.307C38.06.544 26.313 4.395 26.313 4.395s10.163-.392 18.033 7.912z" style="fill:#574f45"/><path d="M26.977 6.014c6.474 2.4 13.905 6.725 13.905 6.725s-4.394-6.6-13.905-6.725z" style="fill:#574f45"/><path d="M24.285 4.932c-6.403 1.464-8.467 12.27-3.673 16.878.594-4.914 1.17-8.07 4.435-11.394 0 0 .192-2.922-.762-5.484z" style="fill:#382e26"/><path d="M24.897 10.038s-4.207 3.9-4.285 11.772c.72-7.8 4.477-11.322 4.477-11.322l-.192-.45z" style="fill:#1a1714"/><path d="M24.35 5.154s-7.428 2.538-5.31 12.762c.048-.824.161-1.587.312-2.305-.014 1.276.176 2.677.666 4.207.642-7.104 4.765-10.572 4.765-10.572l-.432-4.092z" style="fill:#473e35"/><path d="M19.776 15.493c.95-5.31 5.165-8.812 5.165-8.812s-5.861.388-5.165 8.812z" style="fill:#574f45"/><path d="M24.285 4.932c-1.746 7.92 6.624 9.474 10.17 9.474-6.372-4.416-10.17-9.474-10.17-9.474z" style="fill:#382e26"/><path d="M24.075 6.342c.168 4.536 2.64 7.368 10.38 8.064-6.054.408-11.31-2.616-10.38-8.064z" style="fill:#1a1714"/><path d="M24.285 4.932s-.97 7.132 10.17 9.474c-6.139-4.737-7.25-7.473-10.17-9.474z" style="fill:#473e35"/><path d="M30.681 12.332c-1.964-1.283-5.135-5.91-5.135-5.91s.62 4.78 5.135 5.91z" style="fill:#574f45"/><linearGradient id="o" x1="17.895" x2="47.294" y1="11.331" y2="11.331" gradientUnits="userSpaceOnUse"><stop offset="0" style="stop-color:#8a0000"/><stop offset=".036" style="stop-color:#8f0000"/><stop offset=".309" style="stop-color:#b10000"/><stop offset=".568" style="stop-color:#ca0100"/><stop offset=".805" style="stop-color:#d90100"/><stop offset="1" style="stop-color:#de0100"/></linearGradient><path d="M46.928 10.52c-4.49-2.115-9.506-2.115-14.144-2.115-4.64 0-9.612 1.419-14.271 2.462-.572 1.094-.618 3.39-.618 3.39a60.32 60.32 0 0 1 14.761-1.817c5.098 0 9.768.61 14.626 1.817 0 0 .114-2.328-.354-3.737z" style="fill:url(#o)"/><linearGradient id="p" x1="27.076" x2="29.246" y1="1.887" y2="1.887" gradientUnits="userSpaceOnUse"><stop offset="0" style="stop-color:red"/><stop offset=".401" style="stop-color:#e30000"/><stop offset="1" style="stop-color:#bd0100"/></linearGradient><path d="m27.868 3.04 1.378-.66c-.482-3.427-3.604-.646-1.378.66z" style="fill:url(#p)"/><linearGradient id="q" x1="32.637" x2="32.637" y1="17.438" y2="0" gradientUnits="userSpaceOnUse"><stop offset="0" style="stop-color:#bd0100"/><stop offset=".599" style="stop-color:#e30000"/><stop offset="1" style="stop-color:red"/></linearGradient><path d="M48.597 8.284c-2.094 5.685-6.68-.173-14.98.761-10.661 1.2-17.053 10.046-17.053 8.12 0-6.738 5.278-15.343 19.607-17.01 11.581-1.348 13.025 6.5 12.426 8.129z" style="fill:url(#q)"/></svg>