<svg xmlns="http://www.w3.org/2000/svg" xml:space="preserve" style="enable-background:new 0 0 64 64" viewBox="0 0 64 64"><path d="M10.138 36.65s.67 6.49-.98 10.86c2.32-.25 2.92-1.42 2.92-1.42s-.08 3.04-1.26 5.17c2.18.36 3.52-.72 3.52-.72s0 2.3.17 3.88c6.35-1.64 5.97-9.03 5.97-9.03l-10.34-8.74zM54.84 47.51c-1.65-4.38-.98-10.86-.98-10.86l-10.33 8.74s-.38 7.39 5.97 9.03c.17-1.58.17-3.88.17-3.88s1.34 1.08 3.52.72c-1.19-2.12-1.26-5.17-1.26-5.17s.59 1.17 2.91 1.42z" style="fill:#cf5d00"/><path d="M53.63 28.56c-3.35.41-5.77 11.62-3.66 14.58.29.41 2.02 1.07 3.3-1.54.71-1.45 2.75-2.65 3.39-5.64.81-3.82.31-7.8-3.03-7.4zm-43.262 0c3.35.41 5.77 11.62 3.66 14.58-.29.41-2.02 1.07-3.3-1.54-.71-1.45-2.75-2.65-3.39-5.64-.81-3.82-.3-7.8 3.03-7.4z" style="fill:#ebc199"/><path d="M53.54 30.71c-.87.28-1.83 1.61-2.34 3.82 3.05-.66 2.29 4.43-.36 4.53.02.51.06 1.04.12 1.59 1.28-1.86 2.58-1.11 3.87-3.88 1.15-2.49.88-6.74-1.29-6.06zm-40.742 3.81c-.52-2.21-1.47-3.54-2.34-3.81-2.16-.68-2.44 3.57-1.28 6.06 1.29 2.76 2.59 2.02 3.87 3.88.06-.56.1-1.08.12-1.6-2.63-.12-3.38-5.14-.37-4.53z" style="fill:#c99b71"/><path d="M32 7C17.487 7 10.497 18.82 11.367 34.01c.18 3.05 1.03 7.46 2.08 11.24C15.618 53.1 25.22 61 32 61c6.78 0 16.371-7.9 18.551-15.75 1.05-3.78 1.9-8.18 2.08-11.24C53.5 18.82 46.51 7 32 7z" style="fill:#ebc199"/><path d="M47.77 27.44c-3.32-1.76-9.67-1.84-12.03-.62-.51.24-.17 1.9.25 1.74 3.3-1.3 8.62-1.33 11.7.11.41.2.58-.98.08-1.23zm-31.542 0c3.32-1.76 9.67-1.84 12.041-.62.51.24.17 1.9-.25 1.74-3.3-1.3-8.61-1.33-11.7.11-.42.2-.59-.98-.09-1.23z" style="fill:#cc7935"/><path d="M35.92 42.69c-.41-.29-1.39.16-3.92.16-2.53 0-3.5-.45-3.921-.16-.5.35.29 1.93 3.92 1.93 3.62 0 4.41-1.58 3.92-1.93zM32 48.67c-3.26-.96-8.101.46-8.101.46 1.84 2.01 3.19 4.61 8.1 4.61 5.62 0 6.58-2.95 8.1-4.61 0-.01-4.84-1.43-8.1-.46z" style="fill:#c99b71"/><path d="M25.119 49.46c3.42 2.87 10.33 2.89 13.77 0-3.65.16-10.1.16-13.77 0zm3.651-16.03c.12.96-.531 2.1-2.331 2.95-1.15.54-3.53 1.18-6.67-.14-1.4-.59-2.77-2.44-2.65-3.46 1.7-3.2 10.06-3.67 11.65.65z" style="fill:#fff"/><linearGradient id="a" x1="-1210.814" x2="-1210.814" y1="173.482" y2="172.482" gradientTransform="translate(7978.266 -1103.139) scale(6.5701)" gradientUnits="userSpaceOnUse"><stop offset="0" style="stop-color:#a6694a"/><stop offset="1" style="stop-color:#4f2a1e"/></linearGradient><path d="M23.099 30.08a3.29 3.29 0 0 1 3.29 3.28c0 1.81-1.47 3.28-3.29 3.28a3.29 3.29 0 0 1-3.29-3.28c0-1.81 1.47-3.28 3.29-3.28z" style="fill:url(#a)"/><path d="M21.459 33.31c0 2.27 3.29 2.27 3.29 0-.01-2.11-3.29-2.11-3.29 0z" style="fill:#1a1626"/><path d="M20.959 32.39c0 .95 1.38.95 1.38 0-.01-.89-1.38-.89-1.38 0z" style="fill:#ab968c"/><path d="M28.79 33.56c-1.331-4.29-10.431-3.65-11.671-.77.46-3.7 10.53-4.67 11.67.77z" style="fill:#c99b71"/><path d="M35.23 33.43c-.12.96.53 2.1 2.33 2.95 1.15.54 3.53 1.18 6.67-.14 1.41-.59 2.77-2.44 2.65-3.46-1.7-3.2-10.06-3.67-11.65.65z" style="fill:#fff"/><linearGradient id="b" x1="-1210.814" x2="-1210.814" y1="173.482" y2="172.482" gradientTransform="translate(7995.996 -1103.139) scale(6.5701)" gradientUnits="userSpaceOnUse"><stop offset="0" style="stop-color:#a6694a"/><stop offset="1" style="stop-color:#4f2a1e"/></linearGradient><path d="M40.83 30.08a3.29 3.29 0 1 1 0 6.58 3.29 3.29 0 0 1 0-6.58z" style="fill:url(#b)"/><path d="M39.19 33.31c0 2.27 3.29 2.27 3.29 0-.01-2.11-3.29-2.11-3.29 0z" style="fill:#1a1626"/><path d="M38.69 32.39c0 .95 1.38.95 1.38 0-.01-.89-1.38-.89-1.38 0z" style="fill:#ab968c"/><path d="M35.21 33.56c1.33-4.28 10.42-3.67 11.66-.77-.45-3.7-10.52-4.67-11.66.77z" style="fill:#c99b71"/><path d="M18.328 9.27c7.6 7.25 30.222 11.79 34.142 27.76C47.12 21 27.45 25.5 18.328 9.27z" style="fill:#cf5d00"/><path d="M32.22 3c-8.831 0-13.241 4-14.141 5.9C29.088 25.71 47.75 20.02 52.47 37.04 61.96 21.93 54.08 3 32.22 3z" style="fill:#f07918"/><path d="M32.22 3c-7.865 0-13.048 3.194-14.141 5.9 3.808 10.258 29.946 10.57 35.01 24.203-1.066-9.784-8.816-16.308-8.816-16.308s6.97 4.502 10.438 10.857c-.646-9.125-7.841-14.379-7.841-14.379s6.488 4.503 8.63 9.692C54.233 12.445 49.18 3 32.22 3z" style="fill:#ff8d30"/><path d="M50.877 13.543c-7.295-12.286-22.96-9.047-22.96-9.047s13.036.677 22.96 9.047z" style="fill:#ff9b4a"/><path d="M51.514 21.191C41.04 1.588 21.459 8.004 21.459 8.004s16.939-.651 30.055 13.187zM22.565 10.704c10.79 4 23.176 11.207 23.176 11.207s-7.323-10.999-23.176-11.207z" style="fill:#ff9b4a"/><path d="M18.078 8.9c-10.67 2.44-14.11 20.45-6.12 28.13.99-8.19 1.95-13.45 7.39-18.99 0 0 .32-4.87-1.27-9.14z" style="fill:#f07918"/><path d="M19.099 17.41s-7.01 6.5-7.14 19.62c1.2-13 7.46-18.87 7.46-18.87l-.32-.75z" style="fill:#cf5d00"/><path d="M18.189 9.27S5.808 13.5 9.339 30.54c.08-1.373.267-2.644.519-3.84-.023 2.126.294 4.46 1.11 7.01 1.07-11.84 7.94-17.62 7.94-17.62l-.72-6.82z" style="fill:#ff8d30"/><path d="M10.565 26.501c1.581-8.85 8.607-14.685 8.607-14.685s-9.768.645-8.607 14.685z" style="fill:#ff9b4a"/><path d="M18.078 8.9C15.168 22.1 29.12 24.69 35.03 24.69 24.41 17.33 18.08 8.9 18.08 8.9z" style="fill:#f07918"/><path d="M17.729 11.25c.28 7.56 4.4 12.28 17.3 13.44-10.09.68-18.85-4.36-17.3-13.44z" style="fill:#cf5d00"/><path d="M18.078 8.9S16.463 20.787 35.03 24.69C24.797 16.795 22.947 12.236 18.08 8.9z" style="fill:#ff8d30"/><path d="M28.74 21.233c-3.275-2.138-8.559-9.85-8.559-9.85s1.034 7.968 8.559 9.85z" style="fill:#ff9b4a"/></svg>