<svg xmlns="http://www.w3.org/2000/svg" xml:space="preserve" style="enable-background:new 0 0 64 64" viewBox="0 0 64 64"><path d="M46.708 24.113H17.292c0 7.03-5.987 22.52-1.813 27.832 2.266 2.885 30.776 2.885 33.041 0 4.175-5.312-1.812-20.802-1.812-27.832z" style="fill:#edd49a"/><path d="M23.68 38.912h16.64v16.035H23.68z" style="fill:#d9b18d"/><linearGradient id="a" x1="32.003" x2="32.003" y1="62" y2="45.653" gradientUnits="userSpaceOnUse"><stop offset="0" style="stop-color:#009137"/><stop offset="1" style="stop-color:#00b846"/></linearGradient><path d="M44.624 45.663 32 56.233l-12.624-10.57c-.68-.17-6.706 1.832-8.436 2.638a.552.552 0 0 0-.303.668c.428 1.42 2.264 5 2.667 12.149 4.95.56 11.83.882 18.696.882 6.866 0 13.745-.323 18.696-.882.406-7.203 2.268-10.784 2.676-12.182.075-.255-.063-.52-.31-.635-1.73-.805-7.758-2.808-8.438-2.638z" style="fill:url(#a)"/><path d="M32 56.234S31.45 62 32 62s0-5.766 0-5.766z" style="fill:#008733"/><linearGradient id="b" x1="9.663" x2="9.663" y1="61.118" y2="48.935" gradientUnits="userSpaceOnUse"><stop offset="0" style="stop-color:#009137"/><stop offset=".075" style="stop-color:#009739"/><stop offset=".364" style="stop-color:#00a940"/><stop offset=".666" style="stop-color:#00b445"/><stop offset="1" style="stop-color:#00b846"/></linearGradient><path d="M10.676 48.935C6.94 50.878 6 56.477 6 58.992c0 .944 2.896 1.626 7.304 2.126.303-9.016-2.546-12.224-2.628-12.183z" style="fill:url(#b)"/><linearGradient id="c" x1="2647.634" x2="2647.634" y1="61.118" y2="48.935" gradientTransform="matrix(-1 0 0 1 2701.971 0)" gradientUnits="userSpaceOnUse"><stop offset="0" style="stop-color:#009137"/><stop offset=".075" style="stop-color:#009739"/><stop offset=".364" style="stop-color:#00a940"/><stop offset=".666" style="stop-color:#00b445"/><stop offset="1" style="stop-color:#00b846"/></linearGradient><path d="M53.325 48.935C57.06 50.878 58 56.477 58 58.992c0 .944-2.896 1.626-7.304 2.126-.303-9.016 2.546-12.224 2.629-12.183z" style="fill:url(#c)"/><linearGradient id="d" x1="24.738" x2="24.738" y1="56.234" y2="39.646" gradientUnits="userSpaceOnUse"><stop offset="0" style="stop-color:#009137"/><stop offset="1" style="stop-color:#00b846"/></linearGradient><path d="M32 56.234s-7.209-16.588-14.523-16.588c0 0 2.805 1.867 1.899 6.017C23.25 54.033 32 56.233 32 56.233z" style="fill:url(#d)"/><linearGradient id="e" x1="2662.709" x2="2662.709" y1="56.234" y2="39.646" gradientTransform="matrix(-1 0 0 1 2701.971 0)" gradientUnits="userSpaceOnUse"><stop offset="0" style="stop-color:#009137"/><stop offset="1" style="stop-color:#00b846"/></linearGradient><path d="M32 56.234s7.209-16.588 14.523-16.588c0 0-2.805 1.867-1.899 6.017C40.75 54.033 32 56.233 32 56.233z" style="fill:url(#e)"/><linearGradient id="f" x1="30.438" x2="33.563" y1="55.431" y2="55.431" gradientUnits="userSpaceOnUse"><stop offset="0" style="stop-color:#fff"/><stop offset="1" style="stop-color:#c9cdd1"/></linearGradient><path d="M33.563 55.341c0 3.283-3.126 3.283-3.126 0 0-3.045 3.125-3.045 3.125 0z" style="fill:url(#f)"/><linearGradient id="g" x1="30.963" x2="33.047" y1="55.432" y2="55.432" gradientUnits="userSpaceOnUse"><stop offset="0" style="stop-color:#c9cdd1"/><stop offset="1" style="stop-color:#fff"/></linearGradient><path d="M33.047 55.365c0 2.463-2.084 2.463-2.084 0 0-2.284 2.084-2.284 2.084 0z" style="fill:url(#g)"/><path d="M20.127 31.867h-3.389c-.601 20.66-.086 14.51-.136 29.554l3.34.244s1.738-12.542.185-29.798z" style="fill:#fae6b9"/><path d="M19.472 31.867h-2.078c-.369 20.66-.053 14.51-.084 29.554l1.477.16c.718-7.314 1.247-19.523.685-29.714z" style="fill:#ffedc4"/><path d="M18.819 32.749h-.883c-.157 17.613-.023 8.96-.036 21.785 0 0 1.324-7.074.919-21.785z" style="fill:#fff5e0"/><path d="M43.873 31.867h3.389c.601 20.66.086 14.51.137 29.554l-3.34.244s-1.739-12.542-.186-29.798z" style="fill:#fae6b9"/><path d="M44.528 31.867h2.078c.37 20.66.053 14.51.084 29.554l-1.476.16c-.719-7.314-1.248-19.523-.686-29.714z" style="fill:#ffedc4"/><path d="M45.181 32.749h.884c.156 17.613.022 8.96.035 21.785 0 0-1.323-7.074-.919-21.785z" style="fill:#fff5e0"/><path d="M51.962 17.207c-5.261 2.316-8.247 12.137-6.029 15.246.225.313 1.535.815 2.508-1.168.539-1.097 2.005-2.033 2.574-4.277.769-3.031 2.763-10.602.947-9.8z" style="fill:#ebc199"/><path d="M51.478 18.586c-1.815.773-3.183 3.768-3.946 5.875 1.669.365 1.207 3.512-.859 3.76-.026.388-.04 1.92.008 2.34.97-1.409 1.96-.844 2.938-2.94.88-1.888 2.857-9.46 1.859-9.035z" style="fill:#c99b71"/><path d="M12.037 17.207c5.261 2.316 8.247 12.137 6.029 15.246-.225.313-1.535.815-2.508-1.168-.539-1.097-2.005-2.033-2.574-4.277-.769-3.031-2.763-10.602-.947-9.8z" style="fill:#ebc199"/><path d="M12.521 18.586c1.815.773 3.183 3.768 3.946 5.875-1.669.365-1.207 3.512.859 3.76.026.388.04 1.92-.008 2.34-.97-1.409-1.96-.844-2.938-2.94-.88-1.888-2.857-9.46-1.859-9.035z" style="fill:#c99b71"/><path d="M31.998 5.033c-11.027 0-16.34 8.328-15.675 19.909.132 2.33 1.582 9.93 2.947 12.656 1.398 2.789 6.074 7.09 8.937 7.98 1.81.56 5.774.56 7.582 0 2.866-.89 7.543-5.191 8.94-7.98 1.369-2.727 2.814-10.324 2.945-12.656.668-11.58-4.644-19.909-15.676-19.909z" style="fill:#ebc199"/><path d="M43.98 20.543c-2.52-1.336-7.347-1.4-9.146-.469-.386.178-.13 1.442.194 1.322 2.504-.99 6.547-1.011 8.892.084.313.143.444-.751.06-.937zm-23.962 0c2.521-1.336 7.346-1.4 9.146-.469.385.178.131 1.442-.193 1.322-2.51-.99-6.547-1.011-8.895.084-.31.143-.439-.751-.058-.937z" style="fill:#fae6b9"/><path d="M34.975 32.108c-.315-.22-1.053.119-2.977.119-1.92 0-2.66-.338-2.974-.12-.377.266.222 1.461 2.974 1.461 2.754 0 3.356-1.195 2.977-1.46zm-2.977 4.537c-2.478-.729-6.154.345-6.154.345 1.398 1.522 2.424 3.494 6.154 3.494 4.276 0 5.002-2.24 6.157-3.494 0 0-3.676-1.08-6.157-.345z" style="fill:#c99b71"/><path d="M26.766 37.248c2.601 2.176 7.851 2.192 10.467 0-2.772.117-7.676.12-10.467 0zm2.779-12.164c.094.73-.402 1.594-1.773 2.242-.871.412-2.686.897-5.067-.107-1.066-.45-2.107-1.848-2.013-2.623 1.29-2.43 7.644-2.785 8.853.488z" style="fill:#fff"/><linearGradient id="h" x1="-424.582" x2="-424.582" y1="478.075" y2="478.833" gradientTransform="matrix(6.5701 0 0 -6.5701 2814.782 3168.527)" gradientUnits="userSpaceOnUse"><stop offset="0" style="stop-color:#a6694a"/><stop offset="1" style="stop-color:#4f2a1e"/></linearGradient><path d="M25.235 22.545a2.494 2.494 0 0 1 2.496 2.49 2.495 2.495 0 0 1-2.496 2.494 2.494 2.494 0 0 1-2.498-2.494 2.493 2.493 0 0 1 2.498-2.49z" style="fill:url(#h)"/><path d="M23.987 24.99c0 1.725 2.496 1.725 2.496 0 0-1.6-2.496-1.6-2.496 0z" style="fill:#1a1626"/><path d="M23.608 24.291c0 .723 1.045.723 1.045 0 0-.668-1.045-.668-1.045 0z" style="fill:#ab968c"/><path d="M29.557 25.18c-1.014-3.25-7.926-2.77-8.865-.584.347-2.8 8.002-3.54 8.865.584z" style="fill:#c99b71"/><path d="M34.453 25.084c-.093.73.4 1.594 1.774 2.242.871.412 2.684.897 5.064-.107 1.07-.45 2.11-1.848 2.016-2.623-1.291-2.43-7.647-2.785-8.854.488z" style="fill:#fff"/><linearGradient id="i" x1="-425.23" x2="-425.23" y1="478.075" y2="478.833" gradientTransform="matrix(6.5701 0 0 -6.5701 2832.512 3168.527)" gradientUnits="userSpaceOnUse"><stop offset="0" style="stop-color:#a6694a"/><stop offset="1" style="stop-color:#4f2a1e"/></linearGradient><path d="M38.707 22.545a2.493 2.493 0 1 1 0 4.984 2.493 2.493 0 1 1 0-4.984z" style="fill:url(#i)"/><path d="M37.461 24.99c0 1.725 2.496 1.725 2.496 0 0-1.6-2.496-1.6-2.496 0z" style="fill:#1a1626"/><path d="M37.08 24.291c0 .723 1.047.723 1.047 0 0-.668-1.047-.668-1.047 0z" style="fill:#ab968c"/><path d="M34.442 25.18c1.011-3.248 7.92-2.783 8.865-.584-.352-2.8-8.002-3.54-8.865.584z" style="fill:#c99b71"/><linearGradient id="j" x1="32" x2="32" y1="11.254" y2="2" gradientUnits="userSpaceOnUse"><stop offset="0" style="stop-color:#ffedc4"/><stop offset=".307" style="stop-color:#fce8bc"/><stop offset=".78" style="stop-color:#f2dba6"/><stop offset="1" style="stop-color:#edd49a"/></linearGradient><path d="M46.084 7.793C43.67 4.531 39.252 2 31.998 2 24.746 2 20.33 4.531 17.916 7.793c-3.418 4.615 31.584 4.615 28.168 0z" style="fill:url(#j)"/><path d="M44.916 9.131c-2.214-1.096-12.917.093-12.917.093s-10.7-1.19-12.914-.093c-3.135 1.551-3.426 14.66-1.905 14.66.24 0 .55-1.32 1.002-4.84.366-2.864 1.074-5.644 1.888-6.098 2.484-1.387 11.932.016 11.932.016s9.45-1.403 11.936-.016c.812.454 1.518 3.234 1.888 6.098.45 3.52.753 4.84.993 4.84 1.521 0 1.23-13.109-1.903-14.66z" style="fill:#edd49a"/><path d="M46.084 7.793c-2.414-3.262-14.086.275-14.086.275S20.33 4.531 17.916 7.793c-3.418 4.615-2.258 15.998-.736 15.998.24 0 .18-1.38.643-5.104.376-3.029.333-5.805 1.807-6.737 2.62-1.658 12.368.92 12.368.92s9.753-2.58 12.373-.92c1.473.933 1.427 3.708 1.806 6.737.462 3.723.401 5.104.642 5.104 1.521 0 2.681-11.383-.735-15.998z" style="fill:#ffedc4"/><path d="M47.344 10.317c-1.448-6.246-7.907-4.234-15.346-2.249 5.871-1.064 13.462-3.091 15.346 2.25z" style="fill:#fff5e0"/><path d="M43.083 4.9S38.173.98 32.346 5.902C38.564 2.497 43.083 4.9 43.083 4.9z" style="fill:#ffedc4"/><path d="M16.654 10.317C18.103 4.071 24.562 6.083 32 8.068c-5.87-1.064-13.462-3.091-15.346 2.25z" style="fill:#fff5e0"/><path d="M20.915 4.9s4.91-3.92 10.738 1.002C25.434 2.497 20.915 4.9 20.915 4.9z" style="fill:#ffedc4"/></svg>