<svg xmlns="http://www.w3.org/2000/svg" xml:space="preserve" style="enable-background:new 0 0 64 64" viewBox="0 0 64 64"><linearGradient id="a" x1="34.922" x2="34.922" y1="63.996" y2="31.706" gradientUnits="userSpaceOnUse"><stop offset="0" style="stop-color:#d1d8de"/><stop offset="1" style="stop-color:#f2f9ff"/></linearGradient><path d="M40.46 31.706H29.414l-11.967 4.25 2.85 25.29c.3 2 7.497 2.75 14.495 2.75 6.998 0 15.275-.75 15.575-2.75l2.03-25.29-11.937-4.25z" style="fill:url(#a)"/><path d="M27.734 35.707c.73-.26 7.237.199 7.237.199s-5.847-.239-6.487.051c-.65.29-.34 27.789-.34 27.789l-.79-.07c-.01-.01-.35-27.709.38-27.969z" style="fill:#cfd8dd"/><path d="M30.513 38.816c.56 0 1.01.45 1.01 1.01s-.46 1.01-1.01 1.01c-.56 0-1.01-.45-1.01-1.01 0-.55.45-1.01 1.01-1.01m8.847 0c.56 0 1.01.45 1.01 1.01s-.45 1.01-1.01 1.01-1.01-.45-1.01-1.01c-.01-.55.45-1.01 1.01-1.01m-8.847 10.19c.56 0 1.01.45 1.01 1.01s-.46 1.01-1.01 1.01c-.56 0-1.01-.45-1.01-1.01s.45-1.01 1.01-1.01" style="fill:#068ac7"/><path d="M28.454 33.026s2.441 2.87 6.478 2.87c4.042 0 6.488-2.87 6.488-2.87v-5.5H28.454v5.5z" style="fill:#f3cca8"/><path d="M41.42 30.676c-.522 1.03-1.662 1.733-2.773 2.196a3.079 3.079 0 0 0-1.906 2.84c2.132-.327 5.399-.982 5.399-3.408-.01-.89-.72-1.628-.72-1.628zm-12.966 0c.521 1.03 1.662 1.733 2.773 2.196a3.079 3.079 0 0 1 1.905 2.84c-2.132-.327-5.398-.982-5.398-3.408.01-.89.72-1.628.72-1.628z" style="fill:#068ac7"/><linearGradient id="b" x1="21.101" x2="13.038" y1="56.092" y2="44.217" gradientUnits="userSpaceOnUse"><stop offset="0" style="stop-color:#d1d8de"/><stop offset="1" style="stop-color:#f2f9ff"/></linearGradient><path d="M17.447 35.966C15.018 37.136 9.6 46.622 9.06 51.042c.93 5.726 6.1 10.56 9.248 9.768.242-1.035.739-3.477 1.373-5.12.336-5.674.637-16.682-2.233-19.724z" style="fill:url(#b)"/><linearGradient id="c" x1="16.395" x2="8.061" y1="63.235" y2="51.402" gradientUnits="userSpaceOnUse"><stop offset="0" style="stop-color:#d1d8de"/><stop offset="1" style="stop-color:#f2f9ff"/></linearGradient><path d="M9.06 51.042c-2.112-.75-2.556 4.513-1.431 6.075.323 3.346 1.79 6.188 5.141 6.188 1.785 0 5.11-.667 5.537-2.495.945-4.042-3.97-10.417-9.248-9.768z" style="fill:url(#c)"/><path d="M15.447 53.508C18.31 57.22 14.15 64.3 7.63 57.117c6.073 8.254 11.422.324 7.819-3.61zm2.86-16.223s1.802 6.088 1.373 18.406c1.488-14.386-1.373-18.406-1.373-18.406z" style="fill:#cfd8dd"/><path d="M14.828 49.616c-2.429 1.17-4.728-7.18-5.268-2.76.141 2.355-1.018 3.98-1.017 5.07.002 4.223 6.997 5.888 6.654 2.457-.127-1.267-1.007-1.954-.369-4.767z" style="fill:#ffd8b4"/><linearGradient id="d" x1="46.652" x2="55.652" y1="51.193" y2="47.63" gradientUnits="userSpaceOnUse"><stop offset="0" style="stop-color:#d1d8de"/><stop offset="1" style="stop-color:#f2f9ff"/></linearGradient><path d="M52.386 35.966c3.37 2.53 6.328 18.34 3.45 23.68-.407.753-1.049 1.262-2.236 1.784-12.083-5.329-3.142-25.534-1.214-25.464z" style="fill:url(#d)"/><path d="M48.84 57.198s3.017 4.85.248 5.558c-3.745.96-7.302 1.203-9.727 1.14-2.14-2.64 9.48-6.698 9.48-6.698z" style="fill:#f3cca8"/><path d="M47.085 55.926c1.84.347 6.322 3.657 6.551 5.707-.624.72-3.608 1.35-4.446 1.218-.563-4.708-4.389-5.1-2.105-6.925z" style="fill:#e6ebef"/><path d="M46.988 55.194s.87-11.03 4.096-17.909c-4.392 5.654-4.096 17.909-4.096 17.909z" style="fill:#cfd8dd"/><path d="m45.487 54.401.575.76s3.866-2.976 9.129-4.433c-5.412.293-9.704 3.673-9.704 3.673z" style="fill:#cfd8dd"/><path d="m44.823 54.304.338.89s4.558-1.75 10.02-1.656c-5.283-1.255-10.358.766-10.358.766zm3.79 1.136s3.602 2.564 4.987 5.99c-.552-3.613-4.987-5.99-4.987-5.99z" style="fill:#cfd8dd"/><path d="M12.459 38.616c.78-1.78 3.469-.54 3.039 2.42-.17 1.19-3.509-1.33-3.04-2.42z" style="fill:#deb38a"/><path d="m7.94 38.576 19.454 18.75 1.51-1.64-18.564-19.33c-2.12-2.12-4.789-.17-2.4 2.22z" style="fill:#774212"/><path d="M17.527 43.836c-1.69.9-1.29 2.71-1.12 3.21.21.6-1.189 4.16-2.599 3.99-1.35-.17-3.508-1.63-4.128-2.66-.65-1.07-1.46-5.44-1.53-6.35-.09-1.17 1.07-3.76 2.96-4.63 1.219-.56 2.049 1.18 1.569 1.4-1.82.83-2.11 2.3-2.11 2.3s3.2-4.21 4.25-.98c0 0 1.589-.25 1.589 1.71.01 0 1.72.23 1.12 2.01z" style="fill:#ffd8b4"/><path d="M11.55 43.416s.859-2.23 3.278-3.29c-1.91 1.35-3.279 3.29-3.279 3.29zm2.359 1.22s.12-1.87 2.499-2.81c-1.83 1.19-2.5 2.81-2.5 2.81z" style="fill:#deb38a"/><radialGradient id="e" cx="-112.387" cy="411.157" r="15.889" fx="-107.331" fy="411.752" gradientTransform="matrix(.9394 -.342 -.5115 -1.4056 351.224 588.894)" gradientUnits="userSpaceOnUse"><stop offset=".19" style="stop-color:#f2c9a7"/><stop offset=".38" style="stop-color:#dca280"/><stop offset=".617" style="stop-color:#bd6b4b"/><stop offset=".684" style="stop-color:#c17353"/><stop offset=".786" style="stop-color:#ce8968"/><stop offset=".912" style="stop-color:#e2ac8b"/><stop offset="1" style="stop-color:#f2c9a7"/></radialGradient><path d="M35.912 49.376c-8.248 3-14.396 6.91-13.726 8.75 0 0 1.28 2.31 6.728 4.86 2.02.95 6.298 1.8 11.866-.23 5.578-2.03 8.307-5.44 9.237-7.45 2.53-5.46 2.03-8.05 2.03-8.05-.66-1.84-7.888-.88-16.135 2.12z" style="fill:url(#e)"/><path d="M36.791 51.786c-6.827 2.49-12.206 5.59-13.475 7.63.3.29.68.61 1.14.96 1.889-2.01 6.827-4.72 12.925-6.94 6.098-2.22 11.627-3.32 14.366-3 .13-.57.21-1.06.26-1.47-2.27-.75-8.388.33-15.216 2.82z" style="opacity:.1;fill:#870000"/><path d="M42.82 61.686c-.67.41-4.83.17-7.198 1.02-.81.29-1.04 1.47-.02 1.27 2.309-.45 6.768.88 10.047-1.75 1.18-.95.35-1.22 2.319-2.95.57-.5-.67-.88-1.56-.42-1.69.85-2.929 2.43-3.589 2.83z" style="fill:#ffd8b4"/><path d="M23.622 20.203s.347 3.36-.507 5.621c1.2-.13 1.511-.735 1.511-.735s-.041 1.573-.652 2.676c1.128.186 1.822-.373 1.822-.373s0 1.19.088 2.008c3.287-.848 3.09-4.673 3.09-4.673l-5.352-4.524zm23.136 5.621c-.854-2.267-.507-5.62-.507-5.62l-5.347 4.523s-.197 3.825 3.09 4.674c.088-.818.088-2.009.088-2.009s.694.56 1.822.373c-.616-1.097-.652-2.676-.652-2.676s.305.606 1.506.735z" style="fill:#2e2319"/><path d="M46.132 16.016c-1.734.212-2.987 6.014-1.895 7.546.15.212 1.046.554 1.708-.797.368-.75 1.424-1.372 1.755-2.919.42-1.977.16-4.037-1.568-3.83zm-22.391 0c1.734.212 2.987 6.014 1.895 7.546-.15.212-1.046.554-1.708-.797-.368-.75-1.424-1.372-1.755-2.919-.42-1.977-.155-4.037 1.568-3.83z" style="fill:#ffd8b4"/><path d="M46.085 17.129c-.45.145-.947.833-1.211 1.977 1.579-.342 1.185 2.293-.186 2.344.01.264.03.539.062.823.662-.962 1.335-.574 2.003-2.008.595-1.288.455-3.488-.668-3.136zM24.999 19.1c-.27-1.143-.76-1.832-1.211-1.971-1.118-.352-1.263 1.847-.663 3.136.668 1.429 1.34 1.046 2.003 2.008.031-.29.052-.559.062-.828-1.36-.062-1.749-2.66-.191-2.344z" style="fill:#deb38a"/><path d="M34.937 4.857c-7.51 0-11.128 6.118-10.678 13.98.093 1.578.533 3.86 1.077 5.817 1.123 4.063 6.092 8.152 9.6 8.152 3.51 0 8.473-4.089 9.602-8.152.543-1.956.983-4.234 1.076-5.817.45-7.862-3.167-13.98-10.677-13.98z" style="fill:#ffd8b4"/><path d="M43.099 15.436c-1.719-.91-5.005-.952-6.227-.32-.264.123-.088.983.13.9 1.708-.673 4.461-.688 6.055.057.212.103.3-.507.042-.637zm-16.325 0c1.719-.91 5.005-.952 6.232-.32.264.123.088.983-.13.9-1.707-.673-4.456-.688-6.055.057-.218.103-.306-.507-.047-.637z" style="fill:#826d58"/><path d="M36.965 23.33c-.212-.15-.719.082-2.029.082-1.309 0-1.811-.233-2.028-.083-.26.181.15 1 2.029 1 1.873 0 2.282-.819 2.028-1zm-2.028 3.094c-1.688-.497-4.193.238-4.193.238.953 1.04 1.651 2.386 4.193 2.386 2.908 0 3.405-1.526 4.192-2.386 0-.005-2.505-.74-4.192-.238z" style="fill:#deb38a"/><path d="M31.376 26.833c1.77 1.486 5.346 1.496 7.127 0-1.89.083-5.228.083-7.127 0z" style="fill:#fff"/><path d="M27.861 6.032c3.934 3.752 15.641 6.102 17.67 14.368-2.769-8.297-12.95-5.968-17.67-14.368z" style="fill:#2e2319"/><path d="M35.05 2.787c-4.57 0-6.852 2.07-7.318 3.053 5.698 8.7 15.356 5.756 17.8 14.565 4.22-7.824.833-17.618-10.482-17.618z" style="fill:#403429"/><path d="M30.604 3.801c1.915.036 2.51.559 2.51.559s-1.604-.238-3.27-.041c2.246.538 4.094 1.915 4.094 1.915S31.4 4.94 28.974 4.97c1.734 1.61 5.445 3.747 5.445 3.747s-3.913-1.879-6.185-2.955c4.658 7.753 15.268 6.112 17.189 13.069-.322-4.532-6.177-8.042-6.177-8.042s5.312 2.892 6.948 5.982c-.818-3.085-5.136-6.913-5.136-6.913s4.644 2.984 5.954 5.137c-.549-2.898-4.38-6.892-4.38-6.892s3.359 2.33 4.467 5.016C46.444 7.674 40.718 1.062 30.604 3.8z" style="fill:#4f4236"/><path d="M44.086 7.675c-3.898-5.224-10.99-3.958-10.99-3.958s6.72.15 10.99 3.958z" style="fill:#635547"/><path d="M45.036 12.02C41.03 4.986 31.598 4.552 31.598 4.552s7.99 2.095 13.438 7.468zm-2.766.35c-4.237-5.225-11.71-6.69-11.71-6.69s5.678 2.247 11.71 6.69zm-5.503-1.059C33.68 9.535 29.09 6.488 29.09 6.488s3.079 4.059 7.678 4.823z" style="fill:#635547"/><path d="M27.732 5.84c-5.523 1.263-6.354 10.245-3.168 14.56.513-4.24 1.01-6.962 3.825-9.829 0 0 .166-2.52-.657-4.73z" style="fill:#403429"/><path d="M28.26 10.245s-3.63 3.364-3.696 10.155c.621-6.729 3.861-9.767 3.861-9.767l-.165-.388z" style="fill:#2e2319"/><path d="M27.789 6.032s-6.408 2.19-4.58 11.009c.04-.711.138-1.369.268-1.988-.012 1.1.152 2.308.575 3.628.554-6.128 4.11-9.12 4.11-9.12l-.373-3.53z" style="fill:#4f4236"/><path d="M24.034 15.523c.526-3.621 2.765-7.17 2.765-7.17s-3.336 1.938-2.765 7.17z" style="fill:#635547"/><path d="M23.488 13.113c.665-3.583 3.406-6.056 3.406-6.056s-3.324.796-3.406 6.056z" style="fill:#635547"/><path d="M27.732 5.84c-1.506 6.832 5.714 8.173 8.773 8.173-5.497-3.81-8.773-8.173-8.773-8.173z" style="fill:#403429"/><path d="M27.55 7.057c.146 3.913 2.278 6.356 8.955 6.956-5.223.352-9.757-2.257-8.954-6.956z" style="fill:#2e2319"/><path d="M27.861 6.032s-.331 6.506 7.841 7.655c-6.526-3.763-7.84-7.655-7.84-7.655z" style="fill:#4f4236"/><path d="M30.435 10.95c-1.205-1.522-2.422-4.306-2.422-4.306s.248 2.992 2.422 4.306z" style="fill:#635547"/><linearGradient id="f" x1="22.363" x2="47.511" y1="10.312" y2="10.312" gradientUnits="userSpaceOnUse"><stop offset="0" style="stop-color:#cfd8dd"/><stop offset=".125" style="stop-color:#dbe3e7"/><stop offset=".316" style="stop-color:#e8edf2"/><stop offset=".5" style="stop-color:#ecf1f5"/><stop offset=".684" style="stop-color:#e8edf2"/><stop offset=".875" style="stop-color:#dbe3e7"/><stop offset="1" style="stop-color:#cfd8dd"/></linearGradient><path d="M34.937 5.842c-8.464 0-12.574 4.541-12.574 4.541v4.137c0 .186.196.314.379.24 1.165-.47 5.055-1.78 12.195-1.78 7.138 0 11.03 1.31 12.195 1.78.183.074.379-.054.379-.24v-4.137s-4.11-4.541-12.574-4.541" style="fill:url(#f)"/><linearGradient id="g" x1="34.937" x2="34.937" y1="10.916" y2="0" gradientUnits="userSpaceOnUse"><stop offset="0" style="stop-color:#c5cfd6"/><stop offset=".715" style="stop-color:#ecf1f5"/></linearGradient><path d="M47.26 1.82C44.477.605 42.82 0 40.734 0c-.96 0-3.4.944-5.8.909C32.536.944 30.1 0 29.14 0c-2.087 0-3.746.606-6.526 1.82-2.778 1.213-4.716 2.207-4.716 4.549 0 3.317 4.466 4.547 4.466 4.547s12.658-5.458 25.146 0c0 0 4.468-1.23 4.468-4.547 0-2.342-1.94-3.336-4.718-4.55" style="fill:url(#g)"/><linearGradient id="h" x1="34.912" x2="34.912" y1="10.916" y2="2.256" gradientUnits="userSpaceOnUse"><stop offset="0" style="stop-color:#b0bcc4"/><stop offset=".169" style="stop-color:#bec8cf"/><stop offset=".502" style="stop-color:#d4dce1"/><stop offset=".715" style="stop-color:#dce3e8"/></linearGradient><path d="M44.564 7.677c-2.621 2.654-1.82-5.055-3.645-5.028-1.875.027-2.598 4.975-6.02 4.903-3.551-.075-3.222-5.566-5.639-5.285-2.34.27-2.12 8.751-5.59 4.113-5.357-7.165-.452 8.546-5.757.361.239 3.642 4.45 4.175 4.45 4.175 2.483-1.216 14.44-4.826 25.147 0 0 0 3.883-.418 4.4-3.825-6.165 6.401 1.578-8.445-7.346.586z" style="fill:url(#h)"/><linearGradient id="i" x1="34.936" x2="34.936" y1="10.916" y2="2.734" gradientUnits="userSpaceOnUse"><stop offset=".158" style="stop-color:#869399"/><stop offset=".297" style="stop-color:#919da3;stop-opacity:.8621"/><stop offset=".543" style="stop-color:#aeb8be;stop-opacity:.62"/><stop offset=".715" style="stop-color:#c7ced4;stop-opacity:.45"/></linearGradient><path d="M22.363 10.916c4.328-1.696 8.48-2.32 12.574-2.32 4.092 0 8.244.624 12.574 2.32-.46-.397-1.065-.799-1.17-.952-.266-.391 1.215-.905 1.641-4.108-.578 1.993-1.9 4.022-2.846 3.815-.68-.15-1.74-.602-4.377-.957-.46-.061.505-2.574-.126-5.98.041 1.818-.368 5.396-1.04 5.777-.464.265-1.934-.085-4.655-.085-2.72 0-4.193.35-4.657.085-.673-.381-1.082-3.959-1.04-5.777-.631 3.406.333 5.919-.126 5.98-2.639.355-3.697.808-4.378.957-.947.207-2.269-1.822-2.847-3.815.428 3.203 1.909 3.717 1.642 4.108-.105.153-.71.555-1.17.952z" style="fill:url(#i)"/><path d="M33.26 18.498c.063.5-.275 1.09-1.212 1.534-.596.282-1.836.614-3.464-.073-.729-.308-1.44-1.264-1.376-1.794.883-1.663 5.226-1.906 6.052.333z" style="fill:#fff"/><linearGradient id="j" x1="-1209.547" x2="-1209.547" y1="171.199" y2="170.68" gradientTransform="translate(7977.155 -1104.145) scale(6.5701)" gradientUnits="userSpaceOnUse"><stop offset="0" style="stop-color:#a6694a"/><stop offset="1" style="stop-color:#4f2a1e"/></linearGradient><path d="M30.314 17.242a1.706 1.706 0 1 1 0 3.409 1.706 1.706 0 1 1 0-3.41z" style="fill:url(#j)"/><path d="M29.46 18.915c0 1.18 1.706 1.18 1.706 0 0-1.095-1.706-1.095-1.706 0z" style="fill:#1a1626"/><path d="M29.201 18.436c0 .495.715.495.715 0 0-.456-.715-.456-.715 0z" style="fill:#ab968c"/><path d="M33.268 18.564c-.693-2.224-5.418-1.895-6.06-.4.238-1.915 5.47-2.421 6.06.4z" style="fill:#deb38a"/><path d="M36.615 18.498c-.064.5.274 1.09 1.212 1.534.595.282 1.834.614 3.462-.073.731-.308 1.441-1.264 1.377-1.794-.882-1.663-5.226-1.906-6.051.333z" style="fill:#fff"/><linearGradient id="k" x1="-1210.843" x2="-1210.843" y1="171.199" y2="170.68" gradientTransform="translate(7994.886 -1104.145) scale(6.5701)" gradientUnits="userSpaceOnUse"><stop offset="0" style="stop-color:#a6694a"/><stop offset="1" style="stop-color:#4f2a1e"/></linearGradient><path d="M39.522 17.242a1.705 1.705 0 1 1-1.706 1.703c0-.94.764-1.703 1.706-1.703z" style="fill:url(#k)"/><path d="M38.67 18.915c0 1.18 1.707 1.18 1.707 0 0-1.095-1.707-1.095-1.707 0z" style="fill:#1a1626"/><path d="M38.41 18.436c0 .495.716.495.716 0 0-.456-.716-.456-.716 0z" style="fill:#ab968c"/><path d="M36.607 18.564c.691-2.222 5.413-1.904 6.059-.4-.24-1.915-5.47-2.421-6.06.4z" style="fill:#deb38a"/><path d="M33.038 19.62a9.663 9.663 0 0 1-5.63-.11l-.292 1.441c2.025.653 4.144.694 6.183.121l-.26-1.452zm9.429-.11a9.67 9.67 0 0 1-5.632.11c-.088.484-.174.968-.26 1.452 2.039.573 4.158.532 6.183-.12-.096-.483-.194-.962-.291-1.443z" style="fill:#ffd8b4"/></svg>