<svg xmlns="http://www.w3.org/2000/svg" xml:space="preserve" style="enable-background:new 0 0 64 64" viewBox="0 0 64 64"><linearGradient id="a" x1="32" x2="32" y1="58.325" y2="24.999" gradientUnits="userSpaceOnUse"><stop offset=".211" style="stop-color:#323940"/><stop offset=".272" style="stop-color:#343c43"/><stop offset=".627" style="stop-color:#3f464e"/><stop offset="1" style="stop-color:#424a52"/></linearGradient><path d="M62 25c-8.074 8.921-20.783 8.976-30 8.97-9.217.006-21.924-.049-30-8.97 0 16.412 19.28 21.006 12.486 30.965-2.146 3.146 37.176 3.146 35.03 0C42.723 46.005 62 41.412 62 24.999z" style="fill:url(#a)"/><linearGradient id="b" x1="32.001" x2="32.001" y1="60.34" y2="26.953" gradientUnits="userSpaceOnUse"><stop offset=".42" style="stop-color:#b3000a"/><stop offset=".469" style="stop-color:#c00008"/><stop offset=".601" style="stop-color:#db0005"/><stop offset=".733" style="stop-color:#ef0002"/><stop offset=".866" style="stop-color:#fb0001"/><stop offset="1" style="stop-color:red"/></linearGradient><path d="M32 33.97c-9.217.006-19.984-.515-28-7.017 0 9.726 26.28 21.068 19.486 31.026-2.146 3.148 19.174 3.148 17.028 0-6.793-9.958 19.488-21.3 19.488-31.026C51.986 33.455 41.217 33.976 32 33.97z" style="fill:url(#b)"/><linearGradient id="c" x1="32" x2="32" y1="61.843" y2="48.138" gradientUnits="userSpaceOnUse"><stop offset="0" style="stop-color:#424a52"/><stop offset="1" style="stop-color:#323940"/></linearGradient><path d="M9.786 52.718c2.702-1.289 13.492-4.544 13.492-4.544l17.422-.036s10.89 3.284 13.575 4.577C58.18 54.588 59 57.143 59 59.56c0 1.214-7.519 1.975-16.944 2.283-5.553-2.62-14.469-2.557-20.134 0C12.506 61.532 5 60.772 5 59.56c0-2.42.871-4.976 4.786-6.842z" style="fill:url(#c)"/><path d="M23.276 54.346 26.352 62h11.296l3.074-7.654z" style="fill:#e6ebef"/><path d="M23 49.947s2.889 2.832 9 2.832c6.113 0 9-2.832 9-2.832v-8.035H23v8.035z" style="fill:#5e4c3b"/><path d="M22.984 45.032c-4.087 1.16-6.353 3.766-6.353 3.766l4.423 2.441-2.647 3.113c1.762 5.349 3.515 7.49 3.515 7.49l4.43.158c-2.54-6.863-3.368-16.968-3.368-16.968zm24.384 3.766s-2.266-2.607-6.353-3.766c0 0-.83 10.105-3.368 16.968l4.409-.157s1.772-2.142 3.536-7.49l-2.647-3.114 4.423-2.44z" style="fill:#4c555e"/><path d="M48.441 25.394c-2.544.307-4.382 8.815-2.78 11.06.224.313 1.534.815 2.507-1.167.54-1.098 2.092-2.014 2.574-4.278.617-2.9.233-5.922-2.3-5.615zm-32.881 0c2.546.307 4.383 8.815 2.782 11.06-.225.313-1.535.815-2.51-1.167-.537-1.098-2.092-2.014-2.572-4.278-.62-2.9-.233-5.922 2.3-5.615z" style="fill:#735c48"/><path d="M48.373 27.023c-.664.209-1.388 1.22-1.781 2.898 2.32-.498 1.74 3.362-.277 3.434.02.389.045.787.093 1.207.971-1.408 1.96-.844 2.938-2.94.88-1.888.672-5.113-.973-4.6zM17.41 29.917c-.394-1.675-1.117-2.685-1.781-2.894-1.643-.514-1.855 2.71-.973 4.6.979 2.095 1.967 1.53 2.94 2.939.047-.42.074-.82.09-1.209-1.996-.094-2.569-3.906-.276-3.436z" style="fill:#4a3728"/><path d="M32 9.034c-11.027 0-16.34 8.329-15.676 19.909.133 2.33 1.582 9.93 2.948 12.656 1.398 2.79 6.074 7.09 8.937 7.98 1.81.562 5.773.562 7.582 0 2.865-.89 7.543-5.19 8.94-7.98 1.369-2.726 2.814-10.324 2.945-12.656C48.344 17.363 43.03 9.034 32 9.034z" style="fill:#735c48"/><path d="M43.983 24.544c-2.522-1.336-7.348-1.4-9.147-.469-.387.178-.13 1.442.193 1.323 2.504-.99 6.547-1.012 8.893.084.313.142.443-.752.06-.938zm-23.963 0c2.521-1.336 7.345-1.4 9.146-.469.385.178.131 1.442-.193 1.323-2.51-.99-6.547-1.012-8.895.084-.31.142-.44-.752-.058-.938z" style="fill:#1a1626"/><path d="M34.977 36.109c-.315-.219-1.053.12-2.977.12-1.92 0-2.66-.339-2.975-.12-.377.265.223 1.461 2.975 1.461 2.754 0 3.355-1.196 2.977-1.461z" style="fill:#4a3728"/><path d="M32 40.646c-2.478-.728-6.154.346-6.154.346 1.398 1.521 2.424 3.494 6.154 3.494 4.276 0 5.002-2.24 6.156-3.494 0 0-3.675-1.08-6.156-.346z" style="fill:#1a1626"/><path d="M26.768 41.25c2.601 2.176 7.851 2.191 10.466 0-2.771.117-7.675.119-10.466 0zm2.779-12.165c.094.73-.402 1.594-1.774 2.243-.87.412-2.685.896-5.066-.108-1.066-.45-2.107-1.847-2.014-2.623 1.291-2.43 7.645-2.785 8.854.488z" style="fill:#fff"/><linearGradient id="d" x1="-424.582" x2="-424.582" y1="477.466" y2="478.224" gradientTransform="matrix(6.5701 0 0 -6.5701 2814.782 3168.527)" gradientUnits="userSpaceOnUse"><stop offset="0" style="stop-color:#c20606"/><stop offset="1" style="stop-color:#5e0000"/></linearGradient><path d="M25.236 26.546a2.494 2.494 0 0 1 2.496 2.49 2.495 2.495 0 0 1-2.496 2.495 2.494 2.494 0 0 1-2.498-2.494 2.494 2.494 0 0 1 2.498-2.49z" style="fill:url(#d)"/><path d="M23.988 28.992c0 1.724 2.496 1.724 2.496 0 0-1.6-2.496-1.6-2.496 0z" style="fill:#1a1626"/><path d="M23.61 28.292c0 .723 1.044.723 1.044 0 0-.668-1.044-.668-1.044 0z" style="fill:#ab968c"/><path d="M29.559 29.181c-1.014-3.25-7.926-2.77-8.866-.584.348-2.799 8.002-3.54 8.866.584z" style="fill:#1a1626"/><path d="M34.455 29.085c-.094.73.4 1.594 1.774 2.243.87.412 2.683.896 5.064-.108 1.07-.45 2.11-1.847 2.016-2.623-1.291-2.43-7.647-2.785-8.854.488z" style="fill:#fff"/><linearGradient id="e" x1="-425.23" x2="-425.23" y1="477.466" y2="478.224" gradientTransform="matrix(6.5701 0 0 -6.5701 2832.512 3168.527)" gradientUnits="userSpaceOnUse"><stop offset="0" style="stop-color:#c20606"/><stop offset="1" style="stop-color:#5e0000"/></linearGradient><path d="M38.71 26.546a2.493 2.493 0 1 1 0 4.985 2.493 2.493 0 1 1 0-4.985z" style="fill:url(#e)"/><path d="M37.463 28.992c0 1.724 2.496 1.724 2.496 0 0-1.6-2.496-1.6-2.496 0z" style="fill:#1a1626"/><path d="M37.082 28.292c0 .723 1.047.723 1.047 0 0-.668-1.047-.668-1.047 0z" style="fill:#ab968c"/><path d="M34.443 29.181c1.012-3.248 7.92-2.783 8.866-.584-.352-2.799-8.002-3.54-8.866.584z" style="fill:#1a1626"/><linearGradient id="f" x1="32.002" x2="32.002" y1="15.255" y2="6" gradientUnits="userSpaceOnUse"><stop offset="0" style="stop-color:#323940"/><stop offset="1" style="stop-color:#424a52"/></linearGradient><path d="M46.086 11.793C43.672 8.533 39.254 6 32 6c-7.252 0-11.668 2.532-14.082 5.793-3.418 4.616 31.584 4.616 28.168 0z" style="fill:url(#f)"/><linearGradient id="g" x1="32.001" x2="32.001" y1="31.793" y2="10.614" gradientUnits="userSpaceOnUse"><stop offset="0" style="stop-color:#323940"/><stop offset="1" style="stop-color:#424a52"/></linearGradient><path d="M46.086 11.793C43.672 8.533 32 13.07 32 13.07s-11.668-4.537-14.082-1.276c-3.418 4.616-2.258 20-.736 20 .24 0 .275-5.381.736-9.104.373-3.03 1.094-5.969 1.924-6.45C22.373 14.774 32 17.87 32 17.87s9.629-3.097 12.162-1.63c.828.48 1.547 3.42 1.924 6.449.459 3.723.494 9.104.734 9.104 1.522 0 2.682-15.384-.734-20z" style="fill:url(#g)"/><radialGradient id="h" cx="690.418" cy="-134.767" r="29.203" fx="667.052" fy="-124.171" gradientTransform="matrix(-.9613 -.0001 -.00005 -.5047 679.47 -5.351)" gradientUnits="userSpaceOnUse"><stop offset=".261" style="stop-color:#e81c27"/><stop offset=".364" style="stop-color:#b51c27"/><stop offset=".503" style="stop-color:#e81c27"/></radialGradient><path d="M31.31 54.066c-1.404 3.966-8.644 5.042-9.072 4.458-.869-1.191-1.674-5.999-.015-8.655.256-.41 8.015-.316 9.088 4.197z" style="fill:url(#h)"/><radialGradient id="i" cx="17.976" cy="-134.461" r="29.205" fx="-5.392" fy="-123.864" gradientTransform="matrix(.9613 -.0003 .0002 -.5047 30.932 -5.264)" gradientUnits="userSpaceOnUse"><stop offset=".261" style="stop-color:#e81c27"/><stop offset=".364" style="stop-color:#b51c27"/><stop offset=".503" style="stop-color:#e81c27"/></radialGradient><path d="M32.658 54.066c1.404 3.966 8.646 5.04 9.073 4.455.87-1.191 1.675-5.999.018-8.655-.256-.41-8.016-.314-9.09 4.2z" style="fill:url(#i)"/><linearGradient id="j" x1="70.025" x2="70.025" y1="56.533" y2="51.881" gradientTransform="matrix(1.1359 -.0002 -.0002 1 -47.544 -.138)" gradientUnits="userSpaceOnUse"><stop offset=".097" style="stop-color:#b51c27"/><stop offset=".551" style="stop-color:#e81c27"/></linearGradient><path d="M31.99 56.262c-1.942 0-2.422.891-2.427-2.204-.003-3.098.48-2.205 2.422-2.208 1.94-.002 2.42-.897 2.425 2.203.004 3.094-.477 2.206-2.42 2.209z" style="fill:url(#j)"/><path d="m27.299 41.28.871 3.389.928-3.277zm9.402 0-.87 3.389-.929-3.277z" style="fill:#fff"/></svg>