<svg xmlns="http://www.w3.org/2000/svg" xml:space="preserve" style="enable-background:new 0 0 64 64" viewBox="0 0 64 64"><linearGradient id="a" x1="23.756" x2="23.756" y1="64" y2="28.094" gradientUnits="userSpaceOnUse"><stop offset="0" style="stop-color:#d1d8de"/><stop offset=".056" style="stop-color:#d6dde3"/><stop offset=".315" style="stop-color:#e6edf3"/><stop offset=".607" style="stop-color:#eff6fc"/><stop offset="1" style="stop-color:#f2f9ff"/></linearGradient><path d="m29.628 28.094-11.882.02-11.141 3.881 3.34 29.258C10.228 63.254 17.057 64 23.689 64s14.48-.744 14.767-2.744l2.451-29.27-11.279-3.892z" style="fill:url(#a)"/><linearGradient id="b" x1="-1.16" x2="16" y1="39.644" y2="56.804" gradientUnits="userSpaceOnUse"><stop offset="0" style="stop-color:#f2f9ff"/><stop offset="1" style="stop-color:#d1d8de"/></linearGradient><path d="M6.605 31.995C4.245 33.026 3.5 43.924 3.5 59.535c0 2.603 7.133 2.636 7.133 2.636.77-10.312-1.728-31.18-4.028-30.176z" style="fill:url(#b)"/><path d="M52.98 25.183c-.096-1.065 1.927-.997 2.193.41.12.636 4.144 6.848 3.797 7.855-.989 2.865-3.332 1.818-4.24 6.927-.13.734-4.898-2.14-4.62-2.95 1.34-3.913.872-4.489 1.797-6.354 1.102-2.222 1.284-3.564 1.074-5.888z" style="fill:#21bebf"/><linearGradient id="c" x1="38.884" x2="47.947" y1="51.744" y2="36.046" gradientUnits="userSpaceOnUse"><stop offset="0" style="stop-color:#d1d8de"/><stop offset="1" style="stop-color:#f2f9ff"/></linearGradient><path d="M46.099 55.583c-2.007 0-5.836-4.323-6.83-7.208-.482-1.394-1.152-12.766 1.638-16.388 1.34.52 4.868 11.976 4.868 11.976s2.177 5.557.324 11.62z" style="fill:url(#c)"/><linearGradient id="d" x1="53.455" x2="45.598" y1="51.973" y2="38.365" gradientUnits="userSpaceOnUse"><stop offset="0" style="stop-color:#d1d8de"/><stop offset="1" style="stop-color:#f2f9ff"/></linearGradient><path d="M55.298 38.816c-1.815 5.996-3.638 16.767-9.2 16.767-2.344-6.304-.323-11.62-.323-11.62s3.708-6.866 4.14-8.09c1.763 3.008 5.383 2.943 5.383 2.943z" style="fill:url(#d)"/><path d="M54.45 16.695a.23.23 0 0 0-.191.366c.13.188.245.45.245.789v14.94c0 2.109 3.699 2.11 3.699 0V17.85c0-.34.115-.601.246-.79a.23.23 0 0 0-.192-.365H54.45z" style="fill:#cae8f0"/><linearGradient id="e" x1="54.716" x2="57.99" y1="27.507" y2="27.507" gradientUnits="userSpaceOnUse"><stop offset="0" style="stop-color:#db59ff"/><stop offset="1" style="stop-color:#7f00ad"/></linearGradient><path d="M57.63 21.088c-.204-.324-.709-.243-.858.11-.14-.261-.548-.265-.699-.012-.218-.403-.819-.32-.985-.032-.14-.109-.372-.036-.372.166 0 0 .004 7.865.004 11.393 0 1.89 3.267 1.89 3.267 0l.003-11.393c0-.236-.2-.295-.36-.232z" style="fill:url(#e)"/><path d="M57.419 24.425c-.38-.266-.858.202-.585.571-.009-.304.273-.58.584-.571zm-1.354-.772c-.379-.266-.858.202-.585.572-.008-.305.273-.58.585-.572zm1.344-.666c-.182-.127-.411.097-.28.274-.005-.146.13-.278.28-.274zm-.933-1.9c-.182-.128-.41.097-.28.274-.005-.146.13-.278.28-.274zm-.753-.058c-.313-.22-.71.167-.484.473a.481.481 0 0 1 .484-.473zm0 1.079c-.222-.156-.502.118-.342.334a.34.34 0 0 1 .342-.334zm1.802-.494c-.222-.156-.502.118-.342.334a.34.34 0 0 1 .342-.334zm-.245-.62c-.221-.155-.501.118-.342.335a.34.34 0 0 1 .342-.335zm-1.689 4.047c-.218-.153-.494.117-.336.33a.335.335 0 0 1 .336-.33z" style="fill:#db59ff"/><path d="M59.597 27.116c1.031.939.46 1.958.46 1.958.803.982.27 2.17.27 2.17.854 2.56-5.294 3.606-4.023 1.237-1.644.17-2.072-1.47-.39-1.897-1.89.281-1.592-1.795-.466-2.008.423-.079.856-.263 1.345-.35-1.926.258-1.605-1.637-.64-2.037 1.068-.44 2.224-.658 2.627-.58.797.15.923 1.151.817 1.507z" style="fill:#21bebf"/><path d="M55.388 27.317c-.12 1.818 2.89.617 3.335.24-1.97.823-3.303.46-3.335-.24zm.745 5.709c-.12 1.818 2.904.517 3.348.14-1.97.823-3.317.56-3.349-.14zm-1.581-3.358c-.12 1.817 3.014.816 4.478-.134-2.934 1.396-4.447.832-4.478.134zm.293 1.959c-.12 1.817 3.094.867 4.558-.084-2.934 1.398-4.526.784-4.558.084z" style="fill:#009596"/><path d="M23.689 64s.871-11.903.173-23.165C23.477 52.097 23.689 64 23.689 64zm17.196-32.042c-2.423 4.064-1.668 15.17-1.668 15.17s-1.808-12.034 1.668-15.17zM10.633 62.17s.81-12.446-.983-20.234c.758 7.036.983 20.235.983 20.235z" style="fill:#cfd8dd"/><path d="M8.457 42.616c.407.522 1.077 1.393 1.498 2.11l.106-.406c-.455-.665-.984-1.27-1.604-1.704zm37.318 1.347c-2.168 3.485-.72 7.111-.72 7.111s-.473-3.33.72-7.111z" style="fill:#cfd8dd"/><path d="M45.775 43.963c-1.044 2.359.625 4.988.625 4.988s-.646-2.563-.625-4.988z" style="fill:#cfd8dd"/><path d="M34.973 45.044v-3.63c0-.511-.899-.512-.899 0v3.63c0 .248.899.248.899 0z" style="fill:#018bc9"/><path d="M33.676 45.15v-3.63c0-.512-.899-.512-.899 0v3.63c0 .248.899.248.899 0z" style="fill:#c92644"/><path d="M36.924 44.597s.583 6.902 0 7.481c-1.574 1.561-7.326 2.153-8.898.917-.338-.266 0-7.488 0-7.488l8.898-.91z" style="fill:#cfd8dd"/><path d="M36.813 44.597s.567 6.56 0 7.11c-1.53 1.483-7.117 2.045-8.644.871-.329-.252 0-7.116 0-7.116l8.643-.865z" style="fill:#dbe2e6"/><path d="M37.056 42.929a33.51 33.51 0 0 1-9.164.945v2.767a33.506 33.506 0 0 0 9.164-.945v-2.767z" style="fill:#fff"/><path d="M34.407 41.954v2.324c0 .328.233.328.233 0v-2.324c0-.159-.233-.159-.233 0z" style="fill:#1e9dd6"/><path d="M33.11 42.003v2.324c0 .328.233.328.233 0v-2.324c0-.16-.232-.16-.232 0z" style="fill:#d1455f"/><path d="m17.803 30.675 6.06 11.209 6.058-11.21z" style="fill:#ff7a00"/><path d="M17.5 30.236c0 5.56 12.723 5.538 12.723-.021l-12.723.021z" style="fill:#ed6a00"/><path d="M18.41 27.294V29.9c0 4.353 10.906 4.353 10.906 0v-2.608l-10.906.002z" style="fill:#a3765a"/><path d="M34.524 30.48s-3.332-1.81-5.21-2.604c0 0-.751 3.902-5.452 13.222-4.702-9.32-5.453-13.222-5.453-13.222-1.88.793-5.21 2.603-5.21 2.603l3.545 1.479-2.447 2.105 9.565 8.717 9.564-8.718-2.447-2.104 3.545-1.479z" style="fill:#cfd8dd"/><path d="M34.384 29.966s-3.192-1.56-5.07-2.354c0 0-.751 3.902-5.452 13.223-4.702-9.321-5.453-13.223-5.453-13.223-1.88.793-5.07 2.354-5.07 2.354l3.96 1.577-2.856 1.99 9.419 9.247 9.418-9.246-2.856-1.991 3.96-1.577z" style="fill:#fff"/><path d="M12.555 17.405s.346 3.357-.507 5.617c1.2-.129 1.51-.734 1.51-.734s-.041 1.572-.652 2.674c1.128.186 1.821-.372 1.821-.372s0 1.19.088 2.007c3.285-.849 3.088-4.671 3.088-4.671l-5.348-4.52zm23.121 5.617c-.853-2.265-.507-5.617-.507-5.617l-5.343 4.52s-.196 3.823 3.088 4.672c.088-.818.088-2.007.088-2.007s.693.558 1.82.372c-.615-1.097-.65-2.674-.65-2.674s.304.605 1.504.734z" style="fill:#52351f"/><path d="M35.05 13.22c-1.732.213-2.984 6.011-1.893 7.542.15.212 1.045.553 1.707-.797.368-.75 1.423-1.37 1.754-2.917.419-1.976.16-4.034-1.568-3.827zm-22.377 0c1.733.213 2.985 6.011 1.894 7.542-.15.212-1.045.553-1.707-.797-.368-.75-1.423-1.37-1.754-2.917-.419-1.976-.155-4.034 1.567-3.827z" style="fill:#b88a6f"/><path d="M35.004 14.333c-.45.145-.947.833-1.21 1.976 1.577-.342 1.184 2.291-.187 2.343.01.264.031.538.062.822.662-.962 1.335-.574 2.002-2.007.595-1.288.455-3.486-.667-3.134zm-21.074 1.97c-.269-1.143-.76-1.83-1.21-1.97-1.117-.352-1.262 1.846-.662 3.134.667 1.428 1.34 1.045 2.002 2.007.03-.29.051-.559.062-.827-1.36-.063-1.749-2.66-.192-2.344z" style="fill:#8c5f44"/><path d="M23.862 2.069c-7.506 0-11.121 6.114-10.671 13.97.093 1.578.532 3.86 1.076 5.814C15.389 25.913 20.355 30 23.862 30c3.507 0 8.468-4.086 9.595-8.147.543-1.955.983-4.23 1.076-5.813.45-7.857-3.166-13.971-10.671-13.971z" style="fill:#b88a6f"/><path d="M32.02 12.641c-1.718-.91-5.003-.951-6.224-.32-.263.124-.087.982.13.9 1.707-.673 4.459-.688 6.052.057.212.103.3-.507.041-.637zm-16.315 0c1.717-.91 5.002-.951 6.227-.32.264.124.088.982-.129.9-1.707-.673-4.453-.688-6.052.057-.217.103-.305-.507-.046-.637z" style="fill:#5e4533"/><path d="M25.89 20.53c-.212-.15-.72.082-2.028.082-1.309 0-1.81-.233-2.028-.083-.258.181.15.999 2.028.999 1.873 0 2.281-.818 2.028-.999zm-2.028 3.092c-1.686-.496-4.19.238-4.19.238.952 1.04 1.65 2.385 4.19 2.385 2.907 0 3.404-1.526 4.19-2.385 0-.005-2.504-.74-4.19-.238z" style="fill:#8c5f44"/><path d="M20.303 24.031c1.77 1.484 5.343 1.495 7.123 0a102.15 102.15 0 0 1-7.123 0zm1.888-8.291c.062.496-.274 1.086-1.205 1.525-.595.28-1.826.61-3.45-.072-.724-.305-1.433-1.262-1.371-1.79.88-1.655 5.204-1.898 6.026.337z" style="fill:#fff"/><linearGradient id="f" x1="-1211.398" x2="-1211.398" y1="170.552" y2="170.035" gradientTransform="translate(7978.266 -1103.139) scale(6.5701)" gradientUnits="userSpaceOnUse"><stop offset="0" style="stop-color:#a6694a"/><stop offset="1" style="stop-color:#4f2a1e"/></linearGradient><path d="M19.258 14.007c.936 0 1.702.76 1.702 1.696a1.702 1.702 0 0 1-3.404 0c0-.936.76-1.696 1.702-1.696z" style="fill:url(#f)"/><path d="M18.41 15.678c0 1.174 1.702 1.174 1.702 0-.005-1.092-1.702-1.092-1.702 0z" style="fill:#1a1626"/><path d="M18.151 15.202c0 .491.714.491.714 0-.005-.46-.714-.46-.714 0z" style="fill:#ab968c"/><path d="M22.201 15.807c-.687-2.22-5.395-1.888-6.036-.398.238-1.914 5.447-2.416 6.037.398z" style="fill:#8c5f44"/><path d="M25.533 15.74c-.062.496.274 1.086 1.205 1.525.595.28 1.826.61 3.45-.072.73-.305 1.433-1.262 1.37-1.79-.878-1.655-5.203-1.898-6.025.337z" style="fill:#fff"/><linearGradient id="g" x1="-1212.701" x2="-1212.701" y1="170.552" y2="170.035" gradientTransform="translate(7995.996 -1103.139) scale(6.5701)" gradientUnits="userSpaceOnUse"><stop offset="0" style="stop-color:#a6694a"/><stop offset="1" style="stop-color:#4f2a1e"/></linearGradient><circle cx="28.429" cy="15.709" r="1.702" style="fill:url(#g)"/><path d="M27.581 15.678c0 1.174 1.702 1.174 1.702 0-.005-1.092-1.702-1.092-1.702 0z" style="fill:#1a1626"/><path d="M27.323 15.202c0 .491.713.491.713 0-.005-.46-.713-.46-.713 0z" style="fill:#ab968c"/><path d="M25.522 15.807c.688-2.214 5.39-1.898 6.032-.398-.233-1.914-5.442-2.416-6.032.398z" style="fill:#8c5f44"/><path d="M16.79 3.243c3.932 3.75 15.633 6.098 17.66 14.359-2.767-8.292-12.942-5.964-17.66-14.359z" style="fill:#52351f"/><path d="M23.976 0c-4.568 0-6.849 2.069-7.314 3.052 5.695 8.695 15.347 5.751 17.788 14.555C39.36 9.79 35.283 0 23.976 0z" style="fill:#6e482a"/><path d="M23.976 0c-4.068 0-6.749 1.652-7.314 3.052 1.97 5.306 15.49 5.467 18.109 12.518-.552-5.06-4.56-8.435-4.56-8.435s3.605 2.33 5.398 5.616c-.334-4.72-4.055-7.437-4.055-7.437s3.356 2.329 4.464 5.013C35.361 4.885 32.747 0 23.975 0z" style="fill:#805837"/><path d="M33.626 5.454C29.853-.902 21.751.774 21.751.774s6.742.35 11.875 4.68z" style="fill:#916643"/><path d="M33.956 9.41C28.538-.73 18.41 2.587 18.41 2.587s8.761-.337 15.546 6.821z" style="fill:#916643"/><path d="M18.982 3.985C24.563 6.054 30.97 9.782 30.97 9.782s-3.788-5.69-11.988-5.797z" style="fill:#916643"/><path d="M16.662 3.052c-5.52 1.262-7.3 10.577-3.166 14.55.512-4.236 1.009-6.957 3.822-9.823 0 0 .166-2.519-.656-4.727z" style="fill:#6e482a"/><path d="M17.19 7.453s-3.627 3.362-3.694 10.149c.62-6.724 3.859-9.76 3.859-9.76l-.166-.389z" style="fill:#52351f"/><path d="M16.718 3.243s-6.403 2.188-4.577 11.002c.041-.71.138-1.368.268-1.987-.012 1.1.152 2.307.575 3.627.553-6.125 4.107-9.114 4.107-9.114l-.373-3.528z" style="fill:#805837"/><path d="M12.775 12.156c.818-4.577 4.452-7.596 4.452-7.596s-5.052.334-4.452 7.596z" style="fill:#916643"/><path d="M16.662 3.052c-1.506 6.827 5.71 8.167 8.767 8.167-5.493-3.807-8.767-8.167-8.767-8.167z" style="fill:#6e482a"/><path d="M16.48 4.267c.145 3.91 2.276 6.352 8.95 6.952-5.22.352-9.751-2.255-8.95-6.952z" style="fill:#52351f"/><path d="M16.662 3.052s-.836 6.148 8.767 8.167c-5.292-4.084-6.25-6.442-8.767-8.167z" style="fill:#805837"/><path d="M22.176 9.43c-1.694-1.105-4.427-5.094-4.427-5.094s.535 4.121 4.427 5.095z" style="fill:#916643"/><linearGradient id="h" x1="23.864" x2="23.864" y1="19.995" y2="12.106" gradientUnits="userSpaceOnUse"><stop offset="0" style="stop-color:#fff;stop-opacity:.2"/><stop offset="1" style="stop-color:#fff"/></linearGradient><path d="M13.642 12.927c-.838.903-.38 4.142.364 5.112 1.04 1.354 5.592 2.592 7.353 1.594.976-.552 2.06-3.77 2.06-3.77h.889s1.084 3.22 2.06 3.77c1.762.997 6.313-.24 7.353-1.594.744-.972 1.201-4.206.365-5.112-1.016-1.095-19.43-1.095-20.444 0z" style="opacity:.8;fill:url(#h)"/><path d="M19.584 20.083c-2.114 0-4.858-.967-5.644-1.99-.759-.989-1.237-4.28-.359-5.228.544-.585 5.555-.847 10.28-.847 4.727 0 9.74.262 10.284.847.876.95.398 4.239-.358 5.228-.787 1.023-3.529 1.99-5.645 1.99-.767 0-1.377-.125-1.814-.373-.93-.525-1.922-3.306-2.08-3.76h-.77c-.158.454-1.149 3.235-2.08 3.76-.436.248-1.046.373-1.814.373zm4.277-7.89c-5.46 0-9.733.335-10.16.795-.814.877-.341 4.07.37 4.995.76.99 3.44 1.925 5.514 1.925.728 0 1.328-.122 1.735-.352.936-.53 2.01-3.691 2.02-3.723l.021-.058h1.006l.02.058c.01.032 1.084 3.194 2.02 3.723.407.23 1.007.352 1.735.352 2.075 0 4.755-.936 5.513-1.925.71-.925 1.182-4.117.37-4.996-.426-.46-4.701-.794-10.164-.794z" style="fill:#fff"/><path d="M25.727 19.379s-1.228-2.603-1.459-3.084a.424.424 0 0 0-.394-.252c-.148.01-.325.065-.416.252-.23.48-1.458 3.084-1.458 3.084-.062.13-.588-.067-.528-.195 0 0 1.229-2.605 1.461-3.086.163-.34.532-.56.94-.56h.003c.404.002.756.215.92.56.232.48 1.46 3.086 1.46 3.086.06.128-.482.292-.53.195z" style="fill:#f5f5f5"/></svg>