<svg xmlns="http://www.w3.org/2000/svg" xml:space="preserve" style="enable-background:new 0 0 64 64" viewBox="0 0 64 64"><path d="M35.153 9.26c-.286-2.269 2.35-3.39.733-5.287-2.803 1.202-2.385 3.389-.733 5.287z" style="fill:#d1a936"/><linearGradient id="a" x1="-757.433" x2="-763.3" y1="14.461" y2="14.461" gradientTransform="translate(801.101)" gradientUnits="userSpaceOnUse"><stop offset=".307" style="stop-color:#ebc199"/><stop offset=".519" style="stop-color:#e7bd94"/><stop offset=".756" style="stop-color:#dcb087"/><stop offset="1" style="stop-color:#c99b71"/></linearGradient><path d="M37.801 15.743c.856-.387 1.007.98 1.007 1.429 0 1.425 2.086.682 4.817-1.611-.18-.658.043-2.55.043-2.55-1.25-3.872-3.073-1.61-5.867 2.732z" style="fill:url(#a)"/><path d="M35.212 5.686c-.268.746-.953 2.234-.377 3.257.258.458-.25 1.541-.845 2.197-.259.285-.337.653-.18.866.24.325.648.143.828.39.294.4-.059.652-.058.827 0 0 1.032.176.435 1.095.105.104.329.06.176.808-.1.494.384 1.174 1.017 1.024 4.002-.948 5.325-1.61 5.685-4.345.577-4.386 1.605-9.04-6.681-6.119z" style="fill:#ebc199"/><path d="M34.58 13.223c-.069.49.895.863 1.576.34-1.071.17-1.3-.436-1.576-.34z" style="fill:#c99b71"/><path d="M35.017 13.75c-.243.174-.229.435-.002.568.467-.11.932-.258 1.141-.755-.534.282-1.139.187-1.139.187zm-1.267-1.867c.094.574 1.793.823 1.717-.042-.224.811-1.778-.333-1.717.042z" style="fill:#c99b71"/><path d="M36.798 9.72c-.324.521-1.077.643-1.077.643-.266-.233-.293-.803-.22-1.114.389-.061 1.297.47 1.297.47z" style="fill:#fff"/><linearGradient id="b" x1="-1424.705" x2="-1424.705" y1="-72.583" y2="-73.853" gradientTransform="matrix(.5738 -.061 .1057 .9944 860.888 -4.367)" gradientUnits="userSpaceOnUse"><stop offset="0" style="stop-color:#a6694a"/><stop offset="1" style="stop-color:#4f2a1e"/></linearGradient><path d="M35.39 9.794c.07.798.617.74.533-.057-.079-.74-.622-.968-.533.057z" style="fill:url(#b)"/><path d="M35.456 9.764c.04.376.255.353.215-.023-.037-.348-.252-.325-.215.023z" style="fill:#1a1626"/><path d="M35.584 9.59c.02.188.126.176.107-.01-.019-.174-.126-.163-.107.01z" style="fill:#ab968c"/><path d="M36.798 9.72c-.455-.492-.98-.691-1.346-.676-.072.169-.036.238-.036.238s.326-.105 1.382.438z" style="fill:#c99b71"/><path d="M36.762 8.611c-.425-.373-1.182-.664-1.889-.343-.101.047.022.47.104.434.544-.243 1.086-.164 1.768.236.079.046.101-.252.017-.327z" style="fill:#ab8c57"/><path d="M45.757 5.73c-.995-2.27-2.679-3.498-5.945-3.715-2.647-.176-4.948 1.17-5.51 2.867-.786 2.365 3.06 2.534 4.18 4.595 0 0 .59-1.067-.242-2.956 1.74 2.172 2.697 2.957 3.644 3.316.495 1.817.508 3.637.201 5.156.72-.209 1.363-.666 1.887-1.27-.01.347-.027.725-.054 1.149 2.083-1.57 3.185-6.067 1.839-9.142z" style="fill:#e6c465"/><path d="M45.572 5.82c-.919-2.302-2.494-3.588-5.76-3.804-2.647-.177-4.99 1.257-5.292 2.759-.281 1.39.32 1.806 3.411 3.609 0 0-.081-2.285-1.612-3.554 3.19 1.401 3.37 3.3 5.369 4.115 2.264.922 1.585 2.815 1.505 4.523 1.456-1.363 1.647-3.878 1.647-3.878s.194 1.752-.19 3.756c1.514-1.703 1.837-5.236.922-7.525z" style="fill:#f2d785"/><path d="M41.913 8.243c-1.217.268-1.502 2.957-.565 3.522.132.08.807.14 1.137-.523.185-.368.876-.75.947-1.465.093-.916-.31-1.8-1.519-1.534z" style="fill:#ebc199"/><path d="M41.994 8.74c-.307.108-.587.461-.66.994.512-.134.562.858.113 1.053.036.116.078.234.13.357.373-.49.895-.388 1.22-1.086.294-.63-.038-1.587-.803-1.319z" style="fill:#c99b71"/><path d="M45.517 7.892c-1.305-6.254-6.492-5.6-6.492-5.6s4.254.95 6.492 5.6z" style="fill:#fae29b"/><path d="M43.974 8.243c-1.707-5.379-6.365-5.511-6.365-5.511s3.498 1.927 6.365 5.511zM35.92 6.827c-.802-2.155-.432-3.288-.432-3.288s-1.587 1.31.431 3.288zm5.656.674c-1.99-2.604-4.152-3.89-4.152-3.89s.538 1.974 4.152 3.89z" style="fill:#fae29b"/><path d="M41.367 32.75s-3.047-3.103-7.885-1.892c1.775-5.883 3.104-11.196 5.326-13.686.408 1.61 3.41-1.486 4.817-1.611 5.164 4.289-2.055 10.466-2.258 17.19z" style="fill:#ff7a00"/><path d="M51.739 19.495c-1.056 4.44-3.447 14.305-4.343 19.62-.093.556-1.553 1.182-1.87.715-2.914-4.305 4.595-21.97 4.595-21.97.655-.427 1.897.461 1.618 1.635z" style="fill:#e81c27"/><path d="M5.808 50.554s-.51.32-.12.432c4.956 1.408 10.665 1.621 10.665 1.621.217-.228.07-.523.07-.523l-10.615-1.53z" style="fill:#6e8189"/><path d="M13.615 48.351c-4.684.327-7.703.856-7.807 2.204 6.116 1.443 10.616 1.529 10.616 1.529 1.1-2.584-.688-3.537-2.81-3.733z" style="fill:#99a8ae"/><path d="M8.703 48.92c.87.937 1.49 1.137 1.59.514.591.472.955.13.974-.24.647.32.91-.26.162-.956-.43-.369-2.959.43-2.726.682z" style="fill:#1a1626"/><path d="M42.459 34.193s-2.875-6.865-7.748-5.1c-9.282 1.503-16.352 3.032-17.17 3.657-1.395 1.067-4.893 10.818-6.813 15.46 2.781.71 5.963 3.725 6.266 2.339 1.756-8.074 4.316-12.324 4.316-12.324 9.965-1.063 17.188 2.603 21.149-4.032z" style="fill:#2b4f87"/><path d="M45.379 41.131h1.467v1.746h-1.467z" style="fill:#4e5e67"/><path d="M27.33 55.353V53.76s-9.26.196-20.088-1.556c-.086 1.648 1.787 1.947 2.472 2.064C18.64 55.8 27.33 55.353 27.33 55.353z" style="fill:#1a1626"/><path d="M23.039 26.992h-1.086s-.34-1.793 0-2.133c.193-.193.894-.193 1.086 0 .341.34 0 2.133 0 2.133zm-.541 1.192-.953 2.279s-.307-.525-4.584-1.307c-.268-.048-.235-.783.035-.82 2.605-.357 5.502-.152 5.502-.152z" style="fill:#4e5e67"/><linearGradient id="c" x1="30.035" x2="32.474" y1="44.686" y2="44.686" gradientUnits="userSpaceOnUse"><stop offset="0" style="stop-color:#5b666e"/><stop offset=".215" style="stop-color:#566069"/><stop offset=".491" style="stop-color:#4a5059"/><stop offset=".798" style="stop-color:#343640"/><stop offset="1" style="stop-color:#23212b"/></linearGradient><path d="M30.035 42.796h2.44v3.781h-2.44z" style="fill:url(#c)"/><linearGradient id="d" x1="25.312" x2="28.503" y1="45.093" y2="45.093" gradientUnits="userSpaceOnUse"><stop offset="0" style="stop-color:#5b666e"/><stop offset=".215" style="stop-color:#566069"/><stop offset=".491" style="stop-color:#4a5059"/><stop offset=".798" style="stop-color:#343640"/><stop offset="1" style="stop-color:#23212b"/></linearGradient><path d="M28.503 47.39h-1.596l-1.595-4.594h1.595z" style="fill:url(#d)"/><linearGradient id="e" x1="37.129" x2="43.253" y1="44.218" y2="44.218" gradientUnits="userSpaceOnUse"><stop offset="0" style="stop-color:#5b666e"/><stop offset=".215" style="stop-color:#566069"/><stop offset=".491" style="stop-color:#4a5059"/><stop offset=".798" style="stop-color:#343640"/><stop offset="1" style="stop-color:#23212b"/></linearGradient><path d="M37.129 42.69h6.124v3.056h-6.124z" style="fill:url(#e)"/><path d="M16.707 54.17v-1.65L5.006 50.85s-.082 1.125.386 1.352c2.66 1.283 11.315 1.967 11.315 1.967z" style="fill:#1a1626"/><linearGradient id="f" x1="35.05" x2="35.05" y1="57.447" y2="44.218" gradientUnits="userSpaceOnUse"><stop offset="0" style="stop-color:#3b4248"/><stop offset=".282" style="stop-color:#445057"/><stop offset=".64" style="stop-color:#4c5a63"/><stop offset="1" style="stop-color:#4e5e67"/></linearGradient><path d="M49.743 56.822c-5.697.65-22.56 2-30.302-3.632-.965-.703-1.14-2.098-.374-3.04 5.015-6.16 24.97-7.132 29.825-4.704 1.58.79 2.316 6.065 2.61 9.061.113 1.159-.672 2.191-1.759 2.315z" style="fill:url(#f)"/><path d="M18.07 55.597h.238v5.162h-.238z" style="fill:#4e5e67"/><path d="M15.607 58.058h5.162v.238h-5.162z" style="fill:#4e5e67"/><path d="m16.447 60.088-.168-.17 3.65-3.649.168.166z" style="fill:#4e5e67"/><path d="M18.069 55.596h.238v5.164h-.238z" style="fill:#4e5e67" transform="rotate(-45.001 18.187 58.178)"/><path d="M18.154 61.082a2.908 2.908 0 0 1-2.87-2.938 2.907 2.907 0 0 1 2.938-2.869 2.907 2.907 0 0 1 2.87 2.938 2.907 2.907 0 0 1-2.938 2.869zm.06-5.082a2.177 2.177 0 1 0-.053 4.357A2.177 2.177 0 0 0 18.216 56z" style="fill:#1a1626"/><path d="M18.142 62a3.828 3.828 0 0 1-3.775-3.868 3.828 3.828 0 0 1 3.867-3.777c2.105.028 3.8 1.76 3.775 3.867S20.25 62.025 18.142 62zm.08-6.688a2.868 2.868 0 0 0-2.9 2.832 2.87 2.87 0 0 0 2.832 2.9 2.871 2.871 0 0 0 2.9-2.831 2.869 2.869 0 0 0-2.832-2.9z" style="fill:#b3c2c6"/><path d="m19.207 52.83-1.666 5.348h1.296l4.166-5.348z" style="fill:#1a1626"/><path d="M18.18 58.94a.764.764 0 0 1-.755-.77.766.766 0 0 1 .772-.756c.42.006.758.351.754.773a.764.764 0 0 1-.772.752z" style="fill:#b3c2c6"/><path d="M55.058 55.597h.238v5.162h-.238z" style="fill:#4e5e67"/><path d="M52.597 58.058h5.162v.238h-5.162z" style="fill:#4e5e67"/><path d="m56.92 60.088.168-.17-3.65-3.649-.169.166z" style="fill:#4e5e67"/><path d="M52.596 58.059h5.164v.238h-5.164z" style="fill:#4e5e67" transform="rotate(-45.001 55.179 58.179)"/><path d="M52.275 58.213a2.907 2.907 0 0 1 2.87-2.938 2.907 2.907 0 0 1 2.937 2.87 2.908 2.908 0 0 1-2.87 2.937 2.907 2.907 0 0 1-2.937-2.87zm.727-.01a2.177 2.177 0 1 0 4.354-.049 2.177 2.177 0 0 0-4.354.049z" style="fill:#1a1626"/><path d="M51.357 58.222a3.828 3.828 0 0 1 3.776-3.867A3.828 3.828 0 0 1 59 58.133 3.828 3.828 0 0 1 55.224 62a3.827 3.827 0 0 1-3.867-3.778zm.955-.01a2.871 2.871 0 0 0 2.9 2.833 2.87 2.87 0 0 0 2.833-2.9 2.868 2.868 0 0 0-5.733.068z" style="fill:#b3c2c6"/><path d="m55.826 58.177-1.24-3.982a2.505 2.505 0 0 0-1.818-1.693l-4.3-1.012-.262 2.76s3.969.715 4.383 1.28l1.94 2.647h1.297z" style="fill:#1a1626"/><path d="M54.416 58.187a.766.766 0 0 1 .754-.773.766.766 0 0 1 .771.756.764.764 0 0 1-1.525.017z" style="fill:#b3c2c6"/><linearGradient id="g" x1="45.582" x2="51.431" y1="15.175" y2="15.175" gradientUnits="userSpaceOnUse"><stop offset="0" style="stop-color:#23212b"/><stop offset=".314" style="stop-color:#32333c"/><stop offset=".939" style="stop-color:#576169"/><stop offset="1" style="stop-color:#5b666e"/></linearGradient><path d="M50.458 19.445c-.683 1.009-3.734.37-4.376-.67-1.024-1.656-.419-7.107 1.296-8.027 1.31-.703 3.404-.397 3.91 1.357.442 1.54-.23 6.455-.83 7.34z" style="fill:url(#g)"/><linearGradient id="h" x1="170.704" x2="180.784" y1="67.522" y2="69.303" gradientTransform="rotate(-10.021 -113.075 790.524)" gradientUnits="userSpaceOnUse"><stop offset="0" style="stop-color:#23212b"/><stop offset=".314" style="stop-color:#32333c"/><stop offset=".939" style="stop-color:#576169"/><stop offset="1" style="stop-color:#5b666e"/></linearGradient><path d="M45.527 39.83c-.179.83-4.658.622-4.779-.307-.798-6.059 1.06-13.027 4.63-19.57 1.057-1.936 5.791-2.689 5.4-1.101-.49 1.99-3.233 11.611-5.251 20.978z" style="fill:url(#h)"/><path d="M44.506 43.346h-22.02a1.02 1.02 0 0 1-1.022-1.021V39.83h24.063v2.495a1.02 1.02 0 0 1-1.02 1.02z" style="fill:#e81c27"/><linearGradient id="i" x1="34.496" x2="34.496" y1="54.699" y2="51.183" gradientUnits="userSpaceOnUse"><stop offset="0" style="stop-color:#23212b"/><stop offset=".314" style="stop-color:#32333c"/><stop offset=".939" style="stop-color:#576169"/><stop offset="1" style="stop-color:#5b666e"/></linearGradient><path d="M49.02 54.699H19.971a1.758 1.758 0 1 1 0-3.516h29.05a1.758 1.758 0 0 1 0 3.516z" style="fill:url(#i)"/><path d="M46.697 40.664h.432v2.682h-.432z" style="fill:#e81c27"/><linearGradient id="j" x1="30.279" x2="30.279" y1="41.431" y2="35.723" gradientUnits="userSpaceOnUse"><stop offset="0" style="stop-color:#23212b"/><stop offset=".314" style="stop-color:#32333c"/><stop offset=".939" style="stop-color:#576169"/><stop offset="1" style="stop-color:#5b666e"/></linearGradient><path d="M40.837 41.431H19.798c-2.093 0-1.181-6.197 3.907-5.447 11.04 1.627 12.687.809 16.332-.234 1.697-.486 2.564 5.681.8 5.681z" style="fill:url(#j)"/><path d="m40.837 31.27 1.622 10.162h-1.622l-1.582-10.065z" style="fill:#6e8189"/><path d="M40.668 33.531c-1.68.838-2.143-1.795-3.276-1.96-3.908-.575-11.914-1.005-15.531-.86-1.053.04-.654-2.203.387-2.342 7.127-.943 15.22.215 19.972 1.16.508.102.147 1.303-.527 1.217-.072 1.908-.234 2.389-1.025 2.785z" style="fill:#99a8ae"/><path d="M40.837 32.275c0 .864-1.292.864-1.292 0 0-.863 1.292-.863 1.292 0zm1.071 22.424a8.667 8.667 0 0 0-8.67-8.672c-4.781-.002-8.664 3.887-8.668 8.672h17.338z" style="fill:#1a1626"/><path d="M40.543 54.695A7.302 7.302 0 0 1 33.24 62a7.304 7.304 0 0 1-7.305-7.305 7.303 7.303 0 0 1 7.305-7.305 7.302 7.302 0 0 1 7.303 7.305z" style="fill:#b3c2c6"/><path d="M33.24 49.64a5.055 5.055 0 0 0 0 10.11 5.053 5.053 0 0 0 5.05-5.055 5.05 5.05 0 0 0-5.05-5.055zm-3.684 6.303a3.942 3.942 0 0 1-.207-1.248c0-.44.076-.857.207-1.252l2.168 1.252-2.168 1.248zm2.926 2.568a3.899 3.899 0 0 1-2.164-1.252l2.164-1.248v2.5zm0-5.132-2.164-1.246a3.872 3.872 0 0 1 2.164-1.254v2.5zm1.516-2.5c.855.17 1.61.62 2.164 1.254l-2.164 1.246v-2.5zm0 7.632v-2.503l2.164 1.252a3.9 3.9 0 0 1-2.164 1.251zm.76-3.816 2.164-1.25c.132.393.209.81.209 1.25 0 .434-.077.857-.21 1.248l-2.163-1.248z" style="fill:#1a1626"/><path d="M34.152 54.693a.912.912 0 1 1-1.826 0 .914.914 0 1 1 1.826 0z" style="fill:#4e5e67"/><path d="m23.191 25.348-.23-.543c.972-.377 1.402 1.123 2.562 1.588 1.5.6 6.328-.715 8.96-.96 1.077-.845 2.517-2.835 3.452-3.458l2.494 3.5c-1.363 1.228-3.97 2.928-4.884 3.137-2.155.49-6.334-.315-10.036.32-.64.11-2.095.246-2.753-.033-.907-.385-1.76-1.502-1.446-2.196-.795-1.709 1.473-.652 1.881-1.355z" style="fill:#d9b18d"/><path d="M22.064 27.069s-.67-.028-.754-.366c.25.188.754.366.754.366zm.168.919s-.762-.056-.844-.394c.25.185.844.394.844.394zm.436.623s-.69.024-.772-.314c.25.188.772.314.772.314z" style="fill:#c99b71"/><path d="M40.004 18.643c2.09-2.426 5.806-.674 4.375 1.935-1.512 2.756-1.92 3.44-4.668 5.918-1.563-.976-2.832-3.77-2.832-3.77.978-1.396 1.931-2.698 3.125-4.083z" style="fill:#ed6a00"/></svg>