<svg xmlns="http://www.w3.org/2000/svg" xml:space="preserve" style="enable-background:new 0 0 64 64" viewBox="0 0 64 64"><linearGradient id="a" x1="284.651" x2="278.151" y1="234.176" y2="234.176" gradientTransform="rotate(56.246 361.576 -87.642)" gradientUnits="userSpaceOnUse"><stop offset=".307" style="stop-color:#ffc940"/><stop offset=".528" style="stop-color:#fdc43d"/><stop offset=".775" style="stop-color:#f8b735"/><stop offset="1" style="stop-color:#f0a429"/></linearGradient><path d="M46.431 22.637c.864.538.414 2.208.01 2.479-1.285.858.149 1.67 3.861 2.75.485-.558 2.126-1.586 2.126-1.586 2.738-3.461-.399-3.741-5.997-3.643z" style="fill:url(#a)"/><path d="M53.896 14.061c-.83.211-2.684.573-3.258 1.704-.258.506-1.534.706-2.48.57-.41-.06-.789.092-.886.36-.148.41.26.665.146.975-.184.504-.622.34-.778.447 0 0 .46 1.027-.723 1.048-.031.156.143.33-.62.644-.504.208-.826 1.05-.312 1.525 3.25 3.002 4.636 3.785 7.31 2.458 4.286-2.128 9.19-4.092 1.601-9.73z" style="fill:#ffc940"/><path d="M46.64 18.117c-.481.233-.239 1.319.64 1.612-.795-.855-.389-1.424-.64-1.612z" style="fill:#f0a429"/><path d="M46.428 18.825c-.302-.113-.528.057-.51.34.378.35.789.677 1.361.564-.574-.307-.851-.904-.851-.904zm.919-2.258c-.46.43.334 2.098 1.066 1.508-.863.29-.767-1.788-1.066-1.508z" style="fill:#f0a429"/><path d="M51.116 17.985c-.663.026-1.223-.574-1.223-.574.05-.378.545-.745.868-.868.289.311.355 1.442.355 1.442z" style="fill:#fff"/><linearGradient id="b" x1="583.989" x2="583.989" y1="741.074" y2="739.701" gradientTransform="matrix(.3703 .4425 -.7669 .6417 401.995 -716.596)" gradientUnits="userSpaceOnUse"><stop offset="0" style="stop-color:#a6694a"/><stop offset="1" style="stop-color:#4f2a1e"/></linearGradient><path d="M50.206 16.773c-.675.543-.295.997.37.442.617-.516.497-1.139-.37-.442z" style="fill:url(#b)"/><path d="M50.272 16.814c-.313.262-.164.44.15.178.29-.243.141-.42-.15-.178z" style="fill:#1a1626"/><path d="M50.504 16.824c-.156.13-.081.219.075.088.145-.12.07-.21-.075-.088z" style="fill:#ab968c"/><path d="M51.116 17.985c.169-.702.033-1.291-.2-1.609-.194.038-.235.112-.235.112s.29.227.435 1.497z" style="fill:#f0a429"/><path d="M52.09 17.285c.082-.604-.111-1.455-.823-1.893-.103-.063-.41.303-.328.354.545.34.798.87.847 1.72.006.1.288-.06.304-.18z" style="fill:#bb7c0a"/><path d="M58.925 25.377c1.324-1.207 1.798-2.41 1.798-2.41 1.202-1.176 1.394-3.225-1.01-6.809-2.484-3.704-5.483-3.907-6.23-1.995-.079.203.983 2.35 2.411 3.34 0 0-.73.535-1.933.897-.741.223-.316 1.602-1.098 2.353-1.34 1.288-.034 1.506.815 2.132 1.651 1.522-2.076 2.856-2.31 3.734 1.442.614 4.523 1.522 7.556-1.242z" style="fill:#ffb80d"/><path d="M52.964 26.706c1.453.061 2.755-.728 2.755-.728s-2.028.565-3.272.082c1.874-.18 2.582-1.126 2.582-1.126s-.736.525-2.218.609c.743-.655 2.521-2.111 1.243-2.101-.424 2.222-4.31 2.486-2.686 3.177 1.166.496 3.401 1.185 5.817-.029 0 0-2.044.905-4.22.116zm4.034-8.038-.497-.458s-1.174.31-2.287 2.167c1.538-1.741 2.784-1.709 2.784-1.709zm1.567 1.351-.422-.423s-1.396.48-2.22 2.592c1.255-2.028 2.642-2.17 2.642-2.17zm.845.859.304.384s.024.847-1.417 1.899c1.149-1.324 1.114-2.283 1.114-2.283zm-.32-.534s-1.171-1.882-.966-5.004c-.645 2.936.316 4.437.316 4.437l.65.567zm-2.088-1.891s-1.333-2.527-1.222-5.057c-.637 2.331.446 4.384.446 4.384l.776.673zm3.105 3.163-.247-.278s.498-.693.522-2.316c.343 1.567-.275 2.594-.275 2.594z" style="fill:#f9a307"/><path d="M51.282 23.308c.001.16.298.847 1.086.765.437-.044 1.13.27 1.817-.07.885-.43-2.918-1.834-2.904-.695z" style="fill:#f0a429"/><path d="M54.788 21.782c-.928-.918-3.528.339-3.514 1.478.002.16.327.787 1.115.705.437-.044 1.173.348 1.862.01.884-.432 1.46-1.28.537-2.193z" style="fill:#ffc940"/><path d="M60.722 22.967c-2.047-3.974-6.458-5.17-7.239-8.804 1.326 3.43 6.418 5.326 7.24 8.804z" style="fill:#f9a307"/><path d="M57.146 17.83s-.564-1.537-.417-3.893c-.877 2.422.417 3.892.417 3.892zm2.914 4.361s-.455.936-1.312 2.166c1.608-.896 1.312-2.166 1.312-2.166zm-5.097-.936s.666-1.138 2.305-1.947c-2.126.162-2.305 1.947-2.305 1.947zm3.844-.417s-1.065.651-2.016 2.187c1.722-.833 2.016-2.187 2.016-2.187zm.829-.558s.117-1.65-.493-3.332c-.232 1.945.493 3.333.493 3.333zm1.304-.428s-.058.967-.21 1.984c.705-.729.21-1.983.21-1.983zm-5.473-3.249s-.763-1.259-.889-3.482c-.618 2.495.89 3.482.89 3.482z" style="fill:#ffca25"/><path d="M54.365 22.082c-.28-.204-.766-.233-1.294.029.424.367-.45 1.017-.893.742a3.987 3.987 0 0 0-.248.332c.666.027.88.548 1.707.407.748-.127 1.423-1.003.728-1.51z" style="fill:#f0a429"/><path d="M57.376 24.484s-.03-1.127-.28-1.029c-1.044.4-3.804.43-3.804.43s.625-3.219 3.09-5.219c.211-.172-.564-.732-.832-.691-1.617.248-3.545 5.847-3.545 5.847s-3.045.165-5.672-1.27c2.18 4.118 11.043 1.932 11.043 1.932z" style="fill:#302c3b"/><path d="M61.218 16.26c-1.81-3.746-6.183-5.319-9.765-3.51-.987.496 2.234 3.91 3.547 6.625 1.195 2.475 1.792 7.55 3.007 6.938 3.582-1.805 5.022-6.307 3.211-10.053z" style="fill:#e81c27"/><path d="m32.683 12.51 1.744-10.508H15.513l5.262 36.191 2.162-10.091 12.452-13.356z" style="fill:#916858"/><path d="m23.892 2.002-3.117 16.24 2.716 1.215-3.316 11.967 3.717 1-3.78 13.658-2.933 5.133-.734 5.271 4.03 3.508.423 2.006H2V2.002z" style="fill:#6b4d40"/><path d="m2.425 51.736 4.139 2.643 5.144 2.166 4.815-.215 3.953 3.664-9.145-1.914-5.08-2.748zm12.168-19.281L2.425 29.549l17.979 1.055 3.488 1.82z" style="fill:#9e7666"/><path d="M11.27 31.662 6.06 46.84 2.634 29.549zm6.5.793-2.706 9.848-.471-9.848zM6.251 55.332l-2.154 5.424-1.672-9.02zm5.08 2.748-.595 3.043-1.994-4.443zM3.93 16.822l7.84 8.666 3.01-5.369zm-.294-14.82 3.65 3.89.534 6.878 5.644-3.625 2.98-7.143z" style="fill:#543d32"/><path d="m3.93 16.822 11.165 1.918 5.728-.752 3.975 2.073-4.434-.497-5.584.555z" style="fill:#9e7666"/><path d="m24.798 11.326 9.95.957.642 2.463z" style="fill:#6b4d40"/><path d="m21.384 22.814-1.02-3.25 4.344.36-3.15 6.51z" style="fill:#543d32"/><path d="M33.913 2.002 40.969 2l-5.05 2.738-2.79 5.07-1.015-5.591z" style="fill:#6b4d40"/><path d="M34.54 29.102c-1.252-.69-5.465 3.814-9.74 6.771-.258.178.951 2.523 1.22 2.365 3.448-1.992 5.086-1.308 6.94-3.361.281.594 1.035 1.26 1.414 2.133.264.601 4.73-3.399 4.219-3.897-2.73-2.658-2.954-3.406-4.053-4.011zm8.56-8.723c-.789-1.854-2.886-4.72-3.855-6.533-.527-.989-3.682-2.555-4.527-2.52-.676.033-3.762 1.586-3.334 2.23 2.035-.98 2.36-.76 2.691-.632.856.326 1.492 1.158-.85 1.654-.406.088-.5.607.413.46 1.46-.233 1.396-.556 2.43-.702.7-.1 1.144.394 1.396.916 1.156 2.383 1.11 4.996 2.453 7.023 2.115 3.194 1.684 4.97 3.957 6.307.482.281 3.53-1.201 3.408-1.684-.537-2.152-3.396-4.685-4.182-6.52z" style="fill:#f5bb51"/><path d="M25.14 35.637c-.819-.657-1.797-4.108-2.739-3.772-1.261 3.31 0 3.35 1.165 6.895.171.525 2.244.748 2.455-.522l-.881-2.601z" style="fill:#3ab0a2"/><path d="M40.014 34.156c-.228-.77-1.77-1.89-1.77-1.89s-2.567 2.922-4.224 4.406c0 0 .871 1.127.887 2.406.027 2.18 5.738-2.785 5.107-4.922z" style="fill:#25a898"/><path d="M39.255 37.283 25.915 2.002h1.537l13.42 35.533c-.043.125-2.234 1.666-1.617-.252z" style="fill:#e81c27"/><path d="M39.733 24.828c-3.87-.707-5.035-.473-6.627-.686-1.088-1.212-4.91-1.546-6.154-3.464-.77-2.084-3.338-2.385-3.611-2.42-.613-.08-2.54.164-2.592.64-.068.616 2.084.63 2.63 1.084.493.412.677 1.29 1.532 1.854.938.617 6.49 6.056 7.213 6.437.8.424 2.436.42 6.105.961.711.106 2.21-4.277 1.504-4.406zM17.763 55.27c2.431-4.41 2.986-7.797 4.76-9.538 1.273-1.248 4.027-2.992 5.857-4.449.595-.474 4.447 4.035 3.841 4.502-1.382 1.069-4.671 2.111-6.306 2.899-1.158 3-3.348 3.31-4.936 5.902-.175.287-3.386.992-3.216.684z" style="fill:#f5bb51"/><path d="M17.763 55.27c-.98.847-4.555 2.23-4.092 3.164 3.588.908 3.617-.067 7.475-1.327.548-.18.662-1.5-.166-2.521l-3.217.684zm21.675-30.668-1.771 4.69c1.422.067 2.896.97 2.896.97s-1.469 4.092-2.219 5.113c-1.624 2.219-7.226 3.172-10.318 5.861-.11.944 3.696 5.08 3.696 5.08 1.962-1.06 5.753-1.459 8.214-1.627 6.381-.437 3.994-6.83 10.332-16.421.662-1.006-3.396-3.25-4.558-3.34-1.68-.131-6.272-.326-6.272-.326z" style="fill:#3ab0a2"/><path d="M35.62 45.172c-.06-.154-1.412-3.503-1.504-7.206 0 0-.057-.361.181-.603.314-.318 1.17-.73 1.615-.762.399-.028.543.262.543.262.173 1.99.67 4.055.904 4.998l3.627-2.108c-.59-.678-1.623-1.877-2.874-4.097 0 0-.15-.445-.13-.597.055-.423.462-1.235.782-1.517.35-.308.631-.28.631-.28.022.036 2.241 3.785 5.74 6.601 0 0 .364.293.301.629-.089.469-.424 1.41-.755 1.754-.283.295-.656.151-.656.151l-1.006-.712-4.955 2.622c.034.124.113.385.163.524 0 0 .008.29-.382.538-.356.227-1.264.306-1.677.215-.457-.101-.548-.412-.548-.412z" style="fill:#e81c27"/><path d="M39.122 33.89s2.21 3.592 5.824 6.5c-.176.858-.674 1.569-.674 1.569l-1.215-.86-5.568 2.946s.084.432.233.84c-.78.199-1.553.199-1.553.199s-1.461-3.68-1.553-7.336c.53-.438 1.418-.662 1.418-.662.252 2.896 1.008 5.537 1.008 5.537l4.732-2.75s-1.52-1.5-3.31-4.678c.252-.888.658-1.304.658-1.304z" style="fill:#302c3b"/><path d="M23.646 19.139c-1.797-.897-2.668-.496-2.668-.496s.902-.13 2.668.496zm.562-.43c-1.281-.648-1.965-.406-1.965-.406s.59-.024 1.965.406z" style="fill:#f0a429"/></svg>