<svg xmlns="http://www.w3.org/2000/svg" xml:space="preserve" viewBox="0 0 64 64"><path fill="#F9B700" d="M48.68 55.076c0 .617 3.269.617 3.269 0-.001-2.491-3.269-2.491-3.269 0z"/><path fill="#F59E01" d="M45.689 56.964c0 .763 9.249.763 9.249 0 0-3.088-9.249-3.088-9.249 0zm0 6.465c0 .762 9.249.762 9.249 0 0-3.086-9.249-3.086-9.249 0z"/><path fill="#F59E01" d="M57.734 60.534c8.024 4.02 3.276-8.477-2.39-3.068-4.808 2.292.904 7.329 2.39 3.068zm-1.833-2.37c3.28-3.127 6.984 2.62 2.904 2.054 1.318-1.977-2.373-2.524-1.9-.733-1.021-.623-2.256.702-1.088 1.542-1.377-.219-1.724-2.001.084-2.863z"/><path fill="#F9B700" d="M56.61 57.264c-5.728-2.929-8.584.492-17.967-2.614-.822.46-2.385.539-1.264 1.864 8.787-1.142 10.92 11.817 19.231.75z"/><path fill="#AB5C10" d="M38.801 54.958c-.104-.205-1.624.566-1.52.772.423.828 1.945.057 1.52-.772z"/><linearGradient id="a" x1="6.132" x2="56.88" y1="41.664" y2="41.664" gradientUnits="userSpaceOnUse"><stop offset="0" style="stop-color:#00a7c7"/><stop offset=".205" style="stop-color:#00a0c5"/><stop offset=".492" style="stop-color:#008ec1"/><stop offset=".827" style="stop-color:#0070ba"/><stop offset="1" style="stop-color:#005eb5"/></linearGradient><path fill="url(#a)" d="M33.732 35.834c-2.302 9.448-9.989 12.356-12.241 6.188-2.752-.876-11.712-.878-14.472 0-5.539 14.592 16.247 24.988 26.58.536 8.638-20.434 24.533-8.735 6.315 2.246-10.655 6.42-5.993 9.644-1.427 11.083-4.38-3.713-1.906-5.777 3.525-8.198 35.572-15.861-3.2-32.701-8.28-11.855z"/><path fill="#B30BAD" d="M20.912 39.747c0 2.844-13.315 2.844-13.315 0 0 0-.112-5.601-1.925-8.89h17.165c-1.815 3.289-1.925 8.89-1.925 8.89z"/><path fill="#F9B700" d="M21.491 42.022c0 2.844-7.235 4.701-7.235 4.701S7.02 44.866 7.02 42.022c.707-2.299.577-2.275.577-2.275 3.88 1.983 9.438 1.983 13.315 0 0 0-.102.577.579 2.275z"/><linearGradient id="b" x1="13.382" x2="39.696" y1="10.355" y2="10.355" gradientUnits="userSpaceOnUse"><stop offset=".085" style="stop-color:#012a4a"/><stop offset=".746" style="stop-color:#015799"/></linearGradient><path fill="url(#b)" d="M39.696 19.93C24.029 17.503 31.161 4.013 21.229.38c-6.356-2.325-10.059 6.665-6.402 9.814 10.017-6.823 6.407 14.813 24.869 9.736z"/><linearGradient id="c" x1="14.516" x2="34.666" y1="11.558" y2="11.558" gradientUnits="userSpaceOnUse"><stop offset="0" style="stop-color:#012a4a"/><stop offset=".362" style="stop-color:#013a66"/><stop offset=".757" style="stop-color:#01487e"/><stop offset="1" style="stop-color:#014d87"/></linearGradient><path fill="url(#c)" d="M34.666 21.54C21.828 18.139 27.468 4.067 20.445 1.768c-5.233-1.715-7.604 5.796-4.627 8.564 9.707-5.373.766 12.425 18.848 11.208z"/><path fill="#F59E01" d="M13.864 2.474c1.143-3.215 7.707-.9 6.564 2.316-.246.694-6.853-1.508-6.564-2.316z"/><path fill="#00A7C7" d="M17.141 17.143c-.778-.65-4.999-.65-5.772 0-.109 3.842-.417 3.544-5.905 4.866 0 2.807 8.79 6.382 8.79 6.382s8.789-3.575 8.789-6.382c-5.489-1.322-5.793-1.025-5.902-4.866z"/><path fill="#00859E" d="M15.075 24.734c-.46.479-.822 1.57-.822 1.57s-.357-1.091-.822-1.57c.822 2.454.624 3.559.624 3.559h.399s-.201-1.259.621-3.559z"/><path fill="#B30BAD" d="M7.013 33.146h14.479c.456-3.341 1.604-6.39 4.499-6.727 1.049-1.29.718-4.771-3.111-4.55-4.761 1.721-2.875 5.433-8.626 5.433-5.754 0-3.864-3.712-8.629-5.433-3.827-.222-4.16 3.26-3.107 4.55 2.894.338 4.042 3.387 4.495 6.727z"/><path fill="#00A7C7" d="M2.596 25.901c.91-1.27 3.25-.115 3.775.756.943 2.15 1.134 5.152 1.619 5.662 3.942-1.043 12.442-.372 11.484 2.13-9.384 1.414-12.151 1.66-14.012 1.592-.634-.021-1.962-4.082-2.866-10.14z"/><path fill="#00859E" d="M7.99 32.319c3.942-1.043 12.442-.372 11.484 2.13 0 0-2.281.464-4.332.638-2.239-1.788-5.861-2.713-7.152-2.768z"/><path fill="#00A7C7" d="M25.906 25.901c-.91-1.27-3.247-.115-3.772.756-.946 2.15-.749 4.461-1.234 4.969-6.646-.936-11.882-2.05-12.909.693 4.581-.701 8.379 3.226 15.052 3.722.633.048 1.962-4.082 2.863-10.14z"/><path fill="#D47706" d="M10.213 30.732c-.538.152-.772 1.227-.285 1.548.488.318 4.317 1.506 4.66 1.394-.508-.621.053-2.658 1.296-2.765-.249-.391-3.853-.695-5.671-.177z"/><path fill="#F9B700" d="M15.19 31.22c-1.848-.371-4.597-.235-5.338-.191a1.244 1.244 0 0 0-.19.664c1.276.031 3.591.24 4.886.511.128-.382.348-.736.642-.984z"/><path fill="#D47706" d="M20.912 39.747a12.77 12.77 0 0 1-1.714.704c.05 1.329.207 2.671.481 4.006 1.037-.688 1.812-1.508 1.812-2.435-.681-1.698-.579-2.275-.579-2.275zm-11.597.704c-.599-.2-1.179-.43-1.719-.704 0 0 .13-.023-.577 2.275 0 .927.774 1.747 1.813 2.438.273-1.338.431-2.68.483-4.009z"/><path fill="#0FB4D4" d="M6.84 8.876c1.148.138 1.975 3.962 1.255 4.973-.103.142-.692.367-1.132-.525-.243-.494-.943-.904-1.159-1.924-.281-1.303-.107-2.664 1.036-2.524zm14.823 0c-1.146.138-1.976 3.962-1.254 4.973.101.142.693.367 1.13-.525.245-.493.944-.903 1.162-1.923.278-1.304.105-2.665-1.038-2.525z"/><path fill="#00859E" d="M6.871 9.609c.299.092.625.548.804 1.302-1.047-.223-.785 1.511.123 1.546a11.19 11.19 0 0 1-.04.542c-.439-.634-.885-.38-1.324-1.323-.398-.848-.304-2.298.437-2.067zm13.959 1.3c.178-.752.502-1.208.802-1.3.742-.233.837 1.219.439 2.066-.441.943-.886.689-1.325 1.323a7.102 7.102 0 0 1-.039-.544c.897-.041 1.157-1.756.123-1.545z"/><path fill="#0FB4D4" d="M14.251 1.52c4.972 0 7.368 4.031 7.068 9.215-.063 1.044-.354 2.546-.713 3.833-.745 2.677-4.679 5.373-6.355 5.373-1.674 0-5.609-2.696-6.354-5.373-.36-1.287-.651-2.789-.712-3.833-.299-5.184 2.094-9.215 7.066-9.215z"/><path fill="#006DAE" d="M14.253 15.732c1.164-.511 1.174-.021 2.972.1-.674.763-1.172 1.744-2.972 1.744-2.067 0-2.414-1.113-2.976-1.744 1.802-.121 1.809-.61 2.976-.1z"/><path fill="#FFF" d="M16.685 16.021c-1.174 1.217-3.706 1.2-4.867 0 1.81.195 3.059.195 4.867 0z"/><path fill="#014D87" d="M8.97 9.011c1.077-.642 3.018-.721 3.783-.283.163.088.119.553-.021.492-1.095-.452-2.761-.476-3.788.05-.135.068-.139-.166.026-.259zm10.565 0c-1.08-.642-3.018-.721-3.786-.283-.161.088-.117.553.023.492 1.095-.452 2.758-.476 3.785.05.139.068.141-.166-.022-.259z"/><path fill="#00859E" d="M13.134 14.086c.119-.081.397.046 1.119.046.721 0 .998-.127 1.118-.046.14.101-.086.548-1.118.548-1.033 0-1.262-.447-1.119-.548z"/><path fill="#FFF" d="M13.146 10.953c.042.329-.183.719-.802 1.008-.391.188-1.207.404-2.283-.048-.48-.202-.949-.831-.908-1.179.582-1.093 3.448-1.252 3.993.219z"/><linearGradient id="d" x1="-426.718" x2="-426.718" y1="480.43" y2="480.772" gradientTransform="matrix(6.5701 0 0 -6.5701 2814.78 3168.528)" gradientUnits="userSpaceOnUse"><stop offset="0" style="stop-color:#74717d"/><stop offset="1" style="stop-color:#28272e"/></linearGradient><circle cx="11.202" cy="10.932" r="1.121" fill="url(#d)"/><path fill="#1A1626" d="M10.64 10.911c0 .777 1.126.777 1.126 0 0-.719-1.126-.719-1.126 0z"/><path fill="#9F9AAB" d="M10.468 10.597c0 .327.473.327.473 0-.001-.3-.473-.3-.473 0z"/><path fill="#012A4A" d="M13.15 10.997c-.456-1.461-3.571-1.246-3.997-.263.158-1.258 3.609-1.591 3.997.263z"/><path fill="#FFF" d="M15.358 10.953c-.044.329.182.719.797 1.008.396.188 1.212.404 2.285-.048.483-.202.952-.831.908-1.179-.581-1.093-3.446-1.252-3.99.219z"/><linearGradient id="e" x1="-428.492" x2="-428.492" y1="480.43" y2="480.772" gradientTransform="matrix(6.5701 0 0 -6.5701 2832.511 3168.528)" gradientUnits="userSpaceOnUse"><stop offset="0" style="stop-color:#74717d"/><stop offset="1" style="stop-color:#28272e"/></linearGradient><circle cx="17.277" cy="10.932" r="1.121" fill="url(#e)"/><path fill="#1A1626" d="M16.714 10.911c0 .777 1.126.777 1.126 0 0-.719-1.126-.719-1.126 0z"/><path fill="#9F9AAB" d="M16.543 10.597c0 .327.473.327.473 0 0-.3-.473-.3-.473 0z"/><path fill="#012A4A" d="M15.354 10.997c.457-1.461 3.57-1.253 3.995-.263-.158-1.258-3.608-1.591-3.995.263z"/><linearGradient id="f" x1="-1132.789" x2="-1132.789" y1="11.424" y2=".496" gradientTransform="matrix(-1 0 0 1 -1118.44 0)" gradientUnits="userSpaceOnUse"><stop offset="0" style="stop-color:#012a4a"/><stop offset=".362" style="stop-color:#013a66"/><stop offset=".757" style="stop-color:#01487e"/><stop offset="1" style="stop-color:#014d87"/></linearGradient><path fill="url(#f)" d="M14.268.496c3.001 0 4.499 1.365 4.803 2.011 2.45.854 3.986 4.742 2.201 8.917-.401-3.263-.929-4.229-3.691-6.827-3.609 2.875-9.152 2.309-10.313 6.827C5.241 5.821 8.38.496 14.268.496z"/><path fill="#012A4A" d="M17.58 4.597c2.437 1.71 3.895 4.083 3.691 6.827-.474-3.063-1.464-4.423-3.691-6.827z"/><path fill="#012A4A" d="M19.07 2.507C16.503 7.63 8.235 5.826 7.267 11.424c1.64-5.144 9.879-3.331 11.803-8.917z"/></svg>