<svg xmlns="http://www.w3.org/2000/svg" xml:space="preserve" style="enable-background:new 0 0 64 64" viewBox="0 0 64 64"><linearGradient id="a" x1="48.43" x2="43.859" y1="7.074" y2="10.681" gradientTransform="matrix(1 0 0 -1 0 66)" gradientUnits="userSpaceOnUse"><stop offset="0" style="stop-color:#ff9500"/><stop offset=".155" style="stop-color:#ffa000"/><stop offset=".487" style="stop-color:#ffb100"/><stop offset=".732" style="stop-color:#ffb700"/></linearGradient><path d="M45.732 59.996c-1.675.68-3.038.11-.888-3.02 0 0 .535-.75.666-2.17.293-3.12 6.329 1.65 4.916 1.93-2.827.56-3.301 2.08-4.694 3.26z" style="fill:url(#a)"/><linearGradient id="b" x1="-1536.512" x2="-1535.581" y1="1454.291" y2="1454.604" gradientTransform="scale(6.7714 -6.7714) rotate(71.416 253.094 1795.755)" gradientUnits="userSpaceOnUse"><stop offset=".127" style="stop-color:#f80"/><stop offset=".861" style="stop-color:#fa0"/></linearGradient><path d="M44.904 56.886c.636.97.111 2.23-.676 2.98.535-.07 1.06-.16 1.504.13-1.19.93-2.634 2.07-4.572 2.82l.777-4.69c1.312 0 2.12-.07 2.968-1.24z" style="fill:url(#b)"/><linearGradient id="c" x1="-1521.559" x2="-1520.466" y1="1461.202" y2="1461.202" gradientTransform="scale(7.947 -7.947) rotate(71.416 263.81 1788.36)" gradientUnits="userSpaceOnUse"><stop offset="0" style="stop-color:#ff9500"/><stop offset=".155" style="stop-color:#ffa000"/><stop offset=".487" style="stop-color:#ffb100"/><stop offset=".732" style="stop-color:#ffb700"/></linearGradient><path d="M42.583 58.096s-.121.7-.636 1.04c1.504.56 1.322 2.06-.293 2.51.677.18.646.66.646.66-1.271.62-2.806 1.14-4.734 1.43l1.656-6.09c1.19.39 2.341.55 3.361.45z" style="fill:url(#c)"/><linearGradient id="d" x1="-1514.136" x2="-1513.304" y1="1464.315" y2="1464.595" gradientTransform="scale(8.6652 -8.6652) rotate(71.416 268.866 1784.684)" gradientUnits="userSpaceOnUse"><stop offset=".127" style="stop-color:#f80"/><stop offset=".861" style="stop-color:#fa0"/></linearGradient><path d="M40.776 58.026c.323.71-.242 1.62-1.19 1.87 1.624 1 .12 2.73-1.404 2.8.444.39.364.87.364.87-1.434.29-3.1.46-5.087.43 0 0 1.342-5.5 4.915-6.65.818.33 1.625.56 2.402.68z" style="fill:url(#d)"/><linearGradient id="e" x1="-1509.183" x2="-1508.108" y1="1466.973" y2="1466.973" gradientTransform="scale(9.2813 -9.2813) rotate(71.416 272.506 1782.238)" gradientUnits="userSpaceOnUse"><stop offset="0" style="stop-color:#ff9500"/><stop offset=".155" style="stop-color:#ffa000"/><stop offset=".487" style="stop-color:#ffb100"/><stop offset=".732" style="stop-color:#ffb700"/></linearGradient><path d="M38.828 57.526s-.333.92-1.504 1.04c1.464.62.475 2.43-1.13 2.41 1.01 1.34-.323 2.37-1.423 2.2.202.46-.132.81-.132.81a34.7 34.7 0 0 1-4.3-.17 22.81 22.81 0 0 1-.867-.11l6.227-7.84c.99.72 2.06 1.28 3.13 1.66z" style="fill:url(#e)"/><linearGradient id="f" x1="-1504.951" x2="-1504.006" y1="1468.591" y2="1468.909" gradientTransform="scale(9.819 -9.819) rotate(71.416 275.303 1780.179)" gradientUnits="userSpaceOnUse"><stop offset=".127" style="stop-color:#f80"/><stop offset=".861" style="stop-color:#fa0"/></linearGradient><path d="M36.77 56.566c-.344.29-.707.52-1.152.64 1.06 1.7-.807 2.56-2.2 2.63 1.615 1.4.575 2.47-1.15 2.53.686.74.07 1.61.07 1.61-.646-.03-1.302-.07-2.008-.14-.707-.07-1.393-.18-2.07-.33-2.735-2.23 2.716-9.3 5.996-8.81.777.73 1.625 1.36 2.513 1.87z" style="fill:url(#f)"/><linearGradient id="g" x1="-1503.444" x2="-1502.335" y1="1469.567" y2="1469.567" gradientTransform="scale(10.0485 -10.0485) rotate(71.415 276.343 1779.36)" gradientUnits="userSpaceOnUse"><stop offset="0" style="stop-color:#ff9500"/><stop offset=".155" style="stop-color:#ffa000"/><stop offset=".487" style="stop-color:#ffb100"/><stop offset=".732" style="stop-color:#ffb700"/></linearGradient><path d="M35.104 55.416c-.152 1.53-1.716 2.02-3.008 2 1.746 1.62-.252 2.47-1.817 2.42 1.373 1.97-1.02 2.24-2.412 2.04.535.48.928 1 .817 1.7-1.786-.33-3.462-.9-5.006-1.67 3.866-8.32 10.184-7.62 10.184-7.62.394.42.808.79 1.242 1.13z" style="fill:url(#g)"/><linearGradient id="h" x1="-1496.956" x2="-1496.022" y1="1472.311" y2="1472.625" gradientTransform="scale(11.0884 -11.0884) rotate(71.416 280.886 1776.372)" gradientUnits="userSpaceOnUse"><stop offset=".127" style="stop-color:#f80"/><stop offset=".861" style="stop-color:#fa0"/></linearGradient><path d="M34.054 54.486c-.676.78-1.514 1.13-2.523 1.19.464 1.74-1.787 2.01-2.917 1.92 1.241 1.99-1.04 2.35-2.483 2.09.797 1.37.262 2.34-1.272 2.39.07.15.131.3.171.45a19.285 19.285 0 0 1-3.875-2.11c2.644-6.71 11.072-8.28 11.072-8.28.515.86 1.14 1.65 1.827 2.35z" style="fill:url(#h)"/><linearGradient id="i" x1="-1491.529" x2="-1490.358" y1="1474.949" y2="1474.949" gradientTransform="scale(12.159 -12.159) rotate(71.415 284.796 1773.835)" gradientUnits="userSpaceOnUse"><stop offset="0" style="stop-color:#ff9500"/><stop offset=".155" style="stop-color:#ffa000"/><stop offset=".487" style="stop-color:#ffb100"/><stop offset=".732" style="stop-color:#ffb700"/></linearGradient><path d="M32.802 53.005a2.43 2.43 0 0 1-1.22.24c.443 1.84-1.212 2.23-2.555 1.71.394 2.49-2.341 2.39-3.855 1.71 1.04 2.041-.212 3.281-2.19 2.401.201.82.393 1.73-.071 2.44a20.616 20.616 0 0 1-3.523-2.48c3.018-8.3 11.84-9.12 11.84-9.12.192.51.716 1.8 1.574 3.1z" style="fill:url(#i)"/><linearGradient id="j" x1="-1488.374" x2="-1487.466" y1="1476.141" y2="1476.446" gradientTransform="scale(12.8443 -12.8443) rotate(71.416 286.857 1772.403)" gradientUnits="userSpaceOnUse"><stop offset=".127" style="stop-color:#f80"/><stop offset=".861" style="stop-color:#fa0"/></linearGradient><path d="M31.672 50.955c-.363 1.15-1.08 1.52-2.291 1.12-.06 2.24-1.837 2.76-3.513 1.78.212 1.99-1.312 2.78-2.947 2.16-.222 1.49-.878 2.701-2.392 1.971.151.66.151 1.31 0 1.96a21.96 21.96 0 0 1-3.402-3.22c4.704-9.101 13.495-8.761 13.495-8.761.303 1.07.606 1.9 1.05 2.99z" style="fill:url(#j)"/><linearGradient id="k" x1="-1485.35" x2="-1484.173" y1="1477.7" y2="1477.7" gradientTransform="scale(13.6439 -13.6439) rotate(71.416 289.048 1771.021)" gradientUnits="userSpaceOnUse"><stop offset="0" style="stop-color:#ff9500"/><stop offset=".155" style="stop-color:#ffa000"/><stop offset=".487" style="stop-color:#ffb100"/><stop offset=".732" style="stop-color:#ffb700"/></linearGradient><path d="M31.066 49.395c-.747.24-1.241.35-1.746-.32-.09 2.31-1.352 3.33-3.361 2.26-.454 1.81-1.353 2.38-2.907 1.38-.313 2.01-1.18 3.06-3.068 2.11-.02 1.5-.313 2.56-1.747 3.111-.767-.76-1.292-1.41-1.907-2.17 1.484-6.34 7.267-11.882 13.737-10.111.273 1.31.606 2.46 1 3.74z" style="fill:url(#k)"/><linearGradient id="l" x1="-1482.232" x2="-1481.331" y1="1478.985" y2="1479.288" gradientTransform="scale(14.5365 -14.5365) rotate(71.416 291.173 1769.678)" gradientUnits="userSpaceOnUse"><stop offset=".127" style="stop-color:#f80"/><stop offset=".861" style="stop-color:#fa0"/></linearGradient><path d="M30.34 46.845c-.889 1.14-1.827 1.87-2.968.74-.818 2.23-2.14 3.13-3.745 1.09-.535 2.4-1.837 3.75-3.704 1.69-.04 1.83-.464 4.12-2.614 3.49.05.92-.01 1.75-.414 2.6-1.12-1.23-1.897-2.5-2.675-3.91 2.2-7.03 8.7-10.27 15.373-9.26.252 1.21.474 2.36.747 3.56z" style="fill:url(#l)"/><linearGradient id="m" x1="-1478.604" x2="-1477.454" y1="1480.804" y2="1480.804" gradientTransform="scale(15.7553 -15.7553) rotate(71.416 293.823 1767.998)" gradientUnits="userSpaceOnUse"><stop offset="0" style="stop-color:#ff9500"/><stop offset=".155" style="stop-color:#ffa000"/><stop offset=".487" style="stop-color:#ffb100"/><stop offset=".732" style="stop-color:#ffb700"/></linearGradient><path d="M29.764 44.084c-.414-.26-.727-.5-1.04-.89.213 2.9-1.857 3.44-3.825 1.78-.454 2.73-2.13 3.341-4.168 1.69.05 1.881-.535 3.771-2.604 3.271-.313 1.88-1.151 3.42-3.049 2.37.131.62.142 1.18.07 1.81-.968-1.44-1.523-2.73-2.088-4.24 3.875-6.6 8.478-9.36 15.725-9.49.434 1.23.757 2.28.98 3.7z" style="fill:url(#m)"/><linearGradient id="n" x1="-1481.401" x2="-1480.547" y1="1479.267" y2="1479.555" gradientTransform="scale(14.7658 -14.7658) rotate(71.416 291.438 1769.35)" gradientUnits="userSpaceOnUse"><stop offset=".127" style="stop-color:#f80"/><stop offset=".861" style="stop-color:#fa0"/></linearGradient><path d="M29.098 41.304c-.797 1.4-2.019 1.67-3.3.83-.394 2.59-2.403 2.37-4.24 1.41-.222 1.91-1.261 3.05-3.099 2.41-.222 1.8-.999 3.171-2.785 2.221.06 1.64-.293 2.95-1.948 3.35-.838-1.7-1.212-3.38-1.494-5.25 3.543-6.04 9.69-9.201 16.18-6.73 0 0 .434.85.686 1.76z" style="fill:url(#n)"/><linearGradient id="o" x1="-1478.672" x2="-1477.563" y1="1480.797" y2="1480.797" gradientTransform="scale(15.7175 -15.7175) rotate(71.416 293.547 1768.132)" gradientUnits="userSpaceOnUse"><stop offset="0" style="stop-color:#ff9500"/><stop offset=".155" style="stop-color:#ffa000"/><stop offset=".487" style="stop-color:#ffb100"/><stop offset=".732" style="stop-color:#ffb700"/></linearGradient><path d="M28.523 39.774c-.646.08-1.07.04-1.504-.48-.97 2.33-2.483 2.51-4.502 1.48-.807 1.93-2.16 2.57-4.007 1.75-.05 1.77-.828 2.87-2.503 2.02-.142 1.95-.939 3.771-2.907 2.48.03.73-.03 1.371-.303 2.051-.636-2.05-.717-3.71-.737-5.67 2.978-5.841 8.822-7.671 14.747-6.571.656.96 1.231 1.82 1.716 2.94z" style="fill:url(#o)"/><linearGradient id="p" x1="11.758" x2="22.092" y1="20.085" y2="31.633" gradientTransform="matrix(1 0 0 -1 0 66)" gradientUnits="userSpaceOnUse"><stop offset=".127" style="stop-color:#f80"/><stop offset=".861" style="stop-color:#fa0"/></linearGradient><path d="m21.69 33.873 2.805 3.91s-1.514 3.151-3.724 1.691c-.434 2.15-3.079 2.85-4.593 1.21-.302 2.01-1.292 3.3-2.705 1.28-.171 1.16-.444 2.15-1.383 2.87-.191-2.29.112-4.38.808-6.56 3.22-3.36 8.791-4.4 8.791-4.4z" style="fill:url(#p)"/><linearGradient id="q" x1="11.912" x2="22.408" y1="22.846" y2="31.327" gradientTransform="matrix(1 0 0 -1 0 66)" gradientUnits="userSpaceOnUse"><stop offset="0" style="stop-color:#ff9500"/><stop offset=".155" style="stop-color:#ffa000"/><stop offset=".487" style="stop-color:#ffb100"/><stop offset=".732" style="stop-color:#ffb700"/></linearGradient><path d="M21.861 36.254c-1.242 1.82-3.644 4.09-4.673.98-.596 1.93-1.767 4.19-2.958 1.34-.292 1.17-.635 2.29-1.938 2.15.273-1.95.97-4.15 1.868-5.19 3.088-3.56 10.76-1.44 12.657 1.3-1.1 1.78-3.654 1.15-4.956-.58z" style="fill:url(#q)"/><linearGradient id="r" x1="-1462.245" x2="-1461.274" y1="1508.562" y2="1508.409" gradientTransform="rotate(-81.074 -44010.488 -2749.807) scale(27.3194)" gradientUnits="userSpaceOnUse"><stop offset=".139" style="stop-color:#fa0"/><stop offset=".873" style="stop-color:#f80"/></linearGradient><path d="M62.356 31.753c3.513 24.273-8.105 24.013-16.473 25.923-.302.07-.565-.22-.484-.54 2.21-8.661-15.504-9.581-3.755-26.133.232-.33.747-.2.767.21.263 4.98 4.815 7.09 6.632 14.632.1.44.676.45.807.02 2.584-7.941 9.044-7.361 11.699-14.222.161-.42.746-.34.807.11z" style="fill:url(#r)"/><radialGradient id="s" cx="-1463.307" cy="1512.697" r=".895" fx="-1463.302" fy="1512.697" gradientTransform="matrix(3.8993 -25.0747 21.0804 3.3439 -26131.232 -41716.719)" gradientUnits="userSpaceOnUse"><stop offset=".154" style="stop-color:#00e8d9"/><stop offset=".556" style="stop-color:#e469ef"/><stop offset=".572" style="stop-color:#e66edb"/><stop offset=".616" style="stop-color:#ec7aa8"/><stop offset=".663" style="stop-color:#f1857b"/><stop offset=".711" style="stop-color:#f58e55"/><stop offset=".761" style="stop-color:#f99536"/><stop offset=".812" style="stop-color:#fc9b1e"/><stop offset=".867" style="stop-color:#fd9f0d"/><stop offset=".926" style="stop-color:#ffa103"/><stop offset="1" style="stop-color:#ffa200"/></radialGradient><path d="M61.316 32.223c2.817 19.852-4.794 21.663-12.879 23.563-.585.14-1.17-.22-1.342-.82-2.423-8.621-14.424-9.301-4.673-23.753.242 1.71 1.715 2.67 1.907 4.55.798 1.2 2.312 1.87 2.564 3.651.959 1.45 1.817 3.04 2.27 4.98.092.41.607.45.768.06.98-2.35 2.22-3.87 3.553-5.06.848-1.48 2.594-1.94 3.876-2.88.727-1.6 2.856-2.3 3.956-4.29z" style="fill:url(#s)"/><linearGradient id="t" x1="-390.795" x2="-387.852" y1="53.235" y2="72.129" gradientTransform="rotate(-171.152 -168.68 37.249)" gradientUnits="userSpaceOnUse"><stop offset=".005" style="stop-color:#ff8400"/><stop offset=".183" style="stop-color:#ff8302"/><stop offset=".274" style="stop-color:#fe800a"/><stop offset=".344" style="stop-color:#fc7c17"/><stop offset=".405" style="stop-color:#f9752a"/><stop offset=".458" style="stop-color:#f66d43"/><stop offset=".508" style="stop-color:#f26261"/><stop offset=".553" style="stop-color:#ed5585"/><stop offset=".596" style="stop-color:#e847af"/><stop offset=".635" style="stop-color:#e237dc"/><stop offset=".65" style="stop-color:#df30ef"/><stop offset=".681" style="stop-color:#ca3fe9"/><stop offset=".795" style="stop-color:#8471d7"/><stop offset=".889" style="stop-color:#5195c9"/><stop offset=".961" style="stop-color:#31acc0"/><stop offset="1" style="stop-color:#25b4bd"/></linearGradient><path d="M57.36 36.514c3.068 7.06-.787 17.082-9.266 19.122 5.642-3.78 11.285-9.291 9.266-19.122z" style="fill:url(#t)"/><linearGradient id="u" x1="-388.512" x2="-386.019" y1="52.92" y2="68.928" gradientTransform="rotate(-171.152 -168.68 37.249)" gradientUnits="userSpaceOnUse"><stop offset=".005" style="stop-color:#ff8400"/><stop offset=".183" style="stop-color:#ff8302"/><stop offset=".274" style="stop-color:#fe800a"/><stop offset=".344" style="stop-color:#fc7c17"/><stop offset=".405" style="stop-color:#f9752a"/><stop offset=".458" style="stop-color:#f66d43"/><stop offset=".508" style="stop-color:#f26261"/><stop offset=".553" style="stop-color:#ed5585"/><stop offset=".596" style="stop-color:#e847af"/><stop offset=".635" style="stop-color:#e237dc"/><stop offset=".65" style="stop-color:#df30ef"/><stop offset=".681" style="stop-color:#ca3fe9"/><stop offset=".795" style="stop-color:#8471d7"/><stop offset=".889" style="stop-color:#5195c9"/><stop offset=".961" style="stop-color:#31acc0"/><stop offset="1" style="stop-color:#25b4bd"/></linearGradient><path d="M53.494 39.394c1.16 5.69.656 12.571-5.592 16.202 3.19-4.12 5.42-6.681 5.592-16.202z" style="fill:url(#u)"/><linearGradient id="v" x1="-382.59" x2="-379.587" y1="52.321" y2="71.601" gradientTransform="rotate(-171.152 -168.68 37.249)" gradientUnits="userSpaceOnUse"><stop offset=".005" style="stop-color:#ff8400"/><stop offset=".183" style="stop-color:#ff8302"/><stop offset=".274" style="stop-color:#fe800a"/><stop offset=".344" style="stop-color:#fc7c17"/><stop offset=".405" style="stop-color:#f9752a"/><stop offset=".458" style="stop-color:#f66d43"/><stop offset=".508" style="stop-color:#f26261"/><stop offset=".553" style="stop-color:#ed5585"/><stop offset=".596" style="stop-color:#e847af"/><stop offset=".635" style="stop-color:#e237dc"/><stop offset=".65" style="stop-color:#df30ef"/><stop offset=".681" style="stop-color:#ca3fe9"/><stop offset=".795" style="stop-color:#8471d7"/><stop offset=".889" style="stop-color:#5195c9"/><stop offset=".961" style="stop-color:#31acc0"/><stop offset="1" style="stop-color:#25b4bd"/></linearGradient><path d="M44.33 35.764c-5.704 8.28 3.199 14.671 3.138 19.512 1.211-4.41-7.61-12.112-3.139-19.512z" style="fill:url(#v)"/><linearGradient id="w" x1="-384.317" x2="-381.844" y1="52.074" y2="67.954" gradientTransform="rotate(-171.152 -168.68 37.249)" gradientUnits="userSpaceOnUse"><stop offset=".005" style="stop-color:#ff8400"/><stop offset=".183" style="stop-color:#ff8302"/><stop offset=".274" style="stop-color:#fe800a"/><stop offset=".344" style="stop-color:#fc7c17"/><stop offset=".405" style="stop-color:#f9752a"/><stop offset=".458" style="stop-color:#f66d43"/><stop offset=".508" style="stop-color:#f26261"/><stop offset=".553" style="stop-color:#ed5585"/><stop offset=".596" style="stop-color:#e847af"/><stop offset=".635" style="stop-color:#e237dc"/><stop offset=".65" style="stop-color:#df30ef"/><stop offset=".681" style="stop-color:#ca3fe9"/><stop offset=".795" style="stop-color:#8471d7"/><stop offset=".889" style="stop-color:#5195c9"/><stop offset=".961" style="stop-color:#31acc0"/><stop offset="1" style="stop-color:#25b4bd"/></linearGradient><path d="M46.842 39.714c-4.33 8.18 1.555 9.631.808 16.072 2.019-6.16-3.502-6.951-.808-16.072z" style="fill:url(#w)"/><path d="M31.985 20.772c2.372 3.04 3.078 5.23 4.118 5.73 4.35 2.09 6.298 8.882 7.54 9.532 1.06.06 2.765.56 4.047-.36.101-.08.465.13.192.43-.232.25-.818.47-.818.47s1.06-.23 1.666-.66c.161-.11.454.21.212.47-.353.38-1.454.64-1.454.64s1.434-.23 2.15-.47c.192-.06.475.26.101.54-.414.32-1.978.6-1.978.6s1.413-.14 2.331-.27c.182-.03.293.33.081.49-1.675 1.28-5.672.47-5.45 1.56.232 1.15.797 1.36.848 2.23.02.27-.495.43-.636.22-1.262-1.91-3.432-1.93-3.634-3.94-.232-2.13-6.803-5.48-8.307-8.37-2.755-1.851-4.855-4.091-5.955-5.721-.818-3.31 4.724-4.091 4.946-3.12z" style="fill:#916b50"/><linearGradient id="x" x1="5.846" x2="14.3" y1="33.306" y2="33.306" gradientTransform="matrix(1 0 0 -1 0 66)" gradientUnits="userSpaceOnUse"><stop offset=".307" style="stop-color:#916b50"/><stop offset=".559" style="stop-color:#8e684d"/><stop offset=".748" style="stop-color:#845f45"/><stop offset=".915" style="stop-color:#745037"/><stop offset="1" style="stop-color:#69452d"/></linearGradient><path d="M12.363 23.883s-1.585 2.18-2.755 4.6c-1.807 1.76-4.755 5.69-5.27 6.29-.494.59-2.442 1.79-2.603 2.34-.687 2.331-.94 2.491-.556 3.881.293 1.05.596.25.556-.33-.06-.9.595-2.33 1.332-1.92-1.01 1.37-.333 2.33 0 1.79.868-1.38 1.665-2 1.655-3.14 0-.46 1.393-2.18 4.37-3.62 1.807-.88 3.16-2.63 4.058-4.21.848-1.391 2.423-2.371 2.917-3.291-.736-1.73-2.17-1.69-3.704-2.39z" style="fill:url(#x)"/><path d="M32.45 21.342c-.152-1.34-2.13-3.73-5.128-3.73-1.706-.89-5.925-1.75-10.467-.33-1.312.2-3.26.26-3.472 2.82-1.323 3.34-1.242 4.68-.515 5.25-.848 2.27 1.251 6.571 1.292 10.082-2.423 6.45 13.121 4.7 11.052.51-1.292-3.39.434-3.83 2.826-10.801 1.454.99 4.714-1.11 4.411-3.8z" style="fill:#916b50"/><path d="M27.311 17.612c-.444-.23-1.06-.47-1.806-.67-2.594 5.47-11.386 4.96-7.419-.03-.414.11-.828.23-1.241.38-1.323.47-2.453 1.33-3.473 2.82-2.594 4.18-.827 5.58-.696 5.45-.848 2.27 1.433 6.361 1.474 9.872.454 1.35 6.147 2.85 11.052.51-1.292-3.39.434-3.83 2.826-10.801-1.524-2.21-1.685-5.691-.716-7.531z" style="fill:#ff7a00"/><path d="M15.34 25.823c-2.634.09-3.29-1.18-3.29-1.18.07 1.46 1.484 1.99 3.29 1.18zm11.81-2.141c-1.645 1.18-3.33 2.45-6.4 2.64 3.301.42 5.492-.61 6.4-2.64z" style="fill:#d86100"/><linearGradient id="y" x1="21.059" x2="21.059" y1="46.823" y2="50.365" gradientTransform="matrix(1 0 0 -1 0 66)" gradientUnits="userSpaceOnUse"><stop offset=".235" style="stop-color:#916b50"/><stop offset=".465" style="stop-color:#8c664b"/><stop offset=".75" style="stop-color:#7c573e"/><stop offset="1" style="stop-color:#69452d"/></linearGradient><path d="M17.844 15.632v2.15c0 1.85 6.43 1.85 6.43 0v-2.15h-6.43z" style="fill:url(#y)"/><path d="M14.54 10.032s.2 1.935-.291 3.238c.691-.075.87-.423.87-.423s-.024.906-.375 1.54c.65.108 1.05-.214 1.05-.214s0 .686.05 1.157c1.893-.489 1.78-2.692 1.78-2.692l-3.083-2.606zm13.328 3.238c-.492-1.306-.292-3.238-.292-3.238l-3.08 2.606s-.113 2.203 1.78 2.692c.05-.47.05-1.157.05-1.157s.4.322 1.05.215c-.355-.632-.376-1.541-.376-1.541s.176.348.868.423z" style="fill:#ff4c00"/><path d="M27.507 7.62c-.999.123-1.72 3.465-1.09 4.347.086.122.601.32.983-.459.212-.432.82-.79 1.01-1.681.242-1.14.093-2.326-.903-2.207zm-12.897 0c.998.123 1.72 3.465 1.09 4.347-.086.122-.602.32-.983-.459-.212-.432-.82-.79-1.011-1.681-.242-1.14-.09-2.326.903-2.207z" style="fill:#916b50"/><path d="M27.48 8.261c-.259.084-.545.48-.697 1.14.91-.198.683 1.32-.108 1.35.006.152.018.31.036.474.382-.555.77-.331 1.154-1.157.343-.742.263-2.01-.384-1.807zM15.334 9.397c-.155-.659-.438-1.055-.698-1.136-.644-.202-.727 1.065-.381 1.807.384.823.772.602 1.153 1.157.018-.167.03-.322.036-.477-.784-.036-1.008-1.533-.11-1.35z" style="fill:#69452d"/><path d="M21.058 1.192c-4.326 0-6.41 3.524-6.15 8.053.053.91.307 2.224.62 3.351.647 2.34 3.51 4.696 5.53 4.696 2.022 0 4.881-2.356 5.531-4.696.313-1.127.567-2.439.62-3.35.26-4.53-1.825-8.054-6.15-8.054z" style="fill:#916b50"/><path d="M25.76 7.286c-.99-.524-2.883-.548-3.587-.184-.152.071-.05.566.075.518.984-.387 2.57-.396 3.488.033.123.06.173-.292.024-.367zm-9.403 0c.99-.524 2.883-.548 3.59-.184.151.071.05.566-.075.518-.984-.387-2.567-.396-3.489.033-.125.06-.175-.292-.026-.367z" style="fill:#523c31"/><path d="M22.227 11.833c-.122-.086-.414.048-1.169.048-.754 0-1.043-.134-1.168-.048-.15.104.086.575 1.168.575 1.08 0 1.315-.47 1.17-.575zm-1.169 1.783c-.972-.286-2.415.137-2.415.137.549.6.951 1.374 2.415 1.374 1.676 0 1.962-.88 2.415-1.374 0-.003-1.443-.426-2.415-.137z" style="fill:#69452d"/><path d="M19.007 13.851c1.02.856 3.08.862 4.106 0a58.91 58.91 0 0 1-4.106 0zm1.088-4.779c.036.286-.158.626-.694.88-.343.16-1.053.352-1.989-.042-.417-.176-.826-.727-.79-1.032.507-.954 3-1.094 3.473.194z" style="fill:#fff"/><linearGradient id="z" x1="-1211.528" x2="-1211.528" y1="169.43" y2="169.132" gradientTransform="translate(7978.266 -1103.139) scale(6.5701)" gradientUnits="userSpaceOnUse"><stop offset="0" style="stop-color:#a6694a"/><stop offset="1" style="stop-color:#4f2a1e"/></linearGradient><path d="M18.405 8.073a.98.98 0 1 1 0 1.956.979.979 0 1 1 0-1.956z" style="fill:url(#z)"/><path d="M17.916 9.037c0 .676.98.676.98 0-.002-.63-.98-.63-.98 0z" style="fill:#1a1626"/><path d="M17.767 8.762c0 .283.411.283.411 0-.003-.265-.411-.265-.411 0z" style="fill:#ab968c"/><path d="M20.101 9.111c-.396-1.279-3.11-1.088-3.48-.23.138-1.103 3.14-1.392 3.48.23z" style="fill:#69452d"/><path d="M22.021 9.072c-.035.286.158.626.695.88.343.16 1.053.352 1.989-.042.42-.176.826-.727.79-1.032-.507-.954-3-1.094-3.474.194z" style="fill:#fff"/><linearGradient id="A" x1="-1213.422" x2="-1213.422" y1="169.43" y2="169.132" gradientTransform="translate(7995.996 -1103.139) scale(6.5701)" gradientUnits="userSpaceOnUse"><stop offset="0" style="stop-color:#a6694a"/><stop offset="1" style="stop-color:#4f2a1e"/></linearGradient><path d="M23.691 8.073a.98.98 0 1 1 0 1.962.98.98 0 0 1 0-1.962z" style="fill:url(#A)"/><path d="M23.202 9.037c0 .676.981.676.981 0-.003-.63-.98-.63-.98 0z" style="fill:#1a1626"/><path d="M23.053 8.762c0 .283.411.283.411 0-.002-.265-.411-.265-.411 0z" style="fill:#ab968c"/><path d="M22.015 9.111c.397-1.276 3.107-1.094 3.477-.23-.134-1.103-3.137-1.392-3.477.23z" style="fill:#69452d"/><linearGradient id="B" x1="58.887" x2="58.887" y1="55.849" y2="66" gradientTransform="matrix(1 0 0 -1 -37.828 66)" gradientUnits="userSpaceOnUse"><stop offset="0" style="stop-color:#ff1e00"/><stop offset=".025" style="stop-color:#ff2400"/><stop offset=".153" style="stop-color:#ff3d00"/><stop offset=".295" style="stop-color:#ff5100"/><stop offset=".457" style="stop-color:#ff5f00"/><stop offset=".656" style="stop-color:#ff6800"/><stop offset="1" style="stop-color:#ff6a00"/></linearGradient><path d="M21.121 0c-2.684 0-4.027 1.19-4.3 1.76-3.25.73-4.29 6.1-1.857 8.391.303-2.44.596-4.01 2.251-5.66.97 1.27 2.978 1.98 4.774 1.98a9.828 9.828 0 0 1-1.887-1.75c2.998 1.35 6.359 2.21 7.197 5.43C30.165 5.641 27.773 0 21.12 0z" style="fill:url(#B)"/><path d="M16.811 1.76c-.03 1.5 1.191 3.99 5.158 4.71-3.058.2-6.207-1.62-5.158-4.71z" style="fill:#f24800"/><path d="M16.69 2.58c-.908.64-2.765 3.79-1.736 7.571-2.473-5.72 1.736-7.57 1.736-7.57zm.121-.82s9.095-3.19 11.568 5.63c-2.241-5.38-9.034-6.13-11.568-5.63z" style="fill:#f24800"/><path d="M16.811 1.76c.707 2.51 10.296 2.49 10.467 8.391-.928-4.55-11.89-5.54-10.467-8.39z" style="fill:#f24800"/></svg>