<svg xmlns="http://www.w3.org/2000/svg" xml:space="preserve" style="enable-background:new 0 0 64 64" viewBox="0 0 64 64"><linearGradient id="a" x1="32" x2="32" y1="62" y2="2" gradientUnits="userSpaceOnUse"><stop offset="0" style="stop-color:#ff9500"/><stop offset=".192" style="stop-color:#ffad00"/><stop offset=".545" style="stop-color:#ffd500"/><stop offset=".827" style="stop-color:#ffed00"/><stop offset="1" style="stop-color:#fff600"/></linearGradient><circle cx="32" cy="32" r="30" style="fill:url(#a)"/><path d="M35.11 48H24.89c-2.52 0-2.52-4 0-4H35.1c2.53 0 2.53 4 .01 4z" style="fill:#1a1626"/><ellipse cx="22" cy="29.5" rx="4" ry="4.5" style="fill:#1a1626"/><ellipse cx="42" cy="28.5" rx="4" ry="5.5" style="fill:#1a1626"/><path d="M59.49 31c0 1.33-2 1.33-2 0s2-1.33 2 0z" style="fill:#6e8189"/><path d="M59.49 33c0 1.33-2 1.33-2 0s2-1.33 2 0z" style="fill:#99a8ae"/><path d="M59.49 35c0 1.33-2 1.33-2 0s2-1.33 2 0z" style="fill:#6e8189"/><path d="M59.49 37c0 1.33-2 1.33-2 0s2-1.33 2 0z" style="fill:#99a8ae"/><path d="M59.49 39c0 1.33-2 1.33-2 0s2-1.33 2 0z" style="fill:#6e8189"/><path d="M59.49 41c0 1.33-2 1.33-2 0s2-1.33 2 0z" style="fill:#99a8ae"/><path d="M59.49 43c0 1.33-2 1.33-2 0s2-1.33 2 0z" style="fill:#6e8189"/><path d="M59.49 45c0 1.33-2 1.33-2 0s2-1.33 2 0z" style="fill:#99a8ae"/><path d="M59.49 47c0 1.33-2 1.33-2 0s2-1.33 2 0z" style="fill:#6e8189"/><path d="M59.49 49c0 1.33-2 1.33-2 0s2-1.33 2 0z" style="fill:#99a8ae"/><path d="M59.49 51c0 1.33-2 1.33-2 0s2-1.33 2 0z" style="fill:#6e8189"/><path d="M59.49 53c0 1.33-2 1.33-2 0s2-1.33 2 0z" style="fill:#99a8ae"/><path d="M59.49 55c0 1.33-2 1.33-2 0s2-1.33 2 0z" style="fill:#6e8189"/><path d="M59.49 57c0 1.33-2 1.33-2 0s2-1.33 2 0z" style="fill:#99a8ae"/><path d="M59.49 59c0 1.33-2 1.33-2 0s2-1.33 2 0z" style="fill:#6e8189"/><path d="M59.49 61c0 1.33-2 1.33-2 0s2-1.33 2 0z" style="fill:#99a8ae"/><path d="M59.49 63c0 1.33-2 1.33-2 0s2-1.33 2 0z" style="fill:#6e8189"/><path d="M56.11 31.55c-.13 0-.13-6.09 0-6.09 3.4-.01 3.4 6.09 0 6.09z" style="fill:#445159"/><linearGradient id="b" x1="44.928" x2="44.928" y1="39.954" y2="17.046" gradientUnits="userSpaceOnUse"><stop offset="0" style="stop-color:#fff;stop-opacity:0"/><stop offset="1" style="stop-color:#fff"/></linearGradient><path d="M44.93 39.95c-6.33 0-11.46-5.13-11.46-11.45 0-6.33 5.13-11.45 11.46-11.45 6.32 0 11.46 5.13 11.46 11.45-.01 6.33-5.14 11.45-11.46 11.45z" style="opacity:.8;fill:url(#b)"/><path d="M44.93 16.5c-6.63 0-12 5.37-12 12s5.37 12 12 12c6.62 0 12-5.37 12-12s-5.38-12-12-12zm0 22.91c-6.03 0-10.91-4.88-10.91-10.91s4.88-10.91 10.91-10.91c6.02 0 10.91 4.88 10.91 10.91s-4.89 10.91-10.91 10.91z" style="fill:#4e5e67"/><path d="M41.34 11.37c11.35-.61 6.86 3.89-2.67 5.58-5.38.95-4.8-5.18 2.67-5.58zm-21.1 6.79c7.3-1.64 9.52 4.11 4.08 4.65-9.63.95-15.18-2.17-4.08-4.65z" style="fill:#d69600"/></svg>