<svg xmlns="http://www.w3.org/2000/svg" xml:space="preserve" style="enable-background:new 0 0 64 64" viewBox="0 0 64 64"><linearGradient id="a" x1="360.766" x2="368.468" y1="380.469" y2="383.272" gradientTransform="scale(-1 1) rotate(-66.108 -117.373 521.43)" gradientUnits="userSpaceOnUse"><stop offset=".467" style="stop-color:#b88a6f"/><stop offset=".621" style="stop-color:#b3856a"/><stop offset=".795" style="stop-color:#a6785d"/><stop offset=".977" style="stop-color:#8f6247"/><stop offset="1" style="stop-color:#8c5f44"/></linearGradient><path d="M52.008 26.415s-.891.326-1.95 1.435c-3.967-1.144-4.03-.708-3.725-2.33.126-.671.131-2.276-.738-2.98 8.945-.254 13.12 1.475 6.413 3.875z" style="fill:url(#a)"/><path d="m57.953 26.76-1.348 1.332c.639 5.63-7.01 6.555-1.208 14.462-.938-4.7 6.948-9.561 2.556-15.794z" style="fill:#805837"/><path d="m57.953 26.76-1.348 1.332c.639 5.63-7.01 6.555-1.208 14.462-4.436-7.06 3.596-8.2 2.556-15.794z" style="fill:#6e482a"/><path d="m56.825 27.623-.431.37c.317 5.545-6.8 6.654-.997 14.561-5.226-8.768 1.915-7.848 1.428-14.93z" style="fill:#52351f"/><path d="M58.034 26.667c.883-2.097-3.857-.724-2.112 1.11-.575 1.535 3.929-.326 2.112-1.11z" style="fill:#8e3ed6"/><path d="M53.755 13.403c-.448-.026-2.928.86-3.687 1.883-.579.78-1.705.858-2.657.714-.414-.063-.793.088-.888.359-.146.414.266.674.155.986-.182.51-.623.34-.78.448 0 0 .34 1.132-.849 1.145-.03.158.337.408-.429.722-.505.207-.671.933-.3 1.54.39.638 2.95 3.78 7.31 2.37 1.928-.623 4.482-10.032 2.125-10.167z" style="fill:#b88a6f"/><path d="M45.898 17.793c-.481.232-.23 1.332.656 1.634-.806-.87-.401-1.442-.656-1.634z" style="fill:#a35a3b"/><path d="M45.69 18.507c-.304-.115-.66.145-.64.431.383.357.93.6 1.504.49-.58-.315-.863-.92-.863-.92z" style="fill:#a35a3b"/><path d="M59.262 25.41c3.657-3.538 2.424-7.928.22-10.307-2.419-2.608-5.853-2.82-6.457-1.538-.747 1.587 1.91 3.107-.668 7.244-1.118 1.796 2.565 1.664 2.136 3.852-.257 1.309 2.523 2.922 4.77.749z" style="fill:#805837"/><path d="M46.597 16.23c-.46.432.353 2.124 1.084 1.532-.866.287-.785-1.814-1.084-1.532z" style="fill:#8c5f44"/><path d="M50.398 17.689c-.666.021-1.234-.589-1.234-.589.047-.382.44-.663.778-.92.293.317.456 1.509.456 1.509z" style="fill:#fff"/><linearGradient id="b" x1="452.035" x2="452.035" y1="403.425" y2="402.171" gradientTransform="matrix(.3706 .4423 -.7665 .6423 190.855 -441.932)" gradientUnits="userSpaceOnUse"><stop offset="0" style="stop-color:#a6694a"/><stop offset="1" style="stop-color:#4f2a1e"/></linearGradient><path d="M49.474 16.457c-.664.558-.289 1.007.375.45.617-.519.242-.968-.375-.45z" style="fill:url(#b)"/><path d="M49.54 16.5c-.313.262-.16.443.152.18.29-.244.14-.425-.152-.18z" style="fill:#1a1626"/><path d="M49.774 16.51c-.156.13-.08.22.076.09.144-.121.069-.212-.076-.09z" style="fill:#ab968c"/><path d="M50.398 17.69c.174-.464.044-1.385-.161-1.654-.464.067-.325-.107.161 1.653z" style="fill:#45332c"/><path d="M50.398 17.689c.042-1.313-.515-1.606-.196-2.228-.942.74-.194.801.196 2.228z" style="fill:#1a1626"/><path d="M51.372 16.988c.077-.611-.123-1.473-.842-1.92-.104-.065-.334.272-.251.324.55.346.809.886.865 1.746.006.1.213-.03.228-.15z" style="fill:#5e4533"/><path d="M52.358 20.81c2.915-3.509-.39-5.947.953-7.61-1.758 1.249 1.569 3.718-.953 7.61z" style="fill:#6e482a"/><path d="M53.391 13.32c3.004-.731 8.734 3.594 7.563 8.971 1.794-6.444-4.88-10.43-7.563-8.972z" style="fill:#916643"/><path d="M53.37 14.068c1.889-.367 5.603 2.265 6.451 6.113-.185-5.034-4.994-7.091-6.45-6.113zm.058 1.125s1.435 3.021 2.35 6.447c.613-3.652-2.35-6.447-2.35-6.447z" style="fill:#916643"/><path d="M53.47 14.719c1.493.465 3.088 2.758 4.176 5.312-.418-3.611-2.743-5.567-4.177-5.312zM58.644 28.6c.383 5.356-3.698 6.31-3.625 12.595 1.162-5.526 5.234-8.16 3.625-12.596z" style="fill:#916643"/><path d="M59.263 25.416c1.39-1.352 2.077-2.82 2.267-4.257-.311 1.302-.95 2.712-3.007 4.605 2.623-2.66 1.842-6.855 1.842-6.855s-.158 4.48-2.487 7.101c1.911-3.596-.054-8.006-.054-8.006s.775 4.56-.446 8.121c.51-3.587-1.325-7.56-1.325-7.56s1.116 5.296.587 7.7c-.097-4.768-2.284-6.606-4.279-4.35 0 0 2.174.993 1.84 2.692-.256 1.309-4.658 1.54-2.944 2.269 1.524.647 4.9 1.561 8.006-1.46z" style="fill:#6e482a"/><path d="M51.664 26.207c2.044 1.585 4.1 1.065 4.1 1.065s-1.487.062-4.1-1.065z" style="fill:#52351f"/><path d="M53.008 25.69c1.006 1.416 3.162 1.467 3.162 1.467s-1.862-.604-3.162-1.468zm1.372-.711c.312 1.486 1.992 2.042 1.992 2.042s-1.292-.975-1.993-2.042zm2.234 1.881s-1.324-2.554-1.68-4.78c-.319 2.574 1.68 4.78 1.68 4.78z" style="fill:#52351f"/><path d="M51.164 23.38c.002.17.315.894 1.147.807.461-.047 1.193.283 1.92-.075.932-.456-3.083-1.935-3.067-.732z" style="fill:#8c5f44"/><path d="M54.864 21.766c-.98-.969-3.724.36-3.708 1.564.002.169.346.83 1.178.743.461-.047 1.239.366 1.965.008.933-.456 1.54-1.353.565-2.315z" style="fill:#b88a6f"/><path d="M54.43 22.09c-.298-.221-.81-.261-1.36.009.452.398-.454 1.075-.924.775a4.05 4.05 0 0 0-.254.35c.7.04.934.598 1.8.462.783-.122 1.476-1.044.737-1.595z" style="fill:#8c5f44"/><path d="M57.376 24.484s-.03-1.127-.28-1.029c-1.044.4-3.804.43-3.804.43s.625-3.219 3.09-5.219c.211-.172-.564-.732-.832-.691-1.617.248-3.545 5.847-3.545 5.847s-3.499.108-6.3-1.181c2.832 3.782 11.671 1.843 11.671 1.843z" style="fill:#302c3b"/><path d="M61.218 16.506c-1.81-3.746-6.183-5.319-9.765-3.51-.987.496 2.234 3.91 3.547 6.625 1.195 2.475 1.792 7.55 3.007 6.938 3.582-1.805 5.022-6.307 3.211-10.053z" style="fill:#e81c27"/><path d="m32.683 12.51 1.744-10.508H15.513l5.262 36.191 2.162-10.091L35.39 14.746z" style="fill:#916858"/><path d="m23.892 2.002-3.117 16.24 2.717 1.215-3.317 11.967 3.717 1-3.78 13.658-2.933 5.133-.734 5.271 4.031 3.508.422 2.006H2V2.002z" style="fill:#6b4d40"/><path d="m2.425 51.736 4.139 2.643 5.145 2.166 4.814-.215 3.953 3.664-9.144-1.914-5.08-2.748zm12.168-19.281L2.425 29.549l17.979 1.055 3.488 1.82z" style="fill:#9e7666"/><path d="M11.271 31.662 6.06 46.84 2.634 29.549zm6.5.793-2.707 9.848-.47-9.848zM6.251 55.332l-2.154 5.424-1.672-9.02zm5.081 2.748-.596 3.043-1.994-4.443zM3.93 16.822l7.841 8.666 3.01-5.369zm-.294-14.82 3.65 3.89.534 6.878 5.644-3.625 2.98-7.143z" style="fill:#543d32"/><path d="m3.93 16.822 11.165 1.918 5.729-.752 3.974 2.073-4.433-.497-5.584.555z" style="fill:#9e7666"/><path d="m24.798 11.326 9.951.957.641 2.463z" style="fill:#6b4d40"/><path d="m21.384 22.814-1.02-3.25 4.345.36-3.15 6.51z" style="fill:#543d32"/><path d="M33.913 2.002 40.97 2l-5.05 2.738-2.79 5.07-1.015-5.591z" style="fill:#6b4d40"/><path d="M34.54 29.102c-1.251-.69-5.464 3.814-9.74 6.771-.258.178.951 2.523 1.221 2.365 3.447-1.992 5.086-1.308 6.94-3.361.28.594 1.035 1.26 1.414 2.133.263.601 4.73-3.399 4.218-3.897-2.73-2.658-2.953-3.406-4.053-4.011zm8.561-8.723c-.789-1.854-2.887-4.72-3.855-6.533-.528-.989-3.682-2.555-4.528-2.52-.676.033-3.762 1.586-3.334 2.23 2.035-.98 2.36-.76 2.692-.632.855.326 1.492 1.158-.85 1.654-.406.088-.5.607.412.46 1.461-.233 1.397-.556 2.43-.702.701-.1 1.144.394 1.396.916 1.157 2.383 1.11 4.996 2.453 7.023 2.116 3.194 1.684 4.97 3.957 6.307.483.281 3.53-1.201 3.409-1.684-.537-2.152-3.397-4.685-4.182-6.52z" style="fill:#a3765a"/><path d="M25.14 35.637c-.818-.657-1.797-4.108-2.738-3.772-1.262 3.31 0 3.35 1.164 6.895.172.525 2.244.748 2.455-.522l-.88-2.601z" style="fill:#8e3ed6"/><path d="M40.015 34.156c-.228-.77-1.77-1.89-1.77-1.89s-2.568 2.922-4.224 4.406c0 0 .871 1.127.887 2.406.027 2.18 5.738-2.785 5.107-4.922z" style="fill:#5d1e96"/><path d="M39.255 37.283 25.915 2.002h1.538l13.42 35.533c-.043.125-2.235 1.666-1.618-.252z" style="fill:#e81c27"/><path d="M39.734 24.828c-3.871-.707-5.035-.473-6.627-.686-1.088-1.212-4.91-1.546-6.154-3.464-.77-2.084-3.338-2.385-3.612-2.42-.613-.08-2.539.164-2.592.64-.068.616 2.084.63 2.631 1.084.492.412.676 1.29 1.532 1.854.937.617 6.49 6.056 7.213 6.437.8.424 2.435.42 6.105.961.71.106 2.209-4.277 1.504-4.406zM17.763 55.27c2.432-4.41 2.986-7.797 4.76-9.538 1.273-1.248 4.027-2.992 5.857-4.449.596-.474 4.448 4.035 3.842 4.502-1.383 1.069-4.672 2.111-6.307 2.899-1.158 3-3.347 3.31-4.935 5.902-.176.287-3.387.992-3.217.684z" style="fill:#a3765a"/><path d="M17.763 55.27c-.98.847-4.554 2.23-4.092 3.164 3.588.908 3.618-.067 7.475-1.327.549-.18.662-1.5-.166-2.521l-3.217.684zm21.676-30.668-1.772 4.69c.77.037 1.556.318 2.115.568 0 0-.182 1.505.833 2.286.115.088-1.81 2.602-2.27 3.229-1.625 2.219-7.226 3.172-10.318 5.861-.11.944 3.695 5.08 3.695 5.08 1.963-1.06 5.754-1.459 8.215-1.627 6.38-.437 3.994-6.83 10.332-16.422.662-1.005-3.397-3.25-4.559-3.34-1.68-.13-6.271-.325-6.271-.325z" style="fill:#8e3ed6"/><path d="M23.646 19.139c-1.797-.897-2.668-.496-2.668-.496s.902-.13 2.668.496zm.563-.43c-1.282-.648-1.965-.406-1.965-.406s.59-.024 1.965.406z" style="fill:#8c5f44"/><path d="M35.62 45.172c-.06-.154-1.412-3.503-1.504-7.206 0 0-.057-.361.181-.603.314-.318 1.17-.73 1.615-.762.399-.028.543.262.543.262.173 1.99.67 4.055.904 4.998l3.627-2.108c-.59-.678-1.623-1.877-2.874-4.097 0 0-.15-.445-.13-.597.055-.423.462-1.235.782-1.517.35-.308.631-.28.631-.28.022.036 2.241 3.785 5.74 6.601 0 0 .364.293.301.629-.089.469-.424 1.41-.755 1.754-.283.295-.656.151-.656.151l-1.006-.712-4.955 2.622c.034.124.113.385.163.524 0 0 .008.29-.382.538-.356.227-1.264.306-1.677.215-.457-.101-.548-.412-.548-.412z" style="fill:#e81c27"/><path d="M39.122 33.89s2.21 3.592 5.824 6.5c-.176.858-.674 1.569-.674 1.569l-1.215-.86-5.568 2.946s.084.432.233.84c-.78.199-1.553.199-1.553.199s-1.461-3.68-1.553-7.336c.53-.438 1.418-.662 1.418-.662.252 2.896 1.008 5.537 1.008 5.537l4.732-2.75s-1.52-1.5-3.31-4.678c.252-.888.658-1.304.658-1.304z" style="fill:#302c3b"/></svg>