<svg xmlns="http://www.w3.org/2000/svg" xml:space="preserve" viewBox="0 0 64 64"><path fill="#B51413" d="M15.225 39.442c.238-.037-.359-1.371-.596-1.361-.938 1.639-.949 2.023-.701 1.971.266-.051.789-.541 1.297-.61z"/><path fill="#B51413" d="M14.629 38.081c-.713.715-.85 1.713-.799 2.039.872-.465.706-1.228.799-2.039z"/><path fill="#B51413" d="M13.985 39.114c-.723.293-.863 1.471-.783 1.783.937-.58.736-1.392.783-1.783z"/><path fill="#B51413" d="M13.424 39.673c-.711.336-.859 1.559-.758 1.863.901-.592.725-1.473.758-1.863z"/><path fill="#B51413" d="M12.854 40.312c-.695.383-.715 1.439-.605 1.738.726-.553.593-1.356.605-1.738z"/><path fill="#B51413" d="M12.315 40.985c-.676.43-.617 1.375-.496 1.664.709-.597.506-1.285.496-1.664z"/><path fill="#B51413" d="M11.813 41.667c-.656.469-.656 1.355-.422 1.703.686-.644.453-1.33.422-1.703z"/><path fill="#B51413" d="M11.307 42.394c-.639.518-.451 1.395-.299 1.662.659-.69.35-1.297.299-1.662z"/><path fill="#B51413" d="M10.887 43.097c-.471.508-.244.818-.824 1.223-.297.217.547.404.633.553.558-.833.262-1.419.191-1.776zm5.133-3.174c.258-.1-.482-1.328-.732-1.264-.832 1.826-.879 2.213-.609 2.127.277-.086.808-.68 1.341-.863z"/><path fill="#B51413" d="M15.288 38.659c-.666.854-.766 1.875-.709 2.213.902-.611.691-1.391.709-2.213z"/><path fill="#B51413" d="M14.7 39.819c-.723.402-.846 1.602-.77 1.928.985-.701.744-1.535.77-1.928z"/><path fill="#B51413" d="M14.143 40.462c-.713.42-.867 1.666-.779 1.986.957-.676.763-1.594.779-1.986z"/><path fill="#B51413" d="M13.567 41.171c-.701.438-.75 1.512-.658 1.83.783-.604.654-1.445.658-1.83z"/><path fill="#B51413" d="M13.012 41.894c-.691.459-.684 1.426-.586 1.738.778-.629.594-1.356.586-1.738z"/><path fill="#B51413" d="M12.481 42.606c-.684.479-.758 1.387-.557 1.771.77-.657.573-1.392.557-1.771z"/><path fill="#B51413" d="M11.924 43.351c-.68.506-.59 1.428-.473 1.727.762-.686.495-1.35.473-1.727z"/><path fill="#B51413" d="M11.44 44.06c-.525.492-.342.844-.977 1.199-.332.189.484.498.549.662.703-.838.459-1.484.428-1.861zm4.951-3.764c.055-.314 1.197.383 1.172.68-1.471 1.223-1.797 1.328-1.758 1.002.043-.336.49-1.036.586-1.682z"/><path fill="#B51413" d="M17.563 40.976c-.656.896-1.523 1.15-1.818 1.131.418-1.135 1.113-.999 1.818-1.131z"/><path fill="#B51413" d="M16.635 41.821c-.26.898-1.277 1.203-1.568 1.16.488-1.244 1.232-1.078 1.568-1.16z"/><path fill="#B51413" d="M16.147 42.558c-.277.891-1.328 1.238-1.613 1.182.466-1.21 1.279-1.108 1.613-1.182z"/><path fill="#B51413" d="M15.606 43.325c-.293.879-1.209 1.082-1.492 1.02.424-.996 1.162-.961 1.492-1.02z"/><path fill="#B51413" d="M15.049 44.071c-.313.871-1.141.994-1.422.922.45-.994 1.092-.875 1.422-.922z"/><path fill="#B51413" d="M14.502 44.788c-.334.865-1.105 1.072-1.457.891.475-.987 1.127-.854 1.457-.891z"/><path fill="#B51413" d="M13.928 45.542c-.357.859-1.158.881-1.43.787.501-.984 1.102-.764 1.43-.787z"/><path fill="#B51413" d="M13.375 46.202c-.361.678-.686.51-.914 1.303-.127.412-.486-.496-.635-.551.637-.935 1.221-.738 1.549-.752zm2.264-6.824c0-.281 1.213.244 1.234.518-1.277 1.291-1.604 1.352-1.59 1.059.01-.315.362-.983.356-1.577z"/><path fill="#B51413" d="M16.874 39.896c-.518.916-1.352 1.197-1.637 1.18.289-1.065.959-.972 1.637-1.18z"/><path fill="#B51413" d="M16.075 40.769c-.16.871-1.143 1.188-1.42 1.131.377-1.157 1.094-1.028 1.42-1.131z"/><path fill="#B51413" d="M15.67 41.487c-.197.867-1.221 1.189-1.492 1.111.391-1.117 1.164-1.023 1.492-1.111z"/><path fill="#B51413" d="M15.198 42.228c-.238.85-1.135 1.01-1.402.918.378-.909 1.079-.858 1.402-.918z"/><path fill="#B51413" d="M14.692 42.937c-.279.836-1.094.887-1.354.781.418-.897 1.03-.746 1.354-.781z"/><path fill="#B51413" d="M14.176 43.599c-.318.82-1.074.932-1.398.703.463-.873 1.076-.69 1.398-.703z"/><path fill="#B51413" d="M13.622 44.278c-.363.803-1.131.697-1.377.555.504-.848 1.056-.566 1.377-.555z"/><path fill="#B51413" d="M13.075 44.853c-.373.607-.664.385-.938 1.105-.148.371-.414-.58-.551-.662.639-.748 1.176-.479 1.489-.443zm5.763-1.713c.012-.297 1.252.188 1.264.475-1.383 1.434-1.727 1.516-1.699 1.205.021-.331.416-1.055.435-1.68z"/><path fill="#B51413" d="M20.102 43.614c-.578.994-1.459 1.34-1.756 1.336.344-1.138 1.041-1.076 1.756-1.336z"/><path fill="#B51413" d="M19.233 44.581c-.201.926-1.24 1.314-1.527 1.271.441-1.242 1.183-1.144 1.527-1.271z"/><path fill="#B51413" d="M18.782 45.362c-.24.922-1.32 1.322-1.6 1.252.451-1.197 1.254-1.142 1.6-1.252z"/><path fill="#B51413" d="M18.26 46.169c-.285.91-1.227 1.127-1.502 1.045.434-.979 1.162-.963 1.502-1.045z"/><path fill="#B51413" d="M17.704 46.944c-.328.895-1.176.996-1.443.9.474-.968 1.103-.845 1.443-.9z"/><path fill="#B51413" d="M17.135 47.673c-.363.879-1.152 1.039-1.482.816.517-.943 1.148-.785 1.482-.816z"/><path fill="#B51413" d="M16.53 48.417c-.41.867-1.207.799-1.457.664.56-.924 1.127-.658 1.457-.664z"/><path fill="#B51413" d="M15.94 49.052c-.416.662-.711.445-1.023 1.219-.17.4-.408-.588-.547-.666.695-.827 1.244-.571 1.57-.553zm2.016-6.834c.053-.314 1.197.383 1.17.682-1.463 1.215-1.791 1.32-1.752.994.041-.336.486-1.032.582-1.676z"/><path fill="#B51413" d="M19.125 42.899c-.652.891-1.516 1.143-1.813 1.121.415-1.13 1.11-.99 1.813-1.121z"/><path fill="#B51413" d="M18.202 43.739c-.258.896-1.271 1.199-1.561 1.154.484-1.24 1.227-1.072 1.561-1.154z"/><path fill="#B51413" d="M17.715 44.474c-.273.887-1.322 1.23-1.607 1.174.463-1.206 1.275-1.104 1.607-1.174z"/><path fill="#B51413" d="M17.178 45.237c-.293.877-1.207 1.076-1.49 1.014.422-.992 1.16-.955 1.49-1.014z"/><path fill="#B51413" d="M16.624 45.981c-.311.867-1.139.986-1.418.914.445-.99 1.091-.871 1.418-.914z"/><path fill="#B51413" d="M16.077 46.694c-.328.861-1.1 1.066-1.451.887.47-.984 1.124-.852 1.451-.887z"/><path fill="#B51413" d="M15.504 47.444c-.354.857-1.152.877-1.422.781.497-.98 1.098-.759 1.422-.781z"/><path fill="#B51413" d="M14.956 48.103c-.357.676-.682.506-.91 1.295-.125.41-.484-.496-.633-.551.632-.928 1.216-.733 1.543-.744zm5.728-2.928c.248-.094-.512-1.303-.754-1.242-.758 1.775-.789 2.154-.527 2.074.267-.084.767-.656 1.281-.832z"/><path fill="#B51413" d="M19.93 43.933c-.625.83-.691 1.826-.625 2.156.863-.588.635-1.352.625-2.156z"/><path fill="#B51413" d="M19.391 45.062c-.695.385-.777 1.557-.691 1.877.939-.678.679-1.493.691-1.877z"/><path fill="#B51413" d="M18.868 45.685c-.686.402-.797 1.619-.703 1.934.916-.651.699-1.552.703-1.934z"/><path fill="#B51413" d="M18.327 46.37c-.672.422-.688 1.471-.59 1.781.748-.58.596-1.404.59-1.781z"/><path fill="#B51413" d="M17.805 47.071c-.662.441-.625 1.385-.518 1.691.741-.605.538-1.316.518-1.691z"/><path fill="#B51413" d="M17.309 47.763c-.656.463-.697 1.348-.49 1.725.732-.635.515-1.352.49-1.725z"/><path fill="#B51413" d="M16.786 48.481c-.648.49-.531 1.391-.408 1.686.724-.664.445-1.314.408-1.686z"/><path fill="#B51413" d="M16.334 49.171c-.496.475-.305.82-.916 1.162-.318.184.486.492.557.65.662-.81.402-1.443.359-1.812zm1.862-6.729c.24-.047-.41-1.344-.645-1.322-.887 1.674-.883 2.059-.637 1.994.266-.064.776-.578 1.282-.672z"/><path fill="#B51413" d="M17.551 41.12c-.693.746-.793 1.744-.73 2.068.857-.509.664-1.257.73-2.068z"/><path fill="#B51413" d="M16.94 42.181c-.715.326-.818 1.504-.725 1.811.922-.626.692-1.421.725-1.811z"/><path fill="#B51413" d="M16.395 42.763c-.703.369-.807 1.592-.693 1.887.882-.631.677-1.499.693-1.887z"/><path fill="#B51413" d="M15.844 43.425c-.684.416-.666 1.467-.545 1.756.711-.584.547-1.375.545-1.756z"/><path fill="#B51413" d="M15.327 44.122c-.664.461-.572 1.396-.438 1.676.692-.629.463-1.301.438-1.676z"/><path fill="#B51413" d="M14.848 44.823c-.643.5-.611 1.381-.363 1.713.666-.674.406-1.344.363-1.713z"/><path fill="#B51413" d="M14.366 45.569c-.623.549-.404 1.41-.244 1.664.638-.714.306-1.3.244-1.664z"/><path fill="#B51413" d="M13.967 46.288c-.453.529-.217.828-.783 1.256-.293.232.563.377.654.518.532-.854.211-1.42.129-1.774zm7.653-.144c.238-.035-.359-1.371-.596-1.361-.938 1.639-.949 2.023-.701 1.971.265-.052.791-.542 1.297-.61z"/><path fill="#B51413" d="M21.024 44.782c-.713.715-.85 1.715-.799 2.041.871-.467.707-1.23.799-2.041z"/><path fill="#B51413" d="M20.381 45.817c-.721.291-.867 1.469-.783 1.783.936-.579.736-1.392.783-1.783z"/><path fill="#B51413" d="M19.821 46.374c-.713.338-.859 1.561-.758 1.863.898-.591.725-1.472.758-1.863z"/><path fill="#B51413" d="M19.249 47.013c-.693.383-.715 1.439-.605 1.738.726-.553.593-1.355.605-1.738z"/><path fill="#B51413" d="M18.711 47.688c-.676.43-.619 1.373-.496 1.662.709-.597.506-1.285.496-1.662z"/><path fill="#B51413" d="M18.211 48.366c-.66.471-.658 1.357-.424 1.705.686-.644.452-1.33.424-1.705z"/><path fill="#B51413" d="M17.702 49.095c-.639.52-.451 1.395-.299 1.66.658-.69.349-1.295.299-1.66z"/><path fill="#B51413" d="M17.282 49.796c-.469.51-.242.82-.822 1.225-.297.217.545.406.631.553.56-.833.261-1.419.191-1.778zm5.133-3.029c.256-.096-.49-1.32-.734-1.258-.811 1.795-.854 2.176-.586 2.096.273-.083.794-.663 1.32-.838z"/><path fill="#B51413" d="M21.68 45.509c-.654.836-.744 1.846-.686 2.178.889-.592.676-1.366.686-2.178z"/><path fill="#B51413" d="M21.106 46.647c-.713.391-.822 1.574-.746 1.898.969-.681.724-1.509.746-1.898z"/><path fill="#B51413" d="M20.561 47.278c-.705.404-.846 1.635-.758 1.953.944-.656.746-1.566.758-1.953z"/><path fill="#B51413" d="M19.997 47.972c-.693.422-.732 1.484-.639 1.799.771-.586.639-1.42.639-1.799z"/><path fill="#B51413" d="M19.454 48.679c-.684.445-.666 1.398-.566 1.711.763-.612.573-1.334.566-1.711z"/><path fill="#B51413" d="M18.932 49.376c-.674.467-.738 1.361-.537 1.744.758-.639.555-1.369.537-1.744z"/><path fill="#B51413" d="M18.385 50.104c-.668.494-.57 1.404-.455 1.703.752-.669.483-1.328.455-1.703z"/><path fill="#B51413" d="M17.913 50.802c-.516.479-.328.828-.957 1.172-.326.184.484.498.551.662.689-.821.441-1.463.406-1.834zm5.054-3.813c.045-.303 1.176.41 1.16.697-1.398 1.125-1.715 1.215-1.684.9.032-.319.45-.98.524-1.597z"/><path fill="#B51413" d="M24.127 47.687c-.615.84-1.451 1.055-1.74 1.023.377-1.078 1.057-.92 1.74-1.023z"/><path fill="#B51413" d="M23.247 48.468c-.23.857-1.209 1.115-1.492 1.064.441-1.185 1.167-.998 1.492-1.064z"/><path fill="#B51413" d="M22.79 49.161c-.244.85-1.258 1.146-1.537 1.082.421-1.15 1.214-1.025 1.537-1.082z"/><path fill="#B51413" d="M22.286 49.882c-.262.838-1.148 1.002-1.426.93.387-.946 1.105-.885 1.426-.93z"/><path fill="#B51413" d="M21.764 50.583c-.281.828-1.086.916-1.359.836.41-.941 1.041-.805 1.359-.836z"/><path fill="#B51413" d="M21.249 51.255c-.299.82-1.043.994-1.393.807.436-.934 1.074-.786 1.393-.807z"/><path fill="#B51413" d="M20.711 51.96a1.114 1.114 0 0 1-1.369.709c.461-.932 1.051-.699 1.369-.709z"/><path fill="#B51413" d="M20.19 52.577c-.332.643-.65.469-.854 1.225-.111.393-.484-.496-.631-.555.594-.877 1.169-.668 1.485-.67zm1.9-6.383c.002-.281 1.213.242 1.236.514-1.277 1.293-1.605 1.355-1.592 1.061.011-.313.364-.981.356-1.575z"/><path fill="#B51413" d="M23.327 46.708c-.52.916-1.354 1.199-1.639 1.182.289-1.065.959-.971 1.639-1.182z"/><path fill="#B51413" d="M22.524 47.583c-.156.871-1.141 1.188-1.418 1.131.377-1.156 1.094-1.026 1.418-1.131z"/><path fill="#B51413" d="M22.122 48.302c-.197.865-1.219 1.189-1.49 1.109.388-1.113 1.161-1.023 1.49-1.109z"/><path fill="#B51413" d="M21.651 49.042c-.24.852-1.137 1.008-1.404.918.377-.91 1.078-.856 1.404-.918z"/><path fill="#B51413" d="M21.143 49.751c-.281.834-1.092.887-1.354.781.42-.894 1.032-.746 1.354-.781z"/><path fill="#B51413" d="M20.627 50.413c-.318.82-1.072.932-1.398.703.463-.871 1.076-.689 1.398-.703z"/><path fill="#B51413" d="M20.073 51.091c-.363.805-1.133.699-1.377.559.504-.852 1.056-.569 1.377-.559z"/><path fill="#B51413" d="M19.526 51.665c-.373.607-.666.385-.938 1.105-.148.373-.414-.578-.549-.66.639-.75 1.172-.48 1.487-.445zm10.029-21.04c-4.203 2.004-12.15 3.511-14.926 7.457.121 1.252 7.723 9.434 9.355 9.795 4.117-3.08 6.732-8.627 10.5-12.188l-4.929-5.064z"/><path fill="#E81C27" d="M25.125 51.048c.262-.143-1.242-1.047-1.514-.928-.127 1.896.092 2.244.352 2.08.284-.17.608-.851 1.162-1.152z"/><path fill="#D41A24" d="M23.612 50.12c-.414.971.023 1.922.279 2.188.746-.825.096-1.424-.279-2.188z"/><path fill="#E81C27" d="M23.473 51.341c-.676.6-.143 1.713.141 1.953.758-.957.035-1.584-.141-1.953z"/><path fill="#D41A24" d="M23.145 52.101c-.637.633-.08 1.789.221 2.01.707-.95-.026-1.649-.221-2.01z"/><path fill="#E81C27" d="M22.854 52.937c-.588.666.018 1.613.326 1.826.526-.832-.111-1.483-.326-1.826z"/><path fill="#D41A24" d="M22.622 53.788c-.541.699.094 1.512.41 1.711.478-.865-.172-1.381-.41-1.711z"/><path fill="#E81C27" d="M22.44 54.628c-.494.727.035 1.514.52 1.711.421-.893-.262-1.393-.52-1.711z"/><path fill="#D41A24" d="M22.276 55.513c-.443.76.303 1.449.639 1.615.367-.922-.362-1.315-.639-1.615z"/><path fill="#E81C27" d="M22.202 56.333c-.25.672.201.842-.24 1.473-.221.334.885.104 1.076.193.16-1-.541-1.381-.836-1.666z"/><path fill="#D41A24" d="M26.348 51.101c.246-.209-1.361-.951-1.615-.777.109 2.014.287 2.379.555 2.176.273-.208.545-.985 1.06-1.399z"/><path fill="#E81C27" d="M24.733 50.323c-.275 1.072.219 2.025.488 2.299.697-.967-.017-1.56-.488-2.299z"/><path fill="#D41A24" d="M24.735 51.63c-.613.697-.039 1.82.244 2.074.742-1.086-.039-1.713-.244-2.074z"/><path fill="#E81C27" d="M24.463 52.464c-.59.707-.025 1.885.268 2.129.725-1.049-.053-1.774-.268-2.129z"/><path fill="#D41A24" d="M24.209 53.362c-.566.719.018 1.695.314 1.936.563-.904-.089-1.59-.314-1.936z"/><path fill="#E81C27" d="M23.987 54.267c-.543.732.045 1.586.348 1.818.54-.924-.112-1.482-.348-1.818z"/><path fill="#D41A24" d="M23.786 55.147c-.52.748-.063 1.588.402 1.836.514-.945-.156-1.505-.402-1.836z"/><path fill="#E81C27" d="M23.573 56.071c-.494.77.16 1.545.477 1.756.488-.969-.221-1.431-.477-1.756z"/><path fill="#D41A24" d="M23.428 56.929c-.324.684.102.908-.436 1.523-.275.324.869.215 1.045.33.327-1.074-.347-1.535-.609-1.853zm3.582-5.67c-.123-.305 1.641-.225 1.787.053-1.002 1.775-1.324 2.023-1.473 1.715-.148-.319-.04-1.151-.314-1.768z"/><path fill="#E81C27" d="M28.797 51.312c-.236 1.104-1.105 1.736-1.467 1.857-.185-1.203.717-1.408 1.467-1.857z"/><path fill="#D41A24" d="M28.209 52.497c.23.92-.785 1.67-1.152 1.768-.17-1.334.807-1.537 1.152-1.768z"/><path fill="#E81C27" d="M28.075 53.382c.207.92-.824 1.723-1.195 1.809-.172-1.295.845-1.588 1.195-1.809z"/><path fill="#D41A24" d="M27.897 54.315c.18.92-.779 1.531-1.15 1.609-.096-1.083.795-1.4 1.15-1.609z"/><path fill="#E81C27" d="M27.688 55.241c.15.92-.754 1.418-1.127 1.486-.064-1.091.766-1.29 1.127-1.486z"/><path fill="#D41A24" d="M27.469 56.136c.125.924-.66 1.471-1.182 1.477-.031-1.1.817-1.292 1.182-1.477z"/><path fill="#E81C27" d="M27.245 57.075c.094.93-.838 1.326-1.213 1.371 0-1.111.84-1.197 1.213-1.371z"/><path fill="#D41A24" d="M26.989 57.921c-.021.771-.504.775-.301 1.586.098.426-.869-.211-1.076-.191.193-1.129.998-1.229 1.377-1.395z"/><path fill="#E81C27" d="M25.579 50.796c-.168-.248 1.574-.354 1.762-.121-.732 1.746-1.082 1.955-1.24 1.688-.177-.282-.161-1.042-.522-1.567z"/><path fill="#D41A24" d="M27.34 50.675c-.063 1.057-.877 1.699-1.223 1.818-.296-1.082.55-1.312 1.223-1.818z"/><path fill="#E81C27" d="M26.918 51.827c.336.848-.635 1.59-.994 1.67-.248-1.203.674-1.424.994-1.67z"/><path fill="#D41A24" d="M26.874 52.655c.285.861-.727 1.629-1.094 1.688-.205-1.174.76-1.457 1.094-1.688z"/><path fill="#E81C27" d="M26.76 53.534c.227.867-.734 1.43-1.104 1.475-.099-.985.759-1.268 1.104-1.475z"/><path fill="#D41A24" d="M26.586 54.401c.17.873-.758 1.303-1.127 1.33-.041-.992.768-1.146 1.127-1.33z"/><path fill="#E81C27" d="M26.375 55.233c.115.877-.707 1.332-1.227 1.281.024-.992.856-1.117 1.227-1.281z"/><path fill="#D41A24" d="M26.127 56.097c.053.883-.916 1.15-1.289 1.141.086-.991.907-1.003 1.289-1.141z"/><path fill="#E81C27" d="M25.827 56.862c-.076.715-.553.656-.443 1.424.047.398-.834-.32-1.043-.328.304-.967 1.095-.979 1.486-1.096zm5.765-4.232c-.164-.268 1.588-.422 1.774-.172-.774 1.924-1.129 2.158-1.284 1.869-.169-.303-.138-1.131-.49-1.697z"/><path fill="#D41A24" d="M33.366 52.458c-.088 1.154-.92 1.875-1.27 2.012-.275-1.172.582-1.446 1.27-2.012z"/><path fill="#E81C27" d="M32.918 53.726c.319.916-.674 1.75-1.039 1.846-.22-1.309.711-1.571 1.039-1.846z"/><path fill="#D41A24" d="M32.854 54.63c.268.934-.766 1.795-1.137 1.865-.181-1.275.795-1.605 1.137-1.865z"/><path fill="#E81C27" d="M32.721 55.593c.209.941-.771 1.576-1.143 1.635-.076-1.075.792-1.403 1.143-1.635z"/><path fill="#D41A24" d="M32.528 56.542c.15.949-.789 1.438-1.162 1.479-.02-1.083.797-1.27 1.162-1.479z"/><path fill="#E81C27" d="M32.295 57.456c.098.953-.738 1.467-1.258 1.424.046-1.082.883-1.238 1.258-1.424z"/><path fill="#D41A24" d="M32.028 58.403c.037.963-.945 1.277-1.32 1.273.107-1.081.933-1.113 1.32-1.273z"/><path fill="#E81C27" d="M31.711 59.245c-.094.781-.572.729-.479 1.563.041.436-.83-.33-1.041-.334.329-1.061 1.126-1.092 1.52-1.229z"/><path fill="#D41A24" d="M30.002 52.228c-.125-.303 1.637-.223 1.787.055-1 1.768-1.324 2.016-1.471 1.707-.151-.317-.044-1.145-.316-1.762z"/><path fill="#E81C27" d="M31.79 52.282c-.238 1.1-1.105 1.729-1.467 1.85-.188-1.199.715-1.403 1.467-1.85z"/><path fill="#D41A24" d="M31.2 53.464c.232.916-.781 1.662-1.148 1.76-.171-1.33.804-1.532 1.148-1.76z"/><path fill="#E81C27" d="M31.067 54.343c.209.918-.822 1.715-1.193 1.801-.172-1.29.843-1.581 1.193-1.801z"/><path fill="#D41A24" d="M30.891 55.274c.18.916-.779 1.523-1.15 1.602-.096-1.08.795-1.395 1.15-1.602z"/><path fill="#E81C27" d="M30.682 56.196c.152.916-.752 1.412-1.125 1.479-.066-1.088.766-1.285 1.125-1.479z"/><path fill="#D41A24" d="M30.465 57.085c.127.92-.658 1.465-1.182 1.471-.033-1.096.815-1.285 1.182-1.471z"/><path fill="#E81C27" d="M30.239 58.021c.096.928-.834 1.32-1.211 1.363 0-1.104.84-1.192 1.211-1.363z"/><path fill="#D41A24" d="M29.985 58.864c-.02.768-.5.77-.297 1.578.098.424-.869-.211-1.078-.191.193-1.123.998-1.223 1.375-1.387zm4.998-5.295c.238-.199-1.381-.914-1.629-.748.166 1.932.355 2.283.615 2.09.266-.199.514-.945 1.014-1.342z"/><path fill="#E81C27" d="M33.354 52.821c-.242 1.031.275 1.945.551 2.207.666-.925-.062-1.498-.551-2.207z"/><path fill="#D41A24" d="M33.394 54.077c-.588.67.014 1.748.305 1.992.702-1.043-.091-1.644-.305-1.992z"/><path fill="#E81C27" d="M33.147 54.878c-.567.678.029 1.811.328 2.045.69-1.008-.103-1.705-.328-2.045z"/><path fill="#D41A24" d="M32.92 55.739c-.541.691.068 1.629.37 1.859.535-.867-.135-1.527-.37-1.859z"/><path fill="#E81C27" d="M32.727 56.608c-.52.703.09 1.523.397 1.744.512-.886-.155-1.421-.397-1.744z"/><path fill="#D41A24" d="M32.551 57.454c-.494.719-.014 1.525.456 1.762.484-.906-.2-1.444-.456-1.762z"/><path fill="#E81C27" d="M32.368 58.341c-.471.74.205 1.484.525 1.688.456-.932-.262-1.378-.525-1.688z"/><path fill="#D41A24" d="M32.247 59.163c-.301.656.131.873-.385 1.465-.264.311.867.207 1.047.314.293-1.029-.391-1.47-.662-1.779z"/><path fill="#E81C27" d="M30.42 52.313c.254-.154-1.285-.998-1.551-.869-.043 1.902.189 2.242.443 2.068.274-.181.567-.876 1.108-1.199z"/><path fill="#D41A24" d="M28.87 51.444c-.371.988.109 1.922.375 2.18.707-.855.031-1.43-.375-2.18z"/><path fill="#E81C27" d="M28.784 52.673c-.646.625-.064 1.719.229 1.947.712-.988-.036-1.586-.229-1.947z"/><path fill="#D41A24" d="M28.491 53.444c-.609.66 0 1.793.311 2.004.661-.976-.1-1.648-.311-2.004z"/><path fill="#E81C27" d="M28.237 54.294c-.557.689.09 1.615.406 1.814.488-.853-.176-1.478-.406-1.814z"/><path fill="#D41A24" d="M28.045 55.155c-.51.721.158 1.51.484 1.693.44-.882-.234-1.372-.484-1.693z"/><path fill="#E81C27" d="M27.899 56.003c-.459.746.104 1.514.596 1.691.38-.912-.325-1.384-.596-1.691z"/><path fill="#D41A24" d="M27.776 56.894c-.408.779.365 1.441.709 1.592.324-.938-.42-1.301-.709-1.592z"/><path fill="#E81C27" d="M27.737 57.718c-.219.684.238.836-.172 1.484-.207.344.887.068 1.08.15.115-1.007-.6-1.359-.908-1.634zm8.926-3.729c.26-.143-1.242-1.049-1.514-.93-.127 1.896.09 2.244.352 2.082.281-.169.607-.853 1.162-1.152z"/><path fill="#D41A24" d="M35.149 53.06c-.414.971.023 1.924.279 2.189.747-.824.096-1.424-.279-2.189z"/><path fill="#E81C27" d="M35.011 54.282c-.676.598-.143 1.713.143 1.951.755-.955.034-1.582-.143-1.951z"/><path fill="#D41A24" d="M34.683 55.04c-.639.635-.08 1.789.221 2.012.706-.949-.026-1.651-.221-2.012z"/><path fill="#E81C27" d="M34.392 55.876c-.59.668.018 1.615.324 1.828.525-.832-.11-1.482-.324-1.828z"/><path fill="#D41A24" d="M34.159 56.729c-.539.699.094 1.512.41 1.709.479-.863-.17-1.378-.41-1.709z"/><path fill="#E81C27" d="M33.978 57.567c-.494.729.035 1.516.52 1.713.421-.894-.265-1.394-.52-1.713z"/><path fill="#D41A24" d="M33.812 58.452c-.439.762.305 1.451.641 1.617.364-.923-.362-1.314-.641-1.617z"/><path fill="#E81C27" d="M33.739 59.274c-.25.672.201.842-.238 1.473-.223.334.885.104 1.074.193.16-1.002-.541-1.38-.836-1.666z"/><path fill="#D41A24" d="M37.972 54.169c.244-.205-1.365-.941-1.617-.771.117 1.975.297 2.334.563 2.137.272-.204.54-.964 1.054-1.366z"/><path fill="#E81C27" d="M36.354 53.397c-.271 1.051.227 1.988.496 2.256.692-.943-.023-1.529-.496-2.256z"/><path fill="#D41A24" d="M36.36 54.679c-.607.682-.029 1.785.256 2.035.735-1.061-.049-1.68-.256-2.035z"/><path fill="#E81C27" d="M36.095 55.495c-.588.691-.02 1.85.275 2.092.719-1.027-.058-1.744-.275-2.092z"/><path fill="#D41A24" d="M35.845 56.376c-.563.701.025 1.662.322 1.898.559-.882-.098-1.56-.322-1.898z"/><path fill="#E81C27" d="M35.626 57.261c-.537.715.053 1.555.357 1.783.534-.902-.121-1.453-.357-1.783z"/><path fill="#D41A24" d="M35.431 58.124c-.516.73-.057 1.557.41 1.801.508-.924-.166-1.475-.41-1.801z"/><path fill="#E81C27" d="M35.222 59.028c-.492.752.166 1.516.482 1.725.484-.947-.226-1.406-.482-1.725z"/><path fill="#D41A24" d="M35.081 59.868c-.322.668.107.891-.428 1.492-.273.316.867.215 1.045.328.323-1.052-.353-1.505-.617-1.82zm3.678-5.764c-.131-.289 1.629-.188 1.781.076-.975 1.656-1.293 1.885-1.445 1.592-.155-.3-.057-1.082-.336-1.668z"/><path fill="#E81C27" d="M40.54 54.181c-.223 1.035-1.078 1.617-1.438 1.727-.201-1.136.694-1.315 1.438-1.727z"/><path fill="#D41A24" d="M39.97 55.288c.242.869-.76 1.559-1.123 1.646-.188-1.257.781-1.433 1.123-1.646z"/><path fill="#E81C27" d="M39.847 56.118c.219.869-.797 1.611-1.166 1.684-.19-1.219.82-1.481 1.166-1.684z"/><path fill="#D41A24" d="M39.683 56.995c.191.867-.756 1.43-1.125 1.496-.108-1.019.775-1.304 1.125-1.496z"/><path fill="#E81C27" d="M39.487 57.862c.164.869-.732 1.324-1.102 1.383-.079-1.029.747-1.203 1.102-1.383z"/><path fill="#D41A24" d="M39.282 58.702c.137.869-.637 1.373-1.158 1.371-.047-1.033.795-1.203 1.158-1.371z"/><path fill="#E81C27" d="M39.069 59.581c.107.879-.816 1.238-1.189 1.273-.014-1.044.822-1.115 1.189-1.273z"/><path fill="#D41A24" d="M38.825 60.374c-.008.727-.486.723-.275 1.488.104.402-.867-.211-1.074-.195.175-1.059.976-1.143 1.349-1.293z"/><path fill="#E81C27" d="M37.249 53.812c-.166-.25 1.574-.355 1.762-.123-.732 1.748-1.08 1.957-1.24 1.689-.176-.283-.159-1.041-.522-1.566z"/><path fill="#D41A24" d="M39.011 53.688c-.063 1.057-.877 1.699-1.221 1.818-.299-1.079.547-1.312 1.221-1.818z"/><path fill="#E81C27" d="M38.591 54.841c.334.848-.635 1.592-.996 1.672-.246-1.205.676-1.426.996-1.672z"/><path fill="#D41A24" d="M38.544 55.669c.285.861-.725 1.631-1.092 1.688-.207-1.174.758-1.456 1.092-1.688z"/><path fill="#E81C27" d="M38.433 56.55c.227.867-.736 1.428-1.105 1.475-.099-.987.759-1.268 1.105-1.475z"/><path fill="#D41A24" d="M38.259 57.417c.168.873-.758 1.301-1.127 1.33-.043-.992.767-1.146 1.127-1.33z"/><path fill="#E81C27" d="M38.046 58.247c.115.877-.707 1.332-1.225 1.281.024-.99.854-1.117 1.225-1.281z"/><path fill="#D41A24" d="M37.798 59.11c.055.885-.916 1.152-1.289 1.143.084-.992.908-1.002 1.289-1.143z"/><path fill="#E81C27" d="M37.499 59.878c-.078.713-.555.654-.445 1.422.047.4-.832-.318-1.043-.328.304-.967 1.095-.979 1.488-1.094z"/><linearGradient id="a" x1="37.728" x2="33.85" y1="38.75" y2="47.706" gradientUnits="userSpaceOnUse"><stop offset="0" style="stop-color:#9e1413"/><stop offset=".051" style="stop-color:#a61515"/><stop offset=".27" style="stop-color:#c3181d"/><stop offset=".488" style="stop-color:#d71a23"/><stop offset=".702" style="stop-color:#e41c26"/><stop offset=".909" style="stop-color:#e81c27"/></linearGradient><path fill="url(#a)" d="M32.334 33.874c-3.75 3.756-7.809 11.439-8.723 16.246.891 1.055 14.733 4.742 16.872 4.295 3.012-4.672 2.777-10.826 5.088-15.758l-13.237-4.783z"/><radialGradient id="b" cx="44.841" cy="42.83" r="10.64" fx="37.115" fy="41.347" gradientTransform="matrix(.9307 .3657 -.9375 2.3862 43.258 -75.769)" gradientUnits="userSpaceOnUse"><stop offset=".145" style="stop-color:#9e1413"/><stop offset=".188" style="stop-color:#a61515;stop-opacity:.9439"/><stop offset=".372" style="stop-color:#c3181d;stop-opacity:.7031"/><stop offset=".555" style="stop-color:#d71a23;stop-opacity:.4635"/><stop offset=".735" style="stop-color:#e41c26;stop-opacity:.2276"/><stop offset=".909" style="stop-color:#e81c27;stop-opacity:0"/></radialGradient><path fill="url(#b)" d="M32.334 33.874c-3.75 3.756-7.809 11.439-8.723 16.246.891 1.055 14.733 4.742 16.872 4.295 3.012-4.672 2.777-10.826 5.088-15.758l-13.237-4.783z"/><radialGradient id="c" cx="54.408" cy="11.569" r="15.79" gradientTransform="matrix(1.0912 0 0 .7872 -24.435 5.22)" gradientUnits="userSpaceOnUse"><stop offset=".648" style="stop-color:#ad1111"/><stop offset=".708" style="stop-color:#b31213"/><stop offset=".789" style="stop-color:#c4151a"/><stop offset=".882" style="stop-color:#e01b24"/><stop offset=".903" style="stop-color:#e81c27"/></radialGradient><path fill="url(#c)" d="M44.321 19.125c-4.939-2.096-12.042-2.504-17.11.387-8.217-8.631-4.395-14.402-.826-16.156 3.746-1.842 13.625-1.77 16.969 0 3.506 1.852 7.385 6.821.967 15.769z"/><linearGradient id="d" x1="40.136" x2="54.759" y1="28.084" y2="5.674" gradientUnits="userSpaceOnUse"><stop offset="0" style="stop-color:#9e1413"/><stop offset=".051" style="stop-color:#a61515"/><stop offset=".27" style="stop-color:#c3181d"/><stop offset=".488" style="stop-color:#d71a23"/><stop offset=".702" style="stop-color:#e41c26"/><stop offset=".909" style="stop-color:#e81c27"/></linearGradient><path fill="url(#d)" d="M43.354 3.355c11.271 6.441 8.01 12.893 10.232 17.191 1.711 3.313-2.344 11.17-3.844 12.221-3.238 2.265-10.926-5.268-10.832-8.314.241-7.75 11.105-11.069 4.444-21.098z"/><radialGradient id="e" cx="42.518" cy="23.333" r="22.304" fx="52.89" fy="37.076" gradientTransform="matrix(.6205 -.7842 .2799 .2215 9.605 51.51)" gradientUnits="userSpaceOnUse"><stop offset="0" style="stop-color:#9e1413"/><stop offset=".14" style="stop-color:#ae1617;stop-opacity:.8464"/><stop offset=".457" style="stop-color:#ce1920;stop-opacity:.4975"/><stop offset=".725" style="stop-color:#e11b25;stop-opacity:.2029"/><stop offset=".909" style="stop-color:#e81c27;stop-opacity:0"/></radialGradient><path fill="url(#e)" d="M43.354 3.355c11.271 6.441 8.01 12.893 10.232 17.191 1.711 3.313-2.344 11.17-3.844 12.221-3.238 2.265-10.926-5.268-10.832-8.314.241-7.75 11.105-11.069 4.444-21.098z"/><linearGradient id="f" x1="33.052" x2="33.052" y1="40.938" y2="3.356" gradientUnits="userSpaceOnUse"><stop offset="0" style="stop-color:#c21413"/><stop offset=".101" style="stop-color:#cb1618"/><stop offset=".353" style="stop-color:#db1920"/><stop offset=".635" style="stop-color:#e51b25"/><stop offset="1" style="stop-color:#e81c27"/></linearGradient><path fill="url(#f)" d="M26.385 3.355C.766 15.46 25.579 39.597 43.624 40.919c4.602.336 3.033-3.684 4.592-3.926 2.67-.412 2.754-4.287 2.258-4.976-4.528-6.271-32.235-17.656-24.089-28.662z"/><radialGradient id="g" cx="40.554" cy="25.896" r="37.456" fx="49.661" fy="51.396" gradientTransform="matrix(.8526 .5226 -.1457 .2377 9.752 -1.452)" gradientUnits="userSpaceOnUse"><stop offset="0" style="stop-color:#9e1413"/><stop offset=".042" style="stop-color:#a41515;stop-opacity:.9432"/><stop offset=".34" style="stop-color:#c9191f;stop-opacity:.5363"/><stop offset=".581" style="stop-color:#e01b25;stop-opacity:.2076"/><stop offset=".733" style="stop-color:#e81c27;stop-opacity:0"/></radialGradient><path fill="url(#g)" d="M26.385 3.355C.766 15.46 25.579 39.597 43.624 40.919c4.602.336 3.033-3.684 4.592-3.926 2.67-.412 2.754-4.287 2.258-4.976-4.528-6.271-32.235-17.656-24.089-28.662z"/></svg>