<svg xmlns="http://www.w3.org/2000/svg" xml:space="preserve" viewBox="0 0 64 64"><linearGradient id="a" x1="43.517" x2="54.816" y1="30.94" y2="30.94" gradientUnits="userSpaceOnUse"><stop offset="0" style="stop-color:#ad7853"/><stop offset=".594" style="stop-color:#cf8f63"/></linearGradient><path fill="url(#a)" d="M53.451 31.131c-.82-5.433-4.947-22.508-6.025-22.235-4.094 1.161-3.908 12.755-3.908 12.755s2.691 8.706 3.182 11.699c.801 4.853 1.193 19.64 1.193 19.64l6.924-.41c-.184-5.351-.561-16.139-1.366-21.449z"/><linearGradient id="b" x1="9.184" x2="20.484" y1="30.94" y2="30.94" gradientUnits="userSpaceOnUse"><stop offset=".406" style="stop-color:#cf8f63"/><stop offset="1" style="stop-color:#ad7853"/></linearGradient><path fill="url(#b)" d="M16.574 8.896c-1.077-.272-5.203 16.803-6.025 22.235-.804 5.311-1.182 16.099-1.364 21.448l6.923.41s.393-14.787 1.191-19.64c.494-2.993 3.185-11.699 3.185-11.699s.185-11.593-3.91-12.754z"/><linearGradient id="c" x1="9.001" x2="16.584" y1="51.68" y2="51.68" gradientUnits="userSpaceOnUse"><stop offset="0" style="stop-color:#a87551"/><stop offset=".591" style="stop-color:#946645"/><stop offset="1" style="stop-color:#8c6040"/></linearGradient><path fill="url(#c)" d="M9.05 49.562 9 52.696s2.501 1.993 7.328.615l.256-3.062c-4.442.973-7.534-.687-7.534-.687z"/><linearGradient id="d" x1="47.416" x2="55" y1="51.68" y2="51.68" gradientUnits="userSpaceOnUse"><stop offset="0" style="stop-color:#a87551"/><stop offset=".591" style="stop-color:#946645"/><stop offset="1" style="stop-color:#8c6040"/></linearGradient><path fill="url(#d)" d="M54.949 49.562 55 52.696s-2.5 1.993-7.328.615l-.256-3.062c4.441.973 7.533-.687 7.533-.687z"/><linearGradient id="e" x1="32.001" x2="32.001" y1="62" y2="5.425" gradientUnits="userSpaceOnUse"><stop offset="0" style="stop-color:#ad7853"/><stop offset="1" style="stop-color:#cf8f63"/></linearGradient><path fill="url(#e)" d="M47.518 8.896c-.473-1.09-9.18-3.471-9.18-3.471L32 17.821 25.662 5.425s-8.706 2.381-9.179 3.471c0 0 2.745 16.649 3.002 21.305.425 7.705-1.851 27.784-1.851 27.784 2.234 1.197 6.178 1.93 6.178 1.93l.682 1.227c7.574 1.842 17.973.691 21.887-3.156 0 0-2.221-20.122-1.799-27.841.252-4.64 2.936-21.249 2.936-21.249z"/><path fill="#734F35" d="M26.777 30.82c0 1.944 2.776 1.944 2.776 0 0-1.804-2.776-1.804-2.776 0zm5.887 0c0 1.944 2.776 1.944 2.776 0-.001-1.804-2.776-1.804-2.776 0zm-5.883 7.228c0 1.945 2.776 1.945 2.776 0 0-1.804-2.776-1.804-2.776 0zm5.886 0c0 1.945 2.776 1.945 2.776 0 0-1.804-2.776-1.804-2.776 0zm-5.89 7.229c0 1.943 2.776 1.943 2.776 0 0-1.804-2.776-1.804-2.776 0zm5.887 0c0 1.943 2.776 1.943 2.776 0-.001-1.804-2.776-1.804-2.776 0zM26.863 2h10.274S38.164 10.421 32 18.735C23.998 9.895 26.863 2.001 26.863 2z"/><linearGradient id="f" x1="31.944" x2="31.944" y1="19.538" y2="4.359" gradientUnits="userSpaceOnUse"><stop offset=".424" style="stop-color:#3d2b1c"/><stop offset=".875" style="stop-color:#5a3e29"/><stop offset="1" style="stop-color:#63442d"/></linearGradient><path fill="url(#f)" d="M26.863 4.683c.545-.47 9.899-.391 10.274 0C40.439 8.093 32 19.538 32 19.538S23.24 7.802 26.863 4.683z"/><linearGradient id="g" x1="21.683" x2="33.025" y1="11.333" y2="11.333" gradientUnits="userSpaceOnUse"><stop offset="0" style="stop-color:#8c6040"/><stop offset=".409" style="stop-color:#946645"/><stop offset="1" style="stop-color:#a87551"/></linearGradient><path fill="url(#g)" d="M33.025 18.244C25.835 9.994 26.863 2 26.863 2s-3.338 2.941-5.18 7.293c2.623-.015 4.59.501 4.59.501s-1.996 2.26-2.561 4.601c5.477 2.952 7.938 6.271 7.938 6.271.524-.875 1.375-2.422 1.375-2.422z"/><linearGradient id="h" x1="23.407" x2="42.318" y1="31.57" y2="31.57" gradientUnits="userSpaceOnUse"><stop offset="0" style="stop-color:#8c6040"/><stop offset=".409" style="stop-color:#946645"/><stop offset="1" style="stop-color:#a87551"/></linearGradient><path fill="url(#h)" d="M42.318 9.293C40.313 5.158 37.137 2 37.137 2s.064 10.835-13.292 27.013c-.986 1.195 0 31.977 0 31.977l.648.151s-.756-31.104 0-31.905c7.289-7.748 16.219-13.562 16.219-13.562-.5-2.683-2.574-5.88-2.574-5.88s1.7-.516 4.18-.501z"/><linearGradient id="i" x1="40.631" x2="43.337" y1="41.736" y2="41.736" gradientUnits="userSpaceOnUse"><stop offset="0" style="stop-color:#8c6040"/><stop offset=".409" style="stop-color:#946645"/><stop offset="1" style="stop-color:#a87551"/></linearGradient><path fill="url(#i)" d="M41.059 36.918c.377 3.89 1.664 7.889 2.262 9.438.1.26-.279.493-.393.258-.74-1.518-2.131-6.335-2.297-9.562-.014-.283.4-.418.428-.134z"/><linearGradient id="j" x1="20.664" x2="23.369" y1="41.736" y2="41.736" gradientUnits="userSpaceOnUse"><stop offset="0" style="stop-color:#8c6040"/><stop offset=".409" style="stop-color:#946645"/><stop offset="1" style="stop-color:#a87551"/></linearGradient><path fill="url(#j)" d="M22.941 36.918c-.376 3.89-1.664 7.889-2.261 9.438-.099.26.279.493.394.258.74-1.518 2.131-6.335 2.295-9.562.014-.283-.4-.418-.428-.134z"/></svg>