<svg xmlns="http://www.w3.org/2000/svg" xmlns:xlink="http://www.w3.org/1999/xlink" xml:space="preserve" viewBox="0 0 64 64"><linearGradient id="a" x1="32.376" x2="32.376" y1="62" y2="3.975" gradientUnits="userSpaceOnUse"><stop offset="0" style="stop-color:#594139"/><stop offset=".222" style="stop-color:#715246"/><stop offset=".526" style="stop-color:#8d6554"/><stop offset=".795" style="stop-color:#9d715d"/><stop offset="1" style="stop-color:#a37560"/></linearGradient><path fill="url(#a)" d="M59.099 32.593c-.121-.088-6.521 1.365-7.498.475-.646-5.225 2.012-11.98 4.488-15.666.076-.115.025-.143-.018-.186-.654-.631-.979-1.055-.979-1.055-3.434 2.68-16.102 3.355-17.154-1.344-.627-2.797 2.641-3.18 2.988-5.564.264-1.799-.953-4.117-2.5-5.279C33.214 17.677 21.415 19.845 6.45 24.72c.418 1.336 1.361 2.404 2.027 2.383.766-.025 3.656-2.674 5.736-2.289C25.179 38.835 2.751 52.999 2.751 52.999c8.738 5.709 18.535 5.525 18.92 3.77.416-1.908-2.979-3.242-1.123-7.045 1.541-3.166 6.502-3.701 9.717-1.727 5.303-.387 4.584 9.852-1.354 10.559 2.043 2.873 13.242 3.984 19.441 3.199.236-.031.271-.211.219-.393-2.684-9.143-1.117-17.193 2.342-17.578 2.313-.26 3.064 3.1 6.422 2.625 5.021-.709 6.559-10.398 1.764-13.816z"/><defs><path id="b" d="M55.069 16.298c-3.643 5.516-7.154 18.434-2.689 16.414 11.395-5.164 10.852 11.682 3.797 12.678-3.355.473-4.107-2.887-6.42-2.627-3.461.387-5.205 8.664-2.521 17.809.068.232-.023.367-.242.395-6.4.838-17.541-.559-18.252-2.709-.691-2.092 4.146-2.092 3.512-6.166-1.1-7.086-10.258-7.342-12.527-2.684-1.855 3.803 1.438 4.576 1.021 6.484-.379 1.738-8.723 2.434-17.904-2.828a.647.647 0 0 1-.313-.418C.728 39.343 3.957 33.978 5.687 33.886c2.49-.133 3.031 3.504 5.971 2.854 2.32-.514 4.041-4.191 3.934-6.385-.523-10.684-7.004-3.816-8.004-4.074-1.596-.41-3.832-7.799 2.818-17.553.055-.08.369-.164.479-.123 5.021 1.908 18.85 7.201 16.326 2.371C21.03-.84 41.433-.252 40.165 8.44c-.324 2.242-3.346 2.699-3.145 5.072.445 5.178 13.869 3.162 17.85 2.623.152-.019.313-.009.199.163z"/></defs><clipPath id="d"><use xlink:href="#b" overflow="visible"/></clipPath><radialGradient id="c" cx="-95.662" cy="171.633" r="31.066" gradientTransform="rotate(11.572 653.509 738.111)" gradientUnits="userSpaceOnUse"><stop offset="0" style="stop-color:#fa0"/><stop offset=".342" style="stop-color:#ffa700"/><stop offset=".597" style="stop-color:#ff9d00"/><stop offset=".823" style="stop-color:#ff8d00"/><stop offset="1" style="stop-color:#ff7b00"/></radialGradient><path fill="url(#c)" d="M9.756-3.536 68.092 8.411l-6.57 32.084L3.186 28.548z" clip-path="url(#d)"/><linearGradient id="e" x1="-96.157" x2="-96.157" y1="186.327" y2="160.523" gradientTransform="rotate(11.572 653.509 738.111)" gradientUnits="userSpaceOnUse"><stop offset="0" style="stop-color:#ffb700"/><stop offset=".285" style="stop-color:#ffc700"/><stop offset=".619" style="stop-color:#ffd200"/><stop offset="1" style="stop-color:#ffd500"/></linearGradient><path fill="url(#e)" d="M34.943 21.884c6.979 1.43 11.479 8.248 10.05 15.227-1.43 6.98-8.248 11.482-15.229 10.053-6.979-1.432-11.479-8.248-10.049-15.229 1.43-6.981 8.246-11.481 15.228-10.051z" clip-path="url(#d)"/><radialGradient id="f" cx="-95.786" cy="170.295" r="50.146" gradientTransform="matrix(.9797 .2006 -.1329 .6489 149.814 -59.759)" gradientUnits="userSpaceOnUse"><stop offset=".061" style="stop-color:#fee29a"/><stop offset=".098" style="stop-color:#f8e09c"/><stop offset=".148" style="stop-color:#e6daa1"/><stop offset=".206" style="stop-color:#cacfaa"/><stop offset=".269" style="stop-color:#a2c1b6"/><stop offset=".338" style="stop-color:#6fafc6"/><stop offset=".409" style="stop-color:#3199d9"/><stop offset=".461" style="stop-color:#0087e8"/><stop offset="1" style="stop-color:#004c78"/></radialGradient><path fill="url(#f)" d="m3.186 28.548 58.336 11.947-5.376 26.252L-2.19 54.8z" clip-path="url(#d)"/><path fill="#FEEC9A" d="M26.476 48.388c-.335 1.641 5.834 1.193 5.834 1.193s-5.498-2.834-5.834-1.193zm-1.591-3.364s9.874 3.729 10.21 2.09c.334-1.64-10.21-2.09-10.21-2.09zm7.011-.843s6.955 3.133 7.291 1.492c.336-1.641-7.291-1.492-7.291-1.492zm11.552-4.475s-22.662-8.059-23.334-4.775c-.672 3.281 23.334 4.775 23.334 4.775zm-21.165-.533s18.288 7.164 18.96 3.883c.673-3.284-18.96-3.883-18.96-3.883zm-.596 2.918c-.335 1.639 8.752 1.789 8.752 1.789s-8.417-3.432-8.752-1.789z" clip-path="url(#d)" opacity=".7"/><path fill="#F9B700" d="M9.671 19.769c2.357-.762 4.806-1.887 7.701-.834 3.324 1.211 4.771 2.195 6.902 1.094 2.131-1.102 2.965 2.414 5.355 3.521 2.391 1.104 7.89 2.709 4.608 2.391C30.174 25.545 5 21.388 6.318 20.222c.458-.401 2.035-.028 3.353-.453zm46.836 15.677c-1.559-.871-3.098-1.91-5.492-2.193-2.75-.33-4.057-.293-5.365-1.242s-2.778.232-4.814.088c-2.034-.143-6.488-.842-3.985-.172 3.1.828 22.717 5.287 22.023 4.51-.241-.27-1.497-.506-2.367-.991zm-30.854-5.961c.93-1.045 2.167-1.092 2.933-.084-.176-1.318-1.967-1.748-2.763-.756-.336-1.227-2.156-1.535-2.838-.393 1.102-.628 2.226-.093 2.668 1.233zm-3.105.899c.562-.627 1.307-.656 1.768-.049-.108-.793-1.186-1.051-1.665-.457-.2-.734-1.295-.922-1.704-.234.66-.377 1.335-.057 1.601.74zm5.633.998c.367-.41.854-.428 1.154-.031-.069-.518-.773-.688-1.087-.297-.132-.482-.845-.605-1.112-.156.431-.247.872-.038 1.045.484z" clip-path="url(#d)"/><path fill="#FFE463" d="M18.002 26.952c.502-.561 1.168-.588 1.58-.045-.096-.709-1.06-.941-1.487-.408-.182-.66-1.162-.826-1.528-.211.591-.338 1.199-.053 1.435.664zm.939 1.549c.317-.355.741-.371 1.003-.027-.061-.449-.673-.596-.944-.258-.113-.418-.736-.525-.97-.133.376-.215.76-.035.911.418z" clip-path="url(#d)"/></svg>