<svg xmlns="http://www.w3.org/2000/svg" xml:space="preserve" style="enable-background:new 0 0 64 64" viewBox="0 0 64 64"><linearGradient id="a" x1="631.178" x2="654.292" y1="-156.149" y2="-156.149" gradientTransform="scale(1 -1) rotate(-45 488.473 642.582)" gradientUnits="userSpaceOnUse"><stop offset="0" style="stop-color:#00859c"/><stop offset=".149" style="stop-color:#009eae"/><stop offset=".355" style="stop-color:#00b8c2"/><stop offset=".564" style="stop-color:#00ccd0"/><stop offset=".777" style="stop-color:#00d7d8"/><stop offset="1" style="stop-color:#00dbdb"/></linearGradient><path d="M35.95 12.53c-9.6 9.9 7.38 26.73-6.04 37.84 2.93-11.91-9.66-27.96 6.04-37.84z" style="fill:url(#a)"/><linearGradient id="b" x1="631.115" x2="653.497" y1="-180.042" y2="-180.042" gradientTransform="scale(1 -1) rotate(-45 488.473 642.582)" gradientUnits="userSpaceOnUse"><stop offset="0" style="stop-color:#e84600"/><stop offset="1" style="stop-color:#ff931f"/></linearGradient><path d="M12.45 61.18 15.27 64c4.67-9.02-1.92-21.73.65-32.19-10.27 8.51-2.81 20.29-3.47 29.37z" style="fill:url(#b)"/><linearGradient id="c" x1="36.515" x2="34.331" y1="928.766" y2="928.766" gradientTransform="scale(-1 1) rotate(45 1069.248 422.292)" gradientUnits="userSpaceOnUse"><stop offset="0" style="stop-color:#00859c"/><stop offset=".149" style="stop-color:#009eae"/><stop offset=".355" style="stop-color:#00b8c2"/><stop offset=".564" style="stop-color:#00ccd0"/><stop offset=".777" style="stop-color:#00d7d8"/><stop offset="1" style="stop-color:#00dbdb"/></linearGradient><path d="M16.53 47.55 18.08 46l4.86 4.86c.49.49-1.06 2.03-1.55 1.55-1.22-1.21-4.86-4.86-4.86-4.86z" style="fill:url(#c)"/><linearGradient id="d" x1="36.515" x2="34.331" y1="921.968" y2="921.968" gradientTransform="scale(-1 1) rotate(45 1069.248 422.292)" gradientUnits="userSpaceOnUse"><stop offset="0" style="stop-color:#e84600"/><stop offset="1" style="stop-color:#ff931f"/></linearGradient><path d="M12.22 43.24c-.59-.59.95-2.14 1.55-1.55L18.08 46c.49.49-1.06 2.03-1.55 1.55-1.3-1.3-3.36-3.35-4.31-4.31z" style="fill:url(#d)"/><linearGradient id="e" x1="-297.78" x2="-295.595" y1="610.901" y2="610.901" gradientTransform="scale(1 -1) rotate(45 642.466 671.162)" gradientUnits="userSpaceOnUse"><stop offset="0" style="stop-color:#e84600"/><stop offset="1" style="stop-color:#ff931f"/></linearGradient><path d="M25.47 38.45 23.93 40s-5.87-5.88-7.04-7.04c-.49-.49 1.06-2.03 1.55-1.55 1.2 1.21 7.03 7.04 7.03 7.04z" style="fill:url(#e)"/><linearGradient id="f" x1="-297.78" x2="-295.596" y1="600.631" y2="600.631" gradientTransform="scale(1 -1) rotate(45 642.466 671.162)" gradientUnits="userSpaceOnUse"><stop offset="0" style="stop-color:#00859c"/><stop offset=".149" style="stop-color:#009eae"/><stop offset=".355" style="stop-color:#00b8c2"/><stop offset=".564" style="stop-color:#00ccd0"/><stop offset=".777" style="stop-color:#00d7d8"/><stop offset="1" style="stop-color:#00dbdb"/></linearGradient><path d="M32.52 45.49c.59.59-.95 2.14-1.55 1.55L23.93 40c-.49-.49 1.06-2.03 1.55-1.55 1.29 1.3 6.08 6.09 7.04 7.04z" style="fill:url(#f)"/><linearGradient id="g" x1="-303.069" x2="-300.885" y1="610.909" y2="610.909" gradientTransform="scale(1 -1) rotate(45 642.466 671.162)" gradientUnits="userSpaceOnUse"><stop offset="0" style="stop-color:#e84600"/><stop offset="1" style="stop-color:#ff931f"/></linearGradient><path d="m21.73 42.19-1.55 1.55-7.04-7.04c-.49-.49 1.06-2.03 1.55-1.55l7.04 7.04z" style="fill:url(#g)"/><linearGradient id="h" x1="-303.067" x2="-300.883" y1="600.631" y2="600.631" gradientTransform="scale(1 -1) rotate(45 642.466 671.162)" gradientUnits="userSpaceOnUse"><stop offset="0" style="stop-color:#00859c"/><stop offset=".149" style="stop-color:#009eae"/><stop offset=".355" style="stop-color:#00b8c2"/><stop offset=".564" style="stop-color:#00ccd0"/><stop offset=".777" style="stop-color:#00d7d8"/><stop offset="1" style="stop-color:#00dbdb"/></linearGradient><path d="M28.78 49.23c.59.59-.95 2.14-1.55 1.55l-7.04-7.04.41-1.14 1.14-.41c-.01 0 6.08 6.09 7.04 7.04z" style="fill:url(#h)"/><linearGradient id="i" x1="53.714" x2="51.529" y1="929.148" y2="929.148" gradientTransform="scale(-1 1) rotate(45 1085.78 382.382)" gradientUnits="userSpaceOnUse"><stop offset="0" style="stop-color:#00859c"/><stop offset=".149" style="stop-color:#009eae"/><stop offset=".355" style="stop-color:#00b8c2"/><stop offset=".564" style="stop-color:#00ccd0"/><stop offset=".777" style="stop-color:#00d7d8"/><stop offset="1" style="stop-color:#00dbdb"/></linearGradient><path d="m27.74 36.34 1.55-1.55 5.4 5.4c.49.49-1.06 2.03-1.55 1.55l-5.4-5.4z" style="fill:url(#i)"/><linearGradient id="j" x1="53.715" x2="51.531" y1="921.189" y2="921.189" gradientTransform="scale(-1 1) rotate(45 1085.78 382.382)" gradientUnits="userSpaceOnUse"><stop offset="0" style="stop-color:#e84600"/><stop offset="1" style="stop-color:#ff931f"/></linearGradient><path d="M22.34 30.93c-.59-.59.95-2.14 1.55-1.55l5.4 5.4-.41 1.14-1.14.41c0 .01-4.44-4.44-5.4-5.4z" style="fill:url(#j)"/><linearGradient id="k" x1="11.219" x2="9.034" y1="929.148" y2="929.148" gradientTransform="scale(-1 1) rotate(45 1069.248 422.292)" gradientUnits="userSpaceOnUse"><stop offset="0" style="stop-color:#e84600"/><stop offset="1" style="stop-color:#ff931f"/></linearGradient><path d="m34.41 29.67 1.55-1.55 5.4 5.4c.49.49-1.06 2.03-1.55 1.55l-5.4-5.4z" style="fill:url(#k)"/><linearGradient id="l" x1="11.22" x2="9.036" y1="921.586" y2="921.586" gradientTransform="scale(-1 1) rotate(45 1069.248 422.292)" gradientUnits="userSpaceOnUse"><stop offset="0" style="stop-color:#00859c"/><stop offset=".149" style="stop-color:#009eae"/><stop offset=".355" style="stop-color:#00b8c2"/><stop offset=".564" style="stop-color:#00ccd0"/><stop offset=".777" style="stop-color:#00d7d8"/><stop offset="1" style="stop-color:#00dbdb"/></linearGradient><path d="M29.56 24.81c-.59-.59.95-2.14 1.55-1.55l4.86 4.86c.49.49-1.06 2.03-1.55 1.55-1.31-1.3-3.91-3.91-4.86-4.86z" style="fill:url(#l)"/><linearGradient id="m" x1="-272.999" x2="-270.815" y1="610.909" y2="610.909" gradientTransform="scale(1 -1) rotate(45 642.466 671.162)" gradientUnits="userSpaceOnUse"><stop offset="0" style="stop-color:#00859c"/><stop offset=".149" style="stop-color:#009eae"/><stop offset=".355" style="stop-color:#00b8c2"/><stop offset=".564" style="stop-color:#00ccd0"/><stop offset=".777" style="stop-color:#00d7d8"/><stop offset="1" style="stop-color:#00dbdb"/></linearGradient><path d="m42.99 20.93-1.55 1.55-7.04-7.04c-.49-.49 1.06-2.03 1.55-1.55 1.22 1.21 7.04 7.04 7.04 7.04z" style="fill:url(#m)"/><linearGradient id="n" x1="-272.999" x2="-270.815" y1="600.631" y2="600.631" gradientTransform="scale(1 -1) rotate(45 642.466 671.162)" gradientUnits="userSpaceOnUse"><stop offset="0" style="stop-color:#e84600"/><stop offset="1" style="stop-color:#ff931f"/></linearGradient><path d="M50.04 27.97c.59.59-.95 2.14-1.55 1.55l-7.04-7.04c-.49-.49 1.06-2.03 1.55-1.55 1.29 1.3 6.08 6.08 7.04 7.04z" style="fill:url(#n)"/><linearGradient id="o" x1="-278.029" x2="-275.845" y1="610.909" y2="610.909" gradientTransform="scale(1 -1) rotate(45 642.466 671.162)" gradientUnits="userSpaceOnUse"><stop offset="0" style="stop-color:#00859c"/><stop offset=".149" style="stop-color:#009eae"/><stop offset=".355" style="stop-color:#00b8c2"/><stop offset=".564" style="stop-color:#00ccd0"/><stop offset=".777" style="stop-color:#00d7d8"/><stop offset="1" style="stop-color:#00dbdb"/></linearGradient><path d="m39.44 24.48-1.55 1.55s-5.87-5.88-7.04-7.04c-.49-.49 1.06-2.03 1.55-1.55 1.21 1.22 7.04 7.04 7.04 7.04z" style="fill:url(#o)"/><linearGradient id="p" x1="-278.03" x2="-275.846" y1="600.631" y2="600.631" gradientTransform="scale(1 -1) rotate(45 642.466 671.162)" gradientUnits="userSpaceOnUse"><stop offset="0" style="stop-color:#e84600"/><stop offset="1" style="stop-color:#ff931f"/></linearGradient><path d="M46.48 31.53c.59.59-.95 2.14-1.55 1.55l-7.04-7.04.41-1.14 1.14-.41c0-.01 6.08 6.08 7.04 7.04z" style="fill:url(#p)"/><linearGradient id="q" x1="29.191" x2="27.007" y1="929.148" y2="929.148" gradientTransform="scale(-1 1) rotate(45 1085.78 382.382)" gradientUnits="userSpaceOnUse"><stop offset="0" style="stop-color:#e84600"/><stop offset="1" style="stop-color:#ff931f"/></linearGradient><path d="m45.08 19 1.55-1.55 5.4 5.4c.49.49-1.06 2.03-1.55 1.55l-5.4-5.4z" style="fill:url(#q)"/><linearGradient id="r" x1="29.191" x2="27.007" y1="921.189" y2="921.189" gradientTransform="scale(-1 1) rotate(45 1085.78 382.382)" gradientUnits="userSpaceOnUse"><stop offset="0" style="stop-color:#00859c"/><stop offset=".149" style="stop-color:#009eae"/><stop offset=".355" style="stop-color:#00b8c2"/><stop offset=".564" style="stop-color:#00ccd0"/><stop offset=".777" style="stop-color:#00d7d8"/><stop offset="1" style="stop-color:#00dbdb"/></linearGradient><path d="M39.68 13.59c-.59-.59.95-2.14 1.55-1.55l5.4 5.4-.41 1.14-1.14.42s-4.44-4.45-5.4-5.41z" style="fill:url(#r)"/><linearGradient id="s" x1="80.655" x2="78.471" y1="929.148" y2="929.148" gradientTransform="scale(-1 1) rotate(45 1085.78 382.382)" gradientUnits="userSpaceOnUse"><stop offset="0" style="stop-color:#e84600"/><stop offset="1" style="stop-color:#ff931f"/></linearGradient><path d="m8.69 55.39 1.55-1.55 5.4 5.4c.49.49-1.06 2.03-1.55 1.55-1.2-1.21-5.4-5.4-5.4-5.4z" style="fill:url(#s)"/><linearGradient id="t" x1="80.655" x2="78.471" y1="921.189" y2="921.189" gradientTransform="scale(-1 1) rotate(45 1085.78 382.382)" gradientUnits="userSpaceOnUse"><stop offset="0" style="stop-color:#00859c"/><stop offset=".149" style="stop-color:#009eae"/><stop offset=".355" style="stop-color:#00b8c2"/><stop offset=".564" style="stop-color:#00ccd0"/><stop offset=".777" style="stop-color:#00d7d8"/><stop offset="1" style="stop-color:#00dbdb"/></linearGradient><path d="M3.29 49.98c-.59-.59.95-2.14 1.55-1.55l5.4 5.4-.41 1.14-1.14.41c0 .01-4.44-4.44-5.4-5.4z" style="fill:url(#t)"/><linearGradient id="u" x1="16.811" x2="14.626" y1="929.148" y2="929.148" gradientTransform="scale(-1 1) rotate(45 1085.78 382.382)" gradientUnits="userSpaceOnUse"><stop offset="0" style="stop-color:#00859c"/><stop offset=".149" style="stop-color:#009eae"/><stop offset=".355" style="stop-color:#00b8c2"/><stop offset=".564" style="stop-color:#00ccd0"/><stop offset=".777" style="stop-color:#00d7d8"/><stop offset="1" style="stop-color:#00dbdb"/></linearGradient><path d="m53.84 10.24 1.55-1.55 5.4 5.4c.49.49-1.06 2.03-1.55 1.55l-5.4-5.4z" style="fill:url(#u)"/><linearGradient id="v" x1="16.809" x2="14.625" y1="921.189" y2="921.189" gradientTransform="scale(-1 1) rotate(45 1085.78 382.382)" gradientUnits="userSpaceOnUse"><stop offset="0" style="stop-color:#e84600"/><stop offset="1" style="stop-color:#ff931f"/></linearGradient><path d="M48.43 4.84c-.59-.59.95-2.14 1.55-1.55l5.4 5.4-.41 1.14-1.14.41c.01 0-4.44-4.45-5.4-5.4z" style="fill:url(#v)"/><linearGradient id="w" x1="631.902" x2="654.292" y1="-180.045" y2="-180.045" gradientTransform="scale(1 -1) rotate(-45 488.473 642.582)" gradientUnits="userSpaceOnUse"><stop offset="0" style="stop-color:#00dbdb"/><stop offset=".223" style="stop-color:#00d7d8"/><stop offset=".436" style="stop-color:#00ccd0"/><stop offset=".645" style="stop-color:#00b8c2"/><stop offset=".851" style="stop-color:#009eae"/><stop offset="1" style="stop-color:#00859c"/></linearGradient><path d="M2.82 51.55c9.08-.66 20.87 6.8 29.37-3.46-10.46 2.57-23.17-4.02-32.19.64l2.82 2.82z" style="fill:url(#w)"/><linearGradient id="x" x1="631.115" x2="654.227" y1="-156.141" y2="-156.141" gradientTransform="scale(1 -1) rotate(-45 488.473 642.582)" gradientUnits="userSpaceOnUse"><stop offset="0" style="stop-color:#ff931f"/><stop offset="1" style="stop-color:#e84600"/></linearGradient><path d="M51.48 28.05c-9.9 9.6-26.73-7.38-37.84 6.04 11.9-2.93 27.95 9.66 37.84-6.04z" style="fill:url(#x)"/><linearGradient id="y" x1="631.902" x2="654.285" y1="-134.348" y2="-134.348" gradientTransform="scale(1 -1) rotate(-45 488.473 642.582)" gradientUnits="userSpaceOnUse"><stop offset="0" style="stop-color:#e84600"/><stop offset="1" style="stop-color:#ff931f"/></linearGradient><path d="M51.55 2.82 48.73 0c-4.67 9.02 1.92 21.73-.65 32.19 10.27-8.51 2.81-20.29 3.47-29.37z" style="fill:url(#y)"/><linearGradient id="z" x1="631.108" x2="653.49" y1="-134.341" y2="-134.341" gradientTransform="scale(1 -1) rotate(-45 488.473 642.582)" gradientUnits="userSpaceOnUse"><stop offset="0" style="stop-color:#00dbdb"/><stop offset=".223" style="stop-color:#00d7d8"/><stop offset=".436" style="stop-color:#00ccd0"/><stop offset=".645" style="stop-color:#00b8c2"/><stop offset=".851" style="stop-color:#009eae"/><stop offset="1" style="stop-color:#00859c"/></linearGradient><path d="M61.18 12.45c-9.08.66-20.87-6.8-29.37 3.46 10.46-2.58 23.17 4.02 32.19-.65l-2.82-2.81z" style="fill:url(#z)"/></svg>