<svg xmlns="http://www.w3.org/2000/svg" xml:space="preserve" viewBox="0 0 64 64"><path fill="#302C3B" d="m22.566 40.496-4.267 1.283v2.092l4.267-.104z"/><linearGradient id="a" x1="21.75" x2="42.228" y1="40.696" y2="40.696" gradientUnits="userSpaceOnUse"><stop offset="0" style="stop-color:#ab0000"/><stop offset=".051" style="stop-color:#b60002"/><stop offset=".247" style="stop-color:#de0008"/><stop offset=".404" style="stop-color:#f6000d"/><stop offset=".5" style="stop-color:#ff000e"/><stop offset=".596" style="stop-color:#f6000d"/><stop offset=".753" style="stop-color:#de0008"/><stop offset=".949" style="stop-color:#b60002"/><stop offset="1" style="stop-color:#ab0000"/></linearGradient><path fill="url(#a)" d="M21.75 17.393v43.141c0 4.623 20.479 4.623 20.479 0V17.393H21.75z"/><path fill="#6E8189" d="M29.582 8.57h4.824v3.986h-4.824z"/><path fill="#C70000" d="m34.895 13.26-5.801.164V9.439h5.801z"/><linearGradient id="b" x1="21.75" x2="42.228" y1="15.515" y2="15.515" gradientUnits="userSpaceOnUse"><stop offset="0" style="stop-color:#ab0000"/><stop offset=".051" style="stop-color:#b60002"/><stop offset=".247" style="stop-color:#de0008"/><stop offset=".404" style="stop-color:#f6000d"/><stop offset=".5" style="stop-color:#ff000e"/><stop offset=".596" style="stop-color:#f6000d"/><stop offset=".753" style="stop-color:#de0008"/><stop offset=".949" style="stop-color:#b60002"/><stop offset="1" style="stop-color:#ab0000"/></linearGradient><path fill="url(#b)" d="M42.229 17.393c0 1.137-20.479 1.137-20.479 0 0-3.139 5.117-4.607 10.243-4.607 5.128-.001 10.236 1.468 10.236 4.607z"/><linearGradient id="c" x1="23.586" x2="40.402" y1="32.196" y2="32.196" gradientUnits="userSpaceOnUse"><stop offset=".006" style="stop-color:#302c3b"/><stop offset=".099" style="stop-color:#373744"/><stop offset=".347" style="stop-color:#484f57"/><stop offset=".5" style="stop-color:#4e585e"/><stop offset=".655" style="stop-color:#484f57"/><stop offset=".906" style="stop-color:#373744"/><stop offset="1" style="stop-color:#302c3b"/></linearGradient><path fill="url(#c)" d="M40.402 22.768c-3.906.451-12.949.449-16.816-.006v18.092c3.867 1.033 12.91 1.036 16.816.012V22.768z"/><linearGradient id="d" x1="21.777" x2="42.255" y1="33.196" y2="33.196" gradientUnits="userSpaceOnUse"><stop offset="0" style="stop-color:#9ea0a3"/><stop offset=".089" style="stop-color:#bdbec0"/><stop offset=".194" style="stop-color:#dadadc"/><stop offset=".298" style="stop-color:#eeefef"/><stop offset=".401" style="stop-color:#fbfbfb"/><stop offset=".5" style="stop-color:#fff"/><stop offset=".599" style="stop-color:#fbfbfb"/><stop offset=".702" style="stop-color:#eeefef"/><stop offset=".806" style="stop-color:#dadadc"/><stop offset=".911" style="stop-color:#bdbec0"/><stop offset="1" style="stop-color:#9ea0a3"/></linearGradient><path fill="url(#d)" d="M40.402 25.768c-3.906.451-12.949.449-16.816-.006v14.092c3.867 1.033 12.91 1.036 16.816.012V25.768z"/><linearGradient id="e" x1="31.993" x2="31.993" y1="38.696" y2="27.696" gradientUnits="userSpaceOnUse"><stop offset="0" style="stop-color:#ff7b00"/><stop offset=".242" style="stop-color:#fb6b00"/><stop offset=".711" style="stop-color:#f04200"/><stop offset="1" style="stop-color:#e82500"/></linearGradient><path fill="url(#e)" d="M36.125 30.865a1.783 1.783 0 0 1-1.162 1.318s-.234-3.045-2.911-4.488c.107 1.535-1.425 2.303-2.099 3.596-.176-.975-.781-1.816-1.885-2.383.283 1.039-.459 1.855-.977 3.668-1.318 4.599 1.621 6.12 4.901 6.12 5.588 0 6.203-4.994 4.133-7.831z"/><linearGradient id="f" x1="32.096" x2="32.096" y1="38.696" y2="29.198" gradientUnits="userSpaceOnUse"><stop offset="0" style="stop-color:#fa0"/><stop offset=".175" style="stop-color:#ffa400"/><stop offset=".418" style="stop-color:#ff9200"/><stop offset=".701" style="stop-color:#ff7400"/><stop offset="1" style="stop-color:#ff4d00"/></linearGradient><path fill="url(#f)" d="M36.154 32.227c-.732 1.11-1.709 1.113-1.709 1.113s-.234-2.354-1.944-4.143c-.498 2.021-2.167 2.088-2.929 3.999-.293-.827.117-1.63-.938-2.897.322 1.619-.771 2.324-1.035 4.142-.352 2.344 1.973 4.256 4.394 4.256 4.181-.001 5.431-3.815 4.161-6.47z"/><linearGradient id="g" x1="-318.245" x2="-318.245" y1="38.696" y2="30.545" gradientTransform="matrix(-1 0 0 1 -286.236 0)" gradientUnits="userSpaceOnUse"><stop offset="0" style="stop-color:#ffb500"/><stop offset=".087" style="stop-color:#ffba00"/><stop offset=".674" style="stop-color:#ffda00"/><stop offset="1" style="stop-color:#ffe600"/></linearGradient><path fill="url(#g)" d="M31.993 38.696c-2.323 0-4.677-2.85-3.3-5.615.146 1.18 1.123 1.261 1.123 1.261.693-2.281 2.274-2.361 2.842-3.797.898 1.436 1.27 3.943 1.27 3.943s.908-.056 1.699-.819c.508 2.178-.83 5.027-3.634 5.027z"/><linearGradient id="h" x1="-318.099" x2="-318.099" y1="38.329" y2="32.049" gradientTransform="matrix(-1 0 0 1 -286.236 0)" gradientUnits="userSpaceOnUse"><stop offset=".242" style="stop-color:#fff2ab"/><stop offset=".36" style="stop-color:#fff1a5"/><stop offset=".524" style="stop-color:#ffef92"/><stop offset=".715" style="stop-color:#ffec74"/><stop offset=".926" style="stop-color:#ffe74b"/><stop offset="1" style="stop-color:#ffe53b"/></linearGradient><path fill="url(#h)" d="M32.052 38.329c-1.825 0-3.065-2.074-2.938-3.105 0 0 1.348 1.41 1.377.118.029-1.07.645-2.341 2.158-3.293-.323 1.262.723 1.946.547 3.668 0 0 .674.315 1.289-.446.468 1.15-.245 3.058-2.433 3.058z"/><path fill="#BEC3CF" d="M35.578 12.789c0 4.564-7.168 4.564-7.168 0 0-4.576 7.168-4.576 7.168 0z"/><path fill="#C70000" d="M35.021 12.789c0 3.863-6.064 3.863-6.064 0 0-3.873 6.064-3.873 6.064 0z"/><path fill="#04AD00" d="m31.993 12.781 1.505-2.541a3.347 3.347 0 0 0-1.505-.355c-.526 0-1.044.123-1.513.355l1.513 2.541v.004-.002.002-.004z"/><path fill="#FBFF00" d="m31.993 9.994-.614 2.541c.186.232 1.044.232 1.23 0l-.616-2.541v-.002.002z"/><path fill="#BEC3CF" d="M33.498 12.787c0 1.91-3.008 1.91-3.008 0 0-1.916 3.008-1.916 3.008 0z"/><linearGradient id="i" x1="21.581" x2="42.42" y1="42.96" y2="42.96" gradientUnits="userSpaceOnUse"><stop offset=".006" style="stop-color:#302c3b"/><stop offset=".099" style="stop-color:#373744"/><stop offset=".347" style="stop-color:#484f57"/><stop offset=".5" style="stop-color:#4e585e"/><stop offset=".655" style="stop-color:#484f57"/><stop offset=".906" style="stop-color:#373744"/><stop offset="1" style="stop-color:#302c3b"/></linearGradient><path fill="url(#i)" d="M42.229 41.268c-6.25 1.688-15.459 1.458-20.479-.006-.381 1.026 0 2.092 0 2.092 3.984 1.664 15.469 1.81 20.479.012 0-.001.429-1.182 0-2.098z"/><path fill="#302C3B" d="M18.768 44.082c0-10.873-2.354-27.238.166-33.273 1.348-3.232 4.248-4.959 7.764-4.959v2.457c-3.086 0-4.443.98-5.762 3.996-2.09 4.797.068 20.025.068 31.766 0 1.661-2.236 1.889-2.236.013z"/><linearGradient id="j" x1="18.641" x2="21.102" y1="44.887" y2="44.887" gradientUnits="userSpaceOnUse"><stop offset="0" style="stop-color:#d3d9db"/><stop offset=".671" style="stop-color:#909ca0"/><stop offset="1" style="stop-color:#748288"/></linearGradient><path fill="url(#j)" d="M18.641 45.792s.01-1.203.01-1.636c0-.218 2.451-.238 2.451-.021-.01.434-.02 1.636-.02 1.636l-2.441.021z"/><linearGradient id="k" x1="368.725" x2="373.444" y1="-81.927" y2="-79.202" gradientTransform="rotate(-30.006 443.47 641.43)" gradientUnits="userSpaceOnUse"><stop offset="0" style="stop-color:#4e585e"/><stop offset=".321" style="stop-color:#454b54"/><stop offset=".879" style="stop-color:#302c3b"/></linearGradient><path fill="url(#k)" d="M21.355 45.454s1.094 12.38 1.094 13.089c0 1.047-5.449 1.139-5.449.091.01-.707 1.367-13.154 1.367-13.154l2.988-.026z"/><path fill="#B3C2C6" d="M26.355 5.584h3.213V8.57h-3.213z"/><path fill="#D2DBE0" d="M46.833 12.303c.703-.148-.986-2.402-1.729-2.863-.742-.463-14.472-5.107-15.233-4.557-.693.508-1.113 3.916 0 3.916h4.667c.859 0 12.129 3.537 12.295 3.504z"/><path fill="#B3C2C6" d="M29.197 4.367c-1.523 2.727 3.533 4.395 3.758.871C44.567 3.424 45.847-.4 45.104.033c-3.867 2.26-14.559 1.916-15.907 4.334z"/><path fill="#6E8189" d="M31.902 5.383c0 1.137-1.787 1.137-1.787 0 0-1.139 1.787-1.139 1.787 0z"/><linearGradient id="l" x1="19.803" x2="21.75" y1="42.369" y2="42.369" gradientUnits="userSpaceOnUse"><stop offset="0" style="stop-color:#4e585e"/><stop offset=".569" style="stop-color:#363542"/><stop offset=".697" style="stop-color:#302c3b"/></linearGradient><path fill="url(#l)" d="M21.75 40.867s-.59.912-1.947.912v2.092h1.947v-3.004z"/></svg>