<svg xmlns="http://www.w3.org/2000/svg" xml:space="preserve" viewBox="0 0 64 64"><path fill="#D99025" d="m4.628 48.125-2.016 1.637c.231.465.54 1.025.933 1.655l1.418-1.014-1.309 1.188c.263.413.561.855.905 1.324l.082.108a29.403 29.403 0 0 0 1.688 2.065l1.033-.87-.919.995c.351.387.721.782 1.126 1.187.167.167.33.321.494.479l1.734-1.572-1.6 1.704a31.487 31.487 0 0 0 2.26 1.956l.127.096a24.733 24.733 0 0 0 1.988 1.389l1.443-1.811-1.313 1.892c.568.351 1.07.626 1.495.839l.792-1.004-.649 1.075c.651.318 1.1.485 1.289.558 2.611-2.959 9.685-12.98 9.685-12.98L14.979 38.682S4.959 45.76 2 48.37c.079.207.237.614.506 1.172l2.122-1.417z"/><linearGradient id="a" x1="-348.409" x2="-348.409" y1="318.719" y2="300.955" gradientTransform="rotate(45.001 146.227 617.293)" gradientUnits="userSpaceOnUse"><stop offset="0" style="stop-color:#e39b32"/><stop offset=".179" style="stop-color:#e9a840"/><stop offset=".717" style="stop-color:#f7c966"/><stop offset="1" style="stop-color:#fdd674"/></linearGradient><path fill="url(#a)" d="M14.858 61.681c.26.114.518.223.773.319 2.611-2.959 9.685-12.98 9.685-12.98L14.979 38.682S4.959 45.76 2 48.37c.097.254.204.508.319.768.021.045 3.98-2.74 4-2.696.019.041-3.902 2.912-3.883 2.954.022.047.051.095.074.143l2.117-1.412-2.005 1.628c.15.302.298.604.471.906.029.052 2.424-1.537 2.452-1.485.036.063-2.29 1.761-2.252 1.826.082.137.171.275.258.412l1.411-1.009-1.304 1.182.073.118c.012.02 5.233-3.979 5.245-3.961.029.045-5.152 4.105-5.123 4.15.223.337.477.672.724 1.008l.078.109c.112.151.209.305.326.455.023.031 2.273-1.822 2.301-1.789.033.041-2.154 1.977-2.121 2.017.25.319.511.636.777.948.047.055 4.813-4.238 4.861-4.183.025.028-4.668 4.405-4.643 4.436l.176.193 1.029-.868-.916.992c.154.172.308.344.467.514.038.039 2.81-2.677 2.848-2.638.021.022-2.691 2.802-2.67 2.824.315.331.648.646.979.962l1.729-1.566-1.595 1.697c.087.085.17.174.258.256.034.032 5.298-5.203 5.334-5.171.044.041-5.141 5.349-5.096 5.388.19.176.382.345.574.512.056.045 2.803-2.865 2.855-2.82.032.029-2.629 3.014-2.596 3.041.309.262.625.496.94.739l.125.099c.178.137.353.288.531.419.048.035 3.72-4.364 3.767-4.329.031.022-3.562 4.479-3.529 4.501.403.287.807.554 1.211.808l1.438-1.805-1.308 1.884c.281.173.562.346.841.501.039.018 3.125-3.949 3.16-3.928.031.016-2.985 4.021-2.955 4.037.151.081.301.153.451.229l.785-.996-.645 1.067c.065.032.133.069.198.101.058.027 3.301-4.332 3.358-4.305.051.019-3.088 4.427-3.042 4.448z"/><linearGradient id="b" x1="79.565" x2="82.001" y1="62.445" y2="62.445" gradientTransform="rotate(45.001 109.606 -4.843)" gradientUnits="userSpaceOnUse"><stop offset=".345" style="stop-color:#b47d56"/><stop offset="1" style="stop-color:#995f34"/></linearGradient><path fill="url(#b)" d="m22.547 43.176-1.721-1.721S55.202 7.078 59.938 2.34c1.077-1.076 2.796.646 1.722 1.723-4.9 4.898-39.113 39.113-39.113 39.113z"/><linearGradient id="c" x1="78.704" x2="82.858" y1="84.95" y2="84.95" gradientTransform="rotate(45.001 109.606 -4.843)" gradientUnits="userSpaceOnUse"><stop offset="0" style="stop-color:#f0cb6e"/><stop offset="1" style="stop-color:#fbb041"/></linearGradient><path fill="url(#c)" d="m25.826 41.11-2.937-2.937 3.299-2.198 1.835 1.838z"/><linearGradient id="d" x1="80.779" x2="80.779" y1="92.847" y2="85.537" gradientTransform="rotate(45.001 109.606 -4.843)" gradientUnits="userSpaceOnUse"><stop offset="0" style="stop-color:#fdd674"/><stop offset="1" style="stop-color:#fbb855"/></linearGradient><path fill="url(#d)" d="M25.316 38.682a7.315 7.315 0 0 0-10.338 0L25.316 49.02a7.306 7.306 0 0 0 0-10.338z"/><linearGradient id="e" x1="80.781" x2="80.781" y1="84.308" y2="83.794" gradientTransform="rotate(45.001 109.606 -4.843)" gradientUnits="userSpaceOnUse"><stop offset="0" style="stop-color:#99a8ae"/><stop offset=".107" style="stop-color:#a8b6bb"/><stop offset=".297" style="stop-color:#bec9ce"/><stop offset=".482" style="stop-color:#cbd4d9"/><stop offset=".654" style="stop-color:#cfd8dd"/></linearGradient><path fill="url(#e)" d="m27.332 38.959-2.291-2.291.436-.289 2.146 2.144z"/><path fill="#D99025" d="M26.865 41.287c.271.949.449 1.952.312 2.953-.141.995-.552 1.929-1.022 2.801-.963 1.749-2.139 3.355-3.292 4.969l-3.583 4.752a390.912 390.912 0 0 1-3.607 4.732c2.256-3.266 4.673-6.414 6.989-9.631 1.175-1.595 2.37-3.184 3.349-4.901.479-.858.892-1.769 1.047-2.74.172-.972.042-1.974-.193-2.935z" opacity=".3"/><path fill="#D99025" d="M26.67 40.775c.236.961.335 1.979.123 2.966-.215.982-.661 1.893-1.148 2.759-.997 1.728-2.168 3.338-3.325 4.953-2.39 3.173-4.758 6.357-7.19 9.498 2.26-3.268 4.672-6.424 6.99-9.646 1.178-1.598 2.368-3.188 3.382-4.889.497-.854.945-1.745 1.173-2.702.247-.956.192-1.968-.005-2.939z" opacity=".3"/><path fill="#D99025" d="M26.463 40.304c.209.97.262 1.995.004 2.972-.258.975-.738 1.867-1.249 2.721-1.046 1.701-2.243 3.295-3.419 4.897l-7.244 9.483c2.263-3.273 4.688-6.43 7.045-9.632 1.197-1.587 2.416-3.161 3.477-4.835.521-.841 1.004-1.717 1.273-2.666.292-.945.283-1.961.113-2.94z" opacity=".3"/><path fill="#D99025" d="M26.395 40.049c.099.982.033 2.002-.308 2.947-.342.941-.872 1.795-1.423 2.62-1.12 1.642-2.349 3.2-3.548 4.775-2.472 3.099-4.853 6.265-7.282 9.397 2.255-3.26 4.684-6.396 7.086-9.549 1.221-1.561 2.471-3.1 3.607-4.717.561-.813 1.092-1.65 1.445-2.57.373-.911.481-1.915.423-2.903z" opacity=".3"/><path fill="#D99025" d="M26.262 39.916a8.63 8.63 0 0 1-.797 2.914c-.44.916-.996 1.765-1.573 2.594-1.162 1.654-2.413 3.238-3.655 4.828-2.549 3.129-5.045 6.295-7.613 9.409 2.398-3.245 4.939-6.382 7.418-9.564 1.262-1.571 2.535-3.138 3.717-4.769 1.162-1.623 2.266-3.381 2.503-5.412zm-.946-1.234c-1.426 1.516-2.845 3.036-4.29 4.533l-4.313 4.511c-2.932 2.954-5.813 5.956-8.83 8.825l8.651-8.998c2.934-2.951 5.794-5.975 8.782-8.871zm.213.222c-1.15 1.689-2.431 3.29-3.772 4.832a158.494 158.494 0 0 1-4.112 4.553c-2.848 2.935-5.703 5.861-8.667 8.676 2.812-2.967 5.706-5.854 8.485-8.847a160.68 160.68 0 0 0 4.169-4.49c1.348-1.532 2.668-3.091 3.897-4.724zm.224.255c-.903 1.812-2.112 3.457-3.399 5.018-1.285 1.564-2.645 3.067-4.012 4.559-2.794 2.925-5.569 5.862-8.393 8.76 2.665-3.044 5.483-5.946 8.21-8.931 1.388-1.47 2.763-2.951 4.067-4.492 1.29-1.552 2.538-3.149 3.527-4.914z" opacity=".3"/><path fill="#D99025" d="M25.979 39.44a23.103 23.103 0 0 1-1.346 2.706 23.777 23.777 0 0 1-1.743 2.473c-1.256 1.578-2.607 3.074-3.945 4.576l-8.172 8.889c2.588-3.085 5.313-6.047 7.987-9.055 1.357-1.486 2.728-2.959 4.001-4.515a23.588 23.588 0 0 0 3.218-5.074z" opacity=".3"/><path fill="#D99025" d="M26.106 39.615c-.286.971-.636 1.927-1.097 2.834-.467.902-1.031 1.752-1.629 2.57-1.205 1.633-2.521 3.176-3.818 4.729l-7.92 9.207c2.49-3.195 5.135-6.265 7.729-9.369 1.319-1.534 2.653-3.057 3.875-4.666 1.228-1.602 2.233-3.375 2.86-5.305zm-3.38-2.467c-.96-.233-1.962-.366-2.934-.193-.972.156-1.882.57-2.741 1.049-1.717.979-3.304 2.174-4.9 3.35-3.217 2.315-6.366 4.731-9.632 6.987a415.626 415.626 0 0 1 4.734-3.607l4.752-3.583c1.612-1.153 3.219-2.328 4.966-3.291.874-.471 1.808-.883 2.803-1.023.999-.138 2.004.04 2.952.311z" opacity=".3"/><path fill="#D99025" d="M23.237 37.345c-.969-.198-1.982-.253-2.938-.005-.959.227-1.85.676-2.701 1.174-1.701 1.012-3.293 2.204-4.89 3.381-3.223 2.318-6.379 4.729-9.647 6.988 3.143-2.432 6.328-4.798 9.501-7.19 1.615-1.155 3.225-2.327 4.953-3.323.866-.486 1.775-.934 2.757-1.149.989-.212 2.005-.114 2.965.124z" opacity=".3"/><path fill="#D99025" d="M23.709 37.55c-.979-.168-1.994-.178-2.939.114-.95.27-1.825.752-2.666 1.273-1.674 1.061-3.25 2.279-4.834 3.477-3.204 2.357-6.358 4.781-9.632 7.047l9.481-7.247c1.602-1.177 3.196-2.372 4.898-3.418.853-.512 1.746-.991 2.721-1.249.977-.258 2.002-.205 2.971.003z" opacity=".3"/><path fill="#D99025" d="M23.964 37.618c-.989-.058-1.992.05-2.902.422-.92.354-1.759.886-2.57 1.448-1.617 1.135-3.157 2.385-4.718 3.605-3.152 2.403-6.288 4.83-9.549 7.086 3.133-2.43 6.299-4.811 9.397-7.283 1.575-1.199 3.132-2.428 4.775-3.547.825-.551 1.679-1.081 2.622-1.422.944-.342 1.962-.407 2.945-.309z" opacity=".3"/><path fill="#D99025" d="M24.098 37.752c-2.032.236-3.79 1.34-5.412 2.504-1.632 1.182-3.196 2.455-4.77 3.716-3.184 2.478-6.318 5.021-9.563 7.419 3.111-2.568 6.277-5.066 9.406-7.613 1.593-1.242 3.176-2.492 4.83-3.656.828-.577 1.678-1.133 2.594-1.573a8.601 8.601 0 0 1 2.915-.797zm1.011.731c-1.63 1.233-3.121 2.628-4.601 4.032a245.36 245.36 0 0 0-4.345 4.313c-2.92 2.854-5.774 5.775-8.739 8.586 2.813-2.963 5.706-5.844 8.563-8.764 1.456-1.43 2.914-2.86 4.407-4.256 1.491-1.397 3.029-2.755 4.715-3.911zm-.254-.223c-1.766.99-3.334 2.274-4.853 3.596-1.51 1.338-2.958 2.746-4.401 4.158-2.932 2.781-5.809 5.622-8.849 8.285l8.676-8.463c1.462-1.395 2.933-2.785 4.466-4.105 1.53-1.319 3.149-2.567 4.961-3.471z" opacity=".3"/><path fill="#D99025" d="M24.572 38.033a23.818 23.818 0 0 0-5.074 3.218c-1.555 1.274-3.03 2.644-4.514 4.001-3.008 2.674-5.971 5.399-9.057 7.988l8.89-8.173c1.503-1.339 3-2.689 4.577-3.944a23.725 23.725 0 0 1 2.473-1.744 23.405 23.405 0 0 1 2.705-1.346z" opacity=".3"/><path fill="#D99025" d="M24.398 37.906c-1.931.628-3.704 1.633-5.306 2.859-1.608 1.223-3.131 2.557-4.667 3.877-3.104 2.594-6.173 5.238-9.367 7.727l9.206-7.919c1.555-1.296 3.097-2.612 4.729-3.817.818-.598 1.666-1.164 2.57-1.629.91-.459 1.865-.813 2.835-1.098z" opacity=".3"/><path fill="#C21413" d="M9.16 42.866c-.137.101-.274.202-.411.306.896 1.885 10.194 11.183 12.081 12.078.102-.136.203-.271.305-.41-1.814-.869-11.105-10.163-11.975-11.974z"/><linearGradient id="f" x1="80.731" x2="80.731" y1="93.331" y2="92.554" gradientTransform="rotate(45.001 109.606 -4.843)" gradientUnits="userSpaceOnUse"><stop offset="0" style="stop-color:#99a8ae"/><stop offset=".107" style="stop-color:#a8b6bb"/><stop offset=".297" style="stop-color:#bec9ce"/><stop offset=".482" style="stop-color:#cbd4d9"/><stop offset=".654" style="stop-color:#cfd8dd"/></linearGradient><path fill="url(#f)" d="M25.075 49.463 14.466 38.854l.546-.549 10.613 10.609z"/><path fill="#C21413" d="M10.702 41.747c-.14.099-.275.198-.415.299.796 1.599 10.069 10.873 11.668 11.667.099-.142.2-.277.299-.414-1.516-.762-10.788-10.035-11.552-11.552zm12.367 10.424c.103-.142.201-.28.298-.419-1.201-.629-10.49-9.918-11.122-11.119-.136.098-.272.197-.416.298.667 1.287 9.952 10.573 11.24 11.24z"/></svg>