<svg xmlns="http://www.w3.org/2000/svg" xml:space="preserve" viewBox="0 0 64 64"><path fill="#B8703D" d="M47.887 49.412c0 10.512-31.771 10.512-31.771.001.001-23.217 31.771-23.217 31.771-.001z"/><path fill="#F5BB87" d="M22.595 43.258c0-12.58 18.812-12.578 18.812-.001 0 12.786-18.812 12.786-18.812.001z"/><linearGradient id="a" x1=".59" x2="26.251" y1="-37.496" y2="-37.496" gradientTransform="matrix(.9675 0 0 1.3195 1.429 99.34)" gradientUnits="userSpaceOnUse"><stop offset="0" style="stop-color:#b8703d"/><stop offset=".31" style="stop-color:#bc7441"/><stop offset=".626" style="stop-color:#c8804d"/><stop offset=".945" style="stop-color:#dc9362"/><stop offset="1" style="stop-color:#e09766"/></linearGradient><path fill="url(#a)" d="M26.73 55.637c-9.043 7.525-20.909 10.366-24.082-2.773-3.834-15.88 10.474-20.088 13.654-8.674 3.321-.637 11.506 1.734 10.428 11.447z"/><path fill="#F5BB87" d="M13.791 47.855c2.215 13.28-6.777 16.256-10.258 5.315-3.824-12.022 8.05-18.543 10.258-5.315z"/><path fill="#C4926E" d="M9.274 58.391c-.09 0-.185-.006-.276-.016l.078-.789c.432.051.846-.055 1.222-.302l.396.674a2.57 2.57 0 0 1-1.42.433zm-1.857-.655a5.912 5.912 0 0 1-1.197-1.168l.578-.507c.33.421.679.763 1.038 1.018l-.419.657zm4.44-1.066-.641-.412a5.74 5.74 0 0 0 .551-1.384l.723.216a6.562 6.562 0 0 1-.633 1.58zm-6.533-1.49a13.67 13.67 0 0 1-.681-1.498l.693-.301c.195.506.411.979.641 1.408l-.653.391zm7.456-1.742-.746-.081c.04-.402.06-.833.06-1.279l-.003-.282.75-.018.003.3c-.001.473-.022.931-.064 1.36zm-8.655-1.317c-.15-.545-.269-1.09-.35-1.619l.74-.129c.076.498.188 1.012.329 1.525l-.719.223zm7.865-1.9a20.858 20.858 0 0 0-.227-1.564l.727-.207.013.068c.1.557.177 1.098.231 1.615l-.744.088zm-8.36-1.383-.002-.18c0-.516.036-1.019.107-1.496l.741.123a9.38 9.38 0 0 0-.098 1.373l.001.166-.749.014zm7.768-1.758a10.418 10.418 0 0 0-.533-1.443l.674-.35c.217.47.41.994.576 1.559l-.717.234zm-6.553-1.27-.7-.284a6.451 6.451 0 0 1 .776-1.508l.602.473a5.514 5.514 0 0 0-.678 1.319zm5.254-1.456c-.321-.41-.674-.729-1.046-.945l.36-.693c.457.265.882.646 1.265 1.135l-.579.503zm-3.572-.859-.395-.673c.516-.336 1.062-.518 1.624-.538l.026.792a2.456 2.456 0 0 0-1.255.419z"/><linearGradient id="b" x1="-9.245" x2="16.413" y1="-37.498" y2="-37.498" gradientTransform="matrix(-.9675 0 0 1.3195 53.055 99.34)" gradientUnits="userSpaceOnUse"><stop offset="0" style="stop-color:#b8703d"/><stop offset=".31" style="stop-color:#bc7441"/><stop offset=".626" style="stop-color:#c8804d"/><stop offset=".945" style="stop-color:#dc9362"/><stop offset="1" style="stop-color:#e09766"/></linearGradient><path fill="url(#b)" d="M37.272 55.642c9.041 7.525 20.907 10.356 24.079-2.784 3.835-15.879-10.473-20.087-13.651-8.672-3.32-.638-11.506 1.742-10.428 11.456z"/><path fill="#F5BB87" d="M50.21 47.855c-2.214 13.28 6.776 16.256 10.258 5.315 3.823-12.022-8.05-18.543-10.258-5.315z"/><radialGradient id="c" cx="41.865" cy="-34.114" r="10.43" gradientTransform="matrix(-.8859 -.4175 -.3728 1.3657 63.204 112.848)" gradientUnits="userSpaceOnUse"><stop offset=".467" style="stop-color:#c47841"/><stop offset=".661" style="stop-color:#c17640"/><stop offset=".832" style="stop-color:#b66f3d"/><stop offset=".993" style="stop-color:#a46537"/><stop offset="1" style="stop-color:#a36437"/></radialGradient><path fill="url(#c)" d="M33.45 50.217c.775-2.051 2.639-2.293 3.493-3.492 5.501-7.725 2.163-12.332 5.339-14.164 5.794.569 8.936 12.918 4.285 23.262-4.338 9.646-15.603 6.891-13.041-.706.27-.8-.638-3.415-.076-4.9z"/><radialGradient id="d" cx="-874.028" cy="-34.114" r="10.43" gradientTransform="matrix(.8859 -.4175 .3728 1.3657 812.228 -269.54)" gradientUnits="userSpaceOnUse"><stop offset=".467" style="stop-color:#c47841"/><stop offset=".661" style="stop-color:#c17640"/><stop offset=".832" style="stop-color:#b66f3d"/><stop offset=".993" style="stop-color:#a46537"/><stop offset="1" style="stop-color:#a36437"/></radialGradient><path fill="url(#d)" d="M30.552 50.217c-.775-2.051-2.639-2.293-3.494-3.492-5.5-7.725-2.162-12.332-5.338-14.164-5.795.569-8.936 12.918-4.285 23.262 4.338 9.646 15.603 6.891 13.041-.706-.27-.8.638-3.415.076-4.9z"/><path fill="#C4926E" d="m53.308 57.958.396-.674a1.8 1.8 0 0 0 1.222.302l.078.789a2.564 2.564 0 0 1-1.696-.417zm2.856-.879a5.09 5.09 0 0 0 1.038-1.018l.578.507c-.377.479-.78.871-1.197 1.168l-.419-.657zm-4.653-1.989.723-.216c.141.528.325.993.551 1.384l-.641.412a6.562 6.562 0 0 1-.633-1.58zm6.512-.301c.229-.429.445-.902.641-1.408l.693.301a14.057 14.057 0 0 1-.681 1.498l-.653-.391zm-6.866-2.712.003-.3.75.018-.003.282c0 .446.02.877.06 1.279l-.746.081a14.006 14.006 0 0 1-.064-1.36zm7.999-.179c.141-.514.253-1.027.329-1.525l.74.129a14.071 14.071 0 0 1-.35 1.619l-.719-.223zm-7.889-1.765c.055-.518.132-1.059.231-1.615l.013-.068.726.207a21.444 21.444 0 0 0-.226 1.564l-.744-.088zm8.352-1.309.002-.166c0-.474-.032-.936-.098-1.373l.74-.123c.072.478.108.98.108 1.496l-.003.18-.749-.014zm-7.734-1.978c.167-.564.36-1.089.577-1.559l.674.35c-.2.432-.379.918-.533 1.443l-.718-.234zm6.592-2.356.602-.473c.313.44.572.947.777 1.508l-.701.284a5.552 5.552 0 0 0-.678-1.319zm-5.155-.64c.383-.488.808-.87 1.265-1.135l.36.693a3.758 3.758 0 0 0-1.046.945l-.579-.503zm2.896-.774.026-.792c.563.021 1.107.202 1.624.538l-.395.673a2.459 2.459 0 0 0-1.255-.419z"/><path fill="#B8703D" d="M47.723 26.308c-9.791-1.724-7.105-16.944 2.684-15.218 9.788 1.728 7.105 16.943-2.684 15.218z"/><path fill="#F5BB87" d="M53.473 19.479c-1.075 6.083-9.887 4.531-8.813-1.556 1.07-6.087 9.886-4.534 8.813 1.556z"/><path fill="#B8703D" d="M19.623 21.354c-9.794-1.728-7.11-16.944 2.686-15.218 9.785 1.726 7.104 16.943-2.686 15.218z"/><path fill="#F5BB87" d="M25.368 14.521c-1.073 6.086-9.887 4.531-8.813-1.551 1.077-6.09 9.887-4.536 8.813 1.551z"/><radialGradient id="e" cx="138.375" cy="-11.709" r="23.407" gradientTransform="matrix(.9848 .1736 -.1799 1.0206 -103.665 6.579)" gradientUnits="userSpaceOnUse"><stop offset="0" style="stop-color:#e09766"/><stop offset=".392" style="stop-color:#cf8654"/><stop offset="1" style="stop-color:#b8703d"/></radialGradient><path fill="url(#e)" d="M50.412 30.339c-1.851 10.499-14.249 12.427-19.903 11.429-5.656-.998-16.647-7.047-14.796-17.546 4.089-23.19 38.788-17.073 34.699 6.117z"/><path fill="#1A1626" d="M26.568 22.27c.998.176 1.631 1.324 1.411 2.563-.219 1.24-1.205 2.105-2.203 1.93-1.002-.178-1.635-1.328-1.418-2.57.22-1.238 1.208-2.097 2.21-1.923z"/><path fill="#6E8189" d="M26.018 23.445c-.132.75-1.037.588-.906-.157.133-.75 1.036-.59.906.157z"/><path fill="#1A1626" d="M40.886 24.795c.995.177 1.633 1.322 1.413 2.564-.219 1.241-1.207 2.104-2.207 1.926-1-.175-1.635-1.324-1.414-2.565.219-1.241 1.203-2.101 2.208-1.925z"/><path fill="#6E8189" d="M40.334 25.972c-.131.746-1.034.587-.904-.159.133-.75 1.037-.589.904.159z"/><path fill="#F5BB87" d="M23.999 30.584c.519-2.917 4.912-7.427 9.647-6.595 4.73.835 7.32 6.577 6.804 9.499-1.601 9.077-18.044 6.18-16.451-2.904z"/><path fill="#785647" d="M32.641 33.105c.074-.425.681-3.868.771-4.371l-1.169-.207c-.09.502-.696 3.946-.772 4.373-.174.992-4.283 1.305-5.091-1.552.674 4.104 5.389 3.284 5.389 3.284s4.145 2.384 6.182-1.244c-1.74 2.411-5.485.711-5.31-.283z"/><path fill="#45332C" d="M36.096 29.883c-.35 1.966-7.119.771-6.773-1.192.583-3.306 7.344-2.112 6.773 1.192z"/></svg>