<svg xmlns="http://www.w3.org/2000/svg" xml:space="preserve" viewBox="0 0 64 64"><path fill="#AF0505" d="M32.003 9.869c-4.346 0-25.459 4.977-9.516 39.149l.951-1.701s-.853-7.552-2.313-20.175c-.619-6.565 4.148-12.551 10.877-12.551 6.729 0 11.489 5.985 10.87 12.551-1.459 12.623-2.312 20.175-2.312 20.175l.951 1.701c12.88-29.657 3.36-39.149-9.508-39.149z"/><path fill="#98A7AD" d="m23.438 47.317-.951 1.701-10.82.965 11.469 11.139.445-.536.842-2.858c-.521-5.627-.985-10.411-.985-10.411zm18.075 1.702-.951-1.701s-.464 4.783-.984 10.41l.842 2.858.445.536 11.469-11.139-10.821-.964z"/><path fill="#F36C60" d="M32.003 2C17.95 2 7.834 14.164 9.108 27.684c1.607 13.884 2.176 18.666 2.559 22.3l.975-.087c-.38-3.607-.944-8.359-2.559-22.316C8.86 14.622 18.559 2.983 32.003 2.983c13.446 0 23.136 11.639 21.915 24.597-1.615 13.957-2.18 18.709-2.561 22.316l.976.087c.384-3.634.951-8.416 2.559-22.3C56.166 14.164 46.058 2 32.003 2z"/><path fill="#E5EAEE" d="m13.29 62 9.846-.878.445-.536c-.578-6.252-.773-8.525-1.094-11.567l-10.82.965c.324 3.075.516 5.328 1.093 11.573l.53.443zm37.419 0-9.845-.878-.445-.536c.579-6.252.773-8.525 1.094-11.567l10.82.965c-.324 3.075-.517 5.328-1.093 11.573l-.531.443z"/><path fill="#B3C2C6" d="m12.76 61.557 10.821-.971-.445.536L13.29 62zm27.659-.971.445.536 9.845.878.531-.443z"/><path fill="#C11413" d="M32.003 11.674c-8.053 0-13.803 7.142-13.059 15.031 1.623 14.028 2.188 18.805 2.567 22.401l.976-.088c-.384-3.644-.947-8.391-2.568-22.416-.688-7.294 4.607-13.944 12.084-13.944 7.478 0 12.767 6.65 12.079 13.944-1.622 14.025-2.186 18.772-2.569 22.416l.976.088c.379-3.597.944-8.373 2.567-22.401.744-7.89-4.998-15.031-13.053-15.031z"/><path fill="#CFD8DD" d="m50.752 61.51 1.078-11.572-9.846-.876-1.078 11.571z"/><path fill="#E81C27" d="M48.355 9.579C44.096 5.009 38.287 2.492 32 2.492c-6.288 0-12.097 2.517-16.356 7.087-4.473 4.799-6.681 11.344-6.049 18.047l2.574 22.313 9.846-.877-2.584-22.413c-.369-3.91.914-7.757 3.518-10.551 2.364-2.536 5.578-3.932 9.052-3.932s6.688 1.396 9.052 3.932c2.604 2.794 3.887 6.641 3.518 10.551l-2.585 22.413 9.846.877 2.575-22.313c.63-6.703-1.578-13.248-6.052-18.047z"/><path fill="#CFD8DD" d="m13.247 61.51-1.078-11.572 9.846-.876 1.078 11.571z"/></svg>