<svg xmlns="http://www.w3.org/2000/svg" xml:space="preserve" style="enable-background:new 0 0 64 64" viewBox="0 0 64 64"><linearGradient id="a" x1="18.367" x2="31.539" y1="53.468" y2="45.872" gradientUnits="userSpaceOnUse"><stop offset="0" style="stop-color:#a63a1e"/><stop offset=".289" style="stop-color:#a3381d"/><stop offset=".506" style="stop-color:#993419"/><stop offset=".698" style="stop-color:#892b12"/><stop offset=".875" style="stop-color:#732009"/><stop offset="1" style="stop-color:#5e1500"/></linearGradient><path d="M36.13 53.74c-.39 0-.66.47-.81.54-1.39.58-6.44 2.19-7.12 2.4-.35.11-2.98.09-3.39.51-.98 1.02-2.58.73-3.6 2.3-.09.14-3.08 1.34-3.76 1.34-3.01 0-1.84-16.76-1.84-16.76s18.8-8.69 22.71-4.74c2.27 2.29 3.15 14.41-2.19 14.41z" style="fill:url(#a)"/><path d="M2.64 56.2c2.59.87 3.54 1.19 5.31 1.92.62.26 1.95-.44 2.44.28.12.18 2.07.67 2.44 1.29.06.1 3.27 1.13 4.62 1.13.12 0 .35-15.06.35-15.06S3.4 40.25 2.2 41.55c-.23.25.14 5.52.14 5.52s-.35.58-.34.84c.13 5.07-.08 8.04.64 8.29z" style="fill:#d14b1d"/><linearGradient id="b" x1="12.214" x2="25.63" y1="43.317" y2="38.343" gradientUnits="userSpaceOnUse"><stop offset="0" style="stop-color:#f2682e"/><stop offset=".195" style="stop-color:#ee652d"/><stop offset=".401" style="stop-color:#e15e29"/><stop offset=".614" style="stop-color:#cc5123"/><stop offset=".828" style="stop-color:#ae401b"/><stop offset="1" style="stop-color:#912e13"/></linearGradient><path d="M23.71 36.26s-17.16 3.5-18.8 4.59c-.33.22-1.16.06-1.46.15-1.06.34-1.41.48-1.26.64.76.82 12.72 3.57 15.6 4.1.09.02 14.45-4.29 14.45-4.29l-8.53-5.19z" style="fill:url(#b)"/><path d="m3.95 42.38 13.63 3.73.09 7.19.25-3.01 1.4-1.72-1.4.82.18-2.96 6.58-2.46 1.4.05-.11-.38 1.92-.62-.15-.26-9.07 2.61-1.28.15z" style="fill:#ff7b45"/><path d="M61.96 45.87c.35.55-1.83 4.04-3.99 9.33-.49 1.21-10.98 7.36-11.95 6.76-1.05-.65.8-8.7 5.47-10.28.65-.22 9.79-6.87 10.47-5.81z" style="fill:#912e13"/><path d="M17.25 20.97c1.18-.22 35.32 28.94 34.23 30.71-3.92 6.4-5.23 10.44-5.47 10.28-3.01-2.07-8.63-7.81-8.8-8.13-.79-2.74-3.41-3.8-3.92-4.28C22.31 39.28 23.7 38.79 22.1 38.61c-.57-.06-6.08-5.12-8.57-7.69-.17-.16 3.15-9.84 3.72-9.95z" style="fill:#d14b1d"/><path d="M30.7 18c.41-.11 4.4 3.11 9.4 7.4.58.5 1.27 1.31 1.87 1.83.34.29.58.29.92.59 8.65 7.54 18.77 16.86 19.06 18.05.32 1.28-10.35 5.92-10.48 5.81-6.14-5.33-30.31-27.36-34.3-30.59-.53-.44 12.34-2.77 13.53-3.09z" style="fill:#f2682e"/><path d="M51.51 51.45 40.1 41.01l.57-.31-1.62-.12-2.19-2.45-.44-.89-.94-.81-7.74-6.74-1-1.02 1.56-.12-2.37-.36-1.06-1.02.56-.42-1.5.06-6.74-5.74 6.37 6.1.37.84.62-.49.84.75-.52 1.47 1.25-.55 1.25.84 7.44 7.48.44 1.49 1.28-.74 2.22 2.47.5 1.23.33-.65L50.93 51.8l-4.46 9.38s3.25-6.07 4.75-8.62c.12-.21.62.46.62.46s.21-1.16.52-1.38c1.08-.75 4.94-2.41 4.94-2.41l.09.83s.43-1.01.74-1.17c2.23-1.15 3.68-2.65 3.68-2.65s-2.85 2.1-3.99 2.37c-.17.04-.68-.05-.68-.05l.01.42-5.64 2.47z" style="fill:#ff7b45"/></svg>