<svg xmlns="http://www.w3.org/2000/svg" xml:space="preserve" viewBox="0 0 64 64"><linearGradient id="a" x1="20.489" x2="58" y1="54.465" y2="54.465" gradientUnits="userSpaceOnUse"><stop offset=".285" style="stop-color:#de000d"/><stop offset=".463" style="stop-color:#d8000c"/><stop offset=".698" style="stop-color:#c80008"/><stop offset=".963" style="stop-color:#ac0001"/><stop offset="1" style="stop-color:#a80000"/></linearGradient><path fill="url(#a)" d="M55.037 50.626c-4.165-2.618-11.771-3.81-14.969-1.357-1.791 1.374-1.81 2.622-1.509 3.427.838 2.254 4.798 2.903 8.652 2.575l.652-1.252c-3.922.421-8.074-.18-8.074-1.869 0-4.093 9.456-3.629 14.335-.774 3.518 2.059 3.764 5.061-1.25 7.278-3.579 1.582-8.022 1.069-12.659.238-5.466-.977-11.657-2.084-18.895.227-1.424.457-.873 1.578.545 1.125 6.813-2.181 12.774-1.112 18.035-.17 2.631.47 5.179.926 7.623.926 1.95 0 3.835-.29 5.645-1.091 3.13-1.384 4.707-2.978 4.826-4.871.069-1.121-.388-2.8-2.957-4.412z"/><linearGradient id="b" x1="31.424" x2="55.975" y1="47.902" y2="47.902" gradientUnits="userSpaceOnUse"><stop offset=".218" style="stop-color:#a80000"/><stop offset=".259" style="stop-color:#ac0001"/><stop offset=".549" style="stop-color:#c80008"/><stop offset=".805" style="stop-color:#d8000c"/><stop offset="1" style="stop-color:#de000d"/></linearGradient><path fill="url(#b)" d="M55.729 48.237c-.853-1.867-3.729-2.552-7.161-3.398-3.368-.83-11.318-1.857-14.04-4.304v1.72c2.937 2.052 10.495 2.974 13.615 3.742 4.71 1.161 6.299 1.593 6.645 3.005.577 2.362-3.46 4.66-6.752 4.998-.22.022-.611.064-.823.079v1.191c6.424-.477 9.727-4.369 8.516-7.033z"/><linearGradient id="c" x1="6" x2="38.275" y1="51.004" y2="51.004" gradientUnits="userSpaceOnUse"><stop offset="0" style="stop-color:#bd8359"/><stop offset=".319" style="stop-color:#b77d53"/><stop offset=".761" style="stop-color:#a56b41"/><stop offset="1" style="stop-color:#995f34"/></linearGradient><path fill="url(#c)" d="M6 46.809v4.072c0 5.735 32.299 5.766 32.275.053v-4.125H6z"/><linearGradient id="d" x1="6" x2="38.275" y1="47.418" y2="47.418" gradientUnits="userSpaceOnUse"><stop offset="0" style="stop-color:#cc946c"/><stop offset=".259" style="stop-color:#c78f66"/><stop offset=".618" style="stop-color:#bb7f54"/><stop offset="1" style="stop-color:#a86939"/></linearGradient><path fill="url(#d)" d="M8.082 44.063S6 45.332 6 46.808c0 5.286 32.275 5.286 32.275 0 0-1.278-2.083-2.745-2.083-2.745H8.082z"/><path fill="#A16437" d="M36.483 44.563c.01 2.994-28.689 2.994-28.689 0 0-3.018 28.684-2.994 28.689 0z"/><linearGradient id="e" x1="9.399" x2="34.88" y1="28.447" y2="28.447" gradientUnits="userSpaceOnUse"><stop offset="0" style="stop-color:#ff000e"/><stop offset=".21" style="stop-color:#f9000c"/><stop offset=".486" style="stop-color:#e90007"/><stop offset=".782" style="stop-color:#cf0000"/></linearGradient><path fill="url(#e)" d="M9.399 10.95v32.694c.015 3.041 25.493 3.077 25.48.033V10.95H9.399z"/><linearGradient id="f" x1="9.399" x2="34.88" y1="28.472" y2="28.472" gradientUnits="userSpaceOnUse"><stop offset="0" style="stop-color:#de000d"/><stop offset=".231" style="stop-color:#d8000b"/><stop offset=".535" style="stop-color:#c80006"/><stop offset=".782" style="stop-color:#b50000"/></linearGradient><path fill="url(#f)" d="M9.399 25.471v2.322c.015 4.876 25.497 4.922 25.48.043v-2.322c.016 4.065-25.469 4.021-25.48-.043z"/><linearGradient id="g" x1="9.399" x2="34.88" y1="35.389" y2="35.389" gradientUnits="userSpaceOnUse"><stop offset="0" style="stop-color:#de000d"/><stop offset=".195" style="stop-color:#d8000c"/><stop offset=".451" style="stop-color:#c80008"/><stop offset=".741" style="stop-color:#ac0001"/><stop offset=".782" style="stop-color:#a80000"/></linearGradient><path fill="url(#g)" d="M9.399 32.388v2.322c.015 4.879 25.497 4.922 25.48.044v-2.322c.016 4.064-25.469 4.021-25.48-.044z"/><linearGradient id="h" x1="9.399" x2="34.88" y1="20.418" y2="20.418" gradientUnits="userSpaceOnUse"><stop offset="0" style="stop-color:#de000d"/><stop offset=".231" style="stop-color:#d8000b"/><stop offset=".535" style="stop-color:#c80006"/><stop offset=".782" style="stop-color:#b50000"/></linearGradient><path fill="url(#h)" d="M9.399 16.902v2.721c.015 5.713 25.497 5.767 25.48.051v-2.72c.016 4.763-25.469 4.71-25.48-.052z"/><linearGradient id="i" x1="9.399" x2="34.88" y1="24.018" y2="24.018" gradientUnits="userSpaceOnUse"><stop offset="0" style="stop-color:#de000d"/><stop offset=".195" style="stop-color:#d8000c"/><stop offset=".451" style="stop-color:#c80008"/><stop offset=".741" style="stop-color:#ac0001"/><stop offset=".782" style="stop-color:#a80000"/></linearGradient><path fill="url(#i)" d="M9.399 20.379v2.554c.015 3.991 25.497 6.772 25.48 2.783v-2.268c.016 3.327-25.469.255-25.48-3.069z"/><linearGradient id="j" x1="9.399" x2="34.88" y1="15.912" y2="15.912" gradientUnits="userSpaceOnUse"><stop offset="0" style="stop-color:#de000d"/><stop offset=".195" style="stop-color:#d8000c"/><stop offset=".451" style="stop-color:#c80008"/><stop offset=".741" style="stop-color:#ac0001"/><stop offset=".782" style="stop-color:#a80000"/></linearGradient><path fill="url(#j)" d="M9.399 12.273v2.555c.015 3.991 25.497 6.771 25.48 2.782v-2.266c.016 3.326-25.469.254-25.48-3.071z"/><linearGradient id="k" x1="9.399" x2="34.88" y1="30.782" y2="30.782" gradientUnits="userSpaceOnUse"><stop offset="0" style="stop-color:#de000d"/><stop offset=".231" style="stop-color:#d8000b"/><stop offset=".535" style="stop-color:#c80006"/><stop offset=".782" style="stop-color:#b50000"/></linearGradient><path fill="url(#k)" d="M9.399 26.335v3.123c.015 4.877 25.497 8.276 25.48 3.4v-2.77c.016 4.065-25.469.31-25.48-3.753z"/><linearGradient id="l" x1="9.399" x2="34.88" y1="36.553" y2="36.553" gradientUnits="userSpaceOnUse"><stop offset="0" style="stop-color:#de000d"/><stop offset=".231" style="stop-color:#d8000b"/><stop offset=".535" style="stop-color:#c80006"/><stop offset=".782" style="stop-color:#b50000"/></linearGradient><path fill="url(#l)" d="M9.399 32.104v3.123c.015 4.877 25.497 8.278 25.48 3.4V35.86c.016 4.063-25.469.31-25.48-3.756z"/><linearGradient id="m" x1="9.399" x2="34.88" y1="40.844" y2="40.844" gradientUnits="userSpaceOnUse"><stop offset="0" style="stop-color:#de000d"/><stop offset=".195" style="stop-color:#d8000c"/><stop offset=".451" style="stop-color:#c80008"/><stop offset=".741" style="stop-color:#ac0001"/><stop offset=".782" style="stop-color:#a80000"/></linearGradient><path fill="url(#m)" d="M9.399 36.396v3.122c.015 4.877 25.497 8.277 25.48 3.4v-2.77c.016 4.065-25.469.311-25.48-3.752z"/><linearGradient id="n" x1="6" x2="38.275" y1="11.093" y2="11.093" gradientUnits="userSpaceOnUse"><stop offset="0" style="stop-color:#bd8359"/><stop offset=".319" style="stop-color:#b77d53"/><stop offset=".761" style="stop-color:#a56b41"/><stop offset="1" style="stop-color:#995f34"/></linearGradient><path fill="url(#n)" d="M38.275 9.587C38.275 4.303 6 4.303 6 9.587c0 1.257 2.236 4.539 2.236 4.539s2.737 2.437 13.93 2.437c11.102 0 13.868-2.432 13.868-2.432s2.241-3.073 2.241-4.544z"/><linearGradient id="o" x1="6" x2="38.275" y1="9.849" y2="9.849" gradientUnits="userSpaceOnUse"><stop offset="0" style="stop-color:#cc946c"/><stop offset=".259" style="stop-color:#c78f66"/><stop offset=".618" style="stop-color:#bb7f54"/><stop offset="1" style="stop-color:#a86939"/></linearGradient><path fill="url(#o)" d="M6 6.349v2.929c.021 5.396 32.299 5.443 32.275.049V6.398L6 6.349z"/><path fill="#A16437" d="M38.275 6.398c.02 4.495-32.26 4.447-32.275-.05-.017-4.496 32.261-4.448 32.275.05z"/><path fill="#1A1626" d="M27.517 6.102c.008 1.497-10.755 1.482-10.756-.017-.006-1.497 10.752-1.482 10.756.017z"/></svg>