<svg xmlns="http://www.w3.org/2000/svg" xml:space="preserve" viewBox="0 0 64 64"><linearGradient id="a" x1="-337.441" x2="-331.429" y1="182.208" y2="182.208" gradientTransform="rotate(45.001 16.7 554.95)" gradientUnits="userSpaceOnUse"><stop offset="0" style="stop-color:#99a8ae"/><stop offset=".029" style="stop-color:#9baab0"/><stop offset=".414" style="stop-color:#b8c3c9"/><stop offset=".751" style="stop-color:#c9d3d8"/><stop offset="1" style="stop-color:#cfd8dd"/></linearGradient><path fill="url(#a)" d="M50.362 25.863C38.695 42.307 27.235 52.751 14.511 60.532c-.376.23-3.234-1.429-1.918-2.267 18.282-11.653 26.446-21.563 35.913-34.429l1.856 2.027z"/><linearGradient id="b" x1="-350.193" x2="-342.275" y1="202.074" y2="202.074" gradientTransform="rotate(45.001 16.7 554.95)" gradientUnits="userSpaceOnUse"><stop offset="0" style="stop-color:#cfd8dd"/><stop offset=".936" style="stop-color:#bac5ca"/><stop offset=".964" style="stop-color:#b9c4c9"/></linearGradient><path fill="url(#b)" d="m13.431 50.556 2.088-2.088a7.908 7.908 0 0 0-11.198 0c-.226.228-.43.465-.623.71l2.112 2.11c.174-.256.371-.503.599-.732a4.96 4.96 0 0 1 7.022 0z"/><linearGradient id="c" x1="-343.918" x2="-343.918" y1="213.491" y2="156.894" gradientTransform="rotate(45.001 16.7 554.95)" gradientUnits="userSpaceOnUse"><stop offset="0" style="stop-color:#99a8ae"/><stop offset=".059" style="stop-color:#a3b0b6"/><stop offset=".216" style="stop-color:#b6c2c7"/><stop offset=".396" style="stop-color:#c4cfd4"/><stop offset=".617" style="stop-color:#cdd6db"/><stop offset="1" style="stop-color:#cfd8dd"/></linearGradient><path fill="url(#c)" d="M15.519 48.468c-.98-.979-2.895 1.28-2.088 2.088a4.977 4.977 0 0 1 .001 7.031 4.961 4.961 0 0 1-7.023.002c-1.531-1.532-1.993-3.784.001-7.033C17.756 32.076 27.23 24.881 40.081 15.4l-2.024-1.857c-13.187 9.38-23.222 17.341-34.59 35.952-2.5 4.091-1.531 7.798.856 10.185a7.912 7.912 0 0 0 11.195 0c3.093-3.097 3.094-8.117.001-11.212z"/><linearGradient id="d" x1="-371.527" x2="-371.527" y1="-212.394" y2="-275.638" gradientTransform="rotate(45.001 -498.224 382.998)" gradientUnits="userSpaceOnUse"><stop offset="0" style="stop-color:#cfd8dd"/><stop offset=".249" style="stop-color:#c9d3d8"/><stop offset=".586" style="stop-color:#b8c3c9"/><stop offset=".971" style="stop-color:#9baab0"/><stop offset="1" style="stop-color:#99a8ae"/></linearGradient><path fill="url(#d)" d="M58.652 5.28c-4.893-4.897-7.938-3.544-11.724-.891-2.624 1.841-10.998 9.608-10.998 9.608 6.414 4.051 19.27 2.453 16.818 0-2.129-2.131-3.725-3.785-2.363-5.146.988-.987 2.289-.886 3.938.765 7.153 7.163-12.001 4.432-4.379 18.41 0 0 8.109-8.709 10.004-11.418 2.278-3.257 3.625-6.4-1.296-11.328z"/></svg>