<svg xmlns="http://www.w3.org/2000/svg" xml:space="preserve" viewBox="0 0 64 64"><linearGradient id="a" x1="32.001" x2="32.001" y1="-10.828" y2="12.482" gradientUnits="userSpaceOnUse"><stop offset="0" style="stop-color:#00abf1"/><stop offset=".229" style="stop-color:#00a7ef"/><stop offset=".467" style="stop-color:#009ae9"/><stop offset=".708" style="stop-color:#0086e0"/><stop offset=".95" style="stop-color:#0069d3"/><stop offset="1" style="stop-color:#0062d0"/></linearGradient><path fill="url(#a)" d="M7.285 7.757c0-1.041 12.357-1.656 24.715-1.746 12.359-.09 24.717.346 24.717 1.746 0 4.869-49.432 5.662-49.432 0z"/><linearGradient id="b" x1="32.001" x2="32.001" y1="57.543" y2="-33.612" gradientUnits="userSpaceOnUse"><stop offset="0" style="stop-color:#0062d0"/><stop offset=".042" style="stop-color:#0070d6"/><stop offset=".126" style="stop-color:#0086e0"/><stop offset=".225" style="stop-color:#0097e8"/><stop offset=".348" style="stop-color:#00a2ed"/><stop offset=".521" style="stop-color:#00a9f0"/><stop offset="1" style="stop-color:#00abf1"/></linearGradient><path fill="url(#b)" d="M59.856 28.928c.417-4.875-.905-9.937-1.411-12.661-3.474-4.714-1.74-8.52-1.74-8.52-4.402 2.887-21.646 3.497-24.705 3.497s-20.303-.61-24.705-3.496c0 0 1.733 3.805-1.74 8.52-.506 2.724-1.828 7.786-1.412 12.661C3.877 32.708 2 31.349 2 54.604c0 0 12.141 5.422 25.041 2.564 0 0 2.172-5.984 4.959-10.545 2.787 4.561 4.959 10.545 4.959 10.545C49.859 60.025 62 54.604 62 54.604c0-23.255-1.877-21.896-2.144-25.676z"/><linearGradient id="c" x1="32" x2="32" y1="4.792" y2="58.597" gradientUnits="userSpaceOnUse"><stop offset="0" style="stop-color:#0062d0;stop-opacity:0"/><stop offset="1" style="stop-color:#0062d0"/></linearGradient><path fill="url(#c)" d="M32.047 47s-1.23-16.137 0-34c0 0 1.019 16.804 0 34z"/><linearGradient id="d" x1="6.853" x2="6.853" y1="23.283" y2="53.943" gradientUnits="userSpaceOnUse"><stop offset="0" style="stop-color:#0062d0;stop-opacity:0"/><stop offset="1" style="stop-color:#0062d0"/></linearGradient><path fill="url(#d)" d="M9.622 47.334S5.497 37.178 4.083 27.959c0 0 3.57 1.594 5.539 19.375z"/><linearGradient id="e" x1="8.384" x2="8.384" y1="16.544" y2="40.072" gradientUnits="userSpaceOnUse"><stop offset="0" style="stop-color:#0062d0;stop-opacity:0"/><stop offset="1" style="stop-color:#0062d0"/></linearGradient><path fill="url(#e)" d="M11.077 35s-6.951-7.652-5.059-14.868c0 0 1.337 7.076 5.059 14.868z"/><linearGradient id="f" x1="-211.767" x2="-211.767" y1="23.283" y2="53.943" gradientTransform="matrix(-1 0 0 1 -154.62 0)" gradientUnits="userSpaceOnUse"><stop offset="0" style="stop-color:#0062d0;stop-opacity:0"/><stop offset="1" style="stop-color:#0062d0"/></linearGradient><path fill="url(#f)" d="M54.378 47.334s4.125-10.156 5.539-19.375c0 0-3.57 1.594-5.539 19.375z"/><linearGradient id="g" x1="-210.235" x2="-210.235" y1="16.544" y2="40.072" gradientTransform="matrix(-1 0 0 1 -154.62 0)" gradientUnits="userSpaceOnUse"><stop offset="0" style="stop-color:#0062d0;stop-opacity:0"/><stop offset="1" style="stop-color:#0062d0"/></linearGradient><path fill="url(#g)" d="M52.923 35s6.951-7.652 5.059-14.868c-.001 0-1.336 7.076-5.059 14.868z"/><linearGradient id="h" x1="32.001" x2="32.001" y1="25.61" y2="-24.317" gradientUnits="userSpaceOnUse"><stop offset="0" style="stop-color:#0062d0"/><stop offset=".042" style="stop-color:#0070d6"/><stop offset=".126" style="stop-color:#0086e0"/><stop offset=".225" style="stop-color:#0097e8"/><stop offset=".348" style="stop-color:#00a2ed"/><stop offset=".521" style="stop-color:#00a9f0"/><stop offset="1" style="stop-color:#00abf1"/></linearGradient><path fill="url(#h)" d="M58.445 16.267c-.959-5.418-1.738-8.52-1.738-8.52-4.402 2.887-21.648 3.497-24.707 3.497s-20.303-.61-24.705-3.496c0 0-.779 3.102-1.74 8.52.011.005 19.232 8.005 52.89-.001z"/><linearGradient id="i" x1="31.994" x2="31.994" y1="16.955" y2="11.017" gradientUnits="userSpaceOnUse"><stop offset="0" style="stop-color:#00abf1"/><stop offset="1" style="stop-color:#00abf1"/></linearGradient><path fill="url(#i)" d="M6.553 11.074c-.156.748-.33 1.617-.518 2.596 2.84.893 11.666 3.285 24.672 3.285 7.729 0 16.945-.859 27.244-3.367a170.92 170.92 0 0 0-.514-2.57C30 17.72 10.086 12.187 6.553 11.074z"/><linearGradient id="j" x1="27" x2="27" y1="18.617" y2="15.452" gradientUnits="userSpaceOnUse"><stop offset="0" style="stop-color:#00abf1"/><stop offset=".229" style="stop-color:#00a7ef"/><stop offset=".467" style="stop-color:#009ae9"/><stop offset=".708" style="stop-color:#0086e0"/><stop offset=".95" style="stop-color:#0069d3"/><stop offset="1" style="stop-color:#0062d0"/></linearGradient><circle cx="27" cy="15.5" r="1" fill="url(#j)"/><linearGradient id="k" x1="37" x2="37" y1="18.617" y2="15.452" gradientUnits="userSpaceOnUse"><stop offset="0" style="stop-color:#00abf1"/><stop offset=".229" style="stop-color:#00a7ef"/><stop offset=".467" style="stop-color:#009ae9"/><stop offset=".708" style="stop-color:#0086e0"/><stop offset=".95" style="stop-color:#0069d3"/><stop offset="1" style="stop-color:#0062d0"/></linearGradient><circle cx="37" cy="15.5" r="1" fill="url(#k)"/><radialGradient id="l" cx="26" cy="25" r="7.15" gradientUnits="userSpaceOnUse"><stop offset=".418" style="stop-color:#e7ecf0"/><stop offset=".711" style="stop-color:#dee4e9"/><stop offset="1" style="stop-color:#d0d9de"/></radialGradient><path fill="url(#l)" d="M27.5 15.585c0-.248-.09-.586-.391-.586-1.141 0-3.408 3.764-2.322 10.09.68 3.959.346 8.28-.098 9.471l.444.44c.521-.994 1.977-5.52 1.43-9.708-.821-6.261.937-8.261.937-9.707z"/><radialGradient id="m" cx="214" cy="25" r="7.15" gradientTransform="matrix(-1 0 0 1 252 0)" gradientUnits="userSpaceOnUse"><stop offset=".418" style="stop-color:#e7ecf0"/><stop offset=".711" style="stop-color:#dee4e9"/><stop offset="1" style="stop-color:#d0d9de"/></radialGradient><path fill="url(#m)" d="M36.5 15.585c0-.248.092-.586.391-.586 1.141 0 3.408 3.764 2.322 10.09-.68 3.959-.344 8.28.1 9.471l-.444.44c-.523-.994-1.979-5.52-1.43-9.708.821-6.261-.939-8.261-.939-9.707z"/></svg>