<svg xmlns="http://www.w3.org/2000/svg" xml:space="preserve" style="enable-background:new 0 0 64 64" viewBox="0 0 64 64"><linearGradient id="a" x1="40.781" x2="54.636" y1="57.595" y2="57.595" gradientUnits="userSpaceOnUse"><stop offset="0" style="stop-color:#302c3b"/><stop offset="1" style="stop-color:#4e5e67"/></linearGradient><path d="M54.636 57.592c0 1.953-3.102 3.538-6.927 3.538-3.826 0-6.928-1.585-6.928-3.538 0-1.951 3.101-3.532 6.928-3.532 3.826 0 6.927 1.581 6.927 3.532z" style="fill:url(#a)"/><linearGradient id="b" x1="41.233" x2="54.183" y1="57.106" y2="57.106" gradientUnits="userSpaceOnUse"><stop offset=".291" style="stop-color:#b3c2c6"/><stop offset=".721" style="stop-color:#d5dde1"/><stop offset="1" style="stop-color:#e6ebef"/></linearGradient><path d="M54.183 57.105c0 1.769-2.899 3.196-6.474 3.196-3.577 0-6.476-1.428-6.476-3.196 0-1.765 2.898-3.195 6.476-3.195 3.575 0 6.474 1.431 6.474 3.195z" style="fill:url(#b)"/><linearGradient id="c" x1="57.38" x2="54.006" y1="18.007" y2="16.32" gradientUnits="userSpaceOnUse"><stop offset="0" style="stop-color:#9caaad"/><stop offset=".094" style="stop-color:#9fadb0"/><stop offset="1" style="stop-color:#b8c7cc"/></linearGradient><path d="M48.902 26.758c10.387-14.302 10.387-22.552 2.076-21.73-.334.033-.127-1.852.208-1.852 11.101-.004 9.935 9.655-.712 24.426-.112.154-1.764-.58-1.572-.844z" style="fill:url(#c)"/><linearGradient id="d" x1="26.756" x2="31.94" y1="15.121" y2="14.933" gradientUnits="userSpaceOnUse"><stop offset="0" style="stop-color:#9caaad"/><stop offset=".094" style="stop-color:#9fadb0"/><stop offset="1" style="stop-color:#b8c7cc"/></linearGradient><path d="m35.261 5.376-.345-1.82c-8.308 1.691-9.266 6.524-7.14 22.797l1.86-.252c-2.029-15.104-.988-19.354 5.625-20.725z" style="fill:url(#d)"/><linearGradient id="e" x1="5" x2="53.181" y1="43.913" y2="43.913" gradientUnits="userSpaceOnUse"><stop offset="0" style="stop-color:#00abf1"/><stop offset="1" style="stop-color:#0062d0"/></linearGradient><path d="M48.699 26.509c-5.018 5.7-8.702 7.4-12.417 7.18-2.614-.154-5.316-2.151-6.356-7.779-.039-.212-2.509.022-2.468.269 1.179 7.173 5.071 8.27 5.642 9.493.745 1.6-3.498 11.115-4.928 15.088-12.602-8.944-22.67-4.427-23.15 1.837-.172 2.264.539 6.254 6.854 8.539 5.006 1.811 14.073 1.438 17.452-7.667l.656-1.704c1.777-5.818 5.626-15.101 7.821-15.658 4.863-1.235 8.296-2.988 12.998-8.384.184-.212-1.988-1.345-2.104-1.214zM12.551 59.336c-3.843-1.3-5.753-3.583-5.523-6.601.366-4.787 9.257-8.672 20.503-.19-3.468 9.356-12.024 7.793-14.98 6.791z" style="fill:url(#e)"/><linearGradient id="f" x1="5.016" x2="41.884" y1="51.045" y2="51.045" gradientUnits="userSpaceOnUse"><stop offset=".085" style="stop-color:#00abf1;stop-opacity:0"/><stop offset=".558" style="stop-color:#00abf1"/></linearGradient><path d="M28.172 50.759c-12.602-8.944-22.67-4.427-23.15 1.837-.131 1.724 1.824 2.531 2.007.139.366-4.787 9.257-8.672 20.504-.19 3.179 2.518 7.462 4.424 14.025 3.623.419-.051.453-1.648 0-1.589-6.004.774-9.555-.829-13.386-3.82z" style="fill:url(#f)"/><linearGradient id="g" x1="43.267" x2="43.315" y1="54.688" y2="55.799" gradientUnits="userSpaceOnUse"><stop offset="0" style="stop-color:#cddee3"/><stop offset=".44" style="stop-color:#b4c3c7"/><stop offset="1" style="stop-color:#8f9b9e"/></linearGradient><path d="M44.831 54.379a46 46 0 0 1-3.274.413s-.181.571.032 1.119a42.475 42.475 0 0 0 3.083-.378c.424-.067.583-1.225.159-1.154z" style="fill:url(#g)"/><linearGradient id="h" x1="48.695" x2="48.695" y1="5.869" y2="2" gradientUnits="userSpaceOnUse"><stop offset="0" style="stop-color:#302c3b"/><stop offset="1" style="stop-color:#4e5e67"/></linearGradient><path d="M51.19 2.927c-.331-.342-2.117-.506-2.117-.506s-1.752-.84-2.634-.149c-.522.415-.621 2.733-.153 3.204.791.788 2.632.146 2.632.146s1.795.036 2.167-.27c.372-.308.438-2.078.105-2.425z" style="fill:url(#h)"/><linearGradient id="i" x1="37.031" x2="37.031" y1="5.735" y2="2.135" gradientUnits="userSpaceOnUse"><stop offset="0" style="stop-color:#302c3b"/><stop offset="1" style="stop-color:#4e5e67"/></linearGradient><path d="M34.956 5.556c.364.244 1.983.063 1.983.063s1.726.426 2.369-.354c.378-.464.142-2.62-.37-2.951-.859-.555-2.367.354-2.367.354s-1.6.297-1.869.637c-.267.342-.112 2.007.254 2.251z" style="fill:url(#i)"/><radialGradient id="j" cx="15.611" cy="78.842" r="3.279" gradientTransform="matrix(1.0518 0 0 1.6665 31.29 -74.904)" gradientUnits="userSpaceOnUse"><stop offset="0" style="stop-color:#e6ebef"/><stop offset=".265" style="stop-color:#d5dce0"/><stop offset=".788" style="stop-color:#a9b5b8"/><stop offset="1" style="stop-color:#95a3a6"/></radialGradient><path d="M51.15 56.486c0 .941-1.54 1.699-3.441 1.699-1.902 0-3.441-.758-3.441-1.699 0-.938 1.54-1.698 3.441-1.698 1.901 0 3.441.761 3.441 1.698z" style="fill:url(#j)"/><linearGradient id="k" x1="42.946" x2="52.472" y1="53.751" y2="53.751" gradientUnits="userSpaceOnUse"><stop offset="0" style="stop-color:#302c3b"/><stop offset="1" style="stop-color:#4e5e67"/></linearGradient><path d="M52.472 53.752c0 1.373-2.134 2.483-4.763 2.483-2.631 0-4.763-1.109-4.763-2.483 0-1.37 2.133-2.483 4.763-2.483 2.629-.001 4.763 1.113 4.763 2.483z" style="fill:url(#k)"/><linearGradient id="l" x1="44.267" x2="51.152" y1="53.659" y2="53.659" gradientUnits="userSpaceOnUse"><stop offset=".291" style="stop-color:#b3c2c6"/><stop offset=".721" style="stop-color:#d5dde1"/><stop offset="1" style="stop-color:#e6ebef"/></linearGradient><path d="M51.152 53.659c0 .749-1.542 1.354-3.443 1.354-1.902 0-3.442-.605-3.442-1.354 0-.748 1.541-1.354 3.442-1.354 1.901 0 3.443.606 3.443 1.354z" style="fill:url(#l)"/><path d="M48.416 54.188c0 .155-.317.278-.706.278-.391 0-.708-.123-.708-.278 0-.153.317-.278.708-.278.389 0 .706.125.706.278z" style="fill:#302c3b"/></svg>