<svg xmlns="http://www.w3.org/2000/svg" xml:space="preserve" viewBox="0 0 64 64"><linearGradient id="a" x1="32" x2="32" y1="61.955" y2="19" gradientUnits="userSpaceOnUse"><stop offset="0" style="stop-color:#d0d6de"/><stop offset=".527" style="stop-color:#dfe4e9"/><stop offset="1" style="stop-color:#e6ebef"/></linearGradient><path fill="url(#a)" d="M63.609 19H.39v21.373c14.739 4.496 25.705 21.582 25.705 21.582h11.812S48.871 44.869 63.61 40.373V19z"/><path fill="#BDC2C9" d="M15.749 49.092c2.468-12.211 6.48-19.216 7.277-21.478h-2.305c-1.241 3.615-4.664 9.063-6.927 20.11.699.241 1.312.989 1.955 1.368zm32.203-.033a16.936 16.936 0 0 1 1.899-1.182c-3.637-11.886-5.271-17.127-5.728-20.263h-2.786c-2.486 5.788-10.967 22.718-2.728 32.745.44-.646.903-1.271 1.431-1.818-6.277-8.027-.492-20.526 2.396-27.841.793 4.709 2.479 8.53 5.516 18.359z"/><path fill="#BDC2C9" d="M.39 27h63.22v1H.39zm0-9h63.22v1H.39zm36.35 43.955C47.504 44.576 62.916 39.422 63.574 39.24c.55-.15.576 2.109.027 2.266-.144.039-13.077 4.086-23.331 18.852-.549.792-1.534 1.872-3.53 1.597zm-9.48 0C16.497 44.576 1.084 39.422.426 39.24c-.55-.15-.576 2.109-.027 2.266.144.039 13.077 4.086 23.331 18.852.549.792 1.534 1.872 3.53 1.597zm-3.541-41.441.465.465c.01.009.014.021.014.033s-.004.024-.014.033l-.465.465a.044.044 0 0 1-.033.015.044.044 0 0 1-.033-.015l-.465-.465a.045.045 0 0 1 0-.066l.465-.465a.045.045 0 0 1 .066 0zm7.158 1.306c.688 0 1.258.579 1.258 1.331 0 .751-.57 1.33-1.258 1.33-.398 0-.697-.163-.889-.429v1.262a.1.1 0 0 1-.029.085.1.1 0 0 1-.084.029h-.318c-.031.004-.063-.007-.085-.029s-.033-.054-.029-.085v-3.313c-.004-.031.007-.063.029-.085s.054-.033.085-.029h.318a.105.105 0 0 1 .085.028.102.102 0 0 1 .03.085v.249c.192-.266.489-.429.887-.429zm-.089 2.144c.456 0 .8-.34.8-.81 0-.471-.344-.811-.8-.811-.455 0-.798.337-.798.808 0 .47.343.813.798.813zm1.776.455a.103.103 0 0 1-.085-.029.1.1 0 0 1-.029-.084v-2.307c-.004-.031.007-.062.029-.084s.054-.033.085-.029h.318a.102.102 0 0 1 .113.113v2.304a.102.102 0 0 1-.113.113l-.318.003zm2.783-.137c.05.076.015.137-.076.137h-.331a.152.152 0 0 1-.137-.075l-.494-.771-.493.771a.153.153 0 0 1-.137.075h-.331c-.092 0-.127-.06-.076-.137l.746-1.166-.698-1.091c-.05-.076-.016-.137.076-.137h.33a.155.155 0 0 1 .137.076l.445.696.445-.696a.154.154 0 0 1 .137-.076h.331c.092 0 .127.061.076.137l-.698 1.091.748 1.166zm1.34-2.459c.757 0 1.253.607 1.253 1.336 0 .043 0 .083-.005.124a.11.11 0 0 1-.12.106h-1.887c.084.414.392.627.777.627a.69.69 0 0 0 .55-.241.18.18 0 0 1 .14-.067h.322c.084 0 .131.05.098.12-.186.413-.6.663-1.117.663-.807 0-1.336-.572-1.336-1.331-.001-.758.533-1.34 1.325-1.34v.003zm-.763 1.115h1.465c-.071-.431-.379-.617-.705-.617-.408-.003-.685.236-.76.614v.003zm2.414 1.481a.1.1 0 0 1-.084-.029.1.1 0 0 1-.029-.084v-3.417a.1.1 0 0 1 .029-.084.1.1 0 0 1 .084-.029h.318a.103.103 0 0 1 .085.029.1.1 0 0 1 .029.084v3.417a.1.1 0 0 1-.029.084.103.103 0 0 1-.085.029h-.318zm1.353-1.822c0 .509 1.404.142 1.404 1.108 0 .498-.436.776-.994.776-.52 0-.932-.247-.987-.728-.007-.032.001-.065.023-.09s.056-.036.087-.031h.314c.068 0 .096.038.12.102.043.181.22.256.44.256.266 0 .447-.094.447-.286 0-.504-1.404-.145-1.404-1.108 0-.494.436-.777.957-.777.473 0 .881.249.937.729a.1.1 0 0 1-.024.09.1.1 0 0 1-.087.03h-.313c-.068 0-.097-.037-.121-.104-.04-.181-.209-.253-.389-.253-.225 0-.41.093-.41.286zm-15.863-.711a.102.102 0 0 1 .113.113v2.519c0 .663-.309.987-.924.982a.11.11 0 0 1-.084-.032.108.108 0 0 1-.029-.084v-.302a.108.108 0 0 1 .029-.084.11.11 0 0 1 .084-.032c.256-.008.377-.139.377-.45v-2.517a.105.105 0 0 1 .029-.084.103.103 0 0 1 .085-.029h.32zm1.764 2.595a1.331 1.331 0 1 1 1.336-1.33c.003.354-.137.695-.389.945a1.31 1.31 0 0 1-.947.385zm0-.531a.799.799 0 1 0-.789-.799.772.772 0 0 0 .789.799zm3.058-1.971a.123.123 0 0 1 .129-.094h.347c.081 0 .12.048.093.129l-1.14 3.323a.126.126 0 0 1-.132.091h-.346c-.082 0-.121-.049-.094-.129l.313-.914-.934-2.369c-.029-.078.005-.132.089-.132h.344a.124.124 0 0 1 .129.089l.646 1.655.556-1.649zm12.297-.967a.332.332 0 1 1-.664 0 .332.332 0 0 1 .664 0zm-.045 0a.286.286 0 1 0-.574.002.287.287 0 1 0 .574-.002zm-.132.19h-.061l-.099-.149h-.069v.149h-.049v-.38h.154a.112.112 0 0 1 .085.032.117.117 0 0 1 .036.083.113.113 0 0 1-.098.113l.101.152zm-.057-.264c0-.038-.03-.07-.068-.072h-.105v.142h.105c.037 0 .068-.03.07-.068l-.002-.002zm11.246-.424.465.465c.009.009.014.021.014.033s-.005.024-.014.033l-.465.465a.046.046 0 0 1-.033.015.041.041 0 0 1-.033-.015l-.465-.465a.044.044 0 0 1 0-.066l.465-.465a.045.045 0 0 1 .066 0zm7.158 1.306c.688 0 1.257.579 1.257 1.331 0 .751-.569 1.33-1.257 1.33-.399 0-.697-.163-.889-.429v1.262a.103.103 0 0 1-.029.085.1.1 0 0 1-.084.029h-.319a.103.103 0 0 1-.085-.029.106.106 0 0 1-.029-.085v-3.313a.106.106 0 0 1 .029-.085.103.103 0 0 1 .085-.029h.319a.103.103 0 0 1 .115.113v.249c.192-.266.489-.429.887-.429zm-.09 2.144c.456 0 .801-.34.801-.81a.784.784 0 0 0-.801-.811c-.455 0-.798.337-.798.808 0 .47.343.813.798.813zm1.777.455a.103.103 0 0 1-.085-.029.103.103 0 0 1-.029-.084v-2.307a.104.104 0 0 1 .029-.084.103.103 0 0 1 .085-.029h.318a.105.105 0 0 1 .085.029.108.108 0 0 1 .029.084v2.304a.108.108 0 0 1-.029.084.105.105 0 0 1-.085.029l-.318.003zm2.782-.137c.051.076.016.137-.076.137h-.331a.154.154 0 0 1-.137-.075l-.493-.771-.494.771a.15.15 0 0 1-.137.075h-.331c-.091 0-.126-.06-.075-.137l.745-1.166-.698-1.091c-.05-.076-.016-.137.076-.137h.33a.152.152 0 0 1 .137.076l.445.696.445-.696a.156.156 0 0 1 .137-.076h.332c.092 0 .127.061.076.137l-.699 1.091.748 1.166zm-11.519-2.396a.103.103 0 0 1 .085.029.105.105 0 0 1 .029.084v2.519c0 .663-.309.987-.924.982-.031.002-.063-.01-.084-.032s-.033-.053-.029-.084v-.302c-.004-.031.008-.062.029-.084s.053-.034.084-.032c.256-.008.377-.139.377-.45v-2.517c-.004-.03.008-.062.029-.084s.053-.033.084-.029h.32zm1.764 2.595a1.33 1.33 0 1 1 1.337-1.33 1.324 1.324 0 0 1-1.337 1.33zm0-.531a.799.799 0 1 0-.789-.799.773.773 0 0 0 .224.568.772.772 0 0 0 .565.231zm3.059-1.971a.125.125 0 0 1 .13-.094h.346c.081 0 .121.048.094.129l-1.141 3.323a.124.124 0 0 1-.131.091h-.347c-.081 0-.12-.049-.094-.129l.313-.914-.934-2.369c-.03-.078.004-.132.088-.132h.344a.124.124 0 0 1 .129.089l.646 1.655.557-1.649zM2.4 21.886h-.318a.1.1 0 0 0-.084.029.1.1 0 0 0-.029.084v2.307a.1.1 0 0 0 .029.084.1.1 0 0 0 .084.029l.318-.003c.031.004.063-.007.085-.029s.032-.053.029-.084v-2.304a.102.102 0 0 0-.114-.113zm5.776-1.111h-.32a.105.105 0 0 0-.085.029.103.103 0 0 0-.029.084v3.417a.103.103 0 0 0 .029.084.104.104 0 0 0 .085.029h.319a.1.1 0 0 0 .084-.029.1.1 0 0 0 .029-.084v-3.417a.1.1 0 0 0-.029-.084.098.098 0 0 0-.083-.029zm-4.059 2.341.699-1.091c.05-.076.015-.137-.076-.137h-.332a.156.156 0 0 0-.137.076l-.445.696-.445-.696a.152.152 0 0 0-.137-.076h-.33c-.092 0-.127.061-.076.137l.697 1.091-.745 1.166c-.051.077-.015.137.075.137h.332a.154.154 0 0 0 .137-.075l.493-.771.493.771a.155.155 0 0 0 .137.075h.332c.091 0 .127-.061.076-.137l-.748-1.166z"/><path fill="#BDC2C9" d="M6.205 21.823v-.003c-.792 0-1.326.582-1.325 1.34 0 .759.529 1.331 1.337 1.331.516 0 .931-.25 1.115-.663.033-.07-.012-.12-.096-.12h-.324a.178.178 0 0 0-.139.067.69.69 0 0 1-.55.241c-.386 0-.694-.213-.777-.627h1.886a.11.11 0 0 0 .121-.106c.004-.041.004-.081.004-.124 0-.728-.495-1.336-1.252-1.336zm-.762 1.115v-.003c.074-.378.352-.617.76-.614.326 0 .633.187.705.617H5.443zm3.766-.341c0-.192.186-.286.41-.285.18 0 .35.072.39.253.024.066.053.104.12.104h.314a.102.102 0 0 0 .088-.03.101.101 0 0 0 .023-.09c-.056-.48-.463-.729-.936-.729-.522 0-.957.283-.957.777 0 .964 1.404.604 1.404 1.108 0 .192-.182.286-.447.286-.221 0-.398-.075-.441-.256-.023-.063-.052-.102-.12-.102h-.313a.1.1 0 0 0-.088.031.101.101 0 0 0-.023.09c.055.48.469.728.986.728.56 0 .994-.278.994-.776 0-.968-1.404-.601-1.404-1.109zm1.258-1.585a.332.332 0 1 1-.665 0 .332.332 0 0 1 .665 0zm-.046 0a.287.287 0 1 0-.574.002.287.287 0 0 0 .574-.002zm-.133.19h-.061l-.099-.149h-.068v.149h-.05v-.38h.155a.114.114 0 0 1 .085.032.113.113 0 0 1 .035.083.112.112 0 0 1-.097.113l.1.152zm-.058-.264a.07.07 0 0 0-.068-.072h-.104v.142h.104a.07.07 0 0 0 .071-.068l-.003-.002zm-9.834.882H.389v.539a.775.775 0 0 1 .717.795.774.774 0 0 1-.717.794v.533h.006c.688 0 1.257-.579 1.257-1.33 0-.752-.568-1.33-1.256-1.331z"/></svg>