<svg xmlns="http://www.w3.org/2000/svg" xml:space="preserve" style="enable-background:new 0 0 64 64" viewBox="0 0 64 64"><radialGradient id="a" cx="923.468" cy="-134.546" r="7.733" fx="923.469" fy="-128.942" gradientTransform="matrix(3.154 0 0 4.4839 -2880.283 629.335)" gradientUnits="userSpaceOnUse"><stop offset="0" style="stop-color:#ff000e"/><stop offset=".284" style="stop-color:#fb000d"/><stop offset=".552" style="stop-color:#f0000a"/><stop offset=".813" style="stop-color:#dd0004"/><stop offset=".956" style="stop-color:#cf0000"/></radialGradient><path d="M34.34 4.87c-1.32-3.82-3.37-3.83-4.69 0C25.78 16.12 14 31.37 14 44.57 14 54.19 22.06 62 32 62s18-7.81 18-17.43c0-13.17-11.82-28.6-15.66-39.7z" style="fill:url(#a)"/><linearGradient id="b" x1="838.106" x2="846.976" y1="-132.909" y2="-140.745" gradientTransform="matrix(2.7319 0 0 3.0921 -2270.3 451.847)" gradientUnits="userSpaceOnUse"><stop offset=".053" style="stop-color:#ff8282;stop-opacity:0"/><stop offset="1" style="stop-color:#ff8282"/></linearGradient><path d="M33.45 3.98c-.46-1.73-2.43-1.73-2.89 0-2.39 9.01-10.76 23.96-10.76 34.53 0 12.7 24.41 12.7 24.41 0 0-10.55-8.39-25.64-10.76-34.53z" style="fill:url(#b)"/></svg>