<svg xmlns="http://www.w3.org/2000/svg" xml:space="preserve" viewBox="0 0 64 64"><linearGradient id="a" x1="1016.563" x2="1016.563" y1="62" y2="15.14" gradientTransform="translate(-984.693)" gradientUnits="userSpaceOnUse"><stop offset="0" style="stop-color:#283136"/><stop offset="1" style="stop-color:#3a464d"/></linearGradient><path fill="url(#a)" d="M2.147 15.583c-.201 3.763-.396 6.033.869 7.695 15.132 19.88 16.14 26.92 29.057 34.153 20.055 11.229 31.707-.435 29.37-11.389-5.959-4.849-59.06-34.881-59.296-30.459z"/><radialGradient id="b" cx="1016.512" cy="42.587" r="36.996" gradientTransform="matrix(.7636 .6242 -.2174 .2485 -735.151 -609.464)" gradientUnits="userSpaceOnUse"><stop offset="0" style="stop-color:#2c353b"/><stop offset="1" style="stop-color:#4e5e67"/></radialGradient><path fill="url(#b)" d="M19.634 12.669c-6.246-6.054-21.027-.687-16.71 4.985 15.132 19.88 17.14 28.43 30.352 35.192 20.481 10.486 38.471-.709 22.742-13.51-5.957-4.849-18.55-9.382-36.384-26.667z"/><path fill="#1A1626" d="M38.651 28.278c.159 1.694 2.712 12.809 3.709 13.847 2.793 2.907 1.402 2.742-.414 2.649-1.816-.092-19.037.386-22.535-8.565-.988-3.667-4.504-10.73-6.742-9.201-.303 2.265 8.327 15.194 14.487 18.167 3.389 1.637 8.806 3.913 20.319 1.279 2.264 0-6.803-15.814-7.186-17.078a109.625 109.625 0 0 0-1.638-1.098zm-15.256-5.472c2.853 2.064 5.395 1.294 11.229 2.619-1.782-1.322-3.081-2.338-3.081-2.338s-9.729-1.425-8.148-.281z" opacity=".3"/><linearGradient id="c" x1="1023.817" x2="1009.864" y1="19.441" y2="21.83" gradientTransform="translate(-984.693)" gradientUnits="userSpaceOnUse"><stop offset="0" style="stop-color:#157569"/><stop offset=".082" style="stop-color:#1a7c70"/><stop offset=".446" style="stop-color:#2b998b"/><stop offset=".765" style="stop-color:#36aa9c"/><stop offset="1" style="stop-color:#3ab0a2"/></linearGradient><path fill="url(#c)" d="M23.682 22.606c5.068 2.834 10.901-1.187 15.539-1.233.144-.816-1.323-3.714-3.522-3.713-1.589-.067-13.726 3.989-12.017 4.946z"/><linearGradient id="d" x1="1031.188" x2="1033.072" y1="42.692" y2="42.064" gradientTransform="translate(-984.693)" gradientUnits="userSpaceOnUse"><stop offset="0" style="stop-color:#157569"/><stop offset=".022" style="stop-color:#16776b"/><stop offset=".668" style="stop-color:#30a093"/><stop offset="1" style="stop-color:#3ab0a2"/></linearGradient><path fill="url(#d)" d="M47.476 46.454c.081.48 1.563.709 1.881-.324-.08-3.311-1.992-7.732-3.793-7.965-3.65 1.449.605.493 1.912 8.289z"/><linearGradient id="e" x1="999.666" x2="999.666" y1="31.356" y2="26.133" gradientTransform="translate(-984.693)" gradientUnits="userSpaceOnUse"><stop offset="0" style="stop-color:#157569"/><stop offset=".082" style="stop-color:#1a7c70"/><stop offset=".446" style="stop-color:#2b998b"/><stop offset=".765" style="stop-color:#36aa9c"/><stop offset="1" style="stop-color:#3ab0a2"/></linearGradient><path fill="url(#e)" d="M13.98 26.188c1.902.501 2.976 3.028 3.295 5.169-1.932-.835-3.175-1.969-4.382-3.667-.58-.96.036-1.78 1.087-1.502z"/><linearGradient id="f" x1="1026.323" x2="1010.913" y1="44.611" y2="23.244" gradientTransform="translate(-984.693)" gradientUnits="userSpaceOnUse"><stop offset="0" style="stop-color:#1a8f80"/><stop offset=".036" style="stop-color:#1ea897"/><stop offset=".083" style="stop-color:#21c1ad"/><stop offset=".136" style="stop-color:#24d5bf"/><stop offset=".196" style="stop-color:#26e3cc"/><stop offset=".271" style="stop-color:#28ebd3"/><stop offset=".406" style="stop-color:#28edd5"/><stop offset="1" style="stop-color:#3ab0a2"/></linearGradient><path fill="url(#f)" d="M12.893 27.689c5.609 6.008 12.303 5.839 17.164 6.285 3.159.291 13.986 5.675 12.622 3.396-4.031-6.731-1.267-17.492-6.98-19.711 2.08-.139 3.896 2.151 5.522 3.05 2.956 1.633 3.594 9.983 5.825 16.268 1.199 3.378-2.39 3.469-4.367 2.981-9.203-2.265-17.332-.23-21.347-1.987-4.057-1.772-5.666-6.007-8.439-10.282z"/></svg>