<svg xmlns="http://www.w3.org/2000/svg" xml:space="preserve" viewBox="0 0 64 64"><path fill="#99A8AE" d="m32.454 13.56.248.026-2.804 27.4-.247-.025z"/><path fill="#99A8AE" d="m25.583 19.678 4.291 21.268-.244.049-4.291-21.268z"/><path fill="#99A8AE" d="m20.115 23.342 9.64 17.543-.219.12-9.64-17.542z"/><path fill="#99A8AE" d="m2.435 15.64 27.402 25.24-.17.184L2.265 15.823z"/><path fill="#0059BD" d="M21.957 8.618c13.525 0 12.68 7.032 15.244 8.015 6.441 2.468 8.852 8.56 14.51 8.56 3.545 0 10.289-4.014 10.289-6.092 0-2.074-11.006-19.37-28.176-15.873-17.17 3.5-14.994 5.39-11.867 5.39z"/><path fill="#0062D0" d="m36.576 12.309 1.195 2.406 1.473-1.683 1.385 2.69 2.6-1.707 1.322 3.569 2.543-1.862 1.818 3.733 1.779-1.712 1.697 5.022 2.453-2.066c.001.001-8.138-7.159-18.265-8.39z"/><path fill="#116FD9" d="m37.762 9.887 1.201 2.078 1.484-1.451 1.393 2.324 2.617-1.476 1.33 3.082 2.559-1.606 1.83 3.226 1.791-1.479 1.709 3.446 2.469-.892c0 .001-8.192-6.187-18.383-7.252zm12.902-1.805c.461.632-1.852 3.203-1.852 3.203s-5.279.362-6.533-2.667c-.795-1.925 4.612-5.674 8.385-.536z"/><path fill="#0062D0" d="M36.398 11.647s2.516-.12 4.506-1.399c1.99-1.273 2.738-3.425 2.738-3.425s-5.713-.867-6.408.673c-.697 1.54-.836 4.151-.836 4.151z"/><path fill="#0059BD" d="M38.465 7.815s-.549 1.718-2.066 3.832C35.23 13.268 32 13.992 32 13.992s1.236-1.443 1.625-3.744c.959-.875 2.633-2.433 4.84-2.433z"/><path fill="#0053B0" d="M33.625 10.248s-.633 7.996-7.385 6.778c-1.361-.247 2.106-6.778 7.385-6.778z"/><path fill="#004CA1" d="M29.051 14.407s-.26 1.521-1.234 3.035c-.975 1.516-2.088 2.617-2.088 2.617s-3.572-1.236-1.809-4.232c1.762-2.997 5.131-1.42 5.131-1.42z"/><path fill="#004CA1" d="M18.998 26c3.391 0 6.73-5.94 6.73-5.94s-.27-.436-.857-.959c-.59-.522-5.873 6.899-5.873 6.899z"/><path fill="#3394FF" d="M62 19.101c-.135-.423-.262-.81-.387-1.165-.365-.779-.992-1.84-1.863-3.045a1.962 1.962 0 0 0-.932-.215c-1.496 0-1.863 1.758-1.863 1.758S59.67 20.682 62 19.101z"/><path fill="#2581E8" d="M48.813 11.285s1.904 2.707 4.574 1.635c0 0 1.074-.587 1.785-2.22.709-1.633-3.209-2.838-4.508-2.618a14.595 14.595 0 0 1-1.851 3.203z"/><path fill="#2A8AF5" d="m55.172 10.7-1.785 2.22s1.016 2.31 3.568 3.514c0 0 1.225-.604 1.863-1.758.637-1.153-2.457-3.976-3.646-3.976z"/><path fill="#004CA1" d="M62 19.101c0-.509-.648-3.338-2.969-6.552-.244 1.183-.213 2.127-.213 2.127.705 3.406 3.182 4.425 3.182 4.425z"/><path fill="#0053B0" d="M59.766 13.639a21.475 21.475 0 0 0-4.406-5.021c-.121.529-.188 1.216-.188 2.082 1.066 3.124 3.646 3.976 3.646 3.976.467-.235.77-.599.948-1.037z"/><path fill="#0059BD" d="M46.689 3.896c-.008 1.473 1.852 3.403 3.975 4.187 1.523 2.348 4.508 2.618 4.508 2.618s.422-.667.709-1.633c-2.225-1.981-5.211-3.854-9.192-5.172z"/><path fill="#0062D0" d="M47.521 4.185c-4.076-1.479-9.256-2.374-15.82-2.15C33.029 5 34.222 3.509 43.642 6.824c3.646 2.348 7.021 1.259 7.021 1.259s-.643-2.074-3.142-3.898z"/><path fill="#116FD9" d="M31.701 2.034c-2.586.085-5.385.346-8.418.811-2.779.426-5.229 1.072-7.389 1.849 1.148 1.755 14.15-.134 22.57 3.122 0 0 2.719.718 5.178-.992.001-.001-1.578-3.916-11.941-4.79z"/><path fill="#2581E8" d="M19.889 3.508c-3.877.924-7.008 2.277-9.508 3.759 3.988 0 15.986-.903 21.805 4.497.475-.463.965-.968 1.439-1.516 0 0 2.652-.535 4.84-2.433 0 0-.641-5.919-18.576-4.307z"/><path fill="#2A8AF5" d="M10.844 6.999c-2.92 1.658-5.021 3.494-6.475 5.064 21.943 2.182 17.389-.84 24.682 2.344 0 0 2.453-1.718 4.574-4.159 0 0-4.539-8.298-22.781-3.249z"/><path fill="#3394FF" d="M29.051 14.407s-3.779-9.485-24.064-2.984c-1.418 1.424-2.328 2.688-2.842 3.494a.967.967 0 0 0-.141.486C6.567 18.079 24.871 19.1 24.871 19.1s3.053-1.984 4.18-4.693z"/><path fill="#479EFF" d="M2.396 16.201c1.361.654 4.49 2.346 9.418 6.06 6.07 4.577 8.949 6.415 13.057-3.16 0 0-7.139-7.371-22.727-4.184-.273.434-.142 1.093.252 1.284z"/><path fill="#302C3B" d="M27.432 47.628c-.008.055.187-.019.196-.079.168-.998 2.14-6.015 2.294-6.542.016-.053-.153-.088-.17-.034-.255.809-2.201 5.887-2.32 6.655z"/><path fill="#FCC947" d="M27.372 48.408c-.272-.194-.511-1.257.298-1.213.265-.503.829.131.819.638-.007.339-.578.963-1.117.575z"/><path fill="#F55A01" d="M31.813 48.618c-.855.068-1.401.376-1.914.586-.071.029-1.071-.969-1.417-1.271-.238-.21-1.056.276-.979.544.138.496 1.479 1.863 1.649 1.991.205.148 2.497-.135 3.561-.657.616-.304-.275-1.241-.9-1.193z"/><path fill="#302C3B" d="M27.004 47.643c.345.301 1.163.063 1.583.331.054.036.043-.305-.015-.331-.344-.15-1.069-.029-1.435-.308-.04-.033-.174.27-.133.308zm13.028-.181c.008.055-.187-.019-.196-.079-.168-.998-2.14-6.015-2.294-6.542-.016-.053.153-.088.17-.034.255.809 2.201 5.887 2.32 6.655z"/><path fill="#FCC947" d="M40.092 48.242c.272-.194.511-1.257-.298-1.213-.265-.503-.829.131-.819.638.006.339.578.963 1.117.575z"/><path fill="#F55A01" d="M35.65 48.452c.855.068 1.401.376 1.914.586.071.029 1.071-.969 1.417-1.271.238-.21 1.056.276.979.544-.138.496-1.479 1.863-1.649 1.991-.205.148-2.497-.135-3.561-.657-.615-.304.275-1.241.9-1.193z"/><path fill="#302C3B" d="M40.46 47.477c-.345.301-1.163.063-1.583.331-.054.036-.043-.305.015-.331.344-.15 1.069-.029 1.435-.308.04-.033.174.27.133.308zm-3.778-4.363c-.174-.031-.482-2.04-.404-2.475.008-.039.154-.013.146.026-.066.381.15 2.015.281 2.264.152-.216.723-1.736.799-2.161.008-.042.154-.015.146.026-.056.318-.763 2.356-.968 2.32zm.054-.135z"/><path fill="#302C3B" d="M35.457 48.742c-.021.053-.473-.129-.451-.188.338-.973 1.469-5.411 1.475-5.965.002-.055.469.018.471.074.034.861-1.208 5.338-1.495 6.079zm-5.67-7.757c-.008-.041.141-.068.148-.026.076.425.646 1.945.799 2.161.131-.249.348-1.883.279-2.264-.008-.039.141-.065.146-.026.078.435-.23 2.443-.402 2.475-.204.036-.913-2.002-.97-2.32zm.914 2.185h.002-.002z"/><path fill="#302C3B" d="M31.982 48.933c.021.053.473-.129.451-.188-.34-.973-1.471-5.411-1.475-5.965-.002-.055-.471.018-.473.074-.032.861 1.21 5.337 1.497 6.079z"/><path fill="#4E5E67" d="M38.174 59.526c.002.298.063.668-.039.928-.1.264.057.613.139.691.201.19.521.254.734.429.213.18.674.466 1.104.421.449-.05.863-.271.814-.577-.07-.441-1.311-.921-1.328-1.057-.025-.135.094-.713.047-.995-.045-.282-1.471.16-1.471.16zm-3.758.845c.701 1.348 1.771 1.477 1.314-.44-.259-1.09-1.628-.167-1.314.44z"/><path fill="#F55A01" d="M32.211 54.902c.104 1.938 1.047 4.143 1.141 4.38.086.216.957 1.297 1.197 1.462.346.236 1.027.142 1.066-.208.035-.328-.293-1.463-.357-1.772-.088-.43.031-2.779.061-2.836.066-.128 2.002.941 2.25 1.199.248.257.322 2.54.543 2.967.178.354 1.361.091 1.59-.146.461-.486-.182-3.463-.283-3.709-.119-.289-1.869-2.08-2.471-2.514-1.069-.773-4.823-.438-4.737 1.177z"/><path fill="#F55A01" d="M35.543 48.453c-.875-.236-2.801-.111-3.611.213-.488.196-1.016 1.221-.221 2.516 1.146 1.872.254 3.799.693 3.931 1.379.417 3.984-.398 4.285-.773.443-.553-.453-1.875-.385-3.942.034-1.02-.056-1.754-.761-1.945z"/><path fill="#302C3B" d="M35.465 50.808c-.232-.512-.273-1.824-.701-2.465-.061-.091.805.032.852.133.266.589.346 1.795.459 2.27.019.086-.571.15-.61.062zm-2.674.349c-.082-.77.139-1.874-.074-2.694-.027-.106-.828.104-.785.203.254.584.08 1.804.215 2.572.013.088.654.016.644-.081zm2.51 4.592c.051-.65 1.281-1.593 1.33-2.843.004-.109.361.747.369.857.041.69-1.014 1.423-1.393 2.236-.039.083-.316-.153-.306-.25z"/><path fill="#302C3B" d="M35.607 56c-.523-1.055-2.375-1.033-3.295-1.987-.074-.079-.18.769-.121.861.537.845 2.555.815 3.242 1.203.079.044.217.01.174-.077zm-3.459-4.44c-.072-.005-.104-.398-.025-.395 1.311.049 3.26-.332 3.93-.549.066-.021.137.365.07.391-1.021.395-2.967.626-3.975.553z"/><path fill="#302C3B" d="M32.828 54.648c-.012.055-.488-.044-.477-.105.162-1.018.02-2.508-.074-3.054-.008-.054.467-.065.477-.011.187.842.225 2.389.074 3.17zm3.209-3.646c-.008-.048-.428.043-.422.093.078.765.52 2.285.857 2.913.023.046.357-.292.334-.343-.413-.827-.695-2.173-.769-2.663z"/><path fill="#FCC947" d="M32.268 48.33c.291.537.836 1.14 1.73 1.039 1.127-.123 2.154-2.82.568-3.769-1.298-.774-3.441.641-2.298 2.73z"/><path fill="#896859" d="M32.367 48.506c-1.527-.938-.83-4.09 1.662-3.514.674.154 1.496.709 1.271 1.566-.447-.529-.854-.029-2.15-.061-.877-.021-.549 1.438-.82 1.183-.273-.251-.43.308.051.524.135.064-.022.174-.014.302z"/><path fill="#2581E8" d="M37.725 40.591c.141.011.063.327-.073.396-2.14 1.071-5.374 1.193-7.897.15-.129-.054-.157-.378-.02-.398 2.132-.291 6.029-.324 7.99-.148z"/><path fill="#99A8AE" d="m42.327 8.883.248.037-4.774 31.902-.248-.037z"/><path fill="#99A8AE" d="m48.681 11.235.234.088-11.073 29.53-.235-.087z"/><path fill="#99A8AE" d="m56.862 16.36.195.154-19.25 24.368-.196-.154z"/><path fill="#99A8AE" d="m61.41 19.247.166.185-23.758 21.259-.166-.186z"/></svg>