<svg xmlns="http://www.w3.org/2000/svg" xml:space="preserve" viewBox="0 0 64 64"><linearGradient id="a" x1="-176.899" x2="-141.823" y1="-333.365" y2="-298.289" gradientTransform="translate(192.561 344.796)" gradientUnits="userSpaceOnUse"><stop offset="0" style="stop-color:#ff3b3b"/><stop offset=".256" style="stop-color:#fb3737"/><stop offset=".521" style="stop-color:#f02b2a"/><stop offset=".789" style="stop-color:#dd1616"/><stop offset="1" style="stop-color:#c90100"/></linearGradient><path fill="url(#a)" d="M55.999 28.862c-.122 14.895-10.432 27.016-23.022 27.074-12.592.061-22.7-11.968-22.577-26.863C10.521 14.181 20.831 2.059 33.421 2c12.592-.059 22.704 11.968 22.578 26.862z"/><path fill="#AF0505" d="M50.351 28.898C50.237 42.8 41.737 54.11 31.369 54.157c-10.37.047-18.687-11.181-18.569-25.084.114-13.9 8.614-25.21 18.985-25.26 10.368-.046 18.683 11.185 18.566 25.085z"/><linearGradient id="b" x1="60.334" x2="38.793" y1="60.225" y2="50.939" gradientUnits="userSpaceOnUse"><stop offset="0" style="stop-color:#fddf98"/><stop offset=".29" style="stop-color:#f6d88f"/><stop offset=".762" style="stop-color:#e2c377"/><stop offset="1" style="stop-color:#d6b768"/></linearGradient><path fill="url(#b)" d="M61.743 54.685c-.885-1.855-3.871-2.535-7.436-3.375-3.498-.825-11.754-1.845-14.58-4.275v1.963c3.049 2.038 10.898 2.954 14.139 3.717 4.891 1.153 5.956 1.447 6.315 2.851.119.466-.186.913-.186.913-7.689-3.747-19.045-2.601-16.081 2.89 1.235 2.288 5.558 2.864 8.984 2.557 6.664-.6 10.105-4.596 8.845-7.241zM45.14 58.17c-.791-2.98 8.832-3.103 13.937-.334-3.896 3.917-13.277 2.82-13.937.334z"/><linearGradient id="c" x1="-167.761" x2="-167.761" y1="-288.793" y2="-342.729" gradientTransform="translate(192.561 344.796)" gradientUnits="userSpaceOnUse"><stop offset="0" style="stop-color:#c90100"/><stop offset=".211" style="stop-color:#dd1616"/><stop offset=".479" style="stop-color:#f02b2a"/><stop offset=".744" style="stop-color:#fb3737"/><stop offset="1" style="stop-color:#ff3b3b"/></linearGradient><path fill="url(#c)" d="M47.599 28.929c-.122 14.895-10.431 27.014-23.021 27.074-12.595.059-22.7-11.969-22.577-26.861C2.123 14.245 12.43 2.125 25.022 2.066c12.595-.058 22.698 11.97 22.577 26.863z"/><linearGradient id="d" x1="-183.919" x2="-158.954" y1="-328.221" y2="-303.256" gradientTransform="translate(192.561 344.796)" gradientUnits="userSpaceOnUse"><stop offset="0" style="stop-color:#f90"/><stop offset=".287" style="stop-color:#ff9500"/><stop offset=".585" style="stop-color:#f80"/><stop offset=".887" style="stop-color:#ff7400"/><stop offset="1" style="stop-color:#ff6a00"/></linearGradient><path fill="url(#d)" d="M36.649 28.99c-.101 10.924-7.128 19.809-15.701 19.845-8.572.035-15.449-8.786-15.347-19.713.096-10.92 7.121-19.804 15.699-19.844 8.574-.035 15.446 8.786 15.349 19.712z"/><linearGradient id="e" x1="-183.517" x2="-159.356" y1="-325.875" y2="-305.601" gradientTransform="translate(192.561 344.796)" gradientUnits="userSpaceOnUse"><stop offset="0" style="stop-color:#fdeb99"/><stop offset=".5" style="stop-color:#fdeb99;stop-opacity:0"/></linearGradient><path fill="url(#e)" d="M35.356 28.996c-.093 9.93-6.532 18.006-14.39 18.038-7.863.038-14.162-7.988-14.072-17.915.09-9.931 6.531-18.006 14.392-18.042 7.856-.034 14.157 7.987 14.07 17.919z"/></svg>