<svg xmlns="http://www.w3.org/2000/svg" xml:space="preserve" viewBox="0 0 64 64"><linearGradient id="a" x1="-209.107" x2="-209.107" y1="277.315" y2="277.704" gradientTransform="matrix(42 0 0 -52 8817.031 14442.594)" gradientUnits="userSpaceOnUse"><stop offset="0" style="stop-color:#f90"/><stop offset=".022" style="stop-color:#ff9c03"/><stop offset=".274" style="stop-color:#ffb91d"/><stop offset=".524" style="stop-color:#ffce31"/><stop offset=".768" style="stop-color:#ffdb3c"/><stop offset="1" style="stop-color:#ffdf40"/></linearGradient><path fill="url(#a)" d="M34.539 2c-.707 7.865-2.142 9.282-8.167 10.111 6.025.829 7.46 2.245 8.167 10.111.705-7.866 2.141-9.282 8.166-10.111-6.025-.83-7.461-2.245-8.166-10.111z"/><linearGradient id="b" x1="-204.179" x2="-204.179" y1="271.935" y2="272.324" gradientTransform="matrix(24 0 0 -26 4947.031 7082.422)" gradientUnits="userSpaceOnUse"><stop offset="0" style="stop-color:#6fad00"/><stop offset=".039" style="stop-color:#73b202"/><stop offset=".263" style="stop-color:#87cc0f"/><stop offset=".493" style="stop-color:#96de17"/><stop offset=".734" style="stop-color:#9ee91c"/><stop offset="1" style="stop-color:#a1ed1e"/></linearGradient><path fill="url(#b)" d="M46.732 2c-.402 3.934-1.223 4.642-4.666 5.056 3.443.415 4.264 1.122 4.666 5.056.402-3.934 1.223-4.641 4.666-5.056-3.443-.414-4.263-1.122-4.666-5.056z"/><linearGradient id="c" x1="-203.737" x2="-203.737" y1="271.41" y2="271.799" gradientTransform="matrix(24 0 0 -26 4947.031 7082.422)" gradientUnits="userSpaceOnUse"><stop offset="0" style="stop-color:#0094eb"/><stop offset=".158" style="stop-color:#0c9bef"/><stop offset=".709" style="stop-color:#32affb"/><stop offset="1" style="stop-color:#40b7ff"/></linearGradient><path fill="url(#c)" d="M57.332 15.653c-.402 3.933-1.223 4.641-4.666 5.057 3.443.413 4.264 1.12 4.666 5.055.404-3.935 1.225-4.642 4.668-5.055-3.443-.416-4.264-1.124-4.668-5.057z"/><linearGradient id="d" x1="-203.762" x2="-203.762" y1="272.16" y2="272.71" gradientTransform="matrix(24 0 0 -26 4941.031 7116.422)" gradientUnits="userSpaceOnUse"><stop offset="0" style="stop-color:#7d0c7a"/><stop offset=".094" style="stop-color:#930c90"/><stop offset=".254" style="stop-color:#b30dae"/><stop offset=".421" style="stop-color:#cc0dc6"/><stop offset=".595" style="stop-color:#dd0ed8"/><stop offset=".781" style="stop-color:#e80ee2"/><stop offset="1" style="stop-color:#eb0ee5"/></linearGradient><path fill="url(#d)" d="M50.744 25.981c-.57 5.554-1.729 6.554-6.59 7.138 4.861.588 6.02 1.586 6.59 7.139.568-5.553 1.727-6.553 6.59-7.139-4.863-.584-6.021-1.584-6.59-7.138z"/><linearGradient id="e" x1="245.586" x2="250.144" y1="-964.841" y2="-964.841" gradientTransform="rotate(45.001 -1028.561 -712.562)" gradientUnits="userSpaceOnUse"><stop offset="0" style="stop-color:#d3dbe3"/><stop offset=".267" style="stop-color:#ecf1f5"/><stop offset=".369" style="stop-color:#dfe5e9"/><stop offset=".599" style="stop-color:#c8cfd4"/><stop offset=".815" style="stop-color:#bac2c6"/><stop offset="1" style="stop-color:#b5bdc2"/></linearGradient><path fill="url(#e)" d="m48.996 18.227-3.223-3.225 8.842-8.84c1.551-1.549 4.773 1.672 3.225 3.221l-8.844 8.844z"/><linearGradient id="f" x1="245.586" x2="250.144" y1="-934.084" y2="-934.084" gradientTransform="rotate(45.001 -1028.561 -712.562)" gradientUnits="userSpaceOnUse"><stop offset="0" style="stop-color:#5f6a73"/><stop offset=".242" style="stop-color:#8691a1"/><stop offset=".363" style="stop-color:#6f7686"/><stop offset=".539" style="stop-color:#545666"/><stop offset=".708" style="stop-color:#403f4e"/><stop offset=".865" style="stop-color:#343140"/><stop offset="1" style="stop-color:#302c3b"/></linearGradient><path fill="url(#f)" d="m14.34 52.881-3.221-3.223 34.654-34.656c1.551-1.549 4.773 1.675 3.223 3.225L14.34 52.881z"/><linearGradient id="g" x1="245.587" x2="250.144" y1="-903.326" y2="-903.326" gradientTransform="rotate(45.001 -1028.561 -712.562)" gradientUnits="userSpaceOnUse"><stop offset="0" style="stop-color:#d3dbe3"/><stop offset=".267" style="stop-color:#ecf1f5"/><stop offset=".369" style="stop-color:#dfe5e9"/><stop offset=".599" style="stop-color:#c8cfd4"/><stop offset=".815" style="stop-color:#bac2c6"/><stop offset="1" style="stop-color:#b5bdc2"/></linearGradient><path fill="url(#g)" d="m5.499 61.724-3.222-3.223 8.843-8.843c1.549-1.549 4.771 1.674 3.221 3.223l-8.842 8.843z"/><linearGradient id="h" x1="245.587" x2="250.144" y1="-896.252" y2="-896.252" gradientTransform="rotate(45.001 -1028.561 -712.562)" gradientUnits="userSpaceOnUse"><stop offset="0" style="stop-color:#d9e3e8"/><stop offset=".326" style="stop-color:#c7d1d6"/><stop offset=".976" style="stop-color:#99a3a8"/><stop offset="1" style="stop-color:#97a1a6"/></linearGradient><path fill="url(#h)" d="M5.499 61.724c-.543.543-1.704.262-2.594-.628-.891-.891-1.172-2.051-.628-2.595.542-.544 1.705-.262 2.595.628.89.89 1.17 2.051.627 2.595z"/></svg>