<svg xmlns="http://www.w3.org/2000/svg" xml:space="preserve" style="enable-background:new 0 0 64 64" viewBox="0 0 64 64"><ellipse cx="32" cy="32.36" rx="30" ry="29.64" style="fill:#d18900"/><path d="M2 32.38c0 2.39.29 4.71.83 6.94V25.44C2.29 27.67 2 29.99 2 32.38zm2.19-8.27V43.5c.26.63.53 1.25.83 1.86V24.11h-.83zm2.19 0v23.7c.27.43.55.86.83 1.27V24.11h-.83zm2.19 0v26.78c.27.33.55.66.83.98V24.11h-.83zm2.2 0v29.21c.27.27.55.53.83.79v-30h-.83zm2.19 0v31.17c.27.22.55.44.83.65V24.11h-.83zm2.19 0V56.9c.27.18.55.36.83.53V24.11h-.83zm2.19 0v34.13c.28.15.55.3.83.44V24.11h-.83zm2.19 0v35.23c.28.13.55.25.83.37v-35.6h-.83zm2.19 0v36.13c.28.1.56.19.83.28v-36.4h-.83zm2.19 0v36.81c.28.08.55.15.83.22V24.11h-.83zm2.19 0v37.34c.28.05.56.1.83.15V24.11h-.83zm2.2 0v37.68c.28.03.55.07.83.09V24.11h-.83zm2.19 0v37.87c.28.01.56.01.83.02V24.11h-.83zm2.19 0V62c.28-.01.56-.01.83-.02V24.11h-.83zm2.19 0v37.77l.83-.09V24.11h-.83zm2.19 0v37.48c.28-.05.56-.09.83-.15V24.11h-.83zm2.19 0v37.03c.28-.07.56-.14.83-.22V24.11h-.83zm2.19 0v36.4c.28-.09.56-.18.83-.28V24.11h-.83zm2.19 0v35.6c.28-.12.56-.25.83-.37V24.11h-.83zm2.2 0v34.57c.28-.14.56-.29.83-.44V24.11h-.83zm2.19 0v33.33c.28-.18.56-.35.83-.53v-32.8h-.83zm2.19 0v31.82c.28-.21.56-.43.83-.65V24.11h-.83zm2.19 0v30c.28-.26.56-.52.83-.79V24.11h-.83zm2.19 0v27.76c.29-.32.56-.65.83-.98V24.11h-.83zm2.19 0v24.98c.29-.42.57-.84.83-1.27v-23.7h-.83zm2.19 0v21.25c.3-.61.58-1.23.83-1.86V24.11h-.83zm2.2 15.21a29.432 29.432 0 0 0 0-13.88v13.88z" style="fill:#e69600"/><linearGradient id="a" x1="32" x2="32" y1="2" y2="59.101" gradientUnits="userSpaceOnUse"><stop offset="0" style="stop-color:#fff59b"/><stop offset=".135" style="stop-color:#fff18e"/><stop offset=".384" style="stop-color:#ffe76b"/><stop offset=".719" style="stop-color:#ffd734"/><stop offset="1" style="stop-color:#ffc800"/></linearGradient><ellipse cx="32" cy="30.47" rx="30" ry="28.47" style="fill:url(#a)"/><ellipse cx="32" cy="30.22" rx="26" ry="24.67" style="fill:#d18900"/><linearGradient id="b" x1="32" x2="32" y1="55.398" y2="6.931" gradientUnits="userSpaceOnUse"><stop offset="0" style="stop-color:#f7a300"/><stop offset="1" style="stop-color:#ffc800"/></linearGradient><ellipse cx="32" cy="31.16" rx="25.54" ry="24.23" style="fill:url(#b)"/><path d="M24.64 49.86a.91.91 0 0 0-.39-.33c-.18-.09-.37-.13-.55-.12-.18.01-.35.07-.51.18-.16.11-.29.25-.39.44-.11.2-.16.39-.16.57 0 .18.06.35.16.5.11.15.26.28.47.38.14.07.29.11.45.14.16.02.3.02.43-.01l.02-.32c-.13.03-.26.03-.38.01-.12-.02-.24-.05-.35-.11-.2-.1-.33-.23-.37-.4-.04-.16 0-.34.11-.55l1.39.68.03-.06c.1-.19.16-.37.17-.54-.01-.17-.04-.33-.13-.46zm-1.04-.08c.16-.07.33-.06.5.02.16.08.26.2.29.34.02.11-.01.24-.07.38l-1.01-.5c.09-.1.18-.2.29-.24zm2.67.58a1.1 1.1 0 0 0-.46-.07c-.14.01-.26.04-.37.11-.1.06-.18.15-.22.27a.48.48 0 0 0 .01.39c.06.12.17.24.34.33l.32.2c.11.07.18.13.22.19.04.06.04.12.01.19-.03.08-.09.13-.18.15-.09.02-.21 0-.35-.04a1.29 1.29 0 0 1-.37-.19 6.37 6.37 0 0 0-.51-.28v.22c.15.24.4.42.76.55.26.09.48.11.67.06a.53.53 0 0 0 .38-.33c.06-.14.05-.28 0-.4-.06-.12-.18-.24-.36-.35l-.32-.2a.544.544 0 0 1-.19-.17.212.212 0 0 1 0-.19c.03-.09.09-.14.19-.16.09-.02.21-.01.34.04.11.04.21.09.3.17.09.07.17.16.24.28l.23-.23v-.22c-.03-.02-.54-.26-.68-.32zm1.94-.07v-.22l-.6.76-.5-.01v.22l.41.1-.28 1.04c-.06.23-.05.41.05.56.09.15.25.24.46.3l.17.03c.05.01.11.01.16 0l.09-.33v-.22s-.19.21-.23.19a.385.385 0 0 1-.17-.08.268.268 0 0 1-.1-.15c-.02-.06-.01-.14.02-.24l.27-1.01.59.14.08-.31v-.22l-.59.08.17-.63zm.44 2.9.51.08.09-.48v-.22l-.6.4zm4-.87c.19-.18.32-.35.4-.5.08-.15.12-.31.13-.48 0-.16-.03-.3-.11-.42a.733.733 0 0 0-.33-.27c-.14-.07-.31-.1-.51-.1-.19 0-1.05.12-1.05.12v.22l.16.32c.14-.1.29-.18.43-.23.14-.05.29-.08.43-.07.17 0 .3.04.39.12.09.08.13.19.13.34 0 .12-.04.23-.1.35-.06.12-.17.24-.31.39l-1.09 1.09-.01.32 2.03.03.01-.35-1.46-.02.86-.86zm2.84-1.65c-.22-.23-.51-.32-.87-.28-.36.05-.61.21-.76.49-.15.28-.19.66-.12 1.15.07.49.22.85.44 1.08.22.23.51.32.87.27.36-.05.61-.21.76-.49.15-.28.19-.66.12-1.15-.07-.48-.21-.84-.44-1.07zm-.04 2.02c-.08.2-.23.31-.45.34-.22.03-.4-.04-.53-.22-.13-.17-.23-.46-.28-.86-.06-.39-.04-.69.03-.89.08-.2.23-.31.45-.34.22-.03.4.04.53.21.13.17.22.45.28.85.06.42.05.71-.03.91zm2.65-.34-.75-2.49-.9.53v.22l.11.38.5-.52.61 2-.65-.04v.22l.1.33 1.74-.47v-.22zm3.27-1.53v-.22l-.56.09-.86-1.81-.33.14-.47 2.19.14.51 1.26-.54.27.56.4-.17v-.22l-.27-.35.42-.18zm-1.84.41.3-1.55.56 1.18-.86.37z" style="fill:#d18900"/><path d="M24.64 49.64a.91.91 0 0 0-.39-.33c-.18-.09-.37-.13-.55-.12-.18.01-.35.07-.51.18-.16.11-.29.25-.39.44-.11.2-.16.39-.16.57 0 .18.06.35.16.5.11.15.26.28.47.38.14.07.29.11.45.14.16.02.3.02.43-.01l.02-.32c-.13.03-.26.03-.38.01-.12-.02-.24-.05-.35-.11-.2-.1-.33-.23-.37-.4-.04-.16 0-.34.11-.55l1.39.68.03-.06c.1-.19.16-.37.17-.54a.91.91 0 0 0-.13-.46zm-1.04-.08c.16-.07.33-.06.5.02.16.08.26.2.29.34.02.11-.01.24-.07.38l-1.01-.5c.09-.1.18-.19.29-.24zm2.67.59a1.1 1.1 0 0 0-.46-.07c-.14.01-.26.04-.37.11-.1.06-.18.15-.22.27a.48.48 0 0 0 .01.39c.06.12.17.24.34.33l.32.2c.11.07.18.13.22.19.04.06.04.12.01.19-.03.08-.09.13-.18.15-.09.02-.21 0-.35-.04a1.29 1.29 0 0 1-.37-.19c-.11-.08-.2-.18-.28-.3l-.24.24c.15.24.4.42.76.55.26.09.48.11.67.06a.53.53 0 0 0 .38-.33c.06-.14.05-.28 0-.4-.06-.12-.18-.24-.36-.35l-.32-.2a.544.544 0 0 1-.19-.17.212.212 0 0 1 0-.19c.03-.09.09-.14.19-.16.09-.02.21-.01.34.04.11.04.21.09.3.17.09.07.17.16.24.28l.23-.23a.879.879 0 0 0-.27-.31c-.13-.11-.26-.18-.4-.23zm1.94-.08-.46.04-.14.5-.41-.1-.08.31.41.1-.28 1.04c-.06.23-.05.41.05.56.09.15.25.24.46.3l.17.03c.05.01.11.01.16 0l.09-.33h-.12c-.04 0-.07-.01-.11-.02a.385.385 0 0 1-.17-.08.268.268 0 0 1-.1-.15c-.02-.06-.01-.14.02-.24l.27-1.01.59.14.08-.31-.59-.14.16-.64zm.44 2.9.51.09.09-.49-.51-.09zm4-.87c.19-.18.32-.35.4-.5.08-.15.12-.31.13-.48 0-.16-.03-.3-.11-.42a.733.733 0 0 0-.33-.27c-.14-.07-.31-.1-.51-.1-.19 0-.39.03-.57.09-.19.06-.35.14-.47.25l.16.32c.14-.1.29-.18.43-.23.14-.05.29-.08.43-.07.17 0 .3.04.39.12.09.08.13.19.13.34 0 .12-.04.23-.1.35-.06.12-.17.24-.31.39l-1.09 1.09-.01.32 2.03.03.01-.35-1.46-.02.85-.86zm2.84-1.65c-.22-.23-.51-.32-.87-.28-.36.05-.61.21-.76.49-.15.28-.19.66-.12 1.15.07.49.22.85.44 1.08.22.23.51.32.87.27.36-.05.61-.21.76-.49.15-.28.19-.66.12-1.15-.07-.48-.21-.84-.44-1.07zm-.04 2.02c-.08.2-.23.31-.45.34-.22.03-.4-.04-.53-.22-.13-.17-.23-.46-.28-.86-.06-.39-.04-.69.03-.89.08-.2.23-.31.45-.34.22-.03.4.04.53.21.13.17.22.45.28.85.06.42.05.72-.03.91zm2.65-.34-.75-2.49-.25.07-.65.68.11.38.5-.52.61 2-.65.18.1.34 1.74-.48-.1-.34zm3.27-1.53-.15-.31-.42.18-.86-1.81-.33.14-.47 2.41.14.29 1.26-.54.27.56.4-.17-.27-.56.43-.19zm-1.84.41.3-1.55.56 1.18-.86.37z" style="fill:#fff59b"/><path d="M17.66 17.31c.03.07-.34.24-.34.24v.26l.37.26c.25-.19.42-.36.5-.52.08-.15.12-.5.05-.64-.07-.14-3.2-1.81-3.2-1.81v.26l2.38 1.71c.13.09.21.17.24.24zm3.15-3.06c.1-.22.12-.44.06-.68-.05-.24-.19-.47-.4-.7-.21-.23-.44-.39-.7-.49-.25-.1-.51-.13-.78-.09-.26.04-.52.14-.77.32-.25.17-.42.37-.52.59-.1.22-.12.44-.06.68.06.23.19.47.4.7.21.23.44.39.7.49.25.1.51.13.78.09.27-.04.52-.14.77-.32.24-.18.42-.37.52-.59zm-.82.28c-.23.16-.48.22-.74.18-.26-.05-.51-.2-.76-.46-.24-.26-.36-.51-.35-.73.01-.23.13-.42.36-.59.23-.16.48-.23.74-.18.26.04.51.19.75.46.24.26.36.51.35.74.01.22-.11.41-.35.58zm3.68-1.61.53-.23v-.26l-.54-.73.37-2.04V9.4l-.85 2.02-2.09-.8v.26l2.03 1.03zm4.68-1.41v-.26l-.21-.9.82-.12c.34-.05.6-.16.77-.34.17-.17.23-.38.19-.63a.749.749 0 0 0-.39-.55c-.22-.12-2.25-.15-2.25-.15v.26l.49 2.77.58-.08zm.33-2.49c.21-.03.37-.02.48.04.11.06.18.15.2.29.02.13-.01.24-.1.33-.09.09-.23.15-.44.18l-.74.11-.15-.84.75-.11zm3.89-.9-.67 2.82v.26h.63zm3.31 1.58-1.26-1.5v.26l.84 1.55-1.54.95v.26l.67.11 1.12-.9.62 1.18.67.11v-.26l-.88-1.34 1.5-1.17v-.26zm4.62 2.79v-.26l-1.46-.28.39-.77 1.38.51.19-.37v-.26l-1.38-.25.36-.72 1.47.54.19-.37V10l-1.99-.47-1.33 2.33v.26l1.99.74zm1.99 1.01 1.61-1.97v-.27l-2.38 2.03v.27l1.72 1.03.28-.35v-.26zm2.53 2.34c.08.11.18.22.29.32.18.17.37.29.56.37.19.07.37.1.55.08a.87.87 0 0 0 .48-.21c.1-.08.17-.17.21-.26.04-.09.04-.19.03-.3-.02-.11-.06-.22-.12-.35-.06-.12-.14-.26-.24-.4-.08-.13-.15-.24-.19-.32a.436.436 0 0 1-.05-.23.29.29 0 0 1 .11-.18c.11-.09.24-.12.39-.1.14.03.29.1.43.24.12.11.21.23.28.36.07.13.1.28.12.44l.45-.13v-.26s-.16-.28-.24-.39c-.08-.11-.16-.21-.27-.31-.17-.16-.35-.27-.54-.34-.19-.07-.37-.09-.55-.06a.87.87 0 0 0-.48.21c-.1.09-.17.17-.22.27-.04.09-.05.19-.04.3.01.11.05.22.11.34.06.12.14.26.25.4.08.12.15.23.19.32.04.09.07.17.06.24 0 .07-.04.13-.1.18a.41.41 0 0 1-.37.08c-.14-.03-.29-.12-.44-.26-.14-.13-.25-.26-.32-.4-.08-.14-.6-.6-.6-.6v.26c.01.11.04.23.08.34.03.12.09.24.18.35zM17.08 47.35l1.21-.27.07-1.18-.1-.28-1.28 1.45zm-5.18-5.86 1.24.14.49-1.08-.11-.29-1.72.95zm38.48-21.08 1.23.14.49-1.08-.1-.29-1.73.95zM9.14 34.3l1.11.54.86-.87-.11-.28-1.96.33zm43.75-7.32 1.11.54.86-.87-.11-.28-1.96.33zm-43.75-.33.86.87 1.11-.54-.11-.28-1.96-.33zm43.75 7.33.86.86 1.11-.54-.11-.28-1.96-.33zM11.8 19.18l.59 1.37 1.24-.14-.11-.28zm38.47 21.08.59 1.37 1.24-.14-.1-.28zm-3.52 5.63-1.15.91.11.28 1.21.27-.07-1.18z" style="fill:#d18900"/><path d="m16.98 47.07 1.21-.27.07-1.18-1.21.27zm-5.18-5.86 1.24.14.48-1.09-1.23-.14zm38.47-21.08 1.24.14.49-1.09-1.24-.14zM9.04 34.02l1.11.53.85-.86-1.11-.53zm43.75-7.32 1.11.53.85-.86-1.11-.54zm-43.75-.33.85.86L11 26.7l-.85-.87zm43.75 7.32.85.86 1.11-.53-.85-.86zM11.8 19.18l.49 1.09 1.23-.14-.49-1.09zm38.47 21.08.49 1.09 1.24-.14-.49-1.09zm-4.73 5.36.06 1.18 1.22.27-.07-1.18zM17.66 17.05c.03.07.02.14-.04.22-.06.08-.16.17-.3.29l.37.26c.25-.19.42-.36.5-.52.08-.15.09-.3.02-.44-.07-.14-.2-.29-.41-.43l-2.38-1.71-.38.39 2.38 1.71c.13.08.21.16.24.23zm3.15-3.06c.1-.22.12-.44.06-.68-.05-.24-.19-.47-.4-.7-.21-.23-.44-.39-.7-.49-.25-.1-.51-.13-.78-.09-.26.04-.52.14-.77.32-.25.17-.42.37-.52.59-.1.22-.12.44-.06.68.06.23.19.47.4.7.21.23.44.39.7.49.25.1.51.13.78.09.27-.04.52-.14.77-.32.24-.18.42-.37.52-.59zm-.82.27c-.23.16-.48.22-.74.18-.26-.05-.51-.2-.76-.46-.24-.26-.36-.51-.35-.73.01-.23.13-.42.36-.59.23-.16.48-.23.74-.18.26.04.51.19.75.46.24.26.36.51.35.74.01.22-.11.42-.35.58zm3.68-1.61.53-.22-.54-1 .37-2.03-.61.25-.24 1.5-1.48-.78-.61.25 2.03 1.03zm4.68-1.4-.21-1.16.82-.12c.34-.05.6-.16.77-.34.17-.17.23-.38.19-.63a.749.749 0 0 0-.39-.55c-.22-.12-.5-.15-.85-.1l-1.4.2.49 2.77.58-.07zm.33-2.49c.21-.03.37-.02.48.04.11.06.18.15.2.29.02.13-.01.24-.1.33-.09.09-.23.15-.44.18l-.74.1-.15-.84.75-.1zm3.89-.64h-.59l-.08 2.82h.59zm3.31 1.31-.59-1.12-.67-.11.84 1.54-1.54 1.22.67.11 1.12-.9.62 1.18.67.11-.88-1.6 1.5-1.17-.67-.11zm4.62 2.8-1.46-.54.39-.77 1.38.51.19-.37-1.38-.51.36-.72 1.47.54.19-.37-1.99-.73-1.33 2.59 1.99.73zm1.99 1.01 1.61-1.98-.48-.29-1.9 2.32 1.72 1.04.28-.35zm2.53 2.34c.08.11.18.22.29.32.18.17.37.29.56.37.19.07.37.1.55.08a.87.87 0 0 0 .48-.21c.1-.08.17-.17.21-.26.04-.09.04-.19.03-.3-.02-.11-.06-.22-.12-.35-.06-.12-.14-.26-.24-.4-.08-.13-.15-.24-.19-.32a.436.436 0 0 1-.05-.23.29.29 0 0 1 .11-.18c.11-.09.24-.12.39-.1.14.03.29.1.43.24.12.11.21.23.28.36.07.13.1.28.12.44l.45-.13c0-.1-.02-.21-.06-.32-.04-.11-.1-.22-.18-.33-.08-.11-.16-.21-.27-.31-.17-.16-.35-.27-.54-.34-.19-.07-.37-.09-.55-.06-.18.03-.34.09-.48.21-.1.09-.17.17-.22.27-.04.09-.05.19-.04.3.01.11.05.22.11.34.06.12.14.26.25.4.08.12.15.23.19.32s.07.17.06.24c0 .07-.04.13-.1.18a.41.41 0 0 1-.37.08c-.14-.03-.29-.12-.44-.26-.14-.13-.25-.26-.32-.4-.08-.14-.13-.29-.15-.47l-.45.13c.01.11.04.23.08.34.03.12.09.23.18.35z" style="fill:#fff59b"/><path d="M43.07 42.53V30.69h.19v-.79s.33-.34.19-.56h.31l.42-.56v-.86h1.59c.79 0 .79-1.14 0-1.14h-.07v-.99h.57v-.89l.95-.78-15.23-10.4-15.22 10.4.95.78v.89h.57v.99h-.06c-.79 0-.79 1.14 0 1.14h1.59v.86l.42.56h.31c-.14.22.19.56.19.56v.79h.19v11.84l-4.66.79v.37h31.46v-.37l-4.66-.79zm-13.2 0V30.69h.19v-.79s.33-.34.19-.56h.31l.42-.56v-.86h2.03v.86l.42.56h.31c-.14.22.19.56.19.56v.79h.19v11.84h-4.25zm9.74-13.76.42.56h.31c-.14.22.19.56.19.56v.79h.19v11.84h-4.25V30.69h.19v-.79s.33-.34.19-.56h.31l.42-.56v-.86h2.03v.85zM23.28 42.53V30.69h.19v-.79s.33-.34.19-.56h.31l.42-.56v-.86h2.03v.86l.42.56h.31c-.14.22.19.56.19.56v.79h.19v11.84h-4.25z" style="fill:#d18900"/><path d="M20.93 29h2.35v9.54h-2.35z" style="fill:#fff59b"/><path d="M20.74 29.99h2.72v.33h-2.72zm3.65-1.58c-.81.84-4.57 0-4.57 0v-1.39h4.57v1.39z" style="fill:#ffdd63"/><path d="M23.46 29.53h-2.72s-.33-.34-.19-.56c.15-.23 2.96-.23 3.11 0 .13.22-.2.56-.2.56z" style="fill:#ffdd63"/><path d="M23.97 28.97h-3.73l-.42-.56h4.57z" style="fill:#fff59b"/><path d="M20.59 38.18h3.03v.33h-3.03z" style="fill:#ffdd63"/><path d="M23.81 39.38c-1.91.45-3.42 0-3.42 0-.12-.19.32-.86.32-.86h2.78s.44.66.32.86z" style="fill:#fff59b"/><path d="M20.22 39.38h3.77v1.31h-3.77z" style="fill:#ffdd63"/><path d="M40.72 29h2.35v9.54h-2.35z" style="fill:#fff59b"/><path d="M40.54 29.99h2.72v.33h-2.72zm3.64-1.58c-.81.84-4.57 0-4.57 0v-1.39h4.57v1.39z" style="fill:#ffdd63"/><path d="M43.26 29.53h-2.72s-.33-.34-.19-.56c.15-.23 2.96-.23 3.11 0 .13.22-.2.56-.2.56z" style="fill:#ffdd63"/><path d="M43.76 28.97h-3.73l-.42-.56h4.57z" style="fill:#fff59b"/><path d="M40.38 38.18h3.03v.33h-3.03z" style="fill:#ffdd63"/><path d="M43.61 39.38c-1.91.45-3.42 0-3.42 0-.12-.19.32-.86.32-.86h2.78c-.01 0 .43.66.32.86z" style="fill:#fff59b"/><path d="M40.01 39.38h3.77v1.31h-3.77z" style="fill:#ffdd63"/><path d="M34.13 29h2.35v9.54h-2.35z" style="fill:#fff59b"/><path d="M33.94 29.99h2.72v.33h-2.72zm3.64-1.58c-.81.84-4.57 0-4.57 0v-1.39h4.57v1.39z" style="fill:#ffdd63"/><path d="M36.66 29.53h-2.72s-.33-.34-.19-.56c.15-.23 2.96-.23 3.11 0 .13.22-.2.56-.2.56z" style="fill:#ffdd63"/><path d="M37.16 28.97h-3.73l-.42-.56h4.57z" style="fill:#fff59b"/><path d="M33.78 38.18h3.03v.33h-3.03z" style="fill:#ffdd63"/><path d="M37.01 39.38c-1.91.45-3.42 0-3.42 0-.12-.19.32-.86.32-.86h2.78s.44.66.32.86z" style="fill:#fff59b"/><path d="M33.41 39.38h3.77v1.31h-3.77z" style="fill:#ffdd63"/><path d="M27.53 29h2.35v9.54h-2.35z" style="fill:#fff59b"/><path d="M27.34 29.99h2.72v.33h-2.72zm3.64-1.58c-.81.84-4.57 0-4.57 0v-1.39h4.57v1.39z" style="fill:#ffdd63"/><path d="M30.06 29.53h-2.72s-.33-.34-.19-.56c.15-.23 2.96-.23 3.11 0 .13.22-.2.56-.2.56z" style="fill:#ffdd63"/><path d="M30.57 28.97h-3.73l-.42-.56h4.56z" style="fill:#fff59b"/><path d="M27.19 38.18h3.03v.33h-3.03z" style="fill:#ffdd63"/><path d="M30.41 39.38c-1.91.45-3.42 0-3.42 0-.12-.19.32-.86.32-.86h2.78s.44.66.32.86z" style="fill:#fff59b"/><path d="M26.82 39.38h3.77v1.31h-3.77zm20.41 3.15H16.78c-.26 0-.51.25-.51.52v.27h31.47v-.27c-.01-.27-.25-.52-.51-.52zm-2.03-1.58H18.81c-.26 0-.51.25-.51.53v.26h27.4v-.26c0-.27-.24-.53-.5-.53z" style="fill:#ffdd63"/><path d="M46.23 41.74H17.78c-.26 0-.49.25-.49.52v.27h29.44v-.27c-.01-.27-.25-.52-.5-.52zm-2.05-1.58H19.82c-.26 0-.51.25-.51.53v.26h25.38v-.26c0-.27-.25-.53-.51-.53zm1.59-12.61H18.23c-.79 0-.79-1.14 0-1.14h27.53c.79 0 .79 1.14.01 1.14zM31.99 13.36l-15.22 10.4.96.77 14.26-9.75 14.28 9.75.96-.77z" style="fill:#fff59b"/><path d="m31.99 15.23-14.26 9.75v.44h28.54v-.44z" style="fill:#fff59b"/><path d="m31.99 16.14-11.85 8.33h23.72z" style="fill:#ffdd63"/><path d="M31.52 23.7c-.99 0-1.87-.42-2.62-1.03a.344.344 0 0 1-.13-.25c0-.1.04-.29.13-.35l.68-.53c.06-.07.16-.12.26-.12s.2.05.26.13c.38.35.88.55 1.42.55.16 0 .32-.02.47-.05.66-.15 1.2-.61 1.43-1.21h-.66c-.09 0-.17-.03-.23-.09a.302.302 0 0 1-.09-.27v-.6c-.01-.09.02-.3.09-.37.07-.07 2.55-.07 2.62-.01.07.07.11.29.1.38v.3c0 1.43-.9 2.71-2.29 3.25-.47.18-.95.27-1.44.27z" style="fill:#d18900"/><path d="M35.1 19.46a.26.26 0 0 0-.24-.07h-2.07a.328.328 0 0 0-.24.07c-.06.06-.09.14-.08.23v.6c-.01.08.02.17.08.23s.15.09.24.07h.69c-.22.65-.78 1.14-1.48 1.3-.7.16-1.44-.04-1.94-.52a.284.284 0 0 0-.23-.11c-.09 0-.17.04-.23.11l-.68.64a.26.26 0 0 0-.11.21c0 .08.05.16.11.21 1.12.92 2.62 1.29 3.99.75s2.26-1.81 2.26-3.21v-.3c.02-.07-.01-.15-.07-.21z" style="fill:#fff59b"/></svg>