<svg xmlns="http://www.w3.org/2000/svg" xml:space="preserve" style="enable-background:new 0 0 64 64" viewBox="0 0 64 64"><linearGradient id="a" x1="10.471" x2="53.529" y1="47.413" y2="4.356" gradientUnits="userSpaceOnUse"><stop offset="0" style="stop-color:#4ecee6"/><stop offset="1" style="stop-color:#e8ffff"/></linearGradient><path d="M9.55 5.27h44.89v41.22H9.55z" style="fill:url(#a)"/><radialGradient id="b" cx="-55.205" cy="52.206" r="4.928" gradientTransform="matrix(.9 0 0 -.9509 70.229 63.36)" gradientUnits="userSpaceOnUse"><stop offset=".594" style="stop-color:#defbff"/><stop offset="1" style="stop-color:#defbff;stop-opacity:0"/></radialGradient><ellipse cx="20.54" cy="13.72" rx="4.43" ry="4.69" style="fill:url(#b)"/><radialGradient id="c" cx="283.821" cy="-222.974" r="4.605" gradientTransform="matrix(.7409 0 0 -.672 -185.247 -134.024)" gradientUnits="userSpaceOnUse"><stop offset=".594" style="stop-color:#defbff"/><stop offset="1" style="stop-color:#defbff;stop-opacity:0"/></radialGradient><ellipse cx="25.04" cy="15.81" rx="3.41" ry="3.1" style="fill:url(#c)"/><radialGradient id="d" cx="-59.997" cy="49.687" r="4.412" gradientTransform="matrix(.9 0 0 -.9509 70.229 63.36)" gradientUnits="userSpaceOnUse"><stop offset=".594" style="stop-color:#defbff"/><stop offset="1" style="stop-color:#defbff;stop-opacity:0"/></radialGradient><ellipse cx="16.23" cy="16.11" rx="3.97" ry="4.2" style="fill:url(#d)"/><radialGradient id="e" cx="-63.951" cy="-143.31" r="3.196" gradientTransform="matrix(.9 0 0 -.7301 70.229 -87.606)" gradientUnits="userSpaceOnUse"><stop offset=".594" style="stop-color:#defbff"/><stop offset="1" style="stop-color:#defbff;stop-opacity:0"/></radialGradient><ellipse cx="12.67" cy="17.02" rx="2.88" ry="2.33" style="fill:url(#e)"/><radialGradient id="f" cx="-83.486" cy="234.485" r="3.197" gradientTransform="matrix(1.1267 0 0 -.6419 115.36 168.88)" gradientUnits="userSpaceOnUse"><stop offset=".594" style="stop-color:#defbff"/><stop offset="1" style="stop-color:#defbff;stop-opacity:0"/></radialGradient><ellipse cx="21.3" cy="18.36" rx="3.6" ry="2.05" style="fill:url(#f)"/><radialGradient id="g" cx="1827.548" cy="34.187" r="4.106" gradientTransform="matrix(-.9 0 0 -.9509 1685.23 63.36)" gradientUnits="userSpaceOnUse"><stop offset=".594" style="stop-color:#defbff"/><stop offset="1" style="stop-color:#defbff;stop-opacity:0"/></radialGradient><path d="M40.44 26.95c-2.04 0-3.7 1.75-3.7 3.91s1.65 3.91 3.7 3.91 3.7-1.75 3.7-3.91-1.66-3.91-3.7-3.91z" style="fill:url(#g)"/><radialGradient id="h" cx="2569.863" cy="-247.951" r="3.837" gradientTransform="matrix(-.7409 0 0 -.672 1940.705 -134.024)" gradientUnits="userSpaceOnUse"><stop offset=".594" style="stop-color:#defbff"/><stop offset="1" style="stop-color:#defbff;stop-opacity:0"/></radialGradient><path d="M36.69 30.02c-1.57 0-2.84 1.15-2.84 2.58 0 1.42 1.27 2.58 2.84 2.58 1.57 0 2.84-1.15 2.84-2.58.01-1.43-1.27-2.58-2.84-2.58z" style="fill:url(#h)"/><radialGradient id="i" cx="1823.555" cy="32.088" r="3.676" gradientTransform="matrix(-.9 0 0 -.9509 1685.23 63.36)" gradientUnits="userSpaceOnUse"><stop offset=".594" style="stop-color:#defbff"/><stop offset="1" style="stop-color:#defbff;stop-opacity:0"/></radialGradient><ellipse cx="44.03" cy="32.85" rx="3.31" ry="3.5" style="fill:url(#i)"/><radialGradient id="j" cx="1820.261" cy="-166.022" r="2.663" gradientTransform="matrix(-.9 0 0 -.7301 1685.23 -87.606)" gradientUnits="userSpaceOnUse"><stop offset=".594" style="stop-color:#defbff"/><stop offset="1" style="stop-color:#defbff;stop-opacity:0"/></radialGradient><path d="M47 31.66c-1.32 0-2.4.87-2.4 1.94 0 1.07 1.07 1.94 2.4 1.94 1.32 0 2.4-.87 2.4-1.94-.01-1.07-1.08-1.94-2.4-1.94z" style="fill:url(#j)"/><radialGradient id="k" cx="1420.333" cy="209" r="2.664" gradientTransform="matrix(-1.1267 0 0 -.6419 1640.1 168.88)" gradientUnits="userSpaceOnUse"><stop offset=".594" style="stop-color:#defbff"/><stop offset="1" style="stop-color:#defbff;stop-opacity:0"/></radialGradient><path d="M39.81 33.01c-1.66 0-3 .77-3 1.71s1.34 1.71 3 1.71 3-.77 3-1.71-1.34-1.71-3-1.71z" style="fill:url(#k)"/><linearGradient id="l" x1="32" x2="32" y1="55.611" y2="42.532" gradientUnits="userSpaceOnUse"><stop offset="0" style="stop-color:#86c400"/><stop offset="1" style="stop-color:#88de00"/></linearGradient><path d="M54.45 55.61H9.55V42.88c18.68-1.88 32.29 4.66 44.89 0v12.73z" style="fill:url(#l)"/><path d="M19.75 56.75H8.36L50.5 5.95h3.95zm-9-11.59-.92-10.5L45.45 5.47h3.94zM37 56.75H25.61L53 11.83l1.79-.08z" style="opacity:.3;fill:#fff"/><path d="M6 2v60h52V2H6zm24.81 53.34H12.04v-23H30.8v23zm0-24.54H12.04V8.66H30.8V30.8zm21.15 24.54H32.34v-23h19.61v23zm0-24.54H32.34V8.66h19.61V30.8z" style="fill:#7a6056"/><path d="M55.21 58.89H8.79V5.11h46.43v53.78zm-46-.43h45.57V5.54H9.21v52.92z" style="fill:#57443d"/><path d="M12.04 8.66V30.8l-.34.34V8.32l.34.34z" style="fill:#6b544c"/><path d="M30.81 8.66H12.04l-.34-.34h19.44l-.33.34z" style="fill:#57443d"/><path d="M30.81 30.8V8.66l.34-.34v22.82l-.34-.34z" style="fill:#9c7a6e"/><path d="M12.04 30.8H30.8l.34.34H11.7l.34-.34z" style="fill:#b08a7c"/><path d="M32.34 8.66V30.8l-.34.34V8.32l.34.34z" style="fill:#6b544c"/><path d="M51.96 8.66H32.34L32 8.32h20.3l-.34.34z" style="fill:#57443d"/><path d="M51.96 30.8V8.66l.34-.34v22.82l-.34-.34z" style="fill:#9c7a6e"/><path d="M32.34 30.8h19.61l.34.34H32l.34-.34z" style="fill:#b08a7c"/><path d="M12.04 32.34v23l-.34.34V32l.34.34z" style="fill:#6b544c"/><path d="M30.81 32.34H12.04L11.7 32h19.44l-.33.34z" style="fill:#57443d"/><path d="M30.81 55.34v-23l.34-.34v23.68l-.34-.34z" style="fill:#9c7a6e"/><path d="M12.04 55.34H30.8l.34.34H11.7l.34-.34z" style="fill:#b08a7c"/><path d="M32.34 32.34v23l-.34.34V32l.34.34z" style="fill:#6b544c"/><path d="M51.96 32.34H32.34L32 32h20.3l-.34.34z" style="fill:#57443d"/><path d="M51.96 55.34v-23l.34-.34v23.68l-.34-.34z" style="fill:#9c7a6e"/><path d="M32.34 55.34h19.61l.34.34H32l.34-.34z" style="fill:#b08a7c"/></svg>