<svg xmlns="http://www.w3.org/2000/svg" xml:space="preserve" style="enable-background:new 0 0 64 64" viewBox="0 0 64 64"><path d="M47 9.92s-2.34 2.08-2.77 3.01c-3.74 7.97-4.65 34.93-4.65 34.93l3.03.99s7.58-25.59 6.95-34.33c-.08-1.15-1.55-4.34-1.55-4.34L47 9.92zM35.6 8s-2.06 2.59-2.37 3.63c-2.52 8.48 0 35.41 0 35.41l3.22.2s4.22-26.66 2.31-35.29c-.24-1.08-2.13-3.9-2.13-3.9L35.6 8zm-21.41 3.67s2.23 1.98 2.73 2.85c4.32 7.61 6.95 34.33 6.95 34.33l-2.31.92-8.9-33.66.54-4.07.99-.37zM25.1 8.61s2.23 2.35 2.61 3.34c3.15 8.26 2.31 35.29 2.31 35.29l-3.12.62s-5.88-26.21-4.65-34.93c.16-1.12 1.82-4.16 1.82-4.16l1.03-.16z" style="fill:#ffa34f"/><path d="m52.09 11.67-2.53 2.85-6.95 34.33 2.31.92 8.64-33.73-.48-4z" style="fill:#ffb26c"/><path d="m43.82 51.02-.99-.37 8.71-36.64.99.37z" style="fill:#302c3b"/><path d="m52.53 14.38-.99-.37.55-2.34.99.37z" style="fill:#e8cda5"/><path d="m41.35 50.29-1.01-.27 6.26-37.71 1.01.26z" style="fill:#302c3b"/><path d="m47.61 12.57-1.01-.26.4-2.39 1.01.27z" style="fill:#e8cda5"/><path d="m41.38 8.61-2.61 3.34-2.31 35.29 3.12.62 4.65-34.93-1.83-4.16z" style="fill:#ffb26c"/><path d="m38.39 49.28-1.03-.16 3.78-38.09 1.02.16z" style="fill:#302c3b"/><path d="m42.16 11.19-1.02-.16.24-2.42 1.02.16z" style="fill:#e8cda5"/><path d="m35.36 48.76-1.03-.05 1.2-38.27 1.03.05z" style="fill:#302c3b"/><path d="m36.56 10.49-1.03-.05L35.6 8l1.04.05z" style="fill:#e8cda5"/><path d="m22.66 50.97.99-.37-8.9-36.59-1 .36z" style="fill:#302c3b"/><path d="m13.75 14.37 1-.36-.56-2.34-.99.37z" style="fill:#e8cda5"/><path d="m19.48 9.92 2.77 3.01 4.65 34.93-3.03.99-6.96-34.33 1.55-4.33z" style="fill:#ffb26c"/><path d="m25.12 50.11 1.01-.26-6.25-37.54-1.02.26z" style="fill:#302c3b"/><path d="m18.86 12.57 1.02-.26-.4-2.39-1.02.27z" style="fill:#e8cda5"/><path d="m28.1 49.5 1.03-.15-3.79-38.32-1.03.16z" style="fill:#302c3b"/><path d="m24.31 11.19 1.03-.16-.24-2.42-1.03.16z" style="fill:#e8cda5"/><path d="m30.87 8 2.37 3.63v35.41l-3.22.2-2.32-35.29 2.14-3.9z" style="fill:#ffb26c"/><path d="m31.16 48.97 1.03-.06-1.24-38.47-1.03.05z" style="fill:#302c3b"/><path d="m29.92 10.49 1.03-.05L30.87 8l-1.03.05zm13.67 41.17-.99-.36.01-2.45 2.31.92zm-2.38-.82-1.02-.27-.61-2.71 3.03.99zm-2.9-.86-1.02-.15-.83-2.59 3.12.62zm-3-.43-1.04-.06-1.03-2.45 3.22.2zm-12.4 2.28.99-.37-.03-2.61-2.31.92zm2.36-.99 1.01-.27.62-2.71-3.03.99zm2.89-.86 1.03-.15.83-2.59-3.12.62zm3.01-.43 1.03-.06 1.04-2.45-3.22.2z" style="fill:#e8cda5"/><linearGradient id="a" x1="218.044" x2="218.044" y1="-196.386" y2="-237.804" gradientTransform="rotate(17.998 -658.98 -608.49)" gradientUnits="userSpaceOnUse"><stop offset="0" style="stop-color:#9c0000"/><stop offset=".072" style="stop-color:#ad0000"/><stop offset=".225" style="stop-color:#cb0000"/><stop offset=".386" style="stop-color:#e20000"/><stop offset=".559" style="stop-color:#f20000"/><stop offset=".751" style="stop-color:#fc0000"/><stop offset="1" style="stop-color:red"/></linearGradient><path d="M63.89 19.66c.37-1.41-.25-2.93-1.38-3.38 0 0-6.48-2.63-7.29-2.96-.87-.35-1.06-.26-1.36.86-.54 2.06-9.16 35.16-9.65 37.04-.29 1.13.02 1.42.69 1.69.81.33 7.29 2.96 7.29 2.96 1.13.46 2.35-.31 2.71-1.72l1-3.83s-1.56-15.97 6.99-26.82l1-3.84z" style="fill:url(#a)"/><path d="M55.96 23.5c.37-1.41 1.58-2.18 2.71-1.72l4.22 1.71-6.99 26.82-4.22-1.71c-1.13-.46-1.75-1.97-1.38-3.39l5.66-21.71z" style="fill:#fff5e6"/><path d="m50.46 46.12 5.66-21.71c.37-1.41 1.58-2.18 2.71-1.73l3.87 1.57.2-.76-4.22-1.71c-1.13-.46-2.35.31-2.71 1.72L50.3 45.21c-.16.62-.12 1.26.06 1.82-.01-.3.02-.61.1-.91z" style="fill:#d4c9b8"/><linearGradient id="b" x1="221.411" x2="221.411" y1="-225.799" y2="-228.162" gradientTransform="rotate(17.998 -658.98 -608.49)" gradientUnits="userSpaceOnUse"><stop offset="0" style="stop-color:#302c3b"/><stop offset=".214" style="stop-color:#33303f"/><stop offset=".446" style="stop-color:#3e3d4b"/><stop offset=".686" style="stop-color:#4f5360"/><stop offset=".931" style="stop-color:#66717c"/><stop offset="1" style="stop-color:#6e7b85"/></linearGradient><path d="M61.47 26.75c-.44 1.51-2.49.77-2.05-.74.45-1.51 2.5-.77 2.05.74z" style="fill:url(#b)"/><linearGradient id="c" x1="221.575" x2="221.575" y1="-220.079" y2="-222.443" gradientTransform="rotate(17.998 -658.98 -608.49)" gradientUnits="userSpaceOnUse"><stop offset="0" style="stop-color:#302c3b"/><stop offset=".214" style="stop-color:#33303f"/><stop offset=".446" style="stop-color:#3e3d4b"/><stop offset=".686" style="stop-color:#4f5360"/><stop offset=".931" style="stop-color:#66717c"/><stop offset="1" style="stop-color:#6e7b85"/></linearGradient><path d="M59.86 32.24c-.44 1.51-2.49.78-2.05-.74.45-1.51 2.5-.77 2.05.74z" style="fill:url(#c)"/><linearGradient id="d" x1="221.739" x2="221.739" y1="-214.359" y2="-216.722" gradientTransform="rotate(17.998 -658.98 -608.49)" gradientUnits="userSpaceOnUse"><stop offset="0" style="stop-color:#302c3b"/><stop offset=".214" style="stop-color:#33303f"/><stop offset=".446" style="stop-color:#3e3d4b"/><stop offset=".686" style="stop-color:#4f5360"/><stop offset=".931" style="stop-color:#66717c"/><stop offset="1" style="stop-color:#6e7b85"/></linearGradient><path d="M58.25 37.73c-.44 1.51-2.49.78-2.05-.74.45-1.51 2.49-.77 2.05.74z" style="fill:url(#d)"/><linearGradient id="e" x1="221.904" x2="221.904" y1="-208.638" y2="-211.002" gradientTransform="rotate(17.998 -658.98 -608.49)" gradientUnits="userSpaceOnUse"><stop offset="0" style="stop-color:#302c3b"/><stop offset=".214" style="stop-color:#33303f"/><stop offset=".446" style="stop-color:#3e3d4b"/><stop offset=".686" style="stop-color:#4f5360"/><stop offset=".931" style="stop-color:#66717c"/><stop offset="1" style="stop-color:#6e7b85"/></linearGradient><path d="M56.64 43.22c-.44 1.51-2.49.78-2.05-.74.44-1.5 2.49-.77 2.05.74z" style="fill:url(#e)"/><linearGradient id="f" x1="218.679" x2="218.679" y1="-222.787" y2="-225.15" gradientTransform="rotate(17.998 -658.98 -608.49)" gradientUnits="userSpaceOnUse"><stop offset="0" style="stop-color:#302c3b"/><stop offset=".214" style="stop-color:#33303f"/><stop offset=".446" style="stop-color:#3e3d4b"/><stop offset=".686" style="stop-color:#4f5360"/><stop offset=".931" style="stop-color:#66717c"/><stop offset="1" style="stop-color:#6e7b85"/></linearGradient><path d="M57.94 28.77c-.44 1.51-2.49.77-2.05-.74.45-1.51 2.5-.77 2.05.74z" style="fill:url(#f)"/><linearGradient id="g" x1="218.844" x2="218.844" y1="-217.067" y2="-219.43" gradientTransform="rotate(17.998 -658.98 -608.49)" gradientUnits="userSpaceOnUse"><stop offset="0" style="stop-color:#302c3b"/><stop offset=".214" style="stop-color:#33303f"/><stop offset=".446" style="stop-color:#3e3d4b"/><stop offset=".686" style="stop-color:#4f5360"/><stop offset=".931" style="stop-color:#66717c"/><stop offset="1" style="stop-color:#6e7b85"/></linearGradient><path d="M56.33 34.26c-.44 1.51-2.49.78-2.05-.74.45-1.51 2.5-.77 2.05.74z" style="fill:url(#g)"/><linearGradient id="h" x1="219.007" x2="219.007" y1="-211.347" y2="-213.71" gradientTransform="rotate(17.998 -658.98 -608.49)" gradientUnits="userSpaceOnUse"><stop offset="0" style="stop-color:#302c3b"/><stop offset=".214" style="stop-color:#33303f"/><stop offset=".446" style="stop-color:#3e3d4b"/><stop offset=".686" style="stop-color:#4f5360"/><stop offset=".931" style="stop-color:#66717c"/><stop offset="1" style="stop-color:#6e7b85"/></linearGradient><path d="M54.72 39.75c-.44 1.51-2.49.78-2.05-.74.45-1.51 2.5-.77 2.05.74z" style="fill:url(#h)"/><linearGradient id="i" x1="219.172" x2="219.172" y1="-205.627" y2="-207.99" gradientTransform="rotate(17.998 -658.98 -608.49)" gradientUnits="userSpaceOnUse"><stop offset="0" style="stop-color:#302c3b"/><stop offset=".214" style="stop-color:#33303f"/><stop offset=".446" style="stop-color:#3e3d4b"/><stop offset=".686" style="stop-color:#4f5360"/><stop offset=".931" style="stop-color:#66717c"/><stop offset="1" style="stop-color:#6e7b85"/></linearGradient><path d="M53.11 45.24c-.44 1.51-2.49.78-2.05-.74.45-1.5 2.49-.77 2.05.74z" style="fill:url(#i)"/><path d="m6.48 17.78-4.82 1.68c-1.13.46-1.94 2.06-1.58 3.47l7.85 29.31c.37 1.41 1.81 2.1 2.94 1.64l4.82-1.68-9.21-34.42z" style="fill:#302c3b"/><path d="M15.06 49.21 7.42 20.67l-5.89 2.06c-.2.07-.31.31-.25.53l.55 2.05c.06.23.27.35.47.28-.2.07-.31.31-.25.54l.55 2.05c.06.23.27.35.47.28-.2.07-.31.31-.25.53l.55 2.05c.04.17.17.28.31.3-.11.11-.16.28-.11.45l.55 2.05c.06.22.27.35.47.28-.2.07-.31.31-.25.54l.55 2.05c.06.23.27.35.47.28-.2.07-.31.31-.25.54l.55 2.05c.06.22.27.35.47.28-.2.07-.31.31-.25.54l.55 2.05c.04.16.17.28.31.3-.11.11-.15.28-.11.44l.55 2.05c.06.23.27.35.47.28-.2.07-.31.31-.25.54l.55 2.05c.06.23.27.35.47.28-.2.07-.31.31-.25.54l.55 2.05c.06.23.27.35.47.28-.22.08 5.87-2.05 5.87-2.05z" style="fill:#d4c9b8"/><path d="M4.32 30.94c-.2.07-.41-.06-.47-.28l-.44-1.64c-.06-.23.05-.47.25-.54l5.35-1.87.66 2.46-5.35 1.87zm-.77-2.87c-.2.07-.41-.06-.47-.28l-.44-1.64c-.06-.22.05-.47.25-.54l5.35-1.87.66 2.46-5.35 1.87zm-.77-2.87c-.2.07-.41-.06-.47-.28l-.44-1.64c-.06-.22.05-.47.25-.53l5.35-1.87.66 2.46-5.35 1.86z" style="fill:#fff5e6"/><path d="M6.14 28.29c-.2.07-.41-.06-.47-.28l-.22-.82c-.06-.23.05-.47.25-.54l3.03-1.06.44 1.64-3.03 1.06z" style="fill:#302c3b"/><path d="M6.99 27.77c-.2.07-.41-.06-.47-.28l-.11-.41c-.06-.22.05-.47.25-.54l2.13-.74.33 1.23-2.13.74z" style="fill:#4e5e67"/><path d="M5.38 25.42c-.2.07-.41-.06-.47-.28l-.22-.82c-.06-.23.05-.47.25-.54l3.03-1.06.44 1.64-3.03 1.06z" style="fill:#302c3b"/><path d="M6.22 24.9c-.2.07-.41-.06-.47-.29l-.11-.41c-.06-.23.05-.47.25-.54l2.13-.74.33 1.23-2.13.75z" style="fill:#4e5e67"/><path d="M9.65 50.87c-.2.07-.41-.06-.47-.28l-.44-1.64c-.05-.22.06-.47.26-.54l5.35-1.87.66 2.46-5.36 1.87zm-.76-2.86c-.2.07-.41-.06-.47-.29l-.44-1.64c-.06-.22.05-.47.25-.53l5.35-1.87.66 2.46-5.35 1.87zm-.77-2.87c-.2.07-.41-.06-.47-.28l-.44-1.64c-.06-.22.05-.47.25-.54l5.35-1.87.66 2.46-5.35 1.87z" style="fill:#fff5e6"/><path d="M11.48 48.22c-.2.07-.41-.06-.47-.28l-.22-.82c-.06-.23.05-.47.25-.54l3.03-1.06.44 1.64-3.03 1.06z" style="fill:#302c3b"/><path d="M12.33 47.7c-.2.07-.41-.06-.47-.28l-.11-.41c-.06-.22.05-.47.25-.54l2.13-.74.33 1.23-2.13.74z" style="fill:#4e5e67"/><path d="M10.66 45.14c-.2.07-.41-.06-.47-.28l-.22-.82c-.06-.23.05-.47.25-.54l3.03-1.06.44 1.64-3.03 1.06z" style="fill:#302c3b"/><path d="M11.5 44.63c-.2.07-.41-.06-.47-.28l-.11-.41c-.06-.23.05-.47.25-.54l2.13-.74.33 1.23-2.13.74z" style="fill:#4e5e67"/><path d="M7.37 42.34c-.2.07-.41-.06-.47-.28l-.44-1.64c-.06-.23.05-.47.25-.54l5.35-1.87.66 2.46-5.35 1.87zm-.77-2.86c-.2.07-.41-.06-.47-.28l-.44-1.64c-.06-.23.05-.47.25-.54l5.35-1.87.66 2.46-5.35 1.87zm-.77-2.87c-.2.07-.41-.06-.47-.29l-.44-1.64c-.06-.23.05-.47.25-.54l5.35-1.87.66 2.46-5.35 1.88zm-.77-2.87c-.2.07-.41-.06-.47-.28l-.44-1.64c-.06-.22.05-.47.25-.54l5.35-1.87.66 2.46-5.35 1.87z" style="fill:#fff5e6"/><path d="M9.2 39.69c-.2.07-.41-.06-.47-.29l-.22-.82c-.06-.23.05-.47.25-.54l3.03-1.06.44 1.64-3.03 1.07z" style="fill:#302c3b"/><path d="M10.04 39.17c-.2.07-.41-.06-.47-.28l-.11-.41c-.06-.23.05-.47.25-.54l2.13-.74.33 1.23-2.13.74z" style="fill:#4e5e67"/><path d="M8.43 36.82c-.2.07-.41-.06-.47-.28l-.22-.82c-.06-.22.05-.47.25-.53l3.03-1.06.44 1.64-3.03 1.05z" style="fill:#302c3b"/><path d="M9.27 36.3c-.2.07-.41-.06-.47-.29l-.11-.41c-.06-.23.05-.47.25-.54l2.13-.74.33 1.23-2.13.75z" style="fill:#4e5e67"/><path d="M7.61 33.74c-.2.07-.41-.06-.47-.28l-.22-.82c-.06-.23.05-.47.25-.54l3.03-1.06.44 1.64-3.03 1.06z" style="fill:#302c3b"/><path d="M8.45 33.23c-.2.07-.41-.06-.47-.28l-.11-.41c-.06-.23.05-.47.25-.54l2.13-.74.33 1.23-2.13.74z" style="fill:#4e5e67"/><linearGradient id="j" x1="-1174.647" x2="-1174.647" y1="244.14" y2="202.979" gradientTransform="scale(-1 1) rotate(17.998 5.055 3792.94)" gradientUnits="userSpaceOnUse"><stop offset="0" style="stop-color:#9c0000"/><stop offset=".072" style="stop-color:#ad0000"/><stop offset=".225" style="stop-color:#cb0000"/><stop offset=".386" style="stop-color:#e20000"/><stop offset=".559" style="stop-color:#f20000"/><stop offset=".751" style="stop-color:#fc0000"/><stop offset="1" style="stop-color:red"/></linearGradient><path d="M6.36 17.82c-.37-1.41.25-2.93 1.38-3.38 0 0 2.41-1.03 3.22-1.36.87-.35 1.06-.26 1.36.86.54 2.06 9.16 35.16 9.65 37.04.29 1.13-.02 1.42-.69 1.69-.81.33-3.22 1.36-3.22 1.36-1.13.46-2.34-.3-2.71-1.71l-8.99-34.5z" style="fill:url(#j)"/></svg>