<svg xmlns="http://www.w3.org/2000/svg" xml:space="preserve" viewBox="0 0 64 64"><radialGradient id="a" cx="66.321" cy="136.662" r="56.496" gradientTransform="matrix(.9626 0 0 .3695 -31.841 -16.56)" gradientUnits="userSpaceOnUse"><stop offset="0" style="stop-color:#e8301a"/><stop offset=".141" style="stop-color:#de2d18"/><stop offset=".382" style="stop-color:#c22513"/><stop offset=".693" style="stop-color:#96180a"/><stop offset="1" style="stop-color:#630900"/></radialGradient><path fill="url(#a)" d="M48.014 9.027H15.987c-4.392 18.656 4.472 43.775 5.054 45.204.375.92 3.078 4.609 10.959 4.609s10.585-3.689 10.959-4.609c.582-1.428 9.446-26.547 5.055-45.204z"/><linearGradient id="b" x1="14.261" x2="41.94" y1="33.323" y2="33.323" gradientUnits="userSpaceOnUse"><stop offset="0" style="stop-color:#e8cda5"/><stop offset=".265" style="stop-color:#e2c69b"/><stop offset=".719" style="stop-color:#d3b27f"/><stop offset="1" style="stop-color:#c7a46b"/></linearGradient><path fill="url(#b)" d="M26.02 58.151c-.544 0-1.236-.359-1.57-.553-.396-.23-.457-.266-1.935-15.545-.357-3.692-.769-7.949-1.238-12.65-.08-.308-1.25-1.869-2.284-3.247-2.603-3.473-4.601-6.229-4.703-7.498-.156-1.928.303-9.053 1.607-10.164l.661.631c-.813.692-1.501 7.08-1.308 9.469.092 1.139 2.77 4.712 4.541 7.076 1.777 2.372 2.402 3.239 2.445 3.656.469 4.702.881 8.959 1.238 12.653.783 8.095 1.356 14.024 1.619 14.958.147.076.326.157.49.222-.782-2.911-2.453-24.117-1.82-27.362.309-1.591 8.898-16.546 17.693-21.144l.484.75c-8.664 4.528-17.025 19.5-17.229 20.543-.657 3.375 1.325 25.999 1.828 27.095.247.409.241.735-.022.956a.772.772 0 0 1-.497.154z"/><linearGradient id="c" x1="14.222" x2="23.1" y1="32.655" y2="32.655" gradientUnits="userSpaceOnUse"><stop offset="0" style="stop-color:#e8cda5"/><stop offset=".265" style="stop-color:#e2c69b"/><stop offset=".719" style="stop-color:#d3b27f"/><stop offset="1" style="stop-color:#c7a46b"/></linearGradient><path fill="url(#c)" d="M22.23 56.56c-5.185-9.826-7.942-28.657-7.942-30.286 0-.125-.008-.301-.019-.525-.118-2.492-.477-10.075 5.906-16.998l.741.554c-6.146 6.667-5.799 13.999-5.685 16.407.011.24.02.43.02.563 0 2.017 2.972 20.672 7.849 29.913l-.87.372z"/><path fill="#302C3B" d="M15.594 27.209c-.84-.049-1.647.344-1.517-.095.121-.407.15-.739-.061-1.376-.144-.436.725-.19 1.445-.319.164-.029.301 1.8.133 1.79zm9.525 3.593c.207.447-4.433.005-4.313-.434.111-.407.041-.854-.152-1.492-.132-.435 3.735.638 4.783.434.151-.029-.382 1.354-.318 1.492z"/><radialGradient id="d" cx="66.321" cy="166.668" r="7.28" gradientTransform="matrix(.9626 0 0 .8677 -31.841 -84.654)" gradientUnits="userSpaceOnUse"><stop offset="0" style="stop-color:#e8cda5"/><stop offset=".265" style="stop-color:#e2c69b"/><stop offset=".719" style="stop-color:#d3b27f"/><stop offset="1" style="stop-color:#c7a46b"/></radialGradient><path fill="url(#d)" d="M22.349 58.583C22.861 61.024 26.435 62 32 62s9.139-.976 9.65-3.417c.18-.854-19.48-.854-19.301 0z"/><linearGradient id="e" x1="22.061" x2="49.739" y1="33.323" y2="33.323" gradientUnits="userSpaceOnUse"><stop offset="0" style="stop-color:#e8cda5"/><stop offset=".265" style="stop-color:#e2c69b"/><stop offset=".719" style="stop-color:#d3b27f"/><stop offset="1" style="stop-color:#c7a46b"/></linearGradient><path fill="url(#e)" d="M37.98 58.151a.765.765 0 0 1-.496-.154c-.263-.221-.27-.547-.016-.969.496-1.084 2.479-23.707 1.82-27.083-.203-1.043-8.564-16.016-17.228-20.543l.483-.75c8.795 4.598 17.383 19.553 17.694 21.144.632 3.245-1.039 24.451-1.82 27.362.164-.064.342-.146.489-.222.263-.934.836-6.869 1.62-14.971.356-3.689.768-7.943 1.237-12.64.042-.417.667-1.284 2.442-3.654 1.773-2.365 4.451-5.938 4.543-7.078.193-2.389-.494-8.777-1.308-9.469l.661-.631c1.304 1.11 1.763 8.235 1.606 10.164-.103 1.269-2.101 4.026-4.704 7.499-1.033 1.378-2.203 2.939-2.285 3.263-.467 4.679-.878 8.932-1.234 12.622-1.479 15.291-1.54 15.326-1.936 15.557-.331.194-1.024.553-1.568.553z"/><linearGradient id="f" x1="40.9" x2="49.777" y1="32.655" y2="32.655" gradientUnits="userSpaceOnUse"><stop offset="0" style="stop-color:#e8cda5"/><stop offset=".265" style="stop-color:#e2c69b"/><stop offset=".719" style="stop-color:#d3b27f"/><stop offset="1" style="stop-color:#c7a46b"/></linearGradient><path fill="url(#f)" d="m41.77 56.56-.87-.373c4.877-9.241 7.849-27.896 7.849-29.913 0-.133.009-.322.021-.563.113-2.409.461-9.74-5.686-16.407l.74-.554c6.384 6.923 6.024 14.506 5.906 16.998-.011.224-.019.4-.019.525.001 1.63-2.757 20.46-7.941 30.287z"/><path fill="#302C3B" d="M48.406 27.209c.84-.049 1.646.344 1.518-.095-.121-.407-.15-.739.061-1.376.144-.436-.725-.19-1.445-.319-.165-.029-.302 1.8-.134 1.79zm-9.525 3.593c-.207.447 4.434.005 4.314-.434-.111-.407-.041-.854.151-1.492.132-.435-3.735.638-4.782.434-.152-.029.38 1.354.317 1.492z"/><radialGradient id="g" cx="26.851" cy="17.201" r="19.942" gradientTransform="matrix(.9973 0 0 1.1281 5.22 -9.43)" gradientUnits="userSpaceOnUse"><stop offset="0" style="stop-color:#c78b54"/><stop offset=".175" style="stop-color:#bd8250"/><stop offset=".475" style="stop-color:#a16844"/><stop offset=".862" style="stop-color:#753f31"/><stop offset="1" style="stop-color:#632f2a"/></radialGradient><path fill="url(#g)" d="M47.146 5.787H16.853s-2.088 1.615-1.499 3.473c2.075 6.54 31.216 6.54 33.291 0 .59-1.857-1.499-3.473-1.499-3.473z"/><radialGradient id="h" cx="26.85" cy="15.2" r="11.187" gradientTransform="matrix(.9973 0 0 1.1281 5.22 -9.43)" gradientUnits="userSpaceOnUse"><stop offset="0" style="stop-color:#e8cda5"/><stop offset=".265" style="stop-color:#e2c69b"/><stop offset=".719" style="stop-color:#d3b27f"/><stop offset="1" style="stop-color:#c7a46b"/></radialGradient><path fill="url(#h)" d="M46.968 5.095c-.746-.948-29.189-.946-29.935 0-.386.489-.533 1.277-.533 1.65 0 5.744 31 5.744 31 0 0-.373-.146-1.161-.532-1.65z"/><linearGradient id="i" x1="16.885" x2="47.115" y1="5.814" y2="5.814" gradientUnits="userSpaceOnUse"><stop offset="0" style="stop-color:#e8cda5"/><stop offset=".265" style="stop-color:#e2c69b"/><stop offset=".719" style="stop-color:#d3b27f"/><stop offset="1" style="stop-color:#c7a46b"/></linearGradient><path fill="url(#i)" d="M16.885 5.694c0 5.243 30.23 5.243 30.23 0 0-4.925-30.23-4.925-30.23 0z"/><radialGradient id="j" cx="66.322" cy="163.514" r="13.365" gradientTransform="matrix(.9626 0 0 .8677 -31.841 -84.654)" gradientUnits="userSpaceOnUse"><stop offset="0" style="stop-color:#c78b54"/><stop offset=".175" style="stop-color:#bd8250"/><stop offset=".475" style="stop-color:#a16844"/><stop offset=".862" style="stop-color:#753f31"/><stop offset="1" style="stop-color:#632f2a"/></radialGradient><path fill="url(#j)" d="M43.307 53.276c-.393 1.199-3.485 4.439-11.307 4.439s-10.915-3.24-11.307-4.439c-.57 1.443.664 4.304 1.205 5.021.611.811 4.537 2.894 10.102 2.894s9.491-2.083 10.102-2.894c.542-.717 1.775-3.577 1.205-5.021z"/></svg>