<svg xmlns="http://www.w3.org/2000/svg" xml:space="preserve" style="enable-background:new 0 0 64 64" viewBox="0 0 64 64"><linearGradient id="a" x1="-88.238" x2="-85.399" y1="-162.977" y2="-162.977" gradientTransform="rotate(-19.999 524.935 -430.237)" gradientUnits="userSpaceOnUse"><stop offset="0" style="stop-color:#ba8f7b"/><stop offset="1" style="stop-color:#785c4f"/></linearGradient><path d="M32.643 1.212c-.293-.792-4.31-.161-3.902.927l21.764 57.948 4.466-1.644L32.643 1.212z" style="fill:url(#a)"/><path d="M51.246 59.542S40.095 29.29 29.255 1.592c10.445 29.757 21.991 57.95 21.991 57.95zm.891-.51S40.759 28.968 29.919 1.27c10.445 29.756 22.218 57.762 22.218 57.762z" style="opacity:.1;fill:#472e27"/><path d="M53.297 58.69S41.786 28.692 30.947.994c10.445 29.757 22.35 57.696 22.35 57.696z" style="opacity:.2;fill:#472e27"/><path d="M54.291 58.635S42.444 28.614 31.605.916C42.05 30.673 54.291 58.635 54.291 58.635z" style="opacity:.3;fill:#472e27"/><path d="M54.714 58.225S43.138 28.841 32.299 1.143C42.744 30.9 54.714 58.225 54.714 58.225z" style="opacity:.3;fill:#472e27"/><linearGradient id="b" x1="82.469" x2="78.2" y1="19.365" y2="20.339" gradientTransform="rotate(-3.032 808.613 556.448)" gradientUnits="userSpaceOnUse"><stop offset="0" style="stop-color:#544137"/><stop offset=".469" style="stop-color:#674f44"/><stop offset="1" style="stop-color:#785c4f"/></linearGradient><path d="M54.971 58.443c.431.917-4.094 2.543-4.466 1.644-.356-.858 4.002-2.633 4.466-1.644z" style="fill:url(#b)"/><path d="m30.204 6.035 1.547 4.119.136-5.322zm4.113 10.95 1.752 4.666.024-5.902zm12.87 34.269 1.602 4.264.023-5.513zm-8.685-23.126 1.483 3.949.01-5.177zm4.01 10.678 1.671 4.449.045-5.574z" style="opacity:.3;fill:#472e27"/><linearGradient id="c" x1="325.595" x2="323.344" y1="1295.914" y2="1295.885" gradientTransform="rotate(88.031 886.21 520.16) scale(1.0535)" gradientUnits="userSpaceOnUse"><stop offset="0" style="stop-color:#a67e65"/><stop offset="1" style="stop-color:#ebc6a9"/></linearGradient><path d="M31.605 5.977c.407-.009.511-2.057-.047-2.043l-17.504.204-.139 2.574 17.69-.735z" style="fill:url(#c)"/><path d="M14.196 4.579s2.976.249 17.291-.321c-15.167.062-17.291.321-17.291.321zm-.257.513s3.506.105 17.82-.466c-15.166.062-17.82.466-17.82.466z" style="opacity:.1;fill:#472e27"/><path d="M13.901 5.657s3.599.018 17.914-.553c-15.166.062-17.914.553-17.914.553z" style="opacity:.2;fill:#472e27"/><path d="M13.932 6.139s3.448-.024 17.762-.594c-15.166.061-17.762.594-17.762.594zm-.188.43s3.548-.135 17.863-.706c-15.166.062-17.863.706-17.863.706z" style="opacity:.3;fill:#472e27"/><linearGradient id="d" x1="306.584" x2="304.204" y1="1269.342" y2="1269.311" gradientTransform="rotate(85.557 888.051 517.509) scale(1.0535)" gradientUnits="userSpaceOnUse"><stop offset="0" style="stop-color:#a67e65"/><stop offset="1" style="stop-color:#ebc6a9"/></linearGradient><path d="M35.97 16.839c.421-.028.442-2.197-.137-2.156l-18.147 1.05-.034 2.726 18.318-1.62z" style="fill:url(#d)"/><path d="M17.853 16.193s3.097.122 17.921-1.164c-15.729.788-17.921 1.164-17.921 1.164zm-.245.553s3.64-.057 18.464-1.342c-15.728.789-18.464 1.342-18.464 1.342z" style="opacity:.1;fill:#472e27"/><path d="M17.593 17.345s3.734-.153 18.557-1.439c-15.728.789-18.557 1.439-18.557 1.439z" style="opacity:.2;fill:#472e27"/><path d="M17.646 17.853s3.575-.19 18.398-1.475c-15.728.788-18.398 1.475-18.398 1.475zm-.177.463s3.674-.312 18.497-1.598c-15.727.789-18.497 1.598-18.497 1.598z" style="opacity:.3;fill:#472e27"/><linearGradient id="e" x1="311.735" x2="309.121" y1="1261.783" y2="1261.749" gradientTransform="rotate(85.121 887.535 517.007) scale(1.0535)" gradientUnits="userSpaceOnUse"><stop offset="0" style="stop-color:#a67e65"/><stop offset="1" style="stop-color:#ebc6a9"/></linearGradient><path d="M39.92 27.982c.437-.035.442-2.417-.158-2.366L20.95 26.933l-.015 2.993 18.985-1.944z" style="fill:url(#e)"/><path d="M21.126 27.436s3.213.105 18.576-1.44c-16.305 1.008-18.576 1.44-18.576 1.44zm-.249.61s3.775-.095 19.138-1.64c-16.305 1.008-19.138 1.64-19.138 1.64z" style="opacity:.1;fill:#472e27"/><path d="M20.865 28.704s3.871-.202 19.235-1.747c-16.306 1.007-19.235 1.747-19.235 1.747z" style="opacity:.2;fill:#472e27"/><path d="M20.924 29.261s3.706-.241 19.069-1.786c-16.305 1.008-19.069 1.786-19.069 1.786zm-.18.511s3.808-.376 19.171-1.922c-16.305 1.008-19.171 1.922-19.171 1.922z" style="opacity:.3;fill:#472e27"/><linearGradient id="f" x1="290.565" x2="287.932" y1="1230.95" y2="1230.915" gradientTransform="rotate(82.358 888.819 513.42) scale(1.0535)" gradientUnits="userSpaceOnUse"><stop offset="0" style="stop-color:#a67e65"/><stop offset="1" style="stop-color:#ebc6a9"/></linearGradient><path d="M44.123 38.557c.435-.057.333-2.437-.264-2.355l-18.731 2.286.12 2.991 18.875-2.922z" style="fill:url(#f)"/><path d="M25.326 38.981s3.214-.061 18.49-2.397c-16.241 1.848-18.49 2.397-18.49 2.397zm-.222.622s3.766-.289 19.042-2.626c-16.241 1.848-19.042 2.626-19.042 2.626z" style="opacity:.1;fill:#472e27"/><path d="M25.122 40.261s3.858-.401 19.133-2.737c-16.24 1.847-19.133 2.737-19.133 2.737z" style="opacity:.2;fill:#472e27"/><path d="M25.206 40.815s3.691-.432 18.966-2.768c-16.24 1.848-18.966 2.768-18.966 2.768zm-.156.518s3.787-.572 19.062-2.909c-16.241 1.849-19.062 2.909-19.062 2.909z" style="opacity:.3;fill:#472e27"/><linearGradient id="g" x1="302.886" x2="300.078" y1="1228.864" y2="1228.827" gradientTransform="rotate(82.358 888.819 513.42) scale(1.0535)" gradientUnits="userSpaceOnUse"><stop offset="0" style="stop-color:#a67e65"/><stop offset="1" style="stop-color:#ebc6a9"/></linearGradient><path d="M48.641 51.028c.464-.061.355-2.599-.282-2.512l-19.978 2.438.128 3.19 20.132-3.116z" style="fill:url(#g)"/><path d="M28.593 51.481s3.428-.064 19.721-2.556c-17.322 1.97-19.721 2.556-19.721 2.556zm-.237.664s4.017-.309 20.31-2.801c-17.322 1.971-20.31 2.801-20.31 2.801z" style="opacity:.1;fill:#472e27"/><path d="M28.376 52.846s4.115-.428 20.407-2.92c-17.322 1.971-20.407 2.92-20.407 2.92z" style="opacity:.2;fill:#472e27"/><path d="M28.465 53.436s3.937-.46 20.229-2.952c-17.322 1.971-20.229 2.952-20.229 2.952zm-.166.554s4.039-.61 20.332-3.102c-17.323 1.971-20.332 3.102-20.332 3.102z" style="opacity:.3;fill:#472e27"/><linearGradient id="h" x1="-108.953" x2="-105.19" y1="-168.662" y2="-168.55" gradientTransform="rotate(-19.999 524.935 -430.237)" gradientUnits="userSpaceOnUse"><stop offset="0" style="stop-color:#ba8f7b"/><stop offset="1" style="stop-color:#785c4f"/></linearGradient><path d="M9.02 1.781 27.992 63.71l5.293-1.512L13.133.264c-.244-.811-4.454.404-4.113 1.517z" style="fill:url(#h)"/><path d="M28.807 63.118S18.838 30.085 9.715 1.7c8.566 30.451 19.092 61.418 19.092 61.418zm1.182.16S19.433 29.281 10.309.896c8.566 30.451 19.68 62.382 19.68 62.382z" style="opacity:.1;fill:#472e27"/><path d="M31.155 62.961S20.37 28.836 11.247.451c8.565 30.452 19.908 62.51 19.908 62.51z" style="opacity:.2;fill:#472e27"/><path d="M32.115 62.563S21.33 28.773 12.207.387c8.566 30.452 19.908 62.176 19.908 62.176zm.976.078S22.024 28.726 12.901.341c8.565 30.452 20.19 62.3 20.19 62.3z" style="opacity:.3;fill:#472e27"/><linearGradient id="i" x1="33.52" x2="28.577" y1="62.742" y2="63.87" gradientTransform="translate(-.202 -.412)" gradientUnits="userSpaceOnUse"><stop offset="0" style="stop-color:#544137"/><stop offset=".469" style="stop-color:#674f44"/><stop offset="1" style="stop-color:#785c4f"/></linearGradient><path d="M33.285 62.199c.376.943-4.976 2.434-5.293 1.512-.303-.88 4.888-2.529 5.293-1.512z" style="fill:url(#i)"/><path d="M12.127 6.979c-.823.293-1.455-2.21-.676-2.618.871-.456 1.546 2.308.676 2.618zM15.96 18.77c-.823.294-1.51-2.312-.731-2.72.872-.457 1.602 2.409.731 2.72zm3.583 11.307c-.823.294-1.51-2.312-.731-2.72.872-.456 1.601 2.41.731 2.72zm3.844 11.696c-.823.294-1.583-2.335-.804-2.743.872-.456 1.675 2.433.804 2.743zm4.032 12.673c-.823.293-1.672-2.54-.893-2.947.871-.456 1.763 2.637.893 2.947z" style="fill:#ebc6a9"/><path d="M23.518 41.376c.198-.592-.083-1.779-.573-2.113.388.512.622 1.431.573 2.113zm-1.057-1.784c-.181.483.023 1.476.424 1.773-.311-.439-.482-1.21-.424-1.773zm.331 1.175c.182.352.415.267.4-.236-.048.348-.225.432-.4.236z" style="opacity:.1;fill:#472e27"/><path d="M22.6 40.371c.081-.484.354-.559.617-.233-.271-.55-.629-.489-.617.233zm-3.596-10.922c.412.579.881.408.797-.447-.062.598-.417.762-.797.447zm.372-1.502c-.345-.509-.755-.428-.699.262.065-.468.376-.557.699-.262zm-.504.308c-.152.276.035.781.385.892a1 1 0 0 1-.385-.892z" style="opacity:.1;fill:#472e27"/><path d="M19.049 27.971c.389.305.59.889.5 1.34.245-.404.008-1.159-.5-1.34zM12.061 4.915c-.405-.585-.876-.42-.802.436.068-.598.425-.756.802-.436zm-.391 1.497c.339.514.75.438.702-.253-.07.468-.382.552-.702.253zm.508-.301c.155-.274-.026-.781-.374-.898.272.202.423.593.374.898z" style="opacity:.1;fill:#472e27"/><path d="M11.997 6.392c-.385-.311-.579-.897-.484-1.346-.249.4-.021 1.158.484 1.346zm14.762 47.314c.412.579.881.408.797-.447-.061.598-.416.762-.797.447zm.372-1.502c-.346-.509-.755-.428-.699.263.066-.47.376-.559.699-.263zm-.504.307c-.152.276.035.781.385.892a.999.999 0 0 1-.385-.892z" style="opacity:.1;fill:#472e27"/><path d="M26.805 52.227c.388.305.589.889.5 1.34.244-.403.007-1.158-.5-1.34zm-11.75-35.818c-.197.592.085 1.779.576 2.112-.39-.511-.624-1.429-.576-2.112zm1.059 1.783c.18-.483-.025-1.476-.426-1.773.311.439.483 1.209.426 1.773zm-.332-1.174c-.183-.352-.415-.267-.399.236.046-.348.223-.433.399-.236z" style="opacity:.1;fill:#472e27"/><path d="M15.974 17.413c-.081.484-.353.559-.617.234.272.55.629.488.617-.234z" style="opacity:.1;fill:#472e27"/></svg>