<svg xmlns="http://www.w3.org/2000/svg" xml:space="preserve" style="enable-background:new 0 0 64 64" viewBox="0 0 64 64"><path d="m9.55 5.33 1.09 53.72 1.65-.38V5.33z" style="fill:#573a2d"/><path d="M54.45 33.45h-2.74v25.22l1.65.38z" style="fill:#8a6859"/><path d="M30.9 36.27 32 64l1.64-.38v-22.4l19.72-4.57v22.4l1.64-.38V32z" style="fill:#573a2d"/><path d="M33.64 36.27H32L30.9.38h2.74z" style="fill:#573a2d"/><path d="M30.36.38H32v35.89h-1.64z" style="fill:#8a6859"/><path d="M10.64 32.38V5.33H9v53.34l1.64.38v-22.4l19.72 4.57v22.4L32 64V36.27z" style="fill:#8a6859"/><linearGradient id="a" x1="-526.336" x2="-481.979" y1="32.191" y2="32.191" gradientTransform="translate(536.979)" gradientUnits="userSpaceOnUse"><stop offset="0" style="stop-color:#5e3f32"/><stop offset=".19" style="stop-color:#714e3f"/><stop offset=".465" style="stop-color:#855f4e"/><stop offset=".737" style="stop-color:#926a57"/><stop offset="1" style="stop-color:#966d5a"/></linearGradient><path d="m10.64 32.38 1.65-.38v-.76l18.07-4.19 1.64.38 1.64-.38L55 32l-23 5.33z" style="fill:url(#a)"/><path d="m32 0-1.64.38L32 .76l1.64-.38z" style="fill:#8a6859"/><linearGradient id="b" x1="-504.979" x2="-504.979" y1="36.952" y2="27.048" gradientTransform="translate(536.979)" gradientUnits="userSpaceOnUse"><stop offset="0" style="stop-color:#5e3f32;stop-opacity:0"/><stop offset="1" style="stop-color:#5e3f32"/></linearGradient><path d="M30.36 27.05v9.9h3.28v-9.9l-1.64.38z" style="fill:url(#b)"/><path d="M10.64 4.95 9 5.33l1.64.38 1.65-.38zm1.65 3.89 18.48-4.19.82.19-19.3 5.44z" style="fill:#8a6859"/><path d="M12.29 9.21s-1.29 5.4 0 12.78l19.3-4.38V4.84l-19.3 4.37z" style="fill:#573a2d"/></svg>