<svg xmlns="http://www.w3.org/2000/svg" xml:space="preserve" style="enable-background:new 0 0 64 64" viewBox="0 0 64 64"><linearGradient id="a" x1="18.179" x2="18.179" y1="62" y2="30.116" gradientUnits="userSpaceOnUse"><stop offset="0" style="stop-color:#db8c24"/><stop offset="1" style="stop-color:#da9733"/></linearGradient><path d="M29.699 34.705c-6.275-6.182-16.52-6.11-22.881.161C.456 41.136.386 51.23 6.66 57.41c6.275 6.182 16.52 6.11 22.881-.16 6.36-6.269 6.431-16.361.158-22.545z" style="fill:url(#a)"/><path d="M28.538 35.127c-5.974-5.886-15.701-5.844-21.724.092C.791 41.156.75 50.738 6.724 56.623c5.975 5.887 15.702 5.845 21.725-.091 6.022-5.935 6.062-15.517.09-21.405z" style="fill:#785e54"/><path d="M7.356 55.86c5.635 5.552 14.774 5.552 20.41-.002a14.076 14.076 0 0 0 0-20.114c-5.635-5.553-14.774-5.552-20.41.001a14.076 14.076 0 0 0 0 20.114z" style="fill:#fff"/><path d="m37.03 23.162-.856-.843.476-.469.856.844z" style="fill:#b5bec2"/><path d="M35.712 22.78c-.248-.025-.679-.45-.705-.693-.052-.484.904-1.376 1.397-1.376.25 0 .704.448.704.694 0 .486-.906 1.427-1.396 1.376z" style="fill:#c3ccd1"/><path d="m28.387 39.68 22.167-23.348-3.099-3.053L36.653 23.3a.772.772 0 0 1-.698.187l-.34-.077a.95.95 0 0 0-.86.231L23.014 34.384l5.373 5.295z" style="fill:#694d42"/><path d="m31.132 36.789-5.174-5.099-.408.374 5.201 5.125zm1.804-1.901-5.043-4.969-.408.374 5.07 4.996zm1.805-1.901-4.911-4.84-.408.374 4.939 4.867zm1.805-1.9-4.78-4.71-.409.373 4.808 4.737zm11.551-12.166-3.26-3.213-.406.376 3.286 3.237zm-9.025 9.505-4.596-4.53-.408.374 4.623 4.556zm5.776-6.083-3.473-3.423-.406.376 3.498 3.447zm6.069-6.291-3.177-3.13-.356.423 3.103 3.058zm-8.596 8.952-3.639-3.586-.405.376 3.664 3.61z" style="fill:silver"/><path d="m48.599 9.85-.856-.843.475-.469.857.843z" style="fill:#b5bec2"/><path d="M47.28 9.469c-.248-.026-.678-.45-.704-.694-.052-.484.903-1.376 1.396-1.376.25 0 .704.449.704.694 0 .486-.905 1.427-1.396 1.376z" style="fill:#c3ccd1"/><path d="m54.033 15.205.856.844.475-.469-.855-.844z" style="fill:#b5bec2"/><path d="M54.42 16.505c.026.243.457.667.704.693.491.051 1.396-.89 1.396-1.376 0-.246-.455-.694-.704-.694-.493 0-1.448.893-1.396 1.377z" style="fill:#c3ccd1"/><path d="m54.078 4.451-.857-.843.476-.469.857.844z" style="fill:#b5bec2"/><path d="M52.759 4.07c-.247-.026-.678-.45-.704-.694C52.003 2.892 52.958 2 53.45 2c.25 0 .704.449.705.694 0 .486-.906 1.427-1.397 1.376z" style="fill:#c3ccd1"/><path d="m59.512 9.806.856.844.476-.469-.856-.844z" style="fill:#b5bec2"/><path d="M59.9 11.106c.026.243.456.667.703.693.492.052 1.397-.89 1.397-1.376 0-.245-.455-.694-.704-.694-.494 0-1.449.893-1.397 1.377z" style="fill:#c3ccd1"/><linearGradient id="b" x1="47.438" x2="61.17" y1="9.583" y2="9.583" gradientUnits="userSpaceOnUse"><stop offset="0" style="stop-color:#394657"/><stop offset=".596" style="stop-color:#505e6a"/><stop offset="1" style="stop-color:#5a6973"/></linearGradient><path d="M55.104 14.906c.665-.794-.073-2.746.53-3.577.864-1.194 2.366-.069 3.595-.885 1.294-.86 2.023-2.635 1.934-3.036-.11-.49-1.397-.826-1.165-1.48-.927-.183-.342-1.619-.342-1.619s-1.457.576-1.643-.336c-.664.228-1.004-1.04-1.5-1.148-.408-.088-2.21.63-3.082 1.905-.829 1.212.313 2.691-.899 3.543-.843.594-2.825-.134-3.63.521-2.243 1.825-1.242 4.048-1.242 4.048l1.668 1.644 1.668 1.644s2.256.986 4.108-1.224z" style="fill:url(#b)"/><path d="M29.93 33.6a.388.388 0 0 1 0 .553.4.4 0 0 1-.56 0 .385.385 0 0 1 0-.552.4.4 0 0 1 .56 0zm3.733-3.677a.384.384 0 0 1 0 .55.4.4 0 0 1-.56 0 .383.383 0 0 1 0-.55.397.397 0 0 1 .56 0zm5.227-5.153a.388.388 0 0 1 0 .554.4.4 0 0 1-.56 0 .388.388 0 0 1 0-.553.4.4 0 0 1 .56 0zm5.975-5.886a.383.383 0 0 1 0 .551.4.4 0 0 1-.56 0 .385.385 0 0 1 0-.55.4.4 0 0 1 .56 0z" style="fill:#fff"/><path d="M50.679 11.432c-.95.936-2.375-.468-1.425-1.404.95-.936 2.375.468 1.425 1.404zm3.085 3.039c-.95.936-2.375-.468-1.425-1.404.95-.936 2.374.468 1.425 1.404zm2.394-8.438c-.95.936-2.375-.468-1.425-1.404s2.375.468 1.425 1.404zm3.085 3.039c-.95.936-2.375-.468-1.425-1.404.95-.936 2.375.468 1.425 1.404z" style="fill:#c3ccd1"/><radialGradient id="c" cx="22.282" cy="49.106" r="13.573" gradientTransform="matrix(1.0123 0 0 .9975 -4.971 -3.227)" gradientUnits="userSpaceOnUse"><stop offset="0" style="stop-color:#fff"/><stop offset=".515" style="stop-color:#fdfdfe"/><stop offset=".7" style="stop-color:#f6f8f9"/><stop offset=".833" style="stop-color:#ebedf2"/><stop offset=".939" style="stop-color:#dadfe7"/><stop offset="1" style="stop-color:#ccd3de"/></radialGradient><path d="M17.585 32.217c7.588-.002 13.74 6.06 13.74 13.537 0 7.48-6.153 13.541-13.742 13.541-7.589 0-13.74-6.062-13.74-13.539 0-7.477 6.152-13.54 13.742-13.539z" style="fill:url(#c)"/><path d="M31.583 45.756c0 7.605-6.28 13.795-13.999 13.795-7.72 0-14-6.19-14-13.795 0-7.606 6.28-13.794 14-13.794 7.718 0 14 6.188 14 13.794zm-27.507 0c-.001 7.339 6.058 13.309 13.508 13.311 7.447-.002 13.508-5.972 13.509-13.31 0-7.342-6.06-13.311-13.508-13.311-7.45 0-13.51 5.97-13.509 13.31z" style="fill:#abb0ba"/><path d="m17.23 52.439-.484.476-6.436-6.342.483-.476z" style="fill:#45332c"/><path d="m50.356 11.11-.176-.173-2.4 2.355-35.328 34.18-3.408 4.368.339.334 3.428-4.347 35.146-34.36z" style="fill:#abb0ba"/><path d="m37.153 22.346-.228-.224L11.27 46.308l-2.565 5.198.34.334 2.584-5.179zM55.632 5.632l-7.027 8.473L13.597 48.6l-3.874 3.91.339.334 3.842-3.939 34.911-34.591 7.028-8.474zm2.683 2.643-.21-.207-8.6 6.924-34.801 34.7-4.303 3.485.34.335 4.27-3.517L49.716 15.2z" style="fill:#abb0ba"/><path d="m52.93 13.648-.175-.173-2.391 2.363-34.425 35.07-4.86 2.938.34.334 4.879-2.917 34.243-35.25z" style="fill:#abb0ba"/><path d="M10.772 33.516c-.086-.147-.626.16-.54.308l.412.704c.087.147.627-.16.54-.308l-.412-.704zm13.751 23.468c-.086-.147-.627.16-.54.307l.412.705c.086.146.626-.16.54-.308l-.412-.704zm5.17-18.472-.714.406c-.15.085.163.617.312.533l.714-.407c.15-.085-.162-.617-.312-.532zM5.877 52.061l-.715.407c-.15.085.163.617.312.532l.714-.406c.15-.085-.162-.618-.311-.533zm8.342-19.865c-.044-.164-.647-.005-.602.16l.213.784c.045.164.647.005.603-.159l-.214-.785zm7.118 26.175c-.045-.164-.647-.005-.603.16l.214.785c.044.163.647.004.602-.16l-.213-.785zm9.846-16.524-.797.21c-.166.044-.004.638.162.594l.797-.21c.166-.044.005-.638-.162-.594zM17.272 31.8v.813c0 .17.623.17.623 0V31.8c0-.17-.623-.17-.623 0zm0 27.099v.813c0 .17.623.17.623 0v-.813c0-.17-.623-.17-.623 0zm14.475-13.45h-.825c-.172 0-.172.614 0 .614h.825c.172 0 .172-.614 0-.614zM20.948 32.196l-.214.785c-.044.164.558.323.603.16l.214-.786c.044-.164-.558-.323-.603-.159zM13.83 58.371l-.214.785c-.044.164.559.323.603.16l.214-.786c.044-.164-.558-.323-.603-.159zm17.515-9.3-.797-.21c-.166-.044-.328.55-.162.593l.797.21c.167.045.328-.55.162-.593zm-6.95-15.555-.412.704c-.087.147.454.455.54.308l.412-.704c.086-.147-.454-.455-.54-.308zM10.644 56.984l-.412.704c-.086.147.454.454.54.307l.413-.703c.085-.148-.455-.455-.54-.308zm18.335-4.39.714.406c.15.085.461-.448.312-.532l-.714-.407c-.15-.085-.461.448-.312.533zm-1.16 2.813-.583-.575c-.122-.12-.563.314-.441.434l.583.575c.122.12.563-.314.441-.434z" style="fill:#bdc2ce"/><path d="M7.924 35.719a14.317 14.317 0 0 0-3.227 15.676c.985-.463 1.468-1.541 1.221-2.589A12.42 12.42 0 0 1 9.31 37.083c.73-.72.754-1.862.09-2.62a14.87 14.87 0 0 0-1.475 1.256zm.603 14.974-2.54 3.652c-.166.237-.165.521 0 .685l2.024 1.995c.167.163.455.164.696.001l3.708-2.502c.449-.442.524-1.089.166-1.44L9.99 50.53c-.357-.352-1.011-.279-1.462.163z" style="fill:silver"/><path d="M50.4 11.156c-.578.569-1.444-.284-.866-.853.577-.568 1.442.284.865.853zm3.084 3.039c-.578.569-1.443-.284-.866-.852.577-.569 1.443.284.866.852zm2.394-8.438c-.577.569-1.442-.284-.865-.852.577-.57 1.442.284.865.852zm3.085 3.039c-.577.569-1.443-.284-.865-.852.577-.569 1.442.284.865.853z" style="fill:#b5bec2"/></svg>