<svg xmlns="http://www.w3.org/2000/svg" xml:space="preserve" style="enable-background:new 0 0 64 64" viewBox="0 0 64 64"><linearGradient id="a" x1="-1163.099" x2="-1160.257" y1="335.872" y2="335.872" gradientTransform="scale(-1 1) rotate(45 -210.194 1555.784)" gradientUnits="userSpaceOnUse"><stop offset="0" style="stop-color:#707b7d"/><stop offset=".081" style="stop-color:#939c9f"/><stop offset=".167" style="stop-color:#b2b9bc"/><stop offset=".24" style="stop-color:#c5cbce"/><stop offset=".291" style="stop-color:#ccd1d4"/><stop offset=".751" style="stop-color:#707b7d"/></linearGradient><path d="M11.427 7.763c.595.596.798 2.29 1.262 2.75C15.254 13.08 35.97 33.794 35.97 33.794l-2.177 2.177L10.512 12.69c-.464-.462-2.155-.665-2.752-1.263-4.953-4.953-1.286-8.618 3.667-3.664z" style="fill:url(#a)"/><linearGradient id="b" x1="-1161.669" x2="-1161.669" y1="319.869" y2="313.949" gradientTransform="scale(-1 1) rotate(45 -210.194 1555.784)" gradientUnits="userSpaceOnUse"><stop offset="0" style="stop-color:#cdd6db"/><stop offset="1" style="stop-color:#999fa3"/></linearGradient><path d="M4.282 2s6.24 4.943 6.471 5.176c2.417 2.417-1.161 5.995-3.578 3.578C6.943 10.522 2 4.285 2 4.285L4.282 2z" style="fill:url(#b)"/><linearGradient id="c" x1="-1396.471" x2="-1382.603" y1="-1155.675" y2="-1155.675" gradientTransform="rotate(134.999 -921.023 -258.45)" gradientUnits="userSpaceOnUse"><stop offset="0" style="stop-color:#d40000"/><stop offset=".244" style="stop-color:#ce0000"/><stop offset=".557" style="stop-color:#be0000"/><stop offset=".906" style="stop-color:#a40000"/><stop offset="1" style="stop-color:#9c0000"/></linearGradient><path d="M50.921 60.728c2.058 2.056 3.667 1.813 7.643-2.163s4.221-5.585 2.164-7.643l-14.632-14.63s-2.957-.837-3.917-1.322c-.948-.48-2.435-2.022-2.947-2.95-.434-.779-1.299-3.071-1.561-3.333-.307-.306-2.725-.005-2.725-.005s-2.483.485-4.13 2.133c-1.648 1.648-2.133 4.132-2.133 4.132s-.3 2.417.006 2.724c.262.262 2.553 1.127 3.333 1.561.927.512 2.469 1.999 2.949 2.947.485.959 1.322 3.917 1.322 3.917s8.235 8.24 14.628 14.632z" style="fill:url(#c)"/><linearGradient id="d" x1="-1396.789" x2="-1382.285" y1="-1148.777" y2="-1148.777" gradientTransform="rotate(134.999 -921.023 -258.45)" gradientUnits="userSpaceOnUse"><stop offset="0" style="stop-color:#ed0000"/><stop offset=".191" style="stop-color:#e70000"/><stop offset=".457" style="stop-color:#d50000"/><stop offset=".766" style="stop-color:#b70000"/><stop offset="1" style="stop-color:#9c0000"/></linearGradient><path d="M46.096 36.293c-.804-.684-2.957-.837-3.917-1.322 0 0-3.96 3.316-7.209 7.209.485.959.638 3.113 1.322 3.917 4.262-5.541 9.804-9.804 9.804-9.804z" style="fill:url(#d)"/><linearGradient id="e" x1="-1396.904" x2="-1382.074" y1="-1140.997" y2="-1140.997" gradientTransform="rotate(134.999 -921.023 -258.45)" gradientUnits="userSpaceOnUse"><stop offset="0" style="stop-color:#ed0000"/><stop offset=".191" style="stop-color:#e70000"/><stop offset=".457" style="stop-color:#d50000"/><stop offset=".766" style="stop-color:#b70000"/><stop offset="1" style="stop-color:#9c0000"/></linearGradient><path d="M39.231 32.021c-.434-.779-1.299-3.071-1.561-3.333 0 0-4.981 4.157-8.983 8.983-.309.373 2.553 1.127 3.333 1.561 3.405-3.805 7.211-7.211 7.211-7.211z" style="fill:url(#e)"/><linearGradient id="f" x1="-1396.29" x2="-1382.783" y1="-1136.18" y2="-1136.18" gradientTransform="rotate(134.999 -921.023 -258.45)" gradientUnits="userSpaceOnUse"><stop offset="0" style="stop-color:#ed0000"/><stop offset=".191" style="stop-color:#e70000"/><stop offset=".457" style="stop-color:#d50000"/><stop offset=".766" style="stop-color:#b70000"/><stop offset="1" style="stop-color:#9c0000"/></linearGradient><path d="m34.945 28.683-1.599-1.599s-1.703 1.265-3.351 2.912a34.136 34.136 0 0 0-2.912 3.351l1.599 1.6c2.809-3.385 6.263-6.264 6.263-6.264z" style="fill:url(#f)"/><linearGradient id="g" x1="-1162.981" x2="-1160.356" y1="376.689" y2="376.689" gradientTransform="scale(-1 1) rotate(45 -210.194 1555.784)" gradientUnits="userSpaceOnUse"><stop offset="0" style="stop-color:#630000"/><stop offset=".22" style="stop-color:#7a0000"/><stop offset=".492" style="stop-color:#900000"/><stop offset=".756" style="stop-color:#9d0000"/><stop offset="1" style="stop-color:#a10000"/></linearGradient><path d="M56.607 54.753 43.734 41.879c-.747-.747-2.603 1.11-1.857 1.855L54.75 56.608c.746.745 2.602-1.109 1.857-1.855z" style="fill:url(#g)"/><linearGradient id="h" x1="-1158.467" x2="-1156.157" y1="376.689" y2="376.689" gradientTransform="scale(-1 1) rotate(45 -210.194 1555.784)" gradientUnits="userSpaceOnUse"><stop offset="0" style="stop-color:#630000"/><stop offset=".22" style="stop-color:#7a0000"/><stop offset=".492" style="stop-color:#900000"/><stop offset=".756" style="stop-color:#9d0000"/><stop offset="1" style="stop-color:#a10000"/></linearGradient><path d="M53.415 57.944 40.541 45.073c-.747-.746-2.38.887-1.635 1.63l12.875 12.874c.746.744 2.379-.885 1.634-1.633z" style="fill:url(#h)"/><linearGradient id="i" x1="-1167.18" x2="-1164.87" y1="376.689" y2="376.689" gradientTransform="scale(-1 1) rotate(45 -210.194 1555.784)" gradientUnits="userSpaceOnUse"><stop offset="0" style="stop-color:#630000"/><stop offset=".22" style="stop-color:#7a0000"/><stop offset=".492" style="stop-color:#900000"/><stop offset=".756" style="stop-color:#9d0000"/><stop offset="1" style="stop-color:#a10000"/></linearGradient><path d="M59.577 51.783 46.701 38.91c-.744-.747-2.377.888-1.631 1.631l12.873 12.876c.746.744 2.379-.889 1.634-1.634z" style="fill:url(#i)"/></svg>