<svg xmlns="http://www.w3.org/2000/svg" xml:space="preserve" viewBox="0 0 64 64"><linearGradient id="a" x1="235.436" x2="235.436" y1="-305.291" y2="-344.464" gradientTransform="rotate(-30 799.174 233.278)" gradientUnits="userSpaceOnUse"><stop offset=".036" style="stop-color:#ffcf99"/><stop offset=".044" style="stop-color:#ffcc9a"/><stop offset=".122" style="stop-color:#fdb4a7"/><stop offset=".17" style="stop-color:#fcabab"/><stop offset=".272" style="stop-color:#febda2"/><stop offset=".351" style="stop-color:#ffcf99"/><stop offset=".648" style="stop-color:#ffcf99"/><stop offset=".698" style="stop-color:#efcb95"/><stop offset=".776" style="stop-color:#cfc48e"/><stop offset=".882" style="stop-color:#cfc48e"/><stop offset=".897" style="stop-color:#cfc48e"/><stop offset="1" style="stop-color:#5dbaae"/></linearGradient><path fill="url(#a)" d="M48.605 21.935c5.318 9.421 2.163 21.465-7.049 26.903-9.214 5.439-20.998 2.211-26.314-7.207-5.321-9.42-2.165-21.465 7.048-26.9 9.216-5.442 20.997-2.213 26.315 7.204z"/><radialGradient id="b" cx="233.795" cy="-332.188" r="19.263" gradientTransform="matrix(.866 -.5111 .5 .8854 -9.55 443.846)" gradientUnits="userSpaceOnUse"><stop offset="0" style="stop-color:#fff;stop-opacity:0"/><stop offset=".099" style="stop-color:#f9f9f9;stop-opacity:.099"/><stop offset=".233" style="stop-color:#e8e8e8;stop-opacity:.2332"/><stop offset=".388" style="stop-color:#cbcbcb;stop-opacity:.3875"/><stop offset=".557" style="stop-color:#a3a3a3;stop-opacity:.557"/><stop offset=".739" style="stop-color:#717171;stop-opacity:.7387"/><stop offset=".928" style="stop-color:#333;stop-opacity:.9278"/><stop offset="1" style="stop-color:#1a1a1a"/></radialGradient><path fill="url(#b)" d="M48.605 21.935c5.318 9.421 2.163 21.465-7.049 26.903-9.214 5.439-20.998 2.211-26.314-7.207-5.321-9.42-2.165-21.465 7.048-26.9 9.216-5.442 20.997-2.213 26.315 7.204z" opacity=".2"/><linearGradient id="c" x1="235.435" x2="235.435" y1="-305.291" y2="-329.336" gradientTransform="rotate(-30 799.174 233.278)" gradientUnits="userSpaceOnUse"><stop offset=".582" style="stop-color:#1a1a1a;stop-opacity:0"/><stop offset=".903" style="stop-color:#1a1a1a"/></linearGradient><path fill="url(#c)" d="M48.605 21.935c5.318 9.421 2.161 21.466-7.049 26.903-9.214 5.439-20.998 2.211-26.314-7.207-2.92-5.171 30.445-24.864 33.363-19.696z" opacity=".3"/><linearGradient id="d" x1="235.435" x2="235.435" y1="-318.708" y2="-331.49" gradientTransform="rotate(-30 799.174 233.278)" gradientUnits="userSpaceOnUse"><stop offset="0" style="stop-color:#798694"/><stop offset=".661" style="stop-color:#d4c17a"/><stop offset="1" style="stop-color:#c98d64"/></linearGradient><path fill="url(#d)" d="M63.631 13.068c-1.792-3.174-14.001.602-34.954 12.972C7.728 38.404-1.575 47.325.217 50.5c1.306 2.313 5.238 2.652 18.769-4.123a18.75 18.75 0 0 1-1.784-1.894c-2.962 1.146-4.894 1.53-5.239.918-.833-1.476 7.776-8.153 19.229-14.913 11.456-6.761 21.416-11.047 22.249-9.571.346.614-.946 2.131-3.398 4.179.295.834.532 1.678.712 2.529 12.501-8.591 14.182-12.244 12.876-14.557z"/><linearGradient id="e" x1="91.34" x2="91.34" y1="-193.915" y2="-206.422" gradientTransform="rotate(-30 495.456 26.46)" gradientUnits="userSpaceOnUse"><stop offset="0" style="stop-color:#524239"/><stop offset="1" style="stop-color:#8c7a6d"/></linearGradient><path fill="url(#e)" d="M62.998 13.966c-1.671-2.96-16.84 2.796-33.878 12.853C12.08 36.876-.378 47.428 1.293 50.388c1.1 1.943 8.037.118 17.511-4.221-.077-.075-.163-.142-.238-.217-9.008 4.11-15.563 5.847-16.592 4.023-1.594-2.819 10.62-13.081 27.282-22.915 16.661-9.834 31.461-15.517 33.051-12.7 1.031 1.825-3.719 6.761-11.705 12.681.028.105.041.212.066.319 8.41-6.216 13.427-11.447 12.33-13.392z" opacity=".5"/><linearGradient id="f" x1="91.336" x2="91.336" y1="-195.289" y2="-203.922" gradientTransform="rotate(-30 495.456 26.46)" gradientUnits="userSpaceOnUse"><stop offset="0" style="stop-color:#524239"/><stop offset="1" style="stop-color:#8c7a6d"/></linearGradient><path fill="url(#f)" d="M55.791 18.859c-1.143-2.021-12.533 2.515-25.442 10.135S7.9 44.432 9.043 46.453c.579 1.029 3.819.354 8.551-1.553l-.175-.192c-4.189 1.64-7.034 2.196-7.558 1.269-1.087-1.921 8.132-9.444 20.591-16.798 12.459-7.354 23.439-11.754 24.527-9.833.522.929-1.374 3.169-4.857 6.059.029.082.05.167.077.251 3.982-3.238 6.173-5.768 5.592-6.797z" opacity=".5"/><linearGradient id="g" x1="91.338" x2="91.338" y1="-194.642" y2="-205.178" gradientTransform="rotate(-30 495.456 26.46)" gradientUnits="userSpaceOnUse"><stop offset="0" style="stop-color:#524239"/><stop offset="1" style="stop-color:#8c7a6d"/></linearGradient><path fill="url(#g)" d="M59.946 16.064c-1.401-2.479-12.295 1.265-30.213 11.84C11.814 38.481 3.194 46.254 4.598 48.736c.896 1.588 5.691.611 13.708-3.053-.129-.132-.248-.275-.375-.411-6.12 2.569-10.413 3.52-11.163 2.19-1.333-2.357 9.006-11.015 23.095-19.332 14.088-8.315 26.587-13.139 27.92-10.779.75 1.328-2.199 4.652-7.438 8.788.053.18.113.357.162.535 7.112-5.263 10.335-9.022 9.439-10.61z"/></svg>