<svg xmlns="http://www.w3.org/2000/svg" xml:space="preserve" style="enable-background:new 0 0 64 64" viewBox="0 0 64 64"><linearGradient id="a" x1="32" x2="32" y1="52.791" y2="4.209" gradientUnits="userSpaceOnUse"><stop offset="0" style="stop-color:#8d9ca3"/><stop offset=".281" style="stop-color:#9cabb1"/><stop offset=".675" style="stop-color:#abb9bf"/><stop offset="1" style="stop-color:#b0bec4"/></linearGradient><path d="M51.25 50.19V22.64c0-24.58-38.5-24.58-38.5 0v27.55h38.5z" style="fill:url(#a)"/><path d="M21 31.5v15h22v-15H21zM42.5 46h-21V32h21v14z" style="fill:#778991"/><linearGradient id="b" x1="32" x2="32" y1="53" y2="2" gradientUnits="userSpaceOnUse"><stop offset="0" style="stop-color:#64737a"/><stop offset=".818" style="stop-color:#a2b0b6"/><stop offset="1" style="stop-color:#b0bec4"/></linearGradient><path d="M15 50.19V22.11C15 10.98 23.54 6 32 6s17 4.98 17 16.11v28.08h4V22.11C53 8.7 42.5 2 32 2S11 8.7 11 22.11v28.08h4z" style="fill:url(#b)"/><path d="M16.25 50.19V22.11c0-10.26 7.91-14.86 15.75-14.86s15.75 4.59 15.75 14.86v28.08h.5V22.11C48.25 11.5 40.09 6.75 32 6.75S15.75 11.5 15.75 22.11v28.08h.5z" style="fill:#778991"/><linearGradient id="c" x1="32" x2="32" y1="58" y2="50" gradientUnits="userSpaceOnUse"><stop offset="0" style="stop-color:#64737a"/><stop offset=".217" style="stop-color:#6a7980"/><stop offset=".514" style="stop-color:#7c8a91"/><stop offset=".856" style="stop-color:#99a6ac"/><stop offset="1" style="stop-color:#a7b4ba"/></linearGradient><path d="M56.03 50H7.97c-.54 0-.97.5-.97 1.12V58h50v-6.88c0-.62-.43-1.12-.97-1.12z" style="fill:url(#c)"/><path d="M57.99 57H6.01c-.56 0-1.01.36-1.01.79V62h54v-4.21c0-.43-.45-.79-1.01-.79z" style="fill:#6d7d85"/><path d="M9.07 50.91s-2.21 3.52.1 11.09c.51 0-1.01-5.68-.1-11.09zm46.2-.98S56.6 55.27 57 62c.52 0 .27-8.55-1.73-12.07z" style="fill:#390"/><path d="M47.44 62c.7-1.09 1.11-5.08-.09-8.8.08 3.27-2.01 7.61-1.5 8.8h1.59zM35 62c.76-1.09 1.04-5.62-.26-9.34.08 3.27-2.01 8.15-1.47 9.34H35z" style="fill:#88de00"/><path d="M28.91 62c.54-1.19-1.55-4.45-1.47-7.72-1.3 3.72-1.01 6.62-.25 7.72h1.72zm13.7 0c.54-1.19-2.15-3.83-2.06-7.1-1.3 3.72-.41 6.01.34 7.1h1.72zm3.56 0c.51-1.19-1.44-4.45-1.36-7.72-1.2 3.72-.93 6.62-.23 7.72h1.59z" style="fill:#86c400"/><path d="M43.62 62c.89-1.23 1.26-4.77-.22-9.34.09 4-2.34 8-1.59 9.34h1.81zm15.6 0c.88-1.23 1.25-4.77-.22-9.34.09 4-2.35 8-1.59 9.34h1.81zm-7.4 0c1.06-1.36 1.52-5.5-.21-10.86.11 4.7-2.8 9.39-1.77 10.86h1.98z" style="fill:#88de00"/><path d="M35.9 62c-.76-1.09-1.05-3.99.25-7.72-.08 3.27 2.01 6.53 1.47 7.72H35.9zm-3.08 0c.76-1.09 1-2.9-.3-6.62.08 3.27-1.97 5.43-1.42 6.62h1.72zm22.97 0c-.7-1.09.47-3.18 1.67-6.91-.08 3.27.43 5.72-.07 6.91h-1.6z" style="fill:#86c400"/><path d="M54.56 62c-.7-1.09-.81-5.82.39-9.54-.08 3.27 1.71 8.35 1.2 9.54h-1.59z" style="fill:#88de00"/><path d="M52.06 62c-.5-1.19 1.44-4.45 1.36-7.72 1.2 3.72.93 6.62.23 7.72h-1.59zm-4.47 0c-.5-1.19 1.44-4.45 1.36-7.72 1.2 3.72.93 6.62.23 7.72h-1.59z" style="fill:#86c400"/><path d="M29.11 62c-.95-1.23-.15-3.83 1.44-8.4-.1 4 1.33 7.05.52 8.4h-1.96zm8.81 0c-1.14-1.36-1.65-5.5.22-10.86-.12 4.7 3.02 9.39 1.92 10.86h-2.14zm-23.38 0c.7-1.09 1.11-5.08-.09-8.8.08 3.27-2.01 7.61-1.5 8.8h1.59z" style="fill:#88de00"/><path d="M9.7 62c.54-1.19-2.15-3.83-2.06-7.1-1.3 3.72-.41 6.01.34 7.1H9.7zm3.57 0c.51-1.19-1.44-4.45-1.36-7.72-1.2 3.72-.93 6.62-.23 7.72h1.59z" style="fill:#86c400"/><path d="M10.72 62c.89-1.23 1.26-4.77-.22-9.34.09 4-2.34 8-1.59 9.34h1.81zm15.6 0c.88-1.23 1.25-4.77-.22-9.34.09 4-2.35 8-1.59 9.34h1.81zm-7.41 0c1.06-1.36 1.52-5.5-.21-10.86.11 4.7-2.8 9.39-1.77 10.86h1.98z" style="fill:#88de00"/><path d="M22.89 62c-.7-1.09.47-3.18 1.67-6.91-.08 3.27.44 5.72-.07 6.91h-1.6z" style="fill:#86c400"/><path d="M21.66 62c-.7-1.09-.81-5.82.39-9.54-.08 3.27 1.71 8.35 1.2 9.54h-1.59z" style="fill:#88de00"/><path d="M19.16 62c-.5-1.19 1.44-4.45 1.36-7.72 1.2 3.72.93 6.62.23 7.72h-1.59zm-4.48 0c-.5-1.19 1.44-4.45 1.36-7.72 1.2 3.72.93 6.62.23 7.72h-1.59z" style="fill:#86c400"/><path d="M5.02 62c-1.14-1.36-1.65-5.5.22-10.86-.12 4.7 3.02 9.39 1.92 10.86H5.02z" style="fill:#88de00"/><linearGradient id="d" x1="54.43" x2="52.425" y1="48.967" y2="52.294" gradientTransform="scale(-1 1) rotate(16.153 .73 -336.97)" gradientUnits="userSpaceOnUse"><stop offset="0" style="stop-color:#f25252"/><stop offset=".189" style="stop-color:#f35c5c"/><stop offset=".517" style="stop-color:#f87979"/><stop offset=".941" style="stop-color:#fea6a6"/><stop offset="1" style="stop-color:#ffadad"/></linearGradient><path d="M55.01 48.71c1.76-.43 5.04 1.34 2.88 2.71-1.18 1.86-2.94-.85-2.88-2.71z" style="fill:url(#d)"/><linearGradient id="e" x1="54.504" x2="50.678" y1="48.812" y2="48.747" gradientTransform="scale(-1 1) rotate(16.153 .73 -336.97)" gradientUnits="userSpaceOnUse"><stop offset="0" style="stop-color:#f25252"/><stop offset=".251" style="stop-color:#f67171"/><stop offset=".562" style="stop-color:#fb9292"/><stop offset=".824" style="stop-color:#fea6a6"/><stop offset="1" style="stop-color:#ffadad"/></linearGradient><path d="M54.99 48.72c.84-2.46 3.71-3.95 3.71-1.09.84 2.07-2.26 2.16-3.71 1.09z" style="fill:url(#e)"/><linearGradient id="f" x1="54.572" x2="54.598" y1="48.968" y2="44.999" gradientTransform="scale(-1 1) rotate(16.153 .73 -336.97)" gradientUnits="userSpaceOnUse"><stop offset="0" style="stop-color:#f25252"/><stop offset=".491" style="stop-color:#f87d7d"/><stop offset="1" style="stop-color:#ffadad"/></linearGradient><path d="M55.02 48.71c1.12-1.5 1.18-4.86-1.08-3.92-3.17.6-.54 3.18 1.08 3.92z" style="fill:url(#f)"/><linearGradient id="g" x1="54.431" x2="58.256" y1="48.935" y2="48.201" gradientTransform="scale(-1 1) rotate(16.153 .73 -336.97)" gradientUnits="userSpaceOnUse"><stop offset="0" style="stop-color:#f25252"/><stop offset=".177" style="stop-color:#f35a5a"/><stop offset=".451" style="stop-color:#f66f6f"/><stop offset=".785" style="stop-color:#fb9393"/><stop offset="1" style="stop-color:#ffadad"/></linearGradient><path d="M55.01 48.71c-1.16-1.46-5.12-1.94-3.84.33-.12 2.25 2.83 1.2 3.84-.33z" style="fill:url(#g)"/><linearGradient id="h" x1="54.501" x2="56.767" y1="48.984" y2="52.351" gradientTransform="scale(-1 1) rotate(16.153 .73 -336.97)" gradientUnits="userSpaceOnUse"><stop offset="0" style="stop-color:#f25252"/><stop offset=".267" style="stop-color:#f77474"/><stop offset=".568" style="stop-color:#fb9393"/><stop offset=".823" style="stop-color:#fea6a6"/><stop offset="1" style="stop-color:#ffadad"/></linearGradient><path d="M55 48.7c-1.73.54-3.96 3.93-1.25 3.86 2.36.97 2.31-2.17 1.25-3.86z" style="fill:url(#h)"/><path d="M54.01 48.94c.16.56.75.88 1.31.72.56-.16.88-.75.72-1.31-.16-.56-.75-.88-1.31-.72-.56.16-.89.74-.72 1.31z" style="fill:#fff778"/><linearGradient id="i" x1="89.337" x2="87.79" y1="56.648" y2="59.217" gradientTransform="rotate(-6.975 38.251 588.547)" gradientUnits="userSpaceOnUse"><stop offset="0" style="stop-color:#ab57ff"/><stop offset=".129" style="stop-color:#ae61ff"/><stop offset=".352" style="stop-color:#b47eff"/><stop offset=".642" style="stop-color:#bfabff"/><stop offset=".986" style="stop-color:#ceeaff"/><stop offset="1" style="stop-color:#cfedff"/></linearGradient><path d="M24.33 54.38c-1.38.23-3.17 2.48-1.23 2.8 1.41.97 1.84-1.49 1.23-2.8z" style="fill:url(#i)"/><linearGradient id="j" x1="89.394" x2="86.441" y1="56.528" y2="56.478" gradientTransform="rotate(-6.975 38.251 588.547)" gradientUnits="userSpaceOnUse"><stop offset="0" style="stop-color:#ab57ff"/><stop offset=".216" style="stop-color:#b684ff"/><stop offset=".466" style="stop-color:#c1b1ff"/><stop offset=".689" style="stop-color:#c8d2ff"/><stop offset=".875" style="stop-color:#cde6ff"/><stop offset="1" style="stop-color:#cfedff"/></linearGradient><path d="M24.34 54.39c-1.34-1.49-3.83-1.68-2.97.35.04 1.72 2.27.85 2.97-.35z" style="fill:url(#j)"/><linearGradient id="k" x1="89.447" x2="89.467" y1="56.648" y2="53.583" gradientTransform="rotate(-6.975 38.251 588.547)" gradientUnits="userSpaceOnUse"><stop offset="0" style="stop-color:#ab57ff"/><stop offset=".308" style="stop-color:#b582ff"/><stop offset="1" style="stop-color:#cfedff"/></linearGradient><path d="M24.32 54.39c-1.25-.73-2.31-3.1-.42-3.11 2.43-.54 1.35 2.09.42 3.11z" style="fill:url(#k)"/><linearGradient id="l" x1="89.338" x2="92.292" y1="56.623" y2="56.056" gradientTransform="rotate(-6.975 38.251 588.547)" gradientUnits="userSpaceOnUse"><stop offset="0" style="stop-color:#ab57ff"/><stop offset=".125" style="stop-color:#ad5fff"/><stop offset=".317" style="stop-color:#b275ff"/><stop offset=".553" style="stop-color:#bb98ff"/><stop offset=".822" style="stop-color:#c6c9ff"/><stop offset="1" style="stop-color:#cfedff"/></linearGradient><path d="M24.33 54.39c.38-1.39 3.05-2.93 2.83-.93.76 1.55-1.65 1.71-2.83.93z" style="fill:url(#l)"/><linearGradient id="m" x1="89.392" x2="91.142" y1="56.661" y2="59.26" gradientTransform="rotate(-6.975 38.251 588.547)" gradientUnits="userSpaceOnUse"><stop offset="0" style="stop-color:#ab57ff"/><stop offset=".234" style="stop-color:#b788ff"/><stop offset=".475" style="stop-color:#c1b3ff"/><stop offset=".691" style="stop-color:#c9d3ff"/><stop offset=".874" style="stop-color:#cde6ff"/><stop offset="1" style="stop-color:#cfedff"/></linearGradient><path d="M24.33 54.38c1.39-.14 4.01 1.59 2.06 2.36-1.38 1.4-2.3-.84-2.06-2.36z" style="fill:url(#m)"/><path d="M25.11 54.24a.82.82 0 0 1-.71.91c-.45.05-.85-.26-.91-.71s.26-.85.71-.91c.45-.05.85.26.91.71z" style="fill:#fff778"/><linearGradient id="n" x1="150.228" x2="148.681" y1="63.269" y2="65.838" gradientTransform="rotate(-11.754 63.658 582.02)" gradientUnits="userSpaceOnUse"><stop offset="0" style="stop-color:#ffbc70"/><stop offset=".183" style="stop-color:#ffc37a"/><stop offset=".5" style="stop-color:#ffd597"/><stop offset=".91" style="stop-color:#fff3c4"/><stop offset="1" style="stop-color:#fffacf"/></linearGradient><path d="M42.79 56.52c-1.36.34-2.96 2.74-.99 2.89 1.48.84 1.7-1.64.99-2.89z" style="fill:url(#n)"/><linearGradient id="o" x1="150.286" x2="147.332" y1="63.149" y2="63.099" gradientTransform="rotate(-11.754 63.658 582.02)" gradientUnits="userSpaceOnUse"><stop offset="0" style="stop-color:#ffbc70"/><stop offset=".272" style="stop-color:#ffd393"/><stop offset=".575" style="stop-color:#ffe8b4"/><stop offset=".829" style="stop-color:#fff5c8"/><stop offset="1" style="stop-color:#fffacf"/></linearGradient><path d="M42.8 56.52c-1.46-1.37-3.96-1.36-2.93.6.18 1.71 2.33.65 2.93-.6z" style="fill:url(#o)"/><linearGradient id="p" x1="150.339" x2="150.359" y1="63.27" y2="60.205" gradientTransform="rotate(-11.754 63.658 582.02)" gradientUnits="userSpaceOnUse"><stop offset="0" style="stop-color:#ffbc70"/><stop offset=".472" style="stop-color:#ffd89b"/><stop offset="1" style="stop-color:#fffacf"/></linearGradient><path d="M42.78 56.53c-1.31-.62-2.56-2.89-.68-3.06 2.38-.75 1.52 1.96.68 3.06z" style="fill:url(#p)"/><linearGradient id="q" x1="150.23" x2="153.184" y1="63.244" y2="62.678" gradientTransform="rotate(-11.754 63.658 582.02)" gradientUnits="userSpaceOnUse"><stop offset="0" style="stop-color:#ffbc70"/><stop offset=".172" style="stop-color:#ffc178"/><stop offset=".438" style="stop-color:#ffcf8e"/><stop offset=".762" style="stop-color:#ffe6b1"/><stop offset="1" style="stop-color:#fffacf"/></linearGradient><path d="M42.79 56.52c.26-1.42 2.79-3.17 2.74-1.16.89 1.49-1.5 1.84-2.74 1.16z" style="fill:url(#q)"/><linearGradient id="r" x1="150.284" x2="152.034" y1="63.282" y2="65.882" gradientTransform="rotate(-11.754 63.658 582.02)" gradientUnits="userSpaceOnUse"><stop offset="0" style="stop-color:#ffbc70"/><stop offset=".288" style="stop-color:#ffd596"/><stop offset=".581" style="stop-color:#ffe9b5"/><stop offset=".828" style="stop-color:#fff6c8"/><stop offset="1" style="stop-color:#fffacf"/></linearGradient><path d="M42.79 56.51c1.38-.26 4.13 1.25 2.25 2.18-1.26 1.51-2.36-.65-2.25-2.18z" style="fill:url(#r)"/><path d="M43.55 56.31a.811.811 0 1 1-1.59.33.811.811 0 1 1 1.59-.33z" style="fill:#fff778"/><linearGradient id="s" x1="-105.039" x2="-107.043" y1="86.845" y2="90.172" gradientTransform="rotate(13.32 106.86 557.051)" gradientUnits="userSpaceOnUse"><stop offset="0" style="stop-color:#ff70a6"/><stop offset=".183" style="stop-color:#ff7aac"/><stop offset=".5" style="stop-color:#ff97be"/><stop offset=".91" style="stop-color:#ffc4d9"/><stop offset="1" style="stop-color:#ffcfe0"/></linearGradient><path d="M9.05 50.71c-1.78-.34-4.97 1.59-2.75 2.85 1.28 1.8 2.9-.99 2.75-2.85z" style="fill:url(#s)"/><linearGradient id="t" x1="-104.965" x2="-108.79" y1="86.69" y2="86.625" gradientTransform="rotate(13.32 106.86 557.051)" gradientUnits="userSpaceOnUse"><stop offset="0" style="stop-color:#ff70a6"/><stop offset=".272" style="stop-color:#ff93bc"/><stop offset=".575" style="stop-color:#ffb4cf"/><stop offset=".829" style="stop-color:#ffc8dc"/><stop offset="1" style="stop-color:#ffcfe0"/></linearGradient><path d="M9.07 50.72c-.96-2.41-3.9-3.77-3.76-.9-.74 2.1 2.36 2.04 3.76.9z" style="fill:url(#t)"/><linearGradient id="u" x1="-104.897" x2="-104.871" y1="86.846" y2="82.877" gradientTransform="rotate(13.32 106.86 557.051)" gradientUnits="userSpaceOnUse"><stop offset="0" style="stop-color:#ff70a6"/><stop offset=".472" style="stop-color:#ff9bc0"/><stop offset="1" style="stop-color:#ffcfe0"/></linearGradient><path d="M9.04 50.71c-1.19-1.44-1.41-4.8.89-3.96 3.19.44.69 3.15-.89 3.96z" style="fill:url(#u)"/><linearGradient id="v" x1="-105.037" x2="-101.212" y1="86.813" y2="86.079" gradientTransform="rotate(13.32 106.86 557.051)" gradientUnits="userSpaceOnUse"><stop offset="0" style="stop-color:#ff70a6"/><stop offset=".172" style="stop-color:#ff78ab"/><stop offset=".438" style="stop-color:#ff8eb8"/><stop offset=".762" style="stop-color:#ffb1cd"/><stop offset="1" style="stop-color:#ffcfe0"/></linearGradient><path d="M9.05 50.71c1.09-1.52 5.02-2.19 3.85.14.23 2.24-2.76 1.34-3.85-.14z" style="fill:url(#v)"/><linearGradient id="w" x1="-104.968" x2="-102.701" y1="86.862" y2="90.229" gradientTransform="rotate(13.32 106.86 557.051)" gradientUnits="userSpaceOnUse"><stop offset="0" style="stop-color:#ff70a6"/><stop offset=".288" style="stop-color:#ff96bd"/><stop offset=".581" style="stop-color:#ffb5d0"/><stop offset=".828" style="stop-color:#ffc8dc"/><stop offset="1" style="stop-color:#ffcfe0"/></linearGradient><path d="M9.06 50.7c1.76.46 4.15 3.73 1.44 3.79-2.31 1.09-2.41-2.05-1.44-3.79z" style="fill:url(#w)"/><path d="M10.06 50.89c-.13.57-.7.92-1.27.78-.57-.13-.92-.7-.78-1.27.13-.57.7-.92 1.27-.78.57.13.92.7.78 1.27z" style="fill:#fff778"/><path d="M36.96 24.3s-.26-.06-.66-.18c.16-.05.64-.06.64-.06l-.14-.3s-.33-.07-.83-.2c.08-.04.54-.05.54-.05l-.14-.3s-2.38-.08-3.88-1.73c1.88.7 3.66-.86 3.66-.86l-.15-.27.74-1.07-.15-.26.47-1.04-.19-.3.17-1.03-.18-.29-.04-1.05-.27-.24s-.06-.54-.44-1.1c0 0-.04.14-.31.56 0 0-.17-.82-.77-1.33 0 0-.1.47-.54 1.27 0 0-.16-.64-.69-.99 0 0-.23 1.78-1.98 3.66-1.28 1.1-2.04 2.13-2.3 2.77-.54-.13-.92-.19-.99-.33-.63-1.39-2.09-.91-1.96.03-.16.12-.46.38-.46.57l.14.3 1.67-.62s7.56 6.57 7.9 6.16l-.11-.26s.64.02.8-.16l-.18-.28s.35.01.5-.15l-.13-.29.42-.27-.16-.31z" style="fill:#555f69"/><path d="M37.1 24.61s-.26-.06-.66-.18c.22-.08.39-.2.49-.36 0 0-.33-.07-.83-.2.17-.08.31-.2.39-.35 0 0-2.38-.08-3.88-1.73 1.88.7 3.38-.4 3.52-1.17 0 0-.18.08-.51.18.6-.4 1.01-.96 1.1-1.51 0 0-.2.12-.55.29.51-.49.82-1.09.88-1.59 0 0-.16.12-.45.3.42-.54.6-1.15.43-1.62 0 0-.09.1-.25.26.23-.51.25-1.07.03-1.6 0 0-.09.14-.28.38.07-.49-.01-.99-.3-1.42 0 0-.12.26-.4.68a2 2 0 0 0-.69-1.45s-.14.53-.57 1.34c-.07-.41-.28-.78-.66-1.05 0 0-.23 1.78-1.98 3.66-1.28 1.1-2.04 2.12-2.3 2.77-.54-.13-.92-.19-.99-.33-.63-1.39-2.09-.91-1.96.03-.16.12-.46.38-.46.57.02-.01.04-.02.06-.02.24-.07.46-.03.62-.02.13.19.33.38.6.57.66.46.29 3.44 4.1 3.92.49.06.88.08 1.2.06 1.02 1.21 2.65 1.44 2.99 1.02 0 0-.18-.07-.46-.19.54.05.99-.05 1.15-.24 0 0-.16-.06-.41-.17.32-.01.58-.1.72-.26 0 0-.12-.04-.33-.12.3-.1.52-.25.64-.45zM26 35.5h12v1H26zm-2 3h6v1h-6zm0 3h4v1h-4zm6 0h10v1H30zm2-3h8v1h-8z" style="fill:#778991"/></svg>