<svg xmlns="http://www.w3.org/2000/svg" xml:space="preserve" style="enable-background:new 0 0 64 64" viewBox="0 0 64 64"><linearGradient id="a" x1="32.094" x2="30.377" y1="45.857" y2="57.045" gradientUnits="userSpaceOnUse"><stop offset="0" style="stop-color:#1a1626;stop-opacity:.3"/><stop offset="1" style="stop-color:#1a1626;stop-opacity:0"/></linearGradient><path d="M4.01 53.05 42.26 60l16.29-10.72-23.65-2.06z" style="fill:url(#a)"/><path d="m38.95 31.66-3.49 13.05s9.47 2.76 21.68 3.45l-18.19-16.5z" style="fill:#735743"/><path d="m42.22 24.76-38.39-.8s19.42 20.07 31.64 20.75l6.75-19.95z" style="fill:#664d3b"/><path d="m34.62 44.61.28 2.6s10.03 1.6 22.24 2.29l-.98-1.72c0 .01-13.72-2.26-21.54-3.17z" style="fill:#947056"/><path d="m4.73 24.76-2.55.14S16.92 38.76 34.9 47.22l.56-2.5c0-.01-15.09-8.43-30.73-19.96z" style="fill:#735743"/><path d="M30.43 28.61s18.41 16.86 27 21.22c.52 0 1.11-.3 1.11-.3C33.3 25.6 30.43 28.61 30.43 28.61z" style="fill:#8a6951"/><linearGradient id="b" x1="48.847" x2="48.847" y1="39.733" y2="8.183" gradientUnits="userSpaceOnUse"><stop offset="0" style="stop-color:#b3815d"/><stop offset=".217" style="stop-color:#bf8c66"/><stop offset=".687" style="stop-color:#d49e75"/><stop offset="1" style="stop-color:#dba57b"/></linearGradient><path d="m38.52 8.18-4.4 12.21s19.22 11.18 27.44 19.34c0 0 1.93-3.27 2.01-6.81-6.32-8.26-17.36-17.86-25.05-24.74z" style="fill:url(#b)"/><linearGradient id="c" x1="51.26" x2="51.26" y1="32.924" y2="4.736" gradientUnits="userSpaceOnUse"><stop offset="0" style="stop-color:#b3815d"/><stop offset=".217" style="stop-color:#bf8c66"/><stop offset=".687" style="stop-color:#d49e75"/><stop offset="1" style="stop-color:#dba57b"/></linearGradient><path d="m39.82 4.74-1.3 3.45s16.13 16.78 25.06 24.74l.42-2.18c-6.07-5.57-6.42-10.36-24.18-26.01z" style="fill:url(#c)"/><linearGradient id="d" x1="46.861" x2="46.861" y1="49.538" y2="19.486" gradientUnits="userSpaceOnUse"><stop offset="0" style="stop-color:#b3815d"/><stop offset=".217" style="stop-color:#bf8c66"/><stop offset=".687" style="stop-color:#d49e75"/><stop offset="1" style="stop-color:#dba57b"/></linearGradient><path d="m34.45 19.49-2.29 9.2s18.43 16.77 26.39 20.85c2.6-4.45 3.02-9.81 3.02-9.81-9.84-10.13-19.43-13.36-27.12-20.24z" style="fill:url(#d)"/><path d="m0 22.91 2.18 2.18s17.68 4.26 30.39 3.99l-1.12-1.33S14.44 26.42 0 22.91z" style="fill:#9c775b"/><linearGradient id="e" x1="21.285" x2="21.285" y1="19.486" y2="5.656" gradientUnits="userSpaceOnUse"><stop offset="0" style="stop-color:#e0b18b"/><stop offset=".352" style="stop-color:#e6b690"/><stop offset=".816" style="stop-color:#f6c49c"/><stop offset="1" style="stop-color:#ffcba3"/></linearGradient><path d="M11.51 5.66 4.75 15.7s16.54 2.75 29.02 3.78l4.05-12.01c-15-1.48-14.78-1.36-26.31-1.81z" style="fill:url(#e)"/><linearGradient id="f" x1="25.377" x2="25.377" y1="7.472" y2="2" gradientUnits="userSpaceOnUse"><stop offset="0" style="stop-color:#e0b18b"/><stop offset=".352" style="stop-color:#e6b690"/><stop offset=".816" style="stop-color:#f6c49c"/><stop offset="1" style="stop-color:#ffcba3"/></linearGradient><path d="m13.91 2.02-2.4 3.63s12.93 1.3 26.31 1.82l1.42-3.6c-9.13-.45-20.33-2.09-25.33-1.85z" style="fill:url(#f)"/><linearGradient id="g" x1="16.885" x2="16.885" y1="27.758" y2="15.704" gradientUnits="userSpaceOnUse"><stop offset="0" style="stop-color:#e0b18b"/><stop offset=".352" style="stop-color:#e6b690"/><stop offset=".816" style="stop-color:#f6c49c"/><stop offset="1" style="stop-color:#ffcba3"/></linearGradient><path d="M4.75 15.7 0 22.91s18.74 5.11 31.45 4.84l2.32-8.26c-15-1.49-17.49-3.33-29.02-3.79z" style="fill:url(#g)"/><path d="M33.77 19.49c-1.53 2.94-2.32 8.26-2.32 8.26s.47 1.03 1.12 1.33l2.15-8.69s-.49-.77-.95-.9zm5.48-15.62c-1.53 2.94-1.42 3.6-1.42 3.6s.33.73.97 1.03l1.37-3.51s-.46-.99-.92-1.12z" style="fill:#b88c6d"/><path d="M37.82 7.47c-2.92 5.87-4.05 12.01-4.05 12.01s.31.61.95.91L38.8 8.5s-.46-.79-.98-1.03z" style="fill:#b08668"/><path d="M3.62 21.6c-.74 1-1.82.07-1.08-.93.74-1.01 1.82-.08 1.08.93z" style="fill:#878f96"/><path d="M9.66 12.24c-.74 1-1.82.07-1.08-.93.75-1.01 1.83-.07 1.08.93z" style="fill:#acb6bf"/><path d="M59.07 46.18c-.21.96-1.25.7-1.04-.27.21-.97 1.25-.7 1.04.27z" style="fill:#6c7278"/><path d="M60.16 40.78c-.21.96-1.25.7-1.04-.27s1.25-.69 1.04.27z" style="fill:#81868f"/><path d="M62.21 36.33c-.17.76-.98.55-.81-.21.16-.76.98-.55.81.21z" style="fill:#6c7278"/><path d="M63.66 31.35c-.13.6-.78.43-.64-.17.12-.6.77-.43.64.17z" style="fill:#81868f"/><path d="M32.78 15.5c-.74 1-1.82.07-1.08-.93s1.82-.07 1.08.93z" style="fill:#878f96"/><path d="M34.67 9.76c-.58.78-1.41.05-.84-.73.58-.78 1.42-.05.84.73z" style="fill:#acb6bf"/><path d="M37.22 5.54c-.44.59-1.07.04-.64-.55.44-.59 1.07-.04.64.55zM15.1 4.02c-.54.74-1.33.05-.79-.69.54-.73 1.33-.05.79.69z" style="fill:#878f96"/><path d="M31.02 21.31c-.49.66-1.19.04-.71-.61.49-.66 1.2-.04.71.61z" style="fill:#acb6bf"/><path d="M29.88 25.08c-.74 1-1.82.07-1.08-.93.75-1 1.82-.07 1.08.93z" style="fill:#878f96"/><path d="M27.65 45.03c2.36-.09 2.08-2.59 0-2.76v2.76zm-6.25 2.19 18.53-3.32v9.51L21.4 56.28v-2.73c1.93 0 2.08-3.49 0-3.49v-2.84z" style="fill:#f9d32a"/><path d="M21.4 47.22c0-.25 4.44-3.43 4.44-3.43 1.68.87 3.39-.42 1.8-1.52l1.59-1.15c.65 0 6.12-.82 10.69 2.78.01.03-18.52 3.57-18.52 3.32z" style="fill:#fff94f"/><path d="M32.65 45.29c-.17 1.85 3.26 1.16 3.06-.58-.42-.7-4.04-.72-3.06.58zm-2.2 8.19c.18.6 1.64-.02 1.04-.83-.38-.52-1.28.04-1.04.83zm-3.47-1.84c-.56-.81-2.52.94-1.2 1.86.83.58 1.95-.77 1.2-1.86zm6.82.15c.28 1.97 4.09-.16 2.98-1.7-.66-.91-3.34-.85-2.98 1.7z" style="fill:#f9b700"/><path d="M30.13 42.63c-.19.97 2.96.56 2.47-.33-.29-.53-2.23-.92-2.47.33zm-2.58 2.35c-.09.45 1.38.26 1.15-.15-.14-.25-1.04-.43-1.15.15zm7.06-2.14c-.13.66 2.02.38 1.69-.23-.2-.36-1.52-.63-1.69.23z" style="fill:#f7e32c"/><path d="M28.49 47.22c-1.56.03-.55 2.79.81 2.16.81-.37 1.21-2.2-.81-2.16z" style="fill:#f9b700"/><linearGradient id="h" x1="7.658" x2="7.658" y1="62" y2="45.986" gradientUnits="userSpaceOnUse"><stop offset="0" style="stop-color:#c49e83"/><stop offset=".29" style="stop-color:#b28f7a"/><stop offset=".716" style="stop-color:#9d7e6f"/><stop offset="1" style="stop-color:#96786b"/></linearGradient><path d="M8.94 52.61c-.05-1.24 1.53-2.23 3.97-3.18v-1.55c-2.9 1.04-5.56 2.96-5.56 4.87 0 2.54 5.51 4.21 5.9 5.56.35 1.21-4.58 2.69-12.44 1.15-.53-.04-.9 1.77-.38 1.89 5.92 1.36 15.31.69 14.67-2.85-.55-3.09-6.08-3.99-6.16-5.89z" style="fill:url(#h)"/><linearGradient id="i" x1="15.238" x2="11.256" y1="37.458" y2="37.377" gradientUnits="userSpaceOnUse"><stop offset="0" style="stop-color:#7d5638"/><stop offset=".181" style="stop-color:#886041"/><stop offset=".693" style="stop-color:#a17757"/><stop offset="1" style="stop-color:#ab805f"/></linearGradient><path d="m9.53 21.21 4.36 6.19 2.75.43s-2.01 2.22-2.05 3.19c-.18 4.99-.34 17.94-.44 21.47-.04 1.41-3.12 1.4-3.04-.01.16-2.7.58-9.48-.06-11.76-.17-.59-1.32-2.49-1.32-2.49l.8-.66s.95 1.24 1.19 1.45c1.22 1.02.82-9.05.15-9.94-.86-1.15-4.53-6.19-4.53-6.19l2.19-1.68z" style="fill:url(#i)"/><path d="M9.57 21.21c.59.97-1.6 2.65-2.18 1.68-.59-.97 1.59-2.65 2.18-1.68z" style="fill:#dbb471"/><path d="M7.94 22.92c.61-.02 1.44-.73 1.45-1.35-.21.58-.85 1.15-1.45 1.35zm.9-1.71c-.51-.01-1.22.56-1.25 1.07.19-.47.74-.93 1.25-1.07zm-.8.76c-.19.31.01.51.42.32-.32.07-.49-.08-.42-.32z" style="opacity:.2;fill:#1a1626"/><path d="M8.26 21.63c.45-.1.67.15.54.54.31-.48.06-.82-.54-.54z" style="opacity:.2;fill:#1a1626"/><path d="M10.53 37.57c.2.3-.64.87-.8.66-.24-.31.62-.95.8-.66z" style="fill:#dbb471"/><path d="M13.41 33.33s.48 10.28-.27 19.4c1.54-9.6.27-19.4.27-19.4zM9.69 22.84s4.62 4.26 3.87 10.11c1.53-6.16-3.87-10.11-3.87-10.11zm2.76 17.06s.48 6.88-.27 12.97c1.53-6.42.27-12.97.27-12.97z" style="opacity:.2;fill:#1a1626"/><path d="M10.56 38.73s1.91 1.54 1.38 9.47c1-8.56-1.38-9.47-1.38-9.47zM8.29 23.66c6.48 6.76 3.99 5.72 4.85 18.5-.2-13.96 1.42-12.77-4.85-18.5zm7.32 4.24s-1.93 1.54-1.52 9.6c-.87-8.69 1.52-9.6 1.52-9.6z" style="opacity:.2;fill:#1a1626"/><linearGradient id="j" x1="12.735" x2="12.735" y1="49.432" y2="47.381" gradientUnits="userSpaceOnUse"><stop offset="0" style="stop-color:#96786b"/><stop offset=".284" style="stop-color:#9d7e6f"/><stop offset=".71" style="stop-color:#b28f7a"/><stop offset="1" style="stop-color:#c49e83"/></linearGradient><path d="M11.3 49.06c-.54-.38-.48-1.96.08-1.64 1.26.74 2.33.42 2.88.08.35-.22.44 1.11-.03 1.45-.78.58-2.16.66-2.93.11z" style="fill:url(#j)"/><linearGradient id="k" x1="12.687" x2="12.687" y1="50.999" y2="48.858" gradientUnits="userSpaceOnUse"><stop offset="0" style="stop-color:#96786b"/><stop offset=".284" style="stop-color:#9d7e6f"/><stop offset=".71" style="stop-color:#b28f7a"/><stop offset="1" style="stop-color:#c49e83"/></linearGradient><path d="M11.22 50.61c-.54-.38-.47-2.01.09-1.69 1.26.74 2.37.3 2.92-.04.35-.22.43 1.32-.03 1.67-.78.58-2.21.6-2.98.06z" style="fill:url(#k)"/></svg>