<svg xmlns="http://www.w3.org/2000/svg" xml:space="preserve" style="enable-background:new 0 0 64 64" viewBox="0 0 64 64"><linearGradient id="a" x1="-530.893" x2="-529.591" y1="-128.413" y2="-128.413" gradientTransform="rotate(25.001 -590.357 1260.147)" gradientUnits="userSpaceOnUse"><stop offset="0" style="stop-color:#75553e"/><stop offset=".29" style="stop-color:#87654c"/><stop offset=".716" style="stop-color:#9c785c"/><stop offset="1" style="stop-color:#a37f62"/></linearGradient><path d="M42.322 47.103c-.117.248-1.296-.302-1.18-.55L59.766 7.2c.116-.248.837.088.721.336L42.321 47.103z" style="fill:url(#a)"/><linearGradient id="b" x1="-464.611" x2="-463.31" y1="-132.927" y2="-132.927" gradientTransform="rotate(14.999 -811.713 1890.987)" gradientUnits="userSpaceOnUse"><stop offset="0" style="stop-color:#75553e"/><stop offset=".29" style="stop-color:#87654c"/><stop offset=".716" style="stop-color:#9c785c"/><stop offset="1" style="stop-color:#a37f62"/></linearGradient><path d="M42.989 47.225c-.071.265-1.328-.072-1.257-.337L53.242 4.9c.07-.265.839-.06.768.206L42.989 47.225z" style="fill:url(#b)"/><linearGradient id="c" x1="-398.517" x2="-397.216" y1="-126.736" y2="-126.736" gradientTransform="rotate(4.997 -1919.37 5017.366)" gradientUnits="userSpaceOnUse"><stop offset="0" style="stop-color:#75553e"/><stop offset=".29" style="stop-color:#87654c"/><stop offset=".716" style="stop-color:#9c785c"/><stop offset="1" style="stop-color:#a37f62"/></linearGradient><path d="M43.667 47.23c-.024.272-1.32.159-1.296-.114l4.045-43.35c.024-.273.817-.204.793.07l-3.542 43.393z" style="fill:url(#c)"/><linearGradient id="d" x1="-335.478" x2="-334.177" y1="-107.776" y2="-107.776" gradientTransform="rotate(-4.997 1378.373 -4352.121)" gradientUnits="userSpaceOnUse"><stop offset="0" style="stop-color:#75553e"/><stop offset=".29" style="stop-color:#87654c"/><stop offset=".716" style="stop-color:#9c785c"/><stop offset="1" style="stop-color:#a37f62"/></linearGradient><path d="M44.336 47.116c.024.273-1.273.387-1.296.113L39.498 3.835c-.024-.273.769-.342.793-.069l4.045 43.35z" style="fill:url(#d)"/><linearGradient id="e" x1="-275.123" x2="-273.822" y1="-78.823" y2="-78.823" gradientTransform="rotate(-14.999 280.358 -1215.894)" gradientUnits="userSpaceOnUse"><stop offset="0" style="stop-color:#75553e"/><stop offset=".29" style="stop-color:#87654c"/><stop offset=".716" style="stop-color:#9c785c"/><stop offset="1" style="stop-color:#a37f62"/></linearGradient><path d="M44.975 46.888c.07.265-1.186.602-1.257.337L32.697 5.105c-.071-.264.698-.47.769-.206l11.509 41.989z" style="fill:url(#e)"/><linearGradient id="f" x1="-221.582" x2="-220.28" y1="-39.977" y2="-39.977" gradientTransform="rotate(-25.001 58.728 -585.416)" gradientUnits="userSpaceOnUse"><stop offset="0" style="stop-color:#75553e"/><stop offset=".29" style="stop-color:#87654c"/><stop offset=".716" style="stop-color:#9c785c"/><stop offset="1" style="stop-color:#a37f62"/></linearGradient><path d="M45.565 46.553c.115.248-1.064.798-1.18.55L26.22 7.537c-.115-.248.606-.584.722-.336l18.624 39.352z" style="fill:url(#f)"/><linearGradient id="g" x1="-175.913" x2="-174.612" y1="8.342" y2="8.342" gradientTransform="rotate(-35.003 -38.873 -311.841)" gradientUnits="userSpaceOnUse"><stop offset="0" style="stop-color:#75553e"/><stop offset=".29" style="stop-color:#87654c"/><stop offset=".716" style="stop-color:#9c785c"/><stop offset="1" style="stop-color:#a37f62"/></linearGradient><path d="M46.087 46.12c.157.224-.909.971-1.066.746L20.263 11.058c-.158-.225.495-.682.652-.457L46.087 46.12z" style="fill:url(#g)"/><linearGradient id="h" x1="-373.588" x2="-372.287" y1="100.327" y2="100.327" gradientTransform="rotate(-45.001 -255.205 -421.706)" gradientUnits="userSpaceOnUse"><stop offset="0" style="stop-color:#75553e"/><stop offset=".29" style="stop-color:#87654c"/><stop offset=".716" style="stop-color:#9c785c"/><stop offset="1" style="stop-color:#a37f62"/></linearGradient><path d="M46.527 45.603c.193.194-.727 1.114-.92.92l-30.6-30.964c-.193-.194.37-.757.563-.563l30.957 30.607z" style="fill:url(#h)"/><linearGradient id="i" x1="-346.055" x2="-344.754" y1="160.688" y2="160.688" gradientTransform="rotate(-54.997 -280.954 -262.44)" gradientUnits="userSpaceOnUse"><stop offset="0" style="stop-color:#75553e"/><stop offset=".29" style="stop-color:#87654c"/><stop offset=".716" style="stop-color:#9c785c"/><stop offset="1" style="stop-color:#a37f62"/></linearGradient><path d="M46.87 45.017c.224.158-.522 1.224-.746 1.067l-35.51-25.18c-.225-.157.232-.809.456-.652l35.8 24.765z" style="fill:url(#i)"/><linearGradient id="j" x1="-330.648" x2="-329.346" y1="225.402" y2="225.402" gradientTransform="rotate(-65.001 -300.267 -149.68)" gradientUnits="userSpaceOnUse"><stop offset="0" style="stop-color:#75553e"/><stop offset=".29" style="stop-color:#87654c"/><stop offset=".716" style="stop-color:#9c785c"/><stop offset="1" style="stop-color:#a37f62"/></linearGradient><path d="M47.106 44.381c.248.116-.302 1.296-.55 1.18L7.215 26.932c-.249-.116.088-.837.336-.722l39.555 18.171z" style="fill:url(#j)"/><linearGradient id="k" x1="-325.894" x2="-324.592" y1="291.67" y2="291.67" gradientTransform="rotate(-75.001 -314.432 -63.706)" gradientUnits="userSpaceOnUse"><stop offset="0" style="stop-color:#75553e"/><stop offset=".29" style="stop-color:#87654c"/><stop offset=".716" style="stop-color:#9c785c"/><stop offset="1" style="stop-color:#a37f62"/></linearGradient><path d="M47.228 43.714c.265.07-.072 1.328-.337 1.257L4.914 33.459c-.265-.071-.059-.84.206-.77l42.108 11.025z" style="fill:url(#k)"/><linearGradient id="l" x1="-332.661" x2="-331.36" y1="356.857" y2="356.857" gradientTransform="rotate(-84.997 -325.186 4.24)" gradientUnits="userSpaceOnUse"><stop offset="0" style="stop-color:#75553e"/><stop offset=".29" style="stop-color:#87654c"/><stop offset=".716" style="stop-color:#9c785c"/><stop offset="1" style="stop-color:#a37f62"/></linearGradient><path d="M47.233 43.035c.273.024.16 1.32-.114 1.297L3.781 40.285c-.273-.023-.204-.816.07-.793l43.382 3.543z" style="fill:url(#l)"/><linearGradient id="m" x1="-351.689" x2="-350.387" y1="421.282" y2="421.282" gradientTransform="rotate(-95.003 -335.205 60.591)" gradientUnits="userSpaceOnUse"><stop offset="0" style="stop-color:#75553e"/><stop offset=".29" style="stop-color:#87654c"/><stop offset=".716" style="stop-color:#9c785c"/><stop offset="1" style="stop-color:#a37f62"/></linearGradient><path d="M47.12 42.366c.272-.024.386 1.273.113 1.297L3.85 47.206c-.273.023-.342-.77-.07-.794l43.34-4.046z" style="fill:url(#m)"/><linearGradient id="n" x1="-379.98" x2="-378.678" y1="480.787" y2="480.787" gradientTransform="rotate(-104.999 -342.697 108.863)" gradientUnits="userSpaceOnUse"><stop offset="0" style="stop-color:#75553e"/><stop offset=".29" style="stop-color:#87654c"/><stop offset=".716" style="stop-color:#9c785c"/><stop offset="1" style="stop-color:#a37f62"/></linearGradient><path d="M46.892 41.727c.264-.07.601 1.186.336 1.257L5.12 54.008c-.265.071-.47-.698-.206-.769L46.89 41.727z" style="fill:url(#n)"/><linearGradient id="o" x1="-419.063" x2="-417.761" y1="534.293" y2="534.293" gradientTransform="rotate(-114.999 -349.623 150.69)" gradientUnits="userSpaceOnUse"><stop offset="0" style="stop-color:#75553e"/><stop offset=".29" style="stop-color:#87654c"/><stop offset=".716" style="stop-color:#9c785c"/><stop offset="1" style="stop-color:#a37f62"/></linearGradient><path d="M46.556 41.137c.249-.116.799 1.064.55 1.18L7.551 60.487c-.248.116-.585-.605-.336-.721l39.341-18.629z" style="fill:url(#o)"/><linearGradient id="p" x1="-391.66" x2="-384.13" y1="125.357" y2="125.357" gradientTransform="rotate(-109.926 -210.512 -53.452)" gradientUnits="userSpaceOnUse"><stop offset="0" style="stop-color:#ad0000"/><stop offset=".178" style="stop-color:#c11212"/><stop offset=".524" style="stop-color:#e33131"/><stop offset=".81" style="stop-color:#f84343"/><stop offset="1" style="stop-color:#ff4a4a"/></linearGradient><path d="M4.789 53.173c-.258.093 2.307 7.172 2.565 7.078l23.09-11.028a12.792 12.792 0 0 1-.769-2.752L4.79 53.173z" style="fill:url(#p)"/><linearGradient id="q" x1="-386.402" x2="-378.872" y1="120.333" y2="120.333" gradientTransform="rotate(-99.922 -213.311 -83.776)" gradientUnits="userSpaceOnUse"><stop offset="0" style="stop-color:#ad0000"/><stop offset=".178" style="stop-color:#c11212"/><stop offset=".524" style="stop-color:#e33131"/><stop offset=".81" style="stop-color:#f84343"/><stop offset="1" style="stop-color:#ff4a4a"/></linearGradient><path d="m29.478 44.063-25.83 2.282c-.27.047 1.028 7.464 1.298 7.417l24.87-6.644a14.173 14.173 0 0 1-.338-3.055z" style="fill:url(#q)"/><linearGradient id="r" x1="-383.565" x2="-376.036" y1="115.181" y2="115.181" gradientTransform="rotate(-89.926 -217.642 -119.26)" gradientUnits="userSpaceOnUse"><stop offset="0" style="stop-color:#ad0000"/><stop offset=".178" style="stop-color:#c11212"/><stop offset=".524" style="stop-color:#e33131"/><stop offset=".81" style="stop-color:#f84343"/><stop offset="1" style="stop-color:#ff4a4a"/></linearGradient><path d="M3.71 39.423c-.273 0-.283 7.529-.01 7.529l25.792-2.224a14.415 14.415 0 0 1 .185-3.044L3.71 39.423z" style="fill:url(#r)"/><linearGradient id="s" x1="-380.536" x2="-373.007" y1="108.573" y2="108.573" gradientTransform="rotate(-79.922 -221.625 -161.414)" gradientUnits="userSpaceOnUse"><stop offset="0" style="stop-color:#ad0000"/><stop offset=".178" style="stop-color:#c11212"/><stop offset=".524" style="stop-color:#e33131"/><stop offset=".81" style="stop-color:#f84343"/><stop offset="1" style="stop-color:#ff4a4a"/></linearGradient><path d="M4.974 32.617c-.27-.048-1.587 7.365-1.317 7.413l25.911 2.311c.119-.995.35-1.984.678-2.952L4.974 32.617z" style="fill:url(#s)"/><linearGradient id="t" x1="-378.428" x2="-370.899" y1="102.773" y2="102.773" gradientTransform="rotate(-69.922 -227.275 -212.56)" gradientUnits="userSpaceOnUse"><stop offset="0" style="stop-color:#ad0000"/><stop offset=".178" style="stop-color:#c11212"/><stop offset=".524" style="stop-color:#e33131"/><stop offset=".81" style="stop-color:#f84343"/><stop offset="1" style="stop-color:#ff4a4a"/></linearGradient><path d="M7.4 26.133c-.258-.094-2.842 6.978-2.585 7.072l25.236 6.822a14.63 14.63 0 0 1 1.126-2.792L7.399 26.133z" style="fill:url(#t)"/><linearGradient id="u" x1="-378.705" x2="-371.177" y1="95.802" y2="95.802" gradientTransform="rotate(-59.923 -234.466 -279.928)" gradientUnits="userSpaceOnUse"><stop offset="0" style="stop-color:#ad0000"/><stop offset=".178" style="stop-color:#c11212"/><stop offset=".524" style="stop-color:#e33131"/><stop offset=".81" style="stop-color:#f84343"/><stop offset="1" style="stop-color:#ff4a4a"/></linearGradient><path d="M10.914 20.17c-.237-.138-4.01 6.377-3.773 6.515l23.742 11.15c.42-.89.939-1.749 1.552-2.565l-21.522-15.1z" style="fill:url(#u)"/><linearGradient id="v" x1="-379.154" x2="-371.625" y1="90.054" y2="90.054" gradientTransform="rotate(-49.924 -244.88 -369.726)" gradientUnits="userSpaceOnUse"><stop offset="0" style="stop-color:#ad0000"/><stop offset=".178" style="stop-color:#c11212"/><stop offset=".524" style="stop-color:#e33131"/><stop offset=".81" style="stop-color:#f84343"/><stop offset="1" style="stop-color:#ff4a4a"/></linearGradient><path d="M33.961 33.51 15.41 14.907c-.21-.177-5.056 5.585-4.846 5.761l21.468 15.135a15.046 15.046 0 0 1 1.93-2.293z" style="fill:url(#v)"/><linearGradient id="w" x1="-450.792" x2="-443.264" y1="162.608" y2="162.608" gradientTransform="rotate(140.076 -185.038 178.696)" gradientUnits="userSpaceOnUse"><stop offset="0" style="stop-color:#ff4a4a"/><stop offset=".19" style="stop-color:#f84343"/><stop offset=".476" style="stop-color:#e33131"/><stop offset=".822" style="stop-color:#c11212"/><stop offset="1" style="stop-color:#ad0000"/></linearGradient><path d="M20.751 10.505c-.176-.21-5.948 4.622-5.773 4.832l18.527 18.66a14.84 14.84 0 0 1 2.26-1.968L20.752 10.505z" style="fill:url(#w)"/><linearGradient id="x" x1="-447.16" x2="-439.632" y1="168.245" y2="168.245" gradientTransform="rotate(150.077 -186.926 157.481)" gradientUnits="userSpaceOnUse"><stop offset="0" style="stop-color:#ff4a4a"/><stop offset=".19" style="stop-color:#f84343"/><stop offset=".476" style="stop-color:#e33131"/><stop offset=".822" style="stop-color:#c11212"/><stop offset="1" style="stop-color:#ad0000"/></linearGradient><path d="M26.776 7.098c-.137-.238-6.661 3.518-6.524 3.756L35.226 32.42a14.621 14.621 0 0 1 2.557-1.587L26.775 7.098z" style="fill:url(#x)"/><linearGradient id="y" x1="-444.028" x2="-436.5" y1="174.423" y2="174.423" gradientTransform="rotate(160.074 -189.324 138.001)" gradientUnits="userSpaceOnUse"><stop offset="0" style="stop-color:#ff4a4a"/><stop offset=".19" style="stop-color:#f84343"/><stop offset=".476" style="stop-color:#e33131"/><stop offset=".822" style="stop-color:#c11212"/><stop offset="1" style="stop-color:#ad0000"/></linearGradient><path d="M33.3 4.79c-.093-.259-7.17 2.307-7.077 2.565l10.966 23.78a14.522 14.522 0 0 1 2.792-1.172L33.3 4.789z" style="fill:url(#y)"/><linearGradient id="z" x1="-438.717" x2="-431.19" y1="178.529" y2="178.529" gradientTransform="rotate(170.078 -191.144 118.321)" gradientUnits="userSpaceOnUse"><stop offset="0" style="stop-color:#ff4a4a"/><stop offset=".19" style="stop-color:#f84343"/><stop offset=".476" style="stop-color:#e33131"/><stop offset=".822" style="stop-color:#c11212"/><stop offset="1" style="stop-color:#ad0000"/></linearGradient><path d="M40.126 3.648c-.047-.27-7.462 1.028-7.415 1.298l6.64 25.236a14.393 14.393 0 0 1 2.967-.702L40.126 3.648z" style="fill:url(#z)"/><linearGradient id="A" x1="-434.247" x2="-426.72" y1="182.38" y2="182.38" gradientTransform="rotate(-180 -193.663 99.307)" gradientUnits="userSpaceOnUse"><stop offset="0" style="stop-color:#ff4a4a"/><stop offset=".19" style="stop-color:#f84343"/><stop offset=".476" style="stop-color:#e33131"/><stop offset=".822" style="stop-color:#c11212"/><stop offset="1" style="stop-color:#ad0000"/></linearGradient><path d="m44.728 29.39 2.319-25.68c0-.274-7.527-.284-7.528-.01l2.142 25.88a14.178 14.178 0 0 1 3.067-.19z" style="fill:url(#A)"/><linearGradient id="B" x1="-428.034" x2="-420.507" y1="184.39" y2="184.39" gradientTransform="rotate(-169.922 -195.558 79.813)" gradientUnits="userSpaceOnUse"><stop offset="0" style="stop-color:#ff4a4a"/><stop offset=".19" style="stop-color:#f84343"/><stop offset=".476" style="stop-color:#e33131"/><stop offset=".822" style="stop-color:#c11212"/><stop offset="1" style="stop-color:#ad0000"/></linearGradient><path d="M53.851 4.974c.048-.27-7.363-1.587-7.411-1.317l-2.373 25.705a13.882 13.882 0 0 1 3.079.353l6.705-24.74z" style="fill:url(#B)"/><linearGradient id="C" x1="-421.308" x2="-413.781" y1="186.537" y2="186.537" gradientTransform="rotate(-159.918 -197.464 60.677)" gradientUnits="userSpaceOnUse"><stop offset="0" style="stop-color:#ff4a4a"/><stop offset=".19" style="stop-color:#f84343"/><stop offset=".476" style="stop-color:#e33131"/><stop offset=".822" style="stop-color:#c11212"/><stop offset="1" style="stop-color:#ad0000"/></linearGradient><path d="M53.263 4.816 46.5 29.576a12.5 12.5 0 0 1 2.77.787L60.333 7.4c.094-.257-6.976-2.842-7.07-2.584z" style="fill:url(#C)"/><path d="M24.6 29.435C14.43 36.833 6.19 47.573 16.535 55.88c-5.46-9.564 4.775-17.464 13.719-23.388 9.44-6.253 2.878-13.309-4.411-11.503-3.49.864-3.401-.7-1.91-1.705 6.65-4.484 18.318-8.83 32.095-2.907C31.13-5.354-4.384 32.41 23.677 26.807c4.758-.95 3.518.74.922 2.628z" style="opacity:.5;fill:#ff91e7"/><linearGradient id="D" x1="43.347" x2="43.347" y1="43.872" y2="42.825" gradientUnits="userSpaceOnUse"><stop offset="0" style="stop-color:#61502d"/><stop offset=".153" style="stop-color:#7e6941"/><stop offset=".426" style="stop-color:#ad9162"/><stop offset=".668" style="stop-color:#cfaf79"/><stop offset=".868" style="stop-color:#e4c188"/><stop offset="1" style="stop-color:#ebc78d"/></linearGradient><path d="M43.871 43.348a.524.524 0 1 1-1.047 0 .524.524 0 0 1 1.047 0z" style="opacity:.5;fill:url(#D)"/></svg>