<svg xmlns="http://www.w3.org/2000/svg" xml:space="preserve" style="enable-background:new 0 0 64 64" viewBox="0 0 64 64"><linearGradient id="a" x1="-62" x2="-62" y1="68" y2="8" gradientTransform="matrix(1 0 0 -1 94 70)" gradientUnits="userSpaceOnUse"><stop offset="0" style="stop-color:#bc2af7"/><stop offset=".216" style="stop-color:#b928f3"/><stop offset=".44" style="stop-color:#b121e6"/><stop offset=".668" style="stop-color:#a217d2"/><stop offset=".896" style="stop-color:#8e08b5"/><stop offset=".995" style="stop-color:#8400a6"/></linearGradient><path d="M62 54c0 4.4-3.6 8-8 8H10c-4.4 0-8-3.6-8-8V10c0-4.4 3.6-8 8-8h44c4.4 0 8 3.6 8 8v44z" style="fill:url(#a)"/><path d="M43.656 16.402c-.446-.192-.896.39-.554.733 14.185 14.246-9.072 27.45-9.072 27.45v-2.497l4.386-2.564s-6.77-13.046 0-26.519C34.39 10.554 32 7 32 7s-2.39 3.554-6.416 6.005c6.77 13.473 0 26.519 0 26.519l4.386 2.564v2.496S6.713 31.381 20.898 17.135c.342-.344-.109-.925-.554-.733-7.142 3.073-9.376 8.943-8.637 15.598.99 8.918 8.584 12.733 9.221 18.05l5.466-4.296 2.047 1.26s-2.73 1.143-4.026 2.698c-4.049 4.859 4.048 5.69 3.329 1.013l2.226-1.283.068 2.43C27.9 53.536 28.71 57 32 57s4.1-3.464 1.962-5.128l.068-2.43 2.227 1.283c-.72 4.678 7.377 3.846 3.328-1.012-1.296-1.555-4.026-2.7-4.026-2.7l2.047-1.259 5.466 4.296c.637-5.317 8.232-9.132 9.222-18.05.738-6.655-1.496-12.525-8.638-15.598z" style="fill:#fff"/><path d="M32 12.865c-7.12 0-12.893 5.773-12.893 12.893S24.879 38.652 32 38.652s12.893-5.773 12.893-12.893S39.122 12.865 32 12.865zm0 22.48c-5.295 0-9.587-4.292-9.587-9.587s4.292-9.587 9.587-9.587a9.587 9.587 0 0 1 0 19.175z" style="fill:#fff"/></svg>