<svg xmlns="http://www.w3.org/2000/svg" xml:space="preserve" viewBox="0 0 64 64"><linearGradient id="a" x1="24.401" x2="45.835" y1="5.118" y2="27.62" gradientUnits="userSpaceOnUse"><stop offset=".139" style="stop-color:#727d82"/><stop offset=".293" style="stop-color:#768286"/><stop offset=".465" style="stop-color:#838f93"/><stop offset=".527" style="stop-color:#8a9699"/></linearGradient><path fill="url(#a)" d="M50.537 15.743c3.516 15.733-15.696 12.376-16.473 12.165C23.05 24.9 16.802 11.634 18.683 10.228c.724-.54 7.793-3.784 8.414-3.995.963-.328 8.169-.479 12.158.735-.163 1.88 2.654 2.694 3.979 3.656.37.269 6.289 3.914 7.303 5.119z"/><path fill="#ABB5BA" d="M34.271 28.546c-.48-2.503-5.542-6.407-6.195-7.138-.654-.733-8.364-11.675-9.393-11.181-1.178.566-7.021 8.369-7.088 8.785-.136.855.186 3.3-2.869 3.766-.578.087-1.872 8.288-2.125 8.48-.544.411-3.488 2.854-4.37 3.913-.502.603-.033 8.563 0 8.956.193 2.32 5.056 9.354 9.277 11.645 1.054.573 13.495 3.781 15.487 4.072 1.85.27 5.835-1.259 6.927-.73.455.219 7.03 1.791 7.922 1.896 10.688-7.861-2.825-25.036-7.573-32.464z"/><linearGradient id="b" x1="11.507" x2="45.857" y1="41.197" y2="41.197" gradientUnits="userSpaceOnUse"><stop offset=".461" style="stop-color:#8a9699"/><stop offset=".533" style="stop-color:#96a2a5"/><stop offset=".67" style="stop-color:#a7b2b6"/><stop offset=".82" style="stop-color:#b2bcc1"/><stop offset="1" style="stop-color:#b5bfc4"/></linearGradient><path fill="url(#b)" d="M34.271 28.546c-.48-2.503-5.542-6.407-6.195-7.138-.25-.281-.996 2.113-1.86 5.22-2.115-1.134-5.043-3.781-5.043-3.781s4.251 6.69 4.123 7.168c-1.135 4.243-2.252 8.542-2.597 8.958-2.163 2.613-9.246 10.012-11.191 16.799 1.054.573 13.495 3.781 15.487 4.072 1.85.27 5.835-1.259 6.927-.73.455.219 7.03 1.791 7.922 1.896 10.688-7.861-2.825-25.036-7.573-32.464z"/><linearGradient id="c" x1="33.782" x2="62" y1="38.291" y2="38.291" gradientUnits="userSpaceOnUse"><stop offset="0" style="stop-color:#89969c"/><stop offset=".287" style="stop-color:#859298"/><stop offset=".572" style="stop-color:#79878d"/><stop offset=".854" style="stop-color:#65747b"/><stop offset="1" style="stop-color:#58676e"/></linearGradient><path fill="url(#c)" d="M48.771 60.866c10.838-7.654 8.832-12.437 12.938-15.393 1.03-.779-.801-6.4-3.609-11.086-.29-.484-.321-1.815.345-2.418-.336-1.222-1.686-6.822-2.139-7.613-.703-1.228-4.025-7.098-5.77-8.613-.605-.527-1.227 6.745-2.755 8.045-2.245 1.911-9.775.492-10.847.854-.741.251-2.893 2.814-3.06 3.242-.584 1.497 1.723 8.965 2.726 10.927.143.279-.068 4.794-.068 4.794s1.187-3.071 1.494-2.416c1.409 2.992 5.091 6.506 5.63 7.394 2.098 3.451 5.115 12.283 5.115 12.283z"/><path fill="#58676E" d="M58.445 31.97c-2.78.755-6.804.046-6.721 7.436 1.063-5.059 4.747-4.366 6.537-4.742-.15-.592.119-2.128.184-2.694zM39.254 6.968c-1.543.419-6.165 4.836-6.965 5.824-.221.275-.094 4.965.043 4.854.203-.167 1.247-4.492 1.451-4.652.27-.209 5.249-1.069 9.451-2.371-.152-.59-3.338-3.02-3.98-3.655zm-2.318 17.674c6.008 2.383 6.043 5.896 5.889 6.282-1.629 4.067.15 8.707 1.712 10.13-1.327-4.02 2.077-9.224 3.577-9.646.295-.081-.643-5.49.236-8.43-2.989 2.9-10.487.806-11.414 1.664zm24.976 20.412c-.513-1.339-4.724 3.9-6.964 3.322 6.147 3.408-4.522 9.068-6.177 12.49 1.106-.123 10.871-6.979 11.146-8.125.214-.889.027-3.693.19-4.336.112-.434 1.948-2.983 1.805-3.351z"/><path fill="#8A9599" d="M6.601 31.259c1.333.829 8.832 8.469 9.273 9.635.122.322.214 1.398-3.506 8.74-1.531-4.834 1.967-3.834-.123-7.138-.092-.146.763-.513.669-.657-.14-.215-1.334-.785-1.479-.995-.189-.275-5.621-3.258-9.205-5.672.336-.521 3.549-3.487 4.371-3.913zm4.993-12.246s-.813 2.063-2.869 3.766c4.756 3.479 3.205 6.685 10.788 13.208.74-4.046-1.44-8.08-1.722-11.235-.03-.346-6.197-5.739-6.197-5.739z"/><path fill="#58676E" d="M48.771 60.866c-.614-1.898.007-7.568-5.114-12.284.865 7.328.263 8.821-.784 8.824-.256 0-.336 2.171-1.029 3.604 1.229.175 3.105 1.229 3.301.94.193-.288.893-.868 1.027-.893.387-.069 1.898-.023 2.599-.191z"/><path fill="#6A787F" d="M33.203 49.831c.068-.475-.741-1.228-1.275-3.921-.015-.079-1.661-.514-1.782-2.093-.389-5.082.44-6.475-1.533-10.79.994 5.827-2.414 10.262-3.456 10.237-.256-.006-.048 8.916-5.909 14.74 1.413.523 7.561 2.075 7.747 1.84-1.143-6.086.808-11.688.94-11.706 3.082-.449 5.198 2.181 5.268 1.693z"/><path fill="#C5CDD4" d="M49.898 17.288s-.52 3.81-1.356 5.942c-.429.998-.552 4.546-.552 4.546s-.365-2.92-.078-4.102c-4.582 2.275-8.853.615-10.613.939 2.149.708 3.504 2.29 3.504 2.29s-3.521-2.218-3.918-1.952c-1.008.676-2.674 2.679-2.769 3.173-.345 1.79 1.253 7.466 1.253 7.466s-2.205-4.916-1.75-7.849c-1.008-2.075-4.137-4.901-5.287-5.898-.269-.233-2.117 4.786-2.117 4.786l1.442-5.161-5.272-7.555s5.359 6.057 5.949 7.298c.079.168 4.711 4.223 5.708 6.204.731-1.321 2.698-3.019 2.946-3.086 1.961-.533 7.658 1.497 11.229-1.496.762-1.599 1.681-5.545 1.681-5.545zm-1.449 41.654s.689-5.208-4.57-10.648c-1.978-1.589-5.46-6.358-5.46-6.358s1.669 3.441 5.032 6.617c.787 4.706.406 7.83.406 7.83s.91-3.421.02-7.407c4.237 4.658 4.572 9.966 4.572 9.966zM6.601 31.259s-2.774 2.41-3.438 3.713c4.875 2.745 8.601 5.902 10.287 6.84.188.236-1.131.499-.938.728 1.996 2.348-1.036 3.599-.145 7.095-2.145-5.424 1.967-3.834-.123-7.138-.092-.146.763-.513.669-.657-.14-.215-1.334-.785-1.479-.995-.189-.275-5.621-3.258-9.205-5.672 1.726-2.395 4.372-3.914 4.372-3.914zm8.1 17.866s5.889-7.703 8.401-9.989c1.109-2.06 2.41-9.251 2.41-9.251l-4.339-7.038 3.927 7.066s-1.542 6.889-2.572 8.9c-3.698 3.357-7.827 10.312-7.827 10.312z"/></svg>