<svg xmlns="http://www.w3.org/2000/svg" xml:space="preserve" style="enable-background:new 0 0 64 64" viewBox="0 0 64 64"><linearGradient id="a" x1="72.068" x2="111.131" y1="13.067" y2="13.067" gradientTransform="matrix(1 0 0 1.0436 -59.599 20.267)" gradientUnits="userSpaceOnUse"><stop offset="0" style="stop-color:#bdc5c9"/><stop offset=".041" style="stop-color:#c3cbd0"/><stop offset=".197" style="stop-color:#d5dde4"/><stop offset=".351" style="stop-color:#dfe8f1"/><stop offset=".5" style="stop-color:#e3ecf5"/><stop offset=".649" style="stop-color:#dfe8f1"/><stop offset=".803" style="stop-color:#d5dde4"/><stop offset=".959" style="stop-color:#c3cbd0"/><stop offset="1" style="stop-color:#bdc5c9"/></linearGradient><path d="M51.5 54.8c0 7.4-39.1 7.4-39.1 0V7.4h39.1v47.4z" style="fill:url(#a)"/><radialGradient id="b" cx="25.311" cy="51.209" r="20.951" gradientTransform="matrix(1 0 0 19.1652 0 -930.219)" gradientUnits="userSpaceOnUse"><stop offset="0" style="stop-color:#e02222"/><stop offset=".119" style="stop-color:#c62222"/><stop offset=".248" style="stop-color:#b22323"/><stop offset=".376" style="stop-color:#a52323"/><stop offset=".5" style="stop-color:#a12323"/><stop offset=".724" style="stop-color:#a32323"/><stop offset=".819" style="stop-color:#aa2323"/><stop offset=".889" style="stop-color:#b72323"/><stop offset=".947" style="stop-color:#c82222"/><stop offset=".998" style="stop-color:#df2222"/><stop offset="1" style="stop-color:#e02222"/></radialGradient><path d="M13.1 40.3V55c0 7.1 37.8 7.1 37.8 0V40.3H13.1z" style="fill:url(#b)"/><path d="M50 6.8v48.5c0 .2-.8 1.3-4.7 2.3C41.8 58.5 37 59 32 59s-9.8-.5-13.3-1.4c-3.9-1-4.7-2.1-4.7-2.3V6.8h-2v48.5c0 3.8 10 5.7 20 5.7s20-1.9 20-5.7V6.8h-2z" style="fill:#bdc5c9"/><linearGradient id="c" x1="14" x2="50" y1="40.295" y2="40.295" gradientUnits="userSpaceOnUse"><stop offset="0" style="stop-color:#e02222"/><stop offset="1" style="stop-color:#a12323"/></linearGradient><path d="M50 40.3c0-3.7-36-3.7-36 0s36 3.7 36 0z" style="fill:url(#c)"/><path d="M32.5 16.5c0 .1-.1.3-.3.3h-.4c-.2 0-.3-.1-.3-.3V13c0-.1.1-.3.3-.3h.4c.2 0 .3.1.3.3v3.5z" style="fill:#fff"/><path d="M30.3 15.2c-.1 0-.3-.1-.3-.3v-.4c0-.2.1-.3.3-.3h3.5c.1 0 .3.1.3.3v.4c0 .2-.1.3-.3.3h-3.5zm0 40.8c-.1 0-.3-.1-.3-.3v-.4c0-.2.1-.3.3-.3h3.5c.1 0 .3.1.3.3v.4c0 .2-.1.3-.3.3h-3.5zm-1.2-14.3.5-.5.5.5-.5.5h-.1l-.4-.5zm1.5-8.3c0-.8.7-1.5 1.5-1.5.9 0 1.5.7 1.5 1.5 0 .5-.2.8-.5 1h1.6v.6h-4v-.6h.4c-.3-.2-.5-.5-.5-1zm2.5.1c0-.5-.4-.9-.9-.9s-.9.4-.9.9.4.9.9.9.9-.4.9-.9zm.5-2-.1.1h-2.8V31h2.9v.5zm-.1-3.3c.1-.1.2 0 .2.1v.4c0 .1 0 .1-.1.2l-.9.6.9.6c.1 0 .1.1.1.2v.4c0 .1-.1.1-.2.1l-1.3-.9-1.3.8c-.1.1-.2 0-.2-.1v-.4c0-.1 0-.1.1-.2l.8-.5-.8-.5c-.1 0-.1-.1-.1-.2v-.4c0-.1.1-.1.2-.1l1.3.8 1.3-.9zm-2.9-1.5c0-.9.7-1.4 1.5-1.4h.2v2.3c.5-.1.7-.5.7-.9 0-.2-.1-.5-.3-.6 0 0-.1-.1-.1-.2v-.4c0-.1.1-.2.1-.1.5.2.8.7.8 1.3 0 .9-.7 1.5-1.5 1.5-.7 0-1.4-.6-1.4-1.5zm1.3.9v-1.7c-.5.1-.7.4-.7.8 0 .5.3.8.7.9zm1.7-2.8s0 .1 0 0l-.1.1h-4v-.6h4.1v.5zm-2.1-1.6c.6 0 .2-1.6 1.3-1.6.6 0 .9.5.9 1.1 0 .6-.3 1.1-.8 1.1h-.1v-.5c0-.1 0-.1.1-.1.2 0 .3-.3.3-.5 0-.3-.1-.5-.3-.5-.6 0-.2 1.6-1.3 1.6-.6 0-.9-.5-.9-1.1 0-.5.3-1 .8-1.1h.1v.5c0 .1 0 .1-.1.1-.2 0-.3.2-.3.5s.1.5.3.5zm-.8 18.3.1-.1h2.9c.8 0 1.1.4 1.1 1.1v.1h-.5v-.1c0-.3-.2-.4-.5-.4h-3v-.6zm3-2c0 .8-.7 1.5-1.5 1.5s-1.5-.7-1.5-1.5.7-1.5 1.5-1.5c.4 0 .8.2 1.1.5.3.2.4.6.4 1zm-.6 0c0-.4-.2-.7-.6-.9-.3-.1-.7-.1-1 .2-.3.3-.3.7-.2 1 .1.3.5.6.9.6.2 0 .5-.1.7-.3.1-.1.2-.4.2-.6zM30.8 36c-.1 0-.1-.1-.1-.1v-.4c0-.1.1-.1.1-.1l3.8 1.3c.1 0 .1.1.1.2v.4c0 .1-.1.1-.1.1l-1.1-.4-2.6 1c-.1 0-.2 0-.2-.1v-.4c0-.1 0-.1.1-.1l1.9-.7-1.9-.7zM30 46.8c0-1.2.9-2.1 2.1-2.1 1.2 0 2.1.9 2.1 2.1 0 1.2-.9 2.1-2.1 2.1-1.2 0-2.1-.9-2.1-2.1zm-.7 0c0 1.5 1.2 2.8 2.8 2.8 1.5 0 2.8-1.2 2.8-2.8 0-1.5-1.2-2.8-2.8-2.8-.7 0-1.4.3-2 .8-.5.6-.8 1.3-.8 2z" style="fill:#fff"/><path d="M32.4 46.3v.1h-.5v-1.1h.2c.6 0 1.2.4 1.5 1 .2.6.1 1.3-.3 1.7h-.2l-.3-.3v-.2c.2-.2.3-.5.2-.8-.1-.3-.3-.6-.6-.6v.2z" style="fill:#fff"/><path d="M52 6.8c0-4.6-40-4.6-40 0s40 4.6 40 0z" style="fill:#bdc5c9"/><path d="M49 6.3c0-3.1-34-3.1-34 0 0 3.2 34 3.2 34 0z" style="fill:#cfd8dd"/><radialGradient id="d" cx="89.545" cy="-13.664" r="5.998" gradientTransform="matrix(1 0 0 5.218 -59.599 77.307)" gradientUnits="userSpaceOnUse"><stop offset="0" style="stop-color:#b3c2c6"/><stop offset=".213" style="stop-color:#aebdc1"/><stop offset=".479" style="stop-color:#a0adb2"/><stop offset=".771" style="stop-color:#889499"/><stop offset="1" style="stop-color:#717b80"/></radialGradient><path d="M39.1 4.3H24.9l-1.1 2.2c0 1.6 16.4 1.6 16.4 0l-1.1-2.2z" style="fill:url(#d)"/><path d="M39.1 4.3c0-1.6-14.2-1.6-14.2 0s14.2 1.6 14.2 0z" style="fill:#b3c2c6"/><path d="M38.5 4c0-1.3-13-1.3-13 0s13 1.3 13 0z" style="fill:#cfd8dd"/></svg>