<svg xmlns="http://www.w3.org/2000/svg" xml:space="preserve" style="enable-background:new 0 0 64 64" viewBox="0 0 64 64"><linearGradient id="a" x1="28" x2="36" y1="32" y2="32" gradientUnits="userSpaceOnUse"><stop offset="0" style="stop-color:#dba57b"/><stop offset=".313" style="stop-color:#d49e75"/><stop offset=".782" style="stop-color:#bf8c66"/><stop offset="1" style="stop-color:#b3815d"/></linearGradient><path d="M28.5 64c-.27 0-.5-.41-.5-.91V.92c0-.51.23-.92.5-.92h7c.28 0 .5.41.5.92v62.17c0 .5-.23.91-.5.91h-7z" style="fill:url(#a)"/><path d="M29.29 64h2.09c-.13-6.23-.22-14.01-.22-22.48 0-20.41.47-36.95 1.05-36.95.17 0 .32 1.35.46 3.74.03-3.01.08-5.79.14-8.31h-1.83c.12 4.9.18 10.74.18 17.03 0 17.23-.5 31.19-1.12 31.19-.62 0-1.12-13.96-1.12-31.19 0-6.29.07-12.13.18-17.03h-.6c-.27 0-.5.41-.5.92v32.27c.81 1.35 1.43 10.62 1.43 21.86 0 3.19-.05 6.21-.14 8.95zm4.37-18.79c-.15 0-.29-.86-.42-2.39-.01 7.97-.09 15.27-.22 21.18h1.69c-.01-1.33-.02-2.71-.02-4.15 0-9.77.23-17.7.51-17.69.28 0 .51 7.92.51 17.7 0 1.41-.01 2.75-.02 4.05.17-.15.29-.46.29-.82V.92C36 .41 35.78 0 35.5 0h-.97c.11 4.64.18 10.24.18 16.29 0 15.97-.47 28.92-1.05 28.92z" style="opacity:.1;fill:#472e27"/><radialGradient id="b" cx="32" cy="23" r="40.813" gradientTransform="matrix(1 0 0 .7197 0 6.447)" gradientUnits="userSpaceOnUse"><stop offset="0" style="stop-color:#fff"/><stop offset=".272" style="stop-color:#f8f9fa"/><stop offset=".67" style="stop-color:#e4e9ec"/><stop offset="1" style="stop-color:#cfd8dd"/></radialGradient><path d="M62 41c0 .55-.45 1-1 1H3c-.55 0-1-.45-1-1V5c0-.55.45-1 1-1h58c.55 0 1 .45 1 1v36z" style="fill:url(#b)"/></svg>