<svg xmlns="http://www.w3.org/2000/svg" xml:space="preserve" viewBox="0 0 64 64"><linearGradient id="a" x1="8.507" x2="55.45" y1="36.935" y2="36.935" gradientUnits="userSpaceOnUse"><stop offset="0" style="stop-color:#0085d4"/><stop offset=".187" style="stop-color:#0082ce"/><stop offset=".426" style="stop-color:#0078be"/><stop offset=".694" style="stop-color:#0067a4"/><stop offset=".981" style="stop-color:#005180"/><stop offset="1" style="stop-color:#004f7d"/></linearGradient><path fill="url(#a)" d="M55.45 11.893c-.514-.029-46.43-.029-46.943 0 .254 1.891.86 6.633.86 6.633-.397 2.664-.459 4.331.612 4.908 1.698 13.808 3.632 30.613 3.652 30.895.364 5.038 9.536 7.671 18.37 7.671 8.832-.002 18.004-2.635 18.367-7.672.03-.416 3.238-28.687 5.082-42.435z"/><linearGradient id="b" x1="6" x2="58" y1="9.8" y2="9.8" gradientUnits="userSpaceOnUse"><stop offset="0" style="stop-color:#009cfa"/><stop offset=".238" style="stop-color:#0099f5"/><stop offset=".535" style="stop-color:#008fe5"/><stop offset=".861" style="stop-color:#0080cc"/><stop offset="1" style="stop-color:#0078bf"/></linearGradient><path fill="url(#b)" d="M6 9.8C6-.6 58-.6 58 9.8c0 10.399-52 10.399-52 0z"/><linearGradient id="c" x1="8.732" x2="55.268" y1="8.775" y2="8.775" gradientUnits="userSpaceOnUse"><stop offset="0" style="stop-color:#00314d"/><stop offset=".227" style="stop-color:#004065"/><stop offset=".497" style="stop-color:#004d7b"/><stop offset=".758" style="stop-color:#058"/><stop offset="1" style="stop-color:#00588c"/></linearGradient><path fill="url(#c)" d="M8.732 8.775c0-8.1 46.536-8.1 46.536 0 0 8.099-46.536 8.099-46.536 0z"/><linearGradient id="d" x1="8.732" x2="55.268" y1="5.891" y2="5.891" gradientUnits="userSpaceOnUse"><stop offset="0" style="stop-color:#004066"/><stop offset=".21" style="stop-color:#004b78"/><stop offset=".629" style="stop-color:#0068a6"/><stop offset="1" style="stop-color:#0085d4"/></linearGradient><path fill="url(#d)" d="M55.206 9.274c.042-.164.062-.327.062-.499 0-8.357-46.536-8.357-46.536 0 0 .172.022.335.062.499 1.849-7.427 44.563-7.427 46.412 0z"/><linearGradient id="e" x1="40.24" x2="46.066" y1="16.605" y2="16.605" gradientUnits="userSpaceOnUse"><stop offset="0" style="stop-color:#00314d"/><stop offset=".227" style="stop-color:#004065"/><stop offset=".497" style="stop-color:#004d7b"/><stop offset=".758" style="stop-color:#058"/><stop offset="1" style="stop-color:#00588c"/></linearGradient><circle cx="43.153" cy="16.604" r="2.913" fill="url(#e)"/><linearGradient id="f" x1="40.697" x2="45.848" y1="16.798" y2="16.798" gradientUnits="userSpaceOnUse"><stop offset="0" style="stop-color:#0085d4"/><stop offset=".211" style="stop-color:#0082cf"/><stop offset=".475" style="stop-color:#0078bf"/><stop offset=".765" style="stop-color:#0068a6"/><stop offset="1" style="stop-color:#00588c"/></linearGradient><ellipse cx="43.272" cy="16.798" fill="url(#f)" rx="2.575" ry="2.72"/><linearGradient id="g" x1="9.505" x2="36.858" y1="15.583" y2="34.089" gradientUnits="userSpaceOnUse"><stop offset="0" style="stop-color:#2f7e96"/><stop offset=".03" style="stop-color:#3589a4"/><stop offset=".1" style="stop-color:#409cbf"/><stop offset=".179" style="stop-color:#49add5"/><stop offset=".273" style="stop-color:#50bae6"/><stop offset=".388" style="stop-color:#54c3f1"/><stop offset=".55" style="stop-color:#57c8f8"/><stop offset="1" style="stop-color:#58c9fa"/></linearGradient><path fill="url(#g)" d="M41.685 15.975C26.277 51.256 2.363 42.506 9.979 23.434c-.166-2.224-.612-4.908-.612-4.908-9.848 23.303 13.059 40.834 35.512-.799 1.174-2.176-2.275-3.857-3.194-1.752z"/><linearGradient id="h" x1="5.451" x2="17.476" y1="26.01" y2="34.145" gradientUnits="userSpaceOnUse"><stop offset="0" style="stop-color:#2f7e96"/><stop offset=".248" style="stop-color:#378daa"/><stop offset=".756" style="stop-color:#4db4df"/><stop offset="1" style="stop-color:#58c9fa"/></linearGradient><path fill="url(#h)" d="M10.286 25.937c-.166-2.224-.57-5.024-.57-5.024-1.721 4.813-3.321 15.01 3.383 18.135 0-.001-5.362-3.753-2.813-13.111z"/><linearGradient id="i" x1="16.035" x2="37.093" y1="20.242" y2="34.489" gradientUnits="userSpaceOnUse"><stop offset="0" style="stop-color:#2f7e96"/><stop offset=".248" style="stop-color:#378daa"/><stop offset=".756" style="stop-color:#4db4df"/><stop offset="1" style="stop-color:#58c9fa"/></linearGradient><path fill="url(#i)" d="M42.685 16.604C32.893 40.974 14.114 49.234 7.748 34.6c2.908 12.04 22.604 16.291 37.042-16.626.946-2.158-1.294-3.388-2.105-1.37z"/></svg>