<svg xmlns="http://www.w3.org/2000/svg" xml:space="preserve" style="enable-background:new 0 0 64 64" viewBox="0 0 64 64"><path d="M11.97 20.96c1.65 2.35 3.06.99 3.06.99 2.28 7.93 0 20.55 0 20.55 0-6.22-.97-12.94-5.75-17.54-1.28-1.23 2.18-4.73 2.69-4z" style="fill:#ab7041"/><linearGradient id="a" x1="15.03" x2="55" y1="36.35" y2="36.35" gradientUnits="userSpaceOnUse"><stop offset="0" style="stop-color:#ab7041"/><stop offset=".307" style="stop-color:#a1693d"/><stop offset=".819" style="stop-color:#885732"/><stop offset="1" style="stop-color:#7d4f2d"/></linearGradient><path d="M55 10.7H15.03v42.03c0 1.04 1.18 3.43 6.18 6 .88.45 6.68 1.34 9.89 2.58 2.03.79 4.97 1.04 6.6-.01.99-.64 6.37-1.6 8.78-1.93l1.08-5.49 1.51 4.31c3.8-1.83 5.93-5.39 5.93-6.71V10.7z" style="fill:url(#a)"/><path d="M32.87 15.08c-4.77 9.94 3.62 23.56 3.62 23.56s-4.87-14.14-3.62-23.56z" style="opacity:.3;fill:#360e0e"/><path d="M21.35 30.93c-5.07 9.43 1.15 24.22 1.15 24.22s-3.26-14.98-1.15-24.22z" style="opacity:.5;fill:#c78958"/><path d="M48.8 48.92c7.37-6.39 2.82-17.99 2.82-17.99s1.16 10.66-2.82 17.99zm-8.77 9.31c4.98-14.8-.89-36.62-.89-36.62s3.01 22.41.89 36.62z" style="opacity:.3;fill:#360e0e"/><path d="M16.9 14.68c1.03 5.87 1.69 12.08 1.24 17.16 1.66-5.26 1.39-11.4.35-17.16H16.9zm11.59 43.14c7.7-15.82-.07-22.14-1.5-33.46-.75 11.17 5.48 14.06 1.5 33.46z" style="opacity:.5;fill:#c78958"/><path d="M47.52 15.14c.63 4.04.95 9.06.63 15.92 1.69-6.54 1.85-11.58 1.25-15.92h-1.88z" style="opacity:.3;fill:#360e0e"/><path d="m51.86 5.71-3.87.85.94-2.45c-8.09-3.02-17.49-2.28-22.97-.99l-.21.99-.63-.78c-6.77 1.79-10.09 3.68-10.09 7.37 0 6.62 9 9.09 19.98 9.09C46.72 19.79 55 15.88 55 10.7c0-1.66-1.59-3.92-3.14-4.99z" style="fill:#c78958"/><path d="m50.53 6.01-1.63.35-.73-1.65c-7.68-2.66-16.36-1.93-21.56-.81l-.87.2c-6.43 1.57-9.71 3.13-9.71 6.37 0 5.81 8.54 7.99 18.97 7.99 11.12 0 18.97-3.43 18.97-7.99.02-1.45-1.61-3.5-3.44-4.46z" style="fill:#cc956a"/><path d="M48.9 6.36 47.05 5.1c-7.24-2.32-14.92-1.8-20.68-.5-6.06 1.37-9.24 2.75-9.24 5.58 0 5.08 8.05 6.97 17.88 6.97 10.48 0 18.45-3.04 17.88-6.97-.21-1.5-2.63-3.52-3.99-3.82z" style="fill:#d4a077"/><path d="M46.25 5.53c-6.98-2.57-25.74-1.27-27.87 3.69-1.77 4.13 5.31 7.12 16.66 6.97 18.75-.25 20.75-7.15 11.21-10.66z" style="fill:#e3af86"/><path d="M45.17 6.11C38.89 3.93 22.01 5.03 20.1 9.23c-1.59 3.5 4.78 6.03 14.99 5.9 16.86-.21 18.66-6.05 10.08-9.02z" style="fill:#f5c198"/><path d="M43.93 6.53c-5.51-1.78-20.32-.88-22 2.56-1.4 2.86 4.2 4.94 13.16 4.83 14.79-.17 16.37-4.96 8.84-7.39z" style="fill:#ffd0ab"/><path d="M42.85 6.79C38 5.37 24.99 6.09 23.52 8.84c-1.23 2.29 3.69 3.95 11.56 3.86 13-.14 14.39-3.96 7.77-5.91z" style="fill:#ffc99e"/><path d="M41.47 7.19c-3.99-1.05-14.71-.52-15.92 1.51-1.01 1.69 3.04 2.92 9.52 2.86 10.71-.1 11.85-2.93 6.4-4.37z" style="fill:#f7c094"/><path d="M40.49 7.53c-3.38-.75-12.47-.37-13.5 1.07-.86 1.2 2.57 2.07 8.07 2.03 9.08-.07 10.05-2.08 5.43-3.1z" style="fill:#ebb184"/><path d="M39.4 7.76c-2.71-.51-9.99-.26-10.81.74-.69.83 2.06 1.42 6.47 1.39 7.27-.05 8.04-1.43 4.34-2.13z" style="fill:#e6a97a"/><path d="M37.7 8.1c-1.66-.27-6.11-.13-6.61.38-.42.43 1.26.74 3.95.72 4.45-.03 4.93-.74 2.66-1.1z" style="fill:#de9f6f"/><path d="M36.45 8.29c-.88-.12-3.25-.06-3.52.17-.22.19.67.33 2.1.32 2.37-.02 2.63-.33 1.42-.49z" style="fill:#d49262"/><path d="m48.93 4.11-.03 2.25-2.36.66-1.95 1.03-4.19.29 3.72-.74 1.41-1.69zm-23.18 0 .21-.99 1.89 2.28 2.46.8 1.24 2.84-1.49-2.62-2.45-.82zm-4.54 13.74 1.73-3.81 7.1-.84 4.97-2.3-4.59 2.77-6.41.89-.54 4 1.92 8.59-1.05 5.9-.03-7.11zm25.34 35.86-3.01-5.34 2.31-4.28.25-2.3.21 2.42-1.85 4.21 3.37 4.27 1.24 5.5-2.16-1z" style="fill:#593921"/></svg>