<svg xmlns="http://www.w3.org/2000/svg" xml:space="preserve" style="enable-background:new 0 0 64 64" viewBox="0 0 64 64"><linearGradient id="a" x1="8.94" x2="18.001" y1="58.199" y2="58.199" gradientUnits="userSpaceOnUse"><stop offset=".258" style="stop-color:#c9d6dd"/><stop offset=".504" style="stop-color:#cfdbe2"/><stop offset=".819" style="stop-color:#deeaef"/><stop offset="1" style="stop-color:#ebf5fa"/></linearGradient><path d="M17.119 58.03c.225-1.052-5.152-9.487-9.055 3.655.566.742 8.183.416 9.055-3.655z" style="fill:url(#a)"/><linearGradient id="b" x1="12.091" x2="22.052" y1="54.517" y2="54.517" gradientUnits="userSpaceOnUse"><stop offset=".21" style="stop-color:#c9d6dd"/><stop offset=".235" style="stop-color:#cad7de"/><stop offset=".707" style="stop-color:#e2edf3"/><stop offset="1" style="stop-color:#ebf5fa"/></linearGradient><path d="M20.153 56.096c.32-1.029-2.466-2.453-9.279-5.252-3.415 3.336 7.48 11.044 9.279 5.252z" style="fill:url(#b)"/><linearGradient id="c" x1="11.514" x2="22.738" y1="52.502" y2="52.502" gradientUnits="userSpaceOnUse"><stop offset=".258" style="stop-color:#c9d6dd"/><stop offset=".504" style="stop-color:#cfdbe2"/><stop offset=".819" style="stop-color:#deeaef"/><stop offset="1" style="stop-color:#ebf5fa"/></linearGradient><path d="M22.735 53.951c.106-1.189-3.11-2.65-10.822-5.445-2.822 3.989 10.226 12.134 10.822 5.445z" style="fill:url(#c)"/><linearGradient id="d" x1="12.84" x2="25.671" y1="50.71" y2="50.71" gradientUnits="userSpaceOnUse"><stop offset=".21" style="stop-color:#c9d6dd"/><stop offset=".235" style="stop-color:#cad7de"/><stop offset=".707" style="stop-color:#e2edf3"/><stop offset="1" style="stop-color:#ebf5fa"/></linearGradient><path d="M25.66 52.547c.26-1.276-3.767-3.327-12.464-5.838-2.752 4.563 11.292 11.589 12.463 5.838z" style="fill:url(#d)"/><linearGradient id="e" x1="13.986" x2="29.384" y1="48.326" y2="48.326" gradientUnits="userSpaceOnUse"><stop offset=".258" style="stop-color:#c9d6dd"/><stop offset=".504" style="stop-color:#cfdbe2"/><stop offset=".819" style="stop-color:#deeaef"/><stop offset="1" style="stop-color:#ebf5fa"/></linearGradient><path d="M29.383 48.964c-.023-1.752-4.99-3.58-15.246-4.977-1.935 6.67 15.354 12.874 15.246 4.977z" style="fill:url(#e)"/><linearGradient id="f" x1="14.329" x2="33.52" y1="45.796" y2="45.796" gradientUnits="userSpaceOnUse"><stop offset=".21" style="stop-color:#c9d6dd"/><stop offset=".235" style="stop-color:#cad7de"/><stop offset=".707" style="stop-color:#e2edf3"/><stop offset="1" style="stop-color:#ebf5fa"/></linearGradient><path d="M33.45 44.582c-.32-2.37-7.826-2.54-19.117-2.844-.342 5.58 20.557 13.524 19.116 2.844z" style="fill:url(#f)"/><linearGradient id="g" x1="16.256" x2="37.288" y1="42.73" y2="42.73" gradientUnits="userSpaceOnUse"><stop offset=".258" style="stop-color:#c9d6dd"/><stop offset=".504" style="stop-color:#cfdbe2"/><stop offset=".819" style="stop-color:#deeaef"/><stop offset="1" style="stop-color:#ebf5fa"/></linearGradient><path d="M37.224 41.028c-.32-2.37-9.628-1.973-20.92-2.277-1.25 6.467 22.361 12.957 20.92 2.277z" style="fill:url(#g)"/><linearGradient id="h" x1="17.175" x2="42.206" y1="38.344" y2="38.344" gradientUnits="userSpaceOnUse"><stop offset=".21" style="stop-color:#c9d6dd"/><stop offset=".235" style="stop-color:#cad7de"/><stop offset=".707" style="stop-color:#e2edf3"/><stop offset="1" style="stop-color:#ebf5fa"/></linearGradient><path d="M42.206 36.002c.02-2.391-12.403-1.59-25.022-.192-.538 8.148 24.95 8.846 25.022.192z" style="fill:url(#h)"/><linearGradient id="i" x1="17.635" x2="47.476" y1="33.197" y2="33.197" gradientUnits="userSpaceOnUse"><stop offset=".258" style="stop-color:#c9d6dd"/><stop offset=".504" style="stop-color:#cfdbe2"/><stop offset=".819" style="stop-color:#deeaef"/><stop offset="1" style="stop-color:#ebf5fa"/></linearGradient><path d="M47.467 29.457c.447-2.761-15.348-.65-29.832 2.224 1.199 10.162 28.213 7.77 29.832-2.224z" style="fill:url(#i)"/><linearGradient id="j" x1="18.237" x2="51.888" y1="27.753" y2="27.753" gradientUnits="userSpaceOnUse"><stop offset=".21" style="stop-color:#c9d6dd"/><stop offset=".235" style="stop-color:#cad7de"/><stop offset=".707" style="stop-color:#e2edf3"/><stop offset="1" style="stop-color:#ebf5fa"/></linearGradient><path d="M51.87 22.981c.392-3.062-5.79 3.037-33.623 4.803-.662 9.455 32.208 6.281 33.624-4.803z" style="fill:url(#j)"/><linearGradient id="k" x1="315.846" x2="336.376" y1="30.883" y2="66.889" gradientTransform="matrix(.4781 -.7555 .7098 .4307 -154.203 247.734)" gradientUnits="userSpaceOnUse"><stop offset=".258" style="stop-color:#c9d6dd"/><stop offset=".504" style="stop-color:#cfdbe2"/><stop offset=".819" style="stop-color:#deeaef"/><stop offset="1" style="stop-color:#ebf5fa"/></linearGradient><path d="M54.463 17.476c.494-3.043-7.93 3.625-35.763 5.39-.662 9.455 34.01 5.405 35.763-5.39z" style="fill:url(#k)"/><linearGradient id="l" x1="337.644" x2="357.038" y1="29.338" y2="68.558" gradientTransform="matrix(.4317 -.7829 .7345 .3871 -146.995 269.19)" gradientUnits="userSpaceOnUse"><stop offset=".21" style="stop-color:#c9d6dd"/><stop offset=".235" style="stop-color:#cad7de"/><stop offset=".707" style="stop-color:#e2edf3"/><stop offset="1" style="stop-color:#ebf5fa"/></linearGradient><path d="M57.952 9.254c.82-3.433-8.773 5.52-37.811 9.352.03 11.008 34.76 3.433 37.811-9.353z" style="fill:url(#l)"/><linearGradient id="m" x1="11.164" x2="61.469" y1="9.499" y2="12.238" gradientTransform="rotate(-3.139 419.142 115.668)" gradientUnits="userSpaceOnUse"><stop offset="0" style="stop-color:#c9d6dd"/><stop offset=".016" style="stop-color:#cad7de"/><stop offset=".323" style="stop-color:#dce8ee"/><stop offset=".644" style="stop-color:#e7f2f7"/><stop offset="1" style="stop-color:#ebf5fa"/></linearGradient><path d="M6.478 60.914c1.244 2.528 6.813-1.208 7.16-8.1.175-3.46 2.9-7.934 5.726-11.068 3.074-3.41-2.995-5.154 5.51-14.109 3.214-3.384-4.254-9.455 2.352-9.283 13.355.348 28.742-7.808 29.15-15.58.221-4.194-10.75 9.979-35.783 10.96-4.664.184-8.637 5.119-7.436 9.895C19.49 48.807 3.04 53.935 6.477 60.914z" style="fill:url(#m)"/></svg>