<svg xmlns="http://www.w3.org/2000/svg" xml:space="preserve" viewBox="0 0 64 64"><linearGradient id="a" x1="32.001" x2="32.001" y1="62.812" y2="5.888" gradientTransform="matrix(1 0 0 1.01 0 -2.946)" gradientUnits="userSpaceOnUse"><stop offset="0" style="stop-color:#a6482b"/><stop offset=".394" style="stop-color:#c97046"/><stop offset=".787" style="stop-color:#e7935d"/><stop offset="1" style="stop-color:#f2a066"/></linearGradient><path fill="url(#a)" d="M59.169 15.275c-1.898-3.905-5.252-6.903-9.472-8.778-4.964-2.205-11.294-5.413-18.67-2.012-3.304 1.523-2.374 2.636-.2 3.956 5.861 3.556 13.295 1.849 16.503 4.127a15.784 15.784 0 0 1 5.125 6.063c1.71 3.519 1.287 7.525-1.05 9.97-2.915 3.044-8.23 3.042-14.583-.015-14.279-6.87-24.719-3.135-29.729 2.65-4.748 5.483-5.433 13.269-1.701 19.373 2.812 4.605 12.184 14.537 38.397 7.359 9.23-2.344 10.272-5.021-1.571-3.575-17.958 2.19-27.391-2.755-30.472-7.798-1.979-3.234-1.588-7.252.992-10.232 3.228-3.726 10.425-5.9 20.951-.837 13.384 6.44 20.622 1.079 23.112-1.524 4.549-4.759 5.502-12.283 2.368-18.727z"/><path fill="#FFF" d="M33.353 60.068c.37-.045.738-.09 1.117-.145-.863-1.877-.963-3.948-.944-5.019-.369-.003-.733-.01-1.092-.019-.019 1.093.074 3.266.919 5.183zm5.552-.927c-.819-1.555-1.104-3.26-1.203-4.359-.366.021-.733.045-1.092.061.1 1.128.386 2.917 1.193 4.514.367-.072.727-.14 1.102-.216zm3.953-.944c-.657-1.324-.944-2.735-1.067-3.772-.371.043-.724.072-1.087.109.127 1.087.421 2.572 1.083 3.94.353-.087.712-.183 1.071-.277zm4.099-1.162c-.471-1.047-.721-2.123-.854-3.013-.345.02-.711.046-1.094.075.139.961.403 2.143.907 3.268.365-.11.713-.22 1.041-.33zm-34.001.415c.469-2.499 1.561-4.825 3.127-6.683-.315-.2-.629-.4-.915-.607a16.957 16.957 0 0 0-3.192 6.753c.314.185.64.361.98.537zm-5.672-4.317c.259.288.541.579.843.873 1.2-2.34 2.96-4.27 5.057-5.556-.295-.31-.563-.622-.807-.937-2.059 1.387-3.813 3.321-5.093 5.62zm-2.84-4.329c1.796-1.698 4.117-2.878 6.687-3.403a8.496 8.496 0 0 1-.389-1.174c-2.562.57-4.902 1.705-6.812 3.303.153.43.324.854.514 1.274zm-1.427-7.443c-.02.42-.021.84-.008 1.26 2.337-.967 4.948-1.237 7.484-.785.017-.385.054-.77.123-1.151a15.757 15.757 0 0 0-7.599.676zm1.052-5.073a13.13 13.13 0 0 1 7.355 2.009c.166-.329.354-.65.563-.965a15.307 15.307 0 0 0-7.458-2.141c-.166.362-.32.727-.46 1.097zm3.921-6.025c-.319.314-.623.634-.908.963-.013.014-.022.03-.035.044a13.104 13.104 0 0 1 6.447 4.304c.31-.281.649-.549 1.011-.801a15.232 15.232 0 0 0-6.515-4.51zm5.17-3.523c-.407.186-.803.383-1.188.592a11.997 11.997 0 0 1 4.431 6.375c.362-.16.742-.306 1.138-.436a13.978 13.978 0 0 0-4.381-6.531zm6.18-1.703c-.441.052-.873.12-1.299.196a12.22 12.22 0 0 1 1.604 7.527c.416-.068.844-.118 1.286-.152a14.239 14.239 0 0 0-1.591-7.571zm5.592-.017a24.758 24.758 0 0 0-1.158-.097 13.238 13.238 0 0 1-.243 7.675c.375.024.755.058 1.146.106.737-2.513.82-5.169.255-7.684zm5.157.996a31.229 31.229 0 0 0-1.106-.29c.197 2.638-.394 5.26-1.672 7.475.371.091.746.186 1.13.295 1.171-2.266 1.741-4.85 1.648-7.48zm3.638 1.22c-.017 2.637-.836 5.189-2.329 7.283.359.145.726.305 1.093.466a14.762 14.762 0 0 0 2.357-7.291 48.19 48.19 0 0 0-1.121-.458zm4.212 1.855a12.913 12.913 0 0 1-2.224 7.331c.364.149.723.291 1.078.424a15.054 15.054 0 0 0 2.239-7.311c-.36-.137-.724-.285-1.093-.444zm4.892 1.529a19.093 19.093 0 0 1-1.184-.255c.595 2.543.506 5.262-.225 7.802.377.071.748.136 1.109.186.654-2.527.756-5.187.3-7.733zm3.686.191c-.344.035-.696.058-1.061.06 1.294 2.244 1.754 4.925 1.586 7.628.379-.033.744-.08 1.102-.135.083-2.653-.479-5.26-1.627-7.553zm3.398-1.063a7.438 7.438 0 0 1-.979.487c1.959 1.554 3.254 3.935 4.009 6.598.36-.185.7-.376 1.019-.572-.821-2.581-2.213-4.829-4.049-6.513zm2.429-2.444a7.1 7.1 0 0 1-.627.881c2.48.721 4.601 2.371 6.225 4.42.266-.358.515-.728.746-1.106a14.568 14.568 0 0 0-6.344-4.195zm8.218-.451c.099-.427.18-.859.243-1.295a14.84 14.84 0 0 0-7.428-1.228 8.463 8.463 0 0 1-.225 1.106c2.53-.342 5.086.25 7.41 1.417zm.252-6.099a17.951 17.951 0 0 0-.188-1.113 16.726 16.726 0 0 0-7.397 1.286c.084.375.141.747.181 1.121a14.305 14.305 0 0 1 7.404-1.294zm-1.812-5.769c-.168-.33-.343-.655-.532-.97-2.458.747-4.695 2.019-6.497 3.712.165.294.322.593.47.895.029.061.046.124.075.185 1.708-1.81 3.975-3.13 6.484-3.822zm-3.525-4.682c-.303-.287-.623-.56-.947-.828a13.713 13.713 0 0 0-4.782 5.207c.291.311.562.632.82.959 1.07-2.3 2.796-4.154 4.909-5.338zm-5.791-3.815-.227-.101c-1.304 1.755-2.107 3.815-2.531 5.942.131.075.269.144.39.229.142.101.272.207.409.312.354-2.193 1.438-4.177 2.902-5.92-.314-.156-.621-.319-.943-.462zm-3.722-1.619c-.337-.136-.68-.268-1.025-.396-.879 1.931-1.558 4.859-1.572 6.854.364.049.713.106 1.052.17-.09-2.068.585-4.728 1.545-6.628zm-4.857-1.514a18.039 18.039 0 0 0-1.072-.188c-.619 1.608-1.447 3.873-1.068 7.69.372.043.74.083 1.104.119-.411-3.52.378-5.943 1.036-7.621zm-5.25-.248c-.382.044-.766.103-1.154.178-.405 1.525-.81 3.606-.294 6.699.38.113.762.213 1.144.302-.624-3.182-.157-5.513.304-7.179zm-4.786 1.347c-.02.009-.037.014-.056.023-.466.214-.839.42-1.145.62-.107.759-.17 1.615-.125 2.613.3.237.662.476 1.069.722.024.015.05.026.075.041a14.337 14.337 0 0 1 .182-4.019z" opacity=".1"/><linearGradient id="b" x1="-186.41" x2="-183.548" y1="278.691" y2="270.047" gradientTransform="rotate(-18.323 -756.498 -480.928)" gradientUnits="userSpaceOnUse"><stop offset="0" style="stop-color:#a6482b"/><stop offset="1" style="stop-color:#a6482b"/></linearGradient><path fill="url(#b)" d="M29.634 60.424c-.446 1.027-3.705.436-6.473.1-2.569-.309-4.633-.139-5.171-1.135-.942-1.739-1.193-5.787.373-7.359.633-.638 2.838 1.186 4.662 1.389 2.345.26 5.428.531 5.533 1.238.001-.001-.329 3.142 1.076 5.767z"/><path fill="#FFF" d="M20.339 52.451c-.409-.192-.785-.362-1.106-.463-.74 2.564-.9 5.311-.456 7.99.338.123.758.201 1.245.258a15.567 15.567 0 0 1 .317-7.785z" opacity=".1"/><path fill="#FFF" d="M22.698 53.363a6.588 6.588 0 0 1-1.133-.359 18.199 18.199 0 0 0-.211 7.354c.381.029.79.064 1.209.105a15.613 15.613 0 0 1 .135-7.1z" opacity=".05"/><path fill="#FFF" d="M25.269 53.67a85.602 85.602 0 0 0-1.185-.137 18.196 18.196 0 0 0-.191 7.082c.405.055.814.107 1.219.156-.5-2.357-.434-4.804.157-7.101z" opacity=".1"/><path fill="#FFF" d="M27.772 54.132a9.155 9.155 0 0 0-1.15-.265 18.168 18.168 0 0 0 .177 7.088c.437.033.843.051 1.208.043a15.597 15.597 0 0 1-.235-6.866zm21.364 2.061a10.871 10.871 0 0 1-1.125-2.213 23.676 23.676 0 0 0-1.139.013 13.02 13.02 0 0 0 1.272 2.62c.365-.144.697-.283.992-.42zm-3.969 1.397a10.96 10.96 0 0 1-1.404-3.375c-.35.034-.71.074-1.086.117a12.835 12.835 0 0 0 1.42 3.548c.372-.097.728-.192 1.07-.29zm-4.078 1.06a10.96 10.96 0 0 1-1.35-4.016c-.361.032-.728.069-1.08.096a12.8 12.8 0 0 0 1.342 4.169c.361-.081.72-.159 1.088-.249zm-5.5 1.104c.368-.059.734-.115 1.112-.183a10.968 10.968 0 0 1-1.148-4.683c-.375.011-.732.007-1.099.011a12.801 12.801 0 0 0 1.135 4.855zm-4.414.548c.368-.03.742-.067 1.12-.105a10.958 10.958 0 0 1-.848-5.348c-.365-.017-.746-.022-1.1-.046a12.793 12.793 0 0 0 .828 5.499zm-16.58-2.081c.364.152.739.303 1.129.445a10.969 10.969 0 0 1 1.942-6.997 22.594 22.594 0 0 1-.973-.522 12.773 12.773 0 0 0-2.098 7.074zM9.688 55.36c.308.24.634.478.976.714a11.046 11.046 0 0 1 3.896-6.394 14.564 14.564 0 0 1-.85-.737 12.882 12.882 0 0 0-4.022 6.417zm-4.167-4.549c.194.311.419.641.676.986a11.16 11.16 0 0 1 5.86-4.754c-.104-.15-.223-.303-.315-.455a9.85 9.85 0 0 1-.285-.51 12.997 12.997 0 0 0-5.936 4.733zm-2.306-6.079c.066.399.144.797.24 1.192a11.278 11.278 0 0 1 7.145-2.415 8.358 8.358 0 0 1-.101-1.105 13.16 13.16 0 0 0-7.284 2.328zm.166-6.093c-.086.396-.158.796-.215 1.196a11.33 11.33 0 0 1 7.575.323c.089-.356.202-.709.338-1.057a13.198 13.198 0 0 0-7.698-.462zm1.923-4.907a11.258 11.258 0 0 1 7.064 3.082c.117-.156.236-.309.366-.457.113-.133.244-.257.368-.384a13.099 13.099 0 0 0-7.139-3.274c-.23.338-.454.683-.659 1.033zm5.026-5.384a18.03 18.03 0 0 0-.999.738 11.139 11.139 0 0 1 5.653 5.364c.31-.194.64-.374.983-.543a12.948 12.948 0 0 0-5.637-5.559zm4.282-2.191a10.994 10.994 0 0 1 3.536 6.927c.356-.098.724-.187 1.104-.261a12.82 12.82 0 0 0-3.468-7.059c-.4.12-.789.252-1.172.393zm7.201-1.277a23.1 23.1 0 0 0-1.189.044 10.937 10.937 0 0 1 .931 7.646 19.35 19.35 0 0 1 1.157-.004c.507-2.597.19-5.277-.899-7.686zm5.681.523a32.89 32.89 0 0 0-1.167-.203c.61 2.57.269 5.269-.961 7.612.38.059.761.118 1.154.201a12.72 12.72 0 0 0 .974-7.61zm4.889 1.335a33.742 33.742 0 0 0-1.113-.371 10.976 10.976 0 0 1-2.174 7.334c.363.113.726.229 1.098.36a12.75 12.75 0 0 0 2.189-7.323zm4.435 1.841c-.332-.161-.663-.31-.991-.458a10.974 10.974 0 0 1-2.515 7.23c.126.06.247.107.373.168.22.105.435.199.65.299a12.753 12.753 0 0 0 2.582-7.194c-.031-.016-.064-.028-.099-.045zm3.939 1.541c-.388-.116-.78-.246-1.179-.386a10.95 10.95 0 0 1-1.355 7.609c.372.12.74.231 1.103.33a12.766 12.766 0 0 0 1.431-7.553zm3.801.723a14.903 14.903 0 0 1-1.268-.142 10.933 10.933 0 0 1 .736 7.809c.392.029.774.047 1.148.053a12.744 12.744 0 0 0-.616-7.72zm2.171-.054a11.003 11.003 0 0 1 3.077 7.239c.374-.097.734-.203 1.08-.321a12.782 12.782 0 0 0-2.887-7.148 9.475 9.475 0 0 1-1.27.23zm4.417-1.958a6.751 6.751 0 0 1-.933.75 11.139 11.139 0 0 1 5.46 5.458c.317-.265.599-.522.842-.762a12.933 12.933 0 0 0-5.369-5.446zm1.339-1.769a11.274 11.274 0 0 1 7.074 2.826c.158-.35.308-.703.439-1.065a13.123 13.123 0 0 0-7.032-2.825c-.134.37-.294.723-.481 1.064zm.998-4.417c.018.389-.002.772-.032 1.151a11.338 11.338 0 0 1 7.522.2c.019-.382.024-.766.017-1.151a13.21 13.21 0 0 0-7.507-.2zm6.354-5.791a13.14 13.14 0 0 0-7.04 2.623c.142.371.26.744.356 1.12a11.27 11.27 0 0 1 7.052-2.67 18.351 18.351 0 0 0-.368-1.073zm-2.313-4.252a16.534 16.534 0 0 0-.716-.888 12.998 12.998 0 0 0-5.715 4.625c.23.327.449.661.653 1a11.18 11.18 0 0 1 5.778-4.737zm-4.312-4.134a21.543 21.543 0 0 0-.959-.621 12.87 12.87 0 0 0-3.691 5.701c.317.274.617.556.904.846.564-2.34 1.897-4.407 3.746-5.926zm-5.821-3.005c-.965 1.7-1.828 4.336-2.049 6.238.339.09.655.196.953.317.119-1.985.985-4.445 2.047-6.136-.312-.14-.629-.279-.951-.419zm-3.639-1.411a32.345 32.345 0 0 0-1.028-.311c-.628 1.528-1.594 3.652-1.44 7.351.373.036.736.073 1.093.111-.169-3.316.705-5.585 1.375-7.151zM38.48 3.021a16.51 16.51 0 0 0-1.115-.019c-.502 1.592-1.211 3.841-.693 7.514.372.068.744.129 1.114.183-.578-3.531.143-5.997.694-7.678zm-5.134.598c-.393.114-.788.242-1.186.392-.275 1.272-.472 2.882-.196 5.037.378.183.762.348 1.148.498-.41-2.502-.121-4.444.234-5.927z" opacity=".05"/></svg>