<svg xmlns="http://www.w3.org/2000/svg" xml:space="preserve" style="enable-background:new 0 0 64 64" viewBox="0 0 64 64"><linearGradient id="a" x1="-39.342" x2="-16.761" y1="59.618" y2="59.618" gradientTransform="matrix(.9525 0 0 .9375 58.719 .21)" gradientUnits="userSpaceOnUse"><stop offset="0" style="stop-color:#c47a43"/><stop offset=".022" style="stop-color:#c27842"/><stop offset=".476" style="stop-color:#a25d2a"/><stop offset=".727" style="stop-color:#965221"/></linearGradient><path d="M23.54 61.59 21.25 48.2h21.51l-2.29 13.39c-.45 3.21-16.49 3.21-16.93 0z" style="fill:url(#a)"/><path d="M29.75 52.91c-.01.01-.02.02-.03.02.02 0 .03-.01.03-.02z" style="opacity:.5;fill:#3e4347"/><linearGradient id="b" x1="-40.649" x2="-15.453" y1="49.186" y2="49.186" gradientTransform="matrix(.9525 0 0 .9375 58.719 .21)" gradientUnits="userSpaceOnUse"><stop offset="0" style="stop-color:#c47a43"/><stop offset=".275" style="stop-color:#be753f"/><stop offset=".636" style="stop-color:#ae6733"/><stop offset="1" style="stop-color:#965221"/></linearGradient><path d="M32 45.24s-9.38-.16-12-2.62l.53 5.27s.76 2.14 11.47 2.14 11.47-2.14 11.47-2.14l.53-5.27c-2.62 2.46-12 2.62-12 2.62z" style="fill:url(#b)"/><path d="M32 40c-6.63 0-12 1.17-12 2.62 0 1.45 5.37 2.62 12 2.62s12-1.17 12-2.62C44 41.17 38.63 40 32 40z" style="fill:#c4895e"/><linearGradient id="c" x1="20.75" x2="43.273" y1="41.676" y2="41.676" gradientUnits="userSpaceOnUse"><stop offset="0" style="stop-color:#73421b"/><stop offset="1" style="stop-color:#9e6237"/></linearGradient><path d="M43.04 43.11c.15-.15.23-.32.23-.48 0-1.3-4.85-2.39-11.27-2.39s-11.25 1.1-11.25 2.39c0 .16.08.32.22.47l22.07.01z" style="fill:url(#c)"/><path d="M32 44.91c5.6 0 10.01-.74 11.04-1.8-1.01-1.1-5.57-1.92-11.04-1.92-5.46 0-10 .82-11.03 1.91 1.01 1.06 5.41 1.81 11.03 1.81z" style="fill:#402312"/><path d="M33.98 43.11c.05.64-3.51.61-3.35-.04.51-2.06 0-8.92 0-8.92h2.58s.6 6.9.77 8.96z" style="fill:#397a07"/><linearGradient id="d" x1="40.782" x2="47.511" y1="13.858" y2="4.129" gradientUnits="userSpaceOnUse"><stop offset="0" style="stop-color:#408000"/><stop offset=".245" style="stop-color:#4b8d00"/><stop offset=".695" style="stop-color:#69af00"/><stop offset="1" style="stop-color:#80c900"/></linearGradient><path d="M48.42 4.59c-3.64-1.51-12.45 2.89-8.61 9.87 11.94-.26 4.88-5.23 8.61-9.87z" style="fill:url(#d)"/><path d="M39.81 14.45c.77-8 8.61-9.87 8.61-9.87s-8.94 1.6-8.61 9.87z" style="opacity:.3;fill:#006102"/><linearGradient id="e" x1="30.278" x2="24.292" y1="14.281" y2="3.842" gradientUnits="userSpaceOnUse"><stop offset="0" style="stop-color:#408000"/><stop offset=".233" style="stop-color:#448400"/><stop offset=".468" style="stop-color:#4e9000"/><stop offset=".705" style="stop-color:#60a400"/><stop offset=".941" style="stop-color:#79c100"/><stop offset="1" style="stop-color:#80c900"/></linearGradient><path d="M24.42 4.53s-3.38 13.04 6.86 10.82c5.62-8.57-6.86-10.82-6.86-10.82z" style="fill:url(#e)"/><path d="M31.28 15.35c-1.73-5.1-6.86-10.82-6.86-10.82s6.86 5.02 6.86 10.82z" style="opacity:.3;fill:#006102"/><linearGradient id="f" x1="36.854" x2="33.375" y1="14.009" y2=".516" gradientUnits="userSpaceOnUse"><stop offset="0" style="stop-color:#4b9400"/><stop offset=".428" style="stop-color:#6eba00"/><stop offset=".783" style="stop-color:#84d200"/><stop offset="1" style="stop-color:#8cdb00"/></linearGradient><path d="M32.78 0s-8.49 12.82 4.99 15.45C47.58 8.72 32.78 0 32.78 0z" style="fill:url(#f)"/><path d="M37.76 15.45C38.21 8.3 32.78 0 32.78 0s6.89 9 4.98 15.45z" style="opacity:.3;fill:#006102"/><linearGradient id="g" x1="38.366" x2="56.404" y1="14.891" y2="19.657" gradientUnits="userSpaceOnUse"><stop offset="0" style="stop-color:#408000"/><stop offset=".089" style="stop-color:#4c8d00"/><stop offset=".304" style="stop-color:#63a700"/><stop offset=".525" style="stop-color:#73ba00"/><stop offset=".753" style="stop-color:#7dc500"/><stop offset="1" style="stop-color:#80c900"/></linearGradient><path d="M37.69 14.65c2.84 12.52 17.13 4.34 17.13 4.34s-9.6-13.63-17.13-4.34z" style="fill:url(#g)"/><path d="M37.69 14.65c8.66-.36 17.13 4.34 17.13 4.34s-9.95-6.25-17.13-4.34z" style="opacity:.3;fill:#006102"/><linearGradient id="h" x1="24.522" x2="21.903" y1="15.387" y2="3.322" gradientUnits="userSpaceOnUse"><stop offset="0" style="stop-color:#408000"/><stop offset=".38" style="stop-color:#5da200"/><stop offset=".773" style="stop-color:#77be00"/><stop offset="1" style="stop-color:#80c900"/></linearGradient><path d="M22.93 3.29c-3.8 1.16-6.87 9.83 1.22 12.52 8.49-7.6-.41-6.83-1.22-12.52z" style="fill:url(#h)"/><path d="M24.15 15.81c-5.5-5.96-1.22-12.52-1.22-12.52s-5.3 6.71 1.22 12.52z" style="opacity:.3;fill:#006102"/><linearGradient id="i" x1="21.569" x2="10.317" y1="26.49" y2="37.002" gradientUnits="userSpaceOnUse"><stop offset="0" style="stop-color:#408000"/><stop offset=".245" style="stop-color:#4b8d00"/><stop offset=".695" style="stop-color:#69af00"/><stop offset="1" style="stop-color:#80c900"/></linearGradient><path d="M10.4 36.18c-2.86-4.83 3.68-17.26 15.67-12.65.66 16.32-8.27 7.14-15.67 12.65z" style="fill:url(#i)"/><path d="M26.07 23.52C12.96 25.41 10.4 36.18 10.4 36.18s1.84-12.36 15.67-12.66z" style="opacity:.3;fill:#006102"/><linearGradient id="j" x1="23.076" x2="7.409" y1="14.305" y2="20.104" gradientUnits="userSpaceOnUse"><stop offset="0" style="stop-color:#4b9400"/><stop offset=".228" style="stop-color:#549e00"/><stop offset=".619" style="stop-color:#6eba00"/><stop offset="1" style="stop-color:#8cdb00"/></linearGradient><path d="M23.88 13.58C13.41 6.18 8 20.2 8 20.2s15.27 5.93 15.88-6.62z" style="fill:url(#j)"/><path d="M23.88 13.58C15.05 14.18 8 20.2 8 20.2s6.42-7.29 15.88-6.62z" style="opacity:.3;fill:#006102"/><linearGradient id="k" x1="28.848" x2="15.623" y1="30.506" y2="44.193" gradientUnits="userSpaceOnUse"><stop offset="0" style="stop-color:#4b9400"/><stop offset=".209" style="stop-color:#519b00"/><stop offset=".515" style="stop-color:#63af00"/><stop offset=".879" style="stop-color:#81cf00"/><stop offset="1" style="stop-color:#8cdb00"/></linearGradient><path d="M30.3 29.01c-14.66-2.59-16.1 9.96-15.35 15.18 4.87-3.12 20.55.59 15.35-15.18z" style="fill:url(#k)"/><path d="M30.3 29.01c-12.72 5.67-15.35 15.18-15.35 15.18s1.48-10.4 15.35-15.18z" style="opacity:.3;fill:#006102"/><linearGradient id="l" x1="2145.477" x2="2138.246" y1="1133.414" y2="1120.085" gradientTransform="rotate(118.482 1421.698 -44.91)" gradientUnits="userSpaceOnUse"><stop offset="0" style="stop-color:#4b9400"/><stop offset=".253" style="stop-color:#4e9800"/><stop offset=".482" style="stop-color:#58a300"/><stop offset=".704" style="stop-color:#69b500"/><stop offset=".918" style="stop-color:#81cf00"/><stop offset="1" style="stop-color:#8cdb00"/></linearGradient><path d="M54.72 36.92c3.68-4.34-.52-17.53-13.15-14.76-3.59 15.97 6.85 8.24 13.15 14.76z" style="fill:url(#l)"/><path d="M41.56 22.15c12.92 3.37 13.15 14.76 13.15 14.76s.42-12.43-13.15-14.76z" style="opacity:.3;fill:#006102"/><linearGradient id="m" x1="44.18" x2="52.1" y1="101.39" y2="118.938" gradientTransform="rotate(3.438 1251.706 -6.857)" gradientUnits="userSpaceOnUse"><stop offset="0" style="stop-color:#4b9400"/><stop offset=".314" style="stop-color:#5ca700"/><stop offset=".944" style="stop-color:#88d600"/><stop offset="1" style="stop-color:#8cdb00"/></linearGradient><path d="M46.46 46.76c5.05-2.96 5.89-16.66-7.04-17.92-9.2 13.94 3.46 9.86 7.04 17.92z" style="fill:url(#m)"/><path d="M39.42 28.84c10.55 6.88 7.04 17.92 7.04 17.92s4.91-11.58-7.04-17.92z" style="opacity:.3;fill:#006102"/><linearGradient id="n" x1="34.204" x2="36.777" y1="28.348" y2="45.143" gradientUnits="userSpaceOnUse"><stop offset="0" style="stop-color:#4b9400"/><stop offset=".428" style="stop-color:#6eba00"/><stop offset=".783" style="stop-color:#84d200"/><stop offset="1" style="stop-color:#8cdb00"/></linearGradient><path d="M36.88 43.68s11.01-12.72-2.9-16.78c-12.44 7.97 2.89 16.78 2.9 16.78z" style="fill:url(#n)"/><path d="M33.98 26.9c3.72 6.57 2.9 16.78 2.9 16.78s2.4-11.39-2.9-16.78z" style="opacity:.3;fill:#006102"/><linearGradient id="o" x1="30.724" x2="21.13" y1="18.368" y2="30.919" gradientUnits="userSpaceOnUse"><stop offset="0" style="stop-color:#408000"/><stop offset=".245" style="stop-color:#4b8d00"/><stop offset=".695" style="stop-color:#69af00"/><stop offset="1" style="stop-color:#80c900"/></linearGradient><path d="M32.86 15.8c-16.45-3.77-11.54 13.96-11.54 13.96s20.33.14 11.54-13.96z" style="fill:url(#o)"/><path d="M32.86 15.8c-7.89 4.9-11.54 13.96-11.54 13.96s3.32-11.84 11.54-13.96z" style="opacity:.3;fill:#006102"/><linearGradient id="p" x1="40.226" x2="45.422" y1="25.331" y2="37.472" gradientUnits="userSpaceOnUse"><stop offset=".144" style="stop-color:#408000"/><stop offset=".342" style="stop-color:#5b9f00"/><stop offset=".575" style="stop-color:#76bd00"/><stop offset=".706" style="stop-color:#80c900"/></linearGradient><path d="M40.18 23.93c11.85 2.76 4.12 12.1 4.12 12.1s-13.51-6.18-4.12-12.1z" style="fill:url(#p)"/><path d="M40.18 23.93c3.93 4.5 4.12 12.1 4.12 12.1s.79-8.26-4.12-12.1z" style="opacity:.3;fill:#006102"/><linearGradient id="q" x1="133.892" x2="144.448" y1="-559.93" y2="-559.93" gradientTransform="rotate(-24.828 1415.767 -57.686)" gradientUnits="userSpaceOnUse"><stop offset="0" style="stop-color:#4b9400"/><stop offset=".209" style="stop-color:#529b00"/><stop offset=".52" style="stop-color:#64af00"/><stop offset=".893" style="stop-color:#82d000"/><stop offset="1" style="stop-color:#8cdb00"/></linearGradient><path d="M41.64 17.68c-5.17 11.07 10.18 9.25 10.18 9.25s1.85-13.4-10.18-9.25z" style="fill:url(#q)"/><path d="M41.64 17.68c6.05 2.49 10.18 9.25 10.18 9.25s-3.75-8.39-10.18-9.25z" style="opacity:.3;fill:#006102"/><linearGradient id="r" x1="37.962" x2="22.672" y1="-258.481" y2="-250.145" gradientTransform="rotate(-11.507 1392.223 -58.624)" gradientUnits="userSpaceOnUse"><stop offset="0" style="stop-color:#4b9400"/><stop offset=".428" style="stop-color:#6eba00"/><stop offset=".783" style="stop-color:#84d200"/><stop offset="1" style="stop-color:#8cdb00"/></linearGradient><path d="M25.92 14.89c-10.49-2.48-15.96 7.62-13.1 12 3.59-1.87 18.52-2.31 13.1-12z" style="fill:url(#r)"/><path d="M25.92 14.89c-9.56 4.1-13.1 12-13.1 12s1.74-9.21 13.1-12z" style="opacity:.3;fill:#006102"/><linearGradient id="s" x1="1108.738" x2="1120.247" y1="-1378.609" y2="-1378.609" gradientTransform="scale(1 -1) rotate(-75.001 1450.67 1.769)" gradientUnits="userSpaceOnUse"><stop offset="0" style="stop-color:#4b9400"/><stop offset=".428" style="stop-color:#6eba00"/><stop offset=".783" style="stop-color:#84d200"/><stop offset="1" style="stop-color:#8cdb00"/></linearGradient><path d="M22.29 37.34c-2.46-4.99 5.01-16.91 16.56-11.56-.63 16.27-8.77 6.57-16.56 11.56z" style="fill:url(#s)"/><path d="M38.85 25.79C25.49 26.9 22.29 37.34 22.29 37.34s2.8-12.15 16.56-11.55z" style="opacity:.3;fill:#006102"/><linearGradient id="t" x1="31.725" x2="43.926" y1="15.056" y2="28.721" gradientUnits="userSpaceOnUse"><stop offset="0" style="stop-color:#4b9400"/><stop offset=".428" style="stop-color:#6eba00"/><stop offset=".783" style="stop-color:#84d200"/><stop offset="1" style="stop-color:#8cdb00"/></linearGradient><path d="M31.12 14.5c-8.1 13.9 12.31 12.94 12.31 12.94s4.01-17.22-12.31-12.94z" style="fill:url(#t)"/><path d="M31.12 14.5c7.97 3.7 12.31 12.94 12.31 12.94S39.48 16.21 31.12 14.5z" style="opacity:.3;fill:#006102"/><linearGradient id="u" x1="25.298" x2="29.621" y1="8.969" y2="18.298" gradientUnits="userSpaceOnUse"><stop offset="0" style="stop-color:#8cdb00"/><stop offset=".217" style="stop-color:#84d200"/><stop offset=".572" style="stop-color:#6eba00"/><stop offset="1" style="stop-color:#4b9400"/></linearGradient><path d="M18.5 13.97c2.11-4.04 11.94-9.66 18.16-.18-6.36 8.93-12.79 1.81-18.16.18z" style="fill:url(#u)"/><path d="M36.65 13.8c-9.24-5.46-18.16.18-18.16.18s8.97-7.11 18.16-.18z" style="opacity:.3;fill:#006102"/></svg>