<svg xmlns="http://www.w3.org/2000/svg" xml:space="preserve" style="enable-background:new 0 0 64 64" viewBox="0 0 64 64"><radialGradient id="a" cx="-14.244" cy="146.121" r="19.416" gradientTransform="matrix(1.5114 0 0 1.0511 53.571 -121.788)" gradientUnits="userSpaceOnUse"><stop offset="0" style="stop-color:#3d291c"/><stop offset=".275" style="stop-color:#432d1f"/><stop offset=".631" style="stop-color:#533826"/><stop offset="1" style="stop-color:#6b4831"/></radialGradient><path d="M3.138 29.506c0 9.986 9.952 21.905 28.308 21.393 20.062-.559 30.201-8.415 29.463-20.089-.63-9.961-10.248-17.561-29.463-18.095C15.82 12.281 3.138 19.52 3.138 29.506z" style="fill:url(#a)"/><path d="M35.072 18.125c3.02-.4 6.079-.568 9.135-.336 3.055.199 6.123.743 9.078 1.916 1.46.625 2.911 1.402 4.161 2.595a8.175 8.175 0 0 1 1.568 2.169c.399.846.587 1.814.57 2.754-.048 1.91-.87 3.54-1.816 4.888a19.372 19.372 0 0 1-3.33 3.507c.992-1.277 1.983-2.547 2.719-3.971.764-1.385 1.313-2.93 1.248-4.412a5.285 5.285 0 0 0-.553-2.066 6.581 6.581 0 0 0-1.335-1.666c-1.075-.97-2.393-1.678-3.759-2.232-2.744-1.125-5.7-1.734-8.665-2.188-2.974-.444-5.985-.711-9.021-.958zm25.123 11.632c-.302 1.341-.734 2.603-1.213 3.837-.474 1.209-1.082 2.512-1.836 3.607l-1.3 1.524c-.456.451-.899.916-1.401 1.328-.974.841-2.111 1.588-3.353 1.819.97-.868 1.76-1.799 2.55-2.776l2.319-2.932c.433-.434.643-1.054.992-1.563.337-.517.653-1.061.996-1.627.674-1.117 1.395-2.207 2.246-3.217zm-49.62-9.571c-1.503.318-2.989.648-4.051 1.514-1.07.837-1.462 2.191-1.23 3.645.17 1.447.791 2.89 1.549 4.226.778 1.339 1.733 2.575 2.818 3.783-1.432-.624-2.722-1.679-3.76-2.997-1.039-1.317-1.85-2.93-2.105-4.794-.131-.923-.022-1.93.293-2.862.417-.88 1.008-1.73 1.811-2.103 1.542-.879 3.196-.769 4.675-.412z" style="fill:#6b4831"/><path d="M7.993 20.918c1.473-1.266 2.998-2.466 4.647-3.487 1.647-.982 3.495-1.827 5.474-1.968 1.971-.118 3.786.155 5.604.154 1.812.009 3.634-.131 5.464-.349 3.656-.414 7.275-1.252 11.012-1.716 1.862-.209 3.785-.362 5.668.053 1.875.393 3.653 1.333 5.018 2.742-1.544-1.156-3.3-1.887-5.108-2.045-1.805-.167-3.626.03-5.434.385-3.611.737-7.253 1.726-10.989 2.197-1.86.238-3.748.439-5.653.374-1.899-.011-3.779-.377-5.526-.359-1.75-.005-3.489.547-5.17 1.355-1.692.785-3.335 1.743-5.007 2.664zm41.312 9.273c.221-.292.438-.569.658-.83.197-.285.368-.58.544-.855.257-.602.489-1.192.392-1.752-.09-1.103-.982-2.049-1.96-2.772-.995-.749-2.16-1.295-3.345-1.813-1.196-.515-2.448-.888-3.729-1.391 2.667-.373 5.494.112 7.917 1.816.581.463 1.167.968 1.603 1.681.448.668.766 1.581.689 2.486-.012.938-.525 1.672-.991 2.256-.29.239-.554.499-.85.695-.31.176-.621.334-.928.479z" style="fill:#6b4831"/><path d="M19.869 35.839c-2.232.25-4.592.168-6.795-.832-2.182-.934-4.209-3.043-4.693-5.869-.095-.341-.095-.693-.082-1.047.008-.352.003-.707.029-1.055l.231-1.018c.065-.345.162-.674.331-.969.283-.619.576-1.223 1.007-1.709.2-.254.387-.524.599-.76l.711-.612c1.911-1.616 4.24-2.253 6.476-2.423-2.138.806-4.167 1.847-5.716 3.42l-.566.597c-.164.219-.307.456-.461.68-.344.429-.543.941-.741 1.446-.261.482-.252 1.047-.406 1.56l.001.804c-.01.268-.009.536.075.792.339 2.121 1.838 3.91 3.707 4.987 1.889 1.086 4.06 1.615 6.293 2.008z" style="fill:#6b4831"/><path d="M40.992 24.02c-2.356.864-4.919.822-7.355.645-2.457-.171-4.876-.56-7.276-.817-2.382-.262-4.814-.521-7.028.025-1.098.279-2.105.86-2.721 1.901-.683 1.008-.852 2.386-.938 3.731-.247-1.322-.269-2.782.293-4.135.263-.689.748-1.242 1.257-1.738.546-.434 1.149-.795 1.773-1.011 2.521-.903 5.073-.666 7.519-.437 2.456.297 4.859.757 7.253 1.188 2.394.389 4.774.867 7.223.648z" style="fill:#6b4831"/><path d="M46.616 32.073c.315-.3.626-.586.938-.856.303-.284.549-.622.816-.917.425-.66.814-1.363.667-2.013-.221-1.284-1.558-2.321-2.897-2.994-1.37-.714-2.881-1.16-4.408-1.559-1.535-.412-3.115-.596-4.737-.916 1.598-.376 3.26-.559 4.912-.375 1.653.153 3.306.554 4.873 1.336.765.437 1.53.913 2.188 1.62.651.669 1.23 1.68 1.243 2.823.05 1.215-.708 2.058-1.33 2.671-.375.243-.713.535-1.099.713-.391.17-.781.325-1.166.467z" style="fill:#6b4831"/><path d="M58.468 23.42c-.972-1.276-2.073-2.392-3.333-3.134a8.772 8.772 0 0 0-1.963-.852c-.663-.186-1.405-.271-2.142-.422-2.935-.537-5.874-.99-8.824-1.273-2.951-.293-5.905-.371-8.898-.421-2.987-.034-6.043-.212-8.972-.972 3.007.159 5.959-.071 8.95-.274 2.989-.218 6.028-.243 9.043.022 3.017.254 6.005.783 8.947 1.491 1.43.281 3.093.802 4.333 1.881 1.27 1.041 2.215 2.451 2.859 3.954z" style="fill:#80563a"/><path d="M49.305 16.347c-2.768-.849-5.484-1.7-8.217-1.966a18.414 18.414 0 0 0-4.079.063c-1.313.168-2.802.557-4.218.685-2.863.384-5.799.378-8.644-.073-1.422-.205-2.807-.489-4.197-.53-1.393-.052-2.781.298-4.132.802 1.252-.748 2.651-1.276 4.109-1.408 1.457-.16 2.902.002 4.309.081 2.816.202 5.602.052 8.376-.412 1.414-.211 2.703-.53 4.208-.787a14.474 14.474 0 0 1 4.432.049c2.934.478 5.625 1.821 8.053 3.496zm-27.906 3.196a25.975 25.975 0 0 0-4.883 2.027c-1.523.843-3 1.822-4.127 3.099-1.144 1.253-1.778 2.858-1.397 4.52.381 1.686 1.572 3.163 2.741 4.648-1.536-.946-3.113-2.185-3.864-4.252-.159-.524-.349-1.053-.304-1.634.002-.284-.021-.576.01-.856l.189-.825c.289-1.1.913-1.979 1.55-2.775 1.372-1.495 3.032-2.475 4.753-3.127 1.718-.645 3.542-1.003 5.332-.825zm28.693 8.583c.034-1.42-.643-2.614-1.594-3.393-.919-.827-2.032-1.385-3.151-1.875-2.268-.938-4.677-1.519-7.1-1.944-2.424-.45-4.884-.696-7.353-.885a121.438 121.438 0 0 0-7.472-.259c4.906-1.284 10.052-1.354 15.065-.507 2.5.473 5.002 1.146 7.33 2.402 1.154.632 2.284 1.398 3.188 2.476.891 1.052 1.484 2.615 1.087 3.985z" style="fill:#80563a"/><path d="M41.864 22.399c-3.892-.269-7.675-.569-11.478-.489-3.804.031-7.57.44-11.447.907 3.576-1.752 7.515-2.505 11.427-2.579 3.916-.032 7.854.602 11.498 2.161zm7.441-3.035c1.554.131 3.094.498 4.566 1.162 1.47.658 2.873 1.646 3.983 3.029a8.86 8.86 0 0 1 1.872 5.04c.07 1.835-.414 3.568-1.124 5.092.112-1.733.218-3.377-.047-4.939-.295-1.543-.906-2.94-1.839-4.093-.908-1.179-2.098-2.118-3.364-2.962-1.279-.833-2.66-1.532-4.047-2.329zM7.215 30.019c-.29-.329-.59-.673-.869-1.046-.197-.421-.461-.838-.589-1.316-.259-.953-.296-2.052.024-3.021.562-2.001 1.934-3.441 3.331-4.559a15.59 15.59 0 0 1 4.66-2.419c1.635-.533 3.332-.827 5.023-.75-1.598.612-3.131 1.243-4.615 1.975-1.472.745-2.914 1.55-4.201 2.564-1.286.988-2.475 2.179-3.1 3.652-.653 1.453-.516 3.273.336 4.92z" style="fill:#80563a"/><path d="M39.065 19.059c-3.532-.089-7.036-.428-10.524-.459-3.483-.099-6.951.059-10.344.697-1.692.336-3.364.782-4.936 1.464-1.552.697-3.061 1.608-4.1 2.997-2.189 2.728-1.341 7.559 1.515 9.799-1.641-.812-2.721-2.641-3.281-4.548-.557-1.949-.215-4.266.931-5.958 1.117-1.719 2.75-2.866 4.415-3.663 1.675-.815 3.429-1.338 5.193-1.696 3.531-.768 7.141-.796 10.673-.498 3.535.365 7.013.999 10.458 1.865zm16.836-.299c-2.663-1.945-5.809-1.782-8.901-2.133-1.57-.116-3.15-.53-4.618-.743-1.5-.239-3.02-.338-4.543-.372-6.097-.167-12.294.971-18.544.662 6.144-1.002 12.232-2.444 18.576-2.335 1.577.066 3.161.179 4.728.48 1.595.332 3.035.748 4.553 1.014 1.514.281 3.073.5 4.609.962 1.523.473 3.024 1.244 4.14 2.465z" style="fill:#966544"/><path d="M7.695 20.417c2.012-2.311 4.519-4.126 7.215-5.405 2.694-1.305 5.569-2.105 8.467-2.565 5.821-.862 11.651-.377 17.354.607-5.783.334-11.531.167-17.148 1.049-5.601.848-11.091 2.708-15.888 6.314z" style="fill:#966544"/><radialGradient id="b" cx="-102.852" cy="31.115" r="11.81" gradientTransform="matrix(.4834 -.8372 .608 .351 71.93 -72.465)" gradientUnits="userSpaceOnUse"><stop offset="0" style="stop-color:#28edd5"/><stop offset=".151" style="stop-color:#27e8d0"/><stop offset=".334" style="stop-color:#22d9c3"/><stop offset=".534" style="stop-color:#1bc0ad"/><stop offset=".746" style="stop-color:#129e8d"/><stop offset=".965" style="stop-color:#057366"/><stop offset="1" style="stop-color:#036b5f"/></radialGradient><path d="M45.613 18.777c-3.629-2.095-9.142.662-11.903 5.444-2.761 4.783-1.725 9.781 1.903 11.876 3.629 2.095 8.475.493 11.237-4.29 2.761-4.782 2.392-10.935-1.237-13.03z" style="fill:url(#b)"/><radialGradient id="c" cx="-101.912" cy="33.835" r="10.321" fx="-95.204" fy="29.167" gradientTransform="matrix(.4834 -.8372 .608 .351 69.286 -69.907)" gradientUnits="userSpaceOnUse"><stop offset="0" style="stop-color:#99fff3"/><stop offset="1" style="stop-color:#99fff3;stop-opacity:0"/></radialGradient><path d="M45.613 18.777c-3.629-2.095-9.142.662-11.903 5.444-2.761 4.783-1.725 9.781 1.903 11.876 3.629 2.095 8.475.493 11.237-4.29 2.761-4.782 2.392-10.935-1.237-13.03z" style="fill:url(#c)"/><radialGradient id="d" cx="86.974" cy="43.73" r="11.81" gradientTransform="matrix(-.1679 -.952 .6914 -.1219 5.814 112.077)" gradientUnits="userSpaceOnUse"><stop offset="0" style="stop-color:#28edd5"/><stop offset=".151" style="stop-color:#27e8d0"/><stop offset=".334" style="stop-color:#22d9c3"/><stop offset=".534" style="stop-color:#1bc0ad"/><stop offset=".746" style="stop-color:#129e8d"/><stop offset=".965" style="stop-color:#057366"/><stop offset="1" style="stop-color:#036b5f"/></radialGradient><path d="M21.16 16.635c-4.126.728-6.578 6.383-5.619 11.822s4.965 8.602 9.092 7.874c4.127-.728 6.809-5.07 5.85-10.509-.958-5.439-5.196-9.915-9.323-9.187z" style="fill:url(#d)"/><radialGradient id="e" cx="87.913" cy="46.45" r="10.321" fx="94.622" fy="41.782" gradientTransform="matrix(-.1679 -.952 .6914 -.1219 5.433 115.737)" gradientUnits="userSpaceOnUse"><stop offset="0" style="stop-color:#99fff3"/><stop offset="1" style="stop-color:#99fff3;stop-opacity:0"/></radialGradient><path d="M21.16 16.635c-4.126.728-6.578 6.383-5.619 11.822s4.965 8.602 9.092 7.874c4.127-.728 6.809-5.07 5.85-10.509-.958-5.439-5.196-9.915-9.323-9.187z" style="fill:url(#e)"/><path d="M58.947 42.483c-2.751.909-5.094 2.281-7.559 3.754-1.24.705-2.504 1.435-3.863 1.97-1.348.544-2.796.919-4.24.843 2.652-1.191 4.893-2.811 7.401-4.293 1.256-.713 2.564-1.4 3.965-1.834 1.39-.445 2.867-.657 4.296-.44zM30.948 47.9c-3.114 1.193-6.563 1.211-9.795.466-3.25-.77-6.264-2.261-9.048-4.161 1.624.313 3.186.806 4.733 1.266 1.55.452 3.08.914 4.627 1.259 3.09.755 6.2 1.047 9.483 1.17zm-7.353-5.417c-.898.548-1.842 1.026-2.866 1.308-1.006.3-2.176.315-3.2-.088-.51-.18-.979-.394-1.43-.514a4.29 4.29 0 0 0-.668-.116l-.776-.019c-1.049-.055-2.144-.202-3.201-.737-1.068-.513-1.95-1.467-2.532-2.468-.316-.492-.544-1.024-.785-1.539a6.734 6.734 0 0 0-.832-1.253c-.66-.766-1.517-1.42-2.261-2.257a6.336 6.336 0 0 1-1.523-2.995c.437 1.035 1.066 1.916 1.862 2.569.797.656 1.717 1.162 2.547 1.954.412.393.796.854 1.111 1.361.307.439.63.863.939 1.267.639.806 1.295 1.448 2.105 1.862.799.435 1.751.674 2.719.925l.747.173c.288.046.565.129.831.228.53.205.989.477 1.437.687 1.755.953 3.853.354 5.776-.348zm26.155-4.982c-1.311 1.098-2.531 2.188-3.587 3.45-1.067 1.241-1.95 2.696-3.253 4-1.304 1.328-3.1 1.981-4.755 2.129-1.679.193-3.317-.072-4.909-.466 1.619-.299 3.219-.41 4.722-.823 1.5-.405 2.879-.977 3.952-2.103 1.115-1.055 2.119-2.537 3.443-3.689a11.407 11.407 0 0 1 4.387-2.498zm-1.957-1.628c-2.475.522-4.906 1.06-7.252 1.852a34.61 34.61 0 0 0-6.711 3.249c-2.17 1.281-4.385 2.753-6.876 3.557-2.481.826-5.087.921-7.574.567 2.505-.297 4.933-.83 7.19-1.802 2.252-.993 4.324-2.448 6.542-3.794 2.217-1.342 4.63-2.439 7.127-3.035 2.498-.608 5.047-.718 7.554-.594z" style="fill:#6b4831"/><path d="M34.535 37.615c-1.152.352-2.319.599-3.483.902-1.172.231-2.346.461-3.528.636-2.366.331-4.751.547-7.155.523-2.399-.048-4.825-.27-7.18-.97-1.172-.361-2.322-.826-3.4-1.439a36.337 36.337 0 0 1-3.056-2.088c2.25.929 4.429 1.854 6.712 2.253 2.28.41 4.604.554 6.939.572 2.336.057 4.684-.085 7.04-.147 2.357-.117 4.723-.214 7.111-.242z" style="fill:#6b4831"/><path d="M21.399 37.114c-2.848.21-5.728.076-8.566-.401-2.808-.447-5.829-1.273-8.172-3.555-1.132-1.134-2.077-2.593-2.492-4.298-.214-.848-.236-1.852-.007-2.72.213-.877.609-1.644 1.068-2.313.924-1.357 2.076-2.304 3.005-3.425.948-1.077 1.701-2.457 1.679-4.056.38 1.579-.281 3.26-1.104 4.573-.858 1.321-1.905 2.423-2.612 3.653-.706 1.252-1.072 2.578-.653 3.857.364 1.333 1.139 2.531 2.119 3.48 1.953 1.961 4.666 2.834 7.384 3.525a94.468 94.468 0 0 0 8.351 1.68zm32.597-12.232c.567 1.155 1.027 2.424 1.056 3.845.072 1.431-.771 2.956-1.933 3.643-1.134.742-2.37 1.066-3.574 1.283-1.208.226-2.412.312-3.604.375-1.193.074-2.376.095-3.549.136-1.119.04-2.186.252-3.27.655-1.084.379-2.222.918-3.45 1.148-1.226.216-2.47.175-3.63-.153 1.198-.082 2.353-.289 3.422-.73 1.073-.424 2.076-1.05 3.206-1.598 1.13-.524 2.402-.909 3.655-.953 1.194-.075 2.38-.113 3.555-.145 2.322-.124 4.732-.131 6.705-1.092.964-.494 1.651-1.393 1.797-2.62.187-1.216-.099-2.523-.386-3.794z" style="fill:#80563a"/><path d="M31.668 35.121c-.915.188-1.84.312-2.77.421-.929.029-1.867.105-2.802.047a20.48 20.48 0 0 1-5.583-1.005c-1.803-.674-3.605-1.623-4.991-3.226-.656-.834-1.217-1.817-1.372-2.953-.161-1.135.278-2.326 1.054-2.92-.526.869-.632 1.888-.33 2.741.278.865.856 1.563 1.466 2.193 1.328 1.18 2.951 1.974 4.629 2.572 1.692.586 3.453.973 5.24 1.304.893.165 1.8.267 2.707.43.911.118 1.827.215 2.752.396zm28.323 2.38c-.37 1.673-1.373 3.166-2.629 4.243-1.254 1.102-2.728 1.817-4.18 2.44-1.46.609-2.945 1.113-4.307 1.738-.661.297-1.296.737-2.002 1.146-.691.396-1.391.779-2.101 1.144-2.826 1.464-5.915 2.548-9.099 2.729-3.177.184-6.289-.486-9.233-1.523 3.079.346 6.15.541 9.127.147 2.974-.382 5.823-1.493 8.592-2.85 1.422-.68 2.661-1.458 4.215-2.167 1.505-.633 3.007-.997 4.462-1.493 1.454-.482 2.88-1.037 4.159-1.894 1.292-.835 2.348-2.099 2.996-3.66z" style="fill:#80563a"/><path d="M54.534 44.615c-.895 1.38-2.059 2.572-3.438 3.431-1.371.883-2.915 1.378-4.425 1.696-1.52.285-3.024.444-4.529.53-1.504.093-3.008.148-4.545.073 1.434-.612 2.911-1.032 4.393-1.368 1.48-.35 2.968-.58 4.412-.881 1.449-.275 2.839-.652 4.184-1.222 1.347-.569 2.628-1.387 3.948-2.259zM4.92 35.375c.557 1.843 1.235 3.59 2.368 4.803 1.125 1.213 2.667 1.804 4.278 2.23 1.616.446 3.333.721 5.031 1.199 1.697.46 3.399 1.085 4.914 2.08-1.733-.34-3.416-.581-5.123-.795-1.705-.211-3.429-.41-5.18-.859-1.708-.479-3.592-1.277-4.789-2.98-1.198-1.674-1.558-3.757-1.499-5.678zm39.882 1.64c-1.719.662-3.443 1.167-5.103 1.811-1.665.629-3.262 1.336-4.638 2.404-.712.509-1.372 1.14-2.158 1.735-.799.553-1.648 1.09-2.555 1.368-1.789.639-3.618.8-5.429.766 1.719-.652 3.442-1.176 4.995-1.98 1.585-.754 2.733-2.023 4.298-3.272 1.583-1.184 3.39-1.887 5.176-2.275 1.788-.428 3.601-.579 5.414-.557z" style="fill:#80563a"/><path d="M30.781 38.565a24.813 24.813 0 0 1-4.611 2.983c-1.632.827-3.419 1.383-5.255 1.565a14.062 14.062 0 0 1-5.424-.61 19.006 19.006 0 0 1-4.916-2.342c3.493.757 6.866 1.637 10.213 1.285 3.35-.256 6.575-1.773 9.993-2.881zm22.145-3.19c-1.707.88-3.447 1.59-5.089 2.453-1.65.874-3.174 1.76-4.276 3.267-.6.738-1.287 1.574-2.075 2.238-.808.633-1.642 1.193-2.525 1.598-1.739.88-3.564 1.402-5.41 1.779 1.636-1.032 3.319-1.89 4.864-2.936.774-.517 1.517-1.056 2.178-1.678.663-.62 1.225-1.314 1.847-2.12 1.283-1.702 3.192-2.733 4.964-3.356 1.803-.67 3.653-1.034 5.522-1.245z" style="fill:#80563a"/><path d="M50.384 44.738c-3.168 3.04-7.133 5.007-11.226 6.156-4.122 1.063-8.395 1.454-12.652.752-.54-.102-1.061-.203-1.65-.429a2.85 2.85 0 0 1-.478-.24l-.317-.198c-.206-.14-.434-.25-.651-.375-.888-.475-1.848-.842-2.822-1.179-1.958-.656-3.987-1.231-5.984-2.011-1.973-.789-4.003-1.821-5.469-3.615-1.483-1.773-2.163-4.162-2.205-6.455.327 2.269 1.143 4.475 2.655 5.962 1.493 1.49 3.38 2.396 5.339 3.023 1.961.646 4.005 1.043 6.039 1.684 1.018.317 2.041.67 3.041 1.164.248.132.5.246.743.398l.366.22c.096.051.115.064.234.108.396.149.904.252 1.389.333 3.989.561 8.149.326 12.153-.514a31.812 31.812 0 0 0 11.495-4.784z" style="fill:#80563a"/><path d="M61.985 31.391c.017.576.021 1.162.005 1.751-.047.584-.158 1.171-.25 1.77-.358 1.134-.927 2.332-1.905 3.064-1.914 1.49-4.087 1.773-6.049 2.368-2 .506-3.931 1.145-5.82 1.969-1.905.797-3.687 1.913-5.54 3.014 1.489-1.612 3.129-3.157 5.043-4.199 1.876-1.112 3.924-1.866 5.964-2.411 2.024-.557 4.122-.821 5.745-1.821.827-.49 1.384-1.332 1.873-2.275.181-.507.392-1.019.547-1.559.111-.551.242-1.107.387-1.671z" style="fill:#80563a"/><path d="M55.887 25.46c-.55-1.314-1.497-2.22-2.456-2.969-.968-.756-2.019-1.324-3.084-1.823a34.819 34.819 0 0 0-4.328-1.631l.7.581a33.955 33.955 0 0 1 3.369 1.662c.997.586 1.973 1.214 2.849 1.956.866.74 1.658 1.627 2.025 2.655.38 1.023.172 2.113-.438 3.015-.6.91-1.474 1.645-2.389 2.293-1.862 1.281-3.983 2.152-6.118 2.904-2.145.743-4.349 1.304-6.571 1.765-1.11.237-2.227.444-3.347.626-1.128.183-2.326.42-3.447.817-2.282.755-4.342 2.115-6.214 3.564-1.891 1.411-3.716 2.897-6.007 3.374 2.33.002 4.543-1.252 6.492-2.502 1.983-1.255 3.991-2.313 6.119-2.947a25.178 25.178 0 0 1 3.266-.685 71.457 71.457 0 0 0 3.417-.606 51.948 51.948 0 0 0 6.734-1.867c2.208-.794 4.383-1.786 6.385-3.225.991-.729 1.945-1.6 2.649-2.781a5.152 5.152 0 0 0 .7-2.017 4.419 4.419 0 0 0-.306-2.159z" style="fill:#966544"/><path d="M41.307 35.958c-3.808.92-7.684 1.475-11.585 1.764-3.901.288-7.835.224-11.747-.302-3.864-.631-7.898-1.457-11.252-4.164-.817-.683-1.564-1.552-2.033-2.626a5.551 5.551 0 0 1-.338-3.447 7.967 7.967 0 0 1 1.412-2.951c.603-.873 1.344-1.596 2.093-2.281-1.263 1.598-2.532 3.376-2.777 5.39-.334 2.005.78 3.817 2.329 4.875 1.523 1.117 3.325 1.832 5.146 2.372 1.828.546 3.713.916 5.612 1.174 3.798.553 7.658.661 11.518.681 3.862-.021 7.732-.248 11.622-.485z" style="fill:#966544"/><path d="M32.805 34.305c3.002-.319 5.984-.712 8.909-1.34 2.903-.629 5.849-1.419 8.329-2.955 1.235-.746 2.256-1.833 2.49-3.102.265-1.216-.557-2.494-1.62-3.472-.889-.813-1.928-1.486-3.018-2.067-.357-.8-.886-1.413-.886-1.413 1.482.464 3.42 1.258 4.726 2.311.641.537 1.284 1.145 1.739 1.994.47.823.716 1.925.533 2.961-.401 2.071-1.893 3.371-3.251 4.191-2.832 1.644-5.877 2.26-8.886 2.684-3.022.371-6.055.414-9.065.208zm-2.187 1.303c-3.292.631-6.653.934-10.046.568-1.695-.174-3.398-.58-5.031-1.391-1.577-.81-3.228-2.371-3.558-4.602a6.826 6.826 0 0 1 .296-3.135c.343-.997.807-1.798 1.339-2.585a9.694 9.694 0 0 1 2.363-2.516s-.359 1.133-.542 2.442a8.998 8.998 0 0 0-.683.984c-.433.706-.859 1.491-1.095 2.22a5.02 5.02 0 0 0-.196 2.303c.22 1.502 1.335 2.708 2.714 3.451 1.374.789 2.962 1.194 4.555 1.531 1.602.324 3.247.485 4.898.557 1.653.136 3.314.121 4.986.173z" style="fill:#966544"/><path d="M30.264 38.493c-2.416 1.084-4.925 2.044-7.547 2.454-2.604.486-5.292.615-7.95.199-2.644-.424-5.285-1.331-7.546-3.013-1.092-.888-2.151-1.868-2.884-3.151-.718-1.26-1.259-2.703-1.199-4.173.58 2.876 2.595 4.844 4.707 6.217 2.192 1.321 4.636 2.091 7.129 2.464 2.494.425 5.054.376 7.603.166 2.56-.18 5.1-.697 7.687-1.163zm21.965-18.496c1.525.995 2.98 2.144 4.259 3.563.623.727 1.206 1.526 1.609 2.48.406.941.603 2.084.373 3.178-.487 2.228-2.136 3.668-3.696 4.661-1.612.999-3.318 1.712-5.076 2.223-1.796.453-3.39.857-4.966 1.595a12.886 12.886 0 0 0-4.145 3.061c-1.212 1.297-2.287 2.947-3.8 4.167-1.512 1.226-3.364 1.704-5.12 1.784 1.717-.489 3.365-1.226 4.603-2.503 1.276-1.221 2.141-2.924 3.373-4.443 1.224-1.526 2.799-2.774 4.499-3.574 1.663-.858 3.551-1.251 5.195-1.652 1.657-.471 3.312-1.059 4.805-1.93 1.462-.862 2.912-2.006 3.349-3.655.223-.808.138-1.707-.166-2.55-.311-.841-.783-1.632-1.299-2.395-1.079-1.497-2.431-2.769-3.797-4.01z" style="fill:#966544"/><path d="M40.992 46.22c.621-.962 1.318-1.858 1.983-2.797.746-.847 1.478-1.726 2.284-2.517a27.73 27.73 0 0 1 5.321-4.098 36.893 36.893 0 0 1 2.963-1.456c.993-.411 2.019-.791 2.907-1.232.893-.451 1.553-1.077 1.731-2.156.168-.507.107-1.097.152-1.668-.033-.576-.077-1.16-.094-1.757.37 1.109.704 2.251.676 3.537-.012.323-.016.648-.148.968-.103.323-.192.663-.408.92-.351.598-.871.964-1.346 1.304-1.975 1.217-3.916 1.918-5.739 3.026-1.835 1.051-3.572 2.298-5.28 3.627l-2.514 2.096c-.825.727-1.618 1.498-2.488 2.203z" style="fill:#966544"/><path d="M57.259 23.203c1.447 1.135 2.72 2.611 3.555 4.453.82 1.847.856 4.171.124 6.112-.671 1.994-1.985 3.549-3.325 4.915-1.379 1.347-2.915 2.443-4.493 3.416-3.188 1.887-6.571 3.276-10.034 4.241a52.075 52.075 0 0 1-10.524 1.895c1.72-.498 3.446-.906 5.14-1.467 1.703-.499 3.397-1.031 5.057-1.663 3.324-1.235 6.597-2.633 9.637-4.474 1.525-.903 2.981-1.941 4.287-3.147 1.299-1.199 2.481-2.589 3.193-4.226a7.195 7.195 0 0 0 .257-5.294c-.54-1.783-1.65-3.349-2.874-4.761zM43.066 37.501c-1.722 1.084-3.433 2.091-4.952 3.35-1.555 1.238-2.721 2.764-4.194 4.378-.784.79-1.809 1.414-2.863 1.703a9.326 9.326 0 0 1-3.107.17c-2.021-.153-3.927-.77-5.803-1.446 1.977.037 3.933.212 5.829.14.947-.034 1.872-.13 2.715-.396a5.426 5.426 0 0 0 2.214-1.41c.676-.681 1.349-1.491 2.1-2.243.767-.736 1.584-1.418 2.461-1.982 1.744-1.157 3.681-1.787 5.6-2.264z" style="fill:#966544"/><path d="M47.361 45.954a54.188 54.188 0 0 1-9.584 3.873c-3.308.885-6.834 1.424-10.306.796-1.732-.255-3.362-.871-4.946-1.059-.794-.107-1.596-.162-2.401-.061l-1.295.138a4.414 4.414 0 0 1-1.384-.167c-1.781-.513-3.195-1.758-4.377-3.129-1.133-1.394-2.257-2.983-2.494-4.876.178.922.666 1.705 1.152 2.448a13.5 13.5 0 0 0 1.697 2.024c1.241 1.198 2.682 2.226 4.213 2.583.801.192 1.424.039 2.349-.17.864-.196 1.767-.24 2.654-.201 1.789.137 3.42.628 5.041.858 3.237.482 6.545.117 9.827-.561 3.298-.633 6.544-1.646 9.854-2.496z" style="fill:#966544"/></svg>