<svg xmlns="http://www.w3.org/2000/svg" xml:space="preserve" style="enable-background:new 0 0 64 64" viewBox="0 0 64 64"><path d="M52.187 36.643c.518.059-1.741 1.658 4.759 4.472.552.24.536-1.179.23-1.36-3.655-2.124-3.726-3.416-4.99-3.112z" style="fill:#7e4524"/><path d="M57.177 40.15c-.03.876-.883.567 4.354 3.284.454.235.438-1.023.168-1.166-3.31-1.756-4.51-2.481-4.522-2.118z" style="fill:#7e4524"/><path d="M63.996 43.07c-.075-.2-.872-.365-2.209-.69-.248-.06-.266.94-.118.974 1.337.307 2.406-.073 2.327-.284zM52.76 36.531c.123.037.139 2.046-.048 2.074-1.593.259-3.61 2.43-4.605 2.127-.608-.184-1.384-2.405-1.143-2.437 2.057-.281 4.1-2.278 5.797-1.764zm-7.587-6.287c1.118 1.12.96 1.01 6.616-.703.553-.169-.325-1.524-.661-1.46-4.007.726-6.163 1.322-5.955 2.163z" style="fill:#7e4524"/><path d="M51.068 28.975c.686.895 2.595.214 5.644-.46.482-.104-.155-1.217-.442-1.15-3.529.776-6.192.32-5.202 1.61z" style="fill:#7e4524"/><path d="M58.466 26.539c-.179-.096-.872.27-2.064.85-.217.107.241.94.371.874 1.181-.592 1.88-1.626 1.693-1.724zm-12.245 2.587c.124-.014 1.17 1.765 1.008 1.859-1.389.805-2.842 3.058-3.882 3.191-.633.082-1.741-2.134-1.53-2.25 1.813-.998 2.64-2.576 4.404-2.8zm-9.445-5.665c-.008-.461-.768-.19-2.37-5.188-.158-.486 1.203-.704 1.331-.432 1.52 3.24 3.163 4.916 1.039 5.62z" style="fill:#7e4524"/><path d="M34.925 18.608c-.296-.019-1.4-1.946-2.462-4.486-.169-.402 1.116-.397 1.216-.154 1.232 2.934 3.12 4.758 1.246 4.64z" style="fill:#7e4524"/><path d="M32.94 11.887c.167.066.4.85.567 2.037.029.22-.891.2-.91.07-.147-1.19.169-2.177.343-2.107zm5.135 10.457c-.053-.098-1.824.518-1.81.69.09 1.464-1.143 3.846-.704 4.653.268.488 2.385.283 2.368.064-.162-1.88.89-4.04.146-5.407zm12.791 20.223.05 1.918s3.076-.273 4.54.368c.386.17.459-.124.106-.482-1.435-1.46-4.696-1.804-4.696-1.804zm-14.164 9.594c.058.52 1.654-1.745 4.462 4.77.239.553-1.176.537-1.356.23-2.12-3.662-3.41-3.734-3.106-5z" style="fill:#7e4524"/><path d="M40.201 57.162c.874-.03.566-.884 3.277 4.364.235.455-1.021.438-1.164.168-1.752-3.318-2.475-4.52-2.113-4.532z" style="fill:#7e4524"/><path d="M43.115 63.996c-.2-.075-.364-.874-.69-2.213-.059-.25.94-.267.973-.12.307 1.34-.073 2.412-.283 2.333zM36.59 52.737c.037.122 2.041.138 2.07-.05.258-1.596 2.424-3.616 2.122-4.614-.183-.61-2.4-1.387-2.432-1.146-.28 2.061-2.273 4.109-1.76 5.81zm-6.274-7.604c1.118 1.12 1.009.961-.701 6.63-.169.554-1.52-.326-1.457-.663.724-4.015 1.32-6.176 2.158-5.967z" style="fill:#7e4524"/><path d="M29.05 51.04c.893.688.214 2.601-.458 5.656-.105.483-1.215-.155-1.148-.443.774-3.536.319-6.205 1.606-5.213z" style="fill:#7e4524"/><path d="M26.62 58.454c-.097-.18.27-.873.847-2.068.107-.218.938.242.872.372-.59 1.183-1.622 1.883-1.72 1.696zm2.581-12.271c-.014.124 1.76 1.171 1.855 1.01.803-1.392 3.051-2.848 3.184-3.89.081-.635-2.129-1.745-2.246-1.534-.995 1.817-2.57 2.645-2.793 4.414zm-5.653-9.466c-.46-.007-.189-.769-5.177-2.374-.485-.16-.702 1.205-.431 1.333 3.233 1.524 4.905 3.17 5.608 1.041z" style="fill:#7e4524"/><path d="M18.705 34.863c-.019-.297-1.942-1.404-4.476-2.467-.4-.17-.396 1.118-.154 1.218 2.928 1.234 4.748 3.127 4.63 1.249z" style="fill:#7e4524"/><path d="M12 32.874c.065.167.846.4 2.032.568.219.028.2-.894.069-.912-1.186-.148-2.172.169-2.102.344zm10.434 5.145c-.098-.053.517-1.827.687-1.813 1.461.09 3.838-1.146 4.644-.707.487.27.282 2.391.064 2.374-1.877-.163-4.031.892-5.395.146zm20.179 12.819 1.914.05s-.273 3.083.367 4.549c.17.388-.123.46-.48.107-1.457-1.438-1.8-4.706-1.8-4.706zM19.294.217c1.078 3.462 2.572 10.179 3.09 13.754.742 5.113 1.422 8.251 2.299 10.657-2.411-.877-5.556-1.556-10.686-2.294-3.58-.518-10.314-2.008-13.78-3.083-.192-.06-.31.175-.123.253 2.586 1.066 6.4 2.63 13.776 3.78 4.58.712 8.008 1.458 11.857 3.581.47.872 2.065-.726 1.194-1.195-2.125-3.84-2.871-7.26-3.585-11.826C22.184 6.479 20.618 2.677 19.549.095c-.076-.189-.313-.07-.255.122z" style="fill:#7e4524"/><linearGradient id="a" x1="-487.36" x2="-487.36" y1="633.91" y2="630.973" gradientTransform="rotate(-45.001 -964.145 -289.942)" gradientUnits="userSpaceOnUse"><stop offset="0" style="stop-color:#57270a"/><stop offset=".16" style="stop-color:#5d2c0e"/><stop offset=".382" style="stop-color:#6f3a1a"/><stop offset=".64" style="stop-color:#8d512e"/><stop offset=".924" style="stop-color:#b67149"/><stop offset="1" style="stop-color:#c27a51"/></linearGradient><path d="M25.658 22.961c-.82.359-2.276 1.81-2.633 2.629-.254.582.044 1.863.373 2.193.827.826 5.284-3.623 4.457-4.449-.33-.328-1.613-.626-2.197-.373z" style="fill:url(#a)"/><path d="M33.297 26.187c10.635 10.617 3.405 17.833-7.23 7.218-1.619-1.612 5.614-8.83 7.23-7.218z" style="fill:#512507"/><linearGradient id="b" x1="-1697.244" x2="-1697.244" y1="669.174" y2="635.794" gradientTransform="scale(-1 1) rotate(45 -127.026 2344.408)" gradientUnits="userSpaceOnUse"><stop offset="0" style="stop-color:#a86a46"/><stop offset=".234" style="stop-color:#8d5432"/><stop offset=".543" style="stop-color:#6f3b1c"/><stop offset=".809" style="stop-color:#5d2c0f"/><stop offset="1" style="stop-color:#57270a"/></linearGradient><path d="M29.882 25.207c3.957-.97 9.168 1.146 15.962 8.61 6.611 7.273 8.457 14.185 5.578 17.056-2.876 2.87-7.527-.124-12.216-6.893-3.965-5.721-2.311-13.956-9.324-18.773z" style="fill:url(#b)"/><path d="M33.3 25.81c1.272.421 2.448 1.022 3.554 1.714a25.513 25.513 0 0 1 3.156 2.287 38.986 38.986 0 0 1 5.418 5.557 39.009 39.009 0 0 1 4.328 6.486c.61 1.157 1.15 2.36 1.553 3.628.405 1.254.718 2.596.52 4.007.279-1.413.045-2.802-.289-4.105-.36-1.303-.867-2.54-1.443-3.736-1.167-2.381-2.644-4.569-4.272-6.617-1.666-2.017-3.492-3.907-5.558-5.526-2.055-1.609-4.355-3-6.966-3.694z" style="fill:#7e4524"/><path d="M32.982 26.13c1.256.418 2.407 1.042 3.469 1.77a22.44 22.44 0 0 1 2.993 2.421c1.86 1.77 3.518 3.743 4.993 5.86 1.506 2.09 2.832 4.319 4.012 6.636a36.586 36.586 0 0 1 1.596 3.572c.467 1.223.904 2.479 1.026 3.836-.157-2.748-1.208-5.226-2.279-7.611-1.118-2.375-2.456-4.62-3.943-6.755-1.52-2.1-3.19-4.105-5.13-5.828-1.932-1.715-4.146-3.211-6.737-3.9zm-.885.147c1.037.761 1.817 1.798 2.399 2.937.606 1.13 1.05 2.356 1.45 3.599.797 2.488 1.494 5.042 2.466 7.476.995 2.418 2.262 4.724 3.984 6.65 1.696 1.938 3.807 3.481 6.136 4.62-2.226-1.299-4.219-2.933-5.838-4.889-1.629-1.948-2.875-4.209-3.825-6.618-.999-2.386-1.686-4.933-2.564-7.403-.447-1.232-.937-2.454-1.595-3.574-.665-1.109-1.525-2.106-2.613-2.798z" style="fill:#7e4524"/><path d="M33.253 26.268c1.014.742 1.817 1.713 2.462 2.784.659 1.059 1.178 2.213 1.647 3.39.935 2.36 1.738 4.797 2.718 7.155 1.005 2.341 2.185 4.611 3.714 6.616a22.184 22.184 0 0 0 5.471 5.13 25.666 25.666 0 0 1-5.156-5.379c-1.445-2.03-2.612-4.266-3.574-6.608-1.01-2.323-1.806-4.76-2.823-7.1-.517-1.163-1.08-2.31-1.792-3.354-.723-1.038-1.603-1.96-2.667-2.634z" style="fill:#7e4524"/><path d="M35.81 27.91c1.737 1.496 2.863 3.532 3.83 5.607.957 2.095 1.788 4.266 2.696 6.407.941 2.118 1.96 4.213 3.247 6.124 1.275 1.911 2.819 3.634 4.604 5.062-1.655-1.572-3.074-3.365-4.28-5.297-1.206-1.939-2.217-4.004-3.116-6.135-.943-2.108-1.767-4.29-2.805-6.36-1.035-2.06-2.309-4.06-4.175-5.409zm3.375 2.982c1.266 1.41 2.259 3.035 3.17 4.701a91.771 91.771 0 0 1 2.538 5.136c.842 1.72 1.653 3.462 2.598 5.127.941 1.664 2.003 3.266 3.312 4.637-1.163-1.497-2.099-3.158-2.975-4.85a145.625 145.625 0 0 1-2.485-5.173c-.844-1.719-1.67-3.456-2.656-5.097-.976-1.64-2.097-3.206-3.502-4.481z" style="fill:#7e4524"/><linearGradient id="c" x1="-487.245" x2="-487.245" y1="669.172" y2="635.787" gradientTransform="rotate(-45.001 -962.989 -287.15)" gradientUnits="userSpaceOnUse"><stop offset="0" style="stop-color:#c27a51"/><stop offset=".075" style="stop-color:#b67149"/><stop offset=".36" style="stop-color:#8d512e"/><stop offset=".618" style="stop-color:#6f3a1a"/><stop offset=".84" style="stop-color:#5d2c0e"/><stop offset="1" style="stop-color:#57270a"/></linearGradient><path d="M25.272 29.806c-.97 3.951 1.15 9.151 8.629 15.93 7.285 6.601 14.212 8.441 17.087 5.567 2.879-2.87-.122-7.51-6.906-12.192-5.733-3.954-13.98-2.307-18.81-9.304z" style="fill:url(#c)"/><path d="M25.88 33.219c.422 1.268 1.024 2.441 1.716 3.544a25.287 25.287 0 0 0 2.29 3.15 38.843 38.843 0 0 0 5.57 5.408 38.647 38.647 0 0 0 6.499 4.319c1.157.61 2.365 1.149 3.63 1.55 1.26.406 2.603.718 4.02.521-1.418.278-2.81.044-4.114-.289-1.308-.362-2.547-.866-3.742-1.44-2.388-1.165-4.58-2.639-6.633-4.264-2.02-1.66-3.914-3.484-5.534-5.545-1.613-2.055-3.007-4.348-3.703-6.954z" style="fill:#7e4524"/><path d="M26.198 32.898c.42 1.257 1.045 2.403 1.775 3.464a22.28 22.28 0 0 0 2.426 2.989c1.771 1.855 3.752 3.51 5.868 4.982 2.095 1.503 4.329 2.826 6.65 4.002a36.382 36.382 0 0 0 3.582 1.594c1.224.468 2.48.903 3.841 1.024-2.753-.155-5.235-1.205-7.624-2.274-2.38-1.114-4.633-2.451-6.766-3.933-2.109-1.52-4.114-3.185-5.843-5.12-1.718-1.932-3.216-4.141-3.909-6.728zm.148-.883c.763 1.036 1.802 1.815 2.943 2.397 1.131.605 2.36 1.047 3.606 1.448 2.493.795 5.051 1.489 7.491 2.459 2.42.992 4.731 2.26 6.66 3.974 1.945 1.696 3.491 3.804 4.63 6.128-1.3-2.223-2.937-4.213-4.897-5.828-1.954-1.624-4.216-2.87-6.628-3.819-2.395-.996-4.947-1.68-7.422-2.557-1.233-.447-2.457-.936-3.58-1.594-1.11-.661-2.11-1.523-2.803-2.608z" style="fill:#7e4524"/><path d="M26.339 33.17c.742 1.012 1.715 1.816 2.786 2.457 1.061.658 2.218 1.175 3.398 1.644 2.363.932 4.806 1.735 7.168 2.714 2.347 1.005 4.622 2.18 6.63 3.706a22.184 22.184 0 0 1 5.14 5.458 25.663 25.663 0 0 0-5.392-5.143c-2.032-1.443-4.272-2.606-6.621-3.567-2.323-1.008-4.768-1.803-7.11-2.818-1.166-.517-2.316-1.078-3.363-1.79-1.037-.719-1.962-1.598-2.636-2.66z" style="fill:#7e4524"/><path d="M27.98 35.725c1.5 1.733 3.54 2.857 5.621 3.821 2.098.957 4.275 1.785 6.417 2.689 2.124.939 4.222 1.956 6.135 3.242 1.918 1.273 3.644 2.812 5.072 4.593-1.573-1.65-3.369-3.065-5.307-4.27-1.938-1.204-4.008-2.213-6.146-3.11-2.11-.94-4.297-1.763-6.372-2.8-2.064-1.031-4.066-2.304-5.42-4.165zm2.99 3.368c1.414 1.263 3.04 2.253 4.71 3.161 1.677.902 3.403 1.731 5.146 2.535 1.724.837 3.47 1.65 5.135 2.592 1.671.938 3.275 1.997 4.649 3.304-1.5-1.16-3.165-2.092-4.86-2.966-1.7-.866-3.436-1.68-5.182-2.483-1.724-.841-3.464-1.668-5.108-2.646-1.645-.976-3.21-2.097-4.49-3.497z" style="fill:#7e4524"/><linearGradient id="d" x1="-487.354" x2="-487.354" y1="639.445" y2="633.134" gradientTransform="rotate(-45.001 -964.145 -289.942)" gradientUnits="userSpaceOnUse"><stop offset="0" style="stop-color:#57270a"/><stop offset=".16" style="stop-color:#5d2c0e"/><stop offset=".382" style="stop-color:#6f3a1a"/><stop offset=".64" style="stop-color:#8d512e"/><stop offset=".924" style="stop-color:#b67149"/><stop offset="1" style="stop-color:#c27a51"/></linearGradient><path d="M28.678 23.4c-1.665.667-4.545 3.543-5.215 5.204-.477 1.18.25 3.848.957 4.553 1.778 1.777 10.6-7.029 8.822-8.804-.708-.705-3.382-1.43-4.564-.953z" style="fill:url(#d)"/></svg>