<svg xmlns="http://www.w3.org/2000/svg" xml:space="preserve" style="enable-background:new 0 0 64 64" viewBox="0 0 64 64"><linearGradient id="a" x1="45.337" x2="48.13" y1="-27.227" y2="-26.245" gradientTransform="rotate(-7.001 683.894 122.834)" gradientUnits="userSpaceOnUse"><stop offset="0" style="stop-color:#17ad00"/><stop offset="1" style="stop-color:#007539"/></linearGradient><path d="M33.497 58.025c-.065-1.763 1.407-7.739 2.303-9.967.755-1.876-.653-1.828-1.734-.145-1.176 1.834-3.355 6.765-3.71 9.057l3.14 1.055z" style="fill:url(#a)"/><linearGradient id="b" x1="33.706" x2="36.804" y1="2.374" y2="2.587" gradientTransform="rotate(-4.513 680.674 130.424)" gradientUnits="userSpaceOnUse"><stop offset="0" style="stop-color:#17ad00"/><stop offset="1" style="stop-color:#007539"/></linearGradient><path d="M27.244 58.063c.16-1.76-.262-5.761-1.16-8.096-.755-1.964.826-1.76 1.957.048 1.232 1.97 1.902 6.266 2.187 8.603l-2.985-.555z" style="fill:url(#b)"/><radialGradient id="c" cx="32.197" cy="26.027" r="20.126" gradientTransform="matrix(1 0 0 .9992 0 .284)" gradientUnits="userSpaceOnUse"><stop offset="0" style="stop-color:#281a66"/><stop offset=".216" style="stop-color:#362678"/><stop offset=".54" style="stop-color:#46348c"/><stop offset=".754" style="stop-color:#4c3994"/></radialGradient><path d="M45.482 20.914c-5.632-3.095-3.248-8.93-3.248-8.93s-8.529-6.294-12.408-1.883c-10.28 1.217-10.1 10.47-7.71 10.813 0 0-13.268 8.942-.06 19.147 6.252 1.855 5.677 2.904 9.585 6.106 1.27-3.216 3.876-8.709 7.841-4.678-1.655-8.53 6.397-3.864 7.103-9.325-4.136-5.273-1.794-7.635-1.103-11.25z" style="fill:url(#c)"/><path d="M25.363 7.458c-.787-.79-1.314-4.933-1.314-4.933s-2.776 1.685-2.143 3.952c-1.724-1.427-4.027-.04-4.027-.04s.906 1.581 2.799 2.362c-1.876.276-3.117 2.674-3.117 2.674s2.43-.798 4.515-.56c3.257.371 5.129 4.504 6.501 3.058 1.084-1.142-.473-3.76-3.214-6.513zm10.65.522c.78-.801 6.347-1.635 6.347-1.635s-2.174-2.278-4.598-1.435c1.374-1.717-.417-3.609-.417-3.609s-1.639 1.004-2.282 2.794c-.518-1.645-3.303-2.463-3.303-2.463s1.158 2.078 1.135 3.973c-.037 2.961-4.375 5.142-2.625 6.194 1.382.83 3.024-1.029 5.743-3.819zm6.847 8.07c1.131-.314 6.357 1.605 6.357 1.605s-.528-2.967-3.083-3.394c2.169-.814 1.744-3.27 1.744-3.27s-1.98.08-3.569 1.301c.516-1.646-1.38-3.658-1.38-3.658s-.222 2.317-1.344 3.92c-1.752 2.505-6.715 2.313-5.836 4.035.694 1.36 3.174.553 7.111-.54zm-23.397 5.148c-1.085-.426-3.663-4.951-3.663-4.951s-1.744 2.561-.114 4.386C13.453 19.976 12 22.09 12 22.09s1.56 1.101 3.648 1.108c-1.58.947-1.595 3.586-1.595 3.586s1.842-1.627 3.851-2.185c3.14-.871 6.766 2.188 7.344.365.456-1.44-2.009-2.282-5.785-3.766zm.02 11.944c-1.183-.015-5.504-3.286-5.504-3.286s-.507 2.97 1.78 4.083c-2.341.175-2.773 2.63-2.773 2.63s1.913.47 3.84-.252c-1.05 1.425.07 3.864.07 3.864s.999-2.144 2.612-3.36c2.52-1.9 7.178-.345 6.927-2.227-.198-1.486-2.832-1.403-6.952-1.452zm25.394-.01c1.156.226 4.669 4.207 4.669 4.207s1.152-2.82-.843-4.32c2.333.248 3.297-2.082 3.297-2.082s-1.77-.803-3.818-.44c1.344-1.208.783-3.8.783-3.8s-1.452 1.923-3.3 2.825c-2.89 1.41-8.78-.01-8.949 1.88-.133 1.491 4.134.944 8.16 1.73z" style="fill:#533fa4"/><path d="M38.03 22.353c1.06 1.14 3.648-2.657 6.061-1.336.879-2.168-1.883-4.84-3.92-4.836.242 3.118-3.512 4.697-2.14 6.172zm-5.995-9.317c.798 1.301 4.964-1.443 7.053.268 1.321-1.977-.824-5.076-2.825-5.422-.422 3.103-5.261 3.47-4.228 5.154zm-2.115-1.103c1.604-.47-.288-5.326 2.084-6.983-1.79-1.82-5.67-.457-6.55 1.455 3.23 1.206 2.392 6.136 4.467 5.528zm7.135 20.674c-.396 1.444 5.913 2.744 6.155 5.279 2.46-.64 3.223-4.228 2.016-5.707-2.65 2.017-7.659-1.44-8.17.428zm.497 3.498c-1.589.727 1.282 5.865-.84 7.82 2.334 1.332 6.123-.635 6.601-2.547-3.713-.503-3.706-6.214-5.761-5.273zm-9.336 1.719c-.908-1.382-5.231 1.729-7.532-.054-1.324 2.184 1.097 5.467 3.244 5.774.318-3.373 5.462-3.931 4.288-5.72zm-3.234-13.276c-1.05-1.19-4.719 2.578-7.144 1.235-.954 2.354 1.79 5.137 3.868 5.069-.163-3.34 4.634-4.763 3.276-6.304zm3.928-7.212c1.112-1.144-3.658-3.724-2.627-6.115-2.74-.425-5.285 2.507-4.84 4.338 3.616-.743 6.028 3.258 7.467 1.777zm-.697 2.674c.05-1.521-5.45-.776-6.342-3.212-2.414 1.243-2.308 4.966-.672 6.122 2.265-2.646 6.949-.943 7.014-2.91zm3.134 9.41c-1.489-1.146-4.114 3.3-7.183 2.283-.449 2.935 3.357 5.547 5.666 5.01-1.062-3.828 3.444-5.81 1.517-7.293z" style="fill:#533fa4"/><linearGradient id="d" x1="15.809" x2="26.365" y1="57.872" y2="53.857" gradientUnits="userSpaceOnUse"><stop offset="0" style="stop-color:#7bd605"/><stop offset="1" style="stop-color:#007539"/></linearGradient><path d="M30.902 60.167c.35.771-1.233 3.662-1.896 3.134-4.24-3.37-7.374-13.099-13.203-14.426-2.18-.496-1.705-1.475.418-1.386 5.416.227 13.27 8.64 14.681 12.678z" style="fill:url(#d)"/><linearGradient id="e" x1="31.094" x2="31.094" y1="64" y2="11.547" gradientUnits="userSpaceOnUse"><stop offset=".282" style="stop-color:#4e7500"/><stop offset=".295" style="stop-color:#4e7304"/><stop offset=".531" style="stop-color:#4a5743"/><stop offset=".73" style="stop-color:#474272"/><stop offset=".882" style="stop-color:#46368e"/><stop offset=".969" style="stop-color:#453199"/></linearGradient><path d="M30.837 12.319c-.165-.756-2.282-1.108-2.136-.349 5.61 29.083-2.518 37.95.83 51.331.234.934 4.102.93 3.853 0-3.882-14.533 3.884-21.555-2.547-50.982z" style="fill:url(#e)"/><linearGradient id="f" x1="23.981" x2="28.553" y1="57.1" y2="54.955" gradientUnits="userSpaceOnUse"><stop offset="0" style="stop-color:#7bd605"/><stop offset="1" style="stop-color:#007539"/></linearGradient><path d="M32.203 63.394c.207.825-2.922.645-3.48 0-3.573-4.116-6.282-11.182-5.942-15.089.212-2.449 1.46-1.045 2.082.633 2.27 6.12 6.135 9.933 7.34 14.456z" style="fill:url(#f)"/><linearGradient id="g" x1="41.266" x2="35.511" y1="56.59" y2="53.234" gradientUnits="userSpaceOnUse"><stop offset="0" style="stop-color:#17ad00"/><stop offset=".161" style="stop-color:#15a806"/><stop offset=".365" style="stop-color:#0e9815"/><stop offset=".594" style="stop-color:#047e2f"/><stop offset=".664" style="stop-color:#007539"/></linearGradient><path d="M31.86 60.167c-.35.771 1.233 3.662 1.897 3.134 4.24-3.37 6.313-11.587 11.955-13.56 2.11-.739 1.53-1.659-.571-1.331-5.356.834-11.87 7.72-13.28 11.757z" style="fill:url(#g)"/><linearGradient id="h" x1="30.48" x2="38.679" y1="53.267" y2="59.123" gradientUnits="userSpaceOnUse"><stop offset="0" style="stop-color:#7bd605"/><stop offset="1" style="stop-color:#007539"/></linearGradient><path d="M30.366 63.394c-.207.825 2.922.645 3.48 0 3.573-4.116.348-9.069 5.029-12.9 1.603-1.312.134-1.951-1.718-.97-4.824 2.558-5.586 9.347-6.791 13.87z" style="fill:url(#h)"/><radialGradient id="i" cx="107.827" cy="25.433" r="5.564" gradientTransform="matrix(1.1137 0 0 .9731 -76.847 1.707)" gradientUnits="userSpaceOnUse"><stop offset=".085" style="stop-color:#3e2d7d"/><stop offset=".275" style="stop-color:#5a49a5"/><stop offset=".493" style="stop-color:#7563cc"/><stop offset=".694" style="stop-color:#8977e8"/><stop offset=".87" style="stop-color:#9583f9"/><stop offset="1" style="stop-color:#9987ff"/></radialGradient><path d="M46.67 25.932c.958-.866 1.15-2.161.171-2.946-.609.075-.966.272-1.235.532a3.126 3.126 0 0 0-.949-2.604c-1.034.417-.978 1.04-.936 1.89-.657-.696-1.625-1.063-2.389-.772 1.598 1.461.296 2.992 1.454 3.985-.107.315.1.84.608 1.267 1.937 1.63.878 3.458 1.999 4.47 1.307-.515 2.121-1.823 1.516-3.156 1.033.13 1.657-.224 2.658.59-.472-2.222-1.692-3.037-2.897-3.256z" style="fill:url(#i)"/><path d="M44.634 21.773c.558 1.332.699 4.053-1.457 5.137 1.435-1.163 1.968-3.065 1.457-5.137z" style="opacity:.3;fill:#3e2d7d"/><path d="M48.966 28.356c-1.276-1.525-3.885-1.505-5.391-1.742 1.23-.038 4.725.036 5.391 1.742z" style="opacity:.3;fill:#3e2d7d"/><path d="M46.825 23.485c.174 1.298-1.485 3.204-3.284 3.193 1.1-.033 3.143-1.573 3.284-3.193zm-4.715-1.249c1.187.7 2.387 2.23 1.503 3.964.326-1.469.09-2.716-1.503-3.964zm3.57 8.234c.528-1.704-.549-3.212-2.119-3.643 1.345.089 3.33 1.836 2.119 3.644z" style="opacity:.3;fill:#3e2d7d"/><linearGradient id="j" x1="228.786" x2="224.943" y1="31.375" y2="29.793" gradientTransform="rotate(-43.306 130.12 260.73)" gradientUnits="userSpaceOnUse"><stop offset="0" style="stop-color:#3e2d7d"/><stop offset=".065" style="stop-color:#48378c"/><stop offset=".27" style="stop-color:#6554b5"/><stop offset=".471" style="stop-color:#7c6ad5"/><stop offset=".663" style="stop-color:#8c7aec"/><stop offset=".844" style="stop-color:#9684fa"/><stop offset="1" style="stop-color:#9987ff"/></linearGradient><path d="M43.672 26.673c2.035 1.223.103 4.056-3.083.612 1.226-.84.946-3.027 2.42-2.746.923.175.188 1.848.663 2.134z" style="fill:url(#j)"/><path d="M41.318 27.37c1.42-.256 2.17-.545 2.55-1.087.16.552-1.126 1.376-2.55 1.087z" style="opacity:.3;fill:#3e2d7d"/><radialGradient id="k" cx="106.655" cy="17.232" r="5.647" gradientTransform="matrix(1.1137 0 0 .9731 -76.847 1.707)" gradientUnits="userSpaceOnUse"><stop offset=".085" style="stop-color:#3e2d7d"/><stop offset=".275" style="stop-color:#5a49a5"/><stop offset=".493" style="stop-color:#7563cc"/><stop offset=".694" style="stop-color:#8977e8"/><stop offset=".87" style="stop-color:#9583f9"/><stop offset="1" style="stop-color:#9987ff"/></radialGradient><path d="M48.712 19.675c-1.092-2.038-2.505-2.542-3.731-2.473.677-1.06.491-2.355-.679-2.885-.559.211-.858.475-1.044.784-.176-.977-.82-1.809-1.66-2.278-.879.644-.646 1.232-.363 2.044-.833-.52-1.873-.649-2.529-.19 1.962 1.04 1.144 2.821 2.547 3.512-.014.328.338.788.95 1.082 2.338 1.124 1.838 3.136 3.211 3.854 1.116-.803 1.527-2.255.562-3.402 1.034-.116 1.535-.602 2.736-.048z" style="fill:url(#k)"/><path d="M41.822 13.658c.921 1.157 1.82 3.69.047 5.238 1.054-1.457 1.04-3.355-.047-5.238z" style="opacity:.3;fill:#3e2d7d"/><path d="M47.893 19.01c-1.67-1.177-4.372-.449-5.895-.328 1.177-.323 4.763-1.165 5.895.328z" style="opacity:.3;fill:#3e2d7d"/><path d="M44.43 14.802c.54 1.213-.867 3.554-2.608 3.962 1.053-.288 2.935-2.363 2.608-3.962zm-4.914-.109c1.348.4 2.945 1.598 2.587 3.48-.105-1.495-.69-2.646-2.587-3.48zm5.808 7.125c.021-1.77-1.45-2.976-3.09-3.027 1.324-.228 3.742.998 3.09 3.027z" style="opacity:.3;fill:#3e2d7d"/><linearGradient id="l" x1="290.145" x2="286.361" y1="57.44" y2="55.883" gradientTransform="rotate(-58.264 131.1 259.327)" gradientUnits="userSpaceOnUse"><stop offset="0" style="stop-color:#3e2d7d"/><stop offset=".065" style="stop-color:#48378c"/><stop offset=".27" style="stop-color:#6554b5"/><stop offset=".471" style="stop-color:#7c6ad5"/><stop offset=".663" style="stop-color:#8c7aec"/><stop offset=".844" style="stop-color:#9684fa"/><stop offset="1" style="stop-color:#9987ff"/></linearGradient><path d="M42.297 18.616c2.315.708 1.26 3.894-2.804 1.308.944-1.096.047-3.144 1.551-3.216.942-.045.711 1.742 1.253 1.908z" style="fill:url(#l)"/><path d="M40.221 19.837c1.3-.578 1.941-1.031 2.153-1.643.313.495-.694 1.59-2.153 1.643z" style="opacity:.3;fill:#3e2d7d"/><radialGradient id="m" cx="102.633" cy="9.213" r="5.653" gradientTransform="matrix(1.1137 0 0 .9731 -76.847 1.707)" gradientUnits="userSpaceOnUse"><stop offset=".085" style="stop-color:#3e2d7d"/><stop offset=".275" style="stop-color:#5a49a5"/><stop offset=".493" style="stop-color:#7563cc"/><stop offset=".694" style="stop-color:#8977e8"/><stop offset=".87" style="stop-color:#9583f9"/><stop offset="1" style="stop-color:#9987ff"/></radialGradient><path d="M43.908 12.781c-.64-2.188-1.92-2.925-3.14-3.069.89-.923.982-2.228-.054-2.949-.594.112-.943.32-1.191.59a3.17 3.17 0 0 0-1.147-2.521c-1 .48-.896 1.098-.79 1.944-.708-.654-1.701-.96-2.442-.622 1.706 1.358.525 2.966 1.756 3.885-.083.32.165.832.704 1.226 2.058 1.505 1.14 3.395 2.336 4.336 1.265-.596 1.977-1.951 1.272-3.244 1.04.065 1.635-.326 2.696.424z" style="fill:url(#m)"/><path d="M38.419 5.69c.659 1.294 1.154 3.841-.914 5.056 1.342-1.249 1.582-3.02.914-5.056zm4.826 6.298c-1.39-1.443-3.95-1.181-5.48-1.189 1.206-.222 4.685-.472 5.48 1.189z" style="opacity:.3;fill:#3e2d7d"/><path d="M40.736 7.261c.273 1.284-1.237 3.29-3.032 3.39 1.095-.101 3.015-1.764 3.032-3.39zm-4.8-.951c1.238.623 2.71 2.576 1.555 4.187.56-1.415.13-3.042-1.555-4.188zm4.192 7.992c.396-1.734-.793-3.17-2.392-3.503 1.348.005 3.462 1.624 2.392 3.503z" style="opacity:.3;fill:#3e2d7d"/><linearGradient id="n" x1="253.745" x2="249.915" y1="24.285" y2="22.709" gradientTransform="rotate(-47.266 129.97 262.866)" gradientUnits="userSpaceOnUse"><stop offset="0" style="stop-color:#3e2d7d"/><stop offset=".065" style="stop-color:#48378c"/><stop offset=".27" style="stop-color:#6554b5"/><stop offset=".471" style="stop-color:#7c6ad5"/><stop offset=".663" style="stop-color:#8c7aec"/><stop offset=".844" style="stop-color:#9684fa"/><stop offset="1" style="stop-color:#9987ff"/></linearGradient><path d="M37.835 10.639c2.123 1.093.412 4.04-3.03.801 1.16-.913.713-3.078 2.204-2.89.934.118.33 1.833.826 2.088z" style="fill:url(#n)"/><path d="M35.539 11.48c1.397-.344 2.123-.678 2.461-1.242.202.54-1.017 1.442-2.461 1.242z" style="opacity:.3;fill:#3e2d7d"/><radialGradient id="o" cx="94.585" cy="4.138" r="5.843" gradientTransform="matrix(1.1137 0 0 .9731 -76.847 1.707)" gradientUnits="userSpaceOnUse"><stop offset=".085" style="stop-color:#3e2d7d"/><stop offset=".275" style="stop-color:#5a49a5"/><stop offset=".493" style="stop-color:#7563cc"/><stop offset=".694" style="stop-color:#8977e8"/><stop offset=".87" style="stop-color:#9583f9"/><stop offset="1" style="stop-color:#9987ff"/></radialGradient><path d="M31.526 2.588C31.86 1.565 31.591.872 32.668 0c-2.517.088-3.635 1.181-4.1 2.364-.766-1.122-2.146-1.543-3.185-.69-.032.622.103 1.024.331 1.34a3.681 3.681 0 0 0-3.003.51c.262 1.12.953 1.173 1.89 1.28-.884.542-1.465 1.458-1.29 2.284 1.895-1.363 3.323.223 4.625-.775.323.164.936.045 1.498-.394 2.142-1.677 3.941-.283 5.257-1.241-.32-1.415-1.596-2.469-3.165-2.09z" style="fill:url(#o)"/><path d="M23.644 3.697c1.56-.331 4.384-.15 5.165 2.224-1.002-1.658-2.805-2.378-5.165-2.224z" style="opacity:.3;fill:#3e2d7d"/><path d="M31.646.463c-1.905 1.025-2.369 3.776-2.91 5.26.188-1.253.922-4.885 2.91-5.26zm-5.722 1.315c1.45.051 3.014 2.125 2.666 3.945.17-1.12-.922-3.518-2.666-3.945z" style="opacity:.3;fill:#3e2d7d"/><path d="M23.679 6.336c.986-1.08 3.182-1.813 4.911-.614-1.543-.587-3.25-.783-4.911.614zm9.663-2.174c-1.764-.833-3.682-.046-4.445 1.469.347-1.346 2.697-3.013 4.445-1.469z" style="opacity:.3;fill:#3e2d7d"/><linearGradient id="p" x1="385.125" x2="381.14" y1="295.178" y2="293.537" gradientTransform="rotate(-123.559 128.777 245.525)" gradientUnits="userSpaceOnUse"><stop offset="0" style="stop-color:#3e2d7d"/><stop offset=".065" style="stop-color:#48378c"/><stop offset=".27" style="stop-color:#6554b5"/><stop offset=".471" style="stop-color:#7c6ad5"/><stop offset=".663" style="stop-color:#8c7aec"/><stop offset=".844" style="stop-color:#9684fa"/><stop offset="1" style="stop-color:#9987ff"/></linearGradient><path d="M28.818 5.53c1.716-1.846 4.45.607.092 3.23-.688-1.389-3.13-1.488-2.548-2.931.365-.904 2.055.133 2.456-.299z" style="fill:url(#p)"/><path d="M29.14 8.038c-.015-1.484-.19-2.294-.71-2.774.63-.066 1.291 1.38.71 2.774z" style="opacity:.3;fill:#3e2d7d"/><radialGradient id="q" cx="96.679" cy="43.382" r="5.876" gradientTransform="matrix(1.1137 0 0 .9731 -76.847 1.707)" gradientUnits="userSpaceOnUse"><stop offset=".085" style="stop-color:#3e2d7d"/><stop offset=".275" style="stop-color:#5a49a5"/><stop offset=".493" style="stop-color:#7563cc"/><stop offset=".694" style="stop-color:#8977e8"/><stop offset=".87" style="stop-color:#9583f9"/><stop offset="1" style="stop-color:#9987ff"/></radialGradient><path d="M34.207 43.357c1.316-.527 2.3-1.82 2.095-3.656-1.112 1.167-2.453 1.011-3.77 1.645.353-1.48-.782-2.603-.065-5.008-1.83.81-5.213 4.238-2.84 6.232-1.694.073-1.624-1.836-4.07-1.903-.544 1.794.626 4.28 3.03 3.875-1.09.512-2.486.974-3.146 2.875 1.63.633 3.338.555 4.478-.653.199 1.482 1.3.946 2.643 2.004 1.421-1.11.937-2.199.242-3.189 1.78 1.002 4.2.448 4.464-2.193-1.082.516-2.1.288-3.061-.029z" style="fill:url(#q)"/><path d="M25.99 41.746c.643 1.522 2.722 2.637 4.854 1.96-1.32.367-3.656-.247-4.854-1.96zm10.65 2.624c-1.91.966-3.67.536-5.711-.664 2.16 1.558 3.9 1.97 5.71.663zm-4.901-7.096c-1.353 1.288-2.123 3.93-.895 6.432-.444-2.107-.8-4.273.895-6.432zm.699 10.532c-1.99-1.281-1.09-2.134-1.509-3.939.189 1.38-.899 3.102 1.509 3.94zm-5.415-1.156c2.357-.275 3.062-1.064 3.82-2.783-.69 1.252-1.842 2.095-3.82 2.783z" style="opacity:.3;fill:#3e2d7d"/><path d="M35.976 40.757c-1.435 1.717-2.377 2.795-5.132 2.949 2.95-.559 3.314-1.582 5.132-2.95z" style="opacity:.3;fill:#3e2d7d"/><radialGradient id="r" cx="103.563" cy="24.752" r="5.876" gradientTransform="matrix(1.1137 0 0 .9731 -76.847 1.707)" gradientUnits="userSpaceOnUse"><stop offset=".085" style="stop-color:#3e2d7d"/><stop offset=".275" style="stop-color:#5a49a5"/><stop offset=".493" style="stop-color:#7563cc"/><stop offset=".694" style="stop-color:#8977e8"/><stop offset=".87" style="stop-color:#9583f9"/><stop offset="1" style="stop-color:#9987ff"/></radialGradient><path d="M41.183 26.707c2.403.405 3.573-2.081 3.029-3.875-2.446.067-2.376 1.976-4.07 1.903 2.373-1.993-1.01-5.421-2.84-6.231.717 2.405-.418 3.527-.065 5.007-1.317-.633-2.658-.478-3.77-1.644-.204 1.835.779 3.128 2.095 3.655-.961.317-1.98.545-3.061.03.264 2.64 2.684 3.194 4.464 2.193-.695.99-1.18 2.079.242 3.188 1.342-1.058 2.444-.522 2.642-2.004 1.14 1.208 2.849 1.286 4.48.653-.661-1.9-2.057-2.363-3.146-2.875z" style="fill:url(#r)"/><path d="M43.779 23.911c-.643 1.522-3.185 2.599-5.233 1.746 1.275.476 4.035-.032 5.233-1.746zM33.13 26.534c1.91.967 3.78.729 5.416-.877-1.65 1.978-3.606 2.185-5.417.877zm4.9-7.094c1.353 1.288 2.37 4.03.516 6.217.987-1.96 1.179-4.058-.516-6.217zm-.699 10.532c1.99-1.282.917-2.356 1.203-4.18-.087 1.388 1.205 3.342-1.203 4.18zm5.415-1.156c-2.357-.276-3.012-1.415-4.04-3.024.886 1.154 2.062 2.335 4.04 3.024zm-8.953-5.894c1.435 1.717 1.948 2.034 4.63 2.606-2.793-1-2.812-1.239-4.63-2.606z" style="opacity:.3;fill:#3e2d7d"/><radialGradient id="s" cx="108.874" cy="34.334" r="5.18" gradientTransform="matrix(1.1137 0 0 .9731 -76.847 1.707)" gradientUnits="userSpaceOnUse"><stop offset=".085" style="stop-color:#3e2d7d"/><stop offset=".275" style="stop-color:#5a49a5"/><stop offset=".493" style="stop-color:#7563cc"/><stop offset=".694" style="stop-color:#8977e8"/><stop offset=".87" style="stop-color:#9583f9"/><stop offset="1" style="stop-color:#9987ff"/></radialGradient><path d="M49.334 34.085c-.52-.283-.932-.344-1.318-.297.77-.706 1.135-1.665 1.06-2.553-1.095-.26-1.485.257-2.045.942-.026-.913-.525-1.746-1.322-1.952.226 2.042-1.852 2.498-1.642 3.926-.303.184-.506.711-.408 1.33.374 2.365-1.723 3.19-1.555 4.612 1.377.338 2.92-.22 3.378-1.6.714.684 1.445.762 1.658 1.963 1.18-1.998.797-3.323.011-4.175 1.348-.132 2.4-1.033 2.183-2.196z" style="fill:url(#s)"/><path d="M48.46 31.891c-.492 1.353-2.464 3.618-4.897 3.243 1.927-.094 3.853-1.34 4.897-3.243z" style="opacity:.3;fill:#3e2d7d"/><path d="M47.252 39.467c.068-1.909-1.979-3.369-2.986-4.405.985.666 3.654 2.7 2.986 4.405z" style="opacity:.3;fill:#3e2d7d"/><path d="M48.975 34.464c-.768 1.108-3.387 1.655-4.78.629.88.596 3.542.553 4.78-.63zm-2.803-3.64c.438 1.216.307 3.086-1.588 3.936 1.276-.959 1.961-2.063 1.588-3.936zm-2.952 8.432c1.598-1.03 1.81-2.813.887-4.036.985.83 1.315 3.313-.886 4.036z" style="opacity:.3;fill:#3e2d7d"/><linearGradient id="t" x1="63.878" x2="59.922" y1="29.018" y2="27.39" gradientTransform="rotate(-4.439 137.13 269.286)" gradientUnits="userSpaceOnUse"><stop offset="0" style="stop-color:#3e2d7d"/><stop offset=".065" style="stop-color:#48378c"/><stop offset=".27" style="stop-color:#6554b5"/><stop offset=".471" style="stop-color:#7c6ad5"/><stop offset=".663" style="stop-color:#8c7aec"/><stop offset=".844" style="stop-color:#9684fa"/><stop offset="1" style="stop-color:#9987ff"/></linearGradient><path d="M44.3 35.163c.734 2.103-2.742 3.216-2.826-1.268 1.54.04 2.844-1.822 3.796-.77.596.66-1.14 1.546-.97 2.038z" style="fill:url(#t)"/><path d="M41.982 34.374c1.284.604 2.07.803 2.742.596-.259.52-1.833.434-2.742-.596z" style="opacity:.3;fill:#3e2d7d"/><radialGradient id="u" cx="104.711" cy="42.295" r="5.801" gradientTransform="matrix(1.1137 0 0 .9731 -76.847 1.707)" gradientUnits="userSpaceOnUse"><stop offset=".085" style="stop-color:#3e2d7d"/><stop offset=".275" style="stop-color:#5a49a5"/><stop offset=".493" style="stop-color:#7563cc"/><stop offset=".694" style="stop-color:#8977e8"/><stop offset=".87" style="stop-color:#9583f9"/><stop offset="1" style="stop-color:#9987ff"/></radialGradient><path d="M43.846 44.528c1.187.063 2.315-.347 3.064-1.025-.545-.975-1.29-.895-2.31-.82.808-.66 1.206-1.605.824-2.327-1.685 1.597-3.579.412-4.721 1.567-.383-.09-1.005.133-1.495.639-1.873 1.93-4.113.99-5.28 2.111.675 1.235 2.28 1.96 3.854 1.323-.11.997.341 1.582-.594 2.579 2.65-.548 3.575-1.756 3.786-2.923 1.08.883 2.644 1.012 3.543.039-.115-.575-.354-.917-.671-1.163z" style="fill:url(#u)"/><path d="M45.879 43.518c-1.576.593-4.924.911-6.318-1.114 1.458 1.33 3.851 1.693 6.318 1.114z" style="opacity:.3;fill:#3e2d7d"/><path d="M38.163 47.962c1.776-1.291 1.638-3.798 1.857-5.255.1 1.18.162 4.542-1.857 5.255z" style="opacity:.3;fill:#3e2d7d"/><path d="M43.918 45.697c-1.55.222-3.912-1.291-3.976-3.02.087 1.055 2.024 2.953 3.976 3.02z" style="opacity:.3;fill:#3e2d7d"/><path d="M45.213 41.112c-.788 1.17-3.226 2.443-5.346 1.668 1.777.25 3.917-.083 5.346-1.668zm-9.732 3.782c2.07.435 3.833-.664 4.283-2.191-.048 1.295-2.06 3.278-4.283 2.191z" style="opacity:.3;fill:#3e2d7d"/><linearGradient id="v" x1="-103.177" x2="-107.119" y1="171.978" y2="170.356" gradientTransform="rotate(44.404 125.633 284.015)" gradientUnits="userSpaceOnUse"><stop offset="0" style="stop-color:#3e2d7d"/><stop offset=".065" style="stop-color:#48378c"/><stop offset=".27" style="stop-color:#6554b5"/><stop offset=".471" style="stop-color:#7c6ad5"/><stop offset=".663" style="stop-color:#8c7aec"/><stop offset=".844" style="stop-color:#9684fa"/><stop offset="1" style="stop-color:#9987ff"/></linearGradient><path d="M39.953 42.803c-1.38 2.007-4.864.271-.867-2.937 1.06 1.143 3.675.78 3.401 2.208-.17.894-2.21.26-2.534.729z" style="fill:url(#v)"/><path d="M39.015 40.57c.369 1.354.748 2.062 1.415 2.404-.655.178-1.7-1.023-1.415-2.404z" style="opacity:.3;fill:#3e2d7d"/><radialGradient id="w" cx="88.781" cy="40.351" r="5.794" gradientTransform="matrix(1.1137 0 0 .9731 -76.847 1.707)" gradientUnits="userSpaceOnUse"><stop offset=".085" style="stop-color:#3e2d7d"/><stop offset=".275" style="stop-color:#5a49a5"/><stop offset=".493" style="stop-color:#7563cc"/><stop offset=".694" style="stop-color:#8977e8"/><stop offset=".87" style="stop-color:#9583f9"/><stop offset="1" style="stop-color:#9987ff"/></radialGradient><path d="M25.196 45.378c-1.878-1.414-.687-3.194-2.04-4.148.075-.35-.21-.894-.803-1.303-2.258-1.56-1.361-3.636-2.677-4.614-1.323.687-2.023 2.178-1.216 3.552-1.111-.034-1.729.409-2.893-.368.777 2.348 2.173 3.103 3.48 3.217-.91 1.03-.951 2.444.184 3.19.629-.14.992-.377 1.245-.678a3.488 3.488 0 0 0 1.33 2.69c1.046-.553.909-1.218.76-2.13.782.684 1.855.981 2.63.592z" style="fill:url(#w)"/><path d="M21.724 45.99c-.758-1.38-1.272-4.205.88-5.59-1.378 1.398-1.68 3.408-.88 5.59z" style="opacity:.3;fill:#3e2d7d"/><path d="M16.308 39.334c1.544 1.515 4.31 1.23 5.937 1.333-1.3.165-5.018.438-5.937-1.333z" style="opacity:.3;fill:#3e2d7d"/><path d="M19.186 44.366c-.346-1.38 1.178-3.602 3.087-3.772-1.162.147-3.139 2.011-3.087 3.772zm5.159.87c-1.347-.634-2.821-2.612-2.1-4.569-.163 1.615.253 3.385 2.1 4.569zm-4.813-8.512c-.348 1.89.982 3.406 2.701 3.712-1.437.04-3.761-1.642-2.701-3.712z" style="opacity:.3;fill:#3e2d7d"/><linearGradient id="x" x1="-11.651" x2="-15.729" y1="520.904" y2="519.226" gradientTransform="rotate(130.718 114.785 288.622)" gradientUnits="userSpaceOnUse"><stop offset="0" style="stop-color:#3e2d7d"/><stop offset=".065" style="stop-color:#48378c"/><stop offset=".27" style="stop-color:#6554b5"/><stop offset=".471" style="stop-color:#7c6ad5"/><stop offset=".663" style="stop-color:#8c7aec"/><stop offset=".844" style="stop-color:#9684fa"/><stop offset="1" style="stop-color:#9987ff"/></linearGradient><path d="M22.134 40.613c-2.31-1.112-.613-4.359 3.196-.97-1.197 1.028-.627 3.357-2.225 3.203-1.002-.096-.43-1.973-.97-2.233z" style="fill:url(#x)"/><path d="M24.546 39.625c-1.475.42-2.235.806-2.57 1.428-.239-.578 1.023-1.595 2.57-1.428z" style="opacity:.3;fill:#3e2d7d"/><radialGradient id="y" cx="87.009" cy="27.501" r="5.1" gradientTransform="matrix(1.1137 0 0 .9731 -76.847 1.707)" gradientUnits="userSpaceOnUse"><stop offset=".085" style="stop-color:#3e2d7d"/><stop offset=".275" style="stop-color:#5a49a5"/><stop offset=".493" style="stop-color:#7563cc"/><stop offset=".694" style="stop-color:#8977e8"/><stop offset=".87" style="stop-color:#9583f9"/><stop offset="1" style="stop-color:#9987ff"/></radialGradient><path d="M23.159 32.42c-1.973-1.055-1.09-2.992-2.503-3.69.023-.353-.323-.835-.94-1.132-2.354-1.133-1.79-3.308-3.17-4.036-1.16.896-1.619 2.468-.665 3.668-1.058.157-1.582.694-2.792.137 1.06 2.153 2.486 2.65 3.739 2.538-.72 1.157-.564 2.542.614 3.074.576-.244.888-.536 1.086-.873A3.313 3.313 0 0 0 20.16 34.5c.914-.718.693-1.342.426-2.205.836.532 1.893.639 2.574.127z" style="fill:url(#y)"/><path d="M19.954 33.61c-.908-1.213-1.824-3.839.025-5.555-1.113 1.596-1.084 3.567-.025 5.555z" style="opacity:.3;fill:#3e2d7d"/><path d="M13.907 28.055c1.67 1.21 4.252.46 5.809.283-1.21.383-4.695 1.284-5.81-.283z" style="opacity:.3;fill:#3e2d7d"/><path d="M17.325 32.463c-.517-1.285.732-3.71 2.517-4.2-1.08.341-2.808 2.494-2.517 4.2zm5.008-.035c-1.363-.387-2.945-2.008-2.53-4.037.067 1.6.618 3.2 2.53 4.037zm-5.731-7.466c-.07 1.9 1.4 3.149 3.07 3.153-1.356.285-3.79-.956-3.07-3.153z" style="opacity:.3;fill:#3e2d7d"/><linearGradient id="z" x1="-56.881" x2="-60.912" y1="506.224" y2="504.565" gradientTransform="rotate(121.426 114.747 288.877)" gradientUnits="userSpaceOnUse"><stop offset="0" style="stop-color:#3e2d7d"/><stop offset=".065" style="stop-color:#48378c"/><stop offset=".27" style="stop-color:#6554b5"/><stop offset=".471" style="stop-color:#7c6ad5"/><stop offset=".663" style="stop-color:#8c7aec"/><stop offset=".844" style="stop-color:#9684fa"/><stop offset="1" style="stop-color:#9987ff"/></linearGradient><path d="M19.603 28.304c-2.342-.688-1.18-4.14 2.895-1.49-.993 1.205-.133 3.375-1.669 3.499-.962.077-.678-1.848-1.226-2.009z" style="fill:url(#z)"/><path d="M21.753 26.93c-1.34.66-2.007 1.166-2.24 1.83-.306-.522.75-1.729 2.24-1.83z" style="opacity:.3;fill:#3e2d7d"/><radialGradient id="A" cx="90.33" cy="12.169" r="5.061" gradientTransform="matrix(1.1137 0 0 .9731 -76.847 1.707)" gradientUnits="userSpaceOnUse"><stop offset=".085" style="stop-color:#3e2d7d"/><stop offset=".275" style="stop-color:#5a49a5"/><stop offset=".493" style="stop-color:#7563cc"/><stop offset=".694" style="stop-color:#8977e8"/><stop offset=".87" style="stop-color:#9583f9"/><stop offset="1" style="stop-color:#9987ff"/></radialGradient><path d="M24.354 9.745c-.36-.91-1.04-1.28-.648-2.452-2.161 1.325-2.448 2.679-2.101 3.77-1.393-.43-2.877-.046-3.246 1.095.37.467.744.692 1.147.807-1.11.323-1.949 1.042-2.32 1.875.948.682 1.59.374 2.483-.017-.431.837-.358 1.793.323 2.305.8-1.939 3.07-1.502 3.58-2.88.389-.043.853-.436 1.066-1.036.816-2.29 3.29-2.18 3.838-3.535-1.185-.868-2.983-.993-4.122.068z" style="fill:url(#A)"/><path d="M18.12 14.498c1.162-1.022 3.71-2.29 5.915-.956-1.941-.702-3.935-.338-5.915.956zm4.98-6.357c-1.022 1.698.463 3.997.935 5.345-.635-1.004-2.445-4.076-.934-5.345z" style="opacity:.3;fill:#3e2d7d"/><path d="M18.901 11.962c1.31-.689 4.117.028 4.973 1.524-.566-.897-3.163-2.087-4.973-1.524zm.935 4.435c.178-1.278 1.243-2.915 3.532-2.91-1.735.345-2.961 1.064-3.532 2.91zm7.122-6.419c-2.086.279-3.186 1.805-2.89 3.287-.555-1.152.364-3.532 2.89-3.287z" style="opacity:.3;fill:#3e2d7d"/><linearGradient id="B" x1="252.269" x2="248.113" y1="506.878" y2="505.168" gradientTransform="rotate(-158.891 91.459 281.013)" gradientUnits="userSpaceOnUse"><stop offset="0" style="stop-color:#3e2d7d"/><stop offset=".065" style="stop-color:#48378c"/><stop offset=".27" style="stop-color:#6554b5"/><stop offset=".471" style="stop-color:#7c6ad5"/><stop offset=".663" style="stop-color:#8c7aec"/><stop offset=".844" style="stop-color:#9684fa"/><stop offset="1" style="stop-color:#9987ff"/></linearGradient><path d="M23.848 13.238c.332-2.2 4.307-1.788 2.145 2.3-1.493-.664-3.708.487-4.118-.853-.256-.84 1.895-.932 1.973-1.447z" style="fill:url(#B)"/><path d="M25.733 14.898c-.96-1.07-1.633-1.571-2.398-1.659.515-.364 2.02.356 2.398 1.66z" style="opacity:.3;fill:#3e2d7d"/><radialGradient id="C" cx="88.138" cy="18.899" r="5.46" gradientTransform="matrix(1.1137 0 0 .9731 -76.847 1.707)" gradientUnits="userSpaceOnUse"><stop offset=".085" style="stop-color:#3e2d7d"/><stop offset=".275" style="stop-color:#5a49a5"/><stop offset=".493" style="stop-color:#7563cc"/><stop offset=".694" style="stop-color:#8977e8"/><stop offset=".87" style="stop-color:#9583f9"/><stop offset="1" style="stop-color:#9987ff"/></radialGradient><path d="M22.007 19.277c-.988-2.235 1-3.569.466-4.928-1.527.01-3.002.944-3.133 2.417-.92-.496-1.705-.39-2.23-1.52-.732 2.26.002 3.47 1.04 4.113-1.378.466-2.251 1.614-1.732 2.707.63.152 1.08.094 1.478-.056-.643.89-.794 1.934-.49 2.797 1.213-.017 1.49-.622 1.904-1.437.258.893.99 1.589 1.876 1.593-.752-1.954 1.309-2.92.729-4.274.27-.257.35-.826.092-1.412z" style="fill:url(#C)"/><path d="M17.886 24.008c.175-1.455 1.363-3.866 4.004-4.102-1.993.572-3.39 1.968-4.004 4.102zm-.644-7.761c.41 1.897 2.92 2.825 4.235 3.595-1.198-.411-4.506-1.75-4.235-3.595z" style="opacity:.3;fill:#3e2d7d"/><path d="M16.699 21.603c.524-1.283 3.314-2.22 5.03-1.557-1.07-.368-4.032.085-5.03 1.557zm3.851 2.886c-.765-1.089-1.1-2.962.67-4.272-1.094 1.263-1.533 2.52-.67 4.272zm.964-9.037c-1.413 1.41-1.184 3.22.09 4.194-1.24-.571-2.212-2.934-.09-4.194z" style="opacity:.3;fill:#3e2d7d"/><linearGradient id="D" x1="98.709" x2="94.434" y1="564.979" y2="563.22" gradientTransform="rotate(161.604 103.547 286.015)" gradientUnits="userSpaceOnUse"><stop offset="0" style="stop-color:#3e2d7d"/><stop offset=".065" style="stop-color:#48378c"/><stop offset=".27" style="stop-color:#6554b5"/><stop offset=".471" style="stop-color:#7c6ad5"/><stop offset=".663" style="stop-color:#8c7aec"/><stop offset=".844" style="stop-color:#9684fa"/><stop offset="1" style="stop-color:#9987ff"/></linearGradient><path d="M21.415 19.75c-1.297-1.887 2.061-3.849 3.279.545-1.621.344-2.518 2.502-3.78 1.703-.79-.5.805-1.806.501-2.247z" style="fill:url(#D)"/><path d="M24.041 19.95c-1.496-.274-2.368-.275-3.02.096.14-.576 1.81-.884 3.02-.096z" style="opacity:.3;fill:#3e2d7d"/><radialGradient id="E" cx="93.52" cy="33.461" r="6.328" gradientTransform="matrix(1.1137 0 0 .9731 -76.847 1.707)" gradientUnits="userSpaceOnUse"><stop offset=".085" style="stop-color:#3e2d7d"/><stop offset=".275" style="stop-color:#5a49a5"/><stop offset=".493" style="stop-color:#7563cc"/><stop offset=".694" style="stop-color:#8977e8"/><stop offset=".87" style="stop-color:#9583f9"/><stop offset="1" style="stop-color:#9987ff"/></radialGradient><path d="M28.096 34.49c-.067-.414-.582-.895-1.35-1.102-2.935-.79-2.877-3.432-4.614-3.968-1.063 1.293-1.163 3.212.222 4.39-1.143.415-1.59 1.153-3.09.775 1.753 2.257 3.48 2.516 4.854 2.11-.5 1.498.038 3.067 1.498 3.422.58-.41.853-.817.986-1.25.447 1.172 1.387 2.04 2.457 2.407.834-1.033.422-1.706-.104-2.645 1.076.431 2.288.32 2.915-.423-2.487-.785-2.009-3.221-3.774-3.716z" style="fill:url(#E)"/><path d="M28.594 40.29c-1.336-1.202-2.928-3.849-1.31-6.244-.826 2.093-.398 4.18 1.31 6.245zM20.36 35.2c2.19 1.032 4.883-.407 6.58-.956-1.254.71-4.92 2.524-6.58.957z" style="opacity:.3;fill:#3e2d7d"/><path d="M25.349 39.545c-.918-1.373.024-4.429 1.895-5.392-1.121.634-2.67 3.483-1.895 5.392zm5.598-1.148c-1.628-.146-3.742-1.492-3.811-3.931.497 1.836 1.45 3.386 3.811 3.931zm-8.383-7.37c.422 2.213 2.396 3.333 4.268 2.968-1.444.63-4.496-.267-4.268-2.968z" style="opacity:.3;fill:#3e2d7d"/><linearGradient id="F" x1="-91.262" x2="-95.885" y1="460.445" y2="458.542" gradientTransform="rotate(109.457 117.726 289.378)" gradientUnits="userSpaceOnUse"><stop offset="0" style="stop-color:#3e2d7d"/><stop offset=".065" style="stop-color:#48378c"/><stop offset=".27" style="stop-color:#6554b5"/><stop offset=".471" style="stop-color:#7c6ad5"/><stop offset=".663" style="stop-color:#8c7aec"/><stop offset=".844" style="stop-color:#9684fa"/><stop offset="1" style="stop-color:#9987ff"/></linearGradient><path d="M26.805 34.23c-2.804-.278-2.412-4.53 2.849-2.365-.795 1.614.74 3.935-.947 4.417-1.057.302-1.247-1.987-1.902-2.052z" style="fill:url(#F)"/><path d="M28.85 32.164c-1.327 1.06-1.94 1.794-2.027 2.612-.479-.536.385-2.165 2.026-2.612z" style="opacity:.3;fill:#3e2d7d"/><radialGradient id="G" cx="93.688" cy="25.152" r="7.471" gradientTransform="matrix(1.1137 0 0 .9731 -76.847 1.707)" gradientUnits="userSpaceOnUse"><stop offset=".085" style="stop-color:#3e2d7d"/><stop offset=".275" style="stop-color:#5a49a5"/><stop offset=".493" style="stop-color:#7563cc"/><stop offset=".694" style="stop-color:#8977e8"/><stop offset=".87" style="stop-color:#9583f9"/><stop offset="1" style="stop-color:#9987ff"/></radialGradient><path d="M35.086 28.152c-1.51-.636-2.02-2.611-4.987-2.876 2.193-.799 3.404-2.754 3.208-4.447-4.28.009-4.056 1.9-5.459 3.303.195-2.278-1.897-4.87-4.05-5.157-1.904 3.521.775 3.814 1.843 5.493-2.294-2.037-4.413-.89-7.062-1.041 1.05.942 3.79 3.467 6.502 2.996-1.417 1.52-3.133-.529-4.994 2.91 1.393.093 4.726 1.459 6.14-.64-.209 1.08-.203 2.428 2.095 4.94.586-1.417 2.525-3.474.976-5.884 1.944 1.042 4.244 1.408 5.788.404z" style="fill:url(#G)"/><path d="M21.837 28.745c2.001.537 5.424-.364 5.343-2.696-.015 1.427-2.757 2.909-5.343 2.696zm10.537-6.876c-2.38.428-2.76 3.017-5.096 4.18 2.932-1.046 2.652-3.184 5.096-4.18zM19.99 23.857c1.513.9 4.946 2.857 7.19 2.192-1.404.243-5.26-1.205-7.19-2.192zm13.19 4.16c-2.645-.669-3.61-2.346-5.902-1.833 1.76-.255 3.453 1.758 5.902 1.833z" style="opacity:.3;fill:#3e2d7d"/><path d="M27.987 32.018c-.894-2.341.772-4.56-1-5.97 1.234 1.16-.324 4.112 1 5.97zM24.291 20.21c.615 2.423 3.559 2.615 2.889 5.838.042-3.143-2.901-3.371-2.889-5.838z" style="opacity:.3;fill:#3e2d7d"/><radialGradient id="H" cx="100.883" cy="32.25" r="6.458" gradientTransform="matrix(1.1137 0 0 .9731 -76.847 1.707)" gradientUnits="userSpaceOnUse"><stop offset=".085" style="stop-color:#3e2d7d"/><stop offset=".275" style="stop-color:#5a49a5"/><stop offset=".493" style="stop-color:#7563cc"/><stop offset=".694" style="stop-color:#8977e8"/><stop offset=".87" style="stop-color:#9583f9"/><stop offset="1" style="stop-color:#9987ff"/></radialGradient><path d="M42.495 30.669c-3.326-1.582-3.681.498-5.32 1.285 2.017-1.732.974-3.416 1.193-5.477-.933.792-3.431 2.86-3.054 4.987-1.42-1.147.594-2.429-2.654-3.974-.128 1.084-1.53 3.645.445 4.805-1.03-.193-2.324-.226-4.797 1.496 1.343.496 3.265 2.065 5.62.922-1.054 1.487-1.47 3.271-.548 4.502.651-1.16 2.56-1.502 2.896-3.808.706 1.732 2.549 2.73 4.178 2.623.11-3.336-1.71-3.214-3.018-4.346 2.18.215 4.724-1.345 5.059-3.015z" style="fill:url(#H)"/><path d="M33.176 28.871c-.57 1.545.273 3.61 2.445 4.089-1.314-.34-2.72-2.08-2.445-4.089zm6.306 8.403c-.345-1.867-2.81-2.46-3.861-4.314.922 2.315 2.973 2.382 3.861 4.314z" style="opacity:.3;fill:#3e2d7d"/><path d="M37.916 27.565c-.905 1.155-2.872 3.627-2.295 5.395-.195-1.101 1.295-3.918 2.295-5.395zm-4.354 10.168c.714-2.043 2.383-2.896 1.955-4.698.196 1.38-1.816 2.791-1.955 4.698zm-3.696-4.158c2.271-.632 4.135.802 5.536-.54-1.148.93-3.717-.441-5.536.54zm11.43-2.555c-2.341.412-2.601 2.551-5.675 1.94 3.015.12 3.309-2.018 5.675-1.94z" style="opacity:.3;fill:#3e2d7d"/><radialGradient id="I" cx="98.763" cy="15.706" r="7.365" gradientTransform="matrix(1.1137 0 0 .9731 -76.847 1.707)" gradientUnits="userSpaceOnUse"><stop offset=".076" style="stop-color:#3e2d7d"/><stop offset=".268" style="stop-color:#5a49a5"/><stop offset=".488" style="stop-color:#7563cc"/><stop offset=".691" style="stop-color:#8977e8"/><stop offset=".868" style="stop-color:#9583f9"/><stop offset="1" style="stop-color:#9987ff"/></radialGradient><path d="M37.261 17.369c1.765-.226 3.42-1.465 3.867-3.711-1.76 1.048-3.294.444-5.098.795.965-1.651.045-3.332 1.798-5.969-2.483.405-7.797 3.452-5.721 6.549-2.044-.43-1.243-2.681-4.13-3.507-1.321 1.968-.863 5.285 2.15 5.537-1.49.276-3.325.4-4.825 2.46 1.703 1.252 3.765 1.681 5.576.591-.32 1.824 1.192 1.523 2.392 3.192 2.109-.886 1.941-2.33 1.486-3.72 1.743 1.734 4.832 1.815 6.138-1.248-1.481.284-2.608-.298-3.633-.97z" style="fill:url(#I)"/><path d="M28.087 12.942c.194 2.007 2.692 4.756 5.237 3.765-1.582.55-4.455-1.36-5.236-3.765zm11.689 6.374c-2.636.567-4.958-.151-6.452-2.487 1.397 2.786 3.806 3.49 6.453 2.487z" style="opacity:.3;fill:#3e2d7d"/><path d="M36.61 9.376c-2.094 1.12-5.433 4.621-3.286 7.453-1.092-2.493.458-5.401 3.286-7.453zm-3.126 12.748c-1.887-2.133-.124-3.505.22-5.763-.417 1.679-2.77 4.03-.22 5.763z" style="opacity:.3;fill:#3e2d7d"/><path d="M27.474 19.095c2.909.392 5.058-.148 5.85-2.313-.748 1.583-3.238 2.097-5.85 2.313z" style="opacity:.3;fill:#3e2d7d"/><path d="M40.344 14.814c-2.354 1.606-4.081 3.366-7.129 1.983 3.544 1.063 4.452-.91 7.13-1.983z" style="opacity:.3;fill:#3e2d7d"/></svg>