<svg xmlns="http://www.w3.org/2000/svg" xml:space="preserve" style="enable-background:new 0 0 64 64" viewBox="0 0 64 64"><path d="M31.386 43.429s.294 6.686 1.404 9.542c1.771.153.318 1.019-.43 1.845-2.424 2.673-10.583 2.973-9.716 2.282 2.263-1.799-1.64-1.503-.384-2.117 2.223-1.087 1.242-1.344.95-1.52-.97-.58 3.676-.894 7.895-.323 1.11.151-2.423-8.708-2.423-8.708l2.704-1.001z" style="fill:#f0882e"/><path d="M22.369 54.926c1.137-.713 1.308-1.005.841-1.394 7.311-.504 8.099.4-.841 1.394zm.523 1.95c.793-.84.05-1.17-.435-1.418 6.856-1.564 12.483-.541.435 1.418z" style="fill:#e87e23"/><path d="M21.79 57.421c-.272.188 1.073-.055 1.19-.1.283-.105.536-1.093-1.19.1zm12.115-4.147c.29.177-.4.381-.524.36-.304-.053-.644-1.065.524-.36zM21.42 55.319c-.239.139.937.084 1.034.048.238-.09.442-.914-1.035-.048zm1.096-1.897c-.222.118.773.133.862.1.216-.08.437-.789-.862-.1z" style="fill:#f0b27d"/><path d="M35.884 47.937s.294 6.687 1.404 9.543c1.772.152.318 1.018-.43 1.844-2.423 2.673-10.583 2.974-9.716 2.283 2.263-1.8-1.639-1.503-.384-2.117 2.223-1.088 1.242-1.344.95-1.52-.969-.581 3.676-.895 7.896-.323 1.11.151-2.424-8.709-2.424-8.709l2.704-1z" style="fill:#f0882e"/><path d="M26.867 59.435c1.137-.713 1.309-1.006.842-1.395 7.31-.503 8.098.4-.842 1.395zm.523 1.95c.794-.84.05-1.171-.434-1.418 6.856-1.565 12.482-.542.434 1.418z" style="fill:#e87e23"/><path d="M26.288 61.93c-.272.187 1.074-.055 1.19-.1.284-.105.536-1.093-1.19.1zm12.115-4.147c.29.176-.399.38-.524.36-.304-.053-.643-1.065.524-.36zm-12.485 2.044c-.238.14.938.085 1.035.049.238-.09.442-.915-1.035-.049zm1.097-1.897c-.222.119.773.134.861.101.216-.08.438-.79-.861-.1z" style="fill:#f0b27d"/><linearGradient id="a" x1="23.345" x2="11.36" y1="26.264" y2="21.075" gradientUnits="userSpaceOnUse"><stop offset="0" style="stop-color:#cfd8dd"/><stop offset=".598" style="stop-color:#e6e8ea"/><stop offset="1" style="stop-color:#efefef"/></linearGradient><path d="M20.842 25.096C25.152-.973 13.896.81 11.128 3.378c-.906.84-1.62 4.4-.486 5.141 1.317.86 4.4 1.627 4.701 2.52.836 2.478-.03 12.686-2.246 16.618-3.558 6.316-.178 16.38 10.801 19.816 11.645 3.643 13.5-16.317 5.423-17.048-3.288-.297-8.939-2.548-8.479-5.329z" style="fill:url(#a)"/><linearGradient id="b" x1="8.793" x2="8.793" y1="8.556" y2="6.982" gradientUnits="userSpaceOnUse"><stop offset="0" style="stop-color:#ff9a2e"/><stop offset=".465" style="stop-color:#f0882e"/></linearGradient><path d="M5.353 7.657c.545.513 1.705.087 2.71.402.53.166 1.13.04 1.917.3 1.122.372 1.916.127 1.855-.015-.335-.782.688-.925.335-1.154-.876-.565-7.134.169-6.817.466z" style="fill:url(#b)"/><path d="M6.839 7.39c2.048-.109 3.523.64 5.054-.148-1.122-.456-2.886-.93-5.054.148z" style="fill:#e67817"/><linearGradient id="c" x1="8.679" x2="8.679" y1="7.79" y2="3.378" gradientUnits="userSpaceOnUse"><stop offset="0" style="stop-color:#ff9a2e"/><stop offset="1" style="stop-color:#f0882e"/></linearGradient><path d="M11.128 3.378c-.697.246-1.062.89-2.126 1.318-.855.344-1.328.915-2.45 1.283-.486.16-1.774.578-1.519 1.788.02.095.472-.139.923-.071.043.006.007-.172.133-.138.541.146 1.593-.439 3.12-.423 1.762.018 2.906.514 3.117.119.242-.455-.982.15-.156-3.737.047-.221-.998.12-1.042-.139z" style="fill:url(#c)"/><path d="M8.138 6.234c.257-1.086 1.375-1.315 2.068-1.335C9.88 5.978 8.325 6.1 8.138 6.234z" style="fill:#e67817"/><linearGradient id="d" x1="15.822" x2="54.864" y1="38.227" y2="38.227" gradientUnits="userSpaceOnUse"><stop offset="0" style="stop-color:#cfd8dd"/><stop offset=".298" style="stop-color:#e0e4e6"/><stop offset=".642" style="stop-color:#ebeced"/><stop offset="1" style="stop-color:#efefef"/></linearGradient><path d="M29.093 48.78c6.784 1.034 10.169.47 12.246.111 8.409-1.45 13.525-6.505 13.525-6.505C42.894 44.368 41.182 25.2 27.5 27.236 13.278 29.35 10.068 45.879 29.093 48.78z" style="fill:url(#d)"/><linearGradient id="e" x1="18.469" x2="59" y1="35.557" y2="35.557" gradientUnits="userSpaceOnUse"><stop offset="0" style="stop-color:#cfd8dd"/><stop offset=".298" style="stop-color:#e0e4e6"/><stop offset=".642" style="stop-color:#ebeced"/><stop offset="1" style="stop-color:#efefef"/></linearGradient><path d="M29.796 43.471C46.888 48.166 59 37.532 59 37.532c-11.306-3.504-18.02-13.244-31.604-10.65-8.018 1.528-16.277 11.461 2.4 16.59z" style="fill:url(#e)"/><linearGradient id="f" x1="12.706" x2="30.791" y1="121.442" y2="121.442" gradientTransform="matrix(1.1911 .1265 -.1387 1.2525 36.047 -113.463)" gradientUnits="userSpaceOnUse"><stop offset="0" style="stop-color:#cfd8dd"/><stop offset=".298" style="stop-color:#e0e4e6"/><stop offset=".642" style="stop-color:#ebeced"/><stop offset="1" style="stop-color:#efefef"/></linearGradient><path d="M56.101 40.524s-8.25.74-21.259-4.826c-.272 19.079 21.26 4.826 21.26 4.826z" style="fill:url(#f)"/><linearGradient id="g" x1="42.209" x2="63.16" y1="38.283" y2="38.283" gradientTransform="rotate(-2.396 92.55 398.51)" gradientUnits="userSpaceOnUse"><stop offset="0" style="stop-color:#cfd8dd"/><stop offset=".298" style="stop-color:#e0e4e6"/><stop offset=".642" style="stop-color:#ebeced"/><stop offset="1" style="stop-color:#efefef"/></linearGradient><path d="M29.592 42.773c5.942 5.242 18.639-.463 18.639-.463-6.847-.241-7.347-6.827-15.305-6.546-4.695.164-8.487 2.46-3.334 7.01z" style="fill:url(#g)"/><linearGradient id="h" x1="9.838" x2="35.953" y1="43.507" y2="43.507" gradientTransform="rotate(1.312 103.027 380.62)" gradientUnits="userSpaceOnUse"><stop offset="0" style="stop-color:#cfd8dd"/><stop offset=".298" style="stop-color:#e0e4e6"/><stop offset=".642" style="stop-color:#ebeced"/><stop offset="1" style="stop-color:#efefef"/></linearGradient><path d="M17.695 36.552c1.724 18.335 25.88 10.463 25.88 10.463-8.434-1.88-12.097-17.557-25.88-10.463z" style="fill:url(#h)"/><linearGradient id="i" x1="23.998" x2="36.475" y1="27.987" y2="41.078" gradientUnits="userSpaceOnUse"><stop offset="0" style="stop-color:#cfd8dd"/><stop offset=".298" style="stop-color:#e0e4e6"/><stop offset=".642" style="stop-color:#ebeced"/><stop offset="1" style="stop-color:#efefef"/></linearGradient><path d="M31.06 42.583c-2.434-.682-3.571-1.828-3.571-1.828 11.14 1.982 20.104-2.798 20.104-2.798-4.467-3.527-10.774-4.798-10.774-4.798 5.36-.893 10.774 1.271 10.774 1.271s-9.273-9.132-20.08-8.176c-10.263.91-20.192 17.816 3.548 16.329z" style="fill:url(#i)"/><path d="M8.504 5.948c.118-.492.547-.558.803-.573.041.391-.616.439-.803.573z" style="fill:#82430d"/><linearGradient id="j" x1="66.59" x2="71.546" y1="-9.934" y2="-9.934" gradientTransform="matrix(-.3394 .941 .9659 .3421 51.152 -42.275)" gradientUnits="userSpaceOnUse"><stop offset="0" style="stop-color:#efefef;stop-opacity:0"/><stop offset=".358" style="stop-color:#ebeced;stop-opacity:.358"/><stop offset=".702" style="stop-color:#e0e4e6;stop-opacity:.7017"/><stop offset="1" style="stop-color:#cfd8dd"/></linearGradient><path d="M19.682 18.416c-.212 1.683-1.663 3.5-1.663 3.5s-.979-2.133-.766-3.826c.227-1.8 2.655-1.474 2.429.326z" style="fill:url(#j)"/><linearGradient id="k" x1="71.396" x2="76.353" y1="-6.99" y2="-6.99" gradientTransform="matrix(-.3394 .941 .9659 .3421 51.152 -42.275)" gradientUnits="userSpaceOnUse"><stop offset="0" style="stop-color:#efefef;stop-opacity:0"/><stop offset=".358" style="stop-color:#ebeced;stop-opacity:.358"/><stop offset=".702" style="stop-color:#e0e4e6;stop-opacity:.7017"/><stop offset="1" style="stop-color:#cfd8dd"/></linearGradient><path d="M20.894 23.946c-.211 1.683-1.663 3.5-1.663 3.5s-.978-2.133-.765-3.826c.226-1.8 2.655-1.474 2.428.326z" style="fill:url(#k)"/><linearGradient id="l" x1="72.326" x2="77.282" y1="-9.663" y2="-9.663" gradientTransform="matrix(-.3394 .941 .9659 .3421 51.152 -42.275)" gradientUnits="userSpaceOnUse"><stop offset="0" style="stop-color:#efefef;stop-opacity:0"/><stop offset=".358" style="stop-color:#ebeced;stop-opacity:.358"/><stop offset=".702" style="stop-color:#e0e4e6;stop-opacity:.7017"/><stop offset="1" style="stop-color:#cfd8dd"/></linearGradient><path d="M17.997 23.907c-.212 1.682-1.663 3.499-1.663 3.499s-.978-2.133-.765-3.826c.226-1.8 2.655-1.473 2.428.327z" style="fill:url(#l)"/><linearGradient id="m" x1="64.51" x2="69.466" y1="-12.265" y2="-12.265" gradientTransform="matrix(-.3394 .941 .9659 .3421 51.152 -42.275)" gradientUnits="userSpaceOnUse"><stop offset="0" style="stop-color:#efefef;stop-opacity:0"/><stop offset=".358" style="stop-color:#ebeced;stop-opacity:.358"/><stop offset=".702" style="stop-color:#e0e4e6;stop-opacity:.7017"/><stop offset="1" style="stop-color:#cfd8dd"/></linearGradient><path d="M18.136 15.661c-.211 1.683-1.663 3.5-1.663 3.5s-.978-2.133-.765-3.826c.226-1.8 2.655-1.474 2.428.326z" style="fill:url(#m)"/><linearGradient id="n" x1="63.934" x2="68.89" y1="-8.959" y2="-8.959" gradientTransform="matrix(-.3394 .941 .9659 .3421 51.152 -42.275)" gradientUnits="userSpaceOnUse"><stop offset="0" style="stop-color:#efefef;stop-opacity:0"/><stop offset=".358" style="stop-color:#ebeced;stop-opacity:.358"/><stop offset=".702" style="stop-color:#e0e4e6;stop-opacity:.7017"/><stop offset="1" style="stop-color:#cfd8dd"/></linearGradient><path d="M21.526 16.25c-.212 1.683-1.664 3.5-1.664 3.5s-.978-2.133-.765-3.826c.227-1.8 2.655-1.474 2.428.326z" style="fill:url(#n)"/><linearGradient id="o" x1="62.935" x2="67.891" y1="-10.974" y2="-10.974" gradientTransform="matrix(-.3394 .941 .9659 .3421 51.152 -42.275)" gradientUnits="userSpaceOnUse"><stop offset="0" style="stop-color:#efefef;stop-opacity:0"/><stop offset=".358" style="stop-color:#ebeced;stop-opacity:.358"/><stop offset=".702" style="stop-color:#e0e4e6;stop-opacity:.7017"/><stop offset="1" style="stop-color:#cfd8dd"/></linearGradient><path d="M19.919 14.621c-.212 1.683-1.663 3.5-1.663 3.5s-.979-2.133-.766-3.826c.227-1.8 2.655-1.474 2.429.326z" style="fill:url(#o)"/><linearGradient id="p" x1="51.485" x2="56.443" y1="-7.497" y2="-7.497" gradientTransform="matrix(-.2637 .965 .9899 .2644 38.597 -36.428)" gradientUnits="userSpaceOnUse"><stop offset="0" style="stop-color:#efefef;stop-opacity:0"/><stop offset=".358" style="stop-color:#ebeced;stop-opacity:.358"/><stop offset=".702" style="stop-color:#e0e4e6;stop-opacity:.7017"/><stop offset="1" style="stop-color:#cfd8dd"/></linearGradient><path d="M18.436 12.638c-.079 1.694-1.384 3.622-1.384 3.622s-1.142-2.047-1.062-3.752c.085-1.812 2.531-1.682 2.446.13z" style="fill:url(#p)"/><linearGradient id="q" x1="34.135" x2="39.095" y1="6.096" y2="6.096" gradientTransform="matrix(-.1242 .9926 1.0174 .1214 18.389 -23.026)" gradientUnits="userSpaceOnUse"><stop offset="0" style="stop-color:#efefef;stop-opacity:0"/><stop offset=".358" style="stop-color:#ebeced;stop-opacity:.358"/><stop offset=".702" style="stop-color:#e0e4e6;stop-opacity:.7017"/><stop offset="1" style="stop-color:#cfd8dd"/></linearGradient><path d="M21.374 12.828c.158 1.689-.864 3.785-.864 3.785s-1.416-1.863-1.576-3.562c-.169-1.806 2.27-2.03 2.44-.223z" style="fill:url(#q)"/><linearGradient id="r" x1="32.329" x2="37.29" y1="4.202" y2="4.202" gradientTransform="matrix(-.1242 .9926 1.0174 .1214 18.389 -23.026)" gradientUnits="userSpaceOnUse"><stop offset="0" style="stop-color:#efefef;stop-opacity:0"/><stop offset=".358" style="stop-color:#ebeced;stop-opacity:.358"/><stop offset=".702" style="stop-color:#e0e4e6;stop-opacity:.7017"/><stop offset="1" style="stop-color:#cfd8dd"/></linearGradient><path d="M19.671 10.806c.159 1.689-.863 3.784-.863 3.784s-1.417-1.862-1.576-3.56c-.17-1.807 2.27-2.03 2.44-.224z" style="fill:url(#r)"/><linearGradient id="s" x1="68.628" x2="73.584" y1="-11.109" y2="-11.109" gradientTransform="matrix(-.3394 .941 .9659 .3421 51.152 -42.275)" gradientUnits="userSpaceOnUse"><stop offset="0" style="stop-color:#efefef;stop-opacity:0"/><stop offset=".358" style="stop-color:#ebeced;stop-opacity:.358"/><stop offset=".702" style="stop-color:#e0e4e6;stop-opacity:.7017"/><stop offset="1" style="stop-color:#cfd8dd"/></linearGradient><path d="M17.855 19.932c-.211 1.682-1.663 3.5-1.663 3.5s-.978-2.133-.765-3.826c.227-1.8 2.655-1.474 2.428.326z" style="fill:url(#s)"/><linearGradient id="t" x1="67.476" x2="72.432" y1="-7.77" y2="-7.77" gradientTransform="matrix(-.3394 .941 .9659 .3421 51.152 -42.275)" gradientUnits="userSpaceOnUse"><stop offset="0" style="stop-color:#efefef;stop-opacity:0"/><stop offset=".358" style="stop-color:#ebeced;stop-opacity:.358"/><stop offset=".702" style="stop-color:#e0e4e6;stop-opacity:.7017"/><stop offset="1" style="stop-color:#cfd8dd"/></linearGradient><path d="M21.472 19.99c-.212 1.683-1.663 3.5-1.663 3.5s-.978-2.133-.765-3.826c.226-1.8 2.654-1.474 2.428.326z" style="fill:url(#t)"/><linearGradient id="u" x1="70.151" x2="75.108" y1="-8.916" y2="-8.916" gradientTransform="matrix(-.3394 .941 .9659 .3421 51.152 -42.275)" gradientUnits="userSpaceOnUse"><stop offset="0" style="stop-color:#efefef;stop-opacity:0"/><stop offset=".358" style="stop-color:#ebeced;stop-opacity:.358"/><stop offset=".702" style="stop-color:#e0e4e6;stop-opacity:.7017"/><stop offset="1" style="stop-color:#cfd8dd"/></linearGradient><path d="M19.457 22.116c-.212 1.682-1.663 3.5-1.663 3.5s-.978-2.133-.765-3.826c.226-1.8 2.654-1.474 2.428.326z" style="fill:url(#u)"/><path d="M15.683 4.161c.125 1.273-1.77 1.321-2.132.419.039-1.517 2.034-1.41 2.132-.419z" style="fill:#e67817"/><path d="M15.59 4.178c.114 1.128-1.678 1.162-2.007.362.12-1.214 1.917-1.24 2.006-.362z" style="fill:#1a1626"/><path d="M15.373 3.9c.32 1.138-1.257 1.453-1.592.559-.312-.831 1.402-1.237 1.592-.559z" style="fill:#38363d"/><path d="M14.864 4.298c-.108.448-.767.279-.66-.17.107-.446.766-.277.66.17z" style="fill:#1a1626"/><path d="M15.018 3.974c-.06.26-.425.162-.366-.099.06-.26.425-.161.366.099z" style="fill:#6e8189"/><path d="M15.617 4.197c.027-.974-1.951-1.18-2.034.343.352-.981 1.804-1.327 2.034-.343z" style="fill:#e67817"/></svg>