<svg xmlns="http://www.w3.org/2000/svg" xml:space="preserve" style="enable-background:new 0 0 64 64" viewBox="0 0 64 64"><path d="M25.43 13.37c-11.67 6.34 2.27 20.32 4.71 12.42 0-4.24-2.3-10.69-4.71-12.42z" style="fill:#cf5248"/><linearGradient id="a" x1="25.831" x2="38.573" y1="13.042" y2="13.042" gradientUnits="userSpaceOnUse"><stop offset=".151" style="stop-color:#e6dcd8"/><stop offset=".385" style="stop-color:#e4d8d4"/><stop offset=".61" style="stop-color:#ddcec9"/><stop offset=".831" style="stop-color:#d2bcb5"/><stop offset="1" style="stop-color:#c7a9a1"/></linearGradient><path d="M38.25 20.83c-.21-.13-.44-.44-.55-.41-.2.05-.4-.22-.39-.42.01-.16-.37-.53-.44-.53-.13.01-.27-.18-.23-.29.02-.07-.51-.86-.61-.86-.13-.01-.24-.17-.23-.27.01-.08-.41-.76-.47-.77-.16-.03-.25-.23-.24-.36.02-.16-.11-.47-.2-.49-.13-.04-.12-.3-.03-.43.04-.06.06-.55-.04-.68-.07-.09-.08-.27-.02-.33.1-.09.02-.65-.07-.7-.18-.1-.13-.36-.02-.46.21-.21.15-.56.01-.7-.18-.17-.09-.56 0-.69.2-.32.15-1.31.04-1.4-.17-.13-.1-.41.02-.58.1-.15.12-.76.01-.87-.13-.13-.09-.38.03-.52.11-.13.07-.64-.02-.76-.17-.22-.11-.56.04-.79.02-.03.22-1.08.11-1.15-.14-.09-.15-.39.02-.49.11-.07.18-1.06.08-1.12-.14-.09-.14-.35.01-.44.12-.07.09-.49-.04-.54-.13-.05 0-.24 0-.36.02-1.93-5.63-1.88-5.66 0 0 .12.14.31 0 .36-.13.05-.1.69.01.75.15.08.15.35.01.44-.1.06-.02 1.01.09 1.07.17.11.17.4.02.49-.11.07 0 .67.02.71.15.23.21.56.04.79-.09.12-.09.9.02 1.03.11.14.16.39.02.52-.11.11-.09 1.02.01 1.17.11.17.18.45.02.58-.12.09-.13.61.07.92.08.13.18.52 0 .69-.14.13-.23.65-.02.87.11.11.16.36-.02.46-.09.05-.17.61-.07.7.06.06.05.24-.02.33-.1.13-.08.62-.04.68.09.13.1.39-.03.43-.09.03-.22.34-.2.49.01.12-.08.33-.24.36-.07.01-.48.69-.47.77.01.1-.1.27-.23.27-.1 0-.63.79-.61.86.04.11-.1.3-.23.29-.07-.01-.44.37-.44.53.01.2-.18.47-.39.42-.11-.03-.34.28-.55.41-.89.52.3 3.02 1.06 3.25.28.08 2.07-1.33 2.03-1.47-.05-.2.23-.45.45-.39.12.03.77-.8.74-.89-.05-.13.11-.36.26-.36.11 0 .43-.6.38-.75-.03-.08.12-.28.2-.31.13-.04.44-.51.37-.65-.05-.1.01-.29.14-.32.12-.03.7-.52.81-.49.13.03.19.21.14.32-.07.14.19.8.32.85.08.03.22.23.2.31-.05.15.22.88.33.88.16 0 .32.23.26.36-.04.09.73 1.1.85 1.06.22-.06.5.19.45.39-.03.14 1.75 1.55 2.03 1.47.8-.22 2-2.71 1.1-3.24z" style="fill:url(#a)"/><path d="M31.12 3.82s3.68.68 3.91-.03c-.05-.08-.01-.29-.01-.29-.28.6-3.9.32-3.9.32zm1.11 12.1s-1.89-.3-2.63-.93c0 0 .06.19-.02.33.28.93 2.65.6 2.65.6z" style="fill:#dbc2ba"/><path d="M29.31 16.92s-.03.25-.24.36c.31.41.7 2.1 2.58 1.98 0-.19.11-.31.11-.31-1.94.01-2.14-1.77-2.45-2.03zm-.72 1.13s-.02.17-.23.27c.31.41.82 2.02 2.71 1.9.06-.19.16-.29.16-.29-1.94 0-2.32-1.62-2.64-1.88zm-.83 1.14s-.02.18-.23.29c.31.42.99 1.98 2.91 1.86.01-.24.24-.36.24-.36-1.97 0-2.6-1.53-2.92-1.79zm-.67.87s-.08.31-.39.37c.31.43.4 1.89 2.55 2.19.01-.24.41-.39.41-.39-2.03-.23-2.25-1.9-2.57-2.17zm2.3-15.52s.13.24.01.44c.29.79 5.41.59 5.65-.22-.12-.2.01-.44.01-.44-1.34.96-4.37 1.01-5.67.22z" style="fill:#c7a9a1"/><path d="M31.68 6.82s2.97.45 3.27-.45c-.13-.22.02-.49.02-.49-1.24.92-3.29.94-3.29.94z" style="fill:#dbc2ba"/><path d="M29.54 7.25s.17.44.1.68c.34.87 4.89 1.17 5.09.27-.07-.24.1-.68.1-.68-1.13 1.21-4.2.75-5.29-.27z" style="fill:#c7a9a1"/><path d="M29.61 9.09s.11.28.02.49c.23.94 2.56.43 2.56.43s-1.55.03-2.58-.92z" style="fill:#dbc2ba"/><path d="M29.65 10.79s.1.34-.01.54c.33 1.02 4.88.76 5.11-.3-.1-.21-.01-.54-.01-.54-.79 1.09-4.3 1.4-5.09.3z" style="fill:#c7a9a1"/><path d="M31.76 13.21s2.67.72 2.92-.13c-.08-.14.01-.6.01-.6-.31.85-2.93.73-2.93.73z" style="fill:#dbc2ba"/><path d="M29.7 13.82s.11.27 0 .45c.38.77 4.81.78 5.02 0-.11-.18 0-.45 0-.45-.5.63-4.5.65-5.02 0zm5.19 2.61c-.14-.14-.04-.41-.04-.41-.78 1.2-4.46 1.2-5.3 0 0 0 .1.27-.04.41.41 1.42 5.23 1.43 5.38 0z" style="fill:#c7a9a1"/><path d="M35.34 17.28c-.21-.1-.24-.36-.24-.36-.32.26-.53 1.54-2.47 1.54 0 0 .1.12.11.31 1.87.11 2.29-1.08 2.6-1.49zm.7 1.04c-.21-.11-.23-.27-.23-.27-.32.26-.77 1.58-2.72 1.58 0 0 .1.1.16.29 1.9.12 2.48-1.18 2.79-1.6zm.84 1.16c-.21-.11-.23-.29-.23-.29-.32.27-1.07 1.62-3.03 1.62 0 0 .23.12.24.36 1.9.11 2.71-1.27 3.02-1.69zm.44.58c-.32.27-.54 1.94-2.57 2.16 0 0 .4.15.41.39 2.15-.29 2.24-1.76 2.55-2.19-.31-.06-.39-.36-.39-.36z" style="fill:#c7a9a1"/><path d="M8.12 59.29c-.17 1.39 14.75 2.82 18-1.65 11.98-16.51-15.57-18.39-18 1.65z" style="fill:#cf5248"/><linearGradient id="b" x1="-562" x2="-549.197" y1="249.256" y2="249.256" gradientTransform="matrix(1 0 0 -1 564 300)" gradientUnits="userSpaceOnUse"><stop offset="0" style="stop-color:#ff8a8a"/><stop offset=".237" style="stop-color:#fa8382"/><stop offset=".607" style="stop-color:#ed716c"/><stop offset="1" style="stop-color:#db574d"/></linearGradient><path d="M5.12 39.49c-2.34 1.34-.95 7.07-1.98 9.94C-.88 60.55 6.45 67.1 14.39 57 17 53.66 6.48 39.7 5.12 39.49z" style="fill:url(#b)"/><linearGradient id="c" x1="-559.198" x2="-533.237" y1="255.236" y2="255.236" gradientTransform="matrix(1 0 0 -1 564 300)" gradientUnits="userSpaceOnUse"><stop offset="0" style="stop-color:#ff8a8a"/><stop offset=".578" style="stop-color:#e96a64"/><stop offset="1" style="stop-color:#db574d"/></linearGradient><path d="M6.11 35.26c-1.22.78-1.55 2.63-1.13 4.5C10.5 64.3 28.5 59.4 30.53 45.24c2.98-20.82-23.06-9.77-24.42-9.98z" style="fill:url(#c)"/><linearGradient id="d" x1="-558.203" x2="-533.02" y1="271.733" y2="271.733" gradientTransform="matrix(1 0 0 -1 564 300)" gradientUnits="userSpaceOnUse"><stop offset="0" style="stop-color:#ff8a8a"/><stop offset=".237" style="stop-color:#fa8382"/><stop offset=".607" style="stop-color:#ed716c"/><stop offset="1" style="stop-color:#db574d"/></linearGradient><path d="M10.17 27.39c-1.33 3.23-4.04 3.45-4.34 6.94-1 11.67 25.88 11.68 25.14 4.62-.59-5.58.83-12.45-1.88-14.7-5.42-4.49-6.3-5.66-3.18-9.73 1.97-2.57-8.44-4.9-15.74 12.87z" style="fill:url(#d)"/><path d="M37.22 36.96c15.3-.09 18.95 22.31 12.19 23.73-6.56 1.38-9.92-.72-11.05-3.08-2.01-4.19 2.04-12.3-1.14-20.65z" style="fill:#cf5248"/><linearGradient id="e" x1="-515.856" x2="-502" y1="252.576" y2="252.576" gradientTransform="matrix(1 0 0 -1 564 300)" gradientUnits="userSpaceOnUse"><stop offset="0" style="stop-color:#ff8a8a"/><stop offset=".237" style="stop-color:#fa8382"/><stop offset=".607" style="stop-color:#ed716c"/><stop offset="1" style="stop-color:#db574d"/></linearGradient><path d="M57.33 33.17c3.53-1.71 7.93 28.82 1.03 28.58-10.22-.36-7.69-3.25-9.83-2.75-1.14-4.51-.21-21.46 8.8-25.83z" style="fill:url(#e)"/><linearGradient id="f" x1="-530.317" x2="-505.64" y1="264.068" y2="264.068" gradientTransform="matrix(1 0 0 -1 564 300)" gradientUnits="userSpaceOnUse"><stop offset="0" style="stop-color:#ff8a8a"/><stop offset=".237" style="stop-color:#fa8382"/><stop offset=".607" style="stop-color:#ed716c"/><stop offset="1" style="stop-color:#db574d"/></linearGradient><path d="M51.7 18.14c1.93 2.9-.05 3.92 5.54 12.3 2.61 3.92.67 17.3-5.85 26.67-4.31 6.19-12.36.92-10.36-2.57 8.93-15.54-2.05-13.97-5.22-17.56-2.82-3.2-2.58-8.48-.76-11.52 3.13-5.21 3.22-6.35 3.13-9.94-.09-3.25 6.96-7.25 13.52 2.62z" style="fill:url(#f)"/></svg>