<svg xmlns="http://www.w3.org/2000/svg" xml:space="preserve" style="enable-background:new 0 0 64 64" viewBox="0 0 64 64"><linearGradient id="a" x1="40.889" x2="40.889" y1="35.778" y2="20.478" gradientUnits="userSpaceOnUse"><stop offset="0" style="stop-color:#825538"/><stop offset=".598" style="stop-color:#9e6a47"/><stop offset="1" style="stop-color:#b37a52"/></linearGradient><path d="M38.188 35.685c9.05-5.892 7.595-16.194 6.485-15.13-3.533 3.381-7.151 5.128-8.277 9.917-.492 2.09.656 5.952 1.792 5.213z" style="fill:url(#a)"/><linearGradient id="b" x1="199.101" x2="209.322" y1="63.505" y2="63.505" gradientTransform="matrix(1.0374 -.3692 .5289 .8524 -203.987 49.542)" gradientUnits="userSpaceOnUse"><stop offset="0" style="stop-color:#3b2619"/><stop offset=".428" style="stop-color:#573825;stop-opacity:.5715"/><stop offset="1" style="stop-color:#825538;stop-opacity:0"/></linearGradient><path d="M38.955 34.048c6.18-4.16 6.106-12.487 5.083-11.559-6.917 6.264-6.211 12.314-5.083 11.559z" style="fill:url(#b)"/><linearGradient id="c" x1="23.11" x2="23.11" y1="35.778" y2="20.478" gradientUnits="userSpaceOnUse"><stop offset="0" style="stop-color:#825538"/><stop offset=".598" style="stop-color:#9e6a47"/><stop offset="1" style="stop-color:#b37a52"/></linearGradient><path d="M25.811 35.685c-9.048-5.892-7.594-16.194-6.484-15.13 3.533 3.381 7.151 5.128 8.277 9.917.492 2.09-.655 5.952-1.793 5.213z" style="fill:url(#c)"/><linearGradient id="d" x1="109.741" x2="119.962" y1="24.8" y2="24.8" gradientTransform="matrix(-1.0374 -.3692 -.5289 .8524 154.813 49.542)" gradientUnits="userSpaceOnUse"><stop offset="0" style="stop-color:#3b2619"/><stop offset=".428" style="stop-color:#573825;stop-opacity:.5715"/><stop offset="1" style="stop-color:#825538;stop-opacity:0"/></linearGradient><path d="M25.045 34.048c-6.18-4.16-6.106-12.487-5.083-11.559 6.917 6.264 6.211 12.314 5.083 11.559z" style="fill:url(#d)"/><linearGradient id="e" x1="53.331" x2="43.928" y1="27.552" y2=".614" gradientUnits="userSpaceOnUse"><stop offset="0" style="stop-color:#634c39"/><stop offset=".229" style="stop-color:#6c5440"/><stop offset=".608" style="stop-color:#856b53"/><stop offset="1" style="stop-color:#a6896b"/></linearGradient><path d="M58.17 3.404c-1.52-1.181-2.184-.57-.8 1.587 3.43 5.35 1.95 6.471-3.388 4.1-1.859-.825-2.309.037-.903 1.811 5.035 6.355.828 11.569-3.52 7.527-1.054-.98-1.707-.589-.986.88 2.742 5.587 1.213 9.431-.15 10.422-4.334 3.15-6.964 2.55-8.56 2.237 2.546 5.679 14.012 1.505 19.678-5.298 2.842-3.413 5.86-17.643-1.37-23.266z" style="fill:url(#e)"/><linearGradient id="f" x1="38.267" x2="65.117" y1="33.572" y2="10.496" gradientUnits="userSpaceOnUse"><stop offset="0" style="stop-color:#634c39"/><stop offset=".12" style="stop-color:#7a614a"/><stop offset=".266" style="stop-color:#8d7359"/><stop offset=".434" style="stop-color:#9b7f63"/><stop offset=".64" style="stop-color:#a48769"/><stop offset="1" style="stop-color:#a6896b"/></linearGradient><path d="M39.126 35.961c-.832.622-1.356-6.49 1.13-4.316 1.339 1.17 5.575 1.091 9.688-1.853 2.188-1.566 2.232-3.796.695-6.836-.692-1.37-.2-2.417.93-.941 4.091 5.347 6.212 3.594 1.26-5.429-1.505-2.743-.621-4.076 1.317-1.7 5.72 7.015 6.582 3.327 1.819-5.878-1.264-2.442-.55-3.469 1.133-1.909 4.834 4.482 5.035 4.19 3.27-4.249-.712-3.404.045-3.662 1.127-1.289 5.146 11.292 1.314 25.535-2.141 28.52-9.203 7.95-17.805 4.07-20.228 5.88z" style="fill:url(#f)"/><linearGradient id="g" x1="143.181" x2="133.778" y1="27.552" y2=".614" gradientTransform="matrix(-1 0 0 1 153.85 0)" gradientUnits="userSpaceOnUse"><stop offset="0" style="stop-color:#634c39"/><stop offset=".229" style="stop-color:#6c5440"/><stop offset=".608" style="stop-color:#856b53"/><stop offset="1" style="stop-color:#a6896b"/></linearGradient><path d="M5.83 3.404c1.52-1.181 2.184-.57.8 1.587-3.43 5.35-1.95 6.471 3.388 4.1 1.859-.825 2.309.037.903 1.811-5.035 6.355-.828 11.569 3.52 7.527 1.054-.98 1.707-.589.986.88-2.742 5.587-1.213 9.431.15 10.422 4.334 3.15 6.964 2.55 8.56 2.237-2.546 5.679-14.012 1.505-19.678-5.298C1.617 23.257-1.4 9.027 5.83 3.404z" style="fill:url(#g)"/><linearGradient id="h" x1="128.116" x2="154.966" y1="33.572" y2="10.496" gradientTransform="matrix(-1 0 0 1 153.85 0)" gradientUnits="userSpaceOnUse"><stop offset="0" style="stop-color:#634c39"/><stop offset=".12" style="stop-color:#7a614a"/><stop offset=".266" style="stop-color:#8d7359"/><stop offset=".434" style="stop-color:#9b7f63"/><stop offset=".64" style="stop-color:#a48769"/><stop offset="1" style="stop-color:#a6896b"/></linearGradient><path d="M24.874 35.961c.832.622 1.356-6.49-1.13-4.316-1.339 1.17-5.575 1.091-9.688-1.853-2.188-1.566-2.232-3.796-.695-6.836.692-1.37.2-2.417-.93-.941-4.092 5.347-6.212 3.594-1.26-5.429 1.505-2.743.621-4.076-1.317-1.7-5.72 7.015-6.583 3.327-1.819-5.878C9.3 6.566 8.585 5.54 6.902 7.1c-4.834 4.482-5.035 4.19-3.27-4.249.712-3.404-.045-3.662-1.127-1.289-5.146 11.292-1.315 25.535 2.141 28.52 9.203 7.95 17.805 4.07 20.228 5.88z" style="fill:url(#h)"/><path d="M27.525 61.356c0 3.525 8.95 3.525 8.95 0 0-2.636-8.95-2.636-8.95 0z" style="fill:#5e3d2a"/><linearGradient id="i" x1="32" x2="32" y1="58.094" y2="28.733" gradientUnits="userSpaceOnUse"><stop offset="0" style="stop-color:#825538"/><stop offset=".278" style="stop-color:#86583a"/><stop offset=".575" style="stop-color:#936241"/><stop offset=".879" style="stop-color:#a8724c"/><stop offset="1" style="stop-color:#b37a52"/></linearGradient><path d="M38.247 30.583c-2.55-1.007-9.944-1.007-12.494 0-6.279 2.48-3.365 9.457-4.162 13.4-.905 4.47 4.35 6.644 4.35 9.899 0 5.616 12.118 5.616 12.118 0 0-3.255 5.254-5.43 4.35-9.9-.797-3.942 2.117-10.92-4.162-13.399z" style="fill:url(#i)"/><linearGradient id="j" x1="32" x2="32" y1="57.056" y2="29" gradientUnits="userSpaceOnUse"><stop offset="0" style="stop-color:#825538"/><stop offset="1" style="stop-color:#b37a52"/></linearGradient><path d="M38.188 37.268c4.001-5.508 3.153-5.24-1.52-7.646-1.611-.83-7.725-.83-9.336 0-4.673 2.405-5.521 2.138-1.52 7.646 6.447 8.877-1.561 12.865.224 17.27 1.36 3.357 10.568 3.357 11.928 0 1.785-4.405-6.223-8.393.224-17.27z" style="fill:url(#j)"/><linearGradient id="k" x1="32" x2="32" y1="63.242" y2="50.87" gradientUnits="userSpaceOnUse"><stop offset="0" style="stop-color:#825538"/><stop offset=".771" style="stop-color:#9e6a46"/><stop offset="1" style="stop-color:#a7714b"/></linearGradient><path d="M37.297 50.97c-2.106-.677-3.167 2.302-5.297 2.302s-3.19-2.98-5.298-2.302c-1.292.415-1.276 5.043-.88 7.642.941 6.173 11.415 6.173 12.356 0 .397-2.6.412-7.227-.88-7.642z" style="fill:url(#k)"/><linearGradient id="l" x1="37.974" x2="37.974" y1="28.896" y2="20.351" gradientTransform="matrix(.9026 .0088 .0088 .951 4.745 17.884)" gradientUnits="userSpaceOnUse"><stop offset="0" style="stop-color:#825538;stop-opacity:0"/><stop offset="1" style="stop-color:#825538"/></linearGradient><path d="M36.295 41.114c-.385 2.22.614 4.256 2.246 4.547 1.616.29 3.256-1.272 3.64-3.493.385-2.224-.614-4.26-2.238-4.56-1.623-.281-3.264 1.286-3.648 3.506z" style="fill:url(#l)"/><radialGradient id="m" cx="39.148" cy="41.362" r="1.888" fx="39.876" fy="40.465" gradientTransform="matrix(1 0 0 1.2609 0 -10.793)" gradientUnits="userSpaceOnUse"><stop offset=".043" style="stop-color:#413f4a"/><stop offset=".284" style="stop-color:#3d3a46"/><stop offset=".558" style="stop-color:#302d3a"/><stop offset=".847" style="stop-color:#1a1626"/></radialGradient><path d="M37.325 41.214c-.148 1.319.545 2.457 1.556 2.54 1.001.085 1.944-.917 2.09-2.236.148-1.322-.545-2.46-1.551-2.548-1.006-.08-1.948.925-2.096 2.244z" style="fill:url(#m)"/><path d="M40.508 40.103c.04.526-.743.587-.784.061-.04-.524.743-.585.784-.06z" style="fill:#6e8189"/><linearGradient id="n" x1="114.251" x2="114.251" y1="28.189" y2="19.644" gradientTransform="matrix(-.9026 .0088 -.0088 .951 128.098 17.884)" gradientUnits="userSpaceOnUse"><stop offset="0" style="stop-color:#825538;stop-opacity:0"/><stop offset="1" style="stop-color:#825538"/></linearGradient><path d="M27.705 41.114c.385 2.22-.614 4.256-2.246 4.547-1.616.29-3.256-1.272-3.64-3.493-.385-2.224.614-4.26 2.238-4.56 1.623-.281 3.264 1.286 3.648 3.506z" style="fill:url(#n)"/><radialGradient id="o" cx="107.991" cy="41.362" r="1.888" fx="108.719" fy="40.465" gradientTransform="matrix(-1 0 0 1.2609 132.843 -10.793)" gradientUnits="userSpaceOnUse"><stop offset=".043" style="stop-color:#413f4a"/><stop offset=".284" style="stop-color:#3d3a46"/><stop offset=".558" style="stop-color:#302d3a"/><stop offset=".847" style="stop-color:#1a1626"/></radialGradient><path d="M26.675 41.214c.148 1.319-.545 2.457-1.556 2.54-1.001.085-1.944-.917-2.09-2.236-.148-1.322.545-2.46 1.551-2.548 1.006-.08 1.948.925 2.096 2.244z" style="fill:url(#o)"/><path d="M23.492 40.103c-.04.526.743.587.784.061.04-.524-.743-.585-.784-.06z" style="fill:#6e8189"/><path d="M35.967 59.033c.35-1.943-2.453.803-2.07 2.033 1.03-1.327 1.914-1.15 2.07-2.033zm-7.934 0c-.35-1.943 2.458.803 2.07 2.033-1.03-1.327-1.909-1.15-2.07-2.033z" style="fill:#5e3d2a"/></svg>