<svg xmlns="http://www.w3.org/2000/svg" xml:space="preserve" style="enable-background:new 0 0 64 64" viewBox="0 0 64 64"><path d="M36.86 37.6C31.33 64.32 59.5 61.95 59.5 61.95S46.89 41.8 36.86 37.6z" style="fill:#449c00"/><path d="M36.86 37.6c8.79 5.67 22.65 24.35 22.65 24.35S65.35 33.1 36.86 37.6z" style="fill:#56ab15"/><path d="M39.35 39.43c2.16-.83 4.37-1.17 6.43-1.2 2.05.01 3.96.39 5.48 1.2-1.7-.58-3.56-.93-5.59-.91-1-.01-2.04.08-3.1.22-1.06.16-2.14.37-3.22.69zm3.4 3.03c2.45-1.01 4.98-1.42 7.28-1.35 1.14.05 2.23.23 3.22.55.98.32 1.85.79 2.6 1.36-1.69-.95-3.68-1.56-5.95-1.62-1.12-.05-2.3.03-3.5.2-1.19.19-2.42.45-3.65.86zm3.46 3.52c2.45-.72 4.89-.9 7.08-.65 1.09.15 2.12.41 3.01.83.9.41 1.66.98 2.27 1.66-1.42-1.18-3.28-1.96-5.44-2.21-1.06-.15-2.2-.16-3.36-.1-1.15.07-2.34.21-3.56.47zm3.86 4.28c1.94-.27 3.79-.15 5.46.22.82.21 1.61.48 2.29.86.7.37 1.28.86 1.75 1.42-1.15-.95-2.59-1.62-4.23-1.99-.8-.21-1.67-.33-2.55-.42-.87-.07-1.78-.12-2.72-.09zm3.51 4.16c1.41.01 2.67.36 3.77.87.53.28 1.03.59 1.44.99.42.39.73.86.95 1.38a6.88 6.88 0 0 0-2.62-2.1c-.52-.27-1.09-.48-1.68-.67-.6-.19-1.21-.35-1.86-.47z" style="fill:#5fbd17"/><path d="M39.35 39.43c-1.37 1.84-2.15 3.84-2.54 5.76-.35 1.93-.23 3.82.46 5.44-.39-1.74-.48-3.58-.1-5.48.16-.95.45-1.9.81-2.86.37-.95.8-1.92 1.37-2.86zm3.4 3.03c-1.73 2.24-2.81 4.69-3.3 7-.22 1.16-.28 2.28-.16 3.34.12 1.05.43 2.02.89 2.89-.66-1.89-.86-4.01-.38-6.29.21-1.13.6-2.29 1.09-3.46.5-1.16 1.1-2.33 1.86-3.48zm3.46 3.52c-1.46 2.35-2.35 4.8-2.7 7.08-.14 1.13-.15 2.23.04 3.22a6.1 6.1 0 0 0 1.14 2.62c-.87-1.67-1.17-3.71-.83-5.95.14-1.11.45-2.27.84-3.44.41-1.16.89-2.35 1.51-3.53zm3.86 4.28c-.98 1.89-1.53 3.79-1.76 5.58-.09.89-.1 1.75.03 2.55.12.8.4 1.52.79 2.14-.54-1.42-.69-3.05-.48-4.8.08-.87.28-1.77.51-2.69.26-.91.55-1.84.91-2.78zm3.51 4.16c-.47 1.54-.54 2.99-.37 4.28.11.63.28 1.24.57 1.75.27.52.66.95 1.15 1.28-.72-.89-1.18-1.98-1.35-3.25-.12-.61-.14-1.28-.14-1.96.01-.67.04-1.37.14-2.1z" style="fill:#56ab15"/><path d="M26.63 24.76c26.6 6.08 24.8-22.14 24.8-22.14s-20.4 12.2-24.8 22.14z" style="fill:#449c00"/><path d="M26.63 24.76c5.85-8.67 24.8-22.14 24.8-22.14s-28.72-6.44-24.8 22.14z" style="fill:#56ab15"/><path d="M28.51 22.31c-.79-2.18-1.09-4.39-1.07-6.45.05-2.04.47-3.95 1.31-5.45-.62 1.69-1 3.55-1.02 5.57-.04 1 .03 2.04.16 3.1s.32 2.14.62 3.23zm3.1-3.34c-.96-2.47-1.32-5.01-1.2-7.31.08-1.14.28-2.23.62-3.21.34-.97.82-1.84 1.41-2.57-.98 1.67-1.63 3.65-1.74 5.91-.08 1.12-.02 2.3.13 3.5.15 1.21.39 2.45.78 3.68zm3.58-3.39c-.67-2.46-.8-4.9-.51-7.09.17-1.08.46-2.11.89-3 .43-.9 1.02-1.64 1.71-2.23-1.21 1.4-2.02 3.24-2.32 5.39-.17 1.06-.21 2.19-.17 3.36.05 1.16.17 2.35.4 3.57zm4.37-3.77c-.23-1.95-.07-3.79.34-5.45.23-.82.51-1.6.9-2.28.39-.69.88-1.26 1.46-1.72-.98 1.13-1.68 2.56-2.08 4.19-.23.8-.36 1.66-.47 2.54-.1.88-.16 1.78-.15 2.72zm4.23-3.43c.04-1.41.41-2.66.95-3.75.29-.53.62-1.02 1.02-1.42.4-.41.87-.71 1.4-.92-.9.65-1.63 1.52-2.16 2.58-.28.51-.5 1.08-.71 1.67-.2.59-.38 1.2-.5 1.84z" style="fill:#5fbd17"/><path d="M28.51 22.31c1.81 1.41 3.79 2.23 5.71 2.66 1.92.39 3.81.31 5.45-.35-1.75.36-3.58.41-5.48-.01-.94-.18-1.89-.48-2.85-.87-.95-.39-1.9-.84-2.83-1.43zm3.1-3.34c2.2 1.78 4.63 2.91 6.93 3.44 1.15.24 2.28.33 3.33.23 1.05-.1 2.03-.39 2.9-.83-1.9.62-4.03.78-6.3.25-1.13-.23-2.28-.64-3.44-1.16-1.13-.52-2.29-1.14-3.42-1.93zm3.58-3.39c2.32 1.51 4.75 2.45 7.02 2.84 1.13.17 2.23.2 3.22.02 1-.16 1.89-.55 2.65-1.09-1.69.83-3.73 1.09-5.96.71-1.11-.16-2.26-.5-3.42-.91-1.16-.41-2.33-.92-3.51-1.57zm4.37-3.77c1.87 1.01 3.76 1.6 5.54 1.87.88.1 1.75.14 2.55.02.8-.1 1.53-.37 2.16-.75-1.43.51-3.06.63-4.81.38-.87-.1-1.77-.31-2.67-.56-.92-.27-1.84-.57-2.77-.96zm4.23-3.43c1.53.5 2.97.6 4.27.45.63-.1 1.24-.26 1.76-.53.53-.26.97-.64 1.3-1.12-.91.7-2 1.13-3.27 1.28-.61.1-1.29.11-1.96.1-.68-.01-1.38-.06-2.1-.18z" style="fill:#56ab15"/><radialGradient id="a" cx="275.964" cy="-297.109" r="16.694" gradientTransform="matrix(.9776 0 0 -.9652 -253.237 -268.183)" gradientUnits="userSpaceOnUse"><stop offset="0" style="stop-color:#8094d9"/><stop offset=".309" style="stop-color:#687cbd"/><stop offset=".973" style="stop-color:#2c4176"/><stop offset="1" style="stop-color:#293e73"/></radialGradient><path d="M36.64 22.11C36.64 43.6 4 43.6 4 22.11 4 .63 36.64.63 36.64 22.11z" style="fill:url(#a)"/><radialGradient id="b" cx="295.468" cy="-297.94" r="16.694" gradientTransform="matrix(.9776 0 0 -.9652 -248.943 -261.98)" gradientUnits="userSpaceOnUse"><stop offset="0" style="stop-color:#8094d9"/><stop offset=".309" style="stop-color:#687cbd"/><stop offset=".973" style="stop-color:#2c4176"/><stop offset="1" style="stop-color:#293e73"/></radialGradient><path d="M60 29.12c0 21.48-32.64 21.48-32.64 0 0-21.49 32.64-21.49 32.64 0z" style="fill:url(#b)"/><radialGradient id="c" cx="282.402" cy="-319.396" r="18.616" gradientTransform="matrix(.9776 0 0 -.9652 -253.236 -268.182)" gradientUnits="userSpaceOnUse"><stop offset="0" style="stop-color:#8094d9"/><stop offset=".309" style="stop-color:#687cbd"/><stop offset=".973" style="stop-color:#2c4176"/><stop offset="1" style="stop-color:#293e73"/></radialGradient><path d="M45.25 44.03c0 23.96-36.4 23.96-36.4 0s36.4-23.96 36.4 0z" style="fill:url(#c)"/><radialGradient id="d" cx="-156.972" cy="119.294" r="5.732" gradientTransform="matrix(.5562 .9568 -.542 .4349 203.415 121.164)" gradientUnits="userSpaceOnUse"><stop offset="0" style="stop-color:#4e6aa6"/><stop offset=".265" style="stop-color:#4d68a3"/><stop offset=".45" style="stop-color:#48629a"/><stop offset=".61" style="stop-color:#41588b"/><stop offset=".755" style="stop-color:#374a75"/><stop offset=".891" style="stop-color:#2a3859"/></radialGradient><path d="M48.23 17.33c4.17-3.29 10.61 7.75 6.44 11.05-4.17 3.28-10.61-7.76-6.44-11.05z" style="fill:url(#d)"/><path d="M51.24 21.91c.45-.36 1.15.84.7 1.19-.45.36-1.15-.84-.7-1.19z" style="fill:#304373"/><linearGradient id="e" x1="-182.383" x2="-182.383" y1="45.614" y2="39.274" gradientTransform="rotate(24.968 -13.433 568.55)" gradientUnits="userSpaceOnUse"><stop offset="0" style="stop-color:#16203b"/><stop offset=".16" style="stop-color:#1a2541"/><stop offset=".382" style="stop-color:#263353"/><stop offset=".64" style="stop-color:#3a4a71"/><stop offset=".924" style="stop-color:#566a9a"/><stop offset="1" style="stop-color:#5e73a6"/></linearGradient><path d="M56.43 17.3c-1.47-.34-4.41.4-3.59 1.13 1.49 1.33 2.47 2.99 2.82 5.31.16 1.1 3.8-2.46 3.95-4.64.02-.41-2.7-1.69-3.18-1.8z" style="fill:url(#e)"/><linearGradient id="f" x1="416.012" x2="416.012" y1="230.183" y2="223.374" gradientTransform="rotate(-44.987 -21.466 563.84) scale(.9999)" gradientUnits="userSpaceOnUse"><stop offset="0" style="stop-color:#16203b"/><stop offset=".16" style="stop-color:#1a2541"/><stop offset=".382" style="stop-color:#263353"/><stop offset=".64" style="stop-color:#3a4a71"/><stop offset=".924" style="stop-color:#566a9a"/><stop offset="1" style="stop-color:#5e73a6"/></linearGradient><path d="M46.71 15.73c-.37 1.83.78 3.11 1.03 2.75 1.12-1.58 2.93-1.75 4.65-.44.79.6-.31-4.79-2.92-6.4-.28-.19-2.57 3.13-2.76 4.09z" style="fill:url(#f)"/><linearGradient id="g" x1="236.595" x2="236.595" y1="1057.354" y2="1053.542" gradientTransform="rotate(-145.132 -21.468 567.488)" gradientUnits="userSpaceOnUse"><stop offset="0" style="stop-color:#16203b"/><stop offset=".16" style="stop-color:#1a2541"/><stop offset=".382" style="stop-color:#263353"/><stop offset=".64" style="stop-color:#3a4a71"/><stop offset=".924" style="stop-color:#566a9a"/><stop offset="1" style="stop-color:#5e73a6"/></linearGradient><path d="M45.75 20.17c.28.91 1.6 3.21 1.52 2.76-.23-1.33-.26-2.7.17-3.99.18-.56-2.75-2.85-4.17-1.42-.26.25 2.1 1.42 2.48 2.65z" style="fill:url(#g)"/><linearGradient id="h" x1="-187.328" x2="-186.251" y1="49.944" y2="47.842" gradientTransform="rotate(24.968 -13.433 568.55)" gradientUnits="userSpaceOnUse"><stop offset="0" style="stop-color:#5e73a6"/><stop offset=".075" style="stop-color:#566a9a"/><stop offset=".36" style="stop-color:#3a4a71"/><stop offset=".618" style="stop-color:#263353"/><stop offset=".84" style="stop-color:#1a2541"/><stop offset="1" style="stop-color:#16203b"/></linearGradient><path d="M48.74 21.76c1.28.89.71 5.16.47 5-1.31-.88-1.79-2.29-1.94-3.28-.13-.85 1.06-2.01 1.47-1.72z" style="fill:url(#h)"/><linearGradient id="i" x1="-321.451" x2="-318.897" y1="1037.116" y2="1035.022" gradientTransform="rotate(154.311 -19.024 574.045)" gradientUnits="userSpaceOnUse"><stop offset="0" style="stop-color:#16203b"/><stop offset=".26" style="stop-color:#263253"/><stop offset=".804" style="stop-color:#4e618f"/><stop offset="1" style="stop-color:#5e73a6"/></linearGradient><path d="M53.55 26.57c.21.25.94 2.11.58 2.32-1.18.7-3.31-.31-4.56-1.65-.69-.75 1.22-2.26 1.79-2.24.33.01 1.61.87 2.19 1.57z" style="fill:url(#i)"/><linearGradient id="j" x1="-430.205" x2="-430.205" y1="193.2" y2="186.838" gradientTransform="rotate(54.167 -26.566 584.016)" gradientUnits="userSpaceOnUse"><stop offset="0" style="stop-color:#16203b"/><stop offset=".16" style="stop-color:#1a2541"/><stop offset=".382" style="stop-color:#263353"/><stop offset=".64" style="stop-color:#3a4a71"/><stop offset=".924" style="stop-color:#566a9a"/><stop offset="1" style="stop-color:#5e73a6"/></linearGradient><path d="M59.98 25.44c-1.19-1.66-4.27-1.66-4.24-1.2.11 1.39-.16 3.14-1.3 4.29-.39.4 3.16.01 3.53-1.07.36-1.03 2.23-1.71 2.01-2.02z" style="fill:url(#j)"/><path d="M9.42 40.46c-.55-.72-1.36 1.29-2.85 2.29-.57.38 1.49 1.27 3.16 4.44.2.36 1.61-4.23-.31-6.73zm.59-2.02c-.4.42-1.2.41-1.75.35-.69-.07.59 1.15 1.85 1.77.37.19.26-2.5-.1-2.12zm-1.17 8.45c-.45.13-.72.72-.98 1.44-.24.66 1.44.22 2.75 1.42.31.28-1.26-3-1.77-2.86z" style="fill:#213159"/><linearGradient id="k" x1="3.582" x2="15.489" y1="44.132" y2="43.938" gradientUnits="userSpaceOnUse"><stop offset="0" style="stop-color:#8094d9"/><stop offset=".309" style="stop-color:#687cbd"/><stop offset=".973" style="stop-color:#2c4176"/><stop offset="1" style="stop-color:#293e73"/></linearGradient><path d="M9.84 38.28c-1.48 1.52-2.58 1.5-2.5 1.92.24 1.28 1.8 1.33 2.42 2.17.4.54-2.04 1.91-2.84 3.25-.24.41 2.02 1.1 3.42 3.98.66 1.34 2.23-1.12 1.71-6.35-.4-3.98-1.37-5.83-2.21-4.97z" style="fill:url(#k)"/><path d="M28.07 8.84c.89-.1-.87-1.24-1.41-2.47-.21-.47-1.74.5-5.43.5-.42 0 3.74 2.34 6.84 1.97zm-5.14-2.85c.02-.32-.5-.67-1.14-1.06-.59-.36-.66.81-2.28 1.22-.38.1 3.4.2 3.42-.16z" style="fill:#213159"/><linearGradient id="l" x1="-587.921" x2="-579.832" y1="691.029" y2="690.896" gradientTransform="rotate(111.431 -46.537 556.643)" gradientUnits="userSpaceOnUse"><stop offset="0" style="stop-color:#8094d9"/><stop offset=".309" style="stop-color:#687cbd"/><stop offset=".973" style="stop-color:#2c4176"/><stop offset="1" style="stop-color:#293e73"/></linearGradient><path d="M30.54 9.37c-1.06-1.39-.7-2.05-1.14-2.14-1.36-.26-1.89.67-2.93.78-.67.07-1.28-1.85-2.37-2.77-.34-.28-1.73.87-5.05.81-1.55-.03.43 1.72 5.83 3.08 4.11 1.03 6.27 1.03 5.66.24z" style="fill:url(#l)"/></svg>