<svg xmlns="http://www.w3.org/2000/svg" xml:space="preserve" style="enable-background:new 0 0 64 64" viewBox="0 0 64 64"><linearGradient id="a" x1="10" x2="54" y1="38.521" y2="38.521" gradientUnits="userSpaceOnUse"><stop offset="0" style="stop-color:#7f99b0"/><stop offset=".014" style="stop-color:#869fb6"/><stop offset=".08" style="stop-color:#a0b7cc"/><stop offset=".152" style="stop-color:#b4cadd"/><stop offset=".235" style="stop-color:#c2d7e9"/><stop offset=".334" style="stop-color:#cadff0"/><stop offset=".5" style="stop-color:#cde1f2"/><stop offset=".666" style="stop-color:#cadff0"/><stop offset=".765" style="stop-color:#c2d7e9"/><stop offset=".848" style="stop-color:#b4cadd"/><stop offset=".92" style="stop-color:#a0b7cc"/><stop offset=".986" style="stop-color:#869fb6"/><stop offset="1" style="stop-color:#7f99b0"/></linearGradient><path d="M50.686 15.042H13.314c0 3.699-3.314 4.381-3.314 7.174v31.327C10 59.592 19.214 62 32 62s22-2.408 22-8.457V22.216c0-2.793-3.314-3.475-3.314-7.174z" style="fill:url(#a)"/><linearGradient id="b" x1="10.846" x2="53.154" y1="39.646" y2="39.646" gradientUnits="userSpaceOnUse"><stop offset="0" style="stop-color:#e6ebef;stop-opacity:0"/><stop offset=".062" style="stop-color:#eef2f4;stop-opacity:.1907"/><stop offset=".196" style="stop-color:#fbfcfc;stop-opacity:.6022"/><stop offset=".325" style="stop-color:#fff"/><stop offset=".594" style="stop-color:#fbfcfc;stop-opacity:.6022"/><stop offset=".871" style="stop-color:#eef2f4;stop-opacity:.1907"/><stop offset="1" style="stop-color:#e6ebef;stop-opacity:0"/></linearGradient><path d="M32 23.602c-10.115 0-15.562-.985-19.168-1.766-1.007-.218-1.986.409-1.986 1.288v26.778c0 5.466 8.553 7.6 21.154 7.6s21.154-2.134 21.154-7.6V23.123c0-.879-.979-1.506-1.986-1.288-3.606.782-9.053 1.767-19.168 1.767z" style="fill:url(#b)"/><linearGradient id="c" x1="12.246" x2="51.746" y1="17.26" y2="17.26" gradientUnits="userSpaceOnUse"><stop offset="0" style="stop-color:#8ca4ba"/><stop offset=".006" style="stop-color:#8da5bb"/><stop offset=".198" style="stop-color:#a8c0d5"/><stop offset=".369" style="stop-color:#b8d0e5"/><stop offset=".5" style="stop-color:#bed6eb"/><stop offset=".631" style="stop-color:#b8d0e5"/><stop offset=".802" style="stop-color:#a8c0d5"/><stop offset=".994" style="stop-color:#8da5bb"/><stop offset="1" style="stop-color:#8ca4ba"/></linearGradient><path d="M51.746 16.187c0 1.578-8.84 2.859-19.747 2.859-10.905 0-19.745-1.281-19.745-2.859l-.007-.715h39.462l.037.715z" style="fill:url(#c)"/><linearGradient id="d" x1="31.977" x2="31.977" y1="18.332" y2="12.618" gradientUnits="userSpaceOnUse"><stop offset="0" style="stop-color:#cde1f2"/><stop offset="1" style="stop-color:#7f99b0"/></linearGradient><path d="M51.708 15.474c0 1.578-8.833 2.858-19.73 2.858-10.894 0-19.731-1.28-19.731-2.858 0-1.577 8.838-2.855 19.731-2.855 10.899-.001 19.73 1.278 19.73 2.855z" style="fill:url(#d)"/><linearGradient id="e" x1="13.278" x2="50.722" y1="15.676" y2="15.676" gradientUnits="userSpaceOnUse"><stop offset="0" style="stop-color:#8ca4ba"/><stop offset=".006" style="stop-color:#8da5bb"/><stop offset=".198" style="stop-color:#a8c0d5"/><stop offset=".369" style="stop-color:#b8d0e5"/><stop offset=".5" style="stop-color:#bed6eb"/><stop offset=".631" style="stop-color:#b8d0e5"/><stop offset=".802" style="stop-color:#a8c0d5"/><stop offset=".994" style="stop-color:#8da5bb"/><stop offset="1" style="stop-color:#8ca4ba"/></linearGradient><path d="M50.722 15.002c0 1.487-8.382 2.694-18.723 2.694-10.339 0-18.721-1.207-18.721-2.694l.108-1.347h37.185l.151 1.347z" style="fill:url(#e)"/><linearGradient id="f" x1="11.158" x2="52.842" y1="11.401" y2="11.401" gradientUnits="userSpaceOnUse"><stop offset="0" style="stop-color:#7e838a"/><stop offset=".083" style="stop-color:#949aa2"/><stop offset=".245" style="stop-color:#bbc3cd"/><stop offset=".327" style="stop-color:#cad3de"/><stop offset=".423" style="stop-color:#c1c9d4"/><stop offset=".588" style="stop-color:#a8b0b8"/><stop offset=".8" style="stop-color:#7f868c"/></linearGradient><path d="M52.842 12.51c0 2.52-9.331 4.567-20.843 4.567-11.51 0-20.841-2.047-20.841-4.567l.936-6.785h39.764l.984 6.785z" style="fill:url(#f)"/><path d="M52.619 10.969c-1.345 3.923-27.446 8.67-41.461 1.54 13.075 4.894 37.749 1.788 41.259-2.932l.202 1.392z" style="opacity:.3;fill:#6c7278"/><path d="M11.436 10.497c15.075 6.216 37.2-.03 37.2-.03l-36.97-1.605-.23 1.635z" style="opacity:.3;fill:#6c7278"/><linearGradient id="g" x1="11.405" x2="52.595" y1="8.863" y2="8.863" gradientUnits="userSpaceOnUse"><stop offset="0" style="stop-color:#7e838a"/><stop offset=".007" style="stop-color:#80858d"/><stop offset=".11" style="stop-color:#a0a7b0"/><stop offset=".207" style="stop-color:#b7bfc9"/><stop offset=".295" style="stop-color:#c5ced9"/><stop offset=".365" style="stop-color:#cad3de"/><stop offset=".494" style="stop-color:#c1c9d4"/><stop offset=".715" style="stop-color:#a8b0b8"/><stop offset="1" style="stop-color:#7f868c"/></linearGradient><path d="M52.595 8.269c0 2.059-9.22 3.731-20.596 3.731-11.374 0-20.594-1.672-20.594-3.731l.131-2.543h40.881l.178 2.543z" style="fill:url(#g)"/><path d="m22.629 11.094.644.064.112-1.481-.639-.064zm2.586.228.649.044.074-1.484-.636-.044zm-1.293-.104.645.054.092-1.483-.64-.054zm-2.586-.272.645.077.13-1.48-.638-.075zm5.174.46.647.035.059-1.486-.639-.035zm5.487-1.332-.299-.001-.008 1.487.307.001.346-.001-.007-1.487zm-11.956.702.647.088.15-1.477-.634-.087z" style="opacity:.2;fill:#7f868c"/><path d="M29.985 10.486h1.487v.644h-1.487z" style="opacity:.2;fill:#7f868c" transform="rotate(-89.232 30.727 10.81)"/><path d="m29.103 11.519.645.017.028-1.487-.642-.017zm-10.347-.94.644.102.173-1.474-.631-.101zm-6.401-1.567c.204.075.416.148.634.22l.362-1.429a24.32 24.32 0 0 1-.598-.207l-.398 1.416zm3.825 1.075.645.137.23-1.464-.623-.132zm1.283.262.646.119.199-1.47-.626-.114zm-2.564-.564.641.157.265-1.455-.62-.152zm-1.275-.353.636.184.309-1.445-.613-.176zm14.183 2.039.646.025.043-1.486-.643-.025zm16.655-2.27.173 1.474.647-.103-.189-1.471zm2.517-.449.23 1.464.643-.137-.248-1.459zm1.249-.274.265 1.455.642-.157-.289-1.451zm-2.505.514.202 1.47.644-.119-.217-1.467zm3.741-.832.309 1.445c.219-.061.432-.123.639-.186l-.337-1.436c-.2.06-.402.119-.611.177zm1.215-.369.367 1.427c.217-.073.427-.146.631-.221l-.397-1.415c-.194.071-.395.141-.601.209zM34.26 10.047l.023 1.487.65-.017-.035-1.487zm3.837-.167.077 1.484.645-.044-.082-1.485zm-2.558.13.044 1.485.647-.026-.051-1.485zm1.279-.057.059 1.486.648-.035-.067-1.486zm6.376-.571.151 1.477.646-.089-.163-1.476z" style="opacity:.2;fill:#7f868c"/><path d="M32.984 10.064h.644v1.487h-.644z" style="opacity:.2;fill:#7f868c" transform="matrix(1 -.0086 .0086 1 -.091 .286)"/><path d="m41.924 9.539.133 1.48.644-.077-.14-1.478zm-2.548.247.092 1.483.647-.055-.102-1.482zm1.277-.114.107 1.483.649-.066-.122-1.481z" style="opacity:.2;fill:#7f868c"/><linearGradient id="h" x1="31.977" x2="31.977" y1="9.456" y2="2" gradientUnits="userSpaceOnUse"><stop offset="0" style="stop-color:#cad3de"/><stop offset=".203" style="stop-color:#c1c9d4"/><stop offset=".551" style="stop-color:#a8b0b8"/><stop offset="1" style="stop-color:#7f868c"/></linearGradient><path d="M52.417 5.726c0 2.059-9.15 3.73-20.44 3.73-11.286 0-20.441-1.671-20.441-3.73C11.536 3.668 20.692 2 31.977 2c11.291 0 20.44 1.668 20.44 3.726z" style="fill:url(#h)"/><path d="M46.358 5.746c0 1.309-6.438 2.37-14.381 2.37-7.941 0-14.382-1.062-14.382-2.37s6.442-2.368 14.382-2.368c7.944.001 14.381 1.061 14.381 2.368z" style="opacity:.5;fill:#53585c"/><linearGradient id="i" x1="31.977" x2="31.977" y1="10.841" y2="1.687" gradientUnits="userSpaceOnUse"><stop offset="0" style="stop-color:#7f868c"/><stop offset=".449" style="stop-color:#a8b0b8"/><stop offset=".797" style="stop-color:#c1c9d4"/><stop offset="1" style="stop-color:#cad3de"/></linearGradient><path d="M46.358 5.996c0 1.26-6.438 2.283-14.381 2.283-7.941 0-14.382-1.022-14.382-2.283 0-1.259 6.442-2.28 14.382-2.28 7.944-.001 14.381 1.02 14.381 2.28z" style="fill:url(#i)"/></svg>