<svg xmlns="http://www.w3.org/2000/svg" xml:space="preserve" style="enable-background:new 0 0 64 64" viewBox="0 0 64 64"><path d="M29.672 30.43c-.947 1.375-3.405.772-7.005 6.299-1.05 1.611-4.194 1.607-7.49 6.108-1.067 1.457-6.636 1.457-13.16 15.747 16.436-.524 51.242-20.336 52.846-47.358.016-.27-9.592-.094-16.427 10.606-1.086 1.7-4.795 2.829-8.764 8.598z" style="fill:#7fc400"/><linearGradient id="a" x1="31.308" x2="26.201" y1="37.979" y2="32.179" gradientUnits="userSpaceOnUse"><stop offset=".355" style="stop-color:#004d01"/><stop offset=".426" style="stop-color:#055901"/><stop offset=".672" style="stop-color:#167d01"/><stop offset=".873" style="stop-color:#209401"/><stop offset="1" style="stop-color:#249c01"/></linearGradient><path d="M31.433 30.944c-.946 1.376-3.553 1.373-7.152 6.9-1.05 1.611-4.683 1.598-8.17 5.972-1.128 1.415-7.023 3.151-13.267 15.526C19.28 58.82 54.086 39.008 55.69 11.986c.016-.271-8.875.177-15.71 10.876-1.087 1.701-4.578 2.315-8.547 8.083z" style="fill:url(#a)"/><radialGradient id="b" cx="310.164" cy="36.802" r="4.121" fx="310.159" fy="34.24" gradientTransform="matrix(.9391 -.8766 .8722 .6429 -274.945 268.738)" gradientUnits="userSpaceOnUse"><stop offset="0" style="stop-color:#95e800"/><stop offset=".169" style="stop-color:#8fe100"/><stop offset=".422" style="stop-color:#7ecc00"/><stop offset=".727" style="stop-color:#62ab00"/><stop offset="1" style="stop-color:#448700"/></radialGradient><path d="M53.374 17.044c3.226 2.306-4.94 11.64-8.13 9.29-3.189-2.35-3.452-5.424-.579-8.106 2.873-2.683 5.484-3.49 8.71-1.184z" style="fill:url(#b)"/><radialGradient id="c" cx="224.268" cy="78.463" r="5.436" fx="225.586" fy="75.746" gradientTransform="matrix(.7782 -.9192 .8184 .523 -197.725 194.344)" gradientUnits="userSpaceOnUse"><stop offset=".044" style="stop-color:#95e800"/><stop offset=".206" style="stop-color:#8fe100"/><stop offset=".448" style="stop-color:#7ecc00"/><stop offset=".739" style="stop-color:#62ab00"/><stop offset="1" style="stop-color:#448700"/></radialGradient><path d="M46.452 25.512c2.706 2.804-5.155 11.7-8.427 9.61-3.27-2.091-4.399-5.763-2.017-8.576 2.381-2.812 6.662-4.952 10.444-1.034z" style="fill:url(#c)"/><radialGradient id="d" cx="195.953" cy="103.802" r="5.792" fx="197.238" fy="101.051" gradientTransform="matrix(.9152 -.7159 .6059 .7436 -209.202 100.632)" gradientUnits="userSpaceOnUse"><stop offset="0" style="stop-color:#95e800"/><stop offset=".169" style="stop-color:#8fe100"/><stop offset=".422" style="stop-color:#7ecc00"/><stop offset=".727" style="stop-color:#62ab00"/><stop offset="1" style="stop-color:#448700"/></radialGradient><path d="M39.115 33.729c2.529 2.928-7.487 12.056-10.382 9.503-4.184-3.69-2.793-6.652-.175-9.503 2.618-2.85 7.323-3.745 10.557 0z" style="fill:url(#d)"/><radialGradient id="e" cx="208.904" cy="37.901" r="6.633" fx="208.794" fy="33.624" gradientTransform="matrix(.8648 -.524 .4788 .6819 -173.496 128.606)" gradientUnits="userSpaceOnUse"><stop offset="0" style="stop-color:#95e800"/><stop offset=".169" style="stop-color:#8fe100"/><stop offset=".422" style="stop-color:#7ecc00"/><stop offset=".727" style="stop-color:#62ab00"/><stop offset="1" style="stop-color:#448700"/></radialGradient><path d="M30.767 42.393c2.015 3.194-7.114 9.957-9.996 7.546-3.475-2.907-3.574-5.475-1.042-8.206 2.938-3.169 7.688-4.65 11.038.66z" style="fill:url(#e)"/><radialGradient id="f" cx="197.429" cy="11.758" r="6.01" fx="198.373" fy="8.378" gradientTransform="matrix(.8055 -.5065 .4153 .5132 -148.519 144.875)" gradientUnits="userSpaceOnUse"><stop offset="0" style="stop-color:#8adb00"/><stop offset=".225" style="stop-color:#7fcd00"/><stop offset=".645" style="stop-color:#61aa00"/><stop offset="1" style="stop-color:#448700"/></radialGradient><path d="M21.53 48.84c1.93 2.832-9.927 8.498-11.453 5.454-.754-1.504-1.4-3.373.98-5.759s7.448-4.13 10.473.305z" style="fill:url(#f)"/><path d="M40.005 33.505c-3.078 1.857-2.207 6.228-9.53 9.447-5.204 2.288-5.924 5.88-11.09 7.1C10.147 52.231 5.584 54.857 2 59.02c32.688-5.217 51.871-29.1 52.863-47.795.012-.234-1.056 11.38-7.27 14.286-1.253.586-3.048 5.254-7.588 7.993z" style="fill:#8ddb00"/><linearGradient id="g" x1="67.439" x2="57.261" y1="41.614" y2="26.321" gradientTransform="rotate(-12.95 85.891 154.143)" gradientUnits="userSpaceOnUse"><stop offset="0" style="stop-color:#3d7800"/><stop offset=".522" style="stop-color:#60a200"/><stop offset="1" style="stop-color:#83cc00"/></linearGradient><path d="M41.05 34.874c-2.107 1.383-2.15 6.86-9.898 9.42-2.2.726-4.011 4.922-11.275 6.82-1.792.467-9.784 1.9-17.877 7.907 6.509 3.844 13.457 3.064 15.977 2.534 4.814-1.013 4.36-2.36 8.886-4.237 9.05-3.754 8.4-6.055 10.047-6.87 6.813-3.37 6.218-7.272 8.209-8.758 7.092-5.292 5.648-7.791 7.148-9.303 6.745-6.796 6.565-16.682 2.596-21.161-.144-.163-.748 11.659-6.17 15.124-1.728 1.105-2.135 4.908-7.643 8.524z" style="fill:url(#g)"/><radialGradient id="h" cx="208.119" cy="-95.971" r="4.915" fx="210.207" fy="-93.372" gradientTransform="matrix(1.4484 -.3424 .3349 1.4814 -226.33 245.94)" gradientUnits="userSpaceOnUse"><stop offset="0" style="stop-color:#95e800;stop-opacity:.3"/><stop offset="1" style="stop-color:#95e800;stop-opacity:0"/></radialGradient><path d="M50.355 30.927c.909 4.021-1.541 8.034-5.472 8.964-3.932.93-7.856-1.576-8.764-5.597-.91-4.021 1.54-8.034 5.472-8.964 3.931-.93 7.855 1.577 8.764 5.598z" style="fill:url(#h)"/><radialGradient id="i" cx="166.563" cy="-85.156" r="4.915" fx="167.836" fy="-82.309" gradientTransform="matrix(1.2017 -.3105 .2764 1.3503 -126.077 189.858)" gradientUnits="userSpaceOnUse"><stop offset="0" style="stop-color:#95e800;stop-opacity:.3"/><stop offset="1" style="stop-color:#95e800;stop-opacity:0"/></radialGradient><path d="M56.412 21.624c.75 3.666-1.286 7.32-4.547 8.163-3.262.843-6.515-1.445-7.265-5.11s1.286-7.32 4.548-8.163 6.514 1.445 7.264 5.11z" style="fill:url(#i)"/><radialGradient id="j" cx="156.913" cy="-5.761" r="4.915" fx="159.001" fy="-3.162" gradientTransform="matrix(1.4822 -.2574 .2613 1.4517 -195.498 89.71)" gradientUnits="userSpaceOnUse"><stop offset="0" style="stop-color:#95e800;stop-opacity:.3"/><stop offset="1" style="stop-color:#95e800;stop-opacity:0"/></radialGradient><path d="M43.123 39.803c.71 3.94-1.977 7.701-6 8.4-4.023.698-7.86-1.93-8.57-5.87-.709-3.94 1.978-7.7 6.001-8.4 4.023-.698 7.86 1.93 8.57 5.87z" style="fill:url(#j)"/><radialGradient id="k" cx="346.905" cy="26.016" r="4.915" fx="348.993" fy="28.615" gradientTransform="matrix(1.4778 .318 -.4111 1.4193 -474.949 -98.871)" gradientUnits="userSpaceOnUse"><stop offset="0" style="stop-color:#95e800;stop-opacity:.3"/><stop offset="1" style="stop-color:#95e800;stop-opacity:0"/></radialGradient><path d="M34.459 50.123c-1.116 3.853-5.272 6.276-9.284 5.413-4.01-.864-6.358-4.686-5.242-8.539 1.116-3.852 5.272-6.275 9.283-5.412 4.011.863 6.358 4.686 5.243 8.538z" style="fill:url(#k)"/><radialGradient id="l" cx="342.419" cy="32.259" r="4.915" fx="344.507" fy="34.858" gradientTransform="matrix(1.4489 .4177 -.4415 1.4298 -465.244 -135.576)" gradientUnits="userSpaceOnUse"><stop offset="0" style="stop-color:#95e800;stop-opacity:.3"/><stop offset="1" style="stop-color:#95e800;stop-opacity:0"/></radialGradient><path d="M23.956 55.844c-1.199 3.881-5.358 6.108-9.291 4.974-3.933-1.133-6.15-5.199-4.952-9.08 1.198-3.88 5.358-6.107 9.291-4.974 3.933 1.134 6.15 5.2 4.951 9.08z" style="fill:url(#l)"/><linearGradient id="m" x1="53.156" x2="56.29" y1="4.417" y2="5.168" gradientTransform="matrix(.9885 0 0 1.0012 4.091 .515)" gradientUnits="userSpaceOnUse"><stop offset="0" style="stop-color:#83cc00"/><stop offset=".229" style="stop-color:#80c800"/><stop offset=".443" style="stop-color:#76bd00"/><stop offset=".652" style="stop-color:#67aa00"/><stop offset=".855" style="stop-color:#519000"/><stop offset="1" style="stop-color:#3d7800"/></linearGradient><path d="M58.87 6.91c.104-.63 1.759-2.584.177-4.808-.192-.269-.809.022-.648.54.471 1.512-.438 2.967-1.232 3.572-1.91 1.456 1.115 4.25 1.703.695z" style="fill:url(#m)"/><linearGradient id="n" x1="59.707" x2="53.485" y1="11.614" y2="7.725" gradientUnits="userSpaceOnUse"><stop offset="0" style="stop-color:#3d7800"/><stop offset=".182" style="stop-color:#4e8d00"/><stop offset=".528" style="stop-color:#6baf00"/><stop offset=".813" style="stop-color:#7dc400"/><stop offset="1" style="stop-color:#83cc00"/></linearGradient><path d="M58.153 13.066c1.486-.53 3.078-3.46.717-6.157-.488-.557-1.442-.611-1.812-.695-2.334-.529-4.092 1.029-4.092 3.31 0 2.831 2.71 4.424 5.187 3.542z" style="fill:url(#n)"/><path d="M45.666 14.313c.948.154.854 1.33.854 1.33-.804.746-.608 1.532-.608 1.532 1.704-.595 5.882.875 6.439 3.07 2.41-1.511 1.893 2.74 4.587 4.236.175-.653.359-1.473.359-1.473s.357-8.027-2.47-9.069c-2.049-.754-7.825-.444-7.825-.444s-.744.402-1.336.818z" style="opacity:.25;fill:#052b05"/><linearGradient id="o" x1="53.045" x2="53.223" y1="21.808" y2="6.166" gradientUnits="userSpaceOnUse"><stop offset=".183" style="stop-color:#3d7800"/><stop offset=".335" style="stop-color:#437f00"/><stop offset=".554" style="stop-color:#539200"/><stop offset=".813" style="stop-color:#6cb100"/><stop offset="1" style="stop-color:#83cc00"/></linearGradient><path d="M44.257 10.967c1.622 1.848 3.97 4.227 6.815 3-3.695 4.43-.056 8.125-.056 8.125.474-1.703 2.363-2.058 3.543-4.797 0 0-1.286 5.412 3.599 5.856-1.293-1.879.478-2.339-.023-4.48 2.307 1.11 3.865-.693 3.865-.693-4.721.195-3.865-4.442-6.692-5.483-2.864-1.055-7.451.583-11.051-1.528z" style="fill:url(#o)"/><linearGradient id="p" x1="59.064" x2="47.154" y1="20.191" y2="11.21" gradientUnits="userSpaceOnUse"><stop offset="0" style="stop-color:#3d7800"/><stop offset=".254" style="stop-color:#569600"/><stop offset=".554" style="stop-color:#6fb400"/><stop offset=".813" style="stop-color:#7ec600"/><stop offset="1" style="stop-color:#83cc00"/></linearGradient><path d="M44.257 10.967c1.865 1.594 5.286 2.764 8.13 1.537-2.963 1.874-3.65 6.698-1.392 9.09.294-2.01 2.876-2.264 4.854-7.905-1.178 5.42-1.083 7.57 2.309 9.462-.758-1.914 1.325-3.757.108-5.84 1.938 1.679 3.734.667 3.734.667-4.366-.111-4.018-4.15-3.865-4.825.437-1.929-4.502-4.122-5.149-3.216-1.581 2.215-5.536 2.344-8.73 1.03z" style="fill:url(#p)"/></svg>