<svg xmlns="http://www.w3.org/2000/svg" xml:space="preserve" style="enable-background:new 0 0 64 64" viewBox="0 0 64 64"><linearGradient id="a" x1="-210.477" x2="-191.385" y1="402.436" y2="402.436" gradientTransform="matrix(1 0 0 -1 234 426)" gradientUnits="userSpaceOnUse"><stop offset="0" style="stop-color:red"/><stop offset=".186" style="stop-color:#f30000"/><stop offset=".523" style="stop-color:#d30000"/><stop offset=".969" style="stop-color:#a00000"/><stop offset="1" style="stop-color:#9c0000"/></linearGradient><path d="M42.61 20.07c0 9.31-19.09 9.31-19.09 0" style="fill:url(#a)"/><linearGradient id="b" x1="-212.719" x2="-189.532" y1="410.676" y2="410.676" gradientTransform="matrix(1 0 0 -1 234 426)" gradientUnits="userSpaceOnUse"><stop offset="0" style="stop-color:#64d633"/><stop offset="1" style="stop-color:#006100"/></linearGradient><path d="M21.4 14.37c-2.03 9.14 23.07 11.01 23.07 1.7 0-8.65-21.03-10.91-23.07-1.7z" style="fill:url(#b)"/><linearGradient id="c" x1="-223.165" x2="-202.269" y1="406.199" y2="406.199" gradientTransform="matrix(1 0 0 -1 234 426)" gradientUnits="userSpaceOnUse"><stop offset="0" style="stop-color:#64d633"/><stop offset=".088" style="stop-color:#53c22a"/><stop offset=".265" style="stop-color:#359f1b"/><stop offset=".444" style="stop-color:#1e840f"/><stop offset=".625" style="stop-color:#0d7007"/><stop offset=".809" style="stop-color:#036502"/><stop offset="1" style="stop-color:#006100"/></linearGradient><path d="M31.66 19.63c1.46 10.94-20.07 10.4-20.78 2.79C9.73 9.99 30.01 7.24 31.66 19.63z" style="fill:url(#c)"/><linearGradient id="d" x1="-202.202" x2="-181.456" y1="406.862" y2="406.862" gradientTransform="matrix(1 0 0 -1 234 426)" gradientUnits="userSpaceOnUse"><stop offset="0" style="stop-color:#64d633"/><stop offset="1" style="stop-color:#006100"/></linearGradient><path d="M32.29 20.47c-4.15 10.41 19.5 6.55 20.2-1.06 1.15-12.44-16.24-8.88-20.2 1.06z" style="fill:url(#d)"/><linearGradient id="e" x1="-227" x2="-203.072" y1="389.732" y2="389.732" gradientTransform="matrix(1 0 0 -1 234 426)" gradientUnits="userSpaceOnUse"><stop offset="0" style="stop-color:#64d633"/><stop offset="1" style="stop-color:#006100"/></linearGradient><path d="M24.71 57.81c-2.18 2.11-9.32.21-11.56-3.49-3.11-5.14-2.93-15.44-5.87-27.88-2.01-8.51 6.77-17.49 16.23-9.45 12.58 3.95 6.47 35.73 1.2 40.82z" style="fill:url(#e)"/><linearGradient id="f" x1="-193.581" x2="-169.657" y1="389.509" y2="389.509" gradientTransform="rotate(180 -68.29 213)" gradientUnits="userSpaceOnUse"><stop offset="0" style="stop-color:#006100"/><stop offset="1" style="stop-color:#64d633"/></linearGradient><path d="M40.48 17.13c9.63-7.27 18.23.8 16.22 9.31-2.93 12.44-2.76 22.74-5.87 27.88-2.24 3.7-9.37 5.6-11.56 3.49-5.25-5.09-11.35-36.73 1.21-40.68z" style="fill:url(#f)"/><path d="M23.52 16.99c.94.4 3.67 2.13 1.66 3.44.47.35 13.15.31 14.1.02.95-.29-1.88-2.22 1.2-3.33-5.22.28-3.83-2.42-16.96-.13z" style="fill:#2a7324"/><radialGradient id="g" cx="-138.774" cy="641.824" r="13.042" gradientTransform="matrix(.8442 0 0 -2.0977 152.995 1357.66)" gradientUnits="userSpaceOnUse"><stop offset=".084" style="stop-color:#77b516"/><stop offset="1" style="stop-color:#297124"/></radialGradient><path d="M38.32 20.24c.48.38-10.57.42-10.67.31-.1-.12-2.01-2.05-1.4-2.55 4.2-3.85 3.86-14.1 16.88-15.97 2.38-.23 3.5 4.86 1.05 5.02-7.22.45-13.73 9.27-5.86 13.19z" style="fill:url(#g)"/><path d="M43.14 2.03c-2.07.41-.82 5.4 1.24 4.98 2.28-.45 1.04-5.44-1.24-4.98z" style="fill:#7ab51d"/><linearGradient id="h" x1="-218.991" x2="-185.501" y1="385.084" y2="385.084" gradientTransform="matrix(1 0 0 -1 234 426)" gradientUnits="userSpaceOnUse"><stop offset="0" style="stop-color:#64d633"/><stop offset="1" style="stop-color:#006100"/></linearGradient><path d="M15.48 29.03c4.3 16.73 2.2 22.07 6.44 28.92 3.76 6.08 15.92 4.71 20-.08 5.42-6.36.87-11.19 6-28.7 3.56-12.14-10.16-9.06-16.19-8.78-4.93.21-19.51-4.03-16.25 8.64z" style="fill:url(#h)"/></svg>