<svg xmlns="http://www.w3.org/2000/svg" xml:space="preserve" style="enable-background:new 0 0 64 64" viewBox="0 0 64 64"><linearGradient id="a" x1="31.999" x2="31.999" y1="1.984" y2="61.836" gradientUnits="userSpaceOnUse"><stop offset="0" style="stop-color:#ffb700"/><stop offset=".192" style="stop-color:#f7ae00"/><stop offset=".505" style="stop-color:#e29600"/><stop offset=".899" style="stop-color:#bf6e00"/><stop offset="1" style="stop-color:#b56300"/></linearGradient><path d="M38.871 42H25.127c-2.504 0-2.504 4 0 4H38.87c2.504 0 2.504-4 0-4z" style="fill:url(#a)"/><linearGradient id="b" x1="22" x2="22" y1="1.984" y2="61.836" gradientUnits="userSpaceOnUse"><stop offset="0" style="stop-color:#ffb700"/><stop offset=".192" style="stop-color:#f7ae00"/><stop offset=".505" style="stop-color:#e29600"/><stop offset=".899" style="stop-color:#bf6e00"/><stop offset="1" style="stop-color:#b56300"/></linearGradient><ellipse cx="22" cy="27" rx="4" ry="5" style="fill:url(#b)"/><linearGradient id="c" x1="42" x2="42" y1="1.984" y2="61.836" gradientUnits="userSpaceOnUse"><stop offset="0" style="stop-color:#ffb700"/><stop offset=".192" style="stop-color:#f7ae00"/><stop offset=".505" style="stop-color:#e29600"/><stop offset=".899" style="stop-color:#bf6e00"/><stop offset="1" style="stop-color:#b56300"/></linearGradient><ellipse cx="42" cy="27" rx="4" ry="5" style="fill:url(#c)"/><linearGradient id="d" x1="17.873" x2="17.873" y1="1.984" y2="61.836" gradientUnits="userSpaceOnUse"><stop offset="0" style="stop-color:#ffb700"/><stop offset=".192" style="stop-color:#f7ae00"/><stop offset=".505" style="stop-color:#e29600"/><stop offset=".899" style="stop-color:#bf6e00"/><stop offset="1" style="stop-color:#b56300"/></linearGradient><path d="M21.782 57.01a28.597 28.597 0 0 1-6.359-3.685 1.5 1.5 0 1 0-1.827 2.379 31.59 31.59 0 0 0 7.026 4.074l.084.035c.764.32 1.6-.057 1.921-.821.32-.764-.082-1.66-.845-1.981z" style="fill:url(#d)"/><linearGradient id="e" x1="46.127" x2="46.127" y1="1.984" y2="61.836" gradientUnits="userSpaceOnUse"><stop offset="0" style="stop-color:#ffb700"/><stop offset=".192" style="stop-color:#f7ae00"/><stop offset=".505" style="stop-color:#e29600"/><stop offset=".899" style="stop-color:#bf6e00"/><stop offset="1" style="stop-color:#b56300"/></linearGradient><path d="M42.218 6.989a28.603 28.603 0 0 1 6.359 3.686 1.5 1.5 0 1 0 1.827-2.38 31.587 31.587 0 0 0-7.026-4.073l-.084-.035c-.764-.32-1.6.057-1.921.821-.32.764.082 1.66.846 1.981z" style="fill:url(#e)"/><linearGradient id="f" x1="7.528" x2="7.528" y1="1.984" y2="61.836" gradientUnits="userSpaceOnUse"><stop offset="0" style="stop-color:#ffb700"/><stop offset=".192" style="stop-color:#f7ae00"/><stop offset=".505" style="stop-color:#e29600"/><stop offset=".899" style="stop-color:#bf6e00"/><stop offset="1" style="stop-color:#b56300"/></linearGradient><path d="M6.981 42.18a1.5 1.5 0 1 0-2.772 1.146 31.59 31.59 0 0 0 4.048 7.04l.056.074c.501.66 1.415.75 2.074.25.66-.502.76-1.48.258-2.14a28.602 28.602 0 0 1-3.664-6.37z" style="fill:url(#f)"/><linearGradient id="g" x1="56.472" x2="56.472" y1="1.984" y2="61.836" gradientUnits="userSpaceOnUse"><stop offset="0" style="stop-color:#ffb700"/><stop offset=".192" style="stop-color:#f7ae00"/><stop offset=".505" style="stop-color:#e29600"/><stop offset=".899" style="stop-color:#bf6e00"/><stop offset="1" style="stop-color:#b56300"/></linearGradient><path d="M57.019 21.82a1.5 1.5 0 1 0 2.772-1.146 31.584 31.584 0 0 0-4.048-7.04l-.056-.074c-.501-.66-1.415-.75-2.074-.25-.66.502-.76 1.48-.258 2.14a28.602 28.602 0 0 1 3.664 6.37z" style="fill:url(#g)"/><linearGradient id="h" x1="3.628" x2="3.628" y1="1.984" y2="61.836" gradientUnits="userSpaceOnUse"><stop offset="0" style="stop-color:#ffb700"/><stop offset=".192" style="stop-color:#f7ae00"/><stop offset=".505" style="stop-color:#e29600"/><stop offset=".899" style="stop-color:#bf6e00"/><stop offset="1" style="stop-color:#b56300"/></linearGradient><path d="M5.23 35.656a28.613 28.613 0 0 1 .013-7.35 1.5 1.5 0 1 0-2.973-.393 31.593 31.593 0 0 0-.015 8.122l.011.09c.105.822.85 1.359 1.672 1.254.822-.105 1.397-.901 1.293-1.723z" style="fill:url(#h)"/><linearGradient id="i" x1="60.372" x2="60.372" y1="1.984" y2="61.836" gradientUnits="userSpaceOnUse"><stop offset="0" style="stop-color:#ffb700"/><stop offset=".192" style="stop-color:#f7ae00"/><stop offset=".505" style="stop-color:#e29600"/><stop offset=".899" style="stop-color:#bf6e00"/><stop offset="1" style="stop-color:#b56300"/></linearGradient><path d="m61.745 27.965-.011-.091c-.105-.821-.85-1.358-1.672-1.253-.822.105-1.397.901-1.293 1.723a28.6 28.6 0 0 1-.012 7.35 1.5 1.5 0 1 0 2.973.393c.355-2.683.36-5.415.015-8.122z" style="fill:url(#i)"/><linearGradient id="j" x1="7.529" x2="7.529" y1="1.984" y2="61.836" gradientUnits="userSpaceOnUse"><stop offset="0" style="stop-color:#ffb700"/><stop offset=".192" style="stop-color:#f7ae00"/><stop offset=".505" style="stop-color:#e29600"/><stop offset=".899" style="stop-color:#bf6e00"/><stop offset="1" style="stop-color:#b56300"/></linearGradient><path d="M10.399 13.32a1.497 1.497 0 0 0-2.103.275 31.592 31.592 0 0 0-4.074 7.027l-.035.084c-.32.764.057 1.6.821 1.921.764.32 1.66-.082 1.981-.846a28.598 28.598 0 0 1 3.686-6.358 1.5 1.5 0 0 0-.277-2.103z" style="fill:url(#j)"/><linearGradient id="k" x1="56.471" x2="56.471" y1="1.984" y2="61.836" gradientUnits="userSpaceOnUse"><stop offset="0" style="stop-color:#ffb700"/><stop offset=".192" style="stop-color:#f7ae00"/><stop offset=".505" style="stop-color:#e29600"/><stop offset=".899" style="stop-color:#bf6e00"/><stop offset="1" style="stop-color:#b56300"/></linearGradient><path d="M58.992 41.373c-.764-.32-1.66.082-1.981.846a28.586 28.586 0 0 1-3.686 6.358 1.5 1.5 0 1 0 2.379 1.827 31.586 31.586 0 0 0 4.074-7.026l.035-.084c.32-.764-.057-1.6-.821-1.921z" style="fill:url(#k)"/><linearGradient id="l" x1="17.869" x2="17.869" y1="1.984" y2="61.836" gradientUnits="userSpaceOnUse"><stop offset="0" style="stop-color:#ffb700"/><stop offset=".192" style="stop-color:#f7ae00"/><stop offset=".505" style="stop-color:#e29600"/><stop offset=".899" style="stop-color:#bf6e00"/><stop offset="1" style="stop-color:#b56300"/></linearGradient><path d="M15.45 10.645a28.602 28.602 0 0 1 6.37-3.664 1.5 1.5 0 1 0-1.146-2.772 31.6 31.6 0 0 0-7.04 4.048l-.074.056c-.66.501-.75 1.414-.25 2.074.502.66 1.48.76 2.14.258z" style="fill:url(#l)"/><linearGradient id="m" x1="46.131" x2="46.131" y1="1.984" y2="61.836" gradientUnits="userSpaceOnUse"><stop offset="0" style="stop-color:#ffb700"/><stop offset=".192" style="stop-color:#f7ae00"/><stop offset=".505" style="stop-color:#e29600"/><stop offset=".899" style="stop-color:#bf6e00"/><stop offset="1" style="stop-color:#b56300"/></linearGradient><path d="M48.55 53.355a28.605 28.605 0 0 1-6.37 3.664 1.5 1.5 0 1 0 1.146 2.772 31.596 31.596 0 0 0 7.041-4.048l.073-.056c.659-.501.751-1.414.25-2.074-.502-.66-1.48-.76-2.14-.258z" style="fill:url(#m)"/><linearGradient id="n" x1="31.999" x2="31.999" y1="1.984" y2="61.835" gradientUnits="userSpaceOnUse"><stop offset="0" style="stop-color:#ffb700"/><stop offset=".192" style="stop-color:#f7ae00"/><stop offset=".505" style="stop-color:#e29600"/><stop offset=".899" style="stop-color:#bf6e00"/><stop offset="1" style="stop-color:#b56300"/></linearGradient><path d="M28.344 5.23a28.6 28.6 0 0 1 7.35.013 1.5 1.5 0 1 0 .393-2.974 31.602 31.602 0 0 0-8.122-.014l-.09.011c-.822.105-1.359.85-1.254 1.672.105.822.902 1.397 1.723 1.293z" style="fill:url(#n)"/><linearGradient id="o" x1="32.001" x2="32.001" y1="1.984" y2="61.836" gradientUnits="userSpaceOnUse"><stop offset="0" style="stop-color:#ffb700"/><stop offset=".192" style="stop-color:#f7ae00"/><stop offset=".505" style="stop-color:#e29600"/><stop offset=".899" style="stop-color:#bf6e00"/><stop offset="1" style="stop-color:#b56300"/></linearGradient><path d="M35.656 58.77a28.6 28.6 0 0 1-7.35-.013 1.5 1.5 0 1 0-.393 2.973c2.683.355 5.415.36 8.122.015l.091-.011c.821-.105 1.358-.85 1.253-1.672-.105-.822-.901-1.397-1.723-1.293z" style="fill:url(#o)"/></svg>