<svg xmlns="http://www.w3.org/2000/svg" xml:space="preserve" style="enable-background:new 0 0 64 64" viewBox="0 0 64 64"><linearGradient id="a" x1="32" x2="32" y1="62" y2="2" gradientUnits="userSpaceOnUse"><stop offset="0" style="stop-color:#ff7b00"/><stop offset=".324" style="stop-color:#ffae00"/><stop offset=".621" style="stop-color:#ffd600"/><stop offset=".856" style="stop-color:#fe0"/><stop offset="1" style="stop-color:#fff700"/></linearGradient><circle cx="32" cy="32" r="30" style="fill:url(#a)"/><circle cx="44" cy="30" r="9.5" style="fill:#fff"/><circle cx="44" cy="30" r="4.5" style="fill:#1a1626"/><path d="M37 48.885c0 5.881-10 5.881-10 0 0-3.086 2.238-5.588 5-5.588s5 2.502 5 5.588z" style="fill:#1a1626"/><path d="M17.05 9.654c-9.787 5.789-3.547 7.041 5.318 3.161 5.002-2.19 1.123-6.975-5.318-3.161zm29.897.015c-6.442-3.812-10.32.972-5.316 3.161 8.867 3.882 15.108 2.628 5.316-3.161z" style="fill:#d69600"/><path d="M16.465 23.176c-.858-2.7-4.172-2.998-4.668.942-.363 2.881-.774 5.742-2.025 10.674-1.853-4.998-5.696-5.029-6.058-2.331-.327 2.441 1.141 2.888 3.465 13.34 2.121 9.547 16.85 8.135 20.084-1.288 6.738-19.631.332-21.649-1.182-17.089.09-4.247-2.275-6.174-3.852-3.548.357-4.528-4.874-5.062-5.764-.7z" style="fill:#fff"/><path d="M16.566 21.696c-.98-2.942-5.098-1.365-5.28 1.876-.157 2.767-1.802 9.161-1.802 9.161-2.271-5.023-6.85-2.765-6.461.446.355 2.935 1.901 4.506 2.738 10.447.633 4.491 2.472 8.325 6.184 9.599 4.04 1.387 9.562.069 12.424-2.751 3.269-3.225 6.844-11.463 6.702-20.639-.089-5.745-3.732-6.456-4.742-4.279.08-3.557-2.62-4.357-3.71-3.218-.708-4.301-5.456-3.908-6.053-.642zm4.686 4.189c-.226 2.257-1.257 9.572-1.257 9.572s1.867-5.169 2.216-9.528c.308-3.893 3.556-2.961 3.07 2.574-.231 2.635-1.23 8.195-1.23 8.195s1.458-3.329 2.038-7.021c.803-5.116 3.67-4.012 3.264 1.012-.709 8.73-3.354 15.4-6.206 18.212-4.105 4.046-14.46 4.851-15.804-5.43-.864-6.608-2.624-7.355-2.903-10.2-.258-2.631 3.62-3.45 5.335 3.985 0 0 1.946-5.577 2.709-13.172.209-2.072 2.503-3.104 3.264-.421.669 2.34-.554 10.074-.554 10.074s1.18-4.119 1.899-9.601c.577-4.415 4.75-4.11 4.159 1.749z" style="fill:#99a8ae"/><path d="M46.963 23.834c-.983-3.878 6.045-7.579 6.38 7.57 0 0 .565-2.773 2.955-3.057.928-.112 3.077 7.811 1.322 17.048-1.778 9.345-15.142 9.486-20.372 1.145-3.65-5.823-10.042-13.132-8.475-15.545 1.256-1.925 3.105.319 3.105.319-2.22-3.59.388-5.923 2.783-4.483-1.075-3.876 2.604-5.438 3.955-3.402 3.649 5.498 7.32 12.624 8.633 12.301 1.066-.266.537-8.651-.286-11.896z" style="fill:#fff"/><path d="M33.935 25.549c-1.538-.966-5.084.856-3.37 4.413-1.564-.933-4.8.59-2.385 5.092 4.837 9.016 9.341 14.206 13.129 16.721 3.318 2.205 8.716 2.015 12.334-.049 3.327-1.892 4.847-5.366 5.036-9.822.471-11.108.284-13.614-2.477-13.882-1.426-.141-2.147.882-2.153.894 0 0-.491-3.671-1.849-7.114-1.273-3.222-6.178-3.052-5.982.196.33 5.473 1.037 12.654.518 12.795-.405.11-3.751-4.511-7.24-11.281-1.719-3.337-6.319-1.161-5.561 2.037zm4.674-1.16c2.254 4.505 5.032 9.087 7.873 12.089.458.483 1.484.218 1.596-.438.439-2.577.21-8.65-.3-12.302-.374-2.678 2.456-3.13 3.416-.492 1.863 5.118 1.412 10.083 2.175 12.417.112-3.61.691-5.666 2.41-6.128 1.885-.508 1.611 3.828 1.449 12.125-.2 10.16-10.384 11.523-15.145 8.368-3.306-2.2-7.321-6.431-12.355-15.17-2.103-3.651.451-5.202 2.198-2.534 2.933 4.486 5.44 6.674 5.44 6.674s-4.17-6.265-5.31-8.607c-1.244-2.56 1.052-4.221 2.344-2.279 3.958 5.948 7.673 9.126 7.673 9.126s-4.163-5.912-6.702-10.967c-1.055-2.098 2.008-4.339 3.238-1.882z" style="fill:#99a8ae"/></svg>