<svg xmlns="http://www.w3.org/2000/svg" xml:space="preserve" style="enable-background:new 0 0 64 64" viewBox="0 0 64 64"><linearGradient id="a" x1="32" x2="32" y1="27.081" y2="1.123" gradientTransform="matrix(1 0 0 .9748 0 22.602)" gradientUnits="userSpaceOnUse"><stop offset="0" style="stop-color:#c94250"/><stop offset="1" style="stop-color:#f55b77"/></linearGradient><path d="M32 23.696c-6.31 0-30 10.75-30 10.75 2.498 3.27 11.691 3.298 26.005 10.66 18.304 9.417 29.349.133 33.995-10.66 0 0-23.69-10.75-30-10.75z" style="fill:url(#a)"/><path d="M32 19.498 11.847 29.44c11.514-1.5 15.914-.653 24.88 3.292C42.285 35.18 49.521 38.195 58 34.1L32 19.498z" style="fill:#1a1626"/><path d="M30.522 23.595s-17.527-2.674-22.708 5.65c1.511 2.323 5.01 3.796 11.698 3.192 4.11 1.01 7.523 1.51 11.01.81 3.488.7 6.902.2 11.01-.81 8.032 1.56 10.187.097 11.699-2.226-5.181-8.324-22.709-6.616-22.709-6.616z" style="fill:#fff"/><path d="M19.407 24.89s-1.531 2.63.106 7.547c-.32-4.058-.107-7.546-.107-7.546zm22.222-.006s1.54 2.636-.097 7.553c.32-4.058.097-7.552.097-7.552zm-11.01.696s.277 3.401-.097 7.667c-.556-4.391.097-7.667.097-7.667z" style="fill:#e6ebf0"/><linearGradient id="b" x1="32" x2="32" y1="12.312" y2="-7.798" gradientTransform="matrix(1 0 0 .9748 0 22.602)" gradientUnits="userSpaceOnUse"><stop offset="0" style="stop-color:#c94250"/><stop offset="1" style="stop-color:#f55b77"/></linearGradient><path d="M44.38 15.623C38.634 13.78 32 16.61 32 16.61s-6.633-2.83-12.38-.988C12.2 17.95 2 34.445 2 34.445c12.28 1.142 13.035-4.192 20.889-7.017 4.85-1.746 4.141-.675 9.111-.675 4.97 0 4.261-1.071 9.111.675 7.854 2.825 8.608 8.16 20.889 7.017 0 0-10.201-16.494-17.62-18.822z" style="fill:url(#b)"/></svg>