<svg xmlns="http://www.w3.org/2000/svg" xml:space="preserve" style="enable-background:new 0 0 64 64" viewBox="0 0 64 64"><linearGradient id="a" x1="-232" x2="-232" y1="64" y2="7.699" gradientTransform="matrix(-1 0 0 1 -200 0)" gradientUnits="userSpaceOnUse"><stop offset="0" style="stop-color:#ff9500"/><stop offset=".192" style="stop-color:#ffad00"/><stop offset=".545" style="stop-color:#ffd500"/><stop offset=".827" style="stop-color:#ffed00"/><stop offset="1" style="stop-color:#fff600"/></linearGradient><path d="M0 57.292c0 3.176 11.737 1.856 9.229 3.688-4.894 3.57 7.255 3.494 11.675 2.225 4.689-1.346 10.589-1.133 14.356-.568 15.814 2.373 28.478 1.539 22.084-2.59-4.886-3.155 6.656.375 6.656-2.362 0-3.092-11.341-5.278-11.341-11.499 0-3.726-40.746-.392-40.746 1.842C11.913 53.166 0 54.549 0 57.292z" style="fill:url(#a)"/><radialGradient id="b" cx="358.977" cy="-137.348" r="1.721" fx="360.143" fy="-136.649" gradientTransform="matrix(1.2612 .0901 .059 -.6554 -382.887 -64.819)" gradientUnits="userSpaceOnUse"><stop offset="0" style="stop-color:#fb0;stop-opacity:.8"/><stop offset="1" style="stop-color:#fb0;stop-opacity:0"/></radialGradient><path d="M61.648 58.686c1.183.084 2.189-.358 2.246-.99s-.857-1.211-2.04-1.296c-1.184-.085-2.189.358-2.246.989-.057.632.856 1.212 2.04 1.297z" style="fill:url(#b)"/><radialGradient id="c" cx="-135.673" cy="146.724" r="2.449" fx="-133.9" fy="147.198" gradientTransform="matrix(-1.2635 -.0037 -.0244 .6751 -164.522 -42.422)" gradientUnits="userSpaceOnUse"><stop offset="0" style="stop-color:#fb0;stop-opacity:.8"/><stop offset="1" style="stop-color:#fb0;stop-opacity:0"/></radialGradient><path d="M3.382 55.46c-1.687-.005-3.081.74-3.114 1.665-.033.925 1.307 1.678 2.993 1.683 1.688.005 3.081-.74 3.114-1.665.034-.925-1.305-1.678-2.993-1.683z" style="fill:url(#c)"/><radialGradient id="d" cx="-115.969" cy="260.27" r="2.449" fx="-114.196" fy="260.744" gradientTransform="matrix(-1.2457 .1974 .1273 .6374 -165.999 -80.992)" gradientUnits="userSpaceOnUse"><stop offset="0" style="stop-color:#fb0;stop-opacity:.8"/><stop offset="1" style="stop-color:#fb0;stop-opacity:0"/></radialGradient><path d="M11.281 60.432c-1.663.264-2.87 1.185-2.695 2.058.174.873 1.664 1.367 3.327 1.103 1.664-.264 2.87-1.185 2.695-2.058-.175-.873-1.663-1.367-3.327-1.103z" style="fill:url(#d)"/><radialGradient id="e" cx="370.017" cy="-1.546" r="2.449" fx="371.791" fy="-1.072" gradientTransform="matrix(1.1748 .4185 .3217 -.7167 -378.59 -94.568)" gradientUnits="userSpaceOnUse"><stop offset="0" style="stop-color:#fb0;stop-opacity:.8"/><stop offset="1" style="stop-color:#fb0;stop-opacity:0"/></radialGradient><path d="M54.812 63.17c1.568.559 3.197.216 3.637-.766.441-.982-.474-2.23-2.042-2.789-1.569-.559-3.197-.216-3.637.766-.441.982.472 2.23 2.042 2.789z" style="fill:url(#e)"/><linearGradient id="f" x1="32.336" x2="32.336" y1="60.508" y2="0" gradientUnits="userSpaceOnUse"><stop offset="0" style="stop-color:#ff9500"/><stop offset=".192" style="stop-color:#ffad00"/><stop offset=".545" style="stop-color:#ffd500"/><stop offset=".827" style="stop-color:#ffed00"/><stop offset="1" style="stop-color:#fff600"/></linearGradient><path d="M60.823 51.996c-1.896-.43-6.273-1.593-3.223-6.347C59.843 42.153 62 38.164 62 30 62 13.432 48.568 0 32 0S2 13.432 2 30c0 6.335 1.968 10.855 4.034 14.098 3.131 4.916 1.139 6.421-1.167 6.862-3.739.715-3.683 2.794-1.783 3.257 3.625.884 11.729-.381 8.917 2.189-5.348 4.888 7.906 5 16.74 2.469 3.649-1.045 6.667-.29 11.356.821 4.42 1.047 12.269 1.388 8.54-2.938-4.318-5.009 5.385-.471 11.906-1.138 2.749-.281 3.309-2.937.28-3.624z" style="fill:url(#f)"/><radialGradient id="g" cx="70.738" cy="-499.204" r="1.721" fx="71.904" fy="-498.505" gradientTransform="matrix(-1.2399 .1148 -.0579 -.8356 62.884 -372.47)" gradientUnits="userSpaceOnUse"><stop offset="0" style="stop-color:#fb0;stop-opacity:.8"/><stop offset="1" style="stop-color:#fb0;stop-opacity:0"/></radialGradient><path d="M4.18 54.242c-1.163.108-2.152-.457-2.208-1.261-.056-.805.842-1.544 2.006-1.652 1.164-.108 2.152.457 2.208 1.261.055.805-.841 1.544-2.006 1.652z" style="fill:url(#g)"/><radialGradient id="h" cx="69.082" cy="318.783" r="2.449" fx="70.855" fy="319.257" gradientTransform="matrix(1.2725 .0071 .0301 .718 -37.896 -175.626)" gradientUnits="userSpaceOnUse"><stop offset="0" style="stop-color:#fb0;stop-opacity:.8"/><stop offset="1" style="stop-color:#fb0;stop-opacity:0"/></radialGradient><path d="M59.531 51.97c1.699.009 3.109.814 3.15 1.798.041.984-1.303 1.773-3.001 1.764-1.7-.009-3.109-.814-3.151-1.798-.041-.984 1.302-1.774 3.002-1.764z" style="fill:url(#h)"/><radialGradient id="i" cx="154.957" cy="651.29" r="2.449" fx="156.731" fy="651.764" gradientTransform="matrix(1.6975 .31 -.1735 1.0005 -104.75 -641.981)" gradientUnits="userSpaceOnUse"><stop offset="0" style="stop-color:#fb0;stop-opacity:.8"/><stop offset="1" style="stop-color:#fb0;stop-opacity:0"/></radialGradient><path d="M45.721 55.19c2.266.414 3.91 1.86 3.673 3.231-.238 1.371-2.267 2.146-4.533 1.732-2.268-.414-3.91-1.86-3.673-3.23.238-1.372 2.265-2.147 4.533-1.733z" style="fill:url(#i)"/><radialGradient id="j" cx="176.647" cy="-270.089" r="2.449" fx="178.421" fy="-269.615" gradientTransform="matrix(-1.6437 .5765 -.45 -.9873 184.157 -310.953)" gradientUnits="userSpaceOnUse"><stop offset="0" style="stop-color:#fb0;stop-opacity:.8"/><stop offset="1" style="stop-color:#fb0;stop-opacity:0"/></radialGradient><path d="M16.458 59.992c-2.194.77-4.472.298-5.089-1.055-.616-1.352.663-3.072 2.857-3.842 2.196-.77 4.472-.298 5.089 1.055.616 1.352-.661 3.072-2.857 3.842z" style="fill:url(#j)"/><path d="M38.131 51.786c-3.449-1.551 16.535-6.96-2.423-7.957-6.798-.358-13.337-2.95-17.825-8.514-.855-1.06-1.223-.295-1.078.435 1.725 8.704 10.57 11.566 18.805 11.068 14.307-.866-4.901 3.259 3.198 5.918.705.231.57-.389-.677-.95zM23.099 19.061c2.183.334 3.615 2.818 3.197 5.548s-2.528 4.671-4.711 4.337c-2.185-.335-3.615-2.818-3.197-5.548.418-2.729 2.526-4.671 4.711-4.337z" style="fill:#1a1626"/><ellipse cx="41.658" cy="29.996" rx="5" ry="4" style="fill:#1a1626" transform="rotate(-81.292 41.658 29.995)"/></svg>