<svg xmlns="http://www.w3.org/2000/svg" xml:space="preserve" style="enable-background:new 0 0 64 64" viewBox="0 0 64 64"><radialGradient id="a" cx="179.105" cy="-278.03" r="11.945" gradientTransform="scale(-1.5907 1.5907) rotate(45 -268.597 -364.549)" gradientUnits="userSpaceOnUse"><stop offset="0" style="stop-color:#fff"/><stop offset=".268" style="stop-color:#fcfeff"/><stop offset=".503" style="stop-color:#f1fdff"/><stop offset=".725" style="stop-color:#dffaff"/><stop offset=".939" style="stop-color:#c6f5ff"/><stop offset="1" style="stop-color:#bdf4ff"/></radialGradient><path d="M34.436 34.436c7.418-7.42 7.419-19.452 0-26.87C27.015.144 14.985.146 7.563 7.564.145 14.986.145 27.016 7.564 34.436c7.422 7.42 19.454 7.418 26.872 0z" style="fill:url(#a)"/><radialGradient id="b" cx="469.786" cy="-173.229" r="18.367" gradientTransform="scale(-1 1) rotate(45 -10.063 -668.544)" gradientUnits="userSpaceOnUse"><stop offset="0" style="stop-color:#8aebef;stop-opacity:.6"/><stop offset=".26" style="stop-color:#a8def6;stop-opacity:.6"/><stop offset=".582" style="stop-color:#d2ccff;stop-opacity:.6"/><stop offset="1" style="stop-color:#d2ccff;stop-opacity:.2"/></radialGradient><path d="M33.987 33.987c-7.173 7.177-18.802 7.175-25.976.002-7.171-7.173-7.172-18.801 0-25.976 7.172-7.171 18.805-7.171 25.975 0 7.173 7.172 7.173 18.804.001 25.974z" style="fill:url(#b)"/><radialGradient id="c" cx="233.769" cy="-262.562" r="24.968" gradientTransform="matrix(.38 .4578 .6813 -.4751 99.944 -225.786)" gradientUnits="userSpaceOnUse"><stop offset="0" style="stop-color:#fff"/><stop offset="1" style="stop-color:#fff;stop-opacity:0"/></radialGradient><path d="M20.473 18.446c4.858-3.384 6.597-8.774 3.887-12.032-2.709-3.266-8.84-3.168-13.693.218-4.858 3.385-6.598 8.774-3.889 12.039 2.711 3.266 8.845 3.164 13.695-.225z" style="fill:url(#c)"/><radialGradient id="d" cx="-3046.99" cy="-1531.043" r="24.966" gradientTransform="matrix(-.2367 -.2116 -.5502 .3241 -1533.011 -111.435)" gradientUnits="userSpaceOnUse"><stop offset="0" style="stop-color:#fff"/><stop offset="1" style="stop-color:#fff;stop-opacity:0"/></radialGradient><path d="M23.975 31.357c-3.922 2.309-5.733 5.404-4.045 6.909 1.688 1.51 6.233.86 10.152-1.449 3.923-2.31 5.734-5.403 4.046-6.913-1.688-1.51-6.235-.857-10.153 1.453z" style="fill:url(#d)"/><radialGradient id="e" cx="310.752" cy="-888.249" r="6.736" gradientTransform="matrix(.6981 .2086 .2211 -.8118 -17.005 -763.403)" gradientUnits="userSpaceOnUse"><stop offset="0" style="stop-color:#fff"/><stop offset="1" style="stop-color:#fff;stop-opacity:0"/></radialGradient><path d="M8.722 23.998c.427-1.561-.317-3.152-1.659-3.551-1.342-.401-2.776.538-3.2 2.099-.426 1.56.318 3.151 1.66 3.553 1.343.401 2.776-.54 3.199-2.101z" style="fill:url(#e)"/><radialGradient id="f" cx="179.105" cy="-254.026" r="8.802" gradientTransform="scale(-1.5907 1.5907) rotate(45 -268.597 -364.549)" gradientUnits="userSpaceOnUse"><stop offset="0" style="stop-color:#fff"/><stop offset=".268" style="stop-color:#fcfeff"/><stop offset=".503" style="stop-color:#f1fdff"/><stop offset=".725" style="stop-color:#dffaff"/><stop offset=".939" style="stop-color:#c6f5ff"/><stop offset="1" style="stop-color:#bdf4ff"/></radialGradient><path d="M57.9 57.9c5.466-5.468 5.466-14.333 0-19.799-5.468-5.469-14.332-5.467-19.801-.001-5.465 5.468-5.465 14.332.001 19.8 5.468 5.467 14.334 5.466 19.8 0z" style="fill:url(#f)"/><radialGradient id="g" cx="469.786" cy="-135.045" r="13.534" gradientTransform="scale(-1 1) rotate(45 -10.063 -668.544)" gradientUnits="userSpaceOnUse"><stop offset="0" style="stop-color:#8aebef;stop-opacity:.6"/><stop offset=".26" style="stop-color:#a8def6;stop-opacity:.6"/><stop offset=".582" style="stop-color:#d2ccff;stop-opacity:.6"/><stop offset="1" style="stop-color:#d2ccff;stop-opacity:.2"/></radialGradient><path d="M57.569 57.569c-5.285 5.288-13.854 5.286-19.14.001-5.284-5.286-5.285-13.853 0-19.14 5.285-5.284 13.855-5.284 19.14 0 5.285 5.285 5.285 13.856 0 19.139z" style="fill:url(#g)"/><radialGradient id="h" cx="305.464" cy="-258.63" r="18.398" gradientTransform="matrix(.38 .4578 .6813 -.4751 99.944 -225.786)" gradientUnits="userSpaceOnUse"><stop offset="0" style="stop-color:#fff"/><stop offset="1" style="stop-color:#fff;stop-opacity:0"/></radialGradient><path d="M47.612 46.118c3.579-2.494 4.861-6.465 2.864-8.866-1.996-2.407-6.513-2.333-10.089.161-3.58 2.494-4.862 6.465-2.866 8.871 1.998 2.407 6.517 2.33 10.091-.166z" style="fill:url(#h)"/><radialGradient id="i" cx="-3152.909" cy="-1529.96" r="18.395" gradientTransform="matrix(-.2367 -.2116 -.5502 .3241 -1533.011 -111.435)" gradientUnits="userSpaceOnUse"><stop offset="0" style="stop-color:#fff"/><stop offset="1" style="stop-color:#fff;stop-opacity:0"/></radialGradient><path d="M50.191 55.631c-2.89 1.701-4.224 3.981-2.98 5.091 1.244 1.112 4.593.634 7.48-1.068 2.892-1.702 4.226-3.981 2.982-5.093-1.243-1.113-4.594-.632-7.482 1.07z" style="fill:url(#i)"/><radialGradient id="j" cx="362.203" cy="-907.801" r="4.963" gradientTransform="matrix(.6981 .2086 .2211 -.8118 -17.005 -763.403)" gradientUnits="userSpaceOnUse"><stop offset="0" style="stop-color:#fff"/><stop offset="1" style="stop-color:#fff;stop-opacity:0"/></radialGradient><path d="M38.953 50.209c.314-1.15-.234-2.322-1.223-2.616-.989-.296-2.045.396-2.358 1.546-.314 1.149.234 2.321 1.223 2.617.99.296 2.046-.397 2.358-1.547z" style="fill:url(#j)"/><radialGradient id="k" cx="165.325" cy="-263.361" r="5.658" gradientTransform="scale(-1.5907 1.5907) rotate(45 -268.597 -364.549)" gradientUnits="userSpaceOnUse"><stop offset="0" style="stop-color:#fff"/><stop offset=".268" style="stop-color:#fcfeff"/><stop offset=".503" style="stop-color:#f1fdff"/><stop offset=".725" style="stop-color:#dffaff"/><stop offset=".939" style="stop-color:#c6f5ff"/><stop offset="1" style="stop-color:#bdf4ff"/></radialGradient><path d="M59.365 28.365a9.003 9.003 0 0 0-12.73-12.73 9.004 9.004 0 0 0 .001 12.729c3.515 3.515 9.214 3.514 12.729.001z" style="fill:url(#k)"/><radialGradient id="l" cx="447.865" cy="-149.894" r="8.701" gradientTransform="scale(-1 1) rotate(45 -10.063 -668.544)" gradientUnits="userSpaceOnUse"><stop offset="0" style="stop-color:#8aebef;stop-opacity:.6"/><stop offset=".26" style="stop-color:#a8def6;stop-opacity:.6"/><stop offset=".582" style="stop-color:#d2ccff;stop-opacity:.6"/><stop offset="1" style="stop-color:#d2ccff;stop-opacity:.2"/></radialGradient><path d="M59.152 28.152c-3.397 3.399-8.906 3.398-12.305.001a8.704 8.704 0 0 1 0-12.305c3.397-3.396 8.908-3.396 12.304 0 3.398 3.398 3.398 8.908.001 12.304z" style="fill:url(#l)"/><radialGradient id="m" cx="282.607" cy="-234.252" r="11.826" gradientTransform="matrix(.38 .4578 .6813 -.4751 99.944 -225.786)" gradientUnits="userSpaceOnUse"><stop offset="0" style="stop-color:#fff"/><stop offset="1" style="stop-color:#fff;stop-opacity:0"/></radialGradient><path d="M52.75 20.791c2.301-1.604 3.125-4.156 1.841-5.7-1.283-1.547-4.187-1.5-6.485.104-2.301 1.603-3.125 4.156-1.842 5.703 1.284 1.546 4.189 1.498 6.486-.107z" style="fill:url(#m)"/><radialGradient id="n" cx="-3070.93" cy="-1569.729" r="11.825" gradientTransform="matrix(-.2367 -.2116 -.5502 .3241 -1533.011 -111.435)" gradientUnits="userSpaceOnUse"><stop offset="0" style="stop-color:#fff"/><stop offset="1" style="stop-color:#fff;stop-opacity:0"/></radialGradient><path d="M54.409 26.906c-1.857 1.093-2.715 2.559-1.916 3.272.799.715 2.953.408 4.809-.687 1.858-1.093 2.716-2.559 1.917-3.273-.8-.715-2.954-.406-4.81.688z" style="fill:url(#n)"/><radialGradient id="o" cx="365.39" cy="-874.468" r="3.191" gradientTransform="matrix(.6981 .2086 .2211 -.8118 -17.005 -763.403)" gradientUnits="userSpaceOnUse"><stop offset="0" style="stop-color:#fff"/><stop offset="1" style="stop-color:#fff;stop-opacity:0"/></radialGradient><path d="M47.185 23.42c.202-.739-.15-1.493-.786-1.682-.636-.19-1.315.255-1.516.994-.202.739.151 1.492.787 1.683.635.19 1.313-.255 1.515-.995z" style="fill:url(#o)"/><radialGradient id="p" cx="190.072" cy="-265.417" r="3.646" gradientTransform="scale(-1.5907 1.5907) rotate(45 -268.597 -364.549)" gradientUnits="userSpaceOnUse"><stop offset="0" style="stop-color:#fff"/><stop offset=".268" style="stop-color:#fcfeff"/><stop offset=".503" style="stop-color:#f1fdff"/><stop offset=".725" style="stop-color:#dffaff"/><stop offset=".939" style="stop-color:#c6f5ff"/><stop offset="1" style="stop-color:#bdf4ff"/></radialGradient><path d="M26.953 51.626a5.801 5.801 0 1 0-8.204-8.202 5.801 5.801 0 0 0 8.204 8.202z" style="fill:url(#p)"/><radialGradient id="q" cx="487.232" cy="-153.165" r="5.607" gradientTransform="scale(-1 1) rotate(45 -10.063 -668.544)" gradientUnits="userSpaceOnUse"><stop offset="0" style="stop-color:#8aebef;stop-opacity:.6"/><stop offset=".26" style="stop-color:#a8def6;stop-opacity:.6"/><stop offset=".582" style="stop-color:#d2ccff;stop-opacity:.6"/><stop offset="1" style="stop-color:#d2ccff;stop-opacity:.2"/></radialGradient><path d="M26.815 51.488a5.605 5.605 0 0 1-7.929 0 5.609 5.609 0 0 1 0-7.929 5.606 5.606 0 1 1 7.929 7.929z" style="fill:url(#q)"/><radialGradient id="r" cx="294.138" cy="-282.189" r="7.621" gradientTransform="matrix(.38 .4578 .6813 -.4751 99.944 -225.786)" gradientUnits="userSpaceOnUse"><stop offset="0" style="stop-color:#fff"/><stop offset="1" style="stop-color:#fff;stop-opacity:0"/></radialGradient><path d="M22.69 46.745c1.483-1.033 2.014-2.678 1.186-3.673-.827-.997-2.698-.966-4.179.067-1.483 1.033-2.014 2.678-1.187 3.675.827.996 2.7.965 4.18-.069z" style="fill:url(#r)"/><radialGradient id="s" cx="-3082.615" cy="-1506.97" r="7.62" gradientTransform="matrix(-.2367 -.2116 -.5502 .3241 -1533.011 -111.435)" gradientUnits="userSpaceOnUse"><stop offset="0" style="stop-color:#fff"/><stop offset="1" style="stop-color:#fff;stop-opacity:0"/></radialGradient><path d="M23.759 50.686c-1.197.705-1.75 1.649-1.234 2.109.515.461 1.903.263 3.099-.443 1.198-.704 1.75-1.649 1.235-2.109-.516-.462-1.904-.263-3.1.443z" style="fill:url(#s)"/><radialGradient id="t" cx="338.467" cy="-912.517" r="2.056" gradientTransform="matrix(.6981 .2086 .2211 -.8118 -17.005 -763.403)" gradientUnits="userSpaceOnUse"><stop offset="0" style="stop-color:#fff"/><stop offset="1" style="stop-color:#fff;stop-opacity:0"/></radialGradient><path d="M19.103 48.439c.13-.477-.097-.962-.507-1.084-.41-.123-.847.164-.977.641-.13.476.097.961.507 1.084.411.123.848-.164.977-.641z" style="fill:url(#t)"/></svg>