<svg xmlns="http://www.w3.org/2000/svg" xml:space="preserve" style="enable-background:new 0 0 64 64" viewBox="0 0 64 64"><path d="M54.716 52.353c3.475-1.771 4.947-1.907 6.997-1.96 3.049-.078 3.051-21.762 0-21.762-1.893 0-4.138-.61-6.997-2.71v26.432z" style="fill:#ffae2c"/><path d="M54.716 26.811c2.445 1.55 4.698 1.821 6.997 1.821-2.329-.499-4.478-1.487-6.997-3.441v1.62zm0 24.764v1.302c3.699-1.962 4.909-2.085 6.997-2.483-2.095.054-3.662-.285-6.997 1.181z" style="fill:#db942d"/><radialGradient id="a" cx="2086.513" cy="-2424.431" r="43.338" gradientTransform="matrix(1.0116 .006 .0053 .8601 -2080.67 2108.45)" gradientUnits="userSpaceOnUse"><stop offset=".689" style="stop-color:#ffc940"/><stop offset=".969" style="stop-color:#ffb12e"/><stop offset="1" style="stop-color:#ffae2c"/></radialGradient><path d="M30.872 12.749c.371 7.921 11.305 11.691-.86 12.792-5.22.472-12.39.481-21.674.537-4.844.029-4.137 6.776-.678 6.901 6.605.239 20.951.377 20.951.377s-23.536.572-24.877.588c-3.646.042-4.458 7.255.377 7.438 6.586.25 24.063.43 24.063.43s-16.851.272-21.717.556c-3.366.196-3.405 6.178.625 6.504 3.86.312 21.123.589 21.123.589s-10.535.244-12.785.195c-4.007-.087-3.416 5.411.202 5.955 5.062.76 10.639.783 15.203 1.182 17.901 1.565 29.185-.505 27.673-16.483 2.611-21.162-13.042-15.699-22.945-32.823-1.588-2.745-4.889.814-4.681 5.262z" style="fill:url(#a)"/><path d="M30.319 10.617c-.758 7.193 3.647 9.194 4.574 12.988.48 1.963-16.385 1.652-24.738 1.699l-1.821.01c-2.852.017-4.159 2.07-4.188 4.098l-.001.068c0 1.409.614 2.861 1.714 3.655-1.15.026-1.924.043-2.135.045-2.384.028-3.699 2.34-3.726 4.5-.015 2.184 1.225 4.355 4.084 4.463.215.009.442.017.68.025-.922.643-1.498 1.783-1.512 3.167l-.001.049c0 1.908 1.174 4.037 3.772 4.248 1.096.088 3.236.174 5.75.25-.531.568-.792 1.302-.847 1.985-.15 1.925 1.147 4.131 3.589 4.498 3.275.492 6.707.675 10.026.853 1.847.098 3.592.192 5.22.334 12.918 1.131 26.584 1.023 28.003-11.588-3.376 9.908-11.043 11.54-27.878 10.068-1.653-.144-3.409-.239-5.268-.338-3.285-.176-6.682-.358-9.89-.839-1.56-.235-2.426-1.652-2.328-2.862.083-1.026.813-1.6 2.004-1.574 2.24.049 13.822-.479 13.822-.479l-.252-1.149s-18.042-.374-21.835-.681c-1.667-.134-2.409-1.459-2.409-2.724l.001-.035c.011-1.055.562-2.152 1.767-2.222 4.795-.28 22.024-.755 22.024-.755l-.004-1.124s-17.879-.385-24.379-.63c-1.963-.076-2.659-1.523-2.659-2.871V37.7c.018-1.459.87-2.978 2.263-2.994 1.33-.016 25.08-.824 25.08-.824l-.011-1.116s-14.606-.314-21.126-.551c-1.314-.047-2.065-1.429-2.061-2.781.009-.605.23-2.58 2.717-2.595l1.821-.011c8.386-.047 25.709.987 26.348-2.558.631-3.501-5.478-5.528-4.714-13.384.253-2.604 2.504-4.349 3.292-2.65 5.617 12.116 16.659 9.246 23.456 24.353-2.921-14.65-17.832-14.78-22.102-25.014-1.391-3.336-5.704-.921-6.122 3.042z" style="fill:#db942d"/><path d="M29.305 31.822c-.392 2.113-.095 3.2-.095 3.2s-.516-1.402-1.813-1.694c1.298-.571 1.908-1.506 1.908-1.506zm-.079 8.488c-.579 1.411 0 3.296 0 3.296s-.981-1.401-2.104-1.819a6.712 6.712 0 0 0 2.104-1.477zm-1.469 9.173c1.506.115 2.245 1.47 2.245 1.47s-.355-1.208-.756-3.47c.001 0-.336 1.426-1.489 2z" style="fill:#db942d"/><path d="M36.867 28.854c3.774 11.665 13.688 11.92 17.691 11.241.858-.146.546-.437-.023-.49-4.216-.395-12.704-1.722-17.268-10.968-.438-.887-.708-.735-.4.217z" style="opacity:.3;fill:#db942d"/></svg>