<svg xmlns="http://www.w3.org/2000/svg" xml:space="preserve" style="enable-background:new 0 0 64 64" viewBox="0 0 64 64"><path d="M35.516 20.82c-4.189 2.465-4.084-2.706-2.384-3.258 2.035-.66 4.262-1.476 4.871-1.597 3.774-.752-1.296 4.154-2.487 4.855z" style="fill:#ffae2c"/><path d="M33.565 22.226c-.547 0-.956-.164-1.249-.363-.774-.522-1.152-1.572-.99-2.741.158-1.135.763-2.005 1.577-2.27a158.23 158.23 0 0 0 2.332-.783c1.407-.48 2.222-.756 2.623-.836 1.188-.237 1.917-.003 2.18.694.687 1.827-3.802 5.331-4.15 5.536h-.001c-.958.566-1.723.763-2.322.763zm4.983-5.589a3.323 3.323 0 0 0-.402.059c-.326.065-1.351.415-2.436.785-.743.254-1.562.533-2.352.79-.216.07-.487.485-.567 1.058-.081.58.059 1.101.348 1.296.368.247 1.097.084 2.002-.448.855-.503 2.95-2.602 3.407-3.54z" style="fill:#db942d"/><radialGradient id="a" cx="43.822" cy="30.823" r="18.688" gradientTransform="matrix(.9645 .2014 -.2633 1.3413 10.707 -19.742)" gradientUnits="userSpaceOnUse"><stop offset=".576" style="stop-color:#ffc940"/><stop offset=".757" style="stop-color:#ffc13a"/><stop offset="1" style="stop-color:#ffae2c"/></radialGradient><path d="M63.545 34.988c-2.03-1.649-3.153-7.677-4.626-8.722-6.47-4.591-10.6-10.785-12.599-11.451-1.055-.352-5.831.695-8.383 1.107-.761.123-2.917 2.823-5.298 5.249-1.058 1.078.216 4.93 2.388 3.569 1.532-.961 3.843-3.028 4.477-3.327.508-.24 3.313-.088 4.149.31.95.451 4.118 2.862 4.118 9.173 0 7.101-10.683 7.1-15.204 13.443-1.275 1.789-.123 6.407 1.845 4.441 3.343-3.34 11.386-5.702 13.191-4.669 6.151 3.521 6.841-.053 10.593 2.294 3.212 2.01 7.156-9.949 5.349-11.417z" style="fill:url(#a)"/><path d="M37.572 46.111c-1.437.812-2.829 1.878-3.315 2.219-.542.381-.869-.661-.656-1.21.287-.742 1.359-1.83 2.935-2.422.533-.2 1.455 1.177 1.036 1.413zm-2.85-26.677c-.788.876-1.533 1.464-1.853 1.748-.357.317.207 1.066.67 1.015.626-.069 1.611-.749 2.232-1.765.211-.343-.819-1.253-1.049-.998z" style="opacity:.3;fill:#fff"/><path d="M59.088 25.685c-3.503-2.55-6.17-5.604-8.283-7.844-1.92-2.036-3.188-3.38-4.254-3.734-.91-.305-3.208.081-6.603.702-.783.143-1.52.278-2.129.376-.733.118-1.599 1.035-3.488 3.095a133.51 133.51 0 0 1-2.22 2.366c-2.21 2.295.426 5.991 3.305 4.725 1.686-.741 4.143-3.164 4.349-3.265.512-.132 2.912-.023 3.57.29.038.017 3.694 1.832 3.694 8.499 0 3.602-3.093 5.205-6.674 7.061-2.788 1.445-6.348 3.083-8.391 5.948-1.072 1.503-.826 4.586.455 5.686.28.241.651.41 1.069.41.445 0 .943-.192 1.443-.691 3.293-3.29 10.983-5.308 12.304-4.55 3.612 2.066 5.485 1.596 7.038 1.399 1.174-.149 2.414-.468 3.921.247-1.657-1.487-2.773-1.203-4.025-1.042-1.465.187-3.017-.076-6.203-1.9-2.318-1.33-10.776 1.49-14.077 4.788-.346.345-.448.258-.51.205-.596-.512-.925-2.683-.213-3.682 1.834-2.574 5.098-4.058 7.866-5.492 3.845-1.992 7.476-3.875 7.476-8.386 0-7.602-4.357-9.759-4.542-9.847-.892-.424-3.973-.69-4.779-.311-.365.173-2.535 2.546-4.554 3.369-1.227.5-2.438-1.491-1.649-2.329.773-.822 1.735-1.723 2.434-2.485 1.018-1.111 2.286-2.494 2.635-2.634.618-.1 1.365-.237 2.16-.382 1.834-.335 5.248-.957 5.873-.754.713.237 2.071 1.678 3.645 3.346 2.155 2.285 5.41 5.327 8.904 7.832 1.761 1.262 1.336 5.031 4.909 8.288-2.75-4.045-2.595-7.949-4.456-9.304z" style="fill:#db942d"/><path d="M28.484 20.82c4.189 2.465 4.084-2.706 2.384-3.258-2.035-.66-4.262-1.476-4.871-1.597-3.774-.752 1.296 4.154 2.487 4.855z" style="fill:#ffae2c"/><path d="M28.111 21.463h-.001c-.348-.205-4.837-3.709-4.15-5.536.263-.696.992-.931 2.18-.694.402.08 1.217.356 2.623.836.736.251 1.548.528 2.332.783.814.265 1.419 1.135 1.577 2.27.163 1.169-.216 2.219-.99 2.741a2.183 2.183 0 0 1-1.249.363c-.597 0-1.361-.197-2.322-.763zm.747-1.286c.905.532 1.634.695 2.002.448.289-.195.429-.716.348-1.296-.08-.574-.351-.988-.566-1.058-.79-.257-1.609-.536-2.352-.79-1.085-.37-2.11-.72-2.436-.785a3.268 3.268 0 0 0-.402-.059c.457.938 2.552 3.037 3.406 3.54z" style="fill:#db942d"/><radialGradient id="b" cx="143.01" cy="30.823" r="18.688" gradientTransform="matrix(-.9645 .2014 .2633 1.3413 148.962 -39.717)" gradientUnits="userSpaceOnUse"><stop offset=".576" style="stop-color:#ffc940"/><stop offset=".757" style="stop-color:#ffc13a"/><stop offset="1" style="stop-color:#ffae2c"/></radialGradient><path d="M.455 34.988c2.03-1.649 3.153-7.677 4.626-8.722 6.47-4.591 10.601-10.785 12.599-11.451 1.055-.352 5.831.695 8.383 1.107.761.123 2.917 2.823 5.298 5.249 1.057 1.078-.216 4.93-2.387 3.569-1.532-.961-3.843-3.028-4.477-3.327-.508-.24-3.313-.088-4.149.31-.95.451-4.118 2.862-4.118 9.173 0 7.101 10.683 7.1 15.204 13.443 1.275 1.789.123 6.407-1.845 4.441-3.343-3.34-11.386-5.702-13.191-4.669-6.151 3.521-6.841-.053-10.593 2.294-3.213 2.01-7.157-9.949-5.35-11.417z" style="fill:url(#b)"/><path d="M26.428 46.111c1.437.812 2.829 1.878 3.315 2.219.542.381.869-.661.656-1.21-.287-.742-1.359-1.83-2.935-2.422-.533-.2-1.455 1.177-1.036 1.413zm2.85-26.677c.788.876 1.533 1.464 1.853 1.748.357.317-.207 1.066-.67 1.015-.626-.069-1.611-.749-2.232-1.765-.211-.343.819-1.253 1.049-.998z" style="opacity:.3;fill:#fff"/><path d="M4.912 25.685c3.503-2.55 6.17-5.604 8.283-7.844 1.92-2.036 3.188-3.38 4.254-3.734.91-.305 3.208.081 6.603.702.783.143 1.52.278 2.129.376.733.118 1.599 1.035 3.488 3.095.688.751 1.449 1.566 2.22 2.366 2.21 2.295-.426 5.991-3.305 4.725-1.686-.741-4.143-3.164-4.349-3.265-.512-.132-2.912-.023-3.57.29-.038.017-3.694 1.832-3.694 8.499 0 3.602 3.093 5.205 6.674 7.061 2.788 1.445 6.348 3.083 8.391 5.948 1.072 1.503.826 4.586-.455 5.686-.28.241-.651.41-1.069.41-.445 0-.943-.192-1.443-.691-3.293-3.29-10.983-5.308-12.305-4.55-3.612 2.066-5.485 1.596-7.038 1.399-1.174-.149-2.414-.468-3.92.247 1.657-1.487 2.773-1.203 4.025-1.042 1.465.187 3.017-.076 6.203-1.9 2.318-1.33 10.776 1.49 14.077 4.788.346.345.448.258.51.205.596-.512.925-2.683.213-3.682-1.834-2.574-5.098-4.058-7.866-5.492-3.845-1.992-7.477-3.875-7.477-8.386 0-7.602 4.357-9.759 4.542-9.847.892-.424 3.973-.69 4.779-.311.365.173 2.534 2.546 4.554 3.369 1.227.5 2.438-1.491 1.649-2.329-.773-.822-1.735-1.723-2.434-2.485-1.018-1.111-2.286-2.494-2.635-2.634-.618-.1-1.365-.237-2.16-.382-1.834-.335-5.248-.957-5.873-.754-.713.237-2.072 1.678-3.645 3.346-2.155 2.285-5.41 5.327-8.904 7.832-1.761 1.262-1.336 5.031-4.909 8.288 2.751-4.045 2.596-7.949 4.457-9.304z" style="fill:#db942d"/></svg>