<svg xmlns="http://www.w3.org/2000/svg" xml:space="preserve" style="enable-background:new 0 0 64 64" viewBox="0 0 64 64"><path d="M35.669 28c.837 1.704 3.164 4.061 3.11 5.23-.237 5.112 4.235 5.416 4.237 2.775.003-3.053-.213-5.298-3.057-10.519l-4.29 2.515z" style="fill:#69452d"/><path d="M43.053 37.855a2.094 2.094 0 0 1-.48.335c-.829.424-1.885.297-2.757-.331-1.237-.894-1.891-2.615-1.793-4.722.018-.397-.912-1.671-1.467-2.432-.583-.799-1.186-1.625-1.555-2.378l1.336-.654c.302.615.86 1.379 1.399 2.117.99 1.358 1.846 2.53 1.8 3.53-.07 1.516.323 2.7 1.08 3.245.405.292.873.362 1.222.185.275-.142.42-.417.42-.8.004-2.91-.193-5.04-2.95-10.103l1.303-.72c2.948 5.413 3.166 7.843 3.162 10.932 0 .738-.257 1.367-.72 1.797z" style="fill:#543b28"/><path d="M38.583 28.664c3.116 3.593 6.013 5.87 6.668 7.194 3.471 7.006 8.747 4.933 6.516 1.647-2.712-3.995-3.554-6.365-8.977-11.94l-4.207 3.099z" style="fill:#69452d"/><path d="M52.17 40.868c-.449.33-1.038.5-1.702.473-2.127-.085-4.324-2.008-5.878-5.144-.284-.576-1.31-1.59-2.496-2.764-1.148-1.135-2.577-2.549-4.049-4.245l1.075-1.048c1.428 1.647 2.831 3.034 3.959 4.15 1.402 1.388 2.416 2.39 2.832 3.23 1.505 3.037 3.32 4.17 4.519 4.22.505.02.908-.162 1.053-.475.15-.32.035-.801-.315-1.318a83.352 83.352 0 0 1-1.796-2.784c-1.651-2.639-3.077-4.917-7.086-9.038l1.007-1.12c4.137 4.252 5.68 6.718 7.313 9.328.539.86 1.092 1.744 1.76 2.729.703 1.035.875 2.125.472 2.989a2.12 2.12 0 0 1-.669.817z" style="fill:#543b28"/><path d="M42.359 27.385c3.507 3.144 6.63 5 7.441 6.232 4.288 6.514 9.187 3.658 6.586.692-3.163-3.607-4.289-5.86-10.305-10.651l-3.722 3.727z" style="fill:#69452d"/><path d="M56.949 37.843a2.76 2.76 0 0 1-1.363.503c-2.09.216-4.48-1.392-6.392-4.297-.353-.537-1.486-1.402-2.796-2.405-1.268-.969-2.846-2.175-4.502-3.659l.925-1.2c1.607 1.44 3.156 2.624 4.4 3.576 1.55 1.186 2.672 2.042 3.185 2.823 1.852 2.814 3.767 3.687 4.942 3.566.508-.051.872-.287.98-.63.108-.347-.065-.815-.476-1.284a83.124 83.124 0 0 1-2.11-2.526c-1.953-2.403-3.638-4.478-8.085-8.021l.85-1.263c4.59 3.657 6.413 5.902 8.344 8.279a82.72 82.72 0 0 0 2.069 2.476c.822.938 1.128 2.006.837 2.933a2.21 2.21 0 0 1-.808 1.13z" style="fill:#543b28"/><linearGradient id="a" x1="1" x2="62.255" y1="31.674" y2="31.674" gradientUnits="userSpaceOnUse"><stop offset="0" style="stop-color:#69452d"/><stop offset=".114" style="stop-color:#79543b"/><stop offset=".311" style="stop-color:#916b50"/></linearGradient><path d="M2.772 30.765c2.759 0 6.306-.284 7.316.833 4.855 5.374 8.81 6.873 11.946 8.784 3.825 2.332 5.389 6.895 7.01 8.277 2.953 2.518 5.528-4.605 1.286-10.07-1.313-1.692-3.766-2.437-3.544-7.179.177-3.752 4.522-.33 13.638-2.51.916-.22 7.485 1.074 11.656 2.062 1.343.318 4.822 2.472 7.92 2.179 2.448-.233 2.822-3.378 1.51-3.867-2.24-.836-6.725-3.355-8.005-4.028-1.281-.673-8.922-3.34-10.644-3.87-6.819-2.095-11.12-2.179-14.697-3.607-14.324-5.72-19.556-2.916-25.392-2.916-2.363 0-2.363 15.912 0 15.912z" style="fill:url(#a)"/><path d="M25.861 43.553c1.289 1.68 2.408 3.637 2.813 4.283.452.722 1.31-.353 1.316-1.111.01-1.025-.729-2.85-2.28-4.337-.523-.502-2.224.675-1.849 1.165zM57.76 27.498c1.387.868 2.936 1.558 3.453 1.815.578.288-.013 1.153-.536 1.258-.705.141-2.095-.244-3.395-1.36-.439-.376.074-1.967.478-1.713z" style="opacity:.2;fill:#fff"/><path d="M61.719 28.51c-1.767-.658-5.087-2.457-6.87-3.423-.442-.24-.805-.436-1.05-.565-1.33-.7-8.835-3.342-10.756-3.933-4.316-1.326-7.004-1.967-9.951-2.482-1.815-.317-3.381-.59-4.68-1.109-11.105-4.434-20.618-2.832-25.64-2.145 3.206.07 14.357-.62 25.144 3.688 1.43.57 3.06.855 4.948 1.185 3.009.525 5.694 1.172 9.815 2.438 1.519.467 9.254 3.135 10.53 3.806.242.127.599.32 1.033.556 1.943 1.053 5.197 2.816 7.062 3.512.138.051.223.329.202.66-.037.555-.411 1.523-1.61 1.638-2.036.192-4.302-.786-5.958-1.5-.721-.313-1.291-.559-1.738-.664-6.934-1.641-10.915-2.201-11.947-2.072-3.071.385-5.903.25-7.839.18-3.863-.135-6.205-.221-6.361 3.088-.19 4.03 1.433 5.535 2.736 6.745.367.34.714.662.986 1.012 2.764 3.563 2.272 7.578 1.22 8.826-.45.53-.927.55-1.504.058-.495-.423-1.047-1.294-1.685-2.303-1.258-1.987-2.823-4.46-5.42-6.043a56.76 56.76 0 0 0-2.05-1.17c-2.79-1.543-6.192-2.847-9.972-7.03-1.058-1.172-6.161-.898-7.592-.698 3.675.1 6.602.563 7.21 1.235 3.949 4.37 6.955 6.441 9.702 7.96.7.388 1.366.756 1.997 1.141 2.298 1.4 3.754 3.7 4.924 5.55.708 1.119 1.32 2.084 1.993 2.659.542.462 1.116.69 1.672.69.65 0 1.274-.31 1.794-.927 1.57-1.86 2.054-6.855-1.18-11.021-.348-.45-.759-.83-1.156-1.199-1.213-1.126-2.359-2.189-2.208-5.4.071-1.53.575-1.69 4.847-1.535 1.964.07 5.024.185 8.186-.213.941-.018 8.48 1.354 11.406 2.046.321.076.865.31 1.493.582 1.698.733 4.262 1.84 6.653 1.613 1.86-.176 2.8-1.703 2.888-3.047.074-1.135-.426-2.073-1.274-2.389z" style="fill:#543b28"/></svg>