<svg xmlns="http://www.w3.org/2000/svg" xml:space="preserve" style="enable-background:new 0 0 64 64" viewBox="0 0 64 64"><path d="M29.28 38c4.418-1.815 12.704-4.509 13.85-5.461 6.062-5.037 10.444.078 7.01 2.094-4.175 2.451-10.483 6.419-17.914 8.898L29.28 38z" style="fill:#ffae2c"/><path d="M51.811 31.488c-.314-.589-.827-1.099-1.488-1.453-2.116-1.137-4.999-.47-7.712 1.784-.498.415-1.888.843-3.496 1.338-1.556.48-8.075 3.151-10.162 4.007l.528 1.407c2.025-.833 8.51-3.492 10.038-3.963 1.902-.587 3.276-1.01 4.002-1.613 2.628-2.184 4.838-2.278 6.03-1.638.502.271.955.947.978 1.345.025.408-.27.825-.809 1.141a71.096 71.096 0 0 0-2.817 1.762c-2.621 1.7-9.466 5.241-14.959 7.072l.561 1.704c5.669-1.889 12.7-5.552 15.291-7.233.854-.553 1.733-1.123 2.761-1.727 1.082-.634 1.664-1.63 1.597-2.729a2.896 2.896 0 0 0-.343-1.204z" style="fill:#db942d"/><path d="M36.109 38.897c4.418-1.815 12.704-4.509 13.849-5.461 6.062-5.037 10.444.078 7.01 2.094-4.175 2.451-10.483 6.419-17.914 8.898l-2.945-5.531z" style="fill:#ffae2c"/><path d="M58.64 32.385c-.314-.589-.827-1.099-1.488-1.453-2.116-1.137-4.999-.47-7.712 1.784-.498.415-1.888.843-3.496 1.338-1.556.48-8.075 3.151-10.162 4.007l.558 1.325c2.025-.833 8.51-3.492 10.038-3.963 1.902-.587 3.276-1.01 4.002-1.613 2.628-2.184 4.838-2.278 6.03-1.638.502.271.926 1.03.949 1.427.025.408-.27.825-.809 1.141a71.096 71.096 0 0 0-2.817 1.762c-2.621 1.7-9.466 5.241-14.959 7.072l.561 1.704c5.669-1.889 12.7-5.552 15.291-7.232.854-.553 1.733-1.123 2.761-1.727 1.082-.634 1.664-1.63 1.597-2.729a2.938 2.938 0 0 0-.344-1.205z" style="fill:#db942d"/><path d="M39.114 38.311c4.713-.648 13.384-1.175 14.719-1.81 7.066-3.36 10.111 2.705 6.306 3.796-4.627 1.326-11.68 3.587-19.471 4.12l-1.554-6.106z" style="fill:#ffae2c"/><path d="M62.5 37.668c-.166-.651-.543-1.275-1.101-1.784-1.784-1.636-4.738-1.715-7.9-.211-.581.277-2.029.342-3.706.418-1.622.074-8.574 1.023-10.8 1.328l.144 1.439c2.16-.298 9.076-1.244 10.669-1.317 1.983-.091 3.415-.155 4.262-.557 3.063-1.457 5.229-.992 6.234-.071.424.389.739 1.218.668 1.609-.072.403-.456.732-1.054.903-1.163.333-2.17.671-3.147 1-2.942.989-10.416 2.7-16.174 3.093l.143 1.794c5.943-.405 13.625-2.187 16.534-3.166.959-.321 1.945-.653 3.085-.98 1.199-.343 1.998-1.162 2.192-2.245.076-.413.056-.84-.049-1.253z" style="fill:#db942d"/><linearGradient id="a" x1="1" x2="62.267" y1="-206.98" y2="-206.98" gradientTransform="matrix(1 0 0 -1 0 -174.98)" gradientUnits="userSpaceOnUse"><stop offset="0" style="stop-color:#ffae2c"/><stop offset=".031" style="stop-color:#ffb12e"/><stop offset=".311" style="stop-color:#ffc940"/></linearGradient><path d="M2.702 33.333c2.651 0 6.06.281 7.03-.822 4.666-5.3 8.869-5.337 11.54-7.742 3.258-2.934 4.025-7.642 5.344-9.269 2.402-2.963 5.955 3.51 2.793 9.564-.978 1.873-2.095 4.379-2.233 7.595-.115 2.677 9.211 3.84 14.298 5.821.846.329 8.052.378 12.008 1.535 1.274.373 5.165.181 7.647 1.934 1.961 1.385 1.06 5.022-.263 4.813-2.261-.357-7.142-.376-8.521-.41-1.379-.034-8.238.037-9.962.185-6.823.584-8.235.864-12.958 1.799-7.53 1.491-21.114.691-26.723.691-2.27 0-2.27-15.694 0-15.694z" style="fill:url(#a)"/><path d="M24.555 21.205c.957-1.857 1.711-3.956 1.993-4.654.315-.78 1.296.115 1.421.851.169.994-.245 2.897-1.48 4.612-.419.579-2.213-.268-1.934-.809zm32.319 25.033c1.555-.085 3.168.064 3.718.09.615.029.5-1.008.107-1.352-.532-.464-1.875-.801-3.467-.46-.538.116-.811 1.747-.358 1.722z" style="opacity:.3;fill:#fff"/><path d="M61.545 41.321c-1.928-1.361-4.588-1.639-6.349-1.822-.65-.068-1.211-.127-1.513-.215-2.616-.765-6.611-1.059-9.255-1.253-1.146-.084-2.446-.18-2.694-.262-1.695-.66-3.847-1.23-5.926-1.781-3.165-.839-7.947-2.107-7.897-3.294.13-3.036 1.157-5.377 2.145-7.267 2.462-4.715 1.175-9.578-.833-10.989-1.065-.748-2.278-.526-3.17.574-.547.674-.974 1.717-1.468 2.925-.82 2.004-1.841 4.498-3.797 6.259-.93.837-2.099 1.38-3.455 2.009-2.292 1.063-4.928 2.48-7.93 5.889-.585.665-2.818 1.193-6.703 1.24 2.616.39 6.541.863 7.574-.31 2.795-3.175 5.38-4.374 7.66-5.431 1.401-.65 2.725-1.264 3.818-2.249 2.212-1.992 3.307-4.666 4.185-6.814.448-1.095.836-2.041 1.24-2.54.528-.648.928-.497 1.218-.293 1.259.884 2.528 4.865.365 9.007-1.004 1.922-2.176 4.56-2.32 7.923-.104 2.422 4.115 3.54 9 4.835 2.042.541 4.153 1.101 5.774 1.732.386.15 1.231.217 3.108.355 2.584.19 6.488.477 8.958 1.199.426.125 1.018.186 1.766.264 1.709.179 4.048.423 5.667 1.566.792.559.906 1.65.763 2.416-.126.671-.41.995-.501 1.018-1.949-.308-5.701-.369-7.716-.403l-.898-.017c-1.408-.033-8.293.038-10.04.187-6.858.587-8.288.87-13.036 1.81-5.79 1.146-12.644 1.101-19.033.996-1.873-.031-4.429.086-7.552.442 5.76.214 10.092.973 13.103.973 4.922 0 10.076-.187 13.771-.919 4.679-.926 6.091-1.206 12.871-1.786 1.665-.143 8.526-.215 9.885-.182l.909.016c1.981.033 5.668.093 7.518.385.815.131 1.561-.448 1.961-1.499.561-1.477.342-3.624-1.173-4.694z" style="fill:#db942d"/></svg>