<svg xmlns="http://www.w3.org/2000/svg" xml:space="preserve" style="enable-background:new 0 0 64 64" viewBox="0 0 64 64"><linearGradient id="a" x1="91.99" x2="108.152" y1="93.431" y2="94.243" gradientTransform="rotate(45.001 163.865 -35.295)" gradientUnits="userSpaceOnUse"><stop offset=".653" style="stop-color:#ffc940"/><stop offset="1" style="stop-color:#ffae2c"/></linearGradient><path d="M25.336 25.322s4.88-10.658 4.229-16.528c-1.099-9.9 13.594-7.646 7.772 8.602l-12.001 7.926z" style="fill:url(#a)"/><path d="M24.548 24.96c.048-.104 4.772-10.509 4.154-16.071-.328-2.959.656-5.346 2.635-6.384 1.73-.908 3.905-.573 5.54.852 1.159 1.006 4.622 4.987 1.274 14.331l-1.632-.587c2.979-8.313.161-11.624-.781-12.435-1.107-.966-2.485-1.206-3.595-.624-1.342.704-1.968 2.4-1.717 4.655.671 6.04-4.098 16.543-4.302 16.986l-1.576-.723z" style="fill:#db942d"/><radialGradient id="b" cx="-1659.996" cy="-589.722" r="28.201" gradientTransform="matrix(-.7288 -.7299 .9235 -.9248 -622.775 -1731.506)" gradientUnits="userSpaceOnUse"><stop offset=".689" style="stop-color:#ffc940"/><stop offset=".969" style="stop-color:#ffb12e"/><stop offset="1" style="stop-color:#ffae2c"/></radialGradient><path d="M19.214 29.367c-3.346 3.74-8.179 14.696-11.877 18.399-2.659 2.663 11.217 16.56 13.877 13.896 5.128-5.135 9.21-2.7 15.516-5.538 3.56-1.602 13.302-8.327 16.884-13.651 1.295-1.925 2.119-4.803-.939-6.991 0 0 2.447-5.425-3.443-7.232 1.866-2.014 2.068-7.08-2.528-8.341 0 0 4.532-4.282 8.257-7.489 4.535-3.904-.365-9.138-5.489-5.867-6.092 3.891-15.871 11.754-20.286 14.595-4.186 2.695-7.401 5.346-9.972 8.219z" style="fill:url(#b)"/><path d="M54.333 42.959c1.956-2.906 1.702-5.761-.631-7.773.292-.951.656-2.79-.134-4.539-.553-1.225-1.556-2.172-2.984-2.816.752-1.389.973-3.213.52-4.805-.43-1.513-1.408-2.692-2.804-3.423 1.543-1.44 4.762-4.091 7.227-6.525 3.99-3.939-.778-11.241-6.519-7.257-3.27 2.269-7.873 5.52-11.859 8.5-3.318 2.481-6.452 4.823-8.429 6.097-4.222 2.716-7.542 5.453-10.151 8.369-1.623 1.816-3.774 5.999-5.076 8.889-1.823 4.044-4.266 8.197-6.156 10.09 2.055-2.058 4.993-5.534 7.241-9.489 1.945-3.422 3.782-6.655 5.282-8.331 2.503-2.798 5.707-5.437 9.796-8.068 2.029-1.305 5.186-3.666 8.529-6.165 3.962-2.963 8.534-6.314 11.704-8.614 3.852-2.795 6.981 2.577 4.837 4.594-3.554 3.343-8.57 7.542-8.616 7.584l-1.122 1.061 1.487.408c1.953.534 2.688 1.796 2.961 2.756.465 1.635-.071 3.328-.839 4.158l-.941 1.014 1.322.406c1.521.467 2.53 1.231 3.006 2.273.788 1.73-.092 3.755-.099 3.773l-.293.648.579.414c2.581 1.847 1.819 4.174.724 5.8-3.384 5.03-12.814 11.632-16.52 13.345-7.07 3.267-11.167 1.125-15.162 6.329 3.286-3.788 9.328-2.288 15.872-4.746 3.529-1.325 13.459-8.327 17.248-13.957z" style="fill:#db942d"/><path d="M37.496 38.811s11.03-9.069 12.451-10.313c.145-.127-.989-1.313-1.1-1.157-.888 1.244-11.351 11.47-11.351 11.47zm-4.626-7.81s12.987-9.648 14.435-10.861c.147-.124-.432-1.46-.582-1.34-2.167 1.736-13.853 12.201-13.853 12.201zm9.767 13.64s9.19-7.99 10.322-8.6c.17-.092-.145-1.683-.27-1.537-1.001 1.167-10.052 10.137-10.052 10.137z" style="fill:#db942d"/><path d="M48.956 8.819c.444-.493 1.466-1.348 1.845-1.649 1.776-1.414 5.149 2.838 3.373 4.252-.416.331-1.524 1.198-2.133 1.498-1.841.909-4.477-2.556-3.085-4.101z" style="opacity:.3;fill:#fff"/></svg>