<svg xmlns="http://www.w3.org/2000/svg" xml:space="preserve" style="enable-background:new 0 0 64 64" viewBox="0 0 64 64"><radialGradient id="a" cx="3555.303" cy="21.656" r="29.694" gradientTransform="matrix(-.9862 -.00002 -.00003 1.4025 3541.222 -9.288)" gradientUnits="userSpaceOnUse"><stop offset=".648" style="stop-color:#ffc940"/><stop offset=".793" style="stop-color:#ffc63e"/><stop offset=".91" style="stop-color:#ffbc36"/><stop offset="1" style="stop-color:#ffae2c"/></radialGradient><path d="M19.18 43.22c5.064.655 24.478 2.665 25.67.336 1.679-3.278 3.906-12.837 4.215-15.405.198-1.638 1.875-14.248 1.644-19.149-.079-1.671.86-3.265 1.877-2.826-.007-1.758-.159-3.06.15-3.743C54.064-.498 58.802.66 59.496 3.99c4.329 1.619 1.575 8.906 1.74 25.153 2.331 2.65 1.518 5.85 1.714 8.02 1.605 17.824-3.298 23.686-12.512 25.316-6.94 1.229-21.03 1.07-31.258 1.07-4.257 0-4.223-20.875 0-20.329z" style="fill:url(#a)"/><path d="M57.44 6.133c.267.491.157 3.62-.274 3.98-1.084.904-1.859.552-1.866.054-.01-.753.225-3.05.253-4.27.012-.514 1.711-.086 1.887.236zm1.715 23.981c.548.046.806 3.07.347 3.415-.702.527-3.526-.578-3.699-1.049-.189-.514-.45-2.772-.241-3.243.21-.474 1.476.699 3.593.877zM54.304 3.658c.242.497.202 3.656-.105 4.1-.277.4-1.234.687-1.563.4-.177-.155-.398-4.192-.025-4.951.22-.448 1.533.123 1.693.45zm-1.951 5.406c.216.366.278 2.812-.019 3.12-.747.772-1.528.406-1.556.018-.041-.586-.036-2.312-.07-3.265-.015-.402 1.502-.114 1.645.127z" style="opacity:.3;fill:#fff"/><path d="M59.368 4.705c.427.152.523-1.235.088-1.365-3.119-.932-4.62.801-4.671 2.325-.062 1.864-.02 9.19-.372 12.27-.414 3.623-1.476 12.43-1.476 12.43s1.733-8.755 2.308-12.391c.463-2.928.532-10.418.557-11.765.017-.888 1.302-2.312 3.566-1.504zm2.847 27.632c.183.422-.186-3.215-.431-3.604-1.397-2.21-5.06-2.66-6.65-.888-.774.863.791 5.98.077 7.93-1.266 3.461-.646 8.374-.646 8.374s-.255-4.839 1.133-8.69c.714-1.983-.57-6.82.484-7.184 2.282-.785 4.429.354 6.033 4.062zM51.931 5.815c1.11 8.045-.163 20.171-.163 20.171s1.788-9.464 1.546-20.286c-.02-.888-1.48-.591-1.383.115z" style="fill:#db942d"/><path d="M50.312 61.736c7.212-1.276 13.646-5.128 11.901-24.504-.05-.563-.038-1.164-.027-1.801.036-1.871.077-3.992-1.501-5.785l-.186-.212-.003-.284c-.057-5.57.228-10.071.455-13.688.444-7.036.534-9.925-1.71-10.764l-.383-.144-.085-.407c-.334-1.603-1.778-2.482-2.977-2.618-.522-.063-1.807-.062-2.388 1.22-.155.344-.132 1.209-.107 2.125.01.4.022.833.024 1.3l.005 1.143-1.033-.447c-.039-.015-.077-.031-.177.039-.357.254-.716 1.113-.672 2.057.228 4.866-.922 17.865-1.212 19.579-.19 1.12-1.74 7.324-3.615 13.113-.669 2.064-1.197 3.398-4.641 3.48-5.864.14-16.869-.564-22.8-1.918 3.894.236 17.062.91 22.707.688 2.614-.103 2.676-.825 3.375-2.86 1.968-5.734 3.353-11.804 3.516-12.76.285-1.684 1.417-14.466 1.193-19.25-.066-1.39.47-2.774 1.304-3.366.179-.127.367-.217.56-.27a61.78 61.78 0 0 0-.013-.486c-.034-1.239-.058-2.134.243-2.8.673-1.484 2.17-2.289 3.896-2.085 1.95.222 3.606 1.598 4.158 3.406 2.983 1.406 2.739 5.287 2.308 12.123-.222 3.53-.498 7.911-.454 13.3 1.778 2.18 1.73 4.624 1.693 6.6-.012.594-.022 1.156.02 1.634 1.499 16.643-2.295 24.26-13.122 26.128-6.493 1.121-25.592.844-31.384.327 8.253-.264 26.711-1.03 31.132-1.813z" style="fill:#db942d"/></svg>