<svg xmlns="http://www.w3.org/2000/svg" xml:space="preserve" style="enable-background:new 0 0 64 64" viewBox="0 0 64 64"><radialGradient id="a" cx="3554.59" cy="21.656" r="29.694" gradientTransform="matrix(.9862 -.00002 .00003 1.4025 -3476.519 -9.288)" gradientUnits="userSpaceOnUse"><stop offset=".648" style="stop-color:#b88a6f"/><stop offset=".766" style="stop-color:#b5876c"/><stop offset=".862" style="stop-color:#ab7d62"/><stop offset=".949" style="stop-color:#9a6c51"/><stop offset="1" style="stop-color:#8c5f44"/></radialGradient><path d="M44.82 43.22c-5.064.655-24.478 2.665-25.67.336-1.679-3.278-3.906-12.837-4.215-15.405-.198-1.638-1.875-14.248-1.644-19.149.079-1.671-.86-3.265-1.877-2.826.007-1.758.159-3.06-.15-3.743C9.936-.498 5.198.66 4.504 3.99c-4.329 1.619-1.575 8.906-1.74 25.153-2.331 2.65-1.518 5.85-1.714 8.02C-.555 54.987 4.348 60.85 13.562 62.48c6.94 1.229 21.03 1.07 31.258 1.07 4.257 0 4.223-20.875 0-20.329z" style="fill:url(#a)"/><path d="M6.56 6.133c-.267.491-.157 3.62.274 3.98 1.084.904 1.859.552 1.866.054.01-.753-.224-3.05-.253-4.27-.012-.514-1.711-.086-1.887.236zM4.845 30.114c-.548.046-.806 3.07-.347 3.415.702.527 3.526-.578 3.699-1.049.189-.514.45-2.772.241-3.243-.21-.474-1.476.699-3.593.877zM9.696 3.658c-.242.497-.202 3.656.105 4.1.277.4 1.234.687 1.563.4.177-.155.398-4.192.025-4.951-.22-.448-1.533.123-1.693.45zm1.951 5.406c-.216.366-.278 2.812.019 3.12.747.772 1.528.406 1.556.018.041-.586.036-2.312.07-3.265.015-.402-1.502-.114-1.645.127z" style="opacity:.2;fill:#fff"/><path d="M4.632 4.705c-.427.152-.523-1.235-.088-1.365 3.119-.932 4.62.801 4.671 2.325.062 1.864.02 9.19.372 12.27.414 3.623 1.476 12.43 1.476 12.43S9.33 21.61 8.755 17.975c-.463-2.928-.532-10.418-.558-11.765-.016-.888-1.301-2.312-3.565-1.504zM1.785 32.337c-.183.422.186-3.215.431-3.604 1.397-2.21 5.06-2.66 6.65-.888.774.863-.791 5.98-.077 7.93 1.266 3.461.646 8.374.646 8.374s.255-4.839-1.133-8.69c-.714-1.983.57-6.82-.484-7.184-2.282-.785-4.429.354-6.033 4.062zM12.069 5.815c-1.11 8.045.163 20.171.163 20.171S10.444 16.522 10.686 5.7c.02-.888 1.48-.591 1.383.115z" style="fill:#70513d"/><path d="M13.688 61.736C6.476 60.46.042 56.608 1.787 37.233c.05-.562.038-1.164.027-1.801-.036-1.871-.077-3.992 1.501-5.785l.186-.212.003-.284c.057-5.57-.227-10.071-.455-13.688-.444-7.036-.534-9.925 1.71-10.764l.383-.144.085-.407C5.56 2.544 7.005 1.665 8.204 1.53c.522-.063 1.807-.062 2.388 1.22.155.344.132 1.209.107 2.125-.01.4-.022.833-.024 1.3l-.005 1.143 1.033-.447c.039-.015.078-.031.177.039.357.254.716 1.113.672 2.057-.228 4.866.923 17.865 1.213 19.579.19 1.12 1.74 7.324 3.614 13.113.669 2.064 1.197 3.398 4.641 3.48 5.864.14 16.869-.564 22.8-1.918-3.894.236-17.062.91-22.707.688-2.613-.103-2.676-.825-3.375-2.86-1.968-5.734-3.354-11.804-3.516-12.76-.285-1.684-1.417-14.466-1.193-19.25.066-1.39-.47-2.774-1.304-3.366a1.774 1.774 0 0 0-.56-.27l.013-.486c.034-1.239.058-2.134-.243-2.8C11.262.633 9.765-.172 8.039.032 6.089.253 4.433 1.63 3.88 3.437.898 4.843 1.142 8.724 1.573 15.559c.222 3.531.498 7.912.454 13.3C.25 31.04.297 33.485.334 35.46c.012.594.022 1.156-.02 1.634-1.499 16.643 2.295 24.26 13.122 26.128 6.493 1.121 25.593.844 31.384.327-8.253-.264-26.711-1.03-31.132-1.813z" style="fill:#70513d"/></svg>