<svg xmlns="http://www.w3.org/2000/svg" xml:space="preserve" viewBox="0 0 64 64"><linearGradient id="a" x1="32" x2="32" y1="2" y2="62" gradientUnits="userSpaceOnUse"><stop offset="0" style="stop-color:#00abf1"/><stop offset=".229" style="stop-color:#00a7ef"/><stop offset=".467" style="stop-color:#009ae9"/><stop offset=".708" style="stop-color:#0086e0"/><stop offset=".95" style="stop-color:#0069d3"/><stop offset="1" style="stop-color:#0062d0"/></linearGradient><path fill="url(#a)" d="M62 54c0 4.4-3.6 8-8 8H10c-4.4 0-8-3.6-8-8V10c0-4.4 3.6-8 8-8h44c4.4 0 8 3.6 8 8v44z"/><path fill="#FFF" d="M50 44 36 34v6h-6c-.818 0-8-1.281-8-11 0-9.116 6.155-10.959 8-11h12v-8H30c-4.45 0-16 4.233-16 19 0 14.766 11.55 19 16 19h6v6l14-10z"/></svg>