<svg xmlns="http://www.w3.org/2000/svg" xml:space="preserve" viewBox="0 0 64 64"><linearGradient id="a" x1="14.5" x2="49.5" y1="58.699" y2="58.699" gradientUnits="userSpaceOnUse"><stop offset="0" style="stop-color:#8a6859"/><stop offset=".12" style="stop-color:#7f5f50"/><stop offset=".335" style="stop-color:#725345"/><stop offset=".533" style="stop-color:#6e4f41"/></linearGradient><path fill="url(#a)" d="M49.5 55.399V59c0 1.656-7.834 3-17.5 3-9.664 0-17.5-1.344-17.5-3v-3.601h35z"/><ellipse cx="32" cy="55.399" fill="#573E33" rx="17.5" ry="3"/><linearGradient id="b" x1="15.5" x2="48.5" y1="54.563" y2="54.563" gradientUnits="userSpaceOnUse"><stop offset="0" style="stop-color:#8a6859"/><stop offset=".12" style="stop-color:#7f5f50"/><stop offset=".335" style="stop-color:#725345"/><stop offset=".533" style="stop-color:#6e4f41"/></linearGradient><path fill="url(#b)" d="M48.5 52.125v2.399C48.5 55.892 41.113 57 32 57s-16.5-1.108-16.5-2.476v-2.399h33z"/><ellipse cx="32" cy="52.125" fill="#573E33" rx="16.5" ry="2.476"/><radialGradient id="c" cx="31.916" cy="53.839" r="15.556" gradientTransform="matrix(1 0 0 1.3439 0 -18.514)" gradientUnits="userSpaceOnUse"><stop offset=".673" style="stop-color:#e6ebef"/><stop offset=".786" style="stop-color:#dfe7ee"/><stop offset=".949" style="stop-color:#ccdbea"/><stop offset="1" style="stop-color:#c5d7e8"/></radialGradient><path fill="url(#c)" d="M36.557 33.218c-1.506-.483-2.419-.713-2.419-1.515-.336-1.334-3.941-1.332-4.275 0 0 .802-.911 1.031-2.417 1.515C19.309 35.55 17 41.508 17 51.56c0 1.313 6.715 2.378 15 2.378 8.283 0 15-1.065 15-2.378 0-10.052-2.307-16.008-10.443-18.342z"/><radialGradient id="d" cx="-817.362" cy="-479.418" r="15.556" gradientTransform="matrix(-1 0 0 -1.3439 -785.278 -634.713)" gradientUnits="userSpaceOnUse"><stop offset=".673" style="stop-color:#e6ebef"/><stop offset=".786" style="stop-color:#dfe7ee"/><stop offset=".949" style="stop-color:#ccdbea"/><stop offset="1" style="stop-color:#c5d7e8"/></radialGradient><path fill="url(#d)" d="M27.443 30.188c1.506.483 2.419.713 2.419 1.515.268 1.336 4.01 1.33 4.275 0 0-.802.911-1.031 2.417-1.515C44.691 27.856 47 21.898 47 11.847c0-1.313-6.715-2.378-15-2.378-8.283 0-15 1.065-15 2.378 0 10.051 2.307 16.007 10.443 18.341z"/><linearGradient id="e" x1="15.334" x2="48.668" y1="11.25" y2="11.25" gradientUnits="userSpaceOnUse"><stop offset="0" style="stop-color:#8a6859"/><stop offset=".072" style="stop-color:#7e5e50"/><stop offset=".233" style="stop-color:#684c40"/><stop offset=".389" style="stop-color:#5b4236"/><stop offset=".533" style="stop-color:#573e33"/></linearGradient><path fill="url(#e)" d="M48.668 8.5v3.001C48.668 12.881 41.205 14 32 14c-9.203 0-16.666-1.119-16.666-2.499V8.5h33.334z"/><linearGradient id="f" x1="14.5" x2="49.5" y1="8.3" y2="8.3" gradientUnits="userSpaceOnUse"><stop offset="0" style="stop-color:#8a6859"/><stop offset=".12" style="stop-color:#7f5f50"/><stop offset=".335" style="stop-color:#725345"/><stop offset=".533" style="stop-color:#6e4f41"/></linearGradient><path fill="url(#f)" d="M49.5 5v3.601c0 1.656-7.833 3-17.5 3-9.664 0-17.5-1.344-17.5-3V5h35z"/><ellipse cx="32" cy="5" fill="#573E33" rx="17.5" ry="3"/><linearGradient id="g" x1="20" x2="44" y1="44.578" y2="44.578" gradientUnits="userSpaceOnUse"><stop offset="0" style="stop-color:#fae0a5"/><stop offset="1" style="stop-color:#c79e3e"/></linearGradient><path fill="url(#g)" d="M32 35.218c-6.513 2.334-12 6.289-12 16.342 0 1.313 5.373 2.378 12 2.378s12-1.065 12-2.378c0-10.051-5.489-14.01-12-16.342z"/></svg>