<svg xmlns="http://www.w3.org/2000/svg" xml:space="preserve" viewBox="0 0 64 64"><linearGradient id="a" x1="14.5" x2="49.5" y1="58.699" y2="58.699" gradientUnits="userSpaceOnUse"><stop offset="0" style="stop-color:#8a6859"/><stop offset=".12" style="stop-color:#7f5f50"/><stop offset=".335" style="stop-color:#725345"/><stop offset=".533" style="stop-color:#6e4f41"/></linearGradient><path fill="url(#a)" d="M49.5 55.399V59c0 1.656-7.834 3-17.5 3-9.664 0-17.5-1.344-17.5-3v-3.601h35z"/><ellipse cx="32" cy="55.399" fill="#573E33" rx="17.5" ry="3"/><linearGradient id="b" x1="15.5" x2="48.5" y1="54.563" y2="54.563" gradientUnits="userSpaceOnUse"><stop offset="0" style="stop-color:#8a6859"/><stop offset=".12" style="stop-color:#7f5f50"/><stop offset=".335" style="stop-color:#725345"/><stop offset=".533" style="stop-color:#6e4f41"/></linearGradient><path fill="url(#b)" d="M48.5 52.125v2.399C48.5 55.892 41.113 57 32 57s-16.5-1.108-16.5-2.476v-2.399h33z"/><ellipse cx="32" cy="52.125" fill="#573E33" rx="16.5" ry="2.476"/><radialGradient id="c" cx="31.916" cy="53.839" r="15.556" gradientTransform="matrix(1 0 0 1.3439 0 -18.514)" gradientUnits="userSpaceOnUse"><stop offset=".673" style="stop-color:#e6ebef"/><stop offset=".786" style="stop-color:#dfe7ee"/><stop offset=".949" style="stop-color:#ccdbea"/><stop offset="1" style="stop-color:#c5d7e8"/></radialGradient><path fill="url(#c)" d="M36.557 33.218c-1.506-.483-2.419-.713-2.419-1.515-.335-1.334-3.941-1.332-4.275 0 0 .802-.911 1.031-2.417 1.515C19.309 35.55 17 41.508 17 51.56c0 1.313 6.715 2.378 15 2.378 8.283 0 15-1.065 15-2.378 0-10.052-2.307-16.008-10.443-18.342z"/><radialGradient id="d" cx="-817.362" cy="-479.418" r="15.556" gradientTransform="matrix(-1 0 0 -1.3439 -785.278 -634.713)" gradientUnits="userSpaceOnUse"><stop offset=".673" style="stop-color:#e6ebef"/><stop offset=".786" style="stop-color:#dfe7ee"/><stop offset=".949" style="stop-color:#ccdbea"/><stop offset="1" style="stop-color:#c5d7e8"/></radialGradient><path fill="url(#d)" d="M27.443 30.188c1.506.483 2.419.713 2.419 1.515.267 1.336 4.009 1.33 4.275 0 0-.802.911-1.031 2.417-1.515C44.691 27.856 47 21.898 47 11.847c0-1.313-6.715-2.378-15-2.378-8.283 0-15 1.065-15 2.378 0 10.051 2.307 16.007 10.443 18.341z"/><linearGradient id="e" x1="20.289" x2="43.713" y1="36.389" y2="36.389" gradientUnits="userSpaceOnUse"><stop offset="0" style="stop-color:#fae0a5"/><stop offset="1" style="stop-color:#c79e3e"/></linearGradient><path fill="url(#e)" d="M35.646 30.278c4.25-1.521 7.098-4.611 7.961-11.438H20.395c.808 6.659 3.713 9.917 7.961 11.439 1.205.48 1.699.681 1.936 1.24 1.43 3.36 1.436 9.29.77 11.884-1.182 4.604-9.488 5.674-10.77 8.679-.088.208 2.416 1.854 11.709 1.854 9.289 0 11.801-1.646 11.711-1.854-1.279-3.007-9.586-4.075-10.768-8.679-.666-2.594-.66-8.522.768-11.884.237-.558.729-.758 1.934-1.241z"/><path fill="#C49A45" d="M20.433 18.937c.166 1.994 20.46 4.289 23.136 0 1.161-1.866-23.472-4.024-23.136 0z"/><radialGradient id="f" cx="18.027" cy="20.152" r="4.077" gradientTransform="matrix(1.0322 0 0 .5203 13.624 9.668)" gradientUnits="userSpaceOnUse"><stop offset="0" style="stop-color:#9c7321"/><stop offset=".138" style="stop-color:#a27926"/><stop offset="1" style="stop-color:#c49a45"/></radialGradient><path fill="url(#f)" d="M27.447 18.798c.066 1.125 8.27 2.42 9.353 0 .47-1.052-9.487-2.271-9.353 0z"/><linearGradient id="g" x1="15.334" x2="48.668" y1="11.25" y2="11.25" gradientUnits="userSpaceOnUse"><stop offset="0" style="stop-color:#8a6859"/><stop offset=".072" style="stop-color:#7e5e50"/><stop offset=".233" style="stop-color:#684c40"/><stop offset=".389" style="stop-color:#5b4236"/><stop offset=".533" style="stop-color:#573e33"/></linearGradient><path fill="url(#g)" d="M48.668 8.5v3.001C48.668 12.881 41.205 14 32 14c-9.203 0-16.666-1.119-16.666-2.499V8.5h33.334z"/><linearGradient id="h" x1="14.5" x2="49.5" y1="8.3" y2="8.3" gradientUnits="userSpaceOnUse"><stop offset="0" style="stop-color:#8a6859"/><stop offset=".12" style="stop-color:#7f5f50"/><stop offset=".335" style="stop-color:#725345"/><stop offset=".533" style="stop-color:#6e4f41"/></linearGradient><path fill="url(#h)" d="M49.5 5v3.601c0 1.656-7.834 3-17.5 3-9.664 0-17.5-1.344-17.5-3V5h35z"/><ellipse cx="32" cy="5" fill="#573E33" rx="17.5" ry="3"/></svg>