<svg xmlns="http://www.w3.org/2000/svg" xml:space="preserve" style="enable-background:new 0 0 64 64" viewBox="0 0 64 64"><linearGradient id="a" x1="283.574" x2="283.574" y1="366.228" y2="301.434" gradientTransform="rotate(34.075 653.886 -236.652)" gradientUnits="userSpaceOnUse"><stop offset="0" style="stop-color:#4f92ff"/><stop offset=".138" style="stop-color:#5494ff"/><stop offset=".299" style="stop-color:#629aff"/><stop offset=".473" style="stop-color:#7aa4ff"/><stop offset=".656" style="stop-color:#9bb2ff"/><stop offset=".843" style="stop-color:#c5c4ff"/><stop offset="1" style="stop-color:#eed6ff"/></linearGradient><path d="M45.98 1.77S6.43 44.49 4.39 47.42C1.5 51.58 15.7 60.9 18.59 56.74c2.03-2.92 27.39-54.97 27.39-54.97z" style="fill:url(#a)"/><linearGradient id="b" x1="224.463" x2="224.463" y1="239.881" y2="188.426" gradientTransform="rotate(22.068 594.845 -409.475)" gradientUnits="userSpaceOnUse"><stop offset="0" style="stop-color:#4f92ff"/><stop offset=".138" style="stop-color:#5494ff"/><stop offset=".299" style="stop-color:#629aff"/><stop offset=".473" style="stop-color:#7aa4ff"/><stop offset=".656" style="stop-color:#9bb2ff"/><stop offset=".843" style="stop-color:#c5c4ff"/><stop offset="1" style="stop-color:#eed6ff"/></linearGradient><path d="M31.64 7.36S2.33 44.34 1.52 46.92c-1.16 3.66 13.26 10.69 14.41 7.02.81-2.57 15.71-46.58 15.71-46.58z" style="fill:url(#b)"/><linearGradient id="c" x1="1341.074" x2="1341.074" y1="570.326" y2="505.531" gradientTransform="scale(-1 1) rotate(-55.924 180.437 1583.865)" gradientUnits="userSpaceOnUse"><stop offset="0" style="stop-color:#4f92ff"/><stop offset=".138" style="stop-color:#5494ff"/><stop offset=".299" style="stop-color:#629aff"/><stop offset=".473" style="stop-color:#7aa4ff"/><stop offset=".656" style="stop-color:#9bb2ff"/><stop offset=".843" style="stop-color:#c5c4ff"/><stop offset="1" style="stop-color:#eed6ff"/></linearGradient><path d="M62.23 18.02S19.51 57.57 16.58 59.61C12.42 62.5 3.1 48.3 7.26 45.41c2.92-2.03 54.97-27.39 54.97-27.39z" style="fill:url(#c)"/><linearGradient id="d" x1="1216.409" x2="1216.409" y1="659.539" y2="608.084" gradientTransform="scale(-1 1) rotate(-67.932 155.088 1268.877)" gradientUnits="userSpaceOnUse"><stop offset="0" style="stop-color:#4f92ff"/><stop offset=".138" style="stop-color:#5494ff"/><stop offset=".299" style="stop-color:#629aff"/><stop offset=".473" style="stop-color:#7aa4ff"/><stop offset=".656" style="stop-color:#9bb2ff"/><stop offset=".843" style="stop-color:#c5c4ff"/><stop offset="1" style="stop-color:#eed6ff"/></linearGradient><path d="M56.64 32.36S19.66 61.67 17.08 62.48c-3.66 1.16-10.69-13.26-7.02-14.41 2.57-.81 46.58-15.71 46.58-15.71z" style="fill:url(#d)"/><linearGradient id="e" x1="347.688" x2="347.688" y1="478.246" y2="392.679" gradientTransform="rotate(45.001 679.845 -146.109)" gradientUnits="userSpaceOnUse"><stop offset="0" style="stop-color:#b3f2ff"/><stop offset=".089" style="stop-color:#ace5ff"/><stop offset=".257" style="stop-color:#9ac1ff"/><stop offset=".482" style="stop-color:#7e88ff"/><stop offset=".596" style="stop-color:#6e69ff"/><stop offset=".675" style="stop-color:#9388ff"/><stop offset=".773" style="stop-color:#baaaff"/><stop offset=".864" style="stop-color:#d7c2ff"/><stop offset=".942" style="stop-color:#e8d1ff"/><stop offset="1" style="stop-color:#eed6ff"/></linearGradient><path d="M64 0S6.79 40.32 3.5 43.61c-4.67 4.67-4.67 12.23-.01 16.9 4.66 4.67 12.24 4.66 16.9-.01C23.67 57.22 64 0 64 0z" style="fill:url(#e)"/><linearGradient id="f" x1="-164.893" x2="-164.893" y1="-2.071" y2="-59.787" gradientTransform="rotate(45.001 -141.581 238.458)" gradientUnits="userSpaceOnUse"><stop offset="0" style="stop-color:#00d3ff"/><stop offset=".12" style="stop-color:#39ddff;stop-opacity:.88"/><stop offset=".244" style="stop-color:#6de6ff;stop-opacity:.7555"/><stop offset=".371" style="stop-color:#9aeeff;stop-opacity:.6287"/><stop offset=".498" style="stop-color:#bef4ff;stop-opacity:.5022"/><stop offset=".624" style="stop-color:#dbf9ff;stop-opacity:.376"/><stop offset=".75" style="stop-color:#effcff;stop-opacity:.2501"/><stop offset=".875" style="stop-color:#fbfeff;stop-opacity:.1247"/><stop offset="1" style="stop-color:#fff;stop-opacity:0"/></linearGradient><path d="M52.87 11.13 5.27 45.15l13.96 13.03z" style="fill:url(#f)"/><linearGradient id="g" x1="-162.332" x2="-162.332" y1="-4.057" y2="-49.636" gradientTransform="rotate(45.001 -141.581 238.458)" gradientUnits="userSpaceOnUse"><stop offset="0" style="stop-color:#00d3ff"/><stop offset=".12" style="stop-color:#39ddff;stop-opacity:.88"/><stop offset=".244" style="stop-color:#6de6ff;stop-opacity:.7555"/><stop offset=".371" style="stop-color:#9aeeff;stop-opacity:.6287"/><stop offset=".498" style="stop-color:#bef4ff;stop-opacity:.5022"/><stop offset=".624" style="stop-color:#dbf9ff;stop-opacity:.376"/><stop offset=".75" style="stop-color:#effcff;stop-opacity:.2501"/><stop offset=".875" style="stop-color:#fbfeff;stop-opacity:.1247"/><stop offset="1" style="stop-color:#fff;stop-opacity:0"/></linearGradient><path d="M45.92 18.54 12.91 49.99l5.19 4.07z" style="fill:url(#g)"/><linearGradient id="h" x1="-169.806" x2="-169.806" y1="-4.85" y2="-44.7" gradientTransform="rotate(45.001 -141.581 238.458)" gradientUnits="userSpaceOnUse"><stop offset="0" style="stop-color:#00d3ff"/><stop offset=".12" style="stop-color:#39ddff;stop-opacity:.88"/><stop offset=".244" style="stop-color:#6de6ff;stop-opacity:.7555"/><stop offset=".371" style="stop-color:#9aeeff;stop-opacity:.6287"/><stop offset=".498" style="stop-color:#bef4ff;stop-opacity:.5022"/><stop offset=".624" style="stop-color:#dbf9ff;stop-opacity:.376"/><stop offset=".75" style="stop-color:#effcff;stop-opacity:.2501"/><stop offset=".875" style="stop-color:#fbfeff;stop-opacity:.1247"/><stop offset="1" style="stop-color:#fff;stop-opacity:0"/></linearGradient><path d="M41.2 20.79 7.99 43.94l3.02 3.02z" style="fill:url(#h)"/><radialGradient id="i" cx="-86.127" cy="-143.344" r="8.921" gradientTransform="scale(1.3004 1.30051) rotate(45 -259.668 63.454)" gradientUnits="userSpaceOnUse"><stop offset=".762" style="stop-color:#e8ffff"/><stop offset="1" style="stop-color:#e8ffff;stop-opacity:0"/></radialGradient><path d="M20.26 60.14c-4.53 4.53-11.88 4.53-16.41 0-4.53-4.53-4.53-11.88 0-16.41 4.53-4.53 11.88-4.53 16.4 0 4.54 4.54 4.54 11.88.01 16.41z" style="fill:url(#i)"/><path d="M14.51 32.44c0 2.75-4.12 2.75-4.12 0 0-2.74 4.12-2.74 4.12 0zm5.44-8.58c0 1.37-2.06 1.37-2.06 0 0-1.38 2.06-1.38 2.06 0zm2.09 5.87c0 1.37-2.06 1.37-2.06 0-.01-1.38 2.06-1.38 2.06 0zM36.18 7.42c0 1.37-2.06 1.37-2.06 0s2.06-1.37 2.06 0zm11.59-4.83c0 1.38-2.06 1.38-2.06 0 0-1.37 2.06-1.37 2.06 0zm-2.89 7.6c0 1.37-2.06 1.37-2.06 0s2.06-1.37 2.06 0zM48.8 24.5c0 1.37-2.06 1.37-2.06 0s2.06-1.37 2.06 0zm7.39 5.23c0 1.37-2.06 1.37-2.06 0 0-1.38 2.06-1.38 2.06 0zm-18.98 8.84c0 1.37-2.06 1.37-2.06 0s2.06-1.37 2.06 0zm-4.03 9.09c0 1.37-2.06 1.37-2.06 0s2.06-1.37 2.06 0zm9.64-4.19c0 1.38-2.06 1.38-2.06 0 0-1.37 2.06-1.37 2.06 0zm-9.2-19.61c0 2.75-4.12 2.74-4.12 0 0-2.75 4.12-2.75 4.12 0zm-1.47-11.68c0 2.74-4.12 2.75-4.12 0s4.12-2.75 4.12 0zm23.01 7.41c0 2.75-4.12 2.75-4.12 0-.01-2.75 4.12-2.75 4.12 0zM48.8 36.92c0 2.75-4.12 2.75-4.12 0 0-2.74 4.12-2.74 4.12 0z" style="fill:#c2f8ff"/></svg>