<svg xmlns="http://www.w3.org/2000/svg" xml:space="preserve" viewBox="0 0 64 64"><radialGradient id="a" cx="33.273" cy="-68.018" r="28.984" gradientTransform="rotate(-45 152.948 -15.715) scale(1.0031)" gradientUnits="userSpaceOnUse"><stop offset="0" style="stop-color:#b3c2c6"/><stop offset=".296" style="stop-color:#bac7cb"/><stop offset=".717" style="stop-color:#ccd5d9"/><stop offset="1" style="stop-color:#dde2e6"/></radialGradient><path fill="url(#a)" fill-rule="evenodd" d="M56.822 5.681c-5.65-12.038-15.136-2.163-10.286 5.335.992 1.535-34.149 35.088-35.637 34.436C-1.695 39.959-3.93 62.324 7.118 60.016c1.54 8.029 13.44 3.125 9.567-8.835-.411-1.259 33.193-34.209 34.793-33.615 9.854 3.677 19.596-13.144 5.344-11.885z" clip-rule="evenodd"/><radialGradient id="b" cx="115.525" cy="69.238" r="28.984" gradientTransform="rotate(45 120.186 -50.535) scale(1.0031)" gradientUnits="userSpaceOnUse"><stop offset="0" style="stop-color:#b3c2c6"/><stop offset=".296" style="stop-color:#bac7cb"/><stop offset=".717" style="stop-color:#ccd5d9"/><stop offset="1" style="stop-color:#dde2e6"/></radialGradient><path fill="url(#b)" fill-rule="evenodd" d="M58.32 56.822c12.037-5.652 2.16-15.136-5.336-10.286-1.535.992-35.087-34.149-34.435-35.637C24.042-1.694 1.678-3.931 3.985 7.118-4.044 8.657.86 20.556 12.82 16.684c1.259-.41 34.208 33.193 33.613 34.794-3.675 9.854 13.147 19.596 11.887 5.344z" clip-rule="evenodd"/><linearGradient id="c" x1="64.611" x2="64.611" y1="-59.222" y2="-69.919" gradientTransform="rotate(-45.001 153.106 -16.883)" gradientUnits="userSpaceOnUse"><stop offset="0" style="stop-color:#d8dde0"/><stop offset=".464" style="stop-color:#d5dbde"/><stop offset=".754" style="stop-color:#cdd4d7"/><stop offset=".995" style="stop-color:#bec9cc"/><stop offset="1" style="stop-color:#bec9cc"/></linearGradient><path fill="url(#c)" fill-rule="evenodd" d="M56.822 5.681c-4.467.394-8.296 10.785-5.344 11.885 9.854 3.677 19.596-13.144 5.344-11.885z" clip-rule="evenodd"/><linearGradient id="d" x1="1.612" x2="1.612" y1="-58.592" y2="-69.589" gradientTransform="rotate(-45.001 153.106 -16.883)" gradientUnits="userSpaceOnUse"><stop offset="0" style="stop-color:#d8dde0"/><stop offset=".464" style="stop-color:#d5dbde"/><stop offset=".754" style="stop-color:#cdd4d7"/><stop offset=".995" style="stop-color:#bec9cc"/><stop offset="1" style="stop-color:#bec9cc"/></linearGradient><path fill="url(#d)" fill-rule="evenodd" d="M7.118 60.016c1.54 8.029 13.44 3.125 9.567-8.835-1.325-4.099-11.106.795-9.567 8.835z" clip-rule="evenodd"/><linearGradient id="e" x1="146.873" x2="146.873" y1="79.024" y2="68.327" gradientTransform="rotate(45.001 119.806 -49.243)" gradientUnits="userSpaceOnUse"><stop offset="0" style="stop-color:#d8dde0"/><stop offset=".464" style="stop-color:#d5dbde"/><stop offset=".754" style="stop-color:#cdd4d7"/><stop offset=".995" style="stop-color:#bec9cc"/><stop offset="1" style="stop-color:#bec9cc"/></linearGradient><path fill="url(#e)" fill-rule="evenodd" d="M58.32 56.822c-.395-4.467-10.784-8.296-11.888-5.344-3.674 9.854 13.148 19.596 11.888 5.344z" clip-rule="evenodd"/><linearGradient id="f" x1="83.872" x2="83.872" y1="79.653" y2="68.657" gradientTransform="rotate(45.001 119.806 -49.243)" gradientUnits="userSpaceOnUse"><stop offset="0" style="stop-color:#d8dde0"/><stop offset=".464" style="stop-color:#d5dbde"/><stop offset=".754" style="stop-color:#cdd4d7"/><stop offset=".995" style="stop-color:#bec9cc"/><stop offset="1" style="stop-color:#bec9cc"/></linearGradient><path fill="url(#f)" fill-rule="evenodd" d="M3.985 7.118C-4.044 8.657.862 20.557 12.82 16.684c4.098-1.325-.796-11.106-8.835-9.566z" clip-rule="evenodd"/><radialGradient id="g" cx="34.328" cy="40.779" r="10.425" gradientTransform="matrix(.9843 0 0 1.789 -1.789 -29.273)" gradientUnits="userSpaceOnUse"><stop offset="0" style="stop-color:#f7fafc"/><stop offset=".206" style="stop-color:#f3f6f8"/><stop offset=".416" style="stop-color:#e7ebed"/><stop offset=".628" style="stop-color:#d2d7da"/><stop offset=".84" style="stop-color:#b6bcbf"/><stop offset="1" style="stop-color:#9ba3a6"/></radialGradient><path fill="url(#g)" d="M20.667 44.021c.813 1.651 1.432 4.608 1.413 6.234-.014 1.27.883 1.384 1.72 2.819.92 1.581 3.076 3.726 8.2 3.726 5.123 0 7.278-2.145 8.199-3.725.838-1.436 1.733-1.55 1.721-2.819-.019-1.626.599-4.583 1.413-6.234.115-.232-22.783-.232-22.666-.001z"/><radialGradient id="h" cx="32.287" cy="50.184" r="8.503" gradientTransform="matrix(1 0 0 .7586 -.288 12.115)" gradientUnits="userSpaceOnUse"><stop offset="0" style="stop-color:#1a1626"/><stop offset="1" style="stop-color:#1a1626;stop-opacity:0"/></radialGradient><path fill="url(#h)" d="M24.303 46.458c.553 1.211.972 3.856.959 5.048-.009.932 3.257 2.389 6.737 2.389s6.747-1.457 6.738-2.389c-.014-1.191.406-3.837.959-5.048.079-.171-15.472-.171-15.393 0z"/><radialGradient id="i" cx="32.288" cy="28.883" r="21.122" gradientTransform="translate(-.288)" gradientUnits="userSpaceOnUse"><stop offset="0" style="stop-color:#f7fafc"/><stop offset=".455" style="stop-color:#f5f8fa"/><stop offset=".619" style="stop-color:#eef2f4"/><stop offset=".736" style="stop-color:#e3e7e9"/><stop offset=".831" style="stop-color:#d2d7da"/><stop offset=".912" style="stop-color:#bcc2c6"/><stop offset=".982" style="stop-color:#a1aaad"/><stop offset="1" style="stop-color:#99a2a6"/></radialGradient><path fill="url(#i)" d="M32 11.467c-12.744 0-22.371 10.1-16.237 26.14-.325 7.852 6.649 6.372 8.783 10.191.63 1.126 7.454 1.617 7.454 1.617s6.822-.491 7.452-1.617c2.136-3.819 9.11-2.34 8.784-10.191 6.135-16.041-3.494-26.14-16.236-26.14z"/><linearGradient id="j" x1="49.73" x2="45.817" y1="37.017" y2="25.277" gradientUnits="userSpaceOnUse"><stop offset="0" style="stop-color:#99a2a6;stop-opacity:.3"/><stop offset=".818" style="stop-color:#99a2a6;stop-opacity:0"/></linearGradient><path fill="url(#j)" d="M43.309 30.72c.966 2.411 3.516 2.684 4.928 6.887 2.495-6.522 2.382-12.062.514-16.341-4.722-5.648-7.577 4.118-5.442 9.454z"/><linearGradient id="k" x1="417.071" x2="413.158" y1="37.017" y2="25.277" gradientTransform="matrix(-1 0 0 1 431.34 0)" gradientUnits="userSpaceOnUse"><stop offset="0" style="stop-color:#99a2a6;stop-opacity:.3"/><stop offset=".818" style="stop-color:#99a2a6;stop-opacity:0"/></linearGradient><path fill="url(#k)" d="M20.69 30.72c-.964 2.411-3.514 2.684-4.927 6.887-2.495-6.522-2.381-12.062-.514-16.341 4.721-5.648 7.577 4.118 5.441 9.454z"/><radialGradient id="l" cx="34.925" cy="36.265" r="3.361" gradientTransform="matrix(1.0048 0 0 1.3165 -3.14 -1.425)" gradientUnits="userSpaceOnUse"><stop offset="0" style="stop-color:#4e5e67"/><stop offset=".365" style="stop-color:#4c5b65"/><stop offset=".601" style="stop-color:#47535d"/><stop offset=".801" style="stop-color:#3e4450"/><stop offset=".979" style="stop-color:#322f3e"/><stop offset="1" style="stop-color:#302c3b"/></radialGradient><path fill="url(#l)" d="M32 40.693c-2.283 0-3.595 7.13 0 3.947 3.593 3.183 2.281-3.947 0-3.947z"/><radialGradient id="m" cx="458.21" cy="80.511" r="5.212" gradientTransform="matrix(-1.0745 0 0 1.0182 531.665 -43.137)" gradientUnits="userSpaceOnUse"><stop offset="0" style="stop-color:#4e5e67"/><stop offset=".365" style="stop-color:#4c5b65"/><stop offset=".601" style="stop-color:#47535d"/><stop offset=".801" style="stop-color:#3e4450"/><stop offset=".979" style="stop-color:#322f3e"/><stop offset="1" style="stop-color:#302c3b"/></radialGradient><path fill="url(#m)" d="M36.139 32.938c1.949-1.566 7.769-1.372 9.092 1.881 3.194 7.855-6.655 7.695-10.378 4.052-.501-.492-.957-4.126 1.286-5.933z"/><radialGradient id="n" cx="129.458" cy="80.511" r="5.213" gradientTransform="matrix(1.0745 0 0 1.0182 -114.42 -43.137)" gradientUnits="userSpaceOnUse"><stop offset="0" style="stop-color:#4e5e67"/><stop offset=".365" style="stop-color:#4c5b65"/><stop offset=".601" style="stop-color:#47535d"/><stop offset=".801" style="stop-color:#3e4450"/><stop offset=".979" style="stop-color:#322f3e"/><stop offset="1" style="stop-color:#302c3b"/></radialGradient><path fill="url(#n)" d="M27.861 32.938c-1.949-1.566-7.769-1.372-9.092 1.881-3.194 7.855 6.655 7.695 10.378 4.052.502-.492.957-4.126-1.286-5.933z"/><linearGradient id="o" x1="604.852" x2="605.36" y1="78.065" y2="75.246" gradientTransform="scale(-1 1) rotate(-10.224 148.035 3594.185)" gradientUnits="userSpaceOnUse"><stop offset=".079" style="stop-color:#a0a4a6"/><stop offset=".215" style="stop-color:#aeb1b3"/><stop offset=".468" style="stop-color:#c1c3c5"/><stop offset=".728" style="stop-color:#ccced0"/><stop offset="1" style="stop-color:#d0d2d4"/></linearGradient><path fill="url(#o)" d="M25.713 52.233c-.211.376 1.135.763 1.054.487-.278-.958.883-1.694.694-2.231-.191-.542-1.451-.726-1.817-.32-.286.317.344 1.574.069 2.064z"/><linearGradient id="p" x1="592.333" x2="592.716" y1="72.155" y2="69.426" gradientTransform="scale(-1 1) rotate(-7.979 146.612 4505.728)" gradientUnits="userSpaceOnUse"><stop offset=".079" style="stop-color:#a5aaab"/><stop offset=".265" style="stop-color:#babdbf"/><stop offset=".502" style="stop-color:#cdd0d1"/><stop offset=".745" style="stop-color:#d8dadc"/><stop offset="1" style="stop-color:#dcdee0"/></linearGradient><path fill="url(#p)" d="M26.767 52.721c-.204.384 1.151.643 1.06.37-.315-.947.684-1.618.474-2.146-.212-.534-1.479-.669-1.829-.251-.274.328.562 1.525.295 2.027z"/><linearGradient id="q" x1="591.967" x2="592.364" y1="72.672" y2="69.902" gradientTransform="scale(-1 1) rotate(-8.152 147.33 4417.115)" gradientUnits="userSpaceOnUse"><stop offset=".079" style="stop-color:#a0a4a6"/><stop offset=".215" style="stop-color:#aeb1b3"/><stop offset=".468" style="stop-color:#c1c3c5"/><stop offset=".728" style="stop-color:#ccced0"/><stop offset="1" style="stop-color:#d0d2d4"/></linearGradient><path fill="url(#q)" d="M27.827 53.091c-.205.382 1.311.577 1.219.304-.313-.946.659-1.641.451-2.17-.21-.535-1.477-.675-1.826-.255-.276.328.424 1.62.156 2.121z"/><linearGradient id="r" x1="584.438" x2="584.779" y1="70.419" y2="67.623" gradientTransform="scale(-1 1) rotate(-6.962 141.191 5111.097)" gradientUnits="userSpaceOnUse"><stop offset=".079" style="stop-color:#b8bdbf"/><stop offset=".215" style="stop-color:#c6cacc"/><stop offset=".468" style="stop-color:#d9dcde"/><stop offset=".728" style="stop-color:#e4e7e9"/><stop offset="1" style="stop-color:#e8ebed"/></linearGradient><path fill="url(#r)" d="M29.045 53.395c-.196.389 1.479.612 1.382.342-.333-.94.498-1.693.278-2.219-.221-.531-1.49-.644-1.832-.219-.267.333.43 1.591.172 2.096z"/><linearGradient id="s" x1="545.084" x2="545.084" y1="54.069" y2="51.33" gradientTransform="matrix(-1 0 0 1 576.144 0)" gradientUnits="userSpaceOnUse"><stop offset=".079" style="stop-color:#b8bdbf"/><stop offset=".215" style="stop-color:#c6cacc"/><stop offset=".468" style="stop-color:#d9dcde"/><stop offset=".728" style="stop-color:#e4e7e9"/><stop offset="1" style="stop-color:#e8ebed"/></linearGradient><path fill="url(#s)" d="M30.427 53.736c-.147.408 1.701.416 1.572.158-.447-.895.253-1.708-.029-2.203-.285-.501-1.561-.462-1.846 0-.224.365.497 1.512.303 2.045z"/><linearGradient id="t" x1="373.022" x2="373.53" y1="36.251" y2="33.432" gradientTransform="rotate(-10.231 297.598 1919.901)" gradientUnits="userSpaceOnUse"><stop offset=".079" style="stop-color:#a0a4a6"/><stop offset=".215" style="stop-color:#aeb1b3"/><stop offset=".468" style="stop-color:#c1c3c5"/><stop offset=".728" style="stop-color:#ccced0"/><stop offset="1" style="stop-color:#d0d2d4"/></linearGradient><path fill="url(#t)" d="M38.285 52.233c.211.376-1.134.763-1.054.487.278-.958-.883-1.694-.694-2.231.191-.542 1.451-.726 1.818-.32.286.317-.343 1.574-.07 2.064z"/><linearGradient id="u" x1="359.042" x2="359.425" y1="39.457" y2="36.727" gradientTransform="rotate(-7.987 296.054 2357.934)" gradientUnits="userSpaceOnUse"><stop offset=".079" style="stop-color:#a5aaab"/><stop offset=".265" style="stop-color:#babdbf"/><stop offset=".502" style="stop-color:#cdd0d1"/><stop offset=".745" style="stop-color:#d8dadc"/><stop offset="1" style="stop-color:#dcdee0"/></linearGradient><path fill="url(#u)" d="M37.231 52.721c.204.384-1.15.643-1.06.37.316-.947-.684-1.618-.473-2.146.211-.534 1.479-.669 1.828-.251.275.328-.561 1.525-.295 2.027z"/><linearGradient id="v" x1="358.781" x2="359.178" y1="39.27" y2="36.499" gradientTransform="rotate(-8.15 297.19 2315.186)" gradientUnits="userSpaceOnUse"><stop offset=".079" style="stop-color:#b8bdbf"/><stop offset=".215" style="stop-color:#c6cacc"/><stop offset=".468" style="stop-color:#d9dcde"/><stop offset=".728" style="stop-color:#e4e7e9"/><stop offset="1" style="stop-color:#e8ebed"/></linearGradient><path fill="url(#v)" d="M36.172 53.091c.205.382-1.311.577-1.219.304.313-.946-.659-1.641-.451-2.17.21-.535 1.477-.675 1.827-.255.275.328-.425 1.62-.157 2.121z"/><linearGradient id="w" x1="350.601" x2="350.942" y1="41.866" y2="39.071" gradientTransform="rotate(-6.962 290.979 2648.538)" gradientUnits="userSpaceOnUse"><stop offset=".079" style="stop-color:#a0a4a6"/><stop offset=".215" style="stop-color:#aeb1b3"/><stop offset=".468" style="stop-color:#c1c3c5"/><stop offset=".728" style="stop-color:#ccced0"/><stop offset="1" style="stop-color:#d0d2d4"/></linearGradient><path fill="url(#w)" d="M34.953 53.395c.197.389-1.479.612-1.381.342.332-.94-.499-1.693-.279-2.219.221-.531 1.49-.644 1.832-.219.268.333-.43 1.591-.172 2.096z"/><linearGradient id="x" x1="309.518" x2="309.518" y1="54.069" y2="51.33" gradientTransform="translate(-276.578)" gradientUnits="userSpaceOnUse"><stop offset=".079" style="stop-color:#b8bdbf"/><stop offset=".215" style="stop-color:#c6cacc"/><stop offset=".468" style="stop-color:#d9dcde"/><stop offset=".728" style="stop-color:#e4e7e9"/><stop offset="1" style="stop-color:#e8ebed"/></linearGradient><path fill="url(#x)" d="M33.572 53.736c.146.408-1.702.416-1.573.158.447-.895-.253-1.708.029-2.203.286-.501 1.56-.462 1.846 0 .225.365-.495 1.512-.302 2.045z"/><linearGradient id="y" x1="550.331" x2="550.331" y1="50.586" y2="48.159" gradientTransform="matrix(-1 0 0 1 576.144 0)" gradientUnits="userSpaceOnUse"><stop offset="0" style="stop-color:#d0d2d4"/><stop offset=".272" style="stop-color:#ccced0"/><stop offset=".532" style="stop-color:#c1c3c5"/><stop offset=".785" style="stop-color:#aeb1b3"/><stop offset=".921" style="stop-color:#a0a4a6"/></linearGradient><path fill="url(#y)" d="M25.206 50.3c.163.309 1.191.356 1.254.198.174-.438-.238-1.028-.063-1.886.071-.342-1.479-.65-1.252-.296.395.615-.223 1.451.061 1.984z"/><linearGradient id="z" x1="549.126" x2="549.126" y1="51.039" y2="48.427" gradientTransform="matrix(-1 0 0 1 576.144 0)" gradientUnits="userSpaceOnUse"><stop offset="0" style="stop-color:#dcdee0"/><stop offset=".255" style="stop-color:#d8dadc"/><stop offset=".498" style="stop-color:#cdd0d1"/><stop offset=".735" style="stop-color:#babdbf"/><stop offset=".921" style="stop-color:#a5aaab"/></linearGradient><path fill="url(#z)" d="M26.339 50.745c.162.322 1.321.364 1.384.199.172-.46-.282-1.282-.065-1.944.113-.348-1.487-.808-1.261-.434.395.643-.341 1.62-.058 2.179z"/><linearGradient id="A" x1="547.436" x2="547.436" y1="51.691" y2="48.654" gradientTransform="matrix(-1 0 0 1 576.144 0)" gradientUnits="userSpaceOnUse"><stop offset="0" style="stop-color:#ebeef0"/><stop offset=".247" style="stop-color:#e7eaec"/><stop offset=".482" style="stop-color:#dce0e2"/><stop offset=".711" style="stop-color:#c9cdcf"/><stop offset=".921" style="stop-color:#b0b6b8"/></linearGradient><path fill="url(#A)" d="M27.838 51.239c.381.471 1.704.568 1.866.32.317-.488-.403-1.5 0-2.277.321-.617-2.383-.862-2.047-.354.421.632-.208 1.831.181 2.311z"/><linearGradient id="B" x1="545.275" x2="545.275" y1="52.173" y2="48.85" gradientTransform="matrix(-1 0 0 1 576.144 0)" gradientUnits="userSpaceOnUse"><stop offset="0" style="stop-color:#dcdee0"/><stop offset=".255" style="stop-color:#d8dadc"/><stop offset=".498" style="stop-color:#cdd0d1"/><stop offset=".735" style="stop-color:#babdbf"/><stop offset=".921" style="stop-color:#a5aaab"/></linearGradient><path fill="url(#B)" d="M29.83 51.705c.3.45 2.126.628 2.181.299.172-1.032-.316-1.553-.011-2.447.204-.6-2.471-1.001-2.295-.436.258.828-.247 2.028.125 2.584z"/><linearGradient id="C" x1="314.764" x2="314.764" y1="50.586" y2="48.159" gradientTransform="translate(-276.578)" gradientUnits="userSpaceOnUse"><stop offset="0" style="stop-color:#d0d2d4"/><stop offset=".272" style="stop-color:#ccced0"/><stop offset=".532" style="stop-color:#c1c3c5"/><stop offset=".785" style="stop-color:#aeb1b3"/><stop offset=".921" style="stop-color:#a0a4a6"/></linearGradient><path fill="url(#C)" d="M38.793 50.3c-.163.309-1.191.356-1.254.198-.174-.438.238-1.028.063-1.886-.071-.342 1.479-.65 1.252-.296-.395.615.222 1.451-.061 1.984z"/><linearGradient id="D" x1="313.559" x2="313.559" y1="51.039" y2="48.427" gradientTransform="translate(-276.578)" gradientUnits="userSpaceOnUse"><stop offset="0" style="stop-color:#d0d2d4"/><stop offset=".272" style="stop-color:#ccced0"/><stop offset=".532" style="stop-color:#c1c3c5"/><stop offset=".785" style="stop-color:#aeb1b3"/><stop offset=".921" style="stop-color:#a0a4a6"/></linearGradient><path fill="url(#D)" d="M37.659 50.745c-.162.322-1.321.364-1.383.199-.173-.46.281-1.282.064-1.944-.113-.348 1.488-.808 1.261-.434-.394.643.341 1.62.058 2.179z"/><linearGradient id="E" x1="311.869" x2="311.869" y1="51.691" y2="48.654" gradientTransform="translate(-276.578)" gradientUnits="userSpaceOnUse"><stop offset="0" style="stop-color:#ebeef0"/><stop offset=".247" style="stop-color:#e7eaec"/><stop offset=".482" style="stop-color:#dce0e2"/><stop offset=".711" style="stop-color:#c9cdcf"/><stop offset=".921" style="stop-color:#b0b6b8"/></linearGradient><path fill="url(#E)" d="M36.16 51.239c-.38.471-1.704.568-1.866.32-.317-.488.403-1.5 0-2.277-.321-.617 2.383-.862 2.047-.354-.419.632.209 1.831-.181 2.311z"/><linearGradient id="F" x1="309.709" x2="309.709" y1="52.173" y2="48.85" gradientTransform="translate(-276.578)" gradientUnits="userSpaceOnUse"><stop offset="0" style="stop-color:#f2f5f7"/><stop offset=".249" style="stop-color:#eef1f3"/><stop offset=".486" style="stop-color:#e3e6e8"/><stop offset=".717" style="stop-color:#d0d4d6"/><stop offset=".921" style="stop-color:#b8bdbf"/></linearGradient><path fill="url(#F)" d="M34.169 51.705c-.3.45-2.125.628-2.18.299-.172-1.032.316-1.553.011-2.447-.204-.6 2.47-1.001 2.294-.436-.259.828.247 2.028-.125 2.584z"/></svg>