<svg xmlns="http://www.w3.org/2000/svg" xml:space="preserve" viewBox="0 0 64 64"><linearGradient id="a" x1="32" x2="32" y1="2" y2="62" gradientUnits="userSpaceOnUse"><stop offset="0" style="stop-color:#bc2af7"/><stop offset=".216" style="stop-color:#b928f3"/><stop offset=".44" style="stop-color:#b121e6"/><stop offset=".668" style="stop-color:#a217d2"/><stop offset=".896" style="stop-color:#8e08b5"/><stop offset=".995" style="stop-color:#8400a6"/></linearGradient><path fill="url(#a)" d="M62 54c0 4.4-3.6 8-8 8H10c-4.4 0-8-3.6-8-8V10c0-4.4 3.6-8 8-8h44c4.4 0 8 3.6 8 8v44z"/><path fill="#FFF" d="M39.202 47c-8.284 0-15-6.716-15-15s6.716-15 15-15c4.673 0 8.845 2.137 11.596 5.486C47.414 16.242 40.804 12 33.202 12c-11.046 0-20 8.955-20 20s8.954 20 20 20c7.602 0 14.212-4.242 17.596-10.486A14.968 14.968 0 0 1 39.202 47z"/><path fill="#FFF" d="M42.077 34.716 46.766 38l-1.772-5.341 4.666-3.311-5.78-.017L42.077 24l-1.801 5.331-5.782.017 4.668 3.311L37.391 38z"/></svg>