<svg xmlns="http://www.w3.org/2000/svg" xml:space="preserve" viewBox="0 0 64 64"><linearGradient id="a" x1="88" x2="88" y1="-82" y2="-142" gradientTransform="matrix(1 0 0 -1 -56 -80)" gradientUnits="userSpaceOnUse"><stop offset="0" style="stop-color:#00c9ff"/><stop offset=".498" style="stop-color:#5d2dff"/><stop offset="1" style="stop-color:#f600ff"/></linearGradient><path fill="url(#a)" d="M32 2C15.433 2 2 15.431 2 32c0 16.566 13.433 30 30 30s30-13.434 30-30C62 15.431 48.566 2 32 2zm3 35.518 12.652 12.651A23.882 23.882 0 0 1 35 55.793V37.518zm-6 18.274a23.867 23.867 0 0 1-12.651-5.624L29 37.516v18.276zM8 32C8 19.763 17.166 9.687 29 8.207V29.03L12.32 45.71A23.85 23.85 0 0 1 8 32zm43.68 13.711L35 29.032V8.207C46.836 9.687 56 19.763 56 32c0 5.102-1.604 9.823-4.32 13.711z"/></svg>