<svg xmlns="http://www.w3.org/2000/svg" xml:space="preserve" viewBox="0 0 64 64"><linearGradient id="a" x1="32" x2="32" y1="2" y2="62" gradientUnits="userSpaceOnUse"><stop offset="0" style="stop-color:#bc2af7"/><stop offset=".216" style="stop-color:#b928f3"/><stop offset=".44" style="stop-color:#b121e6"/><stop offset=".668" style="stop-color:#a217d2"/><stop offset=".896" style="stop-color:#8e08b5"/><stop offset=".995" style="stop-color:#8400a6"/></linearGradient><path fill="url(#a)" d="M62 54c0 4.4-3.6 8-8 8H10c-4.4 0-8-3.6-8-8V10c0-4.4 3.6-8 8-8h44c4.4 0 8 3.6 8 8v44z"/><circle cx="32.784" cy="40.965" r="3.375" fill="#FFF"/><path fill="#FFF" d="M32 12c-11.046 0-20 8.954-20 20s8.954 20 20 20 20-8.954 20-20-8.954-20-20-20zm.541 36.329c-4.126-.083-7.611-3.263-7.979-7.464A8.183 8.183 0 0 1 32 32a8.185 8.185 0 0 0 7.438-8.864c-.391-4.465-4.285-7.425-8.757-7.434 4.142-.335 8.411.887 11.838 3.763 6.912 5.8 7.816 16.141 2.017 23.054-3.105 3.699-7.511 5.66-11.995 5.81zm-1.522-27.536a3.068 3.068 0 1 1 .534 6.114 3.068 3.068 0 0 1-.534-6.114z"/></svg>