<svg xmlns="http://www.w3.org/2000/svg" xml:space="preserve" style="enable-background:new 0 0 64 64" viewBox="0 0 64 64"><linearGradient id="a" x1="32" x2="32" y1="62" y2="2" gradientUnits="userSpaceOnUse"><stop offset="0" style="stop-color:#ff9500"/><stop offset=".192" style="stop-color:#ffad00"/><stop offset=".545" style="stop-color:#ffd500"/><stop offset=".827" style="stop-color:#ffed00"/><stop offset="1" style="stop-color:#fff600"/></linearGradient><circle cx="32" cy="32" r="30" style="fill:url(#a)"/><radialGradient id="b" cx="14.19" cy="38" r="11" gradientUnits="userSpaceOnUse"><stop offset="0" style="stop-color:#ff6399;stop-opacity:.55"/><stop offset=".202" style="stop-color:#ff6596;stop-opacity:.4387"/><stop offset=".365" style="stop-color:#ff6c8c;stop-opacity:.3493"/><stop offset=".513" style="stop-color:#ff767b;stop-opacity:.2676"/><stop offset=".654" style="stop-color:#ff8663;stop-opacity:.1903"/><stop offset=".789" style="stop-color:#ff9a44;stop-opacity:.1162"/><stop offset=".917" style="stop-color:#ffb21f;stop-opacity:.0455"/><stop offset="1" style="stop-color:#ffc403;stop-opacity:0"/></radialGradient><circle cx="14.19" cy="38" r="11" style="fill:url(#b)"/><radialGradient id="c" cx="49.811" cy="38" r="11" gradientUnits="userSpaceOnUse"><stop offset="0" style="stop-color:#ff6399;stop-opacity:.55"/><stop offset=".202" style="stop-color:#ff6596;stop-opacity:.4387"/><stop offset=".365" style="stop-color:#ff6c8c;stop-opacity:.3493"/><stop offset=".513" style="stop-color:#ff767b;stop-opacity:.2676"/><stop offset=".654" style="stop-color:#ff8663;stop-opacity:.1903"/><stop offset=".789" style="stop-color:#ff9a44;stop-opacity:.1162"/><stop offset=".917" style="stop-color:#ffb21f;stop-opacity:.0455"/><stop offset="1" style="stop-color:#ffc403;stop-opacity:0"/></radialGradient><circle cx="49.81" cy="38" r="11" style="fill:url(#c)"/><path d="M40.95 41.26c-5.45 4.66-12.45 4.66-17.89 0-.77-.66-1.23.05-.99.61 4.18 9.5 15.69 9.5 19.87 0 .24-.55-.22-1.26-.99-.61zm-4.21-11.75c2.97-2.19 8.32-2.34 11.53 0 .74.54 1.97.17 1.7-.46-2.8-6.42-12.13-6.41-14.93 0-.28.62.96 1 1.7.46zm-9.48 0c-2.97-2.19-8.32-2.34-11.53 0-.74.54-1.97.17-1.7-.46 2.8-6.42 12.13-6.41 14.93 0 .28.62-.96 1-1.7.46z" style="fill:#1a1626"/><path d="M17.39 14.63c-10.64 4-4.72 6.32 4.69 4.04 5.31-1.29 2.32-6.67-4.69-4.04zm29.21.02c-7.01-2.64-10 2.75-4.69 4.04 9.41 2.28 15.34-.04 4.69-4.04z" style="fill:#d69600"/></svg>