<svg xmlns="http://www.w3.org/2000/svg" xml:space="preserve" style="enable-background:new 0 0 64 64" viewBox="0 0 64 64"><linearGradient id="a" x1="-62" x2="-62" y1="68" y2="8" gradientTransform="matrix(1 0 0 -1 94 70)" gradientUnits="userSpaceOnUse"><stop offset="0" style="stop-color:#00abf1"/><stop offset=".229" style="stop-color:#00a7ef"/><stop offset=".467" style="stop-color:#009ae9"/><stop offset=".708" style="stop-color:#0086e0"/><stop offset=".95" style="stop-color:#0069d3"/><stop offset="1" style="stop-color:#0062d0"/></linearGradient><path d="M62 54c0 4.4-3.6 8-8 8H10c-4.4 0-8-3.6-8-8V10c0-4.4 3.6-8 8-8h44c4.4 0 8 3.6 8 8v44z" style="fill:url(#a)"/><path d="M49.854 10.5H37.48l-.002 5.152h7.223l-8.693 8.693a16.014 16.014 0 0 0-9.406-3.05C17.71 21.294 10.5 28.505 10.5 37.4c0 8.891 7.21 16.1 16.102 16.101 8.893 0 16.104-7.21 16.104-16.101a16.01 16.01 0 0 0-3.054-9.411l8.694-8.695v7.228l5.152-.002.002-16.02h-3.646zM26.602 48.346c-6.046 0-10.95-4.901-10.95-10.949 0-6.047 4.904-10.95 10.95-10.948 6.047 0 10.95 4.902 10.95 10.948 0 6.047-4.903 10.952-10.95 10.949z" style="fill:#fff"/></svg>