<svg xmlns="http://www.w3.org/2000/svg" xml:space="preserve" style="enable-background:new 0 0 64 64" viewBox="0 0 64 64"><linearGradient id="a" x1="-62" x2="-62" y1="68" y2="8" gradientTransform="matrix(1 0 0 -1 94 70)" gradientUnits="userSpaceOnUse"><stop offset="0" style="stop-color:#bc2af7"/><stop offset=".216" style="stop-color:#b928f3"/><stop offset=".44" style="stop-color:#b121e6"/><stop offset=".668" style="stop-color:#a217d2"/><stop offset=".896" style="stop-color:#8e08b5"/><stop offset=".995" style="stop-color:#8400a6"/></linearGradient><path d="M62 54c0 4.4-3.6 8-8 8H10c-4.4 0-8-3.6-8-8V10c0-4.4 3.6-8 8-8h44c4.4 0 8 3.6 8 8v44z" style="fill:url(#a)"/><path d="M32 52.5c-3.67 0-7.17-1.5-9.84-4.21-2.93-2.97-4.27-6.48-4-10.42.32-4.62 2.56-8.22 6.86-10.99-1.63-.78-2.82-1.77-3.65-3.01-.63-.93-1.22-1.91-1.79-2.85l-.58-.94c-.21-.34-.42-.69-.62-1.04-.37-.64-.76-1.31-1.19-1.92-.85-1.21-1.82-1.93-2.97-2.18-.29-.07-.59-.09-.89-.12-.15-.01-.3-.03-.46-.04a.499.499 0 0 1-.44-.5V12c0-.28.22-.5.5-.5h1.29c1.72-.04 3.28.57 4.72 1.8 1.49 1.27 2.54 2.86 3.46 4.39l.66 1.11c.64 1.08 1.29 2.2 1.99 3.25 1.23 1.86 2.79 2.94 4.77 3.28 1.44.25 2.92.25 4.36 0 1.98-.34 3.54-1.42 4.77-3.28.7-1.06 1.35-2.17 1.99-3.25l.66-1.11c.91-1.53 1.96-3.12 3.46-4.39 1.45-1.23 3.03-1.82 4.72-1.8h1.29c.28 0 .5.22.5.5v2.28c0 .25-.19.47-.44.5-.15.02-.3.03-.46.04-.3.03-.6.05-.89.11-1.15.25-2.12.97-2.97 2.18-.43.61-.81 1.27-1.19 1.92-.2.35-.41.7-.62 1.04l-.57.93c-.57.94-1.17 1.92-1.8 2.86-.83 1.24-2.02 2.22-3.65 3.01 4.29 2.77 6.54 6.37 6.86 10.99.27 3.95-1.08 7.45-4 10.42C39.17 51 35.67 52.5 32 52.5zm-.01-4.14c2.58.03 4.98-.96 6.86-2.8 1.84-1.8 2.91-4.23 2.93-6.67.02-2.54-1.02-5.06-2.85-6.91a9.695 9.695 0 0 0-6.92-2.87H32c-2.62 0-5.08 1.02-6.92 2.88-1.83 1.85-2.87 4.36-2.85 6.9.02 2.44 1.08 4.87 2.93 6.67 1.86 1.84 4.3 2.83 6.83 2.8zm10.29-9.47z" style="fill:#fff"/></svg>