<svg xmlns="http://www.w3.org/2000/svg" xml:space="preserve" style="enable-background:new 0 0 64 64" viewBox="0 0 64 64"><linearGradient id="a" x1="-62" x2="-62" y1="68" y2="8" gradientTransform="matrix(1 0 0 -1 94 70)" gradientUnits="userSpaceOnUse"><stop offset="0" style="stop-color:#bc2af7"/><stop offset=".216" style="stop-color:#b928f3"/><stop offset=".44" style="stop-color:#b121e6"/><stop offset=".668" style="stop-color:#a217d2"/><stop offset=".896" style="stop-color:#8e08b5"/><stop offset=".995" style="stop-color:#8400a6"/></linearGradient><path d="M62 54c0 4.4-3.6 8-8 8H10c-4.4 0-8-3.6-8-8V10c0-4.4 3.6-8 8-8h44c4.4 0 8 3.6 8 8v44z" style="fill:url(#a)"/><path d="M29.98 48.01c-5.18 0-11.25-1.03-18.18-4.06a.505.505 0 0 1-.3-.46V40.1c0-.17.09-.33.23-.42.15-.09.33-.1.48-.03 12.35 5.96 22.05 4.73 27.29 3.15-1.69-1.04-4-3.21-4-7.34 0-4.99 3.4-8.35 8.47-8.35 5.88 0 8.52 4.46 8.52 8.87 0 4.24-3.11 7.65-8.75 9.59-3.52 1.22-8.12 2.44-13.76 2.44zm13.98-17.86c-2.91 0-5.38 2.43-5.39 5.31-.01 2.94 2.39 5.36 5.35 5.39 1.45-.01 2.84-.54 3.88-1.56 1.02-1 1.59-2.34 1.59-3.76 0-3.01-2.38-5.37-5.41-5.38h-.02z" style="fill:#fff"/><path d="M20.01 36.89c-5.88 0-8.51-4.46-8.51-8.87 0-4.24 3.11-7.65 8.75-9.59 6.78-2.33 17.47-4.7 31.95 1.62.18.08.3.26.3.46v3.39c0 .17-.09.33-.23.42-.14.09-.33.1-.48.03-12.35-5.96-22.05-4.73-27.29-3.15 1.69 1.04 4 3.21 4 7.34-.02 4.99-3.42 8.35-8.49 8.35zm.01-13.75c-1.44 0-2.8.55-3.82 1.56-1.02 1-1.59 2.34-1.59 3.76 0 3 2.38 5.37 5.41 5.38h.02c2.91 0 5.38-2.43 5.39-5.31.01-2.94-2.39-5.36-5.35-5.39h-.06z" style="fill:#fff"/></svg>