<svg xmlns="http://www.w3.org/2000/svg" xml:space="preserve" style="enable-background:new 0 0 64 64" viewBox="0 0 64 64"><linearGradient id="a" x1="-62" x2="-62" y1="68" y2="8" gradientTransform="matrix(1 0 0 -1 94 70)" gradientUnits="userSpaceOnUse"><stop offset="0" style="stop-color:#bc2af7"/><stop offset=".216" style="stop-color:#b928f3"/><stop offset=".44" style="stop-color:#b121e6"/><stop offset=".668" style="stop-color:#a217d2"/><stop offset=".896" style="stop-color:#8e08b5"/><stop offset=".995" style="stop-color:#8400a6"/></linearGradient><path d="M62 54c0 4.4-3.6 8-8 8H10c-4.4 0-8-3.6-8-8V10c0-4.4 3.6-8 8-8h44c4.4 0 8 3.6 8 8v44z" style="fill:url(#a)"/><path d="M27.21 38.34zm-17.18 9.01v3.1c0 .3.24.55.55.55h42.85c.3 0 .55-.24.55-.55v-3.1c0-.3-.24-.55-.55-.55H10.58c-.31.01-.55.25-.55.55zm17.18-12.94c0-.18-.09-.34-.24-.44-7.39-5.07-4.22-16.72 5.03-16.72s12.42 11.65 5.03 16.72c-.15.1-.24.26-.24.44v3.39c0 .3.24.55.55.55h16.09c.3 0 .55-.24.55-.55v-3.13c0-.3-.24-.55-.55-.55H42.2C49.9 25.67 42.62 13 32 13S14.1 25.67 21.8 34.12H10.58c-.3 0-.55.24-.55.55v3.13c0 .3.24.55.55.55h16.09c.3 0 .55-.24.55-.55v-3.39z" style="fill:#fff"/></svg>