<svg xmlns="http://www.w3.org/2000/svg" xml:space="preserve" style="enable-background:new 0 0 64 64" viewBox="0 0 64 64"><linearGradient id="a" x1="-62" x2="-62" y1="68" y2="8" gradientTransform="matrix(1 0 0 -1 94 70)" gradientUnits="userSpaceOnUse"><stop offset="0" style="stop-color:#bc2af7"/><stop offset=".216" style="stop-color:#b928f3"/><stop offset=".44" style="stop-color:#b121e6"/><stop offset=".668" style="stop-color:#a217d2"/><stop offset=".896" style="stop-color:#8e08b5"/><stop offset=".995" style="stop-color:#8400a6"/></linearGradient><path d="M62 54c0 4.4-3.6 8-8 8H10c-4.4 0-8-3.6-8-8V10c0-4.4 3.6-8 8-8h44c4.4 0 8 3.6 8 8v44z" style="fill:url(#a)"/><path d="M49.42 15.02a.51.51 0 0 0-.44-.44L31.05 12.5a.508.508 0 0 0-.37.11c-.1.08-.17.2-.19.34l-.4 3.64c-.03.27.17.52.44.55l11.63 1.3-15.98 15.99-6.56-6.56a.513.513 0 0 0-.71 0l-2.59 2.59c-.2.2-.2.51 0 .71l6.56 6.56-10.23 10.23c-.2.2-.2.51 0 .71l2.69 2.69a.485.485 0 0 0 .7 0l10.23-10.23 6.56 6.56c.19.19.52.19.71 0l2.59-2.59c.2-.2.2-.51 0-.71l-6.56-6.56 15.98-15.98 1.3 11.63c.03.27.27.47.55.44l3.64-.4c.13-.01.25-.08.34-.19s.12-.24.11-.37l-2.07-17.94z" style="fill:#fff"/></svg>