<svg xmlns="http://www.w3.org/2000/svg" xml:space="preserve" style="enable-background:new 0 0 64 64" viewBox="0 0 64 64"><linearGradient id="a" x1="-62" x2="-62" y1="68" y2="8" gradientTransform="matrix(1 0 0 -1 94 70)" gradientUnits="userSpaceOnUse"><stop offset="0" style="stop-color:#bc2af7"/><stop offset=".216" style="stop-color:#b928f3"/><stop offset=".44" style="stop-color:#b121e6"/><stop offset=".668" style="stop-color:#a217d2"/><stop offset=".896" style="stop-color:#8e08b5"/><stop offset=".995" style="stop-color:#8400a6"/></linearGradient><path d="M62 54c0 4.4-3.6 8-8 8H10c-4.4 0-8-3.6-8-8V10c0-4.4 3.6-8 8-8h44c4.4 0 8 3.6 8 8v44z" style="fill:url(#a)"/><path d="M37.91 47.01c-.05 0-.09-.01-.14-.02a.499.499 0 0 1-.3-.27l-2.6-6.17-9.58 6.38c-.12.08-.26.1-.39.06a.499.499 0 0 1-.3-.27l-2.62-6.17-9.67 6.38c-.1.07-.23.09-.35.07a.52.52 0 0 1-.3-.2l-1.59-2.41c-.14-.22-.09-.52.12-.66l13.03-8.63c.12-.08.26-.1.39-.06.13.04.24.14.3.26l2.63 6.17 9.62-6.38c.12-.08.26-.1.39-.06.13.04.24.14.3.27l2.6 6.17 9.63-6.38c.12-.08.26-.1.39-.06.13.04.24.14.3.27l4.17 9.85c.1.23-.01.51-.24.61l-2.7 1.2c-.12.05-.25.05-.36.01a.49.49 0 0 1-.26-.25l-2.57-6.17-9.67 6.38c-.05.05-.14.08-.23.08zM12.06 28.98c-.03 0-.06 0-.09-.01a.52.52 0 0 1-.3-.2l-1.59-2.41c-.14-.22-.09-.52.12-.66l13.03-8.63c.12-.08.26-.1.39-.06.13.04.24.14.3.26l2.63 6.17 9.62-6.38c.12-.08.26-.1.39-.06.13.04.24.14.3.27l2.6 6.17 9.63-6.38c.12-.08.26-.1.39-.06.13.04.24.14.3.27l4.17 9.85c.1.23-.01.51-.24.61l-2.7 1.2c-.12.05-.25.05-.36.01a.49.49 0 0 1-.26-.25l-2.57-6.17-9.67 6.38c-.12.08-.26.1-.39.06a.499.499 0 0 1-.3-.27l-2.6-6.17-9.56 6.38c-.12.08-.26.1-.39.06a.499.499 0 0 1-.3-.27l-2.62-6.17-9.67 6.38c-.08.05-.17.08-.26.08z" style="fill:#fff"/></svg>