<svg xmlns="http://www.w3.org/2000/svg" xml:space="preserve" style="enable-background:new 0 0 64 64" viewBox="0 0 64 64"><path d="M14.512 61.152c-.147.149 0 .848 0 .848h34.976s.147-.7 0-.848c-6.182-6.304-28.794-6.304-34.976 0z" style="fill:#4a474f"/><radialGradient id="a" cx="29" cy="5.287" r="11.022" gradientUnits="userSpaceOnUse"><stop offset="0" style="stop-color:#a3a9ad"/><stop offset=".359" style="stop-color:#82858a"/><stop offset="1" style="stop-color:#4a474f"/></radialGradient><path d="M40.912 10.912a8.912 8.912 0 1 1-17.823 0 8.912 8.912 0 0 1 17.823 0z" style="fill:url(#a)"/><radialGradient id="b" cx="26" cy="51.076" r="12.947" gradientTransform="matrix(0 -1 8 0 -382.606 77.076)" gradientUnits="userSpaceOnUse"><stop offset="0" style="stop-color:#a3a9ad"/><stop offset=".011" style="stop-color:#9ea3a7"/><stop offset=".076" style="stop-color:#7f8287"/><stop offset=".143" style="stop-color:#68686f"/><stop offset=".212" style="stop-color:#57565d"/><stop offset=".284" style="stop-color:#4d4b52"/><stop offset=".364" style="stop-color:#4a474f"/></radialGradient><path d="M45.571 48.043c-1.357-1.586-.596-2.813-3.416-3.09-2.37-.914-17.94-.914-20.31 0-2.82.277-2.059 1.504-3.416 3.09-.871 1.018-5.807 2.33-2.134 7.215 2.34 3.168 29.07 3.168 31.41 0 3.673-4.885-1.263-6.197-2.134-7.215z" style="fill:url(#b)"/><radialGradient id="c" cx="29.5" cy="33.805" r="10.663" gradientTransform="matrix(1 0 0 8 0 -236.633)" gradientUnits="userSpaceOnUse"><stop offset="0" style="stop-color:#a3a9ad"/><stop offset=".016" style="stop-color:#9ea3a7"/><stop offset=".115" style="stop-color:#7f8287"/><stop offset=".217" style="stop-color:#68686f"/><stop offset=".322" style="stop-color:#57565d"/><stop offset=".431" style="stop-color:#4d4b52"/><stop offset=".551" style="stop-color:#4a474f"/></radialGradient><path d="M39.63 23.611c-1.427-1.273-13.833-1.273-15.26 0 3.673 13.287-2.525 21.342-2.525 21.342h20.31s-6.198-8.055-2.525-21.342z" style="fill:url(#c)"/><radialGradient id="d" cx="27.584" cy="21.439" r="7.791" gradientTransform="matrix(0 -1 8 0 -143.924 49.023)" gradientUnits="userSpaceOnUse"><stop offset="0" style="stop-color:#a3a9ad"/><stop offset=".008" style="stop-color:#9ea3a7"/><stop offset=".058" style="stop-color:#7f8287"/><stop offset=".11" style="stop-color:#68686f"/><stop offset=".163" style="stop-color:#57565d"/><stop offset=".218" style="stop-color:#4d4b52"/><stop offset=".279" style="stop-color:#4a474f"/></radialGradient><path d="M42.44 21.004c-4.109-.742-6.083-2.572-6.083-2.572h-8.714s-1.974 1.83-6.083 2.572c-.359.064-.359 1.396 0 1.463 1.84.34 2.81 1.144 2.81 1.144h15.26s.97-.804 2.81-1.144c.359-.067.36-1.399 0-1.463z" style="fill:url(#d)"/><radialGradient id="e" cx="21.625" cy="58.205" r="13.596" gradientTransform="matrix(0 -1 8 0 -444.016 79.83)" gradientUnits="userSpaceOnUse"><stop offset="0" style="stop-color:#a3a9ad"/><stop offset=".005" style="stop-color:#9ea3a7"/><stop offset=".039" style="stop-color:#7f8287"/><stop offset=".074" style="stop-color:#68686f"/><stop offset=".11" style="stop-color:#57565d"/><stop offset=".147" style="stop-color:#4d4b52"/><stop offset=".188" style="stop-color:#4a474f"/></radialGradient><path d="M47.705 55.258h-31.41C15.184 56.348 13 56.63 13 57.836c0 .955 1.587 1.86 1.587 3.316h34.826c0-1.457 1.587-2.361 1.587-3.316 0-1.205-2.184-1.488-3.295-2.578z" style="fill:url(#e)"/><radialGradient id="f" cx="549.129" cy="28.425" r="13.48" gradientTransform="matrix(.3583 .4654 -.5242 .4036 -154.45 -262.523)" gradientUnits="userSpaceOnUse"><stop offset="0" style="stop-color:#fff;stop-opacity:.15"/><stop offset=".776" style="stop-color:#fff;stop-opacity:0"/></radialGradient><path d="M32.652 11.459c-2.015 1.555-4.768 1.361-6.144-.428-1.381-1.793-.864-4.504 1.153-6.055 2.017-1.556 4.77-1.362 6.15.428 1.38 1.793.86 4.504-1.159 6.055z" style="fill:url(#f)"/></svg>