<svg xmlns="http://www.w3.org/2000/svg" xml:space="preserve" style="enable-background:new 0 0 64 64" viewBox="0 0 64 64"><linearGradient id="a" x1="32" x2="32" y1="61.467" y2="1.466" gradientUnits="userSpaceOnUse"><stop offset="0" style="stop-color:#c90100"/><stop offset=".013" style="stop-color:#ca0302"/><stop offset=".279" style="stop-color:#e12221"/><stop offset=".538" style="stop-color:#f23838"/><stop offset=".783" style="stop-color:#fc4545"/><stop offset="1" style="stop-color:#ff4a4a"/></linearGradient><path d="M51.38 32c3.33 2.42 5.34 5.46 5.34 8.78 0 7.83-11.07 14.17-24.72 14.17-13.65 0-24.71-6.35-24.71-14.17 0-3.32 2-6.36 5.33-8.78C6.13 35.12 2 39.78 2 44.98 2 54.38 15.43 62 32 62s30-7.62 30-17.02c0-5.2-4.13-9.86-10.62-12.98z" style="fill:url(#a)"/><linearGradient id="b" x1="44.868" x2="44.868" y1="61.467" y2="1.448" gradientUnits="userSpaceOnUse"><stop offset="0" style="stop-color:#c90100"/><stop offset=".013" style="stop-color:#ca0302"/><stop offset=".279" style="stop-color:#e12221"/><stop offset=".538" style="stop-color:#f23838"/><stop offset=".783" style="stop-color:#fc4545"/><stop offset="1" style="stop-color:#ff4a4a"/></linearGradient><path d="M40.65 46c24.11-26.12-7.29-22.37 7.47-44-22.53 22.72 8.81 19.8-7.47 44z" style="fill:url(#b)"/><linearGradient id="c" x1="31" x2="31" y1="61.467" y2="1.448" gradientUnits="userSpaceOnUse"><stop offset="0" style="stop-color:#c90100"/><stop offset=".013" style="stop-color:#ca0302"/><stop offset=".279" style="stop-color:#e12221"/><stop offset=".538" style="stop-color:#f23838"/><stop offset=".783" style="stop-color:#fc4545"/><stop offset="1" style="stop-color:#ff4a4a"/></linearGradient><path d="M26.78 46c24.11-26.12-7.29-22.37 7.47-44-22.52 22.72 8.81 19.8-7.47 44z" style="fill:url(#c)"/><linearGradient id="d" x1="17.132" x2="17.132" y1="61.467" y2="1.448" gradientUnits="userSpaceOnUse"><stop offset="0" style="stop-color:#c90100"/><stop offset=".013" style="stop-color:#ca0302"/><stop offset=".279" style="stop-color:#e12221"/><stop offset=".538" style="stop-color:#f23838"/><stop offset=".783" style="stop-color:#fc4545"/><stop offset="1" style="stop-color:#ff4a4a"/></linearGradient><path d="M12.91 46c24.11-26.12-7.29-22.37 7.47-44-22.52 22.72 8.81 19.8-7.47 44z" style="fill:url(#d)"/></svg>