<svg xmlns="http://www.w3.org/2000/svg" xml:space="preserve" style="enable-background:new 0 0 64 64" viewBox="0 0 64 64"><linearGradient id="a" x1="-62" x2="-62" y1="8" y2="68" gradientTransform="matrix(1 0 0 -1 94 70)" gradientUnits="userSpaceOnUse"><stop offset="0" style="stop-color:#9100b5"/><stop offset=".307" style="stop-color:#a110ce"/><stop offset=".75" style="stop-color:#b523ec"/><stop offset="1" style="stop-color:#bc2af7"/></linearGradient><path d="M62 54c0 4.4-3.6 8-8 8H10c-4.4 0-8-3.6-8-8V10c0-4.4 3.6-8 8-8h44c4.4 0 8 3.6 8 8v44z" style="fill:url(#a)"/><path d="M45.625 19.868c-6.78.084-9.914 4.643-13.625 8.017-3.711-3.374-6.845-7.933-13.624-8.017C10.846 19.775 6.057 25.266 6 32c.058 6.734 4.846 12.225 12.376 12.132 6.779-.084 9.913-4.644 13.624-8.017 3.711 3.373 6.845 7.933 13.625 8.017C53.155 44.225 57.945 38.734 58 32c-.056-6.734-4.845-12.225-12.375-12.132zm-27.249 19.56c-4.91 0-7.674-3.25-7.729-7.428.055-4.178 2.819-7.427 7.73-7.427 4.884 0 7.88 4.213 10.508 7.426-2.628 3.215-5.624 7.428-10.509 7.428zm27.249 0c-4.886 0-7.882-4.214-10.51-7.428 2.627-3.215 5.624-7.427 10.51-7.427 4.91 0 7.673 3.249 7.728 7.426-.055 4.178-2.818 7.428-7.728 7.428z" style="fill:#fff"/></svg>