<svg xmlns="http://www.w3.org/2000/svg" xml:space="preserve" style="enable-background:new 0 0 64 64" viewBox="0 0 64 64"><linearGradient id="a" x1="32" x2="32" y1="-.145" y2="63.633" gradientUnits="userSpaceOnUse"><stop offset="0" style="stop-color:#21d3ff"/><stop offset="1" style="stop-color:#0bf"/></linearGradient><path d="M39.592 9.152c-10.968-2.909-17.759.64-19.355 5.139-1.45 4.088 3.943 8.452 11.26 8.839 7.89.417 8.295 4.02 0 6.634-11.311 3.565-13.343 11.012 0 15.464 3.822 1.276 3.445 2.942 0 4.907-10.15 5.79-3.017 11.138 2.172 12.837-3.645-2.19-8.538-6.501-2.172-9.175 7.97-3.348 9.246-8.315 0-12.282-6.771-2.905-5.35-5.736 0-7.237 16.645-4.672 12.688-14.88 0-15.977-4.006-.347-6.54-1.759-5.707-3.198.99-1.71 5.859-2.816 9.66-2.108.146.027.218.017.26.216.589 2.742 6.174 2.709 7.868 1.4 1.005-.776.418-4.29-3.986-5.459zm-.72 3.274c-.445-.003-.774-.355-.773-.825.001-.454.356-.822.786-.817.437.006.776.37.773.832-.002.468-.337.814-.786.81z" style="fill:url(#a)"/><linearGradient id="b" x1="31.497" x2="31.497" y1="-.145" y2="63.633" gradientUnits="userSpaceOnUse"><stop offset="0" style="stop-color:#21d3ff"/><stop offset="1" style="stop-color:#0bf"/></linearGradient><path d="M34.91 3.328C34.91 1.49 33.382 0 31.497 0c-1.885 0-3.413 1.49-3.413 3.328 0 1.15.598 2.163 1.506 2.76l.046 1.653a22.22 22.22 0 0 1 3.726-.105l.042-1.547a3.304 3.304 0 0 0 1.506-2.76z" style="fill:url(#b)"/><linearGradient id="c" x1="31.507" x2="31.507" y1="-.145" y2="63.633" gradientUnits="userSpaceOnUse"><stop offset="0" style="stop-color:#21d3ff"/><stop offset="1" style="stop-color:#0bf"/></linearGradient><path d="m30.393 35.166.41 14.81c.152-.091.287-.184.446-.275.384-.219.69-.417.967-.607l.405-14.633c-.326.101-.65.203-.989.298a15.54 15.54 0 0 0-1.239.407z" style="fill:url(#c)"/><linearGradient id="d" x1="31.505" x2="31.505" y1="-.145" y2="63.633" gradientUnits="userSpaceOnUse"><stop offset="0" style="stop-color:#21d3ff"/><stop offset="1" style="stop-color:#0bf"/></linearGradient><path d="m30.931 54.618.254 9.198c0 .245.624.245.624 0l.27-9.737c-.134.059-.251.121-.388.179a9.728 9.728 0 0 0-.76.36z" style="fill:url(#d)"/><linearGradient id="e" x1="31.502" x2="31.502" y1="-.145" y2="63.633" gradientUnits="userSpaceOnUse"><stop offset="0" style="stop-color:#21d3ff"/><stop offset="1" style="stop-color:#0bf"/></linearGradient><path d="M30.241 29.659c.36-.129.728-.253 1.106-.372.514-.162.99-.327 1.43-.494l.428-15.504a15.633 15.633 0 0 0-3.407.326l.443 16.044z" style="fill:url(#e)"/></svg>