<svg xmlns="http://www.w3.org/2000/svg" xml:space="preserve" style="enable-background:new 0 0 64 64" viewBox="0 0 64 64"><linearGradient id="a" x1="30" x2="34" y1="33.5" y2="33.5" gradientUnits="userSpaceOnUse"><stop offset="0" style="stop-color:#c48300"/><stop offset=".305" style="stop-color:#ffe173"/><stop offset=".411" style="stop-color:#fcdc6d"/><stop offset=".558" style="stop-color:#f2cd5b"/><stop offset=".73" style="stop-color:#e3b53d"/><stop offset=".918" style="stop-color:#ce9314"/><stop offset="1" style="stop-color:#c48300"/></linearGradient><path d="M30 11h4v45h-4z" style="fill:url(#a)"/><linearGradient id="b" x1="27.2" x2="36.8" y1="56.006" y2="56.006" gradientUnits="userSpaceOnUse"><stop offset="0" style="stop-color:#c48300"/><stop offset=".305" style="stop-color:#ffe173"/><stop offset=".411" style="stop-color:#fcdc6d"/><stop offset=".558" style="stop-color:#f2cd5b"/><stop offset=".73" style="stop-color:#e3b53d"/><stop offset=".918" style="stop-color:#ce9314"/><stop offset="1" style="stop-color:#c48300"/></linearGradient><path d="M27.2 57h9.6c0-2.65-9.6-2.65-9.6 0z" style="fill:url(#b)"/><linearGradient id="c" x1="24" x2="40" y1="57.5" y2="57.5" gradientUnits="userSpaceOnUse"><stop offset="0" style="stop-color:#c48300"/><stop offset=".305" style="stop-color:#ffe173"/><stop offset=".411" style="stop-color:#fcdc6d"/><stop offset=".558" style="stop-color:#f2cd5b"/><stop offset=".73" style="stop-color:#e3b53d"/><stop offset=".918" style="stop-color:#ce9314"/><stop offset="1" style="stop-color:#c48300"/></linearGradient><path d="M24 59h16a3 3 0 0 0-3-3H27a3 3 0 0 0-3 3z" style="fill:url(#c)"/><radialGradient id="d" cx="32" cy="14.05" r="19.304" gradientUnits="userSpaceOnUse"><stop offset=".313" style="stop-color:#c48300"/><stop offset=".394" style="stop-color:#ce9314"/><stop offset=".58" style="stop-color:#e3b53d"/><stop offset=".75" style="stop-color:#f2cd5b"/><stop offset=".895" style="stop-color:#fcdc6d"/><stop offset="1" style="stop-color:#ffe173"/></radialGradient><path d="M58.672 13.889C52.096 19.969 44.56 10.01 32 10.01c-12.559 0-20.096 9.958-26.672 3.878-.887-.823-.184 3.328 4.738 4.111 6.123.975 13.229-6.319 21.934-6.319 8.707 0 15.812 7.294 21.933 6.319 4.922-.783 5.627-4.934 4.739-4.111z" style="fill:url(#d)"/><linearGradient id="e" x1="16" x2="48" y1="60" y2="60" gradientUnits="userSpaceOnUse"><stop offset="0" style="stop-color:#c48300"/><stop offset=".305" style="stop-color:#ffe173"/><stop offset=".411" style="stop-color:#fcdc6d"/><stop offset=".558" style="stop-color:#f2cd5b"/><stop offset=".73" style="stop-color:#e3b53d"/><stop offset=".918" style="stop-color:#ce9314"/><stop offset="1" style="stop-color:#c48300"/></linearGradient><path d="M16 59.821V62h32v-2.179A1.821 1.821 0 0 0 46.179 58H17.821A1.821 1.821 0 0 0 16 59.821z" style="fill:url(#e)"/><linearGradient id="f" x1="30.084" x2="33.916" y1="5.729" y2="5.729" gradientUnits="userSpaceOnUse"><stop offset="0" style="stop-color:#c48300"/><stop offset=".305" style="stop-color:#ffe173"/><stop offset=".411" style="stop-color:#fcdc6d"/><stop offset=".558" style="stop-color:#f2cd5b"/><stop offset=".73" style="stop-color:#e3b53d"/><stop offset=".918" style="stop-color:#ce9314"/><stop offset="1" style="stop-color:#c48300"/></linearGradient><path d="m31.207 2.428-1.123 7.03h3.832l-1.123-7.03c-.091-.57-1.495-.57-1.586 0z" style="fill:url(#f)"/><linearGradient id="g" x1="29.019" x2="34.981" y1="10.846" y2="10.846" gradientUnits="userSpaceOnUse"><stop offset="0" style="stop-color:#c48300"/><stop offset=".305" style="stop-color:#ffe173"/><stop offset=".411" style="stop-color:#fcdc6d"/><stop offset=".558" style="stop-color:#f2cd5b"/><stop offset=".73" style="stop-color:#e3b53d"/><stop offset=".918" style="stop-color:#ce9314"/><stop offset="1" style="stop-color:#c48300"/></linearGradient><path d="M29.019 7.868v5.956c0 .274.222.496.496.496h4.97a.496.496 0 0 0 .496-.495V7.868a.496.496 0 0 0-.496-.496h-4.97a.496.496 0 0 0-.496.496z" style="fill:url(#g)"/><linearGradient id="h" x1="28.391" x2="35.609" y1="10.846" y2="10.846" gradientUnits="userSpaceOnUse"><stop offset="0" style="stop-color:#c48300"/><stop offset=".305" style="stop-color:#ffe173"/><stop offset=".411" style="stop-color:#fcdc6d"/><stop offset=".558" style="stop-color:#f2cd5b"/><stop offset=".73" style="stop-color:#e3b53d"/><stop offset=".918" style="stop-color:#ce9314"/><stop offset="1" style="stop-color:#c48300"/></linearGradient><path d="M28.391 8.457v4.779c0 .234.19.423.424.423h6.37c.234 0 .424-.19.424-.423V8.457a.423.423 0 0 0-.424-.423h-6.37a.423.423 0 0 0-.424.423z" style="fill:url(#h)"/><linearGradient id="i" x1="8" x2="8" y1="44" y2="21.616" gradientUnits="userSpaceOnUse"><stop offset="0" style="stop-color:#ffe173"/><stop offset=".152" style="stop-color:#fcdc6d"/><stop offset=".364" style="stop-color:#f2cd5b"/><stop offset=".611" style="stop-color:#e3b53d"/><stop offset=".882" style="stop-color:#ce9314"/><stop offset="1" style="stop-color:#c48300"/></linearGradient><path d="M3.5 44h-1l10-22.384h1z" style="fill:url(#i)"/><linearGradient id="j" x1="18" x2="18" y1="44" y2="21.616" gradientUnits="userSpaceOnUse"><stop offset="0" style="stop-color:#ffe173"/><stop offset=".152" style="stop-color:#fcdc6d"/><stop offset=".364" style="stop-color:#f2cd5b"/><stop offset=".611" style="stop-color:#e3b53d"/><stop offset=".882" style="stop-color:#ce9314"/><stop offset="1" style="stop-color:#c48300"/></linearGradient><path d="M23.5 44h-1l-10-22.384h1z" style="fill:url(#j)"/><linearGradient id="k" x1="13" x2="13" y1="22.964" y2="18.069" gradientUnits="userSpaceOnUse"><stop offset="0" style="stop-color:#c48300"/><stop offset=".118" style="stop-color:#ce9314"/><stop offset=".389" style="stop-color:#e3b53d"/><stop offset=".636" style="stop-color:#f2cd5b"/><stop offset=".848" style="stop-color:#fcdc6d"/><stop offset="1" style="stop-color:#ffe173"/></linearGradient><path d="M13 18.07a2.448 2.448 0 1 0 .001 4.896A2.448 2.448 0 0 0 13 18.069zm0 3.947a1.5 1.5 0 1 1 0-3 1.5 1.5 0 0 1 0 3z" style="fill:url(#k)"/><linearGradient id="l" x1="13" x2="13" y1="19.653" y2="14.919" gradientUnits="userSpaceOnUse"><stop offset="0" style="stop-color:#c48300"/><stop offset=".118" style="stop-color:#ce9314"/><stop offset=".389" style="stop-color:#e3b53d"/><stop offset=".636" style="stop-color:#f2cd5b"/><stop offset=".848" style="stop-color:#fcdc6d"/><stop offset="1" style="stop-color:#ffe173"/></linearGradient><path d="M12.444 15.268v4.036c0 .465 1.112.465 1.112 0v-4.036c0-.466-1.112-.466-1.112 0z" style="fill:url(#l)"/><linearGradient id="m" x1="14" x2="14" y1="44" y2="21.616" gradientUnits="userSpaceOnUse"><stop offset="0" style="stop-color:#ffe173"/><stop offset=".152" style="stop-color:#fcdc6d"/><stop offset=".364" style="stop-color:#f2cd5b"/><stop offset=".611" style="stop-color:#e3b53d"/><stop offset=".882" style="stop-color:#ce9314"/><stop offset="1" style="stop-color:#c48300"/></linearGradient><path d="M15.5 44h-1l-2-22.384h1z" style="fill:url(#m)"/><linearGradient id="n" x1="2" x2="24" y1="46.375" y2="46.375" gradientUnits="userSpaceOnUse"><stop offset="0" style="stop-color:#c48300"/><stop offset=".305" style="stop-color:#ffe173"/><stop offset=".411" style="stop-color:#fcdc6d"/><stop offset=".558" style="stop-color:#f2cd5b"/><stop offset=".73" style="stop-color:#e3b53d"/><stop offset=".918" style="stop-color:#ce9314"/><stop offset="1" style="stop-color:#c48300"/></linearGradient><path d="M13 49.375c-6.074 0-11-2.686-11-6h22c0 3.314-4.926 6-11 6z" style="fill:url(#n)"/><linearGradient id="o" x1="-252.839" x2="-252.839" y1="44" y2="21.616" gradientTransform="matrix(-1 0 0 1 -196.839 0)" gradientUnits="userSpaceOnUse"><stop offset="0" style="stop-color:#ffe173"/><stop offset=".152" style="stop-color:#fcdc6d"/><stop offset=".364" style="stop-color:#f2cd5b"/><stop offset=".611" style="stop-color:#e3b53d"/><stop offset=".882" style="stop-color:#ce9314"/><stop offset="1" style="stop-color:#c48300"/></linearGradient><path d="M60.5 44h1l-10-22.384h-1z" style="fill:url(#o)"/><linearGradient id="p" x1="-242.839" x2="-242.839" y1="44" y2="21.616" gradientTransform="matrix(-1 0 0 1 -196.839 0)" gradientUnits="userSpaceOnUse"><stop offset="0" style="stop-color:#ffe173"/><stop offset=".152" style="stop-color:#fcdc6d"/><stop offset=".364" style="stop-color:#f2cd5b"/><stop offset=".611" style="stop-color:#e3b53d"/><stop offset=".882" style="stop-color:#ce9314"/><stop offset="1" style="stop-color:#c48300"/></linearGradient><path d="M40.5 44h1l10-22.384h-1z" style="fill:url(#p)"/><linearGradient id="q" x1="-247.839" x2="-247.839" y1="22.964" y2="18.069" gradientTransform="matrix(-1 0 0 1 -196.839 0)" gradientUnits="userSpaceOnUse"><stop offset="0" style="stop-color:#c48300"/><stop offset=".118" style="stop-color:#ce9314"/><stop offset=".389" style="stop-color:#e3b53d"/><stop offset=".636" style="stop-color:#f2cd5b"/><stop offset=".848" style="stop-color:#fcdc6d"/><stop offset="1" style="stop-color:#ffe173"/></linearGradient><path d="M48.553 20.517a2.447 2.447 0 1 0 4.896 0 2.447 2.447 0 0 0-4.896 0zm.947 0a1.5 1.5 0 1 1 3 0 1.5 1.5 0 0 1-3 0z" style="fill:url(#q)"/><linearGradient id="r" x1="-247.839" x2="-247.839" y1="19.653" y2="14.919" gradientTransform="matrix(-1 0 0 1 -196.839 0)" gradientUnits="userSpaceOnUse"><stop offset="0" style="stop-color:#c48300"/><stop offset=".118" style="stop-color:#ce9314"/><stop offset=".389" style="stop-color:#e3b53d"/><stop offset=".636" style="stop-color:#f2cd5b"/><stop offset=".848" style="stop-color:#fcdc6d"/><stop offset="1" style="stop-color:#ffe173"/></linearGradient><path d="M51.556 15.268v4.036c0 .465-1.112.465-1.112 0v-4.036c0-.466 1.112-.466 1.112 0z" style="fill:url(#r)"/><linearGradient id="s" x1="-246.839" x2="-246.839" y1="44" y2="21.616" gradientTransform="matrix(-1 0 0 1 -196.839 0)" gradientUnits="userSpaceOnUse"><stop offset="0" style="stop-color:#ffe173"/><stop offset=".152" style="stop-color:#fcdc6d"/><stop offset=".364" style="stop-color:#f2cd5b"/><stop offset=".611" style="stop-color:#e3b53d"/><stop offset=".882" style="stop-color:#ce9314"/><stop offset="1" style="stop-color:#c48300"/></linearGradient><path d="M48.5 44h1l2-22.384h-1z" style="fill:url(#s)"/><linearGradient id="t" x1="-258.839" x2="-236.839" y1="46.375" y2="46.375" gradientTransform="matrix(-1 0 0 1 -196.839 0)" gradientUnits="userSpaceOnUse"><stop offset="0" style="stop-color:#c48300"/><stop offset=".305" style="stop-color:#ffe173"/><stop offset=".411" style="stop-color:#fcdc6d"/><stop offset=".558" style="stop-color:#f2cd5b"/><stop offset=".73" style="stop-color:#e3b53d"/><stop offset=".918" style="stop-color:#ce9314"/><stop offset="1" style="stop-color:#c48300"/></linearGradient><path d="M51 49.375c6.074 0 11-2.686 11-6H40c0 3.314 4.926 6 11 6z" style="fill:url(#t)"/></svg>