<svg xmlns="http://www.w3.org/2000/svg" xml:space="preserve" viewBox="0 0 64 64"><linearGradient id="a" x1="20.931" x2="26.406" y1="52.67" y2="52.67" gradientUnits="userSpaceOnUse"><stop offset="0" style="stop-color:#a0a7ab"/><stop offset=".343" style="stop-color:#82898d"/><stop offset=".765" style="stop-color:#626a6d"/><stop offset="1" style="stop-color:#565e61"/></linearGradient><path fill="url(#a)" d="m21.229 43.339.791 17.662c.024.55.493.999 1.041.999h1.786c.548 0 1.017-.449 1.041-.999l.791-17.662h-5.45z"/><radialGradient id="b" cx="22.499" cy="26.562" r="24.106" gradientTransform="matrix(.9956 0 0 1 1.834 0)" gradientUnits="userSpaceOnUse"><stop offset="0" style="stop-color:#e6ebef"/><stop offset=".421" style="stop-color:#e3e9ee"/><stop offset=".694" style="stop-color:#dbe4ed"/><stop offset=".923" style="stop-color:#ccdbe9"/><stop offset="1" style="stop-color:#c5d7e8"/></radialGradient><path fill="url(#b)" d="M61.895 24.341c1.054.437 2.788-3.586 1.822-4.191C56.45 15.597 38.55 4.66 29.712 2.711l.046.042A23.427 23.427 0 0 0 23.952 2C10.724 2 .001 12.948.001 26.457c0 13.507 10.723 24.455 23.95 24.455 13.228 0 23.951-10.948 23.951-24.455 0-4.515 3.757-6.36 13.993-2.116z"/><radialGradient id="c" cx="15.133" cy="27.356" r="23.031" gradientTransform="matrix(.9956 0 0 1 1.834 0)" gradientUnits="userSpaceOnUse"><stop offset="0" style="stop-color:#02d6b4"/><stop offset=".375" style="stop-color:#14caae"/><stop offset="1" style="stop-color:#3ab0a2"/></radialGradient><path fill="url(#c)" d="M1.476 28.344c1.033 11.885 10.699 21.389 22.476 21.389 11.778 0 21.448-9.504 22.481-21.389H1.476z"/><path fill="#339C8F" d="M46.433 28.344c0 .333-44.957.333-44.957 0 0-.334 44.957-.334 44.957 0z"/><path fill="#ADC2D4" d="M63.669 20.543c.744.348-.894 3.849-1.638 3.501s.894-3.849 1.638-3.501z"/><radialGradient id="d" cx="468.435" cy="48.05" r="52.783" gradientTransform="matrix(.394 .514 -.5972 .4618 -150.545 -261.653)" gradientUnits="userSpaceOnUse"><stop offset="0" style="stop-color:#fff;stop-opacity:.4"/><stop offset="1" style="stop-color:#fff;stop-opacity:0"/></radialGradient><path fill="url(#d)" d="M31.802 35.962c-8.994 6.964-21.1 6.324-27.027-1.421-5.941-7.746-3.464-19.662 5.532-26.617C19.305.961 31.409 1.605 37.349 9.347c5.944 7.749 3.451 19.671-5.547 26.615z"/><linearGradient id="e" x1="-1.84" x2="8.698" y1="54.434" y2="49.997" gradientUnits="userSpaceOnUse"><stop offset="0" style="stop-color:#a0a7ab"/><stop offset=".343" style="stop-color:#82898d"/><stop offset=".765" style="stop-color:#626a6d"/><stop offset="1" style="stop-color:#565e61"/></linearGradient><path fill="url(#e)" d="M2.68 43.339.142 61.01c-.077.545.307.99.855.99h.791c.547 0 1.118-.433 1.268-.962l5.013-17.699H2.68z"/><linearGradient id="f" x1="42.038" x2="47.297" y1="53.273" y2="51.058" gradientUnits="userSpaceOnUse"><stop offset="0" style="stop-color:#a0a7ab"/><stop offset=".343" style="stop-color:#82898d"/><stop offset=".765" style="stop-color:#626a6d"/><stop offset="1" style="stop-color:#565e61"/></linearGradient><path fill="url(#f)" d="m39.84 43.339 5.013 17.699c.149.529.719.962 1.267.962h.791c.548 0 .932-.445.854-.99l-2.538-17.671H39.84z"/><linearGradient id="g" x1="23.954" x2="23.954" y1="43.959" y2="37.8" gradientUnits="userSpaceOnUse"><stop offset="0" style="stop-color:#565e61"/><stop offset=".235" style="stop-color:#626a6d"/><stop offset=".657" style="stop-color:#82898d"/><stop offset="1" style="stop-color:#a0a7ab"/></linearGradient><path fill="url(#g)" d="M2.443 43.959h43.024c3.254 0 3.254-6.159 0-6.159H2.443c-3.257 0-3.257 6.159 0 6.159z"/></svg>