<svg xmlns="http://www.w3.org/2000/svg" xml:space="preserve" style="enable-background:new 0 0 64 64" viewBox="0 0 64 64"><linearGradient id="a" x1="20.151" x2="20.151" y1="62.167" y2="3.32" gradientUnits="userSpaceOnUse"><stop offset="0" style="stop-color:#565e61"/><stop offset="1" style="stop-color:#c4ccd1"/></linearGradient><path d="M14.55 54.89c-.33.76-.04 1.65.68 2.06L18.78 59c.72.42 1.64.22 2.13-.44l4.99-6.94-7.83-4.52-3.52 7.79z" style="fill:url(#a)"/><linearGradient id="b" x1="43.849" x2="43.849" y1="62.167" y2="3.32" gradientUnits="userSpaceOnUse"><stop offset="0" style="stop-color:#565e61"/><stop offset="1" style="stop-color:#c4ccd1"/></linearGradient><path d="M49.45 9.11c.33-.76.04-1.65-.68-2.07L45.23 5c-.72-.42-1.64-.22-2.13.44l-4.99 6.94 7.83 4.52 3.51-7.79z" style="fill:url(#b)"/><linearGradient id="c" x1="10.837" x2="10.837" y1="62.167" y2="3.32" gradientUnits="userSpaceOnUse"><stop offset="0" style="stop-color:#565e61"/><stop offset="1" style="stop-color:#c4ccd1"/></linearGradient><path d="M12.37 38.11 5.44 43.1c-.67.49-.86 1.41-.44 2.13l2.05 3.55c.42.72 1.3 1.01 2.07.68l7.79-3.51-4.54-7.84z" style="fill:url(#c)"/><linearGradient id="d" x1="53.163" x2="53.163" y1="62.167" y2="3.32" gradientUnits="userSpaceOnUse"><stop offset="0" style="stop-color:#565e61"/><stop offset="1" style="stop-color:#c4ccd1"/></linearGradient><path d="m51.63 25.89 6.94-4.99c.67-.49.86-1.41.44-2.13l-2.05-3.55c-.42-.72-1.3-1.01-2.07-.68l-7.79 3.51 4.53 7.84z" style="fill:url(#d)"/><linearGradient id="e" x1="6.975" x2="6.975" y1="62.167" y2="3.32" gradientUnits="userSpaceOnUse"><stop offset="0" style="stop-color:#565e61"/><stop offset="1" style="stop-color:#c4ccd1"/></linearGradient><path d="m11.95 27.48-8.5.85c-.83.09-1.45.79-1.45 1.62v4.1c0 .83.62 1.53 1.45 1.62l8.5.85v-9.04z" style="fill:url(#e)"/><linearGradient id="f" x1="57.025" x2="57.025" y1="62.167" y2="3.32" gradientUnits="userSpaceOnUse"><stop offset="0" style="stop-color:#565e61"/><stop offset="1" style="stop-color:#c4ccd1"/></linearGradient><path d="m60.55 28.33-8.5-.85v9.05l8.5-.85c.83-.09 1.45-.79 1.45-1.62v-4.1c0-.84-.62-1.54-1.45-1.63z" style="fill:url(#f)"/><linearGradient id="g" x1="10.837" x2="10.837" y1="62.167" y2="3.32" gradientUnits="userSpaceOnUse"><stop offset="0" style="stop-color:#565e61"/><stop offset="1" style="stop-color:#c4ccd1"/></linearGradient><path d="m5.44 20.9 6.94 4.99 4.52-7.83-7.79-3.51a1.64 1.64 0 0 0-2.07.68l-2.05 3.55c-.41.71-.22 1.63.45 2.12z" style="fill:url(#g)"/><linearGradient id="h" x1="53.163" x2="53.163" y1="62.167" y2="3.32" gradientUnits="userSpaceOnUse"><stop offset="0" style="stop-color:#565e61"/><stop offset="1" style="stop-color:#c4ccd1"/></linearGradient><path d="m58.56 43.1-6.94-4.99-4.52 7.83 7.79 3.51c.76.33 1.65.04 2.07-.68l2.05-3.55c.41-.71.22-1.63-.45-2.12z" style="fill:url(#h)"/><linearGradient id="i" x1="20.151" x2="20.151" y1="62.167" y2="3.32" gradientUnits="userSpaceOnUse"><stop offset="0" style="stop-color:#565e61"/><stop offset="1" style="stop-color:#c4ccd1"/></linearGradient><path d="m18.77 5-3.55 2.05c-.72.42-1.01 1.3-.68 2.07l3.51 7.79 7.83-4.52-4.98-6.95c-.49-.67-1.41-.86-2.13-.44z" style="fill:url(#i)"/><linearGradient id="j" x1="43.849" x2="43.849" y1="62.167" y2="3.32" gradientUnits="userSpaceOnUse"><stop offset="0" style="stop-color:#565e61"/><stop offset="1" style="stop-color:#c4ccd1"/></linearGradient><path d="m45.94 47.1-7.83 4.52 4.99 6.94c.49.67 1.41.86 2.13.44l3.55-2.05c.72-.42 1.01-1.3.68-2.06l-3.52-7.79z" style="fill:url(#j)"/><linearGradient id="k" x1="32" x2="32" y1="62.167" y2="3.32" gradientUnits="userSpaceOnUse"><stop offset="0" style="stop-color:#565e61"/><stop offset="1" style="stop-color:#c4ccd1"/></linearGradient><path d="M34.05 2h-4.1c-.83 0-1.53.62-1.62 1.45l-.85 8.5h9.05l-.85-8.5c-.1-.83-.8-1.45-1.63-1.45z" style="fill:url(#k)"/><linearGradient id="l" x1="32" x2="32" y1="62.167" y2="3.32" gradientUnits="userSpaceOnUse"><stop offset="0" style="stop-color:#565e61"/><stop offset="1" style="stop-color:#c4ccd1"/></linearGradient><path d="M28.33 60.55c.09.83.79 1.45 1.62 1.45h4.1c.83 0 1.53-.62 1.62-1.45l.85-8.5h-9.05l.86 8.5z" style="fill:url(#l)"/><linearGradient id="m" x1="32" x2="32" y1="62.167" y2="3.32" gradientUnits="userSpaceOnUse"><stop offset="0" style="stop-color:#565e61"/><stop offset="1" style="stop-color:#c4ccd1"/></linearGradient><path d="M32 9C19.3 9 9 19.3 9 32s10.3 23 23 23 23-10.3 23-23S44.7 9 32 9zm0 31c-4.42 0-8-3.58-8-8s3.58-8 8-8 8 3.58 8 8-3.58 8-8 8z" style="fill:url(#m)"/><linearGradient id="n" x1="32" x2="32" y1="50" y2="14" gradientUnits="userSpaceOnUse"><stop offset="0" style="stop-color:#c4ccd1"/><stop offset="1" style="stop-color:#565e61"/></linearGradient><path d="M32 14c-9.94 0-18 8.06-18 18s8.06 18 18 18 18-8.06 18-18-8.06-18-18-18zm0 33c-8.28 0-15-6.72-15-15 0-8.28 6.72-15 15-15s15 6.72 15 15c0 8.28-6.72 15-15 15z" style="fill:url(#n)"/></svg>