<svg xmlns="http://www.w3.org/2000/svg" xml:space="preserve" style="enable-background:new 0 0 64 64" viewBox="0 0 64 64"><linearGradient id="a" x1="-62" x2="-62" y1="8" y2="68" gradientTransform="matrix(1 0 0 -1 94 70)" gradientUnits="userSpaceOnUse"><stop offset="0" style="stop-color:#9100b5"/><stop offset=".307" style="stop-color:#a110ce"/><stop offset=".75" style="stop-color:#b523ec"/><stop offset="1" style="stop-color:#bc2af7"/></linearGradient><path d="M62 54c0 4.4-3.6 8-8 8H10c-4.4 0-8-3.6-8-8V10c0-4.4 3.6-8 8-8h44c4.4 0 8 3.6 8 8v44z" style="fill:url(#a)"/><path d="M42.216 8.667v4h4.955l-7.42 7.42A12.271 12.271 0 0 0 32 17.332a12.27 12.27 0 0 0-7.752 2.754l-1.724-1.725 2.933-2.934-2.105-2.106-2.934 2.934-3.59-3.59h4.956v-4H10V20.45h4v-4.955l3.59 3.59-2.934 2.934 2.106 2.105 2.933-2.934 1.894 1.894a12.245 12.245 0 0 0-1.922 6.582c0 6.118 4.483 11.196 10.333 12.157V46h-6.389v4H30v5.334h4V50h6.39v-4H34v-4.177c5.85-.96 10.334-6.039 10.334-12.157 0-2.421-.712-4.675-1.922-6.582L50 15.495v4.956h4V8.667H42.216zM32 38c-4.595 0-8.333-3.739-8.333-8.334 0-4.594 3.738-8.333 8.333-8.333 4.595 0 8.333 3.739 8.333 8.333C40.333 34.261 36.595 38 32 38z" style="fill:#fff"/></svg>