<svg xmlns="http://www.w3.org/2000/svg" xml:space="preserve" viewBox="0 0 64 64"><path fill="#946047" d="M2.443 15.908 2 8.051l7.795 16.884-3.418 8.399z"/><path fill="#4A332D" d="M61.414 50.189 62 41.918 45.295 52.22 48.463 62z"/><linearGradient id="a" x1="6.377" x2="48.463" y1="43.308" y2="43.308" gradientUnits="userSpaceOnUse"><stop offset=".067" style="stop-color:#8a5944"/><stop offset="1" style="stop-color:#543a33"/></linearGradient><path fill="url(#a)" d="M48.463 62V51.264L6.377 24.615v8.719z"/><linearGradient id="b" x1="32.001" x2="32.001" y1="53.264" y2="2.001" gradientUnits="userSpaceOnUse"><stop offset="0" style="stop-color:#99623c"/><stop offset="1" style="stop-color:#cc9873"/></linearGradient><path fill="url(#b)" d="m2 8.051 4.377 17.564 42.086 27.649L62 41.918 32.494 9.158 13.086 2z"/><path fill="#D6A57C" d="m13.947 4.145 17.375 6.347L58.891 41.2l-10.425 8.68L8.44 23.69 4.969 9.196l8.978-5.051m-.045-.549-9.508 5.35L8 24l40.191 26.297.309.203 11.109-9.248-27.916-31.095-.084-.093-17.707-6.468z"/><path fill="#AB5C10" d="m38.477 51.929-1.635-2.554s-.889 1.816-.098 2.411c2.824 2.122 3.34 2.529 3.723 2.669.715.262 2.131-.16 2.131-.16l.141-.793-4.262-1.573z"/><path fill="#FDCA47" d="M40.801 52.127s-.568.377-1.031.071c-.719-.476-1.086-.746-1.912-1.388-.295-.229-.02-.744-.02-.744l-.996-.691s-.609 1.063.045 1.59c1.492 1.207 1.291 1.067 3.373 2.502.752.52 2.479.035 2.479.035l-1.938-1.375z"/><path fill="#AB5C10" d="m11.188 33.306-1.635-2.554s-.889 1.816-.098 2.411c2.824 2.122 3.34 2.529 3.723 2.669.715.262 2.131-.16 2.131-.16l.141-.793-4.262-1.573z"/><path fill="#FDCA47" d="M13.512 33.504s-.568.377-1.031.071c-.719-.476-1.086-.746-1.912-1.388-.295-.229-.02-.744-.02-.744l-.996-.691s-.609 1.063.045 1.59c1.492 1.207 1.291 1.067 3.373 2.503.752.519 2.479.034 2.479.034l-1.938-1.375z"/><path fill="#7AB51D" d="m22.266 19.439-.574.749s6.064 4.062 10.898 4.746c0 0 .58-.606.361-1.374 0 .001-4.84-.376-10.685-4.121z"/><path fill="#DBE6EE" d="M20.23 18.725c-6.131-.566-5.307-2.872-7.777-3.667 2.918-.979 6.187-.773 7.777 3.667z"/><path fill="#E8F1F7" d="M20.113 18.875c-3.639 1.817-6.014-.906-8.389.927 1.459-3.233 6.396-4.458 8.389-.927z"/><path fill="#E8F1F7" d="M20.377 18.532s0-4.154-2.831-6.605c0 0-3.009 5 2.831 6.605z"/><linearGradient id="c" x1="22.061" x2="17.707" y1="19.93" y2="17.056" gradientUnits="userSpaceOnUse"><stop offset=".073" style="stop-color:#7ab51d"/><stop offset=".086" style="stop-color:#7fb825"/><stop offset=".187" style="stop-color:#a0ca5e"/><stop offset=".289" style="stop-color:#bdda8f"/><stop offset=".389" style="stop-color:#d5e8b7"/><stop offset=".487" style="stop-color:#e7f2d7"/><stop offset=".581" style="stop-color:#f4f9ed"/><stop offset=".671" style="stop-color:#fcfefa"/><stop offset=".751" style="stop-color:#fff"/></linearGradient><path fill="url(#c)" d="M18.865 17.82c-3.092-1.043-5.599 2.231-3.947 5.291.799-3.556 4.697-4.252 6.773-2.923.164.104.738-.644.574-.749-2.078-1.33-2.695-4.92.684-6.82-3.818-.334-6.207 2.91-4.084 5.201z"/><linearGradient id="d" x1="149.942" x2="149.942" y1="35.531" y2="29.634" gradientTransform="rotate(-11.437 -13.194 647.029)" gradientUnits="userSpaceOnUse"><stop offset="0" style="stop-color:#ff5e8d"/><stop offset="1" style="stop-color:#ffe0e8"/></linearGradient><path fill="url(#d)" d="M29.496 11.556c.483-.446.175-.866-.31-.422-.555.513.241-1.043-.358-.491-.188.175-1.413 1.173-1.413 1.173s.398-1.202.479-1.42c.251-.684-.736.435-.505-.199.204-.55-.229-.721-.433-.17-.231.634-.254-.882-.505-.199-.084.23-.652 1.919-.652 1.919s-.505-1.602-.551-1.847c-.147-.772-.461.794-.597.078-.119-.622-.631-.555-.513.067.137.715-.745-.694-.598.078.046.245.174 1.756.174 1.756s-1.179-1.32-1.346-1.516c-.494-.587.053.86-.405.317-.398-.473-.747-.2-.35.272.458.542-.899-.268-.405.318.159.188 1.187 1.417 1.187 1.417l-1.983-.942c-.777-.373.562.903-.159.559-.626-.3-.761.18-.134.479.719.346-.938.187-.16.56.964.461 1.381 1.855 4.16 1.721.096-.004 1.276.717 2.233-.165 2.201-.526 2.76-2.167 3.504-2.853.6-.552-.917.022-.36-.49z"/><path fill="#529320" d="M26.363 20.436s-.982-.841-1.225-1.475c0 0-.451 1.445.952 2.225l.273-.75z"/><path fill="#FF8EA7" d="M26.28 10.541c.089-.585-.456-.651-.545-.067-.102.672-.241-.487-.635-.077-.191.201.106 1.286-.143 3.647-.932-2.097-1.106-3.235-1.226-3.299-.5-.269-.324.883-.668.216-.301-.582-.876-.396-.576.184.344.666-1.042-.505-.669.215.117.227.857 1.021 2.049 3.032.354.685 1.76 1.137 2.154-.577.481-2.09.857-2.967.892-3.197.111-.725-.737.595-.633-.077z"/><path fill="#71A81B" d="m25.813 16.091-.754.487s1.345 7.76 4.056 12.04c0 0 .767 0 1.117-.743-.001 0-3.402-4.451-4.419-11.784z"/><linearGradient id="e" x1="149.752" x2="149.752" y1="36.673" y2="30.774" gradientTransform="rotate(-11.437 -13.194 647.029)" gradientUnits="userSpaceOnUse"><stop offset="0" style="stop-color:#ff5e8d"/><stop offset="1" style="stop-color:#ffe0e8"/></linearGradient><path fill="url(#e)" d="M29.536 12.711c.483-.446.174-.865-.31-.421-.554.513.241-1.044-.358-.491-.189.174-1.413 1.172-1.413 1.172s.398-1.201.478-1.42c.252-.684-.735.436-.504-.198.203-.551-.229-.722-.433-.171-.231.634-.254-.881-.505-.199-.084.23-.652 1.919-.652 1.919s-.505-1.602-.551-1.847c-.147-.771-.461.794-.597.078-.119-.621-.632-.555-.513.068.137.714-.745-.694-.598.078.046.244.173 1.755.173 1.755s-1.178-1.319-1.345-1.516c-.494-.586.053.86-.405.317-.398-.473-.748-.199-.35.273.458.541-.899-.268-.405.317l1.186 1.417-1.982-.941c-.777-.373.562.903-.159.558-.626-.3-.76.18-.134.479.719.346-.938.187-.16.56.964.462 1.381 1.855 4.16 1.722.096-.005 1.277.717 2.233-.165 2.203-.527 2.759-2.167 3.503-2.854.601-.552-.916.023-.359-.49z"/><path fill="#529320" d="M26.091 21.186c-.28-1.185.761-2.101.938-2.631-.001 0 1.094 2.672-.938 2.631z"/><path fill="#FF8EA7" d="M27.337 13.363c.166-.408-.51-.402-.677.004-.189.469-.255-.31-.786.008-.259.155.054 1.375-.477 3.011-.969-1.344-1.124-2.614-1.267-2.646-.602-.138-.488.633-.856.209-.321-.369-1.058-.188-.736.18.368.422-.952-.373-.857.208.154.941.519 1.67 2.548 2.003.377.435.905.479 2.169-.245 2.18-1.247 1.987-2.097 1.96-2.531-.031-.533-1.214.268-1.021-.201z"/><path fill="#4B871E" d="M26.712 15.791c-.984.718-1.634.255-2.853.218-.786-.024.851 1.748 1.406 1.964.24.095.856.003 1.002-.212.5-.738.787-2.219.445-1.97z"/></svg>