<svg xmlns="http://www.w3.org/2000/svg" xml:space="preserve" style="enable-background:new 0 0 64 64" viewBox="0 0 64 64"><path d="M32 3c-5.43 0-10.33.8-10.33 1.42L32 5.45l10.33-1.02C42.33 3.8 37.43 3 32 3z" style="fill:#db8f00"/><radialGradient id="a" cx="32.074" cy="29.019" r="18.315" gradientTransform="matrix(1 0 0 1.8305 -.074 -25.757)" gradientUnits="userSpaceOnUse"><stop offset="0" style="stop-color:#ffd85c"/><stop offset=".171" style="stop-color:#fbd052"/><stop offset=".456" style="stop-color:#f1bc39"/><stop offset=".82" style="stop-color:#e19b0f"/><stop offset=".935" style="stop-color:#db8f00"/></radialGradient><path d="M42.17 10.08c-2.5-.44-17.83-.44-20.33 0-15.85 2.78-3.68 37.49 2.01 48.53 1.65 3.19 14.66 3.19 16.31 0 5.69-11.04 17.85-45.75 2.01-48.53z" style="fill:url(#a)"/><radialGradient id="b" cx="32.074" cy="9.482" r="10.265" gradientTransform="matrix(1 0 0 2.3703 -.074 -14.991)" gradientUnits="userSpaceOnUse"><stop offset="0" style="stop-color:#ffd85c"/><stop offset=".171" style="stop-color:#fbd052"/><stop offset=".456" style="stop-color:#f1bc39"/><stop offset=".82" style="stop-color:#e19b0f"/><stop offset=".935" style="stop-color:#db8f00"/></radialGradient><path d="M21.67 4.42v5.68c4.88.58 15.77.58 20.65 0V4.42c-5.16.35-15.48.35-20.65 0z" style="fill:url(#b)"/><radialGradient id="c" cx="32.074" cy="23.274" r="16.959" gradientTransform="matrix(1 0 0 1.0175 -.074 -2.165)" gradientUnits="userSpaceOnUse"><stop offset="0" style="stop-color:#cf8363"/><stop offset=".156" style="stop-color:#ca7f60"/><stop offset=".35" style="stop-color:#ba7558"/><stop offset=".564" style="stop-color:#a1644b"/><stop offset=".792" style="stop-color:#7e4c39"/><stop offset="1" style="stop-color:#573225"/></radialGradient><path d="M49.98 22.11c-.02-.69-.07-1.37-.15-2.02-13.27 1.04-22.4 1.04-35.67 0-.07.65-.12 1.33-.15 2.02 9.06 1.12 26.92 1.12 35.97 0z" style="opacity:.8;fill:url(#c)"/><radialGradient id="d" cx="32.074" cy="28.02" r="17.793" gradientTransform="matrix(1 0 0 1.0175 -.074 -2.165)" gradientUnits="userSpaceOnUse"><stop offset="0" style="stop-color:#cf8363"/><stop offset=".156" style="stop-color:#ca7f60"/><stop offset=".35" style="stop-color:#ba7558"/><stop offset=".564" style="stop-color:#a1644b"/><stop offset=".792" style="stop-color:#7e4c39"/><stop offset="1" style="stop-color:#573225"/></radialGradient><path d="M14.05 24.91c.03.67.08 1.36.14 2.05 9.05 1.09 26.56 1.09 35.61 0 .07-.69.11-1.38.14-2.05-13.36 1.06-22.52 1.06-35.89 0z" style="opacity:.8;fill:url(#d)"/><radialGradient id="e" cx="32.074" cy="54.008" r="10.627" gradientTransform="matrix(1 0 0 1.0175 -.074 -2.165)" gradientUnits="userSpaceOnUse"><stop offset="0" style="stop-color:#967060"/><stop offset=".297" style="stop-color:#936d5d"/><stop offset=".528" style="stop-color:#896354"/><stop offset=".735" style="stop-color:#795345"/><stop offset=".929" style="stop-color:#623c2f"/><stop offset="1" style="stop-color:#573225"/></radialGradient><path d="M20.84 51.92c.17.44.35.85.52 1.27 5.87.63 15.42.63 21.28 0 .17-.41.35-.83.52-1.27-8.19.75-14.13.75-22.32 0z" style="opacity:.8;fill:url(#e)"/><radialGradient id="f" cx="32.074" cy="56.773" r="9.468" gradientTransform="matrix(1 0 0 1.0175 -.074 -2.165)" gradientUnits="userSpaceOnUse"><stop offset="0" style="stop-color:#967060"/><stop offset=".297" style="stop-color:#936d5d"/><stop offset=".528" style="stop-color:#896354"/><stop offset=".735" style="stop-color:#795345"/><stop offset=".929" style="stop-color:#623c2f"/><stop offset="1" style="stop-color:#573225"/></radialGradient><path d="M22.04 54.78c.2.44.39.87.58 1.28 5.47.47 13.3.47 18.77 0 .19-.41.38-.84.58-1.28-7.18.61-12.76.61-19.93 0z" style="opacity:.8;fill:url(#f)"/></svg>