<svg xmlns="http://www.w3.org/2000/svg" xml:space="preserve" viewBox="0 0 64 64"><radialGradient id="a" cx="30.894" cy="57.086" r="32.617" gradientTransform="translate(-5.887 -35.018) scale(1.0506)" gradientUnits="userSpaceOnUse"><stop offset=".273" style="stop-color:#fafdff"/><stop offset=".494" style="stop-color:#f7fafc"/><stop offset=".673" style="stop-color:#edf2f4"/><stop offset=".838" style="stop-color:#dce3e7"/><stop offset=".927" style="stop-color:#cfd8dd"/></radialGradient><circle cx="32" cy="32" r="30" fill="url(#a)"/><path fill="#E81C27" d="M57.393 42.461c1.351 1.156 2.964-.354 3.035-2.011-1.561-.455-.858.954-3.035 2.011z"/><path fill="#4E5E67" d="M60.279 40.7C49.907 31.729 41.793 19.325 38.728 3.848 39.822 19.268 49.164 32.73 60.279 40.7z"/><path fill="#E81C27" d="M42.284 4.763c-1.518 1.303-1.581-.774-4.205-.505.943-1.806 3.741-.866 4.205.505z"/><path fill="#E81C27" d="M38.968 4.984c.131-2.149-2.643-2.99-3.837-2.203.637 1.982 1.43.401 3.837 2.203zm3.767 1.869c-1.518 1.303-1.555-.391-4.178-.121.943-1.806 3.714-1.251 4.178.121z"/><path fill="#E81C27" d="M39.658 7.688c.131-2.148-2.643-2.989-3.837-2.203.637 1.982 1.43.401 3.837 2.203zm4.004 2.397c-1.363 1.471-1.588-.207-4.165.363.737-1.903 3.552-1.671 4.165-.363z"/><path fill="#E81C27" d="M40.697 11.272c-.107-2.149-2.957-2.664-4.057-1.744.853 1.895 1.465.233 4.057 1.744zm4.383 2.334c-1.249 2.024-1.887.133-4.744 1.4.425-2.378 3.739-2.772 4.744-1.4z"/><path fill="#E81C27" d="M41.894 15.774c-.127-2.54-3.493-3.147-4.792-2.062 1.006 2.24 1.73.276 4.792 2.062zm4.608 1.188c-1.641 1.643-2.238 3.246-3.603 2.798.168-2.686 2.14-3.635 3.603-2.798z"/><path fill="#E81C27" d="M44.391 20.696c-.413-2.509-3.455-2.899-4.993-1.482 1.252 2.104 1.749.068 4.993 1.482zm4.625.867c-.838 2.187-.74 3.899-2.165 4.063-.923-2.522.495-4.213 2.165-4.063z"/><path fill="#E81C27" d="M47.701 26.15c-.412-2.509-3.455-2.899-4.993-1.482 1.253 2.105 1.751.069 4.993 1.482zm1.8 3.909c.129-2.345-.485-3.94.817-4.55 1.647 2.1.816 4.16-.817 4.55z"/><path fill="#E81C27" d="M50.46 30.171c-1.454-2.063-4.353-1.04-5.12.926 2.034 1.321 1.6-.73 5.12-.926zm2.399 4.324c.128-2.344-.486-3.939.816-4.549 1.647 2.101.816 4.159-.816 4.549z"/><path fill="#E81C27" d="M53.818 34.607c-1.455-2.063-4.353-1.04-5.12.926 2.033 1.322 1.6-.728 5.12-.926zm1.638 2.81c.118-2.164-.449-3.638.754-4.2 1.52 1.939.753 3.841-.754 4.2z"/><path fill="#E81C27" d="M52.025 39.233c1.871 1.36 4.105-.416 4.205-2.367-2.162-.537-1.186 1.124-4.205 2.367zm5.886.477c.112-2.164-.424-3.638.713-4.2 1.439 1.939.713 3.841-.713 4.2z"/><path fill="#E81C27" d="M54.668 41.526c1.77 1.36 3.883-.416 3.976-2.367-2.044-.536-1.122 1.124-3.976 2.367zm5.201-.627c.085-1.867-.324-3.14.544-3.626 1.098 1.675.544 3.316-.544 3.626z"/><path fill="#4E5E67" d="M27.849 60.605c11.575-22.517-12.5-36.274-23.521-38.451 10.236-1.237 37.8 17.753 23.521 38.451z"/><path fill="#E81C27" d="M4.428 25.889c1.029-.401-.375-1.75.425-4.042-1.134-.549-1.464 2.299-.425 4.042z"/><path fill="#E81C27" d="M4.801 22.544c-1.035-1.314-.207-3.93 1.211-3.643.603 1.863-.933.727-1.211 3.643zm1.349 4.26c1.243-.446-.451-1.94.514-4.481-1.369-.608-1.768 2.547-.514 4.481z"/><path fill="#E81C27" d="M6.601 23.096c-1.249-1.457-.249-4.356 1.462-4.039-.442 2.09-1.208 2.006-1.462 4.039zm2.248 4.606c1.311-.414-.403-2.004.688-4.575-1.406-.671-1.928 2.551-.688 4.575z"/><path fill="#E81C27" d="M9.444 23.917c-1.251-1.536-.167-3.956 1.659-4.091-.331 2.028-1.274 2.131-1.659 4.091zm3.023 4.769c1.538-.148-.393-1.82.973-3.891-1.606-.817-2.336 1.916-.973 3.891z"/><path fill="#E81C27" d="M13.283 25.425c-1.332-1.823-.051-4.147 1.975-3.96-.436 2.052-1.483 1.989-1.975 3.96zm2.69 4.994c1.538-.147-.393-1.819.973-3.891-1.606-.816-2.336 1.917-.973 3.891z"/><path fill="#E81C27" d="M16.71 27.435c-1.137-2.258.698-4.583 2.897-4.001-.852 2.181-1.996 1.918-2.897 4.001zm3.194 6.193c1.896.355-.146-2.042 1.887-3.764-1.802-1.392-3.183 1.237-1.887 3.764zm3.266 3.507c1.727 1.035.502-2.01 3.02-2.913-1.311-1.995-3.481.017-3.02 2.913zm2.902 5.054c1.727 1.034.502-2.011 3.02-2.914-1.31-1.995-3.481.019-3.02 2.914zm.876 4.082c1.266 1.85 1.383-1.789 4.287-1.521-.429-2.621-3.474-1.609-4.287 1.521zm7.35 8.583c.521-1.575-1.925-.008-3.333-1.833-1.482 1.429.841 2.763 3.333 1.833zm-2.618-6.961c-1.807 1.657.658 3.138 3.547 2.034.744-1.807-2.157.024-3.547-2.034z"/><path fill="#E81C27" d="M30.959 44.685c-1.332-2.066 1.425-2.867 3.941-1.059.266 1.937-2.079-.576-3.941 1.059zm-2.03-5.018c-1.331-2.066 1.426-2.867 3.941-1.059.267 1.938-2.079-.576-3.941 1.059zm-2.951-4.96c-1.951-1.479.366-3.187 3.344-2.358.907 1.728-2.149.178-3.344 2.358zm-4.089-4.066c-2.544-1.091-.368-3.685 3.165-3.625 1.436 1.675-2.361.828-3.165 3.625zm5.841 22.714c.145-1.405 1.494.675 3.219-.241.652 1.633-1.61 1.844-3.219.241zm.075-3.425c-.45-1.75 2.092.135 3.754-1.744 1.505 1.663-1.115 2.94-3.754 1.744zm5.106 8.819c.498-1.651-1.841-.008-3.188-1.922-1.415 1.499.804 2.899 3.188 1.922z"/><path fill="#E81C27" d="M26.737 56.381c.357-1.427 1.302.962 3.072.319.357 1.803-1.809 1.621-3.072-.319zm4.284 5.345c.637-1.313-1.679-.234-2.695-1.994-1.458 1.072.412 2.51 2.695 1.994z"/><path fill="#E81C27" d="M25.557 59.232c.484-1.143 1.081.962 2.768.646.125 1.545-1.83 1.126-2.768-.646z"/></svg>