<svg xmlns="http://www.w3.org/2000/svg" xml:space="preserve" style="enable-background:new 0 0 64 64" viewBox="0 0 64 64"><path d="M41.42 43.05h-9.74l2.14-5.8h-8.38l-5.13 11.21H30.6L26.26 62z" style="fill:#ffc400"/><radialGradient id="a" cx="30.595" cy="45.263" r="10.806" gradientUnits="userSpaceOnUse"><stop offset="0" style="stop-color:#fff5bf"/><stop offset=".161" style="stop-color:#fff4ba"/><stop offset=".351" style="stop-color:#fff1ac"/><stop offset=".556" style="stop-color:#ffeb94"/><stop offset=".771" style="stop-color:#ffe373"/><stop offset=".992" style="stop-color:#ffd949"/><stop offset="1" style="stop-color:#ffd947"/></radialGradient><path d="M38.72 44.13h-8.67l2.67-6.88h-5.96l-4.29 10.13h9.75l-3.79 10.83z" style="fill:url(#a)"/><linearGradient id="b" x1="-501.598" x2="-501.598" y1="697.001" y2="697.934" gradientTransform="matrix(55.999 0 0 -36.19 28120.99 25262.014)" gradientUnits="userSpaceOnUse"><stop offset="0" style="stop-color:#dadada"/><stop offset=".999" style="stop-color:#fdfdfd"/></linearGradient><path d="M12.26 37.11c-3.83-1.2-6.4-4.6-6.4-8.44 0-2.56 1.17-5 3.2-6.7.53-.44 1.1-.81 1.71-1.13h-.03l.62-2.06c1.54-5.13 6.53-8.72 12.13-8.72.56 0 1.13.04 1.8.13.51.07 1.02.17 1.52.3l.25-.43c2.26-3.88 6.56-6.3 11.21-6.3 7.06 0 12.81 5.48 12.81 12.21 0 .33-.02.65-.05.97l-.02.24c.54.2 1.07.44 1.59.72 3.41 1.87 5.54 5.37 5.54 9.11 0 4.93-3.52 9.15-8.56 10.25-.83.18-1.66.28-2.48.28H15.2c-1 .02-1.99-.13-2.94-.43z" style="fill:url(#b)"/><linearGradient id="c" x1="-501.923" x2="-501.923" y1="698.888" y2="697.955" gradientTransform="matrix(60 0 0 -40 30147.4 27957.516)" gradientUnits="userSpaceOnUse"><stop offset="0" style="stop-color:#b2b2b2"/><stop offset="1" style="stop-color:#6b6b6b"/></linearGradient><path d="M38.27 5.55c6.04 0 10.94 4.67 10.94 10.43 0 .28-.02.56-.04.83-2.53.19-4.83 1.15-6.63 2.64 1.35-.74 2.9-1.16 4.56-1.16.62 0 1.21.06 1.8.17.99.19 1.92.53 2.77 1 2.75 1.51 4.61 4.33 4.61 7.57 0 4.15-3.04 7.63-7.11 8.52-.66.15-1.35.23-2.06.23h-31.9c-.82 0-1.61-.13-2.34-.37-2.97-.93-5.12-3.6-5.12-6.75 0-2.14.99-4.05 2.56-5.36a7.78 7.78 0 0 1 2.44-1.36c.77-.25 1.6-.4 2.46-.4 2.41 0 4.54 1.09 5.9 2.77h.07c-1.58-2.78-4.55-4.74-8.01-5.05 1.29-4.29 5.43-7.43 10.34-7.43.53 0 1.03.05 1.54.12 1 .14 1.95.4 2.84.77 3.31 1.41 5.73 4.36 6.27 7.89v-.06c0-4.02-2.17-7.56-5.45-9.63 1.85-3.19 5.43-5.37 9.56-5.37m0-3.55c-5.03 0-9.7 2.46-12.39 6.49-.1-.02-.2-.03-.31-.05-.77-.1-1.42-.15-2.07-.15-6.42 0-12.15 4.11-13.92 10.01l-.43 1.4c-.46.28-.89.59-1.3.94C5.4 22.66 4 25.59 4 28.67c0 4.61 3.09 8.68 7.68 10.12 1.13.36 2.31.54 3.51.54h31.9c.96 0 1.94-.11 2.9-.32C55.88 37.72 60 32.8 60 27.03c0-4.38-2.48-8.46-6.47-10.65-.19-.1-.39-.21-.58-.3v-.09C52.94 8.28 46.36 2 38.27 2z" style="fill:url(#c)"/><radialGradient id="d" cx="943.513" cy="-34.273" r="1.062" fx="943.513" fy="-33.504" gradientTransform="matrix(2.7314 1.577 -2.242 3.8832 -2637.525 -1310.945)" gradientUnits="userSpaceOnUse"><stop offset="0" style="stop-color:#73efff"/><stop offset=".187" style="stop-color:#6fecff"/><stop offset=".364" style="stop-color:#64e3ff"/><stop offset=".537" style="stop-color:#51d3ff"/><stop offset=".707" style="stop-color:#36bdff"/><stop offset=".874" style="stop-color:#14a1ff"/><stop offset=".956" style="stop-color:#0091ff"/></radialGradient><path d="M18.16 41.5c.11-.55-.14-.69-.56-.32-1.23 1.07-3.68 2.08-4.59 3.65-.66 1.14-.24 2.63.94 3.31 1.18.68 2.68.31 3.34-.84.91-1.57.56-4.21.87-5.8z" style="fill:url(#d)"/><linearGradient id="e" x1="865.356" x2="866.575" y1="-38.978" y2="-40.054" gradientTransform="matrix(2.3659 1.3659 -1.546 2.6778 -2093.704 -1032.902)" gradientUnits="userSpaceOnUse"><stop offset=".053" style="stop-color:#c4eeff;stop-opacity:0"/><stop offset=".45" style="stop-color:#cdf0ff;stop-opacity:.4197"/><stop offset="1" style="stop-color:#d4f2ff"/></linearGradient><path d="M18.11 41.34c.06-.24-.17-.37-.34-.2-.9.91-2.93 2.11-3.65 3.37-.87 1.51 2.03 3.19 2.9 1.68.73-1.26.77-3.63 1.09-4.85z" style="fill:url(#e)"/><radialGradient id="f" cx="945.147" cy="-30.925" r="1.062" fx="945.147" fy="-30.155" gradientTransform="matrix(2.7314 1.577 -2.242 3.8832 -2635.08 -1315.178)" gradientUnits="userSpaceOnUse"><stop offset="0" style="stop-color:#73efff"/><stop offset=".187" style="stop-color:#6fecff"/><stop offset=".364" style="stop-color:#64e3ff"/><stop offset=".537" style="stop-color:#51d3ff"/><stop offset=".707" style="stop-color:#36bdff"/><stop offset=".874" style="stop-color:#14a1ff"/><stop offset=".956" style="stop-color:#0091ff"/></radialGradient><path d="M17.56 52.85c.11-.55-.14-.69-.56-.32-1.23 1.07-3.68 2.08-4.59 3.65-.66 1.14-.24 2.63.94 3.31 1.18.68 2.68.31 3.34-.84.91-1.57.57-4.21.87-5.8z" style="fill:url(#f)"/><linearGradient id="g" x1="867.243" x2="868.462" y1="-35.703" y2="-36.779" gradientTransform="matrix(2.3659 1.3659 -1.546 2.6778 -2093.704 -1032.902)" gradientUnits="userSpaceOnUse"><stop offset=".053" style="stop-color:#c4eeff;stop-opacity:0"/><stop offset=".45" style="stop-color:#cdf0ff;stop-opacity:.4197"/><stop offset="1" style="stop-color:#d4f2ff"/></linearGradient><path d="M17.52 52.68c.06-.24-.17-.37-.34-.2-.9.91-2.93 2.11-3.65 3.37-.87 1.51 2.03 3.19 2.9 1.68.72-1.26.76-3.63 1.09-4.85z" style="fill:url(#g)"/><radialGradient id="h" cx="947.323" cy="-32.867" r="1.062" fx="947.323" fy="-32.097" gradientTransform="matrix(2.7314 1.577 -2.242 3.8832 -2636.498 -1312.723)" gradientUnits="userSpaceOnUse"><stop offset="0" style="stop-color:#73efff"/><stop offset=".187" style="stop-color:#6fecff"/><stop offset=".364" style="stop-color:#64e3ff"/><stop offset=".537" style="stop-color:#51d3ff"/><stop offset=".707" style="stop-color:#36bdff"/><stop offset=".874" style="stop-color:#14a1ff"/><stop offset=".956" style="stop-color:#0091ff"/></radialGradient><path d="M26.44 51.2c.11-.55-.14-.69-.56-.32-1.23 1.07-3.68 2.08-4.59 3.65-.66 1.14-.24 2.63.94 3.31 1.18.68 2.68.31 3.34-.84.91-1.57.57-4.22.87-5.8z" style="fill:url(#h)"/><linearGradient id="i" x1="869.756" x2="870.974" y1="-37.602" y2="-38.678" gradientTransform="matrix(2.3659 1.3659 -1.546 2.6778 -2093.704 -1032.902)" gradientUnits="userSpaceOnUse"><stop offset=".053" style="stop-color:#c4eeff;stop-opacity:0"/><stop offset=".45" style="stop-color:#cdf0ff;stop-opacity:.4197"/><stop offset="1" style="stop-color:#d4f2ff"/></linearGradient><path d="M26.4 51.03c.06-.24-.17-.37-.34-.2-.9.91-2.93 2.11-3.65 3.37-.87 1.51 2.03 3.19 2.9 1.68.72-1.26.76-3.63 1.09-4.85z" style="fill:url(#i)"/><radialGradient id="j" cx="951.438" cy="-34.714" r="1.062" fx="951.438" fy="-33.944" gradientTransform="matrix(2.7314 1.577 -2.242 3.8832 -2637.846 -1310.389)" gradientUnits="userSpaceOnUse"><stop offset="0" style="stop-color:#73efff"/><stop offset=".187" style="stop-color:#6fecff"/><stop offset=".364" style="stop-color:#64e3ff"/><stop offset=".537" style="stop-color:#51d3ff"/><stop offset=".707" style="stop-color:#36bdff"/><stop offset=".874" style="stop-color:#14a1ff"/><stop offset=".956" style="stop-color:#0091ff"/></radialGradient><path d="M40.47 52.85c.11-.55-.14-.69-.56-.32-1.23 1.07-3.68 2.08-4.59 3.65-.66 1.14-.24 2.63.94 3.31 1.18.68 2.68.31 3.34-.84.91-1.57.57-4.21.87-5.8z" style="fill:url(#j)"/><linearGradient id="k" x1="874.507" x2="875.725" y1="-39.408" y2="-40.484" gradientTransform="matrix(2.3659 1.3659 -1.546 2.6778 -2093.704 -1032.902)" gradientUnits="userSpaceOnUse"><stop offset=".053" style="stop-color:#c4eeff;stop-opacity:0"/><stop offset=".45" style="stop-color:#cdf0ff;stop-opacity:.4197"/><stop offset="1" style="stop-color:#d4f2ff"/></linearGradient><path d="M40.43 52.68c.06-.24-.17-.37-.34-.2-.9.91-2.93 2.11-3.65 3.37-.87 1.51 2.03 3.19 2.9 1.68.72-1.26.76-3.63 1.09-4.85z" style="fill:url(#k)"/><radialGradient id="l" cx="951.606" cy="-39.052" r="1.062" fx="951.607" fy="-38.282" gradientTransform="matrix(2.7314 1.577 -2.242 3.8832 -2641.012 -1304.904)" gradientUnits="userSpaceOnUse"><stop offset="0" style="stop-color:#73efff"/><stop offset=".187" style="stop-color:#6fecff"/><stop offset=".364" style="stop-color:#64e3ff"/><stop offset=".537" style="stop-color:#51d3ff"/><stop offset=".707" style="stop-color:#36bdff"/><stop offset=".874" style="stop-color:#14a1ff"/><stop offset=".956" style="stop-color:#0091ff"/></radialGradient><path d="M47.49 41.75c.11-.55-.14-.69-.56-.32-1.23 1.07-3.68 2.08-4.59 3.65-.66 1.14-.24 2.63.94 3.31 1.18.68 2.68.31 3.34-.84.91-1.57.57-4.21.87-5.8z" style="fill:url(#l)"/><linearGradient id="m" x1="874.701" x2="875.919" y1="-43.651" y2="-44.727" gradientTransform="matrix(2.3659 1.3659 -1.546 2.6778 -2093.704 -1032.902)" gradientUnits="userSpaceOnUse"><stop offset=".053" style="stop-color:#c4eeff;stop-opacity:0"/><stop offset=".45" style="stop-color:#cdf0ff;stop-opacity:.4197"/><stop offset="1" style="stop-color:#d4f2ff"/></linearGradient><path d="M47.45 41.59c.06-.24-.17-.37-.34-.2-.9.91-2.93 2.11-3.65 3.37-.87 1.51 2.03 3.19 2.9 1.68.72-1.26.76-3.63 1.09-4.85z" style="fill:url(#m)"/></svg>