<svg xmlns="http://www.w3.org/2000/svg" xml:space="preserve" viewBox="0 0 64 64"><path fill="#785647" d="M32.001 56.2c-11.34 0-21.534-5.926-21.534-16.726-2.095-1.598-2.733-.933-2.733-.933 0 12.765 10.865 19.605 24.267 19.605s24.266-6.841 24.266-19.605c0 0-1.221-.38-2.732.933-.001 10.8-10.194 16.726-21.534 16.726z"/><path fill="#45332C" d="M37.417 58.446c-3.758.738-7.078.738-10.836 0-1.299-.293-.457-3.482.538-3.258 3.4.666 6.361.666 9.762 0 .997-.226 1.839 2.965.536 3.258z"/><linearGradient id="a" x1="32.001" x2="32.001" y1="35.05" y2="7.989" gradientUnits="userSpaceOnUse"><stop offset="0" style="stop-color:#d40000"/><stop offset=".515" style="stop-color:#ff3030"/></linearGradient><path fill="url(#a)" d="M57.2 35.05H6.801c0-16.962 6.302-27.062 25.197-27.062 18.897 0 25.202 10.1 25.202 27.062z"/><linearGradient id="b" x1="32.001" x2="32.001" y1="43" y2="6.418" gradientUnits="userSpaceOnUse"><stop offset="0" style="stop-color:#730000"/><stop offset=".515" style="stop-color:#cf2727"/></linearGradient><path fill="url(#b)" d="M42.773 33.181V9.442L32.002 6.418 21.229 9.441v23.74C11.111 34.372 4 35.155 4 35.155c0 10.459 56 10.459 56 0 0 0-7.109-.783-17.227-1.974z"/><path fill="#FF6854" d="M5.379 36.489c6.639 7.479 46.604 7.479 53.243 0-9.188 6.098-44.055 6.098-53.243 0z"/><linearGradient id="c" x1="32" x2="32" y1="35.62" y2="5" gradientUnits="userSpaceOnUse"><stop offset="0" style="stop-color:#d40000"/><stop offset=".515" style="stop-color:#ff3030"/></linearGradient><path fill="url(#c)" d="M23.094 8.883v24.849c0 2.517 17.812 2.517 17.812 0V8.883c-.001-5.178-17.812-5.178-17.812 0z"/><path fill="#FFF" d="M30 16.333h4v14h-4z"/><path fill="#FFF" d="M25 21.333h14v4H25z"/></svg>