<svg xmlns="http://www.w3.org/2000/svg" xml:space="preserve" style="enable-background:new 0 0 64 64" viewBox="0 0 64 64"><path d="M29 14h6v10h-6zm-7 7c-1.605 1.072-9.627 1.58-12 0v2c2 1.334 10.002 1.332 12 0v-2zm32 0c-1.605 1.072-9.627 1.58-12 0v2c2 1.334 10.002 1.332 12 0v-2z" style="fill:#e8000d"/><linearGradient id="a" x1="13" x2="19" y1="33.5" y2="33.5" gradientUnits="userSpaceOnUse"><stop offset=".188" style="stop-color:#ff000e"/><stop offset=".403" style="stop-color:#f4000b"/><stop offset=".776" style="stop-color:#d80005"/><stop offset="1" style="stop-color:#c40000"/></linearGradient><path d="M13 15h6v37h-6z" style="fill:url(#a)"/><linearGradient id="b" x1="12" x2="20" y1="14.708" y2="14.708" gradientUnits="userSpaceOnUse"><stop offset="0" style="stop-color:#ff000e"/><stop offset=".022" style="stop-color:#fd000e"/><stop offset=".668" style="stop-color:#d40004"/><stop offset="1" style="stop-color:#c40000"/></linearGradient><path d="M12 12.708h8v4h-8z" style="fill:url(#b)"/><linearGradient id="c" x1="12" x2="20" y1="53" y2="53" gradientUnits="userSpaceOnUse"><stop offset="0" style="stop-color:#5b666e"/><stop offset=".148" style="stop-color:#565c65"/><stop offset=".42" style="stop-color:#504f5b"/><stop offset=".679" style="stop-color:#4e4b57"/></linearGradient><path d="M12 52h8v2h-8z" style="fill:url(#c)"/><linearGradient id="d" x1="11" x2="21" y1="57.5" y2="57.5" gradientUnits="userSpaceOnUse"><stop offset="0" style="stop-color:#5b666e"/><stop offset=".3" style="stop-color:#575d66"/><stop offset="1" style="stop-color:#4e4b57"/></linearGradient><path d="M11 53h10v9H11z" style="fill:url(#d)"/><linearGradient id="e" x1="45" x2="51" y1="33.5" y2="33.5" gradientUnits="userSpaceOnUse"><stop offset=".188" style="stop-color:#ff000e"/><stop offset=".403" style="stop-color:#f4000b"/><stop offset=".776" style="stop-color:#d80005"/><stop offset="1" style="stop-color:#c40000"/></linearGradient><path d="M45 15h6v37h-6z" style="fill:url(#e)"/><linearGradient id="f" x1="44" x2="52" y1="14.708" y2="14.708" gradientUnits="userSpaceOnUse"><stop offset="0" style="stop-color:#ff000e"/><stop offset=".022" style="stop-color:#fd000e"/><stop offset=".668" style="stop-color:#d40004"/><stop offset="1" style="stop-color:#c40000"/></linearGradient><path d="M44 12.708h8v4h-8z" style="fill:url(#f)"/><linearGradient id="g" x1="44" x2="52" y1="53" y2="53" gradientUnits="userSpaceOnUse"><stop offset="0" style="stop-color:#5b666e"/><stop offset=".148" style="stop-color:#565c65"/><stop offset=".42" style="stop-color:#504f5b"/><stop offset=".679" style="stop-color:#4e4b57"/></linearGradient><path d="M44 52h8v2h-8z" style="fill:url(#g)"/><linearGradient id="h" x1="43" x2="53" y1="57.5" y2="57.5" gradientUnits="userSpaceOnUse"><stop offset="0" style="stop-color:#5b666e"/><stop offset=".3" style="stop-color:#575d66"/><stop offset="1" style="stop-color:#4e4b57"/></linearGradient><path d="M43 53h10v9H43z" style="fill:url(#h)"/><path d="M6 23h52v5H6zM59 8.854c-17.195 4.184-36.806 4.184-54 0l.091.546 2.05 3.868c16.462 3.626 33.253 3.628 49.717 0l2.051-3.87.091-.544z" style="fill:#ff000e"/><linearGradient id="i" x1="708.373" x2="708.373" y1="13.941" y2="6" gradientTransform="matrix(-1 0 0 1 740.373 0)" gradientUnits="userSpaceOnUse"><stop offset="0" style="stop-color:#4e4b57"/><stop offset=".392" style="stop-color:#504f5a"/><stop offset=".757" style="stop-color:#555a64"/><stop offset="1" style="stop-color:#5b666e"/></linearGradient><path d="m2 6 2.628 4.958c18.13 3.959 36.614 3.959 54.744 0L62 6c-19.106 4.65-40.895 4.65-60 0z" style="fill:url(#i)"/></svg>