<svg xmlns="http://www.w3.org/2000/svg" xml:space="preserve" style="enable-background:new 0 0 64 64" viewBox="0 0 64 64"><path d="M62 60.9c0 1.47-60 1.47-60 0 0-2.6 13.43-6.65 30-6.65s30 4.05 30 6.65z" style="fill:#ffd500"/><linearGradient id="a" x1="-444.033" x2="-441.72" y1="58.237" y2="58.237" gradientTransform="rotate(40.25 -191.141 687.468)" gradientUnits="userSpaceOnUse"><stop offset="0" style="stop-color:#c49c7d"/><stop offset="1" style="stop-color:#694739"/></linearGradient><path d="m13.42 58-2.97-.06L34.37 29.7l1.76 1.49z" style="fill:url(#a)"/><linearGradient id="b" x1="-521.813" x2="-521.813" y1="54.669" y2="14.931" gradientTransform="rotate(45.001 -202.267 695.696)" gradientUnits="userSpaceOnUse"><stop offset="0" style="stop-color:#b300af"/><stop offset="1" style="stop-color:#f02beb"/></linearGradient><path d="M50.34 13.66C37.93 1.25 19.38-.32 14.47 4.59c0 0 4.31 7.24 7.36 7.36 0 0 21.06-5.73 28.51 1.71z" style="fill:url(#b)"/><linearGradient id="c" x1="-490.034" x2="-490.034" y1="74.54" y2="34.8" gradientTransform="rotate(45.001 -202.267 695.696)" gradientUnits="userSpaceOnUse"><stop offset="0" style="stop-color:#cf0000"/><stop offset="1" style="stop-color:#ff000e"/></linearGradient><path d="M50.34 13.66c7.45 7.45 1.71 28.51 1.71 28.51.12 3.06 7.36 7.36 7.36 7.36 4.91-4.91 3.34-23.45-9.07-35.87z" style="fill:url(#c)"/><path d="M14.47 4.59s-2.17 2.69-1.76 3.94c.71 2.18 3.01 4.47 5.19 5.18 1.25.41 3.94-1.76 3.94-1.76l-7.37-7.36z" style="fill:#990095"/><path d="M52.05 42.17s-2.17 2.69-1.76 3.94c.71 2.18 3.01 4.48 5.18 5.19 1.25.41 3.94-1.76 3.94-1.76l-7.36-7.37z" style="fill:#cf0000"/><linearGradient id="d" x1="-516.609" x2="-516.609" y1="54.549" y2="15.052" gradientTransform="rotate(45.001 -202.267 695.696)" gradientUnits="userSpaceOnUse"><stop offset="0" style="stop-color:#1774ff"/><stop offset="1" style="stop-color:#55daf2"/></linearGradient><path d="M50.34 13.66c-7.45-7.44-23.6-6.63-28.51-1.71 0 0 6.28 8.83 9.45 9.45l19.06-7.74z" style="fill:url(#d)"/><linearGradient id="e" x1="-495.239" x2="-495.239" y1="74.54" y2="34.8" gradientTransform="rotate(45.001 -202.267 695.696)" gradientUnits="userSpaceOnUse"><stop offset="0" style="stop-color:#fa0"/><stop offset="1" style="stop-color:#ffea00"/></linearGradient><path d="M50.34 13.66 42.6 32.72c.23 3.16 9.45 9.45 9.45 9.45 4.91-4.91 5.74-21.06-1.71-28.51z" style="fill:url(#e)"/><path d="M21.83 11.95s-2.17 2.69-1.76 3.94c.71 2.18 4.92 6.39 7.2 7.2 1.3.46 4.01-1.69 4.01-1.69l-9.45-9.45z" style="fill:#006dae"/><path d="M42.6 32.72s-2.15 2.71-1.69 4.01c.81 2.27 5.02 6.49 7.2 7.2 1.25.41 3.94-1.76 3.94-1.76l-9.45-9.45z" style="fill:#fa0"/><path d="M31.28 21.4s-2.15 2.71-1.69 4.01c.81 2.28 6.73 8.2 9 9 1.3.46 4.01-1.69 4.01-1.69-3.39-5.93-11.32-11.32-11.32-11.32z" style="fill:#529320"/><linearGradient id="f" x1="-505.924" x2="-505.924" y1="53.749" y2="34.8" gradientTransform="rotate(45.001 -202.267 695.696)" gradientUnits="userSpaceOnUse"><stop offset="0" style="stop-color:#52a100"/><stop offset="1" style="stop-color:#9be323"/></linearGradient><path d="M50.34 13.66s-9.72-1.6-19.06 7.73L42.6 32.72c9.34-9.33 7.74-19.06 7.74-19.06z" style="fill:url(#f)"/><path d="M52.94 16.57c-.92-2.93-2.61-4.61-5.52-5.51 1.66 1.31 4.21 3.86 5.52 5.51z" style="fill:#302c3b"/><radialGradient id="g" cx="33.629" cy="57.084" r="20.767" gradientTransform="matrix(1 0 0 .2011 0 45.607)" gradientUnits="userSpaceOnUse"><stop offset="0" style="stop-color:#571700;stop-opacity:.2"/><stop offset=".231" style="stop-color:#591a00;stop-opacity:.1538"/><stop offset=".381" style="stop-color:#612200;stop-opacity:.1239"/><stop offset=".507" style="stop-color:#6e3100;stop-opacity:.0986"/><stop offset=".62" style="stop-color:#814600;stop-opacity:.0759"/><stop offset=".725" style="stop-color:#996100;stop-opacity:.055"/><stop offset=".824" style="stop-color:#b68300;stop-opacity:.0353"/><stop offset=".915" style="stop-color:#d9aa00;stop-opacity:.017"/><stop offset="1" style="stop-color:#ffd500;stop-opacity:0"/></radialGradient><path d="M32 54.25c-8.44 0-16.07 1.05-21.52 2.43.56 2.95 10.61 5.3 22.96 5.32h.59c11.1-.05 20.29-1.97 22.34-4.51-5.45-1.75-14.33-3.24-24.37-3.24z" style="fill:url(#g)"/></svg>