<svg xmlns="http://www.w3.org/2000/svg" xml:space="preserve" style="enable-background:new 0 0 64 64" viewBox="0 0 64 64"><linearGradient id="a" x1="29.5" x2="49.428" y1="9.626" y2="9.626" gradientUnits="userSpaceOnUse"><stop offset="0" style="stop-color:#ff000e"/><stop offset=".189" style="stop-color:#fa000d"/><stop offset=".417" style="stop-color:#eb000b"/><stop offset=".666" style="stop-color:#d30007"/><stop offset=".928" style="stop-color:#b10002"/><stop offset="1" style="stop-color:#a60000"/></linearGradient><path d="M29.5 2.302 30 16.95c10.875 0 11.125-7.41 19.428-7.41-8.24-6.564-12.283-.681-19.928-7.238z" style="fill:url(#a)"/><radialGradient id="b" cx="31.896" cy="16.606" r="27.787" fx="31.894" fy="36.831" gradientTransform="matrix(1 0 0 -.3904 0 57.01)" gradientUnits="userSpaceOnUse"><stop offset="0" style="stop-color:#9be022"/><stop offset=".225" style="stop-color:#96da22"/><stop offset=".535" style="stop-color:#88c822"/><stop offset=".891" style="stop-color:#71ab23"/><stop offset="1" style="stop-color:#69a123"/></radialGradient><path d="M32 40.604c16.569 0 28 5.38 28 12.018 0 12.504-56 12.504-56 0 0-6.637 11.431-12.018 28-12.018z" style="fill:url(#b)"/><linearGradient id="c" x1="-29.873" x2="-29.873" y1="32.407" y2="37.179" gradientTransform="matrix(.8613 0 0 -.8203 54.73 75.292)" gradientUnits="userSpaceOnUse"><stop offset="0" style="stop-color:#8e9091"/><stop offset="1" style="stop-color:#eef3f5"/></linearGradient><path d="M29 44.792c2.761 0 5 .877 5 1.958 0 1.08-2.239 1.957-5 1.957s-5-.876-5-1.957 2.239-1.958 5-1.958z" style="fill:url(#c)"/><linearGradient id="d" x1="-29.873" x2="-29.873" y1="34.28" y2="37.178" gradientTransform="matrix(.8613 0 0 -.8203 54.73 75.292)" gradientUnits="userSpaceOnUse"><stop offset="0" style="stop-color:#1a1626"/><stop offset=".098" style="stop-color:#231f2d"/><stop offset=".452" style="stop-color:#3d3a44"/><stop offset=".764" style="stop-color:#4d4b52"/><stop offset="1" style="stop-color:#535157"/></linearGradient><path d="M29 45.633c2.392 0 4.39.657 4.881 1.537a.85.85 0 0 0 .119-.42c0-1.08-2.239-1.957-5-1.957-2.76 0-5 .878-5 1.958 0 .144.043.284.118.42.492-.88 2.49-1.538 4.882-1.538z" style="fill:url(#d)"/><linearGradient id="e" x1="31.517" x2="31.517" y1="48.68" y2="40.618" gradientUnits="userSpaceOnUse"><stop offset="0" style="stop-color:#302c3b;stop-opacity:.5"/><stop offset="1" style="stop-color:#302c3b;stop-opacity:0"/></linearGradient><path d="m34.035 40.631-.55-.013L29 45.099l1 3.582.387-.05.518-3.69 3.13-4.309z" style="fill:url(#e)"/><linearGradient id="f" x1="28" x2="30" y1="56.525" y2="56.525" gradientTransform="matrix(1 0 0 -1 0 66)" gradientUnits="userSpaceOnUse"><stop offset="0" style="stop-color:#ff000e"/><stop offset=".189" style="stop-color:#fa000d"/><stop offset=".417" style="stop-color:#eb000b"/><stop offset=".666" style="stop-color:#d30007"/><stop offset=".928" style="stop-color:#b10002"/><stop offset="1" style="stop-color:#a60000"/></linearGradient><path d="M30 3.038c0-1.384-2-1.384-2-.002V16.95h2V3.038z" style="fill:url(#f)"/><linearGradient id="g" x1="28" x2="30" y1="33.158" y2="33.158" gradientTransform="matrix(1 0 0 -1 0 66)" gradientUnits="userSpaceOnUse"><stop offset="0" style="stop-color:#ffd978"/><stop offset=".152" style="stop-color:#fcd572"/><stop offset=".35" style="stop-color:#f4cb62"/><stop offset=".574" style="stop-color:#e7ba47"/><stop offset=".815" style="stop-color:#d5a222"/><stop offset="1" style="stop-color:#c48c00"/></linearGradient><path d="M28 16.95v31.73s1 .123 2 0V16.95h-2z" style="fill:url(#g)"/></svg>