<svg xmlns="http://www.w3.org/2000/svg" xml:space="preserve" style="enable-background:new 0 0 64 64" viewBox="0 0 64 64"><linearGradient id="a" x1="49.701" x2="53.413" y1="4.79" y2="4.79" gradientUnits="userSpaceOnUse"><stop offset="0" style="stop-color:#abb3b8"/><stop offset=".081" style="stop-color:#b2babf"/><stop offset=".448" style="stop-color:#cfd5da"/><stop offset=".767" style="stop-color:#e1e6ea"/><stop offset="1" style="stop-color:#e7ecf0"/></linearGradient><path d="M53.413 4.793c0 2.6-3.712 2.6-3.712 0 0-2.608 3.712-2.608 3.712 0z" style="fill:url(#a)"/><linearGradient id="b" x1="34.559" x2="62" y1="20.462" y2="20.462" gradientUnits="userSpaceOnUse"><stop offset="0" style="stop-color:#abb3b8"/><stop offset=".057" style="stop-color:#b3bbc0"/><stop offset=".251" style="stop-color:#cad1d5"/><stop offset=".459" style="stop-color:#dae0e4"/><stop offset=".692" style="stop-color:#e4e9ed"/><stop offset="1" style="stop-color:#e7ecf0"/></linearGradient><path d="m34.56 23.714 5.412-6.504H62v6.504z" style="fill:url(#b)"/><linearGradient id="c" x1="50.369" x2="50.369" y1="17.21" y2="9.585" gradientUnits="userSpaceOnUse"><stop offset="0" style="stop-color:#302c3b"/><stop offset="1" style="stop-color:#096692"/></linearGradient><path d="m38.739 9.585 1.18 7.625H62V9.585z" style="fill:url(#c)"/><linearGradient id="d" x1="36.679" x2="62" y1="7.598" y2="7.598" gradientUnits="userSpaceOnUse"><stop offset="0" style="stop-color:#abb3b8"/><stop offset=".057" style="stop-color:#b3bbc0"/><stop offset=".251" style="stop-color:#cad1d5"/><stop offset=".459" style="stop-color:#dae0e4"/><stop offset=".692" style="stop-color:#e4e9ed"/><stop offset="1" style="stop-color:#e7ecf0"/></linearGradient><path d="m37.065 8.294-.286.414a.56.56 0 0 0 .46.877H62V5.61L39.58 6.884a3.285 3.285 0 0 0-2.515 1.41z" style="fill:url(#d)"/><linearGradient id="e" x1="48.592" x2="54.523" y1="2.713" y2="2.713" gradientUnits="userSpaceOnUse"><stop offset="0" style="stop-color:#abb3b8"/><stop offset=".057" style="stop-color:#b3bbc0"/><stop offset=".251" style="stop-color:#cad1d5"/><stop offset=".459" style="stop-color:#dae0e4"/><stop offset=".692" style="stop-color:#e4e9ed"/><stop offset="1" style="stop-color:#e7ecf0"/></linearGradient><path d="M54.228 3.426h-5.34c-.394 0-.394-1.426 0-1.426h5.34c.394 0 .394 1.426 0 1.426z" style="fill:url(#e)"/><linearGradient id="f" x1="40" x2="40" y1="46" y2="24" gradientUnits="userSpaceOnUse"><stop offset="0" style="stop-color:#abb3b8"/><stop offset=".057" style="stop-color:#b3bbc0"/><stop offset=".251" style="stop-color:#cad1d5"/><stop offset=".459" style="stop-color:#dae0e4"/><stop offset=".692" style="stop-color:#e4e9ed"/><stop offset="1" style="stop-color:#e7ecf0"/></linearGradient><path d="M18 24h44v22H18z" style="fill:url(#f)"/><linearGradient id="g" x1="39" x2="39" y1="24" y2="22" gradientUnits="userSpaceOnUse"><stop offset="0" style="stop-color:#abb3b8"/><stop offset=".081" style="stop-color:#b2babf"/><stop offset=".448" style="stop-color:#cfd5da"/><stop offset=".767" style="stop-color:#e1e6ea"/><stop offset="1" style="stop-color:#e7ecf0"/></linearGradient><path d="M16.926 24H62v-2H16.926c-1.235 0-1.235 2 0 2z" style="fill:url(#g)"/><linearGradient id="h" x1="34.166" x2="34.166" y1="35.75" y2="26.25" gradientUnits="userSpaceOnUse"><stop offset="0" style="stop-color:#302c3b"/><stop offset="1" style="stop-color:#096692"/></linearGradient><path d="M38.416 26.25h-8.5a.5.5 0 0 0-.5.5v8.5a.5.5 0 0 0 .5.5h8.5a.5.5 0 0 0 .5-.5v-8.5a.5.5 0 0 0-.5-.5z" style="fill:url(#h)"/><linearGradient id="i" x1="45.833" x2="45.833" y1="35.75" y2="26.25" gradientUnits="userSpaceOnUse"><stop offset="0" style="stop-color:#302c3b"/><stop offset="1" style="stop-color:#096692"/></linearGradient><path d="M50.083 26.25h-8.5a.5.5 0 0 0-.5.5v8.5a.5.5 0 0 0 .5.5h8.5a.5.5 0 0 0 .5-.5v-8.5a.5.5 0 0 0-.5-.5z" style="fill:url(#i)"/><linearGradient id="j" x1="57.625" x2="57.625" y1="35.75" y2="26.25" gradientUnits="userSpaceOnUse"><stop offset="0" style="stop-color:#302c3b"/><stop offset="1" style="stop-color:#096692"/></linearGradient><path d="M53.75 26.25a.5.5 0 0 0-.5.5v8.5a.5.5 0 0 0 .5.5H62v-9.5h-8.25z" style="fill:url(#j)"/><linearGradient id="k" x1="2565.977" x2="2565.977" y1="35.75" y2="26.25" gradientTransform="matrix(-1 0 0 1 2588.352 0)" gradientUnits="userSpaceOnUse"><stop offset="0" style="stop-color:#302c3b"/><stop offset="1" style="stop-color:#096692"/></linearGradient><path d="M26.25 26.25a.5.5 0 0 1 .5.5v8.5a.5.5 0 0 1-.5.5H18v-9.5h8.25z" style="fill:url(#k)"/><path d="m29.405 40.544-.62-.063-.312 3.935.621.063zm-6.135-2.491-.62-.063-.467 5.836.621.063zm-6.677-1.523-.623-.064-.177 6.687.625.064zm-6.524-1.358-.623-.064-.208 7.372.624.064zm-6.671 4.766-.01-5.783-.623-.064.011 5.847z" style="fill:#6e8189"/><path d="M2.307 34.002c-.369-.038-.426.668-.058.705 27.267 2.793 31.029 9.13 31.029 9.13l1.003.103s-3.794-7.052-31.974-9.938z" style="fill:#99a8ae"/><path d="M62 62H18.281C10.128 62 5.986 47.37 5.986 47.37H62V62z" style="fill:#014d87"/><linearGradient id="l" x1="2.203" x2="61.388" y1="41.114" y2="53.876" gradientUnits="userSpaceOnUse"><stop offset="0" style="stop-color:#2289c7"/><stop offset=".252" style="stop-color:#2086c3"/><stop offset=".501" style="stop-color:#1a7cb7"/><stop offset=".749" style="stop-color:#0f6da3"/><stop offset=".996" style="stop-color:#005688"/><stop offset="1" style="stop-color:#005687"/></linearGradient><path d="M62 44.101c-34.288 0-47.92-1.8-59.361-4.501L4.4 46.748c.18 1.026.709 1.856 1.409 2.199C11.004 51.487 29.715 60.19 62 60.19V44.1z" style="fill:url(#l)"/><linearGradient id="m" x1="2" x2="62" y1="41.924" y2="41.924" gradientUnits="userSpaceOnUse"><stop offset=".188" style="stop-color:#ff000e"/><stop offset=".403" style="stop-color:#f4000b"/><stop offset=".776" style="stop-color:#d80005"/><stop offset="1" style="stop-color:#c40000"/></linearGradient><path d="m2 38.97.372 1.493c11.49 2.653 25.34 4.416 59.628 4.416V43.47c-34.657 0-48.435-1.8-60-4.5z" style="fill:url(#m)"/></svg>