<svg xmlns="http://www.w3.org/2000/svg" xml:space="preserve" style="enable-background:new 0 0 64 64" viewBox="0 0 64 64"><linearGradient id="a" x1="28.856" x2="28.856" y1="49.797" y2="43.99" gradientUnits="userSpaceOnUse"><stop offset="0" style="stop-color:#abb3b8"/><stop offset=".074" style="stop-color:#b7bec3"/><stop offset=".249" style="stop-color:#ccd2d7"/><stop offset=".444" style="stop-color:#dbe1e5"/><stop offset=".669" style="stop-color:#e4e9ed"/><stop offset="1" style="stop-color:#e7ecf0"/></linearGradient><path d="M17.903 43.99H39.81c1.084 0 2.122.412 2.876 1.141l4.82 4.666H10.208l4.82-4.666a4.139 4.139 0 0 1 2.876-1.141z" style="fill:url(#a)"/><linearGradient id="b" x1="28.856" x2="28.856" y1="48.346" y2="45.442" gradientUnits="userSpaceOnUse"><stop offset="0" style="stop-color:#005d8c"/><stop offset="1" style="stop-color:#2a83a5"/></linearGradient><path d="M25.185 48.346h7.343c.275 0 .5-.211.5-.468V45.91c0-.259-.224-.468-.5-.468h-7.343c-.276 0-.5.21-.5.468v1.968c0 .258.224.468.5.468z" style="fill:url(#b)"/><linearGradient id="c" x1="39.135" x2="39.135" y1="48.346" y2="45.442" gradientUnits="userSpaceOnUse"><stop offset="0" style="stop-color:#005d8c"/><stop offset="1" style="stop-color:#2a83a5"/></linearGradient><path d="M35.135 48.346h8.3c.177 0 .267-.199.144-.318l-2.077-2.014a2.07 2.07 0 0 0-1.44-.572h-4.927c-.275 0-.5.21-.5.468v1.968c0 .258.223.468.5.468z" style="fill:url(#c)"/><linearGradient id="d" x1="1430.07" x2="1430.07" y1="48.346" y2="45.442" gradientTransform="matrix(-1 0 0 1 1448.648 0)" gradientUnits="userSpaceOnUse"><stop offset="0" style="stop-color:#005d8c"/><stop offset="1" style="stop-color:#2a83a5"/></linearGradient><path d="M22.578 48.346h-8.301c-.176 0-.266-.199-.144-.318l2.077-2.014a2.07 2.07 0 0 1 1.44-.572h4.928c.275 0 .5.21.5.468v1.968c0 .258-.224.468-.5.468z" style="fill:url(#d)"/><linearGradient id="e" x1="39.941" x2="39.941" y1="38.83" y2="36.839" gradientUnits="userSpaceOnUse"><stop offset="0" style="stop-color:#99a8ae"/><stop offset=".123" style="stop-color:#a3b0b6"/><stop offset=".594" style="stop-color:#c3cdd2"/><stop offset=".855" style="stop-color:#cfd8dd"/></linearGradient><path d="M47.812 36.839H30.866v1.99h16.946c.668 0 1.204-.443 1.204-.993s-.536-.997-1.204-.997z" style="fill:url(#e)"/><path d="M30.295 0h1.141v9.602h-1.141z" style="fill:#302c3b"/><linearGradient id="f" x1="31.437" x2="39.978" y1="1.991" y2="1.991" gradientUnits="userSpaceOnUse"><stop offset="0" style="stop-color:#c40000"/><stop offset=".224" style="stop-color:#d80005"/><stop offset=".597" style="stop-color:#f4000b"/><stop offset=".812" style="stop-color:#ff000e"/></linearGradient><path d="M31.437 0v3.982c2.894 0 5.689-2.523 8.541-1.99-2.852-1.86-5.69-.132-8.54-1.992z" style="fill:url(#f)"/><linearGradient id="g" x1="29.798" x2="31.934" y1="24.571" y2="24.571" gradientUnits="userSpaceOnUse"><stop offset=".145" style="stop-color:#cfd8dd"/><stop offset=".406" style="stop-color:#c3cdd2"/><stop offset=".877" style="stop-color:#a3b0b6"/><stop offset="1" style="stop-color:#99a8ae"/></linearGradient><path d="M30.866 5.334c-.584 0-1.068.48-1.068 1.068v37.406h2.136V6.402c0-.589-.478-1.068-1.068-1.068z" style="fill:url(#g)"/><linearGradient id="h" x1="31.76" x2="48.075" y1="22.417" y2="22.417" gradientUnits="userSpaceOnUse"><stop offset="0" style="stop-color:#de9400"/><stop offset=".032" style="stop-color:#e09902"/><stop offset=".204" style="stop-color:#eaad08"/><stop offset=".397" style="stop-color:#f2bc0d"/><stop offset=".629" style="stop-color:#f6c410"/><stop offset="1" style="stop-color:#f7c711"/></linearGradient><path d="M31.76 7.747s3.593 17.786.012 29.34c7.54-3.215 16.303-.104 16.303-.104L31.76 7.747z" style="fill:url(#h)"/><path d="M4.176 49.284s0-4.294 5.698-11.79c0 0-4.03 5.895-5.699 11.79zm54.501 0s-8.8-6.267-10.602-12.3c0 0 2.268 5.08 10.602 12.3zm-24.871 0s-6.082-7.14-7.35-12.445c0 0 3.63 7.855 7.35 12.445z" style="fill:#99a8ae"/><linearGradient id="i" x1="6.311" x2="29.798" y1="25.491" y2="25.491" gradientUnits="userSpaceOnUse"><stop offset="0" style="stop-color:#ffe600"/><stop offset="1" style="stop-color:#f9c802"/></linearGradient><path d="M29.798 7.965S14.138 29.564 6.311 42.812c0 0 10.67 1.412 21.352-3.165 0 0-1.029-17.057 2.135-31.682z" style="fill:url(#i)"/><linearGradient id="j" x1="17.089" x2="27.684" y1="26.076" y2="26.076" gradientUnits="userSpaceOnUse"><stop offset=".188" style="stop-color:#ff000e"/><stop offset=".403" style="stop-color:#f4000b"/><stop offset=".776" style="stop-color:#d80005"/><stop offset="1" style="stop-color:#c40000"/></linearGradient><path d="m27.55 29.029.134-3.69s-1.712-1.382-8.56-2.216c-.67.976-1.35 1.972-2.035 2.98l10.462 2.926z" style="fill:url(#j)"/><path d="m27.505 33.54.046-4.511s-3.197-2.256-10.462-2.927a513.952 513.952 0 0 0-3.551 5.292c9.314.062 13.966 2.146 13.966 2.146z" style="fill:#ffe8bb"/><linearGradient id="k" x1="2.788" x2="62" y1="53.12" y2="53.12" gradientUnits="userSpaceOnUse"><stop offset="0" style="stop-color:#e7ecf0"/><stop offset=".331" style="stop-color:#e4e9ed"/><stop offset=".556" style="stop-color:#dbe1e5"/><stop offset=".751" style="stop-color:#ccd2d7"/><stop offset=".926" style="stop-color:#b7bec3"/><stop offset="1" style="stop-color:#abb3b8"/></linearGradient><path d="M62 56.443H5.094c-2.305-4.823-2.305-6.646-2.305-6.646h57.108L62 56.443z" style="fill:url(#k)"/><linearGradient id="l" x1="4.386" x2="62.85" y1="60.221" y2="60.221" gradientUnits="userSpaceOnUse"><stop offset="0" style="stop-color:#02d6b4"/><stop offset=".319" style="stop-color:#0fbea3"/><stop offset="1" style="stop-color:#288f82"/></linearGradient><path d="M27.125 64h14.79C58.481 64 62 56.443 62 56.443H5.094S9.874 64 27.124 64z" style="fill:url(#l)"/><linearGradient id="m" x1="-466.515" x2="-467.029" y1="459.345" y2="459.345" gradientTransform="rotate(90 -12.813 503.5)" gradientUnits="userSpaceOnUse"><stop offset="0" style="stop-color:#288f82"/><stop offset=".193" style="stop-color:#1da390"/><stop offset=".511" style="stop-color:#0ebfa4"/><stop offset=".791" style="stop-color:#05d0b0"/><stop offset="1" style="stop-color:#02d6b4"/></linearGradient><path d="M2.23 49.797c-.307 0-.307-.513 0-.513h58.225c.307 0 .307.513 0 .513H2.23z" style="fill:url(#m)"/></svg>