<svg xmlns="http://www.w3.org/2000/svg" xml:space="preserve" style="enable-background:new 0 0 64 64" viewBox="0 0 64 64"><linearGradient id="a" x1="32" x2="32" y1="62" y2="50.395" gradientUnits="userSpaceOnUse"><stop offset="0" style="stop-color:#b4c5cf"/><stop offset="1" style="stop-color:#637c87"/></linearGradient><path d="M57.05 51.27c2.86 2.92 3.45 5.54 1.11 5.85-1.96.26-6.3.19-7.9-.04-2.3-.33-3.43-1.85-3.05-5.54l-4.74.16c.04 3.69.72 5.28-1.28 5.7-3.25.68-16.25 1.13-21.87-.06-3.21-.67-3.91-3.22-4.03-4.81h-5.21c1.48 1.65 1.28 4.34-.06 4.34l-7.67.46c-1.07 0-3.01 3.59-2.09 3.64 24.86 1.29 48.01 1.5 56.6-.17 1.17-.23 3.82-1.12 5.14-1.12.78 0-.37-.58.57-.58.8 0-.62-.78.34-.78.85 0-.5-.67.65-.67.69 0-.67-.71.33-.71.58 0-1.07-3.07-3.61-5.83l-3.23.16z" style="fill:url(#a)"/><linearGradient id="b" x1="19.057" x2="47.821" y1="45.218" y2="45.218" gradientTransform="matrix(1 0 0 -1 0 66)" gradientUnits="userSpaceOnUse"><stop offset="0" style="stop-color:#99a8ae"/><stop offset=".119" style="stop-color:#a0aeb4"/><stop offset="1" style="stop-color:#cfd8dd"/></linearGradient><path d="M47.82 37.64C30.92 32.2 28.52 9.7 29.62 5.87c1.29-4.48-10.64-4.94-10.56-.06.51 27.15 22.56 37.76 28.76 31.83z" style="fill:url(#b)"/><linearGradient id="c" x1="31.941" x2="31.941" y1="53.42" y2="101.329" gradientTransform="matrix(1 0 0 -1.0459 0 107.98)" gradientUnits="userSpaceOnUse"><stop offset="0" style="stop-color:#cbd4d9"/><stop offset=".39" style="stop-color:#e1e8ec"/><stop offset=".667" style="stop-color:#ecf1f5"/></linearGradient><path d="M5 10.77c-.08-2.51 14.48-9.57 20.92-8.7 4.3.58-4.93 26.58 19.66 35.86.93.36 1.25-.63 1.66-.49 5.2 1.69 16.47 1.56 14.4 11.36-17.2 9.16-41.52-3.21-59.29-7.31C.69 30.35 5.55 29.97 5 10.77z" style="fill:url(#c)"/><path d="M25.29 6.58c1.58-.03 1.56-2.61-.02-2.58-1.56.03-1.55 2.61.02 2.58zm.17 5.17c1.58-.02 1.58-2.6-.01-2.58-1.56.02-1.55 2.6.01 2.58zm.73 5.56c1.55-.28 1.12-2.83-.43-2.55-1.54.29-1.11 2.83.43 2.55zm1.33 5.85c1.51-.44.82-2.93-.69-2.49-1.51.44-.82 2.91.69 2.49zm2.8 5.61c1.45-.63.44-3.01-1-2.38-1.43.62-.43 3 1 2.38zm4 5.05c1.24-.97-.33-3.02-1.57-2.05-1.24.97.33 3.02 1.57 2.05zm4.69 3.56c.99-1.22-1-2.87-1.99-1.65-.99 1.23 1 2.87 1.99 1.65zm4.98 2.44c.77-1.37-1.47-2.66-2.24-1.29-.76 1.37 1.47 2.65 2.24 1.29z" style="fill:#99a8ae"/><linearGradient id="d" x1="2.346" x2="20.429" y1="57.53" y2="57.53" gradientTransform="matrix(1 0 0 -1.0459 0 107.98)" gradientUnits="userSpaceOnUse"><stop offset="0" style="stop-color:#4e585e"/><stop offset=".01" style="stop-color:#4d575d"/><stop offset=".375" style="stop-color:#3d3f4a"/><stop offset=".714" style="stop-color:#33313f"/><stop offset="1" style="stop-color:#302c3b"/></linearGradient><path d="M20.43 46.14v6.67c0 .64-.5 1.15-1.11 1.15H5.02c-.56 0-1.04-.38-1.18-.93-.82-3.02-1.6-7.5-1.48-11.37l18.07 4.48z" style="fill:url(#d)"/><linearGradient id="e" x1="2.346" x2="62" y1="57.77" y2="57.77" gradientTransform="matrix(1 0 0 -1.0459 0 107.98)" gradientUnits="userSpaceOnUse"><stop offset="0" style="stop-color:#302c3b"/><stop offset=".286" style="stop-color:#33313f"/><stop offset=".625" style="stop-color:#3d3f4a"/><stop offset=".99" style="stop-color:#4d575d"/><stop offset="1" style="stop-color:#4e585e"/></linearGradient><path d="M61.63 48.81c.12-.04.58 2.17.25 2.3-4.29 1.69-11.61 2.67-16.31 2.66-21.7-.05-25.48-9.13-43.2-10.06l-.02-2.36c17.14 0 20.48 9.58 43.19 9.99 4.72.09 10.57-.85 16.09-2.53z" style="fill:url(#e)"/><path d="M29.95 13.82c-.4.1-3.25.78-4.3 1.03-1.02.24-.61 2.62.46 2.37 1.37-.33 3.59-.97 4.31-1.15.55-.15.26-2.43-.47-2.25zm1.26 5.15c-1.47.81-3.45 1.51-4.49 1.81-.94.28-.38 2.53.63 2.3 1.39-.31 3.22-1.04 4.66-1.83.5-.28-.13-2.65-.8-2.28zm2.06 5.19c-1.35 1.02-2.97 1.82-3.95 2.3-.96.46-.1 2.63.88 2.23 1.32-.53 2.83-1.48 4.15-2.47.46-.36-.48-2.52-1.08-2.06zm2.92 4.89c-1.14 1.26-2.48 2.17-3.36 2.82-.82.61.39 2.42 1.23 1.87 1.2-.78 2.36-1.76 3.47-3 .39-.44-.83-2.27-1.34-1.69zm3.38 3.78c-.9 1.46-1.63 2.12-2.38 2.93-.68.73.84 2.33 1.57 1.64 1.05-.99 1.65-1.72 2.52-3.14.31-.51-1.3-2.09-1.71-1.43zm3.9 2.88c-.7 1.57-1.08 2.03-1.6 3-.48.89 1.3 1.98 1.82 1.17.78-1.23.92-1.7 1.54-3.25.17-.46-1.52-1.47-1.76-.92z" style="fill:#02d6b4"/><path d="M43.57 42.46c-.46 0-.95-.04-1.45-.12-4.8-.78-10.08-5.07-13.77-11.2-3.26-5.42-6.93-14.68-5.81-28.96l.51-.07c-1.11 14.14 2.5 23.4 5.73 28.75 4.32 7.18 9.77 10.37 13.42 10.96 3.4.55 5.85-.93 6.52-3.97l.49.12c-.65 2.88-2.71 4.49-5.64 4.49z" style="opacity:.3;fill:#99a8ae"/></svg>