<svg xmlns="http://www.w3.org/2000/svg" xml:space="preserve" style="enable-background:new 0 0 64 64" viewBox="0 0 64 64"><path d="m38.31 9.101 1.297 1.988c3.233-.28 7.619 8.547 14.312 3.265-6.347.223-9.623-8.865-15.61-5.253z" style="fill:#ffb80d"/><path d="m38.514 9.42.973 1.65c5.413 2.12 8.201 9.636 14.432 3.284-5.803 3.265-9.753-3.436-15.405-4.933z" style="fill:#f9a307"/><path d="M39.987 10.619c4.197 2.052 7.692 7.472 11.753 4.93-4.815 1.241-8.136-3.964-11.753-4.93z" style="fill:#e68c00"/><path d="M41.167 8.909c3.1 1.042 5.851 4.997 9.392 5.164-3.225-1.125-6.313-5.241-9.392-5.164z" style="fill:#ffca25"/><path d="M39.512 8.403c-1.425-2.17-2.851 3.519-.177 2.835.922 1.503 1.51-4.255.177-2.835z" style="fill:#8e3ed6"/><path d="M28.42 21.643c-2.894 2.904-3.776 4.82-5.355 5.225-2.426-.207-6.517.59-7.285.596-.744.008-2.847-.668-3.356-.429-2.153 1.017-2.427.931-3.21 2.135-.592.912.187.612.592.196.627-.644 2.092-1.08 2.247-.257-1.642.143-1.928 1.278-1.32 1.18 1.567-.253 2.524-.058 3.353-.813.334-.306 1.746-.35 4.872.265 2.749.54 4.476.757 5.437.757 1.623 0 7.053-5.97 7.053-5.97s.93-11.17-3.028-2.885zm-2.43 33.682c1.402-3.734 3.735-3.886 3.88-9.62.823-1.06 3.781-2.672 3.781-2.672l-5.436-4.05s-2.765 2.902-2.877 3.082c-.657 1.06.172 5.003-2.741 12.936-.239.646 3.273.645 3.394.324z" style="fill:#ffc940"/><path d="m25.299 57.441.692-2.117c-2.408.085-3.394-.323-3.394-.323-.234.742-.426 1.053-.715 1.84-.238.647 3.31.927 3.417.6z" style="fill:#f2f5f7"/><path d="M22.83 61.594h2.733c.4 0 .17-.618.17-.618s-2.553-1.473-10.663-.684c0 0 1.873 2.711 7.76 1.302z" style="fill:#be75ff"/><path d="M25.512 58.458c.424-.72.331-1.539.067-1.41-.506.254-2.57.148-2.992-.127.507-1.553-.734-1.982-.789-1.505-.464 4.017-7.037 1.76-6.728 4.876 0 0 3.52 1.918 7.67.704l2.993-.02c.363-1.669-.221-2.518-.221-2.518z" style="fill:#666b6e"/><path d="M18.024 58.346c1.027.947 1.607 1.01 1.694.345.694.475 1.093.092 1.101-.3.75.306 1.024-.318.144-1.013-.505-.37-3.216.713-2.94.968z" style="fill:#be75ff"/><path d="M50.181 46.092c-3.71-.37-4.154-2.16-8.587-1.252-.166-.365-.788-1.44-.788-1.44l-5.793 1.881s2.494 4.063 4.444 4.78c1.033.38 4.959-1.63 11.112-.769.599.084 1.375-2.43-.388-3.2z" style="fill:#ffc940"/><path d="M52.514 46.44a18.207 18.207 0 0 1-2.333-.348c.874 1.34.388 3.2.388 3.2s1.027.114 1.763.207c.6.076.484-3.032.182-3.058z" style="fill:#f2f5f7"/><path d="m40.066 36.708-6.836 4.27s-.022 2.374 1.986 5.243c0 0 3.128.807 6.446-2.458-.858-3.027-1.596-7.055-1.596-7.055z" style="fill:#732eb0"/><path d="M41.37 42.68c-2.527 2.738-6.71 2.677-6.71 2.677.166.281.35.57.556.864 0 0 3.128.807 6.446-2.458-.1-.35-.197-.713-.292-1.083z" style="fill:#8e3ed6"/><path d="M37.151 16.738c-3.225 8.756-6.797 12.315-6.466 1.876 1.132-.191 3.496-2.641 6.466-1.876z" style="fill:#ffc940"/><path d="m41.716 33.06-10.18.821c-.804 1.596-2.84 3.695-4.707 5.684 0 0 4.836 5 5.89 5.735 6.524-4.308 10.61-5.184 8.997-12.24z" style="fill:#8e3ed6"/><path d="M32.396 43.26s9.707-5.015 7.839-9.561c-.167-.406-1.616-.2-1.494.222 1.278 4.439-7.718 8.094-7.718 8.094s-2.174-1.993-3.297-3.427c-.298.332-.599.66-.897.977 0 0 2.374 3.397 5.89 5.735a81.1 81.1 0 0 1 1.126-.73c-.646-.641-1.449-1.31-1.449-1.31z" style="fill:#be75ff"/><path d="M39.664 16.752c-.635-.77-2.954-.163-3.144-.03-1.897 1.322-3.729 6.531-3.729 6.531-.232.044-2.437-1.204-.97-4.88.354-.885-1.427.297-1.427.297-.454 4.088-2.471 6.62.27 9.495.543.57.873 2.5.882 4.121 7.862 2.544 10.226-.711 10.226-.711s1.972-9.88-2.108-14.823z" style="fill:#8e3ed6"/><path d="M36.429 16.788c-1.99 1.175-3.775 6.168-3.775 6.168-.235.046-1.59-1.722-.666-4.956-.302-.135-.447.07-.447.07-1.437 5.196 1.304 6.027 1.304 6.027 1.083-2.277 2.395-6.292 3.584-7.309zm-4.883 15.498c.014.495.014 1.02-.01 1.595 7.865 2.544 10.18-.821 10.18-.821s.043-.552.056-1.485c-1.578.384-4.112 2.326-10.226.711zm10.418-9.967c1.239 5.92-2.557 6.798-4.625 1.13-2.908-7.976 2.935-9.197 4.625-1.13z" style="fill:#be75ff"/><path d="M41.579 21.72c.981 4.69-2.014 5.303-3.752.85-2.567-6.585 2.346-7.572 3.752-.85z" style="fill:#ffc940"/><path d="m56.481 46.544-1.171-2.286c-.17-.335-.602.147-.602.147s-.169 2.823 3.986 9.239c0 0 1.52-2.835-2.213-7.1z" style="fill:#be75ff"/><path d="M52.642 45.765c-.798-.016-1.46.442-1.235.602.433.307 1.227 2.083 1.173 2.564-1.549.3-1.382 1.539-.95 1.363 3.641-1.49 4.524 5.064 7.064 3.35 0 0 .133-3.842-2.686-6.745l-1.3-2.494c-1.588.475-2.064 1.36-2.066 1.36z" style="fill:#666b6e"/><path d="M55.759 52.08c.371-1.301.176-1.814-.43-1.578.108-.8-.391-.955-.732-.778-.058-.771-.708-.71-.93.353-.098.594 1.993 2.356 2.092 2.004z" style="fill:#be75ff"/><path d="M48.983 18.471c-.639-.9-10.237-2.16-11.224-1.093-1.156 3.122 2.091 4.394 9.654 4.81.824 2.208 3.837 6.514 3.673 8.739-.07.944-.687 1.043-.183 3.784.079.43.94.156.793-1.397.905.743.772 2.55 1.349 2.952.383.267.681-.22.146-2.269.617 1.343.579 1.872.671 1.995.309.409.978-1.232.674-3.023-.059-.337-1.05-2.132-1.29-2.886-.938-2.948-1.236-7.34-4.263-11.612z" style="fill:#ffc940"/><path d="M53.791 33.637s.674 1.49.447 2.158c.418-.664-.447-2.158-.447-2.158zm.457-.368s.293 1.017.255 1.738c.172-.864-.255-1.738-.255-1.738z" style="fill:#f0a429"/><linearGradient id="a" x1="30.536" x2="36.724" y1="15.062" y2="16.548" gradientUnits="userSpaceOnUse"><stop offset="0" style="stop-color:#f0a429"/><stop offset=".225" style="stop-color:#f8b735"/><stop offset=".472" style="stop-color:#fdc43d"/><stop offset=".693" style="stop-color:#ffc940"/></linearGradient><path d="M37.072 12.902c-1.461-6.11-5.89-.462-7.132 4.643.936-.419 2.9 1.495 2.736 3.97.711-1.57 2.057-4.079 4.024-4.87-.668-1.372.372-3.743.372-3.743z" style="fill:url(#a)"/><radialGradient id="b" cx="11.659" cy="41.283" r="6.645" fx="10.386" fy="36.473" gradientUnits="userSpaceOnUse"><stop offset="0" style="stop-color:#ffae00"/><stop offset=".175" style="stop-color:#fba800"/><stop offset=".413" style="stop-color:#f19600"/><stop offset=".687" style="stop-color:#e07a00"/><stop offset=".845" style="stop-color:#d46600"/></radialGradient><path d="M11.658 34.652C7.981 34.652 5 37.622 5 41.283s2.98 6.631 6.658 6.631c3.678 0 6.66-2.969 6.66-6.63s-2.982-6.632-6.66-6.632z" style="fill:url(#b)"/><radialGradient id="c" cx="11.495" cy="41.229" r="6.447" fx="10.425" fy="36.009" gradientUnits="userSpaceOnUse"><stop offset="0" style="stop-color:#4f4444"/><stop offset=".201" style="stop-color:#4d4040"/><stop offset=".39" style="stop-color:#473535"/><stop offset=".574" style="stop-color:#3c2222"/><stop offset=".754" style="stop-color:#2d0808"/><stop offset=".797" style="stop-color:#290000"/></radialGradient><path d="M9.555 39.617a2.392 2.392 0 0 1-.143-.346c3.188-1.218 6.951-1.502 8.547-.14a8.719 8.719 0 0 0-.184-.475c-.773-.52-2.084-.818-3.56-.76-1.54.063-3.297.442-4.885 1.04-.117-.696.059-1.444.516-2.104.787-1.139 2.183-1.805 3.84-1.867a6.856 6.856 0 0 0-.627-.166c-1.678.154-2.809.844-3.496 1.838-.526.758-.715 1.625-.56 2.426a13.112 13.112 0 0 0-1.35.625c-.18-.729-.276-1.434-.264-2.08.007-.55.097-1.2.41-1.73a6.038 6.038 0 0 0-.434.339c-.562 1.28-.226 2.83-.02 3.638-.347.198-.663.4-.943.61-.181-.637-.449-1.24-.873-1.776a4.49 4.49 0 0 0-.148.381c.346.492.57 1.043.723 1.625-.483.399-.844.809-1.073 1.22.014.167.037.331.065.495.197-.387.513-.842 1.093-1.344.141.668.204 1.37.268 2.06.094 1.034.22 2.391.729 3.07.181.163.37.316.568.46-.71-.869-.824-2.148-.953-3.56-.07-.764-.139-1.537-.31-2.274.279-.213.595-.422.949-.625.285.994.714 2.037 1.263 3.033 1.108 2.008 2.58 4.047 4.795 4.428.19-.054.377-.117.559-.187-.422-.006-.866-.12-1.326-.346-2.053-1.004-4.165-4.172-4.989-7.098a15.481 15.481 0 0 1 1.348-.629c.043.125.094.25.154.372.899 1.804 3.078 2.523 5.604 3.357.922.305 1.869.617 2.824 1.002.053-.104.1-.209.143-.316-.971-.39-1.926-.706-2.858-1.014-2.453-.809-4.566-1.506-5.402-3.182z" style="fill:url(#c)"/><path d="M26.856 6.168c-.303.843-1.078 2.523-.426 3.68.291.518-.282 1.742-.955 2.483-.293.322-.381.738-.204.979.272.367.733.161.936.44.333.453-.067.737-.065.935 0 0 1.165.199.491 1.237.119.118.372.068.2.914-.114.558.414 1.19 1.148 1.157 3.047-.14 5.795-2.665 6.426-4.91 1.353-4.814 1.813-10.217-7.551-6.915z" style="fill:#ffc940"/><path d="M26.142 14.685c-.078.553 1.011.975 1.78.384-1.21.192-1.469-.492-1.78-.384z" style="fill:#d47706"/><path d="M26.636 15.281c-.275.197-.26.492-.003.641.528-.124 1.054-.29 1.29-.853-.604.32-1.287.212-1.287.212z" style="fill:#d47706"/><path d="M25.203 13.17c.107.65 2.027.93 1.94-.047-.252.917-2.009-.376-1.94.047z" style="fill:#f0a429"/><path d="M28.607 9.473c-.48-.422-1.336-.75-2.134-.387-.115.052.025.53.117.49.614-.275 1.227-.186 1.998.267.089.052.114-.286.02-.37z" style="fill:#bb7c0a"/><path d="M28.668 10.726c-.37.59-1.229.727-1.229.727-.304-.263-.318-.767-.344-1.21.444-.07 1.573.483 1.573.483z" style="fill:#fff"/><linearGradient id="d" x1="-58.646" x2="-58.646" y1="12.312" y2="11.003" gradientTransform="matrix(.5738 -.061 .1057 .9944 59.787 -4.367)" gradientUnits="userSpaceOnUse"><stop offset="0" style="stop-color:#a6694a"/><stop offset="1" style="stop-color:#4f2a1e"/></linearGradient><path d="M27.062 10.81c.097.9.704.836.608-.064-.09-.836-.698-.772-.608.064z" style="fill:url(#d)"/><path d="M27.137 10.777c.046.424.29.398.245-.026-.042-.394-.287-.368-.245.026z" style="fill:#1a1626"/><path d="M27.282 10.58c.023.212.145.2.123-.012-.021-.196-.144-.183-.123.013z" style="fill:#ab968c"/><path d="M28.668 10.726c-.3-.42-1.174-.843-1.527-.822-.212.44-.281.22 1.527.822z" style="fill:#45332c"/><path d="M28.668 10.726c-1.114-.8-1.692-.489-2.045-1.127.092 1.247.581.635 2.045 1.127z" style="fill:#1a1626"/><path d="M39.324 7.59c-.86-4.647-5.01-5.97-8.079-5.502-3.366.513-5.37 3.048-4.672 4.178.863 1.396 3.49.136 5.404 4.262.83 1.79 2.693-1.115 4.204.348.903.875 3.671-.43 3.143-3.286z" style="fill:#ffb80d"/><path d="M31.977 10.528c-1.232-4.061-4.937-2.777-5.542-4.672.054 2 3.795.716 5.542 4.672z" style="fill:#f9a307"/><path d="M26.573 5.856C27.596 3.165 34.097.99 37.748 4.673c-4.166-4.715-10.9-1.637-11.175 1.183z" style="fill:#ffca25"/><path d="M27.157 6.259c.718-1.644 4.794-3.143 8.308-1.805-4.102-2.462-8.308.177-8.308 1.805zm.926.538s3.17.458 6.383 1.526c-2.577-2.361-6.383-1.526-6.383-1.526z" style="fill:#ffca25"/><path d="M27.727 6.52c1.168-.91 3.844-.952 6.456-.468-3.095-1.547-5.891-.768-6.456.468z" style="fill:#ffca25"/><path d="M39.33 7.592c-.334-1.77-1.133-3.058-2.174-3.948.868.913 1.648 2.136 2.055 4.698-.715-3.396-4.467-4.965-4.467-4.965s3.477 2.439 4.318 5.59c-1.838-3.333-6.395-4.102-6.395-4.102s4.04 1.763 6.22 4.547c-2.581-2.25-6.721-2.892-6.721-2.892s4.808 1.88 6.437 3.532c-3.844-2.392-6.473-1.659-5.745 1.045 0 0 1.951-1.16 3.124-.025.903.875-1.264 4.386.231 3.442 1.33-.838 3.86-2.966 3.116-6.922z" style="fill:#f9a307"/><path d="M35.9 13.855c2.352-.754 3.036-2.607 3.036-2.607s-.745 1.177-3.037 2.607z" style="fill:#e68c00"/><path d="M36.205 12.552c1.664-.042 2.857-1.676 2.857-1.676s-1.476 1.121-2.857 1.676zm.168-1.424c1.348.528 2.689-.478 2.689-.478s-1.466.49-2.69.478zm2.689-.748s-2.738-.302-4.698-1.18c1.876 1.578 4.698 1.18 4.698 1.18z" style="fill:#e68c00"/><path d="M33.376 13.507c.14.092.91.235 1.3-.498.216-.406.892-.826 1-1.622.14-1.021-3.3 1.468-2.3 2.12z" style="fill:#f0a429"/><path d="M34.094 9.566c-1.34.272-1.764 3.267-.764 3.92.14.091.875.174 1.263-.56.217-.405.988-.817 1.095-1.613.14-1.02-.262-2.017-1.594-1.747z" style="fill:#ffc940"/><path d="M34.109 10.109c-.34.124-.65.53-.73 1.142.566-.154.621.986.124 1.21.04.134.086.27.144.41.412-.563.99-.445 1.35-1.248.327-.724-.042-1.823-.888-1.514z" style="fill:#f0a429"/><radialGradient id="e" cx="31.986" cy="11.283" r="8.941" gradientTransform="matrix(.9093 .4161 -.2232 .4877 5.42 -7.53)" gradientUnits="userSpaceOnUse"><stop offset=".529" style="stop-color:#c4c8cc"/><stop offset=".625" style="stop-color:#d0d5d9"/><stop offset=".796" style="stop-color:#e0e5e9"/><stop offset=".925" style="stop-color:#e6ebef"/></radialGradient><path d="M38.874 11.63c-4.856-6.927-11.844-6.352-12.39-6.25-.803.152-1.15 2.191-.175 2.407.393.086 6.278-1.013 11.062 5.841.485.695 2.017-1.266 1.503-2z" style="fill:url(#e)"/></svg>