<svg xmlns="http://www.w3.org/2000/svg" xml:space="preserve" style="enable-background:new 0 0 64 64" viewBox="0 0 64 64"><linearGradient id="a" x1="56.466" x2="50.175" y1="56.358" y2="44.825" gradientUnits="userSpaceOnUse"><stop offset="0" style="stop-color:#f28500"/><stop offset=".043" style="stop-color:#ed8100"/><stop offset=".484" style="stop-color:#b95f00"/><stop offset=".817" style="stop-color:#984900"/><stop offset="1" style="stop-color:#8c4100"/></linearGradient><path d="M44.732 48.6c-.658 5.097.376 10.682.376 10.682s8.272-8.126 15.076-15.276c-.06-1.422-.074-4.713-.074-4.713L44.732 48.6z" style="fill:url(#a)"/><path d="M.689 50.561v.69C4.627 47.792 11.579 38.866 24.24 8 16.958 23.845 8.61 42.618.689 50.561z" style="fill:#ffc191"/><path d="M1.292 49.281c-.036-.408-1.117-.511-1.194-.032-.17 1.049.477 4.151.822 5.243.11.349 1.179.346 1.106.01-.342-1.582-.679-4.605-.734-5.22z" style="fill:#4d3a2c"/><path d="M1.661 50.791c-.089-.2-.316.261-.776.467-.469.21-.792-.004-.754.21.12.675 1.801-.07 1.53-.677z" style="fill:#ffc191"/><path d="M1.627 50.669c-.029-.226-.37.114-.858.117-.499.004-.744-.33-.767-.113-.072.685 1.714.68 1.625-.004z" style="fill:#e3a371"/><linearGradient id="b" x1="11.504" x2="19.557" y1="28.075" y2="31.462" gradientUnits="userSpaceOnUse"><stop offset="0" style="stop-color:#f28500"/><stop offset=".134" style="stop-color:#ed8100"/><stop offset=".3" style="stop-color:#de7700"/><stop offset=".482" style="stop-color:#c46700"/><stop offset=".675" style="stop-color:#a24f00"/><stop offset=".778" style="stop-color:#8c4100"/></linearGradient><path d="M24.24 8C16.953 24.264 10.336 38.968 2.126 49.562c5.076-.948 10.223-.344 10.223-.344S20.88 32.507 24.24 8z" style="fill:url(#b)"/><linearGradient id="c" x1="7.314" x2="42.485" y1="48.584" y2="29.375" gradientUnits="userSpaceOnUse"><stop offset=".652" style="stop-color:#ed9a1f"/><stop offset=".696" style="stop-color:#ea961e"/><stop offset=".736" style="stop-color:#df8b19"/><stop offset=".775" style="stop-color:#ce7812"/><stop offset=".813" style="stop-color:#b65e07"/><stop offset=".833" style="stop-color:#a64d00"/></linearGradient><path d="M7.884 47.682c.893 4.02 1.222 6.604 1.222 6.604s16.215 2.182 36.002 4.996c-.224-5.375-.376-10.682-.376-10.682S31.848 19.224 24.24 8C18.666 29.782 7.884 47.682 7.884 47.682z" style="fill:url(#c)"/><linearGradient id="d" x1="14.818" x2="34.683" y1="37.614" y2="37.614" gradientUnits="userSpaceOnUse"><stop offset="0" style="stop-color:#a64d00"/><stop offset="1" style="stop-color:#421f00"/></linearGradient><path d="M14.818 54.534c5.922.39 11.053 1.838 19.865 2.66 0 0-2.17-13.575-10.031-39.159-7.544 22.353-9.834 36.5-9.834 36.5z" style="fill:url(#d)"/><linearGradient id="e" x1="14.078" x2="34.683" y1="50.195" y2="50.195" gradientUnits="userSpaceOnUse"><stop offset="0" style="stop-color:#a64d00"/><stop offset=".066" style="stop-color:#9c4800"/><stop offset=".347" style="stop-color:#753600"/><stop offset=".606" style="stop-color:#592a00"/><stop offset=".832" style="stop-color:#482200"/><stop offset="1" style="stop-color:#421f00"/></linearGradient><path d="M14.818 54.534c5.922.39 11.053 1.838 19.865 2.66L31.66 43.197l-17.581 7.83.74 3.507z" style="fill:url(#e)"/><linearGradient id="f" x1="28.316" x2="31.543" y1="39.04" y2="38.007" gradientUnits="userSpaceOnUse"><stop offset="0" style="stop-color:#ed9a1f"/><stop offset=".407" style="stop-color:#f6ae43"/><stop offset=".778" style="stop-color:#fdbc5c"/><stop offset="1" style="stop-color:#ffc166"/></linearGradient><path d="M37.658 58.228s0-4.359-2.975-10.604c-.22-.463-.384-6.2-5.52-17.4-.163-.356-1.77-6.573-4.511-12.189.747 6.756 3.22 12.191 3.305 12.835 1.489 11.241 4.327 16.539 4.37 17.228.494 7.712 1.736 10.897 5.331 10.13z" style="fill:url(#f)"/><path d="M34.772 47.346c-.094-.397-.593.324-1.407.487-.83.165-1.306-.357-1.3.04.017 1.256 2.99.675 2.707-.527zm-5.508-17.258c-.094-.31-.447.234-.862.396-.423.165-.719-.05-.69.27.082.932 1.837.269 1.552-.666z" style="fill:#ffc191"/><path d="M29.245 29.785c-.303-.073-.27.962.054.927.108-.012.05-.902-.053-.927zm5.5 17.014c-.381-.1-.34 1.317.067 1.268.136-.017.063-1.234-.067-1.268z" style="fill:#4d3a2c"/><linearGradient id="g" x1="21.129" x2="17.929" y1="37.534" y2="36.389" gradientUnits="userSpaceOnUse"><stop offset="0" style="stop-color:#ed9a1f"/><stop offset=".766" style="stop-color:#fbb755"/><stop offset="1" style="stop-color:#ffc166"/></linearGradient><path d="M12.132 55.075s.478-4.28 2.327-7.45c.254-.437.384-6.202 5.52-17.401.163-.356 1.93-6.573 4.673-12.189-.748 6.756-3.382 12.191-3.467 12.835-1.489 11.241-4.27 16.548-4.37 17.228-.934 6.254-1.1 7.463-4.683 6.977z" style="fill:url(#g)"/><path d="M14.37 47.346c.094-.397.593.324 1.407.487.83.165 1.306-.357 1.3.04-.017 1.256-2.99.675-2.707-.527zm5.508-17.258c.094-.31.447.234.862.396.423.165.719-.05.69.27-.082.932-1.837.269-1.552-.666z" style="fill:#ffc191"/><path d="M19.896 29.785c.304-.073.27.962-.053.927-.108-.012-.05-.902.053-.927zm-5.499 17.014c.381-.1.34 1.317-.068 1.268-.135-.017-.062-1.234.068-1.268z" style="fill:#4d3a2c"/><path d="M45.907 11.445c6.913 16.098 12.305 24.663 17.119 29.567.05.364-.1.363-.1.363-2.696-2.765-8.638-9.822-17.019-29.93z" style="fill:#ffc191"/><path d="M64 39.198c.028-.373-.845-.377-.976.03-.284.888-.387 3.704-.267 4.765.038.34 1.11.157 1.1-.16-.047-1.496.099-4.073.142-4.635z" style="fill:#4d3a2c"/><path d="M63.939 41.65c-.058-.195-.276.19-.664.311-.395.123-.641-.116-.626.083.049.629 1.465.195 1.29-.394z" style="fill:#ffc191"/><path d="M63.965 41.572c-.016-.209-.306.072-.704.034-.406-.04-.593-.365-.62-.17-.084.62 1.37.767 1.324.136z" style="fill:#e3a371"/><linearGradient id="h" x1="55.012" x2="32.098" y1="46.909" y2="9.217" gradientUnits="userSpaceOnUse"><stop offset="0" style="stop-color:#f28500"/><stop offset=".606" style="stop-color:#fb9c17"/><stop offset="1" style="stop-color:#ffa521"/></linearGradient><path d="M24.24 8c7.074 18.563 13.972 32.167 23.06 46.653 2.19-7.272 12.949-14.05 15.193-14.02-4.856-4.502-10.787-15.588-16.586-29.188-4.949-.52-15.873-1.219-21.667-3.445z" style="fill:url(#h)"/><path d="M50.353 58.319C42.23 47.916 32.833 28.499 24.24 8c8.101 22.93 19.935 43.583 26.113 51.146v-.827z" style="fill:#ffc191"/><path d="M51.89 55.723c.077-.474-1.189-.59-1.415-.086-.496 1.102-.906 4.7-.832 6.075.024.44 1.595.343 1.61-.065.071-1.924.522-5.209.637-5.924z" style="fill:#4d3a2c"/><path d="M51.2 58.855c-.09.18.274.228.566.632.298.411.286.845.402.715.367-.412-.697-1.892-.968-1.347z" style="fill:#e3a371"/><path d="M51.574 58.858c-.065-.256-.417.21-.99.315-.584.108-.919-.23-.915.027.012.812 2.105.436 1.905-.342z" style="fill:#ffc191"/><path d="M51.62 58.762c-.004-.27-.45.054-1.023-.046-.585-.102-.826-.544-.883-.296-.18.782 1.914 1.157 1.905.342z" style="fill:#e3a371"/></svg>