<svg xmlns="http://www.w3.org/2000/svg" xml:space="preserve" style="enable-background:new 0 0 64 64" viewBox="0 0 64 64"><path d="M47.18 8.02s.49 1.24-.58 2.23l-.75-.12.18-2.29 1.15.18z" style="fill:#768b94"/><path d="M48.27 8.46s.18 1.25-.93 2.05l-.74-.26.58-2.23 1.09.44z" style="fill:#6e8189"/><path d="M49.28 9.11s.16 1.39-1.28 1.83l-.67-.44.93-2.05 1.02.66z" style="fill:#768b94"/><path d="M50.23 9.86s0 1.52-1.6 1.66l-.63-.57 1.28-1.83.95.74z" style="fill:#6e8189"/><path d="M50.98 10.76s-.29 1.28-1.92 1.28l-.43-.52 1.6-1.66.75.9z" style="fill:#768b94"/><path d="M51.5 11.81s-.61 1.33-2.15.84l-.29-.61 1.92-1.28.52 1.05z" style="fill:#6e8189"/><path d="M51.82 12.94s-1.06.55-2.24.62l-.23-.91 2.15-.84.32 1.13z" style="fill:#768b94"/><path d="M41 50.16h2v4h-2z" style="fill:#6e8189"/><path d="M52 21.66c-1 1.11-1 2.5-1 2.5s-.79.33-.75.08c.17-1.16.75-2.15 1.08-2.74.48-.87-.33-1.17-.99-.28-1.8 2.42-1.27 1.31.01-.66.85-1.33 2.79-.18 1.65 1.1z" style="fill:#99a8ae"/><linearGradient id="a" x1="-326.581" x2="-318.579" y1="19.155" y2="19.155" gradientTransform="matrix(-1 0 0 1 -270.581 0)" gradientUnits="userSpaceOnUse"><stop offset=".188" style="stop-color:#ff000e"/><stop offset=".403" style="stop-color:#f4000b"/><stop offset=".776" style="stop-color:#d80005"/><stop offset="1" style="stop-color:#c40000"/></linearGradient><path d="m50 15.16-1-2 3-1 1 1.33 1-.33 2 2-1 1s1 2 1 4v6h-2v-6h-4l-2-2 2-3z" style="fill:url(#a)"/><path d="M48 23.52v-5.37l2 2v2.9c0 .99.37 1.1 1.32 1.1H54v2h-3.5c-1.79.01-2.5-.99-2.5-2.63z" style="fill:#302c3b"/><path d="m52 26.16-1 2h-7v-2z" style="fill:#6e8189"/><linearGradient id="b" x1="-326.581" x2="-313.579" y1="42.155" y2="42.155" gradientTransform="matrix(-1 0 0 1 -270.581 0)" gradientUnits="userSpaceOnUse"><stop offset="0" style="stop-color:#5b666e"/><stop offset=".091" style="stop-color:#494e59"/><stop offset=".192" style="stop-color:#3b3b48"/><stop offset=".295" style="stop-color:#33303e"/><stop offset=".406" style="stop-color:#302c3b"/><stop offset=".467" style="stop-color:#302c3b"/></linearGradient><path d="M44 51.16c1.65 0 3 1.35 3 3 0 1.1.9 2 2 2s2-.9 2-2c0-.79-.51-1.75-1.1-2.87-.85-1.62-1.9-3.63-1.9-6.13 0-7.14 6-11.72 6-18v-1h2v1c0 6.37-6 11.01-6 18 0 2.01.89 3.71 1.68 5.2.68 1.3 1.33 2.52 1.33 3.8a3.999 3.999 0 1 1-8 0c0-.55-.45-1-1-1h-1v-2H44z" style="fill:url(#b)"/><path d="M43.36 22H10.64L13 60h28z" style="fill:#99a8ae"/><linearGradient id="c" x1="-297.581" x2="-297.581" y1="60" y2="28" gradientTransform="matrix(-1 0 0 1 -270.581 0)" gradientUnits="userSpaceOnUse"><stop offset="0" style="stop-color:#c40000"/><stop offset=".224" style="stop-color:#d80005"/><stop offset=".597" style="stop-color:#f4000b"/><stop offset=".812" style="stop-color:#ff000e"/></linearGradient><path d="M42 28H12l2 32h26z" style="fill:url(#c)"/><path d="M12 60h30c.55 0 1 .45 1 1v1H11v-1c0-.55.45-1 1-1z" style="fill:#6e8189"/><path d="M10 2h34c1.1 0 2 .9 2 2v23c0 1.1-.9 2-2 2H10c-1.1 0-2-.9-2-2V4c0-1.1.9-2 2-2z" style="fill:#99a8ae"/><linearGradient id="d" x1="-297.581" x2="-297.581" y1="28" y2="3" gradientTransform="matrix(-1 0 0 1 -270.581 0)" gradientUnits="userSpaceOnUse"><stop offset="0" style="stop-color:#ff000e"/><stop offset=".022" style="stop-color:#fd000e"/><stop offset=".668" style="stop-color:#d40004"/><stop offset="1" style="stop-color:#c40000"/></linearGradient><path d="M43.95 3c.58 0 1.05.49 1.05 1.09v22.83c0 .6-.47 1.09-1.05 1.09h-33.9C9.47 28 9 27.51 9 26.91V4.09C9 3.49 9.47 3 10.05 3h33.9z" style="fill:url(#d)"/><path d="M27 36.25c3.72 0 6.75 3.03 6.75 6.75s-3.03 6.75-6.75 6.75-6.75-3.03-6.75-6.75 3.03-6.75 6.75-6.75zM27 34a9 9 0 1 0 .001 18.001A9 9 0 0 0 27 34z" style="fill:#f46c60"/><path d="M28.8 43.9c-.3 0-.45-.15-.45-.45v-.9c0-.3.15-.45.45-.45h2.92c.3 0 .45.15.45.45V43c0 2.86-2.32 5.18-5.18 5.18-1.39 0-2.69-.55-3.66-1.52-.21-.22-.21-.42 0-.64l.96-.95c.21-.21.42-.21.63 0 .55.54 1.28.86 2.07.86 1.3 0 2.4-.85 2.79-2.03h-.98z" style="fill:#f46c60"/><path d="M12 6h30v19H12z" style="fill:#302c3b"/><linearGradient id="e" x1="29.5" x2="29.5" y1="21" y2="10" gradientTransform="translate(-10)" gradientUnits="userSpaceOnUse"><stop offset="0" style="stop-color:#302c3b"/><stop offset="1" style="stop-color:#6e7b85"/></linearGradient><path d="M13 10h13v11H13z" style="fill:url(#e)"/><path d="M27 10h4v11h-4z" style="fill:#ffe12c"/><path d="M32 10h4v11h-4z" style="fill:#fff"/><path d="M37 10h4v11h-4z" style="fill:#7ab51d"/><path d="M27.5 17.5h3v3h-3z" style="fill:#f9b700"/><path d="M32.5 17.5h3v3h-3z" style="fill:#cfd8dd"/><path d="M37.5 17.5h3v3h-3z" style="fill:#428210"/><path d="M14.5 11.5h10v8h-10z" style="fill:#cfd8dd"/><path d="M17.5 12.23h6v3h-6zm0 3.75h6v3h-6z" style="fill:#99a8ae"/><path d="M16.55 13.73a.722.722 0 0 0-.2-.09c-.06-.02-.11-.03-.17-.05v-.5c.13.02.27.08.39.18l.14-.3a.878.878 0 0 0-.41-.18c-.03-.01-.06-.01-.09-.01v-.29h-.32v.3a.83.83 0 0 0-.21.06c-.11.05-.2.12-.26.21a.539.539 0 0 0-.05.54c.04.06.08.12.15.15.06.04.13.07.2.1.06.02.13.04.19.05v.48c-.07-.01-.14-.02-.21-.04-.09-.03-.18-.08-.27-.14l-.14.3c.09.07.19.12.32.16.08.03.17.04.27.05V15h.32v-.3c.07-.01.14-.03.2-.06.11-.05.2-.12.26-.2.06-.09.09-.18.09-.3 0-.1-.02-.18-.06-.24a.341.341 0 0 0-.14-.17zm-.77-.29c-.04-.03-.06-.07-.06-.13 0-.07.03-.13.09-.17.03-.02.06-.03.09-.04v.41c-.04-.02-.09-.04-.12-.07zm.47.88c-.02.01-.05.02-.07.03v-.38c.04.02.08.03.1.05.04.03.06.07.06.12 0 .08-.03.14-.09.18zm-.39 3.81v-1.65h-.44v2h1.33v-.35z" style="fill:#302c3b"/></svg>