<svg xmlns="http://www.w3.org/2000/svg" xml:space="preserve" style="enable-background:new 0 0 64 64" viewBox="0 0 64 64"><path d="M18.01 54.21c1.79 3.66 1.93 5.22 1.98 7.38.08 3.22 21.99 3.22 21.99 0 0-2 .62-4.36 2.74-7.38H18.01z" style="fill:#deb38a"/><path d="M43.82 54.21c-1.57 2.58-1.84 4.95-1.84 7.38.5-2.46 1.5-4.72 3.48-7.38h-1.64zm-25.02 0h-1.32c1.98 3.9 2.11 5.18 2.51 7.38-.06-2.21.29-3.86-1.19-7.38z" style="fill:#cfa47c"/><path d="M44.17 5.62c-1.95 8.88-4.44 21.19-6.45 21.18-.95-.01-1.58-2.84-4.2-22.38-.74-5.54-8.22-4.49-7.46 1.04 1.65 11.88 2.15 25.51 2.15 25.51l19.19 2.56s1.87-12.28 3.79-26.42c.73-5.38-5.86-6.78-7.02-1.49z" style="fill:#ffd8b4"/><path d="M48.42 1.61c-1.91-.35-4.29.7-4.98 3.85l-.52 2.36C41.61 13.84 39.2 24.93 37.79 26c-.71-1.17-1.81-8.61-3.56-21.68-.25-1.9-1.28-3.35-2.81-3.98-1.47-.61-3.23-.36-4.48.63-1.3 1.03-1.89 2.71-1.63 4.6 1.52 11.01 2.07 23.69 2.14 25.27.49.05.97.09 1.46.12-.17-3.76-.79-15.88-2.14-25.6-.19-1.37.19-2.51 1.08-3.21.84-.67 2.03-.83 3.02-.42 1.04.43 1.72 1.43 1.9 2.8 2.99 22.31 3.37 23.02 4.93 23.03h.01c2.06 0 3.54-5.09 6.65-19.4l.52-2.36c.48-2.19 1.99-2.93 3.28-2.7 1.33.24 2.61 1.58 2.29 3.92-1.61 11.86-3.2 22.5-3.65 25.53.43.36.88.69 1.34 1.01.17-1.11 1.96-12.96 3.78-26.34.43-3.19-1.43-5.24-3.5-5.61z" style="fill:#cfa47c"/><radialGradient id="a" cx="32.584" cy="29.259" r="22.919" gradientTransform="matrix(.9994 0 0 1.0764 .72 2.593)" gradientUnits="userSpaceOnUse"><stop offset=".533" style="stop-color:#ffd8b4"/><stop offset=".742" style="stop-color:#fdd6b2"/><stop offset=".848" style="stop-color:#f7cfaa"/><stop offset=".929" style="stop-color:#edc49d"/><stop offset=".999" style="stop-color:#deb38a"/><stop offset="1" style="stop-color:#deb38a"/></radialGradient><path d="M45.27 35.89H13.25c-.01 4.49.17 10.76 3.63 16.5 5.87 9.74 33.8 13.07 33.8-14.02 0-.57-2.15-1.49-5.41-2.48z" style="fill:url(#a)"/><path d="M17.51 52c-3.35-5.55-3.53-11.74-3.52-16.1h-1.47c-.01 4.54.17 10.98 3.74 16.89 1.38 2.29 3.9 4.01 7.46 4.97-2.65-1.59-4.99-3.74-6.21-5.76zm32.43-13.46c-.06 13.9-8.53 18.5-11.93 20.18 4.89-1.16 13.4-5.34 13.4-20.35 0-.37-2.11-.45-1.47.17z" style="fill:#cfa47c"/><radialGradient id="b" cx="-248.739" cy="220.948" r="6.904" gradientTransform="matrix(0 -1.4561 2.1592 0 -445.816 -324.12)" gradientUnits="userSpaceOnUse"><stop offset=".279" style="stop-color:#deb38a"/><stop offset=".507" style="stop-color:#e8be96;stop-opacity:.6273"/><stop offset=".891" style="stop-color:#ffd8b4;stop-opacity:0"/></radialGradient><path d="M16.1 36.87c-.7 15.63 29.56 15.93 30.27.68.34-7.41-29.95-8.06-30.27-.68z" style="fill:url(#b)"/><path d="M42.22 37.69C30.85 41.52 30.6 51.57 31.27 55.63c.14.87.43.55.48-.02.38-4.27 1.68-12.88 10.69-17.51.85-.45.71-.72-.22-.41z" style="opacity:.3;fill:#cfa47c"/><path d="M12.29 37.3c-1.95-6.31 7.21-8.94 9.07-2.63l2.01 7.41c1.93 6.25-7.22 8.85-9.09 2.6l-1.99-7.38z" style="fill:#cfa47c"/><path d="M13.62 36.87c-1.39-4.54 5.02-6.4 6.42-1.86l2 7.48c1.39 4.52-5.03 6.36-6.42 1.83l-2-7.45z" style="fill:#ffd8b4"/><path d="M21 41.77c.25.58.65 1.8.7 2.26.21 2.03-4.23 3.14-4.97 1.27-.19-.47-.44-1.8-.46-2.45-.06-1.96 3.95-2.9 4.73-1.08z" style="opacity:.3;fill:#fff"/><path d="M19.4 32.31c-.86-6.61 8.68-7.69 9.46-1.09l1.72 11.53c.85 6.54-8.68 7.59-9.47 1.06l-1.71-11.5z" style="fill:#cfa47c"/><path d="M20.79 32.11c-.61-4.75 6.08-5.53 6.69-.77l1.71 11.6c.61 4.73-6.08 5.48-6.69.75l-1.71-11.58z" style="fill:#ffd8b4"/><path d="M28.26 42.02c.18.61.44 1.88.43 2.34-.03 2.06-4.6 2.63-5.13.67-.13-.49-.22-1.85-.17-2.51.18-1.96 4.3-2.41 4.87-.5z" style="opacity:.3;fill:#fff"/><path d="M39.89 28.74c-1.42-.31-7.18 1.89-11.77 2.66-2.53.42-3.92 5.21 1.36 7.03 4.55 1.57 9.08-.15 9.08-.15s.87 2.85 2.42 4.77c1.01 1.25 9.7-2.97 9.7-4.68 0-3.72-9.2-9.28-10.79-9.63z" style="fill:#ffd8b4"/><path d="M33.02 33.13c-.55.45-4.39 1.18-4.92.77-1.32-1.02-1.04-2.02-.44-2.17.92-.22 3.77-.58 5.26-.88.64-.12.46 1.99.1 2.28z" style="opacity:.3;fill:#fff"/><path d="M40.05 28.01c-.9-.2-2.63.26-5.6 1.09-2.05.57-4.38 1.22-6.45 1.57-1.51.25-2.71 1.69-2.85 3.41-.07.84.03 3.67 4.1 5.07 3.71 1.28 7.35.5 8.86.07a8.532 8.532 0 0 0 2.88 3.83c-1.44-1.78-1.95-5.74-1.95-5.74l-.73.27c-.04.02-4.35 1.6-8.59.14-2.06-.71-3.22-2.03-3.1-3.53.08-1.03.78-1.91 1.62-2.05 2.14-.36 4.51-1.02 6.6-1.6 2.02-.56 4.31-1.2 4.9-1.07 1.47.33 10.19 5.55 10.19 10.02l1.49-1.12c-.01-4.3-9.66-9.98-11.37-10.36z" style="fill:#cfa47c"/></svg>