<svg xmlns="http://www.w3.org/2000/svg" xml:space="preserve" style="enable-background:new 0 0 64 64" viewBox="0 0 64 64"><path d="M26.96 44.156c.895-1.117-6.025-8.048-7.144-7.16C9.38 45.931 2.73 61.056 2.73 61.056l.212.213s15.099-6.667 24.02-17.113z" style="fill:#4b5052"/><linearGradient id="a" x1="5.49" x2="30.37" y1="-441.706" y2="-441.706" gradientTransform="rotate(45.001 -520.693 -177.007)" gradientUnits="userSpaceOnUse"><stop offset="0" style="stop-color:#302c3b"/><stop offset=".368" style="stop-color:#4e5e67"/><stop offset=".546" style="stop-color:#49555f"/><stop offset=".835" style="stop-color:#3a3d4a"/><stop offset="1" style="stop-color:#302c3b"/></linearGradient><path d="M61.674 19.94c2.92-2.924-14.651-20.536-17.57-17.614L32.997 13.429C30.08 16.353 47.65 33.965 50.57 31.043L61.674 19.94z" style="fill:url(#a)"/><linearGradient id="b" x1="123.826" x2="123.826" y1="32.447" y2="2.215" gradientTransform="matrix(.5163 -.5163 -.5567 -.5567 -13.162 96.478)" gradientUnits="userSpaceOnUse"><stop offset="0" style="stop-color:#b88100"/><stop offset=".074" style="stop-color:#c9991b"/><stop offset=".219" style="stop-color:#e6c349"/><stop offset=".33" style="stop-color:#f8dd65"/><stop offset=".394" style="stop-color:#ffe770"/><stop offset=".613" style="stop-color:#deb83c"/><stop offset=".849" style="stop-color:#b88100"/></linearGradient><path d="M32.876 14.314c-.547.586-1.142 1.25-1.142 1.25-1.462 1.496 14.925 18.488 16.698 16.737 0 0 .669-.594 1.254-1.139 2.874-2.707-14.106-19.727-16.81-16.848z" style="fill:url(#b)"/><linearGradient id="c" x1="179.531" x2="179.599" y1="31.483" y2="2.595" gradientTransform="matrix(.3864 -.3872 -.5551 -.5569 -20.314 103.426)" gradientUnits="userSpaceOnUse"><stop offset="0" style="stop-color:#b88100"/><stop offset=".074" style="stop-color:#c9991b"/><stop offset=".219" style="stop-color:#e6c349"/><stop offset=".33" style="stop-color:#f8dd65"/><stop offset=".394" style="stop-color:#ffe770"/><stop offset=".501" style="stop-color:#eac84e"/><stop offset=".656" style="stop-color:#cfa224"/><stop offset=".777" style="stop-color:#be8a0a"/><stop offset=".849" style="stop-color:#b88100"/></linearGradient><path d="m31.848 16.11-1.374 1.41c-1.472 1.494 14.233 17.792 16.008 16.05l1.412-1.384c2.786-2.79-13.26-18.872-16.046-16.077z" style="fill:url(#c)"/><linearGradient id="d" x1="176.974" x2="177.039" y1="31.178" y2="2.916" gradientTransform="matrix(.3864 -.3872 -.5551 -.5569 -20.618 103.734)" gradientUnits="userSpaceOnUse"><stop offset="0" style="stop-color:#b88100"/><stop offset=".068" style="stop-color:#c08d0d"/><stop offset=".194" style="stop-color:#d6ab2f"/><stop offset=".362" style="stop-color:#f8dd65"/><stop offset=".394" style="stop-color:#ffe770"/><stop offset=".401" style="stop-color:#fce26b"/><stop offset=".454" style="stop-color:#e7c54a"/><stop offset=".51" style="stop-color:#d6ac2f"/><stop offset=".572" style="stop-color:#c9991a"/><stop offset=".641" style="stop-color:#bf8b0b"/><stop offset=".722" style="stop-color:#ba8303"/><stop offset=".849" style="stop-color:#b88100"/></linearGradient><path d="m30.542 17.762-.957 1.095c-1.472 1.491 13.786 17.344 15.56 15.605l1.096-.972c2.786-2.79-12.913-18.526-15.7-15.728z" style="fill:url(#d)"/><linearGradient id="e" x1="82.888" x2="82.917" y1="39.28" y2="64.186" gradientTransform="matrix(.7059 -.7071 .5805 .5821 -51.38 55.414)" gradientUnits="userSpaceOnUse"><stop offset="0" style="stop-color:#302c3b"/><stop offset=".362" style="stop-color:#4e5e67"/><stop offset=".541" style="stop-color:#49555f"/><stop offset=".833" style="stop-color:#3a3d4a"/><stop offset="1" style="stop-color:#302c3b"/></linearGradient><path d="M30.072 19.538s-.322.315-.497.49c-.826.823 2.808 5.447 5.871 8.604 3.151 3.071 7.764 6.71 8.596 5.885.17-.178.42-.555.42-.555s-.185-3.41-5.756-8.969c-5.554-5.575-8.634-5.455-8.634-5.455z" style="fill:url(#e)"/><linearGradient id="f" x1="2.614" x2="25.485" y1="-406.652" y2="-406.652" gradientTransform="rotate(45.001 -526.448 -173.926)" gradientUnits="userSpaceOnUse"><stop offset="0" style="stop-color:#687073"/><stop offset=".055" style="stop-color:#888f93"/><stop offset=".139" style="stop-color:#b1b9bd"/><stop offset=".215" style="stop-color:#d0d7dc"/><stop offset=".28" style="stop-color:#e2e9ee"/><stop offset=".325" style="stop-color:#e9f0f5"/><stop offset=".362" style="stop-color:#e1e8ed"/><stop offset=".418" style="stop-color:#cbd3d8"/><stop offset=".486" style="stop-color:#a8b1b5"/><stop offset=".52" style="stop-color:#949da1"/><stop offset=".603" style="stop-color:#9aa3a7"/><stop offset=".717" style="stop-color:#acb4b9"/><stop offset=".765" style="stop-color:#b6bdc2"/><stop offset=".835" style="stop-color:#b3babf"/><stop offset=".881" style="stop-color:#abb2b6"/><stop offset=".92" style="stop-color:#9ca3a7"/><stop offset=".955" style="stop-color:#878e92"/><stop offset=".988" style="stop-color:#6c7477"/><stop offset=".992" style="stop-color:#687073"/></linearGradient><path d="M42.73 33.474c1.898-1.895-10.336-14.15-12.235-12.254-9.42 9.404-21.749 17.859-21.749 17.859s-.9 11.575-6.678 21.315c-.255.43.261 1.062.615.709l15.012-15.006c-.887-.887-1.113-2.628.058-3.8a2.797 2.797 0 1 1 3.957 3.956c-1.181 1.177-2.952.907-3.803.055L2.893 61.318c-.353.352.279.868.708.614 9.738-5.767 21.318-6.681 21.318-6.681s8.4-12.383 17.81-21.777z" style="fill:url(#f)"/></svg>