<svg xmlns="http://www.w3.org/2000/svg" xml:space="preserve" viewBox="0 0 64 64"><linearGradient id="a" x1="32" x2="32" y1="2" y2="62" gradientUnits="userSpaceOnUse"><stop offset="0" style="stop-color:#47de00"/><stop offset=".281" style="stop-color:#45da00"/><stop offset=".573" style="stop-color:#41cd00"/><stop offset=".868" style="stop-color:#39b900"/><stop offset="1" style="stop-color:#35ad00"/></linearGradient><path fill="url(#a)" d="M62 54c0 4.4-3.6 8-8 8H10c-4.4 0-8-3.6-8-8V10c0-4.4 3.6-8 8-8h44c4.4 0 8 3.6 8 8v44z"/><path fill="#FFF" d="M30 9h4v46h-4z"/><path fill="#FFF" d="M9 30h46v4H9z"/><path fill="#FFF" d="m46.85 14.324 2.828 2.83-32.531 32.522-2.829-2.83z"/><path fill="#FFF" d="m49.676 46.848-2.83 2.828-32.521-32.53 2.829-2.829z"/></svg>