<svg xmlns="http://www.w3.org/2000/svg" xml:space="preserve" style="enable-background:new 0 0 64 64" viewBox="0 0 64 64"><path d="M59.26 39.54v-.74L55 33.87l9-1.51v-.74l-9-.77 4.26-5.66v-.74l-8.91 6.4-4.85-.14 2.33-4.79v-.82l-5.07-.93 3.29-3.57 10.35-2.22v-.74l-7.06-.29L54.63 10v-.74L40.34 21.78l-1.78-5.02-4.84 2.31-.19-4.84 5.73-8.81v-.74L32 11.28l-7.25-6.6v.74l5.73 8.81-.19 4.84-4.84-2.31-1.78 5.02L9.37 9.26V10l5.29 7.36-7.06.29v.74l10.35 2.22 3.29 3.57-5.07.93v.83l2.33 4.79-4.85.14-8.91-6.4v.74L9 30.86l-9 .77v.74l9 1.51-4.26 4.92v.74l8.91-5.66 4.85.24-2.33 3.96v.83l5.07 1.76-3.29 3.48L7.6 45.62v.74l7.06 1.02L9.37 54v.74l7.44-5.23 1.03 6.99 2.25-10.23 3.56-3.21 1.78 5.02 4.84-2.31.19 4.75-5.73 8.07v.74l5.73-4.22L32 64l1.52-8.9 5.73 4.22v-.74l-5.73-8.07.19-4.75 4.84 2.31 1.78-5.02 3.56 3.21 2.25 10.23 1.03-6.99 7.44 5.23V54l-5.29-6.62 7.06-1.02v-.74l-10.35-1.49-3.29-3.48 5.07-1.76v-.83l-2.33-3.96 4.85-.24 8.93 5.68zm-35.1-12.47 4.16 3.8h-4.64l-1.79-2.64 2.27-1.16zm0 10.69-2.28-1.25 1.79-2.64h4.64l-4.15 3.89zm6.12 3.92-3 1.99-.7-3.51 3.7-3.65v5.17zm0-13.36-3.7-3.65.7-3.51 3 1.99v5.17zm3.44-5.17 3-1.99.7 3.51-3.7 3.65v-5.17zm3 20.52-3-1.99v-5.17l3.7 3.65-.7 3.51zm3.12-5.91-4.16-3.89 5.69.24 2.02 2.97-3.55.68zm1.53-7.04-5.69.14 4.16-3.8 3.55.69-2.02 2.97z" style="fill:#40c6ff"/><radialGradient id="a" cx="32.201" cy="31.005" r="31.802" gradientTransform="matrix(1.0002 0 0 1.0007 -.208 .605)" gradientUnits="userSpaceOnUse"><stop offset="0" style="stop-color:#e6fbff"/><stop offset="1" style="stop-color:#94e6ff"/></radialGradient><path d="M59.26 38.8 55 33.14l9-1.51-9-1.51 4.26-5.66-8.91 5.66-4.85-.24 2.33-4.79-5.07-1.76 3.29-3.48 10.35-2.22-7.06-1.02 5.29-7.36-7.44 5.23-1.03-6.99-2.26 10.25-3.56 3.21-1.78-5.02-4.84 2.31-.19-4.75 5.73-8.81-5.74 4.22L32 0l-1.52 8.9-5.73-4.22 5.73 8.81-.19 4.75-4.84-2.31-1.78 5.02-3.56-3.21-2.26-10.23-1.03 6.99-7.45-5.24 5.29 7.36-7.06 1.03 10.35 2.22 3.29 3.48-5.07 1.76 2.33 4.79-4.85.24-8.91-5.66L9 30.13l-9 1.51 9 1.51-4.26 5.65 8.91-5.66 4.85.14-2.33 4.79 5.07 1.76-3.29 3.57L7.6 45.62l7.06 1.02L9.37 54l7.44-5.23 1.03 6.99 2.25-10.23 3.56-3.3 1.78 5.02 4.84-2.31.19 4.84-5.73 8.81 5.73-4.22 1.52 8.9 1.52-8.9 5.73 4.22-5.73-8.81.19-4.84 4.84 2.31 1.78-5.02 3.56 3.3 2.25 10.23 1.03-6.99L54.63 54l-5.29-7.36 7.06-1.02-10.35-2.22-3.29-3.57 5.07-1.76-2.33-4.79 4.85-.14 8.91 5.66zm-35.1-12.56 4.16 3.89h-4.64l-1.79-2.64 2.27-1.25zm0 10.69-2.28-1.16 1.79-2.63h4.64l-4.15 3.79zm6.12 3.92-3 1.99-.7-3.51 3.89-4.06-.19 5.58zm0-13.36-3.7-3.65.7-3.51 3 1.99v5.17zm3.44-5.16 3-1.99.7 3.51-3.7 3.65v-5.17zm3 20.51-3-1.99-.19-5.58 3.89 4.06-.7 3.51zm3.12-5.91-4.16-3.8 5.69.14 2.02 2.97-3.55.69zm1.53-7.04-5.69.24 4.16-3.89 3.55.69-2.02 2.96z" style="fill:url(#a)"/></svg>