<svg xmlns="http://www.w3.org/2000/svg" xml:space="preserve" style="enable-background:new 0 0 64 64" viewBox="0 0 64 64"><linearGradient id="a" x1="-486.673" x2="-486.673" y1="-403.593" y2="-421.611" gradientTransform="matrix(2.9058 0 0 2.7675 1446.186 1173.945)" gradientUnits="userSpaceOnUse"><stop offset="0" style="stop-color:#db0100"/><stop offset=".584" style="stop-color:#f31317"/><stop offset="1" style="stop-color:#ff1c23"/></linearGradient><path d="M32.01 14.45C24.23 1.83 3.02 6.37 2.09 21.74c3 2.05 18.29 17.83 15.26 23.32 4.08 3.45 8.97 7.34 14.65 11.95 19.22-15.58 29.34-22.89 29.93-33.25-5.15-3.19-18.71-12.53-20.47-16.14-3.73.9-7.17 3.13-9.45 6.83z" style="fill:url(#a)"/><radialGradient id="b" cx="31.937" cy="22.572" r="21.039" gradientUnits="userSpaceOnUse"><stop offset="0" style="stop-color:#d5def2"/><stop offset="1" style="stop-color:#c0c9db"/></radialGradient><path d="M5.23 32.64c.67 1.01 1.44 2.02 2.31 3.04 7.98-.53 48.62-18.51 51.1-22.56-1.21-1.49-2.7-2.72-4.35-3.67-10.89.82-36.08 11.44-49.06 23.19z" style="fill:url(#b)"/><path d="M2.09 21.76c25.33 5.03 56.57-8.62 56.57-8.62-4.36 7.12 3.28 10.58 3.28 10.58s-31.03 19.83-56.72 8.9c0 .01 2.97-3.63-3.13-10.86z" style="opacity:.3;fill:#302c3b"/><linearGradient id="c" x1="696.343" x2="750.943" y1="391.136" y2="391.136" gradientTransform="rotate(26.117 1171.637 -1284.107)" gradientUnits="userSpaceOnUse"><stop offset="0" style="stop-color:#cfd7eb"/><stop offset=".111" style="stop-color:#d9e0f0"/><stop offset=".309" style="stop-color:#e6eaf5"/><stop offset=".5" style="stop-color:#eaeef7"/><stop offset=".691" style="stop-color:#e6eaf5"/><stop offset=".889" style="stop-color:#d9e0f0"/><stop offset="1" style="stop-color:#cfd7eb"/></linearGradient><path d="M2.09 21.76c25.21 6.4 56.57-8.62 56.57-8.62 4.09 4.67 3.28 10.58 3.28 10.58s-33.08 18.46-56.72 8.9c0 .01-3.84-4.67-3.13-10.86z" style="fill:url(#c)"/><path d="M7.52 35.66C32.01 25.73 41.49 7.61 41.49 7.61c1.39 5.91 8.51 6.81 12.8 1.85 0 0-6.03 24.94-36.96 35.57 0 0 2.36-8.17-9.81-9.37z" style="opacity:.3;fill:#302c3b"/><linearGradient id="d" x1="7.434" x2="54.205" y1="26.016" y2="26.016" gradientTransform="translate(.086)" gradientUnits="userSpaceOnUse"><stop offset="0" style="stop-color:#e2e7f0"/><stop offset=".5" style="stop-color:#fff"/><stop offset=".826" style="stop-color:#edf0f6"/><stop offset="1" style="stop-color:#e2e7f0"/></linearGradient><path d="M7.52 35.66C34.33 26.06 41.5 7.61 41.5 7.61c2.71-1.35 10.37-.35 12.8 1.85 0 0-6.81 24.01-36.96 35.57-.01 0-6.04-4.63-9.82-9.37z" style="fill:url(#d)"/></svg>