<svg xmlns="http://www.w3.org/2000/svg" xml:space="preserve" style="enable-background:new 0 0 64 64" viewBox="0 0 64 64"><linearGradient id="a" x1="32" x2="32" y1="39.05" y2="24.95" gradientUnits="userSpaceOnUse"><stop offset="0" style="stop-color:#7a869c"/><stop offset="1" style="stop-color:#97a4be"/></linearGradient><path d="M3.75 39.05c4.1 0 6.2-2.9 7.8-5 1.5-2 2.1-2.7 3.5-2.7s2 .7 3.5 2.7c1.5 2.1 3.7 5 7.8 5s6.2-2.9 7.8-5c1.5-2 2.1-2.7 3.5-2.7s2 .7 3.5 2.7c1.5 2.1 3.7 5 7.8 5s6.2-2.9 7.8-5c1.5-2 2.1-2.7 3.5-2.7 2.5 0 2.5-6.4 0-6.4-4.1 0-6.2 2.9-7.8 5-1.5 2-2.1 2.7-3.5 2.7s-2-.7-3.5-2.7c-1.5-2.1-3.7-5-7.8-5s-6.2 2.9-7.8 5c-1.5 2-2.1 2.7-3.5 2.7s-2-.7-3.5-2.7c-1.5-2.1-3.7-5-7.8-5s-6.2 2.9-7.8 5c-1.5 2-2.1 2.7-3.5 2.7-2.5 0-2.5 6.4 0 6.4z" style="fill:url(#a)"/></svg>