<svg xmlns="http://www.w3.org/2000/svg" xml:space="preserve" style="enable-background:new 0 0 64 64" viewBox="0 0 64 64"><linearGradient id="a" x1="34.133" x2="27.335" y1="56.273" y2="17.72" gradientUnits="userSpaceOnUse"><stop offset="0" style="stop-color:#ffc801"/><stop offset="1" style="stop-color:#fdd41e"/></linearGradient><path d="M61.16 55.18C46.69 34.9 41.36 19.14 39.06 5.33c-.76-4.55-6.79-4.2-7.97-.32-3.7 12.15-5.07 14.47-6.53 14.47-1.22 0-2.97-2.13-6.53-14.47-1.12-3.9-7.28-4.24-7.97.32-1.08 7.09-3.2 14.01-7.58 23.37-2.36 5.05 4.75 8.05 7.65 2.63 2.72-5.07 5.26-11.58 5.26-11.58 2.77 6.2 7.2 8.82 9.7 8.82 2.24 0 6.92-2.56 9.24-8.82 0 0 5.87 22.73 21.08 40.85 3.3 3.95 8.68-1.31 5.75-5.42z" style="fill:url(#a)"/></svg>